<svg width="200" height="68" viewBox="0 0 200 68" fill="none" xmlns="http://www.w3.org/2000/svg">
<g clip-path="url(#clip0_1353_16859)">
<path d="M2.57222 67.7603H2.34356H1.3146H1.08594V67.5302V58.0282V57.8077H1.3146H2.34356H2.57222V58.0282V67.5302V67.7603Z" fill="white"/>
<path d="M14.5587 67.7603H14.33H13.3106H13.1963L13.1296 67.674L7.29878 60.1856V67.5302V67.7603H7.07012H6.04116H5.8125V67.5302V58.0282V57.8077H6.04116H7.06059H7.1654L7.23209 57.894L13.0629 65.3824V58.0282V57.8077H13.2915H14.33H14.5587V58.0282V67.5302V67.7603Z" fill="white"/>
<path d="M21.6552 67.7603H21.4265H20.388H20.1593V67.5302V59.0925H16.9962H16.7676V58.8624V58.0282V57.8077H16.9962H24.8278H25.0564V58.0282V58.8624V59.0925H24.8278H21.6552V67.5302V67.7603Z" fill="white"/>
<path d="M34.9183 67.7603H34.6896H27.2677H27.0391V67.5302V58.0282V57.8077H27.2677H34.3657H34.5943V58.0282V58.8624V59.0925H34.3657H28.5349V61.9882H33.775H34.0036V62.2183V63.0525V63.2826H33.775H28.5349V66.4755H34.6896H34.9183V66.7056V67.5302V67.7603Z" fill="white"/>
<path d="M46.3423 67.7603H44.4368L44.3606 67.674L40.9688 63.5415H38.8632V67.7603H37.377V57.8077H42.3979C44.9132 57.8077 45.7992 59.3514 45.7992 60.6842C45.7992 62.2566 44.7512 63.2346 42.8362 63.4743L46.0374 67.3959L46.3423 67.7699V67.7603ZM38.8632 62.2566H41.8549C43.484 62.2566 44.3034 61.7293 44.3034 60.6746C44.3034 59.9938 44.0652 59.0925 42.0168 59.0925H38.8632V62.2566Z" fill="white"/>
<path d="M56.9356 67.7603H56.707H55.6875H55.5827L55.5161 67.674L49.6853 60.1856V67.5302V67.7603H49.4566H48.4181H48.1895V67.5302V58.0282V57.8077H48.4181H49.4375H49.5519L49.6186 57.894L55.4494 65.3824V58.0282V57.8077H55.678H56.707H56.9356V58.0282V67.5302V67.7603Z" fill="white"/>
<path d="M68.9507 67.7603H67.3406L67.2739 67.6261L66.121 64.903H61.6431L60.4141 67.6261L60.3474 67.7603H58.7754L58.9278 67.4343L63.3486 57.9323L63.4153 57.8077H64.5395L64.5967 57.9419L68.8078 67.4343L68.9507 67.7603ZM62.1957 63.7045H65.5875L63.9202 59.8692L62.1957 63.7045Z" fill="white"/>
<path d="M73.5143 67.7603H73.2856H72.2471H72.0185V67.5302V59.0925H68.8459H68.6172V58.8624V58.0282V57.8077H68.8459H76.6774H76.9061V58.0282V58.8624V59.0925H76.6774H73.5143V67.5302V67.7603Z" fill="white"/>
<path d="M80.5644 67.7603H80.3357H79.2973H79.0781V67.5302V58.0282V57.8077H79.2973H80.3357H80.5644V58.0282V67.5302V67.7603Z" fill="white"/>
<path d="M88.1662 68C84.7744 68 83.25 65.3824 83.25 62.7744C83.25 60.1664 84.7934 57.5296 88.1662 57.5296C91.5389 57.5296 93.0918 60.1568 93.0918 62.7456C93.0918 65.3345 91.5675 67.9712 88.1662 67.9712V68ZM88.1662 58.8528C85.8034 58.8528 84.7363 60.828 84.7363 62.7744C84.7363 64.7208 85.8034 66.7152 88.1662 66.7152C90.529 66.7152 91.596 64.74 91.596 62.7744C91.596 60.8088 90.5385 58.8528 88.1662 58.8528Z" fill="white"/>
<path d="M104.555 67.7603H104.326H103.307H103.192L103.126 67.674L97.2949 60.176V67.5302V67.7603H97.0757H96.0373H95.8086V67.5302V58.0282V57.8077H96.0373H97.0567H97.171L97.2377 57.894L103.069 65.3824V58.0282V57.8077H103.297H104.326H104.555V58.0282V67.5302V67.7603Z" fill="white"/>
<path d="M116.568 67.7603H114.948L114.891 67.6261L113.738 64.903H109.26L108.022 67.6261L107.965 67.7603H106.393L106.545 67.4343L110.966 57.9323L111.032 57.8077H112.157L112.214 57.9419L116.425 67.4343L116.568 67.7603ZM109.813 63.7045H113.195L111.528 59.8692L109.813 63.7045Z" fill="white"/>
<path d="M125.895 67.7603H125.666H118.635H118.406V67.5302V58.0282V57.8077H118.635H119.673H119.902V58.0282V66.4755H125.666H125.895V66.7056V67.5302V67.7603Z" fill="white"/>
<path d="M142.435 67.7603H140.815L140.758 67.6261L139.596 64.903H135.118L133.889 67.6261L133.822 67.7603H132.26L132.412 67.4343L136.833 57.9323L136.89 57.8077H138.014L138.081 57.9419L142.292 67.4343L142.435 67.7603ZM135.68 63.7045H139.1L137.433 59.8692L135.718 63.7045H135.68Z" fill="white"/>
<path d="M145.722 67.7603H145.494H144.455H144.227V67.5302V58.0282V57.8077H144.455H145.494H145.722V58.0282V67.5302V67.7603Z" fill="white"/>
<path d="M157.698 67.7603H155.792L155.725 67.674L152.353 63.5415H150.218V67.7603H148.723V57.8077H153.753C156.259 57.8077 157.154 59.3514 157.154 60.6842C157.154 62.2566 156.106 63.2346 154.191 63.4743L157.393 67.3959L157.698 67.7699V67.7603ZM150.218 62.2566H153.201C154.83 62.2566 155.659 61.7293 155.659 60.6746C155.659 59.9938 155.42 59.0925 153.372 59.0925H150.218V62.2566Z" fill="white"/>
<path d="M161.013 67.7603H159.518V57.8076H165.091C165.481 57.7571 165.878 57.7929 166.253 57.9125C166.628 58.0321 166.973 58.2326 167.264 58.5001C167.554 58.7676 167.783 59.0956 167.934 59.4612C168.085 59.8268 168.156 60.2212 168.14 60.617C168.14 62.4484 166.892 63.4935 164.624 63.4935H161.013V67.8082V67.7603ZM161.013 62.1607H164.224C166.396 62.1607 166.654 61.2786 166.654 60.617C166.654 60.1951 166.654 59.0925 164.653 59.0925H161.013V62.1607Z" fill="white"/>
<path d="M174.352 68C170.95 68 169.436 65.3824 169.436 62.7744C169.436 60.1664 170.989 57.5296 174.352 57.5296C177.715 57.5296 179.277 60.1568 179.277 62.7456C179.277 65.3345 177.753 67.9712 174.352 67.9712V68ZM174.352 58.8528C171.989 58.8528 170.931 60.828 170.931 62.7744C170.931 64.7208 171.989 66.7152 174.352 66.7152C176.715 66.7152 177.782 64.74 177.782 62.7744C177.782 60.8088 176.724 58.8528 174.352 58.8528Z" fill="white"/>
<path d="M190.778 67.7603H188.872L188.805 67.674L185.423 63.5415H183.299V67.7603H181.803V57.8077H186.833C189.339 57.8077 190.225 59.3514 190.225 60.6842C190.225 62.2566 189.177 63.2346 187.271 63.4743L190.463 67.3959L190.778 67.7699V67.7603ZM183.299 62.2566H186.281C187.91 62.2566 188.739 61.7293 188.739 60.6746C188.739 59.9938 188.501 59.0925 186.452 59.0925H183.299V62.2566Z" fill="white"/>
<path d="M196.465 67.7603H196.237H195.198H194.97V67.5302V59.0925H191.797H191.568V58.8624V58.0282V57.8077H191.797H199.638H199.867V58.0282V58.8624V59.0925H199.638H196.465V67.5302V67.7603Z" fill="white"/>
<path d="M27.601 23.9419H27.096H23.9615H23.4566L23.2946 23.4721L17.721 7.335L12.1761 23.4721L12.0141 23.9419H11.5091H8.37462H7.86966L7.7077 23.4625L0.314405 1.49574L0 0.556091H0.981326H4.39215H4.8971L5.05907 1.04509L10.0514 16.3288L15.4345 1.02592L15.5964 0.556091H16.1014H19.3693H19.8647L20.0362 1.02592L25.4192 16.3288L30.4116 1.04509L30.564 0.556091H31.0785H34.4798H35.4611L35.1467 1.49574L27.763 23.4625L27.601 23.9419Z" fill="white"/>
<path d="M46.2177 23.9419H45.5127H42.3496H41.6445V23.2323V1.26562V0.556091H42.3496H45.5127H46.2177V1.26562V23.2323V23.9419Z" fill="white"/>
<path d="M75.3716 23.9419H74.6666H71.494H71.1414L70.9223 23.6542L59.375 7.97741V23.2323V23.9419H58.67H55.707H55.002V23.2323V1.26562V0.556091H55.707H58.9082H59.2607L59.4703 0.843739L70.9985 16.5493V1.26562V0.556091H71.694H74.6666H75.3716V1.26562V23.2323V23.9419Z" fill="white"/>
<path d="M104.106 23.9419H103.411H100.238H99.8856L99.6664 23.6542L88.1192 7.97741V23.2323V23.9419H87.4142H84.4511H83.7461V23.2323V1.26562V0.556091H84.4511H87.6523H88.0049L88.2145 0.843739L99.7331 16.5493V1.26562V0.556091H100.438H103.411H104.106V1.26562V23.2323V23.9419Z" fill="white"/>
<path d="M117.435 23.9419H116.729H113.557H112.861V23.2323V1.26562V0.556091H113.557H116.729H117.435V1.26562V23.2323V23.9419Z" fill="white"/>
<path d="M130.765 23.9706H126.191V0.556091H138.901C142.121 0.556091 145.875 2.39704 145.875 7.59388C145.875 12.1675 142.236 14.5646 138.634 14.5646H130.765V23.9706ZM130.765 10.643H137.434C141.321 10.643 141.321 8.34177 141.321 7.58429C141.321 5.44611 140.292 4.53522 137.872 4.53522H130.784V10.643H130.765Z" fill="white"/>
<path d="M169.912 23.9419H169.207H152H151.295V23.2323V1.26562V0.556091H152H168.873H169.569V1.26562V3.79693V4.50646H168.873H155.878V9.87589H167.082H167.777V10.5854V13.1167V13.8263H167.082H155.878V20.0011H169.207H169.912V20.701V23.2323V23.9419Z" fill="white"/>
<path d="M187.767 24.498C180.011 24.498 174.99 19.7039 174.99 12.2538C174.99 6.30908 179.468 0 187.767 0C193.483 0 197.942 2.58883 199.695 6.92273L200 7.68979L199.199 7.88156L196.027 8.64862L195.427 8.79244L195.207 8.20756C194.15 5.37902 191.644 3.95037 187.767 3.95037C182.565 3.95037 179.84 8.03497 179.84 12.062C179.84 16.0891 181.926 20.5572 187.767 20.5572C192.454 20.5572 195.255 18.5054 195.57 14.9002H187.3V10.9594H199.847V24.1337H195.674V21.9475C193.769 23.6447 191.139 24.498 187.767 24.498Z" fill="white"/>
<path d="M168.836 53.3779C162.167 53.3779 159.251 48.2865 159.251 43.2335C159.251 38.1805 162.214 33.0891 168.836 33.0891C175.458 33.0891 178.421 38.1901 178.421 43.2335C178.421 48.277 175.458 53.3779 168.836 53.3779ZM168.836 36.0519C164.53 36.0519 162.596 39.6571 162.596 43.2335C162.596 46.81 164.501 50.4247 168.836 50.4247C173.171 50.4247 175.067 46.81 175.067 43.2335C175.067 39.6571 173.161 36.0519 168.836 36.0519ZM147.075 53.3779C142.245 53.3779 139.453 51.5178 138.653 47.8455L138.539 47.299L139.044 47.0688L141.006 46.1867L141.959 45.7744L142.016 46.7332C142.159 49.1878 143.817 50.3768 147.104 50.3768C149.962 50.3768 152.039 49.1495 152.039 47.4044C152.039 45.6594 150.134 44.9498 146.999 44.2403C143.865 43.5308 139.768 42.6007 139.768 38.3147C139.768 34.6904 143.522 33.0412 147.018 33.0412C151.201 33.0412 153.811 34.4986 154.993 37.4997L155.231 38.1038L154.64 38.3915L152.82 39.2448L152.134 39.5708L151.877 38.8517C151.029 36.493 148.771 35.9752 147.018 35.9752C145.265 35.9752 143.112 36.8573 143.112 38.286C143.112 40.079 145.017 40.6159 148.104 41.2871C151.191 41.9583 155.383 42.85 155.383 47.0976C155.383 50.9904 152.287 53.3012 147.104 53.3012L147.075 53.3779ZM39.7583 53.3779C33.7369 53.3779 30.288 49.6864 30.288 43.2335C30.288 35.7547 35.0994 33.0891 39.6154 33.0891C44.1314 33.0891 46.7228 34.5945 48.4092 38.1326L48.7236 38.7846L48.0567 39.0722L46.094 39.9352L45.4081 40.2324L45.1603 39.5229C44.4172 37.3847 43.2549 36.0519 39.8155 36.0519C34.442 36.0519 33.6321 40.5488 33.6321 43.2335C33.6321 48.0277 35.8235 50.4247 40.1299 50.4247C42.7975 50.4247 44.3315 49.4084 45.2651 47.0497L45.5319 46.3593L46.1988 46.6757L48.1043 47.5578L48.7236 47.8455L48.4473 48.4783C46.9706 51.7767 44.1409 53.3779 39.7869 53.3779H39.7583ZM199.867 52.9273H196.894L196.694 52.6588L186.128 39.0722V52.9273H182.775V33.559H185.785L185.995 33.8178L196.561 47.414V33.559H199.915V52.9273H199.867ZM126.506 52.9273H118.274V33.559H127.049C133.546 33.559 135.862 38.564 135.862 43.2431C135.862 47.7112 133.413 52.9369 126.506 52.9369V52.9273ZM121.628 49.9645H126.391C131.917 49.9645 132.517 45.2567 132.517 43.2527C132.517 42.1309 132.241 36.5409 126.801 36.5409H121.637V49.9645H121.628ZM115.187 52.9273H110.909L110.7 52.6684L104.383 44.9402H100.724V52.9273H97.3707V33.559H107.165C112.11 33.559 113.834 36.6272 113.834 39.2544C113.834 42.2076 111.929 44.1636 108.451 44.7293L114.253 51.7767L115.206 52.9177L115.187 52.9273ZM100.724 41.9775H106.126C108.985 41.9775 110.509 41.0186 110.509 39.2448C110.509 37.9696 110.052 36.5122 106.441 36.5122H100.724V41.9775ZM93.8551 52.9273H90.2251L90.0441 52.5054L87.91 47.5195H79.7735L77.506 52.5246L77.325 52.9273H73.7712L74.2286 51.9684L82.6032 33.9521L82.7937 33.5494H85.2709L85.4519 33.9617L93.4168 51.9493L93.8551 52.9081V52.9273ZM81.0693 44.7101H86.7L83.937 38.2764L81.0788 44.7101H81.0693ZM70.5033 52.9273H67.1497V44.4416H56.2122V52.9273H52.8871V33.559H56.2122V41.4885H67.1497V33.559H70.5033V52.9273ZM25.2956 52.9273H21.9134V33.559H25.2575V52.9273H25.2956ZM18.9123 52.9273H14.6344L14.4248 52.6684L8.10814 44.9402H4.45913V52.9273H1.10547V33.559H10.8997C15.8349 33.559 17.5689 36.6272 17.5689 39.2544C17.5689 42.2076 15.6634 44.1636 12.1954 44.7293L17.9786 51.7767L18.9313 52.9177L18.9123 52.9273ZM4.45913 41.9775H9.85166C12.7671 41.9775 14.2438 41.0186 14.2438 39.2448C14.2438 37.9696 13.777 36.5122 10.1756 36.5122H4.45913V41.9775Z" fill="white"/>
<path d="M199.847 27.9977H1.00977V29.5031H199.847V27.9977Z" fill="white"/>
</g>
<defs>
<clipPath id="clip0_1353_16859">
<rect width="200" height="68" fill="white"/>
</clipPath>
</defs>
</svg>
