<svg width="200" height="79" viewBox="0 0 200 79" fill="none" xmlns="http://www.w3.org/2000/svg">
<path d="M45.1338 79L45.0869 78.8926H45.1338V79ZM42.4492 72.8818L45.0869 78.8926H38.3965L35.7432 72.8818H42.4492ZM0 72.8818H3.97754L3.85059 72.9893H0V72.8818ZM57.6475 42.7197V72.8818H42.4492L32.0859 49.2676L27.166 53.4541L35.7432 72.8818H3.97754L45.5205 37.8516L57.6475 42.7197ZM55.1875 6.01074C56.5778 6.0108 57.7539 7.08426 57.7539 8.58691V19.4727L0 68.0518V19.8574L37.1123 34.5625L42.46 30.0547L19.3574 20.7676V20.7158L12.8291 6.01074H55.1875ZM15.8281 28.2295L23.6357 45.9404L28.5557 41.7539L24.0635 31.3428L15.9355 28.2295H15.8281ZM50.8691 33.3408L45.5205 37.8516L45.3477 37.7822L50.8027 33.2744L50.8691 33.3408ZM57.7539 36.0654L50.9092 33.3818L50.8691 33.3408L57.7539 27.5352V36.0654ZM63.4229 22.7559L57.7539 27.5352V19.4727L63.4229 14.7051V22.7559ZM19.3574 20.7676V20.8232L11.1221 17.4961L11.1016 17.4492L19.3574 20.7676ZM6.06738 6.01074L11.1016 17.4492L0 12.9873V6.01074H6.06738ZM12.8291 6.01074H6.06738L3.42188 0H10.1602L12.8291 6.01074Z" fill="white"/>
<path d="M159.037 19.8574C158.502 19.8574 158.075 19.8574 157.54 20.1794C157.112 20.3941 156.684 20.5014 156.363 20.8234C156.043 21.1454 155.722 21.3601 155.508 21.6821C155.187 22.0041 155.08 22.3261 154.866 22.5408C154.117 24.0435 148.556 35.3139 146.524 39.6074C144.385 35.2066 139.037 23.9362 138.182 22.4335C137.861 21.6821 137.326 21.0381 136.684 20.5014C135.829 19.9647 134.973 19.6427 134.01 19.6427H124.812L140.321 48.9457V66.8709H152.62V48.9457L168.128 19.6427H159.144V19.8574H159.037Z" fill="white"/>
<path d="M109.306 20.072C108.878 20.2866 108.45 20.394 108.129 20.716C107.808 21.038 107.487 21.2527 107.273 21.5747C106.953 21.8967 106.846 22.2187 106.632 22.4334C105.883 23.9361 100.322 35.2065 98.2894 39.4999C96.1504 35.0991 90.8028 23.8288 89.9472 22.326C89.6263 21.5747 89.0915 20.9307 88.4498 20.394C87.5942 19.8573 86.7386 19.5353 85.776 19.5353H76.5781L92.0862 48.8383V66.7635H104.386V48.8383L119.894 19.5353H110.91C110.482 19.5353 109.947 19.75 109.412 19.8573V20.072H109.306Z" fill="white"/>
<path d="M199.894 19.8573V31.3424V48.1943C199.894 60.538 192.728 67.6222 180.321 67.6222C167.915 67.6222 169.091 65.7975 165.455 62.2554L168.557 56.7812C169.091 55.8152 170.161 55.1712 171.337 55.1712C172.514 55.1712 172.514 55.3858 173.049 55.6005C174.974 56.7812 177.006 57.4252 179.359 57.4252C184.92 57.4252 188.557 53.6684 188.557 47.9796V31.235H175.295V22.5407C175.295 21.038 176.471 19.8573 177.968 19.8573H200.001" fill="white"/>
</svg>
