<svg width="200" height="200" viewBox="0 0 200 200" fill="none" xmlns="http://www.w3.org/2000/svg">
<g clip-path="url(#clip0_1191_16170)">
<mask id="mask0_1191_16170" style="mask-type:luminance" maskUnits="userSpaceOnUse" x="0" y="0" width="200" height="200">
<path d="M0 200H200V0H0V200Z" fill="white"/>
</mask>
<g mask="url(#mask0_1191_16170)">
<path d="M10.7645 59.2518H-0.00488281V0.663528H10.3481C19.7175 0.663528 24.8939 4.10824 24.8939 14.6141C24.8939 22.4918 22.6751 26.3506 18.3198 28.0729V28.3082C24.4022 30.1906 26.0469 34.4612 26.0469 42.8329C26.0469 55.1435 19.2234 59.2447 10.7528 59.2447M9.68453 7.21647H8.20453V25.9271H10.5881C15.4375 25.9271 16.9151 22.3976 16.9151 15.9976C16.9151 9.10352 14.6986 7.21647 9.68453 7.21647ZM10.9151 31.8353H8.21865V52.68H9.781C15.3692 52.68 17.7528 49.9718 17.7528 42.2588C17.7528 34.3812 15.7786 31.8376 10.9292 31.8376" fill="white"/>
</g>
<path d="M30.2422 0.656494V59.2447H51.8563V51.6189H38.461V32.4212H49.8045V25.2753H38.461V8.28944H51.1998V0.656494H30.2422Z" fill="white"/>
<path d="M57.0352 0.656494V59.2447H77.1716V51.6189H65.1716V0.656494H57.0352Z" fill="white"/>
<path d="M82.5107 0.656494V59.2447H94.6731V34.3036H105.275V24.0447H94.6731V11.6541H106.746V0.656494H82.5107Z" fill="white"/>
<path d="M113.903 0.656494L105.433 59.2447H117.76L118.828 48.1647H125.409L126.644 59.2447H138.969L130.423 0.656494H113.903ZM121.71 12.8024H121.868L124.588 38.16H119.411L121.71 12.8024Z" fill="white"/>
<mask id="mask1_1191_16170" style="mask-type:luminance" maskUnits="userSpaceOnUse" x="0" y="0" width="200" height="200">
<path d="M0 200H200V0H0V200Z" fill="white"/>
</mask>
<g mask="url(#mask1_1191_16170)">
<path d="M154.586 59.9059C144.557 59.9059 140.531 55.72 140.037 41.0306H151.131C151.461 47.8541 152.117 49.8918 154.661 49.8918C156.635 49.8918 157.701 48.3341 157.701 45.2141C157.701 32.4941 140.03 34.7929 140.03 15.6706C140.03 5.00235 145.289 -0.00471497 154.741 -0.00471497C165.59 -0.00471497 168.795 6.15058 168.877 17.4753H159.023C158.859 12.6353 158.367 9.67999 155.494 9.67999C152.863 9.67999 152.454 12.0588 152.454 14.1106C152.454 25.847 169.63 23.4659 169.63 42.4235C169.63 54.24 164.371 59.9035 154.59 59.9035" fill="white"/>
</g>
<path d="M170.774 0.656494V11.6541H179.076V59.2447H191.311V11.6541H199.716V0.656494H170.774Z" fill="white"/>
<mask id="mask2_1191_16170" style="mask-type:luminance" maskUnits="userSpaceOnUse" x="0" y="0" width="200" height="200">
<path d="M0 200H200V0H0V200Z" fill="white"/>
</mask>
<g mask="url(#mask2_1191_16170)">
<path d="M13.7434 130.734C2.93629 130.734 -0.00488281 121.927 -0.00488281 98.9694C-0.00488281 75.5718 3.79982 67.713 14.6092 67.713C24.8116 67.713 27.3151 74.7059 27.4069 87.9177H19.7151C19.6281 79.1106 18.5057 74.88 14.6139 74.88C10.7222 74.88 8.73159 78.7647 8.73159 98.9694C8.73159 118.734 10.2022 123.318 14.0916 123.318C17.4634 123.318 19.1928 120.038 19.5386 108.294H27.4986C26.981 124.699 23.2634 130.744 13.7481 130.744" fill="white"/>
</g>
<path d="M32.252 68.3083H40.899V129.955H32.252V68.3083Z" fill="white"/>
<path d="M54.2114 129.958V76.3388H45.1338V68.3083H71.9408V76.3388H62.7738V129.958H54.2114Z" fill="white"/>
<path d="M86.2072 129.958V108.285L74.9648 68.3083H84.3907L90.4425 96.2847H90.5296L97.1013 68.3083H106.01L94.8543 108.285V129.958H86.2072Z" fill="white"/>
<path d="M9.77176 137.574L0 199.221H8.64706L10.6353 184.887H20.4071L22.5718 199.221H31.3906L21.2729 137.574H9.77176ZM15.2188 147.158H15.3929L19.8024 177.553H11.1553L15.2188 147.158Z" fill="white"/>
<path d="M34.3271 199.224H42.9742V137.565H34.3271V199.224Z" fill="white"/>
<mask id="mask3_1191_16170" style="mask-type:luminance" maskUnits="userSpaceOnUse" x="0" y="0" width="200" height="200">
<path d="M0 200H200V0H0V200Z" fill="white"/>
</mask>
<g mask="url(#mask3_1191_16170)">
<path d="M68.3103 168.831V169.089C72.9809 170.558 74.0162 173.235 74.3621 182.56C74.6209 190.675 74.7951 197.496 76.0092 198.706V199.224H67.2774C66.3276 194.216 65.9221 189.121 66.068 184.026C65.8092 174.788 64.3386 173.233 60.2727 173.233H57.1598V199.224H48.5127V137.576H61.4821C70.908 137.576 75.1456 142.842 75.1456 153.205C75.1456 161.925 73.0703 166.588 68.3221 168.833M60.1927 145.002H57.3409V166.242H60.4539C65.0351 166.242 66.7645 161.751 66.7645 154.845C66.7645 147.678 64.7762 145.002 60.1927 145.002Z" fill="white"/>
<path d="M92.0873 175.221H88.8873V199.221H80.2402V137.574H91.2991C101.33 137.574 106.864 141.809 106.864 155.88C106.864 169.176 101.588 175.221 92.0779 175.221M91.2144 145.433H88.8802V167.449H91.3861C95.8826 167.449 98.0449 164.254 98.0449 156.054C98.0449 149.231 96.3155 145.433 91.2214 145.433" fill="white"/>
<path d="M124.341 200C112.753 200 110.16 191.193 110.16 168.398C110.16 146.381 112.748 136.969 124.428 136.969C136.36 136.969 138.868 145.948 138.868 168.398C138.868 191.193 135.93 200 124.341 200ZM124.428 144.913C120.278 144.913 118.894 150.089 118.894 168.398C118.894 187.393 120.104 191.969 124.341 191.969C128.664 191.969 130.134 186.442 130.134 168.398C130.134 149.056 128.838 144.913 124.428 144.913Z" fill="white"/>
<path d="M163.339 168.831V169.089C168.01 170.558 169.045 173.235 169.391 182.56C169.65 190.675 169.824 197.496 171.038 198.706V199.224H162.304C161.354 194.216 160.949 189.121 161.094 184.026C160.836 174.788 159.365 173.233 155.299 173.233H152.186V199.224H143.539V137.576H156.508C165.934 137.576 170.17 142.842 170.17 153.205C170.17 161.925 168.094 166.588 163.346 168.833M155.217 145.002H152.363V166.242H155.478C160.059 166.242 161.788 161.751 161.788 154.845C161.788 147.678 159.8 145.002 155.217 145.002Z" fill="white"/>
</g>
<path d="M173.193 137.574V145.605H182.273V199.221H190.84V145.605H200.017V137.574H173.193Z" fill="white"/>
</g>
<defs>
<clipPath id="clip0_1191_16170">
<rect width="200" height="200" fill="white"/>
</clipPath>
</defs>
</svg>
