<svg width="200" height="30" viewBox="0 0 200 30" fill="none" xmlns="http://www.w3.org/2000/svg">
<path d="M64.5377 15.1108C64.5403 15.8687 64.2381 16.5966 63.6975 17.1344C63.1568 17.6722 62.422 17.9758 61.6547 17.9784L58.4798 17.9894C57.7126 17.992 56.9756 17.6935 56.4312 17.1594C55.8868 16.6254 55.5794 15.8996 55.5767 15.1417L55.5752 14.715C55.5725 13.9571 55.8748 13.2292 56.4154 12.6914C56.9561 12.1537 57.6909 11.85 58.4581 11.8474L61.633 11.8364C62.4003 11.8338 63.1372 12.1323 63.6817 12.6664C64.2261 13.2004 64.5335 13.9262 64.5362 14.6841L64.5377 15.1108ZM62.714 14.7786C62.712 14.3984 62.5572 14.0346 62.2836 13.7672C62.01 13.4998 61.6401 13.3507 61.2552 13.3527L58.86 13.3651C58.4751 13.3671 58.1068 13.52 57.8361 13.7902C57.5654 14.0604 57.4144 14.4258 57.4164 14.806L57.4176 15.0379C57.4196 15.4181 57.5745 15.7819 57.848 16.0493C58.1216 16.3167 58.4915 16.4658 58.8764 16.4638L61.2717 16.4515C61.6565 16.4495 62.0249 16.2965 62.2956 16.0263C62.5663 15.7561 62.7173 15.3907 62.7152 15.0106L62.714 14.7786Z" fill="white"/>
<path d="M71.9342 18.0258C71.7119 18.0258 71.4927 18.0149 71.2766 17.9933C71.1894 17.9842 71.1085 17.9432 71.0496 17.8781C70.9907 17.8131 70.9578 17.7286 70.9573 17.6407V16.2212C70.9573 16.0484 70.8902 15.881 70.7694 15.7527L67.3973 12.0833C67.3764 12.0617 67.3626 12.0346 67.3576 12.0052C67.3526 11.9759 67.3565 11.9456 67.369 11.918C67.3814 11.8905 67.4018 11.8669 67.4277 11.8501C67.4536 11.8333 67.4838 11.8241 67.5147 11.8235H69.2383C69.3662 11.8235 69.4926 11.8513 69.6087 11.905C69.7247 11.9587 69.8276 12.037 69.9099 12.1343L71.8121 14.3564C71.817 14.3619 71.8266 14.367 71.8398 14.3711C71.853 14.3752 71.8694 14.3781 71.8872 14.3796C71.8997 14.3796 71.9122 14.3796 71.9248 14.3796C71.9373 14.3796 71.9498 14.3796 71.9623 14.3796C71.98 14.378 71.9963 14.3751 72.0095 14.371C72.0227 14.3669 72.0323 14.3619 72.0375 14.3564L73.9302 12.125C74.0116 12.0275 74.1135 11.9487 74.2287 11.8942C74.3439 11.8397 74.4696 11.8108 74.5971 11.8096L76.3208 11.8003C76.3511 11.8008 76.3809 11.8096 76.4066 11.8258C76.4322 11.842 76.4527 11.8649 76.4655 11.8917C76.4784 11.9186 76.4831 11.9483 76.479 11.9773C76.475 12.0063 76.4625 12.0334 76.4429 12.0554L73.0895 15.748C72.9705 15.8771 72.9051 16.0444 72.9064 16.2166L72.9111 17.6361C72.9107 17.7232 72.8784 17.8071 72.8205 17.8721C72.7625 17.937 72.6828 17.9785 72.5964 17.9887C72.3772 18.0134 72.1565 18.0258 71.9342 18.0258Z" fill="white"/>
<path d="M84.1637 16.3045L82.8863 14.1242C82.8655 14.0872 82.8354 14.0562 82.7989 14.0341C82.7624 14.012 82.7207 13.9994 82.6776 13.9975C82.6345 13.9957 82.5914 14.0046 82.5523 14.0235C82.5133 14.0424 82.4795 14.0706 82.4542 14.1056L79.8852 17.7101C79.8125 17.8117 79.7166 17.8946 79.6054 17.952C79.4943 18.0093 79.3712 18.0393 79.2464 18.0394H77.7952C77.7499 18.0396 77.7053 18.0274 77.6666 18.004C77.6279 17.9806 77.5966 17.9471 77.5761 17.9071C77.5556 17.8671 77.5468 17.8223 77.5507 17.7777C77.5545 17.7331 77.5709 17.6904 77.5979 17.6544C77.9831 17.1441 79.2245 15.4308 81.3223 12.5144C82.3039 11.1459 83.4733 11.7536 84.2765 12.9273C85.8545 15.2251 86.9801 16.8348 87.6533 17.7565C87.6726 17.783 87.6842 17.8143 87.687 17.8469C87.6897 17.8795 87.6834 17.912 87.6688 17.9409C87.6542 17.9698 87.6318 17.9939 87.6042 18.0105C87.5765 18.0271 87.5447 18.0355 87.5124 18.0348H80.848C80.8152 18.0348 80.7831 18.0259 80.7551 18.0091C80.7271 17.9923 80.7044 17.9682 80.6893 17.9394C80.6743 17.9107 80.6676 17.8784 80.6699 17.8461C80.6722 17.8139 80.6834 17.7828 80.7024 17.7565L81.4303 16.7359C81.5002 16.6384 81.5925 16.5588 81.6995 16.5039C81.8066 16.449 81.9253 16.4204 82.0456 16.4204H84.0933C84.1071 16.4204 84.1206 16.4169 84.1326 16.4102C84.1446 16.4035 84.1547 16.3938 84.1618 16.3821C84.1688 16.3705 84.1728 16.3572 84.1731 16.3436C84.1735 16.3299 84.1702 16.3165 84.1637 16.3045Z" fill="white"/>
<path d="M114.269 16.4204C114.283 16.4204 114.297 16.4169 114.309 16.4102C114.321 16.4035 114.331 16.3938 114.338 16.3821C114.345 16.3705 114.349 16.3572 114.349 16.3436C114.349 16.3299 114.346 16.3165 114.34 16.3045L113.062 14.1242C113.041 14.0872 113.011 14.0562 112.975 14.0341C112.938 14.012 112.897 13.9994 112.854 13.9975C112.81 13.9957 112.767 14.0046 112.728 14.0235C112.689 14.0424 112.655 14.0706 112.63 14.1056L110.061 17.7054C109.989 17.8073 109.893 17.8905 109.782 17.9478C109.67 18.0052 109.547 18.035 109.422 18.0348H107.976C107.931 18.035 107.886 18.0227 107.847 17.9994C107.809 17.976 107.777 17.9425 107.757 17.9025C107.736 17.8625 107.727 17.8177 107.731 17.7731C107.735 17.7284 107.752 17.6857 107.779 17.6498C108.164 17.1395 109.405 15.4277 111.503 12.5144C112.485 11.1459 113.649 11.7536 114.452 12.9273C116.03 15.2251 117.156 16.8348 117.829 17.7565C117.849 17.783 117.86 17.8143 117.863 17.8469C117.866 17.8795 117.859 17.912 117.845 17.9409C117.83 17.9698 117.808 17.9939 117.78 18.0105C117.752 18.0271 117.721 18.0355 117.688 18.0348H111.024C110.991 18.0348 110.959 18.0259 110.931 18.0091C110.903 17.9923 110.88 17.9682 110.865 17.9394C110.85 17.9107 110.844 17.8784 110.846 17.8461C110.848 17.8139 110.859 17.7828 110.878 17.7565L111.606 16.7359C111.676 16.6384 111.768 16.5588 111.876 16.5039C111.983 16.449 112.101 16.4204 112.222 16.4204H114.269Z" fill="white"/>
<path d="M151.785 15.7385H148.437C148.393 15.7385 148.351 15.7556 148.32 15.7861C148.29 15.8165 148.272 15.8578 148.272 15.9009V17.8678C148.272 17.9109 148.255 17.9522 148.224 17.9826C148.193 18.0131 148.152 18.0302 148.108 18.0302H146.488C146.444 18.0302 146.402 18.0131 146.371 17.9826C146.341 17.9522 146.323 17.9109 146.323 17.8678V11.9763C146.323 11.9333 146.341 11.892 146.371 11.8615C146.402 11.8311 146.444 11.814 146.488 11.814H152.969C152.999 11.8137 153.029 11.8217 153.055 11.837C153.08 11.8522 153.102 11.8743 153.116 11.9006C153.13 11.9269 153.136 11.9566 153.134 11.9863C153.132 12.016 153.122 12.0447 153.105 12.0691L152.185 13.3541C152.17 13.3751 152.15 13.3924 152.127 13.4045C152.104 13.4166 152.079 13.4232 152.053 13.4237H148.446C148.425 13.4237 148.403 13.4279 148.383 13.436C148.363 13.4442 148.345 13.4562 148.33 13.4712C148.315 13.4863 148.302 13.5042 148.294 13.5239C148.286 13.5436 148.282 13.5647 148.282 13.5861V14.0778C148.282 14.0991 148.286 14.1202 148.294 14.1399C148.302 14.1596 148.315 14.1775 148.33 14.1926C148.345 14.2077 148.363 14.2196 148.383 14.2278C148.403 14.2359 148.425 14.2401 148.446 14.2401H152.621C152.651 14.2399 152.681 14.2479 152.707 14.2631C152.733 14.2784 152.754 14.3004 152.768 14.3268C152.782 14.3531 152.789 14.3828 152.787 14.4125C152.785 14.4422 152.775 14.4709 152.758 14.4953L151.917 15.6689C151.902 15.69 151.882 15.7072 151.86 15.7193C151.837 15.7314 151.811 15.738 151.785 15.7385Z" fill="white"/>
<path d="M165.406 15.1106C165.409 15.8697 165.106 16.5987 164.564 17.1374C164.023 17.676 163.287 17.9801 162.518 17.9828L159.334 17.9938C158.566 17.9964 157.828 17.6974 157.282 17.1625C156.737 16.6276 156.429 15.9007 156.426 15.1415L156.425 14.7148C156.422 13.9557 156.725 13.2266 157.266 12.6879C157.808 12.1493 158.544 11.8452 159.312 11.8426L162.497 11.8316C163.265 11.8289 164.003 12.1279 164.549 12.6628C165.094 13.1977 165.402 13.9247 165.405 14.6838L165.406 15.1106ZM163.542 14.7916C163.544 14.4151 163.395 14.053 163.128 13.785C162.86 13.5169 162.496 13.3648 162.115 13.3622L159.738 13.3458C159.549 13.3445 159.362 13.3799 159.187 13.4501C159.013 13.5202 158.853 13.6237 158.719 13.7546C158.585 13.8855 158.478 14.0412 158.404 14.2129C158.331 14.3847 158.292 14.569 158.291 14.7554L158.289 15.0152C158.287 15.3916 158.435 15.7537 158.703 16.0218C158.971 16.2899 159.335 16.4419 159.716 16.4446L162.093 16.461C162.281 16.4623 162.469 16.4268 162.643 16.3567C162.818 16.2866 162.977 16.1831 163.112 16.0522C163.246 15.9213 163.353 15.7656 163.427 15.5938C163.5 15.4221 163.539 15.2378 163.54 15.0514L163.542 14.7916Z" fill="white"/>
<path d="M189.104 16.4066C189.145 16.4062 189.185 16.417 189.219 16.4378C189.254 16.4587 189.282 16.4887 189.3 16.5245C189.318 16.5604 189.326 16.6005 189.322 16.6403C189.318 16.6802 189.303 16.7181 189.278 16.7499L188.498 17.7519C188.427 17.8442 188.335 17.919 188.23 17.9705C188.125 18.022 188.01 18.0488 187.893 18.0488C186.502 18.0395 184.314 18.2019 182.947 17.4179C180.012 15.7386 181.486 12.0877 184.605 11.8836C185.801 11.8063 187.295 11.7831 189.085 11.814C189.124 11.8151 189.161 11.8263 189.194 11.8464C189.227 11.8665 189.253 11.8948 189.27 11.9282C189.288 11.9617 189.295 11.9989 189.293 12.036C189.29 12.0731 189.277 12.1086 189.255 12.1388L188.55 13.1269C188.479 13.2252 188.384 13.3047 188.274 13.3581C188.163 13.4116 188.04 13.4373 187.916 13.433C186.811 13.3928 185.774 13.4067 184.807 13.4748C183.605 13.5583 182.881 14.7737 183.605 15.7664C184.304 16.7267 187.146 16.4205 189.104 16.4066Z" fill="white"/>
<path d="M198.732 15.5622H195.017C194.975 15.5622 194.936 15.5784 194.907 15.6071C194.878 15.6358 194.862 15.6747 194.862 15.7153V16.2627C194.862 16.3033 194.878 16.3423 194.907 16.371C194.936 16.3997 194.975 16.4158 195.017 16.4158H199.845C199.873 16.4158 199.901 16.4235 199.925 16.438C199.949 16.4526 199.969 16.4735 199.982 16.4983C199.995 16.5232 200.001 16.5512 199.999 16.5792C199.997 16.6072 199.988 16.6341 199.971 16.657L199.042 17.9606C199.027 17.9807 199.008 17.997 198.986 18.0083C198.964 18.0196 198.94 18.0255 198.915 18.0255H193.053C193.012 18.0255 192.973 18.0094 192.944 17.9807C192.915 17.952 192.898 17.913 192.898 17.8724V11.9671C192.898 11.9264 192.915 11.8875 192.944 11.8588C192.973 11.8301 193.012 11.814 193.053 11.814H199.816C199.845 11.8139 199.873 11.8216 199.897 11.8362C199.921 11.8508 199.941 11.8716 199.954 11.8965C199.967 11.9214 199.973 11.9494 199.971 11.9773C199.969 12.0053 199.96 12.0323 199.943 12.0552L199.018 13.3587C199.004 13.3788 198.985 13.3952 198.963 13.4065C198.941 13.4178 198.916 13.4237 198.891 13.4237H195.017C194.975 13.4237 194.936 13.4398 194.907 13.4685C194.878 13.4972 194.862 13.5362 194.862 13.5768V14.0082C194.862 14.0488 194.878 14.0877 194.907 14.1164C194.936 14.1451 194.975 14.1613 195.017 14.1613H199.511C199.54 14.1613 199.567 14.169 199.592 14.1835C199.616 14.1981 199.636 14.2189 199.649 14.2438C199.662 14.2687 199.668 14.2967 199.666 14.3247C199.664 14.3526 199.654 14.3796 199.638 14.4025L198.858 15.4973C198.844 15.5174 198.825 15.5338 198.803 15.5451C198.781 15.5564 198.756 15.5623 198.732 15.5622Z" fill="white"/>
<path d="M52.176 17.7474C52.199 17.7721 52.2142 17.803 52.2195 17.8362C52.2249 17.8694 52.2203 17.9034 52.2063 17.934C52.1923 17.9647 52.1695 17.9905 52.1408 18.0085C52.112 18.0264 52.0785 18.0357 52.0445 18.035L50.1189 18.0396C50.0703 18.0396 50.0221 18.0292 49.9775 18.0092C49.933 17.9892 49.8932 17.9601 49.8606 17.9237L48.5597 16.5134C48.515 16.4647 48.4601 16.4258 48.3986 16.3994C48.3371 16.373 48.2703 16.3597 48.2027 16.3603H45.8075C45.724 16.3603 45.644 16.3926 45.585 16.45C45.526 16.5074 45.4928 16.5853 45.4928 16.6665V17.7103C45.4928 17.7988 45.4572 17.8838 45.3938 17.9464C45.3304 18.0091 45.2444 18.0443 45.1547 18.0443L43.9383 18.0489C43.8861 18.0495 43.8343 18.0399 43.7859 18.0206C43.7374 18.0013 43.6934 17.9727 43.6563 17.9364C43.6191 17.9002 43.5897 17.857 43.5695 17.8094C43.5494 17.7619 43.5391 17.7108 43.5391 17.6592V15.1449C43.5391 15.1041 43.5471 15.0637 43.5627 15.026C43.5782 14.9883 43.6011 14.954 43.6298 14.9251C43.6586 14.8963 43.6928 14.8734 43.7304 14.8578C43.768 14.8421 43.8083 14.8341 43.849 14.8341L49.3205 14.8295C49.4109 14.8296 49.5004 14.8115 49.5836 14.7764C49.6667 14.7413 49.7417 14.6898 49.8041 14.6252C49.8665 14.5605 49.9149 14.484 49.9464 14.4003C49.9779 14.3166 49.9919 14.2275 49.9874 14.1383L49.978 13.9481C49.9732 13.8061 49.9126 13.6716 49.8092 13.5729C49.7058 13.4743 49.5676 13.4191 49.4238 13.4192L43.9524 13.4239C43.8974 13.4226 43.844 13.4052 43.7991 13.3739C43.7541 13.3426 43.7197 13.2987 43.7 13.248C43.6804 13.1973 43.6765 13.1419 43.6888 13.0889C43.7011 13.036 43.7291 12.9879 43.7692 12.9507L44.8212 12.0043C44.9599 11.8802 45.1416 11.8094 45.3331 11.8049C47.2822 11.8002 51.3541 11.2621 51.9835 13.5491C52.2684 14.5913 51.8379 15.3815 50.6919 15.9196C50.6756 15.9274 50.6613 15.9387 50.6502 15.9528C50.639 15.9669 50.6313 15.9834 50.6277 16.0009C50.6241 16.0184 50.6246 16.0365 50.6292 16.0538C50.6338 16.0711 50.6424 16.0871 50.6543 16.1005L52.176 17.7474Z" fill="white"/>
<path d="M91.3682 17.8585V11.9856C91.3682 11.9401 91.3865 11.8964 91.4191 11.8642C91.4517 11.832 91.4959 11.814 91.5419 11.814H93.1482C93.1942 11.814 93.2384 11.832 93.271 11.8642C93.3036 11.8964 93.3219 11.9401 93.3219 11.9856V16.2488C93.3219 16.2943 93.3402 16.338 93.3728 16.3702C93.4054 16.4024 93.4496 16.4204 93.4957 16.4204H97.7649C97.7964 16.4208 97.8272 16.4297 97.854 16.446C97.8808 16.4624 97.9026 16.4856 97.9171 16.5132C97.9315 16.5409 97.9381 16.5719 97.9361 16.6029C97.9342 16.634 97.9237 16.6639 97.9058 16.6895L96.9993 17.9559C96.9836 17.9785 96.9625 17.9971 96.938 18.01C96.9135 18.0229 96.8862 18.0298 96.8584 18.0302H91.5419C91.4959 18.0302 91.4517 18.0121 91.4191 17.9799C91.3865 17.9477 91.3682 17.904 91.3682 17.8585Z" fill="white"/>
<path d="M123.291 11.8155L121.76 11.8129C121.633 11.8127 121.53 11.9143 121.53 12.0398L121.52 17.8107C121.519 17.9362 121.622 18.0381 121.749 18.0384L123.28 18.041C123.408 18.0412 123.511 17.9396 123.511 17.8141L123.521 12.0432C123.521 11.9177 123.419 11.8158 123.291 11.8155Z" fill="white"/>
<path d="M135.991 18.0302H134.07C134.021 18.0302 133.973 18.0198 133.928 17.9998C133.884 17.9798 133.844 17.9507 133.811 17.9142L132.515 16.5086C132.471 16.459 132.416 16.4193 132.355 16.3921C132.293 16.3649 132.226 16.3509 132.158 16.3509H129.768C129.684 16.3509 129.604 16.3832 129.545 16.4406C129.486 16.498 129.453 16.5759 129.453 16.6571V17.6962C129.453 17.7848 129.417 17.8697 129.354 17.9324C129.291 17.995 129.205 18.0302 129.115 18.0302H127.898C127.794 18.0302 127.693 17.9892 127.619 17.9161C127.545 17.843 127.504 17.7439 127.504 17.6405V15.1355C127.504 15.0531 127.537 14.974 127.595 14.9157C127.653 14.8574 127.732 14.8247 127.814 14.8247H133.276C133.366 14.8248 133.456 14.8068 133.539 14.7719C133.622 14.737 133.697 14.6859 133.76 14.6217C133.822 14.5575 133.87 14.4815 133.902 14.3984C133.933 14.3152 133.947 14.2267 133.943 14.1381L133.933 13.9479C133.929 13.806 133.868 13.6715 133.765 13.5728C133.661 13.4741 133.523 13.419 133.379 13.4191H127.922C127.867 13.4198 127.813 13.4038 127.767 13.3731C127.722 13.3425 127.687 13.2987 127.667 13.2474C127.647 13.1962 127.643 13.1399 127.656 13.0861C127.669 13.0323 127.698 12.9834 127.739 12.9459L128.791 11.9996C128.93 11.8768 129.112 11.8076 129.303 11.8047C131.247 11.8001 135.31 11.2713 135.934 13.5536C136.216 14.5927 135.786 15.3798 134.643 15.9148C134.626 15.9226 134.612 15.9339 134.601 15.948C134.59 15.9621 134.582 15.9786 134.578 15.9961C134.575 16.0136 134.575 16.0317 134.58 16.049C134.585 16.0663 134.593 16.0823 134.605 16.0958L136.122 17.7426C136.145 17.7674 136.16 17.7982 136.166 17.8314C136.171 17.8646 136.166 17.8986 136.152 17.9292C136.138 17.9599 136.116 17.9858 136.087 18.0037C136.058 18.0217 136.025 18.0309 135.991 18.0302Z" fill="white"/>
<path d="M177.926 17.7425C177.949 17.7673 177.964 17.7981 177.969 17.8313C177.975 17.8645 177.97 17.8985 177.956 17.9291C177.942 17.9598 177.919 17.9857 177.89 18.0036C177.862 18.0216 177.828 18.0308 177.794 18.0301H175.873C175.825 18.0301 175.776 18.0197 175.732 17.9997C175.687 17.9797 175.647 17.9505 175.615 17.9141L174.314 16.5085C174.27 16.4589 174.215 16.4192 174.153 16.392C174.092 16.3648 174.025 16.3508 173.957 16.3508L171.566 16.3554C171.483 16.3554 171.403 16.3877 171.344 16.4451C171.285 16.5025 171.252 16.5804 171.252 16.6616L171.257 17.7007C171.257 17.7893 171.221 17.8743 171.157 17.9369C171.094 17.9996 171.008 18.0347 170.918 18.0347H169.702C169.597 18.0347 169.497 17.9937 169.423 17.9206C169.349 17.8475 169.307 17.7484 169.307 17.6451L169.303 15.14C169.303 15.0992 169.311 15.0588 169.326 15.0211C169.342 14.9834 169.365 14.9491 169.394 14.9203C169.422 14.8914 169.456 14.8685 169.494 14.8529C169.532 14.8373 169.572 14.8292 169.613 14.8292L175.075 14.8246C175.165 14.8247 175.255 14.8067 175.338 14.7718C175.421 14.7369 175.496 14.6858 175.558 14.6216C175.621 14.5574 175.669 14.4814 175.701 14.3983C175.732 14.3151 175.746 14.2266 175.742 14.138L175.732 13.9478C175.727 13.8059 175.667 13.6714 175.564 13.5727C175.46 13.474 175.322 13.4189 175.178 13.419L169.721 13.4236C169.666 13.4243 169.612 13.4083 169.566 13.3777C169.521 13.347 169.486 13.3032 169.466 13.252C169.446 13.2007 169.442 13.1445 169.455 13.0906C169.468 13.0368 169.497 12.9879 169.538 12.9505L170.585 12.0041C170.725 11.8813 170.906 11.8122 171.097 11.8093C173.041 11.8046 177.104 11.2711 177.733 13.5535C178.015 14.5926 177.584 15.3797 176.442 15.9147C176.425 15.9225 176.411 15.9338 176.4 15.9479C176.389 15.962 176.381 15.9785 176.377 15.996C176.374 16.0135 176.374 16.0316 176.379 16.0489C176.383 16.0662 176.392 16.0822 176.404 16.0957L177.926 17.7425Z" fill="white"/>
<path d="M27.7441 8.02398L31.6047 0.0820903C31.6165 0.0575248 31.6351 0.0367729 31.6584 0.0222428C31.6817 0.00771267 31.7087 0 31.7362 0C31.7637 0 31.7907 0.00771267 31.814 0.0222428C31.8373 0.0367729 31.8559 0.0575248 31.8677 0.0820903L33.6806 3.76542C33.7016 3.81021 33.7065 3.86058 33.6945 3.90795C33.6825 3.95532 33.6543 3.99676 33.6148 4.0252L27.8897 8.13995C27.8718 8.15232 27.85 8.15869 27.8279 8.15805C27.8058 8.1574 27.7847 8.14977 27.7679 8.13638C27.7511 8.123 27.7396 8.10464 27.7353 8.08425C27.731 8.06386 27.7341 8.04264 27.7441 8.02398Z" fill="white"/>
<path d="M6.22482 8.01006C6.23487 8.02872 6.23799 8.04995 6.23368 8.07035C6.22938 8.09074 6.2179 8.10911 6.2011 8.1225C6.18429 8.13588 6.16313 8.14351 6.14103 8.14415C6.11892 8.1448 6.09716 8.13841 6.07923 8.12604L0.382304 4.01592C0.343045 3.98646 0.315453 3.94436 0.304303 3.89692C0.293153 3.84948 0.299148 3.79968 0.321249 3.75614L2.12942 0.0913676C2.14124 0.0668021 2.15987 0.0460503 2.18315 0.0315201C2.20642 0.01699 2.23339 0.00927734 2.26093 0.00927734C2.28846 0.00927734 2.31543 0.01699 2.33871 0.0315201C2.36199 0.0460503 2.38061 0.0668021 2.39243 0.0913676L6.22482 8.01006Z" fill="white"/>
<path d="M16.6228 16.7037L15.7069 19.4917C15.7002 19.5137 15.6882 19.5338 15.6719 19.5502C15.6557 19.5667 15.6357 19.5791 15.6136 19.5864C15.5916 19.5936 15.568 19.5956 15.545 19.592C15.5221 19.5885 15.5003 19.5795 15.4815 19.5659L2.68337 10.3576C2.66488 10.3427 2.65036 10.3236 2.6411 10.3019L0.0157239 4.97639C0.000925045 4.94755 -0.00359946 4.91462 0.00288106 4.88292C0.00936159 4.85122 0.0264688 4.82261 0.0514404 4.8017C0.0764121 4.78078 0.107791 4.7688 0.140509 4.76767C0.173228 4.76654 0.205377 4.77633 0.231766 4.79547L16.5711 16.5459C16.5951 16.5638 16.613 16.5885 16.6222 16.6167C16.6315 16.645 16.6317 16.6753 16.6228 16.7037Z" fill="white"/>
<path d="M18.2849 19.4918L17.3785 16.7038C17.3688 16.6755 17.3686 16.6449 17.3779 16.6165C17.3872 16.5881 17.4055 16.5634 17.4301 16.546L33.7319 4.81876C33.7572 4.80231 33.7873 4.79438 33.8176 4.79614C33.8478 4.79791 33.8767 4.80927 33.8999 4.82855C33.9231 4.84783 33.9394 4.874 33.9464 4.90315C33.9534 4.93231 33.9506 4.96291 33.9385 4.9904L31.3648 10.2881C31.3551 10.3082 31.3406 10.3257 31.3226 10.3391L18.5056 19.5614C18.4876 19.5751 18.4665 19.5843 18.444 19.5882C18.4216 19.5921 18.3985 19.5905 18.3768 19.5837C18.3551 19.5768 18.3354 19.5649 18.3194 19.5489C18.3034 19.5329 18.2916 19.5133 18.2849 19.4918Z" fill="white"/>
<path d="M15.1054 20.3915H10.3948C10.2115 20.3915 10.0325 20.3347 9.88285 20.2291L6.39331 17.7194C6.24842 17.6158 6.1322 17.4787 6.05516 17.3205L3.43917 12.0089C3.42937 11.9901 3.42634 11.9686 3.43058 11.9479C3.43482 11.9272 3.44609 11.9086 3.46251 11.895C3.47893 11.8815 3.49953 11.8739 3.52091 11.8736C3.54228 11.8732 3.56315 11.88 3.58007 11.8929L15.1618 20.2198C15.1798 20.2307 15.1936 20.2472 15.2009 20.2668C15.2082 20.2863 15.2086 20.3078 15.2021 20.3276C15.1956 20.3474 15.1825 20.3645 15.165 20.3761C15.1474 20.3877 15.1265 20.3931 15.1054 20.3915Z" fill="white"/>
<path d="M23.8082 20.4007H19.0271C18.9956 20.4001 18.965 20.3896 18.9398 20.3709C18.9146 20.3522 18.896 20.326 18.8866 20.2963C18.8773 20.2665 18.8777 20.2346 18.8877 20.205C18.8977 20.1755 18.917 20.1498 18.9426 20.1316L30.2002 12.0367C30.227 12.0174 30.2595 12.0075 30.2926 12.0084C30.3258 12.0092 30.3577 12.0209 30.3834 12.0415C30.4091 12.0622 30.4272 12.0906 30.4348 12.1224C30.4425 12.1543 30.4393 12.1877 30.4257 12.2176L27.8567 17.4967C27.8459 17.5188 27.8298 17.5379 27.8097 17.5524L23.8928 20.3729C23.8681 20.3904 23.8386 20.4001 23.8082 20.4007Z" fill="white"/>
<path d="M16.9887 24.4089C18.0029 24.4089 18.8251 23.5968 18.8251 22.5951C18.8251 21.5933 18.0029 20.7812 16.9887 20.7812C15.9745 20.7812 15.1523 21.5933 15.1523 22.5951C15.1523 23.5968 15.9745 24.4089 16.9887 24.4089Z" fill="white"/>
<path d="M9.33829 24.2232L12.3112 22.0847C12.3452 22.0598 12.3863 22.0464 12.4286 22.0464C12.4709 22.0464 12.5121 22.0598 12.546 22.0847L14.2932 23.3418C14.3275 23.3656 14.3533 23.3995 14.3668 23.4387C14.3803 23.4779 14.3809 23.5203 14.3683 23.5598L13.2317 27.0251C13.2222 27.0547 13.2057 27.0815 13.1835 27.1035C13.1614 27.1254 13.1343 27.1418 13.1044 27.1514C13.0746 27.1609 13.0429 27.1632 13.0119 27.1582C12.981 27.1532 12.9517 27.141 12.9265 27.1226L9.33829 24.5387C9.31306 24.5206 9.29253 24.4969 9.27837 24.4695C9.26422 24.4421 9.25684 24.4117 9.25684 24.3809C9.25684 24.3502 9.26422 24.3198 9.27837 24.2924C9.29253 24.265 9.31306 24.2413 9.33829 24.2232Z" fill="white"/>
<path d="M21.662 22.0753L24.6818 24.251C24.7032 24.2665 24.7206 24.2868 24.7325 24.3101C24.7445 24.3335 24.7507 24.3593 24.7507 24.3855C24.7507 24.4117 24.7445 24.4375 24.7325 24.4609C24.7206 24.4843 24.7032 24.5045 24.6818 24.52L21.042 27.141C21.0205 27.1562 20.9956 27.1661 20.9695 27.17C20.9434 27.1739 20.9167 27.1717 20.8916 27.1636C20.8664 27.1555 20.8436 27.1416 20.8249 27.1232C20.8061 27.1048 20.792 27.0823 20.7837 27.0575L19.633 23.5366C19.6222 23.5032 19.6223 23.4674 19.6333 23.4341C19.6442 23.4008 19.6655 23.3717 19.6941 23.351L21.4647 22.0753C21.4934 22.0549 21.5279 22.0439 21.5633 22.0439C21.5987 22.0439 21.6332 22.0549 21.662 22.0753Z" fill="white"/>
<path d="M17.0929 25.3598L20.1034 27.5216C20.1257 27.5375 20.1439 27.5584 20.1564 27.5826C20.1689 27.6068 20.1755 27.6336 20.1755 27.6607C20.1755 27.6879 20.1689 27.7147 20.1564 27.7389C20.1439 27.7631 20.1257 27.784 20.1034 27.7999L17.0929 29.9663C17.063 29.9881 17.0268 29.9999 16.9896 29.9999C16.9524 29.9999 16.9162 29.9881 16.8863 29.9663L13.8758 27.8045C13.8535 27.7886 13.8353 27.7677 13.8228 27.7435C13.8102 27.7193 13.8037 27.6925 13.8037 27.6654C13.8037 27.6382 13.8102 27.6114 13.8228 27.5872C13.8353 27.563 13.8535 27.5421 13.8758 27.5262L16.8863 25.3598C16.9162 25.338 16.9524 25.3262 16.9896 25.3262C17.0268 25.3262 17.063 25.338 17.0929 25.3598Z" fill="white"/>
</svg>
