<svg width="200" height="23" viewBox="0 0 200 23" fill="none" xmlns="http://www.w3.org/2000/svg">
<g clip-path="url(#clip0_1191_17007)">
<path d="M113.302 0.926758L107.753 18.7461H110.044L111.714 13.3366H118.607L120.276 18.7461H122.677L117.18 0.926758H113.302ZM115.405 2.87576L117.996 11.3409H112.297L114.912 2.87576H115.405Z" fill="white"/>
<path d="M128.608 18.7466H130.705V5.625H124.151V7.59364H128.608V18.7466Z" fill="white"/>
<path d="M170.12 5.43945C166.049 5.43945 164.069 7.69388 164.069 12.2508C164.069 16.8077 166.049 18.9443 170.12 18.9443C174.416 18.9443 176.331 16.9371 176.331 12.2508C176.331 7.56453 174.416 5.43945 170.12 5.43945ZM170.12 16.9283C167.328 16.9283 166.241 15.6768 166.241 12.2508C166.241 8.82481 167.328 7.45753 170.12 7.45753C173.137 7.45753 174.159 8.69547 174.159 12.2508C174.159 15.8061 173.14 16.9283 170.12 16.9283Z" fill="white"/>
<path d="M130.706 0.926758H128.043V3.61663H130.706V0.926758Z" fill="white"/>
<path d="M138.204 7.4941C138.572 7.46227 139.668 7.38236 140.966 7.38236C142.611 7.38236 143.461 7.81442 143.483 8.66905V9.93611H145.628V9.15529C145.628 6.74511 144.926 5.43945 141.218 5.43945C138.712 5.43945 136.117 5.66022 136.117 5.66022L136.123 18.7466H138.22L138.204 7.4941Z" fill="white"/>
<path d="M182.609 7.4941C182.977 7.46227 184.073 7.38236 185.372 7.38236C187.016 7.38236 187.866 7.81442 187.887 8.66905V9.93611H190.032V9.15529C190.032 6.74511 189.331 5.43945 185.622 5.43945C183.116 5.43945 180.521 5.66022 180.521 5.66022V18.7466H182.619L182.609 7.4941Z" fill="white"/>
<path d="M160.187 12.2508C160.187 8.90201 159.443 5.43945 153.956 5.43945C152.057 5.43945 148.56 5.753 148.56 5.753L148.565 23.0001H150.663V18.8339C151.587 18.9653 153.976 18.9443 153.976 18.9443C158.097 18.9443 160.187 16.6181 160.187 12.2508ZM150.667 7.58688C151.739 7.45641 152.817 7.39872 153.896 7.41419C156.859 7.41419 158.017 8.79772 158.017 12.2508C158.017 15.5691 156.749 16.9716 153.492 16.9716C152.551 16.9944 151.61 16.9471 150.676 16.8301L150.667 7.58688Z" fill="white"/>
<path d="M12.0548 9.79546C12.0548 9.79546 11.4628 9.41217 11.3784 9.3607L12.0005 8.92661C12.4181 8.55372 12.7467 8.09003 12.9613 7.57041C13.176 7.05079 13.2713 6.48876 13.24 5.92658C13.24 2.70307 11.2845 0.926758 7.73887 0.926758H0V18.7461H7.56457C11.7417 18.7461 13.7723 16.9996 13.7723 13.3508C13.7967 12.6613 13.6528 11.9764 13.3533 11.3563C13.0538 10.7363 12.6078 10.2003 12.0548 9.79546ZM3.83391 4.262H7.54111C8.02241 4.262 8.48399 4.45514 8.82432 4.79894C9.16464 5.14273 9.35583 5.60901 9.35583 6.09521C9.35583 6.5814 9.16464 7.04768 8.82432 7.39147C8.48399 7.73527 8.02241 7.92841 7.54111 7.92841H3.83391V4.262ZM3.83391 10.9257H7.69932C9.09237 10.9257 9.79895 11.6849 9.79895 13.1822C9.79895 14.6795 9.09237 15.438 7.69932 15.438H3.83391V10.9257Z" fill="white"/>
<path d="M20.2904 18.7466H24.0714V5.625H16.3955V8.87559H20.2904V18.7466Z" fill="white"/>
<path d="M24.072 0H20.2904V3.82013H24.072V0Z" fill="white"/>
<path d="M37.2604 15.6574C36.6142 15.7251 35.1226 15.7562 35.1078 15.7562C34.8322 15.7919 34.5522 15.7642 34.2887 15.6752C34.0252 15.5861 33.7851 15.438 33.5862 15.242C33.3874 15.0459 33.235 14.807 33.1405 14.5431C33.046 14.2791 33.0117 13.997 33.0404 13.7179V0.926758H29.2668V13.9217C29.2668 17.0673 31.2598 18.9439 34.597 18.9439C35.4873 18.9499 36.377 18.8967 37.2604 18.7847V15.6574Z" fill="white"/>
<path d="M47.8685 15.6574C47.2229 15.7251 45.7307 15.7562 45.7159 15.7562C45.4403 15.7919 45.1603 15.7642 44.8968 15.6752C44.6333 15.5861 44.3932 15.438 44.1944 15.242C43.9955 15.0459 43.8431 14.807 43.7486 14.5431C43.6541 14.2791 43.6198 13.997 43.6485 13.7179V0.926758H39.8756V13.9217C39.8756 17.0673 41.868 18.9439 45.2044 18.9439H45.2011C46.0927 18.9501 46.9838 18.8969 47.8685 18.7847V15.6574Z" fill="white"/>
<path d="M71.3526 8.7577C71.8357 8.68288 72.324 8.64845 72.8127 8.65477C74.907 8.65477 75.7704 9.3015 75.7704 11.0656V18.7465H79.5453V10.5056C79.5453 7.09787 77.7105 5.43939 72.8891 5.43939C71.1169 5.42889 69.3452 5.50935 67.5811 5.68047V18.7465H71.3533L71.3526 8.7577Z" fill="white"/>
<path d="M58.9097 15.6148C58.4264 15.6899 57.9378 15.7246 57.4489 15.7184C55.3547 15.7184 54.4912 15.0717 54.4912 13.3069V5.62598H50.719V13.8669C50.719 17.2746 52.5545 18.9338 57.3759 18.9338C59.1479 18.9443 60.9193 18.8636 62.6833 18.692V5.62598H58.911L58.9097 15.6148Z" fill="white"/>
<path d="M92.1968 5.67089C91.4281 5.50461 90.6432 5.42691 89.8571 5.43929C85.08 5.43929 83.5489 8.07633 83.5489 12.3468C83.5489 16.6173 84.6939 19.0552 90.075 19.0552C92.0577 19.0591 94.0346 18.8408 95.9697 18.4044L95.9643 0.927734H92.1921L92.1968 5.67089ZM92.1901 15.703C91.4995 15.8656 90.7897 15.9287 90.0817 15.8906C88.1007 15.8906 87.3647 15.057 87.3647 12.4186C87.3647 10.0592 87.8487 8.73187 90.3995 8.73187C91.0003 8.70758 91.6018 8.75899 92.1901 8.88492V15.703Z" fill="white"/>
<path d="M199.984 18.7616V16.839C199.984 16.839 198.783 16.9744 197.424 16.9744C195.691 16.9744 195.018 16.3927 195.018 14.8988V7.59372H200V5.6244H195.018V1.87402L192.92 2.49773V15.0985C192.92 17.9022 194.507 18.9437 197.323 18.9437C198.213 18.9464 199.102 18.8855 199.984 18.7616Z" fill="white"/>
</g>
<defs>
<clipPath id="clip0_1191_17007">
<rect width="200" height="23" fill="white"/>
</clipPath>
</defs>
</svg>
