<svg width="200" height="182" viewBox="0 0 200 182" fill="none" xmlns="http://www.w3.org/2000/svg">
<path d="M73.3003 85.0731L73.4793 82.524C74.2698 81.7637 75.1124 81.0482 76.0072 80.3774C77.0214 79.6171 77.9237 79.2817 78.7142 79.3712C79.3555 79.4457 79.885 79.3637 80.3026 79.1252C80.592 78.9562 80.8443 78.7283 81.0443 78.4554C81.2443 78.1824 81.3877 77.8702 81.4659 77.5376C82.6739 72.3202 85.5151 68.5563 89.9894 66.2457C90.0698 66.2041 90.1578 66.1792 90.2481 66.1724C90.3384 66.1657 90.4291 66.1773 90.5148 66.2066C90.6005 66.2358 90.6794 66.2821 90.7467 66.3426C90.8141 66.4031 90.8684 66.4767 90.9066 66.5587V66.5811C90.9401 66.6621 90.9574 66.7489 90.9575 66.8362C90.9575 66.9235 90.9403 67.0094 90.9068 67.0889C90.8733 67.1683 90.8243 67.2395 90.7628 67.2983C90.7012 67.3571 90.6284 67.4022 90.5486 67.4308C87.1035 68.6233 84.7321 71.2842 83.4346 75.4134C83.4041 75.5251 83.4134 75.6456 83.4611 75.753C83.5087 75.8605 83.5913 75.9478 83.6941 75.9991C83.7969 76.0505 83.9129 76.0625 84.0213 76.033C84.1296 76.0035 84.223 75.9344 84.2847 75.8383C86.6411 72.3351 89.5121 69.5476 92.8976 67.4755C93.0589 67.3774 93.1846 67.2295 93.257 67.0528C93.3293 66.8761 93.3445 66.6797 93.3004 66.4917C93.2407 66.2382 93.0319 66.037 92.674 65.8879C92.5657 65.8411 92.4694 65.7705 92.392 65.681C92.3146 65.5916 92.2578 65.4855 92.2258 65.3704C92.1938 65.2552 92.1873 65.1337 92.2067 65.0145C92.2262 64.8953 92.2711 64.7813 92.3384 64.6805L102.719 49.4531C102.881 49.2434 102.961 48.9808 102.941 48.7161C102.921 48.4515 102.804 48.2035 102.612 48.02C102.42 47.8366 102.167 47.7307 101.902 47.7228C101.636 47.7149 101.377 47.8056 101.175 47.9773L95.1348 52.5165C94.3045 53.1275 93.3111 53.4637 92.2936 53.478C90.2355 53.5227 88.1848 54.0519 86.1415 55.0656C85.1262 55.5655 84.0087 55.8256 82.8753 55.8258C79.0721 55.8407 75.8954 56.2283 73.3451 56.9885C71.2571 57.5997 69.1169 57.3761 66.9245 56.3177C66.7908 56.2542 66.6772 56.1551 66.5962 56.0313C66.5152 55.9075 66.4699 55.7637 66.4652 55.6159C66.4606 55.468 66.4968 55.3217 66.57 55.193C66.6431 55.0644 66.7503 54.9584 66.8798 54.8867C74.1281 50.5935 80.929 46.591 86.9021 40.8668C91.8238 36.1413 96.1564 31.9227 99.8999 28.2109C100.282 27.8283 100.757 27.5373 101.287 27.3612L105.94 25.8183C106.087 25.7738 106.218 25.6871 106.315 25.5691C106.413 25.4511 106.475 25.3069 106.491 25.1545C106.508 25.002 106.479 24.848 106.409 24.7116C106.339 24.5752 106.231 24.4624 106.097 24.3872C105.5 24.0295 104.732 23.7015 103.793 23.4034C103.3 23.2394 102.868 22.673 102.495 21.704C101.175 18.2158 103.479 14.7723 107.35 15.6444C108.394 15.8829 110.019 16.6729 112.227 18.0146C113.852 18.9984 114.001 20.4518 112.674 22.3748C112.545 22.5592 112.488 22.7847 112.515 23.0082C112.541 23.2317 112.649 23.4377 112.817 23.5869C112.986 23.7361 113.204 23.8181 113.429 23.8172C113.654 23.8164 113.871 23.7327 114.039 23.5823C120.705 17.8282 127.916 10.0618 135.672 0.282857C135.816 0.129517 136.009 0.0316633 136.217 0.00645876C136.426 -0.0187458 136.637 0.0303087 136.813 0.145018C136.989 0.259728 137.119 0.432769 137.181 0.633787C137.242 0.834805 137.231 1.05096 137.148 1.24435C131.943 11.2021 126.365 19.6394 120.414 26.5562C119.892 27.1511 119.57 27.8947 119.497 28.6804C118.916 34.6283 117.379 39.9202 114.889 44.5562C114.785 44.7533 114.734 44.9738 114.74 45.1964C114.746 45.419 114.81 45.6363 114.924 45.8272C115.039 46.0182 115.201 46.1764 115.395 46.2867C115.588 46.397 115.807 46.4556 116.03 46.4568H129.363C129.732 46.4583 130.094 46.56 130.409 46.751C130.725 46.942 130.983 47.2152 131.155 47.5413C131.327 47.8674 131.408 48.2342 131.388 48.6025C131.368 48.9707 131.248 49.3266 131.041 49.632L112.942 76.1289C112.875 76.2233 112.784 76.2967 112.681 76.3403C112.578 76.384 112.467 76.396 112.361 76.3749C111.257 76.1811 111.018 75.2196 111.645 73.4904C111.68 73.379 111.756 73.2841 111.858 73.2226C111.961 73.1611 112.083 73.1372 112.204 73.155C112.488 73.2147 112.704 73.3339 112.853 73.5128C112.883 73.5431 112.92 73.5664 112.961 73.5808C113.001 73.5952 113.044 73.6005 113.087 73.5962C113.13 73.5919 113.171 73.5782 113.208 73.5561C113.245 73.5339 113.277 73.5038 113.3 73.4681L116.88 68.2134C117.211 67.7377 117.362 67.1664 117.305 66.6035C116.962 62.6084 117.372 59.1128 118.535 56.1165C118.597 55.9563 118.618 55.7829 118.595 55.6127C118.573 55.4426 118.508 55.2815 118.407 55.1448C118.306 55.008 118.172 54.9001 118.018 54.8315C117.865 54.7628 117.696 54.7356 117.529 54.7525C111.995 55.2742 108.513 56.5115 107.081 58.4643C105.008 61.2519 102.212 64.0693 98.6919 66.9165C93.1139 71.4333 88.0505 75.8159 83.5017 80.0644C83.074 80.4629 82.5633 80.7618 82.0063 80.9397C81.4493 81.1175 80.8598 81.1698 80.2802 81.0929C76.4472 80.5712 74.1206 81.8979 73.3003 85.0731ZM70.7276 54.5736C70.5983 54.669 70.5061 54.8063 70.4669 54.9621C70.4276 55.1179 70.4437 55.2824 70.5124 55.4276C70.5811 55.5729 70.6981 55.6897 70.8435 55.7583C70.9888 55.8268 71.1535 55.8428 71.3093 55.8034L75.7164 54.7302C76.3076 54.5824 76.862 54.3243 77.3495 53.9699L86.1639 47.6196C86.9132 47.076 87.5199 46.3544 87.9312 45.5177L89.3406 42.5885C89.7093 41.8368 90.2275 41.1741 90.8619 40.6432L102.584 30.7599C102.73 30.6441 102.839 30.4804 102.898 30.2904C102.972 29.9624 103.017 29.7835 103.032 29.7537C103.09 29.5994 103.183 29.4606 103.304 29.348C103.424 29.2354 103.569 29.1521 103.727 29.1046C103.885 29.057 104.052 29.0464 104.214 29.0737C104.377 29.101 104.531 29.1653 104.665 29.2618L108.737 32.2133C109.234 32.5731 109.825 32.7815 110.436 32.8132C111.048 32.845 111.654 32.6987 112.182 32.3922L116.298 30.022C116.668 29.809 116.96 29.4841 117.133 29.0943C117.306 28.7045 117.35 28.2699 117.26 27.8531C117.2 27.5699 117.163 27.3537 117.148 27.2046C117.12 26.958 117.143 26.7076 117.216 26.4692C117.289 26.2307 117.411 26.0092 117.573 25.8183L129.699 11.2841C129.717 11.2639 129.731 11.2401 129.74 11.2143C129.748 11.1885 129.752 11.1612 129.75 11.134C129.748 11.1068 129.74 11.0803 129.727 11.0562C129.715 11.032 129.697 11.0107 129.676 10.9934L129.229 10.6133C129.173 10.5707 129.104 10.5495 129.034 10.5536C128.965 10.5577 128.899 10.5868 128.848 10.6357L113.703 26.7351C113.234 27.2307 112.635 27.5839 111.974 27.754C111.313 27.9241 110.617 27.9042 109.967 27.6966C107.715 26.981 104.814 27.309 101.265 28.6804C101.058 28.7688 100.875 28.8984 100.728 29.0605L81.3093 49.319C81.0037 49.6393 80.6052 49.858 80.1683 49.9451C77.0662 50.601 73.9193 52.1438 70.7276 54.5736ZM112.405 20.6531C112.778 19.9525 112.309 19.2816 110.996 18.6407C107.775 17.0456 106.007 16.5462 105.694 17.1425C105.381 17.7388 106.798 18.9015 109.945 20.6307C111.227 21.3462 112.048 21.3537 112.405 20.6531ZM103.951 32.642C103.796 32.7893 103.879 33.1727 104.18 33.708C104.481 34.2434 104.977 34.8867 105.558 35.4965C105.846 35.7985 106.146 36.0832 106.441 36.3343C106.736 36.5854 107.021 36.7979 107.278 36.9599C107.536 37.1219 107.762 37.23 107.942 37.2782C108.123 37.3263 108.256 37.3136 108.332 37.2406C108.487 37.0933 108.405 36.7099 108.103 36.1746C107.802 35.6392 107.306 34.9959 106.725 34.3861C106.437 34.0841 106.137 33.7994 105.842 33.5483C105.547 33.2972 105.262 33.0847 105.005 32.9227C104.747 32.7607 104.521 32.6526 104.341 32.6044C104.16 32.5563 104.027 32.569 103.951 32.642ZM102.562 39.8606C102.234 40.1885 101.854 40.2332 101.421 39.9947C101.273 39.9126 101.145 39.7992 101.045 39.6621C100.945 39.5251 100.876 39.3676 100.842 39.2003C100.808 39.033 100.81 38.8596 100.849 38.692C100.887 38.5243 100.96 38.3662 101.063 38.2283C102.062 36.9016 102.584 36.0966 102.629 35.8134C102.647 35.6766 102.624 35.5383 102.564 35.4149C102.503 35.2915 102.406 35.1882 102.286 35.1175C102.166 35.0467 102.027 35.0115 101.885 35.0159C101.744 35.0204 101.606 35.0643 101.488 35.1425C99.9372 36.2307 99.2586 38.0568 99.4525 40.6208C99.4575 40.7173 99.4363 40.8133 99.3912 40.8988C99.3461 40.9842 99.2787 41.0559 99.1963 41.1063C99.1138 41.1567 99.0192 41.1839 98.9226 41.185C98.8259 41.1861 98.7307 41.1612 98.6471 41.1127C95.8731 39.473 93.6732 40.0245 92.0476 42.7674C89.4376 47.2246 86.0819 50.2581 81.9804 51.868C81.6886 51.9936 81.4497 52.217 81.3051 52.4997C81.1604 52.7824 81.1189 53.1068 81.1879 53.4167C81.2568 53.7267 81.4318 54.003 81.6826 54.1978C81.9335 54.3927 82.2445 54.494 82.5621 54.4842C88.1326 54.1264 91.7344 48.6705 95.3362 45.0481C95.3817 45.0057 95.4417 44.9821 95.5039 44.9821C95.5662 44.9821 95.6262 45.0057 95.6717 45.0481L96.1191 45.4059C96.1683 45.4469 96.1982 45.5072 96.2024 45.574C96.2066 45.6408 96.1847 45.7088 96.1415 45.7637L91.4659 51.3537C91.43 51.4005 91.4071 51.456 91.3995 51.5144C91.3919 51.5729 91.3998 51.6323 91.4225 51.6867C91.4452 51.7411 91.4818 51.7886 91.5287 51.8244C91.5756 51.8601 91.6311 51.8829 91.6896 51.8904L94.1281 52.0693C94.1405 52.0699 94.1534 52.0661 94.1653 52.0582C94.1771 52.0503 94.1874 52.0387 94.1952 52.0246C96.1639 48.745 98.8857 46.7401 102.361 46.0096C102.715 45.932 103.08 45.9257 103.434 45.991C103.788 46.0563 104.123 46.192 104.419 46.3898C105.016 46.7624 105.381 46.9711 105.515 47.0159C105.726 47.0961 105.956 47.1072 106.172 47.0476C106.389 46.988 106.582 46.8606 106.726 46.6826C106.87 46.5047 106.958 46.2847 106.977 46.0523C106.997 45.82 106.947 45.5866 106.835 45.3836C106.731 45.1898 106.477 44.9811 106.074 44.7575C105.687 44.5339 105.344 44.4891 105.045 44.6233C103.986 45.0854 102.987 44.7127 102.048 43.5053C101.958 43.3905 101.895 43.2569 101.864 43.1141C101.833 42.9712 101.835 42.8228 101.869 42.6794C101.904 42.536 101.969 42.4014 102.062 42.2851C102.155 42.1688 102.272 42.0739 102.405 42.0072C103.494 41.4705 103.919 40.837 103.681 40.1065C103.643 39.9979 103.578 39.9007 103.493 39.8243C103.407 39.7478 103.303 39.6947 103.19 39.67C103.078 39.6454 102.961 39.6499 102.851 39.6833C102.741 39.7166 102.642 39.7777 102.562 39.8606ZM113.099 48.268C112.085 48.7749 111.332 49.5351 110.84 50.5488C110.802 50.6341 110.79 50.7288 110.806 50.8207C110.823 50.9126 110.866 50.9976 110.931 51.0648C110.996 51.132 111.079 51.1784 111.17 51.198C111.262 51.2176 111.357 51.2095 111.444 51.1749C112.279 50.8171 113.121 50.4221 113.971 49.9898C114.807 49.5724 115.627 49.1326 116.432 48.6705C116.517 48.6226 116.585 48.5495 116.626 48.4615C116.667 48.3735 116.68 48.2748 116.663 48.179C116.646 48.0833 116.599 47.9953 116.53 47.9271C116.461 47.859 116.372 47.814 116.276 47.7985C115.172 47.6047 114.113 47.7612 113.099 48.268ZM120.683 55.9376C119.445 57.9947 118.789 59.7165 118.714 61.1028C118.71 61.1961 118.737 61.2881 118.791 61.3645C118.845 61.4409 118.922 61.4975 119.012 61.5255C119.101 61.5535 119.197 61.5514 119.284 61.5194C119.372 61.4875 119.447 61.4275 119.497 61.3488C120.228 60.0817 121.123 58.5836 122.182 56.8544C123.226 55.1103 124.136 53.6121 124.911 52.36C124.953 52.281 124.968 52.1909 124.956 52.1025C124.943 52.0141 124.903 51.9318 124.841 51.8675C124.78 51.8031 124.699 51.7599 124.611 51.7439C124.523 51.728 124.432 51.7401 124.352 51.7786C123.159 52.509 121.936 53.8954 120.683 55.9376ZM96.3652 62.3326C96.8723 62.7202 99.1244 60.5587 103.121 55.8482C103.435 55.4904 103.561 55.1401 103.502 54.7972C103.427 54.3947 103.218 54.0668 102.875 53.8134C102.547 53.56 102.182 53.4482 101.779 53.478C101.421 53.5078 101.108 53.7239 100.839 54.1264C97.3645 59.2246 95.873 61.96 96.3652 62.3326Z" fill="white"/>
<path d="M96.6582 43.567C95.9721 43.6565 95.3681 43.4702 94.8461 43.008C94.7704 42.9403 94.7137 42.8539 94.6818 42.7574C94.6499 42.661 94.6438 42.5579 94.6641 42.4583C94.6845 42.3588 94.7306 42.2663 94.7979 42.1902C94.8651 42.114 94.9512 42.0568 95.0475 42.0242C95.8677 41.7261 96.5165 41.9198 96.9938 42.6056C97.0556 42.6935 97.0965 42.7955 97.1126 42.9016C97.1287 43.0078 97.1194 43.1144 97.0856 43.2113C97.0518 43.3081 96.9947 43.3917 96.9198 43.4541C96.8449 43.5164 96.7548 43.5553 96.6582 43.567Z" fill="white"/>
<path d="M100.463 43.0983C100.592 43.1707 100.683 43.2818 100.725 43.418C100.767 43.5541 100.757 43.7093 100.698 43.8641C100.638 44.0189 100.531 44.1666 100.39 44.2889C100.249 44.4111 100.08 44.5025 99.9038 44.5517C99.0985 44.7753 98.5168 44.5815 98.1589 43.9703C97.8158 43.389 97.9277 43.0536 98.4944 42.9641C99.4191 42.83 100.075 42.8747 100.463 43.0983Z" fill="white"/>
<path d="M112.705 69.5522C112.242 68.2702 112.324 67.3013 112.951 66.6454C113.831 65.6913 114.591 65.2218 115.233 65.2367C115.377 65.2437 115.517 65.2932 115.634 65.3789C115.75 65.4646 115.839 65.5827 115.889 65.7186C115.939 65.8545 115.948 66.0021 115.915 66.143C115.882 66.284 115.808 66.412 115.702 66.5112C114.271 67.8081 113.532 68.7845 113.488 69.4404C113.483 69.5339 113.446 69.6229 113.383 69.6921C113.32 69.7613 113.235 69.8064 113.142 69.8197C113.05 69.8329 112.955 69.8134 112.875 69.7646C112.795 69.7158 112.735 69.6407 112.705 69.5522Z" fill="white"/>
<path d="M147.942 90.4604C126.555 83.0219 105.138 80.9126 83.6914 84.1324C83.5364 84.1514 83.3788 84.1313 83.2336 84.0742C83.0884 84.0171 82.9605 83.9247 82.8618 83.806C82.7632 83.6873 82.6972 83.5461 82.6701 83.3958C82.643 83.2455 82.6557 83.0911 82.707 82.9473C83.2439 81.2629 84.0791 80.3237 85.2126 80.13C108.016 76.284 129.075 79.3771 148.389 89.4095C148.502 89.4848 148.584 89.597 148.623 89.7267C148.661 89.8564 148.654 89.9954 148.601 90.1199C148.548 90.2444 148.453 90.3465 148.333 90.4086C148.212 90.4708 148.074 90.4891 147.942 90.4604Z" fill="white"/>
<path d="M80.7104 82.0288C80.8894 82.2375 81.0385 82.5207 81.1578 82.8785C81.2012 83.0312 81.1941 83.1932 81.1374 83.3389C81.0807 83.4846 80.9776 83.6059 80.8446 83.6834C78.4434 85.1592 76.3032 87.0524 74.424 89.3629C74.3413 89.4588 74.2356 89.5327 74.1171 89.5774C73.9987 89.6222 73.8714 89.6362 73.7478 89.6182C73.6241 89.6002 73.5081 89.5508 73.411 89.4748C73.314 89.3987 73.2391 89.2986 73.1936 89.1841L72.858 88.3344C72.8321 88.2556 72.8289 88.1725 72.8489 88.0964C72.869 88.0203 72.9112 87.955 72.9699 87.9095C74.2376 86.9406 74.8491 86.1654 74.8043 85.5841C74.7959 85.4281 74.8224 85.2723 74.8818 85.1279C74.9412 84.9834 75.032 84.854 75.1477 84.7491C75.2634 84.6442 75.4011 84.5663 75.5506 84.5212C75.7002 84.4761 75.8579 84.4649 76.0124 84.4884C77.8319 84.7567 79.1146 83.989 79.8603 82.1853C79.8931 82.1059 79.9453 82.0359 80.0121 81.9818C80.0789 81.9278 80.1581 81.8913 80.2427 81.8757C80.3272 81.8601 80.4143 81.866 80.496 81.8927C80.5777 81.9195 80.6514 81.9662 80.7104 82.0288Z" fill="white"/>
<path d="M73.4819 82.5234L73.3029 85.0725L53.6161 91.311C53.5647 91.3218 53.5095 91.3146 53.4608 91.2909C53.4121 91.2671 53.3732 91.2284 53.3513 91.1819C53.3294 91.1355 53.326 91.0844 53.3418 91.0382C53.3576 90.992 53.3915 90.9539 53.4371 90.9309C59.895 87.234 66.5766 84.4315 73.4819 82.5234Z" fill="white"/>
<path d="M30.2902 119.288C24.6462 116.839 19.6253 116.474 15.2277 118.193C7.94338 121.054 5.70341 129.654 8.66652 136.524C11.2181 142.445 16.5388 144.8 24.6285 143.587C25.1312 143.507 25.5888 143.252 25.9187 142.866C26.2486 142.481 26.4291 141.991 26.4276 141.486V131.261C26.4276 130.947 26.5539 130.646 26.7788 130.424C27.0038 130.203 27.3088 130.078 27.6269 130.078H32.001C32.3238 130.078 32.6334 130.208 32.8616 130.44C33.0898 130.672 33.218 130.986 33.218 131.314V145.283C33.2177 145.65 33.1087 146.008 32.9046 146.313C32.7005 146.618 32.4106 146.856 32.0716 146.996C-9.7471 163.825 -10.9817 100.958 30.202 112.86C30.5839 112.971 30.9194 113.203 31.158 113.522C31.3966 113.84 31.5253 114.228 31.5248 114.626V118.476C31.5253 118.623 31.4893 118.767 31.4198 118.897C31.3504 119.026 31.2499 119.136 31.1273 119.217C31.0047 119.297 30.8639 119.346 30.7178 119.359C30.5716 119.371 30.4246 119.347 30.2902 119.288Z" fill="white"/>
<path d="M95.3855 114.706C99.5455 117.633 102.358 122.118 103.203 127.174C104.049 132.23 102.859 137.442 99.8949 141.665C98.4272 143.756 96.5682 145.541 94.4239 146.918C92.2797 148.295 89.8923 149.237 87.3979 149.69C84.9035 150.144 82.3511 150.1 79.8864 149.561C77.4217 149.022 75.0929 147.998 73.033 146.549C68.873 143.622 66.0608 139.137 65.2151 134.081C64.3694 129.025 65.5595 123.812 68.5236 119.59C69.9913 117.499 71.8503 115.714 73.9946 114.337C76.1388 112.96 78.5263 112.018 81.0206 111.564C83.515 111.111 86.0674 111.155 88.5321 111.694C90.9968 112.233 93.3256 113.256 95.3855 114.706ZM84.2098 117.012C82.6464 117.004 81.0964 117.348 79.6484 118.023C78.2005 118.699 76.8828 119.694 75.7707 120.951C74.6586 122.208 73.7738 123.702 73.1669 125.349C72.56 126.995 72.2428 128.762 72.2335 130.547C72.2147 134.154 73.4509 137.619 75.6702 140.18C77.8895 142.742 80.9102 144.191 84.0676 144.207C85.631 144.215 87.181 143.872 88.629 143.196C90.0769 142.52 91.3946 141.525 92.5067 140.269C93.6188 139.012 94.5036 137.517 95.1105 135.871C95.7174 134.224 96.0346 132.458 96.0439 130.672C96.0627 127.066 94.8265 123.601 92.6072 121.039C90.3879 118.477 87.3672 117.029 84.2098 117.012Z" fill="white"/>
<path d="M170.878 114.84L170.807 118.672C170.806 118.819 170.768 118.964 170.697 119.094C170.625 119.223 170.522 119.332 170.398 119.411C170.273 119.49 170.131 119.536 169.984 119.546C169.836 119.556 169.689 119.528 169.555 119.466C163.958 116.923 158.949 116.476 154.528 118.124C147.208 120.861 144.827 129.409 147.667 136.313C150.113 142.27 155.386 144.713 163.488 143.642C163.991 143.571 164.452 143.323 164.789 142.945C165.125 142.566 165.314 142.08 165.322 141.576L165.499 131.369C165.501 131.213 165.534 131.06 165.596 130.917C165.659 130.774 165.749 130.645 165.862 130.537C165.975 130.429 166.109 130.344 166.255 130.286C166.402 130.229 166.558 130.201 166.716 130.203L171.09 130.274C171.409 130.283 171.713 130.42 171.934 130.654C172.155 130.889 172.276 131.203 172.271 131.528L172.042 145.479C172.035 145.847 171.92 146.204 171.709 146.506C171.499 146.808 171.203 147.041 170.86 147.174C128.812 163.261 128.654 100.465 169.573 113.056C169.954 113.171 170.288 113.407 170.524 113.729C170.759 114.051 170.883 114.441 170.878 114.84Z" fill="white"/>
<path d="M48.262 133.009C47.9516 133.009 47.6537 133.132 47.4325 133.35C47.2114 133.568 47.0849 133.864 47.0802 134.175L47.0273 142.228C47.025 142.393 47.0557 142.557 47.1178 142.71C47.1799 142.863 47.2721 143.002 47.3888 143.119C47.5056 143.236 47.6446 143.329 47.7976 143.391C47.9506 143.453 48.1145 143.484 48.2796 143.481L59.5853 143.358C59.7544 143.355 59.9223 143.386 60.0794 143.449C60.2365 143.512 60.3797 143.605 60.5009 143.723C60.6221 143.841 60.7189 143.982 60.7857 144.137C60.8526 144.293 60.8882 144.46 60.8905 144.629L60.9081 147.967C60.9104 148.12 60.8821 148.272 60.8249 148.414C60.7676 148.556 60.6825 148.686 60.5744 148.796C60.4663 148.906 60.3374 148.994 60.1949 149.054C60.0524 149.115 59.8992 149.148 59.744 149.15L40.8365 149.256C40.6541 149.256 40.4791 149.183 40.3501 149.054C40.2211 148.925 40.1487 148.75 40.1487 148.567L40.0781 112.842C40.0781 112.58 40.1822 112.329 40.3674 112.143C40.5527 111.958 40.8039 111.854 41.0658 111.854L59.5677 111.942C59.7398 111.941 59.9097 111.981 60.0631 112.059C60.2164 112.138 60.3488 112.252 60.449 112.392C60.5492 112.532 60.6144 112.694 60.639 112.865C60.6637 113.035 60.6471 113.209 60.5906 113.372L59.6382 116.233C59.4937 116.65 59.2218 117.011 58.8608 117.265C58.4999 117.518 58.0684 117.652 57.6275 117.646L48.2443 117.54C48.1007 117.537 47.958 117.563 47.8244 117.615C47.6908 117.667 47.5689 117.744 47.4658 117.843C47.3626 117.941 47.2801 118.059 47.223 118.188C47.166 118.318 47.1354 118.458 47.1332 118.599L46.9921 126.228C46.9921 126.346 47.0149 126.464 47.0592 126.573C47.1035 126.682 47.1684 126.781 47.2503 126.865C47.3322 126.949 47.4294 127.015 47.5364 127.06C47.6434 127.106 47.7581 127.129 47.8739 127.129L57.9979 127.164C58.3036 127.164 58.5971 127.284 58.8149 127.499C59.0327 127.714 59.1574 128.006 59.162 128.312L59.2502 131.738C59.2549 131.903 59.226 132.068 59.1652 132.222C59.1044 132.376 59.0129 132.516 58.8961 132.635C58.7794 132.753 58.6397 132.848 58.4854 132.912C58.3312 132.976 58.1654 133.009 57.9979 133.009H48.262Z" fill="white"/>
<path d="M126.696 131.597C126.606 131.652 126.541 131.74 126.515 131.842C126.489 131.944 126.503 132.053 126.555 132.144L135.656 147.914C135.72 148.029 135.754 148.159 135.753 148.29C135.752 148.422 135.717 148.551 135.651 148.665C135.585 148.779 135.491 148.874 135.377 148.94C135.264 149.007 135.135 149.043 135.004 149.044H130.047C129.549 149.045 129.059 148.913 128.626 148.662C128.192 148.411 127.831 148.05 127.578 147.614L119.43 133.487C119.194 133.076 119.047 132.62 118.996 132.15C118.945 131.679 118.993 131.204 119.136 130.753C119.278 130.303 119.513 129.888 119.825 129.535C120.137 129.181 120.519 128.897 120.946 128.701L122.922 127.8C123.247 127.649 123.53 127.432 123.751 127.165C125.55 125.022 125.903 122.85 124.809 120.648C123.31 117.646 119.571 117.558 116.731 117.611C116.514 117.615 116.308 117.703 116.156 117.855C116.005 118.007 115.92 118.211 115.92 118.423V147.455C115.92 147.877 115.754 148.281 115.46 148.579C115.166 148.877 114.766 149.044 114.35 149.044H110.505C110.112 149.044 109.735 148.888 109.457 148.61C109.18 148.332 109.023 147.954 109.023 147.561V112.631C109.023 112.451 109.093 112.279 109.219 112.15C109.344 112.021 109.514 111.947 109.694 111.942C116.731 111.854 124.897 110.9 129.554 115.174C134.704 119.924 132.464 127.959 126.696 131.597Z" fill="white"/>
<path d="M187.16 143.45H198.977C199.248 143.45 199.509 143.558 199.7 143.75C199.892 143.942 200 144.202 200 144.474V148.218C200 148.352 199.974 148.485 199.922 148.61C199.871 148.734 199.795 148.847 199.7 148.942C199.605 149.037 199.493 149.113 199.368 149.164C199.244 149.215 199.111 149.242 198.977 149.242H180.175C180.041 149.242 179.908 149.215 179.784 149.164C179.66 149.113 179.547 149.037 179.452 148.942C179.357 148.847 179.282 148.734 179.23 148.61C179.179 148.485 179.152 148.352 179.152 148.218V112.917C179.152 112.645 179.26 112.385 179.452 112.193C179.644 112 179.904 111.893 180.175 111.893H198.748C198.912 111.894 199.073 111.935 199.218 112.011C199.363 112.088 199.488 112.199 199.581 112.334C199.674 112.469 199.734 112.624 199.755 112.787C199.775 112.95 199.757 113.116 199.7 113.27L198.36 116.908C198.288 117.103 198.158 117.272 197.988 117.392C197.818 117.512 197.615 117.577 197.407 117.579H187.142C187.008 117.579 186.875 117.605 186.751 117.657C186.627 117.708 186.514 117.784 186.419 117.879C186.324 117.974 186.248 118.087 186.197 118.211C186.146 118.335 186.119 118.469 186.119 118.603V126.144C186.119 126.278 186.146 126.411 186.197 126.536C186.248 126.66 186.324 126.773 186.419 126.868C186.514 126.963 186.627 127.038 186.751 127.09C186.875 127.141 187.008 127.168 187.142 127.168H197.249C197.52 127.168 197.78 127.276 197.972 127.468C198.164 127.66 198.272 127.92 198.272 128.192V131.989C198.272 132.261 198.164 132.521 197.972 132.713C197.78 132.905 197.52 133.013 197.249 133.013H187.16C186.889 133.013 186.628 133.121 186.436 133.313C186.245 133.505 186.137 133.766 186.137 134.037V142.426C186.137 142.697 186.245 142.958 186.436 143.15C186.628 143.342 186.889 143.45 187.16 143.45Z" fill="white"/>
<path d="M52.4938 168.312C52.4663 168.243 52.4189 168.184 52.3575 168.142C52.2962 168.101 52.2239 168.078 52.1498 168.078C52.0758 168.078 52.0035 168.101 51.9422 168.142C51.8809 168.184 51.8334 168.243 51.8059 168.312L47.3436 180.373C47.1708 180.837 46.8649 181.238 46.4655 181.525C46.0661 181.811 45.5916 181.97 45.1036 181.98H44.9802C44.7819 181.977 44.5876 181.926 44.4135 181.83C44.2394 181.735 44.0907 181.598 43.98 181.432C43.8693 181.266 43.7998 181.075 43.7774 180.875C43.755 180.675 43.7804 180.473 43.8514 180.285C46.9556 172.197 50.4655 162.007 51.6295 161.795C52.7466 161.595 53.4932 161.96 53.8695 162.89C58.079 173.556 60.4719 179.302 61.048 180.126C61.1233 180.236 61.1746 180.361 61.1985 180.493C61.2224 180.624 61.2184 180.759 61.1868 180.889C61.1552 181.019 61.0967 181.141 61.0151 181.247C60.9334 181.352 60.8305 181.44 60.7129 181.503C59.8193 181.986 58.908 182.039 57.9791 181.662C57.6712 181.54 57.4029 181.335 57.2037 181.071C57.0045 180.806 56.8822 180.491 56.8503 180.161C56.5563 177.359 54.9807 176.3 52.1234 176.982C51.8483 177.05 51.5598 177.029 51.298 176.922C51.0361 176.816 50.8141 176.629 50.6627 176.388C50.5113 176.147 50.4381 175.864 50.4534 175.578C50.4686 175.292 50.5715 175.017 50.7477 174.793C51.1239 174.333 51.947 174.016 53.2169 173.839C53.3706 173.816 53.5174 173.76 53.6467 173.674C53.7759 173.588 53.8843 173.475 53.9638 173.343C54.0433 173.211 54.0919 173.063 54.1061 172.911C54.1203 172.758 54.0998 172.605 54.0459 172.462L52.4938 168.312Z" fill="white"/>
<path d="M66.2852 161.937L65.368 161.942C64.5888 161.946 63.9603 162.582 63.9644 163.362L64.054 180.491C64.0581 181.271 64.6931 181.901 65.4724 181.897L66.3895 181.892C67.1688 181.888 67.7972 181.252 67.7931 180.472L67.7035 163.342C67.6995 162.562 67.0644 161.933 66.2852 161.937Z" fill="white"/>
<path d="M73.9061 162.024C77.1985 162.059 79.462 162.206 80.6966 162.465C85.8292 163.542 86.2701 169.158 82.6015 172.142C82.4133 172.3 82.2857 172.519 82.2407 172.76C82.1956 173.002 82.2359 173.252 82.3546 173.467L86.4818 180.619C86.5537 180.74 86.5921 180.878 86.5932 181.019C86.5943 181.16 86.5581 181.298 86.4881 181.42C86.4181 181.543 86.3169 181.644 86.1949 181.714C86.073 181.784 85.9346 181.821 85.7939 181.82H84.5592C84.0711 181.82 83.591 181.691 83.1669 181.447C82.7429 181.202 82.3898 180.849 82.1429 180.425L78.0686 173.361C77.9099 173.091 77.853 172.773 77.9079 172.462C77.9627 172.152 78.1259 171.87 78.3685 171.666C79.9382 170.376 81.702 169.617 81.2963 167.339C81.1552 166.586 80.2674 165.856 78.633 165.149C78.3858 165.044 78.1164 165.002 77.8489 165.027C77.5814 165.051 77.3242 165.142 77.1004 165.291C76.8766 165.44 76.6932 165.642 76.5667 165.879C76.4402 166.116 76.3744 166.381 76.3754 166.65V180.689C76.3754 180.985 76.2565 181.268 76.0448 181.476C75.8331 181.685 75.546 181.802 75.2466 181.802H73.9767C73.6586 181.802 73.3536 181.675 73.1286 181.45C72.9037 181.225 72.7773 180.92 72.7773 180.601V163.136C72.7773 162.989 72.8066 162.842 72.8636 162.706C72.9205 162.57 73.004 162.447 73.109 162.343C73.2141 162.24 73.3387 162.158 73.4755 162.103C73.6124 162.048 73.7587 162.021 73.9061 162.024Z" fill="white"/>
<path d="M90.3086 164.905C90.3083 164.422 90.4144 163.945 90.6193 163.507C90.8243 163.07 91.1231 162.682 91.4948 162.373C91.8664 162.063 92.3019 161.838 92.7704 161.714C93.2389 161.59 93.7292 161.57 94.2065 161.655L97.3107 162.238C98.7225 162.496 99.9978 163.246 100.911 164.354C101.824 165.462 102.317 166.858 102.302 168.295C102.267 171.78 100.438 173.917 96.8169 174.706C96.5698 174.757 96.3127 174.728 96.0832 174.623C95.8537 174.518 95.664 174.341 95.5417 174.12C95.4195 173.899 95.3712 173.645 95.4038 173.394C95.4365 173.144 95.5485 172.91 95.7233 172.728L97.9633 170.485C98.2501 170.198 98.4411 169.828 98.5101 169.425C98.9687 166.741 97.8163 165.323 95.0531 165.17C94.919 165.162 94.7849 165.183 94.6589 165.229C94.5329 165.276 94.4176 165.347 94.3202 165.44C94.2228 165.532 94.1453 165.644 94.0924 165.767C94.0395 165.891 94.0123 166.024 94.0125 166.158V180.215C94.0125 180.623 93.8508 181.014 93.5631 181.302C93.2753 181.59 92.885 181.752 92.478 181.752H91.702C91.3324 181.752 90.978 181.605 90.7167 181.343C90.4554 181.081 90.3086 180.727 90.3086 180.357V164.905Z" fill="white"/>
<path d="M124.066 173.116C124.062 175.477 123.121 177.739 121.451 179.405C119.781 181.071 117.518 182.005 115.161 182.001L113.432 181.998C112.265 181.996 111.11 181.764 110.032 181.315C108.954 180.865 107.975 180.208 107.151 179.38C106.327 178.552 105.674 177.57 105.229 176.489C104.784 175.409 104.557 174.251 104.559 173.082L104.562 170.892C104.567 168.532 105.507 166.27 107.177 164.604C108.847 162.937 111.11 162.004 113.467 162.008L115.196 162.011C116.363 162.013 117.519 162.245 118.596 162.694C119.674 163.143 120.653 163.801 121.477 164.629C122.301 165.457 122.954 166.439 123.399 167.519C123.844 168.6 124.072 169.758 124.07 170.927L124.066 173.116ZM114.3 164.976C112.658 164.959 111.076 165.687 109.901 166.999C108.726 168.312 108.055 170.101 108.036 171.975C108.026 172.902 108.176 173.823 108.478 174.683C108.781 175.543 109.228 176.326 109.796 176.988C110.364 177.65 111.041 178.178 111.789 178.541C112.536 178.903 113.339 179.095 114.152 179.103C115.794 179.12 117.376 178.393 118.551 177.08C119.726 175.768 120.397 173.978 120.416 172.105C120.426 171.177 120.276 170.257 119.973 169.397C119.671 168.536 119.224 167.753 118.656 167.091C118.088 166.429 117.411 165.902 116.663 165.539C115.916 165.176 115.113 164.985 114.3 164.976Z" fill="white"/>
<path d="M127.227 163.136C127.227 162.989 127.256 162.842 127.313 162.706C127.37 162.57 127.453 162.447 127.558 162.343C127.663 162.24 127.788 162.158 127.925 162.103C128.062 162.048 128.208 162.021 128.355 162.024C131.659 162.047 133.929 162.188 135.163 162.447C140.296 163.525 140.755 169.14 137.086 172.142C136.898 172.3 136.77 172.519 136.725 172.76C136.68 173.002 136.72 173.252 136.839 173.467L140.984 180.636C141.056 180.758 141.094 180.896 141.095 181.036C141.096 181.177 141.06 181.316 140.99 181.438C140.92 181.56 140.819 181.662 140.697 181.732C140.575 181.802 140.437 181.838 140.296 181.837H139.061C138.569 181.839 138.085 181.711 137.658 181.466C137.23 181.221 136.875 180.868 136.627 180.442L132.535 173.379C132.374 173.104 132.316 172.781 132.371 172.467C132.426 172.153 132.59 171.869 132.835 171.666C134.405 170.376 136.169 169.617 135.763 167.339C135.622 166.586 134.734 165.856 133.1 165.149C132.853 165.044 132.583 165.002 132.316 165.027C132.048 165.051 131.791 165.142 131.567 165.291C131.343 165.44 131.16 165.642 131.034 165.879C130.907 166.116 130.841 166.381 130.842 166.65L130.86 180.707C130.862 180.855 130.835 181.001 130.779 181.138C130.723 181.275 130.641 181.4 130.536 181.505C130.431 181.61 130.305 181.694 130.167 181.751C130.029 181.808 129.881 181.837 129.731 181.837H128.461C128.143 181.837 127.838 181.711 127.613 181.486C127.388 181.26 127.262 180.955 127.262 180.636L127.227 163.136Z" fill="white"/>
<path d="M148.567 162.133C150.825 162.098 152.935 162.086 154.899 162.098C155.265 162.103 155.615 162.252 155.873 162.513C156.13 162.774 156.275 163.126 156.275 163.493V164.041C156.275 164.215 156.24 164.387 156.173 164.548C156.105 164.708 156.006 164.854 155.882 164.977C155.758 165.1 155.61 165.198 155.447 165.264C155.284 165.331 155.11 165.365 154.934 165.365H151.301C151.072 165.365 150.852 165.458 150.69 165.624C150.528 165.789 150.437 166.014 150.437 166.248V180.623C150.437 180.932 150.32 181.23 150.11 181.454C149.899 181.677 149.612 181.81 149.308 181.824C149.108 181.835 148.861 181.841 148.567 181.841C148.273 181.841 148.026 181.835 147.826 181.824C147.522 181.81 147.235 181.677 147.024 181.454C146.814 181.23 146.697 180.932 146.697 180.623V166.248C146.697 166.014 146.606 165.789 146.444 165.624C146.282 165.458 146.062 165.365 145.833 165.365H142.2C141.844 165.365 141.503 165.226 141.252 164.977C141.001 164.729 140.859 164.392 140.859 164.041V163.493C140.859 163.126 141.004 162.774 141.261 162.513C141.519 162.252 141.869 162.103 142.235 162.098C144.187 162.086 146.298 162.098 148.567 162.133Z" fill="white"/>
</svg>
