<svg width="200" height="105" viewBox="0 0 200 105" fill="none" xmlns="http://www.w3.org/2000/svg">
<path d="M182.026 44.0288L182.336 44.2263C182.341 44.2296 182.346 44.2342 182.349 44.2395C182.351 44.2448 182.353 44.2508 182.353 44.2569C182.353 44.263 182.351 44.269 182.349 44.2743C182.346 44.2796 182.341 44.2842 182.336 44.2875L181.721 44.6879C175.695 45.322 169.88 46.7958 164.277 49.1095C160.273 50.7627 156.479 52.8341 152.895 55.3238C145.265 60.6225 139.388 67.7911 135.214 76.0944C132.715 81.0667 130.909 86.1546 129.798 91.358C129.794 91.3763 129.785 91.3926 129.77 91.4044C129.756 91.4161 129.738 91.4225 129.72 91.4224H125.12C125.113 91.4225 125.105 91.4207 125.098 91.4174C125.091 91.414 125.085 91.4091 125.08 91.403C125.075 91.3969 125.072 91.3898 125.07 91.3822C125.068 91.3746 125.068 91.3667 125.07 91.3591C125.345 90.1196 125.539 89.142 125.652 88.4264C127.497 76.659 126.446 64.327 122.138 53.2424C119.527 46.5232 115.861 40.4638 111.142 35.0643C104.352 27.2977 95.6952 21.2305 86.3182 16.7981C83.445 15.4398 80.5043 14.1853 77.496 13.0345C66.6348 8.87915 55.1266 5.89276 43.5594 3.90577C32.9969 2.09161 22.2839 1.00848 11.4202 0.656379C7.52907 0.530425 3.72233 0.521122 0 0.628469V0.627395C0.766214 0.483551 1.59038 0.328971 2.42098 0.282812C4.48282 0.168309 6.61298 0.0895874 8.81146 0.0466487C18.5161 -0.142997 28.3256 0.245598 38.2399 1.21244C46.4636 2.01324 54.4953 3.26169 62.3348 4.95777C70.4305 6.70967 78.4639 9.08525 86.2956 12.2284C92.1535 14.5785 97.684 17.4007 102.887 20.6948C105.438 22.3093 107.925 24.107 110.35 26.0879C117.005 31.5232 122.171 38.0492 125.846 45.6658C128.598 51.3702 130.423 57.6146 131.21 63.918C131.484 66.11 131.608 68.282 131.583 70.434C131.582 70.437 131.583 70.4402 131.585 70.4427C131.587 70.4453 131.589 70.4471 131.592 70.4479C131.595 70.4487 131.598 70.4484 131.601 70.447C131.604 70.4456 131.606 70.4433 131.607 70.4404C132.156 69.4006 132.801 68.3386 133.542 67.2543C138.269 60.3369 144.735 54.6744 152.163 50.7025C154.246 49.589 156.401 48.6304 158.627 47.8267C160.726 47.0689 162.934 46.4273 165.249 45.902C170.761 44.6525 176.354 44.0281 182.026 44.0288Z" fill="white"/>
<path d="M75.0254 44.6257C74.6126 44.316 74.1596 44.0516 73.6664 43.8324C71.3456 42.7988 68.6769 42.3494 66.165 42.7363C58.1694 43.9671 53.4937 51.6701 53.9879 59.4161C54.2601 63.6841 56.6983 67.1373 61.0335 67.7441C62.8077 67.992 64.6246 67.8724 66.1757 66.9832C66.1938 66.9727 66.2095 66.9585 66.2217 66.9416C66.2338 66.9247 66.2422 66.9054 66.2462 66.8851L68.8712 53.5702C68.8741 53.5558 68.8819 53.543 68.8932 53.5337C68.9045 53.5245 68.9186 53.5195 68.9331 53.5195H77.6664C77.6712 53.5196 77.676 53.5208 77.6804 53.5229C77.6847 53.525 77.6886 53.5281 77.6916 53.5319C77.6947 53.5357 77.6969 53.5402 77.6981 53.5449C77.6992 53.5497 77.6993 53.5546 77.6984 53.5594L73.9183 73.2031C73.9154 73.2197 73.9084 73.2353 73.898 73.2486C73.8876 73.262 73.874 73.2726 73.8586 73.2796C69.1914 75.446 63.983 76.195 58.7917 76.0064C56.8268 75.9353 54.9587 75.5613 53.1873 74.8845C49.8104 73.5933 47.3708 71.313 45.8684 68.0438C44.8191 65.7589 44.3515 63.0806 44.344 60.4669C44.3227 53.7545 46.5388 46.6002 51.1975 41.6133C54.3544 38.2333 58.2484 36.0368 62.8792 35.0237C66.1337 34.3109 69.4063 34.2057 72.6971 34.7079C74.9912 35.0582 77.3098 35.804 79.1684 37.2234C79.1766 37.2293 79.1824 37.2381 79.1846 37.2481C79.1867 37.2581 79.1851 37.2685 79.1801 37.2773L75.0777 44.6138C75.0753 44.6183 75.0721 44.6222 75.0681 44.6252C75.0641 44.6283 75.0595 44.6305 75.0545 44.6316C75.0496 44.6327 75.0444 44.6328 75.0394 44.6317C75.0343 44.6307 75.0296 44.6286 75.0254 44.6257Z" fill="white"/>
<path d="M11.332 74.6678C11.329 74.6677 11.3261 74.667 11.3234 74.6656C11.3207 74.6643 11.3184 74.6624 11.3165 74.66C11.3147 74.6577 11.3134 74.655 11.3127 74.6521C11.3121 74.6492 11.312 74.6462 11.3127 74.6433L18.8068 35.7862C18.8083 35.7773 18.813 35.7692 18.8201 35.7634C18.8271 35.7575 18.8361 35.7543 18.8454 35.7542C23.0225 35.7528 27.8455 35.7563 33.3143 35.7649C37.3473 35.7713 42.2772 36.7429 43.5711 41.2089C43.8 42.0001 43.9062 42.863 43.8897 43.7977C43.8468 46.2367 43.2042 48.4566 41.9618 50.4573C40.6107 52.6321 38.7324 54.1307 36.327 54.9532C36.3149 54.9572 36.3043 54.965 36.2969 54.9753C36.2894 54.9856 36.2854 54.998 36.2854 55.0107C36.2854 55.0234 36.2894 55.0358 36.2969 55.0461C36.3043 55.0564 36.3149 55.0642 36.327 55.0682C39.1429 56.0157 40.6768 57.9792 40.9286 60.9587C41.0037 61.8521 40.9361 62.9026 40.7258 64.11C40.4007 65.9797 39.684 67.9592 38.5972 69.5231C36.0255 73.2242 31.794 74.6795 27.3587 74.6763C17.1413 74.6699 11.7991 74.6671 11.332 74.6678ZM24.7184 51.3331C26.9514 51.3423 28.5028 51.3419 29.3725 51.332C30.3467 51.3206 31.17 51.1669 31.8423 50.8707C33.7392 50.0333 34.6962 48.202 34.6586 46.1011C34.62 43.9639 32.9034 43.2363 31.0344 43.1979C30.3471 43.1837 28.7399 43.1798 26.2129 43.1862C26.1956 43.1866 26.179 43.1928 26.1657 43.2039C26.1524 43.2149 26.1434 43.2301 26.1399 43.2469L24.6583 51.2606C24.6567 51.2694 24.6571 51.2784 24.6594 51.287C24.6617 51.2957 24.6658 51.3037 24.6715 51.3106C24.6773 51.3174 24.6844 51.323 24.6925 51.3269C24.7006 51.3308 24.7094 51.3329 24.7184 51.3331ZM21.636 67.2475C23.0071 67.2518 24.7012 67.2532 26.7182 67.2518C28.9863 67.2507 30.7051 66.342 31.4561 64.1814C32.5236 61.1099 31.3477 58.7619 27.9156 58.7608C26.5459 58.7608 24.9766 58.7608 23.2078 58.7608C23.1963 58.7609 23.1853 58.7649 23.1767 58.7721C23.168 58.7793 23.1623 58.7893 23.1605 58.8002L21.6049 67.2102C21.6041 67.2148 21.6043 67.2194 21.6055 67.2238C21.6067 67.2283 21.6089 67.2324 21.6118 67.2359C21.6148 67.2395 21.6185 67.2424 21.6226 67.2444C21.6268 67.2463 21.6313 67.2474 21.636 67.2475Z" fill="white"/>
<path d="M108.828 74.638C108.83 74.6425 108.83 74.6472 108.829 74.6518C108.828 74.6564 108.827 74.6608 108.824 74.6645C108.821 74.6683 108.818 74.6713 108.813 74.6733C108.809 74.6754 108.805 74.6764 108.8 74.6763H98.4354C98.4241 74.6763 98.4131 74.6726 98.4041 74.6659C98.3952 74.6591 98.3886 74.6497 98.3856 74.639C97.3455 71.0032 96.234 67.1187 95.0509 62.9857C94.6327 61.5243 94.0423 60.0042 92.3143 59.8381C92.0984 59.8175 91.5552 59.8175 90.6849 59.8381C90.6674 59.8385 90.6506 59.8447 90.6372 59.8557C90.6238 59.8668 90.6147 59.882 90.6112 59.8988L87.6428 74.6262C87.6407 74.6373 87.6348 74.6473 87.6259 74.6545C87.6169 74.6617 87.6057 74.6656 87.594 74.6657H78.3192C78.3135 74.6656 78.3078 74.6643 78.3026 74.6619C78.2975 74.6594 78.2929 74.6559 78.2893 74.6515C78.2857 74.6471 78.2831 74.642 78.2817 74.6366C78.2803 74.6311 78.2802 74.6254 78.2813 74.6199L85.84 35.8136C85.8431 35.7968 85.852 35.7817 85.8653 35.7708C85.8786 35.7599 85.8953 35.7539 85.9126 35.7539C88.8695 35.7589 93.4663 35.761 99.703 35.7603C102.643 35.7603 105.958 35.9893 108.496 37.5413C111.006 39.0763 111.844 41.5539 111.759 44.3511C111.725 45.471 111.562 46.6111 111.271 47.7715C110.06 52.5937 106.244 56.4603 101.09 56.8033C101.078 56.8041 101.067 56.8088 101.058 56.8167C101.049 56.8245 101.043 56.8351 101.041 56.8467C101.039 56.8584 101.041 56.8705 101.046 56.8811C101.052 56.8917 101.06 56.9003 101.071 56.9056C101.395 57.0515 101.745 57.2134 102.007 57.4297C103.904 58.9934 104.584 61.6063 105.33 63.8997C106.684 68.0568 107.85 71.6362 108.828 74.638ZM91.7315 52.3987C94.0138 52.4143 95.5421 52.4104 96.3163 52.387C98.8287 52.3124 100.972 51.1876 101.78 48.7387C102.072 47.8524 102.186 46.9797 102.122 46.1204C101.959 43.9527 99.963 43.2508 98.0497 43.2028C97.0054 43.1773 95.5431 43.1709 93.6631 43.1837C93.6459 43.1838 93.6292 43.1896 93.6158 43.2003C93.6024 43.2109 93.5931 43.2257 93.5895 43.2423L91.6762 52.3305C91.6744 52.3388 91.6745 52.3474 91.6764 52.3556C91.6784 52.3638 91.6822 52.3714 91.6875 52.378C91.6928 52.3845 91.6995 52.3898 91.7071 52.3934C91.7147 52.3969 91.723 52.3988 91.7315 52.3987Z" fill="white"/>
<path d="M181.819 44.6279L182.442 44.222C182.447 44.2187 182.451 44.2141 182.454 44.2087C182.457 44.2033 182.458 44.1972 182.458 44.191C182.458 44.1849 182.457 44.1788 182.454 44.1734C182.451 44.168 182.447 44.1634 182.442 44.16L182.127 43.9598L180.068 42.5823C180.064 42.5796 180.061 42.5756 180.06 42.5709C180.058 42.5663 180.058 42.5613 180.06 42.5568C180.061 42.5523 180.064 42.5484 180.068 42.546C180.072 42.5435 180.077 42.5425 180.082 42.5432L199.978 44.1785C199.984 44.1795 199.989 44.1824 199.993 44.1869C199.997 44.1914 200 44.1972 200 44.2032C200 44.2092 199.998 44.2151 199.995 44.22C199.991 44.2248 199.986 44.2282 199.98 44.2297L175.13 48.8789C175.127 48.8796 175.123 48.879 175.12 48.8774C175.117 48.8757 175.115 48.8731 175.114 48.87C175.113 48.8669 175.113 48.8634 175.114 48.8603C175.115 48.8571 175.117 48.8545 175.12 48.8528L181.819 44.6279Z" fill="white"/>
<path d="M173.458 52.5059C173.461 52.5028 173.465 52.5008 173.47 52.5002C173.474 52.4996 173.479 52.5003 173.483 52.5024C173.487 52.5044 173.49 52.5077 173.492 52.5116C173.493 52.5155 173.494 52.5199 173.493 52.5243L172.744 56.4445C172.743 56.4497 172.744 56.455 172.745 56.4599C172.747 56.4649 172.75 56.4694 172.754 56.4729C172.758 56.4763 172.763 56.4787 172.768 56.4798C172.773 56.4809 172.778 56.4807 172.783 56.4791C173.749 56.1752 174.309 56.0003 174.464 55.9542C174.494 55.9448 174.52 55.9513 174.544 55.9736C174.553 55.9825 174.56 55.9933 174.564 56.0053C174.568 56.0173 174.57 56.0301 174.568 56.0427C174.567 56.0553 174.562 56.0674 174.556 56.0781C174.549 56.0888 174.54 56.0978 174.529 56.1043C173.772 56.5737 173.128 56.9704 172.598 57.2944C172.585 57.3022 172.574 57.3128 172.565 57.3254C172.556 57.3381 172.55 57.3526 172.548 57.3679L172.138 59.5159C172.137 59.5184 172.138 59.5209 172.138 59.5233C172.139 59.5256 172.14 59.5278 172.142 59.5295C172.144 59.5312 172.146 59.5324 172.149 59.5331C172.151 59.5337 172.154 59.5338 172.156 59.5332L175.459 58.5526C175.464 58.5511 175.47 58.5508 175.475 58.5517C175.481 58.5525 175.486 58.5545 175.49 58.5574C175.495 58.5604 175.499 58.5643 175.502 58.5688C175.505 58.5734 175.507 58.5785 175.508 58.5839C175.512 58.6084 175.509 58.6329 175.498 58.6573C175.492 58.6727 175.48 58.6853 175.466 58.693L171.959 60.5451C171.947 60.5515 171.936 60.5608 171.928 60.5722C171.919 60.5836 171.914 60.5969 171.911 60.611L171.509 62.7201C171.507 62.7263 171.508 62.7327 171.51 62.7387C171.511 62.7447 171.515 62.7502 171.519 62.7546C171.524 62.759 171.529 62.7622 171.535 62.7639C171.541 62.7656 171.548 62.7658 171.554 62.7644L174.474 62.0387C174.49 62.035 174.508 62.0372 174.523 62.0446C174.538 62.0521 174.55 62.0646 174.557 62.0799C174.564 62.0953 174.566 62.1126 174.562 62.129C174.558 62.1455 174.549 62.1601 174.535 62.1704C174.496 62.1992 174.46 62.2216 174.429 62.2374C173.274 62.8285 172.237 63.3678 171.317 63.8552C171.302 63.8633 171.288 63.8748 171.278 63.8888C171.267 63.9028 171.26 63.919 171.257 63.9362L170.834 66.1555C170.833 66.1599 170.834 66.1644 170.835 66.1687C170.836 66.1729 170.839 66.1768 170.842 66.1799C170.845 66.183 170.849 66.1852 170.853 66.1864C170.858 66.1876 170.862 66.1878 170.866 66.1868L174.074 65.3531C174.093 65.3482 174.114 65.3507 174.132 65.36C174.15 65.3693 174.163 65.3848 174.171 65.4035C174.178 65.4222 174.178 65.4428 174.171 65.4614C174.164 65.48 174.15 65.4953 174.132 65.5043L170.639 67.3283C170.623 67.3371 170.608 67.3495 170.597 67.3646C170.586 67.3798 170.578 67.3973 170.575 67.4158L170.178 69.4947C170.177 69.4996 170.177 69.5047 170.179 69.5094C170.181 69.5141 170.183 69.5184 170.187 69.5217C170.191 69.5251 170.195 69.5274 170.2 69.5286C170.205 69.5297 170.21 69.5296 170.215 69.5282L173.582 68.5789C173.661 68.5569 173.733 68.5153 173.792 68.458L180.919 61.5138C180.922 61.5107 180.925 61.5087 180.93 61.5081C180.934 61.5074 180.938 61.5082 180.942 61.5102C180.945 61.5123 180.948 61.5155 180.95 61.5195C180.952 61.5234 180.953 61.5279 180.952 61.5322L180.012 66.4579C180.012 66.4609 180.012 66.4639 180.013 66.4668C180.014 66.4696 180.016 66.4722 180.018 66.4742C180.02 66.4762 180.023 66.4777 180.026 66.4784C180.029 66.4792 180.032 66.4791 180.035 66.4784L182.659 65.6997C182.679 65.6934 182.701 65.6947 182.72 65.7034C182.739 65.7121 182.755 65.7275 182.763 65.7468C182.772 65.7661 182.773 65.788 182.767 65.8081C182.761 65.8283 182.747 65.8455 182.729 65.8563L179.84 67.6545C179.824 67.6647 179.81 67.6781 179.8 67.6939C179.789 67.7097 179.781 67.7275 179.778 67.7463L179.261 70.4526C179.26 70.4605 179.26 70.4686 179.263 70.4762C179.265 70.4838 179.269 70.4907 179.275 70.4961C179.281 70.5015 179.288 70.5053 179.296 70.5072C179.304 70.509 179.312 70.5088 179.319 70.5066L183.131 69.404C183.155 69.397 183.18 69.3989 183.202 69.4095C183.224 69.42 183.241 69.4384 183.25 69.4611C183.26 69.4838 183.26 69.5093 183.252 69.5326C183.244 69.556 183.228 69.5755 183.207 69.5876L179.028 71.8911C179.017 71.8969 179.007 71.9051 179 71.9152C178.992 71.9253 178.987 71.937 178.985 71.9495L178.534 74.3146C178.533 74.3211 178.534 74.3277 178.536 74.334C178.538 74.3402 178.541 74.3458 178.546 74.3502C178.551 74.3546 178.557 74.3577 178.563 74.3593C178.569 74.3608 178.575 74.3606 178.582 74.3588L182.645 73.1525C182.667 73.1467 182.691 73.149 182.711 73.1592C182.732 73.1694 182.748 73.1867 182.757 73.2079C182.766 73.2291 182.766 73.2528 182.759 73.2746C182.752 73.2964 182.737 73.3148 182.717 73.3264L178.299 75.7628C178.288 75.7689 178.278 75.7774 178.27 75.7876C178.263 75.7978 178.257 75.8097 178.255 75.8222L177.764 78.3957C177.763 78.4009 177.764 78.4062 177.765 78.4112C177.767 78.4162 177.77 78.4206 177.774 78.4242C177.778 78.4277 177.782 78.4303 177.787 78.4315C177.793 78.4328 177.798 78.4327 177.803 78.4314C178.903 78.1211 180.434 77.6844 182.397 77.1214C182.42 77.1149 182.44 77.1131 182.457 77.116C182.478 77.1202 182.498 77.1309 182.512 77.1466C182.527 77.1623 182.537 77.1822 182.54 77.2037C182.544 77.2251 182.54 77.2471 182.531 77.2666C182.521 77.286 182.506 77.3021 182.487 77.3125C179.906 78.7352 178.244 79.6507 177.503 80.0589C177.487 80.0677 177.473 80.0799 177.462 80.0946C177.451 80.1094 177.444 80.1263 177.44 80.1442L176.895 83.0028C176.893 83.0113 176.894 83.0201 176.897 83.0283C176.899 83.0365 176.904 83.0439 176.911 83.0497C176.917 83.0555 176.925 83.0595 176.933 83.0613C176.942 83.0631 176.95 83.0627 176.959 83.0601C178.109 82.7202 179.52 82.3009 181.191 81.8019C181.205 81.7978 181.221 81.7968 181.236 81.7991C181.251 81.8014 181.265 81.8068 181.277 81.8151C181.29 81.8234 181.301 81.8343 181.309 81.8471C181.318 81.8599 181.323 81.8743 181.325 81.8894C181.329 81.9088 181.324 81.9294 181.309 81.951C181.296 81.9718 181.281 81.987 181.264 81.9963C179.378 82.9827 177.85 83.78 176.68 84.3884C176.666 84.3956 176.655 84.4057 176.646 84.418C176.637 84.4303 176.63 84.4446 176.627 84.4597L176.045 87.5095C176.042 87.5258 176.035 87.541 176.024 87.5534C176.013 87.5657 175.998 87.5749 175.982 87.5797L163.932 91.0636C163.908 91.0714 163.881 91.0695 163.858 91.0584C163.835 91.0473 163.817 91.0278 163.807 91.0038C163.798 90.9797 163.798 90.9529 163.807 90.9286C163.816 90.9042 163.834 90.8842 163.857 90.8725L176.425 84.3085C176.437 84.3024 176.446 84.2939 176.454 84.2834C176.462 84.2729 176.468 84.2609 176.47 84.248L176.626 83.4273C176.628 83.4195 176.627 83.4115 176.624 83.404C176.622 83.3965 176.618 83.3898 176.612 83.3846C176.606 83.3793 176.599 83.3755 176.592 83.3738C176.584 83.372 176.577 83.3722 176.569 83.3743L165.634 86.6185C165.609 86.6267 165.582 86.6251 165.558 86.6142C165.535 86.6032 165.516 86.5837 165.506 86.5595C165.496 86.5354 165.496 86.5083 165.505 86.4838C165.514 86.4593 165.532 86.4391 165.555 86.4274L177.229 79.993C177.244 79.9846 177.257 79.9728 177.267 79.9586C177.277 79.9444 177.284 79.9281 177.287 79.9109L177.507 78.7575C177.508 78.753 177.508 78.7484 177.506 78.7441C177.505 78.7397 177.502 78.7358 177.499 78.7326C177.495 78.7295 177.491 78.7273 177.487 78.7262C177.482 78.725 177.477 78.725 177.473 78.7262C171.891 80.3137 168.668 81.2299 167.803 81.4747C167.772 81.4833 167.742 81.4783 167.712 81.4596C167.697 81.4504 167.686 81.4375 167.678 81.4223C167.67 81.4071 167.667 81.3901 167.668 81.3729C167.669 81.3556 167.674 81.3389 167.683 81.3242C167.692 81.3094 167.705 81.2973 167.72 81.2889C170.49 79.7813 173.931 77.908 178.042 75.6688C178.057 75.6604 178.071 75.6484 178.082 75.6338C178.092 75.6192 178.1 75.6024 178.103 75.5846L178.268 74.7239C178.269 74.7179 178.268 74.7118 178.266 74.7061C178.264 74.7004 178.261 74.6952 178.257 74.6911C178.252 74.687 178.247 74.6841 178.241 74.6827C178.235 74.6812 178.229 74.6813 178.223 74.6828L168.777 77.4864C168.755 77.4931 168.731 77.4914 168.71 77.4816C168.689 77.4719 168.672 77.4548 168.663 77.4335C168.633 77.368 168.658 77.319 168.738 77.2866C168.739 77.2866 168.763 77.2737 168.811 77.2477C175.401 73.645 178.712 71.8357 178.744 71.8199C178.767 71.8089 178.788 71.7924 178.804 71.7717C178.82 71.7511 178.83 71.7269 178.835 71.7011L178.995 70.863C178.996 70.8561 178.996 70.8489 178.993 70.8422C178.991 70.8354 178.987 70.8294 178.982 70.8246C178.977 70.8198 178.971 70.8165 178.964 70.8149C178.957 70.8133 178.95 70.8135 178.943 70.8155L171.208 73.0521C171.184 73.0599 171.157 73.0583 171.133 73.0476C171.11 73.0369 171.091 73.0178 171.081 72.9941C171.07 72.9703 171.069 72.9435 171.077 72.9187C171.084 72.894 171.101 72.873 171.123 72.8599L179.57 67.5994C179.584 67.5902 179.597 67.5782 179.606 67.5641C179.616 67.55 179.623 67.5341 179.626 67.5173L179.746 66.8845C179.748 66.8762 179.747 66.8677 179.745 66.8597C179.742 66.8518 179.737 66.8447 179.731 66.8392C179.725 66.8336 179.717 66.8298 179.709 66.8281C179.701 66.8264 179.692 66.8268 179.684 66.8294C176.256 67.9533 174.442 68.5444 174.242 68.6027C173.895 68.7049 173.529 68.8615 173.146 69.0725C171.593 69.9292 170.532 70.5113 169.961 70.8187C169.942 70.8292 169.925 70.8439 169.912 70.8618C169.899 70.8798 169.89 70.9004 169.885 70.9224L169.461 73.1493C169.457 73.1676 169.449 73.1846 169.437 73.1987C169.425 73.2128 169.409 73.2233 169.391 73.2292C163.727 75.0781 160.866 76.0115 160.806 76.0295C160.301 76.1836 159.865 76.3647 159.499 76.5728C159.471 76.5886 158.716 76.9734 157.232 77.7272C157.22 77.7337 157.21 77.7427 157.201 77.7537C157.193 77.7647 157.187 77.7774 157.184 77.791L156.671 80.2792C156.67 80.2851 156.67 80.2913 156.672 80.297C156.674 80.3027 156.677 80.3079 156.682 80.3121C156.686 80.3163 156.691 80.3193 156.697 80.3209C156.703 80.3225 156.709 80.3226 156.715 80.3213L160.511 79.3774C160.527 79.3737 160.543 79.3753 160.558 79.3819C160.573 79.3886 160.585 79.3999 160.592 79.4141C160.628 79.4818 160.603 79.538 160.517 79.5826C159.376 80.1715 158.015 80.8732 156.433 81.6875C156.416 81.6962 156.401 81.7088 156.389 81.7243C156.378 81.7398 156.369 81.7578 156.365 81.7771L155.878 84.14C155.877 84.1467 155.877 84.1536 155.879 84.1601C155.881 84.1666 155.885 84.1725 155.89 84.1771C155.895 84.1818 155.901 84.1851 155.908 84.1867C155.914 84.1883 155.921 84.1883 155.928 84.1865C157.278 83.8078 158.509 83.4593 159.622 83.1411C159.66 83.131 159.686 83.1321 159.703 83.1443C159.717 83.155 159.727 83.169 159.734 83.185C159.741 83.2009 159.744 83.2184 159.742 83.2357C159.741 83.253 159.735 83.2696 159.725 83.284C159.715 83.2985 159.702 83.3102 159.687 83.3182C158.61 83.8596 157.271 84.531 155.671 85.3323C155.658 85.3384 155.647 85.3473 155.639 85.3583C155.63 85.3694 155.624 85.3822 155.621 85.396L155.032 88.2536C155.029 88.265 155.024 88.2755 155.016 88.284C155.009 88.2926 154.999 88.2989 154.988 88.3022C151.061 89.3764 147.253 90.4153 143.564 91.419C143.549 91.423 143.533 91.4235 143.518 91.4204C143.503 91.4172 143.489 91.4106 143.476 91.4009C143.464 91.3912 143.455 91.3788 143.448 91.3647C143.442 91.3506 143.438 91.3351 143.439 91.3196C143.44 91.2901 143.459 91.2663 143.495 91.2483C151.444 87.2611 155.428 85.2628 155.447 85.2535C155.457 85.2491 155.465 85.2424 155.472 85.234C155.479 85.2255 155.483 85.2156 155.486 85.2049L155.635 84.4889C155.636 84.4843 155.636 84.4795 155.635 84.475C155.633 84.4705 155.631 84.4663 155.628 84.4631C155.624 84.4598 155.62 84.4575 155.616 84.4563C155.611 84.4551 155.606 84.4552 155.602 84.4565L145.727 87.2395C145.708 87.245 145.687 87.2433 145.67 87.2345C145.652 87.2258 145.638 87.2107 145.631 87.1922C145.624 87.1737 145.624 87.153 145.631 87.1342C145.638 87.1154 145.651 87.0999 145.669 87.0905L156.203 81.5881C156.212 81.5834 156.22 81.5766 156.227 81.5682C156.233 81.5598 156.238 81.5499 156.24 81.5395L156.429 80.6237C156.43 80.6177 156.43 80.6116 156.428 80.6059C156.426 80.6001 156.423 80.5949 156.418 80.5908C156.414 80.5867 156.409 80.5838 156.403 80.5824C156.397 80.581 156.391 80.581 156.386 80.5827L147.243 82.8538C147.221 82.8592 147.198 82.8561 147.177 82.8453C147.157 82.8345 147.142 82.8166 147.134 82.7951C147.126 82.7735 147.126 82.7498 147.134 82.7284C147.143 82.707 147.158 82.6894 147.179 82.6789L156.976 77.6678C156.997 77.6574 157.015 77.6426 157.029 77.6245C157.043 77.6064 157.052 77.5854 157.057 77.5631L157.233 76.7056C157.235 76.6974 157.235 76.6889 157.232 76.6809C157.23 76.6729 157.225 76.6656 157.219 76.6598C157.213 76.6539 157.206 76.6497 157.198 76.6476C157.19 76.6454 157.181 76.6453 157.173 76.6473C152.968 77.7107 150.022 78.4555 148.335 78.8817C148.26 78.9004 148.219 78.8709 148.211 78.7932C148.21 78.7772 148.214 78.7612 148.221 78.7472C148.229 78.7332 148.241 78.7217 148.255 78.7143L157.786 73.8999C157.794 73.8958 157.801 73.8902 157.806 73.8832C157.811 73.8763 157.815 73.8684 157.816 73.8599L157.946 73.2271C157.947 73.2246 157.947 73.2221 157.946 73.2197C157.945 73.2173 157.944 73.2152 157.942 73.2135C157.94 73.2118 157.938 73.2105 157.936 73.2099C157.933 73.2092 157.931 73.2092 157.928 73.2098C156.944 73.5114 154.609 74.2177 150.923 75.3287C150.887 75.3395 150.857 75.3323 150.831 75.3071C150.821 75.2968 150.813 75.2843 150.809 75.2706C150.804 75.2569 150.802 75.2422 150.804 75.2277C150.806 75.2132 150.811 75.1992 150.818 75.1868C150.826 75.1744 150.836 75.1638 150.849 75.1559C154.597 72.7202 157.157 71.0571 158.527 70.1665C158.564 70.1423 158.589 70.1047 158.598 70.0617L158.692 69.6081C158.693 69.6025 158.693 69.5966 158.691 69.5911C158.689 69.5856 158.686 69.5807 158.682 69.5768C158.678 69.573 158.672 69.5704 158.667 69.5692C158.661 69.5681 158.655 69.5684 158.65 69.5703C155.901 70.4559 154.057 71.0481 153.117 71.3469C153.089 71.3555 153.059 71.3562 153.028 71.349C153.012 71.3451 152.997 71.337 152.985 71.3253C152.973 71.3137 152.965 71.2991 152.961 71.283C152.956 71.2669 152.957 71.25 152.961 71.2341C152.966 71.2181 152.975 71.2037 152.987 71.1924L159.81 64.8261C159.814 64.823 159.818 64.8211 159.823 64.8206C159.827 64.8201 159.832 64.8211 159.836 64.8233C159.84 64.8256 159.843 64.8291 159.845 64.8333C159.846 64.8374 159.847 64.8421 159.846 64.8466L158.939 69.2377C158.939 69.2418 158.939 69.2461 158.94 69.2501C158.942 69.254 158.944 69.2576 158.947 69.2604C158.95 69.2632 158.954 69.2652 158.958 69.2661C158.962 69.267 158.966 69.2669 158.97 69.2658L160.718 68.7474C160.738 68.7419 160.759 68.7437 160.777 68.7522C160.796 68.7608 160.81 68.7757 160.819 68.7941C160.827 68.8126 160.829 68.8334 160.823 68.8527C160.818 68.8721 160.805 68.8888 160.788 68.8997L158.782 70.2043C158.768 70.2135 158.756 70.2254 158.746 70.2393C158.736 70.2532 158.73 70.2688 158.726 70.2852L158.185 72.9117C158.184 72.9158 158.185 72.9201 158.186 72.9241C158.187 72.9281 158.189 72.9317 158.192 72.9346C158.195 72.9375 158.199 72.9396 158.203 72.9407C158.207 72.9418 158.211 72.9419 158.215 72.9409C158.985 72.7206 159.987 72.4167 161.221 72.0294C161.324 71.997 161.496 71.9181 161.738 71.7929C166.337 69.3982 169.231 67.8903 170.419 67.2689C170.432 67.2615 170.444 67.2512 170.453 67.2387C170.462 67.2262 170.469 67.2118 170.472 67.1966L170.613 66.4568C170.614 66.4518 170.613 66.4466 170.612 66.4418C170.61 66.4369 170.608 66.4325 170.604 66.4289C170.6 66.4254 170.596 66.4228 170.59 66.4214C170.585 66.4201 170.58 66.42 170.575 66.4212L162.192 68.6005C162.174 68.6054 162.155 68.6035 162.138 68.595C162.121 68.5866 162.108 68.5722 162.102 68.5547C162.095 68.5372 162.095 68.5179 162.102 68.5004C162.108 68.4829 162.121 68.4686 162.138 68.4601L171.097 63.7807C171.11 63.7732 171.123 63.7628 171.132 63.7503C171.141 63.7378 171.148 63.7235 171.151 63.7083L171.283 63.0722C171.284 63.0661 171.284 63.0597 171.282 63.0537C171.28 63.0477 171.277 63.0422 171.272 63.0379C171.268 63.0336 171.262 63.0305 171.256 63.0289C171.25 63.0274 171.244 63.0274 171.238 63.029L163.685 64.9049C163.674 64.9076 163.663 64.906 163.654 64.9006C163.644 64.8951 163.637 64.8862 163.634 64.8757C163.616 64.8102 163.637 64.7641 163.699 64.7375C163.736 64.7209 163.757 64.7116 163.761 64.7094C168.791 62.0498 171.463 60.6365 171.777 60.4695C171.781 60.4674 171.784 60.4645 171.787 60.461C171.79 60.4575 171.791 60.4534 171.793 60.449L171.91 59.8777C171.911 59.8696 171.911 59.8612 171.908 59.8534C171.906 59.8455 171.901 59.8385 171.895 59.8329C171.889 59.8273 171.882 59.8235 171.874 59.8217C171.866 59.8199 171.857 59.8202 171.85 59.8226C170.108 60.3684 167.861 61.0772 165.108 61.949C165.068 61.962 165.034 61.9624 165.006 61.9501C164.992 61.9448 164.981 61.9358 164.972 61.9242C164.964 61.9126 164.959 61.8988 164.958 61.8844C164.956 61.8699 164.959 61.8554 164.966 61.8424C164.972 61.8295 164.982 61.8185 164.995 61.8108C166.174 61.0822 168.636 59.5631 172.379 57.2534C172.393 57.2445 172.406 57.2326 172.416 57.2185C172.426 57.2044 172.432 57.1883 172.436 57.1713L172.514 56.7901C172.515 56.7861 172.515 56.7819 172.513 56.778C172.512 56.7742 172.51 56.7707 172.507 56.768C172.504 56.7653 172.5 56.7634 172.497 56.7625C172.493 56.7617 172.489 56.7619 172.485 56.7631L168.104 58.0623C168.09 58.0664 168.075 58.0656 168.061 58.0601C168.047 58.0545 168.035 58.0444 168.027 58.0315C168.02 58.0185 168.017 58.0033 168.018 57.9884C168.02 57.9735 168.027 57.9596 168.038 57.9489L173.458 52.5059ZM157.547 76.3773L161.06 75.4842C161.127 75.4677 161.193 75.4423 161.254 75.4086L169.718 70.7799C169.733 70.7717 169.746 70.7602 169.757 70.7463C169.767 70.7323 169.774 70.7161 169.778 70.6989L169.955 69.8338C169.957 69.8261 169.957 69.8182 169.954 69.8107C169.952 69.8032 169.948 69.7964 169.942 69.7911C169.936 69.7858 169.929 69.782 169.921 69.7802C169.914 69.7784 169.906 69.7787 169.898 69.7809L161.958 72.0413C161.792 72.0887 161.63 72.152 161.474 72.2303L158.02 73.9744C158.002 73.9831 157.987 73.9957 157.975 74.0112C157.963 74.0267 157.955 74.0448 157.951 74.064L157.485 76.319C157.483 76.3273 157.484 76.3359 157.486 76.344C157.489 76.3521 157.493 76.3595 157.5 76.3653C157.506 76.3712 157.514 76.3753 157.522 76.3774C157.53 76.3795 157.539 76.3795 157.547 76.3773Z" fill="white"/>
<path d="M69.671 84.6385H75.951C75.9688 84.6385 75.9859 84.6456 75.9985 84.6581C76.011 84.6707 76.0181 84.6877 76.0181 84.7054V92.3801C76.0182 92.3972 76.0132 92.4139 76.0038 92.4282C75.9944 92.4425 75.9809 92.4539 75.9651 92.4609C75.751 92.5522 75.4215 92.6496 74.9766 92.753C73.6998 93.0476 72.1223 93.2073 70.2442 93.232C66.2763 93.2841 62.4154 91.5696 61.6768 87.3292C61.1728 84.4399 62.0294 81.6664 64.5156 79.9508C67.5178 77.8805 72.048 78.0377 75.4763 78.8918C75.4922 78.8955 75.5062 78.9048 75.5157 78.9179C75.5253 78.9309 75.5297 78.9469 75.5282 78.9629L75.287 81.8501C75.2866 81.8561 75.2847 81.8619 75.2816 81.867C75.2785 81.8722 75.2742 81.8765 75.269 81.8797C75.2639 81.8829 75.258 81.8849 75.2519 81.8855C75.2458 81.8861 75.2397 81.8852 75.234 81.883C74.9017 81.7655 74.6252 81.6706 74.4045 81.5984C72.4157 80.9462 69.525 80.6732 67.7644 82.0371C66.1422 83.2926 65.6674 85.4522 66.1843 87.3865C66.6288 89.0479 67.852 90.1144 69.5834 90.3948C70.3491 90.5187 71.0924 90.5017 71.8134 90.3438C71.8459 90.3366 71.875 90.3188 71.8959 90.2933C71.9167 90.2678 71.928 90.2362 71.928 90.2036L71.9269 87.2877C71.9269 87.2728 71.921 87.2585 71.9105 87.2479C71.8999 87.2374 71.8856 87.2314 71.8707 87.2314H69.6569C69.6403 87.2314 69.6243 87.225 69.6126 87.2134C69.6008 87.2018 69.5942 87.1862 69.5942 87.1698V84.7139C69.5942 84.6939 69.6023 84.6747 69.6167 84.6606C69.6311 84.6465 69.6506 84.6385 69.671 84.6385Z" fill="white"/>
<path d="M87.3482 78.3038C91.9965 78.4558 94.7149 81.4007 94.5642 86.01C94.4134 90.6181 91.5092 93.3792 86.8599 93.2272C82.2117 93.0742 79.4932 90.1293 79.644 85.5211C79.7947 80.9119 82.6989 78.1518 87.3482 78.3038ZM84.0003 85.7645C84.0003 87.806 84.4833 90.6309 87.103 90.6298C89.7228 90.6298 90.2057 87.806 90.2057 85.7645C90.2057 83.7239 89.7217 80.8991 87.103 80.8991C84.4833 80.8991 84.0003 83.7239 84.0003 85.7645Z" fill="white"/>
<path d="M31.2785 78.2979H35.8959C35.9039 78.298 35.9116 78.3005 35.9182 78.3051C35.9247 78.3096 35.9297 78.316 35.9325 78.3234L41.6264 92.7273C41.6287 92.7332 41.6294 92.7396 41.6287 92.7459C41.6279 92.7521 41.6257 92.7581 41.6221 92.7633C41.6185 92.7686 41.6137 92.7729 41.6081 92.7759C41.6025 92.7789 41.5962 92.7805 41.5898 92.7806H37.2319C37.2236 92.7806 37.2155 92.778 37.2087 92.7733C37.202 92.7685 37.1969 92.7617 37.1942 92.754L36.1252 89.6097C36.1225 89.6019 36.1174 89.5952 36.1107 89.5904C36.1039 89.5856 36.0958 89.5831 36.0875 89.5831H30.7531C30.745 89.583 30.737 89.5854 30.7302 89.59C30.7235 89.5945 30.7183 89.6011 30.7155 89.6086L29.5237 92.755C29.5208 92.7626 29.5157 92.7691 29.5089 92.7737C29.5022 92.7783 29.4942 92.7807 29.486 92.7806H25.3789C25.3724 92.7806 25.366 92.7789 25.3603 92.7759C25.3546 92.7728 25.3497 92.7684 25.3461 92.763C25.3424 92.7577 25.3402 92.7515 25.3396 92.7451C25.3389 92.7387 25.3399 92.7322 25.3423 92.7262L31.2419 78.3224C31.2449 78.3152 31.2499 78.309 31.2564 78.3046C31.263 78.3003 31.2706 78.2979 31.2785 78.2979ZM33.5705 81.4197C33.5685 81.4133 33.5645 81.4076 33.559 81.4036C33.5536 81.3995 33.547 81.3973 33.5402 81.3972C33.5334 81.3971 33.5267 81.3991 33.5212 81.4029C33.5156 81.4068 33.5114 81.4123 33.5091 81.4187L31.5638 86.9387C31.5621 86.9435 31.5615 86.9486 31.5622 86.9537C31.5629 86.9587 31.5648 86.9635 31.5678 86.9677C31.5707 86.9719 31.5746 86.9753 31.5792 86.9776C31.5837 86.98 31.5888 86.9813 31.5939 86.9813H35.1875C35.1926 86.9814 35.1977 86.9803 35.2022 86.978C35.2068 86.9758 35.2108 86.9725 35.2138 86.9684C35.2169 86.9644 35.2189 86.9597 35.2198 86.9547C35.2206 86.9497 35.2202 86.9446 35.2187 86.9398L33.5705 81.4197Z" fill="white"/>
<path d="M48.1288 82.7229C48.1269 82.7191 48.1237 82.7161 48.1199 82.7143C48.116 82.7125 48.1117 82.7121 48.1076 82.713C48.1034 82.714 48.0998 82.7164 48.0971 82.7197C48.0945 82.723 48.093 82.7272 48.0929 82.7315V92.7156C48.0929 92.7328 48.0861 92.7494 48.0741 92.7616C48.062 92.7738 48.0456 92.7806 48.0285 92.7806H44.3809C44.3711 92.7806 44.3616 92.7767 44.3547 92.7697C44.3478 92.7627 44.3439 92.7532 44.3439 92.7433V78.3447C44.3439 78.3386 44.3451 78.3325 44.3473 78.3268C44.3496 78.3211 44.353 78.3159 44.3572 78.3116C44.3614 78.3072 44.3664 78.3038 44.3719 78.3014C44.3774 78.2991 44.3833 78.2979 44.3893 78.2979H49.2102C49.2246 78.2979 49.2386 78.3019 49.2507 78.3094C49.2628 78.3169 49.2726 78.3277 49.2789 78.3405L54.1135 87.9196C54.1167 87.9254 54.1217 87.93 54.1277 87.9328C54.1337 87.9355 54.1404 87.9362 54.1467 87.9347C54.1531 87.9333 54.1586 87.9297 54.1626 87.9247C54.1665 87.9196 54.1686 87.9133 54.1685 87.9068V78.3661C54.1685 78.3483 54.1755 78.3312 54.1879 78.3186C54.2004 78.306 54.2174 78.2989 54.235 78.2989H57.8446C57.8642 78.2989 57.883 78.3067 57.8969 78.3205C57.9108 78.3342 57.9186 78.353 57.9186 78.3725V92.7465C57.9186 92.7555 57.915 92.7642 57.9087 92.7706C57.9023 92.777 57.8937 92.7806 57.8848 92.7806H53.01C52.9973 92.7806 52.9848 92.7769 52.974 92.7699C52.9632 92.7629 52.9544 92.753 52.9487 92.7412L48.1288 82.7229Z" fill="white"/>
<path d="M107.48 85.5708C107.475 85.5708 107.47 85.573 107.466 85.5768C107.462 85.5806 107.46 85.5857 107.46 85.5911C107.46 85.5965 107.462 85.6016 107.466 85.6054C107.47 85.6092 107.475 85.6113 107.48 85.6113C108.546 85.8575 109.017 86.8005 109.387 87.7521C109.814 88.8497 110.455 90.5109 111.31 92.7359C111.312 92.7409 111.313 92.7462 111.312 92.7516C111.311 92.7569 111.309 92.7619 111.306 92.7663C111.303 92.7707 111.299 92.7743 111.295 92.7768C111.29 92.7793 111.285 92.7806 111.279 92.7806H106.893C106.874 92.7806 106.857 92.7749 106.842 92.7644C106.827 92.7539 106.816 92.7391 106.81 92.722C106.162 90.8764 105.712 89.5988 105.46 88.8891C105.25 88.3019 105.017 87.6413 104.509 87.2768C104.114 86.9934 103.478 87.003 102.975 87.0051C102.961 87.0054 102.949 87.0109 102.939 87.0205C102.93 87.03 102.925 87.0429 102.925 87.0563V92.7337C102.925 92.7459 102.92 92.7575 102.911 92.7661C102.902 92.7747 102.89 92.7795 102.878 92.7795H98.6723C98.6644 92.7795 98.6569 92.7764 98.6513 92.7708C98.6457 92.7652 98.6425 92.7576 98.6425 92.7497V78.4133C98.6425 78.3855 98.6535 78.3588 98.673 78.3391C98.6926 78.3193 98.7191 78.3081 98.7469 78.3078C100.455 78.2957 102.648 78.2946 105.327 78.3046C107.493 78.312 110.252 79.0729 110.507 81.6687C110.713 83.7561 109.419 85.1254 107.48 85.5708ZM102.766 80.9345L102.783 84.3571C102.783 84.361 102.784 84.3649 102.786 84.3685C102.787 84.372 102.79 84.3752 102.793 84.3779C102.795 84.3806 102.799 84.3827 102.802 84.384C102.806 84.3854 102.81 84.386 102.814 84.3859L104.238 84.3784C104.774 84.3754 105.287 84.1998 105.664 83.8903C106.041 83.5808 106.252 83.1627 106.25 82.7278L106.249 82.5254C106.246 82.0905 106.031 81.6745 105.651 81.3689C105.27 81.0634 104.755 80.8933 104.219 80.8961L102.795 80.9036C102.791 80.9037 102.787 80.9046 102.783 80.9062C102.78 80.9079 102.777 80.9102 102.774 80.913C102.771 80.9159 102.769 80.9193 102.768 80.923C102.767 80.9266 102.766 80.9305 102.766 80.9345Z" fill="white"/>
<path d="M20.7884 85.221C20.7829 85.2224 20.7781 85.2256 20.7746 85.2299C20.7711 85.2343 20.7691 85.2396 20.769 85.2451C20.7689 85.2506 20.7706 85.256 20.7739 85.2605C20.7772 85.265 20.7819 85.2683 20.7873 85.27C22.3627 85.6664 23.5909 86.3089 23.9007 87.9627C24.5478 91.4088 21.2026 92.7557 18.3254 92.7738C16.9866 92.7816 14.8111 92.7827 11.7988 92.777C11.7897 92.777 11.7811 92.7735 11.7747 92.7673C11.7683 92.7612 11.7647 92.7528 11.7647 92.744L11.7658 78.3491C11.7658 78.3366 11.7708 78.3247 11.7796 78.3159C11.7885 78.3071 11.8005 78.3022 11.813 78.3022C14.1479 78.2958 16.4377 78.2965 18.6824 78.3043C20.4369 78.3107 22.3231 78.835 23.1822 80.3481C24.3544 82.4132 23.0669 84.7052 20.7884 85.221ZM16.0228 80.8521L16.0294 84.0766C16.0294 84.0847 16.0327 84.0926 16.0387 84.0984C16.0447 84.1042 16.0528 84.1075 16.0612 84.1075L17.2554 84.1053C17.5319 84.1048 17.8055 84.0629 18.0608 83.9819C18.316 83.9009 18.5478 83.7825 18.743 83.6334C18.9381 83.4842 19.0928 83.3073 19.1982 83.1128C19.3035 82.9182 19.3575 82.7098 19.357 82.4995V82.4164C19.356 81.9917 19.1333 81.5848 18.738 81.2853C18.3426 80.9857 17.807 80.818 17.2488 80.8191L16.0547 80.8212C16.0462 80.8212 16.0381 80.8245 16.0321 80.8303C16.0261 80.8361 16.0228 80.8439 16.0228 80.8521ZM16.0184 86.667L16.0371 90.1301C16.0371 90.1372 16.04 90.144 16.0451 90.149C16.0503 90.154 16.0573 90.1568 16.0645 90.1568L17.7563 90.1482C18.0145 90.1469 18.2699 90.1039 18.508 90.0218C18.746 89.9396 18.9621 89.8198 19.1438 89.6693C19.3254 89.5188 19.4692 89.3405 19.5669 89.1446C19.6645 88.9487 19.7142 88.739 19.7129 88.5275L19.7107 88.2312C19.7082 87.8043 19.4988 87.396 19.1286 87.0961C18.7584 86.7961 18.2577 86.6291 17.7366 86.6318L16.0448 86.6403C16.0377 86.6406 16.031 86.6435 16.026 86.6485C16.0211 86.6535 16.0184 86.6601 16.0184 86.667Z" fill="white"/>
<path d="M61.7513 104.156C61.7744 104.156 61.7963 104.165 61.8125 104.181C61.8286 104.196 61.8376 104.217 61.8376 104.238V104.462C61.8376 104.485 61.8282 104.506 61.8114 104.522C61.7946 104.537 61.7718 104.546 61.748 104.546L59.3667 104.547C59.3427 104.547 59.3196 104.538 59.3026 104.522C59.2856 104.506 59.276 104.485 59.276 104.462V104.254C59.2761 104.231 59.2851 104.209 59.3012 104.193C59.3173 104.176 59.3395 104.165 59.3634 104.163C59.8913 104.106 60.1372 103.604 60.3448 103.189C61.4617 100.968 62.4365 99.0257 63.2692 97.3617C63.2777 97.345 63.291 97.3308 63.3076 97.3209C63.3243 97.311 63.3435 97.3057 63.3632 97.3057H63.9031C63.9313 97.3057 63.959 97.3135 63.9825 97.328C64.006 97.3425 64.0243 97.3631 64.0353 97.3872C64.5052 98.3996 65.4713 100.45 66.9335 103.539C67.1193 103.932 67.4005 104.139 67.7771 104.162C67.8032 104.163 67.8277 104.174 67.8456 104.192C67.8634 104.21 67.8734 104.233 67.8733 104.258V104.452C67.8733 104.477 67.8628 104.501 67.8442 104.519C67.8255 104.536 67.8002 104.546 67.7739 104.546H64.3522C64.3238 104.546 64.2966 104.535 64.2765 104.516C64.2564 104.498 64.2451 104.472 64.2451 104.445V104.248C64.2451 104.237 64.2476 104.225 64.2526 104.214C64.2575 104.203 64.2647 104.193 64.2738 104.185C64.2829 104.176 64.2936 104.17 64.3054 104.166C64.3172 104.161 64.3298 104.159 64.3424 104.16C64.9631 104.174 65.4439 104.112 65.1478 103.372C65.0407 103.106 64.8983 102.757 64.7205 102.325C64.7161 102.314 64.7081 102.305 64.6975 102.299C64.687 102.292 64.6744 102.289 64.6615 102.289H61.6311C61.613 102.289 61.5952 102.293 61.5798 102.302C61.5644 102.311 61.5519 102.323 61.5436 102.338C61.3717 102.658 61.1943 103.062 61.0114 103.552C60.7929 104.138 61.3229 104.141 61.7513 104.156ZM61.7841 101.779C61.7815 101.784 61.7805 101.79 61.781 101.796C61.7815 101.802 61.7836 101.808 61.7871 101.813C61.7906 101.818 61.7953 101.822 61.8009 101.825C61.8064 101.827 61.8127 101.829 61.819 101.829L64.4232 101.837C64.4295 101.837 64.4358 101.836 64.4414 101.833C64.4469 101.83 64.4517 101.826 64.4553 101.822C64.4589 101.817 64.4611 101.811 64.4618 101.805C64.4625 101.799 64.4616 101.794 64.4593 101.788L63.1676 98.9608C63.1647 98.9542 63.1598 98.9485 63.1535 98.9445C63.1472 98.9405 63.1397 98.9384 63.1321 98.9384C63.1244 98.9384 63.1169 98.9405 63.1106 98.9445C63.1043 98.9485 63.0994 98.9542 63.0965 98.9608L61.7841 101.779Z" fill="white"/>
<path d="M83.0601 104.903C81.4732 104.422 80.559 103.077 80.5432 101.409C80.5201 98.9838 82.4474 97.1846 84.7993 97.312C86.5458 97.4073 87.8552 98.4569 88.1652 100.228C88.5299 102.318 87.4475 104.221 85.4645 104.862C85.1338 104.969 84.7926 105.013 84.4409 104.996C83.927 104.97 83.5298 105.045 83.0601 104.903ZM82.1279 101.324C82.2151 102.689 82.9108 104.734 84.6122 104.621C86.3136 104.509 86.7455 102.39 86.6593 101.025C86.5721 99.6595 85.8764 97.6162 84.175 97.7276C82.4737 97.84 82.0418 99.9583 82.1279 101.324Z" fill="white"/>
<path d="M101.44 104.157C101.462 104.157 101.483 104.166 101.498 104.182C101.513 104.197 101.522 104.218 101.522 104.239V104.463C101.522 104.486 101.513 104.507 101.497 104.523C101.481 104.538 101.459 104.547 101.437 104.547H99.181C99.1582 104.547 99.1363 104.538 99.1202 104.522C99.1041 104.506 99.095 104.485 99.095 104.462V104.253C99.0951 104.231 99.1036 104.209 99.1189 104.193C99.1342 104.176 99.1552 104.165 99.1779 104.163C99.6779 104.106 99.9109 103.604 100.108 103.189C101.166 100.968 102.089 99.026 102.879 97.3617C102.887 97.345 102.9 97.3308 102.915 97.3209C102.931 97.311 102.95 97.3057 102.968 97.3057H103.48C103.506 97.3057 103.533 97.3135 103.555 97.328C103.577 97.3425 103.594 97.3631 103.605 97.3872C104.049 98.3998 104.964 100.451 106.349 103.54C106.525 103.933 106.792 104.14 107.149 104.163C107.173 104.164 107.197 104.175 107.214 104.193C107.23 104.211 107.24 104.234 107.24 104.259V104.453C107.24 104.478 107.23 104.502 107.212 104.52C107.195 104.537 107.171 104.547 107.146 104.547H103.904C103.877 104.547 103.851 104.536 103.832 104.517C103.813 104.499 103.803 104.473 103.803 104.446V104.249C103.803 104.237 103.805 104.226 103.81 104.215C103.814 104.204 103.821 104.194 103.83 104.186C103.838 104.177 103.849 104.171 103.86 104.167C103.871 104.162 103.883 104.16 103.895 104.161C104.483 104.175 104.938 104.113 104.658 103.373C104.556 103.106 104.421 102.757 104.253 102.326C104.249 102.315 104.241 102.306 104.231 102.299C104.221 102.293 104.209 102.289 104.197 102.289H101.326C101.309 102.289 101.292 102.294 101.278 102.303C101.263 102.312 101.251 102.324 101.243 102.339C101.08 102.659 100.912 103.063 100.739 103.553C100.532 104.138 101.034 104.142 101.44 104.157ZM101.47 101.78C101.468 101.785 101.467 101.791 101.467 101.797C101.468 101.803 101.47 101.808 101.473 101.813C101.476 101.818 101.481 101.822 101.486 101.825C101.491 101.828 101.497 101.829 101.503 101.829L103.972 101.838C103.978 101.838 103.984 101.836 103.99 101.833C103.995 101.831 103.999 101.826 104.003 101.821C104.006 101.817 104.008 101.811 104.008 101.805C104.009 101.799 104.008 101.793 104.006 101.788L102.782 98.9621C102.779 98.9555 102.774 98.9498 102.768 98.9458C102.762 98.9418 102.755 98.9397 102.748 98.9397C102.741 98.9397 102.734 98.9418 102.728 98.9458C102.722 98.9498 102.717 98.9555 102.714 98.9621L101.47 101.78Z" fill="white"/>
<path d="M130.222 104.16C130.248 104.161 130.272 104.171 130.289 104.189C130.307 104.206 130.317 104.229 130.317 104.253V104.452C130.317 104.477 130.306 104.501 130.288 104.519C130.269 104.537 130.244 104.547 130.218 104.547H126.801C126.769 104.547 126.739 104.535 126.717 104.514C126.695 104.493 126.683 104.464 126.683 104.434V104.263C126.683 104.249 126.686 104.235 126.691 104.222C126.697 104.209 126.705 104.197 126.716 104.188C126.726 104.178 126.739 104.17 126.752 104.165C126.766 104.16 126.781 104.157 126.795 104.158C127.175 104.162 127.808 104.175 127.669 103.627C127.617 103.421 127.449 102.993 127.165 102.341C127.159 102.326 127.147 102.313 127.132 102.303C127.118 102.294 127.1 102.289 127.083 102.289H124.063C124.045 102.289 124.028 102.294 124.014 102.303C123.999 102.312 123.987 102.325 123.98 102.34C123.842 102.636 123.706 102.934 123.571 103.236C123.426 103.558 123.226 104.063 123.754 104.123C123.976 104.149 124.124 104.16 124.198 104.158C124.208 104.157 124.219 104.159 124.229 104.163C124.239 104.166 124.248 104.172 124.255 104.179C124.263 104.186 124.269 104.194 124.273 104.203C124.277 104.212 124.279 104.222 124.279 104.232V104.471C124.279 104.491 124.271 104.51 124.255 104.525C124.24 104.539 124.219 104.547 124.198 104.547H121.812C121.787 104.547 121.764 104.538 121.746 104.522C121.729 104.505 121.719 104.483 121.719 104.46V104.254C121.719 104.23 121.729 104.207 121.747 104.189C121.765 104.172 121.789 104.161 121.815 104.16C122.332 104.136 122.619 103.525 122.834 103.097C123.524 101.727 124.481 99.8211 125.704 97.378C125.715 97.3563 125.732 97.338 125.754 97.3252C125.775 97.3124 125.8 97.3056 125.825 97.3057H126.355C126.38 97.3056 126.405 97.3128 126.427 97.3261C126.448 97.3395 126.465 97.3586 126.476 97.3811C128.103 100.85 129.085 102.928 129.421 103.616C129.589 103.963 129.856 104.144 130.222 104.16ZM124.224 101.78C124.221 101.785 124.22 101.791 124.221 101.797C124.221 101.803 124.223 101.808 124.227 101.813C124.23 101.818 124.235 101.822 124.24 101.825C124.246 101.828 124.252 101.829 124.258 101.829L126.868 101.839C126.874 101.839 126.881 101.837 126.886 101.834C126.891 101.832 126.896 101.827 126.9 101.822C126.903 101.818 126.905 101.812 126.905 101.806C126.906 101.8 126.905 101.794 126.902 101.789L125.609 98.959C125.606 98.9524 125.601 98.9467 125.595 98.9427C125.589 98.9387 125.581 98.9366 125.574 98.9366C125.566 98.9366 125.559 98.9387 125.553 98.9427C125.547 98.9467 125.542 98.9524 125.539 98.959L124.224 101.78Z" fill="white"/>
<path d="M160.713 104.992C160.62 104.985 160.271 104.985 159.667 104.992C159.625 104.993 159.583 104.989 159.542 104.979C158.227 104.689 157.334 103.988 156.862 102.877C156.262 101.466 156.579 99.7767 157.635 98.6438C159.076 97.0958 161.788 96.8315 163.431 98.1634C164.949 99.3927 165.102 101.817 163.94 103.361C163.244 104.283 161.936 105.086 160.713 104.992ZM160.396 97.7355C158.616 97.8543 158.148 99.949 158.244 101.338C158.34 102.726 159.092 104.74 160.873 104.62C162.654 104.501 163.122 102.406 163.025 101.018C162.93 99.6291 162.177 97.6157 160.396 97.7355Z" fill="white"/>
<path d="M12.6152 100.926C12.6152 99.8073 12.6118 98.9454 12.6048 98.3407C12.6013 97.9534 12.4116 97.7482 12.0355 97.7253C11.7386 97.7066 11.5394 97.7 11.4382 97.7055C11.4221 97.7064 11.406 97.7039 11.3908 97.6984C11.3757 97.6928 11.3619 97.6842 11.3502 97.6731C11.3385 97.6619 11.3292 97.6486 11.3229 97.6337C11.3165 97.6189 11.3132 97.603 11.3133 97.5868V97.4369C11.3135 97.4023 11.3274 97.3691 11.3517 97.3448C11.3761 97.3204 11.409 97.3067 11.4434 97.3067C11.9263 97.3088 12.5615 97.3084 13.3489 97.3057C14.1364 97.3084 14.7716 97.3088 15.2545 97.3067C15.289 97.3067 15.3221 97.3205 15.3465 97.3451C15.3709 97.3697 15.3846 97.4031 15.3846 97.4379V97.5868C15.3846 97.6029 15.3814 97.6187 15.3751 97.6335C15.3688 97.6482 15.3596 97.6616 15.348 97.6727C15.3365 97.6838 15.3228 97.6924 15.3078 97.698C15.2928 97.7037 15.2768 97.7062 15.2608 97.7055C15.1595 97.7 14.96 97.7066 14.6623 97.7253C14.2863 97.7482 14.0965 97.9534 14.0931 98.3407C14.0861 98.9454 14.0827 99.8073 14.0827 100.926C14.0827 102.045 14.0858 102.908 14.092 103.513C14.0962 103.9 14.2863 104.104 14.6623 104.127C14.9593 104.146 15.1584 104.153 15.2597 104.148C15.2758 104.147 15.2919 104.15 15.3071 104.155C15.3222 104.161 15.336 104.17 15.3477 104.181C15.3594 104.192 15.3687 104.205 15.375 104.22C15.3814 104.235 15.3846 104.251 15.3846 104.267V104.416C15.3845 104.433 15.381 104.45 15.3743 104.466C15.3677 104.482 15.358 104.496 15.3458 104.508C15.3336 104.52 15.3192 104.53 15.3033 104.536C15.2875 104.543 15.2706 104.546 15.2535 104.546C14.7713 104.544 14.1364 104.544 13.3489 104.547C12.5615 104.544 11.9263 104.544 11.4434 104.546C11.4263 104.546 11.4093 104.543 11.3935 104.536C11.3777 104.53 11.3632 104.52 11.3511 104.508C11.3389 104.496 11.3292 104.482 11.3225 104.466C11.3159 104.45 11.3124 104.433 11.3122 104.416V104.267C11.3121 104.251 11.3152 104.235 11.3215 104.22C11.3278 104.205 11.3371 104.191 11.3488 104.18C11.3605 104.169 11.3743 104.16 11.3895 104.154C11.4047 104.149 11.4209 104.146 11.4371 104.147C11.5384 104.153 11.7375 104.146 12.0345 104.127C12.4112 104.104 12.6013 103.899 12.6048 103.512C12.6118 102.907 12.6152 102.045 12.6152 100.926Z" fill="white"/>
<path d="M18.3043 98.7827C18.3022 98.7798 18.2992 98.7778 18.2958 98.7767C18.2924 98.7757 18.2888 98.7759 18.2855 98.7771C18.2821 98.7783 18.2793 98.7806 18.2774 98.7836C18.2755 98.7865 18.2745 98.7901 18.2748 98.7936C18.2733 101.133 18.2726 102.352 18.2726 102.452C18.2704 103.046 18.3094 103.627 18.3895 104.197C18.3985 104.262 18.4293 104.321 18.4767 104.366C18.5242 104.41 18.5855 104.438 18.6506 104.443L19.5105 104.514C19.5259 104.515 19.5408 104.519 19.5545 104.526C19.5682 104.533 19.5804 104.543 19.5904 104.555C19.6003 104.566 19.6079 104.58 19.6125 104.594C19.6172 104.609 19.6189 104.624 19.6176 104.639L19.6055 104.788C19.6028 104.819 19.5887 104.847 19.5661 104.868C19.5434 104.889 19.5138 104.9 19.4832 104.9H16.4141C16.3811 104.9 16.3494 104.887 16.3261 104.864C16.3027 104.841 16.2896 104.809 16.2896 104.776V104.638C16.2897 104.611 16.2996 104.585 16.3175 104.565C16.3354 104.545 16.3601 104.532 16.3868 104.529L17.3352 104.418C17.3982 104.41 17.4573 104.384 17.5045 104.342C17.5516 104.299 17.5845 104.244 17.5985 104.182C17.6422 103.993 17.6659 103.766 17.6695 103.503C17.6899 101.986 17.6903 100.259 17.6706 98.322C17.663 97.56 16.8938 97.7336 16.4207 97.7118C16.3869 97.7103 16.3549 97.6959 16.3315 97.6715C16.3081 97.6471 16.295 97.6146 16.2951 97.5808V97.4279C16.2951 97.3955 16.3078 97.3644 16.3306 97.3415C16.3533 97.3185 16.3842 97.3057 16.4163 97.3057H18.997C19.0371 97.3057 19.0767 97.3149 19.1127 97.3327C19.1487 97.3505 19.1801 97.3764 19.2046 97.4083C20.5353 99.1666 21.9258 100.887 23.376 102.57C23.3781 102.572 23.3811 102.575 23.3845 102.576C23.3879 102.577 23.3915 102.576 23.3949 102.575C23.3982 102.574 23.401 102.572 23.4029 102.569C23.4049 102.566 23.4058 102.562 23.4055 102.559C23.4164 100.854 23.4139 99.4533 23.3979 98.3558C23.3869 97.6124 22.6833 97.7259 22.1884 97.7183C22.1508 97.7177 22.115 97.7025 22.0886 97.676C22.0622 97.6494 22.0474 97.6137 22.0474 97.5764V97.4432C22.0474 97.4067 22.062 97.3717 22.0878 97.3459C22.1136 97.3202 22.1486 97.3057 22.1851 97.3057H25.2214C25.2369 97.3057 25.2522 97.3087 25.2665 97.3146C25.2808 97.3206 25.2938 97.3293 25.3048 97.3402C25.3158 97.3511 25.3245 97.3641 25.3304 97.3784C25.3363 97.3927 25.3394 97.4081 25.3394 97.4236V97.6091C25.3394 97.6358 25.3289 97.6614 25.3101 97.6806C25.2914 97.6997 25.2658 97.7109 25.2388 97.7118C24.7658 97.7227 24.0392 97.5698 24.0359 98.2456C24.0301 99.8088 24.029 102.026 24.0326 104.897C24.0326 104.924 24.0218 104.95 24.0026 104.97C23.9833 104.989 23.9572 105 23.9299 105H23.4503C23.4222 105 23.3944 104.993 23.3692 104.981C23.344 104.968 23.322 104.95 23.305 104.928C21.79 102.951 20.1231 100.903 18.3043 98.7827Z" fill="white"/>
<path d="M29.8658 97.3075C31.7961 97.3089 32.8262 97.3103 32.9562 97.3117C32.9661 97.3117 32.9759 97.3137 32.9851 97.3175C32.9942 97.3213 33.0026 97.3269 33.0096 97.3339C33.0166 97.341 33.0221 97.3494 33.0259 97.3586C33.0297 97.3678 33.0317 97.3777 33.0317 97.3876V99.2373C33.0317 99.2528 33.0263 99.2678 33.0163 99.2798C33.0064 99.2918 32.9925 99.2999 32.9772 99.3028C32.9087 99.3167 32.8262 99.3174 32.7298 99.3049C32.7142 99.303 32.6995 99.2969 32.6872 99.2874C32.6748 99.2779 32.6652 99.2653 32.6595 99.2508C32.6567 99.246 32.6036 99.1052 32.5002 98.8284C32.1605 97.9224 31.5284 97.8641 30.6678 97.862C30.6514 97.8617 30.6355 97.8681 30.6237 97.8796C30.6119 97.8911 30.6052 97.9068 30.6049 97.9234C30.5916 98.4643 30.5888 99.9963 30.5965 102.519C30.5972 102.911 30.6192 103.29 30.6625 103.654C30.7013 103.986 30.8837 104.099 31.1856 104.125C31.4169 104.145 31.6486 104.153 31.8806 104.149C31.8993 104.148 31.9176 104.154 31.9325 104.165C31.9475 104.176 31.9584 104.191 31.9635 104.209C31.997 104.319 31.996 104.413 31.9603 104.492C31.955 104.504 31.9467 104.515 31.9363 104.523C31.9259 104.531 31.9136 104.536 31.9006 104.539C31.8607 104.545 31.1804 104.548 29.8595 104.547C28.5387 104.546 27.8583 104.541 27.8185 104.534C27.8056 104.532 27.7934 104.527 27.783 104.519C27.7725 104.511 27.7642 104.501 27.7588 104.489C27.7231 104.41 27.7224 104.315 27.7567 104.206C27.7617 104.188 27.7726 104.173 27.7876 104.162C27.8025 104.151 27.8208 104.145 27.8395 104.145C28.0715 104.15 28.3032 104.142 28.5345 104.123C28.8364 104.096 29.0188 103.985 29.0586 103.653C29.102 103.289 29.1243 102.91 29.1257 102.518C29.1383 99.9953 29.1383 98.4633 29.1257 97.9223C29.1256 97.9142 29.1239 97.9061 29.1206 97.8985C29.1174 97.891 29.1127 97.8842 29.1069 97.8785C29.101 97.8728 29.0941 97.8683 29.0866 97.8653C29.079 97.8623 29.0709 97.8608 29.0628 97.861C28.2022 97.861 27.5701 97.9182 27.2294 98.8243C27.1252 99.1003 27.0718 99.2408 27.069 99.2456C27.0632 99.2601 27.0537 99.2727 27.0413 99.2822C27.029 99.2917 27.0143 99.2978 26.9987 99.2997C26.9023 99.3122 26.8198 99.3115 26.7513 99.2976C26.736 99.2947 26.7221 99.2866 26.7122 99.2746C26.7022 99.2626 26.6968 99.2476 26.6968 99.2321L26.7 97.3824C26.7 97.3725 26.7019 97.3626 26.7057 97.3534C26.7095 97.3442 26.7151 97.3358 26.7221 97.3287C26.7291 97.3217 26.7374 97.3161 26.7466 97.3123C26.7557 97.3085 26.7655 97.3065 26.7755 97.3065C26.9054 97.3051 27.9356 97.3055 29.8658 97.3075Z" fill="white"/>
<path d="M36.7821 97.7553C36.769 97.7553 36.7565 97.7603 36.7472 97.769C36.738 97.7778 36.7328 97.7897 36.7328 97.8022V100.505C36.7327 100.52 36.7384 100.534 36.7485 100.544C36.7587 100.555 36.7726 100.562 36.7875 100.563C36.9006 100.571 37.4099 100.571 38.3153 100.563C38.9424 100.557 39.2762 100.158 39.3571 99.5685C39.3598 99.549 39.3699 99.5311 39.3856 99.518C39.4013 99.505 39.4215 99.4978 39.4425 99.4977H39.6559C39.6788 99.4977 39.7008 99.5064 39.717 99.5218C39.7333 99.5373 39.7424 99.5582 39.7424 99.58V101.978C39.7424 102.001 39.7327 102.024 39.7154 102.04C39.6982 102.056 39.6748 102.066 39.6504 102.066H39.46C39.4359 102.066 39.4124 102.058 39.3934 102.044C39.3743 102.03 39.3608 102.01 39.3549 101.988C39.1941 101.367 38.9653 101.024 38.2037 101.029C37.4697 101.033 37.0042 101.033 36.8072 101.029C36.7978 101.029 36.7885 101.03 36.7797 101.033C36.771 101.037 36.763 101.041 36.7563 101.048C36.7495 101.054 36.7442 101.061 36.7405 101.07C36.7369 101.078 36.735 101.087 36.735 101.095V104.002C36.735 104.02 36.7426 104.038 36.7563 104.052C36.77 104.065 36.7887 104.073 36.8083 104.073C37.3854 104.09 37.9574 104.086 38.5243 104.062C39.3528 104.027 39.6679 103.511 39.8803 102.845C39.8891 102.817 39.9083 102.793 39.9345 102.777C39.9606 102.762 39.9918 102.756 40.0225 102.76C40.186 102.784 40.268 102.815 40.2688 102.854C40.2724 103.122 40.2724 103.663 40.2688 104.476C40.2685 104.495 40.2604 104.513 40.2463 104.526C40.2321 104.54 40.2131 104.547 40.1932 104.547H34.0406C34.013 104.547 33.9866 104.537 33.9671 104.518C33.9476 104.5 33.9367 104.474 33.9367 104.448V104.239C33.9366 104.227 33.9391 104.216 33.9438 104.205C33.9485 104.195 33.9554 104.185 33.964 104.177C33.9727 104.169 33.983 104.163 33.9942 104.159C34.0055 104.154 34.0176 104.152 34.0297 104.153C34.799 104.166 35.1788 104.131 35.1919 103.277C35.2218 101.224 35.2171 99.6369 35.1777 98.5162C35.1624 98.0894 35.0529 97.8299 34.8494 97.7376C34.8371 97.7321 34.8237 97.7289 34.81 97.7283L34.0198 97.6835C34.0014 97.6824 33.9842 97.6747 33.9716 97.662C33.9589 97.6492 33.9519 97.6323 33.952 97.6148V97.3816C33.952 97.3615 33.9603 97.3422 33.9751 97.3279C33.9898 97.3137 34.0099 97.3057 34.0308 97.3057H40.0203C40.0412 97.3057 40.0613 97.3137 40.076 97.3279C40.0908 97.3422 40.0991 97.3615 40.0991 97.3816V98.7879C40.0991 98.8053 40.0919 98.8219 40.0789 98.8342C40.066 98.8465 40.0485 98.8534 40.0302 98.8534L39.7719 98.8514C39.755 98.8511 39.7388 98.8454 39.726 98.8351C39.7132 98.8249 39.7047 98.8107 39.7019 98.7952C39.6982 98.7736 39.6504 98.6661 39.5585 98.4725C39.3323 97.9958 38.9351 97.7577 38.3667 97.7584C38.3091 97.7584 37.7809 97.7574 36.7821 97.7553Z" fill="white"/>
<path d="M46.3854 100.858C46.6887 101.307 47.037 101.803 47.4303 102.348C48.1599 103.359 48.5786 103.902 48.6864 103.979C48.843 104.089 49.0127 104.145 49.1954 104.147C49.2289 104.148 49.2609 104.16 49.2845 104.182C49.308 104.204 49.3213 104.234 49.3213 104.265V104.426C49.3213 104.442 49.3179 104.458 49.3113 104.472C49.3048 104.487 49.2952 104.5 49.2831 104.512C49.271 104.523 49.2566 104.532 49.2408 104.538C49.225 104.544 49.208 104.547 49.1909 104.547H47.0427C47.0248 104.547 47.0072 104.542 46.9919 104.533C46.9766 104.525 46.9642 104.512 46.9561 104.497C46.3352 103.35 45.6097 102.205 44.7798 101.062C44.7663 101.044 44.7482 101.029 44.727 101.018C44.7059 101.008 44.6823 101.003 44.6584 101.003H44.082C44.0712 101.003 44.0608 101.007 44.053 101.014C44.0453 101.021 44.0408 101.031 44.0405 101.041C44.036 102.038 44.0386 102.81 44.0483 103.355C44.0528 103.606 44.0944 103.81 44.173 103.965C44.2003 104.02 44.2438 104.066 44.2985 104.098C44.3533 104.13 44.4169 104.147 44.482 104.147H45.2921C45.3057 104.147 45.3191 104.15 45.3317 104.155C45.3442 104.16 45.3556 104.167 45.3652 104.176C45.3748 104.185 45.3824 104.195 45.3876 104.207C45.3928 104.219 45.3955 104.231 45.3955 104.244V104.452C45.3955 104.465 45.3929 104.477 45.3878 104.488C45.3827 104.5 45.3753 104.51 45.3659 104.519C45.3565 104.527 45.3453 104.534 45.3331 104.539C45.3208 104.544 45.3077 104.546 45.2944 104.546H41.2821C41.2541 104.546 41.2272 104.536 41.2074 104.517C41.1876 104.499 41.1765 104.474 41.1765 104.448V104.245C41.1765 104.232 41.1793 104.219 41.1847 104.207C41.1902 104.195 41.1982 104.184 41.2083 104.175C41.2183 104.166 41.2303 104.159 41.2433 104.154C41.2564 104.149 41.2703 104.147 41.2843 104.147C41.4529 104.151 41.6817 104.148 41.9708 104.139C42.2173 104.132 42.3559 104.027 42.3866 103.823C42.427 103.558 42.4585 103.281 42.4607 103.061C42.4705 101.626 42.469 100.172 42.4562 98.6969C42.4547 98.5359 42.4323 98.3194 42.3888 98.0473C42.3158 97.5883 41.7394 97.6986 41.3158 97.6976C41.2821 97.6976 41.2498 97.6852 41.226 97.6631C41.2022 97.6411 41.1888 97.6112 41.1888 97.58V97.428C41.1888 97.3957 41.2027 97.3647 41.2273 97.3419C41.252 97.319 41.2854 97.3062 41.3203 97.3062C42.5705 97.3055 43.9764 97.3055 45.5382 97.3062C46.7011 97.3062 48.1292 97.7142 48.1224 99.0602C48.1179 100.003 47.3393 100.563 46.4168 100.786C46.4089 100.788 46.4016 100.791 46.3954 100.796C46.3892 100.801 46.3844 100.808 46.3813 100.815C46.3783 100.822 46.377 100.829 46.3777 100.837C46.3784 100.844 46.381 100.851 46.3854 100.858ZM44.0315 97.8256L44.0371 100.527C44.0374 100.544 44.0449 100.561 44.0581 100.573C44.0714 100.585 44.0892 100.592 44.1079 100.592C45.3921 100.599 46.7539 100.193 46.446 98.6917C46.246 97.7194 44.9427 97.6559 44.1135 97.7392C44.0908 97.7415 44.0699 97.7517 44.0548 97.7676C44.0396 97.7836 44.0313 97.8042 44.0315 97.8256Z" fill="white"/>
<path d="M52.1404 98.782C52.1384 98.7792 52.1356 98.7771 52.1324 98.7761C52.1291 98.7751 52.1257 98.7752 52.1225 98.7764C52.1194 98.7776 52.1167 98.7799 52.1149 98.7829C52.113 98.7859 52.1122 98.7894 52.1124 98.7929C52.111 101.133 52.1103 102.352 52.1103 102.452C52.1083 103.045 52.1453 103.627 52.2214 104.197C52.23 104.261 52.2592 104.321 52.3043 104.366C52.3494 104.41 52.4077 104.437 52.4695 104.443L53.2865 104.514C53.3011 104.515 53.3153 104.519 53.3283 104.526C53.3413 104.533 53.3529 104.543 53.3624 104.554C53.3718 104.566 53.379 104.58 53.3834 104.594C53.3878 104.609 53.3895 104.624 53.3882 104.639L53.3768 104.788C53.3742 104.819 53.3608 104.847 53.3393 104.868C53.3177 104.889 53.2896 104.9 53.2605 104.9H50.3446C50.329 104.9 50.3137 104.897 50.2993 104.891C50.2849 104.885 50.2719 104.875 50.2609 104.864C50.2499 104.852 50.2412 104.839 50.2353 104.823C50.2293 104.808 50.2262 104.792 50.2262 104.776V104.638C50.2263 104.611 50.2358 104.585 50.2528 104.565C50.2698 104.545 50.2932 104.532 50.3186 104.529L51.2197 104.418C51.2795 104.41 51.3357 104.384 51.3805 104.341C51.4253 104.299 51.4565 104.243 51.4699 104.182C51.5114 103.992 51.5339 103.766 51.5373 103.503C51.5567 101.985 51.557 100.258 51.5384 98.3212C51.5311 97.5601 50.8003 97.7326 50.3508 97.7108C50.3189 97.7091 50.2888 97.6946 50.2667 97.6702C50.2447 97.6458 50.2324 97.6134 50.2325 97.5797V97.4269C50.2327 97.3948 50.2449 97.3641 50.2662 97.3415C50.2876 97.3188 50.3165 97.306 50.3467 97.3057H52.7986C52.8367 97.3057 52.8743 97.3149 52.9085 97.3327C52.9427 97.3505 52.9726 97.3764 52.9958 97.4083C54.2595 99.1664 55.5803 100.887 56.9581 102.57C56.9601 102.573 56.963 102.575 56.9662 102.576C56.9694 102.577 56.9729 102.577 56.976 102.576C56.9792 102.574 56.9819 102.572 56.9837 102.569C56.9855 102.566 56.9864 102.563 56.9861 102.559C56.9965 100.854 56.9941 99.4532 56.9789 98.3561C56.9685 97.6125 56.3 97.7261 55.8297 97.7184C55.794 97.7178 55.76 97.7026 55.7349 97.6761C55.7099 97.6495 55.6958 97.6137 55.6958 97.5765V97.4433C55.6958 97.4068 55.7096 97.3718 55.7341 97.346C55.7587 97.3202 55.7919 97.3057 55.8266 97.3057H58.7114C58.7261 97.3057 58.7407 97.3087 58.7543 97.3146C58.7679 97.3206 58.7803 97.3293 58.7907 97.3402C58.8011 97.3512 58.8094 97.3642 58.815 97.3785C58.8206 97.3928 58.8235 97.4081 58.8235 97.4236V97.6092C58.8235 97.6359 58.8136 97.6615 58.7957 97.6807C58.7779 97.6998 58.7536 97.711 58.728 97.7119C58.2785 97.7228 57.5882 97.5699 57.5851 98.2458C57.5796 99.8088 57.5785 102.026 57.582 104.897C57.582 104.924 57.5717 104.95 57.5534 104.97C57.5351 104.989 57.5103 105 57.4844 105H57.0287C57.002 105 56.9756 104.993 56.9516 104.981C56.9277 104.968 56.9068 104.95 56.8906 104.928C55.4512 102.951 53.8678 100.903 52.1404 98.782Z" fill="white"/>
<path d="M70.8077 104.547C69.3931 104.545 68.6644 104.541 68.6217 104.535C68.6077 104.533 68.5946 104.528 68.5834 104.519C68.5722 104.511 68.5634 104.501 68.5577 104.488C68.5195 104.41 68.5183 104.316 68.5543 104.205C68.5597 104.188 68.5714 104.172 68.5874 104.161C68.6035 104.15 68.623 104.145 68.643 104.145C68.8917 104.15 69.1399 104.143 69.3878 104.123C69.7113 104.097 69.9068 103.986 69.9495 103.654C69.9967 103.289 70.021 102.911 70.0225 102.519C70.036 99.9956 70.0364 98.4636 70.0236 97.9225C70.0235 97.9143 70.0216 97.9062 70.0182 97.8987C70.0147 97.8912 70.0097 97.8844 70.0034 97.8787C69.9972 97.873 69.9898 97.8685 69.9817 97.8655C69.9736 97.8625 69.9649 97.861 69.9562 97.8611C69.034 97.8611 68.3566 97.9183 67.9904 98.8236C67.8795 99.1004 67.8226 99.2412 67.8196 99.2461C67.8135 99.2605 67.8032 99.2732 67.79 99.2827C67.7768 99.2922 67.761 99.2983 67.7443 99.3002C67.641 99.3127 67.5526 99.3116 67.4792 99.2971C67.4628 99.2942 67.4479 99.286 67.4373 99.2741C67.4266 99.2621 67.4208 99.247 67.4208 99.2315L67.4242 97.3825C67.4242 97.3725 67.4263 97.3626 67.4303 97.3534C67.4344 97.3442 67.4404 97.3358 67.4479 97.3287C67.4554 97.3217 67.4643 97.3161 67.4741 97.3123C67.4839 97.3085 67.4944 97.3065 67.5051 97.3065C67.6444 97.3051 68.7482 97.3055 70.8167 97.3075C72.8845 97.3096 73.988 97.3117 74.1273 97.3138C74.1485 97.3138 74.1689 97.3216 74.1841 97.3357C74.1992 97.3497 74.2079 97.3687 74.2081 97.3887V99.2388C74.2082 99.2543 74.2024 99.2694 74.1917 99.2813C74.181 99.2933 74.1662 99.3014 74.1497 99.3044C74.0763 99.3182 73.988 99.3189 73.8846 99.3064C73.868 99.3045 73.8522 99.2985 73.839 99.289C73.8257 99.2794 73.8155 99.2668 73.8094 99.2523C73.8064 99.2475 73.7494 99.1067 73.6386 98.8299C73.2746 97.9235 72.5972 97.8653 71.675 97.8632C71.6574 97.8629 71.6404 97.8692 71.6278 97.8808C71.6151 97.8923 71.6079 97.908 71.6076 97.9246C71.5933 98.465 71.59 99.997 71.5975 102.521C71.5982 102.912 71.6218 103.29 71.6682 103.655C71.7098 103.987 71.9053 104.099 72.2288 104.125C72.4767 104.145 72.7249 104.153 72.9736 104.149C72.9936 104.149 73.0131 104.155 73.0292 104.166C73.0452 104.176 73.0569 104.192 73.0623 104.21C73.0983 104.32 73.0971 104.414 73.059 104.493C73.0531 104.505 73.0441 104.516 73.0327 104.524C73.0213 104.532 73.0079 104.537 72.9938 104.539C72.9511 104.546 72.2224 104.548 70.8077 104.547Z" fill="white"/>
<path d="M77.3785 97.3057C78.2518 97.3091 78.9564 97.3098 79.4925 97.3077C79.5115 97.3076 79.5304 97.3109 79.5481 97.3174C79.5657 97.324 79.5818 97.3336 79.5953 97.3458C79.6088 97.358 79.6196 97.3725 79.6269 97.3885C79.6342 97.4045 79.638 97.4216 79.638 97.439V97.5879C79.638 97.604 79.6344 97.62 79.6274 97.6348C79.6203 97.6497 79.61 97.663 79.597 97.6741C79.584 97.6853 79.5687 97.6939 79.5519 97.6995C79.5351 97.705 79.5173 97.7075 79.4994 97.7066C79.3869 97.7011 79.1659 97.7077 78.8363 97.7264C78.4189 97.7493 78.2075 97.9542 78.2021 98.3409C78.1952 98.9463 78.1909 99.8083 78.1894 100.927C78.1886 102.045 78.1917 102.907 78.1986 103.513C78.2025 103.9 78.4131 104.105 78.8305 104.128C79.1601 104.147 79.3812 104.154 79.4936 104.149C79.5115 104.148 79.5294 104.151 79.5461 104.156C79.5629 104.162 79.5783 104.171 79.5912 104.182C79.6042 104.193 79.6145 104.206 79.6216 104.221C79.6286 104.236 79.6323 104.252 79.6322 104.268V104.417C79.6321 104.434 79.6282 104.451 79.6208 104.467C79.6134 104.483 79.6026 104.497 79.5891 104.509C79.5756 104.521 79.5596 104.531 79.542 104.537C79.5244 104.544 79.5056 104.547 79.4867 104.547C78.9514 104.545 78.2468 104.545 77.3727 104.547C76.4986 104.544 75.7939 104.543 75.2587 104.545C75.2396 104.545 75.2207 104.542 75.2031 104.535C75.1854 104.529 75.1694 104.519 75.1558 104.507C75.1423 104.495 75.1316 104.48 75.1242 104.464C75.1169 104.448 75.1131 104.431 75.1131 104.414V104.265C75.1131 104.249 75.1167 104.233 75.1238 104.218C75.1308 104.203 75.1411 104.19 75.1541 104.179C75.1671 104.167 75.1824 104.159 75.1992 104.153C75.216 104.148 75.2339 104.145 75.2517 104.146C75.3642 104.152 75.5852 104.145 75.9148 104.126C76.3322 104.103 76.5432 103.899 76.5479 103.512C76.5556 102.906 76.5598 102.044 76.5606 100.926C76.5613 99.8073 76.5587 98.9453 76.5525 98.3398C76.5479 97.9531 76.3369 97.7479 75.9194 97.7243C75.5898 97.7056 75.3688 97.699 75.2564 97.7045C75.2384 97.7054 75.2204 97.7029 75.2036 97.6973C75.1867 97.6916 75.1713 97.6829 75.1583 97.6717C75.1453 97.6605 75.135 97.647 75.128 97.632C75.1211 97.6171 75.1176 97.601 75.1177 97.5848L75.1189 97.4358C75.1192 97.4012 75.1345 97.3681 75.1616 97.3437C75.1886 97.3193 75.2252 97.3057 75.2633 97.3057C75.7993 97.3077 76.5044 97.3077 77.3785 97.3057Z" fill="white"/>
<path d="M91.6083 98.7827C91.6062 98.7798 91.6032 98.7778 91.5998 98.7767C91.5964 98.7757 91.5928 98.7759 91.5895 98.7771C91.5861 98.7783 91.5833 98.7806 91.5814 98.7836C91.5795 98.7865 91.5786 98.7901 91.5788 98.7936C91.5766 101.133 91.5755 102.352 91.5755 102.452C91.5733 103.046 91.6123 103.627 91.6924 104.197C91.7014 104.262 91.7322 104.321 91.7796 104.366C91.8271 104.41 91.8884 104.438 91.9535 104.443L92.8133 104.514C92.8286 104.515 92.8436 104.519 92.8573 104.526C92.871 104.533 92.8832 104.543 92.8931 104.555C92.9031 104.566 92.9106 104.58 92.9153 104.594C92.92 104.609 92.9217 104.624 92.9203 104.639L92.9083 104.788C92.9056 104.819 92.8915 104.847 92.8688 104.868C92.8462 104.889 92.8166 104.9 92.786 104.9H89.7173C89.6843 104.9 89.6526 104.887 89.6292 104.864C89.6059 104.841 89.5928 104.809 89.5928 104.776V104.638C89.5928 104.611 89.6028 104.585 89.6207 104.565C89.6386 104.545 89.6632 104.532 89.69 104.529L90.6382 104.418C90.7012 104.41 90.7603 104.384 90.8075 104.342C90.8546 104.299 90.8875 104.244 90.9015 104.182C90.9452 103.993 90.9689 103.766 90.9725 103.503C90.9929 101.986 90.9936 100.259 90.9747 98.322C90.967 97.56 90.198 97.7336 89.7249 97.7118C89.6911 97.7103 89.6592 97.6959 89.6358 97.6715C89.6123 97.6471 89.5993 97.6146 89.5993 97.5808V97.4279C89.5993 97.3955 89.6121 97.3644 89.6348 97.3415C89.6576 97.3185 89.6884 97.3057 89.7206 97.3057H92.3009C92.341 97.3057 92.3806 97.3149 92.4166 97.3327C92.4526 97.3505 92.484 97.3764 92.5085 97.4083C93.8391 99.1666 95.229 100.887 96.6783 102.57C96.6804 102.572 96.6834 102.575 96.6868 102.576C96.6902 102.577 96.6938 102.576 96.6972 102.575C96.7005 102.574 96.7033 102.572 96.7052 102.569C96.7072 102.566 96.7081 102.562 96.7078 102.559C96.7195 100.854 96.7173 99.4533 96.7013 98.3558C96.6903 97.6124 95.9868 97.7259 95.4919 97.7183C95.4544 97.7177 95.4185 97.7025 95.3922 97.676C95.3658 97.6494 95.351 97.6137 95.351 97.5764V97.4432C95.351 97.4067 95.3655 97.3717 95.3913 97.3459C95.4171 97.3202 95.4522 97.3057 95.4887 97.3057H98.5245C98.5558 97.3057 98.5858 97.3181 98.608 97.3402C98.6301 97.3623 98.6425 97.3923 98.6425 97.4236V97.6091C98.6425 97.6358 98.6321 97.6614 98.6133 97.6806C98.5945 97.6997 98.569 97.7109 98.542 97.7118C98.069 97.7227 97.3425 97.5698 97.3393 98.2456C97.3334 99.8088 97.332 102.026 97.3349 104.897C97.3349 104.924 97.3241 104.95 97.3048 104.97C97.2855 104.989 97.2594 105 97.2322 105H96.7526C96.7245 105 96.6967 104.993 96.6715 104.981C96.6463 104.968 96.6243 104.95 96.6073 104.928C95.0925 102.951 93.4261 100.903 91.6083 98.7827Z" fill="white"/>
<path d="M111.08 104.096C111.821 104.116 112.338 104.099 112.631 104.046C113.544 103.882 113.821 103.309 114.101 102.565C114.107 102.549 114.117 102.535 114.13 102.524C114.143 102.513 114.159 102.505 114.176 102.501C114.332 102.467 114.431 102.493 114.472 102.577C114.477 102.588 114.48 102.599 114.48 102.611V104.424C114.48 104.44 114.476 104.456 114.47 104.471C114.463 104.486 114.454 104.5 114.442 104.511C114.43 104.522 114.415 104.532 114.4 104.538C114.384 104.544 114.367 104.547 114.35 104.547H108.242C108.217 104.547 108.193 104.538 108.175 104.521C108.157 104.504 108.147 104.48 108.147 104.456V104.242C108.147 104.23 108.15 104.218 108.155 104.207C108.16 104.196 108.167 104.186 108.176 104.177C108.185 104.169 108.196 104.162 108.208 104.158C108.22 104.154 108.233 104.152 108.246 104.152C108.297 104.155 108.493 104.149 108.834 104.133C109.461 104.104 109.448 103.482 109.453 102.955C109.462 101.541 109.462 100.078 109.451 98.5674C109.446 97.6742 109.036 97.6908 108.242 97.694C108.23 97.6941 108.217 97.6918 108.205 97.6873C108.193 97.6828 108.183 97.676 108.173 97.6675C108.164 97.659 108.157 97.6488 108.152 97.6377C108.147 97.6265 108.145 97.6145 108.145 97.6024V97.3941C108.145 97.3707 108.155 97.3482 108.172 97.3316C108.19 97.315 108.213 97.3057 108.238 97.3057H112.284C112.312 97.3057 112.338 97.3161 112.358 97.3346C112.378 97.3532 112.388 97.3783 112.388 97.4046V97.5951C112.389 97.6095 112.385 97.6238 112.379 97.6371C112.373 97.6503 112.364 97.6622 112.353 97.6721C112.342 97.682 112.329 97.6896 112.315 97.6944C112.3 97.6992 112.285 97.7012 112.27 97.7002C111.946 97.6773 111.642 97.704 111.357 97.7804C111.073 97.8553 111 98.3404 110.997 98.5674C110.972 100.568 110.974 102.386 111.004 104.023C111.004 104.042 111.012 104.061 111.026 104.074C111.04 104.088 111.06 104.096 111.08 104.096Z" fill="white"/>
<path d="M133.429 100.927C133.429 99.8078 133.426 98.9456 133.419 98.3403C133.415 97.9539 133.225 97.7492 132.849 97.7264C132.552 97.707 132.353 97.7001 132.251 97.7056C132.235 97.7063 132.219 97.7038 132.204 97.6981C132.189 97.6925 132.175 97.6839 132.163 97.6728C132.152 97.6617 132.143 97.6484 132.136 97.6337C132.13 97.619 132.127 97.6032 132.127 97.5872V97.4386C132.127 97.4039 132.14 97.3706 132.165 97.3461C132.19 97.3215 132.223 97.3077 132.257 97.3077C132.74 97.3098 133.375 97.3091 134.162 97.3057C134.949 97.3084 135.584 97.3088 136.066 97.3067C136.101 97.3067 136.134 97.3205 136.159 97.345C136.183 97.3696 136.197 97.4029 136.197 97.4376V97.5861C136.197 97.6021 136.194 97.618 136.187 97.6327C136.181 97.6474 136.172 97.6607 136.16 97.6718C136.149 97.6828 136.135 97.6914 136.12 97.6971C136.105 97.7027 136.089 97.7053 136.072 97.7046C135.971 97.6997 135.773 97.7066 135.476 97.7253C135.099 97.7489 134.909 97.9539 134.906 98.3403C134.9 98.9456 134.897 99.8074 134.897 100.926C134.897 102.045 134.9 102.907 134.907 103.511C134.911 103.898 135.101 104.103 135.477 104.126C135.774 104.145 135.973 104.152 136.075 104.146C136.091 104.145 136.107 104.148 136.122 104.154C136.137 104.159 136.151 104.168 136.163 104.179C136.174 104.19 136.184 104.204 136.19 104.219C136.196 104.233 136.199 104.249 136.199 104.266V104.414C136.199 104.449 136.185 104.482 136.161 104.507C136.136 104.531 136.103 104.545 136.068 104.545C135.586 104.543 134.951 104.544 134.164 104.547C133.377 104.544 132.742 104.544 132.26 104.546C132.225 104.546 132.192 104.532 132.167 104.508C132.143 104.483 132.129 104.45 132.129 104.415V104.267C132.129 104.25 132.132 104.235 132.138 104.22C132.144 104.205 132.153 104.191 132.165 104.18C132.177 104.169 132.191 104.16 132.206 104.155C132.221 104.149 132.237 104.146 132.253 104.147C132.354 104.153 132.553 104.146 132.85 104.127C133.226 104.104 133.416 103.899 133.42 103.512C133.426 102.907 133.429 102.045 133.429 100.927Z" fill="white"/>
<path d="M141.907 104.163C141.931 104.164 141.953 104.173 141.969 104.19C141.985 104.206 141.995 104.228 141.995 104.251V104.453C141.995 104.478 141.985 104.502 141.967 104.519C141.95 104.536 141.927 104.546 141.902 104.546L138.118 104.547C138.089 104.547 138.061 104.536 138.041 104.515C138.021 104.495 138.009 104.467 138.009 104.438V104.248C138.009 104.235 138.012 104.221 138.017 104.208C138.023 104.196 138.031 104.184 138.041 104.175C138.052 104.166 138.064 104.159 138.077 104.154C138.09 104.15 138.104 104.148 138.118 104.149C138.181 104.156 138.411 104.151 138.809 104.134C139.011 104.126 139.125 104.025 139.152 103.831C139.202 103.457 139.228 103.03 139.23 102.55C139.235 100.765 139.229 99.4121 139.212 98.49C139.21 98.3859 139.185 98.2212 139.138 97.9957C139.057 97.6044 138.541 97.7022 138.136 97.698C138.105 97.6975 138.075 97.6848 138.053 97.6628C138.032 97.6409 138.019 97.6113 138.019 97.5804V97.4316C138.019 97.3985 138.033 97.3667 138.056 97.3433C138.079 97.3199 138.111 97.3067 138.144 97.3067C139.468 97.3074 140.781 97.3071 142.083 97.3057C143.146 97.3057 144.54 97.6616 144.566 99.0135C144.585 99.9918 143.795 100.609 142.925 100.79C142.921 100.791 142.917 100.793 142.913 100.796C142.91 100.799 142.907 100.803 142.905 100.807C142.903 100.811 142.903 100.815 142.903 100.82C142.904 100.825 142.905 100.829 142.907 100.833C143.653 101.991 144.346 102.999 144.988 103.859C145.127 104.046 145.323 104.142 145.573 104.146C145.608 104.147 145.64 104.161 145.664 104.185C145.688 104.209 145.701 104.242 145.701 104.275V104.417C145.701 104.451 145.688 104.484 145.664 104.508C145.639 104.532 145.607 104.546 145.572 104.546L143.547 104.547C143.53 104.547 143.513 104.542 143.499 104.534C143.484 104.525 143.473 104.512 143.465 104.497C142.884 103.356 142.199 102.211 141.409 101.06C141.397 101.042 141.381 101.028 141.362 101.018C141.343 101.008 141.322 101.003 141.301 101.003H140.79C140.771 101.003 140.752 101.011 140.738 101.025C140.724 101.039 140.717 101.058 140.717 101.077C140.71 102.284 140.714 103.078 140.728 103.459C140.74 103.771 140.782 104.103 141.151 104.133C141.277 104.143 141.529 104.153 141.907 104.163ZM140.72 97.8167V100.538C140.72 100.556 140.727 100.572 140.739 100.585C140.751 100.597 140.768 100.604 140.785 100.605C141.983 100.613 143.254 100.207 142.97 98.694C142.786 97.7136 141.57 97.6481 140.797 97.7303C140.776 97.7326 140.756 97.7427 140.742 97.7586C140.728 97.7745 140.72 97.7952 140.72 97.8167Z" fill="white"/>
<path d="M150.589 101.387C150.576 102.259 150.582 103.004 150.609 103.623C150.615 103.754 150.656 103.877 150.732 103.992C150.758 104.032 150.799 104.06 150.847 104.072C151.206 104.164 151.494 104.146 151.963 104.149C151.999 104.15 152.034 104.163 152.06 104.188C152.086 104.212 152.1 104.244 152.1 104.279V104.419C152.1 104.453 152.086 104.486 152.06 104.51C152.034 104.534 151.999 104.547 151.963 104.547H147.645C147.61 104.547 147.576 104.534 147.551 104.51C147.525 104.487 147.511 104.455 147.511 104.421V104.269C147.511 104.254 147.515 104.239 147.521 104.224C147.527 104.21 147.537 104.197 147.548 104.187C147.56 104.176 147.574 104.168 147.589 104.162C147.605 104.156 147.621 104.153 147.638 104.154C147.761 104.155 148.04 104.147 148.472 104.131C148.717 104.122 148.856 104.011 148.89 103.798C148.949 103.438 148.98 103.083 148.985 102.731C149.01 101.221 149.006 99.8253 148.972 98.5452C148.969 98.4467 148.943 98.2732 148.894 98.0248C148.852 97.8125 148.713 97.7522 148.506 97.7334C148.174 97.7022 147.89 97.6918 147.653 97.7022C147.637 97.7031 147.62 97.7007 147.604 97.6954C147.588 97.69 147.574 97.6817 147.562 97.671C147.55 97.6603 147.54 97.6473 147.534 97.633C147.527 97.6187 147.524 97.6033 147.524 97.5877V97.4285C147.524 97.3972 147.537 97.3672 147.561 97.345C147.585 97.3228 147.617 97.3101 147.651 97.3099C150.166 97.3022 151.743 97.305 152.384 97.3182C153.555 97.3432 154.763 98.0831 154.751 99.2571C154.737 100.746 153.041 101.315 151.741 101.35C151.483 101.357 151.124 101.348 150.664 101.323C150.654 101.322 150.645 101.324 150.636 101.327C150.627 101.33 150.619 101.334 150.612 101.34C150.605 101.346 150.599 101.354 150.595 101.362C150.591 101.37 150.589 101.379 150.589 101.387ZM150.59 97.7896L150.584 100.829C150.584 100.849 150.592 100.868 150.607 100.882C150.623 100.897 150.643 100.905 150.665 100.905L151.31 100.906C151.547 100.906 151.781 100.867 152 100.791C152.218 100.715 152.417 100.604 152.585 100.463C152.753 100.322 152.886 100.155 152.977 99.9705C153.067 99.7863 153.114 99.5888 153.115 99.3892V99.2373C153.116 98.8343 152.927 98.4476 152.59 98.162C152.252 97.8765 151.794 97.7156 151.317 97.7147L150.672 97.7137C150.65 97.7137 150.629 97.7217 150.614 97.7359C150.599 97.7502 150.59 97.7695 150.59 97.7896Z" fill="white"/>
<path d="M170.866 104.163C170.89 104.163 170.912 104.173 170.928 104.19C170.945 104.206 170.954 104.228 170.954 104.251V104.453C170.954 104.478 170.944 104.501 170.927 104.519C170.909 104.536 170.886 104.546 170.861 104.546H167.078C167.049 104.546 167.021 104.534 167 104.514C166.98 104.493 166.968 104.466 166.968 104.437V104.247C166.968 104.233 166.971 104.22 166.977 104.207C166.982 104.194 166.99 104.183 167.001 104.174C167.011 104.164 167.023 104.157 167.036 104.153C167.05 104.149 167.064 104.147 167.078 104.148C167.14 104.155 167.37 104.149 167.768 104.133C167.971 104.124 168.085 104.024 168.111 103.831C168.162 103.457 168.188 103.03 168.189 102.549C168.195 100.765 168.189 99.4117 168.173 98.4893C168.171 98.3852 168.146 98.2204 168.099 97.9948C168.018 97.6034 167.503 97.7013 167.097 97.6971C167.066 97.6965 167.037 97.6839 167.015 97.6619C166.993 97.6399 166.981 97.6103 166.981 97.5795V97.4306C166.981 97.3975 166.994 97.3657 167.017 97.3422C167.041 97.3188 167.073 97.3057 167.106 97.3057C168.429 97.3064 169.742 97.3064 171.044 97.3057C172.107 97.3057 173.501 97.6617 173.527 99.014C173.546 99.9926 172.756 100.609 171.886 100.79C171.881 100.791 171.877 100.793 171.874 100.796C171.87 100.799 171.867 100.802 171.866 100.807C171.864 100.811 171.863 100.815 171.864 100.82C171.864 100.824 171.866 100.829 171.868 100.833C172.613 101.991 173.306 103 173.948 103.86C174.088 104.047 174.283 104.142 174.534 104.147C174.568 104.148 174.6 104.162 174.624 104.186C174.647 104.21 174.661 104.243 174.661 104.276V104.418C174.661 104.452 174.647 104.485 174.623 104.509C174.599 104.533 174.566 104.547 174.532 104.547H172.507C172.49 104.547 172.473 104.542 172.459 104.534C172.444 104.525 172.432 104.512 172.424 104.497C171.844 103.356 171.159 102.21 170.369 101.06C170.357 101.042 170.341 101.028 170.323 101.018C170.304 101.008 170.283 101.003 170.261 101.003H169.75C169.731 101.003 169.712 101.011 169.698 101.025C169.684 101.039 169.677 101.058 169.677 101.077C169.67 102.284 169.674 103.077 169.688 103.459C169.7 103.77 169.742 104.103 170.111 104.133C170.237 104.143 170.489 104.153 170.866 104.163ZM169.68 97.8147L169.678 100.538C169.678 100.556 169.685 100.572 169.697 100.585C169.709 100.597 169.726 100.604 169.743 100.605C170.941 100.613 172.213 100.208 171.93 98.6944C171.746 97.7127 170.531 97.6471 169.757 97.7283C169.736 97.7306 169.716 97.7407 169.702 97.7566C169.688 97.7726 169.68 97.7933 169.68 97.8147Z" fill="white"/>
<path d="M179.413 97.3067C181.53 97.3088 182.634 97.3105 182.725 97.3119C182.746 97.3122 182.767 97.3204 182.782 97.3348C182.797 97.3492 182.805 97.3687 182.805 97.3889V99.2327C182.805 99.2531 182.797 99.2727 182.782 99.2871C182.766 99.3015 182.746 99.3097 182.724 99.3097H182.487C182.468 99.3097 182.449 99.304 182.434 99.2933C182.418 99.2827 182.406 99.2676 182.4 99.2503C182.012 98.137 181.529 97.7843 180.269 97.8706C180.251 97.8722 180.234 97.8798 180.222 97.8921C180.21 97.9044 180.203 97.9205 180.203 97.9372C180.187 99.181 180.186 100.769 180.197 102.703C180.199 102.832 180.216 103.12 180.248 103.566C180.305 104.341 181.186 104.096 181.6 104.156C181.616 104.158 181.631 104.165 181.643 104.176C181.655 104.187 181.663 104.201 181.666 104.217C181.693 104.357 181.691 104.45 181.66 104.494C181.651 104.508 181.639 104.519 181.625 104.527C181.611 104.536 181.595 104.541 181.579 104.543C181.554 104.547 180.83 104.548 179.407 104.546C177.984 104.546 177.26 104.543 177.235 104.539C177.218 104.537 177.202 104.531 177.188 104.523C177.174 104.515 177.162 104.503 177.153 104.49C177.122 104.446 177.121 104.353 177.149 104.212C177.152 104.197 177.16 104.183 177.171 104.172C177.183 104.161 177.198 104.154 177.215 104.152C177.629 104.093 178.508 104.339 178.568 103.565C178.601 103.119 178.618 102.831 178.62 102.702C178.635 100.768 178.637 99.1799 178.624 97.9362C178.624 97.9195 178.617 97.9034 178.605 97.8911C178.593 97.8788 178.576 97.8711 178.558 97.8696C177.297 97.7801 176.814 98.1329 176.423 99.2451C176.417 99.2624 176.406 99.2775 176.39 99.2881C176.374 99.2988 176.356 99.3045 176.336 99.3045L176.1 99.3034C176.078 99.3034 176.057 99.2953 176.042 99.2809C176.027 99.2664 176.018 99.2468 176.018 99.2264L176.022 97.3827C176.023 97.3626 176.031 97.3434 176.046 97.3292C176.061 97.3151 176.082 97.307 176.103 97.3067C176.194 97.3053 177.297 97.3053 179.413 97.3067Z" fill="white"/>
</svg>
