<svg width="200" height="41" viewBox="0 0 200 41" fill="none" xmlns="http://www.w3.org/2000/svg">
<path d="M37.6151 0.063007C37.9388 0.35567 37.3263 1.48497 35.7777 3.4509C35.7261 3.51632 35.6918 3.59377 35.6776 3.67625C35.6635 3.75874 35.6701 3.84364 35.6968 3.92329C36.3489 5.78425 37.2771 8.02693 37.0439 8.59953C37.0301 8.63336 37.0078 8.663 36.9791 8.68553C36.9504 8.70806 36.9164 8.72269 36.8803 8.72799C36.8443 8.73329 36.8075 8.72907 36.7735 8.71575C36.7396 8.70243 36.7097 8.68046 36.6869 8.65202L34.2735 5.59338C34.2417 5.5533 34.1954 5.52735 34.1446 5.5211C34.0939 5.51486 34.0428 5.52882 34.0022 5.55998L32.1029 7.06783C32.0574 7.10325 32.0229 7.15163 32.0035 7.20736C31.9842 7.26309 31.9807 7.3239 31.9934 7.38276L32.4218 9.21031C32.4308 9.25228 32.4259 9.29629 32.4079 9.33548C32.3899 9.37468 32.3598 9.40686 32.3223 9.42701C32.2848 9.44716 32.242 9.45415 32.2006 9.44689C32.1592 9.43962 32.1215 9.41852 32.0934 9.38686C31.665 8.91446 31.2747 8.151 30.7606 7.68814C30.2465 7.22529 29.4468 6.91036 28.9375 6.5334C28.9046 6.50839 28.881 6.47344 28.8701 6.43376C28.8593 6.39407 28.8618 6.35177 28.8774 6.31315C28.8929 6.27454 28.9205 6.24167 28.9562 6.21945C28.992 6.19723 29.0338 6.18684 29.0755 6.18984L30.9319 6.42365C30.9919 6.43129 31.0524 6.42234 31.1063 6.39784C31.1603 6.37333 31.2054 6.33429 31.2366 6.28527L32.5361 4.23345C32.5628 4.18967 32.5713 4.13713 32.5597 4.08715C32.5481 4.03717 32.5174 3.99374 32.4742 3.96624L29.1898 1.87624C29.1599 1.85627 29.1357 1.82896 29.1195 1.79693C29.1032 1.76489 29.0954 1.72921 29.0969 1.69329C29.0983 1.65738 29.1089 1.62243 29.1277 1.5918C29.1464 1.56118 29.1727 1.53589 29.204 1.51837C29.7467 1.22252 32.0696 1.91919 33.9831 2.37727C34.0647 2.39453 34.1492 2.39136 34.229 2.36804C34.3087 2.34473 34.3813 2.30199 34.4401 2.24366C36.2331 0.497229 37.2914 -0.229656 37.6151 0.063007Z" fill="white"/>
<path d="M10.0067 14.8936C6.62709 17.7232 5.23239 22.1322 6.26533 26.4983C6.28236 26.5728 6.27895 26.6504 6.25546 26.7228C6.23197 26.7951 6.1893 26.8594 6.13204 26.9087L1.80039 30.559C1.76899 30.5848 1.73203 30.6029 1.69252 30.6119C1.65301 30.6208 1.61208 30.6204 1.57307 30.6106C1.53407 30.6009 1.4981 30.582 1.46811 30.5556C1.43812 30.5292 1.41497 30.4961 1.40054 30.4588C-1.4555 23.2154 0.0296424 15.2801 6.10348 10.2031C12.1726 5.12599 20.2266 5.08782 26.824 9.201C26.8584 9.22206 26.887 9.25114 26.9076 9.28583C26.9282 9.32052 26.9402 9.35981 26.9425 9.40043C26.9448 9.44104 26.9375 9.48181 26.921 9.51934C26.9045 9.55686 26.8794 9.59005 26.8478 9.61614L22.4924 13.2331C22.433 13.2818 22.3611 13.313 22.2846 13.3231C22.2081 13.3332 22.1301 13.3219 22.0592 13.2903C17.9656 11.4866 13.3864 12.0688 10.0067 14.8936Z" fill="white"/>
<path d="M39.286 6.24214C48.8251 6.23578 53.9581 6.24532 54.6848 6.27077C61.5155 6.49981 67.4703 10.4078 67.9606 17.6369C68.3224 22.9478 66.0613 27.2661 61.1918 29.4277C61.1643 29.4402 61.1399 29.4585 61.1202 29.4813C61.1005 29.504 61.086 29.5307 61.0779 29.5595C61.0697 29.5882 61.0679 29.6182 61.0728 29.6474C61.0777 29.6766 61.0891 29.7042 61.1061 29.7283L68.7222 40.6125C68.7414 40.6387 68.7527 40.6697 68.755 40.7021C68.7573 40.7345 68.7504 40.767 68.7352 40.7961C68.72 40.8251 68.6969 40.8497 68.6686 40.867C68.6403 40.8842 68.6078 40.8936 68.5746 40.894H61.6297C61.5368 40.894 61.4456 40.8718 61.3636 40.8295C61.2815 40.7871 61.2112 40.7258 61.1585 40.6507L54.5467 31.2028C54.5011 31.1379 54.441 31.085 54.3714 31.0484C54.3018 31.0119 54.2248 30.9928 54.1469 30.9928H46.2214C46.1839 30.9928 46.1467 31.0002 46.1121 31.0146C46.0774 31.029 46.0459 31.0501 46.0194 31.0767C45.9929 31.1033 45.9719 31.1348 45.9575 31.1696C45.9432 31.2043 45.9358 31.2415 45.9358 31.2791V40.5839C45.9358 40.6252 45.9277 40.6662 45.9119 40.7044C45.8961 40.7426 45.8729 40.7773 45.8438 40.8066C45.8146 40.8358 45.78 40.859 45.7418 40.8748C45.7037 40.8907 45.6629 40.8988 45.6216 40.8988H39.1622C39.113 40.8988 39.0658 40.8787 39.0309 40.8429C38.9961 40.8071 38.9766 40.7586 38.9766 40.708V6.55707C38.9766 6.47355 39.0092 6.39344 39.0672 6.33438C39.1252 6.27532 39.2039 6.24214 39.286 6.24214ZM45.9072 12.5312L45.9739 24.8803C45.9739 24.9373 45.9964 24.9919 46.0366 25.0321C46.0768 25.0724 46.1313 25.095 46.1881 25.095L54.3801 25.0521C55.2516 25.0478 56.1137 24.8917 56.9174 24.5927C57.7211 24.2937 58.4505 23.8577 59.064 23.3096C59.6775 22.7615 60.1631 22.112 60.4931 21.3982C60.8231 20.6844 60.9909 19.9203 60.9871 19.1495L60.9776 18.1093C60.9699 16.5528 60.2635 15.0635 59.0137 13.9691C57.764 12.8747 56.0733 12.2648 54.3135 12.2735L46.1214 12.3165C46.0646 12.3165 46.0101 12.3391 45.97 12.3794C45.9298 12.4196 45.9072 12.4743 45.9072 12.5312Z" fill="white"/>
<path d="M96.521 12.2069H80.4891C80.4678 12.2069 80.4468 12.2111 80.4272 12.2192C80.4075 12.2274 80.3897 12.2393 80.3747 12.2544C80.3596 12.2695 80.3477 12.2874 80.3396 12.307C80.3314 12.3267 80.3272 12.3478 80.3272 12.3691V21.7073C80.3272 21.7286 80.3314 21.7497 80.3396 21.7694C80.3477 21.7891 80.3596 21.807 80.3747 21.822C80.3897 21.8371 80.4075 21.849 80.4272 21.8572C80.4468 21.8653 80.4678 21.8695 80.4891 21.8695H93.2175C93.2433 21.8701 93.2687 21.877 93.2914 21.8894C93.314 21.9019 93.3334 21.9196 93.3479 21.9411C93.3623 21.9626 93.3714 21.9872 93.3744 22.013C93.3774 22.0387 93.3742 22.0648 93.3651 22.089L91.204 27.7864C91.1926 27.8167 91.1725 27.8428 91.1462 27.8615C91.1199 27.8802 91.0887 27.8906 91.0564 27.8914H80.4891C80.4678 27.8914 80.4468 27.8956 80.4272 27.9037C80.4075 27.9119 80.3897 27.9238 80.3747 27.9389C80.3596 27.954 80.3477 27.9719 80.3396 27.9915C80.3314 28.0112 80.3272 28.0323 80.3272 28.0536V40.732C80.3272 40.775 80.3102 40.8163 80.2798 40.8467C80.2495 40.8771 80.2083 40.8942 80.1654 40.8942H73.4728C73.4298 40.8942 73.3887 40.8771 73.3583 40.8467C73.328 40.8163 73.3109 40.775 73.3109 40.732V6.40931C73.3109 6.36628 73.328 6.32501 73.3583 6.29459C73.3887 6.26416 73.4298 6.24707 73.4728 6.24707H98.6583C98.6841 6.24769 98.7094 6.2545 98.7321 6.26695C98.7548 6.27939 98.7742 6.2971 98.7886 6.3186C98.8031 6.34009 98.8122 6.36474 98.8152 6.39049C98.8181 6.41623 98.8149 6.44232 98.8058 6.46657L96.6685 12.1019C96.6572 12.1322 96.6371 12.1583 96.6108 12.177C96.5845 12.1957 96.5532 12.2061 96.521 12.2069Z" fill="white"/>
<path d="M119.44 10.9301C119.447 11.442 119.346 11.9502 119.145 12.4257C118.944 12.9012 118.646 13.3346 118.268 13.7013C117.89 14.068 117.44 14.3607 116.943 14.5627C116.446 14.7647 115.911 14.8721 115.371 14.8787C114.83 14.8853 114.293 14.7911 113.792 14.6013C113.29 14.4115 112.832 14.1299 112.446 13.7726C112.059 13.4153 111.75 12.9893 111.538 12.5189C111.325 12.0485 111.212 11.5429 111.206 11.031C111.2 10.519 111.3 10.0108 111.501 9.53535C111.702 9.05987 112 8.62642 112.378 8.25976C112.756 7.89309 113.207 7.6004 113.704 7.39838C114.201 7.19636 114.735 7.08898 115.276 7.08236C115.816 7.07573 116.353 7.17 116.855 7.35979C117.357 7.54957 117.814 7.83115 118.201 8.18844C118.588 8.54574 118.896 8.97175 119.109 9.44217C119.322 9.91258 119.434 10.4182 119.44 10.9301ZM117.703 10.9853C117.703 10.3525 117.453 9.74569 117.006 9.29826C116.56 8.85083 115.954 8.59946 115.323 8.59946C114.692 8.59946 114.087 8.85083 113.64 9.29826C113.194 9.74569 112.943 10.3525 112.943 10.9853C112.943 11.2986 113.005 11.6089 113.124 11.8983C113.244 12.1878 113.419 12.4508 113.64 12.6723C113.861 12.8939 114.124 13.0696 114.412 13.1895C114.701 13.3094 115.011 13.3711 115.323 13.3711C115.636 13.3711 115.945 13.3094 116.234 13.1895C116.523 13.0696 116.785 12.8939 117.006 12.6723C117.227 12.4508 117.403 12.1878 117.522 11.8983C117.642 11.6089 117.703 11.2986 117.703 10.9853Z" fill="white"/>
<path d="M135.692 10.9375C135.702 9.90486 136.146 8.91909 136.925 8.19701C137.704 7.47494 138.754 7.07571 139.845 7.08715C140.385 7.09282 140.918 7.19914 141.415 7.40005C141.912 7.60095 142.363 7.89251 142.741 8.25806C143.119 8.62362 143.417 9.05601 143.619 9.53057C143.821 10.0051 143.922 10.5125 143.917 11.0238C143.906 12.0564 143.462 13.0422 142.683 13.7643C141.904 14.4864 140.854 14.8856 139.763 14.8741C139.223 14.8685 138.69 14.7622 138.193 14.5613C137.696 14.3603 137.245 14.0688 136.867 13.7032C136.489 13.3377 136.191 12.9053 135.989 12.4307C135.787 11.9562 135.686 11.4488 135.692 10.9375ZM142.179 10.9902C142.179 10.3574 141.929 9.75058 141.482 9.30315C141.036 8.85572 140.431 8.60435 139.799 8.60435C139.168 8.60435 138.563 8.85572 138.116 9.30315C137.67 9.75058 137.419 10.3574 137.419 10.9902C137.419 11.623 137.67 12.2298 138.116 12.6772C138.563 13.1247 139.168 13.376 139.799 13.376C140.431 13.376 141.036 13.1247 141.482 12.6772C141.929 12.2298 142.179 11.623 142.179 10.9902Z" fill="white"/>
<path d="M105.322 11.4913C104.913 10.9791 104.659 10.6626 104.561 10.5417C104.537 10.5136 104.505 10.4933 104.47 10.4838C104.434 10.4742 104.396 10.4757 104.362 10.4882C104.327 10.5006 104.297 10.5234 104.276 10.5534C104.254 10.5835 104.242 10.6193 104.242 10.6563V14.4688C104.242 14.5372 104.215 14.6027 104.167 14.651C104.118 14.6994 104.053 14.7265 103.985 14.7265H102.795C102.728 14.7265 102.664 14.6999 102.616 14.6524C102.569 14.605 102.542 14.5407 102.542 14.4736V7.50696C102.542 7.43609 102.57 7.36812 102.619 7.31801C102.668 7.2679 102.735 7.23975 102.804 7.23975H103.694C103.77 7.24127 103.844 7.25817 103.912 7.28937C103.98 7.32058 104.04 7.36541 104.09 7.42107C104.788 8.22271 105.625 9.24067 106.603 10.4749C107.009 10.9903 107.261 11.3084 107.36 11.4293C107.383 11.4575 107.415 11.4777 107.451 11.4873C107.486 11.4968 107.524 11.4953 107.559 11.4828C107.593 11.4704 107.623 11.4476 107.645 11.4176C107.666 11.3875 107.678 11.3517 107.679 11.3148V7.50219C107.679 7.46835 107.685 7.43484 107.698 7.40358C107.711 7.37232 107.73 7.34392 107.754 7.31999C107.778 7.29606 107.806 7.27708 107.837 7.26413C107.868 7.25118 107.902 7.24452 107.936 7.24452H109.126C109.159 7.24452 109.192 7.25106 109.222 7.26377C109.253 7.27648 109.281 7.29511 109.304 7.31859C109.327 7.34207 109.346 7.36995 109.359 7.40064C109.371 7.43132 109.378 7.46421 109.378 7.49742V14.4641C109.378 14.5349 109.35 14.6029 109.301 14.653C109.252 14.7031 109.186 14.7313 109.116 14.7313H108.226C108.151 14.7297 108.077 14.7129 108.009 14.6817C107.941 14.6504 107.88 14.6056 107.831 14.55C107.133 13.7483 106.297 12.7288 105.322 11.4913Z" fill="white"/>
<path d="M127.671 14.4687C127.687 14.493 127.697 14.5213 127.698 14.5507C127.7 14.58 127.693 14.6092 127.68 14.6351C127.666 14.6611 127.645 14.6828 127.62 14.698C127.595 14.7133 127.567 14.7214 127.537 14.7216H126.338C126.235 14.7218 126.133 14.6973 126.042 14.6499C125.951 14.6025 125.873 14.5338 125.814 14.4496L124.672 12.8081C124.634 12.7534 124.583 12.7087 124.523 12.678C124.464 12.6472 124.397 12.6313 124.329 12.6316H123.23C123.165 12.6316 123.103 12.6572 123.058 12.7028C123.012 12.7485 122.987 12.8104 122.987 12.8749L122.982 14.4973C122.982 14.5261 122.976 14.5547 122.965 14.5813C122.954 14.6079 122.937 14.6321 122.917 14.6525C122.896 14.6729 122.871 14.6891 122.844 14.7001C122.817 14.7111 122.788 14.7168 122.758 14.7168L121.516 14.712C121.449 14.712 121.385 14.6854 121.338 14.6379C121.29 14.5905 121.264 14.5262 121.264 14.4591L121.273 7.54019C121.274 7.46211 121.306 7.38757 121.362 7.33235C121.418 7.27713 121.494 7.24557 121.573 7.24434C123.534 7.22048 126.69 6.86738 127.447 8.75219C128.028 10.2091 127.69 11.3639 126.433 12.2164C126.404 12.2365 126.379 12.2622 126.359 12.2922C126.34 12.3221 126.327 12.3557 126.32 12.3908C126.314 12.426 126.315 12.462 126.323 12.4968C126.331 12.5316 126.346 12.5644 126.366 12.5934L127.671 14.4687ZM122.996 8.85717L122.987 11.0426C122.987 11.0983 123.009 11.1517 123.048 11.1911C123.087 11.2304 123.141 11.2526 123.196 11.2526L124.629 11.2573C124.803 11.258 124.976 11.2288 125.138 11.1714C125.299 11.114 125.446 11.0295 125.57 10.9227C125.693 10.8159 125.792 10.6889 125.859 10.549C125.926 10.4091 125.961 10.259 125.962 10.1073V9.8115C125.963 9.50534 125.824 9.2112 125.576 8.99376C125.328 8.77632 124.991 8.65339 124.639 8.65199L123.206 8.64721C123.15 8.64721 123.097 8.66934 123.058 8.70871C123.018 8.74808 122.996 8.80149 122.996 8.85717Z" fill="white"/>
<path d="M134.411 8.63303H131.569C131.519 8.63303 131.47 8.65314 131.435 8.68894C131.399 8.72473 131.379 8.77328 131.379 8.8239V10.4081C131.379 10.4587 131.399 10.5073 131.435 10.5431C131.47 10.5789 131.519 10.599 131.569 10.599H133.269C133.319 10.599 133.368 10.6191 133.403 10.6549C133.439 10.6907 133.459 10.7392 133.459 10.7898V11.7823C133.459 11.833 133.439 11.8815 133.403 11.9173C133.368 11.9531 133.319 11.9732 133.269 11.9732H131.569C131.519 11.9732 131.47 11.9933 131.435 12.0291C131.399 12.0649 131.379 12.1135 131.379 12.1641V14.526C131.379 14.5767 131.359 14.6252 131.323 14.661C131.287 14.6968 131.239 14.7169 131.189 14.7169H129.846C129.796 14.7169 129.747 14.6968 129.712 14.661C129.676 14.6252 129.656 14.5767 129.656 14.526V7.44966C129.656 7.39903 129.676 7.35049 129.712 7.31469C129.747 7.2789 129.796 7.25879 129.846 7.25879H134.982C135.015 7.25932 135.048 7.26852 135.076 7.28549C135.105 7.30246 135.129 7.3266 135.145 7.35553C135.161 7.38446 135.17 7.41717 135.17 7.45041C135.17 7.48366 135.161 7.5163 135.144 7.54509L134.578 8.5376C134.561 8.56687 134.537 8.59112 134.507 8.60789C134.478 8.62466 134.445 8.63333 134.411 8.63303Z" fill="white"/>
<path d="M147.635 13.2901H151C151.05 13.2901 151.099 13.3102 151.135 13.346C151.17 13.3818 151.19 13.4303 151.19 13.4809V14.5212C151.19 14.5718 151.17 14.6203 151.135 14.6561C151.099 14.6919 151.05 14.712 151 14.712H145.916C145.866 14.712 145.817 14.6919 145.782 14.6561C145.746 14.6203 145.726 14.5718 145.726 14.5212V7.44477C145.726 7.41971 145.731 7.39489 145.74 7.37173C145.75 7.34857 145.764 7.32753 145.782 7.30981C145.799 7.29209 145.82 7.27803 145.843 7.26844C145.866 7.25884 145.891 7.25391 145.916 7.25391H147.254C147.304 7.25391 147.353 7.27402 147.388 7.30981C147.424 7.3456 147.444 7.39415 147.444 7.44477V13.0992C147.444 13.1498 147.464 13.1984 147.5 13.2342C147.536 13.27 147.584 13.2901 147.635 13.2901Z" fill="white"/>
<path d="M159.401 7.52123L156.631 10.2983C156.572 10.3556 156.536 10.4331 156.531 10.5159C156.526 10.5987 156.551 10.681 156.602 10.7469L159.687 14.6501C159.692 14.6566 159.695 14.6642 159.696 14.6722C159.697 14.6801 159.696 14.688 159.693 14.695C159.69 14.7019 159.685 14.7077 159.679 14.7116C159.673 14.7154 159.666 14.7173 159.658 14.7169H157.797C157.764 14.7171 157.732 14.7094 157.701 14.6946C157.671 14.6797 157.643 14.658 157.621 14.631L155.555 12.0114C155.51 11.9556 155.445 11.9188 155.373 11.9083C155.302 11.8977 155.23 11.914 155.17 11.9541C154.256 12.5744 154.327 13.2759 154.36 14.3686C154.362 14.4142 154.355 14.4598 154.339 14.5026C154.322 14.5453 154.297 14.5844 154.265 14.6174C154.233 14.6504 154.195 14.6766 154.152 14.6945C154.11 14.7125 154.064 14.7217 154.018 14.7217H152.932C152.85 14.7217 152.772 14.689 152.714 14.6308C152.656 14.5727 152.623 14.4938 152.623 14.4115V7.47829C152.623 7.42007 152.646 7.36424 152.687 7.32308C152.728 7.28191 152.784 7.25879 152.842 7.25879H154.156C154.206 7.25879 154.255 7.2789 154.29 7.31469C154.326 7.35049 154.346 7.39903 154.346 7.44966V10.4415C154.345 10.455 154.349 10.4683 154.356 10.4796C154.363 10.4909 154.374 10.4997 154.387 10.5048C154.4 10.51 154.414 10.5112 154.428 10.5084C154.442 10.5057 154.455 10.499 154.465 10.4892L157.554 7.3924C157.636 7.31004 157.748 7.2637 157.864 7.26356H159.297C159.326 7.26278 159.355 7.271 159.379 7.28717C159.404 7.30335 159.423 7.32675 159.434 7.35439C159.445 7.38203 159.448 7.41266 159.442 7.44237C159.437 7.47209 159.422 7.49954 159.401 7.52123Z" fill="white"/>
<path d="M29.6135 8.97164C29.6421 8.99391 29.6452 9.01936 29.623 9.04799C22.2989 19.517 15.4269 29.3292 9.00718 38.4845C8.96896 38.5397 8.91099 38.5782 8.84482 38.5924C8.77865 38.6066 8.70914 38.5953 8.65017 38.5608C7.82827 38.0773 7.02699 37.5063 6.24634 36.8478C5.46569 36.1925 4.76596 35.499 4.14715 34.7673C4.10408 34.7151 4.08167 34.649 4.08432 34.582C4.08696 34.5149 4.11446 34.4517 4.16143 34.4047C12.0536 26.4869 20.5123 18.0108 29.5373 8.97641C29.5627 8.95096 29.5881 8.94937 29.6135 8.97164Z" fill="white"/>
<path d="M32.5124 32.3959C28.5853 39.2815 21.0502 42.1397 13.4341 40.5889C13.394 40.5818 13.3564 40.5651 13.3243 40.54C13.2922 40.5148 13.2667 40.4822 13.2499 40.4447C13.2331 40.4072 13.2254 40.366 13.2277 40.3247C13.2299 40.2833 13.2419 40.243 13.2627 40.2072L16.0902 35.2923C16.1288 35.2259 16.1853 35.1716 16.2534 35.1354C16.3214 35.0992 16.3984 35.0825 16.4757 35.0871C20.9454 35.34 25.0343 33.1976 27.2192 29.3611C29.4041 25.5295 29.1756 20.9105 26.6861 17.1791C26.6432 17.114 26.6192 17.0384 26.6166 16.9609C26.6141 16.8833 26.6332 16.8069 26.6718 16.7401L29.4612 11.8061C29.4815 11.771 29.5097 11.7409 29.5435 11.7186C29.5773 11.6962 29.6158 11.6821 29.6557 11.6775C29.6956 11.6728 29.7359 11.6777 29.7733 11.6918C29.8106 11.7059 29.8439 11.7287 29.8706 11.7584C35.0685 17.5512 36.4394 25.5152 32.5124 32.3959Z" fill="white"/>
<path d="M174.795 23.613C174.803 24.1249 174.704 24.6334 174.505 25.1096C174.305 25.5858 174.009 26.0203 173.632 26.3883C173.256 26.7562 172.806 27.0505 172.31 27.2543C171.813 27.458 171.28 27.5673 170.739 27.5758C169.647 27.593 168.594 27.1988 167.81 26.4799C167.026 25.7611 166.577 24.7765 166.561 23.7427C166.553 23.2308 166.652 22.7222 166.851 22.246C167.05 21.7698 167.347 21.3354 167.724 20.9674C168.1 20.5994 168.55 20.3051 169.046 20.1014C169.542 19.8976 170.076 19.7884 170.617 19.7798C171.709 19.7626 172.762 20.1568 173.546 20.8757C174.329 21.5945 174.779 22.5792 174.795 23.613ZM173.063 23.6778C173.063 23.0451 172.812 22.4382 172.366 21.9908C171.919 21.5433 171.314 21.292 170.683 21.292C170.051 21.292 169.446 21.5433 169 21.9908C168.553 22.4382 168.303 23.0451 168.303 23.6778C168.303 24.3106 168.553 24.9174 169 25.3649C169.446 25.8123 170.051 26.0637 170.683 26.0637C171.314 26.0637 171.919 25.8123 172.366 25.3649C172.812 24.9174 173.063 24.3106 173.063 23.6778Z" fill="white"/>
<path d="M104.089 19.9038H102.681C102.594 19.9038 102.523 19.9743 102.523 20.0613V27.257C102.523 27.3439 102.594 27.4144 102.681 27.4144H104.089C104.176 27.4144 104.247 27.3439 104.247 27.257V20.0613C104.247 19.9743 104.176 19.9038 104.089 19.9038Z" fill="white"/>
<path d="M110.62 23.1533C111.03 23.6687 111.285 23.9868 111.387 24.1077C111.41 24.1358 111.442 24.1561 111.478 24.1656C111.513 24.1752 111.551 24.1737 111.586 24.1612C111.62 24.1488 111.65 24.126 111.672 24.096C111.693 24.0659 111.705 24.03 111.706 23.9931L111.701 20.1663C111.701 20.0979 111.728 20.0324 111.776 19.9841C111.824 19.9357 111.89 19.9086 111.958 19.9086L113.153 19.9038C113.22 19.9038 113.284 19.9305 113.331 19.9779C113.378 20.0253 113.405 20.0896 113.405 20.1567L113.414 27.152C113.414 27.1871 113.408 27.2218 113.395 27.2542C113.381 27.2867 113.362 27.3161 113.338 27.3409C113.313 27.3657 113.285 27.3854 113.253 27.3989C113.221 27.4123 113.187 27.4192 113.153 27.4192H112.262C112.186 27.4183 112.112 27.4017 112.043 27.3705C111.974 27.3393 111.913 27.2941 111.863 27.2379C111.161 26.4362 110.319 25.4167 109.335 24.1792C108.926 23.6639 108.672 23.3442 108.573 23.2201C108.55 23.1919 108.518 23.1717 108.482 23.1621C108.447 23.1526 108.409 23.1541 108.374 23.1666C108.34 23.179 108.31 23.2018 108.288 23.2318C108.267 23.2619 108.255 23.2977 108.255 23.3346L108.259 27.1615C108.259 27.1954 108.253 27.2289 108.24 27.2601C108.227 27.2914 108.208 27.3198 108.184 27.3437C108.16 27.3677 108.132 27.3866 108.101 27.3996C108.069 27.4125 108.036 27.4192 108.002 27.4192L106.807 27.424C106.741 27.424 106.676 27.3973 106.629 27.3499C106.582 27.3025 106.555 27.2381 106.555 27.1711L106.546 20.1758C106.546 20.1407 106.552 20.106 106.566 20.0735C106.579 20.0411 106.598 20.0117 106.622 19.9868C106.647 19.962 106.676 19.9423 106.707 19.9289C106.739 19.9155 106.773 19.9086 106.807 19.9086H107.698C107.774 19.9095 107.849 19.926 107.917 19.9573C107.986 19.9885 108.048 20.0337 108.097 20.0899C108.799 20.8915 109.64 21.9127 110.62 23.1533Z" fill="white"/>
<path d="M118.041 27.4286C117.752 27.4286 117.568 27.4254 117.489 27.4191C117.405 27.4154 117.326 27.3798 117.268 27.3195C117.209 27.2591 117.176 27.1787 117.175 27.0946L117.17 21.6263C117.17 21.588 117.162 21.5502 117.148 21.5149C117.133 21.4796 117.111 21.4475 117.084 21.4204C117.056 21.3934 117.024 21.372 116.988 21.3574C116.952 21.3427 116.914 21.3352 116.875 21.3352L115.047 21.34C114.979 21.34 114.914 21.3128 114.865 21.2645C114.817 21.2162 114.79 21.1506 114.79 21.0823V20.1614C114.79 20.0918 114.818 20.025 114.867 19.9758C114.916 19.9266 114.982 19.8989 115.052 19.8989C116.007 19.9085 117.005 19.9101 118.046 19.9037C119.087 19.9101 120.086 19.9085 121.045 19.8989C121.113 19.8989 121.179 19.9259 121.228 19.9741C121.277 20.0223 121.305 20.0878 121.307 20.1566V21.0775C121.307 21.1459 121.279 21.2114 121.231 21.2597C121.183 21.3081 121.118 21.3352 121.05 21.3352H119.222C119.143 21.3352 119.068 21.3659 119.013 21.4205C118.958 21.475 118.927 21.5491 118.927 21.6263V27.0898C118.927 27.174 118.895 27.2549 118.837 27.3162C118.78 27.3774 118.701 27.4142 118.617 27.4191C118.538 27.4223 118.346 27.4254 118.041 27.4286Z" fill="white"/>
<path d="M127.875 23.6444C127.875 23.8194 127.872 23.945 127.866 24.0214C127.858 24.1092 127.816 24.1907 127.75 24.2499C127.684 24.309 127.598 24.3416 127.509 24.3411H124.643C124.615 24.3411 124.587 24.3466 124.561 24.3574C124.535 24.3682 124.512 24.384 124.492 24.404C124.472 24.4239 124.456 24.4476 124.445 24.4736C124.435 24.4997 124.429 24.5276 124.429 24.5558V25.7821C124.429 25.8429 124.453 25.9011 124.496 25.9441C124.539 25.987 124.597 26.0112 124.658 26.0112H128.247C128.302 26.0112 128.355 26.0333 128.395 26.0726C128.434 26.112 128.456 26.1654 128.456 26.2211V27.1945C128.456 27.2527 128.434 27.3086 128.393 27.3497C128.353 27.3909 128.299 27.414 128.242 27.414H122.901C122.877 27.414 122.854 27.4095 122.832 27.4006C122.81 27.3917 122.79 27.3787 122.773 27.3623C122.756 27.3459 122.743 27.3265 122.734 27.3051C122.725 27.2836 122.72 27.2607 122.72 27.2375C122.72 27.0689 122.712 25.8823 122.696 23.6778C122.681 21.4733 122.673 20.2867 122.673 20.1181C122.673 20.0721 122.691 20.0279 122.724 19.9949C122.757 19.9619 122.802 19.9428 122.849 19.9416L128.19 19.8652C128.246 19.8653 128.299 19.8877 128.339 19.9279C128.379 19.968 128.402 20.0226 128.404 20.08L128.418 21.0534C128.419 21.081 128.414 21.1084 128.404 21.1341C128.394 21.1598 128.379 21.1833 128.36 21.2033C128.341 21.2232 128.318 21.2392 128.293 21.2503C128.268 21.2614 128.241 21.2675 128.213 21.2681L124.624 21.3206C124.564 21.3218 124.508 21.3465 124.466 21.3893C124.424 21.4322 124.401 21.4897 124.401 21.5496L124.415 22.776C124.415 22.8046 124.42 22.8329 124.432 22.8592C124.443 22.8856 124.459 22.9095 124.479 22.9295C124.5 22.9495 124.524 22.9652 124.55 22.9757C124.577 22.9862 124.605 22.9913 124.634 22.9907L127.499 22.9477C127.589 22.9459 127.675 22.9772 127.742 23.0355C127.809 23.0938 127.852 23.1749 127.861 23.2627C127.867 23.339 127.872 23.4663 127.875 23.6444Z" fill="white"/>
<path d="M136.905 27.1612C136.923 27.1856 136.934 27.2144 136.936 27.2444C136.938 27.2745 136.932 27.3046 136.918 27.3313C136.904 27.3581 136.883 27.3804 136.857 27.3959C136.832 27.4114 136.802 27.4193 136.772 27.4189H135.563C135.461 27.4183 135.361 27.3934 135.271 27.3461C135.18 27.2987 135.103 27.2304 135.044 27.1469L133.897 25.5006C133.859 25.4459 133.807 25.4012 133.748 25.3705C133.688 25.3398 133.622 25.3238 133.554 25.3241H132.45C132.386 25.3241 132.324 25.3497 132.278 25.3954C132.233 25.441 132.207 25.5029 132.207 25.5674L132.202 27.1946C132.202 27.2234 132.197 27.252 132.185 27.2786C132.174 27.3052 132.158 27.3294 132.137 27.3498C132.116 27.3702 132.091 27.3863 132.064 27.3974C132.037 27.4084 132.008 27.4141 131.979 27.4141H130.732C130.665 27.4141 130.6 27.3874 130.553 27.34C130.506 27.2926 130.479 27.2283 130.479 27.1612L130.489 20.2232C130.49 20.1451 130.522 20.0705 130.578 20.0153C130.634 19.9601 130.71 19.9286 130.789 19.9273C132.755 19.9035 135.915 19.5456 136.672 21.4352C137.256 22.8953 136.92 24.0532 135.663 24.909C135.634 24.929 135.608 24.9548 135.589 24.9847C135.57 25.0147 135.557 25.0482 135.55 25.0833C135.544 25.1185 135.545 25.1545 135.553 25.1893C135.561 25.2241 135.576 25.2569 135.596 25.2859L136.905 27.1612ZM132.212 21.5258V23.7876C132.212 23.8357 132.231 23.8818 132.265 23.9158C132.299 23.9498 132.345 23.9689 132.393 23.9689H133.711C133.904 23.9689 134.096 23.9378 134.274 23.8774C134.453 23.817 134.615 23.7284 134.751 23.6167C134.888 23.5051 134.996 23.3725 135.07 23.2266C135.144 23.0807 135.182 22.9244 135.182 22.7665V22.547C135.182 22.3891 135.144 22.2327 135.07 22.0868C134.996 21.9409 134.888 21.8084 134.751 21.6967C134.615 21.585 134.453 21.4965 134.274 21.436C134.096 21.3756 133.904 21.3445 133.711 21.3445H132.393C132.345 21.3445 132.299 21.3636 132.265 21.3976C132.231 21.4316 132.212 21.4777 132.212 21.5258Z" fill="white"/>
<path d="M142.908 23.1481C143.323 23.6635 143.58 23.9816 143.679 24.1025C143.703 24.1307 143.734 24.1509 143.77 24.1605C143.806 24.17 143.843 24.1685 143.878 24.156C143.913 24.1436 143.943 24.1208 143.964 24.0908C143.986 24.0608 143.997 24.0249 143.998 23.988L143.993 20.1468C143.993 20.0784 144.02 20.0129 144.068 19.9646C144.117 19.9162 144.182 19.8891 144.25 19.8891L145.45 19.8843C145.484 19.8837 145.517 19.8899 145.549 19.9026C145.58 19.9153 145.609 19.9343 145.633 19.9584C145.657 19.9824 145.676 20.0111 145.688 20.0426C145.701 20.0742 145.707 20.108 145.707 20.142L145.716 27.1564C145.717 27.1918 145.71 27.2271 145.698 27.2601C145.685 27.2931 145.666 27.3231 145.641 27.3484C145.617 27.3737 145.588 27.3938 145.556 27.4076C145.524 27.4213 145.489 27.4283 145.454 27.4283H144.555C144.48 27.4268 144.406 27.4099 144.338 27.3787C144.27 27.3475 144.209 27.3027 144.16 27.247C143.455 26.4422 142.609 25.4179 141.623 24.1741C141.213 23.6555 140.958 23.3358 140.856 23.215C140.832 23.1868 140.801 23.1665 140.765 23.157C140.729 23.1474 140.692 23.149 140.657 23.1614C140.622 23.1739 140.592 23.1966 140.571 23.2266C140.55 23.2567 140.538 23.2926 140.537 23.3295L140.542 27.1707C140.542 27.2045 140.535 27.238 140.522 27.2693C140.51 27.3005 140.491 27.3289 140.467 27.3529C140.443 27.3768 140.415 27.3958 140.383 27.4087C140.352 27.4217 140.319 27.4283 140.285 27.4283L139.085 27.4331C139.051 27.4338 139.018 27.4275 138.986 27.4148C138.955 27.4021 138.926 27.3831 138.902 27.3591C138.878 27.335 138.859 27.3064 138.847 27.2748C138.834 27.2433 138.828 27.2095 138.828 27.1754L138.819 20.1563C138.819 20.1212 138.826 20.0865 138.839 20.054C138.852 20.0216 138.871 19.9922 138.896 19.9674C138.92 19.9425 138.949 19.9229 138.98 19.9094C139.012 19.896 139.046 19.8891 139.081 19.8891H139.98C140.055 19.8907 140.129 19.9076 140.197 19.9388C140.265 19.9699 140.326 20.0148 140.375 20.0704C141.08 20.8752 141.924 21.9012 142.908 23.1481Z" fill="white"/>
<path d="M151.219 25.8012C150.448 25.8044 149.972 25.8108 149.791 25.8203C149.701 25.8261 149.615 25.8568 149.541 25.909C149.467 25.9611 149.408 26.0328 149.372 26.1162L148.872 27.247C148.85 27.2994 148.813 27.344 148.765 27.3754C148.718 27.4068 148.662 27.4235 148.606 27.4236L147.292 27.4284C147.265 27.4277 147.238 27.4207 147.215 27.4078C147.191 27.395 147.171 27.3767 147.156 27.3547C147.141 27.3326 147.131 27.3074 147.129 27.2811C147.126 27.2549 147.13 27.2285 147.14 27.2041L150.21 20.2184C150.245 20.1414 150.299 20.0752 150.368 20.0266C150.437 19.978 150.517 19.9486 150.6 19.9416C150.794 19.9193 150.995 19.9082 151.205 19.9082C151.414 19.9082 151.616 19.9177 151.809 19.9368C151.893 19.9439 151.973 19.9732 152.041 20.0218C152.11 20.0705 152.164 20.1367 152.199 20.2136L155.308 27.1802C155.319 27.2048 155.323 27.2318 155.321 27.2586C155.319 27.2855 155.31 27.3115 155.295 27.3342C155.279 27.3569 155.259 27.3757 155.235 27.3888C155.21 27.4019 155.183 27.4089 155.155 27.4093H153.842C153.785 27.4092 153.729 27.3924 153.682 27.3611C153.635 27.3297 153.597 27.2851 153.575 27.2327L153.071 26.1066C153.033 26.0235 152.974 25.9523 152.899 25.901C152.824 25.8496 152.737 25.82 152.647 25.8155C152.466 25.806 151.99 25.8012 151.219 25.8012ZM151.209 24.4938C151.803 24.497 152.109 24.497 152.128 24.4938C152.159 24.4887 152.188 24.4769 152.213 24.4593C152.238 24.4416 152.259 24.4186 152.274 24.392C152.29 24.3654 152.298 24.3358 152.3 24.3055C152.302 24.2752 152.297 24.2449 152.285 24.217L151.352 21.9362C151.348 21.9274 151.337 21.9176 151.322 21.9076C151.307 21.8976 151.288 21.8877 151.267 21.8789C151.241 21.8694 151.225 21.8646 151.219 21.8646C151.209 21.8646 151.192 21.8694 151.167 21.8789C151.145 21.8877 151.125 21.8976 151.11 21.9076C151.095 21.9176 151.085 21.9275 151.081 21.9362L150.134 24.2075C150.121 24.2353 150.115 24.2656 150.116 24.2962C150.117 24.3268 150.125 24.3569 150.14 24.384C150.155 24.4112 150.176 24.4348 150.201 24.453C150.226 24.4712 150.255 24.4835 150.286 24.489C150.308 24.4922 150.616 24.4938 151.209 24.4938Z" fill="white"/>
<path d="M158.378 27.4095C158.077 27.4095 157.886 27.408 157.807 27.4048C157.723 27.3999 157.644 27.3631 157.587 27.3018C157.529 27.2406 157.497 27.1596 157.497 27.0755L157.493 21.6263C157.493 21.5876 157.485 21.5494 157.47 21.5138C157.455 21.4782 157.432 21.4459 157.405 21.4188C157.377 21.3917 157.343 21.3703 157.307 21.356C157.271 21.3416 157.232 21.3346 157.193 21.3352L155.37 21.34C155.301 21.34 155.236 21.3128 155.188 21.2645C155.14 21.2162 155.113 21.1506 155.113 21.0823V20.1661C155.112 20.1319 155.118 20.0979 155.131 20.0661C155.144 20.0342 155.163 20.0053 155.188 19.9808C155.212 19.9564 155.241 19.937 155.273 19.9237C155.305 19.9105 155.34 19.9037 155.374 19.9037C156.33 19.9132 157.326 19.9148 158.364 19.9085C159.401 19.9116 160.398 19.9085 161.353 19.8989C161.388 19.8989 161.422 19.9057 161.454 19.919C161.486 19.9322 161.516 19.9516 161.54 19.9761C161.564 20.0005 161.583 20.0295 161.596 20.0613C161.609 20.0931 161.615 20.1271 161.615 20.1614V21.0775C161.615 21.1459 161.588 21.2114 161.54 21.2597C161.491 21.3081 161.426 21.3352 161.358 21.3352H159.535C159.456 21.3352 159.381 21.3659 159.326 21.4205C159.271 21.475 159.24 21.5491 159.24 21.6263V27.0755C159.24 27.1596 159.208 27.2406 159.15 27.3018C159.093 27.3631 159.014 27.3999 158.93 27.4048C158.851 27.408 158.667 27.4095 158.378 27.4095Z" fill="white"/>
<path d="M164.571 19.9131H163.228C163.123 19.9131 163.038 19.9985 163.038 20.104V27.2233C163.038 27.3287 163.123 27.4142 163.228 27.4142H164.571C164.676 27.4142 164.761 27.3287 164.761 27.2233V20.104C164.761 19.9985 164.676 19.9131 164.571 19.9131Z" fill="white"/>
<path d="M179.384 24.1838C178.972 23.6717 178.716 23.3552 178.618 23.2343C178.594 23.2061 178.562 23.1859 178.527 23.1763C178.491 23.1667 178.453 23.1683 178.419 23.1807C178.384 23.1932 178.354 23.2159 178.333 23.246C178.311 23.276 178.299 23.3119 178.299 23.3488L178.308 27.1661C178.308 27.2345 178.281 27.3 178.233 27.3483C178.185 27.3967 178.12 27.4238 178.051 27.4238L176.861 27.4286C176.795 27.4286 176.73 27.4019 176.683 27.3545C176.636 27.3071 176.609 27.2428 176.609 27.1757L176.59 20.1995C176.59 20.1295 176.617 20.0622 176.665 20.0122C176.713 19.9623 176.779 19.9335 176.847 19.9323L177.742 19.9275C177.817 19.929 177.891 19.9459 177.959 19.9771C178.027 20.0083 178.088 20.0532 178.137 20.1088C178.838 20.9105 179.681 21.9284 180.665 23.1627C181.071 23.6749 181.323 23.993 181.422 24.117C181.445 24.1452 181.477 24.1654 181.513 24.175C181.548 24.1846 181.586 24.183 181.621 24.1706C181.655 24.1581 181.685 24.1354 181.707 24.1053C181.728 24.0753 181.74 24.0394 181.74 24.0025L181.731 20.1804C181.731 20.1121 181.758 20.0465 181.806 19.9982C181.854 19.9499 181.92 19.9227 181.988 19.9227L183.183 19.918C183.25 19.918 183.314 19.9446 183.361 19.992C183.408 20.0395 183.435 20.1038 183.435 20.1709L183.454 27.1518C183.454 27.1869 183.447 27.2217 183.434 27.2541C183.421 27.2865 183.402 27.316 183.377 27.3408C183.353 27.3656 183.324 27.3853 183.292 27.3987C183.261 27.4121 183.227 27.419 183.192 27.419H182.302C182.226 27.4182 182.151 27.4016 182.082 27.3704C182.014 27.3391 181.952 27.294 181.902 27.2377C181.204 26.4393 180.365 25.4213 179.384 24.1838Z" fill="white"/>
<path d="M188.976 25.806C188.202 25.8092 187.726 25.8155 187.548 25.8251C187.458 25.8296 187.37 25.8591 187.296 25.9105C187.221 25.9618 187.162 26.033 187.124 26.1162L186.624 27.247C186.602 27.2994 186.565 27.344 186.517 27.3754C186.47 27.4068 186.415 27.4235 186.358 27.4236L185.039 27.4284C185.012 27.428 184.984 27.421 184.96 27.4079C184.936 27.3948 184.915 27.376 184.9 27.3533C184.885 27.3306 184.876 27.3046 184.874 27.2777C184.871 27.2508 184.876 27.2239 184.887 27.1993L187.976 20.2136C188.011 20.137 188.066 20.0711 188.134 20.0225C188.203 19.9739 188.283 19.9444 188.367 19.9368C188.56 19.9177 188.762 19.9082 188.971 19.9082C189.18 19.9082 189.382 19.9177 189.576 19.9368C189.659 19.9444 189.739 19.9739 189.808 20.0225C189.876 20.0711 189.931 20.137 189.966 20.2136L193.065 27.1946C193.076 27.2191 193.08 27.2461 193.078 27.2729C193.076 27.2998 193.067 27.3258 193.051 27.3485C193.036 27.3712 193.016 27.39 192.991 27.4031C192.967 27.4162 192.94 27.4232 192.912 27.4236L191.599 27.4188C191.542 27.4187 191.486 27.402 191.439 27.3706C191.392 27.3392 191.354 27.2946 191.332 27.2423L190.827 26.1162C190.791 26.0321 190.732 25.96 190.657 25.9077C190.582 25.8555 190.494 25.8253 190.404 25.8203C190.223 25.8108 189.747 25.806 188.976 25.806ZM187.852 24.2791C187.842 24.3015 187.838 24.3263 187.839 24.351C187.841 24.3757 187.849 24.3996 187.862 24.4205C187.875 24.4414 187.893 24.4586 187.915 24.4706C187.937 24.4826 187.961 24.4889 187.986 24.489L189.918 24.5033C189.943 24.5037 189.967 24.4979 189.989 24.4865C190.01 24.4751 190.029 24.4585 190.043 24.4381C190.056 24.4178 190.065 24.3943 190.067 24.3699C190.07 24.3454 190.066 24.3208 190.056 24.2981L189.114 21.96C189.104 21.9317 189.085 21.9072 189.061 21.8897C189.037 21.8721 189.007 21.8625 188.977 21.8619C188.947 21.8614 188.918 21.8701 188.893 21.8867C188.868 21.9034 188.849 21.9273 188.838 21.9553L187.852 24.2791Z" fill="white"/>
<path d="M194.697 19.9083H196.064C196.087 19.9083 196.11 19.913 196.131 19.9221C196.152 19.9312 196.172 19.9445 196.188 19.9614C196.204 19.9782 196.217 19.9982 196.226 20.0202C196.235 20.0422 196.24 20.0658 196.24 20.0896L196.23 25.7727C196.229 25.7994 196.234 25.8259 196.244 25.8508C196.254 25.8757 196.268 25.8983 196.287 25.9175C196.306 25.9366 196.328 25.9518 196.352 25.9621C196.377 25.9725 196.403 25.9778 196.43 25.9778L199.781 25.9874C199.837 25.9874 199.89 26.0095 199.929 26.0489C199.969 26.0882 199.991 26.1417 199.991 26.1973L200 27.2232C200 27.2487 199.995 27.2739 199.985 27.2974C199.975 27.3209 199.961 27.3421 199.943 27.3599C199.924 27.3777 199.903 27.3917 199.879 27.401C199.856 27.4103 199.83 27.4147 199.805 27.4141L194.807 27.4189C194.767 27.4195 194.727 27.412 194.69 27.3966C194.652 27.3813 194.618 27.3584 194.59 27.3295C194.562 27.3006 194.539 27.2661 194.524 27.2282C194.509 27.1903 194.502 27.1496 194.502 27.1087L194.512 20.0896C194.512 20.0654 194.517 20.0414 194.526 20.0191C194.535 19.9968 194.549 19.9766 194.566 19.9597C194.584 19.9428 194.604 19.9295 194.627 19.9207C194.649 19.9118 194.673 19.9076 194.697 19.9083Z" fill="white"/>
<path d="M105.732 32.6104C105.941 32.6104 106.143 32.6199 106.336 32.639C106.42 32.6465 106.5 32.6761 106.568 32.7247C106.637 32.7733 106.691 32.8392 106.726 32.9157L109.839 39.9015C109.851 39.9261 109.855 39.953 109.853 39.9799C109.85 40.0067 109.841 40.0327 109.826 40.0554C109.811 40.0781 109.79 40.0969 109.766 40.11C109.742 40.1231 109.715 40.1302 109.687 40.1305H108.369C108.312 40.1304 108.256 40.1137 108.209 40.0823C108.162 40.0509 108.124 40.0063 108.102 39.954L107.598 38.8231C107.56 38.7399 107.501 38.6688 107.426 38.6174C107.351 38.5661 107.264 38.5365 107.174 38.532C106.993 38.5225 106.515 38.5177 105.741 38.5177C104.967 38.5177 104.489 38.5241 104.308 38.5368C104.218 38.5413 104.131 38.5708 104.056 38.6222C103.981 38.6735 103.922 38.7447 103.885 38.8278L103.385 39.9635C103.363 40.0158 103.325 40.0605 103.278 40.0918C103.231 40.1232 103.175 40.14 103.118 40.1401L101.8 40.1448C101.772 40.1445 101.745 40.1374 101.721 40.1243C101.696 40.1112 101.676 40.0925 101.661 40.0698C101.646 40.047 101.636 40.0211 101.634 39.9942C101.632 39.9673 101.636 39.9404 101.647 39.9158L104.737 32.9205C104.771 32.8431 104.825 32.7762 104.894 32.7267C104.962 32.6772 105.043 32.647 105.127 32.639C105.321 32.6199 105.522 32.6104 105.732 32.6104ZM106.826 36.8524L105.87 34.7003C105.856 34.6675 105.832 34.6396 105.803 34.6203C105.773 34.601 105.738 34.5912 105.702 34.5922C105.667 34.5933 105.632 34.6051 105.603 34.6261C105.575 34.6471 105.553 34.6763 105.541 34.7099L104.675 36.9907C104.666 37.0139 104.662 37.039 104.665 37.0639C104.668 37.0887 104.677 37.1125 104.692 37.1333C104.706 37.154 104.726 37.171 104.749 37.1827C104.771 37.1945 104.797 37.2006 104.822 37.2007H106.603C106.644 37.2003 106.684 37.1896 106.72 37.1698C106.756 37.1499 106.786 37.1214 106.808 37.0869C106.83 37.0524 106.844 37.0129 106.847 36.972C106.85 36.931 106.843 36.8899 106.826 36.8524Z" fill="white"/>
<path d="M112.777 32.606H111.491C111.37 32.606 111.272 32.7042 111.272 32.8255V39.9066C111.272 40.0278 111.37 40.1261 111.491 40.1261H112.777C112.898 40.1261 112.996 40.0278 112.996 39.9066V32.8255C112.996 32.7042 112.898 32.606 112.777 32.606Z" fill="white"/>
<path d="M121.726 39.8636C121.743 39.888 121.754 39.9168 121.756 39.9469C121.758 39.9769 121.752 40.007 121.738 40.0337C121.725 40.0605 121.704 40.0829 121.678 40.0983C121.652 40.1138 121.622 40.1217 121.592 40.1213L120.378 40.1261C120.276 40.1259 120.174 40.1012 120.083 40.0539C119.992 40.0065 119.914 39.938 119.855 39.8541L118.693 38.2078C118.655 38.1534 118.604 38.1089 118.544 38.0782C118.485 38.0475 118.418 38.0314 118.351 38.0313L117.237 38.0361C117.205 38.0361 117.173 38.0424 117.144 38.0546C117.114 38.0668 117.088 38.0847 117.065 38.1073C117.043 38.1299 117.025 38.1568 117.013 38.1863C117 38.2158 116.994 38.2475 116.994 38.2794L116.999 39.9161C116.999 39.9743 116.975 40.0301 116.933 40.0713C116.891 40.1125 116.834 40.1356 116.775 40.1356L115.523 40.1404C115.456 40.1404 115.392 40.1137 115.345 40.0663C115.297 40.0189 115.271 39.9545 115.271 39.8875L115.247 32.9208C115.246 32.8813 115.254 32.8421 115.268 32.8054C115.283 32.7687 115.305 32.7352 115.333 32.7069C115.361 32.6785 115.394 32.6558 115.431 32.6401C115.467 32.6245 115.507 32.6161 115.547 32.6154C117.522 32.5868 120.697 32.2146 121.469 34.109C122.062 35.5755 121.729 36.7413 120.469 37.6066C120.44 37.6264 120.415 37.6519 120.396 37.6817C120.377 37.7114 120.364 37.7447 120.357 37.7798C120.351 37.8148 120.352 37.8509 120.36 37.8859C120.367 37.9208 120.382 37.954 120.402 37.9836L121.726 39.8636ZM116.98 34.2283V36.4805C116.98 36.5286 116.999 36.5747 117.033 36.6087C117.067 36.6427 117.113 36.6618 117.161 36.6618H118.546C118.936 36.6618 119.31 36.5351 119.586 36.3096C119.862 36.0841 120.017 35.7783 120.017 35.4594V35.2494C120.017 34.9305 119.862 34.6246 119.586 34.3991C119.31 34.1736 118.936 34.0469 118.546 34.0469H117.161C117.113 34.0469 117.067 34.066 117.033 34.1C116.999 34.1341 116.98 34.1802 116.98 34.2283Z" fill="white"/>
<path d="M125.376 38.2936V39.8731C125.376 39.9401 125.35 40.0045 125.302 40.0519C125.255 40.0993 125.191 40.126 125.124 40.126H123.944C123.865 40.126 123.79 40.0948 123.735 40.0393C123.68 39.9838 123.648 39.9086 123.648 39.8301V32.8205C123.648 32.7786 123.663 32.7381 123.691 32.7072C123.718 32.6763 123.756 32.6571 123.796 32.6535C124.875 32.5199 126.133 32.5358 127.571 32.7012C129.259 32.8953 130.105 33.7939 130.108 35.3972C130.117 37.9358 127.69 38.1362 125.676 38.0073C125.638 38.0047 125.599 38.0102 125.563 38.0234C125.527 38.0366 125.493 38.0573 125.465 38.0841C125.437 38.111 125.415 38.1434 125.399 38.1795C125.384 38.2155 125.376 38.2544 125.376 38.2936ZM125.362 34.2186L125.381 36.4804C125.381 36.5272 125.4 36.5721 125.433 36.6052C125.466 36.6383 125.511 36.6569 125.557 36.6569L126.914 36.6474C127.305 36.6444 127.679 36.5201 127.954 36.3018C128.228 36.0835 128.382 35.789 128.38 35.4831V35.1777C128.379 35.0259 128.34 34.8758 128.265 34.7361C128.19 34.5963 128.08 34.4697 127.942 34.3633C127.804 34.2569 127.64 34.173 127.461 34.1162C127.281 34.0594 127.089 34.031 126.895 34.0325L125.538 34.0421C125.491 34.0421 125.447 34.0607 125.414 34.0938C125.381 34.1269 125.362 34.1718 125.362 34.2186Z" fill="white"/>
<path d="M131.455 36.3323C131.461 35.8204 131.572 35.3146 131.784 34.8438C131.996 34.373 132.304 33.9465 132.69 33.5885C133.076 33.2305 133.533 32.9481 134.035 32.7575C134.536 32.5668 135.073 32.4716 135.613 32.4773C136.154 32.483 136.688 32.5894 137.186 32.7906C137.683 32.9917 138.134 33.2836 138.513 33.6496C138.891 34.0156 139.19 34.4486 139.392 34.9237C139.594 35.3988 139.695 35.9069 139.69 36.4188C139.684 36.9307 139.573 37.4365 139.361 37.9073C139.149 38.3781 138.841 38.8046 138.455 39.1626C138.069 39.5206 137.612 39.803 137.11 39.9936C136.609 40.1843 136.072 40.2795 135.532 40.2738C134.991 40.2681 134.457 40.1617 133.959 39.9605C133.462 39.7594 133.011 39.4675 132.632 39.1015C132.254 38.7355 131.955 38.3025 131.753 37.8274C131.551 37.3523 131.45 36.8442 131.455 36.3323ZM137.957 36.3756C137.957 35.7415 137.706 35.1335 137.259 34.6851C136.812 34.2368 136.205 33.9849 135.573 33.9849C134.94 33.9849 134.333 34.2368 133.886 34.6851C133.439 35.1335 133.188 35.7415 133.188 36.3756C133.188 37.0096 133.439 37.6176 133.886 38.066C134.333 38.5143 134.94 38.7662 135.573 38.7662C136.205 38.7662 136.812 38.5143 137.259 38.066C137.706 37.6176 137.957 37.0096 137.957 36.3756Z" fill="white"/>
<path d="M147.939 39.8683C147.957 39.8926 147.967 39.9214 147.97 39.9515C147.972 39.9815 147.966 40.0116 147.952 40.0384C147.938 40.0651 147.917 40.0875 147.891 40.103C147.866 40.1184 147.836 40.1264 147.806 40.1259H146.597C146.494 40.1258 146.393 40.1011 146.301 40.0537C146.21 40.0064 146.132 39.9379 146.073 39.8539L144.921 38.2077C144.883 38.1533 144.832 38.1088 144.772 38.0781C144.713 38.0474 144.646 38.0313 144.579 38.0312H143.469C143.405 38.0312 143.343 38.0568 143.298 38.1024C143.252 38.1481 143.227 38.21 143.227 38.2745V39.9064C143.227 39.9646 143.203 40.0205 143.161 40.0616C143.119 40.1028 143.062 40.1259 143.003 40.1259H141.751C141.684 40.1259 141.62 40.0993 141.573 40.0519C141.525 40.0044 141.499 39.9401 141.499 39.873V32.9207C141.499 32.8418 141.53 32.766 141.586 32.7098C141.642 32.6536 141.719 32.6213 141.799 32.6201C143.769 32.5962 146.94 32.2336 147.701 34.1279C148.288 35.5912 147.952 36.7524 146.692 37.6113C146.663 37.6311 146.638 37.6566 146.619 37.6863C146.6 37.716 146.587 37.7494 146.581 37.7844C146.574 37.8195 146.575 37.8555 146.583 37.8905C146.591 37.9255 146.605 37.9587 146.625 37.9882L147.939 39.8683ZM143.227 34.1661V36.5329C143.227 36.5683 143.241 36.6023 143.266 36.6273C143.291 36.6524 143.325 36.6665 143.36 36.6665H144.774C145.154 36.6665 145.518 36.5393 145.787 36.3129C146.056 36.0865 146.206 35.7794 146.206 35.4592V35.2397C146.206 34.9196 146.056 34.6125 145.787 34.3861C145.518 34.1597 145.154 34.0325 144.774 34.0325H143.36C143.325 34.0325 143.291 34.0466 143.266 34.0716C143.241 34.0967 143.227 34.1307 143.227 34.1661Z" fill="white"/>
<path d="M152.295 32.6107C153.332 32.6171 154.329 32.6155 155.284 32.606C155.318 32.606 155.353 32.6126 155.384 32.6256C155.416 32.6385 155.445 32.6575 155.469 32.6814C155.494 32.7053 155.513 32.7337 155.526 32.765C155.539 32.7963 155.546 32.8298 155.546 32.8636V33.7798C155.546 33.8481 155.519 33.9137 155.471 33.962C155.422 34.0103 155.357 34.0375 155.289 34.0375H153.466C153.387 34.0375 153.312 34.0681 153.257 34.1227C153.202 34.1773 153.171 34.2513 153.171 34.3285V39.7778C153.171 39.8619 153.139 39.9429 153.081 40.0041C153.024 40.0653 152.945 40.1022 152.861 40.107C152.782 40.1102 152.591 40.1118 152.29 40.1118C152.001 40.1118 151.817 40.1102 151.738 40.107C151.654 40.1022 151.575 40.0653 151.518 40.0041C151.46 39.9429 151.428 39.8619 151.428 39.7778L151.424 34.3285C151.424 34.2513 151.393 34.1773 151.337 34.1227C151.282 34.0681 151.207 34.0375 151.129 34.0375H149.305C149.238 34.0375 149.173 34.011 149.125 33.9637C149.077 33.9164 149.05 33.8521 149.048 33.7846V32.8684C149.048 32.8342 149.054 32.8001 149.067 32.7683C149.08 32.7365 149.099 32.7075 149.123 32.6831C149.148 32.6587 149.177 32.6392 149.209 32.626C149.241 32.6128 149.275 32.6059 149.31 32.606C150.262 32.6155 151.257 32.6171 152.295 32.6107Z" fill="white"/>
</svg>
