<svg width="200" height="44" viewBox="0 0 200 44" fill="none" xmlns="http://www.w3.org/2000/svg">
<g clip-path="url(#clip0_1330_1225)">
<mask id="mask0_1330_1225" style="mask-type:luminance" maskUnits="userSpaceOnUse" x="0" y="0" width="200" height="44">
<path d="M199.836 0.5H0V43.5H199.836V0.5Z" fill="white"/>
</mask>
<g mask="url(#mask0_1330_1225)">
<path d="M132.877 12.3039V14.8988H131.064V7.53027H134.263C136.322 7.53027 137.604 8.31002 137.604 9.8904C137.604 11.4496 136.335 12.3039 134.263 12.3039H132.877ZM134.003 11.0438C135.259 11.0438 135.791 10.6806 135.791 9.8904C135.791 9.18571 135.259 8.80113 134.003 8.80113H132.877V11.0438H134.003Z" fill="white"/>
<path d="M138.794 7.53027H140.581V8.85465H138.794V7.53027ZM138.859 9.55918H140.517V14.8988H138.859V9.55918Z" fill="white"/>
<path d="M141.756 9.55839H142.585V8.38379H144.229V9.55839H145.499V10.7118H144.229V12.9435C144.229 13.4777 144.358 13.7019 144.967 13.7019H145.499V14.8979H144.799C143.233 14.8979 142.585 14.5347 142.585 13.1569V10.7116H141.756V9.55839Z" fill="white"/>
<path d="M146.612 9.55839H147.441V8.38379H149.085V9.55839H150.355V10.7118H149.085V12.9435C149.085 13.4777 149.214 13.7019 149.823 13.7019H150.355V14.8979H149.655C148.088 14.8979 147.441 14.5347 147.441 13.1569V10.7116H146.612V9.55839Z" fill="white"/>
<path d="M155.312 11.0643C155.027 10.7866 154.742 10.6373 154.043 10.6373C153.615 10.6373 153.227 10.744 153.227 11.0536C153.227 11.3742 153.577 11.4913 154.263 11.5768C155.856 11.7798 156.659 12.2815 156.659 13.339C156.659 14.3639 155.791 14.9941 154.121 14.9941C152.8 14.9941 151.996 14.7271 151.439 14.1079L152.709 13.3603C152.969 13.6485 153.292 13.8195 154.094 13.8195C154.665 13.8195 155.014 13.6594 155.014 13.3817C155.014 13.0507 154.729 12.9439 153.913 12.8371C152.566 12.6556 151.582 12.1857 151.582 11.1071C151.582 10.0929 152.463 9.46289 154.081 9.46289C155.144 9.46289 156.024 9.66554 156.529 10.349L155.312 11.0643Z" fill="white"/>
<path d="M159.466 9.89024C159.815 9.58039 160.308 9.46324 160.864 9.46324C162.419 9.46324 163.415 10.296 163.415 11.8981V12.5387C163.415 14.0019 162.573 14.9948 160.864 14.9948C160.23 14.9948 159.777 14.8559 159.466 14.5782V14.8988H157.899V7.53027H159.466V9.89024ZM161.771 12.496V11.9406C161.771 11.0861 161.434 10.6162 160.619 10.6162C159.802 10.6162 159.466 11.0861 159.466 11.9406V12.496C159.466 13.2649 159.75 13.8412 160.619 13.8412C161.512 13.8412 161.771 13.2649 161.771 12.496Z" fill="white"/>
<path d="M170.185 14.8981H168.566V14.4494C168.294 14.8126 167.944 14.994 167.09 14.994C165.783 14.994 164.707 14.4603 164.707 12.8904V9.55859H166.365V12.6877C166.365 13.5313 166.728 13.8194 167.414 13.8194C168.178 13.8194 168.541 13.435 168.541 12.6982V9.55859H170.185V14.8981Z" fill="white"/>
<path d="M175.18 11.0425C175.012 10.8395 174.778 10.6367 174.364 10.6367C173.742 10.6367 173.328 11.0103 173.328 11.7579V14.8975H171.671V9.55785H173.29V10.0065C173.509 9.73929 173.937 9.46191 174.701 9.46191C175.478 9.46191 176.06 9.73929 176.449 10.2947L175.18 11.0425Z" fill="white"/>
<path d="M180.885 9.55801H182.529V14.7908C182.529 16.5738 181.313 16.9905 179.68 16.9905C178.477 16.9905 177.712 16.7557 177.142 16.0293L178.256 15.3675C178.541 15.6878 178.916 15.8479 179.526 15.8479C180.509 15.8479 180.885 15.6131 180.885 14.7908V14.6198C180.535 14.8653 180.081 14.9934 179.499 14.9934C177.802 14.9934 176.935 14.0006 176.935 12.5803V11.8539C176.935 10.2947 177.958 9.46191 179.499 9.46191C180.081 9.46191 180.535 9.58999 180.885 9.83555V9.55801ZM180.885 12.6121V11.9395C180.885 11.085 180.548 10.6151 179.732 10.6151C178.916 10.6151 178.58 11.085 178.58 11.9395V12.4949C178.58 13.2639 178.838 13.8402 179.732 13.8402C180.613 13.8402 180.885 13.3173 180.885 12.6121Z" fill="white"/>
<path d="M184.071 7.53027H185.728V9.9759C185.974 9.70897 186.428 9.46341 187.179 9.46341C188.487 9.46341 189.549 9.9759 189.549 11.5563V14.8988H187.903V11.7697C187.903 10.9369 187.541 10.638 186.867 10.638C186.103 10.638 185.728 11.0543 185.728 11.7593V14.8988H184.071V7.53027Z" fill="white"/>
<path d="M132.177 25.4428H131.064V18.0742H132.177V25.4428Z" fill="white"/>
<path d="M134.066 20.1041H135.102V20.6273C135.425 20.2215 135.879 20.0186 136.837 20.0186C138.223 20.0186 139.194 20.6166 139.194 22.1118V25.4435H138.158V22.1222C138.158 21.0439 137.445 20.8088 136.681 20.8088C135.71 20.8088 135.102 21.3749 135.102 22.1118V25.4435H134.066V20.1041Z" fill="white"/>
<path d="M140.484 20.1043H141.313V18.9297H142.349V20.1043H143.837V20.8733H142.349V23.5858C142.349 24.3227 142.452 24.6322 143.32 24.6322H143.838V25.4441H143.281C141.753 25.4441 141.313 24.9099 141.313 23.7994V20.8734H140.484V20.1043Z" fill="white"/>
<path d="M149.982 24.6316C149.528 25.2833 148.843 25.529 147.715 25.529C145.98 25.529 144.944 24.6 144.944 23.1155V22.4108C144.944 20.8942 145.813 20.0186 147.509 20.0186C149.217 20.0186 150.073 20.8838 150.073 22.4108V22.9659H145.981V23.1155C145.981 24.0338 146.512 24.7602 147.638 24.7602C148.48 24.7602 148.907 24.5572 149.179 24.1622L149.982 24.6316ZM145.98 22.2185H149.024C148.972 21.3216 148.493 20.7874 147.509 20.7874C146.512 20.7874 146.045 21.332 145.98 22.2185Z" fill="white"/>
<path d="M155.158 21.2576C154.886 20.9478 154.55 20.8089 154.071 20.8089C153.28 20.8089 152.685 21.3002 152.685 22.1012V25.4437H151.649V20.1041H152.685V20.6273C152.957 20.2537 153.398 20.0186 154.187 20.0186C155.068 20.0186 155.625 20.2641 156.04 20.745L155.158 21.2576Z" fill="white"/>
<path d="M157.158 20.1041H158.194V20.6273C158.519 20.2215 158.971 20.0186 159.929 20.0186C161.315 20.0186 162.286 20.6166 162.286 22.1118V25.4435H161.25V22.1222C161.25 21.0439 160.538 20.8088 159.774 20.8088C158.804 20.8088 158.194 21.3749 158.194 22.1118V25.4435H157.158V20.1041Z" fill="white"/>
<path d="M166.148 22.3573H167.688V21.7378C167.688 20.9797 167.262 20.8087 166.251 20.8087C165.474 20.8087 165.061 20.8621 164.698 21.3534L163.92 20.905C164.374 20.2855 165.035 20.0186 166.264 20.0186C167.909 20.0186 168.724 20.4563 168.724 21.7378V25.4435H167.688V24.9203C167.327 25.4115 166.886 25.529 166.044 25.529C164.542 25.529 163.727 24.9203 163.727 23.8843C163.727 22.731 164.723 22.3573 166.148 22.3573ZM167.69 23.0832H166.148C165.124 23.0832 164.763 23.3717 164.763 23.9056C164.763 24.5035 165.28 24.7387 166.044 24.7387C167.002 24.7387 167.69 24.589 167.69 23.3931V23.0832Z" fill="white"/>
<path d="M169.977 20.1043H170.805V18.9297H171.841V20.1043H173.33V20.8733H171.841V23.5858C171.841 24.3227 171.944 24.6322 172.813 24.6322H173.33V25.4441H172.773C171.245 25.4441 170.805 24.9099 170.805 23.7994V20.8734H169.977V20.1043Z" fill="white"/>
<path d="M174.805 18.0742H175.97V19.0354H174.805V18.0742ZM174.87 20.1033H175.906V25.4429H174.87V20.1033Z" fill="white"/>
<path d="M182.89 23.1155C182.89 24.5037 182.061 25.529 180.197 25.529C178.475 25.529 177.502 24.5892 177.502 23.1155V22.4108C177.502 20.8943 178.5 20.0186 180.197 20.0186C181.906 20.0186 182.89 20.8838 182.89 22.4108V23.1155ZM181.854 23.1155V22.4108C181.854 21.3963 181.258 20.7875 180.197 20.7875C179.134 20.7875 178.538 21.4067 178.538 22.4108V23.1155C178.538 24.0338 179.005 24.7602 180.197 24.7602C181.297 24.7602 181.854 24.0234 181.854 23.1155Z" fill="white"/>
<path d="M184.421 20.1041H185.456V20.6273C185.78 20.2215 186.234 20.0186 187.192 20.0186C188.577 20.0186 189.549 20.6166 189.549 22.1118V25.4435H188.513V22.1222C188.513 21.0439 187.8 20.8088 187.036 20.8088C186.065 20.8088 185.456 21.3749 185.456 22.1118V25.4435H184.421V20.1041Z" fill="white"/>
<path d="M193.365 22.3573H194.906V21.7378C194.906 20.9797 194.478 20.8087 193.469 20.8087C192.692 20.8087 192.277 20.8621 191.914 21.3534L191.137 20.905C191.591 20.2855 192.251 20.0186 193.481 20.0186C195.126 20.0186 195.942 20.4563 195.942 21.7378V25.4435H194.906V24.9203C194.543 25.4115 194.102 25.529 193.261 25.529C191.759 25.529 190.943 24.9203 190.943 23.8843C190.943 22.731 191.941 22.3573 193.365 22.3573ZM194.906 23.0832H193.365C192.342 23.0832 191.979 23.3717 191.979 23.9056C191.979 24.5035 192.498 24.7387 193.262 24.7387C194.22 24.7387 194.906 24.589 194.906 23.3931V23.0832Z" fill="white"/>
<path d="M197.698 18.0752H198.734V23.5856C198.734 24.1622 198.772 24.6535 199.834 24.6535V25.4437C198.202 25.4437 197.698 24.9095 197.698 23.7991V18.0752Z" fill="white"/>
<path d="M130.106 35.9877L133.214 28.6191H134.25L137.357 35.9877H136.179L135.492 34.3001H131.97L131.284 35.9877H130.106ZM132.32 33.4673H135.143L133.731 30.0075L132.32 33.4673Z" fill="white"/>
<path d="M138.708 28.6191H139.873V29.5803H138.708V28.6191ZM138.773 30.6482H139.809V35.9878H138.773V30.6482Z" fill="white"/>
<path d="M145.188 31.8025C144.916 31.4927 144.58 31.3538 144.101 31.3538C143.311 31.3538 142.715 31.8451 142.715 32.6461V35.9886H141.679V30.649H142.715V31.1722C142.987 30.7986 143.427 30.5635 144.218 30.5635C145.098 30.5635 145.655 30.809 146.069 31.2899L145.188 31.8025Z" fill="white"/>
<path d="M149.986 30.5635C151.591 30.5635 152.576 31.4287 152.576 32.9558V33.6605C152.576 35.0486 151.747 36.074 149.986 36.074C149.13 36.074 148.573 35.8496 148.225 35.4544V38.0177H147.188V30.6491H148.225V31.1833C148.573 30.788 149.13 30.5635 149.986 30.5635ZM151.54 33.6605V32.9558C151.54 31.9412 150.943 31.3325 149.881 31.3325C148.845 31.3325 148.225 31.92 148.225 32.8807V33.6605C148.225 34.5787 148.691 35.3051 149.881 35.3051C150.983 35.3051 151.54 34.5683 151.54 33.6605Z" fill="white"/>
<path d="M159.243 33.6605C159.243 35.0486 158.415 36.074 156.55 36.074C154.828 36.074 153.856 35.1341 153.856 33.6605V32.9558C153.856 31.4392 154.853 30.5635 156.55 30.5635C158.259 30.5635 159.243 31.4287 159.243 32.9558V33.6605ZM158.207 33.6605V32.9558C158.207 31.9412 157.612 31.3325 156.55 31.3325C155.487 31.3325 154.892 31.9517 154.892 32.9558V33.6605C154.892 34.5787 155.358 35.3051 156.55 35.3051C157.65 35.3051 158.207 34.5683 158.207 33.6605Z" fill="white"/>
<path d="M164.292 31.8025C164.02 31.4927 163.684 31.3538 163.205 31.3538C162.415 31.3538 161.819 31.8451 161.819 32.6461V35.9886H160.782V30.649H161.819V31.1722C162.091 30.7986 162.531 30.5635 163.321 30.5635C164.201 30.5635 164.758 30.809 165.173 31.2899L164.292 31.8025Z" fill="white"/>
<path d="M166.015 30.6482H166.844V29.4736H167.88V30.6482H169.37V31.4172H167.88V34.1298C167.88 34.8666 167.984 35.1761 168.851 35.1761H169.37V35.988H168.813C167.285 35.988 166.844 35.4538 166.844 34.3434V31.4174H166.015V30.6482Z" fill="white"/>
<path d="M63.294 25.9664V35.989H56.3V7.53027H68.6396C76.5826 7.53027 81.5287 10.5411 81.5287 16.6452C81.5287 22.667 76.6326 25.9664 68.6396 25.9664H63.294ZM67.6407 21.0996C72.4864 21.0996 74.5348 19.6973 74.5348 16.6452C74.5348 13.923 72.4864 12.4382 67.6407 12.4382H63.2941V21.0996H67.6407Z" fill="white"/>
<path d="M93.2903 35.989H86.2964V7.53027H93.2903V35.989Z" fill="white"/>
<path d="M124.274 7.53027V12.4382H114.782V35.989H107.788V12.4382H98.2966V7.53027H124.274Z" fill="white"/>
<path d="M49.5197 40.3724H48.71V3.14648H49.5197V40.3724Z" fill="white"/>
<path d="M21.7373 0.5C33.7234 0.5 43.4746 8.88623 43.4746 19.1943C43.4746 23.1589 41.7361 29.2905 33.4512 35.9844C28.8656 39.6889 22.8035 42.9321 22.5479 43.0684L21.7373 43.5L20.9268 43.0684C20.6663 42.9294 14.6078 39.6873 10.0244 35.9844C1.73924 29.2903 1.0598e-05 23.1589 0 19.1943C0 8.8863 9.75125 0.500118 21.7373 0.5ZM16.1299 23.5713C13.2158 26.0774 11.4645 29.4121 11.2051 32.9492L11.1826 33.2607C11.5021 33.5355 11.8199 33.8009 12.1328 34.0537C15.5376 36.8044 19.9473 39.3675 21.7393 40.3711V18.748L16.1299 23.5713ZM30.8379 10.7363C28.3127 12.908 26.8945 15.8536 26.8945 18.9248V38.9072C28.6729 37.7785 30.6556 36.4274 32.3994 35.0186C36.9252 31.3622 41.9385 25.8246 41.9385 19.1934C41.9384 14.2358 39.5226 9.76342 35.6494 6.59863L30.8379 10.7363ZM3.24023 17.0879C3.13475 17.7774 3.0791 18.4805 3.0791 19.1943C3.07915 21.6438 3.84104 23.9461 5.01367 26.042C8.1699 25.76 11.1252 24.5548 13.377 22.6182L19.8076 17.0879H3.24023ZM21.7373 3.14648C14.2155 3.14662 7.71973 6.99458 4.76953 12.5215H20.8701C23.7272 12.5215 26.4679 11.5452 28.4883 9.80762L32.6797 6.20312C29.6035 4.2814 25.8217 3.14648 21.7373 3.14648Z" fill="white"/>
</g>
</g>
<defs>
<clipPath id="clip0_1330_1225">
<rect width="200" height="44" fill="white"/>
</clipPath>
</defs>
</svg>
