<svg width="200" height="41" viewBox="0 0 200 41" fill="none" xmlns="http://www.w3.org/2000/svg">
<g clip-path="url(#clip0_1412_64909)">
<path d="M40.7059 0L40.7812 8.42621C40.7828 8.51302 40.7593 8.59845 40.7133 8.67208C40.6673 8.74571 40.601 8.80438 40.5224 8.84092L28.0471 14.6233C27.9892 14.6517 27.9255 14.6676 27.8599 14.67C27.7943 14.6725 27.7283 14.6614 27.6659 14.6375L0 4.22253V0H40.7059Z" fill="white"/>
<path d="M79.7694 5.64575H79.0165C78.8788 5.64575 78.7671 5.75758 78.7671 5.89552V24.19C78.7671 24.3279 78.8788 24.4398 79.0165 24.4398H79.7694C79.9072 24.4398 80.0188 24.3279 80.0188 24.19V5.89552C80.0188 5.75758 79.9072 5.64575 79.7694 5.64575Z" fill="white"/>
<path d="M154.832 6.24193L153.947 6.22801C153.755 6.22499 153.597 6.37865 153.594 6.57123L153.578 7.55134C153.575 7.74391 153.729 7.90248 153.921 7.90551L154.806 7.91942C154.998 7.92245 155.156 7.76879 155.159 7.57621L155.175 6.5961C155.178 6.40352 155.024 6.24495 154.832 6.24193Z" fill="white"/>
<path d="M0 27.7952V9.0719L21.7741 17.2625C21.8122 17.2769 21.8451 17.3023 21.8688 17.3354C21.8926 17.3685 21.906 17.4079 21.9075 17.4486C21.909 17.4894 21.8985 17.5296 21.8773 17.5644C21.8561 17.5992 21.8251 17.627 21.7882 17.6442L0 27.7952Z" fill="white"/>
<path d="M50.2352 21.9138C50.2152 21.8853 50.1867 21.8641 50.1538 21.8533C50.121 21.8425 50.0853 21.8425 50.052 21.8535C50.0187 21.8644 49.9894 21.8857 49.9682 21.9143C49.947 21.9429 49.935 21.9773 49.934 22.0128L49.9199 28.1156C49.9199 28.18 49.9071 28.2437 49.8823 28.3032C49.8574 28.3627 49.821 28.4167 49.7752 28.4622C49.7293 28.5077 49.6748 28.5438 49.6149 28.5684C49.5549 28.5931 49.4907 28.6057 49.4258 28.6057H49.2375C49.1679 28.6057 49.099 28.5921 49.0347 28.5655C48.9705 28.5389 48.9122 28.4999 48.8632 28.4509C48.8142 28.4018 48.7754 28.3436 48.7492 28.2796C48.723 28.2155 48.7098 28.147 48.7105 28.0779L48.7434 11.5413C48.7434 11.4838 48.7662 11.4286 48.8068 11.388C48.8474 11.3473 48.9025 11.3245 48.9599 11.3245H49.7411C49.7985 11.3245 49.8535 11.3473 49.8941 11.388C49.9347 11.4286 49.9575 11.4838 49.9575 11.5413L49.9528 13.9211C49.9533 13.9477 49.9618 13.9736 49.9772 13.9952C49.9926 14.0169 50.0142 14.0334 50.0391 14.0426C50.0641 14.0518 50.0912 14.0532 50.1169 14.0466C50.1427 14.0401 50.1658 14.0259 50.1834 14.006C50.243 13.9306 50.4093 13.7059 50.6822 13.3321C52.4564 10.8956 55.7128 10.5139 58.1552 11.7486C60.4469 12.8985 61.6658 15.2643 61.6799 17.8185C61.7175 24.1334 54.2069 27.4653 50.2352 21.9138ZM55.0329 12.2362C53.6394 12.2752 52.3195 12.9077 51.3636 13.9945C50.4078 15.0813 49.8943 16.5335 49.9361 18.0315C49.9779 19.5295 50.5715 20.9506 51.5865 21.9823C52.6014 23.014 53.9545 23.5717 55.348 23.5327C56.7416 23.4937 58.0615 22.8613 59.0173 21.7744C59.9731 20.6876 60.4867 19.2355 60.4449 17.7375C60.4031 16.2395 59.8094 14.8183 58.7945 13.7866C57.7795 12.755 56.4265 12.1973 55.0329 12.2362Z" fill="white"/>
<path d="M85.5199 13.3509C85.519 13.3823 85.5287 13.4129 85.5474 13.4378C85.5662 13.4627 85.5929 13.4806 85.6235 13.4886C85.6541 13.4967 85.6868 13.4945 85.7166 13.4824C85.7464 13.4702 85.7715 13.4489 85.7881 13.4216C87.6987 10.2641 92.5269 10.1463 94.1928 13.5865C94.206 13.6143 94.2262 13.6381 94.2514 13.6555C94.2767 13.6729 94.306 13.6833 94.3366 13.6857C94.3672 13.6881 94.3978 13.6824 94.4254 13.6691C94.4531 13.6558 94.4767 13.6355 94.494 13.6101C95.8713 11.6182 97.7018 10.7935 99.9858 11.136C102.358 11.4894 103.887 13.4782 103.995 15.8015C104.102 18.0636 104.119 20.811 104.047 24.0439C104.044 24.1448 104.003 24.2406 103.931 24.3111C103.859 24.3815 103.762 24.4209 103.661 24.4209H103.247C103.189 24.4209 103.133 24.4094 103.08 24.387C103.027 24.3645 102.979 24.3317 102.939 24.2904C102.899 24.249 102.868 24.2001 102.847 24.1464C102.826 24.0927 102.817 24.0354 102.819 23.9779C102.913 21.0467 102.907 18.3353 102.8 15.8439C102.682 13.0257 100.348 11.6544 97.7458 12.3518C95.6893 12.9079 94.8658 14.9768 94.8328 16.9702C94.8171 17.7965 94.814 20.101 94.8234 23.8837C94.8236 24.0414 94.763 24.1931 94.6543 24.3072C94.5456 24.4213 94.3972 24.489 94.2399 24.4963L94.1693 24.501C94.0983 24.5049 94.0274 24.4931 93.9614 24.4664C93.8953 24.4397 93.8357 24.3988 93.7865 24.3465C93.7374 24.2942 93.6999 24.2316 93.6767 24.1631C93.6534 24.0947 93.6448 24.0218 93.6516 23.9497C93.6956 23.4878 93.6767 21.031 93.5952 16.5791C93.4775 10.2076 85.8258 11.1077 85.5716 16.8665C85.4838 18.9087 85.4713 21.2949 85.534 24.0251C85.5353 24.076 85.5263 24.1266 85.5077 24.174C85.4891 24.2214 85.4613 24.2646 85.4257 24.3011C85.3902 24.3375 85.3478 24.3665 85.3009 24.3863C85.254 24.406 85.2037 24.4162 85.1528 24.4162H84.6681C84.5882 24.4162 84.5116 24.3844 84.4552 24.3279C84.3987 24.2713 84.3669 24.1946 84.3669 24.1146V11.5318C84.3669 11.4781 84.3883 11.4265 84.4262 11.3885C84.4642 11.3505 84.5156 11.3292 84.5693 11.3292H85.2846C85.347 11.3292 85.4068 11.354 85.451 11.3982C85.4951 11.4424 85.5199 11.5023 85.5199 11.5648V13.3509Z" fill="white"/>
<path d="M122.88 12.4744C122.904 12.4897 122.925 12.5103 122.94 12.5345C122.955 12.5588 122.965 12.586 122.968 12.6142C122.971 12.6424 122.968 12.6708 122.958 12.6972C122.949 12.7236 122.933 12.7473 122.913 12.7666L122.31 13.3698C122.274 13.4069 122.227 13.4303 122.175 13.4363C122.124 13.4424 122.072 13.4305 122.028 13.4028C120.489 12.4461 117.854 11.6874 116.235 12.842C114.758 13.8976 115.082 15.6554 116.762 16.367C116.812 16.389 118.171 16.8729 120.838 17.8185C124.758 19.2135 123.543 23.9167 119.816 24.5152C117.642 24.8639 115.57 24.3188 113.6 22.8799C113.566 22.8555 113.538 22.824 113.517 22.7878C113.497 22.7516 113.484 22.7115 113.481 22.6702C113.477 22.6289 113.482 22.5875 113.497 22.5489C113.511 22.5102 113.533 22.4752 113.562 22.4463L114.028 21.9798C114.071 21.9365 114.128 21.9103 114.19 21.9059C114.251 21.9016 114.312 21.9195 114.362 21.9562C115.995 23.158 119.318 24.2513 121.096 22.7809C122.696 21.4614 122.009 19.468 120.136 18.8647C117.186 17.9222 113.327 17.2672 114.165 13.9165C115.129 10.0427 120.245 10.8061 122.88 12.4744Z" fill="white"/>
<path d="M128.376 22.0128V28.111C128.376 28.241 128.324 28.3656 128.232 28.4575C128.139 28.5494 128.013 28.6011 127.882 28.6011H127.694C127.554 28.6011 127.42 28.546 127.321 28.4479C127.223 28.3498 127.167 28.2167 127.167 28.078V11.5507C127.167 11.4932 127.19 11.4381 127.23 11.3974C127.271 11.3568 127.326 11.334 127.383 11.334H128.165C128.222 11.334 128.277 11.3568 128.318 11.3974C128.358 11.4381 128.381 11.4932 128.381 11.5507V13.9259C128.382 13.9525 128.39 13.9783 128.406 14C128.421 14.0217 128.442 14.0382 128.467 14.0473C128.492 14.0565 128.519 14.0579 128.545 14.0514C128.571 14.0449 128.594 14.0307 128.612 14.0107C128.671 13.9353 128.838 13.7107 129.111 13.3368C130.875 10.9004 134.132 10.514 136.574 11.7392C138.866 12.8844 140.089 15.2454 140.108 17.7997C140.155 24.1099 132.659 27.4559 128.678 21.9138C128.658 21.884 128.628 21.8616 128.594 21.85C128.56 21.8383 128.524 21.8381 128.49 21.8493C128.456 21.8605 128.426 21.8825 128.406 21.912C128.385 21.9415 128.375 21.9769 128.376 22.0128ZM133.408 12.2375C132.017 12.2861 130.704 12.9282 129.757 14.0225C128.811 15.1168 128.309 16.5737 128.361 18.0726C128.387 18.8148 128.548 19.545 128.835 20.2215C129.123 20.898 129.531 21.5075 130.036 22.0153C130.541 22.5231 131.134 22.9192 131.78 23.1809C132.426 23.4427 133.113 23.5651 133.802 23.541C135.192 23.4923 136.506 22.8502 137.452 21.7559C138.398 20.6617 138.901 19.2048 138.848 17.7059C138.823 16.9637 138.661 16.2335 138.374 15.557C138.086 14.8805 137.678 14.271 137.173 13.7632C136.668 13.2554 136.075 12.8593 135.429 12.5975C134.783 12.3358 134.096 12.2134 133.408 12.2375Z" fill="white"/>
<path d="M144.65 14.727C144.648 14.7454 144.652 14.7638 144.663 14.7789C144.674 14.7939 144.69 14.8044 144.708 14.8085C144.726 14.8126 144.745 14.8099 144.761 14.8009C144.777 14.792 144.789 14.7774 144.795 14.76C145.937 12.4037 147.791 11.1926 150.358 11.1266C150.37 11.1259 150.383 11.128 150.395 11.1327C150.407 11.1374 150.418 11.1446 150.427 11.1538C150.437 11.1631 150.444 11.1742 150.449 11.1865C150.454 11.1989 150.457 11.2121 150.457 11.2255V12.2812C150.457 12.3256 150.441 12.3685 150.411 12.4016C150.381 12.4347 150.341 12.4556 150.297 12.4603C143.925 13.1106 144.588 18.8506 144.65 23.945C144.651 24.0163 144.638 24.0872 144.611 24.1535C144.585 24.2197 144.546 24.2801 144.496 24.331C144.446 24.3819 144.386 24.4223 144.321 24.4499C144.255 24.4774 144.184 24.4916 144.113 24.4916H143.944C143.816 24.4916 143.694 24.441 143.604 24.3508C143.514 24.2607 143.464 24.1384 143.464 24.0109V11.579C143.464 11.514 143.489 11.4517 143.534 11.4057C143.579 11.3598 143.64 11.3339 143.704 11.3339H144.391C144.459 11.3339 144.525 11.3617 144.574 11.4112C144.622 11.4607 144.65 11.5278 144.65 11.5978V14.727Z" fill="white"/>
<path d="M161.2 13.5206C162.521 11.5884 164.389 10.8171 166.805 11.2067C170.202 11.7534 171.016 14.3689 171.016 17.4368C171.02 19.6832 171.012 21.8746 170.993 24.0109C170.992 24.1339 170.942 24.2513 170.855 24.3378C170.768 24.4243 170.65 24.4728 170.527 24.4728H170.301C170.178 24.4728 170.061 24.4243 169.973 24.3378C169.886 24.2513 169.836 24.1339 169.835 24.0109C169.832 22.6946 169.831 20.1968 169.831 16.5178C169.831 15.5785 169.592 14.7003 169.115 13.8835C168.07 12.1021 165.313 11.7298 163.605 12.5686C161.948 13.3761 161.081 14.7443 161.002 16.6734C160.933 18.3919 160.914 20.8362 160.946 24.0062C160.946 24.0599 160.937 24.1131 160.917 24.1628C160.897 24.2125 160.868 24.2578 160.83 24.2959C160.793 24.334 160.749 24.3643 160.7 24.385C160.651 24.4056 160.599 24.4162 160.546 24.4162H160.259C160.146 24.4162 160.039 24.3715 159.959 24.292C159.88 24.2125 159.835 24.1046 159.835 23.9921V11.645C159.835 11.601 159.844 11.5575 159.86 11.5169C159.877 11.4763 159.901 11.4394 159.932 11.4084C159.962 11.3773 159.999 11.3527 160.039 11.3358C160.079 11.319 160.121 11.3104 160.165 11.3104H160.631C160.719 11.3104 160.804 11.3456 160.867 11.4084C160.929 11.4711 160.965 11.5562 160.965 11.645V13.4499C160.964 13.4769 160.973 13.5029 160.989 13.5244C161.005 13.5459 161.028 13.5616 161.054 13.5694C161.08 13.5773 161.108 13.5768 161.134 13.568C161.16 13.5592 161.183 13.5426 161.2 13.5206Z" fill="white"/>
<path d="M185.313 20.8252C185.309 20.7943 185.296 20.7653 185.275 20.7417C185.255 20.7181 185.228 20.701 185.198 20.6925C185.168 20.684 185.136 20.6844 185.106 20.6938C185.077 20.7031 185.05 20.721 185.031 20.7451C182.456 24.0157 178.169 24.3644 175.223 21.4473C171.755 18.0165 173.943 11.5413 179.289 11.0701C181.589 10.8658 183.493 11.7251 185.002 13.6479C185.023 13.6727 185.051 13.6907 185.082 13.6992C185.114 13.7078 185.147 13.7067 185.178 13.6959C185.208 13.6852 185.235 13.6654 185.254 13.6391C185.273 13.6129 185.284 13.5814 185.285 13.5489V11.6026C185.285 11.5301 185.313 11.4606 185.365 11.4093C185.416 11.3581 185.485 11.3293 185.558 11.3293H186.315C186.389 11.3293 186.46 11.359 186.512 11.4121C186.564 11.4651 186.593 11.537 186.593 11.612C186.577 16.0199 186.577 18.5396 186.593 19.1711C186.674 22.3506 186.43 24.4461 185.859 25.4578C183.543 29.5578 177.882 29.1572 174.456 26.7679C174.397 26.7258 174.352 26.666 174.329 26.5972C174.307 26.5284 174.307 26.4544 174.329 26.3862L174.518 25.8395C174.532 25.7985 174.556 25.7613 174.587 25.7306C174.618 25.7 174.655 25.6768 174.696 25.6627C174.736 25.6486 174.78 25.6441 174.822 25.6494C174.865 25.6547 174.905 25.6698 174.941 25.6934C178.466 27.9413 184.442 28.6294 185.176 23.2193C185.324 22.1542 185.369 21.3562 185.313 20.8252ZM174.834 16.9631C174.802 17.619 174.906 18.275 175.14 18.8939C175.374 19.5127 175.734 20.0822 176.198 20.5698C176.663 21.0574 177.223 21.4536 177.847 21.7357C178.471 22.0179 179.147 22.1805 179.836 22.2142C181.227 22.2823 182.587 21.8215 183.617 20.9331C184.646 20.0447 185.261 18.8015 185.325 17.477C185.357 16.8212 185.254 16.1651 185.02 15.5463C184.785 14.9274 184.426 14.358 183.962 13.8703C183.497 13.3827 182.937 12.9866 182.313 12.7044C181.689 12.4223 181.013 12.2597 180.324 12.2259C178.933 12.1578 177.573 12.6186 176.543 13.507C175.514 14.3954 174.899 15.6386 174.834 16.9631Z" fill="white"/>
<path d="M199.543 12.4744C199.568 12.4897 199.588 12.5103 199.604 12.5345C199.619 12.5588 199.628 12.586 199.632 12.6142C199.635 12.6424 199.631 12.6708 199.622 12.6972C199.612 12.7236 199.597 12.7473 199.576 12.7666L198.974 13.3698C198.938 13.4069 198.89 13.4303 198.839 13.4363C198.787 13.4424 198.735 13.4305 198.692 13.4028C197.153 12.4461 194.518 11.6874 192.899 12.842C191.421 13.8976 191.746 15.6554 193.426 16.367C193.476 16.389 194.834 16.8729 197.501 17.8185C201.426 19.2135 200.212 23.9214 196.485 24.5199C194.307 24.8686 192.234 24.3236 190.263 22.8846C190.23 22.8602 190.201 22.8288 190.181 22.7925C190.16 22.7563 190.148 22.7162 190.144 22.6749C190.141 22.6337 190.146 22.5923 190.16 22.5536C190.174 22.5149 190.197 22.4799 190.226 22.4511L190.692 21.9845C190.735 21.9412 190.792 21.915 190.853 21.9106C190.915 21.9063 190.976 21.9242 191.026 21.9609C192.659 23.1627 195.986 24.256 197.765 22.7857C199.365 21.4614 198.678 19.468 196.8 18.8647C193.849 17.9222 189.991 17.2672 190.828 13.9165C191.793 10.0427 196.908 10.8061 199.543 12.4744Z" fill="white"/>
<path d="M73.2988 22.3757C72.9694 22.6867 72.8471 23.0826 72.2494 23.4879C69.931 25.0587 67.5953 25.1514 65.2424 23.7659C63.9278 22.993 63.3522 21.7803 63.5153 20.1278C63.6878 18.3841 64.7153 17.2452 66.5977 16.7111C68.5333 16.1613 70.458 16.1707 72.3718 16.7394C72.5483 16.7931 72.7366 16.7944 72.914 16.7433C73.0913 16.6921 73.25 16.5906 73.3709 16.451C73.4919 16.3115 73.5699 16.1398 73.5955 15.9568C73.6211 15.7738 73.5933 15.5873 73.5153 15.4198L72.9882 14.2794C72.7628 13.7919 72.4195 13.3688 71.9896 13.0486C71.5597 12.7284 71.0569 12.5213 70.5271 12.4461C68.629 12.176 66.9145 12.4273 65.3835 13.2002C65.3388 13.2227 65.29 13.2361 65.2402 13.2395C65.1903 13.2429 65.1403 13.2362 65.0933 13.2199C65.0463 13.2036 65.0032 13.178 64.9665 13.1447C64.9298 13.1113 64.9004 13.0709 64.88 13.0258L64.7247 12.6959C64.6824 12.6011 64.6762 12.4942 64.7075 12.3959C64.7388 12.2975 64.8053 12.2147 64.8941 12.1634C65.7694 11.6513 67.0008 11.3245 68.5882 11.1832C71.7553 10.8957 74.5035 12.4037 74.6588 15.7968C74.7216 17.1855 74.7357 19.966 74.7012 24.1382C74.7012 24.1741 74.6941 24.2096 74.6804 24.2428C74.6667 24.276 74.6466 24.3061 74.6212 24.3315C74.5959 24.3569 74.5658 24.377 74.5327 24.3907C74.4996 24.4045 74.4641 24.4115 74.4282 24.4115H73.7788C73.7177 24.4115 73.659 24.3872 73.6158 24.3439C73.5725 24.3006 73.5482 24.2419 73.5482 24.1806V22.4794C73.5481 22.4512 73.5397 22.4238 73.5239 22.4005C73.5082 22.3772 73.4858 22.359 73.4595 22.348C73.4332 22.3371 73.404 22.3339 73.3755 22.3388C73.347 22.3437 73.3204 22.3565 73.2988 22.3757ZM73.2424 17.9835C70.8988 17.3426 66.0706 16.7205 64.9835 19.3784C64.6227 20.255 64.6651 21.097 65.1106 21.9044C66.5977 24.6095 71.6941 23.7094 73.0212 21.2447C73.4384 20.4686 73.6031 19.4931 73.5153 18.3181C73.5095 18.2405 73.4802 18.1667 73.4313 18.1068C73.3824 18.0468 73.3164 18.0038 73.2424 17.9835Z" fill="white"/>
<path d="M154.586 11.3194L154.116 11.3202C153.962 11.3205 153.838 11.4452 153.838 11.5987L153.86 24.1343C153.86 24.2879 153.985 24.4122 154.138 24.4119L154.609 24.4111C154.762 24.4108 154.886 24.2861 154.886 24.1325L154.864 11.5969C154.864 11.4434 154.739 11.3191 154.586 11.3194Z" fill="white"/>
<path d="M29.4023 18.9307L40.5129 13.7751C40.5397 13.7622 40.5693 13.7564 40.5989 13.7583C40.6286 13.7601 40.6573 13.7695 40.6822 13.7855C40.7072 13.8016 40.7277 13.8238 40.7417 13.85C40.7557 13.8762 40.7628 13.9056 40.7623 13.9353V40.59C40.7623 40.6129 40.7578 40.6356 40.7491 40.6568C40.7403 40.6779 40.7275 40.6971 40.7113 40.7133C40.6952 40.7295 40.676 40.7424 40.6548 40.7511C40.6337 40.7599 40.6111 40.7644 40.5882 40.7644H22.0564C22.0287 40.7644 22.0014 40.7578 21.9768 40.7451C21.9521 40.7324 21.9309 40.714 21.9148 40.6914C21.8986 40.6688 21.8882 40.6427 21.8842 40.6152C21.8801 40.5878 21.8827 40.5597 21.8917 40.5335L29.3129 19.0344C29.3201 19.012 29.3317 18.9912 29.347 18.9734C29.3624 18.9556 29.3812 18.9411 29.4023 18.9307Z" fill="white"/>
<path d="M0 40.7738V32.7482L23.3553 21.8337C23.3832 21.8193 23.4148 21.8137 23.446 21.8176C23.4772 21.8216 23.5064 21.8349 23.5298 21.8558C23.5533 21.8768 23.5699 21.9043 23.5773 21.9349C23.5848 21.9654 23.5829 21.9975 23.5718 22.0269L17.2235 40.4063C17.1864 40.5137 17.117 40.6068 17.025 40.6727C16.9331 40.7386 16.8232 40.7739 16.7106 40.7738H0Z" fill="white"/>
<path d="M59.1854 32.5457L58.9219 32.5453C58.7711 32.545 58.6487 32.6672 58.6484 32.8181L58.6412 36.9935C58.6409 37.1445 58.7629 37.2671 58.9136 37.2673L59.1772 37.2678C59.3279 37.2681 59.4503 37.1459 59.4506 36.9949L59.4579 32.8195C59.4581 32.6686 59.3361 32.546 59.1854 32.5457Z" fill="white"/>
<path d="M65.0636 34.6144C65.3052 34.9349 65.5515 35.2663 65.8025 35.6088C65.8182 35.6309 65.8405 35.6474 65.8662 35.6559C65.8919 35.6644 65.9197 35.6644 65.9455 35.656C65.9712 35.6476 65.9936 35.6311 66.0093 35.6091C66.0251 35.587 66.0334 35.5605 66.0331 35.5334L66.0378 32.7953C66.0371 32.7553 66.0445 32.7156 66.0593 32.6785C66.0742 32.6413 66.0963 32.6075 66.1243 32.579C66.1523 32.5505 66.1857 32.5279 66.2226 32.5124C66.2594 32.497 66.299 32.489 66.3389 32.489L66.5178 32.4937C66.5561 32.4937 66.594 32.5014 66.6294 32.5163C66.6648 32.5312 66.697 32.5531 66.7241 32.5807C66.7512 32.6083 66.7727 32.641 66.7873 32.677C66.802 32.713 66.8095 32.7516 66.8095 32.7906L66.8048 36.8671C66.8033 36.9491 66.7775 37.0289 66.7306 37.0963C66.6837 37.1637 66.6179 37.2155 66.5418 37.2449C66.4657 37.2744 66.3828 37.2802 66.3039 37.2615C66.2249 37.2429 66.1535 37.2007 66.0989 37.1404C65.8699 36.8859 65.3303 36.2041 64.4801 35.0951C64.2385 34.7778 63.9923 34.4479 63.7413 34.1055C63.7264 34.0804 63.7034 34.0613 63.6761 34.0512C63.6488 34.0412 63.6188 34.0408 63.5913 34.0502C63.5637 34.0596 63.5402 34.0781 63.5247 34.1028C63.5092 34.1274 63.5026 34.1566 63.506 34.1856V36.9236C63.506 37.0036 63.4743 37.0803 63.4178 37.1369C63.3613 37.1934 63.2847 37.2252 63.2048 37.2252H63.026C62.9869 37.2259 62.9481 37.2185 62.9118 37.2036C62.8756 37.1887 62.8426 37.1665 62.815 37.1383C62.7873 37.1102 62.7655 37.0767 62.7508 37.0398C62.7361 37.0029 62.7289 36.9634 62.7295 36.9236L62.7342 32.8519C62.7338 32.7684 62.7586 32.6866 62.8053 32.6174C62.8521 32.5482 62.9186 32.4949 62.996 32.4646C63.0733 32.4344 63.1577 32.4286 63.2379 32.4481C63.3182 32.4676 63.3904 32.5115 63.4448 32.5738C63.6738 32.8283 64.2134 33.5085 65.0636 34.6144Z" fill="white"/>
<path d="M71.6095 32.5266C72.5162 32.5329 73.0715 32.5518 73.2754 32.5832C73.369 32.5838 73.4585 32.6216 73.5243 32.6884C73.59 32.7551 73.6266 32.8452 73.626 32.939C73.6253 33.0327 73.5876 33.1224 73.5209 33.1882C73.4543 33.2541 73.3643 33.2907 73.2707 33.2901L72.1836 33.3608C72.1304 33.3632 72.0801 33.3861 72.0433 33.4247C72.0064 33.4633 71.9859 33.5147 71.986 33.5681L72.0001 36.8905C72.0009 36.9697 71.9728 37.0467 71.921 37.1072C71.8691 37.1678 71.797 37.208 71.7177 37.2204C71.6958 37.2236 71.6471 37.2251 71.5719 37.2251C71.5028 37.222 71.4558 37.2188 71.4307 37.2157C71.3523 37.2022 71.2813 37.1616 71.2304 37.1012C71.1795 37.0407 71.1521 36.9643 71.153 36.8858L71.2142 33.5634C71.2155 33.51 71.1962 33.4581 71.1603 33.4186C71.1243 33.379 71.0745 33.355 71.0213 33.3513L69.9342 33.2665C69.8879 33.2659 69.8421 33.2561 69.7995 33.2378C69.7569 33.2195 69.7184 33.1929 69.686 33.1596C69.6537 33.1264 69.6282 33.0871 69.611 33.044C69.5939 33.0008 69.5854 32.9548 69.586 32.9083C69.5866 32.8619 69.5963 32.8161 69.6146 32.7734C69.6329 32.7308 69.6595 32.6922 69.6927 32.6598C69.7259 32.6274 69.7651 32.6019 69.8082 32.5847C69.8513 32.5675 69.8973 32.559 69.9436 32.5596C70.1444 32.5313 70.6997 32.5203 71.6095 32.5266Z" fill="white"/>
<path d="M79.7035 34.883C79.7506 35.2349 79.0902 35.3464 77.7224 35.2176C77.6647 35.2124 77.6065 35.2192 77.5516 35.2376C77.4967 35.2561 77.4462 35.2857 77.4033 35.3247C77.3604 35.3637 77.326 35.4111 77.3024 35.4641C77.2787 35.517 77.2663 35.5743 77.2659 35.6323V36.1319C77.2659 36.2256 77.3036 36.3155 77.3706 36.3818C77.4377 36.4481 77.5287 36.4853 77.6235 36.4853H79.68C79.7574 36.4853 79.8316 36.5166 79.8863 36.5723C79.941 36.6279 79.9718 36.7035 79.9718 36.7822V36.9377C79.9718 37.0127 79.942 37.0846 79.8891 37.1377C79.8361 37.1907 79.7643 37.2205 79.6894 37.2205H76.6777C76.6463 37.2205 76.6154 37.2142 76.5866 37.2019C76.5579 37.1896 76.5321 37.1715 76.5109 37.1489C76.4897 37.1263 76.4734 37.0997 76.4633 37.0706C76.4531 37.0415 76.4492 37.0107 76.4518 36.9801C76.4643 36.8293 76.4706 36.1319 76.4706 34.8877C76.4675 33.6404 76.4596 32.943 76.4471 32.7953C76.4445 32.7647 76.4484 32.7339 76.4586 32.7048C76.4687 32.6758 76.485 32.6491 76.5062 32.6265C76.5274 32.6039 76.5532 32.5859 76.5819 32.5736C76.6106 32.5612 76.6416 32.5549 76.673 32.555L79.6847 32.5455C79.7596 32.5455 79.8314 32.5753 79.8844 32.6284C79.9373 32.6814 79.9671 32.7533 79.9671 32.8283V32.9838C79.9671 33.0228 79.9595 33.0614 79.9449 33.0974C79.9302 33.1335 79.9087 33.1662 79.8816 33.1938C79.8545 33.2213 79.8224 33.2432 79.787 33.2581C79.7516 33.273 79.7136 33.2807 79.6753 33.2807L77.6188 33.2854C77.524 33.2854 77.433 33.3227 77.366 33.3889C77.2989 33.4552 77.2612 33.5451 77.2612 33.6389L77.2659 34.1384C77.2657 34.1968 77.2776 34.2546 77.301 34.3081C77.3243 34.3616 77.3586 34.4097 77.4016 34.4492C77.4445 34.4886 77.4953 34.5187 77.5505 34.5374C77.6058 34.5561 77.6643 34.5631 77.7224 34.5578C79.0902 34.4227 79.7506 34.5311 79.7035 34.883Z" fill="white"/>
<path d="M86.7577 36.9471C86.7778 36.9736 86.7901 37.0051 86.7933 37.0382C86.7965 37.0713 86.7905 37.1047 86.7758 37.1345C86.7611 37.1644 86.7385 37.1895 86.7103 37.2072C86.6822 37.2249 86.6497 37.2343 86.6165 37.2346H86.353C86.2263 37.2345 86.1016 37.204 85.9894 37.1458C85.8772 37.0876 85.7808 37.0033 85.7083 36.9L84.8989 35.7595C84.8222 35.6509 84.7131 35.5698 84.5873 35.5279C84.4614 35.4859 84.3253 35.4854 84.1987 35.5263C84.072 35.5672 83.9612 35.6474 83.8824 35.7554C83.8036 35.8633 83.7607 35.9935 83.76 36.1271V36.9377C83.76 37.0214 83.7263 37.1017 83.6663 37.1609C83.6063 37.2201 83.5249 37.2534 83.44 37.2534H83.2471C83.1697 37.2534 83.0955 37.2231 83.0408 37.1692C82.9861 37.1153 82.9553 37.0422 82.9553 36.9659V32.7811C82.9553 32.745 82.9625 32.7093 82.9763 32.6761C82.9901 32.6429 83.0104 32.6128 83.0359 32.5878C83.0613 32.5627 83.0915 32.5431 83.1246 32.5302C83.1576 32.5172 83.1929 32.5112 83.2283 32.5125C84.229 32.5345 84.9381 32.5659 85.3553 32.6067C86.4847 32.7246 87.0918 33.6907 86.6259 34.7133C86.4847 35.0243 86.1883 35.1657 85.9341 35.3495C85.9018 35.3729 85.8744 35.4024 85.8536 35.4365C85.8327 35.4705 85.8188 35.5083 85.8127 35.5478C85.8066 35.5872 85.8083 35.6275 85.8179 35.6663C85.8274 35.7051 85.8445 35.7416 85.8683 35.7736L86.7577 36.9471ZM83.7365 33.5493L83.7694 34.6897C83.77 34.7188 83.7764 34.7475 83.7881 34.7741C83.7997 34.8008 83.8166 34.8249 83.8375 34.845C83.8585 34.8651 83.8832 34.8809 83.9103 34.8915C83.9374 34.902 83.9663 34.9071 83.9953 34.9065L85.0494 34.8735C85.175 34.87 85.2989 34.8487 85.4139 34.811C85.529 34.7733 85.633 34.7199 85.72 34.6538C85.807 34.5877 85.8752 34.5102 85.9209 34.4258C85.9665 34.3414 85.9886 34.2517 85.9859 34.1619L85.9765 33.9451C85.9713 33.764 85.8657 33.5933 85.6831 33.4705C85.5004 33.3476 85.2556 33.2827 85.0024 33.2901L83.9483 33.3231C83.8904 33.3255 83.8359 33.3506 83.7963 33.3929C83.7567 33.4352 83.7352 33.4913 83.7365 33.5493Z" fill="white"/>
<path d="M92.2212 34.652C92.4628 34.9662 92.709 35.2929 92.96 35.6323C92.9757 35.6544 92.998 35.6709 93.0238 35.6793C93.0495 35.6878 93.0772 35.6879 93.103 35.6795C93.1287 35.671 93.1511 35.6546 93.1669 35.6325C93.1826 35.6105 93.191 35.584 93.1906 35.5568V32.8282C93.1906 32.7482 93.2223 32.6715 93.2788 32.615C93.3353 32.5584 93.4119 32.5266 93.4918 32.5266H93.6706C93.748 32.5266 93.8222 32.5579 93.8769 32.6136C93.9316 32.6693 93.9624 32.7448 93.9624 32.8235V36.8858C93.9629 36.9681 93.9384 37.0485 93.8922 37.1165C93.846 37.1845 93.7802 37.2368 93.7036 37.2665C93.627 37.2961 93.5432 37.3017 93.4634 37.2826C93.3835 37.2634 93.3113 37.2204 93.2565 37.1591C93.0275 36.9078 92.4879 36.2308 91.6377 35.128C91.3992 34.8107 91.1545 34.4808 90.9035 34.1383C90.8876 34.1158 90.8649 34.0991 90.8387 34.0907C90.8124 34.0823 90.7842 34.0826 90.7582 34.0917C90.7322 34.1007 90.7098 34.1179 90.6944 34.1408C90.6791 34.1637 90.6715 34.1909 90.673 34.2185V36.9471C90.673 37.0271 90.6412 37.1038 90.5847 37.1603C90.5283 37.2169 90.4517 37.2487 90.3718 37.2487H90.193C90.1546 37.2487 90.1167 37.241 90.0813 37.2261C90.0459 37.2112 90.0137 37.1893 89.9866 37.1617C89.9596 37.1342 89.9381 37.1014 89.9234 37.0654C89.9087 37.0294 89.9012 36.9908 89.9012 36.9518V32.8895C89.8997 32.8068 89.9235 32.7257 89.9693 32.657C90.0151 32.5882 90.0809 32.5352 90.1577 32.5049C90.2345 32.4747 90.3187 32.4687 90.399 32.4877C90.4794 32.5067 90.552 32.5499 90.6071 32.6114C90.8361 32.8659 91.3741 33.5461 92.2212 34.652Z" fill="white"/>
<path d="M99.2423 32.5126C99.4776 32.5126 99.6282 32.5895 99.694 32.7435C100.318 34.1761 100.93 35.5836 101.529 36.966C101.54 36.9918 101.545 37.0198 101.542 37.0476C101.539 37.0754 101.53 37.1021 101.515 37.1255C101.499 37.1488 101.478 37.1679 101.454 37.1812C101.429 37.1945 101.402 37.2015 101.374 37.2017H101.073C101.002 37.2019 100.932 37.1815 100.872 37.1431C100.812 37.1047 100.764 37.0497 100.734 36.9849L100.485 36.4429C100.445 36.3569 100.382 36.2841 100.303 36.2331C100.223 36.1822 100.131 36.1552 100.038 36.1554C99.9152 36.1554 99.6454 36.1554 99.2282 36.1554C98.8109 36.1523 98.5411 36.1523 98.4187 36.1554C98.3255 36.1548 98.2339 36.181 98.1547 36.2311C98.0755 36.2812 98.012 36.3531 97.9717 36.4382L97.7176 36.9802C97.6878 37.045 97.64 37.0999 97.5799 37.1384C97.5199 37.1768 97.45 37.1971 97.3787 37.1969L97.0776 37.1922C97.0497 37.1921 97.0223 37.1851 96.9977 37.1718C96.9732 37.1585 96.9523 37.1393 96.937 37.116C96.9216 37.0927 96.9122 37.066 96.9097 37.0382C96.9071 37.0103 96.9114 36.9823 96.9223 36.9566C97.5278 35.5774 98.1442 34.1714 98.7717 32.7388C98.8407 32.588 98.9976 32.5126 99.2423 32.5126ZM99.2282 35.4156C99.5544 35.4093 99.7458 35.3951 99.8023 35.3731C99.8351 35.3617 99.8652 35.3437 99.8908 35.3201C99.9164 35.2965 99.9368 35.268 99.951 35.2362C99.9651 35.2044 99.9725 35.17 99.9729 35.1352C99.9732 35.1004 99.9664 35.0659 99.9529 35.0338C99.5544 34.1039 99.2987 33.6405 99.1858 33.6436C99.076 33.6468 98.8438 34.1227 98.4893 35.0715C98.4776 35.104 98.4726 35.1385 98.4746 35.1729C98.4766 35.2073 98.4856 35.241 98.501 35.2719C98.5164 35.3027 98.5379 35.3301 98.5642 35.3524C98.5905 35.3747 98.6211 35.3913 98.654 35.4014C98.7136 35.4203 98.905 35.425 99.2282 35.4156Z" fill="white"/>
<path d="M105.454 37.2487C105.382 37.2487 105.333 37.2455 105.308 37.2393C105.231 37.2259 105.16 37.1855 105.109 37.1251C105.058 37.0647 105.031 36.9883 105.031 36.9094L105.087 33.5587C105.087 33.5053 105.067 33.4539 105.03 33.4153C104.993 33.3767 104.943 33.3538 104.889 33.3513L103.793 33.2665C103.706 33.2553 103.626 33.2125 103.568 33.1461C103.511 33.0797 103.48 32.9944 103.481 32.9065C103.482 32.8186 103.515 32.7341 103.575 32.6693C103.634 32.6045 103.715 32.5637 103.802 32.5549C104.003 32.5266 104.562 32.5141 105.478 32.5172C106.394 32.5235 106.952 32.5408 107.153 32.569C107.24 32.5791 107.321 32.6209 107.379 32.6865C107.437 32.7521 107.47 32.8369 107.47 32.9248C107.47 33.0127 107.437 33.0975 107.379 33.1632C107.321 33.2288 107.24 33.2706 107.153 33.2806L106.061 33.356C106.007 33.3573 105.956 33.3797 105.918 33.4184C105.88 33.4572 105.859 33.5092 105.859 33.5634L105.882 36.9094C105.884 36.9891 105.856 37.0667 105.805 37.128C105.754 37.1894 105.683 37.2305 105.605 37.244C105.58 37.2471 105.529 37.2487 105.454 37.2487Z" fill="white"/>
<path d="M110.828 32.5455H110.64C110.471 32.5455 110.334 32.6827 110.334 32.8519V36.933C110.334 37.1022 110.471 37.2393 110.64 37.2393H110.828C110.997 37.2393 111.134 37.1022 111.134 36.933V32.8519C111.134 32.6827 110.997 32.5455 110.828 32.5455Z" fill="white"/>
<path d="M119.106 34.9112C119.106 35.5562 118.85 36.1747 118.395 36.6307C117.939 37.0867 117.322 37.3429 116.678 37.3429C116.034 37.3429 115.416 37.0867 114.961 36.6307C114.505 36.1747 114.25 35.5562 114.25 34.9112C114.25 34.2663 114.505 33.6478 114.961 33.1917C115.416 32.7357 116.034 32.4795 116.678 32.4795C117.322 32.4795 117.939 32.7357 118.395 33.1917C118.85 33.6478 119.106 34.2663 119.106 34.9112ZM118.306 34.9018C118.306 34.6883 118.264 34.4769 118.182 34.2796C118.101 34.0823 117.981 33.9031 117.83 33.7521C117.68 33.6012 117.501 33.4814 117.304 33.3997C117.107 33.318 116.896 33.2759 116.682 33.2759C116.252 33.2759 115.839 33.4472 115.534 33.7521C115.23 34.057 115.059 34.4706 115.059 34.9018C115.059 35.333 115.23 35.7465 115.534 36.0515C115.839 36.3564 116.252 36.5277 116.682 36.5277C116.896 36.5277 117.107 36.4856 117.304 36.4039C117.501 36.3222 117.68 36.2024 117.83 36.0515C117.981 35.9005 118.101 35.7212 118.182 35.524C118.264 35.3267 118.306 35.1153 118.306 34.9018Z" fill="white"/>
<path d="M124.475 34.6097C124.714 34.9301 124.958 35.2632 125.209 35.6087C125.225 35.6298 125.246 35.6452 125.271 35.653C125.296 35.6608 125.323 35.6606 125.348 35.6524C125.373 35.6442 125.395 35.6284 125.412 35.6071C125.428 35.5858 125.438 35.5601 125.44 35.5333L125.454 32.7859C125.453 32.7459 125.461 32.7061 125.476 32.669C125.49 32.6319 125.513 32.5981 125.541 32.5695C125.569 32.541 125.602 32.5184 125.639 32.503C125.676 32.4875 125.715 32.4795 125.755 32.4796H125.934C125.973 32.4789 126.012 32.4863 126.048 32.5012C126.084 32.5161 126.117 32.5383 126.145 32.5664C126.173 32.5946 126.195 32.6281 126.209 32.665C126.224 32.7019 126.231 32.7414 126.23 32.7812L126.216 36.8717C126.215 36.9539 126.19 37.0339 126.143 37.1014C126.096 37.1688 126.03 37.2206 125.954 37.2501C125.877 37.2796 125.794 37.2853 125.714 37.2666C125.634 37.2478 125.561 37.2055 125.506 37.1451C125.277 36.8906 124.737 36.2057 123.887 35.0904C123.642 34.773 123.394 34.4416 123.143 34.096C123.128 34.075 123.106 34.0595 123.081 34.0517C123.057 34.0439 123.03 34.0441 123.005 34.0524C122.98 34.0606 122.957 34.0764 122.941 34.0977C122.925 34.1189 122.915 34.1447 122.913 34.1714L122.903 36.9189C122.904 36.9593 122.897 36.9994 122.881 37.0368C122.866 37.0743 122.844 37.1083 122.815 37.1369C122.787 37.1655 122.753 37.188 122.715 37.2032C122.678 37.2183 122.638 37.2258 122.598 37.2252L122.419 37.2205C122.38 37.2205 122.342 37.2128 122.307 37.1979C122.272 37.183 122.239 37.1611 122.212 37.1335C122.185 37.106 122.164 37.0732 122.149 37.0372C122.134 37.0012 122.127 36.9626 122.127 36.9236L122.141 32.833C122.142 32.7508 122.167 32.6708 122.214 32.6034C122.261 32.5359 122.327 32.4841 122.404 32.4546C122.48 32.4252 122.564 32.4194 122.644 32.4382C122.724 32.4569 122.796 32.4992 122.852 32.5597C123.081 32.8141 123.622 33.4975 124.475 34.6097Z" fill="white"/>
<path d="M131.543 36.1648C131.123 36.1648 130.85 36.1648 130.725 36.1648C130.63 36.1655 130.538 36.1934 130.458 36.2452C130.379 36.297 130.316 36.3705 130.278 36.457L130.023 36.9989C129.994 37.065 129.946 37.1211 129.885 37.1604C129.824 37.1997 129.753 37.2206 129.68 37.2204H129.379C129.35 37.2207 129.322 37.2137 129.297 37.2001C129.272 37.1866 129.251 37.1669 129.235 37.143C129.22 37.119 129.211 37.0915 129.208 37.063C129.206 37.0346 129.212 37.006 129.223 36.9801C129.829 35.5883 130.449 34.1698 131.082 32.7246C131.148 32.5706 131.303 32.4937 131.548 32.4937C131.787 32.4937 131.939 32.5706 132.005 32.7246C132.638 34.1698 133.258 35.5883 133.863 36.9801C133.875 37.006 133.88 37.0346 133.878 37.063C133.876 37.0915 133.867 37.119 133.852 37.143C133.836 37.1669 133.815 37.1866 133.79 37.2001C133.765 37.2137 133.737 37.2207 133.708 37.2204H133.407C133.334 37.2206 133.263 37.1997 133.202 37.1604C133.141 37.1211 133.093 37.065 133.063 36.9989L132.809 36.457C132.771 36.3705 132.708 36.297 132.629 36.2452C132.549 36.1934 132.457 36.1655 132.362 36.1648C132.237 36.1648 131.964 36.1648 131.543 36.1648ZM131.562 35.3872C131.813 35.3841 131.983 35.3715 132.07 35.3495C132.103 35.3416 132.133 35.327 132.159 35.3066C132.185 35.2861 132.207 35.2604 132.223 35.231C132.238 35.2016 132.247 35.1693 132.249 35.1361C132.252 35.1029 132.247 35.0696 132.235 35.0385C131.906 34.1494 131.674 33.7064 131.539 33.7095C131.404 33.7095 131.184 34.1588 130.88 35.0573C130.87 35.0883 130.866 35.1209 130.87 35.1533C130.873 35.1856 130.883 35.2169 130.899 35.2452C130.915 35.2736 130.936 35.2983 130.962 35.3179C130.988 35.3374 131.018 35.3514 131.049 35.3589C131.14 35.3809 131.311 35.3904 131.562 35.3872Z" fill="white"/>
<path d="M136.828 32.7529C136.828 32.6979 136.85 32.6452 136.889 32.6063C136.928 32.5674 136.98 32.5455 137.035 32.5455H137.445C137.498 32.5455 137.55 32.5669 137.588 32.6049C137.626 32.6429 137.647 32.6944 137.647 32.7482V36.2355C137.647 36.3143 137.678 36.3898 137.734 36.4455C137.789 36.5012 137.865 36.5324 137.943 36.5324H139.958C140.017 36.5324 140.075 36.5563 140.117 36.5987C140.16 36.6411 140.183 36.6986 140.183 36.7586V36.9519C140.183 37.0181 140.157 37.0816 140.109 37.1285C140.061 37.1753 139.997 37.2016 139.929 37.2016H137.078C137.011 37.2016 136.948 37.1753 136.901 37.1285C136.854 37.0816 136.828 37.0181 136.828 36.9519V32.7529Z" fill="white"/>
<path d="M149.078 36.1318C148.664 36.1287 148.395 36.1271 148.273 36.1271C148.179 36.1264 148.087 36.1527 148.008 36.2028C147.929 36.253 147.866 36.3248 147.826 36.4099L147.576 36.9471C147.547 37.0119 147.5 37.0668 147.44 37.1053C147.38 37.1438 147.309 37.1641 147.238 37.1639L146.936 37.1592C146.908 37.1584 146.881 37.1507 146.856 37.1369C146.832 37.1232 146.811 37.1037 146.796 37.0804C146.781 37.057 146.773 37.0304 146.771 37.003C146.769 36.9757 146.774 36.9483 146.786 36.9236C147.388 35.5537 148.005 34.1572 148.635 32.734C148.701 32.5832 148.855 32.5078 149.096 32.5078C149.332 32.511 149.482 32.5879 149.548 32.7387C150.166 34.1651 150.772 35.5663 151.365 36.9424C151.377 36.9675 151.382 36.9953 151.38 37.023C151.378 37.0508 151.368 37.0776 151.353 37.1011C151.337 37.1246 151.316 37.144 151.291 37.1574C151.266 37.1709 151.238 37.178 151.209 37.178H150.913C150.841 37.1783 150.771 37.1579 150.711 37.1194C150.651 37.081 150.603 37.026 150.574 36.9613L150.329 36.4193C150.29 36.3334 150.228 36.2605 150.148 36.2095C150.069 36.1585 149.977 36.1316 149.882 36.1318C149.76 36.1318 149.492 36.1318 149.078 36.1318ZM149.049 35.3778C149.376 35.3778 149.567 35.3684 149.624 35.3495C149.656 35.338 149.685 35.3201 149.711 35.2969C149.736 35.2737 149.756 35.2456 149.77 35.2144C149.784 35.1831 149.792 35.1493 149.792 35.1151C149.793 35.0808 149.787 35.0467 149.774 35.0149C149.404 34.085 149.162 33.62 149.049 33.62C148.94 33.62 148.698 34.085 148.325 35.0149C148.312 35.047 148.306 35.0814 148.307 35.1159C148.308 35.1504 148.316 35.1843 148.331 35.2156C148.345 35.2469 148.366 35.2749 148.392 35.2979C148.417 35.321 148.447 35.3385 148.48 35.3495C148.536 35.3684 148.726 35.3778 149.049 35.3778Z" fill="white"/>
<path d="M155.082 32.5224L154.621 32.5216C154.517 32.5214 154.432 32.6056 154.432 32.7097L154.425 37.0171C154.424 37.1212 154.508 37.2057 154.612 37.2059L155.074 37.2067C155.178 37.2069 155.262 37.1227 155.262 37.0186L155.27 32.7112C155.27 32.6071 155.186 32.5226 155.082 32.5224Z" fill="white"/>
<path d="M162.334 36.9376C162.354 36.9649 162.365 36.9972 162.368 37.0308C162.371 37.0643 162.364 37.0978 162.349 37.1273C162.333 37.1569 162.31 37.1813 162.282 37.1977C162.254 37.2142 162.221 37.2221 162.188 37.2204H161.929C161.804 37.2195 161.682 37.1887 161.571 37.1305C161.461 37.0723 161.366 36.9884 161.294 36.8858L160.503 35.7501C160.429 35.6401 160.32 35.5572 160.195 35.5134C160.069 35.4696 159.933 35.4674 159.806 35.5069C159.679 35.5465 159.568 35.6258 159.49 35.7332C159.411 35.8406 159.369 35.9704 159.369 36.1035L159.365 36.9047C159.365 36.9459 159.356 36.9867 159.34 37.0248C159.324 37.0628 159.3 37.0973 159.271 37.1263C159.241 37.1552 159.206 37.178 159.167 37.1934C159.128 37.2087 159.086 37.2163 159.045 37.2157H158.856C158.818 37.2157 158.781 37.2082 158.745 37.1937C158.71 37.1792 158.678 37.1579 158.652 37.1312C158.625 37.1044 158.604 37.0727 158.59 37.0379C158.576 37.003 158.569 36.9657 158.569 36.9282L158.602 32.7858C158.602 32.7503 158.609 32.7152 158.623 32.6826C158.637 32.65 158.656 32.6204 158.682 32.5958C158.707 32.5712 158.736 32.5519 158.769 32.5392C158.801 32.5265 158.836 32.5206 158.871 32.5219C159.862 32.5533 160.565 32.5894 160.979 32.6303C162.094 32.7575 162.687 33.7189 162.216 34.7274C162.075 35.0337 161.783 35.1704 161.529 35.3495C161.497 35.372 161.469 35.4009 161.448 35.4344C161.427 35.4678 161.412 35.5052 161.406 35.5443C161.399 35.5834 161.4 35.6234 161.41 35.662C161.419 35.7005 161.435 35.7369 161.459 35.7689L162.334 36.9376ZM159.355 33.6765L159.393 34.5907C159.395 34.6353 159.405 34.6791 159.424 34.7196C159.443 34.76 159.469 34.7964 159.502 34.8266C159.535 34.8568 159.573 34.8803 159.615 34.8956C159.657 34.9109 159.701 34.9178 159.746 34.9159L160.518 34.8829C160.662 34.8768 160.805 34.8512 160.937 34.8077C161.069 34.7641 161.188 34.7033 161.287 34.6289C161.386 34.5545 161.464 34.4679 161.515 34.374C161.566 34.2801 161.59 34.1808 161.586 34.0818L161.581 33.997C161.573 33.7975 161.449 33.6111 161.237 33.4785C161.026 33.346 160.743 33.2782 160.452 33.2901L159.68 33.323C159.635 33.3249 159.592 33.3355 159.551 33.3542C159.511 33.373 159.475 33.3995 159.444 33.4323C159.414 33.4652 159.391 33.5036 159.376 33.5455C159.36 33.5874 159.353 33.6319 159.355 33.6765Z" fill="white"/>
<path d="M165.421 37.0083V32.8706C165.421 32.7813 165.456 32.6954 165.518 32.6305C165.58 32.5656 165.665 32.5267 165.755 32.5219C166.894 32.4685 167.78 32.5989 168.414 32.913C168.62 33.0161 168.779 33.1927 168.861 33.4079C169.26 34.4572 168.969 35.1845 167.991 35.5898C167.873 35.6396 167.745 35.6652 167.614 35.6652H166.541C166.451 35.6652 166.365 35.701 166.302 35.7646C166.238 35.8282 166.202 35.9145 166.202 36.0045V37.0272C166.202 37.0759 166.183 37.1227 166.149 37.1571C166.114 37.1916 166.067 37.211 166.019 37.211H165.624C165.57 37.211 165.518 37.1896 165.48 37.1516C165.442 37.1136 165.421 37.0621 165.421 37.0083ZM166.188 33.6294L166.207 34.7133C166.208 34.7545 166.216 34.7952 166.233 34.8331C166.249 34.8709 166.273 34.905 166.303 34.9335C166.333 34.9621 166.368 34.9843 166.406 34.9991C166.445 35.0139 166.486 35.0208 166.527 35.0196L167.228 35.0055C167.361 35.0031 167.491 34.9799 167.613 34.9374C167.734 34.8949 167.844 34.8338 167.936 34.7577C168.029 34.6815 168.101 34.5918 168.15 34.4936C168.199 34.3954 168.223 34.2907 168.221 34.1855V34.0818C168.217 33.8694 168.108 33.6676 167.916 33.5209C167.725 33.3742 167.467 33.2946 167.2 33.2995L166.494 33.3136C166.453 33.3142 166.413 33.3229 166.376 33.3391C166.338 33.3553 166.304 33.3787 166.276 33.408C166.247 33.4374 166.225 33.472 166.21 33.51C166.195 33.5479 166.188 33.5885 166.188 33.6294Z" fill="white"/>
<path d="M176.616 34.9207C176.616 35.2401 176.554 35.5563 176.432 35.8513C176.31 36.1463 176.131 36.4144 175.905 36.6402C175.68 36.866 175.412 37.0452 175.117 37.1674C174.823 37.2896 174.507 37.3525 174.188 37.3525C173.869 37.3525 173.554 37.2896 173.259 37.1674C172.964 37.0452 172.697 36.866 172.471 36.6402C172.246 36.4144 172.067 36.1463 171.945 35.8513C171.823 35.5563 171.76 35.2401 171.76 34.9207C171.76 34.2758 172.016 33.6573 172.471 33.2012C172.927 32.7452 173.544 32.489 174.188 32.489C174.832 32.489 175.45 32.7452 175.905 33.2012C176.361 33.6573 176.616 34.2758 176.616 34.9207ZM175.812 34.9019C175.812 34.4694 175.64 34.0547 175.335 33.7489C175.03 33.4431 174.615 33.2713 174.184 33.2713C173.752 33.2713 173.338 33.4431 173.032 33.7489C172.727 34.0547 172.555 34.4694 172.555 34.9019C172.555 35.3343 172.727 35.7491 173.032 36.0549C173.338 36.3607 173.752 36.5325 174.184 36.5325C174.615 36.5325 175.03 36.3607 175.335 36.0549C175.64 35.7491 175.812 35.3343 175.812 34.9019Z" fill="white"/>
<path d="M183.459 36.9613C183.479 36.9877 183.491 37.0193 183.494 37.0524C183.498 37.0855 183.492 37.1188 183.477 37.1487C183.462 37.1785 183.44 37.2037 183.411 37.2214C183.383 37.239 183.351 37.2485 183.318 37.2487H183.049C182.922 37.2477 182.797 37.2164 182.685 37.1573C182.573 37.0983 182.477 37.0133 182.405 36.9094L181.595 35.7548C181.518 35.6443 181.408 35.5612 181.281 35.5178C181.154 35.4743 181.016 35.4727 180.888 35.5132C180.76 35.5538 180.648 35.6343 180.568 35.743C180.489 35.8518 180.446 35.983 180.447 36.1177V36.933C180.447 36.9748 180.439 37.0163 180.422 37.0549C180.406 37.0935 180.382 37.1285 180.352 37.1579C180.321 37.1873 180.286 37.2105 180.246 37.2261C180.207 37.2416 180.165 37.2494 180.122 37.2487H179.925C179.886 37.2487 179.848 37.2411 179.812 37.2264C179.776 37.2116 179.744 37.1901 179.717 37.1629C179.689 37.1357 179.668 37.1034 179.654 37.068C179.639 37.0326 179.632 36.9947 179.633 36.9565L179.661 32.7482C179.661 32.7121 179.668 32.6764 179.682 32.6431C179.696 32.6099 179.716 32.5799 179.742 32.5548C179.767 32.5297 179.797 32.5102 179.83 32.4972C179.863 32.4843 179.899 32.4783 179.934 32.4795C180.941 32.5078 181.655 32.5439 182.075 32.5879C183.209 32.7105 183.816 33.686 183.341 34.7133C183.195 35.0244 182.899 35.1657 182.64 35.3495C182.608 35.3729 182.58 35.4024 182.559 35.4365C182.538 35.4705 182.525 35.5084 182.518 35.5478C182.512 35.5873 182.514 35.6276 182.524 35.6663C182.533 35.7051 182.55 35.7416 182.574 35.7737L183.459 36.9613ZM180.452 33.6577L180.461 34.5531C180.462 34.597 180.471 34.6404 180.488 34.6808C180.506 34.7212 180.531 34.7577 180.562 34.7883C180.594 34.819 180.631 34.8431 180.672 34.8593C180.712 34.8756 180.756 34.8836 180.8 34.883L181.694 34.8736C181.823 34.8719 181.951 34.8523 182.07 34.8158C182.189 34.7794 182.297 34.7268 182.387 34.6612C182.478 34.5955 182.549 34.518 182.597 34.4332C182.646 34.3483 182.67 34.2578 182.668 34.1667V33.9876C182.665 33.8041 182.559 33.6296 182.373 33.5024C182.187 33.3751 181.936 33.3056 181.675 33.309L180.781 33.3184C180.737 33.319 180.694 33.3283 180.654 33.3456C180.613 33.363 180.577 33.3882 180.546 33.4197C180.516 33.4512 180.492 33.4885 180.475 33.5293C180.459 33.5701 180.451 33.6138 180.452 33.6577Z" fill="white"/>
<path d="M188.047 37.2157C187.975 37.2157 187.926 37.2126 187.901 37.2063C187.824 37.1919 187.754 37.1508 187.704 37.0905C187.654 37.0301 187.627 36.9543 187.628 36.8764L187.694 33.5634C187.696 33.51 187.676 33.4581 187.64 33.4186C187.604 33.3791 187.555 33.355 187.501 33.3514L186.419 33.2618C186.333 33.2507 186.254 33.2084 186.197 33.1429C186.141 33.0774 186.11 32.9933 186.111 32.9065C186.112 32.8198 186.145 32.7365 186.204 32.6726C186.262 32.6086 186.342 32.5684 186.428 32.5596C186.629 32.5314 187.183 32.5219 188.09 32.5314C188.993 32.5377 189.547 32.5565 189.751 32.5879C189.844 32.5885 189.934 32.6264 190 32.6931C190.065 32.7598 190.102 32.85 190.101 32.9437C190.101 33.0375 190.063 33.1271 189.996 33.193C189.93 33.2588 189.84 33.2954 189.746 33.2948L188.659 33.3608C188.606 33.3632 188.555 33.3861 188.519 33.4248C188.482 33.4634 188.461 33.5148 188.461 33.5682L188.471 36.8811C188.472 36.9597 188.444 37.036 188.393 37.0965C188.342 37.157 188.271 37.1976 188.193 37.211C188.168 37.2142 188.119 37.2157 188.047 37.2157Z" fill="white"/>
</g>
<defs>
<clipPath id="clip0_1412_64909">
<rect width="200" height="41" fill="white"/>
</clipPath>
</defs>
</svg>
