<svg width="200" height="44" viewBox="0 0 200 44" fill="none" xmlns="http://www.w3.org/2000/svg">
<g clip-path="url(#clip0_1354_17129)">
<path d="M76.8494 21.6568C76.7255 21.4456 76.4866 21.3136 76.2388 21.3136H63.6547C63.3981 21.3136 63.168 21.4456 63.0441 21.6568C62.9202 21.868 62.9202 22.132 63.0441 22.352L69.3361 33.0088C69.46 33.22 69.699 33.352 69.9467 33.352C70.1945 33.352 70.4335 33.22 70.5574 33.0088L76.8494 22.352C76.9733 22.132 76.9733 21.868 76.8494 21.6568ZM69.9467 31.2752L64.876 22.6952H75.0175L69.9467 31.2752Z" fill="white"/>
<path d="M133.567 43.5424L139.779 33.0264C139.85 32.9208 139.903 32.7976 139.903 32.6568C139.903 32.5248 139.859 32.4104 139.797 32.3136C139.779 32.2784 139.762 32.2432 139.735 32.2168L133.505 21.6656C133.381 21.4544 133.142 21.3224 132.894 21.3224H120.301C120.045 21.3224 119.815 21.4544 119.691 21.6656C119.567 21.8768 119.567 22.1408 119.691 22.3608L125.372 31.9704H114.416L108.531 22L114.408 12.0384H126.593H126.611C126.62 12.0384 126.629 12.0296 126.638 12.0296C126.708 12.0296 126.77 12.012 126.832 11.9944C126.868 11.9856 126.903 11.968 126.939 11.9504C126.956 11.9416 126.983 11.924 127 11.9064C127.115 11.8272 127.213 11.7216 127.266 11.5896L133.505 1.0296C133.629 0.8184 133.629 0.5544 133.505 0.3344C133.381 0.132 133.151 0 132.894 0H120.301H107.717C107.461 0 107.231 0.132 107.107 0.3432C107.107 0.352 107.098 0.3608 107.098 0.3608L100.823 10.9824C100.823 10.9824 100.815 10.9824 100.815 10.9912L95.1244 20.6096L89.5049 11.0968C89.4872 11.0616 89.4695 11.0352 89.4518 11.0088L89.4429 10.9912C89.4252 10.956 89.4075 10.9208 89.381 10.8944L83.1509 0.3432C83.1244 0.2992 83.0978 0.264 83.0624 0.2376C82.9208 0.088 82.735 0 82.5314 0H69.9474H57.3544C57.0978 0 56.8677 0.132 56.7438 0.3432C56.7438 0.352 56.7438 0.3608 56.735 0.3608L50.4606 10.9824C50.4606 10.9824 50.4518 10.9824 50.4518 10.9912L44.1598 21.6568C44.1155 21.736 44.089 21.8152 44.0801 21.8944C44.0536 22.044 44.0801 22.2112 44.1598 22.3432L49.8412 31.9528H38.4695H27.1067L32.7881 22.3432C32.8058 22.308 32.8323 22.2816 32.85 22.2376L39.0713 11.704C39.1421 11.5984 39.1951 11.4752 39.1951 11.3344C39.1951 11.2024 39.1509 11.088 39.089 10.9912C39.0713 10.956 39.0536 10.9208 39.027 10.8944L32.7881 0.3432C32.6642 0.132 32.4341 0 32.1774 0H19.5934H7.00046C6.74382 0 6.51373 0.132 6.38984 0.3432L0.0978032 11C-0.0260906 11.2112 -0.0260906 11.4752 0.0978032 11.6952C0.221697 11.9064 0.460635 12.0384 0.708423 12.0384H13.3013C13.3102 12.0384 13.3102 12.0384 13.319 12.0384H24.6642L18.9828 21.6568L12.7173 32.2608C12.7084 32.2784 12.6907 32.2872 12.6819 32.3048C12.673 32.3224 12.673 32.3312 12.6642 32.3488L6.38984 42.9616C6.26594 43.1728 6.26594 43.4368 6.38984 43.6568C6.51373 43.868 6.74382 44 7.00046 44H19.5934C19.5934 44 19.6022 44 19.6111 44H32.1863C32.1951 44 32.1951 44 32.204 44H44.7792C44.7881 44 44.7881 44 44.7969 44C44.8058 44 44.8146 43.9912 44.8235 43.9912C44.8943 43.9912 44.9562 43.9736 45.0093 43.956C45.0447 43.9472 45.0801 43.9296 45.1155 43.912C45.1332 43.9032 45.1509 43.8856 45.1774 43.8768C45.3013 43.7976 45.3987 43.692 45.4518 43.56L51.0801 34.0384L56.7615 43.6568C56.8854 43.868 57.1244 44 57.3721 44C57.6288 44 57.8589 43.868 57.9828 43.6568L64.266 33.0352C64.3367 32.9208 64.3898 32.8064 64.3898 32.6568C64.3898 32.5248 64.3456 32.4104 64.2836 32.3136C64.2659 32.2784 64.2482 32.2432 64.2217 32.2168L58.1952 22.0088L64.0801 12.056H75.85L81.7173 22L75.6376 32.296L75.6288 32.3048C75.5668 32.4104 75.5403 32.5336 75.5403 32.6568C75.5403 32.78 75.5668 32.8944 75.6288 33L75.6376 33.0088L81.9208 43.648C82.0447 43.8592 82.2836 43.9912 82.5314 43.9912C82.7792 43.9912 83.0182 43.8592 83.1421 43.648L89.4252 33.0264C89.4518 32.9824 89.4872 32.9472 89.5049 32.9032L95.1244 23.3816L100.806 33L100.815 33.0088L107.098 43.648C107.222 43.8592 107.461 43.9912 107.708 43.9912H120.301H120.319H132.894H132.912C132.93 43.9912 132.939 43.9824 132.947 43.9824C133 43.9736 133.062 43.9648 133.115 43.9472C133.328 43.8944 133.496 43.7448 133.567 43.5424ZM107.717 2.0768L112.779 10.6568H102.646L107.717 2.0768ZM137.956 31.9616H127.815L132.885 23.3816L137.956 31.9616ZM102.646 31.9616L107.717 23.3816L112.779 31.9616H102.646ZM107.717 20.6184L106.169 17.996L102.655 12.0384H112.788L107.717 20.6184ZM116.54 5.676L114 9.9704L108.939 1.3904H119.08L116.54 5.676ZM112.779 33.3432L107.717 41.9232L102.646 33.3432H112.779ZM115.239 33.3432H125.372L120.301 41.9232L115.239 33.3432ZM126.593 34.0384L131.664 42.6184H121.531L126.593 34.0384ZM127.823 33.3432H137.965L132.894 41.9144L127.823 33.3432ZM131.673 22.6952L128.549 27.9752L126.593 31.2752L121.523 22.6952H131.673ZM120.301 2.0768L125.372 10.6568H115.231L120.301 2.0768ZM126.593 9.9616L121.523 1.3816H131.664L126.593 9.9616ZM101.416 12.7248L106.487 21.3136H96.3456L101.416 12.7248ZM57.3544 2.0768L62.4252 10.6568H52.2925L57.3544 2.0768ZM77.4695 10.648L82.5403 2.068L87.6111 10.648H77.4695ZM63.6553 9.9616L58.5845 1.3816H68.7261L63.6553 9.9616ZM52.2925 31.9616L57.3633 23.3816L62.4252 31.9616H52.2925ZM57.3544 20.6184L52.2925 12.0384H62.4252L57.3544 20.6184ZM69.9474 2.0768L71.1155 4.048L75.0182 10.6568H64.8766L69.9474 2.0768ZM87.6022 12.0384L82.5314 20.6184L77.4695 12.0384H87.6022ZM87.6022 31.9616H77.4695L82.5403 23.3904L87.6022 31.9616ZM88.8323 12.7248L93.9031 21.3136H83.7527L88.8323 12.7248ZM76.2394 9.9616L74.6288 7.2336L71.1686 1.3816H81.3013L76.2394 9.9616ZM51.0624 12.7248L56.1244 21.3048H45.9916L51.0624 12.7248ZM56.1332 22.6952L51.0624 31.2752L45.9916 22.6952H56.1332ZM14.5226 33.3432H24.6553L19.5845 41.9232L14.5226 33.3432ZM19.5934 23.3816L23.381 29.7968L24.6553 31.9528H14.5226L19.5934 23.3816ZM27.1067 33.3432H37.2482L32.1774 41.9232L27.1067 33.3432ZM38.4695 34.0384L43.5403 42.6184H33.4075L38.4695 34.0384ZM25.8854 31.2752L20.8146 22.6952H30.9562L25.8854 31.2752ZM37.2482 10.648H27.1067L32.1774 2.068L37.2482 10.648ZM32.1774 20.6184L27.1067 12.0384H37.2482L32.1774 20.6184ZM27.2571 7.6384L25.8854 9.9704L20.8146 1.3904H30.9562L27.2571 7.6384ZM13.2925 9.9616L8.2217 1.3816H18.3633L13.2925 9.9616ZM7.00046 2.0768L12.0713 10.6568H1.92966L7.00046 2.0768ZM19.5934 2.0768L24.6642 10.6568H14.5226L19.5934 2.0768ZM25.8854 12.7248L26.1598 13.1912L30.9562 21.3048H20.8146L25.8854 12.7248ZM13.2925 34.0384L18.3633 42.6184H8.2217L13.2925 34.0384ZM25.7792 34.2144L25.8854 34.0384L30.9562 42.6184H20.8146L25.7792 34.2144ZM44.7615 41.9232L42.0536 37.3384L39.6907 33.3432H49.8323L44.7615 41.9232ZM57.3544 41.9232L52.2925 33.3432H62.4252L57.3544 41.9232ZM82.5314 41.9232L77.4695 33.3432H87.6111L82.5314 41.9232ZM88.8323 31.2752L83.7615 22.6952H93.9031L88.8323 31.2752ZM106.487 22.6952L101.416 31.2752L96.3456 22.6952H106.487ZM114.009 34.0384L119.08 42.6184H108.939L114.009 34.0384Z" fill="white"/>
<path d="M146.363 0.255188H152.487V1.49599L149.885 5.13919L148.169 7.41839H152.593V8.82639H146.089V7.69999L148.885 3.79279L150.461 1.66319H146.363V0.255188Z" fill="white"/>
<path d="M153.372 8.8264L156.452 0.246399H158.381L161.487 8.8264H159.638L158.965 6.864H155.797L155.16 8.8264H153.372ZM158.115 4.3824L157.346 1.9184L156.593 4.4352L156.239 5.5176H158.505L158.115 4.3824Z" fill="white"/>
<path d="M169.557 4.58482V8.13122C168.69 8.63282 167.522 8.95842 166.478 8.95842C163.956 8.95842 162.292 7.53282 162.292 4.54082C162.292 1.52242 164.345 0.132019 166.814 0.132019C167.77 0.132019 168.708 0.369619 169.478 0.774419L168.885 2.34962C168.239 1.83042 167.469 1.54002 166.752 1.54002C165.212 1.54002 164.15 2.38482 164.15 4.50562C164.15 6.75842 165.301 7.55042 166.814 7.55042C167.159 7.55042 167.513 7.49762 167.841 7.39202V4.58482H169.557Z" fill="white"/>
<path d="M171.575 0.255188H174.557C176.903 0.255188 177.796 1.35519 177.796 3.02719C177.796 4.17119 177.283 5.05999 176.327 5.51759L178.363 8.82639H176.301L174.611 5.86959H173.327V8.82639H171.575V0.255188ZM175.947 3.05359C175.947 2.09439 175.54 1.67199 174.398 1.67199H173.327V4.47919H174.434C175.31 4.47919 175.947 4.11839 175.947 3.05359Z" fill="white"/>
<path d="M185.69 0.255188V1.66319H181.752V3.74879H185.283V5.14799H181.752V7.39199H185.673V8.82639H179.991V0.255188H185.69Z" fill="white"/>
<path d="M191.266 8.82639H187.69V0.255188H190.77C192.885 0.255188 193.549 1.18799 193.549 2.32319C193.549 2.99199 193.301 3.81039 192.159 4.20639V4.23279C193.77 4.42639 194.195 5.40319 194.195 6.23919C194.195 7.93759 193.115 8.82639 191.266 8.82639ZM190.452 1.66319H189.443V3.72239H190.363C191.266 3.72239 191.735 3.36159 191.735 2.61359C191.735 1.97999 191.301 1.66319 190.452 1.66319ZM189.443 5.03359V7.39199H190.921C191.947 7.39199 192.39 7.05759 192.39 6.23039C192.39 5.36799 191.823 5.02479 190.726 5.02479H189.443V5.03359Z" fill="white"/>
<path d="M145.699 22.44L148.779 13.86H150.708L153.814 22.44H151.965L151.292 20.4688H148.124L147.487 22.44H145.699ZM150.434 17.996L149.664 15.532L148.912 18.0488L148.558 19.1312H150.823L150.434 17.996Z" fill="white"/>
<path d="M156.894 13.8688H155.142V22.4488H156.894V13.8688Z" fill="white"/>
<path d="M159.292 13.8688H162.274C164.619 13.8688 165.513 14.96 165.513 16.6408C165.513 17.7848 165 18.6736 164.044 19.1312L166.08 22.44H164.018L162.327 19.4832H161.044V22.44H159.292V13.8688ZM163.664 16.6672C163.664 15.708 163.257 15.2856 162.115 15.2856H161.044V18.0928H162.15C163.027 18.0928 163.664 17.732 163.664 16.6672Z" fill="white"/>
<path d="M167.708 13.8688H170.761C173.106 13.8688 174 15.0568 174 16.7288C174 18.524 172.823 19.712 170.708 19.712H169.469V22.44H167.717V13.8688H167.708ZM172.15 16.7992C172.15 15.9016 171.823 15.2856 170.602 15.2856H169.469V18.304H170.655C171.602 18.2952 172.15 17.8904 172.15 16.7992Z" fill="white"/>
<path d="M183.584 18.172C183.584 20.68 181.991 22.5808 179.301 22.5808C176.752 22.5808 175.106 21.0232 175.106 18.2248C175.106 15.6552 176.717 13.7544 179.319 13.7544C181.841 13.7456 183.584 15.0656 183.584 18.172ZM181.735 18.172C181.735 16.0072 180.974 15.1624 179.319 15.1624C177.708 15.1624 176.956 16.0688 176.956 18.2248C176.956 20.1256 177.646 21.164 179.301 21.164C180.938 21.164 181.735 20.1872 181.735 18.172Z" fill="white"/>
<path d="M185.451 13.8688H188.433C190.779 13.8688 191.672 14.96 191.672 16.6408C191.672 17.7848 191.159 18.6736 190.203 19.1312L192.239 22.44H190.177L188.487 19.4832H187.203V22.44H185.451V13.8688ZM189.823 16.6672C189.823 15.708 189.416 15.2856 188.274 15.2856H187.203V18.0928H188.31C189.186 18.0928 189.823 17.732 189.823 16.6672Z" fill="white"/>
<path d="M200 15.2768H197.354V22.44H195.611V15.2768H192.956V13.8688H200V15.2768Z" fill="white"/>
</g>
<defs>
<clipPath id="clip0_1354_17129">
<rect width="200" height="44" fill="white"/>
</clipPath>
</defs>
</svg>
