<svg width="200" height="49" viewBox="0 0 200 49" fill="none" xmlns="http://www.w3.org/2000/svg">
<path d="M29.9219 23.5753L30.2572 25.7534" stroke="white" stroke-width="2"/>
<path d="M32.7852 41.624C32.927 42.3492 33.0487 43.115 33.1505 43.9213C33.2373 44.6009 33.4041 45.2585 33.651 45.8941" stroke="white" stroke-width="2"/>
<path d="M6.75626 37.4073C6.66617 38.168 6.52853 38.8831 6.52102 39.6768C6.51268 40.5135 6.44512 41.4027 6.31832 42.3443C6.11479 43.869 6.06724 45.4995 6.17568 47.2355" stroke="white" stroke-width="2"/>
<path d="M29.9208 23.5753L30.2561 25.7535L32.7836 41.6241C32.9255 42.3493 33.0472 43.1151 33.149 43.9214C33.2358 44.6009 33.4026 45.2585 33.6495 45.8941C32.9463 47.3775 31.7877 48.341 30.0785 47.7097C28.7847 47.233 28.6821 45.9854 28.5394 44.4818C27.9772 38.5484 27.3533 32.8533 26.6676 27.3966C26.1437 23.2127 25.4005 18.9791 24.4379 14.6955C23.7755 11.7474 22.8371 9.04945 21.6226 6.6017C20.8543 5.05242 19.4379 3.60963 17.6486 3.62992C16.0996 3.64513 14.538 5.18427 13.6872 6.44449C11.9705 8.99789 10.8444 12.0077 10.021 15.0251C8.70641 19.8378 7.81135 24.7189 7.33588 29.6685C7.09064 32.2312 6.89711 34.8108 6.7553 37.4073C6.66521 38.168 6.52758 38.8831 6.52007 39.6767C6.51173 40.5135 6.44416 41.4027 6.31737 42.3442C6.11383 43.869 6.06629 45.4994 6.17473 47.2355C5.78601 47.9658 5.21377 48.478 4.45802 48.7721C2.47856 49.5404 0.714305 48.2726 0.0886833 46.3708C-0.0130844 46.0581 -0.0272652 45.5983 0.0461411 44.9914C0.695119 39.6649 1.08551 36.5063 1.2173 35.5157C2.15323 28.4734 3.71145 21.4344 5.89195 14.3988C6.50923 12.4092 7.11232 10.7365 7.70124 9.38077C9.75828 4.64164 14.0926 -1.81666 19.9609 0.478105C22.591 1.50758 24.1651 3.75417 25.2787 6.33039C27.4634 11.3941 28.8673 17.751 29.9208 23.5753Z" fill="white"/>
<path d="M75.3738 6.58643L77.1831 7.89736C77.1954 7.90633 77.2057 7.91777 77.2135 7.93097C77.2212 7.94417 77.2261 7.95885 77.228 7.97408C77.2299 7.98931 77.2287 8.00477 77.2244 8.01949C77.2201 8.03422 77.2128 8.04789 77.2031 8.05964L74.3828 11.4067C74.3648 11.4278 74.3397 11.4414 74.3124 11.4446C74.2851 11.4479 74.2575 11.4407 74.2352 11.4245L72.7262 10.3316C72.7142 10.323 72.7041 10.3121 72.6963 10.2995C72.6886 10.287 72.6834 10.2729 72.6811 10.2583C72.6788 10.2437 72.6793 10.2287 72.6828 10.2143C72.6862 10.1999 72.6925 10.1863 72.7011 10.1744L75.2186 6.61179C75.2271 6.59969 75.2378 6.58942 75.2503 6.58158C75.2627 6.57374 75.2765 6.56848 75.291 6.56612C75.3054 6.56376 75.3202 6.56434 75.3344 6.56783C75.3486 6.57131 75.362 6.57764 75.3738 6.58643Z" fill="white"/>
<path d="M59.9633 9.02076H62.1579C62.1763 9.02054 62.1943 9.026 62.2095 9.03643C62.2247 9.04685 62.2364 9.06173 62.243 9.07908L67.4357 23.0708C67.441 23.0847 67.4429 23.0997 67.4411 23.1146C67.4394 23.1294 67.4341 23.1435 67.4257 23.1558C67.4173 23.1681 67.4061 23.1781 67.393 23.1849C67.3799 23.1917 67.3653 23.1952 67.3506 23.195H64.235C64.2163 23.1951 64.1981 23.1892 64.1829 23.1783C64.1677 23.1674 64.1561 23.152 64.1499 23.1342L63.3066 20.6214C63.3004 20.6035 63.2888 20.5881 63.2736 20.5772C63.2584 20.5663 63.2401 20.5605 63.2215 20.5605H58.4167C58.3984 20.5603 58.3804 20.5657 58.3652 20.5762C58.35 20.5866 58.3383 20.6015 58.3316 20.6188L57.3682 23.1317C57.3615 23.149 57.3499 23.1639 57.3346 23.1743C57.3194 23.1847 57.3015 23.1902 57.2831 23.19H54.3227C54.3076 23.1903 54.2927 23.1869 54.2793 23.1799C54.266 23.1729 54.2545 23.1626 54.2461 23.15C54.2376 23.1374 54.2324 23.1229 54.2309 23.1077C54.2294 23.0925 54.2317 23.0772 54.2376 23.0632L59.8807 9.07654C59.8875 9.06007 59.899 9.046 59.9137 9.03609C59.9284 9.02617 59.9456 9.02084 59.9633 9.02076ZM59.1925 18.0705C59.1876 18.0836 59.186 18.0977 59.1877 18.1115C59.1894 18.1254 59.1944 18.1387 59.2023 18.1502C59.2101 18.1616 59.2207 18.171 59.2329 18.1774C59.2452 18.1839 59.2588 18.1872 59.2726 18.1871L62.3581 18.215C62.3716 18.215 62.3849 18.2116 62.3969 18.2053C62.4089 18.199 62.4192 18.1899 62.427 18.1788C62.4349 18.1676 62.44 18.1548 62.4419 18.1412C62.4438 18.1277 62.4426 18.1139 62.4382 18.1009L60.9342 13.6661C60.9283 13.6494 60.9174 13.6349 60.9031 13.6247C60.8888 13.6145 60.8717 13.609 60.8541 13.609C60.8366 13.609 60.8195 13.6145 60.8052 13.6247C60.7909 13.6349 60.78 13.6494 60.7741 13.6661L59.1925 18.0705Z" fill="white"/>
<path d="M139.837 22.7816C139.842 22.7965 139.842 22.8129 139.837 22.8275C139.831 22.842 139.821 22.8537 139.807 22.8602C137.948 23.7578 135.573 23.7832 134.499 21.78C134.174 21.1732 134.033 20.1336 134.076 18.6612C134.09 18.1743 134.09 16.9927 134.079 15.1164C134.079 15.0679 134.06 15.0215 134.025 14.9873C133.991 14.953 133.945 14.9338 133.896 14.9338H132.963C132.923 14.9338 132.885 14.9178 132.856 14.8892C132.828 14.8607 132.812 14.822 132.812 14.7816V12.6745C132.812 12.6389 132.826 12.6047 132.851 12.5795C132.875 12.5543 132.908 12.5401 132.943 12.5401H133.906C133.954 12.5404 134 12.5235 134.037 12.4925C134.074 12.4615 134.099 12.4183 134.109 12.3702L134.469 10.3671C134.477 10.3236 134.5 10.2842 134.533 10.2559C134.567 10.2276 134.61 10.2122 134.654 10.2124H136.821C136.845 10.2124 136.868 10.2223 136.885 10.2399C136.902 10.2575 136.912 10.2813 136.912 10.3062V12.4235C136.912 12.4391 136.915 12.4546 136.921 12.4691C136.926 12.4836 136.935 12.4967 136.946 12.5078C136.957 12.5188 136.97 12.5276 136.984 12.5336C136.998 12.5396 137.014 12.5427 137.029 12.5427H139.507C139.529 12.5427 139.55 12.5512 139.565 12.5664C139.581 12.5816 139.589 12.6023 139.589 12.6238V14.8831C139.589 14.8965 139.584 14.9094 139.575 14.9189C139.565 14.9284 139.552 14.9338 139.539 14.9338H137.057C137.036 14.9338 137.016 14.9378 136.998 14.9456C136.979 14.9534 136.962 14.9649 136.948 14.9793C136.934 14.9937 136.922 15.0107 136.915 15.0295C136.907 15.0482 136.904 15.0683 136.904 15.0885C136.917 16.4848 136.92 17.8329 136.912 19.1328C136.899 20.7582 137.352 21.4327 138.951 20.71C138.964 20.7043 138.978 20.7013 138.993 20.7013C139.007 20.7013 139.021 20.7042 139.034 20.7099C139.047 20.7156 139.059 20.724 139.069 20.7344C139.079 20.7449 139.086 20.7573 139.091 20.7709L139.837 22.7816Z" fill="white"/>
<path d="M76.3741 19.5766C76.3791 19.5684 76.3858 19.5613 76.3937 19.5558C76.4015 19.5502 76.4104 19.5464 76.4198 19.5445C76.4292 19.5426 76.4389 19.5427 76.4482 19.5447C76.4576 19.5467 76.4664 19.5507 76.4742 19.5563L78.2409 20.8393C78.2488 20.845 78.2554 20.8522 78.2605 20.8604C78.2657 20.8686 78.2691 20.8776 78.2708 20.8871C78.2724 20.8965 78.2722 20.9061 78.27 20.9153C78.2679 20.9245 78.264 20.9332 78.2585 20.9408C76.8604 22.8594 75.0561 23.6843 72.8456 23.4155C71.5093 23.2516 70.454 22.7706 69.6799 21.9728C68.8274 21.092 68.3386 20.0271 68.2135 18.7778C67.9732 16.3707 68.7732 14.5036 70.6134 13.1766C72.3176 11.9443 74.9226 12.0279 76.6394 13.2983C78.2026 14.4579 78.814 16.1737 78.4737 18.4457C78.4683 18.4829 78.4499 18.5169 78.4219 18.5415C78.3939 18.5662 78.3581 18.5799 78.321 18.5801H71.1939C71.1732 18.5799 71.1528 18.5845 71.1341 18.5936C71.1154 18.6026 71.0989 18.616 71.086 18.6325C71.073 18.6491 71.0638 18.6685 71.0591 18.6893C71.0544 18.71 71.0543 18.7316 71.0588 18.7525C71.3675 20.1234 72.089 20.8976 73.2235 21.0751C74.5898 21.2881 75.64 20.7886 76.3741 19.5766ZM71.3341 16.5997H75.5308C75.5517 16.5996 75.5723 16.5949 75.5912 16.586C75.6102 16.5771 75.627 16.5641 75.6406 16.548C75.6541 16.5318 75.664 16.5129 75.6697 16.4925C75.6754 16.4721 75.6766 16.4508 75.6734 16.4298C75.4657 15.0859 74.4322 14.414 73.1284 14.6016C72.2442 14.7284 71.6052 15.3353 71.2115 16.4222C71.2042 16.4422 71.2018 16.4637 71.2045 16.4848C71.2072 16.5059 71.2149 16.526 71.2269 16.5435C71.239 16.5609 71.255 16.5752 71.2737 16.5849C71.2924 16.5947 71.3131 16.5998 71.3341 16.5997Z" fill="white"/>
<path d="M80.6152 23.0378V12.7887C80.6152 12.7235 80.6408 12.6609 80.6863 12.6148C80.7319 12.5687 80.7936 12.5427 80.858 12.5427H82.9125C82.9842 12.5427 83.0529 12.5716 83.1036 12.6229C83.1543 12.6743 83.1828 12.744 83.1828 12.8166V13.6787C83.182 13.7121 83.1921 13.7448 83.2115 13.7718C83.2309 13.7988 83.2585 13.8186 83.2901 13.8281C83.3217 13.8377 83.3555 13.8364 83.3863 13.8245C83.4171 13.8126 83.4432 13.7908 83.4606 13.7624C84.3164 12.41 85.5009 11.995 87.0141 12.5174C87.0439 12.5278 87.0687 12.5493 87.0836 12.5775C87.0984 12.6057 87.1022 12.6386 87.0942 12.6695L86.4736 14.9516C86.4699 14.9661 86.463 14.9797 86.4536 14.9913C86.4441 15.0028 86.4321 15.0122 86.4186 15.0187C86.405 15.0252 86.3902 15.0287 86.375 15.0289C86.3599 15.0292 86.3448 15.0262 86.3309 15.0201C85.5084 14.6735 84.7418 14.7817 84.0311 15.3446C83.7208 15.5914 83.5323 15.8442 83.4656 16.1028C83.4622 16.1146 83.4606 16.1265 83.4606 16.1383V23.0733C83.4606 23.1042 83.4487 23.1339 83.4276 23.1558C83.4065 23.1776 83.3778 23.1899 83.3479 23.1899H80.7679C80.7274 23.1899 80.6886 23.1739 80.6599 23.1454C80.6313 23.1168 80.6152 23.0781 80.6152 23.0378Z" fill="white"/>
<path d="M98.4108 17.8727C98.4108 19.3602 97.8276 20.7868 96.7895 21.8387C95.7514 22.8906 94.3434 23.4815 92.8753 23.4815C91.4072 23.4815 89.9993 22.8906 88.9612 21.8387C87.923 20.7868 87.3398 19.3602 87.3398 17.8727C87.3398 16.3851 87.923 14.9585 88.9612 13.9066C89.9993 12.8547 91.4072 12.2638 92.8753 12.2638C94.3434 12.2638 95.7514 12.8547 96.7895 13.9066C97.8276 14.9585 98.4108 16.3851 98.4108 17.8727ZM92.8725 14.7589C92.1769 14.7601 91.5104 15.0896 91.0196 15.6749C90.5288 16.2602 90.2538 17.0533 90.2552 17.8798C90.2559 18.2891 90.3245 18.6942 90.4569 19.072C90.5894 19.4499 90.7832 19.7931 91.0272 20.082C91.2712 20.371 91.5607 20.6 91.8792 20.7561C92.1976 20.9121 92.5388 20.9921 92.8832 20.9915C93.5788 20.9903 94.2453 20.6608 94.7361 20.0755C95.2269 19.4902 95.5019 18.697 95.5005 17.8705C95.4997 17.4613 95.4312 17.0562 95.2988 16.6783C95.1663 16.3005 94.9725 15.9573 94.7285 15.6683C94.4845 15.3794 94.195 15.1504 93.8765 14.9943C93.558 14.8383 93.2169 14.7583 92.8725 14.7589Z" fill="white"/>
<path d="M103.309 22.2847C103.303 22.2817 103.296 22.2804 103.289 22.2807C103.283 22.281 103.276 22.283 103.271 22.2865C103.265 22.2901 103.26 22.295 103.257 22.3009C103.253 22.3068 103.251 22.3134 103.251 22.3202V28.0964C103.251 28.1408 103.234 28.1834 103.203 28.2148C103.172 28.2462 103.13 28.2638 103.086 28.2638H100.541C100.508 28.2638 100.476 28.2502 100.453 28.2259C100.429 28.2017 100.416 28.1688 100.416 28.1345V12.6797C100.416 12.6614 100.42 12.6432 100.426 12.6263C100.433 12.6094 100.443 12.594 100.456 12.5811C100.468 12.5681 100.483 12.5578 100.499 12.5508C100.516 12.5438 100.533 12.5402 100.551 12.5402H102.791C102.842 12.5402 102.891 12.5608 102.927 12.5974C102.963 12.634 102.984 12.6837 102.984 12.7355V13.6483C102.984 13.6773 102.994 13.7055 103.011 13.7289C103.028 13.7522 103.052 13.7696 103.079 13.7785C103.106 13.7874 103.136 13.7875 103.163 13.7787C103.19 13.7699 103.214 13.7527 103.231 13.7294L103.544 13.2882C103.584 13.2313 103.635 13.1822 103.694 13.1437C105.257 12.1514 106.788 12.0221 108.286 12.7557C111.414 14.2898 112.05 18.5725 110.218 21.3186C108.927 23.2533 106.47 24.0064 104.375 23.0175C103.919 22.802 103.677 22.4901 103.309 22.2847ZM103.256 17.8372C103.243 18.4339 103.234 18.8886 103.229 19.2014C103.221 19.7617 103.354 19.9215 103.727 20.2537C105.073 21.4505 107.19 21.2071 107.989 19.4372C108.2 18.9656 108.312 18.4711 108.324 17.9538C108.336 17.4366 108.246 16.9379 108.056 16.4578C107.335 14.6524 105.231 14.3126 103.834 15.4461C103.447 15.7605 103.306 15.9152 103.289 16.473C103.279 16.7874 103.268 17.2422 103.256 17.8372Z" fill="white"/>
<path d="M123.589 17.8752C123.589 19.3628 123.005 20.7894 121.967 21.8413C120.929 22.8931 119.521 23.4841 118.053 23.4841C116.585 23.4841 115.177 22.8931 114.139 21.8413C113.101 20.7894 112.518 19.3628 112.518 17.8752C112.518 16.3877 113.101 14.961 114.139 13.9092C115.177 12.8573 116.585 12.2664 118.053 12.2664C119.521 12.2664 120.929 12.8573 121.967 13.9092C123.005 14.961 123.589 16.3877 123.589 17.8752ZM118.066 14.764C117.371 14.7627 116.704 15.0896 116.212 15.6727C115.719 16.2558 115.442 17.0473 115.44 17.8731C115.44 18.282 115.507 18.687 115.638 19.0651C115.769 19.4431 115.961 19.7867 116.204 20.0763C116.447 20.3658 116.735 20.5957 117.053 20.7527C117.371 20.9098 117.711 20.9909 118.055 20.9915C118.75 20.9928 119.417 20.6659 119.909 20.0828C120.402 19.4997 120.679 18.7082 120.681 17.8824C120.681 17.4735 120.614 17.0685 120.483 16.6904C120.352 16.3124 120.16 15.9688 119.917 15.6793C119.674 15.3897 119.386 15.1598 119.068 15.0028C118.751 14.8457 118.41 14.7646 118.066 14.764Z" fill="white"/>
<path d="M125.719 23.195C125.679 23.195 125.64 23.1789 125.611 23.1504C125.582 23.1219 125.566 23.0832 125.566 23.0428L125.576 12.7811C125.576 12.7158 125.602 12.6533 125.648 12.6071C125.693 12.561 125.755 12.5351 125.819 12.5351L127.876 12.5376C127.948 12.5376 128.017 12.5665 128.067 12.6178C128.118 12.6692 128.146 12.7389 128.146 12.8115V13.6736C128.147 13.7067 128.158 13.7388 128.178 13.7652C128.198 13.7917 128.225 13.811 128.256 13.8204C128.288 13.8298 128.321 13.8287 128.351 13.8173C128.381 13.806 128.407 13.7849 128.424 13.7573C129.282 12.4049 130.468 11.9908 131.983 12.5148C132.013 12.5253 132.037 12.5468 132.052 12.575C132.067 12.6032 132.071 12.636 132.063 12.667L131.44 14.9516C131.436 14.9661 131.429 14.9796 131.42 14.9912C131.41 15.0028 131.398 15.0122 131.385 15.0187C131.371 15.0252 131.356 15.0287 131.341 15.0289C131.326 15.0292 131.311 15.0261 131.297 15.02C130.473 14.6718 129.706 14.7792 128.995 15.3421C128.683 15.5889 128.493 15.8424 128.427 16.1028C128.423 16.1145 128.422 16.1265 128.422 16.1383L128.417 23.0809C128.417 23.0962 128.414 23.1114 128.408 23.1255C128.403 23.1397 128.394 23.1525 128.384 23.1633C128.373 23.1742 128.361 23.1828 128.347 23.1886C128.334 23.1945 128.319 23.1975 128.304 23.1975L125.719 23.195Z" fill="white"/>
<path d="M33.6486 45.8941C33.4017 45.2585 33.2349 44.601 33.1481 43.9214C33.0464 43.1151 32.9246 42.3493 32.7828 41.6241C34.3343 38.4833 35.4896 35.1438 36.2487 31.6058C36.7442 29.3009 36.9394 25.2032 33.4634 25.4365C32.1805 25.5227 31.1111 25.6284 30.2553 25.7535L29.9199 23.5754C31.5666 23.2288 32.9755 23.0471 34.1466 23.0302C36.9869 22.9922 38.6736 25.0333 39.074 27.7211C39.3143 29.3313 39.2267 30.9338 38.9264 32.5287C38.0271 37.2958 36.2679 41.7509 33.6486 45.8941Z" fill="white"/>
<path d="M6.17568 47.2355C6.06724 45.4994 6.11479 43.869 6.31832 42.3442C6.44512 41.4027 6.51268 40.5135 6.52102 39.6767C6.52853 38.8831 6.66617 38.168 6.75626 37.4073C10.4266 33.9791 14.4447 31.0707 18.8107 28.6822C19.8217 28.1294 21.1656 28.6162 20.9529 29.9525C20.8828 30.381 20.3372 30.8831 20.1095 31.0809C14.7392 35.8048 10.3198 41.3046 6.17568 47.2355Z" fill="white"/>
<path d="M55.9902 33.3122C58.2108 33.2902 59.7723 33.3003 60.6749 33.3426C61.3239 33.373 62.0129 33.5666 62.7419 33.9233C65.0317 35.039 65.6974 38.0513 64.1784 40.0697C62.7469 41.9689 60.1619 41.9106 57.8946 41.8091C57.8798 41.8085 57.8649 41.8108 57.851 41.8161C57.837 41.8214 57.8243 41.8295 57.8135 41.84C57.8028 41.8504 57.7942 41.8629 57.7883 41.8768C57.7825 41.8907 57.7795 41.9056 57.7795 41.9207V47.347C57.7795 47.3833 57.7653 47.4181 57.7399 47.4438C57.7146 47.4695 57.6802 47.4839 57.6444 47.4839H55.9602C55.9257 47.4839 55.8926 47.4703 55.8682 47.4461C55.8438 47.4218 55.8301 47.3889 55.8301 47.3546V33.4745C55.8301 33.4314 55.847 33.3901 55.877 33.3597C55.907 33.3293 55.9478 33.3122 55.9902 33.3122ZM57.7745 35.1378V40.0012C57.7745 40.0194 57.7816 40.0368 57.7943 40.0496C57.807 40.0625 57.8242 40.0697 57.8421 40.0697H60.1218C60.4892 40.0697 60.8531 40.0085 61.1925 39.8896C61.5319 39.7707 61.8404 39.5965 62.1002 39.3768C62.36 39.1571 62.566 38.8963 62.7066 38.6093C62.8473 38.3222 62.9196 38.0146 62.9196 37.7039V37.4351C62.9196 37.1245 62.8473 36.8168 62.7066 36.5298C62.566 36.2428 62.36 35.982 62.1002 35.7623C61.8404 35.5426 61.5319 35.3684 61.1925 35.2495C60.8531 35.1306 60.4892 35.0694 60.1218 35.0694H57.8421C57.8242 35.0694 57.807 35.0766 57.7943 35.0894C57.7816 35.1023 57.7745 35.1197 57.7745 35.1378Z" fill="white"/>
<path d="M86.7777 33.3068L85.1461 33.3126C85.0881 33.3128 85.0412 33.3607 85.0414 33.4195L85.0478 35.2756C85.048 35.3344 85.0952 35.3819 85.1532 35.3817L86.7849 35.3759C86.8429 35.3757 86.8898 35.3279 86.8896 35.2691L86.8832 33.413C86.883 33.3542 86.8358 33.3066 86.7777 33.3068Z" fill="white"/>
<path d="M128.579 39.9455C128.558 39.9527 128.54 39.9663 128.528 39.9843C128.516 40.0023 128.509 40.0239 128.509 40.0461C128.51 40.0683 128.517 40.09 128.53 40.1083C128.542 40.1266 128.56 40.1406 128.581 40.1483C130.128 40.6774 130.958 41.6739 131.071 43.1378C131.214 44.9686 130.183 46.4773 128.469 47.0503C127.636 47.3276 126.685 47.4704 125.616 47.4789C123.689 47.4941 122.521 47.4932 122.112 47.4763C122.075 47.475 122.04 47.4589 122.015 47.4315C121.989 47.4041 121.975 47.3674 121.975 47.3293V33.4314C121.975 33.4009 121.986 33.3716 122.007 33.3498C122.028 33.328 122.057 33.3154 122.087 33.3147C123.505 33.3029 124.702 33.3021 125.678 33.3122C127.09 33.3274 128.964 33.761 129.84 34.9832C131.019 36.6238 130.736 39.1974 128.579 39.9455ZM123.884 35.0998L123.889 39.3039C123.889 39.3187 123.895 39.3329 123.905 39.3434C123.915 39.3538 123.929 39.3597 123.944 39.3597L125.979 39.3547C126.32 39.3541 126.658 39.3033 126.974 39.2052C127.289 39.107 127.576 38.9634 127.817 38.7826C128.058 38.6017 128.249 38.3872 128.38 38.1512C128.51 37.9152 128.577 37.6624 128.576 37.4073V36.9762C128.575 36.4613 128.3 35.9679 127.812 35.6047C127.324 35.2414 126.663 35.0379 125.974 35.039L123.939 35.044C123.924 35.044 123.91 35.0499 123.9 35.0604C123.89 35.0708 123.884 35.085 123.884 35.0998ZM123.889 41.1727V45.6862C123.889 45.6952 123.891 45.7041 123.894 45.7124C123.898 45.7207 123.903 45.7282 123.909 45.7346C123.915 45.7409 123.923 45.746 123.931 45.7494C123.939 45.7529 123.948 45.7546 123.957 45.7546H126.336C126.692 45.7546 127.044 45.6982 127.373 45.5886C127.701 45.479 128 45.3184 128.251 45.1159C128.502 44.9134 128.702 44.673 128.838 44.4085C128.974 44.1439 129.044 43.8603 129.044 43.574V43.2849C129.044 42.7066 128.759 42.1519 128.251 41.7429C127.743 41.334 127.055 41.1042 126.336 41.1042H123.957C123.939 41.1042 123.921 41.1115 123.909 41.1243C123.896 41.1371 123.889 41.1546 123.889 41.1727Z" fill="white"/>
<path d="M190.303 33.3058L188.696 33.3086C188.635 33.3088 188.586 33.3588 188.586 33.4204L188.589 35.2765C188.589 35.3381 188.639 35.388 188.7 35.3879L190.306 35.385C190.367 35.3849 190.416 35.3349 190.416 35.2733L190.413 33.4172C190.413 33.3556 190.363 33.3057 190.303 33.3058Z" fill="white"/>
<path d="M72.9819 46.5509C72.9798 46.5387 72.9744 46.5273 72.9663 46.518C72.9581 46.5088 72.9476 46.502 72.9358 46.4986C72.924 46.4951 72.9116 46.4951 72.8998 46.4986C72.888 46.502 72.8775 46.5087 72.8693 46.5179C71.92 47.5491 70.6804 47.9286 69.1506 47.6564C67.2787 47.3234 66.3762 46.2424 66.4429 44.4133C66.5605 41.2311 70.5119 41.0257 72.7517 41.4897C72.7675 41.4931 72.7838 41.4929 72.7995 41.4891C72.8152 41.4854 72.83 41.4781 72.8426 41.468C72.8553 41.4578 72.8656 41.445 72.8728 41.4303C72.88 41.4157 72.8839 41.3996 72.8843 41.3832C73.0019 37.8105 69.4209 38.5281 67.4339 39.5829C67.4249 39.5878 67.4149 39.5906 67.4046 39.5912C67.3944 39.5918 67.3841 39.5901 67.3744 39.5862C67.3647 39.5824 67.3559 39.5765 67.3484 39.569C67.341 39.5614 67.3352 39.5523 67.3313 39.5424L66.8283 38.1807C66.8196 38.1571 66.8198 38.131 66.8291 38.1075C66.8384 38.0841 66.8559 38.065 66.8783 38.0539C69.5985 36.7532 74.3983 36.1902 74.6661 40.5718C74.7061 41.2294 74.717 43.4397 74.6986 47.2026C74.6986 47.2405 74.6912 47.2781 74.6767 47.3132C74.6622 47.3483 74.641 47.3801 74.6143 47.407C74.5876 47.4338 74.5559 47.4551 74.5209 47.4696C74.486 47.4842 74.4486 47.4916 74.4108 47.4916L73.122 47.4891C73.087 47.4892 73.0524 47.4809 73.0211 47.465C72.9899 47.449 72.9628 47.4258 72.9423 47.3972C72.9217 47.3687 72.9082 47.3357 72.9029 47.301C72.8976 47.2662 72.9007 47.2308 72.9118 47.1975C72.9919 46.9575 73.0153 46.7419 72.9819 46.5509ZM72.7041 42.8438C71.191 42.6004 70.049 42.6528 69.2782 43.001C67.7967 43.6729 67.8418 45.6127 69.4008 46.0818C70.597 46.4444 71.8232 45.8637 72.7842 45.0523C72.8163 45.0246 72.8421 44.9899 72.8598 44.9505C72.8776 44.9111 72.8868 44.868 72.8868 44.8241L72.8843 43.0618C72.8845 43.0098 72.8665 42.9594 72.8335 42.9195C72.8005 42.8796 72.7547 42.8528 72.7041 42.8438Z" fill="white"/>
<path d="M77.9316 37.6253C77.9316 37.5554 77.9588 37.4883 78.0071 37.4388C78.0555 37.3894 78.121 37.3616 78.1894 37.3616H79.5908C79.6118 37.3616 79.6327 37.3658 79.6521 37.374C79.6715 37.3821 79.6892 37.3941 79.704 37.4091C79.7189 37.4242 79.7307 37.4421 79.7388 37.4618C79.7468 37.4815 79.751 37.5026 79.751 37.5239V38.7816C79.7507 38.8021 79.7572 38.8222 79.7696 38.8385C79.782 38.8548 79.7995 38.8664 79.8192 38.8714C79.8389 38.8764 79.8597 38.8745 79.8782 38.866C79.8967 38.8575 79.9118 38.843 79.9211 38.8247C80.6335 37.4943 81.6996 36.9373 83.1193 37.1537C83.1599 37.1598 83.1988 37.1741 83.2338 37.1958C83.2688 37.2175 83.2991 37.2462 83.3229 37.28C83.3468 37.3139 83.3636 37.3522 83.3725 37.3928C83.3814 37.4334 83.3821 37.4754 83.3745 37.5163L83.1193 38.9261C83.1129 38.9609 83.0995 38.9941 83.0798 39.0234C83.0601 39.0527 83.0347 39.0776 83.005 39.0964C82.9754 39.1152 82.9422 39.1276 82.9076 39.1328C82.873 39.138 82.8377 39.1358 82.804 39.1264C81.5561 38.7883 80.5668 39.2777 79.836 40.5946C79.7836 40.6876 79.756 40.7933 79.756 40.9014V47.4002C79.756 47.4224 79.7473 47.4437 79.7318 47.4594C79.7163 47.4751 79.6953 47.4839 79.6734 47.4839H77.9992C77.9903 47.4839 77.9816 47.4821 77.9734 47.4787C77.9652 47.4753 77.9577 47.4702 77.9514 47.4639C77.9452 47.4575 77.9402 47.45 77.9368 47.4417C77.9334 47.4333 77.9316 47.4244 77.9316 47.4155V37.6253Z" fill="white"/>
<path d="M96.1379 38.1629C96.1434 38.1673 96.148 38.1727 96.1515 38.1787C96.155 38.1848 96.1573 38.1915 96.1582 38.1983C96.1591 38.2052 96.1587 38.2121 96.1569 38.2186C96.1552 38.2252 96.1521 38.2312 96.1479 38.2365L95.1994 39.3623C95.1832 39.3814 95.1602 39.3934 95.135 39.3958C95.1099 39.3981 95.0846 39.3907 95.0643 39.375C94.1559 38.6726 92.5318 38.1908 91.771 39.3927C91.193 40.3056 92.194 40.9674 92.9372 41.2716C94.8841 42.0678 96.9036 42.859 96.4006 45.2754C96.1787 46.3387 95.584 47.0479 94.6164 47.4028C92.7562 48.0841 91.0879 47.7612 89.6114 46.4342C89.5784 46.4043 89.5522 46.3674 89.5347 46.3262C89.5172 46.285 89.5087 46.2404 89.5099 46.1955C89.5111 46.1506 89.5219 46.1065 89.5416 46.0663C89.5613 46.0261 89.5894 45.9907 89.6239 45.9626L90.5673 45.2019C90.594 45.1799 90.6254 45.1646 90.659 45.1571C90.6926 45.1496 90.7275 45.1502 90.7608 45.1588C90.7941 45.1674 90.825 45.1839 90.8509 45.2068C90.8769 45.2296 90.8972 45.2584 90.9102 45.2907C90.9903 45.4817 91.2697 45.6896 91.7485 45.9144C92.9022 46.457 94.3786 46.2567 94.6589 44.8292C94.7915 44.1623 94.0658 43.6273 93.5653 43.4269C91.696 42.6789 89.2535 41.9081 89.9943 39.2837C90.78 36.497 94.2335 36.7252 96.1379 38.1629Z" fill="white"/>
<path d="M142.272 45.2704C142.321 45.3062 142.354 45.36 142.363 45.4199C142.373 45.4797 142.359 45.5409 142.324 45.5899C141.028 47.4138 139.185 48.0799 136.796 47.588C134.029 47.0174 132.797 44.1902 133.188 41.5049C133.586 38.7588 135.923 36.8241 138.673 37.1538C141.464 37.4885 142.965 40.0292 142.547 42.7575C142.542 42.7955 142.523 42.8302 142.494 42.8553C142.465 42.8804 142.428 42.8943 142.389 42.8945H135.03C135.015 42.8946 135 42.898 134.987 42.9045C134.973 42.911 134.961 42.9203 134.952 42.9319C134.942 42.9434 134.935 42.957 134.932 42.9715C134.928 42.9861 134.927 43.0013 134.93 43.0162C135.25 44.9382 136.257 45.977 137.95 46.1325C139.136 46.239 140.382 45.7699 141.003 44.6872C141.02 44.657 141.044 44.6308 141.072 44.6102C141.099 44.5897 141.131 44.5752 141.165 44.5678C141.199 44.5604 141.233 44.5602 141.267 44.5672C141.301 44.5743 141.333 44.5883 141.361 44.6086L142.272 45.2704ZM140.755 41.2945C140.495 39.8137 139.477 38.6016 137.905 38.7157C136.419 38.8247 135.47 39.9303 135.095 41.2945C135.091 41.3073 135.091 41.3208 135.093 41.3339C135.096 41.3469 135.101 41.3592 135.109 41.3698C135.117 41.3803 135.128 41.3889 135.139 41.3947C135.151 41.4006 135.164 41.4036 135.177 41.4035H140.663C140.676 41.4037 140.69 41.4009 140.702 41.3952C140.714 41.3896 140.725 41.3813 140.734 41.3709C140.743 41.3605 140.749 41.3483 140.753 41.3351C140.757 41.3219 140.758 41.308 140.755 41.2945Z" fill="white"/>
<path d="M151.089 46.5534C151.087 46.5412 151.081 46.5298 151.073 46.5206C151.065 46.5113 151.055 46.5046 151.043 46.5011C151.031 46.4977 151.019 46.4977 151.007 46.5011C150.995 46.5045 150.984 46.5112 150.976 46.5205C150.027 47.5533 148.787 47.9345 147.255 47.6641C145.381 47.3344 144.477 46.2542 144.542 44.4235C144.655 41.2362 148.609 41.0257 150.851 41.4872C150.867 41.4905 150.883 41.4903 150.898 41.4865C150.914 41.4828 150.928 41.4756 150.941 41.4655C150.954 41.4553 150.964 41.4425 150.971 41.4279C150.979 41.4133 150.983 41.3972 150.984 41.3807C151.096 37.8054 147.513 38.5281 145.526 39.5855C145.517 39.5903 145.507 39.5932 145.497 39.5937C145.486 39.5943 145.476 39.5926 145.466 39.5888C145.457 39.5849 145.448 39.5791 145.44 39.5715C145.433 39.5639 145.427 39.5549 145.423 39.5449L144.918 38.1833C144.909 38.1596 144.909 38.1335 144.919 38.1101C144.928 38.0866 144.945 38.0675 144.968 38.0565C147.69 36.7506 152.493 36.1801 152.768 40.5668C152.808 41.2243 152.821 43.4363 152.808 47.2026C152.808 47.2405 152.801 47.2781 152.786 47.3132C152.772 47.3483 152.75 47.3801 152.724 47.407C152.697 47.4338 152.665 47.4551 152.63 47.4696C152.595 47.4842 152.558 47.4916 152.52 47.4916H151.231C151.197 47.4917 151.162 47.4835 151.131 47.4676C151.1 47.4517 151.074 47.4286 151.053 47.4001C151.033 47.3717 151.019 47.3387 151.013 47.3039C151.008 47.2692 151.011 47.2336 151.021 47.2C151.1 46.96 151.122 46.7445 151.089 46.5534ZM150.806 42.8463C149.293 42.6029 148.151 42.6553 147.38 43.0035C145.896 43.6755 145.941 45.6152 147.503 46.0869C148.699 46.4495 149.925 45.8688 150.886 45.0549C150.918 45.0272 150.944 44.9924 150.962 44.953C150.979 44.9136 150.989 44.8705 150.989 44.8267V43.0644C150.989 43.012 150.97 42.9612 150.937 42.9213C150.904 42.8813 150.857 42.8548 150.806 42.8463Z" fill="white"/>
<path d="M183.647 46.5509C183.644 46.5386 183.639 46.5272 183.631 46.518C183.623 46.5087 183.612 46.502 183.6 46.4985C183.589 46.4951 183.576 46.4951 183.564 46.4985C183.553 46.5019 183.542 46.5087 183.534 46.5179C182.585 47.5491 181.344 47.9286 179.813 47.6564C177.941 47.3251 177.038 46.2449 177.105 44.4158C177.223 41.2311 181.172 41.0231 183.414 41.4872C183.43 41.4905 183.446 41.4903 183.462 41.4865C183.477 41.4828 183.492 41.4756 183.505 41.4654C183.517 41.4552 183.528 41.4424 183.535 41.4277C183.542 41.4131 183.546 41.397 183.546 41.3807C183.662 37.8079 180.08 38.5281 178.093 39.5829C178.084 39.5878 178.074 39.5906 178.064 39.5911C178.054 39.5917 178.044 39.59 178.034 39.5862C178.024 39.5824 178.015 39.5765 178.008 39.5689C178.001 39.5614 177.995 39.5523 177.991 39.5423L177.488 38.1807C177.479 38.157 177.479 38.1309 177.489 38.1075C177.498 38.084 177.516 38.0649 177.538 38.0539C180.258 36.7506 185.058 36.1851 185.328 40.5693C185.368 41.2268 185.38 43.4371 185.363 47.2C185.363 47.2379 185.356 47.2755 185.341 47.3106C185.327 47.3457 185.306 47.3775 185.279 47.4044C185.252 47.4312 185.22 47.4525 185.186 47.467C185.151 47.4816 185.113 47.489 185.075 47.489L183.787 47.4865C183.752 47.4866 183.717 47.4783 183.686 47.4624C183.654 47.4464 183.627 47.4232 183.607 47.3947C183.586 47.3661 183.573 47.3331 183.568 47.2984C183.562 47.2636 183.565 47.2282 183.576 47.1949C183.655 46.9566 183.678 46.7419 183.647 46.5509ZM183.374 42.8437C181.859 42.6003 180.715 42.6536 179.943 43.0035C178.456 43.6754 178.501 45.6177 180.065 46.0894C181.264 46.452 182.493 45.8713 183.454 45.0548C183.486 45.0269 183.512 44.9921 183.529 44.9527C183.547 44.9133 183.556 44.8703 183.556 44.8266V43.0618C183.556 43.0094 183.538 42.9587 183.505 42.9187C183.471 42.8787 183.425 42.8522 183.374 42.8437Z" fill="white"/>
<path d="M200 44.1952V45.0294C199.735 46.4967 198.857 47.3698 197.368 47.6488C195.666 47.9682 194.204 47.5059 192.981 46.2618C192.971 46.2513 192.963 46.239 192.958 46.2254C192.953 46.2119 192.951 46.1975 192.951 46.1832C192.952 46.1688 192.956 46.1549 192.962 46.1422C192.968 46.1295 192.977 46.1184 192.988 46.1096L194.149 45.1714C194.173 45.1519 194.203 45.1421 194.234 45.144C194.265 45.1459 194.293 45.1593 194.315 45.1816C195.082 46.0014 195.955 46.3201 196.932 46.1375C198.076 45.9245 198.757 44.4843 197.615 43.7312C196.392 42.9248 194.26 42.7194 193.579 41.0408C193.444 40.7045 193.39 40.3596 193.419 40.0063C193.707 36.573 197.523 36.535 199.677 38.1756C199.682 38.1788 199.685 38.1828 199.688 38.1874C199.69 38.192 199.692 38.1971 199.692 38.2023C199.693 38.2076 199.692 38.2129 199.69 38.2179C199.689 38.2229 199.686 38.2275 199.682 38.2314L198.729 39.3673C198.711 39.3881 198.686 39.4007 198.658 39.4026C198.63 39.4045 198.603 39.3955 198.581 39.3775C197.726 38.6345 195.536 38.1249 195.176 39.7477C195.074 40.2092 195.275 40.592 195.779 40.8963C197.28 41.7965 199.492 41.9892 200 44.1952Z" fill="white"/>
<path d="M162.896 45.993C162.606 46.2643 162.431 46.6066 162.048 46.9008C161.158 47.5837 160.161 47.85 159.055 47.6995C156.725 47.3826 156.049 45.5112 155.934 43.4168C155.906 42.8945 155.899 40.9073 155.914 37.4555C155.915 37.4304 155.925 37.4065 155.943 37.389C155.961 37.3715 155.984 37.3617 156.009 37.3617H157.651C157.678 37.3617 157.704 37.3726 157.723 37.3921C157.743 37.4116 157.753 37.4381 157.753 37.4656C157.755 39.3674 157.753 41.0088 157.748 42.3899C157.743 43.7743 157.798 45.4047 159.117 45.8815C160.584 46.4139 162.105 45.4326 162.888 44.18C162.942 44.0939 162.971 43.9945 162.971 43.8935V37.4859C162.971 37.4523 162.985 37.42 163.008 37.3963C163.032 37.3725 163.065 37.3591 163.099 37.3591H164.663C164.68 37.3591 164.697 37.3626 164.713 37.3694C164.73 37.3761 164.744 37.386 164.757 37.3985C164.769 37.411 164.779 37.4258 164.785 37.4421C164.792 37.4584 164.795 37.4759 164.795 37.4935V47.3471C164.795 47.384 164.781 47.4195 164.755 47.4457C164.729 47.4718 164.694 47.4865 164.658 47.4865H163.074C163.061 47.4865 163.047 47.4838 163.035 47.4786C163.023 47.4734 163.012 47.4657 163.003 47.4561C162.994 47.4464 162.986 47.4349 162.981 47.4223C162.976 47.4097 162.974 47.3962 162.974 47.3826V46.0285C162.973 46.0196 162.97 46.0109 162.965 46.0034C162.961 45.996 162.954 45.9901 162.946 45.9864C162.938 45.9827 162.929 45.9814 162.92 45.9826C162.911 45.9837 162.903 45.9874 162.896 45.993Z" fill="white"/>
<path d="M171.979 47.484H170.428C170.412 47.484 170.396 47.4788 170.382 47.4693C170.369 47.4598 170.358 47.4463 170.353 47.4307L166.659 37.4682C166.655 37.4559 166.653 37.4428 166.655 37.4298C166.657 37.4169 166.661 37.4045 166.669 37.3938C166.676 37.3831 166.686 37.3744 166.697 37.3684C166.709 37.3623 166.721 37.3592 166.734 37.3591H168.589C168.605 37.3593 168.621 37.3648 168.635 37.3748C168.648 37.3848 168.658 37.3989 168.664 37.4149L171.229 45.0498C171.234 45.0653 171.245 45.0787 171.258 45.0881C171.271 45.0976 171.287 45.1027 171.304 45.1027C171.32 45.1027 171.336 45.0976 171.35 45.0881C171.363 45.0787 171.373 45.0653 171.379 45.0498L173.941 37.4149C173.947 37.3989 173.957 37.3848 173.97 37.3748C173.984 37.3648 174 37.3593 174.016 37.3591H175.798C175.811 37.359 175.824 37.3622 175.836 37.3683C175.848 37.3745 175.858 37.3835 175.865 37.3946C175.873 37.4056 175.877 37.4183 175.879 37.4316C175.88 37.4449 175.878 37.4583 175.873 37.4707L172.055 47.4333C172.049 47.4484 172.038 47.4613 172.025 47.4704C172.011 47.4794 171.996 47.4842 171.979 47.484Z" fill="white"/>
<path d="M190.302 37.3641H188.695C188.636 37.3641 188.588 37.413 188.588 37.4732V47.3723C188.588 47.4326 188.636 47.4814 188.695 47.4814H190.302C190.362 47.4814 190.41 47.4326 190.41 47.3723V37.4732C190.41 37.413 190.362 37.3641 190.302 37.3641Z" fill="white"/>
<path d="M86.7975 37.3667H85.1309C85.0866 37.3667 85.0508 37.403 85.0508 37.4478V47.4028C85.0508 47.4476 85.0866 47.4839 85.1309 47.4839H86.7975C86.8417 47.4839 86.8776 47.4476 86.8776 47.4028V37.4478C86.8776 37.403 86.8417 37.3667 86.7975 37.3667Z" fill="white"/>
<path d="M115.936 41.7357H101.582C101.513 41.7357 101.457 41.7925 101.457 41.8625V42.9427C101.457 43.0127 101.513 43.0695 101.582 43.0695H115.936C116.006 43.0695 116.062 43.0127 116.062 42.9427V41.8625C116.062 41.7925 116.006 41.7357 115.936 41.7357Z" fill="white"/>
</svg>
