<svg width="200" height="41" viewBox="0 0 200 41" fill="none" xmlns="http://www.w3.org/2000/svg">
<path d="M200 40.6337C200 40.6854 199.98 40.7351 199.943 40.7717C199.906 40.8082 199.857 40.8288 199.805 40.8288H65.3797C65.3279 40.8288 65.2783 40.8082 65.2417 40.7717C65.2051 40.7351 65.1846 40.6854 65.1846 40.6337V0.195567C65.1846 0.143829 65.2051 0.0942098 65.2417 0.0576255C65.2783 0.0210411 65.3279 0.000488281 65.3797 0.000488281H199.805C199.857 0.000488281 199.906 0.0210411 199.943 0.0576255C199.98 0.0942098 200 0.143829 200 0.195567V40.6337ZM141.944 27.8236C140.083 28.5267 138.302 28.9615 136.502 28.2666C136.259 28.1736 136.046 28.0143 135.888 27.8062C135.729 27.5981 135.631 27.3495 135.604 27.0879C135.531 26.3781 135.588 25.6465 135.775 24.8933C136.571 21.6501 137.832 16.8965 139.558 10.6323C139.571 10.5867 139.599 10.5466 139.636 10.518C139.673 10.4894 139.719 10.4739 139.766 10.4738H145.862C145.95 10.4737 146.036 10.443 146.105 10.3868C146.173 10.3305 146.221 10.2522 146.24 10.1649L146.565 8.62865C146.571 8.60012 146.571 8.5706 146.564 8.54224C146.558 8.51389 146.545 8.48743 146.527 8.46481C146.509 8.44219 146.486 8.424 146.46 8.41155C146.435 8.39911 146.406 8.39275 146.378 8.39293H140.363C140.335 8.393 140.308 8.38687 140.283 8.37499C140.259 8.3631 140.237 8.34577 140.22 8.32429C140.202 8.30281 140.19 8.27772 140.184 8.2509C140.178 8.22408 140.178 8.19623 140.184 8.1694L141.025 4.17842C141.034 4.13723 141.031 4.09453 141.017 4.05475C141.004 4.01498 140.98 3.97958 140.948 3.95221C140.916 3.92485 140.877 3.90652 140.836 3.89913C140.794 3.89174 140.752 3.89556 140.712 3.91019L138.286 4.81649C138.194 4.85158 138.111 4.90937 138.047 4.9846C137.982 5.05983 137.937 5.15012 137.916 5.24729L137.327 8.04341C137.306 8.14128 137.253 8.22907 137.175 8.292C137.097 8.35492 137 8.38913 136.9 8.38886H134.592C134.523 8.38909 134.456 8.41262 134.403 8.45552C134.35 8.49843 134.313 8.5581 134.299 8.62458L133.97 10.1893C133.963 10.2219 133.964 10.2555 133.972 10.2878C133.979 10.3201 133.994 10.3502 134.015 10.3759C134.035 10.4016 134.061 10.4222 134.091 10.4364C134.121 10.4505 134.153 10.4577 134.185 10.4575H136.254C136.3 10.4577 136.346 10.4685 136.388 10.4893C136.429 10.51 136.465 10.54 136.493 10.577C136.521 10.614 136.54 10.6569 136.549 10.7025C136.557 10.748 136.555 10.7949 136.543 10.8395C134.67 17.6917 133.352 22.6255 132.588 25.6411C132.32 26.714 132.153 28.5307 132.861 29.502C132.946 29.6168 133.058 29.7088 133.186 29.7703C135.825 31.022 138.623 31.0518 141.582 29.8597C141.593 29.8561 141.603 29.8494 141.611 29.8401C141.619 29.8308 141.624 29.8194 141.627 29.8069L142.033 27.9008C142.035 27.8891 142.034 27.8771 142.03 27.8659C142.026 27.8547 142.019 27.8448 142.01 27.837C142.001 27.8292 141.99 27.8239 141.979 27.8216C141.967 27.8192 141.955 27.8199 141.944 27.8236ZM180.049 10.0633H181.305C181.409 10.0632 181.51 10.0253 181.589 9.95651C181.667 9.88774 181.718 9.79282 181.732 9.68939L181.744 9.58372C181.753 9.51195 181.747 9.43901 181.726 9.36986C181.704 9.30071 181.668 9.23697 181.62 9.18299C181.572 9.129 181.513 9.08603 181.446 9.05699C181.38 9.02796 181.308 9.01355 181.236 9.01474L179.159 9.05132C179.049 9.05247 178.94 9.02543 178.843 8.97278C178.746 8.92012 178.665 8.84362 178.606 8.75057C177.57 7.09647 176.018 5.43017 174.095 4.82868C173.946 4.78254 173.786 4.79674 173.647 4.86821C173.509 4.93968 173.404 5.0627 173.356 5.21071C173.356 5.21342 173.368 5.27574 173.392 5.39766C174.177 8.97816 175.944 12.4042 177.473 15.5295C178.05 16.7081 178.032 17.8299 177.42 18.8947C177.321 19.0676 177.178 19.2114 177.006 19.3113C176.834 19.4112 176.639 19.4638 176.44 19.4636H168.816C168.737 19.4637 168.659 19.4423 168.591 19.4015C168.522 19.3608 168.465 19.3023 168.426 19.232C167.081 16.8626 166.239 14.989 163.183 14.9037C163.139 14.902 163.095 14.9114 163.056 14.9309C163.016 14.9505 162.982 14.9796 162.957 15.0157C162.931 15.0519 162.914 15.0939 162.908 15.1382C162.903 15.1824 162.908 15.2275 162.923 15.2694L164.683 19.9879C164.694 20.0193 164.697 20.0528 164.693 20.0858C164.689 20.1187 164.677 20.1501 164.658 20.1772C164.639 20.2043 164.614 20.2263 164.585 20.2415C164.557 20.2567 164.524 20.2645 164.492 20.2643H163.711C163.656 20.2643 163.604 20.2861 163.565 20.325C163.526 20.3638 163.504 20.4166 163.504 20.4715V21.1137C163.504 21.1484 163.511 21.1827 163.525 21.2148C163.538 21.2468 163.558 21.2759 163.583 21.3005C163.608 21.325 163.637 21.3445 163.67 21.3577C163.702 21.371 163.737 21.3778 163.772 21.3778H164.414C164.452 21.3777 164.488 21.3864 164.521 21.4034C164.554 21.4204 164.583 21.445 164.604 21.4753C164.626 21.5056 164.64 21.5406 164.645 21.5774C164.65 21.6142 164.646 21.6517 164.634 21.6867L163.029 26.2264C163.014 26.2668 163.011 26.3101 163.018 26.3523C163.025 26.3945 163.043 26.4341 163.07 26.4675C163.097 26.5008 163.132 26.5268 163.172 26.5429C163.211 26.559 163.254 26.5648 163.297 26.5596C164.622 26.4011 165.967 26.3361 166.638 25.446C167.396 24.4408 168.056 23.3503 168.617 22.1744C168.654 22.0953 168.714 22.0285 168.788 21.9817C168.862 21.935 168.948 21.9102 169.035 21.9102H176.489C176.625 21.9102 176.758 21.9467 176.875 22.0159C178.513 22.9669 177.887 25.1656 177.184 26.5555C175.981 28.9317 175.003 31.2388 174.25 33.4768C173.903 34.5036 173.674 35.456 173.563 36.3339C173.555 36.394 173.562 36.4552 173.582 36.5124C173.601 36.5697 173.634 36.6216 173.677 36.6641C173.72 36.7065 173.772 36.7384 173.829 36.7573C173.886 36.7762 173.946 36.7815 174.006 36.7728C174.892 36.6454 175.65 36.2241 176.282 35.5088C177.019 34.6716 177.737 33.8114 178.436 32.9281C178.505 32.84 178.592 32.7676 178.691 32.7158C178.791 32.6639 178.9 32.6338 179.013 32.6274C179.976 32.5623 181.614 33.0419 181.577 31.656C181.574 31.545 181.528 31.4396 181.449 31.3622C181.37 31.2848 181.265 31.2415 181.155 31.2415H180.135C180.107 31.2416 180.081 31.2345 180.057 31.2209C180.034 31.2074 180.014 31.1879 180.001 31.1644C179.987 31.1409 179.98 31.1143 179.98 31.0872C179.98 31.06 179.987 31.0333 180 31.0098L181.59 28.2503C181.625 28.1886 181.677 28.1374 181.74 28.1017C181.803 28.0661 181.874 28.0472 181.947 28.0471H183.955C184.058 28.0471 184.159 28.0151 184.244 27.9554C184.328 27.8957 184.392 27.8113 184.426 27.7138L184.471 27.5838C184.494 27.5189 184.501 27.4494 184.491 27.3813C184.481 27.3132 184.456 27.2484 184.416 27.1923C184.376 27.1362 184.323 27.0905 184.262 27.0589C184.201 27.0273 184.133 27.0108 184.065 27.0107H183.036C182.998 27.0107 182.961 26.9996 182.929 26.979C182.897 26.9584 182.871 26.929 182.856 26.8943C182.84 26.8597 182.834 26.8212 182.84 26.7835C182.845 26.7458 182.861 26.7104 182.886 26.6815C184.288 25.0396 185.463 23.987 185.788 22.3207C185.797 22.2704 185.824 22.2249 185.864 22.1923C185.905 22.1596 185.955 22.1418 186.007 22.1419H193.737C194.086 22.1419 194.42 22.0037 194.667 21.7577C194.914 21.5116 195.053 21.1777 195.054 20.8292V20.6869C195.055 20.5094 195.02 20.3335 194.952 20.1693C194.885 20.0052 194.786 19.8559 194.66 19.7302C194.535 19.6045 194.386 19.5047 194.222 19.4367C194.058 19.3686 193.882 19.3336 193.705 19.3336H185.918C185.864 19.3337 185.812 19.3163 185.77 19.284C185.727 19.2517 185.696 19.2063 185.682 19.1548C185.223 17.5657 184 16.3668 182.662 14.668C182.646 14.6471 182.635 14.622 182.632 14.5954C182.629 14.5688 182.633 14.5418 182.645 14.5176C182.656 14.4934 182.674 14.473 182.697 14.4586C182.719 14.4442 182.745 14.4365 182.772 14.4363H184.41C184.526 14.4365 184.637 14.3923 184.721 14.3129C184.805 14.2335 184.855 14.1249 184.861 14.0096L184.869 13.8754C184.874 13.8028 184.863 13.7301 184.838 13.6617C184.814 13.5933 184.775 13.5307 184.725 13.4778C184.675 13.4248 184.615 13.3827 184.548 13.3539C184.482 13.3252 184.41 13.3104 184.337 13.3105H181.833C181.761 13.3107 181.689 13.2916 181.627 13.2552C181.564 13.2188 181.512 13.1664 181.476 13.1033L179.887 10.3518C179.869 10.323 179.86 10.2901 179.86 10.2565C179.859 10.2229 179.868 10.1898 179.884 10.1605C179.901 10.1313 179.925 10.1069 179.954 10.0898C179.983 10.0727 180.016 10.0636 180.049 10.0633ZM88.1429 26.9701C87.9911 27.7721 87.7717 28.9724 87.4845 30.5709C86.6148 35.395 83.9324 37.9473 78.9823 38.2562C76.7687 38.3971 74.7583 38.3808 72.9511 38.2074C72.6949 38.1832 72.4447 38.1244 72.2074 38.0327L69.1308 36.8256C69.0935 36.8107 69.0533 36.8042 69.0131 36.8066C68.9729 36.809 68.9336 36.8203 68.898 36.8397C68.8623 36.859 68.8313 36.886 68.8069 36.9186C68.7826 36.9513 68.7655 36.9889 68.7569 37.0288L68.2977 39.195C68.2791 39.2859 68.2962 39.3804 68.3454 39.4591C68.3945 39.5378 68.472 39.5945 68.5619 39.6177C72.4038 40.5822 76.342 40.7976 80.3763 40.2639C85.5432 39.5811 88.7647 36.6861 90.0408 31.5788C90.5502 29.5495 92.4319 22.0647 95.6859 9.12447C95.6995 9.0706 95.6914 9.01352 95.6633 8.96559C95.6351 8.91767 95.5892 8.88276 95.5355 8.86843C90.5773 7.49475 85.5852 7.50559 80.5592 8.90094C76.3528 10.0674 73.4876 12.8797 71.5165 16.7325C70.4151 18.8865 69.4641 21.6095 69.7161 24.0114C70.2119 28.7258 73.8737 30.6522 78.1939 30.8026C82.1605 30.9367 85.1842 29.3761 87.9844 26.8807C87.9996 26.8682 88.0182 26.8605 88.0378 26.8588C88.0574 26.8571 88.0771 26.8614 88.0943 26.871C88.1114 26.8807 88.1252 26.8954 88.1339 26.913C88.1426 26.9307 88.1457 26.9506 88.1429 26.9701ZM113.015 27.283C110.921 28.1636 108.632 28.6323 106.147 28.6892C102.818 28.7624 98.99 27.474 98.4617 23.7228C98.2179 21.9942 98.333 20.3388 98.8072 18.7565C98.8247 18.6957 98.8616 18.6422 98.9122 18.6041C98.9627 18.566 99.0243 18.5453 99.0876 18.5451H117.092C117.136 18.5449 117.178 18.5304 117.213 18.504C117.247 18.4775 117.272 18.4405 117.283 18.3988C117.827 16.3017 118.14 13.7088 117.246 11.6524C115.291 7.17775 108.232 7.22246 104.493 8.83592C100.12 10.7244 97.3129 13.8077 96.072 18.0859C95.2551 20.8983 94.8528 23.6659 96.0192 26.2751C98.6527 32.1844 107.074 31.1805 111.991 29.8475C112.123 29.8111 112.244 29.7436 112.344 29.6509C112.443 29.5582 112.519 29.443 112.564 29.3151L113.215 27.47C113.224 27.4427 113.225 27.4134 113.218 27.3856C113.211 27.3577 113.196 27.3324 113.175 27.3127C113.154 27.2931 113.128 27.2798 113.099 27.2746C113.071 27.2693 113.042 27.2722 113.015 27.283ZM132.926 10.7583L133.332 8.83998C133.348 8.76131 133.333 8.67955 133.291 8.61202C133.248 8.5445 133.182 8.49653 133.104 8.47827C130.493 7.84156 127.87 7.72505 125.236 8.12876C121.493 8.7018 117.986 11.5873 119.636 15.8181C119.926 16.5605 120.694 17.4858 121.94 18.5939C123.065 19.591 124.059 20.4756 124.923 21.2478C126.46 22.6215 127.597 24.3975 126.244 26.2467C123.854 29.5102 118.916 29.1688 115.856 27.4944C115.811 27.4691 115.761 27.4541 115.709 27.4504C115.657 27.4468 115.605 27.4545 115.556 27.473C115.508 27.4916 115.463 27.5205 115.427 27.5579C115.39 27.5953 115.362 27.6402 115.344 27.6894L114.743 29.3923C114.716 29.4675 114.719 29.5497 114.751 29.6222C114.783 29.6947 114.841 29.752 114.913 29.7825C118.518 31.3187 124.045 31.3472 127.142 28.5551C130.35 25.6641 130.409 22.7 127.317 19.6628C126.694 19.0504 125.678 18.1455 124.269 16.9479C122.855 15.7409 121.721 14.1721 122.46 12.2782C123.379 9.92511 127.382 9.96168 129.369 10.0105C130.564 10.0403 131.652 10.3329 132.633 10.8883C132.659 10.9043 132.689 10.9137 132.72 10.9156C132.751 10.9174 132.782 10.9118 132.811 10.8991C132.84 10.8864 132.865 10.867 132.885 10.8425C132.905 10.818 132.919 10.7891 132.926 10.7583ZM146.419 26.202L147.207 26.6571C147.255 26.6835 147.311 26.6932 147.366 26.6848C147.42 26.6765 147.47 26.6504 147.509 26.6108C147.547 26.5711 147.571 26.52 147.578 26.4652C147.584 26.4105 147.572 26.3551 147.544 26.3076C147.195 25.7468 146.734 25.5205 146.162 25.6289C146.039 25.6504 145.921 25.6989 145.817 25.7712C145.4 26.0692 145.262 26.5339 145.402 27.1652C145.44 27.3271 145.523 27.4752 145.642 27.5919C146.223 28.1528 146.922 28.6445 146.675 29.3517C146.639 29.4538 146.579 29.5459 146.5 29.6196C146.421 29.6933 146.325 29.7463 146.222 29.7738C146.119 29.8012 146.011 29.8023 145.908 29.7768C145.806 29.7514 145.711 29.7002 145.634 29.628C145.482 29.4844 145.306 29.3192 145.106 29.1322C145.058 29.089 144.996 29.0643 144.931 29.0625C144.866 29.0608 144.803 29.0821 144.753 29.1227C144.703 29.1633 144.668 29.2205 144.656 29.284C144.644 29.3476 144.655 29.4133 144.687 29.4695C145.164 30.258 145.764 30.5113 146.488 30.2295C146.609 30.1838 146.72 30.1178 146.817 30.0344C148.138 28.8884 146.829 28.1121 146.162 27.2383C146.065 27.1101 146.01 26.9547 146.005 26.7938C146 26.6329 146.045 26.4743 146.134 26.3401L146.191 26.2548C146.215 26.2187 146.252 26.1932 146.294 26.1833C146.337 26.1735 146.381 26.1802 146.419 26.202ZM154.486 30.1889L154.6 30.258C154.623 30.272 154.65 30.2811 154.677 30.2846C154.705 30.2882 154.733 30.2861 154.76 30.2785C154.787 30.2709 154.812 30.258 154.834 30.2405C154.856 30.223 154.874 30.2013 154.888 30.1767L155.612 28.929C155.645 28.8709 155.694 28.8226 155.752 28.7891C155.811 28.7556 155.877 28.738 155.945 28.738H157.229C157.32 28.7378 157.409 28.7671 157.481 28.8214C157.554 28.8757 157.607 28.952 157.631 29.0387C157.778 29.5373 157.92 29.9003 158.058 30.1279C158.096 30.1912 158.157 30.238 158.227 30.2592C158.298 30.2803 158.374 30.2743 158.441 30.2423C158.508 30.2103 158.56 30.1546 158.587 30.086C158.615 30.0175 158.616 29.9412 158.591 29.8719L157.087 25.8484C157.075 25.818 157.054 25.7916 157.028 25.7722C157.002 25.7528 156.971 25.7411 156.938 25.7386C156.905 25.7361 156.873 25.7427 156.844 25.7578C156.815 25.7729 156.791 25.7958 156.774 25.824L154.413 29.9125C154.386 29.9589 154.379 30.014 154.392 30.0657C154.406 30.1175 154.44 30.1617 154.486 30.1889ZM149.812 29.9207C150.701 30.4923 151.503 30.4734 152.218 29.8638C153.888 28.4332 152.527 26.0272 150.491 26.966C150.344 27.0338 150.223 27.0514 150.125 27.0189C149.878 26.9376 149.75 26.8983 149.739 26.901C149.593 26.92 149.492 27.0947 149.438 27.4253C149.354 27.9184 149.177 29.185 148.906 31.2252C148.897 31.2784 148.907 31.3331 148.933 31.3799C148.96 31.4266 149.003 31.4625 149.053 31.4812C149.104 31.5 149.16 31.5006 149.211 31.4828C149.261 31.465 149.305 31.4299 149.332 31.3837C149.533 31.0776 149.633 30.6224 149.633 30.0182C149.634 29.997 149.64 29.9762 149.651 29.9581C149.662 29.9399 149.677 29.9251 149.695 29.9151C149.714 29.9051 149.734 29.9003 149.755 29.9013C149.775 29.9023 149.795 29.909 149.812 29.9207ZM148.034 29.4639C147.934 29.4745 147.844 29.5307 147.782 29.6201C147.72 29.7095 147.693 29.8247 147.705 29.9405C147.711 29.9978 147.727 30.0535 147.751 30.1045C147.776 30.1554 147.809 30.2005 147.848 30.2373C147.887 30.2741 147.932 30.3019 147.98 30.3189C148.028 30.336 148.078 30.3421 148.127 30.3368C148.227 30.3261 148.318 30.2699 148.379 30.1805C148.441 30.0912 148.469 29.9759 148.457 29.8602C148.45 29.8029 148.435 29.7471 148.41 29.6962C148.386 29.6453 148.353 29.6001 148.313 29.5633C148.274 29.5265 148.229 29.4988 148.181 29.4817C148.134 29.4647 148.083 29.4586 148.034 29.4639ZM153.876 29.9003C153.876 29.7969 153.835 29.6976 153.762 29.6244C153.689 29.5513 153.59 29.5102 153.486 29.5102C153.383 29.5102 153.283 29.5513 153.21 29.6244C153.137 29.6976 153.096 29.7969 153.096 29.9003C153.096 30.0038 153.137 30.103 153.21 30.1762C153.283 30.2494 153.383 30.2905 153.486 30.2905C153.59 30.2905 153.689 30.2494 153.762 30.1762C153.835 30.103 153.876 30.0038 153.876 29.9003ZM159.336 29.4817C159.288 29.482 159.24 29.4935 159.195 29.5156C159.15 29.5377 159.109 29.5699 159.075 29.6105C159.041 29.651 159.014 29.6991 158.996 29.752C158.978 29.8048 158.968 29.8614 158.969 29.9185C158.969 30.0339 159.009 30.1443 159.078 30.2255C159.148 30.3066 159.243 30.352 159.341 30.3515C159.389 30.3512 159.437 30.3397 159.482 30.3176C159.527 30.2955 159.567 30.2633 159.602 30.2227C159.636 30.1822 159.663 30.1341 159.681 30.0812C159.699 30.0283 159.709 29.9717 159.708 29.9146C159.708 29.7993 159.668 29.6889 159.598 29.6077C159.529 29.5265 159.434 29.4812 159.336 29.4817Z" fill="white"/>
<path d="M31.4724 18.7035C28.4947 18.8715 25.5374 18.9365 22.6004 18.8986C22.5381 18.8986 22.4893 18.8782 22.4541 18.8376C22.4161 18.797 22.3836 18.7495 22.3565 18.6954L18.65 9.22998C18.6441 9.21601 18.6342 9.20408 18.6216 9.19569C18.6089 9.18731 18.5941 9.18284 18.5789 9.18284C18.5638 9.18284 18.5489 9.18731 18.5363 9.19569C18.5236 9.20408 18.5137 9.21601 18.5078 9.22998L14.7363 18.8091L5.6123 18.797L11.2696 4.39773C11.3065 4.30305 11.3716 4.22173 11.4565 4.16444C11.5413 4.10715 11.6419 4.07655 11.7451 4.07666H25.3884C25.4905 4.07683 25.5901 4.10755 25.6742 4.16483C25.7583 4.22211 25.823 4.30327 25.8598 4.39773L31.4724 18.7035Z" fill="white"/>
<path d="M45.2048 4.08496H38.7348C38.6046 4.08496 38.499 4.1905 38.499 4.32068V8.85626C38.499 8.98644 38.6046 9.09197 38.7348 9.09197H45.2048C45.335 9.09197 45.4406 8.98644 45.4406 8.85626V4.32068C45.4406 4.1905 45.335 4.08496 45.2048 4.08496Z" fill="white"/>
<path d="M100.254 16.3746C100.222 16.3742 100.191 16.3665 100.163 16.352C100.135 16.3375 100.111 16.3166 100.092 16.2912C100.074 16.2658 100.062 16.2365 100.058 16.2058C100.053 16.1751 100.056 16.1438 100.067 16.1145C101.969 10.7255 107.333 8.61621 112.515 10.4776C114.787 11.2945 115.218 14.1881 114.523 16.1105C114.495 16.1876 114.444 16.2544 114.377 16.3016C114.311 16.3489 114.231 16.3744 114.149 16.3746H100.254Z" fill="white"/>
<path d="M92.2068 10.8471C92.2317 10.8537 92.255 10.8652 92.2754 10.8808C92.2958 10.8965 92.3129 10.916 92.3258 10.9383C92.3386 10.9606 92.3469 10.9852 92.3502 11.0107C92.3535 11.0362 92.3517 11.0621 92.345 11.0869C91.5592 14.0239 90.8914 16.6372 90.3414 18.9266C89.9133 20.7094 89.3904 22.052 88.7726 22.9542C87.4558 24.8752 86.1472 26.2502 84.8467 27.0793C81.4463 29.2468 78.0392 29.3457 74.6254 27.376C72.6502 26.234 72.573 24.2385 72.8331 21.9626C73.0417 20.1364 73.5578 18.5256 74.3815 17.1303C76.6628 13.2585 79.9738 11.0395 84.3143 10.4732C86.7527 10.1603 89.8537 10.2253 92.2068 10.8471Z" fill="white"/>
<path d="M48.9445 18.7724C48.7521 18.7941 48.576 18.7155 48.4162 18.5367L48.4121 11.4814C48.4121 11.4415 48.428 11.4032 48.4562 11.375C48.4844 11.3468 48.5226 11.331 48.5625 11.331H55.7316C55.7844 11.331 55.8351 11.352 55.8724 11.3893C55.9098 11.4267 55.9308 11.4773 55.9308 11.5301V13.4687C55.9312 13.4911 55.9383 13.5129 55.9511 13.5313C55.9639 13.5497 55.9818 13.5639 56.0026 13.5721C56.0235 13.5804 56.0463 13.5823 56.0682 13.5776C56.0901 13.573 56.1102 13.562 56.1258 13.546C58.2514 11.2741 61.5393 10.7701 64.5061 11.3147C64.583 11.3299 64.6524 11.371 64.702 11.4311C64.7517 11.4912 64.7787 11.5664 64.7784 11.6439V18.7928C64.7786 18.8367 64.7691 18.8801 64.7505 18.9198C64.7319 18.9596 64.7047 18.9948 64.6709 19.0228C64.637 19.0508 64.5974 19.0709 64.5549 19.0817C64.5123 19.0925 64.4679 19.0938 64.4248 19.0854C64.0265 19.0095 63.5185 18.9404 62.9007 18.8781C61.8441 18.7684 60.8443 18.9838 59.8405 18.8293C59.4368 18.767 58.9301 18.7331 58.3205 18.7277C55.1938 18.7115 52.0685 18.7264 48.9445 18.7724Z" fill="white"/>
<path d="M45.4129 18.5162C45.4238 18.7465 45.3384 18.8603 45.1569 18.8576C42.9433 18.8278 40.7256 18.817 38.5039 18.8251L38.5486 11.721C38.5486 11.679 38.5653 11.6386 38.595 11.6089C38.6248 11.5792 38.6651 11.5625 38.7071 11.5625H45.2422C45.2961 11.5625 45.3478 11.5839 45.3859 11.622C45.424 11.6601 45.4454 11.7118 45.4454 11.7657L45.4129 18.5162Z" fill="white"/>
<path d="M33.3542 23.5071L37.146 33.2001C37.1553 33.2234 37.1587 33.2486 37.156 33.2736C37.1533 33.2985 37.1446 33.3224 37.1306 33.3432C37.1165 33.364 37.0977 33.3811 37.0756 33.393C37.0535 33.4049 37.0288 33.4112 37.0038 33.4114H28.3715C28.3105 33.4112 28.251 33.3924 28.2009 33.3575C28.1509 33.3227 28.1126 33.2735 28.0911 33.2163L24.2627 23.4624L33.3542 23.5071Z" fill="white"/>
<path d="M45.4409 23.4624L45.4125 33.2082C45.4125 33.2643 45.3902 33.318 45.3506 33.3577C45.3109 33.3973 45.2572 33.4196 45.2011 33.4196H38.6904C38.644 33.4196 38.5996 33.4012 38.5668 33.3684C38.534 33.3356 38.5156 33.2912 38.5156 33.2448L38.5319 23.3608L45.4409 23.4624Z" fill="white"/>
<path d="M55.5455 23.4319L48.6039 23.4198C48.5007 23.4196 48.4168 23.5031 48.4167 23.6064L48.3999 33.2221C48.3997 33.3254 48.4833 33.4092 48.5865 33.4094L55.528 33.4215C55.6313 33.4217 55.7151 33.3381 55.7153 33.2349L55.7321 23.6192C55.7323 23.5159 55.6487 23.4321 55.5455 23.4319Z" fill="white"/>
<path d="M12.8627 23.499L9.14401 33.0904C9.10794 33.1828 9.04479 33.2621 8.96283 33.3179C8.88087 33.3738 8.78395 33.4036 8.68477 33.4033H0.235431C0.197149 33.4031 0.159445 33.3936 0.125592 33.3758C0.0917392 33.358 0.0627549 33.3324 0.0411416 33.3012C0.0195282 33.27 0.00593895 33.2341 0.00155198 33.1967C-0.002835 33.1592 0.00211237 33.1213 0.015964 33.0863L3.68995 23.6128L12.8627 23.499Z" fill="white"/>
<path d="M156.197 28.0184L156.701 27.1486C156.715 27.1235 156.736 27.103 156.761 27.0893C156.786 27.0757 156.815 27.0696 156.844 27.0717C156.872 27.0738 156.9 27.0841 156.923 27.1014C156.946 27.1186 156.963 27.1421 156.973 27.169L157.29 28.0184C157.302 28.0498 157.306 28.0837 157.302 28.1171C157.298 28.1504 157.286 28.1823 157.266 28.2099C157.247 28.2375 157.222 28.26 157.192 28.2755C157.162 28.291 157.129 28.299 157.095 28.2988H156.36C156.327 28.2989 156.294 28.2904 156.266 28.274C156.237 28.2576 156.214 28.2341 156.197 28.2056C156.181 28.1772 156.172 28.1449 156.172 28.112C156.172 28.0791 156.18 28.0468 156.197 28.0184Z" fill="white"/>
<path d="M151.779 29.5263C152.401 29.0911 152.599 28.3016 152.222 27.7629C151.844 27.2242 151.035 27.1402 150.413 27.5754C149.792 28.0105 149.594 28.8 149.971 29.3387C150.348 29.8774 151.158 29.9614 151.779 29.5263Z" fill="white"/>
<path d="M5.81284 18.8052H65.1844V20.4308H5.03516L5.81284 18.8052Z" fill="white"/>
<path d="M4.38735 22.2594L65.1847 22.0562V23.6818H3.66309L4.38735 22.2594Z" fill="white"/>
</svg>
