<svg width="200" height="42" viewBox="0 0 200 42" fill="none" xmlns="http://www.w3.org/2000/svg">
<path d="M45.0051 0C45.0664 0.00628152 45.1098 0.0260234 45.1352 0.0592258C50.0815 6.5606 55.0339 13.0579 59.9924 19.5512C60.0205 19.5871 60.0525 19.6185 60.0884 19.6455L63.1114 23.658L65.0973 26.202L74.8602 39.0688C74.8891 39.163 74.7822 39.2097 74.5395 39.2088C64.7144 39.1882 54.8749 39.1801 45.0209 39.1846C44.9942 39.1845 44.9683 39.1751 44.9477 39.158C44.9271 39.1408 44.913 39.1169 44.9078 39.0904L43.6947 32.7505L43.6264 32.3763C43.6202 32.1484 43.5878 31.9581 43.5291 31.8056C43.5098 31.7715 43.4997 31.7342 43.4989 31.6939L37.4595 0.21402C37.4573 0.205734 37.4525 0.198415 37.4459 0.193195C37.4392 0.187976 37.4311 0.185148 37.4227 0.185148C37.4143 0.185148 37.4062 0.187976 37.3995 0.193195C37.3929 0.198415 37.3881 0.205734 37.3859 0.21402L32.3599 26.5641L29.956 39.1388C29.9236 39.172 29.8767 39.1886 29.8153 39.1886C19.8956 39.1895 9.98118 39.1927 0.071984 39.198C0.0584443 39.198 0.0451928 39.194 0.0337389 39.1866C0.022285 39.1792 0.0130891 39.1687 0.00719887 39.1562C0.00130861 39.1437 -0.00103928 39.1298 0.000422638 39.116C0.00188456 39.1022 0.00709751 39.0891 0.0154677 39.0782L29.7628 0H45.0051Z" fill="white"/>
<path d="M137.312 19.3672H137.099C136.611 19.3672 136.215 19.7728 136.215 20.2731V20.4507C136.215 20.9511 136.611 21.3566 137.099 21.3566H137.312C137.801 21.3566 138.197 20.9511 138.197 20.4507V20.2731C138.197 19.7728 137.801 19.3672 137.312 19.3672Z" fill="white"/>
<path d="M111.102 27.4608C111.102 27.447 111.098 27.4335 111.09 27.4222C111.082 27.4109 111.071 27.4025 111.059 27.3981C111.046 27.3938 111.032 27.3937 111.019 27.398C111.006 27.4022 110.995 27.4106 110.987 27.4218C110.325 28.3371 109.212 28.5309 108.229 28.1662C105.744 27.2414 105.851 22.9018 108.403 22.1211C109.343 21.8344 110.358 22.0821 110.977 22.9018C110.986 22.9137 110.998 22.9224 111.012 22.9266C111.026 22.9309 111.041 22.9306 111.055 22.9257C111.069 22.9208 111.081 22.9115 111.089 22.8993C111.097 22.887 111.102 22.8723 111.102 22.8574V19.5878C111.102 19.5671 111.11 19.5473 111.124 19.5326C111.138 19.518 111.158 19.5098 111.178 19.5098H112.667C112.696 19.5098 112.723 19.5213 112.743 19.5417C112.763 19.5621 112.775 19.5899 112.775 19.6188V28.0719C112.775 28.0926 112.767 28.1125 112.752 28.1271C112.738 28.1418 112.719 28.15 112.699 28.15H111.171C111.153 28.15 111.135 28.1425 111.122 28.1291C111.109 28.1157 111.102 28.0976 111.102 28.0787V27.4608ZM109.629 23.4833C109.429 23.484 109.23 23.5286 109.045 23.6144C108.86 23.7002 108.692 23.8256 108.551 23.9835C108.41 24.1414 108.298 24.3286 108.222 24.5345C108.146 24.7404 108.107 24.9609 108.108 25.1834C108.109 25.6329 108.272 26.0633 108.559 26.3801C108.847 26.6969 109.236 26.874 109.641 26.8726C109.841 26.8719 110.04 26.8273 110.225 26.7415C110.41 26.6557 110.578 26.5302 110.719 26.3724C110.86 26.2145 110.972 26.0273 111.048 25.8214C111.124 25.6155 111.163 25.395 111.162 25.1725C111.161 24.723 110.998 24.2926 110.711 23.9758C110.423 23.659 110.034 23.4818 109.629 23.4833Z" fill="white"/>
<path d="M63.1128 23.6581L60.0898 19.6456L71.6652 19.6133C71.6674 19.6135 71.6695 19.6145 71.6712 19.616C71.6729 19.6176 71.674 19.6196 71.6744 19.6219C71.6749 19.6241 71.6746 19.6265 71.6736 19.6286C71.6727 19.6307 71.6711 19.6324 71.6691 19.6335L63.1128 23.6581Z" fill="white"/>
<path d="M143.804 24.0067C143.797 25.4685 144.66 26.6799 146.149 26.7539C147.173 26.8037 148.108 26.1307 148.395 25.1279C148.402 25.1024 148.418 25.0805 148.44 25.0659C148.462 25.0514 148.488 25.0452 148.513 25.0485L150.097 25.2571C150.11 25.2589 150.121 25.2633 150.132 25.27C150.143 25.2767 150.152 25.2856 150.159 25.2962C150.166 25.3067 150.171 25.3187 150.173 25.3312C150.175 25.3437 150.175 25.3565 150.172 25.3689C149.866 26.6691 149.089 27.5701 147.84 28.0717C146.772 28.5011 145.396 28.4782 144.331 27.9909C142.78 27.2802 141.918 25.7713 141.926 23.9972C141.935 22.2232 142.81 20.7223 144.369 20.0278C145.438 19.5499 146.814 19.5418 147.878 19.9807C149.123 20.4948 149.892 21.4039 150.185 22.7077C150.188 22.7201 150.188 22.7329 150.186 22.7453C150.183 22.7577 150.178 22.7696 150.171 22.78C150.164 22.7904 150.155 22.7992 150.144 22.8057C150.133 22.8123 150.121 22.8165 150.109 22.8181L148.522 23.0106C148.497 23.0135 148.471 23.007 148.45 22.9922C148.428 22.9774 148.413 22.9553 148.406 22.9298C148.128 21.9243 147.199 21.2419 146.175 21.2823C144.685 21.3415 143.811 22.5449 143.804 24.0067Z" fill="white"/>
<path d="M180.652 22.1137C180.655 22.1213 180.656 22.1294 180.655 22.1375C180.655 22.1456 180.653 22.1535 180.649 22.1606C180.645 22.1678 180.64 22.174 180.634 22.1789C180.627 22.1838 180.62 22.1873 180.612 22.1891L179.005 22.5592C178.99 22.5623 178.975 22.5603 178.962 22.5534C178.949 22.5465 178.939 22.5352 178.934 22.5215C178.332 21.1042 176.335 20.9238 175.259 21.8431C174.209 22.7383 174.01 24.441 174.79 25.643C175.948 27.4252 178.902 27.0698 179.302 24.8448C179.304 24.8306 179.304 24.816 179.3 24.8021C179.297 24.7881 179.29 24.7752 179.281 24.7641C179.273 24.7531 179.261 24.7442 179.249 24.7381C179.236 24.7321 179.222 24.729 179.209 24.729H176.162C176.149 24.729 176.137 24.7238 176.128 24.7145C176.118 24.7051 176.113 24.6925 176.113 24.6792V23.4961C176.113 23.4836 176.118 23.4716 176.127 23.4628C176.136 23.4539 176.148 23.449 176.161 23.449H181.055C181.066 23.4489 181.077 23.4531 181.086 23.4607C181.094 23.4684 181.1 23.4791 181.101 23.4907C181.426 26.5906 179.182 28.7376 176.194 28.3418C173.679 28.0093 172.14 25.8974 172.491 23.3319C172.822 20.9103 174.77 19.5576 177.089 19.6706C178.667 19.7474 180.101 20.5738 180.652 22.1137Z" fill="white"/>
<path d="M83.1715 19.8712C83.6516 19.8712 84.0735 19.8753 84.4372 19.8834C84.4671 19.884 84.4961 19.894 84.5201 19.9121C84.5441 19.9302 84.562 19.9554 84.5712 19.9843L87.2091 28.0969C87.2112 28.1032 87.2118 28.11 87.2108 28.1167C87.2098 28.1233 87.2073 28.1296 87.2034 28.135C87.1995 28.1404 87.1945 28.1448 87.1886 28.1478C87.1827 28.1507 87.1762 28.1522 87.1697 28.1521H85.4019C85.3778 28.152 85.3544 28.1443 85.335 28.13C85.3156 28.1157 85.3013 28.0957 85.2941 28.0727L84.8564 26.7428C84.8503 26.7245 84.839 26.7085 84.824 26.6969C84.809 26.6854 84.791 26.6789 84.7723 26.6782C84.7408 26.6773 84.205 26.6764 83.1649 26.6755C82.1257 26.6746 81.5903 26.6746 81.5588 26.6755C81.5401 26.6762 81.5221 26.6827 81.5071 26.6942C81.4921 26.7058 81.4808 26.7218 81.4747 26.7401L81.0344 28.0686C81.0271 28.0916 81.0128 28.1117 80.9935 28.126C80.9741 28.1402 80.9507 28.1479 80.9266 28.148L79.1588 28.1454C79.1522 28.1455 79.1458 28.144 79.1399 28.141C79.134 28.1381 79.1289 28.1337 79.1251 28.1283C79.1212 28.1229 79.1186 28.1166 79.1177 28.1099C79.1167 28.1033 79.1173 28.0965 79.1194 28.0902L81.7717 19.9816C81.7809 19.953 81.7986 19.9279 81.8223 19.9098C81.8461 19.8917 81.8747 19.8816 81.9044 19.8807C82.269 19.8735 82.6913 19.8703 83.1715 19.8712ZM81.9439 25.145C81.9401 25.1566 81.9391 25.1688 81.9409 25.1808C81.9427 25.1928 81.9472 25.2042 81.9542 25.2141C81.9611 25.2239 81.9702 25.232 81.9807 25.2375C81.9913 25.2431 82.003 25.246 82.0148 25.246L84.3162 25.25C84.3281 25.25 84.3398 25.2471 84.3503 25.2416C84.3609 25.236 84.37 25.228 84.3769 25.2181C84.3839 25.2083 84.3884 25.1969 84.3902 25.1849C84.392 25.1729 84.391 25.1606 84.3872 25.1491L83.2424 21.5942C83.2376 21.5789 83.2281 21.5656 83.2155 21.5561C83.2028 21.5467 83.1876 21.5415 83.1719 21.5413C83.1563 21.5412 83.1409 21.5461 83.1281 21.5553C83.1153 21.5645 83.1056 21.5777 83.1005 21.5928L81.9439 25.145Z" fill="white"/>
<path d="M74.8605 39.0694L65.0977 26.2026L74.8119 19.9502C74.8169 19.9471 74.8227 19.9454 74.8286 19.9453C74.8345 19.9452 74.8403 19.9468 74.8455 19.9498C74.8506 19.9529 74.8548 19.9573 74.8577 19.9625C74.8606 19.9678 74.862 19.9738 74.8618 19.9798L74.8605 39.0694Z" fill="white"/>
<path d="M93.7672 25.672H89.3971C89.3882 25.672 89.3794 25.674 89.3714 25.678C89.3633 25.6819 89.3563 25.6877 89.3507 25.6948C89.3452 25.7019 89.3413 25.7102 89.3393 25.7191C89.3373 25.728 89.3373 25.7372 89.3392 25.7461C89.6442 27.1998 91.4054 27.5269 92.194 26.3047C92.2066 26.285 92.2249 26.2697 92.2463 26.2611C92.2677 26.2524 92.2912 26.2507 92.3136 26.2562L93.5964 26.59C93.6038 26.592 93.6108 26.5956 93.6168 26.6004C93.6229 26.6053 93.6278 26.6114 93.6314 26.6184C93.635 26.6254 93.6371 26.6331 93.6377 26.6409C93.6382 26.6488 93.6371 26.6567 93.6345 26.6641C93.2599 27.7194 92.2137 28.2282 91.1517 28.3211C89.4352 28.4732 87.8935 27.5148 87.6346 25.6949C86.9511 20.9111 94.335 20.6782 93.8527 25.5926C93.8504 25.6145 93.8404 25.6347 93.8246 25.6494C93.8088 25.6641 93.7884 25.6721 93.7672 25.672ZM89.3708 24.5979L92.1072 24.6033C92.1118 24.6033 92.1161 24.6014 92.1193 24.5982C92.1225 24.5949 92.1243 24.5904 92.1243 24.5858V24.5791C92.125 24.2435 91.9815 23.9214 91.7254 23.6837C91.4693 23.4459 91.1216 23.3119 90.7587 23.3111H90.7246C90.5449 23.3107 90.3669 23.3431 90.2007 23.4063C90.0346 23.4696 89.8835 23.5625 89.7562 23.6797C89.6289 23.797 89.5279 23.9362 89.4588 24.0896C89.3897 24.243 89.354 24.4075 89.3537 24.5737V24.5804C89.3537 24.585 89.3555 24.5895 89.3587 24.5928C89.3619 24.5961 89.3663 24.5979 89.3708 24.5979Z" fill="white"/>
<path d="M105.605 25.4677C105.599 26.2238 105.301 26.9468 104.775 27.4777C104.25 28.0086 103.54 28.3039 102.801 28.2986L102.034 28.2932C101.296 28.2879 100.59 27.9825 100.071 27.4441C99.5528 26.9057 99.2644 26.1785 99.2696 25.4224L99.2733 24.8759C99.2785 24.1198 99.5767 23.3968 100.102 22.8659C100.628 22.335 101.338 22.0397 102.076 22.045L102.844 22.0505C103.582 22.0558 104.288 22.3612 104.807 22.8995C105.325 23.4379 105.613 24.1651 105.608 24.9212L105.605 25.4677ZM102.429 23.4799C102.022 23.4813 101.632 23.6614 101.345 23.9805C101.059 24.2996 100.898 24.7315 100.9 25.1813C100.901 25.6312 101.065 26.062 101.354 26.379C101.643 26.696 102.034 26.8733 102.441 26.8719C102.848 26.8704 103.238 26.6903 103.525 26.3712C103.811 26.0521 103.972 25.6202 103.97 25.1704C103.969 24.7206 103.805 24.2898 103.516 23.9727C103.227 23.6557 102.836 23.4784 102.429 23.4799Z" fill="white"/>
<path d="M124.76 25.4562C124.758 25.8306 124.685 26.2011 124.544 26.5465C124.403 26.8919 124.197 27.2054 123.937 27.4692C123.678 27.733 123.37 27.9419 123.032 28.084C122.694 28.2261 122.332 28.2985 121.966 28.2972L121.196 28.2944C120.458 28.2918 119.751 27.9889 119.23 27.4524C118.71 26.9159 118.419 26.1897 118.422 25.4336L118.424 24.8898C118.425 24.5154 118.498 24.1449 118.639 23.7996C118.78 23.4542 118.987 23.1406 119.246 22.8768C119.505 22.613 119.813 22.4041 120.151 22.262C120.489 22.12 120.852 22.0475 121.217 22.0488L121.987 22.0516C122.726 22.0542 123.433 22.3571 123.953 22.8937C124.473 23.4302 124.764 24.1563 124.761 24.9125L124.76 25.4562ZM121.599 23.4797C121.192 23.4768 120.801 23.6529 120.511 23.9691C120.222 24.2854 120.057 24.7159 120.054 25.1661C120.052 25.389 120.091 25.61 120.166 25.8165C120.242 26.0229 120.354 26.2109 120.495 26.3695C120.636 26.5281 120.805 26.6543 120.99 26.741C121.176 26.8276 121.375 26.8729 121.576 26.8744C121.983 26.8773 122.374 26.7012 122.664 26.385C122.954 26.0687 123.118 25.6382 123.122 25.188C123.123 24.9651 123.085 24.7441 123.009 24.5377C122.934 24.3312 122.822 24.1433 122.68 23.9846C122.539 23.826 122.371 23.6998 122.185 23.6131C122 23.5265 121.801 23.4812 121.599 23.4797Z" fill="white"/>
<path d="M127.461 22.2886V23.0074C127.461 23.0211 127.466 23.0344 127.474 23.0452C127.482 23.056 127.493 23.0639 127.506 23.0675C127.519 23.0711 127.533 23.0704 127.545 23.0654C127.558 23.0604 127.568 23.0514 127.575 23.0397C128.394 21.6412 130.246 21.6789 131.002 23.0962C131.008 23.1087 131.018 23.1191 131.029 23.1264C131.041 23.1337 131.055 23.1377 131.068 23.1378C131.082 23.138 131.096 23.1343 131.107 23.1272C131.119 23.1201 131.129 23.1099 131.136 23.0976C131.543 22.3689 132.167 22.0136 133.006 22.0315C134.318 22.0585 135.109 23.1461 135.118 24.4409C135.125 25.4253 135.126 26.6426 135.121 28.0928C135.12 28.1082 135.114 28.1229 135.104 28.1337C135.093 28.1446 135.079 28.1506 135.064 28.1506H133.55C133.524 28.1506 133.5 28.1401 133.481 28.1215C133.463 28.1028 133.453 28.0774 133.453 28.051C133.448 26.39 133.448 25.4168 133.453 25.1315C133.463 24.655 133.411 24.3081 133.299 24.091C132.75 23.0222 131.278 23.4974 131.276 24.6711C131.274 26.9046 131.273 28.038 131.274 28.0712C131.274 28.0816 131.273 28.092 131.269 28.1018C131.266 28.1116 131.26 28.1205 131.253 28.1281C131.246 28.1356 131.237 28.1416 131.228 28.1458C131.218 28.1499 131.208 28.152 131.198 28.152H129.672C129.649 28.152 129.628 28.143 129.612 28.1271C129.596 28.1112 129.587 28.0897 129.587 28.0672C129.582 26.189 129.581 25.1687 129.584 25.0063C129.595 24.2498 129.401 23.4974 128.532 23.5028C127.718 23.5081 127.454 24.2135 127.465 24.9376C127.47 25.363 127.47 26.4057 127.463 28.0658C127.463 28.0888 127.454 28.1107 127.438 28.1268C127.422 28.1429 127.4 28.152 127.378 28.152L125.853 28.1533C125.837 28.1533 125.822 28.1467 125.811 28.1348C125.799 28.1229 125.793 28.1068 125.793 28.0901V22.2752C125.793 22.2527 125.802 22.2311 125.817 22.2152C125.832 22.1993 125.853 22.1904 125.874 22.1904H127.365C127.378 22.1904 127.39 22.1929 127.402 22.1978C127.413 22.2028 127.424 22.21 127.433 22.2191C127.442 22.2283 127.449 22.2391 127.454 22.251C127.458 22.2629 127.461 22.2757 127.461 22.2886Z" fill="white"/>
<path d="M157.572 28.1509H156.102C156.077 28.1509 156.053 28.1407 156.036 28.1225C156.018 28.1043 156.008 28.0797 156.008 28.054V22.2498C156.008 22.2341 156.014 22.2191 156.025 22.208C156.036 22.1969 156.05 22.1906 156.066 22.1906H157.606C157.626 22.1906 157.646 22.1988 157.66 22.2135C157.674 22.2281 157.682 22.248 157.682 22.2687V22.9377C157.682 22.9534 157.687 22.9689 157.696 22.9817C157.705 22.9944 157.717 23.0039 157.732 23.0086C157.747 23.0133 157.762 23.013 157.777 23.0077C157.791 23.0025 157.804 22.9925 157.812 22.9794C158.024 22.6671 158.268 22.4289 158.544 22.2647C159.245 21.8487 160.233 21.9901 160.83 22.5083C161.502 23.0925 161.648 23.8651 161.646 24.8639C161.645 26.3669 161.644 27.4406 161.644 28.0849C161.644 28.1028 161.637 28.1199 161.624 28.1325C161.612 28.1451 161.595 28.1522 161.578 28.1522H160.059C160.037 28.1522 160.016 28.1434 160.001 28.1278C159.986 28.1121 159.977 28.0909 159.977 28.0688C159.971 27.4747 159.97 26.3858 159.974 24.8019C159.98 22.9363 157.663 23.18 157.678 24.9042C157.691 26.2898 157.688 27.3388 157.672 28.0513C157.671 28.0779 157.66 28.1033 157.642 28.1219C157.623 28.1405 157.598 28.1509 157.572 28.1509Z" fill="white"/>
<path d="M168.839 25.5916C168.837 25.6135 168.827 25.6337 168.811 25.6484C168.796 25.6631 168.775 25.6711 168.754 25.671H164.385C164.376 25.671 164.368 25.673 164.359 25.677C164.351 25.6809 164.344 25.6867 164.339 25.6938C164.333 25.7009 164.329 25.7092 164.327 25.7181C164.325 25.727 164.325 25.7362 164.327 25.7451C164.632 27.1988 166.394 27.5259 167.181 26.3037C167.193 26.284 167.212 26.2687 167.233 26.26C167.255 26.2514 167.278 26.2497 167.3 26.2552L168.583 26.589C168.591 26.591 168.598 26.5945 168.604 26.5994C168.61 26.6043 168.615 26.6104 168.618 26.6174C168.622 26.6244 168.624 26.632 168.624 26.6399C168.625 26.6478 168.624 26.6557 168.621 26.6631C168.247 27.7184 167.201 28.2272 166.14 28.32C164.423 28.4721 162.882 27.5138 162.623 25.6939C161.941 20.9114 169.322 20.6786 168.839 25.5916ZM164.356 24.6009H167.095C167.099 24.6009 167.103 24.5994 167.106 24.5966C167.108 24.5938 167.11 24.5901 167.11 24.5861V24.5727C167.11 24.2375 166.965 23.916 166.707 23.6789C166.449 23.4419 166.099 23.3087 165.734 23.3087H165.718C165.353 23.3087 165.003 23.4419 164.745 23.6789C164.487 23.916 164.342 24.2375 164.342 24.5727V24.5861C164.342 24.5901 164.343 24.5938 164.346 24.5966C164.349 24.5994 164.352 24.6009 164.356 24.6009Z" fill="white"/>
<path d="M188.312 25.4462C188.312 26.2023 188.018 26.9275 187.496 27.4621C186.974 27.9968 186.266 28.2971 185.528 28.2971H184.76C184.022 28.2971 183.314 27.9968 182.792 27.4621C182.27 26.9275 181.977 26.2023 181.977 25.4462V24.8997C181.977 24.1436 182.27 23.4185 182.792 22.8838C183.314 22.3492 184.022 22.0488 184.76 22.0488H185.528C186.266 22.0488 186.974 22.3492 187.496 22.8838C188.018 23.4185 188.312 24.1436 188.312 24.8997V25.4462ZM185.15 23.4797C184.743 23.4775 184.352 23.6542 184.062 23.971C183.773 24.2878 183.609 24.7186 183.606 25.1688C183.605 25.3917 183.644 25.6126 183.72 25.819C183.796 26.0253 183.908 26.213 184.05 26.3714C184.192 26.5298 184.36 26.6557 184.546 26.742C184.732 26.8283 184.931 26.8733 185.133 26.8744C185.54 26.8765 185.931 26.6998 186.221 26.383C186.51 26.0663 186.674 25.6354 186.677 25.1853C186.678 24.9624 186.639 24.7414 186.563 24.5351C186.487 24.3288 186.375 24.141 186.233 23.9827C186.091 23.8243 185.923 23.6983 185.737 23.612C185.551 23.5258 185.352 23.4808 185.15 23.4797Z" fill="white"/>
<path d="M199.977 25.5898C199.974 25.6117 199.964 25.6319 199.948 25.6466C199.933 25.6613 199.912 25.6693 199.891 25.6692L195.522 25.6719C195.513 25.6719 195.505 25.6739 195.497 25.6779C195.489 25.6818 195.481 25.6875 195.476 25.6947C195.47 25.7018 195.466 25.7101 195.464 25.719C195.462 25.7278 195.462 25.7371 195.464 25.746C195.769 27.1983 197.531 27.5254 198.318 26.3032C198.33 26.2835 198.349 26.2683 198.37 26.2596C198.392 26.2509 198.415 26.2492 198.437 26.2548L199.72 26.5872C199.728 26.5892 199.735 26.5927 199.741 26.5976C199.747 26.6025 199.752 26.6086 199.755 26.6156C199.759 26.6226 199.761 26.6302 199.762 26.6381C199.762 26.646 199.761 26.6539 199.758 26.6613C199.385 27.7166 198.339 28.2254 197.277 28.3196C195.562 28.4717 194.02 27.5147 193.76 25.6948C193.075 20.9137 200.456 20.6768 199.977 25.5898ZM195.495 24.5964L198.231 24.6018C198.235 24.6018 198.239 24.6001 198.242 24.5971C198.245 24.5941 198.247 24.59 198.247 24.5857V24.5749C198.248 24.2401 198.104 23.9187 197.848 23.6814C197.592 23.4441 197.245 23.3104 196.883 23.3096H196.848C196.669 23.3092 196.491 23.3415 196.325 23.4046C196.159 23.4678 196.008 23.5605 195.881 23.6775C195.754 23.7944 195.653 23.9334 195.584 24.0865C195.515 24.2396 195.479 24.4037 195.479 24.5695V24.5803C195.479 24.5846 195.481 24.5887 195.484 24.5917C195.486 24.5947 195.49 24.5964 195.495 24.5964Z" fill="white"/>
<path d="M98.6522 23.7319C98.5655 23.7086 98.445 23.6763 98.2908 23.635C97.1131 23.3267 96.5716 24.1357 96.5729 25.2072C96.5747 26.6519 96.5738 27.6125 96.5703 28.089C96.57 28.1059 96.5633 28.122 96.5518 28.1338C96.5402 28.1457 96.5247 28.1523 96.5085 28.1523H94.9602C94.9428 28.1523 94.9261 28.1451 94.9138 28.1322C94.9015 28.1193 94.8945 28.1019 94.8945 28.0836V22.2513C94.8945 22.2437 94.896 22.2361 94.8988 22.2291C94.9017 22.2221 94.9058 22.2157 94.9111 22.2103C94.9163 22.205 94.9226 22.2007 94.9294 22.1978C94.9363 22.1949 94.9436 22.1934 94.951 22.1934H96.473C96.4926 22.1934 96.5113 22.2013 96.5251 22.2155C96.5389 22.2296 96.5466 22.2488 96.5466 22.2688V22.9243C96.5469 22.9397 96.5519 22.9547 96.5611 22.9671C96.5703 22.9794 96.583 22.9884 96.5974 22.9927C96.6118 22.9969 96.6271 22.9962 96.641 22.9907C96.6548 22.9851 96.6664 22.9751 96.6741 22.962C97.1385 22.1965 97.8018 21.9349 98.664 22.1772C98.6859 22.1834 98.7052 22.1967 98.719 22.2152C98.7327 22.2337 98.7402 22.2563 98.7403 22.2795V23.6633C98.7402 23.6742 98.7378 23.685 98.733 23.6948C98.7282 23.7047 98.7213 23.7132 98.7128 23.7199C98.7043 23.7265 98.6944 23.731 98.6839 23.7331C98.6734 23.7352 98.6625 23.7348 98.6522 23.7319Z" fill="white"/>
<path d="M117.893 23.6644C117.893 23.6754 117.89 23.6862 117.885 23.696C117.881 23.7058 117.874 23.7144 117.865 23.721C117.857 23.7277 117.847 23.7322 117.836 23.7343C117.826 23.7364 117.815 23.736 117.805 23.7331C117.718 23.7097 117.597 23.6774 117.443 23.6362C116.267 23.3279 115.725 24.1355 115.725 25.207C115.727 26.6499 115.726 27.6097 115.721 28.0862C115.721 28.1031 115.714 28.1192 115.703 28.131C115.691 28.1428 115.676 28.1494 115.66 28.1494L114.113 28.1481C114.095 28.1481 114.078 28.1409 114.066 28.128C114.054 28.1151 114.047 28.0976 114.047 28.0794L114.049 22.2511C114.049 22.2357 114.055 22.221 114.066 22.2102C114.077 22.1993 114.091 22.1932 114.106 22.1932L115.627 22.1946C115.646 22.1946 115.665 22.2025 115.679 22.2166C115.693 22.2308 115.7 22.2499 115.7 22.2699V22.9255C115.701 22.9409 115.706 22.9559 115.715 22.9683C115.724 22.9806 115.737 22.9896 115.751 22.9938C115.765 22.9981 115.781 22.9974 115.795 22.9919C115.808 22.9863 115.82 22.9762 115.828 22.9631C116.292 22.1977 116.955 21.9366 117.816 22.1797C117.838 22.1859 117.858 22.1993 117.871 22.2177C117.885 22.2362 117.893 22.2588 117.893 22.282V23.6644Z" fill="white"/>
<path d="M155.113 23.662C155.113 23.6729 155.11 23.6838 155.105 23.6936C155.101 23.7034 155.094 23.712 155.085 23.7186C155.077 23.7252 155.067 23.7298 155.056 23.7319C155.046 23.7339 155.035 23.7335 155.025 23.7306C154.938 23.7073 154.817 23.675 154.663 23.6337C153.487 23.3255 152.945 24.1344 152.947 25.2059C152.949 26.6497 152.949 27.6095 152.945 28.0851C152.945 28.102 152.938 28.1181 152.927 28.1299C152.915 28.1417 152.9 28.1483 152.884 28.1483L151.335 28.1497C151.318 28.1497 151.301 28.1424 151.289 28.1296C151.276 28.1167 151.27 28.0992 151.27 28.081V22.2513C151.27 22.236 151.275 22.2213 151.286 22.2104C151.297 22.1996 151.311 22.1935 151.326 22.1935H152.847C152.866 22.1935 152.885 22.2014 152.899 22.2155C152.913 22.2297 152.92 22.2488 152.92 22.2688V22.923C152.921 22.9384 152.926 22.9535 152.935 22.9658C152.944 22.9782 152.957 22.9871 152.971 22.9914C152.986 22.9956 153.001 22.995 153.015 22.9894C153.028 22.9839 153.04 22.9738 153.048 22.9607C153.512 22.1961 154.175 21.935 155.036 22.1773C155.058 22.1834 155.077 22.1966 155.091 22.2148C155.105 22.233 155.112 22.2552 155.113 22.2783V23.662Z" fill="white"/>
<path d="M193.205 23.6646C193.205 23.6756 193.203 23.6864 193.198 23.6962C193.193 23.706 193.186 23.7146 193.178 23.7212C193.169 23.7278 193.159 23.7324 193.149 23.7345C193.138 23.7366 193.127 23.7361 193.117 23.7332C193.03 23.7099 192.91 23.6776 192.756 23.6363C191.577 23.3267 191.035 24.1371 191.035 25.2085C191.037 26.6542 191.036 27.6157 191.031 28.0931C191.031 28.11 191.024 28.1261 191.013 28.1379C191.001 28.1497 190.986 28.1563 190.969 28.1563L189.421 28.155C189.404 28.155 189.387 28.1478 189.375 28.1349C189.362 28.122 189.355 28.1045 189.355 28.0863L189.358 22.2499C189.358 22.2423 189.36 22.2348 189.362 22.2278C189.365 22.2207 189.369 22.2144 189.375 22.209C189.38 22.2036 189.386 22.1993 189.393 22.1964C189.4 22.1935 189.407 22.192 189.415 22.192L190.937 22.1934C190.956 22.1934 190.975 22.2013 190.989 22.2155C191.002 22.2296 191.01 22.2488 191.01 22.2688V22.9243C191.01 22.9397 191.016 22.9547 191.025 22.9671C191.034 22.9794 191.047 22.9884 191.061 22.9927C191.075 22.9969 191.091 22.9962 191.105 22.9907C191.118 22.9851 191.13 22.9751 191.138 22.962C191.603 22.1965 192.267 21.9349 193.13 22.1772C193.152 22.1835 193.172 22.197 193.186 22.2158C193.199 22.2345 193.207 22.2574 193.206 22.2809L193.205 23.6646Z" fill="white"/>
<path d="M137.968 22.1914H136.428C136.39 22.1914 136.359 22.2227 136.359 22.2614V28.079C136.359 28.1176 136.39 28.149 136.428 28.149H137.968C138.006 28.149 138.036 28.1176 138.036 28.079V22.2614C138.036 22.2227 138.006 22.1914 137.968 22.1914Z" fill="white"/>
<path d="M43.4999 31.6944C43.5008 31.7348 43.5109 31.772 43.5302 31.8061L43.6274 32.3768L43.6958 32.751L29.957 39.1394L32.3609 26.5646L41.7926 23.9466C41.8057 23.9432 41.8193 23.9425 41.8326 23.9445C41.8459 23.9465 41.8586 23.9513 41.8701 23.9584C41.8815 23.9656 41.8913 23.9751 41.899 23.9862C41.9067 23.9974 41.9121 24.01 41.9148 24.0233L43.4999 31.6944Z" fill="white"/>
<path d="M133.141 34.6202H131.921C131.904 34.6202 131.887 34.6271 131.875 34.6395C131.863 34.6519 131.856 34.6686 131.856 34.6861V39.2869C131.856 39.2965 131.852 39.3058 131.845 39.3126C131.839 39.3194 131.83 39.3232 131.82 39.3232H131.024C131.013 39.3232 131.003 39.3189 130.995 39.311C130.987 39.3032 130.983 39.2926 130.983 39.2815V34.705C130.983 34.6818 130.974 34.6595 130.958 34.6431C130.941 34.6267 130.919 34.6175 130.896 34.6175H130.201C130.187 34.6175 130.174 34.6118 130.164 34.6017C130.154 34.5916 130.148 34.5779 130.148 34.5636V33.962C130.148 33.9473 130.154 33.9333 130.164 33.9229C130.174 33.9126 130.188 33.9068 130.202 33.9068H130.907C130.927 33.9068 130.946 33.8987 130.96 33.8844C130.975 33.87 130.983 33.8505 130.983 33.8301C130.999 33.1368 130.892 32.4827 131.191 31.9402C131.617 31.1689 132.332 31.1514 133.102 31.3278C133.13 31.3343 133.156 31.3506 133.174 31.3739C133.191 31.3972 133.201 31.4261 133.2 31.4556L133.19 32.0815C133.19 32.0903 133.187 32.0988 133.183 32.1062C133.178 32.1137 133.172 32.1198 133.165 32.1241C133.158 32.1283 133.149 32.1304 133.141 32.1303C133.133 32.1302 133.125 32.1277 133.118 32.1233C133.094 32.1089 133 32.0887 132.836 32.0627C131.749 31.8944 131.843 32.9309 131.854 33.8166C131.855 33.8406 131.864 33.8636 131.881 33.8804C131.898 33.8973 131.92 33.9068 131.944 33.9068H133.14C133.152 33.9068 133.163 33.9116 133.171 33.9202C133.18 33.9288 133.185 33.9404 133.185 33.9525V34.5744C133.185 34.5866 133.18 34.5982 133.172 34.6068C133.164 34.6154 133.153 34.6202 133.141 34.6202Z" fill="white"/>
<path d="M87.6283 32.8903C87.9752 32.8903 88.2565 32.6023 88.2565 32.2469C88.2565 31.8916 87.9752 31.6035 87.6283 31.6035C87.2813 31.6035 87 31.8916 87 32.2469C87 32.6023 87.2813 32.8903 87.6283 32.8903Z" fill="white"/>
<path d="M82.6199 31.7676C82.8407 31.7676 83.0378 31.7712 83.2113 31.7783C83.2301 31.7791 83.2482 31.7857 83.2635 31.7972C83.2787 31.8087 83.2903 31.8246 83.2968 31.843L85.9977 39.3068C85.9985 39.3092 85.9988 39.3117 85.9985 39.3143C85.9981 39.3168 85.9972 39.3192 85.9958 39.3213C85.9944 39.3234 85.9926 39.3251 85.9904 39.3263C85.9882 39.3276 85.9857 39.3282 85.9832 39.3283L85.1184 39.3269C85.111 39.3269 85.1038 39.3246 85.0977 39.3202C85.0916 39.3159 85.0869 39.3098 85.0842 39.3027L84.5046 37.7265C84.4954 37.7014 84.4789 37.6798 84.4573 37.6645C84.4357 37.6491 84.4101 37.6407 84.3837 37.6404C84.3127 37.6368 83.7213 37.6341 82.6094 37.6323C81.4974 37.6305 80.906 37.6309 80.835 37.6336C80.8086 37.634 80.783 37.6424 80.7614 37.6577C80.7398 37.6731 80.7233 37.6947 80.7141 37.7198L80.1292 39.2933C80.1266 39.3004 80.1219 39.3065 80.1158 39.3108C80.1097 39.3151 80.1025 39.3175 80.095 39.3175L79.2302 39.3162C79.2277 39.3161 79.2253 39.3154 79.2231 39.3142C79.2209 39.313 79.219 39.3113 79.2176 39.3092C79.2162 39.3071 79.2153 39.3047 79.215 39.3021C79.2147 39.2996 79.2149 39.297 79.2157 39.2946L81.9417 31.8403C81.9485 31.822 81.9603 31.8062 81.9758 31.7949C81.9912 31.7837 82.0096 31.7774 82.0284 31.777C82.201 31.7707 82.3982 31.7676 82.6199 31.7676ZM81.0558 36.7399C81.0524 36.749 81.0512 36.7589 81.0524 36.7686C81.0535 36.7784 81.0569 36.7877 81.0624 36.7957C81.0678 36.8038 81.0751 36.8104 81.0835 36.815C81.092 36.8196 81.1014 36.8219 81.111 36.822L84.1064 36.8273C84.116 36.8273 84.1254 36.8249 84.1339 36.8204C84.1423 36.8158 84.1496 36.8092 84.155 36.8011C84.1604 36.793 84.1639 36.7837 84.165 36.774C84.1662 36.7643 84.165 36.7544 84.1616 36.7452L82.6711 32.6681C82.6672 32.6562 82.6598 32.6458 82.6499 32.6384C82.64 32.6309 82.628 32.6269 82.6157 32.6267C82.6035 32.6266 82.5914 32.6304 82.5813 32.6375C82.5712 32.6447 82.5636 32.6549 82.5594 32.6667L81.0558 36.7399Z" fill="white"/>
<path d="M141.137 37.9486C141.169 37.9486 141.192 37.9298 141.207 37.8921C141.705 36.6124 142.495 34.5947 143.577 31.8389C143.585 31.8182 143.599 31.8005 143.617 31.7881C143.635 31.7756 143.656 31.7689 143.678 31.7689H145.026C145.047 31.7689 145.067 31.7776 145.082 31.793C145.097 31.8084 145.105 31.8293 145.105 31.851V39.2852C145.105 39.2902 145.104 39.2951 145.102 39.2996C145.101 39.3042 145.098 39.3084 145.094 39.3119C145.091 39.3154 145.087 39.3181 145.083 39.32C145.078 39.3219 145.073 39.3229 145.068 39.3229H144.184C144.179 39.3229 144.175 39.322 144.17 39.3201C144.166 39.3183 144.162 39.3156 144.159 39.3123C144.155 39.3089 144.153 39.3049 144.151 39.3005C144.149 39.2961 144.148 39.2913 144.148 39.2866V33.0719C144.149 33.0588 144.145 33.0457 144.138 33.0353C144.13 33.0249 144.119 33.0177 144.106 33.0152C144.093 33.0127 144.08 33.0151 144.069 33.0218C144.058 33.0285 144.05 33.0392 144.046 33.0517L141.616 39.2623C141.609 39.2782 141.599 39.292 141.585 39.302C141.571 39.312 141.555 39.3179 141.538 39.3189C141.486 39.3216 141.353 39.3229 141.137 39.3229C140.921 39.3229 140.787 39.3216 140.736 39.3189C140.719 39.3181 140.703 39.3124 140.689 39.3024C140.675 39.2923 140.664 39.2784 140.658 39.2623L138.229 33.0517C138.225 33.0392 138.216 33.0285 138.205 33.0218C138.194 33.0151 138.181 33.0127 138.169 33.0152C138.156 33.0177 138.145 33.0249 138.137 33.0353C138.129 33.0457 138.125 33.0588 138.126 33.0719L138.125 39.2866C138.125 39.2962 138.121 39.3054 138.114 39.3123C138.108 39.3191 138.099 39.3229 138.089 39.3229L137.205 39.3216C137.195 39.3216 137.186 39.3176 137.179 39.3105C137.172 39.3035 137.168 39.2939 137.168 39.2839L137.169 31.8497C137.169 31.8389 137.171 31.8282 137.175 31.8183C137.179 31.8083 137.185 31.7993 137.192 31.7916C137.2 31.784 137.208 31.778 137.218 31.7738C137.228 31.7697 137.238 31.7676 137.248 31.7676L138.597 31.7689C138.618 31.7689 138.64 31.7756 138.658 31.7881C138.676 31.8005 138.69 31.8182 138.698 31.8389C139.779 34.5947 140.569 36.6124 141.068 37.8921C141.082 37.9298 141.105 37.9486 141.137 37.9486Z" fill="white"/>
<path d="M114.206 38.6743C114.215 38.672 114.225 38.672 114.234 38.6741C114.243 38.6762 114.252 38.6805 114.26 38.6866C114.267 38.6927 114.273 38.7004 114.277 38.7093C114.281 38.7181 114.283 38.7277 114.283 38.7375V39.3163C114.283 39.3386 114.276 39.3602 114.263 39.3778C114.25 39.3953 114.231 39.4078 114.21 39.4132C113.422 39.6178 112.63 39.5936 112.187 38.8264C112.026 38.5464 111.954 38.0869 111.971 37.448C111.971 37.4274 111.973 36.5179 111.975 34.7196C111.976 34.7062 111.973 34.6929 111.968 34.6805C111.963 34.6681 111.956 34.6568 111.947 34.6473C111.938 34.6378 111.927 34.6303 111.915 34.6251C111.903 34.6199 111.89 34.6173 111.877 34.6173H111.164C111.154 34.6173 111.144 34.613 111.137 34.6055C111.129 34.5979 111.125 34.5876 111.125 34.5769V33.9523C111.125 33.9398 111.13 33.9279 111.138 33.919C111.146 33.9102 111.158 33.9052 111.17 33.9052H111.891C111.912 33.9051 111.932 33.8974 111.947 33.8835C111.963 33.8697 111.973 33.8506 111.975 33.8299L112.178 32.2146C112.18 32.2 112.187 32.1866 112.197 32.177C112.208 32.1673 112.222 32.162 112.236 32.1621H112.802C112.815 32.1621 112.828 32.1675 112.837 32.1771C112.847 32.1867 112.852 32.1997 112.852 32.2133V33.8339C112.852 33.8532 112.86 33.8717 112.873 33.8853C112.886 33.8989 112.904 33.9066 112.923 33.9066L114.145 33.9052C114.16 33.9052 114.174 33.9112 114.184 33.9218C114.195 33.9324 114.201 33.9468 114.201 33.9618V34.5513C114.201 34.5688 114.194 34.5856 114.182 34.598C114.17 34.6103 114.153 34.6173 114.136 34.6173L112.92 34.6186C112.901 34.6186 112.883 34.6264 112.869 34.6403C112.856 34.6542 112.848 34.673 112.848 34.6927C112.842 35.8996 112.844 36.9643 112.853 37.8868C112.861 38.7806 113.533 38.8385 114.206 38.6743Z" fill="white"/>
<path d="M162.54 38.6756C162.55 38.6734 162.559 38.6733 162.569 38.6754C162.578 38.6776 162.587 38.6819 162.594 38.688C162.602 38.694 162.608 38.7018 162.612 38.7106C162.616 38.7194 162.618 38.7291 162.618 38.7389V39.3177C162.618 39.3399 162.611 39.3615 162.597 39.3791C162.584 39.3967 162.565 39.4092 162.544 39.4146C161.757 39.6192 160.965 39.5949 160.522 38.8264C160.36 38.5464 160.289 38.0869 160.306 37.448C160.306 37.4274 160.308 36.5179 160.311 34.7196C160.311 34.7062 160.309 34.6929 160.304 34.6805C160.299 34.6681 160.292 34.6568 160.283 34.6473C160.274 34.6378 160.263 34.6303 160.251 34.6251C160.239 34.6199 160.226 34.6173 160.213 34.6173H159.5C159.495 34.6173 159.49 34.6162 159.485 34.6142C159.48 34.6122 159.476 34.6092 159.472 34.6055C159.469 34.6017 159.466 34.5973 159.464 34.5924C159.462 34.5875 159.461 34.5822 159.461 34.5769V33.9523C159.461 33.9398 159.466 33.9279 159.474 33.919C159.482 33.9102 159.494 33.9052 159.506 33.9052H160.227C160.248 33.9051 160.268 33.8974 160.283 33.8835C160.299 33.8697 160.309 33.8506 160.311 33.8299L160.514 32.2146C160.516 32.2 160.523 32.1866 160.533 32.177C160.544 32.1673 160.557 32.162 160.572 32.1621H161.138C161.145 32.1621 161.151 32.1634 161.157 32.166C161.163 32.1686 161.169 32.1723 161.173 32.1771C161.178 32.1818 161.182 32.1875 161.184 32.1937C161.187 32.1999 161.188 32.2065 161.188 32.2133V33.8339C161.188 33.8532 161.195 33.8717 161.209 33.8853C161.222 33.8989 161.24 33.9066 161.259 33.9066H162.481C162.496 33.9066 162.51 33.9125 162.52 33.9231C162.531 33.9337 162.536 33.9481 162.536 33.9631V34.5527C162.536 34.5702 162.53 34.5869 162.518 34.5993C162.506 34.6117 162.489 34.6186 162.472 34.6186H161.256C161.237 34.6186 161.219 34.6264 161.205 34.6403C161.192 34.6542 161.184 34.673 161.184 34.6927C161.177 35.8996 161.178 36.9648 161.188 37.8882C161.196 38.7819 161.867 38.8398 162.54 38.6756Z" fill="white"/>
<path d="M93.8242 33.9713C93.8242 33.9527 93.8314 33.9349 93.8442 33.9218C93.8571 33.9087 93.8744 33.9013 93.8926 33.9013H94.6299C94.6477 33.9013 94.6647 33.9085 94.6773 33.9214C94.6899 33.9343 94.6969 33.9517 94.6969 33.9699V34.6605C94.6969 34.6742 94.7012 34.6875 94.7093 34.6984C94.7174 34.7093 94.7288 34.7171 94.7418 34.7207C94.7547 34.7242 94.7684 34.7232 94.7807 34.718C94.7931 34.7127 94.8034 34.7033 94.81 34.6914C95.1609 34.0857 95.9114 33.6913 96.6027 33.6953C100.142 33.7155 100.393 38.9759 97.1337 39.4981C96.2439 39.6408 95.3265 39.3433 94.8126 38.5626C94.8049 38.5516 94.794 38.5433 94.7814 38.539C94.7689 38.5347 94.7553 38.5345 94.7426 38.5386C94.73 38.5426 94.7189 38.5506 94.7109 38.5614C94.7029 38.5723 94.6985 38.5854 94.6983 38.599V41.7016C94.6983 41.7248 94.6893 41.7471 94.6732 41.7635C94.6572 41.7799 94.6355 41.7891 94.6128 41.7891H93.9044C93.8831 41.7891 93.8627 41.7803 93.8477 41.7646C93.8327 41.749 93.8242 41.7278 93.8242 41.7056V33.9713ZM96.6457 34.4925C96.3898 34.4883 96.1355 34.539 95.8974 34.6416C95.6593 34.7442 95.4421 34.8967 95.2581 35.0904C95.0741 35.284 94.927 35.5151 94.8251 35.7704C94.7232 36.0257 94.6686 36.3002 94.6643 36.5782C94.66 36.8562 94.7062 37.1323 94.8002 37.3907C94.8942 37.6492 95.0342 37.8848 95.2122 38.0843C95.3901 38.2838 95.6026 38.4432 95.8374 38.5534C96.0722 38.6636 96.3248 38.7225 96.5808 38.7266C96.8367 38.7307 97.091 38.68 97.3291 38.5774C97.5671 38.4748 97.7844 38.3224 97.9684 38.1287C98.1524 37.935 98.2995 37.7039 98.4014 37.4487C98.5033 37.1934 98.5579 36.9189 98.5622 36.6409C98.5664 36.3629 98.5202 36.0868 98.4262 35.8283C98.3322 35.5699 98.1922 35.3342 98.0143 35.1347C97.8363 34.9352 97.6239 34.7758 97.3891 34.6656C97.1542 34.5554 96.9016 34.4966 96.6457 34.4925Z" fill="white"/>
<path d="M103.223 33.6687C103.977 33.6512 104.707 33.9447 105.252 34.4848C105.797 35.0248 106.113 35.7671 106.13 36.5484C106.139 36.9352 106.074 37.32 105.939 37.6807C105.804 38.0414 105.602 38.371 105.344 38.6507C105.086 38.9303 104.778 39.1546 104.436 39.3107C104.095 39.4667 103.727 39.5515 103.354 39.5602C102.6 39.5777 101.87 39.2841 101.325 38.7441C100.779 38.204 100.463 37.4617 100.446 36.6805C100.437 36.2937 100.503 35.9089 100.637 35.5482C100.772 35.1875 100.975 34.8579 101.232 34.5782C101.49 34.2985 101.799 34.0743 102.14 33.9182C102.482 33.7622 102.85 33.6774 103.223 33.6687ZM103.298 34.4917C102.778 34.4899 102.278 34.7117 101.909 35.1085C101.54 35.5053 101.332 36.0445 101.33 36.6074C101.329 36.8862 101.379 37.1624 101.476 37.4203C101.574 37.6782 101.718 37.9127 101.899 38.1105C102.081 38.3082 102.296 38.4653 102.534 38.5729C102.771 38.6804 103.026 38.7362 103.284 38.7371C103.804 38.739 104.303 38.5171 104.672 38.1204C105.041 37.7236 105.25 37.1844 105.252 36.6215C105.253 36.3427 105.203 36.0665 105.105 35.8086C105.008 35.5507 104.864 35.3162 104.683 35.1184C104.501 34.9207 104.286 34.7635 104.048 34.656C103.81 34.5485 103.556 34.4927 103.298 34.4917Z" fill="white"/>
<path d="M115.359 37.5293C115.359 37.5183 115.364 37.5077 115.371 37.4998C115.379 37.492 115.389 37.4876 115.4 37.4876H116.152C116.162 37.4876 116.171 37.4913 116.179 37.498C116.186 37.5047 116.19 37.514 116.191 37.524C116.283 38.7139 117.543 38.9629 118.465 38.66C119.032 38.4743 119.284 37.8039 118.825 37.349C118.7 37.2242 118.451 37.139 118.077 37.0932C117.273 36.9936 116.168 36.855 115.691 36.2385C115.283 35.7122 115.408 34.7605 115.875 34.2867C116.927 33.2139 119.716 33.5302 119.766 35.4982C119.767 35.5032 119.766 35.5083 119.764 35.513C119.762 35.5177 119.76 35.522 119.756 35.5257C119.753 35.5293 119.749 35.5322 119.744 35.5342C119.739 35.5362 119.735 35.5372 119.73 35.5372H118.957C118.946 35.5372 118.936 35.5333 118.928 35.526C118.921 35.5188 118.916 35.5089 118.915 35.4982C118.817 34.455 117.65 34.2975 116.872 34.5748C116.368 34.7551 116.065 35.3461 116.444 35.797C116.566 35.9424 116.772 36.0348 117.062 36.0743C118.318 36.2452 120.099 36.3542 119.864 38.1364C119.703 39.3451 118.442 39.574 117.464 39.5255C116.289 39.4676 115.35 38.7919 115.359 37.5293Z" fill="white"/>
<path d="M126.332 33.6684C127.086 33.6549 127.814 33.9524 128.356 34.4954C128.899 35.0383 129.211 35.7823 129.224 36.5636C129.231 36.9505 129.164 37.3349 129.027 37.6949C128.891 38.0549 128.687 38.3834 128.427 38.6617C128.168 38.94 127.858 39.1626 127.516 39.3168C127.174 39.471 126.805 39.5538 126.432 39.5605C125.678 39.574 124.95 39.2765 124.408 38.7335C123.865 38.1906 123.553 37.4466 123.54 36.6653C123.533 36.2784 123.6 35.894 123.737 35.534C123.873 35.174 124.077 34.8455 124.337 34.5672C124.596 34.2889 124.905 34.0663 125.248 33.9121C125.59 33.7579 125.958 33.6751 126.332 33.6684ZM126.403 34.4905C125.883 34.4858 125.382 34.7051 125.011 35.1002C124.64 35.4952 124.428 36.0336 124.424 36.5969C124.419 37.1602 124.621 37.7023 124.985 38.1039C125.35 38.5055 125.846 38.7338 126.367 38.7384C126.887 38.7431 127.387 38.5237 127.758 38.1287C128.13 37.7337 128.341 37.1953 128.346 36.632C128.35 36.0687 128.148 35.5266 127.784 35.125C127.42 34.7234 126.923 34.4951 126.403 34.4905Z" fill="white"/>
<path d="M149.335 33.6696C150.089 33.6439 150.822 33.9295 151.373 34.4634C151.924 34.9973 152.248 35.7358 152.273 36.5165C152.285 36.903 152.224 37.2883 152.093 37.6503C151.962 38.0123 151.763 38.3439 151.508 38.6262C151.253 38.9085 150.946 39.1359 150.606 39.2956C150.266 39.4552 149.899 39.5439 149.526 39.5566C148.772 39.5822 148.039 39.2967 147.488 38.7627C146.937 38.2288 146.613 37.4903 146.588 36.7097C146.575 36.3231 146.636 35.9378 146.767 35.5759C146.899 35.2139 147.098 34.8823 147.353 34.6C147.608 34.3177 147.914 34.0902 148.254 33.9306C148.594 33.7709 148.962 33.6822 149.335 33.6696ZM149.44 34.4917C149.183 34.4908 148.928 34.5448 148.69 34.6507C148.451 34.7566 148.235 34.9123 148.052 35.1089C147.87 35.3055 147.724 35.5391 147.625 35.7965C147.526 36.0538 147.474 36.3298 147.473 36.6088C147.471 37.1721 147.676 37.7131 148.042 38.1127C148.408 38.5124 148.906 38.7379 149.426 38.7398C149.683 38.7407 149.938 38.6867 150.176 38.5808C150.414 38.4749 150.631 38.3192 150.813 38.1226C150.996 37.9261 151.141 37.6924 151.241 37.4351C151.34 37.1777 151.392 36.9017 151.392 36.6228C151.394 36.0594 151.19 35.5184 150.824 35.1188C150.457 34.7192 149.96 34.4936 149.44 34.4917Z" fill="white"/>
<path d="M169.181 36.8518C169.18 36.8682 169.173 36.8836 169.162 36.8949C169.15 36.9061 169.134 36.9124 169.118 36.9123H164.608C164.598 36.9123 164.588 36.9146 164.579 36.919C164.569 36.9234 164.561 36.9299 164.555 36.9379C164.549 36.9459 164.544 36.9553 164.542 36.9653C164.54 36.9753 164.54 36.9857 164.542 36.9958C164.731 37.9281 165.22 38.485 166.01 38.6662C166.866 38.8627 167.77 38.5343 168.246 37.7523C168.254 37.7387 168.267 37.7285 168.281 37.7236C168.296 37.7186 168.312 37.7193 168.326 37.7253L168.948 37.9797C168.958 37.9841 168.967 37.9905 168.975 37.9988C168.983 38.007 168.989 38.0169 168.993 38.0277C168.997 38.0385 168.999 38.0501 168.999 38.0618C168.998 38.0734 168.996 38.0849 168.991 38.0955C168.392 39.3541 166.893 39.7632 165.649 39.4146C164.263 39.0283 163.494 37.6042 163.68 36.1693C163.843 34.9121 164.523 34.1148 165.721 33.7774C166.436 33.5755 167.427 33.7236 168.054 34.1974C168.876 34.8201 169.252 35.7049 169.181 36.8518ZM166.412 36.1249C167.513 36.124 168.112 36.1231 168.209 36.1222C168.217 36.122 168.224 36.12 168.231 36.1164C168.238 36.1128 168.245 36.1077 168.249 36.1014C168.254 36.0951 168.258 36.0878 168.26 36.08C168.261 36.0722 168.262 36.0641 168.26 36.0563C168.084 35.1154 167.347 34.5056 166.411 34.507C165.476 34.507 164.739 35.1181 164.564 36.0589C164.563 36.0669 164.563 36.0752 164.565 36.0831C164.567 36.0909 164.57 36.0983 164.575 36.1046C164.58 36.1109 164.587 36.116 164.594 36.1195C164.601 36.123 164.609 36.1249 164.617 36.1249C164.713 36.1258 165.312 36.1258 166.412 36.1249Z" fill="white"/>
<path d="M170.633 33.9025H171.295C171.321 33.9025 171.346 33.913 171.365 33.9317C171.383 33.9504 171.394 33.9757 171.394 34.0021V34.5863C171.393 34.599 171.397 34.6114 171.404 34.6217C171.411 34.6321 171.421 34.6397 171.433 34.6435C171.445 34.6474 171.457 34.6471 171.469 34.6429C171.481 34.6386 171.491 34.6306 171.497 34.62C171.849 34.104 172.297 33.807 172.843 33.7289C174.296 33.5216 175.3 34.589 175.322 36.0764C175.327 36.4012 175.33 37.4619 175.329 39.2584C175.329 39.2667 175.327 39.275 175.324 39.2826C175.321 39.2903 175.316 39.2973 175.311 39.3032C175.305 39.309 175.298 39.3137 175.291 39.3169C175.283 39.32 175.275 39.3217 175.267 39.3217H174.519C174.51 39.3217 174.502 39.3199 174.494 39.3165C174.486 39.3131 174.478 39.3082 174.472 39.3019C174.466 39.2956 174.461 39.2882 174.458 39.28C174.455 39.2719 174.453 39.2632 174.453 39.2544C174.462 37.3278 174.46 36.2352 174.447 35.9768C174.352 34.1489 172.118 34.0546 171.496 35.577C171.423 35.7538 171.388 36.067 171.39 36.5165C171.392 37.4336 171.394 38.3404 171.395 39.2369C171.395 39.2601 171.386 39.2823 171.37 39.2988C171.354 39.3152 171.332 39.3244 171.309 39.3244H170.601C170.579 39.3244 170.557 39.3153 170.542 39.2991C170.526 39.283 170.517 39.2611 170.517 39.2382L170.516 34.021C170.516 33.9896 170.528 33.9594 170.55 33.9372C170.572 33.915 170.602 33.9025 170.633 33.9025Z" fill="white"/>
<path d="M182.072 36.8531C182.071 36.8695 182.064 36.8849 182.052 36.8962C182.041 36.9074 182.025 36.9137 182.009 36.9136L177.498 36.911C177.488 36.9109 177.478 36.9132 177.469 36.9176C177.46 36.922 177.452 36.9285 177.446 36.9365C177.439 36.9445 177.435 36.9539 177.433 36.9639C177.43 36.9739 177.43 36.9844 177.433 36.9944C177.621 37.9268 178.11 38.484 178.899 38.6662C179.755 38.8627 180.659 38.5356 181.136 37.7536C181.145 37.74 181.157 37.7298 181.172 37.7249C181.187 37.72 181.202 37.7206 181.216 37.7267L181.838 37.9811C181.849 37.9854 181.858 37.9919 181.866 38.0001C181.874 38.0083 181.88 38.0182 181.884 38.029C181.888 38.0398 181.89 38.0514 181.889 38.0631C181.889 38.0747 181.886 38.0862 181.882 38.0968C181.281 39.3554 179.783 39.7632 178.538 39.4146C177.153 39.0269 176.385 37.6028 176.57 36.1679C176.734 34.9107 177.415 34.1139 178.613 33.7774C179.328 33.5755 180.319 33.7235 180.946 34.1987C181.768 34.8215 182.143 35.7062 182.072 36.8531ZM179.304 36.1262C180.406 36.1253 181.006 36.1244 181.103 36.1235C181.111 36.1235 181.119 36.1216 181.126 36.1181C181.134 36.1146 181.14 36.1095 181.145 36.1032C181.15 36.0969 181.154 36.0896 181.155 36.0817C181.157 36.0738 181.158 36.0655 181.156 36.0576C180.979 35.114 180.24 34.5042 179.303 34.5042C178.366 34.5056 177.628 35.1167 177.452 36.0603C177.451 36.0682 177.451 36.0765 177.453 36.0844C177.455 36.0923 177.458 36.0996 177.463 36.1059C177.468 36.1122 177.475 36.1173 177.482 36.1208C177.489 36.1243 177.497 36.1262 177.505 36.1262C177.602 36.1271 178.202 36.1271 179.304 36.1262Z" fill="white"/>
<path d="M196.847 33.6701C197.601 33.6404 198.335 33.9222 198.889 34.4534C199.443 34.9846 199.77 35.7217 199.8 36.5026C199.829 37.2835 199.558 38.0442 199.045 38.6173C198.533 39.1904 197.822 39.5291 197.068 39.5587C196.314 39.5884 195.58 39.3066 195.026 38.7754C194.472 38.2442 194.145 37.5071 194.115 36.7262C194.086 35.9453 194.357 35.1847 194.87 34.6115C195.382 34.0384 196.093 33.6998 196.847 33.6701ZM196.973 34.4918C196.453 34.488 195.953 34.7083 195.583 35.1039C195.212 35.4996 195.002 36.0384 194.998 36.6017C194.994 37.165 195.197 37.7068 195.562 38.1077C195.927 38.5087 196.424 38.736 196.944 38.7398C197.464 38.7435 197.965 38.5233 198.335 38.1276C198.706 37.7319 198.916 37.1931 198.92 36.6298C198.924 36.0665 198.721 35.5247 198.356 35.1238C197.991 34.7228 197.493 34.4955 196.973 34.4918Z" fill="white"/>
<path d="M154.44 34.0021V34.5863C154.44 34.5989 154.444 34.6114 154.451 34.6217C154.458 34.632 154.468 34.6397 154.48 34.6435C154.492 34.6473 154.504 34.6471 154.516 34.6428C154.528 34.6386 154.538 34.6305 154.544 34.6199C154.897 34.104 155.346 33.8069 155.891 33.7289C157.345 33.5216 158.349 34.5903 158.372 36.079C158.377 36.4039 158.379 37.465 158.377 39.2624C158.377 39.2792 158.37 39.2953 158.359 39.3072C158.347 39.319 158.332 39.3257 158.315 39.3257H157.567C157.559 39.3257 157.55 39.3239 157.542 39.3205C157.534 39.3171 157.526 39.3122 157.52 39.3059C157.514 39.2996 157.509 39.2922 157.506 39.284C157.503 39.2759 157.501 39.2672 157.502 39.2584C157.51 37.3309 157.508 36.2374 157.495 35.9781C157.402 34.1502 155.166 34.0546 154.543 35.5783C154.47 35.7551 154.435 36.0683 154.437 36.5179C154.439 37.4359 154.44 38.3431 154.44 39.2395C154.44 39.251 154.438 39.2624 154.434 39.273C154.43 39.2836 154.423 39.2933 154.415 39.3014C154.408 39.3095 154.398 39.316 154.388 39.3204C154.377 39.3248 154.366 39.327 154.355 39.327H153.647C153.624 39.327 153.603 39.318 153.587 39.3018C153.571 39.2856 153.562 39.2637 153.562 39.2409V34.0209C153.562 33.9895 153.575 33.9594 153.597 33.9372C153.619 33.915 153.648 33.9025 153.679 33.9025H154.342C154.368 33.9025 154.393 33.913 154.412 33.9317C154.43 33.9504 154.44 33.9757 154.44 34.0021Z" fill="white"/>
<path d="M184.109 39.9045C184.546 40.8979 185.293 41.3134 186.35 41.1509C187.69 40.945 187.966 39.7524 187.869 38.5598C187.868 38.5466 187.863 38.534 187.854 38.5238C187.846 38.5136 187.835 38.5062 187.822 38.5025C187.81 38.4989 187.797 38.4992 187.785 38.5034C187.773 38.5076 187.762 38.5156 187.755 38.5262C187.375 39.0493 186.868 39.3477 186.233 39.4213C184.531 39.6191 183.281 38.5396 183.147 36.8153C183 34.9228 184.483 33.4489 186.326 33.745C186.929 33.8419 187.396 34.1959 187.801 34.6644C187.808 34.6719 187.816 34.6772 187.826 34.6796C187.836 34.6819 187.846 34.6812 187.855 34.6776C187.865 34.674 187.873 34.6676 187.878 34.6592C187.884 34.6509 187.887 34.6409 187.888 34.6307V33.9712C187.888 33.9533 187.894 33.9362 187.906 33.9236C187.919 33.9109 187.935 33.9039 187.952 33.9039H188.679C188.697 33.9039 188.714 33.9114 188.727 33.9247C188.74 33.9381 188.747 33.9563 188.747 33.9752C188.737 35.8462 188.737 37.1671 188.748 37.9379C188.766 39.161 188.708 39.9489 188.574 40.3016C188.186 41.3228 187.382 41.885 186.161 41.9882C184.912 42.0932 183.667 41.4955 183.251 40.2222C183.248 40.2127 183.249 40.2025 183.253 40.1938C183.257 40.185 183.264 40.1783 183.273 40.1751L184.051 39.8789C184.062 39.8749 184.074 39.8753 184.085 39.8801C184.095 39.8848 184.104 39.8935 184.109 39.9045ZM185.943 34.4961C185.686 34.4975 185.432 34.5531 185.194 34.6597C184.957 34.7663 184.742 34.9218 184.561 35.1174C184.38 35.313 184.237 35.5448 184.14 35.7996C184.042 36.0544 183.993 36.3272 183.995 36.6024C183.997 37.1582 184.207 37.6902 184.576 38.0812C184.946 38.4723 185.445 38.6904 185.965 38.6877C186.222 38.6863 186.477 38.6307 186.714 38.5241C186.951 38.4175 187.166 38.262 187.347 38.0664C187.528 37.8708 187.672 37.639 187.769 37.3842C187.866 37.1294 187.915 36.8566 187.914 36.5814C187.911 36.0256 187.702 35.4936 187.332 35.1025C186.963 34.7115 186.463 34.4934 185.943 34.4961Z" fill="white"/>
<path d="M90.59 34.5945C90.5896 34.6046 90.5925 34.6146 90.5983 34.6228C90.604 34.6311 90.6122 34.6371 90.6217 34.6401C90.6312 34.643 90.6413 34.6426 90.6506 34.639C90.6598 34.6354 90.6676 34.6287 90.6728 34.6201C91.1135 33.9309 91.7589 33.6797 92.6088 33.8663C92.6435 33.874 92.6745 33.8934 92.6968 33.9214C92.719 33.9493 92.7311 33.984 92.731 34.0198V34.6524C92.7309 34.6652 92.7279 34.6778 92.7223 34.6893C92.7166 34.7007 92.7085 34.7106 92.6985 34.7182C92.6886 34.7258 92.677 34.7308 92.6649 34.733C92.6527 34.7351 92.6403 34.7342 92.6285 34.7305C91.3483 34.3267 90.6176 35.1356 90.6136 36.343C90.6093 37.5204 90.6097 38.4828 90.6149 39.2303C90.6151 39.2422 90.6129 39.2541 90.6085 39.2652C90.6041 39.2763 90.5976 39.2864 90.5892 39.2949C90.5809 39.3034 90.571 39.3102 90.5601 39.3148C90.5491 39.3194 90.5374 39.3218 90.5256 39.3218H89.8224C89.8001 39.3218 89.7787 39.3127 89.7629 39.2966C89.7471 39.2804 89.7383 39.2585 89.7383 39.2357V33.9753C89.7383 33.9557 89.7459 33.9369 89.7595 33.923C89.773 33.9091 89.7914 33.9013 89.8106 33.9013H90.5229C90.5407 33.9013 90.5578 33.9085 90.5703 33.9214C90.5829 33.9343 90.59 33.9517 90.59 33.97V34.5945Z" fill="white"/>
<path d="M108.274 34.5937C108.273 34.6038 108.276 34.6138 108.282 34.622C108.288 34.6303 108.296 34.6363 108.305 34.6392C108.315 34.6422 108.325 34.6418 108.334 34.6382C108.343 34.6346 108.351 34.6279 108.356 34.6193C108.798 33.9301 109.444 33.6793 110.295 33.8668C110.33 33.8745 110.361 33.8939 110.383 33.9219C110.405 33.9498 110.417 33.9845 110.417 34.0203L110.416 34.6543C110.416 34.6671 110.413 34.6797 110.407 34.6911C110.402 34.7026 110.393 34.7125 110.383 34.72C110.374 34.7276 110.362 34.7327 110.35 34.7348C110.338 34.737 110.325 34.7361 110.313 34.7323C109.033 34.3272 108.301 35.1348 108.296 36.3435C108.291 37.5218 108.29 38.4846 108.295 39.2321C108.295 39.2441 108.293 39.256 108.288 39.2671C108.284 39.2782 108.277 39.2883 108.269 39.2968C108.261 39.3053 108.251 39.3121 108.24 39.3167C108.229 39.3213 108.217 39.3237 108.205 39.3237H107.502C107.491 39.3237 107.48 39.3214 107.47 39.317C107.459 39.3126 107.45 39.3061 107.442 39.298C107.434 39.2898 107.428 39.2802 107.424 39.2696C107.42 39.2589 107.418 39.2476 107.418 39.2362L107.422 33.9732C107.422 33.9633 107.424 33.9536 107.428 33.9445C107.431 33.9354 107.437 33.9272 107.444 33.9203C107.45 33.9134 107.459 33.908 107.467 33.9044C107.476 33.9007 107.486 33.8989 107.496 33.8991L108.208 33.9005C108.226 33.9005 108.243 33.9077 108.255 33.9206C108.268 33.9335 108.275 33.9509 108.275 33.9691L108.274 34.5937Z" fill="white"/>
<path d="M191.176 34.5952C191.176 34.6053 191.178 34.6153 191.184 34.6235C191.19 34.6318 191.198 34.6378 191.208 34.6407C191.217 34.6437 191.227 34.6433 191.237 34.6397C191.246 34.6361 191.254 34.6294 191.259 34.6208C191.699 33.9325 192.344 33.6817 193.193 33.8683C193.228 33.876 193.259 33.8954 193.281 33.9234C193.304 33.9513 193.316 33.986 193.316 34.0218V34.6544C193.315 34.6671 193.312 34.6796 193.306 34.6908C193.301 34.7021 193.293 34.7118 193.283 34.7193C193.273 34.7267 193.261 34.7317 193.249 34.7337C193.237 34.7358 193.225 34.7349 193.213 34.7311C191.934 34.3287 191.203 35.1363 191.2 36.3437C191.195 37.521 191.196 38.483 191.201 39.2296C191.201 39.2416 191.199 39.2534 191.194 39.2645C191.19 39.2756 191.183 39.2857 191.175 39.2942C191.167 39.3028 191.157 39.3095 191.146 39.3141C191.135 39.3188 191.123 39.3211 191.112 39.3211H190.408C190.386 39.3211 190.365 39.3121 190.349 39.2959C190.333 39.2797 190.324 39.2578 190.324 39.235V33.9774C190.324 33.9577 190.332 33.9389 190.345 33.925C190.359 33.9111 190.377 33.9033 190.396 33.9033H191.109C191.127 33.9033 191.144 33.9106 191.156 33.9234C191.169 33.9363 191.176 33.9538 191.176 33.972V34.5952Z" fill="white"/>
<path d="M87.9984 33.9023H87.2519C87.2163 33.9023 87.1875 33.9319 87.1875 33.9683V39.2582C87.1875 39.2947 87.2163 39.3242 87.2519 39.3242H87.9984C88.034 39.3242 88.0629 39.2947 88.0629 39.2582V33.9683C88.0629 33.9319 88.034 33.9023 87.9984 33.9023Z" fill="white"/>
</svg>
