<svg width="200" height="83" viewBox="0 0 200 83" fill="none" xmlns="http://www.w3.org/2000/svg">
<g clip-path="url(#clip0_1189_14226)">
<path d="M198.217 41.6412C197.496 41.9296 196.631 41.7565 196.198 41.1221C195.766 40.4876 196.126 39.8531 196.847 39.5647C197.568 39.2187 198.434 39.4493 198.866 40.0261C199.227 40.6029 198.938 41.2951 198.217 41.6412Z" fill="white"/>
<path d="M175.146 36.8539C174.569 37.3153 173.704 37.373 173.054 36.8539C172.406 36.3924 172.478 35.6426 173.054 35.2388C173.56 34.7773 174.496 34.7197 175.146 35.1812C175.65 35.6426 175.65 36.3347 175.146 36.8539Z" fill="white"/>
<path d="M143.566 39.392C142.773 39.392 142.124 38.9305 142.124 38.1807C142.124 37.4885 142.773 37.0271 143.566 37.0271C144.359 37.0271 145.08 37.4885 145.08 38.1807C145.008 38.8728 144.359 39.392 143.566 39.392Z" fill="white"/>
<path d="M1.02692 47.9858C1.82001 47.8128 2.6131 48.1012 2.9015 48.7934C3.1899 49.4279 2.7573 50.0047 1.96422 50.2353C1.17113 50.4661 0.378039 50.1776 0.0896434 49.4856C-0.198752 48.7934 0.233841 48.2166 1.02692 47.9858Z" fill="white"/>
<path d="M194.539 42.2757L194.108 41.5836C185.312 45.2751 176.876 47.467 165.339 47.467C163.249 47.467 161.086 47.4093 158.851 47.3516C163.609 44.8714 168.007 41.872 171.901 38.4112L171.179 37.8921C164.403 42.7372 156.255 45.3328 145.296 45.3328C137.654 45.3328 124.243 43.2564 114.654 41.4683C122.369 39.8532 131.958 38.6997 139.817 38.6997V37.8921C131.237 37.8921 121.936 38.7573 112.924 40.1993C102.398 41.9297 91.0782 44.3523 80.9122 47.2362C71.4673 49.9472 59.6431 52.4274 51.1354 52.4274C44.1418 52.4274 38.3738 51.5623 36.3552 49.4281C37.2203 46.9478 40.2485 45.3905 44.5023 44.0638C45.007 44.0638 45.5838 44.0638 46.0885 44.0638C55.1729 44.0638 64.6179 45.1021 72.6929 46.5441C82.1379 43.9485 92.448 41.8143 102.109 40.1993C102.903 40.0839 103.695 39.9685 104.561 39.8532C95.7645 38.642 86.1754 37.8921 76.8026 37.8921C50.1981 37.8921 26.9102 41.1798 4.77585 47.8707L5.06424 48.6206C17.1047 46.025 29.5057 44.4099 41.6184 44.0638C41.4742 44.0638 41.4021 44.1215 41.2578 44.1215C38.7344 44.6983 37.5808 45.2174 36.211 46.0827C34.6968 47.0632 33.9038 48.3322 33.9038 50.1202C33.9038 53.2927 35.1294 54.9654 37.1482 56.119C39.5996 57.5032 42.844 57.8494 47.2421 57.8494C57.6243 57.8494 69.809 54.6193 81.7053 50.4663C83.0752 50.0049 86.1754 49.1974 86.1754 49.1974C99.3696 51.8506 114.078 54.0425 130.444 54.0425C138.952 54.0425 146.667 52.4274 153.659 49.6588C157.048 49.8319 160.437 49.8895 163.97 49.8895C174.28 49.8895 184.951 46.4287 194.539 42.2757Z" fill="white"/>
<path d="M136.789 11.8204L136.284 12.2818L135.347 11.6474C134.77 11.9935 134.049 12.2242 133.184 12.2242C131.093 12.2242 129.723 10.8975 129.723 9.39785C129.723 7.89817 131.165 6.57153 133.256 6.57153C135.347 6.57153 136.717 7.89817 136.717 9.39785C136.717 10.09 136.429 10.7245 135.924 11.2436L136.789 11.8204ZM133.545 10.3207L134.049 9.85929L135.347 10.7822C135.708 10.3784 135.924 9.91697 135.924 9.34017C135.924 8.07121 134.77 7.03297 133.184 7.03297C131.598 7.03297 130.516 8.01353 130.516 9.28249C130.516 10.5514 131.67 11.5897 133.256 11.5897C133.833 11.5897 134.409 11.4167 134.842 11.1859L133.545 10.3207Z" fill="white"/>
<path d="M143.999 9.74411C143.999 11.3591 142.845 12.1667 141.115 12.1667C139.385 12.1667 138.231 11.3591 138.231 9.80179V6.62939H139.024V9.80179C139.024 11.0131 139.817 11.6476 141.115 11.6476C142.412 11.6476 143.206 11.0131 143.206 9.80179V6.62939H143.999V9.74411Z" fill="white"/>
<path d="M150.776 7.14851H146.594V9.05195H150.344V9.62875H146.594V11.5322H150.848V12.109H145.801V6.62939H150.776V7.14851Z" fill="white"/>
<path d="M157.336 7.14851H153.155V9.05195H156.905V9.62875H153.155V11.5322H157.409V12.109H152.362V6.62939H157.336V7.14851Z" fill="white"/>
<path d="M164.042 6.62939H164.763V12.109H164.115L159.644 7.60995V12.109H158.923V6.62939H159.644L163.97 11.0708V6.62939H164.042Z" fill="white"/>
<path d="M176.082 12.1088H175.217L174.425 10.6668H170.675L169.882 12.1088H169.089L172.189 6.57153H172.91L176.082 12.1088ZM172.55 7.32137L170.963 10.1477H174.064L172.55 7.32137Z" fill="white"/>
<path d="M177.452 6.62939H178.245V11.5899H181.562V12.1667H177.524V6.62939H177.452Z" fill="white"/>
<path d="M183.509 6.62939V12.109H182.716V6.62939H183.509Z" fill="white"/>
<path d="M191.945 12.1088H191.079L190.286 10.6668H186.536L185.744 12.1088H184.951L188.051 6.57153H188.772L191.945 12.1088ZM188.411 7.32137L186.826 10.1477H189.925L188.411 7.32137Z" fill="white"/>
<path d="M110.977 14.5889V20.1262H110.185V14.5889H110.977Z" fill="white"/>
<path d="M118.043 14.5889H118.764V20.1262H118.115L113.645 15.6271V20.1262H112.924V14.5889H113.645L117.971 19.0302V14.5889H118.043Z" fill="white"/>
<path d="M123.378 20.0685H122.586V15.108H120.278V14.5312H125.686V15.108H123.378V20.0685Z" fill="white"/>
<path d="M132.103 15.1657H127.921V17.0691H131.67V17.6459H127.921V19.5494H132.174V20.1262H127.127V14.5889H132.103V15.1657Z" fill="white"/>
<path d="M138.447 20.0685L136.429 17.9344H134.482V20.0685H133.688V14.5312H136.645C138.159 14.5312 139.096 15.1656 139.096 16.204C139.096 17.1268 138.303 17.6459 137.222 17.819L139.313 20.0685H138.447ZM136.572 15.1656H134.482V17.4152H136.572C137.582 17.4152 138.375 17.0114 138.375 16.2616C138.375 15.5695 137.726 15.1656 136.572 15.1656Z" fill="white"/>
<path d="M145.873 14.5889H146.667V20.1262H146.017L141.548 15.6271V20.1262H140.754V14.5889H141.475L145.801 19.0302V14.5889H145.873Z" fill="white"/>
<path d="M154.958 20.0685H154.092L153.299 18.6264H149.551L148.758 20.0685H147.964L151.065 14.5312H151.786L154.958 20.0685ZM151.425 15.281L149.839 18.1073H152.939L151.425 15.281Z" fill="white"/>
<path d="M157.987 20.0685H157.193V15.108H154.886V14.5312H160.293V15.108H157.987V20.0685Z" fill="white"/>
<path d="M162.6 14.5889V20.1262H161.807V14.5889H162.6Z" fill="white"/>
<path d="M167.864 20.1842C165.772 20.1842 164.403 18.8575 164.403 17.3579C164.403 15.8582 165.845 14.4739 167.935 14.4739C170.027 14.4739 171.397 15.8005 171.397 17.3002C171.324 18.8575 169.882 20.1842 167.864 20.1842ZM167.864 15.0507C166.277 15.0507 165.196 16.0312 165.196 17.3002C165.196 18.5692 166.35 19.6074 167.935 19.6074C169.522 19.6074 170.603 18.6268 170.603 17.3579C170.531 16.0889 169.377 15.0507 167.864 15.0507Z" fill="white"/>
<path d="M178.03 14.5889H178.751V20.1262H178.102L173.631 15.6271V20.1262H172.911V14.5889H173.631L177.957 19.0302V14.5889H178.03Z" fill="white"/>
<path d="M187.114 20.0685H186.248L185.455 18.6264H181.707L180.913 20.0685H180.12L183.221 14.5312H183.942L187.114 20.0685ZM183.653 15.281L182.067 18.1073H185.167L183.653 15.281Z" fill="white"/>
<path d="M188.483 14.5889H189.277V19.5494H192.233V20.1262H188.483V14.5889Z" fill="white"/>
<path d="M154.021 28.0861H153.155L152.362 26.6441H148.613L147.821 28.0861H147.027L150.127 22.5488H150.848L154.021 28.0861ZM150.56 23.241L148.973 26.0673H152.074L150.56 23.241Z" fill="white"/>
<path d="M156.255 22.5488V28.0861H155.463V22.5488H156.255Z" fill="white"/>
<path d="M162.961 28.0861L160.943 25.9519H158.996V28.0861H158.202V22.5488H161.159C162.673 22.5488 163.61 23.1833 163.61 24.1638C163.61 25.0867 162.816 25.6058 161.735 25.7789L163.826 28.0284H162.961V28.0861ZM161.159 23.1256H159.068V25.3751H161.159C162.168 25.3751 162.961 24.9714 162.961 24.2215C162.889 23.5294 162.24 23.1256 161.159 23.1256Z" fill="white"/>
<path d="M167.792 26.125H166.133V28.0861H165.339V22.5488H167.935C169.522 22.5488 170.531 23.1833 170.531 24.2792C170.458 25.4905 169.233 26.125 167.792 26.125ZM167.864 23.1256H166.133V25.5482H167.864C169.017 25.5482 169.738 25.0867 169.738 24.3369C169.738 23.5294 168.945 23.1256 167.864 23.1256Z" fill="white"/>
<path d="M175.073 28.1439C172.983 28.1439 171.612 26.8172 171.612 25.3176C171.612 23.8178 173.054 22.4336 175.146 22.4336C177.236 22.4336 178.606 23.7602 178.606 25.2599C178.606 26.8172 177.164 28.1439 175.073 28.1439ZM175.073 23.0104C173.487 23.0104 172.405 23.9909 172.405 25.2599C172.405 26.5289 173.559 27.5671 175.146 27.5671C176.731 27.5671 177.813 26.5866 177.813 25.3176C177.813 24.0486 176.659 23.0104 175.073 23.0104Z" fill="white"/>
<path d="M185.024 28.0861L183.004 25.9519H181.057V28.0861H180.265V22.5488H183.221C184.734 22.5488 185.672 23.1833 185.672 24.1638C185.672 25.0867 184.879 25.6058 183.798 25.7789L185.888 28.0284H185.024V28.0861ZM183.149 23.1256H181.057V25.3751H183.149C184.158 25.3751 184.951 24.9714 184.951 24.2215C184.879 23.5294 184.23 23.1256 183.149 23.1256Z" fill="white"/>
<path d="M189.853 28.0861H189.061V23.1256H186.753V22.5488H192.161V23.1256H189.853V28.0861Z" fill="white"/>
<path d="M9.31802 79.4216C6.07358 79.4216 4.77579 78.3834 4.77579 76.4223C4.77579 75.7878 4.99209 75.0956 5.20839 74.6919L6.43407 74.5188C6.14567 74.9803 5.92937 75.7301 5.92937 76.3069C5.92937 77.8643 6.72246 78.6718 9.39012 78.6718H10.4716V74.6919C10.4716 74.6919 11.6252 74.5188 12.8509 74.5188C15.0138 74.5188 15.7348 75.3841 15.7348 76.7684V78.7295H17.0326V79.4793H14.5812V76.8837C14.5812 75.7301 14.0765 75.2687 12.7788 75.2687C12.2741 75.2687 11.6973 75.3264 11.6973 75.3264V79.4216H9.31802ZM8.16444 81.4981C7.80395 81.4981 7.51555 81.2674 7.51555 80.9213C7.51555 80.6329 7.80395 80.4022 8.16444 80.4022C8.52493 80.4022 8.81333 80.6329 8.81333 80.9213C8.81333 81.2674 8.52493 81.4981 8.16444 81.4981ZM10.039 81.4981C9.67851 81.4981 9.31802 81.2674 9.31802 80.9213C9.31802 80.6329 9.60642 80.4022 10.039 80.4022C10.3995 80.4022 10.6879 80.6329 10.6879 80.9213C10.6879 81.2674 10.3995 81.4981 10.039 81.4981Z" fill="white"/>
<path d="M16.8162 78.6719H26.2612V72.1541H27.4148V79.4218H16.8162V78.6719Z" fill="white"/>
<path d="M29.2895 81.8442L29.3616 81.0367C29.3616 81.0367 30.4431 81.2097 31.4525 81.2097C32.8224 81.2097 33.9039 80.806 33.9039 79.5947V79.4216H32.6061C30.1548 79.4216 29.2174 78.4988 29.2174 76.9991C29.2174 75.6148 30.2268 74.4612 32.4618 74.4612C33.9039 74.4612 35.0574 74.8072 35.0574 74.8072V79.5947C35.0574 80.806 34.0481 82.0173 31.3083 82.0173C30.2989 82.0173 29.2895 81.8442 29.2895 81.8442ZM33.9039 75.4417C33.9039 75.4417 33.255 75.2111 32.3176 75.2111C31.092 75.2111 30.371 75.9031 30.371 76.8838C30.371 78.0374 31.0199 78.6142 32.6782 78.6142H33.9039V75.4417Z" fill="white"/>
<path d="M36.8599 78.6719H40.9694C40.8974 76.7684 40.0322 75.7302 37.725 75.2111L38.0134 74.4036C40.6811 75.0957 42.051 76.2493 42.1231 78.6719H43.1324V79.4218H36.8599V78.6719Z" fill="white"/>
<path d="M42.9161 78.6719H44.7186V72.1541H45.8722V79.4218H42.9161V78.6719Z" fill="white"/>
<path d="M48.3957 72.1541H49.5493V79.4218H48.3957V72.1541Z" fill="white"/>
<path d="M55.7495 78.6721C56.3263 78.6721 56.9031 78.6721 57.2636 78.7298C56.831 78.6144 56.6147 78.2684 56.6147 77.8068C56.6147 76.9994 57.3357 76.2495 59.1382 76.2495C59.5708 76.2495 60.0033 76.3072 60.2196 76.3072L60.0754 77.0571C59.8591 76.9994 59.4266 76.9994 58.994 76.9994C58.2008 76.9994 57.7682 77.3454 57.7682 77.8068C57.7682 78.326 58.2008 78.6721 59.4987 78.6721H60.6522V79.422H55.7495V78.6721Z" fill="white"/>
<path d="M62.9597 72.1541H64.1133V78.6719H65.5553V79.4218H62.9597V72.1541Z" fill="white"/>
<path d="M65.3391 78.6722H78.4611V74.5769H79.6147V78.6722H81.0566V79.4221H65.3391V78.6722ZM77.0191 81.4985C76.6587 81.4985 76.3703 81.2677 76.3703 80.9217C76.3703 80.6332 76.6587 80.4026 77.0191 80.4026C77.3796 80.4026 77.668 80.6332 77.668 80.9217C77.668 81.2677 77.3796 81.4985 77.0191 81.4985ZM78.8936 81.4985C78.5332 81.4985 78.1727 81.2677 78.1727 80.9217C78.1727 80.6332 78.4611 80.4026 78.8936 80.4026C79.2542 80.4026 79.5426 80.6332 79.5426 80.9217C79.6147 81.2677 79.3263 81.4985 78.8936 81.4985Z" fill="white"/>
<path d="M80.9119 78.6719H85.382V72.1541H86.5356V78.6719H88.9149V79.4218H79.8304L80.9119 78.6719Z" fill="white"/>
<path d="M88.7713 78.6718H91.2227C90.4295 78.3834 89.8527 77.6912 89.8527 76.8261C89.8527 75.5571 90.8622 74.4612 93.0251 74.4612C93.8903 74.4612 94.6834 74.6919 94.6834 74.6919L94.4671 75.4417C94.4671 75.4417 93.7461 75.2111 92.953 75.2111C91.7994 75.2111 91.0064 75.7878 91.0064 76.8261C91.0064 77.8643 92.0157 78.6718 94.395 78.6718H95.4764V79.4216H88.6992V78.6718H88.7713Z" fill="white"/>
<path d="M105.787 79.4213C103.335 79.4213 102.398 78.4984 102.398 76.9987C102.398 75.6144 103.407 74.4608 105.643 74.4608C107.084 74.4608 108.238 74.8069 108.238 74.8069V78.6714H120.711V79.4213H105.787ZM107.084 75.4414C107.084 75.4414 106.436 75.2106 105.498 75.2106C104.273 75.2106 103.552 75.9028 103.552 76.8833C103.552 78.0369 104.201 78.6137 105.858 78.6137H107.012V75.4414H107.084ZM103.912 73.0765C103.912 72.788 104.201 72.5574 104.561 72.5574C104.922 72.5574 105.21 72.788 105.21 73.0765C105.21 73.3648 104.922 73.6533 104.561 73.6533C104.201 73.6533 103.912 73.3648 103.912 73.0765ZM105.787 73.0765C105.787 72.788 106.075 72.5574 106.508 72.5574C106.869 72.5574 107.157 72.788 107.157 73.0765C107.157 73.3648 106.869 73.6533 106.508 73.6533C106.075 73.6533 105.787 73.3648 105.787 73.0765Z" fill="white"/>
<path d="M120.494 78.6718H124.604C124.532 76.653 123.522 75.6724 121.215 75.1533V74.4612L126.118 72.0386V73.0192L122.586 74.7496C124.532 75.3841 125.685 76.48 125.758 78.7295H126.911V79.4794H120.423V78.6718H120.494Z" fill="white"/>
<path d="M126.767 78.6719H129.939V72.1541H131.092V78.6719H134.049V79.4218H126.694V78.6719H126.767Z" fill="white"/>
<path d="M135.779 78.5565C135.491 79.1333 134.914 79.4216 134.049 79.4216H133.833V78.6718H134.049C134.698 78.6718 135.203 78.3834 135.203 77.1721C135.203 75.6725 136.284 74.4612 138.303 74.4612C140.249 74.4612 141.115 75.3263 141.115 76.8838V78.6718H142.412V79.4216H138.447C137.005 79.4216 136.212 79.0756 135.779 78.5565ZM140.106 77.0567C140.106 75.7302 139.456 75.2111 138.375 75.2111C137.222 75.2111 136.501 75.9031 136.501 77.0567C136.501 78.1527 137.15 78.6718 138.664 78.6718H140.106V77.0567Z" fill="white"/>
<path d="M142.341 78.6719H145.729V72.1541H146.883V79.4218H142.341V78.6719Z" fill="white"/>
<path d="M149.334 72.1541H150.487V79.4218H149.334V72.1541Z" fill="white"/>
<path d="M154.67 81.9022L154.813 81.0948C155.174 81.21 155.606 81.2677 156.112 81.2677C157.193 81.2677 157.842 80.864 157.842 79.5373V74.5769H158.995V79.4796C158.995 80.9217 158.347 82.0753 156.039 82.0753C155.534 82.0753 155.102 82.0176 154.67 81.9022Z" fill="white"/>
<path d="M161.374 72.1541H162.528V78.6719H177.452V79.4218H161.303V72.1541H161.374Z" fill="white"/>
<path d="M177.308 78.6719H179.111V72.1541H180.264V74.9804C180.264 75.5572 180.192 76.2493 180.12 76.8261C180.769 75.3265 182.21 74.4613 183.652 74.4613C185.383 74.4613 186.176 75.4419 186.176 76.9992C186.176 77.576 186.176 78.0951 186.104 78.6719H187.474V79.4218H177.381V78.6719H177.308ZM184.806 78.6719C184.878 78.1528 184.878 77.6337 184.878 77.1146C184.878 75.961 184.518 75.2111 183.364 75.2111C181.634 75.2111 180.408 76.9992 180.192 78.6719H184.806Z" fill="white"/>
<path d="M191.8 79.4216C190.358 79.4216 189.493 79.1333 189.132 78.5565C188.844 79.1333 188.268 79.4216 187.402 79.4216H187.186V78.6718H187.402C188.051 78.6718 188.556 78.3834 188.556 77.1721C188.556 75.6725 189.637 74.4612 191.656 74.4612C193.603 74.4612 194.468 75.3263 194.468 76.8838V79.4216H191.8ZM193.387 77.0567C193.387 75.7302 192.737 75.2111 191.656 75.2111C190.503 75.2111 189.782 75.9031 189.782 77.0567C189.782 78.1527 190.431 78.6718 191.945 78.6718H193.387V77.0567Z" fill="white"/>
<path d="M71.5392 19.4916C71.5392 20.0684 70.9624 20.5298 70.2414 20.5298C69.5204 20.5298 68.9436 20.0684 68.9436 19.4916C68.9436 18.9148 69.5204 18.4534 70.2414 18.4534C70.9624 18.4534 71.5392 18.9148 71.5392 19.4916Z" fill="white"/>
<path d="M78.8214 20.4147C78.8214 20.9338 78.2446 21.3952 77.5958 21.3952C76.9469 21.3952 76.37 20.9338 76.37 20.4147C76.37 19.8955 76.9469 19.4341 77.5958 19.4341C78.2446 19.4341 78.8214 19.8379 78.8214 20.4147Z" fill="white"/>
<path d="M62.8153 0.976562L61.3012 4.6104L62.8153 5.70632L64.4014 4.6104L62.8153 0.976562Z" fill="white"/>
<path d="M67.7183 24.7411L70.8185 25.6062L73.9187 24.7411L70.8185 23.8181L67.7183 24.7411Z" fill="white"/>
<path d="M66.853 24.0486C66.3484 24.0486 65.9879 24.337 65.9879 24.7408C65.9879 25.1446 66.3484 25.4329 66.853 25.4329C67.3577 25.4329 67.7183 25.1446 67.7183 24.7408C67.7183 24.337 67.2856 24.0486 66.853 24.0486Z" fill="white"/>
<path d="M74.7838 24.0486C74.2792 24.0486 73.9187 24.337 73.9187 24.7408C73.9187 25.1446 74.2792 25.4329 74.7838 25.4329C75.2885 25.4329 75.649 25.1446 75.649 24.7408C75.7211 24.337 75.2885 24.0486 74.7838 24.0486Z" fill="white"/>
<path d="M59.7154 24.6832L62.8156 25.6062L65.988 24.6832L62.8156 23.645L59.7154 24.6832Z" fill="white"/>
<path d="M51.7125 24.7411L54.8849 25.6062L57.9851 24.7411L54.8849 23.8181L51.7125 24.7411Z" fill="white"/>
<path d="M58.8503 24.0486C58.3455 24.0486 57.985 24.337 57.985 24.7408C57.985 25.1446 58.3455 25.4329 58.8503 25.4329C59.355 25.4329 59.7154 25.1446 59.7154 24.7408C59.7154 24.337 59.355 24.0486 58.8503 24.0486Z" fill="white"/>
<path d="M50.8474 24.0486C50.3427 24.0486 49.9823 24.337 49.9823 24.7408C49.9823 25.1446 50.3427 25.4329 50.8474 25.4329C51.3521 25.4329 51.7126 25.1446 51.7126 24.7408C51.7126 24.337 51.3521 24.0486 50.8474 24.0486Z" fill="white"/>
<path d="M54.0916 19.4916C54.0916 20.0684 54.6684 20.5298 55.3893 20.5298C56.1104 20.5298 56.6872 20.0684 56.6872 19.4916C56.6872 18.9148 56.1104 18.4534 55.3893 18.4534C54.7405 18.4534 54.0916 18.9148 54.0916 19.4916Z" fill="white"/>
<path d="M46.8816 20.4147C46.8816 20.9338 47.3864 21.3952 48.1074 21.3952C48.7562 21.3952 49.333 20.9338 49.333 20.4147C49.333 19.8955 48.7562 19.4341 48.1074 19.4341C47.3864 19.4341 46.8816 19.8379 46.8816 20.4147Z" fill="white"/>
<path d="M62.8874 17.5884C62.8153 17.5884 62.8153 17.5884 62.8874 17.5884C62.0943 17.5884 61.4453 18.1075 61.4453 18.6843C61.4453 19.3188 62.0943 19.7802 62.8153 19.7802C63.6083 19.7802 64.1851 19.2611 64.1851 18.6843C64.2572 18.0498 63.6083 17.5884 62.8874 17.5884Z" fill="white"/>
<path d="M81.7772 13.0316C80.4073 10.9552 78.2444 10.09 74.7115 10.09H74.6394C74.1348 9.05171 73.0532 8.30187 71.1066 7.78275C70.3856 7.60971 69.5925 7.43668 68.7994 7.26364C68.3669 7.20596 68.0064 7.14828 67.5737 7.0906L67.2853 6.85988C67.069 6.68684 66.8527 6.57148 66.5643 6.5138C66.276 6.39844 65.9155 6.39844 65.6992 6.39844C64.4014 6.39844 62.8873 6.68684 62.8873 6.68684C62.8873 6.68684 61.3732 6.39844 60.0755 6.39844C59.9313 6.39844 59.4987 6.45612 59.2103 6.5138C58.9218 6.62916 58.7055 6.74452 58.4893 6.85988L58.2009 7.0906C57.7683 7.14828 57.3357 7.20596 56.9752 7.26364C56.1101 7.379 55.3169 7.55203 54.6681 7.78275C52.7934 8.30187 51.712 9.05171 51.1352 10.09H50.991C47.5303 10.09 45.2952 10.9552 43.9974 13.0316C42.5555 15.1658 43.9253 18.2228 45.7999 19.0881C46.5209 19.4918 47.6024 19.6649 47.6024 19.6649V19.4341L48.7559 17.5883C47.4582 17.1269 46.1604 15.9156 46.1604 14.8197C46.1604 13.0316 48.5397 11.3589 50.7027 11.3589L50.7747 11.2435C50.7027 11.532 50.7027 11.8203 50.7027 12.1088C50.7027 13.7238 51.712 16.031 51.712 17.3577L54.9564 19.0304L55.0285 18.7996L56.6868 16.0887C55.0285 15.1658 54.1634 13.147 54.1634 11.5896C54.1634 9.62851 56.7589 8.30187 58.6335 8.07115C60.2197 9.10939 61.1569 10.8975 61.1569 12.8009C61.1569 13.9545 60.6522 15.2811 60.2918 16.031L62.5268 17.646H62.8873H63.2478L65.4829 16.031C65.0503 15.2811 64.6176 13.9545 64.6176 12.8009C64.6176 10.8975 65.555 9.10939 67.1411 8.07115C69.0878 8.30187 71.6113 9.62851 71.6113 11.5896C71.6113 13.2047 70.7461 15.1658 69.0878 16.0887L70.7461 18.7996L70.8182 19.0304L74.0627 17.3577C74.0627 16.031 75.072 13.7238 75.072 12.1088C75.072 11.8203 75.072 11.4743 74.9999 11.2435L75.072 11.3589C77.235 11.3589 79.6143 13.0893 79.6143 14.8197C79.6143 15.9156 78.3885 17.1269 77.0187 17.5883L78.1723 19.4341V19.7225C78.1723 19.7225 79.1816 19.4918 79.9748 19.1457C81.7772 18.2228 83.1471 15.2234 81.7772 13.0316Z" fill="white"/>
<path d="M75.2885 26.3557H62.8155H50.4145L50.126 28.0861H62.8155H75.5769L75.2885 26.3557Z" fill="white"/>
<path d="M62.8155 20.2996L48.5399 21.9147L49.6934 23.2412L62.8155 22.8952L76.0095 23.2412L77.1632 21.9147L62.8155 20.2996Z" fill="white"/>
</g>
<defs>
<clipPath id="clip0_1189_14226">
<rect width="200" height="83" fill="white"/>
</clipPath>
</defs>
</svg>
