<svg width="200" height="45" viewBox="0 0 200 45" fill="none" xmlns="http://www.w3.org/2000/svg">
<g clip-path="url(#clip0_1359_27294)">
<path d="M18.9952 33.8305C18.9952 39.8653 14.4929 44.4955 8.57857 44.4955H0V23.1632H8.57857C14.4905 23.1632 18.9952 27.7958 18.9952 33.8282V33.8305ZM14.2762 33.8305C14.2762 30.1737 11.9476 27.8574 8.57857 27.8574H4.90238V39.8037H8.57857C11.9476 39.8037 14.2762 37.4874 14.2762 33.8305Z" fill="white"/>
<path d="M21.4429 37.6105V23.1655H26.3453V37.1842C26.3453 38.7995 27.1119 40.1708 29.7143 40.1708C32.3167 40.1708 33.0833 38.7995 33.0833 37.1842V23.1655H37.9857V37.6105C37.9857 42.1816 34.431 44.9242 29.7143 44.9242C24.9976 44.9242 21.4429 42.1816 21.4429 37.6105Z" fill="white"/>
<path d="M57.4383 38.25C57.4383 42.0276 54.343 44.4979 50.5145 44.4979H41.5073V23.1655H49.9026C53.6407 23.1655 56.674 25.5718 56.674 29.2595C56.674 31.0263 55.9692 32.4284 54.8049 33.435C56.3978 34.4416 57.4407 36.0853 57.4407 38.25H57.4383ZM46.4097 27.7366V31.5166H49.9026C51.0049 31.5166 51.7716 30.7232 51.7716 29.6266C51.7716 28.53 51.0359 27.7366 49.9026 27.7366H46.4097ZM52.5359 37.8853C52.5359 36.6963 51.7383 35.8437 50.5145 35.8437H46.4097V39.9268H50.5145C51.7407 39.9268 52.5359 39.0742 52.5359 37.8853Z" fill="white"/>
<path d="M85.6168 27.2203V23.1655H80.7168V29.4939L85.6168 27.2203Z" fill="white"/>
<path d="M66.0382 36.3008L68.4644 28.7432L70.2597 34.3421L74.7049 32.2816L71.5883 23.1655H65.3383L59.8716 39.1618L66.0382 36.3008Z" fill="white"/>
<path d="M96.5215 37.4874H94.1929V44.4955H89.2905V23.1632H97.8691C101.943 23.1632 105.221 26.4245 105.221 30.4768C105.221 33.0963 103.629 35.4742 101.269 36.6632L105.833 44.4955H100.564L96.5215 37.4874ZM94.1953 33.2218H97.8715C99.2191 33.2218 100.321 32.0329 100.321 30.4792C100.321 28.9255 99.2191 27.7366 97.8715 27.7366H94.1953V33.2218Z" fill="white"/>
<path d="M123.755 30.4792C123.755 34.5316 120.476 37.7929 116.25 37.7929H113.033V44.4979H108.131V23.1655H116.25C120.478 23.1655 123.755 26.4268 123.755 30.4792ZM118.852 30.4792C118.852 28.9255 117.75 27.7366 116.248 27.7366H113.031V33.2218H116.248C117.748 33.2218 118.852 32.0329 118.852 30.4792Z" fill="white"/>
<path d="M125.133 33.8305C125.133 27.5518 130.126 22.7392 136.283 22.7392C142.44 22.7392 147.436 27.5542 147.436 33.8305C147.436 40.1068 142.443 44.9218 136.283 44.9218C130.124 44.9218 125.133 40.1068 125.133 33.8305ZM142.533 33.8305C142.533 30.0221 139.776 27.4926 136.283 27.4926C132.79 27.4926 130.033 30.0221 130.033 33.8305C130.033 37.6389 132.79 40.1684 136.283 40.1684C139.776 40.1684 142.533 37.6389 142.533 33.8305Z" fill="white"/>
<path d="M157.419 37.4874H155.09V44.4955H150.188V23.1632H158.767C162.84 23.1632 166.119 26.4245 166.119 30.4768C166.119 33.0963 164.526 35.4742 162.167 36.6632L166.731 44.4955H161.462L157.419 37.4874ZM155.09 33.2218H158.767C160.114 33.2218 161.217 32.0329 161.217 30.4792C161.217 28.9255 160.114 27.7366 158.767 27.7366H155.09V33.2218Z" fill="white"/>
<path d="M182.967 27.8574H177.452V44.4955H172.55V27.8574H167.036V23.1655H182.967V27.8574Z" fill="white"/>
<path d="M183.426 39.6521L187.655 37.215C188.421 38.9818 189.738 40.1708 192.157 40.1708C194.576 40.1708 195.067 39.2566 195.067 38.4347C195.067 37.125 193.84 36.6063 190.624 35.7229C187.438 34.8395 184.312 33.3166 184.312 29.2311C184.312 25.1455 187.805 22.7392 191.512 22.7392C195.219 22.7392 197.793 24.4161 199.355 27.5542L195.219 29.9605C194.483 28.4376 193.474 27.4926 191.512 27.4926C189.981 27.4926 189.214 28.2553 189.214 29.1079C189.214 30.0837 189.736 30.7539 193.074 31.7582C196.321 32.7339 199.967 33.8613 199.967 38.3708C199.967 42.4847 196.657 44.9218 192.002 44.9218C187.348 44.9218 184.619 42.7879 183.424 39.6497L183.426 39.6521Z" fill="white"/>
<path d="M71.0024 36.6276L73.5191 44.4979H78.881L75.481 34.5505L71.0024 36.6276Z" fill="white"/>
<path d="M80.7168 32.1229V44.4979H85.6168V29.8492L80.7168 32.1229Z" fill="white"/>
<path d="M58.8026 42.2858L58.0479 44.4979H63.4098L65.0407 39.394L58.8026 42.2858Z" fill="white"/>
<path d="M195.891 3.86763C193.624 3.86763 191.781 5.70079 191.781 7.95553C191.781 8.63763 191.953 9.27711 192.25 9.84316C191.536 10.2505 190.867 10.4447 190.176 10.4447H187.498C188.305 9.60158 188.724 8.505 188.724 7.43921C188.724 5.09684 187.157 3.26369 185.155 3.26369C183.674 3.26369 182.469 3.59763 180.7 5.30763C179.672 6.3 178.767 8.01237 178.181 9.28895V0.0757904H176.686V10.4447H174.603C173.257 10.4447 172.869 10.1605 172.869 9.18V0.0757904H171.374V9.18C171.374 11.9321 173.805 11.9321 174.603 11.9321H190.174C191.186 11.9321 192.174 11.6313 193.181 11.0226C193.905 11.655 194.85 12.0434 195.888 12.0434C198.155 12.0434 199.998 10.2103 199.998 7.95553C199.998 5.70079 198.155 3.86763 195.888 3.86763H195.891ZM179.305 10.4447C179.812 9.26763 180.738 7.34684 181.743 6.37342C183.303 4.86474 184.143 4.74869 185.157 4.74869C186.319 4.74869 187.231 5.93053 187.231 7.43684C187.231 9.64184 185.138 10.4424 183.734 10.4424H179.307L179.305 10.4447ZM195.891 10.5561C194.45 10.5561 193.276 9.38842 193.276 7.95553C193.276 6.52263 194.45 5.355 195.891 5.355C197.331 5.355 198.505 6.52263 198.505 7.95553C198.505 9.38842 197.331 10.5561 195.891 10.5561Z" fill="white"/>
<path d="M163.002 15.5013V14.0139C165.955 14.0139 166.936 13.5639 166.936 10.9018V2.93921H168.431V10.9018C168.431 15.1461 165.748 15.5013 163.002 15.5013Z" fill="white"/>
<path d="M163.75 0.0757904H162.255V11.9226H163.75V0.0757904Z" fill="white"/>
<path d="M132.407 2.93921V9.18C132.407 10.1605 132.019 10.4447 130.674 10.4447H128.188C126.817 10.4447 126.421 10.1605 126.421 9.18V6.51079C126.431 6.0229 126.45 4.72737 125.495 3.75869C124.79 3.04816 123.733 2.68579 122.347 2.68579C121.105 2.68579 119.205 2.90605 119.126 2.91553L118.467 2.99132V10.4424H113.995C111.026 10.4424 109.643 9.48553 109.643 7.42974C109.643 5.37395 110.536 3.25421 110.678 2.93684H109.062C108.707 3.86053 108.147 5.60132 108.147 7.42974C108.147 9.48316 109.162 11.9297 113.995 11.9297H119.962V4.32474C120.617 4.26079 121.624 4.17553 122.35 4.17553C123.319 4.17553 124.021 4.38632 124.433 4.80316C124.95 5.32658 124.938 6.11053 124.931 6.48711V9.18C124.931 11.9321 127.386 11.9321 128.193 11.9321H130.678C131.476 11.9321 133.907 11.9321 133.907 9.18V2.93921H132.412H132.407Z" fill="white"/>
<path d="M154.167 2.65026C154.744 2.65026 155.212 2.18475 155.212 1.61052C155.212 1.03629 154.744 0.570786 154.167 0.570786C153.59 0.570786 153.122 1.03629 153.122 1.61052C153.122 2.18475 153.59 2.65026 154.167 2.65026Z" fill="white"/>
<path d="M151.019 2.65026C151.596 2.65026 152.064 2.18475 152.064 1.61052C152.064 1.03629 151.596 0.570786 151.019 0.570786C150.442 0.570786 149.974 1.03629 149.974 1.61052C149.974 2.18475 150.442 2.65026 151.019 2.65026Z" fill="white"/>
<path d="M118.448 15.3924C119.025 15.3924 119.493 14.9269 119.493 14.3526C119.493 13.7784 119.025 13.3129 118.448 13.3129C117.87 13.3129 117.402 13.7784 117.402 14.3526C117.402 14.9269 117.87 15.3924 118.448 15.3924Z" fill="white"/>
<path d="M115.298 15.3924C115.875 15.3924 116.343 14.9269 116.343 14.3526C116.343 13.7784 115.875 13.3129 115.298 13.3129C114.72 13.3129 114.252 13.7784 114.252 14.3526C114.252 14.9269 114.72 15.3924 115.298 15.3924Z" fill="white"/>
<path d="M132.369 15.3924C132.946 15.3924 133.414 14.9269 133.414 14.3526C133.414 13.7784 132.946 13.3129 132.369 13.3129C131.792 13.3129 131.324 13.7784 131.324 14.3526C131.324 14.9269 131.792 15.3924 132.369 15.3924Z" fill="white"/>
<path d="M144.283 11.0605V9.76737C144.283 5.73158 141.659 2.91316 137.905 2.91316V4.40053C140.826 4.40053 142.788 6.55816 142.788 9.76974V10.4495H135.452V11.9368H142.402L144.283 11.0629V11.0605Z" fill="white"/>
<path d="M157.891 2.93921V9.18C157.891 10.1605 157.503 10.4447 156.157 10.4447H148.443L145.238 11.9321H156.157C156.955 11.9321 159.386 11.9321 159.386 9.18V2.93921H157.891Z" fill="white"/>
</g>
<defs>
<clipPath id="clip0_1359_27294">
<rect width="200" height="45" fill="white"/>
</clipPath>
</defs>
</svg>
