<svg width="200" height="84" viewBox="0 0 200 84" fill="none" xmlns="http://www.w3.org/2000/svg">
<g clip-path="url(#clip0_1376_12653)">
<path d="M87.7206 57.8152C87.9106 57.8152 88.1366 57.8256 88.3998 57.8489C88.6618 57.8706 88.9378 57.9191 89.223 57.9909C89.5082 58.0656 89.787 58.1655 90.0622 58.2943C90.3362 58.4231 90.5858 58.5968 90.8098 58.8159C91.033 59.0354 91.2122 59.3059 91.3478 59.6257C91.481 59.9447 91.5478 60.3299 91.5478 60.7793V66.1843L90.9938 66.3701C90.6234 66.5049 90.1458 66.6594 89.5586 66.8336C88.9718 67.0073 88.2738 67.0956 87.4678 67.0956C87.2774 67.0956 87.0518 67.084 86.787 67.0631C86.5262 67.0378 86.2506 66.9897 85.9654 66.9178C85.6798 66.8444 85.3962 66.7425 85.1174 66.6145C84.8382 66.4865 84.5886 66.3119 84.3718 66.0924C84.1518 65.8734 83.9766 65.6037 83.8422 65.2839C83.7078 64.9641 83.6406 64.5789 83.6406 64.1295C83.6406 63.6809 83.7078 63.2964 83.8422 62.9758C83.9766 62.6568 84.1518 62.3888 84.3718 62.1681C84.5886 61.9486 84.8382 61.7745 85.1174 61.646C85.3962 61.5172 85.6798 61.4153 85.9654 61.3419C86.2506 61.2689 86.5258 61.2219 86.787 61.2002C87.0518 61.1762 87.2778 61.1645 87.4678 61.1645C87.939 61.1645 88.3738 61.2002 88.7786 61.2665C89.181 61.3331 89.5442 61.4133 89.8686 61.502V60.7785C89.8686 60.6762 89.8574 60.553 89.8358 60.4073C89.8138 60.2629 89.7346 60.1208 89.5998 59.986C89.4662 59.8512 89.2542 59.7332 88.9622 59.6329C88.671 59.5322 88.2566 59.4808 87.7206 59.4808C87.0374 59.4808 86.4706 59.4993 86.0242 59.5402C85.577 59.5783 85.2294 59.6157 84.983 59.6494L84.8322 58.1831C85.0666 58.1157 85.3294 58.0551 85.6206 57.9998C85.8794 57.9544 86.1846 57.9115 86.5374 57.873C86.8882 57.8336 87.2838 57.8152 87.7206 57.8152ZM87.4678 65.4259C88.049 65.4259 88.539 65.387 88.9378 65.3092C89.3338 65.2309 89.6442 65.1459 89.8686 65.0564V63.2029C89.6438 63.1143 89.3338 63.0292 88.9378 62.9502C88.539 62.8715 88.049 62.8342 87.4678 62.8342C86.9298 62.8342 86.5154 62.8831 86.2258 62.9847C85.9342 63.0862 85.7222 63.2029 85.5882 63.3378C85.4534 63.473 85.3762 63.613 85.3542 63.7599C85.3294 63.906 85.3194 64.0295 85.3194 64.1295C85.3194 64.231 85.3294 64.3546 85.3542 64.5006C85.3762 64.6475 85.4534 64.7867 85.5882 64.9212C85.7222 65.0568 85.9342 65.1715 86.2258 65.2666C86.5158 65.3621 86.9302 65.4095 87.4678 65.4095V65.4259Z" fill="white"/>
<path d="M97.1717 57.8152C97.2841 57.8152 97.4601 57.8208 97.7001 57.8308C97.9417 57.8429 98.2101 57.8934 98.5061 57.9829C98.8041 58.0724 99.1049 58.2108 99.4141 58.3942C99.7221 58.5812 100.003 58.8444 100.254 59.1867C100.505 59.5294 100.713 59.9684 100.875 60.5C101.037 61.0345 101.117 61.6874 101.117 62.4626C101.117 63.2371 101.037 63.8915 100.875 64.4248C100.713 64.9585 100.505 65.3967 100.254 65.7377C100.003 66.0804 99.7221 66.3444 99.4141 66.531C99.1053 66.7148 98.8045 66.8512 98.5061 66.9335C98.2105 67.0182 97.9417 67.0659 97.7001 67.0779C97.4597 67.088 97.2841 67.0956 97.1717 67.0956C97.0481 67.0956 96.8705 67.088 96.6337 67.0779C96.3985 67.0659 96.1349 67.0182 95.8377 66.9335C95.5417 66.8512 95.239 66.7148 94.9314 66.531C94.623 66.3444 94.3442 66.0808 94.0914 65.7377C93.839 65.3962 93.633 64.9585 93.4706 64.4248C93.307 63.8915 93.2266 63.2371 93.2266 62.4626C93.2266 61.6874 93.307 61.0345 93.4706 60.5C93.6326 59.9684 93.839 59.529 94.0914 59.1867C94.3442 58.8444 94.623 58.5812 94.9314 58.3942C95.239 58.2108 95.5413 58.072 95.8377 57.9829C96.1349 57.8934 96.3985 57.8429 96.6337 57.8308C96.8705 57.8204 97.0485 57.8152 97.1717 57.8152ZM97.1717 65.4259C97.3741 65.4259 97.6021 65.4011 97.8597 65.3505C98.1181 65.3008 98.3649 65.174 98.5985 64.9713C98.8349 64.7703 99.0317 64.4729 99.1957 64.0801C99.3573 63.6865 99.4385 63.1476 99.4385 62.4622C99.4385 61.7789 99.3573 61.2348 99.1957 60.8367C99.0317 60.4386 98.8349 60.1385 98.5985 59.9359C98.3649 59.7336 98.1185 59.6072 97.8597 59.5595C97.6021 59.5073 97.3741 59.4816 97.1717 59.4816C96.9813 59.4816 96.7573 59.5073 96.5001 59.5595C96.2429 59.6072 95.9977 59.734 95.7613 59.9359C95.527 60.1385 95.3278 60.4386 95.1658 60.8367C95.0038 61.2348 94.9226 61.7789 94.9226 62.4622C94.9226 63.1476 95.0038 63.6865 95.1658 64.0801C95.3278 64.4729 95.527 64.7703 95.7613 64.9713C95.9977 65.174 96.2429 65.3008 96.5001 65.3505C96.7573 65.4015 96.9817 65.4259 97.1717 65.4259Z" fill="white"/>
<path d="M110.568 58.0676L107.043 67.7513C106.717 68.6485 106.309 69.3006 105.817 69.7034C105.324 70.1083 104.675 70.3105 103.869 70.3105C103.645 70.3105 103.445 70.3073 103.273 70.3025C103.099 70.2957 102.951 70.2877 102.828 70.2772C102.682 70.2652 102.554 70.2483 102.443 70.2259L102.626 69.0305H103.617C103.896 69.0305 104.143 68.99 104.355 68.9129C104.568 68.8331 104.755 68.7183 104.917 68.5678C105.08 68.415 105.223 68.2272 105.348 68.0041C105.47 67.7782 105.587 67.5201 105.7 67.228L105.935 66.6057L102.207 58.0676L103.869 58.0511L106.657 64.5348L108.907 58.0676H110.568Z" fill="white"/>
<path d="M113.7 64.2478C113.829 64.574 114 64.8236 114.212 64.997C114.425 65.1715 114.669 65.2863 114.942 65.3424C115.218 65.3986 115.495 65.4259 115.774 65.4259C116.065 65.4259 116.378 65.4034 116.714 65.3589C117.048 65.3144 117.464 65.2136 117.958 65.0563V58.0503H119.635V66.1325C119.097 66.3352 118.488 66.547 117.804 66.7661C117.123 66.9844 116.429 67.0944 115.723 67.0944C115.477 67.0944 115.208 67.0795 114.918 67.0522C114.627 67.0241 114.335 66.9672 114.045 66.8749C113.753 66.7846 113.473 66.6469 113.204 66.4624C112.937 66.2774 112.701 66.033 112.5 65.7305C112.298 65.4263 112.136 65.0487 112.013 64.5933C111.889 64.1387 111.828 63.5909 111.828 62.9505V58.0507H113.507V62.9505C113.508 63.4898 113.572 63.922 113.7 64.2478Z" fill="white"/>
<path d="M125.475 57.8152C125.665 57.8152 125.892 57.8256 126.155 57.8489C126.418 57.8706 126.691 57.9191 126.978 57.9909C127.262 58.0656 127.543 58.1655 127.816 58.2943C128.091 58.4231 128.339 58.5968 128.564 58.8159C128.788 59.0354 128.968 59.3059 129.102 59.6257C129.235 59.9447 129.302 60.3299 129.302 60.7793V66.1843L128.749 66.3701C128.379 66.5049 127.901 66.6594 127.313 66.8336C126.726 67.0073 126.029 67.0956 125.223 67.0956C125.033 67.0956 124.805 67.084 124.543 67.0631C124.279 67.0378 124.007 66.9897 123.72 66.9178C123.435 66.8444 123.152 66.7425 122.873 66.6145C122.592 66.4865 122.344 66.3119 122.126 66.0924C121.907 65.8734 121.731 65.6037 121.597 65.2839C121.463 64.9641 121.395 64.5789 121.395 64.1295C121.395 63.6809 121.463 63.2964 121.597 62.9758C121.731 62.6568 121.907 62.3888 122.126 62.1681C122.344 61.9486 122.592 61.7745 122.873 61.646C123.152 61.5172 123.435 61.4153 123.72 61.3419C124.007 61.2689 124.278 61.2219 124.543 61.2002C124.805 61.1762 125.033 61.1645 125.223 61.1645C125.693 61.1645 126.129 61.2002 126.532 61.2665C126.935 61.3331 127.299 61.4133 127.624 61.502V60.7785C127.624 60.6762 127.612 60.553 127.59 60.4073C127.567 60.2629 127.489 60.1208 127.355 59.986C127.22 59.8512 127.007 59.7332 126.716 59.6329C126.426 59.5322 126.01 59.4808 125.474 59.4808C124.792 59.4808 124.226 59.4993 123.779 59.5402C123.331 59.5783 122.984 59.6157 122.737 59.6494L122.587 58.1831C122.822 58.1157 123.083 58.0551 123.376 57.9998C123.633 57.9544 123.938 57.9115 124.29 57.873C124.644 57.8336 125.038 57.8152 125.475 57.8152ZM125.223 65.4259C125.804 65.4259 126.295 65.387 126.691 65.3092C127.088 65.2309 127.4 65.1459 127.624 65.0564V63.2029C127.4 63.1143 127.088 63.0292 126.691 62.9502C126.295 62.8715 125.804 62.8342 125.223 62.8342C124.687 62.8342 124.271 62.8831 123.981 62.9847C123.69 63.0862 123.478 63.2029 123.343 63.3378C123.209 63.473 123.13 63.613 123.108 63.7599C123.084 63.906 123.074 64.0295 123.074 64.1295C123.074 64.231 123.084 64.3546 123.108 64.5006C123.13 64.6475 123.209 64.7867 123.343 64.9212C123.478 65.0568 123.69 65.1715 123.981 65.2666C124.271 65.3621 124.687 65.4095 125.223 65.4095V65.4259Z" fill="white"/>
<path d="M137.388 60.6609C137.261 60.3347 137.088 60.0839 136.876 59.9098C136.664 59.7368 136.423 59.6213 136.154 59.5663C135.886 59.5089 135.612 59.4816 135.332 59.4816C135.029 59.4816 134.674 59.5049 134.265 59.5486C133.857 59.594 133.407 59.6951 132.916 59.852V66.8584H131.234V58.7746C131.503 58.6731 131.805 58.5671 132.135 58.454C132.463 58.3424 132.81 58.2385 133.175 58.1434C133.539 58.0475 133.908 57.9705 134.283 57.9071C134.658 57.8445 135.019 57.816 135.366 57.816C135.746 57.816 136.162 57.8513 136.616 57.9235C137.07 57.9981 137.492 58.1707 137.883 58.446C138.275 58.722 138.604 59.1369 138.865 59.6915C139.13 60.2492 139.26 61.0044 139.26 61.9574V66.8588H137.582V61.9574C137.582 61.4181 137.518 60.9868 137.388 60.6609Z" fill="white"/>
<path d="M79.9256 57.4629V67.0687H78.0428V57.4629H74.4336V55.8819H83.5359V57.4629H79.9256Z" fill="white"/>
<path d="M158.735 58.8324V66.8729H157.073L157.055 58.8324H158.735Z" fill="white"/>
<path d="M165.166 57.8292C165.379 57.8292 165.579 57.8429 165.771 57.8706C165.96 57.8994 166.133 57.9291 166.291 57.9636C166.469 58.0082 166.633 58.0531 166.777 58.0993L166.627 59.4965H165.167C164.574 59.4965 164.077 59.5346 163.681 59.614C163.283 59.6923 162.972 59.7766 162.749 59.866V66.8729H161.07V58.789C161.395 58.6534 161.714 58.5302 162.028 58.4179C162.341 58.3063 162.659 58.2048 162.984 58.1137C163.31 58.025 163.647 57.9548 164.001 57.9043C164.352 57.8545 164.739 57.8292 165.166 57.8292Z" fill="white"/>
<path d="M172.115 57.7827C172.239 57.7827 172.417 57.7883 172.652 57.7999C172.886 57.8103 173.152 57.8585 173.45 57.9428C173.746 58.027 174.048 58.1614 174.358 58.346C174.665 58.5326 174.944 58.7962 175.196 59.1385C175.448 59.4812 175.654 59.9186 175.817 60.4523C175.978 60.9855 176.06 61.6392 176.06 62.4144C176.06 63.1881 175.978 63.8433 175.817 64.377C175.655 64.9103 175.448 65.3473 175.196 65.6895C174.944 66.0326 174.665 66.2967 174.358 66.4816C174.048 66.6674 173.747 66.8055 173.45 66.8945C173.152 66.9848 172.885 67.0346 172.644 67.0474C172.403 67.0566 172.226 67.0635 172.115 67.0635C171.646 67.0635 171.209 67.0294 170.805 66.9615C170.404 66.8945 170.04 66.8155 169.714 66.726V69.8591H168.035V58.6927L168.59 58.4897C168.96 58.3565 169.436 58.2052 170.025 58.0358C170.613 57.8665 171.308 57.7827 172.115 57.7827ZM172.115 65.3786C172.316 65.3786 172.544 65.3537 172.803 65.3027C173.062 65.2518 173.307 65.1262 173.542 64.9239C173.776 64.7213 173.976 64.424 174.139 64.0311C174.301 63.6383 174.381 63.0998 174.381 62.4148C174.381 61.7299 174.301 61.1902 174.139 60.7994C173.976 60.4053 173.776 60.1084 173.542 59.9057C173.307 59.7035 173.062 59.5779 172.803 59.5265C172.544 59.4752 172.316 59.4499 172.115 59.4499C171.533 59.4499 171.044 59.4904 170.646 59.5691C170.249 59.6481 169.937 59.7316 169.714 59.8219V65.0259C169.937 65.1145 170.249 65.1996 170.646 65.2778C171.044 65.3565 171.533 65.3954 172.115 65.3954V65.3786Z" fill="white"/>
<path d="M181.515 57.7827C181.628 57.7827 181.803 57.7883 182.044 57.7999C182.286 57.8103 182.553 57.8617 182.851 57.9504C183.148 58.0423 183.45 58.1775 183.757 58.3633C184.065 58.5491 184.344 58.8127 184.597 59.1558C184.848 59.4985 185.056 59.9358 185.218 60.4687C185.38 61.002 185.461 61.6572 185.461 62.4317C185.461 63.2053 185.38 63.861 185.218 64.3947C185.056 64.9267 184.848 65.3649 184.597 65.7064C184.344 66.0491 184.065 66.3131 183.757 66.4981C183.45 66.6823 183.148 66.8187 182.851 66.9042C182.554 66.9872 182.286 67.0346 182.044 67.0466C181.803 67.0566 181.628 67.0635 181.515 67.0635C181.393 67.0635 181.213 67.0566 180.979 67.0466C180.742 67.0346 180.478 66.9872 180.181 66.9042C179.884 66.8187 179.582 66.6823 179.274 66.4981C178.967 66.3131 178.688 66.0495 178.435 65.7064C178.184 65.3649 177.976 64.9271 177.814 64.3947C177.65 63.861 177.57 63.2053 177.57 62.4317C177.57 61.6572 177.65 61.002 177.814 60.4687C177.976 59.9358 178.184 59.4981 178.435 59.1558C178.688 58.8131 178.967 58.5491 179.274 58.3633C179.582 58.1775 179.884 58.0419 180.181 57.9504C180.478 57.8617 180.742 57.8103 180.979 57.7999C181.213 57.7883 181.393 57.7827 181.515 57.7827ZM181.515 65.3946C181.717 65.3946 181.946 65.3705 182.205 65.32C182.462 65.2686 182.709 65.143 182.943 64.9408C183.178 64.7381 183.377 64.4408 183.539 64.048C183.701 63.6551 183.783 63.1158 183.783 62.4317C183.783 61.7467 183.701 61.205 183.539 60.8062C183.377 60.4069 183.178 60.108 182.943 59.9053C182.709 59.7027 182.462 59.5775 182.205 59.5261C181.946 59.4748 181.717 59.4495 181.515 59.4495C181.325 59.4495 181.102 59.4748 180.845 59.5261C180.587 59.5775 180.341 59.7027 180.106 59.9053C179.871 60.108 179.673 60.4069 179.509 60.8062C179.348 61.205 179.266 61.7467 179.266 62.4317C179.266 63.1158 179.348 63.6555 179.509 64.048C179.673 64.4408 179.871 64.7381 180.106 64.9408C180.341 65.143 180.586 65.2686 180.845 65.32C181.102 65.3709 181.325 65.3946 181.515 65.3946Z" fill="white"/>
<path d="M191.32 57.8292C191.531 57.8292 191.731 57.8429 191.923 57.8706C192.113 57.8994 192.286 57.9291 192.443 57.9636C192.623 58.0082 192.785 58.0531 192.931 58.0993L192.781 59.4965H191.32C190.727 59.4965 190.231 59.5346 189.833 59.614C189.435 59.6923 189.125 59.7766 188.901 59.866V66.8729H187.223V58.789C187.548 58.6534 187.867 58.5302 188.181 58.4179C188.493 58.3063 188.812 58.2048 189.137 58.1137C189.462 58.025 189.801 57.9548 190.153 57.9043C190.504 57.8545 190.893 57.8292 191.32 57.8292Z" fill="white"/>
<path d="M199.682 66.9282C199.526 66.9611 199.349 66.9924 199.153 67.0205C198.956 67.0474 198.753 67.0627 198.54 67.0627C198.115 67.0627 197.687 67.037 197.256 66.9864C196.825 66.9363 196.439 66.8179 196.097 66.6345C195.756 66.4467 195.476 66.1735 195.257 65.8071C195.039 65.442 194.931 64.9456 194.931 64.3172V59.5173H193.855V58.7585L195.753 56.1142H196.594V58.0174H199.463V59.5169H196.594V64.3168C196.594 64.4853 196.6 64.6499 196.61 64.814C196.62 64.9761 196.683 65.1226 196.794 65.2506C196.907 65.3802 197.096 65.4845 197.364 65.5627C197.634 65.641 198.026 65.6807 198.54 65.6807H200.001L199.682 66.9282Z" fill="white"/>
<path d="M148.982 55.4919H151.091L155.454 66.8524H153.328L152.266 63.845H147.746L146.682 66.8524H144.637L148.982 55.4919ZM148.284 62.3334H151.742L150.044 57.4496H149.997L148.284 62.3334Z" fill="white"/>
<path d="M158.878 56.4505C158.878 56.995 158.438 57.4356 157.896 57.4356C157.354 57.4356 156.914 56.995 156.914 56.4505C156.914 55.9068 157.354 55.4654 157.896 55.4654C158.438 55.4654 158.878 55.9068 158.878 56.4505Z" fill="white"/>
<path d="M95.3877 82.7397C95.3877 83.0249 95.2957 83.2581 95.1117 83.4399C94.9125 83.6529 94.6485 83.7589 94.3201 83.7589H88.1737C87.8021 83.7589 87.5153 83.6421 87.3085 83.4086C87.1117 83.1963 87.0117 82.9182 87.0117 82.5755V75.3945C87.0117 75.1096 87.1117 74.8609 87.3085 74.6494C87.5081 74.4512 87.7337 74.3521 87.9877 74.3521H94.3709C94.6797 74.3521 94.9265 74.4692 95.1121 74.7032C95.2961 74.9303 95.3881 75.2067 95.3881 75.5362V82.7397H95.3877ZM94.4833 75.4808C94.4833 75.3945 94.4413 75.3055 94.3613 75.218C94.2705 75.1305 94.0605 75.086 93.9589 75.086H88.3049C88.2101 75.086 88.1241 75.1305 88.0477 75.218C87.9729 75.3059 87.9353 75.3901 87.9353 75.4708V82.6185C87.9353 82.7288 87.9793 82.8235 88.0685 82.9034C88.1585 82.9836 88.2573 83.0249 88.3673 83.0249H94.0929C94.3533 83.0249 94.4829 82.8821 94.4829 82.598L94.4833 75.4808Z" fill="white"/>
<path d="M89.7811 79.7032C89.6207 80.2076 89.1171 81.082 88.6523 81.6586V82.7332C89.1903 82.2513 89.8979 81.2369 90.1955 80.517C90.1895 80.5118 90.1999 81.4034 90.1999 81.5888C90.1999 82.3135 90.4199 82.7677 91.1655 82.7677C91.7111 82.7677 91.8919 82.7713 91.8919 82.7713L92.1163 82.033C92.1163 82.033 91.5895 82.0338 91.4347 82.0338C91.1543 82.0338 91.0159 81.9415 91.0159 81.6927C91.0159 81.5936 91.0091 79.7109 91.0159 79.7032H89.7811Z" fill="white"/>
<path d="M91.6053 76.6103V76.1581H93.6181V75.5104H91.6053V74.8881H90.7305V75.5104H88.8401V76.1581H90.7305V76.6103H88.5625V77.2788H93.8969V76.6103H91.6053Z" fill="white"/>
<path d="M93.7137 77.8474C93.6005 77.7282 93.4677 77.6729 93.2917 77.6845H89.0669C88.9342 77.6845 88.8105 77.7403 88.7165 77.8374C88.6245 77.9377 88.573 78.0689 88.5834 78.2114V79.105C88.573 79.2699 88.6245 79.4236 88.7165 79.5452C88.8001 79.6659 88.9126 79.7205 89.0669 79.7305H89.4705H91.8073H93.2917C93.4461 79.7205 93.5689 79.6659 93.6825 79.5452C93.8061 79.4236 93.8685 79.2699 93.8685 79.105V78.2114C93.8573 78.0577 93.8057 77.9377 93.7137 77.8474ZM93.1057 78.7101C93.1057 78.9525 93.0805 79.0171 92.8365 79.0171H89.6125C89.3677 79.0171 89.3349 78.9152 89.3349 78.7101V78.5593C89.3349 78.3309 89.4097 78.3979 89.6125 78.3979H92.8365C93.0669 78.3979 93.1057 78.3739 93.1057 78.5625V78.7101Z" fill="white"/>
<path d="M80.3636 79.5656C80.3636 81.5322 79.8092 82.7191 78.6984 83.8082H77.4336C78.7972 82.6164 79.4812 81.3994 79.4812 79.4781V74.2842H80.3636V79.5656Z" fill="white"/>
<path d="M83.6593 83.8082H82.7565C81.3337 83.8082 81.0938 82.8737 81.0938 81.9969V74.2838H81.9669V81.8745C81.9669 82.4543 82.1753 82.9732 82.8085 82.9732H83.9261L83.6593 83.8082Z" fill="white"/>
<path d="M113.055 77.0562V80.0552C113.316 79.9308 113.521 79.8205 114.181 79.4328V80.3309C112.836 81.1133 111.934 81.5531 110.969 81.9391V81.0078C111.344 80.8758 111.729 80.7081 112.12 80.5038V77.0562H110.979V76.246H112.12V74.45H113.055V76.246H114.234V77.0562H113.055Z" fill="white"/>
<path d="M113.566 82.2087C114.323 81.3432 114.675 79.9119 114.733 79.06C114.792 78.1945 115.593 78.302 115.593 78.302H119.93V79.1025H115.56C115.56 79.1025 115.302 81.9968 113.57 83.3399L113.566 82.2087ZM115.52 77.8522C115.376 77.8426 115.245 77.7763 115.154 77.6656C115.052 77.5235 115.001 77.3586 115.012 77.1837V74.9226C115.002 74.7697 115.052 74.6377 115.154 74.5277C115.255 74.4069 115.376 74.3512 115.52 74.3512H119.037C119.219 74.3407 119.371 74.4073 119.493 74.5277C119.594 74.6156 119.646 74.7584 119.655 74.9226V77.1837C119.655 77.359 119.583 77.5119 119.453 77.6556C119.34 77.7763 119.198 77.8426 119.037 77.8522H115.52ZM118.833 75.7235V75.4382C118.833 75.3507 118.814 75.2616 118.772 75.2079C118.722 75.1425 118.64 75.1096 118.539 75.1096H116.128C116.017 75.1096 115.936 75.1304 115.905 75.1854C115.854 75.2508 115.825 75.3391 115.834 75.4382V75.7235H118.833ZM115.834 76.4807V76.7772C115.834 76.8655 115.854 76.953 115.905 77.0067C115.947 77.0621 116.027 77.0946 116.128 77.0946H118.539C118.631 77.0946 118.712 77.0621 118.762 77.0067C118.804 76.953 118.823 76.8755 118.834 76.7772V76.4807H115.834Z" fill="white"/>
<path d="M83.3973 76.5674C82.9001 77.0465 82.5149 77.2307 81.7825 77.6063L81.7617 76.5465C82.2781 76.2982 82.6677 76.0799 83.4125 75.431L83.3973 76.5674Z" fill="white"/>
<path d="M83.4169 80.7285C82.8169 80.334 82.4629 80.149 81.8629 79.6001L81.8438 78.4778C82.3489 78.9605 82.9225 79.3694 83.4109 79.7L83.4169 80.7285Z" fill="white"/>
<path d="M78.1523 75.5165C78.7379 76.0883 79.1359 76.4049 79.6875 76.6272L79.6675 77.6022C79.1103 77.3531 78.6615 77.073 78.1643 76.5959L78.1523 75.5165Z" fill="white"/>
<path d="M78.1822 79.7374C78.6946 79.4332 79.0254 79.0829 79.5698 78.5127L79.5618 79.6511C79.039 80.1234 78.7058 80.444 78.1758 80.765L78.1822 79.7374Z" fill="white"/>
<path d="M75.8646 77.1368C75.7442 79.2848 75.5214 81.1226 75.1974 82.7802H74.4258C74.8078 80.8658 75.0474 79.0288 75.1458 77.1368H75.8646Z" fill="white"/>
<path d="M76.8424 76.4494V83.8102H75.9788V76.4494H74.8828V75.5823H75.9788V74.2866H76.8424V75.5823H77.9152V76.4494H76.8424Z" fill="white"/>
<path d="M78.2042 82.34H77.473C77.0806 79.7354 76.9946 78.5188 76.957 77.1368H77.6674C77.6602 79.1897 78.0558 81.4083 78.2042 82.34Z" fill="white"/>
<path d="M107.724 83.0148C105.744 81.7356 105.883 79.8417 105.883 78.749H104.996C104.996 80.0074 105.2 82.7163 107.724 83.939V83.0148H107.724Z" fill="white"/>
<path d="M107.73 79.2964L107.528 78.7511H106.691L106.853 79.1997L103.24 79.1937C102.955 79.1981 102.723 79.4216 102.723 79.7655V81.4608C102.723 81.8878 102.524 82.5936 102.004 82.9648H102.026V83.9864C103.008 83.4282 103.586 82.3111 103.586 81.4608V80.0311C103.586 80.0311 106.863 80.0251 107.24 80.0251C107.617 80.0251 107.891 79.7398 107.73 79.2964Z" fill="white"/>
<path d="M104.869 75.8086C104.814 75.6714 104.643 75.5855 104.508 75.5855C104.375 75.5855 103.755 75.5803 103.755 75.5803L104.797 74.2947H103.777L102.687 75.6229C102.581 75.7408 102.547 75.9114 102.611 76.0558C102.673 76.2003 102.82 76.2573 102.978 76.2573H103.734L102.506 77.6135C102.387 77.7251 102.357 77.9221 102.417 78.0754C102.476 78.2275 102.666 78.3222 102.828 78.3222H104.73L104.936 77.573H103.589C103.589 77.573 104.568 76.5105 104.74 76.3375C104.914 76.165 104.927 75.9511 104.869 75.8086Z" fill="white"/>
<path d="M107.557 75.8086C107.503 75.6714 107.333 75.5855 107.196 75.5855C107.062 75.5855 106.443 75.5803 106.443 75.5803L107.484 74.2947H106.465L105.374 75.6229C105.268 75.7408 105.234 75.9114 105.299 76.0558C105.362 76.2003 105.508 76.2573 105.665 76.2573H106.422L105.195 77.6135C105.074 77.7251 105.045 77.9221 105.104 78.0754C105.163 78.2275 105.353 78.3222 105.517 78.3222H107.531L107.738 77.573H106.276C106.276 77.573 107.255 76.5105 107.431 76.3375C107.603 76.165 107.615 75.9511 107.557 75.8086Z" fill="white"/>
<path d="M107.454 80.4067C106.658 81.444 105.544 82.466 104.305 83.0089V84C105.463 83.4604 106.867 82.3147 107.454 81.5937V80.4067Z" fill="white"/>
<path d="M100.229 77.1837C100.107 79.302 99.8863 81.1382 99.5623 82.7966H98.7891C99.1723 80.8834 99.4123 79.0456 99.5107 77.1837H100.229Z" fill="white"/>
<path d="M101.207 76.4955V83.8266H100.343V76.4955H99.2461V75.6268H100.343V74.2633H101.207V75.6268H102.28V76.4955H101.207Z" fill="white"/>
<path d="M102.473 81.8412H101.744C101.451 79.7522 101.364 78.536 101.328 77.1837H102.038C102.031 79.2069 102.426 81.4255 102.473 81.8412Z" fill="white"/>
<path d="M115.461 79.5736H119.295C119.568 79.5736 119.923 79.8649 119.923 80.2935V82.1834L119.926 82.4362C119.926 83.6248 119.183 83.9899 118.387 83.9899H118.177L117.944 83.1894H118.29C118.702 83.1894 119.021 83.0048 119.021 82.4587L119.02 82.3588V80.6037C119.02 80.4492 118.899 80.2879 118.721 80.2879H118.407C118.216 81.4407 117.662 83.1067 117.171 83.8739H116.188C116.742 83.0738 117.371 81.3685 117.54 80.2879H116.867C116.543 81.5286 115.794 83.2464 115.283 83.8739H114.289C114.999 83.0341 115.798 81.3444 115.984 80.2879H115.234C115.063 80.2879 114.922 80.2281 114.813 80.1121" fill="white"/>
<path d="M104.669 82.2513L103.059 81.5679V80.6984L104.669 81.3813V82.2513Z" fill="white"/>
<path d="M93.0853 82.7854C92.5337 82.214 91.8789 81.3621 91.7733 80.9019C91.6417 80.3176 92.0897 80.0367 92.5601 80.0367C92.8097 80.0367 93.8273 80.0375 93.8273 80.0375V80.7674C93.8273 80.7674 93.0929 80.769 92.9161 80.769C92.7097 80.769 92.4901 80.9524 92.8833 81.4175C93.0457 81.6097 93.5749 82.2786 94.1301 82.7854H93.0853Z" fill="white"/>
<mask id="mask0_1376_12653" style="mask-type:luminance" maskUnits="userSpaceOnUse" x="27" y="37" width="48" height="47">
<path d="M74.2221 37.3467H27.832V83.8828H74.2221V37.3467Z" fill="white"/>
</mask>
<g mask="url(#mask0_1376_12653)">
<path d="M74.2221 37.3467H27.832V46.654H46.3887V83.8824H55.6659V46.654H74.2221V37.3467Z" fill="white" fill-opacity="0.8"/>
</g>
<mask id="mask1_1376_12653" style="mask-type:luminance" maskUnits="userSpaceOnUse" x="0" y="28" width="47" height="47">
<path d="M46.3881 28.0414H0V74.5747H46.3881V28.0414Z" fill="white"/>
</mask>
<g mask="url(#mask1_1376_12653)">
<path d="M46.3881 74.5747V28.0414H37.1086V46.654H0V55.9625H37.1086V74.5747H46.3881Z" fill="white" fill-opacity="0.7"/>
</g>
<mask id="mask2_1376_12653" style="mask-type:luminance" maskUnits="userSpaceOnUse" x="9" y="0" width="47" height="47">
<path d="M55.6651 0.117554H9.27734V46.654H55.6651V0.117554Z" fill="white"/>
</mask>
<g mask="url(#mask2_1376_12653)">
<path d="M9.27734 46.654H55.6651V37.3467H37.1112V0.118347H27.8312V37.3467H9.27734V46.654Z" fill="white" fill-opacity="0.8"/>
</g>
<mask id="mask3_1376_12653" style="mask-type:luminance" maskUnits="userSpaceOnUse" x="37" y="9" width="47" height="47">
<path d="M83.4986 9.42609H37.1133V55.963H83.4986V9.42609Z" fill="white"/>
</mask>
<g mask="url(#mask3_1376_12653)">
<path d="M37.1133 9.42609V55.9626H46.3892V37.3468H83.4986V28.0387H46.3892V9.42609H37.1133Z" fill="white" fill-opacity="0.6"/>
</g>
<path d="M46.3853 37.3897H37.1094V46.697H46.3853V37.3897Z" fill="#FCFCFC"/>
</g>
<defs>
<clipPath id="clip0_1376_12653">
<rect width="200" height="84" fill="white"/>
</clipPath>
</defs>
</svg>
