<svg width="200" height="47" viewBox="0 0 200 47" fill="none" xmlns="http://www.w3.org/2000/svg">
<g clip-path="url(#clip0_1359_27916)">
<mask id="mask0_1359_27916" style="mask-type:luminance" maskUnits="userSpaceOnUse" x="0" y="0" width="200" height="47">
<path d="M199.079 0H0V47H199.079V0Z" fill="white"/>
</mask>
<g mask="url(#mask0_1359_27916)">
<path d="M98.4762 6.42163L96.7577 13.561H101.184L99.4861 6.42163H98.4762ZM93.3203 18.5993L96.7371 4.50525H101.205L104.642 18.5993H102.379L101.629 15.575H96.3126L95.5628 18.5993H93.3203Z" fill="white"/>
<path d="M112.338 12.6761C112.338 11.6621 112.181 10.9513 111.862 10.5472C111.547 10.143 111.01 9.94088 110.257 9.94088C109.503 9.94088 108.952 10.1534 108.61 10.5785C108.268 11.0036 108.086 11.7039 108.076 12.6761H112.342H112.338ZM113.55 16.7492L114.115 16.6865L114.156 18.3521C112.619 18.6656 111.26 18.8259 110.075 18.8259C108.579 18.8259 107.504 18.4077 106.85 17.5716C106.196 16.7353 105.871 15.3974 105.871 13.5611C105.871 9.91301 107.333 8.0907 110.257 8.0907C113.18 8.0907 114.502 9.66213 114.502 12.8015L114.362 14.4078H108.096C108.11 15.258 108.292 15.8816 108.641 16.2789C108.99 16.6761 109.644 16.8746 110.602 16.8746C111.561 16.8746 112.544 16.8329 113.554 16.7527" fill="white"/>
<path d="M116.625 18.5992V8.31358H118.809V9.54703C119.956 8.79442 121.099 8.30662 122.246 8.0871V10.3275C121.086 10.561 120.096 10.8641 119.275 11.2334L118.83 11.4181V18.5992H116.625Z" fill="white"/>
<path d="M126.128 16.1115C126.44 16.6586 127.046 16.9338 127.946 16.9338C128.847 16.9338 129.456 16.6586 129.764 16.1115C130.072 15.5645 130.23 14.6655 130.23 13.4146C130.23 12.1638 130.066 11.2822 129.733 10.7596C129.405 10.2404 128.806 9.97908 127.943 9.97908C127.08 9.97908 126.485 10.2404 126.152 10.7596C125.824 11.2822 125.656 12.1638 125.656 13.4146C125.656 14.6655 125.81 15.561 126.122 16.1115M124.482 9.42508C125.177 8.5331 126.33 8.0871 127.946 8.0871C129.562 8.0871 130.719 8.5331 131.411 9.42508C132.106 10.3171 132.452 11.655 132.452 13.4355C132.452 15.216 132.116 16.5609 131.442 17.4668C130.767 18.3728 129.603 18.8257 127.943 18.8257C126.282 18.8257 125.119 18.3728 124.447 17.4668C123.773 16.5609 123.438 15.2195 123.438 13.4355C123.438 11.6516 123.783 10.3171 124.478 9.42508" fill="white"/>
<path d="M139.043 10.0837C138.409 10.0837 137.776 10.2266 137.143 10.5158L136.838 10.6586V16.7284C137.376 16.8398 137.971 16.8921 138.618 16.8921C139.536 16.8921 140.169 16.6238 140.518 16.0908C140.868 15.5576 141.042 14.6447 141.042 13.3555C141.042 11.1743 140.375 10.0837 139.039 10.0837M134.637 23.0244V8.31718H136.821V8.95482C137.749 8.37991 138.618 8.0907 139.43 8.0907C140.765 8.0907 141.741 8.50534 142.36 9.33461C142.98 10.1639 143.291 11.5576 143.291 13.5123C143.291 15.467 142.939 16.8398 142.23 17.6378C141.521 18.4321 140.368 18.8329 138.762 18.8329C138.211 18.8329 137.571 18.7702 136.841 18.6482V23.0315H134.64L134.637 23.0244Z" fill="white"/>
<path d="M151.615 8.31714H153.799V18.6029H151.615V17.9652C150.632 18.5402 149.721 18.8294 148.886 18.8294C147.499 18.8294 146.568 18.4496 146.095 17.6864C145.623 16.9269 145.387 15.5924 145.387 13.6865V8.31714H147.591V13.7074C147.591 14.9409 147.691 15.7735 147.896 16.1987C148.098 16.6238 148.571 16.8363 149.31 16.8363C150.05 16.8363 150.704 16.7004 151.313 16.4252L151.618 16.2998V8.31714H151.615Z" fill="white"/>
<path d="M162.448 12.6761C162.448 11.6621 162.29 10.9513 161.972 10.5472C161.656 10.143 161.119 9.94088 160.366 9.94088C159.613 9.94088 159.062 10.1534 158.719 10.5785C158.378 11.0036 158.195 11.7039 158.182 12.6761H162.448ZM163.664 16.7492L164.229 16.6865L164.27 18.3521C162.732 18.6656 161.373 18.8259 160.185 18.8259C158.688 18.8259 157.614 18.4077 156.96 17.5716C156.306 16.7353 155.98 15.3974 155.98 13.5611C155.98 9.91301 157.443 8.0907 160.366 8.0907C163.29 8.0907 164.611 9.66213 164.611 12.8015L164.471 14.4078H158.207C158.22 15.258 158.401 15.8816 158.75 16.2789C159.1 16.6761 159.754 16.8746 160.712 16.8746C161.671 16.8746 162.653 16.8329 163.664 16.7527" fill="white"/>
<path d="M166.734 18.5992V8.31358H168.92V9.54703C170.063 8.79442 171.209 8.30662 172.356 8.0871V10.3275C171.196 10.561 170.206 10.8641 169.385 11.2334L168.94 11.4181V18.5992H166.734Z" fill="white"/>
<path d="M174.237 5.33105H176.421V8.31363H179.211V10.2265H176.421V14.7526C176.421 15.5889 176.483 16.1429 176.602 16.4181C176.722 16.6934 177.034 16.8293 177.531 16.8293L179.188 16.7665L179.287 18.5575C178.383 18.7352 177.696 18.8259 177.226 18.8259C176.08 18.8259 175.296 18.5575 174.871 18.0244C174.446 17.4914 174.234 16.4809 174.234 15.0001V5.33105H174.237Z" fill="white"/>
<path d="M183.212 16.1115C183.52 16.6586 184.125 16.9338 185.029 16.9338C185.933 16.9338 186.539 16.6586 186.847 16.1115C187.155 15.5645 187.312 14.6655 187.312 13.4146C187.312 12.1638 187.147 11.2822 186.816 10.7596C186.487 10.2404 185.887 9.97908 185.025 9.97908C184.162 9.97908 183.566 10.2404 183.235 10.7596C182.902 11.2822 182.739 12.1638 182.739 13.4146C182.739 14.6655 182.892 15.561 183.204 16.1115M181.565 9.42508C182.26 8.5331 183.413 8.0871 185.029 8.0871C186.645 8.0871 187.801 8.5331 188.493 9.42508C189.188 10.3171 189.534 11.655 189.534 13.4355C189.534 15.216 189.198 16.5609 188.524 17.4668C187.849 18.3728 186.686 18.8257 185.025 18.8257C183.365 18.8257 182.201 18.3728 181.53 17.4668C180.855 16.5609 180.52 15.2195 180.52 13.4355C180.52 11.6516 180.866 10.3171 181.56 9.42508" fill="white"/>
<path d="M198.735 10.4355C197.146 10.216 195.993 10.1045 195.278 10.1045C194.562 10.1045 194.069 10.1916 193.791 10.3624C193.514 10.5331 193.377 10.8049 193.377 11.1742C193.377 11.5436 193.527 11.8049 193.832 11.9547C194.137 12.108 194.85 12.2822 195.975 12.4808C197.098 12.6794 197.899 12.993 198.372 13.4146C198.844 13.8397 199.08 14.5958 199.08 15.6794C199.08 16.763 198.739 17.561 198.06 18.0662C197.38 18.5749 196.387 18.8293 195.079 18.8293C194.257 18.8293 193.219 18.7143 191.967 18.4809L191.34 18.3763L191.422 16.5053C193.038 16.7247 194.206 16.8363 194.921 16.8363C195.637 16.8363 196.143 16.7457 196.448 16.568C196.753 16.3903 196.904 16.0942 196.904 15.6829C196.904 15.2718 196.756 14.9861 196.469 14.8293C196.178 14.6725 195.486 14.4983 194.387 14.3136C193.288 14.1289 192.483 13.8362 191.97 13.439C191.457 13.0418 191.203 12.3136 191.203 11.2579C191.203 10.2021 191.556 9.41465 192.264 8.89199C192.974 8.37283 193.878 8.11151 194.983 8.11151C195.845 8.11151 196.904 8.223 198.156 8.44251L198.783 8.56446L198.742 10.4355H198.735Z" fill="white"/>
<path d="M98.3359 24.777L96.2133 32.5749H101.51L99.3869 24.777H98.3359ZM93.3203 37.655L97.1616 23.4181H100.558L104.399 37.655H102.862L101.852 33.9931H95.8675L94.8575 37.655H93.3203Z" fill="white"/>
<path d="M106.339 37.6551V27.3693H107.835V28.7665C109.01 27.9443 110.242 27.4041 111.533 27.1428V28.7038C110.968 28.8153 110.376 28.9861 109.763 29.216C109.15 29.4495 108.681 29.6551 108.359 29.8327L107.853 30.101V37.6516H106.336L106.339 37.6551Z" fill="white"/>
<path d="M114.523 30.6829C114.523 31.4913 114.701 32.0662 115.061 32.4112C115.417 32.7527 116.006 32.9269 116.831 32.9269C117.656 32.9269 118.238 32.7562 118.59 32.4112C118.94 32.0697 119.114 31.4878 119.114 30.6725C119.114 29.8572 118.94 29.2753 118.59 28.9338C118.241 28.5925 117.652 28.4181 116.831 28.4181C116.009 28.4181 115.42 28.5925 115.061 28.9444C114.705 29.2963 114.523 29.8747 114.523 30.6829ZM114.383 39.2613C114.383 39.9897 114.581 40.4914 114.979 40.7736C115.376 41.0558 116.112 41.1952 117.183 41.1952C118.255 41.1952 119.022 41.0419 119.487 40.7423C119.953 40.4391 120.186 39.9374 120.186 39.23C120.186 38.5227 120.018 38.0662 119.679 37.8607C119.344 37.6551 118.683 37.5505 117.7 37.5505L115.516 37.4461C115.071 37.7736 114.77 38.0628 114.616 38.3102C114.462 38.5575 114.383 38.8711 114.383 39.2579M117.231 42.4914C115.615 42.4914 114.486 42.2683 113.845 41.8224C113.205 41.3763 112.887 40.5645 112.887 39.3834C112.887 38.8223 113.007 38.366 113.25 38.0141C113.493 37.6655 113.904 37.2719 114.482 36.8327C114.106 36.5715 113.917 36.1012 113.917 35.4147C113.917 35.1813 114.085 34.7492 114.424 34.1185L114.605 33.791C113.541 33.2963 113.01 32.2614 113.01 30.6829C113.01 28.3381 114.27 27.1638 116.79 27.1638C117.437 27.1638 118.036 27.2336 118.587 27.3694L118.892 27.4286L121.884 27.3451V28.6621L119.963 28.6202C120.408 29.0732 120.631 29.7597 120.631 30.676C120.631 31.9652 120.319 32.8677 119.689 33.3834C119.063 33.8955 118.073 34.1533 116.728 34.1533C116.365 34.1533 116.033 34.1255 115.739 34.0697C115.495 34.6725 115.376 35.0663 115.376 35.244C115.376 35.6691 115.506 35.9339 115.759 36.0349C116.016 36.1395 116.79 36.1883 118.084 36.1883C119.378 36.1883 120.306 36.3937 120.874 36.805C121.439 37.2161 121.723 38.0174 121.723 39.2126C121.723 41.3938 120.227 42.4844 117.235 42.4844" fill="white"/>
<path d="M130.045 31.9164C130.045 30.655 129.847 29.7631 129.45 29.2403C129.052 28.7213 128.405 28.4598 127.508 28.4598C126.611 28.4598 125.937 28.7351 125.485 29.2822C125.033 29.8293 124.8 30.7073 124.787 31.9164H130.042H130.045ZM130.593 36.3798L131.178 36.3171L131.219 37.5295C129.682 37.7491 128.368 37.857 127.275 37.857C125.82 37.857 124.79 37.4285 124.184 36.5714C123.578 35.7143 123.273 34.3798 123.273 32.5714C123.273 28.9651 124.68 27.1603 127.498 27.1603C128.857 27.1603 129.877 27.547 130.552 28.324C131.226 29.0976 131.562 30.3171 131.562 31.9756L131.483 33.1498H124.814C124.814 34.2892 125.016 35.1324 125.42 35.6793C125.824 36.23 126.529 36.5017 127.532 36.5017C128.535 36.5017 129.556 36.4633 130.596 36.3798" fill="white"/>
<path d="M135.442 37.6551H133.926V27.3694H135.422V28.0906C136.514 27.4739 137.558 27.1638 138.554 27.1638C139.903 27.1638 140.807 27.5332 141.273 28.2754C141.738 29.0175 141.971 30.3346 141.971 32.2266V37.6586H140.475V32.2683C140.475 30.8398 140.335 29.8641 140.061 29.3346C139.783 28.8084 139.195 28.5436 138.291 28.5436C137.859 28.5436 137.404 28.6098 136.925 28.7388C136.445 28.8677 136.079 28.9965 135.822 29.1186L135.439 29.3032V37.6551H135.442Z" fill="white"/>
<path d="M150.016 28.7075H146.802V33.6238C146.802 34.805 146.885 35.5784 147.056 35.9478C147.224 36.3172 147.624 36.5018 148.257 36.5018L150.059 36.3799L150.158 37.6551C149.253 37.8049 148.568 37.8816 148.097 37.8816C147.046 37.8816 146.32 37.6203 145.915 37.1011C145.511 36.5785 145.309 35.5855 145.309 34.1186V28.7075H143.875V27.3694H145.309V24.2231H146.806V27.3694H150.021V28.7075H150.016Z" fill="white"/>
<path d="M152.316 27.5364H153.833V37.8222H152.316V27.5364ZM152.316 23.4214H153.833V25.2124H152.316V23.4214Z" fill="white"/>
<path d="M157.818 37.6551H156.301V27.3694H157.797V28.0906C158.889 27.4739 159.933 27.1638 160.93 27.1638C162.277 27.1638 163.183 27.5332 163.648 28.2754C164.112 29.0175 164.346 30.3346 164.346 32.2266V37.6586H162.85V32.2683C162.85 30.8398 162.712 29.8641 162.435 29.3346C162.158 28.8084 161.569 28.5436 160.666 28.5436C160.234 28.5436 159.78 28.6098 159.299 28.7388C158.82 28.8677 158.454 28.9965 158.197 29.1186L157.813 29.3032V37.6551H157.818Z" fill="white"/>
<path d="M168.065 34.6725C168.065 35.9339 168.578 36.5646 169.603 36.5646C170.519 36.5646 171.42 36.4077 172.311 36.0906L172.776 35.927V32.5331L169.784 32.8223C169.178 32.8781 168.74 33.0559 168.468 33.3555C168.198 33.6551 168.065 34.0976 168.065 34.6725ZM174.292 30.4775V35.7457C174.334 36.2544 174.724 36.5541 175.463 36.6517L175.401 37.8643C174.337 37.8643 173.536 37.5889 172.998 37.0419C171.787 37.5924 170.571 37.8643 169.359 37.8643C168.428 37.8643 167.722 37.5959 167.236 37.0628C166.75 36.5297 166.508 35.7597 166.508 34.7596C166.508 33.7597 166.757 33.0209 167.254 32.5471C167.753 32.0768 168.534 31.7841 169.598 31.6726L172.772 31.3624V30.4775C172.772 29.777 172.625 29.2788 172.327 28.9757C172.029 28.6725 171.626 28.5227 171.115 28.5227C170.036 28.5227 168.918 28.5925 167.76 28.7283L167.134 28.791L167.073 27.6168C168.555 27.3172 169.87 27.1638 171.013 27.1638C172.156 27.1638 172.988 27.4322 173.508 27.9652C174.029 28.4983 174.286 29.338 174.286 30.4739" fill="white"/>
<path d="M71.3569 23.2895C69.878 24.5091 67.5945 25.6763 64.7495 26.6693C58.8953 28.7076 51.1991 29.8958 42.9073 30.0527L52.2159 11.5892C56.8959 12.1572 61.1685 13.0875 64.753 14.3349C67.598 15.3244 69.8815 16.4951 71.3604 17.7112C72.182 18.3872 73.1578 19.4185 73.1578 20.4986C73.1578 21.5787 72.1787 22.6101 71.3604 23.286M17.2546 26.6659C14.4097 25.6729 12.1262 24.5055 10.6472 23.286C9.82558 22.6101 8.84987 21.5787 8.84987 20.4986C8.84987 19.4185 9.82899 18.3872 10.6472 17.7112C12.1262 16.4916 14.4097 15.3244 17.2546 14.3349C21.5512 12.8366 26.8441 11.7983 32.6366 11.2896V29.7112C26.8441 29.2024 21.5512 28.1642 17.2546 26.6659ZM53.8524 8.33487L57.4334 1.23382C57.7279 0.596188 57.1937 -0.111129 56.5124 0.0177911C51.7949 0.913262 46.5054 1.56831 41.0004 1.56831C38.4635 1.56831 35.9712 1.26866 33.561 1.0387C33.0647 0.989916 32.6333 1.39061 32.6333 1.89584V7.87145C14.0023 9.35925 0 15.7321 0 23.3697C0 31.0074 14.0023 37.3766 32.6366 38.868V45.9062C32.6366 46.509 33.1159 46.9969 33.7082 46.9969C34.1123 46.9969 34.4785 46.7669 34.6634 46.4046L38.3128 39.1641C39.2031 39.1851 40.0965 39.1989 41.0038 39.1989C63.6472 39.1989 82.0042 32.1119 82.0042 23.3697C82.0042 16.3593 70.2032 10.415 53.8558 8.33487" fill="white"/>
</g>
</g>
<defs>
<clipPath id="clip0_1359_27916">
<rect width="200" height="47" fill="white"/>
</clipPath>
</defs>
</svg>
