<svg width="200" height="80" viewBox="0 0 200 80" fill="none" xmlns="http://www.w3.org/2000/svg">
<g clip-path="url(#clip0_1381_44276)">
<path fill-rule="evenodd" clip-rule="evenodd" d="M131.448 54.7034L138.299 18.5356L138.302 18.5324C138.39 18.0711 138.611 17.6969 138.966 17.4066C139.321 17.1195 139.67 16.9453 140.015 16.8872C140.403 16.9421 140.722 17.1163 140.966 17.4066C141.214 17.6937 141.292 18.0711 141.204 18.5324L134.354 54.7001C134.276 55.1066 134.067 55.4227 133.722 55.655C133.377 55.8872 132.966 56.0292 132.488 56.0872C132.175 55.9743 131.905 55.8163 131.676 55.613C131.448 55.4098 131.374 55.1098 131.448 54.7034ZM15.0934 33.684C23.012 13.8324 34.7807 4.31948 54.0022 1.44207V1.43884C63.411 0.0321307 74.9729 0.269597 85.6667 0.489238C89.4413 0.56676 93.1078 0.642067 96.5332 0.642067L96.4713 0.925938C76.1065 5.84852 61.1814 17.9421 44.2302 48.8066C43.499 50.1385 42.7218 51.7559 41.8908 53.4843C39.6087 58.2327 36.9224 63.8217 33.6798 66.6453C24.595 74.555 6.97288 74.0292 1.48428 61.1034C-0.261651 56.9969 -0.701392 52.7776 1.4745 48.7324C6.21718 39.9098 20.8296 44.4646 18.9989 52.8485C18.2856 56.113 14.5299 58.7485 9.56572 60.813C16.1814 63.6098 21.4647 63.2743 26.1748 60.7872C31.9305 57.7517 35.0055 51.4969 32.3214 43.813C30.1879 37.7034 23.012 35.2195 15.0934 33.684ZM117.276 7.39368C117.504 7.59368 117.576 7.92593 117.488 8.39045L108.931 53.5775C108.852 53.984 108.644 54.3001 108.299 54.5324C107.957 54.7614 107.572 54.9356 107.149 55.0517C106.839 54.9356 106.572 54.7646 106.348 54.5324C106.126 54.3001 106.051 53.984 106.126 53.5775L114.683 8.39045C114.771 7.92916 114.983 7.5969 115.321 7.39368C115.66 7.19045 116.002 7.06142 116.348 7.00335C116.738 7.06142 117.048 7.19368 117.276 7.39368ZM122.119 0.322712H114.106H113.103C111.501 0.322712 109.908 0.887228 108.331 2.01303C106.748 3.14207 105.696 4.3711 105.178 5.70013C105.08 5.87432 105.015 6.03239 104.989 6.17755C104.972 6.26313 104.957 6.34313 104.943 6.41816C104.933 6.47039 104.924 6.52023 104.914 6.56787L95.6667 55.3969C95.6114 55.684 95.569 55.9905 95.5429 56.3066C95.5169 56.6259 95.5429 56.9292 95.6211 57.2163C95.7579 58.2582 96.2758 59.213 97.1814 60.0808C98.0869 60.9485 99.5332 61.4098 101.527 61.4679H109.641L110.657 61.3808C112.66 61.3808 114.279 60.9485 115.51 60.0808C116.742 59.2098 117.624 58.2582 118.155 57.2163C118.344 56.9292 118.484 56.6259 118.579 56.3066C118.673 55.9905 118.745 55.6872 118.8 55.3969L128.048 6.56787C128.071 6.45174 128.093 6.32271 128.123 6.17755C128.152 6.03239 128.146 5.87432 128.113 5.70013C128.1 4.3711 127.514 3.13884 126.357 2.01303C125.201 0.884002 123.787 0.322712 122.119 0.322712ZM161.266 39.0034L158.292 54.7034L158.289 54.7066C158.224 55.0517 158.015 55.355 157.667 55.6163C157.318 55.8743 156.905 56.0324 156.426 56.0905C156.113 55.9776 155.83 55.8034 155.572 55.5711C155.315 55.3388 155.22 55.0485 155.286 54.7034L158.26 39.0034C158.338 38.5969 158.546 38.2808 158.891 38.0485C159.237 37.8163 159.615 37.6743 160.025 37.6163C160.416 37.6711 160.738 37.8163 160.996 38.0485C161.253 38.2808 161.344 38.5969 161.266 39.0034ZM150.777 36.7453C150.247 37.7872 149.804 39.2356 149.455 41.084H149.458L146.273 57.9098C146.064 59.0066 146.263 59.8905 146.872 60.555C147.481 61.2195 148.549 61.5808 150.074 61.6388L151.09 61.5517C151.823 61.5517 152.693 61.4646 153.693 61.2905C154.693 61.1195 155.862 60.8582 157.194 60.5098L157.048 61.2905H165.361L173.852 16.4485C174.172 14.7711 173.478 13.5001 171.771 12.6324C170.064 11.7646 168.08 11.3034 165.823 11.2453H164.52C162.181 11.2453 159.947 11.6808 157.813 12.5485C155.68 13.4163 154.448 14.7163 154.119 16.4517L151.82 28.5937H160.234L162.204 18.184C162.282 17.7775 162.491 17.4614 162.836 17.2292C163.181 17.0001 163.559 16.855 163.97 16.7969C164.361 16.855 164.683 16.9969 164.94 17.2292C165.198 17.4614 165.286 17.7775 165.211 18.184L162.862 30.5872C160.807 31.2259 159.077 31.8034 157.676 32.3227C156.276 32.8421 155.097 33.3324 154.142 33.7969C152.429 34.7227 151.308 35.7066 150.777 36.7453ZM168.781 55.9163H169.781V55.9098H170.08C170.136 55.9679 170.181 55.9969 170.214 55.9969H170.263C170.82 55.8808 171.253 55.6227 171.562 55.2163C171.872 54.813 172.133 54.0582 172.341 52.9614L180.142 11.7614H199.872L190.494 61.2872H182.08L190.442 17.1388H187.536L180.54 54.0872C180.103 56.4001 179.123 58.2227 177.602 59.5517C176.084 60.884 174.119 61.5485 171.716 61.5485L170.699 61.6356C170.377 61.5808 170.051 61.5356 169.722 61.5066C169.393 61.4776 169.067 61.4356 168.745 61.3776C168.611 61.3776 168.465 61.3646 168.302 61.3356C168.142 61.3066 167.963 61.2937 167.761 61.2937L168.781 55.9163ZM140.172 60.2098C141.308 59.313 142.015 58.1421 142.289 56.6969V56.7001L150.025 15.8485C150.308 14.3421 150.168 13.2453 149.598 12.5517C149.028 11.8582 148.041 11.5098 146.641 11.5098H145.641C144.908 11.5098 144.019 11.6098 142.979 11.813C141.94 12.013 140.748 12.3163 139.403 12.7227L139.582 11.7679H131.067L118.181 79.813H126.693L130.348 60.513C131.139 60.9195 131.921 61.1937 132.696 61.3388C133.471 61.484 134.185 61.584 134.843 61.6421L135.859 61.555C137.595 61.555 139.035 61.1066 140.172 60.2098ZM44.9371 71.1034C82.7185 69.4511 84.3322 61.3169 92.0729 22.2964V22.2959C93.2635 16.2942 94.599 9.56174 96.2335 2.00981C75.3215 9.63561 62.9338 27.613 44.9371 71.1034ZM136.595 71.9614H136.591L135.585 69.5937L137.53 67.2905H136.852L135.334 69.1195L134.576 67.2905H133.859L134.852 69.6227L132.878 71.9614H133.556L135.1 70.1034L135.878 71.9614H136.591L136.592 71.9646L136.595 71.9614ZM137.572 71.9614L140.1 67.2905H140.875L141.53 71.9614H140.865L140.699 70.6614H138.891L138.204 71.9614H137.572ZM140.631 70.1227L140.344 67.9292L139.181 70.1227H140.631ZM146.403 71.9614H145.774L146.598 67.8421H145.002C144.95 68.0776 144.895 68.3098 144.839 68.5324C144.784 68.7582 144.735 68.9582 144.693 69.1356C144.589 69.5776 144.488 69.9421 144.393 70.2292C144.299 70.5195 144.204 70.7614 144.103 70.955C144.009 71.1453 143.911 71.3001 143.81 71.4163C143.709 71.5324 143.605 71.6324 143.501 71.7098C143.39 71.7937 143.276 71.8582 143.159 71.9034C143.041 71.9453 142.911 71.9679 142.768 71.9679C142.722 71.9679 142.68 71.9679 142.634 71.9646C142.589 71.9614 142.553 71.9582 142.53 71.9582L142.65 71.3582H142.696C142.719 71.3582 142.735 71.3582 142.748 71.3614H142.813C142.888 71.3614 142.963 71.3517 143.035 71.3292C143.103 71.3066 143.168 71.2711 143.224 71.2227C143.396 71.084 143.553 70.8324 143.69 70.4743C143.83 70.1163 143.973 69.6356 144.123 69.0292C144.175 68.8259 144.24 68.555 144.318 68.2163C144.335 68.1434 144.352 68.0721 144.368 68.0017L144.395 67.8846C144.444 67.6743 144.49 67.475 144.533 67.2872H147.341L146.406 71.9582L146.403 71.9614ZM151.745 70.513C151.699 70.7388 151.615 70.9453 151.488 71.1259C151.364 71.3098 151.214 71.4614 151.038 71.5776C150.833 71.713 150.624 71.813 150.409 71.8711C150.194 71.9292 149.927 71.9582 149.605 71.9582H148.341L149.279 67.2872H149.908L149.54 69.1195H150.194C150.514 69.1195 150.771 69.1388 150.966 69.1743C151.162 69.2098 151.334 69.3001 151.484 69.4356C151.621 69.5582 151.709 69.713 151.748 69.8937C151.787 70.0776 151.784 70.2808 151.738 70.513H151.745ZM151.087 70.5227C151.119 70.3679 151.119 70.2324 151.09 70.113C151.064 69.9937 150.999 69.9001 150.905 69.8259C150.804 69.7485 150.68 69.7034 150.53 69.6872C150.38 69.6711 150.168 69.6614 149.895 69.6614H149.435L149.084 71.4227H149.527C149.807 71.4227 150.025 71.4098 150.181 71.384C150.338 71.3582 150.481 71.3034 150.608 71.2292C150.742 71.1485 150.849 71.0517 150.924 70.9421C150.999 70.8356 151.054 70.6937 151.09 70.5259L151.087 70.5227ZM152.504 71.9614H151.875L152.813 67.2905H153.442L152.504 71.9614ZM157.738 73.0227H157.142L157.354 71.9614H157.133L155.895 69.8227H155.504L155.074 71.9614H154.445L155.383 67.2905H156.012L155.589 69.3969C156.035 69.3808 156.396 69.155 156.663 68.7163C156.715 68.6337 156.801 68.4756 156.929 68.2421L156.934 68.2324C157.119 67.8905 157.325 67.6485 157.546 67.5034C157.768 67.3582 158.064 67.2872 158.426 67.2872H158.621L158.51 67.8388H158.351C158.09 67.8388 157.891 67.8969 157.751 68.013C157.644 68.1001 157.52 68.2808 157.38 68.555C157.162 68.9808 156.872 69.2969 156.51 69.5034L157.611 71.4066H158.061L157.738 73.0195V73.0227ZM159.035 71.9614L161.562 67.2905H162.338L162.992 71.9614H162.328L162.162 70.6614H160.354L159.667 71.9614H159.035ZM162.093 70.1227L161.807 67.9292L160.644 70.1227H162.093ZM168.051 68.6969C168.009 68.9001 167.934 69.0905 167.826 69.2743C167.716 69.455 167.585 69.6098 167.432 69.7356C167.237 69.8937 167.022 70.0163 166.787 70.0969C166.553 70.1776 166.266 70.2195 165.934 70.2195H165.403L165.054 71.9614H164.426L165.364 67.2905H166.546C166.826 67.2905 167.058 67.313 167.243 67.3582C167.429 67.4034 167.589 67.4776 167.719 67.5808C167.869 67.7001 167.976 67.8517 168.038 68.0356C168.1 68.2195 168.106 68.4388 168.054 68.6969H168.051ZM167.393 68.713C167.426 68.555 167.426 68.413 167.393 68.2969C167.361 68.1776 167.295 68.0808 167.198 68.0066C167.11 67.9421 167.005 67.8969 166.882 67.8711C166.755 67.8453 166.595 67.8292 166.4 67.8292H165.885L165.514 69.6808H165.937C166.188 69.6808 166.396 69.6614 166.559 69.6195C166.722 69.5808 166.865 69.5066 166.989 69.4034C167.1 69.3098 167.188 69.2098 167.253 69.0969C167.318 68.9872 167.364 68.8582 167.393 68.713ZM168.478 71.9614L171.005 67.2905H171.781L172.435 71.9614H171.771L171.605 70.6614H169.797L169.113 71.9614H168.478ZM171.536 70.1227L171.25 67.9292L170.087 70.1227H171.536ZM177.308 71.9614H176.68L177.504 67.8421H175.908C175.856 68.0776 175.8 68.3098 175.745 68.5324C175.69 68.7582 175.641 68.9582 175.598 69.1356C175.494 69.5776 175.393 69.9421 175.299 70.2292C175.204 70.5195 175.106 70.7614 175.009 70.955C174.911 71.1453 174.817 71.3001 174.716 71.4163C174.615 71.5324 174.51 71.6324 174.406 71.7098C174.295 71.7937 174.181 71.8582 174.064 71.9034C173.947 71.9453 173.817 71.9679 173.673 71.9679C173.628 71.9679 173.585 71.9679 173.54 71.9646L173.508 71.9624C173.477 71.9601 173.453 71.9582 173.435 71.9582L173.556 71.3582H173.602C173.624 71.3582 173.641 71.3582 173.654 71.3614H173.719C173.794 71.3614 173.869 71.3517 173.94 71.3292C174.009 71.3066 174.074 71.2711 174.129 71.2227C174.302 71.084 174.458 70.8324 174.595 70.4743C174.735 70.1163 174.878 69.6356 175.028 69.0292C175.08 68.8259 175.146 68.555 175.224 68.2163C175.302 67.8808 175.374 67.5711 175.439 67.2872H178.25L177.312 71.9582L177.308 71.9614ZM182.65 70.513C182.605 70.7388 182.52 70.9453 182.393 71.1259C182.269 71.3098 182.119 71.4614 181.944 71.5776C181.738 71.713 181.53 71.813 181.315 71.8711C181.1 71.9292 180.833 71.9582 180.51 71.9582H179.247L180.185 67.2872H180.813L180.445 69.1195H181.1C181.419 69.1195 181.68 69.1388 181.872 69.1743C182.067 69.2098 182.24 69.3001 182.393 69.4356C182.53 69.5582 182.618 69.713 182.657 69.8937C182.696 70.0776 182.693 70.2808 182.647 70.513H182.65ZM181.992 70.5227C182.025 70.3679 182.025 70.2324 181.996 70.113C181.97 69.9937 181.904 69.9001 181.81 69.8259C181.709 69.7485 181.585 69.7034 181.435 69.6872C181.286 69.6711 181.074 69.6614 180.8 69.6614H180.341L179.989 71.4227H180.432C180.712 71.4227 180.931 71.4098 181.087 71.384C181.243 71.3582 181.387 71.3034 181.514 71.2292C181.647 71.1485 181.755 71.0517 181.83 70.9421C181.904 70.8356 181.96 70.6937 181.992 70.5259V70.5227ZM183.413 71.9614H182.784L183.722 67.2905H184.351L183.413 71.9614ZM188.647 73.0227H188.051L188.263 71.9614H188.041L186.804 69.8227H186.413L185.983 71.9614H185.354L186.292 67.2905H186.921L186.497 69.3969C186.944 69.3808 187.305 69.155 187.572 68.7163C187.621 68.6324 187.712 68.4711 187.843 68.2324C188.028 67.8905 188.233 67.6485 188.455 67.5034C188.676 67.3582 188.973 67.2872 189.334 67.2872H189.53L189.419 67.8388H189.263C189.002 67.8388 188.804 67.8969 188.663 68.013C188.556 68.1001 188.432 68.2808 188.292 68.555C188.074 68.9808 187.784 69.2969 187.422 69.5034L188.523 71.4066H188.973L188.65 73.0195L188.647 73.0227ZM136.152 77.384C135.996 78.155 135.69 78.7517 135.227 79.1776C134.764 79.6034 134.214 79.8163 133.576 79.8163C132.937 79.8163 132.468 79.6034 132.178 79.1808C132.038 78.9711 131.95 78.7163 131.914 78.413C131.878 78.1098 131.927 77.613 132.067 76.9227H135.562C135.589 76.5292 135.533 76.213 135.393 75.9743C135.299 75.813 135.175 75.6872 135.015 75.6098C134.859 75.5324 134.667 75.4905 134.435 75.4905C133.914 75.4905 133.445 75.6421 133.028 75.9453H132.979L133.116 75.2517C133.305 75.1711 133.53 75.1034 133.784 75.0453C134.074 74.9808 134.328 74.9485 134.543 74.9485C135.188 74.9485 135.654 75.1582 135.94 75.5808C136.233 76.0098 136.302 76.6098 136.149 77.3808L136.152 77.384ZM135.478 77.484H132.608C132.52 77.9872 132.549 78.3969 132.699 78.713C132.875 79.0905 133.204 79.2743 133.686 79.2743C134.168 79.2743 134.572 79.0872 134.898 78.713C135.172 78.4001 135.364 77.9905 135.478 77.484ZM141.582 75.0485L139.087 78.9808C138.979 79.1485 138.875 79.2776 138.764 79.3776C138.654 79.4776 138.546 79.555 138.439 79.6034C138.331 79.655 138.227 79.6905 138.133 79.7066C138.035 79.7227 137.94 79.7324 137.846 79.7324C137.761 79.7324 137.663 79.7324 137.549 79.7259C137.435 79.7227 137.364 79.7195 137.331 79.7163L137.445 79.1421H137.488C137.5 79.1421 137.514 79.143 137.53 79.1443C137.557 79.1469 137.59 79.1508 137.631 79.155C137.696 79.1582 137.777 79.1614 137.875 79.1614C137.921 79.1614 137.976 79.1614 138.041 79.155C138.106 79.1485 138.168 79.1324 138.224 79.1098C138.292 79.0808 138.357 79.0421 138.422 78.9937C138.484 78.9453 138.553 78.8679 138.618 78.7614L138.774 78.5163L137.81 75.0485H138.507L139.237 77.8001L140.944 75.0485H141.579H141.582ZM143.012 75.0485H145.963L145.852 75.6001H143.53L143.273 76.8808H145.439L145.328 77.4324H143.162L142.813 79.1679H145.136L145.025 79.7195H142.074L143.012 75.0485ZM152.061 79.7195H152.051L150.745 77.2776C150.895 77.1937 151.041 77.0808 151.181 76.9453C151.325 76.8066 151.465 76.5969 151.611 76.3195C151.748 76.0517 151.875 75.8679 151.996 75.7614C152.113 75.6582 152.308 75.6034 152.579 75.6034H152.706L152.817 75.0517H152.654C152.305 75.0517 152.019 75.1195 151.797 75.2517C151.572 75.3872 151.364 75.6324 151.165 75.9905C151.152 76.0137 151.139 76.0392 151.124 76.0669C151.102 76.1092 151.077 76.1559 151.048 76.2066C151.002 76.2937 150.95 76.3808 150.891 76.4743C150.748 76.7098 150.602 76.8808 150.448 76.9808C150.295 77.084 150.123 77.1421 149.924 77.1614L150.348 75.0517H149.725L149.302 77.1614C149.123 77.1421 148.979 77.0808 148.872 76.9743C148.761 76.8646 148.683 76.6969 148.637 76.4743C148.624 76.4195 148.611 76.3485 148.598 76.2614C148.589 76.2008 148.58 76.1382 148.571 76.0743C148.567 76.0469 148.563 76.0188 148.559 75.9905C148.504 75.6324 148.393 75.384 148.227 75.2517C148.061 75.1195 147.804 75.0517 147.448 75.0517H147.289L147.178 75.6034H147.305C147.576 75.6034 147.748 75.655 147.823 75.7582C147.901 75.8614 147.953 76.0453 147.983 76.3163C148.019 76.6227 148.074 76.8453 148.149 76.9776C148.224 77.1098 148.321 77.2195 148.442 77.3066L146.178 79.7195H146.911L148.914 77.5679H149.224L148.791 79.7195H149.413L149.846 77.5679H150.149L151.292 79.7195H152.051L152.054 79.7259L152.061 79.7195ZM155.504 75.0485H156.279L156.934 79.7195H156.269L156.103 78.4227H154.295L153.611 79.7195H152.976L155.504 75.0485ZM156.035 77.8808L155.748 75.6872L154.585 77.8808H156.035ZM161.751 79.7195H161.126L161.869 76.0098L159.005 79.7195H158.367L159.305 75.0485H159.934L159.201 78.6969L162.022 75.0485H162.69L161.751 79.7195ZM162.51 73.6485C162.439 73.9614 162.289 74.2163 162.058 74.4066C161.826 74.5969 161.517 74.6937 161.129 74.6937C160.742 74.6937 160.471 74.5969 160.315 74.4066C160.162 74.213 160.113 73.9614 160.165 73.6485H160.729C160.686 73.884 160.706 74.0517 160.784 74.155C160.865 74.2582 161.002 74.3098 161.201 74.3098C161.4 74.3098 161.562 74.2582 161.683 74.155C161.804 74.0517 161.888 73.884 161.944 73.6485H162.507H162.51ZM167.1 78.2743C167.054 78.5001 166.97 78.7066 166.843 78.8905C166.719 79.0743 166.569 79.2259 166.393 79.3388C166.188 79.4776 165.979 79.5743 165.764 79.6324C165.549 79.6905 165.282 79.7195 164.96 79.7195H163.696L164.634 75.0485H165.263L164.895 76.8808H165.549C165.869 76.8808 166.129 76.9001 166.321 76.9356C166.517 76.9711 166.69 77.0614 166.839 77.2001C166.976 77.3227 167.064 77.4776 167.103 77.6582C167.142 77.8388 167.139 78.0453 167.093 78.2743H167.1ZM166.442 78.284C166.475 78.1292 166.475 77.9905 166.448 77.8743C166.419 77.755 166.357 77.6582 166.263 77.5872C166.162 77.5098 166.038 77.4646 165.888 77.4485C165.738 77.4324 165.527 77.4227 165.253 77.4227H164.794L164.442 79.184H164.885C165.165 79.184 165.383 79.1679 165.54 79.1421C165.696 79.1163 165.836 79.0614 165.966 78.9872C166.1 78.9066 166.207 78.8098 166.282 78.7001C166.357 78.5905 166.413 78.4517 166.445 78.284H166.442ZM167.862 79.7195H167.233L168.172 75.0485H168.8L167.862 79.7195Z" fill="white"/>
</g>
<defs>
<clipPath id="clip0_1381_44276">
<rect width="200" height="80" fill="white"/>
</clipPath>
</defs>
</svg>
