<svg width="200" height="94" viewBox="0 0 200 94" fill="none" xmlns="http://www.w3.org/2000/svg">
<path d="M92.9178 11.9465C96.3449 11.8029 99.0135 9.07038 98.8782 5.84323C98.7429 2.61608 95.855 0.116381 92.4279 0.259991C89.0009 0.403601 86.3323 3.13614 86.4676 6.36329C86.6029 9.59044 89.4908 12.0901 92.9178 11.9465Z" fill="white"/>
<path d="M89.6111 14.6805C89.6391 14.6493 89.6735 14.6245 89.712 14.6079C89.7505 14.5912 89.7922 14.5831 89.8341 14.5841C89.876 14.585 89.9173 14.595 89.955 14.6134C89.9927 14.6318 90.0259 14.6581 90.0525 14.6905C90.2131 14.8844 90.2933 15.0483 90.2933 15.182C90.3402 36.5961 90.3669 47.6442 90.3736 48.3263C90.3758 48.4627 90.3459 48.5976 90.2865 48.7203C90.2271 48.8431 90.1398 48.9502 90.0315 49.0331C89.9232 49.116 89.797 49.1724 89.663 49.1977C89.529 49.223 89.391 49.2166 89.2599 49.179L84.6947 47.8849C84.4214 47.8077 84.1854 47.6339 84.0304 47.396C83.8754 47.1581 83.812 46.872 83.8518 46.5909C84.4037 42.6585 82.3468 38.4653 77.5408 40.3512C75.5475 41.1337 73.9354 42.1469 72.7046 43.3908C72.4401 43.6576 72.1096 43.8487 71.7477 43.944C71.3858 44.0393 71.0059 44.0353 70.6478 43.9325L66.0825 42.6284C65.9501 42.5921 65.8292 42.5224 65.7315 42.4261C65.6337 42.3297 65.5622 42.2099 65.524 42.078C65.4857 41.9462 65.4819 41.8067 65.513 41.673C65.544 41.5393 65.6088 41.4158 65.7013 41.3143L89.6111 14.6805Z" fill="white"/>
<path d="M102.333 50.7938C102.355 50.8663 102.359 50.9434 102.344 51.0178C102.329 51.0922 102.296 51.1617 102.247 51.2197C102.198 51.2777 102.135 51.3224 102.064 51.3497C101.993 51.3769 101.916 51.3859 101.841 51.3757L96.393 50.6735C96.0044 50.6245 95.6471 50.4343 95.3884 50.1387C95.1297 49.8431 94.9874 49.4624 94.9883 49.0684V14.9511C94.9879 14.867 95.0133 14.7849 95.0611 14.7158C95.1088 14.6467 95.1765 14.5938 95.2552 14.5643C95.3339 14.5348 95.4197 14.5301 95.5011 14.5508C95.5826 14.5715 95.6557 14.6167 95.7107 14.6802C109.089 29.6941 120.828 42.8121 130.928 54.034C131.062 54.1812 131.116 54.325 131.089 54.4654C131.042 54.7062 130.885 54.8198 130.617 54.8065C125.126 54.4587 121.674 54.2146 120.263 54.0742C119.985 54.0466 119.721 53.9429 119.499 53.7746C119.278 53.6063 119.108 53.3801 119.008 53.1212C117.41 49.0149 114.985 45.5373 111.734 42.6883C109.577 40.7924 104.972 38.7158 102.684 41.1334C100.607 43.3404 101.339 47.674 102.333 50.7938Z" fill="white"/>
<path d="M155.13 57.6857C148.949 58.0134 142.357 58.0167 135.354 57.6957C135.275 57.6927 135.197 57.7075 135.125 57.7391C135.053 57.7707 134.989 57.8182 134.938 57.878C134.886 57.9378 134.85 58.0085 134.83 58.0846C134.81 58.1608 134.807 58.2404 134.822 58.3177C134.856 58.4915 135.09 58.8059 135.525 59.2606C135.604 59.3458 135.658 59.4523 135.678 59.5672C135.698 59.6821 135.685 59.8004 135.639 59.9077C135.593 60.0151 135.517 60.1068 135.421 60.1718C135.324 60.2368 135.21 60.2722 135.093 60.2738H120.625C120.547 60.2733 120.47 60.255 120.4 60.2202C120.33 60.1855 120.269 60.1352 120.222 60.0732C120.174 60.0113 120.142 59.9393 120.126 59.8628C120.111 59.7862 120.113 59.7072 120.133 59.6318C120.548 58.1404 120.401 57.2576 119.692 56.9835C119.625 56.9568 119.554 56.9366 119.481 56.9233L105.334 55.1076C105.237 55.0943 105.138 55.1105 105.05 55.1539C104.962 55.1974 104.889 55.2661 104.84 55.3513C104.792 55.4365 104.77 55.5343 104.777 55.6321C104.785 55.7299 104.821 55.8232 104.882 55.9L107.782 59.5114C107.837 59.581 107.871 59.6645 107.88 59.7525C107.889 59.8404 107.874 59.9292 107.835 60.0087C107.796 60.0882 107.736 60.1552 107.661 60.2021C107.586 60.249 107.499 60.2738 107.411 60.2738H95.6114C95.4411 60.2738 95.2778 60.2062 95.1574 60.0858C95.0369 59.9654 94.9693 59.8021 94.9693 59.6318V54.1746C94.9696 53.8672 94.8588 53.5702 94.6575 53.3394C94.4562 53.1086 94.1782 52.9597 93.8756 52.9207L91.1164 52.5696C91.023 52.5567 90.928 52.5639 90.8376 52.5908C90.7472 52.6176 90.6636 52.6634 90.5924 52.7251C90.5212 52.7869 90.4639 52.8631 90.4245 52.9487C90.3851 53.0343 90.3645 53.1274 90.3639 53.2216V59.5415C90.3639 59.7304 90.2889 59.9116 90.1553 60.0451C90.0217 60.1787 89.8405 60.2537 89.6515 60.2537H77.9324C77.855 60.2528 77.7795 60.2294 77.7151 60.1865C77.6506 60.1436 77.6 60.0829 77.5692 60.0119C77.5385 59.9409 77.5289 59.8624 77.5417 59.7861C77.5546 59.7097 77.5892 59.6387 77.6415 59.5816C79.8288 57.2409 81.5211 54.5926 82.7184 51.6366C82.7658 51.5176 82.7879 51.3901 82.7832 51.2623C82.7786 51.1345 82.7474 51.0093 82.6915 50.8948C82.6357 50.7803 82.5565 50.6791 82.4592 50.5978C82.3618 50.5165 82.2484 50.4569 82.1264 50.4228L70.1063 47.002C69.9706 46.9636 69.8268 46.967 69.6941 47.0119C69.5614 47.0567 69.4462 47.1408 69.3638 47.2528C66.5611 51.105 65.0896 55.3115 64.9491 59.8725C64.9465 59.9746 64.903 60.0716 64.8281 60.1428C64.7531 60.214 64.6525 60.2538 64.5478 60.2537H49.5377C49.4762 60.2535 49.4161 60.2355 49.3645 60.2021C49.3129 60.1687 49.272 60.1211 49.2466 60.0652C49.2213 60.0092 49.2125 59.9471 49.2214 59.8862C49.2303 59.8254 49.2565 59.7685 49.2969 59.7221L62.1999 45.3468C62.2645 45.2768 62.3108 45.192 62.335 45.0998C62.3592 45.0076 62.3605 44.9106 62.3388 44.817C62.3171 44.7235 62.2731 44.6362 62.2105 44.5625C62.1479 44.4888 62.0686 44.431 61.9792 44.3938L44.3102 37.4219C44.2704 37.4064 44.2341 37.3832 44.2034 37.3535C44.1727 37.3239 44.1482 37.2884 44.1314 37.2492C44.1146 37.2099 44.1058 37.1677 44.1055 37.125C44.1052 37.0824 44.1134 37.0401 44.1296 37.0006L44.3102 36.5291C44.3396 36.4532 44.3841 36.384 44.4411 36.3256C44.4981 36.2672 44.5664 36.2208 44.6421 36.189C44.7178 36.1572 44.7993 36.1408 44.8819 36.1406C44.9644 36.1405 45.0464 36.1566 45.1229 36.188C76.1364 49.4297 108.625 56.5521 142.237 56.7427C142.325 56.7436 142.411 56.719 142.484 56.672C142.558 56.6249 142.617 56.5574 142.653 56.4777C142.689 56.398 142.701 56.3094 142.688 56.2229C142.675 56.1364 142.637 56.0556 142.578 55.9903C141.414 54.7063 140.541 53.0009 139.959 50.8742C139.94 50.7945 139.948 50.7105 139.981 50.6356C140.014 50.5606 140.072 50.4987 140.144 50.4598C140.216 50.4208 140.299 50.4068 140.38 50.4201C140.461 50.4334 140.536 50.4731 140.592 50.5332C144.357 54.7999 149.204 57.1841 155.13 57.6857Z" fill="white"/>
<path d="M34.8277 67.1455C34.6003 66.2293 34.0083 65.3966 33.0518 64.6476C32.894 64.5246 32.709 64.439 32.5137 64.3985C32.3184 64.358 32.119 64.364 31.9335 64.4158C31.748 64.4676 31.5824 64.5637 31.4518 64.6953C31.3212 64.8269 31.2297 64.9898 31.1856 65.1693C31.0183 65.8113 30.821 66.2025 30.5936 66.3429C30.4115 66.4562 30.2132 66.4852 30.0288 66.4255C29.8444 66.3658 29.6839 66.2207 29.5716 66.012C29.4593 65.8034 29.4014 65.5427 29.4066 65.2693C29.4117 64.996 29.4797 64.7249 29.6003 64.4971C31.4364 60.9861 35.2792 64.126 35.2592 67.0953C35.2558 67.1469 35.2345 67.1957 35.1989 67.2331C35.1633 67.2706 35.1157 67.2944 35.0644 67.3004C35.013 67.3063 34.9612 67.2941 34.918 67.2658C34.8747 67.2375 34.8428 67.1949 34.8277 67.1455Z" fill="white"/>
<path d="M67.0368 66.9147C65.6656 65.6374 63.9198 64.9418 61.7994 64.8282C61.5674 64.8163 61.3366 64.8692 61.1329 64.9807C60.9292 65.0923 60.7604 65.2583 60.6455 65.4602L59.9532 66.6539C59.885 66.7739 59.8494 66.9097 59.8499 67.0477C59.8503 67.1857 59.8868 67.3213 59.9557 67.4409C60.0247 67.5604 60.1236 67.66 60.2429 67.7296C60.3621 67.7992 60.4974 67.8364 60.6355 67.8376H125.693C125.852 67.8365 126.007 67.8896 126.132 67.9883C126.257 68.0869 126.345 68.2252 126.382 68.3804C126.418 68.5356 126.4 68.6985 126.331 68.8424C126.263 68.9862 126.147 69.1024 126.004 69.1718L125.382 69.4728C125.189 69.5664 125.027 69.711 124.914 69.8901C124.8 70.0692 124.74 70.2756 124.739 70.486V78.0498C124.74 78.1298 124.719 78.2085 124.679 78.2779C124.64 78.3472 124.582 78.4048 124.513 78.4446C124.443 78.4844 124.364 78.505 124.284 78.5044C124.204 78.5038 124.126 78.4819 124.057 78.441L123.706 78.2404C123.517 78.131 123.36 77.9734 123.25 77.7832C123.141 77.593 123.084 77.377 123.084 77.157V73.8164C123.085 73.6709 123.032 73.5301 122.936 73.4209C122.84 73.3117 122.707 73.2418 122.562 73.2246C121.264 73.0641 120.351 73.4921 119.823 74.5086C119.79 74.5702 119.743 74.6232 119.686 74.6636C119.629 74.704 119.563 74.7305 119.494 74.7412C119.425 74.7519 119.355 74.7465 119.288 74.7252C119.221 74.704 119.161 74.6676 119.111 74.619C118.348 73.8432 117.856 72.9571 117.636 71.9606C117.621 71.8858 117.624 71.8086 117.645 71.7353C117.666 71.6619 117.703 71.5946 117.755 71.5388C117.807 71.4829 117.872 71.4402 117.943 71.4142C118.015 71.3881 118.092 71.3794 118.167 71.3888C120.034 71.6563 121.565 71.5861 122.763 71.1781C122.973 71.1042 123.15 70.9583 123.264 70.7663C123.378 70.5742 123.421 70.3486 123.385 70.1295C123.348 69.9104 123.236 69.712 123.067 69.5697C122.898 69.4274 122.684 69.3504 122.462 69.3524H115.93C115.746 69.3524 115.57 69.4253 115.44 69.5551C115.311 69.6849 115.238 69.861 115.238 70.0446V78.0698C115.237 78.1435 115.217 78.2157 115.18 78.2792C115.143 78.3427 115.089 78.3954 115.025 78.4319C114.961 78.4684 114.889 78.4876 114.815 78.4874C114.742 78.4873 114.669 78.4678 114.606 78.431L114.385 78.3005C114.126 78.1512 113.911 77.9372 113.761 77.6801C113.611 77.423 113.532 77.1319 113.532 76.836V73.5857C113.532 73.4922 113.514 73.3996 113.478 73.3132C113.442 73.2267 113.39 73.1482 113.323 73.0821C113.257 73.016 113.179 72.9635 113.092 72.9277C113.006 72.8919 112.913 72.8735 112.82 72.8735H110.793C110.519 72.8735 110.256 72.9823 110.062 73.1761C109.868 73.3699 109.759 73.6327 109.759 73.9067C109.766 75.0704 110.111 76.4213 110.793 77.9595C110.813 78.0133 110.814 78.0722 110.797 78.127C110.78 78.1818 110.746 78.2295 110.699 78.2626C110.652 78.2958 110.595 78.3125 110.538 78.3103C110.481 78.3081 110.426 78.287 110.381 78.2504C109.044 76.973 108.321 75.465 108.214 73.7262C108.205 73.557 108.154 73.3929 108.064 73.249C107.975 73.1052 107.85 72.9863 107.703 72.9036L106.368 72.1311C106.266 72.0693 106.187 71.9763 106.143 71.8658C106.098 71.7553 106.09 71.6334 106.121 71.5183C106.151 71.4031 106.218 71.3009 106.312 71.227C106.405 71.153 106.52 71.1112 106.639 71.1079H112.729C112.945 71.1079 113.152 71.0223 113.304 70.8699C113.456 70.7175 113.542 70.5109 113.542 70.2954V69.9944C113.542 69.8401 113.481 69.6921 113.372 69.583C113.262 69.4739 113.114 69.4126 112.96 69.4126H104.391C104.264 69.4126 104.141 69.4644 104.051 69.5566C103.961 69.6487 103.91 69.7738 103.91 69.9041V77.9795C103.91 78.0569 103.889 78.1329 103.85 78.1999C103.812 78.2668 103.756 78.3224 103.689 78.361C103.622 78.3996 103.546 78.4199 103.468 78.4199C103.391 78.4198 103.315 78.3994 103.248 78.3607L102.897 78.1601C102.799 78.1066 102.715 78.0322 102.649 77.9421C102.583 77.852 102.537 77.7484 102.515 77.6385L102.224 76.214C102.207 76.1272 102.172 76.0449 102.121 75.9721C102.071 75.8994 102.006 75.8376 101.931 75.7907C101.856 75.7438 101.772 75.7126 101.684 75.6991C101.597 75.6857 101.507 75.6902 101.422 75.7124C98.853 76.3946 97.4383 75.4248 97.1774 72.8033C97.1105 72.0676 97.1239 71.1915 97.2176 70.175C97.2273 70.0611 97.2136 69.9465 97.1771 69.8384C97.1407 69.7302 97.0823 69.631 97.0059 69.547C96.9294 69.463 96.8365 69.3961 96.733 69.3505C96.6295 69.3049 96.5178 69.2816 96.4048 69.2822H95.6222C95.4067 69.2822 95.2 69.3678 95.0476 69.5202C94.8951 69.6726 94.8095 69.8792 94.8095 70.0947V77.9996C94.8095 78.0911 94.7853 78.1811 94.7395 78.2603C94.6937 78.3396 94.6278 78.4054 94.5485 78.4511C94.4692 78.4969 94.3793 78.5209 94.2877 78.5209C94.1961 78.5209 94.1062 78.4968 94.0269 78.451L93.5553 78.1802C93.4215 78.104 93.3102 77.9934 93.2327 77.8595C93.1552 77.7256 93.1142 77.5732 93.1139 77.4178V73.6459C93.1139 73.4986 93.0561 73.3572 92.9529 73.2522C92.8496 73.1471 92.7093 73.0868 92.562 73.0841C91.3179 73.0641 90.4149 73.4553 89.853 74.2578C89.7951 74.3401 89.7201 74.4088 89.6329 74.4592C89.5457 74.5097 89.4484 74.5407 89.3475 74.5502C89.2467 74.5597 89.1447 74.5475 89.0484 74.5143C88.9521 74.4812 88.8638 74.4279 88.7894 74.3581C88.0737 73.6693 87.6958 72.927 87.6556 72.1311C87.6501 72.0501 87.6614 71.9688 87.6886 71.8923C87.7159 71.8158 87.7586 71.7457 87.8142 71.6864C87.8697 71.6272 87.9368 71.5799 88.0114 71.5477C88.086 71.5155 88.1664 71.499 88.2476 71.4992H92.1205C92.392 71.4992 92.6523 71.3903 92.8442 71.1965C93.0361 71.0027 93.144 70.7399 93.144 70.4659V70.0245C93.144 69.8489 93.0742 69.6805 92.95 69.5563C92.8258 69.4322 92.6574 69.3624 92.4818 69.3624H85.8998C85.7401 69.3624 85.587 69.4258 85.4741 69.5387C85.3612 69.6516 85.2978 69.8047 85.2978 69.9643V78.0498C85.2983 78.1298 85.2776 78.2085 85.2378 78.2779C85.1979 78.3472 85.1403 78.4048 85.0709 78.4446C85.0015 78.4844 84.9227 78.505 84.8427 78.5044C84.7627 78.5038 84.6843 78.4819 84.6155 78.441L84.2744 78.2404C84.07 78.1213 83.9003 77.9512 83.7824 77.747C83.6644 77.5428 83.6023 77.3117 83.6021 77.0767V70.2954C83.6021 70.0293 83.4953 69.7742 83.3053 69.586C83.1153 69.3979 82.8575 69.2922 82.5887 69.2922H81.766C81.5558 69.2922 81.3542 69.3746 81.2055 69.5214C81.0569 69.6681 80.9733 69.8671 80.9733 70.0747V77.9996C80.9724 78.0744 80.9521 78.1476 80.9143 78.2122C80.8765 78.2768 80.8226 78.3304 80.7579 78.3678C80.6931 78.4052 80.6197 78.4252 80.5449 78.4257C80.4701 78.4262 80.3965 78.4073 80.3312 78.3708L79.7292 78.0297C79.6218 77.9653 79.5329 77.8742 79.4713 77.7652C79.4098 77.6561 79.3776 77.533 79.378 77.4077V75.7525C79.3782 75.6546 79.3584 75.5577 79.32 75.4679C79.2815 75.378 79.2253 75.2971 79.1546 75.2303C79.084 75.1635 79.0006 75.1121 78.9095 75.0794C78.8185 75.0467 78.7218 75.0334 78.6255 75.0403C77.3345 75.1339 76.5118 75.358 76.1573 75.7124C75.8966 75.9836 75.554 76.1404 75.1918 76.1544C74.8296 76.1684 74.4716 76.0387 74.1828 75.7888C73.894 75.5389 73.6935 75.1853 73.6176 74.7921C73.5418 74.399 73.5956 73.9924 73.7693 73.6459C74.2242 72.7297 74.4549 71.6062 74.4616 70.2753C74.4629 70.1519 74.4398 70.0296 74.3935 69.9152C74.3472 69.8009 74.2787 69.6968 74.1919 69.6091C74.1051 69.5214 74.0018 69.4518 73.8879 69.4043C73.774 69.3568 73.6519 69.3323 73.5285 69.3323H72.0034C71.8967 69.3323 71.791 69.3533 71.6924 69.3942C71.5938 69.435 71.5042 69.4949 71.4287 69.5703C71.3533 69.6458 71.2934 69.7354 71.2526 69.8339C71.2117 69.9325 71.1907 70.0382 71.1907 70.1449V78.0899C71.1913 78.1606 71.1732 78.2303 71.1383 78.2918C71.1033 78.3533 71.0527 78.4045 70.9916 78.4401C70.9305 78.4757 70.861 78.4946 70.7903 78.4948C70.7195 78.4949 70.65 78.4764 70.5887 78.441L70.2877 78.2604C70.0367 78.1193 69.8497 77.8857 69.7659 77.6084L69.4047 76.4146C69.3804 76.3392 69.3391 76.2703 69.284 76.213C69.2289 76.1558 69.1614 76.1116 69.0864 76.0837C69.0114 76.0558 68.9307 76.0449 68.8504 76.0518C68.7701 76.0587 68.6921 76.0833 68.6221 76.1237C66.582 77.3208 64.8897 76.8761 63.5452 74.7895C63.1911 74.2397 63.046 73.5855 63.1391 72.9583C63.2321 72.3312 63.5565 71.7776 64.0469 71.4089C65.6321 70.2185 67.077 70.1951 68.3813 71.3386C68.4909 71.4371 68.6267 71.5013 68.7722 71.5233C68.9177 71.5453 69.0668 71.5243 69.2015 71.4628C69.3362 71.4013 69.4507 71.3019 69.5313 71.1767C69.6119 71.0514 69.655 70.9056 69.6556 70.7568C69.6489 69.854 69.2475 69.3925 68.4516 69.3725C66.2375 69.319 63.8596 69.3089 61.3177 69.3424C61.1518 69.345 60.9936 69.4127 60.8772 69.531C60.7609 69.6492 60.6956 69.8085 60.6957 69.9744V77.9695C60.6958 78.0659 60.6707 78.1607 60.6228 78.2444C60.5749 78.3281 60.5058 78.3978 60.4226 78.4465C60.3394 78.4952 60.2448 78.5213 60.1484 78.5221C60.0519 78.5229 59.9569 78.4984 59.8729 78.451L59.4314 78.1902C59.3004 78.1168 59.1913 78.0094 59.1155 77.8789C59.0396 77.7484 58.9998 77.5996 59 77.4479V70.4659C58.9998 70.2885 58.9533 70.1145 58.8652 69.9613C58.7772 69.8081 58.6507 69.6812 58.4983 69.5932L57.0234 68.7505C56.9846 68.7242 56.9562 68.6852 56.9431 68.6402C56.8294 68.0985 57.2742 67.8075 58.2776 67.7674C58.3591 67.7638 58.4387 67.7422 58.5109 67.7041C58.583 67.6661 58.6458 67.6125 58.6947 67.5473C58.7436 67.482 58.7775 67.4068 58.7939 67.3269C58.8102 67.247 58.8087 67.1645 58.7893 67.0853C58.2542 64.9653 58.903 63.6979 60.7358 63.2833C61.04 63.2105 61.3548 63.2037 61.6589 63.2632C64.0602 63.7113 66.0134 64.7446 67.5184 66.363C67.5851 66.4367 67.6203 66.5336 67.6165 66.6329C67.6128 66.7322 67.5704 66.8261 67.4984 66.8947L67.4883 66.9147C67.427 66.9718 67.3464 67.0036 67.2626 67.0036C67.1788 67.0036 67.0981 66.9718 67.0368 66.9147ZM79.2759 70.0277C79.2811 69.8708 79.2237 69.7183 79.1165 69.6037C79.0092 69.4891 78.8608 69.4218 78.7039 69.4166L76.7183 69.3507C76.6406 69.3481 76.5632 69.3608 76.4904 69.3882C76.4176 69.4155 76.351 69.4569 76.2942 69.51C76.2374 69.5631 76.1917 69.6269 76.1596 69.6977C76.1274 69.7685 76.1096 69.8449 76.107 69.9226L76.0086 72.8903C76.0034 73.0472 76.0607 73.1997 76.168 73.3143C76.2753 73.4289 76.4237 73.4962 76.5806 73.5015L78.5661 73.5674C78.6438 73.5699 78.7213 73.5572 78.794 73.5299C78.8668 73.5025 78.9335 73.4611 78.9903 73.408C79.047 73.3549 79.0928 73.2911 79.1249 73.2203C79.157 73.1496 79.1749 73.0731 79.1774 72.9955L79.2759 70.0277ZM101.662 69.4527L99.8463 69.2521C99.6641 69.2324 99.4815 69.2857 99.3385 69.4004C99.1956 69.5151 99.104 69.6819 99.0838 69.864L98.843 72.0409C98.8096 72.3448 98.8109 72.6495 98.8468 72.9376C98.8826 73.2257 98.9524 73.4914 99.0521 73.7197C99.1518 73.9479 99.2795 74.1342 99.4278 74.2678C99.5762 74.4015 99.7422 74.4799 99.9166 74.4986L100.448 74.5588C100.623 74.5788 100.802 74.5386 100.976 74.4405C101.15 74.3424 101.316 74.1883 101.463 73.987C101.61 73.7857 101.737 73.5412 101.834 73.2675C101.932 72.9938 102 72.6963 102.034 72.392L102.274 70.2151C102.294 70.0329 102.241 69.8503 102.126 69.7074C102.011 69.5645 101.845 69.4729 101.662 69.4527ZM65.6121 75.5318L69.0134 74.2478C69.1251 74.2051 69.2153 74.1199 69.2642 74.0108C69.3131 73.9017 69.3167 73.7777 69.2743 73.666L69.2241 73.5356C69.0156 72.9892 68.6037 72.5461 68.0789 72.3035C67.554 72.0608 66.9591 72.0385 66.4248 72.2415L66.2141 72.3217C65.9492 72.4222 65.7071 72.575 65.5016 72.7716C65.2962 72.9681 65.1315 73.2045 65.0169 73.4672C64.9023 73.7299 64.8401 74.0138 64.8337 74.3026C64.8274 74.5915 64.8771 74.8796 64.98 75.1506L65.0301 75.271C65.0728 75.3827 65.1581 75.4728 65.2672 75.5217C65.3763 75.5706 65.5003 75.5743 65.6121 75.5318Z" fill="white"/>
<path d="M159.2 66.8443C157.742 65.7743 156.14 65.1055 154.394 64.838C154.025 64.7825 153.638 64.8435 153.294 65.0115C152.95 65.1794 152.669 65.4446 152.495 65.7654C152.322 66.0861 152.265 66.4442 152.335 66.783C152.404 67.1219 152.596 67.4222 152.879 67.6368C154.137 68.5664 155.344 68.7436 156.501 68.1685C158.017 67.4061 159.331 67.9177 159.843 69.3923C159.885 69.5141 159.887 69.647 159.847 69.7702C159.806 69.8933 159.727 69.9996 159.621 70.0722C159.515 70.1447 159.389 70.1794 159.261 70.1708C159.134 70.1621 159.014 70.1106 158.92 70.0243C158.331 69.5027 158.033 69.2419 158.027 69.2419C157.804 69.1594 157.558 69.1685 157.343 69.2673C157.128 69.3661 156.96 69.5464 156.878 69.7685C156.795 69.9907 156.804 70.2365 156.903 70.4519C157.002 70.6673 157.182 70.8347 157.404 70.9171L159.562 71.9203C159.744 72.0091 159.891 72.1574 159.977 72.3406C160.064 72.5239 160.086 72.7312 160.039 72.9285C159.993 73.1258 159.88 73.3014 159.72 73.4263C159.561 73.5512 159.363 73.6179 159.16 73.6156C158.478 73.6023 157.859 73.7895 157.304 74.1774C157.168 74.2741 157.065 74.4113 157.011 74.5696C156.956 74.7278 156.953 74.8988 157 75.0581C157.048 75.2173 157.145 75.3567 157.277 75.4562C157.409 75.5557 157.57 75.6102 157.736 75.6119C159.047 75.632 160.425 75.1337 161.869 74.1172C161.997 74.0274 162.101 73.9094 162.172 73.7732C162.244 73.637 162.281 73.4866 162.281 73.3347V70.3955C162.281 70.1775 162.216 69.9643 162.092 69.7835C161.968 69.6028 161.793 69.4629 161.588 69.3823L160.274 68.8607C160.161 68.8142 160.068 68.7303 160.009 68.623C159.951 68.5158 159.931 68.3917 159.954 68.2716C159.976 68.1516 160.039 68.0429 160.132 67.9638C160.225 67.8848 160.343 67.8401 160.465 67.8374C182.057 67.7773 194.783 67.7639 198.642 67.7973C199.097 67.7973 199.488 67.9745 199.816 68.329C199.906 68.4246 199.967 68.5447 199.989 68.6742C200.012 68.8038 199.996 68.9372 199.944 69.0578C199.892 69.1785 199.805 69.2812 199.695 69.3531C199.585 69.4251 199.456 69.4631 199.324 69.4626H198.472C198.315 69.4626 198.164 69.5249 198.053 69.6359C197.942 69.7469 197.88 69.8974 197.88 70.0544V78.0797C197.88 78.1552 197.862 78.2297 197.827 78.2966C197.792 78.3635 197.741 78.4208 197.678 78.4634C197.616 78.506 197.544 78.5326 197.469 78.5409C197.394 78.5492 197.318 78.539 197.247 78.511L196.906 78.3706C196.652 78.27 196.434 78.0948 196.28 77.8676C196.126 77.6405 196.044 77.3719 196.043 77.0966V70.1146C196.043 69.9204 195.966 69.7341 195.829 69.5968C195.692 69.4595 195.505 69.3823 195.311 69.3823H194.007C193.823 69.3823 193.647 69.4552 193.517 69.585C193.387 69.7148 193.314 69.8909 193.314 70.0745V74.9197C193.314 75.1173 193.266 75.3134 193.174 75.4915C192.472 76.8358 191.334 77.0899 189.762 76.2539C187.405 74.99 187.023 72.6426 187.515 70.2651C187.539 70.1488 187.536 70.0287 187.508 69.9134C187.48 69.7982 187.426 69.6906 187.351 69.5985C187.277 69.5064 187.182 69.432 187.075 69.3808C186.968 69.3295 186.851 69.3026 186.732 69.3021H184.314C184.182 69.3022 184.052 69.3325 183.934 69.3907C183.816 69.4488 183.713 69.5332 183.633 69.6373C183.554 69.7413 183.499 69.8621 183.475 69.9901C183.45 70.1182 183.456 70.2501 183.492 70.3754C183.806 71.5391 183.585 73.1408 182.829 75.1806C182.753 75.3859 182.742 75.6098 182.797 75.8216C182.853 76.0335 182.973 76.223 183.14 76.3643C183.983 77.0799 184.575 77.772 184.916 78.4408C184.981 78.5419 185.004 78.6648 184.978 78.7824C184.953 78.8999 184.882 79.0026 184.781 79.0678C184.68 79.133 184.557 79.1553 184.439 79.1299C184.322 79.1045 184.219 79.0335 184.154 78.9324L179.769 73.4551C179.693 73.3607 179.646 73.2468 179.632 73.1266C179.619 73.0064 179.639 72.8847 179.692 72.7757C179.744 72.6666 179.826 72.5746 179.929 72.5103C180.031 72.4459 180.15 72.4118 180.271 72.4118H181.164C181.39 72.4118 181.607 72.3209 181.767 72.1592C181.927 71.9974 182.017 71.7779 182.017 71.5491V70.2851C182.017 70.0563 181.926 69.8369 181.764 69.6751C181.602 69.5133 181.383 69.4224 181.154 69.4224H174.682C174.55 69.4224 174.42 69.4481 174.298 69.498C174.176 69.5479 174.066 69.6211 173.973 69.7133C173.879 69.8055 173.806 69.915 173.755 70.0355C173.705 70.156 173.679 70.2851 173.679 70.4156V71.3786C173.679 71.4829 173.704 71.5858 173.751 71.6789C173.798 71.7721 173.866 71.853 173.95 71.9153C174.033 71.9776 174.13 72.0195 174.233 72.0378C174.336 72.0561 174.442 72.0502 174.542 72.0206C178.545 70.8369 179.047 75.0401 178.013 77.6985C177.963 77.8252 177.887 77.9397 177.789 78.0339C177.691 78.1281 177.573 78.1997 177.445 78.2436C177.317 78.2876 177.181 78.3029 177.047 78.2884C176.913 78.274 176.784 78.2301 176.669 78.1599L176.448 78.0195C176.253 77.8917 176.108 77.7005 176.038 77.479C175.969 77.2574 175.979 77.0193 176.067 76.8057L176.9 74.679C176.956 74.5376 176.975 74.3838 176.952 74.2331C176.93 74.0824 176.869 73.9402 176.774 73.821C176.679 73.7018 176.555 73.6098 176.413 73.5543C176.271 73.4989 176.117 73.4819 175.966 73.5053C173.308 73.8865 173.98 76.5047 173.879 78.2302C173.874 78.3184 173.848 78.4042 173.804 78.4805C173.759 78.5568 173.697 78.6216 173.623 78.6695C173.549 78.7174 173.464 78.7471 173.376 78.7561C173.288 78.7652 173.199 78.7534 173.117 78.7217C172.461 78.4609 172.097 77.8891 172.023 77.0063C172.01 76.8432 171.934 76.6917 171.812 76.5846C171.69 76.4776 171.532 76.4236 171.371 76.4345C171.277 76.4412 170.993 76.5582 170.518 76.7856C170.15 76.9595 169.859 77.0197 169.645 76.9662C164.047 75.5517 166.635 68.66 171.03 71.3485C171.1 71.3909 171.178 71.4186 171.259 71.4299C171.34 71.4412 171.422 71.4359 171.501 71.4143C171.58 71.3927 171.653 71.3553 171.717 71.3043C171.781 71.2533 171.834 71.1899 171.873 71.1178C172.04 70.8034 172.08 70.4256 171.993 69.9842C171.963 69.8204 171.876 69.6725 171.747 69.5662C171.619 69.4599 171.457 69.4019 171.291 69.4024H164.538C164.395 69.4024 164.257 69.4594 164.155 69.561C164.054 69.6626 163.996 69.8004 163.996 69.9441V78.0095C163.996 78.1089 163.964 78.206 163.905 78.2869C163.847 78.3677 163.765 78.4282 163.671 78.4594C163.577 78.4906 163.477 78.4911 163.384 78.4607C163.291 78.4303 163.21 78.3707 163.154 78.2903C162.879 77.9158 162.568 77.2905 162.221 76.4144C162.193 76.3454 162.15 76.2834 162.095 76.233C162.04 76.1825 161.975 76.1449 161.904 76.1228C161.833 76.1007 161.758 76.0947 161.684 76.1053C161.611 76.1158 161.54 76.1426 161.478 76.1837C159.445 77.5079 157.756 77.4678 156.411 76.0633C155.458 75.0802 155.328 73.6558 156.21 72.6024C156.297 72.4992 156.35 72.3714 156.362 72.2355C156.375 72.0995 156.346 71.9618 156.281 71.84L155.217 69.924C155.083 69.6749 154.87 69.4778 154.611 69.3643C154.352 69.2508 154.062 69.2274 153.788 69.2979C153.514 69.3684 153.272 69.5287 153.1 69.7531C152.928 69.9775 152.836 70.2532 152.839 70.5359V78.0195C152.84 78.095 152.822 78.1695 152.786 78.2364C152.751 78.3033 152.7 78.3606 152.638 78.4032C152.575 78.4458 152.504 78.4724 152.428 78.4807C152.353 78.489 152.277 78.4788 152.207 78.4508L151.916 78.3405C151.652 78.2343 151.426 78.0513 151.267 77.8153C151.107 77.5793 151.023 77.301 151.023 77.0163V70.235C151.023 70.0221 150.939 69.818 150.788 69.6675C150.638 69.517 150.433 69.4325 150.22 69.4325H149.087C148.858 69.4325 148.638 69.5234 148.477 69.6851C148.315 69.8469 148.224 70.0664 148.224 70.2952V77.9794C148.225 78.0859 148.192 78.1901 148.131 78.2772C148.069 78.3644 147.982 78.4303 147.882 78.4656C147.781 78.501 147.672 78.5041 147.57 78.4744C147.467 78.4448 147.377 78.384 147.311 78.3004L146.849 77.7386C146.694 77.544 146.609 77.2999 146.608 77.0464V70.3353C146.608 70.0959 146.514 69.8662 146.347 69.6969C146.179 69.5276 145.952 69.4325 145.715 69.4325H144.622C144.417 69.4325 144.22 69.5138 144.076 69.6587C143.931 69.8036 143.849 70 143.849 70.2049V77.9794C143.849 78.094 143.814 78.2063 143.748 78.3005C143.682 78.3947 143.589 78.4662 143.482 78.5049C143.374 78.5436 143.258 78.5475 143.15 78.5163C143.041 78.485 142.945 78.42 142.876 78.3305L141.993 77.227C141.897 77.1081 141.757 77.032 141.605 77.0151C141.453 76.9982 141.3 77.0419 141.18 77.1367L139.314 78.6314C139.174 78.7471 139.006 78.823 138.826 78.8513C138.646 78.8795 138.461 78.859 138.291 78.7919L137.94 78.6515C137.865 78.6221 137.8 78.5732 137.752 78.51C137.703 78.4467 137.673 78.3715 137.663 78.2923C137.654 78.213 137.666 78.1327 137.699 78.06C137.732 77.9872 137.784 77.9247 137.849 77.879C138.605 77.3307 139.087 76.8659 139.294 76.4847C139.331 76.4175 139.354 76.3434 139.361 76.267C139.368 76.1906 139.359 76.1136 139.334 76.0409C139.31 75.9682 139.27 75.9014 139.218 75.8448C139.166 75.7882 139.103 75.7431 139.033 75.7122C136.746 74.699 137.117 72.3717 137.177 70.2751C137.182 70.0838 137.129 69.896 137.025 69.7378C136.921 69.5797 136.77 69.4589 136.595 69.3923L135.06 68.7804C134.947 68.734 134.853 68.65 134.795 68.5428C134.737 68.4355 134.717 68.3114 134.739 68.1914C134.762 68.0713 134.825 67.9626 134.918 67.8836C135.011 67.8045 135.128 67.7599 135.251 67.7572H150.341C150.466 67.7572 150.586 67.7075 150.674 67.6191C150.763 67.5307 150.812 67.4108 150.812 67.2857V64.9885C150.812 64.773 150.879 64.5627 151.003 64.3866C153.06 61.5075 157.726 64.4668 159.602 66.2224C159.633 66.2505 159.658 66.2853 159.675 66.3245C159.691 66.3637 159.699 66.4062 159.697 66.4492C159.695 66.4922 159.683 66.5345 159.664 66.5733C159.644 66.6121 159.616 66.6464 159.582 66.6738L159.371 66.8443C159.348 66.8638 159.319 66.8744 159.288 66.8744C159.257 66.8744 159.226 66.8638 159.2 66.8443ZM141.572 69.4927L139.846 69.282C139.757 69.2708 139.668 69.2773 139.582 69.3011C139.496 69.3249 139.416 69.3655 139.346 69.4205C139.276 69.4756 139.217 69.544 139.174 69.6219C139.131 69.6997 139.103 69.7853 139.093 69.8739L138.863 71.7799C138.78 72.4666 138.842 73.142 139.036 73.6574C139.23 74.1729 139.539 74.4862 139.896 74.5285L140.277 74.5686C140.633 74.6109 141.007 74.3803 141.317 73.9272C141.627 73.4741 141.849 72.8355 141.933 72.151L142.164 70.245C142.175 70.1567 142.168 70.067 142.145 69.9811C142.121 69.8953 142.08 69.815 142.025 69.745C141.97 69.675 141.902 69.6167 141.824 69.5733C141.746 69.53 141.66 69.5026 141.572 69.4927ZM191.578 70.2745C191.58 70.1454 191.557 70.0172 191.509 69.8972C191.461 69.7771 191.391 69.6676 191.301 69.5749C191.211 69.4822 191.104 69.4081 190.985 69.3568C190.867 69.3055 190.739 69.2781 190.61 69.2761L190.129 69.2686C190 69.2665 189.871 69.2899 189.751 69.3375C189.631 69.385 189.522 69.4557 189.429 69.5455C189.336 69.6354 189.262 69.7426 189.211 69.8611C189.16 69.9796 189.132 70.107 189.13 70.2361L189.071 74.0075C189.069 74.1366 189.092 74.2648 189.14 74.3848C189.187 74.5049 189.258 74.6144 189.348 74.7071C189.438 74.7998 189.545 74.8739 189.663 74.9252C189.782 74.9764 189.909 75.0039 190.038 75.0059L190.52 75.0134C190.649 75.0155 190.777 74.992 190.897 74.9445C191.017 74.897 191.127 74.8263 191.22 74.7364C191.312 74.6466 191.387 74.5394 191.438 74.4209C191.489 74.3024 191.517 74.175 191.519 74.0459L191.578 70.2745ZM171.56 73.1285C171.413 72.8243 171.089 72.6209 170.66 72.563C170.231 72.505 169.731 72.5974 169.271 72.8197C168.811 73.042 168.429 73.3761 168.207 73.7484C167.986 74.1207 167.944 74.5008 168.092 74.805C168.239 75.1092 168.562 75.3126 168.992 75.3705C169.421 75.4284 169.92 75.3361 170.38 75.1137C170.84 74.8914 171.223 74.5574 171.444 74.1851C171.666 73.8128 171.707 73.4327 171.56 73.1285Z" fill="white"/>
<path d="M3.40176 72.9239C3.43477 72.8947 3.45874 72.8567 3.47081 72.8143C3.48289 72.772 3.48258 72.727 3.46992 72.6848C3.45725 72.6426 3.43277 72.6049 3.39935 72.5762C3.36594 72.5474 3.32499 72.5289 3.28136 72.5227C-0.029693 72.1014 -0.270497 67.2962 3.05059 67.8379C4.77635 68.1188 5.45528 69.5968 5.08739 72.2719C5.06735 72.4194 5.0791 72.5694 5.12185 72.712C5.1646 72.8545 5.23736 72.9863 5.33524 73.0984C5.43313 73.2105 5.55387 73.3004 5.68937 73.362C5.82487 73.4236 5.97198 73.4555 6.12083 73.4556H8.21783C8.39346 73.4556 8.5619 73.3869 8.68609 73.2646C8.81027 73.1423 8.88004 72.9765 8.88004 72.8036V70.0248C8.87927 69.8881 8.83484 69.7555 8.75343 69.647C8.67202 69.5385 8.55802 69.4599 8.42854 69.4229L6.56231 68.8913C6.43826 68.8562 6.33117 68.7773 6.26095 68.6692C6.19073 68.5612 6.16217 68.4313 6.18057 68.3037C6.19897 68.1762 6.26308 68.0596 6.36099 67.9758C6.45889 67.892 6.58392 67.8465 6.71281 67.848H47.4488C47.6179 67.8462 47.7819 67.9054 47.9108 68.0149C48.0397 68.1243 48.1248 68.2766 48.1504 68.4437C48.176 68.6109 48.1405 68.7816 48.0503 68.9246C47.9601 69.0677 47.8213 69.1734 47.6595 69.2223L47.1879 69.3728C47.0078 69.4284 46.8503 69.5403 46.7384 69.6919C46.6264 69.8435 46.566 70.027 46.5658 70.2154V77.8896C46.5654 77.9539 46.5499 78.0172 46.5205 78.0746C46.4912 78.1319 46.4487 78.1819 46.3964 78.2207C46.3441 78.2594 46.2834 78.2858 46.2188 78.298C46.1543 78.3102 46.0876 78.3077 46.024 78.2908L45.723 78.2106C45.5234 78.1521 45.3481 78.0306 45.2233 77.8642C45.0986 77.6979 45.031 77.4956 45.0307 77.2877V76.3146C45.0299 76.2516 45.0147 76.1896 44.9862 76.1334C44.9577 76.0772 44.9166 76.0284 44.8662 75.9905C44.8158 75.9527 44.7573 75.927 44.6954 75.9154C44.6335 75.9037 44.5697 75.9065 44.509 75.9234L42.7431 76.4149C42.2552 76.5449 41.7367 76.5097 41.2681 76.3146C39.9036 75.7462 39.0073 74.6159 38.5792 72.9239C38.5375 72.7526 38.5618 72.5718 38.6473 72.4175C38.7328 72.2632 38.8732 72.1468 39.0407 72.0913C40.1578 71.7168 40.8835 71.0313 41.218 70.0348C41.2449 69.9536 41.2522 69.8672 41.2393 69.7827C41.2264 69.6981 41.1937 69.6178 41.1438 69.5483C41.0938 69.4788 41.0282 69.4221 40.9521 69.3829C40.8761 69.3437 40.7918 69.323 40.7063 69.3226H36.4922C36.4123 69.3226 36.3332 69.3385 36.2595 69.3694C36.1858 69.4002 36.119 69.4455 36.0629 69.5024C36.0069 69.5594 35.9628 69.6269 35.9331 69.7011C35.9034 69.7753 35.8889 69.8547 35.8902 69.9345L35.9805 77.6388C35.981 77.7333 35.9616 77.8268 35.9235 77.9133C35.8854 77.9998 35.8295 78.0773 35.7595 78.1407C35.6894 78.2041 35.6067 78.2521 35.5169 78.2814C35.427 78.3107 35.332 78.3208 35.238 78.3109L35.1878 78.3009C34.9723 78.2856 34.7705 78.1891 34.6233 78.0308C34.4762 77.8725 34.3947 77.6643 34.3952 77.4482L34.3751 70.0048C34.3751 69.8345 34.3075 69.6712 34.1871 69.5508C34.0666 69.4304 33.9033 69.3627 33.733 69.3627H32.5189C32.3007 69.3627 32.0915 69.4483 31.9372 69.6007C31.7829 69.7531 31.6962 69.9598 31.6962 70.1753V77.7291C31.6963 77.8157 31.6763 77.9012 31.6378 77.9789C31.5994 78.0565 31.5434 78.1242 31.4745 78.1767C31.4055 78.2291 31.3253 78.2649 31.2402 78.2812C31.1551 78.2976 31.0673 78.294 30.9838 78.2708L30.6627 78.1805C30.522 78.1406 30.3984 78.056 30.3113 77.9398C30.2242 77.8237 30.1784 77.6825 30.1811 77.5385C30.228 75.6525 30.2347 74.3819 30.2012 73.7265C30.1882 73.4589 30.0816 73.2174 29.892 73.0255C29.7023 72.8335 29.436 72.6976 29.1189 72.631C28.8017 72.5643 28.4446 72.5692 28.0822 72.6451C27.7198 72.7211 27.3644 72.8655 27.0507 73.0644C25.86 73.8201 26.0239 75.4385 27.5423 77.9196C27.5724 77.9756 27.5827 78.04 27.5714 78.1025C27.5601 78.165 27.528 78.2219 27.4803 78.2638C27.4325 78.3057 27.372 78.3302 27.3086 78.3332C27.2451 78.3363 27.1825 78.3178 27.131 78.2808C25.9069 77.3178 25.0908 75.6759 24.6828 73.3553C24.6186 72.9939 24.687 72.6219 24.8752 72.3082C25.0635 71.9945 25.3588 71.7606 25.7062 71.6499C26.8835 71.2754 27.9805 71.1283 28.9972 71.2085C29.2557 71.2319 29.5144 71.1635 29.7288 71.0152C29.9431 70.8668 30.0996 70.6478 30.1711 70.396L30.2514 70.1251C30.2792 70.0271 30.284 69.9239 30.2653 69.8236C30.2467 69.7234 30.2052 69.6289 30.144 69.5473C30.0829 69.4657 30.0037 69.3994 29.9127 69.3535C29.8216 69.3075 29.7212 69.2832 29.6193 69.2825H21.7129C21.6232 69.2833 21.5349 69.3042 21.4544 69.3436C21.3738 69.3829 21.3031 69.4397 21.2473 69.5099C21.1915 69.5801 21.1521 69.6619 21.132 69.7492C21.1119 69.8365 21.1115 69.9273 21.1309 70.0148C21.5055 71.6533 21.3216 73.1513 20.5791 74.5089C20.4767 74.6942 20.4214 74.9017 20.4179 75.1133C20.4144 75.325 20.4628 75.5342 20.559 75.7227C20.9737 76.5721 21.5122 77.3111 22.1744 77.9397C22.2184 77.9829 22.2528 78.0348 22.2754 78.092C22.2979 78.1491 22.3081 78.2102 22.3053 78.271C22.3024 78.3318 22.2866 78.3911 22.2588 78.4447C22.2311 78.4983 22.192 78.545 22.1443 78.5817L21.9336 78.7523C21.9225 78.7631 21.9091 78.7712 21.8942 78.7761C21.8793 78.781 21.8633 78.7825 21.8472 78.7806C21.8311 78.7787 21.8153 78.7734 21.8008 78.7651C21.7863 78.7568 21.7734 78.7456 21.763 78.7322L17.4085 73.2951C17.3335 73.2022 17.2901 73.0878 17.2845 72.9686C17.279 72.8494 17.3115 72.7315 17.3775 72.632C17.4435 72.5325 17.5394 72.4566 17.6514 72.4153C17.7634 72.374 17.8857 72.3694 18.0005 72.4023L18.9637 72.6731C19.0427 72.6948 19.1257 72.6983 19.2062 72.6833C19.2866 72.6683 19.3623 72.6353 19.4274 72.5867C19.4925 72.5381 19.5452 72.4754 19.5814 72.4034C19.6176 72.3314 19.6362 72.252 19.6359 72.1716V70.1653C19.6359 69.9364 19.545 69.717 19.3832 69.5552C19.2214 69.3934 19.0019 69.3025 18.7731 69.3025H15.8433C15.6437 69.3025 15.4523 69.3818 15.3112 69.5229C15.1701 69.664 15.0908 69.8554 15.0908 70.0549V77.9498C15.0908 78.0276 15.0726 78.1044 15.0378 78.1741C15.003 78.2437 14.9524 78.3043 14.8901 78.351C14.8278 78.3977 14.7555 78.4293 14.6788 78.4432C14.6022 78.4572 14.5234 78.4531 14.4486 78.4313L14.0975 78.3309C13.8952 78.2723 13.7174 78.1497 13.5908 77.9815C13.4641 77.8133 13.3955 77.6086 13.3951 77.398V70.2254C13.3951 69.9674 13.2926 69.7199 13.1101 69.5374C12.9275 69.3549 12.68 69.2524 12.4219 69.2524H11.1677C11.0741 69.2524 10.9815 69.2708 10.8951 69.3066C10.8086 69.3424 10.7301 69.3949 10.664 69.461C10.5978 69.5271 10.5453 69.6057 10.5095 69.6921C10.4737 69.7785 10.4553 69.8711 10.4553 69.9646V78.0099C10.4562 78.0689 10.4431 78.1271 10.4171 78.1801C10.391 78.2331 10.3526 78.2794 10.305 78.3153C10.2573 78.3513 10.2017 78.376 10.1425 78.3874C10.0833 78.3988 10.0221 78.3966 9.96366 78.3811L9.49209 78.2407C9.33043 78.1949 9.18812 78.0976 9.08673 77.9636C8.98534 77.8297 8.93039 77.6663 8.93021 77.4983V75.813C8.93033 75.6502 8.87306 75.4926 8.76847 75.3679C8.66387 75.2431 8.51864 75.1592 8.3583 75.1309C6.48539 74.7898 5.27468 75.1877 4.72618 76.3246C4.68338 76.4113 4.61958 76.4859 4.54075 76.5417C4.46192 76.5975 4.37062 76.6325 4.27541 76.6435C4.1802 76.6546 4.08417 76.6412 3.9963 76.6047C3.90844 76.5683 3.83161 76.5099 3.773 76.435L2.34824 74.6594C2.23318 74.5141 2.18021 74.3293 2.20088 74.1451C2.22156 73.961 2.3142 73.7925 2.45861 73.6763L3.40176 72.9239ZM2.77768 69.0256C2.6499 69.0442 2.52836 69.0968 2.42 69.1804C2.31163 69.264 2.21856 69.3769 2.14611 69.5126C2.07365 69.6484 2.02322 69.8044 1.9977 69.9717C1.97218 70.139 1.97207 70.3144 1.99737 70.4878C2.04846 70.8379 2.19997 71.1588 2.41856 71.3797C2.63715 71.6007 2.90492 71.7037 3.16296 71.6661C3.29074 71.6474 3.41228 71.5948 3.52064 71.5113C3.62901 71.4277 3.72208 71.3148 3.79453 71.179C3.86699 71.0432 3.91742 70.8872 3.94294 70.7199C3.96846 70.5526 3.96857 70.3773 3.94327 70.2039C3.89218 69.8537 3.74067 69.5329 3.52208 69.3119C3.30349 69.0909 3.03572 68.9879 2.77768 69.0256ZM45.0307 69.3427H42.4922C42.4131 69.342 42.3347 69.3585 42.2623 69.3908C42.1899 69.4231 42.125 69.4707 42.072 69.5304C42.0189 69.59 41.9789 69.6605 41.9545 69.737C41.9301 69.8136 41.9219 69.8946 41.9304 69.9747C41.9571 70.2154 42.0775 70.62 42.2916 71.1885C42.519 71.777 42.4822 72.205 42.1812 72.4725C41.8869 72.7333 41.3885 72.9908 40.6862 73.2449C40.5143 73.3081 40.3664 73.4243 40.2639 73.5766C40.1615 73.7288 40.1099 73.9093 40.1166 74.0916C40.1233 74.274 40.188 74.4488 40.3013 74.5906C40.4145 74.7324 40.5705 74.8338 40.7464 74.8801C41.723 75.1476 42.8936 74.7998 44.2581 73.8368C44.4316 73.7116 44.5685 73.5433 44.655 73.3493C44.7414 73.1553 44.7741 72.9427 44.7498 72.7333C44.5959 71.2888 44.7564 70.3157 45.2314 69.8142C45.2681 69.7744 45.2926 69.7249 45.3019 69.6715C45.3111 69.6182 45.3048 69.5633 45.2836 69.5135C45.2624 69.4637 45.2272 69.4211 45.1824 69.3908C45.1375 69.3605 45.0848 69.3438 45.0307 69.3427Z" fill="white"/>
<path d="M4.08326 91.3013C3.18693 91.3013 2.73208 91.3013 2.71871 91.3013C2.54941 91.3604 2.39712 91.4587 2.27483 91.5879C2.15253 91.7172 2.06385 91.8735 2.01636 92.0437C1.77556 92.8395 1.41101 93.3946 0.922711 93.7089C0.820517 93.7732 0.70134 93.8053 0.580661 93.801C0.459982 93.7967 0.34338 93.7563 0.246003 93.6849C0.148626 93.6135 0.0749742 93.5145 0.0346166 93.4007C-0.00574096 93.2869 -0.0109391 93.1636 0.0196973 93.0468C0.962845 89.7765 2.03643 86.7972 3.24045 84.1087C3.34747 83.8679 3.62841 83.7476 4.08326 83.7476C4.51804 83.7476 4.79229 83.8679 4.90601 84.1087C6.11671 86.7905 7.19699 89.7632 8.14682 93.0268C8.18107 93.1435 8.17913 93.2679 8.14125 93.3835C8.10338 93.4991 8.03134 93.6006 7.93464 93.6744C7.83794 93.7483 7.72113 93.7911 7.59959 93.7973C7.47805 93.8034 7.35751 93.7726 7.25384 93.7089C6.75886 93.3879 6.39096 92.8328 6.15016 92.0437C6.1017 91.8725 6.01151 91.7154 5.88739 91.5861C5.76327 91.4567 5.60895 91.359 5.43778 91.3013C5.4244 91.3013 4.9729 91.3013 4.08326 91.3013ZM3.18025 89.9872L4.73544 90.0975C4.77103 90.1003 4.80682 90.0959 4.84073 90.0848C4.87465 90.0737 4.90603 90.0559 4.93307 90.0326C4.96011 90.0093 4.98228 89.9809 4.9983 89.949C5.01431 89.9171 5.02387 89.8823 5.02641 89.8467L5.03644 89.6862C5.0938 88.8778 5.03939 88.0953 4.88514 87.5104C4.73089 86.9255 4.48941 86.586 4.21369 86.5664L4.19363 86.5564C3.91814 86.541 3.63153 86.8458 3.39649 87.4041C3.16146 87.9624 2.99713 88.7289 2.93944 89.5358L2.92941 89.6963C2.92667 89.7319 2.931 89.7676 2.94214 89.8016C2.95328 89.8355 2.97102 89.8668 2.99433 89.8939C3.01764 89.9209 3.04607 89.9431 3.07797 89.9591C3.10988 89.9751 3.14464 89.9847 3.18025 89.9872Z" fill="white"/>
<path d="M10.586 83.6875H10.2649C9.91582 83.6875 9.63281 83.9705 9.63281 84.3195V93.0871C9.63281 93.4361 9.91582 93.7191 10.2649 93.7191H10.586C10.9351 93.7191 11.2181 93.4361 11.2181 93.0871V84.3195C11.2181 83.9705 10.9351 83.6875 10.586 83.6875Z" fill="white"/>
<path d="M34.5631 83.6678C35.1309 83.6608 35.6948 83.7857 36.2226 84.0354C36.7503 84.2851 37.2316 84.6546 37.6389 85.1228C38.0462 85.5911 38.3716 86.1489 38.5965 86.7645C38.8214 87.3801 38.9413 88.0414 38.9495 88.7105C38.9577 89.3797 38.8539 90.0437 38.6442 90.6646C38.4344 91.2855 38.1228 91.8511 37.727 92.3292C37.3313 92.8073 36.8592 93.1884 36.3377 93.4509C35.8162 93.7134 35.2555 93.8521 34.6877 93.859C34.1198 93.866 33.5559 93.741 33.0282 93.4914C32.5004 93.2417 32.0191 92.8722 31.6118 92.4039C31.2045 91.9357 30.8791 91.3778 30.6542 90.7623C30.4294 90.1467 30.3094 89.4854 30.3012 88.8162C30.293 88.1471 30.3968 87.4831 30.6065 86.8622C30.8163 86.2413 31.1279 85.6757 31.5237 85.1976C31.9194 84.7195 32.3915 84.3383 32.913 84.0759C33.4345 83.8134 33.9952 83.6747 34.5631 83.6678ZM34.7144 85.2029C34.004 85.1893 33.3155 85.5545 32.8003 86.2182C32.285 86.8819 31.9853 87.7898 31.967 88.742C31.9579 89.2136 32.0182 89.6818 32.1445 90.12C32.2707 90.5582 32.4604 90.9579 32.7027 91.2961C32.945 91.6342 33.2352 91.9044 33.5567 92.0911C33.8782 92.2778 34.2248 92.3773 34.5765 92.3841C35.2869 92.3977 35.9754 92.0325 36.4906 91.3688C37.0058 90.7051 37.3056 89.7972 37.3239 88.8449C37.3329 88.3734 37.2726 87.9052 37.1464 87.4669C37.0201 87.0287 36.8304 86.6291 36.5881 86.2909C36.3458 85.9527 36.0556 85.6826 35.7341 85.4959C35.4126 85.3092 35.0661 85.2096 34.7144 85.2029Z" fill="white"/>
<path d="M62.763 86.5465L60.6359 85.3127C60.503 85.2356 60.3561 85.1856 60.2038 85.1656C60.0514 85.1456 59.8967 85.156 59.7483 85.1961C59.6 85.2362 59.4611 85.3052 59.3397 85.3993C59.2182 85.4933 59.1165 85.6105 59.0405 85.744L58.8198 86.1352C58.7744 86.2136 58.7465 86.3008 58.7377 86.3909C58.729 86.4811 58.7398 86.572 58.7692 86.6576C58.7987 86.7432 58.8463 86.8215 58.9087 86.8872C58.9711 86.9528 59.0468 87.0043 59.1308 87.0381L62.5121 88.3723C62.9964 88.5642 63.4061 88.9067 63.6807 89.3493C63.9553 89.7918 64.0803 90.311 64.0372 90.83C63.7061 94.8326 58.4887 94.5517 57.1342 91.9335C57.026 91.7199 56.9799 91.48 57.0012 91.2407C57.0224 91.0014 57.1102 90.7723 57.2546 90.5792L57.3248 90.4889C57.3778 90.4186 57.4471 90.3623 57.5267 90.3248C57.6064 90.2873 57.6939 90.2698 57.7819 90.2737C57.8698 90.2777 57.9555 90.303 58.0314 90.3475C58.1074 90.392 58.1714 90.4543 58.2178 90.5291C59.3482 92.2679 60.6058 92.7226 61.9904 91.8934C62.1583 91.7951 62.295 91.6514 62.3849 91.4789C62.4747 91.3064 62.5141 91.112 62.4984 90.9181C62.4826 90.7243 62.4125 90.5388 62.296 90.383C62.1795 90.2272 62.0214 90.1074 61.8399 90.0375L58.288 88.6331C58.0303 88.5303 57.8193 88.3336 57.6961 88.0814C55.4686 83.5672 61.1275 82.5239 63.6961 85.4029C63.8159 85.5338 63.8844 85.7027 63.8892 85.8792C63.8941 86.0557 63.835 86.2283 63.7227 86.366C63.6103 86.5038 63.4519 86.5976 63.276 86.6307C63.1002 86.6638 62.9182 86.6339 62.763 86.5465Z" fill="white"/>
<path d="M72.25 83.6772C72.6848 83.6772 72.959 83.801 73.0727 84.0484C74.2968 86.7636 75.3905 89.7764 76.3537 93.0869C76.3863 93.2055 76.3825 93.3312 76.3425 93.4476C76.3026 93.564 76.2285 93.6657 76.1299 93.7394C76.0313 93.813 75.9128 93.8553 75.7899 93.8605C75.6669 93.8658 75.5452 93.8339 75.4406 93.769C74.939 93.448 74.5677 92.8862 74.3269 92.0837C74.2772 91.9096 74.1855 91.7501 74.0596 91.619C73.9337 91.4879 73.7775 91.3892 73.6045 91.3313C73.5978 91.3313 73.1396 91.3313 72.2299 91.3313C71.3269 91.3313 70.8687 91.3313 70.8553 91.3313C70.6823 91.3892 70.5261 91.4879 70.4003 91.619C70.2744 91.7501 70.1826 91.9096 70.1329 92.0837C69.8921 92.8862 69.5242 93.448 69.0292 93.769C68.9246 93.8374 68.8016 93.8722 68.6766 93.8687C68.5517 93.8651 68.4308 93.8234 68.3303 93.7491C68.2297 93.6748 68.1544 93.5715 68.1143 93.4531C68.0743 93.3347 68.0714 93.2069 68.1062 93.0869C69.0694 89.7764 70.163 86.7636 71.3871 84.0484C71.5008 83.801 71.7884 83.6772 72.25 83.6772ZM71.357 89.957L72.9925 90.0172C73.0228 90.0185 73.0531 90.0139 73.0816 90.0035C73.1101 89.9932 73.1363 89.9773 73.1586 89.9568C73.181 89.9363 73.1991 89.9116 73.2119 89.8841C73.2247 89.8566 73.232 89.8268 73.2333 89.7965L73.2433 89.6761C73.2741 88.8672 73.2059 88.0878 73.0536 87.5087C72.9012 86.9296 72.6772 86.5979 72.4306 86.5864L72.1898 86.5764C72.0671 86.5701 71.9426 86.6432 71.8232 86.7917C71.7038 86.9401 71.5919 87.161 71.4941 87.4415C71.3962 87.722 71.3142 88.0567 71.2528 88.4264C71.1914 88.7961 71.1518 89.1935 71.1363 89.5959L71.1262 89.7163C71.1249 89.7474 71.1299 89.7785 71.1408 89.8076C71.1518 89.8368 71.1686 89.8634 71.1902 89.8859C71.2117 89.9084 71.2376 89.9263 71.2663 89.9385C71.295 89.9508 71.3258 89.957 71.357 89.957Z" fill="white"/>
<path d="M81.3695 92.3644C82.3662 92.3577 82.9314 91.8729 83.0652 90.9099C83.2057 89.9401 83.209 87.8135 83.0752 84.5298C83.0708 84.4215 83.0892 84.3134 83.1292 84.2127C83.1692 84.112 83.23 84.0208 83.3076 83.9451C83.3852 83.8694 83.4779 83.8109 83.5796 83.7734C83.6813 83.7358 83.7898 83.7201 83.898 83.7273L83.9883 83.7373C84.2216 83.7527 84.4401 83.857 84.5988 84.0287C84.7575 84.2004 84.8442 84.4264 84.8411 84.6602C84.8211 88.5223 86.1053 93.7689 81.3796 93.809C76.6438 93.8491 77.8478 88.5825 77.7575 84.7204C77.7516 84.4865 77.8358 84.2593 77.9927 84.0857C78.1495 83.9121 78.367 83.8054 78.6003 83.7874L78.6906 83.7674C78.7987 83.7589 78.9074 83.7732 79.0096 83.8095C79.1118 83.8458 79.2052 83.9032 79.2838 83.9779C79.3623 84.0527 79.4242 84.1431 79.4655 84.2434C79.5068 84.3437 79.5265 84.4515 79.5234 84.5599C79.4431 87.8435 79.4799 89.9702 79.6337 90.94C79.7876 91.8963 80.3662 92.3711 81.3695 92.3644Z" fill="white"/>
<path d="M98.1869 89.3055C97.8457 89.3055 97.4444 89.2854 96.9829 89.2453C96.8949 89.2369 96.8062 89.247 96.7224 89.275C96.6387 89.3029 96.5617 89.3482 96.4964 89.4077C96.4312 89.4672 96.3792 89.5398 96.3437 89.6207C96.3083 89.7016 96.2902 89.789 96.2906 89.8773V93.1175C96.2906 93.3064 96.2155 93.4875 96.0819 93.6211C95.9483 93.7547 95.7671 93.8297 95.5782 93.8297H95.1969C95.0452 93.8297 94.8998 93.7705 94.7925 93.6652C94.6853 93.5598 94.625 93.4169 94.625 93.268L94.6551 84.6107C94.6551 84.3872 94.7439 84.1729 94.902 84.0149C95.06 83.8568 95.2744 83.7681 95.4979 83.7681L95.5782 83.7781C95.7796 83.7807 95.9721 83.8619 96.1145 84.0043C96.257 84.1467 96.3381 84.3391 96.3407 84.5405L96.3909 87.1587C96.393 87.3232 96.4561 87.4807 96.5678 87.5997C96.6794 87.7188 96.8313 87.7906 96.9929 87.8008C97.2605 87.8141 97.6618 87.8242 98.1969 87.8309C98.732 87.8309 99.13 87.8242 99.3909 87.8108C99.5526 87.8032 99.7055 87.7339 99.819 87.6167C99.9325 87.4995 99.9982 87.3431 100.003 87.1788L100.073 84.5606C100.076 84.3575 100.158 84.1635 100.303 84.0208C100.448 83.8781 100.643 83.7981 100.846 83.7982L100.926 83.7881C101.037 83.7894 101.146 83.8125 101.248 83.8561C101.35 83.8997 101.442 83.9628 101.519 84.042C101.596 84.1212 101.657 84.2148 101.699 84.3176C101.74 84.4203 101.76 84.5302 101.759 84.6408L101.719 93.2981C101.719 93.3727 101.704 93.4466 101.674 93.5154C101.645 93.5842 101.602 93.6466 101.548 93.6989C101.494 93.7512 101.429 93.7923 101.359 93.82C101.288 93.8476 101.213 93.8611 101.137 93.8598L100.755 93.8498C100.568 93.8472 100.39 93.771 100.258 93.6377C100.127 93.5044 100.053 93.3247 100.053 93.1376L100.073 89.8974C100.075 89.8091 100.058 89.7215 100.024 89.6402C99.9896 89.5589 99.9387 89.4856 99.8744 89.4251C99.8101 89.3646 99.7339 89.3183 99.6506 89.289C99.5674 89.2598 99.4789 89.2483 99.3909 89.2553C98.9294 89.2888 98.528 89.3055 98.1869 89.3055Z" fill="white"/>
<path d="M129.866 86.2458V92.8566C129.866 92.9791 129.842 93.1005 129.796 93.2136C129.749 93.3268 129.681 93.4297 129.596 93.5163C129.51 93.603 129.408 93.6717 129.296 93.7186C129.184 93.7654 129.064 93.7896 128.943 93.7896H128.672C128.614 93.7896 128.557 93.7781 128.503 93.756C128.449 93.7338 128.401 93.7013 128.36 93.6603C128.319 93.6193 128.286 93.5706 128.264 93.5171C128.242 93.4635 128.23 93.4061 128.23 93.3482V86.306C128.23 86.1191 128.163 85.9389 128.041 85.7987C127.919 85.6585 127.751 85.5679 127.568 85.5436L125.772 85.3129C125.591 85.3023 125.422 85.2202 125.302 85.0847C125.181 84.9493 125.119 84.7715 125.13 84.5906C125.141 84.4097 125.223 84.2404 125.358 84.12C125.494 83.9996 125.672 83.938 125.852 83.9486H134.351C134.542 83.9491 134.729 84.0007 134.891 84.0979C135.054 84.1951 135.186 84.3342 135.274 84.5003L136.588 86.9781C136.633 87.0605 136.699 87.1295 136.779 87.1783C136.859 87.2271 136.95 87.2538 137.044 87.2559C137.138 87.2579 137.23 87.2352 137.312 87.1899C137.394 87.1447 137.463 87.0785 137.511 86.9982L139.147 84.1593C139.251 83.9801 139.405 83.8353 139.591 83.7426C139.776 83.65 139.985 83.6135 140.19 83.6376L140.521 83.6777C140.607 83.6873 140.688 83.7182 140.758 83.7674C140.829 83.8167 140.885 83.8828 140.923 83.9598C140.961 84.0367 140.979 84.1219 140.976 84.2076C140.972 84.2933 140.947 84.3767 140.903 84.4502L138.133 89.2553C137.936 89.5969 137.832 89.9844 137.832 90.3788V93.1877C137.832 93.268 137.816 93.3476 137.785 93.4218C137.754 93.4961 137.708 93.5635 137.65 93.6204C137.593 93.6772 137.524 93.7223 137.448 93.753C137.373 93.7838 137.292 93.7996 137.21 93.7996H136.809C136.733 93.7998 136.659 93.7845 136.589 93.7546C136.52 93.7248 136.458 93.6811 136.407 93.6263C136.356 93.5715 136.317 93.5068 136.293 93.4364C136.269 93.3661 136.26 93.2916 136.267 93.2178C136.475 90.5962 135.659 88.0114 133.819 85.4634C133.688 85.2803 133.505 85.1412 133.294 85.0642C133.083 84.9872 132.853 84.976 132.635 85.032L130.428 85.5436C130.268 85.5799 130.126 85.6691 130.024 85.7966C129.922 85.9242 129.866 86.0825 129.866 86.2458Z" fill="white"/>
<path d="M149.596 83.6187C150.181 83.6319 150.757 83.7786 151.291 84.0505C151.826 84.3223 152.308 84.7139 152.711 85.2029C153.114 85.6918 153.429 86.2687 153.638 86.9004C153.848 87.5321 153.948 88.2064 153.933 88.8846C153.917 89.5629 153.787 90.2319 153.549 90.8535C153.311 91.4751 152.97 92.037 152.545 92.5072C152.121 92.9775 151.621 93.3468 151.075 93.5941C150.529 93.8414 149.946 93.9618 149.362 93.9486C148.777 93.9353 148.201 93.7886 147.666 93.5168C147.132 93.245 146.649 92.8534 146.247 92.3644C145.844 91.8754 145.529 91.2986 145.319 90.6668C145.11 90.0351 145.01 89.3609 145.025 88.6826C145.04 88.0043 145.171 87.3353 145.409 86.7137C145.647 86.0922 145.988 85.5302 146.412 85.06C146.837 84.5898 147.336 84.2205 147.883 83.9732C148.429 83.7259 149.011 83.6054 149.596 83.6187ZM149.494 85.2429C149.157 85.2376 148.821 85.3236 148.507 85.4962C148.193 85.6687 147.905 85.9244 147.662 86.2485C147.418 86.5726 147.223 86.9588 147.087 87.3852C146.951 87.8115 146.878 88.2696 146.87 88.7333C146.863 89.1969 146.922 89.6571 147.045 90.0875C147.167 90.5179 147.35 90.91 147.583 91.2416C147.817 91.5733 148.096 91.8378 148.405 92.0201C148.713 92.2024 149.046 92.299 149.383 92.3043C149.72 92.3096 150.056 92.2235 150.37 92.051C150.685 91.8784 150.972 91.6228 151.215 91.2987C151.459 90.9746 151.654 90.5883 151.79 90.162C151.926 89.7356 152 89.2776 152.007 88.8139C152.014 88.3503 151.955 87.8901 151.833 87.4597C151.71 87.0293 151.527 86.6371 151.294 86.3055C151.061 85.9739 150.782 85.7094 150.473 85.5271C150.164 85.3447 149.831 85.2482 149.494 85.2429Z" fill="white"/>
<path d="M167.375 83.7476L167.294 83.7471C166.823 83.7447 166.439 84.1244 166.437 84.5953L166.393 92.9816C166.391 93.4525 166.77 93.8363 167.241 93.8388L167.322 93.8392C167.793 93.8416 168.176 93.4619 168.179 92.991L168.223 84.6047C168.225 84.1338 167.846 83.75 167.375 83.7476Z" fill="white"/>
<path d="M174.292 88.4221C174.619 88.9772 174.787 89.2581 174.793 89.2648C174.837 89.3114 174.894 89.3444 174.956 89.3595C175.019 89.3747 175.084 89.3712 175.143 89.3496C175.203 89.328 175.254 89.2892 175.29 89.2383C175.326 89.1874 175.345 89.1267 175.345 89.0641L175.425 84.3794C175.428 84.2028 175.501 84.0344 175.629 83.9105C175.756 83.7867 175.928 83.7173 176.108 83.7173H176.399C176.574 83.7173 176.743 83.7871 176.867 83.9112C176.991 84.0354 177.061 84.2038 177.061 84.3794V93.0065C177.063 93.2258 176.992 93.4395 176.859 93.6138C176.726 93.788 176.538 93.9127 176.326 93.968C176.114 94.0234 175.889 94.0062 175.688 93.9192C175.486 93.8323 175.32 93.6805 175.215 93.488C174.365 91.9699 173.536 90.5254 172.726 89.1544C172.405 88.606 172.238 88.3251 172.225 88.3118C172.181 88.2651 172.124 88.2321 172.062 88.217C171.999 88.2019 171.934 88.2053 171.875 88.2269C171.815 88.2486 171.764 88.2873 171.728 88.3382C171.692 88.3891 171.673 88.4498 171.673 88.5124L171.593 93.1971C171.59 93.3737 171.517 93.5421 171.389 93.666C171.262 93.7899 171.089 93.8593 170.91 93.8592H170.619C170.444 93.8592 170.275 93.7895 170.151 93.6653C170.027 93.5411 169.957 93.3727 169.957 93.1971V84.57C169.955 84.3507 170.026 84.137 170.159 83.9628C170.292 83.7885 170.48 83.6638 170.692 83.6085C170.904 83.5531 171.129 83.5703 171.33 83.6573C171.532 83.7443 171.698 83.896 171.803 84.0885C172.653 85.6066 173.482 87.0511 174.292 88.4221Z" fill="white"/>
<path d="M189.323 83.7482L188.701 83.7471C188.374 83.7466 188.109 84.0111 188.108 84.338L188.093 93.2058C188.092 93.5327 188.357 93.7982 188.684 93.7987L189.306 93.7998C189.633 93.8004 189.898 93.5359 189.899 93.209L189.914 84.3411C189.915 84.0142 189.65 83.7488 189.323 83.7482Z" fill="white"/>
<path d="M195.249 91.3918C194.333 91.3985 193.868 91.4019 193.855 91.4019C193.681 91.4623 193.524 91.5633 193.398 91.696C193.272 91.8288 193.181 91.9894 193.132 92.1643C192.891 92.9802 192.52 93.552 192.019 93.8797C191.913 93.9536 191.787 93.9925 191.659 93.9908C191.53 93.9891 191.405 93.947 191.302 93.8703C191.199 93.7937 191.122 93.6865 191.083 93.5639C191.044 93.4413 191.045 93.3096 191.085 93.1875C192.042 89.8369 193.132 86.784 194.356 84.0287C194.47 83.7812 194.761 83.6541 195.229 83.6475C195.671 83.6475 195.948 83.7712 196.062 84.0186C197.313 86.7606 198.433 89.8035 199.423 93.1474C199.462 93.2673 199.462 93.3963 199.425 93.5165C199.387 93.6368 199.314 93.7426 199.214 93.8194C199.114 93.8962 198.993 93.9404 198.867 93.9458C198.741 93.9512 198.616 93.9176 198.51 93.8496C197.995 93.5219 197.617 92.9534 197.376 92.1442C197.325 91.9701 197.232 91.8108 197.104 91.6798C196.977 91.5488 196.819 91.45 196.644 91.3918C196.631 91.3851 196.166 91.3851 195.249 91.3918ZM195.179 89.8871C195.56 89.8871 195.774 89.8804 195.821 89.867C195.976 89.8164 196.105 89.7071 196.18 89.5627C196.255 89.4183 196.27 89.2502 196.223 89.0946C195.748 87.5564 195.403 86.784 195.189 86.7773C194.975 86.7773 194.624 87.5464 194.136 89.0846C194.088 89.2402 194.104 89.4083 194.179 89.5527C194.254 89.6971 194.382 89.8063 194.537 89.857C194.577 89.8704 194.791 89.8804 195.179 89.8871Z" fill="white"/>
<path d="M14.1352 93.7291L13.7238 93.7191C13.65 93.7178 13.5772 93.7019 13.5095 93.6725C13.4419 93.6431 13.3807 93.6006 13.3294 93.5475C13.2782 93.4944 13.2379 93.4317 13.2109 93.363C13.1839 93.2944 13.1706 93.2211 13.172 93.1473L13.3225 84.5904C13.3251 84.4245 13.3929 84.2663 13.5111 84.1499C13.6294 84.0336 13.7887 83.9684 13.9546 83.9684C16.0415 83.9617 17.5131 84.0085 18.3693 84.1088C20.6469 84.3295 21.0483 87.8105 19.182 88.8136C18.7673 89.041 18.5867 89.3553 18.6402 89.7566C18.6533 89.8292 18.6842 89.9011 18.7305 89.9673L20.6469 92.9667C20.6959 93.0409 20.7239 93.1269 20.7278 93.2157C20.7317 93.3045 20.7115 93.3927 20.6693 93.4709C20.6271 93.5492 20.5645 93.6145 20.4881 93.6599C20.4117 93.7054 20.3244 93.7293 20.2355 93.7291H19.8543C19.6535 93.725 19.4567 93.6727 19.2803 93.5767C19.104 93.4807 18.9533 93.3437 18.8409 93.1774C18.1319 92.1341 17.4596 91.0841 16.8242 90.0275C16.5767 89.6195 16.1954 89.3921 15.6803 89.3453C15.5768 89.3385 15.473 89.3525 15.3753 89.3866C15.2775 89.4207 15.1879 89.4741 15.1118 89.5436C15.0357 89.6131 14.9748 89.6972 14.9328 89.7907C14.8909 89.8843 14.8687 89.9853 14.8676 90.0876L14.8175 93.067C14.8162 93.1553 14.7975 93.2424 14.7625 93.3235C14.7275 93.4045 14.6768 93.4779 14.6135 93.5394C14.5501 93.6008 14.4753 93.6493 14.3932 93.6818C14.3111 93.7144 14.2235 93.7304 14.1352 93.7291ZM18.8817 86.4949C18.864 86.3034 18.79 86.119 18.6642 85.9522C18.5383 85.7854 18.3629 85.6395 18.1481 85.5229C17.9333 85.4062 17.6832 85.3211 17.4122 85.2723C17.1411 85.2235 16.8544 85.2121 16.5684 85.2386C16.2824 85.2651 16.0027 85.3291 15.7452 85.4269C15.4878 85.5247 15.2576 85.6544 15.068 85.8086C14.8783 85.9628 14.7328 86.1384 14.6398 86.3255C14.5467 86.5126 14.508 86.7075 14.5258 86.899C14.5436 87.0905 14.6175 87.2749 14.7434 87.4417C14.8692 87.6085 15.0446 87.7544 15.2594 87.8711C15.4742 87.9877 15.7243 88.0729 15.9953 88.1217C16.2664 88.1704 16.5531 88.1819 16.8391 88.1554C17.1251 88.1288 17.4048 88.0648 17.6623 87.967C17.9197 87.8692 18.1499 87.7395 18.3395 87.5854C18.5292 87.4312 18.6747 87.2555 18.7678 87.0684C18.8608 86.8813 18.8995 86.6865 18.8817 86.4949Z" fill="white"/>
<path d="M23.9006 93.1269C23.9006 93.2112 23.884 93.2947 23.8517 93.3726C23.8195 93.4505 23.7722 93.5213 23.7125 93.5809C23.6529 93.6405 23.5821 93.6878 23.5042 93.7201C23.4263 93.7523 23.3428 93.7689 23.2585 93.7689H22.8872C22.7462 93.7689 22.6109 93.7119 22.5112 93.6103C22.4115 93.5087 22.3555 93.3709 22.3555 93.2272V84.5499C22.3555 84.4169 22.4083 84.2893 22.5024 84.1953C22.5965 84.1012 22.7241 84.0483 22.8571 84.0483H27.2317C27.4898 84.0482 27.7431 84.1226 27.9617 84.263C28.1803 84.4034 28.3552 84.6039 28.4659 84.8408C29.4291 86.914 29.0712 88.5224 27.3923 89.666C27.2422 89.7707 27.0636 89.8267 26.8806 89.8265H24.4826C24.3282 89.8265 24.1802 89.8878 24.0711 89.9969C23.9619 90.1061 23.9006 90.2541 23.9006 90.4084V93.1269ZM23.6744 86.7031C23.6221 87.1229 23.7702 87.5502 24.0861 87.8909C24.402 88.2317 24.8599 88.4581 25.359 88.5202C25.8581 88.5824 26.3575 88.4752 26.7474 88.2223C27.1372 87.9695 27.3856 87.5915 27.4379 87.1718C27.4902 86.752 27.3421 86.3247 27.0262 85.9839C26.7103 85.6432 26.2524 85.4168 25.7533 85.3547C25.2542 85.2925 24.7548 85.3997 24.365 85.6526C23.9751 85.9054 23.7267 86.2833 23.6744 86.7031Z" fill="white"/>
<path d="M40.5586 93.3878V84.6904C40.5586 84.5218 40.6248 84.3601 40.7431 84.2399C40.8614 84.1198 41.0221 84.051 41.1907 84.0484C43.3111 84.0083 44.8061 84.0283 45.6757 84.1086C47.9934 84.2992 48.465 87.8303 46.5887 88.8836C46.1673 89.1177 45.9901 89.4387 46.0569 89.8466C46.0703 89.9193 46.1011 89.9912 46.1472 90.0573L48.1539 93.0768C48.2047 93.1519 48.2342 93.2394 48.2392 93.33C48.2442 93.4206 48.2246 93.5108 48.1824 93.5911C48.1402 93.6714 48.077 93.7387 47.9995 93.7859C47.9221 93.8331 47.8333 93.8585 47.7426 93.8592H47.3613C47.1566 93.8594 46.955 93.8102 46.7733 93.7159C46.5917 93.6216 46.4355 93.485 46.3178 93.3176C45.582 92.2743 44.8797 91.221 44.2108 90.1576C43.9499 89.743 43.5586 89.5189 43.0369 89.4855C42.932 89.4801 42.8272 89.4957 42.7288 89.5316C42.6303 89.5675 42.5403 89.6228 42.4642 89.6941C42.3882 89.7654 42.3277 89.8513 42.2864 89.9466C42.2451 90.0418 42.2239 90.1443 42.2242 90.2479V93.2774C42.2242 93.4583 42.1523 93.6318 42.0243 93.7598C41.8964 93.8877 41.7228 93.9596 41.5419 93.9596H41.1305C40.9788 93.9596 40.8334 93.8993 40.7261 93.7921C40.6188 93.6849 40.5586 93.5394 40.5586 93.3878ZM45.9823 86.5475C45.9776 86.3895 45.9418 86.234 45.877 86.0898C45.8122 85.9456 45.7196 85.8156 45.6045 85.7071C45.4895 85.5987 45.3542 85.514 45.2063 85.4579C45.0585 85.4018 44.9011 85.3753 44.7431 85.38L43.1785 85.4264C43.0205 85.4311 42.8649 85.4669 42.7207 85.5317C42.5765 85.5965 42.4464 85.6891 42.338 85.8041C42.2295 85.9192 42.1448 86.0544 42.0887 86.2022C42.0325 86.35 42.006 86.5074 42.0107 86.6654L42.0179 86.9061C42.0226 87.0641 42.0583 87.2196 42.1231 87.3638C42.188 87.508 42.2805 87.6381 42.3956 87.7465C42.5107 87.8549 42.646 87.9396 42.7938 87.9957C42.9416 88.0519 43.0991 88.0783 43.2571 88.0736L44.8216 88.0272C44.9797 88.0225 45.1352 87.9868 45.2795 87.922C45.4237 87.8572 45.5537 87.7646 45.6622 87.6495C45.7706 87.5345 45.8553 87.3992 45.9115 87.2514C45.9676 87.1036 45.9941 86.9462 45.9894 86.7882L45.9823 86.5475Z" fill="white"/>
<path d="M52.4956 84.0087C53.5324 83.9351 54.5157 83.9117 55.4454 83.9384C55.6174 83.9405 55.7825 84.0073 55.9086 84.126C56.0348 84.2447 56.1128 84.4067 56.1277 84.5805V84.6106C56.1341 84.7761 56.0783 84.9383 55.9709 85.066C55.8635 85.1938 55.7121 85.2781 55.5458 85.3027L53.5591 85.5836C53.5 85.592 53.4436 85.6135 53.3936 85.6465C53.3437 85.6795 53.3015 85.7233 53.27 85.7748C53.2385 85.8264 53.2185 85.8844 53.2112 85.9449C53.204 86.0055 53.2097 86.067 53.228 86.1253C53.2347 86.1454 53.2782 88.2487 53.3585 92.4352C53.3785 93.3514 53.0943 93.8128 52.5056 93.8195C51.9504 93.8195 51.6795 93.3614 51.6929 92.4452C51.7397 88.2587 51.7665 86.1554 51.7732 86.1353C51.7915 86.0763 51.797 86.014 51.7891 85.9528C51.7813 85.8916 51.7603 85.8331 51.7278 85.7814C51.6952 85.7297 51.6518 85.6861 51.6007 85.6537C51.5496 85.6212 51.492 85.6007 51.432 85.5937L49.4454 85.3228C49.2809 85.2983 49.1309 85.2155 49.0237 85.0899C48.9165 84.9643 48.8596 84.8045 48.8635 84.6407V84.6106C48.8758 84.4367 48.9514 84.2736 49.0757 84.1531C49.1999 84.0326 49.3639 83.9632 49.5357 83.9585C50.4722 83.9251 51.4588 83.9418 52.4956 84.0087Z" fill="white"/>
<path d="M89.9037 93.809C89.3151 93.8157 89.0208 93.361 89.0208 92.4447C89.0341 88.2582 89.0442 86.1549 89.0509 86.1349C89.0692 86.0758 89.0746 86.0135 89.0667 85.9524C89.0589 85.8912 89.0379 85.8327 89.0054 85.781C88.9728 85.7293 88.9294 85.6857 88.8784 85.6532C88.8273 85.6208 88.7697 85.6003 88.7097 85.5932L86.7231 85.3524C86.5549 85.3301 86.4011 85.2467 86.2916 85.1188C86.1821 84.9908 86.1249 84.8273 86.1311 84.6602L86.1211 84.6301C86.1334 84.4562 86.209 84.2932 86.3333 84.1726C86.4575 84.0521 86.6215 83.9828 86.7933 83.9781C87.7298 83.938 88.7164 83.9447 89.7532 83.9982C90.79 83.9179 91.7733 83.8878 92.7031 83.9079C92.8752 83.9072 93.0414 83.9715 93.1694 84.0884C93.2974 84.2052 93.378 84.3662 93.3954 84.5399V84.57C93.4043 84.7371 93.3497 84.9018 93.242 85.0317C93.1344 85.1616 92.9815 85.2473 92.8134 85.2722L90.8368 85.5731C90.7777 85.5815 90.7212 85.6029 90.6713 85.6359C90.6213 85.6689 90.5791 85.7127 90.5476 85.7643C90.5161 85.8158 90.4961 85.8739 90.4888 85.9344C90.4816 85.9949 90.4874 86.0565 90.5057 86.1148C90.5124 86.1349 90.576 88.2382 90.6964 92.4247C90.7231 93.3409 90.4589 93.8023 89.9037 93.809Z" fill="white"/>
<path d="M107.703 83.6676C108.866 83.6778 109.976 84.2286 110.79 85.199C111.604 86.1693 112.054 87.4797 112.043 88.8418C112.037 89.5163 111.917 90.1831 111.692 90.8043C111.466 91.4255 111.138 91.9889 110.727 92.4623C110.315 92.9356 109.829 93.3097 109.295 93.5632C108.76 93.8167 108.189 93.9446 107.613 93.9395C106.45 93.9294 105.34 93.3785 104.526 92.4082C103.712 91.4379 103.262 90.1275 103.274 88.7654C103.28 88.0909 103.399 87.424 103.625 86.8028C103.85 86.1816 104.178 85.6183 104.59 85.1449C105.001 84.6715 105.487 84.2974 106.022 84.0439C106.556 83.7905 107.127 83.6626 107.703 83.6676ZM107.686 85.2125C107.331 85.2088 106.979 85.2977 106.65 85.4742C106.321 85.6508 106.02 85.9114 105.766 86.2413C105.512 86.5712 105.309 86.9639 105.169 87.397C105.029 87.83 104.954 88.295 104.949 88.7653C104.944 89.2355 105.009 89.7019 105.14 90.1378C105.271 90.5737 105.466 90.9706 105.713 91.3058C105.96 91.6409 106.255 91.9078 106.581 92.0912C106.906 92.2746 107.256 92.3709 107.611 92.3746C107.965 92.3783 108.317 92.2894 108.646 92.1129C108.976 91.9363 109.276 91.6757 109.53 91.3458C109.784 91.0159 109.987 90.6232 110.127 90.1901C110.267 89.7571 110.342 89.2921 110.347 88.8218C110.352 88.3516 110.287 87.8852 110.156 87.4493C110.025 87.0133 109.83 86.6165 109.583 86.2813C109.336 85.9462 109.041 85.6793 108.716 85.4959C108.39 85.3125 108.04 85.2162 107.686 85.2125Z" fill="white"/>
<path d="M114.454 93.7688H114.042C113.967 93.7675 113.893 93.7514 113.824 93.7214C113.755 93.6915 113.693 93.6483 113.641 93.5942C113.589 93.5402 113.548 93.4764 113.52 93.4065C113.493 93.3367 113.479 93.262 113.481 93.187L113.561 84.5297C113.563 84.3629 113.631 84.2037 113.749 84.0857C113.867 83.9677 114.026 83.9003 114.193 83.8977C116.307 83.8777 117.795 83.9111 118.658 83.9981C120.966 84.2087 121.397 87.7298 119.521 88.763C119.099 88.9904 118.919 89.3081 118.979 89.716C118.992 89.789 119.023 89.8609 119.069 89.9267L121.046 92.9562C121.094 93.032 121.122 93.1193 121.125 93.2093C121.128 93.2992 121.107 93.3883 121.064 93.4673C121.021 93.5463 120.957 93.6122 120.88 93.6582C120.803 93.7042 120.714 93.7285 120.624 93.7287L120.243 93.7186C120.04 93.7171 119.84 93.6672 119.661 93.573C119.481 93.4788 119.326 93.343 119.21 93.1769C118.487 92.127 117.798 91.0703 117.143 90.007C116.889 89.5923 116.501 89.3649 115.979 89.3248C115.875 89.3194 115.771 89.3347 115.673 89.37C115.575 89.4052 115.486 89.4596 115.41 89.5299C115.334 89.6002 115.273 89.6849 115.231 89.7789C115.189 89.873 115.167 89.9744 115.166 90.0772L115.136 93.0967C115.133 93.2758 115.06 93.4468 114.933 93.5726C114.805 93.6983 114.633 93.7688 114.454 93.7688ZM119.001 86.5333C119.002 86.3805 118.973 86.2289 118.916 86.0872C118.859 85.9455 118.774 85.8165 118.667 85.7075C118.56 85.5985 118.432 85.5117 118.292 85.452C118.151 85.3923 118 85.3609 117.847 85.3595L116.202 85.3452C115.893 85.3425 115.596 85.4625 115.376 85.6788C115.155 85.8951 115.03 86.19 115.028 86.4986L115.024 86.8999C115.023 87.0527 115.051 87.2043 115.109 87.346C115.166 87.4877 115.251 87.6167 115.358 87.7257C115.465 87.8347 115.592 87.9215 115.733 87.9812C115.874 88.0409 116.025 88.0723 116.178 88.0737L117.823 88.088C118.132 88.0907 118.429 87.9707 118.649 87.7544C118.869 87.5381 118.994 87.2432 118.997 86.9346L119.001 86.5333Z" fill="white"/>
<path d="M123.86 83.8958L123.017 83.9002C122.79 83.9014 122.606 84.0865 122.608 84.3136L122.654 93.1814C122.655 93.4086 122.84 93.5917 123.068 93.5905L123.91 93.5861C124.138 93.5849 124.321 93.3998 124.32 93.1727L124.273 84.3049C124.272 84.0778 124.087 83.8946 123.86 83.8958Z" fill="white"/>
<path d="M157.205 90.1681C157.065 90.8302 157.058 91.7364 157.185 92.8866C157.198 93.0104 157.185 93.1354 157.146 93.2537C157.107 93.372 157.045 93.4809 156.961 93.5734C156.878 93.666 156.777 93.7402 156.663 93.7912C156.55 93.8422 156.427 93.869 156.302 93.8697H155.921C155.754 93.8697 155.593 93.8031 155.474 93.6846C155.356 93.5661 155.289 93.4053 155.289 93.2377V84.5203C155.289 84.3367 155.362 84.1607 155.492 84.0309C155.622 83.9011 155.798 83.8281 155.981 83.8281H161.038C161.198 83.8281 161.351 83.8916 161.464 84.0044C161.577 84.1173 161.64 84.2704 161.64 84.43V84.9015C161.64 84.9871 161.624 85.0719 161.591 85.151C161.559 85.2302 161.512 85.302 161.452 85.3626C161.393 85.4231 161.322 85.4712 161.244 85.5039C161.166 85.5367 161.082 85.5536 160.998 85.5536H157.797C157.582 85.5536 157.375 85.6392 157.223 85.7915C157.07 85.9439 156.985 86.1506 156.985 86.3661V87.2088C156.984 87.3019 157.004 87.3939 157.044 87.4781C157.084 87.5622 157.143 87.6364 157.216 87.6951C157.29 87.7539 157.375 87.7956 157.467 87.8174C157.559 87.8391 157.655 87.8402 157.747 87.8207C158.59 87.6334 159.53 87.6736 160.567 87.9411C160.75 87.9863 160.912 88.0978 161.02 88.2541C161.129 88.4104 161.176 88.6006 161.154 88.7882C161.131 88.9758 161.041 89.1477 160.899 89.2708C160.757 89.394 160.575 89.4599 160.386 89.4558H158.088C157.881 89.4557 157.679 89.5266 157.518 89.6563C157.358 89.7861 157.247 89.9668 157.205 90.1681Z" fill="white"/>
<path d="M179.02 84.4399C179.02 84.282 179.082 84.1304 179.192 84.0178C179.303 83.9052 179.454 83.8406 179.612 83.838L182.682 83.8179C183.687 83.8129 184.654 84.2275 185.369 84.9705C186.084 85.7136 186.489 86.7243 186.494 87.7804L186.515 89.7466C186.517 90.2697 186.422 90.7881 186.234 91.2724C186.046 91.7567 185.769 92.1972 185.418 92.5689C185.068 92.9406 184.651 93.2361 184.192 93.4386C183.733 93.6412 183.24 93.7467 182.742 93.7492L179.672 93.7692C179.592 93.7706 179.512 93.756 179.438 93.7263C179.364 93.6967 179.296 93.6526 179.24 93.5965C179.183 93.5405 179.137 93.4737 179.106 93.4C179.076 93.3263 179.06 93.2472 179.06 93.1673L179.02 84.4399ZM180.795 86.2957V91.3115C180.795 91.527 180.881 91.7337 181.034 91.8861C181.186 92.0384 181.393 92.1241 181.608 92.1241H182.391C183.005 92.1241 183.595 91.8567 184.03 91.3807C184.464 90.9047 184.709 90.2592 184.709 89.5861V88.0211C184.709 87.6879 184.649 87.3578 184.532 87.0499C184.416 86.742 184.245 86.4622 184.03 86.2265C183.814 85.9908 183.559 85.8039 183.278 85.6763C182.997 85.5488 182.695 85.4832 182.391 85.4832H181.608C181.393 85.4832 181.186 85.5688 181.034 85.7212C180.881 85.8735 180.795 86.0802 180.795 86.2957Z" fill="white"/>
</svg>
