<svg width="200" height="32" viewBox="0 0 200 32" fill="none" xmlns="http://www.w3.org/2000/svg">
<mask id="mask0_1378_21659" style="mask-type:luminance" maskUnits="userSpaceOnUse" x="0" y="7" width="49" height="18">
<path d="M45.5158 13.245V23.0262C45.5158 23.6931 46.0507 24.2365 46.7072 24.2612C47.3637 24.2612 47.8986 23.7178 47.8986 23.0509V13.245C47.8986 12.5781 47.3637 12.01 46.7072 12.01C46.0507 12.01 45.5158 12.5287 45.5158 13.2203V13.245ZM2.33414 20.3092C2.33414 19.2224 3.33102 18.5802 4.71692 18.5802C5.64085 18.5802 6.56478 18.7284 7.44009 18.9754V21.5195C7.22126 21.6924 6.39458 22.2358 4.83849 22.2358C3.20945 22.2111 2.33414 21.5195 2.33414 20.3092ZM1.60472 12.4793C1.14276 12.6522 0.826676 13.0968 0.826676 13.6155C0.826676 14.3318 1.48315 14.8505 2.48003 14.5294C3.25808 14.233 4.08475 14.0601 4.93574 14.0354C6.68635 14.0354 7.44009 14.7023 7.44009 16.2584V16.9994C6.51615 16.7524 5.54359 16.6289 4.57103 16.6289C1.50747 16.6042 0.097256 18.2838 0 20.1857V20.6056C0.097256 22.7298 1.62904 24.3353 4.61966 24.3353C6.27301 24.36 7.87774 23.9154 9.28795 23.0509C9.60403 22.878 9.77423 22.5075 9.7256 22.1617V16.2337C9.7256 13.1462 7.95068 11.8124 5.08163 11.8124C3.89024 11.8124 2.69885 12.0347 1.60472 12.4793ZM24.8975 20.3092C24.8975 19.2224 25.8701 18.5802 27.256 18.5802C28.1799 18.5802 29.1039 18.7284 29.9792 18.9754V21.5195C29.7603 21.6924 28.9337 22.2358 27.3776 22.2358C25.7728 22.2111 24.8975 21.5195 24.8975 20.3092M24.1681 12.4793C23.7062 12.6522 23.3901 13.0968 23.3901 13.6155C23.3901 14.3318 24.0466 14.8505 25.0434 14.5294C25.8215 14.233 26.6482 14.0601 27.4991 14.0354C29.2498 14.0354 30.0035 14.7023 30.0035 16.2584V16.9994C29.0796 16.7524 28.107 16.6289 27.1344 16.6289C23.9736 16.6289 22.5634 18.432 22.5634 20.408C22.5634 22.6557 24.0952 24.36 27.1831 24.36C28.8364 24.3847 30.4411 23.9401 31.8513 23.0756C32.1431 22.878 32.3133 22.5322 32.289 22.1864V16.2337C32.289 13.1462 30.5141 11.8124 27.6207 11.8124C26.4293 11.8124 25.2623 12.0347 24.1681 12.4793M34.3314 13.0474C33.991 13.245 33.8208 13.5908 33.8451 13.986V22.9768C33.8451 23.6437 34.38 24.2118 35.0365 24.2118C35.693 24.2118 36.2279 23.6684 36.2279 23.0015V22.9768V14.7764C37.0545 14.3318 37.9785 14.1342 38.9024 14.1342C40.3126 14.1342 41.5283 14.9246 41.5283 16.7524V23.0015C41.5283 23.6684 42.0632 24.2118 42.7197 24.2365C43.3762 24.2365 43.9111 23.7178 43.9111 23.0509V16.6289C43.9111 13.5414 42.2334 11.8124 38.9754 11.8124C36.6169 11.7877 34.9879 12.5534 34.3314 13.0474M13.5186 19.3459C13.47 18.4567 13.47 17.5675 13.5186 16.6783C13.6158 14.9987 14.4182 14.1342 16.1202 14.1342C17.0927 14.1342 18.041 14.3812 18.892 14.8258V21.1984C18.1139 21.6924 17.2143 21.9888 16.3147 22.0135C14.5641 22.0135 13.6402 21.0996 13.5186 19.3459M18.892 9.04602V12.4546C17.9681 12.0347 16.9712 11.8124 15.95 11.7877C13.0566 11.7877 11.379 13.5414 11.1358 16.3819C11.0629 17.4687 11.0629 18.5555 11.1358 19.6176C11.379 22.4334 13.2268 24.3106 16.2661 24.3106C17.8951 24.2859 19.4998 23.7919 20.8614 22.878C21.1775 22.6804 21.3477 22.3346 21.2991 21.9641V9.02132C21.2991 8.35442 20.7885 7.78633 20.132 7.78633H20.1077C19.4269 7.81103 18.892 8.35442 18.892 9.04602M45.3699 9.02132C45.3213 9.76232 45.8805 10.4045 46.6343 10.4539C47.388 10.5033 47.9959 9.93522 48.0445 9.16952C48.0445 9.12012 48.0445 9.07072 48.0445 8.99662C48.0931 8.25562 47.5339 7.61343 46.7802 7.56403C46.0264 7.51463 45.4186 8.08272 45.3699 8.84842C45.3456 8.92252 45.3456 8.97192 45.3699 9.02132" fill="white"/>
</mask>
<g mask="url(#mask0_1378_21659)">
<path d="M48.0454 3.26611L49.8933 24.2117L0.414271 28.7317L-1.43359 7.7862L48.0454 3.26611Z" fill="white"/>
</g>
<path d="M57.6641 0V32H58.4515V0H57.6641Z" fill="white"/>
<path d="M73.6282 20.5737C73.4761 20.5737 73.3636 20.7014 73.3636 20.8559V25.095C73.3636 25.2563 73.4761 25.3772 73.6282 25.3772C73.7869 25.3772 73.8993 25.2563 73.8993 25.095V22.8043C74.1109 22.5087 74.501 22.2868 74.878 22.2868C75.4004 22.2868 75.6982 22.6229 75.6982 23.1872V25.095C75.6982 25.2563 75.8105 25.3772 75.9626 25.3772C76.1147 25.3772 76.2337 25.2563 76.2337 25.095V23.1401C76.2337 22.26 75.7245 21.7695 74.9375 21.7695C74.5407 21.7695 74.1374 21.9644 73.8993 22.2129V20.8559C73.8993 20.7014 73.7803 20.5737 73.6282 20.5737ZM107.475 20.5737C107.322 20.5737 107.21 20.7014 107.21 20.8559V25.095C107.21 25.2563 107.322 25.3772 107.475 25.3772C107.633 25.3772 107.746 25.2563 107.746 25.095V22.8043C107.957 22.5087 108.347 22.2868 108.724 22.2868C109.247 22.2868 109.545 22.6229 109.545 23.1872V25.095C109.545 25.2563 109.657 25.3772 109.809 25.3772C109.961 25.3772 110.08 25.2563 110.08 25.095V23.1401C110.08 22.26 109.571 21.7695 108.784 21.7695C108.387 21.7695 107.984 21.9644 107.746 22.2129V20.8559C107.746 20.7014 107.627 20.5737 107.475 20.5737ZM180.663 20.5737C180.332 20.5737 180.107 20.7418 179.982 21.0844L178.606 24.9809C178.6 25.0011 178.593 25.0346 178.593 25.0749C178.593 25.2294 178.692 25.3571 178.858 25.3571C178.983 25.3571 179.069 25.2967 179.115 25.1825L179.605 23.7783H181.714L182.204 25.1825C182.25 25.2967 182.336 25.3571 182.462 25.3571C182.62 25.3571 182.726 25.2294 182.726 25.0749C182.726 25.0279 182.72 25.0011 182.713 24.9809L181.337 21.0844C181.225 20.7418 181 20.5737 180.663 20.5737ZM175.743 20.5805C175.591 20.5805 175.478 20.7014 175.478 20.8559V25.095C175.478 25.2563 175.591 25.3772 175.743 25.3772C175.901 25.3772 176.014 25.2563 176.014 25.095V20.8559C176.014 20.7014 175.895 20.5805 175.743 20.5805ZM77.6888 20.6007C77.6044 20.6007 77.52 20.6343 77.4571 20.7015C77.3315 20.8291 77.3315 21.0441 77.4571 21.1784C77.5828 21.3128 77.7945 21.3128 77.9202 21.1784C78.0524 21.0441 78.0524 20.8291 77.9202 20.7015C77.8573 20.6343 77.7731 20.6007 77.6888 20.6007ZM162.305 20.6007C162.22 20.6007 162.136 20.6343 162.073 20.7015C161.948 20.8291 161.948 21.0441 162.073 21.1784C162.199 21.3128 162.41 21.3128 162.536 21.1784C162.668 21.0441 162.668 20.8291 162.536 20.7015C162.473 20.6343 162.389 20.6007 162.305 20.6007ZM183.791 20.6007C183.707 20.6007 183.622 20.6343 183.559 20.7015C183.434 20.8291 183.434 21.0441 183.559 21.1784C183.685 21.3128 183.897 21.3128 184.022 21.1784C184.155 21.0441 184.155 20.8291 184.022 20.7015C183.96 20.6343 183.875 20.6007 183.791 20.6007ZM137.049 20.614C136.897 20.614 136.778 20.7417 136.778 20.8962V25.095C136.778 25.2496 136.897 25.3772 137.049 25.3772C137.208 25.3772 137.32 25.2563 137.32 25.095V20.8962C137.32 20.735 137.208 20.614 137.049 20.614ZM69.184 20.641C69.0253 20.641 68.9062 20.7484 68.9062 20.9096C68.9062 21.0507 69.0319 21.1716 69.184 21.1716H70.5067V25.095C70.5067 25.2496 70.6257 25.3772 70.7778 25.3772C70.9299 25.3772 71.0491 25.2496 71.0491 25.095V21.1716H72.3584C72.5105 21.1716 72.6295 21.0507 72.6295 20.9096C72.6295 20.7484 72.5171 20.641 72.3584 20.641H69.184ZM104.737 21.1046C104.585 21.1046 104.472 21.2255 104.472 21.38V24.3024C104.472 24.9675 104.81 25.4107 105.491 25.4107C105.749 25.4107 105.98 25.3705 106.172 25.2966C106.317 25.2496 106.39 25.1622 106.39 25.0346C106.39 24.8532 106.258 24.7324 106.046 24.7861C105.775 24.8667 105.596 24.9071 105.517 24.9071C105.173 24.9071 105.008 24.6786 105.008 24.3225V22.4279H106.006C106.139 22.4279 106.258 22.3138 106.258 22.1794C106.258 22.0451 106.139 21.9308 106.006 21.9308H105.008V21.38C105.008 21.2255 104.889 21.1046 104.737 21.1046ZM142.848 21.1046C142.696 21.1046 142.584 21.2255 142.584 21.38V24.3024C142.584 24.9675 142.921 25.4107 143.602 25.4107C143.86 25.4107 144.092 25.3705 144.284 25.2966C144.429 25.2496 144.502 25.1622 144.502 25.0346C144.502 24.8532 144.37 24.7324 144.158 24.7861C143.887 24.8667 143.708 24.9071 143.629 24.9071C143.285 24.9071 143.12 24.6786 143.12 24.3225V22.4279H144.118C144.251 22.4279 144.37 22.3138 144.37 22.1794C144.37 22.0451 144.251 21.9308 144.118 21.9308H143.12V21.38C143.12 21.2255 143.001 21.1046 142.848 21.1046ZM159.54 21.1046C159.388 21.1046 159.276 21.2255 159.276 21.38V24.3024C159.276 24.9675 159.613 25.4107 160.294 25.4107C160.552 25.4107 160.784 25.3705 160.975 25.2966C161.121 25.2496 161.194 25.1622 161.194 25.0346C161.194 24.8532 161.061 24.7324 160.85 24.7861C160.579 24.8667 160.4 24.9071 160.321 24.9071C159.977 24.9071 159.811 24.6786 159.811 24.3225V22.4279H160.81C160.942 22.4279 161.061 22.3138 161.061 22.1794C161.061 22.0451 160.942 21.9308 160.81 21.9308H159.811V21.38C159.811 21.2255 159.692 21.1046 159.54 21.1046ZM198.347 21.1046C198.195 21.1046 198.082 21.2255 198.082 21.38V24.3024C198.082 24.9675 198.419 25.4107 199.1 25.4107C199.358 25.4107 199.59 25.3705 199.782 25.2966C199.927 25.2496 200 25.1622 200 25.0346C200 24.8532 199.868 24.7324 199.656 24.7861C199.385 24.8667 199.206 24.9071 199.127 24.9071C198.783 24.9071 198.618 24.6786 198.618 24.3225V22.4279H199.616C199.749 22.4279 199.868 22.3138 199.868 22.1794C199.868 22.0451 199.749 21.9308 199.616 21.9308H198.618V21.38C198.618 21.2255 198.499 21.1046 198.347 21.1046ZM180.663 21.1095C180.734 21.1095 180.805 21.1548 180.835 21.2454L181.529 23.2543H179.79L180.491 21.2454C180.521 21.1548 180.592 21.1095 180.663 21.1095ZM80.2347 21.7695C79.5469 21.7695 79.1568 22.1727 79.1568 22.8378V25.1018C79.1568 25.2564 79.2758 25.3772 79.4279 25.3772C79.58 25.3772 79.6992 25.2564 79.6992 25.1018V22.8983C79.6992 22.5019 79.8776 22.3003 80.2347 22.2936C80.3206 22.2936 80.4199 22.3004 80.5323 22.3205C80.6447 22.3407 80.7242 22.3472 80.7572 22.3472C80.9226 22.3472 81.0216 22.2264 81.0216 22.0988C81.0216 21.9644 80.9489 21.8772 80.8101 21.8436C80.658 21.7965 80.4661 21.7695 80.2347 21.7695ZM90.2935 21.7695C89.8835 21.7695 89.5329 21.8436 89.2419 21.9847C89.1295 22.0384 89.07 22.1257 89.07 22.2399C89.07 22.4213 89.2418 22.5286 89.4535 22.448C89.7577 22.3338 90.0224 22.2734 90.2406 22.2734C90.8028 22.2734 91.0673 22.5087 91.0673 23.0461V23.3215C90.7234 23.2275 90.4126 23.1804 90.1414 23.1804C89.2883 23.1804 88.8121 23.6438 88.8121 24.2686C88.8121 24.9606 89.2883 25.4107 90.1347 25.4107C90.4191 25.4107 90.6902 25.3704 90.9349 25.2898C91.1862 25.2025 91.3713 25.1219 91.4837 25.0346C91.5565 24.9875 91.5963 24.9136 91.5963 24.8129V23.026C91.5963 22.1728 91.1135 21.7695 90.2935 21.7695ZM94.1953 21.7695C93.5869 21.7695 93.0908 21.9509 92.8528 22.1323C92.7734 22.1928 92.7337 22.2734 92.7337 22.3742V25.095C92.7337 25.2563 92.8527 25.3772 93.0048 25.3772C93.1569 25.3772 93.2694 25.2563 93.2694 25.095V22.5085C93.5141 22.3607 93.8182 22.2868 94.1819 22.2868C94.6911 22.2868 95.0681 22.5826 95.0681 23.1671V25.095C95.0681 25.2563 95.1873 25.3772 95.3394 25.3772C95.4981 25.3772 95.6038 25.2563 95.6038 25.095V23.1401C95.6038 22.2533 95.1145 21.7695 94.1953 21.7695ZM98.0375 21.7695C97.6275 21.7695 97.2769 21.8436 96.986 21.9847C96.8735 22.0384 96.8141 22.1257 96.8141 22.2399C96.8141 22.4213 96.9859 22.5286 97.1975 22.448C97.5017 22.3338 97.7662 22.2734 97.9845 22.2734C98.5466 22.2734 98.8114 22.5087 98.8114 23.0461V23.3215C98.4675 23.2275 98.1564 23.1804 97.8853 23.1804C97.0322 23.1804 96.5561 23.6438 96.5561 24.2686C96.5561 24.9606 97.0323 25.4107 97.8788 25.4107C98.1632 25.4107 98.4342 25.3704 98.6789 25.2898C98.9302 25.2025 99.1154 25.1219 99.2278 25.0346C99.3005 24.9875 99.3404 24.9136 99.3404 24.8129V23.026C99.3404 22.1728 98.8576 21.7695 98.0375 21.7695ZM101.939 21.7695C101.331 21.7695 100.835 21.9509 100.597 22.1323C100.517 22.1928 100.478 22.2734 100.478 22.3742V25.095C100.478 25.2563 100.597 25.3772 100.749 25.3772C100.901 25.3772 101.014 25.2563 101.014 25.095V22.5085C101.258 22.3607 101.562 22.2868 101.926 22.2868C102.435 22.2868 102.812 22.5826 102.812 23.1671V25.095C102.812 25.2563 102.931 25.3772 103.083 25.3772C103.242 25.3772 103.348 25.2563 103.348 25.095V23.1401C103.348 22.2533 102.859 21.7695 101.939 21.7695ZM112.514 21.7695C112.104 21.7695 111.753 21.8436 111.462 21.9847C111.35 22.0384 111.29 22.1257 111.29 22.2399C111.29 22.4213 111.462 22.5286 111.674 22.448C111.978 22.3338 112.243 22.2734 112.461 22.2734C113.023 22.2734 113.288 22.5087 113.288 23.0461V23.3215C112.944 23.2275 112.633 23.1804 112.362 23.1804C111.509 23.1804 111.032 23.6438 111.032 24.2686C111.032 24.9606 111.509 25.4107 112.355 25.4107C112.639 25.4107 112.911 25.3704 113.155 25.2898C113.407 25.2025 113.592 25.1219 113.704 25.0346C113.777 24.9875 113.817 24.9136 113.817 24.8129V23.026C113.817 22.1728 113.334 21.7695 112.514 21.7695ZM116.402 21.7695C116.131 21.7695 115.867 21.8165 115.615 21.9106C115.371 21.9979 115.186 22.0921 115.06 22.1794C114.987 22.2265 114.954 22.3002 114.954 22.3875V26.3714C114.954 26.526 115.073 26.6536 115.225 26.6536C115.364 26.6536 115.49 26.526 115.49 26.3714V25.1958C115.787 25.3369 116.085 25.4107 116.383 25.4107C117.249 25.4107 117.765 24.9271 117.837 24.0739C117.864 23.7581 117.864 23.4425 117.837 23.1268C117.765 22.287 117.249 21.7695 116.402 21.7695ZM123.988 21.7695C123.3 21.7695 122.91 22.1727 122.91 22.8378V25.1018C122.91 25.2564 123.029 25.3772 123.181 25.3772C123.333 25.3772 123.452 25.2564 123.452 25.1018V22.8983C123.452 22.5019 123.631 22.3003 123.988 22.2936C124.074 22.2936 124.173 22.3004 124.285 22.3205C124.398 22.3407 124.477 22.3472 124.51 22.3472C124.675 22.3472 124.775 22.2264 124.775 22.0988C124.775 21.9644 124.702 21.8772 124.563 21.8436C124.411 21.7965 124.219 21.7695 123.988 21.7695ZM126.692 21.7695C126.282 21.7695 125.932 21.8436 125.641 21.9847C125.529 22.0384 125.469 22.1257 125.469 22.2399C125.469 22.4213 125.641 22.5286 125.853 22.448C126.157 22.3338 126.421 22.2734 126.64 22.2734C127.202 22.2734 127.466 22.5087 127.466 23.0461V23.3215C127.122 23.2275 126.812 23.1804 126.54 23.1804C125.687 23.1804 125.211 23.6438 125.211 24.2686C125.211 24.9606 125.687 25.4107 126.534 25.4107C126.818 25.4107 127.089 25.3704 127.334 25.2898C127.585 25.2025 127.77 25.1219 127.883 25.0346C127.956 24.9875 127.995 24.9136 127.995 24.8129V23.026C127.995 22.1728 127.512 21.7695 126.692 21.7695ZM130.416 21.7695C129.953 21.7695 129.569 21.8838 129.272 22.119C129.179 22.1929 129.133 22.2802 129.133 22.381V25.095C129.133 25.2563 129.252 25.3772 129.404 25.3772C129.556 25.3772 129.668 25.2563 129.668 25.095V22.5085C129.887 22.3607 130.138 22.2868 130.422 22.2868C130.925 22.2868 131.176 22.5623 131.176 23.1132V25.095C131.176 25.2563 131.295 25.3772 131.447 25.3772C131.599 25.3772 131.712 25.2563 131.712 25.095V22.643C131.877 22.4079 132.128 22.2868 132.466 22.2868C132.968 22.2868 133.22 22.5824 133.22 23.1736V25.095C133.22 25.2563 133.339 25.3772 133.491 25.3772C133.643 25.3772 133.755 25.2563 133.755 25.095V23.1401C133.755 22.2332 133.359 21.7695 132.479 21.7695C132.102 21.7695 131.758 21.904 131.434 22.1794C131.229 21.904 130.885 21.7695 130.416 21.7695ZM140.051 21.7695C139.443 21.7695 138.947 21.9509 138.709 22.1323C138.629 22.1928 138.59 22.2734 138.59 22.3742V25.095C138.59 25.2563 138.709 25.3772 138.861 25.3772C139.013 25.3772 139.125 25.2563 139.125 25.095V22.5085C139.37 22.3607 139.674 22.2868 140.038 22.2868C140.547 22.2868 140.924 22.5826 140.924 23.1671V25.095C140.924 25.2563 141.043 25.3772 141.195 25.3772C141.354 25.3772 141.46 25.2563 141.46 25.095V23.1401C141.46 22.2533 140.97 21.7695 140.051 21.7695ZM146.658 21.7695C145.844 21.7695 145.269 22.3004 145.196 23.1603C145.176 23.382 145.17 23.6508 145.19 23.9665C145.236 24.8466 145.791 25.4107 146.691 25.4107C147.081 25.4107 147.531 25.3235 147.742 25.1958C147.842 25.1354 147.888 25.0547 147.888 24.9539C147.888 24.786 147.722 24.6517 147.504 24.739C147.18 24.8532 146.916 24.9136 146.697 24.9136C146.109 24.9136 145.712 24.5443 145.712 23.9262V23.8186H147.69C147.947 23.8186 148.08 23.6909 148.08 23.4289V23.2273C148.08 22.7973 147.947 22.4482 147.69 22.1794C147.432 21.904 147.088 21.7695 146.658 21.7695ZM150.103 21.7695C149.415 21.7695 149.025 22.1727 149.025 22.8378V25.1018C149.025 25.2564 149.144 25.3772 149.296 25.3772C149.449 25.3772 149.568 25.2564 149.568 25.1018V22.8983C149.568 22.5019 149.746 22.3003 150.103 22.2936C150.189 22.2936 150.288 22.3004 150.401 22.3205C150.513 22.3407 150.593 22.3472 150.626 22.3472C150.791 22.3472 150.89 22.2264 150.89 22.0988C150.89 21.9644 150.818 21.8772 150.679 21.8436C150.527 21.7965 150.335 21.7695 150.103 21.7695ZM153.026 21.7695C152.418 21.7695 151.922 21.9509 151.684 22.1323C151.604 22.1928 151.565 22.2734 151.565 22.3742V25.095C151.565 25.2563 151.684 25.3772 151.836 25.3772C151.988 25.3772 152.1 25.2563 152.1 25.095V22.5085C152.345 22.3607 152.649 22.2868 153.013 22.2868C153.522 22.2868 153.899 22.5826 153.899 23.1671V25.095C153.899 25.2563 154.018 25.3772 154.17 25.3772C154.329 25.3772 154.435 25.2563 154.435 25.095V23.1401C154.435 22.2533 153.946 21.7695 153.026 21.7695ZM156.869 21.7695C156.459 21.7695 156.108 21.8436 155.817 21.9847C155.705 22.0384 155.645 22.1257 155.645 22.2399C155.645 22.4213 155.817 22.5286 156.029 22.448C156.333 22.3338 156.598 22.2734 156.816 22.2734C157.378 22.2734 157.642 22.5087 157.642 23.0461V23.3215C157.299 23.2275 156.988 23.1804 156.717 23.1804C155.863 23.1804 155.387 23.6438 155.387 24.2686C155.387 24.9606 155.863 25.4107 156.71 25.4107C156.994 25.4107 157.265 25.3704 157.51 25.2898C157.761 25.2025 157.946 25.1219 158.059 25.0346C158.132 24.9875 158.171 24.9136 158.171 24.8129V23.026C158.171 22.1728 157.689 21.7695 156.869 21.7695ZM165.195 21.7695C164.785 21.7695 164.441 21.8973 164.163 22.1459C163.892 22.3945 163.74 22.7102 163.72 23.0998C163.7 23.4223 163.7 23.738 163.72 24.0537C163.74 24.4501 163.892 24.7727 164.17 25.028C164.447 25.2833 164.791 25.4107 165.195 25.4107C165.605 25.4107 165.948 25.2833 166.22 25.028C166.497 24.7727 166.649 24.4501 166.669 24.0537C166.689 23.738 166.689 23.4223 166.669 23.0998C166.649 22.7034 166.497 22.3877 166.22 22.1391C165.948 21.8905 165.605 21.7695 165.195 21.7695ZM169.189 21.7695C168.581 21.7695 168.085 21.9509 167.847 22.1323C167.767 22.1928 167.728 22.2734 167.728 22.3742V25.095C167.728 25.2563 167.847 25.3772 167.999 25.3772C168.151 25.3772 168.263 25.2563 168.263 25.095V22.5085C168.508 22.3607 168.812 22.2868 169.176 22.2868C169.685 22.2868 170.062 22.5826 170.062 23.1671V25.095C170.062 25.2563 170.181 25.3772 170.333 25.3772C170.492 25.3772 170.598 25.2563 170.598 25.095V23.1401C170.598 22.2533 170.108 21.7695 169.189 21.7695ZM173.031 21.7695C172.621 21.7695 172.271 21.8436 171.98 21.9847C171.867 22.0384 171.808 22.1257 171.808 22.2399C171.808 22.4213 171.98 22.5286 172.191 22.448C172.496 22.3338 172.76 22.2734 172.978 22.2734C173.54 22.2734 173.805 22.5087 173.805 23.0461V23.3215C173.461 23.2275 173.15 23.1804 172.879 23.1804C172.026 23.1804 171.55 23.6438 171.55 24.2686C171.55 24.9606 172.026 25.4107 172.873 25.4107C173.157 25.4107 173.428 25.3704 173.673 25.2898C173.924 25.2025 174.109 25.1219 174.222 25.0346C174.294 24.9875 174.334 24.9136 174.334 24.8129V23.026C174.334 22.1728 173.851 21.7695 173.031 21.7695ZM186.337 21.7695C185.649 21.7695 185.259 22.1727 185.259 22.8378V25.1018C185.259 25.2564 185.378 25.3772 185.53 25.3772C185.682 25.3772 185.801 25.2564 185.801 25.1018V22.8983C185.801 22.5019 185.98 22.3003 186.337 22.2936C186.423 22.2936 186.522 22.3004 186.635 22.3205C186.747 22.3407 186.826 22.3472 186.86 22.3472C187.025 22.3472 187.124 22.2264 187.124 22.0988C187.124 21.9644 187.051 21.8772 186.912 21.8436C186.76 21.7965 186.568 21.7695 186.337 21.7695ZM189.247 21.7695C188.976 21.7695 188.711 21.8165 188.46 21.9106C188.215 21.9979 188.03 22.0921 187.904 22.1794C187.832 22.2265 187.799 22.3002 187.799 22.3875V26.3714C187.799 26.526 187.918 26.6536 188.07 26.6536C188.209 26.6536 188.334 26.526 188.334 26.3714V25.1958C188.632 25.3369 188.929 25.4107 189.227 25.4107C190.093 25.4107 190.609 24.9271 190.682 24.0739C190.708 23.7581 190.708 23.4425 190.682 23.1268C190.609 22.287 190.093 21.7695 189.247 21.7695ZM193.083 21.7695C192.673 21.7695 192.329 21.8973 192.051 22.1459C191.78 22.3945 191.628 22.7102 191.608 23.0998C191.588 23.4223 191.588 23.738 191.608 24.0537C191.628 24.4501 191.78 24.7727 192.057 25.028C192.335 25.2833 192.679 25.4107 193.083 25.4107C193.493 25.4107 193.836 25.2833 194.108 25.028C194.385 24.7727 194.537 24.4501 194.557 24.0537C194.577 23.738 194.577 23.4223 194.557 23.0998C194.537 22.7034 194.385 22.3877 194.108 22.1391C193.836 21.8905 193.493 21.7695 193.083 21.7695ZM196.654 21.7695C195.966 21.7695 195.576 22.1727 195.576 22.8378V25.1018C195.576 25.2564 195.695 25.3772 195.847 25.3772C195.999 25.3772 196.118 25.2564 196.118 25.1018V22.8983C196.118 22.5019 196.297 22.3003 196.654 22.2936C196.74 22.2936 196.839 22.3004 196.951 22.3205C197.064 22.3407 197.143 22.3472 197.176 22.3472C197.341 22.3472 197.441 22.2264 197.441 22.0988C197.441 21.9644 197.368 21.8772 197.229 21.8436C197.077 21.7965 196.885 21.7695 196.654 21.7695ZM85.6112 21.8098C85.4062 21.8098 85.2741 22.0048 85.3535 22.1996L86.3785 24.9741C86.4777 25.2495 86.6429 25.3906 86.8743 25.3906C87.1124 25.3906 87.2844 25.2497 87.3902 24.9675L88.4021 22.2061C88.4748 22.0113 88.3426 21.8166 88.1509 21.8166C88.0252 21.8166 87.9391 21.8905 87.8862 22.0315L86.914 24.7927C86.8942 24.8263 86.8679 24.8263 86.848 24.7927L85.856 22.0048C85.8097 21.8772 85.7236 21.8098 85.6112 21.8098ZM77.6888 21.8166C77.5367 21.8166 77.4241 21.9443 77.4241 22.0988V25.095C77.4241 25.2563 77.5499 25.3772 77.6888 25.3772C77.8475 25.3772 77.9598 25.2563 77.9598 25.095V22.0988C77.9598 21.9443 77.8409 21.8166 77.6888 21.8166ZM81.9145 21.8166C81.7624 21.8166 81.6501 21.9443 81.6501 22.0988V24.0404C81.6501 24.907 82.2054 25.4107 83.0717 25.4107C83.5809 25.4107 84.0308 25.2766 84.4078 25.0078C84.4805 24.9608 84.5201 24.8869 84.5201 24.7861V22.0988C84.5201 21.9443 84.4012 21.8166 84.2491 21.8166C84.0969 21.8166 83.9844 21.9443 83.9844 22.0988V24.645C83.7397 24.813 83.4355 24.8935 83.0717 24.8935C82.5162 24.8935 82.1856 24.5779 82.1856 24.0472V22.0988C82.1856 21.9443 82.0666 21.8166 81.9145 21.8166ZM119.14 21.8166C118.988 21.8166 118.876 21.9443 118.876 22.0988V24.0404C118.876 24.907 119.431 25.4107 120.298 25.4107C120.807 25.4107 121.256 25.2766 121.633 25.0078C121.706 24.9608 121.746 24.8869 121.746 24.7861V22.0988C121.746 21.9443 121.627 21.8166 121.475 21.8166C121.323 21.8166 121.21 21.9443 121.21 22.0988V24.645C120.966 24.813 120.661 24.8935 120.298 24.8935C119.742 24.8935 119.411 24.5779 119.411 24.0472V22.0988C119.411 21.9443 119.292 21.8166 119.14 21.8166ZM162.305 21.8166C162.153 21.8166 162.04 21.9443 162.04 22.0988V25.095C162.04 25.2563 162.166 25.3772 162.305 25.3772C162.463 25.3772 162.576 25.2563 162.576 25.095V22.0988C162.576 21.9443 162.457 21.8166 162.305 21.8166ZM183.791 21.8166C183.639 21.8166 183.526 21.9443 183.526 22.0988V25.095C183.526 25.2563 183.652 25.3772 183.791 25.3772C183.95 25.3772 184.062 25.2563 184.062 25.095V22.0988C184.062 21.9443 183.943 21.8166 183.791 21.8166ZM146.664 22.2601C147.24 22.2601 147.59 22.6699 147.557 23.2812C147.55 23.335 147.524 23.3618 147.471 23.3618H145.712C145.692 22.6833 146.03 22.2601 146.664 22.2601ZM116.396 22.2802C116.945 22.2802 117.242 22.5759 117.295 23.1671C117.315 23.4157 117.315 23.7112 117.295 24.0472C117.255 24.6182 116.945 24.9003 116.369 24.9003C116.039 24.9003 115.748 24.8196 115.49 24.6516V22.5556C115.576 22.4951 115.708 22.4347 115.887 22.3742C116.065 22.3137 116.237 22.2802 116.396 22.2802ZM165.195 22.2802C165.743 22.2802 166.101 22.6295 166.134 23.1401C166.154 23.4357 166.154 23.7313 166.134 24.0202C166.087 24.5509 165.724 24.9003 165.195 24.9003C164.665 24.9003 164.302 24.5509 164.256 24.0202C164.236 23.7313 164.236 23.4357 164.256 23.1401C164.289 22.6295 164.646 22.2802 165.195 22.2802ZM189.24 22.2802C189.789 22.2802 190.087 22.5759 190.14 23.1671C190.159 23.4157 190.159 23.7112 190.14 24.0472C190.1 24.6182 189.789 24.9003 189.214 24.9003C188.883 24.9003 188.592 24.8196 188.334 24.6516V22.5556C188.42 22.4951 188.553 22.4347 188.731 22.3742C188.91 22.3137 189.082 22.2802 189.24 22.2802ZM193.083 22.2802C193.631 22.2802 193.988 22.6295 194.022 23.1401C194.041 23.4357 194.041 23.7313 194.022 24.0202C193.975 24.5509 193.612 24.9003 193.083 24.9003C192.553 24.9003 192.19 24.5509 192.143 24.0202C192.123 23.7313 192.123 23.4357 192.143 23.1401C192.176 22.6295 192.534 22.2802 193.083 22.2802ZM90.1479 23.644C90.3794 23.644 90.6903 23.6909 91.0673 23.7917V24.6718C90.9615 24.7792 90.6638 24.9204 90.1943 24.9204C89.6321 24.9204 89.3478 24.6987 89.3478 24.2553C89.3478 23.8791 89.6784 23.644 90.1479 23.644ZM97.892 23.644C98.1234 23.644 98.4344 23.6909 98.8114 23.7917V24.6718C98.7055 24.7792 98.4079 24.9204 97.9383 24.9204C97.3762 24.9204 97.0919 24.6987 97.0919 24.2553C97.0919 23.8791 97.4224 23.644 97.892 23.644ZM112.368 23.644C112.6 23.644 112.911 23.6909 113.288 23.7917V24.6718C113.182 24.7792 112.884 24.9204 112.415 24.9204C111.852 24.9204 111.568 24.6987 111.568 24.2553C111.568 23.8791 111.899 23.644 112.368 23.644ZM126.547 23.644C126.779 23.644 127.089 23.6909 127.466 23.7917V24.6718C127.36 24.7792 127.063 24.9204 126.593 24.9204C126.031 24.9204 125.747 24.6987 125.747 24.2553C125.747 23.8791 126.078 23.644 126.547 23.644ZM156.723 23.644C156.955 23.644 157.265 23.6909 157.642 23.7917V24.6718C157.537 24.7792 157.239 24.9204 156.769 24.9204C156.207 24.9204 155.923 24.6987 155.923 24.2553C155.923 23.8791 156.253 23.644 156.723 23.644ZM172.886 23.644C173.117 23.644 173.428 23.6909 173.805 23.7917V24.6718C173.699 24.7792 173.402 24.9204 172.932 24.9204C172.37 24.9204 172.086 24.6987 172.086 24.2553C172.086 23.8791 172.416 23.644 172.886 23.644Z" fill="white"/>
<path d="M82.6591 6.16113C82.2688 6.16113 81.99 6.45556 81.99 6.82941C81.99 7.20327 82.2688 7.52054 82.6591 7.52054C83.0271 7.52054 83.3169 7.20327 83.3169 6.82941C83.3169 6.45556 83.0271 6.16113 82.6591 6.16113ZM75.8675 6.24035C75.5441 6.24035 75.2764 6.50107 75.2764 6.85226V13.7628C75.2764 14.0913 75.5554 14.3745 75.8788 14.3745C76.2022 14.3745 76.4586 14.114 76.4586 13.7628V10.0809C76.782 9.67308 77.3283 9.37862 77.8748 9.37862C78.6331 9.37862 79.0792 9.86556 79.0792 10.6926V13.7514C79.0792 14.1026 79.3469 14.3745 79.6703 14.3745C79.9938 14.3745 80.2614 14.1026 80.2614 13.7514V10.6134C80.2614 9.07262 79.4139 8.22284 78.0423 8.22284C77.4177 8.22284 76.8155 8.48356 76.4586 8.83475V6.85226C76.4586 6.52372 76.1909 6.24035 75.8675 6.24035ZM133.088 6.24035C132.765 6.24035 132.497 6.50107 132.497 6.85226V13.7628C132.497 14.0913 132.776 14.3745 133.099 14.3745C133.422 14.3745 133.679 14.114 133.679 13.7628V10.0809C134.002 9.67308 134.549 9.37862 135.095 9.37862C135.854 9.37862 136.3 9.86556 136.3 10.6926V13.7514C136.3 14.1026 136.567 14.3745 136.891 14.3745C137.214 14.3745 137.482 14.1026 137.482 13.7514V10.6134C137.482 9.07262 136.634 8.22284 135.263 8.22284C134.638 8.22284 134.036 8.48356 133.679 8.83475V6.85226C133.679 6.52372 133.411 6.24035 133.088 6.24035ZM68.3399 6.36502C67.9942 6.36502 67.7266 6.61431 67.7266 6.9655C67.7266 7.29404 67.9942 7.56599 68.3399 7.56599H70.3584V13.7514C70.3584 14.0799 70.6374 14.3745 70.9608 14.3745C71.3065 14.3745 71.5629 14.1026 71.5629 13.7514V7.56599H73.5704C73.8938 7.56599 74.1837 7.29404 74.1837 6.9655C74.1837 6.61431 73.9161 6.36502 73.5704 6.36502H68.3399ZM128.371 7.05615C128.047 7.05615 127.78 7.31661 127.78 7.6678V12.4034C127.78 13.6269 128.415 14.4425 129.631 14.4425C130.133 14.4425 130.556 14.3745 130.88 14.2272C131.148 14.1139 131.281 13.9327 131.281 13.6721C131.281 13.3096 130.991 13.0378 130.556 13.1397C130.144 13.253 129.876 13.3096 129.754 13.3096C129.23 13.3096 128.962 13.015 128.962 12.4146V9.59367H130.501C130.813 9.59367 131.058 9.36712 131.058 9.06124C131.058 8.75536 130.813 8.5288 130.501 8.5288H128.962V7.6678C128.962 7.33927 128.694 7.05615 128.371 7.05615ZM86.9413 8.22284C85.7369 8.22284 85.0678 8.92547 85.0678 10.0923V13.7742C85.0678 14.1028 85.3356 14.3745 85.6479 14.3745C85.9936 14.3745 86.25 14.1028 86.25 13.7742V10.2848C86.25 9.68437 86.5065 9.38995 87.0195 9.37862C87.1645 9.36727 87.3206 9.38983 87.5101 9.42381C87.6997 9.4578 87.8112 9.48043 87.8558 9.48043C88.2127 9.48043 88.4134 9.19719 88.4134 8.91397C88.4134 8.63075 88.2574 8.43814 87.9563 8.34751C87.6663 8.26821 87.3316 8.22284 86.9413 8.22284ZM104.093 8.22284C103.413 8.22284 102.844 8.33624 102.387 8.56282C102.13 8.68744 101.997 8.86862 101.997 9.11786C101.997 9.49171 102.331 9.71835 102.811 9.57108C103.268 9.40114 103.68 9.322 104.026 9.322C104.885 9.322 105.264 9.65053 105.264 10.4209V10.7946C104.74 10.67 104.26 10.6019 103.848 10.6019C103.112 10.6019 102.554 10.7833 102.164 11.1458C101.773 11.5083 101.584 11.9501 101.584 12.4826C101.584 13.6495 102.398 14.4425 103.87 14.4425C104.896 14.4425 105.743 14.1141 106.19 13.8082C106.334 13.7063 106.401 13.5588 106.401 13.3662V10.4209C106.401 8.92548 105.565 8.22284 104.093 8.22284ZM110.673 8.22284C109.613 8.22284 108.766 8.52897 108.364 8.84618C108.208 8.94814 108.13 9.10665 108.13 9.31057V13.7628C108.13 14.0913 108.409 14.3745 108.721 14.3745C109.045 14.3745 109.312 14.114 109.312 13.7628V9.69574C109.658 9.48049 110.093 9.37862 110.639 9.37862C111.386 9.37862 111.933 9.80898 111.933 10.67V13.7628C111.933 14.0913 112.212 14.3745 112.524 14.3745C112.87 14.3745 113.115 14.114 113.115 13.7628V10.6134C113.115 9.07262 112.279 8.22284 110.673 8.22284ZM117.063 8.22284C116.382 8.22284 115.814 8.33624 115.356 8.56282C115.1 8.68744 114.966 8.86862 114.966 9.11786C114.966 9.49171 115.301 9.71835 115.78 9.57108C116.237 9.40114 116.65 9.322 116.996 9.322C117.855 9.322 118.234 9.65053 118.234 10.4209V10.7946C117.709 10.67 117.23 10.6019 116.817 10.6019C116.081 10.6019 115.524 10.7833 115.133 11.1458C114.743 11.5083 114.553 11.9501 114.553 12.4826C114.553 13.6495 115.368 14.4425 116.84 14.4425C117.866 14.4425 118.713 14.1141 119.159 13.8082C119.304 13.7063 119.371 13.5588 119.371 13.3662V10.4209C119.371 8.92548 118.535 8.22284 117.063 8.22284ZM123.642 8.22284C122.583 8.22284 121.735 8.52897 121.334 8.84618C121.178 8.94814 121.1 9.10665 121.1 9.31057V13.7628C121.1 14.0913 121.378 14.3745 121.691 14.3745C122.014 14.3745 122.282 14.114 122.282 13.7628V9.69574C122.627 9.48049 123.062 9.37862 123.609 9.37862C124.356 9.37862 124.902 9.80898 124.902 10.67V13.7628C124.902 14.0913 125.181 14.3745 125.493 14.3745C125.839 14.3745 126.085 14.114 126.085 13.7628V10.6134C126.085 9.07262 125.248 8.22284 123.642 8.22284ZM141.43 8.22284C140.749 8.22284 140.181 8.33624 139.723 8.56282C139.467 8.68744 139.333 8.86862 139.333 9.11786C139.333 9.49171 139.668 9.71835 140.147 9.57108C140.604 9.40114 141.017 9.322 141.363 9.322C142.221 9.322 142.6 9.65053 142.6 10.4209V10.7946C142.076 10.67 141.597 10.6019 141.184 10.6019C140.448 10.6019 139.891 10.7833 139.5 11.1458C139.11 11.5083 138.92 11.9501 138.92 12.4826C138.92 13.6495 139.735 14.4425 141.207 14.4425C142.233 14.4425 143.08 14.1141 143.526 13.8082C143.671 13.7063 143.738 13.5588 143.738 13.3662V10.4209C143.738 8.92548 142.902 8.22284 141.43 8.22284ZM147.998 8.22284C147.507 8.22284 147.05 8.30224 146.626 8.47217C146.203 8.63078 145.879 8.78949 145.645 8.95942C145.522 9.03872 145.467 9.15187 145.467 9.29914V15.9492C145.467 16.3004 145.734 16.5611 146.058 16.5611C146.381 16.5611 146.649 16.2777 146.649 15.9492V14.1028C147.162 14.3294 147.63 14.4425 148.043 14.4425C149.504 14.4425 150.385 13.5817 150.507 12.1429C150.552 11.6104 150.552 11.0778 150.507 10.5453C150.385 9.1292 149.47 8.22284 147.998 8.22284ZM160.689 8.22284C159.485 8.22284 158.815 8.92547 158.815 10.0923V13.7742C158.815 14.1028 159.083 14.3745 159.395 14.3745C159.741 14.3745 159.997 14.1028 159.997 13.7742V10.2848C159.997 9.68437 160.254 9.38995 160.767 9.37862C160.912 9.36727 161.068 9.38983 161.258 9.42381C161.447 9.4578 161.559 9.48043 161.603 9.48043C161.96 9.48043 162.161 9.19719 162.161 8.91397C162.161 8.63075 162.005 8.43814 161.704 8.34751C161.414 8.26821 161.079 8.22284 160.689 8.22284ZM165.362 8.22284C164.681 8.22284 164.112 8.33624 163.655 8.56282C163.399 8.68744 163.265 8.86862 163.265 9.11786C163.265 9.49171 163.6 9.71835 164.079 9.57108C164.536 9.40114 164.949 9.322 165.295 9.322C166.153 9.322 166.533 9.65053 166.533 10.4209V10.7946C166.008 10.67 165.529 10.6019 165.116 10.6019C164.38 10.6019 163.823 10.7833 163.432 11.1458C163.042 11.5083 162.852 11.9501 162.852 12.4826C162.852 13.6495 163.667 14.4425 165.139 14.4425C166.165 14.4425 167.012 14.1141 167.458 13.8082C167.603 13.7063 167.67 13.5588 167.67 13.3662V10.4209C167.67 8.92548 166.834 8.22284 165.362 8.22284ZM171.629 8.22284C170.86 8.22284 170.201 8.42691 169.655 8.83475C169.488 8.98203 169.399 9.14058 169.399 9.33317V13.7628C169.399 14.0913 169.677 14.3745 169.99 14.3745C170.313 14.3745 170.581 14.114 170.581 13.7628V9.69574L170.614 9.66172C170.748 9.59375 171.06 9.37862 171.673 9.37862C172.398 9.37862 172.766 9.78625 172.766 10.6019V13.7628C172.766 14.0913 173.045 14.3745 173.358 14.3745C173.703 14.3745 173.948 14.114 173.948 13.7628V9.87703C174.205 9.54849 174.573 9.37862 175.041 9.37862C175.777 9.37862 176.145 9.80908 176.145 10.6814V13.7628C176.145 14.0913 176.413 14.3745 176.736 14.3745C177.06 14.3745 177.328 14.114 177.328 13.7628V10.6134C177.328 9.01598 176.581 8.22284 175.086 8.22284C174.462 8.22284 173.87 8.44954 173.313 8.89137C172.945 8.44954 172.376 8.22284 171.629 8.22284ZM96.242 8.29089C95.7959 8.29089 95.5061 8.71015 95.6734 9.16331L97.268 13.5249C97.4799 14.1027 97.8369 14.3973 98.3165 14.3973C98.8183 14.3973 99.1751 14.1026 99.3869 13.5135L100.982 9.1859C101.149 8.74408 100.859 8.31349 100.413 8.31349C100.134 8.31349 99.9334 8.47225 99.8218 8.77813L98.3832 12.9924C98.372 13.0491 98.2829 13.0491 98.2717 12.9924L96.8108 8.74411C96.7216 8.47221 96.4985 8.29089 96.242 8.29089ZM82.6591 8.30231C82.3357 8.30231 82.068 8.56277 82.068 8.91397V13.7628C82.068 14.0913 82.3469 14.3745 82.6591 14.3745C82.9825 14.3745 83.2502 14.114 83.2502 13.7628V8.91397C83.2502 8.58543 82.9825 8.30231 82.6591 8.30231ZM89.9748 8.30231C89.6179 8.30231 89.3949 8.57404 89.3949 8.93657V12.0294C89.3949 13.5588 90.3427 14.4425 91.8593 14.4425C92.7515 14.4425 93.5211 14.216 94.1567 13.7628C94.3017 13.6608 94.3797 13.5135 94.3797 13.3096V8.9254C94.3797 8.5742 94.112 8.30231 93.7886 8.30231C93.4652 8.30231 93.1977 8.5742 93.1977 8.9254V12.9132C92.7963 13.1625 92.3501 13.287 91.8706 13.287C91.0676 13.287 90.5769 12.7999 90.5769 12.0182V8.93657C90.5769 8.57404 90.3205 8.30231 89.9748 8.30231ZM152.659 8.30231C152.303 8.30231 152.08 8.57404 152.08 8.93657V12.0294C152.08 13.5588 153.028 14.4425 154.544 14.4425C155.436 14.4425 156.206 14.216 156.841 13.7628C156.986 13.6608 157.065 13.5135 157.065 13.3096V8.9254C157.065 8.5742 156.797 8.30231 156.474 8.30231C156.15 8.30231 155.882 8.5742 155.882 8.9254V12.9132C155.481 13.1625 155.035 13.287 154.555 13.287C153.753 13.287 153.262 12.7999 153.262 12.0182V8.93657C153.262 8.57404 153.005 8.30231 152.659 8.30231ZM147.976 9.37862C148.812 9.37862 149.258 9.82035 149.325 10.704C149.358 11.1685 149.358 11.6104 149.325 12.0182C149.269 12.8679 148.812 13.287 147.953 13.287C147.463 13.287 146.905 13.0945 146.649 12.9132V9.79756C146.883 9.60497 147.518 9.37862 147.976 9.37862ZM103.915 11.5876C104.305 11.5876 104.762 11.6557 105.264 11.7803V13.0376C104.974 13.2755 104.539 13.389 103.97 13.389C103.179 13.389 102.744 13.0605 102.744 12.4374C102.744 11.905 103.212 11.5876 103.915 11.5876ZM116.884 11.5876C117.275 11.5876 117.732 11.6557 118.234 11.7803V13.0376C117.944 13.2755 117.509 13.389 116.94 13.389C116.148 13.389 115.713 13.0605 115.713 12.4374C115.713 11.905 116.182 11.5876 116.884 11.5876ZM141.251 11.5876C141.641 11.5876 142.099 11.6557 142.6 11.7803V13.0376C142.311 13.2755 141.876 13.389 141.307 13.389C140.515 13.389 140.08 13.0605 140.08 12.4374C140.08 11.905 140.548 11.5876 141.251 11.5876ZM165.183 11.5876C165.573 11.5876 166.031 11.6557 166.533 11.7803V13.0376C166.243 13.2755 165.808 13.389 165.239 13.389C164.447 13.389 164.012 13.0605 164.012 12.4374C164.012 11.905 164.481 11.5876 165.183 11.5876Z" fill="white"/>
</svg>
