<svg width="200" height="49" viewBox="0 0 200 49" fill="none" xmlns="http://www.w3.org/2000/svg">
<path d="M6.94568 13.1884C6.91691 12.8632 6.93951 12.5771 7.01349 12.3302C11.261 -1.54869 27.9985 -4.33311 36.7525 7.16882C36.7667 7.18786 36.7748 7.21077 36.7757 7.23453C36.7767 7.25829 36.7704 7.28176 36.7577 7.30185C36.745 7.32194 36.7265 7.33768 36.7046 7.347C36.6828 7.35632 36.6586 7.35877 36.6354 7.35404C35.1928 7.0865 33.9146 7.13384 32.8009 7.49604C32.6428 7.54788 32.4731 7.55335 32.3115 7.5118C32.15 7.47026 32.0032 7.38341 31.8885 7.26143C26.5559 1.62468 18.1471 0.673901 12.1179 5.53892C9.66024 7.52279 7.98342 10.0767 7.08747 13.2007C7.08174 13.2158 7.07127 13.2286 7.05764 13.2371C7.044 13.2457 7.02795 13.2496 7.01191 13.2482C6.99588 13.2468 6.98074 13.2402 6.96878 13.2294C6.95683 13.2186 6.94872 13.2042 6.94568 13.1884Z" fill="white"/>
<path d="M150.034 8.97774C145.231 7.0021 136.416 6.61932 135.762 13.9662C135.374 18.3126 136.521 22.3751 141.249 23.2764C142.671 23.5481 144.12 23.5131 145.595 23.1715C145.702 23.1464 145.798 23.0858 145.866 22.9994C145.934 22.9131 145.971 22.8062 145.971 22.6961V16.7198C145.971 16.6576 145.995 16.5979 146.038 16.5539C146.081 16.5099 146.139 16.4852 146.199 16.4852H149.978C150.034 16.4852 150.087 16.5073 150.127 16.5467C150.166 16.586 150.188 16.6394 150.188 16.6951V25.604C150.188 25.6982 150.16 25.7903 150.109 25.8692C150.057 25.9481 149.984 26.0104 149.898 26.0485C148.312 26.7523 146.162 27.1207 143.45 27.1536C135.232 27.2401 131.188 22.9616 131.311 14.7688C131.472 4.02629 141.976 2.56308 150.015 5.14994C150.065 5.16565 150.109 5.19685 150.14 5.23902C150.171 5.2812 150.188 5.33216 150.188 5.38454V8.87279C150.188 8.89134 150.184 8.90971 150.176 8.92621C150.167 8.94272 150.155 8.95683 150.139 8.96727C150.124 8.97771 150.106 8.98413 150.088 8.98596C150.07 8.98779 150.051 8.98496 150.034 8.97774Z" fill="white"/>
<path d="M175.867 17.2639C175.889 19.8361 174.89 22.312 173.09 24.1467C171.289 25.9815 168.835 27.0248 166.267 27.0473L163.234 27.0738C160.665 27.0963 158.193 26.096 156.361 24.293C154.529 22.49 153.487 20.032 153.465 17.4597L153.434 13.9531C153.412 11.3808 154.41 8.90493 156.211 7.07018C158.011 5.23543 160.465 4.19207 163.034 4.16962L166.067 4.14307C168.635 4.12062 171.108 5.12093 172.94 6.92393C174.772 8.72693 175.814 11.1849 175.836 13.7572L175.867 17.2639ZM171.48 14.0211C171.483 13.2079 171.326 12.4021 171.018 11.6497C170.71 10.8973 170.257 10.2131 169.684 9.63608C169.112 9.05906 168.432 8.60055 167.683 8.28673C166.934 7.97291 166.131 7.80992 165.319 7.80708L163.962 7.80233C163.15 7.79949 162.346 7.95686 161.594 8.26543C160.843 8.57401 160.16 9.02776 159.584 9.60077C159.008 10.1738 158.55 10.8548 158.236 11.605C157.923 12.3553 157.76 13.1599 157.758 13.9731L157.746 17.1958C157.743 18.009 157.901 18.8148 158.209 19.5672C158.517 20.3196 158.97 21.0038 159.542 21.5808C160.114 22.1579 160.794 22.6164 161.543 22.9302C162.292 23.244 163.096 23.407 163.908 23.4098L165.264 23.4146C166.076 23.4174 166.881 23.2601 167.632 22.9515C168.383 22.6429 169.067 22.1892 169.643 21.6161C170.219 21.0431 170.677 20.3621 170.99 19.6119C171.303 18.8617 171.466 18.057 171.469 17.2438L171.48 14.0211Z" fill="white"/>
<path d="M73.0223 15.0219C73.1003 15.0219 73.1661 14.9705 73.2195 14.8676C75.1676 11.3156 77.1157 7.82114 79.0638 4.38435C79.0883 4.34314 79.1233 4.30897 79.1655 4.28517C79.2076 4.26137 79.2554 4.24875 79.3042 4.24853H83.4716C83.4856 4.24802 83.4995 4.2512 83.5119 4.25775C83.5243 4.26431 83.5348 4.274 83.5423 4.28588C83.5498 4.29775 83.554 4.31138 83.5546 4.32541C83.5552 4.33944 83.5521 4.35338 83.5456 4.36583L75.2724 18.7139C75.1997 18.8435 75.1615 18.9902 75.1614 19.1399V26.5918C75.1618 26.6856 75.1266 26.7762 75.0627 26.8458C74.9989 26.9155 74.911 26.9592 74.8162 26.9684C74.4957 26.9972 73.9162 27.0137 73.0777 27.0178C72.2434 27.0219 71.666 27.0116 71.3454 26.9869C71.2496 26.9792 71.1601 26.9361 71.095 26.8663C71.0299 26.7965 70.9938 26.7051 70.994 26.6103L70.9201 19.1584C70.9171 19.0103 70.8768 18.8658 70.8029 18.7386L62.388 4.47079C62.3815 4.45833 62.3784 4.4444 62.379 4.43037C62.3796 4.41634 62.3838 4.4027 62.3913 4.39083C62.3988 4.37896 62.4092 4.36926 62.4216 4.36271C62.434 4.35615 62.4479 4.35297 62.462 4.35348L66.6294 4.31027C66.6782 4.31047 66.726 4.32309 66.7681 4.34689C66.8102 4.37069 66.8453 4.40486 66.8698 4.44609C68.8507 7.8623 70.8338 11.3382 72.8188 14.8738C72.8723 14.9726 72.9401 15.0219 73.0223 15.0219Z" fill="white"/>
<path d="M90.1995 4.28562H94.4656C94.5061 4.28481 94.5459 4.29612 94.58 4.31812C94.614 4.34012 94.6407 4.3718 94.6567 4.4091L104.311 26.7338C104.324 26.7647 104.329 26.7983 104.326 26.8317C104.324 26.8651 104.312 26.8973 104.294 26.9254C104.276 26.9535 104.251 26.9766 104.222 26.9928C104.192 27.0089 104.159 27.0175 104.126 27.0178H100.088C100.047 27.0187 100.008 27.0073 99.9735 26.9853C99.9394 26.9634 99.9127 26.9317 99.8968 26.8944L97.3199 20.9242C97.3039 20.8869 97.2772 20.8552 97.2432 20.8332C97.2091 20.8112 97.1693 20.7999 97.1288 20.8008H90.0208C89.9867 20.8014 89.9531 20.7936 89.9229 20.7779C89.8927 20.7622 89.8669 20.7392 89.8479 20.7109C89.8289 20.6827 89.8173 20.6501 89.8141 20.6162C89.8109 20.5822 89.8162 20.5481 89.8297 20.5168L91.2106 17.2508C91.2265 17.2135 91.2532 17.1818 91.2873 17.1598C91.3213 17.1378 91.3612 17.1265 91.4017 17.1273H95.5444C95.5779 17.127 95.6108 17.1183 95.6402 17.1022C95.6695 17.0861 95.6945 17.063 95.7128 17.0349C95.7311 17.0068 95.7422 16.9746 95.7451 16.9412C95.748 16.9077 95.7426 16.8741 95.7294 16.8433L92.4743 9.30499C92.459 9.26771 92.4329 9.23585 92.3994 9.21343C92.366 9.19101 92.3266 9.17904 92.2863 9.17904C92.2461 9.17904 92.2067 9.19101 92.1732 9.21343C92.1397 9.23585 92.1137 9.26771 92.0983 9.30499L84.6512 26.8944C84.6353 26.9317 84.6085 26.9634 84.5745 26.9853C84.5405 27.0073 84.5006 27.0187 84.4601 27.0178H80.7427C80.7087 27.0185 80.6751 27.0107 80.6449 26.995C80.6147 26.9793 80.5889 26.9563 80.5699 26.928C80.5509 26.8998 80.5392 26.8672 80.5361 26.8333C80.5329 26.7993 80.5382 26.7652 80.5516 26.7338L90.0084 4.4091C90.0244 4.3718 90.0511 4.34012 90.0851 4.31812C90.1192 4.29612 90.159 4.28481 90.1995 4.28562Z" fill="white"/>
<path d="M123.527 4.27325H127.177C127.227 4.27325 127.276 4.29342 127.312 4.32931C127.348 4.3652 127.368 4.41388 127.368 4.46464V26.8388C127.368 26.8895 127.348 26.9382 127.312 26.9741C127.276 27.01 127.227 27.0302 127.177 27.0302H123.293C123.263 27.0299 123.233 27.0225 123.206 27.0086C123.179 26.9946 123.156 26.9745 123.139 26.9499L111.543 10.5336C111.519 10.5012 111.486 10.4771 111.448 10.4647C111.409 10.4523 111.368 10.4522 111.33 10.4645C111.292 10.4768 111.259 10.5008 111.235 10.5332C111.211 10.5655 111.198 10.6045 111.197 10.6447V26.8388C111.197 26.8895 111.177 26.9382 111.142 26.9741C111.106 27.01 111.057 27.0302 111.006 27.0302H107.363C107.312 27.0302 107.264 27.01 107.228 26.9741C107.192 26.9382 107.172 26.8895 107.172 26.8388V4.47082C107.172 4.44568 107.177 4.4208 107.186 4.39758C107.196 4.37436 107.21 4.35326 107.228 4.33549C107.246 4.31771 107.267 4.30362 107.29 4.294C107.313 4.28438 107.338 4.27943 107.363 4.27943H111.419C111.45 4.27966 111.479 4.28706 111.506 4.30101C111.533 4.31496 111.556 4.33507 111.574 4.35969L122.991 20.5106C123.014 20.5426 123.047 20.5666 123.084 20.5791C123.122 20.5917 123.163 20.5923 123.201 20.5807C123.238 20.5692 123.272 20.5462 123.296 20.5148C123.32 20.4834 123.334 20.4453 123.336 20.4056V4.46464C123.336 4.41388 123.356 4.3652 123.392 4.32931C123.428 4.29342 123.476 4.27325 123.527 4.27325Z" fill="white"/>
<path d="M195.704 20.4118C195.723 20.4374 195.749 20.4564 195.779 20.4662C195.81 20.476 195.842 20.4762 195.873 20.4667C195.903 20.4573 195.93 20.4386 195.949 20.4133C195.969 20.388 195.98 20.3573 195.981 20.3254L195.962 4.5079C195.962 4.45059 195.985 4.39563 196.026 4.35511C196.066 4.31458 196.121 4.29182 196.178 4.29182L199.803 4.29799C199.855 4.29799 199.906 4.31881 199.943 4.35586C199.98 4.39291 200 4.44316 200 4.49556L199.994 26.6968C199.994 26.7803 199.961 26.8604 199.902 26.9195C199.843 26.9785 199.763 27.0117 199.68 27.0117L196.178 26.9993C196.071 26.9975 195.966 26.9708 195.872 26.9215C195.778 26.8722 195.697 26.8016 195.636 26.7153L184.064 10.3422C184.051 10.3218 184.031 10.3063 184.008 10.2983C183.985 10.2903 183.96 10.2902 183.937 10.2979C183.913 10.3057 183.893 10.3208 183.88 10.3411C183.866 10.3614 183.859 10.3857 183.861 10.4101L183.879 26.7833C183.879 26.8389 183.857 26.8923 183.818 26.9317C183.779 26.9711 183.725 26.9932 183.67 26.9932L180.051 26.9993C179.997 26.9993 179.945 26.9779 179.907 26.9397C179.869 26.9015 179.848 26.8496 179.848 26.7956V4.66842C179.849 4.56742 179.889 4.47099 179.96 4.39955C180.03 4.32811 180.124 4.28726 180.224 4.28564L183.707 4.29182C183.816 4.29175 183.923 4.31748 184.019 4.36688C184.116 4.41627 184.199 4.4879 184.262 4.57582L195.704 20.4118Z" fill="white"/>
<path d="M9.16212 13.5341C9.09636 13.5176 9.0306 13.5032 8.96484 13.4909C11.0732 7.75741 15.0639 4.94624 20.9369 5.05737C23.6206 5.11088 26.1338 6.21806 28.4764 8.37891C28.4898 8.39018 28.5003 8.40444 28.5071 8.42054C28.514 8.43664 28.5169 8.45413 28.5157 8.47157C28.5145 8.48902 28.5092 8.50594 28.5002 8.52095C28.4913 8.53596 28.4789 8.54864 28.4641 8.55796L26.5222 9.93473C26.4798 9.96424 26.4287 9.97847 26.3772 9.9751C26.3257 9.97174 26.2768 9.95098 26.2386 9.91621C20.3944 4.58198 12.3185 6.39093 9.16212 13.5341Z" fill="white"/>
<path d="M26.56 17.2384L23.1016 13.0217L25.0496 13.2439C25.368 13.2838 25.691 13.2094 25.962 13.034C27.7211 11.8857 29.328 10.9287 30.7829 10.1632C33.405 8.77609 35.8956 8.96542 38.2546 10.7312C38.2977 10.7642 38.3319 10.8076 38.3541 10.8571C38.3762 10.9067 38.3856 10.9609 38.3813 11.0146C38.3769 11.0683 38.3591 11.1197 38.3294 11.1641C38.2997 11.2085 38.2591 11.2443 38.2115 11.2683L26.56 17.2384Z" fill="white"/>
<path d="M23.1014 13.0216L26.5599 17.2384C21.8582 19.6791 17.1421 22.0602 12.4117 24.3816C10.8088 25.1677 9.32722 24.9825 7.96685 23.8259C7.91612 23.7829 7.88097 23.7248 7.86661 23.6601C7.85224 23.5954 7.8594 23.5276 7.88705 23.4666C7.9147 23.4057 7.96136 23.3549 8.02014 23.3218C8.07892 23.2887 8.14669 23.2749 8.21344 23.2826C8.85458 23.3649 9.54093 23.1797 10.2725 22.727C14.8016 19.9034 18.1675 17.8352 20.3704 16.5222C20.4037 16.5026 20.4312 16.4746 20.4503 16.441C20.4695 16.4075 20.4795 16.3695 20.4795 16.3308C20.4795 16.2922 20.4695 16.2542 20.4503 16.2206C20.4312 16.1871 20.4037 16.1591 20.3704 16.1394C18.1203 14.8182 13.6138 12.4722 12.8432 10.2989C12.8232 10.24 12.824 10.1759 12.8455 10.1175C12.867 10.0591 12.9079 10.0098 12.9614 9.97798C13.0148 9.94615 13.0776 9.93368 13.1391 9.94266C13.2007 9.95164 13.2572 9.98152 13.2994 10.0273C15.5002 12.4289 20.0437 12.5771 23.1014 13.0216Z" fill="white"/>
<path d="M9.16447 13.5341L8.8439 15.1207H8.83774C8.74321 14.5322 8.78636 13.9889 8.9672 13.4908C9.03296 13.5032 9.09871 13.5176 9.16447 13.5341Z" fill="white"/>
<path d="M39.2333 19.992C39.2375 19.9811 39.2453 19.9721 39.2555 19.9664C39.2656 19.9608 39.2774 19.9589 39.2888 19.9611L39.295 19.9673C39.3105 19.971 39.3251 19.9778 39.338 19.9871C39.3508 19.9964 39.3616 20.008 39.3697 20.0213C39.3778 20.0346 39.383 20.0493 39.385 20.0644C39.387 20.0795 39.3857 20.0948 39.3813 20.1093C38.4525 24.0071 36.7612 27.0343 34.3077 29.1911C26.4599 36.0811 15.7208 34.8155 9.45734 26.4931C9.43787 26.4676 9.42588 26.4371 9.42272 26.4052C9.41955 26.3732 9.42533 26.341 9.43942 26.3122C9.4535 26.2833 9.47532 26.259 9.50244 26.2419C9.52956 26.2247 9.5609 26.2155 9.59296 26.2152C11.1013 26.207 12.0692 26.1021 12.4966 25.9004C19.0806 22.7846 25.5166 19.7409 31.8047 16.7692C31.8137 16.7654 31.8316 16.764 31.8566 16.7651C31.8817 16.7662 31.9128 16.7697 31.9465 16.7754C31.9589 16.7754 31.9712 16.7774 31.9835 16.7816C31.9905 16.7826 31.9975 16.7852 32.0037 16.789C32.0099 16.7929 32.015 16.7977 32.0183 16.803C32.0216 16.8084 32.023 16.8138 32.0223 16.8188C32.0216 16.8238 32.0188 16.828 32.0143 16.831C27.0044 19.9549 21.3944 23.2847 15.1844 26.8203C15.1455 26.8426 15.1126 26.874 15.0883 26.9118C15.0641 26.9497 15.0493 26.993 15.0451 27.0382C15.0409 27.0834 15.0474 27.1292 15.0641 27.1718C15.0808 27.2144 15.1073 27.2526 15.1413 27.2833C20.6649 32.1545 28.5621 32.5929 34.1905 27.9192C36.5989 25.923 38.2798 23.2806 39.2333 19.992Z" fill="white"/>
<path d="M37.125 20.2574L37.1805 19.8499C37.1786 19.8469 37.1779 19.8441 37.1783 19.842C37.1787 19.8399 37.1804 19.8387 37.1828 19.8387C37.1853 19.8387 37.1883 19.8399 37.1914 19.842C37.1944 19.8441 37.1971 19.8469 37.199 19.8499C37.236 20.0063 37.2113 20.1422 37.125 20.2574Z" fill="white"/>
<path d="M37.1248 20.2574L36.8844 21.0601C36.7529 20.9983 36.7035 20.9427 36.7364 20.8934C36.7488 20.667 36.8782 20.455 37.1248 20.2574Z" fill="white"/>
<path d="M36.8852 21.06C34.1788 27.5734 26.7934 30.4073 20.4622 27.1845C20.422 27.1646 20.3885 27.1335 20.3654 27.0951C20.3424 27.0566 20.3308 27.0124 20.3321 26.9675C20.3334 26.9227 20.3475 26.8792 20.3728 26.8421C20.398 26.8051 20.4333 26.7761 20.4745 26.7585L22.25 25.9929C22.5198 25.8738 22.8255 25.8606 23.1069 25.9559C28.8977 27.9521 33.4411 26.2646 36.7372 20.8933C36.7044 20.9427 36.7537 20.9983 36.8852 21.06Z" fill="white"/>
<path d="M62.5799 35.6613C62.9476 35.6613 63.2457 35.3627 63.2457 34.9945C63.2457 34.6262 62.9476 34.3277 62.5799 34.3277C62.2122 34.3277 61.9141 34.6262 61.9141 34.9945C61.9141 35.3627 62.2122 35.6613 62.5799 35.6613Z" fill="white"/>
<path d="M117.31 35.6613C117.678 35.6613 117.976 35.3627 117.976 34.9945C117.976 34.6262 117.678 34.3277 117.31 34.3277C116.943 34.3277 116.645 34.6262 116.645 34.9945C116.645 35.3627 116.943 35.6613 117.31 35.6613Z" fill="white"/>
<path d="M147.681 34.408H147.225C147.045 34.408 146.898 34.5545 146.898 34.7352V42.9217C146.898 43.1025 147.045 43.249 147.225 43.249H147.681C147.862 43.249 148.008 43.1025 148.008 42.9217V34.7352C148.008 34.5545 147.862 34.408 147.681 34.408Z" fill="white"/>
<path d="M164.824 35.6674C165.195 35.6674 165.496 35.3661 165.496 34.9945C165.496 34.6228 165.195 34.3215 164.824 34.3215C164.453 34.3215 164.152 34.6228 164.152 34.9945C164.152 35.3661 164.453 35.6674 164.824 35.6674Z" fill="white"/>
<path d="M77.5262 42.2056C77.586 42.1958 77.6473 42.1993 77.7057 42.2158C77.7642 42.2324 77.8184 42.2617 77.8647 42.3016C77.911 42.3415 77.9483 42.3911 77.9739 42.447C77.9995 42.5029 78.0129 42.5638 78.0132 42.6254V42.8291C78.013 42.9142 77.9831 42.9963 77.9289 43.0607C77.8747 43.1252 77.7997 43.1679 77.7173 43.1811C76.1946 43.4342 75.1157 43.0884 75.0911 41.261C75.0582 39.1536 75.0582 37.3941 75.0911 35.9823C75.0926 35.9253 75.1056 35.8691 75.1292 35.8172C75.1529 35.7653 75.1867 35.7187 75.2287 35.6801C75.2706 35.6415 75.3199 35.6118 75.3736 35.5926C75.4273 35.5735 75.4842 35.5653 75.5411 35.5687C75.8411 35.5851 76.0076 35.8136 76.0404 36.254C76.0482 36.3517 76.0925 36.4428 76.1645 36.5092C76.2366 36.5756 76.331 36.6124 76.4288 36.612H77.5693C77.626 36.612 77.6821 36.6232 77.7345 36.6449C77.7868 36.6667 77.8344 36.6985 77.8745 36.7386C77.9145 36.7788 77.9463 36.8264 77.968 36.8788C77.9897 36.9313 78.0009 36.9875 78.0009 37.0442V37.2418C78.0009 37.2929 77.9908 37.3434 77.9713 37.3906C77.9518 37.4378 77.9232 37.4807 77.8871 37.5168C77.851 37.5529 77.8082 37.5816 77.7611 37.6011C77.714 37.6207 77.6635 37.6307 77.6125 37.6307H76.4905C76.4476 37.6307 76.4051 37.6394 76.3654 37.6561C76.3258 37.6729 76.2898 37.6974 76.2594 37.7284C76.2291 37.7593 76.205 37.7961 76.1886 37.8365C76.1722 37.877 76.1637 37.9203 76.1637 37.9641L76.1699 41.6561C76.1702 41.7711 76.2096 41.8825 76.2814 41.9713C76.3533 42.0602 76.4533 42.1211 76.5645 42.1438C76.959 42.2262 77.2796 42.2467 77.5262 42.2056Z" fill="white"/>
<path d="M113.627 42.1994C113.687 42.1896 113.748 42.1931 113.807 42.2097C113.865 42.2262 113.919 42.2555 113.966 42.2954C114.012 42.3353 114.049 42.3849 114.075 42.4408C114.1 42.4967 114.114 42.5576 114.114 42.6192V42.823C114.114 42.908 114.084 42.9901 114.03 43.0546C113.976 43.119 113.901 43.1617 113.818 43.1749C112.296 43.428 111.217 43.0823 111.192 41.2548C111.163 39.1475 111.165 37.3879 111.198 35.9761C111.2 35.9191 111.213 35.863 111.236 35.811C111.26 35.7591 111.294 35.7125 111.336 35.6739C111.378 35.6353 111.427 35.6056 111.481 35.5865C111.534 35.5673 111.591 35.5592 111.648 35.5625C111.948 35.579 112.115 35.8074 112.148 36.2478C112.155 36.3455 112.2 36.4367 112.272 36.5031C112.344 36.5695 112.438 36.6062 112.536 36.6059H113.676C113.791 36.6059 113.901 36.6514 113.982 36.7325C114.062 36.8135 114.108 36.9234 114.108 37.038V37.2356C114.108 37.3388 114.067 37.4377 113.994 37.5106C113.921 37.5836 113.823 37.6246 113.72 37.6246H112.598C112.511 37.6246 112.428 37.6597 112.367 37.7222C112.305 37.7847 112.271 37.8695 112.271 37.958V41.6499C112.271 41.765 112.311 41.8763 112.382 41.9652C112.454 42.054 112.554 42.1149 112.665 42.1377C113.06 42.22 113.381 42.2406 113.627 42.1994Z" fill="white"/>
<path d="M199.474 42.1994C199.534 42.1896 199.595 42.1931 199.654 42.2097C199.712 42.2262 199.767 42.2555 199.813 42.2954C199.859 42.3353 199.897 42.3849 199.922 42.4408C199.948 42.4967 199.961 42.5576 199.961 42.6192V42.823C199.961 42.908 199.931 42.9901 199.877 43.0546C199.823 43.119 199.748 43.1617 199.666 43.1749C198.143 43.428 197.064 43.0823 197.039 41.2548C197.015 39.1475 197.019 37.3879 197.052 35.9761C197.053 35.9191 197.066 35.863 197.09 35.811C197.113 35.7591 197.147 35.7125 197.189 35.6739C197.231 35.6353 197.28 35.6056 197.334 35.5865C197.388 35.5673 197.445 35.5592 197.502 35.5625C197.802 35.579 197.968 35.8074 198.001 36.2478C198.009 36.3455 198.053 36.4367 198.125 36.5031C198.197 36.5695 198.292 36.6062 198.389 36.6059H199.524C199.638 36.6059 199.748 36.6514 199.829 36.7325C199.91 36.8135 199.955 36.9234 199.955 37.038V37.2356C199.955 37.3388 199.914 37.4377 199.841 37.5106C199.769 37.5836 199.67 37.6246 199.567 37.6246H198.445C198.359 37.6262 198.278 37.6621 198.218 37.7244C198.158 37.7868 198.124 37.8706 198.124 37.958L198.118 41.6499C198.118 41.765 198.158 41.8763 198.23 41.9652C198.302 42.054 198.401 42.1149 198.513 42.1377C198.907 42.22 199.228 42.2406 199.474 42.1994Z" fill="white"/>
<path d="M3.4108 39.4397C3.43957 39.4397 3.46629 39.4355 3.49095 39.4273C3.50364 39.4239 3.52014 39.4105 3.53864 39.3887C3.55713 39.3669 3.5769 39.3376 3.59575 39.3038L5.24791 36.2725C5.30592 36.1642 5.39217 36.0737 5.49748 36.0106C5.60278 35.9476 5.7232 35.9143 5.8459 35.9144H6.59184C6.62982 35.9151 6.66696 35.9257 6.69971 35.9449C6.73247 35.9642 6.75974 35.9915 6.77892 36.0244C6.79809 36.0572 6.80853 36.0944 6.80924 36.1324C6.80995 36.1705 6.80089 36.2081 6.78295 36.2416L4.31703 40.5139C4.19576 40.7242 4.13197 40.9649 4.13209 41.2116V43.1378C4.13209 43.2475 4.08857 43.3527 4.01111 43.4303C3.93365 43.5079 3.82859 43.5515 3.71904 43.5515C3.67795 43.5515 3.57725 43.5535 3.41697 43.5576C3.26079 43.5576 3.1601 43.5576 3.11489 43.5576C3.06013 43.5576 3.00591 43.5467 2.95539 43.5256C2.90487 43.5044 2.85906 43.4734 2.82063 43.4343C2.78219 43.3952 2.7519 43.3489 2.73151 43.298C2.71111 43.2471 2.70103 43.1926 2.70185 43.1378L2.69569 41.2116C2.69473 40.967 2.63097 40.7286 2.51074 40.5201L0.026328 36.2539C0.00838386 36.2204 -0.000668109 36.1828 3.84049e-05 36.1448C0.000744918 36.1068 0.0111863 36.0696 0.0303632 36.0367C0.0495401 36.0039 0.0768108 35.9765 0.109565 35.9573C0.14232 35.938 0.179462 35.9275 0.217437 35.9267L0.963378 35.9205C1.08608 35.9205 1.20649 35.9537 1.3118 36.0168C1.41711 36.0799 1.50336 36.1703 1.56136 36.2786L3.22586 39.3038C3.24468 39.3373 3.2644 39.3665 3.28288 39.3883C3.30136 39.4101 3.31789 39.4236 3.33066 39.4273C3.35532 39.4355 3.38204 39.4397 3.4108 39.4397Z" fill="white"/>
<path d="M10.0146 37.853C10.0018 37.8209 9.97971 37.7934 9.95114 37.774C9.92257 37.7546 9.88885 37.7443 9.85435 37.7443C9.81984 37.7443 9.78613 37.7546 9.75756 37.774C9.72899 37.7934 9.70687 37.8209 9.69406 37.853L7.43158 43.1996C7.37858 43.3225 7.29078 43.4272 7.17903 43.5007C7.06728 43.5742 6.93647 43.6133 6.80277 43.6132H6.29726C6.2493 43.6138 6.20194 43.6025 6.15943 43.5802C6.11692 43.558 6.0806 43.5255 6.05371 43.4857C6.02682 43.446 6.01022 43.4001 6.00538 43.3523C6.00055 43.3045 6.00763 43.2563 6.02601 43.2119L8.86182 36.5194C8.94533 36.3247 9.08388 36.1587 9.26042 36.0418C9.43696 35.9249 9.64378 35.8623 9.85541 35.8616C10.067 35.861 10.2742 35.9223 10.4515 36.0381C10.6288 36.1539 10.7683 36.319 10.853 36.5133L13.7197 43.1378C13.7443 43.1923 13.7547 43.2521 13.7499 43.3117C13.7451 43.3713 13.7253 43.4289 13.6922 43.4792C13.6591 43.5296 13.6138 43.571 13.5605 43.5998C13.5071 43.6286 13.4474 43.6438 13.3868 43.6441H13.097C12.8938 43.6439 12.695 43.5842 12.5252 43.4723C12.3555 43.3604 12.2221 43.2012 12.1415 43.0144L11.599 41.7611C11.5641 41.6804 11.5064 41.6117 11.433 41.5634C11.3596 41.5151 11.2737 41.4894 11.1859 41.4894H9.45364C9.41048 41.4894 9.36776 41.4807 9.32804 41.4638C9.28832 41.4469 9.25242 41.4222 9.22249 41.3911C9.19255 41.3599 9.1692 41.3231 9.15384 41.2827C9.13847 41.2423 9.13141 41.1992 9.13307 41.156C9.15773 40.4728 9.65296 40.16 10.6188 40.2176C10.664 40.2203 10.7091 40.2113 10.7498 40.1916C10.7906 40.1718 10.8256 40.142 10.8516 40.1048C10.8775 40.0677 10.8936 40.0245 10.8981 39.9794C10.9027 39.9343 10.8957 39.8888 10.8777 39.8472L10.0146 37.853Z" fill="white"/>
<path d="M17.6641 40.0694C16.9572 39.0486 16.5421 38.4559 16.4188 38.2913C16.4005 38.2651 16.3743 38.246 16.3441 38.2366C16.3139 38.2272 16.2813 38.2281 16.2509 38.2391C16.2206 38.2502 16.1942 38.2708 16.1756 38.2979C16.157 38.3251 16.1472 38.3574 16.1476 38.3901L16.1414 43.1687C16.1414 43.2702 16.1005 43.3675 16.0277 43.4393C15.9548 43.5111 15.856 43.5514 15.753 43.5514H15.1674C15.066 43.5514 14.9688 43.5111 14.8971 43.4393C14.8254 43.3675 14.7852 43.2702 14.7852 43.1687L14.7913 36.612C14.7926 36.4332 14.85 36.2593 14.9555 36.115C15.0609 35.9707 15.2091 35.8632 15.3789 35.8079C15.5487 35.7526 15.7316 35.7522 15.9016 35.8067C16.0717 35.8613 16.2203 35.9681 16.3264 36.1119C17.1237 37.1985 17.9004 38.2872 18.6567 39.3779C19.3677 40.3986 19.7869 40.9893 19.9143 41.1498C19.9323 41.1756 19.9579 41.1946 19.9875 41.2041C20.0172 41.2137 20.0493 41.2133 20.0793 41.2031C20.1094 41.1928 20.1358 41.1732 20.1549 41.147C20.1739 41.1208 20.1846 41.0894 20.1855 41.0572V36.2786C20.1855 36.1771 20.2264 36.0797 20.2993 36.0079C20.3721 35.9362 20.4709 35.8958 20.5739 35.8958H21.1596C21.2609 35.8958 21.3581 35.9362 21.4298 36.0079C21.5015 36.0797 21.5418 36.1771 21.5418 36.2786L21.5356 42.8353C21.5327 43.0125 21.4746 43.1844 21.3694 43.327C21.2643 43.4697 21.1174 43.5759 20.9491 43.6309C20.7809 43.686 20.5996 43.6871 20.4307 43.6341C20.2618 43.5811 20.1136 43.4767 20.0067 43.3354C19.2053 42.2488 18.4244 41.1601 17.6641 40.0694Z" fill="white"/>
<path d="M28.7223 37.4023C26.7865 36.575 24.2589 37.1245 24.2959 39.7422C24.3247 41.5615 25.2556 42.4423 27.0886 42.3846C27.2603 42.3798 27.4233 42.3087 27.543 42.1865C27.6628 42.0643 27.7297 41.9006 27.7297 41.7302V40.4275C27.7297 40.3145 27.7745 40.2062 27.8543 40.1263C27.9341 40.0464 28.0423 40.0015 28.1551 40.0015H28.7223C28.8318 40.0015 28.9369 40.0457 29.0143 40.1245C29.0918 40.2032 29.1353 40.31 29.1353 40.4213V42.8909C29.1358 42.9887 29.1049 43.0841 29.0472 43.163C28.9894 43.2419 28.908 43.3002 28.8147 43.3292C26.6324 43.996 23.7164 43.6997 23.0198 41.1807C21.8362 36.9331 24.9001 35.3526 28.6113 36.0564C28.7609 36.0864 28.8955 36.1674 28.9921 36.2856C29.0888 36.4038 29.1416 36.5519 29.1415 36.7047V37.1245C29.1414 37.1751 29.1288 37.2249 29.105 37.2694C29.0812 37.314 29.0469 37.3518 29.0052 37.3794C28.9634 37.4071 28.9157 37.4237 28.8663 37.4277C28.8168 37.4317 28.7673 37.4229 28.7223 37.4023Z" fill="white"/>
<path d="M37.6892 40.3015C37.6997 41.166 37.3669 41.9993 36.764 42.618C36.161 43.2368 35.3374 43.5903 34.4742 43.6009L33.5125 43.6127C32.6493 43.6232 31.8172 43.29 31.1994 42.6861C30.5816 42.0823 30.2285 41.2574 30.218 40.3929L30.2034 39.1953C30.1928 38.3308 30.5256 37.4975 31.1286 36.8787C31.7315 36.26 32.5552 35.9064 33.4184 35.8959L34.38 35.8841C35.2432 35.8735 36.0753 36.2068 36.6931 36.8106C37.311 37.4145 37.664 38.2393 37.6746 39.1038L37.6892 40.3015ZM33.9259 37.0258C33.2948 37.0291 32.6911 37.3184 32.2475 37.8302C31.8039 38.342 31.5568 39.0342 31.5605 39.7547C31.5643 40.4751 31.8186 41.1647 32.2675 41.6718C32.7165 42.1789 33.3232 42.4619 33.9543 42.4587C34.5854 42.4553 35.1891 42.166 35.6327 41.6542C36.0763 41.1424 36.3234 40.4502 36.3197 39.7297C36.3159 39.0093 36.0616 38.3197 35.6127 37.8126C35.1638 37.3055 34.557 37.0225 33.9259 37.0258Z" fill="white"/>
<path d="M42.8637 39.3779C43.5788 40.3987 43.998 40.9893 44.1213 41.1498C44.1393 41.1756 44.1649 41.1946 44.1946 41.2042C44.2242 41.2138 44.2563 41.2134 44.2864 41.2032C44.3164 41.1929 44.3428 41.1733 44.3619 41.1471C44.381 41.1209 44.3917 41.0894 44.3926 41.0572V36.2725C44.3926 36.2222 44.4026 36.1724 44.4221 36.126C44.4416 36.0796 44.4702 36.0374 44.5063 36.0018C44.5424 35.9663 44.5852 35.9381 44.6323 35.9188C44.6794 35.8996 44.7299 35.8897 44.7809 35.8897H45.3666C45.4168 35.8897 45.4665 35.8996 45.5129 35.9188C45.5592 35.9381 45.6014 35.9663 45.6369 36.0018C45.6724 36.0374 45.7005 36.0796 45.7197 36.126C45.7389 36.1724 45.7488 36.2222 45.7488 36.2725V42.8353C45.7488 43.0147 45.6923 43.1894 45.5873 43.3348C45.4824 43.4801 45.3343 43.5885 45.1642 43.6446C44.9941 43.7007 44.8106 43.7016 44.64 43.6472C44.4693 43.5928 44.3202 43.4858 44.2138 43.3416C43.4124 42.2508 42.6315 41.1622 41.8711 40.0756C41.1601 39.0507 40.743 38.458 40.6197 38.2975C40.6017 38.2717 40.5761 38.2527 40.5464 38.2431C40.5168 38.2336 40.4847 38.2339 40.4546 38.2442C40.4246 38.2545 40.3982 38.2741 40.3791 38.3003C40.36 38.3265 40.3493 38.3579 40.3484 38.3901V43.1749C40.3484 43.2764 40.3075 43.3738 40.2347 43.4455C40.1619 43.5173 40.0631 43.5577 39.9601 43.5577H39.3744C39.273 43.5577 39.1758 43.5173 39.1041 43.4455C39.0325 43.3738 38.9922 43.2764 38.9922 43.1749V36.612C38.9922 36.4327 39.0487 36.2579 39.1537 36.1126C39.2586 35.9673 39.4067 35.8589 39.5768 35.8028C39.7469 35.7467 39.9304 35.7457 40.101 35.8002C40.2717 35.8546 40.4208 35.9615 40.5272 36.1058C41.3286 37.1965 42.1075 38.2872 42.8637 39.3779Z" fill="white"/>
<path d="M67.3154 36.9084C67.3383 36.9462 67.3686 36.979 67.4042 37.0049C67.4399 37.0307 67.4803 37.0491 67.5229 37.0589C67.5656 37.0688 67.6096 37.0698 67.6523 37.0619C67.6951 37.0541 67.7356 37.0376 67.7716 37.0133C69.0292 36.1922 70.9773 36.5812 71.7417 37.748C71.8526 37.9126 71.9126 38.1059 71.9143 38.3037L71.9205 42.9156C71.9205 42.998 71.8882 43.0772 71.8306 43.1361C71.7729 43.1949 71.6945 43.2288 71.6122 43.2304H71.156C71.071 43.2304 70.9895 43.1966 70.9294 43.1364C70.8692 43.0762 70.8355 42.9945 70.8355 42.9094L70.8231 38.8285C70.8215 38.525 70.7 38.2345 70.4851 38.0205C70.2703 37.8064 69.9795 37.6863 69.6765 37.6863H68.7518C68.5869 37.6863 68.4237 37.7189 68.2714 37.7823C68.1192 37.8457 67.981 37.9385 67.8647 38.0556C67.7484 38.1726 67.6563 38.3115 67.5938 38.4643C67.5313 38.617 67.4995 38.7807 67.5003 38.9458L67.5126 42.9032C67.5126 42.99 67.4782 43.0732 67.4169 43.1346C67.3557 43.196 67.2726 43.2304 67.1859 43.2304L66.7482 43.2366C66.6566 43.2366 66.5688 43.2002 66.5041 43.1354C66.4393 43.0705 66.403 42.9826 66.403 42.8909L66.3907 36.9207C66.3897 36.8483 66.412 36.7775 66.4541 36.7186C66.4963 36.6597 66.5561 36.6159 66.6249 36.5935C66.9003 36.5153 67.1304 36.6203 67.3154 36.9084Z" fill="white"/>
<path d="M89.9781 42.9341C89.9781 43.016 89.9456 43.0945 89.8878 43.1524C89.83 43.2103 89.7516 43.2428 89.6698 43.2428H89.1828C89.0962 43.2428 89.0131 43.2083 88.9518 43.1469C88.8905 43.0856 88.8561 43.0024 88.8561 42.9156L88.8438 36.8652C88.8438 36.8079 88.8624 36.752 88.8967 36.7055C88.931 36.6589 88.9794 36.624 89.0349 36.6059C89.3595 36.4989 89.5979 36.6059 89.75 36.9269C89.7716 36.9726 89.803 37.0128 89.8422 37.0448C89.8813 37.0768 89.9272 37.0998 89.9766 37.1122C90.0259 37.1246 90.0776 37.126 90.1279 37.1164C90.1782 37.1068 90.226 37.0863 90.2678 37.0566C90.6254 36.7973 91.0281 36.6429 91.4761 36.5935C91.5374 36.5875 91.5993 36.5944 91.6578 36.6136C91.7163 36.6329 91.7702 36.6641 91.816 36.7053C91.8618 36.7465 91.8985 36.7969 91.9239 36.8531C91.9492 36.9093 91.9626 36.9702 91.9631 37.0319V37.2603C91.9632 37.3532 91.9272 37.4424 91.8628 37.5092C91.7984 37.576 91.7106 37.6152 91.6179 37.6184C91.0343 37.639 90.5596 37.8571 90.1938 38.2728C90.0509 38.4401 89.9722 38.6524 89.9719 38.8717L89.9781 42.9341Z" fill="white"/>
<path d="M95.2685 36.9022C95.2914 36.94 95.3217 36.9728 95.3573 36.9987C95.393 37.0245 95.4334 37.0429 95.476 37.0528C95.5187 37.0626 95.5627 37.0636 95.6054 37.0557C95.6481 37.0479 95.6887 37.0314 95.7247 37.0072C96.9823 36.1922 98.9365 36.575 99.701 37.7418C99.8096 37.9071 99.8675 38.1003 99.8674 38.2975L99.8797 42.9094C99.8806 42.9507 99.8732 42.9918 99.8582 43.0304C99.8431 43.0689 99.8207 43.104 99.792 43.1338C99.7634 43.1637 99.7292 43.1875 99.6914 43.2041C99.6535 43.2207 99.6128 43.2296 99.5715 43.2304H99.1153C99.0727 43.2312 99.0303 43.2235 98.9907 43.2078C98.9511 43.192 98.9151 43.1685 98.8846 43.1386C98.8542 43.1087 98.83 43.073 98.8135 43.0337C98.797 42.9943 98.7886 42.9521 98.7886 42.9094L98.7824 38.8284C98.7824 38.6771 98.7525 38.5273 98.6945 38.3876C98.6365 38.2478 98.5515 38.121 98.4444 38.0143C98.3373 37.9075 98.2101 37.8231 98.0703 37.7657C97.9305 37.7084 97.7807 37.6793 97.6296 37.6801L96.7049 37.6863C96.374 37.6879 96.0573 37.8207 95.8239 38.0555C95.5906 38.2904 95.4596 38.6082 95.4596 38.9396L95.4657 42.9032C95.4666 42.9462 95.4589 42.9889 95.4432 43.0289C95.4276 43.0689 95.4042 43.1054 95.3744 43.1364C95.3446 43.1674 95.3091 43.1921 95.2697 43.2093C95.2304 43.2265 95.1881 43.2358 95.1452 43.2366H94.7075C94.6616 43.2374 94.6161 43.2291 94.5735 43.2121C94.5309 43.1951 94.4921 43.1697 94.4594 43.1375C94.4266 43.1054 94.4007 43.067 94.3829 43.0246C94.3652 42.9823 94.3561 42.9368 94.3561 42.8909L94.3438 36.9207C94.3442 36.847 94.3678 36.7755 94.411 36.7166C94.4543 36.6577 94.5149 36.6146 94.5842 36.5935C94.8554 36.5153 95.0835 36.6182 95.2685 36.9022Z" fill="white"/>
<path d="M127.043 40.443C127.046 40.8111 126.976 41.176 126.838 41.5171C126.7 41.8581 126.496 42.1686 126.237 42.4306C125.979 42.6927 125.672 42.9014 125.334 43.0446C124.995 43.1878 124.632 43.2629 124.264 43.2654L123.697 43.2694C122.955 43.2746 122.241 42.9842 121.712 42.4623C121.184 41.9403 120.884 41.2294 120.879 40.4861L120.871 39.3995C120.869 39.0314 120.938 38.6664 121.077 38.3254C121.215 37.9843 121.419 37.6739 121.677 37.4118C121.935 37.1497 122.242 36.9411 122.581 36.7979C122.919 36.6546 123.283 36.5796 123.65 36.577L124.218 36.5731C124.96 36.5679 125.674 36.8582 126.202 37.3802C126.731 37.9022 127.031 38.613 127.036 39.3564L127.043 40.443ZM125.943 39.3567C125.944 38.89 125.76 38.4422 125.431 38.1116C125.102 37.7811 124.655 37.5949 124.189 37.5941L123.733 37.5933C123.503 37.5929 123.274 37.638 123.061 37.7261C122.847 37.8141 122.653 37.9434 122.49 38.1065C122.327 38.2696 122.197 38.4633 122.108 38.6767C122.019 38.89 121.974 39.1187 121.973 39.3498L121.971 40.4858C121.97 40.9524 122.155 41.4003 122.484 41.7308C122.813 42.0614 123.259 42.2475 123.725 42.2483L124.181 42.2491C124.412 42.2496 124.641 42.2044 124.854 42.1164C125.067 42.0283 125.261 41.8991 125.425 41.736C125.588 41.5729 125.718 41.3791 125.806 41.1658C125.895 40.9525 125.941 40.7237 125.941 40.4927L125.943 39.3567Z" fill="white"/>
<path d="M131.318 37.0072C132.582 36.1922 134.53 36.5812 135.295 37.7542C135.403 37.9195 135.461 38.1127 135.461 38.3099V42.9218C135.461 43.0053 135.428 43.0854 135.369 43.1444C135.31 43.2035 135.23 43.2366 135.147 43.2366H134.691C134.606 43.2366 134.524 43.2028 134.464 43.1426C134.404 43.0824 134.37 43.0007 134.37 42.9156V38.8347C134.37 38.6838 134.34 38.5345 134.283 38.3952C134.225 38.2559 134.141 38.1293 134.034 38.0227C133.928 37.916 133.801 37.8314 133.662 37.7737C133.523 37.716 133.374 37.6863 133.223 37.6863H132.299C131.967 37.6863 131.648 37.8184 131.414 38.0534C131.179 38.2884 131.047 38.6072 131.047 38.9396V42.9032C131.047 42.99 131.013 43.0732 130.951 43.1346C130.89 43.196 130.807 43.2305 130.72 43.2305H130.283C130.237 43.2305 130.193 43.2215 130.151 43.2041C130.109 43.1868 130.071 43.1613 130.039 43.1292C130.007 43.0971 129.981 43.059 129.964 43.017C129.946 42.9751 129.938 42.9301 129.938 42.8847V36.9146C129.938 36.8409 129.962 36.7693 130.005 36.7105C130.048 36.6516 130.109 36.6085 130.178 36.5874C130.453 36.5092 130.681 36.6141 130.862 36.9022C130.885 36.94 130.915 36.9728 130.951 36.9987C130.987 37.0246 131.027 37.043 131.07 37.0528C131.112 37.0626 131.156 37.0636 131.199 37.0558C131.242 37.0479 131.282 37.0314 131.318 37.0072Z" fill="white"/>
<path d="M188.679 40.443C188.682 40.8111 188.612 41.176 188.474 41.5171C188.336 41.8581 188.132 42.1686 187.874 42.4306C187.615 42.6927 187.308 42.9014 186.97 43.0446C186.631 43.1878 186.268 43.2629 185.9 43.2654L185.345 43.2693C184.603 43.2745 183.889 42.9842 183.361 42.4622C182.832 41.9402 182.532 41.2294 182.527 40.486L182.52 39.3995C182.517 39.0314 182.587 38.6664 182.725 38.3254C182.863 37.9843 183.067 37.6739 183.326 37.4118C183.584 37.1497 183.891 36.9411 184.229 36.7979C184.568 36.6546 184.931 36.5796 185.299 36.577L185.854 36.5731C186.596 36.568 187.31 36.8583 187.838 37.3803C188.367 37.9022 188.667 38.6131 188.672 39.3564L188.679 40.443ZM187.578 39.3409C187.578 38.8775 187.395 38.4331 187.067 38.1054C186.74 37.7777 186.297 37.5937 185.834 37.5937H185.353C184.89 37.5937 184.446 37.7777 184.119 38.1054C183.792 38.4331 183.608 38.8775 183.608 39.3409V40.5016C183.608 40.965 183.792 41.4094 184.119 41.737C184.446 42.0647 184.89 42.2488 185.353 42.2488H185.834C186.297 42.2488 186.74 42.0647 187.067 41.737C187.395 41.4094 187.578 40.965 187.578 40.5016V39.3409Z" fill="white"/>
<path d="M192.699 42.9156C192.699 42.9975 192.667 43.076 192.609 43.1339C192.551 43.1918 192.473 43.2243 192.391 43.2243H191.91C191.867 43.2251 191.823 43.2173 191.783 43.2012C191.743 43.1851 191.706 43.1611 191.675 43.1307C191.644 43.1002 191.619 43.0639 191.603 43.0237C191.586 42.9836 191.577 42.9406 191.577 42.8971L191.559 36.8714C191.559 36.8141 191.577 36.7582 191.612 36.7117C191.646 36.6651 191.694 36.6303 191.75 36.6121C192.07 36.5009 192.309 36.6059 192.465 36.9269C192.487 36.9732 192.518 37.0139 192.558 37.0464C192.597 37.0788 192.644 37.102 192.693 37.1144C192.743 37.1268 192.794 37.1281 192.844 37.1181C192.894 37.1081 192.942 37.0871 192.983 37.0566C193.336 36.8014 193.737 36.6471 194.185 36.5936C194.247 36.5875 194.309 36.5943 194.368 36.6136C194.427 36.6329 194.481 36.6642 194.527 36.7056C194.573 36.7469 194.61 36.7973 194.635 36.8535C194.66 36.9097 194.672 36.9705 194.672 37.0319V37.2542C194.672 37.347 194.636 37.4363 194.571 37.5031C194.507 37.5699 194.419 37.609 194.327 37.6122C193.743 37.6369 193.268 37.8551 192.903 38.2667C192.762 38.4348 192.685 38.6471 192.687 38.8655L192.699 42.9156Z" fill="white"/>
<path d="M62.8793 36.63L62.2505 36.6311C62.1143 36.6313 62.0041 36.7421 62.0043 36.8785L62.0149 42.9659C62.0152 43.1023 62.1258 43.2127 62.262 43.2124L62.8908 43.2113C63.027 43.2111 63.1372 43.1003 63.1369 42.964L63.1263 36.8765C63.1261 36.7401 63.0155 36.6298 62.8793 36.63Z" fill="white"/>
<path d="M81.7842 40.304C81.7157 40.3047 81.6484 40.3222 81.5882 40.355C81.5281 40.3878 81.4771 40.4347 81.4398 40.4917C81.4025 40.5487 81.3801 40.6138 81.3745 40.6813C81.369 40.7487 81.3806 40.8164 81.4081 40.8782L81.5623 41.2362C81.6742 41.4951 81.8594 41.7154 82.0949 41.8701C82.3304 42.0248 82.606 42.1071 82.8877 42.1068H85.631C85.667 42.1068 85.7015 42.1211 85.7269 42.1465C85.7524 42.172 85.7667 42.2066 85.7667 42.2426V42.4587C85.7667 42.6025 85.715 42.7416 85.621 42.8504C85.5271 42.9593 85.3971 43.0306 85.255 43.0514C82.4253 43.4897 79.8854 42.9588 80.2738 39.2606C80.4629 37.4496 81.5355 36.5667 83.4918 36.612C83.9626 36.6209 84.4214 36.7658 84.8137 37.0295C85.206 37.2933 85.5153 37.6648 85.705 38.0999L86.0934 38.9951C86.1545 39.1376 86.1794 39.2929 86.1659 39.4474C86.1524 39.6018 86.1009 39.7505 86.0161 39.8801C85.9312 40.0098 85.8156 40.1163 85.6795 40.1903C85.5435 40.2643 85.3913 40.3033 85.2365 40.304H81.7842ZM81.5438 39.2297L84.7741 39.2174C84.8052 39.2174 84.835 39.205 84.8569 39.183C84.8789 39.161 84.8913 39.1312 84.8913 39.1001V39.026C84.8906 38.8414 84.8485 38.6588 84.7672 38.4886C84.6859 38.3185 84.5671 38.1641 84.4175 38.0345C84.268 37.9048 84.0908 37.8024 83.8959 37.7331C83.7011 37.6638 83.4926 37.629 83.2822 37.6307H83.011C82.5888 37.6341 82.1851 37.7841 81.8882 38.0479C81.5913 38.3116 81.4253 38.6678 81.4266 39.0383V39.1124C81.4266 39.1278 81.4297 39.1431 81.4355 39.1573C81.4414 39.1716 81.4501 39.1845 81.4609 39.1954C81.4718 39.2063 81.4847 39.2149 81.4989 39.2208C81.5132 39.2267 81.5284 39.2297 81.5438 39.2297Z" fill="white"/>
<path d="M106.517 39.2112C106.588 39.2168 106.66 39.2051 106.725 39.1772C106.791 39.1493 106.849 39.1059 106.894 39.0508C106.94 38.9957 106.971 38.9304 106.986 38.8605C107.001 38.7907 106.999 38.7183 106.979 38.6494L106.93 38.4889C106.878 38.306 106.779 38.1401 106.643 38.0078C106.506 37.8756 106.338 37.7817 106.153 37.7357C105.405 37.5546 104.551 37.6184 103.589 37.9271C103.538 37.9438 103.483 37.948 103.43 37.9394C103.377 37.9308 103.326 37.9096 103.283 37.8776C103.24 37.8456 103.204 37.8037 103.18 37.7554C103.156 37.7071 103.144 37.6538 103.145 37.5999V37.3529C103.145 37.2372 103.185 37.1247 103.257 37.0339C103.33 36.9431 103.432 36.8793 103.546 36.8528C109.088 35.5563 108.034 39.4026 108.064 42.8291C108.065 42.9406 108.022 43.0478 107.945 43.1284C107.868 43.2089 107.763 43.2565 107.651 43.2613C107.528 43.2654 107.374 43.179 107.189 43.002C107.129 42.9432 107.052 42.9033 106.969 42.8868C106.886 42.8704 106.8 42.8782 106.721 42.9094C102.004 44.7245 100.728 38.6185 106.517 39.2112ZM107.1 40.95C107.082 40.8142 107.021 40.6855 106.92 40.5713C106.818 40.4571 106.679 40.3596 106.511 40.2844C106.342 40.2093 106.146 40.1578 105.936 40.1331C105.725 40.1084 105.503 40.1108 105.282 40.1403C105.061 40.1698 104.846 40.2257 104.649 40.3049C104.452 40.3842 104.277 40.4851 104.134 40.602C103.991 40.7189 103.882 40.8494 103.815 40.9862C103.747 41.123 103.721 41.2633 103.739 41.3991C103.757 41.5349 103.819 41.6636 103.92 41.7778C104.021 41.892 104.16 41.9894 104.329 42.0646C104.498 42.1398 104.693 42.1912 104.904 42.216C105.115 42.2407 105.337 42.2383 105.558 42.2088C105.778 42.1793 105.993 42.1233 106.19 42.0441C106.387 41.9649 106.562 41.864 106.705 41.7471C106.849 41.6302 106.957 41.4996 107.025 41.3629C107.093 41.2261 107.118 41.0858 107.1 40.95Z" fill="white"/>
<path d="M117.597 36.63L117.018 36.631C116.861 36.6313 116.735 36.7587 116.735 36.9155L116.745 42.9412C116.746 43.0981 116.873 43.225 117.029 43.2247L117.609 43.2237C117.766 43.2234 117.892 43.0961 117.892 42.9392L117.882 36.9135C117.881 36.7567 117.754 36.6297 117.597 36.63Z" fill="white"/>
<path d="M142.094 39.2175C142.166 39.2252 142.239 39.2151 142.306 39.1881C142.374 39.1611 142.433 39.118 142.48 39.0626C142.527 39.0072 142.56 38.9411 142.575 38.8701C142.59 38.7992 142.588 38.7256 142.569 38.6556L142.519 38.4951C142.467 38.3115 142.367 38.145 142.23 38.0127C142.092 37.8804 141.922 37.7869 141.737 37.7419C140.993 37.5567 140.14 37.6164 139.178 37.9209C139.126 37.9378 139.071 37.942 139.018 37.933C138.964 37.9241 138.913 37.9024 138.87 37.8697C138.826 37.837 138.791 37.7943 138.768 37.7452C138.744 37.6961 138.733 37.642 138.734 37.5875V37.3406C138.736 37.2259 138.776 37.1149 138.849 37.0254C138.921 36.9358 139.022 36.8729 139.135 36.8467C144.689 35.5749 143.617 39.4212 143.629 42.8415C143.629 42.954 143.585 43.0621 143.507 43.1428C143.429 43.2235 143.322 43.2705 143.21 43.2737C143.087 43.2778 142.935 43.1914 142.754 43.0144C142.694 42.9546 142.618 42.9134 142.535 42.8959C142.452 42.8784 142.365 42.8852 142.285 42.9156C137.563 44.7122 136.318 38.6001 142.094 39.2175ZM142.594 40.9693C142.584 40.8513 142.551 40.7366 142.496 40.6315C142.442 40.5264 142.368 40.433 142.277 40.3568C142.187 40.2805 142.082 40.2229 141.97 40.1871C141.857 40.1513 141.738 40.1381 141.62 40.1482L140.208 40.2695C139.97 40.2899 139.75 40.4041 139.596 40.5869C139.442 40.7698 139.367 41.0063 139.388 41.2445L139.399 41.3799C139.41 41.4978 139.443 41.6126 139.497 41.7177C139.551 41.8228 139.626 41.9161 139.716 41.9924C139.807 42.0686 139.911 42.1263 140.024 42.1621C140.137 42.1979 140.255 42.2111 140.373 42.201L141.786 42.0797C142.024 42.0593 142.244 41.9451 142.397 41.7622C142.551 41.5793 142.626 41.3428 142.606 41.1046L142.594 40.9693Z" fill="white"/>
<path d="M159.455 39.2051C159.526 39.2117 159.598 39.2008 159.665 39.1734C159.731 39.1459 159.79 39.1027 159.836 39.0474C159.882 38.9921 159.914 38.9265 159.929 38.8561C159.945 38.7857 159.942 38.7126 159.923 38.6432L159.874 38.4827C159.821 38.2991 159.721 38.1326 159.584 38.0003C159.446 37.868 159.276 37.7746 159.091 37.7295C158.343 37.5484 157.488 37.6122 156.526 37.9209C156.476 37.9373 156.422 37.9414 156.369 37.9328C156.317 37.9241 156.267 37.9031 156.224 37.8712C156.181 37.8394 156.145 37.7976 156.121 37.7494C156.096 37.7012 156.083 37.6479 156.082 37.5937V37.3467C156.083 37.231 156.122 37.1186 156.195 37.0278C156.268 36.937 156.369 36.8731 156.483 36.8466C162.032 35.5501 160.977 39.4026 161.002 42.8291C161.002 42.9406 160.959 43.0478 160.882 43.1284C160.805 43.2089 160.7 43.2565 160.589 43.2613C160.466 43.2654 160.312 43.179 160.127 43.002C160.066 42.9432 159.99 42.9033 159.907 42.8868C159.824 42.8704 159.737 42.8782 159.658 42.9094C154.942 44.7245 153.666 38.6124 159.455 39.2051ZM160.034 40.9654C159.999 40.6908 159.79 40.4495 159.451 40.2946C159.113 40.1396 158.673 40.0837 158.229 40.1392C157.784 40.1946 157.371 40.3569 157.081 40.5903C156.791 40.8237 156.647 41.109 156.681 41.3836C156.715 41.6582 156.925 41.8996 157.263 42.0545C157.602 42.2095 158.042 42.2654 158.486 42.2099C158.931 42.1544 159.343 41.9922 159.634 41.7588C159.924 41.5254 160.068 41.24 160.034 40.9654Z" fill="white"/>
<path d="M165.12 36.6244H164.503C164.357 36.6244 164.238 36.7432 164.238 36.8899V42.9526C164.238 43.0992 164.357 43.2181 164.503 43.2181H165.12C165.266 43.2181 165.385 43.0992 165.385 42.9526V36.8899C165.385 36.7432 165.266 36.6244 165.12 36.6244Z" fill="white"/>
<path d="M169.768 42.9156C169.768 42.9974 169.736 43.0759 169.678 43.1338C169.62 43.1917 169.542 43.2243 169.46 43.2243H168.979C168.892 43.2243 168.809 43.1898 168.748 43.1284C168.687 43.067 168.652 42.9838 168.652 42.897V36.8713C168.652 36.8141 168.671 36.7582 168.705 36.7116C168.74 36.6651 168.788 36.6302 168.843 36.612C169.164 36.505 169.4 36.612 169.552 36.9331C169.574 36.9793 169.606 37.0201 169.646 37.0525C169.685 37.0849 169.731 37.1082 169.781 37.1206C169.83 37.133 169.882 37.1342 169.932 37.1242C169.982 37.1142 170.029 37.0932 170.07 37.0627C170.424 36.8075 170.824 36.6552 171.272 36.6059C171.334 36.5998 171.397 36.6066 171.456 36.6259C171.515 36.6452 171.569 36.6766 171.615 36.7179C171.661 36.7592 171.697 36.8096 171.722 36.8658C171.747 36.922 171.76 36.9828 171.759 37.0442V37.2665C171.759 37.3593 171.723 37.4486 171.659 37.5154C171.595 37.5822 171.507 37.6213 171.414 37.6245C170.831 37.6451 170.356 37.8612 169.99 38.2728C169.847 38.4404 169.768 38.6529 169.768 38.8717V42.9156Z" fill="white"/>
<path d="M175.242 43.5638V45.0579C175.242 45.1496 175.206 45.2375 175.141 45.3024C175.076 45.3672 174.988 45.4036 174.897 45.4036H174.496C174.391 45.4036 174.291 45.362 174.217 45.2879C174.143 45.2138 174.102 45.1133 174.102 45.0085V37.9765C174.102 37.7651 174.147 37.5561 174.233 37.3633C174.32 37.1705 174.445 36.9983 174.603 36.8578C174.76 36.7173 174.945 36.6118 175.145 36.5481C175.346 36.4845 175.557 36.4642 175.766 36.4886L177.677 36.7108C178.18 36.7699 178.652 36.9859 179.026 37.3283C179.4 37.6706 179.657 38.122 179.761 38.6186C180.464 41.9771 178.873 43.4218 175.692 43.1502C175.635 43.145 175.577 43.1519 175.523 43.1704C175.468 43.1888 175.418 43.2185 175.376 43.2574C175.333 43.2964 175.3 43.3437 175.277 43.3965C175.254 43.4493 175.242 43.5062 175.242 43.5638ZM175.254 38.1185L175.242 41.6252C175.241 41.6885 175.253 41.7513 175.276 41.81C175.3 41.8687 175.334 41.9223 175.379 41.9676C175.423 42.0129 175.475 42.049 175.533 42.074C175.591 42.0989 175.654 42.1122 175.717 42.113L176.944 42.1191C177.192 42.1208 177.438 42.073 177.669 41.9787C177.899 41.8843 178.109 41.7451 178.285 41.5691C178.462 41.3931 178.603 41.1837 178.7 40.9529C178.796 40.722 178.847 40.4743 178.848 40.2238V39.5693C178.85 39.3188 178.803 39.0704 178.709 38.8383C178.616 38.6062 178.477 38.395 178.303 38.2167C178.128 38.0384 177.921 37.8965 177.692 37.7992C177.463 37.7018 177.217 37.6509 176.968 37.6493L175.741 37.6431C175.678 37.6423 175.616 37.6539 175.557 37.6774C175.498 37.7008 175.445 37.7356 175.4 37.7798C175.354 37.8239 175.318 37.8765 175.293 37.9346C175.268 37.9928 175.255 38.0552 175.254 38.1185Z" fill="white"/>
<path d="M22.9148 45.1937C22.9089 45.1352 22.9225 45.0765 22.9535 45.0266C22.9845 44.9768 23.0312 44.9386 23.0862 44.9181C23.1412 44.8977 23.2014 44.896 23.2574 44.9135C23.3134 44.931 23.362 44.9665 23.3957 45.0147L23.4943 45.1505C23.5024 45.1667 23.5066 45.1857 23.5066 45.206L23.482 48.4844C23.4804 48.6012 23.4335 48.7126 23.3516 48.7947C23.2697 48.8767 23.1593 48.9227 23.0443 48.9227H21.7188C21.6133 48.9228 21.5093 48.8963 21.4167 48.8456C21.324 48.7949 21.2456 48.7216 21.1887 48.6325C20.601 47.7353 20.6811 46.9018 21.4291 46.1321C21.5206 46.0386 21.6354 45.9715 21.7612 45.9378C21.8871 45.9041 22.0194 45.9051 22.1442 45.9407C22.7196 46.1054 22.9765 45.8564 22.9148 45.1937ZM22.2027 46.3977C21.9803 46.3957 21.7661 46.5044 21.6072 46.6999C21.4483 46.8953 21.3576 47.1615 21.3552 47.4398C21.3528 47.7182 21.4388 47.9859 21.5943 48.1841C21.7498 48.3823 21.9621 48.4947 22.1844 48.4967C22.4067 48.4986 22.6209 48.3899 22.7799 48.1944C22.9388 47.999 23.0294 47.7328 23.0319 47.4545C23.0343 47.1762 22.9483 46.9084 22.7928 46.7102C22.6373 46.512 22.425 46.3996 22.2027 46.3977Z" fill="white"/>
<path d="M9.92653 46.5396C9.87094 46.556 9.81113 46.5496 9.76026 46.5218C9.70939 46.494 9.67163 46.4471 9.65528 46.3914C9.63893 46.3358 9.64533 46.2759 9.67307 46.2249C9.70082 46.174 9.74764 46.1362 9.80323 46.1198C11.7451 45.2987 12.3431 46.6261 12.1705 48.2745C12.1509 48.4445 12.0741 48.6032 11.9523 48.7252C11.8305 48.8471 11.6707 48.9254 11.4986 48.9474C10.73 49.0462 10.1896 48.9639 9.87721 48.7005C9.77207 48.6089 9.68795 48.4933 9.63315 48.3652C9.57835 48.2371 9.55477 48.1008 9.56473 47.9699C9.57469 47.839 9.61784 47.718 9.68994 47.6187C9.76204 47.5195 9.86058 47.4454 9.97584 47.404C10.3334 47.2681 10.7321 47.1858 11.1718 47.157C11.2145 47.1543 11.2561 47.1425 11.2939 47.1224C11.3317 47.1023 11.3649 47.0744 11.3911 47.0406C11.4173 47.0067 11.4361 46.9677 11.4461 46.926C11.4561 46.8843 11.4572 46.841 11.4492 46.7989L11.3999 46.552C11.3838 46.476 11.338 46.4096 11.2723 46.3668C11.2066 46.3241 11.1262 46.3086 11.0485 46.3235L9.92653 46.5396ZM10.4197 48.4412C10.9704 48.5852 11.3136 48.507 11.4492 48.2066C11.4844 48.1319 11.5026 48.049 11.5019 47.9663C11.5012 47.8836 11.4816 47.8043 11.4452 47.7363C11.4087 47.6684 11.3568 47.6143 11.2946 47.5798C11.2325 47.5453 11.1624 47.5314 11.0917 47.5398C10.8451 47.5686 10.6026 47.6386 10.3642 47.7497C10.2961 47.7818 10.2393 47.8339 10.2015 47.8991C10.1637 47.9643 10.1467 48.0395 10.1527 48.1147C10.1587 48.1899 10.1875 48.2614 10.2353 48.3197C10.283 48.3781 10.3473 48.4204 10.4197 48.4412Z" fill="white"/>
<path d="M14.7346 48.5214C14.7668 48.5161 14.7997 48.5172 14.8313 48.5246C14.8629 48.5321 14.8926 48.5458 14.9185 48.5648C14.9445 48.5839 14.9662 48.6079 14.9822 48.6355C14.9983 48.6631 15.0085 48.6936 15.012 48.7252V48.7314C15.0174 48.7665 15.0088 48.8024 14.988 48.8312C14.9673 48.8601 14.9361 48.8796 14.9011 48.8857C13.4996 49.1738 12.7639 48.6902 12.6941 47.4348C12.675 47.115 12.7587 46.7987 12.9325 46.5343C13.1062 46.27 13.3603 46.0723 13.6558 45.9716C14.112 45.8152 14.5415 45.9099 14.9442 46.2556C15.0548 46.3499 15.1473 46.464 15.2153 46.5898C15.2832 46.7156 15.3249 46.85 15.3372 46.9833C15.3496 47.1167 15.3324 47.2456 15.2868 47.3611C15.2413 47.4765 15.1685 47.5755 15.0737 47.6509C14.9915 47.7127 14.6422 47.7168 14.0257 47.6633C13.9791 47.6586 13.935 47.6405 13.8986 47.6111C13.8622 47.5817 13.8351 47.5424 13.8207 47.4978C13.8063 47.4532 13.8052 47.4055 13.8175 47.3603C13.8299 47.3151 13.8551 47.2745 13.8901 47.2435C13.9229 47.2146 14.0339 47.192 14.223 47.1755C14.315 47.1665 14.4005 47.1243 14.463 47.0571C14.5256 46.9899 14.5608 46.9024 14.562 46.8113C14.5661 46.5643 14.4161 46.4141 14.112 46.3606C14.0254 46.3457 13.9364 46.352 13.8528 46.3791C13.7692 46.4063 13.6937 46.4533 13.6328 46.5161C13.5719 46.5789 13.5275 46.6556 13.5036 46.7394C13.4796 46.8231 13.4769 46.9114 13.4955 46.9965C13.5777 47.3464 13.5572 47.6077 13.4339 47.7806C13.4027 47.8258 13.382 47.8775 13.3732 47.9316C13.3645 47.9858 13.368 48.0411 13.3834 48.0933C13.3988 48.1456 13.4258 48.1935 13.4623 48.2334C13.4988 48.2733 13.5439 48.3043 13.5941 48.3239C14.0627 48.5132 14.4428 48.5791 14.7346 48.5214Z" fill="white"/>
<path d="M17.0611 46.3482L16.7591 46.5643C16.6774 46.6212 16.6106 46.6975 16.5644 46.7867C16.5183 46.8759 16.4941 46.9754 16.494 47.0767V48.7128C16.494 48.7652 16.4732 48.8155 16.4362 48.8525C16.3992 48.8896 16.349 48.9104 16.2967 48.9104H16.1364C16.1113 48.9104 16.0865 48.9056 16.0633 48.8963C16.0401 48.887 16.019 48.8733 16.0013 48.8561C15.9835 48.8389 15.9695 48.8185 15.9599 48.796C15.9503 48.7736 15.9453 48.7495 15.9453 48.7252V46.447C15.945 46.3674 15.9708 46.2899 16.0187 46.2263C16.0665 46.1628 16.1339 46.1167 16.2104 46.0951C16.5515 46.0004 16.7858 45.949 16.9132 45.9407C16.9631 45.9344 17.0138 45.9452 17.0568 45.9715C17.0998 45.9977 17.1325 46.0379 17.1498 46.0853C17.167 46.1327 17.1676 46.1845 17.1515 46.2323C17.1354 46.2801 17.1035 46.321 17.0611 46.3482Z" fill="white"/>
<path d="M20.3411 47.8337C20.3329 47.9908 20.2939 48.1447 20.2263 48.2867C20.1586 48.4286 20.0638 48.5559 19.9471 48.6611C19.8303 48.7664 19.6941 48.8475 19.546 48.9C19.398 48.9525 19.241 48.9753 19.0842 48.9671L18.7271 48.9484C18.5703 48.9402 18.4166 48.9011 18.2748 48.8334C18.1331 48.7656 18.006 48.6706 17.9009 48.5537C17.7958 48.4368 17.7148 48.3004 17.6623 48.1521C17.6099 48.0038 17.5872 47.8467 17.5954 47.6896L17.627 47.0854C17.6352 46.9283 17.6743 46.7744 17.7419 46.6325C17.8095 46.4905 17.9044 46.3633 18.0211 46.258C18.1378 46.1528 18.2741 46.0716 18.4221 46.0191C18.5702 45.9666 18.7271 45.9438 18.884 45.952L19.241 45.9707C19.3979 45.979 19.5516 46.018 19.6933 46.0858C19.8351 46.1535 19.9621 46.2485 20.0672 46.3654C20.1723 46.4823 20.2534 46.6188 20.3058 46.767C20.3582 46.9153 20.381 47.0724 20.3728 47.2295L20.3411 47.8337ZM19.0506 46.4056C18.9382 46.3991 18.8254 46.4197 18.7186 46.4664C18.6118 46.5131 18.513 46.5848 18.428 46.6775C18.3429 46.7702 18.2733 46.8821 18.223 47.0068C18.1726 47.1314 18.1427 47.2664 18.1347 47.404C18.1187 47.6819 18.1935 47.9536 18.3426 48.1594C18.4918 48.3651 18.703 48.4881 18.9299 48.5012C19.0422 48.5077 19.155 48.487 19.2619 48.4404C19.3687 48.3937 19.4675 48.322 19.5525 48.2293C19.6375 48.1365 19.7072 48.0247 19.7575 47.9C19.8078 47.7754 19.8378 47.6404 19.8457 47.5028C19.8617 47.2249 19.7869 46.9532 19.6378 46.7474C19.4887 46.5416 19.2775 46.4187 19.0506 46.4056Z" fill="white"/>
<path d="M25.1301 45.9902C25.1788 45.9833 25.2283 45.9932 25.2706 46.0183C25.3128 46.0434 25.3453 46.0822 25.3625 46.1283C25.3798 46.1743 25.3808 46.2249 25.3655 46.2717C25.3501 46.3184 25.3193 46.3585 25.2781 46.3853L24.9883 46.5952C24.9091 46.6514 24.8446 46.7263 24.8006 46.8134C24.7566 46.9005 24.7342 46.9973 24.7356 47.0953L24.7602 48.6758C24.761 48.7015 24.7567 48.727 24.7475 48.751C24.7382 48.7749 24.7243 48.7967 24.7065 48.8152C24.6886 48.8336 24.6673 48.8483 24.6437 48.8583C24.6201 48.8683 24.5947 48.8734 24.5691 48.8734H24.415C24.3902 48.8742 24.3654 48.8702 24.3423 48.8616C24.3191 48.8529 24.298 48.8399 24.2802 48.8232C24.2623 48.8065 24.2481 48.7864 24.2385 48.7643C24.2288 48.7422 24.2238 48.7184 24.2239 48.6944L24.1992 46.4903C24.1988 46.4139 24.2233 46.3394 24.2689 46.2782C24.3145 46.2169 24.3788 46.1722 24.452 46.1507C24.7808 46.0519 25.0068 45.9984 25.1301 45.9902Z" fill="white"/>
<path d="M28.7792 47.4595C28.7792 47.8623 28.6194 48.2486 28.335 48.5334C28.0506 48.8183 27.6648 48.9783 27.2626 48.9783C26.8604 48.9783 26.4747 48.8183 26.1903 48.5334C25.9059 48.2486 25.7461 47.8623 25.7461 47.4595C25.7461 47.0567 25.9059 46.6704 26.1903 46.3856C26.4747 46.1007 26.8604 45.9407 27.2626 45.9407C27.6648 45.9407 28.0506 46.1007 28.335 46.3856C28.6194 46.6704 28.7792 47.0567 28.7792 47.4595ZM27.1698 46.3974C27.0515 46.41 26.9372 46.4495 26.8334 46.5137C26.7297 46.5778 26.6385 46.6653 26.5652 46.7712C26.4919 46.8771 26.4378 46.9992 26.406 47.1307C26.3742 47.2622 26.3654 47.4004 26.38 47.5374C26.4096 47.8142 26.5328 48.0695 26.7227 48.2471C26.9126 48.4248 27.1535 48.5102 27.3925 48.4846C27.5108 48.472 27.6251 48.4324 27.7288 48.3683C27.8326 48.3041 27.9237 48.2166 27.9971 48.1108C28.0704 48.0049 28.1245 47.8827 28.1563 47.7513C28.188 47.6198 28.1969 47.4816 28.1822 47.3445C28.1527 47.0678 28.0294 46.8125 27.8396 46.6348C27.6497 46.4572 27.4088 46.3718 27.1698 46.3974Z" fill="white"/>
<path d="M32.9583 48.824C32.9172 48.6388 32.9398 48.0996 33.0262 47.2064C33.0365 47.1069 33.0257 47.0063 32.9945 46.9112C32.9633 46.816 32.9124 46.7284 32.845 46.6539C32.7776 46.5795 32.6953 46.5198 32.6033 46.4789C32.5114 46.4379 32.4118 46.4166 32.311 46.4162H32.0891C32.0292 46.4162 31.9699 46.428 31.9145 46.4509C31.8592 46.4739 31.8089 46.5076 31.7665 46.55C31.7242 46.5924 31.6906 46.6428 31.6676 46.6982C31.6447 46.7536 31.6329 46.813 31.6329 46.873V48.7314C31.6329 48.7739 31.616 48.8148 31.586 48.8449C31.5559 48.875 31.5151 48.8919 31.4726 48.8919H31.3062C31.2786 48.8919 31.2514 48.8863 31.226 48.8754C31.2005 48.8646 31.1774 48.8487 31.158 48.8286C31.1385 48.8085 31.1231 48.7847 31.1125 48.7585C31.102 48.7323 31.0966 48.7042 31.0966 48.6758V46.9533C31.0966 46.8059 31.0381 46.6646 30.9341 46.5604C30.83 46.4562 30.6889 46.3976 30.5417 46.3976H30.2705C30.1495 46.3976 30.0335 46.4451 29.9479 46.5296C29.8624 46.6142 29.8143 46.7288 29.8143 46.8483V48.682C29.8143 48.7426 29.7909 48.8007 29.7493 48.8435C29.7077 48.8863 29.6512 48.9104 29.5924 48.9104H29.3828C29.3517 48.9104 29.3219 48.8974 29.2999 48.8742C29.278 48.8511 29.2656 48.8197 29.2656 48.7869V46.3297C29.2656 46.2413 29.3 46.1565 29.3613 46.094C29.4226 46.0315 29.5057 45.9963 29.5924 45.9963H32.6254C32.7686 45.9965 32.9097 46.034 33.035 46.1054C33.1602 46.1768 33.2655 46.2796 33.3406 46.4038C33.7392 47.0665 33.7269 47.8835 33.3036 48.8548C33.2873 48.8889 33.261 48.9172 33.2283 48.9359C33.1955 48.9546 33.1578 48.9628 33.1203 48.9595C33.0827 48.9561 33.047 48.9413 33.0181 48.9171C32.9892 48.8929 32.9683 48.8604 32.9583 48.824Z" fill="white"/>
<path d="M36.1775 48.5091C36.2281 48.5107 36.2764 48.5307 36.3135 48.5652C36.3505 48.5998 36.3739 48.6466 36.3791 48.6971C36.3844 48.7475 36.3712 48.7981 36.3421 48.8396C36.313 48.8811 36.2698 48.9106 36.2207 48.9227C34.2479 49.3426 33.9274 47.9843 34.3897 46.4717C34.439 46.3148 34.5399 46.179 34.6763 46.0861C34.8126 45.9932 34.9766 45.9485 35.1418 45.9593C35.8816 46.0087 36.3727 46.1856 36.6152 46.4902C36.6972 46.595 36.7551 46.7184 36.7833 46.8483C36.8115 46.9783 36.809 47.1102 36.776 47.2311C36.7431 47.352 36.6807 47.4578 36.5952 47.5379C36.5097 47.618 36.404 47.6697 36.2885 47.688C35.9309 47.7497 35.5425 47.7538 35.1233 47.7003C35.0822 47.695 35.0405 47.6984 35.0008 47.7103C34.9612 47.7221 34.9247 47.7422 34.8937 47.7691C34.8628 47.7961 34.8381 47.8292 34.8213 47.8663C34.8046 47.9034 34.7961 47.9437 34.7966 47.9843V48.2251C34.7966 48.3004 34.8271 48.3726 34.8815 48.4259C34.9358 48.4792 35.0095 48.5091 35.0863 48.5091H36.1775ZM35.8693 47.0706C35.972 46.9882 36.0111 46.8956 35.9864 46.7927C35.9615 46.7023 35.9151 46.6192 35.8512 46.5506C35.7872 46.482 35.7075 46.4297 35.6187 46.3983C35.5299 46.3669 35.4347 46.3571 35.341 46.3699C35.2473 46.3826 35.1578 46.4176 35.0802 46.4717C34.9117 46.5911 34.8726 46.7927 34.963 47.0767C35.0247 47.2784 35.1377 47.3649 35.3021 47.336C35.5117 47.299 35.7008 47.2105 35.8693 47.0706Z" fill="white"/>
</svg>
