<svg width="212" height="164" viewBox="0 0 212 164" fill="none" xmlns="http://www.w3.org/2000/svg">
<path d="M136.294 18.6747L1.15332 162.911H136.726L211.153 0.5H178.228C170.917 0.5 163.674 1.89495 156.886 4.61003C149.075 7.73439 142.046 12.5356 136.294 18.6747Z" fill="#1E1C1C"/>
<path d="M1.15332 162.911L136.294 18.6746C142.046 12.5356 149.075 7.73439 156.886 4.61003C163.674 1.89496 170.917 0.5 178.228 0.5H211.153M1.15332 162.911H136.726L211.153 0.5M1.15332 162.911L136.294 18.6747C142.046 12.5356 149.075 7.73439 156.886 4.61003C163.674 1.89495 170.917 0.5 178.228 0.5H211.153" stroke="#C2C2C2" stroke-opacity="0.4"/>
<mask id="mask0_664_100089" style="mask-type:alpha" maskUnits="userSpaceOnUse" x="1" y="0" width="211" height="163">
<path d="M136.294 18.6747L1.15332 162.911H136.726L211.153 0.5H178.228C170.917 0.5 163.674 1.89495 156.886 4.61003C149.075 7.73439 142.046 12.5356 136.294 18.6747Z" fill="#1C325C"/>
</mask>
<g mask="url(#mask0_664_100089)">
<mask id="mask1_664_100089" style="mask-type:luminance" maskUnits="userSpaceOnUse" x="79" y="88" width="46" height="60">
<path d="M79.1533 147.96L97.0054 98.9858C97.0054 98.9858 102.386 85.5023 115.152 88.7927C127.917 92.0831 122.044 105.167 118.379 108.166C118.379 108.166 126.879 115.891 123.49 127.914C120.1 139.937 107.359 138.417 107.359 138.417C107.359 138.417 103.088 137.994 103.088 131.502C103.088 131.502 113.304 136.992 117.857 127.228C122.41 117.465 109.387 108.493 109.387 108.493C109.387 108.493 117.671 103.504 116.903 97.9903C116.135 92.4765 108.613 92.4765 105.002 97.0128C101.39 101.549 95.2298 119.855 95.2298 119.855L87.0836 142.161C87.0836 142.161 85.428 147.996 79.1533 147.96Z" fill="white"/>
</mask>
<g mask="url(#mask1_664_100089)">
<path d="M79.1533 147.454L79.6152 147.997H79.1533V147.454Z" fill="#CCAC64"/>
<path d="M79.1533 144.193L82.3806 147.996H79.6152L79.1533 147.454V144.193Z" fill="#CCAC64"/>
<path d="M79.1533 140.933L85.146 147.996H82.3806L79.1533 144.193V140.933Z" fill="#CCAC64"/>
<path d="M79.1533 137.672L87.9054 147.997H85.146L79.1533 140.933V137.672Z" fill="#CCAC64"/>
<path d="M79.1533 134.412L90.6708 147.996H87.9054L79.1533 137.672V134.412Z" fill="#CCAC64"/>
<path d="M79.1533 131.151L93.4362 147.996H90.6708L79.1533 134.411V131.151Z" fill="#CCAC64"/>
<path d="M79.1533 127.891L96.2016 147.997H93.4362L79.1533 131.151V127.891Z" fill="#CCAC64"/>
<path d="M79.1533 124.63L98.967 147.997H96.2016L79.1533 127.89V124.63Z" fill="#CCAC64"/>
<path d="M79.1533 121.369L101.726 147.996H98.967L79.1533 124.63V121.369Z" fill="#CCAC64"/>
<path d="M79.1533 118.109L104.492 147.997H101.726L79.1533 121.369V118.109Z" fill="#CCAC64"/>
<path d="M79.1533 114.848L107.257 147.997H104.492L79.1533 118.109V114.848Z" fill="#CCAC64"/>
<path d="M79.1533 111.587L110.023 147.996H107.257L79.1533 114.848V111.587Z" fill="#CCAC64"/>
<path d="M79.1533 108.327L112.35 147.478L111.732 147.997H110.023L79.1533 111.588V108.327Z" fill="#CCAC64"/>
<path d="M79.1533 105.072L113.964 146.125L112.35 147.478L79.1533 108.327V105.072Z" fill="#CCAC64"/>
<path d="M79.1533 103.904L80.1911 103.034L115.583 144.772L113.964 146.125L79.1533 105.072V103.904Z" fill="#CCAC64"/>
<path d="M81.809 101.682L80.1943 103.034L115.587 144.77L117.202 143.418L81.809 101.682Z" fill="#CCAC64"/>
<path d="M83.4243 100.33L81.8096 101.682L117.202 143.417L118.817 142.065L83.4243 100.33Z" fill="#CCAC64"/>
<path d="M85.0454 98.9731L83.4307 100.325L118.823 142.061L120.438 140.709L85.0454 98.9731Z" fill="#CCAC64"/>
<path d="M86.6616 97.6206L85.0469 98.9726L120.439 140.708L122.054 139.356L86.6616 97.6206Z" fill="#CCAC64"/>
<path d="M88.2719 96.2651L86.6572 97.6173L122.05 139.353L123.664 138.001L88.2719 96.2651Z" fill="#CCAC64"/>
<path d="M89.8881 94.9126L88.2734 96.2646L123.666 138L125.281 136.648L89.8881 94.9126Z" fill="#CCAC64"/>
<path d="M91.5092 93.5562L89.8945 94.9083L125.287 136.644L126.902 135.292L91.5092 93.5562Z" fill="#CCAC64"/>
<path d="M91.5107 93.5617L93.1245 92.2085L127.917 133.237V134.447L126.897 135.3L91.5107 93.5617Z" fill="#CCAC64"/>
<path d="M93.125 92.2086L94.7447 90.8555L127.917 129.977V133.237L93.125 92.2086Z" fill="#CCAC64"/>
<path d="M94.7432 90.8555L96.3568 89.5024L127.916 126.716V129.977L94.7432 90.8555Z" fill="#CCAC64"/>
<path d="M96.3574 89.5026L97.9771 88.1436L127.917 123.456V126.716L96.3574 89.5026Z" fill="#CCAC64"/>
<path d="M97.9775 88.1432L99.5912 86.79L127.917 120.195V123.455L97.9775 88.1432Z" fill="#CCAC64"/>
<path d="M99.5918 86.79L101.133 85.5024H101.265L127.918 116.934V120.195L99.5918 86.79Z" fill="#CCAC64"/>
<path d="M104.03 85.5024L127.917 113.674V116.934L101.265 85.5024H104.03Z" fill="#CCAC64"/>
<path d="M106.795 85.5024L127.916 110.413V113.674L104.029 85.5024H106.795Z" fill="#CCAC64"/>
<path d="M109.561 85.5024L127.917 107.152V110.413L106.796 85.5024H109.561Z" fill="#CCAC64"/>
<path d="M112.321 85.5024L127.918 103.892V107.152L109.562 85.5024H112.321Z" fill="#CCAC64"/>
<path d="M115.086 85.5024L127.917 100.631V103.892L112.32 85.5024H115.086Z" fill="#CCAC64"/>
<path d="M117.851 85.5024L127.917 97.3705V100.631L115.086 85.5024H117.851Z" fill="#CCAC64"/>
<path d="M120.617 85.5024L127.917 94.1159V97.3705L117.852 85.5024H120.617Z" fill="#CCAC64"/>
<path d="M123.382 85.5024L127.917 90.8553V94.1159L120.616 85.5024H123.382Z" fill="#CCAC64"/>
<path d="M126.147 85.5024L127.917 87.5947V90.8553L123.382 85.5024H126.147Z" fill="#CCAC64"/>
</g>
<mask id="mask2_664_100089" style="mask-type:luminance" maskUnits="userSpaceOnUse" x="97" y="75" width="50" height="39">
<path d="M116.13 79.7322C115.65 78.8262 114.804 78.7845 113.922 78.8441C113.25 78.8918 112.579 78.9692 111.913 79.0467C111.211 79.1361 110.515 79.2494 109.819 79.3448C109.597 79.3746 109.369 79.4044 109.147 79.4044C107.762 79.4223 106.37 79.4401 104.984 79.4342C102.837 79.4342 100.851 78.7964 99.0155 77.7473C98.3618 77.3777 97.8519 76.7518 97.306 76.2093C97.192 76.108 97.21 75.8755 97.126 75.5C97.7798 75.7563 98.3017 75.9232 98.7877 76.1557C99.6215 76.5551 100.509 76.716 101.385 76.9604C103.269 77.479 105.158 77.3121 107.042 77.2525C108.602 77.2048 110.143 76.7995 111.697 76.6266C112.621 76.5193 113.562 76.5372 114.498 76.5193C115.332 76.5074 116.142 76.5551 116.964 76.8472C118.343 77.33 119.051 78.4566 118.643 79.8097C118.457 80.4118 118.223 81.0019 118.001 81.6218C118.733 81.9556 119.207 81.3298 119.759 81.1211C121.061 80.6204 122.279 79.9051 123.586 79.4401C124.846 78.9931 126.13 79.1123 127.299 79.8514C127.461 79.9528 127.647 80.0243 127.791 80.1495C128.475 80.7515 129.303 80.7277 130.059 80.4833C132.182 79.7978 134.282 79.0288 136.382 78.2659C137.155 77.9857 137.893 77.5863 138.679 77.3538C140.005 76.9604 141.144 77.4254 142.11 78.3195C143.376 79.4938 144.612 80.6979 145.871 81.8782C146.177 82.1643 146.321 82.4862 146.267 82.9034C146.153 83.7916 146.027 84.6738 145.925 85.562C145.847 86.2952 145.769 87.0284 145.745 87.7615C145.722 88.6795 145.494 88.9716 144.6 89.0372C142.62 89.1862 140.833 89.9492 139.081 90.7897C137.965 91.3262 136.885 91.952 135.776 92.5124C135.2 92.8045 134.81 93.2516 134.594 93.8298C134.012 95.3975 133.142 96.7923 132.062 98.1574C132.248 98.3064 132.386 98.5091 132.572 98.5687C134.366 99.117 135.836 100.196 137.245 101.358C138.607 102.485 139.663 103.868 140.359 105.477C140.671 106.199 140.803 107.009 140.899 107.796C141.097 109.394 141.084 110.991 140.563 112.547C140.503 112.726 140.509 112.928 140.467 113.113C140.437 113.25 140.383 113.387 140.275 113.733C140.029 113.119 139.807 112.708 139.693 112.273C138.829 108.881 136.615 106.562 133.784 104.655C132.284 103.647 130.593 103.105 129.009 102.318C127.845 101.74 126.796 100.971 125.698 100.077C126.124 99.8323 126.424 99.6237 126.754 99.4807C128.097 98.8905 128.853 97.7639 129.531 96.5479C130.311 95.159 130.857 93.6569 131.775 92.3276C132.308 91.5467 133.022 91.04 133.778 90.6347C136.016 89.4366 138.331 88.3756 140.587 87.1953C141.42 86.7601 142.212 86.6826 143.1 87.0402C144.006 85.6633 143.82 84.2983 143.166 82.9452C143.052 82.7067 142.77 82.5279 142.536 82.3669C141.624 81.7351 140.713 81.1032 139.909 80.3283C139.225 79.6726 138.511 79.6011 137.569 80.0601C136.124 80.7635 134.564 81.2344 133.046 81.7947C132.116 82.1404 131.187 82.4802 130.251 82.814C129.681 83.0167 129.117 83.2492 128.529 83.3803C127.689 83.571 126.994 83.0763 126.256 82.7902C125.458 82.4802 124.66 82.0868 123.826 81.9556C123.196 81.8603 122.47 82.0212 121.859 82.2477C120.785 82.6531 119.777 83.2372 118.715 83.6783C117.864 84.03 116.982 84.3102 116.094 84.5546C115.392 84.7513 114.9 84.34 114.906 83.5949C114.912 82.9273 114.954 82.2775 115.314 81.6576C115.656 81.0615 115.842 80.376 116.106 79.7024L116.13 79.7322Z" fill="white"/>
</mask>
<g mask="url(#mask2_664_100089)">
<path d="M97.126 113.227L97.5699 113.751H97.126V113.227Z" fill="#CCAC64"/>
<path d="M97.126 109.966L100.335 113.751H97.5699L97.126 113.226V109.966Z" fill="#CCAC64"/>
<path d="M97.126 106.706L103.101 113.751H100.335L97.126 109.966V106.706Z" fill="#CCAC64"/>
<path d="M97.126 103.444L105.866 113.751H103.101L97.126 106.705V103.444Z" fill="#CCAC64"/>
<path d="M97.126 100.184L108.626 113.751H105.866L97.126 103.445V100.184Z" fill="#CCAC64"/>
<path d="M97.126 96.9297L111.391 113.751H108.626L97.126 100.184V96.9297Z" fill="#CCAC64"/>
<path d="M97.126 93.6689L114.156 113.751H111.391L97.126 96.9295V93.6689Z" fill="#CCAC64"/>
<path d="M97.126 90.4082L116.922 113.751H114.156L97.126 93.6688V90.4082Z" fill="#CCAC64"/>
<path d="M97.126 87.1475L119.687 113.751H116.922L97.126 90.4081V87.1475Z" fill="#CCAC64"/>
<path d="M97.126 83.8867L122.453 113.751H119.687L97.126 87.1473V83.8867Z" fill="#CCAC64"/>
<path d="M97.126 80.6265L125.212 113.751H122.453L97.126 83.8871V80.6265Z" fill="#CCAC64"/>
<path d="M97.126 77.3657L127.977 113.751H125.212L97.126 80.6263V77.3657Z" fill="#CCAC64"/>
<path d="M98.3137 75.5L130.743 113.751H127.977L97.126 77.3658V75.5H98.3137Z" fill="#CCAC64"/>
<path d="M101.073 75.5L133.508 113.751H130.742L98.3135 75.5H101.073Z" fill="#CCAC64"/>
<path d="M103.839 75.5L136.274 113.751H133.508L101.073 75.5H103.839Z" fill="#CCAC64"/>
<path d="M106.603 75.5L139.032 113.751H136.273L103.838 75.5H106.603Z" fill="#CCAC64"/>
<path d="M109.369 75.5L141.69 113.62L141.54 113.751H139.032L106.604 75.5H109.369Z" fill="#CCAC64"/>
<path d="M112.136 75.5L143.311 112.267L141.691 113.62L109.37 75.5H112.136Z" fill="#CCAC64"/>
<path d="M114.899 75.5L144.923 110.914L143.309 112.267L112.134 75.5H114.899Z" fill="#CCAC64"/>
<path d="M117.659 75.5L146.327 109.304V109.739L144.923 110.914L114.899 75.5H117.659Z" fill="#CCAC64"/>
<path d="M120.425 75.5L146.327 106.05V109.304L117.659 75.5H120.425Z" fill="#CCAC64"/>
<path d="M123.19 75.5L146.327 102.789V106.05L120.425 75.5H123.19Z" fill="#CCAC64"/>
<path d="M125.956 75.5L146.328 99.5283V102.789L123.19 75.5H125.956Z" fill="#CCAC64"/>
<path d="M128.721 75.5L146.328 96.2677V99.5283L125.956 75.5H128.721Z" fill="#CCAC64"/>
<path d="M131.486 75.5L146.327 93.0071V96.2677L128.721 75.5H131.486Z" fill="#CCAC64"/>
<path d="M134.246 75.5L146.327 89.7465V93.0071L131.486 75.5H134.246Z" fill="#CCAC64"/>
<path d="M137.011 75.5L146.327 86.4859V89.7465L134.246 75.5H137.011Z" fill="#CCAC64"/>
<path d="M139.776 75.5L146.327 83.2253V86.4859L137.011 75.5H139.776Z" fill="#CCAC64"/>
<path d="M142.542 75.5L146.327 79.9647V83.2253L139.776 75.5H142.542Z" fill="#CCAC64"/>
<path d="M145.307 75.5L146.327 76.7041V79.9647L142.542 75.5H145.307Z" fill="#CCAC64"/>
<path d="M146.326 76.7041L145.307 75.5H146.326V76.7041Z" fill="#CCAC64"/>
</g>
<mask id="mask3_664_100089" style="mask-type:luminance" maskUnits="userSpaceOnUse" x="122" y="86" width="7" height="6">
<path d="M122.266 90.8612C122.344 90.1458 122.41 89.4425 122.5 88.7451C122.65 87.6006 123.663 86.6409 124.809 86.5752C125.421 86.5395 126.057 86.4799 126.645 86.5991C127.143 86.7005 127.605 87.0104 128.048 87.2787C128.336 87.4575 128.564 87.7317 128.804 87.9582C128.618 88.7748 127.88 88.7748 127.383 89.0193C126.021 89.6869 124.599 90.2353 123.219 90.8671C122.872 91.0281 122.584 91.1473 122.266 90.8671V90.8612ZM126.753 88.1072C125.859 87.1297 125.055 87.6244 124.299 87.9939C123.609 88.3278 123.411 88.8345 123.549 89.6929C124.599 89.1743 125.625 88.6616 126.753 88.1072Z" fill="white"/>
</mask>
<g mask="url(#mask3_664_100089)">
<path d="M123.411 88.7988L124.167 89.693H123.411V88.7988Z" fill="#CCAC64"/>
<path d="M123.411 87.4454L123.789 87.1294H124.755L126.59 89.2931L126.111 89.6926H124.167L123.411 88.7984V87.4454Z" fill="#CCAC64"/>
<path d="M126.752 89.156L126.59 89.2931L124.755 87.1294H126.752V89.156Z" fill="#CCAC64"/>
<path d="M122.266 90.7119L122.632 91.1471H122.266V90.7119Z" fill="#CCAC64"/>
<path d="M122.266 87.4512L125.397 91.147H122.632L122.266 90.7118V87.4512Z" fill="#CCAC64"/>
<path d="M122.266 86.7536L122.596 86.4795H124.209L127.695 90.5925L127.035 91.1468H125.397L122.266 87.4511V86.7536Z" fill="#CCAC64"/>
<path d="M126.969 86.4795L128.805 88.6433V89.6626L127.695 90.5925L124.21 86.4795H126.969Z" fill="#CCAC64"/>
<path d="M128.804 88.6433L126.969 86.4795H128.804V88.6433Z" fill="#CCAC64"/>
</g>
</g>
<mask id="mask4_664_100089" style="mask-type:alpha" maskUnits="userSpaceOnUse" x="1" y="0" width="211" height="163">
<path d="M136.294 18.6747L1.15332 162.911H136.726L211.153 0.5H178.228C170.917 0.5 163.674 1.89495 156.886 4.61003C149.075 7.73439 142.046 12.5356 136.294 18.6747Z" fill="#1C325C"/>
</mask>
<g mask="url(#mask4_664_100089)">
<g style="mix-blend-mode:plus-lighter" filter="url(#filter0_f_664_100089)">
<line x1="123.701" y1="175.287" x2="204.701" y2="3.28697" stroke="url(#paint0_linear_664_100089)"/>
</g>
<g style="mix-blend-mode:plus-lighter" filter="url(#filter1_f_664_100089)">
<line x1="0.0545906" y1="169.479" x2="158.055" y2="-0.521175" stroke="url(#paint1_linear_664_100089)" stroke-width="3"/>
</g>
<rect x="-32.9365" y="132.978" width="283.576" height="89" transform="rotate(-47.4383 -32.9365 132.978)" fill="url(#paint2_linear_664_100089)"/>
<path d="M209.153 10.5H193.712L163.67 70.0579M152.742 162.5L125.153 146.414L163.67 70.0579M163.67 70.0579H188.668" stroke="black" stroke-opacity="0.2" stroke-width="2"/>
<path d="M209.653 11.5H194.653L165.653 68.8M189.954 71.3H164.454L126.653 146" stroke="white" stroke-opacity="0.2" stroke-width="0.5"/>
<path d="M123.653 147L146.653 160.5" stroke="white" stroke-opacity="0.21" stroke-width="0.5" style="mix-blend-mode:overlay"/>
</g>
<defs>
<filter id="filter0_f_664_100089" x="117.249" y="-2.92627" width="93.9043" height="184.426" filterUnits="userSpaceOnUse" color-interpolation-filters="sRGB">
<feFlood flood-opacity="0" result="BackgroundImageFix"/>
<feBlend mode="normal" in="SourceGraphic" in2="BackgroundImageFix" result="shape"/>
<feGaussianBlur stdDeviation="3" result="effect1_foregroundBlur_664_100089"/>
</filter>
<filter id="filter1_f_664_100089" x="-12.0439" y="-12.5425" width="182.197" height="194.042" filterUnits="userSpaceOnUse" color-interpolation-filters="sRGB">
<feFlood flood-opacity="0" result="BackgroundImageFix"/>
<feBlend mode="normal" in="SourceGraphic" in2="BackgroundImageFix" result="shape"/>
<feGaussianBlur stdDeviation="5.5" result="effect1_foregroundBlur_664_100089"/>
</filter>
<linearGradient id="paint0_linear_664_100089" x1="205.606" y1="3.71302" x2="143.837" y2="149.682" gradientUnits="userSpaceOnUse">
<stop stop-color="white" stop-opacity="0"/>
<stop offset="1" stop-color="white"/>
</linearGradient>
<linearGradient id="paint1_linear_664_100089" x1="159.52" y1="0.840385" x2="34.8827" y2="148.74" gradientUnits="userSpaceOnUse">
<stop stop-color="white" stop-opacity="0"/>
<stop offset="1" stop-color="white"/>
</linearGradient>
<linearGradient id="paint2_linear_664_100089" x1="133.083" y1="221.978" x2="133.957" y2="126.389" gradientUnits="userSpaceOnUse">
<stop stop-color="white" stop-opacity="0"/>
<stop offset="1" stop-color="white" stop-opacity="0.5"/>
</linearGradient>
</defs>
</svg>
