<svg width="212" height="164" viewBox="0 0 212 164" fill="none" xmlns="http://www.w3.org/2000/svg">
<path d="M136.293 18.6747L1.15234 162.911H136.725L211.152 0.5H178.227C170.916 0.5 163.673 1.89495 156.885 4.61003C149.074 7.73439 142.045 12.5356 136.293 18.6747Z" fill="#E60012"/>
<path d="M1.15234 162.911L136.293 18.6746C142.045 12.5356 149.074 7.73439 156.885 4.61003C163.673 1.89496 170.916 0.5 178.227 0.5H211.152M1.15234 162.911H136.725L211.152 0.5M1.15234 162.911L136.293 18.6747C142.045 12.5356 149.074 7.73439 156.885 4.61003C163.673 1.89495 170.916 0.5 178.227 0.5H211.152" stroke="#C2C2C2" stroke-opacity="0.4"/>
<mask id="mask0_664_107397" style="mask-type:alpha" maskUnits="userSpaceOnUse" x="1" y="0" width="211" height="163">
<path d="M136.293 18.6747L1.15234 162.911H136.725L211.152 0.5H178.227C170.916 0.5 163.673 1.89495 156.885 4.61003C149.074 7.73439 142.045 12.5356 136.293 18.6747Z" fill="#1C325C"/>
</mask>
<g mask="url(#mask0_664_107397)">
<path d="M-76.0763 48.7818L-75.6868 46.0769C-72.0349 32.3497 -50.6026 24.7423 -28.0409 21.8603C-16.663 20.4081 -4.76184 19.8234 7.6624 20.1061C7.67805 20.1053 7.69505 20.108 7.71054 20.1138C7.72603 20.1196 7.73906 20.128 7.74742 20.1378L7.99325 20.4216C8.00094 20.4296 8.00423 20.4383 8.00273 20.4464C8.00122 20.4546 7.99499 20.4619 7.98476 20.4676C7.97453 20.4733 7.96073 20.4771 7.94499 20.4785C7.92924 20.48 7.9122 20.479 7.89587 20.4757C7.80901 20.4567 7.21164 20.4989 6.10375 20.6024C5.38317 20.6706 4.80719 20.7095 4.37582 20.7188C-11.0307 21.0714 -25.8678 23.3809 -37.2734 28.2393C-41.8032 30.1647 -45.3481 32.3227 -47.9082 34.7135C-60.2091 46.163 -48.1866 59.6054 -29.8391 69.6879C-18.2492 76.0558 -4.96766 80.5053 8.97762 85.323C19.517 88.9686 28.0525 93.4651 33.6836 99.4669C33.7238 99.5103 33.7799 99.5498 33.8474 99.5821C33.9149 99.6145 33.992 99.6388 34.0725 99.6532C34.153 99.6677 34.2347 99.6718 34.3112 99.6652C34.3877 99.6587 34.4569 99.6417 34.5133 99.6155C38.6323 97.7642 41.2468 96.3438 45.4271 95.3728C50.0065 94.3052 54.9709 93.5722 60.32 93.1737C70.6796 92.406 84.1228 92.0628 95.5402 90.6682C108.836 89.0474 119.861 85.7119 127.208 79.7333C132.572 75.3733 134.422 70.2652 132.756 64.4093C130.703 57.2038 123.957 50.8564 114.352 45.2661C103.105 38.7154 90.2445 33.5166 75.7712 29.6698C75.7551 29.6678 75.7392 29.6641 75.7245 29.6588C75.7098 29.6536 75.6966 29.6469 75.6856 29.6392C75.6635 29.6237 75.6519 29.605 75.6532 29.5871C75.6546 29.5692 75.669 29.5537 75.693 29.5439C75.7171 29.5341 75.749 29.5309 75.7817 29.535C76.6796 29.5214 77.5963 29.6258 78.5318 29.8482C97.4597 34.3657 115.071 41.2452 131.366 50.4867C146.962 59.3307 157.138 70.5398 154.454 81.587C150.879 96.2749 126.386 103.607 102.237 105.696C87.1319 107.002 73.2305 107.791 60.3598 111.065C48.3899 114.119 39.5235 118.267 34.0153 124.539C33.3873 125.251 32.3394 126.41 30.8718 128.016C30.6307 128.28 30.3109 128.489 29.9125 128.643C29.8749 128.658 29.8285 128.666 29.7783 128.666C29.7282 128.666 29.6761 128.658 29.6277 128.643C29.5793 128.628 29.5363 128.607 29.5034 128.581C29.4705 128.555 29.4489 128.526 29.4408 128.497C27.1445 120.096 20.5299 112.401 9.59698 105.411C-3.33228 97.1462 -15.1701 93.0604 -35.0672 85.2772C-48.6465 79.9716 -61.6098 72.3785 -69.2694 63.9761C-73.7928 59.0136 -76.0618 53.9489 -76.0763 48.7818Z" fill="#FFE105"/>
<path d="M6.23968 23.0229C4.80762 22.9303 1.58681 23.2521 -3.42276 23.9884C-19.3954 26.3437 -34.5506 31.9819 -33.3732 42.7816C-32.5293 50.485 -22.6975 58.2359 -11.2877 63.3654C-1.28394 67.8688 8.60949 70.5254 22.0072 74.417C27.3904 75.981 32.2745 77.7961 36.6595 79.8624C36.777 79.9182 36.9133 79.9583 37.0549 79.9787C37.1964 79.999 37.3385 79.9991 37.467 79.9787C37.8526 79.9141 38.595 79.7564 39.6942 79.5057C41.8364 79.022 44.6686 78.8066 48.1908 78.8592C57.5054 79.0026 63.4498 79.0745 66.024 79.0751C83.4287 79.093 104.514 76.3831 112.764 67.8709C117.091 63.4134 117.099 58.2545 112.788 52.3942C107.035 44.5682 95.2495 38.8734 82.5814 34.0204C82.5536 34.01 82.5288 33.9969 82.5086 33.9819C82.4884 33.9669 82.4733 33.9502 82.464 33.9329C82.4548 33.9156 82.4517 33.8981 82.4549 33.8814C82.4581 33.8647 82.4675 33.8492 82.4826 33.8357L82.6565 33.6855C82.6746 33.6692 82.7037 33.6581 82.7387 33.6542C82.7737 33.6504 82.8123 33.6539 82.8477 33.6643C93.4474 36.705 102.448 41.1467 110.61 46.3053C115.657 49.4961 119.24 52.5084 121.359 55.3424C127.777 63.902 125.892 72.3908 115.034 77.8005C100.026 85.2762 79.4039 85.5791 58.6172 85.9654C57.9166 85.9781 54.8857 86.1423 49.5246 86.4578C44.7178 86.7396 40.1616 87.6661 35.8561 89.2374C35.8092 89.2548 35.7548 89.266 35.6959 89.2704C35.6369 89.2747 35.5747 89.2721 35.5128 89.2627C35.4508 89.2534 35.3903 89.2374 35.3349 89.2158C35.2794 89.1941 35.2301 89.1672 35.1897 89.1366C32.9659 87.4497 30.7262 85.9975 28.4706 84.7799C27.418 84.2096 25.1525 83.2893 21.6741 82.0191C21.3678 81.9068 14.1137 79.5442 -0.0880356 74.9314C-17.326 69.3376 -36.479 60.2445 -42.3779 49.3834C-46.536 41.7384 -41.9279 34.8104 -32.6176 30.3173C-22.8099 25.5842 -10.8279 23.0276 3.3283 22.6475C4.8809 22.6081 5.87647 22.6833 6.31501 22.873C6.3439 22.8845 6.36639 22.9002 6.37913 22.9179C6.39187 22.9355 6.39417 22.9542 6.3857 22.971C6.37722 22.9879 6.35842 23.0021 6.33211 23.0114C6.30579 23.0207 6.27336 23.0248 6.23968 23.0229Z" fill="#FFE105"/>
<path d="M12.5096 24.9677C12.4664 24.9777 12.4297 24.9627 12.3996 24.9227C11.9726 24.2801 11.5348 24.1472 11.0863 24.5242C10.9171 24.6621 10.69 24.7252 10.4051 24.7134C10.066 24.7035 9.7927 24.7145 9.58505 24.7462C-4.75394 26.8937 -19.3486 31.6874 -16.2094 41.4937C-13.6052 49.6015 0.109745 56.9523 13.1899 61.1829C34.334 68.0209 60.8518 70.8264 81.5411 66.8859C95.8004 64.1719 104.917 57.4158 98.1865 47.7254C95.3427 43.6248 90.5668 40.0007 83.8588 36.8533C83.8417 36.8454 83.8287 36.8353 83.8221 36.8246C83.8155 36.8138 83.8156 36.8032 83.8224 36.7945L83.9452 36.5638C83.9564 36.5427 83.9766 36.5242 84.0045 36.5098C84.0323 36.4953 84.0669 36.4853 84.1057 36.4805C84.1445 36.4758 84.1864 36.4764 84.2282 36.4822C84.2699 36.4881 84.3104 36.4992 84.3465 36.5145C95.2522 41.039 102.391 46.3196 105.762 52.3563C109.296 58.6761 107 63.7491 98.876 67.5754C90.0472 71.732 79.2608 73.7417 66.517 73.6045C61.8295 73.5561 55.9958 73.3995 49.0161 73.1346C45.7669 73.0108 42.2127 73.1386 38.3535 73.5178C38.2222 73.531 38.0822 73.5274 37.9429 73.5073C37.8036 73.4873 37.6682 73.4512 37.546 73.4016C33.9263 71.9097 29.9947 70.6148 25.7509 69.5167C18.5067 67.6458 12.0211 65.7948 6.29421 63.9638C-4.29917 60.5686 -13.5706 55.9564 -19.483 49.8557C-34.3134 34.5725 -10.8927 24.9774 11.4781 24.23C11.796 24.2206 12.1072 24.2573 12.4119 24.3401C12.5271 24.3714 12.629 24.4199 12.7047 24.4793C12.7804 24.5387 12.8264 24.6064 12.8369 24.6737C12.8474 24.741 12.8219 24.805 12.7636 24.8573C12.7053 24.9097 12.6169 24.9481 12.5096 24.9677Z" fill="#FFE105"/>
<path d="M-28.4964 110.099C-28.5125 110.078 -28.5174 110.057 -28.5102 110.037C-28.5031 110.018 -28.4843 110.001 -28.4567 109.99C-28.429 109.978 -28.3939 109.973 -28.3565 109.975C-28.3192 109.976 -28.2815 109.984 -28.2489 109.998C-19.0792 114.196 -17.8816 121.123 -24.6157 124.959C-28.5391 127.194 -34.7166 127.912 -41.0574 127.461C-66.0992 125.667 -81.2811 110.212 -67.9964 99.7071C-63.1374 95.8684 -55.8904 93.8831 -46.2554 93.7512C-27.8092 93.505 -10.5944 98.8861 3.18794 107.138C9.30801 110.801 14.3136 114.614 18.2046 118.576C21.9869 122.423 24.4274 126.752 27.3293 131.611C27.4455 131.8 27.4793 131.959 27.4308 132.088C27.4146 132.134 27.3731 132.172 27.3115 132.2C27.25 132.227 27.1712 132.241 27.0854 132.241C26.9997 132.24 26.9108 132.226 26.8303 132.198C26.7498 132.17 26.6814 132.131 26.6338 132.086C20.1777 125.696 12.2123 119.957 2.73766 114.869C-7.29978 109.479 -21.2249 104.708 -33.7693 105.405C-40.9496 105.808 -47.2294 108.604 -45.1143 113.14C-43.2316 117.176 -34.8034 119.12 -29.6296 117.035C-25.912 115.545 -26.4059 112.567 -28.4964 110.099Z" fill="#FFE105"/>
<path d="M90.9536 127.445C90.8935 127.531 90.4735 128.146 89.6936 129.29C88.1866 131.501 88.8104 133.474 91.565 135.208C94.5133 137.069 99.8427 137.637 103.302 136.63C106.544 135.688 107.955 134.041 107.535 131.688C107.188 129.739 105.248 127.908 101.714 126.195C89.3104 120.192 72.6527 120.398 60.158 122.928C49.2971 125.124 40.2321 128.722 32.0624 132.698C32.0047 132.727 31.926 132.742 31.8407 132.739C31.7554 132.736 31.6689 132.717 31.597 132.683C31.5251 132.65 31.4724 132.606 31.4483 132.558C31.4243 132.51 31.4306 132.461 31.466 132.422C38.3495 124.271 49.3772 118.449 64.5491 114.956C78.7449 111.688 95.5261 111.494 111.14 116.172C126.54 120.781 136.173 128.357 134.847 137.442C134.249 141.529 131.073 144.675 125.088 146.726C115.316 150.071 102.501 150.222 91.4401 145.221C83.6344 141.692 77.5683 135.165 82.0963 130.596C83.5642 129.113 86.3896 127.991 90.5725 127.23C90.6211 127.221 90.676 127.222 90.7301 127.231C90.7841 127.24 90.835 127.257 90.876 127.28C90.917 127.303 90.9463 127.331 90.9601 127.361C90.9739 127.39 90.9717 127.42 90.9536 127.445Z" fill="#FFE105"/>
</g>
<mask id="mask1_664_107397" style="mask-type:alpha" maskUnits="userSpaceOnUse" x="1" y="0" width="211" height="163">
<path d="M136.293 18.6747L1.15234 162.911H136.725L211.152 0.5H178.227C170.916 0.5 163.673 1.89495 156.885 4.61003C149.074 7.73439 142.045 12.5356 136.293 18.6747Z" fill="#1C325C"/>
</mask>
<g mask="url(#mask1_664_107397)">
<g style="mix-blend-mode:plus-lighter" filter="url(#filter0_f_664_107397)">
<line x1="123.7" y1="175.287" x2="204.7" y2="3.28697" stroke="url(#paint0_linear_664_107397)"/>
</g>
<g style="mix-blend-mode:plus-lighter" filter="url(#filter1_f_664_107397)">
<line x1="0.053614" y1="169.479" x2="158.054" y2="-0.521175" stroke="url(#paint1_linear_664_107397)" stroke-width="3"/>
</g>
<rect x="-32.9375" y="132.977" width="283.576" height="89" transform="rotate(-47.4383 -32.9375 132.977)" fill="url(#paint2_linear_664_107397)"/>
<path d="M209.152 10.5H193.711L163.669 70.0579M152.741 162.5L125.152 146.414L163.669 70.0579M163.669 70.0579H188.667" stroke="black" stroke-opacity="0.2" stroke-width="2"/>
<path d="M209.652 11.5H194.652L165.652 68.8M189.953 71.3H164.453L126.652 146" stroke="white" stroke-opacity="0.2" stroke-width="0.5"/>
<path d="M123.652 147L146.652 160.5" stroke="white" stroke-opacity="0.21" stroke-width="0.5" style="mix-blend-mode:overlay"/>
</g>
<defs>
<filter id="filter0_f_664_107397" x="117.246" y="-2.92603" width="93.9062" height="184.426" filterUnits="userSpaceOnUse" color-interpolation-filters="sRGB">
<feFlood flood-opacity="0" result="BackgroundImageFix"/>
<feBlend mode="normal" in="SourceGraphic" in2="BackgroundImageFix" result="shape"/>
<feGaussianBlur stdDeviation="3" result="effect1_foregroundBlur_664_107397"/>
</filter>
<filter id="filter1_f_664_107397" x="-12.0469" y="-12.5422" width="182.199" height="194.042" filterUnits="userSpaceOnUse" color-interpolation-filters="sRGB">
<feFlood flood-opacity="0" result="BackgroundImageFix"/>
<feBlend mode="normal" in="SourceGraphic" in2="BackgroundImageFix" result="shape"/>
<feGaussianBlur stdDeviation="5.5" result="effect1_foregroundBlur_664_107397"/>
</filter>
<linearGradient id="paint0_linear_664_107397" x1="205.605" y1="3.71302" x2="143.836" y2="149.682" gradientUnits="userSpaceOnUse">
<stop stop-color="white" stop-opacity="0"/>
<stop offset="1" stop-color="white"/>
</linearGradient>
<linearGradient id="paint1_linear_664_107397" x1="159.519" y1="0.840385" x2="34.8817" y2="148.74" gradientUnits="userSpaceOnUse">
<stop stop-color="white" stop-opacity="0"/>
<stop offset="1" stop-color="white"/>
</linearGradient>
<linearGradient id="paint2_linear_664_107397" x1="133.082" y1="221.977" x2="133.956" y2="126.389" gradientUnits="userSpaceOnUse">
<stop stop-color="white" stop-opacity="0"/>
<stop offset="1" stop-color="white" stop-opacity="0.5"/>
</linearGradient>
</defs>
</svg>
