<svg width="212" height="164" viewBox="0 0 212 164" fill="none" xmlns="http://www.w3.org/2000/svg">
<path d="M136.295 18.6747L1.1543 162.911H136.727L211.154 0.5H178.229C170.918 0.5 163.675 1.89495 156.887 4.61003C149.076 7.73439 142.047 12.5356 136.295 18.6747Z" fill="#EB2227"/>
<path d="M1.1543 162.911L136.295 18.6746C142.047 12.5356 149.076 7.73439 156.887 4.61003C163.675 1.89496 170.918 0.5 178.229 0.5H211.154M1.1543 162.911H136.727L211.154 0.5M1.1543 162.911L136.295 18.6747C142.047 12.5356 149.076 7.73439 156.887 4.61003C163.675 1.89495 170.918 0.5 178.229 0.5H211.154" stroke="#C2C2C2" stroke-opacity="0.4"/>
<mask id="mask0_664_103222" style="mask-type:alpha" maskUnits="userSpaceOnUse" x="1" y="0" width="211" height="163">
<path d="M136.295 18.6747L1.1543 162.911H136.727L211.154 0.5H178.229C170.918 0.5 163.675 1.89495 156.887 4.61003C149.076 7.73439 142.047 12.5356 136.295 18.6747Z" fill="#1C325C"/>
</mask>
<g mask="url(#mask0_664_103222)">
<path d="M73.7765 105.737L73.7927 105.717C73.8089 105.698 73.8089 105.698 73.8089 105.698C75.6631 102.925 75.5001 98.4675 72.4633 96.6251C69.6917 94.9381 66.2739 95.8782 64.5883 98.5283C63.627 100.035 63.0979 102.364 63.7713 104.08C64.3608 105.661 65.6374 106.892 67.0897 107.675C69.5383 108.961 72.1633 107.787 73.7765 105.737Z" fill="white"/>
<path d="M60.3598 145.303C58.0817 142.907 55.3601 143.802 53.486 145.14C51.8712 146.365 50.6387 147.447 49.767 146.125C49.7444 146.073 49.7219 146.022 49.6993 145.97C48.9899 144.454 49.5245 142.591 50.5649 140.359C50.7177 140.058 50.8511 139.741 51.0201 139.42C52.0601 137.385 53.5926 135.234 54.8662 132.999C55.4412 131.995 55.945 130.997 56.3225 129.993C57.0364 127.521 56.2644 124.897 55.116 122.685C54.658 121.775 54.1156 120.927 53.5828 120.185C52.7432 119.022 51.9745 118.051 51.5715 117.154C51.2266 116.305 51.2088 115.499 51.709 114.663C52.7547 113.095 54.8126 113.823 57.4714 115.251C60.5442 116.893 64.1645 120.047 67.4693 120.661C68.9488 120.742 70.3658 119.715 71.6639 118.16C73.2055 116.313 74.5543 113.712 75.6113 111.263C76.9383 108.214 78.0638 105.526 79.3161 104.262C79.9584 103.611 80.6519 103.332 81.4641 103.581C81.668 103.652 81.8588 103.779 82.0333 103.924C83.2058 105.398 82.7937 109.243 82.0851 113.995C81.1443 119.972 79.0944 126.803 79.8345 130.885C80.0079 131.623 80.3531 132.274 80.8313 132.805C82.7658 135.377 87.5113 136.04 91.9539 135.922C96.199 135.805 99.9458 135.535 101.222 136.765C101.429 137.07 101.519 137.475 101.437 137.967C101.375 138.476 101.131 138.965 100.738 139.396C99.187 141.136 95.2764 142.39 90.6894 143.509C84.9264 144.932 78.3721 145.332 74.9267 147.172C74.6382 147.36 74.369 147.564 74.1581 147.817C72.396 149.81 73.3471 153.638 74.7754 156.777C76.1265 159.653 77.3782 162.017 76.4734 162.746C76.2886 162.889 76.0262 162.966 75.6506 162.983C74.6824 162.999 73.5828 162.345 72.3739 161.27C71.2006 160.191 69.9731 158.705 68.6553 157.011C66.2006 153.841 63.9612 149.86 61.807 147.039C61.3193 146.401 60.8542 145.815 60.3598 145.303Z" fill="white"/>
<path d="M179.209 32.8191L183.461 27.7262L173.522 16.7249C173.666 16.3168 173.932 15.8794 174.224 15.5295C174.873 14.752 175.787 14.3274 176.782 15.4221L185.587 25.1797L189.822 20.1062L180.979 10.3162C177.176 6.11905 173.106 7.8011 169.958 11.5722C168.27 13.5938 166.97 16.1369 166.285 18.534L179.209 32.8191ZM162.521 29.7068C163.024 29.1042 164.035 28.7606 164.671 29.4569L169.169 34.3989C169.905 35.2117 169.622 36.2613 169.07 36.9222C168.518 37.5831 167.569 37.8133 166.913 37.1009L162.416 32.1589C161.743 31.4659 162.018 30.3094 162.521 29.7068ZM162.668 42.0675C165.893 45.6169 170.189 44.2555 172.834 41.0869C175.512 37.8796 176.557 32.8813 173.313 29.3157L168.971 24.5032C165.566 20.7368 161.253 22.1177 158.589 25.27C155.95 28.5098 154.924 33.5243 158.31 37.2745L162.668 42.0675ZM158.34 50.1308C158.194 50.5033 157.96 50.9018 157.684 51.2322C156.986 52.0681 155.936 52.5769 155.141 51.7154L150.379 46.4205C149.539 45.4554 149.897 44.2374 150.563 43.4404C150.887 43.0516 151.221 42.7697 151.548 42.6142L158.34 50.1308ZM147.167 27.8737L142.883 33.0055L147.956 38.5595C147.207 39.0229 146.542 39.6223 145.99 40.2832C143.475 43.2962 142.77 47.6887 145.856 51.0892L150.557 56.2999C154.302 60.4485 158.097 58.7017 160.839 55.4166C162.754 53.1228 164.149 50.2299 165.054 47.6869L147.167 27.8737ZM143.364 75.7593L147.615 70.6663L137.677 59.6651C137.804 59.2764 138.086 58.8196 138.378 58.4697C139.027 57.6921 139.941 57.2676 140.937 58.3622L149.741 68.1199L153.976 63.0464L145.133 53.2563C141.33 49.0592 137.26 50.7413 134.112 54.5124C132.424 56.534 131.124 59.0771 130.44 61.4742L143.364 75.7593ZM126.976 74.4155C126.201 73.5703 126.41 72.294 127.011 71.5747C127.822 70.6028 128.832 70.852 129.471 71.5839C130.897 73.0704 129.873 75.0854 128.291 75.8761L126.976 74.4155ZM130.872 78.8555C134.705 75.92 136.59 70.6656 133.359 67.0449C130.009 63.2915 125.998 64.2317 123.305 67.4586C120.611 70.6854 119.762 75.8812 123.207 79.68L127.132 84.0455C130.48 87.7634 134.924 86.4602 137.553 83.3111C139.062 81.5033 140.518 79.0898 140.143 75.083L135.635 75.476C135.792 78.0479 132.943 81.1452 130.872 78.8555ZM115.065 77.3691C111.917 81.1402 111.422 85.4776 115.183 89.6067L123.862 99.1603L128.113 94.0673L119.493 84.5623C117.962 82.888 119.738 80.2477 121.323 79.295L117.578 75.1464C116.21 76.1153 115.519 76.8248 115.065 77.3691ZM107.219 95.954C107.722 95.3514 108.733 95.0078 109.369 95.7041L113.867 100.646C114.604 101.459 114.32 102.509 113.768 103.169C113.216 103.83 112.267 104.061 111.595 103.368L107.097 98.4255C106.442 97.7131 106.716 96.5566 107.219 95.954ZM107.367 108.315C110.591 111.864 114.887 110.503 117.532 107.334C120.21 104.127 121.255 99.1285 118.012 95.5629L113.669 90.7504C110.264 86.984 105.951 88.3649 103.287 91.5172C100.664 94.7376 99.6218 99.7715 103.008 103.522L107.367 108.315ZM102.813 113.651C103.368 114.839 103.107 115.941 102.523 116.64C101.939 117.34 100.934 117.558 100.198 116.745L95.7939 111.848C95.0185 111.003 95.2052 109.872 95.8056 109.153C96.3411 108.512 97.2871 108.246 98.228 108.932L100.641 103.36C96.9319 101.022 93.8103 102.869 92.0415 104.988C89.3965 108.157 88.0985 112.945 91.4652 116.679L95.9466 121.64C99.2939 125.358 103.674 123.935 106.319 120.766C108.088 118.648 109.517 114.728 107.356 110.219L102.813 113.651Z" fill="white"/>
</g>
<mask id="mask1_664_103222" style="mask-type:alpha" maskUnits="userSpaceOnUse" x="1" y="0" width="211" height="163">
<path d="M136.295 18.6747L1.1543 162.911H136.727L211.154 0.5H178.229C170.918 0.5 163.675 1.89495 156.887 4.61003C149.076 7.73439 142.047 12.5356 136.295 18.6747Z" fill="#1C325C"/>
</mask>
<g mask="url(#mask1_664_103222)">
<g style="mix-blend-mode:plus-lighter" filter="url(#filter0_f_664_103222)">
<line x1="123.702" y1="175.287" x2="204.702" y2="3.28697" stroke="url(#paint0_linear_664_103222)"/>
</g>
<g style="mix-blend-mode:plus-lighter" filter="url(#filter1_f_664_103222)">
<line x1="0.0555671" y1="169.479" x2="158.056" y2="-0.521175" stroke="url(#paint1_linear_664_103222)" stroke-width="3"/>
</g>
<rect x="-32.9355" y="132.978" width="283.576" height="89" transform="rotate(-47.4383 -32.9355 132.978)" fill="url(#paint2_linear_664_103222)"/>
<path d="M209.154 10.5H193.713L163.67 70.0579M152.743 162.5L125.154 146.414L163.67 70.0579M163.67 70.0579H188.669" stroke="black" stroke-opacity="0.2" stroke-width="2"/>
<path d="M209.654 11.5H194.654L165.654 68.8M189.955 71.3H164.455L126.654 146" stroke="white" stroke-opacity="0.2" stroke-width="0.5"/>
<path d="M123.654 147L146.654 160.5" stroke="white" stroke-opacity="0.21" stroke-width="0.5" style="mix-blend-mode:overlay"/>
</g>
<defs>
<filter id="filter0_f_664_103222" x="117.25" y="-2.92627" width="93.9043" height="184.426" filterUnits="userSpaceOnUse" color-interpolation-filters="sRGB">
<feFlood flood-opacity="0" result="BackgroundImageFix"/>
<feBlend mode="normal" in="SourceGraphic" in2="BackgroundImageFix" result="shape"/>
<feGaussianBlur stdDeviation="3" result="effect1_foregroundBlur_664_103222"/>
</filter>
<filter id="filter1_f_664_103222" x="-12.043" y="-12.5425" width="182.197" height="194.042" filterUnits="userSpaceOnUse" color-interpolation-filters="sRGB">
<feFlood flood-opacity="0" result="BackgroundImageFix"/>
<feBlend mode="normal" in="SourceGraphic" in2="BackgroundImageFix" result="shape"/>
<feGaussianBlur stdDeviation="5.5" result="effect1_foregroundBlur_664_103222"/>
</filter>
<linearGradient id="paint0_linear_664_103222" x1="205.607" y1="3.71302" x2="143.838" y2="149.682" gradientUnits="userSpaceOnUse">
<stop stop-color="white" stop-opacity="0"/>
<stop offset="1" stop-color="white"/>
</linearGradient>
<linearGradient id="paint1_linear_664_103222" x1="159.521" y1="0.840385" x2="34.8837" y2="148.74" gradientUnits="userSpaceOnUse">
<stop stop-color="white" stop-opacity="0"/>
<stop offset="1" stop-color="white"/>
</linearGradient>
<linearGradient id="paint2_linear_664_103222" x1="133.084" y1="221.978" x2="133.958" y2="126.389" gradientUnits="userSpaceOnUse">
<stop stop-color="white" stop-opacity="0"/>
<stop offset="1" stop-color="white" stop-opacity="0.5"/>
</linearGradient>
</defs>
</svg>
