<svg width="210" height="163" viewBox="0 0 210 163" fill="none" xmlns="http://www.w3.org/2000/svg">
<path d="M135.14 18.1747L0 162.411H135.573L210 0H177.075C169.764 0 162.521 1.39495 155.733 4.11003C147.922 7.23439 140.892 12.0356 135.14 18.1747Z" fill="#003070"/>
<mask id="mask0_656_79575" style="mask-type:alpha" maskUnits="userSpaceOnUse" x="0" y="0" width="210" height="163">
<path d="M135.14 18.1747L0 162.411H135.573L210 0H177.075C169.764 0 162.521 1.39495 155.733 4.11003C147.922 7.23439 140.892 12.0356 135.14 18.1747Z" fill="#003070"/>
</mask>
<g mask="url(#mask0_656_79575)">
<ellipse cx="126.969" cy="79.9757" rx="126.969" ry="79.9757" transform="matrix(-0.998922 0.0464115 0.0464115 0.998922 202.576 40)" fill="#002F89"/>
<ellipse cx="123.758" cy="77.953" rx="123.758" ry="77.953" transform="matrix(-0.998922 0.0464115 0.0464115 0.998922 192.087 46.4395)" fill="#045BCC"/>
<ellipse cx="118.39" cy="75.8078" rx="118.39" ry="75.8078" transform="matrix(-0.995995 0.0894056 0.0894056 0.995995 173.997 48.7686)" fill="#0081C5"/>
<ellipse cx="83.8278" cy="62.8146" rx="83.8278" ry="62.8146" transform="matrix(-0.965202 0.261505 0.261505 0.965202 138.227 44.5261)" fill="#0095C7"/>
<ellipse cx="84.3778" cy="58.875" rx="84.3778" ry="58.875" transform="matrix(-0.947867 0.318666 0.318666 0.947867 125.279 48.001)" fill="#5AAEC6"/>
<ellipse cx="85.0094" cy="53.3735" rx="85.0094" ry="53.3735" transform="matrix(-0.91763 0.397437 0.397437 0.91763 94.0144 51.0974)" fill="#9DBECF"/>
</g>
<circle cx="105" cy="113" r="30" fill="#15255A" stroke="white" stroke-width="2"/>
<path d="M114 107.552L121 110L117.922 105L114 107.552Z" fill="white"/>
<path d="M120.956 104.793L116.737 103.139L105 101L93.2633 103.139L89.0439 104.793L84 109.266L84.0485 111.551L84.776 115.684L105 131L125.224 115.684L125.951 111.551L126 109.266L120.956 104.793ZM91.3718 117.337L85.4065 115.344L90.6443 115.295L91.3718 117.337L97.6767 117.872L102.284 126.138L91.3718 117.337ZM105 117.872L103.109 126.186L98.4527 117.872H105H111.499L106.843 126.186L105 117.872ZM118.628 117.337L107.716 126.138L112.323 117.872L118.628 117.337L119.356 115.295L124.594 115.344L118.628 117.337ZM125.273 111.502L121.344 110.044L119.404 115.295L111.79 111.502L105 116.462L98.2587 111.502L90.6443 115.295L88.7044 110.044L84.776 111.502L84.7275 109.606L89.4319 105.425H91.6628L93.4573 103.82L105 101.729L116.543 103.82L118.337 105.425H120.568L125.273 109.606V111.502Z" fill="white"/>
<path d="M92.078 105L89 110L96 107.552L92.078 105Z" fill="white"/>
<path d="M105 108.571L111.383 112L114 108L105 108.571L96 108L98.6173 112L105 108.571Z" fill="white"/>
<path d="M123.965 104.968L141.937 125.937L120.968 107.965L100 125.937L117.971 104.968L100 84L120.968 101.971L141.937 84L123.965 104.968Z" fill="white"/>
<mask id="mask1_656_79575" style="mask-type:alpha" maskUnits="userSpaceOnUse" x="0" y="0" width="210" height="163">
<path d="M135.14 18.1747L0 162.411H135.573L210 0H177.075C169.764 0 162.521 1.39495 155.733 4.11003C147.922 7.23439 140.892 12.0356 135.14 18.1747Z" fill="#1C325C"/>
</mask>
<g mask="url(#mask1_656_79575)">
<g style="mix-blend-mode:plus-lighter" filter="url(#filter0_f_656_79575)">
<line x1="122.548" y1="174.787" x2="203.548" y2="2.78697" stroke="url(#paint0_linear_656_79575)"/>
</g>
<g style="mix-blend-mode:plus-lighter" filter="url(#filter1_f_656_79575)">
<line x1="-1.09873" y1="168.979" x2="156.901" y2="-1.02118" stroke="url(#paint1_linear_656_79575)" stroke-width="3"/>
</g>
<rect x="-34.0898" y="132.477" width="283.576" height="89" transform="rotate(-47.4383 -34.0898 132.477)" fill="url(#paint2_linear_656_79575)"/>
<path d="M208 10H192.559L162.516 69.5579M151.588 162L124 145.914L162.516 69.5579M162.516 69.5579H187.515" stroke="black" stroke-opacity="0.2" stroke-width="2"/>
<path d="M208.5 11H193.5L164.5 68.3M188.801 70.8H163.301L125.5 145.5" stroke="white" stroke-opacity="0.2" stroke-width="0.5"/>
<path d="M122.5 146.5L145.5 160" stroke="white" stroke-opacity="0.21" stroke-width="0.5" style="mix-blend-mode:overlay"/>
</g>
<defs>
<filter id="filter0_f_656_79575" x="116.095" y="-3.42603" width="93.9047" height="184.426" filterUnits="userSpaceOnUse" color-interpolation-filters="sRGB">
<feFlood flood-opacity="0" result="BackgroundImageFix"/>
<feBlend mode="normal" in="SourceGraphic" in2="BackgroundImageFix" result="shape"/>
<feGaussianBlur stdDeviation="3" result="effect1_foregroundBlur_656_79575"/>
</filter>
<filter id="filter1_f_656_79575" x="-13.1975" y="-13.0422" width="182.198" height="194.042" filterUnits="userSpaceOnUse" color-interpolation-filters="sRGB">
<feFlood flood-opacity="0" result="BackgroundImageFix"/>
<feBlend mode="normal" in="SourceGraphic" in2="BackgroundImageFix" result="shape"/>
<feGaussianBlur stdDeviation="5.5" result="effect1_foregroundBlur_656_79575"/>
</filter>
<linearGradient id="paint0_linear_656_79575" x1="204.452" y1="3.21302" x2="142.683" y2="149.182" gradientUnits="userSpaceOnUse">
<stop stop-color="white" stop-opacity="0"/>
<stop offset="1" stop-color="white"/>
</linearGradient>
<linearGradient id="paint1_linear_656_79575" x1="158.366" y1="0.340385" x2="33.7294" y2="148.24" gradientUnits="userSpaceOnUse">
<stop stop-color="white" stop-opacity="0"/>
<stop offset="1" stop-color="white"/>
</linearGradient>
<linearGradient id="paint2_linear_656_79575" x1="131.93" y1="221.477" x2="132.804" y2="125.889" gradientUnits="userSpaceOnUse">
<stop stop-color="white" stop-opacity="0"/>
<stop offset="1" stop-color="white" stop-opacity="0.5"/>
</linearGradient>
</defs>
</svg>
