<svg width="212" height="164" viewBox="0 0 212 164" fill="none" xmlns="http://www.w3.org/2000/svg">
<path d="M136.294 18.6747L1.15356 162.911H136.727L211.154 0.5H178.228C170.918 0.5 163.674 1.89495 156.886 4.61003C149.076 7.73439 142.046 12.5356 136.294 18.6747Z" fill="#0F3D87"/>
<path d="M1.15356 162.911L136.294 18.6746C142.046 12.5356 149.075 7.73439 156.886 4.61003C163.674 1.89496 170.918 0.5 178.228 0.5H211.154M1.15356 162.911H136.727L211.154 0.5M1.15356 162.911L136.294 18.6747C142.046 12.5356 149.076 7.73439 156.886 4.61003C163.674 1.89495 170.918 0.5 178.228 0.5H211.154" stroke="#C2C2C2" stroke-opacity="0.4"/>
<mask id="mask0_656_79706" style="mask-type:alpha" maskUnits="userSpaceOnUse" x="1" y="0" width="211" height="163">
<path d="M136.294 18.6747L1.15356 162.911H136.727L211.154 0.5H178.228C170.918 0.5 163.674 1.89495 156.886 4.61003C149.076 7.73439 142.046 12.5356 136.294 18.6747Z" fill="white"/>
</mask>
<g mask="url(#mask0_656_79706)">
<path d="M40.7356 123.875C40.7356 123.875 77.1359 129.059 90.7089 144.915L98.1123 139.731C98.1123 139.426 74.6681 113.508 40.7356 123.875Z" fill="#009FE3"/>
<path d="M91.3258 133.632C91.3258 133.632 116.004 115.031 141.299 125.094C141.299 125.094 120.323 123.874 98.1123 139.73L91.3258 133.632Z" fill="#F9B000"/>
<path d="M99.6547 116.861L124.95 51.6074C124.95 51.6074 127.418 83.0147 121.248 94.9067C121.248 94.9067 118.472 101.92 109.217 107.409C109.526 107.409 103.665 110.763 99.6547 116.861Z" fill="url(#paint0_linear_656_79706)"/>
<path d="M116.004 101.005L102.431 109.848L103.048 108.628L116.004 101.005ZM117.546 97.346L103.973 106.189L104.59 104.969C104.59 104.664 113.228 99.1755 117.546 97.346ZM119.089 92.7721L105.516 101.615L106.133 100.395L119.089 92.7721ZM120.94 87.8933L107.367 97.041L107.983 95.8213L120.94 87.8933ZM121.556 83.9293L108.909 93.6869L109.526 92.4672C109.217 92.4672 115.078 87.8933 121.556 83.9293ZM121.865 80.5751L110.451 89.4179L111.068 88.1982L121.865 80.5751ZM120.94 77.5259L112.302 84.8441L112.919 83.6243C112.919 83.6243 116.312 80.5751 120.94 77.5259ZM122.482 73.5618L113.845 80.88L114.462 79.6603C114.462 79.3554 118.163 76.3062 122.482 73.5618ZM122.482 68.988C122.482 68.988 117.238 73.5618 116.004 75.6963L116.621 74.4766C116.621 74.1717 118.78 71.7323 122.482 68.988ZM123.099 65.6338L117.546 71.1224L118.163 69.9027C118.163 69.9027 119.089 68.683 123.099 65.6338Z" fill="#2BA937"/>
<path d="M106.133 120.825L153.638 69.293C153.638 69.293 144.384 99.4805 134.513 108.323C134.513 108.323 129.268 113.812 118.78 115.642C118.78 115.642 111.994 116.251 106.133 120.825Z" fill="url(#paint1_linear_656_79706)"/>
<path d="M127.109 111.678C127.109 111.678 113.228 113.812 111.377 115.032L112.302 114.117L127.109 111.678ZM129.885 108.933C129.885 108.933 116.004 111.068 114.153 112.288L115.079 111.373L129.885 108.933ZM133.279 105.274C133.279 105.274 119.397 107.409 117.546 108.628L118.472 107.714L133.279 105.274ZM136.672 101.31C136.672 101.31 122.79 103.75 120.631 104.969L121.557 104.055C121.557 104.36 132.045 101.92 136.672 101.31ZM138.523 97.9561L123.099 102.53L124.024 101.615L138.523 97.9561ZM140.374 94.9069L126.492 99.1758L127.418 98.261C127.418 97.9561 135.13 95.8216 140.374 94.9069ZM140.374 91.8576C140.374 91.8576 131.736 94.297 129.577 95.5167L130.502 94.602C130.502 94.602 135.13 92.7724 140.374 91.8576ZM143.458 88.5035C143.458 88.5035 134.821 90.9429 132.662 92.1626L133.587 91.2478C133.587 91.2478 138.523 89.4182 143.458 88.5035ZM145.001 84.2345L136.363 87.8936L137.289 86.9788C137.597 86.9788 140.682 85.4542 145.001 84.2345ZM146.852 81.1853C146.852 81.1853 141.608 83.3197 139.757 84.5394L140.682 83.6247C140.682 83.6247 141.916 83.0148 146.852 81.1853ZM124.95 60.7553L119.397 66.2439L120.014 65.0242C120.014 65.0242 120.94 64.4144 124.95 60.7553ZM124.333 57.7061C124.333 57.7061 123.099 59.5356 121.557 61.3652L122.174 60.1455C122.174 59.8405 123.407 58.6208 124.333 57.7061Z" fill="#2BA937"/>
<path d="M91.0173 116.252V46.4238C91.0173 46.4238 104.59 74.7818 103.356 88.1985C103.356 88.1985 103.048 95.8216 96.8784 104.055C96.8784 104.055 92.2512 108.933 91.0173 116.252Z" fill="url(#paint2_linear_656_79706)"/>
<path d="M100.272 95.5161C100.272 95.5161 91.6343 106.188 91.0173 108.628V107.408C91.0173 107.103 97.1869 98.8703 100.272 95.5161ZM100.272 91.5521C100.272 91.5521 91.6343 102.224 91.0173 104.664V103.444C91.0173 103.139 97.1869 94.9063 100.272 91.5521ZM100.272 86.6733C100.272 86.6733 91.6343 97.3457 91.0173 99.7851V98.5654L100.272 86.6733ZM100.272 81.7945L91.0173 95.2112V93.9915C91.0173 93.6866 97.1869 84.8437 100.272 81.7945ZM99.3462 77.8305C99.3462 77.8305 91.6343 89.1127 91.0173 91.5521V90.3324C91.0173 90.0275 95.0275 83.624 99.3462 77.8305ZM98.4208 74.4763L91.0173 86.6733V85.4536L98.4208 74.4763ZM96.5699 72.0369L91.0173 81.7945V80.5748C91.0173 80.5748 93.4852 76.3059 96.5699 72.0369ZM96.5699 67.463L91.0173 77.2206V76.0009C91.0173 76.0009 93.4852 71.732 96.5699 67.463ZM94.7191 63.499C94.7191 63.499 91.6343 69.5975 91.0173 72.0369V70.8172C91.0173 70.5123 92.2512 67.1581 94.7191 63.499ZM94.1021 59.8399C94.1021 59.8399 91.6343 64.7187 91.0173 67.1581V65.9384C91.0173 65.9384 91.6343 64.4138 94.1021 59.8399ZM94.1021 54.6562C94.1021 54.6562 91.6343 59.535 91.0173 61.9744V60.7547C91.0173 60.7547 91.6343 59.8399 94.1021 54.6562ZM92.2512 52.2168L91.0173 56.4857V55.266C91.0173 54.9611 91.9428 53.4365 92.2512 52.2168Z" fill="#2BA937"/>
<path d="M82.38 116.86L57.0849 51.9111C57.0849 51.9111 54.6171 83.3184 60.7866 95.2105C60.7866 95.2105 63.5629 102.224 72.8172 107.712C72.5087 107.407 78.6783 110.762 82.38 116.86Z" fill="url(#paint3_linear_656_79706)"/>
<path d="M66.0305 101.005L79.6035 109.848L78.9865 108.628C78.9865 108.628 70.3492 102.835 66.0305 101.005ZM64.7966 97.346L78.3696 106.189L77.7526 104.664L64.7966 97.346ZM62.9457 92.7721L76.5187 101.615L75.9018 100.395L62.9457 92.7721ZM61.4034 87.8933L74.9764 97.041L74.3594 95.8213C74.0509 95.8213 65.4136 90.0278 61.4034 87.8933ZM60.4779 83.9293C60.4779 83.9293 71.8916 91.8573 73.1255 93.6869L72.5085 92.4672C72.817 92.4672 66.9559 87.8933 60.4779 83.9293ZM60.1695 80.5751L71.5831 89.4179L70.9661 88.1982C71.2746 88.1982 64.7966 83.3194 60.1695 80.5751ZM61.4034 77.5259L70.0407 84.8441L69.4238 83.6243L61.4034 77.5259ZM59.5525 73.5618L68.1899 80.88L67.5729 79.6603C67.8814 79.3554 63.8712 76.3062 59.5525 73.5618ZM59.5525 68.988C59.5525 68.988 64.7966 73.5618 66.0305 75.6963L65.4136 74.4766C65.722 74.1717 63.5627 71.7323 59.5525 68.988ZM58.9355 65.6338L64.4881 71.1224L63.8712 69.9027C64.1797 69.9027 62.9457 68.683 58.9355 65.6338Z" fill="#2BA937"/>
<path d="M75.9019 120.825L28.3965 69.293C28.3965 69.293 37.6508 99.4805 47.5221 108.323C47.5221 108.323 52.7662 113.812 63.2544 115.642C63.2544 115.642 70.0409 116.251 75.9019 120.825Z" fill="url(#paint4_linear_656_79706)"/>
<path d="M54.9254 111.678C54.9254 111.678 68.8068 113.812 70.6577 115.032L69.7323 114.117L54.9254 111.678ZM52.1491 108.933C52.1491 108.933 66.0306 111.068 67.8814 112.288L66.956 111.373L52.1491 108.933ZM49.0643 105.274C49.0643 105.274 62.9458 107.409 64.7966 108.628L63.8712 107.714L49.0643 105.274ZM45.6711 101.31C45.6711 101.31 59.5525 103.75 61.7119 104.969L60.478 104.36L45.6711 101.31ZM43.5117 97.9561L58.9356 102.53L58.0102 101.615L43.5117 97.9561ZM41.9694 94.9069L55.8508 99.1758L54.9254 98.261C54.9254 97.9561 47.2135 95.8216 41.9694 94.9069ZM41.9694 91.8576C41.9694 91.8576 50.6067 94.297 52.766 95.5167L51.8406 94.602C51.5321 94.602 47.2135 92.7724 41.9694 91.8576ZM38.8846 88.5035C38.8846 88.5035 47.5219 90.9429 49.6813 92.1626L48.7558 91.2478C48.4474 91.2478 43.8202 89.4182 38.8846 88.5035ZM37.0337 84.2345L45.6711 87.8936L44.7456 86.9788C44.7456 86.9788 41.6609 85.4542 37.0337 84.2345ZM35.1829 81.1853C35.1829 81.1853 40.427 83.3197 42.2778 84.5394L41.3524 83.6247C41.6609 83.6247 40.1185 83.0148 35.1829 81.1853ZM57.0847 60.7553L62.6373 66.2439L62.0204 65.0242C62.0204 65.0242 61.0949 64.4144 57.0847 60.7553ZM58.0102 57.7061C58.8769 58.9682 59.8033 60.1893 60.7864 61.3652L60.1695 60.1455C60.1695 59.8405 58.6271 58.6208 58.0102 57.7061Z" fill="#2BA937"/>
<path d="M91.0173 116.252V46.4238C91.0173 46.4238 77.4443 74.7818 78.6782 88.1985C78.6782 88.1985 78.9867 95.8216 85.1562 104.055C85.4647 104.055 89.7834 108.933 91.0173 116.252Z" fill="url(#paint5_linear_656_79706)"/>
<path d="M81.7629 95.5161C81.7629 95.5161 90.4003 106.188 91.0172 108.628V107.408C91.0172 107.103 84.8477 98.8703 81.7629 95.5161ZM81.7629 91.5521C81.7629 91.5521 90.4003 102.224 91.0172 104.664V103.444C91.0172 103.139 84.8477 94.9063 81.7629 91.5521ZM81.7629 86.6733C81.7629 86.6733 90.4003 97.3457 91.0172 99.7851V98.5654L81.7629 86.6733ZM82.0714 81.7945L91.3257 95.2112V93.9915C91.0172 93.6866 85.1562 84.8437 82.0714 81.7945ZM82.6884 77.8305C82.6884 77.8305 90.4003 89.1127 91.0172 91.5521V90.3324C91.0172 90.0275 87.3155 83.624 82.6884 77.8305ZM83.6138 74.4763L91.0172 86.6733V85.4536C91.0172 85.4536 87.007 78.4403 83.6138 74.4763ZM85.7731 72.0369L91.3257 81.7945V80.5748C91.0172 80.5748 88.8579 76.3058 85.7731 72.0369ZM85.7731 67.463L91.3257 77.2206V76.0009C91.0172 76.0009 88.8579 71.732 85.7731 67.463ZM87.3155 63.499C87.3155 63.499 90.4003 69.5975 91.0172 72.0369V70.8172C91.0172 70.5123 89.7833 67.1581 87.3155 63.499ZM87.9325 59.8399C87.9325 59.8399 90.4003 64.7187 91.0172 67.1581V65.9384C91.0172 65.9384 90.7088 64.4138 87.9325 59.8399ZM87.9325 54.6562C87.9325 54.6562 90.4003 59.535 91.0172 61.9744V60.7547C91.0172 60.7547 90.4003 59.8399 87.9325 54.6562ZM89.7833 52.2168L91.0172 56.4857V55.266C91.0172 54.9611 90.0918 53.4365 89.7833 52.2168Z" fill="#2BA937"/>
</g>
<mask id="mask1_656_79706" style="mask-type:alpha" maskUnits="userSpaceOnUse" x="1" y="0" width="211" height="163">
<path d="M136.294 18.6747L1.15356 162.911H136.727L211.154 0.5H178.228C170.918 0.5 163.674 1.89495 156.886 4.61003C149.076 7.73439 142.046 12.5356 136.294 18.6747Z" fill="#1C325C"/>
</mask>
<g mask="url(#mask1_656_79706)">
<g style="mix-blend-mode:plus-lighter" filter="url(#filter0_f_656_79706)">
<line x1="123.701" y1="175.287" x2="204.701" y2="3.28697" stroke="url(#paint6_linear_656_79706)"/>
</g>
<g style="mix-blend-mode:plus-lighter" filter="url(#filter1_f_656_79706)">
<line x1="0.0548347" y1="169.479" x2="158.055" y2="-0.521175" stroke="url(#paint7_linear_656_79706)" stroke-width="3"/>
</g>
<rect x="-32.9363" y="132.978" width="283.576" height="89" transform="rotate(-47.4383 -32.9363 132.978)" fill="url(#paint8_linear_656_79706)"/>
<path d="M209.154 10.5H193.712L163.67 70.0579M152.742 162.5L125.154 146.414L163.67 70.0579M163.67 70.0579H188.668" stroke="black" stroke-opacity="0.2" stroke-width="2"/>
<path d="M209.654 11.5H194.654L165.654 68.8M189.954 71.3H164.454L126.654 146" stroke="white" stroke-opacity="0.2" stroke-width="0.5"/>
<path d="M123.654 147L146.654 160.5" stroke="white" stroke-opacity="0.21" stroke-width="0.5" style="mix-blend-mode:overlay"/>
</g>
<defs>
<filter id="filter0_f_656_79706" x="117.249" y="-2.92578" width="93.9047" height="184.426" filterUnits="userSpaceOnUse" color-interpolation-filters="sRGB">
<feFlood flood-opacity="0" result="BackgroundImageFix"/>
<feBlend mode="normal" in="SourceGraphic" in2="BackgroundImageFix" result="shape"/>
<feGaussianBlur stdDeviation="3" result="effect1_foregroundBlur_656_79706"/>
</filter>
<filter id="filter1_f_656_79706" x="-12.0439" y="-12.542" width="182.198" height="194.042" filterUnits="userSpaceOnUse" color-interpolation-filters="sRGB">
<feFlood flood-opacity="0" result="BackgroundImageFix"/>
<feBlend mode="normal" in="SourceGraphic" in2="BackgroundImageFix" result="shape"/>
<feGaussianBlur stdDeviation="5.5" result="effect1_foregroundBlur_656_79706"/>
</filter>
<linearGradient id="paint0_linear_656_79706" x1="111.846" y1="84.1429" x2="124.102" y2="88.6555" gradientUnits="userSpaceOnUse">
<stop offset="0.25" stop-color="#55B031"/>
<stop offset="1" stop-color="#C5D300"/>
</linearGradient>
<linearGradient id="paint1_linear_656_79706" x1="129.512" y1="94.6505" x2="139.247" y2="103.282" gradientUnits="userSpaceOnUse">
<stop offset="0.25" stop-color="#55B031"/>
<stop offset="1" stop-color="#C5D300"/>
</linearGradient>
<linearGradient id="paint2_linear_656_79706" x1="90.3911" y1="81.3438" x2="103.47" y2="81.0879" gradientUnits="userSpaceOnUse">
<stop offset="0.25" stop-color="#55B031"/>
<stop offset="1" stop-color="#C5D300"/>
</linearGradient>
<linearGradient id="paint3_linear_656_79706" x1="70.3371" y1="84.1417" x2="58.0809" y2="88.6543" gradientUnits="userSpaceOnUse">
<stop offset="0.25" stop-color="#55B031"/>
<stop offset="1" stop-color="#C5D300"/>
</linearGradient>
<linearGradient id="paint4_linear_656_79706" x1="52.6736" y1="94.6505" x2="42.9385" y2="103.282" gradientUnits="userSpaceOnUse">
<stop offset="0.25" stop-color="#55B031"/>
<stop offset="1" stop-color="#C5D300"/>
</linearGradient>
<linearGradient id="paint5_linear_656_79706" x1="91.7946" y1="81.3438" x2="78.7184" y2="81.091" gradientUnits="userSpaceOnUse">
<stop offset="0.25" stop-color="#55B031"/>
<stop offset="1" stop-color="#C5D300"/>
</linearGradient>
<linearGradient id="paint6_linear_656_79706" x1="205.606" y1="3.71302" x2="143.837" y2="149.682" gradientUnits="userSpaceOnUse">
<stop stop-color="white" stop-opacity="0"/>
<stop offset="1" stop-color="white"/>
</linearGradient>
<linearGradient id="paint7_linear_656_79706" x1="159.52" y1="0.840385" x2="34.8829" y2="148.74" gradientUnits="userSpaceOnUse">
<stop stop-color="white" stop-opacity="0"/>
<stop offset="1" stop-color="white"/>
</linearGradient>
<linearGradient id="paint8_linear_656_79706" x1="133.083" y1="221.978" x2="133.957" y2="126.389" gradientUnits="userSpaceOnUse">
<stop stop-color="white" stop-opacity="0"/>
<stop offset="1" stop-color="white" stop-opacity="0.5"/>
</linearGradient>
</defs>
</svg>
