<svg width="212" height="164" viewBox="0 0 212 164" fill="none" xmlns="http://www.w3.org/2000/svg">
<path d="M136.295 18.6747L1.1543 162.911H136.727L211.154 0.5H178.229C170.918 0.5 163.675 1.89495 156.887 4.61003C149.076 7.73439 142.047 12.5356 136.295 18.6747Z" fill="#FFB400"/>
<path d="M1.1543 162.911L136.295 18.6746C142.047 12.5356 149.076 7.73439 156.887 4.61003C163.675 1.89496 170.918 0.5 178.229 0.5H211.154M1.1543 162.911H136.727L211.154 0.5M1.1543 162.911L136.295 18.6747C142.047 12.5356 149.076 7.73439 156.887 4.61003C163.675 1.89495 170.918 0.5 178.229 0.5H211.154" stroke="#C2C2C2" stroke-opacity="0.4"/>
<mask id="mask0_664_106234" style="mask-type:alpha" maskUnits="userSpaceOnUse" x="1" y="0" width="211" height="163">
<path d="M136.295 18.6747L1.1543 162.911H136.727L211.154 0.5H178.229C170.918 0.5 163.675 1.89495 156.887 4.61003C149.076 7.73439 142.047 12.5356 136.295 18.6747Z" fill="#1C325C"/>
</mask>
<g mask="url(#mask0_664_106234)">
<path d="M183.333 44.2073L126.654 161.5L124.757 164.693C113.223 184.103 92.3156 196 69.7373 196H51.4715C43.9848 196 36.5561 194.686 29.5234 192.119L-30.9025 170.059C-60.4386 159.276 -74.3885 125.499 -61.0693 97.0166C-56.0612 86.307 -47.6522 77.554 -37.1518 72.1208L100.988 0.643442C121.34 -9.887 145.352 -10.6927 166.363 -1.55022C183.986 6.11756 191.694 26.9033 183.333 44.2073Z" fill="#006B92"/>
<path d="M79.6816 147.234L64.7311 133.672C62.8692 131.983 61.7646 129.612 61.6602 127.082C61.5557 124.551 62.4601 122.068 64.1743 120.178L65.6835 118.515L69.1062 121.62L67.5952 123.285C66.717 124.254 66.2537 125.526 66.3072 126.823C66.3607 128.119 66.9267 129.334 67.8806 130.2L72.0804 134.01L76.8995 128.698L80.3197 131.8L75.5005 137.113L82.8286 143.761L79.6816 147.234Z" fill="white"/>
<path d="M71.3252 112.295L86.277 125.859C87.2312 126.724 88.4953 127.17 89.7912 127.097C91.0871 127.024 92.3087 126.44 93.1872 125.471L94.696 123.808L98.1171 126.912L96.6083 128.575C94.894 130.464 92.5102 131.606 89.9814 131.747C87.4525 131.889 84.9858 131.02 83.1237 129.331L68.1738 115.768L71.3252 112.295Z" fill="white"/>
<path d="M80.2797 102.424L88.5937 109.966C94.738 115.741 103.584 106.332 97.4487 100.566L88.9548 92.8608L92.0912 89.4036L105.329 101.413C106.476 102.453 107.404 103.712 108.062 105.116C108.719 106.521 109.092 108.045 109.159 109.6C109.227 111.155 108.987 112.712 108.455 114.181C107.922 115.649 107.107 117.002 106.055 118.161L101.178 123.537L97.7571 120.433C97.7571 120.433 101.524 116.493 102.634 115.057C107.483 108.781 102.817 104.412 101.171 102.51C102.276 103.994 102.862 105.804 102.84 107.664C102.819 109.524 102.191 111.332 101.051 112.814C97.2494 117.623 89.8752 117.546 85.4438 113.411L77.1433 105.881L80.2797 102.424Z" fill="white"/>
<path d="M118.438 79.2614C123.048 83.4438 125.084 87.7933 125.233 91.7099C125.32 93.3157 125.082 94.9247 124.534 96.4409C123.987 97.9571 123.14 99.3495 122.046 100.535C119.607 103.223 117.694 103.991 116.596 104.326L113.228 101.27C115.254 100.705 117.077 99.5654 118.478 97.9903C119.947 96.4097 120.742 94.3194 120.691 92.169C120.6 89.5296 119.303 86.7024 116.906 84.1555C117.382 85.1005 117.629 86.1454 117.628 87.2066C117.578 89.4154 116.712 91.533 115.198 93.1506C114.314 94.1645 113.23 94.9853 112.016 95.5613C110.801 96.1372 109.482 96.4558 108.143 96.4969C105.683 96.5334 103.31 95.6204 101.516 93.9475C100.446 93.0112 99.5767 91.8677 98.9595 90.5851C98.3424 89.3026 97.9901 87.9071 97.9237 86.4818C97.8696 85.0371 98.1057 83.5941 98.6179 82.2383C99.1301 80.8826 99.9081 79.6415 100.906 78.5884C102.593 76.6839 104.911 75.4549 107.427 75.1314C110.801 74.6772 114.666 75.8397 118.438 79.2614ZM112.92 80.913C112.331 80.3276 111.628 79.8708 110.853 79.5712C110.078 79.2716 109.249 79.1356 108.417 79.1716C106.707 79.4337 105.146 80.3073 104.023 81.6301C102.901 82.953 102.294 84.6352 102.314 86.3644C102.451 87.8533 103.15 89.2303 104.269 90.2152C105.386 91.2748 106.863 91.8731 108.407 91.8918C109.268 91.8461 110.111 91.6182 110.88 91.223C111.648 90.8279 112.326 90.2745 112.867 89.5995C114.088 88.3375 114.779 86.6568 114.797 84.9064C114.765 84.1475 114.583 83.4034 114.261 82.7177C113.938 82.032 113.483 81.4189 112.92 80.913Z" fill="white"/>
<path d="M136.51 78.4372L117.602 61.2835L113.756 72.0112L117.184 75.1205L119.232 69.2199L133.297 81.9792L129.436 86.2354L132.498 89.0133L143.46 76.9294L140.398 74.1515L136.51 78.4372Z" fill="white"/>
</g>
<mask id="mask1_664_106234" style="mask-type:alpha" maskUnits="userSpaceOnUse" x="1" y="0" width="211" height="163">
<path d="M136.295 18.6747L1.1543 162.911H136.727L211.154 0.5H178.229C170.918 0.5 163.675 1.89495 156.887 4.61003C149.076 7.73439 142.047 12.5356 136.295 18.6747Z" fill="#1C325C"/>
</mask>
<g mask="url(#mask1_664_106234)">
<g style="mix-blend-mode:plus-lighter" filter="url(#filter0_f_664_106234)">
<line x1="123.702" y1="175.287" x2="204.702" y2="3.28697" stroke="url(#paint0_linear_664_106234)"/>
</g>
<g style="mix-blend-mode:plus-lighter" filter="url(#filter1_f_664_106234)">
<line x1="0.0555671" y1="169.479" x2="158.056" y2="-0.521175" stroke="url(#paint1_linear_664_106234)" stroke-width="3"/>
</g>
<rect x="-32.9355" y="132.977" width="283.576" height="89" transform="rotate(-47.4383 -32.9355 132.977)" fill="url(#paint2_linear_664_106234)"/>
<path d="M209.154 10.5H193.713L163.67 70.0579M152.743 162.5L125.154 146.414L163.67 70.0579M163.67 70.0579H188.669" stroke="black" stroke-opacity="0.2" stroke-width="2"/>
<path d="M209.654 11.5H194.654L165.654 68.8M189.955 71.3H164.455L126.654 146" stroke="white" stroke-opacity="0.2" stroke-width="0.5"/>
<path d="M123.654 147L146.654 160.5" stroke="white" stroke-opacity="0.21" stroke-width="0.5" style="mix-blend-mode:overlay"/>
</g>
<defs>
<filter id="filter0_f_664_106234" x="117.25" y="-2.92603" width="93.9043" height="184.426" filterUnits="userSpaceOnUse" color-interpolation-filters="sRGB">
<feFlood flood-opacity="0" result="BackgroundImageFix"/>
<feBlend mode="normal" in="SourceGraphic" in2="BackgroundImageFix" result="shape"/>
<feGaussianBlur stdDeviation="3" result="effect1_foregroundBlur_664_106234"/>
</filter>
<filter id="filter1_f_664_106234" x="-12.043" y="-12.5424" width="182.197" height="194.042" filterUnits="userSpaceOnUse" color-interpolation-filters="sRGB">
<feFlood flood-opacity="0" result="BackgroundImageFix"/>
<feBlend mode="normal" in="SourceGraphic" in2="BackgroundImageFix" result="shape"/>
<feGaussianBlur stdDeviation="5.5" result="effect1_foregroundBlur_664_106234"/>
</filter>
<linearGradient id="paint0_linear_664_106234" x1="205.607" y1="3.71302" x2="143.838" y2="149.682" gradientUnits="userSpaceOnUse">
<stop stop-color="white" stop-opacity="0"/>
<stop offset="1" stop-color="white"/>
</linearGradient>
<linearGradient id="paint1_linear_664_106234" x1="159.521" y1="0.840385" x2="34.8837" y2="148.74" gradientUnits="userSpaceOnUse">
<stop stop-color="white" stop-opacity="0"/>
<stop offset="1" stop-color="white"/>
</linearGradient>
<linearGradient id="paint2_linear_664_106234" x1="133.084" y1="221.977" x2="133.958" y2="126.389" gradientUnits="userSpaceOnUse">
<stop stop-color="white" stop-opacity="0"/>
<stop offset="1" stop-color="white" stop-opacity="0.5"/>
</linearGradient>
</defs>
</svg>
