<svg width="210" height="163" viewBox="0 0 210 163" fill="none" xmlns="http://www.w3.org/2000/svg">
<path d="M135.14 18.1747L0 162.411H135.573L210 0H177.075C169.764 0 162.521 1.39495 155.733 4.11003C147.922 7.23439 140.892 12.0356 135.14 18.1747Z" fill="#ED1C2E"/>
<mask id="mask0_1512_96888" style="mask-type:alpha" maskUnits="userSpaceOnUse" x="0" y="0" width="210" height="163">
<path d="M135.14 18.1747L0 162.411H135.573L210 0H177.075C169.764 0 162.521 1.39495 155.733 4.11003C147.922 7.23439 140.892 12.0356 135.14 18.1747Z" fill="#1C325C"/>
</mask>
<g mask="url(#mask0_1512_96888)">
<path d="M134.277 46.5153L204.221 38.5883C204.722 38.5315 205.226 38.666 205.632 38.9647L228.898 56.0852C230.094 56.9656 231.797 56.2915 232.051 54.8278C235.514 34.8275 241.5 -0.467823 241.5 -3.5V-24.7533C241.5 -25.7553 240.758 -26.5992 239.765 -26.7321L171.546 -35.8601C170.891 -35.9476 170.236 -35.7065 169.794 -35.2156L120.137 19.9594C118.892 21.3421 120.044 23.5262 121.888 23.2797L207.735 11.8028C208.934 11.6425 210 12.5753 210 13.7852V22.2156C210 23.2323 209.237 24.0872 208.227 24.2026L140.922 31.8946C140.337 31.9614 139.812 32.2825 139.485 32.7723L132.388 43.4186C131.444 44.8343 132.586 46.7069 134.277 46.5153Z" fill="url(#paint0_linear_1512_96888)"/>
</g>
<mask id="mask1_1512_96888" style="mask-type:alpha" maskUnits="userSpaceOnUse" x="0" y="0" width="210" height="163">
<path d="M135.14 18.1747L0 162.411H135.573L210 0H177.075C169.764 0 162.521 1.39495 155.733 4.11003C147.922 7.23439 140.892 12.0356 135.14 18.1747Z" fill="#1C325C"/>
</mask>
<g mask="url(#mask1_1512_96888)">
<g filter="url(#filter0_f_1512_96888)" style="mix-blend-mode:plus-lighter">
<line x1="122.548" y1="174.787" x2="203.548" y2="2.78697" stroke="url(#paint1_linear_1512_96888)"/>
</g>
<g filter="url(#filter1_f_1512_96888)" style="mix-blend-mode:plus-lighter">
<line x1="-1.09873" y1="168.979" x2="156.901" y2="-1.02118" stroke="url(#paint2_linear_1512_96888)" stroke-width="3"/>
</g>
<rect x="-34.0898" y="132.478" width="283.576" height="89" transform="rotate(-47.4383 -34.0898 132.478)" fill="url(#paint3_linear_1512_96888)"/>
<path d="M208 10H192.559L162.516 69.5579M151.588 162L124 145.914L162.516 69.5579M162.516 69.5579H187.515" stroke="black" stroke-opacity="0.2" stroke-width="2"/>
<path d="M208.5 11H193.5L164.5 68.3M188.801 70.8H163.301L125.5 145.5" stroke="white" stroke-opacity="0.2" stroke-width="0.5"/>
<path d="M122.5 146.5L145.5 160" stroke="white" stroke-opacity="0.21" style="mix-blend-mode:overlay" stroke-width="0.5"/>
</g>
<defs>
<filter id="filter0_f_1512_96888" x="116.094" y="-3.42627" width="93.9062" height="184.426" filterUnits="userSpaceOnUse" color-interpolation-filters="sRGB">
<feFlood flood-opacity="0" result="BackgroundImageFix"/>
<feBlend mode="normal" in="SourceGraphic" in2="BackgroundImageFix" result="shape"/>
<feGaussianBlur stdDeviation="3" result="effect1_foregroundBlur_1512_96888"/>
</filter>
<filter id="filter1_f_1512_96888" x="-13.1992" y="-13.0425" width="182.199" height="194.042" filterUnits="userSpaceOnUse" color-interpolation-filters="sRGB">
<feFlood flood-opacity="0" result="BackgroundImageFix"/>
<feBlend mode="normal" in="SourceGraphic" in2="BackgroundImageFix" result="shape"/>
<feGaussianBlur stdDeviation="5.5" result="effect1_foregroundBlur_1512_96888"/>
</filter>
<linearGradient id="paint0_linear_1512_96888" x1="116.5" y1="11" x2="241.5" y2="11" gradientUnits="userSpaceOnUse">
<stop stop-color="#DBC17C"/>
<stop offset="1" stop-color="#756742"/>
</linearGradient>
<linearGradient id="paint1_linear_1512_96888" x1="204.452" y1="3.21302" x2="142.683" y2="149.182" gradientUnits="userSpaceOnUse">
<stop stop-color="white" stop-opacity="0"/>
<stop offset="1" stop-color="white"/>
</linearGradient>
<linearGradient id="paint2_linear_1512_96888" x1="158.366" y1="0.340385" x2="33.7294" y2="148.24" gradientUnits="userSpaceOnUse">
<stop stop-color="white" stop-opacity="0"/>
<stop offset="1" stop-color="white"/>
</linearGradient>
<linearGradient id="paint3_linear_1512_96888" x1="131.93" y1="221.478" x2="132.804" y2="125.889" gradientUnits="userSpaceOnUse">
<stop stop-color="white" stop-opacity="0"/>
<stop offset="1" stop-color="white" stop-opacity="0.5"/>
</linearGradient>
</defs>
</svg>
