<svg width="212" height="164" viewBox="0 0 212 164" fill="none" xmlns="http://www.w3.org/2000/svg">
<path d="M136.294 18.6747L1.15381 162.911H136.727L211.154 0.5H178.228C170.918 0.5 163.674 1.89495 156.887 4.61003C149.076 7.73439 142.046 12.5356 136.294 18.6747Z" fill="white"/>
<path d="M1.15381 162.911L136.294 18.6746C142.046 12.5356 149.076 7.73439 156.887 4.61003C163.674 1.89496 170.918 0.5 178.228 0.5H211.154M1.15381 162.911H136.727L211.154 0.5M1.15381 162.911L136.294 18.6747C142.046 12.5356 149.076 7.73439 156.887 4.61003C163.674 1.89495 170.918 0.5 178.228 0.5H211.154" stroke="#C2C2C2" stroke-opacity="0.4"/>
<mask id="mask0_664_97573" style="mask-type:alpha" maskUnits="userSpaceOnUse" x="1" y="0" width="211" height="163">
<path d="M136.294 18.6747L1.15381 162.911H136.727L211.154 0.5H178.228C170.918 0.5 163.674 1.89495 156.887 4.61003C149.076 7.73439 142.046 12.5356 136.294 18.6747Z" fill="#1C325C"/>
</mask>
<g mask="url(#mask0_664_97573)">
<mask id="path-4-outside-1_664_97573" maskUnits="userSpaceOnUse" x="78.1538" y="81.5" width="84" height="67" fill="black">
<rect fill="white" x="78.1538" y="81.5" width="84" height="67"/>
<path d="M101.758 110.083C99.6813 111.368 97.2567 112.314 94.484 112.922C94.3762 112.947 94.2823 113.008 94.2022 113.105C94.082 113.25 93.988 113.326 93.9203 113.336C93.8906 113.339 93.8607 113.333 93.8348 113.318C93.8088 113.303 93.788 113.281 93.7752 113.253C93.7625 113.226 93.7585 113.195 93.7638 113.165C93.7691 113.135 93.7834 113.108 93.8047 113.087C93.9187 112.974 94.0019 112.87 94.0543 112.776C94.1375 112.626 94.0989 112.469 93.9387 112.306C93.8432 112.212 93.2918 111.62 92.2844 110.529C92.2061 110.445 92.1475 110.343 92.1129 110.232C92.0783 110.122 92.0687 110.004 92.0846 109.889C92.1006 109.774 92.1418 109.664 92.2052 109.567C92.2685 109.471 92.3525 109.39 92.4507 109.33C97.4878 106.275 103.375 100.445 98.6847 94.1499C95.9582 90.4923 90.9304 88.7388 86.6281 88.8187C85.8147 88.8344 84.8258 89.2982 83.6613 90.2103C83.5904 90.2636 83.555 90.3074 83.555 90.3419C83.555 90.4077 83.5796 90.4673 83.6289 90.5206L86.1937 90.4359C86.2721 90.4329 86.3486 90.4594 86.4078 90.51C86.467 90.5606 86.5044 90.6316 86.5125 90.7086V90.718C86.5212 90.799 86.4999 90.8804 86.453 90.9464C86.406 91.0124 86.3367 91.0583 86.2584 91.0753C84.2574 91.5172 84.0079 94.2346 83.5873 95.9646C85.5282 95.7264 87.3474 95.1278 89.0449 94.1687C90.0801 93.5827 90.8225 93.2833 91.2723 93.2708C93.9341 93.2003 97.0765 94.07 96.4619 97.5866C95.9443 100.553 92.7604 103.007 90.1771 104.291C88.5782 105.085 86.8453 105.395 84.8813 105.88C82.0254 106.585 80.6899 108.691 80.1538 111.498C80.4896 113.563 80.8223 115.679 81.152 117.844C81.5895 120.759 81.9884 122.854 82.3489 124.13C83.6982 128.91 85.9842 133.144 89.2067 136.833C92.4538 140.55 95.7949 144.021 99.23 147.246C99.4023 147.409 99.6269 147.5 99.8585 147.5H118.436C118.463 147.5 118.49 147.492 118.512 147.476C118.535 147.46 118.552 147.437 118.562 147.411C118.571 147.385 118.573 147.357 118.566 147.33C118.559 147.303 118.544 147.278 118.523 147.26C117.26 146.101 116.239 145.19 115.46 144.529C112.553 142.056 110.58 139.451 108.662 136.236C108.641 136.201 108.613 136.172 108.581 136.149C108.548 136.127 108.51 136.112 108.471 136.106C108.432 136.1 108.392 136.102 108.354 136.113C108.316 136.124 108.28 136.144 108.25 136.17L106.98 137.247C106.946 137.276 106.907 137.298 106.865 137.311C106.822 137.324 106.778 137.329 106.733 137.325C106.689 137.32 106.646 137.307 106.606 137.286C106.567 137.264 106.532 137.235 106.504 137.2L106.481 137.167C106.454 137.133 106.435 137.093 106.424 137.052C106.413 137.01 106.411 136.966 106.418 136.923C106.424 136.88 106.439 136.839 106.462 136.803C106.485 136.766 106.515 136.735 106.55 136.711C108.013 135.701 108.907 134.275 109.23 132.432C109.244 132.347 109.287 132.268 109.352 132.211C109.417 132.153 109.5 132.12 109.586 132.117C111.998 132.045 113.754 131.754 114.854 131.243C115.968 130.726 115.949 129.268 116.028 127.957C116.033 127.88 116.066 127.808 116.118 127.754C116.171 127.7 116.241 127.669 116.314 127.665C120.242 127.463 123.584 124.732 125.233 121.22C125.248 121.185 125.252 121.147 125.246 121.11C125.239 121.073 125.222 121.039 125.196 121.013C125.17 120.986 125.137 120.968 125.101 120.96C125.065 120.953 125.027 120.956 124.993 120.971L122.724 122.01C122.721 122.011 122.718 122.012 122.714 122.012C122.711 122.012 122.708 122.012 122.705 122.01C122.702 122.009 122.699 122.007 122.697 122.004C122.694 122.002 122.693 121.999 122.692 121.996L122.641 121.864C122.631 121.841 122.631 121.815 122.639 121.791C122.648 121.768 122.665 121.748 122.687 121.737C125.91 120.167 128.616 117.913 130.806 114.977C131.296 114.322 131.712 113.56 132.054 112.692C132.063 112.67 132.066 112.646 132.063 112.622C132.061 112.599 132.052 112.576 132.038 112.557C132.024 112.538 132.005 112.523 131.984 112.514C131.962 112.505 131.939 112.501 131.915 112.504L128.209 112.847C128.176 112.851 128.143 112.843 128.114 112.826C128.086 112.809 128.064 112.784 128.052 112.753L128.006 112.631C128 112.616 127.998 112.6 127.999 112.584C128 112.568 128.005 112.553 128.013 112.539C128.021 112.526 128.032 112.514 128.046 112.505C128.059 112.497 128.074 112.491 128.089 112.49C130.883 112.179 133.105 111.61 134.753 110.783C135.902 110.206 137.653 109.011 140.007 107.196C140.037 107.173 140.061 107.143 140.078 107.109C140.094 107.074 140.102 107.037 140.101 106.998C140.1 106.96 140.091 106.923 140.073 106.889C140.055 106.856 140.029 106.827 139.998 106.806L139.277 106.307C139.234 106.278 139.199 106.237 139.178 106.188C139.156 106.14 139.147 106.087 139.153 106.034C139.159 105.981 139.178 105.931 139.21 105.889C139.242 105.847 139.284 105.814 139.332 105.795L144.929 103.505C144.96 103.493 144.986 103.472 145.006 103.446C145.026 103.419 145.039 103.387 145.042 103.353C145.045 103.32 145.04 103.286 145.025 103.256C145.011 103.225 144.989 103.199 144.961 103.181L144.402 102.791C144.322 102.735 144.261 102.655 144.227 102.563C144.193 102.471 144.188 102.37 144.211 102.275C144.235 102.179 144.287 102.093 144.359 102.029C144.432 101.964 144.523 101.923 144.619 101.912C147.151 101.633 149.43 100.802 151.454 99.4201C151.486 99.3981 151.514 99.3694 151.535 99.3359C151.557 99.3024 151.571 99.2647 151.577 99.2254C151.583 99.186 151.581 99.1458 151.571 99.1073C151.561 99.0687 151.543 99.0328 151.518 99.0017C151.337 98.7603 151.063 98.5221 150.696 98.2871C150.614 98.2363 150.55 98.1598 150.515 98.0691C150.479 97.9783 150.473 97.8783 150.498 97.784C150.523 97.6896 150.578 97.6061 150.653 97.5459C150.729 97.4857 150.822 97.4522 150.918 97.4502C152.085 97.4126 153.452 97.0412 155.017 96.336C155.034 96.3285 155.049 96.3162 155.06 96.3004C155.071 96.2846 155.078 96.2659 155.079 96.2462C155.081 96.2266 155.077 96.2066 155.068 96.1885C155.06 96.1704 155.047 96.1548 155.031 96.1433L153.991 95.4193C153.923 95.3721 153.87 95.3058 153.839 95.2285C153.808 95.1512 153.8 95.0663 153.816 94.9843C153.831 94.9023 153.87 94.8268 153.928 94.7671C153.985 94.7074 154.058 94.6661 154.139 94.6483C156.08 94.2064 157.836 93.5513 159.407 92.6831C159.43 92.6698 159.448 92.6486 159.458 92.6231C159.467 92.5977 159.467 92.5695 159.458 92.5435C159.448 92.5175 159.43 92.4952 159.407 92.4803C159.383 92.4655 159.356 92.4591 159.328 92.4622C156.848 92.8728 155.371 93.0969 154.897 93.1345C154.779 93.1439 154.684 93.1157 154.61 93.0498C154.571 93.0151 154.542 92.9703 154.526 92.92C154.511 92.8696 154.509 92.8153 154.52 92.7623C154.532 92.7094 154.557 92.6596 154.593 92.6177C154.629 92.5758 154.674 92.5433 154.726 92.5233C156.606 91.7805 158.52 90.8873 159.804 89.3546C159.817 89.3399 159.826 89.3213 159.828 89.3015C159.83 89.2817 159.826 89.2618 159.816 89.2445C159.806 89.2273 159.791 89.2136 159.773 89.2055C159.755 89.1974 159.736 89.1953 159.716 89.1995L154.12 90.4547C154.079 90.4641 154.035 90.4625 153.995 90.45C153.954 90.4376 153.917 90.4147 153.887 90.3836C153.858 90.3525 153.836 90.3142 153.825 90.2723C153.814 90.2305 153.814 90.1864 153.824 90.1445L153.829 90.1162C153.842 90.0235 153.88 89.9365 153.939 89.8656C153.998 89.7948 154.075 89.743 154.162 89.7166C156.67 88.93 158.979 87.7703 161.089 86.2377C161.116 86.224 161.138 86.1997 161.148 86.1701C161.158 86.1406 161.156 86.1083 161.142 86.0802C161.129 86.0522 161.105 86.0307 161.076 86.0206C161.047 86.0104 161.015 86.0124 160.987 86.0261C158.088 86.9977 155.001 87.7719 151.726 88.3486C151.647 88.3623 151.566 88.3438 151.501 88.2972C151.435 88.2506 151.39 88.1795 151.375 88.0994L151.371 88.09C151.355 88.0098 151.37 87.9266 151.413 87.8575C151.456 87.7884 151.524 87.7387 151.602 87.7186C155.007 86.8818 158.496 85.0953 161.01 82.6553C161.025 82.6415 161.035 82.6228 161.038 82.6025C161.041 82.5821 161.037 82.5614 161.027 82.5437C161.016 82.526 161 82.5125 160.981 82.5055C160.962 82.4984 160.942 82.4982 160.923 82.5049C157.016 83.9215 153.637 85.0295 150.784 85.8287C150.62 85.8726 150.479 85.8788 150.359 85.8475C150.321 85.8375 150.286 85.8177 150.258 85.7902C150.231 85.7627 150.21 85.7284 150.199 85.6908C150.189 85.6531 150.188 85.6135 150.197 85.5758C150.206 85.5381 150.225 85.5037 150.252 85.4761L152.997 82.6835C153.012 82.6655 153.02 82.643 153.02 82.6198C153.02 82.5965 153.013 82.5738 152.999 82.5553C152.985 82.5369 152.966 82.5237 152.944 82.5179C152.921 82.5122 152.898 82.5142 152.877 82.5237C145.492 86.8019 137.418 89.9094 128.653 91.8463C128.567 91.8651 128.448 91.8604 128.297 91.8322C128.256 91.8245 128.218 91.8055 128.187 91.7771C128.156 91.7488 128.133 91.7122 128.121 91.6712C128.108 91.6303 128.107 91.5865 128.117 91.5445C128.127 91.5024 128.148 91.4638 128.177 91.4326L129.531 90.0598C129.545 90.0423 129.553 90.0201 129.554 89.9972C129.554 89.9743 129.546 89.952 129.532 89.9342C129.518 89.9164 129.498 89.9042 129.476 89.8997C129.454 89.8952 129.431 89.8986 129.411 89.9094C128.222 90.6804 127.031 91.2493 125.839 91.616C123.448 92.3494 121.079 93.0953 118.731 93.8538C116.652 94.526 115.441 95.5321 114.078 97.4925C110.88 102.081 107.137 107.055 101.758 110.083Z"/>
</mask>
<path d="M101.758 110.083C99.6813 111.368 97.2567 112.314 94.484 112.922C94.3762 112.947 94.2823 113.008 94.2022 113.105C94.082 113.25 93.988 113.326 93.9203 113.336C93.8906 113.339 93.8607 113.333 93.8348 113.318C93.8088 113.303 93.788 113.281 93.7752 113.253C93.7625 113.226 93.7585 113.195 93.7638 113.165C93.7691 113.135 93.7834 113.108 93.8047 113.087C93.9187 112.974 94.0019 112.87 94.0543 112.776C94.1375 112.626 94.0989 112.469 93.9387 112.306C93.8432 112.212 93.2918 111.62 92.2844 110.529C92.2061 110.445 92.1475 110.343 92.1129 110.232C92.0783 110.122 92.0687 110.004 92.0846 109.889C92.1006 109.774 92.1418 109.664 92.2052 109.567C92.2685 109.471 92.3525 109.39 92.4507 109.33C97.4878 106.275 103.375 100.445 98.6847 94.1499C95.9582 90.4923 90.9304 88.7388 86.6281 88.8187C85.8147 88.8344 84.8258 89.2982 83.6613 90.2103C83.5904 90.2636 83.555 90.3074 83.555 90.3419C83.555 90.4077 83.5796 90.4673 83.6289 90.5206L86.1937 90.4359C86.2721 90.4329 86.3486 90.4594 86.4078 90.51C86.467 90.5606 86.5044 90.6316 86.5125 90.7086V90.718C86.5212 90.799 86.4999 90.8804 86.453 90.9464C86.406 91.0124 86.3367 91.0583 86.2584 91.0753C84.2574 91.5172 84.0079 94.2346 83.5873 95.9646C85.5282 95.7264 87.3474 95.1278 89.0449 94.1687C90.0801 93.5827 90.8225 93.2833 91.2723 93.2708C93.9341 93.2003 97.0765 94.07 96.4619 97.5866C95.9443 100.553 92.7604 103.007 90.1771 104.291C88.5782 105.085 86.8453 105.395 84.8813 105.88C82.0254 106.585 80.6899 108.691 80.1538 111.498C80.4896 113.563 80.8223 115.679 81.152 117.844C81.5895 120.759 81.9884 122.854 82.3489 124.13C83.6982 128.91 85.9842 133.144 89.2067 136.833C92.4538 140.55 95.7949 144.021 99.23 147.246C99.4023 147.409 99.6269 147.5 99.8585 147.5H118.436C118.463 147.5 118.49 147.492 118.512 147.476C118.535 147.46 118.552 147.437 118.562 147.411C118.571 147.385 118.573 147.357 118.566 147.33C118.559 147.303 118.544 147.278 118.523 147.26C117.26 146.101 116.239 145.19 115.46 144.529C112.553 142.056 110.58 139.451 108.662 136.236C108.641 136.201 108.613 136.172 108.581 136.149C108.548 136.127 108.51 136.112 108.471 136.106C108.432 136.1 108.392 136.102 108.354 136.113C108.316 136.124 108.28 136.144 108.25 136.17L106.98 137.247C106.946 137.276 106.907 137.298 106.865 137.311C106.822 137.324 106.778 137.329 106.733 137.325C106.689 137.32 106.646 137.307 106.606 137.286C106.567 137.264 106.532 137.235 106.504 137.2L106.481 137.167C106.454 137.133 106.435 137.093 106.424 137.052C106.413 137.01 106.411 136.966 106.418 136.923C106.424 136.88 106.439 136.839 106.462 136.803C106.485 136.766 106.515 136.735 106.55 136.711C108.013 135.701 108.907 134.275 109.23 132.432C109.244 132.347 109.287 132.268 109.352 132.211C109.417 132.153 109.5 132.12 109.586 132.117C111.998 132.045 113.754 131.754 114.854 131.243C115.968 130.726 115.949 129.268 116.028 127.957C116.033 127.88 116.066 127.808 116.118 127.754C116.171 127.7 116.241 127.669 116.314 127.665C120.242 127.463 123.584 124.732 125.233 121.22C125.248 121.185 125.252 121.147 125.246 121.11C125.239 121.073 125.222 121.039 125.196 121.013C125.17 120.986 125.137 120.968 125.101 120.96C125.065 120.953 125.027 120.956 124.993 120.971L122.724 122.01C122.721 122.011 122.718 122.012 122.714 122.012C122.711 122.012 122.708 122.012 122.705 122.01C122.702 122.009 122.699 122.007 122.697 122.004C122.694 122.002 122.693 121.999 122.692 121.996L122.641 121.864C122.631 121.841 122.631 121.815 122.639 121.791C122.648 121.768 122.665 121.748 122.687 121.737C125.91 120.167 128.616 117.913 130.806 114.977C131.296 114.322 131.712 113.56 132.054 112.692C132.063 112.67 132.066 112.646 132.063 112.622C132.061 112.599 132.052 112.576 132.038 112.557C132.024 112.538 132.005 112.523 131.984 112.514C131.962 112.505 131.939 112.501 131.915 112.504L128.209 112.847C128.176 112.851 128.143 112.843 128.114 112.826C128.086 112.809 128.064 112.784 128.052 112.753L128.006 112.631C128 112.616 127.998 112.6 127.999 112.584C128 112.568 128.005 112.553 128.013 112.539C128.021 112.526 128.032 112.514 128.046 112.505C128.059 112.497 128.074 112.491 128.089 112.49C130.883 112.179 133.105 111.61 134.753 110.783C135.902 110.206 137.653 109.011 140.007 107.196C140.037 107.173 140.061 107.143 140.078 107.109C140.094 107.074 140.102 107.037 140.101 106.998C140.1 106.96 140.091 106.923 140.073 106.889C140.055 106.856 140.029 106.827 139.998 106.806L139.277 106.307C139.234 106.278 139.199 106.237 139.178 106.188C139.156 106.14 139.147 106.087 139.153 106.034C139.159 105.981 139.178 105.931 139.21 105.889C139.242 105.847 139.284 105.814 139.332 105.795L144.929 103.505C144.96 103.493 144.986 103.472 145.006 103.446C145.026 103.419 145.039 103.387 145.042 103.353C145.045 103.32 145.04 103.286 145.025 103.256C145.011 103.225 144.989 103.199 144.961 103.181L144.402 102.791C144.322 102.735 144.261 102.655 144.227 102.563C144.193 102.471 144.188 102.37 144.211 102.275C144.235 102.179 144.287 102.093 144.359 102.029C144.432 101.964 144.523 101.923 144.619 101.912C147.151 101.633 149.43 100.802 151.454 99.4201C151.486 99.3981 151.514 99.3694 151.535 99.3359C151.557 99.3024 151.571 99.2647 151.577 99.2254C151.583 99.186 151.581 99.1458 151.571 99.1073C151.561 99.0687 151.543 99.0328 151.518 99.0017C151.337 98.7603 151.063 98.5221 150.696 98.2871C150.614 98.2363 150.55 98.1598 150.515 98.0691C150.479 97.9783 150.473 97.8783 150.498 97.784C150.523 97.6896 150.578 97.6061 150.653 97.5459C150.729 97.4857 150.822 97.4522 150.918 97.4502C152.085 97.4126 153.452 97.0412 155.017 96.336C155.034 96.3285 155.049 96.3162 155.06 96.3004C155.071 96.2846 155.078 96.2659 155.079 96.2462C155.081 96.2266 155.077 96.2066 155.068 96.1885C155.06 96.1704 155.047 96.1548 155.031 96.1433L153.991 95.4193C153.923 95.3721 153.87 95.3058 153.839 95.2285C153.808 95.1512 153.8 95.0663 153.816 94.9843C153.831 94.9023 153.87 94.8268 153.928 94.7671C153.985 94.7074 154.058 94.6661 154.139 94.6483C156.08 94.2064 157.836 93.5513 159.407 92.6831C159.43 92.6698 159.448 92.6486 159.458 92.6231C159.467 92.5977 159.467 92.5695 159.458 92.5435C159.448 92.5175 159.43 92.4952 159.407 92.4803C159.383 92.4655 159.356 92.4591 159.328 92.4622C156.848 92.8728 155.371 93.0969 154.897 93.1345C154.779 93.1439 154.684 93.1157 154.61 93.0498C154.571 93.0151 154.542 92.9703 154.526 92.92C154.511 92.8696 154.509 92.8153 154.52 92.7623C154.532 92.7094 154.557 92.6596 154.593 92.6177C154.629 92.5758 154.674 92.5433 154.726 92.5233C156.606 91.7805 158.52 90.8873 159.804 89.3546C159.817 89.3399 159.826 89.3213 159.828 89.3015C159.83 89.2817 159.826 89.2618 159.816 89.2445C159.806 89.2273 159.791 89.2136 159.773 89.2055C159.755 89.1974 159.736 89.1953 159.716 89.1995L154.12 90.4547C154.079 90.4641 154.035 90.4625 153.995 90.45C153.954 90.4376 153.917 90.4147 153.887 90.3836C153.858 90.3525 153.836 90.3142 153.825 90.2723C153.814 90.2305 153.814 90.1864 153.824 90.1445L153.829 90.1162C153.842 90.0235 153.88 89.9365 153.939 89.8656C153.998 89.7948 154.075 89.743 154.162 89.7166C156.67 88.93 158.979 87.7703 161.089 86.2377C161.116 86.224 161.138 86.1997 161.148 86.1701C161.158 86.1406 161.156 86.1083 161.142 86.0802C161.129 86.0522 161.105 86.0307 161.076 86.0206C161.047 86.0104 161.015 86.0124 160.987 86.0261C158.088 86.9977 155.001 87.7719 151.726 88.3486C151.647 88.3623 151.566 88.3438 151.501 88.2972C151.435 88.2506 151.39 88.1795 151.375 88.0994L151.371 88.09C151.355 88.0098 151.37 87.9266 151.413 87.8575C151.456 87.7884 151.524 87.7387 151.602 87.7186C155.007 86.8818 158.496 85.0953 161.01 82.6553C161.025 82.6415 161.035 82.6228 161.038 82.6025C161.041 82.5821 161.037 82.5614 161.027 82.5437C161.016 82.526 161 82.5125 160.981 82.5055C160.962 82.4984 160.942 82.4982 160.923 82.5049C157.016 83.9215 153.637 85.0295 150.784 85.8287C150.62 85.8726 150.479 85.8788 150.359 85.8475C150.321 85.8375 150.286 85.8177 150.258 85.7902C150.231 85.7627 150.21 85.7284 150.199 85.6908C150.189 85.6531 150.188 85.6135 150.197 85.5758C150.206 85.5381 150.225 85.5037 150.252 85.4761L152.997 82.6835C153.012 82.6655 153.02 82.643 153.02 82.6198C153.02 82.5965 153.013 82.5738 152.999 82.5553C152.985 82.5369 152.966 82.5237 152.944 82.5179C152.921 82.5122 152.898 82.5142 152.877 82.5237C145.492 86.8019 137.418 89.9094 128.653 91.8463C128.567 91.8651 128.448 91.8604 128.297 91.8322C128.256 91.8245 128.218 91.8055 128.187 91.7771C128.156 91.7488 128.133 91.7122 128.121 91.6712C128.108 91.6303 128.107 91.5865 128.117 91.5445C128.127 91.5024 128.148 91.4638 128.177 91.4326L129.531 90.0598C129.545 90.0423 129.553 90.0201 129.554 89.9972C129.554 89.9743 129.546 89.952 129.532 89.9342C129.518 89.9164 129.498 89.9042 129.476 89.8997C129.454 89.8952 129.431 89.8986 129.411 89.9094C128.222 90.6804 127.031 91.2493 125.839 91.616C123.448 92.3494 121.079 93.0953 118.731 93.8538C116.652 94.526 115.441 95.5321 114.078 97.4925C110.88 102.081 107.137 107.055 101.758 110.083Z" fill="white"/>
<path d="M101.758 110.083C99.6813 111.368 97.2567 112.314 94.484 112.922C94.3762 112.947 94.2823 113.008 94.2022 113.105C94.082 113.25 93.988 113.326 93.9203 113.336C93.8906 113.339 93.8607 113.333 93.8348 113.318C93.8088 113.303 93.788 113.281 93.7752 113.253C93.7625 113.226 93.7585 113.195 93.7638 113.165C93.7691 113.135 93.7834 113.108 93.8047 113.087C93.9187 112.974 94.0019 112.87 94.0543 112.776C94.1375 112.626 94.0989 112.469 93.9387 112.306C93.8432 112.212 93.2918 111.62 92.2844 110.529C92.2061 110.445 92.1475 110.343 92.1129 110.232C92.0783 110.122 92.0687 110.004 92.0846 109.889C92.1006 109.774 92.1418 109.664 92.2052 109.567C92.2685 109.471 92.3525 109.39 92.4507 109.33C97.4878 106.275 103.375 100.445 98.6847 94.1499C95.9582 90.4923 90.9304 88.7388 86.6281 88.8187C85.8147 88.8344 84.8258 89.2982 83.6613 90.2103C83.5904 90.2636 83.555 90.3074 83.555 90.3419C83.555 90.4077 83.5796 90.4673 83.6289 90.5206L86.1937 90.4359C86.2721 90.4329 86.3486 90.4594 86.4078 90.51C86.467 90.5606 86.5044 90.6316 86.5125 90.7086V90.718C86.5212 90.799 86.4999 90.8804 86.453 90.9464C86.406 91.0124 86.3367 91.0583 86.2584 91.0753C84.2574 91.5172 84.0079 94.2346 83.5873 95.9646C85.5282 95.7264 87.3474 95.1278 89.0449 94.1687C90.0801 93.5827 90.8225 93.2833 91.2723 93.2708C93.9341 93.2003 97.0765 94.07 96.4619 97.5866C95.9443 100.553 92.7604 103.007 90.1771 104.291C88.5782 105.085 86.8453 105.395 84.8813 105.88C82.0254 106.585 80.6899 108.691 80.1538 111.498C80.4896 113.563 80.8223 115.679 81.152 117.844C81.5895 120.759 81.9884 122.854 82.3489 124.13C83.6982 128.91 85.9842 133.144 89.2067 136.833C92.4538 140.55 95.7949 144.021 99.23 147.246C99.4023 147.409 99.6269 147.5 99.8585 147.5H118.436C118.463 147.5 118.49 147.492 118.512 147.476C118.535 147.46 118.552 147.437 118.562 147.411C118.571 147.385 118.573 147.357 118.566 147.33C118.559 147.303 118.544 147.278 118.523 147.26C117.26 146.101 116.239 145.19 115.46 144.529C112.553 142.056 110.58 139.451 108.662 136.236C108.641 136.201 108.613 136.172 108.581 136.149C108.548 136.127 108.51 136.112 108.471 136.106C108.432 136.1 108.392 136.102 108.354 136.113C108.316 136.124 108.28 136.144 108.25 136.17L106.98 137.247C106.946 137.276 106.907 137.298 106.865 137.311C106.822 137.324 106.778 137.329 106.733 137.325C106.689 137.32 106.646 137.307 106.606 137.286C106.567 137.264 106.532 137.235 106.504 137.2L106.481 137.167C106.454 137.133 106.435 137.093 106.424 137.052C106.413 137.01 106.411 136.966 106.418 136.923C106.424 136.88 106.439 136.839 106.462 136.803C106.485 136.766 106.515 136.735 106.55 136.711C108.013 135.701 108.907 134.275 109.23 132.432C109.244 132.347 109.287 132.268 109.352 132.211C109.417 132.153 109.5 132.12 109.586 132.117C111.998 132.045 113.754 131.754 114.854 131.243C115.968 130.726 115.949 129.268 116.028 127.957C116.033 127.88 116.066 127.808 116.118 127.754C116.171 127.7 116.241 127.669 116.314 127.665C120.242 127.463 123.584 124.732 125.233 121.22C125.248 121.185 125.252 121.147 125.246 121.11C125.239 121.073 125.222 121.039 125.196 121.013C125.17 120.986 125.137 120.968 125.101 120.96C125.065 120.953 125.027 120.956 124.993 120.971L122.724 122.01C122.721 122.011 122.718 122.012 122.714 122.012C122.711 122.012 122.708 122.012 122.705 122.01C122.702 122.009 122.699 122.007 122.697 122.004C122.694 122.002 122.693 121.999 122.692 121.996L122.641 121.864C122.631 121.841 122.631 121.815 122.639 121.791C122.648 121.768 122.665 121.748 122.687 121.737C125.91 120.167 128.616 117.913 130.806 114.977C131.296 114.322 131.712 113.56 132.054 112.692C132.063 112.67 132.066 112.646 132.063 112.622C132.061 112.599 132.052 112.576 132.038 112.557C132.024 112.538 132.005 112.523 131.984 112.514C131.962 112.505 131.939 112.501 131.915 112.504L128.209 112.847C128.176 112.851 128.143 112.843 128.114 112.826C128.086 112.809 128.064 112.784 128.052 112.753L128.006 112.631C128 112.616 127.998 112.6 127.999 112.584C128 112.568 128.005 112.553 128.013 112.539C128.021 112.526 128.032 112.514 128.046 112.505C128.059 112.497 128.074 112.491 128.089 112.49C130.883 112.179 133.105 111.61 134.753 110.783C135.902 110.206 137.653 109.011 140.007 107.196C140.037 107.173 140.061 107.143 140.078 107.109C140.094 107.074 140.102 107.037 140.101 106.998C140.1 106.96 140.091 106.923 140.073 106.889C140.055 106.856 140.029 106.827 139.998 106.806L139.277 106.307C139.234 106.278 139.199 106.237 139.178 106.188C139.156 106.14 139.147 106.087 139.153 106.034C139.159 105.981 139.178 105.931 139.21 105.889C139.242 105.847 139.284 105.814 139.332 105.795L144.929 103.505C144.96 103.493 144.986 103.472 145.006 103.446C145.026 103.419 145.039 103.387 145.042 103.353C145.045 103.32 145.04 103.286 145.025 103.256C145.011 103.225 144.989 103.199 144.961 103.181L144.402 102.791C144.322 102.735 144.261 102.655 144.227 102.563C144.193 102.471 144.188 102.37 144.211 102.275C144.235 102.179 144.287 102.093 144.359 102.029C144.432 101.964 144.523 101.923 144.619 101.912C147.151 101.633 149.43 100.802 151.454 99.4201C151.486 99.3981 151.514 99.3694 151.535 99.3359C151.557 99.3024 151.571 99.2647 151.577 99.2254C151.583 99.186 151.581 99.1458 151.571 99.1073C151.561 99.0687 151.543 99.0328 151.518 99.0017C151.337 98.7603 151.063 98.5221 150.696 98.2871C150.614 98.2363 150.55 98.1598 150.515 98.0691C150.479 97.9783 150.473 97.8783 150.498 97.784C150.523 97.6896 150.578 97.6061 150.653 97.5459C150.729 97.4857 150.822 97.4522 150.918 97.4502C152.085 97.4126 153.452 97.0412 155.017 96.336C155.034 96.3285 155.049 96.3162 155.06 96.3004C155.071 96.2846 155.078 96.2659 155.079 96.2462C155.081 96.2266 155.077 96.2066 155.068 96.1885C155.06 96.1704 155.047 96.1548 155.031 96.1433L153.991 95.4193C153.923 95.3721 153.87 95.3058 153.839 95.2285C153.808 95.1512 153.8 95.0663 153.816 94.9843C153.831 94.9023 153.87 94.8268 153.928 94.7671C153.985 94.7074 154.058 94.6661 154.139 94.6483C156.08 94.2064 157.836 93.5513 159.407 92.6831C159.43 92.6698 159.448 92.6486 159.458 92.6231C159.467 92.5977 159.467 92.5695 159.458 92.5435C159.448 92.5175 159.43 92.4952 159.407 92.4803C159.383 92.4655 159.356 92.4591 159.328 92.4622C156.848 92.8728 155.371 93.0969 154.897 93.1345C154.779 93.1439 154.684 93.1157 154.61 93.0498C154.571 93.0151 154.542 92.9703 154.526 92.92C154.511 92.8696 154.509 92.8153 154.52 92.7623C154.532 92.7094 154.557 92.6596 154.593 92.6177C154.629 92.5758 154.674 92.5433 154.726 92.5233C156.606 91.7805 158.52 90.8873 159.804 89.3546C159.817 89.3399 159.826 89.3213 159.828 89.3015C159.83 89.2817 159.826 89.2618 159.816 89.2445C159.806 89.2273 159.791 89.2136 159.773 89.2055C159.755 89.1974 159.736 89.1953 159.716 89.1995L154.12 90.4547C154.079 90.4641 154.035 90.4625 153.995 90.45C153.954 90.4376 153.917 90.4147 153.887 90.3836C153.858 90.3525 153.836 90.3142 153.825 90.2723C153.814 90.2305 153.814 90.1864 153.824 90.1445L153.829 90.1162C153.842 90.0235 153.88 89.9365 153.939 89.8656C153.998 89.7948 154.075 89.743 154.162 89.7166C156.67 88.93 158.979 87.7703 161.089 86.2377C161.116 86.224 161.138 86.1997 161.148 86.1701C161.158 86.1406 161.156 86.1083 161.142 86.0802C161.129 86.0522 161.105 86.0307 161.076 86.0206C161.047 86.0104 161.015 86.0124 160.987 86.0261C158.088 86.9977 155.001 87.7719 151.726 88.3486C151.647 88.3623 151.566 88.3438 151.501 88.2972C151.435 88.2506 151.39 88.1795 151.375 88.0994L151.371 88.09C151.355 88.0098 151.37 87.9266 151.413 87.8575C151.456 87.7884 151.524 87.7387 151.602 87.7186C155.007 86.8818 158.496 85.0953 161.01 82.6553C161.025 82.6415 161.035 82.6228 161.038 82.6025C161.041 82.5821 161.037 82.5614 161.027 82.5437C161.016 82.526 161 82.5125 160.981 82.5055C160.962 82.4984 160.942 82.4982 160.923 82.5049C157.016 83.9215 153.637 85.0295 150.784 85.8287C150.62 85.8726 150.479 85.8788 150.359 85.8475C150.321 85.8375 150.286 85.8177 150.258 85.7902C150.231 85.7627 150.21 85.7284 150.199 85.6908C150.189 85.6531 150.188 85.6135 150.197 85.5758C150.206 85.5381 150.225 85.5037 150.252 85.4761L152.997 82.6835C153.012 82.6655 153.02 82.643 153.02 82.6198C153.02 82.5965 153.013 82.5738 152.999 82.5553C152.985 82.5369 152.966 82.5237 152.944 82.5179C152.921 82.5122 152.898 82.5142 152.877 82.5237C145.492 86.8019 137.418 89.9094 128.653 91.8463C128.567 91.8651 128.448 91.8604 128.297 91.8322C128.256 91.8245 128.218 91.8055 128.187 91.7771C128.156 91.7488 128.133 91.7122 128.121 91.6712C128.108 91.6303 128.107 91.5865 128.117 91.5445C128.127 91.5024 128.148 91.4638 128.177 91.4326L129.531 90.0598C129.545 90.0423 129.553 90.0201 129.554 89.9972C129.554 89.9743 129.546 89.952 129.532 89.9342C129.518 89.9164 129.498 89.9042 129.476 89.8997C129.454 89.8952 129.431 89.8986 129.411 89.9094C128.222 90.6804 127.031 91.2493 125.839 91.616C123.448 92.3494 121.079 93.0953 118.731 93.8538C116.652 94.526 115.441 95.5321 114.078 97.4925C110.88 102.081 107.137 107.055 101.758 110.083Z" stroke="black" stroke-width="2" mask="url(#path-4-outside-1_664_97573)"/>
<path d="M79.5085 111.618C80.0504 108.745 81.4006 106.589 84.2877 105.867C86.2732 105.371 88.0252 105.053 89.6416 104.24C92.2531 102.926 95.472 100.414 95.9952 97.3778C96.6166 93.7782 93.4398 92.8879 90.7488 92.9601C90.2941 92.9729 89.5435 93.2793 88.497 93.8793C86.7809 94.861 84.9418 95.4737 82.9796 95.7176C81.2199 96.1122 79.4649 96.5774 77.7145 97.1131C77.3844 97.2126 77.1165 97.227 76.911 97.1565C76.8519 97.1352 76.7988 97.0993 76.7563 97.052C76.7138 97.0048 76.6833 96.9476 76.6676 96.8856C76.6519 96.8236 76.6513 96.7587 76.6661 96.6968C76.6809 96.6349 76.7104 96.5779 76.7521 96.5308C78.3592 94.6925 80.1952 93.09 81.7463 91.2277C82.1481 90.7432 82.5732 90.3823 83.0217 90.1449C82.9718 90.0903 82.9469 90.0294 82.9469 89.962C82.9469 89.9267 82.9827 89.8818 83.0544 89.8273C84.2317 88.8937 85.2314 88.4189 86.0537 88.4028C90.4031 88.321 95.486 90.116 98.2424 93.86C102.984 100.304 97.0324 106.271 91.9401 109.399C91.8408 109.46 91.7559 109.543 91.6919 109.642C91.6278 109.741 91.5862 109.853 91.57 109.971C91.5539 110.089 91.5636 110.209 91.5986 110.322C91.6335 110.436 91.6928 110.54 91.7719 110.626C92.7904 111.743 93.3479 112.349 93.4444 112.445C93.6064 112.612 93.6453 112.772 93.5612 112.926C93.5083 113.023 93.4242 113.129 93.309 113.244C93.2874 113.266 93.2729 113.294 93.2676 113.324C93.2623 113.355 93.2663 113.386 93.2791 113.414C93.292 113.443 93.313 113.466 93.3393 113.481C93.3656 113.496 93.3958 113.502 93.4257 113.499C93.4943 113.49 93.5893 113.411 93.7107 113.263C93.7917 113.164 93.8867 113.101 93.9957 113.076C96.7988 112.453 99.2499 111.484 101.349 110.169C104.517 105.928 105.706 101.502 104.918 96.8918C102.382 82.1035 83.4702 78.4605 76.1541 91.5597C74.329 94.8257 73.7529 98.5183 74.4256 102.638C74.9987 106.154 76.693 109.147 79.5085 111.618Z" fill="#F3B222"/>
<path d="M83.3258 90.5851C82.891 90.8178 82.4788 91.1715 82.0893 91.6463C80.5856 93.4716 78.8056 95.0421 77.2476 96.8438C77.2071 96.8899 77.1785 96.9458 77.1642 97.0065C77.1499 97.0671 77.1504 97.1307 77.1656 97.1915C77.1809 97.2522 77.2104 97.3083 77.2516 97.3546C77.2928 97.4009 77.3443 97.4361 77.4016 97.4569C77.6009 97.5261 77.8605 97.512 78.1806 97.4145C79.8775 96.8894 81.579 96.4335 83.285 96.0467C83.6971 94.3111 83.9417 91.585 85.9029 91.1417C85.9796 91.1246 86.0476 91.0785 86.0936 91.0123C86.1396 90.9461 86.1604 90.8645 86.152 90.7832V90.7738C86.144 90.6965 86.1073 90.6253 86.0493 90.5745C85.9913 90.5237 85.9163 90.4972 85.8394 90.5002L83.3258 90.5851Z" fill="black"/>
<rect x="-76.7183" y="156.779" width="283" height="66" transform="rotate(-3.132 -76.7183 156.779)" fill="#032B55"/>
<rect x="-56.8462" y="16.8926" width="283" height="66" transform="rotate(-11.4941 -56.8462 16.8926)" fill="#032B55"/>
</g>
<mask id="mask1_664_97573" style="mask-type:alpha" maskUnits="userSpaceOnUse" x="1" y="0" width="211" height="163">
<path d="M136.294 18.6747L1.15381 162.911H136.727L211.154 0.5H178.228C170.918 0.5 163.674 1.89495 156.887 4.61003C149.076 7.73439 142.046 12.5356 136.294 18.6747Z" fill="#1C325C"/>
</mask>
<g mask="url(#mask1_664_97573)">
<g style="mix-blend-mode:plus-lighter" filter="url(#filter0_f_664_97573)">
<line x1="123.701" y1="175.287" x2="204.701" y2="3.28697" stroke="url(#paint0_linear_664_97573)"/>
</g>
<g style="mix-blend-mode:plus-lighter" filter="url(#filter1_f_664_97573)">
<line x1="0.0550789" y1="169.479" x2="158.055" y2="-0.521175" stroke="url(#paint1_linear_664_97573)" stroke-width="3"/>
</g>
<rect x="-32.936" y="132.978" width="283.576" height="89" transform="rotate(-47.4383 -32.936 132.978)" fill="url(#paint2_linear_664_97573)"/>
<path d="M209.154 10.5H193.713L163.67 70.0579M152.742 162.5L125.154 146.414L163.67 70.0579M163.67 70.0579H188.669" stroke="black" stroke-opacity="0.2" stroke-width="2"/>
<path d="M209.654 11.5H194.654L165.654 68.8M189.955 71.3H164.455L126.654 146" stroke="white" stroke-opacity="0.2" stroke-width="0.5"/>
<path d="M123.654 147L146.654 160.5" stroke="white" stroke-opacity="0.21" stroke-width="0.5" style="mix-blend-mode:overlay"/>
</g>
<defs>
<filter id="filter0_f_664_97573" x="117.249" y="-2.92578" width="93.9048" height="184.426" filterUnits="userSpaceOnUse" color-interpolation-filters="sRGB">
<feFlood flood-opacity="0" result="BackgroundImageFix"/>
<feBlend mode="normal" in="SourceGraphic" in2="BackgroundImageFix" result="shape"/>
<feGaussianBlur stdDeviation="3" result="effect1_foregroundBlur_664_97573"/>
</filter>
<filter id="filter1_f_664_97573" x="-12.0435" y="-12.542" width="182.197" height="194.042" filterUnits="userSpaceOnUse" color-interpolation-filters="sRGB">
<feFlood flood-opacity="0" result="BackgroundImageFix"/>
<feBlend mode="normal" in="SourceGraphic" in2="BackgroundImageFix" result="shape"/>
<feGaussianBlur stdDeviation="5.5" result="effect1_foregroundBlur_664_97573"/>
</filter>
<linearGradient id="paint0_linear_664_97573" x1="205.606" y1="3.71302" x2="143.837" y2="149.682" gradientUnits="userSpaceOnUse">
<stop stop-color="white" stop-opacity="0"/>
<stop offset="1" stop-color="white"/>
</linearGradient>
<linearGradient id="paint1_linear_664_97573" x1="159.52" y1="0.840385" x2="34.8832" y2="148.74" gradientUnits="userSpaceOnUse">
<stop stop-color="white" stop-opacity="0"/>
<stop offset="1" stop-color="white"/>
</linearGradient>
<linearGradient id="paint2_linear_664_97573" x1="133.084" y1="221.978" x2="133.958" y2="126.389" gradientUnits="userSpaceOnUse">
<stop stop-color="white" stop-opacity="0"/>
<stop offset="1" stop-color="white" stop-opacity="0.5"/>
</linearGradient>
</defs>
</svg>
