<svg width="212" height="164" viewBox="0 0 212 164" fill="none" xmlns="http://www.w3.org/2000/svg">
<path d="M136.293 18.6747L1.15234 162.911H136.725L211.152 0.5H178.227C170.916 0.5 163.673 1.89495 156.885 4.61003C149.074 7.73439 142.045 12.5356 136.293 18.6747Z" fill="white"/>
<path d="M1.15234 162.911L136.293 18.6746C142.045 12.5356 149.074 7.73439 156.885 4.61003C163.673 1.89496 170.916 0.5 178.227 0.5H211.152M1.15234 162.911H136.725L211.152 0.5M1.15234 162.911L136.293 18.6747C142.045 12.5356 149.074 7.73439 156.885 4.61003C163.673 1.89495 170.916 0.5 178.227 0.5H211.152" stroke="#C2C2C2" stroke-opacity="0.4"/>
<mask id="mask0_664_107772" style="mask-type:alpha" maskUnits="userSpaceOnUse" x="1" y="0" width="211" height="163">
<path d="M136.293 18.6747L1.15234 162.911H136.725L211.152 0.5H178.227C170.916 0.5 163.673 1.89495 156.885 4.61003C149.074 7.73439 142.045 12.5356 136.293 18.6747Z" fill="white"/>
</mask>
<g mask="url(#mask0_664_107772)">
<path d="M145.11 77.1109C145.11 77.1243 145.109 77.1334 145.106 77.1383C141.528 84.2198 136.014 90.0922 129.119 94.0894C124.121 96.9867 118.678 98.7708 112.789 99.4417C112.787 99.4416 112.784 99.4419 112.782 99.4428C112.78 99.4436 112.777 99.4449 112.776 99.4465C112.774 99.4482 112.772 99.4501 112.771 99.4523C112.77 99.4546 112.77 99.4569 112.77 99.4594C112.769 99.4618 112.77 99.4642 112.771 99.4665C112.772 99.4688 112.773 99.4709 112.774 99.4727C112.776 99.4745 112.778 99.4759 112.78 99.477C112.783 99.478 112.785 99.4786 112.788 99.4787C121.625 101.334 130.707 100.66 139.114 97.474C144.941 95.2654 150.134 91.9873 154.695 87.6399C156.035 86.3624 157.376 84.898 158.717 83.2465C160.15 81.4823 161.481 79.52 162.712 77.3597C162.75 77.292 162.77 77.2378 162.77 77.197C162.77 77.1568 162.751 77.1026 162.713 77.0344C161.505 74.8623 160.193 72.8871 158.779 71.109C157.454 69.4446 156.128 67.967 154.801 66.6761C150.284 62.2847 145.124 58.9559 139.32 56.6898C130.945 53.422 121.87 52.6595 113.015 54.4275C113.012 54.4276 113.01 54.4282 113.008 54.4292C113.005 54.4303 113.003 54.4317 113.002 54.4335C113 54.4353 112.999 54.4374 112.998 54.4397C112.997 54.442 112.997 54.4444 112.997 54.4468C112.997 54.4493 112.997 54.4517 112.998 54.4539C113 54.4561 113.001 54.4581 113.003 54.4597C113.005 54.4613 113.007 54.4626 113.009 54.4635C113.011 54.4643 113.014 54.4647 113.016 54.4646C118.898 55.1934 124.323 57.0309 129.292 59.977C136.146 64.0411 141.6 69.9674 145.107 77.0835C145.109 77.0889 145.11 77.098 145.11 77.1109Z" fill="#F46C34"/>
<path d="M130.444 77.0588C130.443 77.0836 130.441 77.1 130.438 77.1081C128.713 81.2047 126.108 84.6171 122.623 87.3451C119.705 89.6294 116.428 91.2164 112.791 92.1061C112.785 92.1074 112.779 92.1108 112.775 92.1157C112.771 92.1206 112.769 92.1268 112.77 92.1331C112.77 92.1394 112.772 92.1454 112.776 92.15C112.781 92.1547 112.786 92.1578 112.793 92.1586C124.008 94.0766 134.995 87.7547 138.767 77.1509C138.769 77.146 138.769 77.1272 138.769 77.0943C138.77 77.0615 138.769 77.0426 138.767 77.0378C135.089 66.4016 124.158 59.986 112.926 61.8079C112.92 61.8087 112.914 61.8118 112.91 61.8165C112.906 61.8211 112.903 61.8272 112.903 61.8334C112.903 61.8397 112.905 61.8459 112.909 61.8508C112.913 61.8557 112.918 61.8591 112.925 61.8604C116.553 62.7809 119.816 64.3959 122.714 66.7054C126.174 69.4631 128.749 72.8975 130.438 77.0087C130.442 77.0173 130.444 77.034 130.444 77.0588Z" fill="#248C44"/>
<path d="M70.748 127.267C70.7372 127.272 70.6866 127.33 70.5961 127.44C70.5736 127.467 70.5223 127.515 70.4422 127.584C70.0731 127.902 69.6584 128.144 69.198 128.309C68.2029 128.665 66.8877 128.517 66.0243 127.915C64.8631 127.106 64.5249 125.692 64.7483 124.339C65.1818 121.725 67.2942 119.553 70.1451 120.29C70.6791 120.428 71.1112 120.702 71.3853 121.161C71.3876 121.165 71.391 121.168 71.3951 121.17C71.3992 121.171 71.4037 121.172 71.408 121.171C71.4124 121.17 71.4164 121.168 71.4194 121.165C71.4225 121.162 71.4245 121.158 71.4251 121.153L72.1367 115.945C72.1381 115.934 72.1436 115.924 72.152 115.917C72.1605 115.909 72.1713 115.905 72.1826 115.905H74.6163C74.6198 115.905 74.6232 115.906 74.6263 115.907C74.6294 115.909 74.6323 115.911 74.6346 115.913C74.6368 115.916 74.6386 115.919 74.6396 115.922C74.6407 115.926 74.641 115.929 74.6406 115.933L72.9583 128.248C72.9568 128.259 72.9514 128.269 72.9429 128.276C72.9345 128.283 72.9236 128.287 72.9124 128.287H70.7028C70.6969 128.287 70.6912 128.286 70.6858 128.284C70.6805 128.281 70.6757 128.278 70.6718 128.274C70.6679 128.269 70.665 128.264 70.6632 128.259C70.6615 128.253 70.6609 128.247 70.6616 128.241L70.777 127.286C70.7775 127.283 70.7769 127.279 70.7754 127.276C70.774 127.273 70.7716 127.27 70.7686 127.268C70.7655 127.266 70.762 127.265 70.7584 127.265C70.7548 127.265 70.7512 127.265 70.748 127.267ZM67.5608 123.403C67.0896 124.238 67.0066 125.531 67.9537 126.103C68.3217 126.325 68.8651 126.349 69.2884 126.3C69.9757 126.219 70.5495 125.834 70.8837 125.241C71.3549 124.405 71.4379 123.113 70.4908 122.541C70.1228 122.319 69.5794 122.295 69.1561 122.344C68.4695 122.426 67.895 122.81 67.5608 123.403Z" fill="#172A76"/>
<path d="M138.675 118.492C139.297 117.913 139.389 117.009 138.88 116.472C138.372 115.935 137.455 115.969 136.833 116.548C136.211 117.127 136.119 118.031 136.628 118.568C137.137 119.105 138.053 119.071 138.675 118.492Z" fill="#172A76"/>
<path d="M97.0274 127.323C95.655 128.204 94.0864 128.59 92.3215 128.482C89.4718 128.309 87.4441 126.392 87.4259 123.506C87.4105 121.102 88.5161 118.785 90.5391 117.486C91.9115 116.606 93.4801 116.219 95.2451 116.327C98.0947 116.501 100.122 118.417 100.141 121.303C100.156 123.707 99.0511 126.025 97.0274 127.323ZM90.9087 120.474C90.3025 121.368 90.0249 122.519 90.1708 123.592C90.3623 125.004 91.3879 125.963 92.8047 126.099C94.366 126.249 95.7861 125.621 96.6591 124.333C97.2654 123.439 97.5429 122.288 97.3971 121.215C97.2056 119.803 96.1799 118.845 94.7632 118.708C93.2012 118.558 91.7818 119.186 90.9087 120.474Z" fill="#172A76"/>
<path d="M78.1914 118.792C78.8136 118.213 78.9055 117.308 78.3968 116.771C77.8881 116.234 76.9714 116.269 76.3492 116.848C75.727 117.427 75.635 118.331 76.1438 118.868C76.6525 119.405 77.5692 119.371 78.1914 118.792Z" fill="#172A76"/>
<path d="M128.928 116.444H131.018C131.024 116.444 131.03 116.446 131.035 116.45C131.04 116.454 131.044 116.459 131.046 116.465L134.52 127.949C134.521 127.953 134.521 127.957 134.521 127.962C134.52 127.966 134.518 127.97 134.515 127.974C134.513 127.977 134.509 127.98 134.505 127.982C134.501 127.984 134.497 127.985 134.493 127.985H131.629C131.623 127.985 131.617 127.983 131.612 127.979C131.607 127.975 131.603 127.97 131.602 127.964L130.981 125.582C130.98 125.576 130.976 125.571 130.971 125.567C130.966 125.563 130.96 125.561 130.954 125.561H126.483C126.478 125.561 126.472 125.562 126.468 125.565C126.464 125.568 126.46 125.572 126.457 125.576L125.171 128.013C125.168 128.018 125.165 128.022 125.16 128.024C125.156 128.027 125.15 128.029 125.145 128.029H122.373C122.368 128.029 122.363 128.027 122.358 128.025C122.354 128.022 122.35 128.019 122.348 128.015C122.345 128.01 122.344 128.005 122.344 128C122.344 127.995 122.345 127.99 122.347 127.986L128.903 116.459C128.905 116.455 128.909 116.451 128.913 116.448C128.918 116.446 128.923 116.444 128.928 116.444ZM129.457 119.892C129.456 119.888 129.453 119.884 129.45 119.881C129.446 119.878 129.442 119.876 129.437 119.876C129.433 119.875 129.428 119.876 129.424 119.878C129.42 119.88 129.417 119.884 129.415 119.888L127.582 123.357C127.58 123.36 127.579 123.364 127.579 123.368C127.579 123.372 127.581 123.376 127.583 123.379C127.585 123.382 127.587 123.385 127.591 123.387C127.594 123.389 127.598 123.39 127.602 123.39H130.337C130.34 123.39 130.344 123.389 130.347 123.388C130.35 123.386 130.353 123.384 130.355 123.381C130.357 123.378 130.359 123.375 130.359 123.372C130.36 123.368 130.36 123.365 130.359 123.361L129.457 119.892Z" fill="#172A76"/>
<path d="M53.7219 128.365H51.1936C51.1888 128.365 51.184 128.364 51.1797 128.362C51.1753 128.36 51.1714 128.357 51.1683 128.353C51.1652 128.35 51.1629 128.346 51.1615 128.341C51.1602 128.336 51.1598 128.332 51.1605 128.327L52.7359 116.809C52.7371 116.801 52.7411 116.794 52.7474 116.789C52.7536 116.784 52.7615 116.781 52.7697 116.781H55.298C55.3028 116.781 55.3075 116.782 55.3119 116.784C55.3162 116.786 55.3201 116.789 55.3233 116.792C55.3264 116.796 55.3287 116.8 55.3301 116.805C55.3314 116.809 55.3318 116.814 55.3311 116.819L53.7556 128.336C53.7545 128.344 53.7504 128.352 53.7442 128.357C53.738 128.362 53.7301 128.365 53.7219 128.365Z" fill="#172A76"/>
<path d="M142.42 121.2C142.42 121.204 142.421 121.208 142.423 121.212C142.426 121.215 142.429 121.218 142.433 121.219C142.437 121.221 142.441 121.221 142.445 121.22C142.449 121.218 142.452 121.216 142.455 121.212C142.867 120.561 143.484 119.989 144.25 119.825C144.735 119.722 145.218 119.718 145.701 119.814C145.718 119.818 145.733 119.827 145.743 119.841C145.753 119.855 145.757 119.872 145.755 119.889L145.462 122.054C145.461 122.059 145.459 122.063 145.456 122.068C145.454 122.072 145.45 122.076 145.446 122.078C145.441 122.081 145.437 122.083 145.432 122.084C145.427 122.084 145.422 122.084 145.417 122.082C144.89 121.928 144.353 121.895 143.805 121.984C142.366 122.218 142.117 123.466 141.949 124.662C141.938 124.736 141.793 125.826 141.512 127.933C141.511 127.941 141.507 127.948 141.501 127.953C141.495 127.959 141.488 127.961 141.48 127.961H139.05C139.047 127.961 139.043 127.961 139.041 127.959C139.038 127.958 139.035 127.956 139.033 127.954C139.031 127.951 139.029 127.949 139.028 127.945C139.027 127.942 139.027 127.939 139.028 127.936L140.104 119.992C140.105 119.983 140.109 119.976 140.115 119.97C140.122 119.964 140.13 119.961 140.139 119.961H142.553C142.557 119.961 142.561 119.962 142.565 119.964C142.569 119.966 142.573 119.968 142.576 119.972C142.579 119.975 142.581 119.979 142.582 119.983C142.584 119.988 142.584 119.992 142.584 119.997L142.42 121.2Z" fill="#172A76"/>
<path d="M112.199 124.943C112.242 125.848 112.93 126.415 113.836 126.421C114.627 126.425 115.2 126.033 115.708 125.477C115.715 125.469 115.726 125.464 115.737 125.463C115.748 125.462 115.76 125.465 115.769 125.472L117.28 126.684C117.284 126.687 117.288 126.691 117.29 126.696C117.293 126.701 117.294 126.706 117.295 126.712C117.295 126.717 117.294 126.722 117.292 126.727C117.29 126.732 117.288 126.737 117.284 126.741C116.057 128.046 114.216 128.571 112.468 128.162C111.844 128.016 111.185 127.687 110.731 127.22C109.234 125.678 109.609 123.194 110.918 121.68C111.89 120.554 113.319 119.967 114.831 119.947C116.277 119.927 117.484 120.614 117.92 122.022C118.215 122.976 118.106 123.919 117.938 124.875C117.936 124.882 117.932 124.89 117.926 124.895C117.92 124.9 117.912 124.903 117.904 124.903H112.238C112.233 124.903 112.228 124.904 112.223 124.906C112.218 124.908 112.214 124.911 112.21 124.914C112.207 124.918 112.204 124.923 112.202 124.927C112.2 124.932 112.199 124.937 112.199 124.943ZM112.424 123.19C112.423 123.193 112.423 123.197 112.423 123.2C112.424 123.204 112.425 123.207 112.427 123.21C112.429 123.213 112.432 123.216 112.435 123.217C112.438 123.219 112.442 123.22 112.446 123.22H115.622C115.635 123.22 115.648 123.215 115.658 123.206C115.668 123.197 115.674 123.185 115.676 123.172C115.748 122.534 115.416 121.936 114.774 121.784C114.529 121.725 114.306 121.714 114.105 121.748C113.237 121.896 112.676 122.377 112.424 123.19Z" fill="#172A76"/>
<path d="M103.738 121.196C103.738 121.199 103.738 121.203 103.74 121.206C103.742 121.209 103.745 121.212 103.748 121.213C103.751 121.215 103.755 121.215 103.759 121.214C103.763 121.213 103.766 121.211 103.768 121.208C104.206 120.627 104.769 120.244 105.457 120.058C106.097 119.885 106.876 119.917 107.509 120.129C108.27 120.386 108.686 121.074 108.781 121.834C108.886 122.672 108.762 123.437 108.609 124.587C108.447 125.808 108.29 126.979 108.138 128.101C108.137 128.111 108.131 128.121 108.123 128.128C108.115 128.135 108.105 128.139 108.094 128.139H105.681C105.676 128.139 105.672 128.138 105.668 128.136C105.663 128.134 105.66 128.132 105.657 128.128C105.654 128.125 105.652 128.121 105.65 128.117C105.649 128.112 105.649 128.108 105.649 128.103C105.971 125.699 106.151 124.351 106.188 124.061C106.237 123.675 106.297 123.278 106.207 122.886C106.061 122.245 105.568 122.089 104.953 122.156C103.937 122.266 103.587 123.092 103.456 124.027C103.443 124.128 103.257 125.492 102.901 128.121C102.9 128.133 102.894 128.143 102.886 128.151C102.877 128.159 102.866 128.163 102.854 128.163H100.441C100.437 128.163 100.433 128.162 100.429 128.161C100.425 128.159 100.421 128.156 100.418 128.153C100.415 128.15 100.413 128.146 100.412 128.141C100.41 128.137 100.41 128.133 100.41 128.128L101.485 120.194C101.487 120.185 101.491 120.177 101.498 120.171C101.504 120.165 101.513 120.162 101.522 120.162H103.844C103.848 120.162 103.853 120.163 103.856 120.165C103.86 120.166 103.864 120.169 103.867 120.172C103.869 120.175 103.872 120.179 103.873 120.183C103.874 120.188 103.874 120.192 103.874 120.196L103.738 121.196Z" fill="#172A76"/>
<path d="M137.589 127.96H135.149C135.145 127.961 135.142 127.96 135.139 127.958C135.136 127.957 135.133 127.955 135.131 127.953C135.129 127.95 135.127 127.947 135.126 127.944C135.125 127.941 135.125 127.937 135.125 127.934L136.204 120.033C136.204 120.028 136.207 120.022 136.211 120.019C136.216 120.015 136.221 120.013 136.227 120.013H138.667C138.67 120.013 138.674 120.014 138.677 120.015C138.68 120.017 138.683 120.019 138.685 120.021C138.687 120.024 138.689 120.027 138.69 120.03C138.691 120.033 138.691 120.036 138.691 120.04L137.612 127.941C137.611 127.946 137.609 127.951 137.604 127.955C137.6 127.959 137.594 127.961 137.589 127.96Z" fill="#172A76"/>
<path d="M83.6747 127.27C83.6754 127.265 83.6745 127.26 83.672 127.256C83.6696 127.252 83.6658 127.248 83.6612 127.247C83.6566 127.245 83.6515 127.244 83.6466 127.246C83.6418 127.247 83.6375 127.25 83.6344 127.254C83.3442 127.631 82.9809 127.914 82.5446 128.103C81.5308 128.542 80.061 128.606 79.1468 127.9C78.271 127.224 78.2528 126.031 78.6927 125.092C79.2672 123.863 80.9133 123.361 82.1645 123.247C82.8125 123.188 83.4873 123.161 84.1887 123.168C84.2022 123.168 84.2154 123.163 84.2253 123.154C84.2352 123.144 84.2411 123.132 84.2418 123.118C84.305 121.862 83.0821 121.57 82.0798 121.883C81.5815 122.039 81.1416 122.309 80.7599 122.695C80.755 122.7 80.7491 122.704 80.7426 122.707C80.736 122.709 80.729 122.71 80.722 122.71C80.715 122.71 80.7081 122.708 80.7017 122.705C80.6954 122.702 80.6898 122.698 80.6853 122.692L79.6022 121.407C79.5987 121.403 79.5961 121.398 79.5945 121.393C79.5929 121.388 79.5923 121.382 79.5929 121.377C79.5934 121.371 79.5951 121.366 79.5977 121.361C79.6004 121.357 79.604 121.352 79.6083 121.349C80.8702 120.334 82.4329 119.96 84.0629 120.114C84.5127 120.157 84.9329 120.278 85.3235 120.478C86.6548 121.158 86.5552 122.884 86.3884 124.13C86.0884 126.375 85.9076 127.727 85.8462 128.185C85.845 128.194 85.8404 128.203 85.8332 128.209C85.826 128.216 85.8167 128.219 85.8072 128.219H83.5873C83.582 128.219 83.5768 128.218 83.572 128.216C83.5672 128.213 83.5629 128.21 83.5595 128.206C83.556 128.202 83.5535 128.198 83.552 128.193C83.5505 128.188 83.5502 128.183 83.5509 128.178L83.6747 127.27ZM83.9808 124.752C83.1285 124.738 81.1131 124.674 80.8555 125.804C80.7646 126.201 80.9947 126.551 81.3586 126.659C82.3145 126.942 83.7756 126.43 83.933 125.331C83.9528 125.194 83.9772 125.011 84.0064 124.782C84.0068 124.779 84.0065 124.775 84.0055 124.771C84.0044 124.768 84.0026 124.764 84.0002 124.762C83.9978 124.759 83.9948 124.756 83.9915 124.755C83.9881 124.753 83.9845 124.752 83.9808 124.752Z" fill="#172A76"/>
<path d="M58.7608 121.467C59.1983 120.891 59.7613 120.511 60.4497 120.327C61.0891 120.155 61.8686 120.187 62.5007 120.398C63.2626 120.653 63.6786 121.335 63.7735 122.089C63.8779 122.92 63.754 123.679 63.6005 124.82C63.4386 126.03 63.2815 127.192 63.1294 128.305C63.1281 128.315 63.1229 128.325 63.1148 128.331C63.1068 128.338 63.0964 128.342 63.0856 128.342H60.6725C60.668 128.342 60.6635 128.342 60.6594 128.34C60.6552 128.338 60.6515 128.335 60.6485 128.332C60.6456 128.329 60.6433 128.325 60.642 128.32C60.6407 128.316 60.6403 128.312 60.6408 128.307C60.963 125.922 61.1428 124.585 61.18 124.298C61.2291 123.915 61.2884 123.521 61.1989 123.132C61.0535 122.496 60.5601 122.341 59.9455 122.408C58.9291 122.518 58.5791 123.336 58.4485 124.264C58.4346 124.363 58.2495 125.717 57.8932 128.324C57.8917 128.336 57.8861 128.346 57.8774 128.354C57.8688 128.361 57.8576 128.366 57.846 128.366H55.4329C55.4286 128.366 55.4243 128.365 55.4203 128.363C55.4163 128.361 55.4128 128.359 55.4099 128.355C55.407 128.352 55.4049 128.348 55.4036 128.344C55.4024 128.34 55.402 128.335 55.4026 128.331L56.4783 120.461C56.4795 120.452 56.4839 120.444 56.4906 120.439C56.4972 120.433 56.5058 120.43 56.5146 120.43H58.8369C58.8411 120.43 58.8453 120.431 58.8492 120.432C58.8531 120.434 58.8566 120.437 58.8594 120.44C58.8622 120.443 58.8643 120.447 58.8655 120.451C58.8667 120.455 58.8671 120.459 58.8665 120.464L58.7312 121.455C58.7305 121.459 58.7311 121.463 58.7328 121.466C58.7346 121.469 58.7374 121.471 58.7408 121.473C58.7442 121.474 58.748 121.474 58.7516 121.473C58.7553 121.472 58.7585 121.47 58.7608 121.467Z" fill="#172A76"/>
<path d="M75.7482 120.283H78.1852C78.1888 120.283 78.1923 120.284 78.1956 120.285C78.1988 120.287 78.2017 120.289 78.2041 120.292C78.2064 120.294 78.2082 120.297 78.2092 120.301C78.2103 120.304 78.2105 120.308 78.2101 120.312L77.1315 128.275C77.1307 128.281 77.1278 128.287 77.1232 128.291C77.1186 128.295 77.1127 128.297 77.1066 128.297H74.6696C74.666 128.297 74.6625 128.296 74.6592 128.295C74.656 128.293 74.6531 128.291 74.6507 128.289C74.6484 128.286 74.6466 128.283 74.6456 128.279C74.6446 128.276 74.6443 128.272 74.6448 128.269L75.7233 120.305C75.7241 120.299 75.7271 120.293 75.7316 120.289C75.7362 120.285 75.7421 120.283 75.7482 120.283Z" fill="#172A76"/>
<path d="M-90.2415 168.81C-6.56276 154.695 78.394 146.745 163.653 148.389C168.373 148.501 173.139 148.653 177.857 148.844C177.688 151.839 177.519 154.834 177.35 157.829C172.693 157.492 167.983 157.192 163.314 156.932C78.919 152.61 -6.15764 157.811 -90.1704 169.255C-94.7759 169.917 -99.5617 170.645 -104.111 171.391C-99.5883 170.497 -94.8255 169.621 -90.2415 168.81Z" fill="#248C44"/>
<path d="M-89.9115 163.676C-6.70218 147.015 77.9726 136.478 163.242 135.52C167.964 135.489 172.732 135.495 177.453 135.542C177.376 138.541 177.298 141.539 177.221 144.538C172.555 144.343 167.838 144.187 163.163 144.069C78.6762 142.323 -6.2022 150.117 -89.8269 164.118C-94.4099 164.92 -99.1713 165.794 -103.696 166.679C-99.2025 165.647 -94.4686 164.626 -89.9115 163.676Z" fill="#F46C34"/>
</g>
<mask id="mask1_664_107772" style="mask-type:alpha" maskUnits="userSpaceOnUse" x="1" y="0" width="211" height="163">
<path d="M136.293 18.6747L1.15234 162.911H136.725L211.152 0.5H178.227C170.916 0.5 163.673 1.89495 156.885 4.61003C149.074 7.73439 142.045 12.5356 136.293 18.6747Z" fill="#1C325C"/>
</mask>
<g mask="url(#mask1_664_107772)">
<g style="mix-blend-mode:plus-lighter" filter="url(#filter0_f_664_107772)">
<line x1="123.7" y1="175.287" x2="204.7" y2="3.28697" stroke="url(#paint0_linear_664_107772)"/>
</g>
<g style="mix-blend-mode:plus-lighter" filter="url(#filter1_f_664_107772)">
<line x1="0.053614" y1="169.479" x2="158.054" y2="-0.521175" stroke="url(#paint1_linear_664_107772)" stroke-width="3"/>
</g>
<rect x="-32.9375" y="132.978" width="283.576" height="89" transform="rotate(-47.4383 -32.9375 132.978)" fill="url(#paint2_linear_664_107772)"/>
<path d="M209.152 10.5H193.711L163.669 70.0579M152.741 162.5L125.152 146.414L163.669 70.0579M163.669 70.0579H188.667" stroke="black" stroke-opacity="0.2" stroke-width="2"/>
<path d="M209.652 11.5H194.652L165.652 68.8M189.953 71.3H164.453L126.652 146" stroke="white" stroke-opacity="0.2" stroke-width="0.5"/>
<path d="M123.652 147L146.652 160.5" stroke="white" stroke-opacity="0.21" stroke-width="0.5" style="mix-blend-mode:overlay"/>
</g>
<defs>
<filter id="filter0_f_664_107772" x="117.246" y="-2.92627" width="93.9062" height="184.426" filterUnits="userSpaceOnUse" color-interpolation-filters="sRGB">
<feFlood flood-opacity="0" result="BackgroundImageFix"/>
<feBlend mode="normal" in="SourceGraphic" in2="BackgroundImageFix" result="shape"/>
<feGaussianBlur stdDeviation="3" result="effect1_foregroundBlur_664_107772"/>
</filter>
<filter id="filter1_f_664_107772" x="-12.0469" y="-12.5425" width="182.199" height="194.042" filterUnits="userSpaceOnUse" color-interpolation-filters="sRGB">
<feFlood flood-opacity="0" result="BackgroundImageFix"/>
<feBlend mode="normal" in="SourceGraphic" in2="BackgroundImageFix" result="shape"/>
<feGaussianBlur stdDeviation="5.5" result="effect1_foregroundBlur_664_107772"/>
</filter>
<linearGradient id="paint0_linear_664_107772" x1="205.605" y1="3.71302" x2="143.836" y2="149.682" gradientUnits="userSpaceOnUse">
<stop stop-color="white" stop-opacity="0"/>
<stop offset="1" stop-color="white"/>
</linearGradient>
<linearGradient id="paint1_linear_664_107772" x1="159.519" y1="0.840385" x2="34.8817" y2="148.74" gradientUnits="userSpaceOnUse">
<stop stop-color="white" stop-opacity="0"/>
<stop offset="1" stop-color="white"/>
</linearGradient>
<linearGradient id="paint2_linear_664_107772" x1="133.082" y1="221.978" x2="133.956" y2="126.389" gradientUnits="userSpaceOnUse">
<stop stop-color="white" stop-opacity="0"/>
<stop offset="1" stop-color="white" stop-opacity="0.5"/>
</linearGradient>
</defs>
</svg>
