<svg width="212" height="164" viewBox="0 0 212 164" fill="none" xmlns="http://www.w3.org/2000/svg">
<path d="M136.293 18.6747L1.15234 162.911H136.725L211.152 0.5H178.227C170.916 0.5 163.673 1.89495 156.885 4.61003C149.074 7.73439 142.045 12.5356 136.293 18.6747Z" fill="url(#paint0_linear_664_109078)"/>
<path d="M1.15234 162.911L136.293 18.6746C142.045 12.5356 149.074 7.73439 156.885 4.61003C163.673 1.89496 170.916 0.5 178.227 0.5H211.152M1.15234 162.911H136.725L211.152 0.5M1.15234 162.911L136.293 18.6747C142.045 12.5356 149.074 7.73439 156.885 4.61003C163.673 1.89495 170.916 0.5 178.227 0.5H211.152" stroke="#C2C2C2" stroke-opacity="0.4"/>
<mask id="mask0_664_109078" style="mask-type:alpha" maskUnits="userSpaceOnUse" x="1" y="0" width="211" height="163">
<path d="M136.293 18.6747L1.15234 162.911H136.725L211.152 0.5H178.227C170.916 0.5 163.673 1.89495 156.885 4.61003C149.074 7.73439 142.045 12.5356 136.293 18.6747Z" fill="#1C325C"/>
</mask>
<g mask="url(#mask0_664_109078)">
<path d="M175.239 -11.4075C47.0692 181.18 -113.022 299.909 -182.335 253.78C-251.648 207.651 -203.934 14.1334 -75.764 -178.454C52.4061 -371.042 212.498 -489.77 281.81 -443.642C351.123 -397.513 303.41 -203.995 175.239 -11.4075Z" fill="white"/>
<path d="M175.241 -11.4071C303.411 -203.995 351.124 -397.513 281.812 -443.642C212.499 -489.77 52.4075 -371.041 -75.7625 -178.454L-78.7515 -173.94C-204.175 16.3963 -250.738 206.509 -183.14 253.233L-182.334 253.78C-113.563 299.548 44.5748 183.025 172.231 -6.90693L175.241 -11.4071ZM179.404 -8.63687C115.085 88.0078 42.6427 166.305 -22.6396 214.721C-55.2626 238.915 -86.3242 255.816 -113.87 263.694C-141.391 271.566 -166.089 270.598 -185.104 257.943C-204.119 245.288 -214.548 222.878 -217.912 194.453C-221.28 166.001 -217.681 130.822 -207.959 91.3879C-188.502 12.475 -144.243 -84.5796 -79.9249 -181.224C-15.6065 -277.869 56.8353 -356.167 122.118 -404.582C154.741 -428.776 185.803 -445.679 213.349 -453.557C240.869 -461.428 265.567 -460.459 284.582 -447.804C303.597 -435.149 314.026 -412.741 317.391 -384.315C320.758 -355.863 317.159 -320.684 307.436 -281.25C287.98 -202.337 243.722 -105.281 179.404 -8.63687Z" fill="#0C67BB"/>
<path d="M175.239 -11.4075C47.0692 181.18 -113.022 299.909 -182.335 253.78C-251.648 207.651 -203.934 14.1334 -75.764 -178.454C52.4061 -371.042 212.498 -489.77 281.81 -443.642C351.123 -397.513 303.41 -203.995 175.239 -11.4075Z" fill="white"/>
<path d="M171.077 -14.1773C234.929 -110.12 278.612 -206.118 297.727 -283.643C307.289 -322.428 310.634 -356.315 307.459 -383.14C304.281 -409.99 294.681 -429.07 279.04 -439.479C263.399 -449.889 242.093 -451.377 216.097 -443.942C190.126 -436.515 160.158 -420.346 128.073 -396.551C63.939 -348.987 -7.75011 -271.627 -71.6017 -175.684C-135.453 -79.7412 -179.136 16.2566 -198.251 93.7815C-207.813 132.566 -211.158 166.453 -207.983 193.278C-204.805 220.128 -195.206 239.208 -179.565 249.618L-182.335 253.78L-183.142 253.233C-250.739 206.509 -204.177 16.3963 -78.7532 -173.94L-75.7641 -178.454C52.4059 -371.042 212.497 -489.77 281.81 -443.642C351.123 -397.513 303.41 -203.995 175.24 -11.4071L172.229 -6.90695C44.5732 183.025 -113.564 299.548 -182.335 253.78L-179.565 249.618C-163.924 260.027 -142.617 261.516 -116.621 254.08C-90.6505 246.652 -60.6822 230.484 -28.5972 206.689C35.5368 159.125 107.226 81.7654 171.077 -14.1773Z" fill="#31AAE3"/>
<path d="M136.26 95.0938C136.831 95.5594 137.431 95.9917 138.061 96.3906H138.06C138.946 96.9513 139.859 97.4656 140.798 97.9326C142.813 98.9344 144.932 99.7838 147.077 100.512C149.804 101.437 152.68 102.216 155.565 102.862L156.802 103.132L158.721 103.521H158.72L161.482 104.024C161.485 104.025 161.488 104.027 161.49 104.029C161.492 104.032 161.493 104.035 161.493 104.038C161.493 104.041 161.491 104.045 161.489 104.047C161.487 104.049 161.484 104.05 161.481 104.051C160.418 104.134 159.358 104.182 158.303 104.195L158.54 104.178C158.546 104.177 158.552 104.175 158.557 104.171L158.558 104.17C158.553 104.174 158.547 104.176 158.541 104.177L158.304 104.194C157.42 104.205 156.536 104.191 155.65 104.152L155.64 104.153L154.836 104.113C154.819 104.109 154.804 104.109 154.791 104.113C150.3 103.838 145.918 102.997 141.645 101.591C140.54 101.227 139.448 100.833 138.368 100.409L138.367 100.408L136.271 99.5518C136.236 99.245 136.203 98.9419 136.173 98.6426C136.052 97.4564 136.081 96.2734 136.26 95.0938ZM113.261 86.5039C113.607 86.6668 113.915 86.8229 114.186 86.9707C114.708 87.2574 115.292 87.5769 115.938 87.9287C117.09 88.5571 118.238 89.1212 119.381 89.6221C119.57 89.7048 119.713 89.7647 119.809 89.8018C119.826 89.8084 119.844 89.8116 119.862 89.8096C120.497 89.7407 121.046 89.7181 121.51 89.7422C122.151 89.7755 122.779 89.8882 123.393 90.0811C123.744 90.1915 124.098 90.3218 124.454 90.4717C124.806 90.6201 125.031 90.7128 125.127 90.749C126.853 91.404 128.632 91.518 130.466 91.0918C131.115 90.9395 131.669 90.7778 132.129 90.6064C132.862 90.3326 133.603 90.0625 134.352 89.7969V89.7979C135.285 89.4675 136.241 89.1876 137.22 88.96C137.064 89.235 136.835 89.6275 136.534 90.1357H136.535C136.836 89.6275 137.064 89.235 137.22 88.96C137.991 88.7837 138.779 88.6565 139.582 88.5781H139.583C140.519 88.4854 141.463 88.4657 142.413 88.5195C142.066 88.6497 141.727 88.8664 141.396 89.1689C140.982 89.5464 140.629 89.9057 140.338 90.2461C140.005 90.6348 139.748 90.9581 139.544 91.3799C138.715 91.6279 137.915 91.9455 137.146 92.335V92.3369C136.423 92.7181 135.739 93.1478 135.128 93.6885L135.047 93.7773C135.042 93.7824 135.039 93.789 135.038 93.7959C135.037 93.8026 135.04 93.8095 135.043 93.8154L135.124 93.9609C135.371 94.2715 135.645 94.5592 135.948 94.8232C136.048 94.9107 136.151 95.001 136.257 95.0938C136.078 96.2734 136.049 97.4565 136.17 98.6426C136.2 98.942 136.234 99.245 136.27 99.5518L134.8 98.9082L134.799 98.9072L132.643 97.8984L129.62 96.3701V96.3711C127.98 95.5062 126.36 94.6047 124.76 93.668C121.876 91.9789 119.097 90.2297 116.287 88.4629C115.396 87.9028 114.227 87.1837 113.167 86.6055C113.163 86.6034 113.16 86.6011 113.157 86.5977C113.155 86.5942 113.153 86.5901 113.152 86.5859C113.152 86.582 113.152 86.578 113.153 86.5742C113.154 86.5704 113.157 86.5664 113.159 86.5635L113.205 86.5146C113.212 86.5073 113.222 86.5029 113.231 86.501C113.241 86.4991 113.252 86.4996 113.261 86.5039ZM132.921 94.4336V94.4346V94.4336ZM135.682 91.8477C135.561 92.1464 135.452 92.4505 135.358 92.7578C135.452 92.4505 135.561 92.1464 135.682 91.8477ZM143.385 88.5967L143.432 88.5996L143.482 88.6055C143.497 88.6124 143.509 88.6111 143.521 88.6055C143.523 88.6047 143.526 88.6055 143.527 88.6045C145.039 88.7715 146.528 89.0392 147.995 89.4082C149.469 89.7787 150.912 90.2385 152.322 90.7871C154.016 91.4459 155.578 92.2002 157.008 93.0498C157.063 93.083 157.118 93.1161 157.173 93.1484C157.174 93.1492 157.175 93.1507 157.176 93.1523C157.176 93.1539 157.176 93.1557 157.176 93.1572L157.172 93.1611C157.17 93.1618 157.168 93.1619 157.166 93.1611C156.618 92.9347 156.058 92.7288 155.486 92.543C151.927 91.387 148.203 90.8158 144.42 90.75C142.736 90.7206 141.111 90.9305 139.545 91.3799C139.749 90.9581 140.006 90.6348 140.339 90.2461C140.63 89.9057 140.983 89.5465 141.396 89.1689C141.728 88.8662 142.068 88.6497 142.415 88.5195L143.385 88.5967Z" fill="#1C2C5C"/>
</g>
<mask id="mask1_664_109078" style="mask-type:alpha" maskUnits="userSpaceOnUse" x="1" y="0" width="211" height="163">
<path d="M136.293 18.6747L1.15234 162.911H136.725L211.152 0.5H178.227C170.916 0.5 163.673 1.89495 156.885 4.61003C149.074 7.73439 142.045 12.5356 136.293 18.6747Z" fill="#1C325C"/>
</mask>
<g mask="url(#mask1_664_109078)">
<g style="mix-blend-mode:plus-lighter" filter="url(#filter0_f_664_109078)">
<line x1="123.7" y1="175.287" x2="204.7" y2="3.28697" stroke="url(#paint1_linear_664_109078)"/>
</g>
<g style="mix-blend-mode:plus-lighter" filter="url(#filter1_f_664_109078)">
<line x1="0.053614" y1="169.479" x2="158.054" y2="-0.521175" stroke="url(#paint2_linear_664_109078)" stroke-width="3"/>
</g>
<rect x="-32.9375" y="132.978" width="283.576" height="89" transform="rotate(-47.4383 -32.9375 132.978)" fill="url(#paint3_linear_664_109078)"/>
<path d="M209.152 10.5H193.711L163.669 70.0579M152.741 162.5L125.152 146.414L163.669 70.0579M163.669 70.0579H188.667" stroke="black" stroke-opacity="0.2" stroke-width="2"/>
<path d="M209.652 11.5H194.652L165.652 68.8M189.953 71.3H164.453L126.652 146" stroke="white" stroke-opacity="0.2" stroke-width="0.5"/>
<path d="M123.652 147L146.652 160.5" stroke="white" stroke-opacity="0.21" stroke-width="0.5" style="mix-blend-mode:overlay"/>
</g>
<defs>
<filter id="filter0_f_664_109078" x="117.246" y="-2.92627" width="93.9062" height="184.426" filterUnits="userSpaceOnUse" color-interpolation-filters="sRGB">
<feFlood flood-opacity="0" result="BackgroundImageFix"/>
<feBlend mode="normal" in="SourceGraphic" in2="BackgroundImageFix" result="shape"/>
<feGaussianBlur stdDeviation="3" result="effect1_foregroundBlur_664_109078"/>
</filter>
<filter id="filter1_f_664_109078" x="-12.0469" y="-12.5425" width="182.199" height="194.042" filterUnits="userSpaceOnUse" color-interpolation-filters="sRGB">
<feFlood flood-opacity="0" result="BackgroundImageFix"/>
<feBlend mode="normal" in="SourceGraphic" in2="BackgroundImageFix" result="shape"/>
<feGaussianBlur stdDeviation="5.5" result="effect1_foregroundBlur_664_109078"/>
</filter>
<linearGradient id="paint0_linear_664_109078" x1="106.152" y1="0.5" x2="106.152" y2="162.911" gradientUnits="userSpaceOnUse">
<stop stop-color="#0195DB"/>
<stop offset="1" stop-color="#001B5E"/>
</linearGradient>
<linearGradient id="paint1_linear_664_109078" x1="205.605" y1="3.71302" x2="143.836" y2="149.682" gradientUnits="userSpaceOnUse">
<stop stop-color="white" stop-opacity="0"/>
<stop offset="1" stop-color="white"/>
</linearGradient>
<linearGradient id="paint2_linear_664_109078" x1="159.519" y1="0.840385" x2="34.8817" y2="148.74" gradientUnits="userSpaceOnUse">
<stop stop-color="white" stop-opacity="0"/>
<stop offset="1" stop-color="white"/>
</linearGradient>
<linearGradient id="paint3_linear_664_109078" x1="133.082" y1="221.978" x2="133.956" y2="126.389" gradientUnits="userSpaceOnUse">
<stop stop-color="white" stop-opacity="0"/>
<stop offset="1" stop-color="white" stop-opacity="0.5"/>
</linearGradient>
</defs>
</svg>
