<svg width="212" height="164" viewBox="0 0 212 164" fill="none" xmlns="http://www.w3.org/2000/svg">
<path d="M136.293 18.6747L1.15234 162.911H136.725L211.152 0.5H178.227C170.916 0.5 163.673 1.89495 156.885 4.61003C149.074 7.73439 142.045 12.5356 136.293 18.6747Z" fill="white"/>
<path d="M1.15234 162.911L136.293 18.6746C142.045 12.5356 149.074 7.73439 156.885 4.61003C163.673 1.89496 170.916 0.5 178.227 0.5H211.152M1.15234 162.911H136.725L211.152 0.5M1.15234 162.911L136.293 18.6747C142.045 12.5356 149.074 7.73439 156.885 4.61003C163.673 1.89495 170.916 0.5 178.227 0.5H211.152" stroke="#C2C2C2" stroke-opacity="0.4"/>
<mask id="mask0_664_123423" style="mask-type:alpha" maskUnits="userSpaceOnUse" x="1" y="0" width="211" height="163">
<path d="M136.293 18.6747L1.15234 162.911H136.725L211.152 0.5H178.227C170.916 0.5 163.673 1.89495 156.885 4.61003C149.074 7.73439 142.045 12.5356 136.293 18.6747Z" fill="#040404"/>
</mask>
<g mask="url(#mask0_664_123423)">
<rect x="81.1523" y="190.601" width="84.1642" height="10.4306" transform="rotate(-61.6945 81.1523 190.601)" fill="#034EA2"/>
<rect x="23.1523" y="220.461" width="143.067" height="23.1433" transform="rotate(-61.6945 23.1523 220.461)" fill="#FFDD00"/>
<circle cx="133.152" cy="71.5" r="55" fill="white"/>
<path d="M113.723 62.4688L113.854 63.0629" stroke="#819651" stroke-width="2"/>
<path d="M121.289 65.0522C121.052 65.4734 120.726 65.8868 120.312 66.2923" stroke="#819651" stroke-width="2"/>
<path d="M124.308 65.5354C124.318 65.642 124.319 65.712 124.311 65.7455C124.141 66.383 123.819 66.9396 123.344 67.4151" stroke="#819651" stroke-width="2"/>
<path d="M128.714 67.2896C128.675 67.415 128.63 67.508 128.577 67.5686C127.443 68.8886 125.811 70.0864 124.069 70.4015C123.768 70.4559 123.369 70.4804 122.871 70.4752" stroke="#819651" stroke-width="2"/>
<path d="M126.008 71.6699C125.955 71.7598 125.923 71.81 125.911 71.8204C124.514 73.0683 122.72 73.559 120.957 72.6153C120.94 72.6066 120.922 72.6027 120.903 72.6038C120.884 72.6049 120.865 72.611 120.85 72.6215C118.66 74.0592 117.008 76.149 117.771 78.9082" stroke="#819651" stroke-width="2"/>
<path d="M118.07 79.739C118.1 79.7631 118.104 79.7881 118.081 79.8143" stroke="#819651" stroke-width="2"/>
<path d="M120.917 83.1599C120.933 83.1442 120.941 83.1207 120.94 83.0893C120.94 83.0749 120.936 83.0609 120.929 83.0486C120.073 81.6596 119.4 80.0934 119.181 78.4645C119.156 78.2826 119.185 78.1071 119.268 77.9377" stroke="#819651" stroke-width="2"/>
<path d="M134.151 72.1905C134.159 72.0807 134.134 71.9417 134.078 71.7734" stroke="#819651" stroke-width="2"/>
<path d="M150.86 78.499C148.767 80.1232 146.3 81.0341 143.457 81.2316" stroke="#819651" stroke-width="2"/>
<path d="M146.53 82.2285C146.284 83.2287 145.457 84.0455 144.563 84.497C142.848 85.3656 140.918 85.5208 138.931 85.4973C137.775 85.4847 136.288 85.341 134.47 85.0661C133.304 84.889 132.065 84.8905 131.098 85.6979C130.733 86.0031 130.525 86.5121 130.473 87.2249" stroke="#819651" stroke-width="2"/>
<path d="M137.48 94.2844C137.51 94.3283 137.527 94.3759 137.533 94.4271" stroke="#819651" stroke-width="2"/>
<path d="M144.957 95.225C144.971 95.1404 144.992 95.075 145.021 95.0291" stroke="#819651" stroke-width="2"/>
<path d="M145.015 94.9053C145.125 94.4277 145.144 93.9412 145.075 93.4458C145.073 93.436 145.07 93.4267 145.064 93.4188C145.058 93.4109 145.05 93.4046 145.041 93.4005C145.032 93.3964 145.022 93.3947 145.012 93.3955C145.002 93.3963 144.993 93.3995 144.984 93.405C143.32 94.5165 141.336 94.6216 139.901 93.1134C139.851 93.0609 139.814 92.9968 139.795 92.9268C139.707 92.6049 139.556 92.3206 139.343 92.074C137.97 90.4812 136.203 89.0733 134.646 87.885C134.554 87.8139 134.531 87.7533 134.579 87.7031" stroke="#819651" stroke-width="2"/>
<path d="M145.234 90.3653C145.281 90.2273 145.295 90.1207 145.278 90.0454C145.094 89.2772 145.133 88.5195 145.396 87.7722" stroke="#819651" stroke-width="2"/>
<path d="M149.544 82.9734C149.153 84.2213 149.382 85.4175 149.67 86.6811" stroke="#819651" stroke-width="2"/>
<path d="M149.734 86.9177L149.834 87.2172" stroke="#819651" stroke-width="2"/>
<path d="M149.887 87.4446C150.811 90.0423 149.87 92.4896 147.039 93.0759C147.012 93.0815 146.987 93.097 146.97 93.1195C146.952 93.1419 146.944 93.1699 146.946 93.1982C146.994 93.9915 146.919 94.757 146.719 95.4949C145.617 99.571 140.783 99.5083 137.587 98.8248C137.577 98.8226 137.566 98.8228 137.556 98.8253C137.546 98.8278 137.536 98.8326 137.528 98.8392C137.52 98.8459 137.514 98.8543 137.51 98.8638C137.506 98.8732 137.504 98.8835 137.504 98.8938C137.529 99.8313 137.443 100.944 137.244 102.232C137.005 103.783 136.759 105.115 136.508 106.229" stroke="#819651" stroke-width="2"/>
<path d="M134.605 111.282L134.543 111.213" stroke="#133761" stroke-width="2"/>
<path d="M134.542 111.213C133.604 109.967 132.669 108.719 131.737 107.468C131.623 107.314 131.465 107.082 131.265 106.772C130.67 105.853 129.457 105.119 128.421 104.624C128.358 104.595 128.298 104.558 128.243 104.516C126.646 103.29 125.437 101.357 124.43 99.4659C124.368 99.3474 124.288 99.239 124.193 99.1445C123.776 98.7264 123.284 98.3288 122.719 97.9515C121.396 97.0693 119.927 96.182 118.311 95.2894C114.327 93.0883 110.176 90.9437 105.856 88.8554C105.774 88.815 105.699 88.7603 105.636 88.694C105.319 88.3553 104.918 87.9247 104.432 87.4021C103.369 86.2593 102.807 84.7307 102.314 83.2304C101.661 81.2404 101.093 79.2185 100.609 77.1648" stroke="#819651" stroke-width="2"/>
<path d="M113.21 71.9974C113.224 71.4696 113.02 71.04 112.597 70.7087C111.946 70.2023 110.716 70.7463 110.107 71.1414C110.1 71.1462 110.091 71.1489 110.082 71.1491C110.073 71.1493 110.065 71.147 110.057 71.1426C110.05 71.1382 110.044 71.1317 110.04 71.124C110.036 71.1163 110.034 71.1077 110.035 71.0991C110.041 71.0353 110.057 70.9773 110.084 70.925" stroke="#819651" stroke-width="2"/>
<path d="M114.736 67.948C114.763 67.8602 114.771 67.787 114.758 67.7285C114.753 67.7046 114.739 67.6835 114.719 67.6698C114.699 67.656 114.675 67.6506 114.651 67.6548C113.453 67.8618 112.322 67.6444 111.258 67.0026C111.242 66.9929 111.228 66.9795 111.218 66.9635C111.207 66.9476 111.2 66.9293 111.197 66.9101C111.093 66.1764 111.011 65.5101 110.949 64.9113C110.935 64.767 110.803 64.5444 110.555 64.2434" stroke="#819651" stroke-width="2"/>
<path d="M117.674 65.2983C117.674 65.17 117.646 65.0431 117.592 64.9247C117.538 64.8063 117.459 64.6987 117.359 64.6082C117.26 64.5177 117.141 64.446 117.011 64.3971C116.881 64.3483 116.742 64.3232 116.601 64.3235C116.46 64.3237 116.321 64.3492 116.191 64.3986C116.061 64.4479 115.943 64.52 115.844 64.6109C115.745 64.7018 115.666 64.8096 115.612 64.9282C115.559 65.0468 115.531 65.1738 115.531 65.3021C115.531 65.4303 115.559 65.5573 115.613 65.6757C115.668 65.7941 115.747 65.9016 115.846 65.9922C115.946 66.0827 116.064 66.1544 116.194 66.2033C116.324 66.2521 116.464 66.2771 116.604 66.2769C116.745 66.2766 116.885 66.2511 117.014 66.2018C117.144 66.1525 117.262 66.0804 117.362 65.9895C117.461 65.8986 117.54 65.7908 117.593 65.6722C117.647 65.5536 117.675 65.4266 117.674 65.2983Z" stroke="#819651" stroke-width="2"/>
<path d="M134.541 111.213L134.523 111.285" stroke="#917E10" stroke-width="2"/>
<path d="M114.639 56.5C115.384 57.4177 116.457 59.1761 115.81 60.3971C115.728 60.55 115.467 60.737 115.026 60.9581C114.649 61.1456 114.203 61.4012 113.686 61.7249C113.665 61.7382 113.647 61.7558 113.633 61.7765C113.619 61.7971 113.611 61.8203 113.607 61.8444C113.57 62.0811 113.58 62.2823 113.637 62.4478L113.77 63.0433C113.922 63.5305 114.219 63.7651 114.661 63.7473C117.048 63.653 119.258 64.0831 121.291 65.0375C121.051 65.4596 120.721 65.874 120.303 66.2804C121.852 66.6869 123.2 66.4339 124.346 65.5215C124.356 65.6283 124.357 65.6985 124.349 65.732C124.177 66.3711 123.851 66.9289 123.37 67.4056C123.356 67.416 123.347 67.427 123.344 67.4386C123.331 67.4794 123.347 67.5077 123.393 67.5234C124.658 67.965 125.988 67.9414 127.251 67.7324C127.781 67.6444 128.299 67.4936 128.805 67.2799C128.766 67.4056 128.72 67.4988 128.666 67.5596C127.519 68.8827 125.869 70.0832 124.106 70.3991C123.802 70.4536 123.398 70.4782 122.894 70.473C123.329 71.1801 123.984 71.5803 124.857 71.6735C125.302 71.7207 125.704 71.7196 126.064 71.6704C126.011 71.7605 125.978 71.8107 125.966 71.8212C124.552 73.0721 122.738 73.5639 120.954 72.6179C120.937 72.6093 120.918 72.6053 120.899 72.6064C120.88 72.6075 120.861 72.6137 120.846 72.6242C118.63 74.0652 116.959 76.1599 117.731 78.9256C117.722 78.9758 117.729 79.0193 117.753 79.056C117.745 79.1073 117.761 79.1471 117.798 79.1754C117.793 79.3116 117.82 79.3876 117.88 79.4033C117.891 79.5468 117.943 79.6652 118.037 79.7584C118.067 79.7825 118.071 79.8076 118.048 79.8338C118.743 81.2209 119.717 82.3722 120.969 83.2878C120.974 83.2905 120.979 83.2915 120.985 83.2906C120.991 83.2897 120.996 83.287 121 83.2828C121.003 83.2786 121.006 83.2732 121.006 83.2676C121.007 83.2619 121.005 83.2563 121.002 83.2516C120.983 83.2296 120.954 83.2082 120.917 83.1872C120.933 83.1715 120.941 83.1479 120.94 83.1165C120.94 83.1021 120.936 83.088 120.929 83.0756C120.063 81.6834 119.383 80.1135 119.16 78.4809C119.135 78.2986 119.164 78.1226 119.249 77.9529C119.337 77.8931 119.376 77.8025 119.365 77.681C119.456 77.6035 119.513 77.4924 119.537 77.3479C120.395 76.0258 121.583 75.0269 123.102 74.3512C124.731 73.6273 126.474 73.1129 128.332 72.8081C130.315 72.4823 132.316 72.3152 134.335 72.3068C134.342 72.3066 134.349 72.3043 134.355 72.3001C134.361 72.296 134.365 72.2901 134.368 72.2833C134.371 72.2766 134.371 72.2692 134.369 72.2622C134.368 72.2552 134.364 72.2488 134.358 72.2439L134.303 72.1921C134.311 72.0821 134.286 71.9427 134.229 71.7741C135.139 71.7793 136.049 71.6332 136.959 71.3357C138.346 70.882 139.546 70.3886 140.559 69.8554C146.161 66.909 151.291 62.9443 156.069 58.7298C156.076 58.7238 156.084 58.7199 156.093 58.7185C156.101 58.7171 156.11 58.7183 156.118 58.7219C156.126 58.7256 156.133 58.7315 156.139 58.7391C156.144 58.7466 156.146 58.7554 156.147 58.7644C156.248 63.5226 155.026 69.3038 150.84 72.2471C150.833 72.2518 150.827 72.2585 150.824 72.2663C150.821 72.2742 150.82 72.2829 150.821 72.2913C150.823 72.2998 150.827 72.3077 150.833 72.314C150.839 72.3204 150.847 72.325 150.855 72.3272C152.044 72.6022 153.828 72.6776 154.581 71.5054C154.585 71.4999 154.591 71.4956 154.597 71.4933C154.603 71.4909 154.61 71.4906 154.617 71.4924C154.623 71.4942 154.629 71.4979 154.632 71.5031C154.636 71.5083 154.638 71.5146 154.638 71.5211C154.639 71.6238 154.612 71.8804 154.558 72.2911C154.218 74.8137 153.101 76.8885 151.207 78.5154C149.091 80.1434 146.594 81.0564 143.718 81.2544C144.257 81.8861 144.924 82.2124 145.719 82.2334C146.077 82.2428 146.446 82.2496 146.828 82.2538C146.579 83.2564 145.743 84.0751 144.838 84.5276C143.102 85.3982 141.15 85.5538 139.14 85.5302C137.97 85.5176 136.466 85.3736 134.627 85.098C133.446 84.9205 132.193 84.9221 131.215 85.7313C130.846 86.0372 130.635 86.5474 130.582 87.2619C132.267 88.276 133.81 89.4472 135.214 90.7755C136.237 91.7446 137.033 92.8613 137.6 94.1258C137.59 94.2096 137.616 94.2803 137.676 94.3379C137.705 94.3819 137.723 94.4296 137.729 94.4809C137.725 94.615 137.738 94.6695 137.767 94.6443C137.749 94.7606 137.788 94.8486 137.884 94.9083C139.501 95.9172 142.389 97.3975 144.144 96.6557C144.69 96.4253 145.047 96.0041 145.214 95.3923C145.232 95.3609 145.239 95.3237 145.236 95.2808C145.25 95.1959 145.271 95.1304 145.301 95.0843C145.34 95.0414 145.339 95 145.298 94.9602C145.408 94.4814 145.428 93.9938 145.357 93.4972C145.356 93.4874 145.353 93.4781 145.347 93.4702C145.341 93.4623 145.333 93.4559 145.324 93.4519C145.315 93.4478 145.305 93.446 145.294 93.4468C145.284 93.4476 145.275 93.4509 145.266 93.4564C143.582 94.5705 141.575 94.6758 140.123 93.1641C140.072 93.1115 140.035 93.0472 140.016 92.9771C139.926 92.6544 139.774 92.3695 139.558 92.1222C138.169 90.5257 136.382 89.1146 134.807 87.9234C134.713 87.8522 134.69 87.7914 134.739 87.7412C134.843 87.7443 134.999 87.7679 135.097 87.7506C137.114 87.3933 139.078 87.4751 140.989 87.9957C142.627 88.442 144.169 89.3141 145.391 90.543C145.399 90.5512 145.409 90.5572 145.42 90.5602C145.431 90.5632 145.442 90.5632 145.453 90.5601C145.464 90.5571 145.474 90.5511 145.482 90.5428C145.49 90.5345 145.495 90.5242 145.498 90.5131L145.52 90.4094C145.567 90.2711 145.582 90.1643 145.564 90.0888C145.378 89.3188 145.418 88.5593 145.684 87.8103C145.705 87.8564 145.716 87.8297 145.717 87.7302C145.753 87.6956 145.768 87.6521 145.763 87.5997C146.381 86.2682 147.275 85.1059 148.447 84.1128C148.966 83.6738 149.444 83.303 149.882 83.0002C149.486 84.2511 149.718 85.45 150.01 86.7166C149.99 86.8622 150.01 86.9413 150.071 86.9539L150.172 87.254C150.142 87.3242 150.16 87.4002 150.227 87.4819C151.162 90.0857 150.21 92.5387 147.346 93.1264C147.318 93.132 147.293 93.1475 147.275 93.17C147.258 93.1926 147.249 93.2206 147.251 93.2489C147.301 94.0441 147.224 94.8114 147.022 95.551C145.907 99.6367 141.016 99.5739 137.783 98.8887C137.772 98.8865 137.762 98.8867 137.751 98.8892C137.741 98.8917 137.732 98.8965 137.723 98.9032C137.715 98.9099 137.709 98.9183 137.705 98.9278C137.701 98.9372 137.699 98.9475 137.699 98.9579C137.724 99.8976 137.637 101.013 137.436 102.303C137.194 103.858 136.945 105.194 136.691 106.31C137.208 106.879 137.645 107.455 138.001 108.037C139.261 110.099 140.238 112.513 141.138 114.985C141.167 115.067 141.206 115.146 141.255 115.219C141.533 115.641 141.932 116.085 142.449 116.55C143.303 117.315 144.353 118.175 145.597 119.132C146.184 119.583 146.658 119.846 147.019 119.919C147.573 120.032 148.114 120.004 148.645 119.834C148.653 119.831 148.662 119.83 148.671 119.831C148.68 119.832 148.688 119.835 148.696 119.839C148.704 119.843 148.711 119.849 148.716 119.856C148.722 119.863 148.726 119.871 148.728 119.88L149.928 124.429C149.93 124.439 149.93 124.45 149.927 124.46C149.924 124.471 149.917 124.48 149.909 124.487C149.901 124.494 149.89 124.498 149.879 124.499C149.868 124.501 149.857 124.499 149.847 124.495C149.245 124.213 148.599 123.832 147.909 123.352C144.71 121.129 141.676 118.596 138.692 116.07C138.222 115.671 137.781 115.22 137.369 114.716C136.476 113.621 135.607 112.508 134.762 111.375L134.699 111.306C133.75 110.057 132.805 108.806 131.862 107.552C131.746 107.398 131.587 107.165 131.384 106.854C130.783 105.933 129.555 105.198 128.507 104.701C128.443 104.672 128.383 104.636 128.327 104.593C126.711 103.364 125.488 101.427 124.469 99.5314C124.406 99.4127 124.325 99.3041 124.229 99.2093C123.807 98.7902 123.31 98.3916 122.738 98.0134C121.4 97.1293 119.913 96.2399 118.278 95.3452C114.248 93.1389 110.048 90.9893 105.677 88.8961C105.594 88.8556 105.519 88.8008 105.455 88.7343C105.134 88.3949 104.728 87.9632 104.237 87.4394C103.16 86.2939 102.592 84.7618 102.094 83.2579C101.433 81.2633 100.858 79.2367 100.369 77.1782C100.23 76.4176 100.117 75.9456 100.03 75.7623C99.1127 73.8389 97.1401 73.6252 95.319 74.4989C95.3067 74.5048 95.2959 74.5133 95.2872 74.5239C95.2786 74.5344 95.2724 74.5467 95.2691 74.5599C95.2658 74.5731 95.2654 74.5869 95.2681 74.6002C95.2707 74.6136 95.2762 74.6262 95.2843 74.6372C95.6394 75.1259 96.0891 75.833 96.1238 76.4412C96.1252 76.4647 96.1173 76.4878 96.1019 76.5054C96.0866 76.5231 96.065 76.5339 96.0418 76.5354L91.205 76.8984C91.1964 76.8992 91.1877 76.8976 91.1799 76.8938C91.172 76.89 91.1654 76.8841 91.1606 76.8768C91.1557 76.8694 91.1529 76.8608 91.1524 76.852C91.1519 76.8431 91.1537 76.8342 91.1577 76.8262L93.9556 71.3529C93.962 71.3404 93.972 71.3299 93.9844 71.3229C93.9967 71.316 94.0109 71.3127 94.025 71.3137L101.83 71.9249C101.841 71.9257 101.852 71.9289 101.862 71.9345C101.872 71.94 101.881 71.9477 101.887 71.957C101.894 71.9663 101.899 71.977 101.901 71.9883C101.903 71.9996 101.902 72.0112 101.9 72.0224C101.554 73.3486 102.416 74.9138 103.197 76.0263C103.208 76.0422 103.223 76.0555 103.239 76.0654C103.256 76.0754 103.275 76.0818 103.294 76.0841C103.313 76.0865 103.333 76.0848 103.352 76.0792C103.37 76.0736 103.387 76.0641 103.402 76.0515L105.281 74.403C105.367 74.328 105.472 74.2769 105.586 74.2553C107.438 73.9049 109.509 73.8059 111.516 73.6723C111.572 73.6693 111.627 73.6537 111.676 73.6268C112.163 73.3596 112.944 72.8269 113.064 72.2644L113.102 72.1449C113.154 72.1334 113.158 72.0847 113.116 71.9988C113.131 71.4698 112.924 71.0392 112.496 70.7071C111.838 70.1995 110.593 70.7448 109.978 71.1408C109.97 71.1456 109.961 71.1483 109.952 71.1485C109.943 71.1487 109.935 71.1465 109.927 71.142C109.919 71.1376 109.913 71.1311 109.909 71.1234C109.905 71.1157 109.904 71.107 109.905 71.0984C109.91 71.0345 109.927 70.9763 109.954 70.924C109.979 70.9418 109.999 70.9376 110.014 70.9114C110.037 70.8726 110.043 70.8339 110.031 70.7951L111.177 68.416C111.268 68.3238 111.319 68.219 111.33 68.1017C111.37 68.0137 111.42 67.9503 111.48 67.9116C111.502 67.8975 111.527 67.8902 111.553 67.8905C111.579 67.8908 111.604 67.8987 111.625 67.9131C112.228 68.317 114.371 69.5003 114.634 68.0907C114.66 68.0436 114.668 67.9933 114.66 67.9398C114.687 67.8518 114.694 67.7785 114.682 67.7199C114.677 67.6959 114.663 67.6748 114.642 67.661C114.622 67.6472 114.597 67.6418 114.573 67.646C113.361 67.8534 112.217 67.6355 111.141 66.9923C111.124 66.9825 111.11 66.9691 111.1 66.9531C111.089 66.9371 111.082 66.9188 111.079 66.8996C110.974 66.1642 110.89 65.4963 110.828 64.896C110.813 64.7515 110.68 64.5283 110.429 64.2266C109.745 63.4168 109 62.661 108.193 61.9591C108.137 61.9104 108.091 61.8504 108.059 61.7831C107.743 61.1063 107.524 60.3835 107.402 59.6145C107.401 59.6079 107.402 59.601 107.405 59.5949C107.407 59.5887 107.412 59.5836 107.418 59.5801C107.424 59.5767 107.431 59.5752 107.437 59.5757C107.444 59.5762 107.451 59.5788 107.456 59.5831L110.768 62.3064C110.774 62.3113 110.782 62.3147 110.79 62.316C110.798 62.3173 110.806 62.3166 110.813 62.3139C110.821 62.3113 110.828 62.3067 110.833 62.3007C110.838 62.2947 110.842 62.2875 110.844 62.2796L110.962 61.7265C110.971 61.688 110.984 61.6514 111.003 61.6181C111.308 61.0555 111.776 60.6291 112.406 60.3389C113.099 60.0184 113.533 59.7685 114.205 59.3175C114.227 59.303 114.244 59.2825 114.255 59.2586C114.265 59.2347 114.269 59.2083 114.265 59.1824C114.167 58.5428 113.511 58.007 113.007 57.5953C113.001 57.5903 112.996 57.5834 112.993 57.5755C112.991 57.5677 112.991 57.5592 112.994 57.5512C112.996 57.5433 113.001 57.5362 113.008 57.5308C113.014 57.5255 113.023 57.5222 113.031 57.5214L113.979 57.4491C114.007 57.4471 114.033 57.4343 114.052 57.4135C114.071 57.3926 114.08 57.3654 114.079 57.3376C114.064 56.974 114.169 56.6949 114.393 56.5H114.639ZM117.631 65.2839C117.631 65.1553 117.603 65.028 117.548 64.9094C117.493 64.7907 117.413 64.6829 117.312 64.5922C117.212 64.5014 117.092 64.4295 116.96 64.3806C116.829 64.3316 116.688 64.3065 116.545 64.3068C116.403 64.307 116.262 64.3326 116.131 64.382C115.999 64.4314 115.88 64.5037 115.779 64.5948C115.679 64.6859 115.599 64.794 115.545 64.9128C115.49 65.0317 115.463 65.1591 115.463 65.2876C115.463 65.4162 115.491 65.5434 115.546 65.6621C115.601 65.7808 115.681 65.8886 115.782 65.9793C115.882 66.0701 116.002 66.142 116.134 66.1909C116.265 66.2399 116.406 66.265 116.549 66.2647C116.691 66.2645 116.832 66.2389 116.963 66.1895C117.095 66.1401 117.214 66.0677 117.315 65.9767C117.415 65.8856 117.495 65.7775 117.549 65.6586C117.604 65.5398 117.631 65.4124 117.631 65.2839Z" fill="#034EA2"/>
<path d="M134.205 71.8261C134.26 71.9986 134.284 72.1411 134.277 72.2536C131.618 72.2493 129.015 72.5649 126.469 73.2003C124.044 73.8047 121.303 75.0439 119.947 77.3552C119.917 77.4088 119.9 77.4661 119.898 77.5272C119.81 77.629 119.754 77.7426 119.731 77.868C119.674 77.944 119.636 78.0367 119.617 78.146C119.535 78.3196 119.506 78.4996 119.531 78.6861C119.748 80.3561 120.41 81.9618 121.254 83.3859C121.261 83.3985 121.264 83.4129 121.264 83.4277C121.265 83.4598 121.258 83.4839 121.241 83.5C120.132 82.5581 119.2 81.4148 118.447 80.07C118.47 80.0432 118.466 80.0175 118.437 79.9928C118.408 79.8514 118.357 79.7303 118.285 79.6296C118.278 79.546 118.252 79.4683 118.205 79.3965C118.202 79.3472 118.187 79.3065 118.16 79.2744C118.162 79.2261 118.155 79.1817 118.139 79.141C117.387 76.3121 119.015 74.1695 121.172 72.6956C121.188 72.6848 121.205 72.6785 121.224 72.6774C121.243 72.6763 121.261 72.6804 121.278 72.6892C123.015 73.6568 124.782 73.1537 126.159 71.8743C126.17 71.8636 126.202 71.8121 126.254 71.72C126.004 71.6536 125.69 71.6219 125.312 71.6252C124.482 71.6316 123.767 71.2549 123.167 70.4952C123.658 70.5006 124.051 70.4754 124.347 70.4197C126.064 70.0966 127.671 68.8686 128.788 67.5153C128.84 67.4531 128.885 67.3577 128.923 67.2292C127.619 67.5935 126.406 67.7574 125.283 67.721C124.8 67.7049 124.25 67.5838 123.631 67.3577C124.099 66.8702 124.417 66.2996 124.584 65.646C124.592 65.6117 124.591 65.5399 124.581 65.4306C124.343 65.5602 124.12 65.6802 123.912 65.7906C123.656 65.9267 123.424 66.0231 123.217 66.0799C122.441 66.2932 121.583 66.3355 120.643 66.2069C121.051 65.7911 121.372 65.3674 121.605 64.9355C119.7 63.8425 117.543 63.3652 115.134 63.5034C114.803 63.5227 114.519 63.3202 114.281 62.8958L114.152 62.2867C116.551 61.094 119.035 60.2813 121.604 59.8484C129.363 58.5432 136.404 60.9783 142.56 65.9288C143.13 66.3875 143.654 66.8643 144.134 67.3593C144.14 67.3661 144.145 67.3742 144.149 67.3833C144.152 67.3923 144.153 67.4019 144.152 67.4115C144.151 67.421 144.148 67.4303 144.144 67.4385C144.139 67.4467 144.132 67.4537 144.125 67.459C142.019 68.9345 139.805 70.1368 137.483 71.0658C136.643 71.4012 135.55 71.6546 134.205 71.8261Z" fill="#FFDD00"/>
<path d="M134.152 110.972L134.135 111.043C126.057 114.026 117.791 112.164 110.611 107.862C109.872 107.42 109.368 107.086 109.098 106.859C102.51 101.32 98.705 93.2452 99.1945 84.6143C99.318 82.4268 99.7035 80.2018 100.351 77.9393C100.4 77.7677 100.47 77.6212 100.561 77.5C101.04 79.519 101.602 81.5067 102.249 83.463C102.737 84.938 103.292 86.4407 104.346 87.5642C104.826 88.078 105.224 88.5013 105.538 88.8342C105.6 88.8994 105.674 88.9532 105.755 88.9929C110.031 91.0459 114.141 93.1543 118.085 95.3181C119.684 96.1956 121.139 97.0679 122.448 97.9351C123.008 98.3061 123.495 98.697 123.907 99.108C124.002 99.201 124.081 99.3075 124.142 99.424C125.14 101.283 126.336 103.183 127.917 104.388C127.972 104.43 128.031 104.466 128.093 104.495C129.119 104.982 130.32 105.703 130.908 106.606C131.107 106.911 131.263 107.139 131.376 107.29C132.298 108.52 133.224 109.748 134.152 110.972Z" fill="#FFDD00"/>
<path d="M150.346 78.5C151.47 83.6549 151.465 89.3233 150.04 94.3736C148.388 100.226 145.101 104.856 140.178 108.263C139.587 108.673 138.96 109.078 138.296 109.479C138.278 109.49 138.258 109.497 138.237 109.499C138.216 109.501 138.195 109.499 138.175 109.493C138.155 109.486 138.137 109.475 138.121 109.461C138.106 109.446 138.093 109.429 138.085 109.409C137.602 108.275 136.951 107.316 136.133 106.53C136.383 105.403 136.626 104.056 136.863 102.489C137.059 101.187 137.145 100.063 137.121 99.1149C137.12 99.1045 137.122 99.0941 137.126 99.0846C137.13 99.075 137.136 99.0665 137.144 99.0598C137.152 99.0531 137.162 99.0482 137.172 99.0457C137.182 99.0432 137.192 99.043 137.202 99.0452C140.368 99.7361 145.156 99.7995 146.249 95.6794C146.447 94.9335 146.521 94.1597 146.473 93.3578C146.471 93.3292 146.48 93.301 146.497 93.2782C146.514 93.2555 146.538 93.2399 146.566 93.2342C149.37 92.6416 150.302 90.1679 149.387 87.5421C149.386 87.4629 149.368 87.3863 149.333 87.3123L149.234 87.0097L149.174 86.7704C148.888 85.4931 148.661 84.284 149.048 83.0226C149.058 83.0163 149.055 83.002 149.039 82.9798C149.036 82.9754 149.032 82.9716 149.028 82.9687C149.023 82.9659 149.018 82.9639 149.013 82.963C149.008 82.9621 149.002 82.9623 148.997 82.9636C148.992 82.9648 148.987 82.9671 148.982 82.9703C147.375 84.0955 145.66 85.7483 145.016 87.661L144.971 87.7925L144.939 87.8733C144.678 88.6287 144.639 89.3946 144.821 90.1711C144.839 90.2471 144.824 90.3549 144.778 90.4943C144.705 90.525 144.646 90.5181 144.6 90.4737C141.855 87.6974 138.035 87.0762 134.36 87.7101C134.302 87.7196 134.256 87.7507 134.222 87.8036C134.175 87.8543 134.197 87.9156 134.288 87.9874C135.83 89.1886 137.581 90.6116 138.941 92.2216C139.152 92.4709 139.301 92.7583 139.389 93.0837C139.408 93.1544 139.444 93.2192 139.494 93.2723C140.915 94.7967 142.881 94.6905 144.529 93.567C144.538 93.5615 144.547 93.5582 144.557 93.5574C144.567 93.5566 144.577 93.5583 144.586 93.5625C144.595 93.5666 144.602 93.5729 144.608 93.5809C144.614 93.5889 144.618 93.5983 144.619 93.6082C144.688 94.109 144.668 94.6007 144.56 95.0835C144.568 95.1247 144.569 95.1665 144.563 95.2087C144.534 95.2552 144.513 95.3212 144.5 95.4068L144.478 95.5193C143.258 98.3939 138.958 95.963 137.309 94.9472C137.263 94.9187 137.222 94.858 137.187 94.765L137.15 94.6002C137.144 94.5484 137.126 94.5004 137.097 94.456C137.099 94.3736 137.075 94.3023 137.023 94.2421L137.014 94.1391C137.011 94.1097 137.004 94.0808 136.992 94.0535C136.54 93.0182 135.958 92.1075 135.245 91.3215C133.79 89.7178 132.093 88.3841 130.152 87.3202C130.204 86.5998 130.41 86.0853 130.772 85.7768C131.73 84.9607 132.957 84.9591 134.112 85.1382C135.913 85.416 137.386 85.5613 138.531 85.5739C140.5 85.5977 142.411 85.4408 144.11 84.5629C144.996 84.1065 145.815 83.2809 146.059 82.2699L146.049 82.2113C146.046 82.1904 146.035 82.1715 146.019 82.1581C146.003 82.1447 145.982 82.1377 145.961 82.1384C145.457 82.1574 144.952 82.1268 144.447 82.0465C143.999 81.9757 143.521 81.7142 143.013 81.2621C145.83 81.0624 148.274 80.1417 150.346 78.5Z" fill="#FFDD00"/>
</g>
<mask id="mask1_664_123423" style="mask-type:alpha" maskUnits="userSpaceOnUse" x="1" y="0" width="211" height="163">
<path d="M136.293 18.6747L1.15234 162.911H136.725L211.152 0.5H178.227C170.916 0.5 163.673 1.89495 156.885 4.61003C149.074 7.73439 142.045 12.5356 136.293 18.6747Z" fill="#1C325C"/>
</mask>
<g mask="url(#mask1_664_123423)">
<g style="mix-blend-mode:plus-lighter" filter="url(#filter0_f_664_123423)">
<line x1="123.7" y1="175.287" x2="204.7" y2="3.28697" stroke="url(#paint0_linear_664_123423)"/>
</g>
<g style="mix-blend-mode:plus-lighter" filter="url(#filter1_f_664_123423)">
<line x1="0.053614" y1="169.479" x2="158.054" y2="-0.521175" stroke="url(#paint1_linear_664_123423)" stroke-width="3"/>
</g>
<rect x="-32.9375" y="132.977" width="283.576" height="89" transform="rotate(-47.4383 -32.9375 132.977)" fill="url(#paint2_linear_664_123423)"/>
<path d="M209.152 10.5H193.711L163.669 70.0579M152.741 162.5L125.152 146.414L163.669 70.0579M163.669 70.0579H188.667" stroke="black" stroke-opacity="0.2" stroke-width="2"/>
<path d="M209.652 11.5H194.652L165.652 68.8M189.953 71.3H164.453L126.652 146" stroke="white" stroke-opacity="0.2" stroke-width="0.5"/>
<path d="M123.652 147L146.652 160.5" stroke="white" stroke-opacity="0.21" stroke-width="0.5" style="mix-blend-mode:overlay"/>
</g>
<defs>
<filter id="filter0_f_664_123423" x="117.246" y="-2.92603" width="93.9062" height="184.426" filterUnits="userSpaceOnUse" color-interpolation-filters="sRGB">
<feFlood flood-opacity="0" result="BackgroundImageFix"/>
<feBlend mode="normal" in="SourceGraphic" in2="BackgroundImageFix" result="shape"/>
<feGaussianBlur stdDeviation="3" result="effect1_foregroundBlur_664_123423"/>
</filter>
<filter id="filter1_f_664_123423" x="-12.0469" y="-12.5422" width="182.199" height="194.042" filterUnits="userSpaceOnUse" color-interpolation-filters="sRGB">
<feFlood flood-opacity="0" result="BackgroundImageFix"/>
<feBlend mode="normal" in="SourceGraphic" in2="BackgroundImageFix" result="shape"/>
<feGaussianBlur stdDeviation="5.5" result="effect1_foregroundBlur_664_123423"/>
</filter>
<linearGradient id="paint0_linear_664_123423" x1="205.605" y1="3.71302" x2="143.836" y2="149.682" gradientUnits="userSpaceOnUse">
<stop stop-color="white" stop-opacity="0"/>
<stop offset="1" stop-color="white"/>
</linearGradient>
<linearGradient id="paint1_linear_664_123423" x1="159.519" y1="0.840385" x2="34.8817" y2="148.74" gradientUnits="userSpaceOnUse">
<stop stop-color="white" stop-opacity="0"/>
<stop offset="1" stop-color="white"/>
</linearGradient>
<linearGradient id="paint2_linear_664_123423" x1="133.082" y1="221.977" x2="133.956" y2="126.389" gradientUnits="userSpaceOnUse">
<stop stop-color="white" stop-opacity="0"/>
<stop offset="1" stop-color="white" stop-opacity="0.5"/>
</linearGradient>
</defs>
</svg>
