<svg width="212" height="164" viewBox="0 0 212 164" fill="none" xmlns="http://www.w3.org/2000/svg">
<path d="M136.295 18.6747L1.1543 162.911H136.727L211.154 0.5H178.229C170.918 0.5 163.675 1.89495 156.887 4.61003C149.076 7.73439 142.047 12.5356 136.295 18.6747Z" fill="white" stroke="#C2C2C2" stroke-opacity="0.4"/>
<mask id="mask0_664_104194" style="mask-type:alpha" maskUnits="userSpaceOnUse" x="1" y="0" width="211" height="163">
<path d="M136.295 18.6747L1.1543 162.911H136.727L211.154 0.5H178.229C170.918 0.5 163.675 1.89495 156.887 4.61003C149.076 7.73439 142.047 12.5356 136.295 18.6747Z" fill="white"/>
</mask>
<g mask="url(#mask0_664_104194)">
<rect x="-37.8457" y="22.5" width="278" height="44" fill="#65B1EB"/>
<rect x="-37.8457" y="66.5" width="278" height="44" fill="#1E69A0"/>
<rect x="-37.8457" y="110.5" width="278" height="44" fill="#013F7C"/>
<rect x="-37.8457" y="154.5" width="278" height="44" fill="#002454"/>
<rect x="-37.8457" y="-21.5" width="278" height="44" fill="#FFCD00"/>
<ellipse cx="155.834" cy="44.8329" rx="59.865" ry="102.384" transform="rotate(12.9005 155.834 44.8329)" fill="white" fill-opacity="0.1"/>
</g>
<mask id="mask1_664_104194" style="mask-type:alpha" maskUnits="userSpaceOnUse" x="1" y="0" width="211" height="163">
<path d="M136.295 18.6747L1.1543 162.911H136.727L211.154 0.5H178.229C170.918 0.5 163.675 1.89495 156.887 4.61003C149.076 7.73439 142.047 12.5356 136.295 18.6747Z" fill="#1C325C"/>
</mask>
<g mask="url(#mask1_664_104194)">
<g style="mix-blend-mode:plus-lighter" filter="url(#filter0_f_664_104194)">
<line x1="123.702" y1="175.287" x2="204.702" y2="3.28697" stroke="url(#paint0_linear_664_104194)"/>
</g>
<g style="mix-blend-mode:plus-lighter" filter="url(#filter1_f_664_104194)">
<line x1="0.0555671" y1="169.479" x2="158.056" y2="-0.521175" stroke="url(#paint1_linear_664_104194)" stroke-width="3"/>
</g>
<rect x="-32.9355" y="132.977" width="283.576" height="89" transform="rotate(-47.4383 -32.9355 132.977)" fill="url(#paint2_linear_664_104194)"/>
<path d="M209.154 10.5H193.713L163.67 70.0579M152.743 162.5L125.154 146.414L163.67 70.0579M163.67 70.0579H188.669" stroke="black" stroke-opacity="0.2" stroke-width="2"/>
<path d="M209.654 11.5H194.654L165.654 68.8M189.955 71.3H164.455L126.654 146" stroke="white" stroke-opacity="0.2" stroke-width="0.5"/>
<path d="M123.654 147L146.654 160.5" stroke="white" stroke-opacity="0.21" stroke-width="0.5" style="mix-blend-mode:overlay"/>
</g>
<defs>
<filter id="filter0_f_664_104194" x="117.25" y="-2.92603" width="93.9043" height="184.426" filterUnits="userSpaceOnUse" color-interpolation-filters="sRGB">
<feFlood flood-opacity="0" result="BackgroundImageFix"/>
<feBlend mode="normal" in="SourceGraphic" in2="BackgroundImageFix" result="shape"/>
<feGaussianBlur stdDeviation="3" result="effect1_foregroundBlur_664_104194"/>
</filter>
<filter id="filter1_f_664_104194" x="-12.043" y="-12.5422" width="182.197" height="194.042" filterUnits="userSpaceOnUse" color-interpolation-filters="sRGB">
<feFlood flood-opacity="0" result="BackgroundImageFix"/>
<feBlend mode="normal" in="SourceGraphic" in2="BackgroundImageFix" result="shape"/>
<feGaussianBlur stdDeviation="5.5" result="effect1_foregroundBlur_664_104194"/>
</filter>
<linearGradient id="paint0_linear_664_104194" x1="205.607" y1="3.71302" x2="143.838" y2="149.682" gradientUnits="userSpaceOnUse">
<stop stop-color="white" stop-opacity="0"/>
<stop offset="1" stop-color="white"/>
</linearGradient>
<linearGradient id="paint1_linear_664_104194" x1="159.521" y1="0.840385" x2="34.8837" y2="148.74" gradientUnits="userSpaceOnUse">
<stop stop-color="white" stop-opacity="0"/>
<stop offset="1" stop-color="white"/>
</linearGradient>
<linearGradient id="paint2_linear_664_104194" x1="133.084" y1="221.977" x2="133.958" y2="126.389" gradientUnits="userSpaceOnUse">
<stop stop-color="white" stop-opacity="0"/>
<stop offset="1" stop-color="white" stop-opacity="0.5"/>
</linearGradient>
</defs>
</svg>
