<svg width="212" height="164" viewBox="0 0 212 164" fill="none" xmlns="http://www.w3.org/2000/svg">
<path d="M136.297 18.6747L1.15625 162.911H136.729L211.156 0.5H178.231C170.92 0.5 163.677 1.89495 156.889 4.61003C149.078 7.73439 142.049 12.5356 136.297 18.6747Z" fill="#8FD6E8"/>
<path d="M1.15625 162.911L136.297 18.6746C142.049 12.5356 149.078 7.73439 156.889 4.61003C163.677 1.89496 170.92 0.5 178.231 0.5H211.156M1.15625 162.911H136.729L211.156 0.5M1.15625 162.911L136.297 18.6747C142.049 12.5356 149.078 7.73439 156.889 4.61003C163.677 1.89495 170.92 0.5 178.231 0.5H211.156" stroke="#C2C2C2" stroke-opacity="0.4"/>
<mask id="mask0_664_133301" style="mask-type:alpha" maskUnits="userSpaceOnUse" x="1" y="0" width="211" height="163">
<path d="M136.297 18.6747L1.15625 162.911H136.729L211.156 0.5H178.231C170.92 0.5 163.677 1.89495 156.889 4.61003C149.078 7.73439 142.049 12.5356 136.297 18.6747Z" fill="#100D5C"/>
</mask>
<g mask="url(#mask0_664_133301)">
<path d="M71.3724 87.8783C152.326 3.5432 298.836 1.2659 321.154 12.0762L216.656 159C142.918 164.991 -26.8948 190.25 71.3724 87.8783Z" fill="white"/>
<path d="M103.481 72.4242C103.454 72.4169 103.431 72.4015 103.414 72.38C103.396 72.3586 103.386 72.332 103.383 72.3039C103.381 72.2757 103.387 72.2472 103.401 72.222C103.414 72.1967 103.435 72.176 103.46 72.1624C128.192 59.3514 156.701 78.7255 153.975 106.737C153.21 114.604 149.868 121.662 143.947 127.912C143.88 127.983 143.795 128.034 143.702 128.059C143.609 128.085 143.511 128.084 143.418 128.056C140.551 127.194 138.468 125.879 137.168 124.112C133.678 119.38 131.369 116.065 130.242 114.166C128.861 111.853 127.424 109.744 125.93 107.838C120.858 101.371 114.682 99.1312 106.836 98.0195C106.805 98.0163 106.777 98.0024 106.755 97.9801C106.734 97.9578 106.72 97.9286 106.718 97.8975C106.715 97.8663 106.724 97.8353 106.741 97.8098C106.759 97.7842 106.785 97.7658 106.815 97.7576C113.092 95.8336 119.141 93.0009 123.653 88.5435C126.374 85.8606 129.137 81.1733 127.024 77.4375C123.806 71.7508 109.969 72.0074 104.157 72.4937C103.921 72.5115 103.696 72.4884 103.481 72.4242Z" fill="#109CDA"/>
<path d="M85.9718 98.713C85.9254 98.7179 85.8786 98.7119 85.8349 98.6953C85.7913 98.6788 85.7521 98.6522 85.7204 98.6178C85.6887 98.5833 85.6655 98.5418 85.6525 98.4967C85.6395 98.4516 85.6371 98.4041 85.6456 98.3579C87.4732 87.3381 93.0123 78.9637 102.263 73.2346C102.519 73.0731 102.82 73.0004 103.121 73.0279C107.235 73.3778 111.661 74.5282 114.376 77.375C120.58 83.8851 109.608 91.6304 104.668 94.0956C100.062 96.3893 95.2258 97.7888 90.1603 98.2942C87.7433 98.531 86.3472 98.6706 85.9718 98.713Z" fill="#009A5B"/>
<path d="M85.0312 105.267V100.587L85.2372 99.2124C85.259 99.0707 85.3311 98.942 85.44 98.8504C85.5489 98.7588 85.687 98.7107 85.8285 98.715C90.6048 98.8505 95.0503 99.1946 99.1649 99.7472C107.866 100.924 114.196 109.684 118.964 116.584C119.534 117.404 119.826 117.826 119.84 117.851C124.345 124.701 130.862 128.311 139.391 128.682C139.602 128.689 140.608 128.717 142.411 128.767C142.436 128.767 142.461 128.775 142.481 128.791C142.502 128.806 142.518 128.827 142.526 128.852C142.535 128.876 142.536 128.904 142.529 128.93C142.523 128.955 142.509 128.979 142.49 128.997C120.442 148.246 87.7397 134.265 85.0312 105.267Z" fill="#023894"/>
</g>
<mask id="mask1_664_133301" style="mask-type:alpha" maskUnits="userSpaceOnUse" x="1" y="0" width="211" height="163">
<path d="M136.297 18.6747L1.15625 162.911H136.729L211.156 0.5H178.231C170.92 0.5 163.677 1.89495 156.889 4.61003C149.078 7.73439 142.049 12.5356 136.297 18.6747Z" fill="#1C325C"/>
</mask>
<g mask="url(#mask1_664_133301)">
<g style="mix-blend-mode:plus-lighter" filter="url(#filter0_f_664_133301)">
<line x1="123.704" y1="175.287" x2="204.704" y2="3.28697" stroke="url(#paint0_linear_664_133301)"/>
</g>
<g style="mix-blend-mode:plus-lighter" filter="url(#filter1_f_664_133301)">
<line x1="0.0575203" y1="169.479" x2="158.058" y2="-0.521175" stroke="url(#paint1_linear_664_133301)" stroke-width="3"/>
</g>
<rect x="-32.9375" y="132.977" width="283.576" height="89" transform="rotate(-47.4383 -32.9375 132.977)" fill="url(#paint2_linear_664_133301)"/>
<path d="M209.156 10.5H193.715L163.672 70.0579M152.744 162.5L125.156 146.414L163.672 70.0579M163.672 70.0579H188.671" stroke="black" stroke-opacity="0.2" stroke-width="2"/>
<path d="M209.656 11.5H194.656L165.656 68.8M189.957 71.3H164.457L126.656 146" stroke="white" stroke-opacity="0.2" stroke-width="0.5"/>
<path d="M123.656 147L146.656 160.5" stroke="white" stroke-opacity="0.21" stroke-width="0.5" style="mix-blend-mode:overlay"/>
</g>
<defs>
<filter id="filter0_f_664_133301" x="117.25" y="-2.92603" width="93.9062" height="184.426" filterUnits="userSpaceOnUse" color-interpolation-filters="sRGB">
<feFlood flood-opacity="0" result="BackgroundImageFix"/>
<feBlend mode="normal" in="SourceGraphic" in2="BackgroundImageFix" result="shape"/>
<feGaussianBlur stdDeviation="3" result="effect1_foregroundBlur_664_133301"/>
</filter>
<filter id="filter1_f_664_133301" x="-12.0391" y="-12.5424" width="182.195" height="194.042" filterUnits="userSpaceOnUse" color-interpolation-filters="sRGB">
<feFlood flood-opacity="0" result="BackgroundImageFix"/>
<feBlend mode="normal" in="SourceGraphic" in2="BackgroundImageFix" result="shape"/>
<feGaussianBlur stdDeviation="5.5" result="effect1_foregroundBlur_664_133301"/>
</filter>
<linearGradient id="paint0_linear_664_133301" x1="205.609" y1="3.71302" x2="143.84" y2="149.682" gradientUnits="userSpaceOnUse">
<stop stop-color="white" stop-opacity="0"/>
<stop offset="1" stop-color="white"/>
</linearGradient>
<linearGradient id="paint1_linear_664_133301" x1="159.522" y1="0.840385" x2="34.8856" y2="148.74" gradientUnits="userSpaceOnUse">
<stop stop-color="white" stop-opacity="0"/>
<stop offset="1" stop-color="white"/>
</linearGradient>
<linearGradient id="paint2_linear_664_133301" x1="133.082" y1="221.977" x2="133.956" y2="126.389" gradientUnits="userSpaceOnUse">
<stop stop-color="white" stop-opacity="0"/>
<stop offset="1" stop-color="white" stop-opacity="0.5"/>
</linearGradient>
</defs>
</svg>
