<svg width="212" height="164" viewBox="0 0 212 164" fill="none" xmlns="http://www.w3.org/2000/svg">
<path d="M136.297 18.6747L1.15625 162.911H136.729L211.156 0.5H178.231C170.92 0.5 163.677 1.89495 156.889 4.61003C149.078 7.73439 142.049 12.5356 136.297 18.6747Z" fill="white"/>
<path d="M1.15625 162.911L136.297 18.6746C142.049 12.5356 149.078 7.73439 156.889 4.61003C163.677 1.89496 170.92 0.5 178.231 0.5H211.156M1.15625 162.911H136.729L211.156 0.5M1.15625 162.911L136.297 18.6747C142.049 12.5356 149.078 7.73439 156.889 4.61003C163.677 1.89495 170.92 0.5 178.231 0.5H211.156" stroke="#C2C2C2" stroke-opacity="0.4"/>
<mask id="mask0_664_141836" style="mask-type:alpha" maskUnits="userSpaceOnUse" x="1" y="0" width="211" height="163">
<path d="M136.297 18.6747L1.15625 162.911H136.729L211.156 0.5H178.231C170.92 0.5 163.677 1.89495 156.889 4.61003C149.078 7.73439 142.049 12.5356 136.297 18.6747Z" fill="#100D5C"/>
</mask>
<g mask="url(#mask0_664_141836)">
<path d="M89.9975 134.15C85.8494 134.15 82.108 131.714 80.4813 127.899L51.6889 60.6754C49.4115 55.3982 51.8515 49.3904 57.1383 47.1172C62.4251 44.8439 68.4438 47.2795 70.7212 52.5567L89.9975 97.6157L109.274 52.5567C111.551 47.2795 117.57 44.8439 122.857 47.1172C128.143 49.3904 130.583 55.3982 128.306 60.6754L99.5136 127.899C97.8869 131.714 94.1455 134.15 89.9975 134.15Z" fill="#7D4697"/>
<path d="M185.763 135.734C181.696 135.734 177.873 133.38 176.247 129.402L156.97 83.3684L137.776 129.402C135.579 134.679 129.561 137.114 124.274 134.922C118.987 132.73 116.547 126.723 118.743 121.445L147.536 52.5984C149.162 48.7826 152.904 46.2657 157.052 46.2657C161.2 46.2657 165.023 48.7826 166.568 52.5984L195.36 121.445C197.556 126.723 195.035 132.73 189.83 134.922C188.447 135.491 187.064 135.734 185.763 135.734Z" fill="#6FB92C"/>
</g>
<mask id="mask1_664_141836" style="mask-type:alpha" maskUnits="userSpaceOnUse" x="1" y="0" width="211" height="163">
<path d="M136.297 18.6747L1.15625 162.911H136.729L211.156 0.5H178.231C170.92 0.5 163.677 1.89495 156.889 4.61003C149.078 7.73439 142.049 12.5356 136.297 18.6747Z" fill="#1C325C"/>
</mask>
<g mask="url(#mask1_664_141836)">
<g style="mix-blend-mode:plus-lighter" filter="url(#filter0_f_664_141836)">
<line x1="123.704" y1="175.287" x2="204.704" y2="3.28697" stroke="url(#paint0_linear_664_141836)"/>
</g>
<g style="mix-blend-mode:plus-lighter" filter="url(#filter1_f_664_141836)">
<line x1="0.0575203" y1="169.479" x2="158.058" y2="-0.521175" stroke="url(#paint1_linear_664_141836)" stroke-width="3"/>
</g>
<rect x="-32.9375" y="132.977" width="283.576" height="89" transform="rotate(-47.4383 -32.9375 132.977)" fill="url(#paint2_linear_664_141836)"/>
<path d="M209.156 10.5H193.715L163.672 70.0579M152.744 162.5L125.156 146.414L163.672 70.0579M163.672 70.0579H188.671" stroke="black" stroke-opacity="0.2" stroke-width="2"/>
<path d="M209.656 11.5H194.656L165.656 68.8M189.957 71.3H164.457L126.656 146" stroke="white" stroke-opacity="0.2" stroke-width="0.5"/>
<path d="M123.656 147L146.656 160.5" stroke="white" stroke-opacity="0.21" stroke-width="0.5" style="mix-blend-mode:overlay"/>
</g>
<defs>
<filter id="filter0_f_664_141836" x="117.25" y="-2.92606" width="93.9062" height="184.426" filterUnits="userSpaceOnUse" color-interpolation-filters="sRGB">
<feFlood flood-opacity="0" result="BackgroundImageFix"/>
<feBlend mode="normal" in="SourceGraphic" in2="BackgroundImageFix" result="shape"/>
<feGaussianBlur stdDeviation="3" result="effect1_foregroundBlur_664_141836"/>
</filter>
<filter id="filter1_f_664_141836" x="-12.0391" y="-12.5423" width="182.195" height="194.042" filterUnits="userSpaceOnUse" color-interpolation-filters="sRGB">
<feFlood flood-opacity="0" result="BackgroundImageFix"/>
<feBlend mode="normal" in="SourceGraphic" in2="BackgroundImageFix" result="shape"/>
<feGaussianBlur stdDeviation="5.5" result="effect1_foregroundBlur_664_141836"/>
</filter>
<linearGradient id="paint0_linear_664_141836" x1="205.609" y1="3.71302" x2="143.84" y2="149.682" gradientUnits="userSpaceOnUse">
<stop stop-color="white" stop-opacity="0"/>
<stop offset="1" stop-color="white"/>
</linearGradient>
<linearGradient id="paint1_linear_664_141836" x1="159.522" y1="0.840385" x2="34.8856" y2="148.74" gradientUnits="userSpaceOnUse">
<stop stop-color="white" stop-opacity="0"/>
<stop offset="1" stop-color="white"/>
</linearGradient>
<linearGradient id="paint2_linear_664_141836" x1="133.082" y1="221.977" x2="133.956" y2="126.389" gradientUnits="userSpaceOnUse">
<stop stop-color="white" stop-opacity="0"/>
<stop offset="1" stop-color="white" stop-opacity="0.5"/>
</linearGradient>
</defs>
</svg>
