<svg width="212" height="164" viewBox="0 0 212 164" fill="none" xmlns="http://www.w3.org/2000/svg">
<path d="M136.297 18.6747L1.15625 162.911H136.729L211.156 0.5H178.231C170.92 0.5 163.677 1.89495 156.889 4.61003C149.078 7.73439 142.049 12.5356 136.297 18.6747Z" fill="white"/>
<path d="M1.15625 162.911L136.297 18.6746C142.049 12.5356 149.078 7.73439 156.889 4.61003C163.677 1.89496 170.92 0.5 178.231 0.5H211.156M1.15625 162.911H136.729L211.156 0.5M1.15625 162.911L136.297 18.6747C142.049 12.5356 149.078 7.73439 156.889 4.61003C163.677 1.89495 170.92 0.5 178.231 0.5H211.156" stroke="#C2C2C2" stroke-opacity="0.4"/>
<mask id="mask0_664_135536" style="mask-type:alpha" maskUnits="userSpaceOnUse" x="1" y="0" width="211" height="163">
<path d="M136.297 18.6747L1.15625 162.911H136.729L211.156 0.5H178.231C170.92 0.5 163.677 1.89495 156.889 4.61003C149.078 7.73439 142.049 12.5356 136.297 18.6747Z" fill="#100D5C"/>
</mask>
<g mask="url(#mask0_664_135536)">
<path d="M107.167 45.149C107.163 45.153 107.16 45.1579 107.158 45.1633C107.156 45.1688 107.156 45.1746 107.157 45.1802C107.158 45.1858 107.161 45.1911 107.164 45.1954C107.168 45.1998 107.173 45.2031 107.178 45.2052C121.285 50.3854 132.698 60.9703 139.297 74.5854C141.016 78.1287 142.233 81.7056 143.224 85.4333C143.235 85.4742 143.255 85.5119 143.284 85.5429C143.313 85.574 143.349 85.5974 143.389 85.6112C143.58 85.6797 143.908 85.7775 144.372 85.9046C150.283 87.5352 156.317 89.5585 161.9 91.436C165.12 92.5198 168.108 93.4177 171.469 94.4951C171.491 94.5027 171.516 94.5015 171.538 94.4917C171.559 94.4819 171.577 94.4642 171.586 94.4422C187.142 59.1335 203.324 23.86 220.132 -11.3781C220.15 -11.4166 220.158 -11.4396 220.156 -11.447C220.144 -11.4834 220.12 -11.501 220.083 -11.5C211.2 -11.253 202.498 -10.8773 193.977 -10.3728C189.715 -10.1195 185.858 -9.81223 182.406 -9.45095C180.499 -9.25107 178.76 -8.99668 177.187 -8.68778C173.294 -7.92462 169.519 -7.2336 166.268 -5.89646C164.424 -5.13757 162.656 -4.20018 160.962 -3.08429C159.54 -2.14797 158.487 -1.46657 157.2 -0.342665C153.54 2.85643 150.98 5.11546 149.519 6.43443C136.941 17.8007 122.824 30.7056 107.167 45.149Z" fill="#28396E"/>
<path d="M95.5636 54.5072C95.5103 54.4956 95.4553 54.498 95.403 54.5143C95.3508 54.5305 95.3027 54.5601 95.2625 54.6008L89.2676 60.7397C89.246 60.7622 89.2298 60.7902 89.2202 60.8214C89.2107 60.8525 89.2082 60.8858 89.2128 60.9183C89.2615 61.2602 89.336 61.6174 89.2691 62.0189C89.2326 62.2423 89.2128 62.4555 89.2098 62.6585C89.1439 67.4292 89.1388 72.2946 89.1946 77.2548C89.195 77.2881 89.2013 77.321 89.2132 77.3516C89.2252 77.3821 89.2424 77.4096 89.264 77.4325C89.2856 77.4554 89.311 77.4731 89.3388 77.4846C89.3665 77.4962 89.3961 77.5013 89.4257 77.4997C99.4604 77.003 109.317 73.8613 118.114 68.4419C118.125 68.4351 118.135 68.4256 118.142 68.4141C118.149 68.4027 118.153 68.3896 118.155 68.3758C118.157 68.362 118.156 68.348 118.153 68.3347C118.149 68.3214 118.143 68.3091 118.134 68.299C112.092 61.1837 104.131 56.4515 95.5636 54.5072Z" fill="#28396E"/>
<path d="M86.0701 64.5148L74.1689 76.0987C74.1636 76.1038 74.1597 76.1103 74.1577 76.1176C74.1558 76.125 74.1558 76.1327 74.1577 76.14C74.1597 76.1473 74.1636 76.1539 74.1689 76.1589C74.1743 76.164 74.1808 76.1673 74.1879 76.1686C76.0602 76.5559 77.8205 76.8676 79.4689 77.1036C81.3587 77.3749 83.5503 77.507 86.0438 77.4997C86.0736 77.4997 86.1022 77.4873 86.1233 77.4651C86.1444 77.443 86.1562 77.413 86.1562 77.3817V64.5536C86.1561 64.5431 86.1531 64.5328 86.1476 64.524C86.142 64.5153 86.1342 64.5084 86.1251 64.5043C86.116 64.5002 86.1059 64.499 86.0961 64.5009C86.0864 64.5027 86.0773 64.5076 86.0701 64.5148Z" fill="#28396E"/>
<path d="M129.071 82.0456C129.084 82.0472 129.098 82.0454 129.11 82.0402C129.122 82.0351 129.133 82.0269 129.141 82.0164C129.149 82.0059 129.154 81.9934 129.156 81.9804C129.157 81.9673 129.155 81.9541 129.15 81.942C127.371 77.7477 124.985 73.9431 121.993 70.5281C121.981 70.5139 121.964 70.5044 121.945 70.5012C121.927 70.498 121.907 70.5013 121.891 70.5106C112.014 76.0971 100.649 79.0076 89.2664 79.4079C89.2369 79.4087 89.2089 79.4208 89.1883 79.4417C89.1677 79.4625 89.1562 79.4904 89.1562 79.5195V93.3383C89.1563 93.3489 89.1589 93.3593 89.1638 93.3688C89.1686 93.3782 89.1756 93.3865 89.1843 93.3928C89.1929 93.3991 89.2029 93.4034 89.2135 93.4053C89.2241 93.4072 89.235 93.4066 89.2453 93.4037C93.5212 92.1374 97.6221 93.6445 101.589 95.2249C102.458 95.571 103.808 95.5199 104.784 95.4466C104.796 95.4457 104.808 95.4422 104.818 95.4362C104.829 95.4303 104.838 95.4221 104.844 95.4122C104.851 95.4024 104.855 95.3912 104.857 95.3795C104.859 95.3677 104.858 95.3558 104.854 95.3445C104.269 93.4754 103.94 91.6032 104.156 89.7835C104.632 85.7742 108.42 83.6053 112.058 82.7218C117.565 81.3854 123.378 81.4221 129.071 82.0456Z" fill="#28396E"/>
<path d="M52.1699 95.4288C52.1638 95.4342 52.1594 95.4415 52.1574 95.4496C52.1555 95.4577 52.156 95.4663 52.1589 95.4741C52.1618 95.4819 52.167 95.4886 52.1737 95.4933C52.1804 95.4979 52.1884 95.5002 52.1964 95.5H86.0128C86.0508 95.5 86.0873 95.4843 86.1142 95.4564C86.1411 95.4284 86.1562 95.3906 86.1562 95.3511V79.3305C86.1563 79.3089 86.1481 79.2881 86.1335 79.2727C86.1189 79.2573 86.0991 79.2484 86.0783 79.248C85.7528 79.2404 85.1201 79.2253 84.1801 79.2026C79.7765 79.1001 75.4129 78.5332 71.0893 77.5017C71.0787 77.4993 71.0678 77.4994 71.0574 77.5023C71.0471 77.5051 71.0377 77.5104 71.0301 77.5179L52.1699 95.4288Z" fill="#28396E"/>
<path d="M86.1197 108.081L85.9614 107.685C85.9562 107.672 85.9499 107.66 85.9426 107.648C85.1653 106.401 84.4783 105.09 83.8817 103.716C83.8775 103.706 83.8767 103.696 83.8794 103.686C83.882 103.676 83.888 103.667 83.8963 103.661C83.9046 103.655 83.9146 103.653 83.9245 103.654C83.9345 103.655 83.9438 103.66 83.9507 103.667L84.7421 104.524L86.0053 105.587C86.0141 105.595 86.0249 105.6 86.0363 105.601C86.0478 105.603 86.0595 105.601 86.0702 105.597C86.0809 105.592 86.0901 105.584 86.0969 105.574C86.1037 105.564 86.1078 105.552 86.1088 105.54C86.1746 104.404 86.172 103.281 86.1009 102.174C86.0894 101.996 85.975 101.797 85.7577 101.575C84.1779 99.973 83.2841 99.0618 83.0762 98.8418C82.9393 98.6983 82.7774 98.6158 82.5903 98.5943C82.2884 98.5598 81.2958 98.5404 79.6126 98.5361C74.1628 98.521 71.2504 98.5123 70.8753 98.5102C64.1911 98.4714 56.2546 98.5587 49.2052 98.5231C49.1446 98.5232 49.0865 98.5462 49.0422 98.5878L43.2341 104.075C43.2068 104.1 43.1856 104.132 43.1723 104.168C43.159 104.203 43.1538 104.242 43.1573 104.28C43.8782 111.999 46.368 119.059 50.6267 125.459C50.634 125.47 50.6434 125.479 50.6542 125.486C50.6651 125.493 50.6773 125.497 50.69 125.499C50.7026 125.501 50.7155 125.5 50.7278 125.496C50.7401 125.493 50.7516 125.487 50.7615 125.478C55.8283 121.197 61.834 118.536 68.1624 116.96C73.9789 115.514 79.9177 114.822 85.9787 114.883C86.0078 114.883 86.0357 114.871 86.0563 114.851C86.0768 114.83 86.0884 114.801 86.0884 114.772L86.1197 108.081Z" fill="#28396E"/>
<path d="M160.794 101.575C160.793 101.58 160.811 101.933 160.849 102.635C160.886 103.339 160.818 103.923 160.645 104.387C159.997 106.132 157.72 106.74 156.174 106.911C152.152 107.356 148.051 106.805 144.056 106.2C144.044 106.198 144.033 106.198 144.022 106.201C144.01 106.204 144 106.21 143.991 106.217C143.982 106.224 143.974 106.233 143.969 106.244C143.963 106.254 143.959 106.265 143.958 106.277C143.412 110.582 142.48 114.815 141.161 118.975C141.154 118.997 141.155 119.021 141.164 119.043C141.173 119.064 141.189 119.08 141.21 119.089C146.734 121.525 152.859 122.773 158.818 123.5C158.828 123.501 158.837 123.499 158.845 123.493C158.853 123.488 158.86 123.48 158.864 123.47L167.15 103.564C167.154 103.554 167.156 103.544 167.156 103.534C167.156 103.524 167.154 103.514 167.15 103.505C167.146 103.496 167.14 103.488 167.133 103.481C167.126 103.475 167.117 103.47 167.108 103.467L160.901 101.504C160.89 101.5 160.878 101.499 160.866 101.501C160.854 101.502 160.842 101.507 160.832 101.513C160.822 101.52 160.813 101.529 160.806 101.54C160.8 101.55 160.795 101.562 160.794 101.575Z" fill="#28396E"/>
<path d="M86.4412 106.948L88.7285 110.545C88.772 110.614 88.8074 110.689 88.8339 110.768L88.9249 111.044C88.9367 111.033 88.9548 111.026 88.9793 111.024C88.991 111.023 89.0027 111.025 89.0133 111.03C89.024 111.035 89.0331 111.042 89.0399 111.052L91.003 113.834L92.9773 116.529C93.0699 116.595 93.1306 116.646 93.1594 116.682C96.1399 120.44 99.0518 123.774 101.895 126.684C104.932 129.792 108.39 133.017 112.269 136.359C115.774 139.311 119.34 142.117 122.968 144.777C122.985 144.789 122.999 144.805 123.008 144.824C123.018 144.843 123.023 144.864 123.024 144.886C123.024 144.902 123.023 144.921 123.021 144.942C123.11 144.907 123.219 144.938 123.347 145.035C124.02 145.542 124.804 146.113 125.701 146.749C126.53 147.339 127.175 147.606 128.115 147.74C131.501 148.229 134.926 148.701 138.39 149.157C140.249 149.401 142.171 149.515 144.156 149.498C142.788 148.761 140.321 147.482 136.754 145.661C135.491 145.016 133.328 143.75 132.125 143.095C125.795 139.65 119.148 135.323 112.186 130.113C103.466 123.586 95.427 116.002 88.0688 107.36C86.7984 105.869 85.7879 104.54 85.0371 103.375L84.2305 102.513C84.2234 102.506 84.214 102.501 84.2038 102.5C84.1937 102.499 84.1835 102.502 84.1751 102.508C84.1667 102.513 84.1605 102.522 84.1578 102.532C84.1551 102.542 84.1559 102.553 84.1602 102.562C84.7682 103.943 85.4684 105.26 86.2607 106.512C86.2681 106.524 86.2745 106.537 86.2798 106.55L86.4412 106.948Z" fill="#72D031"/>
<path d="M89.0532 107.683C90.1984 108.324 91.274 109.027 92.2799 109.79C93.6226 110.807 94.3916 111.385 94.5869 111.521C95.7661 112.34 96.9536 113.148 98.1493 113.943C99.2517 114.676 100.363 115.328 101.483 115.899C110.001 117.409 118 120.275 125.48 124.498C125.485 124.5 125.491 124.501 125.496 124.499C125.501 124.498 125.506 124.494 125.508 124.489L126.15 123.373C126.153 123.367 126.155 123.361 126.156 123.354C126.157 123.348 126.156 123.341 126.154 123.335C126.151 123.329 126.148 123.323 126.143 123.319C126.139 123.314 126.133 123.311 126.127 123.308C121.351 121.562 116.996 119.805 113.064 118.04C108.415 115.953 103.814 113.55 99.26 110.831C95.6712 108.688 92.0249 106.155 88.8327 103.512C88.8252 103.506 88.8161 103.502 88.8064 103.5C88.7967 103.499 88.7869 103.501 88.778 103.505C88.7692 103.509 88.7617 103.516 88.7565 103.524C88.7513 103.532 88.7486 103.542 88.7487 103.552V106.78C88.7487 106.8 88.7408 106.819 88.7266 106.834C88.7124 106.848 88.6931 106.856 88.6731 106.856H88.2354C88.2188 106.856 88.2028 106.861 88.1895 106.871C88.1761 106.881 88.166 106.895 88.1607 106.91C88.1553 106.926 88.1548 106.943 88.1593 106.959C88.1639 106.975 88.1732 106.989 88.186 107L89.0532 107.683Z" fill="#28396E"/>
<path d="M87.4431 106.609C87.2528 106.435 87.1896 106.194 87.3022 106.071C87.4147 105.948 87.6602 105.99 87.8506 106.164C88.041 106.339 88.1041 106.58 87.9916 106.703C87.879 106.825 87.6335 106.784 87.4431 106.609Z" fill="#0589DB"/>
<path d="M89.1562 107.5C90.2648 108.669 91.4062 109.745 92.5804 110.728C96.9045 114.344 101.157 117.618 105.337 120.548C119.083 130.187 133.71 138.169 149.217 144.496C149.222 144.499 149.228 144.5 149.234 144.5C149.24 144.5 149.245 144.499 149.251 144.497C149.256 144.494 149.261 144.491 149.266 144.487C149.27 144.483 149.273 144.478 149.275 144.472L152.156 137.736C146.329 135.954 140.588 133.985 134.934 131.83C134.899 131.816 134.871 131.79 134.855 131.756L134.831 131.708C134.741 131.721 134.669 131.717 134.616 131.697C130.947 130.304 127.313 128.822 123.715 127.252C123.21 127.032 122.819 126.749 122.541 126.403C121.973 126.376 121.41 126.232 120.853 125.972C117.507 124.412 114.451 122.939 111.683 121.555C111.224 121.325 110.916 121.032 110.76 120.675C109.216 120.11 107.737 119.44 106.324 118.664C104.648 117.743 102.925 116.682 101.153 115.482C100.072 114.927 98.9998 114.294 97.9357 113.581C96.7816 112.809 95.6355 112.024 94.4973 111.228C94.3088 111.096 93.5666 110.535 92.2707 109.546C91.2998 108.805 90.2616 108.123 89.1562 107.5Z" fill="#0589DB"/>
<path d="M89.1563 110.528L89.1685 114.35C89.1687 114.381 89.173 114.411 89.1803 114.433C89.1876 114.455 89.1975 114.468 89.2077 114.468L90.1562 114.5L89.2116 110.54C89.2083 110.526 89.2039 110.516 89.1988 110.509C89.1937 110.502 89.188 110.499 89.1824 110.5C89.1706 110.503 89.1619 110.513 89.1563 110.528Z" fill="#28396E"/>
<path d="M143.835 149.544C141.848 149.56 139.925 149.448 138.064 149.209C134.597 148.761 131.169 148.298 127.78 147.818C126.84 147.686 126.194 147.424 125.364 146.845C124.467 146.221 123.681 145.66 123.008 145.162C122.88 145.067 122.771 145.036 122.682 145.072C120.37 146.847 118.094 148.376 115.852 149.657C105.493 155.581 94.3519 158.111 82.4291 157.248C78.0818 156.933 74.0665 156.219 70.3832 155.107C68.3508 154.493 66.1468 153.682 63.7712 152.675C52.0738 147.713 42.4227 138.775 36.2039 127.812C35.4696 126.518 34.6005 124.767 33.5965 122.558C32.4775 120.099 31.5215 117.059 30.7397 114.542C30.7368 114.532 30.7314 114.524 30.7241 114.517C30.7168 114.51 30.7079 114.504 30.6981 114.502C30.6883 114.499 30.678 114.499 30.6683 114.502C30.6585 114.504 30.6495 114.509 30.6422 114.516C27.8424 117.072 21.5629 122.82 11.8036 131.761C11.5521 131.992 11.3054 132.196 11.0634 132.372C6.48329 135.714 0.851227 139.72 -5.07979 144.138C-10.8893 148.467 -17.7268 151.971 -24.8328 153.558C-28.1377 154.297 -31.6708 154.906 -35.4319 155.385C-40.6275 156.047 -45.7544 156.539 -50.8126 156.86C-50.8206 156.86 -50.8284 156.863 -50.8343 156.868C-50.8401 156.874 -50.8435 156.882 -50.8437 156.89C-50.8439 156.898 -50.8409 156.905 -50.8354 156.911C-50.8299 156.917 -50.8222 156.92 -50.8142 156.921C-20.154 160.641 10.4208 164.844 40.9104 169.529C56.8053 171.97 72.5521 174.616 88.1507 177.466C99.3892 179.518 110.032 181.647 120.079 183.854C123.967 184.706 127.709 185.588 131.306 186.498C131.321 186.502 131.336 186.5 131.349 186.493C131.362 186.487 131.373 186.475 131.378 186.461L147.152 149.703C147.156 149.696 147.157 149.688 147.156 149.679C147.155 149.671 147.152 149.663 147.147 149.657C147.142 149.65 147.135 149.644 147.127 149.641C147.12 149.637 147.111 149.636 147.103 149.636C146.416 149.691 145.721 149.711 145.018 149.699C144.502 149.688 144.108 149.636 143.835 149.544Z" fill="#28396E"/>
<path d="M86.1559 144.249L86.0243 142.353C86.0243 142.345 86.0243 142.337 86.0243 142.33C86.0619 141.529 86.0786 140.87 86.0744 140.353C86.065 139.111 86.0603 138.485 86.0603 138.474C86.1272 131.527 86.134 124.545 86.0807 117.528C86.0807 117.524 86.0792 117.52 86.0766 117.518C86.0739 117.515 86.0703 117.514 86.0666 117.514C74.1516 117.267 61.8998 120.367 52.1945 127.397C52.1845 127.404 52.176 127.413 52.1696 127.424C52.1631 127.434 52.1589 127.446 52.1572 127.459C52.1554 127.471 52.1562 127.484 52.1593 127.496C52.1625 127.508 52.1681 127.519 52.1757 127.529C55.2734 131.561 58.9651 134.943 63.2507 137.676C67.5937 140.445 72.3139 142.399 77.4113 143.537C77.8355 143.632 78.0502 143.68 78.0554 143.68C78.8525 143.818 79.4522 143.902 79.8545 143.93C80.3638 143.966 80.7885 144.182 81.3056 144.215C82.0375 144.26 82.3493 144.266 83.0843 144.388C84.0162 144.541 85.0056 144.537 86.0525 144.378C86.0828 144.374 86.1104 144.358 86.1296 144.334C86.1488 144.31 86.1582 144.28 86.1559 144.249Z" fill="#28396E"/>
<path d="M112.156 136.957C108.346 133.714 104.95 130.585 101.967 127.57C99.1746 124.746 96.3147 121.511 93.3873 117.864C93.3591 117.83 93.2994 117.78 93.2085 117.716C91.9074 117.567 90.6111 117.495 89.3194 117.5C89.3085 117.5 89.2977 117.502 89.2876 117.507C89.2775 117.511 89.2684 117.517 89.2606 117.525C89.2529 117.533 89.2468 117.542 89.2426 117.552C89.2384 117.562 89.2363 117.573 89.2363 117.584C89.2352 128.092 89.2394 133.879 89.2488 134.943C89.2677 137.053 89.3069 138.358 89.2567 139.779C89.2201 140.83 89.1866 142.365 89.1563 144.386C89.1557 144.407 89.1633 144.428 89.1774 144.445C89.1916 144.461 89.2114 144.472 89.2331 144.475C89.3963 144.499 89.5616 144.505 89.7289 144.496C97.919 144.042 105.395 141.529 112.156 136.957Z" fill="#28396E"/>
<path d="M110.156 121.5C110.341 121.873 110.707 122.18 111.253 122.421C114.542 123.872 118.174 125.414 122.15 127.048C122.812 127.32 123.481 127.471 124.156 127.5C123.931 127.06 123.608 126.74 123.188 126.542C118.963 124.554 114.619 122.873 110.156 121.5Z" fill="#28396E"/>
<path d="M135.156 131.894L135.18 131.939C135.197 131.97 135.225 131.995 135.26 132.007C140.942 134.011 146.712 135.842 152.569 137.5L155.148 131.931C155.154 131.919 155.157 131.906 155.156 131.892C155.156 131.879 155.152 131.865 155.146 131.853C155.14 131.841 155.13 131.831 155.119 131.822C155.108 131.814 155.095 131.808 155.081 131.804C149.397 130.503 143.756 129.07 138.159 127.506C138.126 127.497 138.09 127.498 138.058 127.51C138.026 127.521 137.998 127.543 137.98 127.57L135.156 131.894Z" fill="#28396E"/>
</g>
<mask id="mask1_664_135536" style="mask-type:alpha" maskUnits="userSpaceOnUse" x="1" y="0" width="211" height="163">
<path d="M136.297 18.6747L1.15625 162.911H136.729L211.156 0.5H178.231C170.92 0.5 163.677 1.89495 156.889 4.61003C149.078 7.73439 142.049 12.5356 136.297 18.6747Z" fill="#1C325C"/>
</mask>
<g mask="url(#mask1_664_135536)">
<g style="mix-blend-mode:plus-lighter" filter="url(#filter0_f_664_135536)">
<line x1="123.704" y1="175.287" x2="204.704" y2="3.28697" stroke="url(#paint0_linear_664_135536)"/>
</g>
<g style="mix-blend-mode:plus-lighter" filter="url(#filter1_f_664_135536)">
<line x1="0.0575203" y1="169.479" x2="158.058" y2="-0.521175" stroke="url(#paint1_linear_664_135536)" stroke-width="3"/>
</g>
<rect x="-32.9375" y="132.977" width="283.576" height="89" transform="rotate(-47.4383 -32.9375 132.977)" fill="url(#paint2_linear_664_135536)"/>
<path d="M209.156 10.5H193.715L163.672 70.0579M152.744 162.5L125.156 146.414L163.672 70.0579M163.672 70.0579H188.671" stroke="black" stroke-opacity="0.2" stroke-width="2"/>
<path d="M209.656 11.5H194.656L165.656 68.8M189.957 71.3H164.457L126.656 146" stroke="white" stroke-opacity="0.2" stroke-width="0.5"/>
<path d="M123.656 147L146.656 160.5" stroke="white" stroke-opacity="0.21" stroke-width="0.5" style="mix-blend-mode:overlay"/>
</g>
<defs>
<filter id="filter0_f_664_135536" x="117.25" y="-2.92606" width="93.9062" height="184.426" filterUnits="userSpaceOnUse" color-interpolation-filters="sRGB">
<feFlood flood-opacity="0" result="BackgroundImageFix"/>
<feBlend mode="normal" in="SourceGraphic" in2="BackgroundImageFix" result="shape"/>
<feGaussianBlur stdDeviation="3" result="effect1_foregroundBlur_664_135536"/>
</filter>
<filter id="filter1_f_664_135536" x="-12.0391" y="-12.5423" width="182.195" height="194.042" filterUnits="userSpaceOnUse" color-interpolation-filters="sRGB">
<feFlood flood-opacity="0" result="BackgroundImageFix"/>
<feBlend mode="normal" in="SourceGraphic" in2="BackgroundImageFix" result="shape"/>
<feGaussianBlur stdDeviation="5.5" result="effect1_foregroundBlur_664_135536"/>
</filter>
<linearGradient id="paint0_linear_664_135536" x1="205.609" y1="3.71302" x2="143.84" y2="149.682" gradientUnits="userSpaceOnUse">
<stop stop-color="white" stop-opacity="0"/>
<stop offset="1" stop-color="white"/>
</linearGradient>
<linearGradient id="paint1_linear_664_135536" x1="159.522" y1="0.840385" x2="34.8856" y2="148.74" gradientUnits="userSpaceOnUse">
<stop stop-color="white" stop-opacity="0"/>
<stop offset="1" stop-color="white"/>
</linearGradient>
<linearGradient id="paint2_linear_664_135536" x1="133.082" y1="221.977" x2="133.956" y2="126.389" gradientUnits="userSpaceOnUse">
<stop stop-color="white" stop-opacity="0"/>
<stop offset="1" stop-color="white" stop-opacity="0.5"/>
</linearGradient>
</defs>
</svg>
