<svg width="212" height="164" viewBox="0 0 212 164" fill="none" xmlns="http://www.w3.org/2000/svg">
<path d="M136.297 18.6747L1.15625 162.911H136.729L211.156 0.5H178.231C170.92 0.5 163.677 1.89495 156.889 4.61003C149.078 7.73439 142.049 12.5356 136.297 18.6747Z" fill="#A8014F"/>
<path d="M1.15625 162.911L136.297 18.6746C142.049 12.5356 149.078 7.73439 156.889 4.61003C163.677 1.89496 170.92 0.5 178.231 0.5H211.156M1.15625 162.911H136.729L211.156 0.5M1.15625 162.911L136.297 18.6747C142.049 12.5356 149.078 7.73439 156.889 4.61003C163.677 1.89495 170.92 0.5 178.231 0.5H211.156" stroke="#C2C2C2" stroke-opacity="0.4"/>
<path d="M130.971 80.8477C130.611 80.7259 130.318 80.6108 130.092 80.5022C124.727 77.925 119.218 76.8212 113.564 77.1908C107.354 77.5971 101.731 79.6141 96.6951 83.2416C92.523 86.2457 89.2446 90.0361 86.8599 94.6126C83.7994 100.487 82.6194 106.651 83.3201 113.104C83.7615 117.17 85.0237 121.23 87.1069 125.285C90.9985 132.858 97.3834 139.589 105.086 142.937C108.735 144.523 112.649 145.365 116.829 145.463C116.837 145.463 116.846 145.464 116.854 145.466C116.862 145.469 116.87 145.473 116.877 145.479C116.883 145.484 116.889 145.491 116.892 145.499C116.896 145.507 116.899 145.515 116.9 145.524C116.9 145.532 116.899 145.541 116.897 145.549C116.894 145.558 116.89 145.565 116.884 145.572C116.879 145.579 116.872 145.584 116.864 145.588C116.856 145.592 116.848 145.595 116.839 145.595C115.208 145.899 113.659 146.076 112.192 146.128C104.327 146.406 97.1569 144.326 90.6817 139.886C82.162 134.046 76.4196 124.589 75.3663 114.266C74.7225 107.952 75.5586 102.023 77.8748 96.4785C82.717 84.8874 93.3213 76.5417 105.73 74.8563C113.846 73.7532 121.411 75.2113 128.427 79.2305C129.218 79.6837 130.083 80.2712 130.988 80.8081C130.992 80.811 130.995 80.8153 130.997 80.8202C130.998 80.8252 130.998 80.8305 130.996 80.8353C130.994 80.84 130.99 80.8438 130.985 80.8461C130.981 80.8484 130.975 80.8489 130.971 80.8477Z" fill="white"/>
<path d="M107.689 80.6318C107.925 80.568 108.183 80.6494 108.53 80.5636C116.836 78.5217 125.279 80.0575 132.372 84.8761C136.184 87.4666 139.216 90.6988 141.468 94.5728C143.572 98.1915 144.851 101.914 145.305 105.741C145.965 111.277 145.388 116.549 143.188 121.711C141.296 126.147 138.503 129.926 134.81 133.049C134.742 133.106 134.66 133.144 134.573 133.158C134.486 133.172 134.396 133.162 134.314 133.128L131.404 131.936C131.38 131.926 131.36 131.911 131.344 131.891C131.328 131.871 131.318 131.847 131.315 131.822C131.311 131.796 131.314 131.77 131.324 131.746C131.333 131.722 131.349 131.701 131.369 131.685C131.85 131.309 132.298 130.901 132.715 130.459C136.465 126.487 138.945 121.858 140.157 116.573C140.788 113.82 140.991 110.864 140.765 107.704C140.548 104.681 139.891 101.794 138.796 99.0438C135.462 90.6761 128.417 84.2601 119.781 81.7606C116.046 80.6795 112.226 80.3553 108.32 80.788C108.147 80.8071 107.937 80.7858 107.691 80.7242C107.681 80.7214 107.673 80.7155 107.666 80.7073C107.66 80.6991 107.657 80.6891 107.656 80.6788C107.656 80.6685 107.659 80.6584 107.665 80.6499C107.671 80.6415 107.679 80.6351 107.689 80.6318Z" fill="white"/>
<path d="M106.354 91.7677C110.06 95.3431 109.896 101.341 106.16 104.741C106.126 104.771 106.095 104.785 106.066 104.782C106.052 104.781 106.038 104.776 106.026 104.768C106.014 104.76 106.004 104.749 105.997 104.736C105.991 104.723 105.988 104.708 105.988 104.694C105.989 104.679 105.993 104.665 106 104.653C108.164 101.057 107.722 96.4829 104.67 93.5389C101.617 90.5949 97.0611 90.3463 93.5868 92.6742C93.5748 92.6826 93.5608 92.6878 93.5463 92.6892C93.5317 92.6906 93.517 92.6883 93.5036 92.6823C93.4902 92.6763 93.4785 92.667 93.4698 92.6551C93.461 92.6433 93.4554 92.6294 93.4535 92.6148C93.4506 92.5854 93.463 92.5539 93.4907 92.5202C96.705 88.6147 102.648 88.1922 106.354 91.7677Z" fill="white"/>
<path d="M100.879 117.553C105.207 118.904 109.221 118.537 112.919 116.452C115.252 115.138 117.122 113.211 118.531 110.67C120.596 106.949 120.679 102.364 119.278 98.375C119.272 98.3586 119.273 98.3407 119.281 98.3251C119.288 98.3094 119.301 98.2973 119.317 98.2914L119.37 98.2738C119.373 98.2722 119.377 98.272 119.381 98.2732C119.384 98.2744 119.388 98.277 119.389 98.2804C120.242 99.7971 120.85 101.314 121.214 102.831C122.254 107.148 120.91 112.006 117.969 115.317C115.456 118.145 112.225 119.694 108.276 119.962C105.032 120.182 101.925 119.224 98.9565 117.088C98.7482 116.939 98.3156 116.766 97.6586 116.569C97.6484 116.566 97.6389 116.562 97.6302 116.558L96.3432 115.869C96.3329 115.864 96.3238 115.856 96.3164 115.847C96.3091 115.838 96.3036 115.828 96.3004 115.816C96.2971 115.805 96.2961 115.793 96.2975 115.782C96.2988 115.77 96.3025 115.759 96.3082 115.748L96.3366 115.7C96.3424 115.691 96.3506 115.684 96.3601 115.68C96.3695 115.676 96.3796 115.675 96.3891 115.678C99.5239 116.521 102.534 116.353 105.418 115.172C110.874 112.936 114.318 107.825 114.263 101.884C114.246 99.9306 113.888 98.1344 113.19 96.4959C112.364 94.5524 111.232 92.9242 109.795 91.6113C109.446 91.2945 108.927 90.8464 108.237 90.267C108.13 90.1789 107.947 90.0873 107.688 89.9919C107.677 89.988 107.667 89.9817 107.659 89.9735C107.651 89.9653 107.645 89.9554 107.641 89.9445C107.637 89.9336 107.635 89.9219 107.636 89.9103C107.637 89.8988 107.641 89.8876 107.647 89.8775L107.677 89.8247C107.682 89.8165 107.69 89.8103 107.699 89.8071C107.707 89.8039 107.717 89.8039 107.725 89.8071C112.74 91.5035 116.356 95.9437 117.093 101.209C117.614 104.938 116.813 108.358 114.689 111.471C113.565 113.12 112.162 114.457 110.481 115.482C107.54 117.276 104.334 117.917 100.864 117.405C100.854 117.403 100.843 117.405 100.834 117.411C100.825 117.417 100.819 117.426 100.816 117.436V117.44C100.811 117.464 100.814 117.488 100.826 117.509C100.838 117.53 100.857 117.545 100.879 117.553Z" fill="white"/>
<path d="M109.292 102.725C109.293 102.729 109.3 102.733 109.311 102.736C109.317 102.738 109.32 102.745 109.321 102.754C109.322 102.764 109.321 102.776 109.318 102.789C108.418 105.981 106.333 108.241 103.114 109.082C101.266 109.566 98.3159 109.937 96.8716 110.182C96.6563 110.224 96.4438 110.282 96.2357 110.356L94.8263 110.857C94.8154 110.861 94.8055 110.868 94.7976 110.876C94.7898 110.885 94.7842 110.895 94.7814 110.907C94.7785 110.918 94.7786 110.93 94.7815 110.941C94.7844 110.953 94.79 110.963 94.7979 110.972C94.8314 111.01 94.8526 111.03 94.8613 111.033C98.1899 112.365 100.239 113.14 101.008 113.359C102.712 113.841 103.862 113.266 105.308 112.549C105.364 112.521 105.437 112.514 105.529 112.527C105.547 112.53 105.565 112.537 105.579 112.548C105.594 112.56 105.605 112.575 105.612 112.592C105.619 112.61 105.62 112.628 105.617 112.647C105.614 112.665 105.606 112.682 105.595 112.697C105.099 113.272 104.516 113.725 103.844 114.056C101.7 115.117 99.4842 115.305 97.1972 114.622C96.5358 114.425 95.2124 113.861 93.2268 112.93C92.5451 112.609 91.6507 112.303 90.5435 112.012C89.502 111.738 88.3643 111.775 87.1304 112.125C87.0752 112.14 87.0168 112.141 86.9612 112.127C86.9056 112.112 86.8548 112.083 86.8141 112.042C86.7734 112.001 86.7442 111.95 86.7295 111.895C86.7148 111.839 86.7152 111.78 86.7306 111.724L86.8245 111.381C86.8605 111.249 86.9264 111.127 87.0169 111.025C87.1075 110.922 87.2204 110.842 87.3467 110.791C88.3592 110.383 89.3119 110.141 90.2049 110.065C90.738 110.018 91.1721 109.951 91.5072 109.863C92.1649 109.687 92.8248 109.557 92.8925 109.431C92.9045 109.41 92.9105 109.386 92.9099 109.362C92.9094 109.337 92.9023 109.313 92.8893 109.291C92.8764 109.269 92.8579 109.25 92.8356 109.236C92.8133 109.221 92.7878 109.212 92.7614 109.209C91.5771 109.06 90.8713 109.953 89.7613 109.946C89.7147 109.946 89.6688 109.935 89.6272 109.914C89.5856 109.893 89.5494 109.862 89.5215 109.825C89.4936 109.787 89.4746 109.744 89.4662 109.698C89.4577 109.652 89.46 109.604 89.4729 109.559C89.8793 108.146 91.7191 107.33 93.0673 107.09C95.2371 106.705 96.8257 106.919 99.6314 107.093C101.889 107.232 103.878 106.872 105.597 106.012C107.055 105.282 108.235 104.179 109.137 102.705C109.145 102.691 109.157 102.679 109.172 102.672C109.187 102.664 109.204 102.662 109.221 102.664C109.237 102.666 109.253 102.673 109.265 102.684C109.278 102.695 109.287 102.709 109.292 102.725Z" fill="white"/>
<path d="M103.203 120.463C103.194 120.45 103.188 120.435 103.188 120.419C103.187 120.402 103.192 120.386 103.201 120.373C103.21 120.359 103.223 120.348 103.238 120.342C103.254 120.336 103.27 120.334 103.286 120.338C104.453 120.626 105.948 120.991 107.246 120.996C109.147 121.002 111.011 120.653 112.838 119.951C112.923 119.918 113.016 119.915 113.104 119.943C113.191 119.97 113.266 120.026 113.318 120.102C117.354 126.048 123.407 130.512 130.187 133.324C133.966 134.893 137.972 136.143 142.205 137.073C142.432 137.123 142.754 137.217 143.169 137.355C143.178 137.358 143.186 137.364 143.191 137.372C143.196 137.381 143.198 137.39 143.197 137.4C143.196 137.41 143.191 137.419 143.184 137.425C143.177 137.432 143.168 137.436 143.158 137.436C141.193 137.59 139.141 137.509 137.003 137.192C129.212 136.042 121.782 133.512 114.712 129.601C110.964 127.528 107.666 125.096 104.818 122.303C104.217 121.712 103.678 121.098 103.203 120.463Z" fill="white"/>
<path d="M108.448 141.465C114.023 141.681 119.196 140.471 123.969 137.835C124.556 137.509 125.036 137.218 125.411 136.961C126.167 136.441 126.607 136.147 126.731 136.081C126.783 136.054 126.843 136.048 126.899 136.064L130.141 136.959C130.171 136.967 130.198 136.984 130.218 137.007C130.238 137.031 130.251 137.06 130.255 137.09C130.259 137.121 130.255 137.152 130.241 137.18C130.228 137.208 130.207 137.231 130.181 137.247C128.728 138.114 127.381 138.834 126.138 139.408C120.833 141.861 114.75 142.68 108.92 141.714C108.776 141.69 108.612 141.627 108.43 141.525C108.424 141.522 108.419 141.516 108.416 141.51C108.414 141.504 108.413 141.497 108.415 141.49C108.417 141.483 108.422 141.477 108.428 141.472C108.433 141.468 108.441 141.465 108.448 141.465Z" fill="white"/>
<mask id="mask0_664_137132" style="mask-type:alpha" maskUnits="userSpaceOnUse" x="1" y="0" width="211" height="163">
<path d="M136.297 18.6747L1.15625 162.911H136.729L211.156 0.5H178.231C170.92 0.5 163.677 1.89495 156.889 4.61003C149.078 7.73439 142.049 12.5356 136.297 18.6747Z" fill="#1C325C"/>
</mask>
<g mask="url(#mask0_664_137132)">
<g style="mix-blend-mode:plus-lighter" filter="url(#filter0_f_664_137132)">
<line x1="123.704" y1="175.287" x2="204.704" y2="3.28697" stroke="url(#paint0_linear_664_137132)"/>
</g>
<g style="mix-blend-mode:plus-lighter" filter="url(#filter1_f_664_137132)">
<line x1="0.0575203" y1="169.479" x2="158.058" y2="-0.521175" stroke="url(#paint1_linear_664_137132)" stroke-width="3"/>
</g>
<rect x="-32.9375" y="132.978" width="283.576" height="89" transform="rotate(-47.4383 -32.9375 132.978)" fill="url(#paint2_linear_664_137132)"/>
<path d="M209.156 10.5H193.715L163.672 70.0579M152.744 162.5L125.156 146.414L163.672 70.0579M163.672 70.0579H188.671" stroke="black" stroke-opacity="0.2" stroke-width="2"/>
<path d="M209.656 11.5H194.656L165.656 68.8M189.957 71.3H164.457L126.656 146" stroke="white" stroke-opacity="0.2" stroke-width="0.5"/>
<path d="M123.656 147L146.656 160.5" stroke="white" stroke-opacity="0.21" stroke-width="0.5" style="mix-blend-mode:overlay"/>
</g>
<defs>
<filter id="filter0_f_664_137132" x="117.25" y="-2.92627" width="93.9062" height="184.426" filterUnits="userSpaceOnUse" color-interpolation-filters="sRGB">
<feFlood flood-opacity="0" result="BackgroundImageFix"/>
<feBlend mode="normal" in="SourceGraphic" in2="BackgroundImageFix" result="shape"/>
<feGaussianBlur stdDeviation="3" result="effect1_foregroundBlur_664_137132"/>
</filter>
<filter id="filter1_f_664_137132" x="-12.0391" y="-12.5425" width="182.195" height="194.042" filterUnits="userSpaceOnUse" color-interpolation-filters="sRGB">
<feFlood flood-opacity="0" result="BackgroundImageFix"/>
<feBlend mode="normal" in="SourceGraphic" in2="BackgroundImageFix" result="shape"/>
<feGaussianBlur stdDeviation="5.5" result="effect1_foregroundBlur_664_137132"/>
</filter>
<linearGradient id="paint0_linear_664_137132" x1="205.609" y1="3.71302" x2="143.84" y2="149.682" gradientUnits="userSpaceOnUse">
<stop stop-color="white" stop-opacity="0"/>
<stop offset="1" stop-color="white"/>
</linearGradient>
<linearGradient id="paint1_linear_664_137132" x1="159.522" y1="0.840385" x2="34.8856" y2="148.74" gradientUnits="userSpaceOnUse">
<stop stop-color="white" stop-opacity="0"/>
<stop offset="1" stop-color="white"/>
</linearGradient>
<linearGradient id="paint2_linear_664_137132" x1="133.082" y1="221.978" x2="133.956" y2="126.389" gradientUnits="userSpaceOnUse">
<stop stop-color="white" stop-opacity="0"/>
<stop offset="1" stop-color="white" stop-opacity="0.5"/>
</linearGradient>
</defs>
</svg>
