<svg width="212" height="164" viewBox="0 0 212 164" fill="none" xmlns="http://www.w3.org/2000/svg">
<path d="M136.297 18.6747L1.15625 162.911H136.729L211.156 0.5H178.231C170.92 0.5 163.677 1.89495 156.889 4.61003C149.078 7.73439 142.049 12.5356 136.297 18.6747Z" fill="#EFD607"/>
<path d="M1.15625 162.911L136.297 18.6746C142.049 12.5356 149.078 7.73439 156.889 4.61003C163.677 1.89496 170.92 0.5 178.231 0.5H211.156M1.15625 162.911H136.729L211.156 0.5M1.15625 162.911L136.297 18.6747C142.049 12.5356 149.078 7.73439 156.889 4.61003C163.677 1.89495 170.92 0.5 178.231 0.5H211.156" stroke="#C2C2C2" stroke-opacity="0.4"/>
<mask id="mask0_664_136765" style="mask-type:alpha" maskUnits="userSpaceOnUse" x="1" y="0" width="211" height="163">
<path d="M136.297 18.6747L1.15625 162.911H136.729L211.156 0.5H178.231C170.92 0.5 163.677 1.89495 156.889 4.61003C149.078 7.73439 142.049 12.5356 136.297 18.6747Z" fill="#1C325C"/>
</mask>
<g mask="url(#mask0_664_136765)">
<path d="M137.74 134.61C137.505 135.089 137.327 135.392 137.205 135.517C136.533 136.201 135.173 137.472 133.125 139.33C130.14 140.509 126.923 141.111 123.473 141.135C119.618 141.163 115.789 141.17 111.986 141.158C111.934 141.158 111.884 141.137 111.847 141.099C111.81 141.061 111.789 141.01 111.789 140.956V96.7583C111.789 96.6959 111.814 96.6359 111.857 96.5914C111.901 96.5468 111.96 96.5212 112.023 96.52C117.154 96.4833 121.047 96.4971 123.702 96.5612C126.068 96.6162 128.235 96.9645 130.204 97.606C134.431 98.9808 136.776 101.917 137.237 106.414C137.74 111.28 135.254 115.849 130.483 117.462C130.452 117.473 130.424 117.493 130.405 117.521C130.386 117.548 130.377 117.581 130.378 117.614C130.379 117.648 130.39 117.68 130.411 117.706C130.432 117.732 130.46 117.751 130.492 117.76C138.381 119.822 140.396 127.617 137.74 134.61ZM116.409 99.6269L116.496 116.216C116.496 116.252 116.51 116.287 116.536 116.313C116.562 116.339 116.597 116.353 116.633 116.353L123.927 116.316C126.157 116.304 128.292 115.515 129.862 114.123C131.431 112.731 132.307 110.849 132.296 108.893L132.287 106.785C132.282 105.816 132.059 104.858 131.631 103.965C131.204 103.072 130.58 102.262 129.795 101.581C129.01 100.9 128.08 100.362 127.057 99.9967C126.035 99.6315 124.94 99.4467 123.835 99.4528L116.542 99.4894C116.506 99.4906 116.472 99.5056 116.447 99.5313C116.423 99.5569 116.409 99.5912 116.409 99.6269ZM116.45 119.501V138.051C116.45 138.08 116.462 138.108 116.482 138.129C116.503 138.149 116.531 138.161 116.56 138.161H124.458C126.914 138.161 129.27 137.304 131.007 135.779C132.744 134.253 133.72 132.184 133.72 130.027V127.525C133.72 125.368 132.744 123.299 131.007 121.774C129.27 120.248 126.914 119.391 124.458 119.391H116.56C116.531 119.391 116.503 119.403 116.482 119.423C116.462 119.444 116.45 119.472 116.45 119.501Z" fill="#260E03"/>
<path d="M78.344 141.034C78.2188 140.258 78.1562 139.568 78.1562 138.963C78.1746 125.014 78.2081 110.976 78.257 96.8501C83.9313 96.8684 87.5713 96.8608 89.1768 96.8271C93.325 96.7401 98.7231 98.2019 101.25 101.735C103.526 104.915 103.828 109.548 102.839 113.251C101.795 117.137 98.5811 119.909 94.8862 120.94C94.7902 120.967 94.7015 121.016 94.6267 121.082C94.552 121.148 94.493 121.23 94.4543 121.322C94.4156 121.414 94.3981 121.514 94.4031 121.613C94.4081 121.713 94.4356 121.81 94.4833 121.898L111.163 152.28C111.193 152.333 111.208 152.393 111.207 152.454C111.206 152.515 111.189 152.575 111.158 152.627C111.127 152.679 111.083 152.723 111.03 152.753C110.977 152.783 110.917 152.798 110.856 152.798H107.422C107.268 152.798 107.117 152.756 106.984 152.677C106.852 152.598 106.742 152.484 106.667 152.349L90.2985 122.53C90.2567 122.454 90.1955 122.39 90.1214 122.346C90.0473 122.301 89.963 122.278 89.8773 122.278H83.3575C83.2676 122.278 83.1814 122.314 83.1179 122.378C83.0544 122.441 83.0187 122.527 83.0187 122.617V140.668C83.0187 140.725 83.0073 140.782 82.9851 140.835C82.963 140.889 82.9305 140.937 82.8896 140.977C82.8488 141.018 82.8003 141.05 82.747 141.071C82.6937 141.093 82.6366 141.104 82.5791 141.103L78.344 141.034ZM83.0049 99.6179L82.9042 119.158C82.9042 119.247 82.9393 119.332 83.0018 119.396C83.0644 119.459 83.1494 119.495 83.2384 119.497L89.4286 119.529C91.8911 119.542 94.2576 118.66 96.0076 117.076C97.7575 115.492 98.7474 113.336 98.7597 111.083L98.778 107.857C98.7841 106.741 98.55 105.635 98.0889 104.602C97.6279 103.569 96.949 102.628 96.091 101.835C95.233 101.041 94.2128 100.41 93.0885 99.9767C91.9642 99.5436 90.7579 99.3174 89.5385 99.3109L83.3483 99.2788C83.3034 99.2782 83.2589 99.2865 83.2173 99.3033C83.1756 99.32 83.1377 99.3449 83.1058 99.3765C83.0738 99.408 83.0485 99.4456 83.0311 99.487C83.0138 99.5285 83.0049 99.573 83.0049 99.6179Z" fill="#260E03"/>
<path d="M108.312 64.7688C108.39 64.7923 108.447 64.8212 108.481 64.8557C108.288 65.0819 108.073 65.1163 107.834 64.9591C107.48 64.7247 107.109 64.6143 106.72 64.6281C106.684 64.6295 106.649 64.6237 106.615 64.6109C106.582 64.5981 106.551 64.5786 106.525 64.5537C106.499 64.5288 106.479 64.4989 106.465 64.4658C106.451 64.4328 106.443 64.3972 106.443 64.3613V63.1738C106.443 63.1439 106.437 63.1142 106.424 63.0868C106.412 63.0593 106.394 63.0347 106.371 63.0146C106.269 62.9263 106.236 62.7987 106.272 62.6319C106.278 62.6038 106.291 62.5781 106.31 62.5569C106.33 62.5357 106.355 62.5196 106.383 62.51C106.412 62.5004 106.443 62.4977 106.474 62.502C106.505 62.5063 106.535 62.5175 106.561 62.5346C106.696 62.6229 106.718 62.7339 106.625 62.8677C106.616 62.881 106.61 62.8961 106.607 62.9119C106.604 62.9278 106.605 62.9441 106.609 62.9598C106.613 62.9754 106.62 62.9901 106.63 63.0027C106.64 63.0154 106.652 63.0258 106.667 63.0332L108.039 63.7634C108.089 63.7906 108.145 63.8062 108.202 63.8089C108.38 63.8213 108.496 63.8407 108.552 63.8669C108.568 63.8747 108.582 63.8869 108.592 63.902C108.602 63.9172 108.607 63.9348 108.608 63.9529C108.608 63.971 108.604 63.989 108.595 64.0048C108.587 64.0206 108.574 64.0337 108.558 64.0427L108.095 64.2971C108.063 64.3147 108.039 64.3435 108.027 64.3779C108.015 64.4123 108.016 64.4499 108.031 64.4833C108.083 64.6102 108.177 64.7054 108.312 64.7688Z" fill="#260E03"/>
<path d="M106.338 65.2383L106.336 64.5991C106.381 64.8046 106.382 65.0177 106.338 65.2383Z" fill="#260E03"/>
<path d="M106.729 64.8162L106.718 65.2361C106.695 65.0982 106.698 64.9582 106.729 64.8162Z" fill="#260E03"/>
<path d="M108.018 65.9769L108.123 66.0141V66.1548C108.123 66.1894 108.112 66.2231 108.091 66.2508C108.07 66.2784 108.041 66.2984 108.007 66.3079C106.997 66.5947 105.974 66.5872 104.936 66.2851C104.918 66.2801 104.902 66.2693 104.891 66.2544C104.88 66.2394 104.875 66.2211 104.875 66.2023C104.875 66.1835 104.882 66.1653 104.894 66.1503C104.906 66.1354 104.922 66.1246 104.94 66.1196C105.414 65.9983 105.867 65.95 106.298 65.9748C106.472 65.9845 106.618 65.9886 106.736 65.9872C107.143 65.9831 107.57 65.9797 108.018 65.9769Z" fill="#260E03"/>
<path d="M104.491 67.7103C104.542 67.691 104.574 67.6476 104.588 67.58C104.621 67.4228 104.661 67.1518 104.708 66.767C104.711 66.7456 104.718 66.7249 104.729 66.7063C104.74 66.6877 104.755 66.6715 104.772 66.6587C104.79 66.6459 104.81 66.6368 104.831 66.632C104.852 66.6271 104.875 66.6266 104.896 66.6305C105.943 66.8318 107.024 66.8374 108.137 66.647C108.17 66.6418 108.204 66.6483 108.232 66.6653C108.26 66.6824 108.282 66.7089 108.292 66.7401L108.592 67.6648C108.601 67.6916 108.602 67.7204 108.594 67.7477C108.587 67.775 108.572 67.7995 108.551 67.8182C108.529 67.8368 108.503 67.8486 108.475 67.8523C108.447 67.8559 108.419 67.8512 108.393 67.8386C108.29 67.789 108.183 67.7696 108.073 67.7807C107.996 67.789 107.94 67.8572 107.905 67.9855C107.89 68.042 107.854 68.0972 107.796 68.151C107.741 68.2006 107.683 68.2068 107.622 68.1696C107.559 68.131 107.505 68.0717 107.461 67.9917C107.389 67.8648 107.334 67.7952 107.294 67.7827C107.09 67.7207 106.898 67.8655 106.717 68.2172C106.7 68.2507 106.674 68.2791 106.642 68.2994C106.61 68.3197 106.573 68.3313 106.536 68.333C106.498 68.3347 106.461 68.3264 106.427 68.309C106.394 68.2915 106.365 68.2656 106.345 68.2337L106.111 67.8676C106.084 67.8258 106.047 67.7919 106.003 67.7692C105.958 67.7465 105.909 67.7359 105.859 67.7384C105.81 67.7409 105.762 67.7565 105.72 67.7835C105.678 67.8105 105.644 67.8481 105.622 67.8924L105.5 68.1365C105.491 68.153 105.479 68.1675 105.465 68.1792C105.451 68.191 105.434 68.1996 105.417 68.2047C105.399 68.2097 105.381 68.2111 105.362 68.2086C105.344 68.2061 105.327 68.1999 105.311 68.1903C105.204 68.1255 105.15 68.0448 105.15 67.9482C105.15 67.9192 105.143 67.8906 105.13 67.8648C105.116 67.839 105.098 67.8167 105.075 67.7998C105.052 67.7828 105.025 67.7717 104.997 67.7673C104.97 67.7629 104.941 67.7654 104.915 67.7745C104.676 67.8586 104.534 67.8896 104.487 67.8676C104.472 67.8601 104.459 67.8485 104.45 67.834C104.442 67.8196 104.437 67.803 104.438 67.7864C104.438 67.7697 104.443 67.7536 104.453 67.7401C104.462 67.7266 104.475 67.7163 104.491 67.7103Z" fill="#260E03"/>
<path d="M106.777 69.6365C106.752 69.6572 106.752 69.6923 106.777 69.742C106.743 69.7475 106.709 69.7571 106.676 69.7709C106.614 69.7958 106.58 69.7985 106.575 69.7792C106.568 69.7572 106.559 69.7427 106.548 69.7358C106.539 69.7288 106.529 69.724 106.519 69.7217C106.508 69.7193 106.497 69.7196 106.487 69.7224C106.476 69.7253 106.466 69.7306 106.458 69.738C106.45 69.7453 106.444 69.7545 106.44 69.7647L106.422 69.8165C106.418 69.8279 106.41 69.8378 106.4 69.8448C106.39 69.8519 106.378 69.8557 106.366 69.8558C106.3 69.8585 106.273 69.8385 106.285 69.7958C106.356 69.44 106.331 69.0883 106.211 68.7407L106.496 68.6911C106.53 68.6853 106.564 68.6877 106.597 68.698C106.629 68.7083 106.659 68.7263 106.683 68.7504C106.707 68.7745 106.725 68.8041 106.735 68.8366C106.746 68.8691 106.748 68.9036 106.742 68.9373C106.701 69.1772 106.713 69.4103 106.777 69.6365Z" fill="#260E03"/>
<path d="M111.495 72.8263C111.548 72.8387 111.591 72.8415 111.624 72.8346C111.476 73.0001 111.571 73.0663 111.909 73.0332L112.039 73.0456L111.88 73.3828C111.865 73.4157 111.843 73.4451 111.816 73.4686C111.788 73.4922 111.756 73.5095 111.721 73.5193C111.36 73.62 111 73.5772 110.642 73.391C110.6 73.3704 110.565 73.3607 110.534 73.3621C110.489 73.3635 110.454 73.3786 110.431 73.4076C110.408 73.3648 110.363 73.3407 110.299 73.3352C110.328 73.1835 110.219 73.1014 109.972 73.089C109.959 73.0884 109.945 73.0911 109.933 73.0968C109.92 73.1025 109.91 73.1111 109.901 73.1219C109.893 73.1326 109.887 73.1452 109.885 73.1585C109.883 73.1719 109.883 73.1857 109.887 73.1987C109.943 73.3862 110.062 73.4848 110.245 73.4945C110.512 73.7 110.562 73.8462 110.394 73.933C109.896 74.1923 109.421 74.2192 108.968 74.0137C108.487 73.7944 108.146 73.5634 107.947 73.3207C107.608 72.9083 107.402 72.6656 107.329 72.5925C107.315 72.5793 107.297 72.5705 107.278 72.5671C107.259 72.5637 107.24 72.5659 107.222 72.5734C107.205 72.581 107.19 72.5935 107.18 72.6094C107.17 72.6254 107.165 72.6439 107.165 72.6629C107.175 73.0297 107.258 73.3917 107.415 73.7489C107.619 74.2165 107.562 74.644 107.244 75.0315C107.225 75.0542 107.198 75.0695 107.169 75.0748C107.139 75.08 107.109 75.075 107.083 75.0605C106.748 74.8729 106.577 74.7798 106.57 74.7812C106.482 74.8128 106.4 74.8552 106.324 74.9074L106.113 75.0522C106.084 75.0729 106.048 75.0831 106.012 75.0813C105.976 75.0794 105.942 75.0655 105.915 75.0419C105.707 74.8626 105.593 74.6998 105.574 74.5536C105.523 74.1689 105.633 73.6862 105.904 73.1056C105.975 72.9552 105.996 72.7946 105.969 72.6236C105.966 72.6056 105.958 72.5888 105.945 72.5752C105.933 72.5615 105.918 72.5516 105.9 72.5464C105.883 72.5412 105.864 72.5411 105.847 72.5459C105.829 72.5508 105.813 72.5605 105.801 72.5739C104.888 73.5586 104.15 74.4916 102.637 73.962C102.606 73.9516 102.58 73.9329 102.56 73.9079C102.54 73.883 102.527 73.8528 102.523 73.821C102.52 73.7892 102.525 73.757 102.539 73.7282C102.553 73.6993 102.574 73.6749 102.602 73.6579L103.302 73.209C103.324 73.1946 103.339 73.1722 103.345 73.1467C103.35 73.1211 103.345 73.0945 103.331 73.0725L103.28 72.9918C103.273 72.981 103.264 72.9717 103.254 72.9643C103.243 72.957 103.232 72.9518 103.219 72.9491C103.207 72.9464 103.194 72.9463 103.181 72.9486C103.168 72.951 103.156 72.9558 103.145 72.9628C102.459 73.42 101.748 73.8855 101.078 73.3786C101.061 73.3654 101.048 73.3478 101.039 73.3276C101.031 73.3075 101.029 73.2855 101.032 73.264C101.035 73.2425 101.044 73.2222 101.057 73.2053C101.071 73.1883 101.089 73.1753 101.109 73.1676C101.316 73.0918 101.448 72.9966 101.504 72.8821C101.511 72.8642 101.518 72.847 101.525 72.8304C101.592 72.8635 101.691 72.8539 101.82 72.8015C101.854 72.7868 101.881 72.7603 101.897 72.7269C101.913 72.6935 101.915 72.6555 101.905 72.6202C101.895 72.5848 101.872 72.5545 101.84 72.5349C101.809 72.5153 101.772 72.5079 101.736 72.5139C101.521 72.5553 101.243 72.6546 100.903 72.8118C100.846 72.8378 100.786 72.8539 100.725 72.8594C100.258 72.8994 99.9194 72.7663 99.71 72.4601C99.6973 72.4413 99.6893 72.4198 99.6864 72.3972C99.6835 72.3747 99.6858 72.3519 99.6932 72.3304C99.7006 72.309 99.7129 72.2896 99.7291 72.2737C99.7452 72.2577 99.7649 72.2458 99.7864 72.2388L100.462 72.0195C100.49 72.0104 100.514 71.9915 100.528 71.9663C100.543 71.941 100.548 71.9112 100.543 71.8825C100.537 71.8538 100.521 71.8281 100.498 71.8103C100.475 71.7924 100.446 71.7837 100.417 71.7857C99.3854 71.8602 99.0093 72.0526 98.23 71.2065C98.1005 71.0658 98.0633 70.9203 98.1184 70.77L98.2631 70.801C98.2741 70.8493 98.3079 70.8769 98.3644 70.8838C99.8712 71.0824 101.037 70.5673 102.358 69.7564C103.461 69.0778 104.954 68.7779 105.975 69.7377C105.99 69.7515 106.007 69.7633 106.024 69.7729L106.533 70.0542C106.563 70.0713 106.599 70.0775 106.634 70.0719C106.669 70.0663 106.701 70.0492 106.725 70.0232C106.815 69.9308 107.049 69.7508 107.428 69.4833C108.292 68.871 109.784 69.1192 110.615 69.6819C111.925 70.5714 113.271 71.1424 114.865 70.8445C114.887 70.8404 114.91 70.843 114.932 70.852C114.953 70.861 114.971 70.876 114.983 70.8951C114.996 70.9142 115.003 70.9367 115.003 70.9596C115.003 70.9826 114.997 71.0052 114.984 71.0245C114.65 71.5375 114.187 71.8278 113.598 71.8954C113.58 71.8981 113.561 71.8981 113.542 71.8954L112.603 71.7919C112.574 71.7895 112.545 71.7973 112.521 71.8139C112.497 71.8305 112.48 71.8549 112.472 71.8829C112.464 71.911 112.466 71.9409 112.477 71.9677C112.489 71.9945 112.509 72.0165 112.535 72.0298C112.736 72.1264 112.977 72.1843 113.259 72.2036C113.282 72.2053 113.306 72.2132 113.325 72.2267C113.345 72.2401 113.361 72.2586 113.372 72.2802C113.382 72.3018 113.387 72.3258 113.385 72.3498C113.383 72.3738 113.375 72.3968 113.362 72.4167C113.073 72.8415 112.66 72.9704 112.124 72.8035C112.08 72.7898 112.038 72.7696 112 72.7435C111.764 72.5849 111.521 72.5132 111.27 72.5284C111.249 72.5297 111.229 72.5367 111.212 72.5488C111.195 72.5609 111.181 72.5774 111.173 72.5967C111.164 72.616 111.162 72.6372 111.165 72.658C111.168 72.6788 111.176 72.6984 111.19 72.7146C111.285 72.8263 111.387 72.8635 111.495 72.8263Z" fill="#260E03"/>
<path d="M118.668 76.1031C118.726 76.0907 118.841 76.0169 119.013 75.8817C119.03 75.8685 119.043 75.8511 119.051 75.8314C119.058 75.8117 119.06 75.7905 119.057 75.77C119.006 75.5038 118.99 75.1129 119.009 74.5971C119.015 74.4688 119.041 74.3799 119.09 74.3302C119.104 74.3154 119.123 74.3046 119.143 74.299C119.163 74.2933 119.185 74.293 119.205 74.298C119.225 74.3029 119.244 74.3131 119.259 74.3274C119.275 74.3418 119.286 74.3598 119.292 74.3799C119.413 74.7577 119.455 75.1453 119.416 75.5425C119.411 75.6002 119.399 75.6571 119.381 75.7121C119.173 76.3561 118.832 77.0174 118.358 77.696C118.335 77.7274 118.317 77.7632 118.306 77.8015L118.238 78.0601C118.233 78.0767 118.234 78.0944 118.241 78.1104C118.248 78.1263 118.259 78.1396 118.274 78.148C118.29 78.1564 118.307 78.1594 118.324 78.1566C118.341 78.1538 118.357 78.1453 118.368 78.1325C118.706 77.7835 119.079 77.5353 119.486 77.3877C119.572 77.3557 119.641 77.2929 119.681 77.2119L120.22 76.1424C120.232 76.1179 120.239 76.0902 120.239 76.0617L120.268 73.9434C120.268 73.895 120.283 73.8478 120.31 73.8078C120.337 73.7678 120.376 73.737 120.421 73.7192C120.466 73.7013 120.515 73.6974 120.562 73.7079C120.609 73.7183 120.652 73.7427 120.685 73.7779C120.743 73.8385 120.789 73.942 120.824 74.0882C121.254 75.9114 120.873 77.5022 119.681 78.8606C119.67 78.8744 119.657 78.8869 119.642 78.8979L118.325 79.8391C118.228 79.9081 118.151 80.0006 118.1 80.1077C118.049 80.2149 118.026 80.3332 118.033 80.4515L118.335 85.3481C118.337 85.389 118.325 85.4292 118.3 85.4613C118.275 85.4933 118.239 85.5148 118.199 85.5218C117.39 85.668 116.593 85.6673 115.807 85.5198C115.764 85.5117 115.726 85.4878 115.7 85.4526C115.673 85.4174 115.661 85.3735 115.665 85.3294L116.161 80.1515C116.161 80.1418 116.161 80.1322 116.161 80.1225C116.088 79.0013 116.235 78.451 117.068 77.5946C117.586 77.0623 118.036 76.6065 118.416 76.2272C118.44 76.2032 118.453 76.1698 118.453 76.1341V74.9818C118.453 74.9489 118.464 74.9169 118.484 74.8909C118.504 74.865 118.533 74.8466 118.565 74.8387C118.597 74.8308 118.63 74.8339 118.66 74.8475C118.69 74.8611 118.715 74.8844 118.73 74.9136C118.804 75.0584 118.854 75.3252 118.879 75.7142C118.881 75.745 118.874 75.7757 118.861 75.8033C118.847 75.8309 118.826 75.8544 118.8 75.8714L118.62 75.9852C118.607 75.9928 118.597 76.0051 118.592 76.0198C118.586 76.0345 118.587 76.0505 118.593 76.065C118.598 76.0794 118.609 76.0912 118.623 76.0982C118.637 76.1052 118.653 76.107 118.668 76.1031Z" fill="#260E03"/>
<path d="M92.6402 73.7136C92.687 74.0405 92.698 74.5397 92.6732 75.2114C92.6484 75.9147 92.8765 76.6001 93.3574 77.2676C93.432 77.3708 93.5307 77.454 93.6447 77.5097C94.0691 77.7165 94.395 77.9441 94.6223 78.1923C94.6448 78.2166 94.6739 78.2338 94.706 78.2418C94.7381 78.2498 94.7718 78.2482 94.8031 78.2372C94.8343 78.2262 94.8616 78.2063 94.8816 78.1799C94.9016 78.1536 94.9135 78.1219 94.9158 78.0889C94.9227 77.962 94.8986 77.8538 94.8435 77.7641C94.3116 76.9118 93.954 76.2174 93.7708 75.6809C93.7516 75.6219 93.7398 75.5607 93.7356 75.4989L93.6716 74.5349C93.6771 74.5032 93.6909 74.4687 93.7129 74.4315C93.9265 74.4453 94.0402 74.5535 94.0539 74.7562C94.0746 75.0555 94.0498 75.4086 93.9795 75.8154C93.9747 75.8461 93.979 75.8776 93.9919 75.9059C94.0047 75.9342 94.0256 75.9581 94.0519 75.9747C94.6168 76.3222 95.1735 76.8346 95.7219 77.5117C95.7932 77.6009 95.8775 77.679 95.972 77.7434C96.3689 78.0193 96.6527 78.5102 96.8236 79.2163C96.825 79.2204 96.8257 79.2246 96.8257 79.2288L97.299 85.501L97.02 85.5548C96.433 85.5238 95.5938 85.6562 94.9241 85.439C94.8943 85.4296 94.8684 85.4108 94.8501 85.3855C94.8319 85.3601 94.8223 85.3295 94.8228 85.2983C94.8683 83.4365 94.9234 82.2856 94.9882 81.8456C95.0695 81.305 95.095 81.0223 95.0647 80.9975C95.044 80.9809 95.0585 80.7782 95.1081 80.3893C95.1763 79.8576 94.4756 79.4791 93.9217 79.086C92.9688 78.4137 92.3487 77.2966 92.202 76.2023C92.0973 75.4299 92.1724 74.6018 92.4273 73.7178L92.6402 73.7136Z" fill="#260E03"/>
<path d="M118.706 77.5326C118.694 77.5379 118.681 77.5391 118.669 77.5361C118.657 77.5331 118.646 77.526 118.638 77.5159C118.63 77.5059 118.625 77.4934 118.625 77.4803C118.625 77.4673 118.628 77.4544 118.635 77.4437C119.15 76.7424 119.665 76.1342 119.628 75.3129C119.626 75.2729 119.605 74.8289 119.564 73.9807C119.561 73.9472 119.57 73.9139 119.588 73.8857C119.606 73.8575 119.633 73.836 119.664 73.8244C119.696 73.8127 119.73 73.8116 119.762 73.8211C119.794 73.8306 119.823 73.8503 119.843 73.8773C119.91 73.9642 119.968 74.0986 120.016 74.2807C120.297 75.3191 120.128 76.2673 119.51 77.1251C119.465 77.1861 119.405 77.2339 119.336 77.2637L118.706 77.5326Z" fill="#260E03"/>
<path d="M93.5559 74.3364L93.5167 74.3902C93.4602 74.393 93.4209 74.4116 93.3989 74.4461C93.3948 74.4514 93.3927 74.458 93.3927 74.4647C93.3906 75.0749 93.2934 75.6976 93.5849 76.2706C93.742 76.5782 93.9073 76.8644 94.0809 77.1291C94.0894 77.1421 94.094 77.1572 94.0941 77.1727C94.0942 77.1882 94.0899 77.2034 94.0816 77.2165C94.0733 77.2296 94.0615 77.24 94.0474 77.2466C94.0334 77.2531 94.0177 77.2554 94.0024 77.2533C93.8481 77.234 93.7261 77.1705 93.6365 77.0629C92.9931 76.2879 92.8201 75.3163 93.1178 74.1482C93.1249 74.1208 93.1396 74.0961 93.1603 74.0769C93.1809 74.0576 93.2066 74.0446 93.2343 74.0394C93.262 74.0342 93.2907 74.037 93.3169 74.0475C93.3431 74.0579 93.3658 74.0756 93.3823 74.0985L93.5559 74.3364Z" fill="#260E03"/>
<path d="M104.812 84.3095L104.618 84.2226L104.771 84.082C104.795 84.0591 104.825 84.0442 104.857 84.0394C104.89 84.0346 104.923 84.04 104.953 84.0551L105.914 84.5391C105.923 84.5439 105.933 84.5464 105.943 84.5464C105.954 84.5464 105.964 84.544 105.973 84.5394C105.982 84.5347 105.99 84.5279 105.996 84.5196C106.002 84.5113 106.006 84.5017 106.007 84.4916C106.035 84.3095 106.117 84.1406 106.255 83.9847C106.265 83.9733 106.272 83.9597 106.276 83.9449C106.28 83.9302 106.28 83.9147 106.277 83.8998C106.274 83.8849 106.267 83.871 106.258 83.8591C106.248 83.8473 106.236 83.8379 106.222 83.8316C106.219 83.8303 106.178 83.8192 106.098 83.7985C106.058 83.7889 106.069 83.7482 106.131 83.6765C106.29 83.4958 106.453 83.4041 106.621 83.4014C106.638 83.4011 106.654 83.4041 106.67 83.4104C106.685 83.4166 106.699 83.4258 106.711 83.4376C106.723 83.4493 106.733 83.4633 106.739 83.4788C106.746 83.4942 106.749 83.5108 106.749 83.5275V83.5875C106.749 83.5975 106.747 83.6074 106.743 83.6165C106.739 83.6257 106.734 83.634 106.727 83.6409C106.719 83.6479 106.711 83.6533 106.702 83.6569C106.692 83.6606 106.683 83.6623 106.673 83.662L106.379 83.6579C106.373 83.6579 106.368 83.66 106.364 83.6638C106.36 83.6676 106.357 83.6729 106.356 83.6786L106.35 83.7323C106.35 83.742 106.351 83.7517 106.354 83.7608C106.358 83.7698 106.363 83.778 106.37 83.7849C106.377 83.7917 106.385 83.7971 106.394 83.8005C106.403 83.8039 106.413 83.8054 106.423 83.8048C106.585 83.7951 106.711 83.8385 106.801 83.9351C106.806 83.941 106.813 83.9456 106.821 83.9487C106.829 83.9517 106.837 83.953 106.845 83.9527C106.853 83.9523 106.861 83.9501 106.869 83.9464C106.876 83.9426 106.882 83.9374 106.888 83.9309C106.9 83.9158 106.916 83.9075 106.935 83.9061C106.932 83.9654 106.954 84.0213 106.999 84.0737C106.916 84.2943 107.056 84.375 107.417 84.3157C107.739 84.0675 108.084 83.933 108.45 83.9123C108.472 83.9116 108.493 83.9177 108.511 83.9298C108.529 83.9419 108.543 83.9594 108.551 83.9797C108.558 84.0001 108.559 84.0224 108.553 84.0433C108.548 84.0643 108.535 84.0829 108.518 84.0964C108.17 84.3612 107.883 84.7308 107.659 85.2053C107.65 85.2233 107.647 85.2433 107.649 85.2631C107.651 85.2829 107.659 85.3017 107.671 85.3174C107.683 85.333 107.699 85.345 107.717 85.3518C107.735 85.3587 107.755 85.3602 107.774 85.3563C109.779 84.9701 111.368 83.9371 112.541 82.2574C113.458 80.9403 113.85 79.4005 113.715 77.638C113.807 77.056 113.759 76.5368 113.572 76.0803C113.431 75.7396 113.252 75.2797 113.035 74.7004C113.031 74.6926 113.031 74.6839 113.033 74.6757C113.035 74.6675 113.039 74.66 113.045 74.6544C113.052 74.6488 113.06 74.6452 113.068 74.6442C113.076 74.6432 113.085 74.6448 113.092 74.6487C113.265 74.7494 113.46 74.9832 113.679 75.35C113.922 75.7596 114.209 76.2299 114.539 76.7609C115.17 78.0821 115.429 79.4791 115.314 80.952C115.046 84.4005 112.886 87.2698 109.711 88.5483C107.577 89.4075 105.33 89.3564 102.973 88.3952C102.681 88.1497 102.375 87.9325 102.057 87.7435C99.6451 86.3161 98.1941 83.9744 97.911 81.2499C97.6561 78.802 98.3457 76.5685 99.9799 74.5494C99.9806 74.5488 99.9815 74.5483 99.9826 74.5479C99.9836 74.5476 99.9848 74.5474 99.9861 74.5474L100.081 74.5681C100.09 74.5698 100.098 74.5735 100.104 74.5789C100.111 74.5844 100.116 74.5914 100.12 74.5994C100.124 74.6074 100.125 74.6162 100.125 74.6252C100.125 74.6341 100.123 74.6429 100.118 74.6508C99.7615 75.3142 99.5549 75.7934 99.4984 76.0885C99.3661 76.7733 99.2028 77.276 99.1966 77.7931C99.1801 78.8633 99.2889 79.7377 99.5232 80.4162C100.453 83.1097 102.348 84.7881 105.207 85.4514C105.242 85.4594 105.279 85.4589 105.314 85.45C105.349 85.4411 105.381 85.4241 105.409 85.4003C105.436 85.3765 105.457 85.3467 105.471 85.3131C105.484 85.2796 105.489 85.2433 105.486 85.2073C105.453 84.8308 105.229 84.5316 104.812 84.3095ZM113.206 82.3122C113.198 82.3216 113.205 82.3421 113.226 82.3725C113.246 82.403 113.281 82.4428 113.326 82.4896C113.372 82.5365 113.428 82.5896 113.492 82.6457C113.556 82.7019 113.625 82.7601 113.697 82.817C113.843 82.9319 113.988 83.0346 114.102 83.1025C114.215 83.1704 114.287 83.1979 114.302 83.179C114.309 83.1696 114.303 83.1491 114.282 83.1186C114.261 83.0882 114.227 83.0484 114.181 83.0015C114.136 82.9547 114.079 82.9016 114.016 82.8454C113.952 82.7893 113.882 82.7311 113.81 82.6742C113.665 82.5592 113.519 82.4565 113.406 82.3887C113.293 82.3208 113.221 82.2933 113.206 82.3122ZM112.884 83.7303C112.881 83.7356 112.88 83.7418 112.881 83.7475C112.882 83.7532 112.885 83.7581 112.89 83.7613C113.234 84.0247 113.543 84.084 113.816 83.9392C113.859 83.9161 113.897 83.8832 113.925 83.843C113.954 83.8027 113.972 83.7564 113.979 83.7077C113.987 83.659 113.982 83.6093 113.967 83.5625C113.951 83.5158 113.925 83.4733 113.89 83.4386L113.119 82.667C113.107 82.6544 113.092 82.645 113.076 82.6395C113.059 82.634 113.041 82.6326 113.024 82.6355C113.006 82.6383 112.99 82.6453 112.976 82.6558C112.961 82.6663 112.95 82.6801 112.942 82.6959L112.911 82.758C112.898 82.7842 112.895 82.8141 112.902 82.842C112.91 82.8699 112.928 82.8937 112.952 82.909L113.673 83.3683C113.71 83.3921 113.739 83.426 113.757 83.4658C113.774 83.5057 113.78 83.5498 113.774 83.593C113.767 83.6362 113.749 83.6766 113.72 83.7094C113.691 83.7422 113.653 83.7659 113.611 83.7779C113.467 83.8096 113.272 83.7537 113.026 83.6103C113.018 83.6056 113.009 83.6027 113 83.6016C112.99 83.6005 112.981 83.6014 112.972 83.6041C112.962 83.6068 112.954 83.6113 112.947 83.6173C112.939 83.6234 112.933 83.6308 112.929 83.6393L112.884 83.7303ZM98.777 83.0104C98.7687 83.5731 99.0305 84.0144 99.5624 84.3343C99.5761 84.3453 99.5936 84.3504 99.6111 84.3484C99.6285 84.3465 99.6445 84.3377 99.6554 84.324C99.6664 84.3103 99.6715 84.2928 99.6695 84.2753C99.6676 84.2578 99.6588 84.2419 99.6451 84.2309C99.3158 83.8861 99.0643 83.4731 98.8907 82.9918C98.887 82.9779 98.8783 82.9658 98.8662 82.958C98.8541 82.9502 98.8396 82.9472 98.8254 82.9495C98.8112 82.9518 98.7984 82.9593 98.7895 82.9706C98.7805 82.9818 98.7761 82.996 98.777 83.0104ZM99.9159 83.6827C99.931 83.6648 99.9414 83.6517 99.9469 83.6434C99.9527 83.6334 99.9554 83.6219 99.9546 83.6103C99.9539 83.5987 99.9496 83.5877 99.9425 83.5786C99.9354 83.5694 99.9257 83.5626 99.9147 83.5591C99.9037 83.5555 99.8919 83.5553 99.8807 83.5586L99.8291 83.5731C99.7994 83.5808 99.7737 83.5995 99.7569 83.6255C99.7401 83.6514 99.7334 83.6829 99.7381 83.7137L99.8105 84.2061C99.8145 84.2289 99.8259 84.2497 99.8429 84.2654C99.8599 84.2811 99.8816 84.2907 99.9046 84.2928C99.9277 84.2949 99.9508 84.2894 99.9703 84.2771C99.9899 84.2648 100.005 84.2464 100.013 84.2247C100.067 84.0675 100.035 83.924 99.9179 83.7944C99.9043 83.7788 99.8966 83.7589 99.8963 83.7384C99.8959 83.718 99.9028 83.6982 99.9159 83.6827ZM100.071 83.6248L100.302 83.8565C100.315 83.8688 100.33 83.8779 100.347 83.883C100.364 83.888 100.382 83.8888 100.399 83.8853C100.416 83.8818 100.431 83.8742 100.445 83.863C100.458 83.8518 100.468 83.8375 100.474 83.8213C100.536 83.6641 100.419 83.5641 100.123 83.5213C100.11 83.5199 100.097 83.5225 100.085 83.5287C100.074 83.5348 100.065 83.5443 100.059 83.5557C100.053 83.5672 100.051 83.58 100.053 83.5924C100.056 83.6047 100.062 83.6161 100.071 83.6248ZM112.091 83.7365C112.073 83.7539 112.105 83.8235 112.182 83.93C112.258 84.0366 112.372 84.1714 112.498 84.3047C112.561 84.3707 112.625 84.4344 112.686 84.4921C112.747 84.5498 112.805 84.6004 112.856 84.641C112.906 84.6815 112.949 84.7114 112.981 84.7287C113.014 84.746 113.035 84.7505 113.044 84.7419C113.062 84.7245 113.03 84.6549 112.953 84.5483C112.877 84.4418 112.763 84.307 112.636 84.1737C112.574 84.1077 112.51 84.044 112.449 83.9863C112.387 83.9286 112.33 83.878 112.279 83.8374C112.229 83.7968 112.186 83.767 112.153 83.7497C112.121 83.7324 112.1 83.7279 112.091 83.7365ZM113.421 84.1419C113.246 84.2702 113.153 84.3688 113.142 84.4378C113.14 84.4527 113.141 84.468 113.145 84.4824C113.15 84.4969 113.157 84.5101 113.167 84.5211C113.178 84.532 113.19 84.5405 113.204 84.5458C113.218 84.5511 113.233 84.553 113.247 84.5516C113.446 84.5364 113.537 84.4157 113.522 84.1895C113.522 84.1781 113.518 84.1672 113.511 84.1578C113.505 84.1484 113.496 84.1408 113.486 84.136C113.475 84.1311 113.464 84.1291 113.453 84.1302C113.441 84.1312 113.43 84.1353 113.421 84.1419ZM100.676 84.7253C100.776 84.655 100.83 84.5253 100.84 84.3364C100.84 84.321 100.836 84.3058 100.827 84.2934C100.818 84.281 100.805 84.272 100.79 84.2679C100.775 84.2638 100.759 84.2649 100.745 84.2709C100.731 84.277 100.719 84.2877 100.712 84.3012L100.548 84.626C100.541 84.6412 100.53 84.6546 100.517 84.6653C100.504 84.6761 100.489 84.6839 100.473 84.6884C100.456 84.6929 100.439 84.6939 100.422 84.6914C100.405 84.6888 100.389 84.6828 100.375 84.6736C100.296 84.6212 100.238 84.5405 100.199 84.4316C100.195 84.4206 100.189 84.4106 100.181 84.4026C100.172 84.3946 100.162 84.3887 100.151 84.3855C100.14 84.3822 100.128 84.3817 100.116 84.384C100.105 84.3862 100.094 84.3912 100.085 84.3985C100.021 84.4523 99.9875 84.5026 99.9861 84.5495C99.9849 84.5816 99.9931 84.6134 100.01 84.6409C100.026 84.6685 100.05 84.6906 100.079 84.7046C100.33 84.8288 100.468 84.9708 100.495 85.1308C100.513 85.2425 100.595 85.3308 100.743 85.3956C100.934 85.4797 101.014 85.59 100.982 85.7266C100.979 85.7395 100.979 85.7529 100.982 85.7659C100.985 85.7789 100.991 85.791 100.999 85.8013C101.008 85.8116 101.018 85.8197 101.031 85.8251C101.043 85.8304 101.056 85.8328 101.069 85.8321L101.499 85.8052C101.529 85.8032 101.557 85.7945 101.583 85.7798C101.608 85.7651 101.63 85.7447 101.646 85.7204C101.853 85.4142 102.083 85.1859 102.338 85.0356C102.361 85.0228 102.38 85.0037 102.393 84.9807C102.405 84.9577 102.411 84.932 102.41 84.9069C102.408 84.8818 102.399 84.8585 102.384 84.8401C102.368 84.8217 102.348 84.8091 102.324 84.8039C102.234 84.7832 102.166 84.8032 102.119 84.8639C101.955 85.0749 101.771 85.3163 101.565 85.588C101.55 85.6081 101.531 85.6247 101.509 85.6367C101.487 85.6487 101.462 85.6559 101.437 85.6576C101.412 85.6594 101.387 85.6557 101.363 85.6469C101.34 85.6381 101.318 85.6244 101.301 85.6066L100.656 84.9611C100.64 84.9455 100.627 84.9264 100.62 84.9053C100.612 84.8842 100.609 84.8616 100.611 84.8391C100.613 84.8166 100.62 84.7948 100.631 84.7751C100.642 84.7554 100.658 84.7384 100.676 84.7253ZM111.865 85.7845L111.916 85.8486C111.93 85.8655 111.95 85.8763 111.972 85.8787C111.993 85.881 112.015 85.8747 112.032 85.861L112.925 85.1287C112.941 85.116 112.953 85.0985 112.959 85.0787C112.964 85.0589 112.963 85.0378 112.956 85.0184C112.949 84.9991 112.936 84.9825 112.919 84.9711C112.902 84.9597 112.882 84.954 112.861 84.9549C112.6 84.9591 112.306 84.7715 111.976 84.3923C111.963 84.377 111.945 84.3674 111.925 84.3653C111.905 84.3631 111.885 84.3687 111.869 84.3808C111.852 84.3929 111.841 84.4107 111.837 84.4308C111.833 84.4509 111.836 84.4718 111.846 84.4895C111.882 84.5502 111.968 84.6109 112.104 84.6715C112.153 84.6933 112.197 84.7258 112.233 84.7667L112.464 85.0501C112.479 85.0683 112.486 85.0915 112.483 85.1147C112.481 85.1379 112.47 85.1593 112.452 85.1742L111.877 85.6459C111.867 85.654 111.859 85.664 111.853 85.6753C111.847 85.6867 111.843 85.6991 111.842 85.712C111.841 85.7249 111.842 85.7379 111.846 85.7503C111.85 85.7628 111.856 85.7744 111.865 85.7845ZM101.1 84.9591C101.074 84.989 101.062 85.025 101.065 85.062C101.069 85.099 101.087 85.135 101.119 85.1649C101.151 85.1948 101.194 85.217 101.242 85.2284C101.289 85.2397 101.34 85.2396 101.385 85.228C101.456 85.2101 101.478 85.148 101.452 85.0418C101.446 85.0226 101.437 85.0047 101.424 84.9897C101.41 84.9746 101.394 84.9627 101.375 84.9549C101.244 84.8984 101.153 84.8998 101.1 84.9591ZM111.867 85.4866C111.896 85.4301 111.945 85.3721 112.016 85.3128C112.029 85.3014 112.04 85.2865 112.046 85.2696C112.052 85.2528 112.054 85.2346 112.051 85.2169C112.048 85.1992 112.04 85.1827 112.028 85.169C112.017 85.1553 112.001 85.145 111.985 85.1391C111.913 85.1142 111.83 85.1466 111.734 85.2363C111.668 85.2997 111.654 85.3804 111.691 85.4783C111.698 85.4954 111.71 85.5101 111.725 85.5207C111.74 85.5313 111.758 85.5374 111.776 85.5383C111.795 85.5392 111.813 85.5348 111.829 85.5256C111.845 85.5165 111.858 85.5029 111.867 85.4866ZM102.686 85.2777H102.857C102.867 85.2787 102.878 85.276 102.886 85.2699C102.894 85.2638 102.9 85.2549 102.902 85.2448C102.904 85.2348 102.902 85.2243 102.897 85.2154C102.892 85.2066 102.883 85.2 102.874 85.197C102.788 85.1611 102.718 85.1687 102.663 85.2197C102.658 85.2242 102.654 85.2302 102.653 85.2368C102.651 85.2434 102.651 85.2503 102.654 85.2567C102.656 85.263 102.661 85.2684 102.666 85.2722C102.672 85.2759 102.679 85.2778 102.686 85.2777ZM102.272 86.4961C102.486 86.4906 102.661 86.3589 102.799 86.101C102.811 86.0783 102.815 86.0518 102.808 86.0269C102.802 86.0019 102.787 85.9801 102.765 85.9659C102.744 85.9516 102.718 85.9459 102.692 85.9499C102.667 85.9538 102.644 85.9671 102.628 85.9872C102.607 86.0107 102.579 86.0803 102.543 86.1962C102.532 86.2312 102.509 86.2613 102.478 86.2813C102.447 86.3013 102.41 86.3099 102.373 86.3058C102.255 86.292 102.174 86.2341 102.132 86.132C102.117 86.0965 102.111 86.0578 102.116 86.0199C102.121 85.982 102.137 85.9464 102.161 85.9169C102.402 85.6176 102.524 85.4563 102.528 85.4328C102.53 85.4175 102.527 85.4019 102.52 85.3884C102.512 85.3748 102.501 85.3638 102.487 85.357C102.474 85.3501 102.458 85.3478 102.443 85.3503C102.429 85.3527 102.415 85.3599 102.404 85.3708C102.15 85.6218 101.979 85.8534 101.894 86.0658C101.875 86.1134 101.873 86.1661 101.889 86.2146C101.905 86.263 101.937 86.3041 101.981 86.3306C102.156 86.441 102.204 86.5796 102.125 86.7464C102.118 86.7608 102.115 86.7765 102.114 86.7925C102.114 86.8084 102.117 86.8243 102.124 86.8388C102.13 86.8534 102.14 86.8664 102.152 86.8769C102.164 86.8874 102.178 86.8951 102.194 86.8995L102.2 86.9016C102.213 86.9056 102.227 86.9068 102.24 86.905C102.254 86.9032 102.267 86.8985 102.278 86.8912C102.29 86.884 102.3 86.8743 102.307 86.8629C102.315 86.8515 102.32 86.8386 102.322 86.825C102.334 86.7451 102.305 86.6692 102.233 86.5975C102.225 86.5891 102.219 86.5784 102.217 86.5669C102.214 86.5553 102.215 86.5434 102.219 86.5325C102.223 86.5217 102.231 86.5125 102.24 86.506C102.25 86.4995 102.261 86.4961 102.272 86.4961ZM100.515 85.7948C100.572 85.89 100.648 85.9376 100.743 85.9376C100.755 85.9377 100.767 85.9345 100.778 85.9282C100.788 85.922 100.797 85.913 100.803 85.9022C100.809 85.8913 100.812 85.8791 100.812 85.8668C100.811 85.8544 100.807 85.8424 100.801 85.8321C100.772 85.7838 100.741 85.7328 100.71 85.679C100.678 85.6252 100.647 85.5735 100.617 85.5238C100.61 85.5132 100.601 85.5045 100.591 85.4986C100.58 85.4926 100.568 85.4897 100.555 85.4902C100.543 85.4906 100.531 85.4943 100.521 85.501C100.51 85.5076 100.502 85.517 100.497 85.528C100.453 85.6121 100.459 85.7011 100.515 85.7948ZM111.199 85.4934C111.19 85.5021 111.186 85.5152 111.187 85.5318C111.188 85.5485 111.194 85.5684 111.204 85.5905C111.214 85.6125 111.228 85.6363 111.246 85.6604C111.264 85.6845 111.285 85.7084 111.308 85.7309C111.354 85.7763 111.405 85.8128 111.45 85.8324C111.495 85.8521 111.529 85.8532 111.547 85.8356C111.555 85.8269 111.559 85.8138 111.558 85.7972C111.558 85.7805 111.552 85.7606 111.542 85.7385C111.532 85.7165 111.517 85.6927 111.5 85.6686C111.482 85.6445 111.461 85.6206 111.438 85.5981C111.392 85.5527 111.341 85.5162 111.296 85.4966C111.251 85.4769 111.216 85.4758 111.199 85.4934ZM109.535 87.0381L109.26 86.8995C109.234 86.8865 109.21 86.8679 109.191 86.8451C109.172 86.8223 109.159 86.7957 109.151 86.7671C109.05 86.4154 109.024 86.181 109.072 86.0638C109.086 86.0313 109.087 85.9947 109.074 85.9614C109.062 85.9281 109.038 85.9004 109.006 85.8838L108.909 85.83C108.891 85.8211 108.872 85.8173 108.852 85.819C108.832 85.8206 108.813 85.8277 108.798 85.8393C108.782 85.851 108.77 85.8668 108.763 85.8849C108.756 85.903 108.754 85.9227 108.758 85.9417L108.915 86.7506C108.919 86.7723 108.929 86.7923 108.942 86.8085L109.089 86.9885C109.099 87.0012 109.106 87.0164 109.109 87.0326C109.111 87.0488 109.11 87.0655 109.104 87.0808C109.098 87.0961 109.088 87.1096 109.075 87.12C109.062 87.1303 109.047 87.137 109.031 87.1395L108.717 87.185C108.707 87.1862 108.698 87.1894 108.69 87.1944C108.681 87.1993 108.674 87.2059 108.668 87.2138C108.663 87.2217 108.658 87.2308 108.656 87.2404C108.654 87.25 108.653 87.26 108.655 87.2698L108.667 87.3463C108.67 87.3661 108.68 87.3841 108.695 87.3968C108.71 87.4095 108.73 87.4158 108.75 87.4146C109.052 87.3939 109.318 87.316 109.55 87.1809C109.614 87.1436 109.665 87.0877 109.697 87.0206C109.729 86.9535 109.741 86.8781 109.73 86.8044L109.572 85.7121C109.57 85.6966 109.563 85.6821 109.553 85.67C109.543 85.6579 109.53 85.6486 109.516 85.6432C109.501 85.6377 109.485 85.6362 109.47 85.6389C109.454 85.6415 109.44 85.6482 109.428 85.6583L109.32 85.7473C109.317 85.7494 109.315 85.7526 109.313 85.7564C109.312 85.7602 109.312 85.7643 109.314 85.7679C109.451 86.0755 109.546 86.483 109.601 86.9905C109.602 86.999 109.601 87.0075 109.597 87.0153C109.594 87.023 109.588 87.0296 109.582 87.0345C109.575 87.0394 109.567 87.0423 109.559 87.0429C109.551 87.0435 109.543 87.0419 109.535 87.0381ZM112.214 85.921C112.152 85.9886 112.105 86.0603 112.073 86.1362C112.068 86.1484 112.066 86.1618 112.068 86.175C112.069 86.1882 112.073 86.2009 112.081 86.2119C112.088 86.223 112.098 86.2321 112.11 86.2383C112.122 86.2446 112.135 86.2479 112.148 86.2479C112.291 86.2437 112.393 86.2079 112.454 86.1403C112.516 86.0727 112.543 85.9679 112.534 85.8259C112.533 85.8125 112.529 85.7995 112.522 85.7881C112.515 85.7768 112.505 85.7674 112.493 85.7608C112.482 85.7542 112.469 85.7507 112.455 85.7505C112.442 85.7503 112.428 85.7534 112.417 85.7597C112.344 85.7997 112.276 85.8534 112.214 85.921ZM110.927 85.8609C110.913 85.8574 110.899 85.8572 110.885 85.8601C110.871 85.863 110.858 85.8691 110.845 85.878C110.833 85.8869 110.822 85.8984 110.813 85.9119C110.804 85.9254 110.797 85.9406 110.793 85.9567C110.789 85.9727 110.788 85.9893 110.789 86.0054C110.79 86.0216 110.794 86.037 110.801 86.0508C110.807 86.0646 110.816 86.0765 110.827 86.0859C110.838 86.0952 110.85 86.1018 110.864 86.1053C110.877 86.1087 110.891 86.109 110.905 86.1061C110.919 86.1031 110.933 86.097 110.945 86.0882C110.958 86.0793 110.969 86.0677 110.978 86.0542C110.986 86.0407 110.993 86.0255 110.997 86.0095C111.002 85.9935 111.003 85.9769 111.002 85.9607C111 85.9446 110.996 85.9292 110.99 85.9154C110.983 85.9016 110.974 85.8897 110.964 85.8803C110.953 85.871 110.94 85.8644 110.927 85.8609ZM110.459 86.9347C111.027 86.9581 111.459 86.6609 111.755 86.0431C111.759 86.0359 111.76 86.0278 111.758 86.02C111.757 86.0122 111.753 86.005 111.747 85.9996L111.695 85.9458C111.688 85.939 111.68 85.9338 111.671 85.9306C111.662 85.9274 111.652 85.9262 111.642 85.9272C111.632 85.9282 111.623 85.9313 111.615 85.9363C111.606 85.9413 111.599 85.9481 111.594 85.9562C111.317 86.3713 110.933 86.6389 110.441 86.7588C110.419 86.7635 110.4 86.7759 110.388 86.7937C110.375 86.8115 110.369 86.8333 110.371 86.8551C110.374 86.8769 110.384 86.897 110.4 86.9117C110.416 86.9264 110.437 86.9346 110.459 86.9347ZM105.914 86.554C105.878 86.5444 105.844 86.5485 105.811 86.5665C105.799 86.5723 105.789 86.5816 105.783 86.593C105.776 86.6045 105.773 86.6177 105.774 86.631C105.775 86.6443 105.78 86.6573 105.788 86.6682C105.796 86.6791 105.806 86.6876 105.819 86.6926C105.86 86.7078 105.898 86.6995 105.931 86.6678C105.94 86.6592 105.947 86.6484 105.951 86.6366C105.955 86.6248 105.957 86.6124 105.955 86.6007C105.953 86.5891 105.948 86.5786 105.941 86.5704C105.934 86.5622 105.925 86.5565 105.914 86.554ZM103.932 86.7816C103.964 86.8147 103.999 86.8299 104.039 86.8271C104.168 86.8168 104.126 86.672 104.05 86.643C103.955 86.6078 103.857 86.6989 103.932 86.7816ZM107.814 86.9347C107.957 86.9071 108.095 86.9326 108.227 87.0112C108.236 87.0168 108.244 87.0247 108.249 87.0341C108.254 87.0435 108.257 87.054 108.256 87.0646C108.256 87.0752 108.253 87.0854 108.248 87.0942C108.242 87.103 108.234 87.1101 108.225 87.1147L107.673 87.3939C107.652 87.4048 107.629 87.4113 107.605 87.413C107.581 87.4147 107.557 87.4116 107.535 87.4039C107.512 87.3962 107.491 87.384 107.473 87.368C107.456 87.3521 107.441 87.3328 107.431 87.3112L107.379 87.2015C107.373 87.1874 107.363 87.1752 107.35 87.1667C107.337 87.1581 107.322 87.1534 107.307 87.1532C107.291 87.153 107.276 87.1572 107.263 87.1655C107.25 87.1737 107.239 87.1855 107.233 87.1995C107.23 87.205 107.233 87.2319 107.241 87.2802C107.252 87.3463 107.224 87.4022 107.158 87.4477C107.116 87.4781 107.02 87.4119 106.871 87.2491C106.865 87.2434 106.858 87.2392 106.851 87.2371C106.843 87.235 106.835 87.235 106.827 87.2371C106.819 87.2392 106.812 87.2434 106.806 87.2491C106.801 87.2548 106.797 87.262 106.795 87.2698C106.779 87.3264 106.764 87.3691 106.747 87.3981C106.739 87.4118 106.728 87.4237 106.715 87.4328C106.702 87.442 106.687 87.4483 106.671 87.4512C106.656 87.4542 106.64 87.4537 106.624 87.4499C106.609 87.4461 106.594 87.439 106.582 87.4291L106.524 87.3815C106.496 87.3583 106.461 87.3441 106.425 87.3408C106.388 87.3375 106.351 87.3452 106.319 87.3629C106.21 87.4222 106.099 87.4236 105.986 87.367C105.942 87.345 105.92 87.316 105.918 87.2802C105.917 87.2264 105.902 87.1843 105.873 87.154C105.863 87.144 105.851 87.1369 105.837 87.1334C105.824 87.13 105.809 87.1303 105.796 87.1344C105.783 87.1385 105.771 87.1462 105.763 87.1566C105.754 87.167 105.748 87.1797 105.747 87.1933C105.73 87.3022 105.669 87.3463 105.563 87.3257C105.404 87.2953 105.246 87.2802 105.087 87.2802C105.083 87.2802 105.069 87.2498 105.046 87.1891C105.043 87.1822 105.043 87.1747 105.044 87.1675C105.045 87.1602 105.048 87.1534 105.053 87.1476C105.057 87.1418 105.063 87.1372 105.07 87.1344C105.077 87.1315 105.084 87.1304 105.091 87.1312L105.308 87.1519C105.33 87.1539 105.351 87.1497 105.37 87.1395C105.388 87.1294 105.404 87.114 105.414 87.0952C105.424 87.0763 105.428 87.0549 105.426 87.0337C105.424 87.0125 105.415 86.9924 105.401 86.9761C105.282 86.8312 105.189 86.7844 105.124 86.8354C105.065 86.8816 105.013 86.9608 104.974 87.0658C104.935 87.1708 104.91 87.2984 104.901 87.4374C104.9 87.4732 104.967 87.5263 105.102 87.5967C105.115 87.6041 105.125 87.6163 105.13 87.6308C105.135 87.6453 105.135 87.6612 105.129 87.6753C105.124 87.6877 105.111 87.7056 105.087 87.7291C105.031 87.789 104.901 87.7208 104.821 87.6773C104.805 87.6691 104.788 87.6661 104.77 87.669C104.753 87.6718 104.738 87.6803 104.726 87.6931C104.714 87.7059 104.707 87.7223 104.705 87.7396C104.704 87.757 104.708 87.7744 104.717 87.789C104.788 87.9021 104.886 87.9628 105.013 87.9711C105.086 87.9766 105.155 87.9263 105.22 87.8201C105.29 87.7029 105.344 87.6318 105.383 87.607C105.603 87.4677 105.768 87.4629 105.877 87.5925C105.9 87.6207 105.931 87.6415 105.966 87.6521C106.002 87.6628 106.04 87.6629 106.075 87.6525C106.157 87.6291 106.303 87.638 106.513 87.6794C106.547 87.6859 106.581 87.6858 106.614 87.679C106.647 87.6723 106.678 87.6591 106.706 87.6401C106.797 87.5753 106.879 87.5739 106.954 87.636C106.995 87.6718 107.027 87.6877 107.049 87.6835C107.086 87.678 107.118 87.6573 107.144 87.6215C107.163 87.5965 107.19 87.5782 107.22 87.5689C107.25 87.5597 107.282 87.56 107.311 87.5698C107.67 87.6911 107.982 87.5794 108.248 87.2346C108.271 87.2058 108.3 87.1829 108.333 87.1678C108.367 87.1527 108.403 87.1458 108.44 87.1478C108.561 87.1547 108.665 87.0864 108.752 86.943C108.758 86.9322 108.762 86.9198 108.762 86.9072C108.762 86.8946 108.758 86.8823 108.752 86.8716C108.745 86.8609 108.735 86.8522 108.724 86.8465C108.713 86.8409 108.7 86.8385 108.688 86.8395C108.442 86.8602 108.146 86.6678 107.929 86.7009C107.862 86.712 107.802 86.7575 107.749 86.8375C107.743 86.8479 107.74 86.8599 107.74 86.8722C107.74 86.8844 107.744 86.8964 107.75 86.9066C107.757 86.9168 107.767 86.9249 107.778 86.9299C107.789 86.9349 107.801 86.9365 107.814 86.9347ZM103.568 87.4767C103.813 87.5815 104.079 87.5974 104.364 87.5243C104.374 87.521 104.383 87.5145 104.389 87.5058C104.395 87.4971 104.399 87.4866 104.398 87.4759C104.398 87.4652 104.394 87.4549 104.388 87.4464C104.381 87.438 104.372 87.4319 104.362 87.4291C104.129 87.3808 103.902 87.3091 103.682 87.214C103.461 87.1188 103.253 87.0029 103.058 86.8664C103.048 86.8599 103.037 86.8567 103.026 86.8573C103.015 86.8579 103.004 86.8623 102.996 86.8697C102.988 86.8772 102.982 86.8872 102.98 86.8983C102.978 86.9093 102.98 86.9207 102.985 86.9305C103.129 87.1884 103.323 87.3705 103.568 87.4767ZM104.563 86.851C104.528 86.8586 104.5 86.8895 104.485 86.937C104.469 86.9844 104.468 87.0445 104.481 87.104C104.487 87.1335 104.497 87.1619 104.509 87.1877C104.522 87.2135 104.537 87.2361 104.554 87.2543C104.57 87.2724 104.588 87.2858 104.607 87.2936C104.625 87.3014 104.644 87.3035 104.661 87.2997C104.696 87.2921 104.724 87.2612 104.739 87.2137C104.755 87.1663 104.756 87.1062 104.743 87.0467C104.737 87.0172 104.727 86.9888 104.714 86.963C104.702 86.9372 104.687 86.9146 104.67 86.8964C104.653 86.8783 104.635 86.8649 104.617 86.8571C104.599 86.8493 104.58 86.8472 104.563 86.851Z" fill="#260E03"/>
<path d="M94.5551 75.4285C94.5473 75.1944 94.4818 75.0066 94.4088 75.009C94.3358 75.0114 94.2829 75.2032 94.2906 75.4372C94.2984 75.6713 94.3639 75.8591 94.4369 75.8567C94.5099 75.8543 94.5628 75.6625 94.5551 75.4285Z" fill="#260E03"/>
<path d="M105.925 75.3832C105.921 75.488 105.981 75.5246 106.105 75.4929C106.192 75.4708 106.261 75.4163 106.312 75.3294C106.322 75.3112 106.336 75.2955 106.353 75.2834C106.37 75.2713 106.39 75.2632 106.41 75.2596C106.431 75.2561 106.452 75.2571 106.472 75.2628C106.492 75.2684 106.511 75.2785 106.527 75.2922C106.791 75.5156 106.978 75.5873 107.087 75.5074C107.128 75.477 107.129 75.4315 107.089 75.3708C107.104 75.3625 107.12 75.3543 107.136 75.346C107.197 75.3584 107.245 75.3805 107.281 75.4122C107.295 75.4239 107.306 75.4382 107.314 75.4542C107.322 75.4703 107.327 75.4878 107.328 75.5058C107.329 75.5237 107.326 75.5417 107.321 75.5587C107.315 75.5756 107.305 75.5912 107.293 75.6046C107.021 75.9011 106.964 76.219 107.124 76.5582C107.548 77.4602 108.108 78.3766 107.091 78.9331C107.062 78.949 107.029 78.955 106.997 78.9501C106.965 78.9452 106.935 78.9298 106.913 78.9062C106.745 78.7311 106.569 78.6966 106.384 78.8028C106.209 78.9035 106.075 78.9317 105.983 78.8876C105.51 78.6587 105.313 78.3132 105.392 77.8512C105.403 77.7852 105.422 77.7206 105.45 77.6588C105.742 77.0203 105.906 76.6155 105.942 76.4445C106.005 76.1466 105.913 75.7673 105.667 75.3067C105.795 75.3219 105.881 75.3474 105.925 75.3832Z" fill="#260E03"/>
<path d="M113.714 77.6379C113.849 79.4005 113.458 80.9403 112.54 82.2573C111.368 83.9371 109.779 84.9701 107.774 85.3562C107.755 85.3602 107.735 85.3587 107.717 85.3518C107.698 85.3449 107.682 85.333 107.67 85.3173C107.658 85.3017 107.651 85.2829 107.649 85.2631C107.647 85.2433 107.65 85.2233 107.658 85.2052C107.883 84.7308 108.17 84.3612 108.518 84.0964C108.535 84.0828 108.547 84.0642 108.553 84.0433C108.559 84.0223 108.558 84.0001 108.55 83.9797C108.543 83.9593 108.529 83.9418 108.511 83.9297C108.493 83.9176 108.472 83.9115 108.45 83.9123C108.083 83.933 107.739 84.0674 107.417 84.3157C107.337 84.1254 107.354 83.9723 107.468 83.8564C108.865 82.4414 110.947 80.3686 113.714 77.6379Z" fill="#EFD607"/>
<path d="M106.332 79.2495C106.544 79.1999 106.716 79.2806 106.849 79.4916C106.865 79.5192 106.888 79.5426 106.915 79.5599C106.943 79.5771 106.974 79.5877 107.006 79.5909C107.233 79.6157 107.369 79.5116 107.413 79.2785C107.423 79.3019 107.452 79.295 107.502 79.2578C107.585 79.3171 107.625 79.3854 107.624 79.4626C107.624 79.476 107.619 79.4891 107.611 79.4998L107.336 79.8784C107.292 79.9404 107.268 80.0142 107.268 80.0894V80.8114C107.268 80.9051 107.291 80.9967 107.334 81.0783C107.56 81.4934 107.72 81.8182 107.812 82.0526C108.014 82.5629 107.934 83.029 107.57 83.451C107.367 83.6869 107.175 83.7131 106.991 83.5297C106.644 83.1821 106.353 83.1697 106.063 83.5379C106.023 83.5893 105.965 83.6233 105.9 83.6329C105.836 83.6425 105.771 83.627 105.718 83.5896C104.015 82.4064 106.737 81.0121 105.575 79.6198C105.553 79.5925 105.536 79.5607 105.526 79.5265C105.517 79.4923 105.514 79.4564 105.52 79.4212L105.54 79.2847L105.652 79.3013C105.722 79.4171 105.821 79.5005 105.95 79.5516C106.052 79.5929 106.129 79.5874 106.181 79.535C106.232 79.4867 106.248 79.4074 106.229 79.2971L106.332 79.2495Z" fill="#260E03"/>
<path d="M113.807 82.6743C113.504 82.4349 113.233 82.2729 113.202 82.3123C113.171 82.3518 113.391 82.5778 113.694 82.8171C113.997 83.0565 114.267 83.2185 114.299 83.1791C114.33 83.1396 114.109 82.9136 113.807 82.6743Z" fill="#EFD607"/>
<path d="M113.021 83.6103C113.266 83.7537 113.461 83.8096 113.606 83.7778C113.648 83.7659 113.685 83.7422 113.714 83.7094C113.743 83.6766 113.762 83.6362 113.768 83.593C113.775 83.5498 113.769 83.5057 113.751 83.4658C113.733 83.426 113.704 83.3921 113.668 83.3682L112.946 82.909C112.922 82.8937 112.904 82.8698 112.897 82.842C112.889 82.8141 112.892 82.7841 112.905 82.758L112.936 82.6959C112.944 82.6801 112.956 82.6663 112.97 82.6558C112.984 82.6453 113.001 82.6383 113.018 82.6355C113.036 82.6326 113.053 82.634 113.07 82.6395C113.087 82.645 113.102 82.6544 113.114 82.667L113.885 83.4386C113.92 83.4733 113.946 83.5158 113.961 83.5625C113.977 83.6093 113.981 83.659 113.974 83.7077C113.967 83.7564 113.948 83.8027 113.92 83.8429C113.891 83.8832 113.854 83.9161 113.81 83.9392C113.538 84.084 113.229 84.0247 112.884 83.7613C112.88 83.7581 112.877 83.7532 112.875 83.7475C112.874 83.7418 112.875 83.7356 112.878 83.7303L112.924 83.6392C112.928 83.6308 112.934 83.6234 112.941 83.6173C112.949 83.6113 112.957 83.6068 112.966 83.604C112.975 83.6013 112.985 83.6005 112.994 83.6016C113.003 83.6026 113.013 83.6056 113.021 83.6103Z" fill="#EFD607"/>
<path d="M112.638 84.1737C112.375 83.896 112.13 83.7003 112.092 83.7365C112.054 83.7727 112.237 84.0271 112.5 84.3047C112.763 84.5823 113.007 84.778 113.046 84.7419C113.084 84.7057 112.901 84.4513 112.638 84.1737Z" fill="#EFD607"/>
<path d="M113.421 84.1422C113.43 84.1355 113.441 84.1314 113.452 84.1304C113.464 84.1294 113.475 84.1314 113.485 84.1362C113.496 84.1411 113.505 84.1486 113.511 84.158C113.517 84.1674 113.521 84.1784 113.522 84.1897C113.537 84.4159 113.446 84.5366 113.247 84.5518C113.232 84.5532 113.218 84.5513 113.204 84.546C113.19 84.5407 113.177 84.5322 113.167 84.5213C113.157 84.5103 113.149 84.4971 113.145 84.4826C113.141 84.4682 113.14 84.4529 113.142 84.438C113.153 84.369 113.246 84.2704 113.421 84.1422Z" fill="#EFD607"/>
<path d="M111.878 85.6461L112.452 85.1744C112.47 85.1595 112.482 85.1381 112.484 85.1149C112.486 85.0917 112.479 85.0685 112.465 85.0503L112.233 84.7669C112.198 84.726 112.154 84.6935 112.105 84.6717C111.969 84.611 111.883 84.5503 111.847 84.4897C111.837 84.472 111.834 84.4511 111.838 84.431C111.842 84.4109 111.853 84.3931 111.869 84.381C111.886 84.3688 111.906 84.3633 111.926 84.3654C111.945 84.3676 111.964 84.3772 111.977 84.3924C112.306 84.7717 112.601 84.9593 112.862 84.9551C112.882 84.9542 112.903 84.9599 112.92 84.9713C112.937 84.9827 112.95 84.9993 112.957 85.0186C112.964 85.0379 112.965 85.059 112.959 85.0789C112.954 85.0987 112.942 85.1162 112.926 85.1289L112.033 85.8612C112.016 85.8748 111.994 85.8812 111.972 85.8788C111.951 85.8765 111.931 85.8657 111.917 85.8488L111.865 85.7847C111.857 85.7746 111.851 85.763 111.847 85.7505C111.843 85.7381 111.842 85.7251 111.843 85.7122C111.844 85.6993 111.848 85.6868 111.854 85.6755C111.86 85.6641 111.868 85.6541 111.878 85.6461Z" fill="#EFD607"/>
<path d="M105.313 85.2487C105.298 85.1728 105.303 85.0949 105.328 85.0149C105.307 85.0963 105.302 85.1742 105.313 85.2487Z" fill="#260E03"/>
<path d="M111.868 85.4867C111.859 85.503 111.846 85.5166 111.83 85.5257C111.814 85.5349 111.796 85.5393 111.777 85.5384C111.759 85.5376 111.741 85.5315 111.726 85.5208C111.711 85.5102 111.699 85.4955 111.692 85.4784C111.655 85.3805 111.669 85.2998 111.735 85.2364C111.83 85.1468 111.914 85.1144 111.985 85.1392C112.002 85.1451 112.017 85.1555 112.029 85.1691C112.041 85.1828 112.048 85.1993 112.052 85.217C112.055 85.2347 112.053 85.2529 112.047 85.2697C112.041 85.2866 112.03 85.3015 112.016 85.3129C111.946 85.3723 111.897 85.4302 111.868 85.4867Z" fill="#EFD607"/>
<path d="M111.433 85.5982C111.337 85.5037 111.23 85.4568 111.194 85.4935C111.158 85.5302 111.207 85.6365 111.303 85.731C111.399 85.8255 111.506 85.8724 111.542 85.8357C111.578 85.799 111.529 85.6927 111.433 85.5982Z" fill="#EFD607"/>
<path d="M109.604 86.9906C109.549 86.4831 109.453 86.0756 109.316 85.768C109.315 85.7644 109.315 85.7603 109.316 85.7565C109.317 85.7527 109.319 85.7495 109.323 85.7473L109.43 85.6584C109.442 85.6483 109.457 85.6416 109.472 85.639C109.488 85.6363 109.503 85.6378 109.518 85.6433C109.533 85.6487 109.546 85.658 109.556 85.6701C109.566 85.6822 109.572 85.6967 109.575 85.7122L109.732 86.8044C109.743 86.8782 109.732 86.9536 109.7 87.0207C109.668 87.0878 109.616 87.1437 109.552 87.1809C109.321 87.3161 109.054 87.394 108.752 87.4147C108.732 87.4159 108.713 87.4096 108.697 87.3969C108.682 87.3842 108.672 87.3662 108.67 87.3464L108.657 87.2699C108.656 87.2601 108.656 87.2501 108.658 87.2405C108.661 87.2308 108.665 87.2218 108.671 87.2139C108.676 87.206 108.684 87.1994 108.692 87.1944C108.7 87.1895 108.71 87.1863 108.719 87.1851L109.033 87.1396C109.05 87.1371 109.065 87.1303 109.078 87.12C109.09 87.1097 109.1 87.0962 109.106 87.0809C109.112 87.0656 109.114 87.0489 109.111 87.0327C109.108 87.0165 109.102 87.0013 109.091 86.9886L108.944 86.8086C108.931 86.7924 108.922 86.7724 108.918 86.7507L108.76 85.9418C108.757 85.9228 108.758 85.903 108.765 85.8849C108.772 85.8668 108.784 85.8511 108.8 85.8394C108.816 85.8278 108.835 85.8207 108.854 85.8191C108.874 85.8174 108.894 85.8212 108.911 85.8301L109.008 85.8839C109.04 85.9005 109.065 85.9281 109.077 85.9615C109.089 85.9948 109.088 86.0313 109.075 86.0639C109.026 86.1811 109.053 86.4155 109.153 86.7672C109.161 86.7958 109.175 86.8224 109.194 86.8452C109.213 86.868 109.236 86.8866 109.263 86.8996L109.538 87.0382C109.545 87.042 109.553 87.0436 109.561 87.043C109.569 87.0424 109.577 87.0395 109.584 87.0346C109.591 87.0297 109.596 87.0231 109.6 87.0154C109.603 87.0076 109.605 86.9991 109.604 86.9906Z" fill="#EFD607"/>
<path d="M116.995 86.2729C116.625 86.275 115.645 86.2832 115.383 85.9191C115.362 85.8931 115.351 85.8611 115.352 85.8281C115.352 85.7951 115.363 85.7631 115.384 85.7374C115.404 85.7116 115.433 85.6934 115.465 85.6859C115.497 85.6783 115.53 85.6818 115.56 85.6957C116.015 85.8943 116.453 85.9129 116.993 85.9109C117.532 85.9088 117.97 85.8881 118.423 85.6875C118.453 85.6734 118.486 85.6697 118.518 85.677C118.55 85.6843 118.579 85.7021 118.6 85.7276C118.62 85.7531 118.632 85.7848 118.632 85.8176C118.633 85.8505 118.623 85.8826 118.603 85.9088C118.342 86.275 117.363 86.2729 116.995 86.2729Z" fill="#260E03"/>
<path d="M112.457 86.1403C112.396 86.2079 112.294 86.2438 112.151 86.2479C112.138 86.2479 112.125 86.2446 112.113 86.2383C112.101 86.2321 112.091 86.223 112.084 86.212C112.076 86.2009 112.072 86.1882 112.071 86.175C112.069 86.1618 112.071 86.1484 112.077 86.1362C112.108 86.0603 112.155 85.9886 112.217 85.921C112.279 85.8535 112.347 85.7997 112.42 85.7597C112.432 85.7535 112.445 85.7503 112.458 85.7505C112.472 85.7507 112.485 85.7542 112.496 85.7608C112.508 85.7674 112.518 85.7768 112.525 85.7881C112.532 85.7995 112.537 85.8125 112.537 85.8259C112.546 85.9679 112.519 86.0727 112.457 86.1403Z" fill="#EFD607"/>
<path d="M111.001 86.0095C111.019 85.942 110.987 85.8755 110.931 85.8609C110.874 85.8463 110.815 85.8892 110.797 85.9567C110.78 86.0242 110.811 86.0907 110.868 86.1053C110.924 86.1199 110.984 86.077 111.001 86.0095Z" fill="#EFD607"/>
<path d="M97.4264 86.1237L97.2052 86.161L95.5289 86.2065C95.5221 86.2065 95.5158 86.2058 95.5103 86.2044L94.758 86.0927C94.7704 86.1231 94.7339 86.1279 94.6484 86.1072L94.8283 85.9645C94.8805 85.9242 94.9445 85.9024 95.0101 85.9024C96.1194 85.8955 96.8332 85.9045 97.1515 85.9293C97.2328 85.9362 97.3244 86.001 97.4264 86.1237Z" fill="#260E03"/>
<path d="M110.456 86.9348C110.434 86.9347 110.413 86.9265 110.396 86.9118C110.38 86.8972 110.37 86.877 110.368 86.8552C110.365 86.8335 110.371 86.8116 110.384 86.7938C110.397 86.7761 110.416 86.7637 110.437 86.759C110.929 86.639 111.313 86.3714 111.59 85.9563C111.596 85.9482 111.603 85.9415 111.611 85.9364C111.62 85.9314 111.629 85.9283 111.639 85.9273C111.648 85.9264 111.658 85.9275 111.667 85.9307C111.676 85.934 111.685 85.9392 111.692 85.946L111.743 85.9998C111.749 86.0052 111.753 86.0123 111.755 86.0201C111.756 86.0279 111.755 86.036 111.752 86.0432C111.455 86.6611 111.023 86.9583 110.456 86.9348Z" fill="#EFD607"/>
<path d="M94.537 86.2852L94.599 86.3348C94.5977 86.3969 94.577 86.441 94.537 86.4672C94.5303 86.4719 94.5225 86.4744 94.5143 86.4746C94.5062 86.4749 94.4981 86.4727 94.491 86.4684C94.4839 86.4641 94.4781 86.4578 94.4742 86.4503C94.4702 86.4428 94.4684 86.4343 94.4688 86.4258C94.4716 86.3789 94.4943 86.332 94.537 86.2852Z" fill="#260E03"/>
<path d="M96.4594 86.3678L96.2031 86.3596C96.2899 86.2961 96.3754 86.2989 96.4594 86.3678Z" fill="#260E03"/>
<path d="M97.5978 86.3203C97.7108 86.4196 97.7094 86.5617 97.5937 86.7465C97.533 86.752 97.4772 86.7706 97.4262 86.8023C97.2444 86.7485 97.0721 86.7582 96.9095 86.8313C96.897 86.8375 96.8865 86.8471 96.8792 86.859C96.8719 86.8709 96.8681 86.8846 96.8683 86.8983C96.8686 86.9121 96.8728 86.9254 96.8804 86.9367C96.8881 86.9479 96.8989 86.9566 96.9116 86.9616C96.9612 86.9809 97.0322 86.9926 97.1245 86.9968L95.1113 86.9637L95.165 86.9223C95.1726 86.9166 95.1787 86.9091 95.1829 86.9006C95.187 86.8921 95.1891 86.8827 95.1888 86.8732C95.1886 86.8637 95.1862 86.8544 95.1817 86.846C95.1772 86.8376 95.1708 86.8305 95.163 86.8251C94.9632 86.6899 94.7455 86.6734 94.5098 86.7754C94.4699 86.7685 94.4458 86.7423 94.4375 86.6968L95.1402 86.4713C95.719 86.5982 96.2867 86.6017 96.8434 86.4817C97.0101 86.541 97.1954 86.5589 97.3994 86.5355C97.4628 86.5286 97.5027 86.5079 97.5193 86.4734C97.5372 86.4375 97.5296 86.3941 97.4965 86.3431L97.5978 86.3203Z" fill="#260E03"/>
<path d="M116.991 86.943C116.59 86.943 115.525 86.9471 115.24 86.5499C115.22 86.5211 115.21 86.4864 115.211 86.4511C115.212 86.4159 115.225 86.3821 115.247 86.3549C115.269 86.3277 115.299 86.3086 115.333 86.3005C115.367 86.2924 115.402 86.2957 115.434 86.31C115.928 86.5251 116.404 86.5479 116.991 86.5479C117.578 86.5499 118.053 86.5272 118.547 86.312C118.579 86.2978 118.614 86.2944 118.648 86.3025C118.682 86.3107 118.712 86.3298 118.734 86.357C118.756 86.3842 118.769 86.418 118.77 86.4532C118.771 86.4884 118.761 86.5231 118.741 86.552C118.456 86.9492 117.39 86.943 116.991 86.943Z" fill="#260E03"/>
<path d="M105.914 86.5541C105.924 86.5566 105.934 86.5623 105.941 86.5705C105.948 86.5787 105.953 86.5892 105.955 86.6008C105.956 86.6125 105.955 86.6249 105.951 86.6367C105.946 86.6485 105.939 86.6593 105.93 86.6679C105.897 86.6996 105.86 86.7079 105.819 86.6927C105.806 86.6877 105.795 86.6792 105.787 86.6683C105.779 86.6574 105.774 86.6444 105.774 86.6311C105.773 86.6178 105.776 86.6046 105.782 86.5931C105.789 86.5817 105.799 86.5724 105.81 86.5666C105.843 86.5486 105.878 86.5445 105.914 86.5541Z" fill="#EFD607"/>
<path d="M107.748 86.8374C107.8 86.7574 107.86 86.7119 107.928 86.7009C108.145 86.6678 108.44 86.8601 108.686 86.8395C108.699 86.8384 108.711 86.8408 108.723 86.8465C108.734 86.8521 108.743 86.8608 108.75 86.8715C108.757 86.8822 108.76 86.8946 108.76 86.9072C108.76 86.9198 108.757 86.9321 108.75 86.9429C108.663 87.0863 108.559 87.1546 108.438 87.1477C108.402 87.1458 108.365 87.1526 108.332 87.1677C108.298 87.1829 108.269 87.2058 108.246 87.2346C107.98 87.5794 107.668 87.6911 107.31 87.5697C107.28 87.5599 107.248 87.5596 107.218 87.5689C107.188 87.5781 107.162 87.5965 107.142 87.6214C107.116 87.6573 107.084 87.678 107.047 87.6835C107.025 87.6876 106.993 87.6718 106.952 87.6359C106.878 87.5738 106.795 87.5752 106.704 87.64C106.676 87.659 106.645 87.6722 106.612 87.679C106.579 87.6857 106.545 87.6859 106.512 87.6794C106.301 87.638 106.155 87.629 106.074 87.6525C106.038 87.6629 106 87.6628 105.965 87.6521C105.929 87.6414 105.898 87.6207 105.875 87.5925C105.766 87.4628 105.602 87.4677 105.381 87.6069C105.343 87.6318 105.288 87.7028 105.218 87.82C105.153 87.9262 105.084 87.9766 105.011 87.971C104.884 87.9628 104.786 87.9021 104.716 87.789C104.706 87.7743 104.702 87.7569 104.703 87.7396C104.705 87.7222 104.712 87.7059 104.724 87.6931C104.736 87.6803 104.752 87.6718 104.769 87.6689C104.786 87.6661 104.804 87.669 104.819 87.6773C104.9 87.7207 105.03 87.789 105.086 87.729C105.109 87.7056 105.123 87.6876 105.127 87.6752C105.133 87.6611 105.134 87.6453 105.129 87.6307C105.124 87.6162 105.113 87.6041 105.1 87.5966C104.965 87.5263 104.898 87.4732 104.9 87.4373C104.908 87.2984 104.933 87.1707 104.972 87.0657C105.011 86.9607 105.063 86.8816 105.123 86.8353C105.188 86.7843 105.28 86.8312 105.4 86.976C105.413 86.9924 105.422 87.0125 105.424 87.0337C105.426 87.0549 105.422 87.0763 105.412 87.0951C105.402 87.1139 105.387 87.1294 105.368 87.1395C105.349 87.1496 105.328 87.1539 105.307 87.1518L105.09 87.1311C105.082 87.1304 105.075 87.1314 105.068 87.1343C105.061 87.1372 105.055 87.1417 105.051 87.1475C105.046 87.1533 105.043 87.1601 105.042 87.1674C105.041 87.1747 105.042 87.1821 105.044 87.1891C105.068 87.2498 105.081 87.2801 105.086 87.2801C105.244 87.2801 105.403 87.2953 105.561 87.3256C105.667 87.3463 105.728 87.3022 105.745 87.1932C105.747 87.1797 105.752 87.167 105.761 87.1566C105.77 87.1461 105.781 87.1385 105.795 87.1344C105.808 87.1302 105.822 87.1299 105.835 87.1334C105.849 87.1368 105.861 87.1439 105.871 87.1539C105.9 87.1842 105.915 87.2263 105.916 87.2801C105.918 87.316 105.941 87.3449 105.985 87.367C106.098 87.4235 106.209 87.4221 106.317 87.3628C106.35 87.3451 106.387 87.3374 106.423 87.3407C106.459 87.344 106.494 87.3582 106.522 87.3815L106.58 87.429C106.592 87.4389 106.607 87.446 106.622 87.4498C106.638 87.4536 106.654 87.4541 106.67 87.4512C106.685 87.4482 106.7 87.4419 106.713 87.4328C106.726 87.4236 106.737 87.4118 106.745 87.398C106.762 87.369 106.778 87.3263 106.793 87.2698C106.795 87.2619 106.799 87.2548 106.805 87.249C106.81 87.2433 106.817 87.2392 106.825 87.237C106.833 87.2349 106.841 87.2349 106.849 87.2371C106.857 87.2392 106.864 87.2433 106.869 87.2491C107.018 87.4118 107.114 87.478 107.157 87.4477C107.223 87.4021 107.25 87.3463 107.239 87.2801C107.231 87.2318 107.228 87.2049 107.231 87.1994C107.238 87.1854 107.248 87.1736 107.261 87.1654C107.274 87.1572 107.29 87.1529 107.305 87.1532C107.321 87.1534 107.336 87.1581 107.349 87.1666C107.361 87.1752 107.372 87.1873 107.378 87.2015L107.429 87.3111C107.44 87.3327 107.454 87.3521 107.472 87.368C107.489 87.3839 107.51 87.3961 107.533 87.4038C107.555 87.4115 107.579 87.4146 107.603 87.4129C107.627 87.4112 107.65 87.4047 107.671 87.3939L108.223 87.1146C108.233 87.11 108.24 87.103 108.246 87.0942C108.252 87.0854 108.255 87.0751 108.255 87.0646C108.255 87.054 108.252 87.0434 108.247 87.0341C108.242 87.0247 108.234 87.0168 108.225 87.0112C108.093 86.9326 107.955 86.907 107.812 86.9346C107.8 86.9365 107.787 86.9348 107.776 86.9298C107.765 86.9248 107.755 86.9168 107.749 86.9065C107.742 86.8963 107.738 86.8844 107.738 86.8721C107.738 86.8598 107.741 86.8478 107.748 86.8374Z" fill="#EFD607"/>
<path d="M104.745 87.047C104.718 86.9231 104.637 86.8354 104.565 86.8513C104.492 86.8671 104.455 86.9804 104.482 87.1043C104.509 87.2282 104.59 87.3158 104.663 87.3C104.735 87.2841 104.772 87.1709 104.745 87.047Z" fill="#EFD607"/>
<path d="M94.3139 86.9038C94.3359 86.9645 94.3276 87.001 94.2891 87.0134C94.4654 87.1886 94.6907 87.2196 94.9649 87.1065C94.998 87.1065 95.0318 87.1238 95.0662 87.1583C95.0731 87.1748 95.0779 87.1983 95.0807 87.2286C95.0827 87.2502 95.0928 87.2702 95.1089 87.2847C95.1249 87.2993 95.1458 87.3073 95.1675 87.3072H96.8996C96.9134 87.3076 96.927 87.3039 96.9387 87.2966C96.9505 87.2893 96.9598 87.2787 96.9655 87.2661C96.9713 87.2535 96.9732 87.2395 96.971 87.2258C96.9688 87.2122 96.9627 87.1995 96.9533 87.1893C96.9409 87.1741 96.9237 87.1576 96.9016 87.1396L97.1889 87.0528C97.3405 87.1589 97.5134 87.1769 97.7077 87.1065C97.723 87.1008 97.7393 87.0984 97.7556 87.0994C97.7719 87.1005 97.7878 87.1049 97.8023 87.1125C97.8167 87.1202 97.8294 87.1308 97.8395 87.1436C97.8495 87.1565 97.8568 87.1714 97.8607 87.1872L97.8648 87.2017C97.8738 87.2349 97.8696 87.2703 97.853 87.3004C97.8364 87.3305 97.8088 87.353 97.7759 87.3631C97.1862 87.5368 96.7962 87.623 96.6061 87.6216C96.0921 87.6189 95.5726 87.6292 95.0476 87.6527C94.9746 87.6458 94.947 87.6299 94.9649 87.6051C94.936 87.5348 94.8802 87.4927 94.7975 87.4789C94.6432 87.4527 94.5199 87.4237 94.4275 87.392C94.3974 87.382 94.3705 87.3641 94.3494 87.3401C94.3284 87.3161 94.314 87.2869 94.3077 87.2555C94.2884 87.1452 94.2904 87.0279 94.3139 86.9038Z" fill="#260E03"/>
<path d="M117.005 87.2244C117.654 87.2223 118.181 87.1954 118.727 86.9555C118.763 86.9401 118.803 86.9368 118.84 86.9461C118.878 86.9555 118.912 86.9769 118.936 87.0072C118.96 87.0374 118.974 87.0748 118.975 87.1137C118.976 87.1525 118.965 87.1907 118.942 87.2223C118.63 87.6629 117.45 87.6588 117.005 87.6609C116.563 87.6629 115.383 87.6733 115.067 87.2347C115.043 87.2032 115.031 87.1647 115.031 87.1253C115.032 87.0859 115.046 87.0478 115.07 87.0171C115.095 86.9863 115.129 86.9646 115.167 86.9553C115.205 86.946 115.246 86.9497 115.282 86.9658C115.829 87.2037 116.354 87.2265 117.005 87.2244Z" fill="#260E03"/>
<path d="M100.436 90.8549C99.3442 90.4384 98.3197 90.1556 97.362 90.0067C97.2974 89.9964 97.2369 89.9684 97.1872 89.9259C97.1374 89.8834 97.1004 89.828 97.0801 89.7658C97.0598 89.7035 97.057 89.6369 97.0721 89.5732C97.0872 89.5095 97.1196 89.4512 97.1656 89.4047L97.9862 88.5834C98.1197 88.4497 98.2859 88.3529 98.4684 88.3025C98.651 88.2521 98.8438 88.2499 99.0279 88.2959L102.31 89.1275C102.311 89.1279 102.312 89.1281 102.312 89.1281C102.313 89.1281 102.314 89.1278 102.315 89.1274C102.315 89.127 102.316 89.1264 102.316 89.1256C102.316 89.1249 102.316 89.1241 102.316 89.1234C102.322 89.0999 102.322 89.0806 102.316 89.0654L102.399 89.0096C102.428 89.0496 102.469 89.0744 102.523 89.0841C103.265 89.2206 104.121 89.4233 104.906 89.504C106.822 89.7054 108.816 89.5364 110.89 88.9972C111.357 88.8744 112.241 88.6538 113.542 88.3352C113.944 88.2373 114.386 88.2207 114.869 88.2856C114.964 88.2976 115.051 88.3458 115.111 88.42L116.402 89.9964C116.411 90.006 116.416 90.0178 116.417 90.0304C116.419 90.043 116.417 90.0558 116.411 90.0673C116.405 90.0789 116.397 90.0886 116.386 90.0955C116.374 90.1024 116.362 90.106 116.349 90.106C115.68 90.095 115.11 90.1612 114.637 90.3046C114.367 90.3873 113.418 90.6618 111.789 91.1279C109.409 91.8078 106.915 92.0044 104.307 91.7175C102.973 91.5713 101.683 91.2838 100.436 90.8549ZM111.2 90.4411L110.921 90.7204C110.907 90.7348 110.899 90.7532 110.896 90.7729C110.894 90.7927 110.898 90.8126 110.907 90.83C110.917 90.8473 110.932 90.8611 110.95 90.8693C110.968 90.8775 110.988 90.8797 111.008 90.8756C111.177 90.8356 111.261 90.7128 111.26 90.5073C111.26 90.4752 111.269 90.4438 111.286 90.4167C111.304 90.3896 111.328 90.3679 111.357 90.3542L111.562 90.2591C111.611 90.2363 111.652 90.1977 111.677 90.1494C111.8 89.9219 111.76 89.7274 111.558 89.5661C111.539 89.5517 111.516 89.5446 111.492 89.546C111.469 89.5475 111.447 89.5574 111.43 89.5738C111.414 89.5903 111.404 89.6122 111.403 89.6352C111.402 89.6582 111.41 89.6808 111.425 89.6985L111.597 89.9053C111.608 89.9184 111.615 89.9338 111.619 89.9503C111.623 89.9667 111.624 89.984 111.62 90.0007C111.617 90.0175 111.61 90.0334 111.6 90.0473C111.59 90.0612 111.577 90.0728 111.562 90.0812C111.435 90.1515 111.285 90.1012 111.111 89.9302C111.099 89.9188 111.084 89.9124 111.068 89.9124C111.051 89.9124 111.036 89.9188 111.024 89.9302L110.985 89.9695C110.979 89.9758 110.973 89.9834 110.97 89.9917C110.966 90.0001 110.965 90.009 110.965 90.0181C110.965 90.0271 110.966 90.0361 110.97 90.0444C110.973 90.0528 110.979 90.0603 110.985 90.0667L111.2 90.2818C111.211 90.2922 111.219 90.3046 111.225 90.3183C111.23 90.332 111.233 90.3467 111.233 90.3615C111.233 90.3763 111.23 90.391 111.225 90.4047C111.219 90.4183 111.211 90.4307 111.2 90.4411ZM109.526 89.7129C109.497 89.7074 109.478 89.7323 109.468 89.7874C109.467 89.7919 109.468 89.7965 109.469 89.8008C109.471 89.8051 109.473 89.809 109.476 89.8122C109.498 89.8343 109.517 89.844 109.532 89.8412C109.547 89.8393 109.56 89.8321 109.57 89.8208C109.579 89.8095 109.584 89.7949 109.583 89.7796C109.582 89.7643 109.576 89.7492 109.566 89.737C109.555 89.7248 109.541 89.7163 109.526 89.7129ZM102.199 90.9149C102.474 90.9907 102.666 90.8928 102.775 90.6211C102.787 90.593 102.791 90.5624 102.788 90.5321C102.784 90.5018 102.774 90.4727 102.757 90.4473C102.62 90.246 102.522 90.0419 102.463 89.835C102.433 89.7329 102.369 89.7019 102.271 89.7419C102.247 89.7517 102.227 89.7677 102.212 89.7883C102.197 89.809 102.188 89.8337 102.185 89.86C102.183 89.8863 102.187 89.9134 102.197 89.9387C102.207 89.964 102.223 89.9867 102.244 90.0046C102.386 90.1301 102.497 90.2653 102.577 90.4101C102.595 90.4436 102.6 90.4831 102.589 90.5199C102.579 90.5567 102.554 90.5879 102.521 90.6066L102.184 90.7907C102.172 90.7975 102.163 90.8076 102.156 90.8198C102.15 90.832 102.148 90.8456 102.149 90.859C102.151 90.8724 102.156 90.8849 102.165 90.8948C102.174 90.9048 102.186 90.9118 102.199 90.9149ZM104.305 90.828C104.28 90.8473 104.265 90.8659 104.261 90.8838C104.26 90.8906 104.257 90.8967 104.251 90.9009C104.246 90.9052 104.239 90.9072 104.232 90.9066L103.298 90.8176C103.261 90.814 103.225 90.8027 103.193 90.7843C103.16 90.766 103.132 90.7411 103.11 90.7111C103.087 90.6812 103.072 90.6469 103.063 90.6104C103.055 90.5739 103.054 90.536 103.06 90.4991C103.135 90.1005 103.167 89.8812 103.156 89.8412C103.152 89.8272 103.143 89.8146 103.132 89.8053C103.121 89.796 103.107 89.7903 103.093 89.7889C103.078 89.7876 103.063 89.7907 103.051 89.7978C103.038 89.8049 103.028 89.8157 103.021 89.8288C102.846 90.1763 102.819 90.5404 102.941 90.9211C102.953 90.9615 102.978 90.9972 103.011 91.0237C103.044 91.0502 103.084 91.0663 103.127 91.07L104.565 91.2086C104.67 91.2184 104.774 91.1862 104.855 91.1191C104.936 91.052 104.987 90.9555 104.997 90.8507L105.072 90.0688C105.073 90.0588 105.072 90.0487 105.069 90.0391C105.066 90.0295 105.061 90.0206 105.055 90.0129C105.049 90.0052 105.041 89.9988 105.032 89.9942C105.023 89.9896 105.013 89.9868 105.003 89.986L104.952 89.9798C104.934 89.9786 104.917 89.984 104.904 89.9948C104.891 90.0056 104.883 90.021 104.881 90.0377L104.803 90.8652C104.8 90.8992 104.787 90.9315 104.765 90.958C104.744 90.9845 104.715 91.004 104.682 91.014C104.65 91.024 104.615 91.024 104.582 91.0141C104.55 91.0042 104.521 90.9848 104.499 90.9583L104.402 90.8404C104.391 90.8261 104.374 90.8168 104.356 90.8145C104.338 90.8121 104.319 90.817 104.305 90.828ZM110.446 90.6418C110.517 90.6225 110.576 90.5708 110.623 90.4866C110.635 90.4659 110.641 90.4427 110.641 90.4192C110.641 90.3956 110.635 90.3726 110.623 90.3522C110.47 90.0598 110.348 89.926 110.257 89.9508C110.167 89.9757 110.129 90.1529 110.146 90.4825C110.146 90.5059 110.153 90.5287 110.165 90.549C110.177 90.5692 110.194 90.5862 110.214 90.5983C110.297 90.6466 110.374 90.6611 110.446 90.6418ZM105.436 89.9519C105.411 89.9504 105.383 90.0134 105.359 90.127C105.334 90.2406 105.315 90.3954 105.305 90.5575C105.301 90.6378 105.298 90.7175 105.299 90.7919C105.299 90.8664 105.302 90.9342 105.307 90.9914C105.313 91.0487 105.321 91.0944 105.33 91.1258C105.34 91.1572 105.351 91.1737 105.364 91.1744C105.389 91.1759 105.417 91.113 105.442 90.9994C105.466 90.8858 105.486 90.7309 105.495 90.5688C105.5 90.4886 105.502 90.4089 105.502 90.3345C105.501 90.26 105.498 90.1922 105.493 90.1349C105.488 90.0776 105.48 90.032 105.47 90.0006C105.46 89.9692 105.449 89.9527 105.436 89.9519ZM106.75 89.9643C106.716 89.9678 106.69 90.0325 106.677 90.1442C106.665 90.2559 106.666 90.4054 106.682 90.5598C106.698 90.7143 106.727 90.861 106.762 90.9677C106.797 91.0745 106.836 91.1325 106.87 91.129C106.904 91.1255 106.93 91.0608 106.943 90.9491C106.955 90.8374 106.953 90.6879 106.937 90.5335C106.921 90.379 106.893 90.2323 106.857 90.1255C106.822 90.0188 106.784 89.9608 106.75 89.9643ZM109.803 90.859L109.883 90.7804C109.89 90.7735 109.894 90.765 109.896 90.7556C109.898 90.7462 109.898 90.7362 109.896 90.7266C109.777 90.306 109.697 90.0715 109.656 90.0233C109.652 90.0178 109.646 90.0139 109.639 90.012C109.633 90.0102 109.626 90.0105 109.619 90.013C109.613 90.0155 109.607 90.02 109.603 90.0259C109.599 90.0318 109.596 90.0388 109.596 90.046L109.588 90.7618C109.588 90.7908 109.579 90.8192 109.562 90.8432C109.546 90.8673 109.522 90.8857 109.495 90.8962C109.073 91.059 108.672 91.0948 108.292 91.0038C108.283 91.0019 108.273 91.0027 108.265 91.0064C108.256 91.01 108.249 91.0162 108.244 91.0241C108.239 91.032 108.236 91.0412 108.237 91.0506C108.237 91.0599 108.241 91.0688 108.246 91.0762C108.513 91.3927 109.09 91.2396 109.575 91.1279C109.594 91.1238 109.613 91.1239 109.631 91.1283C109.649 91.1327 109.666 91.1412 109.68 91.1532C109.695 91.1652 109.706 91.1804 109.714 91.1975C109.721 91.2147 109.725 91.2333 109.724 91.2521L109.72 91.3451C109.719 91.3626 109.724 91.3799 109.732 91.3952C109.74 91.4105 109.753 91.4233 109.768 91.4322C109.783 91.441 109.8 91.4457 109.817 91.4457C109.835 91.4457 109.852 91.441 109.867 91.432C109.893 91.4182 109.913 91.3686 109.927 91.2831C109.938 91.2238 109.926 91.17 109.892 91.1217C109.77 90.9466 109.706 90.8487 109.699 90.828C109.698 90.8246 109.698 90.821 109.699 90.8176C109.699 90.8141 109.701 90.8109 109.703 90.8082C109.706 90.8055 109.708 90.8034 109.712 90.8022C109.715 90.8009 109.719 90.8006 109.722 90.8011C109.776 90.8094 109.797 90.8245 109.786 90.8466C109.785 90.8477 109.785 90.8489 109.784 90.8502C109.784 90.8515 109.784 90.8529 109.784 90.8543C109.784 90.8556 109.785 90.8569 109.786 90.8581C109.786 90.8592 109.787 90.8603 109.788 90.8611C109.789 90.8619 109.791 90.8625 109.792 90.8628C109.793 90.8632 109.795 90.8632 109.796 90.863C109.797 90.8628 109.799 90.8624 109.8 90.8617C109.801 90.861 109.802 90.8601 109.803 90.859ZM101.333 90.5632C101.429 90.6473 101.483 90.6935 101.494 90.7018C101.547 90.7387 101.61 90.7555 101.673 90.7502C101.737 90.7449 101.798 90.7177 101.85 90.6719C101.902 90.6261 101.943 90.5639 101.966 90.493C101.989 90.4222 101.995 90.3458 101.982 90.2736C101.962 90.1619 101.878 90.1039 101.727 90.0998C101.714 90.0992 101.702 90.1013 101.689 90.106C101.677 90.1107 101.666 90.1178 101.657 90.127C101.648 90.1361 101.641 90.1471 101.636 90.1591C101.632 90.1712 101.63 90.1841 101.63 90.197C101.633 90.2218 101.661 90.2549 101.715 90.2963C101.734 90.3097 101.747 90.3288 101.752 90.3507C101.757 90.3725 101.754 90.3958 101.744 90.4166C101.733 90.4375 101.715 90.4548 101.694 90.4656C101.672 90.4764 101.647 90.4802 101.624 90.4763C101.57 90.4694 101.538 90.4453 101.527 90.4039C101.525 90.3973 101.522 90.3911 101.518 90.3856C101.514 90.3802 101.509 90.3757 101.503 90.3724C101.497 90.3691 101.491 90.3671 101.484 90.3664C101.478 90.3658 101.471 90.3666 101.465 90.3687L100.791 90.588C100.777 90.5929 100.764 90.6015 100.755 90.6128C100.745 90.6242 100.738 90.6379 100.736 90.6526C100.733 90.6673 100.734 90.6825 100.739 90.6966C100.744 90.7106 100.753 90.7231 100.764 90.7328C100.818 90.7783 100.89 90.799 100.979 90.7949C101.041 90.7921 101.082 90.7645 101.103 90.7121C101.132 90.6349 101.154 90.5887 101.169 90.5735C101.19 90.5507 101.219 90.5369 101.249 90.5349C101.28 90.533 101.31 90.5431 101.333 90.5632ZM107.294 90.3575C107.283 90.3676 107.277 90.3827 107.275 90.4019C107.274 90.4211 107.278 90.4441 107.287 90.4695C107.296 90.4949 107.309 90.5223 107.327 90.5501C107.345 90.5779 107.366 90.6056 107.389 90.6315C107.413 90.6574 107.438 90.6811 107.464 90.7012C107.49 90.7213 107.516 90.7374 107.541 90.7486C107.565 90.7598 107.588 90.7659 107.607 90.7666C107.626 90.7672 107.642 90.7623 107.653 90.7523C107.664 90.7422 107.67 90.7272 107.671 90.708C107.672 90.6887 107.669 90.6658 107.66 90.6403C107.651 90.6149 107.637 90.5875 107.62 90.5597C107.602 90.5319 107.581 90.5042 107.557 90.4783C107.534 90.4524 107.508 90.4287 107.482 90.4086C107.456 90.3885 107.43 90.3724 107.406 90.3612C107.381 90.35 107.359 90.3439 107.34 90.3432C107.32 90.3426 107.305 90.3475 107.294 90.3575ZM111.717 90.5632C111.719 90.5761 111.726 90.5885 111.735 90.5981C111.745 90.6077 111.757 90.6139 111.77 90.6157C111.783 90.6174 111.795 90.6146 111.805 90.6076C111.814 90.6006 111.82 90.59 111.822 90.5777C111.822 90.5501 111.808 90.5287 111.781 90.5135C111.775 90.511 111.769 90.5103 111.764 90.5114C111.758 90.5126 111.753 90.5155 111.75 90.5197C111.726 90.5446 111.715 90.559 111.717 90.5632ZM106.297 90.5998C106.284 90.6066 106.275 90.6192 106.269 90.6367C106.263 90.6543 106.261 90.6765 106.264 90.7022C106.266 90.7278 106.272 90.7563 106.282 90.7861C106.292 90.8159 106.305 90.8464 106.321 90.8758C106.337 90.9052 106.355 90.933 106.374 90.9576C106.394 90.9822 106.414 91.003 106.434 91.019C106.454 91.035 106.474 91.0458 106.492 91.0507C106.509 91.0557 106.525 91.0547 106.538 91.0479C106.55 91.0411 106.56 91.0285 106.565 91.0109C106.571 90.9934 106.573 90.9711 106.571 90.9455C106.568 90.9199 106.562 90.8913 106.552 90.8615C106.543 90.8318 106.529 90.8013 106.514 90.7718C106.498 90.7424 106.48 90.7146 106.46 90.6901C106.441 90.6655 106.42 90.6446 106.4 90.6287C106.38 90.6127 106.36 90.6019 106.343 90.597C106.325 90.592 106.309 90.593 106.297 90.5998ZM110.28 91.0679C110.459 91.0693 110.577 90.9797 110.634 90.799C110.638 90.7833 110.638 90.7665 110.632 90.7512C110.626 90.7358 110.616 90.7226 110.602 90.7136C110.589 90.7046 110.573 90.7002 110.556 90.701C110.54 90.7019 110.524 90.7079 110.512 90.7183L110.237 90.9438C110.226 90.953 110.218 90.9653 110.214 90.9791C110.21 90.9928 110.211 91.0074 110.216 91.0209C110.22 91.0343 110.229 91.046 110.241 91.0545C110.252 91.0629 110.266 91.0676 110.28 91.0679ZM107.558 90.9149L107.186 90.8797C107.178 90.8788 107.17 90.8796 107.162 90.882C107.154 90.8844 107.147 90.8883 107.141 90.8935C107.135 90.8987 107.13 90.9051 107.126 90.9124C107.123 90.9196 107.12 90.9275 107.12 90.9355L107.114 90.9935C107.111 91.0269 107.119 91.0603 107.136 91.0886C107.154 91.117 107.18 91.1387 107.211 91.1507C107.346 91.2031 107.476 91.1948 107.601 91.1259C107.623 91.1148 107.641 91.0968 107.651 91.0747C107.662 91.0527 107.665 91.0278 107.66 91.0038C107.655 90.9798 107.643 90.9582 107.624 90.9421C107.606 90.926 107.582 90.9165 107.558 90.9149ZM106.448 91.2355L106.126 91.4424C106.12 91.4455 106.116 91.4497 106.112 91.4547C106.109 91.4597 106.106 91.4654 106.105 91.4713C106.103 91.4773 106.103 91.4835 106.104 91.4896C106.106 91.4956 106.108 91.5014 106.111 91.5065L106.171 91.6017C106.178 91.6135 106.19 91.6222 106.203 91.626C106.217 91.6299 106.231 91.6286 106.244 91.6223C106.405 91.5451 106.512 91.4506 106.566 91.3389C106.574 91.3229 106.577 91.3045 106.574 91.2867C106.571 91.2689 106.561 91.2527 106.548 91.2408C106.534 91.2289 106.517 91.2219 106.499 91.2209C106.481 91.2199 106.463 91.2251 106.448 91.2355Z" fill="#260E03"/>
<path d="M111.203 90.2819L110.988 90.0668C110.982 90.0604 110.977 90.0528 110.973 90.0445C110.97 90.0361 110.968 90.0272 110.968 90.0181C110.968 90.0091 110.97 90.0001 110.973 89.9918C110.977 89.9834 110.982 89.9759 110.988 89.9695L111.027 89.9302C111.039 89.9189 111.055 89.9125 111.071 89.9125C111.087 89.9125 111.103 89.9189 111.114 89.9302C111.288 90.1012 111.438 90.1516 111.565 90.0812C111.58 90.0728 111.593 90.0613 111.603 90.0474C111.613 90.0335 111.62 90.0176 111.624 90.0008C111.627 89.984 111.626 89.9668 111.622 89.9503C111.618 89.9338 111.611 89.9185 111.6 89.9054L111.428 89.6985C111.413 89.6808 111.405 89.6583 111.406 89.6352C111.407 89.6122 111.417 89.5904 111.433 89.5739C111.45 89.5574 111.472 89.5475 111.496 89.5461C111.519 89.5446 111.542 89.5518 111.561 89.5661C111.763 89.7275 111.803 89.9219 111.68 90.1495C111.655 90.1978 111.614 90.2363 111.565 90.2591L111.36 90.3543C111.331 90.368 111.307 90.3897 111.289 90.4168C111.272 90.4439 111.263 90.4753 111.263 90.5074C111.264 90.7129 111.18 90.8356 111.011 90.8756C110.991 90.8798 110.971 90.8776 110.953 90.8694C110.935 90.8612 110.92 90.8474 110.91 90.83C110.901 90.8127 110.897 90.7927 110.899 90.773C110.902 90.7533 110.91 90.7349 110.924 90.7205L111.203 90.4412C111.214 90.4308 111.222 90.4184 111.228 90.4047C111.233 90.391 111.236 90.3764 111.236 90.3615C111.236 90.3467 111.233 90.332 111.228 90.3184C111.222 90.3047 111.214 90.2923 111.203 90.2819Z" fill="#EFD607"/>
<path d="M109.535 89.7132C109.55 89.7165 109.564 89.725 109.575 89.7372C109.585 89.7494 109.591 89.7645 109.592 89.7798C109.593 89.7951 109.588 89.8097 109.579 89.821C109.569 89.8323 109.556 89.8395 109.541 89.8414C109.526 89.8442 109.507 89.8345 109.485 89.8125C109.482 89.8093 109.479 89.8053 109.478 89.801C109.477 89.7967 109.476 89.7921 109.477 89.7876C109.487 89.7325 109.506 89.7076 109.535 89.7132Z" fill="#EFD607"/>
<path d="M102.191 90.7908L102.528 90.6067C102.562 90.588 102.586 90.5568 102.597 90.52C102.607 90.4831 102.603 90.4437 102.584 90.4102C102.504 90.2654 102.393 90.1302 102.251 90.0047C102.231 89.9868 102.214 89.9641 102.204 89.9388C102.194 89.9135 102.19 89.8864 102.193 89.8601C102.195 89.8337 102.205 89.8091 102.22 89.7884C102.235 89.7678 102.255 89.7518 102.278 89.742C102.376 89.702 102.44 89.733 102.47 89.8351C102.53 90.0419 102.628 90.2461 102.764 90.4474C102.781 90.4728 102.792 90.5019 102.795 90.5322C102.798 90.5625 102.794 90.5931 102.783 90.6212C102.674 90.8929 102.482 90.9908 102.206 90.9149C102.193 90.9118 102.181 90.9049 102.173 90.8949C102.164 90.8849 102.158 90.8725 102.157 90.8591C102.155 90.8457 102.158 90.8321 102.164 90.8199C102.17 90.8077 102.18 90.7976 102.191 90.7908Z" fill="#EFD607"/>
<path d="M104.411 90.8403L104.508 90.9582C104.529 90.9847 104.558 91.0041 104.591 91.014C104.624 91.024 104.658 91.0239 104.691 91.0139C104.724 91.0039 104.753 90.9845 104.774 90.958C104.796 90.9315 104.809 90.8991 104.812 90.8651L104.89 90.0377C104.892 90.021 104.9 90.0056 104.913 89.9948C104.926 89.9839 104.943 89.9785 104.961 89.9797L105.012 89.986C105.022 89.9867 105.032 89.9895 105.041 89.9941C105.05 89.9987 105.058 90.0051 105.064 90.0128C105.07 90.0205 105.075 90.0295 105.078 90.0391C105.081 90.0487 105.082 90.0588 105.08 90.0687L105.006 90.8507C104.996 90.9554 104.945 91.052 104.864 91.1191C104.783 91.1862 104.679 91.2183 104.574 91.2086L103.135 91.0699C103.093 91.0662 103.053 91.0501 103.02 91.0236C102.987 90.9971 102.962 90.9614 102.949 90.921C102.828 90.5404 102.855 90.1763 103.03 89.8287C103.037 89.8157 103.047 89.8049 103.06 89.7977C103.072 89.7906 103.087 89.7875 103.101 89.7889C103.116 89.7902 103.13 89.7959 103.141 89.8053C103.152 89.8146 103.16 89.8271 103.164 89.8411C103.175 89.8811 103.144 90.1004 103.069 90.499C103.063 90.5359 103.063 90.5738 103.072 90.6103C103.08 90.6468 103.096 90.6811 103.119 90.7111C103.141 90.741 103.169 90.7659 103.202 90.7843C103.234 90.8026 103.27 90.8139 103.307 90.8176L104.241 90.9065C104.248 90.9071 104.255 90.9051 104.26 90.9009C104.266 90.8967 104.269 90.8905 104.27 90.8838C104.274 90.8658 104.289 90.8472 104.314 90.8279C104.328 90.8169 104.347 90.8121 104.365 90.8144C104.383 90.8167 104.399 90.826 104.411 90.8403Z" fill="#EFD607"/>
<path d="M110.264 89.9509C110.355 89.9261 110.477 90.0599 110.63 90.3522C110.641 90.3727 110.647 90.3957 110.647 90.4192C110.647 90.4427 110.641 90.4659 110.63 90.4867C110.583 90.5708 110.524 90.6225 110.452 90.6419C110.38 90.6612 110.303 90.6467 110.22 90.5984C110.2 90.5863 110.183 90.5693 110.171 90.549C110.159 90.5288 110.153 90.5059 110.152 90.4826C110.136 90.153 110.173 89.9757 110.264 89.9509ZM110.458 90.4371C110.462 90.4098 110.459 90.3819 110.447 90.3566C110.436 90.3314 110.418 90.3099 110.395 90.2947C110.371 90.2795 110.344 90.2712 110.316 90.2708C110.288 90.2703 110.261 90.2778 110.237 90.2922C110.215 90.306 110.205 90.3191 110.208 90.3316C110.233 90.4295 110.288 90.4846 110.373 90.497C110.423 90.5039 110.451 90.4839 110.458 90.4371Z" fill="#EFD607"/>
<path d="M105.5 90.5687C105.52 90.2311 105.493 89.955 105.441 89.9518C105.388 89.9487 105.33 90.2199 105.31 90.5574C105.29 90.895 105.316 91.1712 105.368 91.1743C105.421 91.1775 105.48 90.9063 105.5 90.5687Z" fill="#EFD607"/>
<path d="M106.937 90.5336C106.904 90.212 106.82 89.9572 106.749 89.9645C106.679 89.9718 106.649 90.2384 106.682 90.56C106.715 90.8816 106.799 91.1364 106.87 91.1291C106.94 91.1219 106.97 90.8552 106.937 90.5336Z" fill="#EFD607"/>
<path d="M109.792 90.8467C109.803 90.8246 109.781 90.8095 109.728 90.8012C109.724 90.8007 109.72 90.801 109.717 90.8023C109.714 90.8035 109.711 90.8056 109.709 90.8083C109.706 90.811 109.705 90.8142 109.704 90.8177C109.703 90.8212 109.704 90.8247 109.705 90.8281C109.712 90.8488 109.776 90.9467 109.897 91.1218C109.931 91.1701 109.943 91.2239 109.932 91.2832C109.918 91.3687 109.898 91.4184 109.872 91.4321C109.857 91.4411 109.84 91.4458 109.823 91.4458C109.805 91.4458 109.788 91.4412 109.773 91.4323C109.758 91.4234 109.746 91.4106 109.737 91.3953C109.729 91.38 109.725 91.3627 109.725 91.3453L109.73 91.2522C109.73 91.2334 109.727 91.2148 109.719 91.1976C109.712 91.1805 109.7 91.1653 109.686 91.1533C109.671 91.1413 109.654 91.1328 109.636 91.1284C109.618 91.124 109.599 91.1239 109.581 91.1281C109.095 91.2398 108.518 91.3928 108.252 91.0763C108.246 91.069 108.243 91.06 108.242 91.0507C108.242 91.0414 108.244 91.0321 108.249 91.0242C108.254 91.0163 108.261 91.0101 108.27 91.0065C108.279 91.0029 108.288 91.002 108.297 91.0039C108.678 91.095 109.079 91.0591 109.5 90.8964C109.528 90.8859 109.551 90.8674 109.568 90.8433C109.584 90.8193 109.593 90.7909 109.593 90.7619L109.601 90.0461C109.602 90.039 109.604 90.0319 109.608 90.026C109.612 90.0201 109.618 90.0156 109.625 90.0132C109.631 90.0107 109.638 90.0103 109.645 90.0121C109.651 90.014 109.657 90.0179 109.661 90.0234C109.703 90.0716 109.783 90.3061 109.901 90.7267C109.904 90.7363 109.904 90.7463 109.902 90.7557C109.899 90.7651 109.895 90.7736 109.889 90.7805L109.808 90.8591C109.807 90.8602 109.806 90.8611 109.805 90.8618C109.804 90.8625 109.803 90.863 109.801 90.8632C109.8 90.8633 109.799 90.8633 109.797 90.8629C109.796 90.8626 109.795 90.862 109.794 90.8612C109.793 90.8604 109.792 90.8594 109.791 90.8582C109.79 90.857 109.79 90.8557 109.79 90.8544C109.789 90.853 109.79 90.8517 109.79 90.8503C109.79 90.849 109.791 90.8478 109.792 90.8467Z" fill="#EFD607"/>
<path d="M101.169 90.5734C101.154 90.5886 101.132 90.6348 101.103 90.712C101.083 90.7644 101.041 90.792 100.979 90.7948C100.89 90.7989 100.818 90.7782 100.764 90.7327C100.753 90.7231 100.744 90.7106 100.739 90.6965C100.734 90.6824 100.733 90.6672 100.736 90.6525C100.739 90.6378 100.745 90.6241 100.755 90.6128C100.765 90.6014 100.777 90.5928 100.791 90.5879L101.465 90.3686C101.471 90.3665 101.478 90.3657 101.484 90.3664C101.491 90.367 101.497 90.369 101.503 90.3723C101.509 90.3756 101.514 90.3801 101.518 90.3855C101.522 90.391 101.525 90.3972 101.527 90.4038C101.538 90.4452 101.57 90.4693 101.624 90.4762C101.648 90.4801 101.672 90.4763 101.694 90.4655C101.716 90.4547 101.733 90.4374 101.744 90.4165C101.754 90.3957 101.757 90.3724 101.752 90.3506C101.747 90.3287 101.734 90.3096 101.715 90.2962C101.661 90.2549 101.633 90.2218 101.63 90.1969C101.63 90.184 101.632 90.1711 101.637 90.159C101.641 90.147 101.648 90.136 101.658 90.1269C101.667 90.1177 101.678 90.1106 101.69 90.1059C101.702 90.1012 101.715 90.0991 101.728 90.0997C101.878 90.1038 101.962 90.1618 101.982 90.2735C101.995 90.3457 101.99 90.4221 101.966 90.493C101.943 90.5638 101.903 90.6261 101.851 90.6718C101.798 90.7176 101.737 90.7448 101.673 90.7501C101.61 90.7555 101.547 90.7386 101.494 90.7017C101.483 90.6934 101.429 90.6472 101.333 90.5631C101.31 90.543 101.28 90.5329 101.25 90.5348C101.219 90.5368 101.19 90.5506 101.169 90.5734Z" fill="#EFD607"/>
<path d="M116.693 90.2219C116.688 90.2176 116.684 90.2122 116.681 90.206C116.678 90.1999 116.676 90.1931 116.676 90.1862C116.676 90.1793 116.677 90.1725 116.68 90.1661C116.682 90.1598 116.686 90.1541 116.691 90.1495L116.782 90.0709C116.784 90.0696 116.786 90.0688 116.789 90.0688C116.791 90.0688 116.793 90.0696 116.795 90.0709C117.26 90.4212 117.63 90.826 117.905 91.2852C118.049 91.5266 118.265 91.9355 118.552 92.512C118.558 92.5236 118.56 92.5369 118.557 92.5499C118.555 92.5628 118.549 92.5746 118.539 92.5835C118.529 92.5925 118.517 92.598 118.504 92.5993C118.491 92.6005 118.478 92.5975 118.467 92.5906L117.82 92.1913C117.771 92.1603 117.714 92.1445 117.655 92.1458L116.057 92.1934C115.961 92.1961 115.867 92.227 115.786 92.2823C115.708 92.3348 115.311 92.474 114.598 92.7002C114.161 92.8381 113.8 92.7692 113.515 92.4934C113.464 92.4445 113.427 92.384 113.407 92.3175C113.319 92.021 113.413 91.7734 113.688 91.5749C114.174 91.2273 115.017 91.5521 115.821 91.7548C116.735 91.9845 117.636 90.9873 116.693 90.2219Z" fill="#260E03"/>
<path d="M110.454 90.4371C110.447 90.484 110.419 90.504 110.369 90.4971C110.284 90.4846 110.228 90.4295 110.204 90.3316C110.201 90.3192 110.21 90.3061 110.233 90.2923C110.256 90.2778 110.284 90.2703 110.312 90.2708C110.34 90.2712 110.367 90.2795 110.39 90.2947C110.413 90.31 110.432 90.3314 110.443 90.3566C110.454 90.3819 110.458 90.4098 110.454 90.4371Z" fill="#260E03"/>
<path d="M113.198 91.9845C113.194 91.9975 113.187 92.009 113.176 92.0175C113.165 92.026 113.152 92.0312 113.139 92.0323C113.125 92.0334 113.112 92.0304 113.1 92.0238C113.088 92.0171 113.078 92.007 113.072 91.9949L112.711 91.2791C112.702 91.2614 112.697 91.2421 112.696 91.2224C112.694 91.2026 112.698 91.1829 112.705 91.1646C112.712 91.1462 112.722 91.1296 112.736 91.1158C112.75 91.1021 112.767 91.0914 112.785 91.0846C113.813 90.7012 114.81 90.4309 115.776 90.2737C116.218 90.2006 116.553 90.3096 116.78 90.6006C117.074 90.9771 116.704 91.4611 116.342 91.5025C115.914 91.548 115.516 91.5136 115.15 91.3991C114.3 91.1343 113.5 91.0288 113.198 91.9845Z" fill="#260E03"/>
<path d="M98.0915 90.3709L98.0997 90.4578C98.0997 90.5337 98.1734 90.5681 98.3209 90.5612C98.3509 90.5599 98.3811 90.5641 98.4098 90.5737L100.346 91.1488C100.308 91.5239 100.147 91.828 99.8628 92.061C99.8095 92.1048 99.7647 92.1566 99.7305 92.2141C99.4522 92.6803 99.0918 92.8437 98.6495 92.7044C97.4066 92.1183 96.1596 91.9673 94.9084 92.2514C94.888 92.2556 94.8668 92.2541 94.8472 92.247C94.8275 92.24 94.8103 92.2277 94.7974 92.2116C94.7845 92.1954 94.7764 92.176 94.7741 92.1556C94.7718 92.1353 94.7754 92.1147 94.7844 92.0962C95.0683 91.5032 95.4134 90.997 95.8199 90.5778C95.8324 90.565 95.8485 90.5565 95.866 90.5535C95.8836 90.5504 95.9016 90.5529 95.9176 90.5607C95.9336 90.5685 95.9468 90.5811 95.9552 90.5968C95.9637 90.6125 95.9669 90.6305 95.9646 90.6481C95.9426 90.8371 95.9371 91.0164 95.9481 91.186C95.9619 91.408 96.0425 91.4997 96.1899 91.4611L96.2436 91.4963C96.1995 91.5611 96.2057 91.608 96.2622 91.637C96.6646 91.8521 97.1083 91.8804 97.5933 91.7218C97.6292 91.7039 97.665 91.6866 97.7008 91.6701L99.096 91.4466C99.1249 91.4715 99.158 91.4894 99.1952 91.5004C99.1883 91.5239 99.18 91.548 99.1704 91.5728C99.1657 91.5841 99.1656 91.5967 99.1702 91.6083C99.1749 91.6198 99.1838 91.6293 99.1952 91.6349L99.5879 91.8335C99.6083 91.8438 99.631 91.849 99.6541 91.8486C99.6771 91.8482 99.6998 91.8424 99.7202 91.8314C99.8387 91.7694 99.8421 91.6921 99.7305 91.5997C99.7002 91.5418 99.6616 91.5046 99.6148 91.488L99.6334 91.4239C99.6371 91.4098 99.6364 91.3948 99.6312 91.3808C99.6261 91.3668 99.6167 91.3544 99.6044 91.3453C99.1125 90.9833 98.2899 91.1694 97.7794 91.366C97.4445 91.4963 96.3863 91.5315 96.2953 91.0019C96.2831 90.9308 96.2879 90.8576 96.3093 90.7869C96.3308 90.7162 96.3684 90.6493 96.42 90.5903C96.4716 90.5314 96.536 90.4815 96.6094 90.4438C96.6829 90.4061 96.7637 90.3813 96.8472 90.3709C97.1641 90.3323 97.532 90.3709 97.9509 90.4868C97.9895 90.4978 98.0219 90.4916 98.0481 90.4682C98.0742 90.4433 98.0887 90.4109 98.0915 90.3709Z" fill="#260E03"/>
<path d="M107.559 90.4783C107.46 90.3693 107.342 90.3152 107.296 90.3575C107.249 90.3998 107.292 90.5225 107.391 90.6315C107.49 90.7405 107.608 90.7946 107.654 90.7523C107.701 90.71 107.658 90.5873 107.559 90.4783Z" fill="#EFD607"/>
<path d="M111.719 90.5632C111.717 90.5591 111.729 90.5446 111.752 90.5198C111.755 90.5155 111.76 90.5126 111.766 90.5115C111.772 90.5104 111.778 90.5111 111.783 90.5136C111.811 90.5288 111.824 90.5501 111.824 90.5777C111.822 90.5901 111.816 90.6007 111.807 90.6077C111.797 90.6146 111.785 90.6175 111.772 90.6158C111.76 90.614 111.747 90.6078 111.738 90.5982C111.728 90.5885 111.721 90.5762 111.719 90.5632Z" fill="#EFD607"/>
<path d="M106.518 90.7721C106.451 90.6484 106.354 90.5713 106.301 90.6C106.247 90.6288 106.258 90.7523 106.325 90.8761C106.391 90.9998 106.488 91.0768 106.542 91.0481C106.595 91.0194 106.584 90.8958 106.518 90.7721Z" fill="#EFD607"/>
<path d="M110.287 91.068C110.273 91.0676 110.259 91.0629 110.248 91.0545C110.236 91.0461 110.227 91.0343 110.223 91.0209C110.218 91.0074 110.217 90.9928 110.221 90.9791C110.225 90.9653 110.233 90.953 110.244 90.9438L110.519 90.7183C110.531 90.708 110.547 90.7019 110.563 90.701C110.58 90.7002 110.596 90.7046 110.609 90.7136C110.623 90.7226 110.633 90.7358 110.639 90.7512C110.645 90.7666 110.645 90.7833 110.641 90.799C110.584 90.9797 110.466 91.0693 110.287 91.068Z" fill="#EFD607"/>
<path d="M107.562 90.9149C107.587 90.9165 107.61 90.9261 107.628 90.9421C107.647 90.9582 107.659 90.9799 107.664 91.0038C107.669 91.0278 107.666 91.0527 107.655 91.0748C107.645 91.0968 107.627 91.1148 107.606 91.1259C107.48 91.1949 107.35 91.2031 107.215 91.1507C107.184 91.1388 107.158 91.117 107.14 91.0887C107.123 91.0603 107.115 91.0269 107.118 90.9935L107.124 90.9356C107.124 90.9275 107.127 90.9196 107.13 90.9124C107.134 90.9052 107.139 90.8988 107.145 90.8935C107.151 90.8883 107.158 90.8844 107.166 90.882C107.174 90.8797 107.182 90.8789 107.19 90.8797L107.562 90.9149Z" fill="#EFD607"/>
<path d="M106.454 91.2357C106.469 91.2252 106.486 91.2201 106.505 91.2211C106.523 91.222 106.54 91.229 106.553 91.241C106.567 91.2529 106.576 91.2691 106.58 91.2869C106.583 91.3047 106.58 91.3231 106.572 91.3391C106.518 91.4508 106.41 91.5453 106.249 91.6225C106.237 91.6287 106.222 91.63 106.209 91.6262C106.196 91.6224 106.184 91.6137 106.177 91.6018L106.117 91.5067C106.114 91.5016 106.111 91.4958 106.11 91.4898C106.109 91.4837 106.109 91.4775 106.11 91.4715C106.112 91.4655 106.114 91.4599 106.118 91.4549C106.122 91.4499 106.126 91.4457 106.131 91.4425L106.454 91.2357Z" fill="#EFD607"/>
</g>
<mask id="mask1_664_136765" style="mask-type:alpha" maskUnits="userSpaceOnUse" x="1" y="0" width="211" height="163">
<path d="M136.297 18.6747L1.15625 162.911H136.729L211.156 0.5H178.231C170.92 0.5 163.677 1.89495 156.889 4.61003C149.078 7.73439 142.049 12.5356 136.297 18.6747Z" fill="#1C325C"/>
</mask>
<g mask="url(#mask1_664_136765)">
<g style="mix-blend-mode:plus-lighter" filter="url(#filter0_f_664_136765)">
<line x1="123.704" y1="175.287" x2="204.704" y2="3.28697" stroke="url(#paint0_linear_664_136765)"/>
</g>
<g style="mix-blend-mode:plus-lighter" filter="url(#filter1_f_664_136765)">
<line x1="0.0575203" y1="169.479" x2="158.058" y2="-0.521175" stroke="url(#paint1_linear_664_136765)" stroke-width="3"/>
</g>
<rect x="-32.9375" y="132.977" width="283.576" height="89" transform="rotate(-47.4383 -32.9375 132.977)" fill="url(#paint2_linear_664_136765)"/>
<path d="M209.156 10.5H193.715L163.672 70.0579M152.744 162.5L125.156 146.414L163.672 70.0579M163.672 70.0579H188.671" stroke="black" stroke-opacity="0.2" stroke-width="2"/>
<path d="M209.656 11.5H194.656L165.656 68.8M189.957 71.3H164.457L126.656 146" stroke="white" stroke-opacity="0.2" stroke-width="0.5"/>
<path d="M123.656 147L146.656 160.5" stroke="white" stroke-opacity="0.21" stroke-width="0.5" style="mix-blend-mode:overlay"/>
</g>
<defs>
<filter id="filter0_f_664_136765" x="117.25" y="-2.92603" width="93.9062" height="184.426" filterUnits="userSpaceOnUse" color-interpolation-filters="sRGB">
<feFlood flood-opacity="0" result="BackgroundImageFix"/>
<feBlend mode="normal" in="SourceGraphic" in2="BackgroundImageFix" result="shape"/>
<feGaussianBlur stdDeviation="3" result="effect1_foregroundBlur_664_136765"/>
</filter>
<filter id="filter1_f_664_136765" x="-12.0391" y="-12.5422" width="182.195" height="194.042" filterUnits="userSpaceOnUse" color-interpolation-filters="sRGB">
<feFlood flood-opacity="0" result="BackgroundImageFix"/>
<feBlend mode="normal" in="SourceGraphic" in2="BackgroundImageFix" result="shape"/>
<feGaussianBlur stdDeviation="5.5" result="effect1_foregroundBlur_664_136765"/>
</filter>
<linearGradient id="paint0_linear_664_136765" x1="205.609" y1="3.71302" x2="143.84" y2="149.682" gradientUnits="userSpaceOnUse">
<stop stop-color="white" stop-opacity="0"/>
<stop offset="1" stop-color="white"/>
</linearGradient>
<linearGradient id="paint1_linear_664_136765" x1="159.522" y1="0.840385" x2="34.8856" y2="148.74" gradientUnits="userSpaceOnUse">
<stop stop-color="white" stop-opacity="0"/>
<stop offset="1" stop-color="white"/>
</linearGradient>
<linearGradient id="paint2_linear_664_136765" x1="133.082" y1="221.977" x2="133.956" y2="126.389" gradientUnits="userSpaceOnUse">
<stop stop-color="white" stop-opacity="0"/>
<stop offset="1" stop-color="white" stop-opacity="0.5"/>
</linearGradient>
</defs>
</svg>
