<svg width="212" height="164" viewBox="0 0 212 164" fill="none" xmlns="http://www.w3.org/2000/svg">
<path d="M136.297 18.6747L1.15625 162.911H136.729L211.156 0.5H178.231C170.92 0.5 163.677 1.89495 156.889 4.61003C149.078 7.73439 142.049 12.5356 136.297 18.6747Z" fill="#048C54"/>
<path d="M1.15625 162.911L136.297 18.6746C142.049 12.5356 149.078 7.73439 156.889 4.61003C163.677 1.89496 170.92 0.5 178.231 0.5H211.156M1.15625 162.911H136.729L211.156 0.5M1.15625 162.911L136.297 18.6747C142.049 12.5356 149.078 7.73439 156.889 4.61003C163.677 1.89495 170.92 0.5 178.231 0.5H211.156" stroke="#C2C2C2" stroke-opacity="0.4"/>
<mask id="mask0_664_137573" style="mask-type:alpha" maskUnits="userSpaceOnUse" x="1" y="0" width="211" height="163">
<path d="M136.297 18.6747L1.15625 162.911H136.729L211.156 0.5H178.231C170.92 0.5 163.677 1.89495 156.889 4.61003C149.078 7.73439 142.049 12.5356 136.297 18.6747Z" fill="#212061"/>
</mask>
<g mask="url(#mask0_664_137573)">
<path d="M100.877 75.5001C111.851 75.5001 120.751 84.3641 120.76 95.3037V95.321C120.734 97.6905 120.318 100.043 119.511 102.274L108.719 98.2699C110.471 93.9806 108.398 89.0945 104.095 87.3477C99.7925 85.6008 94.8911 87.6676 93.1388 91.957C92.705 93.0293 92.4882 94.1795 92.5229 95.3296C92.5229 96.8516 92.9393 98.3391 93.746 99.6276C93.7634 99.6795 93.7807 99.7227 93.8068 99.766C94.6135 100.977 95.6025 102.049 96.7303 102.966C97.1293 103.338 97.8146 103.701 98.6735 104.315C105.275 108.941 113.863 110.913 122.504 111.423C122.929 111.501 123.285 111.536 123.536 111.562H123.952L124.421 111.631C124.586 111.631 124.725 111.631 124.881 111.7C125.037 111.769 125.184 111.7 125.323 111.778C125.488 111.804 125.644 111.838 125.8 111.882L126.234 111.968C126.381 112.02 126.564 112.055 126.711 112.098C126.859 112.141 126.997 112.176 127.145 112.228C127.31 112.271 127.475 112.323 127.631 112.383L128.038 112.504L128.533 112.695C128.594 112.72 128.654 112.738 128.715 112.755C128.758 112.772 128.802 112.79 128.845 112.807C128.975 112.859 129.114 112.902 129.244 112.954L129.773 113.17C129.886 113.231 130.008 113.274 130.129 113.317C130.32 113.404 130.511 113.499 130.693 113.603L131.014 113.741L131.855 114.208C132.194 114.398 132.523 114.614 132.844 114.831C132.931 114.9 133.027 114.96 133.122 115.021C133.356 115.168 133.582 115.341 133.799 115.488C133.903 115.557 133.998 115.635 134.094 115.713C134.319 115.877 134.527 116.059 134.753 116.232L134.996 116.43C135.265 116.673 135.542 116.932 135.837 117.191C143.862 124.655 144.304 137.194 136.818 145.202C130.389 152.068 120.014 153.495 111.955 148.618C109.925 147.45 108.121 145.937 106.602 144.147L115.468 136.813C116.102 137.557 116.856 138.197 117.698 138.69C121.844 140.765 126.902 139.096 128.984 134.963C130.893 131.166 129.661 126.548 126.104 124.205C124.785 123.444 123.285 123.072 121.766 123.115C121.714 123.107 121.662 123.107 121.61 123.115C120.17 123.21 118.756 123.522 117.403 124.032C116.657 124.309 115.919 124.62 115.208 124.974C106.542 129.169 101.883 134.79 97.1206 141.993C96.8344 142.339 96.6262 142.616 96.4787 142.832L96.2184 143.187C96.1317 143.317 96.0363 143.429 95.9408 143.559C95.8367 143.68 95.7413 143.81 95.6545 143.939L95.3596 144.277C95.2468 144.398 95.1427 144.519 95.0213 144.64C94.8998 144.761 94.8304 144.865 94.7263 144.968L94.3706 145.332C94.2752 145.435 94.1624 145.53 94.0583 145.643L93.6766 145.997C93.5639 146.084 93.4684 146.188 93.3383 146.274C93.2949 146.335 93.2342 146.387 93.1735 146.43C93.0434 146.551 92.9046 146.646 92.7744 146.767C92.6443 146.888 92.5576 146.957 92.4448 147.044L91.985 147.39L91.6727 147.615C91.4992 147.736 91.3084 147.857 91.1435 147.986L90.8659 148.159C90.5883 148.332 90.3107 148.514 90.0245 148.67C89.7382 148.825 89.3391 149.05 89.0008 149.214L88.6798 149.37L87.9338 149.707L87.5868 149.854C87.3439 149.958 87.0749 150.062 86.806 150.148L86.5197 150.261C86.1641 150.382 85.8171 150.486 85.4614 150.589C74.8952 153.573 63.9039 147.459 60.9111 136.926C58.43 128.191 62.2123 118.895 70.0979 114.355C72.0932 113.187 74.288 112.383 76.5608 111.977L78.452 123.314C73.8802 124.118 70.8266 128.468 71.6334 133.026C72.4402 137.583 76.8037 140.627 81.3755 139.823C82.3818 139.641 83.3534 139.287 84.2295 138.759C85.5481 137.998 86.6238 136.891 87.3525 135.559C87.3959 135.516 87.4306 135.473 87.4653 135.421C88.0726 134.089 88.489 132.68 88.6885 131.227C88.7666 130.691 88.836 129.99 88.9488 128.953C89.6081 122.648 88.541 113.983 83.2406 104.816C82.4165 103.156 81.8005 101.392 81.3928 99.5844C81.3581 99.446 81.3321 99.3076 81.3147 99.1693C81.2627 98.9963 81.2366 98.8147 81.2019 98.6504C81.1672 98.4861 81.2019 98.3823 81.1412 98.244C81.0805 98.1056 81.0892 97.8548 81.0631 97.6732C81.0371 97.5435 81.0284 97.4138 81.0198 97.2754C81.0198 97.0765 81.0198 96.8516 80.9677 96.6268C80.9157 96.402 80.9677 96.4106 80.9677 96.3068V95.3296C80.9677 95.001 80.9677 94.5513 81.0111 94.1622V93.8163C81.0111 93.5482 81.0631 93.2714 81.0978 92.9774V92.6142C81.0978 92.3288 81.1846 92.0607 81.228 91.7754C81.228 91.6629 81.2713 91.5678 81.2887 91.4554C81.3668 91.1008 81.4362 90.7463 81.5403 90.3744C83.8305 81.5968 91.7855 75.4741 100.877 75.5001Z" fill="#FAFA40"/>
</g>
<mask id="mask1_664_137573" style="mask-type:alpha" maskUnits="userSpaceOnUse" x="1" y="0" width="211" height="163">
<path d="M136.297 18.6747L1.15625 162.911H136.729L211.156 0.5H178.231C170.92 0.5 163.677 1.89495 156.889 4.61003C149.078 7.73439 142.049 12.5356 136.297 18.6747Z" fill="#1C325C"/>
</mask>
<g mask="url(#mask1_664_137573)">
<g style="mix-blend-mode:plus-lighter" filter="url(#filter0_f_664_137573)">
<line x1="123.704" y1="175.287" x2="204.704" y2="3.28697" stroke="url(#paint0_linear_664_137573)"/>
</g>
<g style="mix-blend-mode:plus-lighter" filter="url(#filter1_f_664_137573)">
<line x1="0.0575203" y1="169.479" x2="158.058" y2="-0.521175" stroke="url(#paint1_linear_664_137573)" stroke-width="3"/>
</g>
<rect x="-32.9375" y="132.978" width="283.576" height="89" transform="rotate(-47.4383 -32.9375 132.978)" fill="url(#paint2_linear_664_137573)"/>
<path d="M209.156 10.5H193.715L163.672 70.0579M152.744 162.5L125.156 146.414L163.672 70.0579M163.672 70.0579H188.671" stroke="black" stroke-opacity="0.2" stroke-width="2"/>
<path d="M209.656 11.5H194.656L165.656 68.8M189.957 71.3H164.457L126.656 146" stroke="white" stroke-opacity="0.2" stroke-width="0.5"/>
<path d="M123.656 147L146.656 160.5" stroke="white" stroke-opacity="0.21" stroke-width="0.5" style="mix-blend-mode:overlay"/>
</g>
<defs>
<filter id="filter0_f_664_137573" x="117.25" y="-2.92578" width="93.9062" height="184.426" filterUnits="userSpaceOnUse" color-interpolation-filters="sRGB">
<feFlood flood-opacity="0" result="BackgroundImageFix"/>
<feBlend mode="normal" in="SourceGraphic" in2="BackgroundImageFix" result="shape"/>
<feGaussianBlur stdDeviation="3" result="effect1_foregroundBlur_664_137573"/>
</filter>
<filter id="filter1_f_664_137573" x="-12.0391" y="-12.542" width="182.195" height="194.042" filterUnits="userSpaceOnUse" color-interpolation-filters="sRGB">
<feFlood flood-opacity="0" result="BackgroundImageFix"/>
<feBlend mode="normal" in="SourceGraphic" in2="BackgroundImageFix" result="shape"/>
<feGaussianBlur stdDeviation="5.5" result="effect1_foregroundBlur_664_137573"/>
</filter>
<linearGradient id="paint0_linear_664_137573" x1="205.609" y1="3.71302" x2="143.84" y2="149.682" gradientUnits="userSpaceOnUse">
<stop stop-color="white" stop-opacity="0"/>
<stop offset="1" stop-color="white"/>
</linearGradient>
<linearGradient id="paint1_linear_664_137573" x1="159.522" y1="0.840385" x2="34.8856" y2="148.74" gradientUnits="userSpaceOnUse">
<stop stop-color="white" stop-opacity="0"/>
<stop offset="1" stop-color="white"/>
</linearGradient>
<linearGradient id="paint2_linear_664_137573" x1="133.082" y1="221.978" x2="133.956" y2="126.389" gradientUnits="userSpaceOnUse">
<stop stop-color="white" stop-opacity="0"/>
<stop offset="1" stop-color="white" stop-opacity="0.5"/>
</linearGradient>
</defs>
</svg>
