<svg width="212" height="164" viewBox="0 0 212 164" fill="none" xmlns="http://www.w3.org/2000/svg">
<path d="M136.297 18.6747L1.15625 162.911H136.729L211.156 0.5H178.231C170.92 0.5 163.677 1.89495 156.889 4.61003C149.078 7.73439 142.049 12.5356 136.297 18.6747Z" fill="white"/>
<path d="M1.15625 162.911L136.297 18.6746C142.049 12.5356 149.078 7.73439 156.889 4.61003C163.677 1.89496 170.92 0.5 178.231 0.5H211.156M1.15625 162.911H136.729L211.156 0.5M1.15625 162.911L136.297 18.6747C142.049 12.5356 149.078 7.73439 156.889 4.61003C163.677 1.89495 170.92 0.5 178.231 0.5H211.156" stroke="#C2C2C2" stroke-opacity="0.4"/>
<mask id="mask0_795_225669" style="mask-type:alpha" maskUnits="userSpaceOnUse" x="1" y="0" width="211" height="163">
<path d="M136.297 18.6747L1.15625 162.911H136.729L211.156 0.5H178.231C170.92 0.5 163.677 1.89495 156.889 4.61003C149.078 7.73439 142.049 12.5356 136.297 18.6747Z" fill="#1C325C"/>
</mask>
<g mask="url(#mask0_795_225669)">
<path d="M154.005 129.5C138.871 126.014 124.886 120.939 112.455 111.717C106.036 106.954 100.504 101.431 95.8603 95.1465C89.7754 86.9161 86.5512 82.5622 86.1876 82.0849C83.0517 77.9933 79.7288 74.063 75.545 71.0061C73.6699 69.637 71.5403 68.5512 69.1562 67.7486L72.6623 64.5973C72.7092 64.556 72.7648 64.5266 72.8245 64.5115C72.8841 64.4964 72.9461 64.4962 73.0051 64.5107C77.9407 65.7185 82.1557 68.7125 85.7319 72.5208C87.8277 74.7528 89.4313 76.6163 90.5429 78.1113C93.4801 82.0639 96.3771 86.0545 99.2339 90.0831C102.07 94.0803 105.198 97.6355 108.618 100.749C116.955 108.337 125.903 114.052 135.463 117.894C142.124 120.572 148.963 122.565 155.98 123.874C156.012 123.88 156.042 123.893 156.067 123.912C156.093 123.93 156.115 123.955 156.13 123.983C156.145 124.011 156.154 124.043 156.156 124.075C156.158 124.107 156.152 124.139 156.14 124.169L154.005 129.5Z" fill="#FFFF00"/>
<path d="M69.2977 68.5C71.682 69.2857 73.8118 70.3486 75.6871 71.6889C79.8714 74.6814 83.1947 78.5288 86.331 82.5342C86.6946 83.0015 89.9192 87.2636 96.0047 95.3206C100.649 101.472 106.181 106.88 112.602 111.542C125.034 120.57 139.02 125.538 154.156 128.95L151.904 134.5C147.214 133.445 142.29 132.051 137.135 130.317C121.671 125.122 108.129 117.196 97.454 105.253C90.2659 97.2116 84.8388 87.772 77.3117 79.8999C73.8911 76.322 69.9873 73.3604 65.1562 71.9469L69.2977 68.5Z" fill="#FFCC00"/>
<path d="M65.2092 71.5C70.0513 72.9371 73.9641 75.9484 77.3926 79.5863C84.9369 87.5903 90.3765 97.1881 97.581 105.364C108.281 117.507 121.854 125.566 137.353 130.849C142.52 132.611 147.455 134.029 152.156 135.101L149.645 141.5C142.661 139.73 135.838 137.514 129.176 134.851C123.18 132.457 117.406 129.506 111.854 125.997C102.323 119.974 94.1681 112.357 87.3892 103.144C83.5181 97.8838 80.661 94.071 78.8179 91.7059C74.6201 86.3176 70.2036 81.3406 64.3931 77.8398C63.5574 77.3359 62.1452 76.7029 60.1562 75.9406L65.2092 71.5Z" fill="#FF9900"/>
<path d="M60.2129 75.5C62.1897 76.2617 63.5933 76.8943 64.4239 77.3978C70.199 80.896 74.5885 85.8694 78.7607 91.2537C80.5926 93.6172 83.4323 97.4272 87.2797 102.684C94.0173 111.89 102.122 119.502 111.595 125.52C117.114 129.026 122.853 131.975 128.811 134.367C135.433 137.028 142.214 139.243 149.156 141.011L146.998 146.361C146.977 146.413 146.938 146.455 146.888 146.479C146.837 146.503 146.78 146.507 146.727 146.49C129.068 140.816 111.696 133.812 97.2852 121.853C93.0005 118.298 89.3277 114.631 86.2668 110.854C81.1127 104.491 75.9003 96.8728 70.1136 90.1503C66.217 85.619 61.7576 81.5065 56.2076 79.2369C56.1946 79.232 56.1831 79.2238 56.1743 79.2129C56.1656 79.202 56.1597 79.1889 56.1574 79.1748C56.1551 79.1607 56.1563 79.1461 56.161 79.1323C56.1657 79.1185 56.1737 79.106 56.1843 79.096L60.2129 75.5Z" fill="#FF3300"/>
<path d="M160.603 115.604C145.204 110.315 132.065 102.461 130.765 101.343C137.158 103.276 139.829 100.811 139.829 100.811C138.019 100.357 132.938 99.4389 131.761 96.448C130.856 93.0031 134.205 91.644 136.286 89.9208C148.779 82.0345 161.815 75.5074 174.758 68.709C155.568 70.2494 138.007 80.2789 118.364 75.9275L122.618 80.1315C123.704 81.6719 125.063 83.9376 123.614 85.7507L122.618 86.6572C122.618 86.6572 119.173 88.3097 115.739 85.3895C112.303 82.4679 102.22 64.2101 93.29 69.4342C108.229 76.4493 108.637 85.2215 117.52 94.6983C125.239 103.481 138.686 111.08 160.603 115.604Z" fill="#EE293D"/>
</g>
<mask id="mask1_795_225669" style="mask-type:alpha" maskUnits="userSpaceOnUse" x="1" y="0" width="211" height="163">
<path d="M136.297 18.6747L1.15625 162.911H136.729L211.156 0.5H178.231C170.92 0.5 163.677 1.89495 156.889 4.61003C149.078 7.73439 142.049 12.5356 136.297 18.6747Z" fill="#1C325C"/>
</mask>
<g mask="url(#mask1_795_225669)">
<g style="mix-blend-mode:plus-lighter" filter="url(#filter0_f_795_225669)">
<line x1="123.704" y1="175.287" x2="204.704" y2="3.28697" stroke="url(#paint0_linear_795_225669)"/>
</g>
<g style="mix-blend-mode:plus-lighter" filter="url(#filter1_f_795_225669)">
<line x1="0.0575203" y1="169.479" x2="158.058" y2="-0.521175" stroke="url(#paint1_linear_795_225669)" stroke-width="3"/>
</g>
<rect x="-32.9375" y="132.977" width="283.576" height="89" transform="rotate(-47.4383 -32.9375 132.977)" fill="url(#paint2_linear_795_225669)"/>
<path d="M209.156 10.5H193.715L163.672 70.0579M152.744 162.5L125.156 146.414L163.672 70.0579M163.672 70.0579H188.671" stroke="black" stroke-opacity="0.2" stroke-width="2"/>
<path d="M209.656 11.5H194.656L165.656 68.8M189.957 71.3H164.457L126.656 146" stroke="white" stroke-opacity="0.2" stroke-width="0.5"/>
<path d="M123.656 147L146.656 160.5" stroke="white" stroke-opacity="0.21" stroke-width="0.5" style="mix-blend-mode:overlay"/>
</g>
<defs>
<filter id="filter0_f_795_225669" x="117.25" y="-2.92578" width="93.9062" height="184.426" filterUnits="userSpaceOnUse" color-interpolation-filters="sRGB">
<feFlood flood-opacity="0" result="BackgroundImageFix"/>
<feBlend mode="normal" in="SourceGraphic" in2="BackgroundImageFix" result="shape"/>
<feGaussianBlur stdDeviation="3" result="effect1_foregroundBlur_795_225669"/>
</filter>
<filter id="filter1_f_795_225669" x="-12.0391" y="-12.543" width="182.195" height="194.043" filterUnits="userSpaceOnUse" color-interpolation-filters="sRGB">
<feFlood flood-opacity="0" result="BackgroundImageFix"/>
<feBlend mode="normal" in="SourceGraphic" in2="BackgroundImageFix" result="shape"/>
<feGaussianBlur stdDeviation="5.5" result="effect1_foregroundBlur_795_225669"/>
</filter>
<linearGradient id="paint0_linear_795_225669" x1="205.609" y1="3.71302" x2="143.84" y2="149.682" gradientUnits="userSpaceOnUse">
<stop stop-color="white" stop-opacity="0"/>
<stop offset="1" stop-color="white"/>
</linearGradient>
<linearGradient id="paint1_linear_795_225669" x1="159.522" y1="0.840385" x2="34.8856" y2="148.74" gradientUnits="userSpaceOnUse">
<stop stop-color="white" stop-opacity="0"/>
<stop offset="1" stop-color="white"/>
</linearGradient>
<linearGradient id="paint2_linear_795_225669" x1="133.082" y1="221.977" x2="133.956" y2="126.388" gradientUnits="userSpaceOnUse">
<stop stop-color="white" stop-opacity="0"/>
<stop offset="1" stop-color="white" stop-opacity="0.5"/>
</linearGradient>
</defs>
</svg>
