<svg width="212" height="164" viewBox="0 0 212 164" fill="none" xmlns="http://www.w3.org/2000/svg">
<path d="M136.293 18.6747L1.15234 162.911H136.725L211.152 0.5H178.227C170.916 0.5 163.673 1.89495 156.885 4.61003C149.074 7.73439 142.045 12.5356 136.293 18.6747Z" fill="white"/>
<path d="M1.15234 162.911L136.293 18.6746C142.045 12.5356 149.074 7.73439 156.885 4.61003C163.673 1.89496 170.916 0.5 178.227 0.5H211.152M1.15234 162.911H136.725L211.152 0.5M1.15234 162.911L136.293 18.6747C142.045 12.5356 149.074 7.73439 156.885 4.61003C163.673 1.89495 170.916 0.5 178.227 0.5H211.152" stroke="#C2C2C2" stroke-opacity="0.4"/>
<mask id="mask0_664_109571" style="mask-type:alpha" maskUnits="userSpaceOnUse" x="1" y="0" width="211" height="163">
<path d="M136.293 18.6747L1.15234 162.911H136.725L211.152 0.5H178.227C170.916 0.5 163.673 1.89495 156.885 4.61003C149.074 7.73439 142.045 12.5356 136.293 18.6747Z" fill="#1C325C"/>
</mask>
<g mask="url(#mask0_664_109571)">
<path d="M112.085 93.4478C111.83 94.7103 111.73 96.039 111.785 97.4337C111.891 100.089 112.411 102.579 113.345 104.904C114.002 106.541 114.72 107.977 115.706 109.415C116.711 110.88 118.046 112.219 119.43 113.37C121.18 114.822 123.095 116.02 125.176 116.961C125.18 116.963 125.185 116.964 125.189 116.964C125.194 116.964 125.198 116.962 125.202 116.96C125.206 116.957 125.209 116.954 125.211 116.95C125.214 116.946 125.215 116.942 125.215 116.938C125.374 114.113 125.336 111.273 125.361 108.437C128.361 109.21 131.455 109.393 134.539 109.185L134.624 119.561L133.619 119.56C133.646 119.583 133.687 119.59 133.741 119.581L133.817 119.585C133.819 119.585 133.822 119.585 133.825 119.587C133.827 119.589 133.829 119.592 133.829 119.594C133.83 119.597 133.829 119.6 133.828 119.603C133.826 119.605 133.824 119.607 133.821 119.608C133.774 119.629 133.728 119.64 133.683 119.643C127.804 119.954 122.155 118.926 116.734 116.559C113.281 115.05 110.142 112.925 107.553 110.267C105.457 108.115 103.706 105.423 102.821 102.544C102.515 101.549 102.3 100.682 102.176 99.9448C101.976 98.7555 101.894 97.5015 101.931 96.1827C102.046 92.0903 103.541 88.4971 106.209 85.4146C107.878 83.4857 109.779 81.7559 111.854 80.3507C112.2 80.1168 112.453 79.8974 112.613 79.6924C113.418 78.6644 113.375 77.356 112.787 76.2517C112.545 75.797 112.088 75.3117 111.415 74.7958C109.957 73.6792 108.46 73.0185 106.729 72.5995C105.553 72.3151 104.451 73.0021 104.394 74.2564C104.394 74.2605 104.393 74.2645 104.39 74.2678C104.388 74.2711 104.384 74.2736 104.38 74.2749C104.376 74.2762 104.372 74.2763 104.368 74.2752C104.364 74.2741 104.36 74.2718 104.357 74.2687C103.14 72.8739 102.332 71.2799 101.934 69.4868C101.834 69.0342 101.879 68.667 102.205 68.3587C102.508 68.0718 102.865 68.0447 103.302 68.1546C104.674 68.5 105.805 68.9001 106.694 69.3548C107.675 69.8565 108.842 70.4675 110.194 71.1878C110.204 71.1934 110.216 71.1957 110.228 71.1944C110.239 71.1931 110.25 71.1883 110.259 71.1805C110.268 71.1728 110.274 71.1625 110.277 71.1511C110.28 71.1397 110.279 71.1276 110.275 71.1165C110.247 71.0406 110.188 70.9597 110.097 70.8739C109.091 69.9213 107.795 69.0446 106.208 68.244C105.163 67.7165 104.202 67.3922 103.323 67.2708C102.976 67.2228 102.775 67.2099 102.72 67.2323C102.541 67.3061 102.437 67.4709 102.409 67.7267C102.408 67.7346 102.405 67.7422 102.401 67.7485C102.396 67.7549 102.389 67.7598 102.382 67.7626C102.374 67.7655 102.366 67.7663 102.358 67.7649C102.35 67.7634 102.343 67.7599 102.337 67.7545C102.148 67.5873 101.949 67.3676 101.739 67.0954C100.798 65.8717 100.269 64.4811 100.152 62.9235V62.4824C100.171 62.2846 100.197 62.0878 100.23 61.8921C100.341 61.2257 101.057 60.9609 101.599 61.3199C102.297 61.7828 102.84 62.0908 103.227 62.2438C103.611 62.3952 103.914 62.5234 104.137 62.6283C106.167 63.5859 108.104 64.7032 109.946 65.9805C109.961 65.9903 110.072 66.0381 110.28 66.124C110.285 66.1262 110.291 66.1271 110.297 66.1267C110.303 66.1262 110.308 66.1245 110.313 66.1216C110.318 66.1186 110.322 66.1145 110.325 66.1097C110.328 66.1048 110.33 66.0993 110.331 66.0936C110.36 65.8288 110.319 65.6099 110.265 65.2492C110.247 65.1213 110.254 64.924 110.288 64.6573C110.369 64.0113 110.807 63.576 111.487 63.5998C111.603 63.6036 111.817 63.6703 112.129 63.7998C112.478 63.9447 112.854 64.1567 113.257 64.436C113.433 64.5579 113.758 64.8527 114.23 65.3205C115.054 66.1354 115.986 66.9377 117.029 67.7275C119.593 69.6704 122.207 71.2633 125.142 72.3397C126.703 72.9127 128.31 73.1242 130.014 73.1996C130.813 73.2341 131.474 73.125 132.175 72.8209C132.202 72.8089 132.232 72.805 132.261 72.8097C132.291 72.8143 132.318 72.8273 132.34 72.8471C132.541 73.025 132.554 73.398 132.462 73.6235C132.416 73.7382 132.299 73.8768 132.111 74.0391C131.519 74.5507 130.829 74.9319 130.039 75.1827C128.639 75.6271 127.183 75.7205 125.671 75.4631C124.76 75.3073 123.962 75.1628 123.278 75.0294C122.866 74.9483 122.375 74.7253 122.055 74.7573C122.049 74.758 122.043 74.7602 122.037 74.7638C122.032 74.7673 122.028 74.7721 122.025 74.7776C122.022 74.7832 122.021 74.7893 122.021 74.7955C122.021 74.8017 122.023 74.8077 122.026 74.813C122.21 75.1278 122.354 75.391 122.456 75.6025C122.934 76.5873 123.14 77.6167 123.075 78.6906C123.014 79.6974 122.659 80.6068 122.011 81.4189C121.766 81.7266 121.377 82.077 120.843 82.4699C120.129 82.9962 118.414 84.3169 116.961 85.481C115.683 86.505 114.6 87.6363 113.691 88.9972C112.981 90.0588 112.505 91.2106 112.247 92.396C112.18 92.7016 112.126 93.0522 112.085 93.4478Z" fill="#E60013"/>
<path d="M149.437 70.5174L149.418 70.5224C149.394 70.5277 149.368 70.5247 149.346 70.5136C149.323 70.5026 149.305 70.4843 149.294 70.4617C149.057 69.9633 148.841 69.4785 148.648 69.0074C148.622 68.9451 148.618 68.8808 148.636 68.8147C148.638 68.808 148.642 68.802 148.647 68.7974C148.652 68.7928 148.658 68.7897 148.665 68.7886C148.672 68.7874 148.679 68.7883 148.685 68.7911C148.692 68.7938 148.697 68.7983 148.701 68.8041L149.202 69.5411C149.207 69.5492 149.211 69.5581 149.214 69.5673L149.489 70.4232C149.492 70.4328 149.493 70.443 149.492 70.453C149.491 70.4631 149.488 70.4728 149.483 70.4816C149.478 70.4904 149.472 70.4981 149.464 70.5043C149.456 70.5105 149.447 70.5149 149.437 70.5174Z" fill="#E60013"/>
<path d="M121.374 87.2705C121.376 87.2726 121.378 87.2754 121.378 87.2783C121.378 87.2811 121.377 87.2837 121.376 87.2861C121.374 87.2887 121.372 87.291 121.369 87.292C120.526 87.4871 119.428 87.8918 118.914 88.5254C117.985 89.6706 118.097 91.2407 119.25 92.1973C119.442 92.3567 119.696 92.507 120.011 92.6484C120.973 93.0801 121.978 93.2842 123.025 93.2607C124.326 93.2312 125.459 93.1016 126.424 92.8721C127.238 93.4743 127.916 93.9647 128.459 94.3418C131.144 96.2049 133.832 98.0757 136.523 99.9541C132.904 100.974 129.252 101.28 125.506 101.066C124.219 100.993 122.954 100.771 121.712 100.399C120.426 100.015 119.352 99.5176 118.491 98.9072C117.515 98.2159 116.702 97.3597 116.053 96.3389C114.773 94.3263 114.859 91.6903 116.303 89.7754C117.479 88.2162 119.406 87.3232 121.366 87.2666C121.369 87.2669 121.372 87.2684 121.374 87.2705ZM128.774 59.5C129.986 59.5634 131.016 59.6764 131.863 59.8398C134.583 60.3653 137.212 61.5535 139.294 63.4775C140.022 64.1503 140.607 64.9332 141.049 65.8262C141.054 65.8371 141.063 65.8459 141.074 65.8516C141.085 65.8571 141.097 65.8594 141.109 65.8574C141.121 65.8554 141.133 65.8497 141.142 65.8408C141.15 65.832 141.154 65.8205 141.155 65.8086C141.167 65.7021 141.154 65.547 141.117 65.4355C140.663 64.0657 139.88 63.1092 138.755 62.2148C137.591 61.2894 136.278 60.5842 134.874 60.1562C134.624 60.0798 134.37 59.9896 134.111 59.8848C134.108 59.8832 134.105 59.8802 134.104 59.877C134.102 59.8735 134.102 59.8689 134.103 59.8652C134.104 59.8617 134.105 59.8586 134.108 59.8564C134.111 59.8543 134.115 59.8533 134.119 59.8535C136.052 60.0847 137.815 60.7992 139.408 61.9971C139.416 62.0025 139.425 62.0053 139.435 62.0049C139.444 62.0044 139.453 62.0004 139.46 61.9941C139.467 61.9879 139.472 61.9799 139.474 61.9707C139.475 61.9615 139.473 61.9515 139.469 61.9434C139.414 61.8506 139.339 61.7651 139.243 61.6865C138.579 61.1384 137.834 60.6968 137.009 60.3623C137.003 60.3597 136.998 60.3548 136.995 60.3486C136.993 60.3423 136.993 60.3346 136.995 60.3281L137.003 60.3076C137.004 60.3049 137.006 60.303 137.009 60.3018C137.011 60.3006 137.015 60.2999 137.018 60.3008C139.64 61.2091 141.802 62.7588 143.503 64.9492C143.782 65.3088 144.19 65.912 144.727 66.7588C145.415 67.8458 145.993 68.987 146.46 70.1807C146.608 70.5596 147.034 71.4277 147.454 71.4893C147.466 71.4909 147.478 71.4883 147.487 71.4814C147.497 71.4746 147.504 71.4638 147.506 71.4521C147.53 71.3239 147.533 71.2275 147.516 71.1631C146.556 67.6569 144.636 64.5355 141.8 62.2646C141.538 62.0549 141.346 61.8999 141.227 61.7988C141.224 61.7969 141.222 61.7934 141.222 61.79C141.221 61.7866 141.222 61.7832 141.224 61.7803C141.226 61.7775 141.228 61.7751 141.231 61.7744C141.235 61.7737 141.239 61.7744 141.242 61.7764C143.564 62.9454 145.432 64.5982 146.846 66.7334C147.124 67.1537 147.512 67.836 148.008 68.7812C148.61 69.9281 148.962 70.6702 149.248 71.1055C149.254 71.1137 149.262 71.1199 149.271 71.124C149.28 71.1282 149.291 71.1304 149.301 71.1289C149.311 71.1274 149.32 71.1228 149.328 71.1162C149.336 71.1096 149.342 71.1006 149.345 71.0908L149.434 70.7988C149.435 70.7946 149.437 70.7908 149.44 70.7881C149.444 70.7853 149.449 70.7834 149.453 70.7832C149.458 70.783 149.463 70.7845 149.467 70.7871C149.471 70.7897 149.474 70.7935 149.476 70.7979C149.541 70.9568 149.651 71.0546 149.805 71.0918C149.817 71.0948 149.83 71.0929 149.841 71.0869C149.852 71.0809 149.861 71.0714 149.865 71.0596C149.906 70.9487 149.908 70.8394 149.874 70.7324C149.291 68.9114 148.461 67.185 147.383 65.5547C146.986 64.9542 146.746 64.591 146.666 64.4658C146.664 64.4622 146.662 64.4582 146.661 64.4541C146.66 64.4499 146.661 64.4456 146.662 64.4414C146.663 64.4371 146.664 64.4323 146.667 64.4287C146.67 64.4252 146.673 64.4222 146.677 64.4199C146.701 64.4058 146.721 64.4059 146.737 64.4189C148.338 65.7011 149.694 67.4429 150.621 69.2842C151.797 71.6183 152.536 74.0829 152.838 76.6777C152.911 77.3041 152.979 77.9976 153.042 78.7578C153.063 79.0103 153.083 79.247 153.104 79.4678C153.148 79.952 153.154 80.3762 153.12 80.7402C153.085 81.1195 153.031 81.5872 152.959 82.1436C152.643 84.6144 151.903 86.9545 150.741 89.1631C150.535 89.5553 150.226 90.0432 149.814 90.627L149.815 90.6279C148.211 92.933 146.227 94.8054 143.928 96.4277C141.658 98.0284 139.19 99.2043 136.524 99.9541C133.833 98.0757 131.145 96.2049 128.46 94.3418C127.917 93.9647 127.239 93.4743 126.425 92.8721C127.127 92.7043 127.814 92.4861 128.484 92.2178C128.743 92.1145 129.292 91.867 130.129 91.4746C131.837 90.6751 133.376 89.6276 134.746 88.333C136.448 86.7246 137.656 84.8461 138.372 82.6982L138.583 81.9971C139.575 78.4928 139.579 75.0017 138.594 71.5234C138.168 70.0205 137.514 68.5191 136.632 67.0205C135.715 65.4637 134.68 64.2005 133.528 63.2305C131.854 61.8205 129.938 60.8874 127.779 60.4326C126.612 60.1867 125.243 60.0875 123.985 60.0547C123.983 60.0549 123.98 60.0553 123.978 60.0547C123.975 60.054 123.973 60.0523 123.971 60.0508C123.967 60.0475 123.963 60.0423 123.963 60.0371C123.962 60.032 123.965 60.0265 123.968 60.0225C123.971 60.0187 123.976 60.0162 123.98 60.0156C125.211 59.7128 126.464 59.541 127.738 59.5H128.774Z" fill="url(#paint0_linear_664_109571)"/>
<path d="M112.081 93.4478C112.107 94.6512 112.239 95.7316 112.477 96.688C113.442 100.591 116.378 103.922 119.691 106.034H119.69C121.479 107.164 123.324 107.907 125.356 108.437C125.331 111.273 125.369 114.114 125.21 116.938C125.21 116.942 125.208 116.947 125.206 116.951C125.204 116.954 125.201 116.957 125.197 116.959C125.194 116.962 125.189 116.963 125.185 116.963C125.18 116.964 125.175 116.963 125.171 116.961C123.09 116.02 121.175 114.822 119.425 113.37V113.369C118.041 112.218 116.706 110.879 115.702 109.415C114.716 107.977 113.997 106.541 113.34 104.904C112.406 102.579 111.887 100.089 111.781 97.4341C111.726 96.0393 111.825 94.7102 112.081 93.4478Z" fill="url(#paint1_linear_664_109571)"/>
<path d="M136.408 108.99C136.374 112.455 136.38 115.912 136.425 119.36L134.624 119.561L134.539 109.185L136.408 108.99Z" fill="#E60013"/>
<path d="M140.956 108.023C141 108.964 141.026 109.706 141.032 110.249C141.052 112.035 141.061 114.427 141.059 117.424C140.391 117.575 139.713 117.686 139.023 117.757C138.919 117.768 138.716 117.832 138.415 117.949C138.396 117.956 138.379 117.967 138.365 117.981C138.351 117.995 138.339 118.012 138.332 118.031L138.194 118.383C138.192 118.389 138.191 118.396 138.191 118.402C138.192 118.408 138.194 118.415 138.197 118.42C138.2 118.426 138.205 118.431 138.21 118.435C138.215 118.439 138.221 118.442 138.228 118.443C138.362 118.469 138.451 118.48 138.494 118.477C139.942 118.352 141.354 118.134 142.728 117.822C142.73 117.821 142.733 117.822 142.735 117.823L142.742 117.83C142.744 117.835 142.743 117.841 142.741 117.846C142.739 117.851 142.734 117.855 142.729 117.857C142.609 117.903 142.533 117.93 142.501 117.939C140.005 118.633 138.432 119.124 136.422 119.361C136.376 115.912 136.371 112.455 136.405 108.99C137.943 108.783 139.46 108.461 140.956 108.023ZM148.521 108.262L148.061 108.665C148.042 108.681 148.031 108.702 148.026 108.726C148.014 108.797 148.011 108.85 148.018 108.886C148.021 108.903 148.028 108.919 148.038 108.932C148.048 108.945 148.061 108.956 148.075 108.963C148.09 108.971 148.107 108.976 148.123 108.976C148.14 108.977 148.156 108.973 148.171 108.966L149.091 108.545L149.098 111.048C148.163 111.715 147.179 112.301 146.147 112.806C145.983 112.886 145.193 113.307 145.525 113.564C145.577 113.603 145.632 113.612 145.69 113.589C146.429 113.305 147.124 113.02 147.777 112.737L147.873 114.153C146.939 114.805 145.938 115.329 144.872 115.727L144.873 115.728C144.633 115.77 144.41 115.855 144.204 115.982C144.201 115.984 144.198 115.987 144.196 115.991C144.195 115.994 144.194 115.998 144.194 116.001C144.195 116.005 144.196 116.009 144.198 116.012C144.201 116.015 144.204 116.018 144.208 116.019C144.283 116.045 144.367 116.046 144.46 116.024C144.85 115.929 145.231 115.824 145.604 115.709C145.61 115.707 145.616 115.707 145.621 115.709C145.626 115.712 145.631 115.716 145.633 115.721C145.635 115.726 145.635 115.733 145.633 115.738C145.631 115.743 145.626 115.747 145.621 115.75C144.177 116.509 142.656 117.067 141.059 117.424C141.061 114.427 141.052 112.035 141.032 110.249C141.026 109.706 141.001 108.964 140.957 108.023C142.246 107.652 143.511 107.186 144.751 106.627L145.229 106.391C146.339 105.827 147.407 105.175 148.433 104.435L148.521 108.262ZM152.299 109.311C152.3 109.311 152.301 109.313 152.302 109.314C152.303 109.315 152.304 109.316 152.305 109.318C152.305 109.319 152.305 109.32 152.305 109.322C152.305 109.323 152.304 109.325 152.304 109.327C151.139 111.225 149.662 112.834 147.873 114.153L147.778 112.737C149.546 111.931 150.983 110.783 152.245 109.307C152.248 109.304 152.252 109.302 152.257 109.3C152.262 109.299 152.267 109.299 152.271 109.3L152.299 109.311ZM155.584 103.181C155.587 103.184 155.59 103.187 155.592 103.191C155.593 103.195 155.594 103.199 155.594 103.203C155.593 103.207 155.592 103.211 155.59 103.214C154.282 105.092 153.401 106.317 152.949 106.889C152.688 107.22 152.288 107.667 151.749 108.228C151.729 108.249 151.718 108.276 151.717 108.305C151.716 108.334 151.725 108.362 151.744 108.384L151.748 108.387C151.757 108.398 151.768 108.408 151.78 108.415C151.793 108.421 151.807 108.425 151.821 108.426C151.836 108.427 151.85 108.425 151.863 108.42C151.877 108.416 151.889 108.409 151.899 108.399L152.634 107.719C152.672 107.684 152.705 107.644 152.732 107.599L152.805 107.477C152.808 107.471 152.814 107.466 152.819 107.463C152.825 107.46 152.831 107.459 152.838 107.459C152.875 107.461 152.893 107.487 152.892 107.538C152.892 107.547 152.888 107.557 152.882 107.564C151.764 108.88 150.502 110.042 149.099 111.048L149.092 108.545C151.078 107.558 152.786 106.287 154.214 104.731C154.405 104.523 154.835 104.013 155.503 103.202C155.511 103.192 155.521 103.184 155.533 103.179C155.545 103.175 155.559 103.174 155.571 103.176H155.573C155.577 103.177 155.581 103.179 155.584 103.181ZM158.64 94.1265L158.641 94.1274C158.645 94.1304 158.649 94.1348 158.65 94.1401C158.652 94.1456 158.651 94.1517 158.648 94.1567C157.3 96.7264 155.869 99.0135 154.355 101.018C153.615 101.997 152.725 103.003 151.687 104.034C151.668 104.052 151.655 104.074 151.647 104.099C151.64 104.124 151.638 104.15 151.644 104.175C151.649 104.201 151.661 104.225 151.678 104.245C151.695 104.264 151.716 104.28 151.74 104.29L151.822 104.321C151.862 104.336 151.905 104.342 151.947 104.336C151.989 104.331 152.03 104.315 152.063 104.29L153.896 102.921C153.898 102.92 153.9 102.919 153.901 102.919C153.903 102.919 153.906 102.92 153.907 102.921C153.909 102.923 153.909 102.925 153.909 102.927C153.909 102.929 153.908 102.931 153.907 102.932C152.389 104.982 150.594 106.759 148.522 108.262L148.434 104.435C151.207 102.471 153.653 100.233 155.771 97.7222C156.576 96.7686 157.522 95.5718 158.61 94.1313C158.614 94.1272 158.619 94.1235 158.624 94.1226C158.629 94.1216 158.635 94.1236 158.64 94.1265Z" fill="url(#paint2_linear_664_109571)"/>
<path d="M133.739 119.581C133.685 119.59 133.645 119.583 133.617 119.56C133.651 119.58 133.692 119.587 133.739 119.581Z" fill="black"/>
<path d="M207.7 -11.9901C190.68 34.7659 126.465 43.3379 102.094 39.8311L149.288 -24.848C173.401 -39.3943 224.721 -58.7462 207.7 -11.9901Z" fill="#E50112"/>
<path d="M109.249 41.3304C109.146 42.6597 109.042 43.989 108.938 45.3183C110.323 45.3931 111.787 45.4216 113.159 45.4136C138.208 44.8322 163.354 37.5039 182.927 22.1708C184.009 21.3118 185.055 20.4391 186.094 19.5293C185.012 20.3879 183.926 21.2073 182.806 22.0112C162.602 36.3254 137.411 42.2266 113.23 41.6143C111.92 41.5568 110.532 41.4642 109.249 41.3304Z" fill="#F8C62B"/>
<path d="M89.1815 161.867L86.0938 166.906C88.7955 173.625 97.0552 187.296 108.48 188.227C122.76 189.39 140.515 187.064 143.217 183.575C145.378 180.784 164.702 157.603 174.094 146.361L155.181 128.529L89.1815 161.867Z" fill="#F8C62B"/>
<path d="M106.685 122.383C90.5746 138.173 34.9115 158.374 9.09375 166.501L25.7462 183.529L71.0564 172.306L154.319 130.897L164 128.575C178.071 121.867 198.699 111.238 168.648 122.383C138.596 133.529 93.1306 156.439 74.1545 166.501L46.2713 172.306L91.5815 149.86L81.8998 152.569L103.974 133.993C100.256 136.78 85.3852 143.668 78.4144 146.764C90.807 139.024 102.425 127.285 106.685 122.383Z" fill="#E50112"/>
</g>
<mask id="mask1_664_109571" style="mask-type:alpha" maskUnits="userSpaceOnUse" x="1" y="0" width="211" height="163">
<path d="M136.293 18.6747L1.15234 162.911H136.725L211.152 0.5H178.227C170.916 0.5 163.673 1.89495 156.885 4.61003C149.074 7.73439 142.045 12.5356 136.293 18.6747Z" fill="#1C325C"/>
</mask>
<g mask="url(#mask1_664_109571)">
<g style="mix-blend-mode:plus-lighter" filter="url(#filter0_f_664_109571)">
<line x1="123.7" y1="175.287" x2="204.7" y2="3.28697" stroke="url(#paint3_linear_664_109571)"/>
</g>
<g style="mix-blend-mode:plus-lighter" filter="url(#filter1_f_664_109571)">
<line x1="0.053614" y1="169.479" x2="158.054" y2="-0.521175" stroke="url(#paint4_linear_664_109571)" stroke-width="3"/>
</g>
<rect x="-32.9375" y="132.978" width="283.576" height="89" transform="rotate(-47.4383 -32.9375 132.978)" fill="url(#paint5_linear_664_109571)"/>
<path d="M209.152 10.5H193.711L163.669 70.0579M152.741 162.5L125.152 146.414L163.669 70.0579M163.669 70.0579H188.667" stroke="black" stroke-opacity="0.2" stroke-width="2"/>
<path d="M209.652 11.5H194.652L165.652 68.8M189.953 71.3H164.453L126.652 146" stroke="white" stroke-opacity="0.2" stroke-width="0.5"/>
<path d="M123.652 147L146.652 160.5" stroke="white" stroke-opacity="0.21" stroke-width="0.5" style="mix-blend-mode:overlay"/>
</g>
<defs>
<filter id="filter0_f_664_109571" x="117.246" y="-2.92627" width="93.9062" height="184.426" filterUnits="userSpaceOnUse" color-interpolation-filters="sRGB">
<feFlood flood-opacity="0" result="BackgroundImageFix"/>
<feBlend mode="normal" in="SourceGraphic" in2="BackgroundImageFix" result="shape"/>
<feGaussianBlur stdDeviation="3" result="effect1_foregroundBlur_664_109571"/>
</filter>
<filter id="filter1_f_664_109571" x="-12.0469" y="-12.5425" width="182.199" height="194.042" filterUnits="userSpaceOnUse" color-interpolation-filters="sRGB">
<feFlood flood-opacity="0" result="BackgroundImageFix"/>
<feBlend mode="normal" in="SourceGraphic" in2="BackgroundImageFix" result="shape"/>
<feGaussianBlur stdDeviation="5.5" result="effect1_foregroundBlur_664_109571"/>
</filter>
<linearGradient id="paint0_linear_664_109571" x1="144.463" y1="74.0925" x2="124.951" y2="98.768" gradientUnits="userSpaceOnUse">
<stop stop-color="#E30113"/>
<stop offset="1" stop-color="#8F181E"/>
</linearGradient>
<linearGradient id="paint1_linear_664_109571" x1="116.134" y1="108.524" x2="125.316" y2="108.524" gradientUnits="userSpaceOnUse">
<stop stop-color="#831B20"/>
<stop offset="1" stop-color="#E60013"/>
</linearGradient>
<linearGradient id="paint2_linear_664_109571" x1="158.651" y1="106.742" x2="136.383" y2="106.742" gradientUnits="userSpaceOnUse">
<stop stop-color="#F1A71A"/>
<stop offset="1" stop-color="#E60013"/>
</linearGradient>
<linearGradient id="paint3_linear_664_109571" x1="205.605" y1="3.71302" x2="143.836" y2="149.682" gradientUnits="userSpaceOnUse">
<stop stop-color="white" stop-opacity="0"/>
<stop offset="1" stop-color="white"/>
</linearGradient>
<linearGradient id="paint4_linear_664_109571" x1="159.519" y1="0.840385" x2="34.8817" y2="148.74" gradientUnits="userSpaceOnUse">
<stop stop-color="white" stop-opacity="0"/>
<stop offset="1" stop-color="white"/>
</linearGradient>
<linearGradient id="paint5_linear_664_109571" x1="133.082" y1="221.978" x2="133.956" y2="126.389" gradientUnits="userSpaceOnUse">
<stop stop-color="white" stop-opacity="0"/>
<stop offset="1" stop-color="white" stop-opacity="0.5"/>
</linearGradient>
</defs>
</svg>
