<svg width="212" height="164" viewBox="0 0 212 164" fill="none" xmlns="http://www.w3.org/2000/svg">
<path d="M136.297 18.6747L1.15625 162.911H136.729L211.156 0.5H178.231C170.92 0.5 163.677 1.89495 156.889 4.61003C149.078 7.73439 142.049 12.5356 136.297 18.6747Z" fill="white"/>
<path d="M1.15625 162.911L136.297 18.6746C142.049 12.5356 149.078 7.73439 156.889 4.61003C163.677 1.89496 170.92 0.5 178.231 0.5H211.156M1.15625 162.911H136.729L211.156 0.5M1.15625 162.911L136.297 18.6747C142.049 12.5356 149.078 7.73439 156.889 4.61003C163.677 1.89495 170.92 0.5 178.231 0.5H211.156" stroke="#C2C2C2" stroke-opacity="0.4"/>
<path d="M105.529 61.8901C105.59 61.7594 105.668 61.6728 105.764 61.6304C106.338 61.3741 106.946 61.0089 107.381 60.8005C107.578 60.7061 108.401 60.289 109.852 59.5491C110.012 59.4678 110.252 59.3318 110.574 59.1412C110.817 58.9967 111.06 58.8641 111.302 58.7434C112.191 57.9253 113.158 57.2391 114.204 56.6851C115.505 55.9955 116.985 55.6298 118.442 55.943C119.856 56.2475 121.208 56.9221 122.475 57.5945C123.074 57.9121 123.858 58.3921 124.827 59.0344C124.875 59.066 124.928 59.0906 124.983 59.1072C125.289 59.2004 125.688 59.2604 126.021 59.358C126.528 59.5065 126.958 59.6219 127.311 59.7042C127.801 59.8179 128.231 59.9303 128.602 60.0416C129.801 60.4011 130.615 60.6679 131.042 60.842C131.99 61.2278 132.78 61.5995 133.412 61.9569C133.552 62.036 134.027 62.3388 134.837 62.8653C135.307 63.171 135.767 63.4943 136.218 63.8355C137.206 64.5832 138.03 65.2275 138.69 65.7682C138.775 65.8381 138.91 65.9102 139.012 65.9953C139.918 66.7562 140.501 67.2379 140.76 67.4404C140.872 67.5266 140.982 67.6131 141.089 67.7C141.975 68.4089 142.773 69.0692 143.482 69.6809C143.489 69.6868 143.497 69.6907 143.506 69.6923C143.515 69.6938 143.524 69.6929 143.532 69.6897C143.54 69.6864 143.548 69.6809 143.553 69.6737C143.558 69.6666 143.562 69.6581 143.562 69.6493L143.751 67.6246C143.752 67.6102 143.756 67.5963 143.763 67.5837C143.77 67.571 143.779 67.5599 143.791 67.551C143.802 67.5421 143.815 67.5356 143.829 67.5318C143.842 67.5281 143.857 67.5271 143.871 67.5291L149.319 68.2652C149.332 68.2667 149.345 68.2638 149.356 68.257C149.367 68.2501 149.375 68.2397 149.379 68.2274C149.384 68.2152 149.384 68.2018 149.38 68.1895C149.375 68.1771 149.367 68.1666 149.356 68.1596C148.915 67.887 148.01 67.3095 146.639 66.4269C146.162 66.12 144.639 65.127 142.072 63.4479C141.288 62.935 140.503 62.415 139.718 61.8879C138.07 60.7834 136.448 59.7855 134.85 58.894C133.828 58.3245 132.788 57.8392 131.729 57.4383C130.669 57.0377 129.377 56.7341 128.114 56.3719C127.771 56.2736 127.284 56.1486 126.653 55.9967C125.551 55.7305 124.495 55.3327 123.485 54.8033C123.301 54.7063 122.832 54.4548 122.081 54.0489C121.594 53.7854 120.983 53.5302 120.248 53.2833C119.508 53.0352 118.71 52.8842 117.854 52.8304C117.065 52.7815 116.259 52.8454 115.434 53.0223C113.602 53.4148 111.931 54.2036 110.421 55.3887C108.939 56.552 107.682 58.0294 106.612 59.5691C106.072 60.348 105.609 61.1129 105.222 61.8638C105.217 61.8737 105.215 61.8848 105.216 61.8958C105.218 61.9069 105.222 61.9174 105.229 61.9261C105.236 61.9348 105.245 61.9415 105.255 61.9452C105.266 61.9489 105.277 61.9496 105.288 61.9471L105.529 61.8901Z" fill="#3A3A3C"/>
<path d="M132.718 63.5903C132.722 63.5876 132.725 63.5837 132.728 63.5792C132.73 63.5747 132.731 63.5697 132.731 63.5647C132.73 63.5597 132.729 63.5549 132.726 63.5508C132.723 63.5467 132.719 63.5434 132.715 63.5414L126.36 60.5607C126.347 60.5549 126.334 60.5525 126.321 60.5539C126.307 60.5553 126.294 60.5603 126.284 60.5685C126.273 60.5767 126.265 60.5878 126.26 60.6004C126.256 60.613 126.255 60.6266 126.257 60.6398C126.387 61.3132 126.716 61.9353 127.163 62.4776C127.435 62.8082 127.764 63.0788 128.149 63.2897C128.732 63.6091 129.308 63.7916 129.879 63.8371C130.51 63.8874 130.975 63.8945 131.273 63.8583C131.903 63.7815 132.299 63.7261 132.46 63.692C132.555 63.6718 132.641 63.6379 132.718 63.5903Z" fill="#3A3A3C"/>
<path d="M131.643 102.843L131.438 101.971C130.967 101.765 130.491 101.568 130.01 101.381C129.296 101.102 128.818 100.91 128.576 100.805C125.145 99.3178 121.867 97.6182 118.864 95.4743C117.607 94.577 116.516 93.6981 115.591 92.8377C113.427 90.8262 111.588 88.4872 110.357 85.8338C109.589 84.1774 109.093 82.309 108.87 80.2287C108.847 80.0221 108.854 79.5435 108.841 79.3407C108.797 78.621 108.827 77.7898 108.932 76.8474C109.045 75.8288 109.207 74.8967 109.42 74.0511C109.586 73.3878 109.786 72.7274 110.018 72.07C110.022 72.0606 110.022 72.0503 110.019 72.0408C110.016 72.0313 110.009 72.0232 110.001 72.0178C109.992 72.0125 109.982 72.0102 109.972 72.0114C109.962 72.0126 109.953 72.0173 109.946 72.0245C109.651 72.3308 109.48 72.6379 109.23 72.9764C108.189 74.3855 107.368 75.9296 106.765 77.6087C105.768 80.3857 105.575 83.2887 106.413 86.0753C107.328 89.1131 109.35 91.627 111.78 93.6782C113.01 94.7167 114.304 95.6413 115.66 96.452C117.619 97.6227 119.694 98.6584 121.886 99.5591C123.368 100.168 124.46 100.589 125.16 100.82C125.515 100.938 126.045 101.142 126.322 101.231C128.397 101.903 129.666 102.291 131.643 102.843Z" fill="#3A3A3C"/>
<path d="M141.674 105.076C141.934 105.174 142.205 105.23 142.485 105.246C142.488 105.246 142.491 105.245 142.494 105.243C142.497 105.24 142.498 105.237 142.499 105.234C142.501 105.22 142.495 105.211 142.48 105.209C142.211 105.159 141.943 105.115 141.674 105.076Z" fill="#3A3A3C"/>
<path d="M139.147 103.665C138.04 104.974 136.751 105.879 135.23 106.655L139.814 124.729C139.816 124.736 139.821 124.742 139.826 124.746C139.832 124.751 139.84 124.754 139.847 124.754C139.854 124.754 139.861 124.751 139.867 124.747C139.872 124.743 139.877 124.736 139.878 124.729C139.909 124.596 139.927 124.472 139.931 124.355C139.945 123.972 139.964 123.59 139.99 123.21C140.254 119.283 140.342 115.346 140.253 111.399C140.204 109.193 140.089 107.008 139.908 104.844C139.907 104.833 139.909 104.821 139.913 104.81C139.917 104.8 139.924 104.791 139.932 104.783C139.941 104.775 139.951 104.769 139.962 104.766C139.973 104.763 139.984 104.762 139.995 104.764L141.086 104.96C141.088 104.96 141.089 104.96 141.09 104.959C141.091 104.958 141.092 104.957 141.092 104.956C141.093 104.955 141.093 104.954 141.093 104.952C141.092 104.951 141.092 104.949 141.091 104.948C141.068 104.934 141.034 104.927 140.991 104.926C140.955 104.926 140.922 104.921 140.893 104.912C140.473 104.792 140.172 104.709 139.989 104.66C139.957 104.652 139.927 104.632 139.905 104.607C139.884 104.581 139.869 104.549 139.866 104.515L139.712 102.984C139.525 103.213 139.336 103.441 139.147 103.665ZM123.426 65.3106C122.619 64.6275 121.841 63.9834 121.091 63.3776C120.557 62.9463 119.987 62.584 119.284 62.0964C118.491 61.5456 117.709 61.0699 116.938 60.6696C116.717 60.554 116.287 60.3417 115.649 60.0333C114.493 59.4736 113.286 59.0746 112.03 58.8368C111.813 58.7959 111.551 58.783 111.306 58.7485C111.064 58.8692 110.821 59.0014 110.578 59.1458C110.256 59.3364 110.015 59.4723 109.856 59.5536C108.405 60.2934 107.582 60.7109 107.385 60.8052C106.95 61.0137 106.342 61.3791 105.767 61.6354C105.672 61.6778 105.594 61.764 105.533 61.8944C105.854 61.8622 106.168 61.8316 106.476 61.8014C107.712 61.6806 108.871 61.7165 109.95 61.9091C111.038 62.1026 112.064 62.4538 113.026 62.9619C114.138 63.549 115.236 64.2622 116.136 65.2284C116.716 65.8521 117.299 66.5234 117.886 67.2418C118.392 67.8623 118.993 68.7386 119.69 69.8708L119.688 69.8717C120.074 70.4932 120.326 70.906 120.445 71.1092C121.253 72.4912 122.128 74.1699 123.068 76.1461C123.832 76.0876 124.489 76.0619 125.038 76.0682C126.488 76.0854 127.939 76.3827 129.307 76.7704C130.937 77.2326 132.531 78.0888 134.089 79.3386C134.206 79.4327 134.322 79.5282 134.435 79.625C134.323 79.5294 134.209 79.4348 134.093 79.3417C132.535 78.092 130.941 77.2357 129.311 76.7735C127.942 76.3858 126.491 76.0892 125.042 76.0721C124.492 76.0658 123.836 76.0914 123.072 76.1498C123.895 78.0038 124.587 79.7084 125.149 81.2629C126.392 84.7078 127.535 88.1852 128.576 91.6949C129.59 95.1094 130.546 98.5367 131.445 101.977L131.65 102.848L132.784 107.228C132.786 107.235 132.791 107.241 132.797 107.246C132.804 107.25 132.811 107.252 132.818 107.252C132.826 107.251 132.833 107.248 132.838 107.243C132.844 107.238 132.847 107.231 132.848 107.223L133.255 103.246L133.317 102.645L133.575 100.283C133.575 100.277 133.577 100.272 133.582 100.267C133.586 100.263 133.592 100.261 133.598 100.26C133.604 100.26 133.61 100.262 133.615 100.266C133.619 100.27 133.623 100.274 133.624 100.28L133.818 101.069C133.817 101.07 133.816 101.07 133.815 101.071L134.293 102.969L134.415 103.522L135.229 106.654C136.75 105.878 138.039 104.973 139.145 103.663C139.335 103.439 139.523 103.213 139.71 102.983C139.428 100.1 138.958 97.2451 138.299 94.4191C138.3 94.4168 138.3 94.4144 138.3 94.4121C137.964 92.9223 137.545 91.4525 137.044 90.0034C136.857 89.4635 136.646 88.9364 136.412 88.4222C136.409 88.4166 136.409 88.4097 136.41 88.4037C136.411 88.3977 136.414 88.3921 136.418 88.3877C136.422 88.3834 136.427 88.38 136.433 88.3787C136.439 88.3774 136.446 88.3781 136.452 88.3805C137.3 88.7072 138.113 89.0972 138.89 89.551L138.891 89.5503C140.464 90.4912 141.93 91.5681 143.289 92.7802C144.833 94.1584 146.226 95.5535 147.479 97.1091C147.483 97.1135 147.488 97.1165 147.493 97.1175C147.499 97.1185 147.505 97.1176 147.51 97.1147C147.515 97.1118 147.519 97.1073 147.52 97.102C147.522 97.0965 147.522 97.0901 147.52 97.0847C146.43 94.5447 145.126 92.0741 143.609 89.6723C142.764 88.3363 141.999 87.1767 141.313 86.1942C139.822 84.0601 138.217 81.9196 136.501 79.7732C133.687 76.254 130.749 72.8313 127.687 69.5043C127.493 69.2923 127.296 69.0863 127.095 68.8874L126.634 68.3864C126.171 67.8998 125.68 67.4318 124.988 66.7542C124.369 66.1496 123.849 65.6683 123.426 65.3106Z" fill="url(#paint0_radial_664_137583)"/>
<path d="M141.68 105.078C141.578 105.028 141.473 104.999 141.365 104.991C141.363 104.991 141.361 104.992 141.359 104.993C141.357 104.994 141.355 104.996 141.355 104.999C141.354 105.001 141.355 105.004 141.356 105.006C141.357 105.008 141.359 105.009 141.361 105.01C141.489 105.059 141.595 105.082 141.68 105.078Z" fill="#3A3A3C"/>
<path d="M141.303 104.973C141.248 104.948 141.195 104.938 141.144 104.942C141.14 104.943 141.137 104.945 141.134 104.948C141.131 104.95 141.13 104.954 141.129 104.957C141.128 104.961 141.129 104.965 141.131 104.969C141.132 104.972 141.135 104.975 141.138 104.977C141.187 104.998 141.24 105.008 141.298 105.004C141.302 105.004 141.305 105.003 141.308 105.001C141.311 104.998 141.313 104.995 141.313 104.991C141.314 104.988 141.313 104.984 141.311 104.981C141.31 104.977 141.307 104.975 141.303 104.973Z" fill="#3A3A3C"/>
<path d="M133.313 102.642L134.292 102.969L133.815 101.071L133.62 100.277C133.619 100.271 133.616 100.266 133.611 100.262C133.606 100.259 133.6 100.257 133.594 100.257C133.588 100.258 133.582 100.26 133.578 100.264C133.574 100.269 133.571 100.274 133.571 100.28L133.313 102.642Z" fill="black"/>
<path d="M134.296 102.971L133.316 102.644L133.255 103.245C133.609 103.389 133.997 103.481 134.419 103.524L134.296 102.971Z" fill="#3A3A3C"/>
<mask id="mask0_664_137583" style="mask-type:alpha" maskUnits="userSpaceOnUse" x="1" y="0" width="211" height="163">
<path d="M136.297 18.6747L1.15625 162.911H136.729L211.156 0.5H178.231C170.92 0.5 163.677 1.89495 156.889 4.61003C149.078 7.73439 142.049 12.5356 136.297 18.6747Z" fill="#1C325C"/>
</mask>
<g mask="url(#mask0_664_137583)">
<g style="mix-blend-mode:plus-lighter" filter="url(#filter0_f_664_137583)">
<line x1="123.704" y1="175.287" x2="204.704" y2="3.28697" stroke="url(#paint1_linear_664_137583)"/>
</g>
<g style="mix-blend-mode:plus-lighter" filter="url(#filter1_f_664_137583)">
<line x1="0.0575203" y1="169.479" x2="158.058" y2="-0.521175" stroke="url(#paint2_linear_664_137583)" stroke-width="3"/>
</g>
<rect x="-32.9375" y="132.978" width="283.576" height="89" transform="rotate(-47.4383 -32.9375 132.978)" fill="url(#paint3_linear_664_137583)"/>
<path d="M209.156 10.5H193.715L163.672 70.0579M152.744 162.5L125.156 146.414L163.672 70.0579M163.672 70.0579H188.671" stroke="black" stroke-opacity="0.2" stroke-width="2"/>
<path d="M209.656 11.5H194.656L165.656 68.8M189.957 71.3H164.457L126.656 146" stroke="white" stroke-opacity="0.2" stroke-width="0.5"/>
<path d="M123.656 147L146.656 160.5" stroke="white" stroke-opacity="0.21" stroke-width="0.5" style="mix-blend-mode:overlay"/>
</g>
<defs>
<filter id="filter0_f_664_137583" x="117.25" y="-2.92627" width="93.9062" height="184.426" filterUnits="userSpaceOnUse" color-interpolation-filters="sRGB">
<feFlood flood-opacity="0" result="BackgroundImageFix"/>
<feBlend mode="normal" in="SourceGraphic" in2="BackgroundImageFix" result="shape"/>
<feGaussianBlur stdDeviation="3" result="effect1_foregroundBlur_664_137583"/>
</filter>
<filter id="filter1_f_664_137583" x="-12.0391" y="-12.5425" width="182.195" height="194.042" filterUnits="userSpaceOnUse" color-interpolation-filters="sRGB">
<feFlood flood-opacity="0" result="BackgroundImageFix"/>
<feBlend mode="normal" in="SourceGraphic" in2="BackgroundImageFix" result="shape"/>
<feGaussianBlur stdDeviation="5.5" result="effect1_foregroundBlur_664_137583"/>
</filter>
<radialGradient id="paint0_radial_664_137583" cx="0" cy="0" r="1" gradientTransform="matrix(-18.0409 11.4723 21.9763 34.2629 129.739 87.4644)" gradientUnits="userSpaceOnUse">
<stop stop-color="#C002BA"/>
<stop offset="1" stop-color="#5A0157"/>
</radialGradient>
<linearGradient id="paint1_linear_664_137583" x1="205.609" y1="3.71302" x2="143.84" y2="149.682" gradientUnits="userSpaceOnUse">
<stop stop-color="white" stop-opacity="0"/>
<stop offset="1" stop-color="white"/>
</linearGradient>
<linearGradient id="paint2_linear_664_137583" x1="159.522" y1="0.840385" x2="34.8856" y2="148.74" gradientUnits="userSpaceOnUse">
<stop stop-color="white" stop-opacity="0"/>
<stop offset="1" stop-color="white"/>
</linearGradient>
<linearGradient id="paint3_linear_664_137583" x1="133.082" y1="221.978" x2="133.956" y2="126.389" gradientUnits="userSpaceOnUse">
<stop stop-color="white" stop-opacity="0"/>
<stop offset="1" stop-color="white" stop-opacity="0.5"/>
</linearGradient>
</defs>
</svg>
