<svg width="212" height="164" viewBox="0 0 212 164" fill="none" xmlns="http://www.w3.org/2000/svg">
<path d="M136.297 18.6747L1.15625 162.911H136.729L211.156 0.5H178.231C170.92 0.5 163.677 1.89495 156.889 4.61003C149.078 7.73439 142.049 12.5356 136.297 18.6747Z" fill="#F28E00"/>
<path d="M1.15625 162.911L136.297 18.6746C142.049 12.5356 149.078 7.73439 156.889 4.61003C163.677 1.89496 170.92 0.5 178.231 0.5H211.156M1.15625 162.911H136.729L211.156 0.5M1.15625 162.911L136.297 18.6747C142.049 12.5356 149.078 7.73439 156.889 4.61003C163.677 1.89495 170.92 0.5 178.231 0.5H211.156" stroke="#C2C2C2" stroke-opacity="0.4"/>
<mask id="mask0_664_138413" style="mask-type:alpha" maskUnits="userSpaceOnUse" x="1" y="0" width="211" height="163">
<path d="M136.297 18.6747L1.15625 162.911H136.729L211.156 0.5H178.231C170.92 0.5 163.677 1.89495 156.889 4.61003C149.078 7.73439 142.049 12.5356 136.297 18.6747Z" fill="#100D5C"/>
</mask>
<g mask="url(#mask0_664_138413)">
<path d="M70.1562 158L32.6562 173.5L153.656 199.5L217.156 148L247.156 -26.5L157.656 -15L109.656 31.5H191.656L188.156 42.5L102.156 75.5L162.156 83.5L58.1562 129L131.156 137.5L70.1562 158Z" fill="#004289"/>
<path d="M69.2481 34.6918C79.6051 33.2776 105.976 29.6121 115.262 27.5637C124.58 25.5068 176.098 18.0168 202.766 17.571C229.42 17.1103 227.83 18.863 228.625 23.7012C229.426 28.5237 231.743 30.2245 228.408 34.7824C225.068 39.3555 219.358 41.2903 211.386 44.5558C196.641 50.5576 131.533 67.5198 122.758 71.8512C136.219 71.2019 155.863 67.4971 175.285 66.9529C188.21 66.5758 190.045 69.4172 191.107 75.0788C192.163 80.7631 192.91 83.8094 184.144 87.3167C175.407 90.8315 165.043 94.4899 144.397 100.401C115.971 108.549 98.6506 112.631 76.9504 121.573C88.8745 122.647 108.266 120.939 123.798 121.595C147.103 122.578 148.402 125.094 148.976 131.905C149.526 138.723 150.061 140.711 140.499 145.027C130.937 149.351 113.624 153.727 103.81 155.776C93.9726 157.831 57.4285 165.572 50.3276 167.424C44.121 169.027 38.6865 176.276 28.8644 179.579C17.9342 183.253 13.1799 181.794 9.67914 174.023C7.12613 168.369 14.2807 163.184 23.3383 160.568C32.3729 157.96 59.0032 152.095 70.3692 149.192C81.7506 146.259 104.345 140.076 111.95 137.143C101.93 137.229 76.8892 137.634 58.2772 138.028C47.1174 138.243 42.8753 137.711 41.0256 129.479C39.1601 121.271 42.7674 118.39 52.8423 115.201C62.9165 112.011 78.0892 105.147 87.9035 101.957C97.7255 98.7523 124.914 89.1679 132.687 87.3991C114.304 86.9684 72.563 96.0842 61.8084 98.3822C53.5304 100.143 52.4679 97.27 49.3034 91.5336C46.1236 85.8266 50.1896 82.0022 55.2501 80.8154C61.4414 79.3498 73.9387 73.3321 90.8922 66.6576C104.62 61.2455 124.081 55.5383 138.428 50.7233C152.041 46.1352 175.132 38.3947 182.516 35.3182C176.561 35.2754 149.236 39.2717 131.38 41.6679C113.548 44.064 82.9659 50.2472 78.334 51.9781C73.6788 53.7158 68.3054 53.0901 65.1486 46.0898C62.0454 39.1507 64.8381 35.2738 69.2481 34.6918Z" fill="white"/>
</g>
<mask id="mask1_664_138413" style="mask-type:alpha" maskUnits="userSpaceOnUse" x="1" y="0" width="211" height="163">
<path d="M136.297 18.6747L1.15625 162.911H136.729L211.156 0.5H178.231C170.92 0.5 163.677 1.89495 156.889 4.61003C149.078 7.73439 142.049 12.5356 136.297 18.6747Z" fill="#1C325C"/>
</mask>
<g mask="url(#mask1_664_138413)">
<g style="mix-blend-mode:plus-lighter" filter="url(#filter0_f_664_138413)">
<line x1="123.704" y1="175.287" x2="204.704" y2="3.28697" stroke="url(#paint0_linear_664_138413)"/>
</g>
<g style="mix-blend-mode:plus-lighter" filter="url(#filter1_f_664_138413)">
<line x1="0.0575203" y1="169.479" x2="158.058" y2="-0.521175" stroke="url(#paint1_linear_664_138413)" stroke-width="3"/>
</g>
<rect x="-32.9375" y="132.978" width="283.576" height="89" transform="rotate(-47.4383 -32.9375 132.978)" fill="url(#paint2_linear_664_138413)"/>
<path d="M209.156 10.5H193.715L163.672 70.0579M152.744 162.5L125.156 146.414L163.672 70.0579M163.672 70.0579H188.671" stroke="black" stroke-opacity="0.2" stroke-width="2"/>
<path d="M209.656 11.5H194.656L165.656 68.8M189.957 71.3H164.457L126.656 146" stroke="white" stroke-opacity="0.2" stroke-width="0.5"/>
<path d="M123.656 147L146.656 160.5" stroke="white" stroke-opacity="0.21" stroke-width="0.5" style="mix-blend-mode:overlay"/>
</g>
<defs>
<filter id="filter0_f_664_138413" x="117.25" y="-2.92627" width="93.9062" height="184.426" filterUnits="userSpaceOnUse" color-interpolation-filters="sRGB">
<feFlood flood-opacity="0" result="BackgroundImageFix"/>
<feBlend mode="normal" in="SourceGraphic" in2="BackgroundImageFix" result="shape"/>
<feGaussianBlur stdDeviation="3" result="effect1_foregroundBlur_664_138413"/>
</filter>
<filter id="filter1_f_664_138413" x="-12.0391" y="-12.5425" width="182.195" height="194.042" filterUnits="userSpaceOnUse" color-interpolation-filters="sRGB">
<feFlood flood-opacity="0" result="BackgroundImageFix"/>
<feBlend mode="normal" in="SourceGraphic" in2="BackgroundImageFix" result="shape"/>
<feGaussianBlur stdDeviation="5.5" result="effect1_foregroundBlur_664_138413"/>
</filter>
<linearGradient id="paint0_linear_664_138413" x1="205.609" y1="3.71302" x2="143.84" y2="149.682" gradientUnits="userSpaceOnUse">
<stop stop-color="white" stop-opacity="0"/>
<stop offset="1" stop-color="white"/>
</linearGradient>
<linearGradient id="paint1_linear_664_138413" x1="159.522" y1="0.840385" x2="34.8856" y2="148.74" gradientUnits="userSpaceOnUse">
<stop stop-color="white" stop-opacity="0"/>
<stop offset="1" stop-color="white"/>
</linearGradient>
<linearGradient id="paint2_linear_664_138413" x1="133.082" y1="221.978" x2="133.956" y2="126.389" gradientUnits="userSpaceOnUse">
<stop stop-color="white" stop-opacity="0"/>
<stop offset="1" stop-color="white" stop-opacity="0.5"/>
</linearGradient>
</defs>
</svg>
