<svg width="212" height="164" viewBox="0 0 212 164" fill="none" xmlns="http://www.w3.org/2000/svg">
<path d="M136.294 18.6747L1.15381 162.911H136.727L211.154 0.5H178.228C170.918 0.5 163.674 1.89495 156.887 4.61003C149.076 7.73439 142.046 12.5356 136.294 18.6747Z" fill="#E20025"/>
<path d="M1.15381 162.911L136.294 18.6746C142.046 12.5356 149.076 7.73439 156.887 4.61003C163.674 1.89496 170.918 0.5 178.228 0.5H211.154M1.15381 162.911H136.727L211.154 0.5M1.15381 162.911L136.294 18.6747C142.046 12.5356 149.076 7.73439 156.887 4.61003C163.674 1.89495 170.918 0.5 178.228 0.5H211.154" stroke="#C2C2C2" stroke-opacity="0.4"/>
<path d="M82.0253 120.289C81.8384 120.288 81.6556 120.233 81.4982 120.13C81.3407 120.026 81.2152 119.879 81.136 119.705C81.0569 119.531 81.0275 119.338 81.0512 119.148C81.0749 118.957 81.1508 118.778 81.27 118.63C85.0567 113.998 79.8248 112.902 76.7632 112.499C73.5656 112.08 70.1414 119.038 68.953 121.69C68.0869 123.629 68.7365 124.854 70.6701 125.676C74.6079 127.358 78.722 127.863 83.0123 127.191C83.6037 127.098 84.1376 126.774 84.5028 126.286C89.0651 120.196 93.2093 114.711 95.8429 107.82C96.5127 106.067 95.425 105.204 93.8589 104.646C88.9274 102.878 83.9254 102.288 78.8529 102.878C78.7737 102.886 78.6936 102.878 78.6178 102.853C78.5421 102.828 78.4726 102.786 78.414 102.731C78.3553 102.676 78.3089 102.609 78.2777 102.535C78.2466 102.46 78.2316 102.38 78.2335 102.299C78.2587 100.768 79.8198 99.6 81.2297 98.7004C81.8877 98.2834 82.9754 98.0111 84.4928 97.8836C91.7138 97.2839 98.834 97.0254 105.365 99.9257C107.898 101.048 106.815 102.655 105.969 104.703C102.55 113.021 95.6768 121.096 89.3924 128.99C87.2925 131.632 85.8322 132.413 82.3124 132.945C73.8694 134.224 64.7903 134.107 55.075 132.593C54.1837 132.459 52.7284 131.906 53.2722 130.769C56.2432 124.561 59.9007 119.007 64.2447 114.106C65.5137 112.68 67.8704 110.4 69.7486 109.226C70.6349 108.673 71.6168 108.523 72.7397 108.554C78.2419 108.706 82.9301 108.856 86.8041 109.004C90.8376 109.159 86.4012 116.96 85.374 118.904C85.1513 119.323 84.8229 119.673 84.4232 119.917C84.0235 120.161 83.5674 120.29 83.1029 120.289H82.0253Z" fill="white"/>
<path d="M135.484 125.174C135.831 127.107 133.357 129.232 131.952 129.967C131.712 130.094 131.451 130.177 131.181 130.21C121.716 131.356 112.377 131.853 103.163 131.701C102.06 131.681 100.367 131.493 99.7072 130.606C99.1664 129.879 99.1127 129.073 99.5459 128.187C101.38 124.427 103.17 120.886 104.917 117.562C108.45 110.841 113.455 105.303 119.931 100.948C121.77 99.7106 123.669 99.6649 126.39 99.6142C134.111 99.4756 140.886 100.116 146.714 101.536C148.071 101.868 148.469 102.642 147.908 103.859C145.715 108.603 143.268 112.732 140.567 116.249C139.237 117.978 138.224 118.855 135.992 119.038C131.193 119.427 126.828 119.193 122.898 118.338C121.84 118.105 121.158 117.425 120.853 116.299C120.806 116.133 120.808 115.958 120.858 115.792C121.633 113.18 123.699 110.629 125.528 108.646C125.736 108.421 126.007 108.267 126.299 108.209C126.592 108.15 126.891 108.19 127.15 108.322C129.639 109.575 124.606 112.881 128.037 114.793C131.105 116.502 133.66 116.183 135.161 112.719C136.155 110.433 136.938 108.288 137.509 106.283C137.601 105.957 137.576 105.609 137.44 105.298C137.304 104.988 137.065 104.736 136.763 104.584C133.119 102.745 128.971 101.906 124.319 102.069C123.711 102.092 123.158 102.346 122.661 102.83C117.553 107.85 114.022 113.74 112.071 120.498C111.179 123.587 120.193 124.682 122.072 124.789C125.746 124.995 129.868 124.895 134.436 124.49C134.685 124.467 134.931 124.525 135.125 124.652C135.319 124.779 135.447 124.965 135.484 125.174Z" fill="white"/>
<mask id="mask0_664_97295" style="mask-type:alpha" maskUnits="userSpaceOnUse" x="1" y="0" width="211" height="163">
<path d="M136.294 18.6747L1.15381 162.911H136.727L211.154 0.5H178.228C170.918 0.5 163.674 1.89495 156.887 4.61003C149.076 7.73439 142.046 12.5356 136.294 18.6747Z" fill="#1C325C"/>
</mask>
<g mask="url(#mask0_664_97295)">
<g style="mix-blend-mode:plus-lighter" filter="url(#filter0_f_664_97295)">
<line x1="123.701" y1="175.287" x2="204.701" y2="3.28697" stroke="url(#paint0_linear_664_97295)"/>
</g>
<g style="mix-blend-mode:plus-lighter" filter="url(#filter1_f_664_97295)">
<line x1="0.0550789" y1="169.479" x2="158.055" y2="-0.521175" stroke="url(#paint1_linear_664_97295)" stroke-width="3"/>
</g>
<rect x="-32.936" y="132.978" width="283.576" height="89" transform="rotate(-47.4383 -32.936 132.978)" fill="url(#paint2_linear_664_97295)"/>
<path d="M209.154 10.5H193.713L163.67 70.0579M152.742 162.5L125.154 146.414L163.67 70.0579M163.67 70.0579H188.669" stroke="black" stroke-opacity="0.2" stroke-width="2"/>
<path d="M209.654 11.5H194.654L165.654 68.8M189.955 71.3H164.455L126.654 146" stroke="white" stroke-opacity="0.2" stroke-width="0.5"/>
<path d="M123.654 147L146.654 160.5" stroke="white" stroke-opacity="0.21" stroke-width="0.5" style="mix-blend-mode:overlay"/>
</g>
<defs>
<filter id="filter0_f_664_97295" x="117.249" y="-2.92578" width="93.9048" height="184.426" filterUnits="userSpaceOnUse" color-interpolation-filters="sRGB">
<feFlood flood-opacity="0" result="BackgroundImageFix"/>
<feBlend mode="normal" in="SourceGraphic" in2="BackgroundImageFix" result="shape"/>
<feGaussianBlur stdDeviation="3" result="effect1_foregroundBlur_664_97295"/>
</filter>
<filter id="filter1_f_664_97295" x="-12.0435" y="-12.542" width="182.197" height="194.042" filterUnits="userSpaceOnUse" color-interpolation-filters="sRGB">
<feFlood flood-opacity="0" result="BackgroundImageFix"/>
<feBlend mode="normal" in="SourceGraphic" in2="BackgroundImageFix" result="shape"/>
<feGaussianBlur stdDeviation="5.5" result="effect1_foregroundBlur_664_97295"/>
</filter>
<linearGradient id="paint0_linear_664_97295" x1="205.606" y1="3.71302" x2="143.837" y2="149.682" gradientUnits="userSpaceOnUse">
<stop stop-color="white" stop-opacity="0"/>
<stop offset="1" stop-color="white"/>
</linearGradient>
<linearGradient id="paint1_linear_664_97295" x1="159.52" y1="0.840385" x2="34.8832" y2="148.74" gradientUnits="userSpaceOnUse">
<stop stop-color="white" stop-opacity="0"/>
<stop offset="1" stop-color="white"/>
</linearGradient>
<linearGradient id="paint2_linear_664_97295" x1="133.084" y1="221.978" x2="133.958" y2="126.389" gradientUnits="userSpaceOnUse">
<stop stop-color="white" stop-opacity="0"/>
<stop offset="1" stop-color="white" stop-opacity="0.5"/>
</linearGradient>
</defs>
</svg>
