<svg width="200" height="30" viewBox="0 0 200 30" fill="none" xmlns="http://www.w3.org/2000/svg">
<g clip-path="url(#clip0_1269_12365)">
<path d="M71.1236 0L72.4518 0.0842784C72.4629 0.0848726 72.4735 0.0896955 72.4812 0.0977521C72.4889 0.105809 72.4932 0.116485 72.4932 0.127577V3.33711C72.4932 3.34215 72.4921 3.34715 72.4902 3.35179C72.4882 3.35644 72.4853 3.36065 72.4817 3.36418C72.478 3.36771 72.4737 3.37048 72.469 3.37234C72.4643 3.3742 72.4592 3.3751 72.4541 3.375C71.815 3.36418 71.2867 3.36985 70.8689 3.39201C70.3557 3.41907 69.8205 3.53892 69.7572 4.15129C69.7265 4.44201 69.7187 4.89742 69.7338 5.51753C69.7342 5.52935 69.7392 5.54056 69.7478 5.54879C69.7564 5.55701 69.7679 5.56161 69.7799 5.5616H72.4564C72.4662 5.5616 72.4755 5.56543 72.4824 5.57224C72.4893 5.57906 72.4932 5.5883 72.4932 5.59794V8.37912C72.4932 8.39061 72.4886 8.40162 72.4806 8.40974C72.4725 8.41786 72.4616 8.42242 72.4502 8.42242H69.8166C69.8085 8.42242 69.8008 8.4256 69.7951 8.43126C69.7893 8.43691 69.7861 8.44458 69.7861 8.45258V20.7959C69.7861 20.8037 69.783 20.8111 69.7774 20.8167C69.7719 20.8222 69.7643 20.8253 69.7564 20.8253H65.765C65.7524 20.8253 65.7403 20.8202 65.7313 20.8112C65.7224 20.8022 65.7174 20.79 65.7174 20.7773V8.46959C65.7174 8.45708 65.7124 8.44508 65.7034 8.43624C65.6945 8.42739 65.6824 8.42242 65.6697 8.42242H63.4807C63.4684 8.42242 63.4567 8.41762 63.4481 8.40906C63.4394 8.40051 63.4346 8.3889 63.4346 8.3768V5.60799C63.4346 5.59569 63.4395 5.58389 63.4483 5.57519C63.4571 5.56649 63.469 5.5616 63.4814 5.5616H65.6721C65.6781 5.5616 65.6841 5.56042 65.6897 5.55813C65.6953 5.55583 65.7004 5.55247 65.7047 5.54824C65.7089 5.544 65.7123 5.53897 65.7147 5.53344C65.717 5.5279 65.7182 5.52197 65.7182 5.51598C65.7189 4.33067 65.6627 3.58376 65.8939 2.6799C66.3908 0.736083 68.0228 0.0664949 69.883 0H71.1236Z" fill="#CB0033"/>
<path d="M80.8285 0L82.1434 0.0780928C82.1554 0.0788791 82.1668 0.0841932 82.1751 0.0929546C82.1833 0.101716 82.1879 0.113267 82.1879 0.125258V3.3232C82.1879 3.3355 82.1829 3.3473 82.1742 3.356C82.1654 3.3647 82.1534 3.36959 82.141 3.36959C81.6035 3.37268 80.8777 3.35258 80.2379 3.42912C79.7082 3.49304 79.4395 3.8 79.4316 4.35C79.4207 5.06701 79.4184 5.45541 79.4246 5.51521C79.426 5.52797 79.432 5.53979 79.4415 5.54836C79.451 5.55693 79.4634 5.56165 79.4762 5.5616H82.159C82.1667 5.5616 82.174 5.56461 82.1794 5.56998C82.1848 5.57534 82.1879 5.58262 82.1879 5.59021V8.37912C82.1879 8.39061 82.1833 8.40162 82.1751 8.40974C82.1669 8.41786 82.1557 8.42242 82.1441 8.42242H79.5059C79.4992 8.42242 79.4929 8.42503 79.4882 8.42967C79.4835 8.43431 79.4809 8.4406 79.4809 8.44717V20.7912C79.4809 20.8003 79.4772 20.8089 79.4708 20.8153C79.4643 20.8217 79.4556 20.8253 79.4465 20.8253H75.4402C75.4332 20.8253 75.4264 20.8224 75.4215 20.8173C75.4165 20.8123 75.4137 20.8054 75.4137 20.7982V8.46804C75.4137 8.45594 75.4087 8.44434 75.3999 8.43578C75.3912 8.42723 75.3792 8.42242 75.3668 8.42242H73.1746C73.163 8.42242 73.1519 8.41786 73.1437 8.40974C73.1355 8.40162 73.1309 8.39061 73.1309 8.37912V5.60644C73.1309 5.59455 73.1356 5.58314 73.1441 5.57473C73.1526 5.56632 73.1642 5.5616 73.1762 5.5616H75.3652C75.3721 5.5616 75.3788 5.56025 75.3851 5.55764C75.3915 5.55503 75.3972 5.5512 75.402 5.54638C75.4068 5.54156 75.4106 5.53584 75.4131 5.52956C75.4156 5.52328 75.4169 5.51656 75.4168 5.50979C75.4066 4.5232 75.352 3.5799 75.5895 2.66985C76.0949 0.733763 77.7293 0.0572165 79.5879 0H80.8285Z" fill="#CB0033"/>
<path d="M51.6135 18.8404C51.6134 18.8363 51.612 18.8323 51.6094 18.829C51.6069 18.8257 51.6033 18.8234 51.5993 18.8222C51.5953 18.8211 51.591 18.8213 51.5871 18.8228C51.5832 18.8242 51.5798 18.8269 51.5776 18.8304C51.2359 19.3365 50.8291 19.7945 50.3573 20.2043C49.3174 21.1074 47.9924 21.4128 46.6174 21.3286C43.583 21.143 41.6104 18.7461 40.9924 15.9719C40.5716 14.0796 40.5906 12.1886 41.0494 10.2989C41.4041 8.83809 42.0976 7.59788 43.1299 6.5783C44.3705 5.35278 46.0471 4.885 47.769 5.0868C49.3393 5.27159 50.6268 6.06721 51.4909 7.37623C51.4934 7.37981 51.4971 7.38249 51.5013 7.3839C51.5054 7.38532 51.51 7.38538 51.5142 7.3841C51.5185 7.38282 51.5222 7.38025 51.5248 7.37675C51.5275 7.37326 51.529 7.36902 51.5291 7.36464V0.183965C51.5291 0.172276 51.5338 0.161066 51.5422 0.152801C51.5505 0.144536 51.5619 0.139893 51.5737 0.139893H55.4799C55.4858 0.139893 55.4916 0.141033 55.497 0.143247C55.5024 0.145462 55.5073 0.148709 55.5114 0.152801C55.5155 0.156893 55.5188 0.161752 55.5211 0.167099C55.5233 0.172446 55.5244 0.178177 55.5244 0.183965V20.7773C55.5244 20.79 55.5193 20.8022 55.5103 20.8112C55.5012 20.8202 55.4889 20.8252 55.476 20.8252H51.6565C51.6508 20.8252 51.6452 20.8241 51.64 20.8219C51.6348 20.8197 51.6301 20.8165 51.6261 20.8125C51.6221 20.8085 51.6189 20.8037 51.6168 20.7985C51.6146 20.7932 51.6135 20.7876 51.6135 20.7819V18.8404ZM51.5283 13.2177C51.5268 11.0783 50.8119 8.60562 48.1533 8.60793C45.4948 8.61025 44.7838 11.0837 44.7854 13.2231C44.7869 15.3626 45.5018 17.8353 48.1604 17.8329C50.8198 17.8306 51.5299 15.3572 51.5283 13.2177Z" fill="#CB0033"/>
<path d="M62.1162 0.139893H58.0381C58.0251 0.139893 58.0146 0.150278 58.0146 0.163088V3.83732C58.0146 3.85013 58.0251 3.86051 58.0381 3.86051H62.1162C62.1292 3.86051 62.1396 3.85013 62.1396 3.83732V0.163088C62.1396 0.150278 62.1292 0.139893 62.1162 0.139893Z" fill="#CB0033"/>
<path d="M107.795 0.139893H103.721C103.707 0.139893 103.696 0.15097 103.696 0.164635V3.83577C103.696 3.84943 103.707 3.86051 103.721 3.86051H107.795C107.809 3.86051 107.82 3.84943 107.82 3.83577V0.164635C107.82 0.15097 107.809 0.139893 107.795 0.139893Z" fill="#CB0033"/>
<path d="M181.921 6.03955C181.921 6.03739 181.921 6.03527 181.923 6.03346C181.924 6.03165 181.925 6.03024 181.927 6.0294C181.929 6.02857 181.932 6.02836 181.934 6.02879C181.936 6.02922 181.938 6.03028 181.939 6.03182L186.31 10.3571C186.312 10.3596 186.314 10.3627 186.315 10.3661C186.315 10.3695 186.315 10.373 186.313 10.3762C186.312 10.3794 186.31 10.3822 186.307 10.3841C186.304 10.3861 186.301 10.3872 186.297 10.3872H178.639C178.635 10.3872 178.631 10.3864 178.627 10.3848C178.623 10.3831 178.62 10.3807 178.617 10.3777C178.614 10.3747 178.611 10.3711 178.61 10.3672C178.608 10.3632 178.607 10.359 178.607 10.3548V0.415327C178.607 0.40774 178.61 0.400463 178.616 0.395098C178.621 0.389733 178.628 0.386719 178.636 0.386719H188.675C188.682 0.386719 188.689 0.38957 188.694 0.394645C188.699 0.39972 188.702 0.406603 188.702 0.413781V8.00347C188.702 8.00613 188.701 8.00872 188.7 8.01092C188.698 8.01313 188.696 8.01486 188.694 8.01592C188.691 8.01698 188.688 8.01732 188.686 8.01689C188.683 8.01647 188.681 8.0153 188.679 8.01352L184.32 3.69986C184.317 3.69711 184.315 3.69356 184.314 3.68968C184.313 3.68579 184.314 3.68173 184.315 3.67802C184.317 3.6743 184.32 3.67109 184.323 3.66878C184.327 3.66648 184.331 3.66519 184.335 3.66507H185.682C185.688 3.66507 185.695 3.66246 185.699 3.65782C185.704 3.65318 185.707 3.64689 185.707 3.64033V3.21971C185.707 3.21666 185.706 3.21365 185.705 3.21083C185.704 3.20802 185.702 3.20546 185.7 3.20331C185.697 3.20115 185.695 3.19944 185.692 3.19828C185.689 3.19711 185.686 3.19651 185.682 3.19651H183.223C183.219 3.1966 183.216 3.19774 183.213 3.19978C183.21 3.20183 183.207 3.20469 183.206 3.20801C183.204 3.21132 183.204 3.21494 183.205 3.2184C183.205 3.22186 183.207 3.22501 183.21 3.22744L188.997 8.95528C189 8.95803 189.003 8.96022 189.007 8.96172C189.011 8.96321 189.014 8.96398 189.018 8.96398C189.022 8.96398 189.026 8.96321 189.03 8.96172C189.033 8.96022 189.037 8.95803 189.039 8.95528L194.82 3.2344C194.823 3.23122 194.825 3.22723 194.826 3.22291C194.827 3.21859 194.826 3.21414 194.824 3.2101C194.823 3.20607 194.82 3.20263 194.816 3.20022C194.812 3.1978 194.808 3.19651 194.804 3.19651H192.354C192.347 3.19651 192.341 3.19887 192.337 3.20308C192.333 3.20728 192.33 3.21299 192.33 3.21894V3.64419C192.33 3.64973 192.332 3.65504 192.336 3.65895C192.34 3.66287 192.346 3.66507 192.351 3.66507H193.706C193.71 3.66518 193.714 3.66642 193.717 3.66864C193.72 3.67085 193.723 3.67395 193.724 3.67755C193.726 3.68115 193.726 3.68511 193.725 3.68893C193.725 3.69275 193.723 3.69628 193.72 3.69909L189.367 8.00734C189.364 8.01003 189.36 8.01186 189.357 8.01259C189.353 8.01331 189.349 8.01292 189.345 8.01144C189.341 8.00997 189.338 8.00748 189.336 8.00428C189.334 8.00108 189.333 7.99731 189.332 7.99342V0.43311C189.332 0.420807 189.337 0.409007 189.346 0.400307C189.355 0.391606 189.367 0.386719 189.379 0.386719H199.39C199.395 0.386719 199.4 0.387659 199.404 0.389485C199.409 0.391311 199.413 0.393988 199.416 0.397363C199.42 0.400737 199.422 0.404743 199.424 0.409152C199.426 0.413561 199.427 0.418287 199.427 0.423059V10.3416C199.427 10.3535 199.422 10.3649 199.414 10.3733C199.405 10.3817 199.394 10.3865 199.382 10.3865H191.739C191.736 10.3865 191.732 10.3856 191.729 10.3837C191.726 10.3818 191.724 10.379 191.723 10.3758C191.721 10.3726 191.721 10.369 191.721 10.3655C191.722 10.362 191.724 10.3588 191.726 10.3563L196.091 6.03646C196.093 6.03451 196.096 6.03318 196.099 6.03265C196.102 6.03212 196.105 6.0324 196.108 6.03346C196.11 6.03452 196.113 6.03631 196.114 6.03862C196.116 6.04094 196.117 6.04368 196.117 6.04651V7.39497C196.117 7.40091 196.119 7.40662 196.123 7.41082C196.127 7.41503 196.133 7.41739 196.139 7.41739H196.563C196.57 7.41739 196.577 7.41462 196.582 7.40969C196.587 7.40476 196.589 7.39807 196.589 7.3911V4.9478C196.59 4.94542 196.589 4.94305 196.588 4.94102C196.586 4.939 196.585 4.93741 196.582 4.93648C196.58 4.93555 196.578 4.93532 196.575 4.93583C196.573 4.93633 196.571 4.93754 196.569 4.9393L190.769 10.6795C190.767 10.6817 190.765 10.6843 190.764 10.6872C190.763 10.6901 190.762 10.6932 190.762 10.6963C190.763 10.6994 190.763 10.7024 190.764 10.7053C190.766 10.7081 190.768 10.7106 190.77 10.7127L196.555 16.289C196.558 16.2918 196.561 16.2936 196.565 16.2943C196.569 16.295 196.573 16.2945 196.576 16.2929C196.58 16.2914 196.583 16.2888 196.585 16.2855C196.587 16.2821 196.589 16.2783 196.589 16.2743V14.0042C196.589 13.9977 196.586 13.9914 196.582 13.9867C196.577 13.9821 196.571 13.9795 196.564 13.9795H196.143C196.136 13.9795 196.129 13.9822 196.124 13.987C196.12 13.9918 196.117 13.9983 196.117 14.005V15.1849C196.117 15.1901 196.115 15.1952 196.112 15.1995C196.109 15.2038 196.105 15.2072 196.1 15.2091C196.096 15.2111 196.09 15.2116 196.085 15.2106C196.08 15.2096 196.075 15.2071 196.071 15.2035L191.736 11.0251C191.735 11.024 191.734 11.0225 191.734 11.0209C191.733 11.0193 191.734 11.0176 191.734 11.016C191.735 11.0144 191.736 11.0131 191.737 11.0121C191.738 11.0111 191.74 11.0105 191.742 11.0104H199.395C199.403 11.0104 199.411 11.0137 199.417 11.0195C199.423 11.0253 199.426 11.0332 199.426 11.0414V20.9777C199.426 20.9861 199.423 20.9942 199.417 21.0001C199.411 21.0061 199.403 21.0094 199.394 21.0094H189.381C189.368 21.0094 189.356 21.0043 189.347 20.9954C189.338 20.9864 189.332 20.9742 189.332 20.9615V13.4151C189.333 13.4101 189.334 13.4053 189.337 13.4012C189.34 13.3971 189.344 13.3939 189.348 13.392C189.353 13.3901 189.358 13.3896 189.363 13.3905C189.368 13.3915 189.373 13.3938 189.376 13.3973L193.721 17.6978C193.724 17.7003 193.726 17.7034 193.726 17.7068C193.727 17.7102 193.727 17.7137 193.725 17.7169C193.724 17.7201 193.722 17.7229 193.719 17.7248C193.716 17.7268 193.712 17.7279 193.709 17.728H192.358C192.355 17.728 192.351 17.7287 192.347 17.7301C192.344 17.7315 192.341 17.7335 192.338 17.7361C192.336 17.7387 192.334 17.7418 192.332 17.7451C192.331 17.7485 192.33 17.7521 192.33 17.7558V18.1679C192.33 18.1755 192.333 18.1828 192.339 18.1881C192.344 18.1935 192.351 18.1965 192.359 18.1965H194.804C194.808 18.1964 194.812 18.1951 194.816 18.1926C194.819 18.1902 194.822 18.1868 194.823 18.1828C194.825 18.1789 194.825 18.1745 194.824 18.1704C194.824 18.1662 194.821 18.1624 194.818 18.1594L189.035 12.4354C189.033 12.4332 189.03 12.4314 189.027 12.4302C189.024 12.429 189.021 12.4283 189.018 12.4283C189.014 12.4283 189.011 12.429 189.008 12.4302C189.005 12.4314 189.003 12.4332 189 12.4354L183.214 18.1625C183.211 18.1653 183.209 18.1688 183.208 18.1727C183.208 18.1765 183.208 18.1804 183.21 18.184C183.211 18.1876 183.214 18.1907 183.217 18.1929C183.22 18.1952 183.224 18.1964 183.228 18.1965H185.682C185.686 18.1965 185.689 18.1959 185.692 18.1947C185.695 18.1935 185.697 18.1917 185.7 18.1895C185.702 18.1873 185.704 18.1846 185.705 18.1817C185.706 18.1788 185.707 18.1757 185.707 18.1725V17.7481C185.707 17.7427 185.704 17.7376 185.7 17.7338C185.697 17.7301 185.691 17.728 185.686 17.728H184.327C184.324 17.7278 184.321 17.7267 184.318 17.7248C184.315 17.723 184.313 17.7204 184.312 17.7174C184.311 17.7143 184.31 17.7111 184.311 17.7079C184.311 17.7047 184.313 17.7017 184.315 17.6993L188.677 13.3818C188.679 13.3799 188.682 13.3786 188.684 13.3781C188.687 13.3776 188.69 13.3779 188.693 13.3789C188.695 13.38 188.698 13.3818 188.699 13.3841C188.701 13.3863 188.702 13.3891 188.702 13.3919V20.9661C188.702 20.9776 188.697 20.9886 188.689 20.9967C188.681 21.0048 188.67 21.0094 188.658 21.0094H178.654C178.648 21.0094 178.642 21.0082 178.636 21.0058C178.631 21.0034 178.626 21 178.621 20.9956C178.617 20.9912 178.613 20.986 178.611 20.9803C178.609 20.9746 178.607 20.9684 178.607 20.9622V11.0359C178.607 11.0292 178.61 11.0227 178.615 11.0179C178.62 11.0131 178.626 11.0104 178.633 11.0104H186.291C186.295 11.0103 186.299 11.0114 186.302 11.0135C186.305 11.0156 186.308 11.0187 186.31 11.0223C186.311 11.0259 186.311 11.0299 186.311 11.0337C186.31 11.0375 186.308 11.041 186.305 11.0437L181.95 15.3542C181.947 15.3565 181.944 15.358 181.941 15.3586C181.938 15.3591 181.934 15.3587 181.931 15.3574C181.928 15.3561 181.925 15.3539 181.924 15.3512C181.922 15.3484 181.921 15.3452 181.921 15.3419V14.0012C181.921 13.9956 181.918 13.9903 181.914 13.9864C181.91 13.9825 181.905 13.9803 181.899 13.9803H181.466C181.461 13.9803 181.456 13.9821 181.453 13.9855C181.449 13.9888 181.447 13.9933 181.447 13.9981V16.4367C181.447 16.44 181.448 16.4432 181.45 16.4459C181.452 16.4487 181.454 16.4508 181.457 16.452C181.46 16.4533 181.464 16.4536 181.467 16.4529C181.471 16.4523 181.474 16.4507 181.476 16.4483L187.257 10.7259C187.265 10.7181 187.27 10.7075 187.27 10.6965C187.27 10.6855 187.265 10.6749 187.257 10.6671L181.479 4.9478C181.476 4.94521 181.473 4.94345 181.469 4.94274C181.466 4.94203 181.462 4.9424 181.459 4.94381C181.456 4.94522 181.453 4.9476 181.451 4.95065C181.449 4.9537 181.447 4.95729 181.447 4.96095V7.38414C181.447 7.38851 181.448 7.39283 181.45 7.39686C181.452 7.4009 181.454 7.40456 181.457 7.40765C181.46 7.41074 181.464 7.41319 181.468 7.41486C181.472 7.41653 181.476 7.41739 181.481 7.41739H181.886C181.891 7.41739 181.895 7.41651 181.899 7.4148C181.904 7.41309 181.907 7.41058 181.911 7.40742C181.914 7.40426 181.916 7.40051 181.918 7.39639C181.92 7.39226 181.921 7.38784 181.921 7.38337V6.03955ZM180.032 1.80321C180.031 1.80476 180.03 1.80656 180.029 1.80863C180.027 1.81124 180.025 1.81378 180.024 1.81606C180.023 1.81833 180.022 1.82028 180.022 1.82177L180.023 8.93131C180.023 8.94382 180.028 8.95581 180.037 8.96466C180.046 8.9735 180.057 8.97847 180.07 8.97847H183.314C183.32 8.97847 183.326 8.97603 183.33 8.97168C183.335 8.96733 183.337 8.96143 183.337 8.95528V8.53543C183.337 8.52907 183.334 8.52298 183.33 8.51848C183.325 8.51399 183.319 8.51146 183.312 8.51146H180.534C180.524 8.51146 180.514 8.50755 180.507 8.50059C180.5 8.49363 180.496 8.48419 180.496 8.47435V2.61352C180.497 2.6105 180.497 2.60755 180.499 2.60505C180.501 2.60254 180.503 2.60059 180.506 2.59944C180.509 2.59829 180.512 2.59798 180.515 2.59856C180.518 2.59914 180.521 2.60058 180.523 2.6027C182.483 4.54136 185.205 7.23414 188.686 10.681C188.689 10.6841 188.69 10.6896 188.69 10.6973C188.69 10.705 188.689 10.7102 188.686 10.7127C185.205 14.1597 182.483 16.8524 180.523 18.7911C180.521 18.7932 180.518 18.7947 180.515 18.7952C180.512 18.7958 180.509 18.7955 180.506 18.7944C180.503 18.7932 180.501 18.7913 180.499 18.7888C180.497 18.7862 180.497 18.7833 180.496 18.7803V12.9194C180.496 12.9096 180.5 12.9002 180.507 12.8932C180.514 12.8862 180.524 12.8823 180.534 12.8823H183.312C183.319 12.8823 183.325 12.8798 183.33 12.8753C183.334 12.8708 183.337 12.8647 183.337 12.8584V12.4385C183.337 12.4324 183.335 12.4265 183.33 12.4221C183.326 12.4178 183.32 12.4153 183.314 12.4153H180.07C180.057 12.4153 180.046 12.4203 180.037 12.4291C180.028 12.438 180.023 12.45 180.023 12.4625L180.022 19.572C180.022 19.5733 180.023 19.5752 180.023 19.5775C180.024 19.5798 180.026 19.5824 180.028 19.5852C180.029 19.5872 180.031 19.589 180.032 19.5906C180.034 19.5921 180.036 19.5934 180.037 19.5944C180.04 19.5963 180.042 19.5978 180.045 19.5988C180.047 19.5999 180.049 19.6005 180.05 19.6006L187.234 19.5999C187.247 19.5999 187.259 19.595 187.268 19.5863C187.277 19.5776 187.282 19.5658 187.282 19.5535V16.3432C187.282 16.3401 187.281 16.3371 187.28 16.3343C187.279 16.3315 187.277 16.3289 187.275 16.3268C187.273 16.3246 187.27 16.3229 187.267 16.3217C187.264 16.3206 187.261 16.32 187.258 16.32H186.834C186.828 16.32 186.821 16.3226 186.817 16.3272C186.812 16.3319 186.81 16.3381 186.81 16.3447V19.0942C186.81 19.0991 186.809 19.1039 186.807 19.1084C186.805 19.1129 186.802 19.117 186.799 19.1204C186.795 19.1239 186.791 19.1266 186.787 19.1285C186.782 19.1303 186.777 19.1313 186.772 19.1313H180.85C180.847 19.1313 180.844 19.1303 180.842 19.1286C180.839 19.1269 180.837 19.1245 180.836 19.1217C180.835 19.1189 180.835 19.1159 180.835 19.1129C180.836 19.1099 180.837 19.1072 180.839 19.105C182.798 17.1648 185.519 14.4718 189.003 11.0259C189.005 11.0233 189.011 11.022 189.018 11.022C189.026 11.022 189.032 11.0233 189.035 11.0259C192.518 14.4718 195.238 17.1648 197.197 19.105C197.199 19.1072 197.201 19.1099 197.201 19.1129C197.202 19.1159 197.202 19.1189 197.201 19.1217C197.199 19.1245 197.197 19.1269 197.195 19.1286C197.192 19.1303 197.189 19.1313 197.186 19.1313H191.264C191.26 19.1313 191.255 19.1303 191.25 19.1285C191.246 19.1266 191.241 19.1239 191.238 19.1204C191.234 19.117 191.232 19.1129 191.23 19.1084C191.228 19.1039 191.227 19.0991 191.227 19.0942V16.3447C191.227 16.3381 191.224 16.3319 191.22 16.3272C191.215 16.3226 191.209 16.32 191.203 16.32H190.779C190.772 16.32 190.766 16.3224 190.762 16.3268C190.758 16.3311 190.755 16.337 190.755 16.3432V19.5535C190.755 19.5658 190.76 19.5776 190.769 19.5863C190.778 19.595 190.79 19.5999 190.803 19.5999L197.986 19.6006C197.988 19.6008 197.99 19.6004 197.992 19.5994C197.994 19.5985 197.997 19.5971 198 19.5952C198.002 19.5937 198.004 19.5921 198.005 19.5906C198.007 19.589 198.008 19.5875 198.009 19.5859C198.011 19.5829 198.013 19.58 198.014 19.5776C198.015 19.5751 198.015 19.5732 198.014 19.572L198.014 12.4625C198.014 12.45 198.009 12.438 198 12.4291C197.991 12.4203 197.979 12.4153 197.967 12.4153H194.723C194.717 12.4153 194.711 12.4178 194.706 12.4221C194.702 12.4265 194.7 12.4324 194.7 12.4385V12.8584C194.7 12.8647 194.702 12.8708 194.707 12.8753C194.712 12.8798 194.718 12.8823 194.725 12.8823H197.503C197.513 12.8823 197.522 12.8862 197.529 12.8932C197.536 12.9002 197.54 12.9096 197.54 12.9194V18.7803C197.54 18.7833 197.539 18.7862 197.538 18.7888C197.536 18.7913 197.533 18.7932 197.531 18.7944C197.528 18.7955 197.525 18.7958 197.522 18.7952C197.519 18.7947 197.516 18.7932 197.514 18.7911C195.553 16.8524 192.832 14.1597 189.35 10.7127C189.348 10.7102 189.346 10.705 189.346 10.6973C189.346 10.6896 189.348 10.6841 189.35 10.681C192.833 7.23414 195.554 4.54136 197.514 2.6027C197.517 2.60058 197.519 2.59914 197.522 2.59856C197.525 2.59798 197.529 2.59829 197.531 2.59944C197.534 2.60059 197.537 2.60254 197.538 2.60505C197.54 2.60755 197.541 2.6105 197.541 2.61352L197.54 8.47435C197.54 8.48419 197.536 8.49363 197.529 8.50059C197.522 8.50755 197.513 8.51146 197.503 8.51146H194.725C194.718 8.51146 194.712 8.51399 194.707 8.51848C194.702 8.52298 194.7 8.52907 194.7 8.53543V8.95528C194.7 8.95832 194.7 8.96134 194.701 8.96415C194.703 8.96697 194.704 8.96952 194.706 8.97168C194.709 8.97383 194.711 8.97554 194.714 8.97671C194.717 8.97787 194.72 8.97847 194.723 8.97847H197.967C197.979 8.97847 197.991 8.9735 198 8.96466C198.009 8.95581 198.014 8.94382 198.014 8.93131L198.015 1.82177C198.015 1.82028 198.014 1.81833 198.013 1.81606C198.012 1.81378 198.011 1.81124 198.009 1.80863C198.008 1.80656 198.007 1.80476 198.005 1.80321C198.004 1.80167 198.002 1.80038 198 1.79935C197.997 1.79751 197.994 1.79606 197.992 1.79512C197.99 1.79418 197.988 1.79377 197.986 1.79394L190.803 1.79471C190.79 1.79471 190.778 1.7996 190.769 1.8083C190.76 1.817 190.755 1.8288 190.755 1.8411V5.05141C190.755 5.05756 190.758 5.06346 190.762 5.06781C190.766 5.07216 190.772 5.0746 190.779 5.0746H191.203C191.209 5.0746 191.215 5.072 191.22 5.06736C191.224 5.06272 191.227 5.05642 191.227 5.04986V2.30038C191.227 2.29054 191.231 2.2811 191.238 2.27414C191.245 2.26718 191.255 2.26327 191.264 2.26327H197.186C197.189 2.26331 197.192 2.26424 197.195 2.26594C197.197 2.26764 197.199 2.27004 197.201 2.27284C197.202 2.27564 197.202 2.27871 197.201 2.28169C197.201 2.28466 197.199 2.28739 197.197 2.28955C195.238 4.22976 192.518 6.92254 189.035 10.3679C189.032 10.371 189.026 10.3725 189.018 10.3725C189.011 10.3725 189.005 10.371 189.003 10.3679C185.52 6.92203 182.799 4.22899 180.84 2.28878C180.838 2.28662 180.837 2.28388 180.836 2.28091C180.835 2.27794 180.836 2.27487 180.837 2.27207C180.838 2.26927 180.84 2.26687 180.843 2.26517C180.845 2.26346 180.848 2.26253 180.851 2.26249H186.773C186.783 2.26249 186.793 2.2664 186.8 2.27336C186.807 2.28032 186.811 2.28976 186.811 2.29961V5.04909C186.811 5.05565 186.813 5.06195 186.818 5.06659C186.822 5.07123 186.828 5.07383 186.835 5.07383H187.259C187.262 5.07383 187.265 5.07323 187.268 5.07207C187.271 5.0709 187.273 5.06919 187.276 5.06704C187.278 5.06488 187.279 5.06233 187.281 5.05951C187.282 5.0567 187.282 5.05368 187.282 5.05064V1.84033C187.282 1.82802 187.277 1.81622 187.268 1.80752C187.26 1.79882 187.247 1.79394 187.235 1.79394L180.051 1.79316C180.05 1.79309 180.048 1.79362 180.045 1.7947C180.043 1.79577 180.04 1.79737 180.037 1.79935C180.036 1.80038 180.034 1.80167 180.032 1.80321Z" fill="#CB0033"/>
<path d="M173.013 8.42239H170.527C170.515 8.42239 170.504 8.42703 170.495 8.4353C170.487 8.44356 170.482 8.45477 170.482 8.46646C170.479 11.0139 170.478 13.6685 170.48 16.4304C170.481 16.8958 170.396 17.5391 170.953 17.7255C171.191 17.8054 171.487 17.8479 171.84 17.8531C172.279 17.8603 172.67 17.8631 173.013 17.8616C173.019 17.8616 173.025 17.8628 173.03 17.8651C173.036 17.8674 173.041 17.8708 173.046 17.8752C173.05 17.8795 173.053 17.8846 173.056 17.8902C173.058 17.8958 173.059 17.9019 173.059 17.908V20.8879C173.059 20.9004 173.055 20.9124 173.046 20.9215C173.037 20.9306 173.025 20.936 173.013 20.9366C172.292 20.9701 171.548 20.9961 170.781 21.0147C169.765 21.0394 168.573 20.9397 167.673 20.4495C166.447 19.7822 166.352 17.8662 166.354 16.6237C166.359 13.0835 166.358 10.3644 166.353 8.46646C166.353 8.46057 166.352 8.45474 166.35 8.4493C166.348 8.44386 166.344 8.43892 166.34 8.43475C166.336 8.43059 166.331 8.42729 166.326 8.42503C166.32 8.42278 166.314 8.42162 166.309 8.42162H164.22C164.207 8.42162 164.195 8.41665 164.186 8.4078C164.177 8.39896 164.172 8.38696 164.172 8.37445V5.6095C164.172 5.59679 164.177 5.5846 164.186 5.57561C164.196 5.56662 164.208 5.56157 164.221 5.56157H166.316C166.327 5.56157 166.337 5.55749 166.344 5.55024C166.351 5.54299 166.355 5.53316 166.355 5.52291V1.46749C166.355 1.45416 166.361 1.44138 166.37 1.43196C166.379 1.42253 166.392 1.41724 166.405 1.41724H170.433C170.445 1.41724 170.457 1.42221 170.466 1.43105C170.475 1.4399 170.48 1.45189 170.48 1.4644V5.51904C170.48 5.52462 170.481 5.53016 170.483 5.53531C170.485 5.54047 170.488 5.54516 170.492 5.54911C170.496 5.55306 170.501 5.55619 170.506 5.55833C170.511 5.56047 170.517 5.56157 170.523 5.56157H173.012C173.024 5.56157 173.036 5.56654 173.045 5.57538C173.054 5.58423 173.059 5.59622 173.059 5.60873V8.376C173.059 8.3883 173.055 8.4001 173.046 8.4088C173.037 8.4175 173.026 8.42239 173.013 8.42239Z" fill="#CB0033"/>
<path d="M0 13.7243V12.6828C0.0203125 12.3998 0.0434896 12.1173 0.0695312 11.8354C0.185156 10.575 0.549219 9.2668 1.20547 8.19592C2.51641 6.05726 4.60391 5.08613 7.08516 5.01654C8.42109 4.97942 9.82109 5.17582 11.0344 5.80056C13.0461 6.83587 14.0555 8.72247 14.2367 10.9191C14.2373 10.9249 14.2366 10.9308 14.2346 10.9363C14.2327 10.9418 14.2297 10.9469 14.2256 10.9511C14.2216 10.9554 14.2166 10.9589 14.2111 10.9612C14.2057 10.9635 14.1997 10.9647 14.1937 10.9647H10.2375C10.225 10.9647 10.2129 10.9604 10.2034 10.9525C10.1938 10.9446 10.1874 10.9336 10.1852 10.9214C9.95859 9.64257 9.29688 8.72556 7.95313 8.52066C7.42083 8.43973 6.9138 8.47504 6.43203 8.62659C5.28281 8.98845 4.71797 10.074 4.50859 11.1866C4.25599 12.5274 4.25729 13.8366 4.5125 15.1145C4.61458 15.6248 4.81276 16.1122 5.10703 16.5766C5.62578 17.3967 6.38385 17.8052 7.38125 17.8021C9.09063 17.7975 10.0102 16.6848 10.2328 15.1044C10.2341 15.0939 10.2393 15.0843 10.2472 15.0773C10.2551 15.0703 10.2653 15.0665 10.2758 15.0665H14.2508C14.2568 15.0665 14.2627 15.0677 14.2682 15.0701C14.2737 15.0725 14.2786 15.076 14.2826 15.0803C14.2867 15.0847 14.2898 15.0899 14.2917 15.0955C14.2936 15.1011 14.2943 15.107 14.2938 15.1129C14.1531 16.7753 13.5141 18.3735 12.2906 19.5109C11.2172 20.5088 9.92656 21.0949 8.41875 21.2691C5.575 21.5985 2.92422 20.8098 1.325 18.3642C0.401562 16.9516 0.114844 15.3797 0 13.7243Z" fill="#CB0033"/>
<path d="M24.868 19.0553C24.1201 20.1842 23.0735 20.8963 21.7282 21.1917C20.7875 21.3984 19.8654 21.4249 18.9618 21.2713C16.0243 20.7711 15.1446 18.037 15.5407 15.4414C15.8047 13.7118 16.9071 12.7035 18.511 12.1577C19.9125 11.6806 21.5914 11.5229 22.861 11.3164C23.6672 11.1858 24.8586 10.827 24.7914 9.78782C24.7446 9.06256 24.4375 8.55998 23.7227 8.36205C22.836 8.11617 21.425 8.08447 20.6329 8.61179C19.993 9.03705 19.8633 9.59993 19.861 10.3159C19.861 10.3278 19.8561 10.3392 19.8475 10.3476C19.8388 10.356 19.8271 10.3608 19.8149 10.3608H16.0227C16.0111 10.3608 15.9999 10.3564 15.9915 10.3485C15.983 10.3405 15.978 10.3297 15.9774 10.3182C15.8842 8.45019 16.5875 7.02519 18.0875 6.04323C19.1797 5.3288 20.5899 5.04117 21.929 5.02029C23.2071 5.00019 24.4438 5.09916 25.6063 5.44942C27.4665 6.00998 28.804 7.25638 28.8055 9.29839C28.8092 14.0231 28.8094 16.9417 28.8063 18.0541C28.8047 18.8443 28.8727 19.6793 29.6071 20.1146C29.618 20.121 29.6271 20.1301 29.6334 20.1411C29.6397 20.1521 29.643 20.1646 29.643 20.1773V20.7765C29.643 20.7894 29.6378 20.8018 29.6286 20.8109C29.6194 20.8201 29.6068 20.8252 29.5938 20.8252H25.4211C25.4074 20.8252 25.3939 20.8213 25.3822 20.8139C25.3706 20.8065 25.3613 20.7959 25.3555 20.7834C25.1378 20.3205 25.0042 19.8654 24.9547 19.418C24.9318 19.2113 24.9178 19.0932 24.9125 19.0638C24.9117 19.059 24.9094 19.0546 24.906 19.0511C24.9025 19.0476 24.8981 19.0453 24.8933 19.0443C24.8884 19.0434 24.8834 19.044 24.8789 19.0459C24.8744 19.0479 24.8706 19.0512 24.868 19.0553ZM24.825 13.3754C23.75 13.7729 23.0079 13.9561 21.7008 14.2878C20.3313 14.635 19.0133 15.4484 19.5008 17.0814C19.7649 17.9644 20.6805 18.252 21.554 18.2404C23.3954 18.2172 24.7899 16.9638 24.8649 15.1167C24.8842 14.6435 24.8883 14.0747 24.8774 13.4102C24.8771 13.4041 24.8754 13.3981 24.8724 13.3927C24.8694 13.3873 24.8651 13.3827 24.86 13.3793C24.8549 13.3759 24.849 13.3738 24.843 13.3731C24.8369 13.3724 24.8307 13.3732 24.825 13.3754Z" fill="#CB0033"/>
<path d="M97.0297 19.0638C97.0289 19.059 97.0266 19.0546 97.0232 19.0511C97.0197 19.0476 97.0153 19.0453 97.0104 19.0443C97.0056 19.0434 97.0006 19.044 96.9961 19.0459C96.9916 19.0479 96.9878 19.0512 96.9852 19.0553C96.2373 20.1842 95.1907 20.8963 93.8454 21.1917C92.9047 21.3984 91.9826 21.4249 91.079 21.2713C88.1415 20.7718 87.2618 18.0378 87.6579 15.4414C87.9219 13.7118 89.0243 12.7035 90.6282 12.1577C92.0297 11.6806 93.7086 11.5229 94.9782 11.3164C95.7844 11.1858 96.9758 10.827 96.9086 9.78782C96.8618 9.06256 96.5539 8.55998 95.8391 8.36205C94.9524 8.11617 93.5414 8.08447 92.7493 8.61179C92.1094 9.03705 91.9797 9.59993 91.9782 10.3159C91.9782 10.3278 91.9733 10.3392 91.9647 10.3476C91.956 10.356 91.9443 10.3608 91.9321 10.3608H88.1391C88.1275 10.3608 88.1163 10.3564 88.1079 10.3485C88.0994 10.3405 88.0944 10.3297 88.0938 10.3182C88.0006 8.45019 88.7039 7.02519 90.2039 6.04323C91.2961 5.3288 92.7063 5.04117 94.0454 5.02029C95.3235 5.00019 96.5602 5.09916 97.7227 5.44942C99.5829 6.00998 100.92 7.25638 100.923 9.29839C100.926 14.0231 100.927 16.9417 100.923 18.0541C100.922 18.8443 100.99 19.6793 101.724 20.1146C101.735 20.121 101.744 20.1301 101.751 20.1411C101.757 20.1521 101.76 20.1646 101.76 20.1773V20.7765C101.76 20.7894 101.755 20.8018 101.746 20.8109C101.737 20.8201 101.724 20.8252 101.711 20.8252H97.5383C97.5246 20.8252 97.5111 20.8213 97.4994 20.8139C97.4878 20.8065 97.4785 20.7959 97.4727 20.7834C97.255 20.3205 97.1214 19.8654 97.0719 19.418C97.049 19.2113 97.0349 19.0932 97.0297 19.0638ZM96.943 13.3778C95.868 13.7744 95.1258 13.9569 93.8188 14.2886C92.4493 14.635 91.1313 15.4476 91.618 17.0806C91.8813 17.9628 92.7969 18.2512 93.6704 18.2396C95.511 18.218 96.9063 16.9654 96.9821 15.1182C97.0013 14.645 97.0058 14.0765 96.9954 13.4126C96.9951 13.4064 96.9934 13.4004 96.9904 13.395C96.9874 13.3896 96.9831 13.385 96.978 13.3816C96.9729 13.3782 96.967 13.3761 96.9609 13.3754C96.9548 13.3747 96.9487 13.3755 96.943 13.3778Z" fill="#CB0033"/>
<path d="M144.412 5.01416C146.7 5.01416 148.929 5.68452 150.437 7.48066C151.792 9.09277 152.264 11.0899 152.264 13.1768C152.264 15.2636 151.793 17.2608 150.439 18.8737C148.929 20.6691 146.701 21.3402 144.414 21.3402C142.125 21.341 139.897 20.6698 138.388 18.8745C137.033 17.2624 136.561 15.2652 136.561 13.1783C136.561 11.0915 137.032 9.09431 138.387 7.48143C139.896 5.68529 142.124 5.01493 144.412 5.01416ZM140.768 13.1892C140.771 15.4979 141.629 17.9196 144.428 17.9173C147.226 17.9149 148.082 15.4917 148.08 13.1837C148.078 10.8758 147.218 8.45411 144.421 8.45643C141.622 8.45875 140.767 10.8812 140.768 13.1892Z" fill="#CB0033"/>
<path d="M124.363 19.013V28.3524C124.363 28.3645 124.358 28.3761 124.35 28.3847C124.341 28.3932 124.329 28.398 124.317 28.398H120.401C120.388 28.398 120.375 28.393 120.366 28.384C120.357 28.375 120.352 28.3628 120.352 28.3501V5.60963C120.352 5.59691 120.357 5.58472 120.366 5.57573C120.375 5.56674 120.388 5.56169 120.401 5.56169H124.246C124.25 5.56169 124.254 5.56249 124.258 5.56404C124.262 5.5656 124.266 5.56788 124.269 5.57075C124.272 5.57362 124.274 5.57703 124.276 5.58078C124.277 5.58453 124.278 5.58856 124.278 5.59262V7.55421C124.278 7.55802 124.279 7.56172 124.282 7.56479C124.284 7.56785 124.287 7.57011 124.291 7.57123C124.294 7.57236 124.298 7.57229 124.302 7.57103C124.306 7.56978 124.309 7.56741 124.311 7.56427C124.403 7.43746 124.566 7.22793 124.8 6.93566C125.808 5.6769 127.137 5.04519 128.787 5.04056C130.682 5.03514 132.273 5.80215 133.426 7.29597C134.099 8.16865 134.56 9.09571 134.809 10.0772C135.324 12.1019 135.328 14.1246 134.823 16.1452C134.245 18.454 132.534 20.7875 130.01 21.2359C128.877 21.4375 127.81 21.3524 126.809 20.9808C125.846 20.623 125.04 19.9645 124.389 19.0052C124.387 19.0028 124.385 19.0009 124.382 18.9998C124.379 18.9988 124.376 18.9988 124.373 18.9996C124.37 19.0005 124.368 19.0023 124.366 19.0047C124.364 19.0071 124.363 19.01 124.363 19.013ZM124.355 13.1877C124.364 15.3318 125.087 17.8076 127.752 17.7975C130.416 17.7882 131.121 15.3063 131.113 13.163C131.105 11.0189 130.381 8.54236 127.716 8.55241C125.052 8.56246 124.348 11.0436 124.355 13.1877Z" fill="#CB0033"/>
<path d="M35.0367 8.21219C35.0365 8.21751 35.0382 8.22272 35.0415 8.22695C35.0447 8.23119 35.0493 8.23419 35.0546 8.23546C35.0598 8.23673 35.0653 8.23618 35.0701 8.23392C35.075 8.23165 35.0789 8.22781 35.0813 8.22302C35.4922 7.43436 36.0005 6.75833 36.6062 6.19493C37.5445 5.32199 38.8711 5.02508 40.1609 5.16039C40.1665 5.16096 40.1717 5.16366 40.1755 5.16795C40.1792 5.17224 40.1813 5.17781 40.1813 5.18359V9.29389C40.1813 9.29853 40.1803 9.30312 40.1785 9.30739C40.1767 9.31166 40.174 9.31553 40.1707 9.31878C40.1673 9.32202 40.1634 9.32456 40.159 9.32627C40.1546 9.32797 40.15 9.32879 40.1453 9.32869C38.8703 9.30859 37.5836 9.21812 36.5344 9.94183C35.6539 10.548 35.3617 11.7024 35.3625 12.7594C35.3641 15.1681 35.3646 17.8447 35.3641 20.789C35.3641 20.7982 35.3603 20.8071 35.3535 20.8136C35.3468 20.8201 35.3377 20.8238 35.3281 20.8238H31.2648C31.2578 20.8238 31.251 20.821 31.2461 20.8161C31.2411 20.8112 31.2383 20.8045 31.2383 20.7975V5.58719C31.2383 5.58394 31.2389 5.58073 31.2402 5.57773C31.2414 5.57472 31.2433 5.572 31.2456 5.5697C31.2479 5.5674 31.2507 5.56558 31.2537 5.56433C31.2567 5.56309 31.26 5.56245 31.2633 5.56245H35.0102C35.0172 5.56245 35.024 5.56522 35.0289 5.57015C35.0339 5.57508 35.0367 5.58177 35.0367 5.58874V8.21219Z" fill="#CB0033"/>
<path d="M113.853 8.21146C113.853 8.21677 113.854 8.22198 113.857 8.22622C113.861 8.23045 113.865 8.23346 113.871 8.23472C113.876 8.23599 113.881 8.23545 113.886 8.23318C113.891 8.23092 113.895 8.22707 113.897 8.22229C114.308 7.43363 114.817 6.75759 115.422 6.19419C116.361 5.32125 117.688 5.02435 118.978 5.15966C118.983 5.16023 118.989 5.16293 118.992 5.16722C118.996 5.17151 118.998 5.17708 118.998 5.18285V9.29393C118.998 9.29857 118.997 9.30316 118.995 9.30743C118.993 9.3117 118.991 9.31557 118.987 9.31882C118.984 9.32206 118.98 9.3246 118.976 9.32631C118.971 9.32801 118.967 9.32883 118.962 9.32873C117.687 9.30863 116.4 9.21739 115.35 9.94187C114.47 10.5481 114.178 11.7024 114.179 12.7594C114.18 15.1687 114.18 17.8457 114.179 20.7906C114.179 20.7998 114.176 20.8087 114.169 20.8152C114.162 20.8217 114.153 20.8254 114.143 20.8254L110.079 20.8246C110.072 20.8246 110.065 20.8218 110.061 20.8169C110.056 20.812 110.053 20.8053 110.053 20.7983L110.054 5.58569C110.054 5.57913 110.056 5.57283 110.061 5.56819C110.066 5.56355 110.072 5.56095 110.079 5.56095L113.826 5.56172C113.833 5.56172 113.84 5.56449 113.845 5.56942C113.85 5.57435 113.853 5.58103 113.853 5.58801V8.21146Z" fill="#CB0033"/>
<path d="M157.586 8.21219C157.585 8.2175 157.587 8.22271 157.59 8.22694C157.594 8.23118 157.598 8.23418 157.603 8.23545C157.609 8.23672 157.614 8.23617 157.619 8.23391C157.624 8.23164 157.628 8.2278 157.63 8.22301C158.041 7.43435 158.55 6.75832 159.156 6.19492C160.094 5.32198 161.421 5.0243 162.711 5.15961C162.716 5.16018 162.721 5.16288 162.725 5.16717C162.729 5.17146 162.731 5.17703 162.731 5.1828V9.29389C162.731 9.29852 162.73 9.30311 162.728 9.30738C162.726 9.31165 162.724 9.31553 162.72 9.31877C162.717 9.32201 162.713 9.32455 162.709 9.32626C162.704 9.32796 162.7 9.32878 162.695 9.32868C161.42 9.30858 160.133 9.21811 159.084 9.94182C158.203 10.548 157.911 11.7032 157.911 12.7601C157.913 15.1689 157.913 17.8457 157.913 20.7905C157.913 20.7951 157.912 20.7996 157.91 20.8038C157.908 20.8081 157.906 20.8119 157.902 20.8151C157.899 20.8184 157.895 20.8209 157.891 20.8227C157.886 20.8244 157.882 20.8253 157.877 20.8253H153.814C153.807 20.8253 153.8 20.8226 153.795 20.8176C153.79 20.8127 153.787 20.806 153.787 20.799V5.58719C153.787 5.58394 153.788 5.58072 153.789 5.57772C153.79 5.57472 153.792 5.57199 153.794 5.56969C153.797 5.56739 153.8 5.56557 153.803 5.56433C153.806 5.56308 153.809 5.56244 153.812 5.56244H157.559C157.566 5.56244 157.573 5.56521 157.578 5.57014C157.583 5.57507 157.586 5.58176 157.586 5.58873V8.21219Z" fill="#CB0033"/>
<path d="M62.1154 5.56079H58.0389C58.0255 5.56079 58.0146 5.57152 58.0146 5.58476V20.7997C58.0146 20.8129 58.0255 20.8237 58.0389 20.8237H62.1154C62.1288 20.8237 62.1396 20.8129 62.1396 20.7997V5.58476C62.1396 5.57152 62.1288 5.56079 62.1154 5.56079Z" fill="#CB0033"/>
<path d="M107.79 5.56152H103.726C103.71 5.56152 103.696 5.57468 103.696 5.5909V20.795C103.696 20.8113 103.71 20.8244 103.726 20.8244H107.79C107.806 20.8244 107.82 20.8113 107.82 20.795V5.5909C107.82 5.57468 107.806 5.56152 107.79 5.56152Z" fill="#CB0033"/>
<path d="M185.235 27.9332C184.91 28.2857 184.689 28.5092 184.16 28.5301C181.927 28.619 181.882 24.586 183.828 24.3045C184.418 24.219 184.884 24.4022 185.225 24.8543C185.228 24.8573 185.231 24.8596 185.234 24.8607C185.238 24.8619 185.242 24.862 185.246 24.8608C185.249 24.8597 185.252 24.8575 185.254 24.8545C185.256 24.8515 185.257 24.8479 185.257 24.8442V23.0512C185.257 23.0393 185.262 23.0279 185.271 23.0195C185.279 23.0111 185.291 23.0063 185.303 23.0063H186.25C186.263 23.0063 186.276 23.0115 186.285 23.0206C186.294 23.0298 186.299 23.0421 186.299 23.0551V28.3731C186.299 28.3797 186.297 28.386 186.292 28.3906C186.288 28.3952 186.282 28.3978 186.275 28.3978H185.326C185.314 28.3978 185.302 28.393 185.294 28.3845C185.285 28.3759 185.281 28.3643 185.281 28.3522V27.9509C185.281 27.9456 185.279 27.9405 185.276 27.9361C185.273 27.9318 185.269 27.9284 185.264 27.9265C185.259 27.9246 185.253 27.9242 185.248 27.9254C185.243 27.9265 185.238 27.9293 185.235 27.9332ZM183.5 26.4161C183.5 26.9698 183.686 27.6161 184.378 27.6154C185.071 27.6154 185.256 26.9682 185.255 26.4146C185.255 25.8618 185.07 25.2146 184.377 25.2154C183.684 25.2161 183.499 25.8633 183.5 26.4161Z" fill="#CB0033"/>
<path d="M194.123 27.9509C194.123 27.9456 194.122 27.9405 194.119 27.9361C194.116 27.9318 194.111 27.9284 194.106 27.9265C194.102 27.9246 194.096 27.9242 194.091 27.9254C194.086 27.9265 194.081 27.9293 194.077 27.9332C193.753 28.2857 193.532 28.5092 193.004 28.5301C190.77 28.6197 190.725 24.5868 192.671 24.3045C193.261 24.219 193.727 24.4022 194.068 24.8543C194.07 24.8573 194.073 24.8596 194.077 24.8607C194.081 24.8619 194.085 24.862 194.088 24.8608C194.092 24.8597 194.095 24.8575 194.097 24.8545C194.099 24.8515 194.1 24.8479 194.1 24.8442L194.099 23.0512C194.099 23.0453 194.1 23.0395 194.103 23.034C194.105 23.0286 194.108 23.0236 194.112 23.0195C194.117 23.0153 194.122 23.012 194.127 23.0098C194.133 23.0075 194.139 23.0063 194.145 23.0063H195.092C195.105 23.0063 195.118 23.0115 195.127 23.0206C195.136 23.0298 195.141 23.0421 195.141 23.0551L195.143 28.3731C195.143 28.3797 195.14 28.386 195.136 28.3906C195.131 28.3952 195.125 28.3978 195.119 28.3978H194.17C194.157 28.3978 194.146 28.393 194.137 28.3845C194.129 28.3759 194.124 28.3643 194.124 28.3522L194.123 27.9509ZM192.342 26.4161C192.343 26.969 192.528 27.6161 193.221 27.6154C193.914 27.6146 194.098 26.9674 194.098 26.4146C194.097 25.861 193.912 25.2146 193.219 25.2154C192.526 25.2154 192.342 25.8633 192.342 26.4161Z" fill="#CB0033"/>
<path d="M198.752 27.951C198.752 27.9457 198.751 27.9405 198.748 27.9362C198.744 27.9318 198.74 27.9284 198.735 27.9265C198.73 27.9246 198.725 27.9242 198.72 27.9254C198.714 27.9266 198.71 27.9293 198.706 27.9332C198.381 28.2858 198.16 28.5092 197.632 28.5309C195.398 28.6198 195.352 24.5868 197.299 24.3046C197.889 24.2185 198.355 24.4015 198.696 24.8536C198.698 24.8566 198.701 24.8588 198.705 24.86C198.709 24.8612 198.713 24.8612 198.716 24.8601C198.72 24.859 198.723 24.8567 198.725 24.8538C198.727 24.8508 198.728 24.8472 198.728 24.8435L198.727 23.0505C198.727 23.0386 198.732 23.0272 198.74 23.0187C198.749 23.0103 198.76 23.0056 198.772 23.0056H199.721C199.727 23.0056 199.734 23.0069 199.74 23.0093C199.746 23.0118 199.751 23.0154 199.756 23.0199C199.76 23.0244 199.764 23.0298 199.766 23.0357C199.769 23.0416 199.77 23.0479 199.77 23.0543L199.772 28.3731C199.772 28.3797 199.769 28.386 199.765 28.3906C199.76 28.3953 199.754 28.3979 199.747 28.3979H198.797C198.785 28.3979 198.774 28.3931 198.765 28.3845C198.757 28.376 198.752 28.3644 198.752 28.3523V27.951ZM196.97 26.4154C196.971 26.969 197.156 27.6154 197.849 27.6154C198.541 27.6146 198.726 26.9675 198.726 26.4146C198.726 25.8618 198.54 25.2146 197.847 25.2146C197.154 25.2154 196.97 25.8626 196.97 26.4154Z" fill="#CB0033"/>
<path d="M134.041 25.67C134.028 25.67 134.015 25.6647 134.005 25.6553C133.996 25.6459 133.991 25.6331 133.991 25.6198C133.99 24.2582 135.516 24.1121 136.502 24.3896C136.854 24.4891 137.103 24.6739 137.248 24.944C137.318 25.0734 137.351 25.3708 137.346 25.8363C137.339 26.4966 137.338 27.1301 137.343 27.7368C137.345 27.942 137.413 28.1035 137.548 28.2216C137.563 28.2351 137.574 28.2529 137.579 28.2727C137.584 28.2924 137.582 28.3132 137.575 28.3322C137.568 28.3512 137.555 28.3676 137.538 28.3792C137.521 28.3908 137.501 28.397 137.48 28.3971H136.48C136.462 28.3971 136.445 28.3912 136.432 28.3804C136.418 28.3695 136.409 28.3544 136.405 28.3376L136.329 27.9718C136.328 27.9674 136.326 27.9634 136.323 27.9602C136.32 27.957 136.316 27.9549 136.311 27.9542C136.307 27.9534 136.302 27.954 136.298 27.956C136.294 27.9579 136.29 27.961 136.288 27.9649C135.979 28.4605 135.323 28.6051 134.766 28.5108C134.015 28.3855 133.811 27.7121 133.88 27.0456C133.98 26.0644 135.093 26.0234 135.926 25.892C136.089 25.8657 136.311 25.7257 136.293 25.5131C136.272 25.2749 136.158 25.1698 135.924 25.1296C135.517 25.0608 135.031 25.1103 135.009 25.6198C135.009 25.6333 135.003 25.6461 134.993 25.6555C134.983 25.6648 134.97 25.6701 134.956 25.67H134.041ZM136.284 26.4641C136.044 26.5445 135.759 26.6273 135.429 26.7123C135.127 26.7912 134.851 26.9883 134.894 27.327C134.933 27.6316 135.209 27.743 135.491 27.7213C136.02 27.6804 136.298 27.3378 136.316 26.8399C136.32 26.7368 136.32 26.619 136.316 26.4865C136.316 26.4827 136.315 26.479 136.314 26.4757C136.312 26.4723 136.309 26.4694 136.306 26.4672C136.303 26.465 136.299 26.4636 136.296 26.4631C136.292 26.4625 136.288 26.4629 136.284 26.4641Z" fill="#CB0033"/>
<path d="M141.72 27.2428C141.478 28.173 140.565 28.6508 139.633 28.5139C138.311 28.3199 137.945 27.0286 138.112 25.9044C138.217 25.1977 138.627 24.5374 139.341 24.3541C139.9 24.2103 140.409 24.257 140.867 24.4941C141.623 24.8853 141.835 25.8263 141.774 26.6389C141.773 26.6516 141.767 26.6634 141.757 26.672C141.748 26.6806 141.735 26.6854 141.722 26.6853H139.237C139.231 26.6853 139.225 26.6866 139.219 26.689C139.213 26.6914 139.208 26.695 139.203 26.6995C139.199 26.7039 139.196 26.7092 139.193 26.715C139.191 26.7209 139.19 26.727 139.19 26.7333C139.212 27.2962 139.51 27.7168 140.139 27.6186C140.374 27.582 140.539 27.4541 140.634 27.2351C140.64 27.2218 140.649 27.2104 140.661 27.2025C140.674 27.1945 140.688 27.1903 140.703 27.1902H141.679C141.686 27.1902 141.692 27.1917 141.698 27.1946C141.704 27.1974 141.709 27.2015 141.713 27.2066C141.717 27.2117 141.719 27.2176 141.72 27.2239C141.722 27.2302 141.722 27.2366 141.72 27.2428ZM139.225 25.9887L140.649 25.9918C140.655 25.9918 140.66 25.9895 140.664 25.9854C140.668 25.9814 140.671 25.9759 140.671 25.9701V25.923C140.671 25.824 140.653 25.7259 140.619 25.6343C140.585 25.5428 140.535 25.4596 140.472 25.3894C140.408 25.3193 140.333 25.2636 140.25 25.2255C140.167 25.1874 140.078 25.1677 139.989 25.1675H139.889C139.707 25.1672 139.533 25.2462 139.405 25.3873C139.276 25.5284 139.204 25.72 139.203 25.9199V25.967C139.203 25.9728 139.206 25.9783 139.21 25.9823C139.214 25.9864 139.219 25.9887 139.225 25.9887Z" fill="#CB0033"/>
<path d="M142.339 27.1036H143.303C143.316 27.1036 143.329 27.1083 143.339 27.117C143.349 27.1256 143.356 27.1376 143.358 27.1507C143.455 27.7724 144.259 27.7817 144.694 27.6146C144.871 27.5466 145.009 27.2845 144.822 27.1337C144.744 27.0703 144.661 27.0247 144.575 26.9969C143.845 26.7603 142.362 26.7007 142.411 25.5456C142.449 24.6278 143.265 24.2698 144.097 24.2752C144.947 24.2814 145.797 24.603 145.857 25.5773C145.857 25.5838 145.856 25.5904 145.854 25.5966C145.852 25.6027 145.848 25.6084 145.844 25.6132C145.839 25.618 145.834 25.6218 145.828 25.6244C145.821 25.627 145.815 25.6283 145.808 25.6283H144.876C144.863 25.6283 144.85 25.6236 144.839 25.6149C144.829 25.6063 144.822 25.5943 144.82 25.5811C144.77 25.2961 144.569 25.1384 144.217 25.1079C143.941 25.0842 143.734 25.1152 143.596 25.2007C143.573 25.214 143.553 25.2305 143.536 25.2494C143.369 25.4396 143.463 25.6592 143.701 25.7381C144.491 25.9987 145.843 25.9855 145.973 26.9636C146.177 28.5054 144.324 28.7273 143.286 28.4203C142.642 28.2296 142.306 27.8113 142.279 27.1654C142.279 27.1574 142.28 27.1494 142.283 27.1419C142.286 27.1344 142.29 27.1276 142.296 27.1218C142.302 27.116 142.308 27.1114 142.316 27.1083C142.323 27.1052 142.331 27.1036 142.339 27.1036Z" fill="#CB0033"/>
<path d="M148.282 25.6198C148.281 24.2582 149.808 24.1121 150.793 24.3896C151.146 24.4891 151.395 24.6739 151.54 24.944C151.61 25.0734 151.643 25.3708 151.638 25.8363C151.631 26.4971 151.63 27.1309 151.635 27.7376C151.637 27.9427 151.705 28.1043 151.839 28.2224C151.855 28.2359 151.866 28.2537 151.87 28.2735C151.875 28.2932 151.874 28.314 151.867 28.333C151.86 28.352 151.847 28.3684 151.83 28.38C151.813 28.3915 151.793 28.3978 151.772 28.3979H150.771C150.754 28.3979 150.737 28.392 150.724 28.3811C150.71 28.3703 150.701 28.3552 150.697 28.3383L150.621 27.9726C150.62 27.9682 150.618 27.9641 150.615 27.961C150.611 27.9578 150.607 27.9557 150.603 27.9549C150.598 27.9542 150.594 27.9548 150.59 27.9567C150.586 27.9586 150.582 27.9618 150.58 27.9657C150.271 28.4613 149.615 28.6059 149.057 28.5115C148.306 28.3863 148.102 27.7128 148.171 27.0463C148.271 26.0644 149.385 26.0234 150.218 25.892C150.381 25.8657 150.603 25.7257 150.585 25.5131C150.564 25.2749 150.45 25.1698 150.216 25.1296C149.809 25.0608 149.323 25.1103 149.301 25.6198C149.301 25.6333 149.295 25.6461 149.285 25.6555C149.275 25.6648 149.262 25.6701 149.248 25.67H148.332C148.319 25.67 148.306 25.6647 148.297 25.6553C148.287 25.6459 148.282 25.6331 148.282 25.6198ZM150.576 26.4633C150.336 26.5438 150.05 26.6267 149.721 26.7123C149.419 26.7912 149.143 26.9883 149.186 27.327C149.225 27.6316 149.501 27.743 149.782 27.7213C150.312 27.6804 150.589 27.3371 150.608 26.8391C150.612 26.736 150.612 26.6182 150.608 26.4858C150.608 26.482 150.607 26.4783 150.605 26.4749C150.604 26.4715 150.601 26.4686 150.598 26.4665C150.595 26.4643 150.591 26.4628 150.587 26.4623C150.584 26.4618 150.58 26.4621 150.576 26.4633Z" fill="#CB0033"/>
<path d="M170.498 25.8308H169.52C169.513 25.8308 169.506 25.8283 169.501 25.8239C169.496 25.8196 169.492 25.8135 169.491 25.8069C169.422 25.4115 169.197 25.203 168.815 25.1813C168.368 25.1558 168.114 25.4357 168.024 25.8687C167.918 26.3837 167.955 26.8355 168.133 27.2241C168.29 27.5636 168.7 27.6904 169.059 27.5543C169.297 27.4641 169.443 27.2599 169.498 26.9419C169.5 26.9292 169.507 26.9176 169.517 26.9092C169.527 26.9009 169.539 26.8963 169.552 26.8963H170.517C170.523 26.8962 170.53 26.8976 170.536 26.9002C170.542 26.9029 170.547 26.9068 170.552 26.9117C170.556 26.9166 170.559 26.9224 170.561 26.9286C170.563 26.9349 170.564 26.9416 170.563 26.9481C170.431 28.0592 169.55 28.6422 168.468 28.5154C167.036 28.3483 166.654 26.9504 166.914 25.7288C167.055 25.0643 167.43 24.6172 168.038 24.3873C168.559 24.1901 169.386 24.2411 169.866 24.5682C170.271 24.844 170.498 25.2476 170.546 25.779C170.546 25.7856 170.546 25.7923 170.543 25.7986C170.541 25.8048 170.538 25.8106 170.533 25.8155C170.529 25.8203 170.523 25.8242 170.517 25.8269C170.511 25.8295 170.505 25.8309 170.498 25.8308Z" fill="#CB0033"/>
<path d="M171.228 25.6693C171.214 25.6693 171.201 25.664 171.192 25.6546C171.182 25.6451 171.177 25.6324 171.177 25.619C171.176 24.2582 172.703 24.1121 173.688 24.3896C174.04 24.4891 174.289 24.6739 174.435 24.944C174.505 25.0734 174.537 25.3708 174.532 25.8363C174.525 26.4971 174.523 27.1309 174.529 27.7376C174.531 27.9422 174.599 28.1036 174.733 28.2216C174.749 28.2351 174.759 28.253 174.764 28.2727C174.769 28.2925 174.768 28.3132 174.761 28.3322C174.753 28.3512 174.74 28.3676 174.723 28.3792C174.707 28.3908 174.687 28.397 174.666 28.3971H173.665C173.648 28.3971 173.631 28.3912 173.617 28.3804C173.604 28.3695 173.595 28.3544 173.591 28.3376L173.515 27.9719C173.514 27.9675 173.512 27.9634 173.509 27.9602C173.506 27.9571 173.502 27.955 173.497 27.9542C173.493 27.9534 173.488 27.954 173.484 27.956C173.48 27.9579 173.477 27.961 173.475 27.9649C173.165 28.4605 172.51 28.6051 171.951 28.5108C171.2 28.3855 170.996 27.7121 171.065 27.0456C171.166 26.0636 172.279 26.0234 173.112 25.892C173.275 25.8657 173.497 25.7257 173.479 25.5131C173.458 25.275 173.344 25.1698 173.111 25.1296C172.704 25.0608 172.218 25.1103 172.196 25.6198C172.195 25.6333 172.189 25.6461 172.179 25.6555C172.169 25.6649 172.156 25.6701 172.143 25.6701L171.228 25.6693ZM173.471 26.4641C173.23 26.5445 172.945 26.6273 172.615 26.7123C172.314 26.7912 172.038 26.9884 172.081 27.327C172.12 27.6317 172.396 27.743 172.678 27.7213C173.206 27.6796 173.484 27.3371 173.503 26.8399C173.506 26.7368 173.506 26.619 173.503 26.4866C173.503 26.4828 173.502 26.479 173.5 26.4757C173.498 26.4723 173.496 26.4694 173.493 26.4672C173.489 26.4651 173.486 26.4636 173.482 26.4631C173.478 26.4626 173.474 26.4629 173.471 26.4641Z" fill="#CB0033"/>
<path d="M178.867 27.1902C178.873 27.1902 178.88 27.1917 178.885 27.1946C178.891 27.1974 178.896 27.2015 178.9 27.2066C178.904 27.2117 178.907 27.2176 178.908 27.2239C178.909 27.2302 178.909 27.2366 178.907 27.2428C178.665 28.173 177.753 28.6508 176.821 28.5139C175.499 28.3199 175.132 27.0286 175.3 25.9044C175.405 25.1977 175.814 24.5374 176.528 24.3541C177.088 24.2103 177.597 24.257 178.055 24.4941C178.81 24.8853 179.022 25.8263 178.961 26.6389C178.96 26.6516 178.954 26.6634 178.945 26.672C178.935 26.6806 178.923 26.6854 178.91 26.6853H176.425C176.418 26.6853 176.412 26.6866 176.406 26.689C176.4 26.6914 176.395 26.695 176.391 26.6995C176.386 26.7039 176.383 26.7092 176.381 26.715C176.378 26.7209 176.377 26.727 176.378 26.7333C176.4 27.2962 176.698 27.7168 177.327 27.6186C177.561 27.582 177.726 27.4541 177.821 27.2351C177.827 27.2218 177.837 27.2104 177.849 27.2025C177.861 27.1945 177.876 27.1903 177.89 27.1902H178.867ZM176.407 25.9887L177.842 25.9918C177.846 25.9918 177.85 25.9901 177.853 25.987C177.856 25.984 177.858 25.9798 177.858 25.9755V25.9237C177.858 25.8246 177.841 25.7264 177.807 25.6348C177.772 25.5432 177.722 25.4599 177.659 25.3896C177.595 25.3194 177.52 25.2637 177.437 25.2256C177.354 25.1874 177.265 25.1677 177.175 25.1675H177.077C176.895 25.1672 176.721 25.2463 176.593 25.3875C176.464 25.5288 176.391 25.7205 176.391 25.9206V25.9724C176.391 25.9768 176.393 25.9809 176.396 25.9839C176.399 25.987 176.403 25.9887 176.407 25.9887Z" fill="#CB0033"/>
<path d="M163.719 25.05C163.999 24.5621 164.403 24.2575 164.998 24.3132C165.005 24.3141 165.012 24.3176 165.017 24.323C165.022 24.3284 165.024 24.3354 165.024 24.3426V25.3647C165.024 25.3696 165.023 25.3744 165.021 25.3788C165.019 25.3833 165.016 25.3872 165.012 25.3904C165.009 25.3935 165.004 25.3959 165 25.3972C164.995 25.3985 164.99 25.3988 164.985 25.398C164.949 25.3923 164.835 25.3933 164.643 25.4011C164.116 25.4227 163.786 25.6686 163.77 26.2338C163.764 26.441 163.763 27.1459 163.767 28.3485C163.767 28.3614 163.762 28.3738 163.753 28.3829C163.743 28.3921 163.731 28.3972 163.718 28.3972H162.737C162.725 28.3972 162.713 28.3923 162.704 28.3836C162.695 28.3749 162.69 28.3631 162.69 28.3508V24.4701C162.69 24.4634 162.692 24.4568 162.694 24.4506C162.697 24.4444 162.701 24.4388 162.706 24.434C162.711 24.4293 162.716 24.4256 162.723 24.423C162.729 24.4204 162.736 24.4191 162.743 24.4191H163.636C163.648 24.4191 163.659 24.4237 163.667 24.4318C163.676 24.4399 163.68 24.4509 163.68 24.4624V25.04C163.68 25.0445 163.682 25.049 163.684 25.0527C163.687 25.0563 163.691 25.0589 163.695 25.0601C163.7 25.0613 163.705 25.0609 163.709 25.0591C163.713 25.0573 163.716 25.0541 163.719 25.05Z" fill="#CB0033"/>
<path d="M180.69 25.0391C180.69 25.0437 180.691 25.0481 180.694 25.0518C180.697 25.0555 180.7 25.0581 180.705 25.0593C180.709 25.0604 180.714 25.0601 180.718 25.0582C180.723 25.0564 180.726 25.0532 180.728 25.0492C181.009 24.5613 181.413 24.2566 182.009 24.3115C182.016 24.3125 182.022 24.316 182.027 24.3214C182.032 24.3268 182.034 24.3338 182.034 24.3409V25.3639C182.034 25.3688 182.033 25.3736 182.031 25.378C182.029 25.3824 182.026 25.3864 182.022 25.3895C182.019 25.3927 182.014 25.395 182.01 25.3963C182.005 25.3976 182 25.3979 181.995 25.3971C181.959 25.3914 181.845 25.3925 181.653 25.4002C181.127 25.4226 180.795 25.6685 180.78 26.2337C180.774 26.4409 180.774 27.1463 180.777 28.3499C180.777 28.3629 180.772 28.3753 180.763 28.3844C180.754 28.3935 180.741 28.3987 180.728 28.3987H179.747C179.741 28.3987 179.735 28.3975 179.729 28.3951C179.723 28.3928 179.718 28.3894 179.714 28.3851C179.709 28.3808 179.706 28.3756 179.704 28.37C179.701 28.3644 179.7 28.3584 179.7 28.3523L179.699 24.4693C179.699 24.4626 179.701 24.4559 179.703 24.4497C179.706 24.4436 179.71 24.4379 179.715 24.4332C179.719 24.4285 179.725 24.4247 179.732 24.4221C179.738 24.4196 179.745 24.4182 179.752 24.4182H180.645C180.657 24.4182 180.668 24.4228 180.677 24.4309C180.685 24.439 180.69 24.4501 180.69 24.4615V25.0391Z" fill="#CB0033"/>
<path d="M128.374 24.8079C128.374 24.8127 128.375 24.8175 128.378 24.8214C128.381 24.8254 128.384 24.8285 128.389 24.8302C128.394 24.8319 128.398 24.8322 128.403 24.8309C128.408 24.8297 128.412 24.8271 128.415 24.8234C128.996 24.1669 130.072 24.0857 130.619 24.8535C130.622 24.858 130.627 24.8617 130.632 24.8643C130.636 24.8669 130.642 24.8684 130.647 24.8686C130.653 24.8689 130.659 24.8678 130.664 24.8656C130.669 24.8634 130.673 24.8601 130.677 24.8559C131.009 24.4626 131.422 24.2821 131.916 24.3146C132.668 24.3633 133.139 24.8473 133.14 25.5935C133.142 26.3533 133.143 27.2718 133.142 28.3492C133.142 28.3621 133.136 28.3745 133.127 28.3836C133.118 28.3928 133.105 28.3979 133.092 28.3979H132.131C132.118 28.3979 132.105 28.3927 132.096 28.3836C132.087 28.3745 132.082 28.3621 132.082 28.3492C132.082 27.0646 132.082 26.2363 132.082 25.8641C132.082 25.6205 131.999 25.3693 131.754 25.2834C131.224 25.0979 130.77 25.3917 130.769 25.9631C130.768 27.4301 130.766 28.2267 130.764 28.353C130.764 28.359 130.763 28.3649 130.761 28.3704C130.759 28.3759 130.755 28.3808 130.751 28.385C130.747 28.3892 130.742 28.3925 130.736 28.3947C130.73 28.3969 130.724 28.398 130.718 28.3979L129.752 28.3971C129.746 28.3971 129.741 28.396 129.736 28.3938C129.731 28.3915 129.726 28.3883 129.722 28.3842C129.719 28.3801 129.716 28.3753 129.714 28.3701C129.712 28.3648 129.712 28.3593 129.712 28.3538C129.713 28.3486 129.713 27.5252 129.714 25.8834C129.714 25.6205 129.635 25.3538 129.368 25.2718C128.873 25.1172 128.441 25.3948 128.427 25.9236C128.415 26.3798 128.413 27.1878 128.421 28.3476C128.421 28.3609 128.416 28.3737 128.407 28.3831C128.397 28.3926 128.385 28.3979 128.371 28.3979H127.402C127.39 28.3979 127.379 28.3931 127.37 28.3847C127.362 28.3763 127.357 28.3649 127.357 28.353V24.4623C127.357 24.4506 127.362 24.4394 127.37 24.4311C127.379 24.4229 127.39 24.4182 127.402 24.4182H128.332C128.343 24.4182 128.354 24.4226 128.361 24.4305C128.369 24.4383 128.374 24.4489 128.374 24.46V24.8079Z" fill="#CB0033"/>
<path d="M155.063 24.4183C155.252 24.4183 155.426 24.4183 155.584 24.4183C155.592 24.4182 155.6 24.4208 155.606 24.4258C155.612 24.4307 155.616 24.4376 155.618 24.4454L156.185 27.1477C156.186 27.1513 156.188 27.1546 156.191 27.157C156.194 27.1594 156.197 27.1607 156.201 27.1608C156.205 27.1609 156.208 27.1598 156.211 27.1575C156.214 27.1553 156.216 27.1521 156.217 27.1485L156.872 24.464C156.875 24.4503 156.883 24.4381 156.894 24.4294C156.906 24.4207 156.919 24.416 156.934 24.416H157.905C157.911 24.416 157.917 24.4174 157.922 24.42C157.927 24.4227 157.932 24.4264 157.935 24.4311C157.939 24.4358 157.941 24.4412 157.942 24.4469C157.944 24.4526 157.943 24.4584 157.941 24.464L156.817 28.3539C156.814 28.3662 156.806 28.377 156.796 28.3847C156.785 28.3923 156.773 28.3965 156.759 28.3964H155.773C155.759 28.3964 155.746 28.3919 155.736 28.3836C155.725 28.3753 155.718 28.3637 155.715 28.3508C155.502 27.4235 155.291 26.4985 155.081 25.5758C155.079 25.5645 155.073 25.5588 155.064 25.5588C155.055 25.5588 155.05 25.5645 155.047 25.5758C154.839 26.499 154.63 27.4245 154.42 28.3524C154.417 28.3653 154.409 28.3768 154.399 28.3851C154.388 28.3934 154.375 28.398 154.362 28.398L153.375 28.3995C153.362 28.3996 153.349 28.3956 153.339 28.3881C153.329 28.3805 153.321 28.3699 153.317 28.3578L152.184 24.4701C152.183 24.4646 152.182 24.4586 152.183 24.4528C152.184 24.447 152.186 24.4415 152.19 24.4368C152.194 24.432 152.198 24.4281 152.204 24.4255C152.209 24.4228 152.215 24.4214 152.221 24.4214L153.192 24.4199C153.207 24.4198 153.22 24.4245 153.232 24.4332C153.243 24.4419 153.251 24.4541 153.254 24.4678L153.914 27.1508C153.915 27.1544 153.917 27.1576 153.92 27.1598C153.923 27.1621 153.927 27.1632 153.93 27.1632C153.934 27.1631 153.938 27.1617 153.941 27.1593C153.944 27.1569 153.945 27.1537 153.946 27.15L154.508 24.4462C154.51 24.4384 154.514 24.4315 154.52 24.4265C154.526 24.4216 154.534 24.419 154.541 24.4191C154.7 24.4191 154.874 24.4189 155.063 24.4183Z" fill="#CB0033"/>
<path d="M159.52 29.9999H158.666L158.662 29.1772C158.662 29.1715 158.664 29.1658 158.666 29.1605C158.668 29.1552 158.672 29.1505 158.676 29.1466C158.68 29.1426 158.685 29.1396 158.691 29.1377C158.696 29.1358 158.702 29.1351 158.708 29.1355C158.933 29.154 159.099 29.1453 159.205 29.1092C159.44 29.0298 159.566 28.8533 159.584 28.5796C159.585 28.5581 159.582 28.5365 159.574 28.5162L158.049 24.4491C158.048 24.4457 158.048 24.4419 158.048 24.4383C158.049 24.4346 158.05 24.4311 158.052 24.4281C158.054 24.4251 158.057 24.4226 158.06 24.4209C158.064 24.4192 158.067 24.4182 158.071 24.4182H159.194C159.206 24.4182 159.217 24.4221 159.227 24.4292C159.236 24.4363 159.243 24.4463 159.247 24.4576L160.13 27.3216C160.131 27.3263 160.134 27.3305 160.138 27.3334C160.142 27.3363 160.147 27.3379 160.152 27.3378C160.157 27.3377 160.162 27.336 160.166 27.3329C160.169 27.3298 160.172 27.3256 160.173 27.3208L160.998 24.47C161.002 24.4551 161.011 24.4419 161.023 24.4326C161.036 24.4232 161.051 24.4182 161.066 24.4182H162.123C162.126 24.4182 162.13 24.4192 162.133 24.4209C162.137 24.4226 162.139 24.4251 162.142 24.4281C162.144 24.4311 162.145 24.4346 162.146 24.4383C162.146 24.4419 162.146 24.4457 162.144 24.4491C161.882 25.162 161.318 26.7043 160.453 29.0759C160.274 29.5669 160.052 29.9009 159.52 29.9999Z" fill="#CB0033"/>
<path d="M188.319 29.9999H187.462L187.457 29.1772C187.457 29.1719 187.458 29.1666 187.461 29.1617C187.463 29.1568 187.466 29.1524 187.47 29.1487C187.474 29.1451 187.478 29.1423 187.483 29.1406C187.488 29.1388 187.493 29.1381 187.499 29.1386C187.941 29.1672 188.314 29.1185 188.382 28.6004C188.385 28.5771 188.383 28.5535 188.375 28.5316L186.849 24.4638C186.847 24.4587 186.846 24.4532 186.847 24.4478C186.848 24.4424 186.85 24.4373 186.853 24.4328C186.856 24.4284 186.86 24.4247 186.865 24.4221C186.87 24.4196 186.875 24.4183 186.881 24.4182H187.979C187.994 24.4183 188.008 24.423 188.019 24.4316C188.031 24.4402 188.04 24.4523 188.044 24.4662L188.919 27.3046C188.921 27.3102 188.925 27.3152 188.929 27.3187C188.934 27.3222 188.94 27.3241 188.946 27.3241C188.952 27.3241 188.958 27.3222 188.963 27.3187C188.967 27.3152 188.971 27.3102 188.972 27.3046L189.793 24.4638C189.797 24.4506 189.805 24.439 189.816 24.4308C189.828 24.4226 189.841 24.4182 189.855 24.4182H190.893C190.9 24.4182 190.906 24.4197 190.912 24.4226C190.917 24.4256 190.922 24.4298 190.926 24.4349C190.929 24.4401 190.932 24.446 190.933 24.4522C190.934 24.4585 190.933 24.4648 190.931 24.4708C190.484 25.6888 189.923 27.2252 189.246 29.0798C189.078 29.5414 188.854 29.9009 188.319 29.9999Z" fill="#CB0033"/>
</g>
<defs>
<clipPath id="clip0_1269_12365">
<rect width="200" height="30" fill="white"/>
</clipPath>
</defs>
</svg>
