<svg width="200" height="39" viewBox="0 0 200 39" fill="none" xmlns="http://www.w3.org/2000/svg">
<g clip-path="url(#clip0_1282_18541)">
<path fill-rule="evenodd" clip-rule="evenodd" d="M22.3699 7.40869L11.185 15.612L0 23.8903L2.89314 26.7551L2.86633 26.8549L22.3688 7.40869H22.3699Z" fill="#FAE10A"/>
<path fill-rule="evenodd" clip-rule="evenodd" d="M14.7956 18.998L23.0863 7.74609L0.564453 30.3474L4.60368 28.3423L6.50378 30.2465L14.7956 18.998Z" fill="#666667"/>
<path fill-rule="evenodd" clip-rule="evenodd" d="M16.3122 0C8.53314 0 2.20509 6.35056 2.20509 14.1559C2.20286 15.928 2.53462 17.6854 3.18139 19.3341L5.11387 17.867C4.71956 16.6699 4.51849 15.4169 4.5196 14.1559C4.5196 7.63053 9.80992 2.32346 16.3122 2.32346C22.8145 2.32346 28.1049 7.63053 28.1049 14.1559C28.1049 20.6813 22.8145 25.9907 16.3122 25.9907C14.9159 25.9907 13.5777 25.7463 12.3333 25.298L10.9169 27.2381C12.6271 27.9499 14.4602 28.3152 16.3122 28.3141C24.0902 28.3141 30.4205 21.9658 30.4205 14.1571C30.4205 6.34832 24.0902 0 16.3122 0Z" fill="#FAE10A"/>
<path d="M38.1254 20.2612H43.1264V22.1599H35.7695V10.6895H38.1254V20.2612Z" fill="#666667"/>
<path d="M48.2383 22.3178C46.9928 22.3178 45.9785 21.9345 45.1955 21.1678C44.4125 20.4012 44.0215 19.3801 44.0215 18.1035V17.8827C44.0215 17.0264 44.1868 16.2609 44.5163 15.5861C44.8459 14.9114 45.3128 14.3913 45.9182 14.026C46.5225 13.6606 47.2118 13.479 47.987 13.479C49.1487 13.479 50.0636 13.8466 50.7305 14.5819C51.3973 15.3171 51.7313 16.3595 51.7313 17.709V18.6381H46.3215C46.3952 19.1952 46.6164 19.6413 46.985 19.9775C47.3536 20.3138 47.8217 20.4819 48.3869 20.4819C49.2604 20.4819 49.9441 20.1647 50.4356 19.5292L51.5504 20.7811C51.2097 21.2642 50.7494 21.6408 50.1686 21.912C49.5877 22.1822 48.9432 22.3178 48.2372 22.3178H48.2383ZM47.9792 15.3138C47.529 15.3138 47.1637 15.4662 46.8845 15.7733C46.6041 16.0793 46.4254 16.5175 46.3461 17.0869H49.5028V16.9042C49.4928 16.3976 49.3565 16.0064 49.094 15.7296C48.8326 15.4528 48.4606 15.3138 47.9792 15.3138Z" fill="#666667"/>
<path d="M56.9288 22.3178C55.6833 22.3178 54.669 21.9345 53.8859 21.1678C53.1029 20.4012 52.7119 19.3801 52.7119 18.1035V17.8827C52.7119 17.0264 52.8772 16.2609 53.2068 15.5861C53.5363 14.9114 54.0032 14.3913 54.6087 14.026C55.213 13.6606 55.9022 13.479 56.6774 13.479C57.8391 13.479 58.754 13.8466 59.4209 14.5819C60.0878 15.3171 60.4217 16.3595 60.4217 17.709V18.6381H55.0119C55.0856 19.1952 55.3068 19.6413 55.6754 19.9775C56.0441 20.3138 56.5121 20.4819 57.0773 20.4819C57.9508 20.4819 58.6345 20.1647 59.126 19.5292L60.2408 20.7811C59.9001 21.2642 59.4399 21.6408 58.859 21.912C58.2781 22.1822 57.6336 22.3178 56.9276 22.3178H56.9288ZM56.6696 15.3138C56.2194 15.3138 55.8542 15.4662 55.5749 15.7733C55.2945 16.0793 55.1158 16.5175 55.0365 17.0869H58.1932V16.9042C58.1832 16.3976 58.0469 16.0064 57.7844 15.7296C57.523 15.4528 57.151 15.3138 56.6696 15.3138Z" fill="#666667"/>
<path d="M61.3574 17.8347C61.3574 16.5065 61.6546 15.4473 62.2488 14.6605C62.8431 13.8726 63.6552 13.4792 64.6862 13.4792C65.5128 13.4792 66.1965 13.7885 66.7349 14.4083V10.0596H69.0114V22.1599H66.9627L66.8533 21.2543C66.288 21.9627 65.5609 22.318 64.6706 22.318C63.6708 22.318 62.8688 21.9223 62.2645 21.1321C61.6601 20.342 61.3574 19.2424 61.3574 17.8358V17.8347ZM63.6261 18.0051C63.6261 18.8042 63.7646 19.4173 64.0428 19.8432C64.3198 20.2691 64.7231 20.4821 65.2514 20.4821C65.9529 20.4821 66.4478 20.185 66.7349 19.5899V16.2207C66.4523 15.6267 65.963 15.3297 65.2671 15.3297C64.1735 15.3297 63.6261 16.2207 63.6261 18.0039V18.0051Z" fill="#666667"/>
<path d="M75.371 19.8048C75.371 19.5268 75.2336 19.3071 74.9588 19.1468C74.684 18.9866 74.2428 18.8431 73.6362 18.7176C71.6155 18.2917 70.6057 17.4309 70.6057 16.1341C70.6057 15.3775 70.9185 14.7465 71.544 14.2399C72.1696 13.7333 72.9872 13.48 73.997 13.48C75.075 13.48 75.9373 13.7344 76.5841 14.2444C77.2309 14.7544 77.5537 15.4156 77.5537 16.2293H75.285C75.285 15.9043 75.18 15.6342 74.9711 15.4224C74.7622 15.2094 74.4349 15.1029 73.9892 15.1029C73.6072 15.1029 73.3112 15.1892 73.1023 15.363C72.8923 15.5367 72.7884 15.7564 72.7884 16.0242C72.7884 16.2764 72.9079 16.4804 73.1459 16.6351C73.3838 16.7898 73.7859 16.9243 74.3511 17.0363C74.9164 17.1495 75.3922 17.2762 75.7798 17.4185C76.9784 17.8601 77.5783 18.6234 77.5783 19.7106C77.5783 20.4885 77.2454 21.1172 76.5808 21.5969C75.9161 22.0778 75.0571 22.3176 74.006 22.3176C73.2944 22.3176 72.6622 22.1899 72.1104 21.9354C71.5585 21.681 71.1251 21.3313 70.8112 20.8875C70.4973 20.4436 70.3398 19.9639 70.3398 19.4495H72.4913C72.5125 19.8541 72.6611 20.1634 72.9392 20.3786C73.2162 20.5938 73.5882 20.7014 74.054 20.7014C74.4885 20.7014 74.817 20.6185 75.0392 20.4537C75.2615 20.2878 75.3732 20.0715 75.3732 19.8036L75.371 19.8048Z" fill="#666667"/>
<path d="M83.1904 22.1599V10.6895H87.195C88.5824 10.6895 89.6335 10.9562 90.3507 11.4886C91.0678 12.0221 91.4264 12.8033 91.4264 13.8322C91.4264 14.3938 91.2823 14.8892 90.9941 15.3173C90.7059 15.7455 90.306 16.0593 89.7933 16.2588C90.3797 16.4056 90.8411 16.7026 91.1795 17.1487C91.5169 17.5948 91.6855 18.1418 91.6855 18.7874C91.6855 19.8903 91.3348 20.7253 90.6333 21.2924C89.9318 21.8595 88.932 22.1487 87.634 22.1588H83.1904V22.1599ZM85.5463 15.4955H87.2889C88.4774 15.4742 89.0706 14.999 89.0706 14.0698C89.0706 13.5498 88.9198 13.1754 88.6193 12.9479C88.3188 12.7193 87.8429 12.6049 87.1939 12.6049H85.5452V15.4955H85.5463ZM85.5463 17.1655V20.2612H87.5637C88.1188 20.2612 88.5511 20.129 88.8628 19.8634C89.1744 19.5977 89.3297 19.2323 89.3297 18.7649C89.3297 17.7147 88.7879 17.1812 87.7044 17.1655H85.5452H85.5463Z" fill="#666667"/>
<path d="M98.0768 15.7711C97.7674 15.7296 97.496 15.7083 97.2603 15.7083C96.4013 15.7083 95.8394 15.9997 95.5724 16.5825V22.1597H93.3037V13.6359H95.4473L95.5099 14.6525C95.9656 13.8702 96.5956 13.479 97.4021 13.479C97.6535 13.479 97.8892 13.5126 98.1092 13.581L98.078 15.7711H98.0768Z" fill="#666667"/>
<path d="M103.855 22.1595C103.75 21.9544 103.674 21.7 103.627 21.3951C103.078 22.0094 102.363 22.3165 101.484 22.3165C100.651 22.3165 99.9621 22.0744 99.4148 21.5913C98.8674 21.1082 98.5938 20.4985 98.5938 19.7632C98.5938 18.8599 98.9277 18.1672 99.5946 17.683C100.263 17.1999 101.227 16.9556 102.488 16.95H103.532V16.4613C103.532 16.0679 103.432 15.7529 103.229 15.5165C103.028 15.28 102.71 15.1623 102.276 15.1623C101.894 15.1623 101.594 15.2542 101.376 15.438C101.158 15.6218 101.05 15.874 101.05 16.1945H98.7814C98.7814 15.7003 98.9333 15.2441 99.2372 14.8238C99.541 14.4035 99.9699 14.074 100.525 13.8352C101.08 13.5965 101.702 13.4766 102.394 13.4766C103.441 13.4766 104.272 13.74 104.887 14.2679C105.502 14.7958 105.81 15.5377 105.81 16.4938V20.188C105.815 20.9973 105.927 21.6081 106.147 22.0239V22.1573H103.855V22.1595ZM101.98 20.5758C102.315 20.5758 102.623 20.5007 102.906 20.3517C103.188 20.2015 103.397 20.0008 103.533 19.7487V18.2838H102.685C101.549 18.2838 100.945 18.6772 100.871 19.4651L100.864 19.5996C100.864 19.8832 100.963 20.1174 101.162 20.3012C101.361 20.485 101.633 20.5769 101.978 20.5769L101.98 20.5758Z" fill="#666667"/>
<path d="M107.2 17.8347C107.2 16.5065 107.497 15.4473 108.092 14.6605C108.686 13.8726 109.498 13.4792 110.529 13.4792C111.356 13.4792 112.039 13.7885 112.579 14.4083V10.0596H114.855V22.1599H112.807L112.697 21.2543C112.132 21.9627 111.405 22.318 110.514 22.318C109.515 22.318 108.713 21.9223 108.108 21.1321C107.504 20.342 107.201 19.2424 107.201 17.8358L107.2 17.8347ZM109.469 18.0051C109.469 18.8042 109.607 19.4173 109.886 19.8432C110.163 20.2691 110.566 20.4821 111.094 20.4821C111.796 20.4821 112.291 20.185 112.579 19.5899V16.2207C112.296 15.6267 111.807 15.3297 111.111 15.3297C110.017 15.3297 109.47 16.2207 109.47 18.0039L109.469 18.0051Z" fill="#666667"/>
<path d="M117.234 22.1596V15.3058H115.97V13.6358H117.234V12.9107C117.234 11.9546 117.508 11.2126 118.054 10.6858C118.601 10.1579 119.367 9.89453 120.351 9.89453C120.665 9.89453 121.05 9.94721 121.505 10.0526L121.481 11.8167C121.292 11.7697 121.062 11.7461 120.79 11.7461C119.936 11.7461 119.51 12.1485 119.51 12.951V13.6358H121.197V15.3058H119.51V22.1596H117.233H117.234Z" fill="#666667"/>
<path d="M122.022 17.819C122.022 16.9739 122.184 16.2195 122.509 15.5583C122.833 14.897 123.301 14.3848 123.911 14.0216C124.521 13.6596 125.228 13.478 126.035 13.478C127.181 13.478 128.117 13.83 128.842 14.5338C129.567 15.2377 129.971 16.1938 130.055 17.4009L130.071 17.9837C130.071 19.2917 129.707 20.3408 128.979 21.131C128.252 21.9212 127.276 22.3168 126.051 22.3168C124.825 22.3168 123.849 21.9234 123.118 21.1355C122.388 20.3475 122.022 19.276 122.022 17.921V17.819ZM124.291 17.9815C124.291 18.7918 124.443 19.4105 124.747 19.8398C125.051 20.2679 125.485 20.4831 126.051 20.4831C126.616 20.4831 127.029 20.2713 127.338 19.8476C127.647 19.424 127.802 18.747 127.802 17.8167C127.802 17.0221 127.648 16.4067 127.338 15.9707C127.03 15.5347 126.596 15.3162 126.035 15.3162C125.474 15.3162 125.051 15.5336 124.747 15.9674C124.443 16.4011 124.291 17.0736 124.291 17.9826V17.9815Z" fill="#666667"/>
<path d="M136.241 15.7711C135.933 15.7296 135.66 15.7083 135.424 15.7083C134.566 15.7083 134.003 15.9997 133.736 16.5825V22.1597H131.468V13.6359H133.611L133.674 14.6525C134.13 13.8702 134.76 13.479 135.566 13.479C135.818 13.479 136.053 13.5126 136.273 13.581L136.242 15.7711H136.241Z" fill="#666667"/>
<path d="M136.979 17.8347C136.979 16.5065 137.276 15.4473 137.87 14.6605C138.464 13.8726 139.276 13.4792 140.307 13.4792C141.134 13.4792 141.818 13.7885 142.356 14.4083V10.0596H144.633V22.1599H142.584L142.474 21.2543C141.909 21.9627 141.181 22.318 140.292 22.318C139.292 22.318 138.49 21.9223 137.886 21.1321C137.281 20.342 136.979 19.2424 136.979 17.8358V17.8347ZM139.248 18.0051C139.248 18.8042 139.387 19.4173 139.665 19.8432C139.942 20.2691 140.345 20.4821 140.874 20.4821C141.575 20.4821 142.069 20.185 142.357 19.5899V16.2207C142.074 15.6267 141.585 15.3297 140.889 15.3297C139.796 15.3297 139.248 16.2207 139.248 18.0039V18.0051Z" fill="#666667"/>
<path d="M156.999 19.7961H152.87L152.084 22.1599H149.58L153.835 10.6895H156.018L160.297 22.1599H157.793L156.999 19.7961ZM153.505 17.8829H156.363L154.926 13.5901L153.505 17.8829Z" fill="#666667"/>
<path d="M161.199 11.4303C161.199 11.0885 161.313 10.8083 161.541 10.5875C161.769 10.3667 162.078 10.2568 162.472 10.2568C162.865 10.2568 163.168 10.3667 163.398 10.5875C163.628 10.8083 163.743 11.0885 163.743 11.4303C163.743 11.7722 163.627 12.0602 163.393 12.281C163.16 12.5018 162.853 12.6117 162.471 12.6117C162.089 12.6117 161.781 12.5018 161.548 12.281C161.314 12.0602 161.198 11.7767 161.198 11.4303H161.199ZM163.61 22.1599H161.333V13.6361H163.61V22.1599Z" fill="#666667"/>
<path d="M170.252 15.7711C169.943 15.7296 169.671 15.7083 169.435 15.7083C168.577 15.7083 168.014 15.9997 167.747 16.5825V22.1597H165.479V13.6359H167.622L167.685 14.6525C168.14 13.8702 168.77 13.479 169.577 13.479C169.828 13.479 170.064 13.5126 170.284 13.581L170.253 15.7711H170.252Z" fill="#666667"/>
<path d="M178.991 17.977C178.991 19.2895 178.694 20.3419 178.099 21.1321C177.505 21.9223 176.703 22.3179 175.693 22.3179C174.835 22.3179 174.142 22.0187 173.613 21.4201V25.4372H171.345V13.6361H173.449L173.527 14.4711C174.077 13.8098 174.794 13.478 175.679 13.478C176.726 13.478 177.54 13.867 178.121 14.6437C178.702 15.4204 178.992 16.4919 178.992 17.8582V17.9759L178.991 17.977ZM176.722 17.8111C176.722 17.0176 176.583 16.4067 176.302 15.9752C176.022 15.5448 175.615 15.3296 175.081 15.3296C174.37 15.3296 173.88 15.6031 173.613 16.1489V19.6392C173.89 20.2007 174.385 20.482 175.097 20.482C176.18 20.482 176.722 19.5921 176.722 17.8111Z" fill="#666667"/>
<path d="M180.043 17.819C180.043 16.9739 180.205 16.2195 180.53 15.5583C180.854 14.897 181.322 14.3848 181.932 14.0216C182.542 13.6596 183.249 13.478 184.055 13.478C185.201 13.478 186.138 13.83 186.863 14.5338C187.587 15.2377 187.992 16.1938 188.076 17.4009L188.091 17.9837C188.091 19.2917 187.727 20.3408 187 21.131C186.273 21.9212 185.296 22.3168 184.071 22.3168C182.846 22.3168 181.869 21.9234 181.139 21.1355C180.408 20.3475 180.043 19.276 180.043 17.921V17.819ZM182.312 17.9815C182.312 18.7918 182.464 19.4105 182.767 19.8398C183.071 20.2679 183.506 20.4831 184.071 20.4831C184.636 20.4831 185.05 20.2713 185.359 19.8476C185.667 19.424 185.823 18.747 185.823 17.8167C185.823 17.0221 185.668 16.4067 185.359 15.9707C185.051 15.5347 184.616 15.3162 184.055 15.3162C183.495 15.3162 183.071 15.5336 182.767 15.9674C182.464 16.4011 182.312 17.0736 182.312 17.9826V17.9815Z" fill="#666667"/>
<path d="M194.26 15.7711C193.952 15.7296 193.68 15.7083 193.444 15.7083C192.586 15.7083 192.023 15.9997 191.756 16.5825V22.1597H189.487V13.6359H191.631L191.693 14.6525C192.149 13.8702 192.779 13.479 193.586 13.479C193.837 13.479 194.073 13.5126 194.293 13.581L194.262 15.7711H194.26Z" fill="#666667"/>
<path d="M198.462 11.541V13.6358H199.914V15.3058H198.462V19.5594C198.462 19.8743 198.522 20.1007 198.643 20.2363C198.764 20.3731 198.994 20.4414 199.334 20.4414C199.586 20.4414 199.808 20.4235 200.001 20.3865V22.1115C199.557 22.2482 199.099 22.3166 198.627 22.3166C197.035 22.3166 196.224 21.5107 196.193 19.8978V15.3058H194.952V13.6358H196.193V11.541H198.462Z" fill="#666667"/>
<path d="M41.0494 34.6006H37.0013V38.8608H35.7021V29.2285H41.7219V30.2541H37.0013V33.575H41.0494V34.6006Z" fill="#666667"/>
<path d="M45.9089 32.8545L45.2432 32.8153C44.9002 32.8153 44.6109 32.8971 44.3763 33.0596C44.1406 33.2232 43.9597 33.4519 43.8323 33.7478V38.8621H42.5332V31.7034H43.6938L43.8189 32.7491C44.0211 32.3781 44.2702 32.0901 44.5673 31.8827C44.8645 31.6754 45.2063 31.5723 45.5928 31.5723C45.6889 31.5723 45.7816 31.5801 45.8698 31.5958C45.9581 31.6115 46.0307 31.6283 46.0876 31.6451L45.91 32.8556L45.9089 32.8545Z" fill="#666667"/>
<path d="M46.5548 35.2162C46.5548 34.1581 46.8408 33.285 47.4116 32.6002C47.9835 31.9143 48.7588 31.5713 49.7395 31.5713C50.7203 31.5713 51.51 31.9131 52.0831 32.5968C52.6572 33.2805 52.9432 34.1537 52.9432 35.2173V35.363C52.9432 36.43 52.6572 37.3043 52.0864 37.9824C51.5145 38.6616 50.737 39.0012 49.7518 39.0012C48.7666 39.0012 47.988 38.6605 47.4138 37.979C46.8397 37.2976 46.5537 36.4256 46.5537 35.363V35.2173L46.5548 35.2162ZM47.8539 35.3619C47.8539 36.1207 48.0137 36.7472 48.332 37.2404C48.6504 37.7347 49.124 37.9813 49.7529 37.9813C50.3818 37.9813 50.8432 37.7347 51.1638 37.2404C51.4843 36.7461 51.6452 36.1207 51.6452 35.3619V35.2162C51.6452 34.4664 51.4832 33.8421 51.1604 33.3444C50.8376 32.8468 50.3639 32.5968 49.7395 32.5968C49.1151 32.5968 48.6504 32.8457 48.332 33.3444C48.0137 33.8432 47.8539 34.4664 47.8539 35.2162V35.3619Z" fill="#666667"/>
<path d="M55.424 31.7037L55.5167 32.6429C55.7502 32.3033 56.0451 32.0399 56.4036 31.8528C56.7622 31.6656 57.1789 31.5714 57.6536 31.5714C58.1284 31.5714 58.5361 31.6813 58.8768 31.9021C59.2175 32.1229 59.4733 32.4535 59.6453 32.894C59.8743 32.4838 60.1714 32.161 60.5389 31.9245C60.9053 31.6891 61.3354 31.5703 61.828 31.5703C62.553 31.5703 63.1271 31.8203 63.5494 32.3213C63.9716 32.8223 64.1827 33.5755 64.1827 34.5808V38.8612H62.8836V34.5674C62.8836 33.8613 62.763 33.3625 62.5206 33.0688C62.2793 32.7752 61.9185 32.6295 61.4393 32.6295C60.9947 32.6295 60.6361 32.7842 60.3613 33.0924C60.0865 33.4006 59.9246 33.7918 59.8765 34.2636V38.8612H58.5707V34.5674C58.5707 33.8971 58.4467 33.4062 58.1987 33.0957C57.9508 32.7853 57.5933 32.6295 57.1275 32.6295C56.7321 32.6295 56.407 32.7113 56.1512 32.8738C55.8965 33.0375 55.701 33.2661 55.5647 33.562V38.8612H54.2656V31.7026H55.4262L55.424 31.7037Z" fill="#666667"/>
<path d="M70.6888 29.9761V31.7033H72.0404V32.6694H70.6888V37.0159C70.6888 37.3511 70.758 37.5876 70.8966 37.7243C71.0351 37.861 71.2183 37.9294 71.4473 37.9294C71.5221 37.9294 71.6059 37.9193 71.6975 37.8991C71.7902 37.879 71.8661 37.8588 71.9287 37.8364L72.1063 38.7297C72.0091 38.8092 71.8661 38.8743 71.6774 38.9247C71.4886 38.9751 71.302 39.0009 71.1166 39.0009C70.5894 39.0009 70.1694 38.8406 69.8577 38.5212C69.546 38.2018 69.3897 37.6996 69.3897 37.0159V32.6694H68.2559V31.7033H69.3897V29.9761H70.6888Z" fill="#666667"/>
<path d="M74.4601 32.6618C74.7059 32.3177 75.0086 32.0498 75.3672 31.8581C75.7257 31.6665 76.1223 31.5701 76.5568 31.5701C77.3175 31.5701 77.9095 31.7999 78.334 32.2583C78.7585 32.7167 78.9707 33.4228 78.9707 34.3755V38.861H77.6716V34.3621C77.6716 33.7714 77.5454 33.3343 77.2929 33.0518C77.0405 32.7694 76.6629 32.6282 76.1625 32.6282C75.776 32.6282 75.4398 32.7044 75.1538 32.8568C74.8678 33.0092 74.6377 33.2222 74.4612 33.4957V38.861H73.1621V28.5405H74.4612V32.6618H74.4601Z" fill="#666667"/>
<path d="M83.52 39.0002C82.4957 39.0002 81.697 38.6718 81.1228 38.015C80.5487 37.3582 80.2627 36.4929 80.2627 35.4214V35.13C80.2627 34.1022 80.5587 33.2527 81.1496 32.579C81.7405 31.9066 82.4633 31.5703 83.3156 31.5703C84.2695 31.5703 84.9844 31.8685 85.4614 32.4636C85.9384 33.0588 86.1763 33.8512 86.1763 34.8386V35.5268H81.6132L81.5931 35.5604C81.5931 36.2789 81.7517 36.8628 82.0678 37.31C82.384 37.7572 82.8676 37.9814 83.5189 37.9814C83.9579 37.9814 84.3444 37.9186 84.6761 37.7931C85.0079 37.6676 85.2927 37.4938 85.5296 37.2742L86.0367 38.1215C85.782 38.3681 85.4458 38.5765 85.028 38.7469C84.6102 38.9162 84.1076 39.0013 83.5178 39.0013L83.52 39.0002ZM83.3156 32.5959C82.8632 32.5959 82.4878 32.7707 82.1918 33.1215C81.8947 33.4723 81.7137 33.9207 81.6478 34.4676L81.6612 34.5013H84.8794V34.3959C84.8794 33.8758 84.7521 33.4454 84.4974 33.1058C84.2427 32.7662 83.8495 32.5959 83.3167 32.5959H83.3156Z" fill="#666667"/>
<path d="M91.7492 32.6618C91.9949 32.3177 92.2976 32.0498 92.6562 31.8581C93.0148 31.6665 93.4113 31.5701 93.8459 31.5701C94.6066 31.5701 95.1986 31.7999 95.6231 32.2583C96.0476 32.7167 96.2598 33.4228 96.2598 34.3755V38.861H94.9607V34.3621C94.9607 33.7714 94.8344 33.3343 94.582 33.0518C94.3295 32.7694 93.952 32.6282 93.4516 32.6282C93.0651 32.6282 92.7288 32.7044 92.4429 32.8568C92.1569 33.0092 91.9268 33.2222 91.7503 33.4957V38.861H90.4512V28.5405H91.7503V32.6618H91.7492Z" fill="#666667"/>
<path d="M100.809 39.0002C99.7847 39.0002 98.986 38.6718 98.4119 38.015C97.8377 37.3582 97.5518 36.4929 97.5518 35.4214V35.13C97.5518 34.1022 97.8478 33.2527 98.4387 32.579C99.0296 31.9066 99.7523 31.5703 100.605 31.5703C101.559 31.5703 102.274 31.8685 102.75 32.4636C103.227 33.0588 103.465 33.8512 103.465 34.8386V35.5268H98.9023L98.8822 35.5604C98.8822 36.2789 99.0408 36.8628 99.3569 37.31C99.673 37.7572 100.157 37.9814 100.808 37.9814C101.247 37.9814 101.633 37.9186 101.965 37.7931C102.297 37.6676 102.582 37.4938 102.819 37.2742L103.326 38.1215C103.071 38.3681 102.735 38.5765 102.317 38.7469C101.899 38.9162 101.397 39.0013 100.807 39.0013L100.809 39.0002ZM100.605 32.5959C100.152 32.5959 99.7769 32.7707 99.4809 33.1215C99.1838 33.4723 99.0028 33.9207 98.9369 34.4676L98.9503 34.5013H102.169V34.3959C102.169 33.8758 102.041 33.4454 101.786 33.1058C101.532 32.7662 101.139 32.5959 100.606 32.5959H100.605Z" fill="#666667"/>
<path d="M109.038 38.8612C108.994 38.6449 108.96 38.4544 108.936 38.2885C108.913 38.1226 108.898 37.9567 108.894 37.7886C108.653 38.1327 108.336 38.4208 107.948 38.6516C107.559 38.8837 107.14 38.9991 106.692 38.9991C105.949 38.9991 105.383 38.8086 104.994 38.4264C104.605 38.0453 104.411 37.5185 104.411 36.8482C104.411 36.178 104.687 35.6299 105.239 35.2444C105.791 34.8588 106.539 34.6649 107.484 34.6649H108.895V33.9577C108.895 33.5385 108.768 33.2067 108.513 32.9624C108.258 32.718 107.897 32.5947 107.432 32.5947C107.009 32.5947 106.669 32.7012 106.41 32.9119C106.15 33.1238 106.021 33.3771 106.021 33.673L104.788 33.6864L104.774 33.6472C104.743 33.1271 104.986 32.6508 105.502 32.2181C106.019 31.7855 106.687 31.5703 107.503 31.5703C108.32 31.5703 108.962 31.7765 109.455 32.189C109.947 32.6015 110.193 33.1955 110.193 33.9722V37.4187C110.193 37.6743 110.206 37.922 110.232 38.1596C110.258 38.3972 110.307 38.6315 110.377 38.8612H109.039H109.038ZM106.882 37.9085C107.352 37.9085 107.777 37.7875 108.154 37.5443C108.532 37.3022 108.779 37.0242 108.893 36.7104V35.5459H107.436C106.913 35.5459 106.494 35.6781 106.181 35.9426C105.867 36.2071 105.709 36.5176 105.709 36.8751C105.709 37.1923 105.809 37.4445 106.006 37.6295C106.204 37.8144 106.497 37.9074 106.883 37.9074L106.882 37.9085Z" fill="#666667"/>
<path d="M115.183 32.8545L114.518 32.8153C114.175 32.8153 113.885 32.8971 113.651 33.0596C113.415 33.2232 113.234 33.4519 113.107 33.7478V38.8621H111.808V31.7034H112.968L113.093 32.7491C113.296 32.3781 113.545 32.0901 113.842 31.8827C114.139 31.6754 114.481 31.5723 114.867 31.5723C114.963 31.5723 115.056 31.5801 115.144 31.5958C115.232 31.6115 115.305 31.6283 115.362 31.6451L115.184 32.8556L115.183 32.8545Z" fill="#666667"/>
<path d="M118.183 29.9761V31.7033H119.535V32.6694H118.183V37.0159C118.183 37.3511 118.252 37.5876 118.391 37.7243C118.529 37.861 118.712 37.9294 118.941 37.9294C119.016 37.9294 119.1 37.9193 119.192 37.8991C119.284 37.879 119.36 37.8588 119.423 37.8364L119.6 38.7297C119.503 38.8092 119.36 38.8743 119.172 38.9247C118.983 38.9751 118.796 39.0009 118.611 39.0009C118.084 39.0009 117.664 38.8406 117.352 38.5212C117.04 38.2018 116.884 37.6996 116.884 37.0159V32.6694H115.75V31.7033H116.884V29.9761H118.183Z" fill="#666667"/>
<path d="M123.438 35.2162C123.438 34.1581 123.724 33.285 124.295 32.6002C124.866 31.9143 125.642 31.5713 126.623 31.5713C127.604 31.5713 128.394 31.9131 128.967 32.5968C129.54 33.2805 129.827 34.1537 129.827 35.2173V35.363C129.827 36.43 129.541 37.3043 128.97 37.9824C128.398 38.6616 127.621 39.0012 126.635 39.0012C125.65 39.0012 124.872 38.6605 124.299 37.979C123.726 37.2976 123.438 36.4256 123.438 35.363V35.2173V35.2162ZM124.738 35.3619C124.738 36.1207 124.896 36.7472 125.216 37.2404C125.534 37.7347 126.008 37.9813 126.637 37.9813C127.265 37.9813 127.727 37.7347 128.047 37.2404C128.368 36.7461 128.529 36.1207 128.529 35.3619V35.2162C128.529 34.4664 128.367 33.8421 128.044 33.3444C127.721 32.8457 127.248 32.5968 126.623 32.5968C125.999 32.5968 125.534 32.8457 125.216 33.3444C124.897 33.8432 124.738 34.4664 124.738 35.2162V35.3619Z" fill="#666667"/>
<path d="M131.688 38.861V32.6685H130.573V31.7023H131.688V30.7956C131.688 30.0323 131.887 29.4428 132.285 29.0258C132.682 28.6089 133.237 28.4004 133.949 28.4004C134.099 28.4004 134.249 28.4127 134.4 28.4374C134.552 28.462 134.72 28.4957 134.905 28.5394L134.747 29.5313C134.667 29.5134 134.572 29.4977 134.459 29.4853C134.348 29.4719 134.229 29.4652 134.106 29.4652C133.729 29.4652 133.447 29.5784 133.262 29.8059C133.078 30.0334 132.985 30.3629 132.985 30.7945V31.7012H134.277V32.6673H132.985V38.8599H131.686L131.688 38.861Z" fill="#666667"/>
<path d="M141.717 34.1244L144.223 29.2287H145.706L142.337 35.4739V38.861H141.045V35.3741L137.729 29.2275H139.212L141.717 34.1233V34.1244Z" fill="#666667"/>
<path d="M145.944 35.2162C145.944 34.1581 146.23 33.285 146.801 32.6002C147.372 31.9143 148.148 31.5713 149.129 31.5713C150.11 31.5713 150.9 31.9131 151.473 32.5968C152.046 33.2805 152.333 34.1537 152.333 35.2173V35.363C152.333 36.43 152.047 37.3043 151.476 37.9824C150.904 38.6616 150.127 39.0012 149.141 39.0012C148.156 39.0012 147.377 38.6605 146.804 37.979C146.231 37.2976 145.944 36.4256 145.944 35.363V35.2173V35.2162ZM147.243 35.3619C147.243 36.1207 147.402 36.7472 147.722 37.2404C148.04 37.7347 148.514 37.9813 149.142 37.9813C149.771 37.9813 150.233 37.7347 150.553 37.2404C150.874 36.7461 151.035 36.1207 151.035 35.3619V35.2162C151.035 34.4664 150.873 33.8421 150.55 33.3444C150.227 32.8457 149.753 32.5968 149.129 32.5968C148.505 32.5968 148.04 32.8457 147.722 33.3444C147.403 33.8432 147.243 34.4664 147.243 35.2162V35.3619Z" fill="#666667"/>
<path d="M157.027 32.8545L156.361 32.8153C156.018 32.8153 155.729 32.8971 155.494 33.0596C155.259 33.2232 155.078 33.4519 154.95 33.7478V38.8621H153.651V31.7034H154.812L154.937 32.7491C155.139 32.3781 155.388 32.0901 155.685 31.8827C155.983 31.6754 156.324 31.5723 156.711 31.5723C156.807 31.5723 156.9 31.5801 156.988 31.5958C157.076 31.6115 157.149 31.6283 157.206 31.6451L157.028 32.8556L157.027 32.8545Z" fill="#666667"/>
<path d="M160.081 35.5602H159.415V38.861H158.116V28.5405H159.415V34.5212H160.068L162.21 31.7035H163.766L161.175 35.0043L163.99 38.861H162.454L160.08 35.5602H160.081Z" fill="#666667"/>
<path d="M168.909 36.9368C168.909 36.6499 168.801 36.4167 168.583 36.2352C168.365 36.0547 167.953 35.8956 167.346 35.7588C166.506 35.5784 165.862 35.3239 165.412 34.9978C164.961 34.6716 164.736 34.2345 164.736 33.6875C164.736 33.1058 164.983 32.6071 165.478 32.1924C165.972 31.7777 166.612 31.5703 167.4 31.5703C168.187 31.5703 168.863 31.7911 169.365 32.2316C169.866 32.6721 170.105 33.1865 170.083 33.7727L170.07 33.8119H168.83C168.83 33.5037 168.695 33.2235 168.424 32.9713C168.154 32.7203 167.812 32.5947 167.399 32.5947C166.942 32.5947 166.6 32.6979 166.373 32.9052C166.147 33.1126 166.034 33.3591 166.034 33.6461C166.034 33.933 166.132 34.1471 166.328 34.3006C166.523 34.4553 166.926 34.5965 167.537 34.7243C168.412 34.9092 169.076 35.1726 169.529 35.5111C169.981 35.8507 170.208 36.2946 170.208 36.8404C170.208 37.4759 169.952 37.9937 169.44 38.395C168.928 38.7962 168.258 38.9969 167.432 38.9969C166.522 38.9969 165.806 38.7648 165.283 38.3019C164.76 37.8391 164.511 37.2988 164.538 36.6812L164.551 36.642H165.791C165.814 37.1049 165.985 37.4434 166.305 37.6575C166.626 37.8716 167.002 37.978 167.432 37.978C167.894 37.978 168.256 37.8805 168.517 37.6833C168.778 37.4871 168.909 37.236 168.909 36.9323V36.9368Z" fill="#666667"/>
<path d="M172.853 32.6618C173.098 32.3177 173.401 32.0498 173.76 31.8581C174.118 31.6665 174.515 31.5701 174.949 31.5701C175.71 31.5701 176.302 31.7999 176.727 32.2583C177.151 32.7167 177.363 33.4228 177.363 34.3755V38.861H176.064V34.3621C176.064 33.7714 175.938 33.3343 175.686 33.0518C175.433 32.7694 175.056 32.6282 174.555 32.6282C174.169 32.6282 173.832 32.7044 173.546 32.8568C173.26 33.0092 173.03 33.2222 172.854 33.4957V38.861H171.555V28.5405H172.854V32.6618H172.853Z" fill="#666667"/>
<path d="M180.364 29.8698H179.064V28.5405H180.364V29.8698ZM180.364 38.861H179.064V31.7024H180.364V38.861Z" fill="#666667"/>
<path d="M185.468 32.8545L184.802 32.8153C184.459 32.8153 184.169 32.8971 183.935 33.0596C183.699 33.2232 183.518 33.4519 183.391 33.7478V38.8621H182.092V31.7034H183.252L183.378 32.7491C183.58 32.3781 183.829 32.0901 184.126 31.8827C184.423 31.6754 184.765 31.5723 185.151 31.5723C185.247 31.5723 185.34 31.5801 185.428 31.5958C185.517 31.6115 185.589 31.6283 185.646 31.6451L185.469 32.8556L185.468 32.8545Z" fill="#666667"/>
<path d="M189.376 39.0002C188.352 39.0002 187.553 38.6718 186.979 38.015C186.406 37.3582 186.119 36.4929 186.119 35.4214V35.13C186.119 34.1022 186.415 33.2527 187.006 32.579C187.597 31.9066 188.32 31.5703 189.172 31.5703C190.126 31.5703 190.841 31.8685 191.318 32.4636C191.795 33.0588 192.033 33.8512 192.033 34.8386V35.5268H187.47L187.45 35.5604C187.45 36.2789 187.608 36.8628 187.924 37.31C188.24 37.7572 188.724 37.9814 189.375 37.9814C189.814 37.9814 190.201 37.9186 190.533 37.7931C190.864 37.6676 191.149 37.4938 191.386 37.2742L191.894 38.1215C191.64 38.3681 191.303 38.5765 190.886 38.7469C190.468 38.9162 189.965 39.0013 189.375 39.0013L189.376 39.0002ZM189.172 32.5959C188.72 32.5959 188.344 32.7707 188.048 33.1215C187.751 33.4723 187.57 33.9207 187.504 34.4676L187.518 34.5013H190.736V34.3959C190.736 33.8758 190.609 33.4454 190.354 33.1058C190.099 32.7662 189.706 32.5959 189.173 32.5959H189.172Z" fill="#666667"/>
</g>
<defs>
<clipPath id="clip0_1282_18541">
<rect width="200" height="39" fill="white"/>
</clipPath>
</defs>
</svg>
