<svg width="200" height="67" viewBox="0 0 200 67" fill="none" xmlns="http://www.w3.org/2000/svg">
<path fill-rule="evenodd" clip-rule="evenodd" d="M87.5761 37.5497C89.4416 35.3847 89.7387 33.1114 89.6849 30.3511H79.3816L80.6562 32.4616H87.2515C87.2515 36.2505 83.5211 38.8488 79.9795 38.8488C77.8438 38.8488 75.6812 37.7387 74.1947 36.2506C72.6806 34.7079 71.8157 32.6513 71.8157 30.4863C71.8157 25.8853 75.4924 21.9611 80.1421 21.9611C83.1427 21.9611 85.4404 23.3954 87.1433 25.8045L88.7925 24.2619C86.6299 21.4471 83.7375 19.8506 80.169 19.8506C74.3029 19.8506 69.5449 24.6137 69.5449 30.4594C69.5449 36.1967 74.3029 40.9599 80.0339 40.9599C82.8725 40.9599 85.7106 39.7146 87.5761 37.5497Z" fill="#18264D"/>
<path fill-rule="evenodd" clip-rule="evenodd" d="M52.0656 60.7371L54.4715 66.5283H56.9856L47.8211 45.1492L38.4141 66.5283H40.9006L43.3609 60.7371H52.0656ZM51.1732 58.626H44.2802L47.7673 50.4533L51.1732 58.626ZM59.7967 66.5289H62.0674V46.1233H59.7967V66.5289ZM68.4745 48.2338H69.1506C71.8804 48.2338 74.3407 48.5588 74.3407 51.9145C74.3407 55.0812 71.7453 55.5683 69.1775 55.5683H68.4745V48.2338ZM68.4745 57.5711H69.0424L75.2056 66.5283H77.9904L71.502 57.3814C74.6383 57.1109 76.6114 54.8915 76.6114 51.7524C76.6114 47.1513 73.0161 46.1233 69.1506 46.1233H66.2038V66.5283H68.4745V57.5711ZM83.1261 57.598H84.7752C86.4782 57.598 88.2355 57.3814 89.6145 56.2444C90.8846 55.1895 91.5607 53.5116 91.5607 51.8607C91.5607 50.0476 90.7765 48.2614 89.263 47.2058C87.7759 46.1772 85.9647 46.1233 84.2074 46.1233H80.8553V66.5283H83.1261V57.598ZM83.1261 48.2338H83.9641C86.6139 48.2338 89.2899 48.4774 89.2899 51.8062C89.2899 54.7293 87.1542 55.4869 84.6402 55.4869H83.1261V48.2338ZM104.591 45.7715C98.7783 45.7715 93.9666 50.5071 93.9666 56.3527C93.9666 62.2253 98.7783 66.8801 104.591 66.8801C110.402 66.8801 115.215 62.2253 115.215 56.3527C115.215 50.5071 110.402 45.7715 104.591 45.7715ZM104.591 47.882C109.267 47.882 112.944 51.6979 112.944 56.3258C112.944 60.9268 109.213 64.7696 104.591 64.7696C99.9678 64.7696 96.2373 60.9268 96.2373 56.3258C96.2373 51.6979 99.914 47.882 104.591 47.882ZM120.567 48.2338H121.243C123.973 48.2338 126.434 48.5588 126.434 51.9145C126.434 55.0812 123.838 55.5683 121.27 55.5683H120.567V48.2338ZM120.567 57.5711H121.135L127.298 66.5283H130.083L123.595 57.3814C126.731 57.1109 128.704 54.8915 128.704 51.7524C128.704 47.1513 125.109 46.1233 121.243 46.1233H118.297V66.5283H120.567V57.5711ZM137.814 48.2338H142.789V46.1233H130.624V48.2338H135.544V66.5283H137.814V48.2338Z" fill="#18264D"/>
<path fill-rule="evenodd" clip-rule="evenodd" d="M142.789 20.2023H140.329L134.977 35.4928L128.38 19.1467L121.784 35.4928L116.431 20.2023H113.971L121.784 41.6634L128.38 25.2359L134.977 41.6634L142.789 20.2023ZM113.674 30.4323C113.674 24.5867 108.862 19.8504 103.05 19.8504C97.2377 19.8504 92.4259 24.5867 92.4259 30.4323C92.4259 36.3049 97.2377 40.9597 103.05 40.9597C108.862 40.9597 113.674 36.3049 113.674 30.4323ZM111.403 30.4048C111.403 35.0058 107.673 38.8486 103.05 38.8486C98.4271 38.8486 94.6967 35.0058 94.6967 30.4048C94.6967 25.7775 98.3734 21.9615 103.05 21.9615C107.727 21.9615 111.403 25.7775 111.403 30.4048ZM57.9859 25.1276C57.9859 23.2606 59.5537 21.9615 61.3655 21.9615C63.0953 21.9615 64.0684 22.7729 64.8795 24.1803L66.6906 23.0171C65.6093 21.0143 63.69 19.8504 61.4192 19.8504C58.3917 19.8504 55.7151 21.8802 55.7151 25.0468C55.7151 27.9693 57.7695 29.1871 60.1485 30.2695L61.3924 30.8111C63.2848 31.6769 65.1497 32.489 65.1497 34.8705C65.1497 37.1707 63.1497 38.8486 60.9596 38.8486C58.7701 38.8486 57.1747 37.1438 56.8777 35.0596L54.6607 35.6825C55.3098 38.8486 57.7426 40.9597 61.014 40.9597C64.5549 40.9597 67.4205 38.2263 67.4205 34.6539C67.4205 31.4065 65.1772 30.0805 62.5274 28.9166L61.176 28.3212C59.797 27.6989 57.9859 26.8869 57.9859 25.1276ZM50.363 40.6079H52.8771L43.7127 19.2281L34.305 40.6079H36.7921L39.2524 34.8161H47.9572L50.363 40.6079ZM47.0647 32.7056H40.1717L43.6589 24.5322L47.0647 32.7056ZM23.357 40.6079H31.2506V38.4967H25.6277V20.2023H23.357V40.6079ZM18.0312 37.5495C19.8967 35.3845 20.1937 33.1113 20.14 30.3509H9.83734L11.1112 32.462H17.7072C17.7072 36.2504 13.9761 38.8486 10.4352 38.8486C8.29951 38.8486 6.13692 37.7392 4.64975 36.2504C3.13632 34.7078 2.27078 32.6511 2.27078 30.4861C2.27078 25.8858 5.94743 21.9615 10.5972 21.9615C13.5978 21.9615 15.8955 23.3959 17.599 25.8044L19.2482 24.2617C17.0849 21.4469 14.1925 19.8504 10.6241 19.8504C4.75794 19.8504 0 24.6136 0 30.4592C0 36.1966 4.75794 40.9597 10.489 40.9597C13.3276 40.9597 16.1663 39.7145 18.0312 37.5495Z" fill="#18264D"/>
<path fill-rule="evenodd" clip-rule="evenodd" d="M52.0656 60.7371L54.4715 66.5283H56.9856L47.8211 45.1492L38.4141 66.5283H40.9006L43.3609 60.7371H52.0656ZM51.1732 58.626H44.2802L47.7673 50.4533L51.1732 58.626ZM59.7967 66.5289H62.0674V46.1233H59.7967V66.5289ZM68.4745 48.2338H69.1506C71.8804 48.2338 74.3407 48.5588 74.3407 51.9145C74.3407 55.0812 71.7453 55.5683 69.1775 55.5683H68.4745V48.2338ZM68.4745 57.5711H69.0424L75.2056 66.5283H77.9904L71.502 57.3814C74.6383 57.1109 76.6114 54.8915 76.6114 51.7524C76.6114 47.1513 73.0161 46.1233 69.1506 46.1233H66.2038V66.5283H68.4745V57.5711ZM83.1261 57.598H84.7752C86.4782 57.598 88.2355 57.3814 89.6145 56.2444C90.8846 55.1895 91.5607 53.5116 91.5607 51.8607C91.5607 50.0476 90.7765 48.2614 89.263 47.2058C87.7759 46.1772 85.9647 46.1233 84.2074 46.1233H80.8553V66.5283H83.1261V57.598ZM83.1261 48.2338H83.9641C86.6139 48.2338 89.2899 48.4774 89.2899 51.8062C89.2899 54.7293 87.1542 55.4869 84.6402 55.4869H83.1261V48.2338ZM104.591 45.7715C98.7783 45.7715 93.9666 50.5071 93.9666 56.3527C93.9666 62.2253 98.7783 66.8801 104.591 66.8801C110.402 66.8801 115.215 62.2253 115.215 56.3527C115.215 50.5071 110.402 45.7715 104.591 45.7715ZM104.591 47.882C109.267 47.882 112.944 51.6979 112.944 56.3258C112.944 60.9268 109.213 64.7696 104.591 64.7696C99.9678 64.7696 96.2373 60.9268 96.2373 56.3258C96.2373 51.6979 99.914 47.882 104.591 47.882ZM120.567 48.2338H121.243C123.973 48.2338 126.434 48.5588 126.434 51.9145C126.434 55.0812 123.838 55.5683 121.27 55.5683H120.567V48.2338ZM120.567 57.5711H121.135L127.298 66.5283H130.083L123.595 57.3814C126.731 57.1109 128.704 54.8915 128.704 51.7524C128.704 47.1513 125.109 46.1233 121.243 46.1233H118.297V66.5283H120.567V57.5711ZM137.814 48.2338H142.789V46.1233H130.624V48.2338H135.544V66.5283H137.814V48.2338Z" fill="#18264D"/>
<path fill-rule="evenodd" clip-rule="evenodd" d="M142.789 20.2023H140.329L134.977 35.4928L128.38 19.1467L121.784 35.4928L116.431 20.2023H113.971L121.784 41.6634L128.38 25.2359L134.977 41.6634L142.789 20.2023ZM113.674 30.4323C113.674 24.5867 108.862 19.8504 103.05 19.8504C97.2377 19.8504 92.4259 24.5867 92.4259 30.4323C92.4259 36.3049 97.2377 40.9597 103.05 40.9597C108.862 40.9597 113.674 36.3049 113.674 30.4323ZM111.403 30.4048C111.403 35.0058 107.673 38.8486 103.05 38.8486C98.4271 38.8486 94.6967 35.0058 94.6967 30.4048C94.6967 25.7775 98.3734 21.9615 103.05 21.9615C107.727 21.9615 111.403 25.7775 111.403 30.4048ZM57.9859 25.1276C57.9859 23.2606 59.5537 21.9615 61.3655 21.9615C63.0953 21.9615 64.0684 22.7729 64.8795 24.1803L66.6906 23.0171C65.6093 21.0143 63.69 19.8504 61.4192 19.8504C58.3917 19.8504 55.7151 21.8802 55.7151 25.0468C55.7151 27.9693 57.7695 29.1871 60.1485 30.2695L61.3924 30.8111C63.2848 31.6769 65.1497 32.489 65.1497 34.8705C65.1497 37.1707 63.1497 38.8486 60.9596 38.8486C58.7701 38.8486 57.1747 37.1438 56.8777 35.0596L54.6607 35.6825C55.3098 38.8486 57.7426 40.9597 61.014 40.9597C64.5549 40.9597 67.4205 38.2263 67.4205 34.6539C67.4205 31.4065 65.1772 30.0805 62.5274 28.9166L61.176 28.3212C59.797 27.6989 57.9859 26.8869 57.9859 25.1276ZM50.363 40.6079H52.8771L43.7127 19.2281L34.305 40.6079H36.7921L39.2524 34.8161H47.9572L50.363 40.6079ZM47.0647 32.7056H40.1717L43.6589 24.5322L47.0647 32.7056ZM23.357 40.6079H31.2506V38.4967H25.6277V20.2023H23.357V40.6079ZM18.0312 37.5495C19.8967 35.3845 20.1937 33.1113 20.14 30.3509H9.83734L11.1112 32.462H17.7072C17.7072 36.2504 13.9761 38.8486 10.4352 38.8486C8.29951 38.8486 6.13692 37.7392 4.64975 36.2504C3.13632 34.7078 2.27078 32.6511 2.27078 30.4861C2.27078 25.8858 5.94743 21.9615 10.5972 21.9615C13.5978 21.9615 15.8955 23.3959 17.599 25.8044L19.2482 24.2617C17.0849 21.4469 14.1925 19.8504 10.6241 19.8504C4.75794 19.8504 0 24.6136 0 30.4592C0 36.1966 4.75794 40.9597 10.489 40.9597C13.3276 40.9597 16.1663 39.7145 18.0312 37.5495Z" fill="#18264D"/>
<path fill-rule="evenodd" clip-rule="evenodd" d="M198.582 8.04903C192.059 3.00539 183.885 0.000244141 175.006 0.000244141C174.948 0.000244141 174.892 0.00212236 174.835 0.0033745C174.778 0.00212236 174.721 0.000244141 174.664 0.000244141C165.858 0.000244141 157.747 2.95906 151.251 7.9282L158.161 19.5381C162.768 16.0966 168.474 14.0499 174.664 14.0499C174.705 14.0499 174.746 14.0512 174.786 14.0524V14.0549C174.802 14.0543 174.819 14.0543 174.835 14.0537C174.851 14.0543 174.867 14.0543 174.884 14.0549V14.0524C174.924 14.0512 174.965 14.0499 175.006 14.0499C181.215 14.0499 186.938 16.1091 191.552 19.5694L198.582 8.04903Z" fill="#18264D"/>
<path fill-rule="evenodd" clip-rule="evenodd" d="M196.956 33.3146C193.284 24.6974 184.769 18.6257 174.835 18.6257C161.561 18.6257 150.761 29.438 150.761 42.727C150.761 56.016 161.561 66.8277 174.835 66.8277C188.11 66.8277 198.909 56.016 198.909 42.727C198.909 40.9627 198.705 39.2473 198.343 37.5907H168.906L175.345 48.3504H186.378C184.29 52.6271 179.901 55.5803 174.835 55.5803C167.756 55.5803 161.996 49.8141 161.996 42.727C161.996 35.6399 167.756 29.8737 174.835 29.8737C178.198 29.8737 181.249 31.1885 183.539 33.3146H196.956Z" fill="#18264D"/>
<path fill-rule="evenodd" clip-rule="evenodd" d="M198.582 8.04903C192.059 3.00539 183.885 0.000244141 175.006 0.000244141C174.948 0.000244141 174.892 0.00212236 174.835 0.0033745C174.778 0.00212236 174.721 0.000244141 174.664 0.000244141C165.858 0.000244141 157.747 2.95906 151.251 7.9282L158.161 19.5381C162.768 16.0966 168.474 14.0499 174.664 14.0499C174.705 14.0499 174.746 14.0512 174.786 14.0524V14.0549C174.802 14.0543 174.819 14.0543 174.835 14.0537C174.851 14.0543 174.867 14.0543 174.884 14.0549V14.0524C174.924 14.0512 174.965 14.0499 175.006 14.0499C181.215 14.0499 186.938 16.1091 191.552 19.5694L198.582 8.04903Z" fill="#18264D"/>
<path fill-rule="evenodd" clip-rule="evenodd" d="M196.956 33.3146C193.284 24.6974 184.769 18.6257 174.835 18.6257C161.561 18.6257 150.761 29.438 150.761 42.727C150.761 56.016 161.561 66.8277 174.835 66.8277C188.11 66.8277 198.909 56.016 198.909 42.727C198.909 40.9627 198.705 39.2473 198.343 37.5907H168.906L175.345 48.3504H186.378C184.29 52.6271 179.901 55.5803 174.835 55.5803C167.756 55.5803 161.996 49.8141 161.996 42.727C161.996 35.6399 167.756 29.8737 174.835 29.8737C178.198 29.8737 181.249 31.1885 183.539 33.3146H196.956Z" fill="#18264D"/>
</svg>
