<svg width="200" height="104" viewBox="0 0 200 104" fill="none" xmlns="http://www.w3.org/2000/svg">
<g clip-path="url(#clip0_1412_64505)">
<path d="M91.2701 0C104.557 1.05333 116.95 4.85667 128.45 11.41C133.023 14.01 135.947 15.6333 137.22 16.28C147.373 21.42 157.707 24.4467 168.22 25.36C172.413 25.72 177.38 25.01 183.12 23.23C183.174 23.2107 183.233 23.2109 183.286 23.2305C183.339 23.2502 183.384 23.2882 183.413 23.3382C183.442 23.3883 183.454 23.4474 183.446 23.5059C183.438 23.5643 183.411 23.6187 183.37 23.66C178.96 28.05 172.95 28.81 166.75 28.73C154.24 28.57 140.84 24.4 129.3 18.51C124.12 15.8633 120.043 13.9967 117.07 12.91C99.3634 6.42333 81.5434 6.55667 63.6101 13.31C63.4458 13.3726 63.2677 13.3871 63.0973 13.3516C62.9269 13.3161 62.7715 13.2322 62.6501 13.11L56.0201 6.48C55.9425 6.40426 55.8854 6.31005 55.8542 6.20621C55.823 6.10237 55.8187 5.99231 55.8417 5.88635C55.8647 5.78039 55.9142 5.68201 55.9857 5.60044C56.0571 5.51886 56.1481 5.45678 56.2501 5.42C64.4834 2.41333 72.9501 0.606667 81.6501 0H91.2701Z" fill="#035E9F"/>
<path d="M175.99 30.28C174.657 31.6667 173.147 32.7267 171.46 33.46C171.201 33.5728 170.925 33.6535 170.64 33.7C156.57 36.04 143.67 33.5 130.47 27.95C124.037 25.25 119.57 23.54 117.07 22.82C102.657 18.6933 88.5399 18.9967 74.7199 23.73C74.3353 23.8619 73.9214 23.883 73.5254 23.7911C73.1294 23.6992 72.7671 23.4978 72.4799 23.21L68.1899 18.92C68.0978 18.8289 68.0305 18.7158 67.9944 18.5914C67.9584 18.467 67.9547 18.3354 67.9837 18.2092C68.0128 18.0829 68.0736 17.9662 68.1605 17.8701C68.2473 17.774 68.3573 17.7017 68.4799 17.66C85.9533 11.6 103.153 11.6733 120.08 17.88C122.393 18.7267 125.837 20.3633 130.41 22.79C139.69 27.72 150.47 30.85 161.05 31.55C166.12 31.88 170.85 31.11 175.69 29.78C175.754 29.76 175.823 29.7621 175.886 29.786C175.949 29.81 176.002 29.8544 176.037 29.912C176.071 29.9697 176.085 30.0373 176.077 30.1041C176.068 30.1708 176.038 30.2328 175.99 30.28Z" fill="#117FBF"/>
<path d="M78.4199 28.81C93.7699 22.5 111.35 23.39 126.26 29.77C140.05 35.67 154.06 40.77 169.19 35.68C169.245 35.6581 169.306 35.6551 169.364 35.6715C169.421 35.6879 169.471 35.7228 169.507 35.7707C169.542 35.8186 169.56 35.8769 169.559 35.9365C169.558 35.996 169.537 36.0535 169.5 36.1C168.547 37.4133 167.373 38.3167 165.98 38.81C154.96 42.71 141.31 39.65 130.47 35.31C125.757 33.4167 122.637 32.2333 121.11 31.76C108.44 27.81 95.3599 28.08 82.9799 33.24C82.9053 33.2695 82.8244 33.2766 82.7477 33.2606C82.671 33.2445 82.6021 33.206 82.5499 33.15L78.3799 28.98C78.3678 28.9687 78.359 28.9545 78.3544 28.9385C78.3497 28.9226 78.3494 28.9054 78.3533 28.8886C78.3573 28.8718 78.3654 28.8558 78.3771 28.8421C78.3887 28.8284 78.4034 28.8173 78.4199 28.81Z" fill="#2DADD9"/>
<path d="M6.32008 37.6C6.78674 37.56 7.21008 37.6033 7.59008 37.73C7.74475 37.7855 7.87859 37.8872 7.97341 38.0214C8.06824 38.1556 8.11945 38.3157 8.12008 38.48V41.69C8.12091 42.0435 8.00011 42.3865 7.77796 42.6614C7.55581 42.9364 7.24584 43.1266 6.90008 43.2C3.22008 43.9933 1.25341 42.58 1.00008 38.96C0.720076 34.86 3.09008 32.05 7.41008 33.4C7.52881 33.4409 7.62959 33.5218 7.69508 33.629C7.76058 33.7361 7.78669 33.8627 7.76894 33.987C7.75118 34.1113 7.69066 34.2255 7.59779 34.31C7.50492 34.3945 7.3855 34.444 7.26008 34.45C6.60008 34.46 5.80008 34.12 4.86008 34.22C2.89341 34.42 1.93674 35.8567 1.99008 38.53C2.06341 41.6433 3.53674 42.9567 6.41008 42.47C6.57612 42.4397 6.73062 42.3661 6.85733 42.257C6.98403 42.1479 7.07826 42.0073 7.13008 41.85C7.60341 40.41 7.27008 39.18 6.13008 38.16C6.08246 38.1183 6.04829 38.0634 6.03189 38.0022C6.01549 37.9411 6.01759 37.8765 6.03793 37.8165C6.05827 37.7566 6.09593 37.704 6.14616 37.6655C6.19638 37.6269 6.25691 37.6041 6.32008 37.6Z" fill="#505051"/>
<path d="M24.2099 38.84C24.1198 38.8186 24.0419 38.7624 23.9932 38.6837C23.9444 38.605 23.9289 38.5102 23.9499 38.42L23.9599 38.36C23.9768 38.2797 24.0231 38.2085 24.0896 38.1604C24.1562 38.1123 24.2383 38.0908 24.3199 38.1C25.5999 38.22 26.5699 37.99 27.2299 37.41C27.4424 37.2235 27.6114 36.9907 27.7221 36.7318C27.8328 36.473 27.882 36.1959 27.8652 35.9248C27.8485 35.6537 27.7663 35.3968 27.626 35.1763C27.4856 34.9559 27.2913 34.7786 27.0599 34.66C26.1266 34.18 25.1999 34.07 24.2799 34.33C24.11 34.3772 23.9569 34.4728 23.8382 34.6056C23.7196 34.7383 23.6404 34.9029 23.6099 35.08C23.3966 36.3333 23.4432 37.24 23.7499 37.8C23.8249 37.9378 23.8691 38.0898 23.8795 38.2452C23.8898 38.4007 23.8661 38.5559 23.8099 38.7C23.3766 39.7533 23.2932 41.0767 23.5599 42.67C23.573 42.7458 23.5691 42.8235 23.5485 42.8977C23.5279 42.972 23.4911 43.041 23.4407 43.1C23.3903 43.159 23.3274 43.2065 23.2565 43.2393C23.1855 43.2722 23.1082 43.2894 23.0299 43.29H22.7499C22.6571 43.29 22.5681 43.2531 22.5024 43.1875C22.4368 43.1219 22.3999 43.0328 22.3999 42.94V34.33C22.399 34.0461 22.4964 33.7708 22.6753 33.5518C22.8542 33.3327 23.1034 33.1836 23.3799 33.13C25.0332 32.81 26.5832 33.0533 28.0299 33.86C28.3439 34.0264 28.5808 34.3099 28.6899 34.65C29.3099 36.5567 28.8832 37.8933 27.4099 38.66C27.3242 38.7054 27.2484 38.7675 27.1871 38.8424C27.1257 38.9174 27.0802 39.0037 27.0531 39.0962C27.026 39.1886 27.0179 39.2854 27.0294 39.3805C27.0409 39.4757 27.0717 39.5674 27.1199 39.65L28.9199 42.77C28.9578 42.8368 28.9685 42.9154 28.9498 42.9885C28.931 43.0616 28.8843 43.1233 28.8199 43.16L28.5499 43.32C28.4516 43.3767 28.3364 43.3968 28.2248 43.3767C28.1131 43.3565 28.0122 43.2975 27.9399 43.21C26.8199 41.89 26.1699 39.33 24.2099 38.84Z" fill="#505051"/>
<path d="M52.0001 34.41C52.0053 34.059 52.1491 33.7243 52.4002 33.4789C52.6512 33.2335 52.989 33.0973 53.3401 33.1L55.3601 33.13C55.9053 33.1362 56.4438 33.2549 56.945 33.4795C57.4462 33.704 57.9001 34.0298 58.2809 34.4385C58.6616 34.8471 58.9617 35.3304 59.1641 35.8609C59.3664 36.3914 59.467 36.9585 59.4601 37.53L59.4401 39.11C59.4237 40.2615 58.9724 41.3598 58.1851 42.164C57.3977 42.9682 56.3387 43.4127 55.2401 43.4L53.2201 43.38C53.0445 43.3787 52.871 43.3427 52.7095 43.274C52.548 43.2053 52.4016 43.1054 52.2789 42.9799C52.1562 42.8544 52.0596 42.7058 51.9946 42.5428C51.9295 42.3798 51.8974 42.2055 51.9001 42.03L52.0001 34.41ZM53.0501 35.06L53.0901 41.6C53.0901 41.852 53.1901 42.0936 53.3683 42.2718C53.5465 42.4499 53.7881 42.55 54.0401 42.55L54.8401 42.54C55.7801 42.5351 56.6798 42.1322 57.3415 41.4198C58.0033 40.7074 58.3732 39.7437 58.3701 38.74V37.88C58.3685 37.3816 58.2749 36.8883 58.0945 36.4284C57.9142 35.9685 57.6507 35.551 57.319 35.1999C56.9874 34.8488 56.5942 34.5709 56.162 34.3822C55.7297 34.1934 55.2669 34.0975 54.8001 34.1L54.0001 34.11C53.7481 34.11 53.5065 34.2101 53.3283 34.3883C53.1501 34.5664 53.0501 34.8081 53.0501 35.06Z" fill="#505051"/>
<path d="M73.59 42.17C73.6281 42.148 73.6702 42.1336 73.7137 42.1278C73.7572 42.1219 73.8013 42.1246 73.8432 42.1358C73.8851 42.147 73.9242 42.1664 73.958 42.1929C73.9918 42.2194 74.0196 42.2524 74.04 42.29L74.24 42.63C74.2737 42.6863 74.2918 42.7506 74.2925 42.8163C74.2931 42.8819 74.2763 42.9466 74.2437 43.0036C74.2111 43.0606 74.164 43.1079 74.1071 43.1407C74.0502 43.1734 73.9856 43.1904 73.92 43.19H71.57C71.3631 43.1902 71.159 43.1348 70.9783 43.0295C70.7975 42.9243 70.6464 42.7727 70.54 42.59L68.81 39.59C68.6797 39.366 68.4792 39.1911 68.2396 39.0923C68 38.9936 67.7346 38.9764 67.4843 39.0436C67.234 39.1107 67.0127 39.2584 66.8547 39.4637C66.6967 39.6691 66.6107 39.9208 66.61 40.18V42.96C66.61 43.0422 66.5773 43.1211 66.5192 43.1792C66.461 43.2373 66.3822 43.27 66.3 43.27H66.04C65.9625 43.27 65.8858 43.2547 65.8142 43.2251C65.7426 43.1954 65.6776 43.152 65.6228 43.0972C65.568 43.0424 65.5245 42.9774 65.4949 42.9058C65.4652 42.8342 65.45 42.7575 65.45 42.68V34.2C65.4497 33.9553 65.5374 33.7186 65.6971 33.5332C65.8568 33.3478 66.0779 33.226 66.32 33.19C69.5 32.73 73.28 33.26 71.71 37.81C71.6392 38.0229 71.4898 38.2044 71.29 38.32L70.5 38.78C70.4218 38.8241 70.3533 38.8835 70.2983 38.9548C70.2434 39.026 70.2031 39.1077 70.1799 39.1951C70.1567 39.2825 70.1509 39.3738 70.1629 39.4639C70.1749 39.554 70.2045 39.6411 70.25 39.72L71.74 42.31C71.8457 42.4937 72.0209 42.6274 72.2271 42.6818C72.4334 42.7362 72.6538 42.7068 72.84 42.6L73.59 42.17ZM66.8 34.92L66.71 37.2C66.7059 37.3077 66.7232 37.4151 66.7607 37.5162C66.7983 37.6172 66.8554 37.7098 66.9287 37.7888C67.0021 37.8677 67.0903 37.9314 67.1883 37.9762C67.2864 38.0211 67.3922 38.0461 67.5 38.05L68.04 38.07C68.7763 38.0983 69.4901 37.9289 70.0245 37.5989C70.5589 37.2689 70.8702 36.8053 70.89 36.31V36.13C70.9003 35.8846 70.8387 35.6387 70.7086 35.4063C70.5786 35.174 70.3826 34.9597 70.1318 34.7759C69.8811 34.592 69.5805 34.4421 69.2473 34.3347C68.9142 34.2273 68.5549 34.1645 68.19 34.15L67.65 34.13C67.5423 34.126 67.4348 34.1432 67.3338 34.1808C67.2328 34.2183 67.1401 34.2754 67.0612 34.3488C66.9822 34.4222 66.9185 34.5104 66.8737 34.6084C66.8289 34.7064 66.8038 34.8123 66.8 34.92Z" fill="#505051"/>
<path d="M163.26 41.6C163.324 41.587 163.39 41.5957 163.448 41.6248C163.506 41.654 163.553 41.7018 163.581 41.7606C163.608 41.8195 163.615 41.8859 163.601 41.9492C163.586 42.0126 163.551 42.0692 163.5 42.11C156.08 47.33 143.76 45.5 135.1 43.15C130.25 41.84 123.7 38.98 117.77 37.8C108.15 35.8867 99.2768 36.4667 91.1501 39.54C90.769 39.6833 90.3552 39.7143 89.9579 39.6292C89.5607 39.5441 89.1969 39.3465 88.9101 39.06L87.4201 37.57C87.3219 37.4703 87.2498 37.3478 87.2104 37.2137C87.1709 37.0795 87.1654 36.9379 87.1942 36.8018C87.223 36.6657 87.2853 36.5394 87.3754 36.4342C87.4655 36.3291 87.5805 36.2486 87.7101 36.2C99.8201 31.65 114.08 31.82 126.31 36.99C138.52 42.15 150.48 45.11 163.26 41.6Z" fill="#75C3E2"/>
<path d="M14.28 38.56C14.0838 38.56 13.8955 38.638 13.7568 38.7767C13.618 38.9155 13.54 39.1037 13.54 39.3V41.68C13.54 41.8709 13.6159 42.0541 13.7509 42.1891C13.8859 42.3241 14.0691 42.4 14.26 42.4H17.79C17.8431 42.4 17.8939 42.4211 17.9315 42.4586C17.969 42.4961 17.99 42.5469 17.99 42.6V42.97C17.99 43.0602 17.9542 43.1466 17.8904 43.2104C17.8267 43.2742 17.7402 43.31 17.65 43.31H13.33C13.1179 43.31 12.9144 43.2268 12.7643 43.0786C12.6143 42.9304 12.53 42.7295 12.53 42.52V34.08C12.53 33.8652 12.6154 33.6591 12.7673 33.5072C12.9192 33.3553 13.1252 33.27 13.34 33.27H17.58C17.7286 33.27 17.871 33.329 17.976 33.434C18.081 33.539 18.14 33.6815 18.14 33.83V34.14C18.14 34.201 18.1158 34.2595 18.0727 34.3026C18.0295 34.3458 17.971 34.37 17.91 34.37H14.53C14.2887 34.37 14.0572 34.4669 13.8866 34.6395C13.7159 34.812 13.62 35.046 13.62 35.29V36.97C13.62 37.1424 13.6885 37.3077 13.8104 37.4296C13.9323 37.5515 14.0976 37.62 14.27 37.62H17.1C17.1531 37.62 17.2039 37.6411 17.2415 37.6786C17.279 37.7161 17.3 37.7669 17.3 37.82V38.11C17.3 38.2293 17.2526 38.3438 17.1682 38.4282C17.0838 38.5126 16.9694 38.56 16.85 38.56H14.28Z" fill="#505051"/>
<path d="M35.8699 40.65C34.8899 40.65 34.3766 40.66 34.3299 40.68C34.0157 40.8186 33.7686 41.0693 33.6399 41.38L32.9599 43.09C32.9118 43.1921 32.8286 43.2735 32.7255 43.3193C32.6224 43.3651 32.5062 43.3722 32.3983 43.3395C32.2903 43.3067 32.1977 43.2362 32.1374 43.1408C32.0771 43.0455 32.0532 42.9316 32.0699 42.82C32.8432 39.5733 33.7766 36.5433 34.8699 33.73C34.9832 33.45 35.3132 33.3067 35.8599 33.3C36.4132 33.3 36.7432 33.4433 36.8499 33.73C37.9499 36.5433 38.8899 39.57 39.6699 42.81C39.6908 42.9228 39.6696 43.0394 39.6105 43.1377C39.5513 43.236 39.4582 43.3093 39.3488 43.3437C39.2393 43.3782 39.1211 43.3714 39.0163 43.3246C38.9115 43.2779 38.8274 43.1944 38.7799 43.09L38.0999 41.38C37.9734 41.0656 37.726 40.811 37.4099 40.67C37.3632 40.65 36.8499 40.6433 35.8699 40.65ZM34.6299 40L36.9899 40.02C37.0236 40.0213 37.0572 40.0159 37.0886 40.0039C37.1201 39.9919 37.1489 39.9737 37.1732 39.9504C37.1975 39.927 37.2168 39.899 37.23 39.868C37.2431 39.837 37.2499 39.8037 37.2499 39.77V39.6C37.2577 38.481 37.1146 37.4068 36.8521 36.6136C36.5896 35.8204 36.2291 35.373 35.8499 35.37C35.6621 35.3685 35.4753 35.4761 35.3003 35.6869C35.1252 35.8977 34.9653 36.2074 34.8298 36.5983C34.6942 36.9893 34.5855 37.4538 34.5101 37.9654C34.4346 38.477 34.3938 39.0257 34.3899 39.58V39.75C34.3899 39.8146 34.4148 39.8767 34.4596 39.9233C34.5043 39.9699 34.5653 39.9974 34.6299 40Z" fill="#505051"/>
<path d="M48.53 42.55C48.5996 42.5714 48.6604 42.6145 48.7036 42.673C48.7468 42.7315 48.7702 42.8023 48.7702 42.875C48.7702 42.9477 48.7468 43.0186 48.7036 43.077C48.6604 43.1355 48.5996 43.1786 48.53 43.2C47.83 43.3867 46.34 43.4167 44.06 43.29C43.8487 43.2773 43.6502 43.1842 43.5052 43.0299C43.3602 42.8756 43.2796 42.6717 43.28 42.46V33.88C43.28 33.7394 43.3359 33.6046 43.4353 33.5052C43.5347 33.4058 43.6695 33.35 43.81 33.35H44.11C44.1869 33.35 44.2607 33.3795 44.3151 33.432C44.3695 33.4845 44.4 33.5557 44.4 33.63V41.41C44.4005 41.5551 44.4315 41.6986 44.4913 41.8308C44.551 41.9631 44.638 42.0813 44.7466 42.1776C44.8551 42.2739 44.9829 42.3462 45.1213 42.3897C45.2598 42.4332 45.4059 42.4469 45.55 42.43C46.71 42.29 47.7034 42.33 48.53 42.55Z" fill="#505051"/>
<path d="M70.5701 48.77C70.5688 48.4684 70.627 48.1696 70.7415 47.8906C70.856 47.6116 71.0245 47.358 71.2373 47.1443C71.4501 46.9306 71.7029 46.761 71.9814 46.6453C72.2599 46.5296 72.5585 46.47 72.8601 46.47L80.5401 46.44C83.9056 46.4295 87.1375 47.7711 89.5248 50.1697C91.9121 52.5683 93.2594 55.8274 93.2701 59.23L93.2901 64.31C93.2954 65.9949 92.9724 67.6644 92.3396 69.223C91.7068 70.7817 90.7764 72.199 89.6018 73.3941C88.4271 74.5892 87.0311 75.5387 85.4934 76.1882C83.9558 76.8378 82.3066 77.1748 80.6401 77.18L72.9601 77.21C72.3545 77.21 71.7735 76.9701 71.3443 76.5428C70.9152 76.1155 70.6727 75.5356 70.6701 74.93L70.5701 48.77ZM74.1501 50.65V73.11C74.1501 73.4044 74.267 73.6867 74.4752 73.8949C74.6834 74.1031 74.9657 74.22 75.2601 74.22H80.0801C82.6076 74.22 85.0316 73.2275 86.8188 71.4609C88.606 69.6944 89.6101 67.2983 89.6101 64.8V58.96C89.6101 56.4617 88.606 54.0656 86.8188 52.2991C85.0316 50.5325 82.6076 49.54 80.0801 49.54H75.2601C74.9657 49.54 74.6834 49.657 74.4752 49.8651C74.267 50.0733 74.1501 50.3556 74.1501 50.65Z" fill="#6E6E70"/>
<path d="M44.3836 65.582C44.3809 67.1066 44.078 68.6158 43.4921 70.0234C42.9062 71.431 42.0487 72.7094 40.9688 73.7856C39.8888 74.8618 38.6074 75.7147 37.1978 76.2957C35.7882 76.8767 34.2779 77.1744 32.7533 77.1717L30.7533 77.1682C27.6741 77.1628 24.7232 75.9345 22.5498 73.7534C20.3763 71.5723 19.1582 68.6171 19.1636 65.538L19.1766 58.078C19.1793 56.5534 19.4822 55.0442 20.0681 53.6366C20.654 52.229 21.5115 50.9506 22.5914 49.8744C23.6714 48.7982 24.9528 47.9453 26.3624 47.3643C27.772 46.7833 29.2822 46.4856 30.8069 46.4883L32.8069 46.4918C35.886 46.4972 38.8369 47.7255 41.0104 49.9066C43.1839 52.0877 44.402 55.0429 44.3966 58.122L44.3836 65.582ZM40.9101 58.02C40.9101 56.9103 40.6915 55.8115 40.2669 54.7863C39.8422 53.7611 39.2198 52.8296 38.4351 52.0449C37.6505 51.2603 36.719 50.6379 35.6938 50.2132C34.6686 49.7886 33.5698 49.57 32.4601 49.57H31.1201C30.0104 49.57 28.9116 49.7886 27.8864 50.2132C26.8612 50.6379 25.9297 51.2603 25.145 52.0449C24.3604 52.8296 23.738 53.7611 23.3133 54.7863C22.8887 55.8115 22.6701 56.9103 22.6701 58.02V65.68C22.6701 67.9211 23.5604 70.0704 25.145 71.6551C26.7297 73.2397 28.879 74.13 31.1201 74.13H32.4601C34.7012 74.13 36.8505 73.2397 38.4351 71.6551C40.0198 70.0704 40.9101 67.9211 40.9101 65.68V58.02Z" fill="#6E6E70"/>
<path d="M68.05 76.38C68.0784 76.4307 68.0933 76.488 68.0933 76.546C68.0932 76.6041 68.0782 76.6609 68.0498 76.7107C68.0214 76.7604 67.9805 76.8014 67.9314 76.8293C67.8822 76.8573 67.8266 76.8714 67.77 76.87H65.31C65.0124 76.8699 64.7204 76.7912 64.4638 76.6419C64.2073 76.4925 63.9955 76.2779 63.85 76.02L57.24 64.58C57.143 64.4097 57.003 64.2682 56.8344 64.1698C56.6657 64.0715 56.4745 64.0198 56.28 64.02H51.9C51.7727 64.02 51.6506 64.0706 51.5606 64.1606C51.4706 64.2506 51.42 64.3727 51.42 64.5V76.21C51.42 76.3744 51.3547 76.5321 51.2384 76.6484C51.1222 76.7647 50.9645 76.83 50.8 76.83H48.7C48.5197 76.83 48.3467 76.7583 48.2192 76.6308C48.0917 76.5033 48.02 76.3303 48.02 76.15V48.06C48.0195 47.8061 48.1069 47.5598 48.2673 47.3629C48.4277 47.1661 48.6512 47.0308 48.9 46.98C50.94 46.5733 53.61 46.38 56.91 46.4C64.11 46.46 68.89 49.87 67.31 57.82C66.63 61.21 64.29 62.45 61.55 63.62C61.4622 63.6577 61.3836 63.7138 61.3192 63.7845C61.2549 63.8551 61.2065 63.9387 61.1771 64.0296C61.1477 64.1205 61.1382 64.2167 61.149 64.3116C61.1599 64.4065 61.1909 64.498 61.24 64.58L68.05 76.38ZM51.37 50.51L51.49 60.45C51.4913 60.5669 51.5156 60.6824 51.5616 60.7898C51.6075 60.8973 51.6742 60.9947 51.7577 61.0764C51.8413 61.1581 51.9402 61.2226 52.0487 61.2661C52.1571 61.3096 52.2731 61.3313 52.39 61.33L58.4 61.25C59.9852 61.2303 61.4982 60.6231 62.6064 59.5617C63.7146 58.5004 64.3274 57.0718 64.31 55.59V55.05C64.3015 54.3155 64.1383 53.59 63.8296 52.915C63.5209 52.24 63.0728 51.6286 62.5109 51.116C61.949 50.6033 61.2844 50.1994 60.555 49.9273C59.8256 49.6551 59.0458 49.5201 58.26 49.53L52.25 49.61C52.1331 49.6113 52.0177 49.6356 51.9102 49.6816C51.8027 49.7275 51.7053 49.7942 51.6236 49.8777C51.5419 49.9613 51.4774 50.0601 51.4339 50.1686C51.3904 50.2771 51.3687 50.3931 51.37 50.51Z" fill="#6E6E70"/>
<path d="M19.7799 49.87H5.7299C5.56282 49.87 5.40257 49.9364 5.28442 50.0545C5.16628 50.1727 5.0999 50.3329 5.0999 50.5V59.84C5.0999 60.0071 5.16628 60.1673 5.28442 60.2855C5.40257 60.4036 5.56282 60.47 5.7299 60.47H15.1799C15.347 60.47 15.5072 60.5364 15.6254 60.6545C15.7435 60.7727 15.8099 60.9329 15.8099 61.1V62.7C15.8099 62.8671 15.7435 63.0273 15.6254 63.1455C15.5072 63.2636 15.347 63.33 15.1799 63.33H5.7999C5.63282 63.33 5.47257 63.3964 5.35442 63.5145C5.23628 63.6327 5.1699 63.7929 5.1699 63.96V76.26C5.1699 76.4271 5.10353 76.5873 4.98538 76.7055C4.86723 76.8236 4.70699 76.89 4.5399 76.89H2.2799C2.11282 76.89 1.95257 76.8236 1.83443 76.7055C1.71628 76.5873 1.6499 76.4271 1.6499 76.26V47.57C1.6499 47.4029 1.71628 47.2427 1.83443 47.1245C1.95257 47.0064 2.11282 46.94 2.2799 46.94H19.7799C19.947 46.94 20.1072 47.0064 20.2254 47.1245C20.3435 47.2427 20.4099 47.4029 20.4099 47.57V49.24C20.4099 49.4071 20.3435 49.5673 20.2254 49.6855C20.1072 49.8036 19.947 49.87 19.7799 49.87Z" fill="#6E6E70"/>
<path d="M197.474 47.41L197.434 47.4101C197.08 47.4114 196.795 47.6989 196.796 48.0523L196.844 61.7323C196.845 62.0857 197.133 62.3713 197.486 62.37L197.526 62.3699C197.88 62.3687 198.165 62.0811 198.164 61.7277L198.116 48.0477C198.115 47.6943 197.827 47.4087 197.474 47.41Z" fill="#505051"/>
<path d="M97.143 47.59L97.103 47.59C96.8103 47.5895 96.5726 47.8263 96.5721 48.119L96.5482 61.819C96.5477 62.1117 96.7845 62.3494 97.0772 62.35L97.1172 62.35C97.4099 62.3505 97.6476 62.1137 97.6482 61.8209L97.6721 48.121C97.6726 47.8283 97.4357 47.5906 97.143 47.59Z" fill="#505051"/>
<path d="M162.873 48.2391C162.765 47.6919 162.291 47.3248 161.814 47.4192C161.337 47.5136 161.038 48.0337 161.147 48.5809C161.255 49.1281 161.73 49.4952 162.206 49.4008C162.683 49.3064 162.982 48.7863 162.873 48.2391Z" fill="#505051"/>
<path d="M159.03 51.73C159.162 51.7592 159.278 51.8398 159.351 51.9542C159.424 52.0686 159.449 52.2074 159.42 52.34C159.391 52.4726 159.31 52.5882 159.196 52.6613C159.081 52.7345 158.942 52.7592 158.81 52.73C157.67 52.5967 156.96 52.78 156.68 53.28C156.641 53.3521 156.62 53.4311 156.62 53.51C156.62 57.03 156.64 59.3033 156.68 60.33C156.686 60.4878 156.724 60.6428 156.792 60.7845C156.861 60.9262 156.957 61.0514 157.075 61.1517C157.194 61.2521 157.331 61.3252 157.478 61.3663C157.626 61.4074 157.78 61.4155 157.93 61.39C158.47 61.2967 158.93 61.35 159.31 61.55C159.385 61.5904 159.446 61.6519 159.486 61.727C159.525 61.802 159.542 61.8872 159.533 61.9717C159.525 62.0562 159.491 62.1363 159.437 62.2018C159.383 62.2674 159.311 62.3154 159.23 62.34C155.77 63.36 155.15 61.46 155.21 58.47C155.23 57.4833 155.257 55.9767 155.29 53.95C155.296 53.7676 155.263 53.585 155.192 53.4144C155.121 53.2438 155.015 53.0889 154.88 52.96C154.827 52.92 154.76 52.8767 154.68 52.83C154.603 52.7855 154.538 52.7244 154.488 52.6513C154.438 52.5781 154.406 52.4949 154.394 52.408C154.381 52.3212 154.389 52.2329 154.416 52.15C154.443 52.0672 154.489 51.9919 154.55 51.93C155.183 51.27 155.453 50.4067 155.36 49.34C155.353 49.2557 155.363 49.1709 155.39 49.091C155.417 49.011 155.46 48.9377 155.517 48.8756C155.573 48.8135 155.642 48.7641 155.718 48.7304C155.794 48.6968 155.877 48.6796 155.96 48.68H156.31C156.405 48.68 156.497 48.7169 156.564 48.7825C156.632 48.8482 156.67 48.9372 156.67 49.03V50.95C156.67 51.1569 156.751 51.3553 156.895 51.5015C157.04 51.6478 157.236 51.73 157.44 51.73C158.493 51.73 159.023 51.73 159.03 51.73Z" fill="#505051"/>
<path d="M115.89 51.84C116 51.8861 116.09 51.9689 116.145 52.0742C116.2 52.1796 116.216 52.3008 116.191 52.417C116.166 52.5332 116.102 52.637 116.008 52.7106C115.915 52.7842 115.799 52.8229 115.68 52.82C114.56 52.6867 113.86 52.8667 113.58 53.36C113.54 53.432 113.52 53.5112 113.52 53.59C113.527 57.0433 113.55 59.2767 113.59 60.29C113.596 60.4452 113.634 60.5976 113.701 60.7369C113.768 60.8762 113.863 60.9992 113.98 61.0977C114.096 61.1962 114.231 61.2679 114.376 61.3079C114.521 61.348 114.673 61.3555 114.82 61.33C115.347 61.2367 115.797 61.2867 116.17 61.48C116.246 61.5176 116.309 61.5772 116.35 61.6511C116.392 61.725 116.41 61.8096 116.402 61.894C116.395 61.9783 116.362 62.0584 116.308 62.1237C116.254 62.1891 116.181 62.2366 116.1 62.26C112.7 63.27 112.09 61.4 112.14 58.46C112.16 57.4933 112.187 56.0133 112.22 54.02C112.226 53.8419 112.194 53.6635 112.125 53.4964C112.056 53.3292 111.952 53.1771 111.82 53.05C111.767 53.01 111.7 52.9667 111.62 52.92C111.545 52.8764 111.481 52.8166 111.433 52.7452C111.385 52.6738 111.353 52.5926 111.34 52.5079C111.328 52.4231 111.335 52.3369 111.361 52.2558C111.387 52.1748 111.431 52.101 111.49 52.04C112.11 51.3867 112.373 50.5367 112.28 49.49C112.272 49.4076 112.281 49.3244 112.307 49.2458C112.332 49.1671 112.374 49.0948 112.43 49.0335C112.486 48.9721 112.554 48.9232 112.63 48.8899C112.705 48.8566 112.787 48.8396 112.87 48.84H113.22C113.267 48.84 113.313 48.8491 113.356 48.8668C113.4 48.8845 113.439 48.9105 113.471 48.9431C113.504 48.9757 113.529 49.0144 113.546 49.0568C113.563 49.0992 113.571 49.1445 113.57 49.19V51.07C113.57 51.1711 113.59 51.2712 113.628 51.3647C113.666 51.4581 113.722 51.543 113.793 51.6145C113.863 51.686 113.947 51.7427 114.039 51.7814C114.131 51.8201 114.23 51.84 114.33 51.84C115.363 51.84 115.883 51.84 115.89 51.84Z" fill="#505051"/>
<path d="M128.34 52.02C129.033 52.2333 129.98 52.0467 131.18 51.46C131.767 51.1733 132.287 51.26 132.74 51.72C132.8 51.7803 132.843 51.8556 132.864 51.9382C132.884 52.0208 132.882 52.1078 132.858 52.1902C132.834 52.2726 132.788 52.3475 132.725 52.4072C132.662 52.4669 132.584 52.5093 132.5 52.53C129.86 53.17 128.83 53 128.97 55.93C129.017 56.9567 129.007 58.9433 128.94 61.89C128.937 62.0236 128.881 62.1508 128.784 62.2443C128.687 62.3378 128.556 62.3901 128.42 62.39H128.15C128.031 62.39 127.916 62.3426 127.832 62.2582C127.747 62.1738 127.7 62.0594 127.7 61.94V52.49C127.699 52.4125 127.717 52.336 127.752 52.2667C127.787 52.1975 127.837 52.1374 127.9 52.0915C127.962 52.0457 128.035 52.0153 128.111 52.0028C128.188 51.9904 128.266 51.9963 128.34 52.02Z" fill="#505051"/>
<path d="M145.62 52.83C145.55 52.8319 145.481 52.8107 145.424 52.7698C145.368 52.7289 145.326 52.6705 145.305 52.6035C145.285 52.5365 145.287 52.4647 145.311 52.3991C145.336 52.3334 145.381 52.2775 145.44 52.24C147.393 51.0467 149.243 51.0167 150.99 52.15C151.31 52.3561 151.574 52.6391 151.759 52.9741C151.944 53.309 152.044 53.6854 152.05 54.07L152.16 61.54C152.161 61.6359 152.144 61.7311 152.108 61.8201C152.073 61.9092 152.02 61.9904 151.953 62.0591C151.886 62.1279 151.807 62.1827 151.719 62.2206C151.63 62.2585 151.536 62.2787 151.44 62.28L147.21 62.34C146.693 62.346 146.186 62.1953 145.758 61.9077C145.329 61.6202 144.999 61.2094 144.81 60.73C144.09 58.9367 144.483 57.55 145.99 56.57C147.03 55.91 148.18 56.1 149.7 56.08C149.825 56.0787 149.948 56.0526 150.063 56.0032C150.178 55.9537 150.282 55.8819 150.369 55.7918C150.456 55.7018 150.525 55.5952 150.571 55.4782C150.618 55.3612 150.641 55.2361 150.64 55.11L150.62 54.21C150.612 53.8263 150.453 53.4611 150.178 53.1935C149.903 52.9258 149.534 52.7773 149.15 52.78L145.62 52.83ZM150.914 58.5018C150.833 58.2245 150.688 57.969 150.486 57.7499C150.284 57.5308 150.03 57.3524 149.738 57.2249C149.446 57.0974 149.123 57.0232 148.785 57.0066C148.448 56.9901 148.104 57.0315 147.772 57.1284C147.441 57.2253 147.129 57.376 146.853 57.5716C146.578 57.7673 146.345 58.0042 146.168 58.2689C145.991 58.5335 145.873 58.8207 145.821 59.1139C145.769 59.4072 145.785 59.7009 145.866 59.9782C145.947 60.2555 146.092 60.511 146.294 60.7301C146.496 60.9492 146.75 61.1276 147.042 61.2551C147.333 61.3827 147.657 61.4568 147.994 61.4734C148.332 61.4899 148.676 61.4486 149.007 61.3516C149.339 61.2547 149.651 61.1041 149.926 60.9084C150.202 60.7127 150.434 60.4758 150.612 60.2112C150.789 59.9465 150.906 59.6594 150.958 59.3661C151.01 59.0728 150.995 58.7791 150.914 58.5018Z" fill="#505051"/>
<path d="M169.46 51.3002C170.063 51.3055 170.658 51.4591 171.213 51.7524C171.767 52.0458 172.269 52.473 172.691 53.0097C173.112 53.5464 173.445 54.1821 173.669 54.8805C173.894 55.5789 174.006 56.3263 174 57.0801C173.986 58.6024 173.49 60.0581 172.62 61.127C171.75 62.1959 170.577 62.7904 169.36 62.7798C168.757 62.7745 168.162 62.6208 167.607 62.3275C167.053 62.0342 166.551 61.607 166.129 61.0703C165.707 60.5336 165.375 59.8979 165.15 59.1995C164.926 58.5011 164.814 57.7536 164.82 56.9999C164.833 55.4776 165.33 54.0219 166.2 52.953C167.07 51.8841 168.243 51.2896 169.46 51.3002ZM169.4 52.54C168.988 52.54 168.579 52.6566 168.198 52.8833C167.817 53.1099 167.471 53.4421 167.18 53.8609C166.888 54.2797 166.657 54.7769 166.499 55.3241C166.341 55.8713 166.26 56.4577 166.26 57.05C166.26 57.6422 166.341 58.2287 166.499 58.7759C166.657 59.3231 166.888 59.8202 167.18 60.239C167.471 60.6578 167.817 60.99 168.198 61.2167C168.579 61.4433 168.988 61.56 169.4 61.56C170.233 61.56 171.031 61.0848 171.62 60.239C172.209 59.3933 172.54 58.2461 172.54 57.05C172.54 55.8539 172.209 54.7067 171.62 53.8609C171.031 53.0151 170.233 52.54 169.4 52.54Z" fill="#505051"/>
<path d="M176.74 51.98C177.36 52.16 178.28 52.04 179.5 51.62C185.11 49.68 183.9 58.27 183.86 61.64C183.857 61.8266 183.782 62.0046 183.649 62.1356C183.516 62.2666 183.337 62.34 183.15 62.34H182.86C182.746 62.34 182.637 62.2947 182.556 62.214C182.475 62.1334 182.43 62.024 182.43 61.91V54.62C182.43 54.0922 182.221 53.586 181.85 53.2128C181.479 52.8397 180.975 52.63 180.45 52.63H179.67C179.108 52.63 178.569 52.8533 178.171 53.2509C177.773 53.6485 177.55 54.1877 177.55 54.75V61.78C177.55 61.9259 177.491 62.0658 177.386 62.1689C177.281 62.272 177.139 62.33 176.99 62.33H176.66C176.512 62.33 176.369 62.272 176.264 62.1689C176.159 62.0658 176.1 61.9259 176.1 61.78V52.46C176.1 52.3824 176.118 52.3058 176.153 52.2364C176.188 52.167 176.238 52.1066 176.3 52.06C176.362 52.0134 176.434 51.9819 176.511 51.9681C176.587 51.9542 176.666 51.9583 176.74 51.98Z" fill="#505051"/>
<path d="M186.99 52.79C186.918 52.7936 186.846 52.7725 186.787 52.7303C186.729 52.6881 186.686 52.6272 186.666 52.5576C186.647 52.488 186.651 52.4137 186.679 52.347C186.707 52.2802 186.757 52.2249 186.82 52.19C188.8 51.0233 190.657 51.0233 192.39 52.19C192.707 52.4024 192.967 52.6905 193.147 53.0289C193.326 53.3673 193.42 53.7455 193.42 54.13V61.62C193.42 61.8136 193.343 61.9993 193.206 62.1362C193.069 62.2731 192.884 62.35 192.69 62.35H188.45C187.929 62.3495 187.421 62.1913 186.994 61.8965C186.567 61.6016 186.241 61.1842 186.06 60.7C185.367 58.8933 185.783 57.51 187.31 56.55C188.36 55.9 189.51 56.11 191.04 56.11C191.292 56.11 191.534 56.0089 191.712 55.8288C191.89 55.6488 191.99 55.4046 191.99 55.15V54.25C191.99 53.8628 191.836 53.4914 191.562 53.2176C191.288 52.9438 190.917 52.79 190.53 52.79H186.99ZM192.131 58.5083C192.017 58.0255 191.717 57.6074 191.295 57.3461C190.874 57.0847 190.366 57.0016 189.883 57.1148L188.598 57.4162C188.359 57.4723 188.133 57.5749 187.934 57.7182C187.734 57.8615 187.565 58.0427 187.436 58.2514C187.306 58.4601 187.219 58.6922 187.179 58.9346C187.14 59.1769 187.148 59.4247 187.204 59.6638L187.309 60.1117C187.423 60.5945 187.723 61.0126 188.145 61.2739C188.566 61.5353 189.074 61.6185 189.557 61.5052L190.842 61.2038C191.081 61.1477 191.307 61.0451 191.506 60.9018C191.706 60.7585 191.875 60.5773 192.004 60.3686C192.134 60.1599 192.221 59.9278 192.26 59.6854C192.3 59.4431 192.292 59.1953 192.236 58.9562L192.131 58.5083Z" fill="#505051"/>
<path d="M102.22 62.24H101.9C101.848 62.24 101.796 62.2296 101.748 62.2094C101.7 62.1892 101.657 62.1596 101.621 62.1223C101.584 62.085 101.556 62.0408 101.537 61.9923C101.518 61.9439 101.509 61.8921 101.51 61.84L101.53 52.6C101.531 52.5266 101.547 52.4541 101.578 52.3876C101.608 52.3211 101.653 52.2621 101.708 52.2146C101.763 52.1671 101.827 52.1323 101.897 52.1125C101.966 52.0928 102.039 52.0885 102.11 52.1C104.02 52.38 107.92 49.97 108.76 53.67C109.16 55.41 109.18 58.2134 108.82 62.08C108.815 62.1535 108.781 62.2223 108.725 62.2725C108.67 62.3226 108.596 62.3504 108.52 62.35H108.26C108.162 62.35 108.068 62.311 107.998 62.2416C107.929 62.1723 107.89 62.0781 107.89 61.98V54.96C107.89 54.3155 107.633 53.6975 107.175 53.2417C106.718 52.786 106.097 52.53 105.45 52.53H104.98C104.325 52.53 103.697 52.7902 103.233 53.2535C102.77 53.7167 102.51 54.3449 102.51 55V61.95C102.51 62.0269 102.479 62.1007 102.425 62.1551C102.371 62.2095 102.297 62.24 102.22 62.24Z" fill="#505051"/>
<path d="M124.28 61.02C124.375 60.9818 124.481 60.979 124.578 61.012C124.675 61.045 124.758 61.1117 124.81 61.2L124.97 61.48C124.984 61.5048 124.992 61.5322 124.995 61.5604C124.998 61.5886 124.995 61.6171 124.987 61.6443C124.979 61.6714 124.965 61.6965 124.946 61.7181C124.928 61.7397 124.905 61.7574 124.88 61.77C119.1 64.53 117.24 60.15 117.7 55.47C118.28 49.64 125.98 50.19 125.42 56.89C125.407 57.0775 125.324 57.2531 125.186 57.3812C125.049 57.5094 124.868 57.5804 124.68 57.58H119.78C119.64 57.5801 119.502 57.6121 119.376 57.6737C119.25 57.7353 119.14 57.8248 119.055 57.9351C118.97 58.0455 118.912 58.1737 118.885 58.3098C118.858 58.446 118.863 58.5864 118.9 58.72C119.633 61.4133 121.427 62.18 124.28 61.02ZM119.66 56.43L123.42 56.41C123.507 56.41 123.594 56.3926 123.675 56.3588C123.756 56.325 123.829 56.2755 123.89 56.2132C123.952 56.1508 124 56.0769 124.033 55.9957C124.065 55.9144 124.081 55.8275 124.08 55.74V55.61C124.074 54.8019 123.815 54.029 123.362 53.4609C122.908 52.8928 122.296 52.576 121.66 52.58H121.38C121.064 52.582 120.753 52.663 120.462 52.8184C120.172 52.9738 119.908 53.2006 119.687 53.4857C119.466 53.7709 119.292 54.1088 119.174 54.4802C119.056 54.8515 118.997 55.2491 119 55.65V55.78C119.003 55.9533 119.073 56.1186 119.197 56.2403C119.32 56.3619 119.487 56.43 119.66 56.43Z" fill="#505051"/>
<path d="M134.38 52.52C134.378 52.4416 134.395 52.3638 134.429 52.2931C134.463 52.2224 134.514 52.1607 134.576 52.113C134.638 52.0653 134.711 52.0329 134.788 52.0185C134.865 52.0041 134.945 52.008 135.02 52.03C135.64 52.21 136.563 52.0834 137.79 51.65C143.42 49.66 142.26 58.32 142.25 61.71C142.25 61.8983 142.175 62.0789 142.042 62.2121C141.909 62.3452 141.728 62.42 141.54 62.42H141.25C141.193 62.4213 141.136 62.4112 141.082 62.3902C141.029 62.3692 140.98 62.3377 140.939 62.2977C140.898 62.2576 140.866 62.2097 140.844 62.1569C140.821 62.1041 140.81 62.0473 140.81 61.99L140.76 54.65C140.759 54.3865 140.706 54.1259 140.604 53.8831C140.502 53.6403 140.353 53.4201 140.166 53.2352C139.98 53.0503 139.758 52.9042 139.515 52.8055C139.272 52.7068 139.012 52.6574 138.75 52.66L137.97 52.67C137.689 52.6713 137.412 52.728 137.153 52.8369C136.895 52.9458 136.66 53.1047 136.463 53.3045C136.266 53.5043 136.111 53.741 136.005 54.0011C135.9 54.2611 135.847 54.5395 135.85 54.82L135.9 61.89C135.901 61.9631 135.888 62.0357 135.86 62.1035C135.833 62.1714 135.792 62.2332 135.74 62.2854C135.687 62.3375 135.625 62.3789 135.557 62.4072C135.488 62.4354 135.414 62.45 135.34 62.45H135.01C134.936 62.4513 134.862 62.4381 134.793 62.411C134.723 62.384 134.661 62.3437 134.607 62.2925C134.554 62.2413 134.512 62.1802 134.483 62.1128C134.455 62.0454 134.44 61.9731 134.44 61.9L134.38 52.52Z" fill="#505051"/>
<path d="M162.069 51.7701L162.009 51.7699C161.572 51.7684 161.217 52.1209 161.216 52.5572L161.184 61.5971C161.183 62.0334 161.535 62.3884 161.971 62.3899L162.031 62.3901C162.468 62.3916 162.823 62.0391 162.824 61.6028L162.856 52.5629C162.857 52.1266 162.505 51.7717 162.069 51.7701Z" fill="#505051"/>
<path d="M116.939 64.8718L115.54 64.8303C114.994 64.8141 114.537 65.2439 114.521 65.7905L114.44 68.5093C114.424 69.0558 114.854 69.512 115.401 69.5282L116.8 69.5697C117.347 69.586 117.803 69.1561 117.819 68.6095L117.9 65.8907C117.916 65.3442 117.486 64.888 116.939 64.8718Z" fill="#6E6E70"/>
<path d="M100.62 64.94C101.173 64.94 101.683 65.02 102.15 65.18C102.409 65.267 102.643 65.4141 102.833 65.6089C103.022 65.8038 103.162 66.0408 103.24 66.3L111.78 94.66C111.813 94.7675 111.819 94.8812 111.8 94.9919C111.78 95.1027 111.734 95.2074 111.666 95.2978C111.598 95.3882 111.51 95.4617 111.408 95.5124C111.306 95.5631 111.194 95.5897 111.08 95.59H109.59C109.339 95.5901 109.094 95.5095 108.893 95.36C108.691 95.2106 108.543 95.0002 108.47 94.76L106.48 88.15C106.437 88.0061 106.35 87.8798 106.231 87.7898C106.112 87.6998 105.968 87.6508 105.82 87.65C105.32 87.6433 103.58 87.64 100.6 87.64C97.6266 87.64 95.8866 87.6433 95.3799 87.65C95.2331 87.6501 95.0899 87.6977 94.9712 87.7858C94.8525 87.8739 94.7645 87.998 94.7199 88.14L92.7199 94.75C92.647 94.9902 92.4987 95.2006 92.297 95.35C92.0953 95.4995 91.8509 95.5801 91.5999 95.58H90.1099C89.9949 95.5802 89.8813 95.5535 89.7785 95.5022C89.6757 95.4509 89.5866 95.3764 89.5183 95.2848C89.4501 95.1931 89.4047 95.087 89.3858 94.9749C89.367 94.8629 89.3752 94.7481 89.4099 94.64L97.9899 66.3C98.0663 66.039 98.2053 65.8 98.3951 65.6033C98.5848 65.4065 98.8197 65.2579 99.0799 65.17C99.5466 65.0167 100.06 64.94 100.62 64.94ZM95.5899 84.33C95.5723 84.3832 95.5677 84.4399 95.5765 84.4952C95.5854 84.5506 95.6074 84.603 95.6407 84.6481C95.674 84.6932 95.7177 84.7296 95.768 84.7543C95.8183 84.779 95.8739 84.7912 95.9299 84.79L105.33 84.8C105.385 84.8007 105.439 84.7885 105.488 84.7644C105.538 84.7402 105.581 84.7048 105.614 84.661C105.647 84.6172 105.669 84.5662 105.679 84.5122C105.689 84.4582 105.686 84.4026 105.67 84.35L100.99 69.37C100.968 69.2981 100.924 69.2351 100.863 69.1903C100.803 69.1455 100.73 69.1214 100.655 69.1214C100.58 69.1214 100.507 69.1455 100.446 69.1903C100.386 69.2351 100.342 69.2981 100.32 69.37L95.5899 84.33Z" fill="#6E6E70"/>
<path d="M190.14 73.01V67.99C190.14 67.8073 190.198 67.6293 190.306 67.4819C190.414 67.3345 190.566 67.2252 190.74 67.17L191.73 66.88C191.855 66.8427 191.987 66.8351 192.115 66.8576C192.244 66.8802 192.365 66.9324 192.47 67.01C192.575 67.0876 192.66 67.1886 192.719 67.3049C192.778 67.4211 192.809 67.5496 192.81 67.68V72.88C192.81 73.0709 192.886 73.2541 193.021 73.3891C193.156 73.5241 193.339 73.6 193.53 73.6H197.98C198.112 73.5999 198.243 73.6265 198.365 73.6782C198.486 73.73 198.596 73.8057 198.688 73.901C198.779 73.9963 198.85 74.1091 198.897 74.2327C198.944 74.3562 198.965 74.488 198.96 74.62L198.94 75.12C198.93 75.3624 198.825 75.5914 198.648 75.7591C198.471 75.9268 198.235 76.0203 197.99 76.02H193.36C193.289 76.02 193.219 76.034 193.153 76.0611C193.088 76.0882 193.028 76.128 192.978 76.1782C192.928 76.2283 192.888 76.2878 192.861 76.3533C192.834 76.4189 192.82 76.4891 192.82 76.56V91.18C192.82 91.5167 192.899 91.8488 193.05 92.1498C193.201 92.4508 193.42 92.7122 193.69 92.9134C193.96 93.1145 194.274 93.2496 194.605 93.3081C194.937 93.3665 195.277 93.3466 195.6 93.25L197.51 92.67C197.786 92.5891 198.082 92.6204 198.335 92.7571C198.588 92.8938 198.777 93.1249 198.86 93.4L199.01 93.87C199.098 94.1697 199.066 94.492 198.92 94.7683C198.775 95.0447 198.527 95.2534 198.23 95.35C192.05 97.34 189.79 94.63 189.76 88.76C189.733 81.5067 189.813 77.4533 190 76.6C190.015 76.5298 190.014 76.4572 189.998 76.3874C189.982 76.3176 189.951 76.2525 189.907 76.1969C189.863 76.1412 189.807 76.0964 189.743 76.0658C189.68 76.0352 189.61 76.0195 189.54 76.02H187.6C187.393 76.02 187.195 75.9378 187.049 75.7915C186.902 75.6453 186.82 75.4469 186.82 75.24V74.81C186.82 74.63 186.878 74.4551 186.984 74.311C187.09 74.167 187.24 74.0615 187.41 74.01L189.96 73.25C190.012 73.2331 190.058 73.2008 190.09 73.1577C190.122 73.1146 190.14 73.0629 190.14 73.01Z" fill="#6E6E70"/>
<path d="M127.31 74.74C128.743 73.8067 130.29 73.22 131.95 72.98C132.11 72.9578 132.273 72.9711 132.427 73.019C132.581 73.0668 132.723 73.148 132.842 73.2568C132.962 73.3656 133.055 73.4994 133.117 73.6486C133.179 73.7977 133.207 73.9587 133.2 74.12L133.18 74.58C133.164 74.8974 133.033 75.1979 132.812 75.4245C132.59 75.6512 132.295 75.7883 131.98 75.81C130.33 75.92 126.69 76.84 126.66 79.23C126.653 79.5233 126.66 84.6467 126.68 94.6C126.68 94.8838 126.567 95.1559 126.366 95.3566C126.166 95.5573 125.894 95.67 125.61 95.67H124.71C124.423 95.67 124.149 95.5562 123.946 95.3537C123.744 95.1511 123.63 94.8764 123.63 94.59V74.51C123.629 74.2827 123.694 74.06 123.816 73.8682C123.938 73.6765 124.113 73.5237 124.319 73.428C124.525 73.3322 124.754 73.2976 124.979 73.3281C125.205 73.3586 125.417 73.4529 125.59 73.6C125.977 73.9333 126.233 74.2267 126.36 74.48C126.401 74.5633 126.46 74.6369 126.532 74.6959C126.603 74.755 126.687 74.7982 126.777 74.8228C126.866 74.8473 126.96 74.8526 127.052 74.8384C127.144 74.8241 127.232 74.7906 127.31 74.74Z" fill="#6E6E70"/>
<path d="M138.32 104H135.36L135.44 74.33C135.441 74.1521 135.5 73.9794 135.608 73.8384C135.717 73.6975 135.868 73.5961 136.04 73.55C136.687 73.39 137.253 73.5266 137.74 73.96C137.881 74.0855 138.052 74.1733 138.237 74.2152C138.422 74.2572 138.616 74.2519 138.8 74.2C139.293 74.0533 140.15 73.8033 141.37 73.45C151.92 70.4 152.72 84.28 150.78 90.38C148.82 96.5 144.35 95.98 138.84 95.53C138.77 95.5245 138.699 95.5335 138.633 95.5567C138.566 95.5798 138.505 95.6165 138.453 95.6644C138.402 95.7124 138.36 95.7705 138.332 95.8351C138.304 95.8997 138.29 95.9695 138.29 96.04L138.32 104ZM138.2 78.14L138.26 90.96C138.263 91.2765 138.328 91.5893 138.451 91.8807C138.575 92.1721 138.754 92.4363 138.98 92.6583C139.206 92.8802 139.473 93.0555 139.766 93.1742C140.06 93.2929 140.374 93.3526 140.69 93.35L143.4 93.34C144.789 93.331 146.117 92.6244 147.092 91.3755C148.068 90.1266 148.61 88.4377 148.6 86.68L148.58 82.3C148.575 81.429 148.435 80.5673 148.167 79.7641C147.899 78.9609 147.509 78.2321 147.018 77.6192C146.528 77.0062 145.947 76.5213 145.309 76.192C144.671 75.8627 143.989 75.6955 143.3 75.7L140.59 75.71C140.274 75.7126 139.961 75.7775 139.669 75.9011C139.378 76.0246 139.114 76.2043 138.892 76.43C138.67 76.6556 138.495 76.9228 138.376 77.2162C138.257 77.5096 138.197 77.8235 138.2 78.14Z" fill="#6E6E70"/>
<path d="M172.556 87.6146C172.557 88.6809 172.349 89.7372 171.943 90.7231C171.537 91.709 170.94 92.6051 170.187 93.3605C169.435 94.1158 168.541 94.7155 167.556 95.1253C166.572 95.5351 165.516 95.7469 164.45 95.7488L163.09 95.7512C162.023 95.7531 160.967 95.5449 159.981 95.1385C158.995 94.7322 158.099 94.1356 157.344 93.383C156.589 92.6303 155.989 91.7362 155.579 90.7517C155.169 89.7673 154.957 88.7117 154.956 87.6454L154.944 81.2454C154.942 80.1791 155.151 79.1228 155.557 78.1369C155.963 77.1511 156.56 76.2549 157.313 75.4995C158.065 74.7442 158.959 74.1445 159.944 73.7347C160.928 73.3249 161.984 73.1131 163.05 73.1112L164.41 73.1088C165.476 73.1069 166.533 73.3151 167.519 73.7215C168.505 74.1278 169.401 74.7244 170.156 75.4771C170.911 76.2297 171.511 77.1238 171.921 78.1083C172.331 79.0927 172.542 80.1483 172.544 81.2146L172.556 87.6146ZM169.567 81.1905C169.571 80.4787 169.434 79.7732 169.166 79.1142C168.897 78.4552 168.501 77.8556 168 77.3497C167.499 76.8438 166.904 76.4414 166.248 76.1656C165.591 75.8898 164.887 75.7459 164.176 75.7422L163.396 75.7381C161.958 75.7306 160.577 76.2944 159.555 77.3055C158.533 78.3166 157.955 79.6922 157.947 81.1296L157.913 87.7495C157.909 88.4613 158.045 89.1668 158.314 89.8258C158.583 90.4848 158.979 91.0844 159.48 91.5903C159.981 92.0962 160.576 92.4986 161.232 92.7744C161.888 93.0502 162.592 93.1941 163.304 93.1978L164.084 93.2019C165.522 93.2094 166.903 92.6456 167.925 91.6345C168.947 90.6234 169.525 89.2479 169.533 87.8104L169.567 81.1905Z" fill="#6E6E70"/>
<path d="M179.2 74.46C179.241 74.5447 179.3 74.6196 179.373 74.6797C179.445 74.7398 179.53 74.7836 179.621 74.8082C179.712 74.8328 179.807 74.8377 179.9 74.8225C179.993 74.8073 180.082 74.7723 180.16 74.72C181.587 73.78 183.133 73.1867 184.8 72.94C184.96 72.9178 185.123 72.9311 185.277 72.9789C185.431 73.0268 185.573 73.108 185.692 73.2168C185.812 73.3256 185.906 73.4594 185.967 73.6085C186.029 73.7577 186.057 73.9187 186.05 74.08L186.04 74.54C186.024 74.8574 185.893 75.1579 185.672 75.3845C185.451 75.6112 185.155 75.7483 184.84 75.77C183.18 75.89 179.54 76.82 179.52 79.22C179.513 79.5133 179.537 84.6467 179.59 94.62C179.59 94.9021 179.479 95.1727 179.28 95.3731C179.082 95.5735 178.812 95.6874 178.53 95.69H177.62C177.335 95.69 177.062 95.5776 176.86 95.3772C176.658 95.1768 176.543 94.9047 176.54 94.62L176.47 74.5C176.468 74.2718 176.531 74.0478 176.652 73.8545C176.773 73.6613 176.948 73.507 177.154 73.41C177.361 73.3131 177.591 73.2775 177.817 73.3077C178.043 73.3378 178.256 73.4323 178.43 73.58C178.817 73.9133 179.073 74.2067 179.2 74.46Z" fill="#6E6E70"/>
<path d="M116.589 73.3108L115.749 73.3093C115.043 73.3081 114.468 73.8801 114.467 74.5871L114.433 94.467C114.431 95.174 115.003 95.748 115.71 95.7493L116.55 95.7507C117.257 95.752 117.831 95.1799 117.833 94.473L117.867 74.593C117.868 73.8861 117.296 73.312 116.589 73.3108Z" fill="#6E6E70"/>
</g>
<defs>
<clipPath id="clip0_1412_64505">
<rect width="200" height="104" fill="white"/>
</clipPath>
</defs>
</svg>
