<svg width="200" height="31" viewBox="0 0 200 31" fill="none" xmlns="http://www.w3.org/2000/svg">
<path d="M37.4985 18.7539V18.6963H43.4218L43.3864 18.9382C43.0207 21.1846 43.4808 22.2675 45.2861 22.2675C47.0914 22.2675 47.7404 21.3689 48.295 18.3392L50.6313 5.40234H56.4602L54.1593 18.2585C52.9676 24.7557 50.8437 27.3362 44.9794 27.3362C39.1151 27.3362 36.5664 24.2489 37.4867 18.7654L37.4985 18.7539Z" fill="#022DB7"/>
<path d="M62.8319 19.3297L61.4867 26.8752H55.9882L59.8584 5.39062H74.7729L73.8879 10.2751H64.472L63.7404 14.4337H72.7906L71.9056 19.3182H62.8555L62.8319 19.3297Z" fill="#022DB7"/>
<path d="M83.469 17.1411L80.1888 20.3206L79.0207 26.8869H73.4985L77.3687 5.40234H82.8909L81.4159 13.6967L89.6991 5.40234H96.6018L88.1888 13.7888L92.6726 26.8754H86.6903L83.469 17.1411Z" fill="#022DB7"/>
<path d="M15.8112 30.9299C24.5435 30.9299 31.6224 24.0187 31.6224 15.4933C31.6224 6.96786 24.5435 0.0566406 15.8112 0.0566406C7.07892 0.0566406 0 6.96786 0 15.4933C0 24.0187 7.07892 30.9299 15.8112 30.9299Z" fill="#022DB7"/>
<path d="M29.0502 8.24805C29.1917 8.48997 29.3333 8.74341 29.4513 8.99684C29.2979 8.9738 29.1446 8.96228 28.9794 8.98532L27.8112 9.10052L26.6549 6.70439L26.8437 6.47399C27.705 6.8887 28.4838 7.51078 29.0502 8.23653V8.24805ZM30.9853 15.4941C30.9853 18.0515 30.3127 20.4706 29.1445 22.5673C29.3569 21.4959 29.3923 20.367 29.2389 19.2495C29.2271 19.1459 29.1563 19.0537 29.062 19.0191L28.3658 18.6966C28.0472 18.5468 27.823 18.2588 27.7522 17.9248L27.3038 15.6553C27.2684 15.4595 27.292 15.2521 27.3746 15.0563C27.3746 15.0333 28.0826 13.3168 28.4012 12.6717C28.6018 12.2685 28.708 12.1994 28.885 12.1303L30.4307 11.5543C30.7847 12.8099 30.9853 14.1347 30.9853 15.5056V15.4941ZM21.8525 29.0875C22.1121 28.477 22.2301 27.6706 22.1947 26.7375C22.1711 26.1615 21.8171 25.8159 21.5103 25.574L20.6372 24.8828L20.1062 24.0188C21.5929 23.3621 22.9853 22.5788 24.236 21.7148L25.4985 22.2447C25.6873 22.3253 25.7227 22.3484 25.6991 22.5327C25.5221 23.9842 24.6962 26.0117 23.6696 26.749C23.292 27.0255 23.1386 27.4171 23.0561 27.6821C22.9381 28.0853 22.8083 28.4654 22.7257 28.6958C22.4425 28.8341 22.1593 28.9723 21.8643 29.099L21.8525 29.0875ZM2.94986 7.62598C3.02065 7.67206 3.10325 7.70662 3.19765 7.72966C3.49263 7.8103 4.40119 8.06373 7.89381 5.59848C9.19175 4.67689 10.3835 3.72074 10.8555 3.32906C11.2212 3.66314 11.9882 4.40041 12.5428 5.02248C11.7168 6.66983 11.3156 7.47622 11.3156 7.47622C11.2566 7.60294 11.292 7.7527 11.3982 7.84485L12.472 8.73189C12.5546 8.80101 12.6726 8.82405 12.7906 8.78948L15.233 7.90245C15.3746 7.84485 15.469 7.6951 15.4336 7.55686L15.1504 6.16295L16.3422 4.79209L17.8171 6.99238C17.8171 6.99238 17.8879 7.07302 17.9469 7.10758L19.8112 7.98309L19.9764 9.05444L17.9705 11.3123L17.2035 11.5312C17.121 11.5543 17.0502 11.6119 17.003 11.6925L16.177 13.4205C16.177 13.4205 16.1416 13.5126 16.1416 13.5587L16.2478 16.2544C16.2478 16.2544 16.2596 16.3465 16.2832 16.3811L16.5782 16.9571L15.7286 16.4156C15.6224 16.3465 15.4926 16.3465 15.3864 16.4156L12.7788 18.0169C12.6844 18.0745 12.6372 18.1667 12.6372 18.2703C12.6372 18.374 12.6844 18.4662 12.767 18.5353L14.9027 20.0099C15.0207 20.0905 15.1858 20.079 15.292 19.9868L15.9174 19.4569L17.3805 20.7586C17.3805 20.7586 17.4631 20.8162 17.5103 20.8278L19.1858 21.277C19.3038 21.3116 19.4218 21.277 19.5044 21.1964L20.5782 20.079L21.6047 20.8162C21.6047 20.8162 21.7345 20.8854 21.8053 20.8738L23.2566 20.8047L23.7168 21.2886C22.5251 22.1065 21.2035 22.8322 19.7876 23.4543L19.528 23.0396L19.764 22.3253C19.7876 22.2447 19.7876 22.1641 19.7404 22.0834C19.6932 22.0028 19.6342 21.9567 19.5516 21.9337L17.3805 21.3001L16.767 20.8623C16.708 20.8162 16.6372 20.8047 16.5546 20.8047L15.3864 20.8854L12.6254 21.1618L10.0767 19.0307C10.0767 19.0307 9.99411 18.9846 9.94691 18.9615C9.93511 18.9615 8.25959 18.5238 6.82006 18.1206C6.76107 14.4342 5.23894 10.6327 4.177 9.36548C4.0944 9.2618 3.94101 9.22724 3.82301 9.27332C3.76402 9.29636 2.60768 9.74564 1.26254 11.1856C1.65192 9.90691 2.23009 8.70885 2.93806 7.60294L2.94986 7.62598ZM21.9469 2.79915C21.5339 3.38666 20.6962 3.45578 20.1062 3.3521L17.9115 2.92587L16.59 1.6702C16.531 1.6126 16.4366 1.57804 16.354 1.57804L14.4779 1.68172L13.8525 0.794687C14.4897 0.714048 15.1386 0.667969 15.8112 0.667969C18.0177 0.667969 19.882 1.0366 21.7699 1.86604C22.1947 2.02731 22.2419 2.39595 21.9469 2.78763V2.79915Z" fill="#FFCD00"/>
<path d="M2.34808 22.3252C2.0295 21.7377 1.75811 21.1156 1.52212 20.482C0.896753 17.9016 2.12389 14.8488 4.92035 12.0725C5.59292 13.7314 6.20649 16.0123 6.20649 18.3969C6.20649 18.5352 6.30088 18.6504 6.43068 18.6965C7.75221 19.0651 9.36873 19.4913 9.72271 19.5835L12.3186 21.7492C12.3894 21.8068 12.472 21.8299 12.5546 21.8183L15.4336 21.5303L16.472 21.4612L17.0383 21.8644C17.0383 21.8644 17.0973 21.899 17.1327 21.9105L19.0442 22.4635L18.8555 23.0049C18.8319 23.0855 18.8319 23.1892 18.8909 23.2583L19.1858 23.7306C12.1062 26.6567 4.90855 25.9885 2.33628 22.3252H2.34808ZM26.2183 7.25721L27.3274 9.56119C27.3864 9.67639 27.5162 9.74551 27.646 9.73399L29.0383 9.59575C29.3569 9.56119 29.6165 9.64183 29.8289 9.82615C29.9823 10.1948 30.1239 10.5749 30.2537 10.9551L28.649 11.5541C28.2714 11.7154 28.0708 11.9228 27.8348 12.3951C27.5044 13.0517 26.8201 14.7451 26.7965 14.8143C26.6667 15.1138 26.6313 15.4478 26.6903 15.7589L27.1386 18.0283C27.1504 18.1205 27.1858 18.2011 27.2094 18.2817C26.3363 19.2379 25.3333 20.1249 24.2006 20.9428L23.587 20.2977C23.528 20.2286 23.4336 20.194 23.3392 20.2056L21.8643 20.2747L20.6962 19.4337C20.5664 19.3416 20.3894 19.3531 20.2832 19.4683L19.1504 20.6433L17.7345 20.2632L16.118 18.8232C16 18.7195 15.823 18.7195 15.6932 18.8232L15.0442 19.3761L13.4985 18.3163L15.528 17.0606L16.6962 17.8094C16.7906 17.867 16.9086 17.8785 17.0147 17.8209C17.1209 17.7749 17.1799 17.6712 17.1917 17.5675L17.2271 17.003C17.2271 17.003 17.2271 16.8994 17.1917 16.8418L16.8496 16.1851L16.7552 13.6392L17.4985 12.1071L18.2065 11.8997C20.6844 11.3007 24.177 9.74551 26.2065 7.26873L26.2183 7.25721ZM23.5162 28.2464C23.5516 28.1197 23.5988 27.9815 23.646 27.8432C23.7404 27.5437 23.8466 27.3594 24.0236 27.2327C25.2035 26.3917 26.1121 24.2145 26.3127 22.6017C26.3953 21.9451 25.9351 21.7492 25.7345 21.6686L24.8142 21.2769C25.8289 20.5281 26.7493 19.7102 27.5516 18.8462C27.705 19.0075 27.882 19.1457 28.0944 19.2494L28.6254 19.5028C28.8378 21.2769 28.5546 23.051 27.8112 24.5601C26.6313 26.0461 25.1799 27.3018 23.5162 28.258V28.2464ZM13.1681 0.909759L14.0649 2.18847C14.1239 2.28062 14.2301 2.3267 14.3481 2.3267L16.2714 2.22302L17.5575 3.44413C17.5575 3.44413 17.6519 3.51325 17.7109 3.52477L20 3.96253C20.1888 3.99709 20.3894 4.02013 20.6018 4.02013C21.2861 4.02013 22.0295 3.80125 22.4779 3.15614C22.6667 2.9027 22.7493 2.6147 22.7375 2.31518C24.6372 3.27134 26.3127 4.60764 27.646 6.22042C27.3982 6.07067 27.1504 5.94395 26.8909 5.82875C26.7611 5.77115 26.6077 5.80571 26.5133 5.92091L26.0531 6.48538C24.4248 8.73176 21.4867 10.2524 19.1032 11.0012L20.5664 9.34231C20.6254 9.27319 20.649 9.18103 20.6372 9.08887L20.4248 7.71801C20.413 7.61433 20.3422 7.53369 20.2478 7.48761L18.3127 6.57754L16.6608 4.10077C16.6018 4.02013 16.5192 3.96253 16.413 3.96253C16.3186 3.96253 16.2124 3.99709 16.1534 4.06621L14.5959 5.86331C14.5369 5.93243 14.5133 6.03611 14.5251 6.12826L14.7847 7.40697L12.767 8.13272L12.0236 7.52217C12.2006 7.16505 12.6018 6.37018 13.2271 5.103C13.2861 4.99932 13.2625 4.86108 13.1917 4.76892C12.4248 3.85885 11.1622 2.71838 11.1032 2.6723C10.9852 2.56862 10.8083 2.56862 10.6785 2.6723C8.44838 4.56156 4.50737 7.44153 3.38643 7.13049C3.36283 7.13049 3.33923 7.10746 3.31563 7.09594C5.58112 3.88189 9.09734 1.58943 13.1799 0.886719L13.1681 0.909759ZM0.920351 12.637C2.14749 10.9666 3.37463 10.2293 3.84661 9.98742C4.08259 10.3215 4.36578 10.8284 4.64896 11.4504C2.50147 13.524 1.19174 15.7589 0.825956 17.8785C0.696163 17.0952 0.625366 16.3003 0.625366 15.4939C0.625366 14.5147 0.719762 13.5586 0.908552 12.637H0.920351ZM15.8112 30.3085C10.8909 30.3085 6.50147 28.0045 3.72861 24.4449C5.47492 25.5623 7.8584 26.1498 10.5605 26.1498C13.2625 26.1498 16.4484 25.5277 19.5162 24.249L20.1298 25.2282C20.1298 25.2282 20.177 25.2858 20.2006 25.3089L21.1209 26.0346C21.4277 26.2765 21.5575 26.4839 21.5693 26.7489C21.6165 28.0045 21.3451 29.0298 20.8614 29.456C19.2802 30.009 17.5811 30.3085 15.7994 30.3085H15.8112Z" fill="white"/>
<path d="M198.289 1.88926H155.257V0.218877H200V31H121.392V23.6618H123.115V29.3181H198.289V1.88926ZM181.982 7.72984V9.40022H179.563V13.8239H177.322V9.40022H174.914V7.72984H181.97H181.982ZM162.844 10.7826C162.844 12.7871 161.204 14.0427 158.608 14.0427C156.012 14.0427 154.372 12.7755 154.372 10.7826C154.372 8.78967 156.012 7.52248 158.608 7.52248C161.204 7.52248 162.844 8.78967 162.844 10.7826ZM160.46 10.7826C160.46 9.78038 159.729 9.10071 158.608 9.10071C157.487 9.10071 156.743 9.76886 156.743 10.7826C156.743 11.7964 157.487 12.453 158.608 12.453C159.729 12.453 160.46 11.7964 160.46 10.7826ZM171.032 13.8354H168.555L167.233 11.8424H165.923V13.8354H163.67V7.72984H168.047C170.206 7.72984 170.832 8.74359 170.832 9.7343C170.832 10.4255 170.513 11.1973 169.534 11.5775L171.044 13.8354H171.032ZM168.448 9.80342C168.448 9.43478 168.224 9.12375 167.516 9.12375H165.923V10.5177H167.504C168.224 10.5177 168.448 10.1951 168.448 9.80342ZM190.619 7.72984L187.587 11.8194V13.8354H185.333V11.8194L182.301 7.72984H184.802L186.265 9.95318C186.431 10.1721 186.466 10.2527 186.49 10.3218H186.513C186.537 10.2527 186.572 10.1721 186.737 9.95318L188.271 7.72984H190.619ZM174.147 7.72984V13.8354H171.894V7.72984H174.147ZM153.534 7.72984V13.8354H151.292V11.4853H148.283V13.8354H146.029V7.72984H148.283V10.0223H151.292V7.72984H153.534ZM145.782 6.31289H143.304L141.982 4.31996H140.673V6.31289H138.419V0.207358H142.796C144.956 0.207358 145.581 1.22111 145.581 2.21182C145.581 2.90301 145.251 3.67484 144.283 4.055L145.794 6.30138L145.782 6.31289ZM143.198 2.29246C143.198 1.92382 142.973 1.61278 142.265 1.61278H140.673V3.00669H142.254C142.973 3.00669 143.198 2.68413 143.198 2.29246ZM153.015 0.218877V1.90078H150.608V6.32441H148.366V1.90078H145.959V0.218877H153.015ZM145.086 7.72984V9.40022H142.678V13.8239H140.437V9.40022H138.03V7.72984H145.086ZM147.67 15.356V21.4615H145.463L142.785 18.6161C142.631 18.4318 142.336 18.0632 142.254 17.8443H142.206V21.4615H140.165V15.356H142.501L145.062 18.2014C145.274 18.4664 145.463 18.6968 145.593 18.9617H145.64V15.3675H147.67V15.356ZM128.897 15.356V21.4615H126.69L124.012 18.6161C123.858 18.4318 123.563 18.0632 123.481 17.8443H123.434V21.4615H121.392V15.356H123.729L126.289 18.2014C126.501 18.4664 126.69 18.6968 126.82 18.9617H126.867V15.3675H128.897V15.356ZM152.484 15.356V19.2612C152.484 21.0353 151.186 21.5537 149.687 21.5537C149.227 21.5537 148.779 21.5191 148.46 21.45V19.8257C148.649 19.8488 148.861 19.8718 149.062 19.8718C149.687 19.8718 150.242 19.6875 150.242 18.8465V15.356H152.484ZM137.794 15.356L134.761 19.4456V21.4615H132.507V19.4456L129.475 15.356H131.976L133.44 17.5793C133.605 17.7982 133.64 17.8789 133.664 17.948H133.687C133.711 17.8789 133.746 17.7982 133.912 17.5793L135.457 15.356H137.805H137.794ZM137.074 7.72984V11.1397C137.074 12.9138 135.74 14.0427 133.31 14.0427C130.879 14.0427 129.546 12.8907 129.546 11.1167V7.72984H131.799V10.8748C131.799 11.7848 132.307 12.3493 133.31 12.3493C134.265 12.3493 134.82 11.7733 134.82 10.8748V7.72984H137.074ZM129.487 13.8354H127.08L126.596 12.6719H123.67L123.186 13.8354H120.767L123.67 7.72984H126.596L129.499 13.8354H129.487ZM126.041 11.3471L125.605 10.2873C125.345 9.71126 125.204 9.36566 125.133 8.97399H125.109C125.027 9.36566 124.885 9.71126 124.637 10.2873L124.201 11.3471H126.041ZM128.555 2.30398C128.555 3.67484 127.493 4.53883 125.829 4.53883H123.658V6.31289H121.404V0.207358H125.782C127.528 0.207358 128.555 0.97919 128.555 2.29246V2.30398ZM126.183 2.3731C126.183 1.87774 125.853 1.61278 125.215 1.61278H123.658V3.13341H125.204C125.829 3.13341 126.183 2.86845 126.183 2.3731ZM137.581 3.26013C137.581 5.26459 135.941 6.52025 133.345 6.52025C130.749 6.52025 129.109 5.25307 129.109 3.26013C129.109 1.26719 130.749 0 133.345 0C135.941 0 137.581 1.26719 137.581 3.26013ZM135.209 3.26013C135.209 2.2579 134.478 1.58974 133.357 1.58974C132.236 1.58974 131.493 2.2579 131.493 3.26013C131.493 4.26236 132.236 4.93051 133.357 4.93051C134.478 4.93051 135.209 4.27388 135.209 3.26013Z" fill="#022DB7"/>
<path d="M108.142 0V30.9885" stroke="#022DB7" stroke-width="1.3" stroke-miterlimit="10"/>
</svg>
