<svg width="200" height="32" viewBox="0 0 200 32" fill="none" xmlns="http://www.w3.org/2000/svg">
<path d="M0 1.14771V0L16.4299 5.15854C16.5207 5.18702 16.5967 5.25022 16.6415 5.33448C16.6864 5.41875 16.6964 5.51734 16.6695 5.60898L15.7417 8.55231C15.7278 8.59658 15.7052 8.63764 15.6754 8.67312C15.6456 8.7086 15.609 8.7378 15.5679 8.75902C15.5268 8.78025 15.4819 8.79309 15.4358 8.79679C15.3897 8.8005 15.3433 8.795 15.2993 8.78062L0.768039 4.16508C0.679617 4.13743 0.600575 4.08524 0.539793 4.01439C0.479011 3.94354 0.438897 3.85683 0.423958 3.764L0 1.14771Z" fill="#A34E9F"/>
<path d="M15.4468 9.68146L14.4514 12.8469C14.4317 12.9074 14.389 12.9575 14.3326 12.9864C14.2762 13.0153 14.2106 13.0206 14.1503 13.0012L1.06296 8.84227C1.01861 8.82816 0.979304 8.8014 0.949845 8.76524C0.920386 8.72908 0.902045 8.68509 0.897059 8.63864L0.497678 5.03507C0.492913 4.99536 0.498077 4.95509 0.512705 4.91789C0.527333 4.88069 0.550962 4.84773 0.581458 4.82201C0.611953 4.79628 0.648352 4.7786 0.687364 4.77055C0.726376 4.7625 0.76677 4.76434 0.804894 4.77591L15.2932 9.3791C15.3534 9.39888 15.4033 9.44179 15.4321 9.49845C15.4609 9.5551 15.4662 9.6209 15.4468 9.68146Z" fill="#A34E9F"/>
<path d="M22.7462 6.0772C24.2209 6.08131 25.1282 6.0916 25.4682 6.10805C25.5653 6.11293 25.6587 6.14813 25.7357 6.20886C25.8127 6.26958 25.8694 6.35289 25.8983 6.44743L33.7077 31.8637C33.7125 31.8793 33.7136 31.8957 33.7109 31.9118C33.7082 31.9279 33.7019 31.9431 33.6924 31.9563C33.6828 31.9694 33.6703 31.9802 33.656 31.9877C33.6416 31.9952 33.6256 31.9992 33.6094 31.9995H28.5158C28.4961 31.9993 28.4772 31.9932 28.4617 31.9821C28.4462 31.971 28.435 31.9554 28.4297 31.9377L26.7462 26.4583C26.716 26.3587 26.6543 26.2713 26.5703 26.2092C26.4862 26.147 26.3842 26.1132 26.2792 26.1128C25.8983 26.1087 24.7083 26.1046 22.7094 26.1005C20.7104 26.0963 19.5225 26.0963 19.1457 26.1005C19.0396 26.0995 18.9362 26.1327 18.8509 26.195C18.7657 26.2573 18.7031 26.3453 18.6726 26.446L16.9706 31.9192C16.9653 31.9369 16.9541 31.9525 16.9386 31.9636C16.9232 31.9747 16.9042 31.9808 16.8846 31.9809L11.7909 31.9624C11.7747 31.9622 11.7588 31.9582 11.7444 31.9507C11.73 31.9432 11.7175 31.9324 11.708 31.9192C11.6984 31.9061 11.6921 31.8908 11.6894 31.8748C11.6868 31.8587 11.6879 31.8422 11.6926 31.8267L19.5881 6.43509C19.618 6.3417 19.6752 6.25973 19.752 6.20018C19.8289 6.14062 19.9218 6.10633 20.0182 6.10188C20.3623 6.08131 21.2716 6.07309 22.7462 6.0772ZM19.9322 21.2566C19.9246 21.2858 19.9239 21.3163 19.93 21.3459C19.936 21.3754 19.9487 21.4031 19.9671 21.4269C19.9855 21.4508 20.0091 21.47 20.036 21.4833C20.063 21.4966 20.0926 21.5035 20.1226 21.5034H25.1364C25.1664 21.5035 25.196 21.4966 25.223 21.4833C25.2499 21.47 25.2735 21.4508 25.2919 21.4269C25.3103 21.4031 25.323 21.3754 25.3291 21.3459C25.3351 21.3163 25.3344 21.2858 25.3269 21.2566L22.82 11.8651C22.8092 11.8227 22.7846 11.785 22.7501 11.7581C22.7156 11.7312 22.6732 11.7166 22.6295 11.7166C22.5859 11.7166 22.5434 11.7312 22.5089 11.7581C22.4745 11.785 22.4499 11.8227 22.439 11.8651L19.9322 21.2566Z" fill="#A34E9F"/>
<path d="M42.746 6.07227H38.1869C38.041 6.07227 37.9227 6.19106 37.9227 6.3376V31.723C37.9227 31.8696 38.041 31.9883 38.1869 31.9883H42.746C42.8919 31.9883 43.0102 31.8696 43.0102 31.723V6.3376C43.0102 6.19106 42.8919 6.07227 42.746 6.07227Z" fill="#A34E9F"/>
<path d="M66.0022 31.8637C66.0085 31.8771 66.0113 31.8918 66.0103 31.9065C66.0094 31.9212 66.0046 31.9355 65.9966 31.9478C65.9886 31.9602 65.9776 31.9703 65.9646 31.9772C65.9516 31.9841 65.937 31.9875 65.9223 31.9871H60.841C60.8101 31.9871 60.7797 31.9777 60.7535 31.9602C60.7274 31.9427 60.7065 31.9178 60.6935 31.8884L56.7182 23.0214C56.68 22.9349 56.6173 22.8615 56.5376 22.81C56.458 22.7585 56.3649 22.7312 56.2696 22.7314H53.1606C53.0742 22.7314 52.9914 22.7652 52.9303 22.8254C52.8693 22.8855 52.8349 22.9672 52.8349 23.0522V31.7156C52.8349 31.7876 52.8065 31.8567 52.7558 31.9076C52.7051 31.9585 52.6363 31.9871 52.5646 31.9871H47.9994C47.9342 31.9871 47.8717 31.9611 47.8256 31.9148C47.7795 31.8685 47.7536 31.8058 47.7536 31.7403V6.28701C47.7536 6.22974 47.7763 6.1748 47.8166 6.1343C47.8569 6.0938 47.9116 6.07105 47.9687 6.07105C52.8022 6.0875 56.4437 6.08133 58.8932 6.05253C62.4262 6.00934 65.1174 6.74363 65.2342 10.5693C65.3693 14.8763 65.3591 17.6325 65.2035 18.8378C64.9618 20.689 63.9603 21.9128 62.1989 22.5092C62.1568 22.524 62.1182 22.5475 62.0857 22.5782C62.0531 22.6088 62.0274 22.646 62.01 22.6873C61.9926 22.7285 61.9841 22.773 61.9849 22.8178C61.9856 22.8626 61.9958 22.9067 62.0146 22.9474L66.0022 31.8637ZM60.245 11.137C60.245 11.0274 60.2016 10.9222 60.1244 10.8447C60.0472 10.7672 59.9425 10.7236 59.8333 10.7236H53.2098C53.1006 10.7236 52.9959 10.7672 52.9187 10.8447C52.8415 10.9222 52.7981 11.0274 52.7981 11.137V17.7888C52.7981 17.8985 52.8415 18.0036 52.9187 18.0812C52.9959 18.1587 53.1006 18.2022 53.2098 18.2022H59.8333C59.9425 18.2022 60.0472 18.1587 60.1244 18.0812C60.2016 18.0036 60.245 17.8985 60.245 17.7888V11.137Z" fill="#A34E9F"/>
<path d="M75.575 31.8266C75.575 31.8708 75.5576 31.9132 75.5265 31.9444C75.4953 31.9756 75.4532 31.9932 75.4092 31.9932H70.6596C70.614 31.9932 70.5702 31.9743 70.5379 31.9408C70.5057 31.9072 70.4876 31.8617 70.4876 31.8143V6.28691C70.4876 6.23291 70.5089 6.18111 70.5469 6.14293C70.585 6.10474 70.6365 6.08328 70.6903 6.08328C76.3881 6.06272 80.6728 6.07094 83.5442 6.10797C86.6778 6.14499 88.3081 7.68556 88.4351 10.7297C88.5088 12.5644 88.5314 14.6047 88.5027 16.8508C88.4474 21.4293 87.2185 23.0521 82.7639 23.0275C78.8029 23.0069 76.5315 23.0048 75.9499 23.0213C75.8493 23.0245 75.754 23.0669 75.684 23.1394C75.6141 23.212 75.575 23.309 75.575 23.41V31.8266ZM83.3598 11.082C83.3599 11.0269 83.3492 10.9723 83.3283 10.9214C83.3073 10.8704 83.2766 10.8241 83.2379 10.7851C83.1992 10.7461 83.1532 10.7151 83.1025 10.6939C83.0519 10.6727 82.9976 10.6618 82.9427 10.6617L76.0242 10.6496C75.9693 10.6495 75.915 10.6602 75.8642 10.6812C75.8135 10.7022 75.7674 10.7331 75.7285 10.7719C75.6897 10.8108 75.6588 10.857 75.6377 10.9079C75.6166 10.9588 75.6057 11.0133 75.6056 11.0684L75.5936 18.0164C75.5935 18.0715 75.6042 18.1261 75.6251 18.177C75.646 18.228 75.6767 18.2743 75.7155 18.3133C75.7542 18.3524 75.8002 18.3833 75.8508 18.4045C75.9015 18.4257 75.9558 18.4366 76.0107 18.4367L82.9292 18.4488C82.984 18.4489 83.0384 18.4382 83.0891 18.4172C83.1398 18.3962 83.186 18.3654 83.2248 18.3265C83.2637 18.2876 83.2946 18.2414 83.3156 18.1905C83.3367 18.1396 83.3476 18.0851 83.3477 18.03L83.3598 11.082Z" fill="#A34E9F"/>
<path d="M110.149 27.4891C110.149 28.6805 109.678 29.8231 108.839 30.6655C108 31.508 106.862 31.9812 105.676 31.9812H96.4719C95.2855 31.9812 94.1478 31.508 93.3089 30.6655C92.4701 29.8231 91.9988 28.6805 91.9988 27.4891V10.582C91.9988 9.39058 92.4701 8.24799 93.3089 7.40556C94.1478 6.56312 95.2855 6.08984 96.4719 6.08984H105.676C106.862 6.08984 108 6.56312 108.839 7.40556C109.678 8.24799 110.149 9.39058 110.149 10.582V27.4891ZM105.068 11.2607C105.068 11.1069 105.007 10.9594 104.899 10.8506C104.79 10.7418 104.643 10.6807 104.49 10.6807H97.6577C97.5045 10.6807 97.3576 10.7418 97.2493 10.8506C97.141 10.9594 97.0802 11.1069 97.0802 11.2607V26.8104C97.0802 26.9642 97.141 27.1117 97.2493 27.2205C97.3576 27.3293 97.5045 27.3904 97.6577 27.3904H104.49C104.643 27.3904 104.79 27.3293 104.899 27.2205C105.007 27.1117 105.068 26.9642 105.068 26.8104V11.2607Z" fill="#A34E9F"/>
<path d="M133.59 31.8637C133.596 31.8771 133.599 31.8918 133.598 31.9065C133.597 31.9212 133.592 31.9355 133.584 31.9478C133.576 31.9602 133.565 31.9703 133.552 31.9772C133.539 31.9841 133.524 31.9875 133.51 31.9871H128.428C128.398 31.9871 128.367 31.9777 128.341 31.9602C128.315 31.9427 128.294 31.9178 128.281 31.8884L124.306 23.0214C124.267 22.9349 124.205 22.8615 124.125 22.81C124.045 22.7585 123.952 22.7312 123.857 22.7314H120.748C120.662 22.7314 120.579 22.7652 120.518 22.8254C120.457 22.8855 120.422 22.9672 120.422 23.0522V31.7156C120.422 31.7876 120.394 31.8567 120.343 31.9076C120.293 31.9585 120.224 31.9871 120.152 31.9871H115.587C115.522 31.9871 115.459 31.9611 115.413 31.9148C115.367 31.8685 115.341 31.8058 115.341 31.7403V6.28701C115.341 6.22974 115.364 6.1748 115.404 6.1343C115.444 6.0938 115.499 6.07105 115.556 6.07105C120.39 6.0875 124.031 6.08133 126.481 6.05253C130.014 6.00934 132.705 6.74363 132.822 10.5693C132.957 14.8763 132.947 17.6325 132.791 18.8378C132.549 20.689 131.548 21.9128 129.786 22.5092C129.744 22.524 129.706 22.5475 129.673 22.5782C129.641 22.6088 129.615 22.646 129.597 22.6873C129.58 22.7285 129.572 22.773 129.572 22.8178C129.573 22.8626 129.583 22.9067 129.602 22.9474L133.59 31.8637ZM127.839 11.137C127.839 11.0274 127.795 10.9222 127.718 10.8447C127.641 10.7672 127.536 10.7236 127.427 10.7236H120.803C120.749 10.7236 120.696 10.7343 120.646 10.7551C120.596 10.7758 120.55 10.8063 120.512 10.8447C120.474 10.8831 120.444 10.9287 120.423 10.9788C120.402 11.029 120.392 11.0827 120.392 11.137V17.7888C120.392 17.8431 120.402 17.8969 120.423 17.947C120.444 17.9972 120.474 18.0428 120.512 18.0812C120.55 18.1195 120.596 18.15 120.646 18.1708C120.696 18.1915 120.749 18.2022 120.803 18.2022H127.427C127.536 18.2022 127.641 18.1587 127.718 18.0812C127.795 18.0036 127.839 17.8985 127.839 17.7888V11.137Z" fill="#A34E9F"/>
<path d="M145.706 6.07823C148.75 6.07412 151.736 6.07617 154.665 6.0844C154.71 6.0844 154.754 6.1026 154.786 6.135C154.819 6.16741 154.837 6.21135 154.837 6.25717V10.5086C154.837 10.5528 154.819 10.5952 154.786 10.6265C154.754 10.6577 154.71 10.6752 154.665 10.6752H148.551C148.471 10.6752 148.395 10.7078 148.338 10.7656C148.282 10.8235 148.25 10.9019 148.25 10.9838V31.5685C148.249 31.6694 148.211 31.7662 148.143 31.8403C148.074 31.9144 147.981 31.9605 147.881 31.9696C147.718 31.9861 146.992 31.9943 145.706 31.9943C144.42 31.9943 143.695 31.9881 143.531 31.9758C143.43 31.9665 143.336 31.9196 143.268 31.8442C143.2 31.7688 143.162 31.6704 143.163 31.5685L143.156 10.9838C143.156 10.9019 143.125 10.8235 143.068 10.7656C143.012 10.7078 142.935 10.6752 142.855 10.6752H136.742C136.696 10.6752 136.652 10.6577 136.62 10.6265C136.588 10.5952 136.57 10.5528 136.57 10.5086V6.25717C136.571 6.21243 136.59 6.17005 136.622 6.13897C136.654 6.10789 136.697 6.09054 136.742 6.09057C139.671 6.07823 142.659 6.07412 145.706 6.07823Z" fill="#A34E9F"/>
<path d="M175.807 31.9942H160.293C160.239 31.9942 160.188 31.9728 160.15 31.9346C160.111 31.8964 160.09 31.8446 160.09 31.7906V6.28175C160.09 6.22775 160.111 6.17595 160.15 6.13777C160.188 6.09958 160.239 6.07812 160.293 6.07812H165.079C165.133 6.07813 165.185 6.09958 165.223 6.13777C165.261 6.17595 165.282 6.22775 165.282 6.28175V27.027C165.282 27.081 165.303 27.1328 165.341 27.1709C165.379 27.2091 165.431 27.2306 165.485 27.2306H175.807C175.861 27.2306 175.913 27.252 175.951 27.2902C175.989 27.3284 176.01 27.3802 176.01 27.4342V31.7906C176.01 31.8446 175.989 31.8964 175.951 31.9346C175.913 31.9728 175.861 31.9942 175.807 31.9942Z" fill="#4A95E6"/>
<path d="M188.864 6.07812C189.855 6.07812 190.797 6.10075 191.69 6.146C191.806 6.15188 191.917 6.19291 192.008 6.26354C192.099 6.33417 192.166 6.43099 192.2 6.54091L199.997 31.914C200 31.9243 200.001 31.9352 199.999 31.9457C199.997 31.9562 199.992 31.9661 199.986 31.9745C199.979 31.9829 199.97 31.9897 199.961 31.9942C199.951 31.9987 199.941 32.0008 199.93 32.0004H194.719C194.701 32.0001 194.683 31.9941 194.668 31.9832C194.653 31.9722 194.641 31.9567 194.633 31.9387L193.03 26.7123C192.991 26.5868 192.914 26.4768 192.809 26.3981C192.704 26.3194 192.577 26.276 192.446 26.2742C192.069 26.2742 190.867 26.2721 188.839 26.268C186.812 26.2639 185.607 26.2639 185.226 26.268C185.096 26.2694 184.97 26.3119 184.865 26.3894C184.761 26.467 184.683 26.5756 184.643 26.6999L183.027 31.9202C183.02 31.9382 183.008 31.9537 182.992 31.9646C182.977 31.9756 182.959 31.9816 182.941 31.9819L177.73 31.9695C177.72 31.9699 177.709 31.9678 177.699 31.9633C177.69 31.9588 177.681 31.9521 177.675 31.9436C177.668 31.9352 177.664 31.9253 177.662 31.9148C177.659 31.9043 177.66 31.8934 177.663 31.8831L185.534 6.52857C185.569 6.4198 185.636 6.32431 185.727 6.25485C185.818 6.18539 185.929 6.14526 186.044 6.13983C186.937 6.09869 187.877 6.07812 188.864 6.07812ZM186.001 21.2699C185.993 21.2969 185.992 21.3253 185.997 21.3529C186.002 21.3805 186.013 21.4066 186.03 21.4291C186.046 21.4517 186.068 21.4702 186.093 21.4833C186.117 21.4963 186.145 21.5035 186.173 21.5044H191.334C191.362 21.5035 191.389 21.4963 191.414 21.4833C191.439 21.4702 191.46 21.4517 191.477 21.4291C191.493 21.4066 191.505 21.3805 191.51 21.3529C191.515 21.3253 191.513 21.2969 191.506 21.2699L188.932 11.9278C188.921 11.8883 188.898 11.8534 188.866 11.8285C188.834 11.8035 188.794 11.79 188.753 11.79C188.713 11.79 188.673 11.8035 188.641 11.8285C188.609 11.8534 188.586 11.8883 188.575 11.9278L186.001 21.2699Z" fill="#4A95E6"/>
<path d="M14.1872 13.841L13.1796 17.0558C13.1613 17.1096 13.1227 17.1541 13.0721 17.1795C13.0215 17.2049 12.963 17.2092 12.9092 17.1916L1.56067 13.5942C1.52079 13.5811 1.48558 13.5567 1.45938 13.5238C1.43318 13.4909 1.41713 13.451 1.4132 13.4091L1.00768 9.73764C1.00412 9.70225 1.00933 9.66653 1.02283 9.63365C1.03633 9.60076 1.05771 9.57174 1.08506 9.54915C1.11242 9.52656 1.14491 9.5111 1.17964 9.50416C1.21438 9.49721 1.25028 9.49899 1.28417 9.50933L14.0521 13.5695C14.1056 13.5878 14.1498 13.6266 14.1752 13.6774C14.2005 13.7282 14.2048 13.787 14.1872 13.841Z" fill="#A34E9F"/>
<path d="M12.9092 18.048L11.92 21.2073C11.9003 21.2678 11.8575 21.3179 11.8011 21.3468C11.7447 21.3758 11.6792 21.3811 11.6189 21.3616L2.08905 18.3381C2.0447 18.3239 2.0054 18.2972 1.97594 18.261C1.94648 18.2249 1.92814 18.1809 1.92316 18.1344L1.52992 14.537C1.52515 14.4973 1.53032 14.457 1.54495 14.4198C1.55957 14.3826 1.5832 14.3497 1.6137 14.324C1.64419 14.2982 1.68059 14.2805 1.71961 14.2725C1.75862 14.2645 1.79901 14.2663 1.83714 14.2779L12.7556 17.7457C12.8158 17.7655 12.8657 17.8084 12.8945 17.865C12.9233 17.9217 12.9286 17.9875 12.9092 18.048Z" fill="#A34E9F"/>
</svg>
