<svg width="200" height="43" viewBox="0 0 200 43" fill="none" xmlns="http://www.w3.org/2000/svg">
<g clip-path="url(#clip0_1291_4533)">
<path d="M56.852 0L63.124 0.513611C63.1438 0.517375 63.1616 0.527764 63.1746 0.543048C63.1876 0.558332 63.195 0.577587 63.1954 0.597606C63.1959 0.617625 63.1895 0.637199 63.1772 0.653067C63.1649 0.668936 63.1476 0.68014 63.128 0.684815C57.8213 1.42802 52.6907 2.53488 47.736 4.00537C47.6528 4.03023 47.5642 4.03028 47.481 4.00552C47.3978 3.98075 47.3238 3.93225 47.268 3.86602C46.2467 2.65299 44.9987 1.57269 43.524 0.625093C43.5082 0.614484 43.4961 0.599244 43.4893 0.581482C43.4826 0.563719 43.4816 0.544312 43.4864 0.525946C43.4912 0.50758 43.5017 0.491163 43.5163 0.478967C43.5309 0.466771 43.549 0.459399 43.568 0.45787L49.9 0H56.852Z" fill="#003256"/>
<path d="M0 24.916V23.1443C0.309333 21.6977 0.569333 20.7793 0.78 20.3891C3.536 15.3366 8.864 11.7931 13.984 9.33252C22.3787 5.30061 31.2467 2.57196 40.588 1.14659C40.6546 1.13685 40.7226 1.14141 40.7872 1.15996C40.8519 1.17851 40.9117 1.21061 40.9625 1.25408C41.0134 1.29755 41.0542 1.35135 41.0821 1.41182C41.1099 1.47229 41.1242 1.538 41.124 1.60446V1.79558C41.1243 1.87486 41.0975 1.9519 41.0481 2.01409C40.9987 2.07629 40.9296 2.11996 40.852 2.13798C33.012 4.02255 25.6707 6.76844 18.828 10.3757C14.6333 12.5867 11.0773 15.0539 8.16 17.7772C6.856 18.9956 5.86667 20.2935 5.192 21.6711C4.45867 23.1655 4.568 24.5139 5.52 25.7163C5.53507 25.7352 5.55502 25.7498 5.57768 25.7585C5.60033 25.7672 5.6248 25.7696 5.64838 25.7654C5.67196 25.7613 5.69375 25.7508 5.71132 25.7352C5.7289 25.7195 5.74159 25.6992 5.748 25.6765C6.04933 24.6891 6.60667 23.6313 7.42 22.5033C11.164 17.2995 17.096 13.6484 23.016 10.957C29.6187 7.95493 36.6173 5.80625 44.012 4.51095C44.0751 4.49992 44.1399 4.50277 44.2018 4.51928C44.2638 4.53578 44.3213 4.56556 44.3705 4.60651C44.4196 4.64747 44.4592 4.69862 44.4864 4.75639C44.5136 4.81416 44.5278 4.87714 44.528 4.94095V5.12808C44.5282 5.2051 44.503 5.28019 44.4561 5.34197C44.4092 5.40375 44.3431 5.44887 44.268 5.47048C34.38 8.28937 24.32 12.5137 16.396 18.9916C13.9453 20.993 12.0907 23.131 10.832 25.4058C10.264 26.4303 9.95067 27.3182 9.892 28.0694C9.8838 28.171 9.9085 28.2726 9.96248 28.3593C10.0165 28.446 10.0969 28.5132 10.192 28.5511C11.608 29.1192 13.38 29.581 15.508 29.9367C21.1853 30.879 27.2173 31.1139 33.604 30.6414C45.588 29.7522 57.22 27.3235 68.5 23.3553C68.5677 23.3317 68.6402 23.3244 68.7112 23.3342C68.7823 23.344 68.8499 23.3705 68.9083 23.4114C68.9667 23.4524 69.0143 23.5067 69.0469 23.5697C69.0796 23.6327 69.0964 23.7025 69.096 23.7734V24.0162C69.0958 24.106 69.0706 24.1938 69.0233 24.2698C68.9759 24.3457 68.9083 24.4069 68.828 24.4462C58.492 29.5213 47.8147 32.8286 36.796 34.3681C29.412 35.3993 22.368 35.8173 15.096 34.8618C11.3893 34.376 8.088 33.3462 5.192 31.7721C2.392 30.2486 0.661333 27.9632 0 24.916Z" fill="#003256"/>
<path d="M81.548 13.7761C81.64 19.5094 87.828 21.309 91.628 17.4351C91.6334 17.4292 91.6399 17.4246 91.6473 17.4215C91.6546 17.4183 91.6626 17.4167 91.6708 17.4167C91.679 17.4167 91.6872 17.4183 91.695 17.4215C91.7027 17.4246 91.7099 17.4292 91.716 17.4351L93.528 19.2387C93.5503 19.2613 93.5632 19.2912 93.564 19.3218C93.5647 19.3524 93.5532 19.3812 93.532 19.4019C88.232 24.8884 78.64 21.9102 78.508 13.8278C78.38 5.74543 87.868 2.45672 93.344 7.772C93.3657 7.79217 93.3778 7.82069 93.3778 7.85129C93.3778 7.8819 93.3657 7.91209 93.344 7.93524L91.592 9.79459C91.5861 9.80067 91.5792 9.8056 91.5716 9.80909C91.564 9.81259 91.5558 9.81458 91.5476 9.81495C91.5395 9.81532 91.5314 9.81406 91.5239 9.81125C91.5164 9.80844 91.5096 9.80413 91.504 9.79857C87.58 6.04802 81.456 8.04274 81.548 13.7761Z" fill="#003256"/>
<path d="M179.072 13.6922C179.072 14.8174 178.849 15.9315 178.417 16.9711C177.984 18.0106 177.35 18.9551 176.551 19.7508C175.751 20.5464 174.803 21.1775 173.758 21.6081C172.714 22.0387 171.594 22.2603 170.464 22.2603C169.334 22.2603 168.214 22.0387 167.17 21.6081C166.125 21.1775 165.177 20.5464 164.377 19.7508C163.578 18.9551 162.944 18.0106 162.511 16.9711C162.079 15.9315 161.856 14.8174 161.856 13.6922C161.856 12.567 162.079 11.4528 162.511 10.4133C162.944 9.37375 163.578 8.4292 164.377 7.63358C165.177 6.83795 166.125 6.20682 167.17 5.77624C168.214 5.34565 169.334 5.12402 170.464 5.12402C172.747 5.12402 174.936 6.02674 176.551 7.63358C178.165 9.24042 179.072 11.4198 179.072 13.6922ZM170.098 7.83107C168.616 7.92384 167.235 8.6303 166.257 9.79506C165.279 10.9598 164.785 12.4874 164.883 14.0419C164.932 14.8116 165.124 15.5647 165.45 16.2582C165.776 16.9518 166.228 17.5721 166.781 18.0839C167.334 18.5957 167.977 18.9889 168.673 19.241C169.369 19.4931 170.105 19.5992 170.838 19.5533C172.32 19.4605 173.701 18.754 174.679 17.5893C175.657 16.4245 176.151 14.8969 176.053 13.3424C176.004 12.5727 175.812 11.8196 175.486 11.1261C175.16 10.4326 174.708 9.81222 174.155 9.30044C173.602 8.78866 172.959 8.39549 172.263 8.14337C171.567 7.89126 170.831 7.78514 170.098 7.83107Z" fill="#003256"/>
<path d="M101.7 5.60998V19.1271C101.7 19.163 101.714 19.1974 101.74 19.2228C101.765 19.2482 101.8 19.2625 101.836 19.2625H110.216C110.252 19.2625 110.287 19.2767 110.312 19.3021C110.338 19.3275 110.352 19.3619 110.352 19.3979V21.7628C110.352 21.7988 110.338 21.8332 110.312 21.8586C110.287 21.884 110.252 21.8982 110.216 21.8982H98.936C98.8999 21.8982 98.8653 21.884 98.8398 21.8586C98.8143 21.8332 98.8 21.7988 98.8 21.7628V5.60998C98.8 5.57408 98.8143 5.53965 98.8398 5.51426C98.8653 5.48887 98.8999 5.47461 98.936 5.47461H101.564C101.6 5.47461 101.635 5.48887 101.66 5.51426C101.686 5.53965 101.7 5.57408 101.7 5.60998Z" fill="#003256"/>
<path d="M118.304 5.47461H115.696C115.614 5.47461 115.548 5.54056 115.548 5.62192V21.7469C115.548 21.8283 115.614 21.8942 115.696 21.8942H118.304C118.386 21.8942 118.452 21.8283 118.452 21.7469V5.62192C118.452 5.54056 118.386 5.47461 118.304 5.47461Z" fill="#003256"/>
<path d="M131.272 14.4529C130.24 13.1231 129.213 11.8132 128.192 10.5232C128.182 10.5132 128.17 10.5061 128.157 10.5029C128.143 10.4996 128.129 10.5004 128.116 10.505C128.103 10.5096 128.091 10.518 128.083 10.529C128.074 10.54 128.069 10.5532 128.068 10.567V21.6992C128.068 21.7362 128.053 21.7716 128.027 21.7978C128.001 21.8239 127.965 21.8386 127.928 21.8386H125.348C125.313 21.8386 125.279 21.8252 125.255 21.8013C125.23 21.7774 125.216 21.745 125.216 21.7112V5.622C125.216 5.56815 125.237 5.5165 125.276 5.47842C125.314 5.44034 125.366 5.41895 125.42 5.41895H127.536C127.61 5.41908 127.683 5.436 127.75 5.46842C127.816 5.50085 127.874 5.54792 127.92 5.60608C128.304 6.09447 130.168 8.49265 133.512 12.8006C134.544 14.1304 135.569 15.4417 136.588 16.7343C136.597 16.7458 136.61 16.7541 136.624 16.7582C136.638 16.7622 136.653 16.7618 136.667 16.7571C136.681 16.7523 136.694 16.7433 136.702 16.7314C136.711 16.7195 136.716 16.7052 136.716 16.6905V5.5583C136.716 5.52134 136.731 5.48589 136.757 5.45976C136.783 5.43363 136.819 5.41895 136.856 5.41895H139.436C139.453 5.41895 139.47 5.42224 139.487 5.42864C139.503 5.43505 139.517 5.44443 139.529 5.45626C139.542 5.46809 139.551 5.48214 139.558 5.4976C139.565 5.51305 139.568 5.52962 139.568 5.54635V21.6355C139.568 21.6894 139.547 21.741 139.508 21.7791C139.47 21.8172 139.418 21.8386 139.364 21.8386H137.248C137.173 21.839 137.099 21.8224 137.032 21.79C136.965 21.7575 136.906 21.7101 136.86 21.6514C136.479 21.1631 134.616 18.7635 131.272 14.4529Z" fill="#003256"/>
<path d="M151.336 5.47468C153.563 5.47203 155.724 5.4707 157.82 5.4707C157.871 5.47071 157.92 5.49127 157.956 5.52785C157.992 5.56444 158.012 5.61406 158.012 5.6658V7.97506C158.012 8.02363 157.993 8.07021 157.958 8.10456C157.924 8.13891 157.877 8.1582 157.828 8.1582H153.02C152.991 8.1582 152.961 8.16397 152.934 8.17518C152.907 8.18638 152.882 8.2028 152.862 8.22351C152.841 8.24421 152.824 8.26879 152.813 8.29584C152.802 8.32289 152.796 8.35189 152.796 8.38117V21.6554C152.796 21.7181 152.771 21.7783 152.727 21.823C152.683 21.8676 152.623 21.8933 152.56 21.8943C152.435 21.897 152.032 21.8983 151.352 21.8983C150.672 21.8983 150.271 21.897 150.148 21.8943C150.085 21.8943 150.025 21.8697 149.98 21.8258C149.935 21.7818 149.909 21.7221 149.908 21.6594L149.884 8.38515C149.884 8.35553 149.878 8.32621 149.867 8.29889C149.855 8.27158 149.838 8.24682 149.817 8.22606C149.796 8.20531 149.771 8.18897 149.743 8.178C149.715 8.16703 149.686 8.16166 149.656 8.16218L144.848 8.17015C144.799 8.17015 144.752 8.15085 144.718 8.1165C144.683 8.08216 144.664 8.03557 144.664 7.987L144.66 5.67774C144.66 5.65177 144.665 5.62607 144.675 5.60213C144.685 5.57819 144.699 5.5565 144.718 5.53833C144.736 5.52016 144.758 5.50588 144.781 5.49632C144.805 5.48675 144.83 5.48211 144.856 5.48265C146.949 5.47734 149.109 5.47468 151.336 5.47468Z" fill="#003256"/>
<path d="M187.668 21.8942H185.076C185.042 21.8942 185.009 21.8808 184.985 21.8569C184.961 21.833 184.948 21.8006 184.948 21.7668V5.60599C184.948 5.5722 184.961 5.53979 184.985 5.5159C185.009 5.492 185.042 5.47858 185.076 5.47858H187.572C187.592 5.47796 187.612 5.48195 187.63 5.49024C187.648 5.49854 187.664 5.5109 187.676 5.52636L196.224 16.559C196.241 16.5797 196.263 16.5947 196.289 16.602C196.314 16.6093 196.341 16.6085 196.366 16.5997C196.391 16.591 196.413 16.5747 196.428 16.5532C196.444 16.5316 196.452 16.5058 196.452 16.4794V5.60599C196.452 5.5722 196.465 5.53979 196.489 5.5159C196.513 5.492 196.546 5.47858 196.58 5.47858H199.168C199.202 5.47858 199.235 5.492 199.259 5.5159C199.283 5.53979 199.296 5.5722 199.296 5.60599V21.7668C199.296 21.8006 199.283 21.833 199.259 21.8569C199.235 21.8808 199.202 21.8942 199.168 21.8942H196.924C196.904 21.8948 196.884 21.8909 196.866 21.8826C196.848 21.8743 196.832 21.8619 196.82 21.8464L188.024 10.4952C188.007 10.4746 187.985 10.4596 187.959 10.4523C187.934 10.445 187.907 10.4458 187.882 10.4546C187.857 10.4633 187.835 10.4796 187.82 10.5011C187.804 10.5227 187.796 10.5485 187.796 10.5749V21.7668C187.796 21.8006 187.783 21.833 187.759 21.8569C187.735 21.8808 187.702 21.8942 187.668 21.8942Z" fill="#003256"/>
<path d="M92.608 27.1777C92.72 27.1777 92.8293 27.1817 92.936 27.1897C93.0111 27.1952 93.0833 27.2212 93.1447 27.2647C93.206 27.3082 93.2542 27.3676 93.284 27.4365L96.224 34.1652C96.2318 34.1838 96.235 34.204 96.2332 34.2241C96.2314 34.2442 96.2246 34.2635 96.2136 34.2804C96.2025 34.2973 96.1875 34.3112 96.1698 34.321C96.1521 34.3308 96.1322 34.3361 96.112 34.3364H95.172C95.1243 34.3364 95.0776 34.3224 95.0378 34.2962C94.998 34.27 94.9668 34.2328 94.948 34.1891L94.384 32.9031C94.3523 32.8286 94.2994 32.7648 94.232 32.7196C94.1645 32.6743 94.0853 32.6496 94.004 32.6483C93.8253 32.6483 93.3573 32.647 92.6 32.6443C91.84 32.6443 91.3707 32.6443 91.192 32.6443C91.1107 32.6456 91.0315 32.6704 90.964 32.7156C90.8966 32.7608 90.8438 32.8246 90.812 32.8991L90.244 34.1812C90.2252 34.2248 90.194 34.2621 90.1542 34.2882C90.1144 34.3144 90.0677 34.3284 90.02 34.3285L89.08 34.3245C89.0598 34.3241 89.0399 34.3188 89.0222 34.309C89.0045 34.2993 88.9895 34.2853 88.9784 34.2684C88.9674 34.2516 88.9606 34.2322 88.9588 34.2122C88.957 34.1921 88.9602 34.1719 88.968 34.1533L91.928 27.4325C91.9584 27.3644 92.0068 27.3058 92.0681 27.263C92.1294 27.2202 92.2013 27.1949 92.276 27.1897C92.3827 27.1817 92.4933 27.1777 92.608 27.1777ZM92.44 28.9813L91.444 31.2866C91.4343 31.3105 91.4305 31.3363 91.4331 31.3619C91.4356 31.3875 91.4443 31.4121 91.4584 31.4336C91.4726 31.4551 91.4918 31.4729 91.5143 31.4855C91.5369 31.498 91.5622 31.5049 91.588 31.5056L93.596 31.5096C93.6181 31.5103 93.64 31.5053 93.6596 31.4952C93.6792 31.485 93.696 31.4699 93.7083 31.4512C93.7207 31.4326 93.7282 31.4111 93.7302 31.3886C93.7323 31.3661 93.7288 31.3433 93.72 31.3225L92.704 28.9774C92.6924 28.952 92.6736 28.9305 92.65 28.9155C92.6263 28.9006 92.5987 28.8929 92.5707 28.8933C92.5427 28.8937 92.5154 28.9023 92.4921 28.9179C92.4689 28.9335 92.4508 28.9556 92.44 28.9813Z" fill="#003256"/>
<path d="M99.976 27.2257C100.92 27.2284 101.819 27.2271 102.672 27.2218C102.719 27.2218 102.763 27.2402 102.796 27.2731C102.829 27.3059 102.848 27.3505 102.848 27.3969V28.249C102.848 28.2933 102.83 28.3359 102.799 28.3672C102.767 28.3986 102.725 28.4162 102.68 28.4162H100.828C100.766 28.4162 100.707 28.4405 100.664 28.4838C100.62 28.5271 100.596 28.5859 100.596 28.6471L100.592 34.1097C100.592 34.1673 100.572 34.223 100.537 34.2679C100.501 34.3127 100.452 34.344 100.396 34.3566C100.388 34.3592 100.247 34.3606 99.972 34.3606C99.6973 34.3606 99.556 34.3592 99.548 34.3566C99.4925 34.344 99.4429 34.3127 99.4073 34.2679C99.3717 34.223 99.3522 34.1673 99.352 34.1097V28.6471C99.352 28.5859 99.3276 28.5271 99.2841 28.4838C99.2405 28.4405 99.1815 28.4162 99.12 28.4162L97.268 28.4122C97.2234 28.4122 97.1807 28.3946 97.1492 28.3632C97.1177 28.3319 97.1 28.2893 97.1 28.245V27.393C97.1 27.3465 97.1185 27.3019 97.1516 27.2691C97.1846 27.2362 97.2293 27.2178 97.276 27.2178C98.132 27.2257 99.032 27.2284 99.976 27.2257Z" fill="#003256"/>
<path d="M116.336 30.7925C116.336 31.7735 115.944 32.7143 115.248 33.408C114.551 34.1016 113.606 34.4913 112.62 34.4913C111.634 34.4913 110.689 34.1016 109.992 33.408C109.296 32.7143 108.904 31.7735 108.904 30.7925C108.904 30.3068 109 29.8258 109.187 29.3771C109.374 28.9283 109.647 28.5206 109.992 28.1771C110.337 27.8336 110.747 27.5612 111.198 27.3753C111.649 27.1894 112.132 27.0937 112.62 27.0938C113.108 27.0937 113.591 27.1894 114.042 27.3753C114.493 27.5612 114.903 27.8336 115.248 28.1771C115.593 28.5206 115.866 28.9283 116.053 29.3771C116.24 29.8258 116.336 30.3068 116.336 30.7925ZM112.466 28.2605C112.148 28.2787 111.838 28.3621 111.552 28.506C111.266 28.6499 111.011 28.8514 110.8 29.099C110.589 29.3466 110.428 29.6355 110.324 29.9492C110.22 30.2629 110.177 30.5952 110.196 30.9272C110.215 31.2592 110.297 31.5844 110.436 31.8841C110.575 32.1839 110.769 32.4523 111.007 32.6742C111.245 32.8961 111.522 33.067 111.823 33.1772C112.123 33.2875 112.441 33.3348 112.758 33.3166C113.076 33.2984 113.386 33.215 113.672 33.0711C113.958 32.9272 114.213 32.7257 114.424 32.4781C114.635 32.2305 114.797 31.9416 114.9 31.6279C115.004 31.3142 115.047 30.9819 115.028 30.6499C115.009 30.3179 114.927 29.9928 114.788 29.693C114.649 29.3933 114.455 29.1248 114.217 28.9029C113.979 28.681 113.702 28.5101 113.401 28.3999C113.101 28.2897 112.783 28.2423 112.466 28.2605Z" fill="#003256"/>
<path d="M130.924 32.6484C130.167 32.6484 129.699 32.6484 129.52 32.6484C129.438 32.6489 129.358 32.6733 129.29 32.7186C129.221 32.7638 129.168 32.828 129.136 32.9032L128.568 34.1892C128.549 34.2321 128.517 34.2685 128.477 34.294C128.438 34.3194 128.391 34.3328 128.344 34.3325H127.404C127.384 34.3322 127.364 34.3268 127.346 34.3171C127.328 34.3073 127.313 34.2934 127.302 34.2765C127.291 34.2596 127.285 34.2403 127.283 34.2202C127.281 34.2001 127.284 34.1799 127.292 34.1613L130.256 27.4326C130.286 27.3637 130.335 27.3042 130.396 27.2607C130.457 27.2172 130.529 27.1913 130.604 27.1858C130.711 27.1778 130.821 27.1738 130.936 27.1738C131.048 27.1765 131.157 27.1818 131.264 27.1898C131.338 27.1949 131.41 27.2202 131.471 27.263C131.533 27.3058 131.581 27.3644 131.612 27.4326L134.556 34.1693C134.564 34.1879 134.567 34.2081 134.565 34.2282C134.563 34.2482 134.557 34.2676 134.546 34.2844C134.535 34.3013 134.519 34.3153 134.502 34.325C134.484 34.3348 134.464 34.3401 134.444 34.3405H133.504C133.456 34.3404 133.41 34.3264 133.37 34.3003C133.33 34.2741 133.299 34.2368 133.28 34.1932L132.712 32.9072C132.68 32.8326 132.627 32.7689 132.56 32.7236C132.493 32.6784 132.413 32.6536 132.332 32.6523C132.153 32.6497 131.684 32.6484 130.924 32.6484ZM130.796 29.0053L129.812 31.2907C129.802 31.315 129.798 31.3413 129.801 31.3673C129.803 31.3934 129.812 31.4184 129.826 31.44C129.84 31.4617 129.86 31.4794 129.882 31.4915C129.905 31.5037 129.93 31.5099 129.956 31.5097H131.948C131.97 31.5097 131.992 31.5042 132.012 31.4936C132.031 31.483 132.048 31.4676 132.06 31.449C132.072 31.4303 132.079 31.4089 132.08 31.3868C132.082 31.3647 132.077 31.3426 132.068 31.3225L131.056 29.0013C131.045 28.9763 131.027 28.9552 131.004 28.9406C130.982 28.9259 130.955 28.9183 130.927 28.9187C130.9 28.9192 130.872 28.9276 130.849 28.9429C130.826 28.9583 130.807 28.98 130.796 29.0053Z" fill="#003256"/>
<path d="M150.552 32.6523C149.795 32.6496 149.327 32.6483 149.148 32.6483C149.066 32.6488 148.986 32.6732 148.918 32.7185C148.849 32.7638 148.796 32.828 148.764 32.9031L148.196 34.1891C148.177 34.2328 148.146 34.27 148.106 34.2962C148.066 34.3224 148.02 34.3364 147.972 34.3364L147.028 34.3325C147.008 34.3321 146.988 34.3268 146.97 34.317C146.952 34.3072 146.937 34.2933 146.926 34.2764C146.915 34.2595 146.909 34.2402 146.907 34.2201C146.905 34.2 146.908 34.1798 146.916 34.1613L149.884 27.4325C149.915 27.3637 149.964 27.3048 150.026 27.2619C150.089 27.2191 150.161 27.1941 150.236 27.1897C150.343 27.1817 150.453 27.1777 150.568 27.1777C150.68 27.1777 150.789 27.1817 150.896 27.1897C150.971 27.1952 151.043 27.2211 151.104 27.2646C151.165 27.3081 151.214 27.3676 151.244 27.4365L154.184 34.1732C154.192 34.1918 154.195 34.212 154.193 34.2321C154.191 34.2521 154.185 34.2715 154.174 34.2883C154.163 34.3052 154.148 34.3192 154.13 34.3289C154.112 34.3387 154.092 34.344 154.072 34.3444H153.128C153.08 34.3443 153.034 34.3303 152.994 34.3042C152.954 34.278 152.923 34.2408 152.904 34.1971L152.34 32.9111C152.308 32.8365 152.255 32.7728 152.188 32.7275C152.121 32.6823 152.041 32.6575 151.96 32.6563C151.781 32.6536 151.312 32.6523 150.552 32.6523ZM150.412 29.0013L149.428 31.2906C149.418 31.3149 149.414 31.3412 149.417 31.3673C149.419 31.3933 149.428 31.4183 149.442 31.4399C149.456 31.4616 149.476 31.4793 149.498 31.4914C149.521 31.5036 149.546 31.5098 149.572 31.5096L151.568 31.5056C151.59 31.5057 151.612 31.5002 151.632 31.4895C151.651 31.4789 151.668 31.4636 151.68 31.4449C151.692 31.4262 151.699 31.4049 151.7 31.3827C151.702 31.3606 151.697 31.3385 151.688 31.3185L150.672 28.9933C150.661 28.9685 150.643 28.9477 150.619 28.9334C150.596 28.919 150.569 28.9119 150.542 28.9127C150.514 28.9136 150.487 28.9224 150.464 28.9381C150.441 28.9538 150.423 28.9758 150.412 29.0013Z" fill="#003256"/>
<path d="M183.936 30.7925C183.936 31.7735 183.544 32.7143 182.848 33.408C182.151 34.1016 181.206 34.4913 180.22 34.4913C179.234 34.4913 178.289 34.1016 177.592 33.408C176.896 32.7143 176.504 31.7735 176.504 30.7925C176.504 30.3068 176.6 29.8258 176.787 29.3771C176.974 28.9283 177.247 28.5206 177.592 28.1771C177.937 27.8336 178.347 27.5612 178.798 27.3753C179.249 27.1894 179.732 27.0937 180.22 27.0938C180.708 27.0937 181.191 27.1894 181.642 27.3753C182.093 27.5612 182.503 27.8336 182.848 28.1771C183.193 28.5206 183.466 28.9283 183.653 29.3771C183.84 29.8258 183.936 30.3068 183.936 30.7925ZM180.048 28.2616C179.407 28.3029 178.81 28.6086 178.388 29.1117C177.966 29.6147 177.754 30.2738 177.797 30.944C177.841 31.6142 178.137 32.2405 178.62 32.6853C179.104 33.13 179.736 33.3567 180.376 33.3155C181.017 33.2743 181.614 32.9685 182.036 32.4655C182.458 31.9624 182.67 31.3033 182.627 30.6331C182.583 29.9629 182.287 29.3366 181.804 28.8918C181.32 28.4471 180.688 28.2204 180.048 28.2616Z" fill="#003256"/>
<path d="M200 27.2375V28.3882L197.956 28.4638C197.9 28.4649 197.848 28.488 197.809 28.5282C197.77 28.5684 197.748 28.6225 197.748 28.6788V34.1454C197.748 34.1961 197.728 34.2447 197.692 34.2805C197.656 34.3164 197.607 34.3365 197.556 34.3365H196.7C196.648 34.3365 196.598 34.316 196.561 34.2794C196.525 34.2428 196.504 34.1932 196.504 34.1414V28.6151C196.504 28.5623 196.483 28.5117 196.447 28.4744C196.41 28.437 196.36 28.4161 196.308 28.4161H194.376C194.343 28.4161 194.312 28.4031 194.288 28.3799C194.265 28.3568 194.252 28.3254 194.252 28.2926V27.3291C194.252 27.3157 194.255 27.3024 194.26 27.2901C194.265 27.2777 194.273 27.2666 194.283 27.2573C194.292 27.248 194.304 27.2407 194.317 27.236C194.329 27.2312 194.343 27.229 194.356 27.2296L200 27.2375Z" fill="#003256"/>
<path d="M83.2 31.1588C82.808 30.6544 82.3893 30.1169 81.944 29.5463C81.9313 29.5319 81.9146 29.5217 81.896 29.5169C81.8774 29.5121 81.8577 29.513 81.8396 29.5194C81.8215 29.5258 81.8058 29.5375 81.7945 29.553C81.7831 29.5684 81.7767 29.5869 81.776 29.606V34.1568C81.776 34.1969 81.76 34.2354 81.7315 34.2638C81.703 34.2922 81.6643 34.3081 81.624 34.3081H80.676C80.642 34.3081 80.6095 34.2951 80.5855 34.272C80.5615 34.2488 80.548 34.2174 80.548 34.1847V27.4759C80.5477 27.4223 80.5674 27.3705 80.6036 27.3301C80.6397 27.2898 80.6896 27.2637 80.744 27.2569C81.1333 27.2118 81.428 27.229 81.628 27.3087C81.6958 27.3348 81.7562 27.3772 81.804 27.4321C81.8333 27.4666 82.5987 28.454 84.1 30.3943C84.492 30.8986 84.9107 31.4361 85.356 32.0068C85.3687 32.0212 85.3854 32.0314 85.404 32.0362C85.4226 32.041 85.4423 32.0401 85.4603 32.0337C85.4784 32.0272 85.4942 32.0155 85.5055 32.0001C85.5169 31.9847 85.5233 31.9662 85.524 31.9471V27.3963C85.524 27.3561 85.54 27.3176 85.5685 27.2893C85.597 27.2609 85.6357 27.245 85.676 27.245H86.624C86.6579 27.245 86.6905 27.258 86.7145 27.2811C86.7385 27.3043 86.752 27.3357 86.752 27.3684V34.0772C86.7523 34.1307 86.7325 34.1826 86.6964 34.223C86.6603 34.2633 86.6103 34.2894 86.556 34.2962C86.1667 34.3413 85.872 34.324 85.672 34.2444C85.6042 34.2183 85.5438 34.1759 85.496 34.121C85.4667 34.0865 84.7013 33.0991 83.2 31.1588Z" fill="#003256"/>
<path d="M106.228 27.2773H105.22C105.154 27.2773 105.1 27.3308 105.1 27.3968V34.2131C105.1 34.2791 105.154 34.3325 105.22 34.3325H106.228C106.294 34.3325 106.348 34.2791 106.348 34.2131V27.3968C106.348 27.3308 106.294 27.2773 106.228 27.2773Z" fill="#003256"/>
<path d="M121.52 31.1549C121.128 30.6505 120.709 30.1144 120.264 29.5463C120.252 29.5322 120.235 29.522 120.217 29.517C120.199 29.5121 120.179 29.5126 120.161 29.5186C120.143 29.5245 120.128 29.5356 120.116 29.5505C120.104 29.5653 120.097 29.5833 120.096 29.6021V34.1529C120.096 34.193 120.08 34.2315 120.051 34.2599C120.023 34.2883 119.984 34.3042 119.944 34.3042H118.996C118.962 34.3042 118.93 34.2912 118.906 34.2681C118.881 34.2449 118.868 34.2135 118.868 34.1808V27.472C118.868 27.4184 118.887 27.3666 118.924 27.3262C118.96 27.2859 119.01 27.2598 119.064 27.253C119.453 27.2079 119.748 27.2251 119.948 27.3048C120.016 27.3309 120.076 27.3733 120.124 27.4282C120.153 27.4627 120.92 28.4501 122.424 30.3904C122.813 30.8947 123.231 31.4322 123.676 32.0029C123.689 32.0173 123.705 32.0275 123.724 32.0323C123.743 32.0371 123.762 32.0362 123.78 32.0298C123.798 32.0233 123.814 32.0116 123.826 31.9962C123.837 31.9808 123.843 31.9623 123.844 31.9432V27.3924C123.844 27.3522 123.86 27.3137 123.889 27.2854C123.917 27.257 123.956 27.2411 123.996 27.2411H124.944C124.978 27.2411 125.011 27.2541 125.035 27.2772C125.059 27.3004 125.072 27.3317 125.072 27.3645V34.0733C125.072 34.1268 125.053 34.1787 125.016 34.2191C124.98 34.2594 124.93 34.2854 124.876 34.2923C124.487 34.3374 124.192 34.3201 123.992 34.2405C123.924 34.2144 123.864 34.172 123.816 34.1171C123.787 34.0826 123.021 33.0952 121.52 31.1549Z" fill="#003256"/>
<path d="M141.652 34.3405H136.936C136.9 34.3405 136.865 34.3262 136.84 34.3008C136.814 34.2755 136.8 34.241 136.8 34.2051V27.4127C136.8 27.3768 136.814 27.3424 136.84 27.317C136.865 27.2916 136.9 27.2773 136.936 27.2773H137.916C137.952 27.2773 137.987 27.2916 138.012 27.317C138.038 27.3424 138.052 27.3768 138.052 27.4127V33.0585C138.052 33.0762 138.056 33.0938 138.062 33.1103C138.069 33.1267 138.079 33.1416 138.092 33.1542C138.104 33.1667 138.119 33.1767 138.136 33.1835C138.152 33.1903 138.17 33.1938 138.188 33.1938H141.652C141.688 33.1938 141.723 33.2081 141.748 33.2335C141.774 33.2589 141.788 33.2933 141.788 33.3292V34.2051C141.788 34.241 141.774 34.2755 141.748 34.3008C141.723 34.3262 141.688 34.3405 141.652 34.3405Z" fill="#003256"/>
<path d="M157.572 27.2812H156.572C156.504 27.2812 156.448 27.3365 156.448 27.4047V34.213C156.448 34.2812 156.504 34.3364 156.572 34.3364H157.572C157.64 34.3364 157.696 34.2812 157.696 34.213V27.4047C157.696 27.3365 157.64 27.2812 157.572 27.2812Z" fill="#003256"/>
<path d="M160.856 27.2892C163.04 27.2441 164.295 27.2587 164.62 27.333C166.844 27.8347 167.164 30.6775 164.968 31.5614C164.934 31.5752 164.903 31.5968 164.879 31.6243C164.854 31.6518 164.837 31.6845 164.827 31.7199C164.817 31.7554 164.816 31.7925 164.823 31.8286C164.83 31.8646 164.846 31.8985 164.868 31.9277L166.54 34.0856C166.558 34.1094 166.569 34.1378 166.572 34.1675C166.576 34.1973 166.57 34.2272 166.557 34.2538C166.544 34.2804 166.524 34.3026 166.499 34.3179C166.474 34.3333 166.445 34.3411 166.416 34.3404H165.472C165.408 34.3405 165.346 34.3262 165.289 34.2986C165.232 34.2709 165.183 34.2308 165.144 34.1812L163.416 31.9476C163.392 31.9177 163.362 31.8936 163.327 31.8771C163.293 31.8605 163.255 31.852 163.216 31.852H162.036C161.986 31.852 161.938 31.8717 161.903 31.9068C161.868 31.9419 161.848 31.9895 161.848 32.0391V34.1613C161.848 34.2077 161.83 34.2523 161.798 34.2852C161.765 34.318 161.722 34.3365 161.676 34.3365H160.756C160.715 34.3365 160.675 34.3197 160.646 34.2898C160.616 34.26 160.6 34.2194 160.6 34.1772V27.548C160.6 27.4801 160.627 27.4149 160.675 27.3664C160.723 27.318 160.788 27.2903 160.856 27.2892ZM161.892 28.5593L161.9 30.5819C161.9 30.6316 161.92 30.6792 161.955 30.7142C161.99 30.7493 162.038 30.7691 162.088 30.7691L163.816 30.7651C164.175 30.7638 164.52 30.6473 164.773 30.4413C165.027 30.2352 165.169 29.9564 165.168 29.6662V29.4591C165.168 29.3153 165.132 29.1729 165.064 29.0402C164.995 28.9076 164.895 28.7871 164.768 28.6858C164.642 28.5845 164.492 28.5043 164.327 28.4498C164.163 28.3953 163.986 28.3676 163.808 28.3682L162.08 28.3722C162.03 28.3722 161.982 28.3919 161.947 28.427C161.912 28.4621 161.892 28.5097 161.892 28.5593Z" fill="#003256"/>
<path d="M169 34.1567V27.4558C169 27.4259 169.006 27.3963 169.019 27.3693C169.033 27.3422 169.052 27.3185 169.076 27.2997C169.099 27.281 169.127 27.2677 169.157 27.261C169.187 27.2542 169.218 27.2542 169.248 27.2608C169.371 27.2873 170.111 27.2886 171.468 27.2647C173.284 27.2289 174.74 28.057 174.476 29.9443C174.188 32.0226 172.204 32.1341 170.468 32.0345C170.439 32.0329 170.41 32.0372 170.383 32.047C170.356 32.0569 170.331 32.0722 170.31 32.092C170.289 32.1117 170.273 32.1355 170.261 32.162C170.25 32.1884 170.244 32.2168 170.244 32.2456V34.1567C170.244 34.2031 170.226 34.2477 170.194 34.2806C170.161 34.3134 170.118 34.3319 170.072 34.3319H169.172C169.126 34.3319 169.083 34.3134 169.05 34.2806C169.018 34.2477 169 34.2031 169 34.1567ZM170.248 28.495L170.256 30.8282C170.256 30.8609 170.269 30.8923 170.292 30.9154C170.316 30.9386 170.347 30.9516 170.38 30.9516L171.76 30.9476C172.154 30.9463 172.532 30.8156 172.811 30.5841C173.089 30.3527 173.245 30.0395 173.244 29.7133V29.5939C173.244 29.4323 173.205 29.2723 173.13 29.1232C173.054 28.9741 172.944 28.8387 172.806 28.7248C172.667 28.6109 172.503 28.5207 172.322 28.4595C172.141 28.3982 171.947 28.367 171.752 28.3676L170.372 28.3716C170.339 28.3716 170.308 28.3846 170.284 28.4077C170.261 28.4309 170.248 28.4623 170.248 28.495Z" fill="#003256"/>
<path d="M186.444 27.5554C186.444 27.4881 186.47 27.4235 186.517 27.3752C186.564 27.3268 186.628 27.2987 186.696 27.2966C188.88 27.2488 190.135 27.2621 190.46 27.3364C192.68 27.8381 193.004 30.6769 190.808 31.5608C190.774 31.575 190.744 31.5969 190.72 31.6245C190.696 31.6522 190.679 31.685 190.669 31.7204C190.66 31.7558 190.659 31.7928 190.667 31.8287C190.674 31.8645 190.689 31.8982 190.712 31.9271L192.384 34.081C192.402 34.1048 192.413 34.1332 192.416 34.163C192.419 34.1927 192.414 34.2226 192.401 34.2492C192.388 34.2758 192.368 34.298 192.343 34.3134C192.318 34.3287 192.289 34.3365 192.26 34.3359H191.316C191.253 34.3359 191.19 34.3216 191.133 34.294C191.076 34.2664 191.027 34.2262 190.988 34.1766L189.26 31.947C189.236 31.9171 189.206 31.893 189.171 31.8765C189.137 31.8599 189.099 31.8514 189.06 31.8514L187.88 31.8554C187.83 31.8554 187.782 31.8751 187.747 31.9102C187.712 31.9453 187.692 31.9929 187.692 32.0425L187.696 34.1607C187.696 34.1837 187.692 34.2065 187.683 34.2277C187.674 34.249 187.662 34.2683 187.646 34.2846C187.63 34.3008 187.611 34.3137 187.59 34.3225C187.569 34.3313 187.547 34.3359 187.524 34.3359H186.604C186.563 34.3359 186.524 34.3196 186.495 34.2906C186.466 34.2616 186.449 34.2221 186.448 34.1806L186.444 27.5554ZM187.7 28.495L187.708 30.6371C187.708 30.6687 187.721 30.6991 187.743 30.7215C187.766 30.7439 187.796 30.7565 187.828 30.7565L189.668 30.7525C190.024 30.7513 190.366 30.6311 190.617 30.4183C190.868 30.2055 191.009 29.9176 191.008 29.6178V29.4984C191.008 29.3498 190.972 29.2028 190.904 29.0658C190.836 28.9287 190.737 28.8044 190.612 28.6997C190.487 28.5951 190.338 28.5122 190.175 28.4559C190.012 28.3996 189.837 28.371 189.66 28.3716L187.82 28.3756C187.788 28.3756 187.758 28.3882 187.735 28.4106C187.713 28.433 187.7 28.4633 187.7 28.495Z" fill="#003256"/>
<path d="M33.8 42.9999H33.444C33.204 42.9124 33.0987 42.9124 33.128 42.9999H27.852C22.44 42.5978 17.408 41.917 12.476 39.6396C9.85999 38.4319 7.78799 36.6508 6.25999 34.2964C6.24806 34.2762 6.24283 34.2528 6.24503 34.2295C6.24723 34.2062 6.25675 34.1841 6.27225 34.1665C6.28775 34.1489 6.30843 34.1366 6.33136 34.1313C6.35429 34.126 6.3783 34.1281 6.39999 34.1372C18.868 39.9899 33.736 39.3091 47.052 37.6687C56.0813 36.5566 64.8773 34.4145 73.44 31.2426C73.5502 31.202 73.6717 31.2045 73.7795 31.2497C73.8874 31.2948 73.9734 31.3792 74.02 31.4855L74.064 31.585C74.1057 31.6816 74.1103 31.7899 74.0771 31.8891C74.0439 31.9883 73.9751 32.0714 73.884 32.1225C71.7373 33.3435 69.3293 34.4995 66.66 35.5904C56.132 39.8904 45.1787 42.3603 33.8 42.9999Z" fill="#003256"/>
</g>
<defs>
<clipPath id="clip0_1291_4533">
<rect width="200" height="43" fill="white"/>
</clipPath>
</defs>
</svg>
