<svg width="200" height="58" viewBox="0 0 200 58" fill="none" xmlns="http://www.w3.org/2000/svg">
<g clip-path="url(#clip0_1291_5033)">
<path d="M43.7572 14C43.7572 5.88862 36.7324 -0.0930684 29.2617 0.000783994C26.3556 0.0368811 24.5244 0.591974 21.9598 1.78238L21.8802 1.81607L21.7982 1.78238C19.2337 0.592776 17.4024 0.0376832 14.4963 0.000783994C7.02801 -0.0930684 0 5.88862 0 14C0 14.276 1.01515 16.3463 1.66006 17.4806V13.2412C1.68156 6.15093 8.96913 1.56499 14.6309 1.56499C16.5099 1.56499 18.42 2.10324 20.1811 2.84283C19.748 3.23829 19.0219 3.89205 18.9494 3.96505C18.904 4.01077 17.0417 3.11155 14.6309 3.11155C9.71277 3.11155 3.25325 7.22983 3.25325 13.3238V20.8673C3.25325 21.1432 4.37907 22.9762 4.91093 24.0037V13.2412C4.93481 8.0729 10.6109 4.76961 14.5759 4.76961C15.8944 4.76961 16.193 4.80571 17.7711 5.30545C17.4438 5.70332 17.0537 6.22873 16.7464 6.65308C16.1062 6.43248 14.9127 6.31858 14.6317 6.31858C11.3521 6.31858 6.50411 9.0411 6.50411 13.4329V27.279C6.50411 27.5549 7.62993 29.3878 8.16418 30.4154V13.3503C8.18567 9.95155 12.2494 7.97664 14.6317 7.97664C14.9135 7.97664 15.5051 7.96942 15.9239 8.16113C14.6731 11.1331 14.7161 11.9473 14.6341 13.3318V43.3069C15.142 44.4219 15.7025 45.5296 16.2917 46.6639V13.1201C16.4382 11.6024 16.6739 10.039 17.5911 8.72024C18.0625 8.91917 18.8085 9.56411 18.8085 9.56411C18.8085 9.56411 18.0744 10.6502 17.8849 13.331V49.7177C18.3929 50.8327 19.0665 52.0472 19.5426 53.1862V13.2316C19.6628 12.492 19.7806 11.612 20.127 11.0722C20.8101 12.0027 20.9519 13.096 21.08 13.8933L21.0705 56.2168C21.2194 56.5874 21.807 57.7874 21.881 58.0008C21.9559 57.7874 22.5403 56.5874 22.6891 56.2168L22.682 13.8933C22.807 13.096 22.9511 12.0027 23.6326 11.0722C23.9814 11.6128 24.0968 12.4928 24.217 13.2316V53.1862C24.6956 52.0472 25.3667 50.8327 25.8747 49.7177V13.331C25.6844 10.6502 24.9535 9.56411 24.9535 9.56411C24.9535 9.56411 25.6972 8.91917 26.1685 8.72024C27.0849 10.039 27.3206 11.6024 27.4679 13.1201V46.6631C28.0571 45.5288 28.62 44.4211 29.128 43.3061V13.331C29.0436 11.9473 29.0898 11.1323 27.8357 8.16033C28.2569 7.96862 28.8485 7.97583 29.128 7.97583C31.5102 7.97583 35.5732 9.95155 35.5978 13.3495V30.4146C36.1297 29.387 37.2555 27.5541 37.2555 27.2782V13.4321C37.2555 9.03949 32.4075 6.31777 29.128 6.31777C28.8485 6.31777 27.6526 6.43168 27.0157 6.65227C26.7075 6.22793 26.3158 5.70172 25.9886 5.30465C27.5666 4.80491 27.8676 4.76881 29.1837 4.76881C33.1511 4.76881 38.8272 8.07289 38.8487 13.2404V24.0029C39.3829 22.9754 40.5088 21.1424 40.5088 20.8665V13.323C40.5088 7.22902 34.0485 3.11075 29.1288 3.11075C26.7179 3.11075 24.858 4.00997 24.8102 3.96424C24.7378 3.89125 24.0116 3.23669 23.5785 2.84203C25.3397 2.10244 27.2521 1.56419 29.1296 1.56419C34.7905 1.56419 42.0789 6.15012 42.1004 13.2404V17.4798C42.7453 16.3455 43.7604 14.2752 43.7604 13.9992L43.7572 14ZM21.7982 3.97628L21.8802 3.93777L21.9598 3.97628C22.2242 4.08778 22.9439 4.67897 23.2473 4.98459C22.4774 5.45706 22.0371 5.86456 21.9598 5.93755L21.8802 6.00814L21.7982 5.93755C21.721 5.86456 21.2807 5.45786 20.5108 4.98459C20.8141 4.67897 21.5331 4.08778 21.7982 3.97628ZM19.6302 8.34884C19.1588 8.03359 18.9661 7.86915 18.377 7.50015C18.6031 7.01565 19.3133 6.2175 19.3133 6.2175C19.3133 6.2175 20.1676 6.65629 20.627 7.09747C20.3722 7.35416 20.1166 7.56272 19.631 8.34803L19.6302 8.34884ZM21.959 11.0104L21.8794 11.1901L21.7974 11.0104C21.6095 10.5307 20.8539 9.44458 20.8539 9.44458C20.8539 9.44458 21.0004 9.02987 21.7974 8.17718L21.8794 8.10177L21.959 8.17718C22.7552 9.03067 22.9041 9.44458 22.9041 9.44458C22.9041 9.44458 22.1461 10.5307 21.959 11.0104ZM24.444 6.21831C24.444 6.21831 25.1542 7.01565 25.3819 7.50096C24.7903 7.86915 24.6 8.03439 24.1263 8.34964C23.643 7.56433 23.3874 7.35577 23.1302 7.09908C23.592 6.65789 24.444 6.21911 24.444 6.21911V6.21831Z" fill="#0082CB"/>
<path d="M46.0527 32.8146H44.4349C44.2796 32.8146 44.1538 32.9414 44.1538 33.0978V44.3938C44.1538 44.5502 44.2796 44.6769 44.4349 44.6769H46.0527C46.208 44.6769 46.3338 44.5502 46.3338 44.3938V33.0978C46.3338 32.9414 46.208 32.8146 46.0527 32.8146Z" fill="black"/>
<path d="M53.2456 35.639C52.3029 35.639 51.4956 35.9511 50.8355 36.5687V36.0032C50.8355 35.9166 50.7965 35.8356 50.7296 35.7818C50.6628 35.7281 50.5752 35.7056 50.4916 35.7273L49.0974 36.0506C48.97 36.0802 48.8793 36.1941 48.8793 36.3265V44.3946C48.8793 44.551 49.0051 44.6778 49.1603 44.6778H50.6341C50.7893 44.6778 50.9151 44.551 50.9151 44.3946V38.5693C51.1755 38.2412 51.4781 37.983 51.8148 37.8017C52.1795 37.6067 52.5473 37.5121 52.9407 37.5121C53.5076 37.5121 54.2615 37.6918 54.2615 39.2464V44.3938C54.2615 44.5502 54.3873 44.677 54.5426 44.677H56.0164C56.1716 44.677 56.2974 44.5502 56.2974 44.3938V39.0683C56.2974 37.991 56.0339 37.1439 55.5148 36.5495C54.9853 35.9447 54.2225 35.6382 53.2456 35.6382V35.639Z" fill="black"/>
<path d="M63.3938 42.5264C63.2982 42.479 63.1828 42.4911 63.0976 42.5576C62.9296 42.6892 62.7298 42.7967 62.5036 42.8769C62.2799 42.9571 62.0474 42.998 61.8125 42.998C61.4973 42.998 61.2799 42.913 61.1469 42.7381C60.9988 42.5424 60.924 42.2255 60.924 41.7964V37.642H63.174C63.3293 37.642 63.4551 37.5153 63.4551 37.3589V36.0834C63.4551 35.927 63.3293 35.8003 63.174 35.8003H60.924V33.6946C60.924 33.608 60.885 33.5269 60.8181 33.4732C60.7504 33.4187 60.6636 33.3978 60.58 33.4187L59.1063 33.758C58.9789 33.7876 58.8881 33.9024 58.8881 34.0339V35.8003H57.5999C57.4621 35.8003 57.3451 35.9005 57.3228 36.0377L57.115 37.3131C57.1015 37.395 57.1246 37.4784 57.1779 37.5417C57.2312 37.6051 57.3093 37.642 57.3921 37.642H58.8881V41.9576C58.8881 43.8427 59.8109 44.839 61.5562 44.839C62.2274 44.839 62.846 44.6986 63.3954 44.4219C63.4909 44.3737 63.5506 44.2759 63.5506 44.1684V42.7806C63.5506 42.6723 63.4893 42.5737 63.393 42.5264H63.3938Z" fill="black"/>
<path d="M68.5253 35.639C67.249 35.639 66.2498 36.0529 65.5571 36.8679C64.8739 37.6701 64.5276 38.8236 64.5276 40.2956C64.5276 41.7675 64.8843 42.8946 65.5865 43.6654C66.2959 44.4435 67.3389 44.839 68.6853 44.839C69.7817 44.839 70.765 44.563 71.6073 44.02C71.6886 43.9678 71.7371 43.878 71.7371 43.7817V42.2969C71.7371 42.1878 71.6742 42.0876 71.5755 42.0411C71.4776 41.9945 71.3613 42.009 71.2769 42.0788C70.542 42.6892 69.7188 42.9988 68.8294 42.9988C68.0818 42.9988 67.5205 42.8007 67.1606 42.4117C66.8342 42.0571 66.6351 41.502 66.5666 40.7576H71.8406C71.98 40.7576 72.0978 40.6549 72.1185 40.5162C72.1304 40.4351 72.1376 40.233 72.1376 39.9097C72.1376 38.5356 71.8327 37.4728 71.2307 36.7508C70.6169 36.0136 69.706 35.6406 68.5253 35.6406V35.639ZM68.4767 37.3998C69.0253 37.3998 69.4194 37.5498 69.6806 37.857C69.913 38.1305 70.0587 38.5517 70.1137 39.1092H66.6256C66.8421 37.9444 67.4369 37.3998 68.4767 37.3998Z" fill="black"/>
<path d="M78.996 35.9198C78.707 35.7979 78.3686 35.7369 77.9904 35.7369C77.1289 35.7369 76.3965 36.0506 75.8049 36.6722V36.0032C75.8049 35.9166 75.7659 35.8356 75.699 35.7818C75.6321 35.7281 75.5445 35.7056 75.4609 35.7273L74.0668 36.0506C73.9394 36.0802 73.8486 36.1941 73.8486 36.3265V44.3946C73.8486 44.551 73.9744 44.6778 74.1297 44.6778H75.6034C75.7587 44.6778 75.8845 44.551 75.8845 44.3946V38.9383C76.1305 38.5364 76.4195 38.2236 76.7444 38.0062C77.367 37.5915 78.1544 37.5811 78.7619 37.8867C78.8487 37.9308 78.9522 37.926 79.035 37.8739C79.1178 37.8225 79.168 37.7311 79.168 37.6332V36.1813C79.168 36.0674 79.1003 35.9639 78.9952 35.9198H78.996Z" fill="black"/>
<path d="M85.0066 35.639C84.0639 35.639 83.2566 35.9511 82.5965 36.5687V36.0032C82.5965 35.9166 82.5575 35.8356 82.4906 35.7818C82.4237 35.7281 82.3346 35.7064 82.2525 35.7273L80.8584 36.0506C80.731 36.0802 80.6403 36.1941 80.6403 36.3265V44.3946C80.6403 44.551 80.7661 44.6778 80.9213 44.6778H82.3951C82.5503 44.6778 82.6761 44.551 82.6761 44.3946V38.5693C82.9365 38.2412 83.2398 37.983 83.5758 37.8017C83.9405 37.6067 84.3091 37.5121 84.7016 37.5121C85.2685 37.5121 86.0225 37.6918 86.0225 39.2464V44.3938C86.0225 44.5502 86.1483 44.677 86.3036 44.677H87.7773C87.9326 44.677 88.0584 44.5502 88.0584 44.3938V39.0683C88.0584 37.991 87.7949 37.1439 87.2757 36.5495C86.7471 35.9447 85.9827 35.6382 85.0066 35.6382V35.639Z" fill="black"/>
<path d="M93.3029 35.639C92.2375 35.639 91.2638 35.9262 90.4095 36.4933C90.3307 36.5455 90.2829 36.6345 90.2829 36.73V38.2308C90.2829 38.3415 90.3466 38.4418 90.4469 38.4883C90.5464 38.534 90.6643 38.518 90.7471 38.4458C91.095 38.1458 91.4907 37.9067 91.9239 37.7359C92.353 37.5674 92.7742 37.4808 93.1747 37.4808C93.6755 37.4808 94.0409 37.6099 94.2925 37.8763C94.5441 38.1434 94.6715 38.5445 94.6715 39.0691V39.256C93.0863 39.2792 91.9215 39.507 91.1173 39.9498C90.2232 40.4432 89.7701 41.2164 89.7701 42.248C89.7701 43.0365 90.0209 43.6726 90.5154 44.1403C91.005 44.604 91.6731 44.8382 92.5019 44.8382C93.0648 44.8382 93.5919 44.7235 94.0712 44.4965C94.3204 44.3777 94.5481 44.2326 94.7519 44.0609V44.3938C94.7519 44.5502 94.8777 44.6769 95.033 44.6769H96.4104C96.5657 44.6769 96.6915 44.5502 96.6915 44.3938V39.0201C96.6915 37.9565 96.3889 37.1182 95.791 36.527C95.1938 35.9382 94.357 35.639 93.3029 35.639ZM94.6715 40.8555V42.256C94.4645 42.4879 94.2073 42.6748 93.9064 42.8135C93.2471 43.1176 92.4111 43.1272 92.0552 42.8095C91.888 42.6603 91.806 42.4445 91.806 42.1502C91.806 41.713 92.0162 41.413 92.4669 41.2052C92.935 40.9902 93.6763 40.8731 94.6723 40.8547L94.6715 40.8555Z" fill="black"/>
<path d="M103.79 42.5264C103.692 42.4791 103.578 42.4911 103.493 42.5577C103.325 42.6892 103.126 42.7967 102.899 42.8769C102.676 42.9571 102.443 42.9981 102.208 42.9981C101.893 42.9981 101.675 42.913 101.544 42.7382C101.395 42.5424 101.321 42.2256 101.321 41.7964V37.6421H103.571C103.726 37.6421 103.852 37.5153 103.852 37.3589V36.0835C103.852 35.927 103.726 35.8003 103.571 35.8003H101.321V33.6946C101.321 33.608 101.282 33.527 101.215 33.4732C101.149 33.4195 101.064 33.3986 100.977 33.4187L99.5037 33.758C99.3755 33.7877 99.2847 33.9024 99.2847 34.0339V35.8003H97.9965C97.8588 35.8003 97.7417 35.9006 97.7194 36.0377L97.5116 37.3132C97.4981 37.395 97.5212 37.4784 97.5745 37.5418C97.6279 37.6052 97.7059 37.6421 97.7887 37.6421H99.2847V41.9577C99.2847 43.8427 100.208 44.839 101.953 44.839C102.624 44.839 103.243 44.6986 103.792 44.4219C103.887 44.3738 103.947 44.2759 103.947 44.1684V42.7807C103.947 42.6724 103.886 42.5737 103.79 42.5264Z" fill="black"/>
<path d="M107.287 35.7273L105.813 36.0658C105.685 36.0955 105.594 36.2102 105.594 36.3417V44.3946C105.594 44.551 105.72 44.6778 105.876 44.6778H107.349C107.505 44.6778 107.63 44.551 107.63 44.3946V36.0032C107.63 35.9166 107.591 35.8356 107.524 35.7818C107.458 35.7281 107.372 35.7072 107.287 35.7273Z" fill="black"/>
<path d="M105.727 32.9197C105.501 33.1419 105.387 33.4355 105.387 33.7925C105.387 34.1494 105.502 34.443 105.731 34.6604C105.955 34.8722 106.251 34.9797 106.612 34.9797C106.973 34.9797 107.269 34.873 107.498 34.6636C107.735 34.447 107.855 34.1543 107.855 33.7933C107.855 33.4323 107.736 33.1387 107.502 32.9165C107.041 32.4818 106.176 32.4826 105.727 32.9205V32.9197Z" fill="black"/>
<path d="M113.436 35.639C112.119 35.639 111.094 36.0457 110.39 36.8487C109.696 37.6412 109.343 38.7843 109.343 40.2474C109.343 41.7106 109.688 42.8785 110.367 43.6542C111.055 44.4411 112.071 44.8398 113.388 44.8398C114.705 44.8398 115.729 44.4355 116.433 43.639C117.128 42.852 117.481 41.7114 117.481 40.2474C117.481 38.7835 117.137 37.6003 116.458 36.8246C115.769 36.0377 114.752 35.639 113.436 35.639ZM113.404 42.998C112.556 42.998 111.427 42.7117 111.427 40.2306C111.427 37.7495 112.565 37.48 113.42 37.48C114.275 37.48 115.398 37.7656 115.398 40.2306C115.398 42.6956 114.26 42.998 113.404 42.998Z" fill="black"/>
<path d="M123.559 35.639C122.616 35.639 121.809 35.9511 121.149 36.5687V36.0032C121.149 35.9166 121.11 35.8356 121.043 35.7818C120.976 35.7281 120.887 35.7064 120.805 35.7273L119.411 36.0506C119.284 36.0802 119.193 36.1941 119.193 36.3265V44.3946C119.193 44.551 119.319 44.6778 119.474 44.6778H120.948C121.103 44.6778 121.229 44.551 121.229 44.3946V38.5693C121.489 38.2412 121.792 37.983 122.128 37.8017C122.493 37.6067 122.862 37.5121 123.254 37.5121C123.821 37.5121 124.575 37.6918 124.575 39.2464V44.3938C124.575 44.5502 124.701 44.677 124.856 44.677H126.33C126.485 44.677 126.611 44.5502 126.611 44.3938V39.0683C126.611 37.991 126.347 37.1439 125.828 36.5495C125.3 35.9447 124.535 35.6382 123.559 35.6382V35.639Z" fill="black"/>
<path d="M131.855 35.639C130.79 35.639 129.816 35.9262 128.962 36.4933C128.883 36.5455 128.835 36.6345 128.835 36.73V38.2308C128.835 38.3415 128.899 38.4418 128.999 38.4883C129.099 38.534 129.216 38.518 129.3 38.4458C129.648 38.1458 130.043 37.9067 130.476 37.7359C130.905 37.5674 131.327 37.4808 131.727 37.4808C132.228 37.4808 132.593 37.6099 132.845 37.8763C133.097 38.1434 133.224 38.5445 133.224 39.0691V39.256C131.639 39.2792 130.474 39.507 129.67 39.9498C128.776 40.4432 128.323 41.2164 128.323 42.248C128.323 43.0365 128.573 43.6726 129.068 44.1403C129.558 44.604 130.226 44.8382 131.054 44.8382C131.617 44.8382 132.144 44.7235 132.624 44.4965C132.873 44.3777 133.101 44.2326 133.304 44.0609V44.3938C133.304 44.5502 133.43 44.6769 133.585 44.6769H134.963C135.118 44.6769 135.244 44.5502 135.244 44.3938V39.0201C135.244 37.9565 134.941 37.1182 134.343 36.527C133.746 35.9382 132.91 35.639 131.855 35.639ZM133.224 40.8555V42.256C133.017 42.4879 132.76 42.6748 132.459 42.8135C131.799 43.1176 130.964 43.1272 130.608 42.8095C130.441 42.6603 130.359 42.4445 130.359 42.1502C130.359 41.713 130.569 41.413 131.019 41.2052C131.488 40.9902 132.229 40.8731 133.225 40.8547L133.224 40.8555Z" fill="black"/>
<path d="M139.241 31.7734L137.767 32.112C137.639 32.1416 137.548 32.2563 137.548 32.3879V44.3946C137.548 44.551 137.674 44.6778 137.829 44.6778H139.303C139.458 44.6778 139.584 44.551 139.584 44.3946V32.0502C139.584 31.9636 139.545 31.8825 139.478 31.8288C139.412 31.7751 139.325 31.755 139.241 31.7742V31.7734Z" fill="black"/>
<path d="M150.854 32.9887C150.811 32.8836 150.709 32.8146 150.595 32.8146H149.042C148.951 32.8146 148.865 32.8596 148.812 32.935C148.759 33.0104 148.746 33.1066 148.777 33.1933L149.141 34.22L144.971 44.2855C144.935 44.3729 144.944 44.4724 144.996 44.5518C145.048 44.6304 145.136 44.6777 145.23 44.6777H146.896C147.013 44.6777 147.118 44.6056 147.159 44.4957L148.115 41.9825H152.326L153.297 44.4973C153.339 44.6064 153.443 44.6777 153.559 44.6777H155.272C155.366 44.6777 155.454 44.6304 155.506 44.5518C155.558 44.4732 155.568 44.3729 155.531 44.2855L150.854 32.9887ZM150.226 36.4981L151.58 40.0453H148.86L150.226 36.4981Z" fill="black"/>
<path d="M157.126 32.9197C156.9 33.1419 156.785 33.4355 156.785 33.7925C156.785 34.1494 156.9 34.443 157.13 34.6604C157.354 34.8722 157.65 34.9797 158.01 34.9797C158.371 34.9797 158.667 34.873 158.897 34.6636C159.133 34.447 159.253 34.1543 159.253 33.7933C159.253 33.4323 159.135 33.1387 158.901 32.9165C158.44 32.4818 157.574 32.4826 157.126 32.9205V32.9197Z" fill="black"/>
<path d="M158.686 35.7273L157.212 36.0658C157.084 36.0955 156.993 36.2102 156.993 36.3417V44.3946C156.993 44.551 157.119 44.6778 157.274 44.6778H158.748C158.903 44.6778 159.029 44.551 159.029 44.3946V36.0032C159.029 35.9166 158.99 35.8356 158.923 35.7818C158.857 35.7281 158.769 35.7072 158.686 35.7273Z" fill="black"/>
<path d="M166.561 35.9198C166.271 35.7978 165.933 35.7369 165.555 35.7369C164.693 35.7369 163.961 36.0505 163.37 36.6722V36.0032C163.37 35.9166 163.331 35.8355 163.264 35.7818C163.197 35.7281 163.107 35.7064 163.026 35.7273L161.631 36.0505C161.504 36.0802 161.413 36.1941 161.413 36.3265V44.3946C161.413 44.551 161.539 44.6777 161.694 44.6777H163.168C163.323 44.6777 163.449 44.551 163.449 44.3946V38.9383C163.696 38.5364 163.985 38.2236 164.309 38.0062C164.931 37.5915 165.719 37.581 166.327 37.8867C166.413 37.9308 166.517 37.9268 166.601 37.8738C166.683 37.8225 166.733 37.731 166.733 37.6332V36.1813C166.733 36.0674 166.666 35.9639 166.561 35.9198Z" fill="black"/>
<path d="M172.458 35.639C171.559 35.639 170.79 35.915 170.16 36.4604V36.0032C170.16 35.9166 170.121 35.8356 170.054 35.7818C169.988 35.7281 169.898 35.7064 169.816 35.7273L168.422 36.0505C168.295 36.0802 168.204 36.1941 168.204 36.3265V47.9449C168.204 48.1014 168.33 48.2281 168.485 48.2281H169.959C170.114 48.2281 170.24 48.1014 170.24 47.9449V44.2799C170.433 44.4034 170.643 44.5085 170.868 44.5943C171.293 44.7572 171.752 44.839 172.234 44.839C173.439 44.839 174.394 44.4066 175.072 43.5547C175.735 42.7221 176.07 41.5654 176.07 40.1183C176.07 38.6712 175.754 37.6372 175.127 36.8511C174.487 36.0473 173.588 35.6398 172.457 35.6398L172.458 35.639ZM173.988 40.2145C173.988 42.6804 172.795 42.9659 171.898 42.9659C171.222 42.9659 170.678 42.775 170.24 42.3836V38.3969C170.743 37.8017 171.355 37.5129 172.105 37.5129C172.72 37.5129 173.172 37.7254 173.488 38.1626C173.819 38.6223 173.987 39.3137 173.987 40.2153L173.988 40.2145Z" fill="black"/>
<path d="M181.444 35.639C180.127 35.639 179.102 36.0457 178.398 36.8487C177.703 37.6412 177.351 38.7843 177.351 40.2474C177.351 41.7106 177.695 42.8785 178.375 43.6542C179.063 44.4411 180.078 44.8398 181.395 44.8398C182.712 44.8398 183.737 44.4355 184.441 43.639C185.136 42.852 185.489 41.7114 185.489 40.2474C185.489 38.7835 185.145 37.6003 184.466 36.8246C183.777 36.0377 182.76 35.639 181.444 35.639ZM181.412 42.998C180.563 42.998 179.435 42.7117 179.435 40.2306C179.435 37.7495 180.573 37.48 181.428 37.48C182.283 37.48 183.406 37.7656 183.406 40.2306C183.406 42.6956 182.268 42.998 181.412 42.998Z" fill="black"/>
<path d="M192.348 35.9198C192.058 35.7978 191.72 35.7369 191.342 35.7369C190.48 35.7369 189.748 36.0505 189.157 36.6722V36.0032C189.157 35.9166 189.118 35.8355 189.051 35.7818C188.985 35.7281 188.895 35.7064 188.813 35.7273L187.419 36.0505C187.291 36.0802 187.2 36.1941 187.2 36.3265V44.3946C187.2 44.551 187.326 44.6777 187.481 44.6777H188.955C189.111 44.6777 189.236 44.551 189.236 44.3946V38.9383C189.483 38.5364 189.772 38.2236 190.096 38.0062C190.719 37.5915 191.505 37.581 192.114 37.8867C192.2 37.9308 192.304 37.9268 192.388 37.8738C192.47 37.8225 192.521 37.731 192.521 37.6332V36.1813C192.521 36.0674 192.453 35.9639 192.348 35.9198Z" fill="black"/>
<path d="M199.843 42.5264C199.746 42.4791 199.631 42.4911 199.547 42.5577C199.379 42.6892 199.18 42.7967 198.953 42.8769C198.729 42.9571 198.497 42.9981 198.262 42.9981C197.947 42.9981 197.729 42.913 197.597 42.7382C197.448 42.5424 197.374 42.2256 197.374 41.7964V37.6421H199.624C199.779 37.6421 199.905 37.5153 199.905 37.3589V36.0835C199.905 35.927 199.779 35.8003 199.624 35.8003H197.374V33.6946C197.374 33.608 197.335 33.527 197.268 33.4732C197.202 33.4195 197.117 33.3986 197.03 33.4187L195.557 33.758C195.429 33.7877 195.338 33.9024 195.338 34.0339V35.8003H194.05C193.912 35.8003 193.795 35.9006 193.773 36.0377L193.565 37.3132C193.552 37.395 193.575 37.4784 193.628 37.5418C193.681 37.6052 193.759 37.6421 193.842 37.6421H195.338V41.9577C195.338 43.8427 196.261 44.839 198.006 44.839C198.678 44.839 199.296 44.6986 199.846 44.4219C199.94 44.3738 200.001 44.2759 200.001 44.1684V42.7807C200.001 42.6724 199.94 42.5737 199.843 42.5264Z" fill="black"/>
<path d="M67.3708 11.2663H63.858C63.8111 11.2663 63.7665 11.2872 63.737 11.3241L59.1286 17.0089V11.4235C59.1286 11.3369 59.0586 11.2663 58.9726 11.2663H56.0084C55.9224 11.2663 55.8523 11.3369 55.8523 11.4235V25.2856C55.8523 25.373 55.9224 25.4444 56.0099 25.4444H58.9718C59.0586 25.4444 59.1294 25.3738 59.1294 25.2856V20.1341L63.7378 25.3907C63.7673 25.4244 63.8103 25.4436 63.8548 25.4436H67.3637C67.499 25.4436 67.5707 25.2824 67.4799 25.1813L61.5148 18.4641L67.4887 11.527C67.5763 11.4251 67.5046 11.2663 67.3708 11.2663Z" fill="black"/>
<path d="M77.9857 22.9529H72.9195L72.0915 25.3385C72.0692 25.4019 72.0103 25.4444 71.9442 25.4444H68.8717C68.7602 25.4444 68.6846 25.3297 68.7276 25.2262L73.9243 12.6644L73.5143 11.4765C73.4793 11.3738 73.5541 11.2671 73.6616 11.2671H76.4729C76.5366 11.2671 76.594 11.3056 76.6178 11.365L82.2398 25.2278C82.282 25.3313 82.2063 25.4452 82.0949 25.4452H78.961C78.895 25.4452 78.8352 25.4027 78.8138 25.3393L77.9857 22.9537V22.9529ZM73.7643 20.5023H77.1218L75.453 15.6822L73.7643 20.5023Z" fill="black"/>
<path d="M93.4589 25.3787L87.3943 16.8565V25.2864C87.3943 25.373 87.3242 25.4436 87.2382 25.4436H84.5153C84.4293 25.4436 84.3592 25.373 84.3592 25.2864V12.5826L83.6092 11.515C83.5359 11.4107 83.6092 11.2663 83.7366 11.2663H86.9723C87.0233 11.2663 87.0702 11.2912 87.0997 11.3329L93.0035 19.6922V11.4235C93.0035 11.3369 93.0736 11.2663 93.1595 11.2663H95.8825C95.9685 11.2663 96.0386 11.3369 96.0386 11.4235V25.2864C96.0386 25.373 95.9685 25.4436 95.8825 25.4436H93.5863C93.5361 25.4436 93.4884 25.4188 93.4589 25.3779V25.3787Z" fill="black"/>
<path d="M102.498 15.1552C102.498 15.5065 102.619 15.7897 102.86 16.0055C103.102 16.2212 103.423 16.3969 103.825 16.5317C104.227 16.6672 104.666 16.802 105.142 16.9368C105.618 17.0723 106.091 17.2344 106.559 17.4229C107.028 17.6122 107.464 17.8617 107.866 18.1721C108.268 18.4825 108.59 18.8876 108.831 19.3874C109.072 19.8871 109.193 20.5088 109.193 21.2508C109.193 22.6826 108.713 23.7896 107.755 24.5725C106.797 25.3554 105.446 25.7469 103.704 25.7469C102.913 25.7469 102.129 25.6626 101.352 25.4942C100.613 25.3338 99.9399 25.1148 99.334 24.838C99.2775 24.8124 99.2417 24.7546 99.2417 24.692V21.842C99.2417 21.7176 99.377 21.6454 99.4813 21.7112C100.069 22.081 100.692 22.3698 101.352 22.5775C102.103 22.8142 102.84 22.9321 103.563 22.9321C104.287 22.9321 104.867 22.811 105.262 22.5671C105.657 22.3241 105.856 21.9799 105.856 21.5339C105.856 21.1826 105.735 20.893 105.494 20.6628C105.253 20.4334 104.931 20.2409 104.529 20.0852C104.127 19.9304 103.688 19.7748 103.212 19.6192C102.736 19.4644 102.264 19.2847 101.795 19.0825C101.326 18.8796 100.891 18.6237 100.489 18.3125C100.086 18.002 99.7648 17.6106 99.5235 17.1381C99.2823 16.6656 99.1613 16.0777 99.1613 15.3758C99.1613 14.0121 99.6406 12.9348 100.599 12.1455C101.557 11.3554 102.86 10.9607 104.509 10.9607C105.948 10.9607 107.267 11.2631 108.462 11.8679C108.516 11.8952 108.55 11.9514 108.55 12.0115V14.8463C108.55 14.9747 108.407 15.0461 108.302 14.9731C107.168 14.1757 105.964 13.7771 104.69 13.7771C103.993 13.7771 103.454 13.8982 103.072 14.1421C102.69 14.3851 102.499 14.7228 102.499 15.1552H102.498Z" fill="black"/>
<path d="M120.01 22.9529H114.943L114.115 25.3385C114.093 25.4019 114.034 25.4444 113.968 25.4444H110.896C110.784 25.4444 110.708 25.3297 110.751 25.2262L115.948 12.6644L115.538 11.4765C115.503 11.3738 115.578 11.2671 115.686 11.2671H118.497C118.561 11.2671 118.618 11.3056 118.642 11.365L124.264 25.2278C124.306 25.3313 124.23 25.4452 124.119 25.4452H120.985C120.919 25.4452 120.859 25.4027 120.838 25.3393L120.01 22.9537V22.9529ZM115.788 20.5023H119.146L117.477 15.6822L115.788 20.5023Z" fill="black"/>
<path d="M129.619 15.1552C129.619 15.5065 129.74 15.7897 129.981 16.0055C130.222 16.2212 130.544 16.3969 130.946 16.5317C131.348 16.6672 131.787 16.802 132.263 16.9368C132.738 17.0723 133.211 17.2344 133.68 17.4229C134.149 17.6122 134.585 17.8617 134.987 18.1721C135.389 18.4825 135.711 18.8876 135.952 19.3874C136.193 19.8871 136.313 20.5088 136.313 21.2508C136.313 22.6826 135.834 23.7896 134.876 24.5725C133.917 25.3554 132.567 25.7469 130.825 25.7469C130.034 25.7469 129.25 25.6626 128.473 25.4942C127.733 25.3338 127.061 25.1148 126.455 24.838C126.398 24.8124 126.362 24.7546 126.362 24.692V21.842C126.362 21.7176 126.498 21.6454 126.602 21.7112C127.19 22.081 127.813 22.3698 128.473 22.5775C129.224 22.8142 129.96 22.9321 130.684 22.9321C131.408 22.9321 131.988 22.811 132.383 22.5671C132.778 22.3241 132.976 21.9799 132.976 21.5339C132.976 21.1826 132.856 20.893 132.615 20.6628C132.374 20.4334 132.052 20.2409 131.65 20.0852C131.248 19.9304 130.809 19.7748 130.333 19.6192C129.857 19.4644 129.385 19.2847 128.916 19.0825C128.447 18.8796 128.011 18.6237 127.609 18.3125C127.207 18.002 126.886 17.6106 126.644 17.1381C126.403 16.6656 126.282 16.0777 126.282 15.3758C126.282 14.0121 126.761 12.9348 127.72 12.1455C128.678 11.3554 129.981 10.9607 131.63 10.9607C133.069 10.9607 134.387 11.2631 135.583 11.8679C135.636 11.8952 135.671 11.9514 135.671 12.0115V14.8463C135.671 14.9747 135.527 15.0461 135.423 14.9731C134.289 14.1757 133.085 13.7771 131.811 13.7771C131.114 13.7771 130.574 13.8982 130.193 14.1421C129.811 14.3851 129.62 14.7228 129.62 15.1552H129.619Z" fill="black"/>
<path d="M160.588 11.4235V25.2864C160.588 25.373 160.518 25.4436 160.432 25.4436H157.407C157.321 25.4436 157.251 25.373 157.251 25.2864V11.4235C157.251 11.3369 157.321 11.2663 157.407 11.2663H160.432C160.518 11.2663 160.588 11.3369 160.588 11.4235Z" fill="black"/>
<path d="M170.723 14.0819V25.2864C170.723 25.373 170.653 25.4436 170.567 25.4436H167.542C167.456 25.4436 167.386 25.373 167.386 25.2864V14.0819H163.301C163.215 14.0819 163.145 14.0113 163.145 13.9246V11.4243C163.145 11.3377 163.215 11.2671 163.301 11.2671H173.376C173.433 11.2671 173.487 11.2992 173.514 11.3505L174.842 13.8508C174.898 13.9559 174.822 14.0827 174.704 14.0827H170.723V14.0819Z" fill="black"/>
<path d="M179.329 11.3577L182.001 17.1405L184.673 11.3577C184.699 11.3024 184.754 11.2671 184.815 11.2671H188.145C188.266 11.2671 188.341 11.397 188.282 11.5021L183.59 19.8341V25.2872C183.59 25.3738 183.52 25.4444 183.434 25.4444H180.409C180.323 25.4444 180.253 25.3738 180.253 25.2872V19.9561L175.656 11.5005C175.598 11.3954 175.674 11.2671 175.792 11.2671H179.188C179.249 11.2671 179.305 11.3024 179.33 11.3585L179.329 11.3577Z" fill="black"/>
<path d="M153.934 25.0538C152.562 25.6915 150.904 25.9458 149.193 25.5784C145.792 24.8476 143.404 21.7048 143.469 18.2018C143.546 14.0859 146.676 10.9623 150.785 10.9623C151.919 10.9623 152.994 11.219 153.934 11.6561C153.99 11.6818 154.025 11.7396 154.025 11.8013V14.8046C154.025 14.933 153.88 15.0084 153.779 14.9314C153.005 14.3458 151.971 13.9527 150.785 13.9527C148.36 13.9527 146.52 15.9324 146.52 18.355C146.52 20.7775 148.34 22.7572 150.785 22.7572C151.966 22.7572 153.029 22.3682 153.779 21.8018C153.88 21.7248 154.025 21.8002 154.025 21.9286V24.9094C154.025 24.9712 153.99 25.0289 153.934 25.0546V25.0538Z" fill="black"/>
</g>
<defs>
<clipPath id="clip0_1291_5033">
<rect width="200" height="58" fill="white"/>
</clipPath>
</defs>
</svg>
