<svg width="200" height="31" viewBox="0 0 200 31" fill="none" xmlns="http://www.w3.org/2000/svg">
<g clip-path="url(#clip0_1359_25950)">
<path d="M200.001 0H169.855V30.1412H200.001V0Z" fill="white"/>
<path d="M198.493 10.5511V1.50598H171.363V15.0721L198.493 10.5511Z" fill="#00BED6"/>
<path d="M171.363 16.5782V28.6352H198.493V12.0571L171.363 16.5782Z" fill="#00C4B3"/>
<path d="M187.165 21.8322H186.508C186.465 21.8322 186.438 21.8598 186.438 21.9027V22.6296C186.438 22.6726 186.465 22.7002 186.508 22.7002L187.165 22.6174C187.217 22.6081 187.235 22.5897 187.235 22.5468V21.9027C187.235 21.8598 187.207 21.8322 187.165 21.8322Z" fill="white"/>
<path d="M187.165 23.4547L186.508 23.5375C186.462 23.5406 186.438 23.5651 186.438 23.6081V27.0556C186.438 27.0985 186.465 27.1261 186.508 27.1261H187.165C187.207 27.1261 187.235 27.0985 187.235 27.0556V23.5253C187.235 23.4823 187.207 23.4547 187.165 23.4547Z" fill="white"/>
<path d="M192.17 24.4638H190.565C190.522 24.4638 190.495 24.4914 190.495 24.5343V25.1048C190.495 25.1478 190.525 25.1754 190.565 25.1754H191.363C191.391 25.1754 191.406 25.1907 191.406 25.2183C191.406 25.4943 191.378 25.6937 191.326 25.844C191.197 26.2366 190.835 26.4513 190.406 26.4513C189.915 26.4513 189.63 26.209 189.495 25.8164C189.436 25.6385 189.409 25.3901 189.409 24.703C189.409 24.0129 189.436 23.7706 189.495 23.5927C189.63 23.2001 189.915 22.9578 190.406 22.9578C190.875 22.9578 191.17 23.1725 191.381 23.5559C191.397 23.5835 191.43 23.605 191.473 23.5927L192.072 23.3289C192.108 23.3074 192.115 23.2645 192.099 23.2277C191.9 22.6848 191.314 22.2002 190.409 22.2002C189.553 22.2002 188.927 22.5989 188.676 23.3688C188.578 23.6663 188.547 23.9393 188.547 24.6999C188.547 25.4637 188.578 25.7336 188.676 26.0342C188.924 26.804 189.553 27.2028 190.409 27.2028C191.243 27.2028 191.884 26.7672 192.121 26.0127C192.2 25.7704 192.234 25.3502 192.234 24.9515V24.5313C192.24 24.4914 192.213 24.4638 192.17 24.4638Z" fill="white"/>
<path d="M195.342 22.3536C195.329 22.3107 195.299 22.2831 195.25 22.2831H194.593C194.544 22.2831 194.517 22.3107 194.501 22.3536L192.842 27.0556C192.826 27.0986 192.842 27.1262 192.894 27.1262H193.584C193.633 27.1262 193.661 27.1047 193.676 27.0556L193.995 26.114H195.82L196.139 27.0556C196.155 27.1047 196.182 27.1262 196.231 27.1262H196.931C196.98 27.1262 196.995 27.0986 196.98 27.0556L195.342 22.3536ZM194.253 25.3687L194.9 23.4854H194.921L195.563 25.3687H194.253Z" fill="white"/>
<path d="M98.8956 10.6216C98.9477 10.4774 99.052 10.3823 99.2238 10.3823H101.525C101.699 10.3823 101.801 10.4774 101.85 10.6216L107.611 26.8899C107.657 27.0341 107.611 27.1291 107.436 27.1291H104.982C104.804 27.1291 104.703 27.0555 104.654 26.8899L103.528 23.2492H97.1194L95.9906 26.8899C95.9445 27.0586 95.8402 27.1291 95.6654 27.1291H93.2358C93.061 27.1291 93.0119 27.0341 93.061 26.8899L98.8956 10.6216ZM102.626 20.7341L100.371 14.4249H100.297L98.0182 20.7341H102.626Z" fill="#1C252D"/>
<path d="M109.881 13.5109C109.731 13.5109 109.633 13.4158 109.633 13.2717V10.6554C109.633 10.5112 109.731 10.4192 109.881 10.4192L112.185 10.8271C112.335 10.8271 112.434 10.9253 112.434 11.0664V13.2717C112.434 13.4128 112.335 13.5109 112.185 13.5109H109.881ZM109.881 27.1292C109.731 27.1292 109.633 27.031 109.633 26.8869V15.8328C109.633 15.6886 109.731 15.5935 109.881 15.5935H112.185C112.335 15.5935 112.434 15.6886 112.434 15.8328V26.89C112.434 27.0341 112.335 27.1323 112.185 27.1323H109.881V27.1292Z" fill="#1C252D"/>
<path d="M156.734 15.5996V15.5935C155.206 15.5935 154.175 15.9248 153.602 16.8112L153.577 17.075V15.8327C153.577 15.6855 153.476 15.5935 153.326 15.5935H151.022C150.872 15.5935 150.773 15.6886 150.773 15.8327V26.8869C150.773 27.031 150.872 27.1292 151.022 27.1292H153.326C153.476 27.1292 153.577 27.031 153.577 26.8869V20.9059C153.577 19.0625 154.283 17.9859 155.853 17.9859L156.298 17.992V17.9859C156.452 17.9859 156.553 17.8908 156.553 17.7467L156.982 15.8419C156.985 15.6978 156.881 15.5996 156.734 15.5996Z" fill="#1C252D"/>
<path d="M121.938 15.5996V15.5935C120.413 15.5935 119.389 15.9248 118.812 16.8112L118.784 17.075V15.8327C118.784 15.6855 118.683 15.5935 118.536 15.5935H116.232C116.085 15.5935 115.98 15.6886 115.98 15.8327V26.8869C115.98 27.031 116.082 27.1292 116.232 27.1292H118.536C118.683 27.1292 118.784 27.031 118.784 26.8869V20.9059C118.784 19.0625 119.487 17.9859 121.064 17.9859L121.511 17.992V17.9859C121.662 17.9859 121.76 17.8908 121.76 17.7467L122.192 15.8419C122.189 15.6978 122.091 15.5996 121.938 15.5996Z" fill="#1C252D"/>
<path d="M124.958 30.5889C124.807 30.5889 124.703 30.4969 124.703 30.3528V15.8327C124.703 15.6886 124.807 15.5935 124.958 15.5935H127.262C127.412 15.5935 127.51 15.6886 127.51 15.8327V16.6946H127.538C128.111 15.9033 129.114 15.3297 130.74 15.3297C132.796 15.3297 134.296 16.2621 134.921 18.1024C135.219 18.9889 135.348 19.8047 135.348 21.3567C135.348 22.9149 135.222 23.7246 134.921 24.611C134.296 26.4544 132.796 27.3868 130.74 27.3868C129.114 27.3868 128.111 26.8132 127.538 26.0219H127.51V30.7576C127.51 30.9018 127.412 30.9969 127.262 30.9969L124.958 30.5889ZM132.24 23.516C132.415 22.9885 132.489 22.418 132.489 21.3598C132.489 20.3077 132.415 19.7311 132.24 19.2066C131.915 18.2497 131.139 17.7221 130.013 17.7221C128.86 17.7221 128.087 18.2497 127.758 19.2066C127.584 19.7311 127.507 20.3077 127.507 21.3598C127.507 22.418 127.584 22.9885 127.758 23.516C128.084 24.473 128.86 24.9975 130.013 24.9975C131.139 24.9975 131.915 24.473 132.24 23.516Z" fill="#1C252D"/>
<path d="M137.934 24.2092C137.661 23.3933 137.535 22.6265 137.535 21.3598C137.535 20.093 137.658 19.3262 137.934 18.5104C138.615 16.5014 140.462 15.3297 142.919 15.3297C145.345 15.3297 147.198 16.5014 147.879 18.5104C148.152 19.3262 148.275 20.093 148.275 21.3598C148.275 22.6265 148.152 23.3933 147.879 24.2092C147.198 26.2182 145.345 27.3899 142.919 27.3899C140.462 27.3899 138.615 26.2182 137.934 24.2092ZM145.17 23.4884C145.37 22.8903 145.422 22.3413 145.422 21.3598C145.422 20.3783 145.37 19.8507 145.17 19.2281C144.821 18.2711 144.045 17.7221 142.919 17.7221C141.793 17.7221 140.989 18.2742 140.64 19.2281C140.44 19.8507 140.388 20.3752 140.388 21.3598C140.388 22.3413 140.437 22.8903 140.64 23.4884C140.986 24.4454 141.793 24.9975 142.919 24.9975C144.045 24.9975 144.821 24.4454 145.17 23.4884Z" fill="#1C252D"/>
<path d="M159.496 18.0994V23.8994C159.496 26.1477 160.423 27.2733 162.855 27.2733H164.656C164.803 27.2733 164.901 27.1782 164.901 27.0341L165.331 25.1201C165.331 24.976 165.236 24.8809 165.085 24.8809H163.429C162.656 24.8809 162.3 24.6202 162.3 23.8043V18.0994C162.3 18.0043 162.352 17.9552 162.453 17.9552H163.877C164.027 17.9552 164.125 17.8601 164.125 17.716L164.137 15.8327C164.137 15.6886 164.036 15.5935 163.886 15.5935H162.456C162.355 15.5935 162.303 15.5475 162.303 15.4493V11.735C162.303 11.5908 162.205 11.4957 162.058 11.4957L159.754 12.2441C159.6 12.2441 159.499 12.3423 159.499 12.4834V15.4524V18.0994H159.496Z" fill="#1C252D"/>
<path d="M115.98 13.425V13.1367C115.98 13.0876 116.017 13.0508 116.066 13.0508C117.784 13.0815 143.672 13.3606 162.182 6.03309C162.24 6.01162 162.302 6.0515 162.302 6.11284V7.14648C162.302 7.18022 162.28 7.21089 162.249 7.22623C154.491 10.41 142.528 11.9159 133.635 12.6183C124.524 13.3391 116.95 13.5047 116.069 13.5078C116.017 13.5109 115.98 13.4741 115.98 13.425Z" fill="#1C252D"/>
<path d="M0 10.9498C0 10.7934 0.101232 10.6891 0.251545 10.6891L2.70565 11.14C2.85289 11.14 2.95412 11.2412 2.95412 11.4007V26.8715C2.95412 27.028 2.85289 27.1353 2.70565 27.1353H0.251545C0.101232 27.1353 0 27.031 0 26.8715V10.9498Z" fill="#1C252D"/>
<path d="M47.3845 27.1353C47.2311 27.1353 47.1329 27.0402 47.1329 26.896V20.2433C47.1329 18.7588 46.3568 17.7313 44.8537 17.7313C43.3996 17.7313 42.5499 18.7588 42.5499 20.2433V26.896C42.5499 27.0402 42.4517 27.1353 42.2984 27.1353H39.9946C39.8443 27.1353 39.7461 27.0402 39.7461 26.896V15.8388C39.7461 15.6947 39.8473 15.5996 39.9946 15.5996H42.2984C42.4487 15.5996 42.5499 15.6947 42.5499 15.8388V16.6762H42.5775C43.1021 15.9585 44.1573 15.3358 45.7586 15.3358C48.3385 15.3358 49.9398 17.1547 49.9398 19.6207V26.896C49.9398 27.0402 49.8417 27.1353 49.6883 27.1353H47.3845Z" fill="#1C252D"/>
<path d="M56.222 26.0341H56.1975V26.896C56.1975 27.0402 56.0993 27.1353 55.949 27.1353H53.6452C53.4949 27.1353 53.3906 27.0402 53.3906 26.896V12.4895C53.3906 12.3484 53.4949 12.2533 53.6452 12.2533L55.949 12.6643C56.1024 12.6643 56.1975 12.7563 56.1975 12.9035V16.7007H56.222C56.7988 15.9094 57.8019 15.3358 59.4277 15.3358C61.48 15.3358 62.98 16.2682 63.6089 18.1116C63.9095 18.998 64.0353 19.8139 64.0353 21.369C64.0353 22.924 63.9095 23.7368 63.6089 24.6202C62.9831 26.4635 61.48 27.396 59.4277 27.396C57.7988 27.396 56.7988 26.8255 56.222 26.0341ZM60.9278 23.5221C61.1088 22.9946 61.1793 22.4241 61.1793 21.369C61.1793 20.3169 61.1088 19.7434 60.9278 19.2158C60.6026 18.2588 59.8296 17.7313 58.7007 17.7313C57.5473 17.7313 56.7711 18.2558 56.446 19.2158C56.2711 19.7434 56.1944 20.3169 56.1944 21.369C56.1944 22.4241 56.2711 22.9946 56.446 23.5221C56.7681 24.4791 57.5473 25.0066 58.7007 25.0066C59.8296 25.0066 60.5995 24.4791 60.9278 23.5221Z" fill="#1C252D"/>
<path d="M74.2453 27.1353C74.098 27.1353 73.9968 27.0402 73.9968 26.896V26.0587H73.9723C73.3189 26.85 72.3679 27.3991 70.8402 27.3991C68.2634 27.3991 66.6836 25.5771 66.6836 23.1142V15.8388C66.6836 15.6947 66.7848 15.5996 66.9321 15.5996L69.2389 16.0106C69.3892 16.0106 69.4874 16.1057 69.4874 16.2499V22.4916C69.4874 23.9761 70.2144 25.0036 71.739 25.0036C73.1655 25.0036 73.9937 23.9761 73.9937 22.5161V15.8388C73.9937 15.6947 74.095 15.5996 74.2422 15.5996L76.546 16.0106C76.6963 16.0106 76.7976 16.1057 76.7976 16.2499V26.896C76.7976 27.0402 76.6994 27.1353 76.546 27.1353H74.2453Z" fill="#1C252D"/>
<path d="M83.5686 27.2794C81.2157 27.2794 80.2617 26.2029 80.2617 23.9791V12.4895C80.2617 12.3484 80.3629 12.2502 80.5133 12.2502L82.817 12.6612C82.9674 12.6612 83.0686 12.7563 83.0686 12.9005V23.8319C83.0686 24.6263 83.3938 24.887 84.1208 24.887H84.673C84.8233 24.887 84.9184 24.9821 84.9184 25.1263V27.0402C84.9184 27.1844 84.8233 27.2794 84.673 27.2794H83.5686Z" fill="#1C252D"/>
<path d="M18.0625 23.9055C18.0625 26.1538 18.9859 27.2794 21.4154 27.2794H23.2161C23.3695 27.2794 23.4677 27.1844 23.4677 27.0402L23.8941 25.1263C23.8941 24.9821 23.7959 24.887 23.6425 24.887H21.9921C21.213 24.887 20.8663 24.6263 20.8663 23.8105V18.1055C20.8663 18.0104 20.9154 17.9614 21.0166 17.9614H23.7284C23.8787 17.9614 23.9799 17.8663 23.9799 17.7221L24.4094 15.8389C24.4094 15.6947 24.3082 15.5996 24.1609 15.5996H21.0166C20.9154 15.5996 20.8663 15.5536 20.8663 15.4555V12.8974C20.8663 12.7533 20.7651 12.6582 20.6148 12.6582L18.311 12.2472C18.1607 12.2472 18.0625 12.3453 18.0625 12.4864V23.9055Z" fill="#1C252D"/>
<path d="M36.3464 21.6021V20.1912C36.3464 16.9461 34.7451 15.6027 32.1652 15.6027H28.0454C27.892 15.6027 27.7939 15.6977 27.7939 15.8419L28.2203 17.7466C28.2203 17.8938 28.3215 17.992 28.4718 17.992H30.021H30.7725L30.8339 17.9951C32.2296 17.9951 33.5763 18.3171 33.696 19.8691C33.696 19.866 33.696 19.8599 33.6929 19.8568V20.0777C33.6929 20.1728 33.6407 20.2218 33.5395 20.2218H31.0854C28.1068 20.2218 26.2539 21.369 26.2539 23.8841C26.2539 26.301 28.1098 27.399 30.3124 27.399C32.0118 27.399 33.1407 26.85 33.7144 26.0618H33.742V26.8991C33.742 27.0402 33.8401 27.1383 33.9905 27.1383H35.8556H36.0949C36.2452 27.1383 36.3464 27.0402 36.3464 26.8991V21.6021ZM33.6929 23.2583C33.6929 24.5742 32.7419 25.2213 31.0118 25.2213C29.659 25.2213 28.935 24.7429 28.935 23.7859C28.935 22.7093 29.7357 22.2278 31.5394 22.2278H33.5395C33.6407 22.2278 33.6929 22.2738 33.6929 22.3719V23.2583Z" fill="#1C252D"/>
<path d="M8.83539 19.2465C8.83539 19.9397 9.10841 20.3537 9.9152 20.3537L10.2557 20.3476L12.0319 20.3353C12.0319 20.3353 12.0319 20.3415 12.0319 20.3445H12.1178C14.4676 20.3445 15.4185 21.3996 15.4185 23.5804V23.9055C15.4185 26.0832 14.4676 27.1414 12.1178 27.1414H6.81689C6.66658 27.1414 6.56228 27.0433 6.56228 26.896L6.99482 25.0435C6.99482 24.8962 7.09605 24.7981 7.24636 24.7981H7.93044H11.133H11.5656C12.2926 24.7981 12.7221 24.5404 12.7221 23.7644L12.7129 23.5129C12.7129 22.8198 12.446 22.4088 11.6361 22.4088L11.3263 22.3995H10.5195L9.43971 22.4088C7.08684 22.4088 6.13281 21.3536 6.13281 19.1729V19.1667V18.8416V18.5564C6.13281 18.538 6.14202 18.5226 6.14508 18.5073C6.24018 16.5474 7.20955 15.5996 9.43971 15.5996H14.2743C14.4215 15.5996 14.5228 15.6947 14.5228 15.845L14.0902 17.6976C14.0902 17.8448 13.9921 17.9429 13.8418 17.9429H12.0288L10.8508 17.9399H9.99189C9.26486 17.9399 8.83539 18.1975 8.83539 18.9704V19.2465Z" fill="#1C252D"/>
</g>
<defs>
<clipPath id="clip0_1359_25950">
<rect width="200" height="31" fill="white"/>
</clipPath>
</defs>
</svg>
