<svg width="200" height="103" viewBox="0 0 200 103" fill="none" xmlns="http://www.w3.org/2000/svg">
<g clip-path="url(#clip0_1191_15622)">
<path d="M102.567 0.0664062L104.533 11.0238C114.867 12.8501 121.733 21.0183 121.733 32.175C121.733 44.8591 112.833 53.7247 100.1 53.7247C87.3667 53.7247 78.4667 44.8591 78.4667 32.175C78.4667 21.0183 85.3667 12.8169 95.7 11.0238L97.6667 0.0664062C79.8 1.16215 67.0667 14.3443 67.0667 32.175C67.0667 50.8359 80.9667 64.3501 100.1 64.3501C119.233 64.3501 133.133 50.8027 133.133 32.175C133.133 14.3443 120.433 1.19536 102.567 0.0664062Z" fill="#0F4586"/>
<path d="M100.1 0L95.3667 26.4639H104.867L100.1 0Z" fill="#3CAA36"/>
<path d="M0 62.8559V30.8801C0 11.5551 11.3667 0 30.4333 0C49.5 0 60.8667 11.5551 60.8667 30.8801V62.8559H49.5667V30.8801C49.5667 18.196 42.4 10.6254 30.4 10.6254C18.4 10.6254 11.2333 18.196 11.2333 30.8801V62.8559H0Z" fill="#0F4586"/>
<path d="M169.567 0C150.5 0 139.133 11.5551 139.133 30.8801V62.8559H150.4V42.2691H188.733V62.8559H200V30.8801C200 11.5551 188.6 0 169.567 0ZM150.4 32.2415V30.9132C150.4 18.2292 157.567 10.6586 169.567 10.6586C181.567 10.6586 188.733 18.2292 188.733 30.9132V32.2415H150.4Z" fill="#0F4586"/>
<path d="M28.0667 86.1982H26.3667C25.9667 86.1982 25.6 86.1982 25.3333 85.6338L21.6 77.7975C21.5333 77.6979 21.5 77.6647 21.4333 77.6647C21.3667 77.6647 21.3333 77.6979 21.3333 77.7975V85.8994C21.3333 86.0654 21.2 86.2315 21 86.2315H19.5667C19.3667 86.2315 19.2333 86.0986 19.2333 85.8994V74.9087C19.2333 74.5435 19.5333 74.2779 19.9 74.2779H21.7333C22.1 74.2779 22.2667 74.3775 22.4667 74.8092L26.4333 83.0106C26.4667 83.077 26.5333 83.1434 26.5667 83.1434C26.6 83.1434 26.6667 83.1102 26.6667 83.0106V74.5435C26.6667 74.3775 26.8 74.2446 27 74.2446H28.4333C28.6333 74.2446 28.7667 74.3775 28.7667 74.5435V85.5674C28.7333 85.8994 28.4333 86.1982 28.0667 86.1982Z" fill="#099E3C"/>
<path d="M35.4667 86.2983C32.7 86.2983 30.6667 84.8041 30.6667 81.2844V79.1261C30.6667 75.5732 32.7 74.1123 35.4667 74.1123C38.2333 74.1123 40.2667 75.6065 40.2667 79.1261V81.2844C40.2667 84.8373 38.2333 86.2983 35.4667 86.2983ZM37.9 79.1261C37.9 77.001 37.1 76.0381 35.4667 76.0381C33.8333 76.0381 33.0333 77.001 33.0333 79.1261V81.2844C33.0333 83.4095 33.8333 84.3725 35.4667 84.3725C37.1 84.3725 37.9 83.4095 37.9 81.2844V79.1261Z" fill="#099E3C"/>
<path d="M51.1 86.1988H49.0333C48.8333 86.1988 48.7667 86.0327 48.7 85.8667L46.2667 81.5833H46.0333C45.6 81.5833 44.9333 81.5501 44.5333 81.5169V85.8667C44.5333 86.0327 44.4 86.1988 44.2 86.1988H42.5333C42.3333 86.1988 42.2 86.0659 42.2 85.8667V74.7765C42.2 74.4444 42.4 74.3447 42.7333 74.2783C43.6 74.1455 44.8 74.0791 46.0333 74.0791C48.6333 74.0791 50.8667 74.9757 50.8667 77.7316V77.8644C50.8667 79.5578 49.9667 80.6204 48.6 81.1517L51.2333 85.8667C51.2667 85.8999 51.2667 85.9663 51.2667 85.9995C51.3 86.0991 51.2333 86.1988 51.1 86.1988ZM48.5667 77.7316C48.5667 76.5363 47.7333 76.005 46.0333 76.005C45.6667 76.005 44.8333 76.0382 44.5333 76.0714V79.6906C44.8 79.6906 45.7333 79.7239 46.0333 79.7239C47.7667 79.7239 48.5667 79.259 48.5667 77.8644V77.7316Z" fill="#099E3C"/>
<path d="M60.0667 76.1041H57.1333V85.8662C57.1333 86.0322 56.9667 86.1982 56.8 86.1982H55.1333C54.9333 86.1982 54.8 86.0654 54.8 85.8662V76.1041H51.8667C51.6667 76.1041 51.5333 76.0045 51.5333 75.8052V74.5435C51.5333 74.3775 51.7 74.2446 51.8667 74.2446H60.1C60.3 74.2446 60.4333 74.3775 60.4333 74.5435V75.8052C60.4 75.9713 60.2333 76.1041 60.0667 76.1041Z" fill="#099E3C"/>
<path d="M68.4667 86.0991C67.9333 86.1655 67.2667 86.3315 65.2667 86.3315C63.0667 86.3315 61.3667 85.767 61.3667 83.0443V77.4328C61.3667 74.71 63.0667 74.1455 65.2667 74.1455C67.2667 74.1455 67.9333 74.2783 68.4667 74.3779C68.7333 74.4112 68.8 74.4776 68.8 74.7099V75.7394C68.8 75.9053 68.6333 76.0714 68.4667 76.0714H65.0333C64.0667 76.0714 63.7 76.4034 63.7 77.4659V79.1926H68.2667C68.4667 79.1926 68.6 79.3254 68.6 79.5247V80.6868C68.6 80.8528 68.4333 81.0189 68.2667 81.0189H63.7V83.1107C63.7 84.1732 64.0667 84.5053 65.0333 84.5053H68.4667C68.6667 84.5053 68.8 84.6381 68.8 84.8373V85.8666C68.8 85.9663 68.7333 86.0658 68.4667 86.0991Z" fill="#099E3C"/>
<path d="M78.5333 86.2983C77.3333 86.2983 75.7333 86.1988 75.2333 86.0991C74.9333 86.0659 74.8 85.9331 74.8 85.6011V74.7765C74.8 74.4444 74.9667 74.3116 75.2333 74.2783C75.7333 74.2119 77.3667 74.0791 78.5333 74.0791C81.9 74.0791 83.8 75.8058 83.8 78.9934V81.3509C83.8333 84.5718 81.9 86.2983 78.5333 86.2983ZM81.5 79.0266C81.5 76.6027 80.2333 75.9717 78.5333 75.9717C77.9 75.9717 77.4667 76.005 77.1333 76.005V84.3725C77.5 84.3725 77.9333 84.4057 78.5333 84.4057C80.2 84.4057 81.5 83.7748 81.5 81.3509V79.0266Z" fill="#099E3C"/>
<path d="M94.4667 86.1987H92.6667C92.5 86.1987 92.3667 86.0658 92.3333 85.933L91.5667 82.8782H87.7L86.9333 85.933C86.9 86.0658 86.7667 86.1987 86.6 86.1987H84.8333C84.6667 86.1987 84.5333 86.0991 84.5333 85.933C84.5333 85.933 84.5667 85.8999 84.5667 85.8666L87.3333 75.7725C87.7333 74.2783 88.9333 74.1455 89.6667 74.1455C90.4 74.1455 91.6 74.2783 92 75.7725L94.7667 85.8666C94.7667 85.8999 94.7667 85.933 94.7667 85.933C94.7667 86.0658 94.6333 86.1987 94.4667 86.1987ZM89.9333 76.2374C89.8667 76.0382 89.8333 75.9717 89.6667 75.9717C89.5 75.9717 89.4333 76.0382 89.4 76.2374L88.2 81.0189H91.1667L89.9333 76.2374Z" fill="#099E3C"/>
<path d="M109.033 86.1987H107.233C107.067 86.1987 106.933 86.0658 106.9 85.933L106.133 82.8782H102.267L101.5 85.933C101.467 86.0658 101.333 86.1987 101.167 86.1987H99.4C99.2333 86.1987 99.1 86.0991 99.1 85.933C99.1 85.933 99.1333 85.8999 99.1333 85.8666L101.9 75.7725C102.3 74.2783 103.5 74.1455 104.233 74.1455C104.967 74.1455 106.167 74.2783 106.567 75.7725L109.333 85.8666C109.333 85.8999 109.333 85.933 109.333 85.933C109.333 86.0658 109.2 86.1987 109.033 86.1987ZM104.5 76.2374C104.433 76.0382 104.4 75.9717 104.233 75.9717C104.067 75.9717 104 76.0382 103.967 76.2374L102.767 81.0189H105.733L104.5 76.2374Z" fill="#099E3C"/>
<path d="M121.2 86.1988H119.5C119.333 86.1988 119.233 86.0327 119.233 85.8667V78.3625C119.233 78.2629 119.2 78.1964 119.167 78.1964C119.133 78.1964 119.1 78.2297 119.067 78.2961L117.467 81.3841C117.367 81.5501 117.133 81.6497 116.933 81.6497H115.233C115 81.6497 114.8 81.5501 114.7 81.3841L113.067 78.2961C113.033 78.2629 113 78.1964 112.967 78.1964C112.933 78.1964 112.9 78.2297 112.9 78.3625V85.8335C112.9 85.9995 112.767 86.1655 112.633 86.1655H110.933C110.767 86.1655 110.633 86.0991 110.633 85.9331V74.8429C110.633 74.4776 110.933 74.2119 111.3 74.2119H112.667C112.933 74.2119 113.167 74.378 113.3 74.6104L115.833 79.5247C115.933 79.6575 115.967 79.757 116.033 79.757C116.1 79.757 116.133 79.6906 116.233 79.5247L118.767 74.6104C118.9 74.378 119.133 74.2119 119.4 74.2119H120.767C121.133 74.2119 121.433 74.5108 121.433 74.8429V85.9331C121.467 86.0991 121.333 86.1988 121.2 86.1988Z" fill="#099E3C"/>
<path d="M132.733 86.1987H130.933C130.767 86.1987 130.633 86.0658 130.6 85.933L129.833 82.8782H125.967L125.2 85.933C125.167 86.0658 125.033 86.1987 124.867 86.1987H123.1C122.933 86.1987 122.8 86.0991 122.8 85.933C122.8 85.933 122.833 85.8999 122.833 85.8666L125.6 75.7725C126 74.2783 127.2 74.1455 127.933 74.1455C128.667 74.1455 129.867 74.2783 130.267 75.7725L133.033 85.8666C133.033 85.8999 133.033 85.933 133.033 85.933C133.033 86.0658 132.9 86.1987 132.733 86.1987ZM128.2 76.2374C128.133 76.0382 128.1 75.9717 127.933 75.9717C127.767 75.9717 127.7 76.0382 127.667 76.2374L126.467 81.0189H129.433L128.2 76.2374Z" fill="#099E3C"/>
<path d="M141.967 86.1982H134.6C134.1 86.1982 133.733 86.0322 133.733 85.6005V84.704C133.733 84.5048 133.8 84.3388 133.967 84.1063L139.3 76.4693C139.333 76.4362 139.367 76.3698 139.367 76.3365C139.367 76.2701 139.3 76.2037 139.2 76.2037H134.533C134.333 76.2037 134.2 76.1041 134.2 75.9049V74.5435C134.2 74.3775 134.333 74.2446 134.533 74.2446H141.3C141.8 74.2446 142.2 74.4439 142.2 74.8423V75.7721C142.2 76.0045 142.1 76.2369 141.967 76.4362L136.733 83.9404C136.667 84.0068 136.667 84.0732 136.667 84.1063C136.667 84.1728 136.7 84.206 136.833 84.206H142C142.2 84.206 142.333 84.3056 142.333 84.5048V85.8662C142.3 86.0322 142.167 86.1982 141.967 86.1982Z" fill="#099E3C"/>
<path d="M148.133 86.2984C145.367 86.2984 143.333 84.8042 143.333 81.2846V79.1263C143.333 75.5734 145.367 74.1125 148.133 74.1125C150.9 74.1125 152.933 75.6066 152.933 79.1263V81.2846C152.9 84.8374 150.9 86.2984 148.133 86.2984ZM151.067 73.3819H149.667C149.467 73.3819 149.4 73.3155 149.267 73.1827L148.067 71.8878L146.867 73.1827C146.733 73.3155 146.667 73.3819 146.467 73.3819H145.067C144.967 73.3819 144.9 73.3487 144.9 73.2823C144.9 73.2491 144.933 73.1827 144.967 73.1163L146.5 71.1904C146.667 71.0244 146.733 70.958 146.933 70.958H149.133C149.367 70.958 149.433 71.0244 149.567 71.1904L151.1 73.1163C151.167 73.1495 151.167 73.2159 151.167 73.2823C151.2 73.3487 151.167 73.3819 151.067 73.3819ZM150.567 79.1263C150.567 77.0012 149.767 76.0383 148.133 76.0383C146.5 76.0383 145.7 77.0012 145.7 79.1263V81.2846C145.7 83.4096 146.5 84.3725 148.133 84.3725C149.767 84.3725 150.567 83.4096 150.567 81.2846V79.1263Z" fill="#099E3C"/>
<path d="M163.633 86.1982H161.933C161.533 86.1982 161.167 86.1982 160.9 85.6338L157.167 77.7975C157.1 77.6979 157.067 77.6647 157 77.6647C156.933 77.6647 156.9 77.6979 156.9 77.7975V85.8994C156.9 86.0654 156.767 86.2315 156.567 86.2315H155.133C154.933 86.2315 154.8 86.0986 154.8 85.8994V74.9087C154.8 74.5435 155.1 74.2779 155.467 74.2779H157.3C157.667 74.2779 157.833 74.3775 158.033 74.8092L162 83.0106C162.033 83.077 162.1 83.1434 162.133 83.1434C162.167 83.1434 162.233 83.1102 162.233 83.0106V74.5435C162.233 74.3775 162.367 74.2446 162.567 74.2446H164C164.2 74.2446 164.333 74.3775 164.333 74.5435V85.5674C164.3 85.8994 164 86.1982 163.633 86.1982Z" fill="#099E3C"/>
<path d="M168.567 86.1982H166.9C166.7 86.1982 166.567 86.0654 166.567 85.8662V74.5435C166.567 74.3775 166.733 74.2446 166.9 74.2446H168.567C168.767 74.2446 168.9 74.3775 168.9 74.5435V85.8662C168.9 86.0322 168.767 86.1982 168.567 86.1982Z" fill="#099E3C"/>
<path d="M180.167 86.1987H178.367C178.2 86.1987 178.067 86.0658 178.033 85.933L177.267 82.8782H173.4L172.633 85.933C172.6 86.0658 172.467 86.1987 172.3 86.1987H170.533C170.367 86.1987 170.233 86.0991 170.233 85.933C170.233 85.933 170.267 85.8999 170.267 85.8666L173.033 75.7725C173.433 74.2783 174.633 74.1455 175.367 74.1455C176.1 74.1455 177.3 74.2783 177.7 75.7725L180.467 85.8666C180.467 85.8999 180.467 85.933 180.467 85.933C180.467 86.0658 180.333 86.1987 180.167 86.1987ZM175.633 76.2374C175.567 76.0382 175.533 75.9717 175.367 75.9717C175.2 75.9717 175.133 76.0382 175.1 76.2374L173.9 81.0189H176.867L175.633 76.2374Z" fill="#099E3C"/>
<path d="M73.1333 102.9H72.1667C72.0333 102.9 71.9333 102.801 71.9 102.668L70.8333 98.9486H66.6667L65.6333 102.668C65.6 102.801 65.4667 102.9 65.3333 102.9H64.3667C64.2 102.9 64.1 102.801 64.1 102.635C64.1 102.602 64.1 102.568 64.1 102.535L67.1 92.0425C67.3667 91.0464 68.1333 90.814 68.7333 90.814C69.3333 90.814 70.1 91.0463 70.3667 92.0094L73.3667 102.502C73.3667 102.535 73.3667 102.568 73.3667 102.602C73.4333 102.767 73.3333 102.9 73.1333 102.9ZM69.0667 92.3746C69.0333 92.2086 68.9333 92.0758 68.7667 92.0758C68.6 92.0758 68.5 92.1753 68.4333 92.3746L66.9667 97.6873H70.5333L69.0667 92.3746Z" fill="#099E3C"/>
<path d="M76.5 102.901H75.6C75.4333 102.901 75.3 102.767 75.3 102.568V91.2456C75.3 91.0796 75.4 90.9468 75.6 90.9468H76.5C76.6667 90.9468 76.8 91.0796 76.8 91.2456V102.568C76.7667 102.734 76.6667 102.901 76.5 102.901Z" fill="#099E3C"/>
<path d="M87.4667 102.9H86.4333C86.2333 102.9 86.1333 102.9 86 102.701L83.1 97.8865H82.9667H82.7C82.1667 97.8865 81.7667 97.8865 80.9333 97.8533V102.602C80.9333 102.767 80.8333 102.933 80.6333 102.933H79.7667C79.6 102.933 79.4667 102.801 79.4667 102.602V91.312C79.4667 91.0796 79.5667 90.9799 79.8667 90.9468C80.5667 90.8804 81.7667 90.814 82.7 90.814C85.2667 90.814 87.2333 91.6773 87.2333 94.2672V94.3669C87.2333 96.1599 86.1667 97.2224 84.7 97.6209L87.6333 102.502C87.6667 102.535 87.6667 102.602 87.6667 102.635C87.6667 102.801 87.6 102.9 87.4667 102.9ZM85.7667 94.2672C85.7667 92.6734 84.7 92.1422 82.7 92.1422C82.2 92.1422 81.3 92.1422 80.9333 92.1753V96.5915C81.6333 96.5915 82.3333 96.6247 82.7 96.6247C84.7 96.6247 85.7667 96.1266 85.7667 94.4V94.2672Z" fill="#099E3C"/>
<path d="M92.6333 98.1187C92.1 98.1187 91.4333 98.0857 91 98.0525V102.568C91 102.734 90.9 102.9 90.7 102.9H89.8333C89.6667 102.9 89.5333 102.767 89.5333 102.568V91.3453C89.5333 91.1128 89.6667 90.9799 89.9333 90.9468C90.6333 90.8804 91.6667 90.814 92.6333 90.814C95.2667 90.814 97.1667 91.7105 97.1667 94.3005V94.4996C97.1667 97.2224 95.2667 98.1187 92.6333 98.1187ZM95.7 94.3005C95.7 92.6734 94.7333 92.0425 92.6333 92.0425C92.1333 92.0425 91.4 92.0758 91 92.1089V96.824C91.3667 96.824 92.2 96.8904 92.6333 96.8904C94.8333 96.8904 95.7 96.1931 95.7 94.4996V94.3005Z" fill="#099E3C"/>
<path d="M103.267 103C100.733 103 98.9 101.506 98.9 97.9529V95.8611C98.9 92.275 100.733 90.814 103.267 90.814C105.8 90.814 107.633 92.3082 107.633 95.8611V97.9529C107.633 101.506 105.8 103 103.267 103ZM106.133 95.8611C106.133 93.1715 105.033 92.1422 103.267 92.1422C101.5 92.1422 100.367 93.1715 100.367 95.8611V97.9529C100.367 100.643 101.467 101.672 103.267 101.672C105.033 101.672 106.133 100.643 106.133 97.9529V95.8611Z" fill="#099E3C"/>
<path d="M117.867 102.9H116.833C116.633 102.9 116.533 102.9 116.4 102.701L113.5 97.8865H113.367H113.1C112.567 97.8865 112.167 97.8865 111.333 97.8533V102.602C111.333 102.767 111.233 102.933 111.033 102.933H110.167C110 102.933 109.867 102.801 109.867 102.602V91.312C109.867 91.0796 109.967 90.9799 110.267 90.9468C110.967 90.8804 112.167 90.814 113.1 90.814C115.667 90.814 117.633 91.6773 117.633 94.2672V94.3669C117.633 96.1599 116.567 97.2224 115.1 97.6209L118.033 102.502C118.067 102.535 118.067 102.602 118.067 102.635C118.067 102.801 118 102.9 117.867 102.9ZM116.167 94.2672C116.167 92.6734 115.1 92.1422 113.1 92.1422C112.6 92.1422 111.7 92.1422 111.333 92.1753V96.5915C112.033 96.5915 112.733 96.6247 113.1 96.6247C115.1 96.6247 116.167 96.1266 116.167 94.4V94.2672Z" fill="#099E3C"/>
<path d="M126.667 92.1753H123.5V102.568C123.5 102.734 123.4 102.9 123.2 102.9H122.333C122.167 102.9 122.033 102.767 122.033 102.568V92.1753H118.867C118.7 92.1753 118.533 92.1089 118.533 91.9096V91.2124C118.533 91.0464 118.667 90.9136 118.867 90.9136H126.667C126.833 90.9136 126.967 91.0131 126.967 91.2124V91.9096C127 92.0757 126.867 92.1753 126.667 92.1753Z" fill="#099E3C"/>
<path d="M131.633 103C130.5 103 129.667 102.9 128.933 102.768C128.667 102.734 128.633 102.667 128.633 102.468V101.838C128.633 101.672 128.767 101.572 128.9 101.572H128.933C129.667 101.638 130.867 101.672 131.6 101.672C133.533 101.672 134.067 100.908 134.067 99.7795C134.067 98.982 133.6 98.517 132.133 97.6208L130.567 96.6579C129.067 95.7613 128.333 94.9313 128.333 93.6363C128.333 91.6772 129.733 90.7808 132.2 90.7808C133.167 90.7808 134.4 90.8803 135 90.98C135.167 91.0131 135.267 91.0796 135.267 91.2455V91.9429C135.267 92.1089 135.167 92.2085 135 92.2085C134.3 92.1753 133.167 92.1089 132.233 92.1089C130.567 92.1089 129.867 92.4742 129.867 93.6363C129.867 94.4 130.4 94.8317 131.633 95.5954L133.133 96.4919C135 97.5876 135.667 98.4837 135.667 99.7795C135.633 101.339 134.833 103 131.633 103Z" fill="#099E3C"/>
</g>
<defs>
<clipPath id="clip0_1191_15622">
<rect width="200" height="103" fill="white"/>
</clipPath>
</defs>
</svg>
