<svg width="200" height="45" viewBox="0 0 200 45" fill="none" xmlns="http://www.w3.org/2000/svg">
<g clip-path="url(#clip0_1360_28710)">
<path d="M101.197 11.7155L104.169 10.6293C106.692 9.60516 108.893 8.08706 110.772 6.07499C111.585 5.69223 112.342 5.03792 113.042 4.11206C114.942 2.92758 116.72 2.76723 118.378 3.63102C121.034 5.01982 123.675 8.79051 125.505 11.281L126.787 13.1198C126.504 13.5336 126.311 13.9836 126.208 14.4698C126.181 14.5845 126.131 14.6922 126.061 14.7858C125.99 14.8794 125.901 14.9568 125.799 15.0129L125.065 15.4319C124.931 15.406 124.795 15.2819 124.656 15.0595L122.664 12.7086C120.975 10.0552 119.287 8.07154 117.598 6.75775C116.45 5.86292 115.454 5.96895 114.61 7.07585C113.42 7.77413 112.458 8.59654 111.722 9.54309L107.019 12.7784L103.366 14.2991C93.3432 16.006 85.7602 11.9948 78.6096 5.15947C78.302 4.86548 77.8929 4.70229 77.4674 4.70374C77.0418 4.70518 76.6323 4.87115 76.3239 5.16723C73.9455 7.45861 71.8838 10.094 70.1386 13.0733L67.7988 11.056C69.6598 7.84395 75.6984 -1.48967 80.2544 2.58361C80.9443 3.2043 82.3754 4.40689 84.5479 6.19137C89.5105 10.2776 95.0601 12.119 101.197 11.7155Z" fill="#A7A9AC"/>
<path d="M113.042 4.11206C112.342 5.03792 111.585 5.69223 110.772 6.07499C107.281 2.9405 102.718 6.12154 104.169 10.6293L101.196 11.7155C99.9556 6.43964 101.678 3.17068 106.362 1.90861C108.787 1.25688 111.014 1.99137 113.042 4.11206Z" fill="#FFC20E"/>
<path d="M114.61 7.07587C116.054 13.9422 108.942 18.3104 103.367 14.2991L107.02 12.7785C109.537 13.1147 111.105 12.0362 111.722 9.54311C112.459 8.59656 113.421 7.77414 114.61 7.07587Z" fill="#FFC20E"/>
<path d="M157.166 17.1776L151.722 18.706C149.524 17.6147 147.588 16.2621 145.915 14.6483C145.655 14.3971 145.336 14.2174 144.987 14.1264C144.638 14.0353 144.271 14.036 143.923 14.1285C142.234 14.5733 140.443 14.7259 138.548 14.5862C138.306 14.5655 137.133 14.1336 135.027 13.2905C132.618 12.3233 130.113 12.4319 127.514 13.6164C127.344 13.4405 127.102 13.275 126.788 13.1198L125.506 11.281C129.068 9.31552 132.559 9.02846 135.977 10.4198C138.232 11.3405 139.48 11.7905 139.722 11.7698C141.792 11.5759 144.147 10.7069 146.348 11.4595C146.598 11.5417 146.835 11.6648 147.05 11.8241C150.239 14.2293 152.788 16.6966 157.166 17.1776Z" fill="#4DB848"/>
<path d="M70.1382 13.0733C70.1021 13.0991 70.0635 13.1224 70.0223 13.1431L68.0764 15.6491L66.8254 12.6698C66.7894 12.5664 66.7817 12.3879 66.8022 12.1345C67.1729 11.8603 67.505 11.5009 67.7984 11.056L70.1382 13.0733Z" fill="#909597"/>
<path d="M66.8033 12.1345C66.7827 12.3879 66.7904 12.5664 66.8264 12.6698L64.8728 14.7336C62.2061 14.2681 59.8432 14.55 57.784 15.5793C54.9886 16.9758 52.7852 17.9715 51.1739 18.5664L43.1816 16.2155C47.264 16.5207 51.3232 15.5586 55.3593 13.3293C58.7981 11.4207 62.6128 11.0224 66.8033 12.1345Z" fill="#FEDE00"/>
<path d="M66.8263 12.6698L68.0772 15.6491C62.8108 22.6086 54.7954 23.1983 47.2432 20.8164C40.8803 18.8069 34.973 17.0147 28.4093 17.4957C24.8031 17.7672 20.3784 19.5285 17.2432 20.0716C10.7104 21.1888 5.34878 21.644 1.1583 21.4371C0.684685 21.4112 0.298584 21.0129 0 20.2422V19.6371C0.33462 18.7991 0.785071 18.3828 1.35135 18.3879C5.60875 18.4241 10.2909 18.075 15.3977 17.3405C15.825 17.2785 18.1776 16.6681 22.4556 15.5095C29.722 13.5388 35.529 14.4543 43.1815 16.2155L51.1737 18.5664C56.7181 19.8388 61.2844 18.5612 64.8726 14.7336L66.8263 12.6698Z" fill="#0072BC"/>
<path d="M76.248 13.1279C77.2673 12.8331 79.9469 13.6006 81.3369 14.3066C84.4717 15.8892 86.5773 16.8773 87.6533 17.2705C94.7833 19.8619 102.042 20.2448 109.43 18.4189L109.244 21.5615C100.498 23.589 92.0708 22.73 83.9629 18.9854C81.7931 17.9845 78.3644 15.7196 76.04 16.3711C73.605 17.0539 70.9507 16.8132 68.0781 15.6494L70.0244 13.1436C72.0783 13.7331 74.153 13.7278 76.248 13.1279ZM124.658 15.0596C119.86 18.1268 114.722 20.2943 109.245 21.5615L109.43 18.4189C114.135 17.1517 118.548 15.2486 122.666 12.709L124.658 15.0596Z" fill="url(#paint0_linear_1360_28710)"/>
<path d="M126.788 13.1198C127.102 13.275 127.344 13.4405 127.514 13.6164C133.584 21.4138 143.028 22.1431 151.723 18.706L157.167 17.1776C162.124 16.5258 166.171 15.5793 171.568 16.619C172.588 16.8207 175.048 17.5603 178.951 18.8379C185.02 20.8293 191.458 21.0957 198.263 19.6371C198.943 19.4871 199.522 19.7069 200.001 20.2965V22.1974C192.531 24.2457 185.069 24.0931 177.615 21.7396C173.568 20.4569 171.543 19.8155 171.537 19.8155C167.918 19.0293 164.047 19.0474 159.924 19.8698C153.916 21.0646 147.839 23.7491 141.684 23.7569C134.945 23.7621 129.406 20.9871 125.066 15.4319L125.8 15.0129C125.902 14.9568 125.991 14.8794 126.062 14.7858C126.132 14.6922 126.183 14.5845 126.209 14.4698C126.312 13.9836 126.505 13.5336 126.788 13.1198Z" fill="#0072BC"/>
<path d="M15.2355 40.0112V42.9052C15.2355 42.9916 15.2013 43.0745 15.1405 43.1356C15.0797 43.1967 14.9972 43.231 14.9112 43.231H13.4903C13.4043 43.231 13.3218 43.1967 13.261 43.1356C13.2002 43.0745 13.166 42.9916 13.166 42.9052V34.3241C13.166 34.2377 13.2002 34.1548 13.261 34.0937C13.3218 34.0326 13.4043 33.9983 13.4903 33.9983H19.9691C20.0551 33.9983 20.1376 34.0326 20.1984 34.0937C20.2593 34.1548 20.2934 34.2377 20.2934 34.3241V35.5888C20.2934 35.6752 20.2593 35.7581 20.1984 35.8192C20.1376 35.8803 20.0551 35.9147 19.9691 35.9147H15.529C15.4429 35.9147 15.3604 35.949 15.2996 36.0101C15.2388 36.0712 15.2046 36.1541 15.2046 36.2405V37.4431C15.2046 37.5295 15.2388 37.6124 15.2996 37.6735C15.3604 37.7346 15.4429 37.769 15.529 37.769H19.3513C19.3939 37.769 19.4361 37.7774 19.4755 37.7938C19.5148 37.8101 19.5506 37.8342 19.5807 37.8644C19.6108 37.8947 19.6347 37.9306 19.651 37.9701C19.6673 38.0097 19.6757 38.052 19.6757 38.0948V39.3595C19.6757 39.4459 19.6415 39.5288 19.5807 39.5899C19.5199 39.651 19.4374 39.6853 19.3513 39.6853H15.5598C15.5172 39.6853 15.4751 39.6938 15.4357 39.7102C15.3964 39.7265 15.3606 39.7505 15.3305 39.7808C15.3004 39.811 15.2765 39.847 15.2602 39.8865C15.2439 39.926 15.2355 39.9684 15.2355 40.0112Z" fill="#0072BC"/>
<path d="M32.54 41.7259V42.9285C32.54 43.0149 32.5058 43.0978 32.445 43.1589C32.3841 43.22 32.3017 43.2543 32.2156 43.2543H26.1075C26.0215 43.2543 25.939 43.22 25.8782 43.1589C25.8174 43.0978 25.7832 43.0149 25.7832 42.9285V34.3319C25.7832 34.2455 25.8174 34.1626 25.8782 34.1015C25.939 34.0404 26.0215 34.006 26.1075 34.006H27.5438C27.6298 34.006 27.7123 34.0404 27.7732 34.1015C27.834 34.1626 27.8681 34.2455 27.8681 34.3319V41.0741C27.8681 41.1606 27.9023 41.2435 27.9631 41.3046C28.024 41.3657 28.1065 41.4 28.1925 41.4H32.2156C32.3017 41.4 32.3841 41.4343 32.445 41.4955C32.5058 41.5566 32.54 41.6394 32.54 41.7259Z" fill="#0072BC"/>
<path d="M46.8 38.4824C46.8196 39.1098 46.7117 39.735 46.4823 40.3224C46.253 40.9097 45.9068 41.4478 45.4634 41.9058C45.02 42.3639 44.4881 42.7329 43.8982 42.9918C43.3083 43.2507 42.6718 43.3945 42.0252 43.4149C41.3785 43.4353 40.7343 43.332 40.1293 43.1108C39.5244 42.8896 38.9705 42.5549 38.4994 42.1257C38.0283 41.6966 37.6491 41.1814 37.3835 40.6097C37.1179 40.0379 36.9711 39.4207 36.9515 38.7934C36.9319 38.1661 37.0398 37.5409 37.2691 36.9535C37.4985 36.3661 37.8447 35.828 38.2881 35.37C38.7315 34.912 39.2633 34.543 39.8533 34.2841C40.4432 34.0251 41.0797 33.8814 41.7263 33.8609C42.373 33.8405 43.0172 33.9439 43.6221 34.1651C44.2271 34.3863 44.7809 34.721 45.2521 35.1501C45.7232 35.5793 46.1024 36.0944 46.368 36.6662C46.6336 37.238 46.7804 37.8551 46.8 38.4824ZM44.7097 38.6302C44.7097 37.877 44.4119 37.1548 43.8819 36.6222C43.3519 36.0897 42.633 35.7905 41.8835 35.7905C41.1339 35.7905 40.415 36.0897 39.885 36.6222C39.355 37.1548 39.0572 37.877 39.0572 38.6302C39.0572 39.3833 39.355 40.1056 39.885 40.6381C40.415 41.1706 41.1339 41.4698 41.8835 41.4698C42.633 41.4698 43.3519 41.1706 43.8819 40.6381C44.4119 40.1056 44.7097 39.3833 44.7097 38.6302Z" fill="#0072BC"/>
<path d="M54.5937 40.8569C54.4959 41.1672 54.5397 41.7802 54.725 42.6957C54.7376 42.7598 54.7358 42.826 54.7199 42.8893C54.704 42.9527 54.6743 43.0117 54.6329 43.0622C54.5916 43.1126 54.5396 43.1532 54.4807 43.1811C54.4219 43.209 54.3576 43.2234 54.2926 43.2233H52.9799C52.8775 43.2233 52.7792 43.1816 52.7068 43.1074C52.6344 43.0332 52.5938 42.9325 52.5938 42.8276V34.5103C52.5937 34.3779 52.6456 34.2508 52.738 34.1565C52.8305 34.0621 52.9562 34.0081 53.088 34.006C54.5191 33.975 55.8396 33.9879 57.0493 34.0448C59.7057 34.169 61.1034 36.3802 59.8215 38.7698C59.7401 38.9183 59.6296 39.0477 59.4972 39.15L58.5937 39.8405C58.5511 39.873 58.5151 39.9135 58.488 39.9597C58.461 40.0059 58.4433 40.0569 58.4361 40.1097C58.4289 40.1625 58.4324 40.2159 58.4462 40.267C58.46 40.318 58.4839 40.3656 58.5165 40.4069L60.3158 42.7888C60.3469 42.8311 60.3659 42.8813 60.3706 42.9337C60.3754 42.9862 60.3656 43.0389 60.3425 43.0862C60.3194 43.1334 60.2838 43.1734 60.2395 43.2017C60.1953 43.23 60.1442 43.2455 60.0918 43.2466H58.6092C58.4659 43.2466 58.3243 43.2113 58.1966 43.1438C58.0689 43.0762 57.9588 42.9784 57.8756 42.8586L56.308 40.5853C56.2044 40.4363 56.0612 40.3195 55.8947 40.2484C55.7282 40.1772 55.5451 40.1544 55.3664 40.1827C55.1877 40.2111 55.0205 40.2893 54.8838 40.4085C54.7472 40.5277 54.6467 40.6831 54.5937 40.8569ZM54.6092 36.2095L54.6246 38.1802C54.6246 38.2584 54.6556 38.3334 54.7106 38.3886C54.7656 38.4439 54.8403 38.475 54.9181 38.475L56.6169 38.4595C56.8241 38.4578 57.0291 38.4284 57.2201 38.3728C57.4111 38.3173 57.5844 38.2368 57.73 38.1359C57.8756 38.035 57.9907 37.9157 58.0687 37.7848C58.1467 37.654 58.186 37.5141 58.1845 37.3733V36.9543C58.1814 36.6708 58.013 36.4005 57.7162 36.2027C57.4195 36.0049 57.0186 35.8958 56.6015 35.8991L54.9026 35.9147C54.8248 35.9147 54.7502 35.9457 54.6951 36.001C54.6401 36.0563 54.6092 36.1313 54.6092 36.2095Z" fill="#0072BC"/>
<path d="M67.8679 33.9905H66.4008C66.2344 33.9905 66.0996 34.126 66.0996 34.2931V42.9517C66.0996 43.1188 66.2344 43.2543 66.4008 43.2543H67.8679C68.0343 43.2543 68.1691 43.1188 68.1691 42.9517V34.2931C68.1691 34.126 68.0343 33.9905 67.8679 33.9905Z" fill="#0072BC"/>
<path d="M76.4094 40.8569V42.8431C76.4094 42.983 76.3541 43.1172 76.2556 43.2162C76.1571 43.3151 76.0235 43.3707 75.8843 43.3707H75.0503C74.9069 43.3707 74.7695 43.3126 74.6681 43.2093C74.5667 43.106 74.5098 42.9659 74.5098 42.8198V34.4405C74.5097 34.3307 74.5526 34.2253 74.6292 34.147C74.7057 34.0686 74.8098 34.0236 74.919 34.0215C77.5703 33.9698 79.0838 34.019 79.4596 34.169C81.6011 35.0172 82.2601 36.5224 81.4364 38.6845C81.3402 38.934 81.1838 39.1576 80.9808 39.3362C79.9203 40.2517 78.5587 40.6138 76.8959 40.4224C76.8347 40.4147 76.7726 40.4201 76.7137 40.4385C76.6549 40.4568 76.6006 40.4876 76.5545 40.5287C76.5084 40.5699 76.4717 40.6205 76.4466 40.677C76.4216 40.7336 76.4089 40.795 76.4094 40.8569ZM76.4634 36.1707L76.4789 38.3586C76.4789 38.3939 76.4859 38.4289 76.4996 38.4614C76.5133 38.4939 76.5333 38.5233 76.5585 38.5479C76.5837 38.5725 76.6136 38.5918 76.6463 38.6046C76.6791 38.6174 76.714 38.6234 76.7491 38.6224L77.9692 38.6069C78.4267 38.6015 78.864 38.4736 79.1853 38.2511C79.5066 38.0286 79.6857 37.7297 79.6835 37.4198V37.0474C79.6824 36.8931 79.6364 36.7408 79.548 36.5991C79.4597 36.4574 79.3307 36.3292 79.1685 36.2218C79.0064 36.1144 78.8142 36.0299 78.6031 35.9732C78.392 35.9165 78.1661 35.8887 77.9383 35.8914L76.7183 35.9069C76.65 35.9089 76.5852 35.9376 76.5376 35.9868C76.49 36.0361 76.4634 36.102 76.4634 36.1707Z" fill="#0072BC"/>
<path d="M90.3626 33.9517C90.6149 33.9517 90.8156 33.9647 90.9649 33.9905C91.0913 34.0142 91.2097 34.0684 91.3094 34.1483C91.4091 34.2282 91.4871 34.3313 91.5364 34.4483L95.1116 42.7888C95.1333 42.8406 95.1423 42.8969 95.1377 42.9528C95.1331 43.0087 95.1151 43.0625 95.0853 43.1093C95.0555 43.1561 95.0148 43.1946 94.9669 43.2212C94.9189 43.2479 94.8652 43.2619 94.8105 43.2621H93.6213C93.5021 43.2625 93.3852 43.2275 93.285 43.1613C93.1848 43.0952 93.1058 43.0007 93.0576 42.8897L92.5402 41.6715C92.4809 41.5309 92.3811 41.4109 92.2533 41.3267C92.1256 41.2425 91.9756 41.1978 91.8221 41.1983C91.611 41.1983 91.1297 41.2009 90.3781 41.206C89.6264 41.206 89.1451 41.206 88.934 41.206C88.7819 41.2071 88.6335 41.2525 88.5073 41.3366C88.3811 41.4207 88.2825 41.5398 88.2236 41.6793L87.714 42.9052C87.6658 43.0162 87.5867 43.1107 87.4865 43.1769C87.3864 43.2431 87.2695 43.2781 87.1503 43.2776L85.9611 43.2853C85.9057 43.2865 85.851 43.2734 85.8021 43.2473C85.7531 43.2212 85.7114 43.1829 85.6807 43.1359C85.65 43.0889 85.6313 43.0346 85.6263 42.9781C85.6214 42.9215 85.6302 42.8645 85.6522 42.8121L89.1889 34.456C89.2382 34.339 89.3161 34.236 89.4158 34.1561C89.5156 34.0762 89.6339 34.022 89.7603 33.9983C89.9044 33.9672 90.1052 33.9517 90.3626 33.9517ZM90.3394 39.344C90.7461 39.3491 90.9984 39.3362 91.0962 39.3052C91.1491 39.2893 91.1982 39.263 91.2407 39.2276C91.2831 39.1922 91.318 39.1485 91.3433 39.0993C91.3685 39.05 91.3836 38.9961 91.3876 38.9408C91.3916 38.8855 91.3844 38.83 91.3665 38.7776C90.8723 37.3603 90.5325 36.6517 90.3472 36.6517C90.1567 36.6517 89.8092 37.3578 89.3047 38.7698C89.2856 38.8227 89.2774 38.879 89.2808 38.9351C89.2842 38.9913 89.299 39.0462 89.3243 39.0964C89.3497 39.1465 89.385 39.191 89.4281 39.2269C89.4712 39.2628 89.5212 39.2894 89.575 39.3052C89.6728 39.331 89.9276 39.344 90.3394 39.344Z" fill="#0072BC"/>
<path d="M106.904 33.9362C107.022 33.9362 107.146 33.9465 107.274 33.9672C107.406 33.9868 107.53 34.0398 107.636 34.1213C107.741 34.2028 107.824 34.31 107.877 34.4328L111.475 42.8198C111.498 42.8728 111.508 42.9307 111.503 42.9883C111.498 43.0459 111.479 43.1015 111.448 43.1499C111.416 43.1984 111.373 43.2382 111.323 43.2659C111.272 43.2936 111.216 43.3083 111.158 43.3086H110.51C110.354 43.3089 110.202 43.2634 110.073 43.1778C109.944 43.0922 109.843 42.9703 109.784 42.8276L109.189 41.4543C109.137 41.3289 109.049 41.2217 108.936 41.1459C108.824 41.0701 108.692 41.029 108.556 41.0276C108.35 41.0224 107.786 41.0172 106.865 41.0121C105.938 41.0069 105.372 41.0043 105.166 41.0043C105.031 41.0057 104.899 41.0468 104.786 41.1226C104.674 41.1984 104.586 41.3056 104.533 41.431L103.923 42.7965C103.862 42.9391 103.759 43.0601 103.629 43.1444C103.498 43.2287 103.345 43.2723 103.189 43.2698L102.541 43.2621C102.483 43.261 102.426 43.2455 102.376 43.2169C102.325 43.1882 102.283 43.1474 102.252 43.098C102.221 43.0487 102.203 42.9924 102.2 42.9344C102.196 42.8763 102.207 42.8182 102.232 42.7655L105.923 34.425C105.976 34.3012 106.06 34.1934 106.167 34.1118C106.274 34.0303 106.4 33.9778 106.533 33.9595C106.656 33.944 106.78 33.9362 106.904 33.9362ZM106.873 39.4991C107.454 39.4991 107.799 39.4965 107.907 39.4914C107.968 39.49 108.028 39.4737 108.08 39.4438C108.133 39.414 108.178 39.3715 108.211 39.3202C108.244 39.2689 108.264 39.2102 108.269 39.1494C108.273 39.0886 108.263 39.0276 108.239 38.9715L107.104 36.3879C107.094 36.3717 107.081 36.3584 107.066 36.3491C106.988 36.3129 106.919 36.2948 106.857 36.2948C106.795 36.2948 106.726 36.3129 106.649 36.3491C106.634 36.3584 106.62 36.3717 106.61 36.3879L105.498 38.9793C105.474 39.0353 105.464 39.0964 105.469 39.1572C105.474 39.218 105.494 39.2766 105.527 39.328C105.559 39.3793 105.604 39.4218 105.657 39.4516C105.71 39.4814 105.769 39.4978 105.83 39.4991C105.938 39.4991 106.286 39.4991 106.873 39.4991Z" fill="#909597"/>
<path d="M118.64 33.9983H117.667C117.458 33.9983 117.289 34.1685 117.289 34.3784V42.8664C117.289 43.0763 117.458 43.2466 117.667 43.2466H118.64C118.849 43.2466 119.019 43.0763 119.019 42.8664V34.3784C119.019 34.1685 118.849 33.9983 118.64 33.9983Z" fill="#909597"/>
<path d="M132.95 42.8198C132.981 42.8594 133 42.9071 133.005 42.9572C133.01 43.0073 133 43.0578 132.977 43.1026C132.955 43.1475 132.92 43.1849 132.876 43.2104C132.833 43.2359 132.784 43.2485 132.734 43.2466L131.861 43.2388C131.707 43.2391 131.555 43.2035 131.417 43.1349C131.279 43.0662 131.159 42.9663 131.066 42.8431L129.158 40.306C129.091 40.2142 129.004 40.1396 128.903 40.0883C128.803 40.0371 128.691 40.0106 128.579 40.0112H127.421C127.309 40.0112 127.203 40.0559 127.123 40.1357C127.044 40.2155 126.998 40.3241 126.996 40.4379V42.7966C126.996 42.918 126.949 43.0344 126.865 43.1202C126.781 43.2061 126.667 43.2543 126.548 43.2543H125.776C125.657 43.2523 125.543 43.2032 125.459 43.1175C125.375 43.0319 125.328 42.9166 125.328 42.7966L125.344 34.4638C125.346 34.3512 125.391 34.2439 125.47 34.1643C125.549 34.0847 125.656 34.0391 125.768 34.0371C128.093 33.975 131.251 33.5483 132.417 35.4026C133.452 37.0474 133.019 38.4517 131.12 39.6155C131.07 39.6461 131.027 39.6867 130.993 39.7348C130.96 39.7829 130.936 39.8374 130.925 39.8949C130.913 39.9525 130.914 40.0118 130.926 40.0692C130.938 40.1265 130.962 40.1808 130.996 40.2285L132.95 42.8198ZM126.973 35.8138V38.25C126.973 38.3261 127.003 38.3992 127.057 38.453C127.11 38.5068 127.183 38.5371 127.259 38.5371H129.552C129.773 38.5372 129.992 38.5012 130.197 38.431C130.401 38.3609 130.586 38.2581 130.743 38.1284C130.899 37.9987 131.023 37.8447 131.108 37.6752C131.192 37.5057 131.236 37.324 131.235 37.1405V36.9233C131.235 36.5531 131.058 36.198 130.742 35.9361C130.426 35.6742 129.998 35.527 129.552 35.5267H127.259C127.183 35.5267 127.11 35.557 127.057 35.6108C127.003 35.6646 126.973 35.7377 126.973 35.8138Z" fill="#909597"/>
<path d="M141.127 40.2905C141.068 40.2829 141.008 40.288 140.951 40.3055C140.894 40.3229 140.842 40.3523 140.797 40.3917C140.752 40.4312 140.715 40.4799 140.689 40.5346C140.664 40.5893 140.65 40.6489 140.648 40.7095L140.632 42.6724C140.631 42.7407 140.617 42.8081 140.59 42.8708C140.563 42.9334 140.524 42.9902 140.475 43.0377C140.427 43.0853 140.369 43.1227 140.306 43.1479C140.243 43.1731 140.175 43.1855 140.107 43.1845L139.289 43.1767C139.219 43.1767 139.149 43.1627 139.085 43.1354C139.02 43.1081 138.961 43.0681 138.912 43.0177C138.862 42.9673 138.823 42.9074 138.796 42.8415C138.77 42.7756 138.756 42.705 138.756 42.6336L138.825 34.3707C138.827 34.263 138.871 34.1604 138.948 34.0849C139.024 34.0095 139.127 33.9672 139.235 33.9672C141.845 33.9362 143.335 33.9957 143.706 34.1457C145.811 34.9991 146.447 36.4888 145.613 38.6147C145.518 38.8586 145.364 39.0768 145.165 39.2509C144.11 40.1457 142.764 40.4922 141.127 40.2905ZM140.486 35.8371V38.4284C140.486 38.4682 140.493 38.5075 140.509 38.5442C140.524 38.581 140.546 38.6143 140.574 38.6424C140.602 38.6705 140.635 38.6928 140.671 38.708C140.708 38.7232 140.747 38.731 140.787 38.731H142.377C142.887 38.7307 143.376 38.576 143.736 38.301C144.097 38.0261 144.3 37.6533 144.3 37.2647V37.0009C144.301 36.8082 144.251 36.6174 144.154 36.4394C144.058 36.2614 143.916 36.0997 143.738 35.9635C143.559 35.8273 143.347 35.7193 143.114 35.6457C142.88 35.5721 142.63 35.5343 142.377 35.5345H140.787C140.707 35.5345 140.63 35.5664 140.574 35.6231C140.517 35.6799 140.486 35.7568 140.486 35.8371Z" fill="#909597"/>
<path d="M160.858 38.6379C160.858 39.9199 160.351 41.1493 159.449 42.0558C158.547 42.9623 157.323 43.4715 156.047 43.4715C154.771 43.4715 153.548 42.9623 152.645 42.0558C151.743 41.1493 151.236 39.9199 151.236 38.6379C151.236 37.356 151.743 36.1265 152.645 35.22C153.548 34.3136 154.771 33.8043 156.047 33.8043C157.323 33.8043 158.547 34.3136 159.449 35.22C160.351 36.1265 160.858 37.356 160.858 38.6379ZM155.795 35.3713C155.382 35.3996 154.979 35.5119 154.609 35.7018C154.239 35.8916 153.909 36.1554 153.637 36.478C153.366 36.8006 153.159 37.1758 153.028 37.582C152.896 37.9882 152.844 38.4175 152.873 38.8455C152.902 39.2734 153.012 39.6916 153.197 40.0762C153.382 40.4608 153.638 40.8041 153.95 41.0868C154.262 41.3694 154.625 41.5857 155.018 41.7234C155.41 41.861 155.825 41.9173 156.237 41.889C156.65 41.8608 157.053 41.7485 157.423 41.5586C157.794 41.3687 158.124 41.1049 158.395 40.7823C158.667 40.4597 158.874 40.0846 159.005 39.6784C159.136 39.2722 159.189 38.8428 159.16 38.4149C159.131 37.9869 159.02 37.5687 158.836 37.1841C158.651 36.7996 158.395 36.4562 158.083 36.1736C157.77 35.891 157.407 35.6746 157.015 35.537C156.622 35.3993 156.208 35.343 155.795 35.3713Z" fill="#909597"/>
<path d="M174.395 42.8276C174.425 42.8664 174.443 42.9129 174.447 42.9618C174.452 43.0106 174.442 43.06 174.42 43.1043C174.397 43.1486 174.363 43.1861 174.32 43.2126C174.277 43.2391 174.228 43.2535 174.178 43.2543H173.298C173.145 43.2546 172.993 43.219 172.855 43.1503C172.717 43.0817 172.596 42.9819 172.503 42.8586L170.572 40.306C170.505 40.2147 170.418 40.1403 170.318 40.0891C170.217 40.0379 170.106 40.0112 169.993 40.0112H168.827C168.714 40.0112 168.606 40.057 168.527 40.1385C168.447 40.22 168.402 40.3305 168.402 40.4457V42.8198C168.402 42.9412 168.355 43.0577 168.271 43.1435C168.187 43.2294 168.073 43.2776 167.954 43.2776H167.182C167.061 43.2776 166.945 43.2294 166.86 43.1435C166.775 43.0577 166.727 42.9412 166.727 42.8198V34.4405C166.727 34.3266 166.771 34.2173 166.85 34.136C166.93 34.0547 167.038 34.0081 167.151 34.006C169.491 33.9362 172.665 33.5017 173.846 35.3638C174.891 37.019 174.459 38.4336 172.549 39.6078C172.498 39.6383 172.454 39.6793 172.42 39.728C172.385 39.7767 172.362 39.8321 172.35 39.8906C172.338 39.949 172.339 40.0093 172.352 40.0675C172.365 40.1257 172.39 40.1805 172.425 40.2285L174.395 42.8276ZM168.395 35.7672L168.41 38.3121C168.41 38.3738 168.434 38.433 168.478 38.4767C168.521 38.5203 168.58 38.5448 168.642 38.5448L170.827 38.5371C171.324 38.5348 171.801 38.3855 172.151 38.1222C172.501 37.8589 172.697 37.503 172.696 37.1328V36.9155C172.695 36.732 172.645 36.5506 172.55 36.3815C172.455 36.2123 172.316 36.0589 172.141 35.9299C171.966 35.801 171.759 35.699 171.53 35.6298C171.302 35.5606 171.058 35.5256 170.811 35.5267L168.626 35.5345C168.565 35.5345 168.506 35.559 168.462 35.6027C168.419 35.6463 168.395 35.7055 168.395 35.7672Z" fill="#909597"/>
<path d="M183.313 34.006C184.503 34.0112 185.594 34.0009 186.587 33.975C186.652 33.9729 186.716 33.9838 186.775 34.0071C186.835 34.0303 186.89 34.0654 186.936 34.1103C186.982 34.1552 187.019 34.2089 187.044 34.2683C187.069 34.3277 187.082 34.3915 187.082 34.456V35.1C187.082 35.2152 187.036 35.3257 186.955 35.4072C186.874 35.4887 186.764 35.5345 186.649 35.5345H184.549C184.444 35.5345 184.344 35.5762 184.27 35.6504C184.197 35.7246 184.155 35.8252 184.155 35.9302V42.6724C184.155 42.8007 184.113 42.9254 184.035 43.0266C183.956 43.1279 183.846 43.1998 183.723 43.231C183.604 43.2621 183.478 43.2776 183.344 43.2776C183.216 43.2776 183.089 43.2621 182.966 43.231C182.843 43.2002 182.734 43.1294 182.656 43.0297C182.578 42.93 182.535 42.8071 182.533 42.6802L182.479 35.9379C182.479 35.833 182.438 35.7323 182.364 35.6581C182.29 35.5839 182.19 35.5422 182.086 35.5422L179.985 35.5578C179.928 35.5588 179.872 35.5486 179.819 35.5277C179.766 35.5068 179.718 35.4756 179.677 35.436C179.636 35.3964 179.604 35.349 179.581 35.2967C179.558 35.2444 179.546 35.1881 179.545 35.131V34.4871C179.544 34.4226 179.556 34.3586 179.58 34.2988C179.604 34.239 179.64 34.1847 179.685 34.1391C179.731 34.0935 179.785 34.0575 179.844 34.0333C179.904 34.0092 179.967 33.9972 180.031 33.9983C181.025 34.019 182.119 34.0215 183.313 34.006Z" fill="#909597"/>
</g>
<defs>
<linearGradient id="paint0_linear_1360_28710" x1="68.0781" y1="17.6693" x2="124.658" y2="17.6693" gradientUnits="userSpaceOnUse">
<stop stop-color="#FEDE00"/>
<stop offset="1" stop-color="#4DB848"/>
</linearGradient>
<clipPath id="clip0_1360_28710">
<rect width="200" height="45" fill="white"/>
</clipPath>
</defs>
</svg>
