<svg width="200" height="106" viewBox="0 0 200 106" fill="none" xmlns="http://www.w3.org/2000/svg">
<g clip-path="url(#clip0_1381_43674)">
<path d="M101.445 31.7864L100.334 56.8182L99.1926 55.387L97.8399 24.9256C97.0222 23.6118 96.1472 22.3377 95.221 21.1032L93.9504 49.7577C93.8199 49.6344 93.6822 49.5184 93.5503 49.3951L93.326 56.8402H92.9142L92.6651 48.5951C92.4995 48.4484 92.3412 48.2957 92.1741 48.1518L90.7423 15.8776C90.1238 15.2434 89.4892 14.6255 88.8385 14.0236L87.4888 44.4381C87.3334 44.3265 87.1693 44.2238 87.011 44.1137L86.627 56.8417H86.2152L85.8063 43.2946C85.6173 43.1684 85.4341 43.0348 85.2421 42.91L83.7765 9.88128C83.312 9.5466 82.8415 9.21927 82.3667 8.89927L80.97 40.3794C80.7927 40.284 80.611 40.2003 80.4336 40.1079L79.9295 56.8417H79.5177L78.9901 39.3769C78.7834 39.2756 78.5826 39.164 78.3745 39.0642L76.9823 5.72131C76.5748 5.51287 76.1645 5.30884 75.7512 5.11067L74.4088 37.3438C74.2168 37.269 74.0204 37.2073 73.8269 37.1339L73.2319 56.8402H72.8201L72.209 36.5512C71.9906 36.4763 71.7766 36.3897 71.5568 36.3163L70.1953 2.82372C69.8436 2.70188 69.4904 2.58298 69.1357 2.46849L67.8079 35.2037C67.6057 35.1508 67.3976 35.1127 67.1939 35.0628L66.5373 56.8388H66.127L65.4587 34.662C65.233 34.6136 65.0102 34.5519 64.7816 34.5064L63.4684 0.982994C63.1358 0.915472 62.8016 0.850885 62.466 0.790702L61.1705 33.8973C60.9609 33.8679 60.7469 33.8532 60.5359 33.8253L59.8427 56.8388H59.4309L58.7303 33.6242C58.5002 33.6022 58.2746 33.567 58.043 33.5479L56.5569 0.0538263C56.2492 0.033276 55.9399 0.0141936 55.6307 -0.00195312L54.319 33.3512C54.13 33.3468 53.9395 33.3439 53.7504 33.3365L53.1217 56.8402H52.7568L52.128 33.3409C52.128 33.3409 52.0093 33.3424 51.5154 33.3541L50.2023 -0.00195312C49.8931 0.0141936 49.5853 0.033276 49.2776 0.0538263L47.7915 33.5479C47.5599 33.567 47.3342 33.6022 47.1041 33.6242L46.4051 56.8388H45.9933L45.3001 33.8253C45.089 33.8518 44.8751 33.8664 44.6655 33.8973L43.3699 0.790702C43.0343 0.852353 42.7002 0.91694 42.3675 0.984462L41.0544 34.5064C40.8257 34.5519 40.6044 34.6136 40.3773 34.662L39.709 56.8388H39.2972L38.6406 35.0628C38.4369 35.1127 38.2303 35.1508 38.0266 35.2037L36.6988 2.46849C36.3441 2.58298 35.9909 2.70188 35.6392 2.82372L34.2777 36.3163C34.0578 36.3897 33.8439 36.4763 33.6255 36.5512L33.0129 56.8402H32.6011L32.0061 37.1339C31.8141 37.2073 31.6162 37.269 31.4243 37.3438L30.0804 5.11067C29.6671 5.30884 29.2567 5.51287 28.8493 5.72131L27.457 39.0642C27.2489 39.164 27.0467 39.2741 26.84 39.3769L26.3139 56.8417H25.9021L25.3979 40.1079C25.2206 40.2018 25.0374 40.2855 24.8615 40.3794L23.4649 8.89927C22.99 9.21927 22.5196 9.5466 22.055 9.88128L20.5895 42.91C20.3989 43.0333 20.2158 43.1684 20.0252 43.2946L19.6163 56.8417H19.2045L18.8206 44.1137C18.6623 44.2238 18.5011 44.3265 18.3428 44.4381L16.993 14.0236C16.3438 14.6255 15.7092 15.2434 15.0907 15.8776L13.6574 48.1518C13.4918 48.2972 13.3306 48.4498 13.1665 48.5951L12.9173 56.8402H12.507L12.2828 49.3951C12.1509 49.517 12.0131 49.6329 11.8827 49.7577L10.6106 21.1032C9.68434 22.3362 8.8094 23.6118 7.99163 24.9256L6.64039 55.3856L5.49873 56.8167L4.38785 31.785C1.56814 38.2671 0.00293109 45.4231 0 52.9459C0 53.398 0.00586219 53.8487 0.016121 54.2993C0.722515 82.9729 24.1361 105.998 52.915 105.998C81.694 105.998 105.108 82.9714 105.814 54.2993C105.826 53.8502 105.83 53.398 105.83 52.9459C105.827 45.4231 104.262 38.2671 101.442 31.7864H101.445Z" fill="#FFD749"/>
<path d="M60.1914 91.1953H61.2158L63.1899 93.9006L65.0731 91.1953H66.0316V96.9861H65.0233V92.7997L63.1987 95.3729H63.0492L61.2085 92.8247V96.9861H60.1914V91.1953Z" fill="#3A4245"/>
<path d="M68.2539 91.1953H71.5983V92.1465H69.2695V93.5865H71.3506V94.5377H69.2695V96.0349H71.6804V96.9861H68.2539V91.1953Z" fill="#3A4245"/>
<path d="M72.9932 91.1953H74.1583L76.2555 93.9579V91.1953H77.2638V93.9579L79.3537 91.1953H80.5261L78.3542 93.9579L80.617 96.9861H79.4445L77.2638 93.9828V96.9861H76.2555V93.9828L74.0675 96.9861H72.9023L75.1651 93.9667L72.9932 91.1953Z" fill="#3A4245"/>
<path d="M81.375 96.0349H81.9949C82.2338 95.7369 82.7878 94.5127 82.8874 92.3535L82.9446 91.1953H86.5293V96.0349H87.3134V98.0195H86.3637V96.9861H82.3247V98.0195H81.375V96.0349ZM83.1102 96.0349H85.5225V92.1465H83.928L83.8371 93.1549C83.7301 94.6522 83.3168 95.7766 83.1102 96.0334V96.0349Z" fill="#3A4245"/>
<path d="M91.3684 95.6376C90.9727 96.5227 90.5184 96.9866 89.7988 96.9866C89.5013 96.9866 89.1627 96.8794 89.0059 96.7547L89.3606 95.8945C89.5174 96.0016 89.6244 96.0354 89.79 96.0354C90.0626 96.0354 90.2443 95.8783 90.3601 95.6303L90.4421 95.4321L87.8906 91.1973H89.0382L90.9302 94.431L92.3093 91.1973H93.3337L91.3684 95.6391V95.6376Z" fill="#3A4245"/>
<path d="M98.5135 94.5127H95.8711V96.9861H94.8555V91.1953H95.8711V93.5615H98.5135V91.1953H99.5218V96.9861H98.5135V94.5127Z" fill="#3A4245"/>
<path d="M103.443 91.1797H104.336L106.78 96.9866H105.699L105.096 95.5055H102.627L102.024 96.9866H101L103.445 91.1797H103.443ZM103.014 94.5544H104.706L103.864 92.4949L103.014 94.5544Z" fill="#3A4245"/>
<path d="M108.267 96.9866V91.1958C108.59 91.1958 109.505 91.1797 109.91 91.1797C111.611 91.1797 112.148 92.0898 112.148 93.041C112.148 94.0259 111.414 94.9184 110.033 94.9184C109.86 94.9184 109.529 94.9184 109.281 94.8934V96.9866H108.266H108.267ZM109.283 92.147V93.9261C109.522 93.951 109.769 93.9672 110.001 93.9672C110.603 93.9672 111.075 93.678 111.075 93.0322C111.075 92.4289 110.703 92.1309 110.01 92.1309C109.803 92.1309 109.555 92.1397 109.283 92.147Z" fill="#3A4245"/>
<path d="M116.478 91.1035C118.196 91.1035 119.493 92.2866 119.493 94.0892C119.493 95.8271 118.196 97.0748 116.478 97.0748C114.761 97.0748 113.473 95.8917 113.473 94.0892C113.473 92.4099 114.704 91.1035 116.478 91.1035ZM116.478 96.1251C117.692 96.1251 118.419 95.2312 118.419 94.0906C118.419 92.8914 117.569 92.0562 116.478 92.0562C115.372 92.0562 114.545 92.8914 114.545 94.0906C114.545 95.2488 115.395 96.1251 116.478 96.1251Z" fill="#3A4245"/>
<path d="M120.367 96.0349H120.987C121.227 95.7369 121.78 94.5127 121.88 92.3535L121.937 91.1953H125.522V96.0349H126.306V98.0195H125.356V96.9861H121.317V98.0195H120.367V96.0349ZM122.102 96.0349H124.513V92.1465H122.919L122.828 93.1549C122.721 94.6522 122.308 95.7766 122.101 96.0334L122.102 96.0349Z" fill="#3A4245"/>
<path d="M131.592 94.5127H128.949V96.9861H127.934V91.1953H128.949V93.5615H131.592V91.1953H132.6V96.9861H131.592V94.5127Z" fill="#3A4245"/>
<path d="M135.836 93.1813C136.092 93.1491 136.315 93.1403 136.481 93.1403C137.91 93.1403 138.596 93.8757 138.596 95.0103C138.596 96.2345 137.737 97.0037 136.258 97.0037C135.713 97.0037 135.159 96.9876 134.82 96.9876V91.1968H135.836V93.1813ZM135.836 94.1325V96.0261C136.018 96.0349 136.183 96.0511 136.381 96.0511C137.124 96.0511 137.521 95.712 137.521 95.0338C137.521 94.4129 137.108 94.09 136.399 94.09C136.242 94.09 136.069 94.1061 135.837 94.1311L135.836 94.1325ZM139.346 91.1953H140.353V96.9861H139.346V91.1953Z" fill="#3A4245"/>
<path d="M142.574 96.9861V91.1953H143.59V95.3142L146.621 91.1953H147.513V96.9861H146.497V92.8745L143.467 96.9861H142.574ZM144.441 89.7891C144.507 90.112 144.73 90.2691 145.143 90.2691C145.516 90.2691 145.771 90.1443 145.804 89.7891H146.754C146.729 90.501 146.052 90.9722 145.143 90.9722C144.153 90.9722 143.549 90.4922 143.492 89.7891H144.441Z" fill="#3A4245"/>
<path d="M152.347 91.168H153.238L155.682 96.9749H154.601L153.999 95.4938H151.529L150.927 96.9749H149.902L152.347 91.168ZM151.917 94.5426H153.61L152.767 92.4832L151.917 94.5426Z" fill="#3A4245"/>
<path d="M157.738 93.551H160.315C160.117 92.5836 159.324 92.0449 158.234 92.0449C157.771 92.0449 157.284 92.1858 156.88 92.4912L156.484 91.7308C156.888 91.3829 157.59 91.0938 158.474 91.0938C160.176 91.0938 161.382 92.2681 161.382 94.0721C161.382 95.8834 160.209 97.0666 158.358 97.0666C157.557 97.0666 156.822 96.8097 156.418 96.4632L156.856 95.6119C157.22 95.8937 157.74 96.1168 158.342 96.1168C159.333 96.1168 160.167 95.5708 160.341 94.5036H157.74V93.5524L157.738 93.551Z" fill="#3A4245"/>
<path d="M163.173 96.9749V91.1841C163.496 91.1841 164.412 91.168 164.816 91.168C166.518 91.168 167.054 92.0781 167.054 93.0292C167.054 94.0142 166.32 94.9067 164.939 94.9067C164.766 94.9067 164.435 94.9067 164.188 94.8817V96.9749H163.172H163.173ZM164.189 92.1353V93.9144C164.428 93.9393 164.677 93.9555 164.907 93.9555C165.511 93.9555 165.981 93.6663 165.981 93.0204C165.981 92.4171 165.609 92.1192 164.916 92.1192C164.709 92.1192 164.462 92.128 164.189 92.1353Z" fill="#3A4245"/>
<path d="M171.381 91.0957C173.098 91.0957 174.395 92.2788 174.395 94.0814C174.395 95.8193 173.098 97.067 171.381 97.067C169.663 97.067 168.375 95.8839 168.375 94.0814C168.375 92.4021 169.606 91.0957 171.381 91.0957ZM171.381 96.1173C172.594 96.1173 173.321 95.2234 173.321 94.0828C173.321 92.8836 172.471 92.0484 171.381 92.0484C170.274 92.0484 169.448 92.8836 169.448 94.0828C169.448 95.241 170.298 96.1173 171.381 96.1173Z" fill="#3A4245"/>
<path d="M179.781 92.1382H177.203V96.9763H176.188V91.1855H180.797V96.9763H179.781V92.1382Z" fill="#3A4245"/>
<path d="M185.596 91.0957C187.313 91.0957 188.61 92.2788 188.61 94.0814C188.61 95.8193 187.313 97.067 185.596 97.067C183.878 97.067 182.59 95.8839 182.59 94.0814C182.59 92.4021 183.821 91.0957 185.596 91.0957ZM185.596 96.1173C186.809 96.1173 187.536 95.2234 187.536 94.0828C187.536 92.8836 186.686 92.0484 185.596 92.0484C184.489 92.0484 183.663 92.8836 183.663 94.0828C183.663 95.241 184.513 96.1173 185.596 96.1173Z" fill="#3A4245"/>
<path d="M190.404 96.9749V91.1841C190.726 91.1841 191.642 91.168 192.047 91.168C193.748 91.168 194.285 92.0781 194.285 93.0292C194.285 94.0142 193.55 94.9067 192.17 94.9067C191.997 94.9067 191.666 94.9067 191.418 94.8817V96.9749H190.402H190.404ZM191.419 92.1353V93.9144C191.658 93.9393 191.907 93.9555 192.138 93.9555C192.74 93.9555 193.21 93.6663 193.21 93.0204C193.21 92.4171 192.84 92.1192 192.145 92.1192C191.938 92.1192 191.691 92.128 191.418 92.1353H191.419Z" fill="#3A4245"/>
<path d="M195.234 91.1855H199.999V92.1382H198.124V96.9763H197.109V92.1382H195.234V91.1855Z" fill="#3A4245"/>
<path d="M126.218 69.8926C125.277 69.8926 123.731 70.1362 122.593 71.7157V70.2581H119.105C118.787 71.337 118.348 72.1575 118.348 72.1575H119.5V85.1747C119.5 85.1747 119.485 87.24 119.409 87.742H122.684C122.593 87.3016 122.608 85.524 122.608 85.16V80.1633C123.836 81.8793 125.429 82.0158 126.141 82.0158C129.402 82.0158 131.646 79.403 131.646 75.9256C131.646 72.4922 129.462 69.8955 126.218 69.8955V69.8926ZM125.52 79.1725C123.731 79.1725 122.442 77.7604 122.442 75.9226C122.442 74.1303 123.732 72.7329 125.52 72.7329C127.295 72.7329 128.568 74.1303 128.568 75.9226C128.568 77.7604 127.295 79.1725 125.52 79.1725Z" fill="#3A4245"/>
<path d="M144.352 71.472C143.411 70.5913 141.97 69.8926 139.879 69.8926C137.786 69.8926 136.346 70.5913 135.405 71.472C134.328 72.5054 133.539 74.0995 133.539 75.952C133.539 77.7898 134.328 79.3854 135.405 80.4026C136.346 81.2995 137.786 82.0129 139.879 82.0129C141.972 82.0129 143.412 81.2995 144.352 80.4026C145.429 79.3854 146.172 77.7898 146.172 75.952C146.172 74.0995 145.429 72.5039 144.352 71.472ZM139.879 79.1725C138.075 79.1725 136.74 77.6988 136.74 75.952C136.74 74.1905 138.09 72.7315 139.879 72.7315C141.654 72.7315 142.987 74.1891 142.987 75.952C142.987 77.6988 141.668 79.1725 139.879 79.1725Z" fill="#3A4245"/>
<path d="M156.873 76.2277C156.464 75.893 155.933 75.62 155.432 75.4981C156.418 75.0578 156.964 74.1609 156.964 73.1745C156.964 72.2174 156.524 71.4277 155.886 70.9418C155.022 70.2578 153.992 70.2578 153.263 70.2578H148.031C147.697 71.4116 147.273 72.1572 147.273 72.1572H148.411V79.1752C148.396 79.8137 148.365 81.3021 148.305 81.6515H154.053C154.553 81.6515 155.661 81.5913 156.555 80.8926C157.1 80.4977 157.752 79.708 157.752 78.3869C157.752 77.3697 157.373 76.6857 156.873 76.2306V76.2277ZM151.519 72.7341H152.884C153.687 72.7488 154.142 73.0233 154.142 73.7514C154.142 74.4501 153.552 74.7539 152.945 74.7539H151.519V72.7341ZM152.945 79.1737C151.519 79.1737 151.519 79.1737 151.519 79.1737V76.8192H153.036C153.81 76.8339 154.522 77.0923 154.522 77.9583C154.522 78.9154 153.703 79.1737 152.945 79.1737Z" fill="#3A4245"/>
<path d="M116.488 81.6488C116.367 80.9956 116.352 79.1725 116.352 79.1725V72.7329C116.352 72.0797 116.412 70.5766 116.474 70.2566H113.153C113.198 70.4841 113.229 71.108 113.229 71.6995C112.183 70.0291 110.529 69.8926 109.726 69.8926C106.451 69.8926 104.207 72.5656 104.207 75.9226C104.207 79.2635 106.376 82.0129 109.681 82.0129C110.455 82.0129 112.122 81.8 113.229 80.1751C113.229 80.9795 113.169 81.4052 113.138 81.6488H116.49H116.488ZM110.332 79.1725C108.557 79.1725 107.314 77.7604 107.314 75.9226C107.314 74.1303 108.558 72.7329 110.332 72.7329C112.152 72.7329 113.409 74.1303 113.409 75.9226C113.409 77.7604 112.15 79.1725 110.332 79.1725Z" fill="#3A4245"/>
<path d="M169.973 80.0092C169.017 81.3303 167.319 82.0143 165.484 82.0143C161.86 82.0143 159.418 79.5835 159.418 75.9535C159.418 72.5817 161.829 69.8926 165.241 69.8926C167.061 69.8926 168.698 70.3784 169.73 71.4573L168.38 73.8118C167.546 72.9458 166.621 72.6727 165.589 72.6727C164.012 72.6727 162.496 73.919 162.496 75.9535C162.496 77.9894 164.042 79.2342 165.711 79.2342C166.939 79.2342 167.909 78.672 168.623 77.8367L169.973 80.0092Z" fill="#3A4245"/>
<path d="M96.5287 69.8935C95.1481 69.8935 93.5565 70.5012 92.5556 72.0498C92.6772 70.2575 93.3895 68.5254 94.9518 67.7812C97.1208 66.6877 98.8941 67.2499 100.335 65.4722L98.8633 63.0723C97.7114 64.455 96.3616 63.9236 93.9039 65.0011C90.2195 66.5658 89.6875 71.3658 89.6875 74.7067C89.6875 78.4894 91.6294 82.0123 96.1169 82.0123C99.8174 82.0123 102.35 79.3085 102.35 75.9059C102.35 72.3522 99.8628 69.8906 96.5272 69.8906L96.5287 69.8935ZM95.9982 79.1734C94.2234 79.1734 92.9806 77.7613 92.9806 75.9236C92.9806 74.1313 94.2248 72.7339 95.9982 72.7339C97.8184 72.7339 99.0758 74.1313 99.0758 75.9236C99.0758 77.7613 97.8169 79.1734 95.9982 79.1734Z" fill="#3A4245"/>
<path d="M172.328 72.1572H171.16C171.449 71.6259 171.736 70.9418 171.903 70.2578H175.527C175.497 70.7598 175.467 71.5187 175.467 72.7341V74.6776H175.831L178.015 71.7462C178.394 71.2295 178.743 70.7892 179.046 70.2578H182.61C182.398 70.4707 181.746 71.1694 181.003 72.1572L178.53 75.4526L181.548 79.6141C182.064 80.3128 182.671 81.0717 183.261 81.65H179.228C179.061 81.2405 178.712 80.693 178.287 80.1469L175.815 76.7297H175.466V79.1752C175.466 80.3451 175.481 81.1348 175.526 81.6515H172.22C172.28 81.1348 172.325 80.3451 172.325 79.1752V72.1572H172.328Z" fill="#3A4245"/>
<path d="M65.5176 72.3838L62.8796 68.055C62.8796 68.055 60.9539 64.9255 60.3779 64.1211H64.5489C64.8215 64.8051 65.2157 65.5332 65.7169 66.4609L67.4155 69.5596L69.2049 66.4462C69.5229 65.884 70.115 64.836 70.4492 64.1226H74.6494C74.028 64.9431 72.8746 66.7501 72.0569 68.0565L69.3265 72.3853L72.5874 77.5654C73.4814 79.0392 74.5732 80.7404 75.2723 81.6505H71.0412C70.8141 81.15 70.4198 80.3896 69.7823 79.296L67.4169 75.2109L64.9152 79.3269C64.2631 80.3896 63.9758 80.9518 63.6256 81.6505H59.3945C60.1522 80.6626 61.2294 78.9922 62.1395 77.5801L65.522 72.3853L65.5176 72.3838Z" fill="#3A4245"/>
<path d="M87.4883 81.6352C87.3667 80.982 87.352 79.1588 87.352 79.1588V72.7193C87.352 72.066 87.4121 70.5629 87.4737 70.2429H84.1527C84.1982 70.4705 84.2289 71.0928 84.2289 71.6859C83.1825 70.0154 81.5294 69.8789 80.7263 69.8789C77.4508 69.8789 75.207 72.5519 75.207 75.909C75.207 79.2499 77.376 81.9992 80.6809 81.9992C81.4547 81.9992 83.1225 81.7863 84.2289 80.1614C84.2289 80.9658 84.1689 81.3915 84.1381 81.6352H87.4898H87.4883ZM81.3316 79.1588C79.5568 79.1588 78.314 77.7467 78.314 75.909C78.314 74.1167 79.5582 72.7193 81.3316 72.7193C83.1518 72.7193 84.4107 74.1167 84.4107 75.909C84.4107 77.7467 83.1518 79.1588 81.3316 79.1588Z" fill="#3A4245"/>
<path d="M60.0391 105.569V99.627H61.0811V103.854L64.1924 99.627H65.1069V105.569H64.0649V101.35L60.955 105.569H60.0391Z" fill="#3A4245"/>
<path d="M66.7539 99.627H67.8047L69.8301 102.403L71.7617 99.627H72.7451V105.569H71.7119V101.274L69.8389 103.915H69.6865L67.7959 101.3V105.569H66.7539V99.627Z" fill="#3A4245"/>
<path d="M74.3945 99.627H77.8268V100.603H75.4365V102.08H77.5718V103.057H75.4365V104.593H77.9118V105.569H74.3945V99.627Z" fill="#3A4245"/>
<path d="M83.0243 103.031H80.3115V105.569H79.2695V99.627H80.3115V102.055H83.0243V99.627H84.0575V105.569H83.0243V103.031Z" fill="#3A4245"/>
<path d="M85.707 105.569V99.627H86.7505V103.854L89.8604 99.627H90.7749V105.569H89.7329V101.35L86.623 105.569H85.707Z" fill="#3A4245"/>
<path d="M94.2188 99.627H97.5661V100.603H95.2622V105.569H94.2188V99.627Z" fill="#3A4245"/>
<path d="M98.0872 104.305C98.4522 104.305 98.7057 104.636 98.7057 104.933C98.7057 105.281 98.4507 105.611 98.0872 105.611C97.6637 105.611 97.4102 105.279 97.4102 104.933C97.4102 104.636 97.6637 104.305 98.0872 104.305Z" fill="#3A4245"/>
<path d="M99.9102 105.569V99.627H100.952V103.854L104.062 99.627H104.978V105.569H103.936V101.35L100.825 105.569H99.9102Z" fill="#3A4245"/>
<path d="M106.865 104.305C107.23 104.305 107.483 104.636 107.483 104.933C107.483 105.281 107.228 105.611 106.865 105.611C106.441 105.611 106.188 105.279 106.188 104.933C106.188 104.636 106.441 104.305 106.865 104.305Z" fill="#3A4245"/>
<path d="M113.891 103.031H111.179V105.569H110.137V99.627H111.179V102.055H113.891V99.627H114.925V105.569H113.891V103.031Z" fill="#3A4245"/>
<path d="M116.574 99.627H120.007V100.603H117.618V102.08H119.753V103.057H117.618V104.593H120.092V105.569H116.574V99.627Z" fill="#3A4245"/>
<path d="M121.447 99.6461C121.778 99.6285 122.565 99.6035 123.159 99.6035C124.574 99.6035 125.108 100.249 125.108 101.073C125.108 101.751 124.769 102.186 124.261 102.423V102.439C124.845 102.583 125.303 103.034 125.303 103.824C125.303 105.046 124.354 105.606 123.098 105.606C122.556 105.606 121.794 105.59 121.445 105.563V99.6461H121.447ZM122.49 100.605V102.108H123.194C123.677 102.108 124.075 101.861 124.075 101.318C124.075 100.834 123.702 100.58 123.142 100.58C122.905 100.58 122.676 100.588 122.49 100.605ZM122.49 103.015V104.585C122.634 104.603 122.88 104.628 123.178 104.628C123.881 104.628 124.262 104.332 124.262 103.771C124.262 103.27 123.88 103.015 123.227 103.015H122.49Z" fill="#3A4245"/>
<path d="M126.68 99.627H130.112V100.603H127.723V102.08H129.858V103.057H127.723V104.593H130.197V105.569H126.68V99.627Z" fill="#3A4245"/>
<path d="M135.058 100.604H133.328L133.21 101.725C132.862 105.179 132.091 105.74 130.922 105.569L130.947 104.535C131.404 104.593 132.006 104.398 132.269 100.816L132.354 99.6289H136.091V105.571H135.056V100.605L135.058 100.604Z" fill="#3A4245"/>
<path d="M138.78 101.664C139.043 101.631 139.298 101.622 139.459 101.622C140.993 101.622 141.697 102.378 141.697 103.54C141.697 104.797 140.814 105.587 139.239 105.587C138.67 105.587 138.087 105.569 137.738 105.569V99.627H138.78V101.664ZM138.78 102.641V104.584C138.966 104.593 139.153 104.609 139.356 104.609C140.118 104.609 140.593 104.295 140.593 103.565C140.593 102.894 140.102 102.598 139.372 102.598C139.218 102.598 139.016 102.614 138.779 102.641H138.78Z" fill="#3A4245"/>
<path d="M147.3 104.993C146.928 105.392 146.173 105.664 145.402 105.664C143.589 105.664 142.344 104.45 142.344 102.6C142.344 100.893 143.419 99.5352 145.377 99.5352C146.148 99.5352 146.793 99.7818 147.183 100.138L146.717 100.911C146.361 100.673 145.971 100.511 145.377 100.511C144.275 100.511 143.444 101.31 143.444 102.6C143.444 103.839 144.284 104.687 145.495 104.687C145.994 104.687 146.494 104.526 146.902 104.212L147.3 104.993Z" fill="#3A4245"/>
<path d="M148.34 99.627H149.383V102.445L151.722 99.627H152.977L150.535 102.395L153.129 105.569H151.806L149.383 102.504V105.569H148.34V99.627Z" fill="#3A4245"/>
<path d="M156.351 99.5352C158.114 99.5352 159.444 100.749 159.444 102.6C159.444 104.382 158.114 105.664 156.351 105.664C154.588 105.664 153.266 104.45 153.266 102.6C153.266 100.877 154.529 99.5352 156.351 99.5352ZM156.351 104.687C157.596 104.687 158.342 103.77 158.342 102.6C158.342 101.369 157.469 100.511 156.351 100.511C155.215 100.511 154.368 101.369 154.368 102.6C154.368 103.788 155.241 104.687 156.351 104.687Z" fill="#3A4245"/>
<path d="M160.648 99.627H163.997V100.603H161.692V105.569H160.648V99.627Z" fill="#3A4245"/>
<path d="M167.374 99.5352C169.137 99.5352 170.468 100.749 170.468 102.6C170.468 104.382 169.137 105.664 167.374 105.664C165.611 105.664 164.289 104.45 164.289 102.6C164.289 100.877 165.552 99.5352 167.374 99.5352ZM167.374 104.687C168.62 104.687 169.366 103.77 169.366 102.6C169.366 101.369 168.492 100.511 167.374 100.511C166.238 100.511 165.391 101.369 165.391 102.6C165.391 103.788 166.265 104.687 167.374 104.687Z" fill="#3A4245"/>
</g>
<defs>
<clipPath id="clip0_1381_43674">
<rect width="200" height="106" fill="white"/>
</clipPath>
</defs>
</svg>
