<svg width="181" height="181" viewBox="0 0 181 181" fill="none" xmlns="http://www.w3.org/2000/svg">
<path d="M61.1726 136.727C61.4729 136.952 61.8624 136.947 62.3411 136.713C62.8187 136.461 63.2712 136.165 63.6927 135.828C64.4529 135.21 65.2976 134.915 66.2268 134.943C66.5807 134.948 66.9296 134.87 67.2452 134.716C67.5608 134.562 67.8341 134.337 68.043 134.059L68.1416 133.932C68.2637 133.771 68.4226 133.64 68.6058 133.55C68.7889 133.46 68.9915 133.413 69.1975 133.413C73.8153 133.403 77.4523 135.154 80.1085 138.665C80.2761 138.886 80.388 139.144 80.435 139.417C80.482 139.69 80.4627 139.97 80.3788 140.235C80.2948 140.5 80.1486 140.742 79.9522 140.94C79.7559 141.139 79.515 141.288 79.2497 141.376L79.1793 141.404C78.5204 141.618 77.8119 141.623 77.1513 141.419C76.4907 141.216 75.9105 140.813 75.4907 140.267C73.9045 138.225 72.0601 136.877 69.9577 136.222C69.5917 136.1 69.2679 136.245 68.9863 136.657C68.7516 136.994 68.7845 137.331 69.0848 137.668C69.1226 137.711 69.1708 137.742 69.2247 137.76C69.2786 137.778 69.3362 137.781 69.3918 137.77C69.4475 137.759 69.4991 137.733 69.5416 137.695C69.5841 137.658 69.6159 137.61 69.6339 137.556L69.7747 137.177C69.8096 137.085 69.8653 137.003 69.9375 136.937C70.0096 136.871 70.0961 136.822 70.1903 136.795C70.2844 136.768 70.3836 136.763 70.4801 136.78C70.5766 136.798 70.6676 136.837 70.7461 136.896C72.4356 138.16 73.7777 139.424 74.7726 140.688C75.0042 140.982 75.1648 141.326 75.2442 141.698C75.3237 142.069 75.3204 142.461 75.2344 142.847C75.1484 143.234 74.9817 143.607 74.7448 143.944C74.5078 144.28 74.2057 144.573 73.8575 144.803C71.9053 146.076 70.1314 145.664 68.5358 143.567C68.494 143.513 68.4366 143.472 68.3712 143.451C68.3058 143.43 68.2355 143.43 68.1697 143.449C68.104 143.469 68.0458 143.509 68.0031 143.562C67.9603 143.616 67.9349 143.681 67.9304 143.75C67.8084 145.164 67.738 145.917 67.7192 146.011C67.5725 146.662 67.1723 147.229 66.6042 147.591C66.036 147.953 65.3448 148.082 64.6782 147.949C62.97 147.612 61.9657 146.278 61.6653 143.946C61.6536 143.856 61.6089 143.757 61.5412 143.67C61.4734 143.582 61.3882 143.514 61.3042 143.481C61.2202 143.447 61.1443 143.451 61.0932 143.491C61.0421 143.531 61.02 143.604 61.0318 143.693C61.0787 144.087 61.1538 144.471 61.257 144.845C61.3832 145.291 61.3745 145.755 61.2328 146.14C61.0912 146.524 60.8275 146.8 60.4968 146.91C57.85 147.799 55.9634 147.055 54.8371 144.677C54.7956 144.591 54.7332 144.516 54.6556 144.46C54.578 144.404 54.4877 144.368 54.3927 144.355C54.2977 144.343 54.2011 144.354 54.1115 144.388C54.022 144.422 53.9423 144.478 53.8798 144.55L53.1336 145.435C52.8787 145.735 52.531 145.938 52.1481 146.011C47.3331 146.91 47.8118 141.446 49.0507 138.342C49.071 138.292 49.0809 138.238 49.0798 138.183C49.0787 138.129 49.0666 138.075 49.0443 138.025C49.0219 137.975 48.9898 137.93 48.9498 137.893C48.9098 137.856 48.8628 137.827 48.8114 137.809L48.4735 137.682C48.4462 137.672 48.4169 137.668 48.3875 137.67C48.3582 137.673 48.3293 137.681 48.3029 137.696C48.2764 137.711 48.2529 137.731 48.2338 137.755C48.2147 137.779 48.2005 137.807 48.1919 137.837C47.9291 138.895 47.5396 140.178 47.0234 141.685C46.8536 142.181 46.5891 142.641 46.249 143.031C45.909 143.422 45.5019 143.733 45.0572 143.943C44.6125 144.153 44.1414 144.255 43.6779 144.244C43.2144 144.232 42.7702 144.107 42.3774 143.876C39.9371 142.434 39.8198 140.206 42.0254 137.191C42.0262 137.185 42.0254 137.18 42.0233 137.175C42.0211 137.17 42.0176 137.166 42.0132 137.163C42.0088 137.16 42.0036 137.159 41.9983 137.159C41.993 137.159 41.9878 137.16 41.9832 137.163C40.6316 139.981 38.4307 141.189 35.3803 140.786C35.1336 140.755 34.8971 140.67 34.6876 140.536C34.4782 140.402 34.3012 140.224 34.1695 140.014C33.5688 139.059 33.5406 138.043 34.085 136.966C34.1271 136.882 34.1464 136.789 34.1411 136.696C34.1357 136.603 34.1059 136.512 34.0546 136.434C34.0032 136.356 33.9322 136.293 33.8486 136.25C33.765 136.208 33.6718 136.188 33.5782 136.193C32.8179 136.222 32.0577 136.208 31.2974 136.151C28.7539 135.945 27.8763 134.625 28.6647 132.191C29.0683 130.945 30.2603 130.758 32.2407 131.629C32.2833 131.648 32.3293 131.658 32.3757 131.659C32.422 131.66 32.4678 131.651 32.5101 131.634C32.5524 131.617 32.5904 131.591 32.6215 131.559C32.6527 131.527 32.6764 131.488 32.6912 131.446L32.8743 130.941C32.8791 130.926 32.881 130.911 32.8799 130.896C32.8787 130.882 32.8746 130.867 32.8678 130.855C32.861 130.843 32.8517 130.833 32.8406 130.826C32.8295 130.819 32.8169 130.815 32.8039 130.814L27.9889 130.098C27.734 130.058 27.5018 129.928 27.334 129.733C27.1663 129.537 27.074 129.288 27.0738 129.031V126.657C27.0741 126.492 27.1187 126.33 27.2031 126.189C27.2874 126.048 27.4081 125.933 27.5525 125.856C28.1062 125.566 28.6741 125.59 29.256 125.927C29.417 126.022 29.598 126.078 29.7841 126.091C29.9701 126.103 30.1559 126.071 30.326 125.997C30.617 125.866 30.7671 125.796 30.7765 125.786C30.808 125.767 30.8336 125.74 30.8503 125.708C30.8671 125.675 30.8745 125.638 30.8716 125.602C30.8686 125.565 30.8555 125.53 30.8338 125.501C30.812 125.471 30.7824 125.449 30.7484 125.435C29.378 125.014 28.3456 124.489 27.651 123.862C27.3154 123.572 27.0996 123.166 27.0456 122.724C26.7359 120.112 28.003 118.427 30.8328 118.679C34.7749 119.031 38.914 122.724 44.4329 122.036C44.4842 122.028 44.5365 122.032 44.5865 122.046C44.6365 122.061 44.683 122.086 44.723 122.121C44.7629 122.155 44.7953 122.198 44.8181 122.246C44.841 122.295 44.8536 122.348 44.8553 122.401V122.429C44.8471 122.527 44.809 122.62 44.746 122.696C44.683 122.771 44.5983 122.825 44.5033 122.851L43.5741 123.09C43.4836 123.112 43.403 123.163 43.3448 123.236C43.2867 123.309 43.2543 123.398 43.2527 123.491C43.2511 123.584 43.2803 123.675 43.3359 123.75C43.3915 123.825 43.4703 123.879 43.56 123.904C44.217 124.101 44.6066 124.316 44.7286 124.55C44.8125 124.672 44.8622 124.814 44.8728 124.961C44.8834 125.108 44.8545 125.256 44.7889 125.39C44.7233 125.524 44.6234 125.638 44.4992 125.723C44.3749 125.807 44.2307 125.858 44.0809 125.87L43.4333 125.913C43.3274 125.922 43.2271 125.964 43.1458 126.033C43.0645 126.101 43.0062 126.193 42.9786 126.295C42.951 126.398 42.9555 126.506 42.9915 126.606C43.0275 126.706 43.0932 126.792 43.1799 126.854C43.3301 126.947 43.6727 126.999 44.2077 127.008C44.3401 127.009 44.4703 127.043 44.5859 127.108C44.7015 127.172 44.7985 127.264 44.8678 127.376C44.937 127.487 44.9761 127.614 44.9813 127.744C44.9865 127.874 44.9577 128.002 44.8975 128.118C44.7473 128.408 44.4939 128.693 44.1373 128.974C44.0592 129.039 44.0029 129.125 43.9759 129.222C43.9489 129.32 43.9526 129.423 43.9864 129.518C44.0202 129.613 44.0826 129.695 44.165 129.754C44.2474 129.813 44.3458 129.844 44.447 129.845H44.813C44.9067 129.846 44.9984 129.821 45.0779 129.774C45.1575 129.727 45.2217 129.659 45.2636 129.578L46.9671 126.236C47.1413 125.906 47.2148 125.535 47.1783 125.168C46.6245 118.52 48.8208 112.958 53.7671 108.483C53.7859 108.464 53.8007 108.443 53.8109 108.418C53.8211 108.394 53.8263 108.368 53.8263 108.342C53.8263 108.316 53.8211 108.29 53.8109 108.266C53.8007 108.242 53.7859 108.22 53.7671 108.202L53.5137 107.949C53.5068 107.939 53.4979 107.931 53.4875 107.925C53.4772 107.918 53.4656 107.915 53.4536 107.913C53.4416 107.912 53.4294 107.913 53.4179 107.917C53.4064 107.921 53.3959 107.927 53.387 107.935C52.073 109.04 50.8481 109.485 49.7125 109.269C49.5203 109.234 49.3378 109.154 49.1792 109.035C49.0205 108.916 48.8898 108.76 48.7973 108.581C47.7837 106.643 48.0746 105.201 49.6702 104.255C52.0824 102.813 53.7577 101.184 54.6963 99.3675C54.7944 99.1717 54.8524 98.9589 54.8669 98.7418C54.8814 98.5247 54.8521 98.3077 54.7808 98.1035C54.4805 97.1859 53.5982 96.2636 52.134 95.3366C52.0694 95.2917 51.9919 95.2688 51.9132 95.2712C51.8345 95.2737 51.7586 95.3015 51.697 95.3504C51.6353 95.3993 51.5911 95.4667 51.5709 95.5427C51.5507 95.6186 51.5556 95.6991 51.5849 95.772C51.7069 96.0904 52.2701 96.4275 53.2744 96.7833C53.5257 96.8735 53.7589 97.0099 53.9568 97.1825C54.1546 97.3552 54.312 97.5595 54.4174 97.7806C54.5228 98.0016 54.5735 98.2338 54.5657 98.4598C54.5579 98.6858 54.4919 98.9001 54.3725 99.0866C53.1524 100.997 51.4348 102.364 49.2197 103.188C48.9776 103.279 48.7179 103.314 48.4602 103.291C48.2025 103.267 47.9536 103.185 47.7323 103.051C47.5111 102.917 47.3235 102.734 47.1835 102.517C47.0436 102.3 46.9552 102.054 46.9249 101.797C46.6151 99.1007 47.84 97.5557 50.5994 97.1625C50.6288 97.1596 50.6572 97.1501 50.6827 97.1348C50.7083 97.1194 50.7304 97.0985 50.7476 97.0733C50.7649 97.0482 50.7769 97.0194 50.7829 96.9888C50.7889 96.9582 50.7887 96.9264 50.7824 96.8956C50.7429 96.8351 50.69 96.7854 50.6285 96.751C50.567 96.7167 50.499 96.6988 50.4305 96.699L47.0516 96.8535C46.766 96.8649 46.4852 96.7775 46.2568 96.606C46.0284 96.4345 45.8665 96.1894 45.7986 95.9125C45.3011 93.8806 45.9347 92.4808 47.6992 91.713C47.7967 91.6718 47.8789 91.6012 47.9341 91.511C47.9893 91.4209 48.0148 91.3157 48.0071 91.2103C47.9993 91.1049 47.9586 91.0046 47.8908 90.9235C47.8229 90.8424 47.7313 90.7845 47.6288 90.758L45.883 90.3366C45.6722 90.2845 45.4752 90.1841 45.307 90.043C45.1388 89.9019 45.0036 89.7238 44.9116 89.522C44.095 87.7242 44.5127 86.5164 46.1646 85.8984C46.3602 85.827 46.5751 85.829 46.7694 85.9039C46.9636 85.9788 47.1239 86.1216 47.2205 86.3057C47.4833 86.8113 47.5725 87.4433 47.488 88.2018C47.4772 88.316 47.5069 88.43 47.5715 88.5228C47.6362 88.6157 47.7315 88.6812 47.84 88.7074L48.2623 88.8198C48.3158 88.8324 48.3713 88.8329 48.425 88.8212C48.4786 88.8095 48.5289 88.7859 48.5722 88.7522C48.6155 88.7185 48.6506 88.6755 48.6749 88.6264C48.6993 88.5773 48.7122 88.5234 48.7129 88.4686C48.6988 85.2804 44.9538 85.1259 43.56 84.213C43.3786 84.0895 43.2257 83.9279 43.1115 83.7389C42.9974 83.5499 42.9247 83.3381 42.8983 83.1175C42.7763 82.0126 42.8749 81.2448 43.194 80.8141C43.3293 80.6326 43.5223 80.5028 43.7403 80.4465C43.9583 80.3902 44.188 80.4109 44.3907 80.5051C45.1603 80.8516 45.6765 80.9873 45.9393 80.9124C46.0105 80.8954 46.0724 80.854 46.1143 80.7955C46.1562 80.7369 46.1754 80.6648 46.1688 80.5915C46.1621 80.5183 46.1299 80.4486 46.0777 80.3944C46.0256 80.3401 45.9567 80.3048 45.883 80.2945C43.5929 80.0697 41.894 79.0913 40.7865 77.3591C40.7208 77.2549 40.6802 77.1362 40.668 77.012C40.6558 76.8878 40.6723 76.7614 40.7161 76.6428L41.2793 75.1119C41.3078 75.0351 41.3196 74.9532 41.3139 74.8718C41.3082 74.7904 41.2851 74.7115 41.2462 74.6406C41.2073 74.5697 41.1536 74.5085 41.0888 74.4613C41.024 74.4142 40.9496 74.3821 40.871 74.3675C38.4119 73.8806 37.5249 72.5463 38.2101 70.3647C38.2766 70.156 38.2577 69.9297 38.1575 69.7349C38.0572 69.5402 37.8838 69.3929 37.6751 69.3253C35.3803 68.595 34.7186 66.1371 36.4643 64.7747C36.5285 64.7222 36.5789 64.6546 36.6107 64.5781C36.6425 64.5017 36.6548 64.419 36.6464 64.3377C36.638 64.2564 36.6091 64.1792 36.5625 64.1131C36.5159 64.0471 36.4531 63.9945 36.3799 63.9601C32.3533 61.9517 31.3678 56.3618 37.478 56.0669C37.5039 56.0651 37.5292 56.0582 37.5525 56.0466C37.5757 56.0351 37.5964 56.0191 37.6134 55.9995C37.6304 55.9799 37.6434 55.9572 37.6516 55.9326C37.6597 55.908 37.6629 55.882 37.661 55.8562V55.8421C37.6313 55.7872 37.5862 55.742 37.5312 55.7121C37.4762 55.6822 37.4137 55.6688 37.3513 55.6736L34.5919 55.786C34.0949 55.8043 33.6021 55.6287 33.2121 55.2944C32.0014 54.2551 31.6447 52.7288 32.1422 50.7157C32.1962 50.4937 32.3185 50.2936 32.4924 50.1428C32.6662 49.992 32.8832 49.8978 33.1136 49.873C37.0275 49.4657 39.2238 50.9685 42.7294 52.7242C44.1185 53.4077 44.4329 54.5734 43.6727 56.2214C43.6712 56.2318 43.6727 56.2425 43.677 56.2522C43.6814 56.2618 43.6884 56.2701 43.6972 56.2759C43.706 56.2818 43.7163 56.2851 43.7269 56.2854C43.7375 56.2856 43.748 56.2829 43.7571 56.2775C44.2452 55.6034 44.4705 54.9339 44.4329 54.2691C44.4194 53.9936 44.3426 53.7249 44.2083 53.4838C44.074 53.2427 43.8859 53.0356 43.6586 52.8786C40.9273 50.9873 37.6892 49.5219 33.9442 48.4826C33.0955 48.2485 32.3579 47.719 31.8628 46.9885C31.3678 46.258 31.1474 45.3739 31.2411 44.4938L31.2552 44.3814C31.2994 43.9931 31.4247 43.6184 31.6231 43.2814C31.8215 42.9445 32.0885 42.6527 32.4069 42.4251C32.7253 42.1974 33.0881 42.0389 33.4717 41.9598C33.8553 41.8807 34.2513 41.8827 34.6341 41.9657C37.0556 42.4994 39.2989 43.8384 41.3637 45.9826C42.4056 47.0593 43.025 47.6633 43.2221 47.7944C43.8416 48.1876 44.9538 49.4142 46.5588 51.4742C43.4521 46.6052 39.3505 42.6492 34.254 39.6061C33.7471 39.3065 33.3342 38.9835 33.015 38.637C32.405 37.9816 32.0905 37.6398 32.0718 37.6118C31.8369 37.171 31.742 36.6694 31.7999 36.1736C31.8578 35.6777 32.0656 35.2113 32.3958 34.8362C32.7259 34.4611 33.1627 34.1951 33.6481 34.0738C34.1334 33.9524 34.6443 33.9813 35.1128 34.1567C37.1307 34.9245 38.9938 36.343 40.702 38.4123C48.8396 48.2625 55.5458 59.344 60.8206 71.6568C61.7404 73.801 62.0924 76.5023 61.8765 79.7607C61.1632 90.6877 60.5484 98.5342 60.0322 103.3C59.8445 105.032 60.1495 106.516 60.9473 107.752C61.0797 107.962 61.2656 108.132 61.4858 108.245C61.7061 108.359 61.9527 108.412 62.2003 108.398C65.8514 108.211 68.6906 109.56 70.718 112.443C72.337 114.733 73.8435 115.744 75.7159 116.825C76.2691 117.147 76.9007 117.317 77.5462 117.317C86.641 117.331 95.6374 116.488 104.366 115.351C113.109 114.213 123.739 113.932 130.51 115.21C140.985 117.205 150.305 118.427 160.864 115.393C161.241 115.287 161.65 115.282 162.037 115.379C162.424 115.476 162.77 115.67 163.031 115.936C163.291 116.201 163.452 116.526 163.492 116.865C163.533 117.205 163.451 117.544 163.258 117.837C160.034 122.598 143.21 118.736 135.931 117.443C135.895 117.438 135.858 117.44 135.822 117.45C135.787 117.459 135.754 117.477 135.725 117.5C135.696 117.524 135.671 117.554 135.654 117.587C135.636 117.621 135.625 117.658 135.621 117.696C135.617 117.752 135.624 117.808 135.644 117.861C135.664 117.913 135.695 117.961 135.736 117.999C135.776 118.038 135.825 118.068 135.878 118.086C135.931 118.104 135.988 118.11 136.043 118.104C137.207 117.944 138.432 118.263 139.718 119.059C139.91 119.177 140.073 119.337 140.194 119.525C140.315 119.713 140.39 119.925 140.414 120.141C140.437 120.357 140.408 120.572 140.329 120.767C140.249 120.963 140.122 121.133 139.957 121.264C137.071 123.511 134.368 121.825 131.341 120.337C131.223 120.279 131.091 120.255 130.96 120.268C130.829 120.282 130.704 120.331 130.6 120.412C130.496 120.492 130.416 120.6 130.371 120.724C130.325 120.847 130.315 120.98 130.342 121.109L130.44 121.573C130.484 121.786 130.462 122.007 130.376 122.206C130.291 122.404 130.146 122.571 129.961 122.682C127.962 123.853 126.216 124.073 124.724 123.342C124.555 123.259 124.365 123.228 124.179 123.253C123.993 123.278 123.82 123.358 123.682 123.483C121.664 125.318 119.327 125.341 116.671 123.553C116.592 123.503 116.502 123.474 116.408 123.471C116.315 123.467 116.223 123.489 116.141 123.534C116.059 123.578 115.99 123.644 115.942 123.724C115.894 123.804 115.869 123.895 115.869 123.988V124.845C115.869 125.04 115.796 125.228 115.664 125.374C115.531 125.519 115.348 125.611 115.151 125.632C113.968 125.763 112.842 125.744 111.772 125.575C111.199 125.482 110.786 125.149 110.533 124.578C110.27 123.97 110.031 123.614 109.815 123.511C109.726 123.469 109.628 123.452 109.531 123.46C109.434 123.469 109.34 123.503 109.259 123.56C109.178 123.617 109.113 123.694 109.069 123.784C109.026 123.873 109.006 123.973 109.012 124.073C109.209 126.755 104.521 128.019 103.367 125.646C102.297 123.445 102.358 121.479 103.55 119.747C103.636 119.618 103.686 119.469 103.694 119.315C103.702 119.161 103.669 119.007 103.597 118.87C103.524 118.733 103.417 118.619 103.284 118.538C103.152 118.458 103.001 118.414 102.846 118.413H94.9334C94.4143 118.412 93.8999 118.527 93.427 118.75C93.4176 118.75 93.3566 118.787 93.244 118.862C92.7916 119.168 92.2371 119.289 91.6953 119.199C89.9214 118.909 87.7392 118.998 85.1487 119.466C85.0754 119.48 85.0067 119.512 84.9502 119.561C84.8937 119.61 84.8515 119.672 84.8283 119.742C84.805 119.811 84.8016 119.885 84.8184 119.956C84.8352 120.026 84.8715 120.09 84.9234 120.14L85.2754 120.519C85.4492 120.697 85.6761 120.812 85.9205 120.848C86.165 120.883 86.4134 120.837 86.627 120.716C88.8702 119.433 90.8084 119.325 92.4415 120.393C92.6251 120.513 92.8391 120.581 93.0617 120.591C93.2843 120.601 93.5075 120.552 93.7086 120.449C94.8255 119.869 96.3038 119.349 98.1434 118.89C98.3248 118.848 98.5136 118.868 98.6807 118.947C98.8479 119.026 98.9843 119.159 99.0689 119.326C99.1536 119.494 99.1819 119.686 99.1495 119.873C99.1171 120.061 99.0258 120.234 98.8896 120.365C98.5611 120.692 98.4766 121.001 98.6361 121.292C98.6564 121.33 98.6881 121.362 98.727 121.382C98.7658 121.402 98.8099 121.409 98.8532 121.403C98.8964 121.397 98.9366 121.377 98.9684 121.347C99.0001 121.317 99.0218 121.278 99.0304 121.236C99.0867 120.87 99.3448 120.472 99.8047 120.042C100.024 119.839 100.3 119.708 100.596 119.667C100.892 119.626 101.194 119.676 101.46 119.81C101.727 119.945 101.946 120.157 102.088 120.42C102.23 120.682 102.288 120.981 102.254 121.278L101.79 125.098C101.753 125.43 101.632 125.749 101.438 126.025C100.48 127.326 99.1805 127.781 97.538 127.387C97.3004 127.328 97.0896 127.192 96.9391 127.001C96.7886 126.81 96.707 126.575 96.7074 126.334V124.691C96.7056 124.608 96.6805 124.528 96.635 124.46C96.5895 124.391 96.5256 124.337 96.4504 124.303C96.3753 124.269 96.2922 124.258 96.2106 124.269C96.129 124.28 96.0523 124.315 95.9893 124.368C95.5201 124.77 95.0038 125.365 94.4407 126.151C94.2188 126.456 93.9061 126.687 93.5472 126.811C93.1883 126.935 92.8017 126.945 92.4424 126.841C92.0832 126.737 91.7699 126.523 91.5472 126.23C91.3245 125.937 91.2039 125.58 91.2026 125.21C91.2026 124.817 91.165 124.536 91.0899 124.368C91.0479 124.28 90.9841 124.204 90.9046 124.147C90.8251 124.09 90.7324 124.055 90.6354 124.043C90.5383 124.032 90.4399 124.046 90.3495 124.083C90.2591 124.12 90.1796 124.179 90.1185 124.255C89.011 125.66 87.0728 126.348 84.304 126.32C84.0426 126.32 83.7919 126.215 83.6071 126.028C83.4223 125.841 83.3185 125.587 83.3185 125.323V124.115C83.3173 124.032 83.2919 123.952 83.2454 123.884C83.1989 123.816 83.1334 123.763 83.0569 123.731C82.9805 123.7 82.8965 123.691 82.8153 123.707C82.7342 123.723 82.6595 123.762 82.6004 123.82C81.6431 124.784 80.071 125.318 77.8841 125.421C77.6565 125.429 77.4336 125.357 77.2556 125.218C77.0775 125.079 76.9559 124.882 76.9126 124.663C76.8469 124.307 76.9361 123.712 77.1801 122.879C77.2051 122.801 77.2058 122.717 77.1823 122.638C77.1587 122.56 77.1119 122.49 77.048 122.439C76.9841 122.387 76.9061 122.356 76.8242 122.349C76.7422 122.342 76.6602 122.361 76.5888 122.401C74.6741 123.37 73.2662 126.39 70.8588 130.238C70.4947 130.825 70.0439 131.355 69.5213 131.811C67.4658 133.628 64.819 134.766 61.5808 135.224C61.4152 135.246 61.2595 135.316 61.1336 135.425C61.0077 135.535 60.9172 135.679 60.8735 135.84C60.8298 136.001 60.8349 136.171 60.8881 136.329C60.9413 136.487 61.0403 136.625 61.1726 136.727ZM36.0701 45.9966L34.3807 44.2972C34.3087 44.2202 34.212 44.1708 34.1073 44.1577C34.0026 44.1445 33.8966 44.1685 33.8078 44.2253C33.719 44.2821 33.653 44.3683 33.6214 44.4687C33.5897 44.5691 33.5943 44.6774 33.6345 44.7747C34.0381 45.8889 34.7092 46.5537 35.6478 46.7691C35.7439 46.7865 35.843 46.7732 35.9311 46.7312C36.0192 46.6891 36.0918 46.6205 36.1385 46.535C36.1853 46.4495 36.2038 46.3514 36.1916 46.2548C36.1793 46.1581 36.1368 46.0678 36.0701 45.9966ZM37.3231 53.4966C36.6849 52.27 36.1687 51.6521 35.7745 51.6427C35.6813 51.6414 35.5894 51.6644 35.5079 51.7094C35.4263 51.7544 35.358 51.8199 35.3096 51.8994C35.2613 51.9788 35.2345 52.0695 35.2321 52.1625C35.2297 52.2554 35.2516 52.3473 35.2958 52.4292C35.6337 53.0566 36.1499 53.5669 36.8445 53.9601C36.91 53.9937 36.9844 54.006 37.0573 53.9952C37.1301 53.9844 37.1978 53.951 37.2506 53.8999C37.3035 53.8487 37.3389 53.7822 37.352 53.7099C37.365 53.6375 37.3549 53.563 37.3231 53.4966ZM49.6139 67.1203C51.1813 68.3 52.0073 69.3487 52.0918 70.2663C52.0997 70.3804 52.0838 70.4949 52.0453 70.6024C52.0067 70.7098 51.9463 70.8078 51.8679 70.8899C51.7896 70.9721 51.695 71.0365 51.5905 71.0791C51.4859 71.1217 51.3737 71.1415 51.2611 71.1371C50.82 71.109 50.5243 71.1044 50.3742 71.1231C50.3345 71.1269 50.2963 71.1422 50.2647 71.1669C50.233 71.1915 50.2095 71.2245 50.1972 71.2612C50.185 71.2979 50.1845 71.3367 50.196 71.3722C50.2075 71.4078 50.2304 71.4385 50.2615 71.4602L52.8661 73.5388C52.9357 73.5954 53.021 73.6291 53.1105 73.6355C53.2 73.6419 53.2893 73.6207 53.3663 73.5746C53.4432 73.5285 53.5041 73.4599 53.5406 73.3781C53.577 73.2963 53.5873 73.2053 53.57 73.1175C52.0401 65.0182 50.9045 60.1025 50.163 58.3702C49.3933 56.5725 48.5439 54.7466 47.6147 52.8927C47.6018 52.865 47.5803 52.8422 47.5532 52.8278C47.5262 52.8135 47.4953 52.8083 47.465 52.813C47.4348 52.8178 47.4069 52.8323 47.3857 52.8542C47.3644 52.8762 47.3509 52.9045 47.3472 52.9348C47.2721 53.8337 47.0609 54.5266 46.7137 55.0135C46.5851 55.1935 46.5296 55.4158 46.5583 55.6367C46.587 55.8577 46.6976 56.0612 46.8685 56.2073C48.2764 57.4152 51.5568 60.4208 49.3042 62.3028C49.225 62.3662 49.1604 62.4459 49.1148 62.5366C49.0692 62.6274 49.0435 62.7272 49.0395 62.8294C49.0355 62.9316 49.0533 63.0339 49.0916 63.1295C49.13 63.2252 49.188 63.312 49.2619 63.3843L51.3878 65.5051C51.5101 65.6301 51.588 65.7916 51.6096 65.965C51.6313 66.1383 51.5955 66.3139 51.5078 66.4651C51.4201 66.6163 51.2852 66.7347 51.1237 66.8022C50.9623 66.8698 50.7831 66.8828 50.6135 66.8394L49.8532 66.6287C49.7914 66.615 49.7268 66.6225 49.6698 66.65C49.6127 66.6775 49.5667 66.7234 49.539 66.7802C49.5113 66.837 49.5037 66.9015 49.5173 66.9632C49.5309 67.0249 49.5649 67.0802 49.6139 67.1203ZM39.4913 57.373C40.0638 57.9255 41.1244 58.1174 42.6731 57.9489C42.7192 57.9405 42.7613 57.9169 42.7925 57.882C42.8238 57.8471 42.8425 57.8028 42.8457 57.7561C42.849 57.7094 42.8365 57.663 42.8104 57.6242C42.7842 57.5853 42.7458 57.5562 42.7012 57.5416L39.7869 56.8253C39.718 56.8099 39.6459 56.8173 39.5816 56.8466C39.5173 56.8758 39.4644 56.9253 39.4309 56.9873C39.3974 57.0494 39.3852 57.1207 39.3961 57.1903C39.407 57.26 39.4404 57.3241 39.4913 57.373ZM46.9812 60.8C47.0656 60.6783 46.1318 59.9573 44.1795 58.6371C43.8134 58.3936 43.5882 58.3375 43.5037 58.4686C43.4192 58.5996 43.5553 58.7822 43.912 59.0163C45.883 60.3272 46.9061 60.9217 46.9812 60.8ZM36.8442 58.6073C36.6922 58.7395 36.6489 58.9834 36.7237 59.2853C36.7985 59.5872 36.9853 59.9224 37.243 60.2171C37.5008 60.5119 37.8083 60.742 38.0979 60.8568C38.3876 60.9717 38.6357 60.962 38.7876 60.8298C38.9396 60.6976 38.9829 60.4537 38.9081 60.1518C38.8333 59.8499 38.6465 59.5147 38.3888 59.22C38.131 58.9253 37.8235 58.6952 37.5339 58.5803C37.2442 58.4654 36.9961 58.4751 36.8442 58.6073ZM44.0106 61.6708C44.0106 61.8862 44.0763 62.0126 44.2077 62.05C44.2814 62.0685 44.3598 62.0633 44.4311 62.035C44.5023 62.0067 44.5624 61.957 44.6023 61.8934C44.6421 61.8297 44.6595 61.7557 44.6518 61.6826C44.6441 61.6095 44.6118 61.5412 44.5596 61.4882C44.4282 61.3759 44.3062 61.3337 44.1936 61.3618C44.0622 61.3993 44.0012 61.5023 44.0106 61.6708ZM48.6847 62.0079C48.5815 61.83 48.4547 61.6989 48.3046 61.6146C48.2085 61.5653 48.0983 61.5509 47.9928 61.5739C47.8872 61.5969 47.793 61.6559 47.7264 61.7407C47.6597 61.8255 47.6248 61.9308 47.6275 62.0385C47.6303 62.1462 47.6705 62.2496 47.7414 62.3309C47.8259 62.4246 48.0371 62.4807 48.375 62.4995C48.4333 62.5053 48.4918 62.4947 48.5443 62.4688C48.5968 62.4428 48.6412 62.4025 48.673 62.3521C48.7047 62.3018 48.7226 62.2432 48.7246 62.1825C48.7267 62.1219 48.7129 62.0616 48.6847 62.0079ZM42.6449 63.7214C42.1099 63.4405 41.711 63.2907 41.4482 63.2719C41.3539 63.265 41.2603 63.2934 41.1858 63.3516C41.1114 63.4098 41.0613 63.4936 41.0455 63.5866C41.0297 63.6797 41.0492 63.7753 41.1002 63.8547C41.1512 63.9342 41.2302 63.9918 41.3215 64.0163L42.4337 64.2832C42.5073 64.2985 42.585 64.2868 42.6521 64.2502C42.7191 64.2137 42.7707 64.1549 42.7969 64.0852C42.8231 64.0155 42.822 63.9398 42.794 63.8727C42.7659 63.8055 42.7128 63.7516 42.6449 63.7214ZM43.912 64.6483C44.0903 64.7607 44.7004 64.948 45.7422 65.2101C45.8393 65.2384 45.9432 65.2321 46.0361 65.1924C46.129 65.1527 46.2053 65.0821 46.2518 64.9926C46.2983 64.903 46.3123 64.8002 46.2912 64.7015C46.2702 64.6029 46.2155 64.5146 46.1364 64.4517C45.9206 64.2738 45.2166 64.1989 44.0246 64.227C43.9777 64.2284 43.933 64.2447 43.8968 64.2737C43.8605 64.3027 43.8344 64.343 43.8221 64.3891C43.8098 64.4353 43.8118 64.4849 43.8279 64.5313C43.844 64.5777 43.8734 64.6186 43.912 64.6483ZM38.8436 65.7719C39.1252 66.1933 39.4162 66.4508 39.7165 66.5444C39.8019 66.5705 39.8871 66.5623 39.96 66.5209C40.0328 66.4795 40.0896 66.4069 40.1224 66.3137C40.1551 66.2204 40.1621 66.111 40.1423 66.0012C40.1225 65.8913 40.077 65.7865 40.0122 65.7017C39.9465 65.6081 39.7025 65.463 39.2801 65.2663C39.2116 65.2379 39.1359 65.2318 39.0637 65.2489C38.9916 65.266 38.9267 65.3054 38.8783 65.3614C38.8299 65.4175 38.8005 65.4874 38.7943 65.5611C38.7881 65.6348 38.8053 65.7086 38.8436 65.7719ZM47.6006 66.1933C47.7414 66.3244 47.9291 66.3852 48.1638 66.3759C48.1911 66.3739 48.2178 66.3646 48.2405 66.349C48.2632 66.3334 48.2809 66.3123 48.2914 66.2883C48.3019 66.2644 48.3048 66.2385 48.2996 66.2141C48.2944 66.1897 48.2815 66.1678 48.2623 66.1512C48.1403 66.0388 48.0324 65.9498 47.9385 65.8843C47.8923 65.8451 47.8302 65.8239 47.7658 65.8251C47.7014 65.8264 47.6401 65.8502 47.5953 65.8911C47.5505 65.9321 47.5259 65.987 47.5269 66.0436C47.5279 66.1003 47.5544 66.1541 47.6006 66.1933ZM46.2772 67.036C45.7235 67.4012 45.6202 67.7101 45.9675 67.963C46.0038 67.9898 46.0457 68.0081 46.0902 68.0163C46.1346 68.0244 46.1804 68.0223 46.2239 68.0101C46.2674 67.9979 46.3075 67.9759 46.3412 67.9459C46.3748 67.9158 46.4011 67.8784 46.418 67.8366L46.6151 67.3028C46.6328 67.258 46.6355 67.2087 46.6229 67.1622C46.6103 67.1157 46.5831 67.0745 46.5452 67.0446C46.5074 67.0147 46.4609 66.9977 46.4127 66.9962C46.3644 66.9946 46.3169 67.0086 46.2772 67.036ZM40.5331 68.4405C40.5613 68.4405 40.6692 68.4311 40.8569 68.4124C40.8709 68.4114 40.8832 68.4056 40.8923 68.3954C40.9015 68.3853 40.9071 68.3713 40.9086 68.3551C40.9101 68.3389 40.9073 68.3212 40.9007 68.3039C40.894 68.2867 40.8837 68.2708 40.871 68.2579C40.8428 68.2298 40.8147 68.2017 40.7865 68.1736C40.7468 68.127 40.6856 68.0771 40.6166 68.0349C40.5475 67.9927 40.4762 67.9616 40.4184 67.9486C40.3605 67.9356 40.3208 67.9416 40.308 67.9654C40.2952 67.9891 40.3103 68.0287 40.3501 68.0753C40.4158 68.169 40.4205 68.2345 40.3642 68.2719C40.3496 68.2869 40.343 68.3054 40.345 68.3251C40.347 68.3447 40.3577 68.3648 40.3756 68.3826C40.3936 68.4005 40.418 68.4156 40.446 68.4258C40.474 68.4361 40.5042 68.4412 40.5331 68.4405ZM44.1232 68.1736C43.851 68.1643 43.56 68.2298 43.2503 68.3703C43.1687 68.4056 43.0999 68.4649 43.053 68.5403C43.0062 68.6157 42.9835 68.7036 42.9881 68.7922C42.9927 68.8808 43.0243 68.9659 43.0787 69.036C43.1331 69.1062 43.2077 69.1581 43.2925 69.1849C43.7431 69.3253 44.1185 69.2785 44.4188 69.0444C44.4961 68.981 44.5521 68.8956 44.5795 68.7997C44.607 68.7037 44.6045 68.6017 44.5724 68.5072C44.5403 68.4127 44.4801 68.3302 44.3999 68.2706C44.3197 68.211 44.2231 68.1772 44.1232 68.1736ZM48.7551 70.5613L47.5302 70.1118C47.4519 70.0818 47.3651 70.078 47.2836 70.1009C47.2021 70.1239 47.1306 70.1723 47.0804 70.2384C47.0303 70.3046 47.0044 70.3847 47.0068 70.4661C47.0092 70.5475 47.0398 70.6255 47.0938 70.6877C47.4223 71.0997 47.9479 71.2682 48.6706 71.1933C48.7474 71.1911 48.8209 71.1616 48.878 71.1103C48.935 71.059 48.9719 70.9891 48.9821 70.9131C48.9922 70.8371 48.975 70.76 48.9334 70.6956C48.8918 70.6311 48.8286 70.5835 48.7551 70.5613ZM42.4337 72.7383C42.5634 72.7945 42.6778 72.7839 42.7611 72.7077C42.8443 72.6316 42.8924 72.4937 42.8986 72.3132C42.9048 72.1327 42.8688 71.9185 42.7956 71.7003C42.7224 71.482 42.6156 71.2705 42.49 71.095C42.2742 70.786 42.0114 70.7064 41.7016 70.8562C41.2323 71.0903 41.1244 71.3993 41.3778 71.7832C41.6782 72.2514 42.0301 72.5697 42.4337 72.7383ZM42.8702 74.3113C43.2268 74.2551 43.4239 74.1193 43.4615 73.904C43.4746 73.8314 43.4615 73.7591 43.4241 73.6982C43.3868 73.6372 43.3274 73.5912 43.2551 73.5671C43.1828 73.5431 43.1018 73.5424 43.0245 73.5653C42.9472 73.5881 42.8781 73.6331 42.8279 73.6933C42.7247 73.815 42.6637 73.9414 42.6449 74.0725C42.6375 74.1041 42.638 74.1371 42.6464 74.1685C42.6549 74.1998 42.6709 74.2286 42.6933 74.2523C42.7156 74.2759 42.7434 74.2937 42.7743 74.304C42.8051 74.3143 42.8381 74.3168 42.8702 74.3113ZM47.7133 74.8731C48.9381 74.9714 49.4872 75.2242 50.2193 74.9293C50.2661 74.9114 50.3051 74.8775 50.3292 74.8336C50.3533 74.7898 50.361 74.7388 50.3508 74.6898C50.3406 74.6408 50.3133 74.597 50.2737 74.5662C50.2342 74.5355 50.1849 74.5198 50.1348 74.522C49.4027 74.5032 48.6847 74.4658 47.9808 74.4096C46.7559 74.2692 46.2209 74.0163 45.4888 74.3113C45.4328 74.3206 45.3828 74.3517 45.3498 74.3978C45.3168 74.4439 45.3035 74.5012 45.3128 74.5571C45.3222 74.6129 45.3534 74.6628 45.3996 74.6958C45.4458 74.7287 45.5032 74.742 45.5592 74.7326C46.3007 74.7514 47.0187 74.7982 47.7133 74.8731ZM57.4839 98.0192C58.507 91.3151 58.1222 84.845 56.3295 78.6091C55.8508 76.9424 55.2032 75.7017 54.3866 74.8871C54.3407 74.8404 54.286 74.8033 54.2255 74.778C54.1651 74.7526 54.1002 74.7396 54.0346 74.7396C53.9691 74.7396 53.9042 74.7526 53.8437 74.778C53.7833 74.8033 53.7285 74.8404 53.6827 74.8871L53.3589 75.2102C53.3184 75.2494 53.2863 75.2964 53.2643 75.3482C53.2424 75.4001 53.2311 75.4558 53.2311 75.5121C53.2311 75.5684 53.2424 75.6242 53.2643 75.676C53.2863 75.7279 53.3184 75.7748 53.3589 75.8141C55.2829 77.7336 55.8461 79.5267 55.0483 81.1933C54.9692 81.3577 54.9573 81.5464 55.0151 81.7194C55.0729 81.8924 55.1959 82.0361 55.358 82.1203C55.94 82.4106 56.1605 82.7898 56.0197 83.2579C55.6255 84.5782 55.2079 85.4302 54.7667 85.8141C54.7245 85.8528 54.6933 85.9019 54.6763 85.9565C54.6593 86.0111 54.6572 86.0692 54.6701 86.1248C54.683 86.1805 54.7104 86.2318 54.7497 86.2735C54.7889 86.3151 54.8385 86.3456 54.8934 86.3619L56.062 86.6428C56.2726 86.6964 56.4659 86.8032 56.6232 86.9529C56.7805 87.1026 56.8965 87.2902 56.9601 87.4975C57.0238 87.7049 57.0328 87.9251 56.9865 88.137C56.9402 88.3489 56.84 88.5453 56.6955 88.7074C55.6443 89.8685 55.5786 90.8844 56.4984 91.7552C56.7124 91.9593 56.8681 92.2175 56.9497 92.5037C57.0313 92.7898 57.0359 93.0937 56.963 93.3844L56.1887 96.5445C56.1541 96.6773 56.1541 96.8159 56.1887 96.9465C56.2232 97.0771 56.2912 97.1952 56.3858 97.2889L57.2164 98.1035C57.2364 98.1251 57.2621 98.1406 57.2905 98.1482C57.319 98.1557 57.349 98.1551 57.377 98.1462C57.4051 98.1374 57.4301 98.1207 57.449 98.0982C57.4679 98.0757 57.4801 98.0483 57.4839 98.0192ZM43.6867 77.2326C43.79 77.5791 43.9871 77.7383 44.278 77.7102C44.738 77.6634 44.9163 77.4105 44.813 76.9517C44.7004 76.4274 44.5784 76.0716 44.447 75.8843C44.355 75.7541 44.241 75.6929 44.1241 75.711C44.0073 75.7292 43.8947 75.8255 43.8054 75.9839C43.7161 76.1423 43.6555 76.353 43.6339 76.5804C43.6123 76.8079 43.631 77.0382 43.6867 77.2326ZM49.7969 77.3029C49.7594 77.0032 49.7312 76.8394 49.7125 76.8113C49.6767 76.7593 49.6259 76.7195 49.5668 76.6972C49.5078 76.6749 49.4433 76.6711 49.382 76.6864C49.3207 76.7017 49.2656 76.7353 49.224 76.7827C49.1824 76.8302 49.1563 76.8891 49.1493 76.9517C49.1493 76.9705 49.2009 77.125 49.3042 77.4152C49.323 77.4762 49.3642 77.5279 49.4196 77.5598C49.475 77.5918 49.5405 77.6016 49.6029 77.5874C49.6652 77.5732 49.7199 77.5359 49.7559 77.4832C49.7919 77.4304 49.8066 77.366 49.7969 77.3029ZM46.8967 80.5192H49.1634C49.2458 80.5133 49.3238 80.4799 49.3847 80.4242C49.4456 80.3686 49.4858 80.294 49.4989 80.2126C49.5119 80.1312 49.497 80.0479 49.4566 79.976C49.4161 79.9042 49.3525 79.8481 49.276 79.8169C48.3562 79.5173 47.5255 79.6343 46.7841 80.168C46.7524 80.1928 46.7291 80.2267 46.7173 80.265C46.7055 80.3034 46.7057 80.3445 46.718 80.3827C46.7303 80.4209 46.754 80.4545 46.7859 80.4789C46.8178 80.5033 46.8565 80.5173 46.8967 80.5192ZM46.1224 82.0501C46.0097 82.2467 46.052 82.4995 46.2491 82.8085C46.2913 82.8734 46.3469 82.9289 46.4114 82.9707C46.4759 83.0125 46.5474 83.0392 46.6202 83.0488C46.693 83.0584 46.7649 83.0505 46.83 83.0259C46.8952 83.0012 46.9518 82.9604 46.9953 82.9068C47.1548 82.7008 47.1173 82.4293 46.8826 82.0922C46.8374 82.0266 46.7775 81.9713 46.7086 81.9315C46.6397 81.8918 46.5638 81.8687 46.4881 81.8645C46.4124 81.8603 46.3392 81.8751 46.2753 81.9075C46.2114 81.94 46.1588 81.989 46.1224 82.0501ZM51.6131 84.0164C51.5662 83.7823 51.4629 83.6278 51.3034 83.5529C51.2452 83.5224 51.1775 83.5156 51.1145 83.534C51.0515 83.5523 50.998 83.5943 50.9655 83.6512C50.9185 83.7355 50.9467 83.9134 51.0499 84.1849C51.0782 84.252 51.1304 84.3063 51.1964 84.3373C51.2624 84.3684 51.3375 84.374 51.4074 84.3531C51.4773 84.3321 51.537 84.2862 51.5749 84.224C51.6129 84.1619 51.6265 84.0879 51.6131 84.0164ZM52.8802 89.0726C53.0397 88.0426 53.0914 87.4527 53.035 87.3029C53.0043 87.2276 52.9519 87.1625 52.8846 87.116C52.8173 87.0695 52.7383 87.0439 52.6578 87.0423C52.5773 87.0408 52.4991 87.0635 52.4333 87.1075C52.3675 87.1515 52.3172 87.2146 52.2889 87.2889C52.2419 87.4012 52.2372 87.9817 52.2748 89.0304C52.2842 89.101 52.3178 89.1661 52.3698 89.2149C52.4218 89.2636 52.4891 89.2929 52.5602 89.2979C52.6314 89.3028 52.7021 89.2831 52.7604 89.2421C52.8187 89.201 52.861 89.1411 52.8802 89.0726ZM50.0081 89.6484C49.7547 89.8638 49.7359 90.0744 49.9518 90.2804C50.1489 90.4583 50.4399 90.5005 50.8247 90.4068C50.909 90.383 50.9879 90.3393 51.0529 90.2803C51.1178 90.2213 51.1666 90.1492 51.194 90.0715C51.2214 89.9939 51.2264 89.9136 51.2084 89.8392C51.1905 89.7647 51.1504 89.6988 51.0922 89.6484C50.7449 89.3488 50.3835 89.3488 50.0081 89.6484ZM53.4011 91.067C53.3917 91.198 53.5888 91.5117 53.9924 92.008C54.0432 92.0755 54.1158 92.1234 54.198 92.1435C54.2802 92.1636 54.3668 92.1547 54.4432 92.1183C54.5195 92.0819 54.5808 92.0202 54.6167 91.9437C54.6526 91.8673 54.6609 91.7808 54.64 91.699C54.5837 91.5023 54.4288 91.2168 54.1754 90.8422C54.1257 90.7674 54.0532 90.7103 53.9687 90.6794C53.8841 90.6485 53.7919 90.6454 53.7054 90.6705C53.6189 90.6955 53.5428 90.7476 53.488 90.8189C53.4333 90.8902 53.4028 90.9771 53.4011 91.067ZM50.7543 94.2833L49.5717 93.1035C49.4895 93.001 49.3699 92.9354 49.2393 92.9209C49.1086 92.9064 48.9774 92.9443 48.8748 93.0262C48.7721 93.1082 48.7062 93.2275 48.6917 93.3578C48.6772 93.4882 48.7152 93.619 48.7973 93.7215C49.154 94.2645 49.7218 94.611 50.5009 94.7608C50.5608 94.7735 50.6232 94.7664 50.6786 94.7405C50.7341 94.7146 50.7796 94.6714 50.8083 94.6175C50.8369 94.5635 50.8472 94.5016 50.8374 94.4413C50.8277 94.381 50.7985 94.3255 50.7543 94.2833ZM53.5278 94.5642C53.8094 94.4705 53.9689 94.2177 54.0065 93.8057C54.0131 93.7562 54.0044 93.7064 53.9814 93.6624C53.9584 93.6184 53.9222 93.5822 53.8772 93.5583C53.8322 93.5343 53.7805 93.5237 53.7284 93.5278C53.6763 93.5318 53.6261 93.5503 53.5841 93.581C53.3401 93.7776 53.2134 94.0304 53.204 94.3394C53.2038 94.3782 53.213 94.4164 53.2309 94.4507C53.2488 94.4851 53.2748 94.5146 53.3066 94.5368C53.3385 94.5589 53.3753 94.5729 53.4138 94.5777C53.4524 94.5825 53.4915 94.5778 53.5278 94.5642ZM50.2897 100.154C50.3977 100.232 50.5252 100.265 50.6514 100.247C50.7776 100.229 50.8951 100.162 50.9848 100.056C51.0745 99.9507 51.1312 99.8126 51.1456 99.6646C51.1599 99.5166 51.1312 99.3673 51.064 99.2411C50.6839 98.4967 49.6561 99.6765 50.2897 100.154ZM55.527 103.974C55.2172 105.079 54.8371 106.17 54.3866 107.247C54.378 107.272 54.3779 107.3 54.3863 107.326C54.3947 107.352 54.4111 107.374 54.4332 107.39C54.4552 107.405 54.4817 107.414 54.5088 107.413C54.5359 107.413 54.5622 107.404 54.5837 107.387C55.5317 106.395 56.1652 105.351 56.4843 104.255C56.8035 103.15 56.8222 101.928 56.5407 100.589C56.5388 100.556 56.5236 100.525 56.4986 100.502C56.4735 100.48 56.4405 100.468 56.4069 100.47C56.3733 100.472 56.3418 100.487 56.3194 100.512C56.2969 100.537 56.2854 100.57 56.2872 100.603C56.0995 101.755 55.8461 102.879 55.527 103.974ZM51.9791 106.418C51.5474 105.866 51.3221 105.585 51.3034 105.575C51.1822 105.537 51.0513 105.541 50.933 105.588C50.8147 105.635 50.7164 105.721 50.6549 105.832C50.5934 105.943 50.5725 106.072 50.5957 106.197C50.619 106.322 50.685 106.435 50.7824 106.516C51.1579 106.835 51.4582 106.98 51.6835 106.952C51.7491 106.947 51.8134 106.926 51.8695 106.891C51.9255 106.856 51.9712 106.808 52.0016 106.753C52.032 106.698 52.046 106.638 52.042 106.579C52.0381 106.52 52.0163 106.464 51.9791 106.418ZM57.0053 116.671C56.9583 116.474 56.9959 115.103 57.1179 112.556C57.1197 112.548 57.1186 112.54 57.1146 112.534C57.1107 112.527 57.1042 112.523 57.0968 112.521C57.0893 112.519 57.0814 112.52 57.0748 112.524C57.0682 112.528 57.0634 112.534 57.0616 112.542C56.4703 114.105 56.2497 115.571 56.3999 116.938C56.4068 117 56.4396 117.058 56.4916 117.1C56.5437 117.141 56.6114 117.164 56.6814 117.163C56.7096 117.163 56.7706 117.167 56.8645 117.177C56.8959 117.181 56.9255 117.17 56.9507 117.145C56.976 117.12 56.9962 117.082 57.0099 117.033C57.0236 116.984 57.0302 116.925 57.0294 116.863C57.0286 116.8 57.0204 116.734 57.0053 116.671ZM62.144 112.809C61.8812 113.192 61.9047 114.087 62.2144 115.491C62.2654 115.711 62.3905 115.907 62.5695 116.047C62.7485 116.187 62.9707 116.264 63.1999 116.264H64.3544C64.4408 116.263 64.5249 116.236 64.5953 116.186C64.6657 116.136 64.7191 116.066 64.7483 115.985C64.7775 115.903 64.781 115.815 64.7584 115.732C64.7357 115.649 64.6881 115.575 64.6219 115.519C63.0544 114.199 62.327 113.342 62.4397 112.949C62.4469 112.912 62.4417 112.874 62.4249 112.841C62.408 112.807 62.3805 112.78 62.3466 112.764C62.3126 112.748 62.2743 112.744 62.2376 112.752C62.201 112.76 62.168 112.78 62.144 112.809ZM65.9312 116.98C66.4756 117.486 66.912 118.066 67.2405 118.722C67.2986 118.831 67.3851 118.922 67.4909 118.986C67.5967 119.051 67.7179 119.085 67.8417 119.087C67.9656 119.088 68.0875 119.056 68.1948 118.995C68.302 118.933 68.3906 118.843 68.4513 118.736C68.7235 118.249 68.6531 117.411 68.2401 116.222C68.1755 116.031 68.0403 115.873 67.8623 115.779C67.6842 115.685 67.4769 115.662 67.2827 115.716L66.1846 115.997C66.0832 116.022 65.9904 116.073 65.9161 116.147C65.8419 116.22 65.7889 116.312 65.7629 116.413C65.7369 116.514 65.7388 116.62 65.7684 116.72C65.7981 116.819 65.8543 116.909 65.9312 116.98ZM58.3287 118.862C58.3739 118.908 58.4335 118.937 58.4975 118.944C58.5615 118.951 58.6261 118.936 58.6805 118.902C58.7349 118.867 58.7757 118.815 58.7963 118.754C58.8168 118.693 58.8157 118.627 58.7933 118.567C58.7182 118.305 58.5961 118.094 58.4272 117.935C58.3633 117.879 58.2825 117.846 58.1976 117.841C58.1128 117.837 58.0288 117.861 57.9591 117.909C57.8894 117.958 57.838 118.028 57.8131 118.109C57.7882 118.19 57.7913 118.277 57.8218 118.356C57.8594 118.441 58.0283 118.609 58.3287 118.862ZM127.652 120.674C128.399 118.089 132.172 118.188 134.523 118.258C134.552 118.26 134.581 118.256 134.608 118.246C134.635 118.236 134.66 118.221 134.681 118.202C134.703 118.182 134.719 118.158 134.731 118.131C134.742 118.105 134.748 118.076 134.748 118.047V117.64C134.748 117.613 134.743 117.586 134.733 117.561C134.723 117.537 134.708 117.514 134.689 117.496C134.671 117.477 134.649 117.463 134.625 117.454C134.601 117.445 134.576 117.441 134.551 117.443L121.669 118.174C121.662 118.174 121.654 118.178 121.649 118.186C121.644 118.194 121.641 118.205 121.641 118.216V118.792C121.641 118.87 121.672 118.945 121.727 119C121.783 119.056 121.858 119.087 121.937 119.087H126.132C126.334 119.087 126.527 119.167 126.67 119.309C126.812 119.451 126.892 119.644 126.892 119.845C126.892 120.248 126.934 120.543 127.019 120.73C127.048 120.793 127.096 120.845 127.156 120.88C127.217 120.915 127.286 120.93 127.356 120.924C127.425 120.918 127.491 120.891 127.544 120.846C127.597 120.801 127.635 120.741 127.652 120.674ZM108.674 122.317L108.322 120.927C108.278 120.754 108.28 120.572 108.329 120.4C108.377 120.228 108.471 120.072 108.6 119.948C108.728 119.824 108.888 119.736 109.062 119.693C109.235 119.65 109.418 119.654 109.589 119.705C111.964 120.416 113.696 121.46 114.784 122.837C114.816 122.875 114.855 122.907 114.898 122.93C114.941 122.954 114.987 122.969 115.035 122.974C115.082 122.979 115.129 122.975 115.173 122.961C115.217 122.947 115.258 122.924 115.291 122.893L115.348 122.837C115.428 122.772 115.48 122.678 115.493 122.573C115.507 122.469 115.48 122.362 115.418 122.275C115.043 121.741 114.874 121.259 114.911 120.828C114.923 120.719 114.961 120.613 115.022 120.521C115.083 120.429 115.165 120.353 115.261 120.299C115.358 120.246 115.466 120.216 115.577 120.213C115.687 120.209 115.797 120.233 115.897 120.281C117.455 121.001 118.83 121.296 120.022 121.165C120.101 121.158 120.178 121.133 120.247 121.093C120.317 121.053 120.376 120.998 120.422 120.932C120.467 120.867 120.498 120.792 120.511 120.713C120.525 120.635 120.521 120.554 120.5 120.477L120.346 119.845C120.302 119.684 120.201 119.544 120.06 119.453C119.92 119.363 119.751 119.327 119.585 119.354C115.221 120.009 110.688 119.803 105.985 118.736C105.877 118.709 105.764 118.722 105.665 118.771C105.566 118.82 105.487 118.903 105.442 119.005C105.398 119.108 105.389 119.224 105.419 119.333C105.449 119.443 105.514 119.539 105.605 119.606C106.853 120.487 107.74 121.446 108.266 122.486C108.295 122.529 108.338 122.561 108.388 122.576C108.438 122.591 108.491 122.588 108.539 122.568C108.588 122.549 108.627 122.513 108.652 122.467C108.677 122.421 108.684 122.368 108.674 122.317ZM137.817 119.578C136.851 120.505 136.372 120.992 136.381 121.039C136.396 121.143 136.441 121.24 136.51 121.319C136.579 121.398 136.669 121.456 136.77 121.486C136.871 121.515 136.978 121.515 137.079 121.486C137.179 121.456 137.27 121.399 137.339 121.32C137.902 120.692 138.23 120.21 138.324 119.873C138.337 119.81 138.33 119.744 138.303 119.685C138.277 119.626 138.233 119.577 138.177 119.544C138.121 119.512 138.056 119.498 137.992 119.504C137.927 119.51 137.866 119.536 137.817 119.578ZM58.1738 119.915C58.0424 119.99 57.8969 120.163 57.7373 120.435C57.6983 120.491 57.6806 120.558 57.6877 120.626C57.6948 120.693 57.7261 120.756 57.7759 120.802C57.8257 120.848 57.8905 120.875 57.9585 120.877C58.0264 120.879 58.0929 120.857 58.1456 120.814C58.4648 120.599 58.6431 120.444 58.6806 120.351C58.7091 120.282 58.7152 120.207 58.6981 120.135C58.6809 120.063 58.6415 119.998 58.5853 119.95C58.5291 119.902 58.459 119.872 58.3851 119.866C58.3113 119.86 58.2373 119.877 58.1738 119.915ZM65.4947 120.393C65.4009 120.674 65.429 120.908 65.5792 121.095C65.6478 121.188 65.7355 121.265 65.8364 121.32C65.9372 121.376 66.0487 121.409 66.1628 121.417C66.277 121.425 66.3911 121.408 66.497 121.367C66.603 121.326 66.6982 121.262 66.7759 121.179C67.0199 120.917 66.9449 120.599 66.5507 120.224C66.472 120.147 66.3759 120.088 66.2711 120.053C66.1664 120.019 66.0563 120.009 65.9511 120.026C65.846 120.043 65.749 120.085 65.6693 120.149C65.5895 120.213 65.5295 120.297 65.4947 120.393ZM30.1711 121.306C30.6404 122.139 30.9971 122.56 31.2411 122.57C31.3875 122.578 31.5287 122.539 31.6522 122.456C31.7757 122.373 31.8776 122.249 31.9487 122.094C32.0198 121.94 32.058 121.76 32.0598 121.571C32.0617 121.382 32.0271 121.189 31.9591 121.011C31.7526 120.43 31.3444 120.234 30.7343 120.421C30.6246 120.455 30.5206 120.507 30.43 120.572C30.3394 120.638 30.2643 120.716 30.2104 120.801C30.1564 120.886 30.1249 120.975 30.1181 121.062C30.1113 121.15 30.1294 121.233 30.1711 121.306ZM59.9618 120.744C59.8867 120.997 60.0181 121.179 60.356 121.292C60.4068 121.307 60.4606 121.309 60.5124 121.298C60.5642 121.286 60.6122 121.262 60.6518 121.226C60.6913 121.191 60.7212 121.146 60.7384 121.096C60.7556 121.046 60.7597 120.993 60.7502 120.941C60.6939 120.669 60.5672 120.515 60.3701 120.477C60.1636 120.44 60.0275 120.529 59.9618 120.744ZM96.6651 122.457C96.6821 122.373 96.6671 122.291 96.622 122.22C96.5769 122.15 96.5036 122.096 96.4111 122.063C96.3185 122.03 96.2108 122.021 96.1009 122.036C95.991 122.051 95.8837 122.09 95.7922 122.148C95.3793 122.411 95.337 122.607 95.6655 122.738C96.2381 122.982 96.5713 122.888 96.6651 122.457ZM111.138 122.781C111.326 122.752 111.392 122.551 111.335 122.177C111.322 122.135 111.296 122.1 111.261 122.075C111.226 122.05 111.183 122.037 111.14 122.039C111.097 122.04 111.055 122.056 111.022 122.083C110.988 122.111 110.965 122.149 110.955 122.191C110.946 122.359 110.946 122.509 110.955 122.64C110.957 122.662 110.963 122.683 110.973 122.702C110.984 122.721 110.998 122.738 111.015 122.751C111.032 122.764 111.052 122.774 111.073 122.779C111.095 122.784 111.117 122.785 111.138 122.781ZM89.1048 122.345C88.7763 122.12 88.4948 122.092 88.2601 122.261C88.1845 122.315 88.1304 122.391 88.1059 122.479C88.0814 122.567 88.088 122.662 88.1245 122.749C88.161 122.836 88.2255 122.911 88.3084 122.962C88.3912 123.014 88.4879 123.039 88.5839 123.033C88.7716 123.024 88.9547 122.944 89.133 122.795C89.1653 122.767 89.1906 122.733 89.2071 122.693C89.2235 122.654 89.2306 122.612 89.2279 122.568C89.2252 122.525 89.2127 122.483 89.1914 122.444C89.1701 122.405 89.1405 122.372 89.1048 122.345ZM105.915 122.359C105.865 122.306 105.799 122.271 105.727 122.259C105.655 122.246 105.581 122.258 105.516 122.291C105.451 122.324 105.398 122.378 105.366 122.443C105.334 122.508 105.324 122.583 105.338 122.654C105.478 123.375 105.661 123.853 105.887 124.087C105.962 124.17 106.063 124.224 106.174 124.24C106.285 124.256 106.398 124.233 106.493 124.175C106.589 124.116 106.661 124.026 106.696 123.92C106.732 123.814 106.73 123.699 106.689 123.595C106.539 123.155 106.281 122.743 105.915 122.359ZM39.1675 124.649L37.5062 124.255C37.4658 124.242 37.4289 124.221 37.3975 124.195C37.366 124.168 37.3408 124.136 37.3231 124.101C37.2199 123.885 37.0838 123.698 36.9149 123.539C36.8653 123.48 36.7952 123.441 36.7185 123.431C36.6417 123.42 36.5639 123.439 36.5003 123.483C36.4367 123.527 36.392 123.593 36.3749 123.669C36.3578 123.744 36.3696 123.823 36.408 123.89C36.6614 124.508 37.3044 124.854 38.3368 124.929C38.5151 124.948 38.7733 124.962 39.1111 124.972C39.1491 124.969 39.1851 124.954 39.2134 124.929C39.2417 124.904 39.2606 124.87 39.2671 124.832C39.2736 124.795 39.2673 124.756 39.2493 124.723C39.2312 124.69 39.2024 124.663 39.1675 124.649ZM119.853 123.188C119.829 123.116 119.78 123.058 119.715 123.023C119.651 122.989 119.575 122.98 119.5 122.998C119.426 123.017 119.359 123.062 119.31 123.125C119.261 123.188 119.234 123.265 119.233 123.342C119.233 123.483 119.29 123.595 119.402 123.679C119.524 123.773 119.651 123.759 119.782 123.637C119.895 123.534 119.919 123.384 119.853 123.188ZM86.0216 123.665C85.7306 123.75 85.6368 123.993 85.74 124.396C85.7766 124.533 85.8415 124.664 85.9287 124.776C86.0158 124.887 86.1223 124.976 86.238 125.034C86.3537 125.092 86.4747 125.116 86.5896 125.105C86.7045 125.094 86.8094 125.048 86.8945 124.972C87.0728 124.822 87.0728 124.527 86.8945 124.087C86.7349 123.693 86.4439 123.553 86.0216 123.665ZM92.7935 124.606C92.8712 124.663 92.9646 124.7 93.0617 124.711C93.1589 124.723 93.2553 124.709 93.3385 124.671C93.4218 124.633 93.4882 124.574 93.529 124.5C93.5699 124.425 93.5834 124.34 93.5678 124.255C93.549 124.143 93.3895 124.021 93.0891 123.89C93.022 123.859 92.9463 123.852 92.8746 123.87C92.8029 123.888 92.7395 123.93 92.6949 123.988C92.526 124.222 92.5588 124.428 92.7935 124.606ZM100.128 124.508C99.8375 124.237 99.4574 124.251 98.9881 124.55C98.9391 124.582 98.8977 124.625 98.8673 124.674C98.8369 124.724 98.8183 124.78 98.8128 124.837C98.8074 124.894 98.8153 124.951 98.8359 125.004C98.8565 125.056 98.8894 125.103 98.9318 125.14C99.0538 125.252 99.2368 125.295 99.4809 125.266C99.6026 125.253 99.7264 125.216 99.838 125.161C99.9496 125.106 100.045 125.035 100.112 124.956C100.18 124.877 100.217 124.793 100.22 124.714C100.223 124.635 100.191 124.563 100.128 124.508ZM29.8614 127.008C29.8708 127.355 29.9646 127.687 30.143 128.005C30.2069 128.13 30.3208 128.232 30.4597 128.287C30.5986 128.342 30.7511 128.347 30.8837 128.301C31.0162 128.254 31.118 128.16 31.1665 128.039C31.2151 127.917 31.2065 127.779 31.1426 127.654C30.983 127.308 30.7765 127.003 30.5231 126.741C30.467 126.688 30.3965 126.652 30.3204 126.637C30.2443 126.623 30.1661 126.63 30.0954 126.659C30.0247 126.687 29.9648 126.735 29.9232 126.798C29.8816 126.86 29.8601 126.933 29.8614 127.008ZM47.3895 126.601C47.3466 126.609 47.3075 126.631 47.2775 126.663C47.2475 126.694 47.2281 126.734 47.2219 126.778C47.2157 126.821 47.2231 126.865 47.243 126.903C47.263 126.942 47.2944 126.974 47.3331 126.994C47.4645 127.069 47.6523 127.097 47.8963 127.078C47.9247 127.076 47.9516 127.064 47.9734 127.046C47.9953 127.028 48.0111 127.003 48.0187 126.976C48.0263 126.949 48.0254 126.92 48.0162 126.893C48.0069 126.866 47.9896 126.842 47.9667 126.825C47.7133 126.648 47.5209 126.573 47.3895 126.601ZM37.0275 128.637C36.4737 128.319 36.0373 128.029 35.7182 127.766C35.702 127.754 35.6848 127.742 35.6675 127.733C35.6502 127.724 35.6331 127.718 35.6174 127.714C35.6017 127.71 35.5875 127.709 35.5758 127.71C35.5641 127.712 35.5551 127.717 35.5492 127.724C35.5211 127.762 35.4882 127.781 35.4507 127.781C35.4292 127.775 35.4094 127.779 35.3937 127.792C35.3781 127.805 35.3673 127.826 35.3628 127.853C35.3582 127.88 35.3601 127.912 35.3683 127.944C35.3764 127.976 35.3904 128.007 35.4084 128.033C36.0185 128.942 36.4831 129.4 36.8022 129.41C36.8959 129.411 36.9881 129.381 37.0642 129.325C37.1402 129.269 37.1956 129.19 37.2215 129.101C37.2475 129.012 37.2425 128.918 37.2073 128.834C37.1721 128.75 37.1088 128.681 37.0275 128.637ZM41.1526 127.472L39.0126 128.595C38.9697 128.612 38.9351 128.645 38.9167 128.687C38.8982 128.729 38.8972 128.777 38.914 128.82C38.9308 128.863 38.964 128.897 39.0063 128.916C39.0485 128.934 39.0964 128.935 39.1393 128.918C40.2187 128.609 40.9742 128.249 41.406 127.837C41.445 127.8 41.4695 127.75 41.475 127.697C41.4805 127.643 41.4667 127.59 41.4361 127.546C41.4055 127.502 41.3601 127.47 41.3081 127.456C41.2561 127.443 41.2009 127.448 41.1526 127.472ZM47.2768 131.151C47.5302 131.208 47.9808 131.69 48.6284 132.598C48.7455 132.758 48.9159 132.87 49.1076 132.914C49.2993 132.958 49.4993 132.931 49.6702 132.837C50.4868 132.397 51.233 132.546 51.9087 133.286C52.2936 133.708 52.9881 134.953 53.9924 137.022C54.0663 137.168 54.1917 137.281 54.3432 137.338C54.4948 137.396 54.6612 137.393 54.809 137.331L54.9498 137.275C55.1214 137.203 55.2591 137.069 55.335 136.899C55.4108 136.729 55.4191 136.537 55.358 136.362C54.5039 133.946 52.2325 132.106 48.5439 130.842C47.9151 130.627 47.5959 130.519 47.5866 130.519C47.4927 130.519 47.3566 130.613 47.1783 130.8C47.1508 130.828 47.1308 130.862 47.1206 130.9C47.1105 130.938 47.1105 130.977 47.1207 131.014C47.131 131.05 47.151 131.082 47.1786 131.107C47.2062 131.131 47.2402 131.146 47.2768 131.151ZM37.8159 133.033C40.519 132.397 42.2554 132.958 43.025 134.719C43.0752 134.832 43.1524 134.932 43.2499 135.008C43.3475 135.085 43.4625 135.137 43.5847 135.159C43.707 135.181 43.8328 135.173 43.9512 135.136C44.0697 135.098 44.177 135.032 44.264 134.943L45.517 133.679C45.5911 133.609 45.6501 133.524 45.6903 133.429C45.7306 133.335 45.7514 133.234 45.7514 133.132C45.7514 133.029 45.7306 132.928 45.6903 132.834C45.6501 132.74 45.5911 132.655 45.517 132.584L44.3907 131.446C44.2056 131.263 43.9671 131.142 43.7092 131.102C43.4513 131.061 43.1872 131.103 42.9546 131.222C41.8096 131.811 40.1013 132.05 37.83 131.938C37.7666 131.938 37.7058 131.963 37.661 132.008C37.4264 132.223 37.2997 132.397 37.2809 132.528C37.2673 132.598 37.2718 132.671 37.294 132.739C37.3163 132.807 37.3556 132.869 37.4085 132.919C37.4614 132.969 37.5262 133.005 37.5973 133.025C37.6683 133.045 37.7434 133.048 37.8159 133.033ZM33.6204 133.23C32.8602 132.818 32.3299 132.603 32.0295 132.584C31.9141 132.578 31.7996 132.608 31.7023 132.67C31.6051 132.732 31.53 132.824 31.4879 132.931C31.4458 133.039 31.4387 133.157 31.4677 133.268C31.4967 133.38 31.5603 133.48 31.6494 133.553C31.7245 133.619 32.3299 133.689 33.4656 133.764C33.5324 133.773 33.6003 133.757 33.6568 133.721C33.7133 133.684 33.7547 133.628 33.7735 133.563C33.7922 133.499 33.7871 133.43 33.759 133.368C33.7309 133.307 33.6817 133.258 33.6204 133.23ZM58.9763 134.986C58.6665 134.714 58.4507 134.56 58.3287 134.522C58.2088 134.5 58.0848 134.52 57.9784 134.579C57.872 134.639 57.7899 134.734 57.7463 134.847C57.7027 134.961 57.7005 135.086 57.7401 135.201C57.7796 135.316 57.8583 135.414 57.9626 135.477C58.385 135.693 58.6102 135.8 58.6384 135.8C58.7362 135.808 58.8339 135.784 58.9176 135.733C59.0012 135.682 59.0664 135.606 59.104 135.515C59.1415 135.425 59.1493 135.325 59.1264 135.23C59.1035 135.135 59.0509 135.049 58.9763 134.986ZM41.1385 134.747C41.1009 134.691 40.9836 134.653 40.7865 134.634C40.7612 134.63 40.7353 134.631 40.7106 134.637C40.6858 134.643 40.6627 134.653 40.6428 134.668C40.6229 134.682 40.6066 134.701 40.595 134.721C40.5833 134.742 40.5767 134.765 40.5753 134.789C40.5566 134.92 40.6035 135.037 40.7161 135.14C40.7716 135.178 40.8386 135.197 40.9059 135.192C40.9732 135.187 41.0367 135.159 41.0861 135.113C41.1354 135.067 41.1675 135.006 41.177 134.939C41.1866 134.873 41.173 134.805 41.1385 134.747ZM48.1919 134.859C47.7227 134.681 47.3707 134.616 47.136 134.663C47.0477 134.683 46.9681 134.733 46.9108 134.804C46.8535 134.875 46.8222 134.963 46.8222 135.053C46.8222 135.143 46.8535 135.229 46.9108 135.296C46.9681 135.363 47.0477 135.407 47.136 135.421C47.3707 135.468 47.718 135.416 48.1779 135.267C48.2234 135.256 48.2642 135.231 48.294 135.195C48.3238 135.16 48.3408 135.115 48.3424 135.068C48.344 135.022 48.3301 134.976 48.3029 134.938C48.2757 134.9 48.2367 134.873 48.1919 134.859ZM37.5343 137.261C37.2246 136.924 36.7928 136.765 36.2391 136.783C36.1528 136.789 36.0836 136.829 36.0394 136.898C35.9952 136.966 35.9781 137.061 35.9899 137.17C36.0018 137.279 36.0421 137.399 36.1063 137.514C36.1704 137.63 36.2555 137.737 36.3517 137.823C36.4925 137.944 36.7365 138.033 37.0838 138.09C37.1852 138.102 37.2881 138.084 37.379 138.038C37.4699 137.991 37.5446 137.919 37.5933 137.829C37.6421 137.739 37.6625 137.637 37.652 137.536C37.6414 137.434 37.6004 137.339 37.5343 137.261ZM52.5564 137.387C52.2748 137.209 52.012 137.144 51.768 137.191C51.7065 137.204 51.6493 137.233 51.6019 137.274C51.5544 137.316 51.5183 137.368 51.4971 137.426C51.4759 137.483 51.4702 137.545 51.4806 137.605C51.4911 137.665 51.5173 137.72 51.5568 137.767C51.9134 138.197 52.2138 138.342 52.4578 138.202C52.5324 138.157 52.5967 138.095 52.6449 138.023C52.6931 137.951 52.7235 137.87 52.7333 137.789C52.7431 137.708 52.7321 137.628 52.7011 137.558C52.6702 137.488 52.6204 137.429 52.5564 137.387ZM65.889 139.368C66.3676 139.976 66.8604 140.519 67.3672 140.997C67.3796 141.003 67.3936 141.005 67.4073 141.004C67.4211 141.002 67.434 140.996 67.4446 140.987C67.4551 140.978 67.4627 140.966 67.4665 140.953C67.4703 140.94 67.47 140.926 67.4658 140.913C67.0903 140.257 66.6867 139.649 66.255 139.087C65.8139 138.525 65.3258 137.977 64.7908 137.443C64.7784 137.437 64.7645 137.435 64.7507 137.437C64.7369 137.438 64.724 137.444 64.7135 137.453C64.7029 137.462 64.6953 137.474 64.6915 137.487C64.6878 137.5 64.688 137.515 64.6923 137.528C65.0208 138.136 65.4197 138.75 65.889 139.368ZM61.0177 142.219C60.3795 140.046 59.2579 138.782 57.6529 138.427C56.3389 138.127 55.344 138.399 54.6682 139.241C54.5087 139.436 54.3111 139.595 54.0881 139.708C53.8651 139.822 53.6215 139.888 53.3729 139.901C52.6314 139.929 52.2044 139.981 52.0918 140.056C52.027 140.103 51.9776 140.168 51.9496 140.243C51.9215 140.317 51.9162 140.399 51.9342 140.477C51.9522 140.555 51.9928 140.625 52.0508 140.68C52.1089 140.735 52.1819 140.772 52.2607 140.786C52.7488 140.852 53.2697 140.697 53.8235 140.323C54.0235 140.187 54.2633 140.127 54.4992 140.154C57.0334 140.444 59.0373 141.24 60.5109 142.542C60.561 142.589 60.6257 142.619 60.6947 142.626C60.7636 142.632 60.8328 142.616 60.8911 142.578C60.9495 142.541 60.9936 142.486 61.0166 142.42C61.0395 142.355 61.0399 142.284 61.0177 142.219ZM62.6649 139.873C63.3407 139.283 62.6414 138.965 60.5672 138.918C60.5249 138.918 60.4839 138.933 60.4511 138.96C60.4184 138.986 60.396 139.024 60.3877 139.065C60.3794 139.106 60.3857 139.149 60.4056 139.187C60.4255 139.224 60.4577 139.253 60.4968 139.269L62.327 139.943C62.3815 139.965 62.4421 139.97 62.5019 139.958C62.5616 139.945 62.6182 139.916 62.6649 139.873ZM77.6306 139.578C77.931 139.354 78.0577 139.171 78.0108 139.031C77.9793 138.943 77.918 138.87 77.8375 138.825C77.7571 138.78 77.6625 138.765 77.5704 138.784C77.4782 138.802 77.3943 138.852 77.3333 138.926C77.2723 138.999 77.238 139.091 77.2364 139.185C77.2364 139.335 77.2927 139.461 77.4054 139.564C77.4337 139.589 77.4705 139.604 77.5108 139.606C77.551 139.609 77.5929 139.599 77.6306 139.578ZM45.1376 140.293C45.1173 140.222 45.0703 140.16 44.9992 140.109C44.9281 140.058 44.8343 140.021 44.7231 139.998C44.612 139.975 44.4857 139.968 44.3515 139.977C44.2172 139.986 44.0776 140.01 43.9407 140.049C43.6642 140.128 43.4153 140.26 43.2488 140.417C43.0822 140.574 43.0116 140.742 43.0525 140.886C43.0727 140.957 43.1198 141.019 43.1909 141.07C43.262 141.121 43.3558 141.158 43.4669 141.181C43.578 141.204 43.7043 141.211 43.8386 141.202C43.9728 141.193 44.1124 141.169 44.2493 141.13C44.5258 141.051 44.7747 140.919 44.9413 140.762C45.1078 140.605 45.1785 140.437 45.1376 140.293ZM70.6053 141.994L72.9424 142.865C73.0492 142.903 73.1665 142.9 73.2708 142.855C73.3752 142.811 73.4591 142.729 73.5056 142.626C73.637 142.345 73.6604 142.064 73.576 141.783C73.5554 141.711 73.5158 141.646 73.4613 141.594C73.4069 141.542 73.3395 141.506 73.2662 141.488C72.5529 141.32 71.68 141.32 70.6476 141.488C70.5927 141.501 70.5433 141.531 70.5064 141.574C70.4696 141.617 70.4473 141.67 70.4426 141.726C70.4379 141.782 70.4511 141.838 70.4804 141.886C70.5096 141.935 70.5533 141.972 70.6053 141.994ZM51.0922 142.219C50.9995 142.186 50.8988 142.184 50.8048 142.212C50.7107 142.24 50.628 142.298 50.5685 142.376C50.5091 142.454 50.476 142.549 50.4739 142.647C50.4719 142.744 50.501 142.841 50.5572 142.921C50.9608 143.464 51.4301 143.778 51.9651 143.862C52.0611 143.879 52.1603 143.866 52.2484 143.824C52.3365 143.782 52.409 143.713 52.4558 143.628C52.5026 143.542 52.5211 143.444 52.5089 143.348C52.4966 143.251 52.4541 143.161 52.3874 143.09C52.0401 142.696 51.6084 142.406 51.0922 142.219ZM57.2868 143.37C57.8218 144.279 58.4366 144.878 59.1311 145.168C59.2146 145.204 59.3074 145.213 59.3959 145.192C59.4844 145.171 59.5638 145.122 59.6223 145.053C59.6808 144.983 59.7153 144.897 59.7207 144.806C59.7261 144.716 59.702 144.626 59.6521 144.55C59.455 144.241 58.7933 143.731 57.667 143.019C57.6171 142.987 57.5579 142.973 57.4988 142.978C57.4397 142.983 57.384 143.008 57.3405 143.048C57.297 143.088 57.2681 143.142 57.2584 143.2C57.2487 143.258 57.2587 143.318 57.2868 143.37ZM66.5422 143.932C66.5045 143.746 66.3507 143.591 66.1144 143.502C65.8782 143.412 65.5789 143.395 65.2824 143.455C64.986 143.515 64.7166 143.646 64.5336 143.82C64.3506 143.993 64.2689 144.196 64.3065 144.382C64.3442 144.568 64.498 144.723 64.7343 144.812C64.9705 144.902 65.2698 144.919 65.5663 144.859C65.8627 144.799 66.1321 144.668 66.3151 144.494C66.4981 144.321 66.5798 144.118 66.5422 143.932Z" fill="#102247"/>
</svg>
