<svg width="181" height="181" viewBox="0 0 181 181" fill="none" xmlns="http://www.w3.org/2000/svg">
<path d="M87.3607 135.602C87.363 135.673 87.3447 135.742 87.308 135.802C87.2714 135.863 87.2181 135.911 87.1546 135.94C87.0912 135.97 87.0205 135.981 86.9512 135.97C86.882 135.96 86.8172 135.929 86.7651 135.882L81.7092 131.495C81.4765 131.293 81.2897 131.045 81.1618 130.766C81.0339 130.488 80.9678 130.186 80.9681 129.881C80.9504 121.248 80.9593 115.354 80.9945 112.197C81.1004 101.822 75.8593 95.7271 67.0579 91.0195C58.6006 86.4852 51.0566 82.2576 44.5051 75.6429C36.5508 67.6012 33.9567 57.6658 34.142 46.7835C34.1416 46.7014 34.1654 46.6211 34.2105 46.5527C34.2555 46.4843 34.3197 46.431 34.395 46.3995C34.4702 46.368 34.553 46.3599 34.6329 46.376C34.7128 46.3921 34.7861 46.4318 34.8434 46.4901C44.4654 56.3988 58.8256 57.9992 70.1682 61.2399C81.6695 64.5206 87.5724 75.3228 87.321 87.4854C87.0033 103.035 87.4268 119.039 87.3607 135.602Z" fill="#672275"/>
<path d="M94.7836 135.522C94.7042 118.959 95.1277 102.942 94.7968 87.3786C94.5453 75.216 100.435 64.4004 111.95 61.1064C123.292 57.8657 137.666 56.252 147.288 46.3299C147.345 46.2717 147.418 46.232 147.498 46.2158C147.578 46.1997 147.661 46.2079 147.736 46.2394C147.811 46.2708 147.876 46.3241 147.921 46.3925C147.966 46.4609 147.989 46.5412 147.989 46.6233C148.174 57.519 145.58 67.4544 137.626 75.5094C131.074 82.1375 123.53 86.3651 115.073 90.9127C106.272 95.6203 101.031 101.728 101.136 112.104C101.181 115.26 101.194 121.159 101.176 129.801C101.176 130.106 101.109 130.409 100.981 130.687C100.853 130.965 100.667 131.214 100.435 131.415L95.3792 135.802C95.327 135.849 95.2623 135.88 95.193 135.89C95.1238 135.9 95.0531 135.89 94.9896 135.86C94.9262 135.83 94.8728 135.782 94.8362 135.722C94.7996 135.662 94.7813 135.593 94.7836 135.522Z" fill="#EE8301"/>
</svg>
