<svg width="181" height="181" viewBox="0 0 181 181" fill="none" xmlns="http://www.w3.org/2000/svg">
<path d="M77.4531 51.7101C77.367 51.7133 77.2814 51.6961 77.2031 51.6597C77.1248 51.6234 77.056 51.5689 77.0022 51.5007C76.9483 51.4325 76.9109 51.3524 76.8929 51.2667C76.8748 51.181 76.8767 51.0921 76.8983 51.0071L81.892 32.4394C81.9276 32.3134 82.0035 32.2023 82.1082 32.123C82.2129 32.0438 82.3406 32.0006 82.4721 32H98.5632C98.7405 31.9992 98.9132 32.0565 99.0545 32.1632C99.1958 32.2698 99.2979 32.4199 99.345 32.5901L112.75 81.451C112.815 81.701 112.787 81.9655 112.671 82.1946C112.554 82.4237 112.358 82.6013 112.12 82.6939C110.026 83.5099 105.701 85.5061 103.746 88.4312C103.633 88.6006 103.571 88.7988 103.567 89.0031C103.562 89.2075 103.616 89.4095 103.721 89.5862C104.469 90.8249 105.512 91.6032 106.848 91.9213C111.228 92.9842 114.104 93.6244 115.474 93.842C115.628 93.8652 115.773 93.9281 115.897 94.0247C116.02 94.1214 116.118 94.2487 116.18 94.3944C116.735 95.7168 117.008 96.5203 117 96.8048C116.983 98.0268 116.264 98.9265 114.843 99.504C110.539 101.278 104.616 103.823 97.0752 107.137C95.5671 107.797 93.9191 108.085 92.2705 107.978C85.217 107.501 80.4334 107.242 77.9197 107.2C76.3476 107.175 74.952 106.723 73.733 105.844C73.3541 105.572 73.0989 105.162 73.0233 104.703C72.9477 104.244 73.0578 103.774 73.3295 103.396C74.7586 101.379 76.7133 99.8095 79.1934 98.688C88.626 94.4028 94.9187 91.4819 98.0714 89.9251C100.4 88.7785 102.25 87.4143 103.62 85.8325C103.813 85.61 103.953 85.3468 104.029 85.0627C104.106 84.7786 104.116 84.481 104.061 84.1922C104.005 83.9035 103.884 83.6311 103.707 83.3955C103.53 83.1599 103.302 82.9672 103.04 82.832C101.333 81.9448 99.24 81.405 96.7599 81.2125C88.109 80.5346 82.2829 79.9362 79.2816 79.4173C75.8642 78.8147 72.0936 75.2242 74.9688 71.8596C78.8277 67.3652 83.9349 65.0552 90.5303 61.3894C91.5475 60.8203 92.1864 60.1884 92.4471 59.4937C92.7237 58.7622 92.7163 57.9381 92.426 57.1531C92.1357 56.368 91.5793 55.6672 90.8455 55.1625C87.2389 52.6935 82.7748 51.5427 77.4531 51.7101Z" fill="#1E8126"/>
<path d="M72.0139 69.4232L76.2644 53.6853C76.3182 53.4838 76.4393 53.3063 76.6078 53.1819C76.7763 53.0575 76.9824 52.9936 77.1923 53.0005C80.1011 53.1126 87.6617 54.5942 88.7776 57.4704C89.0697 58.2191 89.0742 59.0552 88.7904 59.8347C88.5066 60.6142 87.9523 61.2883 87.2229 61.741C83.7623 63.8743 78.91 66.6093 72.6659 69.9461C72.5888 69.9881 72.5011 70.0062 72.4137 69.9981C72.3263 69.9901 72.2429 69.9563 72.1738 69.9008C72.1046 69.8453 72.0527 69.7706 72.0243 69.6858C71.9959 69.601 71.9923 69.5097 72.0139 69.4232Z" fill="#1E8126"/>
<path d="M90.2057 109.553C90.2742 109.555 90.3392 109.58 90.3903 109.624C90.4414 109.668 90.4754 109.729 90.487 109.797C90.4986 109.865 90.487 109.935 90.4541 109.997C90.4212 110.059 90.3689 110.109 90.3057 110.138L83.9265 112.977C83.7366 113.059 83.5626 113.177 83.4137 113.325C81.8377 114.894 82.1963 115.836 84.4894 116.151C87.3496 116.558 91.2814 116.969 96.2847 117.384C97.4021 117.475 98.1484 117.653 98.5236 117.919C98.6969 118.041 98.8321 118.209 98.9136 118.404C98.9951 118.599 99.0196 118.813 98.9843 119.021C98.949 119.229 98.8553 119.423 98.7141 119.58C98.5728 119.738 98.3898 119.852 98.1859 119.911C91.173 121.903 85.5276 123.973 81.2498 126.123C80.6744 126.413 80.3117 126.766 80.1616 127.181C80.1065 127.335 80.0852 127.499 80.0993 127.663C80.1133 127.826 80.1623 127.987 80.2431 128.134C80.324 128.281 80.4351 128.411 80.5695 128.517C80.7039 128.623 80.8588 128.702 81.0247 128.75C84.7521 129.829 87.1704 130.588 88.2794 131.028C88.3967 131.075 88.5005 131.15 88.5812 131.247C88.662 131.344 88.7172 131.46 88.742 131.583C88.7668 131.707 88.7604 131.834 88.7233 131.955C88.6862 132.075 88.6197 132.184 88.5296 132.273C87.2913 133.518 81.0997 135.584 75.6461 137.775C73.1695 138.771 71.6935 140.514 68.9667 140.028C68.7357 139.984 68.4956 140.029 68.2941 140.156C68.0925 140.283 67.9442 140.482 67.8785 140.713L65.552 149.365C65.5048 149.547 65.398 149.708 65.2485 149.823C65.099 149.938 64.9154 150 64.7265 150H50.4796C50.4061 150.001 50.3335 149.985 50.2675 149.952C50.2014 149.92 50.1437 149.873 50.0988 149.813C50.054 149.754 50.0232 149.685 50.009 149.612C49.9948 149.538 49.9975 149.462 50.0168 149.39L68.9042 79.2651C68.9201 79.2076 68.9502 79.1549 68.9916 79.1117C69.033 79.0686 69.0845 79.0363 69.1415 79.0178C69.1985 78.9993 69.2592 78.9951 69.3182 79.0057C69.3772 79.0163 69.4326 79.0413 69.4796 79.0784C72.1563 81.1947 74.8706 81.9416 78.473 82.0163C84.0391 82.1408 92.0569 82.0288 97.0727 84.4065C97.3507 84.538 97.5999 84.7227 97.8056 84.9499C98.0114 85.1771 98.1695 85.4422 98.2709 85.7297C98.3722 86.0172 98.4147 86.3214 98.3958 86.6243C98.3769 86.9272 98.297 87.2228 98.1609 87.4939C97.6272 88.5645 96.6808 89.4193 95.3215 90.0583C92.7865 91.2617 86.8076 93.9051 77.3848 97.9883C73.8575 99.5154 70.7679 101.516 68.1162 103.989C67.8329 104.251 67.6124 104.573 67.4712 104.931C67.33 105.289 67.2717 105.675 67.3005 106.059C67.3294 106.442 67.4447 106.815 67.6378 107.148C67.831 107.482 68.0971 107.768 68.4164 107.985C69.909 109.006 71.9645 109.475 74.5829 109.392C80.6869 109.201 85.8945 109.255 90.2057 109.553Z" fill="#1E8126"/>
<path d="M114.61 92.9917L107.506 91.0141C107.118 90.9081 106.769 90.6847 106.504 90.3721C106.239 90.0595 106.07 89.6718 106.017 89.2581C105.965 88.8443 106.032 88.4229 106.21 88.0473C106.388 87.6717 106.669 87.3587 107.017 87.1478L112.189 84.0547C112.245 84.0222 112.308 84.0036 112.372 84.0005C112.437 83.9973 112.501 84.0096 112.561 84.0364C112.621 84.0632 112.675 84.1038 112.718 84.1553C112.762 84.2067 112.794 84.2677 112.812 84.3335L114.989 92.5987C115.003 92.6517 115.004 92.7076 114.99 92.7609C114.977 92.8142 114.949 92.863 114.911 92.9027C114.873 92.9423 114.825 92.9713 114.772 92.987C114.719 93.0026 114.663 93.0042 114.61 92.9917Z" fill="#1E8126"/>
<path d="M121.539 115.887C118.733 111.403 105.794 109.371 99.3875 108.873C99.2944 108.868 99.2063 108.832 99.1372 108.769C99.0682 108.707 99.022 108.622 99.0061 108.528C98.9902 108.434 99.0055 108.337 99.0495 108.251C99.0935 108.166 99.1637 108.097 99.2491 108.055L116.845 100.07C116.949 100.023 117.062 99.9992 117.176 100C117.291 100.001 117.403 100.026 117.506 100.075C117.608 100.124 117.699 100.194 117.772 100.281C117.845 100.369 117.898 100.471 117.927 100.581L121.993 115.683C122.007 115.741 122 115.803 121.974 115.857C121.949 115.911 121.905 115.954 121.85 115.978C121.796 116.002 121.736 116.007 121.679 115.99C121.622 115.973 121.572 115.937 121.539 115.887Z" fill="#1E8126"/>
<path d="M78.2114 140C78.1645 139.998 78.1196 139.98 78.0831 139.95C78.0465 139.92 78.0202 139.88 78.0079 139.834C77.9955 139.788 77.9978 139.739 78.0143 139.694C78.0309 139.65 78.0609 139.612 78.1 139.585C82.1671 136.981 86.6548 134.732 91.5633 132.84C92.1243 132.622 92.4955 132.279 92.677 131.81C92.737 131.661 92.766 131.502 92.762 131.341C92.758 131.18 92.7212 131.022 92.6539 130.876C92.5865 130.73 92.4901 130.599 92.3706 130.491C92.2511 130.384 92.1111 130.303 91.9593 130.252C88.6842 129.155 86.3743 128.351 85.0297 127.84C84.8862 127.786 84.762 127.689 84.673 127.563C84.5841 127.436 84.5344 127.286 84.5304 127.13C84.5264 126.975 84.5683 126.822 84.6506 126.691C84.733 126.56 84.8521 126.457 84.9925 126.395L101.846 118.758C102.087 118.645 102.285 118.456 102.411 118.22C102.537 117.983 102.584 117.711 102.545 117.445C102.506 117.179 102.383 116.933 102.195 116.744C102.006 116.554 101.762 116.432 101.5 116.396L87.8263 114.574C87.7104 114.558 87.5996 114.515 87.5025 114.449C87.4053 114.383 87.3244 114.295 87.2658 114.194C87.2073 114.092 87.1727 113.978 87.1648 113.861C87.1568 113.744 87.1757 113.627 87.2199 113.519C88.1232 111.246 94.2733 109.411 96.5502 109.047C96.9361 108.989 97.3275 108.985 97.7134 109.035C103.814 109.901 110.447 111.007 115.396 114.637C121.781 119.335 114.976 124.699 110.422 126.86C101.784 130.943 91.1797 133.618 82.6414 139.749C82.408 139.912 82.1317 140 81.8495 140H78.2114Z" fill="#1E8126"/>
<path d="M91.0832 139.603C97.4263 134.24 105.399 131.546 112.239 128.419C116.717 126.368 120.096 123.284 122.376 119.166C122.405 119.111 122.45 119.066 122.505 119.036C122.56 119.007 122.621 118.995 122.683 119.002C122.744 119.009 122.802 119.034 122.849 119.075C122.897 119.115 122.931 119.169 122.948 119.23L130.983 149.301C131.004 149.384 131.006 149.471 130.988 149.555C130.971 149.639 130.936 149.718 130.884 149.785C130.832 149.853 130.766 149.907 130.69 149.945C130.615 149.982 130.532 150.001 130.448 150H116.306C116.101 150 115.902 149.932 115.738 149.806C115.574 149.679 115.455 149.502 115.398 149.301L113.11 140.709C113.056 140.509 112.939 140.332 112.777 140.206C112.616 140.08 112.418 140.011 112.214 140.01H91.22C91.1741 140.009 91.1295 139.994 91.0923 139.966C91.0551 139.939 91.0271 139.9 91.0122 139.856C90.9972 139.811 90.996 139.763 91.0087 139.718C91.0214 139.673 91.0474 139.633 91.0832 139.603Z" fill="#1E8126"/>
</svg>
