<svg width="181" height="181" viewBox="0 0 181 181" fill="none" xmlns="http://www.w3.org/2000/svg">
<path d="M41 88.623C72.0554 74.0279 102.803 55.6998 132.614 43C133.082 43.3716 133.545 43.7495 134 44.1356C102.843 61.2517 75.1094 85.5054 44.295 105C42.8823 99.9622 41.0769 93.6443 41 88.623Z" fill="#175195"/>
<path d="M138 48.2651C132.58 76.554 128.788 105.309 123.128 134.417C118.617 136.892 112.012 139.468 107 140C116.394 111.583 126.831 82.3946 136.817 47C137.217 47.4169 137.613 47.8379 138 48.2651Z" fill="#175195"/>
<path d="M61 128.469C85.7958 99.332 111.464 72.2386 134.579 45C135.061 45.4336 135.535 45.8734 136 46.3237C113.582 76.4149 97.283 106.234 77.3014 138C72.643 136.324 64.6678 132.066 61 128.469Z" fill="#175195"/>
<path d="M132 42.0883C96.4432 49.4024 70.9415 59.5862 45 66C46.114 62.7244 49.8107 55.5118 52.0595 52.5934C77.7956 48.183 101.81 45.0321 130.562 41C131.1 41.4079 131.477 41.6636 132 42.0883Z" fill="#175195"/>
</svg>
