<svg width="181" height="181" viewBox="0 0 181 181" fill="none" xmlns="http://www.w3.org/2000/svg">
<path fill-rule="evenodd" clip-rule="evenodd" d="M76.9719 96.7988H98.2839V113.756H89.7121V118.05H76.9719V96.7988Z" fill="#C53296"/>
<path fill-rule="evenodd" clip-rule="evenodd" d="M105.003 132.006H99.6743V127.154H91.7979V123.689H105.003V132.006Z" fill="#8FADCB"/>
<path fill-rule="evenodd" clip-rule="evenodd" d="M108.71 123.69H89.7122V113.758H98.2839V118.052H108.71V123.69Z" fill="#66C3B7"/>
<path fill-rule="evenodd" clip-rule="evenodd" d="M82.2992 127.154H99.6744V144.48H82.2992V127.154Z" fill="#FF4D00"/>
<path fill-rule="evenodd" clip-rule="evenodd" d="M128.401 112.601H112.638V104.978H98.2839V101.513H108.941V88.5762H128.401V112.601Z" fill="#F9A518"/>
<path fill-rule="evenodd" clip-rule="evenodd" d="M117.975 114.218H112.638V104.979H98.2839V118.051H117.975V114.218Z" fill="#98017E"/>
<path fill-rule="evenodd" clip-rule="evenodd" d="M117.975 112.602H112.648V114.218H117.975V112.602ZM117.975 118.051H108.71V119.28H117.975V118.051Z" fill="#FF0000"/>
<path fill-rule="evenodd" clip-rule="evenodd" d="M128.401 115.483H117.975V112.602H128.401V115.483Z" fill="#8FADCB"/>
<path fill-rule="evenodd" clip-rule="evenodd" d="M132.144 98.3965H128.401V109.717H132.144V98.3965Z" fill="#C4D4DA"/>
<path fill-rule="evenodd" clip-rule="evenodd" d="M135.372 100.861V82.6732H134.013V77.993H135.372V72.9668H112.727L112.73 88.5762H128.401V98.396H132.144V100.861H135.372Z" fill="#0480B7"/>
<path fill-rule="evenodd" clip-rule="evenodd" d="M98.2839 83.9688V101.513H108.941V88.5766H112.73V83.9688H98.2839Z" fill="#0F499E"/>
<path fill-rule="evenodd" clip-rule="evenodd" d="M98.2839 69.5547H72.9603V84.0138H71.6403V96.7997H98.2839V69.5547Z" fill="#CCEBDD"/>
<path fill-rule="evenodd" clip-rule="evenodd" d="M72.9603 84.0138H55.2023V76.9305H56.2598V69.5547H72.9603V84.0138Z" fill="#357579"/>
<path fill-rule="evenodd" clip-rule="evenodd" d="M56.2598 76.9301H30.6047V67.5645H56.2598V76.9301Z" fill="#FFB300"/>
<path fill-rule="evenodd" clip-rule="evenodd" d="M39.5667 38.5137H79.0005V69.5549H56.2598V67.565H39.5667V38.5137Z" fill="#4EBDD7"/>
<path fill-rule="evenodd" clip-rule="evenodd" d="M73.0938 36.4785V38.491H79.0077V69.5681H98.2985V58.6163H109.469V44.9966H91.2581V36.4785H73.0938ZM103.415 38.0698V43.1713H109.469V38.0698H103.415Z" fill="#4F53A2"/>
<path fill-rule="evenodd" clip-rule="evenodd" d="M73.0777 28H59.3562V44.8512H73.0777V28Z" fill="#4DAC26"/>
<path fill-rule="evenodd" clip-rule="evenodd" d="M91.2772 28.7207H101.298V44.9964H91.2772V28.7207Z" fill="#CCE968"/>
<path fill-rule="evenodd" clip-rule="evenodd" d="M98.2839 83.9692H112.73V66.5995H109.477V58.6211H98.2839V83.9692Z" fill="#B3E0AC"/>
<path fill-rule="evenodd" clip-rule="evenodd" d="M109.477 44.9961H123.489V66.6007H109.477V44.9961Z" fill="#8DD2C4"/>
<path fill-rule="evenodd" clip-rule="evenodd" d="M142.202 82.6744H134.013V77.9941H142.202V82.6744Z" fill="#F90033"/>
<path fill-rule="evenodd" clip-rule="evenodd" d="M135.372 77.9921H145.497V71.4199H135.372V77.9921Z" fill="#96D38C"/>
<path fill-rule="evenodd" clip-rule="evenodd" d="M129.02 72.9663H135.372V71.4204H145.497V72.9663H147.395V68.8316H136.01V66.6406H129.02V72.9663Z" fill="#8DC3D5"/>
<path fill-rule="evenodd" clip-rule="evenodd" d="M147.395 68.8327H136.01V62.7578H147.395V68.8327Z" fill="#FFD900"/>
<path fill-rule="evenodd" clip-rule="evenodd" d="M131.516 49.0156H123.489V66.5988H112.73V72.967H129.02V66.6413H131.516V49.0156Z" fill="#FFFF1A"/>
<path fill-rule="evenodd" clip-rule="evenodd" d="M131.516 52.3027H140.505V56.6847H138.507V62.7588H136.01V66.6427H131.516V52.3027Z" fill="#F64F95"/>
<path fill-rule="evenodd" clip-rule="evenodd" d="M138.507 56.6836H146.496V62.7577H138.507V56.6836Z" fill="#73147A"/>
</svg>
