<svg width="181" height="181" viewBox="0 0 181 181" fill="none" xmlns="http://www.w3.org/2000/svg">
<path d="M90.4989 152C124.464 152 152 124.464 152 90.4999C152 56.5337 124.464 29 90.4989 29C56.5355 29 29 56.5337 29 90.4999C29 124.464 56.5355 152 90.4989 152Z" fill="#ED1C24"/>
<path d="M38.8511 84.2477H93.6531C93.6531 84.2477 100.504 83.7975 103.244 86.9424C105.983 90.0877 110.674 94.1322 110.674 94.1322C110.674 94.1322 112.834 97.7274 118.771 94.1322C125.576 90.0131 132.473 85.5949 132.473 85.5949L128.361 82H148L119.228 102.218C119.228 102.218 113.747 107.158 108.465 102.218C102.143 96.3027 99.362 98.8488 94.5678 102.218C90.8492 104.829 79.4958 113 79.4958 113H46.6143L78.126 90.0876L32 90.2821" fill="white"/>
</svg>
