<svg width="181" height="181" viewBox="0 0 181 181" fill="none" xmlns="http://www.w3.org/2000/svg">
<path d="M33.0233 102.76C33.0132 102.772 32.9997 102.782 32.9844 102.788C32.969 102.794 32.9524 102.795 32.9364 102.792C32.9203 102.788 32.9055 102.781 32.8935 102.77C32.8815 102.759 32.8729 102.744 32.8685 102.729C31.4034 96.5851 31.1189 90.5034 32.0151 84.4837C34.0845 70.5988 41.7434 58.5534 53.4925 50.8061C68.6863 40.7904 88.4834 40.4013 104.137 49.7051C116.191 56.873 124.987 69.3208 127.189 83.3561C127.194 83.3904 127.192 83.4256 127.182 83.4589C127.172 83.4922 127.154 83.5229 127.131 83.5487C127.108 83.5745 127.079 83.5948 127.047 83.6082C127.015 83.6215 126.98 83.6275 126.945 83.6258C126.03 83.586 124.195 83.8469 124.726 85.2752C124.76 85.3678 124.818 85.4487 124.894 85.5096L125.676 86.1286C125.797 86.2234 125.876 86.3612 125.897 86.5135C125.919 86.6658 125.881 86.8209 125.791 86.9467L122.807 91.1608C122.787 91.1853 122.761 91.2031 122.731 91.2116C122.701 91.2201 122.669 91.2188 122.64 91.2079C122.611 91.1971 122.586 91.1772 122.569 91.1513C122.552 91.1253 122.544 91.0946 122.546 91.0635C122.767 88.3278 121.94 86.1316 120.065 84.4748C119.878 84.3081 119.748 84.0886 119.693 83.8469C117.291 72.683 111.676 64.0277 102.85 57.8812C94.254 51.891 84.6097 49.5886 73.9175 50.9742C72.0779 51.2129 69.9244 51.7966 67.9124 52.3096C67.1666 52.4983 66.3869 52.7547 65.5732 53.079C53.3893 57.9372 45.1836 66.5822 40.9562 79.0137C39.5471 83.1556 38.9354 88.0979 39.1211 93.8405C39.1298 94.0297 39.0754 94.2163 38.9664 94.3712L33.0233 102.76Z" fill="#00AEEF" fill-opacity="0.98"/>
<path d="M53.0549 66.6146C53.3615 66.1812 53.6991 65.9631 54.0676 65.9601C56.2461 65.9483 67.9495 65.9527 89.1778 65.9734C92.3616 65.9734 96.0672 66.0972 98.6718 68.0959C102.209 70.811 100.556 74.7598 97.8449 77.3466C95.4865 79.6018 92.5695 81.3618 89.0938 82.6264C85.7508 83.8439 82.2354 84.6369 78.5475 85.0054C78.5116 85.0086 78.4769 85.0197 78.4458 85.0379C78.4147 85.0561 78.3878 85.081 78.3672 85.1109C78.3466 85.1408 78.3326 85.1749 78.3264 85.2109C78.3201 85.2469 78.3216 85.2839 78.3308 85.3194L78.5696 86.2347C78.592 86.3226 78.6397 86.4017 78.7066 86.4623C78.7735 86.5229 78.8566 86.5622 78.9454 86.5752C80.838 86.8435 82.623 87.2149 84.3004 87.6896C90.4071 89.4141 87.4312 94.0572 85.1937 97.2233C82.0408 101.685 77.8886 104.922 72.8299 106.916C69.2349 108.336 66.4667 108.924 62.8009 109.866C62.5632 109.927 62.3193 109.957 62.0757 109.954L23.3218 109.773C23.2896 109.773 23.2579 109.765 23.2299 109.749C23.2019 109.733 23.1785 109.71 23.162 109.682C23.1455 109.655 23.1365 109.623 23.1358 109.591C23.1351 109.559 23.1428 109.527 23.1582 109.499L23.2289 109.366C23.303 109.223 23.4163 109.104 23.5555 109.023C23.6948 108.941 23.8544 108.901 24.016 108.906C25.7671 108.972 28.5352 109.255 29.5523 108.123C30.7595 106.784 32.8201 104.59 34.3899 102.362C41.4178 92.3886 48.4974 81.9749 55.6285 71.1205C56.7782 69.365 56.9197 67.2557 54.3727 66.8445C53.8774 66.7649 53.4824 66.7546 53.1876 66.8135C53.1623 66.8191 53.136 66.817 53.112 66.8073C53.088 66.7977 53.0675 66.781 53.0531 66.7595C53.0388 66.738 53.0313 66.7126 53.0316 66.6867C53.0319 66.6609 53.0401 66.6357 53.0549 66.6146ZM83.416 68.4408C80.6273 67.8365 78.0758 68.2861 75.7617 69.7895C74.8389 70.3879 73.7276 71.6674 72.4275 73.6278C69.2496 78.4182 67.2229 81.4605 66.3473 82.7547C66.0879 83.1409 66.0289 83.5727 66.1704 84.0503C66.4136 84.8551 67.1654 84.7445 67.8552 84.7578C70.7118 84.8109 73.1321 83.8631 75.116 81.9145C76.7138 80.3462 78.204 78.5199 79.5866 76.4357C80.9574 74.3662 82.3017 72.4648 83.5885 70.5014C83.9865 69.8942 84.0528 69.3075 83.7875 68.7415C83.7531 68.666 83.7017 68.5996 83.6372 68.5474C83.5727 68.4952 83.497 68.4587 83.416 68.4408ZM61.7264 90.2764C61.4139 90.7893 60.4072 92.2265 58.7062 94.5878C54.638 100.227 52.2855 103.55 51.6488 104.555C51.3569 105.015 51.211 105.405 51.211 105.727C51.2112 105.987 51.3208 106.239 51.5178 106.431C51.7147 106.623 51.9843 106.741 52.2723 106.761C53.9703 106.885 55.6418 106.701 57.2867 106.209C59.3916 105.581 60.1566 104.608 61.5186 102.821C61.9932 102.199 63.7 99.8087 66.6392 95.6491C67.6886 94.1662 68.2178 93.416 68.2266 93.3983C69.509 91.3686 68.9695 89.8696 66.4667 89.8917C64.9986 89.905 63.137 89.8342 62.1288 90.0067C62.0467 90.0205 61.9683 90.0516 61.899 90.0981C61.8296 90.1446 61.7708 90.2054 61.7264 90.2764Z" fill="#2E3192" fill-opacity="0.98"/>
<path d="M55.2921 68.799C55.3476 68.7991 55.4022 68.8127 55.4514 68.8384C55.5006 68.8642 55.5428 68.9015 55.5745 68.947C55.6062 68.9926 55.6264 69.0452 55.6334 69.1002C55.6405 69.1553 55.6341 69.2112 55.6149 69.2633L55.1904 70.3909C55.1412 70.5224 55.0493 70.6338 54.9292 70.7074C54.8091 70.7811 54.6676 70.8129 54.5271 70.7977C54.0289 70.7388 53.513 70.7329 52.9794 70.78C52.835 70.792 52.69 70.7657 52.559 70.7036C52.4281 70.6415 52.3159 70.5459 52.2337 70.4266C52.1516 70.3072 52.1025 70.1682 52.0913 70.0237C52.0801 69.8793 52.1074 69.7344 52.1702 69.6038C52.2409 69.4564 52.465 69.2442 52.8423 68.967C52.9887 68.8578 53.1655 68.7989 53.3464 68.799H55.2921Z" fill="#2E3192" fill-opacity="0.98"/>
<path d="M67.3298 83.5595C69.8415 79.6269 71.9891 76.3473 73.7726 73.7207C75.9394 70.5236 78.7075 68.7371 82.7094 69.6436C82.7516 69.6529 82.7909 69.6723 82.8239 69.7002C82.8569 69.7281 82.8826 69.7637 82.8987 69.8038C82.9148 69.8439 82.9209 69.8873 82.9165 69.9303C82.912 69.9733 82.897 70.0145 82.873 70.0505L81.4757 72.1818C81.4228 72.2625 81.3486 72.3265 81.2617 72.3664C81.1748 72.4064 81.0788 72.4206 80.9848 72.4074C79.6273 72.2261 78.4466 72.8098 76.9785 73.504C76.0794 73.9256 75.2864 74.5579 74.5995 75.401C72.3753 78.1294 70.8143 81.0169 68.9483 83.4622C68.9011 83.5246 68.8415 83.5759 68.7735 83.6126C68.7055 83.6492 68.6309 83.6704 68.5547 83.6745L67.436 83.7408C67.4145 83.7415 67.3931 83.7364 67.3743 83.7261C67.3554 83.7157 67.3397 83.7004 67.3289 83.6818C67.318 83.6632 67.3123 83.642 67.3125 83.6205C67.3127 83.599 67.3187 83.5779 67.3298 83.5595Z" fill="#2E3192" fill-opacity="0.98"/>
<path d="M101.452 74.1496L101.063 76.8868C101.042 77.0444 100.991 77.1962 100.912 77.3334C99.7303 79.4029 98.2887 81.207 96.5878 82.7459C96.5176 82.809 96.4358 82.8575 96.347 82.8886C96.2581 82.9197 96.1641 82.9328 96.0704 82.9272C94.6996 82.8476 92.3913 83.3561 91.9712 84.9436C91.8415 85.4271 91.6381 85.7277 91.361 85.8457C89.7514 86.5355 88.2833 87.1472 86.9568 87.6808C86.7487 87.7664 86.5164 87.7742 86.3023 87.7029L81.6062 86.1287C81.5856 86.1199 81.5633 86.1139 81.5399 86.111L80.4521 85.9032C80.3873 85.8923 80.3294 85.8577 80.2897 85.806C80.25 85.7544 80.2314 85.6894 80.2375 85.624C80.2436 85.5586 80.274 85.4974 80.3227 85.4525C80.3714 85.4076 80.4349 85.3822 80.5007 85.3814C84.0206 85.3548 87.62 84.1388 90.9498 82.5955C95.217 80.6189 98.7678 77.9658 101.164 74.0479C101.182 74.0162 101.211 73.9918 101.245 73.979C101.279 73.9662 101.317 73.9659 101.351 73.978C101.385 73.9902 101.414 74.0141 101.433 74.0454C101.451 74.0768 101.458 74.1137 101.452 74.1496Z" fill="#2E3192" fill-opacity="0.98"/>
<path d="M75.708 110.255L75.6417 110.144C75.6137 110.098 75.5988 110.045 75.5986 109.99C75.5984 109.936 75.613 109.883 75.6406 109.836C75.6683 109.789 75.708 109.751 75.7557 109.725C75.8034 109.699 75.8572 109.687 75.9114 109.689C78.2786 109.771 80.1977 108.741 81.6688 106.598C84.2836 102.78 88.4653 96.6839 94.2139 88.3087C94.8654 87.3594 95.3429 86.6166 95.6466 86.08C95.6919 85.9988 95.7153 85.9072 95.7145 85.8141C95.7136 85.7211 95.6885 85.6299 95.6416 85.5495C95.5947 85.4692 95.5277 85.4024 95.4471 85.3559C95.3666 85.3093 95.2753 85.2846 95.1823 85.2841H93.3604C93.3139 85.2836 93.2684 85.2694 93.2297 85.2433C93.1911 85.2172 93.161 85.1804 93.1434 85.1377C93.1259 85.0949 93.1216 85.0481 93.1311 85.0033C93.1406 84.9585 93.1635 84.9177 93.1968 84.8861C93.8291 84.2759 94.3686 84.1167 95.3415 84.1167C103.935 84.1019 110.494 84.1093 115.019 84.1388C116.027 84.1447 117.428 84.6738 119.22 85.7263C119.352 85.8023 119.47 85.901 119.569 86.0181C122.819 89.8785 119.857 95.2688 117.283 98.5588C114.099 102.636 110.236 105.809 105.693 108.079C104.066 108.89 102.165 109.586 99.9889 110.166C98.5886 110.541 96.5752 110.729 93.9485 110.732C86.4371 110.744 80.634 110.743 76.5393 110.728C76.3709 110.728 76.2056 110.684 76.0598 110.601C75.914 110.518 75.7928 110.399 75.708 110.255ZM99.8474 95.7066C97.6187 98.8948 95.5228 102.043 93.2057 105.329C92.0029 107.031 93.5992 108.353 95.3149 107.964C97.3402 107.504 98.9955 106.437 100.281 104.763C101.837 102.742 103.146 100.827 104.402 99.0275C106.631 95.8393 108.722 92.6908 111.044 89.4009C112.247 87.6985 110.65 86.3763 108.935 86.7654C106.909 87.2253 105.254 88.2925 103.969 89.9669C102.412 91.9878 101.103 93.9025 99.8474 95.7066Z" fill="#2E3192" fill-opacity="0.98"/>
<path d="M125.667 110.268L124.579 110.675C124.553 110.686 124.523 110.693 124.491 110.693L108.086 110.724C108.017 110.725 107.949 110.704 107.893 110.663C107.838 110.621 107.798 110.563 107.78 110.496C107.761 110.429 107.766 110.359 107.792 110.295C107.819 110.231 107.866 110.178 107.926 110.144C108.758 109.661 109.635 109.409 110.557 109.388C110.702 109.385 110.844 109.346 110.969 109.273C111.496 108.961 111.965 108.542 112.375 108.017C113.905 106.06 115.458 103.93 117.036 101.628C119.686 97.7569 122.992 92.9208 126.954 87.1192C127.087 86.9275 127.175 86.5458 127.219 85.9739C127.224 85.923 127.212 85.8719 127.185 85.8287C127.158 85.7855 127.117 85.7525 127.069 85.7351L125.734 85.2354C125.678 85.2151 125.629 85.1792 125.593 85.1319C125.557 85.0846 125.536 85.028 125.531 84.9688C125.526 84.9096 125.539 84.8503 125.567 84.798C125.595 84.7457 125.637 84.7026 125.689 84.6738C126.359 84.2935 127.103 84.1093 127.922 84.1211C131.773 84.18 139.287 84.2419 150.466 84.3068C151.058 84.3097 151.695 84.4483 152.376 84.7225C156.762 86.478 153.159 90.4091 151.045 92.3415C150.331 92.9959 149.039 93.7757 147.167 94.6807C145.248 95.6093 134.073 101.141 137.023 104.259C137.739 105.019 138.629 105.631 139.694 106.094C141.202 106.753 144.912 106.47 146.26 106.545C146.269 106.545 146.277 106.547 146.285 106.552C146.292 106.557 146.298 106.563 146.302 106.571C146.306 106.578 146.308 106.587 146.308 106.596C146.308 106.604 146.305 106.613 146.3 106.62L143.908 110.759C143.892 110.788 143.868 110.813 143.839 110.83C143.811 110.847 143.778 110.856 143.744 110.856C138.435 110.859 133.709 110.858 129.567 110.852C128.951 110.852 128.522 110.688 128.281 110.361C128.24 110.304 128.216 110.237 128.212 110.168C128.208 110.099 128.224 110.031 128.259 109.972L133.901 100.195C133.903 100.192 133.905 100.188 133.905 100.184C133.905 100.18 133.903 100.176 133.901 100.173C133.899 100.169 133.896 100.166 133.892 100.164C133.888 100.161 133.883 100.16 133.879 100.159H129.483C129.445 100.159 129.407 100.169 129.373 100.186C129.338 100.204 129.308 100.23 129.284 100.261C128.011 102.08 126.193 104.767 123.832 108.322C123.47 108.868 123.621 109.267 124.288 109.521C124.653 109.662 125.061 109.704 125.513 109.645C125.592 109.633 125.672 109.651 125.739 109.696C125.805 109.741 125.853 109.809 125.872 109.886C125.891 109.964 125.881 110.046 125.843 110.117C125.805 110.187 125.743 110.241 125.667 110.268ZM143.231 87.7824C139.406 86.1994 136.7 88.4988 134.816 91.5588C133.466 93.7432 132.427 95.3749 131.699 96.4539C131.679 96.4825 131.667 96.5161 131.665 96.5511C131.663 96.5861 131.671 96.621 131.688 96.6521C131.704 96.6832 131.73 96.7092 131.761 96.7273C131.791 96.7454 131.827 96.7548 131.862 96.7546C133.112 96.731 134.376 96.7207 135.652 96.7236C136.992 96.7325 138.513 94.9327 139.176 93.8538C140.7 91.3716 142.077 89.4613 143.306 88.1229C143.33 88.0978 143.347 88.0674 143.355 88.0343C143.364 88.0012 143.365 87.9665 143.358 87.933C143.35 87.8996 143.335 87.8684 143.313 87.8422C143.291 87.816 143.263 87.7955 143.231 87.7824Z" fill="#2E3192" fill-opacity="0.98"/>
<path d="M110.112 88.2557L109.329 89.7193C109.297 89.7776 109.25 89.8258 109.192 89.8586C109.134 89.8914 109.068 89.9075 109.002 89.9051C107.893 89.8638 106.925 90.2736 106.097 91.1344C104.514 92.7764 103.023 94.7088 101.626 96.9315C99.8985 99.6761 97.8349 102.823 95.4353 106.372C95.3549 106.492 95.2468 106.59 95.1203 106.658C94.9939 106.726 94.853 106.761 94.7101 106.762H94.4138C94.3862 106.761 94.3593 106.753 94.336 106.739C94.3127 106.724 94.2938 106.703 94.2815 106.678C94.2692 106.654 94.2639 106.626 94.2661 106.599C94.2684 106.571 94.2782 106.545 94.2944 106.523C95.509 104.872 96.3182 103.727 96.722 103.087C100.062 97.8277 102.824 93.7035 105.009 90.7143C106.058 89.2757 107.202 88.3132 108.44 87.8268C108.7 87.7236 109.198 87.7442 109.935 87.8887C109.974 87.8958 110.011 87.9121 110.042 87.9361C110.074 87.9602 110.099 87.9914 110.117 88.0272C110.134 88.063 110.142 88.1023 110.142 88.142C110.141 88.1817 110.13 88.2207 110.112 88.2557Z" fill="#2E3192" fill-opacity="0.98"/>
<path d="M134.012 94.9238C135.661 91.7577 137.248 88.9454 140.583 88.5297C140.627 88.525 140.672 88.5333 140.712 88.5535C140.752 88.5737 140.786 88.605 140.809 88.6437C140.832 88.6823 140.843 88.7267 140.841 88.7716C140.839 88.8165 140.825 88.8599 140.799 88.8967L139.605 90.5859C139.545 90.6694 139.46 90.7326 139.362 90.7672C136.943 91.5809 136.24 92.8544 134.807 95.0256C134.755 95.1059 134.682 95.1708 134.597 95.2135C134.511 95.2563 134.416 95.2753 134.321 95.2688L134.202 95.2599C134.163 95.2576 134.126 95.2458 134.094 95.2255C134.061 95.2052 134.034 95.177 134.015 95.1436C133.996 95.1102 133.986 95.0726 133.985 95.0342C133.985 94.9958 133.994 94.9579 134.012 94.9238Z" fill="#2E3192" fill-opacity="0.98"/>
<path d="M68.0097 90.8778C68.0434 90.8782 68.0764 90.8877 68.1052 90.9055C68.1339 90.9232 68.1573 90.9485 68.1727 90.9785C68.1882 91.0085 68.1952 91.0421 68.1929 91.0758C68.1907 91.1095 68.1793 91.1419 68.16 91.1697L66.3824 93.6769C66.3399 93.7371 66.2836 93.7861 66.2182 93.82C66.1528 93.8539 66.0802 93.8715 66.0065 93.8715H62.1594C62.0828 93.8716 62.0076 93.8897 61.9399 93.9243C61.8722 93.9589 61.8141 94.009 61.7703 94.0705C56.3431 101.72 53.6192 105.566 53.5985 105.607C53.5695 105.69 53.5165 105.761 53.4464 105.813C53.3763 105.865 53.2922 105.895 53.205 105.899L52.3692 105.948C52.3348 105.951 52.3002 105.945 52.2689 105.93C52.2375 105.916 52.2105 105.893 52.1904 105.865C52.1703 105.837 52.1579 105.804 52.1544 105.77C52.1508 105.736 52.1563 105.701 52.1702 105.669C52.4415 105.018 52.667 104.567 52.8468 104.316C55.3526 100.876 58.532 96.5291 62.385 91.2758C62.4752 91.1525 62.5932 91.0522 62.7291 90.983C62.8651 90.9139 63.0154 90.8778 63.1676 90.8778H68.0097Z" fill="#2E3192" fill-opacity="0.98"/>
<path d="M154.071 91.1564C154.083 91.1398 154.1 91.1286 154.12 91.1247C154.14 91.1208 154.161 91.1246 154.179 91.1354C154.196 91.1461 154.21 91.1631 154.217 91.1832C154.224 91.2033 154.224 91.2252 154.216 91.2448C152.946 94.5967 150.647 97.0169 147.318 98.5057C146.64 98.8123 144.969 99.5374 142.304 100.681C140.653 101.392 139.269 102.393 138.152 103.684C138.132 103.705 138.107 103.721 138.079 103.728C138.051 103.736 138.022 103.735 137.994 103.726C137.966 103.717 137.942 103.701 137.924 103.678C137.905 103.656 137.894 103.629 137.891 103.6C137.665 101.72 139.253 100.301 140.769 99.5979C141.268 99.365 143.509 98.2875 147.495 96.3654C150.054 95.1302 152.246 93.3939 154.071 91.1564Z" fill="#2E3192" fill-opacity="0.98"/>
<path d="M88.4972 94.4154C88.1052 95.1936 87.8472 95.6741 87.7234 95.8569C85.5478 99.023 83.1231 102.309 80.4493 105.713C79.8774 106.445 79.3128 107.055 78.7557 107.544C78.6086 107.677 78.4255 107.763 78.2295 107.792C76.5845 108.035 74.3912 108.424 74.2763 110.396C74.2712 110.489 74.2385 110.578 74.1825 110.651C74.1264 110.725 74.0497 110.779 73.9623 110.808C70.7254 111.869 67.776 113.005 64.7381 113.487C63.1727 113.735 62.5846 113.916 61.0944 113.912C49.6475 113.865 36.8268 113.865 22.6323 113.912C22.5029 113.913 22.3765 113.874 22.2701 113.8C22.1638 113.726 22.0829 113.621 22.0384 113.5C21.9938 113.378 21.9879 113.246 22.0214 113.121C22.0549 112.996 22.1262 112.885 22.2255 112.802L23.048 112.108C23.4534 111.769 23.9419 111.544 24.463 111.458C26.9481 111.039 28.5975 110.831 29.4112 110.834C32.1203 110.837 42.4028 110.809 60.2587 110.75C62.0687 110.744 63.6709 110.576 65.0653 110.246C67.1436 109.76 69.1011 109.201 70.9377 108.57C74.3691 107.391 77.5146 105.606 80.3741 103.215C83.3191 100.751 85.8514 97.7628 87.971 94.2517C88.0077 94.1916 88.0628 94.145 88.1281 94.1187C88.1935 94.0924 88.2655 94.0879 88.3336 94.1058L88.3646 94.1147C88.3945 94.1229 88.4221 94.1378 88.4456 94.1582C88.469 94.1785 88.4877 94.204 88.5004 94.2326C88.513 94.2613 88.5193 94.2925 88.5188 94.3241C88.5182 94.3556 88.5109 94.3868 88.4972 94.4154Z" fill="#2E3192" fill-opacity="0.98"/>
<path d="M180.557 114.071C180.56 114.07 180.563 114.071 180.565 114.073C180.567 114.074 180.568 114.077 180.567 114.08C180.567 114.083 180.565 114.086 180.562 114.088C180.559 114.091 180.556 114.093 180.552 114.093H147.459C147.421 114.093 147.384 114.083 147.351 114.064C147.318 114.045 147.291 114.019 147.271 113.986C147.251 113.954 147.241 113.917 147.239 113.879C147.238 113.841 147.247 113.804 147.264 113.77L155.812 97.7761C155.829 97.7428 155.855 97.7148 155.887 97.6953C155.919 97.6758 155.956 97.6655 155.993 97.6656H156.161C156.182 97.6655 156.202 97.671 156.22 97.6815C156.238 97.692 156.252 97.7071 156.262 97.7252C156.272 97.7432 156.277 97.7637 156.276 97.7843C156.276 97.805 156.269 97.8251 156.258 97.8425C156.087 98.093 156.017 98.3908 156.046 98.7357C156.599 105.232 161.786 109.012 167.592 111.064C170.722 112.173 173.069 112.846 174.631 113.085C177.24 113.486 179.216 113.815 180.557 114.071Z" fill="#ED1C24"/>
<path d="M127.104 109.379L125.787 108.057C125.763 108.035 125.748 108.005 125.744 107.973C125.74 107.94 125.747 107.908 125.765 107.88L129.842 101.667C129.88 101.609 129.932 101.561 129.994 101.528C130.056 101.495 130.125 101.477 130.195 101.477H131.451C131.477 101.478 131.503 101.485 131.526 101.498C131.548 101.511 131.567 101.531 131.58 101.553C131.593 101.576 131.6 101.602 131.6 101.628C131.599 101.654 131.593 101.68 131.579 101.703L127.153 109.37C127.15 109.375 127.147 109.378 127.142 109.381C127.138 109.383 127.134 109.385 127.129 109.386C127.125 109.387 127.12 109.387 127.116 109.385C127.112 109.384 127.108 109.382 127.104 109.379Z" fill="#2E3192" fill-opacity="0.98"/>
<path d="M108.068 108.411C108.028 108.424 107.984 108.421 107.945 108.404C107.907 108.386 107.877 108.354 107.86 108.315C107.844 108.276 107.843 108.233 107.858 108.193C107.873 108.153 107.902 108.12 107.939 108.101L112.64 105.391C112.661 105.377 112.687 105.372 112.711 105.375C112.736 105.379 112.759 105.392 112.775 105.412C112.792 105.431 112.801 105.456 112.801 105.482C112.801 105.509 112.793 105.534 112.777 105.554L111.123 107.553C111.077 107.605 111.019 107.642 110.955 107.659L108.068 108.411Z" fill="#2E3192" fill-opacity="0.98"/>
<path d="M106.511 109.401C105.587 110.467 107.024 111.462 107.891 111.847C108.221 111.994 108.685 112.066 109.283 112.063C112.001 112.055 117.029 112.053 124.367 112.059C125.083 112.062 125.813 111.702 126.556 110.98C126.576 110.96 126.601 110.945 126.628 110.935C126.655 110.925 126.683 110.92 126.711 110.921C126.74 110.922 126.767 110.928 126.793 110.94C126.819 110.951 126.842 110.968 126.861 110.989C127.521 111.702 128.06 112.058 128.479 112.055C134.077 112.037 139.205 112.038 143.863 112.059C144.042 112.059 144.218 112.01 144.372 111.917C144.976 111.549 145.448 111.018 145.787 110.326C145.838 110.221 145.911 110.13 146 110.056C146.089 109.983 146.193 109.93 146.304 109.901L146.636 109.817C146.69 109.803 146.748 109.805 146.802 109.823C146.855 109.841 146.902 109.875 146.936 109.92C146.971 109.965 146.991 110.019 146.995 110.075C146.999 110.132 146.986 110.188 146.958 110.237L144.986 113.651C144.946 113.722 144.888 113.781 144.817 113.822C144.747 113.863 144.666 113.885 144.584 113.885H76.0215C75.9828 113.885 75.9449 113.875 75.9114 113.855C75.878 113.836 75.8503 113.808 75.831 113.774C75.8118 113.741 75.8017 113.703 75.8018 113.664C75.8018 113.625 75.812 113.587 75.8314 113.554L75.9154 113.408C75.9489 113.349 75.994 113.298 76.0479 113.257C76.1018 113.216 76.1635 113.186 76.2294 113.169L80.5717 112.041C80.5982 112.035 80.6249 112.032 80.6513 112.032C85.0762 112.044 89.3714 112.072 93.5369 112.116C97.9765 112.167 102.245 111.188 106.343 109.18C106.372 109.166 106.406 109.162 106.438 109.17C106.47 109.177 106.498 109.196 106.518 109.222C106.538 109.248 106.548 109.28 106.547 109.313C106.545 109.346 106.533 109.377 106.511 109.401Z" fill="#2E3192" fill-opacity="0.98"/>
<path d="M114.104 114.349L114.427 114.363C114.456 114.363 114.486 114.363 114.515 114.363H114.882C114.909 114.366 114.935 114.367 114.962 114.367L115.329 114.354C115.353 114.354 115.376 114.355 115.4 114.358L115.767 114.345H121.807C121.834 114.345 121.861 114.352 121.885 114.365C121.908 114.378 121.928 114.397 121.942 114.421C121.956 114.444 121.963 114.47 121.964 114.497C121.964 114.525 121.957 114.551 121.944 114.575C117.322 122.903 110.863 129.341 102.567 133.89C92.3569 139.488 80.453 140.996 69.1372 138.529C55.6813 135.597 44.3257 126.753 37.5115 114.721C37.4959 114.692 37.488 114.66 37.4883 114.628C37.4886 114.596 37.4973 114.564 37.5134 114.536C37.5295 114.508 37.5525 114.486 37.5801 114.47C37.6077 114.454 37.6389 114.446 37.6707 114.447H45.8734C45.9853 114.447 46.0953 114.474 46.1939 114.525C46.2925 114.577 46.3768 114.652 46.4394 114.743C54.1557 125.692 66.1259 132.055 79.6173 132.152C92.9052 132.245 105.198 125.705 112.848 114.902C113.181 114.431 113.6 114.246 114.104 114.349Z" fill="#00AEEF" fill-opacity="0.98"/>
<path d="M114.426 114.363L114.104 114.35C114.216 114.229 114.323 114.233 114.426 114.363Z" fill="#2E3192" fill-opacity="0.98"/>
<path d="M114.883 114.363H114.516C114.524 114.283 114.567 114.239 114.644 114.23C114.824 114.212 114.903 114.257 114.883 114.363Z" fill="#2E3192" fill-opacity="0.98"/>
<path d="M115.329 114.354L114.962 114.367C114.947 114.273 114.988 114.221 115.086 114.212C115.248 114.195 115.329 114.242 115.329 114.354Z" fill="#2E3192" fill-opacity="0.98"/>
<path d="M115.768 114.345L115.401 114.358C115.392 114.27 115.434 114.221 115.529 114.212C115.688 114.195 115.768 114.239 115.768 114.345Z" fill="#2E3192" fill-opacity="0.98"/>
</svg>
