<svg width="181" height="181" viewBox="0 0 181 181" fill="none" xmlns="http://www.w3.org/2000/svg">
<path d="M35.7757 69.0402H64.6737C67.5069 69.0402 69.6427 69.9336 70.4822 73.9497C71.4172 78.4148 71.0327 81.5228 65.9962 81.8785L56.924 82.5247C63.6016 124.636 102.645 138.361 123.901 93.007C127.42 85.5 128.571 84.1329 132.425 85.0878C137.65 86.3818 138.363 89.0629 135.875 96.631C117.495 152.543 55.7239 158.148 43.6039 83.4813L36.2328 84.0132C30.2361 84.4421 30 79.3916 30 76.5827C30 71.0304 32.0667 69.0402 35.7757 69.0402Z" fill="#E41917"/>
<path d="M140.843 42C146.767 42 151.569 46.7928 151.569 52.7054C151.569 58.6172 146.767 63.4092 140.843 63.4092C134.92 63.4092 130.117 58.6172 130.117 52.7054C130.117 46.7924 134.92 42 140.843 42Z" fill="#E41917"/>
</svg>
