<svg width="181" height="181" viewBox="0 0 181 181" fill="none" xmlns="http://www.w3.org/2000/svg">
<path d="M43.5421 62.8893C42.4944 62.7613 41.9938 62.1386 42.04 61.0212C42.0611 60.5208 42.3058 59.8362 42.7742 58.9676C43.6353 57.375 44.6661 56.001 45.8667 54.8456C50.398 50.4937 55.6467 46.26 60.8807 43.2323C73.8646 35.722 89.5392 33.6937 104.374 36.4768C117.453 38.931 129.768 45.3913 138.265 55.7416C139.333 57.0425 140.507 58.8136 140.884 60.4477C141.443 62.885 139.901 64.7911 138.134 66.3576C135.042 69.0944 130.42 71.7131 126.249 70.9983C124.853 70.7594 123.571 70.0622 122.403 68.9067C120.192 66.7245 118.32 64.7215 116.199 62.9757C105.788 54.3965 92.3771 50.129 78.9513 50.2492C71.7357 50.3124 64.8636 51.7363 58.3352 54.5209C57.1908 55.0086 56.1481 55.5491 55.207 56.1422C52.4386 57.888 48.734 60.3844 45.4375 62.1661C44.8639 62.4767 44.3036 62.7121 43.7567 62.8724C43.6872 62.8919 43.6143 62.8976 43.5421 62.8893Z" fill="#773C8E"/>
<path d="M58.606 69.9697C59.6705 71.0829 57.9602 74.4248 57.2639 75.9577C54.609 81.8044 52.5179 88.0854 53.7612 94.5288C54.4659 98.1764 55.8481 101.632 57.4027 104.959C58.3388 106.96 59.2329 108.407 59.3402 110.18C59.437 111.818 58.6291 113.058 56.8473 112.585C56.4588 112.481 55.9596 112.241 55.3495 111.864C53.6062 110.788 52.0684 109.372 50.7361 107.618C47.4894 103.341 45.5218 98.4807 44.8332 93.0381C44.4713 90.1643 44.6565 87.358 45.5842 84.4083C46.6585 80.9884 48.0953 77.8391 49.8946 74.9604C50.8623 73.4099 52.0004 72.0549 53.3089 70.8953C54.3923 69.9338 57.3122 68.6203 58.606 69.9697Z" fill="#773C8E"/>
<path d="M41.8184 119.957V119.596C42.0624 117.292 45.26 119.299 46.2571 119.993C47.9541 121.169 49.1953 122.009 49.9807 122.512C52.6299 124.212 55.3317 125.666 58.0862 126.877C68.0387 131.252 79.0368 131.943 89.7004 130.13C92.8026 129.603 96.0598 128.705 99.472 127.438C107.411 124.49 114.974 120.058 120.932 114.173C121.636 113.478 122.164 112.607 122.768 111.778C122.869 111.64 123.006 111.534 123.164 111.47C123.551 111.313 124.108 111.106 124.836 110.85C126.83 110.146 128.488 110.309 130.478 111.181C135.268 113.279 142.45 117.492 139.301 123.933C137.34 127.941 133.798 131.374 130.161 134.056C124.984 137.874 119.18 140.911 112.748 143.169C109.715 144.234 106.907 144.969 104.325 145.372C94.947 146.833 85.3605 147.189 76.0643 145.189C69.5793 143.793 63.6273 141.301 58.2082 137.714C53.2238 134.412 48.7998 130.504 44.936 125.989C43.4845 124.294 42.2139 122.181 41.8184 119.957Z" fill="#773C8E"/>
</svg>
