<svg width="181" height="181" viewBox="0 0 181 181" fill="none" xmlns="http://www.w3.org/2000/svg">
<path d="M124.925 82.9395C122.657 82.9395 120.831 84.712 120.831 86.9139V109.096H129.018V86.9139C129.018 84.712 127.192 82.9395 124.925 82.9395ZM148.386 82.9395C146.016 82.9395 143.884 83.7247 142.062 85.5344V83.3817H134.462V109.096H142.062V92.4937C143.118 91.3323 144.722 90.0354 146.684 90.1052C147.777 90.1441 148.686 89.8988 150.486 90.9466L150.466 83.3817C149.788 83.0305 148.995 82.9395 148.386 82.9395ZM101.61 82.954C92.6256 82.954 89.168 91.0193 89.168 96.195C89.168 101.371 92.6256 109.436 101.61 109.436C103.943 109.436 106.384 108.567 107.861 106.804V109.096H115.461V83.3817H107.861V85.5857C106.384 83.8232 103.943 82.954 101.61 82.954ZM103.073 90.1604C103.997 90.1604 104.909 90.3728 105.738 90.7813C106.568 91.1898 107.294 91.7836 107.861 92.5172V99.9824C107.294 100.716 106.568 101.31 105.738 101.718C104.909 102.127 103.997 102.339 103.073 102.339C101.466 102.339 99.9245 101.698 98.7881 100.556C97.6517 99.4138 97.0133 97.8649 97.0132 96.25C97.0132 95.4503 97.1699 94.6584 97.4744 93.9196C97.779 93.1808 98.2253 92.5095 98.788 91.944C99.3507 91.3786 100.019 90.93 100.754 90.624C101.489 90.3179 102.277 90.1604 103.073 90.1604Z" fill="#00A4E1"/>
<path d="M124.918 71.1445C123.728 71.1464 122.588 71.6226 121.747 72.4685C120.907 73.3144 120.435 74.4609 120.435 75.6563C120.435 76.2488 120.551 76.8355 120.777 77.3829C121.002 77.9303 121.333 78.4277 121.75 78.8467C122.167 79.2656 122.662 79.5979 123.207 79.8247C123.751 80.0514 124.335 80.1681 124.925 80.1681C126.115 80.1681 127.257 79.6927 128.099 78.8466C128.941 78.0005 129.414 76.8529 129.414 75.6563C129.414 74.4598 128.941 73.3122 128.099 72.4661C127.257 71.62 126.115 71.1446 124.925 71.1445C124.922 71.1445 124.92 71.1445 124.918 71.1445ZM60.3368 71.7934V109.096H67.9372V92.4943C68.9931 91.3328 70.5973 90.0359 72.5591 90.1058C76.828 90.2577 77.2983 93.8922 77.2983 97.6253V109.096H84.8984V94.9122C84.8984 84.5028 77.7736 82.94 74.261 82.94C71.8916 82.94 69.759 83.7253 67.9372 85.5349V71.7934H60.3368ZM44.9919 82.9546C43.2517 82.9546 41.5285 83.299 39.9207 83.9683C38.3129 84.6375 36.8521 85.6184 35.6216 86.8549C34.391 88.0915 33.4149 89.5595 32.7489 91.1752C32.083 92.7908 31.7402 94.5225 31.7402 96.2713C31.7402 98.02 32.083 99.7517 32.7489 101.367C33.4149 102.983 34.391 104.451 35.6216 105.688C36.8521 106.924 38.313 107.905 39.9207 108.574C41.5285 109.243 43.2517 109.588 44.9919 109.588C47.2081 109.588 49.3888 109.029 51.3346 107.963C53.2804 106.898 54.9291 105.358 56.1298 103.487L49.9828 99.0771C49.5035 100.045 48.7868 100.856 47.9096 101.421C47.0324 101.986 46.028 102.284 45.0042 102.284C43.51 102.284 42.0769 101.649 41.0203 100.518C39.9638 99.3873 39.3702 97.8535 39.3701 96.2542C39.3701 94.6574 39.9618 93.1258 41.0154 91.9952C42.069 90.8647 43.4985 90.2276 44.9903 90.2237C44.995 90.2237 44.9996 90.2237 45.0042 90.2237C46.0399 90.2236 47.0557 90.5292 47.9397 91.1068C48.8238 91.6843 49.5421 92.5115 50.0155 93.4975L56.1541 89.0941C54.9556 87.2118 53.305 85.6628 51.3543 84.5899C49.4036 83.517 47.2157 82.9546 44.9919 82.9546Z" fill="#FF0000"/>
</svg>
