<svg width="181" height="181" viewBox="0 0 181 181" fill="none" xmlns="http://www.w3.org/2000/svg">
<path d="M10.0989 62.372C11.2217 62.2054 12.628 62.0962 14.3178 62.0444C15.0144 62.0222 16.3355 62.3331 18.281 62.9772C19.8078 63.4806 21.5494 63.8896 23.506 64.2042C24.8234 64.4097 26.9523 65.0149 28.4364 64.4874C31.0378 63.5602 32.8666 62.7551 35.3679 63.4214C40.0538 64.6706 44.6785 67.6133 48.7251 70.5448C58.093 77.3407 63.092 80.9534 63.722 81.3828C68.8858 84.9029 75.0892 88.8727 81.3592 88.5895C91.0977 88.1398 98.3961 82.9985 102.81 74.4869C104.129 71.944 105.557 68.9958 107.095 65.6422C107.61 64.5207 108.32 63.5213 109.224 62.6441C109.652 62.2309 110.224 62 110.819 62H171.947C171.991 62.0002 172.034 62.0157 172.069 62.0438C172.103 62.072 172.127 62.1111 172.136 62.1546C172.145 62.1981 172.139 62.2434 172.119 62.283C172.098 62.3226 172.065 62.354 172.024 62.372C164.057 65.9365 155.892 70.1506 147.528 75.0144C141.08 78.764 135.097 83.0151 129.579 87.7678C126.317 90.5772 121.959 95.5631 121.308 99.7828C120.08 107.711 128.373 111.159 135.138 111.659C138.751 111.929 142.175 111.874 145.41 111.492C154.096 110.467 162.577 108.544 170.851 105.724C170.893 105.71 170.938 105.711 170.98 105.727C171.021 105.743 171.055 105.772 171.077 105.81C171.099 105.847 171.107 105.891 171.099 105.933C171.091 105.975 171.069 106.013 171.035 106.04C153.153 121.531 127.784 123.152 105.861 116.406C89.0967 111.248 74.0886 102.215 59.8699 91.6932C51.4617 85.471 44.3987 80.3167 38.6808 76.2303C33.6448 72.6325 28.2938 69.6917 22.6278 67.4079C18.5775 65.7792 14.3937 64.1783 10.0766 62.6052C10.0521 62.5954 10.0315 62.5779 10.0178 62.5554C10.0041 62.5329 9.99805 62.5065 10.0006 62.4803C10.0031 62.4541 10.014 62.4294 10.0317 62.4098C10.0494 62.3903 10.073 62.377 10.0989 62.372Z" fill="#529FC9"/>
</svg>
