<svg width="181" height="181" viewBox="0 0 181 181" fill="none" xmlns="http://www.w3.org/2000/svg">
<path d="M91.8379 81C97.2028 81.005 101.297 84.7001 101.292 90.5084C101.288 96.3166 97.1869 100.005 91.822 100C86.4587 99.995 82.3644 96.2999 82.3691 90.4916C82.3739 84.6817 86.4746 80.995 91.8379 81ZM91.7624 84.6552C90.3219 84.6711 88.9466 85.3024 87.9389 86.41C86.9312 87.5177 86.3738 89.0111 86.3891 90.5617C86.3968 91.3295 86.5448 92.0882 86.8248 92.7945C87.1048 93.5008 87.5112 94.1409 88.021 94.6782C88.5307 95.2155 89.1337 95.6396 89.7956 95.9261C90.4575 96.2126 91.1652 96.356 91.8785 96.3482C93.319 96.3322 94.6943 95.701 95.702 94.5933C96.7097 93.4856 97.2671 91.9922 97.2518 90.4417C97.2441 89.6739 97.0961 88.9152 96.8161 88.2089C96.5361 87.5026 96.1297 86.8625 95.6199 86.3252C95.1102 85.7878 94.5072 85.3638 93.8453 85.0773C93.1834 84.7907 92.4757 84.6473 91.7624 84.6552Z" fill="#D22027"/>
<path d="M38.5128 81.6037C39.5314 81.6026 40.4541 81.606 41.2811 81.6138C41.3146 81.6143 41.3471 81.6253 41.3746 81.6453C41.402 81.6653 41.4231 81.6934 41.4351 81.7261L48.0324 99.3217C48.0361 99.3308 48.0375 99.3408 48.0365 99.3506C48.0355 99.3604 48.0323 99.3699 48.0269 99.3782C48.0216 99.3864 48.0144 99.3933 48.0059 99.398C47.9975 99.4028 47.988 99.4054 47.9784 99.4055H43.8635C43.8434 99.4057 43.8238 99.3991 43.8073 99.3868C43.7908 99.3745 43.7782 99.357 43.7713 99.3368L42.7628 96.4997C42.7537 96.475 42.7378 96.4536 42.7172 96.4384C42.6965 96.4232 42.6721 96.4148 42.6469 96.4143C42.4849 96.4098 41.1085 96.4081 38.5176 96.4092C35.9267 96.4092 34.5503 96.4115 34.3883 96.4159C34.3631 96.4165 34.3387 96.4249 34.318 96.4401C34.2974 96.4553 34.2815 96.4766 34.2724 96.5014L33.2655 99.3402C33.2586 99.3604 33.246 99.3779 33.2295 99.3902C33.213 99.4025 33.1934 99.409 33.1734 99.4089L29.0584 99.4106C29.0488 99.4104 29.0393 99.4078 29.0309 99.4031C29.0224 99.3983 29.0152 99.3915 29.0099 99.3832C29.0045 99.3749 29.0013 99.3655 29.0003 99.3556C28.9993 99.3458 29.0007 99.3359 29.0044 99.3268L35.5922 81.7277C35.6042 81.6951 35.6253 81.6669 35.6527 81.6469C35.6802 81.6269 35.7127 81.616 35.7462 81.6155C36.5731 81.6076 37.4953 81.6037 38.5128 81.6037ZM41.4526 93.175C41.4649 93.175 41.4771 93.1719 41.4881 93.1658C41.499 93.1598 41.5084 93.151 41.5154 93.1403C41.5225 93.1296 41.5269 93.1173 41.5284 93.1043C41.5299 93.0914 41.5284 93.0782 41.5241 93.0661L38.8988 85.6759C38.8933 85.6606 38.8835 85.6474 38.8707 85.6381C38.858 85.6288 38.8428 85.6239 38.8273 85.6239H38.1936C38.1781 85.6239 38.163 85.6288 38.1502 85.6381C38.1374 85.6474 38.1276 85.6606 38.1222 85.6759L35.4985 93.0661C35.4941 93.0782 35.4926 93.0914 35.4941 93.1043C35.4956 93.1173 35.5 93.1296 35.5071 93.1403C35.5141 93.151 35.5235 93.1598 35.5345 93.1658C35.5454 93.1719 35.5576 93.175 35.5699 93.175H41.4526Z" fill="#D22027"/>
<path d="M63.2744 90.4867C63.2744 91.0609 63.2702 91.5408 63.2617 91.9262C63.2609 91.9496 63.2515 91.9718 63.2355 91.988C63.2195 92.0043 63.1982 92.0134 63.176 92.0133H53.353C53.3282 92.0133 53.3044 92.0238 53.2868 92.0423C53.2692 92.0608 53.2593 92.086 53.2593 92.1122V95.7805C53.2593 95.7948 53.262 95.809 53.2671 95.8222C53.2722 95.8354 53.2797 95.8474 53.2891 95.8575C53.2985 95.8676 53.3097 95.8756 53.3221 95.8811C53.3344 95.8866 53.3476 95.8894 53.361 95.8894H63.5746C63.5861 95.8894 63.5974 95.8918 63.608 95.8964C63.6186 95.9011 63.6283 95.9079 63.6364 95.9164C63.6445 95.925 63.6509 95.9351 63.6553 95.9463C63.6597 95.9575 63.662 95.9695 63.662 95.9816V99.2309C63.662 99.2731 63.6461 99.3136 63.6178 99.3435C63.5895 99.3733 63.5511 99.3901 63.5111 99.3901H49.2476C49.2261 99.3901 49.2055 99.3811 49.1903 99.3651C49.1751 99.3491 49.1666 99.3273 49.1666 99.3047C49.1634 99.0756 49.1607 96.1391 49.1586 90.4951C49.1555 84.8499 49.1555 81.9129 49.1586 81.6838C49.1586 81.6612 49.1672 81.6394 49.1824 81.6234C49.1975 81.6074 49.2181 81.5984 49.2396 81.5984L63.5031 81.585C63.5432 81.585 63.5815 81.6017 63.6098 81.6316C63.6381 81.6614 63.654 81.7019 63.654 81.7442L63.6572 84.9935C63.6572 85.0179 63.648 85.0414 63.6316 85.0587C63.6152 85.076 63.593 85.0857 63.5699 85.0857L53.3562 85.0957C53.3429 85.0957 53.3296 85.0985 53.3173 85.104C53.305 85.1095 53.2938 85.1175 53.2843 85.1276C53.2749 85.1377 53.2674 85.1497 53.2623 85.163C53.2572 85.1762 53.2546 85.1903 53.2546 85.2046L53.2577 88.8729C53.2577 88.8991 53.2676 88.9243 53.2852 88.9428C53.3028 88.9614 53.3266 88.9718 53.3514 88.9718L63.1744 88.9617C63.1966 88.9617 63.2179 88.9708 63.2339 88.9871C63.2499 89.0033 63.2593 89.0255 63.2602 89.0489C63.2697 89.4343 63.2744 89.9136 63.2744 90.4867Z" fill="#D22027"/>
<path d="M81.7501 99.4047H77.8924C77.8711 99.4047 77.85 99.3986 77.8314 99.3872C77.8127 99.3757 77.7971 99.3592 77.786 99.3393L75.0019 94.25C74.9803 94.2107 74.9492 94.1781 74.9119 94.1555C74.8745 94.1329 74.8322 94.1209 74.7891 94.121H69.5354C69.5143 94.121 69.4941 94.1298 69.4792 94.1455C69.4643 94.1612 69.456 94.1825 69.456 94.2048V99.2874C69.456 99.3181 69.4444 99.3475 69.4239 99.3692C69.4033 99.3908 69.3755 99.403 69.3464 99.403H65.4061C65.3794 99.403 65.3538 99.3918 65.3348 99.3717C65.3158 99.3516 65.3049 99.3244 65.3045 99.2958L65.2949 81.8023C65.2949 81.7675 65.3033 81.7332 65.3195 81.7027C65.3356 81.6722 65.3588 81.6465 65.387 81.628C65.4061 81.6157 65.7015 81.609 66.2732 81.6079C70.6768 81.6001 73.6933 81.6057 75.3227 81.6247C76.1253 81.6336 77.0232 81.8336 78.0163 82.2246C80.4335 83.1764 81.5119 85.4873 81.4373 88.125C81.3748 90.4041 80.4341 92.0989 78.6151 93.2093C78.5913 93.2239 78.574 93.2479 78.5669 93.2761C78.5598 93.3043 78.5634 93.3345 78.5769 93.3602L81.8168 99.2807C81.8238 99.2931 81.8276 99.3073 81.8277 99.3218C81.8279 99.3363 81.8244 99.3505 81.8176 99.3631C81.8108 99.3757 81.801 99.3862 81.7892 99.3935C81.7773 99.4008 81.7639 99.4047 81.7501 99.4047ZM69.4576 85.2779V90.7376C69.4576 90.7625 69.4669 90.7863 69.4836 90.8039C69.5003 90.8215 69.5229 90.8314 69.5465 90.8314H74.6478C75.004 90.8314 75.3567 90.7629 75.6858 90.6297C76.015 90.4966 76.314 90.3014 76.5659 90.0554C76.8178 89.8094 77.0176 89.5173 77.1539 89.1959C77.2902 88.8744 77.3604 88.5299 77.3604 88.182V87.8334C77.3604 87.1308 77.0746 86.4569 76.5659 85.96C76.0572 85.4632 75.3672 85.184 74.6478 85.184H69.5465C69.5348 85.184 69.5233 85.1865 69.5125 85.1912C69.5017 85.1959 69.4919 85.2028 69.4836 85.2115C69.4754 85.2202 69.4688 85.2306 69.4643 85.242C69.4599 85.2533 69.4576 85.2655 69.4576 85.2779Z" fill="#D22027"/>
<path d="M107.865 81.6919C107.865 81.6807 107.867 81.6696 107.871 81.6592C107.875 81.6488 107.881 81.6394 107.888 81.6315C107.896 81.6235 107.905 81.6172 107.915 81.613C107.924 81.6087 107.935 81.6064 107.946 81.6064L117.1 81.6232C119.189 81.6269 121.19 82.4799 122.665 83.9947C124.14 85.5095 124.966 87.5619 124.963 89.7005L124.96 91.3427C124.958 92.4017 124.753 93.45 124.356 94.4277C123.958 95.4054 123.377 96.2934 122.644 97.041C121.912 97.7885 121.042 98.381 120.086 98.7846C119.13 99.1882 118.106 99.395 117.071 99.3932L107.917 99.3764C107.895 99.3764 107.875 99.3674 107.86 99.3514C107.844 99.3354 107.836 99.3136 107.836 99.2909L107.865 81.6919ZM111.981 85.2865L111.965 95.6964C111.965 95.7232 111.975 95.749 111.993 95.7681C112.011 95.7872 112.035 95.7982 112.061 95.7986L116.277 95.807C116.876 95.8081 117.469 95.6882 118.022 95.454C118.576 95.2198 119.079 94.876 119.503 94.4421C119.927 94.0083 120.263 93.4929 120.493 92.9255C120.723 92.358 120.842 91.7496 120.843 91.1349L120.846 89.8814C120.848 88.6401 120.37 87.4488 119.517 86.5695C118.664 85.6902 117.505 85.1949 116.296 85.1926L112.08 85.1842C112.067 85.184 112.054 85.1865 112.042 85.1915C112.03 85.1966 112.019 85.2041 112.01 85.2136C112.001 85.2231 111.994 85.2344 111.989 85.2469C111.984 85.2595 111.981 85.2729 111.981 85.2865Z" fill="#D22027"/>
<path d="M130.463 81.6162H126.657C126.577 81.6162 126.513 81.6845 126.513 81.7687V99.2504C126.513 99.3347 126.577 99.4029 126.657 99.4029H130.463C130.542 99.4029 130.607 99.3347 130.607 99.2504V81.7687C130.607 81.6845 130.542 81.6162 130.463 81.6162Z" fill="#D22027"/>
<path d="M136.404 81.7471V95.6745C136.404 95.7105 136.418 95.745 136.442 95.7705C136.466 95.7959 136.499 95.8102 136.533 95.8102H146.192C146.227 95.8102 146.259 95.8245 146.283 95.85C146.308 95.8754 146.321 95.9099 146.321 95.9459V99.2673C146.321 99.3033 146.308 99.3379 146.283 99.3633C146.259 99.3888 146.227 99.4031 146.192 99.4031H132.42C132.386 99.4031 132.353 99.3888 132.329 99.3633C132.305 99.3379 132.291 99.3033 132.291 99.2673V81.7471C132.291 81.7111 132.305 81.6765 132.329 81.6511C132.353 81.6256 132.386 81.6113 132.42 81.6113H136.276C136.293 81.6113 136.309 81.6148 136.325 81.6217C136.341 81.6285 136.355 81.6385 136.367 81.6511C136.379 81.6637 136.388 81.6787 136.395 81.6951C136.401 81.7116 136.404 81.7292 136.404 81.7471Z" fill="#D22027"/>
<path d="M151.867 81.6152H148.02C147.946 81.6152 147.887 81.6783 147.887 81.756V99.2645C147.887 99.3423 147.946 99.4053 148.02 99.4053H151.867C151.94 99.4053 152 99.3423 152 99.2645V81.756C152 81.6783 151.94 81.6152 151.867 81.6152Z" fill="#D22027"/>
</svg>
