<svg width="181" height="181" viewBox="0 0 181 181" fill="none" xmlns="http://www.w3.org/2000/svg">
<path d="M100.466 149C79.9878 149 64.2923 144.1 53.3752 134.291C42.4581 124.474 37 110.499 37 92.3663C37 74.6212 42.0847 60.4582 52.2588 49.8817C62.4418 39.2965 76.6785 34 94.9725 34C111.582 34 124.071 38.4894 132.443 47.4639C140.811 56.4291 145 69.2658 145 85.9774V98.1774H70.9048C71.229 103.222 72.292 107.435 74.0934 110.829C75.8949 114.213 78.2774 116.902 81.2454 118.896C84.1367 120.895 87.5191 122.334 91.3877 123.209C95.2518 124.076 99.4764 124.509 104.052 124.509C107.98 124.509 111.839 124.076 115.636 123.209C119.442 122.334 122.919 121.184 126.066 119.762C128.841 118.535 131.399 117.213 133.741 115.792C136.092 114.375 138.015 113.116 139.505 112.02H143.072V139.994C140.307 141.09 137.781 142.106 135.488 143.044C133.205 143.982 130.066 144.934 126.066 145.896C122.4 146.87 118.617 147.628 114.717 148.17C110.826 148.72 106.073 149 100.466 149ZM111.671 77.7658C111.477 70.5964 109.82 65.1414 106.699 61.3964C103.573 57.656 98.7949 55.7836 92.3593 55.7836C85.7884 55.7836 80.6493 57.7507 76.9388 61.6852C73.2368 65.6195 71.1965 70.9796 70.8137 77.7652L111.671 77.7658Z" fill="#0299D2"/>
</svg>
