<svg width="181" height="181" viewBox="0 0 181 181" fill="none" xmlns="http://www.w3.org/2000/svg">
<path d="M50.9372 62.0714C46.8031 61.4367 38.5349 60.1674 32.8975 59.152C31.5194 58.8982 30.7678 60.8021 31.8953 61.5636C39.5371 66.8946 54.1944 76.9218 60.834 78.318C60.834 78.318 59.8318 77.9373 58.8296 75.7795C58.0779 74.2564 55.6977 68.1639 54.4449 64.7368C53.8186 63.3406 52.5658 62.3252 50.9372 62.0714Z" fill="url(#paint0_linear_1511_95983)"/>
<path d="M56.8222 99.3905C67.4707 99.3905 79.3719 89.8709 84.383 85.1746C86.2621 83.3977 91.5237 78.8283 97.1611 74.005C109.939 62.9624 125.724 55.9814 142.386 54.0775L149.151 53.3159C150.028 53.189 150.654 52.5543 150.654 51.6658C150.654 50.6504 149.777 49.8889 148.9 50.0158L97.4116 54.966C93.1523 55.3467 89.1434 57.1237 85.8863 60.043C79.6225 65.7548 69.3498 75.0205 67.2201 76.6705C64.0882 79.0821 63.5871 80.3514 61.0816 80.3514C54.5673 80.3514 43.543 71.2126 43.543 71.2126C43.543 71.2126 45.4221 99.3905 56.8222 99.3905Z" fill="url(#paint1_linear_1511_95983)"/>
<path d="M71.2329 105.733C63.0899 105.733 57.2019 103.195 54.1953 100.275C54.1953 100.275 56.4503 101.799 61.2108 100.91C70.7318 99.0061 76.1186 94.9444 83.8857 88.4712C91.6529 82.1248 105.183 68.7974 120.216 61.9434C120.216 61.9434 105.684 78.317 97.6661 87.3288C89.7737 96.3406 82.5077 105.733 71.2329 105.733Z" fill="url(#paint2_linear_1511_95983)"/>
<path d="M66.3438 108.53C66.3438 108.53 76.7416 111.196 85.2604 102.564C85.2604 102.564 84.8846 105.611 87.6407 110.053C90.3967 114.496 105.305 140.262 105.305 140.262L66.3438 108.53Z" fill="#133B62"/>
<path d="M93.7812 116.27L108.814 142.543L116.581 149.524C117.333 150.159 118.335 150.159 119.087 149.524C119.839 148.89 119.839 147.747 119.212 146.986L93.7812 116.27Z" fill="#133B62"/>
<defs>
<linearGradient id="paint0_linear_1511_95983" x1="31.046" y1="61.085" x2="62.9234" y2="72.5365" gradientUnits="userSpaceOnUse">
<stop stop-color="#D7D8D7"/>
<stop offset="1" stop-color="#9CA09E"/>
</linearGradient>
<linearGradient id="paint1_linear_1511_95983" x1="47.5881" y1="90.9478" x2="142.526" y2="36.8482" gradientUnits="userSpaceOnUse">
<stop stop-color="#084974"/>
<stop offset="0.00731247" stop-color="#084A76"/>
<stop offset="0.1513" stop-color="#095B8B"/>
<stop offset="0.3073" stop-color="#0C689D"/>
<stop offset="0.4814" stop-color="#0A72AC"/>
<stop offset="0.6866" stop-color="#0979B6"/>
<stop offset="1" stop-color="#087CBA"/>
</linearGradient>
<linearGradient id="paint2_linear_1511_95983" x1="54.2318" y1="83.8356" x2="120.314" y2="83.8356" gradientUnits="userSpaceOnUse">
<stop offset="3.40978e-07" stop-color="#9CA09E"/>
<stop offset="0.6156" stop-color="#D7D8D7"/>
</linearGradient>
</defs>
</svg>
