<svg width="181" height="181" viewBox="0 0 181 181" fill="none" xmlns="http://www.w3.org/2000/svg">
<path d="M132 86.1472C129.379 82.5899 125.222 80.4622 120.781 80.4622H39.0469C40.3657 83.8698 46.5926 96.8689 65.6573 96.8689H74.2714L120.764 96.819C123.803 96.819 127.659 97.4008 130.597 101.789L145.221 125.826H153.001L132.05 86.1638H132.033L132 86.1472Z" fill="#EA0029"/>
<path d="M131.29 112.079C131.29 112.079 126.449 101.374 116.516 101.557H73.2617C73.2617 101.557 78.103 112.262 88.036 112.079H131.29Z" fill="#EA0029"/>
<path d="M138.942 125.809C138.942 125.809 135.603 116.584 128.809 116.75H99.1602C99.1602 116.75 102.499 125.976 109.293 125.809H138.942Z" fill="#EA0029"/>
<path d="M84.2515 140.87C56.3724 140.87 33.6684 118.279 33.6684 90.5191C33.6684 62.759 56.3724 40.1519 84.2515 40.1519C108.541 40.1519 128.841 57.2734 133.699 80.0467L139.976 91.3502C139.976 91.0676 140.01 90.7851 140.01 90.5025C140.026 59.8666 115.002 34.9656 84.2348 34.9656C53.4676 34.9656 28.4766 59.8666 28.4766 90.5025C28.4766 121.138 53.501 146.056 84.2682 146.056C99.2929 146.056 112.915 140.105 122.965 130.464H114.985C106.471 136.997 95.8205 140.87 84.2682 140.87" fill="#EA0029"/>
</svg>
