<svg width="181" height="181" viewBox="0 0 181 181" fill="none" xmlns="http://www.w3.org/2000/svg">
<path d="M106.981 62.2373L100.672 66.7784" stroke="#DF6D1D" stroke-width="2"/>
<path d="M78.0149 65.1658L74.7188 60.3276" stroke="#8A7E55" stroke-width="2"/>
<path d="M101.581 105.809C97.3088 112.788 90.9994 118.088 82.6529 121.709C79.3898 123.124 77.0367 123.412 75.5938 122.572" stroke="#19227C" stroke-width="2"/>
<path d="M106.979 62.2374L100.67 66.7785C95.7844 59.0356 87.57 55.9045 76.0264 57.3851C75.9682 57.402 75.9057 57.3951 75.8527 57.3659C75.7996 57.3368 75.7603 57.2877 75.7434 57.2295C75.7265 57.1714 75.7335 57.1089 75.7626 57.0558C75.7918 57.0028 75.8409 56.9635 75.899 56.9466C80.8786 54.6171 86.2968 53.7966 92.1535 54.4851C98.2082 55.183 103.15 57.7671 106.979 62.2374Z" fill="#FBD92E"/>
<path d="M157.919 58.1489C156.297 60.9122 154.015 63.6944 151.072 66.4954C149.705 67.7875 146.489 69.3059 141.424 71.0506C135.002 73.2669 130.456 74.9127 127.787 75.9878C119.384 79.3547 120.091 87.4182 114.475 93.1476C114.118 93.5139 113.709 93.8372 113.259 94.1096C110.929 95.5054 108.279 96.4957 105.308 97.0804C105.172 97.1144 105.028 97.0989 104.902 97.0367C104.775 96.9745 104.675 96.8695 104.619 96.7405C104.563 96.6115 104.555 96.4668 104.596 96.3322C104.636 96.1976 104.723 96.0817 104.841 96.0052C108.982 93.025 111.481 89.3941 112.339 85.1124C113.188 80.8684 113.806 78.4493 114.192 77.8551C116.673 74.1016 119.544 71.5741 122.808 70.2726C127.089 68.5561 138.628 64.3169 157.424 57.5548C157.504 57.5254 157.59 57.5213 157.672 57.5432C157.754 57.565 157.828 57.6118 157.882 57.6769C157.936 57.7421 157.969 57.8224 157.976 57.9069C157.982 57.9915 157.963 58.076 157.919 58.1489Z" fill="#19227C"/>
<path d="M78.0149 65.1657L74.7188 60.3276C82.6267 57.8944 93.6752 59.0968 98.2445 66.8774C98.2579 66.9101 98.2608 66.9461 98.2528 66.9804C98.2447 67.0148 98.2262 67.0457 98.1998 67.0691C98.1733 67.0924 98.1403 67.1069 98.1052 67.1106C98.0701 67.1143 98.0348 67.107 98.004 67.0896C92.1002 62.6193 85.4372 61.978 78.0149 65.1657Z" fill="#FBD92E"/>
<path d="M74.7235 60.3276L78.0196 65.1658C72.8231 67.4481 68.4141 71.0319 64.7926 75.9172C64.713 76.0228 64.609 76.1084 64.4887 76.1674C64.3684 76.2263 64.2351 76.2569 64.0994 76.2567H55.8095C55.7765 76.2557 55.7441 76.2464 55.7157 76.2298C55.6872 76.2131 55.6638 76.1898 55.6478 76.1623C55.6319 76.1348 55.624 76.104 55.6251 76.0733C55.6262 76.0426 55.6361 76.0131 55.6539 75.9879C60.5392 68.2356 66.8957 63.0155 74.7235 60.3276Z" fill="#19227C"/>
<path d="M24.8013 65.1094C24.7544 65.0606 24.6901 65.0325 24.6224 65.0312C24.5548 65.0298 24.4893 65.0554 24.4406 65.1023C24.3918 65.1492 24.3637 65.2136 24.3623 65.2812C24.361 65.3489 24.3866 65.4143 24.4335 65.4631C26.1594 67.8114 28.1823 69.3864 30.5024 70.188C33.4449 71.1877 37.9812 72.7203 44.1114 74.7857C44.4747 74.9081 44.8038 75.1141 45.0718 75.387C45.3397 75.6599 45.539 75.9919 45.6534 76.356L45.6675 76.4125C45.7077 76.5368 45.7139 76.6699 45.6856 76.7974C45.6573 76.925 45.5956 77.0423 45.5069 77.1368C45.4183 77.2312 45.3061 77.2993 45.1824 77.3337C45.0587 77.3681 44.9281 77.3675 44.8046 77.3321C35.7791 74.9554 29.4508 72.4043 25.8199 69.6788C24.3392 68.5659 23.3772 66.2411 22.934 62.7045C22.9204 62.5798 22.9391 62.4535 22.9881 62.3381C23.0371 62.2227 23.1147 62.1222 23.2133 62.0464C23.3119 61.9707 23.428 61.9224 23.5502 61.9063C23.6724 61.8903 23.7965 61.9069 23.9101 61.9547C24.6268 62.2471 31.8369 64.6001 45.5402 69.0139C49.4022 70.2588 51.9628 73.0457 52.8965 77.7848C53.4435 80.5386 55.0986 82.8492 57.8619 84.7166C57.9639 84.7884 58.0414 84.8898 58.0838 85.007C58.1262 85.1243 58.1316 85.2518 58.0992 85.3722C58.0668 85.4926 57.9981 85.6001 57.9025 85.6803C57.807 85.7604 57.6891 85.8092 57.5648 85.82C47.964 86.4613 39.2025 83.8442 31.2805 77.9687C31.2348 77.9309 31.2038 77.8785 31.1927 77.8203C31.1815 77.7622 31.191 77.7019 31.2195 77.65C31.248 77.5981 31.2936 77.5577 31.3487 77.5358C31.4037 77.514 31.4646 77.5119 31.5209 77.5301C35.9158 79.19 38.7216 80.2227 39.9382 80.6282C42.6449 81.5147 45.1064 81.991 47.3227 82.057C47.6289 82.0664 47.9305 82.1539 48.1998 82.3117L52.0194 84.5185C52.0832 84.5654 52.1629 84.5851 52.2412 84.5731C52.3195 84.5612 52.3898 84.5187 52.4367 84.4549C52.4836 84.3911 52.5032 84.3113 52.4913 84.233C52.4794 84.1548 52.4368 84.0845 52.373 84.0376C50.7415 82.472 49.4871 80.7791 48.61 78.9589C46.4173 74.4037 44.8329 73.371 40.2777 72.112C37.9859 71.4707 34.3974 70.3248 29.5121 68.6744C29.2314 68.5806 28.9728 68.4418 28.7482 68.2641L24.8013 65.1094Z" fill="#19227C"/>
<path d="M158.057 62.1812C152.738 75.097 135.946 79.7512 123.567 83.0049C123.455 83.0348 123.335 83.0191 123.233 82.9612C123.13 82.9033 123.052 82.8076 123.016 82.6937C122.893 82.3636 122.855 82.1656 122.902 82.0996C123.921 80.5529 125.189 79.4447 126.708 78.7751C128.028 78.1904 134.842 75.6016 147.15 71.0086C151.233 69.4808 154.454 66.3733 156.812 61.686C156.821 61.6666 156.836 61.6506 156.857 61.6404C156.877 61.6302 156.901 61.6264 156.925 61.6294L157.859 61.7992C157.899 61.8085 157.936 61.8263 157.968 61.8513C158 61.8764 158.027 61.9082 158.046 61.9445C158.065 61.9808 158.075 62.0208 158.077 62.0616C158.079 62.1025 158.072 62.1433 158.057 62.1812Z" fill="#19227C"/>
<path d="M106.981 62.2373C109.952 65.7551 111.989 69.9944 113.093 74.9551C113.131 75.1286 113.129 75.3084 113.089 75.4813C113.048 75.6542 112.969 75.8159 112.858 75.9543C112.747 76.0927 112.606 76.2044 112.446 76.2812C112.286 76.358 112.11 76.3979 111.933 76.398H105.567C105.172 76.3988 104.785 76.2773 104.459 76.0498C104.133 75.8222 103.883 75.4995 103.742 75.1249L100.672 66.7784L106.981 62.2373Z" fill="#C2000C"/>
<path d="M25.7367 70.2446C31.235 74.5924 37.832 77.2708 45.5278 78.2799C45.9961 78.344 46.4334 78.5626 46.7727 78.9024L48.1449 80.2746C48.2275 80.3541 48.2817 80.4578 48.2997 80.5704C48.3177 80.6831 48.2986 80.799 48.245 80.9014C48.1915 81.0037 48.1063 81.0873 48.0019 81.1399C47.8974 81.1925 47.7791 81.2115 47.6639 81.1941C42.109 80.3264 36.6343 78.6524 31.2397 76.1721C28.6556 74.9837 26.6374 73.1683 25.185 70.7256C25.1322 70.6512 25.109 70.5599 25.1198 70.4694C25.1305 70.3788 25.1746 70.2955 25.2433 70.2356C25.312 70.1757 25.4006 70.1434 25.4917 70.1451C25.5829 70.1468 25.6702 70.1822 25.7367 70.2446Z" fill="#19227C"/>
<path d="M155.097 70.8105C152.117 76.1862 146.93 80.2935 139.536 83.1322C130.294 86.6783 123.852 88.7626 120.212 89.385C120.107 89.4039 119.998 89.3919 119.9 89.3504C119.802 89.309 119.717 89.2399 119.658 89.1516C119.598 89.0632 119.565 88.9594 119.563 88.8527C119.561 88.746 119.589 88.641 119.646 88.5504L121.174 86.1737C121.357 85.8884 121.597 85.6442 121.88 85.4567C122.162 85.2692 122.481 85.1424 122.815 85.0844C131.548 83.5566 139.857 80.5481 147.741 76.0589C148.447 75.6544 149.105 75.1853 149.707 74.6584L154.56 70.372C154.623 70.3199 154.702 70.2913 154.784 70.291C154.866 70.2908 154.945 70.3189 155.008 70.3706C155.072 70.4224 155.115 70.4945 155.132 70.5747C155.148 70.6549 155.136 70.7383 155.097 70.8105Z" fill="#19227C"/>
<path d="M61.7397 87.1637L56.4913 78.9162C56.4531 78.8559 56.4319 78.7865 56.4298 78.7151C56.4278 78.6438 56.4451 78.5732 56.4799 78.5109C56.5147 78.4486 56.5657 78.3968 56.6274 78.3611C56.6892 78.3254 56.7595 78.307 56.8309 78.3079L75.3346 78.0957C75.7101 78.0957 76.0908 78.1481 76.4663 78.2513C86.8782 81.1372 85.8597 94.6472 75.4053 96.0336C75.3335 96.0414 75.2649 96.0675 75.206 96.1093C75.1471 96.1511 75.0998 96.2072 75.0687 96.2724C75.0375 96.3375 75.0235 96.4096 75.0279 96.4816C75.0324 96.5537 75.0552 96.6235 75.0941 96.6843L77.8244 100.957C77.8769 101.038 77.9491 101.106 78.0344 101.152C78.1197 101.199 78.2153 101.223 78.3125 101.223C78.4096 101.223 78.5053 101.199 78.5905 101.152C78.6758 101.106 78.748 101.038 78.8005 100.957L92.8481 79.0011C92.9072 78.9087 92.9899 78.8342 93.0879 78.785C93.1859 78.7358 93.2956 78.7137 93.4061 78.7208C93.5166 78.728 93.6239 78.7642 93.7172 78.8259C93.8104 78.8875 93.8864 78.9723 93.9374 79.0718L105.778 102.923C105.814 102.996 105.831 103.076 105.827 103.157C105.823 103.238 105.799 103.317 105.757 103.386C105.714 103.456 105.655 103.513 105.585 103.553C105.514 103.593 105.435 103.615 105.354 103.616H100.982C100.707 103.617 100.437 103.539 100.202 103.391C99.9668 103.244 99.7765 103.032 99.6526 102.782L93.4564 90.2901C93.431 90.2347 93.3912 90.1871 93.3412 90.1524C93.2911 90.1177 93.2327 90.0971 93.1719 90.0928C93.1111 90.0884 93.0503 90.1005 92.9958 90.1278C92.9414 90.155 92.8952 90.1964 92.8622 90.2476L82.224 106.884C82.1056 107.065 82.0415 107.277 82.039 107.495C82.0365 107.713 82.0957 107.928 82.2099 108.115L85.605 113.448C85.6538 113.523 85.6811 113.611 85.6841 113.7C85.6871 113.79 85.6657 113.879 85.6221 113.957C85.5785 114.036 85.5144 114.101 85.4366 114.146C85.3589 114.191 85.2704 114.214 85.1806 114.212H79.9888C79.6033 114.212 79.2232 114.114 78.8843 113.926C78.5453 113.738 78.2586 113.466 78.0508 113.137L63.6495 90.5164C63.6195 90.4651 63.6028 90.4069 63.6012 90.3474C63.5995 90.288 63.613 90.2296 63.6403 90.178C63.6675 90.1264 63.7075 90.0834 63.7564 90.0534C63.8052 90.0234 63.861 90.0075 63.9183 90.0071L74.6839 89.993C75.049 89.9932 75.4105 89.9198 75.7467 89.7772C76.0828 89.6345 76.3868 89.4256 76.6403 89.1628C76.8939 88.9 77.0919 88.5887 77.2224 88.2477C77.3529 87.9066 77.4133 87.5428 77.4 87.1778V86.9798C77.3963 86.2581 77.107 85.5673 76.5953 85.0583C76.0837 84.5493 75.3914 84.2636 74.6697 84.2636L63.0978 84.2495C62.8764 84.2495 62.6641 84.3359 62.5076 84.4898C62.3511 84.6437 62.2632 84.8524 62.2632 85.07V87.0081C62.2646 87.0702 62.2456 87.131 62.2091 87.1812C62.1725 87.2315 62.1205 87.2683 62.0609 87.286C62.0014 87.3037 61.9377 87.3013 61.8796 87.2792C61.8216 87.2571 61.7724 87.2165 61.7397 87.1637Z" fill="#19227C"/>
<path d="M111.063 96.5852C113.685 95.6987 115.727 94.4066 117.188 92.709C117.629 92.2043 118.22 91.8568 118.872 91.7187C127.407 89.8797 133.655 88.0123 137.616 86.1167C139.804 85.0698 142.817 83.6599 146.656 81.8869C146.695 81.8738 146.738 81.8737 146.778 81.8865C146.818 81.8994 146.852 81.9244 146.876 81.9575C146.899 81.9906 146.909 82.0297 146.905 82.0683C146.901 82.1069 146.883 82.1428 146.854 82.1698C137.046 90.6577 125.167 95.6987 111.219 97.2925C111.132 97.296 111.048 97.269 110.979 97.2163C110.911 97.1635 110.863 97.0884 110.845 97.004C110.826 96.9197 110.838 96.8315 110.878 96.7549C110.918 96.6783 110.983 96.6182 111.063 96.5852Z" fill="#19227C"/>
<path d="M81.1937 118.046C72.2153 122.374 64.2602 121.431 57.3284 115.216C55.4516 113.538 53.4664 110.52 51.3727 106.162C51.3396 106.09 51.3245 106.01 51.3289 105.93C51.3332 105.851 51.3568 105.774 51.3975 105.707C51.4382 105.639 51.4948 105.583 51.5621 105.544C51.6294 105.506 51.7053 105.485 51.7829 105.483H58.3469C58.5458 105.483 58.7413 105.54 58.9114 105.648C59.0814 105.755 59.2192 105.909 59.3089 106.092C63.2134 114.141 67.8676 118.725 77.2185 118.343C78.3785 118.286 80.6137 117.239 81.123 117.367C81.1936 117.387 81.2566 117.428 81.3038 117.484C81.351 117.54 81.3803 117.609 81.3879 117.682C81.3955 117.755 81.3811 117.829 81.3465 117.894C81.3119 117.958 81.2586 118.011 81.1937 118.046Z" fill="#19227C"/>
<path d="M101.589 105.809C97.3166 112.788 91.0072 118.088 82.6607 121.71C79.3976 123.124 77.0445 123.412 75.6016 122.573C84.8063 119.545 92.1342 114.113 97.5854 106.276C97.8318 105.921 98.2047 105.669 98.6322 105.568C99.4433 105.389 100.429 105.469 101.589 105.809Z" fill="#19227C"/>
<path d="M75.6008 122.573C77.0437 123.412 79.3968 123.125 82.6599 121.71C91.0064 118.088 97.3158 112.788 101.588 105.809L107.926 105.441C107.996 105.436 108.066 105.451 108.128 105.483C108.191 105.515 108.243 105.564 108.28 105.624C108.316 105.683 108.335 105.752 108.335 105.823C108.335 105.893 108.316 105.962 108.279 106.021C103.536 113.727 97.3818 119.687 89.8181 123.903C78.1896 130.382 63.6045 128.896 55.3853 117.777C55.3464 117.717 55.3297 117.645 55.338 117.573C55.3463 117.502 55.3791 117.435 55.4307 117.385C55.4824 117.335 55.5498 117.305 55.6215 117.299C55.6931 117.293 55.7646 117.312 55.8238 117.353C61.6711 121.842 68.2634 123.582 75.6008 122.573Z" fill="#19227C"/>
</svg>
