<svg width="181" height="181" viewBox="0 0 181 181" fill="none" xmlns="http://www.w3.org/2000/svg">
<g clip-path="url(#clip0_1519_106731)">
<mask id="mask0_1519_106731" style="mask-type:luminance" maskUnits="userSpaceOnUse" x="21" y="37" width="135" height="94">
<path d="M21.08 37.8066H155.602V130.713H21.08V37.8066Z" fill="white"/>
</mask>
<g mask="url(#mask0_1519_106731)">
<path fill-rule="evenodd" clip-rule="evenodd" d="M103.357 79.9863V80.6071L102.423 81.1327C101.033 81.9119 100.041 82.462 99.7371 82.6173C98.1996 83.4045 97.3907 83.2651 96.9055 83.1818C96.7327 83.152 96.1617 83.0683 95.4806 82.9707L98.6502 83.6948C99.0145 83.7884 99.7427 83.9047 100.093 83.7424C100.144 83.7189 101.24 83.2179 102.968 82.4291L103.357 82.2516V82.8455L103.185 82.9242C101.462 83.7106 100.37 84.2094 100.321 84.2323C99.8307 84.4589 99.0259 84.3499 98.5164 84.2192L92.15 82.7628C91.9218 82.7106 91.7811 82.6559 91.7105 82.6037C91.4975 82.4458 91.502 82.2862 91.6835 82.1311L91.6846 82.1312C91.7398 82.0843 91.8206 82.0522 91.9182 82.0355C92.1134 82.0021 92.4948 82.0053 92.8727 82.0577C93.5274 82.148 94.6159 82.3012 95.5177 82.4305C96.2601 82.537 96.8663 82.6254 96.9985 82.6481C97.4171 82.7201 98.1148 82.8399 99.4892 82.1365C99.7897 81.9828 100.779 81.4345 102.165 80.6569L103.357 79.9863Z" fill="black"/>
</g>
<mask id="mask1_1519_106731" style="mask-type:luminance" maskUnits="userSpaceOnUse" x="21" y="37" width="135" height="94">
<path d="M21.08 37.8066H155.602V130.713H21.08V37.8066Z" fill="white"/>
</mask>
<g mask="url(#mask1_1519_106731)">
<path fill-rule="evenodd" clip-rule="evenodd" d="M103.357 58.9746V59.5468L98.4967 62.5066C98.6059 62.4868 99.0399 62.5002 99.0399 62.5002L103.357 60.2019V60.7704L99.3919 62.8324C99.3244 62.8759 99.0316 63.0501 98.7225 63.0078C98.4945 62.9765 98.0411 62.9495 98.0399 62.9494L97.202 62.9042L103.357 58.9746Z" fill="black"/>
</g>
<mask id="mask2_1519_106731" style="mask-type:luminance" maskUnits="userSpaceOnUse" x="21" y="37" width="135" height="94">
<path d="M21.08 37.8066H155.602V130.713H21.08V37.8066Z" fill="white"/>
</mask>
<g mask="url(#mask2_1519_106731)">
<path fill-rule="evenodd" clip-rule="evenodd" d="M109.852 79.2891V79.883L109.839 79.8891C107.907 80.7695 106.099 81.5939 104.589 82.2828L103.357 82.8451V82.2512L104.376 81.7862C105.889 81.0956 107.7 80.2699 109.633 79.3888L109.852 79.2891Z" fill="black"/>
</g>
<mask id="mask3_1519_106731" style="mask-type:luminance" maskUnits="userSpaceOnUse" x="21" y="37" width="135" height="94">
<path d="M21.08 37.8066H155.602V130.713H21.08V37.8066Z" fill="white"/>
</mask>
<g mask="url(#mask3_1519_106731)">
<path fill-rule="evenodd" clip-rule="evenodd" d="M109.852 76.3047V76.9273L107.489 78.2716C106.228 78.9865 105.014 79.6734 103.933 80.2826L103.357 80.6068V79.9859L103.672 79.8086C104.751 79.2004 105.963 78.5147 107.223 77.8004L109.852 76.3047Z" fill="black"/>
</g>
<mask id="mask4_1519_106731" style="mask-type:luminance" maskUnits="userSpaceOnUse" x="21" y="37" width="135" height="94">
<path d="M21.08 37.8066H155.602V130.713H21.08V37.8066Z" fill="white"/>
</mask>
<g mask="url(#mask4_1519_106731)">
<path fill-rule="evenodd" clip-rule="evenodd" d="M109.852 65.459V66.7627L109.729 66.6333C109.607 66.4256 109.551 66.1894 109.612 65.9287C109.654 65.7533 109.729 65.6055 109.829 65.4791L109.852 65.459Z" fill="black"/>
</g>
<mask id="mask5_1519_106731" style="mask-type:luminance" maskUnits="userSpaceOnUse" x="21" y="37" width="135" height="94">
<path d="M21.08 37.8066H155.602V130.713H21.08V37.8066Z" fill="white"/>
</mask>
<g mask="url(#mask5_1519_106731)">
<path fill-rule="evenodd" clip-rule="evenodd" d="M109.852 55.0391V55.6523L108.004 56.6505C108.271 56.8419 108.52 57.0986 108.677 57.275L109.852 56.3291V56.9934L109.24 57.5038L109.852 58.1538V62.5929L106.561 59.103L103.357 60.7693V60.2007L106.453 58.553L106.451 58.5511C106.974 58.2363 107.628 58.0601 108.217 57.8146C107.871 57.6981 107.521 57.6711 107.191 57.6962C106.202 57.7714 105.391 58.3152 105.391 58.3152C105.391 58.3152 105.389 58.3134 105.386 58.3102L103.357 59.5458V58.9734L104.794 58.0561C104.658 57.8968 104.515 57.6928 104.523 57.5461C104.524 57.5323 104.528 57.5016 104.532 57.4882C104.561 57.3736 104.898 56.9808 105.406 56.6702C105.89 56.3739 106.554 56.1085 107.289 56.1478C107.425 56.1548 107.562 56.1723 107.7 56.2017L109.852 55.0391Z" fill="black"/>
</g>
<mask id="mask6_1519_106731" style="mask-type:luminance" maskUnits="userSpaceOnUse" x="21" y="37" width="135" height="94">
<path d="M21.08 37.8066H155.602V130.713H21.08V37.8066Z" fill="white"/>
</mask>
<g mask="url(#mask6_1519_106731)">
<path fill-rule="evenodd" clip-rule="evenodd" d="M112.234 78.2051V78.7992L109.852 79.8844V79.2905L112.234 78.2051Z" fill="black"/>
</g>
<mask id="mask7_1519_106731" style="mask-type:luminance" maskUnits="userSpaceOnUse" x="21" y="37" width="135" height="94">
<path d="M21.08 37.8066H155.602V130.713H21.08V37.8066Z" fill="white"/>
</mask>
<g mask="url(#mask7_1519_106731)">
<path fill-rule="evenodd" clip-rule="evenodd" d="M112.234 74.9453V75.5689L111.324 76.0893L109.852 76.9271V76.3044L111.055 75.62L112.234 74.9453Z" fill="black"/>
</g>
<mask id="mask8_1519_106731" style="mask-type:luminance" maskUnits="userSpaceOnUse" x="21" y="37" width="135" height="94">
<path d="M21.08 37.8066H155.602V130.713H21.08V37.8066Z" fill="white"/>
</mask>
<g mask="url(#mask8_1519_106731)">
<path fill-rule="evenodd" clip-rule="evenodd" d="M109.852 58.1543L110.268 58.5972C110.641 58.9782 111.039 59.3647 111.457 59.7225L112.234 60.293V64.5913L112.089 64.654L112.234 64.6495V65.0427L111.735 65.0853C111.043 65.3099 110.242 65.6205 110.141 66.0508C110.075 66.3314 110.359 66.5847 110.558 66.7325C110.86 66.9558 111.244 67.1954 111.674 67.4203L112.234 67.6626V68.1659L111.358 67.8204C110.937 67.6212 110.551 67.4 110.235 67.1662L109.852 66.7616V65.458L110.188 65.1577C110.462 64.9791 110.79 64.8628 111.088 64.7603C110.759 64.5755 110.373 64.3276 110.178 64.0867C109.89 63.7327 109.806 63.2387 110.115 62.8727L109.852 62.5934V58.1543H109.852Z" fill="black"/>
</g>
<mask id="mask9_1519_106731" style="mask-type:luminance" maskUnits="userSpaceOnUse" x="21" y="37" width="135" height="94">
<path d="M21.08 37.8066H155.602V130.713H21.08V37.8066Z" fill="white"/>
</mask>
<g mask="url(#mask9_1519_106731)">
<path fill-rule="evenodd" clip-rule="evenodd" d="M111.753 54.25L111.792 54.2524C111.793 54.2526 112.047 54.2589 112.229 54.3563L112.234 54.3632V54.986L112.225 55.0064L112.209 55.0272L109.852 56.9947V56.3303L111.699 54.8419L111.205 54.9225L109.852 55.6535V55.0404L111.02 54.409L111.753 54.25Z" fill="black"/>
</g>
<mask id="mask10_1519_106731" style="mask-type:luminance" maskUnits="userSpaceOnUse" x="21" y="37" width="135" height="94">
<path d="M21.08 37.8066H155.602V130.713H21.08V37.8066Z" fill="white"/>
</mask>
<g mask="url(#mask10_1519_106731)">
<path fill-rule="evenodd" clip-rule="evenodd" d="M116.151 76.4219V77.0158L113.01 78.4456L112.234 78.799V78.2049L112.803 77.9459C113.877 77.4568 114.959 76.9642 116.023 76.4805L116.151 76.4219Z" fill="black"/>
</g>
<mask id="mask11_1519_106731" style="mask-type:luminance" maskUnits="userSpaceOnUse" x="21" y="37" width="135" height="94">
<path d="M21.08 37.8066H155.602V130.713H21.08V37.8066Z" fill="white"/>
</mask>
<g mask="url(#mask11_1519_106731)">
<path fill-rule="evenodd" clip-rule="evenodd" d="M116.151 72.6973V73.3222L114.276 74.4023L112.234 75.5703V74.9469L113.995 73.9392C114.688 73.5416 115.341 73.1661 115.934 72.8234L116.151 72.6973Z" fill="black"/>
</g>
<mask id="mask12_1519_106731" style="mask-type:luminance" maskUnits="userSpaceOnUse" x="21" y="37" width="135" height="94">
<path d="M21.08 37.8066H155.602V130.713H21.08V37.8066Z" fill="white"/>
</mask>
<g mask="url(#mask12_1519_106731)">
<path fill-rule="evenodd" clip-rule="evenodd" d="M116.151 67.3867V67.5976L115.987 67.7658C115.899 67.8257 115.826 67.8509 115.798 67.8486L116.151 67.3867Z" fill="black"/>
</g>
<mask id="mask13_1519_106731" style="mask-type:luminance" maskUnits="userSpaceOnUse" x="21" y="37" width="135" height="94">
<path d="M21.08 37.8066H155.602V130.713H21.08V37.8066Z" fill="white"/>
</mask>
<g mask="url(#mask13_1519_106731)">
<path fill-rule="evenodd" clip-rule="evenodd" d="M116.003 66.0469L116.152 66.0491V66.5371L116.086 66.259C116.041 66.1288 116.003 66.0469 116.003 66.0469Z" fill="black"/>
</g>
<mask id="mask14_1519_106731" style="mask-type:luminance" maskUnits="userSpaceOnUse" x="21" y="37" width="135" height="94">
<path d="M21.08 37.8066H155.602V130.713H21.08V37.8066Z" fill="white"/>
</mask>
<g mask="url(#mask14_1519_106731)">
<path fill-rule="evenodd" clip-rule="evenodd" d="M113.275 64.6172C114.202 64.6499 115.18 64.8301 115.985 65.2402L116.151 65.3501V65.488L115.702 65.3803C114.914 65.3059 114.307 65.8414 114.409 66.8183C114.493 67.6109 115.05 67.9809 115.697 67.9846L116.151 67.8186V68.4127L115.984 68.5306C115.017 69.0323 113.802 68.7049 112.685 68.3432L112.234 68.1653V67.6622L113.061 68.02C114.024 68.3498 115.014 68.4979 115.725 68.2173C114.852 68.1817 114.41 67.8012 114.188 67.0528C113.951 66.2556 114.46 65.2829 115.329 65.2041C114.714 65.0432 114.055 64.9575 113.431 64.9401L112.234 65.0422V64.6491L113.275 64.6172Z" fill="black"/>
</g>
<mask id="mask15_1519_106731" style="mask-type:luminance" maskUnits="userSpaceOnUse" x="21" y="37" width="135" height="94">
<path d="M21.08 37.8066H155.602V130.713H21.08V37.8066Z" fill="white"/>
</mask>
<g mask="url(#mask15_1519_106731)">
<path fill-rule="evenodd" clip-rule="evenodd" d="M112.234 60.293L112.758 60.6778C113.206 60.9453 113.664 61.1509 114.125 61.2609C114.346 61.2543 115.418 61.2623 115.471 62.0379L115.892 62.0021C115.785 61.806 115.74 61.5547 115.893 61.2666L116.151 61.0013V63.0701L114.838 63.4605L112.234 64.5911V60.293Z" fill="black"/>
</g>
<mask id="mask16_1519_106731" style="mask-type:luminance" maskUnits="userSpaceOnUse" x="21" y="37" width="135" height="94">
<path d="M21.08 37.8066H155.602V130.713H21.08V37.8066Z" fill="white"/>
</mask>
<g mask="url(#mask16_1519_106731)">
<path fill-rule="evenodd" clip-rule="evenodd" d="M112.234 54.3633L112.404 54.5813L112.234 54.9861V54.3633Z" fill="black"/>
</g>
<mask id="mask17_1519_106731" style="mask-type:luminance" maskUnits="userSpaceOnUse" x="21" y="37" width="135" height="94">
<path d="M21.08 37.8066H155.602V130.713H21.08V37.8066Z" fill="white"/>
</mask>
<g mask="url(#mask17_1519_106731)">
<path fill-rule="evenodd" clip-rule="evenodd" d="M119.903 74.7168V75.3106L119.359 75.5575C118.352 76.0143 117.302 76.4916 116.236 76.9768L116.152 77.0151V76.4212L119.134 75.0659L119.903 74.7168Z" fill="black"/>
</g>
<mask id="mask18_1519_106731" style="mask-type:luminance" maskUnits="userSpaceOnUse" x="21" y="37" width="135" height="94">
<path d="M21.08 37.8066H155.602V130.713H21.08V37.8066Z" fill="white"/>
</mask>
<g mask="url(#mask18_1519_106731)">
<path fill-rule="evenodd" clip-rule="evenodd" d="M119.903 70.4199V71.0724L119.9 71.0747C119.73 71.1822 119.578 71.2777 119.476 71.3534C119.271 71.5048 118.014 72.2446 116.224 73.2791L116.152 73.3209V72.696L117.517 71.9037C118.427 71.3715 119.024 71.0146 119.152 70.9197C119.353 70.7711 119.582 70.63 119.807 70.4876L119.903 70.4199Z" fill="black"/>
</g>
<mask id="mask19_1519_106731" style="mask-type:luminance" maskUnits="userSpaceOnUse" x="21" y="37" width="135" height="94">
<path d="M21.08 37.8066H155.602V130.713H21.08V37.8066Z" fill="white"/>
</mask>
<g mask="url(#mask19_1519_106731)">
<path fill-rule="evenodd" clip-rule="evenodd" d="M116.151 66.0488L116.318 66.0512C116.396 66.0705 116.443 66.0966 116.443 66.0966C116.588 66.7617 116.455 67.2022 116.271 67.4752L116.151 67.5979V67.3869L116.173 67.3589C116.23 67.1668 116.23 66.957 116.205 66.7626L116.151 66.5369V66.0488Z" fill="black"/>
</g>
<mask id="mask20_1519_106731" style="mask-type:luminance" maskUnits="userSpaceOnUse" x="21" y="37" width="135" height="94">
<path d="M21.08 37.8066H155.602V130.713H21.08V37.8066Z" fill="white"/>
</mask>
<g mask="url(#mask20_1519_106731)">
<path fill-rule="evenodd" clip-rule="evenodd" d="M116.152 65.3516L116.725 65.7313C116.908 65.8572 117.063 65.9255 117.242 66.0105C117.952 66.3474 118.698 66.6518 119.459 66.9263L119.903 67.0677V69.7443L119.405 69.4521C118.963 69.1882 118.456 68.8757 117.989 68.5646C117.549 68.2722 117.144 67.979 116.854 67.7247C116.727 67.9151 116.59 68.0751 116.444 68.2084L116.151 68.4141V67.8199L116.314 67.7606C116.787 67.3377 116.844 66.4189 116.602 65.8831C116.519 65.7005 116.39 65.5841 116.233 65.5089L116.151 65.4893V65.3516H116.152Z" fill="black"/>
</g>
<mask id="mask21_1519_106731" style="mask-type:luminance" maskUnits="userSpaceOnUse" x="21" y="37" width="135" height="94">
<path d="M21.08 37.8066H155.602V130.713H21.08V37.8066Z" fill="white"/>
</mask>
<g mask="url(#mask21_1519_106731)">
<path fill-rule="evenodd" clip-rule="evenodd" d="M119.903 59.5273V60.1002L118.787 60.274C118.25 60.4095 117.761 60.5889 117.384 60.7996C116.88 61.0581 116.472 61.3332 116.373 61.5197C116.213 61.8191 116.696 62.0435 116.902 62.1632C117.836 62.0622 118.836 62.0226 119.842 62.0065L119.903 62.0062V62.3899L118.823 62.477C118.318 62.5356 117.81 62.6157 117.304 62.7284L116.152 63.0711V61.0023L116.35 60.799C116.567 60.6359 116.84 60.4708 117.135 60.319C117.715 60.0214 118.402 59.7605 118.941 59.6617C119.2 59.6142 119.497 59.5666 119.817 59.5318L119.903 59.5273Z" fill="black"/>
</g>
<mask id="mask22_1519_106731" style="mask-type:luminance" maskUnits="userSpaceOnUse" x="21" y="37" width="135" height="94">
<path d="M21.08 37.8066H155.602V130.713H21.08V37.8066Z" fill="white"/>
</mask>
<g mask="url(#mask22_1519_106731)">
<path fill-rule="evenodd" clip-rule="evenodd" d="M131.52 67.1895V68.3794L131.49 68.2849C131.406 67.9479 131.312 67.4247 131.312 67.4247C131.302 67.3092 131.366 67.2471 131.432 67.2139L131.52 67.1895Z" fill="black"/>
</g>
<mask id="mask23_1519_106731" style="mask-type:luminance" maskUnits="userSpaceOnUse" x="21" y="37" width="135" height="94">
<path d="M21.08 37.8066H155.602V130.713H21.08V37.8066Z" fill="white"/>
</mask>
<g mask="url(#mask23_1519_106731)">
<path fill-rule="evenodd" clip-rule="evenodd" d="M119.903 67.0664L121.773 67.6624C126.417 68.9706 130.914 69.3124 130.914 69.3124L128.346 68.4672C128.346 68.4672 129.297 68.6876 130.875 69.0129L131.52 69.1422V70.8534L131.519 70.8536C130.615 70.9476 129.404 71.0737 127.654 71.8202C127.044 72.0804 124.996 73.002 122.275 74.2343L119.903 75.3101V74.7165L122.044 73.7454C124.761 72.5149 126.813 71.5918 127.441 71.3241C128.009 71.0815 128.523 70.9018 128.988 70.7665C127.956 70.0225 126.274 69.7808 124.701 69.7457C123.128 69.7104 121.664 69.8819 121.066 69.9639C121.077 70.199 120.782 70.4708 120.433 70.7214L119.903 71.0726V70.4201L120.434 70.0471C120.33 69.9886 120.183 69.9056 120.007 69.8041L119.903 69.743L119.903 67.0664Z" fill="black"/>
</g>
<mask id="mask24_1519_106731" style="mask-type:luminance" maskUnits="userSpaceOnUse" x="21" y="37" width="135" height="94">
<path d="M21.08 37.8066H155.602V130.713H21.08V37.8066Z" fill="white"/>
</mask>
<g mask="url(#mask24_1519_106731)">
<path fill-rule="evenodd" clip-rule="evenodd" d="M129.511 66.9295C129.81 66.895 130.034 66.9464 130.05 67.1983C130.067 67.4502 130.188 67.896 130.213 68.1276C130.237 68.3595 130.181 68.4614 130.131 68.4958C130.082 68.5305 129.804 68.4954 129.739 68.4712C129.675 68.4473 129.595 68.4377 129.507 68.2208C129.42 68.0041 129.351 67.6275 129.268 67.2869C129.185 66.9463 129.511 66.9295 129.511 66.9295Z" fill="black"/>
</g>
<mask id="mask25_1519_106731" style="mask-type:luminance" maskUnits="userSpaceOnUse" x="21" y="37" width="135" height="94">
<path d="M21.08 37.8066H155.602V130.713H21.08V37.8066Z" fill="white"/>
</mask>
<g mask="url(#mask25_1519_106731)">
<path fill-rule="evenodd" clip-rule="evenodd" d="M127.41 66.7184C127.477 66.7044 127.566 66.7021 127.686 66.7186C127.686 66.7186 127.976 66.6652 128.023 67.0126C128.071 67.3599 128.225 67.863 128.254 67.9667C128.284 68.0705 128.274 68.202 128.178 68.207C128.082 68.2119 127.755 68.164 127.639 68.0585C127.524 67.9527 127.238 67.0707 127.223 66.9779C127.213 66.9085 127.209 66.7607 127.41 66.7184Z" fill="black"/>
</g>
<mask id="mask26_1519_106731" style="mask-type:luminance" maskUnits="userSpaceOnUse" x="21" y="37" width="135" height="94">
<path d="M21.08 37.8066H155.602V130.713H21.08V37.8066Z" fill="white"/>
</mask>
<g mask="url(#mask26_1519_106731)">
<path fill-rule="evenodd" clip-rule="evenodd" d="M125.438 66.4844C125.51 66.4473 125.647 66.444 125.894 66.5209C125.894 66.5209 126.106 66.6135 126.128 66.8576C126.151 67.1018 126.203 67.5466 126.203 67.5466C126.203 67.5466 126.219 67.7769 126.078 67.8212C125.937 67.8657 125.728 67.8168 125.682 67.7939C125.636 67.771 125.512 67.6552 125.477 67.4346C125.442 67.2137 125.387 66.764 125.368 66.6493C125.358 66.5918 125.366 66.5212 125.438 66.4844Z" fill="black"/>
</g>
<mask id="mask27_1519_106731" style="mask-type:luminance" maskUnits="userSpaceOnUse" x="21" y="37" width="135" height="94">
<path d="M21.08 37.8066H155.602V130.713H21.08V37.8066Z" fill="white"/>
</mask>
<g mask="url(#mask27_1519_106731)">
<path fill-rule="evenodd" clip-rule="evenodd" d="M123.87 66.2633C123.87 66.2633 124.118 66.2543 124.169 66.4048C124.22 66.5554 124.306 67.2344 124.282 67.3289C124.215 67.5804 123.883 67.5702 123.739 67.476C123.65 67.4176 123.533 66.5916 123.539 66.5584C123.545 66.525 123.5 66.2382 123.87 66.2633Z" fill="black"/>
</g>
<mask id="mask28_1519_106731" style="mask-type:luminance" maskUnits="userSpaceOnUse" x="21" y="37" width="135" height="94">
<path d="M21.08 37.8066H155.602V130.713H21.08V37.8066Z" fill="white"/>
</mask>
<g mask="url(#mask28_1519_106731)">
<path fill-rule="evenodd" clip-rule="evenodd" d="M122.038 66.1425C122.114 66.131 122.189 66.1492 122.189 66.1492C122.189 66.1492 122.344 66.2229 122.361 66.4963C122.374 66.6965 122.495 66.9967 122.511 67.1559C122.532 67.373 122.147 67.3736 122.074 67.2395C122.002 67.1069 121.86 66.5519 121.876 66.3141C121.883 66.1953 121.962 66.154 122.038 66.1425Z" fill="black"/>
</g>
<mask id="mask29_1519_106731" style="mask-type:luminance" maskUnits="userSpaceOnUse" x="21" y="37" width="135" height="94">
<path d="M21.08 37.8066H155.602V130.713H21.08V37.8066Z" fill="white"/>
</mask>
<g mask="url(#mask29_1519_106731)">
<path fill-rule="evenodd" clip-rule="evenodd" d="M127.535 63.0625C127.535 63.0625 128.95 63.1544 130.915 63.2832L131.52 63.323V63.5021L127.535 63.0625Z" fill="black"/>
</g>
<mask id="mask30_1519_106731" style="mask-type:luminance" maskUnits="userSpaceOnUse" x="21" y="37" width="135" height="94">
<path d="M21.08 37.8066H155.602V130.713H21.08V37.8066Z" fill="white"/>
</mask>
<g mask="url(#mask30_1519_106731)">
<path fill-rule="evenodd" clip-rule="evenodd" d="M131.52 55.4297V56.5069L130.796 57.9558C130.069 59.4472 129.341 60.9388 128.646 61.9503C129.375 61.971 130.182 61.9958 130.956 62.0196L131.52 62.0368V62.5573L128.332 62.407L127.416 62.3635L126.83 62.3361C125.595 62.2422 124.355 62.2864 123.099 62.2453C122.243 62.2957 121.301 62.3034 120.319 62.3548L119.903 62.3884V62.0047L122.817 61.9902C122.989 61.5959 123.269 60.9699 122.56 60.5921C122.32 60.4641 121.678 60.3974 121.611 61.1203C121.584 61.4122 121.583 61.6049 121.584 61.888C121.584 61.888 121.458 61.4239 121.53 60.9187C121.682 59.8356 123.896 60.3838 123.027 61.9889L123.25 61.9873C124.08 60.3968 122.368 59.8909 120.475 60.0095L119.903 60.0986V59.5259L120.83 59.4777C121.542 59.486 122.281 59.6028 122.916 59.9375C123.878 60.4446 123.855 61.2547 123.739 61.7267C124.691 61.7604 127.221 61.8545 128.001 61.9326L131.52 55.4297Z" fill="black"/>
</g>
<mask id="mask31_1519_106731" style="mask-type:luminance" maskUnits="userSpaceOnUse" x="21" y="37" width="135" height="94">
<path d="M21.08 37.8066H155.602V130.713H21.08V37.8066Z" fill="white"/>
</mask>
<g mask="url(#mask31_1519_106731)">
<path fill-rule="evenodd" clip-rule="evenodd" d="M149.195 68.1328C150.434 68.6436 151.659 69.418 152.902 70.2045C152.625 70.301 152.274 70.3864 152.005 70.3869C150.981 69.6255 150.223 68.7741 149.195 68.1328Z" fill="black"/>
</g>
<mask id="mask32_1519_106731" style="mask-type:luminance" maskUnits="userSpaceOnUse" x="21" y="37" width="135" height="94">
<path d="M21.08 37.8066H155.602V130.713H21.08V37.8066Z" fill="white"/>
</mask>
<g mask="url(#mask32_1519_106731)">
<path fill-rule="evenodd" clip-rule="evenodd" d="M131.567 67.1758C131.567 67.1758 131.875 67.2117 131.937 67.2265C131.999 67.2417 132.248 67.3188 132.273 67.598C132.298 67.877 132.413 68.4077 132.455 68.638C132.497 68.8685 132.311 68.875 132.311 68.875C132.311 68.875 132.001 68.8176 131.929 68.8136C131.856 68.8098 131.658 68.7113 131.568 68.5327L131.52 68.3786V67.1889L131.567 67.1758Z" fill="black"/>
</g>
<mask id="mask33_1519_106731" style="mask-type:luminance" maskUnits="userSpaceOnUse" x="21" y="37" width="135" height="94">
<path d="M21.08 37.8066H155.602V130.713H21.08V37.8066Z" fill="white"/>
</mask>
<g mask="url(#mask33_1519_106731)">
<path fill-rule="evenodd" clip-rule="evenodd" d="M141.06 66.4964C141.384 66.4405 141.616 66.691 141.616 66.691C141.616 66.691 142.175 67.4954 142.274 67.6199C142.373 67.7441 142.302 67.9039 142.133 67.9604C141.964 68.0172 139.813 68.068 139.501 68.0528C139.189 68.0378 139.236 67.7454 139.236 67.7454C139.236 67.7454 139.245 67.472 139.23 67.3579C139.215 67.2437 139.239 66.8099 139.504 66.7697C139.77 66.7294 141.06 66.4964 141.06 66.4964Z" fill="black"/>
</g>
<mask id="mask34_1519_106731" style="mask-type:luminance" maskUnits="userSpaceOnUse" x="21" y="37" width="135" height="94">
<path d="M21.08 37.8066H155.602V130.713H21.08V37.8066Z" fill="white"/>
</mask>
<g mask="url(#mask34_1519_106731)">
<path fill-rule="evenodd" clip-rule="evenodd" d="M144.15 65.1133C144.401 65.1107 144.639 65.3352 144.639 65.3352C144.639 65.3352 146.03 66.2099 146.576 66.5238C146.915 66.719 147.1 66.8151 146.68 67.0563C145.93 67.4873 144.25 67.7618 143.566 67.7952C142.827 67.8311 142.597 67.5682 142.597 67.5682C142.597 67.5682 141.943 66.7173 141.877 66.5514C141.811 66.3856 142.075 66.2506 142.075 66.2506C142.676 66.0191 143.588 65.4807 143.902 65.2084C143.981 65.1403 144.066 65.1143 144.15 65.1133Z" fill="black"/>
</g>
<mask id="mask35_1519_106731" style="mask-type:luminance" maskUnits="userSpaceOnUse" x="21" y="37" width="135" height="94">
<path d="M21.08 37.8066H155.602V130.713H21.08V37.8066Z" fill="white"/>
</mask>
<g mask="url(#mask35_1519_106731)">
<path fill-rule="evenodd" clip-rule="evenodd" d="M131.52 63.3223L132.153 63.3639C136.452 63.6471 142.256 64.0348 142.635 64.0891C143.24 64.176 143.681 64.3636 143.681 64.3636C143.58 64.6292 143.074 64.9141 143.074 64.9141C142.995 64.8233 142.408 64.7023 142.408 64.7023L131.52 63.5014V63.3223Z" fill="black"/>
</g>
<mask id="mask36_1519_106731" style="mask-type:luminance" maskUnits="userSpaceOnUse" x="21" y="37" width="135" height="94">
<path d="M21.08 37.8066H155.602V130.713H21.08V37.8066Z" fill="white"/>
</mask>
<g mask="url(#mask36_1519_106731)">
<path fill-rule="evenodd" clip-rule="evenodd" d="M132.233 49.8925C132.443 49.8197 132.757 50.0347 133.037 50.6502C133.372 51.386 134.187 53.1423 134.483 53.4617C134.812 53.8163 135 53.4995 134.928 54.2016C134.884 54.6289 133.869 60.879 133.619 62.0981C135.293 62.1336 142.915 62.3487 144.567 63.361C145.615 64.0034 146.35 64.4869 146.847 64.8132C147.196 65.043 147.426 65.1939 147.548 65.2593C147.759 65.3722 149.412 66.4571 150.898 67.4845C151.843 68.1378 152.729 68.7734 153.152 69.1324C153.718 69.6117 154.074 69.9557 154.197 70.2671C154.36 70.6816 154.193 70.9788 153.658 71.2746C153.184 71.5365 151.593 71.8813 149.567 72.0525C148.07 72.1794 146.325 72.2161 144.607 72.061C140.625 71.7014 133.705 70.6481 133.685 70.6449L133.66 70.6412L133.643 70.6356C133.642 70.6355 133.359 70.5373 132.44 70.7292L131.52 70.8545V69.1432L132.651 69.37C135.266 69.8802 138.807 70.5089 142.508 70.9826C145.678 71.3884 148.341 71.332 150.349 71.1346C150.754 71.095 153.812 70.7681 153.693 70.4637C153.612 70.2599 153.302 69.9694 152.801 69.544C152.397 69.2012 151.524 68.5761 150.588 67.9292C149.66 67.2874 148.677 66.6288 148.025 66.201C147.888 68.308 143.106 68.5209 140.358 68.3884L140.179 68.349C141.891 68.367 147.752 68.1823 147.747 66.0199C147.568 65.904 147.432 65.8175 147.353 65.7696C147.4 65.9364 147.377 66.194 147.347 66.3678C147.299 66.6456 146.922 66.5037 146.776 66.4103L144.668 65.0654C144.668 65.0654 144.28 64.8697 144.442 64.58C144.605 64.2904 144.577 64.0022 144.577 64.0022C144.482 63.9431 144.384 63.8828 144.283 63.8208C142.701 62.8513 135.28 62.6628 132.957 62.6261L131.52 62.5585V62.0379L132.08 62.0549C132.437 62.0657 132.772 62.0755 133.073 62.0838C133.506 60.0858 134.186 56.0803 134.395 54.0838C133.807 53.7649 133.006 51.8722 132.718 51.2505C133.013 52.4642 132.917 52.7879 132.948 53.9628C132.6 54.4685 132.244 55.094 131.884 55.7799L131.521 56.5081V55.4308L132.4 53.8047C132.388 52.4315 132.463 52.3796 132.062 50.8604C131.92 50.3255 132.024 49.9653 132.233 49.8925Z" fill="black"/>
</g>
<mask id="mask37_1519_106731" style="mask-type:luminance" maskUnits="userSpaceOnUse" x="21" y="37" width="135" height="94">
<path d="M21.08 37.8066H155.602V130.713H21.08V37.8066Z" fill="white"/>
</mask>
<g mask="url(#mask37_1519_106731)">
<path fill-rule="evenodd" clip-rule="evenodd" d="M64.8882 101.906H94.0237C94.1909 103.69 94.488 104.873 92.703 105.954C88.0838 108.442 88.0755 107.817 88.172 111.405C88.2061 112.68 89.8541 114.099 87.2125 115.196C84.0254 116.519 86.7112 117.288 85.4187 118.759C84.1451 120.208 83.0154 122.236 81.2949 124.06C76.9077 127.416 76.8333 124.996 74.2747 126.239C72.6502 127.027 71.021 126.781 70.4501 125.055C69.9094 123.519 70.5954 122.144 68.4318 119.291C66.2923 116.471 67.3237 113.656 66.1931 111.687L63.8467 107.457C63.4267 106.456 64.2685 104.309 64.8882 101.906Z" fill="#2565AE"/>
</g>
<mask id="mask38_1519_106731" style="mask-type:luminance" maskUnits="userSpaceOnUse" x="21" y="37" width="135" height="94">
<path d="M21.08 37.8066H155.602V130.713H21.08V37.8066Z" fill="white"/>
</mask>
<g mask="url(#mask38_1519_106731)">
<path fill-rule="evenodd" clip-rule="evenodd" d="M103.624 101.584C104.034 101.872 104.184 102.422 104.264 102.936C104.3 103.168 104.934 105.009 104.518 104.642C104.248 104.405 104.135 104.419 103.761 104.381C103.786 105.866 104.204 105.283 103.746 106.253C103.462 106.853 101.973 113.456 101.174 115.034C100.95 115.478 99.6879 115.995 98.7724 115.535C98.4402 115.189 97.9386 114.679 97.953 114.168C97.9903 112.847 97.4479 112.685 97.5815 112C97.6604 111.594 98.6361 110.678 98.8001 109.715C99.0202 108.421 97.8415 107.515 98.7367 106.016C99.1239 105.368 100.351 105.637 100.918 105.067C101.616 104.365 102.505 104.173 102.553 102.99C103.283 103.007 103.45 102.254 103.624 101.584Z" fill="#2565AE"/>
</g>
<mask id="mask39_1519_106731" style="mask-type:luminance" maskUnits="userSpaceOnUse" x="21" y="37" width="135" height="94">
<path d="M21.08 37.8066H155.602V130.713H21.08V37.8066Z" fill="white"/>
</mask>
<g mask="url(#mask39_1519_106731)">
<path fill-rule="evenodd" clip-rule="evenodd" d="M76.438 83.1719L83.5126 90.4168H94.2361C93.8264 90.8792 93.4056 91.4929 93.0795 92.0623H63.1787C62.6588 91.4904 62.0759 90.9807 61.5676 90.4168H67.5292L76.438 83.1719Z" fill="#2565AE"/>
</g>
<mask id="mask40_1519_106731" style="mask-type:luminance" maskUnits="userSpaceOnUse" x="21" y="37" width="135" height="94">
<path d="M21.08 37.8066H155.602V130.713H21.08V37.8066Z" fill="white"/>
</mask>
<g mask="url(#mask40_1519_106731)">
<path fill-rule="evenodd" clip-rule="evenodd" d="M43.791 76.5215L42.9257 81.9384C41.7444 81.5422 37.7308 80.339 37.1011 78.7125C37.6833 78.2784 39.6307 77.581 43.791 76.5215Z" fill="#2565AE"/>
</g>
<mask id="mask41_1519_106731" style="mask-type:luminance" maskUnits="userSpaceOnUse" x="21" y="37" width="135" height="94">
<path d="M21.08 37.8066H155.602V130.713H21.08V37.8066Z" fill="white"/>
</mask>
<g mask="url(#mask41_1519_106731)">
<path fill-rule="evenodd" clip-rule="evenodd" d="M67.8059 73.1484L64.9496 78.3869C64.6762 77.5449 64.308 76.7995 63.7651 76.0954C64.4499 75.2981 65.0085 74.2865 65.3123 73.2828C66.1432 73.2326 66.9743 73.1867 67.8059 73.1484Z" fill="#2565AE"/>
</g>
<mask id="mask42_1519_106731" style="mask-type:luminance" maskUnits="userSpaceOnUse" x="21" y="37" width="135" height="94">
<path d="M21.08 37.8066H155.602V130.713H21.08V37.8066Z" fill="white"/>
</mask>
<g mask="url(#mask42_1519_106731)">
<path fill-rule="evenodd" clip-rule="evenodd" d="M86.7603 73.043C87.5403 73.0652 88.3204 73.0905 89.1003 73.1186L88.2865 78.2672L86.7603 73.043Z" fill="#2565AE"/>
</g>
<mask id="mask43_1519_106731" style="mask-type:luminance" maskUnits="userSpaceOnUse" x="21" y="37" width="135" height="94">
<path d="M21.08 37.8066H155.602V130.713H21.08V37.8066Z" fill="white"/>
</mask>
<g mask="url(#mask43_1519_106731)">
<path fill-rule="evenodd" clip-rule="evenodd" d="M61.1325 45.8223C62.7789 47.5661 61.2698 46.7562 62.4278 47.9606C62.6403 48.5094 60.2624 49.6042 62.0664 50.3732C63.5331 51.0889 65.5334 51.3223 66.0808 51.6163C67.6838 52.4781 67.0067 53.0824 68.7621 53.4078C69.9736 53.6322 71.8538 55.2899 72.4701 53.5911C72.6797 53.0134 73.2045 49.9119 75.2717 51.7379C77.604 53.7981 83.5294 52.7244 85.0886 53.3427C85.4267 53.4769 86.1203 53.4455 86.7237 53.4184C87.4619 53.3855 87.2933 53.2875 87.544 53.9583C87.7778 54.5847 87.959 55.0835 87.6386 56.0088C87.283 57.0365 87.0251 56.3009 86.6557 55.5978C86.4032 55.1176 86.2514 54.8506 86.0539 54.6849C85.6978 54.3853 85.2738 54.1992 85.3775 54.8472C85.6493 56.546 87.616 59.659 88.3061 60.9884C88.7722 61.8858 88.5627 62.5065 89.4114 63.1469C89.7871 63.4301 90.0194 63.7822 90.1675 64.1654C88.1253 64.0002 86.0813 63.8481 84.0366 63.7171L82.1725 57.3353H76.4274L73.2416 63.1784C68.8381 63.0344 64.4434 63.0092 60.0382 63.0242C58.0485 62.4235 55.6123 62.4753 53.5424 62.4753H46.0359L45.7872 64.031C41.8848 64.5485 37.6277 65.3415 33.8483 66.5461C33.7882 65.8323 33.58 65.2235 33.1589 64.8497C32.3863 64.1641 36.9042 57.2651 37.3035 57.1101C41.752 55.3855 39.7795 54.7301 41.372 51.3327C44.1475 47.9059 44.7887 48.4724 47.813 48.4028C50.5371 48.3405 51.9704 46.1919 55.9102 46.5263C57.1875 46.6345 60.3312 45.8223 61.1325 45.8223Z" fill="#2565AE"/>
</g>
<mask id="mask44_1519_106731" style="mask-type:luminance" maskUnits="userSpaceOnUse" x="21" y="37" width="135" height="94">
<path d="M21.08 37.8066H155.602V130.713H21.08V37.8066Z" fill="white"/>
</mask>
<g mask="url(#mask44_1519_106731)">
<path fill-rule="evenodd" clip-rule="evenodd" d="M47.8869 94.0469V95.9485L47.7718 96.1854L46.855 97.9054H47.8869V98.84H46.4125L45.4811 100.503H44.2781L47.8869 94.0469Z" fill="black"/>
</g>
<mask id="mask45_1519_106731" style="mask-type:luminance" maskUnits="userSpaceOnUse" x="21" y="37" width="135" height="94">
<path d="M21.08 37.8066H155.602V130.713H21.08V37.8066Z" fill="white"/>
</mask>
<g mask="url(#mask45_1519_106731)">
<path fill-rule="evenodd" clip-rule="evenodd" d="M70.713 94.0469V95.9484L70.5978 96.1854L69.6811 97.9054H70.713V98.84H69.2384L68.307 100.503H67.104L70.713 94.0469Z" fill="black"/>
</g>
<mask id="mask46_1519_106731" style="mask-type:luminance" maskUnits="userSpaceOnUse" x="21" y="37" width="135" height="94">
<path d="M21.08 37.8066H155.602V130.713H21.08V37.8066Z" fill="white"/>
</mask>
<g mask="url(#mask46_1519_106731)">
<path fill-rule="evenodd" clip-rule="evenodd" d="M63.4092 93.4688H64.5364L63.5965 100.503H62.4828L63.4092 93.4688Z" fill="black"/>
</g>
<mask id="mask47_1519_106731" style="mask-type:luminance" maskUnits="userSpaceOnUse" x="21" y="37" width="135" height="94">
<path d="M21.08 37.8066H155.602V130.713H21.08V37.8066Z" fill="white"/>
</mask>
<g mask="url(#mask47_1519_106731)">
<path fill-rule="evenodd" clip-rule="evenodd" d="M53.6948 93.4688H54.799L55.9228 97.6678C55.9806 97.8828 56.0249 98.0564 56.0529 98.1892C56.0825 98.3222 56.1055 98.4403 56.1204 98.5416C56.1945 98.363 56.2668 98.1991 56.3359 98.0499C56.4051 97.9005 56.471 97.7678 56.535 97.6483L58.7977 93.4688H59.9841L55.8076 100.778L53.6948 93.4688Z" fill="black"/>
</g>
<mask id="mask48_1519_106731" style="mask-type:luminance" maskUnits="userSpaceOnUse" x="21" y="37" width="135" height="94">
<path d="M21.08 37.8066H155.602V130.713H21.08V37.8066Z" fill="white"/>
</mask>
<g mask="url(#mask48_1519_106731)">
<path fill-rule="evenodd" clip-rule="evenodd" d="M48.3641 93.1934L50.9427 100.503H49.7956L49.2214 98.8402H47.8868V97.9058H48.9185L48.374 96.1662C48.3475 96.0843 48.3212 95.9727 48.2916 95.835C48.262 95.6974 48.2275 95.517 48.1864 95.2925C48.1156 95.4597 48.0448 95.617 47.9756 95.7662L47.8868 95.9491V94.0475L48.3641 93.1934Z" fill="black"/>
</g>
<mask id="mask49_1519_106731" style="mask-type:luminance" maskUnits="userSpaceOnUse" x="21" y="37" width="135" height="94">
<path d="M21.08 37.8066H155.602V130.713H21.08V37.8066Z" fill="white"/>
</mask>
<g mask="url(#mask49_1519_106731)">
<path fill-rule="evenodd" clip-rule="evenodd" d="M85.0883 93.4688H86.2155L85.2758 100.503H84.1617L85.0883 93.4688Z" fill="black"/>
</g>
<mask id="mask50_1519_106731" style="mask-type:luminance" maskUnits="userSpaceOnUse" x="21" y="37" width="135" height="94">
<path d="M21.08 37.8066H155.602V130.713H21.08V37.8066Z" fill="white"/>
</mask>
<g mask="url(#mask50_1519_106731)">
<path fill-rule="evenodd" clip-rule="evenodd" d="M76.5058 93.4688H81.3275L81.1876 94.482H79.3891L78.5892 100.503H77.4751L78.275 94.482H76.371L76.5058 93.4688Z" fill="black"/>
</g>
<mask id="mask51_1519_106731" style="mask-type:luminance" maskUnits="userSpaceOnUse" x="21" y="37" width="135" height="94">
<path d="M21.08 37.8066H155.602V130.713H21.08V37.8066Z" fill="white"/>
</mask>
<g mask="url(#mask51_1519_106731)">
<path fill-rule="evenodd" clip-rule="evenodd" d="M93.5225 93.3398V94.3146L92.6307 94.4905C92.2984 94.6281 92.0086 94.8249 91.7651 95.0806C91.4821 95.3692 91.2665 95.6988 91.1184 96.0661C90.9702 96.4351 90.8961 96.8204 90.8961 97.2254C90.8961 97.9583 91.1184 98.5534 91.5645 99.0095C92.0102 99.4667 92.5894 99.6948 93.3037 99.6948L93.5225 99.6531V100.626L93.2262 100.678C92.2011 100.678 91.375 100.365 90.7446 99.7372C90.1145 99.1095 89.8003 98.2847 89.8003 97.2632C89.8003 96.6926 89.9022 96.1596 90.1046 95.6613C90.307 95.1628 90.5966 94.7334 90.975 94.371C91.3353 94.0284 91.755 93.7643 92.2339 93.5789L93.5225 93.3398Z" fill="black"/>
</g>
<mask id="mask52_1519_106731" style="mask-type:luminance" maskUnits="userSpaceOnUse" x="21" y="37" width="135" height="94">
<path d="M21.08 37.8066H155.602V130.713H21.08V37.8066Z" fill="white"/>
</mask>
<g mask="url(#mask52_1519_106731)">
<path fill-rule="evenodd" clip-rule="evenodd" d="M71.19 93.1934L73.7686 100.503H72.6216L72.0473 98.8402H70.7128V97.9058H71.7446L71.2 96.1662C71.1734 96.0843 71.1472 95.9727 71.1176 95.835C71.088 95.6974 71.0534 95.517 71.0123 95.2925C70.9416 95.4597 70.8707 95.617 70.8016 95.7662L70.7128 95.9491V94.0476L71.19 93.1934Z" fill="black"/>
</g>
<mask id="mask53_1519_106731" style="mask-type:luminance" maskUnits="userSpaceOnUse" x="21" y="37" width="135" height="94">
<path d="M21.08 37.8066H155.602V130.713H21.08V37.8066Z" fill="white"/>
</mask>
<g mask="url(#mask53_1519_106731)">
<path fill-rule="evenodd" clip-rule="evenodd" d="M93.7365 93.3008C94.8093 93.3008 95.665 93.6122 96.3002 94.2352C96.937 94.8583 97.2546 95.6913 97.2546 96.7359C97.2546 97.2947 97.1509 97.8228 96.9437 98.3178C96.7364 98.8131 96.4418 99.2428 96.0599 99.6081C95.6898 99.9542 95.2636 100.218 94.778 100.403L93.5225 100.626V99.6535L94.4154 99.4844C94.7532 99.344 95.0586 99.1333 95.3309 98.852C95.8756 98.2897 96.1489 97.5896 96.1489 96.7536C96.1489 96.0141 95.9234 95.4173 95.4709 94.9646C95.0199 94.5105 94.4226 94.2843 93.6789 94.2843L93.5225 94.315V93.3402L93.7365 93.3008Z" fill="black"/>
</g>
<mask id="mask54_1519_106731" style="mask-type:luminance" maskUnits="userSpaceOnUse" x="21" y="37" width="135" height="94">
<path d="M21.08 37.8066H155.602V130.713H21.08V37.8066Z" fill="white"/>
</mask>
<g mask="url(#mask54_1519_106731)">
<path fill-rule="evenodd" clip-rule="evenodd" d="M101.786 93.1934L105.64 97.5909C105.778 97.7517 105.904 97.9041 106.016 98.0484C106.128 98.1925 106.233 98.3336 106.331 98.4746C106.331 98.3288 106.337 98.1713 106.352 98.0074C106.367 97.8418 106.39 97.6351 106.421 97.3844L106.953 93.469H107.989L107.035 100.778L103.171 96.3809C102.997 96.1825 102.858 96.0154 102.753 95.879C102.649 95.7429 102.557 95.6118 102.48 95.4873C102.475 95.7054 102.442 96.0382 102.384 96.4859C102.378 96.5317 102.373 96.5646 102.37 96.5876L101.868 100.503H100.831L101.786 93.1934Z" fill="black"/>
</g>
<mask id="mask55_1519_106731" style="mask-type:luminance" maskUnits="userSpaceOnUse" x="21" y="37" width="135" height="94">
<path d="M21.08 37.8066H155.602V130.713H21.08V37.8066Z" fill="white"/>
</mask>
<g mask="url(#mask55_1519_106731)">
<path fill-rule="evenodd" clip-rule="evenodd" d="M110.67 70.916C111.745 71.0461 113.073 71.2078 114.397 71.3747L114.809 71.9995C113.367 71.8571 111.899 71.7171 110.709 71.6099C110.704 71.3749 110.691 71.1438 110.67 70.916Z" fill="black"/>
</g>
<mask id="mask56_1519_106731" style="mask-type:luminance" maskUnits="userSpaceOnUse" x="21" y="37" width="135" height="94">
<path d="M21.08 37.8066H155.602V130.713H21.08V37.8066Z" fill="white"/>
</mask>
<g mask="url(#mask56_1519_106731)">
<path fill-rule="evenodd" clip-rule="evenodd" d="M110.372 69.2969C111.291 69.4273 112.313 69.5898 113.33 69.7561L113.933 70.6692C112.763 70.5202 111.582 70.3725 110.586 70.2562C110.546 70.0126 110.496 69.774 110.437 69.5401C110.417 69.4584 110.395 69.3773 110.372 69.2969Z" fill="black"/>
</g>
<mask id="mask57_1519_106731" style="mask-type:luminance" maskUnits="userSpaceOnUse" x="21" y="37" width="135" height="94">
<path d="M21.08 37.8066H155.602V130.713H21.08V37.8066Z" fill="white"/>
</mask>
<g mask="url(#mask57_1519_106731)">
<path fill-rule="evenodd" clip-rule="evenodd" d="M84.526 68.832C86.6319 68.9071 88.7223 69.0051 90.7833 69.1244L90.5993 70.2877C88.7228 70.2138 86.8188 70.1533 84.8996 70.1104L84.526 68.832Z" fill="black"/>
</g>
<mask id="mask58_1519_106731" style="mask-type:luminance" maskUnits="userSpaceOnUse" x="21" y="37" width="135" height="94">
<path d="M21.08 37.8066H155.602V130.713H21.08V37.8066Z" fill="white"/>
</mask>
<g mask="url(#mask58_1519_106731)">
<path fill-rule="evenodd" clip-rule="evenodd" d="M71.3395 68.6797L70.5356 70.1539C68.5495 70.2177 66.5811 70.3081 64.6457 70.4294C64.6316 69.8964 64.5633 69.3788 64.4404 68.877C66.7091 68.7766 69.0153 68.7118 71.3395 68.6797Z" fill="black"/>
</g>
<mask id="mask59_1519_106731" style="mask-type:luminance" maskUnits="userSpaceOnUse" x="21" y="37" width="135" height="94">
<path d="M21.08 37.8066H155.602V130.713H21.08V37.8066Z" fill="white"/>
</mask>
<g mask="url(#mask59_1519_106731)">
<path fill-rule="evenodd" clip-rule="evenodd" d="M46.3852 66.8613L46.0361 69.0468C44.5363 69.2969 43.0971 69.5809 41.727 69.9012C29.3059 72.8052 20.735 78.4904 34.6126 83.574C23.3443 77.5755 35.6412 72.6308 45.7699 70.712L45.3788 73.1591C27.928 77.3513 31.7385 81.4633 43.4622 85.1552L43.1184 87.3069C33.3395 86.3895 17.72 81.1801 26.9988 73.188C31.1668 69.5979 39.3915 67.7738 46.3852 66.8613Z" fill="black"/>
</g>
<mask id="mask60_1519_106731" style="mask-type:luminance" maskUnits="userSpaceOnUse" x="21" y="37" width="135" height="94">
<path d="M21.08 37.8066H155.602V130.713H21.08V37.8066Z" fill="white"/>
</mask>
<g mask="url(#mask60_1519_106731)">
<path fill-rule="evenodd" clip-rule="evenodd" d="M83.8741 66.5996C86.2933 66.7587 88.7041 66.9412 91.0965 67.1428L90.9025 68.371C88.7124 68.2111 86.4965 68.0673 84.2669 67.9445L83.8741 66.5996Z" fill="black"/>
</g>
<mask id="mask61_1519_106731" style="mask-type:luminance" maskUnits="userSpaceOnUse" x="21" y="37" width="135" height="94">
<path d="M21.08 37.8066H155.602V130.713H21.08V37.8066Z" fill="white"/>
</mask>
<g mask="url(#mask61_1519_106731)">
<path fill-rule="evenodd" clip-rule="evenodd" d="M62.8458 65.896C66.1277 65.8847 69.4455 65.9388 72.7745 66.0475L71.9764 67.511C69.2805 67.4752 66.6007 67.4827 63.9597 67.5424C63.8353 67.2863 63.6933 67.035 63.5341 66.7897L63.5361 66.7884C63.3295 66.4679 63.0993 66.1704 62.8458 65.896Z" fill="black"/>
</g>
<mask id="mask62_1519_106731" style="mask-type:luminance" maskUnits="userSpaceOnUse" x="21" y="37" width="135" height="94">
<path d="M21.08 37.8066H155.602V130.713H21.08V37.8066Z" fill="white"/>
</mask>
<g mask="url(#mask62_1519_106731)">
<path fill-rule="evenodd" clip-rule="evenodd" d="M48.5042 65.3691H53.5422L54.0294 65.3723V69.6141H53.5422L52.8893 73.9523H53.392L54.0294 73.9019V78.072L53.2985 78.0115H52.2361L51.4326 83.1862H52.148C52.5978 83.1862 53.0098 83.1726 53.3842 83.1455L54.0294 83.0676V87.5027L53.8856 87.5078C53.3974 87.5186 52.8685 87.5242 52.2984 87.5242H44.964L48.5042 65.3691Z" fill="black"/>
</g>
<mask id="mask63_1519_106731" style="mask-type:luminance" maskUnits="userSpaceOnUse" x="21" y="37" width="135" height="94">
<path d="M21.08 37.8066H155.602V130.713H21.08V37.8066Z" fill="white"/>
</mask>
<g mask="url(#mask63_1519_106731)">
<path fill-rule="evenodd" clip-rule="evenodd" d="M100.306 84.2363V85.5988L99.6788 84.3623L100.306 84.2363Z" fill="black"/>
</g>
<mask id="mask64_1519_106731" style="mask-type:luminance" maskUnits="userSpaceOnUse" x="21" y="37" width="135" height="94">
<path d="M21.08 37.8066H155.602V130.713H21.08V37.8066Z" fill="white"/>
</mask>
<g mask="url(#mask64_1519_106731)">
<path fill-rule="evenodd" clip-rule="evenodd" d="M54.0294 65.3711L54.8915 65.3765C56.1361 65.3938 57.0681 65.4364 57.6941 65.5021C58.5233 65.595 59.2179 65.7553 59.7725 65.9877C60.695 66.3543 61.431 66.9535 61.9701 67.7899C62.5142 68.6266 62.7838 69.577 62.7838 70.6355C62.7838 72.1022 62.364 73.3107 61.5294 74.2609C60.6897 75.2163 59.5445 75.7948 58.0827 75.9962C59.4979 76.2594 60.5811 76.8224 61.3273 77.6798C62.0686 78.5422 62.4419 79.6578 62.4419 81.016C62.4419 82.147 62.1931 83.1902 61.6902 84.1506C61.1875 85.1061 60.4981 85.8601 59.6169 86.4022C58.9691 86.805 58.1553 87.0944 57.1808 87.2647C56.691 87.35 56.0406 87.4145 55.2273 87.4577L54.0294 87.5013V83.0662L54.3949 83.0222C54.9934 82.9136 55.4419 82.751 55.7398 82.5341C56.3309 82.1004 56.6262 81.3411 56.6262 80.2516C56.6262 79.4406 56.3723 78.8672 55.8694 78.5266C55.6155 78.3536 55.2747 78.2244 54.8464 78.1386L54.0294 78.0707V73.9006L55.1989 73.8082C55.6907 73.7134 56.0717 73.5713 56.3413 73.3828C56.8854 73.0058 57.1549 72.3707 57.1549 71.4721C57.1549 70.8264 56.9373 70.3565 56.4966 70.0571C56.0561 69.7626 55.3512 69.6127 54.3766 69.6127H54.0294V65.3711Z" fill="black"/>
</g>
<mask id="mask65_1519_106731" style="mask-type:luminance" maskUnits="userSpaceOnUse" x="21" y="37" width="135" height="94">
<path d="M21.08 37.8066H155.602V130.713H21.08V37.8066Z" fill="white"/>
</mask>
<g mask="url(#mask65_1519_106731)">
<path fill-rule="evenodd" clip-rule="evenodd" d="M93.2545 65.3691H99.1739L100.306 65.3797V69.7436L99.3605 69.676H98.4792L97.5512 75.5014H99.4173L100.306 75.3957V81.6932L99.9765 81.8756C99.7502 81.9993 99.5845 82.0884 99.4888 82.1374C99.2054 82.2823 98.9509 82.3923 98.7216 82.475L96.9915 79.0649L96.4384 82.5645C96.1845 82.5273 95.8662 82.4812 95.5173 82.4312C94.6153 82.3019 93.527 82.1487 92.8723 82.0584C92.4944 82.006 92.1129 82.003 91.9177 82.0362C91.8201 82.0529 91.7393 82.0852 91.6841 82.1321L91.683 82.132C91.5016 82.2869 91.4971 82.4466 91.7101 82.6044C91.7806 82.6566 91.9214 82.7115 92.1496 82.7635L96.2584 83.7035L95.6544 87.5242H89.7509L93.2545 65.3691Z" fill="black"/>
</g>
<mask id="mask66_1519_106731" style="mask-type:luminance" maskUnits="userSpaceOnUse" x="21" y="37" width="135" height="94">
<path d="M21.08 37.8066H155.602V130.713H21.08V37.8066Z" fill="white"/>
</mask>
<g mask="url(#mask66_1519_106731)">
<path fill-rule="evenodd" clip-rule="evenodd" d="M80.0405 60.3535L87.9765 87.5237H84.7278L77.5341 80.1564L80.0405 60.3535Z" fill="black"/>
</g>
<mask id="mask67_1519_106731" style="mask-type:luminance" maskUnits="userSpaceOnUse" x="21" y="37" width="135" height="94">
<path d="M21.08 37.8066H155.602V130.713H21.08V37.8066Z" fill="white"/>
</mask>
<g mask="url(#mask67_1519_106731)">
<path fill-rule="evenodd" clip-rule="evenodd" d="M79.2539 60.6973L76.7475 80.5003L67.6891 87.8675H64.4403L79.2539 60.6973Z" fill="black"/>
</g>
<mask id="mask68_1519_106731" style="mask-type:luminance" maskUnits="userSpaceOnUse" x="21" y="37" width="135" height="94">
<path d="M21.08 37.8066H155.602V130.713H21.08V37.8066Z" fill="white"/>
</mask>
<g mask="url(#mask68_1519_106731)">
<path fill-rule="evenodd" clip-rule="evenodd" d="M104.772 82.1992L108.068 87.523H101.284L100.306 85.5971V84.2348L100.321 84.2319C100.384 84.2026 102.155 83.3933 104.772 82.1992Z" fill="black"/>
</g>
<mask id="mask69_1519_106731" style="mask-type:luminance" maskUnits="userSpaceOnUse" x="21" y="37" width="135" height="94">
<path d="M21.08 37.8066H155.602V130.713H21.08V37.8066Z" fill="white"/>
</mask>
<g mask="url(#mask69_1519_106731)">
<path fill-rule="evenodd" clip-rule="evenodd" d="M100.306 65.3789L100.429 65.38C101.597 65.4035 102.507 65.4625 103.16 65.5593C106.587 66.0467 108.846 68.3513 108.846 71.8443C108.846 75.6736 106.365 78.1781 102.652 78.7749L103.39 79.9678C102.382 80.5357 101.502 81.0289 100.827 81.4046L100.306 81.6926V75.3951L100.861 75.3292C102.177 74.9782 103.061 74.0658 103.061 72.3814C103.061 70.6604 102.079 69.9987 100.764 69.7754L100.306 69.7428V65.3789Z" fill="black"/>
</g>
</g>
<defs>
<clipPath id="clip0_1519_106731">
<rect width="132" height="83" fill="white" transform="translate(23 45)"/>
</clipPath>
</defs>
</svg>
