<svg width="181" height="181" viewBox="0 0 181 181" fill="none" xmlns="http://www.w3.org/2000/svg">
<path d="M62.8193 70.7607C61.4393 70.4545 60.5074 70.175 60.0235 69.922C52.277 65.8885 44.7747 61.2715 37.5166 56.071C37.3633 55.9605 37.2456 55.8081 37.1778 55.6326C37.1101 55.4571 37.0953 55.2661 37.1352 55.083C37.1752 54.8999 37.2682 54.7328 37.4028 54.602C37.5374 54.4713 37.7078 54.3827 37.8929 54.3471C38.6367 54.1962 39.4185 54.2051 40.2384 54.3737C45.4669 55.4609 49.9876 56.2196 53.8004 56.6501C56.4885 56.9562 57.8058 57.8748 58.6458 60.1444C60.2363 64.4708 61.679 67.9452 62.9738 70.5677C62.9846 70.5917 62.9887 70.6184 62.9855 70.6446C62.9823 70.6707 62.972 70.6954 62.9558 70.7156C62.9396 70.7358 62.9182 70.7508 62.894 70.7588C62.8699 70.7667 62.8439 70.7674 62.8193 70.7607Z" fill="#C9CBC9"/>
<path d="M59.4618 91.4735C62.2844 91.8595 65.1518 91.5866 68.064 90.6548C72.7012 89.1727 76.9463 86.8964 80.7993 83.8258C84.9481 80.52 89.9527 76.3822 95.8129 71.4124C102.538 65.7105 109.713 60.9204 117.339 57.0422C117.368 57.0193 117.405 57.0088 117.443 57.0132C117.48 57.0175 117.514 57.0364 117.537 57.0655C117.56 57.0946 117.571 57.1317 117.566 57.1685C117.562 57.2053 117.543 57.2389 117.513 57.2618C100.143 76.5109 91.2228 86.3728 90.7524 86.8476C87.9432 89.6763 83.8841 93.184 79.919 94.4753C74.1931 96.339 67.607 95.5935 62.1298 93.4902C60.9649 93.042 60.0308 92.4541 59.3274 91.7264C59.3068 91.7031 59.2938 91.6742 59.2901 91.6434C59.2865 91.6127 59.2923 91.5816 59.3068 91.5542C59.3214 91.5268 59.344 91.5044 59.3717 91.49C59.3993 91.4756 59.4308 91.4698 59.4618 91.4735Z" fill="#C9CBC9"/>
<path d="M48.6826 65.2158C48.7438 65.2231 48.8011 65.2489 48.8467 65.29C50.5133 66.7365 52.6885 68.2361 55.3721 69.7891C58.8622 71.8125 61.6251 72.9315 63.6592 73.1445C66.179 73.4038 67.5772 71.7197 69.3916 70.4219L78.3965 82.9619C73.7998 86.4938 68.634 88.8121 62.8994 89.917C59.5616 90.5604 56.8415 89.518 54.7402 86.7891C53.1206 84.6858 51.548 81.3637 50.876 78.708C49.9352 74.9853 49.0957 70.6015 48.3564 65.5566C48.346 65.4965 48.3541 65.4339 48.3809 65.3789C48.4076 65.324 48.4519 65.2793 48.5059 65.25C48.5599 65.2207 48.6215 65.2086 48.6826 65.2158ZM144.312 46.001C144.494 46.0054 144.675 46.0389 144.849 46.1006C145.315 46.2648 145.633 46.6327 145.804 47.2051C145.892 47.5 145.854 47.8189 145.699 48.0938C145.545 48.3686 145.286 48.5774 144.977 48.6758C144.367 48.871 143.623 49.0272 142.745 49.1426C137.782 49.7814 134.711 50.1983 133.532 50.3936C121.072 52.4702 109.595 57.6243 99.1025 65.8555C95.7827 68.4601 90.9014 72.6042 84.459 78.2881C82.5369 79.9831 80.5157 81.541 78.3965 82.9609L69.3916 70.4209C74.8754 65.6598 80.3209 60.8586 85.7285 56.0176C88.2218 53.7878 90.8165 52.1368 93.6055 51.2383C94.9048 50.8168 97.1453 50.4867 100.326 50.2471C102.902 50.0518 106.881 49.6705 112.262 49.1025C120.918 48.1885 127.416 47.5911 131.758 47.3115C133.554 47.1962 135.633 46.9858 137.994 46.6797C141.516 46.2182 143.622 45.9921 144.312 46.001Z" fill="url(#paint0_linear_350_217850)"/>
<path d="M69.8578 98.3968C75.8838 99.1334 81.1572 97.5249 85.6778 93.5712C85.724 93.5317 85.7798 93.5048 85.8397 93.4932C85.8997 93.4816 85.9616 93.4858 86.0194 93.5054C86.0772 93.5249 86.1288 93.5591 86.1691 93.6045C86.2094 93.6499 86.2369 93.705 86.2491 93.7643C86.5403 95.2508 86.8517 96.3801 87.1832 97.1521C88.3324 99.8278 90.5636 103.009 92.0152 105.459C97.4364 114.626 101.44 121.322 104.025 125.546C104.038 125.566 104.045 125.59 104.043 125.614C104.042 125.638 104.032 125.661 104.015 125.678C103.999 125.696 103.977 125.708 103.953 125.712C103.929 125.715 103.905 125.711 103.884 125.7C103.606 125.575 103.449 125.5 103.413 125.473C88.9865 114.038 77.7633 105.104 69.7435 98.6697C69.7167 98.6491 69.6975 98.6204 69.6888 98.5879C69.6801 98.5555 69.6824 98.5211 69.6954 98.49C69.7084 98.459 69.7313 98.4331 69.7607 98.4162C69.79 98.3994 69.8241 98.3925 69.8578 98.3968Z" fill="#143B62"/>
<path d="M95.2928 106.796L95.2995 106.789C95.3279 106.773 95.3616 106.767 95.3948 106.773C95.4279 106.779 95.4584 106.797 95.4809 106.823L117.396 132.808C117.516 132.949 117.602 133.115 117.648 133.294C117.693 133.473 117.698 133.66 117.661 133.84C117.625 134.021 117.547 134.192 117.435 134.339C117.323 134.486 117.179 134.606 117.013 134.691L116.993 134.698C116.599 134.932 116.139 135.035 115.683 134.99C115.226 134.946 114.797 134.757 114.46 134.452L108.122 128.714C107.841 128.458 107.601 128.162 107.41 127.836L95.2457 107.002C95.2273 106.969 95.222 106.93 95.2306 106.892C95.2392 106.854 95.2612 106.82 95.2928 106.796Z" fill="#143B62"/>
<defs>
<linearGradient id="paint0_linear_350_217850" x1="145.85" y1="68.0507" x2="48.3516" y2="68.0507" gradientUnits="userSpaceOnUse">
<stop stop-color="#187DB3"/>
<stop offset="1" stop-color="#143B62"/>
</linearGradient>
</defs>
</svg>
