<svg width="181" height="181" viewBox="0 0 181 181" fill="none" xmlns="http://www.w3.org/2000/svg">
<path d="M69.0402 65.8949C75.5057 64.8895 82.0431 64.4478 88.5781 64.2305C90.0842 63.9917 91.6118 64.037 93.1322 64.0108C96.2475 64.0418 99.3819 63.8794 102.483 64.2352C122.304 64.8251 142.115 66.905 161.523 71.01C158.473 70.9384 155.434 70.5802 152.384 70.4966C139.175 69.8877 125.886 70.5897 112.852 72.8607C111.042 73.1497 109.289 73.7037 107.524 74.1813C102.557 75.6069 97.6048 77.1997 92.986 79.5352C90.7197 80.7388 88.4246 82.0976 86.8418 84.1584C86.3766 84.8271 85.777 85.627 86.0504 86.4867C86.4437 87.4348 87.4749 87.8694 88.3719 88.218C91.2089 89.2019 94.233 89.4455 97.2043 89.7249C106.596 90.6586 115.98 91.6448 125.352 92.7576C131.848 93.5672 138.359 94.3266 144.791 95.5707C146.218 95.9122 147.751 96.0865 149.002 96.9152C145.717 97.4907 142.376 97.7319 139.064 98.1307C124.105 99.7067 109.099 100.8 94.0915 101.777C92.643 101.928 91.1202 102.123 89.8683 102.923C88.9978 103.465 88.4846 104.636 88.9186 105.61C89.3287 106.51 90.1897 107.102 91.0362 107.566C93.1586 108.688 95.5136 109.264 97.8422 109.801C102.77 110.859 107.787 111.437 112.8 111.921C119.443 112.552 126.109 112.903 132.774 113.218C132.112 113.932 131.141 114.202 130.244 114.496C127.553 115.274 124.769 115.659 121.999 116.034C114.246 116.996 106.442 117.488 98.6432 117.92C92.9668 118.054 87.2783 118.056 81.6114 117.638C77.6161 117.309 73.5895 116.855 69.7621 115.613C67.985 115.004 66.1792 114.214 64.8794 112.817C64.0112 111.881 63.5556 110.582 63.7211 109.311C63.9417 107.508 64.9465 105.918 66.0377 104.507C67.208 103.036 68.9443 102.207 70.6374 101.483C57.4355 101.039 44.2191 100.66 31.0604 99.4417C28.3336 99.1671 25.6021 98.8733 22.921 98.2954C21.8778 98.0304 20.6835 97.825 20 96.9032C21.2015 95.8597 22.7963 95.5253 24.2951 95.1409C27.7725 94.3313 31.305 93.806 34.8351 93.2949C42.5956 92.2036 50.3944 91.4036 58.1861 90.5893C54.0636 88.9368 49.8884 87.3201 46.1137 84.9465C44.4014 83.8408 42.6891 82.5967 41.5692 80.8653C40.8089 79.7286 40.5955 78.1979 41.2118 76.9514C41.9409 75.4326 43.3414 74.3867 44.7323 73.5031C47.4926 71.8267 50.5431 70.7044 53.6056 69.7086C58.6609 68.111 63.841 66.9241 69.0402 65.8949Z" fill="#12470D"/>
</svg>
