<svg width="181" height="181" viewBox="0 0 181 181" fill="none" xmlns="http://www.w3.org/2000/svg">
<path fill-rule="evenodd" clip-rule="evenodd" d="M90.999 47.9709L110.542 28.2703C110.806 28.0029 111.184 27.928 111.533 28.0721C111.88 28.2181 112.093 28.5386 112.093 28.9179V69.2362H152.087C152.463 69.2362 152.784 69.4524 152.927 69.8014C153.072 70.1513 152.997 70.5325 152.729 70.7999L133.187 90.4996L152.729 110.201C152.997 110.469 153.072 110.85 152.927 111.201C152.784 111.549 152.463 111.765 152.087 111.765H112.093V152.083C112.093 152.46 111.88 152.784 111.533 152.929C111.427 152.973 111.319 152.996 111.21 153H111.145C110.923 152.992 110.709 152.899 110.542 152.73L90.999 133.03L71.4574 152.73C71.289 152.899 71.0764 152.992 70.8544 153H70.7886C70.6814 152.996 70.5722 152.973 70.4659 152.929C70.1188 152.784 69.9053 152.46 69.9053 152.083V111.765H29.9124C29.5362 111.765 29.2154 111.549 29.0715 111.201C29.0254 111.085 29.0009 110.967 29 110.851V110.834C29.0019 110.601 29.095 110.377 29.27 110.201L48.8116 90.4996L29.27 70.7999C29.095 70.6235 29.0019 70.4006 29 70.1674V70.1503C29.0009 70.0337 29.0254 69.9161 29.0715 69.8014C29.2154 69.4524 29.5362 69.2362 29.9124 69.2362H69.9053V28.9179C69.9053 28.5386 70.1188 28.2181 70.4659 28.0721C70.814 27.928 71.1921 28.0029 71.4574 28.2703L90.999 47.9709Z" fill="#ED1C24"/>
</svg>
