<svg width="181" height="181" viewBox="0 0 181 181" fill="none" xmlns="http://www.w3.org/2000/svg">
<g clip-path="url(#clip0_349_172763)">
<path d="M29.1934 78.8663H34.1682V105.166C34.1682 109.255 31.1428 112 26.9478 112H25V107.38H26.412C28.1195 107.38 29.1934 106.608 29.1934 104.78V78.8663ZM29.1934 69H34.1682V73.909H29.1934V69Z" fill="#043474"/>
<path d="M42.3537 88.8756C42.4504 85.1706 44.6461 83.198 47.5739 83.198C50.5016 83.198 52.647 85.1706 52.7915 88.8756H42.3537ZM57.7668 92.9161V88.8756C57.7668 82.5719 53.0336 78.5776 47.5744 78.5776C42.7912 78.5776 37.3789 81.656 37.3789 91.1378C37.3789 101.147 43.2798 103.554 48.354 103.554C51.6685 103.554 54.8402 102.396 57.2773 99.6062L53.6711 96.5763C52.2055 98.0666 50.1582 98.9333 48.256 98.9333C44.841 98.9333 42.3539 96.911 42.3539 92.9161H57.7668Z" fill="#043474"/>
<path d="M61.7105 71.4546H66.6853V78.8665H70.2921V82.6201H66.6853V96.8149C66.6853 98.1638 67.2208 98.6445 68.4368 98.6445H70.2921V103.264H67.7081C64.2436 103.264 61.7105 101.095 61.7105 97.2485V82.6201H59.2188V78.8665H61.7105V71.4546Z" fill="#043474"/>
<path d="M86.8297 88.0575C90.7311 88.0575 92.4837 90.5106 92.4837 93.2052C92.4837 95.9015 90.7306 98.355 86.8297 98.355H78.7312V88.0575H86.8297ZM73.4609 103.264H88.0955C93.3157 103.264 97.7526 99.4619 97.7526 93.5438C97.7526 90.0788 95.8999 86.5179 92.096 85.6494V85.5547C96.1445 83.7736 97.2186 81.0308 97.2186 78.1926C97.2182 72.8026 93.7027 69 86.9249 69H73.4609V103.264ZM86.3389 73.6215C90.1442 73.6215 91.9484 75.8822 91.9484 78.5294C91.9484 81.2225 90.1442 83.4391 86.3389 83.4391H78.7312V73.6215H86.3389Z" fill="#043474"/>
<path d="M100.613 69H105.588V96.9595C105.588 98.0662 106.223 98.6443 107.446 98.6443H109.15V103.264H106.956C103.344 103.264 100.613 101.725 100.613 97.3438V69Z" fill="#043474"/>
<path d="M111.246 78.8662H116.222V93.3977C116.222 96.7204 118.318 98.6442 121.151 98.6442C123.93 98.6442 126.024 96.7206 126.024 93.3977V78.8662H131.002V103.264H126.024V100.664H125.931C124.369 102.59 122.124 103.553 119.538 103.553C115.639 103.553 111.246 100.616 111.246 95.084V78.8662Z" fill="#043474"/>
<path d="M138.653 88.8756C138.754 85.1706 140.945 83.198 143.872 83.198C146.798 83.198 148.944 85.1706 149.094 88.8756H138.653ZM154.068 92.9161V88.8756C154.068 82.5719 149.336 78.5776 143.872 78.5776C139.092 78.5776 133.676 81.656 133.676 91.1378C133.676 101.147 139.58 103.554 144.651 103.554C147.972 103.554 151.14 102.396 153.579 99.6062L149.968 96.5765C148.505 98.0668 146.459 98.9338 144.556 98.9338C141.142 98.9338 138.653 96.9116 138.653 92.9163L154.068 92.9161Z" fill="#043474"/>
</g>
<defs>
<clipPath id="clip0_349_172763">
<rect width="130" height="43" fill="white" transform="translate(25 69)"/>
</clipPath>
</defs>
</svg>
