<svg width="181" height="181" viewBox="0 0 181 181" fill="none" xmlns="http://www.w3.org/2000/svg">
<path d="M34.0078 121.18L37.1948 129.399L55.0078 118.399" fill="#D41C24"/>
<path d="M43.0078 135.989L47.9575 141.399L62.0078 134.399" fill="#D41C24"/>
<path d="M78.0078 141.503L81.3673 145.996L89.4702 141.503L93.9481 150.292L100.008 151.399L91.7092 133.399" fill="#D41C24"/>
<path d="M112.008 152.399H117.011L124.204 142.228L130.977 149.966L136.008 149.101L123.769 135.399" fill="#D41C24"/>
<path d="M45.9022 101.257L46.3786 106.399L67.0078 103.401L45.6931 86.3994L45.0078 92.2288L54.4281 100.599" fill="#D41C24"/>
<path d="M59.0303 50.3994C52.2007 56.9845 51.0078 63.3994 51.0078 63.3994L64.0078 63.0027" fill="#D41C24"/>
<path d="M69.8556 39.3994L62.3756 46.7677L70.5125 67.1304L50.1 67.5624C47.6647 71.6632 47.0078 78.3994 47.0078 78.3994L83.0078 74.0536" fill="#D41C24"/>
<path d="M112.067 116.012L138.019 101.153L136.745 101.094L127.717 100.652C126.076 99.2512 125.241 99.2055 122.207 99.5759L97.0458 102.865L83.8264 29.3994L73.6853 35.3903L88.8973 78.2386L48.5388 82.489L76.9972 106.245L32.0078 112.234L33.5458 118.225L67.5161 115.318L40.83 132.198L77.6573 129.086L52.7435 143.768L58.6937 145.979L93.5281 128.421L105.896 152.399H107.406L123.966 130.177L139.193 148.622L150.008 144.195L112.067 116.012ZM68.4103 123.567L78.7558 116.204L82.2734 120.866L68.4103 123.567ZM81.6146 89.8077H73.6853L79.8558 94.6627L78.5217 99.3389L63.3248 86.4277L82.9473 85.5877L81.6146 89.8077ZM108.329 142.424L100.373 129.557H104.989L108.329 135.09L111.847 128.85H116.478" fill="#D41C24"/>
<path d="M121.008 152.399L127.008 151.052L123.908 147.399" fill="#D41C24"/>
</svg>
