<svg width="181" height="181" viewBox="0 0 181 181" fill="none" xmlns="http://www.w3.org/2000/svg">
<path d="M62.3135 62.3072C62.2598 62.3238 62.2017 62.3182 62.1516 62.2916C62.1015 62.265 62.0634 62.2196 62.0456 62.1651C61.334 59.964 61.2001 56.3917 62.9945 54.5901C64.984 52.5965 68.9898 56.2073 70.6847 57.256C83.5859 65.2304 98.1705 74.2304 111.37 82.9922C111.4 83.0126 111.426 83.0395 111.444 83.071C111.463 83.1025 111.474 83.1377 111.478 83.1741C111.481 83.2106 111.476 83.2473 111.463 83.2816C111.451 83.3159 111.431 83.347 111.405 83.3725C110.06 84.6862 108.552 85.7758 106.878 86.6414C100.344 90.0166 94.0537 93.0396 88.0087 95.7105C87.9515 95.7357 87.8876 95.7415 87.8269 95.7269C87.7661 95.7124 87.7117 95.6783 87.672 95.6299L83.4634 90.4673C83.4401 90.4389 83.4234 90.4056 83.4146 90.3699C83.4057 90.3341 83.4049 90.2967 83.4122 90.2604C83.4195 90.2241 83.4348 90.1897 83.4569 90.1597C83.4789 90.1297 83.5073 90.1049 83.54 90.087C85.282 89.1344 86.9808 88.0063 88.6361 86.7029C88.9422 86.4621 89.1182 86.2009 89.1641 85.9192C89.1753 85.8515 89.1711 85.7821 89.1519 85.7163C89.1327 85.6505 89.099 85.59 89.0533 85.5393C89.0076 85.4886 88.9512 85.4491 88.8882 85.4238C88.8252 85.3984 88.7573 85.3879 88.6897 85.393C88.0469 85.4391 87.2792 85.594 86.3865 85.8578C85.3305 86.1728 83.5629 86.7233 81.0837 87.5095C80.3669 87.7374 79.7369 87.5146 79.1937 86.8411C79.1524 86.79 79.1216 86.7307 79.1033 86.6667C79.0849 86.6028 79.0792 86.5354 79.0865 86.4685C79.1681 85.8002 79.4003 85.3008 79.7829 84.9705C80.5353 84.32 81.1117 83.6721 81.5122 83.0268C81.5741 82.9254 81.6124 82.8108 81.6238 82.6929C81.6352 82.5749 81.6194 82.4571 81.5776 82.3495C81.5359 82.2419 81.4695 82.1477 81.3841 82.075C81.2988 82.0023 81.197 81.9533 81.0875 81.932C79.4768 81.6171 77.2845 84.5825 75.7311 83.311C74.7313 82.4916 73.9686 81.5377 73.4432 80.4493C73.4285 80.4184 73.4201 80.3848 73.4185 80.3505C73.4168 80.3162 73.4221 80.282 73.4338 80.2498C73.4456 80.2176 73.4637 80.188 73.487 80.1629C73.5102 80.1378 73.5383 80.1177 73.5695 80.1036C74.9825 79.489 76.0168 78.8603 76.6723 78.2176C76.754 78.1382 76.8011 78.0767 76.8139 78.0332C76.8329 77.9596 76.8361 77.8828 76.8234 77.8079C76.8107 77.7329 76.7823 77.6614 76.74 77.598C76.6978 77.5346 76.6427 77.4807 76.5783 77.4399C76.5139 77.399 76.4417 77.3722 76.3663 77.361C74.716 77.1177 73.1894 77.1881 71.7866 77.5722C71.5852 77.6271 71.3721 77.6164 71.1782 77.5415C70.6911 77.352 70.3008 77.0934 70.0075 76.7656C69.2015 75.8591 68.4223 74.6478 67.6698 73.1318C67.6424 73.0774 67.6336 73.0155 67.6446 72.9552C67.6557 72.8949 67.686 72.8396 67.731 72.7976C68.6225 71.9717 69.6172 70.9231 69.7244 69.6785C69.7754 69.087 69.4744 68.8053 68.8214 68.8334C67.8547 68.8744 66.8319 69.1266 65.753 69.5902C65.6973 69.6141 65.635 69.6184 65.576 69.6024C65.5171 69.5864 65.4649 69.551 65.4278 69.5018C64.5657 68.352 63.9867 67.2265 63.6908 66.1254C63.6559 65.9952 63.6599 65.8588 63.7023 65.7336C63.8757 65.224 64.2902 64.7681 64.9457 64.3661C65.5388 64.0012 66.1433 63.3904 66.0859 62.8027C66.0657 62.6032 65.9677 62.4163 65.809 62.2745C65.6504 62.1328 65.441 62.0451 65.2174 62.0268C64.1844 61.9423 63.2164 62.0357 62.3135 62.3072Z" fill="#00AEEF"/>
<path d="M26.0532 118.673C26.4639 118.299 27.0505 118.05 27.8132 117.924C29.5374 117.645 31.5754 117.463 33.9271 117.379C42.9296 117.056 50.1415 116.903 57.8279 115.627C62.391 114.869 66.7552 113.083 70.9204 110.269C73.8689 108.276 76.352 106.545 78.3696 105.075C82.8536 101.81 88.3171 98.9831 93.7997 96.3788C103.837 91.6157 110.153 88.5708 112.75 87.2443C115.967 85.6003 118.305 83.4722 121.339 81.1867C123.21 79.7808 125.146 78.9204 127.522 78.4057C130.782 77.7014 132.666 77.284 133.177 77.1534C133.291 77.1237 133.4 77.0686 133.492 76.9936C133.584 76.9186 133.656 76.8264 133.701 76.7259C133.746 76.6255 133.762 76.5203 133.748 76.4208C133.734 76.3213 133.69 76.2309 133.62 76.1585C132.962 75.4825 129.749 75.7129 128.578 75.7859C128.546 75.7876 128.514 75.7799 128.487 75.7637C128.459 75.7476 128.437 75.7237 128.423 75.6953C128.409 75.6668 128.404 75.635 128.408 75.6039C128.413 75.5729 128.426 75.5439 128.448 75.5209C131.968 71.6067 136.842 69.6092 142.08 67.9114C142.773 67.6861 143.35 67.3544 143.809 66.9165C143.878 66.8507 143.93 66.7694 143.961 66.6793C143.992 66.5892 144.001 66.493 143.988 66.3989C143.974 66.3048 143.939 66.2154 143.883 66.1384C143.828 66.0613 143.756 65.9989 143.671 65.9562C142.944 65.5849 142.173 65.4069 141.357 65.4223C141.315 65.4226 141.275 65.4106 141.241 65.3877C141.206 65.3649 141.18 65.3323 141.164 65.2943C141.149 65.2564 141.146 65.2148 141.155 65.1752C141.164 65.1357 141.185 65.0999 141.215 65.0727C142.837 63.5823 144.788 62.4876 146.3 61.0356C148.113 59.2994 150.745 57.0484 153.47 58.1278C156.209 59.211 155.004 62.5913 154.143 64.5503C153.676 65.6156 152.346 68.8474 150.152 74.2456C149.494 75.8666 149.163 76.6822 149.158 76.6925C147.699 80.1163 146.139 83.0843 144.479 85.5964C143.257 87.4505 141.572 89.3468 139.424 91.2853C136.874 93.5875 133.976 95.3186 130.732 96.4787C128.972 97.1048 126.435 98.2264 125.513 99.6362C125.495 99.6632 125.484 99.6945 125.482 99.7269C125.48 99.7594 125.486 99.7919 125.5 99.8213C125.513 99.8507 125.535 99.876 125.561 99.8947C125.588 99.9135 125.619 99.9249 125.651 99.9281C128.028 100.174 130.458 99.9114 132.939 99.1406C136.593 98.0075 140.718 96.471 143.055 100.835C143.093 100.906 143.124 100.983 143.147 101.065L143.928 103.981C143.93 103.993 143.931 104.006 143.931 104.019C144.044 106.897 144.361 109.421 144.884 111.59C144.888 111.606 144.888 111.623 144.883 111.639C144.878 111.655 144.869 111.67 144.857 111.681C144.845 111.693 144.829 111.701 144.813 111.706C144.796 111.71 144.778 111.71 144.762 111.705C142.247 110.981 139.58 110.091 136.762 109.036C134.767 108.29 132.856 107.71 131.03 107.296C127.07 106.397 123.489 106.781 119.216 107.772C114.844 108.786 110.13 110.456 105.075 112.781C98.2723 115.908 91.4544 119.634 85.4361 122.833C80.3973 125.515 74.9453 127.251 69.7841 128.319C66.7335 128.951 63.7454 129.143 60.8198 128.895C48.8063 127.873 37.4623 123.805 26.103 118.95C26.0771 118.939 26.0544 118.921 26.0369 118.899C26.0194 118.877 26.0076 118.851 26.0026 118.823C25.9977 118.796 25.9997 118.768 26.0086 118.742C26.0174 118.715 26.0328 118.692 26.0532 118.673Z" fill="#00AEEF"/>
</svg>
