<svg width="181" height="181" viewBox="0 0 181 181" fill="none" xmlns="http://www.w3.org/2000/svg">
<path d="M110 94.7285L83.6457 94.9131L57.8141 95C57.6442 94.9999 57.4764 94.9607 57.3235 94.8854C57.1706 94.8101 57.0366 94.7008 56.932 94.5657L24.0653 51.5669C24.0289 51.5185 24.0068 51.4609 24.0013 51.4007C23.9959 51.3404 24.0074 51.2798 24.0345 51.2257C24.0616 51.1716 24.1033 51.1261 24.1549 51.0943C24.2066 51.0625 24.266 51.0457 24.3267 51.0457C35.1153 51.0601 42.7747 51.0457 47.305 51.0022C54.9935 50.9371 59.0882 52.2835 65.0234 57.2023C79.9285 69.5518 94.9207 82.0605 110 94.7285Z" fill="#D60039"/>
<path d="M158 94.696V96.5418C152.821 96.6219 147.638 96.6656 142.451 96.6729C135.184 96.6874 128.335 98.1145 121.904 100.954C117.583 102.862 112.269 106.535 105.962 111.974C105.897 112.033 100.648 116.449 90.2164 125.222C85.1207 129.515 81.738 130.913 75.6166 130.956C68.9822 131.015 62.5443 131.015 56.3028 130.956C56.2461 130.956 56.1906 130.939 56.1426 130.909C56.0946 130.879 56.056 130.836 56.031 130.785C56.0061 130.734 55.9959 130.677 56.0015 130.62C56.0071 130.564 56.0283 130.51 56.0628 130.465L83.1784 94.838L109.585 94.6523C114.102 94.6742 118.783 94.7324 123.628 94.8271C129.528 94.9363 134.667 93.1524 139.046 89.4754C142.069 86.9197 144.524 86.0897 147.819 88.1976C151.217 90.3674 154.61 92.5335 158 94.696Z" fill="#929A9F"/>
</svg>
