<svg width="181" height="181" viewBox="0 0 181 181" fill="none" xmlns="http://www.w3.org/2000/svg">
<path fill-rule="evenodd" clip-rule="evenodd" d="M77.3672 83.4089H104.656V56H77.3672V83.4089Z" fill="white"/>
<path fill-rule="evenodd" clip-rule="evenodd" d="M63.7266 83.4089H77.3709V56H63.7266V83.4089Z" fill="#D52B1E"/>
<path fill-rule="evenodd" clip-rule="evenodd" d="M104.656 83.4089H118.301V56H104.656V83.4089Z" fill="#D52B1E"/>
<path fill-rule="evenodd" clip-rule="evenodd" d="M86.7581 61.1157C86.8774 62.0171 87.1191 62.9894 87.2867 63.894C87.4605 64.8336 87.639 65.7573 87.8269 66.6874C87.869 66.8958 87.9725 67.1743 87.8595 67.3626C87.5293 67.9109 86.888 67.0161 86.4797 66.5807C86.3379 66.4295 86.2364 66.2931 86.0978 66.1398L84.8688 64.8652C84.7221 65.0846 84.5181 65.661 84.397 65.942C84.14 66.5381 84.0993 66.504 83.4265 66.3605C82.9903 66.2672 81.0653 65.8318 80.7902 65.8201C80.9722 66.5853 81.3448 67.5568 81.5945 68.3343C81.7311 68.7588 82.0489 69.2712 81.6042 69.5309C81.3951 69.6534 80.6794 69.9854 80.4531 70.0631C80.5715 70.2301 80.7147 70.3037 80.8695 70.4331C82.4381 71.7428 84.1183 73.0384 85.6687 74.3375C86.2556 74.8291 85.5676 75.3554 85.255 76.66C86.0384 76.573 90.0164 75.7204 90.3991 75.8418C90.8299 75.9782 90.7471 76.505 90.721 76.9928C90.6705 77.9384 90.4681 80.7282 90.5121 81.2964H91.5054C91.5617 80.5718 91.4136 79.2585 91.374 78.4758C91.3495 77.9959 91.3245 77.5139 91.2987 77.0313C91.2727 76.5462 91.1686 76.0159 91.5834 75.8541C91.9617 75.7065 95.9852 76.5738 96.7625 76.66C96.674 76.2906 96.479 75.8456 96.3516 75.4847C96.2815 75.2853 96.2068 75.1066 96.1441 74.9154C96.0352 74.5831 96.1373 74.5151 96.3244 74.3583C97.8732 73.0586 99.5607 71.7595 101.124 70.4541C101.294 70.3119 101.445 70.2306 101.564 70.0631C101.302 69.9731 100.705 69.6869 100.442 69.5472C99.9543 69.2875 100.279 68.7809 100.423 68.3343L101.227 65.8201C100.955 65.8315 99.055 66.2618 98.6288 66.3523C97.9658 66.4937 97.8968 66.582 97.6344 65.9739C97.5079 65.6812 97.2993 65.09 97.1488 64.8655L96.9358 65.0603C96.4923 65.5816 95.6264 66.4274 95.157 66.9735C95.0242 67.1279 94.9226 67.2453 94.7635 67.3991C94.5877 67.5688 94.3251 67.5865 94.1757 67.3907C94.0347 67.206 94.1463 66.9059 94.1906 66.6874C94.4318 65.4943 95.1263 62.1251 95.2592 61.1157C94.465 61.3569 93.4304 62.464 93.0047 62.1287C92.8643 62.0182 92.6832 61.5768 92.5761 61.3681C92.3613 60.9482 91.1491 58.488 91.0089 58.3281C90.7922 58.575 90.4095 59.4818 90.2291 59.8332C89.9583 60.36 89.7082 60.8473 89.4414 61.3681C89.0579 62.1169 89.1005 62.4547 88.2566 61.9631C87.9519 61.7855 87.0365 61.2 86.7581 61.1157Z" fill="#D52B1E"/>
<path d="M130.774 122.709L132.715 122.646C132.778 122.835 133.028 123.023 133.341 123.149C133.655 123.275 134.218 123.4 134.907 123.463C135.595 123.526 136.409 123.589 137.348 123.589C138.162 123.589 138.851 123.589 139.477 123.526C140.103 123.463 140.541 123.4 140.855 123.275C141.168 123.149 141.293 123.023 141.293 122.897C141.293 122.772 141.168 122.646 140.855 122.583C140.541 122.457 140.103 122.394 139.415 122.331C138.976 122.268 138.037 122.206 136.597 122.143C135.158 122.08 134.156 121.954 133.53 121.891C132.778 121.766 132.215 121.64 131.839 121.514C131.463 121.388 131.276 121.199 131.276 121.011C131.276 120.822 131.526 120.633 131.964 120.445C132.402 120.256 133.091 120.13 133.968 120.005C134.844 119.942 135.783 119.879 136.848 119.879C138.037 119.879 139.039 119.942 139.916 120.005C140.792 120.13 141.481 120.256 141.982 120.445C142.483 120.633 142.733 120.822 142.733 121.074L140.729 121.137C140.604 120.885 140.228 120.696 139.665 120.571C139.039 120.445 138.162 120.382 136.91 120.382C135.658 120.382 134.719 120.445 134.155 120.571C133.592 120.696 133.279 120.822 133.279 121.011C133.279 121.137 133.467 121.262 133.905 121.388C134.281 121.514 135.345 121.577 137.035 121.703C138.726 121.828 139.915 121.891 140.541 121.954C141.481 122.08 142.107 122.206 142.545 122.394C142.983 122.583 143.171 122.772 143.171 122.96C143.171 123.149 142.921 123.4 142.483 123.589C141.982 123.778 141.293 123.904 140.416 124.029C139.54 124.155 138.538 124.218 137.411 124.218C135.972 124.218 134.782 124.155 133.843 124.029C132.904 123.904 132.152 123.778 131.589 123.526C131.088 123.212 130.774 122.96 130.774 122.709ZM116.062 124.029V119.942H127.456V120.445H118.191V121.703H126.893V122.206L118.191 122.206V123.589H127.832V124.092H116.062V124.029ZM99.2834 124.029V119.942H101.412L109.676 123.149V119.942H111.679V124.029H109.551L101.287 120.822V124.029H99.2834ZM92.7722 124.029V119.942H94.8381V124.029H92.7722ZM79.3116 124.029V119.942H81.3778V123.589H89.1409V124.092H79.3116V124.029ZM64.8496 121.703H69.3572C70.2964 121.703 71.0478 121.703 71.6112 121.64C72.1746 121.577 72.5503 121.514 72.8634 121.388C73.1137 121.263 73.3016 121.137 73.3016 121.011C73.3016 120.822 73.0513 120.633 72.4876 120.508C71.9242 120.382 71.1102 120.319 69.9206 120.319L64.9121 120.319V121.703H64.8496ZM62.7834 124.029V119.942H69.7329C71.1102 119.942 72.1746 120.005 72.9258 120.068C73.6771 120.131 74.2405 120.256 74.6787 120.445C75.1169 120.634 75.3048 120.822 75.3048 121.074C75.3048 121.388 74.929 121.64 74.2405 121.828C73.4892 122.017 72.4249 122.143 70.9224 122.206C71.4857 122.269 71.924 122.332 72.1746 122.395C72.8007 122.52 73.364 122.709 73.9274 122.96L76.6822 124.093L74.0526 124.092L71.9242 123.149C71.2981 122.898 70.7972 122.709 70.4216 122.583C70.0459 122.457 69.6703 122.332 69.3572 122.332C69.0442 122.269 68.7311 122.269 68.4181 122.206C68.1678 122.206 67.792 122.206 67.2286 122.206L64.7869 122.206V124.029H62.7834ZM56.2098 124.029V119.942H58.2757V124.029H56.2098ZM43.1876 122.332H48.509L46.8813 121.2C46.3803 120.885 46.0048 120.571 45.7542 120.319C45.5663 120.571 45.2533 120.822 44.8778 121.074L43.1876 122.332ZM38.6172 124.029L44.6902 119.942H46.944L53.3925 124.029H51.0135L49.1978 122.772L42.5614 122.772L40.8085 124.03L38.6172 124.029Z" fill="#002567"/>
<path d="M14.5156 111.893L14.6408 111.327C16.6444 111.327 17.2078 110.698 17.7087 108.749L21.3399 95.1031C21.8408 93.2164 21.7156 92.3361 19.4616 92.2104L19.5867 91.6445H27.4126C30.4805 91.6445 33.4856 92.5248 33.4856 96.1721C33.4856 100.574 29.1657 102.209 25.4719 102.209C24.8458 102.209 22.905 102.02 22.4667 102.272C22.4041 102.335 22.3415 102.398 22.3415 102.523L20.5886 109.126C20.1504 111.012 21.4026 111.264 23.0929 111.264L22.9676 111.83H14.5156V111.893ZM22.7798 100.574C22.592 101.517 23.5311 101.391 24.2197 101.391C27.6005 101.391 30.2299 99.7566 30.2299 96.1094C30.2299 93.5941 28.79 92.5878 26.4107 92.5878C25.0961 92.5878 24.783 93.091 24.47 94.3484L22.7798 100.574Z" fill="#002567"/>
<path d="M125.959 99.2525C122.14 99.2525 119.573 105.792 119.573 108.433C119.573 109.188 120.137 110.257 121.139 110.257C123.643 110.257 126.21 105.541 126.898 103.843C127.399 102.648 128.526 99.2525 125.959 99.2525ZM130.843 108.874C129.966 109.943 128.276 111.955 126.523 111.955C123.956 111.955 126.022 107.616 126.335 106.673C125.02 108.622 122.704 111.955 119.699 111.955C116.005 111.955 117.069 107.176 117.82 105.29C119.01 102.397 122.265 98.2468 125.959 98.4982C127.086 98.4982 128.025 98.9384 128.276 99.9444L128.652 98.7496H131.03C129.966 102.145 128.651 105.604 127.837 109C127.775 109.251 127.587 109.754 127.9 110.006C128.902 110.76 130.968 107.742 131.03 107.239L130.843 108.874Z" fill="#002567"/>
<path d="M38.3657 99.2525C34.5466 99.2525 31.9797 105.792 31.9797 108.433C31.9797 109.188 32.5431 110.257 33.545 110.257C36.0492 110.257 38.6161 105.541 39.3049 103.843C39.8056 102.648 40.9326 99.2525 38.3657 99.2525ZM43.1865 108.874C42.31 109.943 40.6195 111.955 38.8667 111.955C36.2997 111.955 38.3657 107.616 38.6788 106.673C37.3641 108.622 35.0475 111.955 32.0424 111.955C28.3487 111.955 29.4128 107.176 30.1641 105.29C31.3536 102.397 34.6091 98.2468 38.303 98.4982C39.4301 98.4982 40.3689 98.9384 40.6195 99.9444L40.9953 98.7496H43.3744C42.31 102.145 40.9953 105.604 40.1813 109C40.1186 109.251 39.931 109.754 40.244 110.006C41.2456 110.76 43.3118 107.679 43.3744 107.239L43.1865 108.874Z" fill="#002567"/>
<path d="M155.756 99.2525C151.937 99.2525 149.37 105.792 149.37 108.433C149.37 109.188 149.934 110.257 150.936 110.257C153.44 110.257 156.007 105.541 156.696 103.843C157.259 102.711 158.323 99.2525 155.756 99.2525ZM160.64 108.874C159.763 109.943 158.073 111.955 156.32 111.955C153.753 111.955 155.819 107.616 156.132 106.673C154.817 108.622 152.501 111.955 149.495 111.955C145.802 111.955 146.866 107.176 147.617 105.29C148.807 102.397 152.062 98.2468 155.756 98.4982C156.883 98.4982 157.822 98.9384 158.073 99.9444L158.448 98.7496H160.827C159.763 102.145 158.448 105.604 157.634 109C157.572 109.251 157.384 109.754 157.697 110.006C158.699 110.76 160.765 107.679 160.827 107.239L160.64 108.874Z" fill="#002567"/>
<path d="M142.111 99.065C144.24 98.6248 145.805 96.7383 146.869 94.9775H147.495L146.431 98.6876H148.81L148.622 99.6309H146.243C145.429 102.712 144.427 105.856 143.801 108.937C143.551 110.132 144.177 110.572 145.116 109.629C145.492 109.315 146.556 107.868 147.057 107.114L146.931 108.372C145.93 109.755 144.49 111.767 142.549 111.767C140.859 111.767 141.109 110.007 141.422 108.875L143.864 99.6309H141.923H141.61L142.111 99.065Z" fill="#002567"/>
<path d="M141.668 99.6936L141.105 102.649L140.541 102.649C140.353 101.014 139.727 99.0651 137.473 99.0651C136.972 99.0651 136.534 99.1908 136.158 99.5682C134.593 100.889 136.784 103.152 137.786 104.347C139.539 106.36 140.791 108.749 138.412 110.824C136.91 112.145 134.781 112.208 132.903 111.704C132.402 111.579 131.212 111.076 130.962 111.83H130.336L130.774 108.812L131.025 107.177H131.588C131.651 108.875 132.339 111.201 134.718 111.201C135.47 111.201 136.096 110.95 136.534 110.51C138.287 108.812 136.597 106.737 135.344 105.291C133.842 103.53 132.151 101.14 134.343 99.1908C136.784 97.1158 139.477 99.0021 142.106 99.0651L141.668 99.6936Z" fill="#002567"/>
<path d="M160.833 107.364L164.402 94.0955C164.777 92.6494 164.277 92.272 162.711 92.209L162.774 91.7058C164.026 91.5801 165.278 91.3914 166.53 91.14C167.282 91.0142 167.532 91.0142 167.344 91.8315L162.899 108.055C162.774 108.496 162.211 110.13 163.087 110.13C163.963 110.13 164.903 108.684 165.341 108.118L165.779 108.558C164.965 109.753 163.149 111.891 161.522 111.891C159.831 111.891 160.019 110.13 160.395 108.747L160.833 107.364Z" fill="#002567"/>
<path d="M112.426 99.0018C107.73 99.0018 103.786 111.138 108.92 111.138C113.678 111.138 117.497 99.0018 112.426 99.0018ZM104.036 107.302V107.114C101.595 110.006 99.4036 112.081 95.3965 112.081C90.5131 112.081 87.3203 109 87.3203 104.095C87.3203 96.8008 95.3341 89.8211 102.596 92.0218C103.598 92.3362 104.6 92.9651 105.226 91.7704H105.789L104.662 97.6184H104.099C104.099 94.7258 103.41 92.525 100.029 92.525C96.0226 92.525 92.7669 96.298 91.4523 99.8194C89.9497 104.033 90.3253 110.887 96.2104 110.887C99.5285 110.887 102.659 108.372 104.287 105.605C105.163 102.02 108.857 98.2475 112.676 98.2475C115.493 98.2475 117.371 100.071 117.371 102.901C117.371 107.24 113.052 111.956 108.669 111.956C105.852 111.956 104.036 110.069 104.036 107.302Z" fill="#002567"/>
<path d="M82.5028 108.561C81.0003 110.259 78.9968 111.893 76.6179 111.893C74.4267 111.893 72.9241 110.636 72.4856 108.561C71.5468 109.944 69.6686 111.893 67.853 111.893C65.7244 111.893 66.6008 109.064 66.9766 107.932L68.7922 101.455C68.9173 100.889 69.2304 100.009 68.4791 99.6942H65.2234L64.0339 105.291C63.0948 109.944 62.1555 113.277 61.1539 115.226C60.2148 117.175 59.0253 118.119 57.7106 118.119C55.5819 118.119 55.2688 115.289 56.9594 115.289C58.7749 115.289 57.1472 117.301 58.0237 117.301C59.6514 117.301 60.1523 113.717 60.3402 112.648L62.7817 99.694H61.2791L61.5294 98.7507L62.907 98.7509C63.408 97.4305 63.8462 95.6069 64.9106 93.8459C66.6011 91.142 69.2304 89.004 72.1104 91.5822C72.8617 92.2738 73.4878 93.6572 72.6113 94.5376C71.234 95.8581 69.1052 93.7831 70.6077 92.3995C70.6704 92.2108 70.5452 92.0221 70.4199 91.9594C67.039 89.5699 65.975 95.6066 65.2861 98.7507H68.6043C69.9816 98.7507 70.2947 98.562 71.1713 98.3733C71.9852 98.1845 71.9852 98.4362 71.7974 99.1278L69.0425 108.246C68.9798 108.497 68.6667 109.252 68.9798 110.007C69.8563 111.013 71.7346 108.434 72.0477 108.057C72.3607 106.548 72.298 106.548 72.4859 105.73C73.112 101.832 76.6805 98.3103 80.75 98.3103C82.0646 98.3103 83.6299 98.9391 83.6299 100.448C83.6299 103.152 79.7484 102.083 81.3134 100.071C81.8767 99.3164 81.5637 99.1277 80.6873 99.1277C75.3031 99.1277 72.3605 110.698 77.557 110.698C79.3726 110.698 80.8751 109.44 82.0019 108.183L82.5028 108.561Z" fill="#002567"/>
<path d="M57.7734 93.5313C57.7734 91.6447 60.6533 91.582 60.6533 93.5313C60.6533 95.4808 57.7734 95.418 57.7734 93.5313Z" fill="#002567"/>
<path d="M54.7748 99.5042L54.8999 99.001C56.2147 98.8753 57.5296 98.6236 58.7816 98.3722C59.5955 98.1835 59.5955 98.4352 59.4077 99.1268L56.7156 108.245C56.5903 108.748 56.3399 109.565 56.6529 110.006C57.3415 111.012 59.2198 108.433 59.4701 108.056L59.9083 108.496C58.9692 109.88 57.2788 111.955 55.4633 111.955C53.3347 111.955 54.2111 109.125 54.5869 107.993L56.4026 101.516C56.9035 99.9443 56.4026 99.5042 54.7748 99.5042Z" fill="#002567"/>
<path d="M43.071 107.113C43.0085 102.775 47.0154 98.2471 51.398 98.2471C52.6502 98.2471 54.2151 98.8759 54.2151 100.385C54.2151 103.089 50.3961 102.02 51.9613 100.008C52.5247 99.2531 52.2117 99.0644 51.3352 99.0644C46.0762 99.0644 43.1338 110.635 48.2673 110.635C50.0203 110.635 51.5229 109.377 52.6499 108.12L53.0881 108.623C51.5856 110.321 49.6448 111.955 47.2657 111.955C44.824 111.955 43.3842 110.383 43.1336 107.994L43.071 107.113Z" fill="#002567"/>
<path d="M148.936 124.343C148.936 125.412 148.06 126.292 146.995 126.292C145.931 126.292 145.055 125.412 145.055 124.343C145.055 123.274 145.931 122.394 146.995 122.394C148.122 122.394 148.936 123.274 148.936 124.343ZM146.995 122.582C146.056 122.582 145.242 123.337 145.242 124.343C145.242 125.286 145.994 126.103 146.995 126.103C147.935 126.103 148.748 125.349 148.748 124.343C148.748 123.4 147.997 122.582 146.995 122.582Z" fill="#002567"/>
<path d="M146.312 125.412V123.148H147.126C147.314 123.148 147.439 123.148 147.502 123.211C147.565 123.274 147.627 123.337 147.69 123.4C147.753 123.526 147.753 123.589 147.753 123.715C147.753 123.903 147.69 124.029 147.627 124.155C147.565 124.28 147.44 124.343 147.252 124.343C147.314 124.406 147.377 124.406 147.377 124.469C147.44 124.532 147.502 124.658 147.565 124.784L147.878 125.412L147.564 125.412L147.314 124.972C147.189 124.783 147.126 124.658 147.126 124.595C147.064 124.532 147.001 124.469 147.001 124.469C146.938 124.469 146.876 124.406 146.813 124.406L146.563 124.406V125.412H146.312ZM146.563 124.154H147.064C147.189 124.154 147.252 124.154 147.314 124.091C147.377 124.091 147.439 124.028 147.439 123.966C147.502 123.903 147.502 123.84 147.502 123.777C147.502 123.651 147.439 123.588 147.377 123.526C147.314 123.463 147.189 123.4 147.064 123.4H146.5V124.154H146.563Z" fill="#002567"/>
</svg>
