<svg width="181" height="181" viewBox="0 0 181 181" fill="none" xmlns="http://www.w3.org/2000/svg">
<path d="M80.4293 84.3366L114.04 51.0032C117.738 47.6699 121.771 45.3366 126.813 43.6699H93.2016C92.8654 43.6699 92.5293 43.6699 91.8571 43.6699H91.1849H90.8488C89.8405 43.6699 88.8321 44.0033 87.8238 44.0033H87.1516C83.7904 45.0032 81.1016 46.3366 78.4127 48.3366C77.7404 49.0032 77.0682 49.3366 76.396 50.0032L35.7266 91.0032H63.6238C70.0099 91.0032 76.0599 88.6699 80.4293 84.3366Z" fill="#996A4E"/>
<path d="M76.3833 98L43.1083 131C39.7472 134.333 35.3778 137 30 138.333H63.6111C64.2833 138.333 64.9556 138.333 65.2917 138.333H65.6278C66.6361 138.333 67.6444 138 68.6528 138H69.325C72.35 137 75.375 135.667 78.0639 133.667C78.7361 133 79.4083 132.667 80.0806 132L121.422 91H93.525C87.1389 91 81.0889 93.6667 76.3833 98Z" fill="#84754E"/>
<path d="M135.199 69.6628C135.199 69.3294 135.199 69.3294 135.536 69.3294C139.233 68.3294 149.988 66.9961 149.988 66.9961C149.988 66.9961 139.233 66.3294 135.536 65.3294L135.199 64.9961C135.536 63.6628 138.897 59.3294 138.897 59.3294L133.183 63.3294C133.183 63.3294 132.847 63.3294 132.847 62.9961C131.838 57.3294 130.83 46.9961 130.83 46.9961C130.83 46.9961 130.158 57.3294 128.813 62.9961C128.813 62.9961 128.813 63.3294 128.477 63.3294L122.763 59.3294C122.763 59.3294 126.124 63.6628 126.797 64.9961C126.797 64.9961 126.797 65.3294 126.461 65.3294C122.763 66.3294 112.008 67.3294 112.008 67.3294C112.008 67.3294 122.763 68.3294 126.461 69.6628L126.797 69.9961C126.461 71.3294 123.099 75.3294 123.099 75.3294L128.813 71.9961C128.813 71.9961 129.149 71.9961 129.149 72.3294C130.158 77.9961 131.166 88.3294 131.166 88.3294C131.166 88.3294 131.838 77.9961 133.183 72.3294C133.183 72.3294 133.183 71.9961 133.519 71.9961L139.233 75.3294C139.233 74.9961 135.872 70.9961 135.199 69.6628Z" fill="#996A4E"/>
</svg>
