<svg width="181" height="181" viewBox="0 0 181 181" fill="none" xmlns="http://www.w3.org/2000/svg">
<path d="M67.9682 80.6516C67.9579 80.6645 67.9435 80.6739 67.9274 80.6783C67.9112 80.6828 67.8943 80.682 67.8792 80.676C67.8641 80.6701 67.8518 80.6594 67.8442 80.6457C67.8366 80.6319 67.8341 80.6159 67.8373 80.6002C70.2073 69.115 74.1013 57.555 80.4728 48.1202C84.6425 41.9487 89.8641 36.5556 96.1375 31.941C96.1535 31.9299 96.1716 31.9222 96.1907 31.9185C96.2098 31.9148 96.2293 31.9152 96.2479 31.9197C96.2666 31.9241 96.2839 31.9325 96.2987 31.9442C96.3135 31.9559 96.3255 31.9708 96.3338 31.9877C99.2928 37.7186 102.607 47.3589 98.0307 53.2113C94.7257 57.4523 88.9993 60.2874 84.8295 62.8236C77.4857 67.2888 72.5353 73.4401 67.9682 80.6516Z" fill="#EFBA16"/>
<path d="M65.7415 97.952C65.7424 97.9691 65.7375 97.9863 65.7276 98.0006C65.7178 98.0149 65.7036 98.0254 65.6876 98.0304C65.6715 98.0354 65.6546 98.0345 65.6397 98.0278C65.6248 98.0212 65.6128 98.0093 65.6059 97.9941C60.0291 87.6532 55.5789 76.28 54.3915 64.9396C53.6155 57.5225 54.15 50.0261 55.9949 42.4502C55.9996 42.4319 56.0081 42.4148 56.0199 42.4C56.0316 42.3852 56.0463 42.373 56.063 42.3642C56.0797 42.3554 56.0981 42.3502 56.117 42.3489C56.1359 42.3477 56.1548 42.3503 56.1725 42.3568C62.1374 44.8556 70.8883 50.1242 71.1454 57.5552C71.337 62.9359 68.7706 68.7976 67.2046 73.4216C64.4419 81.5766 64.6056 89.4747 65.7415 97.952Z" fill="#EFBA16"/>
<path d="M80.7294 68.887C80.7122 68.8936 80.6928 68.8937 80.6751 68.8873C80.6574 68.8809 80.6427 68.8685 80.6338 68.8526C80.625 68.8367 80.6227 68.8184 80.6274 68.8014C80.6321 68.7844 80.6435 68.77 80.6592 68.7609C89.8682 61.4933 100.288 55.1459 111.236 52.0165C118.401 49.9708 125.871 49.197 133.646 49.6952C133.666 49.6968 133.685 49.7025 133.702 49.7119C133.719 49.7214 133.734 49.7344 133.746 49.7499C133.758 49.7655 133.766 49.7833 133.769 49.8021C133.773 49.8209 133.772 49.8402 133.768 49.8587C132.342 56.1454 128.672 65.6549 121.403 67.1963C116.144 68.3172 109.936 66.8086 105.112 66.0706C96.6137 64.7722 88.8679 66.2995 80.7294 68.887Z" fill="#EFBA16"/>
<path d="M98.1013 68.0829C98.0854 68.0758 98.072 68.0633 98.0637 68.0476C98.0554 68.0318 98.0527 68.0139 98.0561 67.997C98.0595 67.9801 98.0687 67.9653 98.0822 67.9554C98.0956 67.9454 98.1124 67.941 98.1294 67.9428C109.858 68.3024 121.919 70.138 132.315 74.7807C139.115 77.8197 145.329 82.028 150.957 87.4055C150.971 87.4192 150.982 87.4356 150.989 87.4535C150.996 87.4715 150.999 87.4907 150.998 87.5097C150.998 87.5287 150.993 87.5472 150.984 87.5639C150.975 87.5806 150.963 87.5951 150.948 87.6064C145.811 91.5064 136.882 96.4246 130.324 92.9356C125.579 90.4088 121.792 85.2664 118.576 81.5999C112.911 75.145 105.997 71.3337 98.1013 68.0829Z" fill="#EFBA16"/>
<path d="M90.5215 113.44C102.183 113.44 111.637 103.994 111.637 92.3426C111.637 80.6908 102.183 71.2451 90.5215 71.2451C78.8599 71.2451 69.4062 80.6908 69.4062 92.3426C69.4062 103.994 78.8599 113.44 90.5215 113.44Z" fill="#EFBA16"/>
<path d="M75.1413 112.562C75.1536 112.575 75.1616 112.591 75.1638 112.608C75.166 112.626 75.1623 112.644 75.1533 112.658C75.1444 112.673 75.1307 112.683 75.1148 112.688C75.0989 112.693 75.0818 112.691 75.0665 112.684C64.1513 108.34 53.4323 102.488 45.2377 94.5663C39.8775 89.3818 35.4693 83.2974 32.0132 76.3132C32.0049 76.2959 32.0004 76.277 32 76.2578C31.9996 76.2386 32.0033 76.2196 32.0108 76.2019C32.0183 76.1842 32.0295 76.1684 32.0436 76.1553C32.0577 76.1423 32.0745 76.1324 32.0927 76.1264C38.2632 74.2161 48.351 72.6374 53.3248 78.1628C56.929 82.1609 58.7287 88.2935 60.5004 92.8428C63.623 100.858 68.8259 106.803 75.1413 112.562Z" fill="#EFBA16"/>
<path d="M111.906 78.6297C111.899 78.6139 111.896 78.5957 111.9 78.5782C111.904 78.5608 111.914 78.5453 111.927 78.5345C111.941 78.5238 111.958 78.5185 111.974 78.5197C111.991 78.5209 112.007 78.5284 112.019 78.5409C120.783 86.3503 128.843 95.5049 133.83 105.743C137.09 112.444 139.147 119.665 140.001 127.406C140.002 127.424 140 127.443 139.993 127.46C139.987 127.478 139.977 127.494 139.965 127.508C139.952 127.521 139.937 127.532 139.919 127.539C139.902 127.547 139.884 127.551 139.865 127.55C133.414 127.238 123.401 125.276 120.62 118.387C118.605 113.403 119.012 107.027 118.904 102.151C118.717 93.5572 115.866 86.1962 111.906 78.6297Z" fill="#EFBA16"/>
<path d="M115.709 95.6443C115.711 95.6251 115.72 95.607 115.735 95.5938C115.743 95.5873 115.751 95.5822 115.76 95.5789C115.769 95.5755 115.779 95.5739 115.789 95.5743C115.798 95.5746 115.807 95.5767 115.816 95.5807C115.824 95.5846 115.832 95.5902 115.838 95.5971C115.844 95.6041 115.848 95.6122 115.851 95.6211C115.854 95.63 115.855 95.6395 115.854 95.649C117.546 107.251 117.836 119.437 115.073 130.478C113.263 137.699 110.198 144.548 105.878 151.025C105.867 151.041 105.853 151.054 105.836 151.064C105.819 151.074 105.801 151.081 105.782 151.083C105.762 151.085 105.743 151.083 105.725 151.077C105.707 151.071 105.691 151.061 105.677 151.048C100.942 146.672 94.5377 138.741 96.8329 131.683C98.4924 126.574 102.905 121.954 105.958 118.148C111.334 111.445 113.881 103.977 115.709 95.6443Z" fill="#EFBA16"/>
<path d="M91.6681 117.733C91.6848 117.735 91.7006 117.743 91.7128 117.755C91.725 117.767 91.7328 117.782 91.735 117.799C91.7372 117.815 91.7336 117.832 91.7248 117.845C91.716 117.859 91.7026 117.868 91.6868 117.873C80.5518 121.549 68.5988 123.94 57.2488 123.137C49.8193 122.61 42.5409 120.784 35.4136 117.658C35.3963 117.65 35.3808 117.639 35.3683 117.625C35.3558 117.61 35.3465 117.593 35.3412 117.575C35.3359 117.557 35.3346 117.538 35.3374 117.519C35.3402 117.5 35.3471 117.482 35.3576 117.466C38.8495 112.048 45.5482 104.375 52.8968 105.411C58.2211 106.159 63.5362 109.694 67.8088 112.039C75.3443 116.163 83.1416 117.373 91.6681 117.733Z" fill="#EFBA16"/>
<path d="M107.743 111.021C107.757 111.011 107.774 111.006 107.791 111.007C107.809 111.008 107.826 111.014 107.838 111.025C107.851 111.036 107.859 111.051 107.861 111.068C107.864 111.084 107.86 111.101 107.85 111.114C101.684 121.1 94.0694 130.633 84.851 137.326C78.8176 141.701 72.0628 144.986 64.5865 147.181C64.5677 147.187 64.5479 147.188 64.5286 147.186C64.5092 147.183 64.4906 147.176 64.4742 147.165C64.4577 147.155 64.4438 147.141 64.4333 147.124C64.4229 147.107 64.4161 147.089 64.4135 147.069C63.6002 140.671 63.7825 130.479 70.0885 126.542C74.6463 123.683 80.9991 122.973 85.7859 122.016C94.2236 120.33 100.978 116.238 107.743 111.021Z" fill="#EFBA16"/>
</svg>
