<svg width="181" height="181" viewBox="0 0 181 181" fill="none" xmlns="http://www.w3.org/2000/svg">
<path d="M41 122.767C49.1658 112.457 59.2572 96.6791 72.748 88.0881C92.7108 75.3801 106.546 94.8527 115.55 111.594C122.676 124.868 130.378 139.473 140 146C115.752 138.7 106.136 98.6603 72.1477 105.461C59.5722 107.983 49.9087 117.181 41 122.767Z" fill="#00ACC8"/>
<path d="M132.861 145C119.986 137.94 97.8262 129.333 86.8721 116.955C83.8852 113.59 82.0954 110.408 81 107.244C106.081 109.523 115.191 135.514 132.861 145ZM88.7918 82.6963C93.7541 77.0707 100.219 71.882 106.438 67.195C119.691 57.2248 130.519 47.538 134.913 35C136.643 56.729 112.149 72.5077 105.361 92.2769C100.56 87.1177 95.065 83.4578 88.7918 82.6963Z" fill="#575656"/>
</svg>
