<svg width="181" height="181" viewBox="0 0 181 181" fill="none" xmlns="http://www.w3.org/2000/svg">
<path d="M105.709 112.499L112.709 117.458C122.139 124.139 131.566 130.818 140.989 137.494C142.724 138.723 144.993 137.58 144.993 135.427C145.01 74.8585 145.007 43.7417 144.985 42.0765C144.985 42.0638 144.982 42.0514 144.976 42.0404C144.97 42.0294 144.961 42.0201 144.951 42.0135C144.94 42.0069 144.928 42.0031 144.915 42.0025C144.903 42.0019 144.891 42.0046 144.879 42.0103C144.204 42.3425 142.641 43.0856 140.191 44.2395C140.186 44.2421 140.097 44.3012 139.923 44.4167C139.767 44.5218 139.658 44.5458 139.596 44.4887C139.591 44.4844 139.585 44.4814 139.579 44.4802C139.573 44.479 139.567 44.4795 139.561 44.4817C139.555 44.4839 139.549 44.4877 139.545 44.4927C139.541 44.4977 139.539 44.5038 139.538 44.5101C139.534 44.5361 139.515 44.5575 139.48 44.5744C138.924 44.834 138.616 44.978 138.556 45.0066C137.957 45.2967 137.494 45.6433 136.971 45.8029C136.258 46.019 135.857 46.2877 134.819 46.8231L134.809 46.8236L134.802 46.8173C134.798 46.8095 134.799 46.803 134.806 46.7978C134.809 46.7945 134.811 46.7903 134.811 46.7861C134.811 46.7818 134.808 46.7777 134.804 46.7746C134.8 46.7715 134.794 46.7696 134.788 46.7692C134.782 46.7688 134.776 46.77 134.771 46.7725C133.92 47.193 133.221 47.5305 132.675 47.7849C132.531 47.8524 132.4 47.9166 132.28 47.9776C131.298 48.4696 130.536 48.8285 129.994 49.0543C129.447 49.2827 128.846 49.5793 128.191 49.9441C128.16 49.9614 128.124 49.9684 128.089 49.9638C128.054 49.9593 128.022 49.9435 127.997 49.9187C127.979 49.9019 127.972 49.9155 127.977 49.9596C127.979 49.9745 127.976 49.9895 127.968 50.0028C127.96 50.016 127.949 50.0268 127.935 50.0336C126.042 50.9007 124.484 51.6372 123.262 52.2434L123.251 52.2472L123.242 52.2486L123.236 52.2472L123.237 52.2434C123.241 52.2356 123.243 52.2285 123.243 52.222L123.239 52.2203C123.239 52.2203 123.233 52.2209 123.229 52.222C123.225 52.2231 123.22 52.2247 123.215 52.2267C123.209 52.2287 123.204 52.2311 123.198 52.2337C122.306 52.6542 121.501 53.0546 120.783 53.4349C120.778 53.4376 120.771 53.4382 120.766 53.4368C120.76 53.4354 120.755 53.4319 120.752 53.4271C120.738 53.4064 120.726 53.3927 120.716 53.3862L120.712 53.3852L120.708 53.3862C120.618 53.433 119.855 53.8198 118.42 54.5466C118.348 54.583 118.291 54.5895 118.25 54.5661C117.269 55.0256 116.585 55.3741 116.199 55.6116C116.186 55.6191 116.171 55.6225 116.156 55.6215C116.141 55.6204 116.127 55.615 116.116 55.6058C116.054 55.5538 116.013 55.5843 115.991 55.6973C115.99 55.7018 115.987 55.7059 115.984 55.7091C115.98 55.7124 115.976 55.7146 115.972 55.7154C115.968 55.7162 115.963 55.7157 115.959 55.7139C115.955 55.712 115.952 55.7089 115.95 55.7051C115.94 55.6869 115.924 55.6759 115.902 55.672C115.894 55.6695 115.885 55.6702 115.877 55.6739L113.724 56.7622C113.697 56.7751 113.667 56.7824 113.637 56.7837C113.577 56.7863 113.537 56.7915 113.518 56.7992C112.827 57.1237 112.155 57.458 111.503 57.8019C111.498 57.8047 111.493 57.8059 111.488 57.8052C111.482 57.8044 111.478 57.8019 111.474 57.798L111.441 57.7591L111.439 57.761C111.363 57.8649 111.264 57.9298 111.141 57.9557C111.057 57.9743 110.991 57.9939 110.958 58.0102L106.397 60.2298C106.374 60.2411 106.349 60.2452 106.325 60.2414C106.282 60.235 106.24 60.2408 106.202 60.259C105.444 60.612 104.791 60.9475 104.243 61.2655L104.24 61.2669L104.235 61.2675C104.203 61.2636 104.178 61.2545 104.16 61.2402C104.154 61.2345 104.145 61.2309 104.137 61.2298C104.128 61.2288 104.12 61.2304 104.112 61.2344C103.354 61.5939 102.69 61.9281 102.118 62.2371C102.084 62.2565 102.052 62.2455 102.024 62.204L102.016 62.1982L102.005 62.1982L101.997 62.2041L101.993 62.2137C101.993 62.2643 101.932 62.3266 101.81 62.4006C101.784 62.4168 101.754 62.4251 101.723 62.4244C101.693 62.4237 101.663 62.4141 101.639 62.3967C101.612 62.3772 101.586 62.3889 101.56 62.4318C101.542 62.4616 101.489 62.496 101.4 62.5349C100.829 62.7816 100.277 63.0606 99.7454 63.3721C99.7017 63.3974 99.651 63.4076 99.601 63.4013C99.5599 63.3948 99.5323 63.3955 99.5182 63.4033C96.4106 64.8972 93.1843 66.4217 89.8392 67.9767C89.0764 68.331 88.3599 68.6886 87.6896 69.0494C87.6861 69.0517 87.6819 69.0527 87.6777 69.0524C87.6735 69.052 87.6696 69.0503 87.6665 69.0475L87.6279 69.0144C87.6229 69.0098 87.6166 69.007 87.6097 69.0063C87.6028 69.0056 87.5957 69.0071 87.5894 69.0105L83.0707 71.2319C83.0658 71.2344 83.0604 71.2359 83.0548 71.2362C83.0491 71.2366 83.0434 71.2358 83.0379 71.2339C83.0058 71.2235 82.9897 71.2112 82.9897 71.1969L82.9887 71.1931L82.9854 71.1905L82.9809 71.1898L82.9763 71.1911L73.6074 75.6807C73.5907 75.6885 73.5716 75.6896 73.5541 75.6838C73.5367 75.678 73.522 75.6658 73.513 75.6496C73.4886 75.6054 73.4649 75.6139 73.4417 75.6749C73.4328 75.6982 73.3801 75.7326 73.2838 75.7781C72.6867 76.0597 72.0234 76.3907 71.294 76.771C71.2856 76.7754 71.2771 76.7796 71.269 76.7835C71.2609 76.7873 71.2534 76.7907 71.247 76.7934C71.2405 76.7961 71.2352 76.7981 71.2314 76.7993C71.2276 76.8005 71.2247 76.8002 71.2247 76.8002C71.2273 76.795 71.2292 76.7827 71.2305 76.7632C71.2307 76.7584 71.2299 76.7536 71.2278 76.7492C71.2258 76.7449 71.2228 76.7411 71.219 76.7382C71.2152 76.7353 71.2107 76.7334 71.206 76.7327C71.2013 76.7319 71.1964 76.7324 71.192 76.734C71.1624 76.747 71.1451 76.7768 71.14 76.8236L71.1369 76.8301L71.1312 76.834L71.125 76.8337L71.1207 76.8294C71.104 76.8034 71.086 76.795 71.0668 76.8041C70.34 77.1649 69.5907 77.5459 68.8189 77.9469C68.8052 77.9546 68.7891 77.9579 68.7727 77.9567C68.7611 77.9567 68.7528 77.9528 68.7477 77.945C68.7428 77.9355 68.7316 77.9297 68.7164 77.929C68.7013 77.9283 68.6835 77.9326 68.6668 77.9411L66.6192 78.973L66.6145 78.9746L66.6096 78.9731L66.6056 78.969L66.6039 78.9633C66.6039 78.9399 66.6045 78.923 66.6058 78.9126L66.6065 78.9092L66.6047 78.9061L66.6007 78.9044L66.5962 78.9048L61.9868 81.1477L61.9816 81.1494L61.9761 81.1484L61.9718 81.145L61.9695 81.1399C61.9631 81.1088 61.9521 81.0874 61.9367 81.0757L61.9281 81.0731L61.9195 81.0752L61.9141 81.0813L61.9136 81.0893C61.9239 81.1399 61.8533 81.1964 61.7017 81.2587C60.8773 81.5949 60.1005 81.9823 59.3711 82.421C59.3622 82.4249 59.3529 82.4262 59.3441 82.4249L59.2497 82.4016C59.221 82.3953 59.191 82.3994 59.165 82.4132C57.9207 83.0596 57.1964 83.4289 56.9923 83.5211C56.8998 83.5626 56.8163 83.584 56.7418 83.5853C56.7164 83.5866 56.6915 83.5932 56.6687 83.6048L54.7001 84.6055L54.6925 84.6073L54.6847 84.6036C54.6744 84.5906 54.6815 84.5659 54.7059 84.5296L54.7073 84.5219L54.7045 84.5151L54.6986 84.5119L54.6924 84.514L52.6006 85.5809C52.5866 85.5878 52.5707 85.5899 52.5552 85.5871C52.5396 85.5844 52.5252 85.5767 52.5139 85.5653C52.4959 85.5472 52.4838 85.5478 52.4773 85.5673C52.4722 85.5842 52.4536 85.5997 52.4215 85.614C51.6073 85.9865 50.826 86.3746 50.0773 86.7783C50.0773 86.7601 50.067 86.7465 50.0503 86.7374C50.0429 86.7336 50.0387 86.728 50.0383 86.7215C50.038 86.7151 50.0415 86.7082 50.0484 86.7022C50.0553 86.6962 50.0651 86.6913 50.076 86.6885C50.0869 86.6857 50.0983 86.6851 50.1081 86.6868C50.1338 86.692 50.1531 86.692 50.1659 86.6868L50.1699 86.6832L50.1713 86.678L50.1699 86.6729L50.1659 86.6693C50.148 86.6628 50.1313 86.6634 50.1158 86.6712C49.2889 87.0931 48.4645 87.5142 47.6426 87.9348C47.6369 87.9377 47.6305 87.9391 47.6241 87.9389C47.6176 87.9387 47.6114 87.9369 47.6058 87.9336C47.6003 87.9303 47.5956 87.9257 47.5923 87.9201C47.589 87.9145 47.5871 87.9082 47.5868 87.9017C47.5868 87.8913 47.5996 87.877 47.6253 87.8588L47.6234 87.8569L42.8253 90.2185L42.8157 90.2193L42.8061 90.2146C42.7534 90.1692 42.7213 90.153 42.7097 90.166C42.7021 90.175 42.6923 90.1829 42.6808 90.1893L40.4696 91.3205C40.4611 91.3248 40.4516 91.3266 40.4422 91.3256C40.4327 91.3247 40.4237 91.321 40.4163 91.3151C40.4088 91.3092 40.4032 91.3012 40.4 91.2922C40.3968 91.2832 40.3963 91.2734 40.3984 91.2641C40.4009 91.2485 40.4093 91.2329 40.4234 91.2173L40.425 91.2124L40.4232 91.2076L40.4188 91.2049L40.4137 91.2056C40.1685 91.3731 39.5598 91.7105 38.5877 92.2181C38.5659 92.2284 38.5499 92.2284 38.5396 92.2181C38.5255 92.2038 38.5133 92.1953 38.503 92.1927C38.4805 92.1878 38.4569 92.1906 38.436 92.2009C38.4151 92.2111 38.398 92.2281 38.3874 92.2492C38.354 92.3154 38.2744 92.3732 38.1486 92.4225C38.141 92.4259 38.1326 92.4267 38.1245 92.4249C38.1165 92.4231 38.1092 92.4187 38.1038 92.4123C38.0984 92.406 38.0951 92.3981 38.0945 92.3897C38.0939 92.3814 38.096 92.3731 38.1004 92.366C38.1043 92.3595 38.1357 92.3453 38.1948 92.3232L38.1967 92.3212L38.1948 92.3193L38.1871 92.3154C38.1793 92.3133 38.1718 92.3116 38.1659 92.3105C38.16 92.3094 38.1543 92.3096 38.1543 92.3096C36.9588 93.065 36.5576 94.1325 36.9505 95.5123C36.9617 95.5536 36.9624 95.6197 36.9524 95.6992C36.9447 95.7667 36.9679 95.8355 37.0218 95.9056C37.2157 96.1626 37.5123 96.4286 37.9116 96.7038C38.1929 96.8972 38.5582 97.0484 39.0077 97.1574C39.642 97.3106 40.4471 97.5085 41.423 97.7513L41.4322 97.7512L41.4404 97.7474C41.4584 97.7357 41.4629 97.7195 41.4539 97.6987C41.4515 97.6945 41.4505 97.6896 41.451 97.6848C41.4515 97.68 41.4535 97.6754 41.4567 97.6718C41.4598 97.6681 41.4641 97.6656 41.4687 97.6645C41.4734 97.6634 41.4783 97.6638 41.4828 97.6656C42.9287 98.0654 44.8093 98.5158 47.1245 99.0168C48.1338 99.2348 49.2728 99.5074 50.5415 99.8345C50.6828 99.8708 50.8266 99.8832 50.973 99.8715C51.0253 99.8676 51.078 99.8722 51.129 99.8851C52.2321 100.188 53.7608 100.552 55.7152 100.979C55.8038 100.999 55.9219 101.026 56.0696 101.061C57.9662 101.509 59.4359 101.859 60.4786 102.11C60.7355 102.171 60.9403 102.205 61.0931 102.21C61.1187 102.211 61.1438 102.215 61.1682 102.221C62.1698 102.478 63.3037 102.751 64.5698 103.039C64.7457 103.078 64.928 103.127 65.1168 103.185C65.3081 103.244 65.5252 103.279 65.7679 103.292C65.782 103.292 65.7962 103.294 65.8103 103.298L75.3852 105.533C75.3904 105.534 75.3955 105.535 75.4007 105.535C75.6177 105.546 75.8334 105.583 76.0478 105.648C76.3329 105.735 76.5326 105.791 76.6469 105.817C80.5082 106.692 83.1541 107.306 84.5846 107.659C84.6193 107.667 84.6366 107.648 84.6366 107.601L84.6378 107.595L84.6418 107.59L84.6476 107.587L84.654 107.587L89.5926 108.814C89.5975 108.815 89.6037 108.814 89.61 108.812C89.6459 108.795 89.6658 108.766 89.6697 108.726C89.671 108.722 89.6722 108.723 89.6735 108.728C89.6761 108.744 89.6806 108.761 89.687 108.779L89.6909 108.783C92.0678 109.355 93.6934 109.736 94.5679 109.925C94.7336 109.961 94.8967 109.998 95.0572 110.036C97.4135 110.595 98.8999 110.944 99.5163 111.084C99.5933 111.102 99.6466 111.1 99.6761 111.078C101.05 111.423 102.539 111.78 104.143 112.147C104.388 112.203 104.583 112.231 104.728 112.231C104.758 112.231 104.788 112.235 104.817 112.242L105.709 112.499Z" fill="white"/>
<path d="M112.709 117.458C113.474 114.562 114.37 111.7 115.397 108.87C117.754 102.379 120.366 95.7894 123.233 89.101C129.823 73.7318 136.919 58.5262 144.253 43.6048C144.257 43.596 144.26 43.5865 144.26 43.5768C144.26 43.5672 144.258 43.5575 144.255 43.5486C144.251 43.5396 144.246 43.5315 144.239 43.5248C144.232 43.518 144.224 43.5128 144.215 43.5094L144.153 43.486C144.14 43.4805 144.125 43.4803 144.111 43.4853C144.097 43.4903 144.086 43.5002 144.078 43.5133L105.709 112.499L104.817 112.242C104.788 112.235 104.758 112.231 104.728 112.231C104.583 112.231 104.388 112.203 104.143 112.147C102.539 111.78 101.05 111.423 99.6761 111.078C99.6466 111.1 99.5933 111.102 99.5162 111.084C98.8999 110.944 97.4135 110.595 95.0572 110.036C94.8967 109.998 94.7336 109.961 94.5679 109.926C93.6935 109.736 92.0678 109.355 89.6909 108.783C89.6895 108.782 89.6884 108.781 89.6877 108.781C89.687 108.78 89.6867 108.779 89.687 108.779C89.6806 108.761 89.6761 108.744 89.6735 108.728C89.6722 108.723 89.671 108.722 89.6697 108.726C89.6659 108.766 89.6459 108.795 89.61 108.812C89.6037 108.814 89.5975 108.815 89.5926 108.814L84.654 107.587C84.6519 107.587 84.6497 107.586 84.6476 107.587C84.6455 107.587 84.6435 107.588 84.6418 107.59C84.6401 107.591 84.6387 107.593 84.6378 107.595C84.6369 107.597 84.6365 107.599 84.6366 107.601C84.6366 107.648 84.6193 107.667 84.5846 107.659C83.1541 107.306 80.5082 106.692 76.6469 105.817C76.5326 105.791 76.3329 105.735 76.0478 105.648C75.8334 105.583 75.6177 105.546 75.4006 105.535C75.3955 105.535 75.3903 105.534 75.3852 105.533L65.8103 103.298C65.7962 103.294 65.782 103.292 65.7679 103.292C65.5252 103.279 65.3082 103.244 65.1168 103.185C64.9281 103.127 64.7457 103.078 64.5698 103.039C63.3037 102.751 62.1698 102.478 61.1682 102.221C61.1438 102.215 61.1187 102.211 61.0931 102.21C60.9403 102.205 60.7355 102.171 60.4786 102.11C59.4359 101.859 57.9663 101.509 56.0696 101.061C55.9219 101.026 55.8038 100.999 55.7152 100.979C53.7608 100.552 52.2321 100.188 51.129 99.8851C51.078 99.8722 51.0253 99.8676 50.973 99.8715C50.8266 99.8832 50.6828 99.8708 50.5415 99.8345C49.2728 99.5074 48.1338 99.2348 47.1245 99.0168C44.8093 98.5158 42.9287 98.0654 41.4828 97.6656C41.4783 97.6638 41.4734 97.6634 41.4688 97.6645C41.4641 97.6656 41.4598 97.6681 41.4567 97.6718C41.4535 97.6754 41.4515 97.6799 41.451 97.6848C41.4505 97.6896 41.4515 97.6945 41.4539 97.6987C41.4629 97.7195 41.4584 97.7357 41.4404 97.7474C41.438 97.7492 41.4352 97.7506 41.4322 97.7512C41.4292 97.7519 41.426 97.7519 41.423 97.7513C40.4471 97.5085 39.642 97.3106 39.0077 97.1574C38.5582 97.0484 38.1929 96.8972 37.9116 96.7038C37.5123 96.4286 37.2157 96.1626 37.0218 95.9056C36.9678 95.8355 36.9447 95.7667 36.9524 95.6992C36.9624 95.6197 36.9617 95.5536 36.9505 95.5123C36.5576 94.1325 36.9588 93.065 38.1543 92.3096C38.1559 92.3091 38.16 92.3094 38.1659 92.3105C38.1718 92.3116 38.1793 92.3133 38.1871 92.3154C38.1897 92.3167 38.1922 92.318 38.1948 92.3193C38.1953 92.3193 38.1958 92.3195 38.1962 92.3199C38.1965 92.3202 38.1967 92.3207 38.1967 92.3212C38.1967 92.3217 38.1965 92.3222 38.1962 92.3226C38.1958 92.323 38.1953 92.3232 38.1948 92.3232C38.1357 92.3452 38.1043 92.3595 38.1004 92.366C38.096 92.3731 38.0939 92.3814 38.0945 92.3897C38.0951 92.3981 38.0984 92.406 38.1038 92.4123C38.1092 92.4186 38.1165 92.423 38.1245 92.4249C38.1326 92.4267 38.141 92.4259 38.1486 92.4225C38.2744 92.3731 38.354 92.3154 38.3874 92.2492C38.398 92.2281 38.4151 92.2111 38.436 92.2009C38.4569 92.1906 38.4805 92.1878 38.503 92.1927C38.5133 92.1953 38.5255 92.2038 38.5396 92.218C38.5499 92.2284 38.5659 92.2284 38.5877 92.218C39.5598 91.7105 40.1685 91.3731 40.4137 91.2056C40.4153 91.2048 40.4171 91.2046 40.4188 91.2049C40.4205 91.2053 40.4221 91.2062 40.4232 91.2076C40.4243 91.2089 40.4249 91.2106 40.425 91.2124C40.425 91.2142 40.4244 91.2159 40.4234 91.2173C40.4092 91.2329 40.4009 91.2485 40.3984 91.264C40.3963 91.2734 40.3968 91.2832 40.4 91.2922C40.4032 91.3012 40.4088 91.3092 40.4163 91.3151C40.4237 91.321 40.4327 91.3246 40.4422 91.3256C40.4516 91.3266 40.4611 91.3248 40.4696 91.3205L42.6808 90.1893C42.6923 90.1829 42.7021 90.175 42.7098 90.166C42.7213 90.153 42.7534 90.1692 42.8061 90.2146C42.809 90.217 42.8123 90.2186 42.8157 90.2193C42.8191 90.22 42.8224 90.2197 42.8253 90.2185L47.6234 87.8569C47.6239 87.8569 47.6244 87.8571 47.6248 87.8575C47.6251 87.8578 47.6253 87.8583 47.6253 87.8588C47.5997 87.877 47.5868 87.8913 47.5868 87.9017C47.5871 87.9082 47.589 87.9145 47.5923 87.9201C47.5956 87.9257 47.6003 87.9303 47.6058 87.9336C47.6114 87.9369 47.6176 87.9387 47.6241 87.9389C47.6305 87.9391 47.6369 87.9377 47.6426 87.9348C48.4645 87.5142 49.2889 87.093 50.1159 86.6712C50.1313 86.6634 50.148 86.6628 50.1659 86.6693C50.1676 86.6701 50.1689 86.6713 50.1699 86.6728C50.1709 86.6744 50.1713 86.6762 50.1713 86.678C50.1713 86.6798 50.1709 86.6816 50.1699 86.6832C50.1689 86.6847 50.1676 86.686 50.1659 86.6868C50.1531 86.692 50.1338 86.692 50.1081 86.6868C50.0983 86.6851 50.0869 86.6857 50.076 86.6885C50.0651 86.6913 50.0553 86.6962 50.0484 86.7022C50.0415 86.7082 50.038 86.7151 50.0383 86.7215C50.0387 86.7279 50.0429 86.7336 50.0504 86.7374C50.067 86.7465 50.0754 86.7601 50.0754 86.7783H50.0773C50.826 86.3746 51.6073 85.9865 52.4215 85.614C52.4536 85.5997 52.4722 85.5842 52.4773 85.5673C52.4838 85.5478 52.4959 85.5472 52.5139 85.5653C52.5252 85.5767 52.5396 85.5843 52.5552 85.5871C52.5707 85.5899 52.5866 85.5878 52.6006 85.5809L54.6924 84.514C54.6943 84.5125 54.6964 84.5117 54.6986 84.5119C54.7008 84.5121 54.7029 84.5132 54.7045 84.515C54.706 84.5169 54.7071 84.5193 54.7073 84.5219C54.7076 84.5246 54.7071 84.5273 54.7059 84.5296C54.6815 84.5659 54.6744 84.5906 54.6847 84.6035C54.687 84.6056 54.6897 84.6069 54.6925 84.6073C54.6953 84.6076 54.698 84.607 54.7001 84.6055L56.6687 83.6048C56.6915 83.5932 56.7164 83.5866 56.7419 83.5853C56.8163 83.584 56.8998 83.5626 56.9923 83.521C57.1964 83.4289 57.9207 83.0596 59.165 82.4132C59.191 82.3994 59.221 82.3953 59.2497 82.4015L59.3441 82.4249C59.3529 82.4262 59.3623 82.4248 59.3711 82.421C60.1005 81.9823 60.8773 81.5949 61.7017 81.2587C61.8533 81.1964 61.9239 81.1399 61.9136 81.0893C61.9129 81.0866 61.913 81.0838 61.9141 81.0813C61.9152 81.0788 61.9171 81.0766 61.9196 81.0752C61.922 81.0737 61.925 81.0729 61.9281 81.073C61.9311 81.0731 61.9341 81.0741 61.9367 81.0757C61.9521 81.0874 61.9631 81.1088 61.9695 81.1399C61.9698 81.1418 61.9706 81.1435 61.9718 81.145C61.973 81.1465 61.9744 81.1476 61.9761 81.1484C61.9778 81.1492 61.9797 81.1495 61.9816 81.1494C61.9834 81.1493 61.9852 81.1487 61.9868 81.1477L66.5961 78.9048C66.5976 78.9044 66.5992 78.9042 66.6007 78.9044C66.6022 78.9047 66.6036 78.9052 66.6047 78.9061C66.6057 78.9069 66.6063 78.908 66.6065 78.9092C66.6067 78.9103 66.6065 78.9115 66.6057 78.9126C66.6045 78.923 66.6039 78.9399 66.6039 78.9632C66.6041 78.9653 66.6046 78.9672 66.6056 78.969C66.6067 78.9707 66.608 78.9721 66.6096 78.9731C66.6112 78.9741 66.6128 78.9746 66.6145 78.9746C66.6162 78.9746 66.6179 78.974 66.6192 78.973L68.6668 77.9411C68.6835 77.9326 68.7013 77.9283 68.7164 77.929C68.7316 77.9297 68.7428 77.9355 68.7477 77.945C68.7528 77.9528 68.7611 77.9567 68.7727 77.9567C68.7891 77.9579 68.8052 77.9546 68.819 77.9469C69.5907 77.5459 70.34 77.1649 71.0668 76.8041C71.086 76.795 71.104 76.8034 71.1207 76.8294C71.1216 76.8314 71.1231 76.8329 71.1249 76.8337C71.1268 76.8345 71.129 76.8346 71.1312 76.834C71.1333 76.8333 71.1353 76.8319 71.1369 76.8301C71.1385 76.8282 71.1395 76.8259 71.1399 76.8236C71.1451 76.7768 71.1624 76.747 71.192 76.734C71.1964 76.7324 71.2013 76.7319 71.206 76.7326C71.2107 76.7334 71.2152 76.7353 71.219 76.7382C71.2228 76.741 71.2258 76.7448 71.2278 76.7492C71.2298 76.7536 71.2307 76.7584 71.2305 76.7632C71.2292 76.7827 71.2273 76.795 71.2247 76.8002C71.2253 76.8008 71.2276 76.8005 71.2314 76.7993C71.2352 76.7981 71.2405 76.7961 71.247 76.7934C71.2534 76.7907 71.2609 76.7873 71.269 76.7834C71.2771 76.7796 71.2856 76.7754 71.294 76.771C72.0234 76.3907 72.6867 76.0597 73.2838 75.778C73.3801 75.7326 73.4328 75.6982 73.4418 75.6749C73.4649 75.6139 73.4886 75.6054 73.513 75.6496C73.522 75.6658 73.5367 75.678 73.5541 75.6838C73.5716 75.6895 73.5907 75.6885 73.6074 75.6807L82.9763 71.1911C82.9777 71.1903 82.9793 71.1899 82.9809 71.1898C82.9825 71.1897 82.9841 71.1899 82.9854 71.1905C82.9868 71.1911 82.9879 71.192 82.9886 71.1931C82.9894 71.1942 82.9898 71.1955 82.9897 71.1969C82.9897 71.2112 83.0058 71.2235 83.0379 71.2339C83.0434 71.2358 83.0491 71.2365 83.0548 71.2362C83.0604 71.2359 83.0658 71.2344 83.0707 71.2319L87.5894 69.0105C87.5957 69.0071 87.6028 69.0056 87.6097 69.0063C87.6166 69.007 87.6229 69.0098 87.628 69.0144L87.6665 69.0475C87.6696 69.0503 87.6735 69.052 87.6777 69.0523C87.6819 69.0527 87.6861 69.0517 87.6896 69.0494C88.3599 68.6886 89.0764 68.331 89.8392 67.9766C93.1843 66.4217 96.4106 64.8972 99.5182 63.4033C99.5323 63.3955 99.5599 63.3948 99.601 63.4013C99.651 63.4076 99.7017 63.3974 99.7454 63.3721C100.277 63.0606 100.829 62.7816 101.4 62.5349C101.489 62.496 101.542 62.4616 101.56 62.4318C101.586 62.3889 101.612 62.3772 101.639 62.3967C101.663 62.4141 101.693 62.4237 101.723 62.4244C101.754 62.4251 101.784 62.4168 101.81 62.4006C101.932 62.3266 101.993 62.2643 101.993 62.2137C101.994 62.2102 101.995 62.2068 101.997 62.2041C101.999 62.2013 102.002 62.1992 102.005 62.1982C102.009 62.1971 102.012 62.1971 102.016 62.1982C102.019 62.1992 102.022 62.2012 102.024 62.204C102.052 62.2455 102.084 62.2565 102.118 62.2371C102.69 61.9281 103.354 61.5939 104.112 61.2344C104.12 61.2304 104.128 61.2288 104.137 61.2298C104.145 61.2309 104.154 61.2345 104.16 61.2402C104.178 61.2545 104.203 61.2636 104.235 61.2675C104.237 61.2675 104.239 61.2673 104.24 61.2669C104.242 61.2666 104.243 61.2661 104.243 61.2655C104.791 60.9475 105.444 60.612 106.202 60.259C106.24 60.2408 106.282 60.235 106.325 60.2414C106.349 60.2452 106.374 60.2411 106.397 60.2298L110.958 58.0102C110.991 57.9939 111.057 57.9743 111.141 57.9557C111.264 57.9298 111.363 57.8649 111.439 57.761C111.439 57.7605 111.439 57.76 111.44 57.7597C111.44 57.7593 111.441 57.7591 111.441 57.7591L111.474 57.798C111.478 57.8019 111.482 57.8044 111.488 57.8052C111.493 57.8059 111.498 57.8047 111.503 57.8019C112.155 57.458 112.827 57.1237 113.518 56.7992C113.537 56.7915 113.577 56.7863 113.637 56.7837C113.667 56.7824 113.697 56.7751 113.724 56.7622L115.877 55.6739C115.885 55.6702 115.894 55.6695 115.902 55.672C115.924 55.6759 115.94 55.6869 115.95 55.7051C115.952 55.7089 115.955 55.712 115.959 55.7139C115.963 55.7157 115.968 55.7162 115.972 55.7154C115.976 55.7146 115.98 55.7124 115.984 55.7091C115.987 55.7059 115.99 55.7018 115.991 55.6973C116.013 55.5843 116.054 55.5538 116.116 55.6058C116.127 55.615 116.141 55.6204 116.156 55.6215C116.171 55.6225 116.186 55.6191 116.199 55.6116C116.585 55.3741 117.269 55.0256 118.25 54.5661C118.291 54.5895 118.348 54.583 118.42 54.5466C119.855 53.8198 120.618 53.433 120.708 53.3862C120.709 53.3856 120.71 53.3852 120.712 53.3852C120.713 53.3852 120.714 53.3856 120.716 53.3862C120.726 53.3927 120.738 53.4064 120.752 53.4271C120.755 53.4319 120.76 53.4354 120.766 53.4368C120.771 53.4382 120.778 53.4376 120.783 53.4349C121.501 53.0546 122.306 52.6542 123.198 52.2337C123.204 52.2311 123.209 52.2287 123.215 52.2267C123.22 52.2247 123.225 52.2231 123.229 52.222C123.233 52.2209 123.236 52.2203 123.239 52.2203C123.241 52.2203 123.243 52.2209 123.243 52.222C123.243 52.2285 123.241 52.2356 123.237 52.2434C123.236 52.2449 123.235 52.2463 123.236 52.2472C123.237 52.2481 123.239 52.2486 123.242 52.2486C123.244 52.2486 123.248 52.2481 123.251 52.2472C123.255 52.2463 123.259 52.2449 123.262 52.2434C124.485 51.6372 126.042 50.9007 127.935 50.0336C127.949 50.0268 127.96 50.016 127.968 50.0028C127.976 49.9895 127.979 49.9745 127.977 49.9596C127.972 49.9155 127.979 49.9019 127.997 49.9187C128.022 49.9435 128.054 49.9593 128.089 49.9638C128.124 49.9684 128.16 49.9614 128.191 49.9441C128.846 49.5793 129.447 49.2827 129.994 49.0543C130.536 48.8285 131.298 48.4696 132.28 47.9776C132.4 47.9166 132.531 47.8524 132.675 47.7849C133.221 47.5305 133.92 47.193 134.771 46.7725C134.776 46.77 134.782 46.7688 134.788 46.7692C134.794 46.7696 134.8 46.7715 134.804 46.7746C134.808 46.7777 134.811 46.7818 134.811 46.7861C134.811 46.7903 134.809 46.7945 134.806 46.7978C134.799 46.803 134.798 46.8095 134.802 46.8173C134.803 46.8203 134.806 46.8225 134.809 46.8236C134.812 46.8247 134.816 46.8245 134.819 46.8231C135.857 46.2877 136.258 46.019 136.971 45.8029C137.494 45.6433 137.957 45.2967 138.556 45.0066C138.616 44.978 138.924 44.834 139.48 44.5744C139.515 44.5575 139.534 44.5361 139.538 44.5101C139.539 44.5038 139.541 44.4977 139.545 44.4927C139.549 44.4877 139.555 44.4839 139.561 44.4817C139.567 44.4795 139.573 44.479 139.579 44.4802C139.585 44.4814 139.591 44.4844 139.596 44.4887C139.658 44.5458 139.767 44.5218 139.923 44.4167C140.097 44.3012 140.186 44.2421 140.191 44.2395C142.641 43.0856 144.204 42.3425 144.879 42.0103C144.891 42.0046 144.903 42.0019 144.915 42.0025C144.928 42.0031 144.94 42.0069 144.951 42.0135C144.961 42.0201 144.97 42.0294 144.976 42.0404C144.982 42.0514 144.985 42.0638 144.985 42.0765C145.007 43.7417 145.01 74.8584 144.993 135.427C144.993 137.58 142.724 138.723 140.989 137.494C131.566 130.817 122.139 124.139 112.709 117.458Z" fill="#FFC80B"/>
<path d="M112.711 117.458L105.711 112.499L144.08 43.513C144.088 43.5 144.099 43.49 144.113 43.485C144.127 43.48 144.142 43.4803 144.155 43.4858L144.217 43.5091C144.226 43.5125 144.234 43.5178 144.241 43.5245C144.248 43.5312 144.253 43.5394 144.257 43.5483C144.261 43.5573 144.262 43.5669 144.262 43.5766C144.262 43.5863 144.26 43.5958 144.255 43.6045C136.921 58.5259 129.825 73.7316 123.235 89.1007C120.368 95.7891 117.756 102.379 115.4 108.87C114.372 111.7 113.476 114.562 112.711 117.458Z" fill="#FFE800"/>
</svg>
