<svg width="181" height="181" viewBox="0 0 181 181" fill="none" xmlns="http://www.w3.org/2000/svg">
<path d="M59.6973 138.991C60.9217 138.904 62.0194 138.174 62.5758 137.056L82.2966 97.4495L85.1281 135.735L85.1451 135.907C85.36 137.664 86.8423 139 88.6152 139H105.26C106.588 139 107.802 138.241 108.392 137.041L152.636 47.0954C153.173 46.0021 153.113 44.7054 152.475 43.668C151.837 42.6309 150.713 42 149.504 42H124.68C123.298 42 122.046 42.8208 121.485 44.0943L105.833 79.6021L103.413 45.2767C103.283 43.4307 101.76 42.0001 99.9259 42H80.4348C79.0811 42 77.8491 42.7885 77.272 44.0237L60.2855 80.3806L57.6025 45.256C57.462 43.4186 55.943 42 54.1162 42H31.4965C30.4944 42 29.5404 42.4336 28.8767 43.191C28.213 43.9484 27.9035 44.9572 28.0265 45.9604L39.0521 135.906L39.076 136.07C39.362 137.755 40.8123 139 42.5221 139H59.4515L59.6973 138.991ZM42.5221 135.473L31.4965 45.5273H54.1162L57.815 93.942L80.4348 45.5273H99.9259L103.339 93.942L124.68 45.5273H149.504L105.26 135.473H88.6152L84.8447 84.4745L59.4515 135.473H42.5221Z" fill="url(#paint0_linear_650_78777)"/>
<defs>
<linearGradient id="paint0_linear_650_78777" x1="90.5" y1="69.2507" x2="90.5" y2="135.473" gradientUnits="userSpaceOnUse">
<stop stop-color="#CD2B86"/>
<stop offset="1" stop-color="#1C1A97"/>
</linearGradient>
</defs>
</svg>
