<svg width="181" height="181" viewBox="0 0 181 181" fill="none" xmlns="http://www.w3.org/2000/svg">
<path d="M125.426 85.9715C125.375 85.9916 125.311 85.9782 125.234 85.9315C114.81 79.413 102.872 76.3363 90.3803 75.6409C77.8463 74.9405 65.9326 76.8265 54.6392 81.299C46.4339 84.5508 38.0622 90.3039 33.6242 97.9581C33.0896 98.8786 32.7113 99.8842 32.2625 100.64C32.2463 100.667 32.2214 100.687 32.1919 100.699C32.1624 100.71 32.1299 100.711 32.0997 100.702C32.0694 100.692 32.0432 100.673 32.0252 100.648C32.0072 100.622 31.9984 100.591 32.0002 100.56C33.0593 85.2562 49.0765 75.9861 62.3351 72.5542C79.3962 68.1318 98.5806 69.2624 114.391 77.4369C118.553 79.5881 122.253 82.3312 125.491 85.6664C125.513 85.6878 125.529 85.7144 125.538 85.7436C125.546 85.7729 125.548 85.804 125.541 85.8342C125.535 85.8644 125.521 85.8927 125.5 85.9167C125.48 85.9406 125.455 85.9595 125.426 85.9715Z" fill="#7A7F89"/>
<path d="M93.1419 96.1172C93.1352 96.1485 93.1387 96.1812 93.1521 96.2103C93.1654 96.2395 93.1878 96.2637 93.216 96.2794C93.2441 96.295 93.2766 96.3013 93.3087 96.2973C93.3407 96.2934 93.3706 96.2793 93.3941 96.2573C95.1424 94.6564 96.9478 93.9727 98.8105 94.2061C99.175 94.2502 99.5157 94.3935 99.7882 94.6174C100.061 94.8414 100.252 95.1356 100.339 95.4618C100.557 96.2756 100.565 97.1778 100.364 98.1683C99.8964 100.463 99.5568 102.256 99.345 103.546C99.3272 103.652 99.344 103.76 99.3931 103.856C99.4421 103.951 99.5207 104.029 99.6174 104.077L100.399 104.467C100.508 104.52 100.595 104.608 100.646 104.717C100.697 104.826 100.71 104.948 100.682 105.065C100.654 105.182 100.587 105.286 100.491 105.36C100.396 105.434 100.278 105.473 100.157 105.472H94.7507C94.6819 105.472 94.6148 105.451 94.559 105.411C94.5032 105.371 94.4614 105.315 94.4397 105.25C94.4179 105.185 94.4173 105.115 94.4378 105.05C94.4583 104.985 94.499 104.928 94.554 104.887L95.7795 103.971C95.9402 103.852 96.0843 103.714 96.2082 103.561C96.2889 103.465 96.4217 103.011 96.6066 102.201C97.0739 100.133 97.3244 98.5118 97.358 97.3378C97.3815 96.6408 97.0453 96.2306 96.3494 96.1072C93.273 95.5519 91.9769 101.54 91.7399 103.616C91.7283 103.722 91.7496 103.83 91.801 103.923C91.8523 104.017 91.9313 104.093 92.0274 104.142L92.6426 104.447C92.7521 104.502 92.8396 104.593 92.8911 104.704C92.9426 104.815 92.9552 104.939 92.9267 105.058C92.8982 105.177 92.8304 105.283 92.7341 105.359C92.6378 105.435 92.5186 105.477 92.3955 105.477H87.1859C87.0706 105.481 86.9581 105.442 86.8699 105.368C86.7817 105.294 86.724 105.191 86.7078 105.078C86.6916 104.964 86.718 104.849 86.782 104.754C86.846 104.659 86.9431 104.59 87.0548 104.562C87.7003 104.378 88.2181 104.07 88.6081 103.636C88.7037 103.532 88.7683 103.402 88.7947 103.261L91.1448 91.2245C91.1738 91.0756 91.1555 90.9215 91.0922 90.7834C91.029 90.6453 90.924 90.5302 90.7918 90.4541C90.7817 90.4474 90.5665 90.389 90.1462 90.279C90.012 90.244 89.897 90.1577 89.8254 90.0382C89.7539 89.9187 89.7315 89.7754 89.763 89.6386C89.8167 89.3952 89.958 89.2701 90.1866 89.2634C91.6693 89.2234 92.9839 89.1817 94.1304 89.1384C94.1757 89.1368 94.2207 89.1454 94.2622 89.1635C94.3037 89.1816 94.3406 89.2086 94.3701 89.2427C94.3996 89.2768 94.421 89.3171 94.4328 89.3605C94.4446 89.4039 94.4463 89.4494 94.438 89.4935L93.1419 96.1172Z" fill="#9B815D"/>
<path d="M72.443 92.2231C73.1675 91.5435 73.2987 90.5141 72.7361 89.9239C72.1735 89.3337 71.13 89.4062 70.4056 90.0858C69.6811 90.7655 69.5499 91.7949 70.1125 92.3851C70.6751 92.9753 71.7186 92.9028 72.443 92.2231Z" fill="#9B815D"/>
<path d="M119.099 103.341L118.403 105.297C118.38 105.36 118.338 105.414 118.283 105.453C118.228 105.491 118.162 105.512 118.095 105.512H113.077C113.021 105.512 112.966 105.498 112.918 105.471C112.869 105.444 112.828 105.405 112.799 105.358C112.77 105.311 112.753 105.257 112.75 105.202C112.748 105.147 112.76 105.092 112.784 105.042L120.067 90.7143C120.094 90.6603 120.136 90.6149 120.187 90.5831C120.239 90.5513 120.299 90.5343 120.359 90.5342H125.887C125.963 90.534 126.037 90.5605 126.096 90.6089C126.155 90.6573 126.195 90.7247 126.209 90.7993L129.039 105.137C129.048 105.184 129.046 105.233 129.034 105.279C129.022 105.325 128.999 105.368 128.969 105.405C128.938 105.442 128.899 105.471 128.855 105.492C128.812 105.512 128.764 105.522 128.716 105.522H123.728C123.641 105.522 123.558 105.488 123.496 105.427C123.435 105.366 123.4 105.283 123.4 105.197V103.451C123.4 103.409 123.392 103.366 123.375 103.327C123.359 103.287 123.335 103.252 123.304 103.221C123.274 103.191 123.238 103.167 123.198 103.151C123.158 103.134 123.116 103.126 123.073 103.126H119.406C119.339 103.126 119.273 103.147 119.218 103.185C119.163 103.224 119.121 103.278 119.099 103.341ZM122.316 94.5614L120.44 99.8243C120.425 99.8661 120.421 99.911 120.428 99.955C120.435 99.9989 120.453 100.04 120.48 100.076C120.508 100.112 120.544 100.14 120.585 100.159C120.626 100.178 120.672 100.187 120.717 100.184L122.765 100.044C122.84 100.039 122.911 100.005 122.961 99.9487C123.011 99.8925 123.036 99.8191 123.032 99.7442L122.674 94.6064C122.672 94.5645 122.656 94.5248 122.627 94.4943C122.599 94.4637 122.56 94.4441 122.518 94.4388C122.476 94.4335 122.432 94.4428 122.396 94.4652C122.359 94.4875 122.331 94.5215 122.316 94.5614Z" fill="#A0A0AB"/>
<path d="M108.268 95.882L106.912 102.811C106.878 102.983 106.883 103.16 106.927 103.329C106.971 103.498 107.051 103.656 107.164 103.791C107.276 103.926 107.417 104.035 107.577 104.109C107.736 104.183 107.91 104.222 108.087 104.222H109.408C109.485 104.222 109.559 104.247 109.62 104.293C109.682 104.338 109.726 104.402 109.748 104.475C109.77 104.547 109.768 104.625 109.742 104.697C109.717 104.768 109.668 104.83 109.605 104.872C108.246 105.759 106.777 105.931 105.197 105.387C103.573 104.832 103.916 102.871 104.183 101.445C104.429 100.138 104.798 98.2934 105.293 95.9121C105.301 95.8719 105.299 95.8305 105.289 95.791C105.278 95.7516 105.258 95.7152 105.232 95.6847C105.205 95.6541 105.171 95.6303 105.134 95.6151C105.096 95.5999 105.056 95.5936 105.015 95.5969L103.956 95.6669C103.878 95.6726 103.8 95.6587 103.728 95.6265C103.657 95.5942 103.594 95.5448 103.547 95.4825C103.5 95.4203 103.469 95.3473 103.458 95.2703C103.447 95.1932 103.455 95.1146 103.482 95.0416L103.538 94.8915C103.586 94.7593 103.672 94.6438 103.786 94.5594C103.899 94.475 104.036 94.4252 104.178 94.4162L105.237 94.3412C105.342 94.3336 105.441 94.2928 105.52 94.225C105.598 94.1572 105.651 94.0662 105.671 93.966L105.918 92.6803C105.957 92.484 106.045 92.3007 106.175 92.1476C106.304 91.9945 106.471 91.8765 106.659 91.8048L108.641 91.0394C108.7 91.0165 108.763 91.0096 108.825 91.0196C108.887 91.0295 108.945 91.0559 108.993 91.0958C109.041 91.1358 109.077 91.188 109.098 91.2467C109.119 91.3055 109.123 91.3686 109.11 91.4296L108.606 94.006C108.597 94.0543 108.599 94.104 108.612 94.1515C108.624 94.1991 108.647 94.2432 108.679 94.2809C108.711 94.3186 108.751 94.349 108.796 94.3698C108.84 94.3905 108.889 94.4013 108.939 94.4012H111.572C111.618 94.4011 111.665 94.4113 111.707 94.4311C111.75 94.4509 111.787 94.4797 111.817 94.5156C111.847 94.5515 111.869 94.5935 111.88 94.6386C111.892 94.6837 111.893 94.7307 111.884 94.7764L111.849 94.9565C111.821 95.1015 111.746 95.2333 111.634 95.3311C111.523 95.4289 111.382 95.4872 111.234 95.4968L108.5 95.6819C108.444 95.6844 108.391 95.7055 108.349 95.7418C108.307 95.7782 108.278 95.8276 108.268 95.882Z" fill="#9B815D"/>
<path d="M134.499 105.562H130.616C130.566 105.562 130.517 105.551 130.472 105.531C130.427 105.51 130.387 105.48 130.355 105.442C130.323 105.405 130.299 105.361 130.286 105.313C130.273 105.266 130.27 105.216 130.278 105.167L132.199 93.2556C132.213 93.1761 132.254 93.1038 132.316 93.0515C132.378 92.9993 132.456 92.9706 132.537 92.9705H136.421C136.47 92.9705 136.519 92.9813 136.564 93.0021C136.609 93.0228 136.649 93.053 136.682 93.0906C136.714 93.1282 136.737 93.1723 136.751 93.2198C136.764 93.2673 136.767 93.317 136.758 93.3657L134.837 105.277C134.824 105.357 134.783 105.429 134.721 105.481C134.659 105.533 134.58 105.562 134.499 105.562Z" fill="#A0A0AB"/>
<path d="M142.08 101.955C142.012 101.975 141.969 102.035 141.948 102.135C141.77 103.002 141.644 103.991 141.57 105.102C141.561 105.254 141.494 105.396 141.382 105.5C141.271 105.605 141.123 105.663 140.97 105.662H137.455C137.394 105.662 137.333 105.649 137.278 105.624C137.222 105.598 137.173 105.561 137.133 105.515C137.093 105.469 137.064 105.415 137.047 105.357C137.031 105.298 137.027 105.237 137.036 105.177L138.928 93.4706C138.943 93.3782 138.991 93.2944 139.063 93.2339C139.135 93.1734 139.227 93.1403 139.321 93.1404C141.563 93.1571 143.218 93.1687 144.283 93.1754C146.079 93.1904 148.444 93.6607 148.863 95.6868C149.36 98.1014 148.531 99.7673 146.376 100.685C146.341 100.7 146.309 100.722 146.282 100.75C146.256 100.778 146.236 100.811 146.224 100.847C146.211 100.883 146.207 100.921 146.21 100.958C146.214 100.996 146.226 101.032 146.245 101.065L148.57 105.052C148.606 105.113 148.624 105.182 148.624 105.252C148.624 105.322 148.606 105.391 148.571 105.452C148.535 105.512 148.485 105.563 148.423 105.598C148.362 105.633 148.293 105.652 148.222 105.652H143.895C143.762 105.652 143.633 105.612 143.525 105.536C143.417 105.461 143.335 105.355 143.29 105.232C143.189 104.942 142.89 103.905 142.392 102.12C142.349 101.96 142.244 101.905 142.08 101.955ZM142.927 96.4172L142.544 98.4233C142.533 98.4808 142.533 98.5398 142.545 98.5971C142.557 98.6544 142.581 98.7087 142.614 98.757C142.647 98.8053 142.69 98.8467 142.739 98.8787C142.788 98.9107 142.844 98.9327 142.902 98.9436L143.053 98.9686C143.255 99.0069 143.461 99.0101 143.661 98.978C143.86 98.9459 144.048 98.8792 144.215 98.7816C144.382 98.6841 144.524 98.5576 144.632 98.4094C144.741 98.2612 144.814 98.0942 144.848 97.918L144.884 97.7179C144.917 97.5416 144.911 97.3595 144.865 97.1821C144.819 97.0047 144.734 96.8354 144.615 96.6839C144.496 96.5325 144.345 96.4018 144.171 96.2994C143.998 96.1969 143.804 96.1248 143.603 96.087L143.451 96.062C143.393 96.0511 143.334 96.0517 143.276 96.0637C143.218 96.0756 143.164 96.0988 143.115 96.1318C143.066 96.1647 143.024 96.2069 142.992 96.2559C142.96 96.3049 142.938 96.3597 142.927 96.4172Z" fill="#A0A0AB"/>
<path d="M62.0633 95.892C62.0463 95.9357 62.0449 95.9839 62.0593 96.0286C62.0738 96.0732 62.1032 96.1116 62.1427 96.1373C62.1822 96.1631 62.2294 96.1746 62.2765 96.17C62.3235 96.1654 62.3675 96.145 62.4012 96.1121C63.4149 95.0615 64.474 94.056 65.8709 94.126C65.9693 94.1304 66.0645 94.1641 66.1443 94.2228C66.2242 94.2816 66.2852 94.3628 66.3198 94.4562C66.6022 95.2533 66.7031 95.832 66.6224 96.1921C66.5798 96.3829 66.493 96.5609 66.3683 96.7137C66.2435 96.8665 66.0837 96.9902 65.9004 97.0761C65.717 97.1621 65.5145 97.2081 65.3072 97.211C65.0999 97.2138 64.8929 97.1734 64.7009 97.0926C63.188 96.449 62.1776 96.9792 61.67 98.6835C61.2295 100.148 60.9236 101.724 60.7521 103.411C60.7325 103.592 60.7822 103.773 60.8914 103.919C61.0006 104.065 61.1615 104.166 61.3421 104.202L62.3054 104.387C62.3914 104.403 62.4682 104.45 62.5205 104.519C62.5729 104.589 62.5969 104.676 62.5878 104.762C62.5441 105.182 62.2869 105.399 61.8162 105.412C58.9987 105.502 57.1109 105.532 56.1527 105.502C55.9711 105.496 55.8367 105.467 55.7492 105.417C55.6881 105.385 55.637 105.336 55.6013 105.277C55.5657 105.218 55.5469 105.151 55.5469 105.082C55.5469 105.013 55.5657 104.946 55.6013 104.887C55.637 104.828 55.6881 104.779 55.7492 104.747L57.005 104.086C57.2035 103.982 57.3759 103.834 57.5094 103.655C57.6429 103.476 57.7342 103.269 57.7766 103.051L59.0929 96.3022C59.1068 96.2319 59.1066 96.1596 59.0924 96.0893C59.0781 96.0191 59.0501 95.9523 59.0098 95.8929C58.9695 95.8334 58.9178 95.7824 58.8576 95.7428C58.7975 95.7031 58.73 95.6756 58.6592 95.6619L58.1801 95.5718C58.0298 95.5444 57.8954 95.4621 57.8034 95.3412C57.7114 95.2203 57.6684 95.0695 57.683 94.9187C57.6975 94.7679 57.7686 94.628 57.8821 94.5266C57.9956 94.4252 58.1433 94.3697 58.2961 94.3711H61.9574C62.0495 94.3708 62.1382 94.4048 62.2057 94.4661C62.2731 94.5274 62.3141 94.6115 62.3205 94.7013C62.3474 95.0148 62.2617 95.4117 62.0633 95.892Z" fill="#9B815D"/>
<path d="M82.3183 103.226C82.3243 103.2 82.321 103.172 82.3091 103.149C82.2972 103.125 82.2772 103.106 82.2524 103.094C82.2276 103.083 82.1993 103.08 82.1719 103.085C82.1446 103.091 82.1198 103.105 82.1014 103.126C81.0272 104.417 79.8219 105.412 78.1829 105.657C75.9588 105.997 74.2391 104.387 74.2189 102.275C74.1584 96.1071 80.2607 92.5701 85.9292 94.8464C86.1141 94.9205 86.2726 95.047 86.3848 95.21C86.497 95.3729 86.5579 95.565 86.5596 95.7619C86.5664 96.3822 86.4722 97.151 86.2772 98.0681C85.7695 100.496 85.4316 102.155 85.2635 103.046C84.8298 105.334 84.2986 106.926 83.6699 107.823C81.8005 110.498 78.9394 111.484 75.0863 110.78C74.3669 110.647 73.6995 110.38 73.0842 109.98C72.9995 109.925 72.9383 109.84 72.9123 109.742C72.8862 109.645 72.8972 109.54 72.943 109.449L73.7348 107.899C73.763 107.842 73.8052 107.794 73.8574 107.758C73.9096 107.723 73.9701 107.701 74.0332 107.695C74.0962 107.689 74.1598 107.699 74.2179 107.724C74.276 107.749 74.3267 107.789 74.3652 107.838C75.8983 109.805 78.6216 109.88 80.4019 108.264C81.5769 107.198 82.0157 104.777 82.3183 103.226ZM82.2722 95.3129C81.9774 95.1784 81.6352 95.1535 81.2653 95.2396C80.8954 95.3256 80.5049 95.5211 80.1162 95.8147C79.7275 96.1082 79.3481 96.4943 78.9998 96.9507C78.6515 97.407 78.3411 97.9249 78.0862 98.4746C77.5714 99.5848 77.3143 100.757 77.3713 101.735C77.4284 102.712 77.7949 103.413 78.3903 103.685C78.6852 103.819 79.0273 103.844 79.3973 103.758C79.7672 103.672 80.1576 103.477 80.5464 103.183C80.9351 102.89 81.3144 102.504 81.6627 102.047C82.011 101.591 82.3215 101.073 82.5764 100.523C83.0911 99.413 83.3483 98.2404 83.2912 97.2633C83.2342 96.2862 82.8676 95.5846 82.2722 95.3129Z" fill="#9B815D"/>
<path d="M50.479 101.33C50.4859 101.376 50.5076 101.419 50.5409 101.453C50.5742 101.486 50.6174 101.508 50.6642 101.515C50.7109 101.522 50.7588 101.515 50.8008 101.493C50.8428 101.471 50.8767 101.437 50.8976 101.395L53.5705 96.1371C53.5879 96.1036 53.5984 96.067 53.6015 96.0295C53.6045 95.992 53.6001 95.9542 53.5884 95.9184C53.5766 95.8826 53.5579 95.8494 53.5332 95.8208C53.5085 95.7923 53.4783 95.7688 53.4444 95.7519L52.6022 95.3316C52.5005 95.2803 52.4192 95.1966 52.3712 95.0939C52.3232 94.9913 52.3114 94.8756 52.3375 94.7655C52.3637 94.6554 52.4263 94.5571 52.5155 94.4865C52.6046 94.4159 52.7151 94.377 52.8291 94.3761H56.4552C56.5706 94.3755 56.6827 94.4141 56.7729 94.4856C56.863 94.5571 56.9257 94.6571 56.9505 94.7689C56.9753 94.8807 56.9606 94.9976 56.909 95.1C56.8575 95.2024 56.772 95.2842 56.667 95.3316C55.924 95.6751 55.4281 96.062 55.1793 96.4923C54.3555 97.9097 52.8224 100.675 50.5799 104.787C50.3849 105.144 50.0285 105.402 49.5107 105.562C49.4271 105.587 49.3392 105.594 49.2527 105.584C49.1662 105.573 49.0829 105.545 49.0083 105.5C48.9338 105.456 48.8695 105.397 48.8196 105.326C48.7698 105.256 48.7355 105.176 48.7189 105.092L47.3421 98.1131C47.3389 98.0928 47.3294 98.0739 47.3149 98.0591C47.3004 98.0443 47.2817 98.0343 47.2613 98.0305C47.2408 98.0267 47.2197 98.0292 47.2008 98.0377C47.1819 98.0462 47.1661 98.0603 47.1555 98.0781C44.5936 102.22 43.1563 104.523 42.8436 104.987C42.6882 105.22 42.4677 105.399 42.2174 105.494C41.967 105.589 41.701 105.596 41.4618 105.512C41.1928 105.422 41.0264 105.179 40.9625 104.782C40.4212 101.44 39.9202 98.6284 39.4596 96.3472C39.4463 96.2815 39.415 96.2194 39.3688 96.1671L38.7233 95.4167C38.6441 95.325 38.5931 95.2128 38.5764 95.0932C38.5596 94.9737 38.5778 94.8519 38.6288 94.7423C38.6798 94.6327 38.7614 94.5399 38.864 94.475C38.9666 94.4101 39.0858 94.3758 39.2074 94.3761C41.2701 94.3811 44.0792 94.231 44.4675 94.5562C44.5134 94.5942 44.5481 94.6435 44.5682 94.6994C44.5884 94.7554 44.5934 94.8162 44.5829 94.8761C44.5723 94.9361 44.5464 94.9932 44.5078 95.0422C44.4691 95.0913 44.4188 95.1306 44.3616 95.1565C43.6892 95.46 43.1848 95.7368 42.8486 95.987C42.7427 96.068 42.6616 96.1768 42.6144 96.3014C42.5672 96.426 42.5558 96.5613 42.5813 96.6924L43.4488 101.11C43.4536 101.131 43.4646 101.151 43.4802 101.166C43.4959 101.181 43.5155 101.192 43.5366 101.196C43.5577 101.2 43.5794 101.198 43.5988 101.19C43.6181 101.182 43.6344 101.168 43.6455 101.15C44.5297 99.7691 45.8359 97.6546 47.564 94.8063C48.1036 93.9209 49.314 94.216 49.4149 95.2816C49.4149 95.2849 49.4502 95.485 49.5208 95.8819C49.9041 98.0298 50.2235 99.8458 50.479 101.33Z" fill="#9B815D"/>
<path d="M72.0243 94.3763C72.0561 94.3764 72.0875 94.3835 72.1162 94.3972C72.1449 94.411 72.1703 94.431 72.1905 94.4558C72.2107 94.4806 72.2253 94.5096 72.2332 94.5409C72.2411 94.5721 72.2421 94.6047 72.2362 94.6364L70.5618 103.221C70.5419 103.317 70.5437 103.414 70.5669 103.506C70.6812 103.983 71.0308 104.31 71.6158 104.487C71.7252 104.519 71.8193 104.589 71.8812 104.684C71.9431 104.779 71.9687 104.893 71.9535 105.006C71.9383 105.118 71.8833 105.221 71.7982 105.296C71.7132 105.372 71.6038 105.415 71.4898 105.417C68.9614 105.477 67.0702 105.506 65.8162 105.502C65.5774 105.502 65.4514 105.386 65.4379 105.152C65.4312 105.022 65.5052 104.885 65.6598 104.742C65.7943 104.615 66.2398 104.373 66.9963 104.017C67.1373 103.95 67.2604 103.851 67.3559 103.73C67.4513 103.608 67.5164 103.467 67.546 103.316L68.9228 96.4675C68.9416 96.373 68.9377 96.2754 68.9114 96.1825C68.8851 96.0895 68.8372 96.0038 68.7715 95.9322C68.6168 95.7687 68.3193 95.6153 67.8788 95.4719C67.7488 95.4321 67.6377 95.3471 67.5658 95.2325C67.4939 95.1179 67.4662 94.9814 67.4877 94.8481C67.5091 94.7148 67.5784 94.5937 67.6827 94.507C67.787 94.4204 67.9193 94.3739 68.0553 94.3763H72.0243Z" fill="#9B815D"/>
</svg>
