<svg width="300" height="102" viewBox="0 0 300 102" fill="none" xmlns="http://www.w3.org/2000/svg">
<path d="M13.3783 89.9001H20.1775L20.4873 88.4886H13.6709L14.5316 84.4779H21.6234L21.916 83.0664H13.2061L10.5381 95.6148H19.5406L19.8332 94.2033H12.4488L13.3783 89.9001Z" fill="black"/>
<path d="M61.0859 89.1771L66.6458 83.0664H64.6835L60.4146 87.9722L58.2629 83.0664H56.3179L59.1925 89.1771L53.3572 95.6148H55.3367L59.881 90.382L62.1876 95.6148H64.1671L61.0859 89.1771Z" fill="black"/>
<path d="M101.288 90.296H105.213C106.297 90.296 107.106 90.0205 107.881 89.4009C108.965 88.5402 109.585 87.232 109.585 85.8377C109.585 84.0131 108.518 83.0664 106.401 83.0664H101.202L98.5342 95.6148H100.152L101.288 90.296ZM101.581 88.8845L102.528 84.4779H105.867C107.21 84.4779 107.933 85.0631 107.933 86.1476C107.933 86.7673 107.743 87.3181 107.33 87.8345C106.762 88.5574 106.022 88.8845 104.92 88.8845H101.581Z" fill="black"/>
<path d="M145.329 90.2099H149.443C150.562 90.2099 151.182 90.6574 151.182 91.5009C151.182 91.7935 151.13 92.155 151.044 92.5337C150.631 94.255 150.631 94.255 150.631 94.8058C150.631 95.0812 150.648 95.2706 150.7 95.6148H152.645L152.731 95.2189C152.507 95.0124 152.37 94.6853 152.37 94.3066C152.37 94.1173 152.404 93.8247 152.473 93.446C152.8 91.6386 152.834 91.4148 152.834 91.0705C152.834 90.296 152.611 89.9517 151.802 89.4181C152.473 89.0394 152.748 88.85 153.058 88.5746C153.747 87.9377 154.211 86.7845 154.211 85.7173C154.211 83.8926 153.213 83.0664 151.01 83.0664H145.226L142.558 95.6148H144.176L145.329 90.2099ZM145.622 88.7984L146.552 84.4779H150.511C151.423 84.4779 151.87 84.5984 152.197 84.9599C152.421 85.2009 152.559 85.5967 152.559 86.0099C152.559 86.664 152.318 87.4041 151.939 87.8861C151.44 88.5058 150.7 88.7984 149.598 88.7984H145.622Z" fill="black"/>
<path d="M190.283 89.9001H197.082L197.392 88.4886H190.575L191.436 84.4779H198.528L198.821 83.0664H190.111L187.443 95.6148H196.445L196.738 94.2033H189.353L190.283 89.9001Z" fill="black"/>
<path d="M242.035 86.7496C242.139 86.2676 242.173 86.0438 242.173 85.7856C242.173 85.0282 241.812 84.2537 241.244 83.7545C240.538 83.1348 239.625 82.8594 238.283 82.8594C236.51 82.8594 235.116 83.3586 234.186 84.3225C233.48 85.0455 232.947 86.2676 232.947 87.1455C232.947 88.2299 233.704 89.1422 234.857 89.4692L237.801 90.2955C239.195 90.6914 239.746 91.1734 239.746 92.0168C239.746 92.5504 239.436 93.1873 238.937 93.6521C238.231 94.3062 237.216 94.616 235.839 94.616C233.893 94.616 232.998 93.9103 232.998 92.3266C232.998 92.1029 233.016 91.948 233.067 91.6209H231.57C231.449 92.0684 231.415 92.3439 231.415 92.7053C231.415 94.7881 232.964 96.0103 235.563 96.0103C237.388 96.0103 238.885 95.5111 239.901 94.5644C240.796 93.7553 241.398 92.516 241.398 91.5348C241.398 91.0701 241.261 90.6225 240.985 90.1922C240.607 89.5897 240.107 89.2455 239.298 89.0217L236.338 88.1783C235.012 87.7996 234.599 87.4553 234.599 86.6979C234.599 86.0782 234.84 85.5618 235.357 85.0971C235.994 84.5291 236.82 84.2537 237.973 84.2537C238.937 84.2537 239.66 84.443 240.039 84.7873C240.366 85.0799 240.589 85.6307 240.589 86.1299C240.589 86.2848 240.572 86.4053 240.521 86.7496H242.035Z" fill="black"/>
<path d="M286.025 86.7496C286.128 86.2676 286.163 86.0438 286.163 85.7856C286.163 85.0282 285.801 84.2537 285.233 83.7545C284.527 83.1348 283.615 82.8594 282.272 82.8594C280.499 82.8594 279.105 83.3586 278.176 84.3225C277.47 85.0455 276.936 86.2676 276.936 87.1455C276.936 88.2299 277.694 89.1422 278.847 89.4692L281.79 90.2955C283.185 90.6914 283.735 91.1734 283.735 92.0168C283.735 92.5504 283.426 93.1873 282.926 93.6521C282.221 94.3062 281.205 94.616 279.828 94.616C277.883 94.616 276.988 93.9103 276.988 92.3266C276.988 92.1029 277.005 91.948 277.057 91.6209H275.559C275.439 92.0684 275.404 92.3439 275.404 92.7053C275.404 94.7881 276.953 96.0103 279.553 96.0103C281.377 96.0103 282.875 95.5111 283.89 94.5644C284.785 93.7553 285.388 92.516 285.388 91.5348C285.388 91.0701 285.25 90.6225 284.975 90.1922C284.596 89.5897 284.097 89.2455 283.288 89.0217L280.327 88.1783C279.002 87.7996 278.589 87.4553 278.589 86.6979C278.589 86.0782 278.83 85.5618 279.346 85.0971C279.983 84.5291 280.809 84.2537 281.963 84.2537C282.926 84.2537 283.649 84.443 284.028 84.7873C284.355 85.0799 284.579 85.6307 284.579 86.1299C284.579 86.2848 284.562 86.4053 284.51 86.7496H286.025Z" fill="black"/>
<path d="M50.0094 2.05861L25.5168 58.3326C24.7056 60.1965 22.9782 62.0272 19.6753 62.1241C16.2199 62.1241 13.5227 59.4285 13.5227 55.973C13.5227 52.5175 16.2199 49.8203 19.6753 49.8203H27.7353L31.9909 40.0426L19.6753 40.027C10.9265 40.027 3.72925 47.2242 3.72925 55.973C3.72925 64.7219 10.9265 71.9191 19.6753 71.9191C26.4035 71.9191 32.0935 67.6127 34.5958 61.689L50.0349 25.139L48.5368 50.8248H40.8245L36.452 60.8693H47.951L47.2974 72.0819H58.7764L60.9077 2.05859L50.0094 2.05861ZM75.4118 8.76765L60.956 72.0819H71.1602H87.2962L89.6127 61.9353H73.4767L85.6164 8.76765H75.4118ZM104.02 8.76765L96.9401 39.777H89.9987L87.7328 49.7014H94.6742L89.5644 72.0819H99.7686C101.472 64.6217 103.175 57.1616 104.878 49.7014H110.648C118.365 49.7014 126.119 43.4822 127.795 35.9498L130.77 22.5816C132.446 15.0493 127.46 8.83003 119.743 8.83003H114.21C114.215 8.80923 114.22 8.78842 114.224 8.76762L104.02 8.76765ZM136.723 8.76765L122.267 72.0819H132.471C137.29 50.9772 142.109 29.8724 146.927 8.76765H136.723ZM149.578 8.76765L135.122 72.0819H145.326L152.589 40.1933L159.982 72.0819H166.228C171.047 50.9772 175.866 29.8724 180.684 8.76765H170.48L163.086 41.0635L155.6 8.76765H149.578ZM183.569 8.76765L169.113 72.0819H179.317C179.325 72.0481 179.332 72.0144 179.34 71.9806H195.507L197.8 61.9353H181.633C182.559 57.8835 183.484 53.8317 184.409 49.7799H195.505L197.798 39.735H186.702C188.295 32.761 189.887 25.787 191.479 18.813H207.646L209.94 8.76765H193.773L183.569 8.76765ZM111.944 18.7545H117.535C119.795 18.7545 121.094 20.3758 120.603 22.5816L117.628 35.9498C117.137 38.1557 115.117 39.777 112.857 39.777H107.144C108.744 32.7695 110.344 25.762 111.944 18.7545Z" fill="black"/>
<path d="M230.459 8.76758L203.239 72.0818H210.347L214.64 61.4719H229.467L228.863 72.0818H236.334L238.093 8.76758H230.459ZM256.675 8.76758L242.219 72.0818H249.26L263.716 8.76758H256.675ZM271.812 8.76758L257.356 72.0818H264.397L269.71 48.8123H276.847C277.02 48.8123 277.193 48.8055 277.366 48.7993L278.748 72.0818H286.131L284.773 46.7257C289.327 44.2967 293.012 39.9903 294.166 35.1133L297.149 22.5168C298.93 14.9908 294.049 8.81939 286.315 8.81939L271.812 8.76758ZM277.185 16.0695H284.599C288.334 16.0695 290.559 18.882 289.698 22.5168L286.716 35.1133C285.855 38.748 282.299 41.5625 278.563 41.5625H271.365L277.185 16.0695ZM231.899 18.8129L229.874 54.3458H217.523L231.899 18.8129Z" fill="#489FB6"/>
<path d="M24.6477 55.9521C24.6477 58.6251 22.4808 60.792 19.8079 60.792C17.1349 60.792 14.968 58.6251 14.968 55.9521C14.968 53.2791 17.1349 51.1123 19.8079 51.1123L27.201 51.0957L24.2467 57.8835" fill="#489FB6"/>
</svg>
