<svg width="300" height="105" viewBox="0 0 300 105" fill="none" xmlns="http://www.w3.org/2000/svg">
<g clip-path="url(#clip0_332_133436)">
<path d="M164.288 2.66421L163.749 3.38078C160.368 7.63148 157.869 10.8526 156.251 13.0443C152.896 17.5953 149.333 22.933 145.564 29.0575C142.46 34.0999 139.614 39.3752 137.024 44.8836C134.846 49.5106 133.101 53.8861 131.789 58.01C130.679 61.4964 130.05 65.0178 129.902 68.5744C129.876 69.173 129.592 69.4596 129.049 69.4343C128.266 69.3972 127.589 69.0102 127.019 68.2731L126.158 66.7522C125.224 63.1216 125.296 59.5816 126.374 56.1323C126.833 54.6621 127.573 52.7142 128.592 50.2886C132.058 42.0407 136.183 34.5649 141.128 26.6066C148.55 14.6656 152.989 7.51936 154.444 5.16783C155.461 3.52605 156.724 2.32591 158.232 1.56741C160.224 0.567132 162.172 -0.225486 164.053 0.18106C164.856 0.356547 165.272 1.00293 164.894 1.79847C164.753 2.0968 164.551 2.38538 164.288 2.66421Z" fill="#DF5F39"/>
<path d="M71.948 2.6295L71.3797 3.40457C62.8631 13.9777 55.2928 25.0656 48.6863 37.0543C45.8601 42.1805 43.3416 47.6342 41.1307 53.4156C39.7029 57.1554 38.659 60.7588 37.9988 64.2256C37.8758 64.8769 37.8006 65.5905 37.7732 66.3666C37.7351 67.5482 37.8348 68.7035 37.2898 69.3001C37.2519 69.3416 37.2058 69.3747 37.1543 69.3974C37.1029 69.4201 37.0472 69.4318 36.991 69.4317C36.1394 69.4278 35.4051 69.0583 34.7879 68.3232L33.8035 66.4397C33.4344 64.6867 33.2293 63.1113 33.1883 61.7132C33.1121 59.0429 33.9764 56.3111 35.0691 53.439C37.4187 47.2677 40.117 41.5507 43.1639 36.288C44.949 33.2014 46.7527 30.1771 48.575 27.2153C51.2293 22.8944 55.7312 15.5912 62.0808 5.30568C63.4715 3.05165 65.3865 1.5288 67.826 0.737161C68.9041 0.38911 72.4637 -0.72816 72.7859 1.1788C72.798 1.24744 72.7965 1.31766 72.7814 1.38543C72.7663 1.45319 72.738 1.51716 72.698 1.57365L71.948 2.6295Z" fill="#DF5F39"/>
<path d="M175.831 2.70002C175.588 2.93205 175.461 3.18944 175.447 3.47217C175.33 3.41952 175.233 3.44389 175.157 3.54529C173.144 6.1893 170.821 9.04097 168.99 11.5153C160.807 22.5915 153.553 34.2234 147.732 46.8761C144.673 53.5212 142.081 60.5436 141.676 67.7883C141.624 68.7272 141.07 70.2422 139.828 69.1454C139.226 68.6131 138.855 68.2738 138.714 68.1276L137.663 66.1738C137.42 64.9064 137.257 63.834 137.173 62.9566C136.781 58.8619 138.378 54.5858 140.015 50.7163C141.839 46.4013 143.925 42.0511 146.273 37.6659C147.336 35.6868 149.63 31.8348 153.158 26.1101C157.461 19.1315 161.402 12.7545 164.982 6.97899C166.318 4.82244 167.235 3.52579 167.733 3.08902C169.831 1.2464 173.033 -0.242319 175.795 0.208099C175.9 0.225492 176 0.263241 176.091 0.319241C176.933 0.849603 176.846 1.6432 175.831 2.70002Z" fill="#DF5F39"/>
<path d="M71.9453 2.62891L73.0586 2.95941C73.1304 2.98073 73.1986 3.01226 73.2607 3.053C74.0732 3.60286 74.1728 4.27556 73.5596 5.07111C71.1611 8.17334 69.3662 10.4985 68.1748 12.0467C60.9522 21.4373 54.5752 31.2821 49.0439 41.5813C45.6895 47.8228 42.792 54.4094 40.7324 60.92C39.6982 64.187 38.8223 67.6558 38.8516 71.0895C38.8535 71.2923 38.7656 71.6589 38.5879 72.1892C38.5518 72.2953 38.4816 72.3859 38.3887 72.4466C37.8359 72.8073 37.2148 72.8112 36.5254 72.4583C34.5068 71.4288 33.9004 68.4045 33.8008 66.4391L34.7852 68.3226C35.043 69.8757 35.9307 72.0488 37.7148 71.9962C37.8069 71.994 37.8946 71.9567 37.96 71.892C38.0254 71.8272 38.0634 71.74 38.0664 71.6481C38.1914 68.154 38.7969 64.6832 39.8828 61.2359C41.6348 55.6671 43.8369 50.2601 46.4893 45.015C51.3877 35.3281 57.0527 26.0448 63.4844 17.1651C66.2109 13.3999 69.2793 9.37055 72.6894 5.07696C72.8711 4.84882 73.0352 4.59827 73.1816 4.32529C73.2144 4.26452 73.2336 4.19743 73.238 4.12859C73.2423 4.05974 73.2318 3.99076 73.207 3.92635C73.1823 3.86194 73.1439 3.80362 73.0945 3.75537C73.0452 3.70711 72.9859 3.67006 72.9209 3.64673C72.4678 3.48685 71.9531 3.40593 71.377 3.40398L71.9453 2.62891Z" fill="#57A494"/>
<path d="M164.29 2.66406C165.772 2.73718 166.854 3.92465 165.746 5.3344C161.255 11.0524 156.553 17.0423 152.152 23.6348C149.697 27.3103 147.575 30.6407 145.786 33.6259C142.005 39.9318 138.7 46.4209 135.872 53.0933C134.159 57.1354 132.846 61.0176 131.932 64.7398C131.41 66.8574 131.103 69.1855 131.111 71.2855C131.113 71.6833 130.998 72.0586 130.766 72.4116C130.716 72.4859 130.645 72.543 130.563 72.5753C129.289 73.0784 127.924 72.1483 127.312 71.0574C126.567 69.7373 126.184 68.3022 126.16 66.7521L127.021 68.273C127.323 69.867 128.053 71.8559 129.934 72.0284C129.989 72.0337 130.046 72.0274 130.099 72.0101C130.152 71.9927 130.202 71.9646 130.243 71.9275C130.285 71.8904 130.319 71.8452 130.342 71.7946C130.365 71.744 130.378 71.6892 130.379 71.6336C130.417 69.7763 130.534 68.0244 130.862 66.3865C131.472 63.3194 132.408 60.1031 133.672 56.7376C135.756 51.1844 138.297 45.6526 141.295 40.1423C146.699 30.2078 152.823 20.8221 159.667 11.9854C161.345 9.81908 163.227 7.40807 165.313 4.75236C165.619 4.36044 165.592 3.99777 165.23 3.66434C165.012 3.46156 164.519 3.36699 163.751 3.38064L164.29 2.66406Z" fill="#57A494"/>
<path d="M175.832 2.69914C177.367 2.66112 178.492 3.83688 177.382 5.25833C173.28 10.5113 170.793 13.5589 167.605 18.0806C159.648 29.3645 153.177 40.1072 147.933 52.0433C146.747 54.7399 145.678 57.5965 144.725 60.6129C143.658 63.9842 143.016 67.414 142.797 70.9023C142.764 71.4444 142.591 71.9621 142.278 72.4554C142.226 72.5361 142.155 72.6033 142.07 72.6514C141.596 72.9165 141.059 72.8366 140.459 72.4115C138.464 70.9901 137.86 68.4601 137.664 66.173L138.716 68.1267C138.96 69.7314 139.771 71.0388 141.147 72.0489C141.195 72.0838 141.249 72.109 141.306 72.1229C141.363 72.1369 141.422 72.1393 141.48 72.13C141.539 72.1208 141.594 72.1 141.644 72.069C141.694 72.038 141.737 71.9973 141.771 71.9494C141.971 71.6647 142.083 71.2738 142.108 70.7766C142.416 64.5468 144.405 58.434 146.934 52.5815C149.523 46.5895 152.358 40.9369 155.438 35.6235C160.399 27.0753 165.729 19.1131 171.429 11.7367C173.003 9.69914 174.863 7.31738 177.01 4.59148C177.102 4.47378 177.151 4.32791 177.148 4.17897C177.145 4.03004 177.09 3.88735 176.992 3.77546C176.695 3.43229 176.181 3.33089 175.448 3.47128C175.462 3.18855 175.59 2.93117 175.832 2.69914Z" fill="#57A494"/>
<path d="M239.289 11.5588C239.041 11.7226 238.81 11.9595 238.595 12.2695C231.654 19.2803 225.177 26.4197 219.394 33.3778C213.708 40.2218 208.965 46.0645 205.164 50.906C204.248 52.0721 203.145 53.6056 201.854 55.5067C199.621 58.7971 196.604 59.4347 192.865 59.5897C191.693 59.6385 190.514 59.6014 189.326 59.4786C189.254 59.4728 189.185 59.5079 189.118 59.5839C188.9 59.4572 188.69 59.4006 188.488 59.4143C188.356 59.2368 188.222 59.0994 188.087 59.0019C187.188 58.3496 188.131 56.3579 188.401 55.5594C190.266 50.0803 192.162 44.57 194.09 39.0285C194.18 38.8666 194.227 38.6317 194.231 38.3236C194.459 37.686 194.776 36.0715 193.841 35.7849C192.731 35.4427 191.629 36.4956 190.979 37.3584C189.23 39.669 186.839 42.5996 183.789 46.5335C182.531 48.1577 180.746 50.6886 178.434 54.1262C176.139 57.5385 172.882 59.3519 168.663 59.5663C167.294 59.6346 165.94 59.6336 164.6 59.5634L164.005 59.3909C163.257 58.8722 163.092 57.9519 163.51 56.6299C165.149 51.4276 167.905 42.5996 171.78 30.1459C172.751 27.0222 173.628 23.9307 174.411 20.8714C174.581 20.2104 174.983 18.1835 175.615 14.7907C175.812 13.7407 175.756 12.9042 175.774 11.7665C175.789 10.9378 176.204 10.423 177.019 10.2222C178.669 9.81077 180.529 9.64113 182.6 9.71328C183.6 9.74837 184.414 9.89461 185.043 10.152C185.142 10.1927 185.234 10.2479 185.316 10.3158C185.974 10.8637 186.13 11.6037 185.784 12.5357C185.773 12.5661 185.772 12.5991 185.781 12.6293C185.803 12.6956 185.835 12.7365 185.878 12.7521C185.743 12.9257 185.661 13.1236 185.632 13.3459C182.506 23.4715 179.034 33.4743 175.891 43.5911C175.506 44.8254 175.677 45.7145 176.403 46.2585L177.054 46.3872C177.894 46.239 178.729 45.7321 179.559 44.8663C181.248 43.0998 182.349 41.8577 182.86 41.1402C188.696 32.9741 193.914 25.4633 198.514 18.6076C200.702 15.3435 204.64 14.9721 208.302 15.2177C210.279 15.3493 209.316 16.7562 209.087 17.8296C208.872 18.0265 208.795 18.242 208.856 18.476C208.731 18.5559 208.648 18.6436 208.607 18.7392C205.974 25.1133 203.653 31.6755 201.646 38.426C201.23 39.8211 200.494 41.9854 200.201 43.7023C200.049 44.5934 200.23 45.3977 200.743 46.1152C200.892 46.3317 201.119 46.4799 201.426 46.5598C201.992 46.6397 202.512 46.437 202.985 45.9514C204.914 43.9704 206.82 41.7787 208.703 39.3765C215.424 30.8127 221.491 22.2782 226.835 13.3049C227.301 12.5269 227.746 11.3073 228.449 10.5351C229.238 9.67136 230.262 9.21314 231.52 9.16049C234.17 9.04935 235.561 8.99085 235.692 8.985C236.746 8.92943 240.458 8.67205 240.153 10.2163C240.066 10.6697 239.57 11.1289 239.289 11.5588Z" fill="#DF5F39"/>
<path d="M54.1182 12.6444L53.7051 13.4838C53.0918 14.5757 52.4668 15.6744 51.8301 16.78C50.4023 19.2602 48.6416 21.4772 46.5479 23.431C46.126 23.8249 45.6533 24.129 45.1299 24.3435L44.2744 24.4605L43.4834 24.3201C43.4512 24.3145 43.4204 24.3025 43.393 24.2848C43.3655 24.2671 43.3419 24.244 43.3236 24.217C43.3053 24.19 43.2926 24.1595 43.2863 24.1275C43.2801 24.0955 43.2803 24.0625 43.2871 24.0306L44.2656 19.4386C44.3457 19.1403 44.3701 18.8264 44.3389 18.4969C44.3311 16.8024 43.5293 15.7232 41.9336 15.2591C38.6494 14.3056 35.3975 14.8116 33.1445 17.52C31.1367 19.9378 29.4873 22.5779 28.1963 25.4403C27.7451 26.4377 26.2539 29.924 27.8828 30.4739C28.0137 30.6299 28.2168 30.7215 28.4922 30.7488C32.4199 31.0861 36.3535 31.1846 40.293 31.0442C40.3434 31.0422 40.3937 31.0511 40.4403 31.0703C40.4869 31.0896 40.5288 31.1187 40.5631 31.1557C40.5974 31.1926 40.6232 31.2366 40.6387 31.2845C40.6543 31.3325 40.6593 31.3832 40.6533 31.4332C40.5713 32.1371 40.333 32.8683 39.9385 33.6268L39.25 34.4253C37.8818 35.7677 35.8838 35.7941 33.9063 35.797C29.709 35.797 27.4424 35.8019 27.1064 35.8116C25.2158 35.8584 23.6348 36.4444 22.3633 37.5694C21.4053 38.4176 20.3066 40.4065 19.7178 41.4009C16.5557 46.765 13.5205 51.9516 10.6123 56.9608C8.73926 60.1859 5.89551 61.7184 2.08105 61.5586C1.87793 61.4006 1.6875 61.3606 1.50977 61.4386L0.399414 61.1608C0.350095 61.1489 0.306211 61.1209 0.274848 61.0811C0.243486 61.0413 0.226475 60.9921 0.226563 60.9414V60.0289C0.226577 59.937 0.251882 59.846 0.299805 59.7657C1.5459 57.7047 8.05274 46.3535 19.8203 25.7123C21.7861 22.264 23.5645 18.8069 24.502 15.0368C24.8359 13.6973 24.2207 11.8547 26.0576 11.6675C32.5205 11.0152 39.4844 11.0357 46.6562 11.296C47.0673 11.3114 47.4748 11.2218 47.8398 11.0357C49.1621 10.363 50.5644 10.0598 52.0469 10.1261C52.6006 10.1524 53.5645 10.053 54.2383 10.3191C54.4029 10.3849 54.5407 10.504 54.6294 10.6573C54.7181 10.8105 54.7527 10.9892 54.7275 11.1644C54.6572 11.6499 54.4541 12.1432 54.1182 12.6444Z" fill="#DF5F39"/>
<path d="M138.916 13.4623C138.768 13.6905 138.683 13.9245 138.661 14.1643C134.11 22.9133 130.359 30.8834 127.408 38.0745C125.215 43.4171 122.697 49.5591 119.856 56.5006C119.289 57.8811 118.743 59.4966 118.218 61.347C118.112 61.7194 117.862 62.0392 117.468 62.3064C117.389 62.362 117.296 62.3962 117.198 62.4058C115.537 62.5871 113.706 61.3792 112.534 60.2941C112.38 60.0445 112.204 59.8778 112.007 59.794C111.562 58.6796 111.204 58.3901 111.573 56.9043C111.685 56.4577 112.032 55.5803 112.616 54.272C114.113 50.9201 115.898 47.6736 117.529 44.3686C117.647 44.197 117.731 43.9767 117.781 43.7076C118.356 42.1867 117.823 41.2176 116.185 40.8004C115.148 40.5352 113.969 40.3363 112.649 40.2037C110.541 39.9912 108.097 39.9873 105.316 40.192C104.847 40.2271 104.51 40.3607 104.305 40.5927C99.9806 45.4742 96.3565 51.7274 93.4327 58.0888C92.4893 60.1449 91.6602 61.2593 89.3516 61.1394L89.1231 61.1803L86.6153 61.233L85.88 61.1218C85.3194 61.0867 84.8419 60.9405 84.4473 60.6831C84.4083 60.6577 84.3757 60.6238 84.3523 60.5842C84.3289 60.5446 84.3153 60.5003 84.3126 60.455C84.2872 60.0942 84.3829 59.7579 84.5997 59.4459C88.3516 54.0058 92.0079 48.9839 95.5684 44.3803C95.7755 44.2048 95.9327 43.964 96.0401 43.6579L98.3809 40.9671C98.4011 40.9448 98.4138 40.9169 98.4175 40.8871C98.4212 40.8574 98.4156 40.8272 98.4016 40.8007C98.3875 40.7742 98.3656 40.7526 98.3388 40.739C98.3121 40.7253 98.2818 40.7202 98.252 40.7243L94.7393 41.166L93.8575 41.1572C93.4571 41.1494 93.0518 41.1348 92.6417 41.1133C92.5149 41.1077 92.3941 41.0579 92.2999 40.9725C92.2058 40.8871 92.1443 40.7714 92.1261 40.6454C92.0616 40.2096 92.3399 39.9405 92.5069 39.6334C93.8975 37.0908 96.0684 35.7697 99.0196 35.6703C100.094 35.6352 101.129 35.605 102.125 35.5796C102.91 35.5591 103.593 34.8221 104.396 33.9622C110.36 27.592 114.368 23.0352 119.563 18.0923C122.694 15.1149 126.585 12.1169 130.666 10.7979C132.539 10.1895 134.707 10.132 137.17 10.6253C138.803 10.9529 139.385 11.8986 138.916 13.4623ZM111.213 35.5182C111.539 35.6469 111.836 35.6693 112.104 35.5855C114.098 35.6732 115.428 35.6878 116.094 35.6293C117.52 35.5065 118.813 34.8669 119.973 33.7107C122.801 30.8931 124.804 27.5296 125.982 23.6201C126.081 23.5032 126.121 23.2643 126.102 22.9036C126.387 22.5682 126.531 22.0749 126.535 21.4236C126.537 20.981 126.373 20.67 126.043 20.4906C124.663 19.7448 121.733 21.9735 120.708 22.8977C115.886 27.2342 111.859 31.3114 108.629 35.1292C108.596 35.1677 108.574 35.2142 108.565 35.2639C108.556 35.3137 108.561 35.3649 108.578 35.4124C108.595 35.4599 108.625 35.502 108.664 35.5345C108.702 35.5669 108.749 35.5886 108.799 35.5972C109.641 35.7415 110.445 35.7151 111.213 35.5182Z" fill="#DF5F39"/>
<path d="M111.215 35.5186C111.541 35.6472 111.838 35.6697 112.105 35.5858" stroke="#9B8267" stroke-width="5"/>
<path d="M125.984 23.6209C126.084 23.5039 126.124 23.265 126.104 22.9043" stroke="#9B8267" stroke-width="5"/>
<path d="M188.491 59.414C188.692 59.4004 188.902 59.4569 189.121 59.5837L188.884 61.1631C188.86 61.3205 188.895 61.4811 188.981 61.615C189.068 61.7489 189.199 61.8471 189.353 61.8913C189.903 62.0532 190.507 62.1468 191.163 62.1721C193.083 62.2482 194.819 62.175 196.372 61.9527C199.19 61.5491 201.021 60.2066 202.571 57.9516C203.755 56.2319 204.546 55.0502 205.814 53.4592C211.973 45.7221 217.109 39.4172 221.225 34.5445C225.484 29.5022 230.286 24.1459 235.63 18.4757C237.08 16.9373 239.002 15.1619 240.423 13.448C240.517 13.3345 240.57 13.1951 240.574 13.0547C240.578 12.9143 240.531 12.7821 240.443 12.6817C240.324 12.5472 240.113 12.4575 239.811 12.4126C239.443 12.3561 239.039 12.3083 238.598 12.2693C238.813 11.9593 239.044 11.7224 239.292 11.5586C239.655 11.6171 239.993 11.6912 240.306 11.7809C241.574 12.1406 241.636 13.2813 240.874 14.1675C239.365 15.9195 237.411 17.686 235.592 19.6135C229.988 25.5644 225.135 30.988 221.031 35.8841C216.5 41.2871 211.791 47.0685 206.904 53.2281C205.432 55.0844 204.195 56.7788 203.195 58.3114C201.674 60.6395 199.678 62.0366 197.207 62.5026C194.799 62.9569 192.346 63.0369 189.848 62.7424C187.923 62.5143 187.929 60.8355 188.491 59.414Z" fill="#57A494"/>
<path d="M54.1181 12.6436C55.246 12.8805 56.119 13.0443 55.8466 14.4686C55.7724 14.8449 55.4315 15.5713 54.8241 16.6476C53.7304 18.5838 52.7479 20.2334 51.8768 21.5963C50.703 23.4312 49.2147 25.189 47.412 26.8697C46.6073 27.6204 45.5311 27.8944 44.1835 27.6916C44.1084 27.6801 44.0364 27.6535 43.972 27.6132C43.9076 27.5729 43.8522 27.5199 43.8091 27.4574C43.766 27.395 43.7362 27.3244 43.7215 27.2499C43.7068 27.1755 43.7075 27.0989 43.7235 27.0248L44.2743 24.4597L45.1298 24.3427L44.5497 26.665C44.5389 26.7078 44.5376 26.7525 44.546 26.7958C44.5543 26.8392 44.5721 26.8802 44.5981 26.9159C44.6241 26.9516 44.6577 26.9812 44.6964 27.0025C44.7351 27.0238 44.778 27.0364 44.8222 27.0394C45.5565 27.0842 46.1923 26.8697 46.7294 26.3959C48.6376 24.7171 50.3026 22.7234 51.7245 20.4147C52.8749 18.5448 53.9696 16.6174 55.0087 14.6324C55.2118 14.2483 55.2108 13.949 55.0058 13.7345C54.7245 13.4391 54.1239 13.4947 53.705 13.483L54.1181 12.6436Z" fill="#57A494"/>
<path d="M185.881 12.752C187.161 13.2345 187.281 14.577 186.927 15.7294C185.233 21.2163 183.736 26.1446 181.718 32.1404C180.138 36.8435 178.584 41.5923 177.057 46.3871L176.406 46.2584C178.205 40.4224 180.057 34.6577 181.961 28.9641C183.398 24.6646 184.786 20.3486 186.124 16.016C186.373 15.2088 186.616 13.7961 185.635 13.3457C185.664 13.1234 185.746 12.9255 185.881 12.752Z" fill="#57A494"/>
<path d="M138.916 13.4629C140.741 14.276 140.337 16.1712 139.616 17.5634C135.217 26.0551 131.189 34.732 127.531 43.5941C125.896 47.5523 123.649 53.0841 120.79 60.1894C120.249 61.5328 119.792 62.8597 119.419 64.17C119.018 65.5739 118.059 66.035 116.542 65.5534C114.794 64.9977 113.42 64.0345 112.42 62.6637C111.826 61.8487 111.688 60.8923 112.007 59.7945C112.204 59.8784 112.38 60.0451 112.534 60.2946C112.311 62.6608 114.892 64.3133 116.978 64.9392C118.645 65.4394 118.748 63.977 119.123 62.652C119.257 62.1743 119.441 61.6469 119.674 61.0697C123.992 50.3767 126.825 43.4274 128.173 40.2218C131.165 33.099 134.802 25.3678 139.086 17.0282C139.466 16.2824 139.965 14.4339 138.661 14.1648C138.682 13.925 138.767 13.691 138.916 13.4629Z" fill="#57A494"/>
<path d="M44.3389 18.4962C44.3701 18.8258 44.3457 19.1397 44.2656 19.438C42.707 18.3793 40.8916 17.9669 38.8193 18.2008C37.0186 18.4056 35.5352 19.1914 34.3691 20.5582C31.8359 23.5201 29.877 26.9167 28.4922 30.7482C28.2168 30.7209 28.0137 30.6293 27.8828 30.4733C27.957 30.0034 28.0566 29.6153 28.1816 29.3092C29.5557 25.9281 31.5771 22.4213 34.0967 19.713C34.6006 19.1709 35.2051 18.7137 35.9102 18.3412C38.5723 16.9393 41.3818 16.991 44.3389 18.4962Z" fill="#57A494"/>
<path d="M209.09 17.8291C210.391 17.8613 211.038 18.7387 210.508 19.9759C207.199 27.6993 204.255 36.1354 201.675 45.2841C201.524 45.8125 201.442 46.2376 201.429 46.5593C201.122 46.4794 200.895 46.3312 200.746 46.1148C200.84 45.7677 200.925 45.4557 201.001 45.1788C203.386 36.5039 206.39 27.8904 210.013 19.3383C210.051 19.2474 210.059 19.1465 210.036 19.0509C210.012 18.9554 209.958 18.8704 209.881 18.8089C209.646 18.6217 209.306 18.5106 208.858 18.4755C208.798 18.2415 208.875 18.026 209.09 17.8291Z" fill="#57A494"/>
<path d="M126.104 22.9043C126.123 23.265 126.083 23.5039 125.983 23.6209C124.618 24.0206 123.354 24.7333 122.189 25.7589C118.35 29.1439 114.988 32.4196 112.105 35.5862C111.838 35.67 111.541 35.6476 111.215 35.5189C114.654 31.6894 118.317 28.1231 122.204 24.82C123.333 23.8607 124.633 23.2221 126.104 22.9043Z" fill="#57A494"/>
<path d="M297.497 32.407C297.28 32.5707 297.087 32.7891 296.917 33.0621C295.472 34.8501 294.114 36.7259 292.845 38.6894C292.397 39.3816 291.682 40.6939 290.7 42.6262C290.095 43.8156 289.137 43.9082 287.826 42.904C287.697 42.67 287.496 42.4322 287.223 42.1904C286.779 41.2934 286.623 40.3565 286.754 39.3797C286.873 39.2685 286.915 39.0238 286.88 38.6455C287.1 38.1659 287.227 37.617 287.261 36.9989C287.292 36.4334 287.023 36.1604 286.455 36.1799C284.603 36.2404 282.912 36.7776 281.381 37.7915C279.465 39.0609 279.016 40.727 280.036 42.79L280.596 43.5387C281.398 44.3206 282.558 45.394 284.076 46.7589C285.336 47.8918 286.126 49.3093 286.446 51.0115C286.286 51.4639 286.28 51.9114 286.429 52.354C285.95 54.4579 284.812 56.2888 283.016 57.8468C280.053 60.4167 276.732 62.1014 273.055 62.9008C272.529 63.0159 271.236 63.2255 269.176 63.5297H265.686C264.046 63.3951 263.135 62.857 262.953 61.9152C262.936 61.8256 262.938 61.7335 262.959 61.6448C262.979 61.556 263.019 61.4726 263.074 61.4001C263.129 61.3275 263.199 61.2674 263.279 61.2236C263.36 61.1798 263.448 61.1534 263.539 61.1459C267.941 60.7852 271.911 59.3345 275.448 56.7939C277.068 55.6269 278.299 54.4891 278.99 52.7401C279.022 52.659 279.023 52.5694 278.993 52.4886L278.949 52.3716C279.172 52.2721 279.24 51.9338 279.154 51.3567C278.791 48.3792 276.418 47.4959 274.493 45.5948C274.255 45.3609 273.991 45.1473 273.702 44.9543C273.651 44.539 273.432 44.2387 273.043 44.0535C272.955 43.5992 272.835 43.1244 272.682 42.6291C272.472 41.9388 272.543 40.9941 272.896 39.795L274.062 37.9904C276.743 35.1972 280.329 33.5213 284.135 33.027C284.93 32.9237 286.581 32.7882 289.089 32.6205C290.231 32.5444 291.137 31.3423 291.925 30.8246C293.729 29.645 295.781 29.4295 298.08 30.1783C298.637 30.3596 298.839 30.7037 298.686 31.2107C298.656 31.309 298.593 31.3937 298.508 31.4505C298.119 31.706 297.782 32.0248 297.497 32.407Z" fill="#DF5F39"/>
<path d="M79.5836 34.2637L79.1734 34.9247C75.4547 41.3124 71.7564 47.7343 68.0787 54.1903C65.0631 59.4861 61.1871 66.1829 56.4508 74.2807C54.8726 76.9773 53.0553 79.8407 50.9986 82.8708C46.815 89.0362 42.274 94.0815 36.4879 98.5125C34.3814 100.127 32.3043 100.925 29.8404 101.508C29.026 101.698 28.5543 101.195 27.9068 100.89C27.7095 100.563 27.4508 100.312 27.1304 100.139C25.8355 94.9414 27.5054 89.7967 29.9166 85.0029C33.4381 77.9981 38.4595 71.5021 44.7613 66.8371C46.5933 65.4839 48.6519 64.4553 50.9371 63.7514C51.8365 63.4765 52.2584 63.5584 53.1519 63.7368C53.1751 63.7416 53.1964 63.7527 53.2135 63.7691C53.2306 63.7854 53.2428 63.8062 53.2486 63.8291C53.2544 63.8519 53.2536 63.876 53.2464 63.8985C53.2391 63.9209 53.2257 63.9409 53.2076 63.9561L49.109 67.3167C48.5074 67.7359 48.0201 68.2283 47.647 68.7937C47.0318 69.2442 46.5533 69.6624 46.2115 70.0485C42.7017 74.0242 39.7388 78.3724 37.3228 83.093C36.2877 85.117 35.5582 87.3915 35.1344 89.9166C34.9722 90.8837 35.1558 91.613 35.6851 92.1043C35.8922 92.3403 36.1168 92.4339 36.359 92.3851C37.2672 92.8443 38.4683 91.5896 39.0719 90.9227C42.1597 87.5085 44.9732 83.8847 47.5123 80.0513C50.0181 76.2685 52.3697 72.3688 54.567 68.3521C56.8111 64.2535 58.9537 60.0515 60.9947 55.7463C61.2369 55.366 61.3502 54.9644 61.3345 54.5412C61.9127 53.9329 62.1402 53.1315 62.0172 52.1371C61.9937 51.9401 61.9615 51.827 61.9205 51.7978C61.8365 51.7343 61.735 51.698 61.6297 51.6938C61.5244 51.6896 61.4204 51.7178 61.3316 51.7744L59.0582 53.1988C58.986 53.2455 58.9175 53.2973 58.8531 53.3538C56.5719 55.3446 54.0933 56.9366 51.4176 58.13C49.7554 58.8709 48.1168 58.9674 46.5015 58.4195C46.3726 58.1602 46.1441 57.9827 45.816 57.8872C45.3179 56.8479 45.189 55.7121 45.4293 54.4798C45.7125 53.0233 46.0367 51.8183 46.4019 50.8648C47.9019 46.9436 49.7789 43.2584 52.0328 39.8091C52.6558 38.8575 53.3687 37.9001 54.1715 36.9369C56.3922 34.2695 57.939 32.5878 61.5162 32.6726C61.8297 32.6813 62.4361 32.6229 62.7965 32.81C62.868 32.8474 62.9314 32.8987 62.9825 32.9604C63.0336 33.0222 63.0712 33.0932 63.093 33.1687C63.1149 33.2443 63.1203 33.3227 63.1091 33.3989C63.0979 33.4752 63.0702 33.5476 63.0279 33.6114L61.9498 35.2347L61.4547 35.9425C60.109 37.672 58.8345 39.4815 57.6314 41.3709C56.3892 43.3227 55.3931 45.3827 54.6431 47.551C54.2506 48.6829 54.1539 49.7124 55.0094 50.543C55.273 50.699 55.5084 50.7546 55.7154 50.7098C57.2232 50.3471 58.3668 49.8879 59.1461 49.3322C63.5797 46.1617 67.2496 42.4638 70.1558 38.2385C71.2027 36.7176 71.8443 35.7807 72.0806 35.4277C72.9791 34.0921 73.6832 33.2449 74.1929 32.8861C75.6363 31.8722 77.2349 31.4802 78.9888 31.7103C79.5064 31.7766 79.8678 31.8926 80.0728 32.0584C80.2326 32.1865 80.3347 32.3737 80.3576 32.5805C80.3806 32.7873 80.3226 32.9975 80.1959 33.1669C79.9322 33.5178 79.7281 33.8834 79.5836 34.2637Z" fill="#DF5F39"/>
<path d="M273.306 34.2462C273.089 34.4353 272.998 34.6498 273.031 34.8896C272.896 34.9618 272.816 35.0193 272.791 35.0622C270.13 39.4435 267.762 43.5372 265.686 47.3434C262.063 53.9885 258.477 60.424 254.928 66.6499C251.563 72.558 247.761 78.4865 243.523 84.4356C240.566 88.5868 237.187 92.4544 233.386 96.0382C230.735 98.5389 227.879 100.636 224.196 101.423C223.147 101.647 222.248 101.44 221.498 100.803C221.265 100.344 221.034 100.142 220.803 100.194C220.69 99.5333 220.552 98.8431 220.39 98.1236C220.218 97.3651 220.284 96.0138 220.587 94.0698C221.137 90.5221 222.362 87.5739 224.167 84.07C227.805 76.9891 233.199 70.3995 239.685 65.9948C240.326 65.5599 241.32 65.0159 242.668 64.3627C243.912 63.7583 245.212 63.5048 246.567 63.6023C246.601 63.6047 246.634 63.6141 246.664 63.63C246.694 63.646 246.72 63.668 246.741 63.6947C246.762 63.7215 246.778 63.7523 246.786 63.7853C246.794 63.8182 246.795 63.8525 246.79 63.886C246.719 64.2838 246.409 64.6113 246.069 64.819C245.04 65.4547 244.054 66.2005 243.113 67.0565C242.423 67.4991 241.836 68.0684 241.349 68.7645C240.685 69.3047 240.214 69.7317 239.937 70.0456C237.021 73.3506 234.478 76.8808 232.308 80.6363C230.468 83.8155 229.042 87.1673 228.924 90.8789C228.905 91.5574 229.103 92.0205 229.519 92.2682C229.607 92.4359 229.818 92.5226 230.152 92.5285C230.99 92.2477 231.821 91.7339 232.645 90.9871C233.922 89.8289 234.878 88.8569 235.51 88.0711C240.245 82.204 244.194 75.7899 247.988 68.7938C250.394 64.354 252.537 60.0964 254.416 56.0212C254.632 55.7658 254.792 55.4041 254.893 54.9361C255.512 54.0918 255.734 53.0935 255.558 51.9411C255.553 51.9072 255.54 51.875 255.52 51.8473C255.499 51.8196 255.473 51.7974 255.442 51.7826C255.411 51.7679 255.377 51.761 255.343 51.7626C255.31 51.7642 255.277 51.7743 255.248 51.792C254.101 52.4764 253.314 52.9365 252.886 53.1725C250.683 54.3833 248.129 56.457 246.529 57.3959C244.762 58.4313 242.29 59.1186 240.254 58.4108C240.045 58.1651 239.811 58.0345 239.553 58.0189C239.012 56.5292 238.952 54.9391 239.372 53.2485C239.69 51.9714 240.215 50.4729 240.948 48.7531C243.12 43.6523 245.924 39.1393 249.362 35.2143C250.893 33.4633 252.934 32.6044 255.485 32.6375C255.813 32.6414 256.166 32.7526 256.543 32.9709C256.58 32.9933 256.61 33.0264 256.628 33.0657C256.646 33.105 256.651 33.1486 256.642 33.1903C256.504 33.8767 256.195 34.524 255.716 35.1324C255.527 35.3781 255.408 35.6413 255.359 35.9221C255.187 35.9884 255.028 36.1278 254.881 36.3403C253.641 38.1459 252.407 39.9612 251.178 41.7863C249.429 44.3835 248.668 46.1091 248.149 48.8438C247.977 49.7602 248.197 50.3423 248.808 50.5899L249.505 50.704C251.109 50.3803 252.614 49.6676 254.02 48.5659C258.254 45.2414 261.796 41.4431 264.646 37.1709C265.677 35.6247 266.34 34.6274 266.635 34.1789C267.954 32.1754 270.904 31.3389 273.163 31.7659C274.847 32.0847 273.631 33.4418 273.306 34.2462Z" fill="#DF5F39"/>
<path d="M243.828 36.8668C243.609 37.0501 243.562 37.3494 243.687 37.7647L243.233 38.4316C243.185 38.5004 243.119 38.5541 243.043 38.5866C242.36 38.8674 241.622 38.3906 240.848 37.9665C237.163 35.9484 232.241 36.3228 228.67 38.3936C224.539 40.789 220.138 45.8781 219.84 50.8883C219.797 51.6097 219.975 52.182 220.376 52.6051C220.649 52.7514 220.879 52.8128 221.064 52.7894C221.482 52.9532 222.013 52.9064 222.655 52.649C224.229 52.0231 225.593 51.1183 226.745 49.9348C228.95 47.671 230.884 45.1147 232.546 42.266C233.527 40.5872 236.445 40.1601 238.241 40.3181C238.809 40.3678 239.882 40.6632 239.861 41.3651C239.857 41.4568 239.747 41.6625 239.53 41.9823C239.294 42.3333 239.177 42.656 239.179 42.9504C238.97 42.964 238.8 43.161 238.669 43.5412C237.03 46.2203 235.5 48.956 234.078 51.7482C232.965 53.9359 232.3 56.0885 231.491 58.3172C231.315 58.7969 231.066 59.2317 230.744 59.6217C230.677 59.702 230.59 59.7627 230.492 59.7972C229.791 60.0409 229.092 59.9317 228.394 59.4696C228.215 59.1167 227.968 58.8271 227.653 58.6009L227.29 57.6416C227.395 57.4486 227.369 57.1766 227.211 56.8256L227.193 54.4858C227.193 54.4248 227.175 54.3652 227.143 54.3133C227.111 54.2615 227.066 54.2194 227.011 54.1916C226.957 54.1639 226.896 54.1516 226.835 54.156C226.774 54.1604 226.716 54.1814 226.666 54.2167C225.57 54.9859 224.416 55.8136 223.13 56.8695C221.764 57.9887 220.651 58.8213 219.79 59.3672C217.413 60.8745 214.95 61.4458 212.401 61.0812C212.128 60.6561 211.87 60.3724 211.628 60.23C210.64 56.6735 211.323 53.2193 212.914 49.9406C214.15 47.3961 215.744 44.871 217.695 42.3654C221.289 37.7501 225.867 34.6167 231.43 32.9651C235.147 31.8596 239.384 31.6344 242.501 33.9917C243.722 34.916 243.418 35.7174 243.828 36.8668Z" fill="#DF5F39"/>
<path d="M287.22 42.1897C287.493 42.4315 287.695 42.6693 287.823 42.9033C287.853 44.2351 288.357 45.2285 289.335 45.8837C290.422 46.6149 290.897 45.9393 291.38 44.9653C293.14 41.4166 295.372 38.1184 298.077 35.0707C298.454 34.6457 298.782 34.3278 299.062 34.1173C299.112 34.079 299.151 34.0272 299.173 33.9678C299.195 33.9083 299.2 33.8439 299.187 33.7818C299.174 33.7198 299.143 33.6629 299.099 33.6176C299.054 33.5724 298.998 33.5408 298.936 33.5264L296.914 33.0614C297.084 32.7884 297.278 32.57 297.494 32.4062C298.002 32.5135 298.493 32.648 298.968 32.8099C299.832 33.1023 299.964 33.4592 299.791 34.2869C299.77 34.3874 299.717 34.478 299.639 34.5443C298.867 35.1897 298.109 36.0086 297.362 37.0011C295.086 40.0312 293.276 42.4968 291.773 45.8135C291.483 46.4599 290.712 46.9425 289.939 46.8313C287.809 46.5242 286.909 44.082 287.22 42.1897Z" fill="#57A494"/>
<path d="M1.51059 61.4378C1.68832 61.3598 1.87875 61.3998 2.08188 61.5577C1.93148 61.9653 1.76156 62.3084 1.57211 62.5873C1.34652 62.9178 1.33188 63.2132 1.36117 63.5524C1.36614 63.6066 1.38838 63.6579 1.4247 63.6989C1.46102 63.7399 1.50955 63.7685 1.56332 63.7806C5.01059 64.5586 7.82406 63.7201 10.0038 61.2653C10.6014 60.5896 11.202 59.5513 11.6414 58.788C15.1532 52.6556 18.3055 47.2721 21.0985 42.6373C21.7899 41.4907 22.3739 40.7001 22.8504 40.2653C24.5848 38.6859 26.618 38.3056 29.0643 38.329C31.3612 38.3505 33.4012 38.3495 35.1844 38.3261C36.3065 38.3115 37.8621 38.2267 38.5623 37.9079C39.8709 37.3171 40.6952 36.2222 41.035 34.6233C41.0407 34.5972 41.0405 34.5701 41.0343 34.5441C41.0281 34.518 41.0161 34.4937 40.9992 34.4729C40.9823 34.4522 40.961 34.4354 40.9367 34.424C40.9125 34.4126 40.886 34.4067 40.8592 34.4069L39.2508 34.4244L39.9393 33.626L41.5243 33.6552C41.6028 33.6567 41.6776 33.6888 41.7328 33.7445C41.7881 33.8002 41.8194 33.8752 41.8202 33.9536C41.8358 35.1118 41.4871 36.1666 40.7743 37.1182C39.4588 38.8789 37.912 38.9315 35.8963 39.0778C33.828 39.227 31.8094 39.1538 27.5467 39.1597C26.4666 39.1616 25.3348 39.5233 24.1512 40.2448C23.4246 40.6874 22.6727 41.5483 21.8954 42.8274C18.3534 48.6652 14.9608 54.5616 11.8905 59.9023C10.745 61.8912 9.20981 63.4852 7.02719 64.2836C5.02719 65.0168 2.98031 65.0519 0.886563 64.3889C0.841978 64.3746 0.801983 64.349 0.770609 64.3146C0.739234 64.2802 0.717588 64.2382 0.707852 64.193C0.479336 63.1361 0.746915 62.2178 1.51059 61.4378Z" fill="#57A494"/>
<path d="M274.06 37.9898L272.894 39.7944C269.612 45.3983 265.906 51.9996 261.775 59.5982C260.047 62.7745 257.414 67.385 253.877 73.4295C250.666 78.9145 246.993 84.4131 242.859 89.9253C240.128 93.5638 237.005 96.9517 233.489 100.089C231.318 102.025 229.06 103.543 226.297 104.409C225.016 104.809 223.983 104.89 223.197 104.652C221.419 104.111 220.792 101.911 220.801 100.194C221.031 100.142 221.263 100.344 221.495 100.803C221.659 102.28 222.289 103.903 223.965 104.111C224.426 104.169 225.298 103.983 226.581 103.552C230.006 102.402 232.335 100.218 235.01 97.6497C237.463 95.2982 239.862 92.6064 242.208 89.5744C248.082 81.9933 253.189 73.4705 257.782 65.2664C260.316 60.7428 263.76 54.5295 268.115 46.6267C269.606 43.9262 271.362 40.9302 273.386 37.6389C273.763 37.0285 274.112 36.426 274.435 35.8313C274.471 35.765 274.491 35.691 274.494 35.6155C274.497 35.5399 274.482 35.4647 274.45 35.3959C274.418 35.3272 274.371 35.2668 274.312 35.2195C274.253 35.1722 274.184 35.1393 274.109 35.1235L273.028 34.8895C272.995 34.6497 273.087 34.4352 273.304 34.2461C274.279 34.2783 275.419 34.7667 275.161 35.9045C275.15 35.9626 275.129 36.0188 275.1 36.0712L274.06 37.9898Z" fill="#57A494"/>
<path d="M79.5859 34.2637C80.957 34.4333 82.082 34.9247 81.1416 36.5479C77.46 42.9006 74.5576 47.9039 72.4346 51.558C68.8516 57.7234 66.3233 62.3036 62.5615 68.8142C57.6074 77.3868 54.3174 83.1516 49.5977 89.5071C46.4102 93.7968 42.6846 97.6371 38.4209 101.028C37.0264 102.137 35.9082 102.898 35.0664 103.309C34.2197 103.722 30.8184 105.172 29.6729 104.737C27.6074 103.944 27.1299 102.183 27.1328 100.139C27.4531 100.312 27.7119 100.563 27.9092 100.89C27.8828 102.438 28.9785 104.482 30.792 104.073C31.2002 103.981 32.126 103.686 33.5693 103.186C35.1397 102.642 36.5254 101.61 37.7588 100.648C42.669 96.8084 47.0186 92.1316 50.8076 86.6174C53.0654 83.33 54.7871 80.6879 55.9727 78.6912C61.6826 69.0804 67.6299 58.3727 73.2988 48.6478C75.1914 45.4032 77.6865 41.0979 80.7842 35.7319C80.8056 35.6945 80.8194 35.6532 80.8248 35.6104C80.8303 35.5677 80.8272 35.5242 80.8157 35.4827C80.8043 35.4411 80.7848 35.4022 80.7582 35.3682C80.7317 35.3341 80.6987 35.3057 80.6611 35.2844C80.3291 35.1011 79.834 34.9812 79.1758 34.9247L79.5859 34.2637Z" fill="#57A494"/>
<path d="M255.717 35.1328C256.364 35.2966 257.205 35.2791 257.712 35.747C257.747 35.7795 257.774 35.8202 257.79 35.8656C257.806 35.9109 257.81 35.9596 257.803 36.0073C257.689 36.7366 257.492 37.304 257.211 37.7096C255.273 40.5018 253.528 43.0736 251.976 45.4252C250.765 47.26 249.941 49.0197 249.506 50.7044L248.809 50.5903C249.209 48.8823 249.887 47.299 250.842 45.8405C252.449 43.3875 254.364 40.5661 256.587 37.3761C256.827 37.031 256.96 36.6449 256.985 36.2179C256.988 36.1765 256.974 36.1358 256.946 36.1046C256.919 36.0734 256.88 36.0542 256.839 36.0512L255.359 35.9225C255.408 35.6417 255.527 35.3785 255.717 35.1328Z" fill="#57A494"/>
<path d="M61.9521 35.2345C62.665 35.2092 63.2617 35.2794 63.7422 35.4451C63.9051 35.5011 64.0425 35.6138 64.1291 35.7626C64.2157 35.9113 64.2458 36.0862 64.2139 36.2553C64.124 36.7369 63.9326 37.1746 63.6396 37.5685C60.4229 41.8621 57.543 45.6907 55.7178 50.7096C55.5107 50.7545 55.2754 50.6989 55.0117 50.5429C56.1602 47.429 57.6924 44.5422 59.6084 41.8826C60.5693 40.5489 61.5977 39.1099 62.8164 37.4808C63.1191 37.0752 63.3496 36.6862 63.5078 36.3138C63.5242 36.2762 63.5309 36.2352 63.5274 36.1944C63.5239 36.1536 63.5102 36.1142 63.4876 36.0798C63.465 36.0454 63.4341 36.0169 63.3978 35.997C63.3615 35.9771 63.3208 35.9664 63.2793 35.9657L61.457 35.9423L61.9521 35.2345Z" fill="#57A494"/>
<path d="M243.827 36.8672C244.929 38.1697 245.18 39.595 244.58 41.1432C243.93 42.825 242.072 41.503 240.716 40.8771C239.935 40.5163 239.262 40.2853 238.697 40.1839C232.894 39.1339 228.054 41.6902 224.512 46.0891C222.795 48.2222 221.646 50.4558 221.063 52.7898C220.878 52.8131 220.648 52.7517 220.375 52.6055C221.764 47.1625 226.357 41.6902 231.766 39.9324C235.557 38.7001 239.166 39.052 242.594 40.9882C243.177 41.3187 243.783 41.5235 243.974 40.6782C244.216 39.6116 244.12 38.6406 243.687 37.7651C243.562 37.3498 243.608 37.0505 243.827 36.8672Z" fill="#57A494"/>
<path d="M194.233 38.3232C194.229 38.6313 194.183 38.8663 194.093 39.0281C193.395 39.1978 192.728 39.6823 192.092 40.4817C188.104 45.4948 184.252 50.1657 180.909 55.2607C179.505 57.4017 178.388 58.8504 177.558 59.6069C175.481 61.4983 173.003 62.562 170.122 62.7979C168.558 62.9237 166.879 63.0348 165.235 62.7482C163.433 62.4352 163.477 60.7242 164.008 59.3905L164.602 59.5631L164.383 60.9348C164.356 61.1083 164.38 61.2856 164.453 61.4448C164.526 61.6039 164.644 61.7378 164.793 61.8298C165.076 62.0033 165.469 62.1135 165.971 62.1603C167.986 62.3446 170.895 62.2071 172.814 61.5724C175.373 60.7262 177.404 59.176 178.908 56.922C182.922 50.9028 186.355 46.5829 191.327 40.3063C192.127 39.2972 192.959 38.3671 194.233 38.3232Z" fill="#57A494"/>
<path d="M286.879 38.6455C286.914 39.0238 286.872 39.2685 286.753 39.3796C285.349 39.5941 283.954 40.0923 282.569 40.8742C281.54 41.4533 280.882 42.3415 280.595 43.5387L280.035 42.7899C280.594 41.4777 281.563 40.4988 282.944 39.8534C284.286 39.2256 285.598 38.8229 286.879 38.6455Z" fill="#57A494"/>
<path d="M94.7408 41.166L93.2789 43.2455C93.2468 43.2907 93.2279 43.344 93.2244 43.3993C93.2209 43.4547 93.2329 43.5099 93.259 43.5588C93.2852 43.6077 93.3245 43.6483 93.3725 43.6762C93.4205 43.704 93.4754 43.718 93.5309 43.7164L96.0416 43.6579C95.9342 43.9641 95.777 44.2049 95.5699 44.3803C94.5768 44.4505 92.8863 44.6758 92.5934 43.8042C92.3414 43.0642 93.3844 41.7451 93.859 41.1572L94.7408 41.166Z" fill="#57A494"/>
<path d="M117.784 43.7076C117.733 43.9767 117.649 44.197 117.532 44.3686C116.772 44.0839 116.015 43.8811 115.261 43.7602C112.056 43.2513 108.89 43.1841 105.763 43.5584C105.545 43.5857 105.248 43.8343 104.873 44.3042C102 47.9017 99.5749 51.5236 97.5984 55.1698C96.5554 57.0944 95.3581 59.482 94.0066 62.3327C93.321 63.7746 92.1521 64.3332 90.5114 64.4414C88.7419 64.5565 87.1657 64.498 85.7829 64.2659C83.8933 63.953 85.0359 61.9875 85.8825 61.1218L86.6179 61.2329L85.4929 62.9703C85.459 63.0232 85.4389 63.0837 85.4343 63.1463C85.4298 63.2089 85.441 63.2717 85.4669 63.3289C85.4927 63.3861 85.5325 63.436 85.5826 63.474C85.6327 63.512 85.6915 63.5369 85.7536 63.5464C87.3669 63.7999 89.0163 63.8584 90.7019 63.7219C92.4157 63.5815 93.0339 62.7246 93.7868 61.1042C96.3386 55.6173 99.2771 50.4726 103.015 45.518C103.751 44.5441 104.744 42.9325 105.916 42.8155C108.89 42.525 111.769 42.5552 114.552 42.9062C115.56 43.0329 116.637 43.3001 117.784 43.7076Z" fill="#57A494"/>
<path d="M239.18 42.9502C240.493 43.0233 241.477 43.7838 240.68 45.097C239.307 47.3588 237.734 50.1091 235.961 53.3478C234.493 56.0269 233.822 57.9807 232.618 61.4115C232.501 61.742 232 62.7832 231.537 62.9996C230.99 63.2531 230.514 63.3233 230.11 63.2102C228.039 62.6282 227.511 60.5106 227.655 58.6008C227.969 58.8269 228.216 59.1165 228.396 59.4694C228.288 60.9464 229.178 62.7189 230.913 62.4702C231.067 62.4479 231.212 62.3864 231.335 62.2917C231.458 62.1969 231.555 62.072 231.616 61.9292C232.732 59.2998 233.438 56.6148 234.803 54.0235C236.307 51.1689 238.129 47.9643 240.27 44.4097C240.296 44.3659 240.312 44.3168 240.316 44.266C240.32 44.2152 240.312 44.1641 240.293 44.1168C240.274 44.0695 240.245 44.0273 240.207 43.9934C240.168 43.9594 240.123 43.9347 240.074 43.9212L238.67 43.541C238.801 43.1608 238.971 42.9638 239.18 42.9502Z" fill="#57A494"/>
<path d="M273.701 44.9536C273.947 46.4745 274.691 47.7165 275.933 48.6798C277.019 49.5201 278.092 50.4122 279.153 51.3559C279.239 51.9331 279.17 52.2714 278.948 52.3708C276.701 49.4899 272.687 48.4224 273.042 44.0527C273.43 44.238 273.65 44.5383 273.701 44.9536Z" fill="#57A494"/>
<path d="M286.445 51.0117C288.437 54.1061 287.5 57.6364 285.036 60.102C281.446 63.6956 277.155 65.8229 272.163 66.4839C270.575 66.6944 268.869 66.8085 267.045 66.8261C265.433 66.8407 263.465 66.361 263.345 64.457C263.341 64.4133 263.349 64.3694 263.367 64.3294C263.386 64.2895 263.414 64.2548 263.45 64.2289C264.015 63.8174 264.76 63.5844 265.685 63.5298H269.175C267.62 64.0251 266.049 64.3195 264.461 64.4131C264.41 64.4163 264.361 64.4306 264.316 64.455C264.271 64.4794 264.233 64.5134 264.203 64.5545C264.173 64.5955 264.152 64.6427 264.143 64.6926C264.133 64.7425 264.135 64.7938 264.147 64.8431C264.393 65.8112 265.864 66.0861 266.749 66.1095C273.467 66.2674 279.508 64.5389 284.397 59.7422C286.413 57.7621 287.415 55.1708 286.428 52.3542C286.279 51.9116 286.285 51.4641 286.445 51.0117Z" fill="#57A494"/>
<path d="M61.3348 54.541C61.3504 54.9641 61.2371 55.3658 60.9949 55.746C57.8865 58.1795 51.9129 63.2335 47.7439 61.8588C45.992 61.2827 45.532 59.5395 45.8162 57.887C46.1443 57.9825 46.3729 58.16 46.5018 58.4193C46.3064 60.1235 47.0135 61.1013 48.6229 61.3529C50.8494 61.7038 54.0486 59.9899 56.1815 58.5012C57.5135 57.5711 59.2313 56.251 61.3348 54.541Z" fill="#57A494"/>
<path d="M254.893 54.9365C254.791 55.4045 254.632 55.7662 254.415 56.0216C252.689 57.0921 251.077 58.1762 249.581 59.274C248.374 60.1573 247.331 60.792 246.452 61.178C244.445 62.0525 240.514 62.9183 239.661 60.0959C239.568 59.7839 239.531 59.0917 239.553 58.0193C239.811 58.0349 240.044 58.1655 240.253 58.4112C240.244 60.4059 240.654 61.3769 242.872 61.295C244.519 61.2326 246.06 60.7413 247.495 59.8209C249.373 58.6159 252.262 56.3697 254.893 54.9365Z" fill="#57A494"/>
<path d="M227.293 57.6422C226.095 58.5547 224.916 59.4712 223.753 60.3915C222.044 61.7466 220.831 62.6104 220.112 62.9829C218.536 63.7998 216.894 64.3166 215.187 64.533C212.254 64.9015 211.592 62.5529 211.63 60.2306C211.873 60.373 212.13 60.6567 212.404 61.0817C212.353 62.5051 212.82 63.3972 213.804 63.7579C214.33 63.949 215.044 63.9471 215.949 63.7521C218.058 63.2939 219.964 62.4037 221.668 61.0817C223.517 59.6486 225.366 58.2301 227.213 56.8262C227.372 57.1771 227.398 57.4492 227.293 57.6422Z" fill="#57A494"/>
<path d="M89.3535 61.1396C89.3086 61.1669 89.2324 61.1806 89.125 61.1806L89.3535 61.1396Z" fill="#57A494"/>
<path d="M36.3613 92.3859C36.1191 92.4346 35.8945 92.341 35.6875 92.1051C36.2598 89.1549 37.4658 86.1551 39.3057 83.1055C41.8975 78.8061 44.2969 75.4523 46.5039 73.0442C48.5996 70.7551 50.874 68.8072 53.3272 67.2005C53.3513 67.1851 53.3706 67.1632 53.3829 67.1374C53.3952 67.1116 53.3999 67.0828 53.3965 67.0544C53.3932 67.026 53.3818 66.9991 53.3639 66.9768C53.3459 66.9546 53.322 66.9378 53.2949 66.9285C52.167 66.5161 48.7773 68.2242 47.6494 68.7945C48.0225 68.229 48.5098 67.7367 49.1113 67.3175C49.5879 67.1361 50.0381 66.9421 50.4619 66.7354C51.667 66.1407 52.9678 66.0208 54.3643 66.3757C54.3864 66.3815 54.4072 66.3917 54.4254 66.4054C54.4436 66.4192 54.4589 66.4364 54.4704 66.456C54.4818 66.4756 54.4892 66.4972 54.4921 66.5196C54.495 66.5419 54.4934 66.5646 54.4873 66.5863C54.335 67.1147 54.0391 67.532 53.5996 67.8381C50.332 70.1116 47.6182 72.6182 45.458 75.3577C42.6709 78.8909 40.3604 82.4123 38.5264 85.9221C37.5088 87.8739 36.7871 90.0285 36.3613 92.3859Z" fill="#57A494"/>
<path d="M230.152 92.5284C229.818 92.5225 229.607 92.4357 229.52 92.2681C229.654 90.8603 229.944 89.587 230.39 88.4483C232.092 84.0903 234.559 80.332 237.362 76.5385C239.949 73.0346 243.163 69.6156 246.942 67.3167C247.06 67.2445 247.124 67.1431 247.136 67.0125C247.137 66.9949 247.135 66.9771 247.13 66.9603C247.124 66.9435 247.115 66.9281 247.103 66.9149C247.092 66.9017 247.077 66.8911 247.061 66.8838C247.045 66.8764 247.027 66.8724 247.01 66.8721C244.909 66.8107 243.201 67.8197 241.35 68.7644C241.836 68.0683 242.424 67.499 243.113 67.0564C244.656 66.3018 246.16 66.0327 247.625 66.2491C247.676 66.2565 247.726 66.2742 247.77 66.3011C247.814 66.328 247.852 66.3636 247.882 66.4056C247.913 66.4477 247.934 66.4955 247.945 66.546C247.956 66.5965 247.957 66.6487 247.947 66.6995C247.83 67.3079 247.604 67.7174 247.268 67.928C244.892 69.4254 242.838 71.2183 240.937 73.33C237.73 76.8924 234.92 80.9286 232.508 85.4387C231.285 87.72 230.5 90.0832 230.152 92.5284Z" fill="#57A494"/>
</g>
<defs>
<clipPath id="clip0_332_133436">
<rect width="300" height="105" fill="white"/>
</clipPath>
</defs>
</svg>
