<svg width="300" height="81" viewBox="0 0 300 81" fill="none" xmlns="http://www.w3.org/2000/svg">
<path d="M17.5176 0.166504C23.1204 -0.253882 29.5941 0.410276 34.7305 2.87549C34.7735 2.89698 34.8117 2.92683 34.8428 2.96338C34.8739 3 34.898 3.04267 34.9121 3.08838C34.9261 3.13395 34.93 3.18187 34.9248 3.229C34.9195 3.27621 34.9046 3.32176 34.8809 3.36279L31.1807 9.78271C31.132 9.86792 31.0538 9.93301 30.9609 9.96631C30.8679 9.99957 30.7651 9.99891 30.6719 9.96436C26.4012 8.39022 21.8036 7.87286 16.8799 8.4126C15.1178 8.60983 12.3972 9.08242 11.3242 10.5249C11.267 10.6013 11.2276 10.6902 11.208 10.7837C11.1885 10.8769 11.1893 10.9732 11.2109 11.0659C11.2327 11.1589 11.2741 11.2467 11.333 11.3218C11.3919 11.3967 11.4668 11.4574 11.5518 11.5005C12.5158 11.9849 13.6495 12.3257 14.9521 12.5229C19.9693 13.2772 23.2676 13.8259 24.8467 14.1685C28.345 14.9365 32.0506 15.9902 34.5488 18.4448C36.4666 20.3305 37.258 22.6163 36.9229 25.3013C35.3197 26.4982 33.8168 27.1195 32.4141 27.1646C31.7838 27.1853 31.1544 27.1939 30.5264 27.1929C31.1552 27.194 31.7851 27.1853 32.416 27.1646C33.8189 27.1196 35.3225 26.4984 36.9258 25.3013C36.5975 27.9826 35.4398 30.0426 33.4531 31.4819C30.6682 33.4991 27.6102 34.7151 24.2793 35.1304C16.2404 36.1268 7.16949 34.7313 0.146484 30.6987C0.112061 30.6788 0.082404 30.6514 0.0585938 30.6196C0.0347887 30.5878 0.0170356 30.5516 0.0078125 30.5132C-0.00135304 30.4748 -0.00202571 30.4346 0.00488281 30.396C0.0118508 30.3575 0.026979 30.3209 0.0488281 30.2886L4.17383 24.1489C4.23079 24.0648 4.31637 24.0036 4.41406 23.9761C4.51164 23.9487 4.61572 23.9566 4.70801 23.9985C11.0999 26.9462 17.8304 27.9095 24.8994 26.8892H24.8984C26.2201 26.5207 27.8788 26.1263 28.7236 24.9741C28.7844 24.8901 28.8269 24.7942 28.8486 24.6929C28.8704 24.5915 28.8706 24.4865 28.8496 24.3853C28.8286 24.2842 28.7866 24.1885 28.7266 24.105C28.6665 24.0215 28.5897 23.9516 28.501 23.8999C27.4333 23.2771 26.158 22.8085 24.6758 22.4937C20.5243 21.6114 13.9316 21.0247 8.9248 18.98C4.34303 17.1116 1.70913 12.9644 3.52832 8.11182C5.47193 2.91156 12.2983 0.560996 17.5176 0.166504ZM81.0996 0.000488281C81.1332 0.000678885 81.1658 0.0106057 81.1934 0.0297852C81.2209 0.0490299 81.2421 0.0763922 81.2539 0.10791C81.2657 0.139398 81.2679 0.173922 81.2598 0.206543C81.2516 0.239128 81.2332 0.268305 81.208 0.290527L64.9131 15.1909C64.882 15.2198 64.8565 15.2548 64.8389 15.2935C64.8213 15.332 64.812 15.3741 64.8105 15.4165C64.8092 15.4588 64.8161 15.5009 64.8311 15.5405C64.846 15.5803 64.8684 15.617 64.8975 15.6479C70.0425 21.0524 76.0431 27.346 82.8984 34.5288C83.0089 34.6464 83.0817 34.7623 83.1162 34.8765C83.1252 34.9021 83.1271 34.9296 83.123 34.9565C83.119 34.9835 83.109 35.0094 83.0928 35.0317C83.0766 35.054 83.055 35.0717 83.0303 35.0845C83.0056 35.0972 82.978 35.1046 82.9502 35.105H72.5791C72.4252 35.1049 72.2724 35.0737 72.1309 35.0132C71.9894 34.9526 71.8612 34.8638 71.7549 34.7524L58.8125 21.1489C58.7621 21.0962 58.6927 21.0659 58.6191 21.064C58.5456 21.062 58.474 21.0892 58.4189 21.1392L54.7285 24.5073C54.5865 24.6382 54.4731 24.7964 54.3955 24.9722C54.3179 25.1482 54.2774 25.3385 54.2773 25.5298V34.9438C54.2773 35.0264 54.2448 35.1062 54.1865 35.1646C54.1283 35.2228 54.0491 35.2553 53.9668 35.2554H46.3633C46.3177 35.2554 46.2716 35.2467 46.2295 35.229C46.1875 35.2113 46.1494 35.1846 46.1172 35.1519C46.085 35.1191 46.0594 35.0803 46.042 35.0376C46.0246 34.9949 46.0157 34.9491 46.0156 34.9028V0.212402C46.0157 0.185274 46.0209 0.158367 46.0312 0.133301C46.0417 0.108127 46.0569 0.085189 46.0762 0.065918C46.0954 0.046644 46.1184 0.0314288 46.1436 0.0209961C46.1686 0.0105956 46.1955 0.00540424 46.2227 0.00537109H53.9297C54.0024 0.00537109 54.0725 0.0340533 54.124 0.0854492C54.1754 0.136923 54.205 0.207003 54.2051 0.279785V13.3794C54.2042 13.4229 54.2158 13.4659 54.2393 13.5024C54.2627 13.539 54.2968 13.5678 54.3369 13.5854C54.3771 13.6031 54.4221 13.6091 54.4658 13.6021C54.5094 13.595 54.55 13.5748 54.583 13.5454L69.0127 0.348145C69.2564 0.124437 69.5746 0.00043096 69.9043 0.000488281H81.0996ZM95.7783 0.0825195C95.8786 0.0823632 95.9778 0.107723 96.0664 0.154785C96.1548 0.201834 96.2301 0.26992 96.2861 0.353027C97.1845 1.74047 100.489 6.74021 106.201 15.3521C106.253 15.4282 106.345 15.4663 106.477 15.4663C106.611 15.4663 106.704 15.4279 106.756 15.3521C112.519 6.77508 115.854 1.79626 116.76 0.415527C116.816 0.332318 116.891 0.263369 116.979 0.216309C117.068 0.169247 117.167 0.144863 117.268 0.14502H126.421C126.458 0.144508 126.496 0.154399 126.528 0.17334C126.561 0.192322 126.587 0.220395 126.605 0.253418C126.623 0.286325 126.632 0.323372 126.631 0.36084C126.629 0.39855 126.617 0.435768 126.597 0.467285L110.944 23.7651C110.664 24.181 110.514 24.6722 110.514 25.1763V34.897C110.514 34.9822 110.48 35.0642 110.42 35.1245C110.36 35.1849 110.278 35.2192 110.192 35.2192C108.589 35.2158 107.331 35.2134 106.419 35.2134C105.507 35.2099 104.249 35.2047 102.646 35.1978C102.604 35.1978 102.561 35.1898 102.521 35.1733C102.482 35.1568 102.447 35.1324 102.417 35.1021C102.387 35.0716 102.363 35.0352 102.348 34.9956C102.332 34.9562 102.325 34.914 102.325 34.8716L102.382 25.1509C102.385 24.6478 102.239 24.1559 101.962 23.7388L86.4492 0.347168C86.4286 0.315713 86.4166 0.2793 86.415 0.241699C86.4135 0.204038 86.4223 0.166351 86.4404 0.133301C86.4585 0.100432 86.4852 0.0731312 86.5176 0.0541992C86.5501 0.0352648 86.5874 0.0253737 86.625 0.0258789L95.7783 0.0825195ZM299.239 0.0151367C299.397 0.0152135 299.524 0.143668 299.524 0.30127V34.9282C299.524 35.0858 299.397 35.2133 299.239 35.2134H291.62C291.463 35.2134 291.335 35.0859 291.335 34.9282V0.30127C291.335 0.143621 291.463 0.0151367 291.62 0.0151367H299.239ZM226.166 0.0571289C227.714 0.0605889 229.271 0.0710791 230.836 0.0883789C230.899 0.0884108 230.961 0.106125 231.015 0.140137C231.068 0.174099 231.11 0.222639 231.137 0.279785L247.613 34.7573C247.635 34.8037 247.645 34.8547 247.642 34.9058C247.638 34.957 247.622 35.0069 247.595 35.0503C247.567 35.0936 247.53 35.1299 247.485 35.1548C247.441 35.1797 247.39 35.1925 247.339 35.1929H239.108C239.009 35.1931 238.912 35.1652 238.828 35.1118C238.745 35.0585 238.678 34.9821 238.637 34.8921L235.656 28.6587C235.626 28.5924 235.576 28.5361 235.514 28.4966C235.451 28.4571 235.378 28.4364 235.304 28.436C232.101 28.4326 229.031 28.4273 226.094 28.4204C223.157 28.41 220.086 28.3995 216.883 28.3892C216.809 28.3892 216.736 28.4093 216.674 28.4478C216.612 28.4863 216.562 28.5417 216.53 28.6069L213.52 34.8247C213.478 34.9156 213.41 34.992 213.325 35.0454C213.241 35.0987 213.143 35.1267 213.043 35.1255L204.812 35.0845C204.76 35.0836 204.71 35.069 204.665 35.0435C204.62 35.0179 204.582 34.9819 204.556 34.938C204.529 34.8941 204.514 34.8438 204.512 34.7925C204.509 34.7411 204.519 34.6893 204.542 34.6431L221.195 0.254395C221.222 0.197231 221.264 0.148747 221.317 0.114746C221.371 0.0807285 221.433 0.0620373 221.496 0.0620117C223.065 0.0516319 224.621 0.050209 226.166 0.0571289ZM195.058 0.000488281C195.11 0.000488281 195.16 0.0211231 195.197 0.059082C195.234 0.0970378 195.255 0.14897 195.255 0.202637L195.295 27.8384L195.299 27.9585L195.34 34.8042C195.34 34.8715 195.313 34.9363 195.266 34.9839C195.218 35.0315 195.153 35.0581 195.086 35.0581H187.42C187.385 35.058 187.351 35.0508 187.319 35.0376C187.287 35.0243 187.258 35.0054 187.233 34.981C187.209 34.9564 187.189 34.9271 187.176 34.895C187.163 34.8629 187.156 34.8282 187.156 34.7935L187.026 15.7202H187.024L174.564 30.5015C174.542 30.5288 174.514 30.551 174.481 30.5659C174.449 30.5808 174.414 30.5879 174.378 30.5874C174.342 30.5869 174.307 30.5787 174.274 30.563C174.242 30.5472 174.213 30.5246 174.19 30.4966L162.182 15.7876C162.172 15.7757 162.159 15.7674 162.145 15.7632C162.13 15.7591 162.115 15.7592 162.101 15.7642C162.086 15.7693 162.073 15.7789 162.064 15.7915C162.056 15.8041 162.051 15.8193 162.052 15.8345V34.7827C162.052 34.8638 162.02 34.9421 161.963 34.9995C161.906 35.0569 161.827 35.0894 161.746 35.0894H154.169C154.078 35.0894 153.991 35.0529 153.927 34.9878C153.863 34.9226 153.827 34.8339 153.827 34.7417V0.182129C153.827 0.13548 153.845 0.0901902 153.878 0.0571289C153.911 0.0240365 153.956 0.00537109 154.003 0.00537109H159.554C159.657 0.00537109 159.76 0.0278407 159.854 0.0717773C159.948 0.115712 160.032 0.179693 160.099 0.259277L174.31 17.6714C174.327 17.6921 174.349 17.7097 174.374 17.7212C174.398 17.7325 174.425 17.7377 174.452 17.7378C174.479 17.7378 174.507 17.7326 174.531 17.7212C174.556 17.7097 174.577 17.6921 174.595 17.6714L189.087 0.311035C189.166 0.213951 189.266 0.135352 189.38 0.081543C189.494 0.0276899 189.619 0.000621329 189.745 0.000488281H195.058ZM264.684 0.0102539C264.749 0.010316 264.813 0.0368327 264.859 0.0834961C264.906 0.13015 264.933 0.193345 264.933 0.259277V26.7075C264.933 26.7735 264.958 26.8366 265.005 26.8833C265.051 26.93 265.115 26.9565 265.181 26.9565H282.062C282.128 26.9567 282.192 26.9832 282.238 27.0298C282.285 27.0764 282.31 27.1397 282.311 27.2056V34.8042C282.31 34.8701 282.285 34.9334 282.238 34.98C282.192 35.0266 282.128 35.0531 282.062 35.0532H257.007C256.941 35.0531 256.878 35.0266 256.831 34.98C256.785 34.9334 256.759 34.8701 256.759 34.8042V0.259277C256.759 0.193401 256.785 0.130138 256.831 0.0834961C256.878 0.0368882 256.941 0.0103781 257.007 0.0102539H264.684ZM226.155 8.92139C226.121 8.92145 226.088 8.93132 226.06 8.94971C226.031 8.96807 226.009 8.9942 225.995 9.0249L220.692 19.9966C220.679 20.0237 220.673 20.0543 220.675 20.0845C220.676 20.1145 220.686 20.144 220.702 20.1694C220.718 20.1947 220.74 20.2157 220.767 20.23C220.793 20.2444 220.823 20.2519 220.854 20.2515L231.38 20.2876C231.409 20.2876 231.439 20.2802 231.465 20.2661C231.491 20.252 231.512 20.2312 231.528 20.2065C231.544 20.1819 231.553 20.1537 231.556 20.1245C231.558 20.0952 231.553 20.0654 231.541 20.0386L226.316 9.0249C226.302 8.99402 226.279 8.96811 226.251 8.94971C226.223 8.93132 226.189 8.92139 226.155 8.92139Z" fill="url(#paint0_linear_602_21359)"/>
<path d="M263.882 79.0483C264.67 77.782 265.391 76.6246 266.044 75.5762C273.093 64.205 266.671 55.5482 256.766 49.9845C256.734 49.969 256.71 49.942 256.697 49.909C256.684 49.876 256.684 49.8394 256.698 49.8066C256.711 49.7738 256.736 49.7471 256.768 49.732C256.8 49.7168 256.836 49.7144 256.87 49.725C263.732 51.3132 268.791 50.9395 278.493 51.1211C281.413 51.173 284.158 51.5156 286.729 52.1487C291.072 53.211 293.69 55.9374 294.581 60.3281C294.59 60.3701 294.589 60.4134 294.579 60.4549C294.568 60.4965 294.548 60.5351 294.521 60.568C294.494 60.6009 294.459 60.6272 294.42 60.645C294.381 60.6627 294.339 60.6715 294.296 60.6707C291.884 60.6291 289.545 61.0962 287.279 62.0719C287.248 62.0865 287.224 62.1115 287.211 62.1425C287.197 62.1734 287.195 62.2081 287.205 62.2403C287.216 62.2724 287.237 62.2999 287.265 62.3176C287.294 62.3353 287.328 62.342 287.361 62.3366C291.565 61.4595 301.174 61.4076 299.884 68.2272C299.875 68.2739 299.853 68.3171 299.82 68.3517C299.787 68.3862 299.745 68.4105 299.7 68.4215C299.654 68.4325 299.606 68.4299 299.562 68.4138C299.519 68.3977 299.481 68.3689 299.453 68.331C297.961 66.3485 295.198 66.1876 292.881 66.3329C281.52 67.0439 271.626 70.8482 263.95 79.1002C263.943 79.1092 263.933 79.115 263.921 79.1165C263.91 79.1179 263.899 79.1149 263.89 79.108C263.881 79.1011 263.875 79.091 263.874 79.0798C263.872 79.0686 263.875 79.0573 263.882 79.0483Z" fill="url(#paint1_linear_602_21359)"/>
<path d="M138.125 75.0363C138.143 75.039 138.161 75.0451 138.177 75.0544C138.193 75.0637 138.207 75.0759 138.218 75.0904C138.229 75.1049 138.237 75.1214 138.242 75.1388C138.246 75.1563 138.247 75.1744 138.244 75.192V75.1972C138.244 75.2061 138.241 75.2148 138.237 75.2227C138.233 75.2306 138.228 75.2377 138.221 75.2435C138.214 75.2493 138.206 75.2537 138.198 75.2564C138.189 75.2592 138.18 75.2602 138.172 75.2595C118.106 73.751 97.027 71.6577 74.9334 68.9797C60.3829 67.2151 46.019 64.9886 31.8417 62.3002C24.1535 60.8401 16.7072 58.9163 9.50283 56.5289C6.58997 55.5636 3.19508 54.1 0.764237 52.5119C0.525818 52.3597 0.351323 52.2109 0.240752 52.0656C0.224386 52.0441 0.214308 52.0185 0.211647 51.9917C0.208985 51.9648 0.213846 51.9378 0.225684 51.9135C0.237522 51.8893 0.25587 51.8688 0.278671 51.8544C0.301472 51.84 0.327826 51.8323 0.354778 51.832H69.8178C70.2322 51.8319 70.6336 51.9831 70.9477 52.2576C75.3895 56.1034 79.9195 58.989 85.5275 61.366C91.3222 63.826 97.4036 65.9055 103.772 67.6043C114.542 70.4796 125.993 72.9569 138.125 75.0363Z" fill="url(#paint2_linear_602_21359)"/>
<path d="M189.441 77.346C188.394 77.3702 187.316 77.3218 186.207 77.2007C158.607 74.1282 131.433 70.3344 105.227 63.4317C97.9848 61.5253 91.1657 59.105 84.7698 56.171C82.5359 55.1434 80.1984 53.7836 78.0526 52.2733C78.0087 52.2422 77.9758 52.198 77.9586 52.147C77.9414 52.0959 77.9409 52.0408 77.957 51.9894C77.9732 51.938 78.0052 51.8931 78.0484 51.8611C78.0917 51.8292 78.144 51.8117 78.1977 51.8114C95.8891 51.8218 116.393 51.8114 139.71 51.7803C140.145 51.7803 140.646 51.9014 141.213 52.1436C141.385 52.2194 141.545 52.3153 141.69 52.429C146.365 56.0793 149.276 58.2868 150.423 59.0514C162.406 67.037 175.423 73.0418 189.472 77.0658C189.505 77.0759 189.533 77.0974 189.552 77.1263C189.571 77.1553 189.58 77.1898 189.576 77.2236C189.572 77.2574 189.557 77.2884 189.532 77.3108C189.507 77.3333 189.475 77.3458 189.441 77.346Z" fill="url(#paint3_linear_602_21359)"/>
<path d="M148.411 51.9773C148.4 51.9619 148.393 51.9436 148.391 51.9244C148.389 51.9052 148.393 51.8859 148.402 51.8686C148.41 51.8514 148.423 51.8369 148.44 51.8268C148.456 51.8166 148.475 51.8112 148.494 51.8112C185.321 51.7939 217.943 51.7991 246.36 51.8268C252.704 51.8372 261.282 55.7971 263.547 62.4766C267.331 73.6298 255.234 80.984 245.707 80.9996C229.343 81.0273 213.194 78.9617 197.261 74.8028C179.883 70.2668 163.375 63.1721 148.997 52.5482C148.766 52.3787 148.57 52.1884 148.411 51.9773Z" fill="url(#paint4_linear_602_21359)"/>
<defs>
<linearGradient id="paint0_linear_602_21359" x1="149.762" y1="0.000488281" x2="149.762" y2="35.4395" gradientUnits="userSpaceOnUse">
<stop stop-color="#135A34"/>
<stop offset="1" stop-color="#06331A"/>
</linearGradient>
<linearGradient id="paint1_linear_602_21359" x1="278.345" y1="49.7185" x2="278.345" y2="79.1168" gradientUnits="userSpaceOnUse">
<stop stop-color="#06532F"/>
<stop offset="1" stop-color="#0F4D31"/>
</linearGradient>
<linearGradient id="paint2_linear_602_21359" x1="69.2284" y1="51.832" x2="69.2284" y2="75.2597" gradientUnits="userSpaceOnUse">
<stop stop-color="#06532F"/>
<stop offset="1" stop-color="#0F4D31"/>
</linearGradient>
<linearGradient id="paint3_linear_602_21359" x1="116.527" y1="64.6928" x2="189.577" y2="64.5665" gradientUnits="userSpaceOnUse">
<stop stop-color="#ECBE3C"/>
<stop offset="1" stop-color="#E59D35"/>
</linearGradient>
<linearGradient id="paint4_linear_602_21359" x1="148.391" y1="66.4006" x2="264.258" y2="66.4006" gradientUnits="userSpaceOnUse">
<stop stop-color="#D72229"/>
<stop offset="1" stop-color="#B52529"/>
</linearGradient>
</defs>
</svg>
