<svg width="300" height="59" viewBox="0 0 300 59" fill="none" xmlns="http://www.w3.org/2000/svg">
<path d="M69.7617 38.6401C70.1308 38.8494 70.392 39.0759 70.5452 39.3197" stroke="#243C6C" stroke-width="2"/>
<path d="M71.4618 40.2063C71.4154 40.0063 71.2146 39.8361 70.8594 39.6958" stroke="#243C6C" stroke-width="2"/>
<path d="M63.6641 29.9473C63.9032 31.2374 63.9206 32.554 63.7163 33.8971" stroke="#243C6C" stroke-width="2"/>
<path d="M69.7593 38.6405C70.1284 38.8497 70.3895 39.0763 70.5428 39.32C67.555 42.4316 64.0995 44.8889 60.1762 46.6919C56.3412 48.4512 52.4202 49.7012 48.4134 50.4417C37.6998 52.4172 27.3994 51.3236 17.5123 47.1611C16.3933 46.6896 14.8403 45.8675 12.8531 44.6946C6.8463 41.1518 1.72746 35.3668 0.609676 28.3744C-0.375787 22.1857 1.86675 17.0699 5.9653 12.5612C7.99891 10.3259 10.4121 8.41016 13.2048 6.81412C19.4449 3.2472 26.3281 1.08543 33.8543 0.328809C41.0555 -0.395615 48.0814 0.0769855 54.932 1.74661C58.6626 2.65501 62.305 4.04522 65.8592 5.91722C68.2689 7.18669 70.5288 8.73672 72.639 10.5673C76.2141 13.6697 78.6424 17.4068 79.9238 21.7786C79.9272 21.7928 79.9252 21.8077 79.9181 21.8205C79.911 21.8332 79.8994 21.8429 79.8855 21.8476V21.8511C79.8698 21.8569 79.8524 21.8566 79.8368 21.8502C79.8213 21.8438 79.8088 21.8318 79.8019 21.8166C77.1694 15.8602 72.9118 11.3159 67.0292 8.18363C64.731 6.96246 62.3735 5.87582 59.8559 5.07551C51.8422 2.51818 43.6137 1.69372 35.1705 2.60212C29.2833 3.23685 23.6827 4.79034 18.3689 7.26258C16.4978 8.13189 14.5861 9.28176 12.6337 10.7122C7.87703 14.2032 3.78544 19.5916 3.87946 25.6181C3.97 31.3893 6.82193 36.0739 11.2165 39.8513C13.4985 41.8153 16.0115 43.4309 18.7554 44.698C22.616 46.4803 26.826 47.736 31.3854 48.465C39.3921 49.7437 47.27 49.2274 55.0191 46.9161C60.4061 45.3086 65.7164 42.542 69.7593 38.6405Z" fill="#243C6C"/>
<path d="M124.586 31.7478L121.198 31.841C121.169 31.841 121.142 31.8301 121.122 31.8107C121.101 31.7913 121.09 31.7649 121.09 31.7375V29.0123C121.09 28.9839 121.101 28.9567 121.122 28.9367C121.142 28.9166 121.169 28.9053 121.198 28.9053H130.471C130.538 28.9053 130.602 28.9314 130.65 28.9779C130.697 29.0244 130.724 29.0875 130.725 29.1537L130.952 37.4397C130.952 37.4659 130.947 37.4918 130.938 37.5161C130.928 37.5403 130.914 37.5624 130.896 37.581C130.878 37.5997 130.856 37.6145 130.832 37.6245C130.808 37.6346 130.783 37.6398 130.757 37.6398H126.39C126.365 37.6397 126.34 37.6342 126.318 37.6236C126.295 37.613 126.275 37.5976 126.259 37.5786C126.243 37.5595 126.232 37.5371 126.225 37.5131C126.219 37.4892 126.218 37.4641 126.223 37.4397L127.017 33.2139C127.019 33.2062 127.019 33.1976 127.015 33.1902C127.012 33.1827 127.005 33.177 126.998 33.1743C126.99 33.1715 126.981 33.172 126.974 33.1755C126.966 33.1791 126.96 33.1855 126.958 33.1932C125.743 35.2423 123.983 36.644 121.675 37.3983C120.273 37.8583 118.935 38.1021 117.66 38.1297C113.962 38.209 110.469 37.9227 107.032 36.2462C103.279 34.4179 102.666 29.2262 103.728 25.7455C104.29 23.9034 105.427 22.5143 107.14 21.5783C108.582 20.7918 110.357 20.2433 112.465 19.9328C115.71 19.4568 118.931 19.4579 122.128 19.9363C123.504 20.1433 124.893 20.5963 126.292 21.2954C128.79 22.5442 130.174 24.5427 130.443 27.2909C130.446 27.3168 130.443 27.3429 130.435 27.3676C130.426 27.3923 130.413 27.4149 130.396 27.4341C130.378 27.4532 130.357 27.4685 130.334 27.4789C130.31 27.4893 130.284 27.4946 130.259 27.4944H124.757C124.694 27.4944 124.633 27.4796 124.579 27.4514C124.524 27.4231 124.478 27.3822 124.443 27.3323C124.016 26.7068 123.577 26.3043 123.127 26.1249C121.393 25.4327 119.355 25.1257 117.012 25.2039C114.53 25.2867 109.689 25.335 109.244 28.5328C109.042 29.9908 109.493 31.0556 110.598 31.7271C111.174 32.0744 111.753 32.3032 112.336 32.4136C116.192 33.1449 119.969 33.0794 123.667 32.217C124.171 32.0997 124.492 32.0135 124.631 31.9583C124.654 31.9477 124.673 31.9298 124.684 31.9075C124.695 31.8851 124.699 31.8596 124.693 31.8352C124.688 31.8108 124.675 31.7888 124.655 31.773C124.636 31.7571 124.611 31.7482 124.586 31.7478Z" fill="#243C6C"/>
<path d="M147.208 38.3194C145.571 38.3217 143.758 38.1434 141.769 37.7847C138.572 37.2086 135.668 35.6528 134.613 32.4101C134.293 31.4281 134.125 30.3001 134.112 29.026C134.084 26.6849 134.076 23.7837 134.087 20.3226C134.088 20.2811 134.105 20.2417 134.134 20.2127C134.164 20.1836 134.203 20.1674 134.244 20.1674H139.631C139.659 20.1674 139.686 20.1728 139.712 20.1834C139.738 20.194 139.761 20.2095 139.781 20.229C139.801 20.2486 139.816 20.2717 139.827 20.2973C139.838 20.3228 139.843 20.3502 139.843 20.3778C139.836 24.0137 139.844 26.7067 139.868 28.4569C139.875 28.9743 140.053 29.6539 140.404 30.4956C140.45 30.6077 140.515 30.7125 140.595 30.8061C142.305 32.7896 144.739 32.7758 147.198 32.7723C149.66 32.7689 152.094 32.7758 153.796 30.7888C153.877 30.6942 153.942 30.5882 153.988 30.4749C154.336 29.6332 154.513 28.9536 154.517 28.4362C154.536 26.686 154.537 23.993 154.521 20.3571C154.521 20.3019 154.543 20.2489 154.582 20.2095C154.621 20.1702 154.674 20.1476 154.73 20.1467L160.117 20.1294C160.137 20.129 160.158 20.1326 160.177 20.1402C160.196 20.1477 160.214 20.1591 160.228 20.1735C160.243 20.1879 160.255 20.2051 160.264 20.2242C160.272 20.2433 160.276 20.2638 160.277 20.2847C160.298 23.7458 160.298 26.6469 160.277 28.9881C160.265 30.2622 160.102 31.3913 159.786 32.3756C158.738 35.6217 155.84 37.1844 152.644 37.7709C150.654 38.1342 148.842 38.3171 147.208 38.3194Z" fill="#243C6C"/>
<path d="M169.269 32.5173H182.272C182.309 32.5173 182.344 32.5319 182.37 32.5578C182.397 32.5836 182.411 32.6187 182.411 32.6553V37.6435C182.411 37.6801 182.397 37.7152 182.37 37.7411C182.344 37.7669 182.309 37.7815 182.272 37.7815H163.569C163.532 37.7815 163.497 37.7669 163.47 37.7411C163.444 37.7152 163.43 37.6801 163.43 37.6435V20.2884C163.43 20.2703 163.433 20.2523 163.44 20.2356C163.447 20.2188 163.458 20.2036 163.47 20.1908C163.483 20.178 163.499 20.1678 163.516 20.1609C163.533 20.154 163.551 20.1504 163.569 20.1504H168.991C169.009 20.1504 169.027 20.154 169.044 20.1609C169.061 20.1678 169.076 20.178 169.089 20.1908C169.102 20.2036 169.112 20.2188 169.119 20.2356C169.126 20.2523 169.13 20.2703 169.13 20.2884V32.3793C169.13 32.4159 169.145 32.451 169.171 32.4769C169.197 32.5028 169.232 32.5173 169.269 32.5173Z" fill="#243C6C"/>
<path d="M190.347 20.1504C190.374 20.15 190.401 20.1548 190.426 20.1646C190.451 20.1745 190.473 20.1892 190.492 20.2078C190.512 20.2264 190.527 20.2486 190.537 20.2731C190.547 20.2976 190.553 20.3239 190.553 20.3505L190.556 32.3242C190.556 32.3745 190.576 32.4228 190.611 32.4583C190.647 32.4939 190.694 32.5139 190.744 32.5139L203.712 32.5105C203.745 32.5105 203.777 32.5236 203.801 32.5468C203.824 32.5701 203.837 32.6017 203.837 32.6347L203.841 37.5849C203.841 37.6352 203.821 37.6835 203.785 37.719C203.749 37.7546 203.7 37.7746 203.649 37.7746L184.978 37.7815C184.963 37.7815 184.948 37.7785 184.934 37.7726C184.92 37.7667 184.907 37.7581 184.897 37.7472C184.886 37.7363 184.877 37.7233 184.872 37.7091C184.866 37.6949 184.863 37.6796 184.863 37.6642L184.859 20.3815C184.859 20.3248 184.882 20.2704 184.923 20.2303C184.963 20.1902 185.018 20.1677 185.075 20.1677L190.347 20.1504Z" fill="#243C6C"/>
<path d="M227.541 34.3147C227.597 34.3147 227.633 34.2963 227.649 34.2595C229.604 29.8508 231.662 25.2007 233.823 20.3091C233.845 20.2599 233.881 20.218 233.927 20.1886C233.973 20.1592 234.026 20.1435 234.081 20.1436H240.029C240.051 20.1438 240.073 20.1496 240.093 20.1604C240.113 20.1712 240.129 20.1867 240.141 20.2054C240.153 20.224 240.16 20.2453 240.161 20.2671C240.162 20.2888 240.157 20.3105 240.147 20.3298L231.57 37.6125C231.548 37.658 231.514 37.6966 231.471 37.724C231.428 37.7514 231.378 37.7665 231.327 37.7677C231.083 37.7723 229.822 37.7758 227.545 37.7781C225.268 37.7804 224.007 37.7792 223.763 37.7746C223.712 37.7734 223.662 37.7583 223.619 37.7309C223.576 37.7035 223.541 37.6649 223.52 37.6194L214.905 20.354C214.894 20.3346 214.89 20.313 214.891 20.2912C214.892 20.2694 214.899 20.2482 214.91 20.2295C214.922 20.2109 214.939 20.1954 214.959 20.1846C214.978 20.1737 215 20.1679 215.023 20.1677L220.971 20.1574C221.025 20.1573 221.079 20.173 221.125 20.2024C221.171 20.2318 221.207 20.2737 221.228 20.3229C223.401 25.2099 225.47 29.8554 227.434 34.2595C227.45 34.2963 227.486 34.3147 227.541 34.3147Z" fill="#243C6C"/>
<path d="M212.166 20.1504H206.859C206.749 20.1504 206.66 20.2384 206.66 20.347V37.5814C206.66 37.69 206.749 37.778 206.859 37.778H212.166C212.275 37.778 212.364 37.69 212.364 37.5814V20.347C212.364 20.2384 212.275 20.1504 212.166 20.1504Z" fill="#243C6C"/>
<path d="M271.369 20.1538H266.062C265.952 20.1538 265.863 20.2418 265.863 20.3504V37.5779C265.863 37.6865 265.952 37.7746 266.062 37.7746H271.369C271.478 37.7746 271.567 37.6865 271.567 37.5779V20.3504C271.567 20.2418 271.478 20.1538 271.369 20.1538Z" fill="#243C6C"/>
<path d="M250.719 20.2848C252 20.2848 252.983 20.2825 253.668 20.2779C253.73 20.277 253.791 20.2929 253.845 20.3239C253.899 20.3548 253.944 20.3997 253.974 20.4538L263.631 37.6226C263.638 37.6374 263.642 37.6539 263.642 37.6706C263.641 37.6873 263.636 37.7035 263.627 37.7178C263.619 37.732 263.606 37.7438 263.592 37.7519C263.577 37.76 263.56 37.7642 263.544 37.7641H257.662C257.609 37.7642 257.557 37.7501 257.512 37.7234C257.467 37.6966 257.43 37.6583 257.404 37.6123L256.085 35.2665C256.054 35.2119 256.009 35.1663 255.954 35.1342C255.9 35.1021 255.838 35.0847 255.775 35.0837C255.461 35.0768 253.783 35.0757 250.739 35.0803C247.696 35.0849 246.018 35.0906 245.704 35.0975C245.642 35.0991 245.58 35.1168 245.527 35.1488C245.473 35.1809 245.428 35.2262 245.398 35.2803L244.085 37.6295C244.06 37.6762 244.023 37.7152 243.978 37.7426C243.932 37.7699 243.88 37.7845 243.827 37.7848L237.946 37.7986C237.929 37.7987 237.912 37.7945 237.898 37.7864C237.883 37.7783 237.871 37.7665 237.862 37.7523C237.853 37.738 237.848 37.7218 237.848 37.7051C237.847 37.6884 237.851 37.6719 237.859 37.6571L247.466 20.4641C247.496 20.4094 247.541 20.3638 247.595 20.3322C247.649 20.3007 247.71 20.2843 247.773 20.2848C248.457 20.2871 249.439 20.2871 250.719 20.2848ZM247.797 30.8751C247.787 30.8935 247.783 30.914 247.784 30.9347C247.784 30.9553 247.79 30.9754 247.801 30.9931C247.812 31.0107 247.827 31.0253 247.845 31.0355C247.864 31.0456 247.884 31.051 247.905 31.0511L253.665 31.0304C253.685 31.0297 253.705 31.0239 253.723 31.0135C253.74 31.0031 253.755 30.9885 253.766 30.9709C253.776 30.9534 253.782 30.9335 253.782 30.9131C253.783 30.8927 253.778 30.8726 253.769 30.8545L250.872 25.4868C250.861 25.4673 250.846 25.451 250.827 25.4396C250.808 25.4282 250.786 25.4221 250.764 25.4221C250.742 25.4221 250.72 25.4282 250.701 25.4396C250.682 25.451 250.666 25.4673 250.656 25.4868L247.797 30.8751Z" fill="#243C6C"/>
<path d="M296.851 31.0648C296.83 31.0732 296.814 31.088 296.803 31.1068C296.792 31.1256 296.788 31.1475 296.791 31.1693C296.794 31.191 296.805 31.2114 296.82 31.2274C296.836 31.2434 296.856 31.2541 296.879 31.258C297.968 31.427 299.058 31.7961 299.354 32.9656C299.505 33.5612 299.566 35.0905 299.535 37.5536C299.535 37.6124 299.51 37.6686 299.468 37.7099C299.426 37.7512 299.369 37.7744 299.309 37.7744H294.027C293.996 37.7744 293.965 37.7682 293.936 37.7562C293.908 37.7442 293.882 37.7266 293.86 37.7045C293.839 37.6823 293.822 37.656 293.81 37.6272C293.799 37.5983 293.793 37.5674 293.793 37.5363C293.816 36.575 293.816 35.6494 293.793 34.7594C293.751 32.8483 291.829 32.8586 290.412 32.8586C284.843 32.8586 281.662 32.8598 280.871 32.8621C280.834 32.8621 280.798 32.8766 280.772 32.9025C280.746 32.9284 280.732 32.9635 280.732 33.0001V37.5743C280.732 37.6283 280.71 37.68 280.67 37.7182C280.631 37.7564 280.578 37.7778 280.523 37.7778H275.261C275.235 37.7778 275.209 37.7727 275.185 37.7628C275.161 37.753 275.139 37.7385 275.121 37.7202C275.102 37.702 275.088 37.6803 275.078 37.6564C275.068 37.6326 275.063 37.607 275.062 37.5812V20.4675C275.062 20.4431 275.067 20.4188 275.077 20.3962C275.087 20.3736 275.101 20.3531 275.119 20.3358C275.136 20.3185 275.157 20.3048 275.181 20.2954C275.204 20.2861 275.229 20.2812 275.254 20.2812C277.569 20.2904 283.375 20.2927 292.672 20.2881C294.939 20.2847 297.255 20.7401 298.856 22.3786C298.935 22.4564 299.002 22.5447 299.055 22.6408C300.124 24.5484 300.451 27.5289 299.163 29.5056C298.644 30.299 297.759 30.6578 296.851 31.0648ZM280.867 25.7075L280.86 28.1154C280.86 28.141 280.871 28.1656 280.889 28.1837C280.907 28.2018 280.932 28.212 280.958 28.212L292.951 28.2327C293.136 28.2331 293.319 28.2009 293.49 28.1378C293.661 28.0748 293.817 27.9821 293.948 27.8651C294.079 27.7482 294.183 27.6092 294.254 27.4562C294.324 27.3032 294.361 27.1392 294.361 26.9735V26.8908C294.361 26.5574 294.213 26.2377 293.95 26.0017C293.687 25.7657 293.33 25.6326 292.958 25.6316L280.965 25.6109C280.939 25.6109 280.914 25.6211 280.896 25.6392C280.878 25.6573 280.867 25.6819 280.867 25.7075Z" fill="#243C6C"/>
<path d="M63.6626 29.9472C63.9017 31.2374 63.9191 32.554 63.7148 33.8971C60.9569 32.2033 58.0597 31.0339 55.2601 29.9679C55.2435 29.9629 55.2295 29.9519 55.2207 29.9372C55.2118 29.9224 55.2089 29.9049 55.2124 29.8881C55.2158 29.8713 55.2255 29.8564 55.2395 29.8463C55.2534 29.8362 55.2707 29.8316 55.2879 29.8334L63.6626 29.9472Z" fill="#243C6C"/>
<path d="M71.4607 40.2063C71.4143 40.0063 71.2135 39.8361 70.8583 39.6958C70.784 39.5003 70.6795 39.375 70.5449 39.3198C70.3917 39.076 70.1305 38.8495 69.7614 38.6402C67.8323 36.782 65.8172 35.2009 63.7163 33.897C63.9206 32.5539 63.9032 31.2373 63.6641 29.9471L79.5429 29.9092C79.5808 29.9092 79.6171 29.9241 79.6439 29.9506C79.6706 29.9771 79.6857 30.0131 79.6857 30.0506V53.9531C79.6853 53.9718 79.6795 53.9899 79.669 54.0053C79.6585 54.0207 79.6437 54.0328 79.6264 54.0401C79.6091 54.0474 79.59 54.0496 79.5715 54.0464C79.553 54.0432 79.5358 54.0348 79.522 54.0221C79.2713 53.7945 79.3061 53.3805 79.1633 52.9907C77.4199 48.2555 74.8524 43.994 71.4607 40.2063ZM72.3591 37.2604C74.0167 38.9001 75.5361 40.7042 76.9173 42.6728C76.9288 42.6888 76.945 42.7008 76.9637 42.7071C76.9824 42.7134 77.0026 42.7137 77.0215 42.7079C77.0404 42.7022 77.0569 42.6907 77.0689 42.6751C77.0808 42.6596 77.0875 42.6406 77.088 42.6211C77.081 37.8261 77.1367 32.7448 77.0218 32.6309C76.9104 32.5206 71.7811 32.5826 66.9408 32.5792C66.9208 32.5789 66.9012 32.585 66.8849 32.5966C66.8686 32.6081 66.8564 32.6245 66.8502 32.6434C66.844 32.6623 66.844 32.6826 66.8503 32.7015C66.8566 32.7203 66.8688 32.7367 66.8851 32.7482C68.8746 34.1143 70.6993 35.6183 72.3591 37.2604Z" fill="#243C6C" fill-opacity="0.996"/>
<path d="M71.461 40.2068C69.8522 43.7002 67.7548 46.5599 65.1686 48.7861C58.2704 54.7229 49.4221 57.9449 40.3858 58.7176C37.4399 58.966 34.5183 59.1074 31.6907 58.9004C27.3844 58.5807 23.2998 57.8552 19.4369 56.7237C16.73 55.9326 14.1207 54.9195 11.6089 53.6846C7.75524 51.7896 4.37983 49.445 1.48264 46.6508C1.10424 46.2874 0.797803 45.9367 0.563335 45.5986C0.562286 45.5954 0.562224 45.5919 0.563157 45.5886C0.56409 45.5854 0.565977 45.5825 0.56858 45.5802C0.571184 45.578 0.574388 45.5766 0.577791 45.5762C0.581194 45.5758 0.584645 45.5764 0.587711 45.5779C3.08097 47.8305 6.16968 49.9176 9.30715 51.3699C15.538 54.2515 22.1251 55.9084 29.0686 56.3408C37.0057 56.8352 44.6318 55.8912 51.9467 53.5086C54.6071 52.6416 57.1004 51.5527 59.4265 50.2418C64.1309 47.5891 68.1738 44.4119 70.8586 39.6963C71.2137 39.8366 71.4145 40.0068 71.461 40.2068Z" fill="#243C6C"/>
<path d="M0.145428 45.1211C0.0975081 45.0716 0.0451584 45.0443 0.0285016 45.0601C0.0118448 45.076 0.0371885 45.1289 0.0851084 45.1784C0.133028 45.2279 0.185378 45.2552 0.202035 45.2394C0.218692 45.2236 0.193348 45.1706 0.145428 45.1211Z" fill="#243C6C" fill-opacity="0.996"/>
</svg>
