<svg width="300" height="156" viewBox="0 0 300 156" fill="none" xmlns="http://www.w3.org/2000/svg">
<path d="M118.861 90.3157C118.861 93.6224 118.453 98.7496 111.837 98.7496H104.022C97.4361 98.7496 97.0273 93.6224 97.0273 90.3157V59.962C97.0273 56.6536 97.4361 51.5264 104.022 51.5264H111.837C118.453 51.5264 118.861 56.6536 118.861 59.962V66.6389H109.409V58.9405C109.409 58.1331 108.81 57.3908 107.929 57.3908C107.392 57.3908 106.448 57.7252 106.448 58.9405V91.1432C106.448 92.3569 107.39 92.6929 107.929 92.6929C108.81 92.6929 109.409 91.954 109.409 91.1432V80.8052H107.993V75.6094H118.861V90.3157Z" fill="#0F79BF"/>
<path d="M133.041 81.0072L134.648 57.4056H135.183L136.82 81.0072H133.041ZM122.609 98.7494H131.841L132.692 86.203H137.137L138.02 98.7494H147.25L142.338 51.5244H127.528L122.609 98.7494Z" fill="#0F79BF"/>
<path d="M150.75 92.8164L159.793 57.4056H151.696V51.5244H169.461V57.3922L160.457 92.6943H170.033V98.7494H150.75V92.8164Z" fill="#0F79BF"/>
<path d="M183.894 76.7978V57.3805H185.092C186.134 57.3805 186.858 58.2548 186.858 59.7444V74.4406C186.858 75.9218 186.134 76.7994 185.092 76.7994L183.894 76.7978ZM174.443 98.7494H183.894V82.694H189.284C195.863 82.694 196.277 77.5668 196.277 74.2601V59.96C196.277 56.6516 195.863 51.5244 189.284 51.5244H174.441L174.443 98.7494Z" fill="#0F79BF"/>
<path d="M210.553 75.3887V57.3841H211.778C212.786 57.3841 213.51 58.2601 213.51 59.7446V73.0282C213.51 74.5127 212.786 75.3887 211.778 75.3887H210.553ZM224.163 98.7496L219.533 80.3304C222.872 78.9813 222.939 75.8768 222.939 74.5946V59.9585C222.939 56.6502 222.557 51.5229 215.939 51.5229H201.133V98.7496H210.555V81.2749H211.242L214.458 98.7496H224.163Z" fill="#0F79BF"/>
<path d="M241.618 91.1432C241.618 91.9524 241.021 92.6963 240.131 92.6963C239.601 92.6963 238.653 92.3569 238.653 91.1432V58.9389C238.653 57.7218 239.599 57.3892 240.131 57.3892C241.017 57.3892 241.618 58.1297 241.618 58.9389V91.1432ZM229.234 90.3157C229.234 93.6224 229.645 98.7496 236.264 98.7496H244.046C250.665 98.7496 251.069 93.6224 251.069 90.3157V59.962C251.069 56.6536 250.665 51.5264 244.046 51.5264H236.264C229.645 51.5264 229.234 56.6536 229.234 59.962V90.3157Z" fill="#0F79BF"/>
<path d="M280.657 51.5244H292.915V98.7494H283.495V69.1312H283.146L278.296 98.7494H270.764L265.912 69.1312H265.565V98.7494H256.145V51.5244H268.398L274.511 84.7151L280.657 51.5244Z" fill="#0F79BF"/>
<path d="M85.1931 32.726C82.1814 19.5627 74.6548 8.86192 73.6403 7.11328C72.0052 9.57241 66.0152 19.0177 62.9385 29.5079C59.6332 41.19 59.1443 51.5631 60.2889 61.7775C61.4352 71.9884 65.7199 82.4753 65.7199 82.4753C68.0108 87.987 71.4479 93.8849 73.672 96.7837C76.9456 92.5224 84.4723 79.8038 86.8266 63.1968C88.138 53.9654 88.168 45.8826 85.1931 32.726ZM73.6403 93.5021C72.1687 90.7169 69.8778 85.4142 69.6459 77.2277C69.5808 69.3103 72.756 62.5381 73.672 61.1205C74.4913 62.5398 77.2393 68.4343 77.5663 76.5189C77.7615 84.4379 75.1453 90.6601 73.6403 93.5021ZM84.3088 55.0571C84.2103 60.074 83.6214 65.3734 82.8372 68.5397C83.1325 63.0814 82.4768 55.3814 81.2003 49.3732C79.959 43.37 76.4234 33.3211 73.5786 28.6804C70.959 33.1038 67.7521 41.7902 66.0519 49.318C64.3818 56.8626 64.3167 65.9735 64.3167 68.7135C63.8562 66.4065 62.7449 58.1899 63.072 49.9265C63.3339 43.1092 64.9057 36.1079 65.7883 32.8882C69.1253 22.1288 72.8878 15.253 73.5769 14.163C74.2944 15.253 79.0396 23.7153 81.4957 32.6173C83.9484 41.5143 84.4389 50.0335 84.3088 55.0571Z" fill="#0F79BF"/>
<path d="M78.7119 99.8464H55.9033V115.178C55.9384 115.156 55.9701 115.141 55.9701 115.119C61.336 109.735 70.0723 109.735 75.4383 115.119C80.8059 120.507 80.8059 129.232 75.4383 134.624C75.4049 134.644 75.4049 134.659 75.3749 134.68C75.3749 134.685 75.3749 134.685 75.3749 134.692C75.3415 134.714 75.3081 134.732 75.2747 134.759C69.9422 140.092 62.9061 142.76 55.9033 142.76C48.8689 142.76 41.8328 140.073 36.4652 134.694C27.0097 125.218 25.8968 110.557 33.0948 99.8464C34.0759 98.4003 35.1871 97.0228 36.4652 95.7456C41.8328 90.3593 48.8689 87.6745 55.9033 87.6745V50.7959C28.8751 50.7959 6.94922 72.7592 6.94922 99.8464C6.94922 126.929 28.8751 148.89 55.9033 148.89C70.0089 148.89 82.7046 142.917 91.6378 133.37V99.8464H78.7119Z" fill="#0F79BF"/>
<path d="M292.916 115.556H97.0273V148.888H292.916V115.556Z" fill="#0F79BF"/>
<path d="M107.141 120.822H107.408H114.482L116.778 143.288H116.511H112.133L111.652 137.297H109.839L109.411 143.288H109.144H104.793L107.141 120.822ZM111.467 134.839L110.72 124.006L109.972 134.839H111.467Z" fill="white"/>
<path d="M162.742 120.822H163.009H167.519L168.802 134.438L169.897 120.822H170.162H174.727L171.869 143.317H171.602H165.675L162.742 120.822Z" fill="white"/>
<path d="M221.439 120.822H221.704H226.189V143.288H225.922H221.438L221.439 120.822Z" fill="white"/>
<path d="M275.252 120.822H275.517H282.591L284.887 143.288H284.62H280.242L279.762 137.297H277.946L277.519 143.288H277.252H272.902L275.252 120.822ZM279.576 134.839L278.831 124.006L278.083 134.839H279.576Z" fill="white"/>
</svg>
