<svg width="300" height="59" viewBox="0 0 300 59" fill="none" xmlns="http://www.w3.org/2000/svg">
<path d="M246.336 14.5527L268.864 2.51589L251.156 2.46655L246.336 14.5527Z" fill="#00A7E1"/>
<path d="M85.0965 44.9407H64.0438L67.6838 35.7651H86.4737L90.4088 25.5042H71.5205L75.5047 15.3913H94.2947L98.5741 4.43982H79.7349H63.1093L43.9258 55.9908H80.8171L85.0965 44.9407Z" fill="#F15A22"/>
<path d="M90.8543 44.9407L86.4766 56.0402C96.2159 57.0761 104.529 55.9415 104.529 55.9415C110.284 55.3988 119.974 53.5243 125.188 40.9448L139.748 4.43982H123.122L110.382 36.0117C110.382 36.0117 108.365 42.8688 101.086 44.694C98.4785 45.3846 93.7564 45.0887 90.8543 44.9407Z" fill="#F15A22"/>
<path d="M6.8387 44.9407L2.46094 56.0402C12.2002 57.0761 20.4639 55.9415 20.4639 55.9415C26.2189 55.3988 35.909 53.5243 41.123 40.9448L55.6828 4.43982H39.0079L26.2681 36.0117C26.2681 36.0117 24.2514 42.8688 16.9715 44.694C14.4629 45.3846 9.69163 45.0887 6.8387 44.9407Z" fill="#F15A22"/>
<path d="M175.309 4.43982L163.11 37.4917C160.208 44.8913 157.552 45.286 153.518 45.286C148.796 45.286 149.977 41.3888 150.616 39.1196L163.651 4.43982H147.173L133.745 40.6982C129.072 53.6229 139.746 56.3361 145.009 56.3361H153.617C158.339 56.3361 173.194 55.0535 177.719 42.8687L191.885 4.48915H175.309V4.43982Z" fill="#F15A22"/>
<path d="M260.75 15.49H245.846L230.598 56.4841H245.551L260.75 15.49Z" fill="#F15A22"/>
<path d="M294.392 15.49C286.374 15.49 281.701 20.1271 279.242 23.087L282.242 15.49H267.338L252.09 56.4841H267.043L274.323 37.0477C278.061 28.3161 286.03 27.7734 287.407 27.7734H293.064L297.54 15.49H294.392Z" fill="#F15A22"/>
<path d="M215.004 41.7341C215.004 41.7341 213.037 47.8018 204.576 47.8018C203.297 47.8018 201.527 47.0619 201.822 44.7433C202.117 42.1781 203.789 41.1915 205.904 40.7475L216.086 38.8236L215.004 41.7341ZM203.74 33.3478C194.247 34.3838 186.623 38.7249 185.639 46.8646C185.147 50.9097 187.114 56.4841 197.788 56.4841C197.788 56.4841 205.806 56.7801 210.774 53.3763L209.594 56.5335H224.202L234.237 29.0067L234.778 27.5761C236.155 23.8269 236.106 15.5393 218.497 15.1447C211.069 14.9967 198.92 16.4273 191.738 29.0067H206.298C206.298 29.0067 208.364 23.6296 215.053 23.6296C215.053 23.6296 219.234 23.4323 219.579 26.1948C219.579 26.1948 220.071 30.24 213.922 31.7692C210.331 32.6079 203.74 33.3478 203.74 33.3478Z" fill="#F15A22"/>
</svg>
