<svg width="300" height="100" viewBox="0 0 300 100" fill="none" xmlns="http://www.w3.org/2000/svg">
<path d="M227.794 68.7315C227.522 68.7461 226.763 68.8191 225.518 68.9504C207.635 70.8417 198.515 51.4301 194.715 37.539C194.688 37.4398 194.64 37.3477 194.575 37.2685C194.51 37.1893 194.429 37.1249 194.338 37.0794C187.464 33.6704 182.24 28.5104 178.664 21.5991C175.374 15.2337 173.081 7.58111 173.217 0.388229C173.217 0.355557 173.229 0.324003 173.251 0.299718C173.272 0.275432 173.303 0.260165 173.335 0.256898C175.289 0.0671893 177.062 -0.0174508 178.655 0.00297938C188.816 0.134316 198.88 1.14123 208.531 3.97373C217.914 6.72742 225.47 11.2148 231.849 18.7272C235.673 23.2277 239.006 28.2258 241.847 33.7215C241.875 33.778 241.924 33.8214 241.984 33.8426C242.044 33.8638 242.11 33.8612 242.167 33.8353C251.05 29.9478 260.134 31.8653 267.181 38.2351C267.995 38.9706 268.939 39.8053 270.014 40.7393C270.419 41.0922 270.94 41.2867 271.481 41.2865H299.732C299.803 41.2865 299.871 41.3151 299.921 41.366C299.972 41.4169 300 41.4859 300 41.5579V47.4418C300 47.4894 299.981 47.5351 299.948 47.5687C299.915 47.6024 299.871 47.6213 299.824 47.6213C294.214 47.687 287.783 48.3043 282.551 50.0379C276.65 51.9934 271.313 55.1119 266.539 59.3935C262.313 63.1804 257.661 68.0004 252.609 72.2032C245.095 78.4548 236.55 82.1848 226.977 83.3931C226.521 83.4526 226.098 83.6604 225.773 83.9841C219.193 90.5685 210.855 95.8788 202.478 99.9765C202.427 100.001 202.369 100.007 202.315 99.9913C202.262 99.9759 202.216 99.9409 202.188 99.8934C200.721 97.5439 199.95 94.9055 199.877 91.9781C199.742 86.6984 201.831 82.6489 206.141 79.8295C208.931 78.0039 211.993 77.6887 216.047 77.7456C218.493 77.7777 220.721 77.6989 222.733 77.5092C222.872 77.495 223 77.4277 223.094 77.321C225.354 74.738 226.98 71.9522 227.97 68.9636C227.979 68.9364 227.982 68.9074 227.977 68.879C227.973 68.8506 227.961 68.8238 227.944 68.8009C227.926 68.778 227.904 68.7597 227.878 68.7476C227.851 68.7355 227.823 68.73 227.794 68.7315ZM234.388 59.0432C237.884 57.3505 240.511 54.8872 242.269 51.6534C242.342 51.5182 242.387 51.3694 242.399 51.2165C242.412 51.0635 242.393 50.9096 242.343 50.7646C239.371 42.2745 235.546 34.6569 230.869 27.9121C225.782 20.5791 220.256 15.3037 212.278 12.0509C202.596 8.10646 191.434 6.60046 180.658 6.47788C180.625 6.47822 180.592 6.48558 180.562 6.49946C180.531 6.51335 180.504 6.53343 180.483 6.55835C180.461 6.58327 180.445 6.61243 180.436 6.64387C180.427 6.67531 180.425 6.70829 180.43 6.74056C181.467 13.3629 184.014 19.1898 188.073 24.2215C190.727 27.5107 193.887 29.9186 197.553 31.445C198.903 32.0054 200.507 32.6402 202.364 33.3494C210.842 36.5934 219.43 40.9013 226.081 46.8858C229.639 50.0817 232.925 54.3458 234.129 58.925C234.135 58.9513 234.148 58.9757 234.166 58.9965C234.183 59.0172 234.205 59.0339 234.23 59.0452C234.255 59.0565 234.282 59.0621 234.309 59.0618C234.336 59.0615 234.363 59.0551 234.388 59.0432ZM271.6 47.7089C269.573 47.7556 267.744 47.1033 266.113 45.752C263.934 43.9439 261.584 41.5273 259.067 40.1614C254.671 37.774 249.996 37.5565 245.04 39.5091C245.004 39.5241 244.97 39.5462 244.942 39.574C244.914 39.6018 244.892 39.6348 244.877 39.6711C244.861 39.7074 244.854 39.7462 244.854 39.7853C244.854 39.8244 244.862 39.8629 244.878 39.8987L246.74 44.2635C246.753 44.2938 246.773 44.3207 246.798 44.3422C246.823 44.3637 246.852 44.3791 246.884 44.3872C246.915 44.3953 246.948 44.3958 246.98 44.3888C247.011 44.3818 247.041 44.3673 247.066 44.3467C249.813 42.1811 253.096 41.1902 256.914 41.3741C256.981 41.3774 257.043 41.4061 257.089 41.4542C257.135 41.5023 257.161 41.5661 257.16 41.6324V47.4243C257.16 47.4774 257.139 47.5285 257.102 47.5668C257.064 47.6051 257.013 47.6278 256.958 47.6301C253.984 47.7308 251.441 48.0547 249.908 50.9091C249.422 51.8081 248.656 53.1988 247.61 55.0813C244.693 60.3304 240.542 63.0884 235.143 66.0347C235.085 66.0657 235.036 66.1103 234.999 66.1645C234.962 66.2186 234.939 66.2808 234.932 66.3456C234.61 69.6553 233.615 72.8044 231.945 75.7931C231.934 75.8128 231.928 75.8356 231.93 75.8584C231.931 75.8813 231.94 75.9031 231.954 75.921C231.968 75.939 231.988 75.9523 232.01 75.9591C232.032 75.966 232.055 75.9661 232.077 75.9594C239.217 73.9047 245.537 70.3032 251.037 65.1548C253.005 63.3132 256.089 60.4077 260.288 56.4384C263.814 53.1025 267.596 50.2335 271.635 47.8315C271.648 47.8242 271.658 47.8128 271.663 47.7992C271.669 47.7856 271.67 47.7706 271.666 47.7565C271.661 47.7424 271.653 47.73 271.641 47.7214C271.629 47.7128 271.615 47.7084 271.6 47.7089ZM202.311 40.3803C204.292 46.4174 207.306 52.6253 211.729 57.3753C216.292 62.2785 221.761 63.7976 228.137 61.9327C228.198 61.9143 228.249 61.873 228.281 61.8175C228.312 61.7619 228.32 61.6965 228.304 61.635C227.431 58.3574 225.754 55.4607 223.274 52.9448C217.699 47.2974 210.086 43.2828 202.469 40.2314C202.448 40.2224 202.424 40.2197 202.402 40.2238C202.379 40.2278 202.358 40.2384 202.341 40.2542C202.324 40.27 202.312 40.2904 202.307 40.3128C202.302 40.3352 202.303 40.3586 202.311 40.3803ZM206.242 90.5072C206.239 90.5295 206.242 90.5524 206.251 90.5731C206.26 90.5938 206.275 90.6114 206.294 90.6239C206.313 90.6363 206.336 90.6431 206.358 90.6433C206.381 90.6436 206.403 90.6374 206.423 90.6254C209.741 88.6903 212.829 86.6094 215.687 84.3825C215.707 84.3676 215.721 84.3472 215.729 84.324C215.737 84.3009 215.737 84.2759 215.73 84.2524C215.724 84.2289 215.71 84.2078 215.692 84.192C215.673 84.1762 215.65 84.1663 215.626 84.1636C214.358 84.0031 213.24 84.0191 212.274 84.2118C208.763 84.9122 206.752 87.0107 206.242 90.5072Z" fill="#E0043B"/>
<path d="M118.513 50.1659C118.506 50.1961 118.51 50.2275 118.522 50.2557C118.535 50.2839 118.556 50.3076 118.582 50.3234C118.609 50.3393 118.639 50.3465 118.67 50.3442C118.701 50.3419 118.73 50.3301 118.754 50.3104L129.675 40.9111C129.959 40.6682 130.32 40.5346 130.694 40.5346H152.088C152.183 40.5346 152.276 40.5674 152.349 40.6273C152.423 40.6871 152.473 40.7704 152.492 40.8629L155.993 58.0987C155.999 58.1275 156.013 58.154 156.034 58.1744C156.055 58.1949 156.082 58.2084 156.112 58.2132C156.141 58.2179 156.171 58.2137 156.197 58.2011C156.224 58.1884 156.246 58.168 156.261 58.1424L166.707 40.7972C166.755 40.7184 166.823 40.6532 166.904 40.608C166.985 40.5627 167.076 40.539 167.168 40.5389H176.609C176.649 40.5384 176.689 40.5486 176.723 40.5686C176.758 40.5886 176.787 40.6175 176.807 40.6525C176.827 40.6874 176.837 40.727 176.836 40.7671C176.835 40.8073 176.823 40.8464 176.802 40.8804C170.283 51.402 164.099 61.4361 158.251 70.9828C156.614 73.6562 154.868 75.8233 153.014 77.484C149.715 80.4434 145.973 80.8243 141.646 80.5091C139.531 80.3544 137.543 79.6613 135.68 78.4296C135.59 78.3693 135.526 78.2765 135.503 78.171C135.48 78.0655 135.499 77.9556 135.557 77.8649L139.787 71.136C139.808 71.1029 139.836 71.0747 139.869 71.0533C139.902 71.0318 139.939 71.0177 139.978 71.0119C140.016 71.0061 140.056 71.0087 140.094 71.0195C140.131 71.0304 140.166 71.0492 140.196 71.0747C141.203 71.9328 142.461 72.4348 143.969 72.5807C145.689 72.7471 147.151 72.086 148.358 70.5976C148.508 70.4135 148.615 70.1979 148.669 69.9672C148.723 69.7366 148.723 69.497 148.67 69.2667L142.419 41.8611C142.408 41.8105 142.384 41.7637 142.349 41.7253C142.315 41.6868 142.27 41.658 142.221 41.6416C142.172 41.6253 142.119 41.622 142.069 41.6321C142.018 41.6421 141.97 41.6652 141.931 41.6991L128.366 53.3749C128.327 53.4094 128.3 53.4562 128.292 53.5068C128.284 53.5574 128.295 53.6085 128.322 53.6507L137.907 69.525C137.921 69.5482 137.929 69.5748 137.929 69.6019C137.93 69.629 137.923 69.6557 137.909 69.6793C137.896 69.7028 137.876 69.7225 137.853 69.7361C137.829 69.7498 137.803 69.757 137.775 69.757H126.345C126.243 69.7569 126.143 69.7303 126.053 69.6797C125.964 69.629 125.889 69.5562 125.836 69.4681L120.16 60.0687C120.142 60.0393 120.118 60.0142 120.09 59.9952C120.061 59.9762 120.029 59.9637 119.995 59.9587C119.961 59.9537 119.926 59.9562 119.893 59.9662C119.86 59.9761 119.83 59.9932 119.804 60.0162C118.785 60.921 117.682 61.8695 116.496 62.8618C116.06 63.2266 115.782 63.714 115.662 64.324C115.313 66.0606 114.987 67.7621 114.682 69.4287C114.664 69.5257 114.612 69.6133 114.536 69.6764C114.46 69.7395 114.364 69.7742 114.265 69.7745H104.578C104.542 69.7746 104.506 69.7666 104.473 69.7511C104.44 69.7356 104.411 69.713 104.388 69.6849C104.365 69.6568 104.348 69.624 104.339 69.5888C104.331 69.5535 104.33 69.5168 104.337 69.4812L112.24 29.9751C112.247 29.9382 112.267 29.905 112.297 29.881C112.326 29.8571 112.364 29.8439 112.402 29.8438H122.273C122.31 29.8436 122.347 29.8517 122.38 29.8676C122.414 29.8835 122.443 29.9067 122.467 29.9356C122.49 29.9645 122.507 29.9983 122.516 30.0347C122.525 30.071 122.526 30.109 122.519 30.1458L118.513 50.1659Z" fill="#0165AE"/>
<path d="M31.1594 44.2987C29.6351 42.3155 27.9965 40.9058 25.4794 40.4374C17.4624 38.9358 11.4749 44.1761 10.8335 52.0257C10.3283 58.2554 14.3478 61.8278 20.3968 61.6395C23.7589 61.5345 26.6523 60.1364 29.0772 57.4455C29.1006 57.4195 29.1291 57.3986 29.161 57.384C29.1929 57.3695 29.2275 57.3615 29.2629 57.3607C29.2982 57.3599 29.3334 57.3662 29.3664 57.3793C29.3994 57.3923 29.4296 57.4119 29.455 57.4368L35.28 63.2462C35.3587 63.3231 35.4052 63.4268 35.4101 63.5365C35.4149 63.6462 35.3779 63.7537 35.3063 63.8372C32.6032 66.9981 29.1826 69.0192 25.0445 69.9006C14.2248 72.199 1.01542 68.3815 0.0709504 55.5674C-0.759306 44.3425 5.75095 34.8687 16.7727 32.1106C24.1572 30.2588 34.2564 31.1125 38.8689 38.0952C38.9231 38.1767 38.9446 38.2754 38.9291 38.3719C38.9137 38.4684 38.8624 38.5556 38.7855 38.6162L31.5855 44.3512C31.5546 44.376 31.519 44.3944 31.4808 44.4052C31.4425 44.416 31.4024 44.4191 31.3627 44.4142C31.3231 44.4093 31.2847 44.3966 31.2497 44.3767C31.2148 44.3569 31.1841 44.3304 31.1594 44.2987Z" fill="#024381"/>
<path d="M59.3403 69.7521H48.9599C48.9213 69.7522 48.8838 69.7392 48.8535 69.7154C48.8232 69.6916 48.8018 69.6582 48.7929 69.6208L40.2663 32.2336C40.2604 32.2085 40.2602 32.1824 40.2658 32.1572C40.2714 32.132 40.2826 32.1084 40.2987 32.0882C40.3148 32.068 40.3352 32.0516 40.3585 32.0404C40.3818 32.0292 40.4074 32.0234 40.4333 32.0234H51.0114C51.05 32.0234 51.0874 32.0363 51.1177 32.0602C51.148 32.084 51.1694 32.1173 51.1783 32.1548L56.6211 56.0099C56.6287 56.0428 56.6459 56.0726 56.6705 56.0958C56.6951 56.1189 56.7261 56.1342 56.7594 56.1398C56.7928 56.1454 56.8271 56.1411 56.858 56.1273C56.8888 56.1136 56.9149 56.091 56.933 56.0625L71.9874 32.1066C72.0029 32.0824 72.0244 32.0624 72.0497 32.0487C72.0751 32.0349 72.1035 32.0277 72.1324 32.0278H82.8334C82.8642 32.0277 82.8944 32.0359 82.921 32.0514C82.9475 32.067 82.9693 32.0894 82.9842 32.1163C82.999 32.1432 83.0063 32.1735 83.0053 32.2042C83.0043 32.2348 82.995 32.2646 82.9784 32.2905L59.4852 69.6733C59.4697 69.6976 59.4482 69.7175 59.4229 69.7313C59.3976 69.7451 59.3691 69.7522 59.3403 69.7521Z" fill="#024381"/>
<path d="M77.4114 60.3178C80.75 62.1419 84.3727 62.9897 88.2795 62.8613C89.5973 62.8175 91.9827 62.498 92.0661 60.8781C92.1101 60.0069 91.1656 59.5735 90.4452 59.394C85.8019 58.2383 77.6047 58.0982 76.959 51.8597C76.6193 48.5471 77.5681 45.9043 79.8056 43.9313C85.6042 38.8136 96.6479 39.2601 103.395 42.2546C103.434 42.2715 103.469 42.2961 103.498 42.327C103.527 42.3578 103.55 42.3942 103.564 42.4339C103.578 42.4737 103.584 42.5159 103.582 42.5581C103.579 42.6003 103.568 42.6415 103.549 42.6792L100.149 49.338C100.134 49.3664 100.114 49.3915 100.089 49.412C100.065 49.4325 100.036 49.4478 100.005 49.4572C99.9748 49.4666 99.9426 49.4698 99.9107 49.4666C99.8788 49.4634 99.8478 49.4539 99.8196 49.4387C96.8793 47.8422 93.69 47.1666 90.2519 47.4117C88.8681 47.5081 87.067 47.832 86.6892 49.3818C86.6365 49.5971 86.6527 49.8217 86.7352 50.0211C86.8178 50.2204 86.9621 50.3834 87.1461 50.485C87.7845 50.8411 88.5621 51.1067 89.4787 51.2818C93.6476 52.0742 98.2118 52.5908 100.654 55.7779C102.71 58.4615 101.796 63.4304 99.4682 65.8076C93.5421 71.8579 81.1191 71.0436 73.8928 67.7033C73.8348 67.6766 73.7829 67.6386 73.74 67.5915C73.6972 67.5443 73.6643 67.4891 73.6434 67.429C73.6225 67.3689 73.6139 67.3052 73.6183 67.2418C73.6226 67.1783 73.6398 67.1164 73.6687 67.0597L77.0556 60.4272C77.0707 60.3963 77.0921 60.3687 77.1184 60.3463C77.1447 60.3239 77.1754 60.3071 77.2087 60.2968C77.242 60.2866 77.2771 60.2832 77.3119 60.2868C77.3468 60.2904 77.3807 60.3009 77.4114 60.3178Z" fill="#0165AE"/>
</svg>
