<svg width="300" height="99" viewBox="0 0 300 99" fill="none" xmlns="http://www.w3.org/2000/svg">
<path d="M150.916 0C165.349 1.20857 175.446 8.45416 181.207 21.7368C181.223 21.7751 181.247 21.8087 181.28 21.8348C181.312 21.8609 181.35 21.8785 181.391 21.8863C181.432 21.894 181.475 21.8916 181.515 21.8792C181.556 21.8668 181.593 21.8448 181.624 21.8152C186.719 16.6265 190.468 13.0124 192.87 10.973C195.777 8.50936 199.369 7.33275 203.648 7.44314C212.65 7.68137 244.67 8.55584 299.706 10.0665C299.757 10.0682 299.807 10.0828 299.851 10.1091C299.895 10.1354 299.932 10.1724 299.958 10.2168C299.984 10.2611 299.998 10.3114 300 10.3628C300.001 10.4143 299.99 10.4653 299.966 10.511C296.961 16.4377 295.937 20.2203 288.789 20.0721C288.222 20.0605 259.054 19.9472 201.285 19.7322C201.013 19.7321 200.743 19.7957 200.498 19.9181C200.252 20.0405 200.038 20.2185 199.87 20.4381C194.459 27.5414 190.534 34.7666 185.367 43.4125C179.971 52.4477 176.781 57.4854 175.797 58.5254C171.756 62.7961 167.303 65.9802 162.44 68.0778C150.499 73.2374 137.238 70.3612 127.477 61.7676C124.964 59.5597 122.437 56.3349 119.895 52.0933C114.181 42.57 109.81 35.3099 106.782 30.3129C104.541 26.6233 102.35 23.3375 100.208 20.4556C100.04 20.2335 99.8234 20.0534 99.5748 19.9294C99.3262 19.8054 99.0524 19.7409 98.7747 19.7409C72.5073 19.828 43.4175 19.9297 11.5052 20.0459C8.9346 20.0517 6.57244 19.1773 4.41871 17.4225C2.48209 15.8363 1.11864 12.4982 0.0417731 10.5808C0.013592 10.5284 -0.000777291 10.4697 3.2421e-05 10.4103C0.000842133 10.3508 0.0168039 10.2925 0.046399 10.241C0.0759942 10.1894 0.118238 10.1463 0.169112 10.1158C0.219985 10.0853 0.277796 10.0683 0.337043 10.0665C52.1366 8.63718 83.8636 7.76272 95.5181 7.44314C102.092 7.26012 105.557 9.17755 110.386 13.884C115.481 18.8403 118.126 21.4375 118.323 21.6758C118.356 21.7138 118.398 21.7427 118.445 21.7595C118.492 21.7763 118.542 21.7806 118.591 21.7717C118.64 21.7629 118.686 21.7414 118.725 21.7093C118.763 21.6772 118.792 21.6356 118.81 21.5886C118.937 21.2109 119.62 19.9355 120.859 17.7624C127.048 6.89696 136.396 0.97615 148.901 0H150.916ZM149.969 5.63029C142.475 5.63029 135.287 8.76061 129.987 14.3326C124.688 19.9046 121.71 27.4619 121.71 35.3419C121.71 43.2219 124.688 50.7791 129.987 56.3511C135.287 61.9231 142.475 65.0534 149.969 65.0534C157.464 65.0534 164.652 61.9231 169.951 56.3511C172.576 53.5921 174.657 50.3168 176.077 46.712C177.497 43.1072 178.228 39.2436 178.228 35.3419C178.228 27.4619 175.251 19.9046 169.951 14.3326C164.652 8.76061 157.464 5.63029 149.969 5.63029Z" fill="#B1B2B3"/>
<path d="M149.962 5.63025C157.457 5.63025 164.645 8.76057 169.944 14.3326C175.244 19.9046 178.221 27.4618 178.221 35.3418C178.221 39.2436 177.49 43.1072 176.07 46.7119C174.65 50.3167 172.568 53.5921 169.944 56.3511C164.645 61.9231 157.457 65.0534 149.962 65.0534C142.467 65.0534 135.28 61.9231 129.98 56.3511C124.68 50.7791 121.703 43.2218 121.703 35.3418C121.703 27.4618 124.68 19.9046 129.98 14.3326C135.28 8.76057 142.467 5.63025 149.962 5.63025ZM153.167 26.4257L153.149 22.8785C153.149 22.7629 153.104 22.6521 153.022 22.5703C152.941 22.4886 152.83 22.4427 152.715 22.4427L146.323 22.4776C146.142 22.4803 145.969 22.5497 145.835 22.6725C145.702 22.7953 145.618 22.963 145.6 23.1437C145.582 23.3244 145.63 23.5056 145.737 23.6527C145.843 23.7998 145.999 23.9027 146.176 23.9418C147.739 24.2613 148.529 25.284 148.547 27.0097C148.599 33.9299 148.631 37.4946 148.642 37.7037C148.822 40.9634 147.525 43.2062 144.752 44.4322C141.469 45.879 138.646 44.2056 138.351 40.6671C138.085 37.5411 138.024 31.6609 138.169 23.0266C138.17 22.9508 138.156 22.8754 138.128 22.8051C138.1 22.7348 138.059 22.6709 138.006 22.6172C137.953 22.5636 137.891 22.5212 137.822 22.4928C137.753 22.4643 137.679 22.4502 137.604 22.4514L131.169 22.4863C130.992 22.4886 130.823 22.5559 130.692 22.6755C130.562 22.7951 130.48 22.9586 130.462 23.135C130.443 23.3114 130.49 23.4883 130.594 23.6323C130.697 23.7762 130.849 23.877 131.021 23.9156C132.758 24.3049 133.612 25.4612 133.583 27.3844C133.502 33.497 133.534 38.1628 133.679 41.3817C133.824 44.5484 135.074 46.6256 137.431 47.6134C141.79 49.4437 145.429 46.9597 148.382 43.7698C148.413 43.7347 148.455 43.71 148.501 43.699C148.547 43.688 148.595 43.6912 148.639 43.7082C148.683 43.7251 148.721 43.7551 148.748 43.7941C148.775 43.8331 148.79 43.8793 148.79 43.9267L148.807 47.5524C148.809 47.6757 148.86 47.7932 148.948 47.8796C149.035 47.966 149.153 48.0144 149.276 48.0143C152.559 47.962 154.768 47.8778 155.902 47.7616C156.088 47.7442 156.241 47.6338 156.363 47.4304C156.423 47.3285 156.456 47.2133 156.46 47.0941C156.463 46.975 156.437 46.8553 156.382 46.7448C156.328 46.6343 156.248 46.5361 156.148 46.4584C156.048 46.3806 155.931 46.3254 155.807 46.2974C154.603 46.0185 153.78 45.4287 153.34 44.5281C153.26 44.3734 153.219 44.2 153.219 44.0226L153.149 30.3565C153.15 30.0788 153.238 29.8074 153.401 29.5808C154.466 28.1166 155.691 26.9864 157.075 26.1904C157.333 26.0406 157.615 25.9373 157.908 25.8854C161.4 25.2462 163.275 26.8615 163.536 30.7312C163.854 35.519 163.904 39.7345 163.684 43.3776C163.579 45.1091 162.812 46.2189 161.382 46.707C161.182 46.7755 161.011 46.9103 160.901 47.0875C160.792 47.2647 160.75 47.4727 160.783 47.6744C160.835 48.0056 161.006 48.1799 161.295 48.1974C162.146 48.2497 165.247 48.2613 170.596 48.2322C170.778 48.2322 170.953 48.1597 171.081 48.0306C171.21 47.9014 171.282 47.7263 171.282 47.5437V47.4827C171.283 47.2832 171.212 47.0901 171.083 46.9383C170.954 46.7864 170.775 46.6859 170.579 46.6547C168.833 46.3671 168.217 45.0162 168.225 43.2556C168.26 35.3244 168.237 30.6644 168.156 29.2757C167.713 21.7542 159.958 20.6211 155.268 25.0922C154.406 25.9173 153.85 26.4315 153.601 26.6349C153.561 26.6657 153.514 26.6848 153.464 26.6901C153.415 26.6954 153.364 26.6867 153.319 26.665C153.274 26.6433 153.236 26.6094 153.209 26.5671C153.182 26.5249 153.168 26.4759 153.167 26.4257Z" fill="#0074B3"/>
<path d="M105.183 31.2281C66.9369 31.3676 39.4739 31.4286 22.7941 31.4111C16.5761 31.4024 14.6655 26.3474 11.626 22.1464C11.599 22.109 11.5827 22.0648 11.579 22.0188C11.5752 21.9727 11.5841 21.9265 11.6047 21.8852C11.6253 21.8439 11.6568 21.809 11.6958 21.7844C11.7347 21.7597 11.7797 21.7463 11.8257 21.7455L98.6176 21.2923C98.7803 21.2924 98.9407 21.333 99.0846 21.4105C99.2285 21.488 99.3515 21.6001 99.4426 21.7368L105.383 30.8621C105.407 30.8978 105.42 30.9395 105.422 30.9825C105.424 31.0254 105.414 31.0681 105.393 31.1059C105.373 31.1436 105.342 31.175 105.305 31.1965C105.268 31.2181 105.226 31.229 105.183 31.2281Z" fill="#0074B3"/>
<path d="M195.458 31.2194C195.415 31.2203 195.373 31.2093 195.336 31.1878C195.299 31.1662 195.268 31.1349 195.248 31.0971C195.227 31.0594 195.217 31.0167 195.219 30.9737C195.221 30.9308 195.234 30.8891 195.258 30.8533L201.19 21.7368C201.281 21.6001 201.404 21.488 201.548 21.4105C201.692 21.333 201.852 21.2924 202.015 21.2923L288.755 21.7455C288.801 21.7463 288.846 21.7597 288.884 21.7844C288.923 21.809 288.955 21.8439 288.976 21.8852C288.996 21.9265 289.005 21.9727 289.001 22.0188C288.998 22.0648 288.981 22.109 288.954 22.1464C285.915 26.3386 284.004 31.3937 277.795 31.4024C261.127 31.4199 233.681 31.3588 195.458 31.2194Z" fill="#0074B3"/>
<path d="M112.192 42.602C88.0375 42.7472 63.5938 42.9419 38.8606 43.1859C33.7542 43.2295 30.3065 37.6341 27.293 33.651C27.2608 33.6085 27.2409 33.5579 27.2357 33.5047C27.2306 33.4516 27.2402 33.398 27.2637 33.35C27.2871 33.3021 27.3234 33.2616 27.3685 33.2332C27.4135 33.2048 27.4656 33.1895 27.5188 33.1891L106.625 32.7708C106.722 32.7705 106.818 32.7962 106.902 32.8452C106.985 32.8943 107.055 32.9648 107.103 33.0497L112.418 42.2011C112.441 42.2424 112.453 42.2891 112.453 42.3365C112.453 42.3838 112.441 42.4302 112.418 42.4708C112.395 42.5115 112.362 42.545 112.322 42.568C112.283 42.591 112.238 42.6028 112.192 42.602Z" fill="#0074B3"/>
<path d="M188.456 42.5845C188.41 42.5853 188.365 42.5736 188.326 42.5506C188.286 42.5276 188.253 42.494 188.23 42.4534C188.207 42.4127 188.195 42.3664 188.195 42.3191C188.195 42.2717 188.208 42.225 188.231 42.1836L193.537 33.0497C193.585 32.9648 193.654 32.8943 193.738 32.8452C193.822 32.7962 193.917 32.7705 194.014 32.7708L273.025 33.2153C273.078 33.2157 273.13 33.2309 273.175 33.2593C273.22 33.2878 273.257 33.3282 273.28 33.3762C273.304 33.4241 273.313 33.4777 273.308 33.5309C273.303 33.584 273.283 33.6347 273.251 33.6772C270.246 37.6515 266.798 43.2382 261.701 43.1946C236.996 42.9448 212.582 42.7414 188.456 42.5845Z" fill="#0074B3"/>
<path d="M45.8323 45.0859L113.588 44.7285C113.657 44.7283 113.724 44.7457 113.785 44.7792C113.846 44.8127 113.898 44.8612 113.935 44.9203L119.936 54.1414C119.959 54.1779 119.972 54.2199 119.974 54.2631C119.976 54.3063 119.966 54.3492 119.945 54.3873C119.925 54.4254 119.895 54.4574 119.858 54.4801C119.822 54.5027 119.78 54.5152 119.737 54.5162C96.2886 54.8241 75.9092 54.9955 58.5983 55.0304C56.1725 55.0362 53.434 53.9293 50.3829 51.7097C50.2909 51.6463 50.2087 51.5668 50.1397 51.4744L45.6325 45.4955C45.603 45.4581 45.5847 45.4131 45.5796 45.3657C45.5745 45.3182 45.5829 45.2703 45.6038 45.2275C45.6246 45.1847 45.6572 45.1486 45.6976 45.1236C45.7381 45.0985 45.7847 45.0854 45.8323 45.0859Z" fill="#0074B3"/>
<path d="M254.789 45.051C254.837 45.0506 254.884 45.0636 254.924 45.0887C254.965 45.1138 254.997 45.1498 255.018 45.1926C255.039 45.2355 255.047 45.2834 255.042 45.3308C255.037 45.3782 255.019 45.4232 254.989 45.4606L250.482 51.4483C250.413 51.5406 250.331 51.6201 250.239 51.6836C247.182 53.909 244.441 55.0188 242.015 55.013C224.686 54.9897 204.287 54.8299 180.816 54.5336C180.773 54.5326 180.731 54.5202 180.694 54.4975C180.657 54.4749 180.627 54.4429 180.607 54.4047C180.587 54.3666 180.577 54.3238 180.578 54.2805C180.58 54.2373 180.593 54.1953 180.616 54.1588L186.617 44.929C186.655 44.87 186.706 44.8215 186.767 44.788C186.828 44.7544 186.896 44.737 186.964 44.7372L254.789 45.051Z" fill="#0074B3"/>
<path d="M186.569 90.2939L186.604 96.0462C186.604 96.1788 186.574 96.3099 186.515 96.4293C186.456 96.5487 186.371 96.6532 186.265 96.7347C181.68 100.221 173.786 100.082 171.918 93.4925C170.051 86.9471 173.933 80.7503 181.245 82.014C183.88 82.4731 185.553 83.9286 186.265 86.3806C186.279 86.431 186.283 86.4839 186.275 86.5358C186.268 86.5876 186.249 86.6374 186.222 86.6817C186.194 86.7261 186.157 86.7641 186.114 86.7933C186.07 86.8225 186.021 86.8422 185.97 86.8512L183.66 87.2783C183.534 87.3012 183.403 87.281 183.29 87.221C183.177 87.1609 183.087 87.0645 183.034 86.9471C182.473 85.7095 181.63 85.0006 180.507 84.8205C175.132 83.9576 173.725 89.3352 175.253 93.3356C176.573 96.7957 180.377 96.8916 183.008 94.9132C183.227 94.7509 183.389 94.5231 183.47 94.2627C183.552 94.0023 183.549 93.7226 183.462 93.4639C183.375 93.2052 183.209 92.9808 182.987 92.8231C182.765 92.6653 182.499 92.5824 182.227 92.5861L179.934 92.6035C179.816 92.6035 179.702 92.556 179.618 92.4713C179.533 92.3865 179.485 92.2713 179.482 92.1503L179.474 90.3723C179.474 90.2383 179.527 90.1097 179.621 90.0149C179.716 89.9201 179.844 89.8668 179.977 89.8668L186.109 89.832C186.231 89.832 186.348 89.8806 186.434 89.9673C186.52 90.0539 186.569 90.1714 186.569 90.2939Z" fill="#0074B3"/>
<path d="M64.9668 96.2118C67.2073 96.2118 68.2147 94.9219 68.1974 92.621C68.1858 90.4479 68.1771 87.0488 68.1713 82.4237C68.1713 82.3567 68.1978 82.2924 68.2451 82.245C68.2923 82.1976 68.3564 82.1709 68.4232 82.1709L71.0198 82.1535C71.0958 82.1535 71.1687 82.1838 71.2224 82.2377C71.2762 82.2917 71.3064 82.3648 71.3064 82.4411C71.3353 87.1592 71.3324 90.6716 71.2977 92.9783C71.2456 97.31 69.0832 98.9572 64.9668 98.9659C60.8504 98.9747 58.6879 97.3274 58.6098 93.0045C58.5693 90.6977 58.5548 87.1853 58.5664 82.4673C58.5664 82.391 58.5966 82.3178 58.6503 82.2639C58.704 82.21 58.7769 82.1796 58.8529 82.1796H61.4496C61.5164 82.1796 61.5804 82.2063 61.6277 82.2537C61.6749 82.3011 61.7014 82.3654 61.7014 82.4324C61.713 87.0575 61.7188 90.4566 61.7188 92.6297C61.7101 94.9306 62.7175 96.2205 64.9668 96.2118Z" fill="#0074B3"/>
<path d="M80.057 91.1917C79.0264 89.4892 78.404 88.4927 78.1898 88.2022C78.1665 88.1744 78.1354 88.1542 78.1005 88.1442C78.0656 88.1342 78.0286 88.1348 77.9941 88.1461C77.9596 88.1573 77.9293 88.1786 77.9069 88.2072C77.8845 88.2358 77.8712 88.2705 77.8685 88.3068L77.9119 98.3646C77.9098 98.4309 77.8835 98.4939 77.8384 98.5408C77.7933 98.5878 77.7326 98.6151 77.6688 98.6174L75.1677 98.6261C75.1138 98.6261 75.0621 98.6053 75.0233 98.5679C74.9844 98.5306 74.9615 98.4796 74.9592 98.4256L74.8984 82.6678C74.8984 82.5429 74.9478 82.4232 75.0358 82.335C75.1237 82.2467 75.243 82.1971 75.3674 82.1971L77.4951 82.1884C77.6628 82.1891 77.8276 82.2336 77.9737 82.3176C78.1198 82.4016 78.2421 82.5222 78.3288 82.6678C78.4504 82.8537 79.8717 85.1866 82.5928 89.6664C83.6292 91.3689 84.2515 92.3654 84.46 92.6559C84.4838 92.6841 84.5157 92.7044 84.5513 92.7141C84.5869 92.7238 84.6246 92.7224 84.6594 92.7101C84.6943 92.6978 84.7245 92.6752 84.7463 92.6453C84.768 92.6154 84.7802 92.5796 84.7813 92.5426L84.7379 82.4935C84.7379 82.4591 84.7444 82.4251 84.757 82.3934C84.7697 82.3617 84.7882 82.3329 84.8116 82.3086C84.835 82.2843 84.8628 82.265 84.8933 82.2519C84.9239 82.2388 84.9566 82.232 84.9897 82.232H87.4821C87.5345 82.2318 87.5851 82.2514 87.6237 82.287C87.6623 82.3225 87.6862 82.3713 87.6906 82.4237L87.76 98.1903C87.76 98.2528 87.7476 98.3148 87.7235 98.3724C87.6994 98.4301 87.6641 98.4824 87.6196 98.5262C87.5752 98.57 87.5224 98.6045 87.4645 98.6277C87.4066 98.6508 87.3447 98.6621 87.2824 98.6609L85.1547 98.6697C84.987 98.669 84.8221 98.6245 84.6761 98.5405C84.53 98.4565 84.4077 98.3359 84.321 98.1903C84.1994 98.0044 82.7781 95.6715 80.057 91.1917Z" fill="#0074B3"/>
<path d="M94.1776 82.1884H91.468C91.3001 82.1884 91.1641 82.325 91.1641 82.4935V98.3559C91.1641 98.5244 91.3001 98.6609 91.468 98.6609H94.1776C94.3454 98.6609 94.4815 98.5244 94.4815 98.3559V82.4935C94.4815 82.325 94.3454 82.1884 94.1776 82.1884Z" fill="#0074B3"/>
<path d="M102.864 82.197C106.042 82.2261 108.049 82.2115 108.882 82.1534C108.933 82.1498 108.985 82.1569 109.033 82.1741C109.082 82.1913 109.126 82.2183 109.163 82.2535C109.201 82.2887 109.231 82.3312 109.251 82.3785C109.271 82.4257 109.282 82.4767 109.282 82.5282L109.29 84.5067C109.29 84.6037 109.253 84.6969 109.186 84.7655C109.119 84.8342 109.029 84.8727 108.934 84.8727L104.913 84.8989C104.782 84.8989 104.656 84.9521 104.563 85.0469C104.471 85.1417 104.418 85.2703 104.418 85.4044L104.488 98.0595C104.488 98.2025 104.435 98.3403 104.338 98.4454C104.242 98.5505 104.109 98.615 103.967 98.626C103.747 98.6434 103.379 98.6521 102.864 98.6521C102.349 98.6521 101.981 98.6434 101.761 98.626C101.619 98.615 101.486 98.5505 101.39 98.4454C101.293 98.3403 101.24 98.2025 101.24 98.0595L101.309 85.4044C101.309 85.2703 101.257 85.1417 101.164 85.0469C101.072 84.9521 100.946 84.8989 100.814 84.8989L96.7936 84.8727C96.6991 84.8727 96.6086 84.8342 96.5418 84.7655C96.475 84.6969 96.4375 84.6037 96.4375 84.5067L96.4462 82.5282C96.4461 82.4767 96.4565 82.4257 96.4769 82.3785C96.4973 82.3312 96.5271 82.2887 96.5646 82.2535C96.6021 82.2183 96.6464 82.1913 96.6947 82.1741C96.7431 82.1569 96.7945 82.1498 96.8457 82.1534C97.6794 82.2115 99.6855 82.2261 102.864 82.197Z" fill="#0074B3"/>
<path d="M123.81 96.2467L123.828 98.3297C123.828 98.4106 123.795 98.4882 123.738 98.5454C123.681 98.6026 123.604 98.6347 123.524 98.6347L111.843 98.6958C111.803 98.6958 111.764 98.6879 111.727 98.6725C111.69 98.6572 111.656 98.6347 111.628 98.6064C111.6 98.5781 111.578 98.5445 111.562 98.5074C111.547 98.4704 111.539 98.4308 111.539 98.3907L111.461 82.5196C111.461 82.4387 111.493 82.3611 111.55 82.3039C111.607 82.2466 111.684 82.2145 111.765 82.2145L123.107 82.1535C123.187 82.1535 123.265 82.1856 123.322 82.2428C123.379 82.3001 123.411 82.3776 123.411 82.4585L123.428 84.559C123.428 84.5991 123.42 84.6387 123.405 84.6757C123.39 84.7128 123.367 84.7464 123.339 84.7747C123.311 84.803 123.277 84.8255 123.24 84.8408C123.204 84.8562 123.164 84.8641 123.124 84.8641L114.952 84.9164C114.871 84.9164 114.794 84.9485 114.737 85.0057C114.68 85.0629 114.648 85.1405 114.648 85.2214L114.674 88.42C114.674 88.5009 114.706 88.5785 114.763 88.6357C114.82 88.6929 114.898 88.7251 114.978 88.7251L122.516 88.6815C122.597 88.6815 122.674 88.7136 122.731 88.7709C122.788 88.8281 122.82 88.9056 122.82 88.9866L122.838 91.0957C122.838 91.1766 122.805 91.2542 122.748 91.3114C122.691 91.3686 122.614 91.4008 122.534 91.4008L114.961 91.4444C114.88 91.4444 114.803 91.4765 114.746 91.5337C114.689 91.5909 114.657 91.6685 114.657 91.7494L114.674 95.6802C114.674 95.7611 114.706 95.8386 114.763 95.8959C114.82 95.9531 114.898 95.9852 114.978 95.9852L123.506 95.9416C123.587 95.9416 123.664 95.9738 123.721 96.031C123.778 96.0882 123.81 96.1658 123.81 96.2467Z" fill="#0074B3"/>
<path d="M126.574 82.5719C126.574 82.4655 126.616 82.3636 126.691 82.2884C126.766 82.2132 126.867 82.171 126.973 82.171L133.408 82.1797C135.178 82.1842 136.874 82.9202 138.123 84.2259C139.372 85.5316 140.072 87.3003 140.069 89.1435V91.7756C140.068 92.6897 139.894 93.5945 139.557 94.4385C139.219 95.2824 138.726 96.0489 138.104 96.694C137.482 97.3391 136.744 97.8503 135.933 98.1983C135.121 98.5463 134.251 98.7242 133.374 98.7219L126.939 98.7132C126.833 98.7132 126.731 98.671 126.656 98.5958C126.581 98.5206 126.539 98.4186 126.539 98.3123L126.574 82.5719ZM129.839 85.387L129.804 95.5494C129.804 95.6743 129.854 95.794 129.942 95.8822C130.03 95.9705 130.149 96.0201 130.273 96.0201L132.966 96.0288C133.979 96.031 134.952 95.6172 135.67 94.8784C136.388 94.1396 136.793 93.1364 136.795 92.0893L136.813 88.882C136.814 88.3635 136.716 87.8498 136.525 87.3703C136.334 86.8908 136.054 86.4549 135.7 86.0875C135.346 85.72 134.925 85.4282 134.462 85.2288C133.999 85.0294 133.502 84.9262 133 84.9251L130.308 84.9164C130.184 84.9164 130.064 84.966 129.976 85.0542C129.889 85.1425 129.839 85.2622 129.839 85.387Z" fill="#0074B3"/>
<path d="M154.437 91.2439C153.401 89.524 152.776 88.5159 152.561 88.2196C152.538 88.1878 152.506 88.1643 152.469 88.1524C152.432 88.1406 152.392 88.141 152.355 88.1537C152.318 88.1664 152.286 88.1907 152.264 88.2229C152.241 88.2552 152.23 88.2937 152.231 88.3329L152.283 98.4779C152.283 98.5122 152.277 98.5462 152.264 98.5779C152.252 98.6097 152.233 98.6385 152.21 98.6628C152.186 98.687 152.159 98.7063 152.128 98.7194C152.097 98.7326 152.065 98.7393 152.032 98.7393L149.513 98.7481C149.459 98.7481 149.408 98.7273 149.369 98.6899C149.33 98.6525 149.307 98.6015 149.305 98.5476L149.227 82.6416C149.227 82.5786 149.239 82.5163 149.263 82.4581C149.287 82.4 149.322 82.3471 149.366 82.3026C149.411 82.2581 149.463 82.2228 149.521 82.1987C149.579 82.1746 149.641 82.1622 149.704 82.1622L151.849 82.1535C152.018 82.1535 152.185 82.1977 152.332 82.2816C152.48 82.3656 152.604 82.4866 152.692 82.6329C152.819 82.8246 154.255 85.1807 156.999 89.7012C158.047 91.4153 158.675 92.4205 158.884 92.7168C158.907 92.7486 158.939 92.7721 158.976 92.784C159.013 92.7958 159.053 92.7954 159.09 92.7827C159.127 92.77 159.159 92.7458 159.181 92.7135C159.204 92.6813 159.215 92.6427 159.214 92.6035L159.162 82.4585C159.162 82.4242 159.168 82.3902 159.181 82.3585C159.193 82.3268 159.212 82.2979 159.235 82.2737C159.259 82.2494 159.286 82.2301 159.317 82.217C159.348 82.2038 159.38 82.1971 159.413 82.1971L161.932 82.1884C161.986 82.1883 162.037 82.2092 162.076 82.2465C162.115 82.2839 162.138 82.3349 162.14 82.3888L162.218 98.2948C162.218 98.3578 162.206 98.4201 162.182 98.4783C162.158 98.5364 162.123 98.5893 162.079 98.6338C162.034 98.6783 161.982 98.7136 161.924 98.7377C161.866 98.7618 161.803 98.7742 161.741 98.7742L159.596 98.7829C159.427 98.7829 159.26 98.7387 159.113 98.6548C158.965 98.5708 158.841 98.4498 158.753 98.3036C158.626 98.1118 157.187 95.7586 154.437 91.2439Z" fill="#0074B3"/>
<path d="M168.547 82.1884H165.82C165.691 82.1884 165.586 82.2938 165.586 82.4237V98.4431C165.586 98.573 165.691 98.6784 165.82 98.6784H168.547C168.677 98.6784 168.782 98.573 168.782 98.4431V82.4237C168.782 82.2938 168.677 82.1884 168.547 82.1884Z" fill="#0074B3"/>
<path d="M192.857 91.7495L192.849 95.6279C192.849 95.7181 192.885 95.8045 192.95 95.8683C193.016 95.932 193.104 95.9678 193.196 95.9678L201.594 95.9504C201.652 95.9504 201.709 95.9617 201.762 95.9837C201.815 96.0058 201.864 96.038 201.904 96.0786C201.944 96.1192 201.976 96.1673 201.998 96.2201C202.019 96.2729 202.029 96.3294 202.028 96.3862L202.002 98.2077C202 98.3264 201.951 98.4395 201.867 98.5226C201.782 98.6057 201.669 98.6523 201.55 98.6522L190.165 98.6697C190.038 98.6697 189.917 98.6192 189.827 98.5293C189.738 98.4394 189.688 98.3174 189.688 98.1903V82.6765C189.688 82.547 189.739 82.4229 189.83 82.3314C189.921 82.2398 190.045 82.1884 190.174 82.1884H201.307C201.379 82.1884 201.447 82.2169 201.498 82.2676C201.548 82.3182 201.576 82.3869 201.576 82.4586L201.594 84.6026C201.594 84.6812 201.563 84.7566 201.507 84.8122C201.452 84.8678 201.377 84.899 201.299 84.899L193.213 84.8903C193.114 84.8903 193.019 84.9297 192.949 85C192.879 85.0703 192.84 85.1656 192.84 85.265V88.3155C192.842 88.4226 192.886 88.5246 192.963 88.5995C193.039 88.6745 193.141 88.7164 193.248 88.7164L200.612 88.6903C200.669 88.6903 200.725 88.7016 200.777 88.7236C200.83 88.7456 200.877 88.7778 200.916 88.8184C200.956 88.859 200.987 88.9071 201.008 88.9599C201.029 89.0128 201.039 89.0692 201.038 89.1261L200.986 90.9738C200.984 91.0971 200.933 91.2145 200.846 91.3009C200.758 91.3873 200.64 91.4357 200.517 91.4357L193.196 91.4095C193.106 91.4095 193.02 91.4454 192.957 91.5091C192.893 91.5728 192.857 91.6593 192.857 91.7495Z" fill="#0074B3"/>
<path d="M214.345 91.7494C216.134 93.4926 217.729 95.7528 219.13 98.5302C219.138 98.545 219.142 98.5614 219.141 98.5779C219.14 98.5945 219.135 98.6106 219.126 98.6246C219.118 98.6386 219.105 98.6502 219.091 98.6581C219.076 98.666 219.06 98.67 219.044 98.6696L215.718 98.6871C215.636 98.6901 215.555 98.6706 215.483 98.6307C215.412 98.5908 215.351 98.532 215.309 98.4605C214.418 97.0195 213.306 95.3287 211.975 93.388C211.158 92.1968 210.035 91.6361 208.605 91.7059C208.46 91.7126 208.323 91.7762 208.222 91.8833C208.122 91.9905 208.066 92.133 208.067 92.2811L208.101 98.4082C208.101 98.4775 208.074 98.544 208.025 98.5931C207.976 98.6421 207.91 98.6696 207.841 98.6696L205.053 98.6871C204.998 98.6871 204.945 98.6641 204.906 98.6233C204.867 98.5824 204.845 98.527 204.845 98.4692L204.758 82.7985C204.758 82.6466 204.817 82.5007 204.922 82.3916C205.027 82.2826 205.171 82.2191 205.322 82.2146C209.931 82.1274 212.959 82.1942 214.406 82.415C219.235 83.1558 219.304 90.1893 214.502 91.1916C214.444 91.2052 214.392 91.234 214.349 91.2749C214.307 91.3158 214.276 91.3674 214.26 91.4243C214.244 91.4812 214.243 91.5414 214.258 91.5986C214.273 91.6558 214.304 91.7079 214.345 91.7494ZM208.084 85.2302V88.8559C208.084 88.9506 208.121 89.0415 208.188 89.1085C208.255 89.1755 208.346 89.2132 208.44 89.2132L212.313 89.2219C212.959 89.2223 213.578 89.0106 214.036 88.6332C214.493 88.2559 214.751 87.7436 214.754 87.2086V86.9123C214.755 86.6461 214.692 86.3824 214.57 86.1361C214.448 85.8899 214.269 85.666 214.042 85.4773C213.815 85.2887 213.546 85.1389 213.249 85.0367C212.953 84.9344 212.634 84.8817 212.313 84.8815L208.44 84.8728C208.393 84.8728 208.347 84.8821 208.304 84.9C208.261 84.918 208.221 84.9443 208.188 84.9775C208.155 85.0107 208.129 85.0501 208.111 85.0934C208.093 85.1368 208.084 85.1832 208.084 85.2302Z" fill="#0074B3"/>
<path d="M224.034 82.1797H221.359C221.23 82.1797 221.125 82.285 221.125 82.415V98.4343C221.125 98.5643 221.23 98.6696 221.359 98.6696H224.034C224.164 98.6696 224.269 98.5643 224.269 98.4343V82.415C224.269 82.285 224.164 82.1797 224.034 82.1797Z" fill="#0074B3"/>
<path d="M233.874 82.1971C234.285 82.1971 234.699 82.2146 235.116 82.2494C235.271 82.2606 235.42 82.3158 235.545 82.4085C235.669 82.5011 235.765 82.6274 235.819 82.7724L241.846 98.26C241.863 98.3038 241.869 98.3511 241.864 98.3978C241.858 98.4445 241.842 98.4891 241.815 98.5278C241.789 98.5665 241.753 98.5981 241.712 98.6198C241.67 98.6415 241.624 98.6526 241.577 98.6522L239.128 98.661C238.98 98.6638 238.835 98.6211 238.712 98.5384C238.59 98.4558 238.495 98.3373 238.442 98.199L237.4 95.5146C237.339 95.357 237.232 95.2214 237.093 95.125C236.953 95.0287 236.788 94.9762 236.618 94.9743C236.271 94.9743 235.368 94.9772 233.909 94.983C232.455 94.9888 231.552 94.9917 231.199 94.9917C231.031 94.9954 230.867 95.0487 230.73 95.1449C230.592 95.2411 230.486 95.3758 230.426 95.5321L229.393 98.2252C229.341 98.3637 229.249 98.4831 229.128 98.5672C229.007 98.6513 228.863 98.6962 228.715 98.6958H226.266C226.219 98.6977 226.172 98.6876 226.129 98.6665C226.086 98.6454 226.049 98.614 226.022 98.5751C225.994 98.5362 225.977 98.491 225.971 98.4436C225.965 98.3962 225.971 98.3481 225.988 98.3036L231.929 82.7811C231.982 82.6374 232.076 82.512 232.199 82.4194C232.322 82.3268 232.469 82.2709 232.623 82.2582C233.04 82.2175 233.457 82.1971 233.874 82.1971ZM233.848 92.2288C234.716 92.223 235.281 92.2317 235.541 92.255C235.612 92.2612 235.683 92.2493 235.747 92.2204C235.812 92.1916 235.868 92.1467 235.91 92.09C235.953 92.0334 235.981 91.9668 235.99 91.8966C236 91.8263 235.992 91.7547 235.967 91.6885L234.022 86.555C234.005 86.513 233.985 86.4763 233.966 86.4487C233.946 86.4211 233.926 86.4036 233.909 86.3981C233.88 86.3865 233.851 86.3806 233.822 86.3806C233.787 86.3806 233.755 86.3865 233.726 86.3981C233.709 86.4027 233.689 86.4198 233.669 86.4475C233.649 86.4751 233.63 86.5123 233.613 86.555L231.72 91.7059C231.694 91.7729 231.686 91.8454 231.696 91.9164C231.707 91.9875 231.735 92.0547 231.779 92.1116C231.822 92.1685 231.88 92.2132 231.946 92.2414C232.011 92.2695 232.083 92.2802 232.154 92.2724C232.415 92.2492 232.979 92.2346 233.848 92.2288Z" fill="#0074B3"/>
</svg>
