<svg width="300" height="56" viewBox="0 0 300 56" fill="none" xmlns="http://www.w3.org/2000/svg">
<g clip-path="url(#clip0_602_18796)">
<path d="M281.156 48.61C279.267 48.8729 277.351 48.8729 275.462 48.61C275.236 48.3091 275.14 47.9316 275.195 47.5605V30.7393C275.189 29.0862 275.458 27.4434 275.991 25.8769C276.78 23.6703 278.326 21.8093 280.36 20.6197C282.22 19.633 284.236 18.9672 286.321 18.6506C288.167 18.4314 290.026 18.3429 291.884 18.3858C293.363 18.4107 294.832 18.6309 296.253 19.0406C296.848 19.2011 297.425 19.4205 297.976 19.6953C300.229 20.8796 300.627 22.9787 299.035 24.8177C298.903 24.9477 298.768 24.9477 298.636 25.0825C298.369 24.9525 298.107 24.9525 297.84 24.8177C296.091 24.0009 294.205 23.5113 292.277 23.3734C290.37 23.2385 288.453 23.3714 286.583 23.7682C283.801 24.293 281.816 26.132 281.549 29.5454V47.0165C281.355 47.5303 281.223 48.0653 281.156 48.61Z" fill="#B1C832"/>
<path d="M263.803 48.4752C263.405 47.6857 263.536 47.1609 263.536 46.5062V20.6245C263.667 18.9154 264.463 17.9959 266.187 17.8659C266.983 17.8659 267.91 17.7359 268.701 18.1307C269.497 18.3955 269.497 18.5254 269.629 19.315V46.511C269.629 48.4801 269.629 48.4801 267.774 48.4801H263.798L263.803 48.4752Z" fill="#B1C832"/>
<path d="M255.342 48.4752H253.618C253.431 48.4699 253.251 48.4025 253.107 48.2838C252.962 48.1652 252.862 48.0021 252.822 47.8205C252.555 47.031 252.162 46.1114 251.895 45.3267C251.099 43.0928 250.308 40.859 249.643 38.6252L249.245 37.4408C248.715 35.8666 247.521 35.207 245.934 35.077H233.07C232.487 35.1009 231.909 35.1897 231.347 35.3418C230.868 35.4531 230.425 35.6789 230.055 35.9995C229.685 36.3201 229.4 36.7257 229.225 37.1809C229.094 37.5757 228.958 37.8356 228.827 38.2304C227.769 41.119 226.842 44.0076 225.779 46.8962C225.249 48.6052 225.381 48.4704 223.395 48.4704H221.541C221.263 48.4547 220.994 48.3753 220.753 48.2384C220.512 48.1015 220.306 47.9108 220.152 47.6816C219.998 47.4523 219.9 47.1906 219.865 46.9173C219.831 46.644 219.861 46.3664 219.953 46.1066C220.084 45.5818 220.351 45.0571 220.482 44.5323C224.458 34.4223 228.429 24.3122 232.536 14.2022L234.924 8.26135C235.076 7.85608 235.252 7.46055 235.453 7.07703C235.876 6.41504 236.467 5.87422 237.166 5.50823C237.864 5.14224 238.648 4.96378 239.438 4.99054C240.227 5.0173 240.996 5.24835 241.669 5.66079C242.341 6.07323 242.892 6.65272 243.269 7.34182C243.524 7.74459 243.703 8.1899 243.798 8.65613C248.546 20.7785 253.337 32.9732 258.254 45.1919C258.51 45.6785 258.646 46.2177 258.652 46.7662C258.676 47.009 258.65 47.2541 258.575 47.4866C258.501 47.7191 258.379 47.934 258.218 48.1183C258.056 48.3025 257.859 48.4523 257.637 48.5584C257.416 48.6644 257.175 48.7246 256.929 48.7352C256.429 48.5207 255.885 48.4298 255.342 48.4704V48.4752ZM238.914 31.2641H244.08C244.567 31.2188 245.018 30.9889 245.339 30.6222C245.66 30.2554 245.826 29.7801 245.803 29.2951C245.776 28.974 245.685 28.6615 245.536 28.3755C243.813 23.7779 242.094 19.1802 240.502 14.5825L240.104 13.793C240.002 13.641 239.865 13.5164 239.703 13.4301C239.541 13.3439 239.36 13.2987 239.177 13.2987C238.993 13.2987 238.812 13.3439 238.65 13.4301C238.489 13.5164 238.351 13.641 238.249 13.793C238.093 14.0887 237.96 14.3962 237.851 14.7125C236.128 19.1802 234.41 23.7779 232.686 28.2455C232.534 28.7132 232.444 29.1988 232.419 29.6898C232.483 30.029 232.641 30.3439 232.875 30.5991C233.109 30.8543 233.41 31.0395 233.745 31.1341H234.672C236.118 31.2641 237.444 31.2641 238.9 31.2641H238.914Z" fill="#B1C832"/>
<path d="M167.234 37.3109V29.1651C167.229 27.2551 167.78 25.3842 168.822 23.7779C170.147 21.4141 172.264 20.0998 174.783 19.3102C176.372 18.8351 178.027 18.6141 179.686 18.6555C181.259 18.6132 182.828 18.8429 184.322 19.3343C186.197 19.8228 187.895 20.8236 189.225 22.2229C190.419 23.5372 191.079 23.2724 192.137 22.2229C193.169 21.1612 194.402 20.3128 195.766 19.7269C197.13 19.141 198.598 18.8292 200.084 18.8095C202.27 18.6293 204.47 18.8512 206.574 19.4643C210.152 20.6486 212.535 22.8776 213.463 26.4257C213.734 27.4108 213.868 28.4281 213.861 29.4491V46.9202C213.884 47.0812 213.87 47.2454 213.818 47.3998C213.766 47.5542 213.679 47.6945 213.563 47.8095C213.447 47.9245 213.306 48.0111 213.15 48.0623C212.994 48.1135 212.829 48.128 212.666 48.1046H208.56C207.764 48.1046 207.632 47.9746 207.632 47.185V31.7937C207.652 30.5903 207.473 29.3919 207.103 28.2456C206.925 27.6287 206.621 27.0545 206.212 26.5578C205.802 26.0612 205.294 25.6526 204.72 25.357C201.938 23.7827 198.099 24.0427 195.71 26.2765C194.516 27.326 193.987 28.6403 193.725 30.2194C193.57 31.264 193.481 32.3172 193.458 33.3728V46.2462C193.458 48.0853 193.191 48.2153 191.472 48.2153H188.424C187.497 48.2153 187.365 48.0853 187.365 47.1658V34.2875C187.388 33.1033 187.344 31.9188 187.234 30.7394C186.836 27.8508 185.511 25.8769 182.598 24.9622C180.736 24.3237 178.698 24.4185 176.904 25.227C174.783 26.1465 173.725 27.9856 173.463 30.2194C173.353 31.3538 173.309 32.4934 173.332 33.6328V46.2462C173.332 48.3501 173.332 48.3501 171.21 48.3501H168.298C167.637 48.3501 167.37 48.0853 167.239 47.3006V37.3109H167.234Z" fill="#B1C832"/>
<path d="M136.766 25.3569C134.645 23.6479 134.912 21.154 137.164 19.9697C138.514 19.2578 140.006 18.8532 141.533 18.7854C143.607 18.6539 145.688 18.6539 147.761 18.7854C150.082 18.8533 152.351 19.4848 154.368 20.6245C157.679 22.3335 159.271 25.2221 159.669 28.7703C159.779 29.5096 159.823 30.2571 159.8 31.0041V46.2414C159.8 48.0805 159.8 48.0805 157.815 48.2104L153.048 48.6052H152.388C149.475 48.6052 146.562 48.7352 143.65 48.6052C141.366 48.4713 139.125 47.9384 137.028 47.0309C136.106 46.6615 135.288 46.0749 134.645 45.3219C133.938 44.6161 133.396 43.7647 133.058 42.828C132.24 40.4811 132.287 37.9229 133.189 35.6066C133.718 34.0323 134.776 32.978 136.237 32.0584C137.744 31.2034 139.414 30.6674 141.14 30.4842C142.585 30.2653 144.048 30.1767 145.509 30.2194C147.808 30.1789 150.108 30.2673 152.397 30.4842C153.723 30.6142 153.985 30.3542 153.723 29.0399C153.194 26.0165 151.47 24.1774 148.291 23.7826C146.012 23.3885 143.681 23.3885 141.402 23.7826C140.29 23.9524 139.215 24.3073 138.223 24.8322C137.718 24.9485 137.229 25.1247 136.766 25.3569ZM153.592 43.7476C153.592 43.6176 153.723 43.4828 153.723 43.3528V35.8666C153.737 35.6405 153.662 35.4177 153.514 35.2458C153.365 35.0739 153.154 34.9667 152.927 34.947C151.999 34.817 150.941 34.6822 150.014 34.5522H144.975C143.941 34.5988 142.916 34.7751 141.927 35.077C140.777 35.4392 139.815 36.2319 139.246 37.2865C138.676 38.3412 138.544 39.5745 138.878 40.7242C138.99 41.3345 139.255 41.907 139.649 42.3891C140.042 42.8712 140.552 43.2473 141.13 43.4828C141.856 43.7789 142.611 43.9984 143.383 44.1375C146.235 44.5975 149.143 44.5975 151.994 44.1375C152.551 44.1641 153.104 44.0268 153.582 43.7428L153.592 43.7476Z" fill="#B1C832"/>
<path d="M126.561 47.6905C126.351 47.7753 126.127 47.8194 125.901 47.8205H121.265C120.605 47.8205 120.469 47.6905 120.469 47.0309V9.85487C120.469 9.20012 120.6 8.54056 120.6 7.88582C120.731 6.8363 121.527 6.31154 122.454 6.04675C123.546 5.76131 124.699 5.8066 125.765 6.17674C126.425 6.44153 126.561 6.57151 126.692 7.22626V45.8514C126.583 46.4581 126.539 47.0746 126.561 47.6905Z" fill="#B1C832"/>
<path d="M106.43 30.6094C106.828 28.2455 105.901 25.8817 103.779 24.8322C103.084 24.4338 102.32 24.1661 101.527 24.0426C99.3078 23.5614 97.0204 23.4718 94.7697 23.7779C93.1955 23.9985 91.6715 24.4871 90.2649 25.2222C89.9979 25.3521 89.8668 25.3521 89.6047 25.4869C87.8814 24.1726 87.6193 21.8088 89.3377 20.4945C89.8825 20.0601 90.5148 19.7466 91.1921 19.575C92.3836 19.1559 93.6367 18.9346 94.9008 18.9202H100.066C102.026 18.9203 103.965 19.3235 105.76 20.1045C107.745 20.8941 109.6 22.0736 110.794 23.9127C111.995 25.6039 112.643 27.621 112.648 29.6898C112.779 31.6589 112.648 33.7627 112.648 35.7318V47.1609C112.648 47.8157 112.381 48.0805 111.59 48.2105C110.76 48.3634 109.919 48.452 109.076 48.4752C104.806 48.8917 100.51 48.9802 96.2261 48.74C94.0269 48.6065 91.8713 48.0729 89.8668 47.1657C86.8183 45.7215 85.362 43.3576 85.362 40.2043C85.3191 39.1032 85.4087 38.001 85.629 36.9209C85.8553 35.9272 86.2911 34.9922 86.9077 34.1774C87.5243 33.3626 88.3078 32.6864 89.2066 32.1933C90.6595 31.4577 92.2266 30.9695 93.8426 30.749C95.6443 30.5297 97.4598 30.4412 99.2746 30.4842C101.129 30.4842 102.983 30.3542 104.838 30.749C105.363 30.6514 105.896 30.6047 106.43 30.6094ZM106.43 43.8776C106.735 43.3615 106.874 42.7651 106.828 42.1685V35.8618C106.697 35.207 106.561 35.0722 106.032 34.9422C104.974 34.8122 104.046 34.6774 102.983 34.5475H98.4785C97.5896 34.5705 96.7037 34.659 95.828 34.8122C93.4445 35.337 91.7212 36.7813 91.8523 39.9347C91.8955 40.5993 92.0982 41.244 92.4435 41.8151C92.7889 42.3862 93.2669 42.8672 93.8377 43.218C94.3444 43.4971 94.8798 43.7214 95.4348 43.8872C96.7715 44.2552 98.1544 44.4319 99.5416 44.412C101.18 44.4549 102.82 44.3664 104.444 44.1472C105.113 44.1252 105.778 44.0381 106.43 43.8872V43.8776Z" fill="#B1C832"/>
<path d="M49.0739 39.1499C49.3932 39.2604 49.7032 39.3956 50.0011 39.5543C52.6654 41.0402 55.586 42.0198 58.6127 42.4429C59.9216 42.7043 61.2533 42.8366 62.5884 42.8377C64.5018 42.9239 66.418 42.7473 68.2826 42.3129C69.2716 42.0799 70.2126 41.6792 71.0642 41.1286C73.7147 39.2895 74.1127 34.5619 70.7972 32.7228C69.4719 31.9333 68.0156 31.6733 66.5593 31.2785C63.5108 30.7538 60.4671 30.229 57.5496 29.5694C55.7397 29.2348 53.9958 28.6138 52.3846 27.7304C50.7972 26.8108 49.336 25.7613 48.4088 24.1822C47.6361 23.0011 47.18 21.644 47.0836 20.2393C46.9081 18.7909 46.9986 17.3229 47.3506 15.9064C47.9954 13.3846 49.6132 11.2149 51.8554 9.86448C53.5678 8.83836 55.4521 8.12575 57.4185 7.76063C59.5577 7.3678 61.7373 7.23525 63.9088 7.36587C66.0876 7.31428 68.2644 7.53097 70.3894 8.01098C72.2229 8.33126 73.9768 8.99986 75.5545 9.98003C76.187 10.3889 76.7658 10.874 77.2778 11.4243C77.6372 11.7767 77.8897 12.2221 78.0064 12.7098C78.1231 13.1975 78.0994 13.7079 77.938 14.1829C77.6059 15.2268 76.9586 16.1444 76.0836 16.8115C76.0313 16.7618 75.9683 16.7242 75.8994 16.7017C75.8306 16.6792 75.7575 16.6723 75.6855 16.6815C73.4331 14.9725 70.9186 14.0529 68.2681 13.3982C66.009 12.8976 63.6893 12.7209 61.3797 12.8734C60.1855 13.0034 58.9962 13.2682 57.802 13.3982C57.52 13.4259 57.2478 13.5164 57.0059 13.663C54.4914 14.7125 53.2972 16.5516 53.6952 19.1802C53.848 20.2676 54.4163 21.2552 55.2826 21.9388C56.0773 22.4543 56.9192 22.8943 57.7972 23.2531C59.3073 23.7413 60.859 24.0926 62.4331 24.3026C65.2147 24.8273 67.9962 25.3521 70.7778 26.0117C72.7042 26.4467 74.5424 27.202 76.2147 28.2455C78.9962 29.9546 80.3215 32.4484 80.4525 35.6018C80.631 37.5449 80.2648 39.4991 79.3943 41.2489C78.1214 43.8186 75.8944 45.7994 73.1807 46.7758C71.1536 47.5949 69.006 48.0826 66.8215 48.2201C66.0253 48.2201 65.0982 48.4848 64.3069 48.4848C59.4962 48.5415 54.7222 47.6479 50.2632 45.8562C49.603 45.5914 48.938 45.2015 48.2778 44.9367C47.2195 44.4119 46.5545 43.6224 47.2195 41.9133C47.5957 40.8533 48.2331 39.9033 49.0739 39.1499Z" fill="#B1C832"/>
<path d="M159.152 13.2682C158.877 13.4269 158.611 13.6022 158.356 13.793C157.795 14.1457 157.162 14.3694 156.502 14.4477C154.87 14.5792 153.231 14.5792 151.599 14.4477C151.189 14.4226 150.786 14.3332 150.405 14.1829C150.176 14.0954 149.972 13.9542 149.811 13.7714C149.649 13.5886 149.535 13.3697 149.478 13.1334C149.397 12.8541 149.419 12.5554 149.54 12.2907C149.661 12.0261 149.873 11.8128 150.138 11.6891C150.798 11.8191 151.463 12.3439 152.259 12.0839C152.657 11.6891 152.526 11.2943 152.526 10.8996V5.64717C152.504 5.11905 152.548 4.59025 152.657 4.07288C152.788 3.41813 153.055 3.15336 153.716 3.15336C154.173 3.12519 154.63 3.21648 155.041 3.41814C155.041 3.68293 155.172 4.07288 155.172 4.60245V11.0392C155.172 11.9587 155.57 12.2235 156.497 12.0887C156.833 12.0441 157.144 11.8913 157.384 11.6538C157.623 11.4163 157.777 11.1073 157.822 10.7744C157.937 10.1683 157.981 9.5513 157.953 8.93533V1.03987C158.084 0.385126 158.351 -0.00964355 159.012 -0.00964355H159.672C159.803 -0.00964355 160.07 0.120337 160.201 0.120337C160.468 0.645097 160.332 1.16986 160.332 1.82942V9.05088C160.31 9.493 160.354 9.93594 160.463 10.3652C160.471 10.8161 160.655 11.2465 160.976 11.5655C161.298 11.8844 161.732 12.0668 162.186 12.0743H178.347C178.749 12.0964 179.153 12.0524 179.541 11.9443C179.933 11.9226 180.305 11.7668 180.595 11.5035C180.884 11.2402 181.073 10.8856 181.128 10.5C181.237 10.115 181.282 9.7149 181.259 9.31566V5.37275C181.268 5.23654 181.327 5.10825 181.424 5.01173C181.522 4.91521 181.651 4.85702 181.788 4.84799C182.361 4.69802 182.968 4.7438 183.512 4.97797C183.512 5.24276 183.643 5.63271 183.643 6.02748V9.31084C183.667 9.84439 183.757 10.373 183.91 10.8851C184.007 11.2539 184.235 11.576 184.551 11.7932C184.867 12.0104 185.251 12.1083 185.633 12.0694C186.429 12.0694 187.089 11.8047 187.356 11.0199C187.509 10.5523 187.599 10.0666 187.623 9.57564V5.51717C187.618 5.42991 187.632 5.3426 187.664 5.26095C187.695 5.17931 187.743 5.10516 187.806 5.04336C187.868 4.98156 187.943 4.9335 188.025 4.90232C188.107 4.87114 188.195 4.85755 188.283 4.86243H189.74C189.88 4.99783 189.988 5.16199 190.056 5.34333C190.125 5.52468 190.153 5.71878 190.138 5.91195V8.93533C190.115 9.55123 190.159 10.1677 190.269 10.7744C190.355 11.17 190.571 11.5261 190.883 11.7873C191.194 12.0486 191.585 12.2002 191.992 12.2187C192.919 12.2187 193.58 11.9539 193.847 11.1692C193.956 10.7842 194 10.3841 193.978 9.98484V5.65197C193.987 5.51577 194.045 5.38748 194.143 5.29096C194.24 5.19443 194.369 5.13625 194.507 5.12721C195.123 4.97337 195.773 5.01893 196.361 5.25721C196.361 5.52199 196.492 5.91195 196.492 6.30672V10.3796C196.623 11.6939 197.152 12.3487 198.478 12.3487H204.303C205.628 12.3487 206.157 11.6939 206.288 10.5096V1.31429C206.275 1.17313 206.293 1.03075 206.341 0.897329C206.39 0.763909 206.467 0.642734 206.568 0.542471C206.669 0.442207 206.792 0.365336 206.926 0.317329C207.061 0.269322 207.204 0.25138 207.347 0.264775H208.143C208.28 0.27381 208.409 0.331996 208.507 0.428519C208.604 0.525041 208.663 0.653329 208.672 0.789533V11.2992C208.672 12.7434 207.347 14.0578 205.89 14.3225C205.234 14.4311 204.569 14.4746 203.905 14.4525H199.667C198.08 14.4525 196.356 14.3225 195.031 13.1382C193.973 13.793 192.91 14.3225 191.72 14.3225C190.55 14.3301 189.417 13.9083 188.541 13.1382C186.288 14.8473 184.172 14.8473 182.182 13.2682H181.915C180.72 14.1111 179.272 14.5285 177.808 14.4525H173.968C170.657 14.4525 167.478 14.4525 164.167 14.5825H163.24C162.046 14.5825 160.458 14.4525 159.133 13.2682H159.152Z" fill="#0C85A3"/>
<path d="M140.212 6.96147C140.343 6.83149 140.343 6.83149 140.479 6.83149C141.804 4.72764 143.92 4.59765 146.042 4.99242C147.896 5.3872 148.692 6.7015 148.692 8.01581V11.2992C148.668 12.0706 148.357 12.8061 147.82 13.3641C147.282 13.9222 146.556 14.2635 145.78 14.3225C144.901 14.4541 144.008 14.4541 143.129 14.3225C141.542 14.0578 140.479 13.1382 140.217 11.5639C140.085 11.1692 140.217 10.7744 140.085 10.5144C140.041 10.2423 139.936 9.98351 139.778 9.75657C139.62 9.52963 139.413 9.34025 139.173 9.20209C138.932 9.06393 138.664 8.98043 138.387 8.95761C138.11 8.9348 137.831 8.97323 137.571 9.07014C137.263 9.18784 136.991 9.38281 136.782 9.63596C136.572 9.88912 136.433 10.1918 136.377 10.5144C136.31 10.9501 136.31 11.3931 136.377 11.8287V13.5378C136.377 14.3274 136.11 14.4574 135.318 14.5873H134.789C134.129 14.5873 133.862 14.3226 133.862 13.6678C133.796 12.531 133.796 11.3913 133.862 10.2545C133.993 8.41541 135.056 7.36587 136.775 6.84111C137.601 6.64407 138.463 6.64407 139.289 6.84111C139.602 6.82564 139.914 6.86642 140.212 6.96147ZM142.726 9.59009C142.704 9.98933 142.748 10.3895 142.857 10.7744C142.943 11.1296 143.141 11.4486 143.42 11.686C143.7 11.9235 144.049 12.0671 144.416 12.0965C144.783 12.1258 145.15 12.0394 145.465 11.8495C145.779 11.6597 146.026 11.376 146.168 11.0392C146.433 10.0942 146.433 9.09555 146.168 8.15061C146.026 7.81375 145.779 7.53014 145.465 7.34026C145.15 7.15039 144.783 7.06396 144.416 7.09332C144.049 7.12268 143.7 7.26633 143.42 7.50376C143.141 7.74118 142.943 8.06026 142.857 8.4154C142.748 8.797 142.702 9.1938 142.721 9.59009H142.726Z" fill="#0C85A3"/>
<path d="M213.202 14.3177C212.43 14.5807 211.591 14.5807 210.819 14.3177C210.819 14.053 210.688 13.663 210.688 13.3982V1.4443C210.714 1.19776 210.805 0.962193 210.95 0.76029C211.095 0.558387 211.29 0.39695 211.516 0.291509C211.742 0.186069 211.992 0.140179 212.242 0.158267C212.491 0.176354 212.732 0.257808 212.94 0.39478C213.071 0.524766 213.207 0.65957 213.207 0.789557V13.1382C213.34 13.522 213.34 13.9388 213.207 14.3226L213.202 14.3177Z" fill="#0C85A3"/>
<path d="M266.451 14.7125L262.874 11.1499C262.843 11.1271 262.817 11.0973 262.8 11.0631C262.783 11.0288 262.773 10.9909 262.773 10.9525C262.773 10.9141 262.783 10.8763 262.8 10.842C262.817 10.8077 262.843 10.778 262.874 10.7551L266.451 7.20699C266.474 7.17613 266.504 7.15105 266.539 7.13377C266.574 7.11649 266.612 7.10748 266.65 7.10748C266.689 7.10748 266.727 7.11649 266.762 7.13377C266.797 7.15105 266.826 7.17613 266.85 7.20699L270.427 10.7551C270.458 10.778 270.484 10.8077 270.501 10.842C270.518 10.8763 270.528 10.9141 270.528 10.9525C270.528 10.9909 270.518 11.0288 270.501 11.0631C270.484 11.0973 270.458 11.1271 270.427 11.1499L266.85 14.6981C266.828 14.7298 266.799 14.756 266.765 14.7745C266.731 14.7931 266.693 14.8035 266.654 14.8049C266.615 14.8063 266.577 14.7987 266.542 14.7826C266.507 14.7666 266.476 14.7426 266.451 14.7125Z" fill="#0C85A3"/>
<path d="M13.7053 28.2455C13.7053 28.5103 13.8364 28.6403 14.1034 28.7703L22.1859 36.7861C23.6914 38.357 24.9028 40.1812 25.7636 42.1733C26.4749 43.6519 27.0516 45.1906 27.4869 46.771C27.618 47.1657 27.618 47.6905 27.7539 48.2152C27.9504 48.9032 28.0836 49.6073 28.1519 50.3191C28.3065 51.2312 28.3957 52.1531 28.4189 53.0777V55.4415C28.4389 55.6263 28.3925 55.8121 28.2879 55.9663C28.0209 56.0963 27.8898 55.8363 27.7587 55.7015L24.05 52.0234L15.7053 43.7476C13.7199 41.7785 11.7296 39.6747 9.61311 37.7056L0.58884 28.7703C0.457772 28.6403 0.0597162 28.5055 0.321852 28.2455C0.835666 28.0832 1.37013 27.994 1.90923 27.9807C4.06409 27.7405 6.23664 27.697 8.39952 27.8507C9.16308 27.8292 9.92699 27.8791 10.6811 28C11.6934 28.0175 12.7036 28.0996 13.7053 28.2455Z" fill="url(#paint0_linear_602_18796)"/>
<path d="M13.7068 28.2455C12.7797 28.1155 11.7214 27.9807 10.7942 27.8507C10.0483 27.7457 9.29493 27.7022 8.54179 27.7207C6.28937 27.7207 4.17286 27.5907 1.92043 27.9855C1.29034 28.054 0.668974 28.1862 0.0660649 28.3803C-0.065003 28.2503 0.0660649 28.2503 0.0660649 28.2503L2.18743 26.1464C2.81573 25.4988 3.47848 24.8849 4.17286 24.3074C4.83305 23.6526 5.4981 22.8631 6.29422 22.2035L7.4884 21.0192C8.54665 19.9697 9.60975 18.9154 10.5369 17.8658L15.0418 13.3982L22.5903 5.91192L27.3573 1.18427L27.4884 1.05429C27.6195 0.924301 27.7554 0.789506 27.8865 0.924306C28.0175 0.924306 28.1534 1.18908 28.1534 1.31907V2.63338C28.1534 3.94768 28.1534 5.26199 28.0224 6.5763C27.8782 7.81455 27.6577 9.04289 27.3622 10.2544C26.9728 11.7889 26.4414 13.2845 25.7748 14.7221C24.571 17.2706 22.8585 19.5504 20.7408 21.4236L13.9835 28.1251C13.8379 28.1155 13.7068 28.1155 13.7068 28.2455Z" fill="url(#paint1_linear_602_18796)"/>
<path d="M36.4863 28.1155C36.6173 28.1155 36.6173 28.2455 36.7532 28.2455C36.7844 28.2684 36.8097 28.2981 36.8271 28.3324C36.8445 28.3667 36.8536 28.4045 36.8536 28.4429C36.8536 28.4813 36.8445 28.5191 36.8271 28.5534C36.8097 28.5877 36.7844 28.6175 36.7532 28.6403C36.2789 29.0449 35.8359 29.4842 35.428 29.9546L33.0445 32.3329L30.9231 34.4367C30.5251 34.8315 30.263 34.8315 29.8649 34.4367C28.0105 32.5976 26.0251 30.7586 24.1707 28.7895C24.0397 28.6596 23.7727 28.3948 24.1707 28.2648C25.0979 28.3948 26.0251 28 26.9523 27.74L29.7338 26.9505C31.539 26.4854 33.4484 26.6242 35.1659 27.3453C35.5639 27.4752 35.8261 27.74 36.2241 27.87C36.3552 28.1155 36.3552 28.1155 36.4863 28.1155Z" fill="url(#paint2_linear_602_18796)"/>
<path d="M36.3581 28C35.96 27.87 35.6979 27.6052 35.2998 27.4752C33.5824 26.7542 31.6729 26.6154 29.8678 27.0804L27.0862 27.87C26.1878 28.1708 25.2518 28.3474 24.3047 28.3948C24.6777 27.8934 25.1244 27.4504 25.6299 27.0804C27.0862 25.5062 28.6785 24.0571 30.2659 22.4828C30.6639 22.088 30.6639 22.088 30.926 22.4828C32.6493 24.3219 34.3678 26.0309 36.227 27.74C36.227 27.8507 36.3581 27.8507 36.3581 28Z" fill="url(#paint3_linear_602_18796)"/>
</g>
<defs>
<linearGradient id="paint0_linear_602_18796" x1="0.0563179" y1="42.2235" x2="28.1319" y2="42.2235" gradientUnits="userSpaceOnUse">
<stop stop-color="#00AACB"/>
<stop offset="0.25" stop-color="#00A7C8"/>
<stop offset="0.46" stop-color="#009EBE"/>
<stop offset="0.64" stop-color="#008EAD"/>
<stop offset="0.82" stop-color="#017895"/>
<stop offset="0.98" stop-color="#015C77"/>
<stop offset="1" stop-color="#015973"/>
</linearGradient>
<linearGradient id="paint1_linear_602_18796" x1="0.0866475" y1="15.0595" x2="28.0694" y2="15.0595" gradientUnits="userSpaceOnUse">
<stop stop-color="#D5DD26"/>
<stop offset="0.24" stop-color="#D2DB27"/>
<stop offset="0.43" stop-color="#C8D429"/>
<stop offset="0.61" stop-color="#B7C82E"/>
<stop offset="0.78" stop-color="#9FB834"/>
<stop offset="0.94" stop-color="#81A33B"/>
<stop offset="1" stop-color="#72993F"/>
</linearGradient>
<linearGradient id="paint2_linear_602_18796" x1="27.561" y1="33.5491" x2="31.9118" y2="25.9492" gradientUnits="userSpaceOnUse">
<stop stop-color="#00AACB"/>
<stop offset="0.19" stop-color="#00A2C2"/>
<stop offset="0.49" stop-color="#008BAA"/>
<stop offset="0.87" stop-color="#016782"/>
<stop offset="1" stop-color="#015973"/>
</linearGradient>
<linearGradient id="paint3_linear_602_18796" x1="24.1518" y1="25.6722" x2="36.2048" y2="25.6722" gradientUnits="userSpaceOnUse">
<stop stop-color="#72993F"/>
<stop offset="0.06" stop-color="#81A33B"/>
<stop offset="0.22" stop-color="#9FB834"/>
<stop offset="0.39" stop-color="#B7C82E"/>
<stop offset="0.57" stop-color="#C8D429"/>
<stop offset="0.76" stop-color="#D2DB27"/>
<stop offset="1" stop-color="#D5DD26"/>
</linearGradient>
<clipPath id="clip0_602_18796">
<rect width="300" height="56" fill="white"/>
</clipPath>
</defs>
</svg>
