<svg width="300" height="55" viewBox="0 0 300 55" fill="none" xmlns="http://www.w3.org/2000/svg">
<path d="M39.1661 0H35.1601C35.0544 0 34.9688 0.060386 34.9688 0.134875V18.588C34.9688 18.6624 35.0544 18.7228 35.1601 18.7228H39.1661C39.2718 18.7228 39.3575 18.6624 39.3575 18.588V0.134875C39.3575 0.060386 39.2718 0 39.1661 0Z" fill="#CBA243"/>
<path d="M20.7551 4.56097C18.9668 4.81971 16.956 5.03992 15.3864 5.54088C12.9577 6.31893 10.9157 7.37408 9.26013 8.70631C5.21501 11.9635 2.83453 15.8528 2.1187 20.3744C1.92087 21.6167 1.8636 23.193 1.9469 25.1032C2.17076 30.2285 4.54343 34.7014 9.0649 38.5219C10.8298 40.0138 13.7152 41.6295 16.6397 42.1773C18.0454 42.4379 18.9109 42.5892 19.2363 42.6315C19.7621 42.6975 20.2592 42.6746 20.7278 42.5626C20.7122 42.4929 20.7304 42.4874 20.7825 42.5461C20.8128 42.5782 20.8265 42.6171 20.8215 42.6562L20.5911 44.4124C14.91 44.2692 9.73648 41.8497 6.47618 38.6733C-0.239649 32.1277 -1.45396 23.6058 1.55254 15.8932C3.97336 9.68622 10.576 3.34435 20.4779 2.90669C20.535 2.90459 20.5914 2.91707 20.6365 2.94183C20.6817 2.9666 20.7127 3.002 20.7239 3.04157C20.8645 3.53519 20.8749 4.04166 20.7551 4.56097Z" fill="#CBA243"/>
<path d="M20.7593 4.56097L20.7984 8.57144C17.6747 8.66869 14.9858 9.45959 12.7316 10.9441C10.6075 12.3424 9.02483 13.8839 7.98362 15.5684C4.01269 21.9846 4.91073 32.2599 13.7467 36.986C15.7224 38.0411 17.991 38.6237 20.5524 38.7338C20.618 38.7367 20.6796 38.757 20.7246 38.7908C20.7696 38.8246 20.7946 38.8692 20.7945 38.9155L20.7632 42.1277L20.732 42.5626C20.2634 42.6746 19.7663 42.6975 19.2404 42.6315C18.9151 42.5892 18.0495 42.4379 16.6439 42.1773C13.7194 41.6295 10.8339 40.0138 9.06908 38.5219C4.54761 34.7014 2.17494 30.2285 1.95108 25.1032C1.86779 23.193 1.92505 21.6167 2.12288 20.3744C2.83872 15.8528 5.21919 11.9635 9.26431 8.70631C10.9198 7.37408 12.9619 6.31893 15.3905 5.54088C16.9602 5.03992 18.971 4.81971 20.7593 4.56097Z" fill="#FDFDFD"/>
<path d="M32.8372 21.4699H29.4675C29.4614 21.4699 29.4553 21.469 29.4496 21.4674C29.4439 21.4657 29.4388 21.4633 29.4344 21.4602C29.4301 21.4572 29.4266 21.4535 29.4242 21.4495C29.4219 21.4455 29.4207 21.4412 29.4207 21.4369V18.1256C29.4207 18.1192 29.4181 18.1129 29.4132 18.1075C29.4083 18.1022 29.4013 18.0979 29.3931 18.0953C29.3848 18.0927 29.3756 18.0918 29.3667 18.0928C29.3577 18.0937 29.3493 18.0965 29.3426 18.1008L26.7422 19.934C26.7354 19.9382 26.727 19.941 26.7181 19.942C26.7091 19.943 26.7 19.9421 26.6917 19.9395C26.6834 19.9369 26.6764 19.9326 26.6715 19.9272C26.6666 19.9219 26.664 19.9156 26.6641 19.9092V16.6557C26.664 16.651 26.6653 16.6463 26.668 16.6419L32.7122 7.38511C32.7147 7.38111 32.7184 7.37751 32.7229 7.37451C32.7274 7.37151 32.7327 7.36918 32.7386 7.36764C32.7444 7.36611 32.7506 7.3654 32.7568 7.36556C32.763 7.36573 32.7691 7.36676 32.7747 7.3686L32.8567 7.39612C32.8649 7.39877 32.8718 7.40304 32.8767 7.40842C32.8815 7.41379 32.8841 7.42003 32.884 7.4264V21.4369C32.884 21.4456 32.8791 21.454 32.8703 21.4602C32.8615 21.4664 32.8496 21.4699 32.8372 21.4699Z" fill="#CBA243"/>
<path d="M41.4726 7.43188C41.4824 7.42653 41.4938 7.42282 41.506 7.42103C41.5181 7.41924 41.5307 7.41941 41.5427 7.42153C41.5547 7.42365 41.5659 7.42766 41.5754 7.43327C41.5849 7.43887 41.5925 7.44593 41.5976 7.4539L47.4271 16.3391C47.5632 16.5505 47.6337 16.7804 47.634 17.0135L47.6301 19.8624C47.6291 19.8755 47.6229 19.8881 47.6121 19.8987C47.6013 19.9094 47.5865 19.9177 47.5693 19.9226C47.552 19.9275 47.5332 19.9289 47.5149 19.9265C47.4966 19.9241 47.4797 19.9181 47.4661 19.9092L45.139 18.1943C45.119 18.1793 45.0931 18.1689 45.0645 18.1645C45.036 18.1601 45.0062 18.1618 44.9792 18.1696C44.9521 18.1773 44.929 18.1907 44.9129 18.2079C44.8969 18.2251 44.8886 18.2453 44.8891 18.2659L44.8774 21.3873C44.8774 21.407 44.8659 21.4259 44.8454 21.4398C44.8249 21.4538 44.7971 21.4616 44.7681 21.4616L41.5195 21.4699C41.4946 21.4699 41.4708 21.4629 41.4532 21.4505C41.4357 21.4381 41.4258 21.4213 41.4258 21.4038L41.4219 7.48693C41.4218 7.47688 41.4237 7.46743 41.4272 7.45999C41.4307 7.45255 41.4357 7.44751 41.4414 7.44564C41.4492 7.44381 41.4596 7.43922 41.4726 7.43188Z" fill="#CBA243"/>
<path d="M20.7942 8.57141L20.7981 12.1828C17.5261 12.3204 15.1678 13.3856 13.0671 15.2298C11.6745 16.4538 10.6034 18.0576 9.85368 20.0413C8.7604 22.937 9.08448 26.5813 10.9391 29.5018C11.6472 30.6175 12.255 31.4442 12.7626 31.9818C14.5743 33.8958 17.1474 34.9353 20.4819 35.1005C20.7682 35.1133 20.9049 35.2216 20.8918 35.4253L20.9231 38.4531C20.9245 38.5028 20.9513 38.5506 20.9986 38.5875C21.046 38.6244 21.1107 38.648 21.1808 38.654C21.8133 38.7054 22.5148 38.6678 23.2853 38.5411C27.9708 37.7787 31.4615 35.3014 33.527 32.2763C35.3803 29.566 36.3057 26.6694 36.3031 23.5866L40.2701 23.7737C40.2415 25.6363 40.0645 27.208 39.7391 28.4888C39.1092 30.9753 37.7868 33.4287 35.7721 35.8492C34.2884 37.6291 32.4623 39.1173 30.294 40.3138C29.245 40.8918 27.8875 41.4221 26.2216 41.9048C25.8207 42.0222 25.1543 42.1525 24.2224 42.2956C23.543 42.3984 22.8689 42.5186 22.1999 42.6562C21.5986 42.7791 21.1183 42.603 20.7591 42.1277L20.7903 38.9155C20.7905 38.8692 20.7655 38.8245 20.7205 38.7908C20.6755 38.757 20.6139 38.7366 20.5482 38.7338C17.9869 38.6237 15.7183 38.0411 13.7426 36.986C4.90661 32.2598 4.00856 21.9846 7.97949 15.5684C9.02071 13.8838 10.6034 12.3424 12.7274 10.9441C14.9817 9.45956 17.6706 8.66867 20.7942 8.57141Z" fill="#075AA3"/>
<path d="M20.7971 12.1828L20.8401 15.5271C20.8411 15.5794 20.8153 15.6303 20.7673 15.6707C20.7194 15.711 20.6525 15.7382 20.5785 15.7474C17.3143 16.1547 15.1629 17.5448 14.1243 19.9175C12.9568 22.5792 12.9685 25.9841 14.7841 28.5605C15.9399 30.201 17.939 31.0047 20.4223 31.1368C20.5372 31.1431 20.6445 31.1792 20.7227 31.2379C20.8009 31.2966 20.8442 31.3735 20.844 31.4534V32.7443C20.8441 32.7834 20.862 32.8204 20.8948 32.8489C20.9572 32.9021 21.0249 32.9361 21.0978 32.9508C20.9182 33.5563 20.8245 34.2243 20.8167 34.9546C20.8141 35.0739 20.8909 35.1372 21.047 35.1446C20.9221 35.1556 20.87 35.2491 20.8909 35.4253C20.9039 35.2216 20.7672 35.1134 20.4809 35.1005C17.1464 34.9354 14.5733 33.8958 12.7616 31.9819C12.254 31.4442 11.6462 30.6175 10.9382 29.5018C9.08349 26.5814 8.75941 22.937 9.85269 20.0413C10.6024 18.0577 11.6735 16.4538 13.0661 15.2299C15.1668 13.3857 17.5251 12.3204 20.7971 12.1828Z" fill="#D81311"/>
<path d="M65.8744 23.9637C71.2159 22.8929 78.166 23.0719 83.0506 25.1693C86.7248 26.7465 88.7044 30.0716 88.3686 33.1572C87.7243 39.0366 82.3868 43.7242 74.4137 45.3207C69.0723 46.3914 62.1222 46.2125 57.2376 44.1151C53.5634 42.5379 51.5838 39.2128 51.9196 36.1272C52.5638 30.2478 57.9014 25.5602 65.8744 23.9637ZM63.8324 32.7746C62.9577 34.1977 62.2744 36.0749 62.5517 37.6879C62.9695 40.1679 66.3 41.2277 69.5721 40.8781C72.8831 40.5258 75.0853 38.7146 76.4089 36.5538C77.2835 35.1308 77.9668 33.2535 77.6896 31.6405C77.2718 29.1605 73.9413 28.1008 70.6692 28.4503C67.3582 28.8027 65.156 30.6138 63.8324 32.7746Z" fill="#075AA3"/>
<path d="M32.8425 23.5618C32.741 24.8518 32.4208 26.2272 31.882 27.6878C30.5427 31.335 26.8295 34.9408 21.0429 35.1445C20.8868 35.1371 20.81 35.0738 20.8126 34.9546C20.8204 34.2242 20.9141 33.5563 21.0937 32.9507C23.754 32.8406 25.8273 32.0736 27.3136 30.6496C28.9431 29.0898 29.9245 27.3768 30.2577 25.5106C30.3618 24.9252 30.4568 24.3426 30.5427 23.7627C30.5492 23.7237 30.5751 23.6876 30.6159 23.6609C30.6567 23.6341 30.7096 23.6185 30.7653 23.6168L32.8425 23.5618Z" fill="#CBA243"/>
<path d="M36.3064 23.5865C36.309 26.6694 35.3836 29.566 33.5302 32.2763C31.4647 35.3014 27.974 37.7787 23.2886 38.5411C22.5181 38.6677 21.8166 38.7054 21.184 38.654C21.1139 38.648 21.0492 38.6244 21.0019 38.5875C20.9545 38.5506 20.9277 38.5028 20.9263 38.453L20.8951 35.4252C20.8743 35.2491 20.9263 35.1555 21.0513 35.1445C26.8378 34.9408 30.551 31.335 31.8903 27.6878C32.4291 26.2272 32.7493 24.8518 32.8508 23.5618L36.3064 23.5865Z" fill="#FDFDFD"/>
<path d="M20.5938 44.4124L20.8241 42.6563C20.8291 42.6171 20.8154 42.5782 20.7851 42.5462C20.733 42.4874 20.7148 42.4929 20.7304 42.5627L20.7616 42.1278C21.1209 42.6031 21.6011 42.7792 22.2024 42.6563C22.8714 42.5186 23.5456 42.3984 24.225 42.2957C25.1569 42.1525 25.8232 42.0223 26.2241 41.9048C27.8901 41.4222 29.2475 40.8919 30.2966 40.3138C32.4649 39.1174 34.2909 37.6292 35.7746 35.8492C37.7894 33.4288 39.1117 30.9754 39.7417 28.4889C40.067 27.2081 40.2441 25.6364 40.2727 23.7738L43.6033 23.6417C43.6246 23.6405 43.6461 23.6425 43.6663 23.6473C43.6866 23.6521 43.7053 23.6598 43.7213 23.6698C43.7374 23.6798 43.7504 23.6919 43.7596 23.7056C43.7688 23.7192 43.7741 23.7339 43.7751 23.749C44.2085 30.9634 40.7061 38.8467 32.6666 43.4655C29.4258 45.3281 25.6228 46.274 21.2575 46.3034C21.2059 46.3038 21.1547 46.2969 21.1069 46.2832C21.0591 46.2696 21.0156 46.2493 20.9789 46.2237C20.9422 46.1982 20.9131 46.1677 20.8933 46.1341C20.8734 46.1005 20.8632 46.0645 20.8632 46.0281V44.561C20.8633 44.5405 20.8567 44.5202 20.8438 44.5016C20.831 44.483 20.8122 44.4666 20.789 44.4537C20.7187 44.4151 20.6536 44.4014 20.5938 44.4124Z" fill="#D81311"/>
<path d="M124.421 45.3868C124.432 45.4064 124.436 45.4276 124.432 45.4485C124.429 45.4695 124.418 45.4895 124.401 45.5069C124.384 45.5242 124.362 45.5384 124.335 45.5482C124.309 45.5579 124.279 45.563 124.249 45.5629H113.883C113.761 45.5628 113.641 45.5372 113.54 45.4891C113.438 45.4411 113.359 45.3729 113.313 45.2932C111.824 42.7095 110.326 40.4276 108.819 38.4476C107.837 37.1594 106.508 36.5795 104.832 36.708C104.772 36.7127 104.716 36.7303 104.671 36.7585C104.626 36.7866 104.595 36.8238 104.582 36.8649L101.806 45.3235C101.783 45.3946 101.727 45.4581 101.646 45.5036C101.565 45.5491 101.464 45.5739 101.361 45.5739H91.5332C91.4954 45.5737 91.4581 45.5676 91.4241 45.5559C91.3901 45.5443 91.3602 45.5274 91.3366 45.5066C91.313 45.4857 91.2964 45.4614 91.2878 45.4355C91.2793 45.4095 91.2791 45.3825 91.2872 45.3565L98.3349 23.8618C98.3483 23.8221 98.38 23.7867 98.4248 23.7616C98.4696 23.7366 98.5247 23.7234 98.5809 23.7242C103.584 23.7664 109.326 23.7719 115.808 23.7407C118.525 23.727 122.016 23.8618 124.023 24.9216C127.986 27.0135 128.041 31.0047 125.136 33.6334C123.394 35.2051 120.134 36.1217 117.37 36.3364C117.329 36.34 117.29 36.3518 117.259 36.3706C117.228 36.3893 117.205 36.4141 117.193 36.4419C117.182 36.4696 117.182 36.4992 117.194 36.5269C117.206 36.5546 117.229 36.5793 117.26 36.5979C118.052 37.0603 118.762 37.6439 119.392 38.3485C121.381 40.5707 123.057 42.9168 124.421 45.3868ZM106.234 32.6012C108.644 32.6599 111.112 32.5911 113.637 32.3947C115.54 32.2461 116.703 31.5653 117.128 30.3524C117.733 28.6265 115.402 28.2329 113.59 28.1806C112.041 28.1384 110.076 28.1219 107.694 28.131C107.613 28.132 107.535 28.1519 107.473 28.1873C107.41 28.2228 107.367 28.2719 107.351 28.3265L106.054 32.436C106.048 32.4551 106.048 32.475 106.054 32.4942C106.06 32.5134 106.072 32.5315 106.089 32.5472C106.106 32.5629 106.128 32.5759 106.153 32.5852C106.178 32.5946 106.206 32.6 106.234 32.6012Z" fill="#075AA3"/>
<path d="M159.798 36.3391H143.387C143.33 36.3394 143.276 36.3532 143.232 36.3782C143.188 36.4032 143.157 36.4379 143.145 36.4768L141.856 40.3909C141.848 40.4168 141.848 40.4437 141.857 40.4695C141.865 40.4953 141.882 40.5195 141.906 40.5401C141.929 40.5608 141.959 40.5774 141.993 40.5887C142.027 40.6001 142.065 40.6058 142.102 40.6056H160.344C160.382 40.6058 160.418 40.6118 160.452 40.6234C160.485 40.6349 160.515 40.6515 160.538 40.6721C160.561 40.6927 160.578 40.7167 160.586 40.7424C160.594 40.768 160.594 40.7946 160.586 40.8203L159.075 45.4281C159.063 45.4669 159.032 45.5017 158.988 45.5267C158.944 45.5516 158.89 45.5654 158.833 45.5657H129.826C129.789 45.5655 129.752 45.5594 129.719 45.5479C129.685 45.5364 129.656 45.5197 129.632 45.4991C129.609 45.4786 129.593 45.4546 129.584 45.4289C129.576 45.4033 129.576 45.3767 129.584 45.351L136.616 23.9004C136.629 23.8615 136.659 23.8268 136.703 23.8018C136.747 23.7768 136.802 23.763 136.858 23.7628H164.538C164.575 23.7629 164.612 23.769 164.645 23.7805C164.679 23.792 164.708 23.8087 164.732 23.8293C164.755 23.8499 164.771 23.8739 164.78 23.8995C164.788 23.9252 164.788 23.9518 164.78 23.9775L163.351 28.3265C163.338 28.3653 163.308 28.4001 163.264 28.4251C163.22 28.4501 163.165 28.4638 163.109 28.4641H146.093C146.036 28.4644 145.981 28.4781 145.938 28.5031C145.894 28.5281 145.863 28.5629 145.851 28.6017L144.835 31.6984C144.827 31.724 144.827 31.7506 144.836 31.7763C144.844 31.8019 144.86 31.8259 144.884 31.8465C144.907 31.8671 144.936 31.8838 144.97 31.8953C145.003 31.9068 145.04 31.9129 145.077 31.913H161.137C161.174 31.9132 161.211 31.9193 161.245 31.9308C161.278 31.9423 161.308 31.959 161.331 31.9796C161.354 32.0002 161.37 32.0242 161.379 32.0498C161.387 32.0755 161.387 32.1021 161.379 32.1277L160.04 36.2015C160.027 36.2404 159.997 36.2751 159.953 36.3001C159.909 36.3251 159.854 36.3389 159.798 36.3391Z" fill="#075AA3"/>
<path d="M181.949 35.8987C181.9 35.8271 181.265 34.8922 180.044 33.0939C180.028 33.0712 180.002 33.0525 179.97 33.0405C179.938 33.0285 179.902 33.0236 179.866 33.0266C179.83 33.0296 179.797 33.0403 179.77 33.0573C179.743 33.0742 179.724 33.0966 179.716 33.1214L175.722 45.3069C175.699 45.3781 175.642 45.4417 175.56 45.4872C175.478 45.5327 175.377 45.5575 175.273 45.5574H166.023C165.982 45.5573 165.941 45.5506 165.904 45.5381C165.867 45.5255 165.834 45.5073 165.809 45.4848C165.783 45.4623 165.765 45.4361 165.757 45.4082C165.748 45.3802 165.748 45.3513 165.757 45.3234L172.739 24.027C172.763 23.951 172.824 23.8832 172.91 23.8347C172.997 23.7862 173.104 23.7599 173.215 23.76L182.391 23.7545C182.522 23.7545 182.652 23.7751 182.773 23.815C182.914 23.8646 183.139 24.1343 183.449 24.6243C184.404 26.1419 186.363 29.0687 189.325 33.4049C189.375 33.4765 190.01 34.4114 191.231 36.2097C191.247 36.2325 191.273 36.2511 191.304 36.2631C191.336 36.2752 191.372 36.28 191.408 36.277C191.444 36.274 191.478 36.2633 191.505 36.2463C191.531 36.2294 191.55 36.207 191.559 36.1822L195.553 23.9967C195.576 23.9255 195.633 23.8619 195.714 23.8164C195.796 23.7709 195.897 23.7461 196.002 23.7462H205.252C205.293 23.7464 205.334 23.753 205.371 23.7655C205.408 23.7781 205.44 23.7963 205.466 23.8188C205.491 23.8413 205.509 23.8675 205.518 23.8955C205.527 23.9234 205.527 23.9524 205.517 23.9802L198.536 45.2766C198.511 45.3526 198.451 45.4204 198.364 45.4689C198.277 45.5174 198.17 45.5437 198.06 45.5436L188.884 45.5491C188.753 45.5492 188.622 45.5285 188.501 45.4886C188.361 45.439 188.136 45.1693 187.826 44.6793C186.87 43.1618 184.912 40.2349 181.949 35.8987Z" fill="#075AA3"/>
<path d="M229.023 45.3675L228.609 42.1745C228.603 42.1263 228.572 42.0815 228.521 42.0488C228.47 42.0162 228.404 41.9982 228.335 41.9984H217.754C217.704 41.9985 217.655 42.0083 217.612 42.0268C217.57 42.0452 217.535 42.0716 217.512 42.1029L215.079 45.4583C215.057 45.4897 215.022 45.5161 214.979 45.5345C214.937 45.5529 214.887 45.5628 214.837 45.5629H204.315C204.266 45.5632 204.218 45.5542 204.175 45.5369C204.133 45.5196 204.098 45.4946 204.074 45.4645C204.05 45.4344 204.038 45.4003 204.039 45.3658C204.04 45.3313 204.054 45.2977 204.08 45.2684L222.709 23.8398C222.733 23.8122 222.767 23.7894 222.808 23.7735C222.848 23.7576 222.893 23.7492 222.939 23.749H233.607C233.671 23.7489 233.733 23.7649 233.783 23.7942C233.832 23.8234 233.865 23.8639 233.876 23.9086L239.132 45.3179C239.138 45.3456 239.137 45.374 239.126 45.4012C239.116 45.4283 239.097 45.4535 239.071 45.475C239.046 45.4965 239.014 45.5138 238.978 45.5257C238.941 45.5375 238.902 45.5436 238.862 45.5436H229.296C229.227 45.5438 229.161 45.5258 229.111 45.4932C229.06 45.4605 229.029 45.4157 229.023 45.3675ZM226.883 29.6945C226.88 29.6745 226.868 29.6557 226.848 29.6409C226.829 29.6262 226.803 29.6162 226.775 29.6125C226.747 29.6088 226.718 29.6115 226.693 29.6203C226.667 29.6292 226.646 29.6436 226.633 29.6614L221.167 37.1979C221.157 37.2123 221.152 37.2282 221.153 37.2442C221.154 37.2602 221.161 37.2757 221.174 37.2892C221.186 37.3028 221.203 37.3139 221.223 37.3215C221.243 37.3291 221.265 37.333 221.288 37.3328H227.73C227.749 37.3328 227.767 37.3302 227.784 37.325C227.801 37.3197 227.816 37.3121 227.828 37.3025C227.841 37.2929 227.851 37.2816 227.856 37.2693C227.862 37.257 227.865 37.2439 227.863 37.2309L226.883 29.6945Z" fill="#075AA3"/>
<path d="M252.296 23.7407H262.058C262.098 23.7409 262.137 23.7473 262.172 23.7595C262.208 23.7717 262.24 23.7895 262.264 23.8114C262.289 23.8333 262.307 23.8589 262.315 23.8862C262.324 23.9135 262.324 23.9419 262.316 23.9692L255.494 45.4033C255.481 45.4445 255.448 45.4814 255.402 45.5079C255.355 45.5344 255.297 45.549 255.237 45.5492H245.475C245.435 45.549 245.396 45.5426 245.361 45.5304C245.325 45.5181 245.293 45.5004 245.269 45.4785C245.244 45.4566 245.226 45.431 245.218 45.4037C245.209 45.3764 245.209 45.348 245.217 45.3207L252.039 23.8866C252.052 23.8453 252.085 23.8084 252.131 23.782C252.178 23.7555 252.236 23.7409 252.296 23.7407Z" fill="#075AA3"/>
<path d="M297.227 45.362C297.237 45.3815 297.24 45.4024 297.236 45.4229C297.233 45.4435 297.222 45.4631 297.205 45.4801C297.188 45.4971 297.166 45.511 297.14 45.5206C297.114 45.5302 297.085 45.5353 297.055 45.5354L286.72 45.5271C286.598 45.5269 286.479 45.5011 286.378 45.453C286.278 45.405 286.199 45.3369 286.154 45.2574C284.675 42.6792 283.186 40.4028 281.687 38.4283C280.711 37.1419 279.387 36.5621 277.716 36.6887C277.655 36.6934 277.599 36.7111 277.554 36.7393C277.509 36.7675 277.478 36.8047 277.466 36.8456L274.682 45.2766C274.658 45.3473 274.601 45.4101 274.521 45.4551C274.44 45.5001 274.34 45.5245 274.237 45.5244L264.44 45.5161C264.402 45.5164 264.365 45.5106 264.33 45.4992C264.296 45.4877 264.266 45.4708 264.242 45.4498C264.218 45.4288 264.202 45.4043 264.193 45.3781C264.185 45.3519 264.186 45.3248 264.194 45.2987L271.266 23.8756C271.28 23.8363 271.312 23.8016 271.356 23.7771C271.401 23.7526 271.456 23.7397 271.512 23.7407C276.499 23.7866 282.223 23.7976 288.684 23.7737C291.394 23.7627 294.873 23.9004 296.872 24.9573C300.819 27.0493 300.862 31.0267 297.961 33.6444C296.224 35.2106 292.971 36.1189 290.214 36.3309C290.174 36.3344 290.135 36.3463 290.104 36.3651C290.073 36.3838 290.05 36.4086 290.038 36.4363C290.027 36.4641 290.027 36.4937 290.039 36.5214C290.05 36.5491 290.074 36.5738 290.105 36.5924C290.894 37.0548 291.602 37.6374 292.229 38.3402C294.207 40.5569 295.873 42.8975 297.227 45.362ZM279.083 32.5902C281.49 32.6525 283.957 32.5874 286.482 32.3947C288.384 32.2498 289.551 31.5708 289.98 30.3578C290.589 28.6347 288.262 28.2356 286.45 28.1806C284.902 28.1365 282.936 28.1173 280.555 28.1228C280.474 28.1237 280.396 28.1436 280.333 28.1791C280.271 28.2145 280.228 28.2636 280.211 28.3182L278.903 32.425C278.897 32.4441 278.897 32.464 278.902 32.4832C278.908 32.5024 278.92 32.5205 278.938 32.5362C278.955 32.5519 278.976 32.5649 279.001 32.5742C279.027 32.5835 279.054 32.589 279.083 32.5902Z" fill="#075AA3"/>
<path d="M183.831 51.7C183.979 51.9643 184.028 52.2529 183.977 52.5492C183.926 52.8455 183.775 53.1437 183.533 53.4268C183.291 53.71 182.963 53.9724 182.567 54.1993C182.171 54.4262 181.715 54.613 181.225 54.749C180.735 54.8851 180.221 54.9677 179.711 54.9923C179.202 55.0168 178.708 54.9827 178.257 54.892C177.806 54.8013 177.407 54.6557 177.083 54.4636C176.759 54.2714 176.517 54.0365 176.369 53.7721C176.221 53.5078 176.172 53.2192 176.223 52.9229C176.274 52.6266 176.424 52.3284 176.666 52.0453C176.908 51.7621 177.237 51.4997 177.633 51.2728C178.029 51.0459 178.485 50.8591 178.975 50.7231C179.465 50.587 179.979 50.5044 180.489 50.4798C180.998 50.4553 181.492 50.4894 181.943 50.5801C182.394 50.6708 182.793 50.8164 183.116 51.0085C183.44 51.2007 183.683 51.4356 183.831 51.7ZM181.228 51.6324C180.926 51.4853 180.521 51.4622 180.102 51.5683C179.682 51.6743 179.283 51.9008 178.991 52.1979C178.699 52.495 178.539 52.8383 178.546 53.1524C178.553 53.4665 178.726 53.7256 179.027 53.8727C179.328 54.0199 179.733 54.0429 180.153 53.9369C180.572 53.8308 180.972 53.6043 181.264 53.3073C181.555 53.0102 181.716 52.6668 181.709 52.3527C181.702 52.0386 181.529 51.7795 181.228 51.6324Z" fill="#075AA3"/>
<path d="M214.925 52.6893C214.933 52.7829 215.005 52.8489 215.14 52.8875C215.195 52.9035 215.24 52.934 215.265 52.9728C216.081 54.2857 214.336 54.872 212.707 54.8693C211.195 54.8656 209.787 54.8876 208.483 54.9353C208.439 54.9375 208.394 54.932 208.354 54.9194C208.313 54.9068 208.277 54.8875 208.249 54.8629C208.222 54.8384 208.202 54.8095 208.193 54.7785C208.184 54.7475 208.186 54.7154 208.198 54.6849L209.76 50.7735C209.785 50.7117 209.837 50.657 209.908 50.617C209.979 50.577 210.067 50.5538 210.158 50.5505C211.48 50.5102 212.884 50.5285 214.371 50.6056C215.081 50.6423 215.536 50.8625 215.734 51.2662C215.96 51.7259 215.464 52.1883 214.999 52.5434C214.974 52.5625 214.954 52.5853 214.941 52.6104C214.928 52.6355 214.923 52.6624 214.925 52.6893ZM213.567 51.7713C213.559 51.7214 213.525 51.6742 213.467 51.6323C213.41 51.5904 213.33 51.5548 213.233 51.5273C213.135 51.4998 213.022 51.4811 212.899 51.4722C212.776 51.4633 212.647 51.4644 212.517 51.4754C212.256 51.4977 212.013 51.5591 211.84 51.6461C211.668 51.733 211.581 51.8385 211.598 51.9392C211.607 51.9891 211.64 52.0363 211.698 52.0782C211.755 52.1201 211.835 52.1557 211.932 52.1832C212.03 52.2107 212.143 52.2294 212.266 52.2383C212.389 52.2472 212.518 52.2461 212.648 52.2351C212.909 52.2128 213.152 52.1514 213.325 52.0644C213.497 51.9775 213.584 51.872 213.567 51.7713ZM213.209 53.4487C213.201 53.3919 213.163 53.3378 213.096 53.2894C213.03 53.2411 212.936 53.1995 212.821 53.167C212.706 53.1345 212.572 53.1117 212.426 53.1C212.28 53.0883 212.125 53.0879 211.971 53.0988C211.659 53.1208 211.366 53.1874 211.156 53.2841C210.947 53.3808 210.839 53.4996 210.855 53.6144C210.863 53.6712 210.901 53.7253 210.968 53.7737C211.034 53.822 211.128 53.8636 211.243 53.8961C211.358 53.9286 211.492 53.9514 211.638 53.9631C211.784 53.9748 211.939 53.9752 212.093 53.9643C212.405 53.9423 212.698 53.8757 212.908 53.779C213.117 53.6823 213.225 53.5635 213.209 53.4487Z" fill="#075AA3"/>
<path d="M239.761 52.6617L239.308 54.0435C239.271 54.1585 239.195 54.2656 239.088 54.356C238.981 54.4464 238.845 54.5176 238.692 54.5638C236.981 55.0757 233.334 55.384 232.569 53.7738C232.275 53.1517 232.379 52.5544 232.882 51.9819C234.162 50.523 236.595 50.2257 238.75 50.7487C239.292 50.879 239.704 51.1167 239.988 51.4616C240.02 51.5005 240.038 51.5444 240.04 51.5893C240.042 51.6343 240.029 51.6789 240 51.7193C239.972 51.7596 239.93 51.7944 239.878 51.8205C239.826 51.8466 239.766 51.8633 239.703 51.869C238.805 51.9479 237.931 51.8452 237.083 51.5607C236.651 51.4158 236.151 51.5029 235.583 51.8222C234.79 52.2681 234.525 52.8498 234.791 53.5673C234.807 53.6132 234.837 53.6561 234.878 53.6931C234.92 53.7302 234.973 53.7605 235.033 53.782C235.694 54.0243 236.35 54.0509 237.001 53.8619C237.075 53.8391 237.137 53.8005 237.179 53.7515C237.22 53.7025 237.239 53.6455 237.232 53.5887C237.225 53.5318 237.193 53.4779 237.14 53.4346C237.088 53.3912 237.017 53.3606 236.938 53.3471L236.626 53.2976C236.48 53.2713 236.352 53.2085 236.266 53.1208C236.18 53.0332 236.143 52.9266 236.16 52.8208C236.177 52.715 236.248 52.6172 236.359 52.5455C236.471 52.4737 236.616 52.4329 236.767 52.4305H239.504C239.544 52.4306 239.583 52.437 239.62 52.4494C239.656 52.4618 239.687 52.4798 239.712 52.5021C239.737 52.5243 239.754 52.5503 239.763 52.5779C239.771 52.6056 239.771 52.6342 239.761 52.6617Z" fill="#075AA3"/>
<path d="M297.572 51.7919C296.611 51.9571 295.722 51.8213 294.905 51.3845C294.788 51.3218 294.643 51.2911 294.496 51.2982C294.348 51.3053 294.21 51.3496 294.105 51.4231L293.987 51.5056C293.955 51.5285 293.931 51.5563 293.917 51.5869C293.903 51.6175 293.899 51.65 293.906 51.6819C293.913 51.7137 293.93 51.7439 293.956 51.7702C293.983 51.7965 294.017 51.8181 294.058 51.8332C294.508 51.9983 295.148 52.1754 295.979 52.3644C297.259 52.6562 297.857 53.3416 297.064 54.1288C296.17 55.0206 294.14 55.0206 292.668 54.9381C291.452 54.8665 290.855 54.4224 290.876 53.6058C290.877 53.5558 290.902 53.5074 290.947 53.4684C290.992 53.4295 291.055 53.4022 291.125 53.3911C291.969 53.2608 292.626 53.3544 293.097 53.6719C293.695 54.0738 294.105 54.1398 294.776 53.9389C294.87 53.9109 294.95 53.8626 295.002 53.8009C295.055 53.7392 295.079 53.6673 295.07 53.5955C295.062 53.5237 295.021 53.4556 294.954 53.4011C294.887 53.3466 294.798 53.3084 294.698 53.292C293.601 53.1131 290.872 52.6342 291.887 51.3432C292.8 50.1789 296.967 50.223 297.818 51.4176C297.843 51.453 297.856 51.492 297.857 51.5316C297.858 51.5712 297.846 51.6104 297.822 51.6464C297.799 51.6823 297.764 51.7141 297.721 51.7393C297.677 51.7644 297.626 51.7824 297.572 51.7919Z" fill="#075AA3"/>
<path d="M191.288 54.6876C191.302 54.7086 191.309 54.7319 191.307 54.7552C191.306 54.7786 191.296 54.8013 191.278 54.8211C191.26 54.8409 191.236 54.8573 191.207 54.8686C191.178 54.8799 191.145 54.8858 191.112 54.8858L189.347 54.8775C189.25 54.8775 189.155 54.8581 189.073 54.8216C188.99 54.7851 188.924 54.7329 188.883 54.6711L187.973 53.3223C187.933 53.2656 187.869 53.2187 187.791 53.1876C187.712 53.1565 187.623 53.1428 187.533 53.1481C187.443 53.1535 187.358 53.1776 187.288 53.2175C187.218 53.2574 187.167 53.3112 187.141 53.3719L186.637 54.5968C186.603 54.6833 186.53 54.7595 186.428 54.8137C186.327 54.8679 186.203 54.8971 186.075 54.8968L184.662 54.8913C184.606 54.8916 184.55 54.8826 184.5 54.865C184.449 54.8475 184.405 54.8218 184.371 54.7901C184.337 54.7583 184.314 54.7214 184.303 54.6821C184.293 54.6428 184.295 54.6023 184.31 54.5637L185.884 50.7047C185.899 50.6666 185.931 50.6329 185.975 50.6086C186.02 50.5843 186.074 50.5707 186.13 50.5698C187.731 50.5349 189.175 50.5496 190.464 50.6138C193.01 50.7432 192.498 52.6039 190.519 53.0251C190.48 53.0333 190.445 53.0474 190.415 53.0662C190.385 53.085 190.361 53.1082 190.346 53.1341C190.33 53.1599 190.322 53.188 190.323 53.2162C190.324 53.2444 190.333 53.2722 190.351 53.2976L191.288 54.6876ZM189.91 51.7913C189.899 51.6967 189.835 51.6091 189.732 51.5477C189.63 51.4864 189.497 51.4562 189.362 51.464L188.07 51.5389C187.936 51.5467 187.812 51.5917 187.725 51.6641C187.638 51.7365 187.595 51.8303 187.606 51.9248L187.613 51.9852C187.624 52.0798 187.688 52.1674 187.791 52.2288C187.893 52.2902 188.026 52.3203 188.161 52.3125L189.453 52.2376C189.587 52.2298 189.711 52.1848 189.798 52.1124C189.885 52.0401 189.928 51.9463 189.917 51.8517L189.91 51.7913Z" fill="#075AA3"/>
<path d="M198.365 54.8803H192.457C192.424 54.8803 192.391 54.8749 192.361 54.8645C192.332 54.8541 192.306 54.839 192.286 54.8203C192.266 54.8016 192.252 54.7799 192.246 54.7569C192.24 54.7339 192.241 54.7102 192.25 54.6876L193.847 50.6827C193.86 50.6509 193.887 50.623 193.925 50.6031C193.962 50.5832 194.007 50.5725 194.054 50.5726H199.638C199.671 50.5725 199.704 50.5779 199.734 50.5883C199.763 50.5988 199.789 50.6139 199.809 50.6326C199.829 50.6512 199.843 50.673 199.849 50.696C199.855 50.719 199.854 50.7427 199.845 50.7652L199.583 51.4176C199.57 51.4493 199.543 51.4773 199.506 51.4971C199.468 51.517 199.423 51.5278 199.376 51.5277H196.018C195.971 51.5277 195.926 51.5384 195.889 51.5583C195.851 51.5781 195.824 51.6061 195.811 51.6378L195.671 51.9929C195.662 52.0154 195.66 52.0391 195.666 52.0622C195.672 52.0852 195.686 52.1069 195.706 52.1256C195.726 52.1442 195.752 52.1594 195.782 52.1698C195.812 52.1802 195.844 52.1856 195.878 52.1856H198.849C198.882 52.1855 198.915 52.1909 198.945 52.2013C198.975 52.2118 199.001 52.2269 199.021 52.2456C199.041 52.2642 199.054 52.2859 199.06 52.309C199.067 52.332 199.065 52.3557 199.056 52.3782L198.802 53.0086C198.789 53.0403 198.762 53.0682 198.725 53.0881C198.688 53.108 198.642 53.1187 198.595 53.1187H195.374C195.327 53.1186 195.282 53.1294 195.244 53.1492C195.207 53.1691 195.18 53.197 195.167 53.2288L194.98 53.7022C194.971 53.7247 194.969 53.7485 194.975 53.7715C194.981 53.7945 194.995 53.8162 195.015 53.8349C195.035 53.8536 195.061 53.8687 195.091 53.8791C195.121 53.8895 195.153 53.8949 195.187 53.8949H198.638C198.671 53.8949 198.704 53.9003 198.734 53.9107C198.764 53.9211 198.79 53.9362 198.81 53.9549C198.83 53.9736 198.843 53.9953 198.85 54.0183C198.856 54.0413 198.854 54.065 198.845 54.0876L198.572 54.7702C198.559 54.8019 198.532 54.8299 198.495 54.8498C198.457 54.8696 198.412 54.8804 198.365 54.8803Z" fill="#075AA3"/>
<path d="M201.484 54.8748L199.907 54.8913C199.871 54.8914 199.835 54.8855 199.803 54.8743C199.77 54.863 199.742 54.8466 199.72 54.8263C199.698 54.8061 199.683 54.7825 199.676 54.7575C199.669 54.7325 199.671 54.7067 199.68 54.6821L201.238 50.7872C201.263 50.7236 201.317 50.6676 201.392 50.6282C201.466 50.5888 201.556 50.5683 201.648 50.5698L203.284 50.5863C203.362 50.5879 203.437 50.6045 203.502 50.6341C203.567 50.6637 203.618 50.7053 203.651 50.7542L204.987 52.7305C205.004 52.7565 205.032 52.7781 205.067 52.7923C205.102 52.8066 205.142 52.8128 205.183 52.8101C205.223 52.8073 205.261 52.7958 205.292 52.7771C205.322 52.7585 205.344 52.7335 205.354 52.7058L206.041 50.8423C206.067 50.7709 206.125 50.7075 206.207 50.6617C206.288 50.6159 206.389 50.5904 206.494 50.589L208.06 50.5753C208.096 50.5748 208.132 50.5803 208.165 50.5914C208.198 50.6025 208.227 50.6188 208.249 50.6391C208.272 50.6594 208.287 50.6832 208.294 50.7084C208.301 50.7336 208.3 50.7597 208.29 50.7845L206.732 54.6848C206.708 54.7454 206.657 54.7986 206.585 54.836C206.514 54.8734 206.427 54.8929 206.338 54.8913L204.717 54.883C204.633 54.8827 204.55 54.8654 204.478 54.8333C204.406 54.8012 204.348 54.7555 204.311 54.7014L202.984 52.7333C202.966 52.7083 202.938 52.6877 202.903 52.6742C202.869 52.6606 202.829 52.6548 202.79 52.6575C202.751 52.6602 202.713 52.6712 202.683 52.6892C202.653 52.7072 202.631 52.7312 202.62 52.7581L201.925 54.6298C201.901 54.6992 201.844 54.7608 201.764 54.8052C201.684 54.8495 201.586 54.8739 201.484 54.8748Z" fill="#075AA3"/>
<path d="M224.115 50.5781C224.154 50.5779 224.192 50.5843 224.226 50.5966C224.261 50.609 224.29 50.627 224.313 50.6491C224.335 50.6711 224.35 50.6967 224.356 50.7236C224.361 50.7505 224.358 50.778 224.345 50.8038C223.952 51.6204 223.653 52.3333 223.447 52.9425C223.037 54.1509 222.147 54.7647 220.457 54.9051C218.903 55.0344 216.798 55.0455 216.384 53.7875C216.126 53.0113 216.821 51.9213 217.181 50.9304C217.215 50.833 217.295 50.7466 217.407 50.6847C217.518 50.6229 217.656 50.5893 217.798 50.5891H219.156C219.207 50.5889 219.258 50.597 219.304 50.6126C219.35 50.6282 219.39 50.651 219.422 50.6793C219.454 50.7076 219.476 50.7406 219.488 50.776C219.499 50.8114 219.499 50.8481 219.488 50.8836L218.719 53.226C218.689 53.3185 218.691 53.4148 218.725 53.5066C218.759 53.5985 218.824 53.6831 218.915 53.7534C219.005 53.8237 219.119 53.8775 219.245 53.9103C219.371 53.9431 219.507 53.9538 219.641 53.9417L219.879 53.9197C220.202 53.8897 220.504 53.7909 220.746 53.6364C220.987 53.482 221.156 53.2793 221.23 53.0554L221.952 50.8588C221.978 50.779 222.041 50.7077 222.132 50.6567C222.223 50.6056 222.336 50.5779 222.452 50.5781H224.115Z" fill="#075AA3"/>
<path d="M231.26 54.6821C231.275 54.7031 231.282 54.7264 231.28 54.7498C231.278 54.7731 231.268 54.7958 231.25 54.8156C231.233 54.8354 231.208 54.8518 231.179 54.8631C231.15 54.8744 231.118 54.8803 231.084 54.8803H229.316C229.219 54.8803 229.123 54.8609 229.041 54.8243C228.959 54.7878 228.893 54.7357 228.851 54.6739L227.93 53.3279C227.89 53.2702 227.826 53.2225 227.747 53.191C227.668 53.1595 227.577 53.1456 227.486 53.1513C227.396 53.1569 227.31 53.1819 227.24 53.2227C227.17 53.2636 227.119 53.3185 227.094 53.3802L226.602 54.6078C226.569 54.6948 226.495 54.7716 226.394 54.8264C226.292 54.8811 226.168 54.9107 226.04 54.9106H224.622C224.566 54.9103 224.511 54.9009 224.46 54.8831C224.41 54.8653 224.366 54.8396 224.332 54.8079C224.298 54.7762 224.275 54.7395 224.264 54.7005C224.254 54.6615 224.256 54.6213 224.271 54.583L225.817 50.7129C225.832 50.6753 225.864 50.6419 225.907 50.6177C225.951 50.5934 226.004 50.5796 226.059 50.5781C227.663 50.5359 229.11 50.545 230.401 50.6056C232.951 50.724 232.455 52.5902 230.475 53.0196C230.437 53.0279 230.402 53.0419 230.372 53.0607C230.342 53.0795 230.318 53.1027 230.302 53.1286C230.286 53.1545 230.279 53.1825 230.279 53.2107C230.28 53.2389 230.29 53.2667 230.307 53.2921L231.26 54.6821ZM229.852 51.8028C229.842 51.7067 229.778 51.6175 229.674 51.5548C229.57 51.4921 229.435 51.461 229.299 51.4684L228.084 51.5342C227.948 51.5416 227.822 51.5869 227.733 51.6601C227.644 51.7332 227.6 51.8283 227.61 51.9244L227.615 51.9738C227.626 52.0699 227.69 52.1591 227.794 52.2218C227.898 52.2845 228.033 52.3156 228.169 52.3082L229.383 52.2423C229.52 52.2349 229.646 52.1897 229.735 52.1165C229.824 52.0433 229.868 51.9482 229.858 51.8522L229.852 51.8028Z" fill="#075AA3"/>
<path d="M245.086 54.8941L243.707 54.9381C243.655 54.9402 243.603 54.932 243.558 54.9142C243.512 54.8964 243.474 54.8699 243.449 54.8377C243.423 54.8054 243.412 54.7688 243.414 54.7321C243.417 54.6953 243.435 54.6599 243.465 54.6298L247.179 50.8726C247.294 50.7572 247.466 50.6751 247.663 50.6414C248.316 50.5276 248.977 50.5138 249.646 50.6001C249.73 50.6114 249.807 50.6403 249.867 50.6831C249.927 50.7258 249.967 50.7804 249.982 50.8396L250.943 54.7619C250.947 54.7764 250.946 54.7914 250.94 54.8057C250.935 54.82 250.925 54.8333 250.911 54.8446C250.897 54.856 250.88 54.8651 250.86 54.8712C250.841 54.8774 250.82 54.8805 250.798 54.8803H249.041C248.959 54.8805 248.88 54.8604 248.818 54.8235C248.756 54.7867 248.714 54.7356 248.701 54.6794L248.639 54.4261C248.624 54.3664 248.583 54.3115 248.521 54.2698C248.459 54.2282 248.38 54.2019 248.295 54.1949C247.137 54.0922 246.387 54.2041 246.046 54.5307C245.934 54.6381 245.79 54.7265 245.624 54.7893C245.457 54.8522 245.274 54.888 245.086 54.8941ZM248.092 53.2563C248.183 53.2563 248.271 53.2305 248.335 53.1846C248.4 53.1386 248.436 53.0763 248.436 53.0113V52.1746C248.436 52.142 248.422 52.1102 248.394 52.0841C248.367 52.0579 248.328 52.0389 248.284 52.0298C248.239 52.0207 248.192 52.0222 248.149 52.0339C248.106 52.0456 248.069 52.067 248.045 52.0947L247.28 52.9755C247.256 53.0035 247.242 53.0354 247.242 53.0682C247.241 53.1009 247.252 53.1333 247.275 53.1618C247.297 53.1904 247.33 53.2143 247.371 53.2309C247.411 53.2475 247.456 53.2562 247.503 53.2563H248.092Z" fill="#075AA3"/>
<path d="M253.986 54.8968H252.217C252.174 54.897 252.132 54.8903 252.093 54.877C252.055 54.8637 252.021 54.8443 251.995 54.8203C251.969 54.7962 251.951 54.7683 251.943 54.7386C251.934 54.7089 251.936 54.6782 251.948 54.6491L253.521 50.7074C253.537 50.666 253.573 50.6295 253.621 50.6036C253.67 50.5778 253.73 50.5639 253.791 50.5643H255.559C255.602 50.564 255.645 50.5708 255.683 50.5841C255.722 50.5974 255.756 50.6168 255.782 50.6408C255.808 50.6648 255.826 50.6928 255.834 50.7225C255.842 50.7522 255.84 50.7828 255.829 50.812L254.255 54.7536C254.239 54.7951 254.204 54.8316 254.155 54.8574C254.106 54.8833 254.047 54.8971 253.986 54.8968Z" fill="#075AA3"/>
<path d="M262.862 54.6959C262.876 54.7174 262.882 54.7412 262.879 54.7648C262.877 54.7884 262.867 54.8112 262.849 54.831C262.831 54.8508 262.806 54.867 262.777 54.878C262.748 54.889 262.715 54.8945 262.682 54.894L260.909 54.8968C260.812 54.8973 260.716 54.8781 260.633 54.8416C260.55 54.8051 260.484 54.7526 260.441 54.6904L259.512 53.3389C259.472 53.2812 259.408 53.2335 259.329 53.202C259.25 53.1705 259.159 53.1566 259.068 53.1623C258.978 53.1679 258.892 53.1929 258.822 53.2337C258.752 53.2746 258.701 53.3295 258.676 53.3912L258.184 54.6243C258.151 54.712 258.077 54.7896 257.975 54.8448C257.872 54.9 257.747 54.9299 257.618 54.9298H256.197C256.14 54.93 256.084 54.9209 256.033 54.9033C255.982 54.8857 255.938 54.86 255.904 54.8283C255.869 54.7965 255.846 54.7596 255.835 54.7204C255.824 54.6812 255.826 54.6408 255.841 54.6023L257.388 50.7157C257.402 50.6778 257.433 50.6441 257.476 50.6193C257.52 50.5946 257.573 50.5801 257.63 50.578C259.241 50.5358 260.695 50.5441 261.991 50.6028C264.552 50.7212 264.057 52.5957 262.069 53.0278C262.031 53.036 261.996 53.0499 261.967 53.0686C261.937 53.0873 261.913 53.1104 261.898 53.1362C261.882 53.1621 261.874 53.1901 261.874 53.2184C261.875 53.2467 261.884 53.2746 261.901 53.3003L262.862 54.6959ZM261.424 51.7567C261.418 51.7113 261.399 51.6674 261.368 51.6272C261.337 51.5871 261.296 51.5516 261.246 51.5227C261.196 51.4939 261.138 51.4722 261.077 51.4591C261.015 51.4459 260.95 51.4415 260.886 51.446L259.603 51.5362C259.474 51.5453 259.354 51.5905 259.272 51.6616C259.189 51.7328 259.15 51.8242 259.163 51.9158L259.177 52.0144C259.183 52.0597 259.202 52.1037 259.233 52.1438C259.263 52.1839 259.305 52.2195 259.355 52.2483C259.405 52.2772 259.462 52.2988 259.524 52.3119C259.586 52.3251 259.651 52.3296 259.715 52.325L260.997 52.2348C261.127 52.2257 261.246 52.1805 261.329 52.1094C261.412 52.0382 261.451 51.9468 261.438 51.8553L261.424 51.7567Z" fill="#075AA3"/>
<path d="M269.514 54.8803H263.938C263.905 54.8804 263.873 54.875 263.844 54.8648C263.814 54.8545 263.789 54.8396 263.769 54.8211C263.749 54.8027 263.736 54.7813 263.73 54.7586C263.724 54.7359 263.726 54.7126 263.735 54.6904L265.328 50.7074C265.341 50.6764 265.367 50.6492 265.404 50.6298C265.441 50.6105 265.485 50.6 265.531 50.6001H267.409C267.442 50.6 267.474 50.6054 267.503 50.6156C267.533 50.6259 267.558 50.6408 267.578 50.6593C267.598 50.6777 267.611 50.6991 267.617 50.7218C267.623 50.7445 267.621 50.7679 267.612 50.79L266.452 53.6774C266.443 53.6996 266.442 53.723 266.448 53.7457C266.454 53.7684 266.467 53.7898 266.487 53.8082C266.506 53.8266 266.532 53.8416 266.561 53.8518C266.59 53.8621 266.623 53.8674 266.655 53.8674H269.799C269.831 53.8673 269.864 53.8726 269.893 53.8829C269.922 53.8932 269.948 53.9081 269.968 53.9265C269.987 53.945 270.001 53.9664 270.006 53.9891C270.012 54.0118 270.011 54.0351 270.002 54.0573L269.717 54.773C269.704 54.804 269.677 54.8312 269.641 54.8506C269.604 54.87 269.559 54.8804 269.514 54.8803Z" fill="#075AA3"/>
<path d="M272.458 50.5615H274.485C274.509 50.5613 274.533 50.5651 274.555 50.5726C274.577 50.5801 274.596 50.5911 274.611 50.6047C274.626 50.6184 274.636 50.6343 274.64 50.6512C274.645 50.668 274.644 50.6854 274.637 50.7019L272.997 54.8032C272.988 54.826 272.969 54.8461 272.942 54.8605C272.915 54.8748 272.882 54.8828 272.849 54.883H270.822C270.798 54.8833 270.774 54.8795 270.752 54.872C270.73 54.8645 270.711 54.8535 270.696 54.8398C270.681 54.8262 270.671 54.8103 270.667 54.7934C270.662 54.7765 270.663 54.7592 270.67 54.7427L272.31 50.6414C272.319 50.6186 272.339 50.5985 272.365 50.5841C272.392 50.5697 272.425 50.5618 272.458 50.5615Z" fill="#075AA3"/>
<path d="M281.415 54.8775H279.49C279.452 54.8775 279.416 54.87 279.384 54.8559C279.352 54.8418 279.326 54.8216 279.31 54.7977L277.924 52.7691C277.906 52.7435 277.878 52.7223 277.843 52.7083C277.807 52.6944 277.767 52.6884 277.727 52.6911C277.686 52.6938 277.648 52.705 277.617 52.7234C277.586 52.7418 277.564 52.7663 277.553 52.7939L276.757 54.7812C276.745 54.8105 276.72 54.8363 276.685 54.8547C276.651 54.8731 276.609 54.883 276.565 54.883H274.785C274.754 54.883 274.724 54.878 274.696 54.8683C274.669 54.8586 274.645 54.8445 274.626 54.8272C274.608 54.8098 274.595 54.7897 274.589 54.7683C274.584 54.747 274.585 54.725 274.594 54.7041L276.198 50.6909C276.21 50.6616 276.235 50.6358 276.27 50.6174C276.304 50.599 276.346 50.5891 276.39 50.5891H278.315C278.352 50.5891 278.389 50.5966 278.421 50.6107C278.453 50.6248 278.478 50.645 278.494 50.6689L279.88 52.6975C279.898 52.7231 279.927 52.7443 279.962 52.7583C279.997 52.7722 280.038 52.7782 280.078 52.7755C280.118 52.7728 280.156 52.7616 280.187 52.7432C280.218 52.7248 280.241 52.7003 280.251 52.6727L281.048 50.6827C281.06 50.6533 281.085 50.6275 281.119 50.6092C281.154 50.5908 281.196 50.5808 281.239 50.5808H283.02C283.05 50.5808 283.081 50.5859 283.108 50.5956C283.136 50.6053 283.16 50.6193 283.178 50.6367C283.197 50.654 283.21 50.6742 283.215 50.6955C283.221 50.7169 283.219 50.7388 283.211 50.7597L281.606 54.7757C281.594 54.805 281.569 54.8308 281.535 54.8492C281.5 54.8676 281.458 54.8775 281.415 54.8775Z" fill="#075AA3"/>
<path d="M289.274 53.8894C289.329 53.8887 289.383 53.8963 289.434 53.9117C289.484 53.9271 289.529 53.9499 289.565 53.9787C289.602 54.0074 289.629 54.0413 289.646 54.0781C289.662 54.115 289.667 54.1539 289.661 54.1922L289.583 54.5858C289.568 54.663 289.515 54.734 289.432 54.7856C289.348 54.8372 289.241 54.8659 289.13 54.8665L283.32 54.9051C283.283 54.9055 283.247 54.8999 283.214 54.8888C283.181 54.8777 283.152 54.8615 283.129 54.8412C283.107 54.821 283.091 54.7974 283.083 54.7722C283.076 54.747 283.076 54.7209 283.085 54.6959L284.675 50.7157C284.695 50.6662 284.738 50.6227 284.797 50.5919C284.857 50.5611 284.929 50.5446 285.003 50.5451L290.422 50.5808C290.475 50.5814 290.527 50.5907 290.574 50.6082C290.621 50.6256 290.661 50.6506 290.691 50.6811C290.722 50.7116 290.741 50.7466 290.748 50.7833C290.755 50.8199 290.749 50.8572 290.731 50.8919L290.563 51.2359C290.519 51.3253 290.436 51.4026 290.326 51.457C290.216 51.5114 290.084 51.54 289.95 51.5387L287.088 51.5112C286.972 51.5099 286.86 51.536 286.768 51.5854C286.676 51.6348 286.61 51.7046 286.58 51.7837L286.533 51.9131C286.521 51.9471 286.52 51.9825 286.531 52.0168C286.542 52.051 286.563 52.083 286.594 52.1104C286.625 52.1379 286.665 52.1599 286.709 52.1748C286.754 52.1897 286.804 52.1972 286.853 52.1966L289.665 52.1718C289.714 52.1714 289.763 52.1795 289.807 52.1954C289.851 52.2112 289.888 52.2344 289.917 52.2628C289.945 52.2912 289.963 52.3241 289.97 52.3586C289.976 52.3931 289.971 52.4282 289.954 52.4608L289.743 52.8682C289.701 52.9495 289.624 53.0195 289.522 53.0684C289.421 53.1173 289.3 53.1426 289.177 53.1407L286.533 53.0994C286.378 53.0968 286.227 53.1322 286.106 53.1995C285.984 53.2668 285.899 53.3618 285.865 53.4683L285.83 53.5729C285.815 53.6139 285.814 53.6567 285.826 53.6982C285.838 53.7396 285.863 53.7785 285.9 53.8118C285.937 53.8451 285.984 53.8719 286.037 53.8901C286.091 53.9084 286.15 53.9175 286.209 53.9169L289.274 53.8894Z" fill="#075AA3"/>
</svg>
