<svg width="300" height="64" viewBox="0 0 300 64" fill="none" xmlns="http://www.w3.org/2000/svg">
<path d="M203.801 1.78429C203.848 2.02564 203.725 2.85311 203.432 4.26671C201.531 13.4896 197.727 22.0876 192.02 30.0607C187.796 35.965 184.294 40.7058 181.514 44.2829C178.587 48.0539 175.762 51.0966 173.038 53.411C171.796 54.4625 169.818 55.5486 167.102 56.6691C165.124 57.4837 162.852 58.1948 160.288 58.8025C160.264 58.8119 160.237 58.8114 160.213 58.8011C160.19 58.7908 160.171 58.7715 160.162 58.7475C160.152 58.7235 160.153 58.6968 160.163 58.6731C160.173 58.6495 160.193 58.6309 160.217 58.6215C165.201 55.5443 170.102 52.8485 171.37 49.8166C171.409 49.7202 171.423 49.6148 171.408 49.5114C171.393 49.4081 171.351 49.3107 171.285 49.2294C171.22 49.1481 171.134 49.0859 171.036 49.0493C170.938 49.0127 170.832 49.0031 170.729 49.0215C168.079 49.5257 165.762 48.8146 163.779 46.8881C163.595 46.7044 163.353 46.5901 163.094 46.5649C161.671 46.4097 160.65 47.3342 159.757 48.3039C159.725 48.3386 159.683 48.3639 159.637 48.3768C159.591 48.3898 159.542 48.3899 159.496 48.3771C159.451 48.3644 159.41 48.3393 159.378 48.3047C159.347 48.27 159.326 48.2272 159.318 48.1811C159.124 47.1855 159.964 46.0542 160.262 45.1685C160.967 43.1192 162.13 41.9815 164.277 42.1754C169.342 42.6322 173.971 41.3458 178.165 38.316C186.861 32.0324 193.973 21.0231 198.951 11.1386C201.456 6.17378 202.954 3.0449 203.445 1.75197C203.46 1.71541 203.487 1.68472 203.521 1.66432C203.555 1.64392 203.595 1.63487 203.635 1.63847C203.674 1.64206 203.711 1.65812 203.741 1.68433C203.771 1.71053 203.792 1.74554 203.801 1.78429Z" fill="#154574"/>
<path d="M198.132 37.8251C198.152 37.8038 198.178 37.7906 198.206 37.7882C198.234 37.7858 198.261 37.7944 198.281 37.8122L198.287 37.8186C198.303 37.8308 198.313 37.8489 198.315 37.8693C198.318 37.8897 198.312 37.9109 198.3 37.9285C194.861 42.9925 190.298 46.0374 184.613 47.0631C181.665 47.5932 180.081 48.2784 177.966 49.7007C177.947 49.7166 177.922 49.7246 177.896 49.7232C177.871 49.7217 177.847 49.7107 177.829 49.6927C177.812 49.6747 177.803 49.6511 177.805 49.6272C177.806 49.6032 177.818 49.5808 177.837 49.5649C181.777 45.1388 185.43 40.4821 188.796 35.5948C188.857 35.5054 188.936 35.4303 189.029 35.3745C189.122 35.3187 189.225 35.2836 189.333 35.2716L189.889 35.2005C190.122 35.1709 190.34 35.0816 190.522 34.9419C194.382 32.0069 197.615 28.1799 200.744 24.3463C200.754 24.3346 200.768 24.3268 200.783 24.3242C200.798 24.3216 200.813 24.3244 200.827 24.3322C200.84 24.3399 200.85 24.3521 200.855 24.3665C200.86 24.3809 200.86 24.3967 200.854 24.411C197.777 31.8582 193.787 38.9694 187.083 43.0938C187.004 43.1422 186.94 43.2112 186.898 43.2933C186.856 43.3754 186.838 43.4675 186.844 43.5595C186.851 43.6515 186.883 43.7399 186.936 43.8151C186.99 43.8902 187.063 43.9493 187.147 43.9859C187.372 44.0807 187.654 44.0807 187.994 43.9859C191.912 42.8654 195.292 40.8118 198.132 37.8251Z" fill="#154574"/>
<path d="M57.85 42.7951C57.8525 44.2298 57.561 45.651 56.9921 46.9775C56.4232 48.304 55.588 49.5099 54.5343 50.5262C53.4806 51.5426 52.229 52.3495 50.8509 52.9009C49.4729 53.4524 47.9953 53.7376 46.5027 53.7402C45.01 53.7428 43.5315 53.4628 42.1515 52.9161C40.7715 52.3695 39.5171 51.5669 38.4598 50.5543C37.4026 49.5416 36.5632 48.3387 35.9897 47.0142C35.4162 45.6897 35.1197 44.2695 35.1172 42.8348C35.1147 41.4 35.4062 39.9788 35.9751 38.6523C36.544 37.3258 37.3791 36.12 38.4328 35.1036C39.4865 34.0873 40.7382 33.2803 42.1162 32.7289C43.4943 32.1774 44.9719 31.8923 46.4645 31.8897C47.9572 31.8871 49.4357 32.1671 50.8157 32.7137C52.1957 33.2603 53.4501 34.0629 54.5073 35.0756C55.5646 36.0882 56.4039 37.2912 56.9775 38.6157C57.551 39.9402 57.8475 41.3603 57.85 42.7951ZM52.225 42.7826C52.225 42.0287 52.0765 41.2822 51.7879 40.5858C51.4994 39.8893 51.0765 39.2564 50.5434 38.7234C50.0102 38.1903 49.3773 37.7675 48.6807 37.479C47.9841 37.1905 47.2376 37.042 46.4836 37.042C45.7296 37.042 44.983 37.1905 44.2865 37.479C43.5899 37.7675 42.957 38.1903 42.4238 38.7234C41.8907 39.2564 41.4678 39.8893 41.1792 40.5858C40.8907 41.2822 40.7422 42.0287 40.7422 42.7826C40.7422 44.3051 41.3471 45.7652 42.4238 46.8418C43.5005 47.9184 44.9609 48.5232 46.4836 48.5232C48.0063 48.5232 49.4666 47.9184 50.5434 46.8418C51.6201 45.7652 52.225 44.3051 52.225 42.7826Z" fill="#154574"/>
<path d="M109.237 45.7888H105.558C105.496 45.7888 105.437 45.7643 105.394 45.7206C105.35 45.677 105.325 45.6178 105.325 45.5561V41.9229C105.325 41.8389 105.358 41.7584 105.416 41.699C105.474 41.6395 105.553 41.6062 105.636 41.6062H115.47C115.569 41.6062 115.664 41.6453 115.735 41.7152C115.806 41.7852 115.848 41.8805 115.851 41.9811C115.924 45.0023 115.287 47.4955 113.937 49.4607C110.924 53.8502 105.06 54.6777 100.528 52.7189C95.2844 50.4498 93.4934 44.7027 94.9805 39.3371C97.418 30.5452 110.75 29.0001 114.674 37.5334C114.684 37.5542 114.689 37.5766 114.69 37.5994C114.69 37.6222 114.686 37.6448 114.678 37.666C114.669 37.6872 114.657 37.7064 114.641 37.7225C114.624 37.7386 114.605 37.7513 114.584 37.7597L109.845 39.6797C109.801 39.697 109.752 39.6965 109.709 39.6784C109.665 39.6603 109.631 39.626 109.612 39.5827C108.694 37.3632 107.077 36.3655 104.763 36.5896C97.9352 37.2425 98.4784 50.3916 106.334 49.228C108.106 48.9651 109.2 47.9803 109.618 46.2736C109.632 46.216 109.632 46.1559 109.62 46.098C109.607 46.0402 109.581 45.9859 109.545 45.9393C109.508 45.8927 109.461 45.855 109.408 45.8289C109.355 45.8029 109.296 45.7892 109.237 45.7888Z" fill="#154574"/>
<path d="M226.98 32.0713C226.993 32.0713 227.016 32.0799 227.051 32.0971C227.096 32.1185 227.131 32.1507 227.148 32.1877L235.456 52.7323C235.472 52.7715 235.478 52.814 235.473 52.8561C235.469 52.8982 235.454 52.9385 235.431 52.9736C235.407 53.0087 235.375 53.0375 235.338 53.0574C235.301 53.0773 235.259 53.0878 235.217 53.0879H234.092C233.986 53.088 233.883 53.0567 233.796 52.9979C233.708 52.9392 233.64 52.8557 233.6 52.7582L231.066 46.481C231.026 46.3832 230.958 46.2993 230.87 46.2396C230.783 46.1799 230.68 46.1469 230.574 46.1448C230.165 46.1405 228.924 46.1276 226.85 46.106C224.781 46.0888 223.542 46.0802 223.133 46.0802C223.027 46.0799 222.924 46.1104 222.836 46.1678C222.747 46.2252 222.677 46.307 222.635 46.4034L219.984 52.6353C219.942 52.7315 219.872 52.813 219.783 52.8694C219.694 52.9258 219.591 52.9546 219.486 52.9521L218.361 52.9327C218.319 52.9316 218.278 52.9204 218.242 52.9C218.205 52.8797 218.174 52.8508 218.152 52.8158C218.129 52.7809 218.115 52.7409 218.111 52.6994C218.107 52.6578 218.113 52.6159 218.128 52.5771L226.811 32.1877C226.828 32.1505 226.863 32.1183 226.908 32.0971C226.943 32.0799 226.967 32.0713 226.98 32.0713ZM223.346 44.199C223.333 44.2296 223.328 44.263 223.331 44.2961C223.335 44.3293 223.346 44.361 223.365 44.3886C223.383 44.4162 223.408 44.4387 223.438 44.4541C223.467 44.4696 223.5 44.4774 223.533 44.4769L230.07 44.5093C230.103 44.5093 230.135 44.5014 230.163 44.4863C230.192 44.4713 230.217 44.4494 230.235 44.4227C230.254 44.396 230.265 44.3652 230.269 44.333C230.273 44.3008 230.269 44.2681 230.258 44.2378L227.031 36.0988C227.016 36.0627 226.99 36.0319 226.957 36.0103C226.925 35.9887 226.886 35.9772 226.847 35.9772C226.808 35.9772 226.769 35.9887 226.737 36.0103C226.704 36.0319 226.678 36.0627 226.663 36.0988L223.346 44.199Z" fill="#154574"/>
<path d="M289.043 46.0993C286.974 46.0821 285.737 46.0735 285.332 46.0735C285.227 46.0732 285.123 46.1037 285.035 46.1611C284.947 46.2185 284.877 46.3003 284.834 46.3967L282.19 52.6157C282.148 52.7131 282.079 52.7959 281.99 52.8535C281.902 52.9111 281.798 52.9409 281.692 52.9389L280.567 52.9195C280.524 52.9188 280.483 52.9076 280.445 52.8869C280.408 52.8662 280.377 52.8366 280.354 52.8008C280.331 52.765 280.317 52.7241 280.313 52.6816C280.31 52.6392 280.317 52.5965 280.334 52.5575L289.004 32.2003C289.021 32.1632 289.056 32.131 289.101 32.1098C289.136 32.0926 289.16 32.084 289.172 32.084C289.185 32.084 289.209 32.0926 289.244 32.1098C289.289 32.1311 289.323 32.1633 289.341 32.2003L297.636 52.7191C297.65 52.758 297.655 52.7998 297.65 52.841C297.645 52.8822 297.63 52.9216 297.607 52.9558C297.583 52.9901 297.552 53.0181 297.515 53.0377C297.479 53.0573 297.438 53.0677 297.397 53.0682H296.272C296.166 53.0683 296.063 53.037 295.976 52.9783C295.888 52.9196 295.82 52.8361 295.78 52.7385L293.252 46.4743C293.212 46.3765 293.144 46.2926 293.057 46.2329C292.969 46.1732 292.867 46.1402 292.761 46.1381C292.356 46.1338 291.116 46.1209 289.043 46.0993ZM285.545 44.1987C285.533 44.2289 285.528 44.2617 285.53 44.2943C285.533 44.3269 285.544 44.3583 285.562 44.3857C285.58 44.4131 285.604 44.4358 285.633 44.4516C285.662 44.4675 285.694 44.4761 285.726 44.4767L292.25 44.522C292.283 44.522 292.315 44.5141 292.343 44.499C292.372 44.484 292.397 44.4621 292.415 44.4354C292.434 44.4087 292.445 44.3779 292.449 44.3457C292.453 44.3135 292.449 44.2808 292.438 44.2504L289.237 36.105C289.223 36.0669 289.197 36.0341 289.164 36.011C289.13 35.9878 289.09 35.9754 289.05 35.9754C289.009 35.9754 288.969 35.9878 288.936 36.011C288.902 36.0341 288.877 36.0669 288.862 36.105L285.545 44.1987Z" fill="#154574"/>
<path d="M247.869 49.5839C247.895 49.5839 247.921 49.5796 247.946 49.571C247.973 49.5622 247.996 49.549 248.015 49.5322C248.034 49.5154 248.048 49.4955 248.056 49.474L255.634 32.3556C255.651 32.3189 255.68 32.2888 255.716 32.2699C255.752 32.251 255.793 32.2443 255.834 32.2509C255.874 32.2575 255.911 32.2769 255.939 32.3063C255.967 32.3357 255.985 32.3734 255.99 32.4138L258.505 52.6481C258.51 52.6874 258.507 52.7273 258.497 52.7655C258.486 52.8036 258.468 52.8392 258.443 52.8701C258.418 52.901 258.387 52.9265 258.352 52.945C258.317 52.9635 258.279 52.9747 258.24 52.9778L257.03 53.0942C256.979 53.0995 256.926 53.0946 256.876 53.0796C256.826 53.0645 256.78 53.0398 256.74 53.0067C256.699 52.9737 256.666 52.9329 256.642 52.8869C256.617 52.8409 256.602 52.7905 256.597 52.7386L255.188 37.9152C255.186 37.8867 255.174 37.8601 255.155 37.8395C255.136 37.8188 255.11 37.8053 255.081 37.8009C255.053 37.7965 255.023 37.8015 254.997 37.8151C254.97 37.8288 254.949 37.8503 254.936 37.8764C252.828 42.6689 250.515 47.8772 247.998 53.5015C247.977 53.5403 247.929 53.5596 247.856 53.5596C247.783 53.5596 247.737 53.5381 247.72 53.495C245.237 47.8578 242.959 42.6365 240.886 37.8312C240.873 37.8052 240.852 37.7837 240.827 37.7698C240.801 37.7559 240.772 37.7503 240.743 37.754C240.715 37.7576 240.689 37.7702 240.669 37.79C240.65 37.8097 240.637 37.8355 240.634 37.8635L239.121 52.6805C239.11 52.7841 239.058 52.879 238.976 52.9444C238.895 53.0098 238.791 53.0404 238.688 53.0295L237.479 52.9067C237.439 52.9036 237.401 52.8924 237.366 52.8739C237.331 52.8553 237.3 52.8299 237.275 52.799C237.25 52.7681 237.232 52.7325 237.221 52.6943C237.211 52.6562 237.208 52.6163 237.214 52.577L239.871 32.3556C239.877 32.3157 239.895 32.2787 239.924 32.2502C239.953 32.2216 239.99 32.2031 240.03 32.1973C240.069 32.1915 240.11 32.1987 240.146 32.2179C240.181 32.2371 240.21 32.2673 240.227 32.3039L247.688 49.474C247.696 49.4955 247.71 49.5153 247.729 49.5321C247.748 49.5489 247.772 49.5622 247.798 49.571C247.819 49.5796 247.843 49.5839 247.869 49.5839Z" fill="#154574"/>
<path d="M203.736 34.0683V32.8012C203.736 32.7447 203.758 32.6904 203.798 32.6504C203.838 32.6104 203.893 32.5879 203.949 32.5879H216.925C216.964 32.5875 217.002 32.5976 217.035 32.6171C217.069 32.6366 217.096 32.6647 217.115 32.6986C217.133 32.7324 217.142 32.7706 217.141 32.8092C217.139 32.8478 217.128 32.8852 217.106 32.9176L205.365 50.9669C205.344 50.9992 205.332 51.0367 205.331 51.0753C205.329 51.1139 205.338 51.1521 205.357 51.1859C205.375 51.2198 205.403 51.2479 205.436 51.2674C205.47 51.2869 205.508 51.297 205.546 51.2966H215.846C215.874 51.2966 215.901 51.3021 215.927 51.3128C215.953 51.3235 215.977 51.3393 215.997 51.3591C216.016 51.3789 216.032 51.4024 216.043 51.4283C216.054 51.4542 216.059 51.4819 216.059 51.5099V52.7835C216.059 52.84 216.037 52.8943 215.997 52.9343C215.957 52.9743 215.902 52.9968 215.846 52.9968H202.333C202.294 52.9972 202.256 52.9871 202.223 52.9676C202.19 52.9481 202.162 52.92 202.144 52.8861C202.125 52.8523 202.116 52.8141 202.117 52.7755C202.119 52.7369 202.131 52.6994 202.152 52.6671L213.893 34.6113C213.914 34.579 213.926 34.5415 213.928 34.5029C213.929 34.4644 213.92 34.4261 213.901 34.3923C213.883 34.3585 213.855 34.3303 213.822 34.3108C213.789 34.2913 213.751 34.2812 213.712 34.2816H203.949C203.893 34.2816 203.838 34.2592 203.798 34.2192C203.758 34.1791 203.736 34.1249 203.736 34.0683Z" fill="#154574"/>
<path d="M1.36153 46.1902C5.01455 46.3453 9.13955 45.0459 10.7818 41.5162C11.2861 40.6155 11.4089 39.5337 11.1503 38.271C11.0729 37.898 10.8692 37.5631 10.5736 37.3229C10.2779 37.0826 9.90845 36.9517 9.52748 36.9522H7.71713C7.55955 36.9522 7.40355 36.9834 7.25829 37.0442C7.11303 37.1049 6.98143 37.1939 6.87121 37.3059C6.761 37.4179 6.67439 37.5507 6.61647 37.6964C6.55856 37.8422 6.5305 37.9979 6.53394 38.1546L6.61153 41.9493L1.29688 42.0011L1.30981 32.9829C1.3098 32.9314 1.32004 32.8804 1.33994 32.8329C1.35984 32.7855 1.38899 32.7424 1.4257 32.7063C1.46242 32.6702 1.50595 32.6418 1.55376 32.6227C1.60158 32.6035 1.65272 32.5941 1.7042 32.595C4.06627 32.6424 6.18696 32.6359 8.06627 32.5756C13.2258 32.4075 17.0469 34.1077 16.827 39.7772C16.5814 46.1643 12.062 46.2031 6.96713 46.3065C6.86537 46.3082 6.76835 46.3498 6.69699 46.4224C6.62564 46.4949 6.58565 46.5926 6.58567 46.6944V52.8229C6.58567 52.8743 6.56455 52.9236 6.52696 52.96C6.48938 52.9964 6.43839 53.0168 6.38524 53.0168H1.51024C1.45708 53.0168 1.4061 52.9957 1.36851 52.9581C1.33092 52.9205 1.30981 52.8696 1.30981 52.8164L1.36153 46.1902Z" fill="#154574"/>
<path d="M23.7858 45.6276V52.8551C23.7858 52.8979 23.7695 52.939 23.7404 52.9693C23.7113 52.9997 23.6718 53.0167 23.6307 53.0167H18.6134C18.5688 53.0167 18.5261 52.999 18.4945 52.9674C18.463 52.9359 18.4453 52.8932 18.4453 52.8486V33.0086C18.4453 32.9114 18.4837 32.8179 18.5525 32.7479C18.6213 32.678 18.715 32.637 18.8138 32.6336C23.8182 32.5388 26.9281 32.5798 28.1436 32.7565C34.6285 33.7132 35.5725 42.3565 29.4819 44.6062C29.4363 44.6227 29.3952 44.6497 29.3619 44.685C29.3286 44.7203 29.304 44.763 29.2902 44.8095C29.2763 44.856 29.2736 44.9052 29.2822 44.9529C29.2908 45.0007 29.3105 45.0458 29.3397 45.0846L35.3785 52.9197C35.3842 52.9283 35.3876 52.9382 35.3882 52.9484C35.3889 52.9587 35.3868 52.9689 35.3822 52.9781C35.3776 52.9873 35.3707 52.9951 35.3621 53.0008C35.3535 53.0064 35.3435 53.0097 35.3332 53.0102H28.9776C28.9241 53.0104 28.8717 52.9974 28.8253 52.9726C28.7789 52.9477 28.7401 52.9117 28.7126 52.868L24.0638 45.55C24.0475 45.5211 24.0219 45.4986 23.9912 45.4859C23.9605 45.4732 23.9265 45.4712 23.8945 45.4801C23.8625 45.489 23.8344 45.5084 23.8148 45.5351C23.7951 45.5619 23.7849 45.5944 23.7858 45.6276ZM23.7729 36.8809L23.747 41.5225C23.747 41.5757 23.7682 41.6267 23.8057 41.6642C23.8433 41.7018 23.8943 41.7229 23.9475 41.7229L25.1048 41.7294C25.8585 41.7335 26.5827 41.4921 27.1185 41.0582C27.6543 40.6243 27.9579 40.0333 27.9626 39.4151V39.0401C27.9649 38.7333 27.8935 38.429 27.7523 38.1446C27.6112 37.8603 27.4032 37.6014 27.1402 37.3828C26.8771 37.1643 26.5643 36.9903 26.2195 36.8709C25.8746 36.7515 25.5046 36.689 25.1307 36.687L23.9733 36.6805C23.9202 36.6805 23.8692 36.7016 23.8316 36.7392C23.794 36.7768 23.7729 36.8278 23.7729 36.8809Z" fill="#154574"/>
<path d="M59.9997 32.6016H71.3015C71.3615 32.6016 71.419 32.6254 71.4615 32.6678C71.5039 32.7103 71.5277 32.7678 71.5277 32.8278V36.8812C71.5277 36.9412 71.5039 36.9987 71.4615 37.0412C71.419 37.0836 71.3615 37.1074 71.3015 37.1074H65.3144C65.2544 37.1074 65.1968 37.1313 65.1544 37.1737C65.1119 37.2161 65.0881 37.2737 65.0881 37.3337V40.2816C65.0881 40.3416 65.1119 40.3991 65.1544 40.4416C65.1968 40.484 65.2544 40.5078 65.3144 40.5078H70.7002C70.7299 40.5078 70.7593 40.5137 70.7868 40.525C70.8142 40.5364 70.8392 40.5531 70.8602 40.5741C70.8812 40.5951 70.8979 40.62 70.9092 40.6475C70.9206 40.675 70.9265 40.7044 70.9265 40.7341V44.781C70.9265 44.841 70.9026 44.8985 70.8602 44.9409C70.8177 44.9834 70.7602 45.0072 70.7002 45.0072H65.3144C65.2544 45.0072 65.1968 45.0311 65.1544 45.0735C65.1119 45.1159 65.0881 45.1735 65.0881 45.2335V52.7907C65.0881 52.8204 65.0822 52.8498 65.0709 52.8772C65.0595 52.9047 65.0428 52.9296 65.0218 52.9506C65.0008 52.9717 64.9759 52.9883 64.9484 52.9997C64.9209 53.0111 64.8915 53.0169 64.8618 53.0169H59.9997C59.97 53.0169 59.9406 53.0111 59.9131 52.9997C59.8857 52.9883 59.8607 52.9717 59.8397 52.9506C59.8187 52.9296 59.802 52.9047 59.7907 52.8772C59.7793 52.8498 59.7734 52.8204 59.7734 52.7907V32.8278C59.7734 32.7678 59.7973 32.7103 59.8397 32.6678C59.8822 32.6254 59.9397 32.6016 59.9997 32.6016Z" fill="#154574"/>
<path d="M73.7314 32.6016H78.5741C78.6375 32.6016 78.6984 32.6268 78.7432 32.6716C78.7881 32.7165 78.8133 32.7773 78.8133 32.8408V48.2848C78.8133 48.3482 78.8385 48.4091 78.8834 48.4539C78.9282 48.4988 78.9891 48.524 79.0525 48.524H84.9491C85.0125 48.524 85.0734 48.5492 85.1182 48.594C85.1631 48.6389 85.1883 48.6997 85.1883 48.7632V52.7777C85.1883 52.8412 85.1631 52.902 85.1182 52.9469C85.0734 52.9917 85.0125 53.0169 84.9491 53.0169H73.7314C73.668 53.0169 73.6071 52.9917 73.5623 52.9469C73.5174 52.902 73.4922 52.8412 73.4922 52.7777V32.8408C73.4922 32.7773 73.5174 32.7165 73.5623 32.6716C73.6071 32.6268 73.668 32.6016 73.7314 32.6016Z" fill="#154574"/>
<path d="M92.2538 32.6016H87.4046C87.2761 32.6016 87.1719 32.7058 87.1719 32.8343V52.7842C87.1719 52.9127 87.2761 53.0169 87.4046 53.0169H92.2538C92.3823 53.0169 92.4865 52.9127 92.4865 52.7842V32.8343C92.4865 32.7058 92.3823 32.6016 92.2538 32.6016Z" fill="#154574"/>
<path d="M127.016 40.4751C129.068 40.4794 130.199 40.4794 130.41 40.4751C130.527 40.4734 130.639 40.4257 130.722 40.3422C130.804 40.2588 130.85 40.1463 130.85 40.0291V32.7757C130.85 32.7277 130.869 32.6817 130.903 32.6477C130.937 32.6138 130.983 32.5947 131.031 32.5947H135.964C136.017 32.5947 136.068 32.6165 136.106 32.6553C136.143 32.6941 136.165 32.7467 136.165 32.8016V52.8291C136.165 52.8788 136.145 52.9265 136.11 52.9616C136.075 52.9968 136.027 53.0165 135.977 53.0165H131.031C130.983 53.0165 130.937 52.9975 130.903 52.9635C130.869 52.9296 130.85 52.8835 130.85 52.8355V45.1426C130.851 45.0362 130.812 44.9332 130.742 44.8533C130.672 44.7734 130.574 44.7222 130.468 44.7095C130.193 44.675 129.042 44.6578 127.016 44.6578C124.99 44.6578 123.839 44.675 123.563 44.7095C123.458 44.7222 123.36 44.7734 123.29 44.8533C123.22 44.9332 123.181 45.0362 123.182 45.1426V52.8355C123.182 52.8835 123.163 52.9296 123.129 52.9635C123.095 52.9975 123.049 53.0165 123.001 53.0165H118.055C118.005 53.0165 117.957 52.9968 117.922 52.9616C117.887 52.9265 117.867 52.8788 117.867 52.8291V32.8016C117.867 32.7467 117.888 32.6941 117.926 32.6553C117.963 32.6165 118.014 32.5947 118.068 32.5947H123.001C123.049 32.5947 123.095 32.6138 123.129 32.6477C123.163 32.6817 123.182 32.7277 123.182 32.7757V40.0291C123.182 40.1463 123.228 40.2588 123.31 40.3422C123.392 40.4257 123.504 40.4734 123.621 40.4751C123.833 40.4751 124.964 40.4751 127.016 40.4751Z" fill="#154574"/>
<path d="M145.189 32.5882C147.767 32.5839 150.056 32.5904 152.056 32.6076C152.104 32.6076 152.15 32.6274 152.184 32.6625C152.218 32.6977 152.237 32.7454 152.237 32.7951V36.8743C152.237 36.9308 152.214 36.9851 152.174 37.0251C152.134 37.0651 152.08 37.0876 152.023 37.0876H148.092C148.029 37.0876 147.968 37.1128 147.923 37.1577C147.878 37.2025 147.853 37.2634 147.853 37.3268V52.5316C147.853 52.6501 147.808 52.764 147.726 52.8495C147.644 52.9351 147.532 52.9856 147.414 52.9906C147.151 53.0036 146.409 53.01 145.189 53.01C143.97 53.01 143.228 53.0036 142.965 52.9906C142.847 52.9856 142.735 52.9351 142.653 52.8495C142.571 52.764 142.525 52.6501 142.526 52.5316L142.532 37.3268C142.532 37.2634 142.507 37.2025 142.462 37.1577C142.417 37.1128 142.356 37.0876 142.293 37.0876H138.362C138.305 37.0876 138.251 37.0651 138.211 37.0251C138.171 36.9851 138.148 36.9308 138.148 36.8743V32.7951C138.148 32.7454 138.168 32.6977 138.201 32.6625C138.235 32.6274 138.281 32.6076 138.329 32.6076C140.329 32.5904 142.616 32.5839 145.189 32.5882Z" fill="#154574"/>
<path d="M269.523 42.318C272.708 43.6842 273.673 46.0998 272.419 49.5649C271.691 51.5775 270.068 52.6873 267.551 52.8942C265.943 53.0278 263.934 53.0601 261.525 52.9911C261.426 52.9878 261.332 52.9461 261.263 52.8749C261.195 52.8038 261.156 52.7087 261.156 52.6097V32.8602C261.156 32.7938 261.181 32.7299 261.225 32.6818C261.27 32.6337 261.331 32.605 261.395 32.6016C263.163 32.5111 265.029 32.5391 266.995 32.6857C269.878 32.9012 271.503 34.457 271.87 37.3532C272.124 39.3787 271.333 40.9022 269.497 41.9237C269.461 41.9441 269.432 41.9742 269.412 42.0105C269.393 42.0468 269.384 42.0878 269.386 42.1289C269.389 42.17 269.403 42.2096 269.427 42.243C269.451 42.2764 269.484 42.3024 269.523 42.318ZM263.044 34.3988L263.005 41.4711C263.005 41.514 263.022 41.5551 263.053 41.5854C263.083 41.6157 263.124 41.6328 263.167 41.6328L266.523 41.6521C266.978 41.6548 267.429 41.5733 267.851 41.4123C268.272 41.2513 268.656 41.014 268.979 40.7138C269.303 40.4136 269.56 40.0566 269.737 39.663C269.913 39.2693 270.005 38.8469 270.008 38.4198V37.5277C270.012 36.6655 269.652 35.8365 269.006 35.223C268.36 34.6096 267.48 34.262 266.561 34.2566L263.206 34.2372C263.163 34.2372 263.122 34.2542 263.092 34.2845C263.061 34.3148 263.044 34.3559 263.044 34.3988ZM263.038 43.4881L263.012 51.1552C263.012 51.2169 263.036 51.2761 263.08 51.3197C263.124 51.3634 263.183 51.3879 263.245 51.3879L267.201 51.4008C268.186 51.4042 269.131 51.0056 269.829 50.2927C270.528 49.5799 270.922 48.6111 270.926 47.5996V47.0954C270.927 46.5945 270.833 46.0981 270.648 45.6347C270.463 45.1713 270.191 44.7498 269.848 44.3944C269.504 44.0391 269.096 43.7567 268.647 43.5635C268.197 43.3702 267.715 43.27 267.227 43.2683L263.27 43.2554C263.209 43.2554 263.15 43.2799 263.106 43.3235C263.062 43.3672 263.038 43.4264 263.038 43.4881Z" fill="#154574"/>
<path d="M276.993 32.582H275.648C275.501 32.582 275.383 32.7007 275.383 32.8471V52.7194C275.383 52.8658 275.501 52.9845 275.648 52.9845H276.993C277.139 52.9845 277.258 52.8658 277.258 52.7194V32.8471C277.258 32.7007 277.139 32.582 276.993 32.582Z" fill="#154574"/>
<path d="M10.7818 41.5156C9.13955 45.0453 5.01455 46.3447 1.36153 46.1896L1.29688 42.0005L6.61153 41.9488C7.95636 42.0436 9.34644 41.8992 10.7818 41.5156Z" fill="#FFCB0C"/>
<path d="M157.509 60.7224C158.242 60.4724 159.033 60.3 159.882 60.2052C161.77 60.0048 163.89 59.2937 165.533 58.8606C166.214 58.6839 167.28 58.3089 168.733 57.7357C173.048 56.0291 176.14 54.9064 178.011 54.3677C183.869 52.6869 190.367 52.7709 196.121 55.04C196.165 55.0584 196.201 55.0929 196.221 55.1371C196.241 55.1812 196.245 55.2318 196.231 55.2792V55.2856C196.222 55.3139 196.203 55.338 196.177 55.3534C196.151 55.3688 196.119 55.3746 196.089 55.3697C190.162 54.094 184.267 54.372 178.405 56.2036C174.946 57.2832 170.724 59.2873 166.703 59.966C163.655 60.4832 160.597 60.7784 157.528 60.8517C157.52 60.853 157.511 60.8526 157.503 60.8505C157.494 60.8484 157.487 60.8447 157.48 60.8396C157.473 60.8345 157.467 60.8281 157.462 60.8207C157.458 60.8134 157.455 60.8052 157.454 60.7968C157.453 60.7883 157.453 60.7796 157.455 60.7713C157.457 60.7629 157.461 60.7551 157.466 60.7482C157.471 60.7413 157.477 60.7355 157.485 60.731C157.492 60.7266 157.5 60.7237 157.509 60.7224Z" fill="#FFCB0C"/>
</svg>
