<svg width="300" height="60" viewBox="0 0 300 60" fill="none" xmlns="http://www.w3.org/2000/svg">
<g clip-path="url(#clip0_268_59305)">
<path fill-rule="evenodd" clip-rule="evenodd" d="M70.2649 7.27832C76.0549 13.6718 77.1344 15.3439 82.9244 24.3931C86.5554 30.4914 89.5976 36.098 93.7193 41.9013C95.8782 44.8521 96.8596 46.8193 100.785 49.8685C89.205 49.9668 69.4798 49.5734 53.68 49.9668C31.1089 50.557 24.9263 37.6718 20.2158 30.9832C25.6133 33.8357 27.576 34.8193 36.0156 34.3275C43.8665 33.8357 46.2217 31.475 48.1844 30.1964C50.9322 34.8193 53.9744 37.5734 57.6054 37.9668C53.5819 40.3275 50.1471 41.2127 45.6329 41.3111C50.049 45.7373 60.0588 45.1472 65.4562 42.5898C69.4798 40.7209 72.522 37.18 76.84 35.6062C76.3493 34.6226 74.7791 34.1308 72.9145 34.4259L82.9244 24.5898C82.8262 24.3931 82.63 24.098 82.5318 24.098C76.7418 21.639 67.7134 26.0652 63.2973 31.7701C59.8625 29.9013 58.0961 27.7373 54.2688 25.9668C56.9185 24.1964 58.2924 23.2127 61.629 22.4259C61.2364 21.7373 58.9793 20.2619 56.4278 21.0488C60.0588 14.9505 64.3768 9.24553 70.2649 7.27832Z" fill="#A6CE42"/>
<path fill-rule="evenodd" clip-rule="evenodd" d="M70.1668 7.18052C60.157 2.55757 47.9882 12.0986 43.5721 17.5084C42.002 16.9182 40.8243 16.4264 39.4505 15.5412C35.7213 13.1805 33.7586 11.6068 32.1884 10.4264C28.6556 7.77069 20.9029 3.54118 13.6408 7.37725C20.1178 10.4264 22.5712 15.6395 27.1835 20.4592C27.1835 20.4592 30.2257 24.2953 35.6232 25.7707C30.2257 29.0166 27.7723 29.8035 19.8234 30.3936L7.06576 7.37725C4.90678 3.44282 2.7478 1.37725 0.0981445 0.196918C11.6781 0.196918 30.7164 0.39364 47.105 0.196918C56.9186 0.0985576 63.3955 1.57397 70.1668 7.18052Z" fill="#D32F24"/>
<path fill-rule="evenodd" clip-rule="evenodd" d="M128.557 43.3767C128.557 36.1964 117.762 37.5734 117.762 32.6554C117.762 30.5898 119.823 29.9013 122.179 29.9013C124.534 29.9013 126.202 30.4915 127.87 31.18V28.2292C126.3 27.639 124.436 27.0488 122.08 27.0488C116.781 27.0488 114.328 29.7046 114.328 32.8521C114.328 40.3275 124.926 38.4587 124.926 43.7701C124.926 45.8357 122.866 47.016 119.921 47.016C117.272 47.016 115.309 46.0324 114.23 45.4423L112.758 48.098C114.328 48.9833 116.29 49.7701 119.627 49.7701C124.73 49.7701 128.557 47.9013 128.557 43.3767Z" fill="#0165A4"/>
<path fill-rule="evenodd" clip-rule="evenodd" d="M173.209 27.7373H169.578L163.297 45.2455H163.199L154.956 27.7373H151.03L161.335 49.475C159.666 55.1799 157.017 57.3439 154.171 57.3439C152.699 57.3439 151.717 57.1471 150.834 56.6553L150.049 59.3111C151.129 59.8029 152.306 59.9996 154.171 59.9996C157.998 59.9996 161.531 58.7209 164.279 51.3439L173.209 27.7373Z" fill="#0165A4"/>
<path fill-rule="evenodd" clip-rule="evenodd" d="M192.247 47.6069L191.168 45.2463C189.696 46.0331 187.929 46.82 185.378 46.82C180.667 46.82 177.92 43.4758 177.92 38.5577C177.92 33.6397 180.962 30.0004 185.476 30.0004C187.929 30.0004 190.088 30.984 191.56 31.8692V28.4266C189.99 27.6397 187.733 26.9512 185.77 26.9512C178.018 26.9512 174.387 32.5577 174.387 38.6561C174.387 44.4594 177.821 49.7708 185.182 49.7708C187.929 49.7708 190.579 48.6889 192.247 47.6069Z" fill="#0165A4"/>
<path fill-rule="evenodd" clip-rule="evenodd" d="M215.113 49.377V35.1147C215.113 29.1147 211.678 27.1475 208.341 27.1475C205.103 27.1475 202.748 28.4262 200.294 30.1967V16.918H196.761V49.377H200.294V33.836C202.159 32.3606 204.416 30.3934 207.164 30.3934C210.795 30.3934 211.187 33.2458 211.187 35.9016V49.377H215.113Z" fill="#0165A4"/>
<path fill-rule="evenodd" clip-rule="evenodd" d="M300 43.3767C300 36.1964 289.205 37.5734 289.205 32.6554C289.205 30.5898 291.266 29.9013 293.621 29.9013C295.976 29.9013 297.645 30.4915 299.313 31.18V28.2292C297.743 27.639 295.878 27.0488 293.523 27.0488C288.224 27.0488 285.77 29.7046 285.77 32.8521C285.77 40.3275 296.369 38.4587 296.369 43.7701C296.369 45.8357 294.308 47.016 291.364 47.016C288.714 47.016 286.752 46.0324 285.672 45.4423L284.2 48.098C285.77 48.9833 287.733 49.7701 291.07 49.7701C296.075 49.7701 300 47.9013 300 43.3767Z" fill="#0165A4"/>
<path fill-rule="evenodd" clip-rule="evenodd" d="M237.782 33.9343C237.782 33.7376 237.586 33.1475 237.389 32.6557C235.917 29.1147 233.072 27.1475 229.146 27.1475C223.847 27.1475 219.725 31.7704 219.725 38.0655C219.725 44.2622 223.062 49.8688 230.52 49.8688C233.366 49.8688 236.016 48.8852 237.684 47.7048L236.604 45.3442C235.329 46.2294 233.268 46.8196 231.011 46.8196C227.772 46.8196 226.006 45.5409 224.436 43.2786L237.782 33.9343ZM233.857 33.0491L223.749 40.1311C223.552 38.9507 223.356 36.1966 224.141 34.0327C224.828 31.5737 226.987 29.9999 229.342 29.9999C231.207 30.0983 233.072 31.2786 233.857 33.0491Z" fill="#0165A4"/>
<path fill-rule="evenodd" clip-rule="evenodd" d="M280.864 33.9343C280.864 33.7376 280.667 33.1475 280.471 32.6557C278.999 29.1147 276.153 27.1475 272.228 27.1475C266.928 27.1475 262.807 31.7704 262.807 38.0655C262.807 44.2622 266.143 49.8688 273.602 49.8688C276.447 49.8688 279.097 48.8852 280.765 47.7048L279.686 45.3442C278.41 46.2294 276.349 46.8196 274.092 46.8196C270.854 46.8196 269.087 45.5409 267.517 43.2786L280.864 33.9343ZM276.938 33.0491L266.83 40.0327C266.634 38.8524 266.438 36.0983 267.223 33.9343C267.91 31.4753 270.069 29.9016 272.424 29.9016C274.387 30.0983 276.153 31.2786 276.938 33.0491Z" fill="#0165A4"/>
<path fill-rule="evenodd" clip-rule="evenodd" d="M250.147 49.0819L249.657 46.7212C249.068 46.8196 248.675 46.8196 248.479 46.8196C247.105 46.8196 246.614 46.4262 246.614 44.3606V16.918H243.082V45.7376C243.082 47.9999 244.259 49.6721 247.203 49.6721C248.185 49.7704 249.068 49.4753 250.147 49.0819Z" fill="#0165A4"/>
<path fill-rule="evenodd" clip-rule="evenodd" d="M261.04 49.0819L260.549 46.7212C259.961 46.8196 259.568 46.8196 259.372 46.8196C257.9 46.8196 257.507 46.4262 257.507 44.3606V16.918H253.974V45.7376C253.974 47.9999 255.152 49.6721 258.096 49.6721C259.176 49.7704 259.961 49.4753 261.04 49.0819Z" fill="#0165A4"/>
<path fill-rule="evenodd" clip-rule="evenodd" d="M149.853 33.9343C149.853 33.7376 149.657 33.1475 149.46 32.6557C147.988 29.1147 145.142 27.1475 141.217 27.1475C135.918 27.1475 131.796 31.7704 131.796 38.0655C131.796 44.2622 135.133 49.8688 142.591 49.8688C145.437 49.8688 148.086 48.8852 149.755 47.7048L148.675 45.3442C147.399 46.2294 145.339 46.8196 143.081 46.8196C139.843 46.8196 138.077 45.5409 136.506 43.2786L149.853 33.9343ZM145.927 33.0491L135.819 40.0327C135.623 38.8524 135.427 36.0983 136.212 33.9343C136.899 31.4753 139.058 29.9016 141.413 29.9016C143.376 30.0983 145.142 31.2786 145.927 33.0491Z" fill="#0165A4"/>
<path d="M127.871 0.393555H124.24V22.1313H127.871V0.393555Z" fill="#009FC3"/>
<path fill-rule="evenodd" clip-rule="evenodd" d="M145.535 0.590164C145.044 0.393443 144.259 0 143.081 0C141.609 0 140.137 0.0983608 136.997 2.85246L136.506 0.491803H133.464V22.2295H137.291V5.80328C139.156 4.03279 140.235 3.54098 141.806 3.54098C142.591 3.54098 143.572 3.63934 144.063 3.93443L145.535 0.590164Z" fill="#009FC3"/>
<path fill-rule="evenodd" clip-rule="evenodd" d="M115.211 17.0164C114.132 18.0984 112.463 19.5738 109.421 19.5738C106.477 19.5738 104.809 17.9016 104.809 15.8361C104.809 13.377 106.575 12 110.893 11.8033L115.309 11.7049V17.0164H115.211ZM119.235 22.1311C119.038 21.4426 118.744 19.9672 118.744 13.7705V7.27869C118.744 1.67213 115.211 0 110.697 0C107.851 0 105.398 0.688525 102.748 2.45902L104.22 4.81967C105.79 3.7377 107.753 2.7541 110.402 2.7541C113.347 2.7541 115.309 4.62295 115.309 7.27869V8.85246H110.402C104.318 9.04918 101.276 11.7049 101.276 16.0328C101.276 20.1639 104.612 22.7213 108.44 22.7213C111.875 22.7213 114.132 21.4426 115.604 20.2623L116.585 22.4262H119.431C119.235 22.2295 119.235 22.1311 119.235 22.1311Z" fill="#009FC3"/>
<path fill-rule="evenodd" clip-rule="evenodd" d="M52.9931 35.5082C51.2267 33.9344 49.9509 31.9672 48.3807 30C47.3994 30.5902 44.4553 32.1639 41.4131 33.0492C35.1325 35.1148 27.9686 34.7213 21.786 31.5738C21.6879 31.5738 21.3935 31.4754 21.2954 31.377C21.1972 31.2787 20.7065 30.9836 20.7065 30.9836L21.1972 31.1803L21.3935 31.2787L21.5898 31.377C24.5338 33.1475 30.4219 36.2951 36.3101 36.9836C37.0952 37.082 37.9784 37.082 38.7635 37.082C42.9833 37.2787 47.8901 36.3934 52.9931 35.5082Z" fill="#A6CE42"/>
<path fill-rule="evenodd" clip-rule="evenodd" d="M40.2354 16.2293C40.628 16.426 41.9037 17.0162 42.2963 17.3113C42.2963 17.3113 42.7869 17.508 43.3758 17.8031C43.3758 17.8031 43.8664 17.3113 43.8664 17.2129C43.9646 17.1145 44.259 16.7211 44.3571 16.7211C44.4552 16.6227 45.1422 15.8358 45.1422 15.7375C45.2403 15.6391 45.5347 15.344 45.6329 15.2457C45.731 15.1473 46.2217 14.6555 46.3198 14.6555C46.418 14.5572 46.5161 14.4588 46.8105 14.2621C52.8949 9.54076 61.4327 4.13092 70.363 7.27846C69.5779 6.58994 69.0872 6.1965 68.4984 5.70469C66.9283 5.31125 65.26 5.21289 62.9047 5.21289C58.1942 5.21289 51.521 6.39322 42.6888 9.9342C41.1186 10.5244 39.7447 11.1145 38.3708 11.6063C38.9597 12.885 39.4503 14.2621 39.6466 15.7375C39.7447 15.8358 40.2354 16.2293 40.2354 16.2293Z" fill="#E24E27"/>
<path fill-rule="evenodd" clip-rule="evenodd" d="M0.0981445 0.196289C0.0981445 0.39301 0.19628 0.39301 0.0981445 0.196289C2.94407 1.47498 4.90678 4.13072 6.57508 6.58973C9.02847 10.4258 11.1874 14.5569 13.3464 18.4914C13.4446 18.6881 13.5427 18.9832 13.739 19.1799C17.5662 23.311 22.0805 26.4586 27.3798 26.6553C28.0667 25.8684 28.8518 24.8848 29.5388 23.9996C19.1364 20.852 12.5613 11.9996 8.8322 6.78645C7.16389 4.52416 5.29932 2.95039 3.53288 1.77006C3.04221 1.57334 2.7478 1.27826 2.35526 1.08154C2.15899 0.983174 1.86458 0.786453 1.66831 0.688092C1.47204 0.589732 1.17763 0.491371 0.785092 0.39301C0.686957 0.39301 0.588822 0.29465 0.392551 0.29465C0.392551 0.39301 0.19628 0.39301 0.0981445 0.196289Z" fill="#E24E27"/>
<path fill-rule="evenodd" clip-rule="evenodd" d="M49.7547 0.196289H43.7684H26.3984C29.8332 1.77006 33.1698 4.03235 35.8194 7.1799C39.7449 4.32744 42.9833 0.884814 49.7547 0.196289Z" fill="#E24E27"/>
<path fill-rule="evenodd" clip-rule="evenodd" d="M64.573 3.3441C63.7879 2.8523 62.8066 2.45886 61.9233 2.16377C59.7644 1.37689 57.4091 0.885086 55.0539 0.491643C53.2874 0.393283 51.6191 0.294922 49.8527 0.294922H49.7545H49.6564C42.7869 0.983446 39.4503 4.42607 35.623 7.27853C36.4081 8.3605 37.2913 9.63918 37.8802 10.9179C37.9783 11.1146 38.0764 11.3113 38.0764 11.508C39.3522 11.0162 40.8242 10.5244 42.3944 9.83591C51.3247 6.29492 57.8017 5.11459 62.6103 5.11459C64.9655 5.11459 66.8301 5.31132 68.4003 5.70476C67.2227 4.91787 65.9469 4.03263 64.573 3.3441Z" fill="#D63823"/>
<path fill-rule="evenodd" clip-rule="evenodd" d="M21.2954 32.1641C22.1786 33.3444 23.0618 34.8198 24.2395 36.4919C32.3847 47.6067 40.2355 49.869 50.6379 49.869H100.981C97.6448 48.787 94.1119 45.8362 88.42 41.9018C86.6536 40.6231 84.5928 39.246 82.3356 37.9673C79.5879 39.1477 76.5457 40.6231 73.5035 42.2952C69.6762 44.4591 64.2787 45.5411 58.1943 45.5411C45.2405 45.3444 29.7351 40.7214 21.2954 32.1641Z" fill="#A6CE42"/>
<path fill-rule="evenodd" clip-rule="evenodd" d="M82.1394 37.8692C84.3965 39.1479 86.4574 40.6233 88.2238 41.8036C93.9157 45.738 97.4485 48.5905 100.785 49.7708C97.5467 47.6069 94.1119 42.7872 89.5977 35.4102C87.5369 35.8036 85.0835 36.6888 82.1394 37.8692Z" fill="#DAE24C"/>
<path fill-rule="evenodd" clip-rule="evenodd" d="M82.8263 24C80.471 20.0655 78.1158 16.2295 75.368 12.6885C74.5829 13.0819 73.7978 13.4754 73.209 14.1639C71.4426 15.7377 70.2649 17.7049 69.1855 19.7704C68.7929 20.3606 68.4985 21.0491 68.2041 21.6393C68.891 21.6393 69.6761 21.6393 70.3631 21.6393C74.5829 21.6393 78.9009 22.3278 82.8263 24Z" fill="#DAE24C"/>
<path fill-rule="evenodd" clip-rule="evenodd" d="M37.8802 10.9177C37.2914 9.63898 36.4082 8.26193 35.6231 7.27832C34.3474 8.26193 32.8753 9.14717 31.1089 9.93406C32.5809 10.7209 33.8567 11.6062 35.0343 12.5898C35.6231 12.4914 36.3101 12.1964 36.8989 11.9996C37.2914 11.9013 37.5858 11.8029 37.9784 11.6062C38.1746 11.4095 37.9784 11.2127 37.8802 10.9177Z" fill="#C71B21"/>
<path fill-rule="evenodd" clip-rule="evenodd" d="M35.7212 25.6723C35.5249 25.6723 35.3286 25.5739 35.1324 25.5739C35.0342 25.5739 34.7398 25.4756 34.6417 25.4756L34.4454 25.5739C32.3846 26.1641 30.4219 26.6559 28.361 26.7543C28.1648 26.7543 27.8704 26.7543 27.6741 26.7543C27.576 26.7543 27.4778 26.7543 27.1834 26.7543C26.6927 27.3444 26.2021 27.8362 25.6132 28.328C24.8282 29.0166 24.0431 29.8035 22.9636 30.0985C22.3748 30.1969 21.786 30.2953 21.1971 30.2953C20.7065 30.2953 20.4121 30.2953 19.9214 30.1969C19.9214 30.1969 19.9214 30.2953 20.0195 30.2953C27.1834 30.9838 32.0902 28.8198 35.7212 25.6723Z" fill="#E24E27"/>
<path fill-rule="evenodd" clip-rule="evenodd" d="M37.3897 14.2622C37.9785 14.754 38.6655 15.2458 39.5487 15.7376C39.1561 14.2622 38.6655 12.8851 38.2729 11.6064C37.8804 11.7048 37.586 11.8032 37.1934 11.9999C36.5065 12.1966 35.9177 12.3933 35.3289 12.5901C35.8195 13.0819 36.7028 13.672 37.3897 14.2622Z" fill="#D32F24"/>
<path fill-rule="evenodd" clip-rule="evenodd" d="M23.16 30.0987C24.7302 29.5085 26.3985 27.738 27.3798 26.6561C22.1787 26.5577 19.1365 24.4921 13.739 19.1807C16.5849 24.2954 19.4309 29.4102 19.9215 30.1971C20.6085 30.3938 22.3749 30.3938 23.16 30.0987Z" fill="#F36E21"/>
<path fill-rule="evenodd" clip-rule="evenodd" d="M85.3778 28.328C84.6908 27.1477 83.9057 25.9673 83.2188 24.787L83.0225 24.3936C78.1157 26.2624 75.7605 30.3936 73.0127 34.2296C74.1903 34.1313 75.8586 34.328 76.84 35.3116H76.9381C77.9195 35.705 79.0971 36.0001 80.1766 36.5903C80.8635 36.9837 81.5505 37.2788 82.3356 37.7706C85.0834 36.5903 87.6349 35.705 89.7939 35.4099C88.3218 33.3444 86.9479 30.9837 85.3778 28.328Z" fill="#C1D83A"/>
<path fill-rule="evenodd" clip-rule="evenodd" d="M57.6054 37.8684C55.839 37.4749 54.2688 36.688 52.9931 35.5077C47.89 36.4913 42.9832 37.2782 38.9597 37.2782C38.1746 37.2782 37.2914 37.2782 36.5063 37.1798C30.4219 36.5897 24.7301 33.5405 21.786 31.5733C21.2953 31.3766 20.8046 31.0815 20.314 30.8848C20.314 30.9831 20.4121 31.0815 20.5102 31.2782C27.2816 36.9831 37.6839 40.1307 46.5161 40.1307C50.8341 40.0323 54.7595 39.2454 57.6054 37.8684Z" fill="#7BBD42"/>
<path fill-rule="evenodd" clip-rule="evenodd" d="M76.9382 35.5085C76.84 35.3118 76.84 35.3118 76.9382 35.5085C73.896 36.0987 72.3258 37.5741 70.1668 38.9512C67.7134 40.7216 64.0824 42.7872 59.9607 43.6725C55.3484 44.7544 50.2453 43.8692 45.9274 41.2135C51.4229 41.8036 54.9558 40.1315 57.8017 37.8692H57.7036C54.8577 39.3446 50.9323 40.0331 46.8106 40.0331C37.9784 40.0331 27.576 36.9839 20.8047 31.1807C21.001 31.5741 21.1972 31.7708 21.3935 32.1643C29.9313 40.7216 45.3385 45.3446 58.1943 45.3446C64.2787 45.3446 69.6761 44.2626 73.5034 42.0987C76.4475 40.4266 79.4897 38.8528 82.3356 37.7708C81.6487 37.3774 80.8636 36.9839 80.1766 36.5905C79.0971 36.1971 77.9195 35.8036 76.9382 35.5085Z" fill="#8DC642"/>
<path fill-rule="evenodd" clip-rule="evenodd" d="M82.8263 23.9996C78.999 22.4258 74.5829 21.7373 70.265 21.7373C69.578 21.7373 68.793 21.7373 68.106 21.7373C67.3209 23.4094 66.5358 25.1799 65.8489 26.8521C65.3582 28.0324 64.7694 29.2127 64.1806 30.2947C64.0825 30.393 63.7881 31.0816 63.5918 31.475C63.5918 31.475 63.5918 31.5734 63.4936 31.5734L63.3955 31.6717C64.1806 30.6881 65.0638 29.9012 65.8489 29.1144C70.1669 25.9668 76.3494 22.0324 82.8263 23.9996Z" fill="#C1D83A"/>
<path fill-rule="evenodd" clip-rule="evenodd" d="M63.4935 31.5736C63.6898 31.1802 64.0823 30.4917 64.0823 30.3933C64.6712 29.213 65.1618 28.131 65.7506 26.9507C66.4376 25.2786 67.3208 23.5081 68.0078 21.8359C67.8115 21.8359 66.2413 21.9343 65.7506 22.0327C65.26 22.0327 64.7693 22.131 64.2786 22.2294C63.2973 22.3277 61.5308 22.6228 61.5308 22.6228C61.3346 22.6228 61.1383 22.7212 61.0401 22.7212H60.942C59.9607 22.9179 59.2737 23.213 58.5868 23.6064C58.4886 23.7048 57.8998 23.9999 57.8017 23.9999C57.2129 24.1966 56.7222 24.59 56.2315 24.9835C56.2315 24.9835 54.7595 26.0654 54.6613 26.0654C54.5632 26.1638 54.4651 26.1638 54.2688 26.2622C55.9371 27.2458 57.6054 28.4261 58.8812 29.6064C59.9607 30.59 62.2178 31.672 63.2973 32.0654C63.3954 31.7704 63.4935 31.672 63.4935 31.5736Z" fill="#A6CE42"/>
<path fill-rule="evenodd" clip-rule="evenodd" d="M70.2651 7.27832C63.3956 9.73734 60.1571 15.5406 56.3298 20.9505C57.9981 20.8521 60.1571 21.0488 61.531 22.5242C61.531 22.5242 63.2974 22.3275 64.2788 22.1308C64.2788 22.1308 64.7695 22.0324 64.9657 22.0324C65.162 22.0324 67.0266 21.8357 67.2229 21.8357C67.321 21.8357 67.8117 21.8357 67.9098 21.8357C68.3024 21.1472 68.4986 20.557 68.8912 19.9668C69.9707 17.9013 71.2464 15.9341 72.9147 14.3603C73.5035 13.7701 74.4849 13.18 75.1718 12.7865C74.0923 11.016 71.3446 8.36029 70.2651 7.27832Z" fill="#C1D83A"/>
<path fill-rule="evenodd" clip-rule="evenodd" d="M29.8332 23.6061C29.9313 23.5078 29.9313 23.4094 30.0294 23.2127C24.2395 18.7865 21.7861 10.2291 13.6408 7.37662C19.8234 5.11432 26.0059 6.88481 31.1089 9.83563C32.7772 9.14711 34.1511 8.26186 35.525 7.1799C32.9735 3.93399 29.735 1.6717 26.104 0.196289H19.1364H0.981354H0L0.588813 0.39301C0.686948 0.39301 0.981354 0.491371 1.07949 0.589732C1.47203 0.688092 1.76644 0.983174 2.15898 1.08154C2.25711 1.1799 2.55152 1.27826 2.64966 1.27826C2.74779 1.37662 2.84593 1.37662 3.14033 1.47498C3.23847 1.57334 3.3366 1.57334 3.3366 1.57334C3.3366 1.57334 3.3366 1.57334 3.23847 1.57334C5.00491 2.85203 6.86948 4.52416 8.43965 6.78645C12.2669 12.0979 18.842 20.9504 29.1462 23.9996C29.5388 23.9012 29.735 23.8028 29.8332 23.6061Z" fill="#D32F24"/>
<path fill-rule="evenodd" clip-rule="evenodd" d="M29.9314 23.3113C29.8332 23.508 29.5388 23.8031 29.4407 23.9998C30.5202 24.3932 31.6978 24.5899 32.7773 24.885H32.8754C31.7959 24.3932 30.8146 23.8031 30.0295 23.2129L29.9314 23.3113Z" fill="#C71B21"/>
<path fill-rule="evenodd" clip-rule="evenodd" d="M32.8754 24.8855H32.7773C31.796 24.7872 30.7165 24.4921 29.8332 24.197C29.7351 24.197 29.637 24.0986 29.3426 24.0986C28.6556 25.0822 28.0668 25.8691 27.1836 26.7544C27.2817 26.7544 27.3799 26.7544 27.6743 26.7544C27.8705 26.7544 28.1649 26.7544 28.3612 26.7544C30.5202 26.656 32.4829 26.2626 34.4456 25.574L34.6419 25.4757C34.0531 25.3773 32.8754 24.8855 32.8754 24.8855Z" fill="#D63823"/>
<path fill-rule="evenodd" clip-rule="evenodd" d="M83.0226 24.3934L82.8263 23.9999C76.4475 21.9343 70.265 25.7704 65.8489 29.213C65.0638 29.9016 64.1806 30.7868 63.3955 31.672C62.316 31.1802 60.1571 30.0983 58.9794 29.213C57.5074 28.0327 56.0354 26.9507 54.3671 25.8688C55.5447 25.0819 56.4279 24.4917 57.5074 23.9016C58.685 23.213 59.9608 22.7212 61.7272 22.3278C60.2552 20.9507 58.1944 20.6557 56.6242 20.754L57.0167 20.0655C59.372 16.7212 61.3347 13.672 64.0825 11.1147C65.8489 9.5409 67.8116 8.06549 70.4613 7.18024L70.3631 7.08188C61.4328 4.0327 52.9932 9.34418 47.0069 14.0655C45.8293 15.0491 44.7498 16.2294 43.5722 17.4098C42.1001 16.7212 39.1561 15.2458 37.5859 14.0655C31.4034 9.14746 22.6693 4.0327 13.6409 7.37697C23.4544 10.8196 25.0246 22.9179 34.6419 25.4753C34.74 25.4753 35.0344 25.5737 35.1325 25.5737C35.2307 25.5737 35.5251 25.672 35.6232 25.672C31.9922 28.7212 27.0854 30.8852 19.9215 30.295L20.1178 30.7868C26.6929 34.6229 34.3474 35.213 41.1188 33.0491C44.161 32.0655 45.3386 31.4753 48.1845 29.9999C50.8342 33.4425 52.895 36.9835 57.5074 37.7704C54.6615 40.0327 51.1286 41.7048 45.633 41.1147C49.951 43.8688 54.6615 44.6557 59.7645 43.5737C64.0825 42.5901 67.6154 40.6229 70.0687 38.8524C72.2277 37.2786 73.6998 36.0983 76.8401 35.4098C75.7606 34.3278 74.0923 34.1311 72.9147 34.2294L73.896 32.8524C76.8401 28.9179 78.5084 26.2622 83.0226 24.3934Z" fill="white"/>
</g>
<defs>
<clipPath id="clip0_268_59305">
<rect width="300" height="60" fill="white"/>
</clipPath>
</defs>
</svg>
