<svg width="300" height="57" viewBox="0 0 300 57" fill="none" xmlns="http://www.w3.org/2000/svg">
<path fill-rule="evenodd" clip-rule="evenodd" d="M93.531 34.469C93.5047 34.2083 93.4933 33.9462 93.4969 33.6842C93.4969 32.5536 93.7723 31.5781 94.3322 30.7635C94.862 29.9785 95.5873 29.3484 96.4352 28.9366C97.2841 28.5264 98.1024 28.3242 98.9035 28.3242C99.5522 28.3242 100.2 28.438 100.847 28.6574C101.489 28.8772 102.087 29.2098 102.615 29.6398C103.145 30.073 103.582 30.6256 103.912 31.292C104.241 31.9642 104.424 32.7202 104.458 33.5705H101.807C101.761 32.6306 101.465 31.9469 100.912 31.5126C100.364 31.0783 99.6921 30.8577 98.9035 30.8577C98.2093 30.8577 97.5607 31.0898 96.9644 31.5482C96.3635 32.0055 96.046 32.6788 96.005 33.5705C96.0107 33.5934 96.046 33.7371 96.1052 34.0105L96.2224 34.5333C96.3999 35.1825 97.0076 35.7237 98.0432 36.1522C99.0799 36.5854 100.122 37.0025 101.172 37.4012C102.22 37.7999 103.108 38.3824 103.834 39.1557C104.558 39.9289 104.925 41.0285 104.925 42.4567C104.925 42.7003 104.901 43.0634 104.847 43.5333C104.699 44.734 104.312 45.7221 103.669 46.5011C103.028 47.2801 102.266 47.8454 101.401 48.1901C100.53 48.5348 99.6751 48.7072 98.8329 48.7072C97.6665 48.7072 96.6173 48.4395 95.6978 47.8994C94.7951 47.3754 94.0535 46.6095 93.5549 45.6865C93.0428 44.7455 92.7891 43.7102 92.7891 42.575L95.4099 42.4981C95.4451 43.616 95.8173 44.526 96.5353 45.2223C97.2546 45.9232 98.0671 46.2863 98.9854 46.3219C99.8706 46.2559 100.704 45.8748 101.337 45.2464C101.985 44.6099 102.308 43.8366 102.308 42.9324C102.308 42.1281 102.049 41.4042 101.525 40.7493C101.007 40.0944 100.205 39.6313 99.1209 39.3579C97.6483 38.9592 96.3874 38.3927 95.3393 37.6746C94.2969 36.9554 93.6904 35.8845 93.531 34.469ZM108.163 48.2797V21.8704H110.815V31.5414C111.237 30.8529 111.777 30.2463 112.41 29.7501C113.02 29.2696 113.711 28.9052 114.45 28.6746C115.195 28.4407 115.972 28.3221 116.753 28.3231C118.172 28.3231 119.546 28.6804 120.87 29.3882C122.19 30.1017 123.262 31.1243 124.082 32.4514C124.901 33.7784 125.312 35.2939 125.312 37.0013V48.2774H122.697V37.0013C122.697 35.7041 122.414 34.5988 121.855 33.6831C121.326 32.796 120.558 32.0797 119.64 31.6183C118.72 31.1595 117.707 30.9234 116.681 30.9289C115.651 30.9289 114.691 31.1484 113.795 31.5885C112.905 32.0285 112.156 32.713 111.633 33.5636C111.087 34.4379 110.814 35.4904 110.814 36.7152V48.2774L108.163 48.2797ZM129.684 48.2797V28.6861H132.128V31.6057C133.2 29.3767 135.085 28.2576 137.777 28.2576V30.9278C137.126 30.9363 136.482 31.0697 135.88 31.3207C135.218 31.5832 134.607 31.9596 134.072 32.433C133.524 32.9213 133.082 33.4797 132.752 34.1289C132.427 34.775 132.259 35.4905 132.264 36.2154V48.2774L129.684 48.2797ZM139.58 38.3939C139.621 36.829 139.921 35.4261 140.493 34.1771C141.031 32.9644 141.811 31.877 142.785 30.9829C143.717 30.1193 144.799 29.4375 145.978 28.9722C147.128 28.5188 148.349 28.2775 149.583 28.2599C151.233 28.2599 152.835 28.662 154.378 29.472C155.927 30.2809 157.194 31.5011 158.184 33.1247C159.167 34.747 159.661 36.6819 159.661 38.9293V39.4234H142.195C142.309 40.8688 142.749 42.1051 143.515 43.1231C144.281 44.1457 145.206 44.9063 146.295 45.4119C147.391 45.9174 148.457 46.1737 149.512 46.1737C150.448 46.1737 151.397 45.9829 152.353 45.6084C153.282 45.2449 154.139 44.7173 154.885 44.0503C155.621 43.3908 156.14 42.6589 156.446 41.8558H159.126C158.584 43.3541 157.795 44.6225 156.757 45.6624C155.766 46.666 154.578 47.4498 153.27 47.9638C152.028 48.4503 150.709 48.7023 149.377 48.7072C147.679 48.6426 146.022 48.1657 144.545 47.3169C143.05 46.4598 141.848 45.2579 140.941 43.7183C140.033 42.1706 139.58 40.3989 139.58 38.3939ZM157.116 37.0726C156.894 35.9393 156.424 34.8707 155.739 33.945C155.044 32.9871 154.141 32.202 153.099 31.6494C152.039 31.0786 150.855 30.7843 149.653 30.7934C147.992 30.7934 146.614 31.1909 145.518 31.9826C144.416 32.7731 143.61 33.6601 143.091 34.6413C142.573 35.6168 142.278 36.4314 142.195 37.0737L157.116 37.0726ZM162.549 38.3939C162.59 36.829 162.891 35.4261 163.462 34.1771C164 32.9642 164.78 31.8767 165.754 30.9829C166.686 30.1194 167.768 29.4376 168.946 28.9722C170.096 28.5188 171.317 28.2776 172.551 28.2599C174.201 28.2599 175.805 28.662 177.345 29.472C178.897 30.2809 180.162 31.5011 181.153 33.1247C182.136 34.747 182.63 36.6819 182.63 38.9293V39.4234H165.163C165.277 40.8688 165.719 42.1051 166.483 43.1231C167.249 44.1457 168.173 44.9063 169.265 45.4119C170.36 45.9174 171.426 46.1737 172.482 46.1737C173.417 46.1737 174.366 45.9829 175.32 45.6084C176.249 45.2458 177.107 44.7181 177.853 44.0503C178.59 43.3908 179.107 42.6589 179.414 41.8558H182.095C181.554 43.3541 180.763 44.6225 179.726 45.6624C178.735 46.666 177.547 47.4498 176.239 47.9638C174.997 48.4503 173.677 48.7022 172.345 48.7072C170.648 48.6424 168.991 48.1655 167.515 47.3169C166.019 46.4598 164.817 45.2579 163.91 43.7183C163.002 42.1706 162.549 40.3989 162.549 38.3939ZM180.086 37.0726C179.864 35.9393 179.393 34.8707 178.709 33.945C178.012 32.9877 177.11 32.2028 176.069 31.6494C175.009 31.0787 173.824 30.7845 172.623 30.7934C170.961 30.7934 169.583 31.1909 168.486 31.9826C167.386 32.7731 166.579 33.6601 166.06 34.6413C165.541 35.6168 165.246 36.4314 165.163 37.0737H180.086" fill="#A40C14"/>
<path fill-rule="evenodd" clip-rule="evenodd" d="M188.281 38.6432C188.298 37.0852 188.6 35.6639 189.189 34.369C189.741 33.1153 190.545 31.9909 191.55 31.0668C192.521 30.1686 193.65 29.4624 194.879 28.9849C196.076 28.5093 197.351 28.263 198.637 28.2587C202.178 28.3483 204.712 29.7754 206.242 32.5479V28.7528H208.787V48.2786H206.242V44.5674C205.518 45.8818 204.468 46.8998 203.09 47.6248C201.719 48.3441 200.164 48.7072 198.424 48.7072C197.119 48.6761 195.829 48.4144 194.613 47.9339C193.412 47.4635 192.307 46.7719 191.356 45.8945C190.395 45.0015 189.628 43.918 189.101 42.7118C188.552 41.4755 188.281 40.1174 188.281 38.6432ZM190.967 38.0366C190.967 39.6382 191.315 41.0584 192.016 42.2901C192.717 43.5264 193.637 44.4732 194.785 45.1396C195.892 45.79 197.145 46.1458 198.425 46.1737C199.905 46.1737 201.235 45.8175 202.424 45.0971C203.584 44.4142 204.55 43.4411 205.228 42.2717C205.907 41.1124 206.242 39.8991 206.242 38.6432C206.242 37.2644 205.912 35.9856 205.259 34.8194C204.615 33.6636 203.683 32.698 202.555 32.0182C201.412 31.3196 200.113 30.9229 198.778 30.8646C197.288 30.8646 195.946 31.2392 194.75 31.9883C193.552 32.7374 192.623 33.6773 191.957 34.801C191.298 35.9316 190.967 37.0082 190.967 38.0366ZM213.235 48.2786V28.7528H215.851V48.2786H213.235ZM213.235 26.3974V21.8704H215.851V26.3974H213.235ZM220.303 48.2786V28.6873H222.75V31.6068C223.82 29.3778 225.706 28.2587 228.398 28.2587V30.9289C227.786 30.9289 227.155 31.0611 226.502 31.3219C225.84 31.5843 225.227 31.9606 224.692 32.4341C224.151 32.9104 223.703 33.4858 223.372 34.13C223.047 34.7762 222.88 35.4917 222.884 36.2166V48.2786H220.303ZM230.908 48.2786V21.8715H233.523V48.2786H230.908ZM237.942 48.2786V28.7528H240.556V48.2786H237.942ZM237.942 26.3974V21.8704H240.556V26.3974H237.942ZM244.975 48.2786V28.7528H247.456V31.6792C248.076 30.6194 248.98 29.7579 250.064 29.194C251.156 28.6199 252.369 28.3218 253.6 28.3253C254.683 28.3253 255.731 28.5218 256.745 28.9205C257.758 29.3135 258.664 29.8903 259.467 30.6451C260.262 31.4012 260.903 32.341 261.376 33.4648C261.853 34.5942 262.087 35.8546 262.087 37.2472V48.2797H259.542V37.2472C259.542 35.9029 259.255 34.7482 258.684 33.7911C258.112 32.8397 257.364 32.1204 256.432 31.6448C255.511 31.1704 254.491 30.9253 253.456 30.9301C252.456 30.9224 251.469 31.1572 250.577 31.6149C249.68 32.0768 248.93 32.7859 248.415 33.6601C247.867 34.5712 247.591 35.6593 247.591 36.9266V48.2797L244.975 48.2786ZM265.789 38.3939C265.829 36.829 266.13 35.4261 266.702 34.1771C267.238 32.9643 268.018 31.8768 268.991 30.9829C270.849 29.2628 273.27 28.2935 275.791 28.2599C277.44 28.2599 279.043 28.662 280.585 29.472C282.134 30.2809 283.403 31.5011 284.392 33.1247C285.375 34.747 285.87 36.6819 285.87 38.9293V39.4234H268.402C268.516 40.8688 268.958 42.1051 269.722 43.1231C270.489 44.1457 271.413 44.9063 272.504 45.4119C273.599 45.9174 274.666 46.1737 275.719 46.1737C276.692 46.1657 277.656 45.974 278.559 45.6084C279.489 45.2456 280.346 44.718 281.092 44.0503C281.828 43.3908 282.347 42.6589 282.653 41.8558H285.334C284.791 43.3541 284.002 44.6225 282.966 45.6624C281.974 46.6657 280.787 47.4495 279.479 47.9638C278.237 48.4503 276.916 48.7023 275.584 48.7072C273.886 48.6424 272.23 48.1655 270.754 47.3169C269.256 46.4598 268.057 45.2579 267.149 43.7183C266.242 42.1706 265.788 40.3989 265.788 38.3939H265.789ZM283.325 37.0726C283.103 35.9393 282.633 34.8707 281.948 33.945C281.252 32.9873 280.348 32.2022 279.306 31.6494C278.246 31.0785 277.062 30.7842 275.861 30.7934C274.2 30.7934 272.821 31.1909 271.726 31.9826C270.624 32.7731 269.816 33.6601 269.3 34.6413C268.781 35.6168 268.486 36.4314 268.403 37.0737L283.325 37.0726ZM288.609 34.469C288.583 34.2083 288.571 33.9463 288.574 33.6842C288.574 32.5536 288.851 31.5781 289.41 30.7635C289.94 29.9783 290.666 29.3481 291.514 28.9366C292.362 28.5264 293.18 28.3242 293.982 28.3242C294.63 28.3242 295.278 28.438 295.925 28.6574C296.567 28.8769 297.166 29.2095 297.693 29.6398C298.224 30.073 298.66 30.6256 298.989 31.292C299.319 31.9642 299.501 32.7202 299.536 33.5705H296.886C296.839 32.6306 296.544 31.9469 295.99 31.5126C295.443 31.0783 294.772 30.8577 293.982 30.8577C293.287 30.8577 292.639 31.0898 292.044 31.5482C291.442 32.0055 291.124 32.6788 291.083 33.5705C291.09 33.5934 291.124 33.7371 291.183 34.0105L291.3 34.5333C291.478 35.1825 292.086 35.7237 293.121 36.1522C294.159 36.5854 295.201 37.0025 296.251 37.4012C297.298 37.7999 298.188 38.3824 298.914 39.1557C299.636 39.9289 300.003 41.0285 300.003 42.4567C300.003 42.7003 299.98 43.0634 299.925 43.5333C299.777 44.734 299.389 45.7221 298.747 46.5011C298.106 47.2801 297.345 47.8454 296.479 48.1901C295.608 48.5348 294.752 48.7072 293.912 48.7072C292.745 48.7072 291.696 48.4395 290.777 47.8994C289.874 47.3755 289.132 46.6096 288.633 45.6865C288.121 44.7455 287.867 43.7102 287.867 42.575L290.489 42.4981C290.523 43.616 290.895 44.526 291.615 45.2223C292.331 45.9232 293.145 46.2863 294.065 46.3219C294.949 46.2556 295.781 45.8745 296.413 45.2464C297.063 44.6099 297.386 43.8366 297.386 42.9324C297.386 42.1281 297.127 41.4042 296.603 40.7493C296.085 40.0944 295.283 39.6313 294.2 39.3579C292.726 38.9592 291.465 38.3927 290.417 37.6746C289.375 36.9554 288.768 35.8845 288.609 34.469Z" fill="black"/>
<path d="M4.379 42.0557C1.96076 42.0557 0 41.6203 0 41.0837C0 40.5471 1.96076 40.1116 4.379 40.1116H27.8752L28.748 40.1346C30.7793 40.2265 32.97 39.8037 35.4087 38.5571C38.6975 36.8784 41.5948 33.9956 43.9539 29.4652H43.9573L52.2169 12.4487V12.4407C54.5497 8.02513 56.523 5.04697 59.0699 3.16379C62.2084 0.840542 66.5032 -0.0786445 73.1764 0.00523131H104.554C106.973 0.00523131 108.933 0.441845 108.933 0.97842C108.933 1.515 106.973 1.95161 104.554 1.95161H73.1298L72.8225 1.94701C70.8117 1.91484 69.1957 2.42959 67.4512 3.71875C65.0762 5.47669 63.1803 8.35834 60.9066 12.6613H60.902L52.6436 29.6777V29.6858C50.1821 34.4138 47.0447 37.4782 43.4145 39.3326C39.0673 41.5548 33.6482 42.2809 27.5508 42.0557H4.379Z" fill="#A40C14"/>
<path d="M112.164 55.6735C113.777 55.6735 115.085 55.9642 115.085 56.3216C115.085 56.68 113.776 56.9707 112.164 56.9707H88.8675C83.4028 57.1373 78.712 56.6088 75.2525 54.9749C72.2596 53.5617 70.1907 51.2293 69.3918 47.6306V47.6238L67.1272 34.7322H67.1249C66.3682 31.4736 65.4908 29.2952 63.7485 27.9738C62.392 26.9455 60.553 26.5399 57.7001 26.5744L57.5408 26.5767H32.5049C30.8935 26.5767 29.5859 26.286 29.5859 25.9275C29.5859 25.5702 30.8935 25.2795 32.5049 25.2795H57.5408C63.4754 25.222 67.0737 25.8999 69.3361 27.6154C71.2331 29.0527 72.1617 31.3151 72.9412 34.6655V34.6747L75.2058 47.5697C75.9649 50.9891 77.8392 53.1618 80.5203 54.4269C82.6825 55.4495 85.3146 55.7815 88.2359 55.6816L88.6683 55.6735H112.166" fill="#F39B1C"/>
</svg>
