<svg width="300" height="84" viewBox="0 0 300 84" fill="none" xmlns="http://www.w3.org/2000/svg">
<g clip-path="url(#clip0_661_83534)">
<path d="M54.3921 0C55.8648 0.118653 57.4005 0.48404 58.9991 1.09616C59.0629 1.12037 59.1201 1.1592 59.166 1.20948C59.2119 1.25976 59.2452 1.32009 59.2633 1.38558C59.7672 3.18313 59.8208 5.06828 59.4239 7.04103C59.3269 7.52673 59.187 8.19541 59.0041 9.04705C58.9731 9.19486 58.9207 9.33771 58.8486 9.47121C57.9412 11.1479 57.1134 12.5839 56.3654 13.7793C54.5214 16.7213 52.1903 20.0596 49.372 23.7945C48.2199 25.3198 46.4272 27.4289 45.3369 28.7413C44.0744 30.26 42.964 31.7287 42.0627 32.9912C41.5253 33.7431 40.6797 34.7849 39.5259 36.1167C37.7901 38.1205 36.6669 39.4273 36.1563 40.0372C35.5376 40.7758 34.7299 41.8919 34.6429 42.8167C34.5677 43.6218 35.2516 44.1324 36.0075 44.1857C36.4791 44.2178 36.9763 44.1369 37.4991 43.9428C38.7567 43.4771 39.9423 42.7873 41.056 41.8736C42.8709 40.3832 44.7305 38.7681 46.6346 37.0282C52.4122 31.7503 59.8152 24.889 66.755 18.1207C68.3759 16.5383 69.9138 15.0873 71.3687 13.7677C71.5995 13.5581 71.8765 13.4101 72.1998 13.3236C73.4662 12.9831 74.7489 12.8922 76.0476 13.0508C79.6496 13.4916 79.265 16.9264 78.2617 19.3782C77.7656 20.5903 77.3787 21.4524 77.1011 21.9648C75.1167 25.6231 73.0833 28.8971 71.0008 31.7869C67.1089 37.1873 63.7985 41.9701 61.0694 46.1351C58.8319 49.5517 56.4189 52.8967 54.3704 56.3249C53.8642 57.1721 53.5198 57.8691 53.3369 58.4158C53.0978 59.1277 52.9356 59.9494 53.9439 59.9893C54.4278 60.0082 54.9306 59.9228 55.4523 59.7331C57.0064 59.1676 58.619 58.3592 60.2901 57.308C62.7929 55.7344 65.5727 53.7317 68.6296 51.2999C69.1223 50.9073 69.6095 50.4765 70.0911 50.0075C70.2012 49.9001 70.2699 49.7576 70.2851 49.6049C70.668 45.8573 72.653 42.5689 75.3068 39.974C77.6078 37.7229 80.2477 35.8156 83.2266 34.252C86.9746 32.2837 90.5989 30.7196 94.0995 29.5597C98.25 28.1857 102.91 27.6185 107.104 29.2087C108.011 29.553 108.539 30.1186 108.69 30.9918C108.812 31.6971 108.78 32.5088 108.591 33.427C108.506 33.8412 108.317 34.1522 107.887 34.2471C107.867 34.2516 107.848 34.2602 107.832 34.2723C107.816 34.2845 107.802 34.3 107.792 34.3177C107.782 34.3354 107.776 34.355 107.774 34.3752C107.773 34.3954 107.775 34.4158 107.782 34.435C108.138 35.4979 108.844 36.9284 109.029 38.1776C109.072 38.457 109.039 38.7553 108.932 39.0725C108.548 40.2191 107.957 41.297 107.161 42.3061C106.059 43.7033 105.373 44.5655 105.104 44.8926C103.937 46.3098 103.115 47.7419 102.467 49.3171C101.962 50.5497 101.302 53.1961 103.596 53.1994C105.554 53.2028 107.344 52.2497 108.889 51.1335C110.758 49.784 111.712 49.0954 111.748 49.0676C112.412 48.5742 112.976 48.0463 113.441 47.4841C113.571 47.3274 113.665 47.1446 113.717 46.9485C114.263 44.9103 115.042 42.9969 116.054 41.2082C117.201 39.1812 118.576 37.1524 120.178 35.122C121.186 33.8434 122.137 32.8415 123.031 32.1163C123.941 31.3811 125.218 30.6342 126.196 30.1369C126.951 29.7521 127.43 29.5436 127.633 29.5114C129.612 29.1932 131.494 29.0451 133.278 29.0673C133.889 29.0751 134.512 29.2359 135.146 29.5497C135.196 29.5737 135.239 29.6097 135.272 29.6545C135.86 30.4346 135.645 31.6805 135.163 32.444C134.908 32.8498 134.536 33.3244 134.048 33.8678C133.045 34.9823 132.279 35.7707 131.748 36.2331C131.14 36.7621 128.713 38.8413 124.469 42.4707C122.607 44.062 121.205 45.3977 120.263 46.4778C120.108 46.6552 120.024 46.852 120.011 47.0683C119.98 47.5762 119.948 48.226 119.916 49.0177C119.915 49.0236 119.917 49.0294 119.92 49.0344C119.923 49.0394 119.928 49.0434 119.933 49.0459C119.938 49.0483 119.944 49.0492 119.95 49.0483C119.956 49.0475 119.961 49.0449 119.966 49.041C124.437 45.1554 129.227 41.2465 134.334 37.3143C135.251 36.6068 136.185 35.9331 137.135 35.2933C139.673 33.5817 141.093 32.5604 143.507 31.1066C145.141 30.123 146.346 29.4344 147.125 29.0407C148.397 28.3987 150.708 27.6468 152.113 28.1508C154.529 29.0158 155.599 32.083 155.641 34.4117C155.642 34.482 155.615 34.5502 155.566 34.6013C154.764 35.4386 154.086 36.1239 153.531 36.6573C153.196 36.98 152.672 37.3137 151.957 37.6586C150.822 38.2075 149.726 38.4964 148.668 38.5252C148.097 38.5408 147.72 38.3722 147.536 38.0196C147.409 37.7778 147.295 37.6215 147.195 37.5505C146.655 37.1668 146.074 37.0448 145.452 37.1846C144.069 37.4951 142.717 37.9952 141.397 38.6849C139.305 39.7794 137.135 41.1533 134.887 42.8067C133.426 43.8813 132.101 45.1277 130.914 46.546C130.905 46.5567 130.899 46.5694 130.896 46.5829C130.894 46.5965 130.894 46.6106 130.898 46.6238C130.903 46.637 130.91 46.649 130.92 46.6586C130.93 46.6683 130.942 46.6753 130.956 46.6791C132.315 47.0638 133.514 47.7691 134.553 48.7949C134.952 49.1896 135.552 49.8145 136.352 50.6695C137.223 51.601 137.777 52.6006 138.64 53.4939C139.275 54.1542 139.788 54.7564 140.529 54.9709C141.82 55.3435 143.215 55.415 144.531 55.0242C145.999 54.5884 147.352 53.8831 148.715 53.0714C149.723 52.4726 151.084 51.5527 152.798 50.3118C154.039 49.4136 155.385 48.4533 156.835 47.4309C156.945 47.3536 157.024 47.2403 157.056 47.1115C158.19 42.6215 160.227 38.6029 163.168 35.0554C165.018 32.8215 167.599 30.6276 170.369 29.7842C172.018 29.2819 173.784 29.0219 175.668 29.0041C176.907 28.9925 179.308 29.4981 178.65 31.3112C178.28 32.3325 177.62 33.2623 176.869 34.2121C175.385 36.0873 173.78 37.7989 172.053 39.3469C170.295 40.9221 168.153 42.2928 166.262 43.8214C163.793 45.8158 162.732 48.1262 163.248 51.4063C163.252 51.433 163.266 51.4573 163.287 51.4748C163.309 51.4922 163.336 51.5016 163.364 51.5011C163.768 51.4901 164.174 51.4246 164.581 51.3049C165.795 50.9478 166.965 50.446 168.089 49.7995C169.697 48.8747 170.604 48.3557 170.812 48.2426C172.349 47.401 173.912 46.017 174.9 45.1438C178.941 41.5797 183.352 37.6509 188.135 33.3571C189.855 31.8135 191.615 30.3531 193.416 28.9758C193.642 28.8029 194.01 28.4929 194.519 28.046C195.118 27.5187 196.86 26.3993 197.616 26.7403C198.319 27.058 199.018 27.6734 199.153 28.5317C199.259 29.2048 199.337 30.2838 199.387 31.7686C199.421 32.7633 199.166 33.6116 198.623 34.3136C198.053 35.0499 197.595 35.5905 197.248 35.9354C195.747 37.4357 193.856 39.3392 191.576 41.6457C190.909 42.321 190.125 43.232 189.223 44.3786C187.495 46.5765 186.37 48.9617 185.849 51.5344C185.775 51.8993 185.752 52.2269 185.778 52.5175C185.781 52.5442 185.792 52.5696 185.809 52.5899C185.827 52.6102 185.851 52.6244 185.877 52.6306C187.683 53.0481 189.539 52.7254 191.213 51.9686C193.648 50.8674 195.666 49.4835 197.992 47.8218C198.936 47.1487 199.769 46.5876 200.492 46.1385C200.512 46.126 200.534 46.1182 200.557 46.1156C200.58 46.113 200.604 46.1157 200.626 46.1235C200.883 46.2144 201.022 46.2543 201.044 46.2433C202.268 45.63 203.466 44.7667 204.636 43.6534C207.247 41.1716 209.395 38.2691 211.275 35.2301C211.28 35.2217 211.283 35.212 211.283 35.202C211.283 35.1921 211.281 35.1823 211.275 35.1738C211.27 35.1653 211.263 35.1585 211.254 35.154C211.245 35.1495 211.235 35.1477 211.225 35.1486C210.319 35.2185 209.324 35.3277 208.242 35.4763C206.944 35.6559 205.325 35.7258 204.424 34.6646C204.394 34.6292 204.373 34.5878 204.361 34.5432C204.35 34.4986 204.348 34.452 204.357 34.4067C204.917 31.5225 206.449 28.8012 208.864 27.1079C210.661 25.8504 212.571 25.0802 214.706 24.4864C216.526 23.9796 218.146 23.5677 219.568 23.2505C219.795 23.2006 219.989 23.0604 220.15 22.8297C222.701 19.167 226.068 14.759 231.227 16.5255C231.25 16.533 231.271 16.547 231.287 16.5659C231.302 16.5847 231.312 16.6077 231.315 16.632C231.463 17.7598 231.567 18.6746 231.625 19.3766C231.669 19.9266 231.608 20.4572 231.442 20.9684C231.424 21.0252 231.385 21.0737 231.334 21.1048C230.755 21.4558 230.446 21.6055 230.203 22.2276C229.971 22.8253 229.775 23.2877 229.614 23.6148C229.609 23.6252 229.607 23.6366 229.607 23.6482C229.607 23.6597 229.61 23.6711 229.616 23.6812C229.621 23.6913 229.629 23.7 229.639 23.7064C229.649 23.7128 229.66 23.7167 229.671 23.7179L233.329 24.1305C233.352 24.1326 233.374 24.1437 233.389 24.1614C233.404 24.1791 233.412 24.202 233.41 24.2253C233.258 27.1977 231.931 30.9785 229.845 32.9696C229.026 33.7497 227.894 34.0458 226.755 34.2653C224.368 34.7244 221.873 35.0344 219.268 35.1952C219.21 35.1988 219.153 35.2158 219.103 35.2446C219.053 35.2735 219.01 35.3135 218.977 35.3615C217.051 38.2325 215.317 41.1866 213.777 44.2239C212.72 46.3098 210.359 51.5294 212.339 53.5654C212.377 53.6049 212.43 53.6282 212.486 53.6303C212.761 53.6391 213.004 53.6325 213.215 53.6103C218.499 53.0564 223.507 50.7759 227.961 47.9366C228.564 47.5518 229.177 47.1221 229.8 46.6474C229.984 46.5079 230.12 46.3143 230.188 46.0935C231.359 42.3759 233.558 38.9677 236.206 36.0086C238.094 33.9016 239.642 32.3869 240.85 31.4642C240.909 31.42 240.973 31.3826 241.039 31.3528C242.889 30.5366 244.69 30.1485 246.442 30.1884C247.954 30.2217 249.402 31.0933 249.416 32.77C249.432 34.8192 248.031 36.9533 246.661 38.4304C244.262 41.0186 242.781 42.6221 242.218 43.2409C240.711 44.8943 237.275 48.8614 238.392 51.2783C238.986 52.5624 240.404 53.1662 241.797 53.0381C242.664 52.9571 243.524 52.721 244.377 52.3295C245.574 51.7773 246.615 51.2328 247.497 50.6961C249.752 49.3255 251.091 48.5226 251.514 48.2875C252.336 47.8318 253.104 47.4625 253.82 47.1797C253.878 47.1565 253.93 47.1204 253.972 47.0742C254.013 47.028 254.043 46.973 254.059 46.9136C255.748 40.7392 260.708 36.0402 266.13 32.9679C270.699 30.3775 275.596 28.6814 280.819 27.8797C284.196 27.3607 287.808 27.3624 291.148 28.0893C291.899 28.2539 292.069 28.7613 292.21 29.4516C292.361 30.2056 292.482 30.917 292.571 31.5857C292.682 32.424 292.389 32.9968 291.691 33.3039C291.666 33.3154 291.645 33.3353 291.632 33.3604C291.619 33.3855 291.616 33.4142 291.621 33.442C292.225 36.1998 290.763 39.0974 289.099 41.2665C288.897 41.5315 288.505 42.0017 287.926 42.677C286.909 43.863 286.183 45.1255 285.782 46.6042C285.293 48.4123 285.136 52.2846 288.145 51.937C289.417 51.7906 290.725 51.087 291.854 50.4865C293.181 49.7779 294.169 49.2218 294.815 48.8181C295.708 48.2609 296.822 47.3128 297.028 46.2549C297.038 46.2025 297.058 46.1528 297.089 46.1089C297.12 46.0651 297.159 46.0281 297.205 46.0004C297.732 45.6777 298.912 44.9175 299.521 45.0806C299.571 45.0945 299.614 45.1256 299.645 45.1687C299.962 45.6261 299.902 46.0985 300.001 46.6092V47.1648C299.478 48.2604 298.756 49.3981 297.835 50.578C296.786 51.922 295.705 53.2427 294.591 54.5401C293.287 56.0615 291.771 57.5131 290.044 58.8948C289.417 59.3955 288.574 59.8695 287.879 60.2538C287.829 60.2809 287.787 60.3183 287.754 60.3634C287.72 60.4085 287.697 60.4602 287.686 60.5149L285.902 69.1278C285.896 69.1561 285.9 69.1855 285.912 69.2116C285.924 69.2377 285.945 69.2591 285.971 69.2726L294.543 73.7969C294.549 73.8007 294.554 73.8066 294.556 73.8135C294.559 73.8205 294.559 73.8281 294.556 73.835C294.553 73.8419 294.548 73.8477 294.542 73.8513C294.536 73.855 294.528 73.8564 294.521 73.8551L285.026 71.909C284.997 71.9027 284.966 71.9061 284.939 71.9187C284.912 71.9313 284.889 71.9524 284.875 71.9789L280.379 80.4105C280.377 80.4162 280.373 80.4216 280.369 80.4261C280.365 80.4307 280.36 80.4344 280.355 80.437C280.349 80.4396 280.343 80.4411 280.337 80.4414C280.331 80.4417 280.324 80.4408 280.319 80.4387C280.313 80.4367 280.307 80.4335 280.303 80.4293C280.298 80.4252 280.294 80.4202 280.292 80.4147C280.289 80.4091 280.288 80.4031 280.287 80.3969C280.287 80.3908 280.288 80.3846 280.29 80.3789L281.706 73.5457C281.708 73.5384 281.708 73.5307 281.705 73.5238C281.702 73.5169 281.697 73.5111 281.69 73.5074C281.683 73.5037 281.675 73.5021 281.667 73.5031C281.66 73.504 281.652 73.5073 281.646 73.5125L277.591 77.122C277.563 77.1466 277.528 77.1605 277.491 77.1608C277.454 77.1611 277.419 77.1479 277.392 77.1236L270.308 70.921C270.298 70.912 270.29 70.9009 270.285 70.8884C270.28 70.8759 270.278 70.8624 270.28 70.849C270.281 70.8356 270.285 70.8227 270.292 70.8112C270.299 70.7997 270.309 70.79 270.32 70.7829L273.956 68.4941C274.004 68.4637 274.059 68.4475 274.116 68.4475H277.407C277.415 68.4476 277.422 68.4452 277.428 68.4405C277.434 68.4358 277.438 68.4293 277.44 68.4219C277.442 68.4146 277.441 68.4068 277.438 68.4C277.435 68.3931 277.429 68.3876 277.422 68.3843L273.543 66.3384C273.538 66.3352 273.535 66.3306 273.534 66.3255C273.532 66.3203 273.532 66.3147 273.534 66.3097C273.536 66.3046 273.539 66.3003 273.544 66.2974C273.549 66.2945 273.554 66.2931 273.559 66.2935L283.011 68.2296C283.068 68.2417 283.128 68.2347 283.181 68.2098C283.234 68.1849 283.278 68.1434 283.305 68.0916L287.3 60.6031C287.304 60.5963 287.305 60.5885 287.304 60.5809C287.303 60.5734 287.299 60.5663 287.294 60.5608C287.289 60.5553 287.282 60.5516 287.274 60.5502C287.266 60.5488 287.259 60.5499 287.252 60.5532C284.439 61.9854 280.288 63.2794 277.429 61.4597C276.319 60.7528 276.186 59.1776 276.25 57.9633C276.375 55.5465 276.919 53.0398 277.474 50.5514C277.476 50.5426 277.475 50.5335 277.471 50.5254C277.467 50.5173 277.461 50.5106 277.453 50.5063C277.445 50.502 277.436 50.5003 277.427 50.5015C277.418 50.5028 277.41 50.5068 277.404 50.5131C275.699 52.1554 273.871 53.7007 271.919 55.1489C271.105 55.7522 269.225 57.1954 266.28 59.4787C265.535 60.0564 264.717 60.434 263.825 60.6114C261.014 61.1736 258.245 60.4417 256.283 58.3193C254.755 56.6648 253.848 54.6604 253.563 52.3062C253.562 52.2991 253.559 52.2924 253.554 52.2869C253.549 52.2815 253.543 52.2775 253.536 52.2756C253.529 52.2736 253.522 52.2738 253.515 52.2759C253.508 52.2781 253.502 52.2823 253.497 52.2879C252.251 53.8836 250.799 55.3546 249.141 56.7008C247.194 58.281 245.072 59.7454 242.775 61.0938C242.026 61.534 241.351 61.8606 240.75 62.0735C237.044 63.3892 233.043 61.5246 231.024 58.3858C229.862 56.5777 229.427 54.0943 229.369 51.9536C229.368 51.9445 229.366 51.9356 229.36 51.9281C229.355 51.9205 229.348 51.9145 229.34 51.9109C229.331 51.9072 229.322 51.906 229.313 51.9074C229.304 51.9088 229.295 51.9127 229.288 51.9187C228.259 52.8091 227.093 53.6718 225.788 54.5069C223.707 55.8387 221.595 57.1339 219.452 58.3925C218.199 59.1277 216.831 59.8335 215.349 60.5099C212.142 61.9737 208.769 62.8331 205.23 63.0882C205.194 63.0907 205.158 63.0834 205.126 63.067C205.094 63.0505 205.067 63.0257 205.048 62.995L204.81 62.6224C204.778 62.5728 204.739 62.5285 204.695 62.491C204.324 62.1783 203.845 61.7819 203.258 61.3017C202.765 60.8975 202.155 60.2139 202.282 59.5552C202.32 59.3589 202.274 59.2386 202.146 59.1942C202.109 59.1814 202.077 59.1561 202.056 59.1227C201.761 58.6403 201.642 58.0748 201.7 57.4261C201.788 56.438 201.937 55.5681 202.146 54.8162C202.56 53.337 203.039 51.8344 203.583 50.3085C203.586 50.2994 203.587 50.2897 203.586 50.2802C203.584 50.2707 203.581 50.2616 203.576 50.2535C203.57 50.2455 203.563 50.2388 203.555 50.2339C203.546 50.229 203.537 50.2261 203.528 50.2254C202.502 50.1522 201.451 50.5647 200.186 50.9356C200.022 50.9838 199.871 51.0679 199.743 51.1818C197.553 53.1412 195.616 54.8456 193.932 56.295C192.503 57.5248 191.011 58.6603 189.457 59.7015C186.544 61.6532 183.355 62.8464 179.889 63.2811C179.82 63.2895 179.75 63.2841 179.683 63.2653C179.616 63.2464 179.554 63.2145 179.499 63.1713C177.383 61.488 176.381 59.253 176.492 56.4663C176.581 54.2224 177.24 51.9652 177.999 49.9575C178.003 49.9473 178.004 49.936 178 49.9255C177.997 49.9151 177.99 49.9061 177.98 49.9004C177.971 49.8946 177.96 49.8923 177.949 49.8939C177.938 49.8956 177.928 49.901 177.921 49.9093C177.688 50.1577 175.97 51.8821 172.768 55.0824C170.745 57.105 168.486 59.0013 165.917 60.2421C164.915 60.7267 163.89 61.0245 162.844 61.1354C162.734 61.1463 162.623 61.1291 162.523 61.0855C159.302 59.6932 157.096 57.0252 156.66 53.5587C156.603 53.1008 156.554 52.7182 156.513 52.411C156.511 52.4023 156.508 52.3941 156.502 52.3872C156.497 52.3803 156.49 52.3751 156.481 52.372C156.473 52.3689 156.464 52.3681 156.456 52.3697C156.447 52.3713 156.439 52.3753 156.432 52.3811C153.758 54.6333 151.259 56.7385 148.936 58.6969C145.583 61.5213 140.563 64.3673 136.046 62.7389C134.713 62.2587 133.64 61.6965 132.827 61.0522C131.917 60.3325 130.844 59.1848 129.606 57.609C128.335 55.99 127.005 54.1426 125.615 52.0667C125.607 52.0557 125.598 52.0465 125.586 52.0396C125.575 52.0328 125.562 52.0285 125.549 52.0271C125.536 52.0257 125.523 52.0271 125.51 52.0314C125.497 52.0356 125.486 52.0426 125.476 52.0517C124.552 52.9111 123.684 53.8432 122.874 54.8478C122.314 55.542 121.502 56.789 120.439 58.5888C120.222 58.9558 120.047 59.2275 119.916 59.4038C119.528 59.9228 119.237 60.4467 118.651 60.5914C118.311 60.6757 117.946 60.7389 117.554 60.7811C114.67 61.0905 114.111 56.4364 113.842 54.5551C113.841 54.5444 113.836 54.5342 113.83 54.5256C113.823 54.5169 113.815 54.5102 113.805 54.506C113.795 54.5018 113.784 54.5002 113.773 54.5016C113.762 54.5029 113.752 54.507 113.743 54.5135C113.215 54.9111 112.561 55.2886 111.989 55.8176C109.411 58.1962 106.592 60.2233 103.534 61.8989C102.015 62.7305 100.488 63.3726 98.954 63.825C97.9506 64.1211 96.3603 64.1311 95.4055 63.7735C92.2817 62.6008 92.1463 59.2042 92.765 56.3615C93.1808 54.4542 93.5131 52.701 93.7617 51.1019C93.7654 51.078 93.7612 51.0535 93.7497 51.0322C93.7382 51.0108 93.72 50.9938 93.6979 50.9836C93.6758 50.9734 93.651 50.9707 93.6272 50.9759C93.6034 50.981 93.5819 50.9938 93.566 51.0121L93.3971 51.2217C93.3695 51.2558 93.348 51.2947 93.3336 51.3365L93.0209 52.2214C92.9937 52.298 92.942 52.3635 92.8737 52.4077C92.1747 52.8468 91.3966 53.4212 90.5393 54.1309C89.6965 54.8295 88.0549 56.2173 85.6145 58.2943C85.1162 58.7179 84.2672 59.3295 83.0677 60.129C81.9562 60.8698 80.7483 61.4004 79.4439 61.7209C79.304 61.7554 79.1572 61.7438 79.0259 61.6876C78.0303 61.2662 77.1324 60.8326 76.3319 60.3869C74.3235 59.2707 72.3302 57.629 71.3603 55.593C71.354 55.58 71.3443 55.5688 71.3323 55.5605C71.3203 55.5523 71.3063 55.5474 71.2918 55.5462C71.2772 55.545 71.2626 55.5477 71.2494 55.5538C71.2362 55.56 71.2249 55.5695 71.2165 55.5814C70.0437 57.268 68.745 58.8161 67.3202 60.2255C60.9088 66.5713 55.8118 71.8541 49.7299 77.0338C47.2349 79.1596 44.8018 80.9111 42.4306 82.2884C41.4997 82.8295 40.4144 83.2897 39.1747 83.669C37.7266 84.1098 36.5159 83.9002 35.2834 83.0951C35.2326 83.0618 35.1898 83.0177 35.158 82.9659C35.1262 82.9142 35.1062 82.8561 35.0995 82.7957C34.5911 78.2448 36.1045 73.599 37.9506 69.4589C38.7433 67.6824 39.43 66.2064 40.0108 65.031C41.1959 62.6346 42.5443 60.2067 44.056 57.7471C46.3904 53.9469 48.9222 50.1316 51.6513 46.3015C53.8531 43.2143 56.289 39.8077 58.959 36.0817C58.9652 36.0728 58.969 36.0624 58.9698 36.0515C58.9707 36.0406 58.9686 36.0297 58.9639 36.0199C58.9591 36.0101 58.9518 36.0017 58.9427 35.9956C58.9336 35.9896 58.9231 35.986 58.9122 35.9853C58.3854 35.9686 57.4205 36.5558 56.862 36.9351C54.6625 38.4299 52.7148 40.0683 51.0192 41.8503C48.2879 44.7213 46.4551 46.6402 45.5209 47.6072C43.2645 49.9459 40.7806 52.1876 38.0694 54.3322C35.668 56.2318 33.2065 57.9783 30.3837 59.1626C28.5259 59.9427 26.5359 60.3303 24.5978 59.8646C18.7684 58.464 20.4841 51.4978 22.1128 47.7103C24.0878 43.1194 26.8837 38.813 30.0694 34.9124C31.2176 33.5074 32.6301 31.9871 34.3068 30.3514C35.9679 28.7324 37.828 26.8916 39.8871 24.8291C41.1346 23.5793 42.1797 22.4566 43.0225 21.4608C44.6329 19.5612 46.9707 16.6187 46.4155 14.0871C46.4086 14.0552 46.3908 14.0268 46.3652 14.0064C46.3396 13.9861 46.3078 13.9752 46.275 13.9756C45.6374 13.9845 45.0002 14.0338 44.3637 14.1236C43.862 14.1946 43.2567 14.3914 42.5476 14.7141C40.347 15.7144 38.3832 16.6847 36.6563 17.625C32.2282 20.0336 26.1563 23.7895 20.6965 26.6937C18.226 28.0078 15.7121 29.1754 13.1546 30.1968C13.1436 30.2011 13.1318 30.2031 13.1199 30.2026C13.108 30.2021 13.0964 30.1991 13.0858 30.1937C13.0752 30.1883 13.0658 30.1808 13.0584 30.1716C13.0509 30.1624 13.0456 30.1517 13.0426 30.1402C11.6446 24.5646 13.8419 18.8044 17.4439 14.5628C17.8637 14.0688 18.3704 13.5797 19.0209 13.2071C22.4936 11.2133 25.08 9.74455 26.7801 8.80087C31.6998 6.06962 36.5092 3.72428 41.77 1.92119C44.0086 1.15382 46.3553 0.571089 48.8102 0.17299C49.357 0.0831683 49.9807 0.0615446 50.566 0H54.3921ZM280.64 38.0661C280.113 37.8632 279.668 37.7556 279.303 37.7434C277.232 37.6719 275.114 38.3955 273.325 39.292C269.754 41.0807 266.511 43.344 263.594 46.0819C261.566 47.9865 260.225 50.3401 260.909 53.1961C260.913 53.2138 260.924 53.2291 260.939 53.2393C260.954 53.2494 260.973 53.2536 260.991 53.251C261.436 53.1756 261.907 53.0514 262.404 52.8784C264.177 52.2619 265.867 51.3642 267.472 50.1854C269.035 49.0377 270.247 48.0535 271.108 47.233C274.198 44.2888 276.788 41.7804 279.899 39.5116C280.188 39.3009 280.453 38.8601 280.696 38.1892C280.705 38.1651 280.703 38.1388 280.693 38.1158C280.682 38.0928 280.663 38.075 280.64 38.0661ZM97.3152 39.0143C97.323 39.0063 97.3282 38.9961 97.3301 38.9851C97.332 38.9742 97.3305 38.9629 97.3258 38.9527C97.3211 38.9426 97.3134 38.9342 97.3037 38.9285C97.294 38.9229 97.2829 38.9203 97.2717 38.9211C96.4345 38.9766 95.6028 39.1179 94.7767 39.3453C92.546 39.9607 90.1669 40.9238 87.6396 42.2345C85.7589 43.2093 84.1507 44.296 82.8152 45.4947C81.3492 46.811 80.0532 48.2576 78.9272 49.8345C78.2165 50.8308 76.5359 53.5754 78.255 54.1592C78.9908 54.4087 80.0944 54.0794 80.8135 53.77C82.3274 53.1168 83.8464 52.1731 85.3704 50.9389C87.1262 49.5173 88.8631 47.9055 90.5811 46.1035C93.4094 43.135 95.6541 40.7719 97.3152 39.0143ZM285.487 69.4389C285.478 69.4341 285.47 69.4263 285.465 69.4167C285.46 69.4071 285.459 69.3962 285.461 69.3857L287.006 62.0885C287.008 62.0767 287.006 62.0643 287.001 62.0538C286.995 62.0432 286.985 62.0352 286.974 62.0311C286.962 62.0271 286.95 62.0273 286.938 62.0317C286.927 62.0361 286.918 62.0445 286.912 62.0552L283.426 68.6554C283.421 68.665 283.413 68.6728 283.403 68.6776C283.394 68.6824 283.383 68.6839 283.372 68.6821L276.036 67.1451C276.024 67.1426 276.012 67.1445 276.001 67.1504C275.99 67.1562 275.982 67.1658 275.978 67.1771C275.974 67.1885 275.974 67.201 275.979 67.2122C275.983 67.2235 275.992 67.2327 276.002 67.2383L282.638 70.7064C282.648 70.7112 282.655 70.719 282.66 70.7286C282.665 70.7382 282.667 70.7491 282.665 70.7596L281.12 78.0568C281.117 78.0686 281.119 78.0809 281.125 78.0915C281.131 78.102 281.14 78.1101 281.152 78.1142C281.163 78.1182 281.176 78.118 281.187 78.1136C281.198 78.1092 281.208 78.1008 281.213 78.0901L284.7 71.4898C284.705 71.4803 284.712 71.4725 284.722 71.4677C284.732 71.4629 284.743 71.4613 284.753 71.4632L292.089 73.0002C292.101 73.0027 292.114 73.0008 292.124 72.9949C292.135 72.989 292.143 72.9795 292.147 72.9681C292.151 72.9568 292.151 72.9443 292.147 72.933C292.142 72.9218 292.134 72.9126 292.123 72.907L285.487 69.4389ZM276.201 69.0364L275.211 69.0763C275.207 69.0767 275.204 69.0786 275.201 69.0817C275.198 69.0848 275.196 69.0888 275.196 69.0929V69.1012C275.197 69.1299 275.211 69.1578 275.235 69.1834C275.26 69.2089 275.296 69.2316 275.341 69.2502C275.385 69.2687 275.438 69.2827 275.496 69.2914C275.554 69.3001 275.616 69.3033 275.678 69.3008L275.755 69.2975C275.88 69.2924 275.999 69.2647 276.086 69.2204C276.173 69.1761 276.22 69.1189 276.218 69.0613V69.053C276.218 69.0486 276.216 69.0443 276.213 69.0412C276.21 69.0381 276.206 69.0364 276.201 69.0364ZM272.757 70.4635C272.755 70.4756 272.757 70.4878 272.762 70.4989C272.767 70.51 272.775 70.5197 272.785 70.5268C272.794 70.5339 272.806 70.5383 272.818 70.5394C272.83 70.5406 272.843 70.5385 272.854 70.5334L275.002 69.542C275.013 69.5373 275.022 69.53 275.029 69.5209C275.036 69.5119 275.04 69.5012 275.042 69.49C275.043 69.4787 275.042 69.4673 275.038 69.4566C275.034 69.4459 275.028 69.4364 275.019 69.4289L274.665 69.1179C274.656 69.11 274.645 69.1047 274.633 69.1024C274.621 69.1 274.609 69.1008 274.598 69.1046L272.89 69.6551C272.878 69.6592 272.867 69.6666 272.859 69.6766C272.85 69.6866 272.845 69.6988 272.844 69.7117L272.757 70.4635ZM277.449 70.6315C277.458 70.6373 277.468 70.6404 277.479 70.6404C277.49 70.6404 277.5 70.6373 277.509 70.6315L279.041 69.6668C279.05 69.6612 279.057 69.6533 279.061 69.644C279.066 69.6347 279.067 69.6243 279.066 69.6141C279.065 69.6038 279.061 69.5941 279.054 69.5861C279.048 69.578 279.039 69.572 279.029 69.5686L277.487 69.0946C277.477 69.0911 277.465 69.0911 277.454 69.0946L275.947 69.5803C275.937 69.5834 275.928 69.5894 275.921 69.5976C275.914 69.6058 275.91 69.6158 275.909 69.6264C275.907 69.637 275.909 69.6477 275.914 69.6572C275.919 69.6667 275.926 69.6747 275.936 69.6801L277.449 70.6315ZM278.295 70.6349H279.9C279.913 70.6348 279.926 70.6312 279.937 70.6247C279.948 70.6181 279.957 70.6088 279.963 70.5976C279.969 70.5864 279.972 70.5738 279.972 70.561C279.971 70.5483 279.968 70.5358 279.961 70.5251L279.563 69.898C279.546 69.8723 279.52 69.8541 279.49 69.8472C279.461 69.8404 279.43 69.8455 279.404 69.8614L278.277 70.5716C278.271 70.5759 278.266 70.5818 278.264 70.5886C278.262 70.5954 278.261 70.6028 278.263 70.6097C278.266 70.6166 278.27 70.6228 278.275 70.6273C278.281 70.6318 278.288 70.6344 278.295 70.6349ZM276.671 70.6415C276.679 70.6417 276.686 70.6394 276.692 70.6351C276.698 70.6309 276.702 70.6247 276.704 70.6177C276.706 70.6107 276.706 70.6032 276.703 70.5964C276.701 70.5896 276.696 70.5838 276.69 70.58L275.606 69.893C275.581 69.8775 275.551 69.8724 275.522 69.8789C275.493 69.8855 275.468 69.9031 275.452 69.9279L275.068 70.5317C275.061 70.542 275.057 70.5538 275.057 70.5659C275.057 70.578 275.059 70.59 275.065 70.6007C275.071 70.6114 275.08 70.6203 275.09 70.6266C275.1 70.6329 275.112 70.6363 275.125 70.6365L276.671 70.6415ZM273.564 70.555C273.551 70.5607 273.54 70.5708 273.534 70.5836C273.527 70.5964 273.525 70.6111 273.528 70.6251C273.531 70.6392 273.539 70.6517 273.551 70.6604C273.562 70.6692 273.577 70.6737 273.591 70.6731L274.409 70.6166C274.435 70.6156 274.461 70.6088 274.484 70.5966C274.633 70.5156 274.742 70.3593 274.81 70.1275C274.812 70.1212 274.813 70.1143 274.811 70.1079C274.809 70.1014 274.806 70.0955 274.801 70.0909C274.796 70.0864 274.79 70.0833 274.783 70.0821C274.776 70.081 274.77 70.0817 274.763 70.0843L273.564 70.555ZM280.481 70.6432C280.492 70.6614 280.508 70.6765 280.526 70.687C280.545 70.6975 280.566 70.703 280.588 70.7031H281.285C281.303 70.7031 281.32 70.697 281.334 70.6858C281.347 70.6746 281.357 70.6592 281.36 70.6421C281.363 70.625 281.361 70.6074 281.352 70.5924C281.344 70.5774 281.33 70.5659 281.313 70.56L280.178 70.1126C280.175 70.1112 280.171 70.1109 280.167 70.1118C280.164 70.1127 280.161 70.1147 280.159 70.1175C280.156 70.1203 280.155 70.1238 280.155 70.1274C280.155 70.131 280.156 70.1346 280.158 70.1375L280.481 70.6432ZM272.146 70.407C272.039 70.5245 271.985 70.5844 271.984 70.5866C271.98 70.5967 271.978 70.6076 271.979 70.6184C271.98 70.6293 271.984 70.6396 271.99 70.6486C271.996 70.6575 272.004 70.6648 272.013 70.6697C272.023 70.6745 272.034 70.6769 272.044 70.6764C272.229 70.6731 272.339 70.6526 272.374 70.6149C272.409 70.5761 272.42 70.4646 272.405 70.2806C272.405 70.2698 272.401 70.2595 272.395 70.2505C272.389 70.2416 272.381 70.2342 272.372 70.2292C272.362 70.2243 272.351 70.2218 272.34 70.222C272.329 70.2223 272.318 70.2252 272.308 70.2307C272.306 70.2318 272.252 70.2905 272.146 70.407ZM278.367 74.0514C278.369 74.0635 278.375 74.0746 278.384 74.0832C278.393 74.0917 278.404 74.0972 278.417 74.0988C278.429 74.1005 278.441 74.0983 278.452 74.0924C278.463 74.0866 278.472 74.0775 278.477 74.0664L280.078 71.064C280.082 71.0551 280.084 71.0453 280.084 71.0353C280.084 71.0254 280.081 71.0157 280.076 71.0072C280.07 70.9986 280.063 70.9916 280.054 70.9867C280.046 70.9818 280.036 70.9792 280.026 70.9792H277.758C277.749 70.9789 277.74 70.9807 277.732 70.9845C277.724 70.9882 277.717 70.9937 277.711 71.0006C277.706 71.0075 277.702 71.0156 277.7 71.0243C277.698 71.033 277.698 71.042 277.7 71.0507L278.367 74.0514ZM276.474 74.0963C276.479 74.1066 276.487 74.1151 276.497 74.1205C276.508 74.126 276.519 74.1281 276.531 74.1266C276.542 74.1252 276.553 74.1202 276.561 74.1124C276.57 74.1045 276.575 74.0943 276.578 74.083L277.205 71.0607C277.207 71.0526 277.206 71.0442 277.205 71.0361C277.203 71.028 277.199 71.0205 277.193 71.0141C277.188 71.0077 277.181 71.0026 277.174 70.9991C277.166 70.9957 277.158 70.994 277.15 70.9941H274.981C274.971 70.994 274.962 70.9963 274.953 71.0008C274.945 71.0053 274.938 71.0119 274.933 71.0199C274.928 71.028 274.925 71.0372 274.925 71.0466C274.924 71.0561 274.926 71.0655 274.931 71.074L276.474 74.0963ZM272.226 72.0875C272.24 72.074 272.247 72.0558 272.247 72.0369C272.247 72.0179 272.239 71.9997 272.226 71.9864L271.279 71.051C271.265 71.0377 271.247 71.0302 271.228 71.0303C271.209 71.0303 271.191 71.0379 271.177 71.0514L271.17 71.0585C271.157 71.0719 271.149 71.0902 271.149 71.1091C271.149 71.1281 271.157 71.1463 271.17 71.1596L272.117 72.0949C272.131 72.1083 272.149 72.1158 272.168 72.1157C272.187 72.1157 272.206 72.1081 272.219 72.0946L272.226 72.0875ZM273.518 72.8189C273.524 72.8277 273.534 72.8335 273.545 72.8351C273.556 72.8366 273.567 72.8338 273.576 72.8272C273.585 72.8206 273.591 72.8107 273.592 72.7998C273.594 72.7889 273.591 72.7778 273.584 72.769L272.546 71.1738C272.528 71.1457 272.503 71.1225 272.474 71.1063C272.445 71.09 272.412 71.0812 272.379 71.0806L272.034 71.0756C272.026 71.0757 272.019 71.078 272.012 71.0823C272.005 71.0865 272 71.0926 271.997 71.0997C271.993 71.1069 271.992 71.1148 271.993 71.1226C271.994 71.1304 271.997 71.1378 272.002 71.1438L273.518 72.8189ZM275.808 73.7121C275.814 73.7166 275.821 73.7191 275.829 73.7192C275.836 73.7193 275.843 73.717 275.849 73.7127C275.855 73.7083 275.859 73.7022 275.861 73.6951C275.863 73.6881 275.863 73.6806 275.86 73.6738L274.559 71.1272C274.552 71.1127 274.54 71.1005 274.526 71.092C274.511 71.0835 274.495 71.079 274.477 71.079H273.108C273.106 71.0792 273.105 71.0799 273.104 71.0808C273.103 71.0817 273.102 71.0829 273.102 71.0842C273.101 71.0856 273.101 71.087 273.101 71.0884C273.101 71.0898 273.102 71.0912 273.103 71.0923L275.808 73.7121ZM279.26 73.5424L281.783 71.0773C281.785 71.0766 281.787 71.0753 281.787 71.0736C281.788 71.0719 281.788 71.0699 281.788 71.0682C281.787 71.0664 281.786 71.065 281.784 71.0642C281.782 71.0634 281.78 71.0633 281.778 71.064L280.496 71.0707C280.48 71.0705 280.464 71.0747 280.451 71.0826C280.437 71.0905 280.426 71.1019 280.419 71.1156L279.212 73.5075C279.208 73.5139 279.207 73.5215 279.208 73.5287C279.21 73.5359 279.214 73.5423 279.22 73.5467C279.226 73.551 279.233 73.553 279.241 73.5522C279.248 73.5514 279.255 73.5479 279.26 73.5424ZM282.053 71.7177L281.262 72.9719C281.261 72.9726 281.261 72.9735 281.26 72.9744C281.26 72.9753 281.26 72.9763 281.26 72.9773C281.26 72.9782 281.261 72.9791 281.261 72.9799C281.262 72.9807 281.262 72.9814 281.263 72.9819L281.272 72.9852C281.311 73.0083 281.388 72.9669 281.487 72.87C281.586 72.7731 281.699 72.6286 281.8 72.4679L281.83 72.4196C281.931 72.2592 282.013 72.0958 282.058 71.965C282.103 71.8342 282.107 71.7465 282.069 71.721L282.063 71.716C282.062 71.7154 282.061 71.715 282.06 71.7147C282.059 71.7145 282.058 71.7144 282.057 71.7146C282.056 71.7147 282.055 71.7151 282.055 71.7156C282.054 71.7162 282.053 71.7169 282.053 71.7177ZM277.355 76.4467C277.359 76.4581 277.366 76.4682 277.376 76.4755C277.385 76.4827 277.397 76.4868 277.409 76.4872C277.421 76.4876 277.433 76.4842 277.443 76.4775C277.454 76.4708 277.461 76.4612 277.466 76.45L278.13 74.7134C278.134 74.7029 278.135 74.6913 278.133 74.6802L277.502 71.8491C277.499 71.8364 277.492 71.8252 277.482 71.8171C277.471 71.8091 277.459 71.8047 277.446 71.8047C277.432 71.8047 277.42 71.8091 277.409 71.8171C277.399 71.8252 277.392 71.8364 277.389 71.8491L276.797 74.7084C276.795 74.7184 276.795 74.7287 276.798 74.7384L277.355 76.4467ZM273.645 72.2184L275.038 74.4423C275.058 74.4775 275.085 74.5095 275.116 74.5371L276.747 75.9809C276.756 75.9897 276.768 75.995 276.781 75.996C276.794 75.9971 276.807 75.9937 276.817 75.9866C276.828 75.9795 276.836 75.9689 276.84 75.9567C276.844 75.9445 276.843 75.9313 276.839 75.9194L276.404 74.8166C276.392 74.786 276.373 74.7582 276.349 74.7351L273.688 72.1834C273.683 72.1792 273.677 72.1768 273.67 72.1767C273.663 72.1766 273.657 72.1788 273.652 72.183C273.647 72.1871 273.643 72.1929 273.642 72.1994C273.64 72.2059 273.641 72.2126 273.645 72.2184ZM281.283 72.2849C281.288 72.2792 281.291 72.2718 281.29 72.2643C281.289 72.2568 281.286 72.2498 281.28 72.245C281.274 72.2401 281.267 72.2378 281.259 72.2384C281.252 72.239 281.245 72.2426 281.24 72.2483L278.556 74.8681C278.531 74.8917 278.511 74.9201 278.499 74.9513L278.068 76.0757C278.061 76.0881 278.059 76.1025 278.062 76.1161C278.066 76.1297 278.074 76.1417 278.086 76.1496C278.097 76.1574 278.112 76.1607 278.126 76.1588C278.14 76.1568 278.152 76.1497 278.161 76.1389L279.807 74.6552C279.839 74.6271 279.866 74.5945 279.887 74.5587L281.283 72.2849Z" fill="#183A84"/>
<path d="M112.502 5.44928C112.939 5.44928 113.293 5.09703 113.293 4.6625C113.293 4.22798 112.939 3.87573 112.502 3.87573C112.065 3.87573 111.711 4.22798 111.711 4.6625C111.711 5.09703 112.065 5.44928 112.502 5.44928Z" fill="#183A84"/>
<path d="M140.958 10.9365C140.983 13.899 144.187 14.9951 146.321 13.3268C146.336 13.3149 146.354 13.3074 146.373 13.3053C146.392 13.3032 146.411 13.3065 146.429 13.3149C146.446 13.3232 146.46 13.3363 146.471 13.3525C146.481 13.3687 146.486 13.3875 146.486 13.4066V14.0803C146.486 14.1322 146.474 14.1833 146.45 14.2293C146.427 14.2753 146.393 14.3149 146.351 14.3448C146.16 14.4789 145.935 14.5893 145.677 14.6758C142.973 15.5823 139.892 14.1003 139.867 10.9448C139.841 7.78944 142.896 6.25915 145.615 7.12077C145.875 7.20283 146.101 7.30928 146.294 7.44014C146.336 7.46934 146.371 7.50842 146.396 7.55413C146.42 7.59984 146.433 7.65086 146.434 7.70295L146.444 8.37495C146.445 8.39407 146.44 8.41294 146.43 8.42938C146.42 8.44582 146.406 8.45916 146.389 8.46785C146.372 8.47655 146.352 8.48025 146.333 8.47852C146.314 8.4768 146.296 8.46973 146.28 8.45812C144.12 6.82469 140.934 7.97241 140.958 10.9365Z" fill="#183A84"/>
<path d="M98.9037 13.5315C98.9037 13.5233 98.9011 13.5153 98.8962 13.5087C98.8913 13.5021 98.8844 13.4973 98.8766 13.4948C98.8687 13.4924 98.8603 13.4926 98.8525 13.4953C98.8448 13.498 98.8381 13.5031 98.8334 13.5098C97.1646 15.9932 93.1127 14.9952 92.4104 12.2523C91.7214 9.56599 93.1796 6.85636 96.2281 6.90294C97.208 6.91735 97.9577 7.25723 98.4773 7.92258C98.7292 8.24527 98.8574 8.40717 98.8619 8.40828C98.8707 8.40924 98.8796 8.4083 98.888 8.40554C98.8964 8.40277 98.9041 8.39823 98.9106 8.39224C98.9172 8.38625 98.9223 8.37893 98.9257 8.3708C98.9291 8.36266 98.9307 8.35389 98.9304 8.34507L98.8886 7.29383C98.8879 7.28053 98.89 7.26724 98.8948 7.25476C98.8995 7.24227 98.9068 7.23086 98.9162 7.22121C98.9256 7.21157 98.9369 7.20389 98.9494 7.19864C98.9619 7.19339 98.9754 7.19069 98.989 7.1907H99.7448C99.7776 7.1907 99.8091 7.20367 99.8323 7.22675C99.8555 7.24983 99.8686 7.28114 99.8686 7.31379V14.5677C99.8686 14.5876 99.8606 14.6066 99.8465 14.6207C99.8324 14.6347 99.8133 14.6426 99.7933 14.6426H98.989C98.9663 14.6426 98.9446 14.6336 98.9287 14.6177C98.9127 14.6018 98.9037 14.5802 98.9037 14.5577V13.5315ZM96.1261 7.68804C95.7594 7.68804 95.3962 7.77173 95.0574 7.93431C94.7186 8.0969 94.4107 8.33521 94.1514 8.63563C93.8921 8.93605 93.6864 9.2927 93.546 9.68522C93.4057 10.0777 93.3334 10.4984 93.3334 10.9233C93.3334 11.3482 93.4057 11.7688 93.546 12.1614C93.6864 12.5539 93.8921 12.9105 94.1514 13.211C94.4107 13.5114 94.7186 13.7497 95.0574 13.9123C95.3962 14.0749 95.7594 14.1585 96.1261 14.1585C96.8667 14.1585 97.5771 13.8177 98.1008 13.211C98.6245 12.6042 98.9187 11.7813 98.9187 10.9233C98.9187 10.0653 98.6245 9.24235 98.1008 8.63563C97.5771 8.0289 96.8667 7.68804 96.1261 7.68804Z" fill="#183A84"/>
<path d="M165.462 10.9167C165.462 11.9958 165.031 13.0307 164.264 13.7937C163.497 14.5567 162.456 14.9853 161.372 14.9853C160.287 14.9853 159.246 14.5567 158.479 13.7937C157.712 13.0307 157.281 11.9958 157.281 10.9167C157.281 9.83768 157.712 8.80282 158.479 8.03981C159.246 7.2768 160.287 6.84814 161.372 6.84814C162.456 6.84814 163.497 7.2768 164.264 8.03981C165.031 8.80282 165.462 9.83768 165.462 10.9167ZM161.381 7.68982C160.594 7.68709 159.838 8.02532 159.279 8.63011C158.72 9.2349 158.405 10.0567 158.402 10.9147C158.4 11.3396 158.475 11.7606 158.623 12.1536C158.771 12.5466 158.988 12.904 159.263 13.2054C159.538 13.5068 159.864 13.7462 160.224 13.9101C160.583 14.0739 160.969 14.1589 161.359 14.1603C162.146 14.163 162.902 13.8248 163.461 13.22C164.019 12.6152 164.335 11.7934 164.338 10.9354C164.34 10.5105 164.264 10.0895 164.116 9.69651C163.969 9.30348 163.751 8.94607 163.477 8.64469C163.202 8.34332 162.876 8.10387 162.516 7.94004C162.157 7.7762 161.771 7.69118 161.381 7.68982Z" fill="#183A84"/>
<path d="M178.178 8.32005C178.273 8.21693 178.419 8.0456 178.617 7.80607C179.099 7.22501 179.746 6.92061 180.556 6.89289C181.611 6.85629 182.319 7.3176 182.68 8.27681C182.684 8.28611 182.689 8.29435 182.697 8.30069C182.705 8.30703 182.714 8.31126 182.724 8.31294C182.734 8.31463 182.744 8.31371 182.753 8.31029C182.762 8.30687 182.771 8.30106 182.777 8.29344C183.095 7.91586 183.304 7.62144 183.593 7.42017C184.079 7.08085 184.644 6.90564 185.287 6.89455C186.355 6.87459 187.075 7.3492 187.446 8.31839C187.556 8.60671 187.621 9.05083 187.64 9.65075C187.658 10.2207 187.66 11.8586 187.645 14.5643C187.645 14.5851 187.637 14.605 187.622 14.6196C187.607 14.6343 187.587 14.6425 187.566 14.6425H186.69C186.671 14.6425 186.652 14.6348 186.638 14.6211C186.624 14.6073 186.617 14.5887 186.617 14.5693C186.615 13.6079 186.618 12.1203 186.625 10.1065C186.628 9.30643 186.576 7.84433 185.441 7.74619C184.282 7.64473 183.436 8.32671 183.071 9.37297C182.967 9.67348 182.91 10.0561 182.901 10.5207C182.881 11.5542 182.879 12.8971 182.894 14.5494C182.894 14.5624 182.892 14.5753 182.887 14.5874C182.882 14.5995 182.875 14.6105 182.866 14.6198C182.857 14.6291 182.846 14.6365 182.834 14.6415C182.822 14.6466 182.809 14.6492 182.796 14.6492H181.953C181.938 14.6492 181.924 14.6463 181.911 14.6408C181.897 14.6352 181.885 14.6271 181.875 14.6169C181.865 14.6067 181.857 14.5946 181.852 14.5813C181.846 14.568 181.844 14.5537 181.844 14.5394C181.861 13.2098 181.86 11.5664 181.842 9.60916C181.838 9.02144 181.681 8.518 181.372 8.09883C181.17 7.8216 180.83 7.69463 180.352 7.71792C178.839 7.79277 178.127 9.45613 178.128 10.7719C178.129 11.6989 178.13 12.9553 178.13 14.541C178.13 14.5684 178.119 14.5946 178.1 14.614C178.08 14.6333 178.054 14.6442 178.026 14.6442H177.182C177.154 14.6442 177.128 14.6333 177.108 14.614C177.089 14.5946 177.078 14.5684 177.078 14.541V7.342C177.078 7.30141 177.094 7.26249 177.123 7.23379C177.152 7.20509 177.191 7.18897 177.232 7.18897H177.968C178.006 7.18897 178.043 7.20421 178.071 7.23135C178.098 7.25849 178.113 7.2953 178.113 7.33368V8.29344C178.113 8.30118 178.116 8.3088 178.12 8.31527C178.124 8.32174 178.13 8.32676 178.138 8.32966C178.145 8.33255 178.152 8.33319 178.16 8.33147C178.167 8.32975 178.174 8.32577 178.178 8.32005Z" fill="#183A84"/>
<path d="M200.811 8.35841C200.891 8.26859 201.014 8.12055 201.18 7.91429C202.008 6.88633 203.291 6.74328 204.605 7.0194C207.013 7.52673 207.752 10.2164 207.225 12.3023C207.062 12.9532 206.7 13.5154 206.142 13.9889C204.657 15.2481 202.195 15.3678 200.899 13.6329C200.894 13.6247 200.885 13.6185 200.876 13.6153C200.866 13.6121 200.856 13.6121 200.846 13.6153C200.837 13.6185 200.828 13.6247 200.822 13.6329C200.817 13.6412 200.814 13.6512 200.814 13.6612V18.159C200.814 18.1841 200.804 18.2082 200.786 18.226C200.768 18.2438 200.744 18.2538 200.719 18.2538H199.879C199.849 18.2538 199.82 18.2419 199.799 18.2206C199.778 18.1994 199.766 18.1707 199.766 18.1407V7.22399C199.766 7.21341 199.77 7.20325 199.777 7.19577C199.784 7.18828 199.794 7.18407 199.804 7.18407H200.695C200.706 7.18407 200.716 7.18828 200.724 7.19577C200.731 7.20325 200.736 7.21341 200.736 7.22399V8.33013C200.736 8.33871 200.739 8.34701 200.744 8.354C200.749 8.36098 200.756 8.36633 200.764 8.36936C200.772 8.37239 200.78 8.37297 200.789 8.37102C200.797 8.36907 200.805 8.36468 200.811 8.35841ZM203.434 7.67936C202.692 7.69996 201.99 8.06133 201.483 8.68395C200.976 9.30657 200.704 10.1394 200.728 10.9994C200.74 11.4251 200.824 11.8447 200.976 12.2342C201.128 12.6237 201.344 12.9754 201.612 13.2693C201.88 13.5631 202.195 13.7934 202.539 13.9469C202.883 14.1004 203.249 14.1742 203.616 14.164C204.358 14.1433 205.059 13.782 205.567 13.1594C206.074 12.5367 206.346 11.7039 206.321 10.844C206.309 10.4182 206.225 9.99857 206.074 9.6091C205.922 9.21963 205.706 8.86792 205.438 8.57406C205.17 8.2802 204.855 8.04994 204.511 7.89643C204.167 7.74291 203.801 7.66915 203.434 7.67936Z" fill="#183A84"/>
<path d="M226.195 10.9167C226.194 12.1443 226.191 13.3613 226.188 14.5678C226.188 14.5868 226.18 14.6049 226.167 14.6184C226.153 14.6318 226.135 14.6393 226.116 14.6393H225.3C225.29 14.6393 225.28 14.6373 225.271 14.6335C225.261 14.6296 225.253 14.624 225.246 14.6169C225.238 14.6098 225.233 14.6014 225.229 14.5921C225.225 14.5828 225.223 14.5728 225.223 14.5628V13.5099C225.224 13.5008 225.221 13.4919 225.216 13.4844C225.211 13.477 225.203 13.4716 225.194 13.4691C225.185 13.4666 225.176 13.4671 225.168 13.4706C225.159 13.4741 225.152 13.4803 225.148 13.4883C224.502 14.4974 223.565 14.9725 222.337 14.9138C220.009 14.8007 218.584 13.2404 218.586 10.9084C218.589 8.57634 220.019 7.01943 222.345 6.91131C223.575 6.85586 224.511 7.33325 225.155 8.34347C225.159 8.35142 225.166 8.35765 225.174 8.36114C225.183 8.36462 225.192 8.36515 225.201 8.36263C225.21 8.36011 225.217 8.3547 225.222 8.34729C225.228 8.33987 225.23 8.3309 225.23 8.32184L225.231 7.26893C225.231 7.24864 225.24 7.22918 225.254 7.21483C225.268 7.20048 225.288 7.19242 225.308 7.19242L226.124 7.19408C226.143 7.19408 226.162 7.20162 226.175 7.21503C226.189 7.22844 226.196 7.24664 226.196 7.26561C226.197 8.4721 226.197 9.68913 226.195 10.9167ZM222.429 7.69154C222.062 7.69473 221.699 7.78156 221.362 7.94708C221.024 8.11261 220.718 8.35358 220.461 8.65624C220.204 8.9589 220.002 9.31733 219.865 9.71105C219.728 10.1048 219.659 10.5261 219.663 10.9509C219.667 11.3758 219.743 11.7958 219.887 12.1871C220.03 12.5784 220.239 12.9333 220.501 13.2314C220.764 13.5296 221.074 13.7652 221.414 13.9248C221.755 14.0845 222.119 14.165 222.486 14.1618C222.852 14.1586 223.215 14.0718 223.553 13.9063C223.89 13.7407 224.196 13.4998 224.453 13.1971C224.71 12.8945 224.913 12.536 225.05 12.1423C225.187 11.7486 225.255 11.3273 225.251 10.9024C225.248 10.4776 225.172 10.0575 225.028 9.66624C224.884 9.27495 224.675 8.9201 224.413 8.62194C224.151 8.32378 223.841 8.08816 223.5 7.92852C223.16 7.76888 222.796 7.68836 222.429 7.69154Z" fill="#183A84"/>
<path d="M239.345 8.26354C239.346 8.27003 239.348 8.2763 239.352 8.28149C239.356 8.28668 239.361 8.29053 239.367 8.29253C239.374 8.29453 239.38 8.29458 239.387 8.29267C239.393 8.29075 239.398 8.28697 239.402 8.28184C240.208 7.25055 241.188 6.62845 242.533 6.95447C243.708 7.24057 244.343 8.04841 244.437 9.378C244.503 10.3073 244.517 12.0283 244.477 14.5411C244.477 14.5721 244.465 14.6017 244.443 14.6235C244.421 14.6453 244.391 14.6575 244.36 14.6575H243.559C243.527 14.6575 243.495 14.6446 243.472 14.6215C243.449 14.5984 243.436 14.5671 243.436 14.5344C243.436 11.4506 243.434 9.82267 243.431 9.65079C243.419 9.14845 243.148 8.08556 242.59 7.88596C240.578 7.16905 239.377 8.94552 239.36 10.6904C239.341 12.5445 239.337 13.8103 239.347 14.4879C239.347 14.5083 239.343 14.5286 239.336 14.5476C239.328 14.5665 239.317 14.5838 239.303 14.5983C239.288 14.6129 239.271 14.6244 239.252 14.6323C239.234 14.6402 239.214 14.6442 239.193 14.6442H238.461C238.424 14.6442 238.388 14.6295 238.361 14.6033C238.335 14.5771 238.32 14.5415 238.32 14.5045V7.31376C238.32 7.27891 238.334 7.24548 238.359 7.22084C238.385 7.1962 238.419 7.18235 238.454 7.18235H239.253C239.278 7.18235 239.301 7.19199 239.318 7.20915C239.336 7.22631 239.345 7.24958 239.345 7.27384V8.26354Z" fill="#183A84"/>
<path d="M125.254 7.18917H126.075C126.105 7.18917 126.135 7.20126 126.156 7.22279C126.178 7.24431 126.19 7.27351 126.19 7.30394V8.52319C126.19 8.53618 126.195 8.54876 126.203 8.55893C126.211 8.56911 126.222 8.5763 126.235 8.57936C126.248 8.58242 126.261 8.58117 126.273 8.57582C126.285 8.57046 126.295 8.56131 126.301 8.54981C126.526 8.10901 126.913 7.66323 127.209 7.4104C127.609 7.06886 128.245 6.96961 129.118 7.11266C129.143 7.11657 129.166 7.12562 129.186 7.1392C129.207 7.15278 129.224 7.17057 129.237 7.19138C129.25 7.21219 129.259 7.23553 129.262 7.25983C129.265 7.28412 129.263 7.30881 129.255 7.33222L129.056 7.96763C129.049 7.99022 129.038 8.0112 129.023 8.02933C129.007 8.04746 128.989 8.06238 128.968 8.07322C128.947 8.08407 128.924 8.09061 128.9 8.09247C128.877 8.09433 128.853 8.09147 128.831 8.08406C127.518 7.65159 126.655 8.87749 126.316 9.96034C126.226 10.2453 126.184 10.726 126.187 11.4025C126.195 13.4329 126.199 14.4869 126.199 14.5645C126.199 14.5817 126.192 14.5982 126.18 14.6104C126.168 14.6226 126.152 14.6294 126.135 14.6294L125.212 14.646C125.195 14.646 125.179 14.6394 125.167 14.6275C125.155 14.6157 125.148 14.5996 125.148 14.5828V7.2923C125.148 7.26495 125.16 7.23872 125.179 7.21938C125.199 7.20004 125.226 7.18917 125.254 7.18917Z" fill="#183A84"/>
<path d="M112.915 7.1875H112.096C112.039 7.1875 111.992 7.23367 111.992 7.29063V14.5363C111.992 14.5932 112.039 14.6394 112.096 14.6394H112.915C112.973 14.6394 113.019 14.5932 113.019 14.5363V7.29063C113.019 7.23367 112.973 7.1875 112.915 7.1875Z" fill="#183A84"/>
<path d="M258.502 18.2505H257.559C257.549 18.2505 257.538 18.2479 257.529 18.243C257.52 18.2381 257.513 18.2312 257.507 18.2226C257.501 18.2141 257.497 18.2043 257.496 18.1941C257.495 18.1839 257.497 18.1736 257.5 18.1641L258.937 14.5595C258.94 14.5515 258.941 14.543 258.941 14.5344C258.941 14.5258 258.939 14.5174 258.935 14.5096L255.561 7.28398C255.556 7.27428 255.554 7.26359 255.555 7.25292C255.556 7.24225 255.559 7.23195 255.565 7.22298C255.571 7.214 255.579 7.20665 255.588 7.20161C255.598 7.19657 255.608 7.194 255.619 7.19415H256.651C256.663 7.19413 256.676 7.19774 256.686 7.20454C256.696 7.21134 256.705 7.22103 256.709 7.23241L259.437 13.3553C259.442 13.3666 259.45 13.3763 259.461 13.383C259.471 13.3897 259.483 13.3932 259.496 13.393C259.508 13.3929 259.521 13.389 259.531 13.382C259.541 13.375 259.549 13.3651 259.554 13.3536L261.893 7.22908C261.898 7.21708 261.906 7.20669 261.916 7.19926C261.927 7.19184 261.939 7.18774 261.952 7.1875H262.86C262.87 7.18759 262.88 7.19018 262.889 7.19504C262.899 7.1999 262.906 7.2069 262.912 7.21541C262.918 7.22393 262.921 7.23371 262.923 7.24392C262.924 7.25413 262.922 7.26445 262.918 7.274L258.562 18.2106C258.558 18.2226 258.549 18.2328 258.538 18.2399C258.528 18.2471 258.515 18.2508 258.502 18.2505Z" fill="#183A84"/>
<path d="M184.988 11.0614C184.989 11.0561 184.992 11.0512 184.996 11.0477C185.001 11.0442 185.006 11.0422 185.011 11.042C185.017 11.0418 185.022 11.0435 185.027 11.0467C185.031 11.0499 185.035 11.0545 185.036 11.0598L186.682 20.5709C186.689 20.6118 186.709 20.6492 186.739 20.6777C186.769 20.7062 186.808 20.7241 186.849 20.7289L196.387 21.8035C196.399 21.8032 196.41 21.8076 196.418 21.8155C196.427 21.8235 196.432 21.8344 196.432 21.8459C196.432 21.8574 196.428 21.8684 196.42 21.8767C196.412 21.885 196.401 21.8897 196.389 21.89L186.894 23.5167C186.867 23.5215 186.841 23.5349 186.822 23.5549C186.803 23.575 186.791 23.6007 186.787 23.6282L185.702 33.1609C185.7 33.1708 185.695 33.1797 185.687 33.1862C185.68 33.1927 185.67 33.1964 185.66 33.1966C185.65 33.1968 185.64 33.1935 185.632 33.1873C185.624 33.1811 185.619 33.1724 185.617 33.1626L184.148 24.6778C184.147 24.6695 184.143 24.6618 184.138 24.6554C184.132 24.649 184.125 24.6441 184.117 24.6413C184.109 24.6384 184.101 24.6377 184.092 24.6391C184.084 24.6406 184.076 24.6441 184.07 24.6495L179.436 28.773C179.411 28.7948 179.38 28.8071 179.347 28.8074C179.314 28.8077 179.282 28.796 179.257 28.7746L172.15 22.5487C172.141 22.5414 172.135 22.5322 172.13 22.5217C172.126 22.5113 172.124 22.4999 172.125 22.4886C172.126 22.4772 172.13 22.4662 172.136 22.4564C172.142 22.4466 172.15 22.4383 172.16 22.4322L175.682 20.2149C175.805 20.1378 175.949 20.0969 176.097 20.0968H182.525C182.717 20.0969 182.905 20.1511 183.068 20.2532L183.782 20.7023C183.793 20.7088 183.805 20.7125 183.818 20.7131C183.83 20.7137 183.843 20.7111 183.854 20.7057C183.865 20.7002 183.875 20.692 183.882 20.6818C183.89 20.6717 183.894 20.6598 183.896 20.6474L184.988 11.0614ZM186.431 21.0566C186.42 21.0553 186.409 21.0504 186.401 21.0425C186.393 21.0347 186.388 21.0245 186.386 21.0134L185.13 13.6946C185.127 13.6827 185.121 13.6721 185.111 13.6647C185.102 13.6572 185.09 13.6533 185.078 13.6537C185.065 13.6541 185.054 13.6588 185.045 13.6669C185.036 13.6749 185.03 13.6859 185.028 13.6979L184.212 21.0782C184.211 21.0894 184.206 21.0999 184.198 21.108C184.19 21.1161 184.18 21.1214 184.168 21.1231L176.811 22.3723C176.799 22.3749 176.788 22.3815 176.781 22.391C176.773 22.4005 176.769 22.4124 176.77 22.4245C176.77 22.4366 176.775 22.4481 176.783 22.4571C176.791 22.4662 176.802 22.4721 176.814 22.4738L184.234 23.2855C184.245 23.2868 184.255 23.2918 184.264 23.2996C184.272 23.3074 184.277 23.3176 184.279 23.3288L185.535 30.6476C185.537 30.6594 185.544 30.67 185.553 30.6775C185.563 30.6849 185.575 30.6888 185.587 30.6884C185.599 30.688 185.611 30.6834 185.62 30.6753C185.629 30.6672 185.635 30.6562 185.637 30.6443L186.453 23.2639C186.454 23.2527 186.459 23.2423 186.467 23.2342C186.475 23.2261 186.485 23.2207 186.496 23.219L193.854 21.9698C193.866 21.9673 193.877 21.9607 193.884 21.9512C193.892 21.9416 193.895 21.9298 193.895 21.9177C193.895 21.9056 193.89 21.894 193.882 21.885C193.874 21.876 193.863 21.8701 193.851 21.8683L186.431 21.0566ZM178.08 20.6458L177.063 20.709C177.058 20.7086 177.052 20.7099 177.048 20.7127C177.043 20.7155 177.04 20.7196 177.038 20.7246C177.036 20.7296 177.035 20.7352 177.036 20.7407C177.037 20.7462 177.039 20.7514 177.043 20.7555C177.17 20.8986 177.301 20.974 177.434 20.9818C177.455 20.9833 177.476 20.9798 177.496 20.9718L178.1 20.7389C178.111 20.7348 178.12 20.7269 178.125 20.7168C178.13 20.7067 178.132 20.695 178.13 20.6838C178.127 20.6726 178.121 20.6626 178.112 20.6556C178.103 20.6487 178.091 20.6452 178.08 20.6458ZM180.62 20.7555L181.314 20.9701C181.342 20.9786 181.373 20.9789 181.401 20.9709C181.429 20.963 181.455 20.9471 181.474 20.9252L181.62 20.7589C181.625 20.7528 181.629 20.7453 181.63 20.7374C181.631 20.7294 181.63 20.7213 181.627 20.7141C181.624 20.7069 181.618 20.7008 181.612 20.6967C181.605 20.6925 181.598 20.6904 181.59 20.6907H180.63C180.622 20.6908 180.614 20.6937 180.608 20.6988C180.602 20.704 180.599 20.7111 180.597 20.7189C180.596 20.7267 180.598 20.7346 180.602 20.7413C180.606 20.7481 180.612 20.7531 180.62 20.7555ZM174.739 21.2995C174.729 21.3026 174.72 21.3085 174.714 21.3165C174.707 21.3245 174.703 21.3342 174.702 21.3444L174.615 22.1095C174.614 22.1188 174.616 22.1281 174.62 22.1365C174.624 22.1449 174.63 22.1522 174.637 22.1576C174.645 22.163 174.654 22.1663 174.663 22.1672C174.672 22.1681 174.682 22.1666 174.69 22.1628L176.884 21.1963C176.892 21.1929 176.899 21.1876 176.905 21.1808C176.91 21.174 176.914 21.166 176.916 21.1575C176.917 21.149 176.917 21.1402 176.914 21.1319C176.912 21.1235 176.907 21.116 176.901 21.1098L176.538 20.7489C176.531 20.7417 176.522 20.7367 176.512 20.7344C176.503 20.732 176.492 20.7324 176.483 20.7356L174.739 21.2995ZM178.416 21.7236C178.426 21.7301 178.439 21.7324 178.451 21.7303L180.909 21.3094C180.92 21.3072 180.93 21.3015 180.937 21.2931C180.944 21.2847 180.949 21.2742 180.949 21.2631C180.95 21.2521 180.947 21.2412 180.94 21.2321C180.934 21.223 180.925 21.2163 180.914 21.213L179.354 20.7339C179.344 20.7309 179.334 20.7309 179.324 20.7339L177.785 21.2296C177.776 21.2325 177.768 21.2379 177.762 21.2452C177.756 21.2525 177.752 21.2613 177.751 21.2708C177.75 21.2802 177.751 21.2898 177.755 21.2985C177.759 21.3071 177.766 21.3143 177.774 21.3194L178.416 21.7236ZM182.128 20.7755L181.752 21.0999C181.75 21.1005 181.749 21.1015 181.748 21.1027C181.746 21.104 181.745 21.1054 181.745 21.107C181.744 21.1087 181.744 21.1104 181.744 21.1122C181.744 21.1139 181.744 21.1157 181.745 21.1173C181.745 21.119 181.746 21.1205 181.747 21.1217C181.749 21.123 181.75 21.124 181.752 21.1247C181.753 21.1254 181.755 21.1257 181.757 21.1258C181.759 21.1258 181.76 21.1255 181.762 21.1248L182.769 21.04C182.784 21.0394 182.798 21.0334 182.809 21.0232C182.82 21.013 182.827 20.9992 182.828 20.9844C182.829 20.9695 182.825 20.9547 182.817 20.9426C182.808 20.9305 182.795 20.9219 182.78 20.9186L182.229 20.7539C182.211 20.7485 182.193 20.7477 182.176 20.7515C182.158 20.7553 182.142 20.7635 182.128 20.7755ZM177.337 21.5157L177.113 21.87C177.106 21.8809 177.103 21.8937 177.103 21.9066C177.103 21.9196 177.107 21.9322 177.115 21.9427C177.123 21.9533 177.133 21.9613 177.145 21.9659C177.158 21.9704 177.171 21.9712 177.183 21.9681L177.837 21.8251C177.843 21.8236 177.849 21.8204 177.853 21.8159C177.857 21.8115 177.859 21.806 177.861 21.8C177.862 21.7941 177.861 21.7879 177.859 21.7823C177.856 21.7768 177.852 21.772 177.847 21.7685L177.418 21.4974C177.405 21.4895 177.389 21.4869 177.374 21.4904C177.359 21.4938 177.346 21.5029 177.337 21.5157ZM176.665 21.6904L175.573 22.1461C175.571 22.147 175.569 22.1484 175.567 22.1502C175.565 22.1519 175.564 22.1541 175.563 22.1564C175.562 22.1588 175.561 22.1613 175.561 22.1638C175.561 22.1663 175.562 22.1688 175.563 22.1711L175.565 22.1761C175.575 22.1998 175.599 22.2175 175.635 22.2282C175.671 22.2388 175.719 22.2423 175.776 22.2382C175.833 22.2342 175.897 22.2228 175.966 22.2048C176.035 22.1867 176.107 22.1622 176.177 22.1328L176.232 22.1095C176.374 22.0502 176.501 21.9744 176.587 21.8986C176.673 21.8228 176.71 21.7533 176.69 21.7053L176.688 21.7003C176.687 21.696 176.683 21.6925 176.679 21.6907C176.674 21.6888 176.67 21.6887 176.665 21.6904ZM174.016 22.023C173.923 22.1095 173.873 22.1616 173.867 22.1794C173.863 22.1913 173.862 22.204 173.864 22.2164C173.866 22.2288 173.871 22.2405 173.878 22.2507C173.886 22.261 173.895 22.2693 173.906 22.2751C173.918 22.2809 173.93 22.284 173.943 22.2842C174.121 22.2908 174.221 22.2842 174.242 22.2642C174.263 22.2443 174.277 22.1456 174.282 21.9681C174.282 21.9559 174.28 21.9438 174.275 21.9327C174.27 21.9216 174.262 21.9118 174.253 21.9041C174.243 21.8964 174.232 21.8909 174.22 21.8882C174.208 21.8855 174.195 21.8855 174.183 21.8883C174.166 21.8916 174.11 21.9365 174.016 22.023ZM174.126 23.7505C174.137 23.7397 174.143 23.7252 174.142 23.7102C174.142 23.6952 174.136 23.681 174.125 23.6706L173.086 22.6763C173.075 22.6659 173.061 22.6603 173.046 22.6605C173.031 22.6608 173.016 22.6671 173.006 22.6779L172.996 22.6875C172.986 22.6983 172.98 22.7128 172.981 22.7278C172.981 22.7427 172.987 22.757 172.998 22.7674L174.037 23.7616C174.048 23.772 174.062 23.7777 174.077 23.7774C174.092 23.7771 174.107 23.7709 174.117 23.7601L174.126 23.7505ZM175.408 24.4981C175.415 24.5053 175.425 24.5096 175.435 24.5103C175.446 24.5109 175.456 24.5078 175.464 24.5016C175.472 24.4954 175.478 24.4864 175.48 24.4763C175.483 24.4662 175.481 24.4556 175.476 24.4466L174.406 22.8098C174.387 22.781 174.362 22.7573 174.332 22.7408C174.302 22.7242 174.268 22.7154 174.234 22.715L173.879 22.7083C173.871 22.7084 173.862 22.711 173.855 22.7156C173.848 22.7203 173.842 22.7269 173.839 22.7345C173.835 22.7421 173.834 22.7505 173.836 22.7586C173.837 22.7667 173.841 22.7741 173.847 22.7799L175.408 24.4981ZM177.66 25.3714C177.666 25.3769 177.673 25.3802 177.681 25.3808C177.689 25.3814 177.697 25.3792 177.703 25.3746C177.709 25.3701 177.714 25.3634 177.716 25.3558C177.718 25.3482 177.717 25.3402 177.714 25.3331L176.411 22.7632C176.403 22.7481 176.392 22.7354 176.377 22.7266C176.362 22.7178 176.345 22.7132 176.327 22.7133L174.948 22.71C174.946 22.7103 174.945 22.7109 174.944 22.7118C174.943 22.7127 174.942 22.7139 174.941 22.7152C174.941 22.7166 174.941 22.718 174.941 22.7194C174.941 22.7209 174.942 22.7222 174.943 22.7233L177.66 25.3714ZM178.334 25.7423C178.339 25.7518 178.347 25.7596 178.356 25.7646C178.366 25.7695 178.377 25.7714 178.387 25.7699C178.398 25.7685 178.408 25.7637 178.416 25.7564C178.424 25.7491 178.429 25.7395 178.431 25.729L178.973 23.1142C178.974 23.1072 178.974 23.0999 178.973 23.0929C178.971 23.0859 178.968 23.0793 178.964 23.0735C178.96 23.0677 178.954 23.0629 178.948 23.0593C178.942 23.0557 178.935 23.0534 178.928 23.0527L176.936 22.8281C176.927 22.8272 176.918 22.8288 176.909 22.8326C176.901 22.8364 176.894 22.8423 176.889 22.8497C176.883 22.8572 176.88 22.8658 176.879 22.8749C176.879 22.884 176.88 22.8931 176.884 22.9013L178.334 25.7423ZM180.23 25.734C180.233 25.744 180.238 25.753 180.246 25.7599C180.254 25.7668 180.263 25.7713 180.273 25.7727C180.284 25.7742 180.294 25.7725 180.303 25.768C180.313 25.7634 180.32 25.7562 180.326 25.7473L181.57 23.4169C181.574 23.4095 181.576 23.4013 181.576 23.3929C181.575 23.3846 181.573 23.3764 181.569 23.369C181.565 23.3617 181.56 23.3554 181.553 23.3507C181.546 23.346 181.538 23.343 181.53 23.3421L179.724 23.1391C179.715 23.1382 179.707 23.1392 179.7 23.142C179.692 23.1448 179.685 23.1495 179.679 23.1555C179.674 23.1615 179.67 23.1687 179.668 23.1766C179.665 23.1844 179.665 23.1927 179.667 23.2007L180.23 25.734ZM181.025 25.2965L182.747 23.5833C182.756 23.5739 182.762 23.5623 182.765 23.5495C182.768 23.5368 182.767 23.5236 182.763 23.5113C182.759 23.499 182.751 23.4882 182.741 23.4801C182.731 23.4719 182.718 23.4667 182.705 23.4652L182.085 23.3953C182.055 23.3918 182.024 23.3975 181.998 23.4114C181.971 23.4254 181.95 23.447 181.936 23.4735L180.981 25.2633C180.978 25.2693 180.977 25.2764 180.978 25.2833C180.98 25.2901 180.984 25.2962 180.989 25.3003C180.994 25.3045 181.001 25.3064 181.008 25.3057C181.014 25.305 181.02 25.3017 181.025 25.2965ZM179.215 28.0927C179.219 28.1041 179.226 28.1142 179.236 28.1215C179.245 28.1287 179.257 28.1328 179.269 28.1332C179.281 28.1336 179.293 28.1302 179.303 28.1235C179.313 28.1168 179.321 28.1072 179.326 28.096L179.989 26.3578C179.994 26.3472 179.995 26.3357 179.993 26.3245L179.366 23.5068C179.362 23.4941 179.355 23.483 179.345 23.4751C179.334 23.4672 179.321 23.463 179.308 23.4632C179.295 23.4634 179.282 23.4679 179.272 23.4761C179.262 23.4843 179.255 23.4957 179.252 23.5084L178.66 26.3644C178.658 26.3744 178.659 26.3847 178.662 26.3944L179.215 28.0927ZM183.978 23.6531L183.867 23.5716C183.861 23.5669 183.852 23.565 183.844 23.5663C183.836 23.5675 183.829 23.5718 183.824 23.5783L183.811 23.5932C183.707 23.7316 183.606 23.8701 183.513 24.0008C183.421 24.1315 183.34 24.2518 183.274 24.3548C183.208 24.4578 183.159 24.5414 183.129 24.6008C183.1 24.6603 183.09 24.6943 183.102 24.701L183.105 24.7027C183.128 24.7152 183.232 24.6183 183.394 24.433C183.556 24.2477 183.764 23.989 183.971 23.713L183.984 23.698C183.987 23.6947 183.989 23.6908 183.99 23.6867C183.991 23.6826 183.991 23.6784 183.991 23.6742C183.99 23.67 183.989 23.666 183.986 23.6623C183.984 23.6587 183.981 23.6556 183.978 23.6531ZM175.456 23.7928L176.854 26.0401C176.875 26.0758 176.901 26.1084 176.933 26.1365L178.575 27.5986C178.584 27.6065 178.596 27.6111 178.609 27.6117C178.621 27.6123 178.633 27.6088 178.643 27.6019C178.654 27.5949 178.661 27.5848 178.665 27.5731C178.669 27.5614 178.669 27.5488 178.665 27.5371L178.232 26.4226C178.22 26.3914 178.2 26.363 178.175 26.3395L175.5 23.7563C175.497 23.7534 175.494 23.7511 175.491 23.7494C175.488 23.7477 175.484 23.7466 175.48 23.7463C175.476 23.746 175.473 23.7464 175.469 23.7476C175.466 23.7487 175.462 23.7505 175.459 23.7529C175.457 23.7553 175.454 23.7583 175.452 23.7616C175.451 23.7649 175.45 23.7685 175.449 23.7722C175.449 23.7759 175.45 23.7796 175.451 23.7832C175.452 23.7867 175.454 23.79 175.456 23.7928ZM183.168 23.8827C183.172 23.8764 183.174 23.8688 183.172 23.8614C183.171 23.8541 183.167 23.8474 183.162 23.8429C183.156 23.8383 183.149 23.8361 183.142 23.8366C183.135 23.8372 183.128 23.8406 183.123 23.8461L180.414 26.4975C180.389 26.5216 180.369 26.5506 180.357 26.5823L179.923 27.7201C179.918 27.7322 179.918 27.7454 179.922 27.7576C179.926 27.7698 179.934 27.7803 179.945 27.7875C179.956 27.7947 179.968 27.7982 179.981 27.7975C179.994 27.7967 180.007 27.7917 180.016 27.7833L181.678 26.2812C181.711 26.2526 181.738 26.2195 181.759 26.1831L183.168 23.8827Z" fill="#183A84"/>
<path d="M186.435 21.0565L193.855 21.8682C193.867 21.8699 193.878 21.8758 193.886 21.8848C193.894 21.8939 193.899 21.9054 193.899 21.9175C193.899 21.9296 193.895 21.9415 193.888 21.951C193.88 21.9605 193.87 21.9671 193.858 21.9696L186.5 23.2188C186.489 23.2206 186.479 23.2259 186.471 23.234C186.463 23.2421 186.458 23.2526 186.457 23.2637L185.641 30.6441C185.639 30.6561 185.633 30.6671 185.624 30.6751C185.615 30.6832 185.603 30.6878 185.591 30.6882C185.579 30.6886 185.567 30.6848 185.557 30.6773C185.548 30.6698 185.541 30.6593 185.539 30.6474L184.283 23.3286C184.281 23.3175 184.276 23.3072 184.267 23.2994C184.259 23.2916 184.249 23.2867 184.238 23.2854L176.818 22.4736C176.806 22.4719 176.795 22.466 176.787 22.457C176.779 22.448 176.774 22.4364 176.773 22.4243C176.773 22.4122 176.777 22.4004 176.784 22.3908C176.792 22.3813 176.803 22.3747 176.814 22.3722L184.172 21.123C184.184 21.1213 184.194 21.1159 184.202 21.1078C184.21 21.0997 184.214 21.0893 184.216 21.0781L185.032 13.6977C185.034 13.6857 185.04 13.6748 185.049 13.6667C185.058 13.6586 185.069 13.654 185.081 13.6536C185.094 13.6532 185.106 13.6571 185.115 13.6645C185.125 13.672 185.131 13.6826 185.134 13.6944L186.39 21.0132C186.391 21.0243 186.397 21.0346 186.405 21.0424C186.413 21.0502 186.424 21.0551 186.435 21.0565Z" fill="#183A84"/>
<path d="M255.939 17.9959C256.378 18.0291 256.619 18.6063 256.683 19.0322C256.839 20.0901 256.839 21.1596 256.683 22.2408C256.335 24.6377 254.704 26.0948 252.569 27.0063C251.518 27.4554 250.402 27.843 249.223 28.169C248.079 28.4851 247.785 27.8047 247.39 26.8649C244.791 20.6689 250.822 17.605 255.939 17.9959Z" fill="#183A84"/>
<path d="M22.2322 65.134C22.0695 65.2748 21.8493 65.3508 21.5717 65.3619C21.5519 65.363 21.5329 65.3703 21.5174 65.3827C21.502 65.395 21.4908 65.4119 21.4856 65.4308C21.4804 65.4497 21.4814 65.4696 21.4884 65.4878C21.4955 65.5059 21.5083 65.5212 21.5249 65.5315L24.0516 67.1201C24.0659 67.1291 24.078 67.1412 24.0868 67.1555C24.0956 67.1699 24.1009 67.186 24.1024 67.2026C24.1039 67.2193 24.1014 67.236 24.0952 67.2514C24.089 67.2668 24.0792 67.2805 24.0667 67.2914L17.0566 73.5307C17.0313 73.553 16.9986 73.5653 16.9647 73.5653C16.9308 73.5653 16.8981 73.553 16.8727 73.5307L13.0148 70.1524C13.0095 70.1474 13.0028 70.1442 12.9956 70.143C12.9884 70.1418 12.981 70.1428 12.9744 70.1459C12.9677 70.1489 12.9621 70.1538 12.9583 70.16C12.9545 70.1662 12.9527 70.1734 12.953 70.1807L13.2005 77.9369C13.2015 77.9473 13.1985 77.9577 13.1922 77.966C13.1859 77.9743 13.1767 77.98 13.1664 77.9819C13.1561 77.9837 13.1455 77.9817 13.1366 77.9762C13.1277 77.9706 13.1213 77.962 13.1185 77.9519L10.1336 68.7967C10.126 68.7727 10.1106 68.7517 10.0898 68.737C10.069 68.7223 10.0439 68.7147 10.0182 68.7152L0.325874 69.0213C0.31518 69.0208 0.304981 69.0167 0.296977 69.0096C0.288973 69.0025 0.283647 68.9929 0.281887 68.9824C0.280127 68.9719 0.282039 68.9611 0.287305 68.9519C0.29257 68.9426 0.300871 68.9354 0.310824 68.9315L9.48307 65.9723C9.51933 65.9603 9.55074 65.937 9.57271 65.9058C9.59468 65.8747 9.60604 65.8374 9.60514 65.7993L9.30581 56.2799C9.30472 56.2481 9.31043 56.2169 9.32253 56.1884C9.32699 56.1795 9.33201 56.1624 9.33758 56.1369C9.33849 56.1335 9.34046 56.1304 9.34321 56.1282C9.34595 56.126 9.34933 56.1247 9.35286 56.1245C9.35639 56.1244 9.35988 56.1253 9.36285 56.1272C9.36581 56.1291 9.36809 56.1319 9.36935 56.1352L12.3627 65.317C12.3705 65.3408 12.3837 65.3626 12.4012 65.3806C12.4188 65.3986 12.4402 65.4123 12.4639 65.4208C12.4876 65.4293 12.513 65.4323 12.538 65.4296C12.5631 65.4269 12.5872 65.4185 12.6085 65.4051L13.3108 64.9627C13.4342 64.8845 13.5781 64.8429 13.7255 64.8429C16.1882 64.8473 18.3437 64.8451 20.1921 64.8363C20.3225 64.8352 20.5377 64.9189 20.8376 65.0874C20.8862 65.1149 20.9402 65.1324 20.9964 65.139C21.458 65.1944 21.8599 65.1745 22.2021 65.0791C22.2093 65.0765 22.2171 65.0765 22.2243 65.0792C22.2314 65.0819 22.2373 65.087 22.241 65.0936C22.2446 65.1003 22.2458 65.108 22.2442 65.1154C22.2425 65.1229 22.2383 65.1294 22.2322 65.134ZM12.1871 65.8243C12.1752 65.8245 12.1636 65.8209 12.154 65.814C12.1443 65.8071 12.1372 65.7973 12.1336 65.786L9.85932 58.7799C9.85489 58.7679 9.84634 58.7577 9.83515 58.7513C9.82397 58.7448 9.81087 58.7425 9.79813 58.7447C9.78539 58.7468 9.77382 58.7534 9.76545 58.7632C9.75707 58.773 9.75242 58.7854 9.7523 58.7982L9.99979 66.157C9.99999 66.1688 9.99635 66.1803 9.98942 66.1899C9.98249 66.1995 9.97264 66.2066 9.96133 66.2102L2.91785 68.4724C2.9057 68.4768 2.8955 68.4853 2.88902 68.4964C2.88254 68.5075 2.88018 68.5206 2.88237 68.5332C2.88456 68.5459 2.89116 68.5574 2.901 68.5658C2.91084 68.5741 2.92332 68.5787 2.93624 68.5788L10.3342 68.3327C10.3461 68.3325 10.3577 68.3361 10.3674 68.343C10.377 68.3499 10.3842 68.3597 10.3877 68.3709L12.662 75.377C12.6664 75.3891 12.675 75.3992 12.6862 75.4057C12.6973 75.4121 12.7104 75.4145 12.7232 75.4123C12.7359 75.4101 12.7475 75.4036 12.7559 75.3938C12.7642 75.384 12.7689 75.3716 12.769 75.3587L12.5215 68C12.5213 67.9882 12.525 67.9766 12.5319 67.967C12.5388 67.9574 12.5487 67.9503 12.56 67.9468L19.6035 65.6846C19.6156 65.6802 19.6258 65.6717 19.6323 65.6605C19.6388 65.6494 19.6411 65.6364 19.6389 65.6237C19.6368 65.611 19.6302 65.5995 19.6203 65.5912C19.6105 65.5829 19.598 65.5782 19.5851 65.5781L12.1871 65.8243ZM21.6737 66.9022L21.6486 66.132C21.6482 66.1139 21.6426 66.0963 21.6326 66.081C21.6225 66.0658 21.6084 66.0535 21.5918 66.0455C20.9039 65.7173 20.3114 65.7045 19.8142 66.0073C19.8044 66.0134 19.7965 66.022 19.7912 66.0323C19.786 66.0426 19.7837 66.054 19.7846 66.0655C19.7855 66.077 19.7894 66.088 19.7961 66.0974C19.8028 66.1067 19.8119 66.1141 19.8225 66.1187L21.657 66.9138C21.6589 66.9147 21.6609 66.9151 21.663 66.9149C21.6651 66.9147 21.6671 66.914 21.6688 66.9129C21.6705 66.9117 21.6718 66.91 21.6727 66.9082C21.6736 66.9063 21.6739 66.9042 21.6737 66.9022ZM17.7908 67.0036L19.3827 67.0419C19.3954 67.0424 19.408 67.0394 19.419 67.0333C19.4301 67.0271 19.4393 67.018 19.4456 67.0069C19.452 66.9959 19.4552 66.9832 19.4551 66.9703C19.4549 66.9574 19.4513 66.9448 19.4446 66.9338L19.065 66.3033C19.0494 66.2775 19.0241 66.2587 18.9947 66.2513C18.9652 66.2438 18.934 66.2482 18.9078 66.2634L17.774 66.9404C17.767 66.9438 17.7614 66.9494 17.7581 66.9565C17.7548 66.9635 17.7541 66.9714 17.7561 66.9789C17.7581 66.9864 17.7626 66.993 17.769 66.9975C17.7753 67.002 17.783 67.0042 17.7908 67.0036ZM20.851 66.9986L19.7205 66.5529C19.7148 66.5508 19.7086 66.5504 19.7026 66.5516C19.6967 66.5528 19.6912 66.5557 19.6867 66.5598C19.6822 66.5639 19.6789 66.5691 19.6772 66.5749C19.6755 66.5808 19.6755 66.5869 19.677 66.5928C19.7406 66.8112 19.8426 66.9587 19.9831 67.0352C20.0051 67.0473 20.0297 67.0541 20.055 67.0552L20.8259 67.1101C20.8394 67.1104 20.8526 67.1061 20.8633 67.0978C20.874 67.0895 20.8814 67.0777 20.8844 67.0646C20.8874 67.0515 20.8856 67.0377 20.8795 67.0257C20.8734 67.0136 20.8633 67.0041 20.851 66.9986ZM22.1833 66.6014C22.1757 66.5836 22.1597 66.5701 22.139 66.564C22.1183 66.5578 22.0946 66.5595 22.0729 66.5687C22.0513 66.5779 22.0336 66.5938 22.0237 66.6129C22.0139 66.632 22.0126 66.6528 22.0203 66.6706C22.0279 66.6885 22.0439 66.7019 22.0646 66.7081C22.0853 66.7142 22.109 66.7125 22.1307 66.7033C22.1523 66.6942 22.17 66.6783 22.1798 66.6592C22.1897 66.6401 22.191 66.6193 22.1833 66.6014ZM22.2199 66.8344C22.2153 66.8411 22.2134 66.8496 22.2145 66.8594C22.2156 66.8692 22.2195 66.8801 22.2261 66.8916C22.2327 66.903 22.2418 66.9148 22.2529 66.9261C22.2639 66.9375 22.2768 66.9483 22.2907 66.9578C22.3047 66.9674 22.3194 66.9755 22.334 66.9818C22.3486 66.9881 22.3629 66.9924 22.376 66.9944C22.3891 66.9965 22.4008 66.9962 22.4104 66.9937C22.4199 66.9912 22.4273 66.9865 22.4319 66.9799C22.4365 66.9732 22.4383 66.9648 22.4372 66.955C22.4362 66.9452 22.4322 66.9342 22.4257 66.9228C22.4191 66.9113 22.41 66.8995 22.3989 66.8882C22.3878 66.8768 22.3749 66.866 22.361 66.8565C22.3471 66.8469 22.3324 66.8388 22.3178 66.8325C22.3031 66.8262 22.2889 66.8219 22.2758 66.8199C22.2627 66.8179 22.251 66.8181 22.2414 66.8206C22.2318 66.8231 22.2245 66.8278 22.2199 66.8344ZM17.1674 66.9071C17.1662 66.9011 17.1614 66.8959 17.1533 66.8918C17.1453 66.8877 17.1341 66.8848 17.1204 66.8831C17.1068 66.8815 17.0909 66.8813 17.0738 66.8825C17.0566 66.8836 17.0385 66.8861 17.0204 66.8898C16.9839 66.8973 16.9499 66.9093 16.9259 66.9232C16.9019 66.9371 16.8898 66.9517 16.8923 66.9638C16.8936 66.9697 16.8984 66.9749 16.9064 66.9791C16.9145 66.9832 16.9257 66.9861 16.9393 66.9877C16.953 66.9893 16.9689 66.9896 16.986 66.9884C17.0032 66.9873 17.0213 66.9848 17.0394 66.981C17.0759 66.9735 17.1098 66.9615 17.1339 66.9476C17.1579 66.9338 17.1699 66.9192 17.1674 66.9071ZM16.7222 67.3895C16.7241 67.381 16.724 67.3721 16.7217 67.3636C16.7195 67.3551 16.7153 67.3473 16.7094 67.3408C16.7035 67.3343 16.6961 67.3293 16.6879 67.3262C16.6796 67.3231 16.6707 67.322 16.662 67.323L14.55 67.5692C14.541 67.5701 14.5324 67.5731 14.5249 67.5781C14.5174 67.5831 14.5113 67.5898 14.507 67.5976C14.5027 67.6055 14.5004 67.6143 14.5003 67.6233C14.5002 67.6322 14.5023 67.6411 14.5065 67.649L15.9061 70.4335C15.9111 70.4438 15.9191 70.4523 15.9292 70.4579C15.9392 70.4634 15.9507 70.4657 15.9622 70.4644C15.9736 70.4631 15.9843 70.4584 15.9928 70.4507C16.0014 70.4431 16.0073 70.433 16.0098 70.4218L16.7222 67.3895ZM17.8443 70.4701C17.8465 70.481 17.852 70.4909 17.8602 70.4985C17.8683 70.506 17.8786 70.5109 17.8897 70.5124C17.9007 70.5138 17.9119 70.5118 17.9218 70.5066C17.9316 70.5014 17.9396 70.4933 17.9446 70.4834L19.5533 67.466C19.5576 67.458 19.5598 67.4489 19.5595 67.4398C19.5593 67.4306 19.5567 67.4217 19.552 67.4139C19.5473 67.406 19.5406 67.3995 19.5327 67.3949C19.5247 67.3904 19.5157 67.3879 19.5065 67.3879H17.2255C17.2175 67.3879 17.2097 67.3898 17.2025 67.3932C17.1953 67.3967 17.189 67.4018 17.184 67.408C17.1791 67.4142 17.1755 67.4214 17.1738 67.4292C17.172 67.4369 17.172 67.445 17.1737 67.4527L17.8443 70.4701ZM20.851 69.3606L22.555 67.4344C22.5613 67.4276 22.5655 67.4191 22.5669 67.41C22.5683 67.4008 22.567 67.3914 22.563 67.383C22.5591 67.3746 22.5527 67.3676 22.5447 67.3628C22.5367 67.3581 22.5275 67.3558 22.5182 67.3563L22.1252 67.3679C22.0872 67.3689 22.05 67.3793 22.017 67.3982C21.984 67.4171 21.9562 67.4438 21.9362 67.476L20.774 69.3041C20.7688 69.3142 20.7674 69.3259 20.7701 69.337C20.7727 69.3481 20.7792 69.3579 20.7884 69.3647C20.7977 69.3715 20.809 69.3748 20.8205 69.3741C20.8319 69.3733 20.8427 69.3685 20.851 69.3606ZM23.2526 67.4061C23.2465 67.3998 23.2392 67.3948 23.2312 67.3913C23.2231 67.3878 23.2145 67.3859 23.2057 67.3857C23.1969 67.3855 23.1882 67.387 23.18 67.3902C23.1718 67.3934 23.1643 67.3981 23.158 67.4042L22.1635 68.3528C22.1507 68.365 22.1433 68.3818 22.1429 68.3995C22.1425 68.4171 22.1492 68.4342 22.1615 68.4469L22.1684 68.4541C22.1745 68.4604 22.1818 68.4655 22.1898 68.469C22.1979 68.4725 22.2065 68.4744 22.2153 68.4746C22.2241 68.4748 22.2328 68.4732 22.241 68.47C22.2492 68.4669 22.2567 68.4621 22.263 68.4561L23.2575 67.5074C23.2703 67.4952 23.2777 67.4784 23.2781 67.4608C23.2785 67.4431 23.2718 67.4261 23.2595 67.4133L23.2526 67.4061ZM18.7255 69.9528L21.2891 67.4627C21.2902 67.4618 21.2909 67.4606 21.2912 67.4592C21.2915 67.4578 21.2914 67.4564 21.2908 67.4551C21.2903 67.4538 21.2893 67.4527 21.2881 67.452C21.2869 67.4513 21.2855 67.4509 21.2841 67.4511L19.9847 67.4527C19.9688 67.4528 19.9532 67.457 19.9397 67.4649C19.9261 67.4728 19.9151 67.4841 19.9078 67.4976L18.677 69.9162C18.6747 69.9225 18.6744 69.9295 18.6763 69.936C18.6782 69.9426 18.6822 69.9483 18.6876 69.9524C18.693 69.9565 18.6997 69.9588 18.7065 69.9589C18.7133 69.9589 18.72 69.9568 18.7255 69.9528ZM15.3342 70.0908L14.2188 67.9085C14.2045 67.8802 14.1804 67.8579 14.1509 67.8457C14.1215 67.8335 14.0887 67.8322 14.0583 67.842L13.3359 68.0748C13.3256 68.0782 13.3163 68.0841 13.309 68.0921C13.3016 68.1 13.2964 68.1097 13.2939 68.1203C13.2914 68.1308 13.2916 68.1417 13.2946 68.1521C13.2975 68.1625 13.3031 68.172 13.3108 68.1796L15.2757 70.1324C15.2819 70.1381 15.2899 70.1414 15.2983 70.1419C15.3067 70.1424 15.315 70.14 15.3218 70.1351C15.3287 70.1303 15.3337 70.1232 15.3359 70.1152C15.3382 70.1071 15.3376 70.0985 15.3342 70.0908ZM16.9011 72.8354C16.9112 72.8354 16.9479 72.8121 16.9513 72.8071C17.1787 72.1972 17.371 71.6921 17.5282 71.2918C17.5687 71.1866 17.5786 71.0724 17.5566 70.9624C17.172 69.0784 16.9702 68.1364 16.9513 68.1364C16.9323 68.1353 16.711 69.0729 16.2874 70.9491C16.2628 71.0583 16.2698 71.1725 16.3075 71.2785C16.4569 71.6821 16.6391 72.1911 16.8543 72.8055C16.856 72.8104 16.8928 72.8354 16.9011 72.8354ZM13.1235 68.5938L14.5048 70.8277C14.5255 70.8629 14.552 70.8949 14.5834 70.9225L16.2071 72.378C16.2167 72.3859 16.2285 72.3905 16.2409 72.3911C16.2533 72.3916 16.2655 72.3882 16.2757 72.3812C16.286 72.3742 16.2936 72.3641 16.2975 72.3524C16.3015 72.3408 16.3014 72.3281 16.2974 72.3164L15.871 71.2103C15.8586 71.1796 15.8392 71.1518 15.8142 71.1288L13.167 68.5572C13.1621 68.5515 13.1552 68.5479 13.1476 68.5473C13.1401 68.5467 13.1326 68.549 13.1269 68.5539C13.1211 68.5587 13.1175 68.5657 13.1169 68.5732C13.1163 68.5806 13.1187 68.5881 13.1235 68.5938ZM20.8008 68.6371C20.8046 68.6308 20.806 68.6232 20.8047 68.6158C20.8034 68.6084 20.7996 68.6018 20.7939 68.5972C20.7882 68.5926 20.7812 68.5904 20.7741 68.591C20.767 68.5916 20.7604 68.595 20.7556 68.6005L18.0466 71.2386C18.0207 71.2625 18.0007 71.2915 17.9881 71.3234L17.5516 72.4578C17.5473 72.4699 17.5472 72.4831 17.5513 72.4953C17.5553 72.5075 17.5633 72.5181 17.574 72.5253C17.5847 72.5325 17.5975 72.536 17.6104 72.5352C17.6233 72.5344 17.6355 72.5294 17.6453 72.521L19.3075 71.0273C19.3396 70.9987 19.3667 70.9655 19.3877 70.9292L20.8008 68.6371Z" fill="#183A84"/>
<path d="M12.1883 65.8243L19.5863 65.5782C19.5992 65.5783 19.6117 65.5829 19.6215 65.5912C19.6314 65.5996 19.638 65.6111 19.6402 65.6237C19.6424 65.6364 19.64 65.6494 19.6335 65.6606C19.627 65.6717 19.6168 65.6802 19.6047 65.6846L12.5612 67.9468C12.5499 67.9504 12.5401 67.9575 12.5331 67.9671C12.5262 67.9767 12.5226 67.9882 12.5228 68L12.7703 75.3587C12.7701 75.3716 12.7655 75.384 12.7571 75.3938C12.7487 75.4036 12.7372 75.4101 12.7244 75.4123C12.7117 75.4145 12.6986 75.4122 12.6874 75.4057C12.6762 75.3993 12.6677 75.3891 12.6632 75.377L10.389 68.3709C10.3854 68.3597 10.3782 68.3499 10.3686 68.343C10.359 68.3361 10.3473 68.3325 10.3355 68.3327L2.93748 68.5789C2.92455 68.5787 2.91208 68.5741 2.90224 68.5658C2.89239 68.5575 2.8858 68.5459 2.88361 68.5333C2.88142 68.5206 2.88377 68.5076 2.89026 68.4964C2.89674 68.4853 2.90694 68.4768 2.91908 68.4724L9.96256 66.2102C9.97388 66.2067 9.98373 66.1995 9.99066 66.19C9.99759 66.1804 10.0012 66.1688 10.001 66.157L9.75353 58.7983C9.75365 58.7854 9.75831 58.773 9.76668 58.7632C9.77506 58.7534 9.78663 58.7469 9.79937 58.7447C9.81211 58.7425 9.82521 58.7449 9.83639 58.7513C9.84757 58.7577 9.85613 58.7679 9.86056 58.78L12.1348 65.7861C12.1384 65.7973 12.1455 65.8071 12.1552 65.814C12.1648 65.8209 12.1764 65.8245 12.1883 65.8243Z" fill="#183A84"/>
<path d="M285.489 69.439L292.124 72.9071C292.135 72.9127 292.143 72.9219 292.148 72.9332C292.152 72.9444 292.152 72.9569 292.148 72.9682C292.144 72.9796 292.136 72.9891 292.126 72.995C292.115 73.0009 292.103 73.0028 292.091 73.0003L284.755 71.4633C284.744 71.4615 284.733 71.463 284.723 71.4678C284.714 71.4726 284.706 71.4804 284.701 71.4899L281.214 78.0902C281.209 78.1009 281.2 78.1093 281.188 78.1137C281.177 78.1181 281.164 78.1183 281.153 78.1143C281.142 78.1102 281.132 78.1022 281.126 78.0916C281.12 78.0811 281.118 78.0687 281.121 78.0569L282.666 70.7597C282.668 70.7492 282.666 70.7383 282.661 70.7287C282.657 70.7191 282.649 70.7113 282.639 70.7065L276.004 67.2384C275.993 67.2328 275.985 67.2236 275.98 67.2123C275.976 67.2011 275.975 67.1886 275.979 67.1773C275.984 67.1659 275.992 67.1564 276.002 67.1505C276.013 67.1446 276.025 67.1427 276.037 67.1452L283.373 68.6822C283.384 68.684 283.395 68.6825 283.404 68.6777C283.414 68.6729 283.422 68.6651 283.427 68.6556L286.913 62.0553C286.919 62.0446 286.928 62.0362 286.94 62.0318C286.951 62.0274 286.963 62.0272 286.975 62.0312C286.986 62.0353 286.996 62.0433 287.002 62.0539C287.008 62.0644 287.01 62.0768 287.007 62.0886L285.462 69.3858C285.46 69.3963 285.462 69.4072 285.466 69.4168C285.471 69.4264 285.479 69.4342 285.489 69.439Z" fill="#183A84"/>
</g>
<defs>
<clipPath id="clip0_661_83534">
<rect width="300" height="84" fill="white"/>
</clipPath>
</defs>
</svg>
