<svg width="300" height="86" viewBox="0 0 300 86" fill="none" xmlns="http://www.w3.org/2000/svg">
<g clip-path="url(#clip0_362_350728)">
<path d="M139.784 40.9932L137.969 55.3265H133.684L135.491 41.115C136.155 35.8619 134.455 33.7979 131.041 33.7979C126.926 33.7979 124.926 35.912 124.284 40.9645L122.469 55.2979H118.184L119.991 41.0864C120.562 36.5355 118.905 33.7692 115.305 33.7692C111.705 33.7692 109.412 35.9765 108.769 41.0864L106.969 55.305H102.684L104.555 40.5274C105.269 34.794 109.555 29.7344 116.112 29.7344C119.805 29.7344 122.126 31.3755 123.298 34.2852C124.255 32.923 125.515 31.8028 126.978 31.013C128.44 30.2232 130.066 29.7854 131.726 29.7344C137.855 29.7845 140.712 33.5399 139.784 40.9932ZM248.684 29.7845C247.022 29.8345 245.395 30.2717 243.931 31.0616C242.467 31.8514 241.206 32.9722 240.248 34.3354C239.076 31.4257 236.755 29.7845 233.062 29.7845C226.512 29.7845 222.234 34.8012 221.498 40.5775L219.626 55.3552H223.912L225.712 41.1365C226.362 36.0267 228.569 33.8194 232.248 33.8194C235.926 33.8194 237.505 36.5857 236.934 41.1365L235.126 55.3552H239.412L241.226 41.0219C241.869 35.955 243.869 33.8552 247.984 33.8552C251.398 33.8552 253.098 35.9192 252.434 41.1724L250.712 55.3552H254.998L256.812 41.0219C257.748 33.5399 254.905 29.7845 248.684 29.7845ZM207.255 29.7845C200.826 29.7845 196.119 33.9125 195.226 40.9502L193.405 55.3552H197.612L199.426 41.0219C200.069 35.9049 202.491 33.7979 206.234 33.7979C210.676 33.7979 212.341 35.8189 211.684 41.0219L209.869 55.3552H214.076L215.905 40.9072C216.841 33.3965 213.512 29.7845 207.248 29.7845H207.255ZM190.476 39.2159L189.476 47.0992C188.834 52.166 185.662 55.8282 178.648 55.8282C173.555 55.8282 169.484 52.8755 170.076 48.4179C170.791 43.0214 175.298 40.0687 182.776 40.0687H186.141L186.291 38.9005C186.755 35.2384 185.119 33.7405 181.048 33.7405C178.372 33.6582 175.753 34.529 173.655 36.1987L174.112 32.5795C175.641 31.0674 178.326 29.7989 181.969 29.7989C188.305 29.7845 191.248 33.117 190.476 39.2159ZM185.712 43.6234H182.298C177.298 43.6234 174.805 45.1714 174.441 47.9234C174.162 50.1235 176.091 51.865 179.319 51.865C183.105 51.865 184.841 50.36 185.298 46.748L185.712 43.6234ZM280.848 39.2087L279.848 47.092C279.205 52.1589 276.034 55.821 269.019 55.821C263.926 55.821 259.855 52.8684 260.448 48.4107C261.162 43.0142 265.669 40.0615 273.148 40.0615H276.512L276.662 38.8934C277.126 35.2312 275.491 33.7334 271.419 33.7334C268.743 33.6523 266.125 34.5229 264.026 36.1915L264.484 32.5724C266.005 31.0602 268.698 29.7917 272.341 29.7917C278.669 29.7845 281.619 33.117 280.848 39.2159V39.2087ZM276.076 43.6234H272.662C267.662 43.6234 265.169 45.1714 264.805 47.9234C264.526 50.1235 266.455 51.865 269.684 51.865C273.469 51.865 275.205 50.36 275.662 46.748L276.076 43.6234ZM299.048 31.1892C298.044 30.5179 296.844 30.2049 295.641 30.3005C290.776 30.3005 286.941 34.0057 286.062 40.9502L284.241 55.3552H288.526L290.305 41.2799C290.984 35.9335 292.448 34.2924 295.769 34.2924C296.762 34.2678 297.744 34.4945 298.626 34.9517L299.048 31.1892ZM164.562 30.2719H163.348L161.526 44.6769C160.926 49.414 157.305 51.8435 154.384 51.8435C150.498 51.8435 148.669 49.9659 149.269 44.942L150.769 33.074C151.005 31.1964 150.234 30.3077 147.991 30.3077H146.869L144.998 45.0495C144.048 52.553 147.326 55.8425 153.269 55.8425C155.562 55.8425 158.305 54.8105 160.562 51.435L160.155 54.66C159.305 58.9959 155.998 61.11 152.134 61.11C148.726 61.11 146.769 60.3934 145.326 59.175L144.869 62.7584C146.141 64.1917 148.548 65.023 151.119 65.023C157.484 65.023 163.262 61.5974 164.505 54.273L167.191 33.0597C167.441 31.1605 166.669 30.2719 164.562 30.2719Z" fill="#582900"/>
<path d="M202.248 72.9209C199.691 72.9209 198.027 70.9501 198.391 68.0691C198.798 64.8656 200.798 62.8948 203.52 62.8948C206.084 62.8948 207.605 64.8298 207.241 67.7108C206.827 70.9501 204.862 72.9209 202.248 72.9209ZM203.084 64.4499C201.534 64.4499 200.341 65.7184 200.091 67.7251C199.812 69.9539 200.712 71.3586 202.605 71.3586C204.227 71.3586 205.284 69.9826 205.527 68.0834C205.834 65.7041 204.998 64.4571 203.091 64.4571L203.084 64.4499ZM172.62 62.8733C170.148 62.8733 168.334 64.4643 167.984 67.1733L167.27 72.7274H168.891L169.605 67.2091C169.855 65.2383 170.784 64.4213 172.234 64.4213C173.948 64.4213 174.584 65.2024 174.334 67.2091L173.62 72.7274H175.241L175.955 67.1518C176.32 64.2708 175.034 62.8804 172.62 62.8804V62.8733ZM181.905 62.8733C180.795 62.8241 179.709 63.2095 178.877 63.9483L178.698 65.3458C179.509 64.7012 180.521 64.366 181.555 64.3998C183.127 64.3998 183.755 64.9803 183.577 66.3921L183.52 66.8436H182.22C179.362 66.8436 177.584 67.9831 177.32 70.0614C177.105 71.7814 178.67 72.9281 180.634 72.9281C183.341 72.9281 184.562 71.4948 184.812 69.5598L185.198 66.5211C185.477 64.1633 184.341 62.8804 181.891 62.8804L181.905 62.8733ZM183.205 69.4236C183.027 70.8139 182.362 71.3944 180.898 71.3944C179.655 71.3944 178.905 70.7279 179.02 69.8751C179.155 68.8073 180.112 68.2124 182.041 68.2124H183.355L183.205 69.4236ZM213.57 62.8804C211.098 62.8804 209.284 64.4714 208.927 67.1804L208.212 72.7346H209.834L210.548 67.2163C210.798 65.2454 211.727 64.4284 213.17 64.4284C214.884 64.4284 215.527 65.2096 215.27 67.2163L214.555 72.7346H216.177L216.891 67.1589C217.27 64.2708 215.984 62.8804 213.57 62.8804ZM274.284 62.8804C271.812 62.8804 269.998 64.4714 269.648 67.1804L268.934 72.7346H270.555L271.27 67.2163C271.52 65.2454 272.448 64.4284 273.898 64.4284C275.612 64.4284 276.248 65.2096 275.998 67.2163L275.284 72.7346H276.905L277.62 67.1589C277.955 64.2708 276.67 62.8804 274.284 62.8804ZM222.655 62.8804C221.545 62.8312 220.459 63.2167 219.627 63.9554L219.448 65.3529C220.259 64.7083 221.271 64.3731 222.305 64.4069C223.877 64.4069 224.505 64.9874 224.327 66.3993L224.27 66.8508H222.97C220.112 66.8508 218.334 67.9903 218.07 70.0686C217.855 71.7886 219.42 72.9353 221.384 72.9353C224.091 72.9353 225.312 71.5019 225.562 69.5669L225.948 66.5283C226.212 64.1633 225.077 62.8804 222.627 62.8804H222.655ZM223.955 69.4308C223.777 70.8211 223.112 71.4016 221.648 71.4016C220.405 71.4016 219.655 70.7351 219.77 69.8823C219.905 68.8144 220.862 68.2196 222.791 68.2196H224.105L223.955 69.4308ZM257.527 63.4251C257.139 63.166 256.677 63.0449 256.212 63.0811C254.334 63.0811 252.855 64.5144 252.52 67.1876L251.805 72.7418H253.448L254.162 67.3166C254.427 65.2526 254.991 64.6219 256.305 64.6219C256.685 64.6129 257.06 64.6991 257.398 64.8728L257.527 63.4251ZM262.105 71.3084H261.562C260.662 71.3084 260.091 70.9644 260.241 69.7533L261.348 60.9956C261.455 60.1428 261.02 59.7271 260.355 59.7271H259.848L258.555 69.9468C258.305 71.9033 259.22 72.8134 261.112 72.8134C261.384 72.8172 261.656 72.7859 261.92 72.7203L262.105 71.3084ZM230.905 71.3084H230.362C229.462 71.3084 228.891 70.9644 229.041 69.7533L230.148 60.9956C230.255 60.1428 229.82 59.7271 229.155 59.7271H228.648L227.355 69.9468C227.105 71.9033 228.02 72.8134 229.912 72.8134C230.184 72.8175 230.456 72.7862 230.72 72.7203L230.905 71.3084ZM241.834 62.8948C240.724 62.8456 239.638 63.231 238.805 63.9698L238.57 65.3529C239.38 64.7083 240.393 64.3731 241.427 64.4069C242.998 64.4069 243.627 64.9874 243.448 66.3993L243.391 66.8508H242.091C239.234 66.8508 237.455 67.9903 237.191 70.0686C236.977 71.7886 238.541 72.9353 240.505 72.9353C243.212 72.9353 244.434 71.5019 244.684 69.5669L245.07 66.5283C245.377 64.1633 244.241 62.8804 241.784 62.8804L241.834 62.8948ZM243.134 69.4451C242.955 70.8354 242.291 71.4159 240.827 71.4159C239.584 71.4159 238.834 70.7494 238.948 69.8966C239.084 68.8288 240.041 68.2339 241.97 68.2339H243.284L243.134 69.4451ZM264.87 60.6158C264.915 60.3174 265.06 60.0432 265.28 59.8377C265.501 59.6322 265.784 59.5074 266.084 59.4834C266.226 59.4822 266.366 59.5124 266.495 59.5719C266.624 59.6313 266.738 59.7186 266.829 59.8274C266.921 59.9362 266.987 60.064 267.024 60.2015C267.06 60.339 267.066 60.4829 267.041 60.6229C266.999 60.9266 266.851 61.2055 266.623 61.4101C266.396 61.6148 266.104 61.732 265.798 61.7409C265.654 61.7454 265.512 61.7176 265.38 61.6595C265.249 61.6015 265.132 61.5147 265.038 61.4054C264.944 61.2962 264.876 61.1673 264.838 61.0282C264.8 60.8891 264.794 60.7433 264.82 60.6014L264.87 60.6158ZM267.362 71.3299H266.905C266.005 71.3299 265.477 70.9501 265.612 69.7389L266.327 64.3639C266.372 64.2056 266.379 64.0385 266.346 63.877C266.313 63.7155 266.242 63.5645 266.138 63.4368C266.034 63.3092 265.9 63.2089 265.749 63.1444C265.598 63.08 265.433 63.0533 265.27 63.0668H264.762L263.891 69.9611C263.67 71.7384 264.384 72.6773 265.97 72.8278C266.112 72.8399 266.256 72.8399 266.398 72.8278C266.672 72.8216 266.937 72.7288 267.155 72.5626L267.362 71.3299ZM247.712 60.6014C247.763 60.2977 247.916 60.0207 248.147 59.8171C248.377 59.6135 248.67 59.4957 248.977 59.4834C249.118 59.4835 249.258 59.5145 249.386 59.5744C249.514 59.6342 249.628 59.7215 249.719 59.83C249.81 59.9385 249.877 60.0657 249.914 60.2027C249.951 60.3396 249.958 60.4831 249.934 60.6229C249.89 60.926 249.742 61.2041 249.515 61.4085C249.288 61.6129 248.996 61.7306 248.691 61.7409C248.548 61.7441 248.406 61.7154 248.275 61.6569C248.144 61.5984 248.027 61.5116 247.934 61.4027C247.84 61.2938 247.772 61.1655 247.734 61.027C247.695 60.8884 247.688 60.7431 247.712 60.6014ZM250.212 71.3156H249.748C248.848 71.3156 248.32 70.9358 248.455 69.7246L249.17 64.3496C249.211 64.1964 249.216 64.0357 249.184 63.8803C249.152 63.7248 249.085 63.579 248.987 63.4543C248.889 63.3297 248.764 63.2297 248.621 63.1624C248.477 63.0952 248.32 63.0624 248.162 63.0668H247.655L246.784 69.9611C246.555 71.7384 247.277 72.6773 248.862 72.8278C249.007 72.8402 249.153 72.8402 249.298 72.8278C249.572 72.8216 249.837 72.7288 250.055 72.5626L250.212 71.3156ZM194.698 60.6014C194.747 60.2971 194.9 60.0194 195.131 59.8156C195.361 59.6117 195.655 59.4943 195.962 59.4834C196.104 59.4835 196.244 59.5145 196.372 59.5744C196.5 59.6342 196.614 59.7215 196.705 59.83C196.796 59.9385 196.863 60.0657 196.9 60.2027C196.937 60.3396 196.943 60.4831 196.92 60.6229C196.873 60.9163 196.728 61.1849 196.508 61.3843C196.289 61.5837 196.008 61.7019 195.712 61.7194C195.568 61.7288 195.423 61.7054 195.289 61.651C195.155 61.5966 195.035 61.5126 194.937 61.4052C194.84 61.2978 194.768 61.1698 194.726 61.0307C194.685 60.8915 194.675 60.7448 194.698 60.6014ZM197.191 71.3156H196.727C195.827 71.3156 195.298 70.9358 195.434 69.7246L196.148 64.3496C196.189 64.197 196.194 64.037 196.163 63.8821C196.132 63.7272 196.065 63.5817 195.968 63.4573C195.871 63.3328 195.746 63.2327 195.604 63.1649C195.462 63.0971 195.306 63.0635 195.148 63.0668H194.641L193.77 69.9611C193.548 71.7384 194.262 72.6773 195.848 72.8278C195.993 72.8402 196.139 72.8402 196.284 72.8278C196.558 72.8216 196.823 72.7288 197.041 72.5626L197.191 71.3156ZM286.298 70.7208C285.512 71.2099 284.601 71.4589 283.677 71.4374C283.308 71.4731 282.936 71.4264 282.587 71.3006C282.239 71.1748 281.922 70.9731 281.661 70.71C281.399 70.4468 281.199 70.1288 281.074 69.7787C280.95 69.4287 280.904 69.0553 280.941 68.6854H283.32C286.62 68.6854 287.505 67.9688 287.72 66.2774C287.765 65.8362 287.714 65.3904 287.571 64.9708C287.427 64.5512 287.194 64.168 286.889 63.8476C286.583 63.5272 286.211 63.2773 285.8 63.1153C285.388 62.9532 284.947 62.8829 284.505 62.9091C281.948 62.9091 279.734 64.9874 279.341 68.1193C278.991 70.9071 280.605 72.9496 283.255 72.9496C284.266 73.0198 285.271 72.75 286.112 72.1828L286.298 70.7208ZM281.155 66.9511C281.285 66.2444 281.65 65.603 282.192 65.1327C282.733 64.6624 283.418 64.3912 284.134 64.3639C285.648 64.3639 286.277 65.2884 286.12 66.3348C286.027 67.0514 285.605 67.2736 283.262 67.3094H281.077L281.155 66.9511ZM292.941 67.1661C290.998 66.7361 290.67 66.4494 290.748 65.8116C290.848 65.0018 291.57 64.4356 293.212 64.4356C294.02 64.4087 294.812 64.6618 295.455 65.1523L295.634 63.7189C295.333 63.4031 294.967 63.1582 294.56 63.002C294.154 62.8458 293.718 62.7823 293.284 62.8159C290.884 62.8159 289.277 64.2493 289.077 65.8546C288.891 67.2879 289.662 67.9186 291.42 68.2984C293.562 68.7714 293.855 69.1083 293.755 69.9109C293.634 70.8713 292.948 71.3443 291.52 71.3443C291.013 71.3699 290.508 71.2859 290.037 71.0979C289.566 70.91 289.141 70.6224 288.791 70.2549H288.698L288.612 70.9716C288.462 72.1326 289.67 72.8923 291.291 72.8923C293.491 72.8923 295.198 71.8029 295.455 69.7819C295.634 68.4704 294.812 67.5889 292.948 67.1661H292.941ZM191.37 72.2903L191.52 71.1293C191.051 71.311 190.55 71.3916 190.048 71.3658C188.998 71.3658 188.534 70.7853 188.705 69.4093L189.312 64.6148H192.37L192.57 63.0668H189.498L189.748 61.0744H189.548C189.116 61.1921 188.731 61.4427 188.448 61.7911C188.115 62.2262 187.905 62.7438 187.841 63.2889L187.041 69.5884C186.762 71.8173 187.555 72.9353 189.698 72.9353C190.009 72.9684 190.323 72.9272 190.615 72.8151C190.906 72.7029 191.168 72.5231 191.377 72.2903H191.37Z" fill="#A59C87"/>
<path d="M38.4206 35.7691L38.4992 35.9053C38.5861 36.0519 38.6214 36.2235 38.5992 36.3927C38.5927 36.4582 38.5713 36.5213 38.5366 36.5773C38.502 36.6332 38.4549 36.6804 38.3992 36.7151C38.3237 36.7496 38.2405 36.7638 38.1578 36.7562C38.0752 36.7487 37.9959 36.7197 37.9278 36.6721L24.9349 23.3278C24.7243 23.1181 24.5581 22.8677 24.4464 22.5918C24.3347 22.3159 24.2797 22.0202 24.2849 21.7225C24.3492 21.0488 24.8778 20.368 25.8564 19.6943C26.4401 19.1913 27.1952 18.9345 27.9635 18.9776C28.5349 19.1067 28.9778 19.6943 29.5064 20.626L38.4206 35.7691ZM16.5492 36.7725C16.1616 36.7563 15.7788 36.8642 15.4564 37.0807C14.9064 37.4748 14.5778 38.2703 14.4921 39.4528C14.3385 40.2123 14.4872 41.002 14.9064 41.653C15.3064 42.0901 16.0421 42.1761 17.0992 42.1761L34.8635 42.341C35.0027 42.3463 35.139 42.3005 35.2469 42.212C35.3547 42.1236 35.4267 41.9987 35.4492 41.8608C35.4417 41.7658 35.4065 41.6751 35.3481 41.6C35.2897 41.5248 35.2106 41.4685 35.1206 41.438L17.1421 36.837C16.9467 36.7984 16.7483 36.7768 16.5492 36.7725ZM18.0492 56.1225C18.1604 56.1562 18.2759 56.1731 18.3921 56.1726C19.0446 56.0801 19.6661 55.8346 20.2064 55.456L35.6778 46.6768C35.8019 46.6108 35.8975 46.5013 35.9463 46.3691C35.995 46.2369 35.9935 46.0913 35.9421 45.9601C35.8963 45.8935 35.8341 45.8399 35.7614 45.8047C35.6888 45.7695 35.6083 45.7539 35.5278 45.7595H35.4421L17.5849 50.7761C17.3011 50.8546 17.036 50.9896 16.8052 51.173C16.5745 51.3565 16.383 51.5847 16.2421 51.844C15.9635 52.4603 16.0778 53.3131 16.5921 54.381C17.1064 55.4488 17.5421 55.9433 18.0492 56.1082V56.1225ZM15.4564 48.9558C15.9686 49.2464 16.5749 49.3211 17.1421 49.1636L35.1564 44.5411C35.2325 44.5056 35.2978 44.4504 35.3455 44.3811C35.3932 44.3118 35.4216 44.231 35.4278 44.147C35.4278 43.8818 35.1349 43.6596 34.7849 43.6596H34.6206L17.0849 43.8173C16.0278 43.8173 15.2921 43.9033 14.8921 44.3405C14.4714 44.9909 14.3226 45.7811 14.4778 46.5407C14.5778 47.7232 14.9064 48.5258 15.4564 48.9128V48.9558ZM35.5706 17.1573C35.4926 16.8716 35.3581 16.6045 35.1753 16.3718C34.9925 16.1392 34.765 15.9457 34.5064 15.8028C34.2806 15.7063 34.0375 15.6575 33.7921 15.6595C33.1656 15.6907 32.5536 15.8595 31.9992 16.154C31.0349 16.6198 30.4635 17.1072 30.3064 17.5873C30.1492 18.0675 30.4278 18.8343 30.9564 19.7373L39.6778 35.3033C39.7447 35.4268 39.854 35.5217 39.9853 35.5704C40.1167 35.6192 40.2612 35.6185 40.3921 35.5685C40.4678 35.513 40.5261 35.437 40.5603 35.3494C40.5944 35.2618 40.603 35.1663 40.5849 35.074L35.5706 17.1573ZM20.2064 30.5446C19.4349 30.1003 18.6349 29.7133 18.0635 29.8997C17.4921 30.086 17.0635 30.6163 16.6349 31.591C16.2064 32.5657 16.0064 33.5188 16.2849 34.128C16.4271 34.3898 16.6206 34.6201 16.8538 34.8049C17.0871 34.9896 17.3552 35.1251 17.6421 35.203L35.5421 40.2197C35.6226 40.2252 35.7031 40.2096 35.7757 40.1744C35.8484 40.1392 35.9106 40.0857 35.9564 40.019C35.9847 39.961 35.9995 39.8973 35.9995 39.8327C35.9995 39.7681 35.9847 39.7043 35.9564 39.6463C35.8916 39.4886 35.7759 39.3573 35.6278 39.2737L35.4849 39.1948L20.2064 30.5446ZM40.5921 50.8836C40.5979 50.8001 40.5819 50.7164 40.5456 50.641C40.5092 50.5655 40.4538 50.501 40.3849 50.4537C40.2471 50.4126 40.0992 50.4226 39.9681 50.4818C39.837 50.541 39.7315 50.6455 39.6706 50.7761L39.5849 50.9195L30.9349 66.2203C30.4064 67.1376 30.1135 67.8257 30.2849 68.3703C30.4564 68.915 30.9992 69.3736 31.9778 69.8036C32.5326 70.0971 33.1443 70.2658 33.7706 70.2981C34.016 70.2999 34.2591 70.2511 34.4849 70.1548C34.7454 70.0116 34.9745 69.8172 35.1586 69.5833C35.3427 69.3493 35.4779 69.0806 35.5564 68.7931L40.5921 50.8836ZM72.2064 39.4672C72.1135 38.2846 71.7921 37.4891 71.2421 37.095C70.9875 36.9405 70.7046 36.8387 70.4102 36.7956C70.1158 36.7525 69.8157 36.769 69.5278 36.8442L51.5206 41.4595C51.4454 41.4953 51.3812 41.5509 51.3347 41.6202C51.2882 41.6896 51.2611 41.7702 51.2564 41.8536C51.2564 42.1188 51.5421 42.341 51.8992 42.341H52.0706L69.5992 42.1833C70.6564 42.1833 71.3921 42.0973 71.7921 41.6602C72.212 41.0095 72.3607 40.2195 72.2064 39.46V39.4672ZM66.4921 55.4632C67.0317 55.843 67.6535 56.0886 68.3064 56.1798C68.4225 56.1798 68.5379 56.1629 68.6492 56.1297C69.1564 55.972 69.6421 55.413 70.0778 54.4383C70.5135 53.4636 70.7064 52.5177 70.4278 51.8942C70.2849 51.6336 70.0911 51.4047 69.8578 51.2212C69.6246 51.0377 69.3569 50.9034 69.0706 50.8263L51.1706 45.8096C51.0868 45.8009 51.0021 45.815 50.9255 45.8503C50.8488 45.8856 50.783 45.9408 50.7349 46.0103C50.6925 46.1486 50.7017 46.2976 50.7609 46.4295C50.82 46.5614 50.9251 46.6672 51.0564 46.727L51.1992 46.813L66.4921 55.4632ZM43.3492 36.3998C42.0498 36.3998 40.7796 36.7863 39.6991 37.5105C38.6186 38.2347 37.7763 39.264 37.2787 40.4683C36.7811 41.6727 36.6506 42.998 36.9035 44.2768C37.1565 45.5556 37.7817 46.7304 38.7 47.6528C39.6183 48.5752 40.7886 49.2037 42.0628 49.4589C43.3371 49.7141 44.6582 49.5846 45.859 49.0867C47.0599 48.5887 48.0868 47.7447 48.8097 46.6614C49.5326 45.5781 49.9192 44.304 49.9206 43.0003C49.9206 41.251 49.2285 39.5732 47.9964 38.3356C46.7642 37.098 45.0927 36.4017 43.3492 36.3998ZM24.2849 64.2782C24.3492 64.9518 24.8778 65.6326 25.8564 66.3063C26.4401 66.8093 27.1952 67.0661 27.9635 67.023C28.5349 66.894 28.9778 66.3063 29.5064 65.3746L38.5706 50.0308C38.6375 49.9161 38.6619 49.7814 38.6397 49.6503C38.6175 49.5193 38.5501 49.4003 38.4492 49.3141C38.393 49.2807 38.3288 49.2634 38.2635 49.264C38.1392 49.2671 38.0191 49.3097 37.9206 49.3858L24.9278 62.68C24.719 62.8893 24.5544 63.1387 24.4439 63.4133C24.3334 63.6879 24.2794 63.9821 24.2849 64.2782ZM46.0992 35.117C46.0918 35.2 46.1065 35.2835 46.1416 35.359C46.1767 35.4345 46.2311 35.4993 46.2992 35.547C46.437 35.588 46.5849 35.578 46.716 35.5188C46.8471 35.4596 46.9527 35.3552 47.0135 35.2245L47.1421 35.117L55.7635 19.7803C56.2921 18.863 56.5849 18.175 56.4135 17.6303C56.2421 17.0857 55.6992 16.627 54.7278 16.197C53.7564 15.767 52.8064 15.5663 52.1992 15.8458C51.9385 15.9887 51.7092 16.183 51.5251 16.417C51.341 16.651 51.2058 16.9198 51.1278 17.2075L46.0992 35.117ZM73.5706 73.3512V73.2795C74.0709 71.9729 74.493 70.6375 74.8349 69.2805C73.369 70.0019 71.7063 70.2161 70.1064 69.8896C70.4635 71.1796 70.2635 72.7563 69.4992 74.634C70.8509 74.2909 72.1817 73.8697 73.4849 73.3727L73.5706 73.3512ZM33.5706 79.7438C32.6349 80.7041 31.1564 81.3205 29.1706 81.5856C30.1414 82.6021 31.1718 83.5593 32.2564 84.4523L32.3135 84.4953H32.3849C33.7495 84.258 35.0994 83.9422 36.4278 83.5493C34.8349 82.3167 33.8635 81.041 33.5706 79.7438ZM11.2992 67.1376C14.1564 68.571 16.2206 68.8147 17.2278 67.8543L21.5135 63.6618C20.3631 63.2912 19.3875 62.5112 18.7706 61.4688C17.8564 60.2003 17.5564 59.0608 17.7849 58.0503C17.8064 57.9434 17.835 57.838 17.8706 57.735L17.5564 57.6561C16.5778 57.3551 15.7778 56.5166 15.1064 55.0976C14.5148 54.042 14.3293 52.8054 14.5849 51.6218L8.82779 53.2415C7.14208 53.7503 6.64208 56.5453 6.49208 58.767C6.39142 60.5735 6.43441 62.3853 6.62065 64.185V64.2567L7.0635 64.5791C8.4103 65.5361 9.8261 66.3913 11.2992 67.1376ZM51.7421 78.117L50.2635 72.3048C49.37 73.1211 48.2076 73.5779 46.9992 73.5876C45.4349 73.7095 44.3206 73.4371 43.5706 72.7348C43.4924 72.6602 43.4185 72.5813 43.3492 72.4983C43.2811 72.5823 43.2071 72.6613 43.1278 72.7348C42.4135 73.4515 41.2635 73.7095 39.6921 73.5876C38.4847 73.5792 37.3228 73.1251 36.4278 72.312L34.9492 78.117C34.5492 79.8226 36.6992 81.7003 38.5635 82.9258L38.9206 83.1623C40.1823 83.9638 41.4946 84.682 42.8492 85.3123L43.3492 85.5416L43.5206 85.4628C45.127 84.7366 46.6745 83.8859 48.1492 82.9186C49.9992 81.7003 52.1421 79.8298 51.7421 78.117ZM68.6492 29.8997C68.5382 29.8651 68.4225 29.8482 68.3064 29.8495C67.6537 29.9412 67.0319 30.1868 66.4921 30.5662L51.0206 39.3238C50.8953 39.3886 50.7987 39.498 50.7498 39.6307C50.7009 39.7633 50.7032 39.9095 50.7564 40.0405C50.8107 40.1197 50.8871 40.181 50.9761 40.2167C51.0651 40.2524 51.1626 40.2609 51.2564 40.2411L69.1135 35.2245C69.3975 35.1464 69.6628 35.0116 69.8936 34.8281C70.1243 34.6446 70.3158 34.4162 70.4564 34.1567C70.7349 33.5403 70.6206 32.6875 70.1064 31.6196C69.5921 30.5518 69.1564 30.0502 68.6492 29.8997ZM57.5564 81.5856C55.9268 81.4777 54.3792 80.8298 53.1564 79.7438C52.8206 81.041 51.8492 82.3167 50.2635 83.5421C51.6044 83.9224 52.9662 84.2239 54.3421 84.4452H54.4135L54.4706 84.4021C55.5537 83.5253 56.5841 82.5848 57.5564 81.5856ZM29.1349 4.41498C31.1206 4.68015 32.5992 5.29648 33.5349 6.25682C33.8635 4.95965 34.8349 3.68398 36.3921 2.45848C35.0513 2.07791 33.6894 1.7764 32.3135 1.55548H32.2421L32.1849 1.60565C31.1146 2.48168 30.0962 3.41972 29.1349 4.41498ZM60.8564 5.96298C60.2421 5.96298 59.6492 5.96298 59.0921 6.02032C56.8564 6.16365 54.0921 6.69398 53.5778 8.37098L51.9635 14.1473C53.1432 13.8915 54.3754 14.0776 55.4278 14.6705C56.8564 15.3513 57.6706 16.154 57.9706 17.1287C58.0044 17.2317 58.0307 17.3371 58.0492 17.444C58.1519 17.4062 58.2569 17.3751 58.3635 17.3508C58.5697 17.3032 58.7805 17.2792 58.9921 17.2792C59.9983 17.3427 60.9619 17.7099 61.7564 18.3327C62.7952 18.9483 63.5729 19.9249 63.9421 21.0775L68.1206 16.7775C69.3135 15.5018 68.3921 12.8358 67.4064 10.8292C66.5921 9.21352 65.651 7.66542 64.5921 6.19948L64.5492 6.14215H64.3635C63.8492 6.08482 62.4778 5.96298 60.8564 5.96298ZM53.1635 6.24965C54.0992 5.28932 55.5778 4.67298 57.5635 4.40782C56.5907 3.39356 55.5604 2.43641 54.4778 1.54115L54.4206 1.49815H54.3492C52.9733 1.71932 51.6115 2.02083 50.2706 2.40115C51.8564 3.67682 52.8564 4.95965 53.1635 6.25682V6.24965ZM13.0921 12.6495V12.7212C12.5932 14.0283 12.1711 15.3635 11.8278 16.7201C13.6778 15.9533 15.2706 15.7455 16.5564 16.1038C16.1992 14.8138 16.4064 13.2372 17.1706 11.3595C15.8186 11.7011 14.4877 12.1223 13.1849 12.6208L13.0921 12.6495ZM51.1206 68.8433C51.1944 69.1365 51.3276 69.4113 51.512 69.6505C51.6963 69.8897 51.9278 70.0882 52.1921 70.2337C52.4178 70.3304 52.661 70.3792 52.9064 70.377C53.5351 70.3457 54.1494 70.1769 54.7064 69.8825C55.6706 69.4166 56.2349 68.9293 56.3921 68.4492C56.5492 67.969 56.2706 67.2021 55.7421 66.2991L47.0135 50.6973C46.9582 50.6087 46.8828 50.5346 46.7934 50.481C46.704 50.4274 46.6031 50.396 46.4992 50.3891C46.434 50.3892 46.3699 50.4065 46.3135 50.4393C46.2346 50.4938 46.1735 50.5705 46.1379 50.6598C46.1023 50.7491 46.0938 50.8469 46.1135 50.941L51.1206 68.8433ZM34.9492 7.88365L36.4278 13.6887C37.3206 12.8757 38.4794 12.4193 39.6849 12.4058C41.2564 12.284 42.3706 12.5635 43.1206 13.2587C43.1987 13.3334 43.2726 13.4123 43.3421 13.4952L43.5635 13.2587C44.3135 12.542 45.4278 12.284 46.9921 12.4058C48.2 12.4182 49.3614 12.8747 50.2564 13.6887L51.7421 7.88365C52.1421 6.17798 49.9992 4.30032 48.1564 3.08198C46.7891 2.17833 45.3565 1.37822 43.8706 0.688318L43.3706 0.458984L43.1992 0.537818C41.5937 1.26299 40.0463 2.11116 38.5706 3.07482C36.6849 4.30032 34.5492 6.17082 34.9492 7.88365ZM84.6278 54.1731L84.6706 54.1158V54.0442C84.4511 52.6635 84.1506 51.2971 83.7706 49.952C82.5492 51.543 81.2778 52.5176 79.9849 52.8186C80.9421 53.7575 81.5564 55.241 81.8206 57.2333C82.8152 56.2667 83.7525 55.2425 84.6278 54.166V54.1731ZM27.6206 6.02032C27.0635 6.02032 26.4564 5.96298 25.8349 5.96298C24.6254 5.96301 23.4167 6.0252 22.2135 6.14932H22.1421L22.0349 6.29982C21.0022 7.73802 20.0828 9.25478 19.2849 10.8363C18.2992 12.8502 17.3706 15.5162 18.5706 16.7918L22.7492 21.0918C23.1178 19.939 23.8956 18.9621 24.9349 18.347C26.2278 17.4583 27.3349 17.1358 28.3349 17.3652C28.4416 17.3894 28.5466 17.4205 28.6492 17.4583C28.6677 17.3514 28.694 17.246 28.7278 17.143C29.0278 16.1683 29.8635 15.3657 31.2706 14.6848C32.3226 14.0906 33.5553 13.9045 34.7349 14.1617L33.1206 8.38532C32.6135 6.70115 29.8492 6.17082 27.6206 6.02032ZM85.7135 43.0003V42.9358C84.9793 41.283 84.1146 39.6917 83.1278 38.1772C81.3492 35.5112 79.6992 34.257 78.3564 34.5938L72.5635 36.0773C73.3759 36.9746 73.831 38.1403 73.8421 39.3525C73.9635 40.922 73.6849 42.0471 72.9921 42.7925C72.9184 42.8716 72.8397 42.9458 72.7564 43.0146C72.8399 43.0857 72.9187 43.1623 72.9921 43.244C73.7064 43.9607 73.9635 45.1217 73.8421 46.684C73.8293 47.8937 73.3743 49.0566 72.5635 49.952L78.3564 51.4355C78.4946 51.4676 78.6359 51.4845 78.7778 51.4856C80.0349 51.4856 81.5349 50.2243 83.1349 47.8378C84.0716 46.4003 84.8978 44.8933 85.6064 43.33L85.7135 43.0003ZM6.63493 21.7297V21.8013C6.44185 23.6053 6.39408 25.422 6.49208 27.2337C6.64208 29.4697 7.1635 32.2503 8.83493 32.752L14.5921 34.3717C14.3371 33.188 14.5226 31.9517 15.1135 30.8958C15.7921 29.4625 16.5921 28.6455 17.5635 28.3373L17.8778 28.2585C17.8409 28.1577 17.8099 28.0548 17.7849 27.9503C17.5564 26.9542 17.8778 25.8362 18.7635 24.5462C19.3784 23.502 20.3547 22.7214 21.5064 22.3532L17.2206 18.1607C16.2135 17.2147 14.1564 17.444 11.2849 18.8773C9.67422 19.6935 8.1312 20.6378 6.67065 21.701L6.63493 21.7297ZM80.0635 21.7297L80.0064 21.6867L79.7849 21.5003C78.3924 20.5015 76.9263 19.6103 75.3992 18.8343C72.5421 17.401 70.4778 17.1573 69.4635 18.1177L65.1778 22.3102C66.3298 22.6778 67.3063 23.4585 67.9206 24.5031C68.8135 25.8003 69.1349 26.9398 68.9135 27.9503C68.8896 28.055 68.8585 28.158 68.8206 28.2585L69.1349 28.3373C70.1135 28.6383 70.9135 29.4768 71.5849 30.8958C72.1771 31.9513 72.3627 33.1881 72.1064 34.3717L77.8564 32.7377C79.5278 32.2288 80.0492 29.4625 80.1992 27.2265C80.2982 25.4197 80.2528 23.608 80.0635 21.8085V21.7297ZM81.8064 28.7386C81.7073 30.3703 81.0717 31.9228 79.9992 33.1533C81.2921 33.4902 82.5635 34.4648 83.7849 36.02C84.1659 34.6751 84.4664 33.3086 84.6849 31.9278V31.8562L84.6421 31.7988C83.7578 30.7258 82.8109 29.7064 81.8064 28.7458V28.7386ZM2.07065 31.8346L2.02779 31.892V31.9636C2.24605 33.3469 2.54659 34.7158 2.92779 36.063C4.14922 34.472 5.42065 33.4973 6.7135 33.1605C5.77065 32.2503 5.15636 30.731 4.89208 28.7386C3.8925 29.7148 2.95043 30.7486 2.07065 31.8346ZM73.5706 12.6495H73.5064C72.2034 12.1516 70.8725 11.7304 69.5206 11.3882C70.2849 13.2443 70.4921 14.8353 70.1278 16.1253C70.5586 16.0091 71.0031 15.9512 71.4492 15.9533C72.6251 15.9925 73.7822 16.2602 74.8564 16.7417C74.5164 15.3849 74.0966 14.0496 73.5992 12.7427L73.5706 12.6495ZM80.0349 64.2495V64.1778C80.2219 62.3878 80.2673 60.5857 80.1706 58.7885C80.0206 56.5381 79.4992 53.7718 77.8278 53.2487L72.1421 51.6433C72.3964 52.827 72.2109 54.0631 71.6206 55.1192C70.9421 56.5525 70.1421 57.3695 69.1706 57.6705C69.0677 57.7038 68.9628 57.7301 68.8564 57.7493C68.894 57.8523 68.925 57.9577 68.9492 58.0646C69.1706 59.0608 68.8564 60.1788 67.9706 61.476C67.3553 62.5197 66.3791 63.3001 65.2278 63.669L69.5135 67.8615C70.5206 68.8075 72.5849 68.5781 75.4635 67.1448C77.0476 66.3229 78.5642 65.3764 79.9992 64.314L80.0349 64.2495ZM59.0778 79.9803C59.6349 80.0161 60.2349 80.0377 60.8564 80.0377C62.0635 80.0376 63.2699 79.9754 64.4706 79.8513H64.5421L64.5778 79.794L64.7421 79.5718C65.7327 78.1753 66.6185 76.7069 67.3921 75.1786C68.3849 73.1648 69.3135 70.4917 68.1064 69.216L63.9278 64.916C63.559 66.0705 62.7814 67.0495 61.7421 67.668C60.4492 68.5566 59.3421 68.8792 58.3421 68.6498C58.2353 68.6259 58.1303 68.5948 58.0278 68.5566C58.0076 68.6632 57.9813 68.7684 57.9492 68.872C57.6492 69.8538 56.8135 70.6565 55.3992 71.3301C54.3473 71.9243 53.1146 72.1105 51.9349 71.8533L53.5706 77.6296C54.0849 79.3066 56.8492 79.837 59.0778 79.9803ZM71.2206 48.92C71.7635 48.5258 72.0921 47.7231 72.1849 46.5478C72.2635 45.48 72.1278 44.7418 71.7635 44.3477C71.3992 43.9535 70.6278 43.8245 69.5706 43.8245L51.7992 43.6668C51.6609 43.6617 51.5255 43.7078 51.4188 43.7963C51.3121 43.8849 51.2416 44.0097 51.2206 44.147C51.2291 44.2417 51.2646 44.332 51.3229 44.407C51.3811 44.482 51.4597 44.5385 51.5492 44.5698L69.5421 49.1636C70.1196 49.3074 70.7303 49.2173 71.2421 48.9128L71.2206 48.92ZM13.0921 73.3512H13.1564C14.4595 73.8565 15.7902 74.2872 17.1421 74.6412C16.3778 72.785 16.1706 71.194 16.5278 69.8968C15.2421 70.2551 13.6706 70.0473 11.7992 69.2805C12.14 70.637 12.5597 71.9723 13.0564 73.2795L13.0921 73.3512ZM4.89208 57.2548C5.15636 55.2625 5.77065 53.779 6.72779 52.8402C5.43493 52.5033 4.1635 51.5287 2.94208 49.9735C2.56004 51.3088 2.25713 52.6657 2.03493 54.037V54.1087L2.07779 54.166C2.9549 55.2499 3.89461 56.2813 4.89208 57.2548ZM22.0349 79.6292L22.1849 79.8298H22.2564C23.4595 79.9541 24.6683 80.0163 25.8778 80.0162C26.4921 80.0162 27.0849 80.0162 27.6349 79.9588C29.8778 79.8155 32.6349 79.2851 33.1564 77.6081L34.7706 71.8318C33.591 72.089 32.3583 71.9028 31.3064 71.3086C29.8778 70.6278 29.0635 69.8251 28.7635 68.8505C28.7297 68.7474 28.7034 68.642 28.6849 68.5351C28.5823 68.5731 28.4773 68.6042 28.3706 68.6283C27.3778 68.8577 26.2706 68.5351 24.9706 67.6465C23.9304 67.0291 23.1525 66.0497 22.7849 64.8945L18.6064 69.1945C17.4135 70.4702 18.3421 73.1361 19.3206 75.1428C20.0964 76.7078 20.992 78.2102 21.9992 79.6363L22.0349 79.6292ZM44.4849 35.074C44.5796 35.0664 44.67 35.0311 44.7449 34.9725C44.8198 34.9139 44.8759 34.8346 44.9064 34.7443L49.4992 16.7201C49.5741 16.4336 49.5906 16.1348 49.5477 15.8417C49.5047 15.5486 49.4032 15.2673 49.2492 15.0145C48.8564 14.4627 48.0635 14.1402 46.8849 14.047C46.6921 14.047 46.5064 14.047 46.3349 14.047C45.7541 13.9919 45.173 14.1498 44.6992 14.4913C44.2635 14.8927 44.1778 15.6308 44.1778 16.6915L44.0206 34.5221C44.0219 34.654 44.069 34.7812 44.1537 34.882C44.2385 34.9827 44.3556 35.0506 44.4849 35.074ZM64.5564 23.8868C64.2585 23.8763 63.9617 23.9282 63.685 24.0393C63.4083 24.1503 63.1577 24.3181 62.9492 24.5318L49.6564 37.5608C49.6101 37.6298 49.5825 37.7097 49.5762 37.7926C49.57 37.8755 49.5853 37.9586 49.6206 38.0338C49.7196 38.1447 49.8556 38.2155 50.003 38.2326C50.1504 38.2498 50.299 38.2122 50.4206 38.127L50.5635 38.041L65.6706 29.1185C66.5849 28.5882 67.1849 28.1438 67.3135 27.5705C67.3588 26.7993 67.1025 26.0409 66.5992 25.4563C65.9064 24.4745 65.2278 23.9513 64.5564 23.8797V23.8868ZM42.0064 14.4627C41.3567 14.0442 40.5705 13.8952 39.8135 14.047C38.6349 14.1402 37.8349 14.4627 37.4492 15.0145C37.2937 15.2693 37.1913 15.5531 37.1484 15.8488C37.1054 16.1444 37.1227 16.4457 37.1992 16.7345L41.8064 34.8088C41.8417 34.8852 41.8968 34.9507 41.9659 34.9986C42.0349 35.0465 42.1155 35.075 42.1992 35.0812C42.4635 35.0812 42.6849 34.7873 42.6849 34.4361V34.257L42.5278 16.6628C42.5278 15.6022 42.4421 14.864 42.0064 14.4627ZM57.1849 65.3961C57.7135 66.3206 58.1564 66.9155 58.7278 67.0445C58.8157 67.0534 58.9042 67.0534 58.9921 67.0445C59.6671 66.9721 60.307 66.7058 60.8349 66.2776C61.8135 65.604 62.3349 64.9231 62.4064 64.2567C62.4139 63.9582 62.3607 63.6613 62.2502 63.3841C62.1397 63.1068 61.9741 62.8551 61.7635 62.6442L48.7635 49.3285C48.6953 49.2807 48.6156 49.2522 48.5327 49.2458C48.4497 49.2395 48.3666 49.2557 48.2921 49.2926C48.2365 49.3259 48.1895 49.3717 48.1548 49.4265C48.12 49.4812 48.0986 49.5434 48.0921 49.608C48.0699 49.7771 48.1052 49.9487 48.1921 50.0953L48.2706 50.2315L57.1849 65.3961ZM0.949219 43.0003L1.02779 43.1723C1.75379 44.7866 2.60398 46.3417 3.57065 47.8235C5.1635 50.21 6.6635 51.4713 7.92065 51.4713C8.06499 51.4718 8.20887 51.455 8.34922 51.4212L14.1421 49.9376C13.3281 49.0437 12.8705 47.8804 12.8564 46.6697C12.7349 45.1002 13.0135 43.975 13.7064 43.2296C13.7805 43.1487 13.8592 43.0722 13.9421 43.0003C13.8587 42.9315 13.78 42.8573 13.7064 42.7781C12.9921 42.0615 12.7349 40.9005 12.8564 39.3382C12.8681 38.1261 13.3231 36.9606 14.1349 36.063L8.34208 34.5795C8.20387 34.5473 8.06253 34.5304 7.92065 34.5293C6.6635 34.5293 5.15636 35.7906 3.5635 38.1843C2.60237 39.6645 1.75698 41.2171 1.03493 42.8283L0.949219 43.0003ZM62.3778 21.7225C62.3135 21.0488 61.7849 20.368 60.8064 19.6943C60.2771 19.2683 59.6379 19.0023 58.9635 18.9275C58.8757 18.9175 58.787 18.9175 58.6992 18.9275C58.1278 19.0565 57.6849 19.6441 57.1564 20.5758L48.1564 35.9627C48.0904 36.0782 48.0671 36.2134 48.0906 36.3445C48.1141 36.4755 48.1829 36.5941 48.2849 36.6793C48.3713 36.7186 48.467 36.732 48.5608 36.718C48.6545 36.704 48.7423 36.6632 48.8135 36.6005L61.7706 23.3207C61.9772 23.1104 62.1394 22.8605 62.2474 22.5859C62.3554 22.3113 62.4071 22.0176 62.3992 21.7225H62.3778ZM64.5206 62.121C65.1921 62.0565 65.8706 61.5261 66.5349 60.5515C67.0383 59.9669 67.2945 59.2085 67.2492 58.4373C67.1206 57.864 66.5349 57.4196 65.6135 56.8893L50.3635 47.8235C50.2607 47.7742 50.1488 47.7474 50.0349 47.7447C49.9548 47.7397 49.8747 47.7563 49.8031 47.7929C49.7315 47.8294 49.671 47.8845 49.6278 47.9525C49.5868 48.0387 49.5724 48.1352 49.5864 48.2297C49.6004 48.3241 49.6422 48.4123 49.7064 48.4828L62.9635 61.4832C63.1715 61.6925 63.4203 61.8565 63.6944 61.9651C63.9685 62.0736 64.2619 62.1242 64.5564 62.1138L64.5206 62.121ZM44.6849 71.538C45.1582 71.8807 45.7397 72.0387 46.3206 71.9823C46.4921 71.9823 46.6778 71.9823 46.8778 71.9823C48.0564 71.8892 48.8564 71.5666 49.2421 71.0148C49.3968 70.7597 49.4981 70.4756 49.5399 70.1799C49.5816 69.8842 49.5629 69.583 49.4849 69.2948L44.8849 51.199C44.8486 51.124 44.7931 51.0599 44.7241 51.0133C44.6551 50.9668 44.575 50.9393 44.4921 50.9338C44.2278 50.9338 44.0064 51.2276 44.0064 51.5788V51.7436L44.1635 69.3307C44.1706 70.3985 44.2849 71.1367 44.6849 71.538ZM22.1421 23.8797C21.4706 23.9442 20.7921 24.4745 20.1278 25.4563C19.6245 26.0409 19.3682 26.7993 19.4135 27.5705C19.5421 28.1438 20.1278 28.5882 21.0564 29.1185L36.3349 38.1772C36.4382 38.2241 36.5502 38.2486 36.6635 38.2488C36.7431 38.2553 36.823 38.2401 36.8946 38.2048C36.9663 38.1694 37.0271 38.1153 37.0706 38.0481C37.1107 37.9617 37.1245 37.8654 37.1106 37.7712C37.0966 37.6769 37.0554 37.5888 36.9921 37.5178L23.7349 24.5175C23.3469 24.145 22.8419 23.9195 22.3064 23.8797H22.1421ZM22.1421 62.1138C22.4396 62.1218 22.7356 62.0687 23.012 61.9577C23.2884 61.8468 23.5392 61.6805 23.7492 61.4688L37.0421 48.4327C37.089 48.3639 37.117 48.284 37.1233 48.201C37.1296 48.1179 37.1139 48.0347 37.0778 47.9596C36.9788 47.8487 36.8428 47.778 36.6954 47.7608C36.548 47.7437 36.3994 47.7812 36.2778 47.8665L36.1349 47.9525L21.0278 56.8822C20.1135 57.4125 19.5135 57.8568 19.3849 58.4301C19.3389 59.2014 19.5952 59.9601 20.0992 60.5443C20.7921 61.519 21.4706 62.0493 22.1421 62.1138ZM42.2135 50.9266C42.1191 50.9351 42.0291 50.9707 41.9544 51.0292C41.8796 51.0877 41.8233 51.1665 41.7921 51.2563L37.1992 69.2805C37.1243 69.567 37.1078 69.8658 37.1508 70.1589C37.1937 70.452 37.2952 70.7334 37.4492 70.9862C37.8421 71.538 38.6349 71.8605 39.8135 71.9537C40.5714 72.1026 41.3574 71.951 42.0064 71.5308C42.4349 71.1295 42.5206 70.3913 42.5206 69.3307L42.6849 51.5C42.6883 51.3624 42.6415 51.2283 42.5534 51.1228C42.4653 51.0172 42.342 50.9475 42.2064 50.9266H42.2135Z" fill="#FDB515"/>
</g>
<defs>
<clipPath id="clip0_362_350728">
<rect width="300" height="86" fill="white"/>
</clipPath>
</defs>
</svg>
