<svg width="300" height="76" viewBox="0 0 300 76" fill="none" xmlns="http://www.w3.org/2000/svg">
<g clip-path="url(#clip0_318_71419)">
<path d="M170.715 6.92109C170.954 6.97208 171.228 7.10114 171.537 7.30826C172.706 8.08738 173.575 8.66256 174.145 9.0338C174.154 9.03948 174.163 9.04338 174.173 9.04525C174.183 9.04713 174.193 9.04695 174.203 9.04472C174.213 9.04249 174.223 9.03825 174.231 9.03227C174.24 9.02629 174.247 9.01868 174.252 9.0099C175.02 7.76554 175.668 6.45745 176.197 5.08562C176.217 5.03409 176.251 4.98927 176.295 4.95629C176.339 4.92332 176.392 4.90353 176.447 4.89921L176.972 4.85619C177.009 4.85269 177.047 4.86384 177.077 4.88737C177.107 4.9109 177.127 4.94504 177.133 4.98285C177.211 5.48633 177.222 5.8042 177.166 5.93644C176.352 7.85556 175.91 8.95254 175.14 10.4678C174.016 12.6808 173.075 14.7075 172.318 16.5478C172.307 16.576 172.302 16.6067 172.305 16.6372C172.308 16.6676 172.318 16.6969 172.335 16.7226C172.351 16.7482 172.374 16.7694 172.4 16.7843C172.427 16.7992 172.457 16.8075 172.487 16.8083L173.546 16.8393C173.582 16.8404 173.615 16.8549 173.641 16.88C173.667 16.905 173.683 16.939 173.687 16.9756L173.739 17.6232C173.742 17.6671 173.736 17.7113 173.719 17.7524C173.703 17.7935 173.677 17.8303 173.644 17.8598C173.128 18.3139 172.754 18.5617 172.523 18.6031C172.049 18.6907 171.623 18.7831 171.245 18.8803C171.149 18.9051 171.063 18.9604 171 19.0381C169.684 20.6537 168.124 22.5369 166.948 24.3963C166.937 24.4139 166.931 24.4342 166.93 24.455C166.93 24.4758 166.934 24.4964 166.944 24.5146C166.954 24.5329 166.969 24.5482 166.987 24.5589C167.004 24.5696 167.025 24.5753 167.045 24.5756C168.033 24.5875 169.271 23.8729 170.159 23.4117C170.198 23.3921 170.233 23.3648 170.262 23.3316C170.29 23.2984 170.312 23.2598 170.326 23.2181C170.43 22.9074 170.543 22.6867 170.665 22.5561C170.723 22.4936 170.797 22.4481 170.879 22.4246C171.455 22.2621 172.09 22.2764 172.784 22.4676C172.858 22.488 172.925 22.5286 172.976 22.5847C173.501 23.1607 173.546 24.0569 173.675 24.5971C173.697 24.6908 173.708 24.787 173.708 24.8839C173.708 25.8175 173.713 26.7942 173.722 27.8139C173.73 28.6042 173.685 29.5801 173.587 30.7416C173.345 33.6255 173.215 35.1494 173.197 35.3135C173.01 37.0702 172.72 39.288 171.387 40.3969C171.288 40.4789 171.168 40.5314 171.041 40.5487C170.914 40.566 170.785 40.5474 170.668 40.4949C169.539 39.9859 168.185 39.2928 167.986 37.9592C167.924 37.5529 167.792 37.2263 167.589 36.9793C167.564 36.9482 167.531 36.9231 167.495 36.906C167.458 36.8889 167.418 36.8802 167.378 36.8804C167.338 36.8806 167.298 36.8898 167.261 36.9074C167.225 36.9249 167.192 36.9503 167.166 36.9817C166.259 38.0907 164.409 39.9572 162.957 40.0408C162.921 40.0423 162.884 40.0346 162.852 40.0183C162.819 40.002 162.791 39.9777 162.77 39.9476C161.891 38.6571 163.04 38.0333 163.508 37.008C163.523 36.9754 163.526 36.9387 163.516 36.9046C163.507 36.8704 163.485 36.841 163.456 36.8216L163.152 36.6161C163.122 36.5958 163.098 36.5692 163.079 36.5382C163.061 36.5072 163.05 36.4725 163.048 36.4368L162.582 30.6962C162.579 30.6607 162.566 30.6269 162.544 30.5988C162.522 30.5707 162.493 30.5496 162.46 30.5379C162.426 30.5263 162.39 30.5247 162.356 30.5332C162.321 30.5418 162.29 30.5602 162.266 30.5863C161.699 31.1901 161.037 32.0306 160.28 33.1076C158.006 36.3452 155.359 40.0432 152.337 44.2017C151.305 45.6229 150.481 46.5343 149.865 46.9358C148.836 47.605 146.352 48.6518 145.34 47.4281C145.318 47.4014 145.307 47.3673 145.309 47.3325C145.311 47.2977 145.325 47.2646 145.349 47.2393C150.627 41.8596 155.204 36.1787 160.219 29.7593C161.091 28.6424 161.693 27.802 162.024 27.2379C162.061 27.1723 162.08 27.098 162.078 27.0229C162.039 25.8438 162.27 24.7062 162.772 23.61C162.788 23.5741 162.815 23.544 162.848 23.5235C162.882 23.5031 162.921 23.4932 162.96 23.4953L164.703 23.5957C164.76 23.5994 164.817 23.5878 164.868 23.5623C164.92 23.5367 164.963 23.4979 164.995 23.4499L166.456 21.2512C166.464 21.2396 166.469 21.226 166.47 21.212C166.471 21.1979 166.468 21.1838 166.461 21.1711C166.454 21.1584 166.445 21.1476 166.432 21.1399C166.42 21.1321 166.406 21.1276 166.392 21.1269L164.088 21.06C164.047 21.0587 164.008 21.0448 163.975 21.02C163.942 20.9953 163.917 20.9609 163.903 20.9213C163.752 20.48 163.35 20.3478 162.696 20.5246C160.593 21.0886 158.688 21.6288 156.981 22.145C153.154 23.3033 150.55 24.0275 149.169 24.3174C148.162 24.5301 147.057 23.4857 146.732 22.654C146.718 22.6167 146.715 22.576 146.724 22.5372C146.734 22.4984 146.754 22.4633 146.784 22.4366C147.053 22.1896 147.244 22.047 147.356 22.0088C148.405 21.6423 149.826 21.2655 151.62 20.8783C152.76 20.6314 155.17 20.1717 158.848 19.4993C161.069 19.0954 163.687 18.4836 165.416 17.8312C166.599 17.3866 166.516 15.0995 166.307 14.1196C166.303 14.1005 166.295 14.0824 166.283 14.0666C166.272 14.0508 166.257 14.0376 166.24 14.0279C166.223 14.0182 166.204 14.0122 166.184 14.0103C166.165 14.0084 166.145 14.0106 166.126 14.0168C164.323 14.6382 163.012 14.9011 161.285 14.3371C160.368 14.0375 159.638 13.3644 159.095 12.3176C159.087 12.302 159.083 12.2847 159.083 12.2672C159.083 12.2498 159.088 12.2326 159.096 12.2174C159.104 12.2022 159.116 12.1894 159.13 12.1802C159.145 12.171 159.161 12.1656 159.178 12.1646C161.433 12.0005 163.772 11.6882 166.195 11.2278C166.274 11.2132 166.346 11.174 166.402 11.1157C166.458 11.0574 166.494 10.983 166.506 10.9027L168.014 0.836313C168.032 0.717928 168.074 0.604644 168.139 0.503944C168.203 0.403243 168.288 0.317419 168.388 0.252139C168.488 0.18686 168.6 0.14361 168.718 0.125249C168.836 0.106887 168.956 0.113831 169.071 0.145621L169.138 0.167131C169.385 0.243443 169.6 0.399121 169.751 0.610251C169.902 0.821381 169.979 1.07629 169.972 1.33581L169.739 9.29669C169.738 9.33476 169.746 9.37256 169.763 9.40674C169.779 9.44091 169.804 9.47041 169.834 9.49262C169.865 9.51484 169.9 9.52908 169.938 9.53409C169.975 9.5391 170.013 9.53472 170.048 9.52134L170.869 9.20826C171.004 9.15757 171.121 9.06942 171.206 8.95422C171.292 8.83903 171.344 8.7016 171.354 8.5582C171.383 8.19812 171.149 7.68428 170.653 7.01669C170.645 7.00688 170.641 6.99475 170.64 6.98204C170.639 6.96934 170.642 6.95674 170.649 6.94608C170.656 6.93541 170.666 6.92724 170.678 6.92274C170.69 6.91825 170.703 6.91767 170.715 6.92109ZM172.682 10.9577L169.822 11.6962C169.734 11.7189 169.656 11.7689 169.599 11.8389C169.542 11.909 169.508 11.9954 169.504 12.0857L169.216 17.0783C169.214 17.1068 169.222 17.1352 169.237 17.1592C169.253 17.1832 169.275 17.2016 169.302 17.2118C169.328 17.2219 169.357 17.2233 169.385 17.2156C169.412 17.2079 169.436 17.1916 169.454 17.1691C170.394 15.9917 171.214 14.8302 171.912 13.6846C172.378 12.9214 172.723 12.1017 172.948 11.2254C172.957 11.1884 172.957 11.1495 172.947 11.1127C172.937 11.0758 172.918 11.0422 172.891 11.0152C172.864 10.9882 172.83 10.9686 172.794 10.9586C172.757 10.9485 172.719 10.9482 172.682 10.9577ZM169.827 24.6807C168.612 25.0806 167.628 25.5945 166.874 26.2222C166.816 26.2708 166.77 26.3329 166.74 26.4032C166.711 26.4736 166.699 26.5501 166.706 26.6261L166.782 27.5678C166.784 27.6057 166.798 27.6421 166.82 27.6729C166.842 27.7037 166.872 27.7277 166.907 27.7422C168.09 28.2377 169.033 28.801 169.734 29.4319C169.753 29.4499 169.777 29.4621 169.802 29.4672C169.828 29.4724 169.854 29.4702 169.879 29.461C169.903 29.4518 169.925 29.436 169.941 29.4152C169.957 29.3944 169.967 29.3696 169.969 29.3435C170.159 27.6992 170.146 26.1657 169.929 24.7429C169.927 24.7316 169.923 24.7208 169.916 24.7114C169.91 24.7019 169.902 24.694 169.892 24.6881C169.882 24.6821 169.871 24.6784 169.86 24.6772C169.849 24.6759 169.837 24.6771 169.827 24.6807ZM167.879 32.2329C168.207 31.9111 168.373 31.5191 168.378 31.0571C168.378 31.0202 168.372 30.9837 168.358 30.9499C168.344 30.9162 168.323 30.8859 168.297 30.8611C167.81 30.3903 167.188 30.4405 166.558 30.462C166.516 30.4632 166.475 30.4814 166.445 30.5126C166.416 30.5439 166.399 30.5857 166.399 30.6293C166.401 32.1301 166.519 33.4263 166.755 34.5177C166.766 34.5703 166.79 34.6193 166.825 34.6604C166.859 34.7016 166.903 34.7336 166.952 34.7537C167.002 34.7737 167.055 34.7813 167.108 34.7755C167.162 34.7698 167.212 34.751 167.257 34.7208C168.012 34.2062 168.717 33.5593 169.373 32.7802C169.413 32.7319 169.438 32.6727 169.444 32.6105L169.57 31.2841C169.572 31.2636 169.568 31.2429 169.559 31.2246C169.549 31.2063 169.534 31.1913 169.516 31.1814C169.499 31.1714 169.478 31.167 169.458 31.1687C169.437 31.1704 169.418 31.1781 169.402 31.1909L167.945 32.3644C167.944 32.3658 167.942 32.3668 167.94 32.3674C167.938 32.3681 167.936 32.3683 167.934 32.3681C167.932 32.3678 167.93 32.3672 167.928 32.3661C167.927 32.3651 167.925 32.3637 167.924 32.362L167.874 32.2998C167.867 32.2901 167.863 32.2778 167.864 32.2655C167.865 32.2531 167.87 32.2415 167.879 32.2329ZM169.154 34.9503L168.378 35.9684C168.339 36.0194 168.317 36.0814 168.315 36.1457C168.313 36.21 168.33 36.2733 168.366 36.3269C168.466 36.4798 168.69 36.6758 169.038 36.9148C169.054 36.9255 169.073 36.9317 169.092 36.933C169.111 36.9342 169.131 36.9304 169.148 36.9219C169.165 36.9134 169.179 36.9005 169.19 36.8846C169.2 36.8686 169.206 36.8502 169.207 36.8312L169.311 35.0076C169.312 34.9891 169.306 34.9708 169.296 34.9554C169.286 34.9401 169.271 34.9284 169.253 34.922C169.236 34.9157 169.217 34.915 169.199 34.9201C169.182 34.9251 169.166 34.9357 169.154 34.9503Z" fill="#D82128"/>
<path d="M75.4579 37.9951C75.4579 42.9677 74.4844 47.8917 72.5931 52.4858C70.7018 57.08 67.9297 61.2543 64.4351 64.7705C60.9404 68.2867 56.7916 71.0759 52.2256 72.9788C47.6597 74.8818 42.7659 75.8612 37.8237 75.8612C32.8815 75.8612 27.9877 74.8818 23.4217 72.9788C18.8557 71.0759 14.7069 68.2867 11.2123 64.7705C4.15447 57.6692 0.189453 48.0378 0.189453 37.9951C0.189453 27.9523 4.15447 18.3209 11.2123 11.2196C18.27 4.11837 27.8424 0.128906 37.8237 0.128906C42.7659 0.128906 47.6597 1.10834 52.2256 3.0113C56.7916 4.91425 60.9404 7.70345 64.4351 11.2196C67.9297 14.7358 70.7018 18.9102 72.5931 23.5043C74.4844 28.0985 75.4579 33.0224 75.4579 37.9951ZM58.3533 12.3487C58.3554 12.3416 58.3553 12.3342 58.3533 12.3272C58.3512 12.3202 58.3472 12.3139 58.3417 12.3091C58.3362 12.3043 58.3294 12.3012 58.3222 12.3002C58.315 12.2992 58.3077 12.3002 58.3011 12.3032C57.7437 12.5757 57.3367 12.6458 57.0802 12.5136C56.2061 12.0619 55.3605 11.0342 56.2085 10.0806C56.5948 9.64404 56.9939 9.62094 57.4056 10.0113C57.4772 10.0792 57.5242 10.1677 57.5378 10.2602C57.5514 10.3526 57.5305 10.4426 57.4792 10.5132C57.3462 10.6948 57.081 10.6908 56.6835 10.5012C56.6659 10.4924 56.6457 10.4899 56.6264 10.494C56.607 10.4982 56.5897 10.5088 56.5773 10.524C56.565 10.5393 56.5584 10.5582 56.5587 10.5776C56.559 10.597 56.5662 10.6156 56.579 10.6303L56.9733 11.1274C56.9875 11.1448 57.0043 11.1601 57.0232 11.1728C57.4143 11.4389 57.7136 11.4269 57.921 11.137C58.3391 10.5554 58.3153 9.98023 57.8498 9.41142C56.7928 8.11608 55.7619 9.21545 55.3367 10.3053C55.3163 10.3579 55.2845 10.4053 55.2434 10.4439C55.2024 10.4825 55.1533 10.5114 55.0998 10.5283C55.0462 10.5453 54.9895 10.55 54.9339 10.542C54.8783 10.534 54.8252 10.5135 54.7785 10.4821C52.3557 8.85218 50.5172 7.57595 49.2631 6.65343C48.7294 6.26149 48.2235 5.77553 47.7453 5.19557C47.2441 4.58614 46.4959 5.31985 46.0351 5.64727C45.9421 5.71336 45.8352 5.75701 45.7228 5.77484C45.6103 5.79266 45.4953 5.78417 45.3866 5.75004C44.2655 5.39872 42.959 4.7845 41.8545 4.7845C41.2164 4.7861 40.5529 4.90559 39.864 5.14299C39.7941 5.16695 39.7193 5.17268 39.6465 5.15964C39.5738 5.1466 39.5055 5.11522 39.4481 5.06843C39.3907 5.02165 39.346 4.96098 39.3182 4.8921C39.2904 4.82322 39.2805 4.74838 39.2892 4.67457C39.3795 3.91297 39.7999 3.44056 40.5505 3.25733C40.9986 3.1474 41.3296 3.11553 41.5434 3.16174C41.5699 3.1666 41.5973 3.16242 41.6212 3.14985C41.6451 3.13728 41.6641 3.11705 41.6753 3.09235C41.6865 3.06766 41.6892 3.03992 41.6829 3.01352C41.6767 2.98713 41.6618 2.96359 41.6408 2.94664C41.2908 2.671 40.7952 2.50371 40.1538 2.44476C38.7096 2.30853 37.4626 3.18086 37.0873 4.58136C36.959 5.05935 36.8078 5.39712 36.6336 5.59469C36.0042 6.31406 34.9543 7.0645 34.0279 6.76815C33.6495 6.64547 33.286 6.47817 32.9377 6.26626C32.8695 6.2226 32.8158 6.15937 32.7833 6.08463C32.5838 5.60664 32.697 5.20354 33.1229 4.87532C33.1909 4.82289 33.2704 4.78744 33.3546 4.77188C33.4389 4.75632 33.5256 4.76111 33.6077 4.78583C33.6898 4.81056 33.7649 4.85453 33.8268 4.91413C33.8887 4.97372 33.9356 5.04724 33.9638 5.12865L34.0778 5.45847C34.1051 5.5373 34.1496 5.60902 34.2079 5.66839C34.2663 5.72777 34.3371 5.7733 34.4151 5.80169C34.4931 5.83008 34.5765 5.8406 34.6591 5.83249C34.7417 5.82438 34.8214 5.79785 34.8925 5.75482C35.7049 5.2593 36.1253 4.51763 36.1538 3.52979C36.1657 3.12589 35.9115 2.72916 35.5956 2.55947C34.6898 2.07193 33.9978 2.29738 33.5196 3.23582C33.5098 3.25498 33.506 3.27664 33.5086 3.29801C33.5112 3.31938 33.5201 3.33948 33.5342 3.3557C33.5482 3.37192 33.5668 3.38352 33.5875 3.38899C33.6082 3.39446 33.6301 3.39356 33.6503 3.38639L34.2275 3.18564C34.2568 3.1756 34.2882 3.17287 34.3189 3.17767C34.3495 3.18247 34.3786 3.19467 34.4036 3.21321C34.4285 3.23176 34.4487 3.25611 34.4623 3.28419C34.4759 3.31226 34.4825 3.34323 34.4816 3.37444L34.4674 3.84526C34.4655 3.9112 34.4382 3.97381 34.3911 4.01977C34.3441 4.06574 34.2811 4.09145 34.2156 4.09142C32.4484 4.08903 31.4721 4.60048 31.9187 6.58413C31.9216 6.59681 31.9211 6.61001 31.9173 6.62247C31.9135 6.63492 31.9066 6.64623 31.897 6.65531C31.8875 6.6644 31.8758 6.67097 31.863 6.67441C31.8501 6.67784 31.8366 6.67803 31.8237 6.67494C30.8759 6.44312 29.9733 6.17306 29.0256 6.13482C25.4009 5.99142 22.1285 7.02228 19.2085 9.2274C18.5457 9.72689 17.1966 10.8717 17.3486 11.7631C17.4911 12.6115 16.845 12.5016 16.6194 13.025C16.4072 13.5126 16.294 13.9834 16.2797 14.4375C16.278 14.4644 16.2858 14.4912 16.3018 14.5129C16.3178 14.5346 16.3409 14.55 16.367 14.5563C16.3931 14.5626 16.4206 14.5594 16.4446 14.5473C16.4686 14.5351 16.4876 14.5149 16.4982 14.49C16.8973 13.6368 17.3985 13.2497 18.3438 13.1445C19.7453 12.9844 20.2298 11.8778 20.9685 10.5968C21.0521 10.4525 21.1543 10.3199 21.2726 10.2025C23.4309 8.05951 26.0121 7.16886 29.0161 7.53054C30.2963 7.6835 31.275 8.43633 32.0374 9.0123C34.1372 10.5968 36.5861 10.0806 38.2916 8.23318C38.6115 7.88585 38.8466 7.62853 38.9971 7.46123C39.024 7.43114 39.0581 7.40836 39.0963 7.39499C39.1345 7.38163 39.1755 7.37811 39.2156 7.38476C41.3597 7.76077 43.4832 7.47876 45.5861 6.53872C45.6173 6.52457 45.6507 6.51801 45.6835 6.5196L47.2132 6.60325C47.2724 6.60793 47.3295 6.62766 47.3795 6.6606L54.3462 11.3473C54.4254 11.4006 54.4898 11.4731 54.5335 11.558C54.5771 11.6428 54.5985 11.7373 54.5956 11.8324L54.5505 13.3883C54.5474 13.4671 54.5611 13.5461 54.5909 13.6201C54.9899 14.6334 56.3415 15.4819 57.3058 14.5713C57.3354 14.5432 57.3557 14.5068 57.3641 14.4668C57.3724 14.4268 57.3685 14.3852 57.3527 14.3475C57.337 14.3098 57.3102 14.2779 57.2759 14.256C57.2416 14.234 57.2015 14.2231 57.1609 14.2248C56.4959 14.255 55.9947 14.0471 55.6574 13.601C55.3795 13.2329 55.5339 12.8912 55.9733 12.8505C56.009 12.8458 56.0451 12.8508 56.0778 12.8649L57.1681 13.3142C57.2649 13.356 57.3739 13.3628 57.4769 13.3333C57.8854 13.217 58.1776 12.8888 58.3533 12.3487ZM37.4104 63.7466C35.7571 62.3971 34.5766 61.4133 33.8688 60.7951C33.1483 60.1657 32.2734 59.1779 31.2441 57.8316C30.1736 56.431 29.4784 54.9103 29.1586 53.2692C29.1574 53.2587 29.1598 53.2482 29.1652 53.2392C29.1706 53.2302 29.1788 53.2233 29.1886 53.2195C29.1983 53.2156 29.209 53.2152 29.2191 53.2181C29.2291 53.221 29.2379 53.2272 29.2441 53.2357C30.6028 55.4759 32.389 57.2142 34.6028 58.4505C36.4571 59.4878 38.309 60.2526 40.1586 60.7449C43.5933 61.661 47.0121 61.5702 50.4151 60.4724C50.422 60.4718 50.4284 60.4684 50.4329 60.463C50.4373 60.4577 50.4395 60.4507 50.4389 60.4438C50.4382 60.4368 50.4349 60.4303 50.4295 60.4259C50.4242 60.4214 50.4173 60.4192 50.4104 60.4199C46.2963 59.9634 41.9614 59.1651 38.6859 56.3116C38.3533 56.02 38.0762 55.7348 37.8545 55.456C37.8486 55.4479 37.8456 55.438 37.8461 55.428C37.8467 55.418 37.8506 55.4085 37.8574 55.4011C37.8642 55.3937 37.8733 55.3889 37.8832 55.3876C37.8931 55.3863 37.9031 55.3885 37.9115 55.3938C39.9187 56.7465 42.6479 57.2675 45.0137 57.2651C48.5315 57.2604 52.4104 56.4884 55.4792 54.6768C57.1831 53.6699 58.6716 52.4797 59.9448 51.1063C59.9497 51.1017 59.9528 51.0956 59.9535 51.0891C59.9542 51.0826 59.9524 51.0759 59.9485 51.0703C59.9446 51.0647 59.9388 51.0605 59.9321 51.0583C59.9254 51.0562 59.9181 51.0562 59.9115 51.0585C59.134 51.3628 58.1388 51.7587 56.9258 52.2463C55.9646 52.6334 54.6582 52.9911 53.0066 53.3194C50.9543 53.7272 48.8648 53.6723 46.7381 53.1544C46.7225 53.1496 46.7089 53.1396 46.6996 53.1261C46.6902 53.1126 46.6855 53.0964 46.6864 53.08C46.6872 53.0635 46.6934 53.0478 46.7041 53.0353C46.7147 53.0229 46.7292 53.0143 46.7453 53.011C47.3035 52.9346 47.8498 53.0063 48.484 52.9011C51.9139 52.3371 54.9187 50.5183 57.6099 48.1069C59.8379 46.1105 61.5093 43.7596 62.6241 41.0542C63.0232 40.0863 63.1918 39.2307 63.4484 38.117C63.4489 38.1109 63.4476 38.1048 63.4445 38.0996C63.4414 38.0944 63.4368 38.0903 63.4312 38.0879C63.4257 38.0855 63.4195 38.085 63.4136 38.0863C63.4077 38.0877 63.4024 38.0909 63.3985 38.0954C62.4436 39.5246 61.294 40.9363 59.9495 42.3304C58.3486 43.989 56.4412 45.2772 54.2275 46.1949C53.8142 46.3654 53.5046 46.4554 53.2987 46.465C53.2892 46.466 53.2797 46.4638 53.2719 46.4585C53.264 46.4533 53.2581 46.4455 53.2551 46.4362C53.2521 46.4269 53.2522 46.4168 53.2554 46.4073C53.2585 46.3978 53.2646 46.3895 53.2726 46.3838C55.8743 44.6072 57.7888 42.2269 59.0161 39.2426C59.6716 37.6477 60.1229 36.3723 60.37 35.4163C61.2568 31.9876 61.1641 28.5644 60.0921 25.1468C60.0914 25.1404 60.0883 25.1346 60.0834 25.1306C60.0785 25.1265 60.0722 25.1246 60.0659 25.1253C60.0596 25.1259 60.0538 25.129 60.0498 25.1339C60.0458 25.1389 60.0439 25.1452 60.0446 25.1515C59.503 29.7187 58.6883 33.8915 55.5552 37.3785C55.5492 37.3848 55.5413 37.3891 55.5327 37.3905C55.5241 37.392 55.5152 37.3906 55.5074 37.3866C55.4997 37.3825 55.4934 37.376 55.4896 37.3681C55.4858 37.3602 55.4847 37.3513 55.4864 37.3426C55.8735 35.7987 56.5671 34.6683 56.7571 32.9236C57.153 29.2702 56.6875 25.7084 55.3605 22.2382C54.9203 21.0895 54.2639 19.908 53.3914 18.6939C52.503 17.4575 51.613 16.4283 50.7215 15.6061C50.7148 15.5996 50.7062 15.5955 50.697 15.5946C50.6878 15.5937 50.6784 15.5959 50.6704 15.601C50.6624 15.6062 50.6561 15.6138 50.6524 15.623C50.6488 15.6321 50.648 15.6421 50.6503 15.6515C50.8355 16.4115 51.2227 17.0831 51.503 17.8336C51.9495 19.0285 52.2433 19.8515 52.3842 20.3024C53.1823 22.8676 53.3731 25.4885 52.9567 28.1653C52.9542 28.1819 52.9466 28.1973 52.935 28.2094C52.9234 28.2215 52.9084 28.2297 52.8919 28.2329C52.8755 28.236 52.8585 28.234 52.8433 28.227C52.8281 28.22 52.8154 28.2085 52.807 28.1939C52.6898 27.9996 52.6226 27.8426 52.6051 27.7231C52.4175 26.4875 52.1704 25.1874 51.6313 23.9757C50.2267 20.8226 48.3138 18.2072 45.8925 16.1295C43.5331 14.1061 40.8229 12.7749 37.7619 12.136C37.7493 12.134 37.7364 12.1363 37.7253 12.1425C37.7141 12.1488 37.7054 12.1586 37.7005 12.1705C37.6955 12.1823 37.6947 12.1955 37.6981 12.2078C37.7015 12.2202 37.7089 12.2311 37.7191 12.2387C40.0754 13.8639 42.5529 15.8666 44.1538 18.2231C44.887 19.305 45.4872 20.4474 45.9543 21.6503C45.9587 21.6644 45.9582 21.6796 45.9528 21.6934C45.9475 21.7072 45.9375 21.7187 45.9247 21.726C45.9119 21.7332 45.897 21.7359 45.8825 21.7334C45.868 21.7309 45.8548 21.7235 45.845 21.7124C43.1728 18.1849 39.0564 15.9503 34.731 14.9561C31.6368 14.2439 28.5687 14.3578 25.5267 15.2978C25.5165 15.3005 25.5076 15.3067 25.5017 15.3153C25.4958 15.324 25.4932 15.3346 25.4943 15.3453C25.4954 15.356 25.5002 15.3661 25.5078 15.374C25.5155 15.382 25.5255 15.3871 25.5362 15.3887C28.6004 15.7089 31.5077 16.3351 34.275 17.7236C34.8054 17.9913 35.3058 18.298 35.7761 18.6437C36.7247 19.3432 37.2069 19.6977 37.2227 19.7073C37.237 19.7154 37.2482 19.7281 37.2546 19.7434C37.2609 19.7586 37.2619 19.7756 37.2576 19.7915C37.2532 19.8075 37.2436 19.8215 37.2304 19.8313C37.2172 19.8412 37.2011 19.8463 37.1847 19.8459H36.7809C36.6977 19.8459 36.6147 19.8297 36.5362 19.7981C35.1491 19.2325 33.9464 18.8804 32.9282 18.7417C29.6716 18.2972 25.9804 18.78 22.9187 19.8722C20.2029 20.8409 17.8609 22.3832 15.8925 24.4991C15.8823 24.51 15.8762 24.5242 15.8753 24.5391C15.8743 24.5541 15.8785 24.5689 15.8873 24.581C15.896 24.5932 15.9086 24.6019 15.923 24.6057C15.9374 24.6095 15.9527 24.6081 15.9662 24.6019C17.5838 23.9231 19.3035 23.2109 21.0588 22.7879C22.1784 22.5186 22.8205 22.3736 22.9852 22.3529C24.773 22.1219 26.522 22.1832 28.2322 22.537C28.2454 22.5393 28.2576 22.5452 28.2677 22.554C28.2778 22.5628 28.2853 22.5741 28.2895 22.5869C28.2936 22.5997 28.2942 22.6133 28.2913 22.6264C28.2883 22.6395 28.2818 22.6515 28.2726 22.6612C28.176 22.7712 28.0604 22.8349 27.9258 22.8524C25.6423 23.1711 23.7286 23.7702 22.1847 24.6497C20.02 25.8845 18.0834 27.4045 16.3747 29.2097C14.1728 31.5327 12.9733 34.3671 12.0493 37.4502C12.046 37.4609 12.0463 37.4725 12.0503 37.483C12.0543 37.4935 12.0617 37.5024 12.0713 37.5082C12.0809 37.5139 12.0921 37.5163 12.1032 37.5149C12.1143 37.5135 12.1246 37.5084 12.1324 37.5004C12.7928 36.8383 13.3343 36.0138 14.0089 35.2204C14.6661 34.446 15.2164 33.8151 15.6598 33.3275C17.0327 31.8171 20.1229 29.6446 22.0778 29.3626C22.0876 29.3605 22.0979 29.3616 22.1071 29.3657C22.1163 29.3698 22.1239 29.3767 22.1289 29.3855C22.134 29.3943 22.1361 29.4044 22.135 29.4145C22.1339 29.4245 22.1297 29.434 22.1229 29.4415C21.8601 29.7745 21.7073 29.9561 21.6645 29.9864C20.3138 30.928 19.2536 31.9493 18.484 33.0503C16.0754 36.499 14.4484 40.8797 14.4507 45.0812C14.4507 46.8801 14.7136 48.6701 15.2393 50.4514C15.243 50.4666 15.2518 50.4801 15.2643 50.4895C15.2767 50.4988 15.2921 50.5035 15.3076 50.5026C15.3232 50.5018 15.3379 50.4954 15.3493 50.4848C15.3607 50.4741 15.368 50.4598 15.37 50.4443C15.4856 49.8069 15.6249 48.886 15.788 47.6815C15.9686 46.3646 16.5267 44.1635 17.2655 42.5001C17.9638 40.9299 18.8355 39.4625 20.0184 38.3082C20.0313 38.2957 20.0481 38.2882 20.0659 38.2869C20.0837 38.2857 20.1014 38.2908 20.1158 38.3013C20.1303 38.3119 20.1406 38.3272 20.1449 38.3446C20.1492 38.362 20.1474 38.3804 20.1396 38.3966C19.0121 40.7849 18.4808 43.3103 18.5457 45.9727C18.5743 47.1318 18.8427 48.9051 19.0184 49.8898C19.6075 53.1879 20.9812 56.1235 23.1396 58.6967C23.5497 59.1843 24.0264 59.6622 24.5695 60.1307C24.577 60.1365 24.5861 60.1399 24.5956 60.1402C24.605 60.1406 24.6144 60.1379 24.6223 60.1326C24.6301 60.1273 24.6362 60.1197 24.6395 60.1108C24.6428 60.1018 24.6433 60.0921 24.6408 60.0829C24.4761 59.5921 24.2417 59.0042 23.9377 58.3191C22.4436 54.9493 21.4626 50.4156 22.6693 46.9573C22.6726 46.9473 22.6793 46.9387 22.6882 46.9332C22.6971 46.9276 22.7077 46.9253 22.7181 46.9267C22.7285 46.9281 22.7381 46.9331 22.7453 46.9409C22.7524 46.9487 22.7566 46.9587 22.7571 46.9693C22.9092 50.1129 23.9115 52.9864 25.7643 55.5898C26.4183 56.5091 26.9868 57.25 27.4697 57.8124C30.1127 60.9034 33.4135 62.9062 37.3723 63.8207C37.3816 63.8229 37.3913 63.8219 37.3999 63.8179C37.4086 63.8138 37.4156 63.807 37.42 63.7985C37.4243 63.7901 37.4257 63.7803 37.424 63.7709C37.4223 63.7615 37.4175 63.753 37.4104 63.7466ZM63.5362 58.4768C63.5432 58.4789 63.5506 58.4788 63.5576 58.4768C63.5646 58.4747 63.5708 58.4706 63.5756 58.4651C63.5803 58.4596 63.5834 58.4528 63.5844 58.4455C63.5854 58.4383 63.5844 58.4309 63.5814 58.4243C63.309 57.865 63.2378 57.4563 63.3676 57.1982C63.8118 56.3163 64.8284 55.4607 65.7809 56.3092C66.2164 56.6947 66.2409 57.0955 65.8545 57.5113C65.7878 57.5835 65.7007 57.6312 65.6093 57.6458C65.518 57.6603 65.4287 57.6405 65.3581 57.5902C65.176 57.4563 65.1784 57.1895 65.3652 56.7895C65.374 56.7719 65.3765 56.7515 65.3724 56.7321C65.3682 56.7126 65.3577 56.6951 65.3425 56.6827C65.3274 56.6703 65.3086 56.6637 65.2894 56.664C65.2701 56.6643 65.2516 56.6715 65.237 56.6844L64.7453 57.0835C64.728 57.0978 64.7128 57.1147 64.7001 57.1337C64.4373 57.5288 64.4499 57.83 64.7382 58.0371C65.3193 58.4545 65.891 58.4274 66.4531 57.9558C67.7358 56.8875 66.6384 55.8551 65.5529 55.4321C65.5007 55.4117 65.4537 55.3799 65.4153 55.3389C65.377 55.2979 65.3482 55.2488 65.3311 55.1952C65.314 55.1416 65.3091 55.0848 65.3166 55.029C65.3242 54.9733 65.344 54.9199 65.3747 54.8728C66.982 52.4271 68.2409 50.5709 69.1515 49.3043C69.5378 48.7657 70.0184 48.2543 70.5933 47.7699C71.1966 47.2633 70.4626 46.5152 70.1348 46.0516C70.069 45.9584 70.0253 45.8513 70.0072 45.7385C69.9891 45.6258 69.997 45.5105 70.0303 45.4015C70.3747 44.271 70.9781 42.9542 70.9709 41.8429C70.9662 41.2008 70.8442 40.534 70.6051 39.8425C70.5809 39.7722 70.5749 39.6969 70.5875 39.6236C70.6001 39.5503 70.631 39.4814 70.6773 39.4234C70.7235 39.3653 70.7837 39.3201 70.8521 39.2918C70.9205 39.2635 70.9949 39.2532 71.0683 39.2617C71.8252 39.3478 72.2971 39.7684 72.484 40.5236C72.5948 40.9729 72.6281 41.3059 72.5838 41.5226C72.5796 41.5491 72.5843 41.5762 72.5971 41.5997C72.6098 41.6233 72.6299 41.6419 72.6542 41.6528C72.6786 41.6637 72.7058 41.6662 72.7317 41.66C72.7576 41.6537 72.7808 41.639 72.7975 41.6182C73.0699 41.2645 73.2338 40.765 73.2892 40.1197C73.4175 38.6666 72.5434 37.4167 71.1491 37.0463C70.674 36.9188 70.3383 36.7682 70.1419 36.5946C69.4222 35.966 68.6716 34.9121 68.9614 33.98C69.0818 33.5976 69.2465 33.2311 69.4555 32.8806C69.4985 32.8111 69.5614 32.7562 69.636 32.7229C70.1095 32.5205 70.5101 32.6329 70.8379 33.0599C70.8901 33.128 70.9256 33.2075 70.9413 33.2921C70.9571 33.3766 70.9528 33.4637 70.9287 33.5462C70.9046 33.6287 70.8614 33.7043 70.8027 33.7669C70.744 33.8294 70.6714 33.877 70.5909 33.9059L70.2631 34.023C70.1849 34.0511 70.1139 34.0963 70.0552 34.1553C69.9966 34.2144 69.9517 34.2858 69.924 34.3643C69.8962 34.4428 69.8862 34.5265 69.8948 34.6093C69.9033 34.6921 69.9301 34.7718 69.9733 34.8427C70.4689 35.6585 71.2077 36.0783 72.1895 36.1022C72.5909 36.1118 72.9852 35.8537 73.1515 35.5358C73.6313 34.6213 73.404 33.9258 72.4697 33.4494C72.4505 33.4392 72.4286 33.4351 72.407 33.4377C72.3854 33.4404 72.3651 33.4496 72.3488 33.4641C72.3325 33.4787 72.3211 33.4979 72.3159 33.5192C72.3108 33.5405 72.3123 33.5628 72.3201 33.5832L72.522 34.1616C72.5324 34.1911 72.5355 34.2227 72.5311 34.2537C72.5266 34.2847 72.5148 34.3141 72.4966 34.3395C72.4784 34.3649 72.4543 34.3855 72.4265 34.3994C72.3986 34.4134 72.3678 34.4204 72.3367 34.4197L71.8688 34.4078C71.8028 34.4065 71.74 34.3793 71.6938 34.3319C71.6476 34.2845 71.6217 34.2208 71.6218 34.1544C71.617 32.3763 71.1039 31.3965 69.1348 31.8553C69.1225 31.8581 69.1096 31.8576 69.0975 31.8539C69.0853 31.8502 69.0743 31.8434 69.0653 31.8341C69.0564 31.8249 69.0498 31.8134 69.0461 31.8009C69.0425 31.7883 69.042 31.775 69.0446 31.7621C69.2702 30.8061 69.5339 29.898 69.5671 28.9444C69.6906 25.2973 68.6503 22.0104 66.446 19.0835C65.9448 18.4191 64.7999 17.0688 63.9163 17.2241C63.0731 17.3723 63.18 16.7222 62.6574 16.4976C62.1728 16.2873 61.7049 16.1757 61.2536 16.163C61.2268 16.1613 61.2002 16.1692 61.1786 16.1852C61.157 16.2013 61.1417 16.2245 61.1355 16.2508C61.1292 16.2771 61.1324 16.3048 61.1445 16.3289C61.1565 16.3531 61.1767 16.3722 61.2013 16.3829C62.0517 16.7796 62.4389 17.2815 62.5481 18.2327C62.7144 19.6427 63.8165 20.1231 65.0921 20.8616C65.2362 20.9448 65.3688 21.0468 65.4864 21.1651C67.6257 23.3256 68.5236 25.9179 68.18 28.942C68.0351 30.2302 67.2916 31.2172 66.7215 31.9868C65.1586 34.109 65.6835 36.5683 67.5267 38.2747C67.8735 38.5949 68.1309 38.8308 68.2987 38.9821C68.3286 39.0092 68.3513 39.0436 68.3645 39.082C68.3778 39.1204 68.3813 39.1617 68.3747 39.202C68.0121 41.3593 68.3027 43.4935 69.2465 45.6046C69.2613 45.6358 69.2687 45.6694 69.2678 45.7026L69.1918 47.2417C69.1872 47.3013 69.1676 47.3588 69.1348 47.409L64.5125 54.4402C64.46 54.52 64.3884 54.5851 64.3045 54.6294C64.2206 54.6737 64.1271 54.6958 64.0327 54.6936L62.4864 54.6577C62.4081 54.6545 62.3295 54.6684 62.256 54.6983C61.2512 55.1046 60.4151 56.4693 61.3225 57.4348C61.3505 57.4647 61.387 57.4853 61.427 57.4936C61.4669 57.502 61.5085 57.4978 61.5461 57.4817C61.5836 57.4655 61.6154 57.4382 61.637 57.4033C61.6586 57.3684 61.669 57.3277 61.6669 57.2866C61.6336 56.6175 61.8379 56.1124 62.2797 55.7714C62.6431 55.4894 62.9852 55.6448 63.0279 56.0845C63.0326 56.1204 63.0277 56.1568 63.0137 56.1897L62.5719 57.289C62.5311 57.3867 62.5252 57.4964 62.5552 57.5997C62.6724 58.0108 62.9994 58.3032 63.5362 58.4768ZM12.3272 17.1859C12.3202 17.1839 12.3128 17.1839 12.3059 17.186C12.2989 17.1881 12.2927 17.1921 12.2879 17.1976C12.2832 17.2032 12.2801 17.21 12.2791 17.2172C12.278 17.2244 12.2791 17.2318 12.2821 17.2385C12.556 17.7993 12.6281 18.2088 12.4982 18.4669C12.0541 19.3512 11.0374 20.2068 10.0826 19.3583C9.64709 18.9728 9.62176 18.5713 10.0066 18.1538C10.0738 18.0813 10.1616 18.0335 10.2534 18.0194C10.3453 18.0054 10.4349 18.0259 10.5054 18.0773C10.6875 18.2096 10.6851 18.4765 10.4982 18.878C10.4894 18.8956 10.4869 18.9157 10.4911 18.935C10.4953 18.9542 10.5059 18.9715 10.5212 18.9838C10.5365 18.9961 10.5556 19.0028 10.5752 19.0026C10.5948 19.0025 10.6137 18.9956 10.6289 18.9831L11.1206 18.584C11.1381 18.569 11.1533 18.5513 11.1657 18.5314C11.4286 18.1363 11.4151 17.8352 11.1253 17.628C10.5442 17.2106 9.97172 17.2377 9.40798 17.7093C8.12532 18.7824 9.22508 19.8148 10.3106 20.2354C10.3633 20.2555 10.4109 20.2872 10.4498 20.3282C10.4887 20.3693 10.5179 20.4186 10.5352 20.4726C10.5525 20.5265 10.5576 20.5837 10.5499 20.6399C10.5423 20.6961 10.5222 20.7498 10.4911 20.7971C8.88225 23.2476 7.62255 25.1069 6.71202 26.3752C6.32564 26.9137 5.84504 27.426 5.27021 27.9119C4.66689 28.4186 5.40086 29.169 5.72865 29.6327C5.79513 29.7258 5.83936 29.8332 5.8579 29.9463C5.87644 30.0595 5.86879 30.1754 5.83553 30.2851C5.49112 31.4156 4.88779 32.7348 4.89492 33.8485C4.89967 34.4906 5.02239 35.1582 5.26309 35.8513C5.28716 35.9213 5.29316 35.9963 5.28053 36.0693C5.2679 36.1423 5.23705 36.211 5.19085 36.2689C5.14465 36.3269 5.08459 36.3722 5.01624 36.4007C4.9479 36.4292 4.87348 36.44 4.7999 36.4321C4.04139 36.346 3.56871 35.9254 3.38185 35.1702C3.271 34.7193 3.23775 34.3855 3.28209 34.1688C3.28721 34.1417 3.28305 34.1137 3.27029 34.0893C3.25753 34.0648 3.23692 34.0455 3.21183 34.0344C3.18674 34.0233 3.15865 34.0211 3.13215 34.0282C3.10565 34.0352 3.08231 34.0511 3.06594 34.0732C2.79515 34.4269 2.63205 34.9272 2.57663 35.5741C2.44836 37.0295 3.32247 38.2795 4.71914 38.6499C5.19579 38.7774 5.53308 38.9279 5.73102 39.1016C6.44836 39.7326 7.20133 40.7841 6.91154 41.721C6.79278 42.1018 6.62888 42.4682 6.41986 42.8204C6.37682 42.8898 6.31394 42.9448 6.23933 42.9781C5.76428 43.182 5.36285 43.0697 5.03506 42.6411C4.98236 42.573 4.94651 42.4932 4.93046 42.4084C4.91441 42.3236 4.91862 42.2361 4.94275 42.1533C4.96687 42.0704 5.01022 41.9945 5.06922 41.9318C5.12822 41.8691 5.20118 41.8214 5.28209 41.7927L5.60988 41.678C5.68852 41.6501 5.75996 41.6049 5.81895 41.5456C5.87794 41.4863 5.92299 41.4145 5.95079 41.3354C5.97858 41.2564 5.98842 41.172 5.97957 41.0886C5.97072 41.0052 5.94342 40.9248 5.89967 40.8534C5.40244 40.0393 4.66214 39.6202 3.67876 39.5963C3.27734 39.5868 2.88304 39.8449 2.71677 40.1651C2.23696 41.0797 2.46499 41.7752 3.40085 42.2515C3.41989 42.2614 3.44142 42.2653 3.46266 42.2626C3.4839 42.26 3.50388 42.2511 3.52 42.2369C3.53612 42.2227 3.54764 42.204 3.55308 42.1832C3.55852 42.1624 3.55762 42.1404 3.5505 42.1201L3.34622 41.5393C3.33577 41.5096 3.33267 41.4778 3.33722 41.4466C3.34176 41.4155 3.3538 41.3859 3.37229 41.3604C3.39079 41.335 3.41517 41.3145 3.44333 41.3007C3.47149 41.2869 3.50257 41.2802 3.53387 41.2812L4.00181 41.2932C4.06775 41.2944 4.13058 41.3217 4.17678 41.3691C4.22297 41.4164 4.24885 41.4802 4.24884 41.5465C4.25596 43.327 4.76903 44.3069 6.74052 43.8456C6.75313 43.8427 6.76624 43.8432 6.77862 43.847C6.79099 43.8508 6.80223 43.8578 6.81126 43.8674C6.82029 43.877 6.82682 43.8888 6.83024 43.9017C6.83365 43.9146 6.83384 43.9282 6.83078 43.9412C6.60751 44.8972 6.34385 45.8078 6.31059 46.7614C6.18866 50.4132 7.233 53.7041 9.44361 56.6342C9.94242 57.2986 11.0897 58.6513 11.9757 58.4936C12.8189 58.343 12.7144 58.9954 13.237 59.2201C13.7231 59.4304 14.1918 59.542 14.6431 59.5547C14.6709 59.5576 14.6988 59.5502 14.7215 59.5338C14.7442 59.5175 14.7601 59.4933 14.7663 59.4659C14.7724 59.4385 14.7684 59.4097 14.7549 59.3851C14.7414 59.3605 14.7194 59.3418 14.693 59.3324C13.8427 58.9357 13.4555 58.4338 13.3438 57.4826C13.1776 56.0726 12.0731 55.5898 10.7952 54.8537C10.6509 54.7698 10.5183 54.6669 10.4009 54.5478C8.25675 52.3857 7.35652 49.791 7.70014 46.7638C7.84504 45.4732 8.5885 44.4837 9.1562 43.7118C10.7215 41.5871 10.1942 39.1231 8.34622 37.4167C7.99785 37.0965 7.74052 36.8614 7.57425 36.7117C7.54391 36.6848 7.52082 36.6506 7.50712 36.6121C7.49342 36.5737 7.48955 36.5323 7.49587 36.4918C7.8585 34.3297 7.56633 32.1923 6.61938 30.0796C6.60531 30.0482 6.59879 30.0146 6.60038 29.9816L6.67401 28.4401C6.67875 28.3805 6.69836 28.323 6.73102 28.2728L11.3533 21.2273C11.4061 21.1472 11.478 21.0819 11.5624 21.0375C11.6467 20.9932 11.7407 20.9713 11.8355 20.9739L13.3842 21.0098C13.4625 21.0129 13.541 20.9991 13.6146 20.9692C14.6194 20.5605 15.4555 19.1958 14.5457 18.2279C14.5177 18.198 14.4813 18.1775 14.4413 18.1691C14.4013 18.1607 14.3597 18.1649 14.3221 18.181C14.2846 18.1972 14.2529 18.2246 14.2313 18.2594C14.2096 18.2943 14.1992 18.335 14.2013 18.3761C14.2346 19.0453 14.0303 19.5511 13.5885 19.8937C13.2251 20.1757 12.883 20.0227 12.8403 19.5806C12.8356 19.5447 12.8405 19.5084 12.8545 19.4754L13.294 18.3737C13.3354 18.2763 13.3421 18.1666 13.313 18.063C13.1942 17.6519 12.8656 17.3596 12.3272 17.1859ZM17.3819 63.651C17.3798 63.6581 17.3799 63.6655 17.3819 63.6725C17.384 63.6795 17.388 63.6858 17.3935 63.6906C17.399 63.6954 17.4058 63.6985 17.413 63.6995C17.4202 63.7005 17.4275 63.6995 17.4341 63.6964C17.9915 63.424 18.3985 63.3539 18.655 63.4861C19.5291 63.9378 20.3747 64.9655 19.5267 65.9191C19.1404 66.3557 18.7413 66.3788 18.3296 65.9884C18.258 65.9205 18.211 65.832 18.1974 65.7395C18.1838 65.6471 18.2047 65.5571 18.256 65.4865C18.389 65.3049 18.6542 65.3089 19.0517 65.4985C19.0693 65.5073 19.0895 65.5098 19.1088 65.5057C19.1282 65.5015 19.1456 65.4909 19.1579 65.4757C19.1702 65.4604 19.1768 65.4415 19.1765 65.4221C19.1762 65.4027 19.169 65.3841 19.1562 65.3694L18.7619 64.8723C18.7477 64.8549 18.7309 64.8396 18.712 64.8269C18.3209 64.5608 18.0216 64.5728 17.8142 64.8627C17.3961 65.4443 17.4199 66.0195 17.8854 66.5883C18.9424 67.8836 19.9733 66.7843 20.3985 65.6944C20.4189 65.6418 20.4507 65.5944 20.4918 65.5558C20.5328 65.5172 20.5819 65.4883 20.6354 65.4714C20.689 65.4544 20.7457 65.4497 20.8013 65.4577C20.8569 65.4657 20.91 65.4862 20.9567 65.5176C23.3795 67.1491 25.218 68.4261 26.4721 69.3487C27.0058 69.7406 27.5117 70.2274 27.9899 70.8089C28.4911 71.4183 29.2393 70.6846 29.7001 70.3572C29.7931 70.2911 29.9 70.2475 30.0124 70.2296C30.1249 70.2118 30.2399 70.2203 30.3486 70.2544C31.4697 70.6058 32.7761 71.22 33.883 71.2224C34.5212 71.2208 35.1847 71.1013 35.8735 70.8639C35.9435 70.8399 36.0183 70.8342 36.091 70.8472C36.1638 70.8603 36.2321 70.8916 36.2895 70.9384C36.3469 70.9852 36.3916 71.0459 36.4194 71.1148C36.4471 71.1836 36.4571 71.2585 36.4484 71.3323C36.3581 72.0939 35.9369 72.5663 35.1847 72.7495C34.7366 72.8595 34.4056 72.8913 34.1918 72.8451C34.1653 72.8403 34.1379 72.8445 34.114 72.857C34.0901 72.8696 34.071 72.8898 34.0599 72.9145C34.0487 72.9392 34.046 72.967 34.0523 72.9933C34.0585 73.0197 34.0734 73.0433 34.0944 73.0602C34.4444 73.3359 34.94 73.5032 35.5814 73.5621C37.0256 73.6983 38.275 72.826 38.6503 71.4255C38.7785 70.9475 38.9298 70.6097 39.1039 70.4122C39.7334 69.6928 40.7833 68.9424 41.7096 69.2387C42.0881 69.363 42.4515 69.5311 42.7999 69.743C42.8681 69.7867 42.9218 69.8499 42.9543 69.9246C43.1538 70.4026 43.0406 70.8057 42.6146 71.1339C42.5466 71.1864 42.4672 71.2218 42.383 71.2374C42.2987 71.2529 42.212 71.2482 42.1299 71.2234C42.0478 71.1987 41.9727 71.1547 41.9108 71.0951C41.8489 71.0355 41.8019 70.962 41.7738 70.8806L41.6598 70.5508C41.6327 70.4718 41.5884 70.3998 41.5302 70.3401C41.472 70.2805 41.4012 70.2347 41.3231 70.2061C41.2451 70.1775 41.1616 70.1667 41.0789 70.1747C40.9962 70.1826 40.9163 70.2091 40.845 70.2521C40.0327 70.7476 39.6123 71.4892 39.5838 72.4771C39.5719 72.881 39.826 73.2801 40.1419 73.4498C41.0477 73.9373 41.7397 73.7119 42.218 72.7734C42.2277 72.7543 42.2316 72.7326 42.229 72.7113C42.2264 72.6899 42.2175 72.6698 42.2034 72.6536C42.1893 72.6373 42.1707 72.6257 42.15 72.6203C42.1293 72.6148 42.1075 72.6157 42.0873 72.6229L41.5101 72.8236C41.4807 72.8337 41.4494 72.8364 41.4187 72.8316C41.388 72.8268 41.359 72.8146 41.334 72.796C41.309 72.7775 41.2889 72.7531 41.2753 72.7251C41.2617 72.697 41.2551 72.666 41.256 72.6348L41.2702 72.164C41.2721 72.0981 41.2994 72.0355 41.3464 71.9895C41.3934 71.9435 41.4564 71.9178 41.522 71.9178C43.2892 71.9202 44.2655 71.4088 43.8213 69.4251C43.8184 69.4124 43.8189 69.3993 43.8226 69.3868C43.8264 69.3743 43.8334 69.363 43.8429 69.3539C43.8524 69.3449 43.8641 69.3383 43.877 69.3349C43.8898 69.3314 43.9034 69.3312 43.9163 69.3343C44.864 69.5661 45.7667 69.8362 46.7144 69.8744C50.3391 70.0194 53.6123 68.9894 56.5339 66.7843C57.1966 66.2848 58.5457 65.14 58.3961 64.2485C58.2536 63.4001 58.8997 63.51 59.1253 62.9866C59.3375 62.4991 59.4507 62.0283 59.465 61.5742C59.4667 61.5472 59.4589 61.5205 59.4429 61.4988C59.4269 61.477 59.4039 61.4616 59.3777 61.4554C59.3516 61.4491 59.3241 61.4523 59.3001 61.4644C59.2761 61.4765 59.2571 61.4968 59.2465 61.5216C58.8474 62.3748 58.3462 62.762 57.4009 62.8671C55.9994 63.0273 55.5125 64.1338 54.7738 65.4148C54.6902 65.5592 54.588 65.6918 54.4697 65.8092C52.3098 67.9521 49.7279 68.842 46.7239 68.4787C45.4436 68.3258 44.465 67.5729 43.7025 66.997C41.6028 65.41 39.1538 65.9263 37.446 67.7737C37.1261 68.121 36.891 68.3783 36.7405 68.5456C36.7136 68.5757 36.6794 68.5985 36.6412 68.6119C36.6031 68.6252 36.562 68.6288 36.522 68.6221C34.3779 68.2445 32.2536 68.5257 30.1491 69.4658C30.1179 69.4799 30.0845 69.4865 30.0517 69.4849L28.522 69.4012C28.4628 69.3966 28.4057 69.3768 28.3557 69.3439L21.389 64.6524C21.3098 64.5991 21.2454 64.5266 21.2017 64.4417C21.1581 64.3569 21.1367 64.2624 21.1396 64.1673L21.1871 62.6114C21.1902 62.5327 21.1764 62.4537 21.1467 62.3796C20.7476 61.3663 19.3961 60.5178 18.4317 61.4284C18.4022 61.4565 18.3819 61.4929 18.3735 61.5329C18.3651 61.5729 18.3691 61.6145 18.3848 61.6522C18.4006 61.6899 18.4274 61.7218 18.4617 61.7437C18.4959 61.7657 18.536 61.7766 18.5766 61.7749C19.2417 61.7447 19.7429 61.9526 20.0802 62.3987C20.3581 62.7668 20.2037 63.1085 19.7643 63.1492C19.7286 63.1539 19.6925 63.1489 19.6598 63.1348L18.5671 62.6855C18.4703 62.6437 18.3613 62.6369 18.2583 62.6664C17.8498 62.7827 17.5576 63.1109 17.3819 63.651Z" fill="#DEAE13"/>
<path d="M278.838 10.8508C278.828 10.8505 278.818 10.8469 278.81 10.8404C278.802 10.834 278.797 10.8251 278.795 10.8152C278.792 10.8053 278.794 10.795 278.798 10.7858C278.802 10.7767 278.81 10.7693 278.819 10.7647C280.082 10.2151 281.422 9.72751 282.154 8.58512C282.182 8.54149 282.201 8.49233 282.209 8.44085C282.217 8.38937 282.214 8.33673 282.201 8.28638C282.073 7.82114 281.943 7.51283 281.811 7.36147C280.489 5.8335 279.246 4.15019 278.082 2.31153C278.071 2.29402 278.065 2.27318 278.067 2.25221C278.068 2.23125 278.076 2.21134 278.09 2.19556C278.104 2.17978 278.122 2.16901 278.143 2.16492C278.163 2.16082 278.185 2.16364 278.203 2.17292C278.645 2.38005 279.112 2.47564 279.602 2.45971C279.692 2.45665 279.779 2.48265 279.852 2.5338C281.5 3.6969 282.758 4.57321 283.626 5.16273C284.253 5.58814 284.667 5.98009 284.866 6.33858C285.317 7.15116 285.588 8.54688 284.845 9.31405C284.472 9.69883 283.895 10.0191 283.37 10.1601C281.891 10.56 280.38 10.7902 278.838 10.8508Z" fill="#D82128"/>
<path d="M92.9836 38.2799C93.6392 36.795 94.1 35.1922 94.366 33.4714C94.8696 30.2067 94.8078 26.9755 94.1808 23.7778C94.0873 23.2966 93.9575 22.8059 93.7912 22.3056C93.739 22.1489 93.7421 21.9789 93.8001 21.8243C93.8581 21.6697 93.9674 21.54 94.1095 21.4572C94.5774 21.1871 95.0881 21.1298 95.6463 21.2325C97.1459 21.5098 98.6036 21.9631 100.019 22.5924C100.096 22.6271 100.164 22.6768 100.219 22.7382C100.743 23.3181 101.211 24.016 101.623 24.8318C101.643 24.8739 101.673 24.9107 101.711 24.9394C101.748 24.968 101.791 24.9878 101.837 24.9972C101.883 25.0067 101.93 25.0055 101.976 24.9938C102.022 24.9821 102.064 24.9602 102.1 24.9298C103.5 23.7348 104.757 22.4936 105.872 21.2062C106.148 20.8876 106.349 20.5458 106.478 20.181C106.481 20.17 106.482 20.1582 106.48 20.1468C106.477 20.1355 106.472 20.125 106.464 20.1164C106.457 20.1079 106.447 20.1016 106.436 20.0982C106.425 20.0948 106.413 20.0945 106.402 20.0973C105.341 20.3921 104.562 20.6096 104.064 20.7498C103.347 20.9505 102.461 20.9911 101.9 21.0413C101.437 21.0812 100.881 21.0111 100.233 20.831C100.153 20.8077 100.081 20.7592 100.029 20.6924C99.5062 20.0184 98.9068 19.5444 98.2306 19.2704C98.1933 19.2551 98.1615 19.2285 98.1398 19.1942C98.1181 19.16 98.1075 19.1198 98.1095 19.0792L98.1974 17.5592C98.1994 17.5216 98.2125 17.4854 98.2349 17.4552C98.2573 17.425 98.288 17.4022 98.3233 17.3895L105.352 14.9374C105.378 14.9283 105.401 14.9135 105.42 14.8941C105.44 14.8747 105.454 14.8512 105.463 14.8253C105.473 14.7994 105.476 14.7717 105.473 14.7444C105.47 14.7171 105.461 14.6908 105.447 14.6674C104.223 12.6662 103.003 10.7025 101.789 8.77618C101.167 7.78834 100.54 6.88892 99.91 6.07794C99.8232 5.9668 99.7499 5.84566 99.6915 5.71706C99.3573 4.97936 98.9741 4.43366 98.5418 4.07995C98.5043 4.04904 98.4735 4.01101 98.4515 3.96825C98.4294 3.92548 98.4165 3.87889 98.4136 3.8314C98.3835 3.36934 98.5323 2.99492 98.8601 2.70813C98.9154 2.6586 98.9865 2.62914 99.062 2.62448C101.129 2.50976 102.321 3.76209 103.219 5.44221C105.535 9.77039 106.466 11.7062 108.026 14.0723C108.039 14.0902 108.055 14.1044 108.075 14.1133C108.095 14.1222 108.117 14.1253 108.138 14.1225C109.76 13.8548 111.767 13.4939 112.969 12.4232C113.251 12.1731 113.551 12.0846 113.867 12.1579C114.803 12.373 116.934 13.721 116.003 14.9709C115.193 16.0559 114.455 16.9673 113.786 17.705C112.985 18.5924 112.503 19.6536 112.34 20.8884C112.331 20.9578 112.335 21.0277 112.354 21.0939C112.628 22.0897 113.053 23.0553 113.63 23.9905C115.007 26.2259 116.07 27.9682 116.817 29.2173C116.822 29.2244 116.828 29.2304 116.835 29.2349C116.842 29.2393 116.85 29.2421 116.858 29.243C116.866 29.244 116.874 29.243 116.882 29.2402C116.89 29.2374 116.897 29.2328 116.903 29.2269C117.05 29.0739 117.213 28.8532 117.392 28.5649C118.643 26.5509 119.615 24.5537 120.309 22.5733C120.317 22.5542 120.323 22.5333 120.326 22.5111L120.599 20.9266C120.612 20.8502 120.641 20.7774 120.684 20.7131C120.728 20.6488 120.784 20.5943 120.849 20.5533C120.915 20.5122 120.988 20.4855 121.064 20.4749C121.141 20.4643 121.218 20.47 121.292 20.4916C124.017 21.2923 122.352 25.0493 121.794 26.727C121.643 27.1795 121.368 27.816 120.969 28.6366C120.621 29.3551 120.026 30.5613 119.186 32.2549C119.168 32.2892 119.16 32.3274 119.162 32.3656C119.164 32.4038 119.176 32.4407 119.197 32.4724C119.984 33.6992 120.616 34.6218 121.093 35.24C124.374 39.5052 127.621 43.498 130.834 47.2183C130.841 47.2264 130.849 47.2327 130.859 47.2366C130.868 47.2405 130.879 47.2419 130.89 47.2407C130.9 47.2396 130.91 47.2358 130.919 47.2298C130.928 47.2238 130.936 47.2158 130.941 47.2064C131.549 46.1197 132.022 44.9447 132.361 43.6812C132.566 42.918 132.813 41.5088 133.102 39.4534C133.108 39.4192 133.121 39.3869 133.143 39.3597C133.164 39.3325 133.192 39.3113 133.224 39.2981C134.034 38.9778 134.214 38.703 134.824 37.7279C134.832 37.7174 134.842 37.7092 134.853 37.7042C134.865 37.6992 134.877 37.6976 134.89 37.6996C134.902 37.7016 134.914 37.7071 134.923 37.7155C134.933 37.7239 134.94 37.7348 134.943 37.747C135.032 38.0959 135.078 38.3086 135.081 38.3851C135.197 40.6093 135.271 42.9634 135.304 45.4474C135.306 45.5443 135.318 45.6412 135.34 45.7366C135.554 46.6862 135.657 47.3354 135.651 47.6844C135.615 49.9548 134.269 50.7769 132.385 51.6995C132.337 51.7212 132.285 51.7271 132.235 51.7162L131.53 51.5537C131.488 51.5442 131.449 51.5245 131.418 51.4963C130.625 50.7793 129.841 49.8703 129.067 48.7694C128.997 48.6695 128.914 48.5786 128.82 48.4993C128.162 47.9449 127.722 47.0916 126.931 45.8561C126.496 45.1757 125.867 44.481 125.045 43.772C125.033 43.7609 125.021 43.7489 125.01 43.7362L117.836 34.7166C117.824 34.7021 117.81 34.6904 117.793 34.6821C117.776 34.6738 117.758 34.6691 117.74 34.6685C117.721 34.6678 117.703 34.6711 117.686 34.6781C117.669 34.6852 117.654 34.6959 117.642 34.7094C116.174 36.3154 114.528 38.2369 112.905 38.9802C111.651 39.5538 110.82 38.6528 109.903 37.9238C109.892 37.9153 109.879 37.9093 109.865 37.9065C109.852 37.9036 109.838 37.9039 109.824 37.9074C109.811 37.9109 109.799 37.9174 109.788 37.9265C109.778 37.9356 109.77 37.9469 109.765 37.9597C109.11 39.5849 108.276 41.0778 107.264 42.4384C106.345 43.6764 104.955 44.6252 103.463 43.8796C102.345 43.3227 101.316 41.2626 100.651 39.9744C100.586 39.847 100.445 39.6605 100.228 39.4152C100.222 39.4074 100.213 39.4015 100.203 39.398C100.194 39.3944 100.183 39.3932 100.173 39.3947C100.163 39.3961 100.154 39.4 100.145 39.4061C100.137 39.4122 100.131 39.4202 100.126 39.4295C99.4959 40.728 98.758 41.8577 97.9124 42.8184C97.0002 43.8533 95.8031 43.9584 94.3922 43.8485C93.4246 43.772 92.655 43.3044 92.0834 42.4456C91.1998 41.1192 91.4159 39.0447 91.7105 37.6299C91.7136 37.6135 91.7208 37.5982 91.7314 37.5854C91.742 37.5727 91.7557 37.5628 91.7712 37.5568C91.7866 37.5509 91.8033 37.5489 91.8197 37.5513C91.8361 37.5536 91.8516 37.5601 91.8649 37.5701L92.8316 38.3182C92.8435 38.3275 92.8574 38.3339 92.8722 38.337C92.8869 38.3401 92.9022 38.3399 92.9168 38.3362C92.9315 38.3325 92.9451 38.3255 92.9566 38.3158C92.9682 38.306 92.9774 38.2938 92.9836 38.2799ZM110.748 24.1005C110.677 23.7914 110.491 23.4759 110.19 23.154C110.163 23.1241 110.127 23.1038 110.087 23.0961C110.047 23.0884 110.006 23.0936 109.969 23.111L109.556 23.3118C109.503 23.3368 109.459 23.3767 109.429 23.4268C109.398 23.4768 109.383 23.5347 109.384 23.5933C109.386 23.6519 109.405 23.7088 109.438 23.7568C109.472 23.8049 109.519 23.8421 109.573 23.8638L110.551 24.2677C110.576 24.2781 110.603 24.2815 110.629 24.2774C110.656 24.2733 110.68 24.262 110.701 24.2447C110.721 24.2274 110.736 24.2048 110.745 24.1794C110.753 24.1539 110.754 24.1266 110.748 24.1005ZM107.708 25.9383C107.708 25.9209 107.704 25.9038 107.696 25.8884C107.688 25.8729 107.676 25.8597 107.662 25.8496C107.648 25.8396 107.631 25.8331 107.614 25.8306C107.597 25.8282 107.58 25.8299 107.563 25.8355C106.152 26.3159 105.11 27.6208 103.91 28.8564C103.492 29.289 102.777 29.7335 102.359 29.8841C102.272 29.9153 102.197 29.9728 102.143 30.049C101.722 30.6576 101.508 31.0807 101.501 31.3181C101.475 32.2039 101.456 32.6795 101.447 32.7449C101.315 33.5925 101.129 34.707 100.889 36.0884C100.833 36.4039 100.815 36.7416 100.834 37.1017C100.835 37.1433 100.845 37.184 100.863 37.2214C100.88 37.2588 100.905 37.2921 100.936 37.3192C101.813 38.0903 102.45 38.597 102.846 38.8392C103.197 39.0559 103.554 39.0145 103.915 38.7149C103.972 38.6682 104.015 38.6051 104.038 38.5333C104.355 37.5598 105.039 35.7657 106.091 33.1511C106.7 31.6375 107.201 29.8992 107.592 27.9363C107.734 27.2145 107.71 26.8226 107.708 25.9383ZM110.371 36.8484C112.463 35.5865 114.144 33.8514 115.414 31.6431C115.487 31.5158 115.525 31.3716 115.526 31.2249C115.526 31.0781 115.488 30.9339 115.416 30.8066C114.851 29.8108 114.384 28.9719 114.017 28.29C113.701 27.7045 113.169 27.052 112.851 26.6672C112.838 26.6521 112.822 26.6406 112.804 26.6341C112.785 26.6276 112.766 26.6262 112.747 26.6301C112.727 26.6341 112.71 26.6432 112.695 26.6564C112.681 26.6697 112.671 26.6867 112.665 26.7055C111.867 29.3583 111.258 31.4973 110.839 33.1225C110.495 34.4592 110.296 35.6749 110.24 36.7695C110.239 36.7853 110.242 36.8012 110.25 36.8152C110.257 36.8293 110.268 36.841 110.281 36.8492C110.295 36.8574 110.31 36.8616 110.326 36.8615C110.342 36.8613 110.357 36.8568 110.371 36.8484Z" fill="#D82128"/>
<path d="M118.202 4.93299C119.924 3.71651 122.406 4.04154 124.228 4.97123C126.247 6.00368 127.435 8.63022 126.758 10.8003C126.2 12.5927 124.352 11.7419 123.288 11.1994C123.207 11.1589 123.139 11.0958 123.093 11.0178C121.748 8.79672 120.114 6.85689 118.19 5.19827C118.171 5.18175 118.155 5.16093 118.145 5.13742C118.135 5.1139 118.13 5.08833 118.131 5.06268C118.132 5.03703 118.139 5.01199 118.151 4.9895C118.164 4.96701 118.181 4.94768 118.202 4.93299Z" fill="#D82128"/>
<path d="M245.613 32.1542C245.617 32.1412 245.625 32.1299 245.637 32.1225C245.648 32.115 245.662 32.1119 245.675 32.1136C245.689 32.1153 245.701 32.1218 245.71 32.1319C245.719 32.142 245.724 32.155 245.725 32.1686C245.745 32.7581 245.892 33.205 246.164 33.5093C246.197 33.5472 246.222 33.5902 246.238 33.636C246.879 35.6818 247.653 37.8431 248.559 40.1199C249.143 41.5849 249.347 43.3965 248.523 44.7301C248.47 44.8156 248.392 44.8825 248.3 44.9213C247.039 45.455 246.023 45.7952 245.252 45.9418C241.832 46.5895 238.174 46.6181 234.803 46.36C233.445 46.2549 232.312 45.9051 231.404 45.3108C230.38 44.6393 230.015 42.6007 230.079 41.4105C230.255 38.1362 231.556 35.1297 232.96 32.1518C232.972 32.1239 232.975 32.0935 232.967 32.0658L232.884 31.7408C232.881 31.7265 232.874 31.7131 232.865 31.7017C232.855 31.6903 232.844 31.6811 232.83 31.6747C232.817 31.6683 232.802 31.6649 232.787 31.6648C232.772 31.6646 232.758 31.6677 232.744 31.6739L229.953 32.8927C229.897 32.9188 229.853 32.9651 229.832 33.0218C229.407 34.2072 228.532 36.2275 227.207 39.0827C226.176 41.3037 224.864 43.1352 223.271 44.5771C223.24 44.6057 223.205 44.6306 223.167 44.6512C222.434 45.0448 221.856 44.8344 221.433 44.0203C221.423 44.0023 221.408 43.9879 221.39 43.9792C221.371 43.9705 221.35 43.9679 221.33 43.9719C221.311 43.9759 221.292 43.9863 221.279 44.0014C221.265 44.0166 221.257 44.0358 221.255 44.0561C221.129 45.3539 220.948 46.7615 219.903 47.8035C219.506 48.1955 219.067 48.3508 218.516 48.1501C216.428 47.3877 215.611 45.8366 214.423 43.8339C214.42 43.8275 214.417 43.8203 214.414 43.8124L213.913 42.3115C213.909 42.3036 213.909 42.295 213.911 42.2868C213.912 42.2786 213.917 42.2711 213.923 42.2653C213.929 42.2594 213.937 42.2555 213.946 42.2539C213.955 42.2523 213.964 42.2532 213.972 42.2565C214.777 42.6222 215.399 43.1766 216.188 43.5686C216.787 43.8649 217.338 43.5996 217.677 43.1217C217.722 43.059 217.75 42.9857 217.758 42.909C218.228 37.6511 218.419 32.4092 218.331 27.1832C218.33 27.1661 218.326 27.1492 218.319 27.1339C218.311 27.1187 218.3 27.1053 218.287 27.0949C218.274 27.0846 218.258 27.0774 218.242 27.0741C218.226 27.0707 218.209 27.0713 218.193 27.0756L214.939 27.9145C214.933 27.9159 214.927 27.919 214.923 27.9233C214.919 27.9276 214.916 27.933 214.914 27.9389C214.913 27.9447 214.913 27.9509 214.915 27.9567C214.917 27.9626 214.92 27.9678 214.924 27.9718C215.879 28.8832 216.659 29.938 217.264 31.1361C218.117 32.821 218.269 34.1546 217.597 35.8969C217.416 36.3637 217.097 36.5828 216.639 36.5541C215.756 36.4991 215.005 35.3424 214.594 34.5609C214.582 34.5384 214.577 34.513 214.579 34.4877C214.581 34.4623 214.59 34.4381 214.606 34.4178C214.621 34.3975 214.641 34.3819 214.665 34.373C214.689 34.3641 214.714 34.3621 214.739 34.3673C215.015 34.4231 215.186 34.3617 215.255 34.1833C215.62 33.2297 214.848 31.6715 214.347 30.8589C214.295 30.7733 214.256 30.6799 214.231 30.5817L213.723 28.5956C213.706 28.5281 213.666 28.4687 213.61 28.4278C213.554 28.387 213.486 28.3671 213.417 28.3716C213.347 28.3761 213.282 28.4048 213.231 28.4527C213.18 28.5005 213.147 28.5646 213.138 28.6339C212.771 31.5432 212.419 34.1204 212.084 36.3653C211.654 39.2412 210.961 42.0255 210.003 44.7181C209.981 44.7803 209.757 45.1117 209.331 45.7123C209.306 45.7469 209.273 45.7748 209.235 45.7935C209.198 45.8123 209.156 45.8213 209.114 45.8199L207.195 45.7625C207.133 45.7607 207.073 45.7429 207.019 45.7109C206.966 45.6788 206.922 45.6335 206.891 45.5794C206.86 45.5252 206.843 45.4639 206.842 45.4014C206.842 45.339 206.857 45.2773 206.886 45.2224L207.152 44.7277C207.182 44.6769 207.207 44.6224 207.226 44.5652C208.858 39.6969 210.112 34.5896 210.544 29.5062C210.546 29.4853 210.542 29.4643 210.534 29.4452C210.526 29.4261 210.513 29.4094 210.496 29.3968C210.48 29.3842 210.461 29.3759 210.44 29.3729C210.42 29.3699 210.4 29.3722 210.38 29.3795C207.977 30.2495 205.599 31.583 202.913 31.5137C201.764 31.4851 200.824 31.0796 200.091 30.2973C200.032 30.2353 199.995 30.1555 199.986 30.0702C199.877 29.1405 202.179 28.99 202.787 28.9804C203.132 28.974 203.713 28.841 204.53 28.5813C206.171 28.0587 208.247 27.4134 210.758 26.6454C210.801 26.6326 210.839 26.6073 210.868 26.5729C210.897 26.5384 210.915 26.4963 210.92 26.4518C211.154 24.5128 211.265 22.3643 211.252 20.0062C211.252 19.9873 211.247 19.9689 211.237 19.9527C211.228 19.9365 211.214 19.9231 211.197 19.9139C211.181 19.9047 211.163 19.9 211.144 19.9003C211.125 19.9005 211.107 19.9057 211.091 19.9154C209.494 20.869 207.915 19.6262 207.628 18.0321C207.622 18.0011 207.625 17.9691 207.634 17.9388C207.644 17.9085 207.66 17.8807 207.682 17.8576C209.441 16.1066 211.569 14.0361 214.065 11.6462C215.097 10.6568 216.649 8.90413 218.72 6.38832C218.728 6.37806 218.739 6.36994 218.751 6.3646C218.763 6.35926 218.777 6.35684 218.79 6.35754C218.803 6.35823 218.816 6.36202 218.828 6.3686C218.84 6.37518 218.85 6.38439 218.858 6.39549C219.656 7.53549 220.271 8.75197 220.136 10.1381C220.098 10.5269 219.824 11.0583 219.314 11.7322C218.761 12.4619 218.056 13.2419 217.198 14.072C217.152 14.1166 217.129 14.1596 217.131 14.201C217.132 14.2157 217.136 14.2299 217.143 14.2426C217.151 14.2552 217.161 14.2658 217.174 14.2736C217.186 14.2813 217.2 14.286 217.214 14.2871C217.229 14.2882 217.244 14.2857 217.257 14.2799C217.786 14.0568 218.25 13.7876 218.649 13.4721C219.528 12.7814 220.552 12.6906 221.473 13.2283C222.554 13.8617 222.844 15.3625 222.397 16.45C222.226 16.8674 222.106 17.2068 222.036 17.4681C221.434 19.7146 221.164 21.9866 221.224 24.2842C221.225 24.3181 221.238 24.3505 221.262 24.3752C221.286 24.3999 221.318 24.4151 221.352 24.418C221.875 24.461 222.858 24.5112 223.084 25.0083C223.095 25.0351 223.102 25.064 223.102 25.0934C223.103 25.1227 223.098 25.1519 223.087 25.1792C223.077 25.2065 223.061 25.2315 223.041 25.2526C223.02 25.2737 222.996 25.2906 222.97 25.3023L221.29 26.036C221.257 26.051 221.228 26.0751 221.208 26.1056C221.188 26.1361 221.177 26.1716 221.176 26.2081C221.118 29.5938 221.104 34.063 221.136 39.6156C221.141 40.2832 221.22 40.9157 221.373 41.5132C221.387 41.567 221.421 41.6132 221.468 41.6418C221.515 41.6704 221.572 41.6792 221.625 41.6662C222.86 41.3627 223.675 39.9 224.231 38.7791C225.319 36.5852 226.088 35.1034 226.799 32.9381C227.34 31.2827 228.071 29.0991 228.991 26.3873C228.996 26.3705 228.997 26.3525 228.994 26.3352C228.99 26.3179 228.982 26.3019 228.97 26.2888C228.958 26.2757 228.943 26.266 228.926 26.2606C228.91 26.2553 228.892 26.2544 228.875 26.2583C227.487 26.5857 225.433 27.0183 224.243 26.3013C224.201 26.2768 224.171 26.2375 224.157 26.1913L223.509 24.1408C223.483 24.0622 223.479 23.9784 223.496 23.8975C223.512 23.8166 223.549 23.7415 223.604 23.6795C224.131 23.0725 225.247 21.0386 226.205 20.7686C226.217 20.7654 226.23 20.7663 226.242 20.7709C226.254 20.7756 226.264 20.7839 226.271 20.7947C226.278 20.8054 226.282 20.8181 226.281 20.831C226.281 20.8439 226.277 20.8563 226.269 20.8666C225.433 21.911 224.756 22.5945 224.597 23.6293C224.592 23.6606 224.594 23.6925 224.604 23.7226C224.614 23.7527 224.63 23.78 224.653 23.8024C224.675 23.8248 224.702 23.8415 224.732 23.8513C224.762 23.8611 224.794 23.8637 224.825 23.8588C225.611 23.7369 226.763 23.431 227.704 23.1083C229.68 22.428 231.717 21.8225 233.815 21.292C235.033 20.9861 236.21 20.8753 237.347 20.9598C238.095 21.0155 238.591 21.3445 238.837 21.9468C238.869 22.0281 238.88 22.1164 238.867 22.2025C238.791 22.7188 238.612 23.2071 238.331 23.6676C238.285 23.7411 238.213 23.7942 238.129 23.8157L230.364 25.8233C230.238 25.8556 230.128 25.9317 230.053 26.038C229.978 26.1443 229.942 26.274 229.953 26.404L230.257 30.1658C230.259 30.1889 230.266 30.2112 230.278 30.2309C230.29 30.2506 230.307 30.267 230.327 30.2787C230.347 30.2905 230.369 30.2972 230.392 30.2984C230.415 30.2995 230.438 30.295 230.459 30.2853C231.639 29.7611 232.898 29.1365 234.236 28.4116C234.41 28.3176 234.86 28.2801 235.585 28.2993C235.663 28.3008 235.74 28.3213 235.81 28.359C236.437 28.6904 236.71 29.2441 236.628 30.02C236.62 30.0972 236.596 30.1713 236.559 30.2375C235.165 32.7342 233.973 35.3488 232.981 38.0813C232.283 40.01 231.369 43.1288 233.668 44.3812C233.739 44.4192 233.814 44.4481 233.891 44.4672C236.718 45.1842 239.388 45.2081 241.901 44.5389C242.84 44.2903 243.787 43.7367 244.744 42.8779C244.915 42.7233 245.053 42.3027 245.157 41.616C245.333 40.4449 245.397 39.1998 245.35 37.8805C245.266 35.5742 245.148 33.8583 245.613 32.1542ZM215.585 25.7014L218.402 24.9749C218.411 24.972 218.419 24.9666 218.425 24.9594C218.431 24.9521 218.434 24.9434 218.435 24.9342C218.715 22.2655 218.875 19.47 218.915 16.5479C218.915 16.5187 218.91 16.4896 218.899 16.4626C218.887 16.4356 218.871 16.4112 218.85 16.3908C218.829 16.3704 218.804 16.3546 218.777 16.3442C218.75 16.3338 218.721 16.3292 218.692 16.3305C217.96 16.3663 217.456 16.4476 216.704 16.2373C216.217 16.1018 215.805 16.0222 215.466 15.9983C215.43 15.9952 215.394 15.9996 215.359 16.0111C215.324 16.0226 215.292 16.041 215.264 16.0652L212.49 18.4671C212.458 18.495 212.437 18.533 212.43 18.5747C212.422 18.6164 212.429 18.6593 212.449 18.6965C212.815 19.3681 214.093 19.4493 214.763 19.4302C214.856 19.427 214.947 19.4408 215.034 19.4708C216.568 20.0014 218.654 21.3159 217.972 23.2326C217.953 23.2846 217.923 23.3319 217.884 23.3712C217.702 23.5513 217.065 24.085 215.974 24.9725C215.833 25.0872 215.68 25.2999 215.514 25.6106C215.508 25.6211 215.505 25.6331 215.506 25.6451C215.507 25.6571 215.511 25.6686 215.519 25.6782C215.526 25.6878 215.537 25.6951 215.548 25.6992C215.56 25.7034 215.573 25.7041 215.585 25.7014ZM213.38 21.1605C213.366 22.3627 213.136 24.4228 213.388 25.8735C213.391 25.8964 213.4 25.9181 213.413 25.9372C213.426 25.9562 213.444 25.9721 213.464 25.9835C213.484 25.995 213.506 26.0018 213.529 26.0034C213.552 26.0051 213.575 26.0015 213.597 25.993C214.58 25.6225 215.105 24.2579 215.312 23.2398C215.327 23.1641 215.315 23.0853 215.278 23.0175C214.821 22.1476 214.238 21.5007 213.53 21.0769C213.515 21.0682 213.498 21.0636 213.481 21.0634C213.464 21.0633 213.447 21.0676 213.432 21.076C213.417 21.0845 213.404 21.0967 213.395 21.1115C213.386 21.1263 213.381 21.1432 213.38 21.1605Z" fill="#D82128"/>
<path d="M175.237 28.3307C175.23 28.3167 175.227 28.3008 175.229 28.2853C175.231 28.2698 175.238 28.2553 175.249 28.2438C175.26 28.2323 175.273 28.2244 175.289 28.2211C175.304 28.2178 175.32 28.2194 175.334 28.2255L175.451 28.2733C175.491 28.2905 175.525 28.3186 175.55 28.3546C176.225 29.3344 176.71 29.7678 177.004 29.6547C177.031 29.6441 177.054 29.6259 177.071 29.6022C177.088 29.5784 177.098 29.5502 177.099 29.5209C177.224 26.833 177.238 23.7842 177.139 20.3746C177.061 17.6046 177.044 15.3366 176.496 13.0088C176.484 12.9564 176.487 12.9016 176.504 12.8509C176.522 12.8001 176.554 12.7554 176.595 12.722L177.691 11.8401C177.734 11.8053 177.785 11.7828 177.839 11.7748C177.894 11.7668 177.949 11.7737 177.999 11.7947L178.565 12.0289C178.632 12.0567 178.686 12.1078 178.717 12.1723L179.12 13.0207C179.138 13.0566 179.164 13.0874 179.196 13.1104C179.229 13.1334 179.266 13.1478 179.306 13.1522C179.621 13.1824 179.884 13.1737 180.094 13.1259C181.638 12.7801 183.351 12.3022 185.232 11.6919C185.866 11.4864 186.515 11.4027 187.166 11.2737C188.063 11.0921 188.712 11.2761 189.396 11.8282C189.471 11.8886 189.523 11.9731 189.544 12.0677C189.566 12.1623 189.554 12.2615 189.512 12.3492C188.643 14.1607 187.462 15.6807 186.078 17.3489C185.087 18.5439 184.204 19.8201 183.531 20.9792C183.507 21.0226 183.492 21.0709 183.488 21.1208C183.484 21.1706 183.491 21.2207 183.508 21.2675C183.526 21.3143 183.553 21.3567 183.589 21.3916C183.624 21.4264 183.667 21.4529 183.714 21.4692C186.242 22.3367 189.919 23.5771 191.059 26.249C191.724 27.8025 191.626 30.0156 190.607 31.4113C190.173 32.0056 189.549 32.5585 188.733 33.0699C187.125 34.0785 184.638 34.1167 182.93 33.4858C181.855 33.089 180.789 32.6573 179.731 32.1904C179.719 32.1853 179.707 32.1831 179.694 32.184C179.682 32.185 179.669 32.1891 179.659 32.196C179.648 32.2029 179.639 32.2123 179.633 32.2234C179.627 32.2346 179.624 32.247 179.624 32.2597C179.499 38.6138 179.311 45.4466 179.061 52.7582C179.028 53.7142 178.93 54.7753 178.584 55.4373C178.562 55.48 178.528 55.5148 178.485 55.5365C178.443 55.5581 178.395 55.5657 178.348 55.5579C178.301 55.5502 178.258 55.5276 178.225 55.4935C178.191 55.4593 178.17 55.4154 178.163 55.368C177.467 50.8056 177.403 46.9937 177.223 41.5661C177.162 39.7243 177.158 38.0649 177.208 36.5879C177.272 34.7317 177.225 33.0747 177.068 31.6168C177.021 31.1819 176.907 30.7796 176.729 30.4099C176.694 30.3387 176.647 30.2733 176.591 30.2163C176.024 29.6475 175.573 29.019 175.237 28.3307ZM186.61 11.7708C185.778 12.0146 183.824 12.6853 180.748 13.7831C179.953 14.0667 179.515 14.6013 179.434 15.3868C179.358 16.1157 179.244 16.9928 179.256 17.3274C179.289 18.3009 179.343 19.4297 179.417 20.7139C179.418 20.7246 179.421 20.735 179.427 20.7442C179.432 20.7534 179.44 20.7612 179.449 20.7668C179.458 20.7724 179.468 20.7758 179.479 20.7766C179.49 20.7773 179.5 20.7755 179.51 20.7713C179.942 20.5913 180.282 20.3618 180.529 20.083C180.554 20.0537 180.585 20.0303 180.62 20.0142C180.655 19.9981 180.693 19.9898 180.731 19.9898H180.847C180.896 19.9898 180.945 19.9788 180.989 19.9577C181.033 19.9366 181.071 19.9059 181.101 19.8679C182.892 17.615 184.548 15.3629 186.068 13.1115C186.486 12.4934 186.704 12.0767 186.721 11.8616C186.722 11.8475 186.72 11.8334 186.714 11.8204C186.709 11.8074 186.7 11.796 186.689 11.7871C186.678 11.7782 186.665 11.7721 186.651 11.7692C186.638 11.7664 186.623 11.7669 186.61 11.7708ZM179.555 22.4299C179.4 24.1905 179.334 26.0148 179.358 27.9029C179.372 28.9226 179.504 29.9447 179.755 30.9692C179.765 31.008 179.785 31.0435 179.813 31.0717C179.842 31.0999 179.877 31.1198 179.916 31.1293C182.403 31.7411 187.771 32.9241 188.738 29.2365C189.205 27.4536 188.826 25.9113 187.6 24.6095C186.3 23.2313 184.724 22.4897 182.871 22.3845C182.805 22.3814 182.74 22.3937 182.679 22.4204C181.862 22.7948 181.075 22.9589 180.318 22.9127C180.272 22.9097 180.228 22.8951 180.189 22.8705C180.15 22.8459 180.119 22.8119 180.097 22.7717C179.991 22.5709 179.865 22.4283 179.719 22.3439C179.703 22.3345 179.685 22.3294 179.667 22.329C179.648 22.3285 179.63 22.3328 179.613 22.3414C179.597 22.35 179.583 22.3626 179.573 22.3781C179.563 22.3936 179.557 22.4114 179.555 22.4299Z" fill="#D82128"/>
<path d="M226.649 20.1763C227.538 18.8882 228.305 18.3122 230.006 16.8089C230.515 16.358 230.912 15.8474 231.196 15.277C231.202 15.2646 231.205 15.2511 231.206 15.2374C231.207 15.2237 231.205 15.21 231.2 15.1972C231.195 15.1844 231.188 15.1728 231.179 15.1631C231.169 15.1534 231.158 15.1458 231.146 15.1407L227.97 13.831C227.934 13.8152 227.9 13.7951 227.87 13.7713L225.965 12.2346C225.959 12.2291 225.954 12.222 225.951 12.214C225.949 12.206 225.949 12.1974 225.95 12.1892C225.952 12.1811 225.957 12.1736 225.963 12.1677C225.969 12.1617 225.976 12.1576 225.984 12.1557C226.413 12.0537 226.762 11.8872 227.032 11.6562C227.11 11.5898 227.208 11.5534 227.31 11.5534C230.561 11.5487 232.723 11.3527 235.305 12.5692C235.408 12.617 235.721 12.8599 236.245 13.2981C236.279 13.3268 236.307 13.3622 236.326 13.4021C236.346 13.442 236.357 13.4855 236.359 13.5299L236.416 14.8157C236.419 14.8567 236.408 14.8976 236.387 14.9333C236.366 14.969 236.335 14.9979 236.298 15.0165C236.181 15.0738 236.089 15.21 236.025 15.4251C236.012 15.4689 235.987 15.5082 235.953 15.5386C235.919 15.569 235.877 15.5893 235.832 15.5972L233.222 16.0298C233.117 16.0484 233.021 16.1013 232.949 16.1804C232.478 16.6998 231.78 17.2526 230.854 17.839C228.988 19.0148 227.613 19.8242 226.728 20.2672C226.715 20.2733 226.701 20.2751 226.688 20.2724C226.675 20.2697 226.663 20.2626 226.654 20.2522C226.645 20.2419 226.639 20.2288 226.639 20.215C226.638 20.2013 226.642 20.1877 226.649 20.1763Z" fill="#D82128"/>
<path d="M282.579 14.7506C279.214 15.4707 276.788 16.0523 275.301 16.4952C271.629 17.5874 267.681 19.2245 264.475 21.6192C263.588 22.2804 262.71 23.1353 261.84 24.1836C261.319 24.8146 260.876 25.2241 260.51 25.4121C259.653 25.8494 258.544 26.0454 257.75 25.5053C257.651 25.4375 257.574 25.3412 257.53 25.229C257.486 25.1169 257.477 24.9941 257.503 24.8767C257.658 24.1932 257.926 23.5065 258.306 22.8166C260.061 19.6236 262.339 16.4187 265.137 14.1507C265.506 13.8519 266.603 13.2067 267.118 13.3978C267.162 13.4143 267.202 13.4399 267.235 13.4728C267.268 13.5058 267.294 13.5454 267.311 13.5892C267.328 13.6329 267.336 13.6797 267.334 13.7267C267.332 13.7736 267.32 13.8195 267.299 13.8615L265.24 17.9602C265.23 17.9781 265.226 17.9984 265.229 18.0184C265.232 18.0384 265.24 18.0571 265.254 18.072C265.267 18.0869 265.285 18.0973 265.305 18.1016C265.324 18.106 265.345 18.1042 265.363 18.0965C267.829 17.0879 270.059 16.1941 272.432 15.5894C273.781 15.2453 275.874 14.5952 277.769 14.2463C280.789 13.6902 282.835 13.3803 283.907 13.3166C286.892 13.1413 289.108 13.1015 290.555 13.1971C292.44 13.3214 294.197 13.5333 295.826 13.8328C296.16 13.8934 296.433 13.973 296.643 14.0718C297.776 14.604 298.808 15.3289 299.741 16.2467C299.797 16.3018 299.829 16.3765 299.831 16.4546C299.84 17.4488 297.867 18.1538 297.099 18.3498C294.792 18.9409 292.653 19.3607 290.681 19.6093C290.198 19.6698 288.614 19.8156 285.928 20.0467C285.882 20.0511 285.837 20.0672 285.798 20.0935C285.76 20.1199 285.728 20.1555 285.707 20.1972L285.655 20.3C285.636 20.3394 285.606 20.373 285.57 20.3977C285.533 20.4224 285.49 20.4373 285.446 20.441L284.596 20.5103C284.535 20.5157 284.479 20.5435 284.438 20.5882C284.397 20.6329 284.375 20.6912 284.375 20.7517V21.5882C284.375 21.6661 284.406 21.7409 284.46 21.796C284.515 21.8512 284.59 21.8821 284.667 21.8821H288.503C288.613 21.8821 288.721 21.9119 288.815 21.9683C288.909 22.0247 288.986 22.1056 289.038 22.2024C289.867 23.7415 287.674 24.4155 286.427 24.7787C286.408 24.7851 286.39 24.7923 286.373 24.8002L281.826 26.9799C281.809 26.9891 281.789 26.9916 281.77 26.9867C281.751 26.9818 281.734 26.9699 281.724 26.9535C281.713 26.937 281.709 26.9171 281.712 26.8976C281.715 26.8782 281.725 26.8606 281.741 26.8484C282.874 25.8829 283.525 25.3499 284.161 24.3629C284.169 24.3497 284.175 24.3347 284.176 24.3191C284.178 24.3036 284.175 24.2879 284.169 24.2734C284.164 24.2589 284.154 24.246 284.143 24.2358C284.131 24.2256 284.117 24.2183 284.102 24.2147L282.106 23.7582C281.963 23.7257 281.831 23.6548 281.724 23.553C281.617 23.4512 281.539 23.3223 281.498 23.1799C281.296 22.4756 281.222 21.679 281.278 20.7899C281.339 19.7973 281.363 18.7975 281.349 17.7906C281.347 17.6968 281.335 17.6031 281.313 17.5109L281.007 16.2251C280.98 16.1142 280.99 15.9974 281.035 15.8922C281.08 15.7871 281.157 15.6993 281.256 15.642L282.617 14.8509C282.628 14.8441 282.635 14.8338 282.639 14.8219C282.643 14.81 282.643 14.7971 282.638 14.7853C282.634 14.7736 282.626 14.7638 282.615 14.7574C282.604 14.7511 282.591 14.7487 282.579 14.7506ZM285.042 14.4542C285.449 15.1059 285.661 15.7671 285.677 16.4378C285.678 16.5307 285.659 16.6222 285.622 16.7055C285.272 17.4815 285.019 18.345 284.862 19.2962C284.857 19.325 284.858 19.3546 284.865 19.3831C284.872 19.4115 284.885 19.4383 284.902 19.4616C284.92 19.4849 284.943 19.5043 284.969 19.5187C284.994 19.533 285.023 19.5419 285.052 19.5448C285.486 19.5878 285.901 19.5726 286.299 19.4994C289.287 18.9513 291.942 18.1937 294.263 17.2265C294.879 16.97 295.406 16.6227 295.843 16.1845C295.859 16.168 295.872 16.1479 295.879 16.1257C295.887 16.1035 295.889 16.0798 295.886 16.0566C295.883 16.0334 295.874 16.0113 295.861 15.992C295.848 15.9727 295.83 15.9568 295.81 15.9455C295.075 15.5329 294.296 15.2516 293.472 15.1019C290.875 14.6255 288.092 14.3618 285.123 14.3108C285.106 14.3103 285.09 14.3144 285.075 14.3228C285.06 14.3311 285.048 14.3433 285.04 14.358C285.031 14.3728 285.027 14.3895 285.028 14.4065C285.028 14.4234 285.033 14.4399 285.042 14.4542Z" fill="#D82128"/>
<path d="M275.732 23.5717C275.733 23.5813 275.737 23.5904 275.743 23.5979C275.749 23.6053 275.757 23.6106 275.767 23.6132C275.776 23.6158 275.786 23.6155 275.795 23.6124C275.804 23.6092 275.812 23.6033 275.818 23.5956L276.744 22.1998C276.761 22.1781 276.784 22.1632 276.811 22.1576C276.838 22.1521 276.866 22.1564 276.889 22.1697C276.913 22.1829 276.932 22.2044 276.941 22.2301C276.951 22.2558 276.951 22.2841 276.941 22.3098C276.347 23.6163 275.86 25.059 275.48 26.638C275.414 26.912 275.168 27.4768 274.742 28.3324C274.708 28.399 274.667 28.4601 274.618 28.5141C274.141 29.0319 273.636 29.4079 273.103 29.6421C273.065 29.6587 273.025 29.6675 272.984 29.6679C272.943 29.6683 272.903 29.6604 272.865 29.6445C272.406 29.4517 272.029 29.1474 271.734 28.7315C271.688 28.6657 271.658 28.5884 271.649 28.5069C271.603 28.0576 271.592 27.7971 271.616 27.7254C272.647 24.6615 273.669 21.5004 274.682 18.2421C274.692 18.21 274.71 18.181 274.735 18.1581C274.759 18.1351 274.789 18.1189 274.822 18.111C274.854 18.103 274.889 18.1037 274.921 18.1128C274.954 18.122 274.984 18.1394 275.008 18.1632C275.984 19.1574 275.696 22.5798 275.732 23.5717Z" fill="#D82128"/>
<path d="M280.227 41.6021C280.221 41.6138 280.218 41.6268 280.219 41.6398C280.22 41.6528 280.225 41.6652 280.233 41.6758C280.24 41.6864 280.25 41.6947 280.262 41.6998C280.274 41.7049 280.287 41.7067 280.3 41.7049C281.898 41.4834 284.314 41.1831 287.55 40.8039C288.859 40.6493 289.751 40.6501 290.227 40.8063C291.483 41.2197 292.69 42.4338 292.621 43.8654C292.599 44.3482 292.551 44.7807 292.478 45.1631C292.475 45.1805 292.468 45.1971 292.458 45.2118C292.448 45.2265 292.436 45.239 292.421 45.2486C292.406 45.2582 292.39 45.2647 292.373 45.2677C292.356 45.2706 292.338 45.27 292.322 45.2659L289.968 44.7282C289.849 44.7011 289.728 44.6859 289.607 44.6828C288.272 44.6604 286.966 44.7035 285.69 44.8118C279.588 45.3233 275.075 45.6937 269.937 46.7022C269.845 46.7206 269.75 46.716 269.66 46.6889C269.571 46.6618 269.489 46.613 269.424 46.5469C268.633 45.7558 268.117 44.2789 267.863 43.3492C267.859 43.3323 267.858 43.3146 267.862 43.2975C267.865 43.2803 267.872 43.2642 267.882 43.2504C267.893 43.2366 267.906 43.2254 267.921 43.2176C267.936 43.2099 267.953 43.2058 267.97 43.2058C269.255 43.2034 277.198 43.0265 277.827 41.6929C278.96 39.2839 279.998 36.8047 280.944 34.2555C280.949 34.2409 280.95 34.2252 280.946 34.2102C280.943 34.1952 280.935 34.1815 280.924 34.1707C280.913 34.1599 280.899 34.1525 280.884 34.1493C280.869 34.1461 280.854 34.1473 280.839 34.1527C279.086 34.8521 277.32 35.1979 275.54 35.1899C274.588 35.1851 273.602 34.4825 274.179 33.4022C274.475 32.8494 274.886 32.3284 275.412 31.8392C277.046 30.3145 278.835 28.8669 280.778 27.4967C280.791 27.4872 280.808 27.4816 280.824 27.4806C280.841 27.4796 280.858 27.4833 280.873 27.4911C280.888 27.499 280.9 27.5108 280.909 27.5252C280.918 27.5397 280.922 27.5563 280.922 27.5732V28.0177C280.922 28.0503 280.912 28.0821 280.892 28.1085L277.694 32.2981C277.676 32.3233 277.666 32.3537 277.665 32.385C277.665 32.4164 277.674 32.447 277.692 32.4725C277.71 32.498 277.735 32.5171 277.764 32.527C277.793 32.5368 277.824 32.537 277.854 32.5275L282.438 31.0601C282.515 31.0364 282.595 31.0275 282.675 31.0338C284.766 31.2178 286.721 32.3196 285.647 34.7932C285.636 34.8202 285.622 34.8458 285.607 34.8697L282.398 39.6256C282.341 39.7074 282.267 39.7753 282.181 39.824C281.649 40.1236 281.208 40.4414 280.856 40.7776C280.584 41.0357 280.374 41.3106 280.227 41.6021Z" fill="#D82128"/>
<path d="M102.881 70.5581L102.527 72.9146C102.522 72.9519 102.504 72.9863 102.478 73.013C102.452 73.0396 102.417 73.0571 102.38 73.0628C98.0429 73.7439 92.2068 73.6029 91.5227 67.9913C91.0952 64.4853 92.3707 61.3903 95.9384 60.2312C98.1403 59.5166 100.634 59.6313 102.898 59.9922C102.914 59.9947 102.928 60.0022 102.939 60.0135C102.949 60.0247 102.956 60.0391 102.957 60.0543L103.145 62.3797C103.146 62.3927 103.144 62.4056 103.139 62.4175C103.134 62.4293 103.126 62.4398 103.116 62.4478C103.105 62.4558 103.094 62.4612 103.081 62.4635C103.068 62.4658 103.055 62.465 103.043 62.461C101.702 62.0452 100.292 61.8516 98.8149 61.8802C98.3002 61.8914 97.6795 62.0332 96.9527 62.3057C94.3945 63.264 93.8078 66.2395 94.7151 68.5362C95.2686 69.9391 96.9337 70.625 98.328 70.7708C99.7199 70.9158 101.181 70.7931 102.71 70.4028C102.733 70.3975 102.756 70.3977 102.778 70.4034C102.8 70.4091 102.821 70.4201 102.838 70.4354C102.855 70.4507 102.867 70.4699 102.875 70.4913C102.883 70.5127 102.885 70.5357 102.881 70.5581Z" fill="#D82128"/>
<path d="M164.224 62.7077C162.671 62.1643 161.02 61.907 159.272 61.9357C156.944 61.9763 155.253 62.9682 154.713 65.37C154.395 66.7944 154.591 68.0707 155.3 69.1987C156.447 71.0246 159.723 71.1394 161.547 70.6709C161.586 70.6612 161.62 70.6392 161.646 70.6082C161.671 70.5772 161.685 70.5389 161.687 70.4989L161.849 67.7146C161.85 67.6986 161.847 67.6826 161.842 67.6676C161.836 67.6525 161.828 67.6388 161.817 67.6271C161.806 67.6155 161.792 67.6062 161.777 67.5999C161.762 67.5935 161.746 67.5903 161.73 67.5903H159.559C159.553 67.5903 159.547 67.5891 159.542 67.5868C159.537 67.5845 159.532 67.5811 159.528 67.5769C159.524 67.5726 159.521 67.5676 159.519 67.5621C159.517 67.5566 159.516 67.5507 159.516 67.5449L159.633 65.5134C159.634 65.4895 159.644 65.467 159.662 65.4506C159.68 65.4341 159.703 65.4249 159.728 65.425H164.806C164.813 65.425 164.819 65.4264 164.826 65.429C164.832 65.4317 164.838 65.4356 164.842 65.4405C164.847 65.4455 164.85 65.4513 164.853 65.4576C164.855 65.464 164.856 65.4708 164.856 65.4776L164.447 72.6235C164.445 72.655 164.433 72.6849 164.413 72.7087C164.392 72.7324 164.364 72.7487 164.333 72.755C162.3 73.1628 160.236 73.3564 158.141 73.3357C157.253 73.3261 156.328 73.1318 155.367 72.7526C153.617 72.0595 152.48 70.7952 151.956 68.9597C151.645 67.8675 151.604 66.3404 151.835 65.198C152.435 62.2185 154.342 60.4452 157.557 59.878C159.671 59.5051 161.97 59.8182 164.07 60.1528C164.082 60.1549 164.093 60.161 164.101 60.1701C164.109 60.1792 164.114 60.1908 164.115 60.203L164.312 62.636C164.313 62.6474 164.311 62.6589 164.306 62.6694C164.302 62.68 164.295 62.6892 164.286 62.6963C164.278 62.7034 164.267 62.7082 164.257 62.7102C164.246 62.7122 164.235 62.7113 164.224 62.7077Z" fill="#D82128"/>
<path d="M299.055 60.1335L299.231 62.3131C299.231 62.3211 299.23 62.3291 299.226 62.3363C299.223 62.3436 299.218 62.3498 299.212 62.3546C299.205 62.3593 299.198 62.3624 299.19 62.3635C299.182 62.3646 299.174 62.3637 299.167 62.3609C297.559 61.7714 296.241 61.6073 295.212 61.8686C294.295 62.1004 293.623 62.8246 294.304 63.7877C294.339 63.8353 294.38 63.8779 294.426 63.9144C296.199 65.3117 297.479 66.337 298.264 66.9902C298.677 67.336 299.02 67.7168 299.293 68.1326C300.323 69.7076 299.917 71.5526 298.312 72.5421C296.281 73.7944 293.257 73.4239 291.072 72.6759C291.052 72.6697 291.035 72.6577 291.022 72.6415C291.009 72.6253 291.002 72.6057 291 72.5851L290.801 70.1187C290.8 70.1112 290.802 70.1037 290.805 70.097C290.809 70.0903 290.814 70.0846 290.82 70.0805C290.826 70.0764 290.834 70.074 290.841 70.0736C290.848 70.0732 290.856 70.0747 290.863 70.078C292.031 70.6946 293.315 71.0539 294.713 71.1559C295.471 71.2109 296.63 70.991 296.96 70.1975C297.167 69.7028 296.684 69.0002 296.39 68.766C294.049 66.9098 292.764 65.8821 292.532 65.6829C291.642 64.9182 291.055 63.9694 291.145 62.7648C291.259 61.2735 292.043 60.3534 293.497 60.0044C295.228 59.587 297.06 59.6061 298.993 60.0618C299.01 60.0661 299.025 60.0753 299.036 60.0882C299.047 60.101 299.053 60.1168 299.055 60.1335Z" fill="#D82128"/>
<path d="M196.539 59.9897C196.443 62.8592 196.319 65.6793 196.169 68.45C196.093 69.8219 195.634 71.3777 194.402 72.1282C192.473 73.3064 189.891 73.4235 187.753 73.0172C186.689 72.8149 185.847 72.407 185.228 71.7936C184.34 70.9117 184.119 69.896 184.171 68.5934C184.282 65.8131 184.392 62.9412 184.501 59.9777C184.503 59.9373 184.519 59.8991 184.548 59.8709C184.577 59.8428 184.616 59.8271 184.656 59.8271H187.478C187.489 59.8271 187.5 59.8294 187.51 59.8338C187.52 59.8381 187.529 59.8446 187.537 59.8526C187.544 59.8607 187.55 59.8702 187.554 59.8806C187.557 59.891 187.559 59.9021 187.558 59.9132C187.503 60.9425 187.362 63.4758 187.136 67.5132C187.055 68.9806 187.193 70.4074 188.919 70.73C189.96 70.926 191.637 70.9619 192.411 70.1565C193.138 69.3988 193.288 68.0509 193.314 67.083C193.369 65.0962 193.409 62.7086 193.433 59.9204C193.433 59.8954 193.443 59.8717 193.461 59.8543C193.479 59.8369 193.503 59.8271 193.528 59.8271H196.383C196.404 59.8271 196.425 59.8314 196.444 59.8396C196.464 59.8479 196.481 59.86 196.496 59.8752C196.511 59.8904 196.522 59.9084 196.53 59.928C196.537 59.9477 196.54 59.9687 196.539 59.9897Z" fill="#D82128"/>
<path d="M115.727 67.4752H109.192C109.173 67.4751 109.154 67.4825 109.14 67.4959C109.126 67.5092 109.118 67.5274 109.116 67.5469L108.805 72.9983C108.804 73.0178 108.796 73.036 108.781 73.0493C108.767 73.0627 108.749 73.0701 108.729 73.07H105.67C105.66 73.07 105.649 73.0679 105.64 73.0638C105.63 73.0596 105.622 73.0536 105.614 73.046C105.607 73.0383 105.602 73.0293 105.598 73.0195C105.595 73.0097 105.593 72.9992 105.594 72.9888L106.333 60.0688C106.334 60.0493 106.342 60.0311 106.356 60.0178C106.371 60.0044 106.389 59.997 106.409 59.9971H109.428C109.438 59.9971 109.448 59.9992 109.458 60.0033C109.467 60.0075 109.476 60.0135 109.483 60.0211C109.49 60.0288 109.496 60.0378 109.499 60.0476C109.503 60.0574 109.504 60.0679 109.504 60.0783L109.221 65.0112C109.22 65.0216 109.222 65.0321 109.225 65.0419C109.229 65.0517 109.234 65.0607 109.241 65.0684C109.249 65.076 109.257 65.082 109.267 65.0862C109.276 65.0903 109.287 65.0924 109.297 65.0924H115.862C115.882 65.0925 115.9 65.0851 115.914 65.0717C115.929 65.0584 115.937 65.0402 115.938 65.0207L116.221 60.0688C116.222 60.0493 116.231 60.0311 116.245 60.0178C116.259 60.0044 116.278 59.997 116.297 59.9971H119.371C119.381 59.9971 119.391 59.9992 119.401 60.0033C119.41 60.0075 119.419 60.0135 119.426 60.0211C119.433 60.0288 119.439 60.0378 119.442 60.0476C119.446 60.0574 119.447 60.0679 119.447 60.0783L118.708 72.9983C118.707 73.0178 118.698 73.036 118.684 73.0493C118.67 73.0627 118.651 73.0701 118.632 73.07H115.568C115.557 73.07 115.547 73.0679 115.538 73.0638C115.528 73.0596 115.519 73.0536 115.512 73.046C115.505 73.0383 115.5 73.0293 115.496 73.0195C115.493 73.0097 115.491 72.9992 115.492 72.9888L115.803 67.5564C115.804 67.546 115.802 67.5355 115.799 67.5257C115.795 67.5159 115.79 67.5069 115.782 67.4993C115.775 67.4916 115.767 67.4856 115.757 67.4814C115.748 67.4773 115.737 67.4752 115.727 67.4752Z" fill="#D82128"/>
<path d="M132.533 62.3243H125.799C125.777 62.3243 125.756 62.3327 125.74 62.3478C125.724 62.3629 125.714 62.3836 125.713 62.4056L125.571 64.8887C125.57 64.9004 125.572 64.9121 125.576 64.9231C125.58 64.9341 125.586 64.9442 125.594 64.9527C125.602 64.9612 125.612 64.968 125.622 64.9726C125.633 64.9772 125.644 64.9796 125.656 64.9796H132.35C132.361 64.9795 132.373 64.9819 132.384 64.9865C132.394 64.9911 132.404 64.9979 132.412 65.0064C132.42 65.0149 132.426 65.025 132.43 65.036C132.434 65.047 132.436 65.0587 132.435 65.0704L132.312 67.2261C132.311 67.2481 132.301 67.2687 132.285 67.2839C132.269 67.299 132.248 67.3074 132.226 67.3073H125.516C125.494 67.3073 125.473 67.3157 125.457 67.3308C125.441 67.346 125.432 67.3666 125.43 67.3886L125.243 70.6533C125.242 70.665 125.244 70.6767 125.248 70.6877C125.252 70.6987 125.258 70.7087 125.266 70.7172C125.274 70.7257 125.284 70.7325 125.294 70.7371C125.305 70.7417 125.317 70.7441 125.328 70.7441H132.015C132.026 70.7441 132.038 70.7464 132.049 70.7511C132.059 70.7557 132.069 70.7624 132.077 70.7709C132.085 70.7794 132.091 70.7895 132.095 70.8005C132.099 70.8115 132.101 70.8232 132.1 70.8349L131.977 72.993C131.976 73.015 131.966 73.0357 131.95 73.0508C131.934 73.0659 131.913 73.0743 131.891 73.0743H121.996C121.984 73.0743 121.973 73.0719 121.962 73.0673C121.951 73.0627 121.942 73.0559 121.934 73.0474C121.926 73.0389 121.919 73.0288 121.915 73.0178C121.911 73.0069 121.91 72.9951 121.91 72.9835L122.651 60.0754C122.653 60.0534 122.662 60.0327 122.678 60.0176C122.694 60.0025 122.715 59.9941 122.737 59.9941H132.656C132.668 59.9941 132.679 59.9965 132.69 60.0011C132.701 60.0057 132.71 60.0125 132.718 60.021C132.726 60.0295 132.733 60.0396 132.737 60.0506C132.741 60.0616 132.742 60.0733 132.742 60.085L132.618 62.2431C132.617 62.2651 132.607 62.2857 132.591 62.3008C132.576 62.316 132.555 62.3244 132.533 62.3243Z" fill="#D82128"/>
<path d="M145.062 69.2599C145.065 69.2671 145.07 69.2731 145.077 69.2768C145.083 69.2806 145.091 69.2818 145.099 69.2804C145.106 69.279 145.113 69.275 145.118 69.2691C145.123 69.2632 145.126 69.2557 145.126 69.248L145.648 60.1351C145.651 60.0969 145.667 60.0611 145.695 60.0349C145.722 60.0087 145.758 59.9941 145.796 59.9941H148.694C148.715 59.9941 148.737 59.9985 148.757 60.0072C148.777 60.0158 148.795 60.0285 148.81 60.0444C148.824 60.0603 148.836 60.0791 148.843 60.0996C148.851 60.1202 148.854 60.142 148.853 60.1638L148.121 72.9333C148.119 72.9713 148.103 73.0072 148.075 73.0335C148.047 73.0597 148.01 73.0743 147.971 73.0743H143.644C143.606 73.0744 143.568 73.0634 143.536 73.0426C143.504 73.0218 143.479 72.9921 143.463 72.9572L139.088 62.8262C139.085 62.8179 139.079 62.8109 139.071 62.8064C139.064 62.802 139.055 62.8003 139.046 62.8017C139.037 62.8031 139.029 62.8075 139.024 62.8142C139.018 62.8208 139.014 62.8293 139.014 62.8382L138.437 72.938C138.435 72.9757 138.418 73.0109 138.391 73.0367C138.363 73.0624 138.327 73.0767 138.29 73.0767H135.38C135.36 73.0767 135.34 73.0726 135.321 73.0647C135.303 73.0568 135.286 73.0451 135.272 73.0306C135.259 73.016 135.248 72.9988 135.241 72.98C135.234 72.9612 135.231 72.9412 135.233 72.9213L135.964 60.1375C135.966 60.0995 135.983 60.0636 136.011 60.0373C136.038 60.0111 136.075 59.9965 136.114 59.9965H140.936C140.973 59.9965 141.01 60.0074 141.041 60.0277C141.072 60.0481 141.097 60.0771 141.112 60.1112L145.062 69.2599Z" fill="#D82128"/>
<path d="M167.541 72.8807L168.27 60.1304C168.273 60.0953 168.288 60.0625 168.314 60.0385C168.34 60.0146 168.373 60.0013 168.408 60.0014C172.416 59.987 174.871 59.9974 175.774 60.0324C178.344 60.136 179.964 61.4178 180.634 63.8778C181.175 65.8663 180.978 68.3542 179.855 70.1204C178.534 72.1924 176.368 73.0313 173.99 73.0552C171.879 73.0775 169.788 73.0815 167.715 73.0672C167.691 73.0669 167.668 73.0617 167.646 73.0521C167.624 73.0425 167.605 73.0286 167.588 73.0112C167.572 72.9937 167.56 72.9732 167.552 72.9508C167.544 72.9284 167.54 72.9046 167.541 72.8807ZM171.282 62.4104L170.812 70.6199C170.811 70.6421 170.814 70.6644 170.821 70.6853C170.829 70.7063 170.841 70.7255 170.856 70.7418C170.871 70.7581 170.889 70.7712 170.909 70.7802C170.93 70.7892 170.951 70.794 170.974 70.7943C172.324 70.8055 173.392 70.7728 174.178 70.6963C177.325 70.3856 178.32 67.0541 177.622 64.418C177.299 63.2039 176.551 62.4941 175.247 62.365C173.947 62.2383 172.7 62.2622 171.434 62.267C171.396 62.2669 171.358 62.2817 171.33 62.3084C171.302 62.335 171.285 62.3715 171.282 62.4104Z" fill="#D82128"/>
<path d="M209.213 73.0724H205.626C205.613 73.0721 205.601 73.0683 205.59 73.0614C205.579 73.0546 205.57 73.0449 205.564 73.0333C205.559 73.0218 205.556 73.009 205.557 72.9961C205.558 72.9832 205.562 72.9707 205.569 72.9601L214.75 60.0281C214.756 60.0188 214.765 60.0111 214.775 60.0057C214.784 60.0003 214.795 59.9973 214.807 59.9971H219.828C219.838 59.997 219.848 59.9991 219.857 60.0029C219.865 60.0068 219.874 60.0126 219.88 60.0197C219.887 60.0269 219.892 60.0354 219.895 60.0446C219.899 60.0539 219.9 60.0637 219.899 60.0736L219.158 73.0031C219.157 73.0213 219.149 73.0383 219.136 73.0507C219.123 73.0632 219.105 73.0701 219.087 73.07H216.03C216.02 73.07 216.011 73.0681 216.002 73.0642C215.993 73.0603 215.985 73.0545 215.978 73.0474C215.971 73.0402 215.966 73.0317 215.963 73.0225C215.959 73.0132 215.958 73.0034 215.959 72.9936L216.526 63.049C216.528 63.0336 216.524 63.0182 216.515 63.0051C216.507 62.9921 216.495 62.9822 216.48 62.9768C216.466 62.9714 216.45 62.9709 216.435 62.9753C216.42 62.9797 216.407 62.9888 216.398 63.0012L209.27 73.0413C209.264 73.0507 209.255 73.0584 209.245 73.0638C209.235 73.0692 209.224 73.0721 209.213 73.0724Z" fill="#D82128"/>
<path d="M223.12 59.9922H226.158C226.169 59.9922 226.18 59.9944 226.19 59.9988C226.201 60.0032 226.21 60.0096 226.217 60.0176C226.225 60.0257 226.231 60.0352 226.234 60.0457C226.238 60.0561 226.24 60.0672 226.239 60.0782L225.5 72.9911C225.499 73.0118 225.49 73.0312 225.475 73.0455C225.46 73.0597 225.44 73.0676 225.42 73.0675H222.382C222.371 73.0676 222.36 73.0653 222.35 73.0609C222.34 73.0565 222.33 73.0501 222.323 73.0421C222.315 73.034 222.309 73.0245 222.306 73.0141C222.302 73.0036 222.3 72.9926 222.301 72.9815L223.04 60.0687C223.041 60.048 223.05 60.0285 223.065 60.0143C223.08 60.0001 223.1 59.9922 223.12 59.9922Z" fill="#D82128"/>
<path d="M228.705 72.9001L229.437 60.1307C229.439 60.0956 229.454 60.0625 229.479 60.0381C229.504 60.0137 229.537 59.9998 229.572 59.9992C233.724 59.9881 236.123 59.9952 236.767 60.0207C237.924 60.0638 238.907 60.6875 239.411 61.8108C240.127 63.4041 239.84 64.8444 238.551 66.1318C238.256 66.425 237.598 66.793 236.575 67.236C236.56 67.2424 236.546 67.2519 236.535 67.2638C236.523 67.2756 236.515 67.2897 236.509 67.3051C236.503 67.3205 236.5 67.337 236.501 67.3534C236.502 67.3699 236.506 67.386 236.513 67.4009L239.147 72.9336C239.154 72.9481 239.157 72.9641 239.156 72.9801C239.155 72.9962 239.15 73.0117 239.141 73.0252C239.133 73.0388 239.121 73.05 239.107 73.0578C239.093 73.0656 239.078 73.0697 239.062 73.0698H236.095C236.055 73.0698 236.016 73.058 235.983 73.036C235.95 73.0139 235.923 72.9825 235.907 72.9455L232.777 65.6992C232.77 65.685 232.768 65.6694 232.77 65.6539C232.772 65.6385 232.778 65.6239 232.787 65.6116C232.797 65.5994 232.81 65.5899 232.824 65.5843C232.838 65.5787 232.854 65.5771 232.869 65.5797C233.726 65.7088 234.529 65.6833 235.278 65.5033C236.287 65.2595 236.976 64.5329 236.893 63.51C236.828 62.7102 236.378 62.2633 235.541 62.1693C234.678 62.0737 233.706 62.0665 232.625 62.1478C232.589 62.1506 232.556 62.1662 232.531 62.1916C232.506 62.2171 232.491 62.2508 232.489 62.2864L231.879 72.9551C231.877 72.9868 231.863 73.0166 231.839 73.0384C231.816 73.0602 231.785 73.0723 231.753 73.0722H228.867C228.845 73.0722 228.823 73.0677 228.803 73.059C228.783 73.0502 228.764 73.0374 228.749 73.0213C228.734 73.0051 228.722 72.9861 228.715 72.9652C228.707 72.9444 228.704 72.9222 228.705 72.9001Z" fill="#D82128"/>
<path d="M243.32 59.9971H246.363C246.373 59.997 246.383 59.9991 246.392 60.0031C246.402 60.0071 246.41 60.013 246.417 60.0204C246.424 60.0278 246.429 60.0366 246.433 60.0461C246.436 60.0557 246.437 60.0658 246.437 60.0759L245.831 70.6634C245.83 70.6735 245.832 70.6836 245.835 70.6932C245.839 70.7027 245.844 70.7115 245.851 70.7189C245.858 70.7263 245.866 70.7322 245.875 70.7362C245.885 70.7402 245.895 70.7423 245.905 70.7422H251.541C251.551 70.7422 251.561 70.7443 251.571 70.7483C251.58 70.7523 251.588 70.7582 251.595 70.7656C251.602 70.773 251.607 70.7817 251.611 70.7913C251.614 70.8008 251.616 70.811 251.615 70.8211L251.491 73.0031C251.49 73.0219 251.482 73.0396 251.468 73.0524C251.454 73.0653 251.436 73.0725 251.418 73.0724H242.582C242.572 73.0724 242.562 73.0704 242.552 73.0664C242.543 73.0623 242.535 73.0565 242.528 73.0491C242.521 73.0417 242.516 73.0329 242.512 73.0234C242.509 73.0138 242.507 73.0037 242.508 72.9936L243.247 60.0664C243.248 60.0476 243.256 60.0299 243.27 60.0171C243.284 60.0042 243.302 59.997 243.32 59.9971Z" fill="#D82128"/>
<path d="M257.865 73.0675H254.851C254.838 73.0676 254.826 73.065 254.814 73.06C254.802 73.055 254.792 73.0477 254.783 73.0386C254.775 73.0294 254.768 73.0186 254.764 73.0067C254.759 72.9948 254.757 72.9822 254.758 72.9695L255.497 60.0806C255.498 60.0567 255.508 60.0342 255.525 60.0178C255.543 60.0013 255.566 59.9922 255.589 59.9922H258.604C258.616 59.9922 258.629 59.9947 258.64 59.9997C258.652 60.0047 258.662 60.012 258.671 60.0212C258.679 60.0303 258.686 60.0412 258.691 60.053C258.695 60.0649 258.697 60.0775 258.696 60.0902L257.957 72.9791C257.956 73.003 257.946 73.0255 257.929 73.0419C257.911 73.0584 257.889 73.0676 257.865 73.0675Z" fill="#D82128"/>
<path d="M271.035 69.2557C271.038 69.2629 271.044 69.2688 271.05 69.2726C271.057 69.2763 271.065 69.2776 271.072 69.2762C271.08 69.2748 271.087 69.2708 271.092 69.2648C271.097 69.2589 271.099 69.2515 271.1 69.2437L271.625 60.1381C271.628 60.1003 271.644 60.065 271.672 60.0393C271.699 60.0136 271.735 59.9994 271.772 59.9995H274.667C274.689 59.9994 274.711 60.0039 274.73 60.0125C274.75 60.0211 274.768 60.0338 274.783 60.0497C274.798 60.0656 274.81 60.0844 274.817 60.1049C274.825 60.1255 274.828 60.1473 274.826 60.1691L274.09 72.929C274.088 72.9671 274.072 73.003 274.044 73.0292C274.016 73.0555 273.979 73.0701 273.94 73.07L269.615 73.0676C269.577 73.0673 269.54 73.0561 269.509 73.0353C269.477 73.0146 269.452 72.9851 269.437 72.9505L265.069 62.8268C265.066 62.8184 265.06 62.8115 265.052 62.807C265.045 62.8025 265.036 62.8008 265.027 62.8023C265.018 62.8037 265.01 62.8081 265.005 62.8147C264.999 62.8214 264.995 62.8298 264.995 62.8387L264.413 72.929C264.411 72.9666 264.394 73.0019 264.367 73.0277C264.339 73.0534 264.303 73.0677 264.266 73.0676H261.359C261.338 73.0677 261.318 73.0636 261.3 73.0557C261.281 73.0477 261.265 73.0361 261.251 73.0216C261.237 73.007 261.226 72.9898 261.22 72.971C261.213 72.9522 261.21 72.9322 261.211 72.9123L261.948 60.1381C261.949 60.1 261.966 60.0641 261.994 60.0379C262.022 60.0116 262.059 59.997 262.097 59.9971L266.914 59.9995C266.952 59.9994 266.988 60.0103 267.02 60.0307C267.051 60.051 267.075 60.0801 267.09 60.1142L271.035 69.2557Z" fill="#D82128"/>
<path d="M288.034 59.9971C288.044 59.9971 288.053 59.999 288.062 60.0026C288.07 60.0063 288.078 60.0117 288.085 60.0184C288.091 60.0251 288.096 60.0331 288.099 60.0417C288.102 60.0504 288.104 60.0596 288.103 60.0688L287.991 62.2532C287.991 62.2724 287.983 62.2906 287.969 62.304C287.955 62.3174 287.937 62.3249 287.918 62.3249L281.222 62.3273C281.182 62.3272 281.144 62.3427 281.116 62.3704C281.087 62.398 281.071 62.4357 281.07 62.4754L280.968 64.8391C280.967 64.8576 280.969 64.876 280.976 64.8934C280.982 64.9108 280.992 64.9266 281.005 64.94C281.018 64.9535 281.034 64.9641 281.051 64.9714C281.068 64.9787 281.087 64.9825 281.105 64.9825L287.692 64.9777C287.709 64.9777 287.725 64.981 287.74 64.9875C287.755 64.9939 287.769 65.0034 287.78 65.0152C287.792 65.0271 287.8 65.0411 287.806 65.0565C287.812 65.0718 287.814 65.0881 287.813 65.1044L287.685 67.1764C287.683 67.2107 287.668 67.2429 287.643 67.2665C287.619 67.29 287.586 67.3032 287.552 67.3031L280.913 67.3079C280.888 67.3078 280.865 67.3172 280.846 67.334C280.828 67.3509 280.817 67.374 280.816 67.3987L280.626 70.6203C280.625 70.636 280.627 70.6517 280.632 70.6664C280.638 70.6812 280.646 70.6947 280.657 70.7061C280.668 70.7175 280.681 70.7266 280.696 70.7328C280.71 70.739 280.726 70.7422 280.742 70.7422L287.376 70.7398C287.39 70.7398 287.403 70.7426 287.415 70.7479C287.428 70.7533 287.439 70.7611 287.448 70.7709C287.458 70.7807 287.465 70.7924 287.47 70.8051C287.474 70.8179 287.476 70.8314 287.476 70.845L287.371 72.9577C287.37 72.9867 287.358 73.014 287.336 73.0341C287.315 73.0541 287.287 73.0653 287.257 73.0652L277.402 73.0724C277.39 73.0725 277.379 73.07 277.368 73.0653C277.357 73.0605 277.347 73.0535 277.339 73.0447C277.331 73.036 277.325 73.0256 277.321 73.0143C277.317 73.0031 277.316 72.9911 277.317 72.9792L278.013 60.1476C278.015 60.1089 278.031 60.0724 278.06 60.0457C278.088 60.019 278.126 60.0042 278.165 60.0042L288.034 59.9971Z" fill="#D82128"/>
</g>
<defs>
<clipPath id="clip0_318_71419">
<rect width="300" height="76" fill="white"/>
</clipPath>
</defs>
</svg>
