<svg width="300" height="45" viewBox="0 0 300 45" fill="none" xmlns="http://www.w3.org/2000/svg">
<path d="M0 21.6926V21.0332C0.448454 19.8849 1.34021 19.5073 2.67526 19.9004C4.6134 20.4642 5.8634 20.834 6.42526 21.0099C7.26183 21.2725 8.12486 21.4238 8.99227 21.4599C18.0954 21.822 27.4304 21.5737 36.9974 20.7151C37.1095 20.7053 37.2139 20.6537 37.2898 20.5703C37.3657 20.4869 37.4076 20.378 37.4072 20.2651C37.4021 18.0047 37.8737 15.8478 38.8222 13.7944L39.7732 14.0659C37.5103 19.647 38.1263 25.1737 41.6211 30.6461C42.3995 31.8616 42.951 32.5237 43.2758 32.6323C43.4547 32.699 43.6458 32.7331 43.8402 32.7332L67.4149 32.7021C67.7085 32.7023 67.9978 32.6352 68.2605 32.5061C68.5233 32.3769 68.7525 32.1892 68.9304 31.9573C75.4021 23.4539 74.1959 12.3125 65.2423 6.36161C63.5361 5.22885 62.4485 4.57972 61.9794 4.4142C57.4072 2.82109 52.683 3.18316 47.8067 5.50041C47.5026 5.64523 47.3222 5.71247 47.2655 5.70213C47.0387 5.67109 46.8711 5.73316 46.7629 5.88834C46.6031 6.11592 46.4407 6.27368 46.2758 6.36161C44.9407 7.12713 43.6057 8.35558 42.2706 10.047C42.2229 10.1063 42.1932 10.1781 42.1852 10.2539C42.1772 10.3298 42.1912 10.4063 42.2255 10.4743C42.2598 10.5423 42.3129 10.599 42.3786 10.6374C42.4442 10.6758 42.5195 10.6944 42.5954 10.6909C46.7861 10.5823 51.6237 10.5642 57.1082 10.6366C59.4072 10.6625 61.0773 10.8875 62.1186 11.3116C66.0619 12.9021 69.116 17.1383 67.732 21.3435C66.9124 23.847 65.4021 24.8323 63.201 24.2995C63.1033 24.2746 63.0134 24.2252 62.9399 24.1559C62.8665 24.0866 62.812 23.9998 62.7817 23.9039C62.7514 23.808 62.7463 23.7063 62.7669 23.6084C62.7876 23.5106 62.8332 23.4199 62.8995 23.3452C64.1933 21.8659 64.6727 20.7978 64.3376 20.1409C65.3737 14.9814 60.4407 11.9323 55.8634 11.9323C49.4304 11.9271 42.9974 11.9116 36.5644 11.8857C36.3067 11.834 36.0515 11.8366 35.799 11.8935C35.2732 11.7125 34.9175 11.4306 34.732 11.0478C34.7071 10.9973 34.6955 10.9413 34.6981 10.885C34.7007 10.8288 34.7174 10.7741 34.7467 10.726C34.7761 10.678 34.817 10.6382 34.8658 10.6104C34.9146 10.5825 34.9696 10.5675 35.0258 10.5668H39.5722C39.8299 10.5668 40.084 10.5089 40.3156 10.3974C40.5472 10.2859 40.7503 10.1237 40.9098 9.92282C45.7809 3.78316 52.0464 1.4323 59.7062 2.87023C67.8247 4.39868 73.8711 12.103 74.018 20.4745C74.0179 20.5501 74.0468 20.6229 74.0986 20.6777C74.1504 20.7326 74.2212 20.7654 74.2964 20.7694C84.0155 21.4521 93.3402 21.9409 102.418 21.4289C104.613 21.3047 107.034 20.3737 108.843 19.8073C109.262 19.678 109.699 19.666 110.095 19.7729C110.49 19.8798 110.826 20.1005 111.054 20.4047C111.446 20.922 111.387 21.672 110.876 22.6547C109.716 24.8944 107.956 26.3789 105.595 27.1082C105.531 27.1295 105.477 27.1736 105.443 27.2321C105.409 27.2907 105.397 27.3597 105.41 27.4263C105.621 28.5228 105.325 29.3245 104.521 29.8314C102.278 31.259 99.7706 32.0995 96.9974 32.353C96.8556 32.3656 96.7231 32.4281 96.6238 32.5291C96.5245 32.6302 96.465 32.7631 96.4562 32.9039C96.3789 33.9642 95.8325 34.7401 94.817 35.2314C92.4149 36.3901 89.9304 36.7961 87.3634 36.4495C87.2956 36.4408 87.2268 36.4456 87.1611 36.4636C87.0953 36.4816 87.034 36.5126 86.9806 36.5545C86.9272 36.5965 86.883 36.6487 86.8504 36.7079C86.8179 36.7672 86.7978 36.8324 86.7912 36.8995C86.7216 37.6521 86.3273 38.1875 85.6469 38.2806C82.5902 38.7099 79.6701 38.5495 76.8866 37.7995C76.762 37.7665 76.6312 37.7671 76.5076 37.8012C76.384 37.8353 76.2719 37.9017 76.183 37.9935C75.3222 38.8883 73.9845 39.0228 72.1701 38.397C72.0959 38.3703 72.0158 38.3646 71.9385 38.3802C71.8612 38.3959 71.7897 38.4325 71.7316 38.486C71.6735 38.5395 71.6311 38.6079 71.6089 38.6838C71.5867 38.7597 71.5856 38.8403 71.6057 38.9168C71.6211 38.9737 71.7784 39.1987 72.0773 39.5918C72.1852 39.7355 72.2532 39.905 72.2745 40.0838C72.2958 40.2625 72.2697 40.4444 72.1988 40.6116C72.1279 40.7789 72.0147 40.9258 71.8701 41.0381C71.7254 41.1503 71.5544 41.2241 71.3737 41.2521C70.4046 41.4021 69.4613 41.4383 68.5438 41.3608C68.4143 41.3469 68.2839 41.3778 68.1743 41.4483C68.0646 41.5188 67.9822 41.6248 67.9407 41.7487C67.5851 42.7883 66.7165 43.3082 65.3351 43.3082C63.9588 43.303 62.8711 43.3237 62.0722 43.3702C59.7165 43.5099 57.7216 43.1168 56.0876 42.1909C55.9765 42.1267 55.8514 42.0916 55.7243 42.0889C55.5971 42.0862 55.4721 42.1159 55.3608 42.1754C53.067 43.3392 50.4923 43.6858 47.6366 43.2151C47.4628 43.1843 47.2844 43.1869 47.1108 43.2228C45.3634 43.5745 44.1314 43.0832 43.4149 41.7487C43.3496 41.6222 43.2509 41.5162 43.1295 41.4423C43.0081 41.3684 42.8688 41.3294 42.7268 41.3297H40.1907C40.0287 41.3288 39.8695 41.2876 39.7272 41.2099C39.5849 41.1323 39.464 41.0205 39.3752 40.8845C39.2864 40.7485 39.2325 40.5927 39.2183 40.4307C39.2041 40.2688 39.23 40.1059 39.2938 39.9564L39.8041 38.7771C39.8239 38.7342 39.831 38.6866 39.8248 38.6398C39.8185 38.593 39.7991 38.5486 39.7687 38.5117C39.7383 38.4748 39.6981 38.4467 39.6525 38.4306C39.6069 38.4144 39.5577 38.4109 39.5103 38.4202C38.0954 38.6995 36.0309 39.1495 35.1418 37.9314C35.063 37.8248 34.9494 37.7492 34.8208 37.718C34.6922 37.6868 34.5568 37.7019 34.4381 37.7607C33.3402 38.309 30.884 38.5495 27.0696 38.4823C25.4716 38.4564 24.6211 37.9082 24.518 36.8375C24.5121 36.7707 24.4919 36.7059 24.4588 36.6477C24.4257 36.5895 24.3804 36.5391 24.3261 36.5C24.2717 36.461 24.2096 36.4342 24.144 36.4214C24.0784 36.4087 24.0108 36.4104 23.9459 36.4263C22.4459 36.7935 20.3892 36.5633 17.7758 35.7358C15.9613 35.1616 15.018 34.2073 14.9459 32.8728C14.9366 32.7294 14.8762 32.5946 14.7763 32.4943C14.6763 32.394 14.544 32.3354 14.4046 32.3297C12.1572 32.2056 9.76546 31.4426 7.22938 30.0409C6.15206 29.4409 5.73454 28.647 5.9768 27.659C6.00203 27.5543 5.98767 27.4438 5.93642 27.3481C5.88517 27.2523 5.80056 27.1781 5.69845 27.1392C3.10052 26.1875 1.20103 24.372 0 21.6926ZM30.1005 24.5556L29.3582 22.8564C29.2768 22.6667 29.1392 22.5065 28.9637 22.397C28.7883 22.2875 28.5834 22.2339 28.3763 22.2435C19.8247 22.6263 13.6057 22.6366 9.71907 22.2745C7.22938 22.0418 4.74742 21.4263 2.2732 20.428C1.87629 20.2676 1.5232 20.3737 1.21392 20.7461C0.873711 21.1547 0.868557 21.6435 1.19845 22.2125C2.75515 24.9435 5.22165 26.5107 8.59794 26.9142C14.1804 27.5892 22.8711 26.9375 29.5283 25.6418C29.6441 25.6202 29.7536 25.5726 29.8484 25.5026C29.9433 25.4326 30.0212 25.342 30.0762 25.2375C30.1312 25.1331 30.162 25.0174 30.1662 24.8993C30.1704 24.7813 30.148 24.6637 30.1005 24.5556ZM81.2397 24.5633C81.1937 24.6716 81.1725 24.7888 81.1774 24.9064C81.1823 25.024 81.2133 25.1391 81.2681 25.2431C81.3229 25.3472 81.4002 25.4377 81.4942 25.508C81.5883 25.5783 81.6968 25.6266 81.8119 25.6495C88.4923 26.953 97.2139 27.597 102.82 26.922C106.206 26.5133 108.68 24.9383 110.242 22.197C110.572 21.6228 110.567 21.1314 110.227 20.7228C109.918 20.3504 109.562 20.2444 109.16 20.4047C106.68 21.4082 104.191 22.0263 101.691 22.259C97.7887 22.6263 91.5464 22.6211 82.9639 22.2435C82.7568 22.2339 82.5519 22.2875 82.3765 22.397C82.201 22.5065 82.0634 22.6667 81.982 22.8564L81.2397 24.5633ZM41.4665 32.3297C41.2294 31.9883 40.9613 31.7297 40.6624 31.5539C40.5862 31.508 40.5225 31.4441 40.4768 31.3676C38.6211 28.347 37.5747 25.303 37.3376 22.2358C37.3278 22.1005 37.2665 21.974 37.1661 21.8818C37.0656 21.7897 36.9335 21.7387 36.7964 21.7392H30.7036C30.6144 21.7392 30.5265 21.7602 30.4467 21.8004C30.3669 21.8406 30.2974 21.899 30.2435 21.971C30.1897 22.0431 30.153 22.1269 30.1362 22.2158C30.1194 22.3048 30.1231 22.3966 30.1469 22.484C30.8892 25.153 34.1598 23.7875 35.8067 25.3082C37.7474 27.1004 36.4948 29.8547 39.7191 30.7004C40.1881 30.8245 40.3814 31.2151 40.299 31.872C40.268 32.1099 40.3015 32.3452 40.3995 32.578C40.4253 32.6401 40.7088 32.684 41.25 32.7099C41.2959 32.7114 41.3416 32.7004 41.3819 32.6781C41.4221 32.6557 41.4554 32.623 41.4779 32.5834C41.5004 32.5439 41.5113 32.4992 41.5092 32.4544C41.5072 32.4096 41.4924 32.3664 41.4665 32.3297ZM72.4098 30.4676C72.6551 30.4322 72.887 30.3344 73.0834 30.1835C73.2797 30.0327 73.4338 29.834 73.5309 29.6064L74.9691 26.2935C75.1625 25.8444 75.4689 25.4536 75.858 25.1598C76.2471 24.8659 76.7056 24.6791 77.1881 24.6176C78.9046 24.4004 81.1237 24.1832 81.2088 22.228C81.2119 22.1619 81.2016 22.0958 81.1786 22.0338C81.1555 21.9718 81.1201 21.9151 81.0746 21.8672C81.029 21.8193 80.9742 21.7812 80.9136 21.7552C80.8529 21.7292 80.7876 21.7158 80.7216 21.7159H74.6598C74.5149 21.7153 74.3751 21.7691 74.2678 21.8667C74.1604 21.9644 74.0934 22.0988 74.0799 22.2435C73.8015 25.3108 72.9356 27.9642 71.482 30.2039C71.4554 30.243 71.4409 30.289 71.4403 30.3364C71.4397 30.3837 71.453 30.4301 71.4786 30.4699C71.5042 30.5097 71.5409 30.541 71.5841 30.5599C71.6274 30.5788 71.6752 30.5845 71.7216 30.5763L72.4098 30.4676ZM7.50773 27.8608C7.3829 27.8505 7.25817 27.8817 7.15267 27.9494C7.04718 28.0172 6.96676 28.1178 6.92374 28.2358C6.88073 28.3538 6.8775 28.4828 6.91455 28.6028C6.95161 28.7229 7.0269 28.8274 7.12887 28.9004C13.7397 33.734 28.2216 32.3064 34.9716 28.3651C35.2605 28.1971 35.48 27.9335 35.5884 27.6245C35.6967 27.3155 35.6864 26.9826 35.5593 26.6892C35.384 26.2858 34.9897 25.9832 34.3763 25.7814C32.9536 25.3211 31.8015 25.3599 30.9201 25.8978C28.4923 27.3875 25.4304 27.6047 21.8582 27.8608C16.9871 28.2073 12.2036 28.2073 7.50773 27.8608ZM103.918 27.8995C99.2113 28.2513 94.4175 28.2564 89.5361 27.9151C85.9562 27.659 82.8866 27.4418 80.451 25.9521C79.5644 25.4142 78.4098 25.3754 76.9871 25.8358C76.3737 26.0426 75.9794 26.3478 75.8041 26.7513C75.6774 27.0436 75.6672 27.3756 75.7755 27.6844C75.8838 27.9932 76.103 28.2574 76.3918 28.4271C83.1572 32.3763 97.6778 33.7961 104.296 28.9392C104.398 28.8662 104.474 28.7617 104.511 28.6416C104.548 28.5216 104.545 28.3926 104.502 28.2746C104.458 28.1566 104.378 28.0559 104.273 27.9882C104.167 27.9204 104.042 27.8893 103.918 27.8995ZM16.2526 33.2064C16.1701 33.212 16.0916 33.2439 16.0285 33.2974C15.9654 33.351 15.9211 33.4235 15.9021 33.5042C15.8831 33.5849 15.8903 33.6696 15.9228 33.7459C15.9552 33.8222 16.0112 33.886 16.0825 33.928C18.8351 35.6349 21.8454 36.1289 25.1134 35.4099C29.7423 34.3909 33.4175 32.9245 36.1392 31.0108C36.3713 30.8472 36.5447 30.6126 36.6338 30.3416C36.7229 30.0706 36.723 29.7775 36.634 29.5056L36.5954 29.3892C36.5637 29.2906 36.5088 29.2012 36.4353 29.1285C36.3618 29.0557 36.272 29.0018 36.1733 28.9714C36.0747 28.9409 35.9702 28.9348 35.8687 28.9535C35.7671 28.9722 35.6716 29.0152 35.5902 29.0789C31.701 32.1435 25.7784 32.9582 20.8763 33.0513C18.3763 33.0978 16.8351 33.1495 16.2526 33.2064ZM95.2655 33.1599C94.6778 33.103 93.1289 33.0539 90.6186 33.0125C85.6933 32.9271 79.7474 32.128 75.8351 29.0556C75.7536 28.9919 75.6581 28.9489 75.5566 28.9302C75.4551 28.9115 75.3506 28.9176 75.2519 28.9481C75.1533 28.9786 75.0634 29.0324 74.99 29.1052C74.9165 29.1779 74.8616 29.2674 74.8299 29.3659L74.7912 29.4901C74.7026 29.7611 74.7028 30.0535 74.7918 30.3244C74.8809 30.5952 75.0541 30.8304 75.2861 30.9952C78.0232 32.9142 81.7165 34.3806 86.366 35.3944C89.6495 36.1082 92.6727 35.6039 95.4356 33.8814C95.5049 33.8394 95.5589 33.7767 95.59 33.7019C95.621 33.6272 95.6277 33.5443 95.6089 33.4647C95.5902 33.3852 95.547 33.313 95.4854 33.2584C95.4238 33.2037 95.3469 33.1693 95.2655 33.1599ZM25.817 37.4426C29.1727 38.1875 36.0696 37.5358 38.5747 34.7116C38.6748 34.5992 38.746 34.4635 38.7824 34.3163C38.8187 34.169 38.8191 34.0145 38.7835 33.8659C38.6546 33.3332 38.817 32.9116 39.2706 32.6013C39.3628 32.5381 39.4365 32.4513 39.4841 32.3499C39.5316 32.2485 39.5513 32.1362 39.541 32.0246C39.5308 31.913 39.491 31.8062 39.4258 31.7153C39.3605 31.6243 39.2723 31.5525 39.1701 31.5073L38.4897 31.2125C38.2822 31.1233 38.0544 31.0928 37.8309 31.1243C37.6074 31.1557 37.3967 31.2479 37.2216 31.3909C33.5103 34.4556 29.4742 34.797 25.7242 36.6513C25.6464 36.6914 25.5823 36.7547 25.5409 36.8323C25.4994 36.91 25.4827 36.9982 25.4928 37.0849C25.503 37.1717 25.5396 37.2526 25.5977 37.3167C25.6557 37.3807 25.7323 37.4247 25.817 37.4426ZM85.5773 37.4504C85.6613 37.4312 85.7372 37.3863 85.7948 37.322C85.8524 37.2578 85.8887 37.1772 85.8989 37.0914C85.9091 37.0056 85.8925 36.9187 85.8516 36.8427C85.8106 36.7667 85.7472 36.7052 85.6701 36.6668C81.9278 34.828 77.9072 34.5021 74.2036 31.4608C74.0303 31.3189 73.8213 31.2274 73.5993 31.1959C73.3772 31.1645 73.1504 31.1943 72.9433 31.2823L72.2629 31.5771C72.1603 31.621 72.0718 31.692 72.0066 31.7827C71.9414 31.8733 71.902 31.9803 71.8925 32.0924C71.883 32.2044 71.9038 32.3173 71.9526 32.4192C72.0015 32.521 72.0766 32.6081 72.1701 32.6711C72.6237 32.9763 72.7861 33.3952 72.6572 33.928C72.6223 34.0753 72.623 34.2285 72.6594 34.3744C72.6957 34.5204 72.7666 34.6547 72.866 34.7659C75.3711 37.5745 82.2371 38.203 85.5773 37.4504ZM70.7784 31.4064C70.2887 31.7789 70.0129 32.0349 69.951 32.1745C69.8999 32.2863 69.8921 32.4083 69.9287 32.5208C69.9653 32.6333 70.0443 32.7299 70.1529 32.7952C70.2616 32.8605 70.3938 32.8906 70.5282 32.8807C70.6626 32.8709 70.7915 32.8217 70.8943 32.7409C71.1418 32.5444 71.232 32.1539 71.1649 31.5694C71.1603 31.5267 71.1444 31.486 71.1188 31.4516C71.0932 31.4172 71.0589 31.3903 71.0195 31.3736C70.98 31.357 70.9369 31.3513 70.8945 31.357C70.8521 31.3628 70.812 31.3799 70.7784 31.4064ZM51.4871 38.6685C48.2655 37.8927 45.5747 36.4832 43.4149 34.4401C43.1071 34.1506 42.6979 33.9897 42.2706 33.9901H41.683C41.6129 33.9891 41.5445 34.0093 41.4861 34.0479C41.4278 34.0866 41.3822 34.142 41.355 34.2074C41.3278 34.2727 41.3202 34.3451 41.3331 34.4155C41.3461 34.4858 41.379 34.551 41.4278 34.603L43.1675 36.4418C43.2452 36.5224 43.3389 36.586 43.4427 36.6288C43.5465 36.6715 43.6581 36.6924 43.7706 36.6901C45.1211 36.6487 45.982 37.1866 46.3531 38.3039C46.4519 38.5973 46.6632 38.84 46.9407 38.9789C48.4046 39.6875 49.9304 39.7056 51.518 39.0332C51.5545 39.0167 51.585 38.9892 51.6053 38.9546C51.6256 38.92 51.6347 38.8799 51.6313 38.8398C51.6279 38.7998 51.6122 38.7618 51.5864 38.7312C51.5606 38.7005 51.5259 38.6786 51.4871 38.6685ZM59.8067 38.684C59.7679 38.6941 59.7333 38.716 59.7074 38.7467C59.6816 38.7774 59.6659 38.8153 59.6625 38.8554C59.6591 38.8954 59.6682 38.9355 59.6885 38.9701C59.7088 39.0047 59.7393 39.0322 59.7758 39.0487C61.3737 39.7366 62.9124 39.7289 64.3918 39.0254C64.672 38.8865 64.8858 38.644 64.9871 38.3504C65.3686 37.2228 66.2397 36.6849 67.6005 36.7366C67.7126 36.7388 67.824 36.7179 67.9277 36.6752C68.0314 36.6325 68.1254 36.5689 68.2036 36.4883L69.9742 34.6495C70.0243 34.5986 70.0584 34.5339 70.0721 34.4637C70.0858 34.3934 70.0786 34.3206 70.0514 34.2544C70.0242 34.1883 69.9782 34.1316 69.9191 34.0914C69.86 34.0513 69.7904 34.0296 69.7191 34.0289H69.1237C68.6951 34.026 68.2835 34.184 67.9716 34.4711C65.7809 36.5194 63.0593 37.9237 59.8067 38.684ZM55.6856 38.1176C59.3247 38.1176 62.7448 36.959 65.9459 34.6418C65.9888 34.6122 66.0216 34.5702 66.0401 34.5214C66.0585 34.4726 66.0616 34.4193 66.049 34.3686C66.0364 34.318 66.0086 34.2724 65.9695 34.238C65.9303 34.2036 65.8816 34.1821 65.8299 34.1763C65.7732 34.1711 62.3918 34.1685 55.6856 34.1685C48.9742 34.1685 45.5928 34.1711 45.5412 34.1763C45.4909 34.1824 45.4435 34.2036 45.4052 34.2369C45.3668 34.2702 45.3392 34.3143 45.326 34.3634C45.3127 34.4125 45.3143 34.4645 45.3306 34.5127C45.3469 34.5609 45.3772 34.6032 45.4175 34.634C48.6237 36.9564 52.0464 38.1176 55.6856 38.1176ZM36.7964 38.0013C38.1211 38.0737 39.6778 37.7478 41.4665 37.0237C41.5587 36.9863 41.6396 36.9254 41.7013 36.8471C41.7629 36.7688 41.8031 36.6756 41.8179 36.577C41.8328 36.4783 41.8217 36.3774 41.7858 36.2843C41.75 36.1912 41.6905 36.1091 41.6134 36.0461L40.6856 35.2702C40.5706 35.1747 40.4295 35.1167 40.2815 35.1042C40.1335 35.0917 39.9857 35.1253 39.8582 35.2004L36.5799 37.0935C36.4906 37.1468 36.4207 37.2274 36.3802 37.3234C36.3398 37.4195 36.3311 37.5259 36.3552 37.6273C36.3794 37.7287 36.4353 37.8197 36.5146 37.887C36.594 37.9542 36.6927 37.9943 36.7964 38.0013ZM74.6211 37.9935C74.7231 37.987 74.8203 37.9479 74.8986 37.882C74.9769 37.8161 75.0321 37.7269 75.0563 37.6273C75.0804 37.5276 75.0723 37.4229 75.0329 37.3283C74.9936 37.2337 74.9252 37.1541 74.8376 37.1013L71.6211 35.2004C71.4956 35.1249 71.3496 35.0903 71.203 35.1014C71.0563 35.1125 70.9161 35.1688 70.8015 35.2625L69.8814 36.0228C69.8057 36.0846 69.7473 36.1651 69.7119 36.2564C69.6764 36.3476 69.6651 36.4465 69.6792 36.5435C69.6932 36.6404 69.732 36.732 69.7919 36.8094C69.8517 36.8867 69.9305 36.9472 70.0206 36.9849C71.7784 37.7142 73.3119 38.0504 74.6211 37.9935ZM45.5725 38.3493C45.5251 38.1775 45.4094 38.0265 45.2323 37.9048C45.0551 37.7832 44.8199 37.6933 44.54 37.6403C44.2601 37.5874 43.9411 37.5724 43.6011 37.5962C43.2611 37.62 42.9068 37.6821 42.5585 37.7791C42.2101 37.876 41.8746 38.0058 41.5709 38.1611C41.2673 38.3165 41.0015 38.4942 40.7888 38.6843C40.5761 38.8743 40.4206 39.0729 40.3311 39.2687C40.2417 39.4646 40.2201 39.6538 40.2677 39.8256C40.3151 39.9975 40.4308 40.1485 40.6079 40.2701C40.7851 40.3918 41.0203 40.4817 41.3002 40.5346C41.5801 40.5876 41.8992 40.6026 42.2391 40.5788C42.5791 40.555 42.9334 40.4928 43.2817 40.3959C43.6301 40.299 43.9656 40.1691 44.2693 40.0138C44.5729 39.8585 44.8387 39.6807 45.0514 39.4907C45.2641 39.3007 45.4197 39.102 45.5091 38.9062C45.5985 38.7104 45.6201 38.5211 45.5725 38.3493ZM65.8222 38.3908C65.7762 38.564 65.7997 38.7541 65.8913 38.95C65.9829 39.1459 66.1408 39.3438 66.356 39.5325C66.5712 39.7211 66.8395 39.8969 67.1456 40.0496C67.4516 40.2023 67.7894 40.329 68.1397 40.4226C68.49 40.5161 68.846 40.5746 69.1872 40.5947C69.5284 40.6148 69.8483 40.5961 70.1285 40.5397C70.4087 40.4833 70.6437 40.3903 70.8202 40.266C70.9968 40.1417 71.1113 39.9885 71.1572 39.8152C71.2032 39.6419 71.1797 39.4519 71.0881 39.256C70.9965 39.0601 70.8386 38.8622 70.6234 38.6735C70.4081 38.4849 70.1399 38.3091 69.8338 38.1564C69.5278 38.0037 69.1899 37.8769 68.8396 37.7834C68.4893 37.6899 68.1334 37.6314 67.7922 37.6113C67.451 37.5912 67.1311 37.6099 66.8509 37.6663C66.5707 37.7227 66.3357 37.8157 66.1591 37.94C65.9826 38.0643 65.8681 38.2175 65.8222 38.3908ZM55.7552 40.3056C56.116 40.2849 56.5464 39.9616 57.0464 39.3358C57.0754 39.2976 57.0946 39.2527 57.1019 39.2053C57.1092 39.1579 57.1044 39.1097 57.0881 39.0652C57.0718 39.0207 57.0444 38.9816 57.0087 38.9515C56.9729 38.9214 56.93 38.9015 56.884 38.8935C56.8119 38.8832 56.4149 38.8935 55.6933 38.9245C54.9716 38.9608 54.5773 38.9892 54.5103 39.0099C54.4646 39.0215 54.4229 39.0451 54.3894 39.0783C54.3559 39.1116 54.3317 39.1534 54.3192 39.1997C54.3067 39.2459 54.3064 39.2949 54.3182 39.3419C54.33 39.3889 54.3536 39.4322 54.3866 39.4676C54.9433 40.0418 55.3995 40.3211 55.7552 40.3056ZM48.0374 40.9426C47.9728 40.6324 47.7164 40.3757 47.3244 40.2289C46.9324 40.0822 46.437 40.0574 45.9472 40.1601C45.7047 40.2109 45.4709 40.2915 45.259 40.3973C45.0472 40.503 44.8616 40.6319 44.7127 40.7764C44.5638 40.921 44.4546 41.0785 44.3914 41.2398C44.3281 41.4012 44.312 41.5633 44.344 41.7169C44.4086 42.0271 44.6651 42.2838 45.0571 42.4305C45.4491 42.5772 45.9444 42.602 46.4342 42.4993C46.6767 42.4485 46.9106 42.3679 47.1224 42.2621C47.3342 42.1564 47.5199 42.0276 47.6687 41.883C47.8176 41.7384 47.9268 41.581 47.9901 41.4196C48.0533 41.2583 48.0694 41.0962 48.0374 40.9426ZM63.3544 40.9647C63.3222 41.1234 63.3376 41.2903 63.3996 41.4557C63.4616 41.6211 63.5691 41.7818 63.7159 41.9287C63.8627 42.0755 64.046 42.2057 64.2552 42.3117C64.4644 42.4176 64.6955 42.4974 64.9353 42.5463C65.4196 42.6452 65.9099 42.6127 66.2983 42.4559C66.6867 42.2991 66.9414 42.0309 67.0064 41.7103C67.0386 41.5515 67.0232 41.3847 66.9612 41.2193C66.8992 41.0539 66.7917 40.8932 66.6449 40.7463C66.4981 40.5994 66.3149 40.4693 66.1056 40.3633C65.8964 40.2573 65.6653 40.1776 65.4255 40.1286C64.9412 40.0297 64.451 40.0623 64.0626 40.2191C63.6742 40.3759 63.4194 40.6441 63.3544 40.9647ZM54.1546 42.028C54.3502 41.9899 54.525 41.881 54.6457 41.722C54.7664 41.563 54.8247 41.3651 54.8094 41.1658C54.7941 40.9665 54.7064 40.7798 54.5628 40.6412C54.4193 40.5026 54.23 40.4218 54.0309 40.4142H50.3737C50.1076 40.4141 49.8471 40.4927 49.6245 40.6402C49.4019 40.7878 49.2269 40.9978 49.1211 41.2444L48.8892 41.7797C48.8406 41.8905 48.8226 42.0124 48.8371 42.1326C48.8516 42.2528 48.898 42.3669 48.9716 42.4629C49.0451 42.5589 49.143 42.6332 49.255 42.6782C49.367 42.7232 49.489 42.7371 49.6082 42.7185L54.1546 42.028ZM57.2397 42.0202L61.7861 42.734C61.9053 42.7526 62.0273 42.7387 62.1393 42.6937C62.2513 42.6488 62.3492 42.5744 62.4228 42.4784C62.4963 42.3824 62.5427 42.2683 62.5572 42.1481C62.5717 42.0279 62.5537 41.9061 62.5051 41.7952L62.2809 41.2599C62.1764 41.0119 62.0018 40.8002 61.7791 40.6512C61.5564 40.5022 61.2953 40.4225 61.0284 40.422L57.3711 40.3987C57.1635 40.3931 56.9617 40.4676 56.8071 40.6067C56.6525 40.7459 56.557 40.9393 56.5402 41.147C56.5233 41.3547 56.5865 41.561 56.7166 41.7234C56.8467 41.8859 57.0339 41.9921 57.2397 42.0202Z" fill="#FCFA02" fill-opacity="0.996"/>
<path d="M39.773 14.0667C44.4328 13.7874 48.3761 14.5167 51.6029 16.2546C55.7781 18.5046 53.4276 21.7477 50.8452 23.7339C50.7926 23.7754 50.7541 23.8322 50.7349 23.8965C50.7157 23.9608 50.7167 24.0294 50.7379 24.0931C50.759 24.1568 50.7992 24.2123 50.853 24.2522C50.9068 24.2921 50.9716 24.3143 51.0385 24.3158H59.9147C60.2042 24.3158 60.4885 24.2439 60.7421 24.1063C62.3503 23.2581 63.5488 21.9365 64.3374 20.1417C64.6725 20.7986 64.1931 21.8667 62.8993 23.346C62.833 23.4207 62.7874 23.5113 62.7667 23.6092C62.7461 23.707 62.7512 23.8088 62.7815 23.9047C62.8118 24.0006 62.8663 24.0873 62.9397 24.1566C63.0132 24.2259 63.1031 24.2754 63.2008 24.3003C65.4019 24.8331 66.9122 23.8477 67.7318 21.3443C69.1158 17.1391 66.0617 12.9029 62.1184 11.3124C61.0771 10.8882 59.407 10.6632 57.108 10.6374C51.6235 10.565 46.7859 10.5831 42.5952 10.6917C42.5193 10.6952 42.444 10.6766 42.3784 10.6382C42.3127 10.5997 42.2596 10.5431 42.2253 10.4751C42.191 10.4071 42.177 10.3305 42.185 10.2547C42.193 10.1789 42.2227 10.107 42.2704 10.0477C43.6055 8.35635 44.9405 7.1279 46.2756 6.36238C46.4405 6.27445 46.6029 6.11669 46.7627 5.88911C46.8709 5.73394 47.0385 5.67187 47.2653 5.7029C47.322 5.71325 47.5024 5.646 47.8065 5.50118C52.6828 3.18394 57.407 2.82187 61.9792 4.41497C62.4483 4.58049 63.5359 5.22962 65.2421 6.36238C74.1957 12.3132 75.4019 23.4546 68.9302 31.9581C68.7523 32.1899 68.5231 32.3777 68.2603 32.5068C67.9976 32.636 67.7083 32.7031 67.4147 32.7029L43.84 32.7339C43.6456 32.7339 43.4545 32.6997 43.2756 32.6331C42.9508 32.5245 42.3993 31.8624 41.6209 30.6469C38.1261 25.1745 37.5101 19.6477 39.773 14.0667ZM57.4173 4.31411C57.398 4.19516 57.3387 4.08536 57.2493 4.00329C57.1599 3.92121 57.0461 3.8719 56.9269 3.86368C56.8078 3.85547 56.6907 3.88886 56.5955 3.95822C56.5003 4.02757 56.4328 4.12862 56.4044 4.24428C56.3477 4.47187 56.4044 4.97876 56.5745 5.76497C56.5848 5.81673 56.6094 5.86453 56.6456 5.90282C56.6818 5.94111 56.7281 5.96833 56.7791 5.98132C56.83 5.99431 56.8836 5.99254 56.9336 5.97622C56.9837 5.9599 57.028 5.9297 57.0617 5.88911C57.4173 5.45462 57.5359 4.92962 57.4173 4.31411ZM52.7782 5.09773C52.4586 4.85462 52.1055 4.86238 51.7189 5.121C51.6228 5.18673 51.5069 5.21717 51.3902 5.2073C51.2735 5.19742 51.163 5.14782 51.0771 5.06669C50.9637 4.95807 50.8993 4.89859 50.8838 4.88825C50.7743 4.80763 50.6423 4.76411 50.5073 4.76411C50.3723 4.76411 50.2413 4.80763 50.1338 4.88825L48.139 6.35462C48.0215 6.44681 47.8876 6.51531 47.7446 6.55635L46.6158 6.87445C46.4487 6.9221 46.3045 7.0281 46.2105 7.17246C46.1165 7.31682 46.0791 7.48956 46.1055 7.65807L46.206 8.3098C46.2155 8.37815 46.2417 8.4431 46.2822 8.49885C46.3228 8.5546 46.3764 8.59945 46.4384 8.62939C46.5003 8.65933 46.5687 8.67344 46.6374 8.67048C46.7062 8.66751 46.7731 8.64755 46.8323 8.61238L49.9096 6.83566C49.9405 6.81623 49.9757 6.80466 50.0121 6.80195C50.0484 6.79925 50.0849 6.80549 50.1184 6.82014C50.5307 6.98566 51.1158 6.8098 51.8735 6.29256C51.9628 6.23363 52.0664 6.19971 52.1737 6.19426C52.281 6.18881 52.3882 6.21202 52.4843 6.26152C52.7111 6.37531 52.8452 6.44514 52.8864 6.471C53.0153 6.54342 53.1983 6.38307 53.4354 5.98997C53.5178 5.85031 53.639 5.73135 53.7988 5.63307C53.9089 5.56431 54.0388 5.53459 54.1678 5.54865C54.2967 5.56272 54.4173 5.61976 54.5101 5.71066C54.8297 6.01583 55.0668 6.14256 55.2214 6.09083C55.3878 6.0345 55.5203 5.92477 55.604 5.774C55.6877 5.62324 55.7193 5.43741 55.6952 5.23745C55.6711 5.03748 55.5922 4.83131 55.4676 4.64214C55.3429 4.45297 55.1773 4.28831 54.9895 4.16669C54.8812 4.09428 54.7137 4.1098 54.4869 4.21325C53.9921 4.43825 53.7137 5.03566 53.2885 5.18307C53.2023 5.21159 53.1108 5.21873 53.0219 5.20385C52.9329 5.18898 52.8492 5.15254 52.7782 5.09773ZM59.7988 6.17618C59.9895 6.10893 60.1596 5.75204 60.3091 5.10549C60.3298 5.01714 60.3177 4.92424 60.275 4.84423C60.2323 4.76422 60.1619 4.70262 60.0771 4.671C59.7936 4.56756 59.5513 4.61411 59.3503 4.81066C59.2256 4.93306 59.1325 5.09692 59.0861 5.27572C59.0396 5.45451 59.0426 5.63775 59.0945 5.79577C59.1464 5.95378 59.2442 6.07732 59.372 6.14636C59.4998 6.2154 59.6502 6.22591 59.7988 6.17618ZM60.6725 6.41669C60.6485 6.55121 60.6729 6.68645 60.7417 6.80043C60.8105 6.91441 60.9196 7.00042 61.0513 7.04447C61.183 7.08853 61.3296 7.08804 61.4672 7.04309C61.6048 6.99813 61.7253 6.91135 61.8091 6.79687C62.0565 6.45549 62.1132 6.02618 61.9792 5.50893C61.9549 5.42101 61.9061 5.34166 61.8385 5.28046C61.7709 5.21926 61.6875 5.17883 61.5984 5.16406C61.5093 5.14929 61.4182 5.16081 61.3362 5.19723C61.2542 5.23365 61.1848 5.2934 61.1364 5.36928C60.8838 5.75721 60.7292 6.10635 60.6725 6.41669ZM62.4044 6.70376C62.3323 7.02962 62.2988 7.21325 62.3039 7.25462C62.3218 7.3886 62.3817 7.51338 62.475 7.61087C62.5683 7.70836 62.6902 7.7735 62.8228 7.79684C62.9555 7.82019 63.0922 7.80052 63.213 7.74069C63.3338 7.68086 63.4324 7.58399 63.4946 7.46411C63.4998 7.45893 63.5359 7.29342 63.6029 6.96756C63.6751 6.64687 63.7111 6.48135 63.7111 6.471C63.7052 6.33468 63.6557 6.20388 63.5701 6.09792C63.4844 5.99196 63.367 5.91645 63.2353 5.88253C63.1036 5.84862 62.9645 5.8581 62.8385 5.90958C62.7126 5.96106 62.6065 6.0518 62.5359 6.16842C62.5153 6.20462 62.4714 6.38307 62.4044 6.70376ZM63.9354 8.58911C64.1364 8.80635 64.3684 8.80376 64.6312 8.58135C65.4508 7.89342 65.7343 7.41497 65.4818 7.146C65.2343 6.87704 64.7369 7.1279 63.9895 7.89859C63.7524 8.14169 63.7343 8.37187 63.9354 8.58911ZM46.206 25.4408C45.9852 25.4411 45.7697 25.505 45.5857 25.6249C45.4017 25.7448 45.2572 25.9154 45.1699 26.1158L43.6622 29.6072C43.5858 29.7842 43.5487 29.9758 43.5537 30.1687C43.5586 30.3615 43.6054 30.551 43.6908 30.7238C43.7762 30.8966 43.8981 31.0487 44.0481 31.1694C44.198 31.2901 44.3724 31.3766 44.5591 31.4227C48.108 32.315 49.3761 29.3822 50.907 26.2555C50.9475 26.1703 50.9658 26.0763 50.9603 25.9821C50.9548 25.8879 50.9255 25.7966 50.8754 25.7168C50.8252 25.637 50.7557 25.5713 50.6733 25.5258C50.591 25.4802 50.4985 25.4563 50.4044 25.4564H50.0797C49.8544 25.4561 49.634 25.5221 49.4458 25.6462C49.2575 25.7703 49.1096 25.9471 49.0204 26.1546L47.706 29.1882C47.5887 29.4582 47.3967 29.688 47.1536 29.8492C46.9104 30.0105 46.6268 30.0963 46.3374 30.096H46.1364C46.0457 30.0957 45.9565 30.0728 45.8767 30.0295C45.797 29.9861 45.7292 29.9236 45.6794 29.8475C45.6296 29.7714 45.5994 29.6841 45.5914 29.5934C45.5835 29.5028 45.598 29.4115 45.6338 29.3279L47.0952 25.9684C47.1193 25.9107 47.129 25.8479 47.1232 25.7856C47.1174 25.7233 47.0963 25.6634 47.0619 25.6112C47.0275 25.559 46.9807 25.5161 46.9258 25.4864C46.8709 25.4567 46.8096 25.441 46.7472 25.4408H46.206ZM60.5565 30.0572C59.773 30.1865 59.2704 30.202 59.0488 30.1038C58.8669 30.0206 58.7246 29.8694 58.6523 29.6823C58.5801 29.4953 58.5836 29.2873 58.6622 29.1029C59.6003 26.9357 60.8606 26.3046 62.4431 27.2098C62.6069 27.3011 62.7964 27.3448 62.986 27.3348C63.1756 27.3249 63.3561 27.2619 63.5029 27.1543C63.6498 27.0467 63.756 26.8998 63.8071 26.7335C63.8582 26.5671 63.8517 26.3894 63.7885 26.2245C63.6441 25.8572 63.291 25.6245 62.7292 25.5262C60.0745 25.071 58.1235 26.2891 56.8761 29.1805C56.7167 29.5471 56.6898 29.9569 56.8003 30.3365C56.9109 30.7161 57.1515 31.0407 57.4792 31.252C57.9637 31.5624 58.639 31.6658 59.505 31.5624C61.3245 31.34 62.5281 30.3779 63.1158 28.6762C63.137 28.6171 63.1451 28.5541 63.1393 28.4916C63.1335 28.4291 63.114 28.3686 63.0823 28.3145C63.0505 28.2604 63.0072 28.2141 62.9556 28.1787C62.9039 28.1433 62.8451 28.1198 62.7833 28.1098C61.9946 27.9805 61.2833 27.9882 60.6493 28.1331C60.5337 28.1594 60.4303 28.2201 60.3514 28.3079C60.2725 28.3956 60.2214 28.5067 60.2043 28.6278C60.1871 28.749 60.2047 28.875 60.2548 28.9909C60.3049 29.1068 60.3855 29.2077 60.4869 29.2813C60.7446 29.4676 60.8529 29.6434 60.8117 29.8089C60.7976 29.8715 60.7659 29.9285 60.7205 29.9727C60.6751 30.0168 60.6181 30.0463 60.5565 30.0572ZM68.9147 25.4951C67.9251 25.3607 67.2111 25.5572 66.773 26.0848C65.0977 28.1227 63.7781 29.6538 62.8142 30.6779C62.7346 30.7626 62.6847 30.8711 62.6721 30.9869C62.6594 31.1026 62.6848 31.2194 62.7442 31.3194C62.8037 31.4194 62.894 31.4972 63.0015 31.5411C63.109 31.5849 63.2279 31.5924 63.34 31.5624C63.9173 31.4124 64.4663 31.0917 64.9869 30.6003C65.1178 30.4772 65.2763 30.3881 65.4504 30.3397C65.6246 30.2912 65.81 30.2847 65.9929 30.3205C66.1757 30.3563 66.3513 30.4335 66.5064 30.5464C66.6616 30.6594 66.7923 30.8051 66.889 30.9727C67.1776 31.4796 67.59 31.6503 68.1261 31.4848C68.2819 31.4337 68.4207 31.34 68.5271 31.214C68.6336 31.0881 68.7035 30.9348 68.7292 30.771L69.3941 26.1313C69.405 26.0579 69.4012 25.983 69.3829 25.911C69.3646 25.8391 69.3322 25.7715 69.2875 25.7123C69.2429 25.653 69.1869 25.6033 69.1229 25.566C69.0589 25.5287 68.9881 25.5046 68.9147 25.4951ZM55.5075 28.6451C56.3993 28.1434 56.9818 27.4581 57.255 26.5891C57.2941 26.4701 57.3046 26.3435 57.2855 26.2197C57.2663 26.0958 57.2182 25.9783 57.145 25.8768C57.0717 25.7753 56.9755 25.6927 56.8643 25.6358C56.753 25.5788 56.6298 25.5493 56.505 25.5495H52.8168C52.674 25.5496 52.5343 25.5914 52.4148 25.67C52.2953 25.7485 52.2013 25.8603 52.1441 25.9917L50.0101 30.9107C49.983 30.9723 49.9717 31.0398 49.9772 31.107C49.9828 31.1742 50.0051 31.2389 50.042 31.2953C50.0789 31.3516 50.1293 31.3977 50.1885 31.4295C50.2478 31.4613 50.3141 31.4776 50.3812 31.477H50.7833C50.9969 31.4773 51.2059 31.4141 51.3846 31.2955C51.5633 31.1769 51.7037 31.008 51.7885 30.8098L52.3993 29.4132C52.4248 29.3542 52.4654 29.3031 52.517 29.2649C52.5686 29.2268 52.6294 29.203 52.6931 29.196C53.2704 29.1236 53.5101 29.6227 53.4122 30.6934C53.3974 30.8605 53.4444 31.0271 53.5442 31.1616C53.644 31.2961 53.7897 31.3891 53.9534 31.4227C54.5153 31.5365 54.9766 31.4745 55.3374 31.2365C55.6106 31.0607 55.6441 30.6676 55.4379 30.0572C55.2678 29.54 55.1828 29.2762 55.1828 29.2658C55.1713 29.1412 55.1959 29.016 55.2535 28.9058C55.3112 28.7955 55.3995 28.705 55.5075 28.6451Z" fill="#FEFFFF"/>
<path d="M57.4175 4.31395C57.536 4.92947 57.4175 5.45447 57.0618 5.88895C57.0282 5.92954 56.9838 5.95975 56.9338 5.97607C56.8838 5.99239 56.8302 5.99415 56.7792 5.98116C56.7282 5.96817 56.6819 5.94095 56.6457 5.90266C56.6096 5.86437 56.5849 5.81658 56.5747 5.76481C56.4046 4.97861 56.3479 4.47171 56.4046 4.24412C56.4329 4.12846 56.5004 4.02741 56.5957 3.95806C56.6909 3.88871 56.8079 3.85531 56.9271 3.86353C57.0462 3.87174 57.1601 3.92105 57.2494 4.00313C57.3388 4.08521 57.3981 4.195 57.4175 4.31395Z" fill="#006CB3"/>
<path d="M53.2889 5.18318C53.7141 5.03576 53.9925 4.43835 54.4873 4.21335C54.7141 4.1099 54.8817 4.09438 54.9899 4.1668C55.1778 4.28841 55.3433 4.45307 55.468 4.64224C55.5927 4.83141 55.6715 5.03758 55.6956 5.23755C55.7197 5.43751 55.6881 5.62334 55.6044 5.77411C55.5208 5.92487 55.3883 6.0346 55.2219 6.09093C55.0672 6.14266 54.8301 6.01593 54.5105 5.71076C54.4177 5.61986 54.2972 5.56282 54.1682 5.54875C54.0393 5.53469 53.9093 5.56441 53.7992 5.63318C53.6394 5.73145 53.5183 5.85042 53.4358 5.99007C53.1987 6.38318 53.0157 6.54352 52.8868 6.47111C52.8456 6.44524 52.7116 6.37542 52.4848 6.26162C52.3886 6.21212 52.2814 6.18891 52.1741 6.19436C52.0668 6.19981 51.9632 6.23373 51.8739 6.29266C51.1162 6.8099 50.5312 6.98576 50.1188 6.82024C50.0854 6.8056 50.0489 6.79935 50.0125 6.80206C49.9761 6.80476 49.9409 6.81633 49.91 6.83576L46.8327 8.61249C46.7735 8.64766 46.7066 8.66761 46.6379 8.67058C46.5692 8.67355 46.5008 8.65943 46.4388 8.62949C46.3768 8.59955 46.3232 8.55471 46.2826 8.49895C46.2421 8.4432 46.2159 8.37826 46.2064 8.3099L46.1059 7.65818C46.0795 7.48966 46.1169 7.31693 46.2109 7.17257C46.3049 7.0282 46.4491 6.9222 46.6162 6.87455L47.7451 6.55645C47.8881 6.51541 48.022 6.44691 48.1394 6.35473L50.1342 4.88835C50.2418 4.80773 50.3727 4.76421 50.5077 4.76421C50.6428 4.76421 50.7747 4.80773 50.8842 4.88835C50.8997 4.89869 50.9641 4.95818 51.0775 5.0668C51.1635 5.14792 51.2739 5.19753 51.3906 5.2074C51.5073 5.21728 51.6233 5.18683 51.7193 5.12111C52.1059 4.86249 52.459 4.85473 52.7786 5.09783C52.8497 5.15265 52.9333 5.18908 53.0223 5.20396C53.1112 5.21883 53.2028 5.2117 53.2889 5.18318Z" fill="#006CB3"/>
<path d="M59.7992 6.17587C59.6506 6.2256 59.5002 6.21509 59.3724 6.14605C59.2446 6.07701 59.1468 5.95347 59.0949 5.79546C59.043 5.63744 59.0401 5.4542 59.0865 5.27541C59.1329 5.09662 59.226 4.93275 59.3507 4.81035C59.5518 4.6138 59.794 4.56725 60.0775 4.6707C60.1623 4.70231 60.2327 4.76391 60.2754 4.84392C60.3181 4.92393 60.3302 5.01683 60.3095 5.10518C60.16 5.75173 59.9899 6.10863 59.7992 6.17587Z" fill="#006CB3"/>
<path d="M60.6725 6.41611C60.7292 6.10577 60.8839 5.75663 61.1365 5.3687C61.1849 5.29282 61.2543 5.23307 61.3363 5.19665C61.4183 5.16023 61.5093 5.14871 61.5985 5.16348C61.6876 5.17825 61.771 5.21868 61.8386 5.27988C61.9061 5.34108 61.955 5.42043 61.9792 5.50835C62.1133 6.02559 62.0566 6.4549 61.8091 6.79628C61.7253 6.91077 61.6048 6.99755 61.4672 7.0425C61.3297 7.08746 61.1831 7.08795 61.0514 7.04389C60.9197 6.99984 60.8105 6.91383 60.7418 6.79985C60.673 6.68587 60.6486 6.55063 60.6725 6.41611Z" fill="#006CB3"/>
<path d="M63.6032 6.96729C63.5362 7.29315 63.5001 7.45867 63.4949 7.46384C63.4327 7.58372 63.3341 7.6806 63.2133 7.74042C63.0925 7.80025 62.9558 7.81992 62.8232 7.79658C62.6905 7.77323 62.5686 7.7081 62.4753 7.6106C62.382 7.51311 62.3221 7.38833 62.3042 7.25436C62.2991 7.21298 62.3326 7.02936 62.4047 6.7035C62.4718 6.38281 62.5156 6.20436 62.5362 6.16815C62.6068 6.05153 62.7129 5.96079 62.8388 5.90931C62.9648 5.85784 63.1039 5.84835 63.2356 5.88227C63.3673 5.91618 63.4847 5.99169 63.5704 6.09765C63.656 6.20361 63.7055 6.33441 63.7114 6.47074C63.7114 6.48108 63.6754 6.6466 63.6032 6.96729Z" fill="#006CB3"/>
<path d="M65.4821 7.14539C65.7347 7.41436 65.4512 7.8928 64.6316 8.58074C64.3687 8.80315 64.1368 8.80573 63.9357 8.58849C63.7347 8.37125 63.7527 8.14108 63.9898 7.89798C64.7373 7.12729 65.2347 6.87642 65.4821 7.14539Z" fill="#006CB3"/>
<path d="M265.67 12.9649C263.619 13.2701 261.995 13.9994 260.799 15.1529C258.031 17.8373 257.443 22.9347 257.869 26.5658C258.464 31.702 263.753 31.8416 267.526 30.7477C267.655 30.7106 267.771 30.6369 267.86 30.5352C267.949 30.4334 268.007 30.308 268.028 30.1735L269.204 21.9804C269.23 21.8015 269.319 21.638 269.455 21.5198C269.592 21.4015 269.766 21.3364 269.946 21.3365H273.077C273.168 21.3366 273.257 21.3563 273.339 21.3943C273.421 21.4323 273.494 21.4877 273.553 21.5567C273.613 21.6257 273.657 21.7069 273.683 21.7947C273.709 21.8825 273.716 21.9749 273.704 22.0658L272.173 32.6796C272.121 33.0357 271.977 33.3718 271.754 33.6539C271.531 33.9359 271.238 34.1539 270.905 34.2856C266.678 35.9822 262.503 36.2744 258.379 35.1623C258.22 35.1211 258.064 35.0612 257.915 34.9839C254.869 33.4322 253.183 30.6597 252.858 26.6666C252.255 19.2882 254.93 11.2037 262.647 9.03906C266.121 8.06147 269.665 8.41837 273.278 10.1097C273.42 10.1757 273.53 10.2947 273.585 10.4413C273.64 10.5878 273.635 10.7502 273.572 10.8934L272.227 14.0201C272.185 14.1158 272.117 14.1979 272.031 14.2573C271.945 14.3168 271.845 14.3512 271.741 14.3568C271.637 14.3624 271.533 14.339 271.441 14.2892C271.35 14.2393 271.274 14.165 271.222 14.0744L271.09 13.8494C271.063 13.8033 271.027 13.7639 270.982 13.7343C270.938 13.7047 270.888 13.6857 270.835 13.6787L265.918 12.9649C265.835 12.9546 265.752 12.9546 265.67 12.9649ZM264.518 35.2089C263.688 35.2037 262.858 35.2037 262.028 35.2089C262.856 35.2166 263.691 35.2089 264.518 35.2089Z" fill="#006CB3"/>
<path d="M245.714 22.8728C246.889 23.8038 247.588 25.3582 247.809 27.5357C248.062 30.0185 248.34 32.3797 248.644 34.6194C248.656 34.7112 248.649 34.8045 248.622 34.8932C248.595 34.9818 248.55 35.0638 248.489 35.1335C248.429 35.2033 248.354 35.2592 248.27 35.2976C248.186 35.3361 248.095 35.3561 248.002 35.3564H244.546C244.354 35.3557 244.17 35.2841 244.027 35.1553C243.884 35.0265 243.794 34.8495 243.773 34.6582C243.402 31.4409 243.054 28.7694 242.729 26.6435C242.611 25.8521 241.892 25.1564 240.572 24.5564C240.506 24.5257 240.43 24.5073 240.348 24.5021L234.951 24.4633C234.856 24.4605 234.763 24.4929 234.69 24.5545C234.617 24.6161 234.57 24.7024 234.557 24.7969L233.142 34.5883C233.112 34.8015 233.006 34.9967 232.844 35.1379C232.682 35.279 232.475 35.3567 232.26 35.3564H229.291C229.18 35.3564 229.071 35.3326 228.97 35.2865C228.87 35.2404 228.78 35.1731 228.707 35.0893C228.635 35.0054 228.581 34.9069 228.55 34.8004C228.518 34.6939 228.51 34.5819 228.526 34.472C229.309 28.6323 230.356 21.272 231.665 12.3909C231.912 10.7073 231.843 8.78316 234.1 8.7754C237.42 8.76505 239.948 8.74954 241.685 8.72885C245.613 8.69005 248.729 9.49695 249.727 13.5547C250.515 16.7668 249.332 21.3366 245.791 22.4538C245.749 22.4668 245.712 22.491 245.683 22.5238C245.654 22.5566 245.634 22.5967 245.626 22.6399C245.618 22.683 245.622 22.7275 245.638 22.7686C245.653 22.8097 245.679 22.8457 245.714 22.8728ZM235.484 19.2573C235.461 19.4138 235.474 19.5736 235.522 19.7245C235.569 19.8753 235.651 20.0132 235.76 20.1277C235.869 20.2422 236.002 20.3302 236.15 20.3851C236.298 20.44 236.456 20.4603 236.613 20.4444C238.631 20.2349 241.67 20.778 243.518 19.6297C245.296 18.5202 246.17 15.6961 244.577 13.9504C244.426 13.7835 244.233 13.6649 244.021 13.609C242.521 13.2314 241.66 13.0582 241.438 13.0892C239.072 13.4409 237.678 13.4616 237.255 13.1513C237.173 13.0914 237.078 13.0537 236.978 13.0417C236.877 13.0298 236.776 13.044 236.682 13.083C236.589 13.122 236.507 13.1845 236.445 13.2644C236.383 13.3443 236.342 13.4389 236.327 13.5392L235.484 19.2573Z" fill="#006CB3"/>
<path d="M278.436 35.3715H275.219C275.088 35.371 274.959 35.3373 274.844 35.2735C274.729 35.2097 274.632 35.1179 274.562 35.0065C274.492 34.8951 274.451 34.7678 274.443 34.6363C274.435 34.5049 274.46 34.3734 274.516 34.2542C278.016 26.9405 281.627 19.3758 285.348 11.5603C286.127 9.93097 286.846 9.02838 287.505 8.85252C288.547 8.56804 289.691 8.58097 290.938 8.89132C291.248 8.968 291.53 9.13207 291.75 9.36429C291.971 9.59651 292.121 9.88728 292.183 10.2025L296.923 34.5724C296.941 34.6681 296.938 34.7667 296.914 34.8611C296.89 34.9554 296.845 35.0433 296.783 35.1182C296.721 35.1931 296.643 35.2533 296.555 35.2944C296.467 35.3356 296.371 35.3566 296.273 35.356H293.003C292.804 35.3563 292.612 35.2877 292.458 35.1618C292.305 35.036 292.199 34.8606 292.16 34.6655L291.232 29.9094C291.218 29.8228 291.172 29.7442 291.104 29.6874C291.037 29.6307 290.95 29.5994 290.861 29.5991H282.255C282.141 29.5987 282.03 29.6316 281.935 29.6937C281.84 29.7558 281.766 29.8443 281.722 29.9482L279.743 34.5103C279.632 34.7662 279.45 34.9841 279.218 35.1371C278.985 35.2902 278.714 35.3716 278.436 35.3715ZM288.572 14.3379L283.864 25.2155C283.854 25.24 283.85 25.2665 283.852 25.2929C283.855 25.3193 283.863 25.3447 283.878 25.3668C283.892 25.389 283.912 25.4073 283.935 25.4201C283.958 25.433 283.984 25.4399 284.011 25.4405H289.98C290.042 25.44 290.104 25.426 290.161 25.3995C290.218 25.373 290.269 25.3346 290.31 25.2869C290.351 25.2391 290.382 25.1831 290.399 25.1226C290.417 25.0621 290.421 24.9986 290.413 24.9361L288.812 14.3689C288.81 14.3407 288.798 14.3142 288.778 14.2938C288.759 14.2734 288.733 14.2603 288.705 14.2566C288.677 14.253 288.648 14.2591 288.624 14.2739C288.6 14.2886 288.582 14.3112 288.572 14.3379ZM285.395 29.0017C285.016 28.9939 284.637 29.0017 284.258 29.0017C284.637 29.0094 285.016 29.0017 285.395 29.0017Z" fill="#006CB3"/>
<path d="M226.075 8.92258C226.184 8.9226 226.291 8.94618 226.391 8.99174C226.49 9.0373 226.578 9.10379 226.65 9.18678C226.722 9.26976 226.775 9.36733 226.806 9.47296C226.838 9.57859 226.847 9.68985 226.833 9.79931C225.817 17.2734 224.778 24.5614 223.717 31.6631C223.485 33.189 222.747 34.3114 221.505 35.0303C221.276 35.1632 221.022 35.2427 220.763 35.2631C219.418 35.3562 217.856 35.5269 216.077 35.7752C214.5 35.9924 212.325 35.8269 209.552 35.2786C205.052 34.3941 203.977 29.964 204.495 25.9915C205.278 20.0174 206.013 14.6691 206.699 9.94672C206.741 9.65176 206.889 9.38207 207.115 9.18691C207.34 8.99175 207.629 8.88416 207.928 8.88379H210.449C210.582 8.88356 210.713 8.91206 210.834 8.96735C210.955 9.02265 211.063 9.10346 211.151 9.20428C211.238 9.3051 211.303 9.42359 211.34 9.55169C211.378 9.6798 211.387 9.81452 211.369 9.94672C210.699 14.6122 210.036 19.3114 209.381 24.0441C209.103 26.0459 209.111 27.6053 209.405 28.7226C210.232 31.9036 216.418 31.2984 218.807 30.9571C218.942 30.9395 219.068 30.877 219.166 30.7789C219.264 30.6809 219.328 30.5527 219.348 30.414L222.333 9.71396C222.364 9.49393 222.474 9.29275 222.641 9.14737C222.809 9.00199 223.023 8.92217 223.245 8.92258H226.075ZM214.052 35.2089C214.052 35.2109 214.054 35.2129 214.058 35.2143C214.063 35.2158 214.069 35.2166 214.075 35.2165C214.078 35.2165 214.081 35.2163 214.084 35.2159C214.087 35.2155 214.089 35.215 214.091 35.2142C214.093 35.2135 214.095 35.2126 214.096 35.2117C214.097 35.2107 214.098 35.2097 214.098 35.2087C214.098 35.2067 214.096 35.2047 214.091 35.2033C214.087 35.2018 214.081 35.201 214.075 35.201C214.072 35.201 214.069 35.2013 214.066 35.2016C214.063 35.202 214.061 35.2026 214.058 35.2034C214.056 35.2041 214.055 35.2049 214.053 35.2059C214.052 35.2068 214.052 35.2078 214.052 35.2089Z" fill="#006CB3"/>
<path d="M36.5643 11.8866L36.3091 12.2745L35.7988 11.8943C36.0514 11.8374 36.3066 11.8348 36.5643 11.8866Z" fill="#0055AA"/>
<path d="M64.3374 20.1409C63.5488 21.9357 62.3503 23.2573 60.7421 24.1056C60.4885 24.2431 60.2042 24.3151 59.9148 24.3151H51.0385C50.9716 24.3135 50.9068 24.2913 50.853 24.2514C50.7992 24.2116 50.759 24.156 50.7379 24.0923C50.7167 24.0287 50.7157 23.96 50.7349 23.8957C50.7541 23.8314 50.7926 23.7746 50.8452 23.7332C53.4276 21.747 55.7782 18.5038 51.6029 16.2538C48.3761 14.5159 44.4328 13.7866 39.773 14.0659L38.822 13.7944C37.8168 13.484 36.9792 12.9771 36.3091 12.2737L36.5642 11.8857C42.9972 11.9116 49.4302 11.9271 55.8632 11.9323C60.4405 11.9323 65.3735 14.9814 64.3374 20.1409Z" fill="#006CB3"/>
<path d="M120.333 35.333H118.616C118.523 35.3324 118.432 35.3084 118.35 35.2633C118.269 35.2181 118.2 35.1533 118.15 35.0746C118.1 34.9959 118.071 34.9058 118.064 34.8127C118.058 34.7196 118.075 34.6264 118.114 34.5416C119.32 31.945 121.356 27.6416 124.222 21.6312C125.041 19.9088 125.737 19.9864 127.369 20.2735C127.512 20.2987 127.644 20.3663 127.747 20.4674C127.851 20.5685 127.921 20.6984 127.949 20.8399L130.632 34.6192C130.649 34.7075 130.646 34.7985 130.624 34.8858C130.602 34.973 130.561 35.0544 130.504 35.124C130.448 35.1936 130.376 35.2498 130.295 35.2886C130.214 35.3274 130.126 35.3478 130.036 35.3485H128.59C128.433 35.3479 128.281 35.2927 128.16 35.1922C128.039 35.0918 127.956 34.9524 127.925 34.7976L127.469 32.4468C127.45 32.3482 127.396 32.2595 127.319 32.1958C127.241 32.1322 127.144 32.0975 127.044 32.0976H122.614C122.496 32.098 122.38 32.1326 122.281 32.1973C122.183 32.262 122.105 32.354 122.057 32.4623L121.005 34.8907C120.948 35.0221 120.854 35.1339 120.735 35.2124C120.615 35.291 120.476 35.3329 120.333 35.333ZM125.846 23.7804L123.541 29.1105C123.525 29.1504 123.519 29.1936 123.523 29.2365C123.527 29.2794 123.541 29.3207 123.565 29.3567C123.589 29.3926 123.621 29.4223 123.658 29.4429C123.696 29.4636 123.738 29.4747 123.781 29.4752H126.704C126.737 29.4757 126.77 29.4689 126.8 29.4552C126.83 29.4416 126.856 29.4214 126.878 29.3962C126.899 29.371 126.915 29.3414 126.924 29.3095C126.932 29.2775 126.934 29.244 126.928 29.2114L126.116 23.8192C126.11 23.7886 126.094 23.7604 126.071 23.7387C126.049 23.7169 126.02 23.7029 125.99 23.6985C125.959 23.6942 125.929 23.6998 125.903 23.7145C125.877 23.7293 125.857 23.7523 125.846 23.7804Z" fill="#006CB3"/>
<path d="M135.209 20.1651H136.747C136.825 20.1654 136.901 20.1824 136.972 20.2149C137.042 20.2474 137.105 20.2946 137.155 20.3535C137.206 20.4123 137.243 20.4813 137.265 20.5559C137.287 20.6305 137.292 20.7089 137.281 20.7858L135.255 34.8754C135.236 35.0056 135.171 35.1246 135.072 35.2102C134.972 35.2958 134.845 35.3423 134.714 35.3409H133.175C133.098 35.3406 133.021 35.3236 132.951 35.2911C132.881 35.2586 132.818 35.2114 132.768 35.1525C132.717 35.0937 132.68 35.0247 132.658 34.9501C132.636 34.8755 132.631 34.7971 132.642 34.7202L134.668 20.6306C134.686 20.5004 134.751 20.3814 134.851 20.2958C134.951 20.2102 135.078 20.1637 135.209 20.1651Z" fill="#006CB3"/>
<path d="M148.315 28.234C149.098 29.7236 149.536 31.9167 149.629 34.8133C149.631 34.8828 149.619 34.9521 149.593 35.0169C149.568 35.0818 149.53 35.1409 149.481 35.1909C149.432 35.2408 149.373 35.2805 149.308 35.3076C149.243 35.3347 149.174 35.3486 149.103 35.3486H147.456C147.342 35.3483 147.231 35.3074 147.145 35.2334C147.058 35.1594 147.001 35.0571 146.985 34.9452L146.273 30.2202C146.229 29.9184 146.077 29.6427 145.846 29.4433C145.614 29.2439 145.319 29.1341 145.013 29.134H142.16C142.069 29.1346 141.982 29.167 141.914 29.2254C141.846 29.2837 141.802 29.3641 141.789 29.4521L141.031 34.7047C141.005 34.8856 140.915 35.0511 140.777 35.1708C140.639 35.2905 140.463 35.3564 140.281 35.3564H138.959C138.874 35.3561 138.791 35.3376 138.714 35.3021C138.637 35.2665 138.569 35.2147 138.513 35.1501C138.458 35.0855 138.416 35.0097 138.392 34.9275C138.367 34.8453 138.36 34.7588 138.371 34.6736L140.327 21.1504C140.364 20.8916 140.49 20.654 140.684 20.4794C140.877 20.3048 141.126 20.2045 141.387 20.196C143.665 20.134 145.608 20.1547 147.217 20.2581C148.758 20.3512 149.75 21.14 150.193 22.6245C150.869 24.8745 150.284 26.5866 148.438 27.7607C148.362 27.8083 148.308 27.8834 148.285 27.9711C148.262 28.0588 148.272 28.1526 148.315 28.234ZM142.516 23.059L142.5 26.3176C142.5 26.3718 142.521 26.424 142.559 26.463C142.596 26.5021 142.647 26.5251 142.701 26.5271L145.647 26.5426C145.925 26.5449 146.202 26.5036 146.46 26.4211C146.718 26.3385 146.952 26.2162 147.151 26.0613C147.349 25.9064 147.507 25.7218 147.615 25.5182C147.723 25.3145 147.779 25.0958 147.781 24.8745V24.5641C147.784 24.118 147.565 23.6885 147.17 23.3699C146.776 23.0513 146.239 22.8697 145.678 22.865L142.732 22.8495C142.704 22.8485 142.676 22.8531 142.65 22.8632C142.624 22.8732 142.6 22.8885 142.579 22.908C142.559 22.9276 142.543 22.951 142.532 22.977C142.521 23.0029 142.516 23.0308 142.516 23.059Z" fill="#006CB3"/>
<path d="M156.363 20.7392L154.825 31.3841C154.804 31.5329 154.815 31.6845 154.857 31.8287C154.899 31.9728 154.971 32.1061 155.068 32.2195C155.166 32.3328 155.287 32.4236 155.422 32.4856C155.557 32.5476 155.704 32.5794 155.853 32.5789H161.312C161.397 32.5791 161.481 32.5977 161.559 32.6334C161.636 32.6691 161.705 32.7211 161.761 32.7858C161.817 32.8505 161.858 32.9265 161.882 33.0086C161.906 33.0907 161.912 33.177 161.9 33.2616L161.683 34.7901C161.659 34.9511 161.577 35.0979 161.454 35.2034C161.33 35.3089 161.173 35.3661 161.01 35.3642C157.077 35.3229 155.077 35.3047 155.01 35.3099C152.528 35.4573 151.995 33.1918 152.273 31.0815C152.747 27.5022 153.237 24.0392 153.742 20.6927C153.764 20.5481 153.837 20.4162 153.948 20.3208C154.059 20.2255 154.2 20.173 154.345 20.1729H155.876C155.947 20.1733 156.017 20.1888 156.081 20.2185C156.145 20.2482 156.202 20.2913 156.248 20.345C156.294 20.3986 156.328 20.4616 156.348 20.5296C156.368 20.5976 156.373 20.6691 156.363 20.7392Z" fill="#006CB3"/>
<path d="M166.175 20.1572H167.621C167.706 20.1574 167.789 20.1758 167.865 20.2111C167.942 20.2465 168.01 20.2979 168.065 20.3619C168.12 20.4259 168.16 20.501 168.184 20.5822C168.208 20.6633 168.213 20.7486 168.201 20.8322L166.183 34.8288C166.163 34.9686 166.093 35.0965 165.987 35.189C165.88 35.2816 165.744 35.3327 165.603 35.3331H164.157C164.073 35.3329 163.99 35.3145 163.913 35.2792C163.837 35.2439 163.769 35.1925 163.714 35.1284C163.659 35.0644 163.618 34.9893 163.595 34.9081C163.571 34.827 163.565 34.7417 163.577 34.6581L165.596 20.6615C165.616 20.5217 165.686 20.3938 165.792 20.3013C165.899 20.2087 166.035 20.1576 166.175 20.1572Z" fill="#006CB3"/>
<path d="M177.263 27.3492C178.015 29.1233 178.469 30.1655 178.624 30.4759C178.646 30.5186 178.682 30.5531 178.725 30.5746C178.768 30.5961 178.817 30.6035 178.865 30.5958C178.913 30.5881 178.957 30.5657 178.991 30.5317C179.025 30.4977 179.048 30.4538 179.057 30.4061L180.425 20.9638C180.444 20.8292 180.489 20.6996 180.558 20.5826C180.627 20.4656 180.719 20.3634 180.827 20.2819C180.936 20.2004 181.059 20.1413 181.191 20.1078C181.322 20.0744 181.459 20.0674 181.593 20.0871L182.343 20.1957C182.446 20.2109 182.546 20.2465 182.636 20.3003C182.726 20.3542 182.804 20.4253 182.867 20.5096C182.929 20.5939 182.974 20.6898 183 20.7917C183.025 20.8936 183.031 20.9995 183.015 21.1035C181.861 29.0328 181.268 33.2224 181.237 33.6724C181.149 35.0276 180.335 35.5707 178.794 35.3018C178.606 35.2678 178.43 35.1885 178.28 35.0708C178.131 34.9532 178.012 34.8007 177.935 34.6268C176.667 31.7302 175.729 29.5681 175.121 28.1405C174.363 26.3664 173.91 25.3242 173.76 25.0138C173.737 24.9711 173.702 24.9366 173.659 24.9151C173.615 24.8936 173.567 24.8862 173.519 24.8939C173.471 24.9016 173.427 24.924 173.393 24.958C173.358 24.992 173.336 25.0359 173.327 25.0837L171.959 34.5259C171.94 34.6605 171.894 34.7901 171.825 34.9071C171.756 35.0242 171.665 35.1264 171.557 35.2078C171.448 35.2893 171.325 35.3485 171.193 35.3819C171.062 35.4153 170.925 35.4224 170.791 35.4026L170.041 35.294C169.938 35.2788 169.838 35.2433 169.748 35.1894C169.658 35.1355 169.58 35.0644 169.517 34.9801C169.455 34.8958 169.409 34.7999 169.384 34.698C169.358 34.5961 169.353 34.4902 169.368 34.3862C170.523 26.4569 171.116 22.2673 171.147 21.8173C171.234 20.4621 172.049 19.919 173.59 20.188C173.778 20.2219 173.954 20.3012 174.104 20.4189C174.253 20.5366 174.372 20.689 174.448 20.863C175.716 23.7595 176.655 25.9216 177.263 27.3492Z" fill="#006CB3"/>
<path d="M188.644 28.4505C188.361 28.3574 188.098 28.3704 187.855 28.4893L187.453 31.6005C187.438 31.7228 187.449 31.8469 187.485 31.9647C187.521 32.0824 187.582 32.1911 187.663 32.2836C187.744 32.376 187.844 32.4501 187.956 32.5009C188.068 32.5517 188.189 32.578 188.312 32.5781H193.786C193.899 32.578 194.011 32.6024 194.115 32.6498C194.218 32.6971 194.31 32.7662 194.384 32.8524C194.458 32.9385 194.513 33.0397 194.544 33.1491C194.576 33.2584 194.584 33.3733 194.567 33.4859L194.404 34.6031C194.375 34.8081 194.272 34.9954 194.116 35.1308C193.96 35.2661 193.76 35.3405 193.554 35.3402L186.858 35.3169C186.807 35.3169 186.752 35.3117 186.696 35.3014C185.165 35.0014 184.531 33.579 184.794 31.0342C185.031 28.779 185.394 26.2212 185.884 23.3609C186.611 19.1557 191.157 20.1411 195.371 20.1798C195.446 20.1814 195.519 20.1987 195.587 20.2305C195.654 20.2624 195.714 20.3081 195.763 20.3647C195.811 20.4212 195.846 20.4873 195.867 20.5584C195.887 20.6296 195.892 20.7042 195.881 20.7773L195.649 22.3755C195.627 22.5284 195.551 22.6681 195.434 22.7693C195.318 22.8704 195.169 22.9262 195.015 22.9264H189.448C189.197 22.9271 188.954 23.0174 188.764 23.1811C188.574 23.3448 188.449 23.571 188.412 23.8186L188.211 25.2462C188.197 25.3433 188.203 25.4424 188.23 25.5367C188.258 25.631 188.305 25.7183 188.369 25.7927C188.432 25.8671 188.511 25.9267 188.6 25.9677C188.689 26.0086 188.786 26.0298 188.884 26.0298H194.01C194.089 26.0302 194.166 26.0474 194.237 26.0802C194.309 26.1131 194.372 26.161 194.423 26.2205C194.475 26.2801 194.512 26.35 194.535 26.4255C194.557 26.501 194.562 26.5804 194.551 26.6583L194.366 27.9152C194.342 28.0802 194.259 28.2307 194.134 28.3391C194.009 28.4475 193.85 28.5064 193.685 28.5048L188.644 28.4505Z" fill="#006CB3"/>
<path d="M30.1008 24.5564C30.1482 24.6646 30.1707 24.7821 30.1665 24.9002C30.1622 25.0183 30.1315 25.1339 30.0764 25.2384C30.0214 25.3428 29.9435 25.4335 29.8487 25.5035C29.7538 25.5735 29.6444 25.6211 29.5286 25.6426C22.8714 26.9383 14.1807 27.59 8.59818 26.915C5.22189 26.5116 2.7554 24.9444 1.19869 22.2133C0.868797 21.6444 0.873952 21.1556 1.21416 20.7469C1.52344 20.3745 1.87653 20.2685 2.27344 20.4288C4.74766 21.4271 7.22962 22.0426 9.71931 22.2754C13.6059 22.6375 19.825 22.6271 28.3765 22.2444C28.5836 22.2348 28.7885 22.2883 28.964 22.3978C29.1394 22.5073 29.277 22.6676 29.3585 22.8573L30.1008 24.5564Z" fill="#0055AA"/>
<path d="M81.2398 24.564L81.982 22.8571C82.0635 22.6674 82.2011 22.5072 82.3766 22.3977C82.552 22.2882 82.7569 22.2346 82.964 22.2442C91.5465 22.6218 97.7887 22.6269 101.691 22.2597C104.191 22.0269 106.68 21.4088 109.16 20.4054C109.562 20.2451 109.918 20.3511 110.227 20.7235C110.567 21.1321 110.572 21.6235 110.242 22.1976C108.68 24.939 106.206 26.514 102.82 26.9226C97.214 27.5976 88.4923 26.9537 81.8119 25.6502C81.6969 25.6273 81.5884 25.5789 81.4943 25.5086C81.4002 25.4383 81.323 25.3479 81.2682 25.2438C81.2134 25.1397 81.1824 25.0247 81.1775 24.9071C81.1725 24.7895 81.1938 24.6723 81.2398 24.564Z" fill="#0055AA"/>
<path d="M41.2501 32.71C40.7089 32.6841 40.4254 32.6401 40.3996 32.5781C40.3017 32.3453 40.2682 32.11 40.2991 31.872C40.3816 31.2151 40.1883 30.8246 39.7192 30.7005C36.495 29.8548 37.7475 27.1005 35.8068 25.3082C34.1599 23.7875 30.8893 25.1531 30.147 22.4841C30.1232 22.3966 30.1195 22.3049 30.1363 22.2159C30.1531 22.1269 30.1898 22.0432 30.2437 21.9711C30.2975 21.8991 30.367 21.8406 30.4468 21.8004C30.5266 21.7602 30.6145 21.7393 30.7037 21.7393H36.7965C36.9336 21.7388 37.0657 21.7897 37.1662 21.8819C37.2666 21.9741 37.328 22.1006 37.3377 22.2358C37.5749 25.3031 38.6213 28.347 40.4769 31.3677C40.5226 31.4441 40.5863 31.5081 40.6625 31.5539C40.9615 31.7298 41.2295 31.9884 41.4666 32.3298C41.4925 32.3664 41.5074 32.4096 41.5094 32.4545C41.5114 32.4993 41.5005 32.544 41.478 32.5835C41.4555 32.623 41.4222 32.6558 41.382 32.6781C41.3417 32.7005 41.296 32.7115 41.2501 32.71Z" fill="#006CB3"/>
<path d="M71.4821 30.2047C72.9357 27.9651 73.8017 25.3116 74.0801 22.2444C74.0936 22.0997 74.1606 21.9652 74.2679 21.8676C74.3752 21.77 74.5151 21.7162 74.66 21.7168H80.7218C80.7878 21.7167 80.8531 21.7301 80.9137 21.7561C80.9744 21.7821 81.0292 21.8202 81.0747 21.8681C81.1203 21.916 81.1557 21.9726 81.1787 22.0347C81.2018 22.0967 81.2121 22.1628 81.2089 22.2289C81.1239 24.184 78.9048 24.4013 77.1883 24.6185C76.7057 24.6799 76.2473 24.8668 75.8582 25.1607C75.4691 25.4545 75.1627 25.8453 74.9692 26.2944L73.5311 29.6073C73.434 29.8349 73.2799 30.0336 73.0835 30.1844C72.8872 30.3352 72.6553 30.4331 72.41 30.4685L71.7218 30.5771C71.6754 30.5854 71.6275 30.5797 71.5843 30.5608C71.5411 30.5418 71.5044 30.5105 71.4788 30.4708C71.4532 30.431 71.4399 30.3846 71.4404 30.3372C71.441 30.2899 71.4555 30.2438 71.4821 30.2047Z" fill="#0055AA"/>
<path d="M7.50795 27.8616C12.2038 28.2082 16.9873 28.2082 21.8585 27.8616C25.4306 27.6056 28.4925 27.3883 30.9203 25.8987C31.8018 25.3607 32.9538 25.3219 34.3765 25.7823C34.9899 25.984 35.3842 26.2866 35.5595 26.6901C35.6866 26.9834 35.697 27.3163 35.5886 27.6253C35.4802 27.9343 35.2607 28.1979 34.9719 28.3659C28.2219 32.3073 13.7399 33.7349 7.12908 28.9013C7.02711 28.8283 6.95183 28.7237 6.91477 28.6037C6.87772 28.4836 6.88095 28.3547 6.92396 28.2367C6.96697 28.1186 7.0474 28.018 7.15289 27.9503C7.25838 27.8825 7.38312 27.8514 7.50795 27.8616Z" fill="#0055AA"/>
<path d="M46.206 25.4404H46.7472C46.8096 25.4406 46.8709 25.4563 46.9258 25.486C46.9807 25.5157 47.0274 25.5586 47.0619 25.6108C47.0963 25.663 47.1173 25.7229 47.1231 25.7852C47.1289 25.8475 47.1193 25.9103 47.0951 25.968L45.6338 29.3275C45.598 29.4111 45.5835 29.5024 45.5914 29.593C45.5994 29.6837 45.6296 29.771 45.6794 29.8471C45.7292 29.9232 45.797 29.9857 45.8767 30.0291C45.9565 30.0724 46.0457 30.0953 46.1364 30.0956H46.3374C46.6268 30.0958 46.9104 30.0101 47.1535 29.8488C47.3967 29.6875 47.5887 29.4578 47.706 29.1878L49.0204 26.1542C49.1096 25.9467 49.2575 25.7699 49.4457 25.6458C49.634 25.5217 49.8544 25.4557 50.0797 25.4559H50.4044C50.4984 25.4559 50.5909 25.4798 50.6733 25.5254C50.7556 25.5709 50.8251 25.6366 50.8753 25.7164C50.9255 25.7962 50.9547 25.8875 50.9603 25.9817C50.9658 26.0759 50.9475 26.1699 50.907 26.2551C49.3761 29.3818 48.108 32.3146 44.5591 31.4223C44.3724 31.3762 44.198 31.2897 44.048 31.169C43.8981 31.0483 43.7762 30.8962 43.6908 30.7234C43.6054 30.5506 43.5586 30.3611 43.5537 30.1683C43.5487 29.9754 43.5857 29.7838 43.6621 29.6068L45.1699 26.1154C45.2572 25.915 45.4016 25.7444 45.5856 25.6245C45.7696 25.5046 45.9852 25.4407 46.206 25.4404Z" fill="#0055AA"/>
<path d="M60.8117 29.8082C60.8529 29.6427 60.7447 29.4669 60.487 29.2807C60.3856 29.207 60.305 29.1061 60.2549 28.9902C60.2047 28.8743 60.1872 28.7483 60.2043 28.6271C60.2214 28.506 60.2725 28.3949 60.3514 28.3072C60.4304 28.2194 60.5338 28.1587 60.6493 28.1324C61.2834 27.9875 61.9947 27.9798 62.7834 28.1091C62.8451 28.1191 62.9039 28.1426 62.9556 28.178C63.0073 28.2134 63.0506 28.2598 63.0823 28.3138C63.1141 28.3679 63.1335 28.4284 63.1393 28.4909C63.1451 28.5534 63.1371 28.6164 63.1158 28.6755C62.5282 30.3772 61.3246 31.3393 59.505 31.5617C58.639 31.6651 57.9638 31.5617 57.4792 31.2513C57.1516 31.04 56.9109 30.7154 56.8004 30.3358C56.6899 29.9562 56.7167 29.5464 56.8761 29.1798C58.1236 26.2884 60.0746 25.0703 62.7292 25.5255C63.2911 25.6238 63.6442 25.8565 63.7885 26.2238C63.8517 26.3887 63.8582 26.5664 63.8071 26.7328C63.7561 26.8991 63.6499 27.046 63.503 27.1536C63.3561 27.2612 63.1756 27.3242 62.9861 27.3341C62.7965 27.3441 62.6069 27.3004 62.4432 27.2091C60.8607 26.3039 59.6004 26.935 58.6622 29.1022C58.5837 29.2866 58.5801 29.4946 58.6524 29.6816C58.7246 29.8687 58.8669 30.0199 59.0488 30.1031C59.2705 30.2013 59.773 30.1858 60.5566 30.0565C60.6181 30.0456 60.6752 30.0162 60.7206 29.972C60.766 29.9278 60.7977 29.8708 60.8117 29.8082Z" fill="#0055AA"/>
<path d="M69.3942 26.1313L68.7292 30.7709C68.7035 30.9347 68.6336 31.088 68.5272 31.214C68.4207 31.3399 68.282 31.4336 68.1261 31.4847C67.59 31.6503 67.1777 31.4796 66.889 30.9727C66.7924 30.805 66.6616 30.6593 66.5065 30.5464C66.3513 30.4334 66.1758 30.3562 65.9929 30.3204C65.8101 30.2846 65.6247 30.2912 65.4505 30.3396C65.2763 30.3881 65.1179 30.4772 64.987 30.6002C64.4663 31.0916 63.9174 31.4123 63.34 31.5623C63.2279 31.5924 63.1091 31.5849 63.0016 31.541C62.894 31.4972 62.8037 31.4193 62.7443 31.3193C62.6848 31.2193 62.6595 31.1026 62.6721 30.9868C62.6848 30.871 62.7347 30.7626 62.8143 30.6778C63.7782 29.6537 65.0978 28.1227 66.773 26.0847C67.2112 25.5571 67.9251 25.3606 68.9148 25.4951C68.9882 25.5046 69.059 25.5287 69.123 25.566C69.187 25.6032 69.2429 25.653 69.2876 25.7122C69.3322 25.7714 69.3646 25.839 69.3829 25.911C69.4012 25.9829 69.4051 26.0578 69.3942 26.1313ZM67.2756 27.5434C66.7962 27.9416 66.4663 28.3606 66.2859 28.8002C66.2647 28.8515 66.2571 28.9073 66.264 28.9624C66.2709 29.0175 66.292 29.07 66.3253 29.1151C66.3585 29.1601 66.4029 29.1962 66.4542 29.2198C66.5055 29.2435 66.562 29.254 66.6184 29.2502C67.1132 29.2089 67.4328 28.6968 67.5772 27.714C67.5826 27.6768 67.5766 27.6389 67.5601 27.6051C67.5436 27.5714 67.5173 27.5434 67.4847 27.5249C67.4521 27.5065 67.4146 27.4983 67.3773 27.5016C67.34 27.5049 67.3045 27.5195 67.2756 27.5434Z" fill="#0055AA"/>
<path d="M103.918 27.8998C104.042 27.8896 104.167 27.9207 104.273 27.9884C104.378 28.0562 104.459 28.1568 104.502 28.2748C104.545 28.3929 104.548 28.5218 104.511 28.6419C104.474 28.7619 104.398 28.8665 104.296 28.9395C97.6779 33.7963 83.1573 32.3765 76.3918 28.4274C76.1031 28.2577 75.8839 27.9934 75.7756 27.6846C75.6673 27.3758 75.6775 27.0439 75.8042 26.7515C75.9795 26.3481 76.3738 26.0429 76.9872 25.836C78.4099 25.3757 79.5645 25.4145 80.4511 25.9524C82.8867 27.442 85.9563 27.6593 89.5362 27.9153C94.4176 28.2567 99.2114 28.2515 103.918 27.8998Z" fill="#0055AA"/>
<path d="M55.183 29.2652C55.183 29.2756 55.2681 29.5393 55.4382 30.0566C55.6443 30.6669 55.6108 31.06 55.3376 31.2359C54.9768 31.4738 54.5155 31.5359 53.9536 31.4221C53.7899 31.3885 53.6442 31.2955 53.5444 31.161C53.4446 31.0265 53.3976 30.8598 53.4124 30.6928C53.5103 29.6221 53.2706 29.123 52.6933 29.1954C52.6296 29.2024 52.5689 29.2262 52.5173 29.2643C52.4657 29.3025 52.425 29.3536 52.3995 29.4126L51.7887 30.8092C51.7039 31.0074 51.5635 31.1763 51.3848 31.2949C51.2062 31.4135 50.9971 31.4766 50.7835 31.4764H50.3815C50.3143 31.477 50.248 31.4606 50.1888 31.4289C50.1295 31.3971 50.0791 31.351 50.0422 31.2946C50.0053 31.2383 49.983 31.1736 49.9775 31.1064C49.9719 31.0392 49.9832 30.9717 50.0103 30.91L52.1443 25.9911C52.2015 25.8597 52.2955 25.7479 52.415 25.6694C52.5345 25.5908 52.6742 25.5489 52.817 25.5488H56.5052C56.6301 25.5486 56.7532 25.5782 56.8645 25.6351C56.9757 25.692 57.0719 25.7747 57.1452 25.8762C57.2184 25.9777 57.2666 26.0952 57.2857 26.219C57.3048 26.3429 57.2944 26.4695 57.2552 26.5885C56.982 27.4574 56.3995 28.1428 55.5077 28.6445C55.3997 28.7043 55.3114 28.7949 55.2538 28.9052C55.1961 29.0154 55.1715 29.1405 55.183 29.2652ZM55.0638 26.8862C55.0269 26.8193 54.9688 26.7651 54.8929 26.7266C54.817 26.6881 54.7247 26.6661 54.6214 26.6618C54.518 26.6575 54.4056 26.671 54.2906 26.7016C54.1755 26.7321 54.0601 26.7791 53.9508 26.8399C53.8416 26.9006 53.7407 26.9739 53.6539 27.0557C53.5671 27.1374 53.4961 27.2259 53.445 27.3161C53.3939 27.4063 53.3636 27.4965 53.3559 27.5815C53.3482 27.6665 53.3633 27.7446 53.4002 27.8115C53.4371 27.8783 53.4952 27.9325 53.5711 27.971C53.647 28.0095 53.7392 28.0316 53.8426 28.0359C53.9459 28.0402 54.0583 28.0267 54.1734 27.9961C54.2884 27.9656 54.4039 27.9186 54.5131 27.8578C54.6223 27.797 54.7232 27.7237 54.81 27.642C54.8968 27.5603 54.9678 27.4718 55.0189 27.3816C55.0701 27.2914 55.1004 27.2012 55.108 27.1162C55.1157 27.0312 55.1007 26.953 55.0638 26.8862Z" fill="#0055AA"/>
<path d="M54.5132 27.858C54.9726 27.6024 55.2191 27.1674 55.0639 26.8864C54.9086 26.6053 54.4103 26.5846 53.9509 26.8401C53.4915 27.0956 53.245 27.5306 53.4003 27.8117C53.5555 28.0928 54.0538 28.1135 54.5132 27.858Z" fill="#FEFFFF"/>
<path d="M67.5773 27.7141C67.433 28.6969 67.1134 29.2089 66.6186 29.2503C66.5622 29.254 66.5057 29.2436 66.4544 29.2199C66.4031 29.1963 66.3587 29.1602 66.3254 29.1152C66.2922 29.0701 66.2711 29.0175 66.2642 28.9625C66.2573 28.9074 66.2649 28.8516 66.2861 28.8003C66.4665 28.3607 66.7964 27.9417 67.2758 27.5434C67.3047 27.5195 67.3402 27.505 67.3775 27.5017C67.4148 27.4984 67.4523 27.5065 67.4849 27.525C67.5175 27.5435 67.5438 27.5714 67.5603 27.6052C67.5768 27.6389 67.5828 27.6769 67.5773 27.7141Z" fill="#FEFFFF"/>
<path d="M188.644 28.451L187.855 28.4898C188.098 28.3708 188.361 28.3579 188.644 28.451Z" fill="#0055AA"/>
<path d="M16.2525 33.2069C16.8349 33.15 18.3762 33.0983 20.8762 33.0517C25.7782 32.9586 31.7009 32.144 35.5901 29.0793C35.6715 29.0157 35.767 28.9727 35.8686 28.954C35.9701 28.9352 36.0746 28.9414 36.1732 28.9718C36.2719 29.0023 36.3617 29.0562 36.4352 29.1289C36.5087 29.2016 36.5636 29.2911 36.5953 29.3897L36.6339 29.506C36.7229 29.7779 36.7228 30.071 36.6337 30.3421C36.5446 30.6131 36.3712 30.8477 36.1391 31.0112C33.4174 32.925 29.7422 34.3914 25.1133 35.4103C21.8453 36.1293 18.8349 35.6353 16.0824 33.9284C16.0111 33.8864 15.9551 33.8226 15.9227 33.7463C15.8902 33.6701 15.883 33.5854 15.902 33.5047C15.921 33.424 15.9653 33.3515 16.0284 33.2979C16.0915 33.2443 16.17 33.2124 16.2525 33.2069Z" fill="#0055AA"/>
<path d="M95.2657 33.1602C95.3471 33.1696 95.424 33.204 95.4856 33.2587C95.5472 33.3133 95.5904 33.3855 95.6091 33.465C95.6279 33.5446 95.6212 33.6275 95.5901 33.7022C95.5591 33.7769 95.5051 33.8397 95.4358 33.8817C92.6729 35.6041 89.6497 36.1085 86.3662 35.3947C81.7167 34.3809 78.0234 32.9145 75.2863 30.9955C75.0543 30.8307 74.8811 30.5955 74.792 30.3246C74.703 30.0538 74.7028 29.7614 74.7914 29.4904L74.8301 29.3662C74.8618 29.2677 74.9167 29.1782 74.9902 29.1055C75.0636 29.0327 75.1535 28.9789 75.2521 28.9484C75.3508 28.9179 75.4553 28.9118 75.5568 28.9305C75.6583 28.9492 75.7538 28.9922 75.8353 29.0559C79.7476 32.1283 85.6935 32.9274 90.6188 33.0128C93.1291 33.0541 94.678 33.1033 95.2657 33.1602Z" fill="#0055AA"/>
<path d="M285.394 29.0015C285.016 29.0015 284.637 29.0093 284.258 29.0015C284.637 29.0015 285.016 28.9937 285.394 29.0015Z" fill="#0055AA"/>
<path d="M25.8168 37.4427C25.7321 37.4248 25.6555 37.3808 25.5975 37.3167C25.5394 37.2527 25.5028 37.1717 25.4926 37.085C25.4825 36.9983 25.4993 36.91 25.5407 36.8324C25.5821 36.7547 25.6462 36.6915 25.724 36.6513C29.474 34.797 33.5101 34.4556 37.2215 31.391C37.3965 31.248 37.6072 31.1558 37.8307 31.1243C38.0542 31.0929 38.282 31.1234 38.4895 31.2125L39.1699 31.5074C39.2721 31.5526 39.3604 31.6244 39.4256 31.7153C39.4908 31.8063 39.5306 31.9131 39.5408 32.0247C39.5511 32.1363 39.5314 32.2486 39.4839 32.35C39.4363 32.4513 39.3626 32.5381 39.2704 32.6013C38.8168 32.9117 38.6544 33.3332 38.7833 33.866C38.8189 34.0145 38.8185 34.169 38.7822 34.3163C38.7458 34.4636 38.6746 34.5993 38.5746 34.7117C36.0694 37.5358 29.1725 38.1875 25.8168 37.4427Z" fill="#0055AA"/>
<path d="M85.5772 37.4512C82.237 38.2038 75.371 37.5754 72.8659 34.7667C72.7665 34.6555 72.6956 34.5212 72.6592 34.3752C72.6229 34.2293 72.6221 34.0761 72.6571 33.9288C72.786 33.396 72.6236 32.9771 72.17 32.6719C72.0765 32.6089 72.0014 32.5218 71.9525 32.42C71.9037 32.3181 71.8829 32.2052 71.8924 32.0932C71.9019 31.9812 71.9413 31.8741 72.0065 31.7835C72.0717 31.6928 72.1602 31.6218 72.2628 31.5779L72.9432 31.2831C73.1503 31.1951 73.3771 31.1653 73.5991 31.1967C73.8212 31.2282 74.0302 31.3197 74.2035 31.4616C77.9071 34.5029 81.9277 34.8288 85.67 36.6676C85.7471 36.706 85.8105 36.7675 85.8514 36.8435C85.8924 36.9195 85.9089 37.0064 85.8988 37.0922C85.8886 37.178 85.8523 37.2586 85.7947 37.3229C85.7371 37.3871 85.6612 37.432 85.5772 37.4512Z" fill="#0055AA"/>
<path d="M71.1647 31.57C71.2317 32.1545 71.1415 32.545 70.8941 32.7415C70.7913 32.8223 70.6624 32.8715 70.528 32.8813C70.3935 32.8912 70.2614 32.8611 70.1527 32.7958C70.044 32.7305 69.9651 32.6339 69.9284 32.5214C69.8918 32.4089 69.8997 32.2869 69.9508 32.1751C70.0127 32.0355 70.2884 31.7795 70.7781 31.407C70.8117 31.3805 70.8518 31.3634 70.8942 31.3576C70.9366 31.3519 70.9798 31.3576 71.0193 31.3742C71.0587 31.3909 71.093 31.4178 71.1186 31.4522C71.1442 31.4866 71.1601 31.5273 71.1647 31.57Z" fill="#006CB3"/>
<path d="M51.5182 39.0334C49.9306 39.7058 48.4048 39.6877 46.9409 38.9791C46.6634 38.8402 46.4521 38.5975 46.3533 38.3041C45.9821 37.1868 45.1213 36.6489 43.7708 36.6903C43.6583 36.6926 43.5466 36.6717 43.4429 36.629C43.3391 36.5862 43.2454 36.5226 43.1677 36.442L41.428 34.6032C41.3792 34.5512 41.3463 34.486 41.3333 34.4157C41.3203 34.3453 41.3279 34.273 41.3552 34.2076C41.3824 34.1422 41.428 34.0868 41.4863 34.0481C41.5446 34.0095 41.6131 33.9893 41.6832 33.9903H42.2708C42.6981 33.9899 43.1072 34.1508 43.4151 34.4403C45.5749 36.4834 48.2656 37.8929 51.4873 38.6687C51.5261 38.6788 51.5607 38.7007 51.5866 38.7314C51.6124 38.762 51.6281 38.8 51.6315 38.84C51.6349 38.8801 51.6258 38.9202 51.6055 38.9548C51.5852 38.9894 51.5547 39.0169 51.5182 39.0334Z" fill="#0055AA"/>
<path d="M59.8065 38.6845C63.0591 37.9242 65.7807 36.5199 67.9715 34.4716C68.2833 34.1845 68.695 34.0265 69.1235 34.0293H69.7189C69.7902 34.03 69.8598 34.0518 69.9189 34.0919C69.978 34.132 70.024 34.1887 70.0512 34.2549C70.0784 34.3211 70.0856 34.3939 70.0719 34.4641C70.0582 34.5344 70.0241 34.599 69.974 34.65L68.2034 36.4888C68.1252 36.5694 68.0313 36.633 67.9275 36.6757C67.8238 36.7184 67.7124 36.7393 67.6003 36.7371C66.2395 36.6854 65.3684 37.2233 64.9869 38.3509C64.8857 38.6445 64.6718 38.887 64.3916 39.0259C62.9122 39.7293 61.3735 39.7371 59.7756 39.0492C59.7391 39.0327 59.7086 39.0052 59.6883 38.9706C59.668 38.936 59.6589 38.8959 59.6623 38.8558C59.6657 38.8158 59.6814 38.7778 59.7072 38.7471C59.7331 38.7165 59.7677 38.6946 59.8065 38.6845Z" fill="#0055AA"/>
<path d="M55.6854 34.1689C62.3916 34.1689 65.773 34.1715 65.8297 34.1767C65.8814 34.1825 65.9301 34.2041 65.9693 34.2384C66.0085 34.2728 66.0362 34.3184 66.0488 34.369C66.0615 34.4197 66.0583 34.473 66.0399 34.5218C66.0215 34.5707 65.9886 34.6127 65.9457 34.6422C62.7447 36.9595 59.3246 38.1181 55.6854 38.1181C52.0462 38.1181 48.6235 36.9569 45.4174 34.6345C45.377 34.6036 45.3468 34.5614 45.3304 34.5132C45.3141 34.465 45.3125 34.413 45.3258 34.3638C45.3391 34.3147 45.3666 34.2707 45.405 34.2373C45.4433 34.204 45.4907 34.1829 45.5411 34.1767C45.5926 34.1715 48.9741 34.1689 55.6854 34.1689Z" fill="#FEFFFF"/>
<path d="M36.7963 38.0022C36.6927 37.9952 36.5939 37.9552 36.5146 37.8879C36.4352 37.8206 36.3794 37.7296 36.3552 37.6282C36.331 37.5269 36.3398 37.4204 36.3802 37.3243C36.4206 37.2283 36.4906 37.1477 36.5798 37.0944L39.8582 35.2013C39.9856 35.1262 40.1334 35.0926 40.2814 35.1051C40.4295 35.1176 40.5705 35.1756 40.6855 35.2711L41.6133 36.047C41.6905 36.11 41.7499 36.1921 41.7858 36.2852C41.8216 36.3783 41.8327 36.4792 41.8179 36.5779C41.803 36.6766 41.7628 36.7697 41.7012 36.848C41.6396 36.9263 41.5587 36.9872 41.4664 37.0246C39.6778 37.7487 38.1211 38.0746 36.7963 38.0022Z" fill="#0055AA"/>
<path d="M74.6212 37.9937C73.3119 38.0506 71.7784 37.7144 70.0206 36.9851C69.9306 36.9474 69.8517 36.887 69.7919 36.8096C69.732 36.7322 69.6932 36.6406 69.6792 36.5437C69.6652 36.4467 69.6764 36.3478 69.7119 36.2566C69.7473 36.1653 69.8058 36.0849 69.8815 36.023L70.8016 35.2627C70.9162 35.169 71.0563 35.1128 71.203 35.1016C71.3497 35.0905 71.4957 35.1251 71.6212 35.2006L74.8377 37.1015C74.9252 37.1543 74.9936 37.2339 75.033 37.3285C75.0723 37.4231 75.0805 37.5279 75.0563 37.6275C75.0321 37.7271 74.9769 37.8163 74.8986 37.8822C74.8203 37.9481 74.7231 37.9872 74.6212 37.9937Z" fill="#0055AA"/>
<path d="M214.075 35.2004C214.062 35.2004 214.052 35.2039 214.052 35.2082C214.052 35.2125 214.062 35.2159 214.075 35.2159C214.088 35.2159 214.098 35.2123 214.098 35.2081C214.098 35.2038 214.088 35.2003 214.075 35.2004Z" fill="#0055AA"/>
<path d="M264.518 35.209C263.691 35.209 262.856 35.2167 262.028 35.209C262.858 35.2038 263.688 35.2038 264.518 35.209Z" fill="#0055AA"/>
<path d="M43.2819 40.3962C44.7468 39.9885 45.7725 39.0723 45.5728 38.3497C45.3731 37.6271 44.0236 37.3718 42.5587 37.7794C41.0938 38.1871 40.0681 39.1034 40.2678 39.826C40.4676 40.5486 41.817 40.8039 43.2819 40.3962Z" fill="#006CB3"/>
<path d="M68.8395 37.7843C67.3662 37.391 66.0153 37.6629 65.822 38.3917C65.6288 39.1205 66.6664 40.0302 68.1396 40.4235C69.6128 40.8169 70.9638 40.5449 71.157 39.8161C71.3503 39.0873 70.3127 38.1777 68.8395 37.7843Z" fill="#006CB3"/>
<path d="M55.6933 38.9246C56.4149 38.8935 56.8118 38.8832 56.884 38.8935C56.93 38.9015 56.9729 38.9214 57.0086 38.9515C57.0444 38.9816 57.0718 39.0208 57.0881 39.0652C57.1044 39.1097 57.1091 39.158 57.1018 39.2054C57.0945 39.2527 57.0754 39.2977 57.0464 39.3358C56.5464 39.9616 56.116 40.2849 55.7551 40.3056C55.3995 40.3211 54.9433 40.0418 54.3866 39.4677C54.3536 39.4323 54.33 39.3889 54.3182 39.3419C54.3064 39.2949 54.3067 39.2459 54.3192 39.1997C54.3317 39.1535 54.3559 39.1116 54.3894 39.0784C54.4229 39.0451 54.4646 39.0215 54.5103 39.0099C54.5773 38.9892 54.9716 38.9608 55.6933 38.9246Z" fill="#006CB3"/>
<path d="M46.4343 42.4999C47.4542 42.2861 48.172 41.5891 48.0375 40.9432C47.9031 40.2972 46.9672 39.9469 45.9473 40.1607C44.9274 40.3745 44.2096 41.0715 44.3441 41.7174C44.4786 42.3634 45.4144 42.7137 46.4343 42.4999Z" fill="#006CB3"/>
<path d="M65.4254 40.1294C64.417 39.9235 63.4897 40.2979 63.3543 40.9655C63.219 41.6331 63.9268 42.3413 64.9352 42.5471C65.9437 42.753 66.871 42.3787 67.0063 41.7111C67.1417 41.0434 66.4339 40.3353 65.4254 40.1294Z" fill="#006CB3"/>
<path d="M54.1544 42.0288L49.6081 42.7194C49.4888 42.7379 49.3668 42.724 49.2548 42.6791C49.1428 42.6341 49.0449 42.5597 48.9714 42.4637C48.8978 42.3677 48.8514 42.2536 48.8369 42.1335C48.8224 42.0133 48.8404 41.8914 48.889 41.7806L49.1209 41.2452C49.2267 40.9987 49.4017 40.7886 49.6243 40.6411C49.8469 40.4935 50.1074 40.4149 50.3735 40.415H54.0307C54.2298 40.4227 54.4191 40.5035 54.5626 40.642C54.7062 40.7806 54.7939 40.9673 54.8092 41.1666C54.8245 41.3659 54.7662 41.5639 54.6455 41.7229C54.5248 41.8819 54.35 41.9907 54.1544 42.0288Z" fill="#006CB3"/>
<path d="M57.2398 42.0203C57.034 41.9921 56.8468 41.8859 56.7167 41.7235C56.5866 41.5611 56.5234 41.3548 56.5403 41.147C56.5571 40.9393 56.6526 40.746 56.8072 40.6068C56.9618 40.4676 57.1636 40.3931 57.3712 40.3987L61.0285 40.422C61.2954 40.4226 61.5565 40.5023 61.7792 40.6513C62.002 40.8003 62.1765 41.0119 62.281 41.2599L62.5053 41.7953C62.5538 41.9061 62.5718 42.028 62.5573 42.1482C62.5428 42.2684 62.4964 42.3824 62.4229 42.4784C62.3494 42.5744 62.2515 42.6488 62.1394 42.6938C62.0274 42.7388 61.9054 42.7527 61.7862 42.7341L57.2398 42.0203Z" fill="#006CB3"/>
</svg>
