<svg width="181" height="181" viewBox="0 0 181 181" fill="none" xmlns="http://www.w3.org/2000/svg">
<rect width="181" height="181" fill="#E2E2E2"/>
<path d="M133.14 55C131.002 55 127.154 56.3335 124.054 58.3851C120.526 60.6419 113.898 66.5915 113.898 66.5915L83.1102 62.5909L75.8408 69.0534L102.139 76.9521C102.139 76.9521 96.6869 81.8759 93.5866 85.2611C90.9144 87.8256 87.0656 92.1339 87.0656 92.1339L75.6274 90.9029L71.6719 94.3907L83.7518 100.34L88.8833 112.342L92.8382 108.752L92.4106 97.8784C92.4106 97.8784 97.328 94.4932 100.107 92.2365C103.956 89.3642 109.515 84.6456 109.515 84.6456L115.501 110.393L122.985 103.931L121.381 74.285C121.381 74.285 128.223 68.438 130.895 65.3606C134.102 61.5651 135.92 56.5387 134.851 55.3077C134.423 55.1026 133.889 55 133.14 55Z" fill="#0C65AA"/>
<path d="M76.5706 104.151C66.9363 112.779 53.636 126.989 45.0488 138.966H56.5681C63.8988 129.222 74.1617 117.55 81.9116 109.937L80.3406 106.08L76.5706 104.151Z" fill="#0C65AA"/>
</svg>
