<svg width="181" height="181" viewBox="0 0 181 181" fill="none" xmlns="http://www.w3.org/2000/svg">
<rect width="181" height="181" fill="#1D1D1B"/>
<g clip-path="url(#clip0_1381_50480)">
<mask id="mask0_1381_50480" style="mask-type:luminance" maskUnits="userSpaceOnUse" x="13" y="52" width="154" height="78">
<path d="M166.633 52.2026H13.8774V129.919H166.633V52.2026Z" fill="white"/>
</mask>
<g mask="url(#mask0_1381_50480)">
<path d="M166.633 100.243C166.633 98.0538 164.919 96.3511 162.716 96.3511H17.9168C15.7136 96.3511 14 98.0538 14 100.243C14 102.432 15.7136 104.135 17.9168 104.135H162.716C164.919 104.135 166.633 102.432 166.633 100.243Z" fill="#E3051B"/>
</g>
<mask id="mask1_1381_50480" style="mask-type:luminance" maskUnits="userSpaceOnUse" x="13" y="52" width="154" height="78">
<path d="M166.633 52.2026H13.8774V129.919H166.633V52.2026Z" fill="white"/>
</mask>
<g mask="url(#mask1_1381_50480)">
<path d="M164.185 56.2163C161.492 55.7299 158.799 55.8515 156.106 56.7028C154.27 57.3109 152.434 57.9191 150.721 58.4055C144.233 60.4731 137.746 62.5407 131.381 64.7299C131.014 64.7299 130.647 64.7299 130.402 64.6082C127.832 63.6353 122.813 61.6893 120.243 60.5947C112.654 57.6758 98.211 52.2028 98.211 52.2028C98.211 52.2028 97.4766 51.9596 96.987 52.2028L93.315 55.0001L108.003 72.392C108.003 72.392 100.537 74.9461 92.8254 77.2569C91.8462 76.892 90.4998 76.2839 89.8878 75.9191C88.9086 75.4326 88.0518 75.0677 87.0726 74.5812C83.2782 72.7569 79.6062 70.9326 76.0566 69.3515C75.567 69.1082 75.3222 69.4731 75.3222 69.4731L72.7518 71.4191C72.7518 71.4191 77.0358 76.4055 79.239 78.838C79.3614 78.9596 79.9734 79.8109 80.7078 80.4191C80.0958 80.5407 79.4838 80.6623 78.9942 80.6623H18.1614C15.9582 80.6623 14.2446 82.365 14.2446 84.5542C14.2446 86.7434 15.9582 88.4461 18.1614 88.4461H34.9302H82.0542H82.5438C85.1142 88.4461 99.1902 83.5812 100.414 83.2163C115.102 78.5947 129.668 73.8515 144.356 69.1082C149.497 67.4055 154.637 65.8245 159.778 64.1218C162.349 63.2704 164.429 61.6893 166.021 59.7434C167.367 58.0407 166.633 56.7028 164.185 56.2163Z" fill="#0033A1"/>
</g>
<path d="M14.6118 125.906V111.676H21.8334V113.378H16.3254V117.878H21.4662V119.581H16.3254V125.906H14.6118Z" fill="white"/>
<path d="M26.6068 111.676H25.0156V125.906H26.6068V111.676Z" fill="white"/>
<mask id="mask2_1381_50480" style="mask-type:luminance" maskUnits="userSpaceOnUse" x="13" y="52" width="154" height="78">
<path d="M166.633 52.2026H13.8774V129.919H166.633V52.2026Z" fill="white"/>
</mask>
<g mask="url(#mask2_1381_50480)">
<path d="M36.1542 116.054H37.7454V125.905H36.1542V124.446C35.5422 125.662 34.4406 126.148 33.2166 126.148C31.503 126.148 30.4014 124.567 30.4014 122.621V115.932H31.9926V121.77C31.9926 123.473 32.3598 124.689 33.8286 124.689C34.4406 124.689 35.4198 124.324 35.6646 123.229C36.0318 122.256 36.0318 121.162 36.0318 120.919L36.1542 116.054Z" fill="white"/>
</g>
<mask id="mask3_1381_50480" style="mask-type:luminance" maskUnits="userSpaceOnUse" x="13" y="52" width="154" height="78">
<path d="M166.633 52.2026H13.8774V129.919H166.633V52.2026Z" fill="white"/>
</mask>
<g mask="url(#mask3_1381_50480)">
<path d="M44.9671 124.446C46.6807 124.446 47.2927 122.743 47.2927 120.797C47.2927 118.851 46.6807 117.148 44.9671 117.148C43.1311 117.148 42.6415 119.216 42.6415 120.797C42.6415 122.256 43.1311 124.446 44.9671 124.446ZM47.4151 116.054H49.0063C49.0063 116.662 48.8839 117.27 48.8839 117.878V124.811C48.8839 128.459 47.5375 129.919 44.4775 129.919C42.6415 129.919 41.4175 129.067 41.4175 126.756H43.1311C43.2535 128.094 43.9879 128.581 45.0895 128.581C47.4151 128.581 47.4151 126.392 47.4151 124.202C46.9255 125.419 45.7015 125.905 44.5999 125.905C42.0295 125.905 41.0503 123.838 41.0503 121.04C41.0503 118.243 42.3967 115.932 44.9671 115.932C45.8239 115.932 46.6807 116.297 47.1703 117.27C47.1703 117.27 47.4151 117.878 47.4151 117.756V116.054Z" fill="white"/>
</g>
<mask id="mask4_1381_50480" style="mask-type:luminance" maskUnits="userSpaceOnUse" x="13" y="52" width="154" height="78">
<path d="M166.633 52.2026H13.8774V129.919H166.633V52.2026Z" fill="white"/>
</mask>
<g mask="url(#mask4_1381_50480)">
<path d="M52.6782 125.906V111.676H54.2694V117.392C54.8814 116.297 55.7382 115.811 56.9622 115.811C59.1654 115.811 59.8998 117.514 59.8998 119.338V126.027H58.3086V120.189C58.3086 118.487 57.9414 117.392 56.4726 117.27C55.8606 117.27 54.8814 117.757 54.5142 118.608C54.147 119.581 54.2694 120.311 54.2694 120.919V126.027H52.6782V125.906Z" fill="white"/>
</g>
<mask id="mask5_1381_50480" style="mask-type:luminance" maskUnits="userSpaceOnUse" x="13" y="52" width="154" height="78">
<path d="M166.633 52.2026H13.8774V129.919H166.633V52.2026Z" fill="white"/>
</mask>
<g mask="url(#mask5_1381_50480)">
<path d="M67.1214 121.162C66.1422 121.162 64.7958 121.648 64.7958 123.108C64.7958 124.324 65.5302 124.932 66.387 124.932C68.223 124.932 68.5902 122.986 68.5902 121.162H67.1214ZM68.7126 119.824C68.7126 118.121 68.5902 117.148 66.999 117.148C66.1422 117.148 65.4078 117.635 65.4078 118.729H63.6942C63.8166 116.54 65.2854 115.811 66.8766 115.811C68.5902 115.811 70.3038 116.419 70.3038 119.216V123.838C70.3038 124.324 70.3038 125.054 70.4262 125.905H69.3246C69.2022 125.905 68.835 126.027 68.835 125.784C68.835 125.297 68.7126 124.932 68.7126 124.446C68.223 125.662 67.2438 126.27 66.1422 126.27C64.6734 126.27 63.2046 125.419 63.2046 123.473C63.2046 120.675 65.2854 119.824 67.2438 119.824H68.7126Z" fill="white"/>
</g>
<mask id="mask6_1381_50480" style="mask-type:luminance" maskUnits="userSpaceOnUse" x="13" y="52" width="154" height="78">
<path d="M166.633 52.2026H13.8774V129.919H166.633V52.2026Z" fill="white"/>
</mask>
<g mask="url(#mask6_1381_50480)">
<path d="M74.4656 125.905V117.27H72.752V115.932H74.3432V114.108C74.3432 111.919 75.812 111.432 76.9136 111.432C77.2808 111.432 77.648 111.554 78.0152 111.675V113.256C77.7704 113.256 77.5256 113.135 77.1584 113.135C76.3016 113.135 75.6896 113.378 75.812 114.473V116.054H77.7704V117.392H75.812V126.027L74.4656 125.905Z" fill="white"/>
</g>
<mask id="mask7_1381_50480" style="mask-type:luminance" maskUnits="userSpaceOnUse" x="13" y="52" width="154" height="78">
<path d="M166.633 52.2026H13.8774V129.919H166.633V52.2026Z" fill="white"/>
</mask>
<g mask="url(#mask7_1381_50480)">
<path d="M85.7263 120.067C85.7263 118.365 85.1143 117.148 83.5231 117.148C82.1767 117.148 81.4423 118.486 81.4423 120.067H85.7263ZM81.4423 121.405C81.3199 123.108 81.9319 124.932 83.5231 124.932C84.7471 124.932 85.3591 124.324 85.6039 122.986H87.3175C87.0727 125.175 85.6039 126.392 83.6455 126.392C80.9527 126.392 79.8511 124.202 79.8511 121.283C79.8511 118.365 81.0751 115.932 83.7679 115.932C86.3383 115.932 87.4399 117.878 87.4399 120.554V121.405H81.4423Z" fill="white"/>
</g>
<mask id="mask8_1381_50480" style="mask-type:luminance" maskUnits="userSpaceOnUse" x="13" y="52" width="154" height="78">
<path d="M166.633 52.2026H13.8774V129.919H166.633V52.2026Z" fill="white"/>
</mask>
<g mask="url(#mask8_1381_50480)">
<path d="M92.2133 117.513C92.7029 116.297 93.9269 115.811 94.7837 115.811C95.3957 115.811 97.9661 115.932 97.9661 119.216V126.027H96.3749V119.824C96.3749 118.243 95.7629 117.27 94.4165 117.27C94.4165 117.27 93.5597 117.27 92.8253 118C92.5805 118.243 92.2133 118.729 92.2133 120.675V126.027H90.6221V116.175H92.2133V117.513Z" fill="white"/>
</g>
<path d="M107.269 125.906V111.676H108.982V124.203H114.613V125.906H107.269Z" fill="white"/>
<mask id="mask9_1381_50480" style="mask-type:luminance" maskUnits="userSpaceOnUse" x="13" y="52" width="154" height="78">
<path d="M166.633 52.2026H13.8774V129.919H166.633V52.2026Z" fill="white"/>
</mask>
<g mask="url(#mask9_1381_50480)">
<path d="M121.834 111.676H123.425V113.622H121.834V111.676ZM118.774 111.676H120.365V113.622H118.774V111.676ZM123.181 116.054H124.772V125.906H123.181V124.446C122.569 125.662 121.467 126.149 120.243 126.149C118.529 126.149 117.428 124.568 117.428 122.622V115.933H119.019V121.77C119.019 123.473 119.386 124.689 120.855 124.689C121.467 124.689 122.446 124.324 122.691 123.23C123.058 122.257 123.058 121.162 123.058 120.919L123.181 116.054Z" fill="white"/>
</g>
<mask id="mask10_1381_50480" style="mask-type:luminance" maskUnits="userSpaceOnUse" x="13" y="52" width="154" height="78">
<path d="M166.633 52.2026H13.8774V129.919H166.633V52.2026Z" fill="white"/>
</mask>
<g mask="url(#mask10_1381_50480)">
<path d="M132.483 117.149C130.647 117.149 130.035 119.216 130.035 121.041C130.035 122.865 130.525 124.933 132.483 124.933C134.319 124.933 134.931 122.865 134.931 121.041C134.809 119.095 134.441 117.149 132.483 117.149ZM130.035 125.906H128.444C128.444 125.297 128.566 124.689 128.566 124.324V111.676H130.157V117.392C130.647 116.176 131.749 115.811 132.728 115.811C135.298 115.811 136.522 118.365 136.522 121.041C136.522 123.595 135.543 126.27 132.973 126.27C131.749 126.27 130.647 125.784 130.035 124.446V124.568V125.906Z" fill="white"/>
</g>
<mask id="mask11_1381_50480" style="mask-type:luminance" maskUnits="userSpaceOnUse" x="13" y="52" width="154" height="78">
<path d="M166.633 52.2026H13.8774V129.919H166.633V52.2026Z" fill="white"/>
</mask>
<g mask="url(#mask11_1381_50480)">
<path d="M144.968 120.067C144.968 118.365 144.356 117.148 142.765 117.148C141.418 117.148 140.684 118.486 140.684 120.067H144.968ZM140.684 121.405C140.562 123.108 141.174 124.932 142.765 124.932C143.989 124.932 144.601 124.324 144.846 122.986H146.559C146.314 125.175 144.846 126.392 142.887 126.392C140.194 126.392 139.093 124.202 139.093 121.283C139.093 118.365 140.317 115.932 143.01 115.932C145.58 115.932 146.682 117.878 146.682 120.554V121.405H140.684Z" fill="white"/>
</g>
<path d="M154.515 119.216C154.393 118 153.903 117.148 152.802 117.148C151.211 117.148 150.721 118.729 150.721 121.04C150.721 123.351 151.333 124.932 152.802 124.932C153.903 124.932 154.515 124.081 154.638 122.743H156.229C156.107 124.932 154.638 126.392 152.802 126.392C150.109 126.392 149.007 124.202 149.007 121.283C149.007 118.365 150.231 115.932 152.924 115.932C154.638 115.932 155.984 117.27 156.107 119.459L154.515 119.216Z" fill="white"/>
<path d="M158.921 125.906V111.676H160.513V120.068L163.695 116.054H165.776L162.226 120.189L166.021 125.906H163.94L160.513 120.554V125.906H158.921Z" fill="white"/>
</g>
<defs>
<clipPath id="clip0_1381_50480">
<rect width="153" height="90" fill="white" transform="translate(14 46)"/>
</clipPath>
</defs>
</svg>
