<svg width="181" height="181" viewBox="0 0 181 181" fill="none" xmlns="http://www.w3.org/2000/svg">
<rect width="181" height="181" fill="#492F92"/>
<path d="M156.483 108.198C150.888 99.8999 136.988 101.094 123.716 100.496C116.232 100.159 108.406 101.126 103.024 98.3556C109.86 93.4139 123.961 85.1153 134.066 82.5159C137.467 81.6438 141.402 82.1089 142.684 78.6624C143.77 75.7454 142.003 71.4478 139.671 70.9618C136.43 70.2847 133.134 74.0955 131.904 74.8145C123.217 79.9262 111.482 83.7579 102.161 88.0814C101.335 77.9224 102.07 66.2047 100.441 56.8333C98.4613 56.5213 98.493 54.2065 96.1289 54.2693C94.1163 54.84 94.3136 57.6046 92.6793 58.5509C88.7338 53.049 85.9979 46.3471 78.8861 44H75.4358C65.9973 49.692 70.0005 78.9944 73.2804 89.3702C66.029 85.5755 63.0844 77.5154 51.7243 77.8056C48.3324 84.2383 52.8308 88.7149 56.8933 91.9333C61.0296 95.2057 72.5757 97.6519 71.5544 103.915C71.2304 105.918 65.4647 108.683 62.5055 110.337C52.9217 115.676 40.5127 120.289 30.6001 124.46C28.7207 125.252 26.6286 126.801 25 127.889V130.025C25.7769 131.246 25.5586 133.46 26.7195 134.306C35.1676 135.294 41.9286 130.247 48.7066 127.028C57.4526 122.874 69.9323 119.443 80.1802 121.89C83.3699 128.708 88.0965 133.999 88.3677 143.724C89.6617 145.43 91.2375 146.864 93.1113 148H95.6986C97.1697 147.038 98.6164 146.049 99.5744 144.58C100.149 138.38 97.2963 131.234 99.5744 126.171C103.492 130.362 108.263 144.501 116.393 136.017C117.383 134.86 116.546 131.884 116.824 130.024C111.84 126.26 108.823 120.563 107.336 113.332C120.672 113.58 137.352 119.079 151.741 115.895C159.311 114.223 156.483 108.198 156.483 108.198ZM88.3669 115.482C85.6415 114.329 85.333 110.787 83.6289 108.627C84.9498 104.752 89.229 105.64 90.092 108.627C90.7512 110.936 88.2069 113.853 88.3669 115.482ZM90.092 94.498C77.4378 91.1523 75.34 72.2151 78.455 57.2621H79.7483C84.7785 67.8328 91.1304 79.3289 90.092 94.498Z" fill="#FDBB30"/>
</svg>
