<svg width="181" height="181" viewBox="0 0 181 181" fill="none" xmlns="http://www.w3.org/2000/svg">
<rect width="181" height="181" fill="#DB1D37"/>
<path d="M47.5299 112H61.6762L77.4022 157.63H63.7443L61.0145 148.934H45.3536L42.3718 157.63H32L47.5299 112ZM48.2626 139.527H58.0319L53.4232 124.612H53.3006L48.2626 139.527Z" fill="white"/>
<path d="M85.0293 115.314H97.2444V157.827H85.0293V115.314Z" fill="#0F1111"/>
<path d="M119.388 115.314H132.568L147.213 157.824H134.493L131.941 149.724H117.355L114.582 157.824H104.915L119.388 115.314ZM120.069 140.955H129.175L124.876 127.069H124.764L120.069 140.955Z" fill="#0F1111"/>
<path d="M42.6526 94.4613C43.6975 96.051 45.4695 97 47.393 97C47.9634 97 48.5258 96.9146 49.065 96.7449L120.061 74.5519L138.956 68.4442C141.883 67.5113 145.477 64.8974 147.907 61.938C150.596 58.6613 151.577 55.493 150.671 53.0156C149.765 50.5382 146.965 48.7387 142.787 47.9483C139.014 47.2333 134.575 47.5276 131.742 48.6794L113.276 56.0975L112.375 56.4751L68.5898 37.1264C68.2408 36.9722 67.8454 36.9586 67.4865 37.0885L56.85 40.9386C55.8018 41.318 55.5401 42.6724 56.3721 43.4114L84.1855 68.113L54.7283 80.2809L40.6465 68.7728C40.2434 68.4435 39.6956 68.3503 39.2055 68.5277L29.971 71.8715C29.078 72.1948 28.721 73.2614 29.241 74.0526L42.6526 94.4613Z" fill="white"/>
</svg>
