<svg width="181" height="181" viewBox="0 0 181 181" fill="none" xmlns="http://www.w3.org/2000/svg">
<rect width="181" height="181" fill="#172851"/>
<path d="M35.532 35.3067C35.6218 35.2454 35.7034 35.2515 35.7768 35.3251C35.8869 35.4395 35.944 35.4967 35.9481 35.4967C38.4569 36.784 44.9755 41.1262 55.5041 48.5232C63.014 53.7991 69.5225 59.5696 75.0295 65.8345C78.195 69.4308 80.4386 73.3071 81.7603 77.4633C84.6362 86.4745 80.2979 96.5769 74.9561 104.19C70.2894 110.831 64.8456 117.274 58.6247 123.519C50.7885 131.381 42.3566 139.101 33.3292 146.678C33.2931 146.707 33.248 146.723 33.2015 146.723C33.1549 146.723 33.1099 146.707 33.0739 146.677C33.0379 146.648 33.0132 146.607 33.004 146.561C32.9948 146.515 33.0016 146.468 33.0233 146.427C36.0256 140.946 38.569 136.202 40.6535 132.193C46.287 121.351 50.66 110.707 53.7725 100.261C55.5592 94.2618 56.6198 88.3891 56.9543 82.6432C58.0251 64.1242 48.1492 48.3147 35.5076 35.6561C35.4843 35.6325 35.4663 35.6043 35.4547 35.5732C35.4432 35.5421 35.4385 35.5089 35.4408 35.4758C35.4431 35.4428 35.4524 35.4106 35.4682 35.3814C35.4839 35.3522 35.5057 35.3268 35.532 35.3067Z" fill="#2893B7"/>
<path d="M132.749 81.7737C132.239 81.9494 131.67 82.0312 131.042 82.0189C123.94 81.884 117.046 80.4251 110.36 77.642C91.9849 69.9917 74.2707 56.0825 64.2847 38.483C64.2668 38.4483 64.2613 38.4085 64.269 38.3702C64.2768 38.332 64.2973 38.2975 64.3273 38.2724C64.3572 38.2474 64.3948 38.2334 64.4338 38.2327C64.4728 38.232 64.5108 38.2446 64.5417 38.2685C80.6058 52.0775 98.061 63.9924 116.907 74.013C121.937 76.6898 127.22 79.1991 132.755 81.5407C132.778 81.5518 132.797 81.5694 132.811 81.5912C132.824 81.613 132.831 81.6381 132.831 81.6631C132.83 81.6882 132.822 81.7121 132.807 81.7318C132.793 81.7515 132.772 81.7661 132.749 81.7737Z" fill="#3CAAC2"/>
<path d="M146.957 100.095C146.977 100.109 146.991 100.13 146.997 100.154C147.003 100.178 147 100.204 146.989 100.226C146.978 100.248 146.96 100.265 146.937 100.275C146.914 100.285 146.889 100.286 146.865 100.279C140.4 98.1617 133.861 97.2687 127.248 97.5998C110.079 98.458 95.6258 112.257 85.6276 125.289C85.5909 125.337 85.5391 125.372 85.4805 125.388C85.4218 125.404 85.3598 125.399 85.3046 125.376C85.2493 125.352 85.204 125.311 85.176 125.259C85.148 125.206 85.1389 125.146 85.1503 125.087C86.1416 119.255 87.5571 113.526 89.3968 107.898C92.2237 99.261 96.868 89.4529 106.022 86.063C118.247 81.5328 137.228 92.9777 146.957 100.095Z" fill="#3CAAC2"/>
</svg>
