<svg width="181" height="181" viewBox="0 0 181 181" fill="none" xmlns="http://www.w3.org/2000/svg">
<rect width="181" height="181" fill="#F9FDFF"/>
<g clip-path="url(#clip0_1357_22835)">
<path d="M80.2152 72.1807C60.4812 81.3252 45.3672 97.4276 45.3672 110.879C45.3672 111.145 45.7632 110.747 45.9612 110.283C51.4392 98.2228 68.9952 89.6746 79.9512 85.0361C88.3992 81.524 96.7812 79.3373 105.823 77.8795C109.453 77.2831 118.693 76.5541 127.735 79.5361C124.435 74.3011 115.393 61.9758 98.4972 66.018C98.4972 66.018 90.5112 67.4096 80.2152 72.1807Z" fill="#009A4E"/>
<path d="M132.947 100.675C132.947 100.012 132.947 99.4155 132.947 98.7529C132.551 78.7408 115.457 78.1445 99.2209 83.1806C86.7469 87.024 76.6489 95.2408 66.8809 103.855C61.0729 109.024 49.4569 118.632 45.6289 115.12C50.8429 130.693 65.3629 137.054 83.9749 131.819C91.3669 129.765 115.457 121.813 120.077 132.747C132.287 120.687 127.469 111.277 109.781 111.608C95.1289 111.873 79.6849 121.614 67.4749 119.759C79.8169 114.126 83.1829 108.56 96.3169 99.8794C109.913 91.4637 126.347 89.0119 132.419 100.807C132.551 101.072 132.947 101.006 132.947 100.675Z" fill="#00A1E4"/>
<path d="M107.341 131.156C93.0847 132.084 79.2907 141.56 64.7047 138.909C64.3747 138.843 64.3747 139.175 64.7707 139.373C81.5347 149.777 103.777 147.723 118.363 134.403C115.591 132.283 111.301 130.891 107.341 131.156Z" fill="#8DC63F"/>
<path d="M129.714 116.446C131.958 110.879 134.004 103.06 128.856 99.3493C120.078 93.1204 107.868 101.536 100.608 107.632C100.476 107.765 100.608 107.897 100.806 107.897C110.508 106.705 123.576 107.434 129.12 116.578C129.186 116.777 129.648 116.711 129.714 116.446Z" fill="#8DC63F"/>
<path d="M139.088 37.0601C138.296 36.7951 136.646 35.8011 135.062 36.2649C134.072 36.5963 112.292 42.8252 112.292 42.8252C107.408 43.8192 103.25 41.4336 102.26 40.9035C102.26 40.9035 102.854 40.7047 103.448 40.4396C103.976 40.2408 103.844 39.777 103.25 39.9758C102.458 40.2408 96.0563 42.3613 95.6603 42.4939C95.1323 42.6927 95.2643 43.0902 95.7923 42.9577C96.2543 42.8252 96.9803 42.6264 98.0363 42.3613C98.3663 42.6264 102.062 46.2047 103.844 46.9999C105.626 47.7951 108.86 47.8613 117.308 45.7408C125.558 43.3553 136.58 40.2408 137.306 40.0421C138.428 39.7107 140.87 38.518 140.804 37.8553C140.804 37.1264 140.012 36.9939 139.088 37.0601Z" fill="#EE3D96"/>
<path d="M43.9147 102.861C43.9147 102.861 36.2587 81.5239 60.8107 63.1022C82.5907 48.5239 99.0907 55.1504 126.613 45.542C124.831 55.4155 89.5207 56.4094 69.5887 69.3974C44.1787 85.8974 43.9147 102.861 43.9147 102.861Z" fill="#EE3D96"/>
</g>
<defs>
<clipPath id="clip0_1357_22835">
<rect width="99" height="110" fill="white" transform="translate(42 36)"/>
</clipPath>
</defs>
</svg>
