<svg width="181" height="181" viewBox="0 0 181 181" fill="none" xmlns="http://www.w3.org/2000/svg">
<rect width="181" height="181" fill="url(#paint0_linear_1269_11534)"/>
<path fill-rule="evenodd" clip-rule="evenodd" d="M27.4033 93.4765C28.3329 93.465 29.2638 93.5704 30.1953 93.7939L30.1924 100.652L30.1953 110.094L30.207 111.531C30.208 111.578 30.2197 111.624 30.2422 111.665C30.2648 111.706 30.2979 111.741 30.3369 111.767C33.0218 113.55 35.8179 114.653 38.7256 115.075C45.1895 116.01 51.137 114.176 56.0625 109.995L56.5361 109.584C59.1712 107.095 61.2261 104.204 62.7012 100.909C62.7095 100.89 62.7243 100.874 62.7422 100.863C62.76 100.852 62.7812 100.847 62.8027 100.847H64.5742C64.5817 100.847 64.589 100.848 64.5957 100.852C64.6024 100.855 64.608 100.86 64.6123 100.866C64.6165 100.872 64.6193 100.879 64.6201 100.886C64.6209 100.893 64.62 100.9 64.6172 100.906C63.3015 104.228 61.4104 107.178 58.9443 109.759H58.9424C56.5419 112.201 53.8099 114.044 50.7451 115.285C47.6587 116.536 44.409 117.102 40.9961 116.983C35.1402 116.777 29.969 114.509 25.4824 110.18V110.181C23.1163 107.837 21.2695 105.121 19.9443 102.031L19.75 101.579C18.7959 99.3149 18.1667 96.9499 17.8642 94.4843C18.9416 93.8999 20.1942 93.5941 21.6211 93.5673C23.5474 93.531 25.4751 93.5013 27.4033 93.4765ZM145.613 83.5888C147.784 84.6068 149.951 85.6419 152.115 86.6923C155.1 88.1419 157.863 90.2671 159.813 92.9628V92.9638C161.398 95.2323 162.246 97.7948 162.357 100.651L162.347 101.063C162.264 103.117 161.752 105.065 160.811 106.905L160.602 107.283C158.395 111.156 154.796 114.006 150.623 115.552C145.094 117.597 139.645 117.426 134.276 115.039C131.97 114.013 129.937 112.549 128.178 110.646C128.262 110.622 128.344 110.598 128.423 110.571C128.344 110.598 128.262 110.622 128.178 110.646C125.149 107.333 123.649 103.385 123.678 98.8027C123.679 98.7805 123.688 98.7595 123.703 98.7441C123.719 98.7287 123.739 98.7197 123.761 98.7197H125.285C125.304 98.7197 125.323 98.727 125.337 98.7402C125.351 98.7535 125.36 98.7727 125.36 98.7919C125.508 102.978 126.932 106.657 129.633 109.827L130.108 110.325C132.517 112.751 135.323 114.25 138.526 114.821C142.917 115.602 147.128 115.163 151.159 113.503C154.374 112.177 156.908 110.046 158.762 107.108C158.933 107.12 159.105 107.125 159.276 107.122C159.619 107.117 159.961 107.083 160.301 107.02C159.791 107.114 159.277 107.143 158.762 107.108C159.335 105.977 159.943 104.851 160.223 103.61C160.231 103.571 160.227 103.53 160.21 103.494C160.193 103.458 160.164 103.428 160.128 103.41L156.063 101.431L156.062 101.433L139.652 93.4306L137.351 92.3378C135.186 91.3001 133.434 90.4267 132.093 89.7177C129.826 88.5183 127.86 86.8459 126.195 84.7011C129.303 84.4089 131.508 84.2493 132.811 84.2226C137.849 84.1223 141.488 84.0415 145.613 83.5888ZM85.1699 89.8349C85.1706 89.8736 85.1866 89.9107 85.2139 89.9384C85.2412 89.9661 85.2784 89.9829 85.3174 89.9843C88.5094 90.118 91.6499 90.564 94.7383 91.3222C96.4724 91.7481 98.2316 92.4275 100.016 93.3613C103.233 94.8682 106.069 97.1318 108.523 100.151C108.383 100.168 108.235 100.184 108.078 100.198C108.235 100.184 108.383 100.168 108.523 100.151C109.808 101.756 110.776 103.475 111.808 105.263C111.809 105.265 111.811 105.266 111.813 105.268C111.816 105.269 111.819 105.269 111.821 105.269C111.824 105.269 111.827 105.269 111.829 105.268C111.832 105.266 111.835 105.265 111.837 105.263C111.844 105.25 111.847 105.241 111.845 105.237C111.731 105 111.64 104.762 111.571 104.523C112.466 104.187 113.382 104.139 114.317 104.378L114.314 108.261L114.32 113.884C114.32 113.907 114.329 113.931 114.346 113.947C114.362 113.964 114.386 113.973 114.409 113.973H119.232C119.254 113.973 119.274 113.982 119.289 113.997C119.304 114.013 119.312 114.035 119.312 114.057V115.626C119.312 115.643 119.305 115.66 119.293 115.673C119.281 115.685 119.264 115.692 119.246 115.692H98.0283C98.0084 115.692 97.9886 115.684 97.9746 115.67C97.9608 115.656 97.9531 115.637 97.9531 115.617V114.064C97.9532 114.04 97.9628 114.017 97.9795 114C97.9961 113.983 98.0185 113.973 98.042 113.973H102.759C102.781 113.973 102.802 113.968 102.822 113.96C102.842 113.951 102.861 113.939 102.876 113.924C102.891 113.908 102.903 113.89 102.91 113.87C102.918 113.85 102.921 113.828 102.92 113.807L102.658 108.769L102.584 108.212C102.192 105.441 101.438 102.932 99.9385 100.507C100.05 100.495 100.162 100.488 100.274 100.484C100.162 100.488 100.05 100.495 99.9385 100.507C97.9775 97.486 95.2751 95.2106 91.832 93.6806L91.1338 93.3847C89.3226 92.6895 87.3951 92.2241 85.3515 91.9892C85.3326 91.9869 85.3133 91.9886 85.2949 91.9941C85.2763 91.9997 85.259 92.0098 85.2441 92.0224C85.2294 92.0349 85.2167 92.0499 85.208 92.0673C85.1993 92.0848 85.1945 92.1044 85.1933 92.124L85.1474 93.0722V100.569L83.5137 100.948C83.4714 100.958 83.4286 100.965 83.3857 100.97C83.4286 100.965 83.4714 100.958 83.5137 100.948L85.1474 100.57L85.1494 110.03L85.1504 110.031L85.1787 113.808C85.1796 113.852 85.1978 113.894 85.2295 113.925C85.2612 113.956 85.3041 113.974 85.3486 113.974H89.8086C89.8727 113.974 89.9341 113.999 89.9795 114.044C90.0248 114.089 90.0507 114.15 90.0508 114.214V115.46C90.0508 115.521 90.026 115.58 89.9824 115.624C89.9387 115.667 89.8792 115.692 89.8174 115.692H68.9189C68.8853 115.692 68.8529 115.679 68.8291 115.655C68.8053 115.632 68.792 115.6 68.792 115.566V114.108C68.792 114.073 68.8057 114.038 68.831 114.013C68.8563 113.987 68.891 113.974 68.9267 113.974H73.583C73.6268 113.974 73.669 113.956 73.7002 113.926C73.7313 113.895 73.7491 113.854 73.75 113.81L73.7646 110.249V110.248L73.7764 100.84V100.839L73.7783 93.1386V93.1376L73.7558 91.6914C73.7558 91.6519 73.7399 91.6138 73.7119 91.5859C73.6838 91.558 73.6451 91.5429 73.6055 91.5429H56.2217C56.0055 91.5428 55.798 91.458 55.6435 91.3076C55.489 91.1571 55.4 90.9523 55.3955 90.7372V90.6259C55.3846 90.5263 55.3949 90.4254 55.4258 90.33C55.4567 90.2345 55.5078 90.1459 55.5752 90.0712C55.6425 89.9968 55.7254 89.9371 55.8174 89.8964C55.9093 89.8559 56.0088 89.8348 56.1094 89.8349L73.6201 89.832C73.6567 89.832 73.6918 89.8172 73.7178 89.791C73.7436 89.7647 73.7587 89.7294 73.7588 89.6923L73.7705 87.0732L85.1416 87.0331L85.1699 89.8349ZM57.6045 109.772L57.6055 109.773L57.6045 109.772ZM114.32 87.1855L114.317 89.9872V104.376C113.382 104.137 112.466 104.186 111.571 104.522C110.451 101.282 108.84 97.8559 106.671 95.332C105.563 94.0447 104.376 92.8265 103.11 91.6787C103.057 91.63 103.014 91.5714 102.985 91.5058C102.957 91.4401 102.942 91.369 102.943 91.2978L102.948 89.8984L102.946 86.9706L114.32 87.1855ZM160.865 100.372C160.862 100.402 160.868 100.432 160.883 100.458L161.632 101.719C161.636 101.726 161.638 101.735 161.639 101.744L161.64 101.743C161.639 101.734 161.636 101.725 161.632 101.717L160.883 100.456C160.868 100.43 160.862 100.4 160.865 100.371V100.372ZM160.616 101.487C160.612 101.532 160.594 101.575 160.562 101.607C160.517 101.659 160.49 101.702 160.484 101.736V101.738C160.49 101.704 160.517 101.661 160.562 101.61C160.594 101.577 160.613 101.535 160.617 101.489L160.616 101.487ZM158.542 100.477C158.546 100.499 158.556 100.521 158.569 100.54C158.582 100.559 158.599 100.575 158.619 100.588C158.639 100.6 158.661 100.609 158.685 100.613C159.24 100.705 159.81 100.825 160.02 101.438C160.023 101.446 160.025 101.453 160.025 101.461C160.025 101.452 160.023 101.444 160.02 101.435C159.81 100.823 159.24 100.702 158.685 100.61C158.661 100.607 158.639 100.598 158.619 100.586C158.599 100.573 158.582 100.557 158.569 100.538C158.556 100.519 158.546 100.497 158.542 100.474V100.477ZM160.575 100.923C160.578 100.938 160.583 100.953 160.592 100.966C160.712 101.141 160.773 101.296 160.777 101.433C160.774 101.296 160.713 101.139 160.592 100.963C160.583 100.95 160.578 100.936 160.575 100.921V100.923ZM83.001 100.932V100.931V100.932ZM81.7246 100.787C81.7113 100.789 81.6968 100.79 81.6816 100.79C81.649 100.79 81.6215 100.789 81.5996 100.785V100.786C81.6215 100.79 81.6491 100.791 81.6816 100.791C81.6968 100.791 81.7113 100.79 81.7246 100.788V100.787ZM81.4971 100.573C81.5094 100.577 81.5207 100.583 81.5303 100.592V100.591C81.5207 100.582 81.5094 100.576 81.4971 100.572V100.573ZM106.444 100.304C105.62 100.34 104.663 100.361 103.574 100.369C103.313 100.371 102.763 100.44 101.926 100.575V100.576C102.344 100.508 102.691 100.457 102.966 100.423C103.241 100.388 103.444 100.37 103.574 100.369C104.663 100.361 105.62 100.34 106.444 100.304ZM160.09 100.444C160.084 100.465 160.072 100.487 160.053 100.508C160.044 100.517 160.038 100.53 160.037 100.543V100.544C160.038 100.531 160.044 100.519 160.053 100.51C160.072 100.489 160.084 100.468 160.09 100.447C160.093 100.435 160.094 100.422 160.094 100.41C160.093 100.422 160.093 100.433 160.09 100.444ZM77.9248 100.321V100.32V100.321ZM48.2012 82.54C48.2198 82.5493 48.2357 82.5633 48.248 82.58C48.2604 82.5968 48.2691 82.6161 48.2724 82.6367C48.2758 82.6572 48.2739 82.6784 48.2676 82.6982L46.2168 89.1923C46.2086 89.2167 46.2059 89.2431 46.2099 89.2685C46.214 89.294 46.2248 89.3188 46.2402 89.3398C46.2556 89.3605 46.2756 89.3778 46.2988 89.3896C46.3223 89.4015 46.3486 89.407 46.375 89.4072H50.5322C50.5906 89.4071 50.6483 89.3939 50.7012 89.3681C50.754 89.3423 50.8011 89.3051 50.8379 89.2587L52.0039 87.8056C52.0309 87.7717 52.0661 87.7444 52.1055 87.7255C52.1448 87.7067 52.1886 87.6972 52.2324 87.6972H53.2549C53.2752 87.6974 53.2953 87.702 53.3135 87.7109C53.3318 87.72 53.348 87.7338 53.3603 87.7499C53.3726 87.7661 53.3811 87.7849 53.3848 87.8046C53.3883 87.8242 53.3875 87.8443 53.3818 87.8632L52.624 90.5419C52.5919 90.6563 52.5919 90.7772 52.624 90.8915L53.3926 93.5156C53.3987 93.5363 53.4008 93.5587 53.3974 93.58C53.3941 93.6011 53.386 93.6211 53.374 93.6386C53.3619 93.6562 53.3456 93.6712 53.3271 93.6816C53.3086 93.692 53.2877 93.698 53.2666 93.6992C52.8537 93.7297 52.4827 93.7103 52.1543 93.6415C52.0632 93.623 51.9815 93.5738 51.9238 93.5019L50.8379 92.1152C50.8065 92.076 50.7665 92.0442 50.7217 92.0224C50.6768 92.0006 50.6276 91.9893 50.5781 91.9892H46.3779C46.3577 91.9894 46.3374 91.9938 46.3193 92.0029C46.3013 92.0119 46.2856 92.025 46.2734 92.041C46.2612 92.057 46.2529 92.0759 46.249 92.0956C46.2452 92.1153 46.2457 92.1358 46.251 92.1552L46.7295 93.8076L48.2793 98.6435C48.2847 98.6601 48.2859 98.678 48.2832 98.6953C48.2804 98.7126 48.274 98.7299 48.2637 98.7441C48.2533 98.7582 48.2392 98.7693 48.2236 98.7773C48.2079 98.7853 48.1904 98.7899 48.1728 98.79H46.7002C46.6377 98.7899 46.5763 98.7736 46.5215 98.7431C46.4666 98.7126 46.4203 98.6685 46.3867 98.6152L42.9609 93.1953L42.4482 92.3789C42.3735 92.2598 42.2693 92.1609 42.1455 92.0927C42.0215 92.0246 41.8813 91.9893 41.7392 91.9892C40.4928 91.9854 39.1979 91.9997 37.8555 92.0322C35.6605 92.0891 35.6147 89.3244 37.8301 89.333C39.9196 89.3406 41.3307 89.3386 42.0625 89.3271C42.1126 89.327 42.1623 89.3149 42.206 89.291C42.2498 89.2669 42.2861 89.2314 42.3125 89.1894L46.4121 82.7119C46.448 82.6551 46.4984 82.6086 46.5576 82.5761C46.6169 82.5436 46.684 82.5265 46.7519 82.5263H48.1406C48.1615 82.5262 48.1825 82.5306 48.2012 82.54ZM30.3652 69.5458C30.156 71.9782 30.1075 74.5128 30.2207 77.1494L30.2217 77.1503L30.1982 85.4218L30.1953 93.7919C29.2638 93.5685 28.3329 93.4621 27.4033 93.4736C25.4751 93.4984 23.5474 93.5291 21.6211 93.5654C20.1942 93.5922 18.9416 93.898 17.8642 94.4824C17.5512 91.6367 17.5815 88.8052 17.9541 85.9882L17.9551 85.9872C18.4737 82.9226 19.4885 80.0566 21.001 77.3896L21.3105 76.8583C23.0774 73.824 25.3602 71.2814 28.1582 69.2304L30.3652 69.5458ZM151.788 93.54C151.358 93.5482 150.93 93.5524 150.505 93.5527V93.5537C150.93 93.5534 151.358 93.5492 151.788 93.541V93.54ZM143.666 93.4589V93.458V93.4589ZM119.194 65.5009C119.213 65.5088 119.231 65.5205 119.246 65.5351C119.261 65.5497 119.272 65.5677 119.28 65.5869C119.288 65.6058 119.293 65.6259 119.293 65.6464V66.9814C119.293 67.0223 119.276 67.0618 119.248 67.0908C119.219 67.1198 119.18 67.1367 119.14 67.1367H114.49C114.447 67.1367 114.406 67.1535 114.376 67.1835C114.346 67.2136 114.328 67.2543 114.328 67.2968L114.314 70.7997L114.317 76.8642L114.32 87.1835L102.946 86.9687L102.948 77.0165L102.949 70.9199L102.948 70.9208L102.917 67.3027C102.917 67.2587 102.899 67.2166 102.868 67.1855C102.837 67.1543 102.794 67.1367 102.75 67.1367H98.1289C98.0877 67.1367 98.0477 67.1203 98.0185 67.0908C97.9894 67.0612 97.9736 67.0203 97.9736 66.9785V65.6523C97.9737 65.609 97.9907 65.5676 98.0215 65.5371C98.0523 65.5065 98.0941 65.4892 98.1377 65.4892H119.134C119.154 65.4892 119.175 65.4931 119.194 65.5009ZM89.9551 65.4892C89.9809 65.4892 90.0061 65.4994 90.0244 65.5175C90.0428 65.5358 90.0537 65.561 90.0537 65.5869V67.0302C90.0537 67.0583 90.0424 67.0855 90.0224 67.1054C90.0025 67.1252 89.9754 67.1366 89.9473 67.1367H85.3144C85.2729 67.1367 85.2327 67.1527 85.2031 67.1816C85.1736 67.2105 85.1571 67.2498 85.1562 67.291L85.1445 69.2304L85.1504 76.999L85.1416 87.0312L73.7705 87.0712V77.0175L73.7676 69.2939L73.7187 67.2822C73.7171 67.2423 73.6998 67.2044 73.6709 67.1767C73.6419 67.1489 73.6028 67.1337 73.5625 67.1337H68.9297C68.9016 67.1336 68.8744 67.1223 68.8545 67.1025C68.8346 67.0826 68.8232 67.0553 68.8232 67.0273V65.5869C68.8232 65.561 68.8342 65.5358 68.8525 65.5175C68.8709 65.4994 68.896 65.4892 68.9219 65.4892H89.9551ZM130.422 69.9326C129.466 70.8549 128.811 71.5291 128.46 71.955C127.894 72.6423 127.386 73.5097 126.938 74.5576L145.613 83.5878C141.488 84.0405 137.849 84.1204 132.811 84.2206C131.508 84.2474 129.303 84.4069 126.195 84.6992C124.605 82.2297 124.061 79.4166 124.403 76.5146C124.459 76.0333 124.562 75.5567 124.712 75.0849V75.0839C125.372 72.6785 126.974 70.6252 128.9 69.0644L130.422 69.9326ZM64.2139 65.4892C64.2429 65.4892 64.2705 65.5006 64.291 65.5205C64.3115 65.5403 64.3232 65.5675 64.3232 65.5956L64.332 70.7255L64.3525 80.3339C64.3525 80.3848 64.332 80.4337 64.2959 80.4697C64.2597 80.5057 64.2104 80.5263 64.1592 80.5263H62.7734C62.7295 80.5263 62.6866 80.5134 62.6494 80.4902C62.6123 80.4669 62.5825 80.4338 62.5635 80.3945C60.5411 76.0657 57.6398 72.2438 53.6728 69.5107L56.8642 69.831C59.0402 71.6396 60.8941 73.797 62.4248 76.3027C62.4366 76.3202 62.4537 76.3345 62.4736 76.3417C62.4935 76.349 62.5157 76.3494 62.5361 76.3437C62.5564 76.3379 62.5747 76.326 62.5879 76.3095C62.6009 76.2931 62.6084 76.2728 62.6094 76.2519L62.6181 71.3046L62.6094 65.5898C62.6094 65.5766 62.612 65.5629 62.6172 65.5507C62.6224 65.5387 62.6301 65.5277 62.6396 65.5185C62.6491 65.5093 62.6604 65.502 62.6728 65.497C62.6854 65.492 62.6993 65.4892 62.7129 65.4892H64.2139ZM130.468 67.8691C134.555 65.157 139.065 63.9992 143.997 64.3964C149.974 64.8748 155.919 67.8541 158.823 73.1787H158.825C158.904 72.9535 158.934 72.7075 158.915 72.4404V65.7324C158.915 65.709 158.924 65.6865 158.94 65.6699C158.957 65.6532 158.98 65.6435 159.004 65.6435H160.453C160.477 65.6435 160.5 65.6532 160.517 65.6699C160.533 65.6865 160.542 65.709 160.542 65.7324L160.559 72.5048L160.56 72.5058L160.589 80.3271C160.589 80.3604 160.575 80.3924 160.552 80.416C160.528 80.4396 160.495 80.453 160.462 80.4531H159.01C158.975 80.4531 158.942 80.4395 158.917 80.415C158.892 80.3904 158.878 80.3564 158.877 80.3212C158.823 77.8441 158.158 75.5273 156.881 73.371V73.372C153.334 67.774 146.84 65.6823 140.465 66.0576C136.599 66.2868 133.251 67.5786 130.422 69.9316L128.9 69.0634C129.296 68.6987 129.819 68.3007 130.468 67.8691ZM37.3779 65.0146C40.8023 64.2507 44.1754 64.268 47.4961 65.0664C50.9204 65.8915 54.0429 67.48 56.8642 69.831L53.6728 69.5097C51.4353 68.0601 49.062 67.072 46.5537 66.5449C40.9013 65.355 35.5048 66.3544 30.3652 69.5439L28.1582 69.2294C31.0008 67.1591 34.0744 65.7537 37.3779 65.0146Z" fill="white"/>
<defs>
<linearGradient id="paint0_linear_1269_11534" x1="90.5" y1="0" x2="90.5" y2="181" gradientUnits="userSpaceOnUse">
<stop stop-color="#058BFF"/>
<stop offset="1" stop-color="#8EECFF"/>
</linearGradient>
</defs>
</svg>
