<svg width="181" height="181" viewBox="0 0 181 181" fill="none" xmlns="http://www.w3.org/2000/svg">
<rect width="181" height="181" fill="#174982"/>
<path fill-rule="evenodd" clip-rule="evenodd" d="M90.0088 21C51.8967 21 21 52.1206 21 90.5C21 128.879 51.8967 160 90 160C128.103 160 159 128.879 159 90.5C159 52.1206 128.112 21 90.0088 21ZM46.5226 48.8018C53.597 57.72 63.3585 58.4299 72.794 56.034C89.5331 52.0141 94.8984 55.6258 100.07 66.5495C103.25 74.252 104.589 82.5934 103.955 90.9171C100.466 75.3701 88.7225 73.2226 83.3573 72.9741C77.992 72.7257 65.3408 74.0834 56.1343 66.9044C50.5576 62.4941 47.0776 55.9275 46.5226 48.8107V48.8018ZM85.9122 130.663C84.8902 137.7 81.0226 143.992 75.2256 148.047C79.3399 137.407 75.0494 128.56 68.2217 121.532C56.4074 108.895 56.8039 102.48 63.5788 92.4966C68.5917 85.8501 75.0847 80.4992 82.5467 76.8786C70.9528 87.7225 75.023 99.0455 77.525 103.846C80.0359 108.647 87.4627 119.038 85.9033 130.707V130.654L85.9122 130.663ZM126.385 93.8188C121.187 110.324 115.373 113.128 103.4 111.966C95.2067 110.759 87.4187 107.618 80.6702 102.79C95.7265 107.848 103.603 98.7704 106.536 94.227C109.47 89.6836 114.871 78.1032 125.76 73.8083C132.367 71.3059 139.706 71.6874 146.032 74.8465C134.843 76.364 129.222 84.4214 126.385 93.8277V93.8188Z" fill="white"/>
</svg>
