<svg width="181" height="181" viewBox="0 0 181 181" fill="none" xmlns="http://www.w3.org/2000/svg">
<rect width="181" height="181" fill="#DEEDF4"/>
<path d="M108.548 103.327C108.548 103.338 108.544 103.349 108.538 103.358C108.532 103.367 108.523 103.374 108.513 103.378C108.503 103.382 108.491 103.383 108.481 103.38C108.47 103.378 108.46 103.372 108.453 103.364C105.205 99.9108 101.226 97.9149 96.5155 97.3766C91.7229 96.8286 87.2986 97.743 83.2427 100.12C83.214 100.136 83.1807 100.143 83.1477 100.139C83.1148 100.135 83.0841 100.12 83.0604 100.097C69.7682 87.1983 59.401 71.4177 50.4373 55.2808C47.948 50.7985 45.9959 45.9617 44.3374 41.0716C44.3342 41.0617 44.3339 41.0511 44.3365 41.041C44.3391 41.031 44.3445 41.0218 44.3521 41.0147C44.3598 41.0076 44.3692 41.0028 44.3795 41.0009C44.3897 40.999 44.4003 41.0001 44.41 41.0039C46.0394 41.647 48.0771 42.4771 49.955 43.0089C50.4131 43.139 59.2273 45.7538 76.3974 50.8533C76.4352 50.8643 76.4697 50.8843 76.4981 50.9115C76.5265 50.9387 76.5478 50.9724 76.5603 51.0097C77.4993 53.7206 78.5522 56.5799 79.7192 59.5874C80.0849 60.5308 80.464 61.3754 80.8566 62.1211C83.0142 66.2203 85.3965 70.542 88.0036 75.086C90.0633 78.6781 92.2246 82.0654 94.4876 85.2481C98.5128 90.9118 103.246 96.1178 108.414 101.059C108.456 101.1 108.49 101.148 108.513 101.202C108.536 101.256 108.548 101.315 108.548 101.374V103.327Z" fill="#1A81C4"/>
<path d="M88.1262 41.3035L138.468 73.0211C138.475 73.0255 138.48 73.0322 138.482 73.0397C138.483 73.0473 138.482 73.055 138.478 73.0614C136.977 75.5242 135.389 78.0417 133.714 80.6141C132.591 82.3403 131.536 84.1132 130.597 85.9538C129.231 88.6272 128.347 91.4133 127.945 94.3123C127.243 99.3571 128.04 104.175 130.57 108.536C130.598 108.585 130.617 108.639 130.624 108.695C130.631 108.751 130.627 108.808 130.612 108.862L129.101 114.361C129.097 114.376 129.09 114.389 129.08 114.401C129.07 114.412 129.057 114.421 129.043 114.427C129.028 114.432 129.013 114.435 128.998 114.433C128.982 114.432 128.968 114.427 128.955 114.419C128.601 114.198 128.101 113.871 127.456 113.441C127.306 113.341 127.199 113.177 127.133 112.951C126.547 110.932 125.234 106.484 123.193 99.6086C122.972 98.8639 122.549 98.36 121.925 98.0967C121.56 97.942 120.89 97.8663 119.915 97.8695C115.295 97.8835 112.261 97.8867 110.814 97.8792C110.554 97.8781 110.261 97.8953 109.935 97.9307C109.902 97.9342 109.868 97.9297 109.837 97.9176C109.806 97.9056 109.779 97.8863 109.758 97.8614C101.255 88.1168 95.2345 76.4364 91.7288 63.9486C90.6253 60.0148 89.7325 55.9811 89.0506 51.8475C88.4763 48.3661 88.3214 44.4238 88.0826 41.3292C88.0825 41.3241 88.0838 41.319 88.0863 41.3145C88.0888 41.31 88.0924 41.3062 88.0969 41.3036C88.1013 41.301 88.1064 41.2996 88.1115 41.2996C88.1167 41.2995 88.1217 41.3009 88.1262 41.3035Z" fill="#235BA6"/>
<path d="M23.5723 71.2903C23.5673 71.2826 23.5646 71.2736 23.5646 71.2644C23.5645 71.2552 23.5671 71.2462 23.572 71.2384C23.5769 71.2306 23.584 71.2244 23.5923 71.2204C23.6006 71.2165 23.6099 71.215 23.6191 71.2162C25.5841 71.4805 27.1781 71.6707 29.2109 71.8432C34.8785 72.3283 44.1357 72.8908 51.6167 73.4839C51.6531 73.4865 51.6883 73.4978 51.7192 73.5169C51.7501 73.536 51.7759 73.5623 51.7942 73.5935C52.4782 74.7271 53.1553 75.7941 53.8254 76.7945C58.9213 84.3966 64.7223 91.3932 71.2283 97.7843C71.2343 97.7904 71.2384 97.7981 71.2401 97.8065C71.2418 97.8149 71.2409 97.8236 71.2376 97.8316C71.2343 97.8395 71.2288 97.8462 71.2217 97.851C71.2146 97.8558 71.2062 97.8584 71.1977 97.8585C70.1178 97.8552 68.4813 97.8568 66.2883 97.8633C65.6215 97.8644 65.0799 98.112 64.6637 98.6063C64.4884 98.8137 64.3098 99.2644 64.1281 99.9586C63.9549 100.618 63.8253 101.09 63.7393 101.374C62.9659 103.911 61.971 107.119 60.7546 110.999C60.751 111.01 60.7447 111.021 60.7361 111.029C60.7276 111.038 60.7171 111.044 60.7056 111.047C60.6941 111.05 60.682 111.051 60.6702 111.048C60.6585 111.046 60.6476 111.041 60.6384 111.033L55.7242 106.954C55.6033 106.853 55.5146 106.718 55.4693 106.567C54.5196 103.41 53.9071 101.322 53.6318 100.303C53.4005 99.4428 53.1623 98.883 52.9171 98.624C52.4621 98.1448 51.9173 97.902 51.2828 97.8955C49.3242 97.8751 47.5398 97.8773 45.9297 97.902C45.8874 97.903 45.8453 97.8956 45.8059 97.8801C45.7665 97.8646 45.7307 97.8413 45.7007 97.8117C37.3452 89.7481 29.7949 81.006 23.5723 71.2903Z" fill="#FAD00A"/>
<path d="M128.305 122.636C128.309 122.649 128.317 122.659 128.328 122.667C128.338 122.675 128.351 122.679 128.364 122.679C128.378 122.679 128.39 122.675 128.401 122.667C128.412 122.659 128.42 122.649 128.424 122.636C130.597 115.227 132.569 107.758 134.674 100.239C134.919 99.3608 135.424 99.4704 136.276 99.472C142.121 99.4806 145.29 99.4811 145.783 99.4736C146.038 99.4704 146.169 99.5827 146.175 99.8105C146.192 100.405 146.201 100.765 146.203 100.892C146.37 116.24 146.492 127.361 146.569 134.255C146.572 134.489 146.554 134.715 146.514 134.932C146.502 135.002 146.47 135.067 146.424 135.12C146.377 135.173 146.317 135.212 146.25 135.234C146.156 135.263 146.001 135.278 145.785 135.279C141.756 135.3 139.477 135.294 138.948 135.261C138.632 135.242 138.475 135.068 138.478 134.74C138.531 129.602 138.529 121.462 138.472 110.321C138.469 109.787 138.467 109.245 138.467 108.696C138.467 108.686 138.463 108.677 138.456 108.67C138.45 108.663 138.441 108.659 138.432 108.658C138.422 108.656 138.412 108.659 138.404 108.664C138.396 108.669 138.391 108.677 138.388 108.686C136.065 117.395 133.828 125.823 131.678 133.968C131.497 134.655 131.242 135.142 130.415 135.147C129.066 135.152 127.978 135.153 127.149 135.151C125.964 135.148 125.46 135.167 125.139 133.992C123.4 127.605 121.559 120.96 119.617 114.058C119.01 111.902 118.476 110.126 118.013 108.73C118.001 108.693 117.991 108.672 117.983 108.665C117.974 108.659 117.964 108.655 117.953 108.654C117.942 108.653 117.931 108.656 117.922 108.661C117.912 108.666 117.905 108.674 117.899 108.683C117.894 108.692 117.892 108.703 117.892 108.714C118.002 110.78 118.071 112.968 118.1 115.277C118.211 124.206 118.292 130.659 118.344 134.636C118.349 135.046 118.138 135.252 117.71 135.253C114.072 135.256 111.706 135.257 110.611 135.256C110.305 135.255 110.153 135.095 110.155 134.777C110.168 131.665 110.154 128.948 110.114 126.627C110.115 126.618 110.112 126.61 110.107 126.603C110.101 126.596 110.094 126.592 110.086 126.59C110.077 126.588 110.068 126.589 110.061 126.593C110.053 126.596 110.047 126.603 110.043 126.611C109.477 127.76 108.749 128.807 107.861 129.752C106.025 131.702 103.764 133.332 101.22 134.486C96.6592 136.555 91.1497 136.428 86.6308 134.628C83.5655 133.406 81.0643 131.491 79.1272 128.882C78.2076 127.642 77.6548 126.809 77.4687 126.383C77.4257 126.285 77.401 126.18 77.3945 126.071C77.3937 126.058 77.3883 126.047 77.3793 126.039C77.3703 126.03 77.3584 126.026 77.3461 126.026C77.3128 126.026 77.288 126.036 77.2719 126.058C77.2662 126.065 77.2629 126.074 77.2623 126.084C77.2617 126.093 77.264 126.103 77.2687 126.111L77.4203 126.356C77.4309 126.373 77.4365 126.392 77.4365 126.411C77.4946 128.253 77.4574 129.692 77.4494 131.291C77.4408 132.806 77.4316 133.929 77.422 134.66C77.4166 135.068 77.1999 135.274 76.7718 135.277C74.355 135.296 71.935 135.295 69.5118 135.274C69.4196 135.273 69.3293 135.248 69.2496 135.202C69.1699 135.156 69.1035 135.09 69.0569 135.011C68.9579 134.842 68.9117 134.63 68.9181 134.374C69.2591 120.952 69.4322 114.008 69.4376 113.544C69.4484 112.56 69.4199 111.069 69.3521 109.072C69.3489 108.979 69.33 108.884 69.2956 108.785C69.2923 108.776 69.2865 108.769 69.2789 108.764C69.2713 108.759 69.2624 108.757 69.2533 108.757C69.2443 108.757 69.2356 108.761 69.2284 108.766C69.2212 108.772 69.216 108.779 69.2134 108.788L61.5065 134.889C61.4939 134.931 61.4718 134.969 61.4418 135.001C61.4119 135.033 61.3749 135.057 61.3339 135.072C61.1704 135.134 60.966 135.162 60.7208 135.156C58.8816 135.122 57.164 135.116 55.5678 135.138C55.3613 135.142 55.2253 135.02 55.1597 134.774C54.2175 131.227 52.6434 125.237 50.4375 116.805C49.6034 113.618 48.8919 111.296 47.9917 108.72C47.9882 108.712 47.9819 108.705 47.974 108.701C47.966 108.696 47.9568 108.695 47.9478 108.696C47.9389 108.698 47.9307 108.702 47.9246 108.709C47.9185 108.715 47.9148 108.724 47.9142 108.733C47.8303 117.293 47.783 125.907 47.7723 134.578C47.7723 134.738 47.7411 134.913 47.6787 135.103C47.671 135.128 47.6565 135.15 47.6369 135.167C47.6172 135.184 47.5932 135.195 47.5674 135.2C47.2447 135.261 47.0715 135.292 47.0479 135.292C43.2748 135.264 40.9355 135.251 40.0299 135.254C39.8471 135.256 39.7029 135.246 39.5975 135.225C39.5265 135.212 39.4625 135.174 39.4169 135.117C39.3714 135.061 39.3474 134.99 39.3491 134.918L40.0751 99.7927C40.0764 99.7159 40.1079 99.6427 40.1629 99.589C40.2178 99.5353 40.2918 99.5054 40.3687 99.5058C42.5822 99.5155 45.9922 99.5053 50.5988 99.4752C51.2167 99.472 51.712 99.4655 51.9024 100.118C54.6687 109.635 56.858 117.092 58.4702 122.489C58.5025 122.596 58.5251 122.662 58.538 122.688C58.5416 122.695 58.5474 122.701 58.5546 122.706C58.5618 122.71 58.57 122.712 58.5783 122.711C58.5866 122.711 58.5946 122.708 58.6012 122.703C58.6078 122.698 58.6127 122.691 58.6154 122.683C59.4468 120.362 60.304 117.795 61.1871 114.983C63.1768 108.653 64.5767 104.134 65.3865 101.429C65.5769 100.795 65.7253 100.234 65.8318 99.746C65.8487 99.6688 65.8916 99.5997 65.9532 99.5502C66.0148 99.5006 66.0915 99.4736 66.1706 99.4736C69.8049 99.4672 73.3929 99.4677 76.9347 99.4752C77.4946 99.4768 77.4332 99.8636 77.4284 100.342C77.3961 103.041 77.3999 105.663 77.4397 108.206C77.4395 108.217 77.443 108.228 77.4496 108.237C77.4563 108.246 77.4658 108.253 77.4767 108.256C77.4876 108.259 77.4993 108.258 77.5101 108.254C77.5209 108.25 77.5302 108.243 77.5365 108.233C81.0681 102.691 86.0807 99.2157 92.8244 98.8627C98.0435 98.5887 102.883 100.141 106.655 103.801C107.939 105.046 109.069 106.439 110.048 107.977C110.056 107.989 110.066 107.998 110.079 108.002C110.092 108.007 110.106 108.008 110.119 108.004C110.132 108 110.144 107.992 110.152 107.981C110.16 107.97 110.164 107.957 110.164 107.943V99.7234C110.164 99.6602 110.19 99.5995 110.234 99.5548C110.279 99.51 110.34 99.4849 110.403 99.4849C114.352 99.4741 117.822 99.4752 120.816 99.4881C121.577 99.4929 121.642 99.9861 121.851 100.692C124.061 108.157 126.212 115.471 128.305 122.636ZM102.004 122.045L101.97 122.019C101.966 122.016 101.962 122.014 101.959 122.014C98.8313 122.047 95.6966 122.055 92.555 122.038C92.1242 122.035 91.837 122.101 91.8193 121.603C91.8042 121.206 91.7854 119.097 91.7628 115.275C91.7617 114.937 91.9311 114.766 92.271 114.764C96.8131 114.746 102.728 114.74 110.016 114.745C110.05 114.745 110.082 114.732 110.106 114.708C110.13 114.685 110.143 114.653 110.143 114.619V111.381C110.143 111.365 110.137 111.349 110.125 111.337C110.113 111.325 110.097 111.318 110.081 111.318C106.596 111.339 104.152 111.346 102.748 111.341C102.219 111.339 101.52 111.359 101.289 111.009C100.176 109.336 98.8679 108.022 97.0432 107.279C94.6119 106.29 91.8064 106.54 89.4751 107.755C88.5233 108.251 87.6391 108.962 86.8228 109.887C84.676 112.321 83.8634 115.346 84.3851 118.963C84.7368 121.403 85.6526 123.402 87.1326 124.96C87.7671 125.629 88.391 126.154 89.004 126.537C91.4724 128.073 94.5071 128.198 97.2739 127.252C98.4248 126.859 99.3874 126.25 100.162 125.426C101.02 124.513 101.641 123.408 102.025 122.111C102.029 122.099 102.029 122.086 102.025 122.074C102.022 122.062 102.014 122.052 102.004 122.045Z" fill="#235BA6"/>
<path d="M158.398 137.619C158.407 137.619 158.415 137.622 158.422 137.628C158.429 137.633 158.434 137.641 158.435 137.65C158.436 137.659 158.435 137.668 158.43 137.676C158.425 137.683 158.418 137.689 158.409 137.691C156.349 138.438 154.261 138.961 151.911 139.235C138.794 140.761 125.819 140.003 112.986 136.961C112.974 136.958 112.964 136.951 112.957 136.941C112.95 136.931 112.947 136.919 112.949 136.907C112.95 136.895 112.956 136.884 112.965 136.876C112.974 136.868 112.985 136.863 112.997 136.863C115.169 136.871 116.378 136.878 116.624 136.884C117.631 136.904 118.294 136.846 118.615 136.71C120.236 136.018 119.926 134.421 119.943 132.935C119.943 132.927 119.945 132.92 119.949 132.914C119.952 132.907 119.958 132.901 119.964 132.897C119.97 132.893 119.977 132.891 119.985 132.89C119.993 132.889 120 132.89 120.007 132.893L123.447 134.276C123.484 134.291 123.516 134.314 123.542 134.344C123.568 134.374 123.586 134.41 123.595 134.448C123.825 135.439 124.367 136.126 125.22 136.508C125.591 136.675 126.167 136.758 126.948 136.757C128.926 136.753 130.246 136.748 130.91 136.74C130.958 136.74 131.006 136.732 131.052 136.716L131.399 136.599C131.468 136.574 131.543 136.57 131.613 136.586C134.457 137.188 137.325 137.648 140.217 137.964C141.963 138.155 143.59 138.254 145.098 138.262C149.401 138.286 153.622 138.077 157.762 137.635C157.959 137.613 158.171 137.608 158.398 137.619Z" fill="#FAD00A"/>
</svg>
