<svg width="181" height="181" viewBox="0 0 181 181" fill="none" xmlns="http://www.w3.org/2000/svg">
<rect width="181" height="181" fill="#003976"/>
<path d="M148.039 74.7943L148.315 64.4263C155.097 59.9224 153.862 59.0032 153.862 59.0032C153.807 58.8929 153.107 57.7716 146.952 62.5512L137 59.5364L136.115 60.1798L142.823 65.5292L139.561 67.8639L136.318 67.7168L134.917 68.7279L137.59 69.6471C137.59 69.6471 136.576 70.7133 136.926 71.1912C137.276 71.6508 138.603 71.0442 138.603 71.0442L138.64 73.8568L140.041 72.8457L140.925 69.739L144.187 67.4043L147.154 75.4561L148.039 74.8127V74.7943Z" fill="white"/>
<path d="M75.7234 83.8757L68.2412 121.726C68.1306 122.278 67.6515 122.664 67.0986 122.664H57.1101C56.3729 122.664 55.8201 122.002 55.9675 121.267L58.3264 109.189C58.566 107.976 56.9995 107.277 56.2439 108.252L48.2826 118.583C48.0614 118.877 47.7113 119.043 47.3611 119.043H42.717C42.2563 119.043 41.8324 118.767 41.6481 118.344L37.2252 108.031C36.7644 106.983 35.2348 107.13 34.9953 108.27L32.3046 121.726C32.194 122.278 31.7149 122.664 31.162 122.664H21.1735C20.4363 122.664 19.8834 121.984 20.0309 121.267L27.6236 83.4161C27.7342 82.8646 28.2134 82.4786 28.7662 82.4786H38.0729C38.5521 82.4786 38.9759 82.7727 39.1602 83.1955L46.8451 101.965C47.1768 102.792 48.301 102.957 48.8539 102.24L64.1315 82.9014C64.3527 82.6257 64.6844 82.4602 65.053 82.4602H74.6361C75.3733 82.4602 75.9261 83.1404 75.7787 83.8573L75.7234 83.8757Z" fill="white"/>
<path d="M139.598 93.637L139.138 96.0268C138.99 96.7437 139.543 97.4055 140.28 97.4055H154.489C155.226 97.4055 155.779 98.0673 155.632 98.7842L154.139 106.229C154.028 106.763 153.549 107.167 152.996 107.167H137.811C137.258 107.167 136.779 107.553 136.668 108.104L136.078 111.064C135.931 111.781 136.484 112.443 137.221 112.443H153.494C154.231 112.443 154.784 113.123 154.636 113.84L154.139 121.745C154.028 122.278 153.549 122.682 152.996 122.682H121.87C121.132 122.682 120.58 122.02 120.727 121.304L128.32 83.4344C128.43 82.9013 128.91 82.4968 129.462 82.4968H159.833C160.571 82.4968 161.123 83.177 160.976 83.8939L158.267 91.7987C158.156 92.3318 157.677 92.7362 157.124 92.7362H140.741C140.188 92.7362 139.709 93.1223 139.598 93.6737V93.637Z" fill="white"/>
<path d="M88.384 120.109C89.4529 117.314 90.3375 114.778 91.5907 112.627C96.6771 103.913 104.178 96.7438 111.844 90.0891C115.954 86.5228 128.909 76.5224 133.425 73.0112C133.627 72.8641 133.48 72.5884 133.277 72.5884C133.24 72.5884 133.203 72.5884 133.167 72.6068C123.289 77.129 114.056 82.5704 104.989 88.4346C96.7508 93.7657 88.513 99.1152 80.6991 105.016C80.607 105.09 80.5332 105.145 80.4411 105.218C79.2985 106.082 78.1743 106.91 77.861 108.325C76.9212 112.572 76.055 116.855 75.1335 121.12C75.1335 121.965 75.8523 122.646 76.7369 122.646H86.0435C86.8544 122.646 87.5916 122.149 87.868 121.414C88.0339 120.991 88.1813 120.568 88.3472 120.145C88.3472 120.127 88.3656 120.09 88.384 120.072V120.109Z" fill="#46B0E4"/>
<path d="M94.1893 111.634L100.695 122.039C100.934 122.443 101.377 122.682 101.837 122.682H114.259C115.125 122.682 115.659 121.745 115.217 120.991L103.68 101.762C103.367 101.248 102.667 101.119 102.187 101.487C100.732 102.663 97.6539 105.457 94.2077 110.421C93.9497 110.788 93.9497 111.266 94.1893 111.634Z" fill="white"/>
<path d="M94.1339 93.5451L96.0874 83.8756C96.2348 83.1586 95.682 82.4968 94.9448 82.4968H83.9611C83.4082 82.4968 82.9291 82.8829 82.8185 83.416L79.0774 102.112C78.8747 103.141 80.0357 103.895 80.8835 103.27C84.1823 100.88 90.1348 96.6334 93.6364 94.262C93.8944 94.0966 94.0602 93.8392 94.1155 93.5267L94.1339 93.5451Z" fill="white"/>
</svg>
