<svg width="181" height="181" viewBox="0 0 181 181" fill="none" xmlns="http://www.w3.org/2000/svg">
<rect width="181" height="181" fill="#221F40"/>
<path d="M103.666 97.5451C99.7919 94.5765 94.4474 92.112 90.9381 91.8876C98.6903 89.2091 104.25 84.0914 107.196 81.3199C109.902 78.5978 112.442 75.714 114.803 72.6841H100.165C97.6957 77.1115 94.55 81.1217 90.843 84.568C88.6634 86.6524 86.1806 88.3908 83.4802 89.7235H83.4304C83.4304 83.3507 83.4304 77.8942 83.6704 72.686H72.4147C72.5098 78.233 72.6055 83.1556 72.6055 90.9408C72.6055 98.726 72.5104 103.497 72.4147 109.196H83.6704C83.4795 104.62 83.4304 99.9947 83.4304 94.7385H83.7163C88.3609 96.3642 96.5245 104.074 99.2906 109.196H115.391C115.391 109.196 112.105 104.103 103.67 97.547" fill="#6196C6"/>
<path d="M147.973 94.0839L147.961 94.5677C147.862 98.2431 145.036 100.459 136.89 100.455C128.057 100.451 124.082 97.3763 124.082 90.1152C124.082 82.8542 127.755 80.5444 136.44 80.3961C144.291 80.3961 147.805 81.8917 147.962 86.4008L147.979 86.657H158.983C159.021 86.0262 158.983 85.3916 158.983 84.794C158.978 75.5729 151.155 70.9806 136.634 70.9722C121.425 70.9637 112.596 77.0614 112.604 90.3662C112.608 104.022 120.658 110.176 136.9 110.185C153.187 110.193 158.995 104.1 158.991 95.1764V94.0924L147.979 94.0885L147.973 94.0839Z" fill="#6196C6"/>
<path d="M45.2011 101.077C36.5626 101.077 32.7758 97.1453 32.7629 90.6399C32.7713 87.3091 33.7739 84.6572 35.8996 82.8475L35.8957 82.8436C35.9395 82.8089 35.9851 82.7766 36.0322 82.7467C38.0621 81.0898 41.0701 80.1729 45.2049 80.1729C53.8686 80.1729 58.2227 84.1344 58.235 90.6425C58.2182 97.1453 53.868 101.08 45.2049 101.08M44.9604 70.9805C29.1584 70.9805 22.2278 78.4236 22.2019 90.6522C22.2278 102.881 29.1539 110.269 44.9565 110.269C60.8051 110.269 68.7617 102.881 68.7921 90.6522C68.763 78.4236 60.8044 70.9805 44.9565 70.9805" fill="#6196C6"/>
</svg>
