<svg width="181" height="181" viewBox="0 0 181 181" fill="none" xmlns="http://www.w3.org/2000/svg">
<rect width="181" height="181" fill="#165394"/>
<path d="M100.208 72.3308L104.387 71.2138C104.409 71.2077 104.432 71.2091 104.453 71.2176C104.474 71.2262 104.491 71.2414 104.503 71.261C104.514 71.2806 104.518 71.3033 104.515 71.3257C104.512 71.3481 104.502 71.3688 104.486 71.3846L101.432 74.4499C101.422 74.4594 101.415 74.4706 101.409 74.483C101.404 74.4954 101.402 74.5087 101.402 74.5222C101.402 74.5356 101.404 74.5489 101.409 74.5613C101.415 74.5737 101.422 74.585 101.432 74.5945L104.486 77.6598C104.502 77.6756 104.512 77.6963 104.515 77.7187C104.518 77.741 104.514 77.7638 104.503 77.7834C104.491 77.8029 104.474 77.8182 104.453 77.8267C104.432 77.8353 104.409 77.8366 104.387 77.8306L100.208 76.7136C100.195 76.7101 100.182 76.7092 100.168 76.711C100.155 76.7127 100.142 76.7171 100.131 76.7238C100.119 76.7305 100.109 76.7394 100.101 76.7501C100.093 76.7607 100.087 76.7729 100.083 76.7858L98.9613 80.9682C98.9556 80.99 98.9429 81.0093 98.9251 81.0231C98.9073 81.0369 98.8854 81.0444 98.8629 81.0444C98.8404 81.0444 98.8185 81.0369 98.8007 81.0231C98.7829 81.0093 98.7701 80.99 98.7645 80.9682L97.6425 76.7858C97.6391 76.7729 97.6331 76.7607 97.625 76.7501C97.6169 76.7394 97.6067 76.7305 97.5952 76.7238C97.5836 76.7171 97.5708 76.7127 97.5575 76.711C97.5442 76.7092 97.5308 76.7101 97.5178 76.7136L93.3384 77.8306C93.3166 77.8366 93.2935 77.8353 93.2727 77.8267C93.2518 77.8182 93.2344 77.8029 93.2231 77.7834C93.2118 77.7638 93.2074 77.741 93.2104 77.7187C93.2135 77.6963 93.2239 77.6756 93.24 77.6598L96.2942 74.5945C96.3037 74.585 96.3113 74.5737 96.3164 74.5613C96.3216 74.5489 96.3242 74.5356 96.3242 74.5222C96.3242 74.5087 96.3216 74.4954 96.3164 74.483C96.3113 74.4706 96.3037 74.4594 96.2942 74.4499L93.24 71.3846C93.2239 71.3688 93.2135 71.3481 93.2104 71.3257C93.2074 71.3033 93.2118 71.2806 93.2231 71.261C93.2344 71.2414 93.2518 71.2262 93.2727 71.2176C93.2935 71.2091 93.3166 71.2077 93.3384 71.2138L97.5178 72.3308C97.5308 72.3343 97.5442 72.3352 97.5575 72.3334C97.5708 72.3317 97.5836 72.3273 97.5952 72.3206C97.6067 72.3139 97.6169 72.3049 97.625 72.2943C97.6331 72.2836 97.6391 72.2715 97.6425 72.2585L98.7645 68.0762C98.7701 68.0544 98.7829 68.0351 98.8007 68.0213C98.8185 68.0075 98.8404 68 98.8629 68C98.8854 68 98.9073 68.0075 98.9251 68.0213C98.9429 68.0351 98.9556 68.0544 98.9613 68.0762L100.083 72.2585C100.087 72.2715 100.093 72.2836 100.101 72.2943C100.109 72.3049 100.119 72.3139 100.131 72.3206C100.142 72.3273 100.155 72.3317 100.168 72.3334C100.182 72.3352 100.195 72.3343 100.208 72.3308Z" fill="#E51937"/>
<path d="M84.5824 72.324L88.7324 71.2299C88.7535 71.225 88.7756 71.227 88.7955 71.2355C88.8154 71.2441 88.8321 71.2588 88.843 71.2775C88.854 71.2962 88.8588 71.3179 88.8565 71.3395C88.8543 71.3611 88.8453 71.3814 88.8308 71.3975L85.8093 74.4496C85.7998 74.4591 85.7923 74.4704 85.7871 74.4828C85.782 74.4952 85.7793 74.5085 85.7793 74.5219C85.7793 74.5354 85.782 74.5487 85.7871 74.5611C85.7923 74.5735 85.7998 74.5847 85.8093 74.5942L88.8308 77.6464C88.8453 77.6624 88.8543 77.6828 88.8565 77.7043C88.8588 77.7259 88.854 77.7476 88.843 77.7663C88.8321 77.785 88.8154 77.7997 88.7955 77.8083C88.7756 77.8169 88.7535 77.8188 88.7324 77.8139L84.5824 76.7199C84.5567 76.7127 84.5293 76.716 84.506 76.7289C84.4827 76.7418 84.4654 76.7633 84.4577 76.7889L83.3325 80.9383C83.3268 80.9602 83.3141 80.9795 83.2963 80.9933C83.2785 81.0071 83.2566 81.0145 83.2341 81.0145C83.2116 81.0145 83.1897 81.0071 83.1719 80.9933C83.1541 80.9795 83.1413 80.9602 83.1357 80.9383L82.0104 76.7889C82.0028 76.7633 81.9855 76.7418 81.9622 76.7289C81.9389 76.716 81.9114 76.7127 81.8858 76.7199L77.7358 77.8139C77.7147 77.8188 77.6926 77.8169 77.6727 77.8083C77.6528 77.7997 77.6361 77.785 77.6251 77.7663C77.6141 77.7476 77.6094 77.7259 77.6116 77.7043C77.6138 77.6828 77.6229 77.6624 77.6374 77.6464L80.6588 74.5942C80.6683 74.5847 80.6759 74.5735 80.6811 74.5611C80.6862 74.5487 80.6889 74.5354 80.6889 74.5219C80.6889 74.5085 80.6862 74.4952 80.6811 74.4828C80.6759 74.4704 80.6683 74.4591 80.6588 74.4496L77.6374 71.3975C77.6229 71.3814 77.6138 71.3611 77.6116 71.3395C77.6094 71.3179 77.6141 71.2962 77.6251 71.2775C77.6361 71.2588 77.6528 71.2441 77.6727 71.2355C77.6926 71.227 77.7147 71.225 77.7358 71.2299L81.8858 72.324C81.9114 72.3311 81.9389 72.3279 81.9622 72.315C81.9855 72.3021 82.0028 72.2805 82.0104 72.255L83.1357 68.1055C83.1413 68.0837 83.1541 68.0644 83.1719 68.0506C83.1897 68.0368 83.2116 68.0293 83.2341 68.0293C83.2566 68.0293 83.2785 68.0368 83.2963 68.0506C83.3141 68.0644 83.3268 68.0837 83.3325 68.1055L84.4577 72.255C84.4654 72.2805 84.4827 72.3021 84.506 72.315C84.5293 72.3279 84.5567 72.3311 84.5824 72.324Z" fill="#E51937"/>
<path d="M68.9537 72.3243L73.0839 71.2401C73.105 71.2352 73.1272 71.2371 73.1471 71.2457C73.167 71.2543 73.1836 71.2689 73.1946 71.2876C73.2056 71.3064 73.2103 71.3281 73.2081 71.3497C73.2059 71.3712 73.1969 71.3916 73.1824 71.4076L70.1806 74.4499C70.1711 74.4594 70.1635 74.4707 70.1584 74.4831C70.1532 74.4955 70.1506 74.5088 70.1506 74.5222C70.1506 74.5357 70.1532 74.549 70.1584 74.5614C70.1635 74.5738 70.1711 74.585 70.1806 74.5945L73.1824 77.6368C73.1969 77.6529 73.2059 77.6732 73.2081 77.6948C73.2103 77.7164 73.2056 77.7381 73.1946 77.7568C73.1836 77.7755 73.167 77.7902 73.1471 77.7988C73.1272 77.8073 73.105 77.8093 73.0839 77.8044L68.9537 76.7202C68.9408 76.7167 68.9273 76.7158 68.914 76.7176C68.9007 76.7193 68.8879 76.7237 68.8764 76.7304C68.8648 76.7371 68.8546 76.746 68.8465 76.7567C68.8384 76.7673 68.8324 76.7795 68.829 76.7925L67.7005 80.9189C67.6948 80.9408 67.6821 80.9601 67.6643 80.9739C67.6465 80.9876 67.6246 80.9951 67.6021 80.9951C67.5796 80.9951 67.5577 80.9876 67.5399 80.9739C67.5221 80.9601 67.5093 80.9408 67.5037 80.9189L66.3751 76.7925C66.3717 76.7795 66.3658 76.7673 66.3576 76.7567C66.3495 76.746 66.3394 76.7371 66.3278 76.7304C66.3162 76.7237 66.3034 76.7193 66.2901 76.7176C66.2769 76.7158 66.2634 76.7167 66.2505 76.7202L62.1202 77.8044C62.0991 77.8093 62.077 77.8073 62.0571 77.7988C62.0372 77.7902 62.0205 77.7755 62.0095 77.7568C61.9985 77.7381 61.9938 77.7164 61.996 77.6948C61.9982 77.6732 62.0072 77.6529 62.0218 77.6368L65.0235 74.5945C65.033 74.585 65.0406 74.5738 65.0458 74.5614C65.0509 74.549 65.0536 74.5357 65.0536 74.5222C65.0536 74.5088 65.0509 74.4955 65.0458 74.4831C65.0406 74.4707 65.033 74.4594 65.0235 74.4499L62.0218 71.4076C62.0072 71.3916 61.9982 71.3712 61.996 71.3497C61.9938 71.3281 61.9985 71.3064 62.0095 71.2876C62.0205 71.2689 62.0372 71.2543 62.0571 71.2457C62.077 71.2371 62.0991 71.2352 62.1202 71.2401L66.2505 72.3243C66.2634 72.3277 66.2769 72.3286 66.2901 72.3269C66.3034 72.3251 66.3162 72.3208 66.3278 72.314C66.3394 72.3073 66.3495 72.2984 66.3576 72.2877C66.3658 72.2771 66.3717 72.2649 66.3751 72.252L67.5037 68.1255C67.5093 68.1037 67.5221 68.0844 67.5399 68.0706C67.5577 68.0568 67.5796 68.0493 67.6021 68.0493C67.6246 68.0493 67.6465 68.0568 67.6643 68.0706C67.6821 68.0844 67.6948 68.1037 67.7005 68.1255L68.829 72.252C68.8324 72.2649 68.8384 72.2771 68.8465 72.2877C68.8546 72.2984 68.8648 72.3073 68.8764 72.314C68.8879 72.3208 68.9007 72.3251 68.914 72.3269C68.9273 72.3286 68.9408 72.3277 68.9537 72.3243Z" fill="#E51937"/>
<path d="M115.761 72.3241L119.911 71.2301C119.933 71.224 119.956 71.2254 119.977 71.2339C119.998 71.2425 120.015 71.2577 120.026 71.2773C120.038 71.2969 120.042 71.3196 120.039 71.342C120.036 71.3644 120.026 71.3851 120.01 71.4009L116.988 74.4498C116.979 74.4592 116.971 74.4705 116.966 74.4829C116.961 74.4953 116.958 74.5086 116.958 74.522C116.958 74.5355 116.961 74.5488 116.966 74.5612C116.971 74.5736 116.979 74.5849 116.988 74.5943L120.01 77.6432C120.026 77.659 120.036 77.6797 120.039 77.7021C120.042 77.7245 120.038 77.7472 120.026 77.7668C120.015 77.7864 119.998 77.8016 119.977 77.8102C119.956 77.8187 119.933 77.8201 119.911 77.814L115.761 76.72C115.736 76.7129 115.708 76.7161 115.685 76.729C115.662 76.7419 115.644 76.7634 115.637 76.789L114.511 80.9352C114.506 80.957 114.493 80.9763 114.475 80.9901C114.457 81.0039 114.435 81.0114 114.413 81.0114C114.39 81.0114 114.369 81.0039 114.351 80.9901C114.333 80.9763 114.32 80.957 114.315 80.9352L113.189 76.789C113.182 76.7634 113.164 76.7419 113.141 76.729C113.118 76.7161 113.09 76.7129 113.065 76.72L108.915 77.814C108.893 77.8201 108.87 77.8187 108.849 77.8102C108.828 77.8016 108.811 77.7864 108.799 77.7668C108.788 77.7472 108.784 77.7245 108.787 77.7021C108.79 77.6797 108.8 77.659 108.816 77.6432L111.838 74.5943C111.847 74.5849 111.855 74.5736 111.86 74.5612C111.865 74.5488 111.868 74.5355 111.868 74.522C111.868 74.5086 111.865 74.4953 111.86 74.4829C111.855 74.4705 111.847 74.4592 111.838 74.4498L108.816 71.4009C108.8 71.3851 108.79 71.3644 108.787 71.342C108.784 71.3196 108.788 71.2969 108.799 71.2773C108.811 71.2577 108.828 71.2425 108.849 71.2339C108.87 71.2254 108.893 71.224 108.915 71.2301L113.065 72.3241C113.09 72.3312 113.118 72.328 113.141 72.3151C113.164 72.3022 113.182 72.2807 113.189 72.2551L114.315 68.1089C114.32 68.0871 114.333 68.0678 114.351 68.054C114.369 68.0402 114.39 68.0327 114.413 68.0327C114.435 68.0327 114.457 68.0402 114.475 68.054C114.493 68.0678 114.506 68.0871 114.511 68.1089L115.637 72.2551C115.644 72.2807 115.662 72.3022 115.685 72.3151C115.708 72.328 115.736 72.3312 115.761 72.3241Z" fill="#E51937"/>
<path d="M36.1052 115.117C27.0212 115.33 20.9685 108.473 22.1462 99.3991C23.0681 92.2763 28.4318 87.8476 35.5967 87.6767C44.6806 87.4632 50.7333 94.3231 49.5556 103.394C48.6305 110.517 43.2667 114.946 36.1052 115.117ZM26.8932 101.416C26.89 106.689 30.3871 110.921 35.846 110.924C41.3049 110.928 44.8086 106.703 44.8118 101.426C44.8151 96.1498 41.318 91.9182 35.8591 91.9149C30.4002 91.9116 26.8965 96.14 26.8932 101.416Z" fill="white"/>
<path d="M56.973 98.1178H53.2331C53.2171 98.1178 53.2012 98.1141 53.1869 98.107C53.1725 98.1 53.1599 98.0897 53.1501 98.077C53.1402 98.0643 53.1334 98.0496 53.1302 98.0339C53.127 98.0181 53.1274 98.0019 53.1314 97.9863L55.6542 88.4553C55.66 88.4328 55.6731 88.4128 55.6915 88.3985C55.71 88.3842 55.7326 88.3765 55.7559 88.3765H60.0338C60.0505 88.3762 60.0671 88.3799 60.0822 88.3873C60.0972 88.3947 60.1102 88.4057 60.1202 88.4192C60.1302 88.4327 60.1367 88.4484 60.1394 88.465C60.142 88.4815 60.1407 88.4985 60.1355 88.5145L57.0714 98.0455C57.0645 98.0663 57.0514 98.0845 57.0337 98.0974C57.0161 98.1104 56.9948 98.1175 56.973 98.1178Z" fill="white"/>
<path d="M75.7281 98.7655C78.8775 98.7655 80.8655 98.7666 81.6922 98.7687C81.7095 98.7688 81.7265 98.7654 81.7424 98.759C81.7584 98.7526 81.7728 98.7431 81.785 98.7312C81.7972 98.7193 81.8069 98.7052 81.8135 98.6897C81.8201 98.6741 81.8234 98.6574 81.8234 98.6406V88.5675C81.8234 88.517 81.8431 88.4685 81.8782 88.4328C81.9133 88.397 81.9608 88.377 82.0104 88.377H86.2686C86.32 88.377 86.3692 88.3974 86.4055 88.4337C86.4418 88.4701 86.4622 88.5194 86.4622 88.5708V114.302C86.4622 114.351 86.4428 114.398 86.4084 114.432C86.3739 114.467 86.3272 114.486 86.2785 114.486H82.0072C81.9584 114.486 81.9117 114.467 81.8772 114.432C81.8428 114.398 81.8234 114.351 81.8234 114.302V103.204C81.8234 103.148 81.8014 103.094 81.7622 103.054C81.7229 103.014 81.6695 102.991 81.6135 102.991C81.4954 102.988 79.5336 102.987 75.7281 102.987C71.9204 102.989 69.9575 102.992 69.8394 102.994C69.784 102.995 69.7311 103.017 69.6919 103.056C69.6527 103.096 69.6303 103.149 69.6295 103.204L69.6328 114.302C69.6328 114.351 69.6134 114.398 69.579 114.432C69.5445 114.467 69.4978 114.486 69.449 114.486H65.1777C65.129 114.486 65.0823 114.467 65.0478 114.432C65.0134 114.398 64.994 114.351 64.994 114.302L64.9907 88.5708C64.9907 88.5194 65.0111 88.4701 65.0474 88.4337C65.0837 88.3974 65.1329 88.377 65.1843 88.377H69.4425C69.4921 88.377 69.5396 88.397 69.5747 88.4328C69.6098 88.4685 69.6295 88.517 69.6295 88.5675V98.6406C69.629 98.658 69.6322 98.6753 69.6388 98.6914C69.6454 98.7076 69.6552 98.7222 69.6678 98.7345C69.6804 98.7468 69.6954 98.7565 69.712 98.7629C69.7285 98.7694 69.7462 98.7725 69.764 98.772C70.5885 98.7677 72.5765 98.7655 75.7281 98.7655Z" fill="white"/>
<path d="M100.775 88.377H104.66C104.682 88.3772 104.703 88.3839 104.721 88.3962C104.739 88.4084 104.753 88.4257 104.761 88.4459L115.896 114.332C115.903 114.349 115.905 114.368 115.904 114.386C115.902 114.404 115.895 114.422 115.885 114.437C115.874 114.453 115.86 114.465 115.844 114.474C115.828 114.482 115.809 114.487 115.791 114.486H110.785C110.763 114.486 110.741 114.479 110.723 114.467C110.705 114.455 110.691 114.437 110.683 114.417L108.176 108.592C108.168 108.572 108.154 108.555 108.136 108.542C108.118 108.53 108.097 108.523 108.075 108.523H96.9995C96.9771 108.523 96.9551 108.529 96.9364 108.541C96.9177 108.554 96.9031 108.571 96.8945 108.592L94.5981 114.417C94.5895 114.438 94.5749 114.456 94.5562 114.468C94.5375 114.48 94.5155 114.487 94.4931 114.486H89.5329C89.5142 114.486 89.4959 114.482 89.4795 114.473C89.4631 114.464 89.4492 114.451 89.4391 114.435C89.429 114.419 89.423 114.401 89.4216 114.383C89.4202 114.364 89.4235 114.346 89.4312 114.329L100.674 88.4427C100.683 88.4231 100.697 88.4064 100.715 88.3948C100.733 88.3831 100.754 88.3769 100.775 88.377ZM98.5774 104.351C98.5712 104.368 98.5691 104.386 98.5714 104.404C98.5736 104.422 98.5801 104.44 98.5904 104.455C98.6006 104.47 98.6143 104.482 98.6304 104.491C98.6464 104.5 98.6642 104.505 98.6824 104.505L106.425 104.531C106.443 104.531 106.461 104.527 106.478 104.519C106.494 104.51 106.508 104.498 106.519 104.482C106.53 104.467 106.536 104.45 106.539 104.431C106.541 104.413 106.539 104.394 106.533 104.377L102.698 94.2119C102.689 94.1905 102.675 94.1722 102.656 94.1593C102.637 94.1464 102.614 94.1396 102.591 94.1396C102.568 94.1396 102.546 94.1464 102.527 94.1593C102.508 94.1722 102.493 94.1905 102.485 94.2119L98.5774 104.351Z" fill="white"/>
<path d="M138.302 114.486H133.089C133.038 114.486 132.987 114.472 132.943 114.446C132.898 114.419 132.862 114.381 132.837 114.335L126.978 103.595C126.949 103.543 126.907 103.5 126.856 103.47C126.805 103.44 126.748 103.424 126.689 103.424H123.7C123.647 103.424 123.596 103.445 123.559 103.482C123.521 103.519 123.5 103.569 123.5 103.621V114.296C123.5 114.346 123.48 114.395 123.445 114.43C123.41 114.466 123.363 114.486 123.313 114.486H119.048C118.998 114.486 118.95 114.466 118.914 114.43C118.878 114.395 118.858 114.346 118.858 114.296V88.4853C118.858 88.4583 118.869 88.4324 118.888 88.4133C118.907 88.3942 118.933 88.3834 118.96 88.3834C121.431 88.3725 124.622 88.3736 128.533 88.3867C133.388 88.4032 137.705 90.427 137.64 95.9991C137.6 99.636 135.478 102.314 131.774 102.918C131.756 102.921 131.739 102.929 131.725 102.94C131.711 102.951 131.7 102.966 131.692 102.982C131.685 102.999 131.681 103.017 131.683 103.035C131.684 103.053 131.689 103.07 131.698 103.086L138.417 114.289C138.429 114.309 138.435 114.332 138.435 114.355C138.435 114.378 138.428 114.401 138.417 114.421C138.405 114.441 138.388 114.458 138.368 114.469C138.348 114.48 138.325 114.486 138.302 114.486ZM123.507 92.4475L123.494 99.3272C123.494 99.3367 123.496 99.3461 123.499 99.3548C123.503 99.3636 123.508 99.3716 123.515 99.3783C123.521 99.385 123.529 99.3903 123.538 99.394C123.547 99.3976 123.556 99.3995 123.566 99.3995L128.759 99.406C129.283 99.4071 129.803 99.3276 130.288 99.1721C130.773 99.0166 131.213 98.7882 131.585 98.4999C131.956 98.2115 132.251 97.869 132.452 97.4918C132.653 97.1145 132.757 96.71 132.758 96.3013V95.4997C132.759 94.6747 132.34 93.8829 131.593 93.2982C130.845 92.7135 129.831 92.3839 128.772 92.3818L123.579 92.3752C123.56 92.3752 123.541 92.3828 123.528 92.3964C123.514 92.41 123.507 92.4283 123.507 92.4475Z" fill="white"/>
<path d="M142.055 114.361V88.5018C142.055 88.4687 142.068 88.4369 142.092 88.4135C142.115 88.3901 142.147 88.377 142.18 88.377H159.872C159.905 88.377 159.937 88.3901 159.96 88.4135C159.984 88.4369 159.997 88.4687 159.997 88.5018V92.464C159.997 92.4971 159.984 92.5289 159.96 92.5523C159.937 92.5757 159.905 92.5889 159.872 92.5889H146.825C146.792 92.5889 146.76 92.602 146.737 92.6254C146.714 92.6488 146.7 92.6806 146.7 92.7137V98.8772C146.7 98.9103 146.714 98.942 146.737 98.9654C146.76 98.9889 146.792 99.002 146.825 99.002H158.54C158.573 99.002 158.605 99.0152 158.628 99.0386C158.652 99.062 158.665 99.0937 158.665 99.1269V103.083C158.665 103.116 158.652 103.147 158.628 103.171C158.605 103.194 158.573 103.207 158.54 103.207H146.828C146.795 103.207 146.764 103.221 146.74 103.244C146.717 103.267 146.704 103.299 146.704 103.332V110.149C146.704 110.183 146.717 110.214 146.74 110.238C146.764 110.261 146.795 110.274 146.828 110.274H159.875C159.892 110.274 159.908 110.278 159.923 110.284C159.938 110.29 159.952 110.299 159.964 110.311C159.975 110.322 159.984 110.336 159.991 110.351C159.997 110.367 160 110.383 160 110.399V114.361C160 114.394 159.987 114.426 159.964 114.45C159.94 114.473 159.908 114.486 159.875 114.486H142.18C142.147 114.486 142.115 114.473 142.092 114.45C142.068 114.426 142.055 114.394 142.055 114.361Z" fill="white"/>
</svg>
