<svg width="181" height="181" viewBox="0 0 181 181" fill="none" xmlns="http://www.w3.org/2000/svg">
<rect width="181" height="181" fill="#1D2849"/>
<path d="M132.502 148.494C131.733 146.969 130.698 145.607 129.397 144.411C140.147 136.312 147.718 126.329 152.108 114.462C164.583 80.7518 147.925 43.4923 114.608 30.5769C97.5546 23.9651 78.8492 24.8695 62.5051 32.8928C50.7719 38.6528 41.4181 47.5074 34.4437 59.4567L29.9055 57.1272C38.8276 41.0835 53.6345 29.1722 71.1719 23.9308C86.1767 19.4462 102.243 20.1239 116.819 25.8561C129.532 30.8586 140.515 39.4734 148.423 50.6455C156.382 61.8818 160.883 75.2178 161.368 89.0012C161.719 98.8979 159.987 108.76 156.284 117.943C151.356 130.159 143.117 140.743 132.502 148.494Z" fill="#066284"/>
<path d="M129.396 144.412C112.24 156.67 91.126 160.02 71.1923 153.662C50.5693 147.077 34 129.612 28.4518 108.907C23.8705 91.8048 25.8677 75.322 34.4435 59.4581C41.4179 47.5088 50.7718 38.6541 62.505 32.8941C78.8491 24.8708 97.5544 23.9664 114.608 30.5783C147.924 43.4937 164.582 80.7531 152.108 114.463C147.717 126.33 140.147 136.313 129.396 144.412ZM82.4318 31.8801C63.7197 34.607 47.6553 46.2206 38.5449 62.651C38.5214 62.6921 38.5092 62.7386 38.5095 62.7861C38.5098 62.8335 38.5226 62.8802 38.5467 62.9216C38.5708 62.963 38.6052 62.9977 38.6468 63.0223C38.6883 63.0469 38.7355 63.0606 38.7838 63.0621C52.9601 63.1351 61.8021 63.1306 65.3097 63.0484C71.0603 62.9113 75.4461 63.2356 78.4669 64.0213C90.1091 67.0634 99.3765 76.046 102.475 87.7486C103.166 90.3706 103.507 94.6049 103.498 100.452C103.462 127.068 103.455 143.633 103.478 150.147C103.478 150.19 103.487 150.232 103.506 150.271C103.525 150.31 103.552 150.344 103.586 150.371C103.62 150.398 103.66 150.417 103.703 150.427C103.745 150.437 103.79 150.437 103.833 150.428C132.802 143.809 152.456 118.143 151.186 88.2831C151.181 88.1777 151.136 88.0783 151.059 88.0056C150.983 87.9329 150.882 87.8924 150.777 87.8925H108.193C108.124 87.8923 108.057 87.8694 108.001 87.8274C107.946 87.7854 107.906 87.7265 107.886 87.6596L106.583 82.9799C106.578 82.9607 106.577 82.9407 106.581 82.9212C106.584 82.9017 106.592 82.8834 106.604 82.8675C106.616 82.8516 106.631 82.8387 106.649 82.8297C106.667 82.8207 106.686 82.8158 106.706 82.8154H149.876C149.956 82.8153 150.035 82.798 150.108 82.7645C150.181 82.7311 150.246 82.6824 150.297 82.6218C150.349 82.5611 150.387 82.4901 150.409 82.4135C150.43 82.3369 150.435 82.2566 150.422 82.1782L149.815 78.5468C149.783 78.3611 149.686 78.1927 149.543 78.0711C149.399 77.9496 149.218 77.8827 149.03 77.8822H104.406C104.362 77.8823 104.319 77.871 104.279 77.8495C104.24 77.828 104.206 77.7969 104.181 77.7589L101.103 73.2162C101.093 73.201 101.088 73.1836 101.087 73.1656C101.087 73.1476 101.091 73.1297 101.099 73.1138C101.107 73.0978 101.119 73.0843 101.135 73.0747C101.15 73.065 101.167 73.0595 101.185 73.0587H148.266C148.279 73.0583 148.291 73.0549 148.303 73.0487C148.314 73.0425 148.324 73.0337 148.331 73.023C148.338 73.0123 148.343 73.0001 148.345 72.9872C148.346 72.9743 148.345 72.9613 148.341 72.949L146.587 68.1666C146.579 68.1428 146.564 68.1222 146.544 68.1075C146.525 68.0928 146.501 68.0847 146.478 68.0843H97.2542C97.1256 68.0845 97.0012 68.0437 96.8993 67.9679L90.4913 63.4663C90.4569 63.4404 90.4315 63.4043 90.4187 63.3632C90.4059 63.322 90.4063 63.2778 90.4199 63.2369C90.4335 63.1959 90.4596 63.1603 90.4944 63.1351C90.5293 63.1099 90.5712 63.0963 90.6142 63.0963L107.067 63.0826L143.468 63.1511C143.543 63.1515 143.616 63.1321 143.68 63.095C143.745 63.0579 143.799 63.0043 143.836 62.9396C143.874 62.875 143.893 62.8016 143.893 62.7269C143.893 62.6521 143.874 62.5787 143.837 62.5139C131.232 40.4926 107.764 28.1528 82.4318 31.8801ZM34.1842 72.6681C34.1774 72.6839 34.1746 72.7011 34.1761 72.7183C34.1776 72.7354 34.1833 72.7519 34.1928 72.7662C34.2024 72.7806 34.2153 72.7923 34.2305 72.8003C34.2457 72.8082 34.2626 72.8123 34.2798 72.812C55.8035 72.844 67.3411 72.8485 68.8925 72.8257C74.4406 72.7435 79.0538 73.5725 83.0528 76.2036C90.2411 80.9312 93.8466 87.6824 93.8693 96.4571C93.933 116.176 93.9421 134.488 93.8966 151.394C93.8966 151.406 93.8993 151.419 93.9044 151.431C93.9096 151.442 93.9171 151.453 93.9266 151.462C93.9361 151.471 93.9474 151.478 93.9598 151.482C93.9722 151.487 93.9855 151.49 93.999 151.49H98.23C98.2614 151.49 98.2925 151.484 98.3214 151.472C98.3504 151.459 98.3767 151.442 98.3989 151.42C98.4211 151.397 98.4387 151.371 98.4507 151.342C98.4627 151.313 98.4689 151.281 98.4689 151.25C98.4461 123.112 98.4507 105.465 98.4825 98.3071C98.5007 94.0134 98.1914 90.7474 97.5544 88.5092C95.1386 79.9857 88.8467 72.7435 80.4119 69.8041C77.2727 68.7078 74.6704 68.1529 72.6049 68.1392C63.6969 68.0752 51.4906 68.0821 35.9858 68.1597C35.9356 68.1619 35.8874 68.1788 35.8473 68.2081C35.8071 68.2374 35.777 68.2778 35.7606 68.3241L34.1842 72.6681ZM88.4645 151.373C88.4736 132.029 88.4872 113.735 88.5054 96.4914C88.51 93.9152 88.3098 91.9761 87.9049 90.6743C86.2261 85.2683 82.1657 81.0203 76.9451 79.0333C75.0844 78.3207 71.5835 77.9713 66.4426 77.985C57.3481 78.0079 46.1677 78.0193 32.9013 78.0193C32.851 78.0196 32.8025 78.0369 32.7639 78.0681C32.7254 78.0993 32.6992 78.1425 32.6897 78.1906L31.8298 82.6921C31.8268 82.7119 31.8279 82.732 31.8331 82.7512C31.8382 82.7704 31.8473 82.7881 31.8597 82.8031C31.872 82.8181 31.8873 82.8301 31.9046 82.8381C31.9218 82.8462 31.9406 82.8501 31.9595 82.8497H72.5503C72.9718 82.8497 73.3889 82.9003 73.7923 83.0004C78.2781 84.1104 81.3582 86.7163 83.0324 90.8182C83.7194 92.5128 84.0424 95.2992 84.0014 99.1772C83.9241 106.244 83.9127 123.601 83.9673 151.25C83.9673 151.281 83.9735 151.313 83.9855 151.342C83.9975 151.371 84.0151 151.397 84.0373 151.42C84.0594 151.442 84.0858 151.459 84.1147 151.472C84.1437 151.484 84.1748 151.49 84.2062 151.49H88.3417C88.3742 151.49 88.4055 151.478 88.4285 151.456C88.4516 151.434 88.4645 151.404 88.4645 151.373ZM78.931 150.058C78.9264 137.556 78.9264 120.584 78.931 99.143C78.931 94.6209 79.0197 91.983 75.8464 89.4068C74.4725 88.2876 72.7118 87.7715 70.5644 87.8583C70.5462 87.8583 57.5687 87.8674 31.6319 87.8857C31.5329 87.8856 31.4377 87.9242 31.3664 87.9932C31.2951 88.0622 31.2533 88.1563 31.2498 88.2557C30.1033 118.3 49.259 143.412 78.4396 150.441C78.4984 150.455 78.5594 150.455 78.6181 150.442C78.6768 150.429 78.7318 150.403 78.7789 150.366C78.8261 150.329 78.8642 150.283 78.8905 150.229C78.9169 150.176 78.9307 150.117 78.931 150.058Z" fill="white"/>
<path d="M107.068 63.0821C99.3108 52.3158 91.099 41.915 82.4321 31.8795C107.764 28.1522 131.233 40.4921 143.837 62.5134C143.874 62.5781 143.894 62.6516 143.894 62.7263C143.894 62.8011 143.874 62.8745 143.836 62.9391C143.799 63.0037 143.745 63.0573 143.681 63.0945C143.616 63.1316 143.543 63.151 143.468 63.1506L107.068 63.0821Z" fill="#066284"/>
<path d="M82.4322 31.877C91.099 41.9124 99.3109 52.3132 107.068 63.0795L90.6145 63.0932C90.5716 63.0932 90.5297 63.1068 90.4948 63.132C90.46 63.1572 90.4339 63.1928 90.4203 63.2337C90.4067 63.2747 90.4063 63.3188 90.4191 63.36C90.4319 63.4012 90.4573 63.4373 90.4917 63.4632L96.8997 67.9647C97.0015 68.0406 97.126 68.0814 97.2545 68.0812H146.478C146.502 68.0816 146.525 68.0897 146.544 68.1044C146.564 68.1191 146.579 68.1397 146.587 68.1634L148.341 72.9459C148.345 72.9581 148.347 72.9712 148.345 72.9841C148.343 72.9969 148.339 73.0092 148.331 73.0199C148.324 73.0306 148.314 73.0394 148.303 73.0456C148.292 73.0518 148.279 73.0552 148.266 73.0555H101.185C101.167 73.0563 101.15 73.0619 101.135 73.0715C101.12 73.0812 101.107 73.0947 101.099 73.1107C101.091 73.1266 101.087 73.1445 101.088 73.1625C101.088 73.1804 101.094 73.1979 101.103 73.2131L104.181 77.7558C104.207 77.7938 104.241 77.8249 104.28 77.8464C104.319 77.8679 104.363 77.8791 104.406 77.8791H149.03C149.218 77.8796 149.4 77.9464 149.543 78.068C149.687 78.1895 149.783 78.358 149.815 78.5437L150.422 82.1751C150.435 82.2535 150.431 82.3338 150.409 82.4104C150.388 82.487 150.35 82.558 150.298 82.6186C150.246 82.6792 150.181 82.728 150.109 82.7614C150.036 82.7948 149.957 82.8122 149.876 82.8123H106.706C106.686 82.8127 106.667 82.8175 106.649 82.8265C106.632 82.8356 106.617 82.8485 106.605 82.8644C106.593 82.8802 106.585 82.8986 106.581 82.9181C106.577 82.9376 106.578 82.9576 106.583 82.9767L107.887 87.6564C107.906 87.7234 107.946 87.7823 108.002 87.8243C108.057 87.8663 108.124 87.8892 108.194 87.8894H150.777C150.882 87.8893 150.984 87.9298 151.06 88.0025C151.136 88.0752 151.182 88.1745 151.187 88.2799C152.456 118.14 132.802 143.806 103.833 150.425C103.79 150.434 103.746 150.434 103.703 150.424C103.661 150.414 103.621 150.395 103.587 150.368C103.553 150.341 103.525 150.307 103.507 150.268C103.488 150.229 103.478 150.187 103.478 150.144C103.456 143.63 103.462 127.065 103.499 100.449C103.508 94.6018 103.167 90.3674 102.475 87.7455C99.3769 76.0429 90.1095 67.0603 78.4673 64.0182C75.4464 63.2325 71.0607 62.9082 65.3101 63.0452C61.8024 63.1274 52.9604 63.132 38.7842 63.0589C38.7359 63.0575 38.6887 63.0438 38.6472 63.0192C38.6056 62.9945 38.5711 62.9598 38.5471 62.9184C38.523 62.877 38.5102 62.8303 38.5099 62.7829C38.5096 62.7355 38.5218 62.689 38.5453 62.6478C47.6557 46.2175 63.72 34.6039 82.4322 31.877Z" fill="#015277"/>
<path d="M34.4437 59.4546C25.8679 75.3185 23.8706 91.8013 28.452 108.903C34.0001 129.609 50.5695 147.074 71.1924 153.658C91.1261 160.017 112.24 156.666 129.397 144.409C130.698 145.605 131.733 146.966 132.502 148.492C124.802 154.111 116.047 158.102 106.767 160.222C94.0058 163.133 80.6864 162.405 68.3126 158.119C55.255 153.597 43.8155 145.308 35.4264 134.289C26.9563 123.158 21.9792 109.746 21.1296 95.7616C20.3142 82.3043 23.36 68.8953 29.9056 57.125L34.4437 59.4546Z" fill="#1C2B56"/>
<path d="M34.1845 72.666L35.7609 68.3221C35.7772 68.2757 35.8074 68.2353 35.8475 68.206C35.8876 68.1767 35.9359 68.1599 35.9861 68.1576C51.4908 68.08 63.6972 68.0731 72.6051 68.1371C74.6706 68.1508 77.2729 68.7058 80.4121 69.802C88.8469 72.7414 95.1389 79.9836 97.5547 88.5071C98.1916 90.7453 98.501 94.0113 98.4828 98.305C98.4509 105.463 98.4464 123.11 98.4691 151.248C98.4691 151.279 98.4629 151.311 98.4509 151.34C98.4389 151.369 98.4213 151.395 98.3992 151.417C98.377 151.44 98.3506 151.457 98.3217 151.469C98.2927 151.482 98.2616 151.488 98.2303 151.488H93.9992C93.9858 151.488 93.9725 151.485 93.96 151.48C93.9476 151.476 93.9363 151.469 93.9268 151.46C93.9173 151.451 93.9098 151.44 93.9047 151.428C93.8995 151.417 93.8969 151.404 93.8969 151.392C93.9424 134.486 93.9333 116.174 93.8696 96.455C93.8468 87.6803 90.2413 80.9291 83.0531 76.2015C79.0541 73.5704 74.4408 72.7414 68.8927 72.8236C67.3413 72.8465 55.8038 72.8419 34.28 72.8099C34.2629 72.8102 34.2459 72.8062 34.2307 72.7982C34.2156 72.7902 34.2026 72.7785 34.1931 72.7642C34.1836 72.7498 34.1778 72.7333 34.1763 72.7162C34.1748 72.6991 34.1776 72.6818 34.1845 72.666Z" fill="#094162"/>
<path d="M88.4647 151.373C88.4647 151.404 88.4517 151.434 88.4287 151.455C88.4057 151.477 88.3744 151.49 88.3418 151.49H84.2063C84.175 151.49 84.1439 151.483 84.1149 151.471C84.0859 151.459 84.0596 151.442 84.0374 151.419C84.0153 151.397 83.9977 151.371 83.9857 151.341C83.9737 151.312 83.9675 151.281 83.9675 151.25C83.9129 123.601 83.9243 106.243 84.0016 99.177C84.0426 95.2989 83.7195 92.5126 83.0326 90.8179C81.3583 86.7161 78.2783 84.1102 73.7925 83.0002C73.3891 82.9001 72.972 82.8494 72.5505 82.8495H31.9597C31.9408 82.8499 31.922 82.8459 31.9048 82.8379C31.8875 82.8298 31.8722 82.8179 31.8598 82.8029C31.8475 82.7879 31.8384 82.7701 31.8333 82.751C31.8281 82.7318 31.827 82.7116 31.83 82.6919L32.6899 78.1903C32.6993 78.1423 32.7255 78.099 32.7641 78.0678C32.8026 78.0366 32.8512 78.0194 32.9014 78.019C46.1678 78.019 57.3483 78.0076 66.4427 77.9848C71.5837 77.9711 75.0845 78.3205 76.9453 79.0331C82.1659 81.0201 86.2263 85.2681 87.9051 90.6741C88.31 91.9759 88.5102 93.9149 88.5056 96.4911C88.4874 113.735 88.4738 132.028 88.4647 151.373Z" fill="#094162"/>
<path d="M78.4397 150.442C49.2591 143.412 30.1034 118.301 31.2498 88.2564C31.2534 88.157 31.2952 88.0629 31.3665 87.9939C31.4378 87.9249 31.533 87.8863 31.632 87.8864C57.5688 87.8681 70.5463 87.859 70.5645 87.859C72.7119 87.7722 74.4725 88.2884 75.8465 89.4075C79.0198 91.9837 78.931 94.6216 78.931 99.1437C78.9265 120.585 78.9265 137.556 78.931 150.059C78.9307 150.118 78.9169 150.177 78.8906 150.23C78.8643 150.283 78.8261 150.33 78.779 150.367C78.7318 150.404 78.6769 150.43 78.6181 150.443C78.5594 150.456 78.4984 150.456 78.4397 150.442Z" fill="#1C2B56"/>
</svg>
