<svg width="181" height="181" viewBox="0 0 181 181" fill="none" xmlns="http://www.w3.org/2000/svg">
<rect width="181" height="181" fill="#003DA6"/>
<path d="M90.4998 157.558C127.227 157.558 157 127.884 157 91.279C157 54.6741 127.227 25 90.4998 25C53.773 25 24 54.6741 24 91.279C24 127.884 53.773 157.558 90.4998 157.558Z" fill="white"/>
<path d="M152.478 91.2771C152.478 57.1565 124.722 29.5039 90.4998 29.5039C60.3367 29.5039 35.217 50.967 29.6632 79.4069L29.967 79.3463C29.967 79.3463 30.0156 79.3463 30.1007 79.3221C31.1701 79.0678 38.7656 77.2146 44.3193 74.4408C50.3106 71.4611 62.6457 63.1642 76.4026 59.1308C87.814 55.7877 97.4511 55.6667 106.845 57.108C121.429 59.3488 130.75 64.9811 137.762 71.231C147.496 79.9157 152.382 91.3376 152.382 91.3376C152.382 91.1681 152.382 90.9864 152.37 90.8168L152.478 91.4587C152.478 91.4587 152.478 91.3376 152.478 91.2771Z" fill="#DB0032"/>
<path d="M152.004 97.1523C152.004 97.1523 144.919 97.4793 138.466 101.089C137.677 101.525 134.894 103.112 131.637 105.534C130.142 106.636 128.526 108.041 127.152 109.107C125.427 110.452 124.017 111.796 121.744 113.577C119.472 115.345 116.665 117.441 112.606 119.754C107.708 122.201 103.102 123.521 99.5293 124.248C97.4511 124.635 95.5552 124.878 94.0848 125.023C93.0275 125.108 92.4199 125.108 92.4199 125.108C68.7706 126.21 51.0398 116.908 40.4183 109.047C38.3766 107.508 36.6874 106.103 35.2899 104.904C33.3576 103.245 31.9965 101.888 31.0729 100.883L28.9948 98.6543C32.6527 129.299 58.8054 153.051 90.5362 153.051C122.267 153.051 149.271 128.511 152.248 97.1523H152.041H152.004Z" fill="#003DA6"/>
<path d="M48.4027 76.8301C37.125 82.4502 30.5625 82.6683 30.5625 82.6683C30.5625 82.6683 37.3802 87.4163 44.9999 87.9856C50.8819 88.4216 60.7742 87.3558 61.3575 87.1014C61.9409 86.8471 57.7968 82.5835 54.8436 80.4517C51.7812 78.2473 48.4027 76.8301 48.4027 76.8301Z" fill="#EE7623"/>
<path d="M129.413 72.0921C129.328 72.0316 123.421 68.301 113.298 65.818C113.092 65.7574 112.897 65.6968 112.691 65.6362C110.637 65.067 108.644 64.7036 107.015 64.4613C107.003 64.4613 106.991 64.4613 106.979 64.4613C105.727 64.2796 104.706 64.1585 104.074 64.0737C97.2081 63.2622 88.2272 63.4197 82.4547 64.6067C80.7898 64.9458 79.3435 65.2729 77.8002 65.6726C71.9425 66.9807 65.7446 69.0156 59.2429 72.0195H59.2551C57.5537 72.722 55.8401 73.4488 54.1509 74.1634L66.2429 77.6396C69.196 78.3663 80.4251 82.1333 87.5588 83.5262C90.8886 84.1682 97.9615 84.9434 108.401 84.5437C113.869 84.3257 117.041 84.2166 122.984 84.471C127.614 84.6648 131.831 84.6406 135.465 85.6338C145.636 88.4196 150.741 92.8043 150.741 92.8043C150.741 92.8043 145.454 80.8493 129.413 72.08V72.0921Z" fill="#EE7623"/>
<path d="M59.2428 112.864C62.4269 114.269 64.2012 114.923 67.8105 115.953C76.2202 118.339 86.4406 118.739 91.2774 118.157C95.5065 117.648 104.439 116.243 111.208 112.731C114.416 111.059 119.958 107.619 124.88 104.531C129.777 101.466 131.795 100.255 134.055 99.1407C140.266 96.0884 144.117 95.5312 146.998 95.0225C148.08 94.8286 150.534 94.8529 150.534 94.8529C141.59 91.5463 129.692 91.9944 127.14 91.9581C127.14 91.9581 116.385 91.1828 100.173 94.8893C83.8886 98.6199 73.7532 103.949 69.7428 106.021C65.7324 108.08 59.2671 112.852 59.2671 112.852L59.2428 112.864Z" fill="#0082CA"/>
<path d="M66.8627 95.5781H30.1614C32.4826 97.7584 45.4982 106.443 51.4043 109.326C51.4043 109.326 54.88 107.787 59.8627 103.488C64.0796 99.8417 66.3158 96.4987 66.7776 95.772C66.8383 95.675 66.8627 95.6266 66.8627 95.6266V95.5781Z" fill="#0082CA"/>
</svg>
