<svg width="181" height="181" viewBox="0 0 181 181" fill="none" xmlns="http://www.w3.org/2000/svg">
<rect width="181" height="181" fill="white"/>
<g clip-path="url(#clip0_1411_61358)">
<path d="M151 25V155H29V25H151ZM59.8013 48.3778C59.8332 48.3778 59.8647 48.3841 59.8941 48.3964C59.9236 48.4086 59.9503 48.4266 59.9728 48.4492C59.9953 48.4719 60.0132 48.4987 60.0254 48.5283C60.0376 48.5579 60.0439 48.5896 60.0439 48.6216V69.8057C60.0439 69.8513 60.0528 69.8964 60.0701 69.9385C60.0875 69.9807 60.113 70.0189 60.145 70.0512C60.1771 70.0834 60.2152 70.109 60.2571 70.1264C60.299 70.1439 60.3439 70.1528 60.3893 70.1528H85.8549C85.9641 70.1528 86.0688 70.1093 86.146 70.0317C86.2231 69.9541 86.2665 69.8489 86.2665 69.7392C86.2763 59.6248 86.2763 48.8333 86.2665 37.3648C86.2592 33.4574 84.4145 32.1574 80.5046 32.1722C71.5432 32.2017 58.6573 32.1968 41.8467 32.1574C35.6806 32.1426 36.2686 36.2494 36.2759 41.5528C36.2906 46.9252 36.2955 56.3477 36.2906 69.8205C36.2906 69.9067 36.3247 69.9893 36.3853 70.0503C36.446 70.1112 36.5282 70.1455 36.614 70.1455H52.8488C52.9404 70.1455 53.0283 70.1089 53.093 70.0438C53.1578 69.9787 53.1942 69.8904 53.1942 69.7983V48.7989C53.1942 48.6872 53.2384 48.5801 53.3169 48.5012C53.3955 48.4222 53.502 48.3778 53.6131 48.3778H59.8013ZM118.677 48.1563C121.014 48.1563 122.247 48.1612 122.374 48.171C122.449 48.1793 122.518 48.2112 122.573 48.2618C122.627 48.3124 122.663 48.3791 122.675 48.4517L126.659 69.946C126.671 70.0141 126.707 70.0758 126.761 70.1203C126.814 70.1648 126.882 70.1894 126.953 70.1898H143.496C143.531 70.1898 143.565 70.1829 143.598 70.1695C143.63 70.1562 143.659 70.1366 143.683 70.1119C143.708 70.0872 143.727 70.0579 143.741 70.0256C143.754 69.9934 143.761 69.9588 143.761 69.9239C143.766 52.7481 143.768 42.0551 143.768 37.8449C143.768 33.3835 141.982 32.3273 137.507 32.2977C134.763 32.283 128.489 32.2731 118.685 32.2682C108.881 32.2633 102.607 32.2706 99.8629 32.2903C95.3871 32.3125 93.6012 33.3688 93.6012 37.8301C93.5963 42.0403 93.5914 52.7333 93.5865 69.9091C93.5865 69.9796 93.6144 70.0472 93.664 70.0971C93.7136 70.147 93.7809 70.175 93.8511 70.175L110.395 70.1824C110.465 70.182 110.533 70.1574 110.587 70.1129C110.64 70.0684 110.677 70.0067 110.689 69.9386L114.687 48.4517C114.699 48.3791 114.735 48.3124 114.79 48.2618C114.844 48.2111 114.914 48.1793 114.988 48.171C115.115 48.1612 116.345 48.1563 118.677 48.1563ZM118.677 70.1972C119.28 70.1972 119.841 70.1873 120.36 70.1676C120.391 70.1669 120.422 70.1595 120.45 70.1461C120.478 70.1328 120.503 70.1136 120.523 70.0899C120.543 70.0662 120.558 70.0385 120.567 70.0086C120.575 69.9787 120.578 69.9473 120.573 69.9165C119.594 61.8063 118.959 57.7511 118.67 57.7511C118.381 57.7511 117.754 61.8063 116.789 69.9165C116.784 69.9468 116.787 69.9775 116.795 70.0069C116.803 70.0363 116.817 70.0637 116.837 70.0873C116.856 70.1108 116.88 70.1302 116.907 70.144C116.934 70.1578 116.964 70.1659 116.994 70.1676C117.519 70.1873 118.08 70.1972 118.677 70.1972ZM60.3599 88.6261H68.9587C69.0717 88.6261 69.1801 88.6713 69.2601 88.7516C69.34 88.832 69.3849 88.9409 69.3849 89.0545V93.5159C69.3849 93.6452 69.3338 93.7692 69.2429 93.8606C69.1519 93.952 69.0285 94.0034 68.8999 94.0034H53.6866C53.6229 94.0034 53.5599 93.9908 53.501 93.9663C53.4422 93.9418 53.3887 93.9059 53.3436 93.8606C53.2986 93.8154 53.2629 93.7616 53.2385 93.7025C53.2141 93.6433 53.2016 93.5799 53.2016 93.5159V72.8858C53.2016 72.7604 53.1528 72.6402 53.066 72.5515C52.9791 72.4629 52.8614 72.4131 52.7386 72.4131H36.6654C36.6181 72.4131 36.5713 72.4224 36.5276 72.4406C36.4839 72.4588 36.4442 72.4855 36.4108 72.5191C36.3773 72.5527 36.3508 72.5926 36.3327 72.6365C36.3146 72.6804 36.3053 72.7275 36.3053 72.775C36.2563 90.2561 36.2735 101.281 36.3567 105.851C36.4302 109.64 39.2671 110.312 42.6258 110.305C54.5906 110.29 67.3345 110.285 80.8573 110.29C85.1641 110.298 86.3106 108.385 86.2812 104.012C86.2714 101.963 86.2665 91.5314 86.2665 72.7159C86.2665 72.6356 86.2348 72.5586 86.1782 72.5018C86.1217 72.445 86.0451 72.4131 85.9652 72.4131H60.3084C60.2363 72.4131 60.1671 72.4419 60.1162 72.4931C60.0652 72.5444 60.0365 72.6139 60.0365 72.6864V88.3011C60.0365 88.3873 60.0706 88.47 60.1312 88.5309C60.1919 88.5919 60.2741 88.6261 60.3599 88.6261ZM118.685 110.165C129.003 110.16 135.079 110.15 136.911 110.135C139.498 110.116 141.137 109.872 141.828 109.404C143.121 108.527 143.771 107.043 143.776 104.95C143.776 100.617 143.773 89.936 143.768 72.908C143.768 72.7767 143.716 72.6508 143.622 72.558C143.528 72.4652 143.401 72.4131 143.268 72.4131H127.386C127.344 72.4135 127.302 72.4232 127.263 72.4417C127.224 72.4601 127.19 72.4868 127.163 72.5198C127.136 72.5529 127.116 72.5915 127.105 72.633C127.094 72.6745 127.092 72.718 127.1 72.7602L130.973 93.6489C130.976 93.6711 130.975 93.6938 130.969 93.7154C130.963 93.7369 130.953 93.7568 130.939 93.7737C130.925 93.7906 130.907 93.804 130.888 93.8131C130.868 93.8221 130.847 93.8266 130.826 93.8261H124.373C124.335 93.8265 124.298 93.8126 124.268 93.7869C124.238 93.7612 124.218 93.7254 124.211 93.6858L122.764 85.8784C122.754 85.8261 122.727 85.7787 122.687 85.7439C122.647 85.709 122.596 85.6888 122.543 85.6864C122.117 85.6765 120.831 85.6716 118.685 85.6716C116.534 85.6716 115.245 85.6765 114.819 85.6864C114.766 85.6888 114.715 85.709 114.675 85.7439C114.635 85.7787 114.608 85.8261 114.598 85.8784L113.151 93.6858C113.144 93.7254 113.124 93.7612 113.094 93.7869C113.064 93.8126 113.027 93.8265 112.989 93.8261H106.536C106.515 93.8266 106.494 93.8221 106.474 93.8131C106.455 93.804 106.437 93.7906 106.423 93.7737C106.409 93.7568 106.399 93.7369 106.393 93.7154C106.387 93.6938 106.386 93.6711 106.389 93.6489L110.262 72.7602C110.27 72.718 110.268 72.6745 110.257 72.633C110.246 72.5915 110.226 72.5529 110.199 72.5198C110.172 72.4868 110.138 72.4601 110.099 72.4417C110.061 72.4232 110.018 72.4135 109.976 72.4131H94.0936C93.9611 72.4131 93.834 72.4652 93.7402 72.558C93.6465 72.6508 93.5939 72.7767 93.5939 72.908C93.589 89.936 93.5865 100.617 93.5865 104.95C93.5963 107.043 94.248 108.527 95.5414 109.404C96.2323 109.872 97.8688 110.118 100.451 110.143C102.288 110.157 108.366 110.165 118.685 110.165ZM121.874 80.4716C121.916 80.4712 121.957 80.4616 121.995 80.4436C122.033 80.4255 122.066 80.3994 122.093 80.367C122.119 80.3346 122.138 80.2968 122.149 80.2562C122.16 80.2156 122.161 80.1731 122.154 80.1318L120.772 72.6494C120.76 72.5836 120.726 72.5239 120.675 72.4808C120.624 72.4376 120.559 72.4137 120.493 72.4131H116.671C116.601 72.4125 116.533 72.4377 116.48 72.484C116.427 72.5303 116.393 72.5944 116.384 72.6642L115.326 80.1466C115.321 80.1874 115.324 80.2289 115.336 80.2682C115.348 80.3075 115.369 80.3438 115.396 80.3746C115.423 80.4054 115.456 80.43 115.494 80.4467C115.531 80.4635 115.572 80.4719 115.613 80.4716H121.874ZM67.114 126.873C67.0405 126.873 66.9743 126.858 66.9155 126.828C66.9017 126.82 66.8914 126.809 66.8861 126.799L61.646 117.869C61.5788 117.756 61.4845 117.662 61.3724 117.598C61.2603 117.533 61.1343 117.499 61.0066 117.499H59.0443C58.8865 117.499 58.735 117.562 58.6234 117.673C58.5118 117.783 58.449 117.934 58.449 118.09V132.693C58.449 132.821 58.4994 132.943 58.589 133.033C58.6785 133.123 58.8001 133.173 58.9267 133.173H61.3447C61.4055 133.173 61.4657 133.161 61.5219 133.138C61.5781 133.114 61.6291 133.08 61.6721 133.037C61.7151 132.994 61.7492 132.942 61.7725 132.886C61.7957 132.83 61.8077 132.769 61.8077 132.708V124.494C61.8041 124.456 61.8143 124.418 61.8362 124.386C61.8582 124.354 61.8906 124.332 61.9277 124.322C61.9648 124.312 62.0041 124.316 62.0387 124.333C62.0732 124.349 62.1008 124.378 62.1164 124.413C63.307 126.535 64.527 128.601 65.7764 130.61C66.1684 131.25 66.6142 131.57 67.114 131.57C67.6137 131.57 68.0596 131.25 68.4516 130.61C69.6961 128.601 70.9136 126.533 72.1042 124.406C72.1198 124.37 72.1474 124.342 72.1819 124.325C72.2165 124.309 72.2558 124.305 72.2929 124.315C72.33 124.324 72.3624 124.347 72.3844 124.379C72.4063 124.41 72.4165 124.449 72.4129 124.487L72.4202 132.701C72.4202 132.824 72.469 132.942 72.5559 133.03C72.6427 133.117 72.7605 133.166 72.8833 133.166H75.3012C75.4279 133.166 75.5494 133.115 75.639 133.025C75.7286 132.935 75.7789 132.813 75.7789 132.686L75.7642 118.083C75.7642 117.926 75.7015 117.776 75.5899 117.665C75.4782 117.554 75.3268 117.492 75.1689 117.492H73.2066C73.079 117.492 72.9529 117.526 72.8409 117.59C72.7288 117.655 72.6345 117.748 72.5672 117.861L67.3345 126.799C67.3317 126.809 67.324 126.819 67.3124 126.828C67.2487 126.858 67.1826 126.873 67.114 126.873ZM96.2168 125.217C96.2019 124.149 95.9673 123.095 95.5263 122.114C95.0853 121.134 94.4466 120.246 93.6466 119.502C92.8466 118.758 91.901 118.172 90.8637 117.778C89.8265 117.384 88.7179 117.189 87.6014 117.205C85.3464 117.236 83.1957 118.123 81.6223 119.671C80.049 121.218 79.1819 123.299 79.2119 125.456C79.2267 126.524 79.4613 127.578 79.9023 128.558C80.3433 129.539 80.9821 130.427 81.7821 131.171C82.5821 131.915 83.5277 132.5 84.565 132.895C85.6022 133.289 86.7107 133.484 87.8273 133.468C90.0823 133.436 92.233 132.549 93.8063 131.002C95.3797 129.455 96.2467 127.374 96.2168 125.217ZM112.497 124.997H110.953C110.709 124.997 110.476 125.095 110.304 125.269C110.131 125.444 110.034 125.68 110.034 125.927V129.325C110.035 129.454 109.994 129.581 109.917 129.684C109.84 129.788 109.732 129.864 109.608 129.901C107.251 130.586 105.395 130.327 104.037 129.126C99.2308 124.893 105.059 117.359 110.733 121.606C110.846 121.692 110.982 121.742 111.123 121.752C111.264 121.761 111.404 121.728 111.526 121.658L113.004 120.801C113.132 120.727 113.24 120.623 113.318 120.497C113.396 120.371 113.442 120.227 113.452 120.078C113.463 119.93 113.436 119.781 113.376 119.644C113.316 119.507 113.223 119.387 113.107 119.294C106.757 114.272 96.2249 119.139 99.1647 128.091C101.002 133.676 107.264 134.333 112.188 132.228C112.536 132.081 112.833 131.834 113.042 131.517C113.251 131.2 113.363 130.828 113.364 130.448V125.868C113.364 125.637 113.272 125.415 113.11 125.252C112.947 125.088 112.727 124.997 112.497 124.997ZM132.95 129.273L131.994 130.943C131.946 131.026 131.914 131.119 131.903 131.216C131.891 131.312 131.898 131.41 131.925 131.503C131.952 131.596 131.997 131.683 132.058 131.758C132.12 131.833 132.195 131.895 132.281 131.94C135.167 133.456 138.08 133.811 141.02 133.003C145.297 131.829 146.377 125.876 141.402 124.561C140.343 124.28 138.746 123.8 136.61 123.12C136.395 123.052 136.203 122.927 136.053 122.759C135.902 122.59 135.8 122.385 135.755 122.164C135.711 121.942 135.727 121.714 135.801 121.501C135.875 121.289 136.004 121.101 136.176 120.956C137.764 119.605 140.527 120.336 142.217 121.082C142.358 121.146 142.518 121.156 142.666 121.108C142.814 121.06 142.939 120.959 143.019 120.823L143.834 119.398C143.888 119.304 143.922 119.201 143.934 119.093C143.945 118.986 143.934 118.877 143.902 118.774C143.869 118.672 143.816 118.577 143.745 118.496C143.674 118.415 143.587 118.35 143.489 118.305C140.035 116.702 133.927 116.443 132.362 120.831C130.62 125.728 136.86 126.585 139.807 127.427C140.027 127.489 140.235 127.591 140.415 127.726C140.596 127.861 140.744 128.026 140.848 128.207C140.953 128.388 141.011 128.581 141.019 128.772C141.027 128.963 140.985 129.147 140.895 129.31C139.704 131.438 134.868 130.138 133.611 129.148C133.561 129.108 133.503 129.08 133.441 129.065C133.379 129.05 133.315 129.048 133.252 129.06C133.19 129.072 133.13 129.097 133.078 129.134C133.026 129.171 132.982 129.218 132.95 129.273ZM36.7169 117.499C36.5941 117.499 36.4763 117.548 36.3895 117.636C36.3026 117.723 36.2539 117.841 36.2539 117.965V132.693C36.2539 132.817 36.3026 132.935 36.3895 133.022C36.4763 133.11 36.5941 133.159 36.7169 133.159H47.1016C47.2244 133.159 47.3421 133.11 47.429 133.022C47.5158 132.935 47.5646 132.817 47.5646 132.693V130.618C47.5646 130.494 47.5158 130.376 47.429 130.289C47.3421 130.201 47.2244 130.152 47.1016 130.152H40.3034C40.2426 130.152 40.1824 130.14 40.1262 130.117C40.07 130.093 40.019 130.059 39.976 130.016C39.933 129.973 39.8989 129.921 39.8756 129.865C39.8523 129.809 39.8404 129.748 39.8404 129.687V117.965C39.8404 117.841 39.7916 117.723 39.7047 117.636C39.6179 117.548 39.5001 117.499 39.3773 117.499H36.7169ZM53.9586 117.994C53.9586 117.867 53.9082 117.745 53.8186 117.655C53.729 117.565 53.6075 117.514 53.4808 117.514H50.8645C50.7378 117.514 50.6163 117.565 50.5267 117.655C50.4371 117.745 50.3867 117.867 50.3867 117.994V132.678C50.3867 132.806 50.4371 132.928 50.5267 133.018C50.6163 133.108 50.7378 133.159 50.8645 133.159H53.4808C53.6075 133.159 53.729 133.108 53.8186 133.018C53.9082 132.928 53.9586 132.806 53.9586 132.678V117.994ZM117.457 125.344C117.497 129.958 117.521 132.432 117.531 132.767C117.533 132.864 117.572 132.956 117.641 133.023C117.71 133.091 117.802 133.129 117.898 133.129H128.614C128.811 133.129 128.999 133.05 129.139 132.91C129.278 132.771 129.356 132.581 129.356 132.383V130.876C129.356 130.678 129.278 130.489 129.139 130.349C128.999 130.209 128.811 130.13 128.614 130.13H121.72C121.629 130.13 121.539 130.112 121.456 130.077C121.372 130.042 121.296 129.991 121.232 129.927C121.167 129.862 121.116 129.786 121.082 129.702C121.047 129.617 121.029 129.527 121.029 129.436V127.323C121.029 127.157 121.095 126.997 121.212 126.879C121.329 126.762 121.488 126.695 121.654 126.695H127.622C127.753 126.696 127.879 126.647 127.976 126.558C128.072 126.469 128.132 126.347 128.143 126.215C128.168 125.93 128.18 125.61 128.18 125.255C128.175 124.896 128.158 124.573 128.129 124.288C128.114 124.158 128.052 124.038 127.954 123.952C127.856 123.866 127.73 123.819 127.6 123.822L121.632 123.926C121.549 123.928 121.467 123.913 121.39 123.883C121.313 123.853 121.243 123.807 121.183 123.75C121.124 123.692 121.076 123.623 121.043 123.547C121.011 123.47 120.993 123.388 120.992 123.305L120.956 121.193C120.955 121.101 120.972 121.011 121.005 120.926C121.039 120.842 121.089 120.765 121.153 120.699C121.216 120.634 121.292 120.582 121.375 120.547C121.459 120.511 121.548 120.492 121.639 120.491L128.533 120.373C128.63 120.371 128.727 120.35 128.816 120.31C128.905 120.271 128.986 120.214 129.054 120.144C129.121 120.073 129.174 119.99 129.21 119.899C129.245 119.807 129.262 119.71 129.26 119.612L129.231 118.105C129.227 117.909 129.146 117.721 129.006 117.585C128.866 117.448 128.677 117.372 128.481 117.374L117.766 117.559C117.671 117.56 117.581 117.599 117.513 117.667C117.446 117.734 117.408 117.825 117.406 117.92C117.401 118.255 117.418 120.73 117.457 125.344ZM58.0182 135.334C57.9359 135.222 57.6995 135.232 57.3609 135.361C57.0224 135.491 56.6095 135.729 56.2131 136.024C55.8167 136.319 55.4693 136.646 55.2472 136.933C55.0251 137.221 54.9465 137.445 55.0288 137.557C55.1111 137.669 55.3475 137.659 55.6861 137.53C56.0246 137.4 56.4374 137.162 56.8339 136.867C57.2303 136.572 57.5777 136.245 57.7998 135.958C58.0219 135.67 58.1005 135.446 58.0182 135.334ZM140.534 138.536V137.42C140.535 137.317 140.505 137.215 140.449 137.128C140.392 137.041 140.311 136.973 140.215 136.933C140.12 136.892 140.015 136.881 139.913 136.901C139.812 136.921 139.719 136.971 139.645 137.044C139.317 137.374 139.224 137.839 139.366 138.44C139.38 138.503 139.38 138.568 139.366 138.631C139.352 138.695 139.323 138.754 139.283 138.804C139.243 138.854 139.191 138.895 139.133 138.923C139.075 138.951 139.011 138.965 138.947 138.964H138.072C137.965 138.964 137.862 139.007 137.787 139.083C137.711 139.159 137.668 139.263 137.668 139.37V139.718C137.668 139.81 137.705 139.898 137.769 139.963C137.834 140.028 137.922 140.065 138.014 140.065H138.873C138.933 140.065 138.992 140.077 139.047 140.101C139.101 140.124 139.15 140.159 139.191 140.203C139.232 140.246 139.263 140.298 139.283 140.354C139.303 140.411 139.311 140.47 139.307 140.53C139.283 140.85 139.278 142.227 139.292 144.659C139.3 146.247 139.572 148.005 141.321 148.153C142.144 148.222 142.852 148.145 143.445 147.924C143.538 147.889 143.618 147.827 143.674 147.745C143.731 147.663 143.761 147.566 143.761 147.466V147.215C143.761 147.146 143.745 147.079 143.714 147.018C143.683 146.957 143.638 146.904 143.582 146.865C143.527 146.825 143.463 146.799 143.395 146.789C143.328 146.78 143.259 146.786 143.195 146.809C141.269 147.436 140.417 146.698 140.512 144.674C140.596 142.778 140.586 141.38 140.483 140.478C140.474 140.406 140.483 140.332 140.508 140.263C140.534 140.195 140.575 140.133 140.629 140.084C140.683 140.035 140.748 139.999 140.819 139.98C140.889 139.962 140.963 139.96 141.034 139.976C142.558 140.311 143.315 140.107 143.305 139.363C143.303 139.243 143.254 139.128 143.167 139.044C143.08 138.96 142.964 138.912 142.842 138.913H140.909C140.81 138.913 140.715 138.873 140.644 138.802C140.574 138.732 140.534 138.636 140.534 138.536ZM68.6794 140.028C68.6402 139.599 68.5202 139.252 68.3193 138.986C68.2614 138.911 68.1819 138.856 68.0915 138.829C68.0012 138.801 67.9046 138.802 67.815 138.832C67.7254 138.862 67.6474 138.92 67.5916 138.996C67.5358 139.073 67.505 139.165 67.5035 139.26L67.4814 147.503C67.4791 147.68 67.5439 147.851 67.6627 147.981C67.7816 148.111 67.9454 148.191 68.1208 148.205H68.1649C68.2448 148.211 68.325 148.2 68.4004 148.173C68.4758 148.146 68.5446 148.103 68.6023 148.047C68.6599 147.991 68.7051 147.924 68.7349 147.849C68.7647 147.774 68.7783 147.694 68.7749 147.614C68.7112 146.117 68.7088 144.502 68.7676 142.768C68.8264 141.163 69.9239 140.213 72.0601 139.917C72.1139 139.91 72.165 139.889 72.209 139.857C72.253 139.826 72.2886 139.783 72.3125 139.735C72.3365 139.686 72.3481 139.632 72.3464 139.577C72.3447 139.523 72.3296 139.469 72.3026 139.422L72.1483 139.156C72.104 139.081 72.039 139.021 71.9609 138.982C71.8828 138.942 71.7949 138.926 71.7073 138.935C70.4139 139.097 69.5442 139.498 69.0983 140.139C69.0697 140.177 69.0302 140.206 68.9852 140.222C68.9401 140.238 68.8916 140.24 68.8461 140.228C68.8006 140.216 68.7603 140.19 68.7305 140.154C68.7007 140.119 68.6829 140.075 68.6794 140.028ZM95.9016 140.227V139.215C95.9016 139.112 95.8598 139.012 95.7853 138.939C95.7109 138.865 95.61 138.824 95.5047 138.824H95.3136C95.2422 138.824 95.1715 138.838 95.1055 138.865C95.0395 138.892 94.9796 138.932 94.9291 138.982C94.8785 139.032 94.8385 139.091 94.8112 139.157C94.7838 139.222 94.7698 139.292 94.7698 139.363V151.048C94.7698 151.182 94.8224 151.309 94.9161 151.403C95.0099 151.498 95.137 151.551 95.2695 151.551H95.4606C95.5951 151.551 95.7241 151.496 95.8192 151.399C95.9143 151.302 95.9677 151.171 95.9677 151.034V147.001C95.9669 146.969 95.9757 146.938 95.9929 146.911C96.0102 146.885 96.0351 146.864 96.0648 146.851C96.0944 146.839 96.1275 146.835 96.1598 146.841C96.1922 146.846 96.2225 146.861 96.247 146.882C100.054 150.398 105.47 146.402 103.56 141.69C102.472 138.994 98.1284 137.605 96.3793 140.368C96.35 140.417 96.3054 140.455 96.2524 140.475C96.1995 140.496 96.1411 140.499 96.0865 140.483C96.0319 140.467 95.9842 140.433 95.9507 140.387C95.9172 140.34 95.8999 140.284 95.9016 140.227ZM119.633 143.544C119.633 142.314 119.147 141.134 118.281 140.264C117.415 139.394 116.241 138.905 115.017 138.905C113.793 138.905 112.619 139.394 111.754 140.264C110.888 141.134 110.402 142.314 110.402 143.544C110.402 144.774 110.888 145.954 111.754 146.824C112.619 147.694 113.793 148.182 115.017 148.182C116.241 148.182 117.415 147.694 118.281 146.824C119.147 145.954 119.633 144.774 119.633 143.544ZM128.187 140.043C128.148 139.619 128.031 139.274 127.835 139.009C127.777 138.932 127.696 138.875 127.604 138.846C127.512 138.818 127.414 138.818 127.323 138.849C127.233 138.879 127.154 138.937 127.1 139.015C127.045 139.093 127.017 139.186 127.019 139.282L127.012 147.473C127.011 147.648 127.076 147.816 127.193 147.944C127.31 148.073 127.471 148.153 127.644 148.168H127.688C127.767 148.175 127.847 148.165 127.923 148.139C127.998 148.113 128.067 148.071 128.125 148.015C128.183 147.96 128.228 147.893 128.258 147.819C128.288 147.744 128.301 147.664 128.298 147.584C128.229 146.097 128.224 144.492 128.283 142.768C128.337 141.173 129.425 140.227 131.546 139.932C131.6 139.925 131.651 139.904 131.695 139.872C131.739 139.84 131.775 139.798 131.799 139.749C131.823 139.7 131.834 139.646 131.832 139.592C131.831 139.537 131.816 139.484 131.789 139.437L131.634 139.171C131.59 139.098 131.526 139.039 131.449 139.001C131.373 138.963 131.286 138.948 131.201 138.957C129.912 139.119 129.047 139.518 128.606 140.153C128.58 140.194 128.542 140.225 128.497 140.243C128.453 140.26 128.403 140.263 128.357 140.251C128.31 140.238 128.269 140.212 128.239 140.174C128.208 140.137 128.19 140.091 128.187 140.043ZM43.8972 147.872C43.9707 146.631 44.1251 143.041 43.8678 141.483C43.346 138.351 39.3627 138.491 37.1872 139.644C37.0552 139.715 36.9418 139.815 36.8562 139.937C36.7706 140.059 36.7154 140.199 36.6948 140.345L36.6507 140.663C36.6438 140.708 36.6492 140.754 36.6663 140.796C36.6833 140.838 36.7115 140.875 36.7477 140.902C36.784 140.93 36.8269 140.947 36.872 140.951C36.917 140.956 36.9625 140.948 37.0035 140.929C38.2529 140.353 39.3994 140.05 40.443 140.02C40.9141 140.003 41.3785 140.141 41.7667 140.412C42.1548 140.684 42.4459 141.075 42.5964 141.527L42.6699 141.756C42.7174 141.902 42.7286 142.056 42.7024 142.207C42.6762 142.358 42.6134 142.5 42.5197 142.62C42.426 142.741 42.3041 142.836 42.1649 142.898C42.0258 142.96 41.8736 142.986 41.7218 142.975C40.3254 142.864 37.687 142.702 36.8124 144.061C36.0775 145.198 36.2759 147.126 37.6649 147.769C39.2328 148.498 40.6806 148.402 42.0084 147.481C42.0884 147.427 42.1832 147.398 42.2802 147.4C42.3773 147.401 42.4721 147.432 42.5523 147.488L43.4489 148.138C43.4939 148.169 43.547 148.187 43.6017 148.189C43.6564 148.191 43.7106 148.177 43.7577 148.149C43.8049 148.121 43.8431 148.08 43.8678 148.031C43.8926 147.982 43.9028 147.927 43.8972 147.872ZM52.8708 143.943H58.8973C59.1193 143.943 59.3373 143.884 59.5295 143.773C59.7217 143.661 59.8813 143.501 59.9923 143.308C60.1033 143.114 60.1618 142.895 60.1618 142.672C60.1618 142.449 60.1034 142.23 59.9924 142.037L59.2575 140.759C58.9875 140.29 58.6147 139.889 58.1677 139.587C57.7206 139.285 57.2111 139.09 56.6778 139.016C51.254 138.255 49.299 145.176 53.6572 147.614C55.3819 148.574 57.2241 148.397 59.184 147.082C59.2475 147.038 59.2994 146.98 59.3353 146.912C59.3712 146.844 59.3899 146.768 59.3898 146.69V146.38C59.389 146.316 59.3718 146.254 59.3398 146.199C59.3079 146.144 59.2624 146.098 59.2079 146.067C59.1534 146.035 59.0919 146.019 59.0296 146.019C58.9674 146.02 58.9065 146.037 58.8533 146.07C55.9233 147.798 53.8042 147.286 52.496 144.534C52.4662 144.47 52.4528 144.4 52.4571 144.33C52.4614 144.261 52.4834 144.193 52.5208 144.134C52.5583 144.075 52.6101 144.026 52.6713 143.993C52.7325 143.959 52.8012 143.942 52.8708 143.943ZM87.391 143.536C87.391 142.304 86.9039 141.122 86.037 140.251C85.17 139.38 83.9942 138.89 82.7682 138.89C81.5422 138.89 80.3663 139.38 79.4994 140.251C78.6325 141.122 78.1454 142.304 78.1454 143.536C78.1454 144.146 78.265 144.751 78.4973 145.314C78.7296 145.878 79.0701 146.39 79.4994 146.822C79.9287 147.253 80.4383 147.595 80.9991 147.829C81.56 148.062 82.1611 148.182 82.7682 148.182C83.3753 148.182 83.9764 148.062 84.5372 147.829C85.0981 147.595 85.6077 147.253 86.037 146.822C86.4663 146.39 86.8068 145.878 87.0391 145.314C87.2714 144.751 87.391 144.146 87.391 143.536Z" fill="white"/>
<path d="M53.1942 48.7987V69.7982C53.1942 69.8903 53.1578 69.9786 53.0931 70.0437C53.0283 70.1088 52.9404 70.1453 52.8488 70.1453H36.614C36.5282 70.1453 36.446 70.1111 36.3853 70.0501C36.3247 69.9892 36.2906 69.9065 36.2906 69.8203C36.2955 56.3476 36.2906 46.9251 36.2759 41.5527C36.2686 36.2493 35.6806 32.1425 41.8468 32.1573C58.6573 32.1967 71.5432 32.2016 80.5046 32.172C84.4145 32.1573 86.2592 33.4573 86.2665 37.3647C86.2763 48.8332 86.2763 59.6247 86.2665 69.7391C86.2665 69.8488 86.2232 69.954 86.146 70.0316C86.0688 70.1091 85.9641 70.1527 85.855 70.1527H60.3893C60.3439 70.1527 60.299 70.1437 60.2571 70.1263C60.2152 70.1088 60.1771 70.0833 60.145 70.051C60.113 70.0188 60.0875 69.9805 60.0702 69.9384C60.0528 69.8963 60.0439 69.8512 60.0439 69.8056V48.6215C60.0439 48.5895 60.0376 48.5578 60.0254 48.5282C60.0132 48.4986 59.9954 48.4717 59.9728 48.4491C59.9503 48.4265 59.9236 48.4085 59.8942 48.3963C59.8647 48.384 59.8332 48.3777 59.8013 48.3777H53.6132C53.5021 48.3777 53.3955 48.4221 53.3169 48.501C53.2384 48.58 53.1942 48.6871 53.1942 48.7987Z" fill="#1A1A1A"/>
<path d="M118.684 32.2681C128.488 32.273 134.762 32.2829 137.506 32.2976C141.982 32.3272 143.768 33.3834 143.768 37.8448C143.768 42.055 143.765 52.748 143.76 69.9238C143.76 69.9587 143.753 69.9933 143.74 70.0255C143.727 70.0578 143.707 70.0871 143.683 70.1118C143.658 70.1365 143.629 70.1561 143.597 70.1694C143.565 70.1828 143.53 70.1897 143.496 70.1897H126.952C126.882 70.1893 126.814 70.1647 126.76 70.1202C126.706 70.0757 126.67 70.014 126.658 69.9459L122.675 48.4516C122.662 48.379 122.626 48.3123 122.572 48.2617C122.518 48.211 122.448 48.1792 122.374 48.1709C122.246 48.1611 121.014 48.1561 118.677 48.1561C116.345 48.1561 115.115 48.1611 114.987 48.1709C114.913 48.1792 114.843 48.211 114.789 48.2617C114.735 48.3123 114.699 48.379 114.686 48.4516L110.688 69.9385C110.676 70.0066 110.64 70.0683 110.586 70.1128C110.533 70.1573 110.464 70.1819 110.394 70.1823L93.8505 70.1749C93.7803 70.1749 93.7131 70.1469 93.6634 70.097C93.6138 70.0471 93.5859 69.9795 93.5859 69.909C93.5908 52.7332 93.5957 42.0402 93.6006 37.83C93.6006 33.3686 95.3865 32.3124 99.8623 32.2902C102.606 32.2705 108.88 32.2632 118.684 32.2681Z" fill="#1A1A1A"/>
<path d="M118.671 57.7512C118.96 57.7512 119.594 61.8063 120.574 69.9166C120.578 69.9474 120.576 69.9788 120.567 70.0087C120.558 70.0386 120.543 70.0663 120.523 70.09C120.503 70.1137 120.478 70.1328 120.45 70.1462C120.422 70.1596 120.392 70.1669 120.361 70.1677C119.842 70.1874 119.281 70.1972 118.678 70.1972C118.08 70.1972 117.519 70.1874 116.995 70.1677C116.965 70.1659 116.935 70.1579 116.908 70.1441C116.881 70.1302 116.857 70.1109 116.837 70.0873C116.818 70.0638 116.804 70.0364 116.796 70.007C116.787 69.9776 116.785 69.9468 116.789 69.9166C117.754 61.8063 118.381 57.7512 118.671 57.7512Z" fill="#1A1A1A"/>
<path d="M60.3591 88.6262C60.2734 88.6262 60.1911 88.5919 60.1305 88.531C60.0698 88.47 60.0358 88.3873 60.0358 88.3012V72.6864C60.0358 72.6139 60.0644 72.5444 60.1154 72.4931C60.1664 72.4419 60.2356 72.4131 60.3077 72.4131H85.9644C86.0444 72.4131 86.121 72.445 86.1775 72.5018C86.234 72.5586 86.2658 72.6356 86.2658 72.7159C86.2658 91.5315 86.2707 101.963 86.2805 104.012C86.3099 108.385 85.1634 110.298 80.8566 110.29C67.3337 110.285 54.5899 110.29 42.625 110.305C39.2664 110.313 36.4295 109.64 36.356 105.851C36.2727 101.281 36.2556 90.2561 36.3046 72.775C36.3046 72.7275 36.3139 72.6804 36.332 72.6365C36.3501 72.5926 36.3766 72.5527 36.41 72.5191C36.4435 72.4855 36.4832 72.4588 36.5269 72.4406C36.5706 72.4224 36.6174 72.4131 36.6647 72.4131H52.7378C52.8606 72.4131 52.9784 72.4629 53.0652 72.5515C53.152 72.6402 53.2008 72.7604 53.2008 72.8858V93.5159C53.2008 93.5799 53.2134 93.6433 53.2378 93.7025C53.2621 93.7616 53.2979 93.8154 53.3429 93.8606C53.3879 93.9059 53.4414 93.9418 53.5003 93.9663C53.5591 93.9908 53.6222 94.0034 53.6859 94.0034H68.8991C69.0278 94.0034 69.1512 93.9521 69.2421 93.8606C69.3331 93.7692 69.3842 93.6452 69.3842 93.5159V89.0546C69.3842 88.9409 69.3393 88.832 69.2594 88.7516C69.1794 88.6713 69.071 88.6262 68.9579 88.6262H60.3591Z" fill="#1A1A1A"/>
<path d="M118.684 85.6716C120.83 85.6716 122.116 85.6765 122.543 85.6864C122.595 85.6888 122.646 85.709 122.686 85.7439C122.726 85.7787 122.753 85.8261 122.763 85.8784L124.211 93.6858C124.218 93.7254 124.238 93.7612 124.267 93.7869C124.297 93.8126 124.334 93.8265 124.373 93.8262H130.825C130.847 93.8266 130.868 93.8221 130.887 93.8131C130.907 93.804 130.924 93.7906 130.938 93.7737C130.952 93.7569 130.962 93.737 130.968 93.7154C130.974 93.6938 130.976 93.6711 130.972 93.6489L127.099 72.7602C127.092 72.718 127.093 72.6746 127.104 72.633C127.115 72.5915 127.135 72.5529 127.162 72.5199C127.19 72.4868 127.224 72.4601 127.262 72.4417C127.301 72.4233 127.343 72.4135 127.386 72.4131H143.268C143.4 72.4131 143.528 72.4652 143.621 72.558C143.715 72.6508 143.768 72.7767 143.768 72.908C143.773 89.936 143.775 100.617 143.775 104.95C143.77 107.043 143.121 108.527 141.827 109.404C141.137 109.872 139.498 110.116 136.911 110.135C135.078 110.15 129.003 110.16 118.684 110.165C108.366 110.165 102.288 110.157 100.45 110.143C97.8682 110.118 96.2317 109.872 95.5409 109.404C94.2474 108.527 93.5957 107.043 93.5859 104.95C93.5859 100.617 93.5884 89.936 93.5933 72.908C93.5933 72.7767 93.6459 72.6508 93.7397 72.558C93.8334 72.4652 93.9605 72.4131 94.093 72.4131H109.975C110.018 72.4135 110.06 72.4233 110.099 72.4417C110.137 72.4601 110.171 72.4868 110.199 72.5199C110.226 72.5529 110.246 72.5915 110.257 72.633C110.267 72.6746 110.269 72.718 110.262 72.7602L106.389 93.6489C106.385 93.6711 106.387 93.6938 106.393 93.7154C106.399 93.737 106.409 93.7569 106.423 93.7737C106.437 93.7906 106.454 93.804 106.474 93.8131C106.493 93.8221 106.514 93.8266 106.536 93.8262H112.988C113.027 93.8265 113.064 93.8126 113.093 93.7869C113.123 93.7612 113.143 93.7254 113.15 93.6858L114.598 85.8784C114.608 85.8261 114.635 85.7787 114.675 85.7439C114.715 85.709 114.765 85.6888 114.818 85.6864C115.245 85.6765 116.533 85.6716 118.684 85.6716Z" fill="#1A1A1A"/>
<path d="M121.875 80.4716H115.613C115.572 80.472 115.532 80.4635 115.494 80.4467C115.457 80.43 115.424 80.4054 115.396 80.3746C115.369 80.3438 115.349 80.3076 115.337 80.2682C115.325 80.2289 115.321 80.1874 115.327 80.1466L116.385 72.6642C116.394 72.5944 116.428 72.5303 116.481 72.484C116.534 72.4377 116.601 72.4125 116.672 72.4131H120.493C120.56 72.4137 120.624 72.4377 120.675 72.4808C120.726 72.5239 120.761 72.5836 120.772 72.6495L122.154 80.1318C122.162 80.1731 122.16 80.2156 122.15 80.2562C122.139 80.2968 122.12 80.3347 122.093 80.367C122.067 80.3994 122.033 80.4255 121.996 80.4436C121.958 80.4617 121.917 80.4712 121.875 80.4716Z" fill="#1A1A1A"/>
<path d="M67.1142 131.57C66.6144 131.57 66.1685 131.25 65.7766 130.61C64.5272 128.601 63.3072 126.535 62.1166 124.413C62.101 124.378 62.0734 124.349 62.0389 124.333C62.0043 124.316 61.965 124.312 61.9279 124.322C61.8908 124.332 61.8584 124.354 61.8364 124.386C61.8144 124.417 61.8043 124.456 61.8079 124.494V132.708C61.8079 132.769 61.7959 132.829 61.7726 132.886C61.7494 132.942 61.7153 132.994 61.6723 133.037C61.6293 133.08 61.5782 133.114 61.5221 133.138C61.4659 133.161 61.4057 133.173 61.3449 133.173H58.9269C58.8002 133.173 58.6787 133.123 58.5891 133.033C58.4995 132.943 58.4492 132.82 58.4492 132.693V118.09C58.4492 117.934 58.5119 117.783 58.6236 117.672C58.7352 117.562 58.8866 117.499 59.0445 117.499H61.0068C61.1344 117.499 61.2605 117.533 61.3726 117.598C61.4847 117.662 61.579 117.756 61.6462 117.869L66.8863 126.799C66.8916 126.809 66.9019 126.82 66.9157 126.828C66.9745 126.858 67.0407 126.873 67.1142 126.873C67.1828 126.873 67.2489 126.858 67.3126 126.828C67.3242 126.819 67.3319 126.809 67.3346 126.799L72.5674 117.861C72.6347 117.748 72.7289 117.655 72.841 117.59C72.9531 117.525 73.0792 117.492 73.2068 117.492H75.1691C75.327 117.492 75.4784 117.554 75.59 117.665C75.7017 117.776 75.7644 117.926 75.7644 118.083L75.7791 132.686C75.7791 132.813 75.7288 132.935 75.6392 133.025C75.5496 133.115 75.4281 133.166 75.3014 133.166H72.8834C72.7606 133.166 72.6429 133.117 72.556 133.03C72.4692 132.942 72.4204 132.824 72.4204 132.7L72.4131 124.487C72.4166 124.448 72.4065 124.41 72.3845 124.379C72.3626 124.347 72.3301 124.324 72.2931 124.315C72.256 124.305 72.2166 124.309 72.1821 124.325C72.1475 124.342 72.12 124.37 72.1044 124.406C70.9138 126.533 69.6962 128.601 68.4518 130.61C68.0598 131.25 67.6139 131.57 67.1142 131.57Z" fill="#2B7CF2"/>
<path d="M96.2166 125.217C96.2465 127.374 95.3795 129.455 93.8061 131.002C92.2328 132.549 90.0821 133.436 87.8271 133.468C86.7105 133.484 85.602 133.289 84.5648 132.895C83.5275 132.5 82.5819 131.915 81.7819 131.171C80.9819 130.427 80.3431 129.539 79.9021 128.558C79.4611 127.578 79.2265 126.523 79.2117 125.456C79.1817 123.299 80.0488 121.218 81.6221 119.671C83.1955 118.123 85.3462 117.236 87.6012 117.205C88.7177 117.189 89.8263 117.384 90.8635 117.778C91.9008 118.172 92.8464 118.758 93.6464 119.502C94.4464 120.246 95.0851 121.134 95.5261 122.114C95.9671 123.095 96.2017 124.149 96.2166 125.217ZM87.8337 120.367C87.2046 120.352 86.5787 120.467 85.9919 120.703C85.405 120.94 84.8687 121.294 84.4134 121.745C83.9581 122.196 83.5929 122.736 83.3385 123.334C83.0842 123.931 82.9457 124.574 82.9309 125.227C82.9012 126.545 83.3773 127.821 84.2547 128.773C85.1321 129.726 86.3387 130.277 87.6093 130.306C88.2384 130.32 88.8642 130.206 89.4511 129.97C90.0379 129.733 90.5743 129.379 91.0296 128.928C91.4848 128.476 91.8501 127.937 92.1045 127.339C92.3588 126.742 92.4973 126.098 92.512 125.446C92.5418 124.127 92.0656 122.852 91.1883 121.899C90.3109 120.947 89.1042 120.396 87.8337 120.367Z" fill="#2B7CF2"/>
<path d="M112.497 124.997C112.727 124.997 112.948 125.088 113.11 125.252C113.273 125.415 113.364 125.637 113.364 125.868V130.448C113.364 130.828 113.252 131.2 113.043 131.517C112.834 131.834 112.536 132.081 112.188 132.228C107.264 134.333 101.003 133.676 99.1652 128.092C96.2254 119.139 106.757 114.272 113.107 119.294C113.224 119.387 113.316 119.507 113.377 119.644C113.437 119.781 113.463 119.93 113.453 120.078C113.443 120.227 113.397 120.371 113.318 120.497C113.24 120.623 113.132 120.727 113.004 120.801L111.527 121.658C111.405 121.728 111.265 121.761 111.123 121.752C110.982 121.742 110.847 121.692 110.733 121.606C105.059 117.359 99.2313 124.893 104.038 129.126C105.395 130.327 107.252 130.586 109.609 129.901C109.732 129.864 109.84 129.788 109.917 129.684C109.994 129.581 110.035 129.454 110.035 129.325V125.927C110.035 125.68 110.132 125.444 110.304 125.269C110.476 125.095 110.71 124.997 110.954 124.997H112.497Z" fill="#2B7CF2"/>
<path d="M133.611 129.148C134.867 130.138 139.703 131.438 140.894 129.31C140.984 129.147 141.027 128.963 141.019 128.772C141.011 128.581 140.952 128.388 140.848 128.207C140.743 128.026 140.595 127.861 140.415 127.726C140.234 127.591 140.026 127.489 139.806 127.427C136.859 126.585 130.62 125.728 132.361 120.831C133.927 116.443 140.034 116.702 143.488 118.305C143.586 118.35 143.673 118.415 143.744 118.496C143.815 118.577 143.869 118.672 143.901 118.774C143.934 118.877 143.945 118.986 143.933 119.093C143.921 119.201 143.888 119.304 143.834 119.398L143.018 120.823C142.939 120.959 142.813 121.06 142.665 121.108C142.517 121.156 142.357 121.146 142.217 121.082C140.527 120.336 137.763 119.605 136.176 120.956C136.004 121.101 135.874 121.289 135.8 121.501C135.726 121.714 135.71 121.942 135.755 122.164C135.799 122.385 135.902 122.59 136.052 122.759C136.202 122.927 136.395 123.052 136.609 123.121C138.746 123.8 140.343 124.28 141.401 124.561C146.377 125.876 145.296 131.829 141.019 133.003C138.079 133.811 135.166 133.457 132.28 131.94C132.195 131.895 132.119 131.833 132.058 131.758C131.997 131.683 131.951 131.596 131.924 131.503C131.898 131.41 131.89 131.312 131.902 131.216C131.914 131.119 131.945 131.026 131.994 130.943L132.949 129.273C132.982 129.218 133.026 129.171 133.078 129.134C133.13 129.097 133.189 129.072 133.252 129.06C133.314 129.048 133.379 129.05 133.441 129.065C133.503 129.08 133.561 129.108 133.611 129.148Z" fill="#2B7CF2"/>
<path d="M36.7169 117.5H39.3774C39.5002 117.5 39.618 117.549 39.7048 117.636C39.7916 117.723 39.8404 117.841 39.8404 117.965V129.687C39.8404 129.748 39.8524 129.809 39.8757 129.865C39.8989 129.922 39.933 129.973 39.976 130.016C40.019 130.059 40.0701 130.094 40.1262 130.117C40.1824 130.14 40.2426 130.152 40.3034 130.152H47.1016C47.2244 130.152 47.3422 130.201 47.429 130.289C47.5158 130.376 47.5646 130.494 47.5646 130.618V132.693C47.5646 132.817 47.5158 132.935 47.429 133.022C47.3422 133.11 47.2244 133.159 47.1016 133.159H36.7169C36.5941 133.159 36.4764 133.11 36.3895 133.022C36.3027 132.935 36.2539 132.817 36.2539 132.693V117.965C36.2539 117.841 36.3027 117.723 36.3895 117.636C36.4764 117.549 36.5941 117.5 36.7169 117.5Z" fill="#2B7CF2"/>
<path d="M53.4808 117.514H50.8644C50.6006 117.514 50.3867 117.729 50.3867 117.994V132.678C50.3867 132.944 50.6006 133.158 50.8644 133.158H53.4808C53.7446 133.158 53.9585 132.944 53.9585 132.678V117.994C53.9585 117.729 53.7446 117.514 53.4808 117.514Z" fill="#2B7CF2"/>
<path d="M128.179 125.255C128.179 125.61 128.167 125.93 128.143 126.215C128.132 126.347 128.072 126.469 127.975 126.558C127.878 126.647 127.752 126.696 127.621 126.695H121.653C121.487 126.695 121.328 126.762 121.211 126.879C121.094 126.997 121.028 127.157 121.028 127.323V129.436C121.028 129.527 121.046 129.617 121.081 129.701C121.116 129.786 121.167 129.862 121.231 129.927C121.295 129.991 121.371 130.042 121.455 130.077C121.539 130.112 121.628 130.13 121.719 130.13H128.613C128.81 130.13 128.999 130.209 129.138 130.349C129.277 130.488 129.355 130.678 129.355 130.876V132.383C129.355 132.581 129.277 132.771 129.138 132.91C128.999 133.05 128.81 133.129 128.613 133.129H117.898C117.801 133.129 117.709 133.091 117.64 133.023C117.572 132.956 117.532 132.864 117.53 132.767C117.52 132.432 117.496 129.958 117.457 125.344C117.417 120.73 117.4 118.255 117.405 117.92C117.407 117.825 117.446 117.734 117.513 117.667C117.58 117.599 117.67 117.56 117.765 117.558L128.481 117.374C128.676 117.372 128.865 117.448 129.005 117.584C129.146 117.721 129.226 117.909 129.23 118.105L129.26 119.612C129.262 119.71 129.244 119.807 129.209 119.899C129.173 119.99 129.12 120.073 129.053 120.144C128.985 120.214 128.904 120.271 128.815 120.31C128.726 120.35 128.63 120.371 128.532 120.373L121.638 120.491C121.548 120.492 121.458 120.511 121.375 120.547C121.291 120.582 121.215 120.634 121.152 120.699C121.089 120.765 121.038 120.842 121.005 120.926C120.971 121.011 120.954 121.101 120.955 121.193L120.992 123.305C120.993 123.388 121.01 123.47 121.043 123.547C121.075 123.623 121.123 123.692 121.182 123.75C121.242 123.807 121.312 123.853 121.389 123.883C121.466 123.913 121.548 123.927 121.631 123.926L127.599 123.822C127.729 123.819 127.855 123.866 127.953 123.952C128.051 124.038 128.113 124.158 128.128 124.287C128.157 124.573 128.174 124.896 128.179 125.255Z" fill="#2B7CF2"/>
<path d="M92.5117 125.446C92.5737 122.701 90.4791 120.427 87.8334 120.367C85.1876 120.306 82.9925 122.482 82.9306 125.227C82.8686 127.972 84.9632 130.246 87.6089 130.306C90.2547 130.366 92.4497 128.19 92.5117 125.446Z" fill="white"/>
<path d="M56.8342 136.867C57.6597 136.253 58.1899 135.567 58.0185 135.334C57.8471 135.101 57.0389 135.41 56.2134 136.024C55.3879 136.638 54.8577 137.324 55.0291 137.557C55.2006 137.79 56.0087 137.481 56.8342 136.867Z" fill="#85908F"/>
<path d="M140.909 138.912H142.842C142.963 138.912 143.08 138.96 143.167 139.044C143.253 139.128 143.303 139.243 143.305 139.363C143.315 140.107 142.558 140.311 141.034 139.976C140.963 139.96 140.889 139.962 140.818 139.98C140.748 139.999 140.683 140.035 140.629 140.084C140.575 140.133 140.534 140.195 140.508 140.263C140.483 140.332 140.474 140.406 140.483 140.478C140.586 141.38 140.595 142.778 140.512 144.674C140.417 146.698 141.269 147.436 143.195 146.808C143.259 146.786 143.328 146.779 143.395 146.789C143.463 146.799 143.527 146.825 143.582 146.865C143.638 146.904 143.683 146.957 143.714 147.018C143.745 147.079 143.761 147.146 143.761 147.215V147.466C143.761 147.566 143.731 147.663 143.674 147.745C143.618 147.827 143.538 147.889 143.445 147.924C142.852 148.145 142.144 148.222 141.321 148.153C139.571 148.005 139.3 146.247 139.292 144.659C139.277 142.226 139.282 140.85 139.307 140.53C139.311 140.47 139.303 140.411 139.283 140.354C139.263 140.298 139.231 140.246 139.191 140.203C139.15 140.159 139.101 140.124 139.046 140.1C138.992 140.077 138.933 140.065 138.873 140.065H138.013C137.922 140.065 137.834 140.028 137.769 139.963C137.704 139.898 137.668 139.81 137.668 139.718V139.37C137.668 139.263 137.711 139.159 137.786 139.083C137.862 139.007 137.965 138.964 138.072 138.964H138.947C139.011 138.965 139.075 138.951 139.133 138.923C139.191 138.895 139.242 138.854 139.283 138.804C139.323 138.754 139.351 138.695 139.366 138.631C139.38 138.568 139.38 138.503 139.366 138.44C139.224 137.839 139.317 137.374 139.645 137.044C139.718 136.971 139.812 136.921 139.913 136.901C140.015 136.881 140.12 136.892 140.215 136.933C140.31 136.973 140.392 137.041 140.448 137.128C140.505 137.215 140.535 137.317 140.534 137.42V138.536C140.534 138.636 140.574 138.731 140.644 138.802C140.714 138.873 140.81 138.912 140.909 138.912Z" fill="#85908F"/>
<path d="M69.0974 140.139C69.5433 139.498 70.4129 139.097 71.7064 138.935C71.794 138.926 71.8819 138.942 71.96 138.981C72.0381 139.021 72.1031 139.081 72.1474 139.156L72.3017 139.422C72.3287 139.469 72.3438 139.523 72.3455 139.577C72.3472 139.631 72.3356 139.686 72.3116 139.734C72.2876 139.783 72.2521 139.826 72.2081 139.857C72.1641 139.889 72.1129 139.91 72.0592 139.917C69.923 140.212 68.8255 141.163 68.7667 142.768C68.7079 144.501 68.7103 146.117 68.774 147.614C68.7774 147.694 68.7637 147.774 68.734 147.849C68.7042 147.924 68.659 147.991 68.6013 148.047C68.5437 148.103 68.4749 148.146 68.3995 148.173C68.3241 148.2 68.2439 148.211 68.164 148.204H68.1199C67.9445 148.191 67.7806 148.111 67.6618 147.981C67.543 147.851 67.4782 147.68 67.4805 147.503L67.5026 139.26C67.5041 139.165 67.5348 139.073 67.5906 138.996C67.6464 138.92 67.7245 138.862 67.8141 138.832C67.9037 138.802 68.0003 138.801 68.0906 138.829C68.181 138.856 68.2605 138.911 68.3184 138.986C68.5192 139.252 68.6393 139.599 68.6785 140.028C68.682 140.074 68.6998 140.119 68.7296 140.154C68.7594 140.19 68.7997 140.216 68.8452 140.228C68.8907 140.24 68.9392 140.238 68.9843 140.222C69.0293 140.206 69.0688 140.177 69.0974 140.139Z" fill="#85908F"/>
<path d="M96.3791 140.368C98.1282 137.605 102.472 138.994 103.559 141.69C105.47 146.402 100.054 150.398 96.2468 146.882C96.2223 146.861 96.192 146.846 96.1596 146.841C96.1272 146.835 96.0942 146.839 96.0645 146.851C96.0349 146.864 96.0099 146.885 95.9927 146.911C95.9754 146.938 95.9667 146.969 95.9675 147.001V151.034C95.9675 151.171 95.9141 151.302 95.819 151.399C95.7239 151.496 95.5949 151.551 95.4604 151.551H95.2693C95.1367 151.551 95.0096 151.498 94.9159 151.404C94.8222 151.309 94.7695 151.182 94.7695 151.048V139.363C94.7695 139.292 94.7836 139.222 94.8109 139.157C94.8383 139.091 94.8783 139.032 94.9288 138.982C94.9793 138.932 95.0393 138.892 95.1053 138.865C95.1712 138.838 95.242 138.824 95.3134 138.824H95.5045C95.6097 138.824 95.7107 138.865 95.7851 138.939C95.8595 139.012 95.9013 139.112 95.9013 139.215V140.227C95.8997 140.285 95.917 140.341 95.9505 140.387C95.9839 140.433 96.0317 140.467 96.0863 140.483C96.1409 140.499 96.1992 140.496 96.2522 140.475C96.3052 140.455 96.3498 140.417 96.3791 140.368ZM102.81 143.514C102.81 142.592 102.445 141.707 101.796 141.054C101.147 140.402 100.266 140.035 99.3482 140.035C98.4301 140.035 97.5497 140.402 96.9005 141.054C96.2513 141.707 95.8866 142.592 95.8866 143.514C95.8866 144.437 96.2513 145.322 96.9005 145.974C97.5497 146.627 98.4301 146.993 99.3482 146.993C100.266 146.993 101.147 146.627 101.796 145.974C102.445 145.322 102.81 144.437 102.81 143.514Z" fill="#85908F"/>
<path d="M119.633 143.544C119.633 144.774 119.147 145.954 118.281 146.824C117.416 147.694 116.242 148.182 115.018 148.182C113.794 148.182 112.62 147.694 111.754 146.824C110.889 145.954 110.402 144.774 110.402 143.544C110.402 142.313 110.889 141.134 111.754 140.264C112.62 139.394 113.794 138.905 115.018 138.905C116.242 138.905 117.416 139.394 118.281 140.264C119.147 141.134 119.633 142.313 119.633 143.544ZM118.479 143.499C118.479 142.571 118.112 141.68 117.459 141.024C116.806 140.367 115.92 139.998 114.996 139.998C114.072 139.998 113.186 140.367 112.532 141.024C111.879 141.68 111.512 142.571 111.512 143.499C111.512 144.428 111.879 145.318 112.532 145.975C113.186 146.632 114.072 147 114.996 147C115.92 147 116.806 146.632 117.459 145.975C118.112 145.318 118.479 144.428 118.479 143.499Z" fill="#85908F"/>
<path d="M128.188 140.043C128.19 140.091 128.208 140.137 128.239 140.174C128.269 140.212 128.311 140.239 128.357 140.251C128.404 140.263 128.453 140.26 128.498 140.243C128.542 140.225 128.58 140.194 128.607 140.154C129.048 139.518 129.912 139.119 131.201 138.957C131.287 138.948 131.373 138.964 131.45 139.001C131.526 139.039 131.59 139.098 131.634 139.171L131.789 139.437C131.816 139.484 131.831 139.538 131.833 139.592C131.834 139.646 131.823 139.701 131.799 139.749C131.775 139.798 131.739 139.84 131.695 139.872C131.651 139.904 131.6 139.925 131.546 139.932C129.425 140.227 128.337 141.173 128.283 142.768C128.224 144.492 128.229 146.097 128.298 147.584C128.301 147.664 128.288 147.744 128.258 147.819C128.228 147.893 128.183 147.96 128.125 148.015C128.067 148.071 127.998 148.113 127.923 148.139C127.847 148.165 127.767 148.175 127.688 148.168H127.644C127.471 148.153 127.31 148.073 127.193 147.945C127.076 147.816 127.011 147.648 127.012 147.473L127.019 139.282C127.017 139.186 127.045 139.093 127.1 139.015C127.154 138.937 127.233 138.879 127.323 138.849C127.414 138.819 127.512 138.818 127.604 138.846C127.696 138.875 127.777 138.932 127.835 139.009C128.031 139.275 128.148 139.619 128.188 140.043Z" fill="#85908F"/>
<path d="M43.4486 148.138L42.5519 147.488C42.4718 147.432 42.3769 147.401 42.2799 147.4C42.1828 147.399 42.0881 147.427 42.0081 147.481C40.6803 148.402 39.2325 148.498 37.6646 147.769C36.2755 147.126 36.0771 145.198 36.8121 144.061C37.6866 142.702 40.3251 142.864 41.7215 142.975C41.8732 142.986 42.0254 142.96 42.1646 142.898C42.3038 142.836 42.4256 142.741 42.5193 142.62C42.6131 142.5 42.6758 142.358 42.702 142.207C42.7282 142.056 42.717 141.902 42.6695 141.756L42.596 141.527C42.4456 141.075 42.1545 140.684 41.7663 140.412C41.3782 140.141 40.9138 140.003 40.4427 140.021C39.399 140.05 38.2525 140.353 37.0031 140.929C36.9621 140.948 36.9166 140.956 36.8716 140.951C36.8265 140.947 36.7836 140.93 36.7474 140.902C36.7111 140.875 36.683 140.838 36.6659 140.796C36.6488 140.754 36.6434 140.708 36.6504 140.663L36.6945 140.346C36.715 140.199 36.7703 140.059 36.8558 139.938C36.9414 139.816 37.0548 139.715 37.1869 139.644C39.3623 138.492 43.3457 138.351 43.8675 141.483C44.1247 143.042 43.9704 146.631 43.8969 147.872C43.9024 147.927 43.8922 147.982 43.8675 148.031C43.8428 148.08 43.8046 148.121 43.7574 148.149C43.7102 148.177 43.6561 148.191 43.6013 148.189C43.5466 148.187 43.4936 148.169 43.4486 148.138ZM42.0228 143.773L37.988 144.157C37.9145 144.163 37.843 144.184 37.7777 144.219C37.7124 144.253 37.6545 144.3 37.6073 144.357C37.5602 144.414 37.5247 144.48 37.503 144.551C37.4813 144.622 37.4738 144.696 37.4808 144.77L37.5396 145.346C37.5912 145.88 37.8702 146.37 38.3154 146.708C38.7606 147.046 39.3354 147.205 39.9135 147.148L40.6999 147.075C40.9864 147.047 41.2651 146.968 41.5203 146.842C41.7754 146.715 42.002 146.544 42.1869 146.338C42.3719 146.131 42.5117 145.893 42.5983 145.638C42.6848 145.383 42.7166 145.116 42.6916 144.851L42.6328 144.275C42.6179 144.127 42.5454 143.991 42.431 143.897C42.3167 143.803 42.1699 143.758 42.0228 143.773Z" fill="#85908F"/>
<path d="M52.8709 143.943C52.8012 143.942 52.7325 143.959 52.6713 143.993C52.6101 144.026 52.5583 144.075 52.5209 144.134C52.4834 144.193 52.4615 144.261 52.4571 144.33C52.4528 144.4 52.4662 144.47 52.4961 144.533C53.8042 147.286 55.9233 147.798 58.8533 146.07C58.9065 146.037 58.9674 146.02 59.0297 146.019C59.092 146.019 59.1535 146.035 59.2079 146.067C59.2624 146.098 59.3079 146.144 59.3398 146.199C59.3718 146.254 59.389 146.316 59.3898 146.38V146.69C59.3899 146.767 59.3712 146.843 59.3353 146.912C59.2994 146.98 59.2475 147.038 59.184 147.082C57.2242 148.397 55.3819 148.574 53.6573 147.614C49.2991 145.176 51.254 138.255 56.6779 139.016C57.2111 139.09 57.7207 139.285 58.1677 139.587C58.6148 139.889 58.9875 140.29 59.2575 140.759L59.9924 142.037C60.1034 142.23 60.1618 142.449 60.1618 142.672C60.1618 142.895 60.1033 143.114 59.9924 143.307C59.8814 143.501 59.7218 143.661 59.5295 143.772C59.3373 143.884 59.1193 143.943 58.8974 143.943H52.8709ZM52.6798 142.931L58.6916 143.049C58.7208 143.049 58.7489 143.037 58.7695 143.016C58.7902 142.996 58.8018 142.967 58.8018 142.938V142.879C58.8166 142.129 58.5129 141.404 57.9575 140.862C57.4021 140.321 56.6405 140.007 55.84 139.991H55.6489C54.8484 139.976 54.0751 140.259 53.499 140.779C52.923 141.298 52.5913 142.011 52.5769 142.761L52.5695 142.82C52.5695 142.849 52.5812 142.877 52.6018 142.898C52.6225 142.919 52.6506 142.931 52.6798 142.931Z" fill="#85908F"/>
<path d="M87.3901 143.536C87.3901 144.147 87.2705 144.751 87.0382 145.314C86.8059 145.878 86.4654 146.39 86.0361 146.822C85.6068 147.253 85.0972 147.595 84.5364 147.829C83.9755 148.062 83.3744 148.182 82.7673 148.182C82.1602 148.182 81.5591 148.062 80.9982 147.829C80.4374 147.595 79.9278 147.253 79.4985 146.822C79.0692 146.39 78.7287 145.878 78.4964 145.314C78.2641 144.751 78.1445 144.147 78.1445 143.536C78.1445 142.304 78.6316 141.122 79.4985 140.251C80.3654 139.38 81.5413 138.89 82.7673 138.89C83.9933 138.89 85.1692 139.38 86.0361 140.251C86.903 141.122 87.3901 142.304 87.3901 143.536ZM82.6926 139.918C81.7962 139.937 80.9444 140.332 80.3245 141.017C79.7047 141.702 79.3675 142.621 79.3873 143.571C79.3971 144.041 79.4942 144.505 79.6732 144.936C79.8521 145.367 80.1093 145.756 80.4301 146.082C80.7509 146.408 81.129 146.664 81.5428 146.836C81.9566 147.007 82.3981 147.09 82.842 147.081C83.7384 147.062 84.5902 146.667 85.2101 145.982C85.8299 145.297 86.1671 144.378 86.1473 143.428C86.1375 142.958 86.0404 142.494 85.8614 142.063C85.6825 141.632 85.4253 141.243 85.1045 140.917C84.7837 140.591 84.4056 140.335 83.9918 140.163C83.578 139.992 83.1365 139.909 82.6926 139.918Z" fill="#85908F"/>
<path d="M52.6806 142.931C52.6513 142.931 52.6233 142.919 52.6026 142.898C52.5819 142.877 52.5703 142.849 52.5703 142.82L52.5777 142.761C52.5921 142.011 52.9238 141.298 53.4998 140.779C54.0759 140.259 54.8491 139.976 55.6497 139.991H55.8408C56.6413 140.007 57.4029 140.321 57.9583 140.862C58.5136 141.404 58.8173 142.129 58.8026 142.879V142.938C58.8026 142.967 58.791 142.996 58.7703 143.016C58.7496 143.037 58.7216 143.049 58.6924 143.049L52.6806 142.931Z" fill="white"/>
<path d="M86.1482 143.428C86.107 141.45 84.5603 139.878 82.6936 139.918C80.8269 139.957 79.347 141.592 79.3882 143.57C79.4295 145.549 80.9762 147.12 82.8429 147.081C84.7096 147.042 86.1894 145.406 86.1482 143.428Z" fill="white"/>
<path d="M114.995 147.001C116.919 147.001 118.479 145.433 118.479 143.499C118.479 141.566 116.919 139.998 114.995 139.998C113.071 139.998 111.512 141.566 111.512 143.499C111.512 145.433 113.071 147.001 114.995 147.001Z" fill="white"/>
<path d="M99.3483 146.993C101.26 146.993 102.81 145.436 102.81 143.514C102.81 141.593 101.26 140.035 99.3483 140.035C97.4365 140.035 95.8867 141.593 95.8867 143.514C95.8867 145.436 97.4365 146.993 99.3483 146.993Z" fill="white"/>
<path d="M42.023 143.773C42.1701 143.758 42.3169 143.803 42.4313 143.897C42.5456 143.991 42.6182 144.127 42.633 144.275L42.6918 144.851C42.7168 145.116 42.6851 145.383 42.5985 145.638C42.5119 145.893 42.3721 146.131 42.1872 146.337C42.0022 146.544 41.7757 146.715 41.5205 146.842C41.2654 146.968 40.9866 147.047 40.7001 147.074L39.9137 147.148C39.3357 147.204 38.7608 147.046 38.3156 146.708C37.8705 146.37 37.5914 145.88 37.5399 145.346L37.4811 144.77C37.474 144.696 37.4815 144.622 37.5033 144.551C37.525 144.48 37.5604 144.414 37.6076 144.357C37.6547 144.3 37.7126 144.253 37.7779 144.219C37.8433 144.184 37.9147 144.163 37.9882 144.157L42.023 143.773Z" fill="white"/>
</g>
<defs>
<clipPath id="clip0_1411_61358">
<rect width="122" height="130" fill="white" transform="translate(29 25)"/>
</clipPath>
</defs>
</svg>
