<svg width="181" height="181" viewBox="0 0 181 181" fill="none" xmlns="http://www.w3.org/2000/svg">
<rect width="181" height="181" fill="#419158"/>
<path d="M40 79.3692H31.3834V107H26.6332V79.3692H18V75H40V79.3692Z" fill="white"/>
<path d="M61.9911 86.1762L58.3082 89.6243C57.7501 89.0834 57.2143 88.6989 56.7011 88.4622C56.1878 88.2298 55.5215 88.1115 54.6976 88.1115C53.8288 88.1115 53.0227 88.3228 52.2844 88.7453C51.5461 89.1679 50.9609 89.7636 50.5242 90.5285C50.0875 91.2934 49.8713 92.185 49.8713 93.2076V107H45V84.2831H49.7812V86.7509C50.4206 85.9142 51.3165 85.2466 52.4735 84.7479C53.6306 84.2493 54.8776 84 56.2148 84C57.4123 84 58.4658 84.1648 59.3753 84.4944C60.2847 84.824 61.1581 85.386 62 86.1762H61.9911Z" fill="white"/>
<path d="M82.9917 96.8098H68.4587C68.4587 98.1218 68.6792 99.2456 69.1288 100.173C69.5744 101.105 70.2196 101.824 71.0606 102.337C71.9014 102.851 72.9381 103.106 74.1745 103.106C75.4108 103.106 76.41 102.935 77.1718 102.588C77.9336 102.241 78.7454 101.652 79.6072 100.812L82.4755 103.495C81.2515 104.723 80.0152 105.613 78.762 106.169C77.509 106.724 75.9478 107 74.0787 107C72.6383 107 71.3062 106.791 70.0739 106.373C68.8416 105.956 67.776 105.291 66.8684 104.385C65.9608 103.474 65.2573 102.287 64.7536 100.812C64.2499 99.3417 64 97.5661 64 95.4896C64 93.0789 64.3914 91.0191 65.1782 89.3019C65.9608 87.5848 67.0682 86.2728 68.492 85.362C69.9157 84.4512 71.5851 84 73.5 84C75.4151 84 77.1551 84.4554 78.5956 85.362C80.036 86.2687 81.1266 87.543 81.8761 89.1808C82.6254 90.8185 83 92.6986 83 94.817V96.8057L82.9917 96.8098ZM78.529 93.6721C78.4873 92.5023 78.2834 91.4871 77.9254 90.6221C77.5674 89.7573 77.0012 89.0637 76.231 88.5457C75.4608 88.0276 74.5532 87.7686 73.5043 87.7686C72.4552 87.7686 71.56 88.0276 70.7774 88.5457C69.9948 89.0637 69.4161 89.7573 69.0415 90.6221C68.8416 91.086 68.7084 91.4912 68.6418 91.8464C68.5752 92.2015 68.5169 92.8073 68.4587 93.6763H78.529V93.6721Z" fill="white"/>
<path d="M106.991 84L98.4095 107H94.5817L86 84H91.0021L96.5217 100.198L102.02 84H107H106.991Z" fill="white"/>
<path d="M115 79.8283H111V75H115V79.8283ZM114.892 107H111.112V84.3105H114.892V107Z" fill="white"/>
<path d="M140 99.8848C140 101.414 139.578 102.713 138.734 103.779C137.889 104.848 136.721 105.651 135.232 106.189C133.743 106.733 132.015 107 130.047 107C128.62 107 127.323 106.908 126.163 106.72C125.003 106.532 123.919 106.21 122.915 105.747C121.911 105.283 120.938 104.627 120 103.779L123.164 100.817C124.777 102.375 127.074 103.152 130.051 103.152C131.033 103.152 131.931 103.035 132.735 102.805C133.539 102.576 134.166 102.229 134.614 101.765C135.059 101.305 135.281 100.733 135.281 100.056C135.281 98.4392 134.215 97.5535 132.082 97.3948L128.26 97.0897C126.736 96.9602 125.448 96.6553 124.395 96.1831C123.341 95.7068 122.542 95.0299 121.995 94.1484C121.449 93.2669 121.177 92.1806 121.177 90.8812C121.177 88.7588 122.035 87.0834 123.746 85.8509C125.457 84.6184 127.607 84 130.184 84C134.041 84 136.996 84.844 139.054 86.5319L136.041 89.4106C134.646 88.3159 132.682 87.7644 130.149 87.7644C128.736 87.7644 127.66 88.0234 126.914 88.5415C126.172 89.0596 125.799 89.7699 125.799 90.664C125.799 92.1764 126.901 93.0287 129.113 93.2167L132.886 93.5426C134.375 93.6596 135.65 93.9605 136.716 94.4493C137.783 94.9381 138.596 95.64 139.156 96.5466C139.716 97.4533 139.995 98.5646 139.995 99.8765L140 99.8848Z" fill="white"/>
<path d="M163 95.4877C163 97.5645 162.81 99.2945 162.429 100.682C162.047 102.069 161.339 103.285 160.302 104.338C158.577 106.114 156.302 107 153.477 107C150.651 107 148.423 106.114 146.699 104.338C145.673 103.285 144.97 102.061 144.58 100.669C144.191 99.2778 144 97.5478 144 95.4877C144 93.4275 144.199 91.7518 144.593 90.3353C144.987 88.9228 145.69 87.6943 146.699 86.6579C147.194 86.1398 147.775 85.6843 148.431 85.2957C149.088 84.907 149.855 84.5936 150.723 84.3554C151.592 84.1172 152.511 84.0002 153.477 84.0002C154.985 84.0002 156.307 84.2468 157.446 84.7357C158.585 85.2246 159.539 85.8681 160.298 86.6621C161.323 87.7152 162.026 88.9395 162.416 90.3311C162.801 91.7226 162.996 93.4442 162.996 95.4918L163 95.4877ZM158.416 95.4961C158.416 94.0251 158.315 92.7924 158.107 91.7894C157.904 90.7866 157.476 89.9716 156.836 89.3365C156.002 88.4882 154.883 88.062 153.481 88.062C152.079 88.062 151.007 88.4882 150.147 89.3365C149.516 89.9716 149.101 90.7866 148.897 91.7894C148.694 92.7924 148.588 94.0251 148.588 95.4961C148.588 96.967 148.69 98.1789 148.897 99.1817C149.101 100.185 149.52 100.999 150.147 101.635C151.054 102.529 152.168 102.976 153.481 102.976C154.794 102.976 155.959 102.529 156.836 101.635C157.48 100.999 157.904 100.185 158.107 99.1817C158.311 98.1789 158.416 96.9544 158.416 95.4961Z" fill="white"/>
</svg>
