<svg width="181" height="181" viewBox="0 0 181 181" fill="none" xmlns="http://www.w3.org/2000/svg">
<g clip-path="url(#clip0_1355_21077)">
<rect width="181" height="181" fill="white"/>
<path d="M168.61 108.642C153.695 79.34 134.641 53.512 111.447 31.1578C108.129 27.9492 104.547 25.0985 100.452 21.0281C100.295 20.87 100.174 20.6792 100.096 20.4686C100.019 20.2581 99.9876 20.0329 100.004 19.8083L101.44 -0.371465C101.453 -0.587345 101.549 -0.789914 101.708 -0.937774C101.867 -1.08563 102.077 -1.16762 102.296 -1.16699H176.537C176.601 -1.16708 176.665 -1.15412 176.723 -1.12896C176.782 -1.10379 176.835 -1.06695 176.878 -1.0208C176.921 -0.974652 176.955 -0.920195 176.975 -0.860902C176.996 -0.801609 177.004 -0.738779 176.998 -0.676416L169.216 108.522C169.214 108.595 169.188 108.665 169.142 108.72C169.095 108.775 169.031 108.813 168.961 108.827C168.89 108.841 168.817 108.83 168.753 108.797C168.689 108.763 168.639 108.708 168.61 108.642Z" fill="#A50E2D"/>
<path d="M32.1229 181.249L32.4689 150.627C32.469 150.539 32.4824 150.45 32.5088 150.362C32.8993 149.344 33.0945 148.672 33.0945 148.344C33.0324 98.2329 26.6746 48.6966 14.0212 -0.264403C13.995 -0.371604 13.9931 -0.483332 14.0155 -0.591184C14.038 -0.699037 14.0843 -0.800205 14.1509 -0.887083C14.2175 -0.97396 14.3027 -1.04428 14.4001 -1.09277C14.4976 -1.14125 14.6046 -1.16663 14.7133 -1.16699H41.7593C41.9792 -1.16693 42.1965 -1.11671 42.3947 -1.02014C42.593 -0.923573 42.7672 -0.783166 42.904 -0.60951C57.4918 17.637 70.2162 38.1576 81.0772 60.9524C85.1411 69.4827 88.0871 76.5309 89.915 82.0969C89.9851 82.298 90.0123 82.5061 89.9949 82.7074L82.9139 181.076C82.9004 181.282 82.8103 181.474 82.662 181.615C82.5137 181.755 82.3182 181.833 82.1153 181.833H32.7085C32.5532 181.833 32.4042 181.771 32.2944 181.662C32.1846 181.552 32.1229 181.404 32.1229 181.249Z" fill="#E30521"/>
<path d="M90.7695 69.6188C90.7637 69.6706 90.7417 69.719 90.7067 69.757C90.6716 69.7949 90.6255 69.8203 90.5751 69.8293C90.5247 69.8384 90.4728 69.8306 90.4271 69.8072C90.3815 69.7837 90.3445 69.7459 90.3217 69.6993C79.6974 44.911 66.2855 21.5302 50.0857 -0.443183C50.0374 -0.510712 50.0083 -0.590444 50.0015 -0.673672C49.9948 -0.756899 50.0106 -0.840421 50.0473 -0.915117C50.084 -0.989813 50.1401 -1.05281 50.2096 -1.09723C50.2791 -1.14165 50.3593 -1.16578 50.4413 -1.16699H60.8329C61.2286 -1.16725 61.6211 -1.05112 61.9655 -0.831895C72.9497 6.16492 83.4554 13.957 93.4826 22.5445C93.6577 22.6888 93.7958 22.8751 93.8852 23.0874C93.9746 23.2998 94.0127 23.532 93.9963 23.7642L90.7695 69.6188Z" fill="#E30521"/>
<path d="M-1 181.833V-0.127296L7.23438 -0.16699C7.43166 -0.167392 7.62382 -0.101476 7.78104 0.0205339C7.93826 0.142544 8.05176 0.313829 8.10393 0.507819C23.3255 59.7675 29.3508 119.962 26.18 181.092C26.1699 181.285 26.0863 181.467 25.9466 181.6C25.8068 181.733 25.6216 181.807 25.4291 181.807L-1 181.833Z" fill="#E30521"/>
<path d="M98.8106 27.1459C98.8169 27.0825 98.8404 27.0219 98.8785 26.971C98.9167 26.9201 98.9681 26.8808 99.027 26.8573C99.086 26.8339 99.1502 26.8272 99.2126 26.8381C99.2751 26.849 99.3333 26.8769 99.381 26.919C128.539 53.0161 151.303 83.7773 167.672 119.202C167.924 119.736 168.034 120.325 167.991 120.911L163.679 181.432C163.673 181.541 163.625 181.643 163.546 181.717C163.467 181.792 163.363 181.833 163.255 181.833H117.051C116.913 181.833 116.781 181.781 116.68 181.687C116.579 181.593 116.517 181.464 116.507 181.326C114.402 146.906 107.283 113.631 95.1493 81.4987C95.0357 81.1906 94.986 80.8679 95.0034 80.5508L98.8106 27.1459Z" fill="#A50E2D"/>
<path d="M94.8324 97.1127C103.808 123.655 109.196 151.583 110.998 180.896C111.006 181.017 110.988 181.138 110.948 181.251C110.907 181.364 110.844 181.468 110.763 181.556C110.681 181.644 110.583 181.714 110.474 181.761C110.365 181.809 110.247 181.833 110.128 181.833H88.6877C88.593 181.833 88.4993 181.814 88.4125 181.776C88.3257 181.738 88.2476 181.683 88.1832 181.614C88.1188 181.544 88.0695 181.462 88.0383 181.373C88.0071 181.284 87.9948 181.189 88.002 181.094L94.0148 97.2182C94.0233 97.1223 94.0642 97.0322 94.1308 96.9628C94.1974 96.8934 94.2858 96.8488 94.3812 96.8365C94.4766 96.8242 94.5734 96.8448 94.6554 96.8951C94.7375 96.9453 94.7999 97.0221 94.8324 97.1127Z" fill="#A50E2D"/>
<path d="M174.005 132.052L181.909 155.026C181.969 155.221 182 155.425 182 155.629V181.404C182 181.46 181.99 181.516 181.969 181.568C181.949 181.62 181.92 181.668 181.882 181.707C181.845 181.747 181.801 181.779 181.752 181.8C181.703 181.822 181.651 181.833 181.598 181.833H170.338C170.291 181.833 170.245 181.823 170.203 181.804C170.16 181.785 170.122 181.757 170.09 181.722C170.058 181.686 170.034 181.645 170.019 181.599C170.003 181.554 169.997 181.506 170.001 181.458L173.422 132.132C173.424 132.059 173.451 131.989 173.498 131.935C173.546 131.881 173.61 131.845 173.68 131.836C173.75 131.826 173.822 131.842 173.881 131.882C173.941 131.922 173.984 131.982 174.005 132.052Z" fill="#E30521"/>
</g>
<defs>
<clipPath id="clip0_1355_21077">
<rect width="181" height="181" fill="white"/>
</clipPath>
</defs>
</svg>
