<svg width="181" height="181" viewBox="0 0 181 181" fill="none" xmlns="http://www.w3.org/2000/svg">
<rect width="181" height="181" fill="#0A93D5"/>
<path d="M146.027 48.3242L36.0987 80.7714C35.4919 80.9505 35.1457 81.5859 35.3255 82.1905L35.3588 82.3028C35.5386 82.9075 36.1762 83.2525 36.783 83.0734L146.711 50.6262C147.318 50.4471 147.664 49.8117 147.484 49.207L147.451 49.0947C147.271 48.4901 146.633 48.1451 146.027 48.3242Z" fill="white"/>
<path d="M50.7991 104.258H37.6359C37.0517 104.258 36.5781 104.73 36.5781 105.312V146.946C36.5781 147.528 37.0517 148 37.6359 148H50.7991C51.3833 148 51.8568 147.528 51.8568 146.946V105.312C51.8568 104.73 51.3833 104.258 50.7991 104.258Z" fill="white"/>
<path d="M59.2348 133.8C63.0153 136.201 67.0112 137.47 71.2227 137.607C71.8776 137.622 72.5177 137.412 73.0354 137.012C73.553 136.612 73.9166 136.046 74.0649 135.41C74.2132 134.775 74.1372 134.107 73.8496 133.521C73.5621 132.934 73.0806 132.464 72.4861 132.19C66.8154 129.643 58.2652 125.046 58.5296 116.995C58.9997 102.795 76.629 101.916 86.09 107.743C86.5317 108.02 86.8954 108.401 87.1473 108.852C87.3991 109.303 87.5307 109.808 87.5298 110.319V118.429C87.5288 118.574 87.4867 118.715 87.4082 118.837C87.3297 118.959 87.2178 119.057 87.0845 119.12C86.9513 119.184 86.8018 119.21 86.6524 119.197C86.503 119.183 86.3593 119.13 86.2369 119.044C83.2106 116.76 76.9816 113.071 73.4851 115.56C73.1518 115.797 72.8898 116.117 72.7233 116.49C72.5568 116.864 72.491 117.28 72.5319 117.699C72.5728 118.119 72.7192 118.529 72.9576 118.892C73.196 119.254 73.5188 119.558 73.8964 119.776C78.3038 122.323 88.2349 126.686 88.9401 133.508C90.6443 150.226 70.1062 149.523 59.2641 145.482C59.0202 145.388 58.8109 145.225 58.664 145.016C58.5171 144.807 58.4394 144.561 58.4414 144.311V134.24C58.4444 134.149 58.471 134.06 58.5186 133.982C58.5663 133.904 58.6333 133.84 58.7132 133.796C58.7931 133.752 58.8832 133.729 58.9746 133.73C59.066 133.73 59.1556 133.755 59.2348 133.8Z" fill="white"/>
<path d="M134.13 116.907C133.269 116.692 131.143 116.107 127.754 115.15C107.069 109.47 101.898 136.67 121.32 137.285C121.931 137.304 122.562 137.148 123.116 136.84C123.671 136.532 124.119 136.088 124.395 135.576C124.67 135.064 124.756 134.512 124.642 134.001C124.527 133.491 124.217 133.05 123.758 132.747C123.19 132.395 122.27 132.268 120.997 132.366C120.749 132.386 120.5 132.355 120.265 132.274C120.031 132.194 119.815 132.065 119.633 131.898C119.451 131.73 119.306 131.526 119.206 131.299C119.107 131.072 119.057 130.827 119.057 130.58V124.578C119.057 124.19 119.212 123.817 119.488 123.543C119.763 123.268 120.137 123.114 120.526 123.114H133.602C134.303 123.114 134.975 123.392 135.471 123.886C135.967 124.38 136.246 125.05 136.246 125.749V142.994C136.244 144.013 135.863 144.995 135.179 145.747C134.494 146.5 133.555 146.969 132.544 147.064C115.443 148.82 95.2284 148.147 94.1413 128.062C92.9073 105.459 118.117 100.745 134.747 106.484C135.178 106.64 135.549 106.926 135.812 107.303C136.075 107.68 136.216 108.13 136.217 108.592V115.297C136.215 115.553 136.156 115.806 136.043 116.036C135.93 116.266 135.766 116.467 135.564 116.623C135.362 116.779 135.128 116.885 134.879 116.935C134.631 116.984 134.374 116.974 134.13 116.907Z" fill="white"/>
</svg>
