<svg width="181" height="181" viewBox="0 0 181 181" fill="none" xmlns="http://www.w3.org/2000/svg">
<rect width="181" height="181" fill="#DEDEDE"/>
<path d="M114.678 45.292C115.103 45.3153 115.52 45.4069 115.914 45.5625C119.024 46.8227 122.173 48.8338 125.36 51.5967C131.798 57.1737 133.175 65.8159 131.519 73.8232C130.656 78.0029 127.634 81.7242 124.742 84.5303C124.628 84.6414 124.489 84.7251 124.338 84.7744C124.187 84.8237 124.027 84.838 123.87 84.8154C123.713 84.7927 123.564 84.7335 123.435 84.6436C123.305 84.5535 123.197 84.4347 123.121 84.2959C122.056 82.3939 120.314 81.3023 117.896 81.0205C113.644 80.5196 109.725 80.2724 106.141 80.2803V80.2793L78.8203 80.1396C79.5278 68.2577 79.3375 56.4539 78.249 44.7285L102.747 44.6816L114.678 45.292ZM50.9082 44.7188L78.2451 44.7305C79.3336 56.4556 79.5239 68.259 78.8164 80.1406C72.1732 80.243 65.4754 80.4446 59.1045 78.1514L58.4893 77.9219C48.11 73.3038 42.279 65.1634 40.9961 53.501V47.583L41.3809 45.5869C41.4172 45.4126 41.5103 45.2555 41.6455 45.1406C41.7807 45.0258 41.9502 44.9599 42.127 44.9531L50.9082 44.7188Z" fill="url(#paint0_linear_1381_47130)"/>
<path d="M115.503 101.419C109.893 113.031 109.718 124.185 111.934 136.595C105.811 138.25 98.8016 137.839 91.501 137.651V137.65L81.2891 137.72C81.2892 137.722 81.2899 137.724 81.29 137.727L40.9961 137.667V127.547C43.0953 114.702 50.2792 106.597 62.5479 103.231C67.0253 101.995 73.4383 101.81 81.7861 102.678C81.7866 102.676 81.7876 102.675 81.7881 102.674L93.1709 102.615L93.1699 102.616C100.482 102.651 108.284 102.887 115.503 101.419ZM137.764 82.8545C137.903 82.847 138.041 82.8814 138.16 82.9532C138.28 83.025 138.375 83.1312 138.435 83.2578C139.119 84.7605 139.635 86.3963 139.985 88.1651C143.041 103.444 139.184 116.399 128.416 127.028C123.743 131.639 118.251 134.829 111.938 136.598C109.722 124.187 109.896 113.033 115.506 101.421C126.34 99.3075 133.804 93.4607 137.14 83.3282C137.185 83.1957 137.269 83.0795 137.38 82.9952C137.491 82.9109 137.625 82.8621 137.764 82.8545Z" fill="url(#paint1_linear_1381_47130)"/>
<defs>
<linearGradient id="paint0_linear_1381_47130" x1="132.16" y1="64.7537" x2="40.9961" y2="64.7537" gradientUnits="userSpaceOnUse">
<stop stop-color="#3C306E"/>
<stop offset="1" stop-color="#6E589F"/>
</linearGradient>
<linearGradient id="paint1_linear_1381_47130" x1="140.998" y1="110.345" x2="40.9961" y2="110.345" gradientUnits="userSpaceOnUse">
<stop stop-color="#6E589F"/>
<stop offset="1" stop-color="#3C306E"/>
</linearGradient>
</defs>
</svg>
