<svg width="181" height="181" viewBox="0 0 181 181" fill="none" xmlns="http://www.w3.org/2000/svg">
<rect width="181" height="181" fill="#88BBE4"/>
<path fill-rule="evenodd" clip-rule="evenodd" d="M18 52.2598H164V130.26H18V52.2598Z" fill="#88BBE4"/>
<path d="M147.178 118.282C145.794 118.48 144.853 119.999 145.019 121.649C145.185 123.299 146.486 124.487 147.87 124.223C149.254 123.992 150.168 122.54 149.974 120.857C149.836 119.206 148.562 118.084 147.178 118.282Z" fill="white"/>
<path d="M89.1713 86.2786C87.7916 86.4436 86.8534 87.7088 87.0189 89.0839C87.1845 90.459 88.4814 91.4491 89.8611 91.2291C91.2408 91.0366 92.1238 89.8265 91.9859 88.4238C91.8203 87.0487 90.551 86.1136 89.1713 86.2786Z" fill="white"/>
<path d="M97.1713 86.2786C95.7916 86.4436 94.8534 87.7088 95.0189 89.0839C95.1845 90.459 96.4814 91.4491 97.8611 91.2291C99.2408 91.0366 100.124 89.8265 99.9859 88.4238C99.8203 87.0487 98.551 86.1136 97.1713 86.2786Z" fill="white"/>
<path d="M61.8126 98.5863H78.2621V95.2598H58V114.26H79V110.933H61.8126V106.048V102.722V98.5863Z" fill="white"/>
<path d="M104.888 97.897C102.824 96.1288 100.051 95.2598 96.6316 95.2598H84V114.26H97.2786C98.8498 114.26 100.359 113.99 101.807 113.481C103.163 113.001 104.118 112.462 104.734 111.772C106.922 109.495 108 107.097 108 104.61C108 101.883 106.952 99.6352 104.888 97.897ZM102.116 109.195C100.914 110.334 99.4044 110.903 97.525 110.903H87.8203V98.5863H96.9397C99.0655 98.5863 100.76 99.1557 102.023 100.294C103.286 101.433 103.933 102.962 103.933 104.85C103.902 106.618 103.317 108.086 102.116 109.195Z" fill="white"/>
<path d="M153.832 97.897C151.752 96.1288 148.957 95.2598 145.509 95.2598H136.627V98.5863H145.789C147.932 98.5863 149.64 99.1557 150.913 100.324C152.186 101.463 152.839 102.992 152.839 104.88C152.839 106.648 152.248 108.086 151.037 109.225C149.826 110.364 148.304 110.933 146.41 110.933H129.826C131.503 108.895 132.342 106.828 132.342 104.64C132.342 101.913 131.286 99.6651 129.205 97.897C127.124 96.1288 124.329 95.2598 120.882 95.2598H112V98.5863H121.193C123.335 98.5863 125.043 99.1557 126.317 100.324C127.59 101.463 128.242 102.992 128.242 104.88C128.242 106.648 127.652 108.086 126.441 109.225C125.23 110.364 123.708 110.933 121.814 110.933H112.031V114.26H121.565H146.193C147.776 114.26 149.298 113.99 150.758 113.481C152.093 113.001 153.087 112.432 153.708 111.802C155.913 109.525 157 107.127 157 104.64C156.969 101.883 155.913 99.6352 153.832 97.897Z" fill="white"/>
<path d="M48.1941 108.358C48.1941 109.646 47.7886 110.536 46.9775 111.057C46.1664 111.579 44.825 111.855 42.9844 111.855C41.2998 111.855 40.0832 111.579 39.3033 111.027C38.5234 110.474 38.0555 109.524 37.8995 108.174H34C34.312 112.898 37.2444 115.26 42.7972 115.26C45.8232 115.26 48.1005 114.677 49.6603 113.481C51.2201 112.284 52 110.597 52 108.358V95.2598H48.1317V108.358H48.1941Z" fill="white"/>
<path d="M36.5149 101.65C33.9042 99.9098 32 97.2998 32 94.0298C32 92.4698 32.43 90.7898 33.2592 89.0498C35.7163 84.0698 41.7054 80.6798 49.3838 77.9198C57.0928 75.1898 66.6446 73.2398 76.4422 71.7998C96.0373 68.9498 116.615 68.6498 125 68.6498V68.2598V71.4698C112.684 71.4398 72.6645 73.0898 50.4894 80.9498C43.0875 83.5298 37.8355 86.8898 36.2077 90.4298C35.532 91.8398 35.2556 93.0398 35.2556 94.0598C35.2556 96.0998 36.2999 97.5998 38.3577 99.0398C40.4154 100.45 43.4561 101.53 46.8038 102.28C53.53 103.81 61.5155 104.05 65.8154 104.05C67.781 104.05 68.9789 103.99 68.9789 103.99V107.2C68.9481 107.2 67.8425 107.26 65.8154 107.26C59.1506 107.2 44.316 106.84 36.5149 101.65Z" fill="#E2E1E0"/>
<path d="M115.006 66.2598C104.919 66.6541 90.6992 67.5946 76.9656 69.6575C67.2731 71.1137 57.8237 73.0856 50.1973 75.8463C42.6013 78.6373 36.6765 82.0654 34.2457 87.1013C33.4254 88.8609 33 90.5598 33 92.1373C33 92.5317 33.0304 92.8957 33.0608 93.2598C33.2127 92.0159 33.6077 90.7114 34.2154 89.3463C36.6461 84.3103 42.571 80.8822 50.167 78.0912C57.7933 75.3306 67.2427 73.3586 76.9352 71.9025C96.3202 69.0204 116.677 68.2923 124.972 68.2923C125.61 68.262 115.006 66.2598 115.006 66.2598Z" fill="white"/>
<path d="M128 66.2598V71.2598L150 66.2598H128Z" fill="#E2E1E0"/>
</svg>
