<svg width="181" height="181" viewBox="0 0 181 181" fill="none" xmlns="http://www.w3.org/2000/svg">
<rect width="181" height="181" fill="#004098"/>
<path d="M32.6445 125.185C35.9527 131.557 38.2396 138.577 39.2165 146C39.0833 144.413 38.9723 142.781 38.9056 141.171C38.4394 128.74 40.3932 117.382 44.0344 108.372C42.125 107.924 40.3711 107.164 38.7503 106.136C36.0415 111.658 33.9545 118.097 32.6445 125.185Z" fill="white"/>
<path d="M94.304 102.802C93.9583 102.314 93.6344 101.826 93.2888 101.36C91.5826 99.0093 89.7683 96.8581 87.8675 94.973C87.4355 94.5517 87.0035 94.1302 86.5715 93.7312C85.7076 92.9328 84.8221 92.1787 83.915 91.4912C83.375 91.9791 82.8135 92.4449 82.2734 92.9328C83.0294 93.5537 83.7853 94.2412 84.5197 94.973C84.93 95.3945 85.362 95.8158 85.7724 96.2593C87.4787 98.1222 89.0987 100.229 90.6105 102.58C90.9345 103.068 91.2369 103.578 91.5394 104.088C92.0794 105.02 92.6192 105.973 93.1376 106.949H96.9175C96.075 105.507 95.1896 104.132 94.304 102.802Z" fill="white"/>
<path d="M65.9951 84.9834C65.6572 84.9834 65.2966 84.9834 64.9587 85.0064C62.0522 85.144 59.2582 85.809 56.577 86.9786C55.9913 87.2308 55.428 87.5061 54.8646 87.8042C53.6931 88.4234 52.544 89.1571 51.4174 89.9597C50.8316 90.3725 50.2683 90.8311 49.705 91.2898C46.7084 93.7894 43.982 97 41.5938 100.761C43.0133 101.632 44.658 102.068 46.4379 102.068C46.6183 102.068 46.7984 102.068 47.0012 102.045C48.7813 98.9493 50.7866 96.2663 52.972 94.0875C53.4 93.6519 53.8507 93.2391 54.2789 92.8493C55.2478 91.9779 56.2615 91.2211 57.2981 90.5561C57.8162 90.2349 58.3345 89.9138 58.8528 89.6388C61.1059 88.4462 63.4715 87.6895 65.95 87.46C66.4908 87.4142 67.0541 87.3914 67.5948 87.3914C68.3833 87.3914 69.1495 87.4372 69.938 87.5519C70.5237 86.9327 71.1097 86.3135 71.6954 85.6715C69.8029 85.2128 67.9103 84.9834 65.9951 84.9834Z" fill="white"/>
<path d="M32.6406 83.5284C31.5214 83.336 30.4237 82.9992 29.3906 82.542C29.735 85.7898 30.2515 88.7967 30.9403 91.4911C31.8012 90.6973 32.6406 89.9516 33.4584 89.2779C33.1141 87.4978 32.8343 85.5733 32.6406 83.5284Z" fill="white"/>
<path d="M58.8247 101.31C58.8021 101.287 58.3071 100.602 57.587 99.6209C54.2119 101.607 51.0392 102.817 48.1591 103.137C47.5965 103.205 47.0566 103.228 46.5166 103.228C46.359 103.228 46.2241 103.228 46.0889 103.228C44.1313 103.159 42.3538 102.657 40.7336 101.675C40.2386 101.379 39.7436 101.013 39.2936 100.625C39.2712 100.602 39.2486 100.58 39.2262 100.58C38.3936 99.8491 37.6511 99.0045 36.9535 98C36.346 98.7077 35.716 99.4838 35.0859 100.306C35.626 101.036 36.211 101.698 36.8185 102.292C37.156 102.612 37.4936 102.931 37.8311 103.228C38.3036 103.616 38.7762 103.981 39.2712 104.324C40.8688 105.374 42.6239 106.105 44.514 106.538C45.0989 106.675 45.7065 106.767 46.3364 106.835C47.034 106.904 47.7541 106.949 48.4966 106.949C52.2993 106.949 56.5296 105.899 61.1198 103.89C60.2872 103.091 59.5223 102.246 58.8247 101.31Z" fill="white"/>
<path d="M99.0027 50.0224C91.1314 64.3293 82.8732 76.1549 74.9335 85.0296C74.5013 85.5214 74.069 85.9909 73.6368 86.4603C73.1135 87.0414 72.5675 87.6003 72.0442 88.1368C71.5438 88.651 71.0661 89.1428 70.5656 89.6346C68.1769 92.0043 65.8336 94.1055 63.5586 95.8939C63.8772 96.2963 64.1729 96.654 64.3776 96.9223C65.6971 98.5095 67.5854 99.4931 69.6557 99.6271C72.613 97.7716 75.6842 95.6033 78.8237 93.0997C79.3015 92.7196 79.7791 92.3396 80.257 91.9372C80.8258 91.4677 81.3944 90.9983 81.9405 90.5288C82.3955 90.1488 82.8732 89.7464 83.3281 89.344C94.3845 79.7539 106.237 66.4753 118.067 50H99.0027V50.0224Z" fill="white"/>
<path d="M95.2922 100.441C95.8732 100.174 96.4766 99.8856 97.08 99.5747C114.197 91.094 136.857 75.5533 163.628 50H139.94C136.075 54.2848 131.896 58.6362 127.426 63.0098C114.085 76.0861 100.298 87.1645 89.6162 93.8248L89.5938 93.8469C91.5826 95.8228 93.4821 98.0208 95.2922 100.441Z" fill="white"/>
<path d="M48.2018 84.9834C47.1331 84.9834 45.9733 85.1169 44.7223 85.3842C41.7659 86.0074 38.6046 87.6773 35.5117 89.8146C34.9886 90.1707 34.4655 90.5493 33.9652 90.9277C33.101 91.5733 32.2595 92.2413 31.418 92.9314C30.9177 93.332 30.4401 93.7551 29.9625 94.178C23.8675 99.499 18.9552 105.421 18 106.735C20.388 108.805 22.6395 111.053 24.6863 113.458C26.7331 109.762 29.6896 104.798 33.0782 100.345C33.4648 99.8553 33.8515 99.3431 34.2381 98.8755C34.8749 98.0742 35.5344 97.3172 36.2167 96.5825C36.6488 96.1149 37.0809 95.6475 37.513 95.2244C39.7872 92.9314 42.1298 91.128 44.4721 90.2152C46.2006 89.5474 47.7927 89.2135 49.1798 89.2135C49.3391 89.2135 49.4755 89.2135 49.612 89.2356C50.9538 88.1892 52.3638 87.2766 53.7966 86.4974C52.2274 85.5177 50.408 84.9834 48.2018 84.9834Z" fill="white"/>
<path d="M83.7648 96.8119C80.3749 98.6466 77.4596 99.8621 75.1772 100.367C73.3693 100.757 71.7421 101.055 70.228 101.078C69.2788 101.078 68.3749 100.917 67.5161 100.642C65.7761 100.092 64.2394 99.0136 63.1321 97.5917C62.906 97.3164 61.5952 95.5964 61.2111 95.0918C60.3072 93.8992 59.2902 92.5461 58.4766 91.4912C57.5953 92.0416 56.7138 92.6837 55.8778 93.3946C55.7195 93.5324 55.5613 93.6699 55.4258 93.7846C56.149 94.7479 59.4936 99.3576 60.6461 100.848C60.714 100.94 60.9625 101.215 60.9625 101.238C63.8778 104.724 68.2167 106.949 73.0981 106.949H73.1207C73.2111 106.949 73.5952 106.949 73.7534 106.949C74.0699 106.949 74.3863 106.926 74.7026 106.903C74.8383 106.903 75.1997 106.857 75.2449 106.857C78.5445 106.513 83.1546 105.389 88.7817 103.165C87.1772 100.779 85.5048 98.6466 83.7648 96.8119Z" fill="white"/>
</svg>
