<svg width="181" height="181" viewBox="0 0 181 181" fill="none" xmlns="http://www.w3.org/2000/svg">
<rect width="181" height="181" fill="#E7EBFF"/>
<path d="M102.59 72.3533C102.475 72.4159 102.3 72.4211 102.065 72.3689C102.034 72.1291 101.937 71.9127 101.775 71.7198C96.0815 64.8166 92.757 60.7836 91.8019 59.6209C88.3261 55.4237 85.6122 52.8037 83.6603 51.7609C80.2575 49.9465 76.5233 49.2296 72.4577 49.6102C72.2651 49.631 72.0711 49.6703 71.8784 49.7275C70.6833 50.0925 69.4881 50.3271 68.293 50.4314C77.6245 44.8108 86.9952 39.2267 96.4051 33.679C110.943 25.1152 127.719 38.4341 123.272 54.5295C122.114 58.7111 119.533 62.035 115.53 64.5011C111.23 67.1498 106.916 69.7672 102.59 72.3533Z" fill="#1EB9EE"/>
<path d="M102.169 72.5507C102.086 72.7529 101.928 72.924 101.695 73.064C97.5827 75.532 93.463 77.987 89.3355 80.4291C84.0738 83.54 80.2881 85.2977 77.9783 85.7021C73.1983 86.5265 68.4079 85.3366 63.6072 82.1323C58.4542 77.4504 56.3154 71.8741 57.1906 65.4034C58.0969 58.6941 61.9189 53.8048 68.6565 50.7354C69.8424 50.6317 71.0284 50.3984 72.2143 50.0354C72.4055 49.9785 72.598 49.9395 72.7892 49.9188C76.8235 49.5403 80.5289 50.2532 83.9055 52.0575C85.8424 53.0945 88.5353 55.6999 91.9844 59.8737C92.9321 61.0299 96.231 65.0404 101.881 71.9052C102.042 72.097 102.137 72.3122 102.169 72.5507ZM86.2282 67.8688C86.2282 64.9006 85.0504 62.054 82.9541 59.9551C80.8577 57.8563 78.0144 56.6772 75.0497 56.6772C72.085 56.6772 69.2417 57.8563 67.1454 59.9551C65.049 62.054 63.8713 64.9006 63.8713 67.8688C63.8713 70.8369 65.049 73.6835 67.1454 75.7824C69.2417 77.8812 72.085 79.0603 75.0497 79.0603C78.0144 79.0603 80.8577 77.8812 82.9541 75.7824C85.0504 73.6835 86.2282 70.8369 86.2282 67.8688Z" fill="#02115D"/>
<path d="M102.503 72.4043C102.498 72.6186 102.526 72.7623 102.588 72.8355C107.047 78.3598 110.206 82.2535 112.064 84.5166C114.366 87.3232 115.805 91.9407 115.713 95.8214C115.397 109.839 100.879 118.204 88.8464 111.399C87.1477 110.437 84.8767 108.229 82.0335 104.774C75.9468 97.3632 69.8601 89.7979 63.7734 82.0784C68.5309 85.3084 73.2781 86.5078 78.0151 85.6768C80.304 85.2692 84.0556 83.4974 89.2698 80.3616C93.3601 77.8999 97.4427 75.4252 101.518 72.9374C101.749 72.7963 101.905 72.6238 101.987 72.42C102.218 72.4722 102.39 72.467 102.503 72.4043Z" fill="#E4007F"/>
<path d="M79.0596 153.653C79.0645 153.661 79.067 153.671 79.067 153.68C79.0669 153.69 79.0644 153.699 79.0595 153.707C79.0547 153.716 79.0477 153.723 79.0393 153.727C79.0309 153.732 79.0214 153.735 79.0118 153.734H71.1255C71.0743 153.734 71.0239 153.721 70.979 153.696C70.9341 153.671 70.8963 153.635 70.869 153.592L63.2529 140.943C63.209 140.87 63.1469 140.809 63.0725 140.767C62.9982 140.724 62.9142 140.702 62.8288 140.702H60.3562C60.3099 140.702 60.2656 140.72 60.2329 140.753C60.2002 140.785 60.1818 140.829 60.1818 140.875V153.544C60.1818 153.569 60.1767 153.594 60.1669 153.617C60.1572 153.64 60.1428 153.661 60.1247 153.679C60.1066 153.696 60.0851 153.71 60.0615 153.72C60.0378 153.73 60.0125 153.734 59.9869 153.734H53.0992C53.0729 153.734 53.0476 153.724 53.029 153.707C53.0104 153.689 53 153.665 53 153.639V122.152C53 122.113 53.0159 122.075 53.0441 122.047C53.0723 122.019 53.1106 122.003 53.1505 122.003H60.0689C60.0989 122.003 60.1276 122.015 60.1487 122.036C60.1699 122.057 60.1818 122.085 60.1818 122.115V134.787C60.1818 134.823 60.1962 134.858 60.2219 134.883C60.2475 134.909 60.2823 134.923 60.3186 134.923H62.9109C62.9729 134.923 63.0339 134.907 63.0875 134.875C63.1411 134.843 63.1852 134.798 63.2152 134.743L70.1542 122.156C70.18 122.109 70.2181 122.071 70.2644 122.044C70.3107 122.017 70.3636 122.003 70.4175 122.003H77.9995C78.0068 122.003 78.0142 122.004 78.0207 122.008C78.0273 122.011 78.0327 122.016 78.0366 122.022C78.0404 122.029 78.0425 122.036 78.0426 122.043C78.0427 122.051 78.0408 122.058 78.0371 122.064L68.8957 137.515C68.8823 137.538 68.8752 137.563 68.8752 137.589C68.8752 137.615 68.8823 137.64 68.8957 137.661L79.0596 153.653Z" fill="#02115D"/>
<path d="M91.8985 122H84.963C84.895 122 84.8398 122.055 84.8398 122.122V153.616C84.8398 153.683 84.895 153.738 84.963 153.738H91.8985C91.9665 153.738 92.0216 153.683 92.0216 153.616V122.122C92.0216 122.055 91.9665 122 91.8985 122Z" fill="#02115D"/>
<path d="M113.39 131.968V131.663C113.39 131.548 113.424 131.434 113.489 131.336L119.638 122.133C119.665 122.093 119.702 122.061 119.744 122.038C119.786 122.016 119.833 122.004 119.881 122.004H127.849C127.862 122.004 127.875 122.008 127.886 122.015C127.897 122.022 127.906 122.031 127.912 122.042C127.918 122.054 127.921 122.066 127.92 122.078C127.919 122.091 127.915 122.103 127.907 122.113L117.853 137.163C117.83 137.195 117.818 137.233 117.818 137.272C117.818 137.311 117.83 137.349 117.853 137.38L128.984 153.599C128.993 153.613 128.998 153.628 128.999 153.644C129 153.66 128.997 153.675 128.99 153.689C128.983 153.703 128.972 153.715 128.959 153.723C128.946 153.731 128.931 153.735 128.916 153.735H120.763C120.701 153.735 120.64 153.721 120.586 153.692C120.532 153.664 120.486 153.623 120.452 153.572C116.056 147.015 113.817 143.677 113.735 143.557C113.537 143.258 113.53 142.826 113.421 142.575C113.415 142.561 113.404 142.549 113.391 142.541C113.378 142.533 113.362 142.53 113.347 142.531C113.332 142.533 113.317 142.539 113.306 142.55C113.294 142.56 113.287 142.574 113.284 142.589L113.12 143.258C113.106 143.314 113.083 143.368 113.051 143.418L106.444 153.586C106.413 153.632 106.372 153.67 106.323 153.696C106.274 153.722 106.219 153.735 106.163 153.735H98.2054C98.1831 153.735 98.1612 153.729 98.142 153.718C98.1228 153.707 98.1072 153.69 98.0966 153.671C98.0861 153.651 98.0811 153.629 98.0822 153.607C98.0833 153.585 98.0904 153.564 98.1028 153.545L108.773 137.574C108.802 137.531 108.818 137.481 108.818 137.429C108.818 137.378 108.802 137.327 108.773 137.285L98.4448 122.235C98.4293 122.213 98.4202 122.188 98.4185 122.161C98.4168 122.135 98.4227 122.108 98.4353 122.084C98.448 122.06 98.467 122.04 98.4904 122.026C98.5138 122.012 98.5406 122.004 98.5679 122.004H106.615C106.678 122.004 106.74 122.02 106.796 122.05C106.852 122.08 106.901 122.124 106.936 122.177L113.369 131.975C113.37 131.978 113.372 131.98 113.375 131.981C113.377 131.983 113.38 131.983 113.383 131.982C113.386 131.981 113.388 131.979 113.389 131.977C113.39 131.974 113.391 131.971 113.39 131.968Z" fill="#02115D"/>
</svg>
