<svg width="181" height="181" viewBox="0 0 181 181" fill="none" xmlns="http://www.w3.org/2000/svg">
<rect width="181" height="181" fill="#000066"/>
<path d="M59.5508 147.053L52.0077 139.478L87.5665 103.767H36.752V93.0533H81.611C84.2128 93.0601 86.7543 93.8383 88.9151 95.2898C91.076 96.7413 92.7593 98.8011 93.7531 101.209C94.7468 103.618 95.0064 106.267 94.4991 108.823C93.9917 111.379 92.7403 113.727 90.9024 115.572L59.5508 147.053Z" fill="#0000CC"/>
<path d="M98.2767 34.0533L105.912 41.6778L69.035 78.2802L142.752 78.2892V89.0533H75.0575C72.4197 89.0433 69.844 88.2582 67.6551 86.797C65.4662 85.3358 63.7622 83.2639 62.7579 80.8425C61.7536 78.4212 61.494 75.7589 62.0119 73.1913C62.5298 70.6237 63.802 68.2659 65.668 66.4151L98.2767 34.0533Z" fill="#0000CC"/>
<path d="M113.292 121.648C115.331 121.648 116.548 120.611 116.548 118.923C116.548 117.264 115.453 116.109 113.353 116.109H109.89V121.647L113.292 121.648ZM112.866 112.733C114.784 112.733 115.939 111.696 115.939 110.095C115.939 108.495 114.875 107.489 112.836 107.489H109.89V112.733H112.866ZM113.506 104.053C117.704 104.053 120.078 106.452 120.078 109.711C120.104 110.684 119.817 111.642 119.255 112.449C118.694 113.256 117.886 113.872 116.946 114.212C118.068 114.499 119.055 115.149 119.746 116.053C120.437 116.958 120.791 118.064 120.749 119.189C120.749 122.596 118.132 125.053 114.085 125.053H105.752V104.057L113.506 104.053Z" fill="#0000CC"/>
<path d="M138.483 125.053V116.345H128.991V125.053H124.752V104.053H128.991V112.494H138.483V104.053H142.752V125.052L138.483 125.053Z" fill="#0000CC"/>
</svg>
