<svg width="181" height="181" viewBox="0 0 181 181" fill="none" xmlns="http://www.w3.org/2000/svg">
<rect width="181" height="181" fill="#3155EC"/>
<path d="M34.4952 72C40.9001 72 48.9968 74.0214 49 82.495C49.0032 90.9719 40.9033 92.9967 34.5016 93C28.0999 93.0033 20 90.9786 20 82.505C19.9968 74.028 28.0935 72.0033 34.4952 72ZM23.8096 82.5017C23.8096 88.5925 30.0736 89.4861 34.5048 89.4861C38.936 89.4861 45.1968 88.5925 45.1968 82.4983C45.1968 76.4075 38.9328 75.5139 34.5016 75.5139C30.0736 75.5139 23.8096 76.4075 23.8096 82.5017Z" fill="black"/>
<path d="M131.21 78.6192H127.501C127.443 78.6189 127.386 78.5975 127.341 78.5585C127.295 78.5195 127.264 78.4653 127.253 78.405C126.822 76.2299 123.611 75.8083 121.836 75.6343C120.02 75.4536 112.965 75.2561 112.172 77.5919C111.534 79.4625 114.106 79.9845 115.409 80.1552C117.718 80.4586 120.648 80.8278 124.2 81.2628C127.555 81.6711 132.609 82.8323 131.94 87.7146C131.258 92.6739 123.353 93.0855 119.774 92.9884C115.495 92.8747 108.453 92.3058 108.001 86.3125C107.998 86.2801 108.002 86.2474 108.012 86.2167C108.022 86.1859 108.038 86.1576 108.059 86.1337C108.08 86.1098 108.105 86.0907 108.134 86.0777C108.162 86.0647 108.193 86.058 108.224 86.0582H111.662C111.716 86.058 111.768 86.078 111.81 86.1146C111.851 86.1512 111.88 86.2022 111.891 86.2589C112.321 88.4742 115.129 89.0833 116.919 89.2807C119.379 89.5551 121.717 89.5607 123.932 89.2974C124.943 89.177 129.062 88.5345 128.113 86.4698C127.574 85.2985 125.637 84.8836 124.5 84.7263C122.987 84.5166 120.275 84.1898 116.362 83.7458C114.128 83.4948 109.82 82.7419 108.727 80.2455C108.039 78.675 108.112 77.1747 108.947 75.7447C110.929 72.3448 117.827 71.8395 121.078 72.0369C124.958 72.2779 130.99 73.0609 131.427 78.3716C131.429 78.4031 131.426 78.4349 131.416 78.4648C131.406 78.4948 131.391 78.5223 131.37 78.5456C131.35 78.5689 131.325 78.5875 131.298 78.6002C131.27 78.6129 131.24 78.6193 131.21 78.6192Z" fill="black"/>
<path d="M148.028 72C151.009 72.0065 152.501 73.5305 153.786 76.0026C156.537 81.2984 159.271 86.5791 161.988 91.8447C161.997 91.8611 162.001 91.8794 162 91.8978C161.999 91.9163 161.994 91.9342 161.984 91.9498C161.974 91.9655 161.96 91.9783 161.944 91.9871C161.928 91.9959 161.91 92.0003 161.891 92H158.026C157.973 92.0001 157.92 91.9854 157.874 91.9575C157.827 91.9295 157.789 91.8894 157.764 91.8414L155.485 87.3794C155.467 87.3419 155.439 87.3101 155.404 87.2874C155.369 87.2646 155.329 87.2517 155.288 87.2499C153.556 87.1691 151.562 87.2176 148.005 87.2144C144.447 87.2079 142.457 87.1529 140.725 87.2305C140.684 87.2322 140.644 87.2452 140.609 87.2679C140.574 87.2907 140.546 87.3225 140.528 87.36L138.236 91.8155C138.211 91.8635 138.173 91.9036 138.126 91.9316C138.08 91.9595 138.027 91.9742 137.974 91.9741L134.109 91.9611C134.09 91.9615 134.072 91.957 134.056 91.9483C134.04 91.9395 134.026 91.9266 134.016 91.911C134.006 91.8953 134.001 91.8774 134 91.859C133.999 91.8406 134.003 91.8223 134.012 91.8058C136.741 86.5489 139.49 81.2757 142.256 75.9864C143.548 73.5176 145.046 71.9968 148.028 72ZM147.953 83.9754C151.507 83.9689 153.395 83.9614 153.618 83.9527C153.635 83.9518 153.651 83.9467 153.666 83.9378C153.681 83.9289 153.693 83.9165 153.701 83.9018C153.71 83.887 153.715 83.8704 153.715 83.8533C153.716 83.8362 153.713 83.8193 153.705 83.8039C153.489 83.3984 152.412 81.2542 150.475 77.3713C149.845 76.1072 149 75.4762 147.94 75.4784C146.881 75.4806 146.038 76.1148 145.412 77.381C143.487 81.2703 142.418 83.4178 142.204 83.8233C142.197 83.8387 142.193 83.8556 142.194 83.8727C142.195 83.8898 142.199 83.9064 142.208 83.9212C142.217 83.9359 142.229 83.9483 142.243 83.9572C142.258 83.9661 142.275 83.9712 142.292 83.9722C142.514 83.9808 144.401 83.9819 147.953 83.9754Z" fill="black"/>
<path d="M53 72.1221C53 72.0959 53.0106 72.0707 53.0296 72.0521C53.0485 72.0336 53.0741 72.0231 53.1009 72.0231L66.9467 72C70.1385 71.9945 73.2013 72.9668 75.4617 74.7032C77.722 76.4396 78.9948 78.7978 79 81.2592V82.6715C79.0041 85.1332 77.7401 87.4961 75.486 89.2405C73.2319 90.985 70.1724 91.9681 66.9803 91.9736L53.1345 92C53.1078 92 53.0821 91.9896 53.0632 91.971C53.0443 91.9524 53.0336 91.9273 53.0336 91.901L53 72.1221ZM56.7902 75.5539L56.8104 88.456C56.8104 88.4744 56.8178 88.492 56.8311 88.505C56.8443 88.518 56.8623 88.5253 56.881 88.5253L66.2573 88.5088C67.4106 88.5069 68.5525 88.3485 69.6175 88.0427C70.6825 87.7368 71.6499 87.2895 72.4644 86.7263C73.2789 86.1631 73.9245 85.495 74.3644 84.7602C74.8043 84.0254 75.0299 83.2383 75.0282 82.4438V81.5001C75.0248 79.8963 74.0967 78.3598 72.4482 77.2287C70.7996 76.0975 68.5655 75.4642 66.2371 75.4681L56.8608 75.4846C56.8515 75.4846 56.8424 75.4864 56.8338 75.4899C56.8252 75.4934 56.8174 75.4985 56.8109 75.5049C56.8043 75.5113 56.7991 75.519 56.7956 75.5274C56.792 75.5358 56.7902 75.5448 56.7902 75.5539Z" fill="black"/>
<path d="M101.983 82.0016C101.983 82.9605 101.983 83.4596 101.983 83.4991C101.983 83.5384 101.968 83.576 101.94 83.6038C101.913 83.6316 101.876 83.6472 101.838 83.6472H86.7239C86.6966 83.6472 86.6704 83.6579 86.6511 83.6771C86.6318 83.6962 86.6209 83.7222 86.6209 83.7492V88.3436C86.6209 88.396 86.6412 88.4462 86.6774 88.4832C86.7136 88.5203 86.7627 88.5411 86.8139 88.5411H103.862C103.898 88.5411 103.932 88.5556 103.957 88.5815C103.983 88.6075 103.997 88.6426 103.997 88.6793V91.8618C103.997 91.8984 103.983 91.9336 103.958 91.9595C103.933 91.9854 103.9 92 103.865 92L83.1206 91.9967C83.0932 91.9966 83.0665 91.9868 83.045 91.9689C83.0234 91.951 83.0081 91.926 83.0016 91.898C82.9995 91.8958 82.9995 88.5959 83.0016 81.9984C83.0016 75.4008 83.0027 72.1009 83.0048 72.0987C83.0113 72.0707 83.0266 72.0458 83.0482 72.0279C83.0698 72.0099 83.0964 72.0001 83.1239 72L103.868 72.0033C103.903 72.0033 103.937 72.0179 103.961 72.0438C103.986 72.0697 104 72.1049 104 72.1415V75.324C104 75.3607 103.986 75.3958 103.96 75.4217C103.935 75.4477 103.901 75.4622 103.865 75.4622L86.8172 75.4557C86.7918 75.4557 86.7667 75.4608 86.7433 75.4707C86.7199 75.4806 86.6986 75.4952 86.6807 75.5135C86.6627 75.5318 86.6485 75.5536 86.6388 75.5776C86.6291 75.6015 86.6241 75.6272 86.6241 75.6531L86.6209 80.2475C86.6209 80.2745 86.6318 80.3005 86.6511 80.3196C86.6704 80.3388 86.6966 80.3495 86.7239 80.3495L101.838 80.3561C101.876 80.3561 101.913 80.3717 101.94 80.3995C101.968 80.4272 101.983 80.4649 101.983 80.5042C101.983 80.5437 101.983 81.0428 101.983 82.0016Z" fill="black"/>
<path d="M42 106.557C43.0246 106.557 43.8758 106.131 44.5539 105.28C47.0754 102.107 49.0546 98.6444 53.6457 99.0294C55.3526 99.1749 56.7904 99.8658 57.9592 101.102C58.9299 102.129 59.9588 103.39 61.0458 104.885C61.7647 105.876 62.6849 106.439 63.8063 106.576C63.8597 106.583 63.9088 106.61 63.9444 106.65C63.98 106.691 63.9998 106.743 64 106.798V109.775C64 109.831 63.9781 109.885 63.9389 109.925C63.8998 109.965 63.8464 109.989 63.7901 109.99C60.0933 110.135 57.7978 106.493 55.7347 103.775C54.4174 102.039 51.673 101.969 50.3073 103.708C49.0438 105.314 48.0914 106.504 47.45 107.276C45.9389 109.092 44.1223 110 42 110C39.8777 110 38.061 109.092 36.55 107.276C35.9108 106.504 34.9594 105.314 33.6959 103.708C32.3302 101.969 29.5859 102.039 28.2686 103.775C26.2022 106.493 23.9067 110.135 20.2099 109.99C20.1536 109.989 20.1002 109.965 20.0611 109.925C20.0219 109.885 20 109.831 20 109.775V106.798C20.0002 106.743 20.02 106.691 20.0556 106.65C20.0912 106.61 20.1403 106.583 20.1937 106.576C21.3151 106.439 22.2364 105.876 22.9574 104.885C24.0444 103.39 25.0733 102.129 26.044 101.102C27.2128 99.8658 28.6506 99.1749 30.3575 99.0294C34.9486 98.6444 36.9278 102.107 39.4494 105.28C40.1252 106.131 40.9754 106.557 42 106.557Z" fill="white"/>
<path d="M78.4984 99C81.147 99 83.2305 100.173 84.7783 102.247C86.1979 104.15 87.4203 106.234 89.8094 106.544C89.8618 106.551 89.9101 106.576 89.9452 106.616C89.9803 106.655 89.9998 106.706 90 106.759V109.778C90.0001 109.808 89.9938 109.838 89.9817 109.866C89.9697 109.893 89.9519 109.918 89.9297 109.938C89.9075 109.959 89.8813 109.974 89.8526 109.984C89.824 109.994 89.7936 109.998 89.7634 109.996C85.8364 109.753 83.9797 107.266 81.916 104.391C80.9805 103.092 79.8413 102.442 78.4984 102.442C77.1554 102.442 76.0173 103.093 75.084 104.394C73.0203 107.266 71.1636 109.753 67.2366 109.999C67.2064 110.002 67.176 109.998 67.1474 109.988C67.1187 109.978 67.0925 109.962 67.0703 109.942C67.0481 109.921 67.0303 109.896 67.0183 109.869C67.0062 109.841 66.9999 109.811 67 109.781V106.762C67.0002 106.709 67.0197 106.658 67.0548 106.619C67.0899 106.579 67.1382 106.554 67.1906 106.548C69.5797 106.237 70.7988 104.15 72.2217 102.247C73.7663 100.173 75.8497 99 78.4984 99Z" fill="white"/>
<path d="M114.502 110C112.329 110 110.47 109.091 108.924 107.273C108.27 106.504 107.297 105.316 106.005 103.71C104.605 101.971 101.801 102.042 100.454 103.777C98.3437 106.494 95.9957 110.138 92.2147 109.994C92.1571 109.992 92.1025 109.969 92.0625 109.928C92.0224 109.888 92 109.835 92 109.779V106.802C92.0002 106.748 92.0204 106.695 92.0569 106.654C92.0933 106.614 92.1435 106.588 92.1981 106.581C93.3451 106.444 94.2863 105.88 95.0216 104.89C96.1333 103.395 97.1857 102.135 98.1785 101.108C99.3718 99.872 100.841 99.1802 102.587 99.0326C107.283 98.6477 109.307 102.109 111.89 105.281C112.581 106.13 113.45 106.555 114.498 106.555C115.546 106.555 116.417 106.129 117.11 105.278C119.69 102.106 121.71 98.6445 126.406 99.0294C128.152 99.1727 129.623 99.8624 130.818 101.098C131.811 102.125 132.863 103.386 133.975 104.88C134.71 105.871 135.652 106.434 136.799 106.571C136.853 106.578 136.903 106.604 136.94 106.645C136.976 106.686 136.996 106.738 136.997 106.792L137 109.766C137 109.822 136.978 109.875 136.938 109.916C136.897 109.956 136.843 109.979 136.785 109.981C133.004 110.128 130.656 106.487 128.543 103.771C127.196 102.035 124.389 101.968 122.995 103.706C121.703 105.312 120.729 106.501 120.073 107.273C118.529 109.089 116.672 109.998 114.502 110Z" fill="white"/>
<path d="M150.505 102.439C149.163 102.439 148.023 103.088 147.086 104.386C145.02 107.258 143.161 109.743 139.236 109.983C139.206 109.986 139.176 109.982 139.147 109.972C139.119 109.962 139.092 109.946 139.07 109.926C139.048 109.905 139.03 109.88 139.018 109.853C139.006 109.825 139 109.796 139 109.766V106.749C139 106.696 139.02 106.644 139.056 106.605C139.092 106.565 139.141 106.54 139.194 106.535C141.581 106.224 142.803 104.143 144.225 102.241C145.776 100.169 147.858 99 150.505 99C153.155 99.0032 155.238 100.175 156.781 102.25C158.2 104.155 159.422 106.237 161.81 106.551C161.862 106.557 161.91 106.582 161.945 106.622C161.98 106.661 162 106.712 162 106.765L161.997 109.782C161.997 109.812 161.991 109.841 161.978 109.869C161.966 109.896 161.949 109.921 161.926 109.942C161.904 109.962 161.878 109.978 161.849 109.988C161.821 109.998 161.79 110.002 161.76 109.999C157.835 109.753 155.98 107.265 153.917 104.392C152.985 103.09 151.847 102.439 150.505 102.439Z" fill="white"/>
<path d="M77 107.5C77 107.898 76.842 108.279 76.5607 108.561C76.2794 108.842 75.8978 109 75.5 109C75.1022 109 74.7206 108.842 74.4393 108.561C74.158 108.279 74 107.898 74 107.5C74 107.102 74.158 106.721 74.4393 106.439C74.7206 106.158 75.1022 106 75.5 106C75.8978 106 76.2794 106.158 76.5607 106.439C76.842 106.721 77 107.102 77 107.5ZM75.5316 106.672C75.4395 106.668 75.3473 106.686 75.2605 106.724C75.1736 106.763 75.0937 106.821 75.0253 106.896C74.9569 106.971 74.9014 107.06 74.8619 107.16C74.8224 107.26 74.7997 107.368 74.7951 107.477C74.7859 107.699 74.8509 107.914 74.9758 108.076C75.1008 108.239 75.2755 108.334 75.4616 108.342C75.5537 108.346 75.6458 108.328 75.7327 108.289C75.8195 108.251 75.8994 108.193 75.9678 108.118C76.0362 108.043 76.0917 107.953 76.1312 107.854C76.1707 107.754 76.1934 107.646 76.198 107.536C76.2073 107.315 76.1423 107.099 76.0173 106.937C75.8923 106.775 75.7176 106.68 75.5316 106.672Z" fill="white"/>
<path d="M80.787 106.958C80.9561 107.114 81.1952 107.226 81.5041 107.293C81.5872 107.311 81.6662 107.351 81.7361 107.41C81.806 107.469 81.8651 107.545 81.9097 107.635C81.9542 107.724 81.9831 107.824 81.9945 107.928C82.0059 108.033 81.9995 108.138 81.9758 108.239C81.7138 109.341 80.4422 109.137 80.0339 108.319C80.0182 108.287 80.0093 108.251 80.0079 108.214C80.0066 108.177 80.0128 108.14 80.0261 108.107C80.0394 108.073 80.0592 108.045 80.0838 108.024C80.1083 108.003 80.1367 107.99 80.1663 107.987C80.455 107.957 80.7502 108.058 81.0518 108.291C81.0661 108.302 81.082 108.309 81.0986 108.312C81.1152 108.314 81.1321 108.313 81.1481 108.307C81.1642 108.301 81.1791 108.291 81.1919 108.278C81.2048 108.264 81.2153 108.248 81.2228 108.229L81.2476 108.16C81.2588 108.13 81.2608 108.097 81.2531 108.066C81.2454 108.035 81.2286 108.009 81.2062 107.994C81.1492 107.955 80.8725 107.826 80.376 107.607C80.2413 107.547 80.13 107.425 80.064 107.264C79.9981 107.103 79.9824 106.916 80.0201 106.74C80.2436 105.69 81.5814 105.838 81.9206 106.678C81.9371 106.718 81.9438 106.763 81.94 106.808C81.9361 106.853 81.9219 106.895 81.899 106.93C81.8762 106.965 81.8457 106.991 81.8113 107.004C81.7769 107.018 81.7401 107.018 81.7055 107.006L80.8807 106.712C80.8558 106.704 80.8293 106.707 80.8057 106.72C80.7822 106.733 80.7632 106.757 80.7521 106.786C80.7409 106.815 80.7383 106.848 80.7446 106.88C80.751 106.911 80.766 106.939 80.787 106.958Z" fill="white"/>
<path d="M149 107.5C149 107.898 148.842 108.279 148.561 108.561C148.279 108.842 147.898 109 147.5 109C147.102 109 146.721 108.842 146.439 108.561C146.158 108.279 146 107.898 146 107.5C146 107.102 146.158 106.721 146.439 106.439C146.721 106.158 147.102 106 147.5 106C147.898 106 148.279 106.158 148.561 106.439C148.842 106.721 149 107.102 149 107.5ZM147.514 106.671C147.327 106.669 147.146 106.755 147.012 106.91C146.878 107.065 146.801 107.277 146.798 107.498C146.795 107.72 146.867 107.933 146.997 108.092C147.128 108.25 147.306 108.34 147.493 108.342C147.68 108.345 147.861 108.259 147.995 108.104C148.129 107.949 148.206 107.737 148.209 107.515C148.212 107.294 148.14 107.08 148.009 106.922C147.879 106.764 147.701 106.674 147.514 106.671Z" fill="white"/>
<path d="M153.176 106.959C153.431 107.115 153.79 107.225 154.253 107.287C154.377 107.305 154.495 107.344 154.6 107.402C154.704 107.46 154.793 107.536 154.861 107.625C154.928 107.714 154.972 107.813 154.991 107.917C155.009 108.021 155.001 108.127 154.966 108.228C154.587 109.335 152.684 109.144 152.065 108.332C152.041 108.3 152.027 108.264 152.024 108.227C152.021 108.189 152.03 108.152 152.05 108.118C152.069 108.084 152.099 108.055 152.135 108.034C152.172 108.013 152.215 108 152.259 107.996C152.691 107.964 153.134 108.062 153.588 108.29C153.609 108.3 153.633 108.307 153.657 108.309C153.682 108.312 153.706 108.31 153.73 108.304C153.753 108.298 153.775 108.289 153.794 108.275C153.813 108.262 153.829 108.246 153.84 108.228L153.877 108.159C153.894 108.129 153.897 108.095 153.885 108.065C153.874 108.034 153.849 108.008 153.815 107.993C153.73 107.954 153.314 107.828 152.569 107.616C152.367 107.557 152.199 107.435 152.099 107.275C151.999 107.115 151.974 106.928 152.028 106.751C152.35 105.696 154.352 105.831 154.867 106.668C154.892 106.708 154.901 106.753 154.896 106.797C154.89 106.842 154.869 106.884 154.836 106.919C154.802 106.953 154.757 106.979 154.706 106.993C154.656 107.007 154.601 107.008 154.55 106.997L153.316 106.713C153.279 106.704 153.239 106.707 153.204 106.721C153.168 106.734 153.14 106.757 153.123 106.787C153.107 106.816 153.103 106.849 153.112 106.881C153.122 106.912 153.144 106.94 153.176 106.959Z" fill="white"/>
<path d="M77 106.15C77 106.11 77.0168 106.072 77.0467 106.044C77.0765 106.016 77.1171 106 77.1593 106H78.5117C78.9064 106 79.285 106.132 79.5641 106.366C79.8432 106.6 80 106.917 80 107.248V107.752C80 108.083 79.8432 108.4 79.5641 108.634C79.285 108.868 78.9064 109 78.5117 109H77.1593C77.1171 109 77.0765 108.984 77.0467 108.956C77.0168 108.928 77 108.89 77 108.85V106.15ZM77.8938 106.763L77.8782 108.237C77.8782 108.271 77.8926 108.304 77.9181 108.328C77.9436 108.352 77.9782 108.365 78.0142 108.365H78.0959C78.2338 108.366 78.3706 108.346 78.4984 108.305C78.6262 108.265 78.7425 108.205 78.8407 108.129C78.9389 108.053 79.017 107.963 79.0705 107.863C79.1241 107.763 79.1521 107.656 79.1529 107.547V107.467C79.1545 107.249 79.0457 107.038 78.8504 106.882C78.6552 106.726 78.3894 106.637 78.1114 106.635H78.0298C77.9937 106.635 77.9591 106.648 77.9336 106.672C77.9081 106.696 77.8938 106.729 77.8938 106.763Z" fill="white"/>
<path d="M149 106.149C149 106.11 149.017 106.072 149.046 106.044C149.076 106.016 149.116 106 149.159 106H150.488C150.889 106 151.274 106.144 151.557 106.4C151.841 106.656 152 107.003 152 107.365V107.635C152 107.997 151.841 108.344 151.557 108.6C151.274 108.856 150.889 109 150.488 109H149.159C149.116 109 149.076 108.984 149.046 108.956C149.017 108.928 149 108.89 149 108.851V106.149ZM149.885 106.797L149.862 108.195C149.862 108.239 149.88 108.281 149.913 108.311C149.946 108.342 149.99 108.359 150.036 108.359L150.106 108.363C150.239 108.365 150.372 108.346 150.496 108.307C150.62 108.268 150.734 108.21 150.829 108.137C150.925 108.063 151.001 107.976 151.053 107.879C151.105 107.782 151.133 107.678 151.134 107.573V107.449C151.136 107.237 151.032 107.032 150.843 106.88C150.655 106.728 150.398 106.641 150.129 106.637L150.059 106.633C150.036 106.633 150.014 106.638 149.993 106.646C149.972 106.654 149.952 106.666 149.936 106.681C149.92 106.697 149.907 106.715 149.899 106.735C149.89 106.755 149.885 106.776 149.885 106.797Z" fill="white"/>
</svg>
