<svg width="181" height="181" viewBox="0 0 181 181" fill="none" xmlns="http://www.w3.org/2000/svg">
<rect width="181" height="181" fill="#152233"/>
<path d="M118.074 53.1564L116.934 53.2897C116.659 53.3225 116.379 53.298 116.113 53.2177C115.847 53.1374 115.6 53.0031 115.387 52.8232C108.859 47.2888 100.774 44.2204 91.132 43.6181C73.1236 42.5073 56.9064 48.839 49.5861 66.3382C45.789 75.4174 44.96 85.1112 45.2709 94.9235C45.2775 95.0966 45.2179 95.266 45.104 95.3977C44.9902 95.5295 44.8304 95.614 44.6566 95.6344L43.4131 95.7826C43.356 95.7897 43.298 95.7848 43.2427 95.7683C43.1874 95.7518 43.136 95.7239 43.0917 95.6865C43.0473 95.649 43.0109 95.6027 42.9847 95.5505C42.9585 95.4982 42.9431 95.4411 42.9394 95.3827C41.2592 69.8188 50.8074 45.2325 79.267 41.5446C93.3969 39.7154 107.919 42.2999 118.37 52.2677C118.441 52.3357 118.491 52.4223 118.515 52.5175C118.538 52.6127 118.534 52.7127 118.503 52.8057C118.472 52.8988 118.415 52.9812 118.339 53.0432C118.263 53.1053 118.172 53.1445 118.074 53.1564Z" fill="#0174B8"/>
<path d="M112.814 66.7695C111.694 69.3367 110.942 72.0298 110.557 74.8489C110.315 74.9328 110.238 75.1278 110.327 75.4339C108.561 77.621 107.179 79.8451 106.182 82.1063C106.241 82.1952 106.227 82.326 106.138 82.4988C104.088 84.2835 102.259 86.6459 100.357 88.1048C95.0871 92.1482 89.2743 95.1375 82.9187 97.0728C82.8189 97.1035 82.7116 97.098 82.6155 97.0573C82.5194 97.0167 82.4407 96.9436 82.3931 96.8507C82.3389 96.7371 82.3586 96.5224 82.4523 96.2064C86.242 94.3032 91.216 90.7707 93.2663 86.8236C98.329 79.4576 99.9574 71.4399 98.1514 62.7705C98.1217 62.6186 98.1434 62.4612 98.2131 62.3231C98.2828 62.1849 98.3965 62.074 98.5363 62.0077C113.72 54.9231 129.693 51.8572 146.455 52.8101C146.537 52.8146 146.616 52.8411 146.685 52.8868C146.753 52.9325 146.808 52.9958 146.844 53.07C146.879 53.1441 146.894 53.2265 146.887 53.3085C146.88 53.3904 146.851 53.4689 146.803 53.5358L138.224 65.5179C138.08 65.7178 137.886 65.8759 137.661 65.9761C137.436 66.0763 137.189 66.115 136.944 66.0882C129.152 65.2637 121.474 65.3599 113.91 66.377C113.549 66.4263 113.184 66.5572 112.814 66.7695Z" fill="#0174B8"/>
<path d="M86.9284 65.9752C85.1594 70.3889 83.9751 75.2914 83.0573 79.3644C82.48 81.9489 81.2217 85.0444 80.0226 87.2587C77.3975 92.1068 74.8167 97.0068 72.2804 101.959C60.6548 99.969 48.9946 99.8061 37.2999 101.47C36.1304 101.638 35.1188 101.411 34.2652 100.789C34.2087 100.748 34.1654 100.692 34.1407 100.627C34.1159 100.561 34.1106 100.49 34.1254 100.422C34.1402 100.353 34.1745 100.29 34.2242 100.239C34.274 100.189 34.337 100.153 34.4058 100.137C42.3207 98.3793 50.3787 96.3354 58.5798 94.0051C67.5729 91.4502 75.3669 87.5327 77.6985 77.6389C77.7118 77.5831 77.7104 77.5247 77.6945 77.4695C77.6786 77.4143 77.6487 77.3642 77.6078 77.324C77.5668 77.2837 77.5162 77.2548 77.4607 77.2399C77.4053 77.225 77.347 77.2247 77.2914 77.239C75.6284 77.6636 73.8718 77.4908 72.0213 76.7206C71.6456 76.5665 71.2318 76.5329 70.8371 76.6244C68.7202 77.1057 65.7595 78.3425 64.2495 76.4466C64.0163 76.1544 63.9037 75.7823 63.9338 75.4029C63.9639 75.0236 64.1346 74.6644 64.4124 74.3953C68.1034 70.8308 70.8839 68.1401 72.7541 66.3233C72.8496 66.2286 72.9039 66.1001 72.9053 65.9657C72.9067 65.8312 72.855 65.7016 72.7615 65.605L71.0443 63.8869C70.9812 63.8233 70.9383 63.7421 70.9214 63.6539C70.9045 63.5657 70.9143 63.4747 70.9496 63.3929C70.9848 63.311 71.0439 63.2423 71.119 63.1956C71.194 63.149 71.2816 63.1266 71.37 63.1315C73.704 63.2204 76.4032 63.292 79.4675 63.3463C81.7817 63.3907 84.2687 64.267 86.9284 65.9752Z" fill="#0174B8"/>
<path d="M86.9292 65.9746C90.334 68.142 92.6236 71.1486 93.798 74.9945C91.4295 76.7027 89.4187 78.6849 87.7656 80.9412C87.6222 81.1328 87.5514 81.3716 87.5658 81.6151C87.9309 87.9492 85.5821 92.9529 80.5194 96.626C79.8039 97.1395 79.076 97.5641 78.3359 97.8998C78.2752 97.9275 78.2222 97.9696 78.1816 98.0226C78.141 98.0755 78.114 98.1376 78.1031 98.2035C78.0921 98.2693 78.0975 98.3368 78.1187 98.4001C78.1399 98.4633 78.1764 98.5204 78.2248 98.5663C78.3334 98.665 78.5135 98.702 78.7652 98.6774C84.6471 98.0553 90.3316 96.7174 95.8187 94.6636C106.921 105.678 117.856 116.576 128.623 127.359C130.866 129.603 132.043 130.454 132.139 133.157C132.142 133.225 132.124 133.291 132.088 133.347C132.053 133.404 132 133.448 131.938 133.475C131.875 133.501 131.806 133.508 131.739 133.495C131.672 133.482 131.61 133.45 131.562 133.402C114.997 116.957 95.2364 106.475 72.2812 101.958C74.8176 97.0062 77.3983 92.1062 80.0234 87.2581C81.2225 85.0438 82.4808 81.9483 83.0581 79.3638C83.976 75.2907 85.1602 70.3883 86.9292 65.9746Z" fill="#0174B8"/>
<path d="M112.812 66.7695C112.941 66.9966 113.093 67.1052 113.271 67.0954C120.589 66.5671 127.872 66.8658 135.121 67.9914C135.187 68.001 135.25 68.0291 135.301 68.0725C135.352 68.1159 135.39 68.1729 135.41 68.2373C135.431 68.3017 135.434 68.3709 135.418 68.4373C135.402 68.5037 135.368 68.5647 135.321 68.6135L127.468 76.4708C127.329 76.6113 127.158 76.7148 126.969 76.7717C126.78 76.8287 126.58 76.8372 126.387 76.7966C121.255 75.7351 115.978 75.0859 110.555 74.8489C110.94 72.0299 111.692 69.3368 112.812 66.7695Z" fill="#0174B8"/>
<path d="M93.8021 74.9961C94.6607 78.0916 94.7347 81.1945 93.8613 84.29C93.6245 85.1293 93.4271 85.9735 93.2692 86.8227C91.2189 90.7698 86.245 94.3023 82.4553 96.2055C81.6559 96.8127 81.012 96.9534 80.5234 96.6276C85.5862 92.9545 87.935 87.9508 87.5699 81.6166C87.5555 81.3731 87.6263 81.1344 87.7697 80.9427C89.4228 78.6865 91.4336 76.7043 93.8021 74.9961Z" fill="#0174B8"/>
<path d="M106.184 82.104C107.18 79.8429 108.562 77.6187 110.329 75.4316C115.061 75.9648 119.768 76.9053 124.451 78.2531C124.511 78.2715 124.566 78.3062 124.607 78.3536C124.649 78.4009 124.677 78.4589 124.688 78.5211C124.698 78.5833 124.692 78.6473 124.668 78.7059C124.645 78.7645 124.605 78.8154 124.555 78.853L116.59 84.5775C116.39 84.7227 116.159 84.8197 115.913 84.8608C115.668 84.9019 115.416 84.886 115.177 84.8144L106.184 82.104Z" fill="#0174B8"/>
<path d="M130.572 77.1885C132.911 90.8072 132.075 107.514 125.376 119.97C125.329 120.057 125.262 120.131 125.182 120.188C125.101 120.244 125.008 120.281 124.91 120.296C124.812 120.31 124.713 120.301 124.619 120.271C124.525 120.24 124.44 120.188 124.37 120.118L123.733 119.481C123.56 119.309 123.446 119.086 123.406 118.844C123.366 118.603 123.403 118.354 123.511 118.134C129.514 105.914 130.069 92.5401 128.374 79.1213C128.342 78.8605 128.369 78.5957 128.454 78.3469C128.538 78.0981 128.678 77.8717 128.863 77.6847L129.655 76.8997C129.724 76.8287 129.812 76.7784 129.909 76.7543C130.006 76.7303 130.107 76.7333 130.202 76.7632C130.297 76.7931 130.382 76.8486 130.447 76.9236C130.512 76.9987 130.556 77.0903 130.572 77.1885Z" fill="#0174B8"/>
<path d="M95.8188 94.6653C90.3317 96.7191 84.6472 98.057 78.7653 98.6791C78.5136 98.7038 78.3335 98.6668 78.2249 98.568C78.1765 98.5221 78.1401 98.4651 78.1188 98.4018C78.0976 98.3385 78.0922 98.271 78.1032 98.2052C78.1142 98.1394 78.1411 98.0773 78.1817 98.0243C78.2223 97.9714 78.2753 97.9292 78.336 97.9015C79.0761 97.5658 79.804 97.1412 80.5195 96.6278C81.008 96.9536 81.6519 96.8129 82.4513 96.2057C82.3576 96.5216 82.3378 96.7364 82.3921 96.8499C82.4397 96.9428 82.5184 97.016 82.6145 97.0566C82.7106 97.0972 82.8179 97.1027 82.9176 97.0721C89.2732 95.1368 95.0861 92.1474 100.356 88.104C102.258 86.6451 104.087 84.2828 106.137 82.498L113.835 85.5491C113.9 85.5742 113.957 85.6173 113.998 85.6734C114.04 85.7295 114.065 85.7963 114.071 85.866C114.076 85.9358 114.062 86.0056 114.029 86.0675C113.996 86.1294 113.947 86.1807 113.886 86.2156C108.256 89.5481 102.234 92.3647 95.8188 94.6653Z" fill="#0174B8"/>
<path d="M43.7285 103.774C43.7107 103.653 43.7172 103.529 43.7477 103.41C43.7781 103.292 43.8318 103.18 43.9056 103.083C43.9794 102.986 44.0719 102.904 44.1775 102.844C44.2831 102.783 44.3998 102.744 44.5205 102.73L45.1127 102.663C45.3838 102.632 45.6567 102.706 45.8735 102.872C46.0904 103.038 46.2343 103.282 46.2747 103.552C48.8209 120.651 59.6126 134.115 76.9845 137.573C91.6695 140.491 107.805 137.506 118.116 126.043C118.338 125.798 118.639 125.639 118.967 125.594C119.295 125.55 119.627 125.622 119.907 125.798L120.018 125.865C120.139 125.942 120.243 126.043 120.321 126.164C120.399 126.284 120.451 126.42 120.473 126.562C120.495 126.704 120.486 126.85 120.447 126.989C120.408 127.128 120.34 127.257 120.247 127.368C114.334 134.418 105.444 138.81 96.3029 140.246C69.6198 144.438 47.8883 131.004 43.7285 103.774Z" fill="#0174B8"/>
</svg>
