<svg width="181" height="181" viewBox="0 0 181 181" fill="none" xmlns="http://www.w3.org/2000/svg">
<rect width="181" height="181" fill="#1E1E1E"/>
<path d="M127.422 49.9066C127.446 49.949 127.458 49.9967 127.457 50.0451C127.456 50.0935 127.443 50.141 127.418 50.183C127.394 50.225 127.358 50.2601 127.316 50.2849C127.274 50.3097 127.226 50.3234 127.177 50.3246C123.656 50.3889 120.179 50.4171 116.744 50.409C106.024 50.393 93.6444 50.3836 79.6053 50.3809C76.4097 50.3809 74.2023 50.6033 72.9832 51.0481C71.3934 51.6296 69.989 52.5084 68.7698 53.6848C68.0797 54.3546 67.1747 55.7359 66.0549 57.8286C65.8025 58.3002 61.7208 65.7493 53.8097 80.1758C52.1608 83.1875 50.8947 85.0833 50.0112 85.863C47.9972 87.6422 45.5025 88.5694 42.5271 88.6444C39.7316 88.7194 35.9063 88.7315 31.0512 88.6806C30.999 88.6801 30.9474 88.6691 30.8996 88.6484C30.8518 88.6278 30.8088 88.5977 30.773 88.5602C30.7373 88.5226 30.7096 88.4783 30.6916 88.4299C30.6736 88.3815 30.6658 88.3301 30.6685 88.2786C31.1357 78.1393 34.1004 68.8066 39.5624 60.2804C49.1089 45.385 64.7619 35.6784 82.5015 34.1029C83.393 34.0252 85.9857 33.9917 90.2796 34.0024C103.621 34.0385 116.724 39.9308 126.544 48.8335C126.926 49.1791 127.218 49.5369 127.422 49.9066ZM74.244 35.9638C73.8788 36.2049 73.4813 36.3751 73.0517 36.4742C70.1434 37.1521 67.3399 38.1342 64.6411 39.4204C62.2041 40.5819 60.613 41.2692 58.5466 42.6157C55.6626 44.494 53.9063 45.665 53.278 46.1285C51.6533 47.3263 50.0005 48.9326 48.3194 50.9476C48.2336 51.0466 48.1407 51.1407 48.0415 51.229C46.3631 52.7081 45.3575 53.6834 45.0245 54.155C43.9503 55.6796 43.2803 56.596 43.0145 56.9042C42.7755 57.1802 42.6358 57.42 42.5956 57.6236C42.5831 57.6861 42.5567 57.7447 42.5182 57.7949C42.4798 57.8451 42.4304 57.8855 42.374 57.913C41.5281 58.331 40.8595 59.8342 40.3399 60.8391C40.2622 60.9886 40.1676 61.1276 40.0579 61.253C39.3355 62.073 38.8924 62.6424 38.7286 62.9612C38.1137 64.1429 37.1483 66.1338 35.8325 68.9339C35.2927 70.0861 34.8067 71.4004 34.3743 72.8768C34.0843 73.8682 33.6654 75.212 33.1176 76.9081C33.0747 77.0418 33.0437 77.1804 33.0249 77.3221C32.8772 78.4823 32.6355 79.5461 32.2998 80.5134C32.2731 80.5909 32.2542 80.6717 32.2435 80.7545L31.3492 87.5712C31.3421 87.6293 31.3478 87.6882 31.3659 87.7439C31.384 87.7995 31.414 87.8505 31.4539 87.8934C31.4938 87.9363 31.5426 87.9699 31.5969 87.992C31.6511 88.0141 31.7096 88.0242 31.7682 88.0214C34.1098 87.9008 36.8891 87.9156 40.1062 88.0656C41.2448 88.1165 42.7553 87.9772 44.6378 87.6476C46.1416 87.3823 47.354 86.9415 48.2751 86.3253C49.4916 85.5053 50.4207 84.5996 51.0625 83.6082C52.3784 81.5772 53.1893 80.0847 53.4955 79.1308C53.7022 78.4823 53.956 77.9638 54.2568 77.5753C54.7992 76.876 55.1295 76.4017 55.2477 76.1525C55.7753 75.0351 56.4037 73.6485 57.1328 72.6396C57.8216 71.6911 58.1237 70.634 58.74 69.577C60.0907 67.2699 61.4737 64.7779 62.8889 62.1011C63.8234 60.3286 65.0439 58.528 66.0267 56.5425C67.2969 53.9674 69.1471 52.0315 71.5774 50.7346C71.5935 50.7266 71.611 50.7185 71.6298 50.7105L74.7958 49.6775C74.8518 49.6589 74.9103 49.6494 74.969 49.6494C83.5783 49.7298 90.1521 49.7445 94.6904 49.6936C97.7315 49.6615 100.93 49.8785 104.362 49.7901C110.307 49.6333 116.269 49.8624 121.743 49.6293C123.116 49.573 124.47 49.8021 125.92 49.6976C125.948 49.6949 125.976 49.6846 125.999 49.6678C126.022 49.651 126.04 49.6283 126.052 49.6021C126.063 49.5758 126.068 49.547 126.064 49.5186C126.061 49.4902 126.05 49.4632 126.033 49.4404C125.34 48.5642 124.454 47.8086 123.374 47.1735C122.971 46.9377 122.677 46.6149 122.492 46.2049C122.44 46.0852 122.348 45.986 122.23 45.9235L121.32 45.4332C121.175 45.3558 121.041 45.2599 120.921 45.1478C120.263 44.5422 119.476 43.9635 118.561 43.4115C117.75 42.9265 116.982 42.4027 116.257 41.84C115.593 41.3255 114.755 40.8927 113.743 40.5417C113.362 40.4104 113.084 40.2858 112.909 40.1679C111.886 39.4726 110.444 39.2154 109.679 38.8094C108.734 38.3084 108.038 38.0525 107.592 38.0417C107.504 38.0391 107.411 37.9949 107.314 37.9091C107.204 37.81 107.106 37.743 107.02 37.7081C104.308 36.572 100.706 35.6757 96.213 35.0193C94.1023 34.7111 91.4881 34.5986 88.3703 34.6816C83.6736 34.8076 81.0514 34.8799 80.5036 34.8987C79.6469 34.9308 78.5056 35.1465 77.0797 35.5458C76.7038 35.653 75.8767 35.7521 74.5984 35.8432C74.4715 35.8537 74.3497 35.8951 74.244 35.9638Z" fill="#6A0F0D"/>
<path d="M74.5998 35.8432C75.8781 35.7521 76.7052 35.653 77.0811 35.5458C78.507 35.1466 79.6483 34.9309 80.505 34.8987C81.0528 34.88 83.675 34.8076 88.3717 34.6817C91.4895 34.5986 94.1037 34.7111 96.2144 35.0193C100.707 35.6758 104.309 36.5721 107.022 37.7082C107.108 37.743 107.206 37.81 107.316 37.9091C107.412 37.9949 107.505 38.0391 107.594 38.0418C108.039 38.0525 108.735 38.3084 109.68 38.8095C110.445 39.2154 111.888 39.4726 112.911 40.168C113.085 40.2859 113.363 40.4105 113.744 40.5418C114.757 40.8928 115.595 41.3255 116.258 41.84C116.983 42.4027 117.751 42.9265 118.562 43.4115C119.478 43.9635 120.265 44.5423 120.922 45.1479C121.043 45.2599 121.177 45.3559 121.321 45.4332L122.232 45.9236C122.349 45.986 122.441 46.0852 122.493 46.2049C122.679 46.6149 122.973 46.9378 123.376 47.1736C124.455 47.8086 125.341 48.5642 126.034 49.4404C126.051 49.4632 126.062 49.4902 126.066 49.5186C126.069 49.5471 126.065 49.5759 126.053 49.6021C126.042 49.6283 126.024 49.651 126 49.6678C125.977 49.6846 125.95 49.6949 125.921 49.6977C124.471 49.8022 123.118 49.5731 121.744 49.6293C116.27 49.8625 110.309 49.6334 104.363 49.7901C100.931 49.8785 97.7329 49.6615 94.6918 49.6937C90.1535 49.7446 83.5797 49.7298 74.9704 49.6494C74.9117 49.6495 74.8532 49.659 74.7972 49.6776L71.6312 50.7105C71.6124 50.7186 71.5949 50.7266 71.5788 50.7346C69.1485 52.0315 67.2983 53.9675 66.0281 56.5425C65.0453 58.528 63.8248 60.3286 62.8903 62.1011C61.4751 64.778 60.0921 67.2699 58.7414 69.577C58.1251 70.6341 57.823 71.6911 57.1342 72.6397C56.4051 73.6485 55.7767 75.0352 55.2491 76.1525C55.1309 76.4017 54.8006 76.876 54.2582 77.5753C53.9574 77.9639 53.7036 78.4824 53.4969 79.1308C53.1907 80.0847 52.3797 81.5772 51.0639 83.6083C50.4221 84.5997 49.493 85.5054 48.2765 86.3253C47.3554 86.9416 46.143 87.3824 44.6392 87.6476C42.7567 87.9772 41.2462 88.1166 40.1076 88.0656C36.8905 87.9156 34.1112 87.9009 31.7695 88.0214C31.711 88.0242 31.6525 88.0142 31.5982 87.9921C31.544 87.97 31.4952 87.9363 31.4553 87.8934C31.4154 87.8506 31.3854 87.7995 31.3673 87.7439C31.3492 87.6883 31.3435 87.6293 31.3506 87.5713L32.2448 80.7546C32.2556 80.6717 32.2744 80.5909 32.3012 80.5134C32.6369 79.5461 32.8786 78.4824 33.0263 77.3221C33.0451 77.1804 33.0761 77.0419 33.1189 76.9081C33.6668 75.212 34.0857 73.8682 34.3757 72.8768C34.808 71.4004 35.2941 70.0861 35.8338 68.9339C37.1497 66.1338 38.1151 64.1429 38.73 62.9613C38.8938 62.6424 39.3369 62.073 40.0593 61.2531C40.169 61.1276 40.2636 60.9886 40.3412 60.8391C40.8609 59.8343 41.5295 58.3311 42.3754 57.9131C42.4318 57.8855 42.4812 57.8451 42.5196 57.7949C42.558 57.7447 42.5845 57.6861 42.597 57.6237C42.6372 57.42 42.7769 57.1802 43.0159 56.9042C43.2817 56.5961 43.9517 55.6797 45.0259 54.155C45.3589 53.6834 46.3645 52.7081 48.0429 51.229C48.1421 51.1407 48.235 51.0467 48.3208 50.9477C50.0019 48.9327 51.6547 47.3263 53.2793 46.1286C53.9077 45.665 55.6639 44.4941 58.548 42.6157C60.6144 41.2693 62.2055 40.582 64.6425 39.4204C67.3413 38.1342 70.1448 37.1522 73.0531 36.4743C73.4827 36.3751 73.8801 36.205 74.2454 35.9638C74.3511 35.8952 74.4729 35.8537 74.5998 35.8432Z" fill="#DC1A1B"/>
<path d="M87.7257 55.2646C87.7531 55.2675 87.7794 55.2769 87.8022 55.2922C87.8251 55.3075 87.8439 55.3281 87.857 55.3522C87.8701 55.3764 87.8771 55.4034 87.8774 55.4308C87.8777 55.4583 87.8712 55.4854 87.8586 55.5098C80.3208 69.9095 74.5432 81.0027 70.5259 88.7894C69.3766 91.0214 68.5052 92.4483 67.9117 93.0699C65.801 95.2725 63.3963 96.2773 60.3954 96.9204C60.2427 96.9524 60.0888 96.9686 59.9362 96.9686H31.0309C30.9315 96.9686 30.8362 96.9292 30.766 96.8591C30.6957 96.789 30.6562 96.694 30.6562 96.5948V92.8247C30.6563 92.788 30.6635 92.7516 30.6775 92.7177C30.6915 92.6838 30.712 92.653 30.7379 92.6272C30.7638 92.6014 30.7944 92.581 30.8281 92.5674C30.8618 92.5537 30.8979 92.5469 30.9342 92.5474C38.8292 92.5635 43.7058 92.5742 45.5641 92.5796C46.8396 92.5822 47.8587 92.4603 48.6214 92.2138C53.3745 90.6865 55.3845 86.8802 57.757 82.4671C63.4231 71.9098 67.8916 63.5711 71.1623 57.4511C72.0525 55.7831 73.8813 55.4133 75.9799 55.4294C79.017 55.4509 82.5779 55.4455 86.6623 55.4133C87.045 55.4133 87.4317 55.2405 87.7257 55.2646ZM86.4126 56.181L74.1834 56.0042C74.123 56.0015 74.0628 56.0169 74.0102 56.0484C72.7776 56.7692 71.7988 57.774 71.0737 59.0628C69.2638 62.2729 67.0779 66.3592 64.5161 71.3216C63.2996 73.6823 60.9969 78.0486 57.608 84.4204C56.7486 86.0389 55.5214 87.7511 53.9263 89.5571C52.8669 90.7628 51.5578 91.5305 50.3897 92.4992C50.2832 92.5869 50.1603 92.655 50.0272 92.7001C48.4723 93.2226 47.3928 93.4906 46.7886 93.504C44.3449 93.5656 41.1198 93.5107 37.1132 93.3392C36.3909 93.3097 34.6293 93.3446 31.8284 93.4437C31.7425 93.4458 31.6607 93.4812 31.5999 93.5425C31.5392 93.6039 31.5042 93.6865 31.5021 93.7733L31.4739 95.9075C31.4728 95.9455 31.4795 95.9833 31.4938 96.0185C31.508 96.0537 31.5295 96.0855 31.5568 96.112C31.5841 96.1385 31.6166 96.159 31.6523 96.1722C31.6879 96.1854 31.726 96.1911 31.764 96.1889C33.0288 96.1165 34.2855 96.2572 35.6551 96.2451C47.7634 96.154 54.6446 96.1192 56.2988 96.1406C61.056 96.1969 64.8021 95.6463 67.4727 92.262C68.3709 91.1286 69.5834 88.508 70.9771 86.5064C71.0521 86.3968 71.1181 86.2812 71.1744 86.1608C72.3265 83.5643 73.1119 81.8856 73.5308 81.1246C75.1139 78.2629 76.3585 75.6986 77.9093 72.8811C79.4454 70.0917 80.823 67.4028 82.0421 64.8144C82.0876 64.713 82.1458 64.6171 82.2153 64.5291C82.4275 64.2558 82.6544 63.894 82.8961 63.4439C84.0615 61.2547 85.2753 58.9021 86.5374 56.386C86.5485 56.3646 86.5538 56.3407 86.5529 56.3167C86.5521 56.2926 86.545 56.2692 86.5325 56.2486C86.52 56.2281 86.5024 56.2111 86.4814 56.1992C86.4604 56.1874 86.4367 56.1811 86.4126 56.181Z" fill="#061E40"/>
<path d="M116.46 55.3451C116.49 55.3437 116.521 55.3504 116.548 55.3644C116.575 55.3785 116.598 55.3994 116.614 55.4251C116.63 55.4508 116.64 55.4803 116.641 55.5108C116.642 55.5412 116.635 55.5714 116.621 55.5983C110.899 66.3271 103.542 80.2793 94.5513 97.455C92.9455 100.526 91.7492 102.46 90.9623 103.259C87.9655 106.297 83.881 107.411 79.4703 107.415C78.176 107.417 62.7794 107.411 33.2806 107.395C33.1287 107.395 32.9815 107.342 32.864 107.246C32.7465 107.15 32.666 107.017 32.6361 106.868L31.5929 101.595C31.5881 101.57 31.589 101.544 31.5953 101.52C31.6016 101.495 31.6132 101.472 31.6293 101.453C31.6455 101.433 31.6657 101.417 31.6887 101.407C31.7116 101.396 31.7367 101.39 31.762 101.39C41.6388 101.371 51.4028 101.375 61.0541 101.402C65.1022 101.41 69.376 99.9188 72.1513 96.8802C72.8442 96.1219 73.6632 94.7862 74.6084 92.873C74.979 92.1281 80.6411 81.3136 91.5947 60.4295C92.5212 58.6663 93.2731 57.5302 93.8504 57.0211C95.9491 55.1723 98.5713 55.3571 101.435 55.3933C108.116 55.4817 113.125 55.4657 116.46 55.3451ZM115.199 56.2735L97.5563 56.0163C97.4978 56.0151 97.44 56.026 97.3865 56.0481C97.3331 56.0703 97.2852 56.1033 97.2461 56.1449C97.1924 56.2039 97.1521 56.2427 97.1253 56.2615C97.0168 56.338 96.8911 56.3876 96.7587 56.4062C95.2093 56.6232 94.0572 57.4298 93.3026 58.8258C92.5427 60.2272 90.8657 63.3984 88.2716 68.3394C87.8325 69.1794 87.3814 69.71 87.184 70.6023C87.1626 70.6984 87.1302 70.7914 87.0874 70.8796C86.3032 72.506 85.3204 74.367 84.1388 76.4623C82.733 78.9623 81.7864 81.181 80.5176 83.8015C79.7684 85.3449 78.713 86.4744 78.1692 87.7806C77.2508 89.9872 76.0424 91.7436 74.975 93.7533C73.8189 95.9357 72.4414 97.7484 70.6207 99.115C69.4821 99.9724 67.8239 100.87 65.646 101.808C65.4672 101.885 65.277 101.934 65.0821 101.953C62.6492 102.183 61.3065 102.293 61.0541 102.282C58.6775 102.164 56.7078 102.136 55.1449 102.198C50.8268 102.367 46.7464 102.053 43.1413 102.198C40.1256 102.316 36.7689 102.316 33.0712 102.198C33.0144 102.196 32.9579 102.207 32.906 102.23C32.8541 102.253 32.8081 102.288 32.7713 102.331C32.7346 102.374 32.7081 102.425 32.6937 102.48C32.6794 102.535 32.6776 102.592 32.6885 102.648L33.4337 106.41C33.4452 106.472 33.4764 106.529 33.5227 106.572C33.569 106.615 33.6281 106.643 33.6915 106.651C34.1292 106.707 34.7723 106.742 35.6209 106.756C42.6029 106.871 52.5361 106.816 65.4205 106.591C66.4946 106.572 68.9531 106.608 72.7958 106.699C73.8404 106.723 76.3016 106.703 80.1793 106.639C82.2174 106.604 83.7803 106.402 84.8679 106.032C87.3895 105.176 90.2776 103.552 91.4417 101.221C92.2822 99.5383 92.9683 98.4424 93.5 97.9333C93.8545 97.5997 94.0599 96.5587 94.3661 95.984C96.6701 91.6485 97.9201 89.3307 98.1162 89.0306C98.5136 88.409 98.8936 87.5783 99.2561 86.5387C99.4844 85.8875 99.9556 85.1051 100.67 84.1914C100.758 84.0793 100.831 83.955 100.887 83.8216C101.392 82.6078 102.023 81.3404 102.781 80.0194C103.715 78.3996 104.251 76.9969 105.234 75.5058C105.397 75.2572 105.535 74.9933 105.645 74.718C105.889 74.099 106.144 73.539 106.41 73.0379C107.833 70.3584 109.808 66.6768 112.335 61.993C112.974 60.8059 113.446 59.8708 113.749 59.1875C114.232 58.097 114.751 57.1966 115.304 56.4866C115.319 56.467 115.328 56.4436 115.33 56.4191C115.333 56.3946 115.328 56.3699 115.317 56.3478C115.307 56.3256 115.29 56.307 115.269 56.2939C115.248 56.2808 115.224 56.2737 115.199 56.2735Z" fill="#061E40"/>
<path d="M152.494 55.341C152.526 55.3351 152.558 55.3383 152.587 55.3502C152.616 55.3621 152.642 55.3821 152.66 55.408C152.678 55.4338 152.689 55.4644 152.69 55.496C152.691 55.5276 152.684 55.5589 152.668 55.5862C152.096 56.6098 151.595 57.5436 151.165 58.3876C135.722 88.7546 126.961 106.004 124.882 110.136C122.091 115.682 116.959 118.954 110.997 120.112C109.523 120.398 107.172 120.542 103.944 120.542C61.8081 120.526 40.148 120.535 38.9637 120.57C38.8257 120.573 38.6894 120.537 38.5709 120.465C38.4523 120.393 38.3566 120.289 38.295 120.164L34.9397 113.367C34.9078 113.302 34.8924 113.229 34.8948 113.156C34.8972 113.083 34.9174 113.012 34.9536 112.949C34.9898 112.886 35.0409 112.833 35.1023 112.794C35.1638 112.756 35.2338 112.733 35.3062 112.728C35.3089 112.728 35.4083 112.768 35.6043 112.849C35.65 112.868 35.7721 112.877 35.9709 112.877C45.034 112.847 60.981 112.829 83.8121 112.821C86.1403 112.821 88.5987 112.242 91.1874 111.084C94.6958 109.513 96.2708 107.415 98.2204 103.729C104.633 91.631 112.297 77.2273 121.213 60.5178C121.943 59.1459 122.548 58.2134 123.029 57.7204C124.822 55.8715 127.19 55.3933 129.736 55.4053C140.738 55.4562 147.966 55.4629 151.419 55.4254C151.846 55.4227 152.204 55.3946 152.494 55.341ZM150.944 56.3137L128.322 56.2534C128.191 56.2534 128.062 56.2737 127.939 56.3137C125.845 56.9768 124.193 57.3506 122.961 59.3924C122.22 60.617 121.488 61.7799 120.765 62.8812C119.625 64.6175 119.029 66.3377 118.034 68.0419C117.277 69.3415 116.756 70.3771 116.472 71.1488C116.073 72.234 115.279 73.2911 114.812 74.2477C114.184 75.5445 112.909 78.2562 110.989 82.3827C109.878 84.7741 108.045 87.1817 106.901 89.4325C106.13 90.9598 105.514 92.1066 105.052 92.873C103.102 96.1152 101.178 99.6253 99.2798 103.403C98.109 105.735 97.2335 107.238 96.6535 107.913C94.1964 110.786 91.1377 112.539 87.4776 113.174C84.9641 113.608 83.2199 113.821 82.2451 113.813C74.0172 113.73 66.7452 113.709 60.4292 113.749C54.6369 113.785 48.345 113.633 41.7189 113.753C39.5411 113.791 37.7244 113.765 36.2689 113.677C36.2464 113.676 36.2239 113.68 36.2036 113.69C36.1833 113.7 36.1659 113.715 36.153 113.733C36.1401 113.752 36.1322 113.773 36.1299 113.796C36.1276 113.818 36.1311 113.841 36.14 113.862L37.5176 117.045C37.5469 117.114 37.5892 117.178 37.6425 117.234C37.9701 117.577 38.2574 118.076 38.5045 118.733C38.9274 119.87 39.5276 119.593 40.4984 119.589C48.6633 119.557 52.7598 119.706 59.5712 119.581C65.6979 119.468 72.8557 119.677 80.5856 119.593C88.6417 119.509 92.2186 119.296 98.2607 119.517C98.5883 119.53 101.326 119.561 106.474 119.609C108.985 119.633 110.96 119.446 112.399 119.046C117.168 117.72 121.406 115.023 123.742 110.413C124.62 108.677 125.478 107.222 126.344 105.441C128.103 101.813 129.94 98.2387 131.855 94.7178C132.086 94.2971 132.291 93.851 132.471 93.3794C132.627 92.9748 132.833 92.526 133.091 92.0329C139.606 79.4901 143.238 72.3613 143.987 70.6464C145.389 67.439 146.534 65.148 147.423 63.7734C148.043 62.8128 148.454 61.5669 148.768 60.6464C148.913 60.2306 149.116 59.838 149.373 59.4809C150.243 58.267 150.75 57.5717 151.097 56.5227C151.104 56.4986 151.106 56.4732 151.102 56.4483C151.098 56.4235 151.088 56.3999 151.073 56.3796C151.058 56.3592 151.039 56.3427 151.016 56.3312C150.994 56.3198 150.969 56.3138 150.944 56.3137Z" fill="#061E40"/>
<path d="M86.4153 56.1809C86.4394 56.181 86.4631 56.1872 86.4841 56.1991C86.5051 56.2109 86.5227 56.2279 86.5353 56.2485C86.5478 56.269 86.5548 56.2925 86.5557 56.3165C86.5566 56.3406 86.5512 56.3644 86.5402 56.3858C85.2781 58.9019 84.0643 61.2545 82.8988 63.4437C82.6571 63.8938 82.4302 64.2556 82.2181 64.5289C82.1485 64.617 82.0904 64.7128 82.0449 64.8143C80.8257 67.4027 79.4481 70.0916 77.9121 72.8809C76.3613 75.6985 75.1166 78.2627 73.5336 81.1245C73.1147 81.8855 72.3292 83.5642 71.1772 86.1606C71.1209 86.281 71.0549 86.3966 70.9798 86.5063C69.5861 88.5079 68.3737 91.1284 67.4754 92.2619C64.8048 95.6461 61.0587 96.1967 56.3016 96.1405C54.6474 96.119 47.7661 96.1539 35.6578 96.245C34.2883 96.257 33.0315 96.1164 31.7667 96.1887C31.7287 96.191 31.6907 96.1853 31.655 96.172C31.6193 96.1588 31.5868 96.1383 31.5595 96.1118C31.5322 96.0854 31.5108 96.0535 31.4965 96.0183C31.4823 95.9831 31.4755 95.9453 31.4767 95.9074L31.5049 93.7731C31.5069 93.6864 31.5419 93.6037 31.6027 93.5424C31.6634 93.481 31.7453 93.4456 31.8312 93.4435C34.632 93.3444 36.3936 93.3096 37.116 93.339C41.1225 93.5105 44.3477 93.5655 46.7914 93.5038C47.3956 93.4904 48.4751 93.2225 50.0299 92.7C50.1631 92.6548 50.2859 92.5867 50.3924 92.499C51.5606 91.5304 52.8697 90.7627 53.9291 89.5569C55.5242 87.7509 56.7514 86.0387 57.6107 84.4203C60.9996 78.0484 63.3023 73.6821 64.5188 71.3215C67.0807 66.359 69.2665 62.2727 71.0765 59.0627C71.8015 57.7738 72.7804 56.769 74.0129 56.0482C74.0655 56.0167 74.1258 56.0014 74.1861 56.004L86.4153 56.1809Z" fill="#02468D"/>
<path d="M115.201 56.2734C115.226 56.2736 115.25 56.2806 115.271 56.2937C115.292 56.3068 115.309 56.3255 115.32 56.3476C115.33 56.3697 115.335 56.3944 115.333 56.4189C115.33 56.4434 115.321 56.4668 115.306 56.4864C114.753 57.1965 114.235 58.0968 113.751 59.1873C113.448 59.8706 112.976 60.8058 112.337 61.9928C109.81 66.6766 107.835 70.3582 106.412 73.0378C106.146 73.5388 105.891 74.0988 105.647 74.7178C105.537 74.9931 105.399 75.257 105.236 75.5056C104.253 76.9967 103.717 78.3995 102.783 80.0192C102.026 81.3402 101.394 82.6076 100.89 83.8215C100.833 83.9548 100.76 84.0792 100.672 84.1912C99.9578 85.1049 99.4865 85.8874 99.2583 86.5385C98.8957 87.5781 98.5157 88.4088 98.1183 89.0304C97.9223 89.3305 96.6722 91.6483 94.3682 95.9838C94.0621 96.5585 93.8566 97.5995 93.5022 97.9331C92.9704 98.4422 92.2843 99.5382 91.4438 101.221C90.2797 103.552 87.3916 105.176 84.87 106.032C83.7825 106.402 82.2196 106.604 80.1814 106.639C76.3037 106.703 73.8426 106.723 72.798 106.699C68.9552 106.608 66.4967 106.572 65.4226 106.591C52.5382 106.816 42.605 106.871 35.6231 106.755C34.7745 106.742 34.1313 106.707 33.6936 106.651C33.6302 106.643 33.5711 106.615 33.5248 106.572C33.4785 106.528 33.4473 106.472 33.4358 106.41L32.6906 102.648C32.6797 102.592 32.6815 102.535 32.6959 102.48C32.7102 102.425 32.7367 102.374 32.7735 102.331C32.8102 102.288 32.8563 102.253 32.9082 102.23C32.9601 102.207 33.0165 102.196 33.0733 102.198C36.7711 102.315 40.1278 102.315 43.1434 102.198C46.7485 102.053 50.829 102.366 55.147 102.198C56.7099 102.136 58.6796 102.164 61.0562 102.282C61.3086 102.293 62.6513 102.183 65.0842 101.952C65.2791 101.934 65.4694 101.885 65.6482 101.808C67.826 100.87 69.4842 99.9722 70.6228 99.1148C72.4435 97.7482 73.8211 95.9355 74.9771 93.7531C76.0446 91.7434 77.253 89.987 78.1714 87.7804C78.7152 86.4742 79.7705 85.3448 80.5197 83.8014C81.7886 81.1808 82.7352 78.9622 84.141 76.4622C85.3225 74.3668 86.3054 72.5059 87.0895 70.8794C87.1323 70.7913 87.1648 70.6982 87.1862 70.6021C87.3835 69.7098 87.8347 69.1793 88.2737 68.3392C90.8678 63.3982 92.5448 60.227 93.3048 58.8256C94.0594 57.4296 95.2114 56.623 96.7609 56.406C96.8933 56.3875 97.0189 56.3378 97.1274 56.2613C97.1543 56.2426 97.1945 56.2037 97.2482 56.1448C97.2874 56.1031 97.3352 56.0701 97.3887 56.048C97.4421 56.0258 97.4999 56.015 97.5584 56.0161L115.201 56.2734Z" fill="#02468D"/>
<path d="M151.1 56.5227C150.754 57.5717 150.246 58.2671 149.376 59.4809C149.12 59.8381 148.916 60.2307 148.772 60.6465C148.458 61.5669 148.047 62.8129 147.427 63.7735C146.538 65.1481 145.393 67.439 143.991 70.6464C143.242 72.3613 139.61 79.4902 133.095 92.033C132.837 92.526 132.63 92.9748 132.475 93.3794C132.295 93.851 132.089 94.2972 131.858 94.7179C129.944 98.2387 128.107 101.813 126.348 105.441C125.482 107.222 124.624 108.677 123.746 110.413C121.409 115.023 117.172 117.72 112.403 119.047C110.963 119.446 108.988 119.633 106.477 119.609C101.33 119.561 98.5919 119.53 98.2643 119.517C92.2222 119.296 88.6453 119.509 80.5892 119.593C72.8593 119.678 65.7015 119.469 59.5748 119.581C52.7634 119.706 48.6669 119.557 40.502 119.589C39.5312 119.593 38.931 119.87 38.5081 118.733C38.261 118.077 37.9737 117.577 37.6461 117.234C37.5928 117.178 37.5505 117.114 37.5212 117.045L36.1436 113.862C36.1347 113.841 36.1312 113.818 36.1335 113.796C36.1358 113.773 36.1437 113.752 36.1566 113.733C36.1695 113.715 36.1869 113.7 36.2072 113.69C36.2275 113.68 36.25 113.676 36.2725 113.677C37.728 113.765 39.5447 113.791 41.7225 113.753C48.3486 113.633 54.6405 113.785 60.4328 113.749C66.7488 113.709 74.0208 113.73 82.2487 113.813C83.2235 113.821 84.9677 113.608 87.4812 113.174C91.1413 112.539 94.2 110.786 96.6571 107.913C97.2371 107.238 98.1126 105.735 99.2834 103.403C101.182 99.6254 103.106 96.1152 105.056 92.873C105.517 92.1067 106.134 90.9598 106.904 89.4325C108.048 87.1817 109.881 84.7742 110.993 82.3827C112.913 78.2563 114.187 75.5446 114.816 74.2477C115.283 73.2911 116.076 72.234 116.475 71.1488C116.76 70.3771 117.281 69.3415 118.038 68.0419C119.033 66.3378 119.629 64.6175 120.769 62.8812C121.491 61.7799 122.223 60.617 122.964 59.3925C124.197 57.3507 125.848 56.9769 127.943 56.3137C128.066 56.2738 128.195 56.2534 128.326 56.2534L150.947 56.3137C150.972 56.3138 150.997 56.3198 151.02 56.3313C151.042 56.3427 151.062 56.3593 151.077 56.3796C151.092 56.4 151.101 56.4235 151.106 56.4484C151.11 56.4732 151.108 56.4987 151.1 56.5227Z" fill="#02468D"/>
<path d="M42.1736 124.766C42.222 124.763 42.3039 124.78 42.4193 124.818C42.5563 124.863 42.6355 124.886 42.657 124.886C66.0976 124.768 89.3475 124.767 112.407 124.882C113.825 124.89 115.896 124.455 118.622 123.576C123.238 122.091 126.674 119.198 128.93 114.894C134.604 104.074 139.391 94.9814 143.29 87.6155C143.548 87.1331 143.852 86.7741 144.204 86.5383C144.252 86.5067 144.306 86.4873 144.363 86.4821C144.42 86.4768 144.477 86.4857 144.529 86.5081C144.582 86.5304 144.628 86.5655 144.663 86.6101C144.698 86.6547 144.722 86.7074 144.732 86.7634C145.102 88.8293 144.982 91.1484 144.889 94.7336C144.838 96.7566 144.595 98.8681 144.16 101.068C142.422 109.841 139.185 117.495 134.448 124.03C126.33 135.241 115.577 142.618 102.188 146.16C94.8404 148.106 86.7682 148.528 79.1592 147.334C64.0352 144.96 51.6355 137.591 41.9601 125.228C41.9274 125.186 41.9067 125.137 41.9005 125.085C41.8942 125.032 41.9026 124.979 41.9247 124.931C41.9468 124.883 41.9818 124.843 42.0257 124.813C42.0696 124.784 42.1208 124.768 42.1736 124.766ZM144.192 87.7441C144.191 87.7162 144.181 87.6891 144.163 87.6674C144.145 87.6457 144.12 87.6305 144.093 87.6245C144.066 87.6184 144.038 87.6218 144.013 87.634C143.989 87.6462 143.97 87.6666 143.958 87.6918C142.492 90.6286 141.279 93.0991 140.317 95.1034C139.326 97.1693 137.058 100.549 135.769 103.351C134.999 105.028 134.366 106.294 133.872 107.149C133.803 107.269 133.75 107.4 133.715 107.539C133.635 107.847 133.563 108.039 133.502 108.114C133.008 108.706 132.598 109.35 132.273 110.047C131.415 111.892 130.138 114.131 129.611 115.079C128.802 116.537 128.077 117.634 127.435 118.371C124.557 121.669 120.966 123.816 116.664 124.81C116.587 124.826 116.508 124.834 116.431 124.834C115.99 124.821 115.44 124.9 114.779 125.071C113.665 125.358 112.264 125.515 110.578 125.541C109.061 125.565 106.921 125.541 104.157 125.469C97.9863 125.308 90.4982 125.441 85.8297 125.481C81.5841 125.521 76.6417 125.296 72.1423 125.457C70.5392 125.513 67.118 125.524 61.8789 125.489C59.0834 125.47 55.536 125.473 51.2367 125.497C51.1458 125.5 51.0538 125.49 50.9628 125.469C50.364 125.346 49.7625 125.334 49.1583 125.433C47.3376 125.734 45.4525 125.686 43.4989 125.646C43.4715 125.645 43.4446 125.652 43.4212 125.666C43.3979 125.68 43.3791 125.701 43.3669 125.726C43.3547 125.751 43.3496 125.778 43.3523 125.806C43.355 125.834 43.3653 125.861 43.382 125.883C47.2946 130.915 51.9202 135.146 57.2587 138.576C59.6272 140.095 62.3381 141.491 65.3913 142.764C68.552 144.082 71.4294 145.076 74.0234 145.746C75.2399 146.057 77.2486 146.413 80.0494 146.815C80.573 146.888 81.3021 147.157 81.713 147.173C86.8044 147.385 90.5197 147.391 92.8586 147.193C99.4055 146.638 105.811 144.866 112.076 141.876C113.634 141.133 115.359 140.24 117.253 139.195C117.932 138.822 118.507 138.453 118.976 138.085C120.479 136.916 121.712 136.321 123.125 135.055C124.154 134.136 125.634 132.89 127.564 131.317C128.64 130.437 129.719 128.483 131.085 127.254C131.332 127.034 131.662 126.657 132.076 126.124C134.004 123.651 135.747 121.017 137.304 118.222C137.446 117.97 138.036 116.844 139.072 114.842C139.36 114.285 139.662 113.561 139.979 112.672C139.979 112.669 140.246 111.932 140.78 110.461C143.452 103.092 144.59 95.52 144.192 87.7441Z" fill="#6A0F0D"/>
<path d="M144.192 87.7441C144.59 95.52 143.452 103.092 140.78 110.461C140.246 111.932 139.979 112.669 139.979 112.672C139.662 113.561 139.36 114.285 139.072 114.842C138.036 116.844 137.446 117.97 137.304 118.222C135.747 121.017 134.004 123.651 132.076 126.124C131.662 126.657 131.332 127.034 131.085 127.254C129.719 128.483 128.64 130.437 127.564 131.317C125.634 132.89 124.154 134.136 123.125 135.055C121.712 136.321 120.479 136.916 118.976 138.085C118.507 138.453 117.932 138.822 117.252 139.195C115.359 140.24 113.634 141.133 112.076 141.876C105.811 144.866 99.4055 146.638 92.8586 147.193C90.5196 147.391 86.8044 147.385 81.713 147.173C81.3021 147.157 80.573 146.888 80.0494 146.815C77.2485 146.413 75.2399 146.057 74.0234 145.746C71.4294 145.076 68.552 144.082 65.3913 142.764C62.338 141.491 59.6272 140.095 57.2587 138.576C51.9201 135.146 47.2946 130.915 43.382 125.883C43.3653 125.861 43.355 125.834 43.3523 125.806C43.3496 125.778 43.3546 125.751 43.3668 125.726C43.379 125.701 43.3979 125.68 43.4212 125.666C43.4446 125.652 43.4715 125.645 43.4988 125.646C45.4524 125.686 47.3376 125.734 49.1582 125.433C49.7624 125.334 50.364 125.346 50.9628 125.469C51.0537 125.49 51.1458 125.5 51.2367 125.497C55.536 125.473 59.0834 125.47 61.8788 125.489C67.118 125.524 70.5391 125.513 72.1423 125.457C76.6416 125.296 81.5841 125.521 85.8296 125.481C90.4982 125.441 97.9863 125.308 104.157 125.469C106.921 125.541 109.061 125.565 110.578 125.541C112.264 125.515 113.665 125.358 114.779 125.071C115.44 124.9 115.99 124.821 116.431 124.834C116.508 124.834 116.587 124.826 116.664 124.81C120.966 123.816 124.557 121.669 127.435 118.371C128.077 117.634 128.802 116.537 129.611 115.079C130.138 114.131 131.415 111.892 132.273 110.047C132.598 109.35 133.008 108.706 133.502 108.114C133.563 108.039 133.635 107.847 133.715 107.539C133.75 107.4 133.803 107.269 133.872 107.149C134.366 106.294 134.999 105.028 135.769 103.351C137.058 100.549 139.326 97.1693 140.317 95.1034C141.278 93.0991 142.492 90.6286 143.958 87.6918C143.97 87.6666 143.989 87.6462 144.013 87.634C144.038 87.6218 144.066 87.6184 144.093 87.6245C144.12 87.6305 144.145 87.6457 144.163 87.6674C144.181 87.6891 144.191 87.7161 144.192 87.7441Z" fill="#DC1A1B"/>
</svg>
