<svg width="181" height="181" viewBox="0 0 181 181" fill="none" xmlns="http://www.w3.org/2000/svg">
<rect width="181" height="181" fill="#898989"/>
<path d="M99.8607 86.1587C99.854 86.1594 99.8473 86.1579 99.8414 86.1547C99.8355 86.1514 99.8308 86.1465 99.8278 86.1405C99.8247 86.1345 99.8236 86.1277 99.8245 86.121C99.8254 86.1144 99.8283 86.1082 99.8329 86.1032C103.517 81.1663 107.846 76.5405 112.82 72.2258C127.672 59.3446 145.015 52.0188 164.848 50.2485C164.878 50.2468 164.909 50.2548 164.934 50.2712C164.96 50.2877 164.98 50.3118 164.991 50.3401C165.002 50.3684 165.004 50.3995 164.996 50.429C164.989 50.4584 164.972 50.4847 164.948 50.5041C154.059 59.089 145.743 69.7721 140 82.5533C139.973 82.6137 139.931 82.6657 139.878 82.7038C139.825 82.742 139.763 82.7648 139.698 82.7699L99.8607 86.1587Z" fill="#00A1CD"/>
<path d="M86.2542 53.3041C86.241 53.2908 86.232 53.274 86.2284 53.2557C86.2247 53.2375 86.2266 53.2185 86.2338 53.2013C86.2409 53.184 86.253 53.1693 86.2686 53.1589C86.2841 53.1486 86.3024 53.143 86.3211 53.1429C90.4514 53.2615 94.1894 53.5466 97.5352 53.9985C105.309 55.0466 112.621 57.0651 119.473 60.0539C120.647 60.565 121.605 61.0446 122.345 61.4927C122.378 61.5118 122.405 61.5394 122.424 61.5728C122.443 61.6062 122.452 61.644 122.451 61.6822C122.45 61.7204 122.438 61.7576 122.418 61.7898C122.397 61.822 122.368 61.8479 122.333 61.865C113.919 66.1093 105.838 71.0258 99.0241 77.6146C98.9975 77.6414 98.9642 77.6606 98.9276 77.6702C98.891 77.6798 98.8525 77.6795 98.8161 77.6693C98.7797 77.6591 98.7467 77.6394 98.7205 77.6122C98.6943 77.585 98.6759 77.5513 98.6672 77.5146C98.065 75.1146 97.4293 71.7647 96.4144 68.9814C94.2024 62.9001 90.8157 57.6743 86.2542 53.3041Z" fill="#00A1CD"/>
<path d="M102.346 106.036L94.1544 131.524C94.1353 131.584 94.0973 131.637 94.0461 131.674C93.995 131.711 93.9332 131.73 93.87 131.73H82.773C82.7254 131.73 82.6786 131.719 82.6364 131.697C82.5942 131.675 82.5578 131.644 82.5305 131.605C82.5031 131.566 82.4855 131.522 82.4792 131.475C82.4729 131.428 82.478 131.38 82.4941 131.335L95.844 94.6308C95.8633 94.5771 95.8978 94.5302 95.9433 94.4957C95.9888 94.4612 96.0434 94.4406 96.1005 94.4364L108.859 93.3531C108.924 93.3481 108.988 93.3644 109.043 93.3995C109.097 93.4347 109.139 93.4867 109.16 93.5475L122.979 131.358C122.995 131.402 123 131.45 122.994 131.497C122.987 131.544 122.97 131.589 122.942 131.627C122.915 131.666 122.879 131.697 122.836 131.719C122.794 131.741 122.747 131.752 122.7 131.752H111.514C111.45 131.753 111.389 131.733 111.337 131.696C111.286 131.659 111.248 131.607 111.229 131.547L102.909 106.031C102.89 105.971 102.852 105.92 102.801 105.883C102.75 105.847 102.688 105.828 102.626 105.828C102.563 105.829 102.502 105.849 102.452 105.887C102.402 105.924 102.364 105.976 102.346 106.036Z" fill="white"/>
<path d="M72.3526 131.73H61.0102C60.9815 131.73 60.9532 131.723 60.9278 131.71C60.9024 131.696 60.8805 131.677 60.8641 131.654C60.8477 131.63 60.8372 131.603 60.8335 131.575C60.8298 131.547 60.833 131.518 60.8429 131.491L73.5794 96.4807C73.5908 96.4491 73.611 96.4213 73.6377 96.4007C73.6643 96.38 73.6963 96.3673 73.7299 96.364L85.4348 95.3641C85.4648 95.3612 85.4951 95.3661 85.5228 95.3781C85.5505 95.3901 85.5747 95.409 85.5931 95.4328C85.6115 95.4567 85.6235 95.4848 85.628 95.5146C85.6325 95.5443 85.6293 95.5747 85.6188 95.6029L72.5199 131.613C72.5073 131.647 72.4845 131.677 72.4546 131.698C72.4247 131.719 72.3891 131.73 72.3526 131.73Z" fill="white"/>
<path d="M50.4649 131.713H39.6969C39.6549 131.713 39.6135 131.703 39.5763 131.683C39.5391 131.664 39.5071 131.636 39.4831 131.602C39.459 131.567 39.4436 131.528 39.4381 131.486C39.4326 131.445 39.4372 131.403 39.4515 131.363L44.013 118.814C44.0273 118.774 44.0319 118.732 44.0264 118.691C44.0209 118.649 44.0055 118.61 43.9814 118.575C43.9574 118.541 43.9254 118.513 43.8882 118.493C43.851 118.474 43.8097 118.464 43.7676 118.464H34.4105C34.3568 118.464 34.3045 118.48 34.2606 118.511C34.2167 118.542 34.1834 118.586 34.1651 118.636L29.4586 131.563C29.4404 131.614 29.407 131.657 29.3632 131.688C29.3193 131.719 29.267 131.735 29.2133 131.736H18.6126C18.5706 131.735 18.5292 131.725 18.492 131.706C18.4548 131.686 18.4228 131.658 18.3988 131.624C18.3747 131.59 18.3593 131.55 18.3538 131.509C18.3483 131.467 18.3529 131.425 18.3672 131.386L29.704 100.22C29.7208 100.173 29.7508 100.132 29.7903 100.101C29.8298 100.071 29.8773 100.052 29.9271 100.047L41.0687 99.103C41.1139 99.0985 41.1595 99.1057 41.201 99.1241C41.2426 99.1425 41.2786 99.1712 41.3056 99.2077C41.3326 99.2441 41.3496 99.2869 41.355 99.3318C41.3604 99.3768 41.354 99.4223 41.3363 99.4641L37.0816 110.18C37.0639 110.222 37.0575 110.268 37.0629 110.313C37.0683 110.358 37.0853 110.4 37.1123 110.437C37.1393 110.473 37.1753 110.502 37.2169 110.52C37.2584 110.539 37.304 110.546 37.3492 110.542L47.1469 109.703C47.1955 109.699 47.242 109.682 47.2814 109.654C47.3208 109.625 47.3515 109.586 47.37 109.542L51.8032 98.3585C51.8217 98.3137 51.8524 98.2749 51.8918 98.2464C51.9312 98.218 51.9778 98.201 52.0263 98.1974L62.7831 97.2808C62.827 97.2772 62.871 97.2846 62.9112 97.3025C62.9514 97.3203 62.9865 97.3479 63.0131 97.3828C63.0398 97.4176 63.0572 97.4586 63.0638 97.502C63.0704 97.5453 63.0659 97.5896 63.0508 97.6308L50.7102 131.541C50.692 131.591 50.6586 131.635 50.6148 131.666C50.5709 131.696 50.5186 131.713 50.4649 131.713Z" fill="white"/>
</svg>
