<svg width="362" height="140" viewBox="0 0 362 140" fill="none" xmlns="http://www.w3.org/2000/svg">
<rect width="362" height="140" fill="white"/>
<path d="M74.5668 46.1409C80.8214 45.6154 87.0994 46.6165 93.1399 48.1998C100.696 50.2304 107.994 53.2244 114.83 57.0304C117.87 58.7619 120.866 60.6162 123.533 62.8905C121.341 64.1719 118.691 64.1878 116.242 63.8964C112.474 63.418 108.839 62.2578 105.238 61.0932C99.1046 59.0561 93.0518 56.769 86.8352 54.9891C81.1043 53.3409 75.2117 52.0642 69.228 51.9508C66.0521 51.8897 62.8618 52.206 59.7803 52.9882C61.1645 51.3355 62.8604 49.9504 64.7525 48.9192C67.7604 47.2602 71.166 46.4465 74.5668 46.1409Z" fill="#3E96D9"/>
<path d="M51.195 60.2382C56.1168 57.759 61.734 57.0569 67.1847 57.1768C74.2982 57.3576 81.3155 58.8641 88.0921 60.9638C95.7448 63.3736 103.157 66.5754 110.134 70.5452C113.468 72.4641 116.722 74.5559 119.682 77.0227C117.48 78.3401 114.818 78.5258 112.317 78.3415C109.053 78.085 105.863 77.2678 102.726 76.3614C97.4925 74.8079 92.3645 72.9267 87.2001 71.164C80.6264 68.916 73.9866 66.7849 67.1595 65.4502C59.7711 64.0066 52.0283 63.4998 44.6699 65.3855C46.4584 63.2415 48.7046 61.4945 51.195 60.2382Z" fill="#3E96D9"/>
<path d="M42.7948 72.2894C47.0923 71.019 51.6103 70.6605 56.0726 70.7926C63.2113 71.0287 70.2618 72.4736 77.0968 74.4994C85.6902 77.0854 94.0068 80.6004 101.845 84.9747C105.764 87.1881 109.588 89.6073 113.051 92.4924C110.766 93.8634 108.01 94.1123 105.402 93.9612C102.003 93.7486 98.674 92.9428 95.4035 92.0281C90.8134 90.7138 86.3099 89.124 81.7982 87.5625C75.2576 85.2865 68.6979 83.0278 61.989 81.29C55.5617 79.6373 48.9706 78.4395 42.3167 78.4188C38.5097 78.4045 34.6937 78.8201 31 79.7583C34.0124 76.0923 38.2723 73.6037 42.7948 72.2894Z" fill="#3E96D9"/>
<path d="M195.383 56.3729C195.841 55.5007 196.84 55.0499 197.783 55.1084C198.262 55.0476 198.408 55.4902 198.256 55.8862C197.601 55.6265 196.822 55.6117 196.259 56.0897C197.182 56.4167 198.168 56.3688 199.12 56.2242C198.929 56.4148 198.743 56.6078 198.559 56.8025C197.419 56.8091 196.312 57.0816 195.233 57.4362C195.508 57.193 195.79 56.96 196.075 56.7275C195.903 56.6391 195.555 56.4609 195.383 56.3729Z" fill="#212129"/>
<path d="M249.835 56.1586C250.25 55.8096 250.664 55.4584 251.076 55.1028C251.631 55.785 252.472 56.0671 253.289 56.2792C252.906 56.6528 252.632 57.3597 252 57.239C252.105 58.289 252.462 59.3322 252.39 60.388C252.071 60.5764 251.716 60.6925 251.38 60.8293C252.168 60.9661 252.944 61.1621 253.709 61.3994C255.501 61.9425 257.356 62.2995 259.23 62.3489C258.641 62.9162 258.062 63.4944 257.473 64.0582C254.934 64.0518 252.456 64.6605 249.998 65.2243C247.203 65.8818 244.319 65.6082 241.48 65.6571C240.405 68.1181 237.525 69.5761 234.938 68.9635C233.778 68.6796 232.734 68.0669 231.766 67.3829C234.589 67.7606 237.832 67.6404 240.1 65.6777C238.893 65.6266 237.674 65.7409 236.48 65.5306C235.957 65.4346 235.336 65.2261 235.162 64.6587C234.904 63.6949 235.475 62.7467 236.153 62.1161C237.011 61.2868 238.225 60.6127 239.44 60.9765C240.544 61.2787 241.18 62.3489 241.565 63.3598C243.976 63.37 246.388 63.3611 248.802 63.3636C250.113 63.3573 251.453 63.3738 252.722 62.9838C250.325 62.0199 247.583 61.6441 245.101 62.5142C245.692 61.6584 246.654 61.1843 247.619 60.8986C248.694 60.547 249.857 60.8394 250.932 60.4739C250.761 59.3607 250.48 58.2699 250.258 57.1675C250.2 56.7975 250.035 56.4672 249.835 56.1586ZM236.748 63.2105C237.64 63.4599 238.576 63.5477 239.499 63.4127C239.085 63.0759 238.659 62.6898 238.112 62.6247C237.584 62.5736 237.158 62.9346 236.748 63.2105Z" fill="#212129"/>
<path d="M322.852 55.1028C323.417 55.7787 324.251 56.0706 325.072 56.2832C324.689 56.6568 324.411 57.3551 323.782 57.2408C323.929 58.2391 324.144 59.2299 324.221 60.2345C324.047 60.6269 323.498 60.635 323.164 60.8292C325.768 61.3741 328.301 62.377 331 62.346C330.413 62.9138 329.833 63.4901 329.245 64.0575C325.335 63.966 321.665 65.7322 317.761 65.6627C311.146 65.6716 304.531 65.6551 297.917 65.669C296.81 68.265 293.658 69.723 291.008 68.8489C290.006 68.5403 289.1 67.9869 288.249 67.3823C290.3 67.6931 292.439 67.6276 294.415 66.9432C295.188 66.6782 295.92 66.2714 296.502 65.6811C295.162 65.6098 293.785 65.7937 292.479 65.4116C291.992 65.277 291.561 64.8541 291.572 64.315C291.515 63.1714 292.36 62.2564 293.209 61.6254C294.039 60.9822 295.19 60.6333 296.188 61.0822C297.134 61.4805 297.659 62.4443 298.021 63.3633C299.71 63.3305 301.545 63.6414 303.03 62.6161C303.235 62.2564 303.119 61.8339 303.068 61.4518C302.921 60.6512 302.718 59.861 302.553 59.0667C302.38 58.9563 302.211 58.8478 302.044 58.7397C302.543 58.3029 303.042 57.8616 303.535 57.4167C304.03 58.1822 304.849 58.6029 305.721 58.7684C305.366 59.2178 305.059 59.7672 304.477 59.9345C304.644 60.7351 304.622 61.5684 304.271 62.3179C306.747 61.5559 309.307 60.8248 311.919 60.9616C312.611 61.0414 313.47 61.0719 313.917 61.7052C314.277 62.273 313.812 62.8794 313.559 63.3777C316.3 63.3431 319.04 63.3904 321.781 63.353C322.707 63.3454 323.639 63.2431 324.533 62.9794C322.127 62.042 319.401 61.6379 316.917 62.5076C317.503 61.646 318.475 61.1805 319.439 60.8925C320.508 60.549 321.661 60.8455 322.725 60.4696C322.5 59.1259 322.17 57.8046 321.888 56.4708C321.807 56.4098 321.647 56.2833 321.566 56.2219C321.997 55.8523 322.428 55.4804 322.852 55.1028ZM303.72 63.4265C304.71 63.5005 305.706 63.4857 306.703 63.4776C308.453 63.4265 310.273 63.5189 311.955 62.9448C311.099 62.2361 309.94 62.2402 308.898 62.2908C307.133 62.42 305.375 62.7793 303.72 63.4265ZM293.205 63.2103C294.099 63.4655 295.035 63.5471 295.958 63.4161C295.558 63.0878 295.145 62.712 294.618 62.6322C294.075 62.5568 293.63 62.9327 293.205 63.2103Z" fill="#212129"/>
<path d="M188.37 56.3992C189.022 56.6831 189.665 56.9829 190.311 57.2849C189.833 57.5965 189.355 57.9064 188.879 58.214C188.231 57.9261 187.586 57.6364 186.942 57.3424C187.418 57.0307 187.896 56.7169 188.37 56.3992Z" fill="#212129"/>
<path d="M145.253 57.6314C145.728 57.4517 146.157 57.1828 146.589 56.9177C147.168 57.1985 147.751 57.4751 148.337 57.7478C147.824 58.0784 147.31 58.4076 146.794 58.7326C146.282 58.4964 145.767 58.264 145.228 58.1038C145.234 57.945 145.241 57.7886 145.253 57.6314Z" fill="#212129"/>
<path d="M142.92 56.9177C143.515 57.1985 144.106 57.4855 144.71 57.7441C144.699 57.8317 144.676 58.0051 144.664 58.0927C144.177 58.3648 143.711 58.6764 143.249 58.9918C142.606 58.6697 141.968 58.3364 141.341 57.9834C141.868 57.63 142.396 57.277 142.92 56.9177Z" fill="#212129"/>
<path d="M161.809 56.9177C162.407 57.1991 162.999 57.493 163.624 57.7087C163.541 58.4822 162.637 58.5479 162.17 58.9918C161.533 58.6555 160.893 58.3283 160.255 58.0006C160.775 57.645 161.294 57.2845 161.809 56.9177Z" fill="#212129"/>
<path d="M163.882 57.759C164.372 57.4911 164.849 57.2072 165.326 56.9177C165.967 57.1977 166.611 57.4811 167.251 57.7711C166.69 58.0939 166.171 58.492 165.565 58.7326C164.988 58.5474 164.453 58.2713 163.882 58.0761C163.882 57.9974 163.882 57.8377 163.882 57.759Z" fill="#212129"/>
<path d="M203.117 58.2382C203.436 57.7959 203.761 57.3599 204.079 56.9177C204.572 57.7576 205.491 58.1286 206.374 58.4043C206.028 58.822 205.747 59.335 205.229 59.5644C204.858 60.3428 204.39 61.0709 203.783 61.6851C204.402 62.2431 205.074 62.8982 205.13 63.7862C205.219 64.4493 204.943 65.2562 204.243 65.4548C203.043 65.7634 201.787 65.6882 200.561 65.7327C199.978 65.6984 199.272 65.796 198.82 65.3515C198.389 64.7289 198.296 63.9483 198.101 63.2344C199.591 63.5225 200.958 62.7418 202.166 61.9629C201.105 61.2005 199.98 60.5112 198.746 60.0774C198.205 60.3388 197.665 59.9313 197.181 59.7225C196.852 59.5114 196.386 59.3573 196.27 58.9498C196.431 58.305 196.889 57.7999 197.314 57.3132C199.373 58.2644 201.178 59.6899 202.982 61.0504C203.444 60.219 203.957 59.0086 203.117 58.2382ZM201.531 63.3787C202.267 63.3799 203.005 63.3359 203.737 63.2286C203.47 62.9587 203.202 62.6951 202.934 62.4337C202.464 62.7459 201.994 63.058 201.531 63.3787Z" fill="#212129"/>
<path d="M207.67 58.7292C208.286 58.2156 208.911 57.7114 209.511 57.177C209.429 59.3464 210.187 61.4347 210.261 63.5877C210.103 64.5011 209.389 65.1944 208.685 65.7328C208.846 64.4063 208.484 63.11 208.254 61.8159C208.056 60.7875 207.862 59.7577 207.67 58.7292Z" fill="#212129"/>
<path d="M222.813 58.0091C223.226 57.729 223.645 57.453 224.064 57.177C224.646 57.4571 225.227 57.746 225.806 58.0344C225.289 58.3503 224.816 58.7953 224.251 58.9919C223.743 58.8353 223.276 58.557 222.8 58.3246L222.697 58.574C222.697 58.3186 222.7 58.0638 222.703 57.8107L222.813 58.0091Z" fill="#212129"/>
<path d="M219.07 58.3679C219.603 58.06 220.138 57.7482 220.674 57.4363C221.256 57.6912 221.843 57.9386 222.439 58.1655C222.399 58.2585 222.32 58.4471 222.281 58.5401C221.839 58.7488 221.414 58.99 221.003 59.2511C220.348 58.9779 219.703 58.6838 219.07 58.3679Z" fill="#212129"/>
<path d="M275.427 58.6803C275.928 58.2747 276.42 57.8585 276.909 57.4363C277.4 58.2008 278.244 58.5907 279.123 58.7503C278.761 59.1878 278.426 59.6835 277.871 59.8947C277.963 60.681 278.02 61.509 277.612 62.2254C279.741 61.5724 281.92 60.987 284.158 60.8716C285.028 60.8519 285.935 60.8519 286.763 61.1628C287.232 61.3197 287.623 61.8412 287.414 62.3369C286.959 63.5272 285.913 64.4067 284.822 65.0256C283.572 65.4199 282.233 65.3959 280.937 65.4597C278.689 65.4634 276.439 65.4977 274.195 65.4417C272.68 65.4199 271.129 64.5185 270.63 63.0673C272.557 63.2106 274.69 63.5988 276.416 62.4999C276.701 61.8809 276.354 61.2042 276.257 60.5792C276.055 59.9165 276.109 59.0764 275.427 58.6803ZM277.107 63.2881C279.848 63.3716 282.631 63.4494 285.331 62.8981C284.768 62.1835 283.762 62.1835 282.932 62.1555C280.947 62.1975 278.957 62.5738 277.107 63.2881Z" fill="#212129"/>
<path d="M260.785 58.9299C261.398 58.4355 262.018 57.9492 262.62 57.4363C262.55 59.5397 263.301 61.5558 263.376 63.6466C263.211 64.5508 262.47 65.1832 261.81 65.7328C261.918 63.4222 261.115 61.1975 260.785 58.9299Z" fill="#212129"/>
<path d="M188.456 59.625C189.078 58.7743 190.071 58.0185 191.167 58.2596C192.613 58.5603 193.911 59.5735 194.608 60.9059C195.202 62.0489 195.005 63.4392 194.503 64.578C194.341 64.9114 194.17 65.3402 193.76 65.3958C191.928 65.8775 190.021 65.6816 188.151 65.721C186.474 65.6694 184.7 65.958 183.134 65.1773C182.235 66.5862 181.097 68.0521 179.413 68.4438C177.454 68.9666 175.515 67.9512 173.987 66.7735C176.846 67.2348 180.166 66.8372 182.215 64.5306C181.701 64.2013 181.233 63.8037 180.824 63.3465C181.42 62.7861 182.046 62.2632 182.669 61.7359C183.206 62.4093 183.835 63.1506 184.742 63.2393C186.005 63.3523 187.279 63.26 188.548 63.2886C190.181 63.2602 191.846 63.408 193.45 63.0005C193.213 62.5369 192.941 62.0923 192.643 61.6681C191.91 62.1909 191.061 62.5885 190.15 62.5473C189.391 62.5371 188.446 62.4528 188.014 61.7133C187.651 61.0068 188.018 60.1954 188.456 59.625ZM189.278 60.4654C190.177 60.7065 191.125 60.768 192.034 60.55C191.22 60.033 190.029 59.6002 189.278 60.4654Z" fill="#212129"/>
<path d="M145.529 60.6459C146.094 60.1793 146.663 59.7118 147.238 59.251C147.441 60.3373 147.537 61.4479 147.826 62.518C147.994 63.1756 148.732 63.3697 149.338 63.3477C150.597 63.3336 151.884 63.4442 153.123 63.1774C153.501 62.8569 153.755 62.4198 154.056 62.0312C154.43 62.5162 154.808 63.0933 155.464 63.2236C156.578 63.4543 157.73 63.3257 158.858 63.2558C160 60.977 162.715 59.4055 165.29 59.9945C166.229 60.8163 166.007 62.1994 165.503 63.1955C167.413 63.4279 169.384 63.468 171.284 63.1316C171.008 62.7584 170.691 62.4199 170.341 62.1152C170.906 61.6284 171.467 61.135 172.042 60.6582C172.696 61.3718 173.272 62.2715 173.205 63.2738C173.119 63.975 172.847 64.6687 172.398 65.2243C171.697 65.6209 170.852 65.6349 170.065 65.6891C168.096 65.723 166.123 65.7432 164.156 65.653C163.42 65.6349 162.737 65.3484 162.085 65.0438C160.372 65.7952 158.466 65.6728 156.639 65.7248C155.983 65.7173 155.273 65.7855 154.69 65.4364C154.164 65.1798 153.794 64.7211 153.479 64.2501C153.02 64.6851 152.668 65.2824 152.091 65.5667C150.784 65.7573 149.435 65.793 148.124 65.6249C147.198 65.4845 146.702 64.623 146.438 63.8228C145.848 64.4183 145.265 65.1398 144.45 65.4066C142.857 65.3264 141.17 65.1658 139.787 64.3101C140.421 63.5367 141.04 62.6427 142.032 62.2936C143.237 61.8569 144.513 61.6663 145.767 61.4097C145.706 61.2173 145.588 60.8365 145.529 60.6459ZM160.878 62.452C161.286 62.6562 161.691 62.8891 162.142 62.9991C162.776 63.0515 163.402 62.8807 164.026 62.7746C163.847 62.3921 163.595 62.0008 163.15 61.8987C162.349 61.7142 161.577 62.117 160.878 62.452ZM143.761 63.0814C144.611 63.3398 145.499 63.4323 146.387 63.4442C146.245 63.011 146.104 62.5801 145.964 62.1491C145.198 62.3798 144.424 62.6245 143.761 63.0814Z" fill="#212129"/>
<path d="M221.178 60.7608C221.74 60.3535 222.29 59.9308 222.843 59.5103C223.061 60.531 223.139 61.581 223.454 62.5787C223.668 63.202 224.432 63.2936 225.017 63.2816C226.376 63.2623 227.753 63.3753 229.09 63.0771C228.797 62.7438 228.485 62.4323 228.146 62.1461C228.705 61.7016 229.259 61.2481 229.826 60.8096C230.604 61.5634 231.272 62.6719 230.866 63.7629C230.641 64.3259 230.415 65.1033 229.697 65.2124C228.301 65.5551 226.852 65.4267 225.428 65.4734C224.628 65.4637 223.761 65.5375 223.045 65.1268C222.516 64.8325 222.298 64.2536 222.054 63.7513C221.472 64.2733 220.911 64.8675 220.169 65.1752C218.56 65.1268 216.868 64.9608 215.443 64.174C216.066 63.469 216.681 62.6621 217.62 62.3391C218.831 61.9279 220.103 61.7311 221.361 61.5129C221.3 61.2618 221.238 61.0102 221.178 60.7608ZM219.59 62.9076C219.593 62.9543 219.598 63.048 219.601 63.0946C220.377 63.3149 221.191 63.3419 221.994 63.3851C221.859 62.9838 221.722 62.5842 221.587 62.185C220.905 62.3836 220.21 62.5628 219.59 62.9076Z" fill="#212129"/>
<path d="M228.657 67.4279C228.892 66.9789 229.569 66.815 229.992 66.5105C230.585 66.7481 231.175 66.9931 231.766 67.2386C231.268 67.5197 230.79 67.8317 230.268 68.0661C229.702 67.958 229.151 67.7129 228.657 67.4279Z" fill="#212129"/>
<path d="M250.162 67.4206C250.681 67.1186 251.2 66.8162 251.721 66.5105C252.409 66.82 253.097 67.1298 253.789 67.4356C253.286 67.7454 252.773 68.0362 252.259 68.3254C251.554 68.0325 250.85 67.7417 250.162 67.4206Z" fill="#212129"/>
<path d="M149.891 67.704C150.395 67.3941 150.852 66.9785 151.409 66.7698C151.961 66.9549 152.5 67.2011 152.987 67.5333C152.99 67.5871 152.999 67.6962 153 67.7521C152.571 68.0441 152.122 68.3043 151.684 68.5846C151.084 68.2926 150.489 67.9983 149.891 67.704Z" fill="#212129"/>
<path d="M153.519 67.3519C153.947 67.0534 154.402 66.7915 154.842 66.5105C155.438 66.7839 156.034 67.0611 156.628 67.3383C156.11 67.6679 155.593 67.9975 155.077 68.3254C154.555 68.0886 154.021 67.8735 153.54 67.5614C153.534 67.509 153.524 67.4043 153.519 67.3519Z" fill="#212129"/>
<path d="M166.992 67.7231C167.51 67.4041 168.028 67.0871 168.549 66.7698C169.155 67.0346 169.768 67.2892 170.36 67.5907C169.918 67.9952 169.371 68.2617 168.869 68.5846C168.239 68.3066 167.614 68.0148 166.992 67.7231Z" fill="#212129"/>
<path d="M170.619 67.3655C171.092 67.067 171.589 66.8035 172.068 66.5105C172.711 66.7762 173.35 67.0556 173.987 67.3345C173.428 67.6743 172.863 68.0056 172.292 68.3254C171.733 68.0754 171.162 67.8484 170.627 67.5559C170.626 67.5074 170.62 67.4141 170.619 67.3655Z" fill="#212129"/>
<path d="M225.029 67.4596C225.506 67.131 225.992 66.8185 226.48 66.5105C227.04 66.7634 227.587 67.0494 228.138 67.3269C227.794 67.7864 227.23 67.9985 226.778 68.3254C226.189 68.0537 225.604 67.7676 225.029 67.4596Z" fill="#212129"/>
<path d="M195.392 75.4499C197.033 73.7587 199.462 73.1883 201.741 73.0357C204.393 72.8871 207.21 73.0657 209.557 74.4199C210.972 75.2192 212.109 76.6889 212.071 78.3682C212.136 79.8808 211.192 81.1767 210.124 82.1524C210.66 82.4819 211.241 82.7431 211.769 83.0867C211.773 83.1449 211.783 83.2631 211.789 83.3236C211.305 83.7492 210.66 83.9601 210.176 84.3999H209.896C209.323 83.8961 208.629 83.5728 207.96 83.2252C206.474 83.6751 204.923 83.908 203.368 83.9058C201.36 83.9083 199.295 83.7091 197.448 82.8675C196.319 82.3311 195.244 81.5358 194.659 80.407C193.847 78.8181 194.113 76.7233 195.392 75.4499ZM198.916 76.1349C197.88 76.9787 197.588 78.5354 198.162 79.7224C198.648 80.7144 199.646 81.3571 200.672 81.6906C202.132 82.1282 203.717 82.1445 205.197 81.7832C204.578 81.4233 203.949 81.0859 203.324 80.7427C203.983 80.3488 204.645 79.9571 205.312 79.5738C206.012 79.9571 206.72 80.3307 207.426 80.7083C208.478 79.684 208.769 77.9046 207.867 76.6973C206.857 75.408 205.135 74.9439 203.56 74.8813C201.947 74.8293 200.183 75.0502 198.916 76.1349Z" fill="#212129"/>
<path d="M138.232 83.6082C140.435 80.2418 142.634 76.8732 144.846 73.5107C146.346 73.517 147.847 73.5132 149.347 73.5145C151.517 76.8769 153.686 80.2394 155.851 83.6058C154.529 83.6157 153.209 83.5958 151.888 83.6221C151.415 82.9561 150.974 82.2686 150.529 81.5851C148.193 81.5851 145.859 81.5851 143.526 81.5851C143.091 82.2585 142.658 82.932 142.227 83.6081C140.894 83.6093 139.563 83.6094 138.232 83.6082ZM144.784 79.8458C146.387 79.8483 147.99 79.8483 149.592 79.8458C148.767 78.5445 147.937 77.245 147.108 75.9477C146.33 77.245 145.555 78.5445 144.784 79.8458Z" fill="#212129"/>
<path d="M156.887 73.52C161.292 73.5019 165.696 73.5163 170.101 73.5138C170.099 74.0963 170.099 74.6792 170.101 75.2635C166.99 75.2672 163.878 75.2622 160.767 75.2672C160.765 76.0277 160.765 76.7887 160.779 77.5492C163.516 77.5312 166.255 77.5455 168.992 77.5417C168.992 78.122 168.992 78.7005 168.992 79.2813C166.251 79.2825 163.51 79.2788 160.767 79.2813C160.767 80.7285 160.769 82.1739 160.767 83.6211C159.475 83.6224 158.183 83.6224 156.893 83.6211C156.889 80.2542 156.899 76.887 156.887 73.52Z" fill="#212129"/>
<path d="M171.397 83.5983C171.411 80.2383 171.397 76.8779 171.405 73.518C174.816 73.518 178.23 73.5217 181.642 73.5155C183.243 73.4795 184.974 73.6296 186.294 74.6191C187.12 75.2069 187.456 76.454 186.848 77.3056C186.265 78.1072 185.267 78.4329 184.365 78.7485C185.055 79.0045 185.866 79.1743 186.34 79.7801C186.623 80.6994 186.48 81.695 186.697 82.6326C186.884 82.9983 187.319 83.1919 187.46 83.598C185.979 83.6339 184.496 83.5955 183.013 83.6221C182.269 82.7582 182.59 81.6129 182.454 80.5896C182.34 79.846 181.455 79.7081 180.832 79.6563C179.03 79.5883 177.225 79.6464 175.423 79.6282C175.423 80.9552 175.423 82.2845 175.423 83.612C174.079 83.6082 172.739 83.6281 171.397 83.5983ZM175.425 75.269C175.422 76.1426 175.422 77.018 175.429 77.8933C177.229 77.8833 179.032 77.8995 180.834 77.8895C181.695 77.8895 182.638 77.6139 183.172 76.9062C183.485 76.4866 183.292 75.8509 182.842 75.613C182.237 75.275 181.514 75.2732 180.838 75.2653C179.034 75.2715 177.23 75.2666 175.425 75.269Z" fill="#212129"/>
<path d="M188.757 73.5117C190.051 73.5104 191.346 73.5104 192.642 73.5117C192.642 76.8818 192.642 80.2514 192.642 83.6215C191.346 83.6215 190.051 83.6228 188.757 83.6215C188.755 80.2514 188.755 76.8818 188.757 73.5117Z" fill="#212129"/>
<path d="M213.89 73.5117C215.098 73.5104 216.306 73.5104 217.516 73.5117C217.516 76.8816 217.516 80.2512 217.516 83.6211C216.306 83.6224 215.098 83.6224 213.89 83.6211C213.888 80.2512 213.888 76.8816 213.89 73.5117Z" fill="#212129"/>
<path d="M218.811 73.5173C220.25 73.5048 221.689 73.5148 223.13 73.511C224.402 74.9523 225.672 76.3949 226.944 77.8361C228.149 76.3949 229.348 74.9501 230.558 73.511C231.997 73.5185 233.436 73.4986 234.875 73.5251C233.029 75.5347 231.126 77.4938 229.246 79.4752C229.072 79.6735 228.84 79.8774 228.895 80.1741C228.871 81.3165 228.897 82.4615 228.895 83.6061C227.593 83.6263 226.293 83.6285 224.993 83.6061C224.989 82.4593 225.015 81.3147 224.993 80.1697C225.037 79.8814 224.819 79.6814 224.648 79.4933C222.697 77.5061 220.744 75.5203 218.811 73.5173Z" fill="#212129"/>
<path d="M240.695 73.5189C242.201 73.5048 243.709 73.5127 245.217 73.5152C247.38 76.8829 249.556 80.2405 251.716 83.6104C250.385 83.6116 249.055 83.6104 247.726 83.6104C247.283 82.9384 246.84 82.2665 246.405 81.5905C244.072 81.5765 241.738 81.598 239.407 81.5781C238.954 82.2562 238.525 82.9479 238.066 83.6221C236.743 83.5979 235.421 83.6183 234.098 83.608C236.292 80.2425 238.509 76.8906 240.695 73.5189ZM242.964 75.9547C242.195 77.2547 241.418 78.5485 240.647 79.8485C242.25 79.8485 243.854 79.8485 245.459 79.8485C244.628 78.5507 243.818 77.2366 242.964 75.9547Z" fill="#212129"/>
<path d="M253.015 73.5117C254.382 73.5104 255.749 73.5104 257.118 73.5117C257.118 74.7751 257.116 76.0381 257.118 77.3011C259.733 77.3036 262.348 77.2999 264.964 77.3036C264.969 76.0384 264.964 74.7754 264.967 73.512C266.334 73.5107 267.701 73.512 269.068 73.5107C269.076 76.8755 269.065 80.2425 269.076 83.6072C267.704 83.6337 266.336 83.616 264.966 83.6197C264.963 82.0982 264.969 80.575 264.964 79.0535C262.345 79.0622 259.728 79.041 257.113 79.0634C257.123 80.5788 257.111 82.0941 257.121 83.6116C255.75 83.6297 254.381 83.6179 253.014 83.6191C253.011 80.2499 253.012 76.8809 253.015 73.5117Z" fill="#212129"/>
<path d="M281.138 75.8454C281.787 75.8429 282.439 75.8429 283.093 75.8528C284.281 78.5341 285.497 81.2031 286.694 83.88C286.028 83.88 285.363 83.88 284.698 83.8812C284.431 83.2697 284.167 82.6594 283.904 82.0497C282.709 82.0472 281.513 82.0496 280.32 82.0472C280.068 82.6574 279.822 83.2694 279.573 83.8809C278.922 83.8797 278.274 83.8797 277.626 83.8797C278.793 81.1984 279.968 78.5244 281.138 75.8454ZM280.885 80.687C281.694 80.6932 282.507 80.6932 283.32 80.6894C282.914 79.7128 282.505 78.7379 282.101 77.7613C281.668 78.7261 281.288 79.7103 280.885 80.687Z" fill="#212129"/>
<path d="M287.474 75.8445C288.076 75.8445 288.679 75.8445 289.283 75.8445C289.286 78.523 289.286 81.2015 289.283 83.88C288.679 83.88 288.075 83.88 287.474 83.8812C287.472 81.201 287.47 78.523 287.474 75.8445Z" fill="#212129"/>
<path d="M290.84 75.8477C292.316 75.8539 293.79 75.8314 295.266 75.8551C295.966 75.8932 296.732 75.9348 297.311 76.3731C298.353 77.1401 298.438 78.8712 297.433 79.6998C297.001 80.0765 296.416 80.196 295.877 80.3412C297.261 81.1541 297.941 82.6503 298.872 83.8775C298.149 83.8775 297.429 83.8775 296.707 83.8812C295.94 82.9113 295.278 81.8574 294.438 80.9469C293.984 80.453 293.253 80.5562 292.648 80.5107C292.647 81.6342 292.648 82.7555 292.647 83.8773C292.044 83.8773 291.441 83.8773 290.84 83.8773C290.84 81.1998 290.839 78.523 290.84 75.8477ZM292.648 77.2184C292.647 77.8895 292.647 78.561 292.649 79.2343C293.645 79.2002 294.663 79.3162 295.646 79.1088C296.511 78.8616 296.463 77.4472 295.561 77.2862C294.598 77.1383 293.617 77.2464 292.648 77.2184Z" fill="#212129"/>
<path d="M298.872 75.8442C299.475 75.843 300.08 75.8467 300.686 75.8582C301.103 77.6753 301.541 79.4884 301.979 81.3011C302.514 79.4863 303.028 77.6652 303.553 75.8486C304.253 75.8436 304.953 75.8436 305.657 75.8461C306.16 77.6868 306.642 79.5336 307.166 81.3709C307.632 79.5336 308.046 77.6868 308.492 75.8461C309.083 75.8436 309.676 75.8436 310.272 75.8461C309.567 78.5238 308.865 81.2015 308.157 83.8788C307.534 83.8776 306.912 83.8776 306.291 83.8751C305.714 81.8931 305.165 79.9027 304.564 77.9286C303.985 79.9106 303.428 81.9009 302.843 83.8812C302.207 83.8775 301.57 83.8775 300.938 83.875C300.252 81.1973 299.556 78.5219 298.872 75.8442Z" fill="#212129"/>
</svg>
