<svg width="362" height="140" viewBox="0 0 362 140" fill="none" xmlns="http://www.w3.org/2000/svg">
<rect width="362" height="140" fill="white"/>
<g clip-path="url(#clip0_263_22445)">
<path fill-rule="evenodd" clip-rule="evenodd" d="M312.068 78.3191C312.068 76.9631 312.808 76.8398 314.039 77.4562C316.259 78.688 318.477 80.044 318.477 80.044C318.599 79.3031 319.216 78.688 320.572 78.9342C321.804 79.3031 323.159 79.5503 323.159 79.5503C323.159 79.5503 322.421 77.948 322.173 77.2087C321.558 75.7294 322.051 75.1146 322.666 74.9904C322.666 74.9904 321.804 74.3737 321.311 74.0045C320.078 73.1423 320.324 72.2793 321.558 71.7856C323.159 71.1708 325.132 70.307 325.132 70.307C324.515 69.9371 323.776 68.828 324.515 67.5953C325.378 66.4861 326.611 64.7609 326.611 64.7609C326.611 64.7609 324.393 64.7609 323.038 64.7609C321.682 64.7609 321.311 63.7747 321.434 63.0357C321.434 63.0357 319.216 64.5144 317.737 65.5006C316.505 66.3628 315.273 65.5005 315.519 64.021C315.766 61.8027 316.012 59.2152 316.012 59.2152C315.273 59.7073 313.918 59.7073 313.301 58.4752C312.438 56.5038 311.452 54.2849 311.452 54.2849C311.452 54.2849 310.344 56.5038 309.479 58.4752C308.864 59.7073 307.508 59.7073 306.768 59.2152C306.768 59.2152 307.016 61.8027 307.385 64.021C307.508 65.5005 306.399 66.3628 305.167 65.5006C303.565 64.5144 301.469 63.0357 301.469 63.0357C301.469 63.7744 301.1 64.7609 299.868 64.7609C298.388 64.7609 296.294 64.7609 296.294 64.7609C296.294 64.7609 297.526 66.4861 298.265 67.5953C299.128 68.828 298.388 69.9371 297.772 70.307C297.772 70.307 299.744 71.1705 301.346 71.7856C302.455 72.2793 302.825 73.1419 301.593 74.0045C300.976 74.3734 300.113 74.9904 300.113 74.9904C300.73 75.1143 301.346 75.7294 300.73 77.2087C300.361 77.948 299.62 79.5503 299.62 79.5503C299.62 79.5503 300.976 79.3031 302.332 78.9342C303.565 78.688 304.18 79.3031 304.304 80.044C304.304 80.044 306.646 78.688 308.864 77.4562C310.096 76.8401 310.713 76.9631 310.713 78.3191C310.713 79.3031 310.713 81.3997 310.713 81.3997C310.713 83.2482 310.466 85.0973 309.727 86.2055C301.223 85.3429 294.074 78.4408 294.074 69.4444C294.074 60.0784 301.838 52.5606 311.452 52.5606C320.941 52.5606 328.706 60.0784 328.706 69.4444C328.706 78.071 322.051 85.2193 313.301 86.0816C313.301 86.4527 313.301 87.9304 313.301 88.4232C323.529 87.4373 331.417 79.3031 331.417 69.4444C331.417 58.8457 322.544 50.3423 311.451 50.3423C300.36 50.3423 291.362 58.8457 291.362 69.4444C291.362 78.688 298.388 86.4527 307.508 88.1776C309.11 88.4232 310.095 88.6706 310.958 89.6575C311.945 87.8084 312.068 84.1108 312.068 81.8925C312.068 81.8922 312.068 79.3031 312.068 78.3191Z" fill="#E3242B"/>
<path fill-rule="evenodd" clip-rule="evenodd" d="M79.8792 68.459H81.8516C87.397 68.459 88.5062 67.5958 88.5062 64.8844C88.5062 62.2969 86.0413 61.9274 82.4673 61.9274H79.8792V68.459ZM75.3193 79.5502V59.2163H85.3017C90.6015 59.2163 92.9434 61.4343 93.1899 64.2686C93.1899 65.624 92.9434 66.8568 92.0798 67.8433C91.0946 68.9524 90.7241 69.3216 88.9993 70.0616L96.5171 79.5505H90.971L84.3161 71.1713H79.8789V79.5505H75.3193V79.5502Z" fill="#E3242B"/>
<path fill-rule="evenodd" clip-rule="evenodd" d="M37.7305 71.4173H44.7552L41.1815 63.406L37.7305 71.4173ZM30.5825 79.675L39.579 59.2163H45.0015L53.7523 79.675H48.3295L45.8641 74.128H36.4984L34.0339 79.675H30.5825Z" fill="#E3242B"/>
<path fill-rule="evenodd" clip-rule="evenodd" d="M60.1604 79.5502H64.9668V59.2163H60.1604V79.5502Z" fill="#E3242B"/>
<path fill-rule="evenodd" clip-rule="evenodd" d="M130.779 78.9339C128.437 79.7962 125.602 80.2896 122.274 80.2896C118.208 80.2896 115.127 79.3028 112.909 77.3326C110.567 75.4838 109.458 72.7721 109.458 69.4444C109.458 65.9943 110.69 63.2829 112.909 61.4341C115.25 59.5853 118.454 58.5991 122.645 58.5991C125.356 58.5991 128.067 58.8457 130.655 59.4617V62.7898C127.697 61.9272 124.863 61.4341 122.891 61.4341C120.179 61.4341 118.208 62.1731 116.852 63.5285C115.373 64.8842 114.634 66.8566 114.634 69.3214C114.634 71.7859 115.373 73.7589 116.975 75.1146C118.454 76.5924 120.549 77.2087 123.26 77.2087C125.602 77.3326 128.437 76.7153 130.778 75.7294V78.9339H130.779Z" fill="#E3242B"/>
<path fill-rule="evenodd" clip-rule="evenodd" d="M143.596 71.4173H150.621L147.17 63.406L143.596 71.4173ZM136.571 79.675L145.444 59.2163H150.867L159.741 79.675H154.194L151.853 74.128H142.486L140.022 79.675H136.571Z" fill="#E3242B"/>
<path fill-rule="evenodd" clip-rule="evenodd" d="M202.506 71.4173H209.531L206.08 63.406L202.506 71.4173ZM195.48 79.675L204.353 59.2163H209.776L218.651 79.675H213.104L210.762 74.128H201.396L198.931 79.675H195.48Z" fill="#E3242B"/>
<path fill-rule="evenodd" clip-rule="evenodd" d="M258.457 71.4173H265.483L262.031 63.406L258.457 71.4173ZM251.434 79.675L260.306 59.2163H265.729L274.602 79.675H269.057L266.715 74.128H257.225L254.883 79.675H251.434Z" fill="#E3242B"/>
<path fill-rule="evenodd" clip-rule="evenodd" d="M184.759 59.2163H188.703V79.5502H183.649L170.462 64.3922V79.675H166.519V59.2163H172.064L184.759 73.7588V59.2163Z" fill="#E3242B"/>
<path fill-rule="evenodd" clip-rule="evenodd" d="M230.112 76.7155H233.686C236.15 76.7155 237.999 76.0995 239.232 74.8674C240.464 73.6352 241.079 71.7861 241.079 69.3216C241.079 67.3502 240.586 65.7479 239.601 64.3922C238.985 63.5287 238.122 62.9126 237.136 62.5434C236.274 62.1733 234.794 62.05 233.069 62.05H230.112V76.7155ZM225.305 79.5502V59.2163H235.288C238.739 59.2163 241.451 60.0786 243.298 61.8038C245.27 63.406 246.133 65.8709 246.133 69.0751C246.133 72.4028 245.146 74.9906 243.176 76.84C241.203 78.6879 238.369 79.675 234.794 79.5505H225.305V79.5502Z" fill="#E3242B"/>
</g>
<defs>
<clipPath id="clip0_263_22445">
<rect width="300.835" height="39.3152" fill="white" transform="translate(30.5825 50.3423)"/>
</clipPath>
</defs>
</svg>
