<svg width="362" height="140" viewBox="0 0 362 140" fill="none" xmlns="http://www.w3.org/2000/svg">
<rect width="362" height="140" fill="white"/>
<path d="M203.05 63.8101C202.27 63.1967 201.607 62.2034 201.06 60.8301" stroke="#422282" stroke-width="2"/>
<path d="M192.19 65.9199L193.32 69.5099" stroke="#B70947" stroke-width="2"/>
<path d="M203.05 63.8106C202.27 63.1973 201.607 62.2039 201.06 60.8306C201.333 60.6573 201.443 60.4373 201.39 60.1706C201.384 60.131 201.368 60.0936 201.344 60.062C201.319 60.0305 201.287 60.0059 201.25 59.9906L197.79 58.3906C197.724 58.3599 197.664 58.3159 197.616 58.2613C197.567 58.2066 197.531 58.1425 197.508 58.0731C197.486 58.0036 197.478 57.9302 197.485 57.8575C197.492 57.7848 197.514 57.7143 197.55 57.6506L198.94 55.2606C198.977 55.193 199.028 55.1335 199.089 55.0857C199.149 55.0379 199.219 55.0027 199.294 54.9822C199.368 54.9617 199.446 54.9563 199.523 54.9663C199.599 54.9764 199.673 55.0016 199.74 55.0406L204.6 57.8406C204.724 57.9136 204.866 57.952 205.01 57.952C205.154 57.952 205.296 57.9136 205.42 57.8406L211.18 54.5206C211.341 54.4264 211.478 54.2954 211.578 54.1383C211.679 53.9813 211.74 53.8028 211.758 53.6179C211.775 53.4329 211.749 53.2468 211.679 53.075C211.61 52.9033 211.501 52.7509 211.36 52.6306L203.62 45.9006C203.571 45.86 203.531 45.8093 203.504 45.7518C203.476 45.6944 203.461 45.6316 203.46 45.5679C203.459 45.5042 203.472 45.441 203.498 45.3828C203.524 45.3246 203.562 45.2726 203.61 45.2306C204.137 44.7573 204.64 44.4506 205.12 44.3106C205.389 44.2335 205.68 44.2658 205.93 44.4006L216.92 50.2706C217.064 50.348 217.227 50.3817 217.39 50.3675C217.554 50.3533 217.71 50.2918 217.84 50.1906C219.5 48.8906 222.47 47.5606 224.93 47.8806C225.11 47.903 225.284 47.9638 225.438 48.0589C225.593 48.154 225.726 48.2812 225.827 48.4319C225.929 48.5826 225.996 48.7533 226.026 48.9325C226.056 49.1117 226.047 49.2952 226 49.4706C225.33 51.9506 222.96 53.2506 220.42 54.6606C220.27 54.7461 220.144 54.8687 220.053 55.0172C219.962 55.1657 219.909 55.3354 219.9 55.5106C219.673 61.0506 219.563 64.9073 219.57 67.0806C219.577 68.4073 218.91 69.1939 217.57 69.4406C217.444 69.4617 217.315 69.4338 217.21 69.3628C217.106 69.2918 217.034 69.1834 217.01 69.0606L215.06 59.0606C215.026 58.8785 214.948 58.7072 214.834 58.5611C214.72 58.415 214.573 58.2984 214.404 58.2211C214.236 58.1437 214.051 58.1078 213.866 58.1164C213.681 58.1251 213.501 58.1779 213.34 58.2706L207.62 61.5706C207.486 61.6504 207.374 61.7634 207.297 61.8984C207.22 62.0334 207.18 62.1858 207.18 62.3406V67.7206C207.18 67.9275 207.098 68.1259 206.952 68.2722C206.805 68.4184 206.607 68.5006 206.4 68.5006H203.96C203.85 68.5006 203.741 68.4756 203.641 68.4275C203.542 68.3794 203.455 68.3094 203.387 68.2227C203.318 68.1361 203.271 68.0351 203.247 67.9274C203.223 67.8196 203.224 67.7079 203.25 67.6006C203.81 65.2539 203.743 63.9906 203.05 63.8106Z" fill="#0033A1"/>
<path d="M192.19 65.9206L193.32 69.5106C191.553 70.0906 190.707 71.064 190.78 72.4306C190.792 72.612 190.849 72.7873 190.945 72.9409C191.041 73.0945 191.173 73.2215 191.33 73.3106L198.83 77.6506C199.022 77.7602 199.239 77.8179 199.46 77.8179C199.681 77.8179 199.898 77.7602 200.09 77.6506L205.29 74.6506C205.325 74.6291 205.365 74.6149 205.405 74.6087C205.446 74.6026 205.488 74.6047 205.528 74.615C205.568 74.6252 205.606 74.6434 205.639 74.6684C205.672 74.6934 205.699 74.7248 205.72 74.7606L207.34 77.5706C207.373 77.6286 207.393 77.6932 207.399 77.7598C207.405 77.8264 207.396 77.8935 207.373 77.9563C207.35 78.0191 207.314 78.0762 207.267 78.1236C207.22 78.1709 207.163 78.2075 207.1 78.2306L203.46 79.6106C203.392 79.6381 203.333 79.6838 203.29 79.7425C203.246 79.8012 203.22 79.8705 203.213 79.9425C203.207 80.0144 203.221 80.0862 203.254 80.1495C203.287 80.2129 203.338 80.2652 203.4 80.3006L206.72 82.2206C206.834 82.2846 206.932 82.3744 207.006 82.4831C207.08 82.5917 207.127 82.7163 207.144 82.847C207.162 82.9778 207.149 83.1111 207.106 83.2366C207.064 83.3622 206.993 83.4765 206.9 83.5706C206.493 83.984 206.153 84.4573 205.88 84.9906C205.83 85.0904 205.76 85.1789 205.674 85.2506C205.589 85.3222 205.489 85.3756 205.381 85.4075C205.274 85.4393 205.16 85.4489 205.048 85.4357C204.936 85.4225 204.828 85.3867 204.73 85.3306L201.77 83.6106C201.726 83.5864 201.677 83.574 201.627 83.5746C201.577 83.5752 201.527 83.5887 201.484 83.6139C201.441 83.639 201.405 83.675 201.38 83.7183C201.354 83.7615 201.341 83.8105 201.34 83.8606V87.9006C201.34 87.9935 201.304 88.0825 201.24 88.1481C201.177 88.2138 201.09 88.2506 201 88.2506H197.97C197.882 88.2506 197.799 88.2159 197.737 88.154C197.675 88.0921 197.64 88.0081 197.64 87.9206V81.8406C197.64 81.6462 197.589 81.4559 197.492 81.289C197.395 81.1221 197.257 80.9846 197.09 80.8906L189.86 76.7106C189.585 76.5529 189.273 76.4703 188.956 76.471C188.639 76.4718 188.327 76.5558 188.053 76.7149C187.778 76.8739 187.55 77.1022 187.392 77.377C187.233 77.6518 187.15 77.9634 187.15 78.2806V86.7106C187.15 86.8631 187.19 87.0127 187.265 87.1444C187.341 87.276 187.449 87.3851 187.58 87.4606L192.85 90.5106C192.911 90.5444 192.964 90.5897 193.007 90.6439C193.05 90.6982 193.082 90.7602 193.1 90.8264C193.119 90.8925 193.124 90.9615 193.116 91.0292C193.107 91.0969 193.085 91.162 193.05 91.2206L191.7 93.5606C191.629 93.683 191.512 93.7725 191.376 93.8099C191.239 93.8473 191.094 93.8296 190.97 93.7606L187.46 91.7306C187.427 91.7113 187.389 91.7012 187.35 91.7011C187.312 91.7011 187.274 91.7112 187.24 91.7305C187.207 91.7497 187.179 91.7774 187.16 91.8108C187.14 91.8442 187.13 91.8821 187.13 91.9206V96.0206C187.13 96.1267 187.088 96.2285 187.013 96.3035C186.938 96.3785 186.836 96.4206 186.73 96.4206H183.88C183.766 96.4206 183.657 96.3753 183.576 96.2947C183.495 96.214 183.45 96.1047 183.45 95.9906V92.1006C183.449 92.0451 183.433 91.9908 183.404 91.9431C183.376 91.8954 183.335 91.8561 183.287 91.8288C183.238 91.8016 183.184 91.7874 183.128 91.7877C183.073 91.788 183.018 91.8028 182.97 91.8306L179.69 93.7206C179.579 93.7849 179.446 93.802 179.321 93.7684C179.196 93.7347 179.088 93.6529 179.02 93.5406L177.58 91.0406C177.556 91.0017 177.54 90.9583 177.534 90.9128C177.527 90.8673 177.53 90.8207 177.542 90.7759C177.554 90.7311 177.575 90.6889 177.604 90.6519C177.633 90.6149 177.669 90.5839 177.71 90.5606L183.08 87.4606C183.196 87.3939 183.292 87.2986 183.359 87.1844C183.426 87.0703 183.46 86.9413 183.46 86.8106V78.3206C183.46 78.0046 183.377 77.694 183.219 77.4202C183.061 77.1464 182.834 76.919 182.56 76.7609C182.287 76.6028 181.976 76.5195 181.66 76.5195C181.344 76.5194 181.034 76.6026 180.76 76.7606L173.51 80.9406C173.364 81.0265 173.242 81.1502 173.158 81.2993C173.074 81.4485 173.03 81.6179 173.03 81.7906V87.8006C173.03 87.92 172.983 88.0344 172.898 88.1188C172.814 88.2032 172.699 88.2506 172.58 88.2506H169.73C169.616 88.2506 169.507 88.2053 169.426 88.1247C169.345 88.044 169.3 87.9347 169.3 87.8206V83.8906C169.3 83.8379 169.286 83.7862 169.26 83.7406C169.234 83.6949 169.196 83.657 169.15 83.6307C169.104 83.6043 169.053 83.5904 169 83.5904C168.947 83.5904 168.896 83.6043 168.85 83.6306L165.57 85.5206C165.453 85.5876 165.314 85.6062 165.185 85.5725C165.056 85.5387 164.946 85.4554 164.88 85.3406L163.54 83.0106C163.506 82.9536 163.484 82.8905 163.474 82.8248C163.465 82.759 163.469 82.6921 163.485 82.6279C163.502 82.5637 163.531 82.5034 163.572 82.4507C163.612 82.3979 163.662 82.3537 163.72 82.3206L167.14 80.3506C167.175 80.3292 167.204 80.2991 167.224 80.2632C167.245 80.2273 167.255 80.1868 167.255 80.1456C167.255 80.1044 167.245 80.064 167.224 80.028C167.204 79.9921 167.175 79.962 167.14 79.9406L163.55 77.8706C163.508 77.8455 163.472 77.8125 163.443 77.7738C163.414 77.735 163.393 77.6912 163.381 77.6447C163.369 77.5983 163.366 77.5502 163.373 77.5031C163.379 77.4561 163.395 77.4111 163.42 77.3706L164.9 74.8006C164.951 74.7142 165.033 74.6509 165.129 74.6247C165.224 74.5984 165.326 74.6114 165.41 74.6606L170.63 77.6806C170.798 77.7753 170.987 77.825 171.18 77.825C171.373 77.825 171.562 77.7753 171.73 77.6806L179.14 73.4006C179.393 73.2539 179.604 73.0431 179.75 72.7895C179.896 72.5359 179.973 72.2483 179.973 71.9556C179.973 71.6629 179.896 71.3753 179.75 71.1217C179.604 70.8681 179.393 70.6574 179.14 70.5106L171.76 66.2506C171.586 66.1534 171.39 66.1023 171.192 66.1023C170.994 66.1023 170.801 66.1534 170.63 66.2506L165.41 69.2706C165.325 69.3176 165.225 69.3293 165.131 69.3031C165.038 69.2769 164.958 69.2149 164.91 69.1306L163.28 66.3006C163.25 66.2505 163.231 66.1944 163.225 66.1362C163.219 66.078 163.225 66.0192 163.245 65.9639C163.264 65.9086 163.295 65.8582 163.335 65.8161C163.376 65.7741 163.425 65.7415 163.48 65.7206L167.18 64.3206C167.246 64.294 167.303 64.2495 167.345 64.1922C167.386 64.1349 167.411 64.067 167.417 63.9962C167.422 63.9254 167.407 63.8546 167.374 63.7917C167.341 63.7289 167.291 63.6766 167.23 63.6406L163.79 61.6606C163.66 61.5836 163.566 61.4582 163.529 61.312C163.491 61.1658 163.513 61.0106 163.59 60.8806L164.81 58.7506C164.898 58.5997 165.042 58.4898 165.21 58.4448C165.379 58.3998 165.559 58.4235 165.71 58.5106L168.86 60.3306C168.904 60.3573 168.955 60.3717 169.006 60.3724C169.058 60.3731 169.108 60.36 169.153 60.3346C169.198 60.3091 169.235 60.2722 169.261 60.2275C169.287 60.1829 169.3 60.1322 169.3 60.0806V56.0806C169.3 55.9825 169.339 55.8884 169.408 55.819C169.478 55.7496 169.572 55.7106 169.67 55.7106H172.65C172.748 55.7106 172.842 55.7496 172.912 55.819C172.981 55.8884 173.02 55.9825 173.02 56.0806V62.1306C173.02 62.3093 173.067 62.4849 173.156 62.6395C173.246 62.7941 173.375 62.9222 173.53 63.0106L180.74 67.1706C181.015 67.3308 181.328 67.4155 181.647 67.416C181.966 67.4165 182.279 67.3329 182.555 67.1736C182.831 67.0143 183.06 66.785 183.219 66.5088C183.378 66.2326 183.461 65.9193 183.46 65.6006V57.1306C183.46 56.9972 183.426 56.8663 183.362 56.7506C183.297 56.6348 183.203 56.5384 183.09 56.4706L177.67 53.3506C177.595 53.3064 177.531 53.2465 177.481 53.175C177.432 53.1036 177.399 53.0225 177.385 52.9374C177.37 52.8523 177.375 52.7655 177.398 52.6831C177.422 52.6006 177.463 52.5247 177.52 52.4606L179.4 50.3006C179.454 50.2362 179.521 50.1835 179.597 50.1456C179.673 50.1077 179.756 50.0853 179.842 50.0797C179.927 50.0741 180.013 50.0855 180.095 50.1131C180.178 50.1407 180.254 50.1841 180.32 50.2406L182.7 52.3106C182.767 52.3681 182.849 52.4052 182.936 52.4175C183.023 52.4297 183.112 52.4166 183.192 52.3797C183.272 52.3429 183.34 52.2838 183.388 52.2095C183.435 52.1351 183.46 52.0488 183.46 51.9606V47.9806C183.46 47.936 183.469 47.8918 183.487 47.8505C183.504 47.8093 183.53 47.7718 183.562 47.7402C183.595 47.7086 183.634 47.6836 183.676 47.6665C183.718 47.6494 183.764 47.6406 183.81 47.6406H186.77C186.865 47.6406 186.957 47.6786 187.025 47.7461C187.092 47.8136 187.13 47.9051 187.13 48.0006V51.9806C187.13 52.0229 187.14 52.0646 187.161 52.1014C187.182 52.1382 187.212 52.1688 187.249 52.1901C187.286 52.2114 187.327 52.2227 187.369 52.2228C187.412 52.2229 187.453 52.2118 187.49 52.1906L190.89 50.2206C190.961 50.1796 191.039 50.1529 191.12 50.1423C191.201 50.1316 191.284 50.1371 191.363 50.1585C191.442 50.1799 191.516 50.2167 191.581 50.2669C191.645 50.317 191.7 50.3795 191.74 50.4506L193.08 52.7706C193.111 52.8217 193.131 52.8784 193.139 52.9374C193.148 52.9963 193.144 53.0564 193.13 53.1141C193.115 53.1717 193.088 53.2259 193.052 53.2733C193.016 53.3208 192.971 53.3607 192.92 53.3906L187.52 56.5006C187.404 56.5675 187.308 56.6637 187.241 56.7796C187.175 56.8955 187.14 57.0269 187.14 57.1606V65.6506C187.14 65.9626 187.221 66.2692 187.376 66.5402C187.53 66.8113 187.753 67.0376 188.021 67.1969C188.289 67.3563 188.594 67.4431 188.906 67.449C189.218 67.4549 189.526 67.3797 189.8 67.2306L192.19 65.9206Z" fill="#EA002A"/>
<path d="M201.06 60.8301C201.607 62.2034 202.27 63.1967 203.05 63.8101L193.32 69.5101L192.19 65.9201L201.06 60.8301Z" fill="#841163"/>
<path d="M44.03 71.9297C44.7566 71.9297 45.4533 71.963 46.12 72.0297C46.3205 72.0489 46.5114 72.1238 46.6706 72.2459C46.8299 72.368 46.951 72.5322 47.02 72.7197L55.69 95.5897C55.7125 95.6515 55.7202 95.7178 55.7125 95.783C55.7048 95.8482 55.6818 95.9104 55.6455 95.9644C55.6092 96.0183 55.5607 96.0624 55.504 96.0929C55.4473 96.1234 55.3842 96.1395 55.32 96.1397H51.12C50.9431 96.1391 50.7707 96.0852 50.626 95.9852C50.4813 95.8851 50.371 95.7437 50.3099 95.5797L48.7099 91.3597C48.6347 91.1583 48.502 90.9831 48.328 90.8553C48.1541 90.7275 47.9463 90.6526 47.7299 90.6397C47.3233 90.613 46.09 90.5997 44.03 90.5997C41.9633 90.5997 40.7266 90.6097 40.3199 90.6297C40.1024 90.6434 39.8938 90.7198 39.7197 90.8494C39.5456 90.9791 39.4136 91.1565 39.34 91.3597L37.7399 95.5697C37.6789 95.7337 37.5686 95.8751 37.4239 95.9752C37.2792 96.0753 37.1069 96.1292 36.9299 96.1297H32.73C32.6657 96.1295 32.6025 96.1134 32.5459 96.0829C32.4892 96.0524 32.4407 96.0083 32.4044 95.9544C32.3681 95.9004 32.3451 95.8382 32.3374 95.773C32.3296 95.7078 32.3374 95.6415 32.36 95.5797L41.05 72.7197C41.1174 72.5303 41.2378 72.364 41.3971 72.24C41.5565 72.1161 41.7482 72.0397 41.95 72.0197C42.6166 71.9597 43.31 71.9297 44.03 71.9297ZM43.9799 86.8097C45.3 86.8097 46.1366 86.7964 46.49 86.7697C46.564 86.7642 46.6359 86.742 46.7001 86.7047C46.7643 86.6674 46.8192 86.6159 46.8606 86.5543C46.902 86.4926 46.9289 86.4224 46.9392 86.3488C46.9495 86.2753 46.9429 86.2003 46.92 86.1297L44.24 78.0797C44.2212 78.0205 44.198 77.9682 44.1731 77.9292C44.1483 77.8901 44.1229 77.866 44.1 77.8597C44.06 77.8397 44.0166 77.8297 43.97 77.8297C43.9566 77.8297 43.93 77.8397 43.89 77.8597C43.8671 77.8664 43.8417 77.8907 43.8169 77.9298C43.792 77.9688 43.7688 78.0208 43.75 78.0797L41.04 86.1197C41.0171 86.1896 41.0103 86.2637 41.02 86.3366C41.0297 86.4094 41.0557 86.4792 41.0961 86.5407C41.1364 86.6021 41.1901 86.6537 41.253 86.6917C41.316 86.7296 41.3868 86.7528 41.46 86.7597C41.82 86.7864 42.6599 86.803 43.9799 86.8097Z" fill="#EA002A"/>
<path d="M88.72 94.3005C88.4333 94.5405 88.13 94.8138 87.81 95.1205C85.88 97.0105 82.69 96.9705 80.56 95.8405C72.78 91.7305 74.83 76.3305 85.53 78.4005C86.75 78.6305 87.57 79.5505 88.5 80.2105C88.5364 80.2344 88.5788 80.2484 88.6223 80.2509C88.6659 80.2535 88.7091 80.2445 88.7472 80.2249C88.7853 80.2053 88.8169 80.176 88.8385 80.1399C88.8602 80.1039 88.871 80.0626 88.87 80.0205V72.2205C88.87 72.189 88.8762 72.1577 88.8882 72.1286C88.9003 72.0995 88.918 72.0731 88.9403 72.0508C88.9625 72.0285 88.989 72.0108 89.0181 71.9987C89.0472 71.9867 89.0784 71.9805 89.11 71.9805H93.34C93.4142 71.9805 93.4854 72.01 93.538 72.0625C93.5905 72.115 93.62 72.1862 93.62 72.2605V95.6605C93.62 95.7235 93.6076 95.7859 93.5834 95.8442C93.5593 95.9024 93.524 95.9553 93.4794 95.9999C93.4348 96.0445 93.3819 96.0798 93.3237 96.1039C93.2654 96.1281 93.203 96.1405 93.14 96.1405H89.66C89.5433 96.1405 89.4314 96.0941 89.3488 96.0116C89.2663 95.9291 89.22 95.8172 89.22 95.7005V94.5305C89.2212 94.472 89.2054 94.4145 89.1744 94.3649C89.1433 94.3153 89.0985 94.2759 89.0454 94.2515C88.9923 94.227 88.9332 94.2187 88.8754 94.2274C88.8175 94.2361 88.7635 94.2615 88.72 94.3005ZM84.8514 81.7506C83.7295 81.7564 82.6567 82.3384 81.8688 83.3683C81.0809 84.3983 80.6425 85.7919 80.6501 87.2426C80.6577 88.6933 81.1106 90.0822 81.9092 91.1039C82.7078 92.1255 83.7867 92.6962 84.9086 92.6904C86.0304 92.6845 87.1033 92.1026 87.8912 91.0726C88.6791 90.0427 89.1174 88.6491 89.1099 87.1984C89.1023 85.7477 88.6493 84.3587 87.8507 83.3371C87.0521 82.3154 85.9732 81.7447 84.8514 81.7506Z" fill="#EA002A"/>
<path d="M223.26 90.6002C221.193 90.6002 219.96 90.6135 219.56 90.6402C219.342 90.6512 219.132 90.7252 218.956 90.8531C218.78 90.9811 218.646 91.1573 218.57 91.3602L216.97 95.5802C216.908 95.7457 216.796 95.8883 216.65 95.9885C216.503 96.0887 216.329 96.1416 216.15 96.1402H211.95C211.886 96.1399 211.823 96.1239 211.766 96.0934C211.709 96.0629 211.661 96.0188 211.624 95.9648C211.588 95.9109 211.565 95.8487 211.557 95.7835C211.55 95.7182 211.557 95.6519 211.58 95.5902L220.28 72.7002C220.349 72.5127 220.47 72.3484 220.629 72.2263C220.788 72.1043 220.979 72.0293 221.18 72.0102C221.847 71.9435 222.543 71.9102 223.27 71.9102C223.99 71.9102 224.683 71.9435 225.35 72.0102C225.55 72.0293 225.741 72.1043 225.901 72.2263C226.06 72.3484 226.181 72.5127 226.25 72.7002L234.94 95.5902C234.964 95.6525 234.974 95.7199 234.967 95.7865C234.96 95.853 234.938 95.9168 234.901 95.972C234.865 96.0273 234.815 96.0724 234.758 96.1035C234.7 96.1346 234.635 96.1506 234.57 96.1502H230.36C230.183 96.1496 230.011 96.0957 229.866 95.9957C229.721 95.8956 229.611 95.7541 229.55 95.5902L227.95 91.3602C227.874 91.1573 227.74 90.9811 227.564 90.8532C227.388 90.7252 227.178 90.6512 226.96 90.6402C226.56 90.6135 225.327 90.6002 223.26 90.6002ZM223.2 86.8102C224.52 86.8035 225.357 86.7835 225.71 86.7502C225.782 86.7429 225.852 86.7198 225.914 86.6825C225.976 86.6452 226.029 86.5946 226.069 86.5344C226.109 86.4742 226.135 86.4058 226.146 86.3341C226.156 86.2625 226.151 86.1894 226.13 86.1202L223.42 78.1002C223.401 78.0415 223.378 77.9895 223.353 77.9505C223.328 77.9115 223.303 77.8871 223.28 77.8802C223.24 77.8602 223.213 77.8502 223.2 77.8502C223.153 77.8502 223.11 77.8602 223.07 77.8802C223.047 77.8865 223.022 77.9106 222.997 77.9496C222.972 77.9887 222.949 78.041 222.93 78.1002L220.27 86.1302C220.247 86.2 220.24 86.2742 220.25 86.347C220.26 86.4199 220.286 86.4897 220.326 86.5511C220.366 86.6126 220.42 86.6642 220.483 86.7021C220.546 86.74 220.617 86.7633 220.69 86.7702C221.043 86.7968 221.88 86.8102 223.2 86.8102Z" fill="#0033A1"/>
<path d="M241.05 71.9707H237.15C236.912 71.9707 236.72 72.1632 236.72 72.4007V75.7007C236.72 75.9382 236.912 76.1307 237.15 76.1307H241.05C241.287 76.1307 241.48 75.9382 241.48 75.7007V72.4007C241.48 72.1632 241.287 71.9707 241.05 71.9707Z" fill="#0033A1"/>
<path d="M262.82 71.9805H258.82C258.61 71.9805 258.44 72.1506 258.44 72.3605V95.7605C258.44 95.9703 258.61 96.1405 258.82 96.1405H262.82C263.03 96.1405 263.2 95.9703 263.2 95.7605V72.3605C263.2 72.1506 263.03 71.9805 262.82 71.9805Z" fill="#0033A1"/>
<path d="M271.385 71.9664L267.625 71.9926C267.349 71.9945 267.127 72.2199 267.129 72.4961L267.151 75.636C267.153 75.9121 267.378 76.1344 267.654 76.1325L271.414 76.1063C271.69 76.1043 271.913 75.8789 271.911 75.6028L271.889 72.4629C271.887 72.1867 271.662 71.9644 271.385 71.9664Z" fill="#0033A1"/>
<path d="M61.8401 80.3504C61.8395 80.4003 61.854 80.4488 61.882 80.4898C61.91 80.5308 61.9502 80.5624 61.9973 80.5807C62.0445 80.5989 62.0966 80.6029 62.1469 80.5921C62.1973 80.5814 62.2436 80.5564 62.2801 80.5204C63.9534 78.8071 65.8534 78.0204 67.9801 78.1604C71.9201 78.4104 73.6701 80.6704 73.6301 84.7504C73.6034 87.8171 73.6068 91.4004 73.6401 95.5004C73.6414 95.5853 73.6261 95.6696 73.595 95.7484C73.564 95.8272 73.5178 95.899 73.4592 95.9595C73.4005 96.02 73.3306 96.068 73.2535 96.1008C73.1764 96.1336 73.0937 96.1504 73.0101 96.1504H69.4701C69.311 96.1504 69.1584 96.0872 69.0458 95.9747C68.9333 95.8621 68.8701 95.7095 68.8701 95.5504V84.8804C68.8693 84.477 68.7826 84.0785 68.6158 83.7114C68.4489 83.3443 68.2059 83.0173 67.9028 82.7521C67.5998 82.487 67.2438 82.2898 66.8587 82.174C66.4737 82.0581 66.0684 82.0262 65.6701 82.0804L65.1701 82.1504C64.3386 82.2641 63.5765 82.6752 63.0249 83.3077C62.4733 83.9402 62.1696 84.7512 62.1701 85.5904V95.6204C62.1701 95.7557 62.1164 95.8854 62.0207 95.981C61.9251 96.0767 61.7954 96.1304 61.6601 96.1304H57.8801C57.7422 96.1304 57.6099 96.0756 57.5124 95.9781C57.4149 95.8806 57.3601 95.7483 57.3601 95.6104V79.0804C57.3601 78.9504 57.4117 78.8258 57.5036 78.7339C57.5955 78.642 57.7202 78.5904 57.8501 78.5904H61.4401C61.5462 78.5904 61.6479 78.6325 61.7229 78.7076C61.798 78.7826 61.8401 78.8843 61.8401 78.9904V80.3504Z" fill="#EA002A"/>
<path d="M105.189 78.0212C106.384 78.0441 107.562 78.3079 108.657 78.7973C109.752 79.2868 110.742 79.9925 111.57 80.874C112.398 81.7555 113.049 82.7956 113.484 83.9349C113.92 85.0742 114.132 86.2905 114.108 87.5142C114.061 89.9855 113.057 92.3373 111.317 94.052C109.577 95.7668 107.244 96.7041 104.831 96.6578C103.636 96.6348 102.458 96.3711 101.363 95.8816C100.268 95.3921 99.2782 94.6865 98.45 93.805C97.6217 92.9235 96.9713 91.8834 96.5358 90.744C96.1002 89.6047 95.8882 88.3885 95.9117 87.1648C95.9591 84.6934 96.9632 82.3417 98.703 80.6269C100.443 78.9122 102.776 77.9748 105.189 78.0212ZM104.98 81.5595C103.837 81.5595 102.741 82.1663 101.932 83.2465C101.124 84.3267 100.67 85.7918 100.67 87.3195C100.67 88.0759 100.781 88.8249 100.998 89.5237C101.215 90.2226 101.532 90.8575 101.932 91.3924C102.333 91.9273 102.808 92.3515 103.331 92.641C103.854 92.9305 104.414 93.0795 104.98 93.0795C105.546 93.0795 106.106 92.9305 106.629 92.641C107.152 92.3515 107.627 91.9273 108.028 91.3924C108.428 90.8575 108.745 90.2226 108.962 89.5237C109.178 88.8249 109.29 88.0759 109.29 87.3195C109.29 85.7918 108.836 84.3267 108.028 83.2465C107.219 82.1663 106.123 81.5595 104.98 81.5595Z" fill="#EA002A"/>
<path d="M120.6 80.7406C120.557 80.83 120.549 80.9326 120.579 81.0273C120.609 81.1221 120.673 81.202 120.76 81.2506L120.83 81.2906C120.899 81.3318 120.982 81.3444 121.06 81.3258C121.139 81.3071 121.207 81.2586 121.25 81.1906C122.683 79.0239 124.637 78.0773 127.11 78.3506C127.25 78.3655 127.38 78.4321 127.475 78.5374C127.569 78.6427 127.621 78.7793 127.62 78.9206V82.1006C127.62 82.1685 127.606 82.2356 127.579 82.2979C127.552 82.3601 127.512 82.416 127.463 82.462C127.413 82.5081 127.354 82.5433 127.29 82.5655C127.226 82.5876 127.158 82.5962 127.09 82.5906C123.217 82.2773 121.253 83.9206 121.2 87.5206C121.147 91.0673 121.133 93.754 121.16 95.5806C121.161 95.6524 121.148 95.7236 121.121 95.7903C121.094 95.857 121.054 95.9177 121.002 95.9689C120.951 96.0201 120.89 96.0608 120.823 96.0885C120.755 96.1163 120.683 96.1306 120.61 96.1306H116.91C116.769 96.1306 116.635 96.0748 116.535 95.9754C116.436 95.876 116.38 95.7412 116.38 95.6006V79.1106C116.38 78.978 116.433 78.8508 116.526 78.7571C116.62 78.6633 116.747 78.6106 116.88 78.6106H120.46C120.614 78.6106 120.761 78.6717 120.87 78.7805C120.979 78.8893 121.04 79.0368 121.04 79.1906C121.047 79.6039 120.9 80.1206 120.6 80.7406Z" fill="#EA002A"/>
<path d="M133.6 80.7406C133.557 80.83 133.549 80.9326 133.579 81.0273C133.609 81.1221 133.673 81.202 133.76 81.2506L133.83 81.2906C133.899 81.3318 133.982 81.3444 134.06 81.3258C134.139 81.3071 134.207 81.2586 134.25 81.1906C135.683 79.0239 137.637 78.0773 140.11 78.3506C140.25 78.3631 140.38 78.4287 140.474 78.5343C140.569 78.6398 140.621 78.7777 140.62 78.9206V82.0906C140.62 82.1585 140.606 82.2256 140.579 82.2879C140.552 82.3501 140.512 82.406 140.463 82.452C140.413 82.4981 140.354 82.5333 140.29 82.5555C140.226 82.5776 140.158 82.5862 140.09 82.5806C136.217 82.274 134.257 83.9206 134.21 87.5206C134.163 91.0673 134.153 93.754 134.18 95.5806C134.181 95.6524 134.168 95.7236 134.141 95.7903C134.114 95.857 134.074 95.9177 134.022 95.9689C133.971 96.0201 133.91 96.0607 133.843 96.0885C133.775 96.1163 133.703 96.1306 133.63 96.1306H129.93C129.789 96.1306 129.655 96.0748 129.555 95.9754C129.456 95.876 129.4 95.7412 129.4 95.6006L129.38 79.1206C129.38 78.988 129.433 78.8608 129.526 78.7671C129.62 78.6733 129.747 78.6206 129.88 78.6206L133.46 78.6106C133.536 78.6106 133.611 78.6256 133.682 78.6548C133.752 78.6839 133.816 78.7266 133.87 78.7805C133.924 78.8344 133.967 78.8983 133.996 78.9687C134.025 79.039 134.04 79.1144 134.04 79.1906C134.047 79.6039 133.9 80.1206 133.6 80.7406Z" fill="#EA002A"/>
<path d="M141.01 83.7696C141.99 77.0796 150.86 77.0696 154.96 79.6996C155.487 80.0369 155.921 80.5022 156.221 81.0526C156.522 81.6031 156.68 82.221 156.68 82.8496V95.9796C156.68 96.0193 156.665 96.0575 156.639 96.0856C156.613 96.1138 156.577 96.1296 156.54 96.1296H152.96C152.872 96.1296 152.784 96.1121 152.703 96.0782C152.621 96.0442 152.548 95.9946 152.486 95.9321C152.424 95.8696 152.376 95.7956 152.344 95.7144C152.312 95.6332 152.297 95.5466 152.3 95.4596C152.3 95.1196 152.273 94.9096 152.22 94.8296C152.175 94.7699 152.118 94.7202 152.053 94.6835C151.989 94.6468 151.917 94.624 151.842 94.6165C151.768 94.609 151.693 94.6169 151.622 94.6398C151.551 94.6627 151.486 94.7001 151.43 94.7496C149.59 96.4029 147.267 96.9496 144.46 96.3896C141.17 95.7396 139.32 92.3196 140.63 89.2096C141.99 85.9896 146.45 85.9196 150.35 85.3696C150.63 85.3296 150.993 85.1662 151.44 84.8796C151.764 84.6728 151.996 84.3519 152.088 83.9856C152.179 83.6193 152.123 83.2366 151.93 82.9196C150.43 80.4196 146.17 80.8096 145.53 83.6896C145.51 83.7774 145.461 83.8558 145.392 83.912C145.323 83.9683 145.238 83.9991 145.15 83.9996H141.21C141.181 83.9999 141.152 83.9939 141.126 83.982C141.099 83.9702 141.076 83.9527 141.057 83.9308C141.038 83.9089 141.024 83.8832 141.016 83.8553C141.007 83.8275 141.006 83.7982 141.01 83.7696ZM151.71 87.7496C150.62 88.2196 146.19 88.2996 145.26 90.0796C145.119 90.3501 145.037 90.6476 145.02 90.9523C145.003 91.2569 145.051 91.5618 145.16 91.8465C145.27 92.1312 145.439 92.3893 145.656 92.6036C145.873 92.818 146.134 92.9836 146.42 93.0896C148.233 93.7629 149.787 93.4162 151.08 92.0496C152.01 91.0696 152.01 89.3596 152.12 88.0296C152.123 87.9797 152.113 87.93 152.09 87.8852C152.068 87.8404 152.035 87.802 151.994 87.7739C151.953 87.7457 151.905 87.7287 151.855 87.7244C151.805 87.7202 151.755 87.7288 151.71 87.7496Z" fill="#EA002A"/>
<path d="M249.53 80.7407C249.487 80.8301 249.479 80.9327 249.509 81.0274C249.539 81.1222 249.603 81.2021 249.69 81.2507L249.76 81.2907C249.829 81.3319 249.912 81.3445 249.99 81.3259C250.069 81.3072 250.137 81.2587 250.18 81.1907C251.613 79.0174 253.567 78.0674 256.04 78.3407C256.181 78.3556 256.311 78.4222 256.405 78.5275C256.499 78.6328 256.551 78.7694 256.55 78.9107L256.56 82.1007C256.56 82.1686 256.546 82.2357 256.519 82.298C256.492 82.3602 256.453 82.4161 256.403 82.4622C256.353 82.5082 256.294 82.5434 256.23 82.5656C256.166 82.5877 256.098 82.5963 256.03 82.5907C252.15 82.2774 250.183 83.9241 250.13 87.5307C250.077 91.0774 250.063 93.7674 250.09 95.6007C250.091 95.6725 250.078 95.7437 250.051 95.8104C250.024 95.8771 249.984 95.9378 249.933 95.989C249.881 96.0402 249.82 96.0809 249.753 96.1086C249.685 96.1364 249.613 96.1507 249.54 96.1507H245.84C245.77 96.1521 245.7 96.1393 245.634 96.1133C245.569 96.0872 245.509 96.0484 245.459 95.9991C245.409 95.9497 245.369 95.8908 245.341 95.8259C245.314 95.7609 245.3 95.6912 245.3 95.6207V79.1107C245.3 78.9781 245.353 78.8509 245.446 78.7572C245.54 78.6634 245.667 78.6107 245.8 78.6107L249.38 78.6007C249.458 78.5994 249.535 78.6137 249.607 78.6429C249.68 78.672 249.745 78.7155 249.8 78.7705C249.855 78.8256 249.899 78.8912 249.928 78.9633C249.957 79.0355 249.971 79.1129 249.97 79.1907C249.977 79.6041 249.83 80.1207 249.53 80.7407Z" fill="#0033A1"/>
<path d="M280.13 80.3592C280.129 80.4091 280.144 80.4576 280.172 80.4986C280.2 80.5396 280.24 80.5712 280.287 80.5895C280.334 80.6077 280.386 80.6117 280.437 80.6009C280.487 80.5902 280.533 80.5652 280.57 80.5292C282.237 78.8092 284.133 78.0158 286.26 78.1492C290.2 78.3892 291.96 80.6392 291.93 84.7192C291.91 87.7858 291.923 91.3692 291.97 95.4692C291.971 95.5541 291.956 95.6384 291.925 95.7172C291.894 95.796 291.848 95.8678 291.789 95.9283C291.73 95.9888 291.66 96.0368 291.583 96.0696C291.506 96.1023 291.423 96.1192 291.34 96.1192L287.81 96.1292C287.73 96.1305 287.651 96.1159 287.577 96.0864C287.503 96.0568 287.436 96.0128 287.379 95.957C287.322 95.9011 287.277 95.8346 287.247 95.7611C287.216 95.6876 287.2 95.6088 287.2 95.5292L287.17 84.8592C287.168 84.4579 287.08 84.0618 286.913 83.6971C286.746 83.3325 286.502 83.0077 286.199 82.7446C285.896 82.4814 285.541 82.286 285.156 82.1712C284.772 82.0565 284.367 82.0251 283.97 82.0792L283.47 82.1492C282.64 82.265 281.88 82.6771 281.331 83.3094C280.781 83.9417 280.479 84.7514 280.48 85.5892L280.51 95.6192C280.51 95.7544 280.456 95.8841 280.361 95.9798C280.265 96.0754 280.135 96.1292 280 96.1292L276.22 96.1392C276.084 96.1392 275.953 96.0858 275.856 95.9904C275.758 95.895 275.703 95.7653 275.7 95.6292L275.65 79.0992C275.65 78.9692 275.702 78.8446 275.793 78.7527C275.885 78.6608 276.01 78.6092 276.14 78.6092L279.73 78.5992C279.782 78.5992 279.834 78.6095 279.883 78.6296C279.932 78.6497 279.976 78.6792 280.013 78.7163C280.05 78.7535 280.079 78.7976 280.099 78.8461C280.12 78.8946 280.13 78.9466 280.13 78.9992V80.3592Z" fill="#0033A1"/>
<path d="M311.5 91.3791C305.49 101.709 291.82 95.5391 295.01 84.2291C296.35 79.4691 301.64 76.9791 306.26 78.6791C309.853 80.0058 311.713 83.1224 311.84 88.0291C311.841 88.0943 311.83 88.1591 311.806 88.2197C311.783 88.2804 311.748 88.3356 311.703 88.3821C311.658 88.4287 311.605 88.4657 311.546 88.4909C311.487 88.5162 311.424 88.5291 311.36 88.5291H299.98C299.855 88.5294 299.731 88.56 299.62 88.6182C299.509 88.6765 299.413 88.7608 299.341 88.8638C299.27 88.9669 299.224 89.0858 299.208 89.2103C299.192 89.3348 299.207 89.4613 299.25 89.5791C300.503 92.9391 302.553 93.9491 305.4 92.6091C305.499 92.5563 305.591 92.4852 305.67 92.3991L306.98 90.8891C307.065 90.7886 307.17 90.7079 307.29 90.6526C307.409 90.5973 307.539 90.5688 307.67 90.5691H311.03C311.125 90.5687 311.218 90.5933 311.301 90.6406C311.383 90.6878 311.452 90.7559 311.5 90.8381C311.547 90.9202 311.572 91.0135 311.572 91.1085C311.573 91.2035 311.548 91.2968 311.5 91.3791ZM299.57 85.4591H306.75C306.795 85.4591 306.838 85.4412 306.87 85.4093C306.902 85.3774 306.92 85.3342 306.92 85.2891V85.1791C306.92 84.2349 306.531 83.3294 305.839 82.6618C305.147 81.9942 304.209 81.6191 303.23 81.6191H303.09C302.111 81.6191 301.173 81.9942 300.481 82.6618C299.789 83.3294 299.4 84.2349 299.4 85.1791V85.2891C299.4 85.3114 299.404 85.3335 299.413 85.3542C299.422 85.3748 299.434 85.3935 299.45 85.4093C299.466 85.4251 299.484 85.4376 299.505 85.4462C299.526 85.4547 299.548 85.4591 299.57 85.4591Z" fill="#0033A1"/>
<path d="M328.8 83.7204H325.66C325.478 83.7201 325.299 83.671 325.141 83.5779C324.983 83.4848 324.851 83.3511 324.76 83.1904C323.607 81.1637 321.853 80.7437 319.5 81.9304C319.26 82.0533 319.064 82.246 318.936 82.4832C318.808 82.7203 318.756 82.9906 318.785 83.2583C318.814 83.526 318.924 83.7785 319.1 83.9825C319.276 84.1864 319.509 84.3321 319.77 84.4004C323.883 85.4537 326.117 86.0537 326.47 86.2004C332.19 88.5104 330.41 94.5204 325.36 96.0804C320.76 97.5104 314.57 96.3804 313.6 90.7604C313.593 90.7102 313.596 90.6592 313.61 90.6106C313.624 90.5621 313.648 90.5173 313.68 90.4792C313.712 90.4412 313.752 90.4109 313.797 90.3903C313.842 90.3698 313.891 90.3596 313.94 90.3604H317.72C317.831 90.3602 317.939 90.3947 318.03 90.4591C318.121 90.5234 318.191 90.6147 318.23 90.7204C319.13 93.267 321.073 93.9604 324.06 92.8004C324.62 92.587 324.977 92.1104 325.13 91.3704C325.205 91.0149 325.132 90.6387 324.926 90.3114C324.72 89.984 324.395 89.7279 324.01 89.5904C320.45 88.3404 312.58 88.2504 314.23 82.0804C315.2 78.4304 319.96 77.9504 323.27 78.2404C326.483 78.5137 328.503 80.107 329.33 83.0204C329.353 83.1022 329.357 83.1884 329.341 83.272C329.326 83.3557 329.291 83.4345 329.239 83.5024C329.188 83.5702 329.121 83.6252 329.045 83.663C328.969 83.7009 328.885 83.7205 328.8 83.7204Z" fill="#0033A1"/>
<path d="M241.045 78.5862L237.125 78.593C236.898 78.5934 236.715 78.7773 236.716 79.0037L236.745 95.7037C236.745 95.9302 236.929 96.1134 237.155 96.113L241.075 96.1062C241.302 96.1058 241.485 95.9219 241.485 95.6955L241.456 78.9955C241.455 78.769 241.271 78.5858 241.045 78.5862Z" fill="#0033A1"/>
<path d="M271.48 78.5898H267.54C267.325 78.5898 267.15 78.7645 267.15 78.9798V95.7198C267.15 95.9352 267.325 96.1098 267.54 96.1098H271.48C271.695 96.1098 271.87 95.9352 271.87 95.7198V78.9798C271.87 78.7645 271.695 78.5898 271.48 78.5898Z" fill="#0033A1"/>
</svg>
