<svg width="362" height="140" viewBox="0 0 362 140" fill="none" xmlns="http://www.w3.org/2000/svg">
<rect width="362" height="140" fill="white"/>
<g clip-path="url(#clip0_255_10780)">
<path d="M331 22.4824L327.465 22.4974" stroke="#9F3254" stroke-width="2"/>
<path d="M320.547 24.3594L305.284 25.0351" stroke="#F04D23" stroke-width="2"/>
<path d="M323.724 38.8701L323.611 29.5332" stroke="#593080" stroke-width="2"/>
<path d="M310.117 31.2559L297.454 31.6989" stroke="#F47221" stroke-width="2"/>
<path d="M283.535 47.3203L283.162 47.8497" stroke="#8E5C1E" stroke-width="2"/>
<path d="M283.162 47.8496C280.542 51.3636 278.113 55.0265 275.875 58.8383" stroke="#906D19" stroke-width="2"/>
<path d="M275.875 58.8379C273.511 62.7674 272.07 65.4003 271.553 66.7369C270.156 70.346 268.66 74.0452 267.066 77.8345" stroke="#917B10" stroke-width="2"/>
<path d="M267.067 77.8354L264.232 69.5234" stroke="#6C2337" stroke-width="2"/>
<path d="M312.552 52.8433L312.176 42.1699" stroke="#762E72" stroke-width="2"/>
<path d="M301.079 40.4277L288.755 40.8219" stroke="#F78C1E" stroke-width="2"/>
<path d="M295.523 47.4668L283.162 47.8497" stroke="#FBAA17" stroke-width="2"/>
<path d="M303.541 60.9226L303.767 49.168" stroke="#982C5F" stroke-width="2"/>
<path d="M290.092 56.2227L288.793 58.7418" stroke="#D97130" stroke-width="2"/>
<path d="M288.793 58.7402L275.875 58.8378" stroke="#FEC809" stroke-width="2"/>
<path d="M295.358 66.7258L295.704 53.4883" stroke="#AD2952" stroke-width="2"/>
<path d="M291.074 69.2788L287.991 60.3398" stroke="#6C2337" stroke-width="2"/>
<path d="M287.991 60.3395L288.793 58.7402" stroke="#DA7F27" stroke-width="2"/>
<path d="M287.991 60.3398C285.828 64.8049 284.149 68.7269 282.955 72.1057C281.758 75.4971 280.546 78.4229 279.319 80.8832" stroke="#917B10" stroke-width="2"/>
<path d="M279.319 80.8828L265.666 81.2545" stroke="#FEC809" stroke-width="2"/>
<path d="M265.666 81.2561L267.067 77.8359" stroke="#DA7F27" stroke-width="2"/>
<path d="M272.193 93.2017L274.343 89.8867" stroke="#8E5C1E" stroke-width="2"/>
<path d="M274.343 89.8855C276.162 86.9898 277.821 83.9888 279.319 80.8828" stroke="#906D19" stroke-width="2"/>
<path d="M265.666 81.2559L265.444 81.7327" stroke="#D97130" stroke-width="2"/>
<path d="M258.029 86.4366L258.247 73.8223" stroke="#AD2952" stroke-width="2"/>
<path d="M251.4 91.8087L251.472 79.3633" stroke="#982C5F" stroke-width="2"/>
<path d="M241.99 101.19L241.587 89.0938" stroke="#762E72" stroke-width="2"/>
<path d="M274.343 89.8867L261.714 90.1683" stroke="#FBAA17" stroke-width="2"/>
<path d="M235.467 110.461L235.358 96.6523" stroke="#593080" stroke-width="2"/>
<path d="M269.295 97.2148L257.694 97.8681" stroke="#F78C1E" stroke-width="2"/>
<path d="M232.286 120.168C230.442 121.129 228.386 121.946 226.12 122.62" stroke="#9F3254" stroke-width="2"/>
<path d="M262.617 105.117L250.58 105.568" stroke="#F47221" stroke-width="2"/>
<path d="M248.306 117.326L236.822 117.401" stroke="#F04D23" stroke-width="2"/>
<path d="M331 20.0186V22.4814L327.465 22.4964C325.079 22.7442 322.773 23.3649 320.547 24.3586L305.284 25.0343C309.443 21.8282 329.291 8.13261 331 20.0186Z" fill="#EE3424"/>
<path d="M331 22.4824V23.3159C330.749 24.7275 330.44 25.9026 330.074 26.8411C328.501 30.8607 326.384 34.8702 323.724 38.8698L323.611 29.5329C325.159 27.368 326.444 25.0228 327.466 22.4974L331 22.4824Z" fill="#4F3084"/>
<path d="M320.547 24.3594C316.773 26.1489 313.296 28.4478 310.117 31.256L297.454 31.699C299.964 29.3163 302.573 27.095 305.284 25.0351L320.547 24.3594Z" fill="#F26622"/>
<path d="M212.63 58.7416C212.612 58.7491 212.593 58.7491 212.573 58.7416C212.565 58.7387 212.554 58.7414 212.543 58.7489C212.532 58.7565 212.521 58.7686 212.513 58.7829L181.565 113.58C181.537 113.628 181.498 113.668 181.45 113.695C181.403 113.723 181.349 113.738 181.294 113.738H162.39C162.376 113.738 162.361 113.735 162.348 113.729C162.334 113.724 162.322 113.716 162.312 113.706C162.301 113.696 162.293 113.683 162.288 113.67C162.283 113.657 162.281 113.643 162.281 113.629L164.035 57.7054C164.034 57.6935 164.029 57.6823 164.021 57.6736C164.013 57.6649 164.002 57.6592 163.99 57.6575C163.979 57.6558 163.966 57.6581 163.956 57.664C163.946 57.67 163.938 57.6793 163.933 57.6904L147.447 113.606C147.437 113.639 147.417 113.668 147.389 113.689C147.361 113.71 147.327 113.722 147.292 113.723L125.43 113.933C125.407 113.933 125.383 113.927 125.362 113.916C125.341 113.906 125.323 113.89 125.309 113.871C125.295 113.853 125.285 113.831 125.281 113.808C125.276 113.784 125.277 113.761 125.284 113.738L151.576 26.2784C151.595 26.2165 151.632 26.1623 151.684 26.1237C151.736 26.0851 151.798 26.0644 151.862 26.0645H182.31C182.33 26.0644 182.351 26.0686 182.37 26.0768C182.389 26.0849 182.406 26.0969 182.42 26.1119C182.435 26.127 182.446 26.1448 182.454 26.1644C182.461 26.1839 182.465 26.2049 182.464 26.2259L181.102 81.8078C181.102 81.82 181.106 81.8318 181.114 81.8414C181.122 81.8509 181.132 81.8577 181.144 81.8607C181.156 81.8636 181.169 81.8626 181.18 81.8578C181.191 81.8531 181.201 81.8447 181.207 81.8341L212.404 26.3986C212.427 26.3577 212.46 26.3237 212.5 26.2999C212.541 26.2761 212.587 26.2636 212.634 26.2634H244.896C244.92 26.2634 244.944 26.2691 244.965 26.2801C244.987 26.2911 245.005 26.3071 245.019 26.3268C245.034 26.3465 245.043 26.3693 245.047 26.3935C245.051 26.4177 245.05 26.4426 245.043 26.4662L218.174 113.719C218.156 113.778 218.119 113.829 218.07 113.866C218.02 113.902 217.961 113.922 217.9 113.922H196.087C196.069 113.922 196.051 113.918 196.035 113.91C196.019 113.902 196.005 113.891 195.995 113.876C195.984 113.862 195.977 113.845 195.974 113.828C195.971 113.81 195.972 113.792 195.977 113.775C201.762 94.6611 207.251 76.5093 212.445 59.3197C212.503 59.122 212.567 58.9631 212.637 58.8429C212.644 58.8312 212.649 58.8175 212.653 58.8037C212.657 58.7899 212.658 58.7766 212.657 58.7656C212.656 58.7546 212.653 58.7464 212.648 58.7421C212.644 58.7378 212.637 58.7376 212.63 58.7416Z" fill="#231F20"/>
<path d="M283.535 47.3195L283.162 47.8489C280.542 51.3628 278.113 55.0258 275.875 58.8376C273.511 62.7671 272.07 65.4001 271.553 66.7366C270.156 70.3457 268.66 74.0449 267.067 77.8342L264.232 69.5222L249.733 26.3219C249.727 26.3045 249.725 26.2859 249.728 26.2677C249.73 26.2495 249.737 26.2322 249.748 26.2171C249.759 26.2021 249.773 26.1898 249.789 26.1813C249.805 26.1727 249.823 26.1682 249.842 26.168H276.04C276.107 26.1682 276.173 26.1893 276.227 26.2283C276.282 26.2673 276.323 26.3223 276.345 26.3857L283.535 47.3195Z" fill="#231F20"/>
<path d="M90.2735 27.3887H119.137C119.168 27.3887 119.198 27.4008 119.221 27.4225C119.243 27.4443 119.256 27.4739 119.257 27.5051L123.187 113.797C123.187 113.813 123.185 113.828 123.179 113.843C123.174 113.858 123.165 113.871 123.154 113.883C123.144 113.894 123.131 113.904 123.116 113.91C123.102 113.917 123.086 113.92 123.07 113.921H98.0766C98.0452 113.921 98.0152 113.909 97.9927 113.887C97.9702 113.865 97.9571 113.836 97.9561 113.804L96.8118 88.6996C96.8108 88.6684 96.7977 88.6388 96.7752 88.6171C96.7527 88.5953 96.7227 88.5832 96.6914 88.5832H73.0678C73.0471 88.5837 73.0269 88.5895 73.0091 88.6C72.9913 88.6105 72.9765 88.6254 72.9661 88.6433L57.8457 114.236C57.8354 114.254 57.8206 114.269 57.8028 114.279C57.785 114.29 57.7647 114.296 57.7441 114.296H31.2974C31.2756 114.296 31.2544 114.29 31.2359 114.278C31.2173 114.267 31.2023 114.251 31.1922 114.231C31.1822 114.212 31.1776 114.191 31.1789 114.169C31.1801 114.147 31.1873 114.126 31.1995 114.108L90.1719 27.4412C90.1832 27.4248 90.1983 27.4113 90.2161 27.4022C90.2338 27.393 90.2536 27.3884 90.2735 27.3887ZM96.9059 50.2409C96.9052 50.2161 96.8966 50.1921 96.8813 50.1726C96.866 50.153 96.8448 50.1388 96.8208 50.1321C96.7968 50.1254 96.7713 50.1265 96.7481 50.1353C96.7248 50.144 96.7049 50.16 96.6914 50.1808L80.0126 77.144C80.0018 77.1618 79.996 77.1821 79.9958 77.2028C79.9956 77.2236 80.001 77.244 80.0113 77.262C80.0217 77.28 80.0367 77.2949 80.0548 77.3052C80.0729 77.3155 80.0934 77.3207 80.1142 77.3204H97.4216C97.4372 77.3204 97.4527 77.3173 97.4671 77.3112C97.4816 77.3051 97.4946 77.2962 97.5055 77.285C97.5164 77.2738 97.5249 77.2605 97.5305 77.246C97.5361 77.2314 97.5388 77.2159 97.5383 77.2003L96.9059 50.2409Z" fill="#231F20"/>
<path d="M323.611 29.5332L323.724 38.8701C320.575 43.9183 316.851 48.5761 312.552 52.8434L312.176 42.1701C316.474 38.1342 320.186 34.2711 323.611 29.5332Z" fill="#622F7C"/>
<path d="M310.117 31.2559C306.862 34.1016 303.849 37.1588 301.079 40.4275L288.755 40.8217C291.503 37.583 294.403 34.5421 297.454 31.6989L310.117 31.2559Z" fill="#F57E20"/>
<path d="M301.079 40.4277L295.523 47.467L283.162 47.8499L283.535 47.3206L288.755 40.8219L301.079 40.4277Z" fill="#F9991C"/>
<path d="M312.176 42.1699L312.552 52.8433C309.752 55.7241 306.748 58.4171 303.541 60.9225L303.767 49.1679C306.668 47.0129 309.471 44.6803 312.176 42.1699Z" fill="#8A2D67"/>
<path d="M295.523 47.4668C293.458 50.2399 291.647 53.1583 290.092 56.2217L288.793 58.7409L275.875 58.8385C278.113 55.0266 280.542 51.3637 283.162 47.8497L295.523 47.4668Z" fill="#FDBA12"/>
<path d="M303.767 49.168L303.541 60.9226C300.941 62.9999 298.213 64.9346 295.358 66.7267L295.704 53.4891L303.767 49.168Z" fill="#A52A57"/>
<path d="M295.704 53.4883L295.358 66.7258L291.074 69.2787L287.991 60.3398L288.793 58.7405L290.092 56.2214L295.704 53.4883Z" fill="#B5274D"/>
<path d="M288.793 58.7402L287.991 60.3395C285.828 64.8046 284.149 68.7266 282.955 72.1054C281.758 75.4968 280.546 78.4226 279.319 80.8829L265.666 81.2546L267.067 77.8344C268.66 74.0451 270.156 70.3459 271.553 66.7368C272.07 65.4003 273.511 62.7673 275.875 58.8378L288.793 58.7402Z" fill="#FFD600"/>
<path d="M287.991 60.3398L291.074 69.2788L306.349 113.707C306.357 113.731 306.36 113.757 306.356 113.782C306.352 113.807 306.343 113.831 306.328 113.852C306.314 113.873 306.294 113.89 306.272 113.902C306.249 113.914 306.224 113.92 306.198 113.921H279.311C279.264 113.921 279.217 113.905 279.179 113.877C279.14 113.849 279.112 113.809 279.097 113.763L272.193 93.2009L274.343 89.8859C276.162 86.9901 277.821 83.9892 279.319 80.8832C280.546 78.4229 281.758 75.4971 282.955 72.1057C284.149 68.7269 285.828 64.8049 287.991 60.3398Z" fill="#231F20"/>
<path d="M264.232 69.5234L267.067 77.8354L265.666 81.2555L265.444 81.7323C262.849 83.1364 260.378 84.7044 258.029 86.4364L258.247 73.8221L264.232 69.5234Z" fill="#B5274D"/>
<path d="M258.247 73.8223L258.029 86.4366L251.4 91.809L251.472 79.3636L258.247 73.8223Z" fill="#A52A57"/>
<path d="M251.472 79.3633L251.4 91.8087C248.08 94.722 244.944 97.8493 241.99 101.191L241.587 89.0943C244.649 85.6654 247.944 82.4218 251.472 79.3633Z" fill="#8A2D67"/>
<path d="M279.319 80.8828C277.821 83.9888 276.162 86.9898 274.343 89.8855L261.714 90.1671L265.444 81.7313L265.666 81.2545L279.319 80.8828Z" fill="#FDBA12"/>
<path d="M241.587 89.0938L241.99 101.19C239.493 104.051 237.319 107.141 235.467 110.459L235.358 96.6511L241.587 89.0938Z" fill="#622F7C"/>
<path d="M274.343 89.8867L272.193 93.2017L269.295 97.215L257.694 97.8683C259.199 95.378 260.54 92.8113 261.714 90.1683L274.343 89.8867Z" fill="#F9991C"/>
<path d="M235.358 96.6523L235.467 110.461C233.79 113.476 232.73 116.713 232.286 120.169C230.442 121.13 228.386 121.947 226.12 122.621C225.588 122.108 225.251 121.404 225.108 120.511C224.626 117.522 225.59 114.312 226.711 111.639C228.96 106.281 231.842 101.285 235.358 96.6523Z" fill="#4F3084"/>
<path d="M269.295 97.2148C267.202 99.998 264.976 102.632 262.617 105.118L250.58 105.568L257.694 97.8681L269.295 97.2148Z" fill="#F57E20"/>
<path d="M262.617 105.117C258.304 109.787 253.533 113.857 248.306 117.326L236.822 117.401C241.809 113.853 246.228 109.833 250.58 105.568L262.617 105.117Z" fill="#F26622"/>
<path d="M248.306 117.326C244.271 120.112 239.765 122.762 235.075 124.219C233.482 124.712 231.802 124.901 230.035 124.786C228.489 124.686 227.184 123.964 226.12 122.62C228.386 121.946 230.442 121.129 232.286 120.168L236.822 117.401L248.306 117.326Z" fill="#EE3424"/>
</g>
<defs>
<clipPath id="clip0_255_10780">
<rect width="300" height="110" fill="white" transform="translate(31 15)"/>
</clipPath>
</defs>
</svg>
