<svg width="362" height="140" viewBox="0 0 362 140" fill="none" xmlns="http://www.w3.org/2000/svg">
<rect width="362" height="140" fill="white"/>
<g clip-path="url(#clip0_902_34506)">
<path d="M302.202 43.2608L300.694 50.5351C300.69 50.5556 300.678 50.5739 300.662 50.587C300.646 50.6 300.625 50.6069 300.604 50.6065H290.53C290.516 50.6063 290.503 50.6033 290.491 50.5975C290.479 50.5917 290.469 50.5833 290.46 50.5729C290.452 50.5625 290.446 50.5504 290.443 50.5375C290.44 50.5245 290.44 50.5111 290.442 50.498L291.95 43.2238C291.955 43.2032 291.966 43.1849 291.982 43.1718C291.999 43.1588 292.019 43.1519 292.04 43.1524H302.115C302.128 43.1525 302.141 43.1555 302.153 43.1613C302.165 43.1671 302.176 43.1755 302.184 43.1859C302.192 43.1963 302.198 43.2084 302.201 43.2213C302.205 43.2343 302.205 43.2477 302.202 43.2608Z" fill="#F9C623"/>
<path d="M54.5985 45.416H67.676C67.6977 45.4158 67.7187 45.4234 67.7352 45.4375C67.7517 45.4516 67.7626 45.4712 67.7658 45.4927L74.154 84.7093C74.1559 84.7222 74.155 84.7353 74.1514 84.7478C74.1477 84.7602 74.1414 84.7718 74.1329 84.7816C74.1243 84.7914 74.1138 84.7992 74.1019 84.8046C74.0901 84.8099 74.0772 84.8126 74.0642 84.8124H63.6513C63.6293 84.8126 63.6079 84.8046 63.5913 84.7899C63.5748 84.7753 63.5642 84.7551 63.5616 84.7331L62.5105 76.4778C62.5079 76.4558 62.4973 76.4356 62.4807 76.421C62.4642 76.4063 62.4428 76.3983 62.4207 76.3985H47.2147C47.1985 76.3985 47.1825 76.4029 47.1685 76.4113C47.1546 76.4197 47.1432 76.4317 47.1355 76.4461L42.6329 84.7648C42.6252 84.7792 42.6138 84.7912 42.5998 84.7996C42.5859 84.808 42.5699 84.8124 42.5536 84.8124H31.3142C31.2985 84.8122 31.2832 84.8079 31.2697 84.7999C31.2562 84.792 31.2451 84.7806 31.2373 84.767C31.2296 84.7533 31.2255 84.7379 31.2256 84.7222C31.2256 84.7065 31.2298 84.6911 31.2376 84.6776L54.5219 45.461C54.5297 45.4475 54.5409 45.4362 54.5543 45.4284C54.5677 45.4205 54.583 45.4162 54.5985 45.416ZM59.8063 53.6422C59.8043 53.6236 59.7965 53.6061 59.7839 53.5923C59.7712 53.5785 59.7545 53.5691 59.7362 53.5656C59.7178 53.562 59.6988 53.5645 59.6819 53.5726C59.6651 53.5806 59.6513 53.5939 59.6425 53.6105L51.4058 68.8228C51.3984 68.8361 51.3946 68.8511 51.3948 68.8663C51.395 68.8815 51.3992 68.8964 51.407 68.9095C51.4147 68.9226 51.4257 68.9334 51.439 68.941C51.4522 68.9485 51.4671 68.9524 51.4823 68.9523H61.3881C61.4005 68.9524 61.4128 68.9499 61.4241 68.9448C61.4355 68.9398 61.4456 68.9324 61.4538 68.9231C61.4621 68.9139 61.4683 68.903 61.472 68.8911C61.4757 68.8793 61.4768 68.8668 61.4753 68.8545L59.8063 53.6422Z" fill="#3E474B"/>
<path d="M184.383 45.4141H194.873C194.885 45.4142 194.898 45.4171 194.909 45.4226C194.92 45.4281 194.93 45.4361 194.938 45.446C194.946 45.4559 194.952 45.4674 194.954 45.4798C194.957 45.4921 194.957 45.5049 194.954 45.5172L188.439 76.9227C188.437 76.935 188.437 76.9478 188.44 76.9602C188.442 76.9725 188.448 76.984 188.456 76.9939C188.464 77.0038 188.474 77.0118 188.485 77.0173C188.496 77.0228 188.509 77.0258 188.521 77.0258H204.778C204.791 77.0259 204.803 77.0288 204.815 77.0344C204.826 77.0399 204.836 77.0479 204.844 77.0578C204.852 77.0677 204.857 77.0792 204.86 77.0915C204.863 77.1038 204.863 77.1166 204.86 77.129L203.278 84.747C203.274 84.7657 203.264 84.7824 203.249 84.7944C203.234 84.8064 203.216 84.813 203.197 84.8131H176.244C176.231 84.813 176.219 84.8101 176.208 84.8046C176.196 84.799 176.186 84.791 176.179 84.7811C176.171 84.7713 176.165 84.7597 176.162 84.7474C176.159 84.7351 176.159 84.7223 176.162 84.71L184.301 45.4802C184.305 45.4615 184.316 45.4448 184.331 45.4328C184.346 45.4208 184.364 45.4142 184.383 45.4141Z" fill="#F9C623"/>
<path d="M104.785 76.7339C104.795 76.7293 104.806 76.7276 104.816 76.7289C104.827 76.7302 104.837 76.7344 104.845 76.7412C104.854 76.7481 104.86 76.7571 104.864 76.7675C104.868 76.7778 104.869 76.7891 104.867 76.8L103.626 83.6856C103.619 83.7254 103.601 83.7625 103.574 83.7928C103.547 83.8231 103.512 83.8455 103.473 83.8574C101.219 84.5661 98.6623 85.0667 95.8013 85.3594C91.1799 85.8327 86.1702 85.0262 82.6605 82.0197C78.2344 78.2305 77.4052 72.511 78.9897 66.9687C80.4976 61.6988 84.3005 57.3305 89.6799 55.6646C93.5144 54.48 97.304 54.4104 101.049 55.4558C106.888 57.0846 109.576 62.2091 109.315 68.0793C109.256 69.3803 109.033 70.9941 108.644 72.9209C108.635 72.9627 108.612 73.0001 108.579 73.027C108.546 73.0539 108.504 73.0687 108.462 73.069H88.0082C87.9869 73.069 87.9659 73.0732 87.9463 73.0815C87.9267 73.0898 87.909 73.102 87.8943 73.1173C87.8795 73.1326 87.8679 73.1507 87.8603 73.1706C87.8526 73.1904 87.849 73.2116 87.8498 73.2329C87.9792 77.3235 91.1561 78.5425 94.6552 78.68C98.1622 78.8175 101.539 78.1688 104.785 76.7339ZM88.4571 67.2067C88.4529 67.2192 88.4517 67.2325 88.4537 67.2455C88.4557 67.2586 88.4608 67.2709 88.4686 67.2816C88.4763 67.2922 88.4866 67.3008 88.4984 67.3067C88.5102 67.3125 88.5232 67.3154 88.5364 67.3151H100.782C100.809 67.3151 100.835 67.304 100.855 67.2842C100.874 67.2643 100.885 67.2374 100.885 67.2094C100.882 64.9856 100.159 62.7168 97.9932 61.8759C96.7256 61.3841 95.2811 61.3683 93.6596 61.8284C91.0927 62.5564 89.3586 64.3492 88.4571 67.2067Z" fill="#3E474B"/>
<path d="M125.993 61.3157C125.985 61.3424 125.987 61.3714 125.999 61.3965C126.012 61.4215 126.034 61.4405 126.061 61.4493C126.087 61.458 126.116 61.4558 126.141 61.4432C126.166 61.4306 126.185 61.4085 126.194 61.3818C127.713 58.1426 130.657 55.2551 134.296 54.7924C135.747 54.6073 137.425 54.8012 139.33 55.3741C139.377 55.3883 139.418 55.4205 139.443 55.4639C139.467 55.5072 139.474 55.5585 139.462 55.6068L137.235 64.2614C137.231 64.2795 137.222 64.2962 137.21 64.31C137.197 64.3238 137.181 64.3343 137.164 64.3405C137.146 64.3468 137.127 64.3487 137.108 64.3459C137.089 64.3432 137.071 64.336 137.056 64.3249C136.281 63.7537 135.172 63.3923 133.728 63.2407C128.605 62.7066 126.001 66.3821 125.048 70.8482C124.481 73.4942 123.503 78.0987 122.114 84.6616C122.105 84.7045 122.082 84.7428 122.048 84.7703C122.014 84.7977 121.972 84.8126 121.929 84.8124H112.034C112.022 84.8122 112.01 84.8094 111.999 84.8042C111.988 84.7989 111.979 84.7914 111.971 84.782C111.964 84.7727 111.958 84.7618 111.956 84.7501C111.953 84.7385 111.952 84.7263 111.955 84.7145C114.118 74.4285 115.64 67.1745 116.521 62.9525C116.945 60.9147 117.352 58.4476 117.741 55.5513C117.746 55.5111 117.766 55.4743 117.797 55.4476C117.827 55.4209 117.867 55.4061 117.907 55.4059H127.021C127.045 55.4057 127.068 55.411 127.09 55.4212C127.111 55.4315 127.131 55.4466 127.146 55.4653C127.161 55.484 127.172 55.506 127.178 55.5295C127.183 55.5531 127.184 55.5777 127.179 55.6015L125.993 61.3157Z" fill="#3E474B"/>
<path d="M151.46 85.4043C144.055 84.8834 138.942 81.0414 138.21 73.5026C137.938 70.6839 138.467 67.1962 139.703 64.5255C141.947 59.6786 146.141 56.6457 151.346 55.395C155.859 54.3082 161.328 54.406 165.628 56.5849C169.433 58.5151 171.879 62.0875 172.256 66.3421C172.607 70.2837 171.945 73.8966 170.27 77.1808C166.787 84.0214 158.442 85.8988 151.46 85.4043ZM149.133 74.8168C150.572 79.1772 156.039 79.2697 158.944 76.525C160.93 74.645 161.685 71.6993 161.846 68.8673C161.981 66.4584 161.592 63.4863 159.076 62.3678C156.263 61.1224 153.092 62.1774 151.209 64.5334C148.922 67.3918 147.987 71.3476 149.133 74.8168Z" fill="#3E474B"/>
<path d="M221.075 85.4061C213.67 84.8826 208.557 81.0405 207.829 73.5018C207.557 70.683 208.085 67.1953 209.321 64.5246C211.565 59.6778 215.762 56.6475 220.967 55.3967C225.48 54.31 230.949 54.4078 235.248 56.5893C239.051 58.5196 241.497 62.0919 241.874 66.3465C242.225 70.2882 241.563 73.9011 239.888 77.1852C236.403 84.0258 228.057 85.9006 221.075 85.4061ZM218.751 74.8186C220.19 79.179 225.657 79.2715 228.562 76.5268C230.548 74.6467 231.303 71.7011 231.464 68.8691C231.599 66.4602 231.211 63.4881 228.694 62.3696C225.881 61.1241 222.71 62.1792 220.827 64.5352C218.54 67.3936 217.605 71.3494 218.751 74.8186Z" fill="#F9C623"/>
<path d="M283.09 55.4067C283.102 55.4065 283.114 55.4093 283.125 55.4148C283.136 55.4203 283.146 55.4283 283.153 55.4383C283.16 55.4483 283.166 55.46 283.168 55.4724C283.17 55.4848 283.17 55.4976 283.166 55.5098C282.361 58.4343 281.78 60.4571 281.194 63.0617C279.805 69.2228 278.349 75.6888 276.826 82.4598C275.326 89.1338 272.923 95.1838 265.478 96.6461C259.096 97.8995 252.789 97.5152 246.556 95.4932C246.531 95.4852 246.51 95.4679 246.497 95.4448C246.484 95.4217 246.481 95.3945 246.488 95.3689L248.445 87.7615C248.45 87.7418 248.459 87.7236 248.472 87.7082C248.486 87.6927 248.502 87.6805 248.521 87.6724C248.54 87.6642 248.56 87.6604 248.581 87.6612C248.601 87.662 248.622 87.6673 248.64 87.6769C252.073 89.5648 255.646 90.1968 259.856 89.7314C263.007 89.3841 265.232 87.8205 266.532 85.0406C267.312 83.3729 267.857 81.6339 268.166 79.8235C268.17 79.8021 268.167 79.78 268.156 79.7609C268.146 79.7417 268.129 79.7267 268.109 79.7184C268.089 79.7101 268.067 79.7088 268.046 79.715C268.025 79.7211 268.007 79.7342 267.995 79.7521C265.193 83.7846 261.07 85.2732 256.298 84.6413C252.345 84.1204 249.224 81.7987 247.695 78.0492C245.986 73.8608 246.15 68.5168 247.824 64.479C248.933 61.8066 250.548 59.6286 252.67 57.9451C256.496 54.9095 262.185 53.8519 266.809 55.5045C269.415 56.4353 271.248 58.1646 272.31 60.6925C272.317 60.7071 272.328 60.7194 272.342 60.7276C272.355 60.7358 272.371 60.7396 272.387 60.7384C272.404 60.7373 272.419 60.7312 272.431 60.7211C272.444 60.711 272.453 60.6974 272.458 60.6819L273.783 55.5283C273.793 55.4932 273.813 55.4623 273.841 55.4403C273.868 55.4183 273.902 55.4064 273.937 55.4067H283.09ZM257.688 67.7103C256.658 70.566 256.438 74.3394 259.214 76.1163C260.415 76.8849 261.839 77.1361 263.487 76.8699C266.276 76.4151 268.058 74.3261 268.985 71.7533C270.015 68.9002 270.234 65.1269 267.459 63.3473C266.258 62.5787 264.835 62.3284 263.188 62.5963C260.397 63.0485 258.614 65.1401 257.688 67.7103Z" fill="#F9C623"/>
<path d="M326.307 76.7745C326.324 76.7667 326.343 76.7639 326.362 76.7664C326.381 76.7689 326.399 76.7767 326.414 76.7887C326.429 76.8008 326.44 76.8167 326.446 76.8348C326.452 76.8528 326.454 76.8722 326.449 76.8909L324.918 84.2709C324.911 84.2993 324.898 84.3257 324.878 84.3474C324.859 84.3692 324.834 84.3856 324.807 84.3952C321.754 85.4264 318.052 85.6274 314.764 85.4026C312.843 85.2722 311.05 84.7724 309.384 83.9034C301.113 79.5959 300.59 68.7678 305.761 61.8981C309.596 56.8079 316.008 54.4387 322.322 54.7851C324.889 54.9261 327.596 55.5457 330.442 56.644C330.483 56.6595 330.517 56.69 330.536 56.7293C330.555 56.7686 330.558 56.8138 330.545 56.8555L328.441 63.6142C328.434 63.6342 328.424 63.6526 328.41 63.6682C328.396 63.6839 328.379 63.6964 328.36 63.7049C328.341 63.7134 328.32 63.7177 328.3 63.7176C328.279 63.7174 328.259 63.7128 328.24 63.7041C325.59 62.5071 323.082 62.0215 320.716 62.2471C315.498 62.7495 312.73 66.8692 312.91 71.9171C313.042 75.6296 316.134 77.9327 319.644 78.0279C321.927 78.0896 324.148 77.6718 326.307 76.7745Z" fill="#F9C623"/>
<path d="M289.46 55.4062H299.55C299.563 55.4063 299.575 55.4093 299.587 55.4148C299.598 55.4203 299.608 55.4283 299.616 55.4382C299.624 55.4481 299.629 55.4596 299.632 55.4719C299.635 55.4843 299.635 55.497 299.632 55.5094L293.566 84.7466C293.562 84.7653 293.551 84.782 293.537 84.794C293.522 84.806 293.503 84.8126 293.484 84.8127H283.393C283.381 84.8127 283.368 84.8097 283.357 84.8042C283.346 84.7987 283.336 84.7907 283.328 84.7808C283.32 84.7709 283.315 84.7594 283.312 84.747C283.309 84.7347 283.309 84.7219 283.312 84.7096L289.378 55.4724C289.382 55.4537 289.392 55.437 289.407 55.425C289.422 55.413 289.44 55.4064 289.46 55.4062Z" fill="#F9C623"/>
</g>
<defs>
<clipPath id="clip0_902_34506">
<rect width="300" height="55" fill="white" transform="translate(31 42.5)"/>
</clipPath>
</defs>
</svg>
