<svg width="362" height="140" viewBox="0 0 362 140" fill="none" xmlns="http://www.w3.org/2000/svg">
<rect width="362" height="140" fill="white"/>
<g clip-path="url(#clip0_312_17345)">
<mask id="mask0_312_17345" style="mask-type:luminance" maskUnits="userSpaceOnUse" x="31" y="16" width="300" height="108">
<path d="M330.848 16.5H31V123.5H330.848V16.5Z" fill="white"/>
</mask>
<g mask="url(#mask0_312_17345)">
<path d="M134.737 63.9846C134.737 64.9788 134.058 65.914 132.71 66.7818C131.481 67.5737 130.328 67.9613 129.251 67.9613C127.818 67.9613 126.572 67.5401 125.503 66.706C124.35 65.8045 123.782 64.667 123.782 63.2769C123.782 61.8868 124.291 60.8926 125.308 60.168C125.622 59.9406 125.826 59.8311 125.902 59.8311C125.902 59.8311 125.91 59.8479 125.91 59.8563V63.3696C125.91 64.5239 126.987 65.1051 129.141 65.1051C129.938 65.1051 130.599 64.9873 131.142 64.743C131.879 64.4312 132.244 63.9341 132.244 63.2432V59.2665H129.76C129.107 59.2665 128.564 58.9969 128.14 58.4661C127.716 57.9354 127.504 57.3035 127.504 56.5704C127.504 55.8374 127.733 55.2393 128.2 54.6916C128.657 54.144 129.387 53.8744 130.37 53.8744C130.548 53.8744 130.828 53.8744 131.201 53.8997C131.574 53.9165 131.862 53.925 132.057 53.925C133.227 53.925 134.126 53.5711 134.737 52.855V63.9931V63.9846ZM129.76 49.1731C129.76 49.5354 129.641 49.8303 129.412 50.0578C129.183 50.2853 128.886 50.4032 128.522 50.4032C128.157 50.4032 127.86 50.2853 127.631 50.0578C127.403 49.8303 127.284 49.5354 127.284 49.1731C127.284 48.8108 127.403 48.5075 127.631 48.2716C127.86 48.0358 128.157 47.9263 128.522 47.9263C128.886 47.9263 129.183 48.0441 129.412 48.2716C129.641 48.4992 129.76 48.8025 129.76 49.1731ZM132.252 57.295V55.8122H130.896C130.268 55.8122 129.946 56.0397 129.946 56.5031C129.946 57.0339 130.26 57.3035 130.896 57.3035H132.252V57.295ZM133.999 49.1731C133.999 49.5354 133.88 49.8303 133.651 50.0578C133.422 50.2853 133.117 50.4032 132.744 50.4032C132.371 50.4032 132.083 50.2853 131.854 50.0578C131.625 49.8303 131.506 49.5354 131.506 49.1731C131.506 48.8108 131.625 48.5075 131.854 48.2716C132.083 48.0441 132.38 47.9263 132.744 47.9263C133.109 47.9263 133.414 48.0441 133.651 48.2716C133.88 48.4992 133.999 48.8025 133.999 49.1731Z" fill="#1E1C1C"/>
<path d="M140.96 62.2659H138.476V48.6339C138.476 47.9851 138.747 47.4207 139.298 46.9488C139.858 46.5697 140.409 46.1906 140.96 45.8115V62.2659Z" fill="#1E1C1C"/>
<path d="M151.651 62.2656H148.412V63.681C148.412 64.4814 148.132 65.1639 147.581 65.7115C147.03 66.2591 146.343 66.5372 145.538 66.5372C144.732 66.5372 143.978 66.2676 143.367 65.72C142.757 65.1723 142.409 64.4899 142.333 63.681H145.538V59.4853C145.538 58.6006 145.801 57.9519 146.326 57.5475C146.403 57.4801 147.098 57.1262 148.412 56.4775V59.3842H151.651V62.2824V62.2656Z" fill="#1E1C1C"/>
<path d="M157.849 62.2659H148.158L149.896 59.3677H157.849V62.2659Z" fill="#1E1C1C"/>
<path d="M164.072 62.2659H154.381L156.119 59.3677H164.072V62.2659Z" fill="#1E1C1C"/>
<path d="M170.287 62.2659H160.596L162.334 59.3677H170.287V62.2659Z" fill="#1E1C1C"/>
<path d="M174.467 44.8678L174.178 45.5755C173.797 45.4829 173.441 45.3649 173.102 45.2217C172.474 45.9631 171.592 46.6792 170.482 47.3786L170.083 46.6034C170.083 46.6034 170.109 46.6118 170.134 46.6118C170.312 46.6118 170.694 46.3675 171.279 45.8873C171.804 45.4492 172.16 45.1037 172.347 44.8763C171.669 44.5308 171.329 44.1096 171.329 43.6125C171.329 43.2502 171.567 42.8626 172.042 42.4413C172.516 42.0201 172.932 41.8179 173.288 41.8179C173.915 41.8179 174.238 42.1887 174.238 42.9301C174.238 43.4102 174.051 43.9326 173.67 44.4887C173.848 44.5813 174.119 44.7078 174.483 44.8593L174.467 44.8678ZM173.229 43.0649C173.229 42.8458 173.118 42.7363 172.898 42.7363C172.584 42.7363 172.423 42.8795 172.423 43.1575C172.423 43.3682 172.584 43.663 172.898 44.0421C173.118 43.6125 173.229 43.2922 173.229 43.0649Z" fill="#1E1C1C"/>
<path d="M177.748 62.2656H166.811L168.549 59.3674H173.526C173.526 57.8761 173.619 56.9746 173.805 56.6543C173.941 56.427 174.679 55.8288 176.001 54.8599V59.3674H177.748V62.2656ZM174.518 65.9642C174.518 66.335 174.399 66.6299 174.17 66.8657C173.941 67.0932 173.636 67.2112 173.263 67.2112C172.89 67.2112 172.601 67.0932 172.372 66.8657C172.144 66.6383 172.025 66.335 172.025 65.9642C172.025 65.5936 172.144 65.3071 172.372 65.0795C172.601 64.8522 172.898 64.7342 173.263 64.7342C173.627 64.7342 173.932 64.8522 174.17 65.0795C174.399 65.3071 174.518 65.6019 174.518 65.9642Z" fill="#1E1C1C"/>
<path d="M183.953 62.2659H174.263L176.001 59.3677H183.953V62.2659Z" fill="#1E1C1C"/>
<path d="M190.169 62.2659H180.478L182.216 59.3677H190.169V62.2659Z" fill="#1E1C1C"/>
<path d="M196.383 62.2659H186.692L188.431 59.3677H196.383V62.2659Z" fill="#1E1C1C"/>
<path d="M200.861 61.0358C200.861 61.3727 200.742 61.6593 200.497 61.9036C200.251 62.1479 199.963 62.2659 199.624 62.2659H192.909L194.646 59.3677H198.378V48.5749C198.378 47.8925 198.641 47.3364 199.157 46.8983C199.726 46.536 200.293 46.1737 200.87 45.8115V61.0358H200.861Z" fill="#1E1C1C"/>
<path d="M207.076 62.2659H204.593V48.6339C204.593 47.9851 204.863 47.4207 205.415 46.9488C205.975 46.5697 206.526 46.1906 207.076 45.8115V62.2659Z" fill="#1E1C1C"/>
<path d="M224.482 62.2657C224.482 63.6053 223.982 64.768 222.989 65.7538C221.998 66.731 220.819 67.2281 219.471 67.2281C218.124 67.2281 217.039 66.8658 216.088 66.1329C215.054 65.3409 214.537 64.3214 214.537 63.0661C214.537 61.4905 215.046 60.5048 216.055 60.1257C216.139 60.7997 216.233 61.4738 216.318 62.1562C216.461 62.9313 216.698 63.5042 217.03 63.8918C217.445 64.3804 218.055 64.6248 218.877 64.6248C219.589 64.6248 220.2 64.4142 220.701 63.9844C221.209 63.5548 221.455 62.8808 221.455 61.9456C221.455 61.7096 221.43 61.2884 221.379 60.6649C221.328 60.1257 221.312 59.7129 221.328 59.4263C221.354 58.9799 221.439 58.6176 221.582 58.3143C221.794 57.8846 222.083 57.5981 222.455 57.4296L224.473 56.5113V62.2657H224.482ZM220.455 54.7252C220.455 55.0958 220.336 55.3907 220.107 55.6266C219.879 55.8542 219.573 55.972 219.2 55.972C218.827 55.972 218.539 55.8542 218.31 55.6266C218.08 55.3991 217.962 55.0958 217.962 54.7252C217.962 54.3544 218.08 54.068 218.31 53.8405C218.539 53.613 218.836 53.4951 219.2 53.4951C219.564 53.4951 219.87 53.613 220.107 53.8405C220.336 54.068 220.455 54.3629 220.455 54.7252Z" fill="#1E1C1C"/>
<path d="M230.697 62.2659H228.214V48.6339C228.214 47.9851 228.486 47.4207 229.036 46.9488C229.596 46.5697 230.147 46.1906 230.697 45.8115V62.2659Z" fill="#1E1C1C"/>
<path d="M241.399 62.2656H238.16V63.681C238.16 64.4814 237.88 65.1639 237.329 65.7115C236.778 66.2591 236.092 66.5372 235.286 66.5372C234.48 66.5372 233.726 66.2676 233.115 65.72C232.505 65.1723 232.157 64.4899 232.081 63.681H235.286V59.4853C235.286 58.6006 235.548 57.9519 236.074 57.5475C236.15 57.4801 236.845 57.1262 238.16 56.4775V59.3842H241.399V62.2824V62.2656Z" fill="#1E1C1C"/>
<path d="M247.595 62.2659H237.904L239.643 59.3677H247.595V62.2659Z" fill="#1E1C1C"/>
<path d="M253.81 62.2659H244.119L245.858 59.3677H253.81V62.2659Z" fill="#1E1C1C"/>
<path d="M263.79 62.2658H250.342L252.081 59.3676H259.533C259.533 57.834 259.618 56.9073 259.796 56.604C259.948 56.3176 260.685 55.7278 262.016 54.8516V59.3591H263.79V62.2573V62.2658ZM257.413 67.0766C257.413 67.4472 257.294 67.7421 257.066 67.9781C256.836 68.2139 256.54 68.3235 256.175 68.3235C255.81 68.3235 255.506 68.2055 255.276 67.9781C255.048 67.7506 254.937 67.4472 254.937 67.0766C254.937 66.7058 255.048 66.4193 255.276 66.1919C255.506 65.9644 255.802 65.8464 256.175 65.8464C256.548 65.8464 256.836 65.9644 257.066 66.1919C257.294 66.4193 257.413 66.7143 257.413 67.0766ZM261.643 67.0766C261.643 67.4472 261.533 67.7421 261.304 67.9781C261.076 68.2055 260.779 68.3235 260.406 68.3235C260.033 68.3235 259.745 68.2055 259.515 67.9781C259.287 67.7506 259.169 67.4472 259.169 67.0766C259.169 66.7058 259.287 66.4193 259.515 66.1919C259.745 65.9644 260.042 65.8464 260.406 65.8464C260.77 65.8464 261.076 65.9644 261.304 66.1919C261.533 66.4193 261.643 66.7143 261.643 67.0766Z" fill="#1E1C1C"/>
<path d="M269.97 62.2659H260.279L262.018 59.3677H269.97V62.2659Z" fill="#1E1C1C"/>
<path d="M276.185 62.2659H266.494L268.233 59.3677H276.185V62.2659Z" fill="#1E1C1C"/>
<path d="M293.093 61.0358C293.093 61.3727 292.973 61.6593 292.727 61.9036C292.482 62.1479 292.194 62.2659 291.854 62.2659H272.709L274.448 59.3677H277.381V48.3812C277.381 47.7072 277.636 47.1679 278.145 46.7803C278.712 46.4602 279.272 46.1401 279.831 45.8115V55.7869C280.502 54.9865 281.281 54.5821 282.172 54.5821H290.6C290.999 54.5821 291.422 54.7084 291.888 54.9612C292.346 55.214 292.685 55.5088 292.897 55.8459C293.024 56.0565 293.093 56.4356 293.093 56.9832V61.0358ZM290.607 59.3677V58.306C290.607 57.9774 290.439 57.6994 290.099 57.4888C289.803 57.295 289.472 57.2023 289.115 57.2023H279.84V59.376H290.607V59.3677Z" fill="#1E1C1C"/>
<path d="M136.321 73.5552L130.301 107.382H121.696L122.433 103.111C121.119 104.577 119.508 105.731 117.575 106.565C115.65 107.399 113.624 107.82 111.496 107.82C107.968 107.82 105.188 106.877 103.136 104.981C101.084 103.086 100.066 100.389 100.066 96.8931C100.066 95.5871 100.168 94.4328 100.372 93.4135L103.873 73.5721H112.479L109.164 92.1918C109.045 92.9247 108.977 93.6409 108.977 94.3318C108.977 96.3285 109.529 97.8619 110.639 98.9403C111.741 100.019 113.302 100.558 115.311 100.558C117.643 100.558 119.635 99.8335 121.271 98.3927C122.908 96.9521 123.951 94.8794 124.409 92.1918L127.724 73.5721H136.33L136.321 73.5552Z" fill="#1E1C1C"/>
<path d="M157.577 74.7773C159.544 73.6398 161.673 73.0669 163.97 73.0669L162.376 82.0397H160.104C157.56 82.0397 155.525 82.5874 153.991 83.6911C152.456 84.7864 151.337 86.6653 150.642 89.3107L147.446 107.383H138.78L144.8 73.5555H153.465L152.422 79.5374C153.898 77.4986 155.619 75.9146 157.586 74.7773H157.577Z" fill="#1E1C1C"/>
<path d="M168.117 81.2477C169.94 78.6022 172.161 76.5634 174.781 75.1395C177.401 73.7157 180.165 72.9995 183.073 72.9995C185.608 72.9995 187.754 73.5049 189.491 74.5244C191.23 75.5439 192.509 76.8245 193.332 78.3748L194.188 73.5471H202.854L196.835 107.374H188.169L189.093 102.429C187.745 104.013 185.99 105.327 183.836 106.363C181.682 107.4 179.343 107.922 176.799 107.922C174.255 107.922 172.085 107.366 170.16 106.245C168.236 105.125 166.743 103.541 165.675 101.485C164.607 99.4293 164.081 97.0366 164.081 94.3068C164.081 93.043 164.208 91.7202 164.454 90.3386C165.064 86.9178 166.285 83.8848 168.108 81.2393L168.117 81.2477ZM191.433 88.148C191.433 85.7468 190.729 83.8764 189.314 82.5283C187.897 81.1887 186.126 80.5148 183.997 80.5148C182.403 80.5148 180.851 80.9024 179.36 81.6774C177.867 82.4525 176.561 83.5815 175.459 85.0644C174.357 86.5472 173.619 88.3081 173.246 90.3469C173.128 91.122 173.06 91.855 173.06 92.5459C173.06 94.9892 173.755 96.9102 175.146 98.3172C176.536 99.7243 178.3 100.423 180.427 100.423C182.021 100.423 183.582 100.028 185.099 99.2355C186.617 98.4435 187.914 97.2893 189 95.7812C190.085 94.273 190.814 92.5038 191.179 90.4734C191.339 89.4117 191.424 88.645 191.424 88.1564L191.433 88.148Z" fill="#1E1C1C"/>
<path d="M209.806 81.3995C211.688 78.7707 213.977 76.7319 216.656 75.2659C219.335 73.8 222.132 73.0669 225.041 73.0669C227.458 73.0669 229.527 73.5219 231.247 74.4402C232.968 75.3586 234.24 76.5297 235.055 77.9535L235.852 73.5555H244.516L235.665 123.5H227L230.628 102.741C229.238 104.206 227.509 105.428 225.44 106.405C223.371 107.383 221.107 107.871 218.649 107.871C216.189 107.871 213.918 107.299 211.95 106.161C209.983 105.024 208.449 103.414 207.338 101.342C206.235 99.2693 205.676 96.8682 205.676 94.1383C205.676 92.9167 205.795 91.6782 206.04 90.4144C206.65 87.0359 207.906 84.0365 209.788 81.4078L209.806 81.3995ZM233.028 88.207C233.028 85.7636 232.325 83.8681 230.909 82.5284C229.492 81.1888 227.746 80.5148 225.652 80.5148C224.134 80.5148 222.616 80.9024 221.107 81.6774C219.589 82.4526 218.267 83.5816 217.147 85.0644C216.021 86.5473 215.274 88.3334 214.901 90.4059C214.774 91.1811 214.715 91.931 214.715 92.6639C214.715 95.0651 215.427 96.9607 216.868 98.3425C218.301 99.7243 220.038 100.415 222.091 100.415C223.65 100.415 225.168 100.028 226.67 99.2525C228.161 98.4773 229.476 97.34 230.603 95.8317C231.731 94.3236 232.477 92.5376 232.85 90.4565C232.977 89.6393 233.037 88.8895 233.037 88.1986L233.028 88.207Z" fill="#1E1C1C"/>
<path d="M251.436 81.2477C253.26 78.6022 255.481 76.5634 258.1 75.1395C260.721 73.7157 263.485 72.9995 266.393 72.9995C268.936 72.9995 271.074 73.5049 272.811 74.5244C274.55 75.5439 275.83 76.8245 276.653 78.3748L277.508 73.5471H286.174L280.154 107.374H271.488L272.412 102.429C271.065 104.013 269.309 105.327 267.156 106.363C265.002 107.4 262.663 107.922 260.118 107.922C257.575 107.922 255.405 107.366 253.479 106.245C251.556 105.125 250.063 103.541 248.994 101.485C247.926 99.4293 247.4 97.0366 247.4 94.3068C247.4 93.043 247.527 91.7202 247.766 90.3386C248.377 86.9178 249.597 83.8848 251.42 81.2393L251.436 81.2477ZM274.753 88.148C274.753 85.7468 274.05 83.8764 272.633 82.5283C271.217 81.1887 269.445 80.5148 267.317 80.5148C265.723 80.5148 264.172 80.9024 262.679 81.6774C261.187 82.4525 259.881 83.5815 258.779 85.0644C257.676 86.5472 256.939 88.3081 256.566 90.3469C256.439 91.122 256.379 91.855 256.379 92.5459C256.379 94.9892 257.075 96.9102 258.466 98.3172C259.856 99.7243 261.62 100.423 263.748 100.423C265.342 100.423 266.902 100.028 268.42 99.2355C269.938 98.4435 271.235 97.2893 272.32 95.7812C273.405 94.273 274.133 92.5038 274.499 90.4734C274.66 89.4117 274.745 88.645 274.745 88.1564L274.753 88.148Z" fill="#1E1C1C"/>
<path d="M303.266 73.5555L297.247 107.383H288.581L294.6 73.5555H303.266ZM296.441 68.3657C295.618 67.5906 295.211 66.6132 295.211 65.4336C295.211 63.8077 295.839 62.4091 297.086 61.2548C298.332 60.0921 299.799 59.5107 301.477 59.5107C302.792 59.5107 303.851 59.8983 304.674 60.6735C305.496 61.4486 305.903 62.4259 305.903 63.6054C305.903 65.2315 305.293 66.6301 304.063 67.7844C302.833 68.947 301.375 69.5283 299.696 69.5283C298.348 69.5283 297.263 69.1407 296.441 68.3657Z" fill="#1E1C1C"/>
<path d="M324.463 74.7773C326.43 73.6398 328.559 73.0669 330.857 73.0669L329.263 82.0397H326.99C324.447 82.0397 322.412 82.5874 320.878 83.6911C319.342 84.7864 318.223 86.6653 317.529 89.3107L314.332 107.383H305.666L311.687 73.5555H320.351L319.309 79.5374C320.784 77.4986 322.505 75.9146 324.472 74.7773H324.463Z" fill="#1E1C1C"/>
</g>
<mask id="mask1_312_17345" style="mask-type:luminance" maskUnits="userSpaceOnUse" x="31" y="36" width="64" height="85">
<path d="M31 120.917L56.2324 51.6954C56.2324 51.6954 63.8378 32.6376 81.8803 37.2882C99.9228 41.939 91.6222 60.4323 86.4418 64.6701C86.4418 64.6701 98.4561 75.5892 93.6657 92.5829C88.8752 109.576 70.8666 107.428 70.8666 107.428C70.8666 107.428 64.8297 106.83 64.8297 97.6548C64.8297 97.6548 79.269 105.414 85.7042 91.6139C92.1394 77.8135 73.7324 65.1335 73.7324 65.1335C73.7324 65.1335 85.4413 58.0816 84.3561 50.2883C83.2707 42.495 72.6387 42.495 67.5345 48.9067C62.4303 55.3182 53.7227 81.192 53.7227 81.192L42.2088 112.719C42.2088 112.719 39.8687 120.967 31 120.917Z" fill="white"/>
</mask>
<g mask="url(#mask1_312_17345)">
<path d="M31 120.201L31.6529 120.967H31V120.201Z" fill="#CCAC64"/>
<path d="M31 115.592L35.5615 120.968H31.6529L31 120.201V115.592Z" fill="#CCAC64"/>
<path d="M31 110.983L39.4702 120.967H35.5615L31 115.592V110.983Z" fill="#CCAC64"/>
<path d="M31 106.375L43.3703 120.967H39.4702L31 110.984V106.375Z" fill="#CCAC64"/>
<path d="M31 101.767L47.279 120.968H43.3703L31 106.375V101.767Z" fill="#CCAC64"/>
<path d="M31 97.1577L51.1876 120.967H47.279L31 101.766V97.1577Z" fill="#CCAC64"/>
<path d="M31 92.5493L55.0963 120.967H51.1876L31 97.1579V92.5493Z" fill="#CCAC64"/>
<path d="M31 87.9409L59.0049 120.968H55.0963L31 92.5495V87.9409Z" fill="#CCAC64"/>
<path d="M31 83.332L62.9051 120.967H59.0049L31 87.9406V83.332Z" fill="#CCAC64"/>
<path d="M31 78.7236L66.8137 120.968H62.9051L31 83.3322V78.7236Z" fill="#CCAC64"/>
<path d="M31 74.1147L70.7224 120.967H66.8137L31 78.7233V74.1147Z" fill="#CCAC64"/>
<path d="M31 69.5063L74.631 120.967H70.7224L31 74.1149V69.5063Z" fill="#CCAC64"/>
<path d="M31 64.8979L77.9207 120.235L77.0475 120.968H74.631L31 69.5065V64.8979Z" fill="#CCAC64"/>
<path d="M31 60.2979L80.2015 118.322L77.9207 120.235L31 64.898V60.2979Z" fill="#CCAC64"/>
<path d="M31 58.6466L32.4668 57.4165L82.4907 116.41L80.2015 118.322L31 60.2979V58.6466Z" fill="#CCAC64"/>
<path d="M34.7529 55.5063L32.4707 57.4173L82.495 116.407L84.7772 114.496L34.7529 55.5063Z" fill="#CCAC64"/>
<path d="M37.0371 53.5942L34.7549 55.5054L84.7792 114.495L87.0614 112.584L37.0371 53.5942Z" fill="#CCAC64"/>
<path d="M39.3281 51.6772L37.0459 53.5882L87.0703 112.578L89.3525 110.667L39.3281 51.6772Z" fill="#CCAC64"/>
<path d="M41.6123 49.7651L39.3301 51.6761L89.3543 110.666L91.6366 108.755L41.6123 49.7651Z" fill="#CCAC64"/>
<path d="M43.8887 47.8496L41.6064 49.7607L91.6307 108.75L93.9129 106.839L43.8887 47.8496Z" fill="#CCAC64"/>
<path d="M46.1728 45.938L43.8906 47.849L93.9149 106.839L96.1972 104.928L46.1728 45.938Z" fill="#CCAC64"/>
<path d="M48.4639 44.0205L46.1816 45.9316L96.206 104.921L98.4882 103.01L48.4639 44.0205Z" fill="#CCAC64"/>
<path d="M48.4658 44.0288L50.7467 42.1162L99.9227 100.107V101.817L98.4813 103.022L48.4658 44.0288Z" fill="#CCAC64"/>
<path d="M50.7471 42.1161L53.0363 40.2036L99.9232 95.4981V100.107L50.7471 42.1161Z" fill="#CCAC64"/>
<path d="M53.0352 40.2035L55.3159 38.291L99.922 90.8894V95.498L53.0352 40.2035Z" fill="#CCAC64"/>
<path d="M55.3164 38.2911L57.6057 36.3701L99.9225 86.2809V90.8894L55.3164 38.2911Z" fill="#CCAC64"/>
<path d="M57.6064 36.3701L59.8872 34.4575L99.9233 81.6723V86.2809L57.6064 36.3701Z" fill="#CCAC64"/>
<path d="M59.8877 34.4575L62.0667 32.6377H62.2532L99.9238 77.0637V81.6724L59.8877 34.4575Z" fill="#CCAC64"/>
<path d="M66.1616 32.6377L99.9235 72.4551V77.0637L62.2529 32.6377H66.1616Z" fill="#CCAC64"/>
<path d="M70.0688 32.6377L99.9221 67.8465V72.4551L66.1602 32.6377H70.0688Z" fill="#CCAC64"/>
<path d="M73.979 32.6377L99.9236 63.238V67.8465L70.0703 32.6377H73.979Z" fill="#CCAC64"/>
<path d="M77.8787 32.6377L99.9231 58.6294V63.238L73.9785 32.6377H77.8787Z" fill="#CCAC64"/>
<path d="M81.7866 32.6377L99.9224 54.0208V58.6294L77.8779 32.6377H81.7866Z" fill="#CCAC64"/>
<path d="M85.6958 32.6377L99.9229 49.4122V54.0208L81.7871 32.6377H85.6958Z" fill="#CCAC64"/>
<path d="M89.6049 32.6377L99.9235 44.8121V49.4122L85.6963 32.6377H89.6049Z" fill="#CCAC64"/>
<path d="M93.5122 32.6377L99.922 40.2035V44.8121L89.6035 32.6377H93.5122Z" fill="#CCAC64"/>
<path d="M97.4214 32.6377L99.9225 35.595V40.2035L93.5127 32.6377H97.4214Z" fill="#CCAC64"/>
</g>
<mask id="mask2_312_17345" style="mask-type:luminance" maskUnits="userSpaceOnUse" x="56" y="18" width="70" height="55">
<path d="M83.2628 24.4819C82.5844 23.2013 81.3889 23.1423 80.1426 23.2265C79.1929 23.2939 78.2434 23.4035 77.3022 23.513C76.3103 23.6394 75.3267 23.7994 74.3432 23.9342C74.0295 23.9764 73.7073 24.0185 73.3935 24.0185C71.435 24.0438 69.468 24.0691 67.5094 24.0606C64.474 24.0606 61.6676 23.1591 59.0731 21.6763C58.1491 21.1539 57.4283 20.2693 56.6568 19.5026C56.4956 19.3594 56.5211 19.0308 56.4023 18.5C57.3265 18.8623 58.0641 19.0982 58.751 19.4268C59.9295 19.9913 61.1843 20.2187 62.4222 20.5642C65.0846 21.2972 67.7553 21.0613 70.4176 20.977C72.622 20.9096 74.801 20.3367 76.997 20.0924C78.3026 19.9407 79.6338 19.966 80.9565 19.9407C82.135 19.9239 83.2797 19.9913 84.4413 20.4041C86.3913 21.0865 87.3917 22.6789 86.8153 24.5914C86.5525 25.4424 86.2217 26.2765 85.908 27.1527C86.9425 27.6245 87.6122 26.7398 88.3923 26.445C90.2322 25.7372 91.9534 24.7262 93.8016 24.0691C95.5822 23.4372 97.3967 23.6057 99.05 24.6504C99.2789 24.7936 99.5417 24.8947 99.7452 25.0717C100.712 25.9226 101.882 25.8889 102.95 25.5435C105.952 24.5746 108.919 23.4877 111.887 22.4093C112.98 22.0133 114.023 21.4488 115.134 21.1202C117.008 20.5642 118.619 21.2213 119.984 22.4851C121.773 24.1449 123.519 25.8468 125.3 27.515C125.732 27.9194 125.936 28.3743 125.859 28.9641C125.698 30.2194 125.52 31.4664 125.376 32.7217C125.266 33.7581 125.156 34.7943 125.122 35.8306C125.088 37.1281 124.766 37.5409 123.502 37.6337C120.704 37.8443 118.178 38.9227 115.702 40.1106C114.125 40.8689 112.599 41.7535 111.03 42.5456C110.216 42.9584 109.665 43.5903 109.36 44.4075C108.538 46.6233 107.308 48.5948 105.782 50.5242C106.045 50.7348 106.24 51.0213 106.503 51.1056C109.038 51.8806 111.115 53.4056 113.108 55.0485C115.032 56.6409 116.524 58.5956 117.508 60.8704C117.949 61.8898 118.135 63.0356 118.271 64.1477C118.551 66.4057 118.534 68.6637 117.796 70.8625C117.711 71.1153 117.72 71.4018 117.661 71.6629C117.618 71.8567 117.542 72.0505 117.389 72.5392C117.042 71.6714 116.728 71.09 116.567 70.4751C115.346 65.6811 112.217 62.4037 108.215 59.7076C106.096 58.2838 103.705 57.5171 101.466 56.4049C99.8214 55.5877 98.3377 54.5009 96.7861 53.2371C97.3882 52.8916 97.812 52.5967 98.2783 52.3946C100.178 51.5605 101.246 49.9681 102.204 48.2494C103.306 46.2863 104.078 44.1632 105.375 42.2843C106.13 41.1806 107.139 40.4644 108.207 39.8915C111.369 38.1981 114.642 36.6985 117.83 35.0303C119.009 34.4152 120.128 34.3057 121.383 34.8111C122.663 32.865 122.4 30.9356 121.476 29.0231C121.315 28.6861 120.916 28.4333 120.586 28.2058C119.297 27.3128 118.008 26.4197 116.872 25.3244C115.905 24.3976 114.897 24.2965 113.565 24.9453C111.522 25.9394 109.318 26.605 107.172 27.397C105.858 27.8857 104.544 28.3659 103.221 28.8377C102.416 29.1242 101.619 29.4528 100.788 29.6381C99.601 29.9077 98.6176 29.2084 97.5747 28.804C96.447 28.3659 95.3194 27.8098 94.1408 27.6245C93.2505 27.4897 92.2246 27.7172 91.3598 28.0373C89.8422 28.6102 88.4177 29.4359 86.917 30.0594C85.7131 30.5565 84.4667 30.9524 83.2119 31.2979C82.2198 31.5759 81.5246 30.9946 81.5331 29.9414C81.5416 28.9978 81.6008 28.0794 82.1097 27.2032C82.5929 26.3607 82.8558 25.3918 83.2288 24.4398L83.2628 24.4819Z" fill="white"/>
</mask>
<g mask="url(#mask2_312_17345)">
<path d="M56.4023 71.8232L57.0298 72.5645H56.4023V71.8232Z" fill="#CCAC64"/>
<path d="M56.4023 67.2144L60.9385 72.5644H57.0298L56.4023 71.8229V67.2144Z" fill="#CCAC64"/>
<path d="M56.4023 62.606L64.8471 72.5645H60.9385L56.4023 67.2145V62.606Z" fill="#CCAC64"/>
<path d="M56.4023 57.9971L68.7558 72.5642H64.8471L56.4023 62.6056V57.9971Z" fill="#CCAC64"/>
<path d="M56.4023 53.3887L72.6559 72.5644H68.7558L56.4023 57.9973V53.3887Z" fill="#CCAC64"/>
<path d="M56.4023 48.7886L76.5646 72.5644H72.6559L56.4023 53.3887V48.7886Z" fill="#CCAC64"/>
<path d="M56.4023 44.1802L80.4732 72.5646H76.5646L56.4023 48.7888V44.1802Z" fill="#CCAC64"/>
<path d="M56.4023 39.5713L84.3819 72.5643H80.4732L56.4023 44.1799V39.5713Z" fill="#CCAC64"/>
<path d="M56.4023 34.9629L88.2906 72.5645H84.3819L56.4023 39.5715V34.9629Z" fill="#CCAC64"/>
<path d="M56.4023 30.354L92.1992 72.5642H88.2906L56.4023 34.9626V30.354Z" fill="#CCAC64"/>
<path d="M56.4023 25.7456L96.0994 72.5644H92.1992L56.4023 30.3542V25.7456Z" fill="#CCAC64"/>
<path d="M56.4023 21.1372L100.008 72.5645H96.0994L56.4023 25.7458V21.1372Z" fill="#CCAC64"/>
<path d="M58.0811 18.5L103.917 72.5644H100.008L56.4023 21.1371V18.5H58.0811Z" fill="#CCAC64"/>
<path d="M61.9812 18.5L107.825 72.5644H103.917L58.0811 18.5H61.9812Z" fill="#CCAC64"/>
<path d="M65.8901 18.5L111.734 72.5644H107.825L61.9814 18.5H65.8901Z" fill="#CCAC64"/>
<path d="M69.7983 18.5L115.634 72.5644H111.734L65.8896 18.5H69.7983Z" fill="#CCAC64"/>
<path d="M73.7075 18.5L119.39 72.3791L119.178 72.5644H115.634L69.7988 18.5H73.7075Z" fill="#CCAC64"/>
<path d="M77.6167 18.5L121.68 70.4666L119.391 72.3791L73.708 18.5H77.6167Z" fill="#CCAC64"/>
<path d="M81.5239 18.5L123.96 68.5542L121.679 70.4666L77.6152 18.5H81.5239Z" fill="#CCAC64"/>
<path d="M85.4246 18.5L125.944 66.2792V66.8943L123.96 68.5542L81.5244 18.5H85.4246Z" fill="#CCAC64"/>
<path d="M89.3335 18.5L125.944 61.6791V66.2794L85.4248 18.5H89.3335Z" fill="#CCAC64"/>
<path d="M93.2417 18.5L125.944 57.0705V61.6791L89.333 18.5H93.2417Z" fill="#CCAC64"/>
<path d="M97.1508 18.5L125.944 52.4619V57.0705L93.2422 18.5H97.1508Z" fill="#CCAC64"/>
<path d="M101.06 18.5L125.945 47.8534V52.4619L97.1514 18.5H101.06Z" fill="#CCAC64"/>
<path d="M104.967 18.5L125.943 43.2448V47.8534L101.059 18.5H104.967Z" fill="#CCAC64"/>
<path d="M108.868 18.5L125.944 38.6362V43.2448L104.968 18.5H108.868Z" fill="#CCAC64"/>
<path d="M112.777 18.5L125.944 34.0276V38.6362L108.868 18.5H112.777Z" fill="#CCAC64"/>
<path d="M116.685 18.5L125.944 29.4191V34.0276L112.776 18.5H116.685Z" fill="#CCAC64"/>
<path d="M120.594 18.5L125.944 24.8105V29.4191L116.686 18.5H120.594Z" fill="#CCAC64"/>
<path d="M124.503 18.5L125.945 20.2019V24.8105L120.595 18.5H124.503Z" fill="#CCAC64"/>
<path d="M125.943 20.2019L124.502 18.5H125.943V20.2019Z" fill="#CCAC64"/>
</g>
<mask id="mask3_312_17345" style="mask-type:luminance" maskUnits="userSpaceOnUse" x="91" y="34" width="11" height="7">
<path d="M91.9355 40.2116C92.0458 39.2004 92.1391 38.2063 92.2663 37.2206C92.4782 35.603 93.9111 34.2465 95.5306 34.1537C96.3954 34.1032 97.2941 34.0189 98.1249 34.1875C98.8287 34.3307 99.4817 34.7688 100.109 35.1479C100.516 35.4007 100.838 35.7883 101.177 36.1084C100.915 37.2627 99.8717 37.2627 99.1679 37.6082C97.2433 38.5517 95.2338 39.3269 93.2838 40.2199C92.792 40.4474 92.3849 40.6159 91.9355 40.2199V40.2116ZM98.2776 36.319C97.0144 34.9374 95.8782 35.6366 94.8099 36.1589C93.8348 36.6308 93.5551 37.3469 93.75 38.5602C95.2338 37.8272 96.6836 37.1026 98.2776 36.319Z" fill="white"/>
</mask>
<g mask="url(#mask3_312_17345)">
<path d="M93.5547 37.2964L94.623 38.5602H93.5547V37.2964Z" fill="#CCAC64"/>
<path d="M93.5547 35.3836L94.0889 34.937H95.4539L98.0484 37.9953L97.3701 38.5599H94.623L93.5547 37.2961V35.3836Z" fill="#CCAC64"/>
<path d="M98.2774 37.8015L98.0486 37.9953L95.4541 34.937H98.2774V37.8015Z" fill="#CCAC64"/>
<path d="M91.9355 40.0005L92.4529 40.6156H91.9355V40.0005Z" fill="#CCAC64"/>
<path d="M91.9355 35.3921L96.3615 40.6158H92.4529L91.9355 40.0007V35.3921Z" fill="#CCAC64"/>
<path d="M91.9355 34.406L92.402 34.0186H94.6827L99.6088 39.8319L98.6761 40.6154H96.3615L91.9355 35.3919V34.406Z" fill="#CCAC64"/>
<path d="M98.5837 34.0186L101.178 37.077V38.5176L99.6096 39.8319L94.6836 34.0186H98.5837Z" fill="#CCAC64"/>
<path d="M101.177 37.077L98.583 34.0186H101.177V37.077Z" fill="#CCAC64"/>
</g>
</g>
<defs>
<clipPath id="clip0_312_17345">
<rect width="300" height="107" fill="white" transform="translate(31 16.5)"/>
</clipPath>
</defs>
</svg>
