<svg width="362" height="140" viewBox="0 0 362 140" fill="none" xmlns="http://www.w3.org/2000/svg">
<rect width="362" height="140" fill="white"/>
<path d="M208.746 91.8186L212.174 91.6185C212.223 91.6159 212.271 91.595 212.307 91.5596L212.485 91.3801C212.516 91.349 212.557 91.3296 212.601 91.3252C213.885 91.2129 214.68 91.1466 214.986 91.1265C215.215 91.1119 215.407 91.0251 215.562 90.8661C215.594 90.8335 215.637 90.8139 215.684 90.8113C215.935 90.7967 216.734 90.7163 218.08 90.5701C218.143 90.5637 218.235 90.4961 218.354 90.3672C218.38 90.338 218.416 90.3191 218.455 90.3138L220.588 90.0493C220.625 90.0439 220.661 90.0288 220.69 90.0054C220.837 89.8894 221.07 89.8058 221.389 89.7546C222.302 89.6066 222.808 89.5413 222.908 89.5586C222.931 89.5603 222.955 89.5564 222.976 89.5473C222.998 89.5383 223.017 89.5243 223.031 89.5065L223.178 89.3311C223.202 89.3005 223.238 89.2807 223.278 89.2763L224.691 89.0995C224.719 89.096 224.746 89.0868 224.77 89.0724C224.795 89.058 224.816 89.0387 224.832 89.0159L224.939 88.861C224.954 88.8388 224.975 88.8203 224.998 88.807C225.022 88.7937 225.048 88.7859 225.075 88.7843C225.486 88.7568 225.746 88.7692 226.059 88.6828C226.263 88.6262 226.536 88.5851 226.878 88.5595C226.974 88.5522 227.102 88.4658 227.261 88.3005C227.297 88.2623 227.346 88.2377 227.399 88.2306C227.981 88.1511 228.493 88.0821 228.936 88.0236C228.995 88.0154 229.142 87.9222 229.377 87.744C229.399 87.7278 229.425 87.7166 229.452 87.7111L230.535 87.5083C230.583 87.4994 230.627 87.4759 230.661 87.4411L230.845 87.2575C230.87 87.2326 230.902 87.2163 230.938 87.2109L232.251 87.0039C232.283 86.9985 232.314 86.9859 232.34 86.9669L232.713 86.7038C232.748 86.6785 232.788 86.6616 232.831 86.6544L233.584 86.5242C233.631 86.5162 233.674 86.4925 233.705 86.4571C233.785 86.3685 233.856 86.3136 233.917 86.2926C234.097 86.2287 234.478 86.1281 235.063 85.9911C235.126 85.9766 235.185 85.9496 235.237 85.9116C235.539 85.6896 235.921 85.5557 236.383 85.51C236.418 85.5066 236.451 85.4905 236.476 85.4648L236.667 85.2743C236.702 85.2389 236.749 85.2171 236.798 85.2126C237.391 85.1514 237.918 84.9764 238.377 84.6877C238.469 84.6292 238.747 84.5507 239.21 84.452C239.239 84.4457 239.266 84.432 239.287 84.4122L239.526 84.1984C239.561 84.167 239.603 84.1448 239.649 84.134L240.624 83.9024C240.653 83.8951 240.68 83.8841 240.706 83.8695L241.993 83.1376C242.015 83.1258 242.038 83.1166 242.063 83.1102L242.745 82.9348C242.785 82.9249 242.823 82.9041 242.853 82.8745C243.076 82.6616 243.402 82.515 243.829 82.4346C243.923 82.4165 244.012 82.3786 244.09 82.3235C244.449 82.0645 244.772 81.9878 245.081 81.7438C245.182 81.6625 245.35 81.5839 245.585 81.5081C245.888 81.4108 246.066 81.2216 246.354 81.1202C246.779 80.9685 247.205 80.7666 247.632 80.5144C248.423 80.0484 249.426 79.5372 250.175 79.1083C256.637 75.4037 262.608 70.8658 267.816 65.5756C268.404 64.9789 268.796 64.5906 268.992 64.4106C269.645 63.813 270.118 63.1826 270.77 62.4932C271.389 61.8381 271.88 61.2789 272.242 60.8157C272.569 60.3977 272.979 60.0536 273.299 59.5822C273.597 59.1409 274.152 58.5762 274.351 58.3364C274.902 57.673 275.327 57.0289 275.842 56.4162C276.11 56.0983 276.43 55.6775 276.802 55.154C277.377 54.3435 277.683 53.9123 277.72 53.8602C279.701 51.0597 281.384 48.4794 282.769 46.1194C282.849 45.9823 283.602 44.657 285.028 42.1434C285.483 41.3421 285.976 40.407 286.506 39.338C287.066 38.2132 287.533 37.2652 287.908 36.4941C289.041 34.1669 290.048 31.8411 291.077 29.5921C291.673 28.2914 292.375 27.2717 293.519 26.4384C294.081 26.03 294.478 25.7673 294.71 25.6504C295.172 25.4183 295.518 25.2411 295.749 25.1186C296.044 24.9624 296.361 24.8897 296.626 24.8335C296.709 24.8163 296.787 24.7833 296.855 24.7362C297.258 24.4621 297.722 24.3411 298.246 24.373C298.271 24.3743 298.296 24.3703 298.319 24.3614C298.342 24.3524 298.363 24.3386 298.381 24.321L298.521 24.1812C298.575 24.127 298.645 24.0923 298.721 24.0825C299.81 23.9354 300.534 23.8595 300.894 23.855C301.24 23.8513 301.484 23.7677 301.628 23.6042C301.644 23.586 301.663 23.5711 301.685 23.5605C301.707 23.55 301.731 23.5438 301.755 23.5425C303.069 23.4589 304.115 23.3725 305.497 23.3712C306.19 23.3712 306.963 23.3698 307.816 23.3671C318.139 23.3333 325.346 23.3259 329.434 23.3451C329.689 23.3461 329.919 23.3689 330.122 23.4137C330.145 23.4188 330.167 23.4287 330.185 23.4426C330.204 23.4565 330.219 23.4742 330.231 23.4945C330.34 23.6878 330.392 23.8043 330.575 23.9345C330.731 24.0469 330.837 24.1825 330.894 24.3415C331.082 24.8724 331.02 25.3543 330.706 25.7874C330.671 25.8364 330.645 25.8912 330.63 25.9492L330.424 26.729C330.403 26.8093 330.377 26.8885 330.347 26.9661C330.255 27.2073 330.028 27.6089 329.931 27.9693C329.699 28.8232 329.254 29.7305 328.996 30.6131C328.841 31.1394 328.553 31.6205 328.454 32.192C328.436 32.2948 328.404 32.3948 328.36 32.4894C328.186 32.8594 328.053 33.2601 327.96 33.6913C327.941 33.778 327.915 33.8628 327.883 33.9449C327.76 34.256 327.535 34.637 327.431 35.0975C327.348 35.4648 327.225 35.7732 327.063 36.0226C327.024 36.0841 326.997 36.1531 326.985 36.2255L326.893 36.7833C326.881 36.8579 326.859 36.9306 326.829 36.9998C326.352 38.0926 326.094 38.7281 326.053 38.9062C325.938 39.4161 325.778 39.8738 325.574 40.2795C325.535 40.3585 325.509 40.4437 325.497 40.5317C325.463 40.8031 325.306 41.2302 325.027 41.8132C324.987 41.8945 324.929 42.1119 324.85 42.4655C324.821 42.5975 324.776 42.7255 324.716 42.8465C324.504 43.2796 324.363 43.6954 324.292 44.0937C324.273 44.2041 324.232 44.3099 324.172 44.4048C324.036 44.6196 323.944 44.8265 323.893 45.0257C323.762 45.5451 323.515 45.9261 323.401 46.4401C323.275 47.002 322.965 47.394 322.842 47.9532C322.772 48.273 322.669 48.574 322.534 48.8563C322.354 49.2319 322.338 49.6759 322.142 50.0748C322.008 50.3452 321.905 50.6362 321.831 50.9478C321.684 51.5618 321.344 51.999 321.282 52.6212C321.274 52.7062 321.25 52.7882 321.21 52.8624C320.978 53.2974 320.824 53.6971 320.748 54.0617C320.615 54.6921 320.26 55.1923 320.165 55.8338C320.163 55.8556 320.157 55.8768 320.149 55.8968L319.394 57.7772C319.392 57.7836 319.39 57.7895 319.388 57.795C319.289 58.1824 319.215 58.4291 319.166 58.5351C318.931 59.0532 318.796 59.4488 318.763 59.722C318.752 59.8146 318.725 59.9048 318.685 59.9892C318.474 60.4369 318.356 60.7138 318.332 60.8198C318.278 61.0564 318.155 61.4489 317.964 61.9971C317.745 62.623 317.635 62.9373 317.634 62.94C317.306 63.872 317.135 64.3544 317.12 64.3873C316.946 64.7884 316.822 65.1233 316.749 65.3919C316.614 65.8798 316.364 66.2553 316.265 66.7309C316.15 67.2805 315.773 67.8671 315.666 68.4866C315.647 68.5939 315.614 68.6985 315.567 68.7977C315.292 69.3843 315.208 70.0874 314.918 70.6178C314.676 71.0604 314.718 71.5264 314.463 71.9924C314.306 72.2802 314.177 72.6649 314.075 73.1464C314.051 73.2585 314.017 73.3682 313.972 73.474C313.604 74.3392 313.351 75.0071 313.214 75.4777C313.11 75.8359 313.001 76.1196 312.887 76.3288C312.693 76.6797 312.685 77.1004 312.504 77.4896C312.23 78.0803 312.164 78.6916 311.87 79.3125C311.648 79.7826 311.675 80.3938 311.272 80.8392C311.239 80.8747 311.219 80.9201 311.216 80.9681C311.183 81.4176 311.073 81.8205 310.886 82.1769C310.714 82.5049 310.618 82.7274 310.599 82.8443C310.55 83.1376 310.354 83.4282 310.269 83.7599C310.13 84.3017 309.964 84.7448 309.771 85.0893C309.754 85.1202 309.742 85.153 309.734 85.1866L309.552 85.9842C309.547 86.0051 309.54 86.025 309.529 86.0432C309.287 86.4388 309.132 86.8591 309.064 87.3041C309.045 87.4284 309.006 87.5492 308.949 87.6618C308.756 88.0382 308.613 88.4348 308.52 88.8514C308.423 89.2804 308.149 89.6285 308.151 90.0589C308.151 90.1318 308.134 90.2036 308.102 90.2685C308.077 90.3151 307.98 90.5098 307.81 90.8524C307.588 91.3006 307.535 91.7117 307.326 92.1572C307.283 92.2467 307.2 92.4824 307.077 92.8643C306.838 93.5999 306.716 93.9809 306.71 94.0074C306.568 94.5844 306.237 95.1285 306.063 95.7562C305.908 96.314 305.62 96.8321 305.513 97.4488C305.501 97.5198 305.48 97.5889 305.451 97.6544C304.984 98.7243 304.659 99.5339 304.478 100.083C304.411 100.288 304.328 100.482 304.232 100.665C304.03 101.049 304.069 101.411 304.014 101.876C303.857 103.196 303.865 104.521 304.038 105.852C304.104 106.356 304.328 106.74 304.421 107.184C304.537 107.744 304.735 108.116 304.97 108.693C305.357 109.637 305.662 110.278 305.886 110.616C306.043 110.851 306.439 111.437 307.074 112.371C307.242 112.618 307.688 113.12 308.412 113.879C308.657 114.135 309.138 114.796 309.146 115.225C309.153 115.631 309.051 116.009 308.842 116.357C308.807 116.415 308.751 116.458 308.686 116.479C308.05 116.673 307.827 116.742 307.26 116.557C307.208 116.539 307.161 116.507 307.126 116.465C306.796 116.067 306.401 115.745 305.939 115.5C305.756 115.403 305.546 115.286 305.31 115.148C304.823 114.862 304.564 114.706 304.533 114.679C304.249 114.442 303.929 114.454 303.675 114.152C303.635 114.103 303.581 114.068 303.522 114.052C303.073 113.919 302.809 113.826 302.728 113.772C302.463 113.596 302.188 113.471 301.902 113.398C301.65 113.335 301.454 113.251 301.316 113.146C300.945 112.862 300.489 112.898 300.142 112.592C300.097 112.551 300.043 112.524 299.984 112.511L298.925 112.268C298.904 112.264 298.884 112.255 298.867 112.242L298.579 112.024C298.542 111.996 298.497 111.978 298.451 111.974C297.911 111.921 297.46 111.786 297.098 111.568C297.016 111.519 296.927 111.485 296.833 111.468C296.422 111.394 295.851 111.299 295.293 111.053C294.826 110.847 293.831 110.757 293.456 110.722C293.356 110.714 293.259 110.678 293.177 110.62L293.01 110.503C292.93 110.448 292.839 110.414 292.742 110.403C291.836 110.307 291.328 110.25 291.217 110.232C290.947 110.188 290.707 110.211 290.496 110.021C290.447 109.976 290.38 109.949 290.297 109.94C289.037 109.807 287.929 109.721 286.971 109.684C286.917 109.682 286.866 109.66 286.828 109.622L286.726 109.519C286.693 109.486 286.649 109.466 286.602 109.463L282.1 109.166C282.06 109.163 282.022 109.146 281.993 109.118L281.864 108.989C281.829 108.953 281.782 108.932 281.731 108.93L276.807 108.657C276.758 108.654 276.712 108.636 276.676 108.604C276.543 108.491 276.438 108.432 276.362 108.427C275.107 108.343 273.249 108.25 270.788 108.149C270.734 108.146 270.681 108.131 270.634 108.105C270.387 107.963 270.069 107.883 269.682 107.864C267.906 107.776 266.29 107.7 264.833 107.637C264.776 107.635 264.721 107.614 264.676 107.577C264.554 107.477 264.452 107.425 264.369 107.419C263.069 107.338 260.687 107.23 257.222 107.095C257.157 107.092 257.094 107.071 257.04 107.033L256.853 106.903C256.824 106.882 256.789 106.87 256.752 106.869L251.018 106.603C250.96 106.6 250.904 106.576 250.863 106.534L250.767 106.438C250.732 106.403 250.685 106.382 250.635 106.381C246.331 106.21 244.136 106.123 244.05 106.12C243.826 106.112 243.655 106.081 243.536 106.028C243.356 105.948 243.224 105.905 243.14 105.9C242.884 105.883 242.742 105.874 242.714 105.872C239.968 105.743 237.762 105.655 236.095 105.608C236.011 105.605 235.93 105.57 235.87 105.51L235.795 105.436C235.75 105.391 235.689 105.364 235.625 105.361L228.211 105.087C228.144 105.085 228.08 105.064 228.026 105.025L227.875 104.921C227.831 104.89 227.779 104.872 227.724 104.869C224.707 104.73 222.213 104.633 220.241 104.577C219.971 104.57 219.732 104.423 219.482 104.384C219.314 104.356 219.166 104.339 219.038 104.333C216.691 104.217 214.4 104.13 212.164 104.073C212.073 104.07 211.986 104.032 211.92 103.967L211.89 103.937C211.835 103.882 211.761 103.85 211.683 103.846C208.107 103.695 205.564 103.603 204.055 103.57C203.869 103.565 203.709 103.534 203.572 103.476C203.384 103.397 203.249 103.354 203.167 103.349C202.999 103.336 202.83 103.327 202.66 103.32C200.87 103.25 199.231 103.182 197.743 103.116C196.892 103.079 196.126 103.098 195.322 103.035C195.274 103.032 195.228 103.017 195.186 102.993L194.971 102.871C194.945 102.855 194.916 102.846 194.886 102.843C194.515 102.807 194.202 102.784 193.947 102.775C191.116 102.673 188.914 102.599 187.344 102.551C186.97 102.54 186.638 102.489 186.347 102.396C186.303 102.382 186.257 102.372 186.21 102.368C185.525 102.305 185.092 102.269 184.912 102.262C182.718 102.181 180.514 102.103 178.302 102.028C177.952 102.016 177.654 101.964 177.407 101.872C177.367 101.856 177.325 101.846 177.283 101.843C176.769 101.803 176.467 101.781 176.375 101.777C172.971 101.634 170.505 101.554 168.979 101.537C168.756 101.535 168.579 101.503 168.448 101.44C168.265 101.353 168.13 101.307 168.041 101.301C167.685 101.279 167.449 101.267 167.333 101.263C163.949 101.151 161.196 101.062 159.074 100.998C158.956 100.995 158.859 100.97 158.783 100.924C158.524 100.764 158.22 100.787 157.909 100.774C154.773 100.639 151.93 100.549 149.38 100.501C149.137 100.497 149.004 100.345 148.802 100.309C148.675 100.287 148.524 100.273 148.351 100.267C144.389 100.123 141.211 100.03 138.816 99.9857C138.779 99.9848 138.743 99.9744 138.713 99.9555C138.488 99.8139 138.207 99.739 137.869 99.7308C134.621 99.6503 131.869 99.5722 129.61 99.4964C129.002 99.4763 128.293 99.4215 127.483 99.3319C126.688 99.2433 125.98 99.194 125.358 99.1839C123.569 99.1538 121.291 99.0948 118.524 99.0071C117.57 98.977 116.855 98.9144 116.38 98.8194C115.349 98.6124 113.873 98.7124 112.732 98.6741C110.291 98.5937 108.213 98.5416 106.497 98.5178C105.323 98.5014 104.447 98.3821 103.145 98.2533C102.653 98.204 102.205 98.1811 101.799 98.1848C101.586 98.1857 97.9298 98.1103 90.8305 97.9586C90.0808 97.9422 89.401 97.9751 88.6787 97.7736C88.6059 97.7536 88.5314 97.7421 88.4567 97.7394C84.5872 97.6151 80.5007 97.5228 76.1972 97.4625C75.0172 97.4461 74.0975 97.368 72.997 97.2542C72.6644 97.2204 72.2368 97.1985 71.7142 97.1884C66.3161 97.0852 61.4018 96.9993 56.9713 96.9307C56.5291 96.9234 55.7214 96.8755 54.5482 96.7868C53.6582 96.7192 52.851 96.6799 52.1264 96.669C44.3482 96.552 39.316 96.4867 37.0299 96.473C36.6188 96.4702 36.3214 96.404 36.1377 96.2743C36.092 96.2429 36.0384 96.2249 35.9829 96.2222C35.9819 96.2222 34.8238 96.1875 32.5085 96.118C31.9 96.1002 31.3217 95.8823 31.0887 95.3094C30.9562 94.9841 30.9722 94.6808 31.1366 94.3994C31.4354 93.8886 31.8923 93.6341 32.5072 93.636C34.6096 93.6424 36.8267 93.6552 39.1584 93.6743C39.7761 93.6789 40.1415 93.6817 40.2548 93.6826C56.525 93.7155 88.3658 93.7196 135.777 93.6949C136.424 93.6949 136.89 93.6689 137.378 93.6702C153.478 93.6885 167.566 93.6986 179.64 93.7004C182.026 93.7004 184.129 93.651 186.612 93.6538C186.817 93.6547 187.052 93.6428 187.319 93.6181C187.984 93.5578 188.277 93.5825 188.983 93.4427C189.197 93.4007 189.518 93.3769 189.948 93.3715C192.216 93.3431 195.106 93.2435 198.618 93.0727C198.715 93.0672 198.837 93.0201 198.985 92.9315C199.037 92.9 199.096 92.8817 199.156 92.8781C201.37 92.7474 202.995 92.6647 204.031 92.63C204.092 92.6272 204.19 92.5537 204.325 92.4093C204.35 92.382 204.385 92.3654 204.422 92.3627L208.49 92.1256C208.508 92.1244 208.525 92.1183 208.539 92.1079C208.554 92.0975 208.565 92.0832 208.572 92.0667L208.641 91.8954C208.649 91.874 208.664 91.8555 208.682 91.8419C208.701 91.8283 208.723 91.8203 208.746 91.8186ZM279.293 65.1699C279.54 65.2941 279.728 65.4668 279.857 65.6879C277.483 67.7565 275.719 69.2367 274.565 70.1285C269.195 74.2766 263.48 77.8474 257.421 80.8406C249.666 84.6713 241.554 87.5946 233.186 89.8026C231.734 90.1854 230.069 90.5856 228.193 91.0032C226.808 91.3111 225.438 91.6057 224.082 91.8872C224.072 91.8895 224.062 91.8958 224.056 91.9047C224.049 91.9136 224.047 91.9245 224.048 91.9351V91.9379C224.05 91.9485 224.055 91.9583 224.064 91.9649C224.072 91.9716 224.083 91.9747 224.093 91.9735C224.356 91.9488 224.521 91.9315 224.588 91.9214C229.754 91.1119 234.981 90.0712 240.27 88.7993C248.083 86.919 255.603 84.4803 262.829 81.4834C271.765 77.7775 280.146 73.0546 287.773 67.2024L289.178 66.4335C289.194 66.4243 289.212 66.4208 289.231 66.4238C289.249 66.4267 289.266 66.4359 289.278 66.4497C289.29 66.4635 289.298 66.4811 289.299 66.4996C289.3 66.5182 289.294 66.5364 289.283 66.5514L288.781 67.2654C287.765 68.096 286.722 68.8973 285.654 69.6693C280.379 73.4822 274.713 76.7948 268.826 79.5975C264.247 81.7785 259.538 83.6918 254.699 85.3374C247.568 87.7623 240.637 89.6239 233.906 90.9223C232.715 91.1512 231.958 91.3252 230.805 91.5336C230.047 91.6706 229.294 91.8314 228.548 92.016V92.0174C229.268 91.9525 229.946 91.8744 230.582 91.783C236.575 90.915 242.501 89.8277 248.357 88.5211C257.758 86.4242 267.034 83.6447 275.964 80.0197C279.99 78.386 283.983 76.5202 287.944 74.4224C292.838 71.8302 297.506 68.8886 301.948 65.5975C302.346 65.4613 302.637 65.5385 302.823 65.8291C301.834 66.529 300.849 67.2339 299.868 67.9438C298.068 69.244 296.363 70.3852 294.754 71.3675C289.217 74.7445 283.461 77.6788 277.484 80.1704C272.335 82.3167 267.097 84.182 261.771 85.7663C254.084 88.0533 246.163 89.898 238.009 91.3006C230.522 92.5889 223.073 93.5336 215.662 94.1348C211.735 94.4528 208.907 94.6479 207.178 94.7201C203.973 94.8553 201.804 94.9389 200.672 94.9709C199.23 95.0111 197.791 95.0527 196.355 95.0956C194.382 95.155 192.227 95.1463 189.888 95.0696C187.834 95.0029 186.274 94.97 185.21 94.9709C132.309 94.991 92.9548 94.9942 67.1475 94.9805C63.5732 94.9786 59.9645 94.9846 56.3217 94.9983C55.9434 95.001 55.4089 95.0408 54.9497 95.0216C54.5669 95.0061 54.2234 94.9978 53.9191 94.9969C49.9555 94.9942 46.2989 95.0325 42.3641 94.9983C37.9747 94.9599 35.5694 94.9499 35.1482 94.9681C35.1345 94.969 35.1254 94.9764 35.1208 94.9901C35.1203 94.9916 35.1202 94.9932 35.1204 94.9947C35.1206 94.9963 35.1211 94.9977 35.1219 94.999C35.1227 95.0002 35.1238 95.0012 35.125 95.0017C35.1263 95.0023 35.1276 95.0026 35.129 95.0024C36.9071 95.0499 38.0661 95.0764 38.6061 95.0819C38.7002 95.0828 39.2027 95.1047 40.1137 95.1477C40.7953 95.1796 43.5364 95.245 48.3369 95.3437C48.7554 95.3519 50.5901 95.3875 53.841 95.4506C55.8008 95.4889 57.636 95.5333 59.3464 95.5835C71.7781 95.9499 80.3175 96.2048 84.9645 96.3483C85.9842 96.3798 87.1341 96.4661 88.1168 96.4894C90.5618 96.5461 92.5381 96.6073 94.0457 96.6731C96.5552 96.7841 98.1738 96.7923 100.272 96.8979C101.124 96.9417 102.681 97.007 104.943 97.0938C118.857 97.6283 133.066 98.2629 146.365 98.9317C156.69 99.4498 164.89 99.887 170.964 100.243C172.318 100.323 173.691 100.402 175.084 100.48C178.775 100.689 181.724 100.848 183.933 100.959C184.501 100.988 185.061 101.025 185.614 101.07C187.038 101.188 188.036 101.199 189.822 101.33C191.163 101.429 192.275 101.456 194.147 101.571C208.546 102.454 220.725 103.189 234.104 104.079C241.768 104.589 247.892 105.008 252.477 105.335C256.703 105.636 261.326 105.982 266.344 106.371C272.786 106.872 278.245 107.366 282.721 107.854C284.4 108.038 285.494 108.152 286.002 108.198C291.943 108.732 297.924 110.081 303.35 112.648C304.526 113.205 305.581 113.782 306.515 114.382C306.972 114.676 307.403 114.991 307.809 115.326C307.822 115.337 307.839 115.342 307.857 115.341C307.874 115.34 307.89 115.332 307.902 115.319L307.905 115.318C307.916 115.306 307.922 115.291 307.922 115.275C307.922 115.26 307.916 115.244 307.905 115.233C305.95 113.154 304.447 111.001 303.467 108.346C302.542 105.838 302.347 103.215 303.01 100.607C303.2 99.8623 303.644 98.9537 303.872 98.3027C307.754 87.2625 311.514 76.5856 315.153 66.2718C315.848 64.301 316.673 62.0875 317.291 60.3332C321.777 47.5955 325.938 35.7695 329.774 24.8555C329.783 24.8317 329.785 24.8062 329.782 24.7812C329.778 24.7562 329.769 24.7325 329.754 24.7119C329.739 24.6914 329.72 24.6747 329.697 24.6631C329.675 24.6516 329.65 24.6457 329.625 24.6458C324.008 24.6732 316.443 24.6768 306.929 24.6567C304.282 24.6513 301.861 24.8399 299.665 25.2228C297.299 25.6353 294.594 26.5522 293.043 28.534C292.629 29.063 292.262 29.7053 291.943 30.461C289.411 36.4694 286.462 42.2567 283.094 47.823C281.065 51.1762 278.877 54.3769 276.529 57.425C274.042 60.6539 271.62 63.475 269.262 65.888C261.9 73.4269 253.359 79.4116 243.639 83.8421C238.705 86.0916 233.562 87.9482 228.212 89.412C222.396 91.0036 216.587 92.1891 210.783 92.9685C207.977 93.345 206.342 93.5537 205.879 93.5949C204.936 93.6798 204.23 93.7401 203.349 93.8621C202.775 93.9416 202.047 93.9873 201.166 93.9992C201.161 93.9992 201.156 94.001 201.153 94.0043C201.149 94.0076 201.147 94.0121 201.146 94.017L201.144 94.054C201.144 94.0562 201.144 94.0584 201.145 94.0605C201.145 94.0626 201.147 94.0645 201.148 94.0661C201.15 94.0677 201.152 94.0689 201.154 94.0696C201.156 94.0704 201.158 94.0706 201.16 94.0704C202.1 94.0668 202.89 94.0202 203.529 93.9306C203.993 93.8658 204.581 93.8228 205.292 93.8018C205.373 93.7991 205.961 93.7442 207.056 93.6373C229.402 91.4554 251.799 85.3387 270.404 72.3049C272.281 70.9901 274.26 69.4779 276.341 67.7684C277.285 66.9927 278.311 66.0347 279.293 65.1699ZM34.8511 94.9688C34.8504 94.9779 34.8617 94.9875 34.8825 94.9956C34.9032 95.0036 34.9318 95.0095 34.9619 95.0119C34.9919 95.0142 35.0211 95.0129 35.0428 95.0082C35.0646 95.0035 35.0772 94.9957 35.0779 94.9866C35.0787 94.9776 35.0674 94.968 35.0466 94.9599C35.0259 94.9518 34.9973 94.9459 34.9672 94.9436C34.9372 94.9412 34.908 94.9425 34.8863 94.9473C34.8645 94.952 34.8519 94.9597 34.8511 94.9688Z" fill="#EEB62D"/>
<path d="M302.823 65.8291C303.536 65.3055 304.237 64.7651 304.927 64.2077C305.375 63.8459 305.791 63.4073 306.183 63.1017C306.22 63.0725 306.343 62.9596 306.55 62.7632C306.693 62.627 306.852 62.5092 307.026 62.4096C307.098 62.368 307.16 62.3115 307.208 62.2437C307.386 61.9984 307.501 62.0108 307.546 61.6051C307.549 61.5808 307.542 61.5566 307.528 61.5373C307.513 61.5179 307.492 61.5049 307.468 61.5009C307.292 61.4717 307.158 61.4986 307.065 61.5818C306.821 61.8011 306.639 61.9386 306.518 61.9943C306.48 62.0115 306.446 62.0362 306.418 62.0669C306.287 62.215 306.14 62.3438 305.978 62.4534C305.83 62.5539 305.675 62.6695 305.514 62.8002C304.678 63.4745 303.97 64.0241 303.39 64.4489C302.895 64.8098 302.415 65.1927 301.949 65.5975C297.507 68.8886 292.839 71.8302 287.945 74.4224C283.984 76.5202 279.991 78.386 275.965 80.0196C267.035 83.6447 257.759 86.4242 248.358 88.5211C242.502 89.8277 236.576 90.915 230.582 91.783C229.946 91.8743 229.268 91.9525 228.549 92.0173V92.016C229.295 91.8314 230.047 91.6706 230.806 91.5335C231.958 91.3252 232.716 91.1512 233.907 90.9223C240.638 89.6239 247.568 87.7623 254.7 85.3373C259.539 83.6918 264.248 81.7785 268.827 79.5975C274.714 76.7948 280.38 73.4822 285.655 69.6693C286.723 68.8973 287.765 68.096 288.782 67.2654C290.033 66.338 291.242 65.3599 292.407 64.3311C292.968 63.8363 293.404 63.3415 293.872 62.8934C293.883 62.8827 293.89 62.8686 293.892 62.8534C293.894 62.8383 293.891 62.823 293.883 62.81C293.875 62.7971 293.863 62.7873 293.849 62.7823C293.835 62.7773 293.82 62.7773 293.805 62.7824L292.49 63.2401C292.479 63.2437 292.469 63.2498 292.459 63.2579L287.774 67.2024C280.147 73.0546 271.766 77.7774 262.83 81.4834C255.603 84.4803 248.084 86.9189 240.271 88.7993C234.982 90.0712 229.755 91.1119 224.589 91.9214C224.521 91.9314 224.356 91.9488 224.094 91.9735C224.084 91.9746 224.073 91.9716 224.064 91.9649C224.056 91.9582 224.05 91.9485 224.049 91.9378V91.9351C224.047 91.9244 224.05 91.9136 224.056 91.9047C224.063 91.8958 224.072 91.8895 224.083 91.8871C225.439 91.6057 226.809 91.3111 228.194 91.0031C230.07 90.5856 231.735 90.1854 233.186 89.8025C241.555 87.5946 249.667 84.6712 257.422 80.8406C263.481 77.8473 269.196 74.2766 274.566 70.1285C275.72 69.2367 277.484 67.7565 279.857 65.6879C280.55 65.0575 281.234 64.4202 281.91 63.776C282.443 63.268 282.833 62.8523 283.08 62.5288C283.417 62.0857 283.75 61.6243 284.08 61.1446C284.084 61.1393 284.086 61.1328 284.086 61.1262C284.086 61.1196 284.083 61.1133 284.079 61.1083C284.074 61.1033 284.068 61.1 284.062 61.0989C284.055 61.0977 284.049 61.0989 284.043 61.1021L283.277 61.4941C283.251 61.5075 283.229 61.5279 283.214 61.553C283.173 61.6243 283.128 61.6777 283.08 61.7134C282.671 62.0158 282.289 62.3411 281.934 62.6892C281.072 63.5334 280.153 64.316 279.294 65.1698C278.311 66.0347 277.286 66.9927 276.342 67.7684C274.261 69.4779 272.281 70.9901 270.405 72.3049C251.8 85.3387 229.402 91.4554 207.057 93.6373C205.962 93.7442 205.374 93.799 205.293 93.8018C204.581 93.8228 203.993 93.8657 203.529 93.9306C202.891 94.0201 202.101 94.0667 201.161 94.0704C201.159 94.0706 201.157 94.0703 201.154 94.0696C201.152 94.0688 201.15 94.0676 201.149 94.0661C201.147 94.0645 201.146 94.0626 201.145 94.0605C201.145 94.0584 201.144 94.0562 201.145 94.054L201.147 94.0169C201.148 94.0121 201.15 94.0076 201.153 94.0043C201.157 94.0009 201.162 93.9991 201.167 93.9991C202.048 93.9873 202.776 93.9416 203.35 93.8621C204.231 93.7401 204.937 93.6798 205.88 93.5948C206.343 93.5537 207.978 93.3449 210.784 92.9685C216.587 92.1891 222.397 91.0036 228.213 89.4119C233.563 87.9482 238.706 86.0916 243.64 83.8421C253.359 79.4116 261.901 73.4269 269.263 65.888C271.62 63.4749 274.043 60.6539 276.53 57.4249C278.878 54.3769 281.066 51.1762 283.095 47.8229C286.462 42.2567 289.412 36.4694 291.944 30.4609C292.263 29.7053 292.629 29.063 293.043 28.534C294.595 26.5522 297.3 25.6353 299.666 25.2227C301.861 24.8399 304.283 24.6512 306.93 24.6567C316.444 24.6768 324.009 24.6732 329.626 24.6458C329.651 24.6457 329.676 24.6516 329.698 24.6631C329.721 24.6746 329.74 24.6914 329.755 24.7119C329.769 24.7325 329.779 24.7562 329.782 24.7812C329.786 24.8062 329.783 24.8316 329.775 24.8554C325.939 35.7695 321.778 47.5954 317.292 60.3332C316.674 62.0875 315.849 64.3009 315.154 66.2718C311.515 76.5855 307.755 87.2625 303.873 98.3026C303.644 98.9536 303.2 99.8623 303.011 100.606C302.348 103.215 302.543 105.838 303.468 108.346C304.448 111.001 305.951 113.154 307.905 115.233C307.916 115.244 307.922 115.26 307.922 115.275C307.922 115.291 307.916 115.306 307.905 115.318L307.903 115.319C307.891 115.332 307.875 115.34 307.857 115.341C307.84 115.342 307.823 115.337 307.81 115.326C307.404 114.991 306.973 114.676 306.516 114.382C305.582 113.782 304.527 113.204 303.351 112.648C297.925 110.081 291.944 108.732 286.003 108.198C285.495 108.152 284.401 108.038 282.722 107.854C278.246 107.366 272.787 106.872 266.345 106.371C261.326 105.982 256.704 105.636 252.478 105.335C247.893 105.008 241.769 104.589 234.105 104.079C220.725 103.189 208.547 102.454 194.148 101.571C192.276 101.456 191.164 101.429 189.823 101.33C188.037 101.199 187.039 101.188 185.615 101.07C185.062 101.025 184.502 100.988 183.933 100.959C181.725 100.848 178.776 100.689 175.085 100.48C173.692 100.402 172.318 100.323 170.965 100.243C164.891 99.887 156.691 99.4498 146.366 98.9317C133.067 98.2629 118.857 97.6283 104.944 97.0938C102.681 97.007 101.124 96.9417 100.273 96.8978C98.1746 96.7923 96.556 96.7841 94.0466 96.673C92.539 96.6073 90.5626 96.5461 88.1176 96.4894C87.1349 96.4661 85.985 96.3798 84.9654 96.3482C80.3183 96.2048 71.7789 95.9499 59.3472 95.5835C57.6368 95.5332 55.8017 95.4889 53.8418 95.4505C50.5909 95.3875 48.7562 95.3519 48.3377 95.3436C43.5372 95.245 40.7961 95.1796 40.1145 95.1476C39.2035 95.1047 38.701 95.0828 38.6069 95.0819C38.0669 95.0764 36.9079 95.0499 35.1298 95.0024C35.1285 95.0025 35.1271 95.0023 35.1258 95.0017C35.1246 95.0011 35.1235 95.0002 35.1227 94.9989C35.1219 94.9977 35.1214 94.9963 35.1212 94.9947C35.121 94.9932 35.1211 94.9915 35.1216 94.99C35.1262 94.9763 35.1353 94.969 35.149 94.9681C35.5702 94.9498 37.9755 94.9599 42.3649 94.9983C46.2997 95.0325 49.9563 94.9941 53.9199 94.9969C54.2242 94.9978 54.5677 95.006 54.9506 95.0216C55.4097 95.0407 55.9442 95.001 56.3225 94.9983C59.9654 94.9846 63.574 94.9786 67.1484 94.9804C92.9556 94.9941 132.31 94.9909 185.211 94.9708C186.275 94.9699 187.834 95.0028 189.888 95.0695C192.227 95.1463 194.383 95.155 196.356 95.0956C197.791 95.0526 199.23 95.011 200.673 94.9708C201.805 94.9389 203.974 94.8553 207.179 94.72C208.908 94.6479 211.736 94.4528 215.663 94.1348C223.074 93.5336 230.523 92.5889 238.009 91.3005C246.164 89.898 254.085 88.0533 261.772 85.7663C267.098 84.182 272.335 82.3167 277.485 80.1704C283.461 77.6788 289.218 74.7444 294.755 71.3674C296.364 70.3852 298.069 69.244 299.869 67.9438C300.85 67.2339 301.835 66.529 302.823 65.8291ZM294.33 47.7558C294.33 47.7454 294.327 47.7353 294.321 47.7269C294.315 47.7186 294.306 47.7124 294.296 47.7092C293.456 47.4195 292.838 47.2482 292.442 47.1952C289.755 46.8361 287.472 47.5945 285.592 49.4703C284.617 50.4434 284.068 51.5535 283.626 52.872C283.154 54.2837 283.182 55.7913 283.687 57.1824C283.886 57.7315 284.029 58.0951 284.116 58.2733C285.071 60.2295 286.575 61.5809 288.626 62.3274C289.788 62.7495 290.69 62.7234 292.087 62.7029C292.523 62.6965 292.909 62.6481 293.246 62.5576C293.814 62.4041 294.185 62.2844 294.36 62.1985C295.222 61.7764 295.967 61.2437 296.594 60.6005C296.942 60.2441 297.442 59.4771 298.095 58.2993C298.432 57.6917 299.644 55.5889 301.73 51.9907C301.836 51.808 301.94 51.6431 302.041 51.496C302.066 51.4592 302.1 51.4295 302.14 51.4095C302.18 51.3896 302.225 51.3801 302.269 51.3818C302.314 51.3836 302.357 51.3966 302.395 51.4197C302.434 51.4428 302.465 51.4752 302.488 51.5138L308.762 62.3808C308.794 62.4358 308.839 62.4818 308.894 62.5146C308.949 62.5475 309.011 62.566 309.074 62.5686L309.501 62.585C309.524 62.5857 309.548 62.5801 309.568 62.5687C309.589 62.5574 309.606 62.5407 309.618 62.5205C309.631 62.5003 309.637 62.4772 309.637 62.4536C309.638 62.43 309.632 62.4068 309.62 62.3863C306.14 56.3459 304.035 52.6961 303.305 51.437C302.982 50.8792 302.552 50.5174 301.885 50.7394C301.464 50.8806 301.253 51.3274 300.971 51.8181C299.535 54.3079 298.138 56.7369 296.779 59.1052C295.749 60.8993 293.729 61.9587 291.676 62.0341C289.726 62.1053 288.03 61.5324 286.589 60.3154C284.771 58.779 283.852 56.4395 284.136 54.1206C284.51 51.0711 286.71 48.6754 289.728 47.986C291.309 47.6251 292.834 47.8184 294.303 48.5658C294.306 48.5672 294.309 48.5678 294.312 48.5676C294.316 48.5674 294.319 48.5663 294.322 48.5645C294.324 48.5627 294.327 48.5603 294.328 48.5574C294.33 48.5545 294.33 48.5512 294.33 48.548V47.7558ZM313.891 62.5768C313.9 62.577 313.909 62.5745 313.916 62.5698C313.924 62.565 313.93 62.5581 313.934 62.55C313.937 62.5418 313.939 62.5329 313.937 62.5242C313.935 62.5155 313.931 62.5076 313.925 62.5014C313.763 62.3306 313.611 62.1227 313.47 61.8778C311.117 57.7973 308.941 54.0141 306.941 50.5284C306.408 49.5992 306.057 49.0327 305.889 48.8289C303.754 46.24 299.825 46.6251 298.165 49.4881C296.594 52.1972 295.242 54.5555 294.108 56.5629C293.789 57.1257 293.545 57.4875 293.375 57.6483C292.498 58.472 291.263 58.6159 290.136 58.2336C288.1 57.5442 287.187 55.4938 287.972 53.5367C288.296 52.7318 288.906 52.126 289.802 51.7194C291.251 51.0601 293.361 51.5097 294.04 53.0913C294.107 53.2484 294.156 53.3485 294.185 53.3914C294.193 53.4037 294.205 53.4129 294.219 53.4177C294.233 53.4226 294.248 53.4228 294.262 53.4183C294.276 53.4139 294.288 53.405 294.297 53.393C294.306 53.381 294.311 53.3666 294.311 53.3517V52.1004C294.311 52.0797 294.307 52.0592 294.298 52.0403C294.29 52.0214 294.277 52.0045 294.262 51.9907C293.198 51.0533 291.98 50.4873 290.52 50.7518C288.86 51.0519 287.661 52.0757 287.145 53.7094C286.643 55.3006 287.192 57.0837 288.442 58.1486C289.631 59.1587 291.444 59.4835 292.868 58.8763C293.518 58.5995 294.061 58.0855 294.495 57.3345C296.425 53.9904 297.664 51.835 298.21 50.8683C298.803 49.8166 299.25 49.1601 299.552 48.8988C301.622 47.1007 304.454 47.6242 305.787 49.998C306.653 51.5394 309.037 55.6875 312.939 62.4425C312.958 62.4736 312.984 62.4997 313.015 62.5184C313.046 62.537 313.081 62.5477 313.118 62.5494L313.891 62.5768ZM294.351 50.5764L294.308 49.8486C294.307 49.8196 294.298 49.7915 294.282 49.7669C294.267 49.7422 294.246 49.7218 294.221 49.7074C290.924 47.8421 286.881 49.2894 285.553 52.8213C284.429 55.8063 285.815 59.1628 288.743 60.4812C289.932 61.0185 291.622 61.1473 292.842 60.8129C293.715 60.5726 294.482 60.1281 295.143 59.4794C295.511 59.1175 296.008 58.3761 296.633 57.255C297.23 56.1805 298.325 54.2727 299.917 51.5316C300.48 50.5613 300.825 49.8815 301.807 49.6773C302.774 49.4744 303.664 49.9267 304.152 50.7792C305.499 53.1265 307.718 56.9841 310.808 62.352C310.846 62.417 310.899 62.4713 310.963 62.5099C311.027 62.5485 311.1 62.5701 311.174 62.5727L311.565 62.5878C311.589 62.5886 311.613 62.583 311.635 62.5714C311.656 62.5597 311.674 62.5426 311.686 62.5217C311.699 62.5009 311.705 62.477 311.705 62.4527C311.706 62.4284 311.699 62.4045 311.687 62.3835C308.271 56.4454 305.976 52.4636 304.801 50.4379C304.212 49.4201 303.36 48.8984 302.245 48.8728C301.212 48.8495 300.269 49.4498 299.771 50.3077C297.26 54.6532 295.903 57.0106 295.702 57.3797C295.222 58.2596 294.803 58.8498 294.444 59.1504C293.808 59.6822 293.106 60.0125 292.339 60.1413C289.527 60.6128 286.916 59.2094 286.113 56.4135C285.814 55.3787 285.844 54.6852 286.062 53.6573C286.355 52.2758 287.323 51.0067 288.474 50.3543C290.158 49.4004 291.916 49.3753 293.748 50.2789C293.859 50.3338 294.018 50.453 294.225 50.6367C294.236 50.6468 294.25 50.6534 294.265 50.6556C294.279 50.6578 294.295 50.6555 294.308 50.649C294.322 50.6425 294.333 50.6322 294.341 50.6192C294.348 50.6063 294.352 50.5913 294.351 50.5764ZM302.244 62.5782C302.386 62.5782 302.456 62.4964 302.452 62.3328C302.443 61.992 302.418 61.5365 302.377 60.9664C302.374 60.9359 302.379 60.9053 302.391 60.877C302.403 60.8487 302.421 60.8236 302.444 60.8036C302.467 60.7836 302.495 60.7693 302.525 60.7619C302.554 60.7545 302.585 60.7541 302.615 60.7608L303.971 61.0692C303.987 61.0733 304.005 61.0722 304.021 61.066C304.037 61.0599 304.05 61.0489 304.06 61.0347C304.07 61.0205 304.074 61.0037 304.074 60.9866C304.074 60.9695 304.068 60.9529 304.058 60.939L303.899 60.7156C303.854 60.6515 303.836 60.5722 303.849 60.4952C303.862 60.4181 303.906 60.3495 303.969 60.3044L305.636 59.1258C305.654 59.1134 305.667 59.0963 305.676 59.0765C305.684 59.0566 305.687 59.0348 305.683 59.0135C305.679 58.9922 305.67 58.9724 305.655 58.9564C305.641 58.9404 305.622 58.9288 305.602 58.9229L305.297 58.8352C305.259 58.8242 305.223 58.8041 305.194 58.7766C305.165 58.7491 305.143 58.715 305.129 58.6771C305.116 58.6391 305.112 58.5985 305.117 58.5586C305.122 58.5186 305.137 58.4805 305.16 58.4474L305.441 58.043C305.457 58.0202 305.467 57.9929 305.467 57.9649C305.468 57.9368 305.46 57.9092 305.445 57.8855C305.429 57.8619 305.407 57.8432 305.381 57.832C305.355 57.8207 305.327 57.8174 305.299 57.8224L304.722 57.9307C304.697 57.9354 304.671 57.9352 304.647 57.9301C304.622 57.9249 304.598 57.9149 304.577 57.9007C304.556 57.8864 304.539 57.8681 304.525 57.847C304.511 57.8258 304.502 57.802 304.497 57.7772L304.42 57.3633C304.417 57.3433 304.407 57.3249 304.393 57.3103C304.379 57.2957 304.361 57.2856 304.341 57.2812C304.322 57.2768 304.301 57.2784 304.282 57.2857C304.263 57.2929 304.247 57.3056 304.235 57.3221C303.976 57.6876 303.701 57.969 303.411 58.1664C303.384 58.1854 303.35 58.1954 303.317 58.1949C303.283 58.1945 303.25 58.1836 303.223 58.1639C303.195 58.1441 303.175 58.1164 303.163 58.0845C303.152 58.0525 303.151 58.018 303.161 57.9855L303.612 56.4244C303.615 56.4112 303.615 56.3971 303.612 56.3838C303.608 56.3705 303.601 56.3584 303.591 56.349C303.581 56.3395 303.568 56.333 303.555 56.3301C303.541 56.3272 303.527 56.3281 303.514 56.3326L303.196 56.4436C303.121 56.4695 303.038 56.4662 302.965 56.4345C302.892 56.4028 302.834 56.3449 302.802 56.2723C302.596 55.8082 302.436 55.4573 302.32 55.2197C302.302 55.1841 302.278 55.1663 302.248 55.1663C302.217 55.1663 302.193 55.1841 302.175 55.2197C302.059 55.4573 301.898 55.8082 301.693 56.2723C301.66 56.3447 301.602 56.4022 301.529 56.4337C301.456 56.4651 301.373 56.4682 301.298 56.4423L300.98 56.3312C300.967 56.3267 300.953 56.3258 300.94 56.3287C300.926 56.3316 300.914 56.3381 300.904 56.3476C300.894 56.3571 300.886 56.3691 300.883 56.3824C300.879 56.3957 300.879 56.4098 300.883 56.4231L301.331 57.9841C301.34 58.0166 301.339 58.0512 301.328 58.0831C301.317 58.115 301.296 58.1427 301.269 58.1625C301.242 58.1823 301.209 58.1931 301.175 58.1936C301.141 58.194 301.108 58.1841 301.08 58.165C300.791 57.9677 300.517 57.6862 300.258 57.3208C300.246 57.3043 300.23 57.2915 300.211 57.2842C300.192 57.2768 300.172 57.2752 300.152 57.2794C300.132 57.2836 300.114 57.2936 300.1 57.308C300.086 57.3224 300.077 57.3407 300.073 57.3605L299.996 57.7744C299.991 57.7993 299.982 57.823 299.968 57.8442C299.954 57.8654 299.937 57.8837 299.916 57.8979C299.895 57.9122 299.871 57.9222 299.846 57.9273C299.822 57.9325 299.796 57.9327 299.771 57.9279L299.194 57.8196C299.166 57.8143 299.137 57.8174 299.111 57.8285C299.085 57.8396 299.063 57.8582 299.047 57.882C299.032 57.9057 299.024 57.9335 299.024 57.9617C299.025 57.99 299.034 58.0173 299.05 58.0403L299.331 58.4446C299.354 58.4777 299.369 58.5159 299.375 58.5558C299.38 58.5958 299.376 58.6364 299.362 58.6743C299.349 58.7123 299.327 58.7464 299.297 58.7739C299.268 58.8014 299.233 58.8215 299.194 58.8325L298.89 58.9188C298.869 58.9247 298.851 58.9363 298.836 58.9523C298.822 58.9683 298.812 58.9881 298.809 59.0094C298.805 59.0306 298.808 59.0525 298.816 59.0724C298.824 59.0922 298.838 59.1093 298.856 59.1217L300.521 60.3031C300.584 60.3483 300.627 60.417 300.64 60.4941C300.653 60.5712 300.635 60.6503 300.59 60.7142L300.431 60.9376C300.421 60.9515 300.415 60.9681 300.415 60.9852C300.414 61.0024 300.419 61.0192 300.429 61.0334C300.438 61.0476 300.452 61.0585 300.468 61.0646C300.484 61.0708 300.502 61.0719 300.518 61.0678L301.874 60.7608C301.904 60.7541 301.935 60.7545 301.964 60.7619C301.994 60.7693 302.021 60.7836 302.045 60.8036C302.068 60.8236 302.086 60.8487 302.098 60.877C302.109 60.9053 302.114 60.9359 302.112 60.9664C302.071 61.5365 302.046 61.992 302.035 62.3328C302.032 62.4964 302.101 62.5782 302.244 62.5782Z" fill="#131837"/>
<path d="M121.694 40.4563C121.707 40.4537 121.721 40.4546 121.734 40.4589C121.747 40.4631 121.759 40.4706 121.769 40.4807C121.778 40.4907 121.785 40.503 121.788 40.5162C121.791 40.5294 121.791 40.5433 121.787 40.5563C121.589 41.2288 121.096 42.8949 120.305 45.5547C115.662 61.1898 112.045 73.3794 109.455 82.1234C109.074 83.4099 108.836 84.3359 108.741 84.9015C108.641 85.4977 108.501 86.1377 108.979 86.5941C110.573 88.1181 113.616 82.7813 114.183 81.8041C114.188 81.7955 114.195 81.7881 114.203 81.7826C114.211 81.7771 114.221 81.7735 114.23 81.7722C114.24 81.7708 114.25 81.7718 114.26 81.7749C114.269 81.7781 114.277 81.7834 114.284 81.7904L115.179 82.6853C115.201 82.7067 115.214 82.7346 115.217 82.7643C115.221 82.794 115.213 82.8237 115.197 82.8484C114.326 84.1687 113.399 85.4045 112.415 86.5557C111.28 87.8824 109.951 89.2324 108.432 89.8601C107.784 90.1269 107.059 90.3416 106.257 90.5043C106.041 90.5472 105.81 90.528 105.565 90.4467C104.88 90.2178 104.09 90.1068 103.612 89.4942C102.81 88.4676 102.899 87.3027 103.156 86.0993C103.416 84.8777 103.848 83.2678 104.452 81.2696C104.762 80.2462 107.735 70.2911 113.372 51.4041C114.064 49.0866 114.576 47.3336 114.916 45.6013C114.933 45.5179 114.934 45.432 114.92 45.3477C114.775 44.4286 114.254 43.8749 113.357 43.6866C112.326 43.4701 111.171 43.5181 109.892 43.8305C109.87 43.836 109.847 43.8363 109.825 43.8315C109.803 43.8267 109.782 43.817 109.764 43.803C109.746 43.789 109.732 43.7711 109.722 43.7507C109.712 43.7303 109.707 43.7079 109.707 43.6853V42.7231C109.707 42.6783 109.723 42.6349 109.752 42.6007C109.781 42.5666 109.822 42.5439 109.866 42.5368C114.681 41.7345 117.884 41.2101 119.476 40.9634C120.081 40.8693 120.539 40.7733 120.851 40.6756C121.146 40.5842 121.427 40.5111 121.694 40.4563Z" fill="#131837"/>
<path d="M77.1302 41.2992L73.7409 56.1709C73.73 56.218 73.7035 56.2601 73.6657 56.2902C73.6278 56.3203 73.5809 56.3367 73.5326 56.3367H72.517C72.5045 56.3367 72.4925 56.3318 72.4835 56.3231C72.4746 56.3144 72.4694 56.3026 72.469 56.2901C72.4343 55.0484 72.3758 53.7487 72.2936 52.3909C72.2324 51.3868 72.0423 50.3749 71.7234 49.3552C70.6421 45.8946 67.568 43.9402 64.0964 43.5564C60.4836 43.1562 56.5804 43.7963 53.361 45.5533C48.7094 48.0915 45.1213 52.5362 42.8051 57.2755C41.1974 60.5662 40.0667 64.0707 39.5528 67.6916C39.4523 68.3979 39.3536 69.4413 39.2567 70.8219C39.1572 72.2473 39.2449 73.7997 39.5199 75.479C40.4121 80.9338 44.155 85.2194 49.5673 86.5544C51.8123 87.1067 54.2107 87.1368 56.6037 86.7956C59.4653 86.389 62.0593 85.272 64.3856 83.4446C66.0375 82.1472 67.5666 80.5473 68.9728 78.645C69.0075 78.5975 69.0883 78.4992 69.2154 78.3503C69.2339 78.3288 69.2568 78.3116 69.2826 78.2998C69.3084 78.2879 69.3364 78.2818 69.3647 78.2818H70.8216C70.8298 78.2817 70.8379 78.2838 70.8449 78.288C70.852 78.2921 70.8578 78.2981 70.8617 78.3052C70.8657 78.3124 70.8676 78.3205 70.8673 78.3287C70.867 78.3369 70.8645 78.3448 70.86 78.3517C69.6393 80.307 68.2496 82.0996 66.6908 83.7297C64.0238 86.5187 60.7879 88.5005 57.0162 89.3667C49.3357 91.1306 39.9352 89.3187 35.3672 82.2522C33.5078 79.3741 32.4785 76.2378 32.2793 72.8435C31.8572 65.6413 34.575 58.3528 39.0238 52.702C42.5899 48.171 47.4567 44.8543 52.8854 42.8547C54.9138 42.1073 57.0655 41.6007 59.3406 41.3348C62.1411 41.0059 64.8918 41.2649 67.5926 42.1119C68.3848 42.3604 69.298 42.6784 70.3323 43.0658C70.7874 43.2357 71.352 43.3796 71.8029 43.4811C72.8226 43.7095 73.7317 43.4281 74.5303 42.6368C75.2786 41.8958 75.7113 41.4403 75.8282 41.2704C75.8435 41.2488 75.8636 41.2312 75.887 41.2191C75.9104 41.2069 75.9363 41.2005 75.9625 41.2005H77.0521C77.0642 41.2006 77.0761 41.2034 77.0869 41.2087C77.0977 41.214 77.1072 41.2217 77.1147 41.2311C77.1222 41.2406 77.1275 41.2516 77.1302 41.2634C77.1329 41.2752 77.1329 41.2874 77.1302 41.2992Z" fill="#131837"/>
<path d="M158.593 89.9862C158.575 89.9863 158.558 89.9822 158.542 89.9744C158.526 89.9665 158.512 89.9551 158.501 89.941C158.491 89.9269 158.484 89.9105 158.48 89.8932C158.477 89.8758 158.478 89.8579 158.483 89.841L158.753 88.9063C158.769 88.853 158.8 88.8059 158.844 88.7716C158.888 88.7372 158.941 88.7172 158.997 88.7144C160.764 88.6322 162.304 87.9843 163.616 86.771C164.871 85.6101 165.948 84.2917 167.117 82.8156C167.614 82.1879 168.101 81.551 168.576 80.905C176.627 69.9398 186.064 57.0851 196.887 42.3408C196.924 42.2903 196.972 42.2492 197.028 42.2209C197.084 42.1925 197.146 42.1778 197.209 42.1777H198.123C198.138 42.1777 198.153 42.1807 198.166 42.1867C198.18 42.1926 198.192 42.2014 198.202 42.2124C198.212 42.2233 198.22 42.2363 198.225 42.2504C198.23 42.2645 198.231 42.2794 198.23 42.2942C197.946 45.2505 197.589 49.1442 197.158 53.9027C196.03 66.4175 195.239 75.0076 194.787 79.6729C194.593 81.6785 194.46 83.2976 194.39 84.5301C194.362 84.9851 194.457 85.8705 194.679 86.3475C195.257 87.5837 196.455 88.3772 197.801 88.5636C198.653 88.6815 199.493 88.7381 200.321 88.7336C200.338 88.7335 200.354 88.7374 200.369 88.7448C200.384 88.7522 200.397 88.763 200.407 88.7763C200.417 88.7896 200.424 88.8051 200.427 88.8215C200.43 88.8378 200.429 88.8547 200.424 88.8706L200.123 89.9177C200.117 89.9379 200.104 89.9556 200.088 89.9681C200.071 89.9807 200.05 89.9876 200.029 89.9876H181.914C181.901 89.9877 181.889 89.9848 181.878 89.9794C181.867 89.9739 181.857 89.9659 181.85 89.9561C181.843 89.9463 181.837 89.9348 181.835 89.9227C181.833 89.9105 181.834 89.8981 181.837 89.8862L182.132 88.8651C182.144 88.8232 182.17 88.7868 182.206 88.7617C182.242 88.7366 182.285 88.7243 182.329 88.7267C183.587 88.8035 184.936 88.6527 186.106 88.088C188.27 87.0437 188.511 84.6069 188.732 82.3647C189.034 79.2938 189.283 76.7697 189.48 74.7924C189.482 74.7737 189.48 74.7547 189.474 74.7368C189.469 74.7189 189.459 74.7024 189.446 74.6885C189.434 74.6745 189.418 74.6634 189.401 74.6558C189.384 74.6482 189.365 74.6443 189.346 74.6444C185.51 74.6527 181.283 74.6549 176.667 74.6513C176.484 74.6513 176.118 74.5649 175.967 74.7705C175.308 75.6641 173.602 77.9867 170.848 81.7383C170.546 82.1486 170.162 82.7238 169.695 83.4638C168.709 85.0249 168.349 87.2863 170.368 88.2594C171.075 88.5993 171.813 88.7395 172.583 88.6801C172.603 88.6787 172.623 88.6821 172.642 88.6901C172.66 88.698 172.676 88.7103 172.689 88.7257C172.702 88.7412 172.71 88.7595 172.714 88.779C172.718 88.7985 172.717 88.8186 172.712 88.8377L172.406 89.8958C172.399 89.9218 172.383 89.9447 172.361 89.961C172.34 89.9773 172.313 89.9862 172.286 89.9862H158.593ZM191.188 54.1042C191.129 54.1188 191.08 54.1521 191.043 54.2042C190.174 55.3893 185.785 61.3676 177.877 72.1391C177.865 72.1556 177.858 72.1752 177.856 72.1956C177.855 72.216 177.859 72.2365 177.868 72.2548C177.877 72.2731 177.891 72.2885 177.909 72.2993C177.926 72.3101 177.946 72.3158 177.967 72.3159H189.574C189.61 72.3157 189.645 72.3022 189.672 72.2779C189.699 72.2536 189.716 72.2202 189.719 72.1843L191.466 54.1782C191.493 54.0174 191.487 53.889 191.45 53.793C191.447 53.7847 191.442 53.7772 191.435 53.7711C191.428 53.7651 191.42 53.7607 191.412 53.7583C191.403 53.7559 191.394 53.7556 191.385 53.7573C191.376 53.7591 191.368 53.7629 191.361 53.7684C191.263 53.846 191.206 53.958 191.188 54.1042Z" fill="#131837"/>
<path d="M213.248 51.2533C215.156 51.2533 216.703 49.7064 216.703 47.7981C216.703 45.8899 215.156 44.343 213.248 44.343C211.34 44.343 209.793 45.8899 209.793 47.7981C209.793 49.7064 211.34 51.2533 213.248 51.2533Z" fill="#131837"/>
<path d="M294.33 47.7557V48.5479C294.33 48.5512 294.329 48.5544 294.328 48.5573C294.326 48.5602 294.324 48.5627 294.321 48.5645C294.319 48.5663 294.315 48.5673 294.312 48.5675C294.309 48.5678 294.306 48.5671 294.303 48.5657C292.833 47.8183 291.308 47.6251 289.728 47.986C286.71 48.6754 284.51 51.0711 284.136 54.1205C283.852 56.4395 284.771 58.779 286.589 60.3154C288.03 61.5324 289.725 62.1053 291.675 62.034C293.728 61.9586 295.749 60.8992 296.779 59.1052C298.138 56.7369 299.535 54.3078 300.97 51.818C301.253 51.3274 301.464 50.8806 301.884 50.7394C302.552 50.5174 302.982 50.8792 303.304 51.437C304.034 52.6961 306.139 56.3458 309.62 62.3862C309.631 62.4067 309.637 62.43 309.637 62.4536C309.637 62.4771 309.63 62.5002 309.618 62.5205C309.606 62.5407 309.589 62.5573 309.568 62.5687C309.547 62.58 309.524 62.5856 309.501 62.585L309.074 62.5685C309.01 62.566 308.948 62.5474 308.894 62.5146C308.839 62.4818 308.794 62.4357 308.762 62.3808L302.487 51.5137C302.465 51.4751 302.433 51.4427 302.395 51.4197C302.357 51.3966 302.314 51.3836 302.269 51.3818C302.224 51.38 302.18 51.3895 302.14 51.4095C302.1 51.4295 302.066 51.4592 302.041 51.4959C301.939 51.643 301.836 51.808 301.73 51.9907C299.644 55.5888 298.432 57.6917 298.095 58.2993C297.442 59.477 296.941 60.2441 296.594 60.6004C295.966 61.2437 295.222 61.7763 294.36 62.1985C294.185 62.2844 293.813 62.4041 293.246 62.5576C292.909 62.648 292.522 62.6964 292.086 62.7028C290.69 62.7234 289.788 62.7494 288.626 62.3273C286.575 61.5808 285.071 60.2295 284.115 58.2732C284.029 58.0951 283.886 57.7314 283.686 57.1823C283.182 55.7912 283.153 54.2836 283.626 52.872C284.067 51.5535 284.617 50.4434 285.591 49.4703C287.472 47.5945 289.755 46.8361 292.441 47.1952C292.838 47.2482 293.456 47.4195 294.296 47.7091C294.306 47.7123 294.314 47.7185 294.32 47.7269C294.327 47.7353 294.33 47.7453 294.33 47.7557Z" fill="#EEB62D"/>
<path d="M313.89 62.5767L313.117 62.5493C313.08 62.5476 313.045 62.5369 313.014 62.5183C312.983 62.4996 312.957 62.4735 312.938 62.4424C309.036 55.6874 306.652 51.5393 305.786 49.9979C304.453 47.6241 301.621 47.1006 299.551 48.8987C299.25 49.16 298.802 49.8165 298.209 50.8682C297.663 51.8349 296.424 53.9903 294.494 57.3344C294.06 58.0854 293.517 58.5994 292.867 58.8762C291.443 59.4834 289.63 59.1586 288.441 58.1485C287.192 57.0836 286.642 55.3005 287.144 53.7093C287.66 52.0756 288.859 51.0518 290.519 50.7517C291.979 50.4871 293.197 51.0532 294.261 51.9906C294.276 52.0044 294.289 52.0213 294.297 52.0402C294.306 52.0591 294.31 52.0796 294.31 52.1003V53.3516C294.31 53.3664 294.305 53.3809 294.296 53.3929C294.287 53.4049 294.275 53.4138 294.261 53.4182C294.247 53.4227 294.232 53.4224 294.218 53.4176C294.204 53.4128 294.192 53.4036 294.184 53.3913C294.155 53.3484 294.106 53.2483 294.039 53.0912C293.36 51.5096 291.25 51.06 289.801 51.7193C288.905 52.1259 288.295 52.7316 287.971 53.5366C287.186 55.4937 288.099 57.5441 290.135 58.2334C291.262 58.6158 292.497 58.4719 293.374 57.6482C293.544 57.4874 293.788 57.1256 294.107 56.5628C295.241 54.5554 296.593 52.1971 298.164 49.488C299.824 46.625 303.753 46.2399 305.888 48.8288C306.057 49.0326 306.407 49.599 306.94 50.5283C308.94 54.014 311.116 57.7971 313.469 61.8777C313.611 62.1226 313.762 62.3304 313.924 62.5013C313.93 62.5075 313.934 62.5154 313.936 62.5241C313.938 62.5327 313.936 62.5417 313.933 62.5498C313.929 62.558 313.923 62.5649 313.915 62.5697C313.908 62.5744 313.899 62.5769 313.89 62.5767Z" fill="#EEB62D"/>
<path d="M294.351 50.5763C294.352 50.5913 294.348 50.6062 294.34 50.6192C294.333 50.6321 294.322 50.6425 294.308 50.649C294.294 50.6555 294.279 50.6577 294.264 50.6555C294.25 50.6533 294.236 50.6467 294.225 50.6366C294.018 50.453 293.859 50.3337 293.748 50.2789C291.916 49.3753 290.158 49.4004 288.474 50.3543C287.323 51.0067 286.355 52.2758 286.062 53.6573C285.844 54.6852 285.814 55.3787 286.112 56.4134C286.916 59.2093 289.526 60.6128 292.339 60.1413C293.106 60.0125 293.808 59.6822 294.444 59.1504C294.803 58.8498 295.222 58.2596 295.702 57.3797C295.903 57.0105 297.259 54.6532 299.771 50.3077C300.269 49.4497 301.212 48.8494 302.245 48.8727C303.36 48.8983 304.212 49.42 304.801 50.4379C305.976 52.4635 308.271 56.4454 311.687 62.3835C311.699 62.4045 311.705 62.4284 311.705 62.4527C311.705 62.477 311.699 62.5008 311.686 62.5217C311.674 62.5426 311.656 62.5597 311.634 62.5713C311.613 62.5829 311.589 62.5886 311.565 62.5877L311.174 62.5726C311.099 62.5701 311.027 62.5485 310.963 62.5099C310.899 62.4713 310.845 62.4169 310.808 62.352C307.718 56.984 305.499 53.1264 304.151 50.7791C303.663 49.9267 302.774 49.4744 301.806 49.6772C300.825 49.8814 300.48 50.5612 299.916 51.5316C298.325 54.2726 297.23 56.1804 296.633 57.2549C296.008 58.376 295.511 59.1175 295.143 59.4793C294.482 60.128 293.715 60.5726 292.842 60.8129C291.622 61.1473 289.932 61.0184 288.742 60.4812C285.815 59.1627 284.429 55.8063 285.553 52.8213C286.881 49.2894 290.924 47.8421 294.22 49.7074C294.246 49.7217 294.267 49.7422 294.282 49.7668C294.298 49.7915 294.306 49.8196 294.308 49.8486L294.351 50.5763Z" fill="#EEB62D"/>
<path d="M191.466 54.1781C191.337 54.1616 191.244 54.1369 191.188 54.104C191.205 53.9579 191.262 53.8459 191.36 53.7683C191.367 53.7627 191.376 53.759 191.384 53.7572C191.393 53.7555 191.402 53.7558 191.411 53.7582C191.42 53.7606 191.428 53.765 191.434 53.771C191.441 53.777 191.446 53.7846 191.449 53.7929C191.487 53.8889 191.492 54.0172 191.466 54.1781Z" fill="#131837"/>
<path d="M302.247 55.1663C302.278 55.1663 302.302 55.1841 302.32 55.2197C302.435 55.4573 302.596 55.8081 302.801 56.2723C302.833 56.3449 302.892 56.4028 302.965 56.4345C303.038 56.4662 303.12 56.4694 303.196 56.4436L303.514 56.3326C303.527 56.328 303.541 56.3272 303.554 56.3301C303.568 56.3329 303.58 56.3395 303.59 56.3489C303.6 56.3584 303.608 56.3705 303.611 56.3838C303.615 56.3971 303.615 56.4111 303.611 56.4244L303.16 57.9855C303.151 58.018 303.152 58.0525 303.163 58.0844C303.174 58.1164 303.195 58.1441 303.222 58.1639C303.25 58.1836 303.282 58.1945 303.316 58.1949C303.35 58.1954 303.383 58.1854 303.411 58.1664C303.701 57.969 303.975 57.6876 304.235 57.3221C304.246 57.3056 304.263 57.2929 304.282 57.2856C304.301 57.2783 304.321 57.2768 304.341 57.2812C304.361 57.2856 304.379 57.2957 304.393 57.3103C304.407 57.3249 304.416 57.3433 304.42 57.3632L304.497 57.7771C304.501 57.802 304.511 57.8257 304.524 57.8469C304.538 57.8681 304.556 57.8864 304.577 57.9006C304.598 57.9149 304.621 57.9249 304.646 57.93C304.671 57.9352 304.696 57.9354 304.721 57.9306L305.298 57.8224C305.326 57.8174 305.355 57.8207 305.381 57.8319C305.407 57.8432 305.429 57.8618 305.444 57.8855C305.459 57.9092 305.467 57.9368 305.467 57.9649C305.466 57.9929 305.457 58.0201 305.441 58.043L305.16 58.4473C305.137 58.4805 305.122 58.5186 305.117 58.5585C305.111 58.5985 305.115 58.6391 305.129 58.677C305.142 58.715 305.164 58.7491 305.194 58.7766C305.223 58.8041 305.258 58.8242 305.297 58.8352L305.601 58.9229C305.622 58.9287 305.641 58.9403 305.655 58.9564C305.669 58.9724 305.679 58.9922 305.683 59.0135C305.686 59.0347 305.684 59.0566 305.675 59.0764C305.667 59.0963 305.653 59.1134 305.635 59.1257L303.969 60.3044C303.905 60.3495 303.862 60.4181 303.849 60.4952C303.836 60.5722 303.854 60.6515 303.899 60.7156L304.058 60.939C304.068 60.9528 304.074 60.9695 304.074 60.9866C304.074 61.0037 304.069 61.0205 304.06 61.0347C304.05 61.0489 304.036 61.0598 304.02 61.066C304.004 61.0722 303.987 61.0733 303.97 61.0692L302.615 60.7608C302.585 60.7541 302.554 60.7545 302.524 60.7619C302.494 60.7693 302.467 60.7836 302.444 60.8036C302.421 60.8235 302.402 60.8487 302.391 60.877C302.379 60.9052 302.374 60.9359 302.376 60.9664C302.417 61.5365 302.443 61.992 302.452 62.3328C302.455 62.4964 302.386 62.5781 302.243 62.5781C302.101 62.5781 302.031 62.4964 302.035 62.3328C302.045 61.992 302.071 61.5365 302.112 60.9664C302.114 60.9359 302.109 60.9052 302.097 60.877C302.086 60.8487 302.067 60.8235 302.044 60.8036C302.021 60.7836 301.994 60.7693 301.964 60.7619C301.934 60.7545 301.903 60.7541 301.873 60.7608L300.518 61.0678C300.501 61.0719 300.484 61.0708 300.468 61.0646C300.452 61.0585 300.438 61.0475 300.428 61.0333C300.419 61.0191 300.414 61.0023 300.414 60.9852C300.415 60.9681 300.42 60.9515 300.43 60.9376L300.589 60.7142C300.634 60.6503 300.652 60.5711 300.64 60.4941C300.627 60.417 300.584 60.3483 300.521 60.303L298.855 59.1216C298.838 59.1093 298.824 59.0922 298.816 59.0723C298.807 59.0525 298.805 59.0306 298.808 59.0094C298.812 58.9881 298.821 58.9683 298.836 58.9523C298.85 58.9362 298.869 58.9246 298.89 58.9188L299.194 58.8325C299.232 58.8215 299.268 58.8014 299.297 58.7739C299.326 58.7464 299.349 58.7122 299.362 58.6743C299.375 58.6364 299.38 58.5957 299.374 58.5558C299.369 58.5158 299.354 58.4777 299.331 58.4446L299.05 58.0403C299.034 58.0173 299.024 57.9899 299.024 57.9617C299.023 57.9335 299.031 57.9057 299.047 57.8819C299.062 57.8582 299.085 57.8396 299.111 57.8285C299.137 57.8173 299.166 57.8143 299.194 57.8196L299.771 57.9279C299.796 57.9327 299.821 57.9325 299.846 57.9273C299.871 57.9222 299.894 57.9122 299.915 57.8979C299.936 57.8836 299.954 57.8654 299.968 57.8442C299.982 57.823 299.991 57.7993 299.996 57.7744L300.072 57.3605C300.076 57.3407 300.086 57.3224 300.1 57.308C300.114 57.2936 300.132 57.2836 300.152 57.2794C300.171 57.2751 300.192 57.2768 300.211 57.2842C300.23 57.2915 300.246 57.3042 300.257 57.3207C300.517 57.6862 300.791 57.9676 301.08 58.165C301.108 58.184 301.141 58.194 301.175 58.1935C301.208 58.1931 301.241 58.1822 301.269 58.1625C301.296 58.1427 301.317 58.115 301.328 58.0831C301.339 58.0511 301.34 58.0166 301.331 57.9841L300.882 56.423C300.879 56.4098 300.879 56.3957 300.882 56.3824C300.886 56.3691 300.893 56.357 300.903 56.3476C300.913 56.3381 300.926 56.3316 300.939 56.3287C300.953 56.3258 300.967 56.3267 300.98 56.3312L301.298 56.4422C301.373 56.4682 301.455 56.4651 301.528 56.4337C301.601 56.4022 301.66 56.3447 301.692 56.2723C301.898 55.8081 302.059 55.4573 302.175 55.2197C302.192 55.1841 302.216 55.1663 302.247 55.1663Z" fill="#EEB62D"/>
<path d="M214.753 58.0801C214.15 60.0272 211.65 68.3884 207.253 83.1637C207.136 83.5566 206.961 84.2277 206.727 85.1771C206.642 85.5215 206.753 85.8829 207.06 86.2612C207.69 87.0369 208.546 86.3297 209.102 85.7979C210.333 84.6211 211.408 83.2684 212.327 81.7398C212.337 81.7235 212.35 81.7095 212.365 81.6985C212.38 81.6875 212.398 81.6798 212.416 81.6758C212.435 81.6718 212.454 81.6717 212.473 81.6754C212.491 81.679 212.509 81.6865 212.524 81.6973L213.562 82.4209C213.577 82.4314 213.587 82.4472 213.59 82.4651C213.594 82.4829 213.591 82.5014 213.581 82.5168C212.27 84.6311 210.679 86.4841 208.809 88.0758C207.718 89.0036 206.516 89.7834 205.122 90.1055C202.741 90.6551 200.727 89.0228 201.132 86.527C201.29 85.5512 201.485 84.686 201.716 83.9312C203.507 78.0845 205.089 72.9432 206.462 68.5072C206.862 67.2198 207.132 66.2819 207.274 65.6935C207.636 64.1877 207.841 63.2352 207.889 62.8359C207.989 61.9962 207.626 61.3731 206.802 60.9665C206.572 60.8532 206.191 60.8125 205.659 60.8445C204.714 60.9012 203.767 61.0245 202.817 61.2146C202.806 61.2168 202.795 61.2166 202.784 61.2139C202.773 61.2112 202.764 61.2061 202.755 61.199C202.746 61.192 202.74 61.183 202.735 61.1729C202.73 61.1628 202.728 61.1517 202.728 61.1406V60.0455C202.728 60.0218 202.736 59.9989 202.751 59.9808C202.767 59.9628 202.788 59.9507 202.811 59.9468L214.683 57.9993C214.693 57.9976 214.704 57.9987 214.714 58.0024C214.724 58.0061 214.733 58.0123 214.74 58.0204C214.747 58.0284 214.752 58.0382 214.754 58.0486C214.756 58.0591 214.756 58.0699 214.753 58.0801Z" fill="#131837"/>
<path d="M125.36 72.1567C125.305 72.1887 125.274 72.2175 125.267 72.2431C125.142 72.7191 125.006 73.1399 124.861 73.5053C124.856 73.5199 124.856 73.536 124.862 73.5503C124.868 73.5646 124.88 73.576 124.894 73.5821H124.895C124.909 73.5881 124.925 73.5885 124.94 73.5832C124.955 73.5779 124.967 73.5672 124.975 73.5533L125.69 72.2499C126.684 70.4938 127.615 68.9588 128.486 67.6449C129.864 65.5672 131.407 63.6845 133.116 61.9969C134.225 60.9005 135.512 59.8219 136.84 59.1147C138.832 58.0552 141.664 57.6797 143.339 59.5245C144.332 60.6195 144.511 61.9366 144.317 63.362C144.228 64.0207 144.046 64.8572 143.772 65.8714C143.75 65.9518 143.115 68.0415 141.868 72.1403C141.846 72.2134 141.806 72.3833 141.746 72.6501C141.708 72.8237 141.653 72.9905 141.582 73.1504C141.411 73.7598 141.211 74.3642 140.981 74.9636C140.962 75.0129 140.956 75.0545 140.962 75.0883C140.964 75.0957 140.967 75.1025 140.973 75.1077C140.978 75.113 140.985 75.1164 140.993 75.1176C141 75.1188 141.008 75.1177 141.015 75.1144C141.021 75.1111 141.027 75.1059 141.031 75.0993L142.094 73.2874C143.7 70.5409 145.491 67.9181 147.468 65.4192C148.925 63.5772 150.488 61.9773 152.157 60.6195C153.24 59.7387 154.389 59.0836 155.604 58.6542C156.87 58.2074 158.623 57.984 159.835 58.6679C161.283 59.4847 161.793 60.8909 161.886 62.5054C161.944 63.5077 161.88 64.5055 161.694 65.4986C161.574 66.1455 161.304 67.1104 160.886 68.3932C159.441 72.8301 157.987 77.3109 156.522 81.8355C156.162 82.9484 155.859 83.947 155.613 84.8315C155.438 85.4633 155.378 86.0005 155.942 86.461C156.006 86.5131 156.083 86.5459 156.164 86.5556C156.246 86.5653 156.329 86.5515 156.403 86.5159C156.669 86.3879 156.947 86.1979 157.237 85.9457C158.481 84.8648 159.559 83.5651 160.471 82.0465C160.485 82.0226 160.504 82.0019 160.527 81.9857C160.549 81.9696 160.575 81.9582 160.602 81.9524C160.63 81.9466 160.658 81.9465 160.685 81.9521C160.712 81.9577 160.738 81.9688 160.761 81.9849L161.656 82.6085C161.668 82.6167 161.678 82.6272 161.686 82.6394C161.694 82.6516 161.699 82.6652 161.702 82.6795C161.704 82.6938 161.704 82.7084 161.701 82.7226C161.698 82.7367 161.692 82.7501 161.683 82.762C160.609 84.2997 159.403 85.7744 158.065 87.1861C156.625 88.706 155.242 89.9107 153.208 90.3808C151.753 90.7179 150.378 89.9216 149.928 88.5196C149.763 88.0006 149.738 87.3866 149.853 86.6776C150.139 84.9164 150.73 82.9292 151.219 81.4353C152.801 76.611 154.36 71.82 155.897 67.0624C156.167 66.2291 156.344 65.5868 156.429 65.1355C156.728 63.5539 156.318 61.9695 154.33 62.3971C152.922 62.7 151.802 63.6841 150.707 64.7188C149.04 66.2931 147.541 67.9798 146.209 69.7788C143.465 73.482 141.277 77.2446 139.647 81.0666C138.474 83.8122 137.447 86.6127 136.564 89.468C136.553 89.5053 136.53 89.5379 136.498 89.5611C136.467 89.5843 136.429 89.5968 136.39 89.5968H131.592C131.569 89.5967 131.547 89.5913 131.527 89.5811C131.507 89.571 131.49 89.5562 131.476 89.5382C131.463 89.5201 131.454 89.4992 131.45 89.477C131.446 89.4548 131.447 89.432 131.453 89.4104C133.587 82.343 135.737 75.2053 137.903 67.9971C138.177 67.0885 138.451 66.0304 138.639 65.0546C138.782 64.3145 138.765 63.6786 138.59 63.1468C138.442 62.6963 138.071 62.4163 137.477 62.3067C137.339 62.2811 137.037 62.3222 136.57 62.43C135.569 62.6603 134.728 63.2153 133.934 63.9129C133.232 64.5315 132.582 65.183 131.987 65.8673C129.278 68.983 126.985 72.3111 125.109 75.8517C124.494 77.0125 123.924 78.4434 123.434 79.8441C122.342 82.9753 121.287 86.1705 120.27 89.4296C120.255 89.4785 120.224 89.5211 120.183 89.5515C120.142 89.5818 120.092 89.5982 120.041 89.5982H115.208C115.193 89.5981 115.178 89.5946 115.165 89.5878C115.151 89.5811 115.14 89.5714 115.131 89.5594C115.122 89.5474 115.116 89.5336 115.113 89.5189C115.11 89.5042 115.111 89.4891 115.115 89.4749C116.739 83.8666 119.237 75.2053 122.609 63.4908C122.71 63.1409 122.63 62.7763 122.371 62.3971C121.844 61.626 121.109 61.2591 120.166 61.2966C119.494 61.3222 118.74 61.4501 117.903 61.6803C117.869 61.6897 117.833 61.6918 117.797 61.6867C117.762 61.6815 117.728 61.6692 117.698 61.6503C117.668 61.6315 117.642 61.6067 117.622 61.5774C117.602 61.5482 117.589 61.5151 117.582 61.4802L117.425 60.6373C117.42 60.6127 117.42 60.5873 117.425 60.5627C117.43 60.5381 117.44 60.5148 117.454 60.494C117.468 60.4732 117.486 60.4555 117.507 60.4417C117.529 60.428 117.552 60.4185 117.577 60.4139L129.156 58.2444C129.166 58.2426 129.176 58.2433 129.185 58.2464C129.195 58.2496 129.203 58.2551 129.21 58.2623C129.216 58.2696 129.221 58.2785 129.223 58.288C129.225 58.2976 129.225 58.3076 129.222 58.317L125.36 72.1567Z" fill="#131837"/>
<path d="M93.3375 81.2271L93.5129 80.5952C93.5174 80.5801 93.5164 80.564 93.5099 80.5498C93.5035 80.5356 93.492 80.5241 93.4777 80.5175C93.4633 80.5109 93.447 80.5096 93.4316 80.5138C93.4162 80.518 93.4028 80.5274 93.3937 80.5404L93.0086 81.0927C93.007 81.095 93.006 81.0975 93.0055 81.1001C93.005 81.1028 93.0051 81.1054 93.0058 81.1079C93.0064 81.1104 93.0077 81.1127 93.0093 81.1146C93.011 81.1165 93.0131 81.1179 93.0154 81.1188C93.03 81.1261 93.0424 81.1256 93.0524 81.1174C92.9519 81.1393 92.8838 81.1704 92.8482 81.2106C90.8363 83.5254 88.5721 85.7594 86.0298 87.5781C84.852 88.4206 83.561 89.1072 82.1566 89.6381C81.7235 89.8025 81.0908 89.9629 80.2584 90.1191C78.5055 90.4494 76.6142 90.3096 75.0668 89.2995C72.5944 87.6864 71.7351 85.3455 71.7076 82.4921C71.6921 80.8474 71.9726 79.0671 72.5492 77.1511C73.123 75.2442 73.9992 73.2875 75.1778 71.2811C77.1994 67.8383 79.7774 64.8313 82.9844 62.4383C84.715 61.1473 86.3468 60.1897 87.88 59.5657C90.0838 58.668 92.5933 58.1965 94.8519 58.879C96.7172 59.4423 97.8411 60.7238 98.525 62.5014C98.5383 62.5351 98.5618 62.5638 98.5923 62.5835C98.6227 62.6032 98.6586 62.613 98.6948 62.6113C98.7311 62.6096 98.7659 62.5967 98.7944 62.5743C98.8229 62.5519 98.8437 62.5211 98.8539 62.4863L99.6913 59.589C99.7044 59.5435 99.7301 59.5027 99.7653 59.4714C99.8005 59.4401 99.8437 59.4196 99.89 59.4122L105.065 58.5625C105.081 58.5598 105.097 58.5612 105.112 58.5665C105.127 58.5719 105.14 58.581 105.15 58.593C105.161 58.605 105.168 58.6195 105.171 58.635C105.174 58.6506 105.173 58.6666 105.168 58.6817C105.06 59.0088 104.984 59.2495 104.94 59.404C104.796 59.9138 102.893 66.5815 99.2322 79.407C98.6721 81.3714 98.1901 83.2285 97.7863 84.9782C97.7323 85.2085 97.6519 85.4469 97.545 85.6936C97.526 85.7381 97.5144 85.7858 97.5108 85.8348C97.4715 86.3547 97.646 86.7572 98.0343 87.0422C98.7347 87.5562 100.23 85.1358 100.601 84.5095C100.817 84.1458 101.165 83.5003 101.644 82.5729C101.649 82.5636 101.656 82.5555 101.664 82.549C101.672 82.5425 101.682 82.5379 101.692 82.5354C101.702 82.5329 101.713 82.5327 101.723 82.5347C101.733 82.5366 101.743 82.5408 101.751 82.5469L102.834 83.302C102.848 83.3118 102.858 83.3265 102.862 83.3433C102.866 83.36 102.863 83.3776 102.855 83.3925C101.465 85.8334 99.7461 88.0948 97.3066 89.5188C95.9977 90.2822 93.7007 90.829 92.6317 89.3434C91.9313 88.3703 92.0204 86.9052 92.215 85.7594C92.4763 84.2217 92.8505 82.7109 93.3375 81.2271ZM86.1874 84.8631C89.4164 82.943 92.0231 79.9867 93.9515 76.718C96.2074 72.8955 97.2517 68.9909 96.9475 64.623C96.9132 64.1405 96.7638 63.4525 96.598 63.0263C96.0955 61.7261 95.2448 60.9006 94.0461 60.5497C92.3041 60.0385 90.3374 60.3894 88.7366 61.3392C85.5816 63.2113 83.1653 66.0812 81.3412 69.191C79.1497 72.9271 77.6366 76.5425 77.3652 80.624C77.2693 82.0603 77.5626 83.5912 78.5274 84.6835C79.3808 85.6502 80.4362 86.156 81.6934 86.2007C83.19 86.2528 84.8484 85.6594 86.1874 84.8631ZM98.6855 62.6115C98.6623 62.6155 98.6422 62.6327 98.6298 62.6593C98.6174 62.6859 98.6137 62.7198 98.6194 62.7535C98.6223 62.7702 98.6274 62.7863 98.6344 62.8009C98.6415 62.8156 98.6503 62.8285 98.6605 62.8389C98.6707 62.8493 98.682 62.857 98.6937 62.8615C98.7055 62.8661 98.7174 62.8674 98.729 62.8655C98.7523 62.8615 98.7723 62.8443 98.7847 62.8177C98.7971 62.791 98.8008 62.7572 98.7951 62.7235C98.7922 62.7068 98.7871 62.6907 98.7801 62.676C98.773 62.6614 98.7642 62.6485 98.754 62.6381C98.7438 62.6277 98.7326 62.62 98.7208 62.6154C98.7091 62.6109 98.6971 62.6095 98.6855 62.6115Z" fill="#131837"/>
<path d="M222.577 73.7194C222.38 74.1616 222.215 74.6125 222.081 75.0721C222.055 75.1571 222.074 75.1973 222.137 75.1927C222.144 75.1923 222.151 75.1901 222.158 75.1862C222.164 75.1824 222.169 75.1771 222.172 75.1708L222.993 73.7386C223.055 73.6509 223.125 73.5444 223.202 73.4192C224.553 71.2236 226.04 69.0427 227.664 66.8763C229.311 64.6779 231.258 62.5015 233.416 60.7431C234.64 59.7454 236.055 58.8189 237.596 58.6298C237.929 58.5896 238.319 58.6585 238.767 58.8367C239.59 59.1665 240.045 59.7837 240.132 60.6883C240.274 62.163 240.025 63.566 239.388 64.8972C238.998 65.7072 238.546 66.5446 237.744 66.8886C236.392 67.4697 234.861 66.9832 234.62 65.3701C234.599 65.2376 234.528 64.9365 234.406 64.4669C234.336 64.201 234.129 64.0388 233.784 63.9803C232.786 63.8104 231.929 64.5258 231.296 65.1987C228.378 68.2989 225.955 71.8678 223.57 75.6656C222.617 77.1823 221.851 78.7241 221.272 80.2911C220.228 83.1144 219.623 84.8271 219.455 85.4293C218.651 88.3175 218.24 89.7958 218.221 89.8643C218.211 89.901 218.189 89.9333 218.158 89.9563C218.128 89.9793 218.091 89.9918 218.053 89.9918H213.121C213.115 89.9919 213.109 89.9904 213.103 89.9876C213.097 89.9847 213.092 89.9806 213.088 89.9754C213.085 89.9702 213.082 89.9642 213.081 89.9577C213.08 89.9513 213.08 89.9447 213.082 89.9383C215.419 81.8732 217.6 74.3055 219.626 67.2354C219.976 66.0147 220.229 64.8031 220.385 63.6007C220.441 63.1745 220.425 62.7647 220.144 62.396C219.634 61.7285 218.779 61.5161 217.976 61.5586C217.216 61.5988 216.481 61.6998 215.771 61.8615C215.737 61.8691 215.703 61.8643 215.673 61.8478C215.643 61.8314 215.62 61.8045 215.609 61.7724L215.24 60.7102C215.235 60.6948 215.233 60.6783 215.235 60.6621C215.236 60.6458 215.242 60.63 215.25 60.616C215.259 60.6019 215.27 60.5898 215.284 60.5805C215.297 60.5712 215.313 60.565 215.329 60.5622L226.773 58.6846C226.781 58.6834 226.788 58.6841 226.795 58.6866C226.802 58.6891 226.809 58.6934 226.814 58.699C226.819 58.7045 226.822 58.7113 226.824 58.7186C226.826 58.7259 226.826 58.7335 226.824 58.7408C225.933 61.8099 224.59 66.4606 222.793 72.6929C222.716 72.9624 222.643 73.3046 222.577 73.7194Z" fill="#131837"/>
<path d="M279.856 65.6879C279.727 65.4668 279.54 65.2941 279.293 65.1698C280.152 64.316 281.071 63.5334 281.933 62.6891C282.288 62.341 282.67 62.0157 283.078 61.7133C283.127 61.6777 283.172 61.6242 283.213 61.553C283.228 61.5279 283.25 61.5075 283.276 61.494L284.042 61.1021C284.048 61.0988 284.054 61.0977 284.061 61.0988C284.067 61.0999 284.073 61.1033 284.078 61.1083C284.082 61.1133 284.084 61.1196 284.085 61.1262C284.085 61.1328 284.083 61.1393 284.079 61.1445C283.749 61.6242 283.416 62.0856 283.078 62.5288C282.832 62.8522 282.442 63.268 281.909 63.776C281.233 64.4201 280.549 65.0574 279.856 65.6879Z" fill="#EEB62D"/>
<path d="M302.822 65.8291C302.636 65.5385 302.345 65.4613 301.947 65.5975C302.413 65.1927 302.893 64.8099 303.388 64.4489C303.968 64.0241 304.676 63.4745 305.512 62.8002C305.673 62.6695 305.828 62.5539 305.977 62.4534C306.138 62.3438 306.285 62.215 306.417 62.0669C306.445 62.0362 306.479 62.0115 306.517 61.9943C306.637 61.9386 306.82 61.8011 307.063 61.5818C307.156 61.4986 307.29 61.4717 307.466 61.5009C307.49 61.5049 307.511 61.5179 307.526 61.5373C307.54 61.5566 307.547 61.5808 307.545 61.6051C307.499 62.0108 307.384 61.9984 307.206 62.2437C307.158 62.3115 307.096 62.3681 307.024 62.4096C306.85 62.5092 306.692 62.627 306.548 62.7632C306.341 62.9596 306.218 63.0725 306.181 63.1017C305.789 63.4073 305.374 63.8459 304.925 64.2077C304.236 64.7651 303.534 65.3055 302.822 65.8291Z" fill="#EEB62D"/>
<path d="M98.7965 62.7236C98.7845 62.6535 98.7355 62.6033 98.687 62.6116C98.6385 62.6199 98.6089 62.6835 98.6209 62.7536C98.6329 62.8238 98.6819 62.8739 98.7304 62.8656C98.7789 62.8573 98.8085 62.7937 98.7965 62.7236Z" fill="#131837"/>
<path d="M288.782 67.2654L289.284 66.5514C289.295 66.5364 289.3 66.5182 289.299 66.4997C289.298 66.4811 289.291 66.4635 289.279 66.4497C289.266 66.4359 289.25 66.4267 289.231 66.4238C289.213 66.4209 289.194 66.4243 289.178 66.4335L287.773 67.2024L292.459 63.258C292.468 63.2498 292.479 63.2438 292.489 63.2402L293.805 62.7824C293.819 62.7773 293.835 62.7773 293.849 62.7823C293.863 62.7873 293.875 62.7971 293.883 62.8101C293.891 62.823 293.894 62.8383 293.892 62.8535C293.89 62.8686 293.883 62.8827 293.872 62.8934C293.404 63.3416 292.968 63.8363 292.407 64.3311C291.241 65.3599 290.033 66.338 288.782 67.2654Z" fill="#EEB62D"/>
<path d="M125.36 72.1567C125.412 72.2079 125.522 72.239 125.69 72.2499L124.975 73.5533C124.967 73.5672 124.955 73.5779 124.94 73.5832C124.925 73.5885 124.91 73.5881 124.896 73.5821H124.894C124.88 73.576 124.868 73.5646 124.862 73.5503C124.856 73.536 124.856 73.5199 124.861 73.5054C125.007 73.1399 125.142 72.7191 125.267 72.2431C125.274 72.2175 125.305 72.1887 125.36 72.1567Z" fill="#131837"/>
<path d="M141.583 73.1504C141.68 73.2482 141.851 73.2938 142.095 73.2874L141.032 75.0993C141.028 75.1059 141.023 75.1112 141.016 75.1145C141.009 75.1177 141.001 75.1189 140.994 75.1177C140.986 75.1165 140.979 75.113 140.974 75.1078C140.969 75.1025 140.965 75.0957 140.963 75.0883C140.957 75.0545 140.963 75.013 140.983 74.9636C141.212 74.3642 141.412 73.7598 141.583 73.1504Z" fill="#131837"/>
<path d="M222.578 73.7192C222.672 73.7841 222.811 73.7905 222.994 73.7384L222.173 75.1706C222.17 75.1769 222.165 75.1823 222.159 75.1861C222.152 75.1899 222.145 75.1922 222.138 75.1926C222.075 75.1971 222.056 75.1569 222.081 75.072C222.216 74.6124 222.381 74.1615 222.578 73.7192Z" fill="#131837"/>
<path d="M93.3381 81.2271C93.2011 81.1559 93.1061 81.1193 93.0531 81.1175C93.043 81.1257 93.0307 81.1262 93.0161 81.1189C93.0137 81.118 93.0116 81.1166 93.01 81.1147C93.0083 81.1128 93.0071 81.1105 93.0064 81.108C93.0058 81.1055 93.0057 81.1028 93.0062 81.1002C93.0066 81.0976 93.0077 81.095 93.0092 81.0928L93.3943 80.5405C93.4034 80.5275 93.4169 80.5181 93.4323 80.5139C93.4477 80.5097 93.464 80.511 93.4783 80.5176C93.4927 80.5242 93.5041 80.5356 93.5106 80.5499C93.517 80.5641 93.5181 80.5802 93.5136 80.5953L93.3381 81.2271Z" fill="#EEB62D"/>
</svg>
