<svg width="362" height="140" viewBox="0 0 362 140" fill="none" xmlns="http://www.w3.org/2000/svg">
<rect width="362" height="140" fill="white"/>
<g clip-path="url(#clip0_269_94016)">
<path d="M69.8131 77.5716L62.252 56.8785L54.6019 77.5716H69.8131ZM73.688 88.4746H50.4511L45.7474 100.109H31.0005L55.8013 38.4998H68.796L93.0556 100.109H78.298L73.688 88.4746ZM124.722 73.8783C124.628 73.5071 123.981 70.9214 122.046 69.0717C120.577 67.6871 118.454 66.7625 115.779 66.7625C112.363 66.7625 110.34 68.1527 109.047 69.443C108.029 70.5502 107.112 72.0286 106.742 73.8783H124.722ZM136.982 81.8188H106.283C106.283 84.0392 107.112 86.9961 108.77 88.8402C110.793 91.0607 113.562 91.4258 115.591 91.4258C117.531 91.4258 119.554 91.0607 120.941 90.2304C121.124 90.1361 122.694 89.1171 123.799 86.8075L136.341 88.1038C134.494 93.9232 130.808 96.9688 128.409 98.4473C124.446 100.851 120.018 101.499 115.408 101.499C109.234 101.499 103.79 100.391 98.9978 95.5847C95.3993 91.9853 92.8183 86.531 92.8183 79.6982C92.8183 73.784 94.9411 67.6876 99.0864 63.44C104.066 58.4508 110.246 57.5262 114.855 57.5262C119.465 57.5262 126.104 58.357 131.172 63.7169C136.064 68.8891 136.982 75.3567 136.982 80.4346V81.8188ZM142.389 58.9131H155.665V65.3807C156.865 63.0716 158.705 60.9454 160.828 59.6496C163.045 58.265 165.344 57.8937 167.931 57.8937C169.589 57.8937 170.788 58.0824 172.259 58.5475L171.524 71.0176C169.771 70.093 167.836 69.5336 165.532 69.5336C162.669 69.5336 160.552 70.5525 158.893 72.3079C155.942 75.4473 155.665 79.8831 155.665 83.3883V100.111H142.389V58.9131ZM189.595 71.7531C187.66 73.6966 186.555 76.1884 186.555 79.511C186.555 83.2981 188.025 85.7017 189.595 87.2688C191.253 88.9355 193.652 90.2257 197.156 90.2257C200.108 90.2257 202.595 89.2124 204.535 87.2688C206.47 85.3309 207.575 82.833 207.575 79.511C207.575 76.1884 206.47 73.6966 204.535 71.7531C202.595 69.8095 200.108 68.7962 197.062 68.7962C194.023 68.7962 191.535 69.8095 189.595 71.7531ZM215.043 94.8436C211.356 98.5374 205.088 101.5 197.062 101.5C189.042 101.5 182.774 98.5374 179.087 94.8436C174.937 90.6908 172.902 84.777 172.902 79.511C172.902 74.2505 174.937 68.3362 179.088 64.1778C182.774 60.484 189.042 57.5276 197.062 57.5276C205.088 57.5276 211.356 60.4845 215.043 64.1778C219.194 68.3362 221.222 74.2505 221.222 79.511C221.222 84.777 219.194 90.6904 215.043 94.8436ZM290.728 64.2012L311.737 38.5352H329.06L304.181 67.7063L331 100.111H312.749L290.728 72.7837V100.111H276.539V38.5348H290.728V64.2012Z" fill="#1C2C4C"/>
<path d="M226.624 100.113H269.797V78.6998H226.624V100.113Z" fill="#FCB44C"/>
</g>
<defs>
<clipPath id="clip0_269_94016">
<rect width="300" height="63" fill="white" transform="translate(31 38.5)"/>
</clipPath>
</defs>
</svg>
