<svg width="362" height="140" viewBox="0 0 362 140" fill="none" xmlns="http://www.w3.org/2000/svg">
<rect width="362" height="140" fill="white"/>
<path fill-rule="evenodd" clip-rule="evenodd" d="M342.052 20.2062C342.393 20.1882 342.967 20.2779 343.308 20.3856C343.649 20.5113 344.17 20.7805 344.475 20.9958C344.78 21.2112 345.228 21.8214 345.516 22.3598C345.821 22.9521 346 23.6162 346 24.0469C346 24.4417 345.821 25.1237 345.623 25.5724C345.426 26.0211 345.121 26.5416 344.959 26.721C344.798 26.9005 344.259 27.2415 343.757 27.4748C343.272 27.7082 342.537 27.9056 342.142 27.9056C341.747 27.9056 341.065 27.762 340.617 27.5646C340.168 27.3851 339.576 26.9544 339.289 26.6313C339.002 26.2903 338.661 25.7519 338.517 25.4288C338.392 25.1237 338.284 24.4776 338.284 23.993C338.284 23.5264 338.427 22.8265 338.607 22.4316C338.786 22.0368 339.235 21.4625 339.594 21.1753C339.953 20.8702 340.527 20.5472 340.85 20.4215C341.155 20.3138 341.711 20.2062 342.052 20.2062ZM275.657 112.079C276.357 112.079 276.878 112.186 277.434 112.474C277.918 112.743 278.439 113.227 278.834 113.784C279.372 114.573 279.444 114.825 279.426 115.794C279.426 116.53 279.3 117.158 279.085 117.589C278.905 117.965 278.475 118.522 278.134 118.809C277.775 119.096 277.183 119.455 276.806 119.563C276.411 119.688 275.909 119.796 275.657 119.796C275.406 119.796 274.85 119.67 274.401 119.527C273.953 119.365 273.361 119.024 273.091 118.755C272.804 118.486 272.409 117.947 272.212 117.553C271.979 117.068 271.853 116.512 271.871 115.848C271.871 115.255 272.015 114.573 272.23 114.143C272.427 113.748 272.732 113.281 272.912 113.12C273.091 112.958 273.558 112.653 273.953 112.456C274.401 112.222 275.047 112.097 275.657 112.079ZM333.259 29.2337C333.798 29.2696 334.372 29.3234 334.516 29.3593C334.659 29.4131 335.054 29.6285 335.395 29.8798C335.736 30.131 336.22 30.6515 336.454 31.0464C336.741 31.495 336.938 32.1411 336.974 32.7514C337.046 33.5949 336.992 33.882 336.543 34.7256C336.166 35.4435 335.79 35.8563 335.144 36.2511C334.426 36.6998 334.085 36.7895 333.188 36.7895C332.398 36.7895 331.86 36.6639 331.285 36.3767C330.837 36.1614 330.316 35.7127 330.119 35.3896C329.922 35.0845 329.671 34.582 329.545 34.2769C329.437 33.9897 329.33 33.3975 329.33 32.9847C329.312 32.5539 329.437 31.9078 329.599 31.5489C329.742 31.172 330.083 30.6336 330.352 30.3464C330.622 30.0593 331.16 29.6824 331.555 29.5029C332.075 29.2516 332.542 29.1798 333.259 29.2337ZM273.468 38.1535C273.881 38.1356 274.527 38.2612 274.904 38.4227C275.263 38.5663 275.801 38.9073 276.088 39.1765C276.375 39.4457 276.752 39.9841 276.931 40.379C277.111 40.7738 277.272 41.4917 277.272 41.9942C277.272 42.4968 277.111 43.2147 276.931 43.6095C276.752 44.0044 276.303 44.5966 275.945 44.9197C275.586 45.2427 274.94 45.5837 274.455 45.7093C273.791 45.8709 273.378 45.8709 272.697 45.6914C272.212 45.5837 271.71 45.476 271.602 45.4401C271.494 45.4222 271.1 45.0453 270.705 44.5966C270.256 44.0941 269.897 43.4659 269.754 42.8916C269.556 42.1199 269.556 41.8507 269.808 41.0071C270.005 40.2892 270.292 39.8226 270.848 39.2842C271.279 38.8714 271.853 38.4586 272.158 38.3509C272.463 38.2432 273.038 38.1535 273.468 38.1535ZM286.155 38.1356C286.693 38.1356 287.375 38.2971 287.86 38.5125C288.308 38.7278 288.829 39.1047 289.026 39.356C289.224 39.6072 289.511 40.0559 289.672 40.361C289.852 40.72 289.959 41.3122 289.941 41.9942C289.923 42.8198 289.816 43.2685 289.439 43.9326C289.116 44.453 288.649 44.9376 288.183 45.2248C287.752 45.476 287.016 45.7273 286.514 45.7811C285.778 45.8888 285.437 45.817 284.63 45.4581C284.055 45.2068 283.445 44.7761 283.176 44.3992C282.925 44.0761 282.62 43.5018 282.494 43.1608C282.387 42.8198 282.297 42.2276 282.297 41.8686C282.297 41.4917 282.423 40.8815 282.584 40.5226C282.728 40.1457 283.069 39.6072 283.338 39.3201C283.607 39.0329 284.145 38.656 284.54 38.4766C284.935 38.2971 285.653 38.1356 286.155 38.1356ZM299.093 38.1715C299.954 38.2074 300.331 38.333 300.941 38.7637C301.372 39.0688 301.856 39.5534 302.036 39.8406C302.215 40.1457 302.467 40.7379 302.574 41.1866C302.754 41.8507 302.736 42.1737 302.502 42.9813C302.341 43.5916 302.018 44.2018 301.641 44.5787C301.318 44.9017 300.816 45.3145 300.511 45.4581C300.188 45.6376 299.524 45.7452 298.806 45.7632C297.801 45.7632 297.532 45.6914 296.85 45.2248C296.401 44.9376 295.827 44.3633 295.558 43.9685C295.199 43.43 295.073 42.9993 295.038 42.2635C295.02 41.6891 295.127 40.9892 295.307 40.5585C295.468 40.1636 295.809 39.6072 296.078 39.3201C296.347 39.0329 296.886 38.656 297.281 38.4586C297.801 38.2253 298.303 38.1356 299.093 38.1715ZM311.511 38.1535C311.923 38.1356 312.605 38.2791 313.036 38.4407C313.449 38.6201 313.987 38.9791 314.238 39.2842C314.489 39.5714 314.83 40.0559 314.992 40.361C315.171 40.6841 315.297 41.3122 315.297 41.9045C315.297 42.4788 315.171 43.1967 314.992 43.6095C314.812 44.0044 314.346 44.5787 313.951 44.9017C313.574 45.2248 312.928 45.5658 312.533 45.6914C312.121 45.7991 311.475 45.835 311.008 45.7632C310.56 45.6914 310.003 45.5299 309.752 45.4042C309.501 45.2786 309.052 44.9017 308.747 44.5607C308.424 44.2377 308.101 43.8069 308.011 43.6095C307.904 43.4121 307.778 42.9275 307.706 42.5327C307.635 42.066 307.688 41.4738 307.868 40.8815C308.047 40.2474 308.376 39.691 308.855 39.2124C309.25 38.8176 309.842 38.4227 310.165 38.333C310.47 38.2432 311.08 38.1535 311.511 38.1535ZM324.018 38.1356C324.413 38.1356 325.041 38.2253 325.418 38.315C325.794 38.4227 326.405 38.8176 326.853 39.2662C327.284 39.697 327.715 40.3251 327.84 40.7379C327.948 41.1328 328.055 41.743 328.055 42.084C328.055 42.425 327.894 43.0531 327.697 43.4839C327.499 43.8967 327.069 44.5069 326.746 44.8299C326.423 45.135 326.028 45.4401 325.884 45.476C325.759 45.5119 325.274 45.6196 324.825 45.7273C324.287 45.835 323.785 45.835 323.3 45.7093C322.905 45.6017 322.259 45.2786 321.865 44.9915C321.47 44.7222 320.985 44.1659 320.806 43.771C320.608 43.3941 320.429 42.748 320.375 42.3532C320.339 41.9584 320.393 41.3122 320.501 40.9174C320.608 40.5226 320.949 39.8765 321.272 39.4996C321.595 39.1047 322.188 38.6381 322.582 38.4586C322.977 38.2971 323.623 38.1356 324.018 38.1356ZM311.547 50.8602C312.228 50.8602 312.767 50.9859 313.341 51.291C313.79 51.5243 314.382 52.0448 314.687 52.4755C315.117 53.1037 315.225 53.4447 315.279 54.4318C315.315 55.4189 315.261 55.7599 314.884 56.4419C314.651 56.8726 314.113 57.4828 313.7 57.7879C313.072 58.2187 312.731 58.3263 311.744 58.3802C310.811 58.434 310.398 58.3802 309.842 58.093C309.447 57.8777 308.909 57.5008 308.639 57.2136C308.388 56.9264 308.029 56.2983 307.85 55.8137C307.599 55.042 307.581 54.7548 307.742 53.9292C307.868 53.337 308.155 52.6729 308.46 52.314C308.729 51.955 309.321 51.4884 309.752 51.273C310.29 51.0038 310.883 50.8602 311.547 50.8602ZM324.287 50.8961C324.933 50.8782 325.454 50.9679 325.83 51.1833C326.135 51.3628 326.638 51.7038 326.925 51.955C327.212 52.1883 327.589 52.7806 327.75 53.2472C327.912 53.7139 328.055 54.3959 328.038 54.7728C328.038 55.1497 327.894 55.7778 327.715 56.1727C327.535 56.5675 327.069 57.1777 326.692 57.5187C326.225 57.9494 325.687 58.2366 325.095 58.3622C324.467 58.5058 323.946 58.5058 323.39 58.3802C322.941 58.2904 322.385 58.093 322.17 57.9494C321.954 57.8059 321.595 57.5008 321.38 57.2854C321.183 57.07 320.86 56.5675 320.68 56.1727C320.483 55.7778 320.339 55.0779 320.339 54.6471C320.339 54.1984 320.483 53.5164 320.662 53.1216C320.842 52.7268 321.326 52.0986 321.721 51.7397C322.134 51.3628 322.654 51.0397 322.87 50.9859C323.103 50.95 323.731 50.9141 324.287 50.8961ZM302.574 59.8519C303.561 59.8519 303.866 59.9237 304.638 60.3903C305.338 60.821 305.625 61.1441 305.948 61.862C306.289 62.6158 306.361 63.0285 306.307 63.908C306.253 64.7874 306.127 65.1822 305.697 65.7924C305.392 66.2232 304.835 66.7616 304.44 66.977C303.92 67.2641 303.436 67.3718 302.61 67.3718C301.856 67.3718 301.264 67.2641 300.816 67.0308C300.439 66.8513 299.972 66.5103 299.757 66.277C299.56 66.0437 299.237 65.5771 299.057 65.2361C298.86 64.8592 298.734 64.1951 298.734 63.6208C298.734 62.9747 298.878 62.3824 299.111 61.9158C299.308 61.521 299.667 61.0184 299.9 60.8031C300.134 60.6057 300.564 60.3005 300.87 60.139C301.193 59.9775 301.856 59.8519 302.574 59.8519ZM324.556 63.5131C325.041 63.567 325.777 63.8003 326.171 64.0336C326.566 64.2669 327.086 64.7694 327.32 65.1643C327.571 65.5412 327.804 65.9001 327.858 65.954C327.912 65.9899 327.984 66.4027 328.02 66.8513C328.055 67.2821 327.984 67.982 327.876 68.3769C327.768 68.7717 327.427 69.3999 327.104 69.7947C326.781 70.1716 326.207 70.6382 325.812 70.8177C325.418 70.9972 324.7 71.1408 324.233 71.1408C323.767 71.1408 323.085 71.0331 322.708 70.8715C322.331 70.71 321.811 70.369 321.524 70.0998C321.237 69.8485 320.86 69.3101 320.68 68.9153C320.483 68.5204 320.339 67.8205 320.339 67.3898C320.327 66.8394 320.489 66.2411 320.824 65.595C321.093 65.0745 321.56 64.4643 321.865 64.2669C322.152 64.0515 322.672 63.7823 323.031 63.6567C323.39 63.5311 324.018 63.4593 324.556 63.5131ZM293.71 68.8614C294.822 68.8973 295.091 68.9871 295.773 69.4717C296.204 69.7768 296.742 70.387 296.958 70.8177C297.245 71.3561 297.37 71.9125 297.37 72.5945C297.37 73.2765 297.245 73.8149 296.958 74.3892C296.706 74.8379 296.186 75.4302 295.755 75.7353C295.145 76.1481 294.768 76.2737 293.889 76.3275C293.189 76.3634 292.525 76.2916 292.077 76.1122C291.682 75.9506 291.09 75.5558 290.785 75.2327C290.48 74.9097 290.085 74.2456 289.923 73.7611C289.726 73.2047 289.654 72.5945 289.726 72.1817C289.78 71.8048 289.977 71.2125 290.175 70.8356C290.354 70.4588 290.695 69.9921 290.928 69.7768C291.162 69.5793 291.592 69.2742 291.897 69.1127C292.274 68.8973 292.794 68.8255 293.71 68.8614ZM324.018 76.184C324.413 76.166 325.005 76.2557 325.364 76.3814C325.705 76.4891 326.261 76.7942 326.602 77.0454C326.943 77.3146 327.409 77.9249 327.625 78.4274C327.858 78.912 328.055 79.6478 328.055 80.0426C328.055 80.4913 327.858 81.1554 327.517 81.8374C327.069 82.6989 326.817 82.986 326.171 83.3091C325.723 83.5244 325.059 83.7577 324.682 83.8295C324.233 83.9013 323.641 83.8295 322.941 83.5962C322.188 83.3629 321.721 83.0757 321.326 82.6091C321.021 82.2681 320.68 81.6579 320.555 81.2631C320.429 80.8862 320.339 80.276 320.339 79.8991C320.339 79.5222 320.465 78.9299 320.608 78.553C320.77 78.1761 321.111 77.6556 321.38 77.3685C321.631 77.0813 322.188 76.7044 322.582 76.507C322.977 76.3275 323.623 76.184 324.018 76.184ZM285.078 77.7274C285.473 77.7813 286.101 78.0146 286.496 78.212C286.891 78.4274 287.447 78.9479 287.752 79.3786C288.165 79.9709 288.326 80.4016 288.362 81.1733C288.398 81.7297 288.344 82.4655 288.237 82.8245C288.129 83.1655 287.734 83.7577 287.357 84.1526C286.998 84.5295 286.424 84.9602 286.101 85.0859C285.778 85.2294 285.096 85.3371 284.576 85.3551C283.948 85.373 283.392 85.2474 282.871 84.9961C282.458 84.7807 281.92 84.35 281.687 84.027C281.454 83.7039 281.13 83.2014 280.987 82.9142C280.825 82.5912 280.736 81.981 280.754 81.4784C280.772 80.9759 280.951 80.258 281.166 79.8632C281.364 79.4683 281.759 78.9299 282.028 78.6966C282.297 78.4453 282.925 78.1043 283.427 77.9249C284.02 77.7454 284.612 77.6736 285.078 77.7274ZM250.715 86.7011C251.055 86.7729 251.576 86.8985 251.881 87.0242C252.168 87.1498 252.653 87.4729 252.94 87.76C253.227 88.0472 253.604 88.6215 253.783 89.0163C253.962 89.4112 254.106 90.0752 254.106 90.488C254.124 90.9008 253.998 91.5469 253.837 91.9238C253.693 92.3007 253.299 92.857 252.993 93.1981C252.67 93.5211 252.132 93.916 251.791 94.0595C251.432 94.1852 250.75 94.3108 250.266 94.3108C249.763 94.2928 249.046 94.1493 248.651 93.9518C248.256 93.7544 247.7 93.3955 247.431 93.1442C247.161 92.8929 246.821 92.3186 246.677 91.8879C246.516 91.4392 246.408 90.8469 246.408 90.5777C246.408 90.3085 246.498 89.7701 246.605 89.3753C246.713 88.9804 247.144 88.2984 247.556 87.8677C248.077 87.3113 248.543 87.0242 249.189 86.8447C249.674 86.7191 250.356 86.6473 250.715 86.7011ZM263.455 86.6832C263.796 86.737 264.155 86.8088 264.263 86.8267C264.352 86.8447 264.729 87.0601 265.088 87.3113C265.447 87.5446 265.914 87.9933 266.129 88.2984C266.326 88.5856 266.577 89.1599 266.685 89.5547C266.811 89.9855 266.829 90.5777 266.757 91.0803C266.685 91.511 266.613 91.9238 266.595 91.9956C266.595 92.0674 266.308 92.4622 265.967 92.875C265.591 93.3237 264.998 93.8083 264.532 94.0057C263.922 94.257 263.437 94.3287 262.648 94.2749C261.822 94.2211 261.374 94.0595 260.781 93.6647C260.243 93.2878 259.866 92.8391 259.543 92.1571C259.166 91.3315 259.095 90.9905 259.166 90.1829C259.22 89.5727 259.436 88.9086 259.687 88.4779C259.938 88.101 260.369 87.6164 260.674 87.419C260.961 87.2036 261.571 86.9344 262.02 86.8088C262.45 86.7011 263.096 86.6293 263.455 86.6832ZM276.016 86.7191C276.447 86.7729 277.147 86.9703 277.542 87.1677C277.936 87.3831 278.385 87.7062 278.564 87.9215C278.726 88.1189 278.995 88.6215 279.157 89.0163C279.354 89.4829 279.426 90.0932 279.39 90.829C279.336 91.7264 279.228 92.0853 278.762 92.7135C278.457 93.1442 277.847 93.6826 277.416 93.9159C276.788 94.257 276.429 94.3108 275.46 94.2749C274.545 94.2211 274.114 94.0954 273.522 93.7185C273.109 93.4314 272.571 92.8571 272.302 92.3725C271.943 91.7264 271.817 91.2777 271.835 90.5418C271.835 89.9675 271.979 89.2855 272.158 88.9266C272.32 88.5676 272.643 88.101 272.84 87.8677C273.055 87.6344 273.45 87.3293 273.737 87.1677C274.007 87.0062 274.455 86.8267 274.724 86.755C274.976 86.6652 275.568 86.6652 276.016 86.7191ZM324.144 88.9266C324.825 88.9266 325.418 89.0343 325.848 89.2676C326.225 89.4471 326.746 89.824 327.015 90.1111C327.266 90.3983 327.625 90.9187 327.768 91.2956C327.93 91.6725 328.055 92.3186 328.038 92.7314C328.038 93.1442 327.894 93.8262 327.715 94.2211C327.535 94.6159 327.14 95.1723 326.871 95.4415C326.584 95.7286 326.064 96.0876 325.723 96.2312C325.364 96.3747 324.682 96.5004 324.197 96.5183C323.695 96.5183 322.977 96.3747 322.582 96.1953C322.188 96.0158 321.775 95.8722 321.685 95.9081C321.577 95.926 321.56 95.8722 321.631 95.8004C321.703 95.7107 321.613 95.5312 321.416 95.3876C321.237 95.2261 320.914 94.7415 320.716 94.3108C320.501 93.8621 320.339 93.1263 320.339 92.6955C320.339 92.2468 320.483 91.5648 320.68 91.17C320.86 90.7752 321.237 90.2367 321.524 89.9675C321.811 89.7163 322.277 89.3753 322.582 89.2137C322.87 89.0522 323.569 88.9266 324.144 88.9266ZM275.478 99.3361C275.819 99.3361 276.393 99.4078 276.77 99.5155C277.147 99.6053 277.739 99.9463 278.098 100.269C278.457 100.592 278.905 101.149 279.085 101.526C279.282 101.938 279.426 102.585 279.426 103.195C279.426 103.733 279.336 104.379 279.246 104.631C279.139 104.864 278.798 105.366 278.475 105.725C278.152 106.084 277.577 106.533 277.183 106.712C276.788 106.892 276.088 107.035 275.657 107.035C275.209 107.035 274.491 106.874 274.078 106.677C273.666 106.479 273.109 106.102 272.84 105.833C272.589 105.564 272.248 105.061 272.104 104.72C271.961 104.361 271.853 103.679 271.853 103.195C271.853 102.692 271.943 102.046 272.069 101.759C272.176 101.454 272.517 100.933 272.84 100.61C273.145 100.269 273.737 99.8565 274.132 99.6591C274.527 99.4796 275.119 99.3361 275.478 99.3361Z" fill="#001B94" fill-opacity="0.98"/>
<g clip-path="url(#clip0_233_8022)">
<path fill-rule="evenodd" clip-rule="evenodd" d="M173.444 89.8036C168.42 94.0716 162.505 96.2039 155.714 96.2039C148.426 96.2039 142.115 93.65 136.799 88.553C131.529 83.4034 128.889 77.1373 128.889 69.7799C128.889 62.4214 131.528 56.1529 136.798 51.0032C142.112 45.8092 148.424 43.2039 155.713 43.2039C160.029 43.2039 163.819 43.9106 167.084 45.3409C170.348 46.7172 173.639 49.0722 176.963 52.3856L177.235 52.6563L172.129 58.145L171.836 57.9018C168.589 55.1982 166.094 53.3858 164.334 52.4383C161.726 51.0691 158.856 50.3815 155.714 50.3827C150.289 50.3815 145.783 52.2742 142.175 56.0583C138.558 59.8507 136.752 64.4146 136.751 69.7799C136.752 75.0925 138.556 79.6336 142.175 83.4249C145.783 87.2114 150.288 89.1005 155.713 89.1005C160.728 89.1017 164.951 87.6546 168.416 84.7725C172.007 81.7922 173.848 77.9746 173.946 73.2957H156.259V66.1887L181.886 66.1875L181.887 70.8652C181.886 78.7077 179.076 85.0337 173.444 89.8036ZM217.563 90.8757C213.945 94.3292 209.598 96.0601 204.544 96.0601C199.541 96.0601 195.219 94.328 191.602 90.8757C187.976 87.4115 186.163 83.0033 186.163 77.6799C186.163 72.4093 187.951 68.0262 191.527 64.5632C195.145 61.057 199.492 59.3009 204.544 59.3009C209.552 59.3009 213.872 61.0558 217.49 64.5608C221.165 68.0226 223 72.4057 223 77.6811C223 83.0033 221.191 87.4103 217.563 90.8757ZM212.408 69.3295C210.356 67.1901 207.745 66.1168 204.544 66.1168C201.297 66.1168 198.662 67.1901 196.609 69.3295C194.606 71.415 193.59 74.1869 193.59 77.6811C193.59 81.125 194.629 83.8957 196.682 86.0351C198.737 88.1745 201.347 89.2466 204.544 89.2466C207.745 89.2466 210.354 88.1745 212.408 86.0351C214.463 83.8957 215.502 81.1238 215.502 77.6811C215.502 74.2408 214.463 71.4677 212.408 69.3295ZM123.482 55.6222C122.753 56.4512 121.684 56.8369 120.349 56.8357C119.095 56.8369 118.033 56.432 117.22 55.6222C116.472 54.7729 116.091 53.7488 116.091 52.594C116.091 51.4381 116.465 50.4426 117.219 49.64C117.99 48.8147 119.052 48.4242 120.351 48.4242C121.609 48.4242 122.644 48.8447 123.41 49.7107C124.204 50.5085 124.609 51.4752 124.609 52.594C124.609 53.7919 124.239 54.8113 123.482 55.6222ZM116.748 95.3366V60.0256H123.954V95.3366H116.748ZM106.755 90.714C103.421 94.2813 99.1146 96.0601 93.8687 96.0601C88.3282 96.0601 83.8243 94.1603 80.3932 90.345C77.1642 86.7346 75.5587 82.2127 75.5587 76.8091C75.5587 71.9265 77.2243 67.7867 80.552 64.4242C83.9254 61.0139 87.9566 59.3009 92.63 59.3009C96.3305 59.3009 99.675 60.1131 102.65 61.7422L102.858 61.8572V69.5164L102.233 69.0923C101.052 68.2946 99.6461 67.6046 98.0238 67.032C96.4556 66.4199 95.0196 66.1168 93.722 66.1168C90.3678 66.1168 87.7136 67.1721 85.7137 69.2565C83.7101 71.3455 82.6951 74.1126 82.6951 77.6092C82.6951 81.0507 83.7305 83.849 85.7882 86.0363C87.8892 88.1745 90.5711 89.2466 93.8675 89.2466C96.9535 89.2466 99.4898 88.0859 101.502 85.7584C103.549 83.4393 104.605 80.0421 104.605 75.5058V44.0735H111.811V76.6653C111.811 82.4019 110.135 87.1 106.755 90.714ZM64.0723 95.3354V74.7811C64.0723 72.2631 63.2762 70.2112 61.7043 68.6012C60.1818 66.9445 58.2949 66.1168 56.0279 66.1168C53.8632 66.1168 51.9751 66.9374 50.3455 68.606C48.7761 70.2148 47.9847 72.2631 47.9847 74.7811V95.3354H40.8507V74.7811C40.8507 70.2447 42.265 66.5145 45.1128 63.6252C47.9643 60.736 51.6131 59.3009 56.0279 59.3009C60.3971 59.3009 64.0447 60.7384 66.9394 63.624C69.8389 66.5109 71.2785 70.2435 71.2797 74.7811L71.2785 95.3354H64.0723ZM29 95.3354V44.0735H36.5694L36.5706 95.3354H29Z" fill="#001B94"/>
</g>
<defs>
<clipPath id="clip0_233_8022">
<rect width="194" height="53" fill="white" transform="translate(29 43.2039)"/>
</clipPath>
</defs>
</svg>
