<svg width="362" height="140" viewBox="0 0 362 140" fill="none" xmlns="http://www.w3.org/2000/svg">
<rect width="362" height="140" fill="white"/>
<path d="M104.389 61.4899C112.511 48.6541 127.039 43.4485 141.861 45.0668C149.786 45.9344 158.324 50.3032 158.827 59.2439C159.035 62.9359 158.441 66.593 157.044 70.2152C157.019 70.2804 156.975 70.3365 156.917 70.3761C156.859 70.4156 156.79 70.4368 156.72 70.4368H122.776C122.673 70.437 122.574 70.4742 122.495 70.5417C122.417 70.6093 122.364 70.7029 122.347 70.806C121.618 75.5501 124.858 78.3068 129.256 79.0821C135.754 80.2328 142.314 78.276 147.661 74.461C147.877 74.3077 148.14 74.236 148.403 74.2585C148.666 74.2811 148.913 74.3964 149.1 74.5841L152.12 77.6176C152.187 77.6849 152.24 77.7658 152.274 77.8549C152.308 77.944 152.323 78.0393 152.317 78.1346C152.312 78.2299 152.287 78.323 152.243 78.4079C152.2 78.4927 152.139 78.5673 152.065 78.6268C141.902 86.8148 130.222 89.916 117.025 87.9306C108.499 86.6507 100.702 81.5988 101.204 71.8705C101.205 71.8471 101.197 71.8243 101.183 71.8061C101.168 71.7879 101.148 71.7755 101.125 71.7711C101.102 71.7666 101.078 71.7705 101.058 71.7819C101.038 71.7934 101.022 71.8117 101.014 71.8336L96.3105 86.9891C96.279 87.0923 96.215 87.1826 96.128 87.2468C96.0409 87.3111 95.9352 87.3458 95.8266 87.346H72.2093C72.1562 87.3454 72.104 87.3324 72.0568 87.308C72.0095 87.2837 71.9686 87.2487 71.9371 87.2057C71.9056 87.1628 71.8845 87.1131 71.8754 87.0605C71.8663 87.008 71.8695 86.954 71.8846 86.9029L78.181 66.6217C78.1954 66.5737 78.1986 66.5229 78.1904 66.4735C78.1821 66.424 78.1625 66.3774 78.1333 66.3372C78.1041 66.2971 78.066 66.2646 78.0222 66.2424C77.9783 66.2202 77.9299 66.2089 77.8808 66.2095H62.14C62.0461 66.2093 61.9545 66.2397 61.8785 66.2961C61.8025 66.3526 61.7461 66.4321 61.7174 66.5233L55.3599 87.0014C55.3296 87.1012 55.2687 87.1887 55.1859 87.2507C55.1032 87.3128 55.0031 87.3462 54.9005 87.346H31.277C31.2334 87.3462 31.1903 87.336 31.1513 87.3162C31.1123 87.2965 31.0786 87.2676 31.0529 87.2322C31.0272 87.1967 31.0102 87.1556 31.0034 87.1123C30.9966 87.069 31.0001 87.0246 31.0137 86.9829L47.0056 35.443C47.0448 35.3166 47.1235 35.206 47.2304 35.1274C47.3373 35.0489 47.4667 35.0064 47.5997 35.0061H70.9475C71.0105 35.0063 71.0725 35.0213 71.1287 35.0498C71.1848 35.0784 71.2336 35.1196 71.271 35.1704C71.3085 35.2212 71.3337 35.2801 71.3445 35.3424C71.3553 35.4047 71.3515 35.4686 71.3334 35.5292L65.5577 54.1306C65.5482 54.1616 65.546 54.1945 65.5513 54.2265C65.5566 54.2585 65.5693 54.2889 65.5883 54.3152C65.6073 54.3414 65.6322 54.3629 65.6609 54.3779C65.6896 54.3928 65.7214 54.4008 65.7537 54.4013H81.764C81.8239 54.4015 81.8824 54.3826 81.9308 54.3472C81.9793 54.3118 82.0152 54.2618 82.0335 54.2044L87.8949 35.3138C87.9235 35.2231 87.9804 35.1438 88.0575 35.0874C88.1345 35.031 88.2277 35.0004 88.3237 35H111.965C112.019 35.0006 112.072 35.0137 112.12 35.0382C112.168 35.0627 112.209 35.0979 112.241 35.1411C112.272 35.1842 112.293 35.234 112.302 35.2864C112.31 35.3389 112.306 35.3925 112.29 35.443L104.23 61.416C104.22 61.4373 104.219 61.4615 104.227 61.4834C104.235 61.5053 104.252 61.5232 104.273 61.533C104.294 61.5428 104.318 61.5437 104.34 61.5356C104.362 61.5276 104.379 61.5111 104.389 61.4899ZM124.35 61.656C124.332 61.6917 124.324 61.7313 124.326 61.7711C124.327 61.811 124.339 61.8497 124.36 61.8836C124.381 61.9175 124.41 61.9455 124.445 61.9649C124.479 61.9843 124.518 61.9945 124.558 61.9945L138.682 61.9822C138.8 61.9826 138.914 61.9444 139.008 61.8733C139.102 61.8021 139.171 61.7021 139.203 61.5883C140.115 58.4071 139.907 54.5982 135.797 54.0506C129.954 53.2753 126.696 56.9057 124.35 61.656Z" fill="#0C347C"/>
<path d="M168.797 35.0677H189.677C189.72 35.0678 189.762 35.0779 189.8 35.0974C189.839 35.1168 189.872 35.145 189.897 35.1797C189.923 35.2143 189.94 35.2546 189.948 35.2971C189.955 35.3396 189.952 35.3833 189.94 35.4246L173.887 87.1491C173.87 87.2059 173.835 87.2558 173.787 87.2912C173.74 87.3267 173.683 87.3459 173.623 87.346H152.744C152.701 87.3459 152.659 87.3357 152.62 87.3163C152.582 87.2969 152.549 87.2687 152.523 87.234C152.497 87.1993 152.48 87.1591 152.473 87.1166C152.465 87.0741 152.468 87.0304 152.481 86.9891L168.534 35.2646C168.551 35.2077 168.586 35.1579 168.633 35.1224C168.68 35.087 168.738 35.0678 168.797 35.0677Z" fill="#0C347C"/>
<path d="M191.992 42.4701L194.209 35.3138C194.226 35.257 194.261 35.2072 194.309 35.1717C194.356 35.1362 194.414 35.1171 194.473 35.1169H215.389C215.432 35.117 215.474 35.1272 215.513 35.1466C215.551 35.1661 215.584 35.1943 215.61 35.2289C215.636 35.2636 215.653 35.3038 215.66 35.3463C215.667 35.3888 215.665 35.4325 215.652 35.4738L213.429 42.6301C213.412 42.687 213.377 42.7368 213.33 42.7722C213.282 42.8077 213.225 42.8269 213.166 42.827H192.256C192.213 42.8269 192.17 42.8168 192.132 42.7973C192.094 42.7779 192.06 42.7497 192.035 42.715C192.009 42.6803 191.992 42.6401 191.985 42.5976C191.977 42.5551 191.98 42.5114 191.992 42.4701Z" fill="#0C347C"/>
<path d="M244.352 35.1108C244.399 35.1107 244.445 35.1217 244.487 35.1427C244.529 35.1638 244.565 35.1943 244.593 35.232C244.621 35.2697 244.64 35.3134 244.648 35.3596C244.656 35.4059 244.654 35.4534 244.64 35.4984C235.829 64.1358 230.68 80.803 229.193 85.5C228.128 88.8761 226.539 92.0451 224.428 95.0069C217.679 104.483 203.671 105.486 193.253 104.846C186.528 104.432 179.756 103.361 172.937 101.634C172.878 101.619 172.822 101.592 172.774 101.555C172.725 101.518 172.685 101.471 172.655 101.418C172.625 101.365 172.606 101.307 172.6 101.247C172.594 101.186 172.6 101.125 172.618 101.068L174.499 95.0007C174.533 94.8961 174.603 94.8076 174.697 94.752C174.791 94.6964 174.901 94.6776 175.007 94.6992C183.888 96.459 192.42 98.1512 200.045 92.3917C203.708 89.6227 204.755 86.0477 206.25 81.0943C206.691 79.638 211.391 64.3881 220.349 35.3446C220.369 35.2772 220.409 35.218 220.465 35.1759C220.52 35.1337 220.587 35.1109 220.655 35.1108H244.352Z" fill="#0C347C"/>
<path d="M292.267 60.2346C292.222 63.4466 291.638 66.714 290.515 70.0368C290.476 70.152 290.401 70.2518 290.303 70.3224C290.204 70.393 290.085 70.4309 289.964 70.4306H256.069C255.969 70.43 255.872 70.4669 255.798 70.5339C255.723 70.601 255.676 70.6936 255.665 70.7936C255.392 73.3083 255.851 75.1317 257.043 76.2639C259.134 78.2494 261.761 79.2975 264.926 79.4082C271.051 79.6175 276.202 77.7776 281.028 74.4856C281.247 74.3369 281.511 74.2691 281.773 74.2938C282.036 74.3185 282.281 74.4342 282.467 74.621L285.444 77.6176C285.508 77.6815 285.557 77.758 285.59 77.8421C285.623 77.9263 285.638 78.0162 285.633 78.1061C285.629 78.196 285.607 78.2839 285.567 78.364C285.527 78.4442 285.47 78.5148 285.401 78.5714C276.524 85.8774 266.177 89.155 254.361 88.4043C250.257 88.1459 246.666 87.3275 243.587 85.9492C232.158 80.8358 232.764 69.3292 238.656 60.0869C245.89 48.728 260.54 43.9346 273.513 44.9191C277.22 45.2021 280.491 45.9959 283.325 47.3004C288.739 49.7945 291.702 53.8065 292.212 59.3362C292.216 59.3625 292.228 59.3872 292.247 59.406C292.267 59.4248 292.291 59.4367 292.317 59.4396C292.343 59.4425 292.369 59.4363 292.39 59.4219C292.411 59.4075 292.426 59.386 292.432 59.3608L295.109 50.7278C295.148 50.6049 295.225 50.4976 295.328 50.4213C295.432 50.345 295.556 50.3037 295.685 50.3032H300.517C300.636 50.3033 300.752 50.2652 300.848 50.1943C300.944 50.1234 301.015 50.0236 301.05 49.9094L303.855 40.8764C303.897 40.7375 303.983 40.6158 304.1 40.5294C304.217 40.443 304.359 40.3964 304.504 40.3964H325.029C325.069 40.3967 325.108 40.4062 325.144 40.4244C325.179 40.4425 325.21 40.4688 325.234 40.501C325.258 40.5333 325.274 40.5706 325.281 40.6101C325.288 40.6497 325.285 40.6902 325.274 40.7287L322.444 49.8479C322.428 49.8975 322.423 49.9504 322.432 50.0021C322.44 50.0538 322.46 50.103 322.491 50.1455C322.522 50.1881 322.563 50.2229 322.61 50.2471C322.657 50.2713 322.71 50.2842 322.763 50.2847H330.608C330.67 50.2849 330.73 50.2995 330.785 50.3273C330.84 50.3552 330.887 50.3956 330.924 50.4453C330.96 50.495 330.984 50.5526 330.994 50.6134C331.005 50.6742 331 50.7366 330.982 50.7955L328.208 59.7362C328.178 59.8311 328.119 59.9139 328.039 59.9726C327.96 60.0312 327.864 60.0627 327.767 60.0623H319.572C319.478 60.0621 319.386 60.0919 319.311 60.1474C319.236 60.2028 319.182 60.2809 319.155 60.37C317.636 65.3952 316.383 69.4317 315.394 72.4796C314.304 75.8578 313.453 79.5375 318.181 79.8205C319.704 79.9108 320.799 79.8472 321.464 79.6298C321.607 79.5834 321.759 79.5703 321.907 79.5915C322.056 79.6126 322.198 79.6674 322.322 79.7517C322.446 79.836 322.549 79.9476 322.623 80.0779C322.698 80.2082 322.741 80.3538 322.75 80.5035L322.977 84.2201C322.993 84.4814 322.931 84.7415 322.799 84.9664C322.667 85.1914 322.471 85.3709 322.236 85.4815C316.491 88.189 310.403 89.3089 303.972 88.8412C298.753 88.4659 292.206 85.9369 292.402 79.8636C292.459 78.194 292.865 76.1655 293.621 73.778C294.16 72.0674 295.57 67.5488 297.853 60.2223C297.859 60.2031 297.86 60.1828 297.856 60.163C297.853 60.1433 297.845 60.1246 297.833 60.1085C297.821 60.0923 297.806 60.0792 297.788 60.0701C297.77 60.0611 297.75 60.0563 297.73 60.0562H292.445C292.399 60.0562 292.354 60.0748 292.321 60.1081C292.288 60.1414 292.269 60.1868 292.267 60.2346ZM257.686 61.656C257.669 61.6917 257.66 61.7313 257.662 61.7711C257.664 61.8109 257.676 61.8497 257.696 61.8836C257.717 61.9175 257.747 61.9455 257.781 61.9649C257.816 61.9843 257.855 61.9945 257.895 61.9944H272.043C272.161 61.9949 272.275 61.9566 272.369 61.8855C272.463 61.8144 272.531 61.7144 272.564 61.6006C273.482 58.4132 273.274 54.5982 269.158 54.0444C263.309 53.2629 260.038 56.8995 257.686 61.656Z" fill="#0C347C"/>
<path d="M191.08 46.7466H211.794C211.85 46.7461 211.905 46.7588 211.955 46.7837C212.005 46.8086 212.048 46.845 212.082 46.89C212.115 46.9349 212.138 46.9871 212.147 47.0424C212.157 47.0977 212.153 47.1545 212.137 47.2081L199.777 87.026C199.754 87.0996 199.709 87.1639 199.647 87.2094C199.585 87.2548 199.51 87.279 199.434 87.2783H178.726C178.67 87.2788 178.615 87.2661 178.565 87.2412C178.515 87.2163 178.471 87.1799 178.438 87.1349C178.404 87.09 178.382 87.0377 178.372 86.9825C178.363 86.9272 178.366 86.8704 178.383 86.8168L190.737 46.9989C190.759 46.9253 190.805 46.861 190.866 46.8155C190.928 46.77 191.003 46.7459 191.08 46.7466Z" fill="#0C347C"/>
</svg>
