<svg width="362" height="140" viewBox="0 0 362 140" fill="none" xmlns="http://www.w3.org/2000/svg">
<rect width="362" height="140" fill="white"/>
<g clip-path="url(#clip0_361_240666)">
<path d="M144.126 93.1581L146.517 98.5098H141.716L144.126 93.1581ZM143.527 92.3191L138.703 102.749L139.776 102.774L141.258 99.5432H146.981L148.445 102.774H149.5L144.73 92.3184L143.527 92.3191Z" fill="#042CA4"/>
<path d="M170.914 92.3193V102.749L171.962 102.774V92.3193H170.914Z" fill="#042CA4"/>
<mask id="mask0_361_240666" style="mask-type:luminance" maskUnits="userSpaceOnUse" x="31" y="37" width="300" height="66">
<path d="M331 37H31V102.999H331V37Z" fill="white"/>
</mask>
<g mask="url(#mask0_361_240666)">
<path d="M194.469 102.749V92.3191H199.519C200.506 92.2496 201.49 92.4974 202.327 93.0261C202.644 93.2744 202.895 93.5966 203.059 93.9645C203.223 94.3324 203.294 94.7348 203.267 95.1366C203.297 95.7234 203.145 96.3052 202.832 96.8025C202.487 97.2553 202.004 97.5832 201.456 97.7364C201.886 97.7769 202.289 97.9631 202.598 98.264C202.881 98.6993 203.04 99.2032 203.059 99.7218C203.09 99.9932 203.128 100.353 203.16 100.839C203.141 101.508 203.282 102.172 203.57 102.776H202.352C202.194 102.23 202.107 101.666 202.093 101.097C202.049 100.378 202.018 99.9238 201.992 99.7218C201.981 99.5087 201.926 99.3002 201.829 99.1099C201.732 98.9196 201.596 98.7519 201.431 98.6176C200.98 98.3633 200.464 98.2492 199.948 98.2897H195.531V102.776L194.469 102.749ZM199.233 93.2846H195.516V97.2977H199.361C200.111 97.358 200.862 97.1932 201.519 96.8243C201.749 96.6416 201.929 96.4047 202.045 96.1349C202.161 95.8651 202.207 95.5708 202.181 95.2784C202.21 94.9876 202.164 94.6943 202.048 94.4261C201.932 94.1579 201.75 93.9236 201.519 93.7452C200.825 93.3732 200.039 93.2069 199.254 93.2658L199.233 93.2846Z" fill="#042CA4"/>
<path d="M227.942 102.749L224.484 92.3193H225.601L228.656 101.853L231.66 92.3193H232.921L235.881 101.853L238.995 92.3193H240.087L236.544 102.775H235.168L232.264 93.4357L229.311 102.774L227.942 102.749Z" fill="#042CA4"/>
<path d="M259.969 102.749L264.793 92.3193H265.991L270.761 102.775H269.706L268.242 99.5442H262.52L261.043 102.775L259.969 102.749ZM262.984 98.5093H267.779L265.388 93.1575L262.984 98.5093Z" fill="#042CA4"/>
<path d="M294.513 102.749V98.2311L290.008 92.3193H291.339L295.032 97.4178L298.774 92.3193H300.036L295.531 98.2568V102.775L294.513 102.749Z" fill="#042CA4"/>
<path d="M321.085 99.3104H322.14V99.367C322.133 99.7312 322.21 100.092 322.367 100.421C322.525 100.75 322.757 101.037 323.045 101.26C323.742 101.774 324.596 102.031 325.462 101.986C326.291 102.028 327.114 101.823 327.828 101.398C328.099 101.238 328.323 101.009 328.477 100.734C328.631 100.459 328.71 100.149 328.705 99.8336C328.718 99.6176 328.679 99.4017 328.591 99.2041C328.503 99.0064 328.369 98.8327 328.2 98.6976C327.552 98.3325 326.838 98.1017 326.099 98.0192L323.866 97.628C323.169 97.5508 322.518 97.2471 322.011 96.7635C321.579 96.2891 321.352 95.6632 321.38 95.0223C321.368 94.595 321.459 94.1711 321.646 93.7866C321.832 93.4021 322.109 93.0684 322.452 92.8137C323.341 92.2717 324.363 91.9877 325.403 91.9932C326.444 91.9988 327.463 92.2939 328.345 92.8454C328.702 93.1278 328.989 93.4876 329.186 93.8975C329.383 94.3074 329.484 94.7567 329.481 95.2115H328.434C328.419 94.8845 328.333 94.5646 328.182 94.2745C328.03 93.9844 327.817 93.7312 327.556 93.5328C326.916 93.1112 326.157 92.9077 325.392 92.9524C324.637 92.9144 323.888 93.1035 323.241 93.4951C322.992 93.6502 322.788 93.8673 322.649 94.1249C322.51 94.3826 322.44 94.6721 322.446 94.965C322.437 95.1848 322.483 95.4034 322.58 95.6009C322.677 95.7984 322.822 95.9684 323.001 96.0956C323.638 96.4408 324.337 96.6553 325.058 96.7265L327.046 97.0733C327.814 97.162 328.539 97.4747 329.131 97.9725C329.359 98.2106 329.536 98.4932 329.65 98.8026C329.764 99.1121 329.813 99.4418 329.793 99.771C329.814 100.227 329.722 100.681 329.526 101.094C329.33 101.506 329.037 101.864 328.67 102.137C327.742 102.763 326.633 103.062 325.516 102.989C324.345 103.056 323.187 102.72 322.235 102.036C321.843 101.726 321.531 101.328 321.324 100.873C321.117 100.419 321.02 99.9223 321.042 99.4235L321.085 99.3104Z" fill="#042CA4"/>
<path d="M137.484 86.5055V62.2666H151.416L155.512 77.0314L159.929 62.2666H173.652V86.5055H164.97V67.5792L159.203 86.5055H151.877L146.198 67.5762V86.5055H137.484Z" fill="#042CA4"/>
<path d="M178.125 86.5055V62.2666H203.806V68.2169H187.533V71.1H200.724V77.0834H187.533V80.238H204.626V86.4829L178.125 86.5055Z" fill="#042CA4"/>
<path d="M206.789 62.2344H222.323C227.346 62.2344 231.176 63.269 233.813 65.3384C236.45 67.4077 237.767 70.4258 237.763 74.3927C237.763 78.351 236.451 81.3585 233.826 83.4153C231.201 85.4721 227.367 86.5022 222.323 86.5057H206.789V62.2344ZM216.178 68.2472V80.0655H220.847C223.283 80.0655 225.028 79.6027 226.084 78.6771C227.14 77.7515 227.667 76.2414 227.667 74.1469C227.667 72.0439 227.133 70.5402 226.064 69.6356C224.996 68.7311 223.257 68.2683 220.846 68.2472H216.178Z" fill="#042CA4"/>
<path d="M239.376 79.1318H250.734C250.789 79.4697 250.932 79.7873 251.148 80.0529C251.363 80.3186 251.645 80.5232 251.964 80.6462C252.911 81.0465 253.935 81.2299 254.961 81.1828C255.93 81.2332 256.899 81.085 257.808 80.7472C258.064 80.6574 258.287 80.4931 258.449 80.2755C258.612 80.0579 258.705 79.7968 258.718 79.5257C258.731 79.2546 258.663 78.9859 258.522 78.7539C258.381 78.5219 258.174 78.3372 257.928 78.2235C257.136 77.842 256.28 77.6119 255.404 77.5451L248.386 76.6768C245.483 76.3316 243.296 75.5512 241.823 74.3356C241.105 73.7491 240.532 73.004 240.15 72.1589C239.768 71.3137 239.587 70.3916 239.621 69.4647C239.552 68.2611 239.829 67.0627 240.419 66.0115C241.01 64.9603 241.889 64.1003 242.953 63.5333C245.174 62.2886 248.717 61.6577 253.581 61.6406C258.629 61.6406 262.381 62.2715 264.838 63.5333C265.974 64.041 266.947 64.8532 267.65 65.8801C268.353 66.9069 268.758 68.1082 268.819 69.3509H257.934C257.869 68.969 257.709 68.6098 257.467 68.3073C257.225 68.0047 256.91 67.7688 256.552 67.6218C255.489 67.1859 254.343 66.9878 253.195 67.0414C252.349 67.0035 251.505 67.1522 250.722 67.4771C250.471 67.5569 250.25 67.7114 250.088 67.92C249.927 68.1285 249.832 68.3812 249.818 68.6446C249.818 68.8691 249.883 69.0887 250.007 69.2763C250.13 69.4638 250.306 69.6111 250.512 69.6999C251.442 70.0539 252.417 70.2789 253.408 70.3685L261.983 71.5421C264.666 71.9291 266.666 72.708 267.984 73.8788C268.643 74.4748 269.163 75.2093 269.505 76.0296C269.848 76.8499 270.004 77.7358 269.964 78.6238C270.018 79.9827 269.67 81.3273 268.966 82.4906C268.261 83.6539 267.231 84.5847 266.002 85.1673C263.356 86.5512 259.188 87.2451 253.496 87.2492C248.973 87.2492 245.501 86.5489 243.079 85.1484C241.967 84.5856 241.032 83.726 240.378 82.6648C239.725 81.6035 239.377 80.3821 239.375 79.1356" fill="#042CA4"/>
<path d="M272.906 86.5055V62.2666H282.295V70.6583L290.93 62.2666H303.625L293.533 71.0367L304.644 86.5055H292.933L286.396 76.6689L282.295 79.9937V86.5055H272.906Z" fill="#042CA4"/>
<path d="M310.808 86.5055V79.656L300.18 62.2666H311.203L315.563 72.2488L320.2 62.2666H330.999L320.197 79.656V86.5055H310.808Z" fill="#042CA4"/>
<path d="M61.7656 82.5957C50.7938 86.6541 40.4523 92.2466 31.0495 99.2065C31.0252 99.2224 31.0083 99.2473 31.0023 99.2757C30.9964 99.3041 31.002 99.3337 31.0179 99.358C31.0338 99.3823 31.0586 99.3993 31.0871 99.4052C31.1155 99.4112 31.1451 99.4056 31.1694 99.3897C37.6412 95.3841 45.0211 93.081 52.6224 92.6947C57.8023 92.3857 62.8066 93.5238 67.4882 95.0668C69.047 95.518 70.5816 96.0486 72.0862 96.6565L61.7656 82.5957Z" fill="#001C6F"/>
<path d="M120.529 66.6764C112.598 69.4149 109.102 70.6767 100.079 74.5005C96.1665 76.2507 92.3539 78.216 88.6586 80.3875C86.3318 81.8241 84.1146 83.4313 82.0254 85.1958C78.1131 88.4093 74.7579 92.2466 72.0953 96.5528V96.6282C57.8659 79.8153 48.385 59.5073 44.6325 37.8033C44.6108 37.6564 44.6365 37.5064 44.7057 37.3749C44.7749 37.2435 44.8841 37.1375 45.0175 37.0722C45.1509 37.007 45.3016 36.9858 45.4478 37.0118C45.5941 37.0378 45.7282 37.1096 45.831 37.2169C60.2589 52.0314 73.6729 61.4015 90.0908 67.8289C96.4633 70.3127 103.472 70.6516 110.054 68.7945L120.34 65.9113C120.39 65.8974 120.443 65.8937 120.495 65.9005C120.547 65.9073 120.598 65.9245 120.643 65.951C120.688 65.9775 120.728 66.0129 120.759 66.0549C120.791 66.097 120.814 66.145 120.826 66.196C120.839 66.247 120.841 66.3 120.833 66.3519C120.825 66.4038 120.806 66.4536 120.778 66.4982C120.751 66.5429 120.714 66.5815 120.671 66.6118C120.629 66.6422 120.58 66.6636 120.529 66.6749" fill="#042CA4"/>
</g>
</g>
<defs>
<clipPath id="clip0_361_240666">
<rect width="300" height="66" fill="white" transform="translate(31 37)"/>
</clipPath>
</defs>
</svg>
