<svg width="362" height="140" viewBox="0 0 362 140" fill="none" xmlns="http://www.w3.org/2000/svg">
<rect width="362" height="140" fill="white"/>
<path d="M246.94 48.8343C248.61 46.282 252.433 44.2402 254.817 47.2021C260.697 54.5053 269.871 65.9346 282.337 81.4901C282.468 81.6552 282.619 81.8062 282.786 81.9401C285.841 84.3759 288.822 84.9782 291.728 83.7468C293.041 83.1916 295.119 81.105 297.962 77.487C309.609 62.6703 317.074 53.2157 320.356 49.1231C321.327 47.9074 322.318 46.6178 323.602 46.1342C327.893 44.4954 333.339 48.3641 329.93 52.7769C317.386 68.9861 308.736 80.1065 303.978 86.1379C298.471 93.1231 289.725 96.5149 281.346 92.7268C278.1 91.2581 275.228 88.9253 272.729 85.7282C270.982 83.4938 262.693 72.9959 247.863 54.2344C246.342 52.3134 245.575 50.9097 246.94 48.8343Z" fill="#FF9600"/>
<path d="M145.722 46.1475L140.059 48.3908C139.967 48.4271 139.891 48.4921 139.84 48.5759C139.79 48.6596 139.769 48.7575 139.78 48.8543L140.636 55.9738L119.926 55.9872C120.845 54.3394 121.598 53.3208 122.187 52.9312C124.17 51.6349 128.183 50.4192 131.204 49.7811C136.274 48.7065 138.95 48.1401 139.23 48.0819C140.978 47.7326 142.614 47.0811 144.14 46.1273C144.547 46.0333 145.075 46.04 145.722 46.1475Z" fill="#CA3F71"/>
<path d="M31.083 50.6807C31.26 43.434 41.8188 43.9516 41.5879 51.2188C41.5268 53.1866 41.6217 55.1276 41.5674 57.082H41.5654L41.5859 76.3926L31.0479 76.8555L31 58.7676L31.002 58.7666C30.9929 56.067 31.0196 53.3714 31.083 50.6807Z" fill="url(#paint0_linear_350_217196)"/>
<path d="M144.365 65.6118L144.195 75.3979L107.867 75.3716C107.799 75.3716 107.733 75.398 107.685 75.4458C107.636 75.4937 107.609 75.5588 107.609 75.6265V80.4087C107.609 80.6032 107.653 80.7963 107.738 80.9731C108.571 82.7461 110.067 83.9078 112.227 84.4585C112.362 84.4942 112.501 84.5122 112.641 84.5122C119.635 84.4674 132.747 84.4519 151.977 84.4653C153.959 84.4653 155.286 84.6668 155.956 85.0698C157.169 85.8086 157.92 86.9057 158.21 88.3608C158.909 91.9072 156.179 94.4466 152.655 94.3794C140.874 94.1779 129.107 94.3253 117.496 94.2515C112.775 94.2201 109.445 93.8505 107.508 93.1431C103.579 91.7057 100.385 88.9384 97.9268 84.8413L107.901 65.5112L144.365 65.6118ZM112.124 46.0942C122.672 46.0584 133.344 46.0692 144.141 46.1274C142.615 47.0811 140.979 47.7323 139.231 48.0815C138.951 48.1398 136.275 48.7062 131.205 49.7808C128.183 50.4188 124.17 51.6349 122.188 52.9312C121.599 53.3207 120.846 54.3393 119.927 55.9868C116.138 55.9734 113.752 55.9805 112.77 56.0073C110.248 56.0745 108.573 57.3037 107.744 59.6948C107.445 60.568 107.498 62.507 107.9 65.5112L97.9258 84.8413C96.9163 76.1188 96.6312 67.6938 97.0703 59.5669C97.4304 52.8438 105.443 46.1213 112.124 46.0942ZM145.724 46.1479C150.21 45.8659 153.836 46.1319 156.602 46.9468C165.7 49.6267 170.895 59.6346 165.212 68.1646C162.174 72.7228 157.595 75.0919 151.475 75.271C149.053 75.3426 146.627 75.3845 144.196 75.3979L144.365 65.6118C146.592 65.5178 148.822 65.4759 151.054 65.4849C152.366 65.4893 153.306 65.3438 153.872 65.0483C158.87 62.4357 157.308 56.122 151.469 56.0747C147.865 56.0478 144.255 56.0144 140.638 55.9741L139.782 48.854C139.771 48.7574 139.792 48.6593 139.842 48.5757C139.892 48.492 139.969 48.4273 140.061 48.3911L145.724 46.1479Z" fill="url(#paint1_linear_350_217196)"/>
<path d="M184.223 46.2417C185.291 46.1163 187.684 46.1568 191.4 46.3628C202.188 46.215 212.647 46.2103 222.778 46.3491C226.49 46.4029 229.052 46.6891 230.465 47.2085C235.089 48.9145 238.464 52.3604 240.223 56.8403C240.748 58.1881 240.997 60.2617 240.97 63.0601C240.924 68.066 240.937 73.0656 241.01 78.0581C241.071 82.3362 239.991 85.3918 237.275 88.4946L237.276 88.4956C235.457 90.7567 233.236 92.3928 230.615 93.4048C228.999 94.0316 226.874 94.3391 224.239 94.3257C212.61 94.2585 200.964 94.2585 189.303 94.3257C185.69 94.3436 183.13 94.1303 181.623 93.687C172.097 90.8727 167.859 81.6713 172.415 72.7788H172.414C174.388 69.7341 176.991 67.607 180.223 66.3979C182.033 65.7218 184.942 65.3701 188.948 65.3433C197.49 65.2895 206.048 65.2834 214.622 65.3237C215.772 66.2987 216.961 67.2361 218.188 68.1372C218.494 68.3625 218.804 68.5855 219.115 68.8062C220.362 69.6889 221.647 70.5344 222.971 71.3433L221.985 70.73C219.377 69.0755 216.923 67.2728 214.623 65.3228H230.187C230.241 65.323 230.296 65.3125 230.346 65.2905C230.396 65.2686 230.441 65.2361 230.478 65.1958C230.515 65.1554 230.543 65.1072 230.561 65.0552C230.578 65.0032 230.585 64.9479 230.58 64.8931C230.499 63.747 230.482 62.8023 230.532 62.0591C230.75 58.7277 228.767 55.9267 225.243 55.9468C218.39 55.9781 211.787 55.9673 205.436 55.9136C198.713 55.9584 192.19 55.9823 185.866 55.9868C183.888 55.9868 182.598 55.7993 181.996 55.4233C177.549 52.6562 179.171 46.8398 184.223 46.2417ZM230.274 75.2505C214.924 75.2102 199.775 75.2186 184.827 75.2769C183.424 75.2813 182.353 76.0917 181.615 77.7075L181.616 77.7085C179.783 81.631 183.097 84.8219 186.947 84.8286C197.037 84.8331 208.166 84.8284 220.334 84.8149C220.483 84.8149 220.633 84.7993 220.782 84.7681C221.638 84.5934 222.19 84.5219 222.439 84.5532C226.703 85.1442 229.41 83.6281 230.56 80.0063V80.0054L230.274 75.2505ZM231.038 80.7778C231.141 80.9409 231.246 81.1033 231.352 81.2651C231.246 81.1033 231.141 80.9409 231.038 80.7778ZM224.984 72.5288C225.666 72.9149 226.357 73.2911 227.058 73.6587C226.357 73.2911 225.666 72.9149 224.984 72.5288ZM193.058 47.7095C193.336 47.9302 193.616 48.1487 193.896 48.3657C193.335 47.9315 192.778 47.4903 192.226 47.0415L193.058 47.7095Z" fill="url(#paint2_linear_350_217196)"/>
<path d="M83.7296 84.4922C83.4851 84.5817 83.1976 84.5907 82.8672 84.5191L83.7296 84.4922Z" fill="#6B68DE"/>
<path d="M41.585 76.3916C41.68 78.8319 41.9882 80.6059 42.5088 81.7119C43.6361 84.069 47.4449 84.3984 49.8418 84.5059H81.3623L82.8633 84.5195C83.1936 84.5911 83.4812 84.5817 83.7256 84.4922L86.333 84.5322C83.2417 86.6016 79.959 88.2991 76.4854 89.625C79.9597 88.299 83.2431 86.602 86.335 84.5322C89.4652 84.0554 92.0047 85.842 92.4189 88.9248C92.806 91.8396 90.1041 94.3786 87.3066 94.3789C79.4028 94.37 71.4824 94.37 63.5469 94.3789C64.153 93.989 64.7705 93.6703 65.3984 93.4219C64.7698 93.6704 64.1517 93.9886 63.5449 94.3789L55.3896 94.5H50.5078C42.4546 93.8216 35.4466 92.4444 32.3027 84.0957C31.7324 82.5822 31.3139 80.1688 31.0469 76.8555L41.585 76.3916ZM76.0957 89.7715C72.7953 91.0088 69.4603 92.1445 66.0908 93.1768C65.9023 93.2351 65.715 93.3004 65.5283 93.3711C65.7157 93.3 65.9044 93.2353 66.0938 93.1768C69.4625 92.1447 72.796 91.0085 76.0957 89.7715Z" fill="url(#paint3_linear_350_217196)"/>
<defs>
<linearGradient id="paint0_linear_350_217196" x1="36.2958" y1="45.5" x2="36.2958" y2="76.8556" gradientUnits="userSpaceOnUse">
<stop stop-color="#9E34CA"/>
<stop offset="1" stop-color="#329DEF"/>
</linearGradient>
<linearGradient id="paint1_linear_350_217196" x1="157.585" y1="89.1264" x2="121.311" y2="53.1331" gradientUnits="userSpaceOnUse">
<stop stop-color="#DB3E63"/>
<stop offset="0.804713" stop-color="#CB4071"/>
<stop offset="1" stop-color="#B42E95"/>
</linearGradient>
<linearGradient id="paint2_linear_350_217196" x1="213.264" y1="46.477" x2="177.764" y2="92.5256" gradientUnits="userSpaceOnUse">
<stop offset="0.139882" stop-color="#FA9B1D"/>
<stop offset="0.303642" stop-color="#FD4F3A"/>
<stop offset="1" stop-color="#DE2F72"/>
</linearGradient>
<linearGradient id="paint3_linear_350_217196" x1="72.027" y1="87.7832" x2="75.6925" y2="96.8787" gradientUnits="userSpaceOnUse">
<stop stop-color="#2AA7F4"/>
<stop offset="0.578133" stop-color="#8854A6"/>
</linearGradient>
</defs>
</svg>
