<svg width="362" height="140" viewBox="0 0 362 140" fill="none" xmlns="http://www.w3.org/2000/svg">
<rect width="362" height="140" fill="white"/>
<g clip-path="url(#clip0_613_24050)">
<path d="M279.805 45.514H289.684L292.932 30.145H311.788L308.53 45.514H320.987L318.338 58.0197H305.887L301.762 77.5108C300.84 81.8911 301.776 82.5085 306.847 82.5085C309.153 82.5085 311.047 82.4221 313.559 82.3346L311.061 94.1324C307.123 94.6654 302.065 95.0257 296.549 95.0257C284.276 95.0257 279.847 91.9928 282.061 81.5309L287.041 58.0197H277.164L279.805 45.514Z" fill="#040404"/>
<path d="M254.202 45.5142H273.052L262.811 93.9587H243.961L254.202 45.5142Z" fill="#040404"/>
<path d="M257.796 28.5269H276.648L274.226 39.9685H255.375L257.796 28.5269Z" fill="#040404"/>
<path d="M204.269 45.5145L194.023 93.9594L212.365 93.9595L222.614 45.5139L204.269 45.5145Z" fill="#040404"/>
<path d="M244.309 43.3608C235.891 43.3608 222.493 51.6958 218.961 66.537L218.055 69.8807H218.371C221.048 63.4398 227.757 59.9919 236.795 59.9919C239.23 59.9919 241.999 60.3269 244.226 60.8304L247.889 43.5315C246.69 43.424 245.438 43.3608 244.309 43.3608Z" fill="#040404"/>
<path d="M177.659 45.5142H196.506L186.264 93.9587H167.414L177.659 45.5142Z" fill="#040404"/>
<path d="M181.245 28.5269H200.098L197.682 39.9685H178.828L181.245 28.5269Z" fill="#040404"/>
<path d="M131.064 82.1543C139.696 82.1543 145.315 77.8646 147.011 69.8235C148.713 61.7698 144.908 57.4885 136.287 57.4885C127.481 57.4885 121.835 62.3092 120.251 69.8235C118.662 77.3305 122.262 82.1543 131.064 82.1543ZM106.535 45.5138H124.852L123.496 51.9462H123.672C128.715 47.0297 135.97 44.2612 143.619 44.2612C160.692 44.2612 169.801 53.7287 166.248 70.5357C163.278 84.5699 150.558 95.9125 132.868 95.9125C124.509 95.9125 118.697 93.144 116.246 89.5728H116.071L111.433 111.473H92.5859L106.535 45.5138Z" fill="#040404"/>
<path d="M53.6681 78.8531C53.5601 80.6376 53.9689 82.0682 55.4656 82.97C56.9497 83.9529 59.4148 84.4796 63.5056 84.4796C67.6833 84.4796 72.3012 83.6769 73.0391 80.192C73.5862 77.6015 71.8673 76.882 67.3594 76.3479L50.9807 74.2926C40.244 72.9505 35.4719 69.02 37.216 60.7935C39.9861 47.659 52.0645 43.5483 70.1149 43.5483C82.9217 43.5483 98.6118 45.867 96.7702 59.6316H75.6111C75.8658 57.5763 74.8125 56.2394 73.0978 55.521C71.3999 54.7235 68.9704 54.4475 66.565 54.4475C61.141 54.4475 57.6781 55.7 56.9759 59.0079C56.6562 60.5291 57.6184 61.866 62.3055 62.4053L78.2021 64.191C90.8799 65.6226 96.4307 69.6437 94.4309 79.1164C92.0098 90.5549 80.0299 95.9118 60.0238 95.9118C46.6804 95.9118 29.1351 93.5099 31.7931 78.8531H53.6681Z" fill="#040404"/>
<path d="M326.592 49.3284C326.815 49.3284 326.994 49.2757 327.126 49.1704C327.256 49.065 327.322 48.9186 327.322 48.7342C327.322 48.5625 327.266 48.4203 327.154 48.3086C327.043 48.1959 326.863 48.1401 326.613 48.1401H326.139V49.3284H326.592ZM325.154 47.3868H326.789C327.223 47.3868 327.594 47.4859 327.903 47.6839C328.211 47.882 328.367 48.2128 328.367 48.6742C328.367 48.8996 328.305 49.1103 328.18 49.3084C328.054 49.5064 327.874 49.6581 327.637 49.7645L328.504 51.33H327.46L326.809 50.0416H326.139V51.33H325.154V47.3868ZM326.671 52.4982C327.078 52.4982 327.46 52.4235 327.814 52.2707C328.17 52.119 328.476 51.9073 328.731 51.6365C328.987 51.3658 329.188 51.0413 329.332 50.6663C329.477 50.2891 329.549 49.8699 329.549 49.4074C329.549 48.9449 329.477 48.5225 329.332 48.1401C329.188 47.7566 328.987 47.4269 328.731 47.1498C328.476 46.8717 328.17 46.6568 327.814 46.5051C327.46 46.3534 327.078 46.2775 326.671 46.2775C326.25 46.2775 325.867 46.3534 325.519 46.5051C325.17 46.6568 324.867 46.8717 324.611 47.1498C324.355 47.4269 324.155 47.7566 324.011 48.1401C323.865 48.5225 323.794 48.9449 323.794 49.4074C323.794 49.8699 323.865 50.2891 324.011 50.6663C324.155 51.0413 324.355 51.3658 324.611 51.6365C324.867 51.9073 325.17 52.119 325.519 52.2707C325.867 52.4235 326.25 52.4982 326.671 52.4982ZM326.671 53.3505C326.146 53.3505 325.653 53.2546 325.193 53.0629C324.734 52.8712 324.329 52.6004 323.981 52.2507C323.632 51.9009 323.36 51.4848 323.164 51.0023C322.966 50.5209 322.867 49.9889 322.867 49.4074C322.867 48.8269 322.966 48.2918 323.164 47.803C323.36 47.3142 323.632 46.8949 323.981 46.5451C324.329 46.1943 324.734 45.9236 325.193 45.7319C325.653 45.5412 326.146 45.4453 326.671 45.4453C327.197 45.4453 327.69 45.5412 328.15 45.7319C328.61 45.9236 329.014 46.1943 329.362 46.5451C329.71 46.8949 329.983 47.3142 330.18 47.803C330.377 48.2918 330.475 48.8269 330.475 49.4074C330.475 49.9889 330.377 50.5209 330.18 51.0023C329.983 51.4848 329.71 51.9009 329.362 52.2507C329.014 52.6004 328.61 52.8712 328.15 53.0629C327.69 53.2546 327.197 53.3505 326.671 53.3505Z" fill="#040404"/>
</g>
<defs>
<clipPath id="clip0_613_24050">
<rect width="300" height="84" fill="white" transform="translate(31 28)"/>
</clipPath>
</defs>
</svg>
