<svg width="362" height="140" viewBox="0 0 362 140" fill="none" xmlns="http://www.w3.org/2000/svg">
<rect width="362" height="140" fill="white"/>
<path d="M331.001 70C331.001 81.8825 328.749 91.9916 324.244 100.327C319.775 108.663 313.674 115.03 305.941 119.428C298.244 123.791 289.59 125.972 279.977 125.972C270.294 125.972 261.604 123.773 253.906 119.375C246.209 114.976 240.126 108.609 235.657 100.274C231.188 91.9384 228.953 81.8471 228.953 70C228.953 58.1174 231.188 48.0084 235.657 39.6729C240.126 31.3373 246.209 24.9882 253.906 20.6253C261.604 16.227 270.294 14.0278 279.977 14.0278C289.59 14.0278 298.244 16.227 305.941 20.6253C313.674 24.9882 319.775 31.3373 324.244 39.6729C328.749 48.0084 331.001 58.1174 331.001 70ZM307.644 70C307.644 62.3029 306.491 55.8119 304.186 50.5268C301.916 45.2417 298.705 41.2336 294.555 38.5023C290.405 35.7711 285.546 34.4055 279.977 34.4055C274.408 34.4055 269.549 35.7711 265.399 38.5023C261.249 41.2336 258.021 45.2417 255.715 50.5268C253.445 55.8119 252.31 62.3029 252.31 70C252.31 77.697 253.445 84.1881 255.715 89.4732C258.021 94.7582 261.249 98.7664 265.399 101.498C269.549 104.229 274.408 105.594 279.977 105.594C285.546 105.594 290.405 104.229 294.555 101.498C298.705 98.7664 301.916 94.7582 304.186 89.4732C306.491 84.1881 307.644 77.697 307.644 70Z" fill="#292929"/>
<path d="M150.109 124.482V15.5171H173.147V105.488H219.862V124.482H150.109Z" fill="#292929"/>
<path d="M133.048 70C133.048 81.8825 130.796 91.9916 126.291 100.327C121.822 108.663 115.721 115.03 107.988 119.428C100.291 123.791 91.6365 125.972 82.024 125.972C72.3406 125.972 63.6504 123.773 55.9534 119.375C48.2563 114.976 42.1731 108.609 37.7039 100.274C33.2346 91.9384 31 81.8471 31 70C31 58.1174 33.2346 48.0084 37.7039 39.6729C42.1731 31.3373 48.2563 24.9882 55.9534 20.6253C63.6504 16.227 72.3406 14.0278 82.024 14.0278C91.6365 14.0278 100.291 16.227 107.988 20.6253C115.721 24.9882 121.822 31.3373 126.291 39.6729C130.796 48.0084 133.048 58.1174 133.048 70ZM109.691 70C109.691 62.3029 108.538 55.8119 106.233 50.5268C103.962 45.2417 100.752 41.2336 96.6023 38.5023C92.4523 35.7711 87.5929 34.4055 82.024 34.4055C76.4552 34.4055 71.5958 35.7711 67.4457 38.5023C63.2957 41.2336 60.0679 45.2417 57.7623 50.5268C55.4922 55.8119 54.3572 62.3029 54.3572 70C54.3572 77.697 55.4922 84.1881 57.7623 89.4732C60.0679 94.7582 63.2957 98.7664 67.4457 101.498C71.5958 104.229 76.4552 105.594 82.024 105.594C87.5929 105.594 92.4523 104.229 96.6023 101.498C100.752 98.7664 103.962 94.7582 106.233 89.4732C108.538 84.1881 109.691 77.697 109.691 70Z" fill="#292929"/>
</svg>
