<svg width="362" height="140" viewBox="0 0 362 140" fill="none" xmlns="http://www.w3.org/2000/svg">
<rect width="362" height="140" fill="white"/>
<path d="M91.5737 62.3035C95.0589 65.1972 98.847 67.653 103.027 69.2536C106.661 70.646 110.435 71.2824 114.351 71.1628C116.837 71.0874 119.564 70.5587 121.599 69.061C123.617 67.5753 124.25 65.4927 123.973 63.0823C123.783 61.4411 122.858 60.1503 121.533 59.2604C120.564 58.6072 119.578 58.0777 118.574 57.6718C114.44 55.9995 109.966 54.9635 105.707 53.8092C102.816 53.0253 100.113 52.107 97.5967 51.0543C94.3079 49.6774 91.2108 47.785 88.9257 45.0935C85.5962 41.1735 84.7136 35.9903 84.928 30.9997C85.0445 28.2771 85.6461 25.6821 86.7328 23.2147C89.4575 17.023 95.2481 12.8961 101.65 11.1603C104.351 10.4275 107.118 10.0423 109.952 10.0048C112.654 9.96811 115.264 10.142 117.782 10.5263C125.282 11.6699 131.974 14.5915 137.86 19.2911C137.873 19.3014 137.882 19.3163 137.884 19.3327C137.887 19.3491 137.883 19.3659 137.874 19.3796L129.533 31.4554C129.528 31.4629 129.522 31.4692 129.514 31.4741C129.506 31.4789 129.498 31.4823 129.489 31.4838C129.48 31.4854 129.471 31.4851 129.462 31.4831C129.453 31.4811 129.445 31.4774 129.437 31.4722C126.676 29.5223 123.812 27.9006 120.847 26.6071C117.364 25.0879 113.524 24.1668 109.682 24.2829C107.777 24.3391 105.805 24.7267 104.12 25.649C102.365 26.6107 101.079 28.2806 100.986 30.3525C100.881 32.6827 101.505 34.5213 103.493 35.8431C104.623 36.5944 105.961 37.2399 107.507 37.7798C110.681 38.8863 113.761 39.7117 116.922 40.5156C119.927 41.2796 122.772 42.1843 125.458 43.2298C128.913 44.5756 132.331 46.4106 134.96 48.9908C138.334 52.3008 139.875 56.5378 140.075 61.2042C140.233 64.8718 139.782 68.4533 138.419 71.7178C134.297 81.5878 123.775 85.3643 113.749 85.4456C102.008 85.5389 90.7797 81.5232 82.0344 73.7705C82.0145 73.7528 82.0023 73.7281 82.0003 73.7015C81.9983 73.675 82.0067 73.6487 82.0236 73.6282L91.4851 62.3119C91.4905 62.3055 91.497 62.3003 91.5044 62.2964C91.5117 62.2925 91.5198 62.2901 91.528 62.2893C91.5362 62.2886 91.5445 62.2894 91.5524 62.2918C91.5602 62.2943 91.5675 62.2983 91.5737 62.3035Z" fill="#123E7A"/>
<path d="M279.991 11.1271L251.878 55.0655C251.842 55.1217 251.823 55.1869 251.823 55.2533V84.3454C251.823 84.3584 251.818 84.3709 251.809 84.3801C251.8 84.3893 251.787 84.3944 251.775 84.3944H235.714C235.695 84.3944 235.676 84.3866 235.663 84.3727C235.649 84.3588 235.641 84.3399 235.641 84.3203V55.5476C235.641 55.5085 235.63 55.4703 235.609 55.4375L210.225 15.4814C210.22 15.474 210.214 15.4678 210.206 15.4632C210.199 15.4586 210.191 15.4557 210.182 15.4548C210.173 15.4539 210.165 15.4549 210.157 15.4579C210.148 15.4608 210.141 15.4656 210.135 15.4718L184.523 42.1248C184.51 42.1379 184.503 42.1551 184.502 42.1733C184.501 42.1915 184.506 42.2095 184.517 42.2241L215.703 84.337C215.706 84.3423 215.709 84.3485 215.709 84.355C215.709 84.3615 215.708 84.3679 215.705 84.3737C215.702 84.3794 215.698 84.3843 215.692 84.3877C215.687 84.3912 215.68 84.3931 215.674 84.3932L196.348 84.3944C196.335 84.3945 196.322 84.3913 196.31 84.3853C196.298 84.3793 196.288 84.3705 196.28 84.3597L173.58 53.2293C173.575 53.2229 173.569 53.2177 173.562 53.2139C173.555 53.2101 173.548 53.2078 173.54 53.2073C173.532 53.2067 173.524 53.2078 173.517 53.2106C173.51 53.2134 173.503 53.2177 173.498 53.2233L165.103 61.9593C165.08 61.9839 165.067 62.0165 165.067 62.0502V84.3406C165.067 84.3477 165.066 84.3547 165.063 84.3612C165.06 84.3677 165.057 84.3737 165.051 84.3787C165.046 84.3837 165.041 84.3876 165.034 84.3903C165.027 84.393 165.02 84.3944 165.013 84.3944H148.935C148.923 84.3944 148.912 84.3898 148.904 84.3815C148.895 84.3732 148.891 84.3619 148.891 84.3502V11.1008C148.891 11.0878 148.896 11.0753 148.905 11.0661C148.914 11.0569 148.927 11.0518 148.94 11.0518H165.004C165.021 11.0518 165.037 11.0584 165.049 11.0703C165.061 11.0822 165.067 11.0983 165.067 11.1152V43.0136C165.067 43.0191 165.069 43.0246 165.072 43.0293C165.075 43.0339 165.08 43.0376 165.085 43.0396C165.09 43.0417 165.095 43.0422 165.101 43.0409C165.106 43.0397 165.11 43.0368 165.114 43.0327L194.783 11.1092C194.8 11.0911 194.821 11.0766 194.843 11.0668C194.866 11.0569 194.891 11.0518 194.915 11.0518H226.248C226.271 11.0518 226.293 11.0576 226.313 11.0687C226.332 11.0798 226.349 11.0958 226.361 11.1152L243.798 40.419C243.802 40.4244 243.807 40.4289 243.812 40.432C243.818 40.4351 243.824 40.4367 243.831 40.4367C243.837 40.4367 243.844 40.4351 243.849 40.432C243.855 40.4289 243.86 40.4244 243.863 40.419L261.637 11.0793C261.643 11.0709 261.65 11.0639 261.658 11.0591C261.667 11.0543 261.677 11.0518 261.686 11.0518H279.949C279.958 11.0517 279.967 11.054 279.975 11.0584C279.982 11.0628 279.989 11.0693 279.993 11.077C279.997 11.0847 279.999 11.0934 279.999 11.1023C279.999 11.1111 279.996 11.1197 279.991 11.1271Z" fill="#123E7A"/>
<path d="M88.2274 108.446C88.2209 108.446 88.2144 108.448 88.2084 108.45C88.2025 108.453 88.1971 108.457 88.1926 108.461C88.1881 108.466 88.1846 108.471 88.1824 108.478C88.1801 108.484 88.1791 108.49 88.1794 108.497C88.5471 114.298 92.6251 119.141 98.6457 119.377C102.653 119.535 105.923 117.92 108.605 115.056C108.62 115.04 108.641 115.031 108.663 115.03C108.684 115.029 108.706 115.037 108.722 115.052L110.471 116.672C110.474 116.674 110.476 116.677 110.478 116.68C110.479 116.683 110.48 116.687 110.48 116.69C110.48 116.694 110.48 116.698 110.478 116.701C110.477 116.704 110.475 116.707 110.473 116.71C109.425 117.865 108.269 118.859 107.004 119.694C104.781 121.159 102.166 121.845 99.4146 121.917C96.1977 122 93.1066 121.007 90.6083 119.013C86.5578 115.78 84.8991 110.731 85.3877 105.652C85.8021 101.36 87.8908 97.3742 91.4706 94.9291C94.5761 92.8094 98.5164 92.2448 102.124 93.2652C108.711 95.1289 111.676 101.913 111.293 108.352C111.292 108.375 111.282 108.397 111.265 108.413C111.248 108.429 111.225 108.438 111.202 108.438L88.2274 108.446ZM108.401 105.977C108.1 101.172 105.525 96.422 100.437 95.4399C97.6481 94.9028 94.7881 95.5117 92.5832 97.2725C91.863 97.8483 91.2897 98.4121 90.8634 98.9639C89.2761 101.015 88.3822 103.352 88.1818 105.976C88.1813 105.984 88.1824 105.991 88.1849 105.998C88.1874 106.005 88.1912 106.011 88.1963 106.017C88.2014 106.022 88.2075 106.026 88.2142 106.029C88.221 106.032 88.2283 106.034 88.2357 106.034H108.348C108.355 106.034 108.362 106.032 108.369 106.029C108.376 106.026 108.382 106.022 108.386 106.017C108.391 106.012 108.395 106.005 108.398 105.999C108.4 105.992 108.401 105.985 108.401 105.977Z" fill="#123E7A"/>
<path d="M149.957 99.5464C150.856 98.1604 151.884 96.9558 153.038 95.9326C159.602 90.1154 169.648 92.7471 173.389 100.377C174.895 103.45 175.243 107.024 174.638 110.41C173.38 117.439 167.14 122.563 159.98 121.851C157.489 121.604 155.283 120.706 153.363 119.157C152.016 118.071 150.884 116.811 149.969 115.376C149.964 115.369 149.957 115.364 149.95 115.361C149.942 115.358 149.934 115.357 149.926 115.36C149.918 115.362 149.911 115.367 149.906 115.373C149.901 115.38 149.898 115.388 149.898 115.396V129.928C149.898 129.947 149.89 129.965 149.877 129.979C149.863 129.992 149.845 130 149.826 130H147.281C147.271 130 147.261 129.998 147.251 129.994C147.242 129.99 147.233 129.984 147.226 129.977C147.219 129.97 147.213 129.962 147.209 129.953C147.205 129.943 147.203 129.933 147.203 129.923V93.466C147.203 93.4562 147.207 93.4467 147.214 93.4398C147.221 93.4328 147.23 93.4289 147.24 93.4289H149.849C149.862 93.4289 149.874 93.4341 149.883 93.4433C149.893 93.4525 149.898 93.465 149.898 93.478V99.5296C149.898 99.5365 149.9 99.5431 149.904 99.5486C149.908 99.5541 149.913 99.558 149.92 99.5599C149.927 99.5618 149.934 99.5615 149.94 99.5591C149.947 99.5566 149.953 99.5522 149.957 99.5464ZM149.736 107.757C149.864 111.501 151.524 114.906 154.561 117.15C157.848 119.578 162.09 120.052 165.829 118.309C170.22 116.262 172.156 111.638 171.998 106.999C171.84 102.36 169.592 97.8789 165.073 96.1348C161.223 94.6503 157.023 95.4111 153.91 98.0571C151.033 100.503 149.608 104.013 149.736 107.757Z" fill="#123E7A"/>
<path d="M203.336 108.442C203.33 108.442 203.323 108.443 203.317 108.446C203.311 108.448 203.306 108.452 203.302 108.457C203.297 108.461 203.294 108.467 203.291 108.473C203.289 108.479 203.288 108.486 203.288 108.492C203.654 114.294 207.73 119.137 213.75 119.376C217.757 119.536 221.028 117.922 223.712 115.058C223.727 115.042 223.748 115.033 223.769 115.032C223.791 115.032 223.812 115.04 223.828 115.054L225.577 116.675C225.582 116.68 225.585 116.687 225.585 116.694C225.585 116.701 225.583 116.707 225.578 116.712C224.53 117.867 223.374 118.862 222.108 119.696C219.885 121.16 217.27 121.845 214.519 121.916C211.302 121.997 208.211 121.003 205.714 119.009C201.664 115.775 200.007 110.725 200.498 105.646C200.913 101.354 203.003 97.3696 206.584 94.9257C209.69 92.8072 213.63 92.2438 217.237 93.2653C223.823 95.1314 226.786 101.916 226.401 108.356C226.399 108.379 226.389 108.401 226.372 108.417C226.355 108.433 226.333 108.442 226.31 108.442H203.336ZM223.512 105.979C223.211 101.174 220.635 96.4222 215.546 95.4401C212.757 94.903 209.896 95.5118 207.691 97.2727C206.971 97.8493 206.398 98.4135 205.971 98.9653C204.383 101.016 203.489 103.354 203.288 105.979C203.288 105.986 203.289 105.994 203.291 106C203.294 106.007 203.298 106.014 203.303 106.019C203.308 106.025 203.314 106.029 203.321 106.032C203.328 106.035 203.335 106.036 203.342 106.036L223.459 106.035C223.466 106.035 223.474 106.034 223.48 106.031C223.487 106.028 223.493 106.024 223.498 106.018C223.503 106.013 223.507 106.007 223.509 106C223.511 105.993 223.512 105.986 223.512 105.979Z" fill="#123E7A"/>
<path d="M251.523 95.8985C251.531 95.9035 251.538 95.9101 251.544 95.9179C251.549 95.9257 251.553 95.9346 251.555 95.9439C251.557 95.9532 251.557 95.9629 251.556 95.9724C251.554 95.9818 251.55 95.9909 251.545 95.999L250.166 98.1534C250.162 98.1599 250.157 98.1656 250.151 98.17C250.144 98.1745 250.137 98.1776 250.13 98.1793C250.122 98.181 250.114 98.1811 250.106 98.1797C250.099 98.1784 250.092 98.1755 250.085 98.1713C247.275 96.3028 243.717 95.103 240.329 95.493C237.582 95.81 235.19 97.517 235.239 100.503C235.268 102.31 236.851 103.489 238.355 104.169C241.364 105.53 244.874 106.019 247.916 107.503C250.511 108.771 252.231 110.696 252.177 113.774C252.12 117.029 250.253 119.56 247.333 120.848C244.811 121.962 241.982 122.016 239.279 121.481C236.281 120.888 233.577 119.671 231.169 117.829C231.154 117.817 231.144 117.8 231.141 117.782C231.139 117.763 231.144 117.744 231.155 117.728L232.662 115.7C232.67 115.689 232.68 115.679 232.692 115.672C232.703 115.665 232.716 115.661 232.73 115.659C232.743 115.657 232.757 115.658 232.77 115.661C232.783 115.665 232.796 115.671 232.807 115.679C235.487 117.757 238.677 119.103 242.082 119.271C244.815 119.407 248.213 118.451 249.172 115.534C249.804 113.616 249.309 111.781 247.625 110.595C246.487 109.795 245.208 109.29 243.898 108.898C241.025 108.037 239.496 107.577 239.311 107.516C235.869 106.395 232.444 104.761 232.489 100.534C232.536 96.3076 235.831 93.579 239.804 93.0204C243.82 92.4558 248.15 93.7453 251.523 95.8985Z" fill="#123E7A"/>
<path d="M277.422 95.9016C277.43 95.9066 277.437 95.9133 277.442 95.921C277.448 95.9288 277.451 95.9377 277.453 95.947C277.455 95.9563 277.456 95.966 277.454 95.9755C277.452 95.9849 277.449 95.994 277.443 96.0021L276.062 98.1553C276.058 98.1618 276.053 98.1675 276.047 98.1719C276.04 98.1764 276.033 98.1795 276.026 98.1812C276.018 98.1829 276.01 98.183 276.002 98.1817C275.995 98.1803 275.988 98.1774 275.981 98.1732C273.173 96.3035 269.614 95.1013 266.225 95.4901C263.478 95.8047 261.085 97.5117 261.131 100.497C261.16 102.305 262.742 103.484 264.246 104.166C267.255 105.529 270.765 106.019 273.807 107.506C276.403 108.775 278.121 110.701 278.066 113.779C278.006 117.035 276.138 119.565 273.217 120.852C270.693 121.965 267.865 122.017 265.161 121.48C262.163 120.886 259.459 119.667 257.052 117.824C257.037 117.812 257.027 117.795 257.024 117.776C257.021 117.757 257.026 117.738 257.038 117.723L258.546 115.695C258.554 115.684 258.564 115.675 258.576 115.668C258.587 115.661 258.6 115.656 258.614 115.655C258.627 115.653 258.641 115.654 258.654 115.657C258.667 115.661 258.68 115.667 258.691 115.675C261.371 117.754 264.561 119.102 267.966 119.272C270.699 119.41 274.098 118.455 275.059 115.539C275.691 113.62 275.198 111.785 273.515 110.598C272.377 109.797 271.098 109.292 269.788 108.899C266.915 108.036 265.386 107.575 265.201 107.514C261.759 106.391 258.334 104.755 258.382 100.527C258.431 96.2999 261.728 93.5725 265.702 93.0163C269.719 92.4541 274.048 93.746 277.422 95.9016Z" fill="#123E7A"/>
<path d="M185.285 101.207C187.47 96.4111 192.061 92.7423 197.508 92.9947C197.527 92.9956 197.546 93.0041 197.559 93.0184C197.572 93.0326 197.58 93.0516 197.58 93.0713V95.886C197.58 95.9047 197.572 95.9226 197.559 95.9359C197.546 95.9491 197.528 95.9565 197.509 95.9565C190.444 95.9075 185.991 101.14 185.341 107.811C185.263 108.609 185.228 109.617 185.238 110.838C185.239 110.946 185.24 114.395 185.24 121.184C185.24 121.204 185.232 121.223 185.218 121.238C185.204 121.252 185.184 121.26 185.164 121.26H182.614C182.596 121.26 182.579 121.253 182.567 121.241C182.554 121.228 182.547 121.211 182.547 121.193V93.4816C182.547 93.4679 182.552 93.4548 182.562 93.4452C182.572 93.4355 182.585 93.4301 182.598 93.4301H185.181C185.196 93.4301 185.212 93.4363 185.223 93.4473C185.234 93.4583 185.24 93.4732 185.24 93.4887V101.197C185.24 101.203 185.241 101.209 185.244 101.213C185.248 101.218 185.253 101.221 185.258 101.222C185.264 101.223 185.27 101.223 185.274 101.22C185.279 101.217 185.283 101.212 185.285 101.207Z" fill="#123E7A"/>
<path d="M125.531 107.066L114.642 93.4873C114.637 93.4821 114.635 93.4757 114.634 93.469C114.633 93.4623 114.634 93.4555 114.637 93.4494C114.64 93.4432 114.644 93.438 114.65 93.4344C114.656 93.4307 114.662 93.4288 114.669 93.4287H117.941C117.947 93.4286 117.952 93.4297 117.957 93.432C117.962 93.4343 117.967 93.4376 117.97 93.4419L127.294 105.19C127.297 105.194 127.301 105.198 127.306 105.201C127.311 105.203 127.317 105.204 127.322 105.204C127.328 105.204 127.334 105.203 127.339 105.201C127.344 105.198 127.348 105.194 127.351 105.19L136.678 93.4419C136.682 93.4378 136.686 93.4345 136.691 93.4322C136.696 93.43 136.701 93.4288 136.706 93.4287H139.864C139.871 93.4285 139.878 93.4303 139.884 93.4339C139.89 93.4375 139.894 93.4426 139.897 93.4488C139.9 93.455 139.902 93.4619 139.901 93.4687C139.9 93.4756 139.897 93.482 139.893 93.4873L129.008 107.012C129.002 107.018 128.999 107.026 128.999 107.035C128.999 107.043 129.002 107.051 129.008 107.057L140.35 121.201C140.355 121.207 140.358 121.213 140.358 121.22C140.359 121.226 140.358 121.233 140.355 121.239C140.352 121.245 140.348 121.251 140.342 121.254C140.336 121.258 140.33 121.26 140.323 121.26H137.047C137.042 121.26 137.037 121.259 137.032 121.256C137.027 121.254 137.023 121.251 137.02 121.247L127.242 108.929C127.239 108.925 127.235 108.921 127.23 108.919C127.225 108.916 127.219 108.915 127.213 108.915C127.208 108.915 127.202 108.916 127.197 108.919C127.192 108.921 127.188 108.925 127.185 108.929L117.406 121.247C117.403 121.251 117.398 121.254 117.394 121.256C117.389 121.259 117.384 121.26 117.378 121.26H114.217C114.21 121.26 114.203 121.258 114.197 121.255C114.191 121.251 114.186 121.246 114.183 121.24C114.18 121.234 114.179 121.227 114.18 121.22C114.181 121.213 114.183 121.207 114.188 121.201L125.531 107.111C125.536 107.105 125.539 107.097 125.539 107.088C125.539 107.08 125.536 107.072 125.531 107.066Z" fill="#123E7A"/>
</svg>
