<svg width="362" height="140" viewBox="0 0 362 140" fill="none" xmlns="http://www.w3.org/2000/svg">
<rect width="362" height="140" fill="white"/>
<path d="M188.017 16.4097C192.73 11.9052 198.734 10.3246 205.223 10.0515C210.108 9.84666 215.125 10.2162 219.708 11.828C224.317 13.4488 228.531 16.6709 230.596 21.1458C232.198 24.6202 232.565 28.5385 232.43 32.5294C232.196 39.4828 229.522 45.5962 223.366 49.1909C220.21 51.0328 216.318 51.9871 212.547 52.3819C210.076 52.6401 207.549 52.7059 204.966 52.5793C199.679 52.3196 194.223 51.0402 189.903 47.8284C185.765 44.7502 183.454 40.4669 182.714 35.4266C182.174 31.7577 182.315 28.2263 183.136 24.8325C183.926 21.5732 185.553 18.7656 188.017 16.4097ZM219.825 20.4378C216.92 18.2991 213.526 17.4175 209.922 17.1874C206.057 16.9396 202.239 17.1785 198.716 18.4935C196.387 19.3633 194.07 20.9053 192.738 22.9891C190.718 26.1519 190.348 30.551 190.858 34.1858C191.326 37.5104 192.686 40.3155 195.342 42.282C197.915 44.1877 200.847 45.1109 204.012 45.424C206.199 45.6417 208.397 45.6551 210.605 45.4641C214.476 45.1287 218.085 43.9799 220.913 41.2713C223.364 38.9233 224.17 35.2871 224.237 32.0456C224.279 30.035 224.133 28.2822 223.798 26.7871C223.418 25.0803 222.724 23.2607 221.558 21.9814C221.068 21.4431 220.49 20.9286 219.825 20.4378Z" fill="black"/>
<path d="M100.575 26.6585H92.2871C92.2627 26.6583 92.2392 26.6494 92.2209 26.6333C92.2026 26.6172 92.1908 26.595 92.1875 26.5709C91.5097 21.685 87.0819 18.9823 82.6183 18.0843C78.3862 17.2334 74.1842 17.2532 70.0125 18.1437C68.5529 18.4554 67.1191 18.9922 65.711 19.754C63.96 20.7019 62.5579 22.0506 61.5046 23.7999C60.0048 26.2919 59.7789 29.4339 59.8934 32.4186C59.9538 34.0195 60.1802 35.4419 60.5726 36.6856C63.2213 45.0935 73.8518 45.9647 81.0785 45.144C84.1106 44.7996 87.0061 43.9255 89.307 41.9322C91.0202 40.449 92.0111 38.6066 92.2797 36.4051C92.283 36.3766 92.2967 36.3503 92.3184 36.3311C92.34 36.312 92.368 36.3013 92.3971 36.3012H100.626C100.636 36.3011 100.646 36.3032 100.655 36.3072C100.664 36.3113 100.672 36.3172 100.679 36.3246C100.686 36.332 100.691 36.3408 100.694 36.3503C100.697 36.3598 100.698 36.3699 100.697 36.3799C100.457 38.716 99.7952 40.9032 98.7112 42.9414C95.3683 49.2255 88.7124 51.6566 82.0119 52.3749C77.32 52.8776 72.6865 52.6985 68.1114 51.8376C66.0008 51.4409 63.9521 50.7725 61.9653 49.8325C57.6192 47.7764 54.5925 44.5147 52.8852 40.0473C51.6232 36.7435 51.3379 32.7392 51.5772 29.0807C51.7882 25.8511 52.5492 22.525 54.2853 19.7674C59.7313 11.1131 70.4153 9.6141 79.7407 10.1543C83.7093 10.3844 87.8132 11.171 91.3923 13.0351C96.6511 15.772 100.151 20.7128 100.602 26.6288C100.602 26.6325 100.602 26.6363 100.601 26.6399C100.6 26.6435 100.598 26.6468 100.595 26.6496C100.593 26.6524 100.589 26.6547 100.586 26.6562C100.583 26.6577 100.579 26.6585 100.575 26.6585Z" fill="black"/>
<path d="M121.678 42.0139H111.928C111.91 42.0141 111.894 42.02 111.88 42.0308C111.867 42.0415 111.857 42.0565 111.853 42.0732L109.582 51.9564C109.578 51.9732 109.569 51.9881 109.555 51.9989C109.542 52.0096 109.525 52.0156 109.508 52.0158H101.588C101.577 52.0157 101.565 52.013 101.555 52.0077C101.544 52.0025 101.535 51.995 101.528 51.9857C101.521 51.9764 101.516 51.9656 101.513 51.9541C101.511 51.9426 101.511 51.9307 101.514 51.9193L111.709 10.843C111.713 10.8263 111.723 10.8115 111.737 10.801C111.751 10.7905 111.768 10.7849 111.785 10.7852H122.571C122.589 10.7854 122.605 10.7913 122.619 10.8021C122.632 10.8128 122.642 10.8278 122.646 10.8445L132.062 51.9208C132.065 51.9321 132.065 51.9438 132.062 51.9551C132.06 51.9664 132.055 51.977 132.048 51.9861C132.04 51.9953 132.031 52.0027 132.021 52.0078C132.011 52.0129 131.999 52.0157 131.988 52.0158H123.928C123.911 52.0158 123.894 52.0098 123.88 51.9988C123.866 51.9877 123.856 51.9722 123.853 51.9549L121.754 42.0747C121.75 42.0574 121.741 42.042 121.727 42.0309C121.713 42.0198 121.696 42.0138 121.678 42.0139ZM116.95 18.6543C116.943 18.8265 116.929 18.9972 116.908 19.1663C116.615 21.5767 116.195 23.9301 115.648 26.2266C115.598 26.4354 114.872 29.5022 113.469 35.4271C113.466 35.4383 113.466 35.4499 113.469 35.4612C113.471 35.4724 113.476 35.4829 113.483 35.4919C113.49 35.501 113.5 35.5082 113.51 35.5132C113.52 35.5181 113.532 35.5207 113.543 35.5206H120.184C120.196 35.5207 120.207 35.5181 120.218 35.5131C120.228 35.5081 120.237 35.5008 120.245 35.4916C120.252 35.4825 120.257 35.4719 120.26 35.4604C120.263 35.449 120.263 35.4371 120.26 35.4256C119.357 31.2946 118.462 26.9875 117.574 22.5043C117.513 22.1936 117.347 20.9528 117.078 18.7819C117.074 18.7453 117.048 18.6973 117.001 18.638C116.997 18.6334 116.992 18.63 116.987 18.6283C116.981 18.6266 116.975 18.6267 116.97 18.6284C116.964 18.6302 116.959 18.6337 116.956 18.6383C116.952 18.6429 116.95 18.6485 116.95 18.6543Z" fill="black"/>
<path d="M172.007 30.2899C172.756 30.3938 173.341 30.507 173.762 30.6297C178.464 31.9967 179.547 36.5101 179.507 40.8469C179.474 44.4 178.746 48.5275 175.443 50.5089C173.2 51.855 170.479 52.0153 167.771 52.0139C164.959 52.0129 154.418 52.0134 136.148 52.0153C136.132 52.0153 136.116 52.0088 136.104 51.9971C136.093 51.9854 136.086 51.9695 136.086 51.953V10.8708C136.086 10.8526 136.093 10.835 136.106 10.822C136.119 10.8089 136.136 10.8014 136.154 10.801C137.327 10.7773 138.501 10.7674 139.678 10.7714C142.745 10.7832 150.871 10.7852 164.055 10.7773C166.008 10.7763 167.661 10.8109 169.013 10.8812C169.853 10.9247 170.735 11.0712 171.659 11.3205C175.531 12.3624 177.059 15.5282 177.331 19.2876C177.542 22.2218 177.456 27.1849 174.768 29.1559C173.892 29.7986 173.031 29.999 172.004 30.2438C171.999 30.2455 171.994 30.2487 171.991 30.2531C171.988 30.2575 171.987 30.2627 171.987 30.268C171.988 30.2733 171.99 30.2783 171.993 30.2823C171.997 30.2863 172.002 30.2889 172.007 30.2899ZM144.182 17.5838C144.172 17.5838 144.162 17.5878 144.155 17.5951C144.148 17.6023 144.143 17.6121 144.143 17.6223V27.8053C144.143 27.8313 144.154 27.8562 144.172 27.8746C144.19 27.893 144.214 27.9033 144.24 27.9033C154.17 27.9053 161.605 27.9038 166.546 27.8988C168.139 27.8969 169.135 27.133 169.534 25.6073C170.061 23.5828 170.347 18.6212 167.653 17.8376C166.602 17.5333 165.531 17.5763 164.403 17.5749C157.444 17.5659 150.704 17.5689 144.182 17.5838ZM144.146 39.9059C144.146 42.1717 144.143 43.8855 144.135 45.0471C144.134 45.0634 144.137 45.0796 144.144 45.0947C144.15 45.1098 144.159 45.1236 144.17 45.1352C144.182 45.1468 144.195 45.156 144.21 45.1623C144.225 45.1685 144.242 45.1718 144.258 45.1718C152.598 45.1767 160.481 45.1752 167.904 45.1673C168.442 45.1673 168.963 45.1045 169.468 44.9788C171.784 44.4059 171.985 41.8665 171.985 39.9044C171.985 37.9438 171.784 35.4044 169.468 34.8315C168.963 34.7058 168.442 34.643 167.904 34.643C160.481 34.6351 152.598 34.6336 144.258 34.6385C144.242 34.6385 144.225 34.6417 144.21 34.648C144.195 34.6543 144.182 34.6635 144.17 34.6751C144.159 34.6867 144.15 34.7005 144.144 34.7156C144.137 34.7307 144.134 34.7469 144.135 34.7632C144.143 35.9248 144.146 37.639 144.146 39.9059Z" fill="black"/>
<path d="M148.473 61.6656H156.592C156.599 61.6656 156.606 61.6672 156.613 61.6704C156.619 61.6736 156.625 61.6782 156.63 61.684C156.634 61.6897 156.637 61.6964 156.639 61.7035C156.64 61.7106 156.64 61.7179 156.638 61.7249L146.244 102.855C146.241 102.865 146.235 102.874 146.227 102.88C146.219 102.887 146.208 102.89 146.198 102.89H136.12C136.11 102.89 136.099 102.887 136.091 102.88C136.083 102.874 136.077 102.865 136.074 102.855L125.894 61.7234C125.892 61.7164 125.892 61.7091 125.894 61.702C125.895 61.6949 125.898 61.6882 125.903 61.6825C125.907 61.6767 125.913 61.6721 125.919 61.6689C125.926 61.6657 125.933 61.6641 125.94 61.6641H134.319C134.33 61.6638 134.341 61.6674 134.349 61.6741C134.358 61.6809 134.364 61.6905 134.366 61.7012L141.245 92.5589C141.247 92.5698 141.253 92.5798 141.262 92.5869C141.27 92.5941 141.281 92.598 141.292 92.598C141.303 92.598 141.314 92.5941 141.323 92.5869C141.331 92.5798 141.337 92.5698 141.339 92.5589L148.427 61.7027C148.43 61.6922 148.436 61.6828 148.444 61.6761C148.452 61.6694 148.463 61.6656 148.473 61.6656Z" fill="black"/>
<path d="M199.999 95.824V102.786C199.999 102.8 199.996 102.814 199.991 102.827C199.985 102.839 199.978 102.851 199.968 102.861C199.958 102.871 199.946 102.878 199.934 102.884C199.921 102.889 199.907 102.892 199.893 102.892H160.536C160.513 102.892 160.492 102.883 160.476 102.866C160.46 102.85 160.451 102.828 160.451 102.806V61.7041C160.451 61.6943 160.455 61.6848 160.462 61.6779C160.469 61.6709 160.478 61.667 160.488 61.667H199.534C199.558 61.667 199.582 61.6768 199.6 61.6944C199.617 61.7119 199.627 61.7357 199.627 61.7605V68.7807C199.627 68.8047 199.618 68.8277 199.601 68.8447C199.584 68.8617 199.561 68.8712 199.537 68.8712H168.555C168.541 68.8712 168.527 68.8769 168.517 68.8869C168.507 68.8969 168.501 68.9105 168.501 68.9246V78.4917C168.501 78.5122 168.509 78.5318 168.524 78.5463C168.538 78.5607 168.558 78.5689 168.579 78.5689H198.666C198.684 78.5689 198.702 78.5761 198.715 78.5889C198.728 78.6017 198.735 78.619 198.735 78.6371V85.6188C198.735 85.6447 198.725 85.6696 198.706 85.688C198.688 85.7064 198.662 85.7167 198.636 85.7167H168.546C168.534 85.7167 168.523 85.7214 168.514 85.7297C168.506 85.7381 168.501 85.7494 168.501 85.7612V95.5984C168.501 95.6185 168.509 95.6377 168.523 95.6519C168.537 95.6661 168.556 95.6741 168.576 95.6741C182.956 95.6751 192.46 95.6726 197.088 95.6667C197.484 95.6657 198.424 95.6875 199.908 95.732C199.932 95.7324 199.955 95.7422 199.972 95.7594C199.989 95.7767 199.999 95.7999 199.999 95.824Z" fill="black"/>
<path d="M233.837 102.792C233.841 102.803 233.842 102.815 233.841 102.826C233.839 102.838 233.835 102.849 233.829 102.859C233.822 102.869 233.813 102.876 233.803 102.882C233.793 102.887 233.781 102.89 233.77 102.89H225.241C225.209 102.89 225.177 102.879 225.15 102.86C225.124 102.841 225.104 102.814 225.094 102.783L219.516 86.1868C219.511 86.1743 219.503 86.1635 219.493 86.1557C219.483 86.148 219.47 86.1438 219.458 86.1437H213.772C213.747 86.1437 213.722 86.1539 213.704 86.172C213.686 86.1901 213.676 86.2146 213.676 86.2402V102.798C213.676 102.823 213.666 102.846 213.649 102.864C213.631 102.881 213.608 102.891 213.584 102.891H205.74C205.708 102.891 205.678 102.879 205.656 102.857C205.634 102.834 205.621 102.804 205.621 102.773V61.7156C205.621 61.7022 205.626 61.6894 205.636 61.6799C205.645 61.6704 205.658 61.6651 205.672 61.6651C213.325 61.6552 218.936 61.6602 222.503 61.6799C223.453 61.6859 224.543 61.8665 225.773 62.2217C228.104 62.8955 229.88 64.2951 230.81 66.5792C231.933 69.3324 232.099 72.2132 231.985 75.1994C231.917 76.9804 231.634 78.5907 231.136 80.0304C230.512 81.8322 229.052 83.5969 227.182 84.1416C227.169 84.1455 227.157 84.152 227.146 84.1607C227.136 84.1694 227.127 84.1802 227.121 84.1923C227.115 84.2044 227.111 84.2177 227.111 84.2311C227.11 84.2446 227.112 84.2581 227.117 84.2707L233.837 102.792ZM213.753 79.4397C218.027 79.4545 220.214 79.46 220.314 79.456C221.721 79.407 223.178 78.9915 223.567 77.5147C224.119 75.4131 224.048 73.2744 223.625 71.152C223.385 69.935 222.457 69.1988 221.278 68.9361C220.939 68.8609 220.442 68.8243 219.788 68.8263C218.655 68.8293 216.641 68.8298 213.747 68.8278C213.728 68.8278 213.711 68.8351 213.698 68.8482C213.685 68.8613 213.677 68.879 213.677 68.8975V79.3625C213.677 79.383 213.685 79.4026 213.699 79.4171C213.714 79.4316 213.733 79.4397 213.753 79.4397Z" fill="black"/>
<path d="M238.394 61.6639C246.788 61.66 255.403 61.6625 264.238 61.6714C264.85 61.6723 265.84 61.7421 267.209 61.8806C271.809 62.3437 276.25 63.7923 279.222 67.3914C279.84 68.1394 280.439 69.0844 281.019 70.2262C282.075 72.304 282.564 74.747 282.758 77.144C283.063 80.9464 283 84.6767 282.569 88.3347C282.282 90.7688 281.556 93.0134 280.393 95.0685C279.652 96.3785 278.831 97.4644 277.93 98.3262C275.729 100.435 272.842 101.695 269.844 102.282C267.81 102.68 265.804 102.881 263.827 102.884C257.505 102.894 249.042 102.895 238.436 102.887C238.395 102.887 238.356 102.871 238.327 102.842C238.298 102.813 238.281 102.774 238.281 102.733V61.7782C238.281 61.7479 238.293 61.7188 238.314 61.6974C238.336 61.676 238.364 61.6639 238.394 61.6639ZM246.343 68.7865V95.7052C246.343 95.7249 246.351 95.7437 246.365 95.7576C246.379 95.7716 246.398 95.7794 246.418 95.7794C254.884 95.7843 260.179 95.7824 262.302 95.7734C264.201 95.7655 265.995 95.5478 267.686 95.1204C270.465 94.4154 272.624 92.8318 273.805 90.2048C274.211 89.3054 274.492 87.9755 274.609 86.9633C274.93 84.2107 274.965 81.4644 274.713 78.7246C274.526 76.6868 274.163 74.7901 273.09 73.1471C271.918 71.3512 270.244 70.1317 268.069 69.4886C266.343 68.979 264.594 68.7242 262.823 68.7242C253.079 68.7232 247.61 68.7197 246.416 68.7138C246.397 68.7138 246.378 68.7215 246.365 68.7351C246.351 68.7488 246.343 68.7672 246.343 68.7865Z" fill="black"/>
<path d="M309.294 85.7182H295.217C295.193 85.7182 295.171 85.7273 295.154 85.7434C295.138 85.7596 295.129 85.7815 295.129 85.8043V95.545C295.129 95.5627 295.132 95.5802 295.139 95.5965C295.146 95.6128 295.156 95.6276 295.169 95.64C295.181 95.6524 295.196 95.6622 295.212 95.6688C295.229 95.6755 295.246 95.6788 295.264 95.6786C296.195 95.6736 300.146 95.6702 307.118 95.6682C308.261 95.6682 309.366 95.69 310.431 95.7335C310.45 95.7343 310.467 95.7423 310.48 95.7558C310.494 95.7694 310.501 95.7874 310.501 95.8062V102.795C310.501 102.82 310.491 102.843 310.474 102.86C310.457 102.878 310.434 102.887 310.41 102.887H287.129C287.115 102.887 287.101 102.881 287.09 102.871C287.08 102.861 287.074 102.847 287.074 102.832V61.7427C287.074 61.7219 287.083 61.7019 287.097 61.6871C287.112 61.6724 287.132 61.6641 287.153 61.6641H310.04C310.064 61.6641 310.088 61.6736 310.105 61.6906C310.122 61.7076 310.132 61.7306 310.132 61.7546V68.757C310.132 68.7873 310.12 68.8164 310.099 68.8378C310.077 68.8592 310.048 68.8713 310.018 68.8713H295.205C295.185 68.8713 295.166 68.8791 295.152 68.893C295.138 68.9069 295.13 68.9258 295.13 68.9455V78.4561C295.13 78.4837 295.141 78.5101 295.161 78.5296C295.18 78.5491 295.207 78.56 295.234 78.56H309.343C309.358 78.56 309.372 78.566 309.383 78.5765C309.393 78.5871 309.399 78.6015 309.399 78.6164V85.6114C309.399 85.6397 309.388 85.6669 309.368 85.6869C309.349 85.707 309.322 85.7182 309.294 85.7182Z" fill="black"/>
<path d="M206.299 124.465C206.298 124.455 206.299 124.444 206.303 124.434C206.306 124.424 206.311 124.415 206.318 124.407C206.325 124.399 206.334 124.393 206.343 124.389C206.353 124.384 206.363 124.382 206.374 124.382H209.114C209.138 124.382 209.162 124.391 209.18 124.406C209.198 124.422 209.209 124.443 209.212 124.467C209.468 126.301 211.078 127.058 212.737 127.331C214.602 127.639 216.684 127.677 218.578 127.432C219.998 127.25 221.826 126.755 221.954 125.09C222.05 123.83 221.154 123.211 220.082 122.888C217.514 122.114 214.923 122.212 211.546 121.579C208.877 121.077 206.214 119.896 206.631 116.667C207.198 112.242 213.932 112.175 217.093 112.406C220.261 112.638 223.828 113.977 224.408 117.558C224.408 117.564 224.408 117.57 224.407 117.575C224.405 117.581 224.402 117.586 224.399 117.59C224.395 117.595 224.39 117.598 224.385 117.601C224.38 117.603 224.375 117.604 224.369 117.604H221.537C221.52 117.604 221.502 117.598 221.488 117.587C221.474 117.576 221.464 117.561 221.46 117.543C220.748 114.642 216.293 114.647 213.972 114.769C212.677 114.836 209.707 114.938 209.45 116.699C209.165 118.652 211.759 119.044 213.139 119.253C214.21 119.415 216.043 119.643 218.639 119.936C220.117 120.102 221.442 120.47 222.614 121.04C223.853 121.643 224.552 122.658 224.711 124.084C225.065 127.26 223 128.934 220.167 129.589C218.174 130.05 216.011 130.058 213.881 129.926C210.373 129.707 206.739 128.551 206.299 124.465Z" fill="black"/>
<path d="M181.788 112.555H184.299C184.313 112.555 184.326 112.561 184.336 112.57C184.345 112.58 184.351 112.593 184.351 112.607V129.709C184.351 129.723 184.345 129.736 184.336 129.746C184.326 129.756 184.313 129.761 184.299 129.761H181.408C181.4 129.761 181.393 129.76 181.387 129.757C181.38 129.754 181.374 129.749 181.369 129.744L170.003 116.442C169.996 116.434 169.987 116.428 169.976 116.425C169.966 116.422 169.955 116.423 169.945 116.427C169.935 116.43 169.926 116.437 169.92 116.446C169.914 116.455 169.911 116.466 169.911 116.476V129.709C169.911 129.723 169.905 129.736 169.896 129.746C169.886 129.756 169.873 129.761 169.859 129.761H167.29C167.277 129.761 167.263 129.756 167.254 129.746C167.244 129.736 167.238 129.723 167.238 129.709V112.6C167.238 112.586 167.244 112.573 167.254 112.563C167.263 112.553 167.277 112.548 167.29 112.548H170.299C170.306 112.548 170.313 112.55 170.32 112.553C170.327 112.556 170.333 112.56 170.337 112.566L181.644 125.797C181.651 125.805 181.66 125.811 181.671 125.814C181.681 125.817 181.692 125.817 181.702 125.813C181.712 125.809 181.721 125.802 181.727 125.793C181.733 125.784 181.736 125.774 181.736 125.763V112.607C181.736 112.593 181.742 112.58 181.751 112.57C181.761 112.561 181.774 112.555 181.788 112.555Z" fill="black"/>
<path d="M101.708 112.557H104.851C104.864 112.557 104.877 112.561 104.888 112.567C104.899 112.574 104.908 112.584 104.914 112.595L113.572 129.657C113.577 129.668 113.58 129.68 113.58 129.693C113.579 129.705 113.576 129.717 113.569 129.727C113.563 129.738 113.554 129.746 113.543 129.752C113.532 129.758 113.52 129.761 113.508 129.761H110.699C110.686 129.761 110.673 129.757 110.662 129.751C110.651 129.744 110.642 129.734 110.636 129.723L108.523 125.558C108.517 125.547 108.508 125.537 108.497 125.53C108.486 125.523 108.473 125.52 108.46 125.52H97.803C97.7901 125.52 97.7775 125.523 97.7665 125.53C97.7555 125.537 97.7465 125.547 97.7406 125.558L95.5542 129.724C95.5483 129.736 95.5393 129.745 95.5283 129.752C95.5173 129.759 95.5047 129.763 95.4917 129.763H92.7598C92.7477 129.763 92.7358 129.759 92.7252 129.753C92.7147 129.747 92.7059 129.739 92.6996 129.728C92.6934 129.718 92.6899 129.706 92.6895 129.694C92.6891 129.682 92.6918 129.67 92.6974 129.659L101.645 112.595C101.651 112.584 101.66 112.574 101.671 112.567C101.682 112.561 101.695 112.557 101.708 112.557ZM99.0189 122.985C99.0148 122.992 99.0127 123.001 99.013 123.01C99.0132 123.018 99.0157 123.027 99.0201 123.034C99.0246 123.042 99.031 123.048 99.0386 123.052C99.0462 123.056 99.0548 123.059 99.0635 123.059L107.277 123.087C107.286 123.087 107.294 123.085 107.302 123.08C107.31 123.076 107.316 123.07 107.32 123.062C107.325 123.055 107.327 123.046 107.328 123.038C107.328 123.029 107.326 123.02 107.322 123.013L103.243 115.108C103.239 115.099 103.233 115.092 103.225 115.087C103.217 115.082 103.208 115.079 103.198 115.079C103.189 115.079 103.18 115.081 103.171 115.086C103.163 115.091 103.157 115.098 103.152 115.106L99.0189 122.985Z" fill="black"/>
<path d="M118.449 112.559H115.81C115.767 112.559 115.732 112.593 115.732 112.636V129.686C115.732 129.729 115.767 129.763 115.81 129.763H118.449C118.492 129.763 118.527 129.729 118.527 129.686V112.636C118.527 112.593 118.492 112.559 118.449 112.559Z" fill="black"/>
<path d="M122.512 112.743C122.512 112.693 122.531 112.646 122.567 112.61C122.602 112.575 122.649 112.556 122.699 112.556C128.207 112.556 131.898 112.557 133.769 112.56C136.308 112.565 138.762 113.457 139.25 116.251C139.699 118.834 138.851 121.566 135.938 122.046C135.929 122.047 135.92 122.051 135.912 122.057C135.904 122.063 135.898 122.071 135.895 122.08C135.891 122.088 135.889 122.098 135.89 122.108C135.891 122.117 135.894 122.127 135.899 122.135L140.987 129.68C140.993 129.688 140.996 129.698 140.996 129.707C140.997 129.717 140.994 129.727 140.99 129.735C140.985 129.744 140.978 129.751 140.97 129.756C140.962 129.761 140.952 129.763 140.943 129.763H138.01C137.98 129.763 137.951 129.756 137.924 129.742C137.898 129.728 137.875 129.708 137.858 129.683L133.066 122.574C133.054 122.556 133.037 122.542 133.018 122.531C132.999 122.521 132.978 122.516 132.956 122.516H125.358C125.342 122.516 125.325 122.519 125.31 122.525C125.295 122.532 125.281 122.541 125.27 122.552C125.258 122.564 125.249 122.577 125.243 122.592C125.236 122.607 125.233 122.623 125.233 122.639V129.711C125.233 129.725 125.228 129.738 125.218 129.748C125.208 129.758 125.195 129.763 125.181 129.763H122.583C122.574 129.763 122.564 129.761 122.556 129.758C122.547 129.754 122.539 129.749 122.533 129.742C122.526 129.736 122.521 129.728 122.517 129.719C122.514 129.711 122.512 129.701 122.512 129.692V112.743ZM125.244 115.134L125.253 120.031C125.253 120.043 125.255 120.054 125.259 120.064C125.263 120.074 125.27 120.083 125.277 120.091C125.285 120.099 125.295 120.105 125.305 120.11C125.315 120.114 125.326 120.116 125.337 120.116L134.156 120.1C134.478 120.099 134.796 120.045 135.093 119.94C135.39 119.834 135.66 119.68 135.887 119.487C136.115 119.293 136.295 119.063 136.417 118.809C136.54 118.556 136.603 118.285 136.602 118.012L136.599 117.112C136.598 116.56 136.339 116.03 135.88 115.64C135.42 115.25 134.796 115.032 134.147 115.033L125.328 115.049C125.306 115.049 125.284 115.058 125.268 115.074C125.253 115.09 125.244 115.111 125.244 115.134Z" fill="black"/>
<path d="M146.325 127.234H157.966C157.993 127.234 158.02 127.245 158.039 127.264C158.059 127.284 158.07 127.31 158.07 127.338V129.66C158.07 129.688 158.059 129.714 158.039 129.734C158.02 129.753 157.993 129.764 157.966 129.764H143.563C143.535 129.764 143.509 129.753 143.489 129.734C143.47 129.714 143.459 129.688 143.459 129.66V112.663C143.459 112.636 143.47 112.609 143.489 112.59C143.509 112.571 143.535 112.56 143.563 112.56H146.117C146.13 112.56 146.144 112.562 146.156 112.567C146.169 112.573 146.181 112.58 146.19 112.59C146.2 112.6 146.207 112.611 146.213 112.624C146.218 112.636 146.221 112.65 146.221 112.663V127.13C146.221 127.157 146.232 127.184 146.251 127.203C146.271 127.223 146.297 127.234 146.325 127.234Z" fill="black"/>
<path d="M163.165 112.557H160.528C160.486 112.557 160.451 112.591 160.451 112.634V129.687C160.451 129.73 160.486 129.764 160.528 129.764H163.165C163.208 129.764 163.243 129.73 163.243 129.687V112.634C163.243 112.591 163.208 112.557 163.165 112.557Z" fill="black"/>
<path d="M204.222 115.068H191.172C191.148 115.068 191.125 115.078 191.109 115.094C191.092 115.111 191.083 115.134 191.083 115.157V119.751C191.083 119.775 191.092 119.797 191.109 119.814C191.125 119.831 191.148 119.84 191.172 119.84H203.849C203.873 119.84 203.895 119.849 203.912 119.866C203.929 119.883 203.938 119.905 203.938 119.929V122.253C203.938 122.277 203.929 122.3 203.912 122.316C203.895 122.333 203.873 122.342 203.849 122.342H191.172C191.148 122.342 191.125 122.352 191.109 122.368C191.092 122.385 191.083 122.408 191.083 122.431V127.144C191.083 127.167 191.092 127.19 191.109 127.207C191.125 127.223 191.148 127.233 191.172 127.233H204.378C204.39 127.233 204.401 127.235 204.412 127.24C204.423 127.244 204.433 127.251 204.441 127.259C204.449 127.267 204.456 127.277 204.461 127.288C204.465 127.299 204.467 127.31 204.467 127.322V129.676C204.467 129.699 204.458 129.722 204.441 129.739C204.424 129.755 204.402 129.765 204.378 129.765H188.499C188.476 129.765 188.453 129.755 188.436 129.739C188.42 129.722 188.41 129.699 188.41 129.676V112.645C188.41 112.621 188.42 112.598 188.436 112.582C188.453 112.565 188.476 112.556 188.499 112.556H204.222C204.246 112.556 204.268 112.565 204.285 112.582C204.302 112.598 204.311 112.621 204.311 112.645V114.979C204.311 115.003 204.302 115.026 204.285 115.042C204.268 115.059 204.246 115.068 204.222 115.068Z" fill="black"/>
</svg>
