<svg width="362" height="140" viewBox="0 0 362 140" fill="none" xmlns="http://www.w3.org/2000/svg">
<rect width="362" height="140" fill="white"/>
<g clip-path="url(#clip0_616_41966)">
<path d="M59.0578 44C62.9778 44.4421 66.6753 45.5776 70.1503 47.4064C70.2703 47.4717 70.3478 47.5671 70.3828 47.6928C70.391 47.7198 70.3928 47.7484 70.388 47.7763C70.3832 47.8042 70.372 47.8306 70.3552 47.8533C70.3384 47.876 70.3166 47.8945 70.2914 47.9071C70.2662 47.9198 70.2385 47.9264 70.2103 47.9264H44.2003C44.1434 47.9264 44.0882 47.9073 44.0434 47.8721C43.9986 47.8369 43.9667 47.7877 43.9529 47.7323C43.9391 47.6769 43.9442 47.6184 43.9673 47.5661C43.9903 47.5139 44.0301 47.4709 44.0803 47.4441C47.5353 45.5901 51.2478 44.4421 55.2178 44H59.0578Z" fill="#771034"/>
<path d="M38.5765 51.9357L41.5015 48.9965C41.5232 48.9749 41.549 48.9577 41.5773 48.9461C41.6056 48.9345 41.6359 48.9286 41.6665 48.9287H72.5965C72.6271 48.9286 72.6574 48.9345 72.6857 48.9461C72.7141 48.9577 72.7398 48.9749 72.7615 48.9965L75.694 51.9357C75.7268 51.9683 75.7491 52.0101 75.7582 52.0556C75.7673 52.101 75.7626 52.1482 75.7449 52.191C75.7273 52.2339 75.6973 52.2705 75.6588 52.2961C75.6204 52.3218 75.5752 52.3353 75.529 52.3351H38.7415C38.6954 52.3353 38.6502 52.3218 38.6117 52.2961C38.5733 52.2705 38.5433 52.2339 38.5256 52.191C38.5079 52.1482 38.5033 52.101 38.5123 52.0556C38.5214 52.0101 38.5438 51.9683 38.5765 51.9357Z" fill="#771034"/>
<path d="M159.599 50.8804C164.954 50.8729 169.402 53.6763 171.959 58.3865C171.986 58.4331 172 58.486 172 58.5398C171.999 58.5936 171.985 58.6463 171.957 58.6925C171.929 58.7386 171.89 58.7765 171.843 58.8022C171.796 58.8279 171.743 58.8405 171.689 58.8386C170.584 58.8236 166.554 58.816 159.599 58.816C152.644 58.8211 148.614 58.8286 147.509 58.8386C147.458 58.8384 147.407 58.8247 147.362 58.7988C147.317 58.7729 147.279 58.7358 147.253 58.691C147.226 58.6462 147.212 58.5953 147.211 58.5433C147.21 58.4912 147.222 58.4398 147.247 58.394C149.789 53.6839 154.244 50.8804 159.599 50.8804Z" fill="#771034"/>
<path d="M242.856 54.0234L240.284 58.5074C240.226 58.604 240.145 58.684 240.048 58.7395C239.951 58.795 239.841 58.8241 239.729 58.824H218.976C218.917 58.8236 218.86 58.8079 218.809 58.7783C218.758 58.7488 218.716 58.7064 218.686 58.6554C218.657 58.6044 218.641 58.5466 218.641 58.4876C218.64 58.4286 218.655 58.3705 218.684 58.319C223.709 49.6373 234.689 49.17 242.706 53.4808C242.752 53.5059 242.793 53.54 242.825 53.5811C242.858 53.6222 242.882 53.6695 242.896 53.7201C242.91 53.7708 242.913 53.8237 242.907 53.8758C242.9 53.9279 242.883 53.9781 242.856 54.0234Z" fill="#771034"/>
<path d="M115.007 51.2651H91.6069C91.4702 51.2651 91.3594 51.3765 91.3594 51.5138V58.5828C91.3594 58.7202 91.4702 58.8315 91.6069 58.8315H115.007C115.144 58.8315 115.254 58.7202 115.254 58.5828V51.5138C115.254 51.3765 115.144 51.2651 115.007 51.2651Z" fill="#771034"/>
<path d="M144.047 58.8311H132.842C132.735 58.8309 132.63 58.7987 132.54 58.7385C132.449 58.6784 132.377 58.5927 132.333 58.492C131.838 57.3716 130.882 56.7787 129.467 56.7134C129.378 56.7109 129.291 56.7319 129.213 56.7743C129.135 56.8166 129.07 56.8789 129.025 56.9546C128.895 57.1806 128.882 57.5499 128.987 58.0624C129.008 58.1547 129.007 58.2503 128.985 58.3423C128.963 58.4343 128.921 58.5203 128.861 58.594C128.801 58.6678 128.726 58.7273 128.64 58.7683C128.554 58.8093 128.46 58.8308 128.365 58.8311H117.325C117.255 58.8311 117.189 58.8033 117.139 58.7538C117.09 58.7044 117.063 58.6373 117.062 58.5673V51.5511C117.063 51.4711 117.094 51.3945 117.15 51.3379C117.207 51.2814 117.283 51.2496 117.363 51.2496C125.668 51.2848 130.483 51.2823 131.808 51.2421C137.988 51.0688 142.878 51.9806 144.43 58.3412C144.445 58.3988 144.446 58.459 144.434 58.5172C144.422 58.5754 144.396 58.6302 144.359 58.6774C144.322 58.7246 144.275 58.763 144.221 58.7896C144.167 58.8162 144.108 58.8304 144.047 58.8311Z" fill="#771034"/>
<path d="M175.44 51.2576C178.62 51.2928 183.385 51.2928 189.735 51.2576C195.863 51.2199 200.078 52.5237 201.878 58.2814C201.898 58.3438 201.903 58.4102 201.892 58.475C201.881 58.5398 201.855 58.6013 201.815 58.6542C201.776 58.7072 201.724 58.7502 201.665 58.7797C201.605 58.8093 201.539 58.8244 201.473 58.824H191.228C191.094 58.8243 190.962 58.7889 190.846 58.7214C190.73 58.6539 190.634 58.5567 190.568 58.4397C189.973 57.3494 188.938 56.9073 187.463 57.1133C187.334 57.1314 187.216 57.1955 187.131 57.2937C187.046 57.392 186.998 57.5179 186.998 57.6483V58.4321C186.998 58.4836 186.988 58.5345 186.968 58.5821C186.948 58.6296 186.918 58.6728 186.881 58.7092C186.844 58.7456 186.801 58.7745 186.752 58.7942C186.704 58.8139 186.653 58.824 186.6 58.824H175.41C175.337 58.824 175.266 58.7946 175.214 58.7423C175.162 58.69 175.133 58.6191 175.133 58.5452V51.5591C175.133 51.5188 175.141 51.479 175.156 51.4419C175.172 51.4049 175.195 51.3713 175.223 51.3432C175.252 51.3151 175.286 51.2931 175.323 51.2784C175.36 51.2637 175.4 51.2566 175.44 51.2576Z" fill="#771034"/>
<path d="M215.251 51.255L203.971 51.2748C203.793 51.2751 203.649 51.4205 203.649 51.5994L203.661 58.5177C203.661 58.6967 203.806 58.8415 203.984 58.8412L215.264 58.8214C215.442 58.8211 215.586 58.6758 215.586 58.4968L215.574 51.5785C215.574 51.3996 215.429 51.2547 215.251 51.255Z" fill="#771034"/>
<path d="M257.24 58.4696L259.662 51.4533C259.68 51.401 259.713 51.3554 259.757 51.3229C259.802 51.2905 259.855 51.2728 259.91 51.2725H276.477C276.531 51.2723 276.584 51.2888 276.628 51.3198C276.673 51.3509 276.706 51.3948 276.725 51.4458L279.162 58.462C279.177 58.502 279.182 58.5448 279.176 58.5869C279.171 58.6291 279.155 58.6693 279.131 58.704C279.106 58.7388 279.074 58.7672 279.036 58.7867C278.999 58.8063 278.957 58.8164 278.915 58.8162H257.487C257.446 58.816 257.405 58.8059 257.368 58.7867C257.332 58.7676 257.3 58.74 257.276 58.7062C257.252 58.6724 257.236 58.6334 257.23 58.5922C257.223 58.5511 257.227 58.5091 257.24 58.4696Z" fill="#771034"/>
<path d="M298.173 51.2651H286.848C286.699 51.2651 286.578 51.3866 286.578 51.5364V58.5602C286.578 58.71 286.699 58.8315 286.848 58.8315H298.173C298.322 58.8315 298.443 58.71 298.443 58.5602V51.5364C298.443 51.3866 298.322 51.2651 298.173 51.2651Z" fill="#771034"/>
<path d="M328.563 58.8312H317.35C317.243 58.831 317.138 58.7988 317.047 58.7386C316.957 58.6785 316.885 58.5928 316.84 58.4921C316.345 57.3717 315.39 56.7788 313.975 56.7135C313.886 56.711 313.798 56.732 313.721 56.7744C313.643 56.8167 313.578 56.879 313.533 56.9547C313.403 57.1808 313.39 57.55 313.495 58.0625C313.515 58.1548 313.515 58.2504 313.493 58.3424C313.471 58.4344 313.428 58.5204 313.369 58.5941C313.309 58.6678 313.233 58.7274 313.148 58.7684C313.062 58.8094 312.968 58.8309 312.873 58.8312H301.833C301.763 58.8312 301.696 58.8034 301.647 58.7539C301.598 58.7045 301.57 58.6374 301.57 58.5674V51.5512C301.57 51.4712 301.602 51.3946 301.658 51.338C301.714 51.2815 301.791 51.2497 301.87 51.2497C310.175 51.2849 314.99 51.2824 316.315 51.2422C322.495 51.0689 327.393 51.9732 328.945 58.3413C328.96 58.3989 328.961 58.4591 328.949 58.5173C328.937 58.5755 328.911 58.6303 328.874 58.6775C328.838 58.7247 328.79 58.7631 328.736 58.7897C328.682 58.8163 328.623 58.8305 328.563 58.8312Z" fill="#771034"/>
<path d="M31 71.1908V69.1862C31.355 63.4084 33.265 58.3315 36.73 53.9555C36.7931 53.8756 36.8731 53.811 36.964 53.7667C37.0549 53.7223 37.1544 53.6992 37.255 53.6992H77.5C77.5369 53.6994 77.5728 53.7085 77.6043 53.7256C77.6358 53.7428 77.6619 53.7674 77.68 53.7972L80.6725 58.7636C80.6753 58.7667 80.6772 58.7706 80.6779 58.7747C80.6787 58.7789 80.6782 58.7832 80.6767 58.7871C80.6751 58.791 80.6725 58.7944 80.6691 58.7969C80.6657 58.7994 80.6617 58.8009 80.6575 58.8012C71.0225 58.7862 60.695 58.7812 49.675 58.7862C47.665 58.7862 46.0975 60.7155 46.3825 62.6372C46.4775 63.2954 47.1225 64.1997 48.3175 65.3502C50.89 67.8146 54.6925 72.1404 56.755 76.225C58.115 78.9129 58.1325 81.7591 56.8075 84.7636C54.4375 90.1595 46.765 91.0789 41.5225 90.9207C41.261 90.9159 41.0119 90.8227 40.8175 90.6569C34.8075 85.6378 31.535 79.1491 31 71.1908Z" fill="#771034"/>
<path d="M63.2066 95.3291C64.7766 94.5705 65.8416 93.96 66.4016 93.4978C72.1916 88.7726 70.7816 80.7239 66.1466 75.9083C62.9316 72.5672 58.9016 68.5278 54.0566 63.79C53.8466 63.589 53.5916 63.2273 53.2916 62.7048C53.1616 62.4771 53.0934 62.2191 53.0938 61.9566C53.0941 61.6941 53.163 61.4363 53.2936 61.209C53.4242 60.9817 53.6119 60.7927 53.8379 60.6611C54.0639 60.5295 54.3203 60.4598 54.5816 60.459H80.9666C81.1004 60.4595 81.2308 60.5018 81.3397 60.5801C81.4486 60.6585 81.5305 60.7689 81.5741 60.8961C86.3141 75.2526 80.1191 89.0514 66.2066 94.8317C64.8666 95.3944 63.8816 95.6406 63.2516 95.5703C63.2243 95.5673 63.1987 95.5557 63.1786 95.537C63.1585 95.5183 63.1449 95.4936 63.1399 95.4665C63.1348 95.4395 63.1386 95.4115 63.1506 95.3867C63.1626 95.362 63.1822 95.3418 63.2066 95.3291Z" fill="#771034"/>
<path d="M103.307 60.4592C107.232 60.4642 111.092 60.4617 114.887 60.4517C114.986 60.4517 115.082 60.4906 115.152 60.5598C115.222 60.6291 115.262 60.723 115.262 60.8209V62.8331C115.262 62.927 115.225 63.0171 115.159 63.0836C115.093 63.15 115.003 63.1873 114.909 63.1873H109.652C109.552 63.1873 109.457 63.227 109.387 63.2977C109.316 63.3683 109.277 63.4642 109.277 63.5641V66.5409C109.277 66.6796 109.223 66.8126 109.126 66.9113C109.029 67.01 108.897 67.0665 108.759 67.0685C108.399 67.0735 106.582 67.076 103.307 67.076C100.032 67.076 98.2169 67.0735 97.8619 67.0685C97.7239 67.0665 97.5923 67.01 97.4955 66.9113C97.3986 66.8126 97.3444 66.6796 97.3444 66.5409V63.5641C97.3444 63.4642 97.3049 63.3683 97.2345 63.2977C97.1642 63.227 97.0688 63.1873 96.9694 63.1873H91.7119C91.6184 63.1873 91.5287 63.15 91.4626 63.0836C91.3965 63.0171 91.3594 62.927 91.3594 62.8331V60.8209C91.3594 60.7243 91.3978 60.6314 91.4665 60.5624C91.5353 60.4934 91.6287 60.4536 91.7269 60.4517C95.5269 60.4617 99.3869 60.4642 103.307 60.4592Z" fill="#771034"/>
<path d="M144.227 60.8885C143.882 62.6068 143.01 63.9834 141.61 65.0184C141.563 65.0526 141.525 65.0971 141.498 65.1483C141.47 65.1996 141.455 65.2564 141.453 65.3144C141.451 65.3724 141.462 65.4301 141.485 65.4833C141.508 65.5365 141.543 65.5836 141.587 65.6213C142.097 66.0634 142.375 66.395 142.42 66.6161C142.431 66.6747 142.428 66.7351 142.413 66.7929C142.398 66.8506 142.37 66.9045 142.331 66.9505C142.293 66.9965 142.244 67.0336 142.19 67.0592C142.135 67.0847 142.075 67.0981 142.015 67.0984L117.265 67.0683C117.209 67.0683 117.156 67.0468 117.116 67.0087C117.077 66.9705 117.055 66.9187 117.055 66.8648V60.7001C117.055 60.6362 117.08 60.5748 117.125 60.5296C117.17 60.4844 117.231 60.459 117.295 60.459H128.485C128.548 60.459 128.61 60.4715 128.668 60.4957C128.727 60.5199 128.78 60.5555 128.824 60.6003C128.869 60.645 128.904 60.6982 128.928 60.7567C128.952 60.8152 128.965 60.878 128.965 60.9413V61.7025C128.965 61.7559 128.975 61.8088 128.996 61.8578C129.017 61.9069 129.048 61.9512 129.087 61.9879C129.125 62.0246 129.171 62.053 129.221 62.0713C129.271 62.0896 129.324 62.0974 129.377 62.0943C130.652 62.0341 131.585 61.6095 132.175 60.8207C132.261 60.7081 132.372 60.6169 132.5 60.5542C132.627 60.4915 132.767 60.4589 132.91 60.459H143.875C143.928 60.4591 143.98 60.471 144.028 60.4938C144.075 60.5165 144.118 60.5496 144.151 60.5906C144.185 60.6316 144.209 60.6796 144.222 60.7311C144.235 60.7826 144.237 60.8363 144.227 60.8885Z" fill="#771034"/>
<path d="M159.587 60.459C164.062 60.464 168.307 60.459 172.322 60.4439C172.443 60.4429 172.563 60.4661 172.675 60.5123C172.787 60.5584 172.888 60.6265 172.974 60.7127C173.06 60.7989 173.128 60.9014 173.174 61.0143C173.221 61.1273 173.245 61.2485 173.245 61.3708V66.5181C173.245 66.672 173.185 66.8196 173.078 66.9284C172.971 67.0372 172.826 67.0984 172.675 67.0984H161.417C161.364 67.0976 161.313 67.0815 161.268 67.0521C161.224 67.0227 161.189 66.9813 161.169 66.933C161.148 66.8848 161.142 66.8318 161.151 66.7808C161.161 66.7298 161.186 66.683 161.222 66.6462C162.717 65.1038 162.632 63.6493 160.967 62.2827C160.632 62.0114 160.172 61.8758 159.587 61.8758C159.002 61.8758 158.542 62.0114 158.207 62.2827C156.542 63.6493 156.457 65.1038 157.952 66.6462C157.989 66.683 158.014 66.7298 158.023 66.7808C158.033 66.8318 158.027 66.8848 158.006 66.933C157.985 66.9813 157.95 67.0227 157.906 67.0521C157.862 67.0815 157.81 67.0976 157.757 67.0984H146.5C146.349 67.0984 146.204 67.0372 146.097 66.9284C145.99 66.8196 145.93 66.672 145.93 66.5181V61.3708C145.93 61.2485 145.954 61.1273 146 61.0143C146.047 60.9014 146.115 60.7989 146.2 60.7127C146.286 60.6265 146.388 60.5584 146.5 60.5123C146.612 60.4661 146.731 60.4429 146.852 60.4439C150.867 60.459 155.112 60.464 159.587 60.459Z" fill="#771034"/>
<path d="M200.993 60.4438C201.217 60.4443 201.438 60.5041 201.632 60.617C201.826 60.73 201.988 60.8922 202.1 61.0875C202.213 61.2829 202.272 61.5044 202.272 61.73C202.273 61.9556 202.214 62.1774 202.103 62.3731L200.063 65.9227C199.86 66.2753 199.569 66.5682 199.219 66.7719C198.869 66.9756 198.472 67.083 198.068 67.0833H175.388C175.32 67.0833 175.255 67.0563 175.208 67.0082C175.16 66.9602 175.133 66.895 175.133 66.827V60.7378C175.133 60.6638 175.162 60.5929 175.214 60.5406C175.266 60.4883 175.337 60.4589 175.41 60.4589H186.578C186.687 60.4589 186.792 60.5026 186.869 60.5803C186.947 60.6581 186.99 60.7635 186.99 60.8734V62.4259C186.99 62.6125 187.064 62.7915 187.194 62.9241C187.325 63.0568 187.502 63.1323 187.688 63.1343C189.293 63.1544 190.358 62.3982 190.883 60.8659C190.926 60.7427 191.006 60.636 191.112 60.5604C191.219 60.4849 191.345 60.4442 191.475 60.4438H200.993Z" fill="#771034"/>
<path d="M215.274 60.4517H203.949C203.787 60.4517 203.656 60.5832 203.656 60.7456V66.7896C203.656 66.952 203.787 67.0835 203.949 67.0835H215.274C215.435 67.0835 215.566 66.952 215.566 66.7896V60.7456C215.566 60.5832 215.435 60.4517 215.274 60.4517Z" fill="#771034"/>
<path d="M239.069 60.4517C239.093 60.4526 239.117 60.4597 239.137 60.4723C239.158 60.4849 239.175 60.5026 239.187 60.5237C239.199 60.5448 239.206 60.5687 239.206 60.593C239.206 60.6173 239.201 60.6413 239.189 60.6627L238.034 62.6598C238.007 62.71 237.963 62.7489 237.911 62.7697C237.858 62.7904 237.801 62.7915 237.749 62.7728C235.694 62.0418 231.892 61.4691 229.889 62.8331C229.771 62.9137 229.671 63.0185 229.596 63.1406C229.521 63.2627 229.473 63.3993 229.454 63.5415C228.982 67.2041 235.304 66.0586 237.584 65.4105C237.697 65.3775 237.819 65.3816 237.93 65.4222C238.042 65.4627 238.139 65.5377 238.207 65.6366C238.397 65.9079 238.539 66.2244 238.634 66.5862C238.65 66.6482 238.651 66.7131 238.638 66.776C238.625 66.8388 238.597 66.8978 238.558 66.9487C238.518 66.9995 238.467 67.0408 238.409 67.0694C238.35 67.098 238.286 67.1131 238.222 67.1137H218.084C217.98 67.1137 217.876 67.093 217.78 67.0529C217.683 67.0127 217.596 66.9539 217.522 66.8797C217.448 66.8055 217.39 66.7175 217.35 66.6206C217.31 66.5236 217.289 66.4198 217.289 66.3148V61.6348C217.289 61.321 217.412 61.0201 217.632 60.7982C217.851 60.5763 218.149 60.4517 218.459 60.4517H239.069Z" fill="#771034"/>
<path d="M268.203 60.4141C272.138 60.4794 275.943 60.4894 279.618 60.4442C279.685 60.4437 279.752 60.4645 279.807 60.5037C279.862 60.5429 279.903 60.5985 279.925 60.6628L282.093 66.9178C282.1 66.9373 282.103 66.9582 282.1 66.9788C282.098 66.9995 282.09 67.0192 282.078 67.0362C282.066 67.0533 282.051 67.0672 282.032 67.0768C282.014 67.0863 281.994 67.0913 281.973 67.0912H270.73C270.607 67.0915 270.486 67.0514 270.386 66.9767C270.286 66.9021 270.212 66.7969 270.175 66.6767L268.405 61.13C268.401 61.1193 268.393 61.1089 268.383 61.0999C268.283 61.0496 268.223 61.0245 268.203 61.0245C268.188 61.0245 268.13 61.0496 268.03 61.0999C268.02 61.1089 268.012 61.1193 268.008 61.13L266.23 66.6767C266.193 66.7969 266.12 66.9021 266.02 66.9767C265.92 67.0514 265.799 67.0915 265.675 67.0912L254.433 67.0836C254.412 67.0837 254.392 67.0788 254.373 67.0692C254.355 67.0597 254.339 67.0457 254.328 67.0287C254.316 67.0116 254.308 66.9919 254.306 66.9713C254.303 66.9507 254.306 66.9297 254.313 66.9103L256.488 60.6552C256.51 60.591 256.551 60.5354 256.607 60.4962C256.662 60.4569 256.728 60.4361 256.795 60.4367C260.465 60.4819 264.268 60.4744 268.203 60.4141Z" fill="#771034"/>
<path d="M298.173 60.459H286.848C286.695 60.459 286.57 60.5838 286.57 60.7378V66.812C286.57 66.966 286.695 67.0909 286.848 67.0909H298.173C298.326 67.0909 298.45 66.966 298.45 66.812V60.7378C298.45 60.5838 298.326 60.459 298.173 60.459Z" fill="#771034"/>
<path d="M328.39 60.459C328.443 60.4592 328.495 60.4711 328.543 60.4938C328.591 60.5166 328.633 60.5496 328.667 60.5906C328.7 60.6316 328.725 60.6796 328.738 60.7311C328.751 60.7826 328.752 60.8364 328.742 60.8886C328.397 62.6068 327.525 63.9835 326.125 65.0184C326.078 65.0527 326.04 65.0971 326.013 65.1484C325.986 65.1996 325.971 65.2564 325.968 65.3144C325.966 65.3724 325.977 65.4302 326 65.4833C326.024 65.5365 326.059 65.5837 326.103 65.6213C326.613 66.0635 326.89 66.3951 326.935 66.6161C326.946 66.6748 326.944 66.7351 326.929 66.7929C326.913 66.8507 326.885 66.9045 326.847 66.9505C326.808 66.9965 326.76 67.0336 326.705 67.0592C326.65 67.0848 326.59 67.0982 326.53 67.0984L301.772 67.0683C301.717 67.0683 301.663 67.0469 301.624 67.0087C301.585 66.9705 301.563 66.9188 301.562 66.8648V60.7002C301.562 60.6362 301.588 60.5749 301.633 60.5297C301.678 60.4844 301.739 60.459 301.803 60.459H312.992C313.12 60.459 313.242 60.5098 313.332 60.6003C313.422 60.6907 313.473 60.8134 313.473 60.9413V61.7025C313.472 61.7559 313.483 61.8088 313.504 61.8579C313.525 61.907 313.556 61.9512 313.595 61.9879C313.633 62.0246 313.679 62.053 313.729 62.0713C313.779 62.0896 313.832 62.0975 313.885 62.0944C315.16 62.0341 316.093 61.6095 316.683 60.8208C316.77 60.7071 316.882 60.6153 317.011 60.5526C317.14 60.4898 317.281 60.4578 317.425 60.459H328.39Z" fill="#771034"/>
<path d="M130.697 68.5683C130.675 68.5514 130.658 68.5277 130.648 68.5008C130.639 68.4738 130.638 68.4449 130.646 68.4182C130.653 68.3915 130.669 68.3683 130.69 68.3519C130.711 68.3356 130.738 68.3269 130.765 68.3272H143.462C143.498 68.3275 143.532 68.3385 143.562 68.3586C143.591 68.3787 143.614 68.4071 143.627 68.4402L145.427 72.4721C145.437 72.4959 145.441 72.5217 145.439 72.5473C145.436 72.573 145.428 72.5976 145.413 72.6191C145.399 72.6407 145.38 72.6584 145.358 72.6709C145.336 72.6833 145.31 72.6901 145.285 72.6906H133.757C133.622 72.69 133.492 72.6432 133.388 72.5581C133.284 72.4729 133.213 72.3547 133.187 72.2234C132.897 70.7212 132.067 69.5028 130.697 68.5683Z" fill="#771034"/>
<path d="M196.943 68.5907V68.6058C196.93 68.7144 196.883 68.8162 196.809 68.8962C196.735 68.9762 196.637 69.0302 196.53 69.0504C193.53 69.6533 190.538 69.8266 187.553 69.5704C187.48 69.5641 187.407 69.5731 187.338 69.5968C187.269 69.6205 187.206 69.6583 187.152 69.708C187.099 69.7576 187.056 69.8179 187.027 69.885C186.997 69.9522 186.983 70.0247 186.983 70.0979V72.2382C186.983 72.3581 186.936 72.4732 186.853 72.558C186.77 72.6428 186.658 72.6904 186.54 72.6904H175.515C175.414 72.6904 175.317 72.6491 175.245 72.5756C175.173 72.5021 175.133 72.4024 175.133 72.2985V68.7263C175.133 68.6284 175.171 68.5345 175.238 68.4652C175.306 68.396 175.397 68.3571 175.493 68.3571L196.598 68.2139C196.646 68.2137 196.693 68.2235 196.737 68.2428C196.781 68.2621 196.821 68.2904 196.853 68.3258C196.885 68.3613 196.91 68.4031 196.926 68.4487C196.941 68.4943 196.947 68.5427 196.943 68.5907Z" fill="#771034"/>
<path d="M282.646 68.5004L283.996 72.3891C284.01 72.4265 284.014 72.4666 284.008 72.5059C284.003 72.5453 283.988 72.5827 283.965 72.6152C283.943 72.6477 283.912 72.6742 283.877 72.6925C283.842 72.7109 283.803 72.7205 283.764 72.7206H252.676C252.637 72.7205 252.598 72.7109 252.563 72.6925C252.528 72.6742 252.498 72.6477 252.475 72.6152C252.452 72.5827 252.437 72.5453 252.432 72.5059C252.427 72.4666 252.431 72.4265 252.444 72.3891L253.779 68.5004C253.796 68.4508 253.829 68.408 253.872 68.3782C253.915 68.3484 253.967 68.3332 254.019 68.3346H282.414C282.465 68.3347 282.515 68.3508 282.556 68.3804C282.598 68.4101 282.629 68.452 282.646 68.5004Z" fill="#771034"/>
<path d="M315.213 68.5605C315.19 68.5436 315.173 68.5199 315.164 68.493C315.155 68.466 315.154 68.4371 315.161 68.4104C315.169 68.3837 315.184 68.3605 315.206 68.3441C315.227 68.3278 315.253 68.3191 315.28 68.3193L327.985 68.3269C328.021 68.3272 328.056 68.3382 328.085 68.3583C328.114 68.3784 328.137 68.4068 328.15 68.4399L329.95 72.4718C329.96 72.4956 329.964 72.5214 329.962 72.5471C329.959 72.5727 329.951 72.5973 329.937 72.6189C329.923 72.6404 329.903 72.6582 329.881 72.6706C329.859 72.6831 329.834 72.6898 329.808 72.6904H318.273C318.138 72.6898 318.008 72.6429 317.904 72.5578C317.8 72.4726 317.729 72.3544 317.703 72.2231C317.413 70.7209 316.583 69.5 315.213 68.5605Z" fill="#771034"/>
<path d="M108.977 68.3193H97.6366C97.4792 68.3193 97.3516 68.4476 97.3516 68.6057V72.404C97.3516 72.5621 97.4792 72.6904 97.6366 72.6904H108.977C109.134 72.6904 109.262 72.5621 109.262 72.404V68.6057C109.262 68.4476 109.134 68.3193 108.977 68.3193Z" fill="#771034"/>
<path d="M128.635 68.3098L117.355 68.3296C117.189 68.3298 117.055 68.465 117.055 68.6315L117.062 72.3996C117.062 72.5661 117.197 72.7009 117.362 72.7006L128.642 72.6808C128.808 72.6805 128.942 72.5453 128.942 72.3788L128.935 68.6107C128.935 68.4442 128.8 68.3095 128.635 68.3098Z" fill="#771034"/>
<path d="M173.059 68.9751L171.049 72.4719C171.012 72.5375 170.959 72.5922 170.894 72.6306C170.83 72.6689 170.757 72.6896 170.682 72.6904H148.137C148.049 72.6893 147.964 72.6612 147.893 72.61C147.822 72.5588 147.768 72.4869 147.739 72.404L146.517 68.9072C146.494 68.8423 146.487 68.7728 146.496 68.7045C146.506 68.6363 146.531 68.5714 146.571 68.5152C146.611 68.4591 146.663 68.4133 146.724 68.3819C146.785 68.3504 146.853 68.3342 146.922 68.3345H172.684C172.759 68.334 172.833 68.3533 172.898 68.3905C172.963 68.4277 173.017 68.4814 173.055 68.5462C173.093 68.6111 173.114 68.6849 173.114 68.7601C173.115 68.8354 173.096 68.9095 173.059 68.9751Z" fill="#771034"/>
<path d="M215.259 68.3294L203.994 68.3097C203.812 68.3093 203.664 68.4575 203.663 68.6407L203.657 72.3485C203.657 72.5316 203.804 72.6803 203.986 72.6807L215.251 72.7004C215.434 72.7007 215.582 72.5525 215.582 72.3694L215.588 68.6616C215.589 68.4785 215.441 68.3297 215.259 68.3294Z" fill="#771034"/>
<path d="M219.101 72.5171L217.766 68.6887C217.751 68.6488 217.747 68.6059 217.752 68.5638C217.758 68.5216 217.773 68.4815 217.798 68.4467C217.822 68.4119 217.854 68.3835 217.892 68.364C217.929 68.3444 217.971 68.3343 218.013 68.3345H239.523C239.578 68.3348 239.632 68.3525 239.676 68.3849C239.72 68.4174 239.754 68.463 239.771 68.5153L241.098 72.3437C241.111 72.3832 241.115 72.4253 241.109 72.4664C241.102 72.5075 241.087 72.5466 241.063 72.5804C241.038 72.6142 241.007 72.6418 240.97 72.6609C240.933 72.68 240.892 72.6901 240.851 72.6904H219.348C219.294 72.6906 219.242 72.6741 219.197 72.643C219.153 72.612 219.119 72.568 219.101 72.5171Z" fill="#771034"/>
<path d="M298.157 68.3097L286.847 68.3296C286.69 68.3299 286.563 68.4583 286.563 68.6165L286.57 72.4147C286.57 72.5729 286.698 72.7009 286.855 72.7006L298.165 72.6808C298.322 72.6805 298.45 72.552 298.45 72.3939L298.443 68.5956C298.443 68.4375 298.315 68.3095 298.157 68.3097Z" fill="#771034"/>
<path d="M313.172 68.3097L301.862 68.3296C301.697 68.3298 301.563 68.465 301.563 68.6315L301.57 72.3996C301.57 72.5661 301.704 72.7009 301.87 72.7006L313.18 72.6807C313.346 72.6804 313.48 72.5452 313.48 72.3787L313.473 68.6106C313.473 68.4442 313.338 68.3094 313.172 68.3097Z" fill="#771034"/>
<path d="M108.954 73.6699H97.6744C97.5004 73.6699 97.3594 73.8116 97.3594 73.9864V77.9204C97.3594 78.0952 97.5004 78.2369 97.6744 78.2369H108.954C109.128 78.2369 109.269 78.0952 109.269 77.9204V73.9864C109.269 73.8116 109.128 73.6699 108.954 73.6699Z" fill="#771034"/>
<path d="M128.62 73.6699H117.37C117.2 73.6699 117.062 73.8083 117.062 73.9789V77.9279C117.062 78.0985 117.2 78.2369 117.37 78.2369H128.62C128.79 78.2369 128.928 78.0985 128.928 77.9279V73.9789C128.928 73.8083 128.79 73.6699 128.62 73.6699Z" fill="#771034"/>
<path d="M146.147 73.9038V77.996C146.147 78.056 146.123 78.1135 146.081 78.1559C146.039 78.1983 145.982 78.2221 145.922 78.2221H134.147C134.087 78.2221 134.03 78.1983 133.988 78.1559C133.946 78.1135 133.922 78.056 133.922 77.996V73.9038C133.922 73.8439 133.946 73.7864 133.988 73.744C134.03 73.7016 134.087 73.6777 134.147 73.6777H145.922C145.982 73.6777 146.039 73.7016 146.081 73.744C146.123 73.7864 146.147 73.8439 146.147 73.9038Z" fill="#771034"/>
<path d="M159.603 73.6775C165.318 73.6775 168.66 73.6599 169.63 73.6247C169.701 73.6224 169.77 73.6413 169.83 73.6791C169.89 73.7169 169.937 73.7719 169.965 73.8368C169.993 73.9017 170.001 73.9737 169.989 74.0433C169.976 74.113 169.942 74.1772 169.893 74.2276C166.833 77.222 163.403 78.7192 159.603 78.7192C155.808 78.7142 152.38 77.2145 149.32 74.2201C149.271 74.1701 149.238 74.1066 149.225 74.0377C149.212 73.9687 149.22 73.8974 149.247 73.8328C149.274 73.7682 149.32 73.7133 149.378 73.6749C149.437 73.6365 149.505 73.6164 149.575 73.6172C150.55 73.6524 153.893 73.6725 159.603 73.6775Z" fill="#771034"/>
<path d="M186.623 73.6678L175.493 73.6874C175.294 73.6877 175.133 73.8499 175.133 74.0497L175.14 77.8781C175.14 78.0779 175.302 78.2396 175.501 78.2392L186.631 78.2197C186.83 78.2194 186.99 78.0571 186.99 77.8573L186.983 74.0289C186.983 73.8292 186.822 73.6675 186.623 73.6678Z" fill="#771034"/>
<path d="M215.206 73.6777H204.031C203.824 73.6777 203.656 73.8464 203.656 74.0545V77.8528C203.656 78.0609 203.824 78.2296 204.031 78.2296H215.206C215.413 78.2296 215.581 78.0609 215.581 77.8528V74.0545C215.581 73.8464 215.413 73.6777 215.206 73.6777Z" fill="#771034"/>
<path d="M220.493 73.8282C220.486 73.811 220.483 73.7923 220.485 73.7737C220.487 73.7551 220.494 73.7371 220.505 73.7215C220.516 73.7058 220.531 73.6929 220.549 73.6839C220.566 73.6749 220.586 73.6701 220.606 73.6699H241.583C241.73 73.6695 241.873 73.715 241.992 73.8001C242.112 73.8852 242.202 74.0057 242.251 74.1447L242.776 75.652C242.809 75.7442 242.807 75.846 242.77 75.9377C242.732 76.0295 242.662 76.1048 242.573 76.1493C235.696 79.5406 227.176 79.9627 221.138 74.7401C220.833 74.4788 220.618 74.1749 220.493 73.8282Z" fill="#771034"/>
<path d="M250.506 77.8981L251.901 73.8436C251.919 73.794 251.951 73.7513 251.995 73.7215C252.038 73.6917 252.089 73.6764 252.141 73.6778H263.451C263.491 73.678 263.53 73.6876 263.565 73.706C263.6 73.7243 263.63 73.7508 263.653 73.7833C263.676 73.8157 263.69 73.8532 263.696 73.8926C263.701 73.9319 263.697 73.972 263.684 74.0094L262.289 78.0639C262.271 78.1135 262.239 78.1562 262.196 78.186C262.153 78.2158 262.101 78.2311 262.049 78.2297H250.739C250.699 78.2296 250.66 78.2199 250.625 78.2016C250.59 78.1832 250.56 78.1567 250.537 78.1243C250.515 78.0918 250.5 78.0543 250.495 78.015C250.489 77.9756 250.493 77.9356 250.506 77.8981Z" fill="#771034"/>
<path d="M284.44 73.8433L285.842 77.8827C285.856 77.9211 285.859 77.9622 285.854 78.0024C285.848 78.0427 285.832 78.0809 285.809 78.1141C285.786 78.1472 285.755 78.1743 285.719 78.193C285.683 78.2117 285.643 78.2216 285.602 78.2218H274.367C274.314 78.2215 274.263 78.2047 274.22 78.1736C274.177 78.1426 274.145 78.0988 274.127 78.0485L272.732 74.0091C272.719 73.9706 272.716 73.9295 272.721 73.8893C272.727 73.8491 272.742 73.8108 272.766 73.7777C272.789 73.7445 272.82 73.7175 272.856 73.6987C272.892 73.68 272.932 73.6701 272.972 73.6699H284.2C284.253 73.6702 284.304 73.687 284.348 73.7181C284.391 73.7491 284.423 73.7929 284.44 73.8433Z" fill="#771034"/>
<path d="M298.153 73.6626H286.918C286.756 73.6626 286.625 73.7942 286.625 73.9565V77.9356C286.625 78.098 286.756 78.2296 286.918 78.2296H298.153C298.314 78.2296 298.445 78.098 298.445 77.9356V73.9565C298.445 73.7942 298.314 73.6626 298.153 73.6626Z" fill="#771034"/>
<path d="M313.142 73.6699H301.877C301.699 73.6699 301.555 73.815 301.555 73.994V77.9128C301.555 78.0918 301.699 78.2369 301.877 78.2369H313.142C313.32 78.2369 313.465 78.0918 313.465 77.9128V73.994C313.465 73.815 313.32 73.6699 313.142 73.6699Z" fill="#771034"/>
<path d="M330.998 77.3702V78.1992L319.163 78.2369C319.056 78.2366 318.952 78.1985 318.871 78.1294C318.79 78.0603 318.737 77.9648 318.72 77.8601L318.12 74.0317C318.114 73.9865 318.117 73.9404 318.13 73.8966C318.143 73.8528 318.165 73.8124 318.195 73.778C318.225 73.7436 318.262 73.7162 318.304 73.6975C318.345 73.6789 318.39 73.6695 318.435 73.6699H329.88C329.992 73.6697 330.101 73.7087 330.187 73.7803C330.273 73.8518 330.332 73.9514 330.353 74.0618L330.998 77.3702Z" fill="#771034"/>
<path d="M99.8975 85.2083C100.647 85.1329 101.373 85.0952 102.073 85.0952C102.196 85.0972 102.315 85.1473 102.402 85.2347C102.489 85.3221 102.537 85.4398 102.537 85.5625V85.8262C102.537 85.9142 102.503 85.9985 102.441 86.0607C102.379 86.1229 102.295 86.1578 102.208 86.1578H101.03C100.894 86.1578 100.764 86.2124 100.667 86.3097C100.57 86.407 100.514 86.5392 100.512 86.6778C100.497 88.1348 100.51 89.1723 100.55 89.7903C100.61 90.6343 100.39 91.0564 99.89 91.0564C99.385 91.0564 99.1625 90.6343 99.2225 89.7903C99.2675 89.1723 99.285 88.1348 99.275 86.6778C99.273 86.5392 99.2177 86.407 99.1208 86.3097C99.024 86.2124 98.8935 86.1578 98.7575 86.1578L97.58 86.1503C97.4925 86.1503 97.4085 86.1154 97.3467 86.0532C97.2848 85.991 97.25 85.9066 97.25 85.8187V85.5549C97.252 85.4336 97.3016 85.3178 97.3884 85.232C97.4752 85.1462 97.5923 85.0971 97.715 85.0952C98.415 85.0952 99.1425 85.1329 99.8975 85.2083Z" fill="#828282"/>
<path d="M112.926 87.6198C113.231 87.6198 113.531 87.6148 113.826 87.6048C113.945 87.6005 114.058 87.5543 114.146 87.4743C114.233 87.3943 114.29 87.2857 114.306 87.1677C114.371 86.7557 114.374 86.311 114.314 85.8337C114.294 85.6868 114.325 85.539 114.404 85.4151C114.482 85.2911 114.601 85.1984 114.743 85.1525C114.884 85.1066 115.039 85.1103 115.18 85.163C115.322 85.2157 115.442 85.3141 115.521 85.4419C115.636 85.6328 115.666 85.9644 115.611 86.4366C115.556 86.9391 115.529 87.4967 115.529 88.1097C115.529 88.7226 115.556 89.2778 115.611 89.7752C115.661 90.2475 115.629 90.5791 115.514 90.77C115.435 90.8977 115.314 90.996 115.173 91.0487C115.031 91.1013 114.877 91.105 114.735 91.0591C114.594 91.0132 114.474 90.9206 114.396 90.7966C114.318 90.6727 114.286 90.525 114.306 90.3781C114.371 89.9008 114.371 89.4562 114.306 89.0442C114.289 88.9275 114.231 88.8207 114.143 88.7422C114.056 88.6637 113.944 88.6186 113.826 88.6146C113.531 88.5995 113.231 88.592 112.926 88.592C112.621 88.592 112.319 88.5995 112.019 88.6146C111.903 88.6203 111.792 88.6662 111.706 88.7445C111.62 88.8228 111.563 88.9287 111.546 89.0442C111.481 89.4562 111.479 89.9008 111.539 90.3781C111.559 90.525 111.527 90.6728 111.449 90.7968C111.371 90.9208 111.251 91.0134 111.11 91.0593C110.968 91.1052 110.814 91.1015 110.672 91.0488C110.53 90.9962 110.41 90.8977 110.331 90.77C110.216 90.5791 110.184 90.2475 110.234 89.7752C110.294 89.2778 110.324 88.7226 110.324 88.1097C110.324 87.4917 110.294 86.934 110.234 86.4366C110.184 85.9644 110.216 85.6328 110.331 85.4419C110.41 85.3142 110.53 85.2158 110.672 85.1631C110.814 85.1105 110.968 85.1068 111.11 85.1527C111.251 85.1986 111.371 85.2912 111.449 85.4152C111.527 85.5391 111.559 85.6869 111.539 85.8337C111.479 86.311 111.481 86.7557 111.546 87.1677C111.563 87.2831 111.62 87.389 111.706 87.4673C111.792 87.5456 111.903 87.5915 112.019 87.5972C112.319 87.6123 112.621 87.6198 112.926 87.6198Z" fill="#828282"/>
<path d="M123.749 88.0944C123.739 86.5721 123.734 85.7808 123.734 85.7205C123.734 85.5797 123.787 85.4441 123.882 85.3418C123.977 85.2395 124.106 85.1781 124.244 85.1704L126.982 85.0121C127.049 85.0081 127.116 85.0179 127.179 85.0409C127.242 85.064 127.3 85.0999 127.349 85.1464C127.398 85.1929 127.437 85.249 127.464 85.3114C127.491 85.3739 127.506 85.4412 127.507 85.5095V85.6979C127.508 85.7543 127.498 85.8104 127.477 85.8629C127.457 85.9154 127.426 85.9633 127.387 86.0039C127.348 86.0445 127.301 86.077 127.25 86.0995C127.198 86.122 127.143 86.134 127.087 86.135L125.422 86.1576C125.273 86.1597 125.13 86.2203 125.026 86.3263C124.922 86.4323 124.865 86.575 124.867 86.7229V87.0092C124.868 87.1037 124.889 87.1969 124.929 87.2823C124.969 87.3678 125.027 87.4435 125.099 87.5044C125.171 87.5652 125.255 87.6097 125.346 87.6348C125.437 87.6599 125.532 87.665 125.624 87.6498C126.889 87.4388 127.472 87.5694 127.372 88.0417C127.482 88.5441 126.902 88.6999 125.632 88.5089C125.54 88.496 125.446 88.5031 125.356 88.5298C125.267 88.5564 125.184 88.6019 125.114 88.6634C125.044 88.7248 124.987 88.8006 124.948 88.8858C124.91 88.9709 124.89 89.0634 124.889 89.1571V89.4434C124.889 89.5167 124.904 89.5892 124.932 89.6569C124.96 89.7245 125.002 89.786 125.054 89.8378C125.106 89.8896 125.168 89.9307 125.237 89.9587C125.305 89.9867 125.378 90.0011 125.452 90.0011H127.117C127.229 90.0011 127.337 90.0453 127.417 90.1243C127.497 90.2032 127.542 90.3105 127.544 90.4231V90.6115C127.545 90.6804 127.533 90.7488 127.507 90.8125C127.481 90.8762 127.443 90.9338 127.394 90.9818C127.346 91.0298 127.288 91.0672 127.225 91.0916C127.162 91.1161 127.094 91.1271 127.027 91.124L124.297 91.011C124.159 91.0052 124.028 90.9457 123.932 90.8447C123.836 90.7438 123.781 90.6091 123.779 90.4684C123.774 90.4131 123.764 89.6218 123.749 88.0944Z" fill="#828282"/>
<path d="M146.468 85.1025C146.583 85.1025 146.718 85.1478 146.873 85.2382C147.048 85.3387 147.15 85.4216 147.18 85.4869C147.715 86.763 148.458 88.4009 149.408 90.4005C149.438 90.4652 149.452 90.5361 149.45 90.6075C149.447 90.6788 149.428 90.7486 149.394 90.8111C149.359 90.8736 149.311 90.927 149.252 90.967C149.193 91.007 149.126 91.0324 149.055 91.0411C148.545 91.1014 148.203 90.8326 148.028 90.2347C147.983 90.0834 147.891 89.9506 147.765 89.8556C147.64 89.7607 147.487 89.7087 147.33 89.7072C147.06 89.7072 146.79 89.7072 146.52 89.7072C146.245 89.7122 145.973 89.7197 145.703 89.7298C145.546 89.7354 145.396 89.7911 145.273 89.8887C145.15 89.9863 145.062 90.1207 145.02 90.2724C144.86 90.8703 144.523 91.1466 144.008 91.1014C143.937 91.0944 143.869 91.0706 143.809 91.032C143.749 90.9934 143.699 90.941 143.663 90.8792C143.627 90.8174 143.606 90.748 143.602 90.6765C143.598 90.6051 143.611 90.5337 143.64 90.4683C144.545 88.4486 145.25 86.7932 145.755 85.502C145.785 85.4366 145.888 85.3512 146.063 85.2457C146.213 85.1553 146.348 85.1076 146.468 85.1025ZM147.24 88.2828C147.345 88.0567 147.193 87.7101 146.783 87.2428C146.568 86.9966 146.355 87.0117 146.145 87.288C145.79 87.7452 145.645 88.0542 145.71 88.215C145.767 88.3685 145.868 88.5017 146 88.598C146.132 88.6943 146.29 88.7495 146.453 88.7567C146.616 88.764 146.777 88.7229 146.917 88.6386C147.057 88.5544 147.17 88.4307 147.24 88.2828Z" fill="#828282"/>
<path d="M171.261 90.5588C171.294 90.6089 171.312 90.6669 171.314 90.7266C171.317 90.7863 171.303 90.8456 171.275 90.8981C171.246 90.9506 171.204 90.9944 171.153 91.0249C171.102 91.0554 171.043 91.0714 170.984 91.0712H170.646C170.458 91.0709 170.274 91.0139 170.119 90.9077C169.964 90.8015 169.844 90.651 169.776 90.4759C169.496 89.7423 169.094 89.1294 168.569 88.637C168.505 88.5803 168.427 88.5427 168.343 88.5288C168.259 88.5149 168.173 88.5253 168.096 88.5587C168.018 88.5921 167.952 88.6471 167.906 88.7171C167.859 88.7872 167.834 88.8693 167.834 88.9536V90.5738C167.834 90.6998 167.784 90.8205 167.695 90.9096C167.607 90.9986 167.487 91.0486 167.361 91.0486H167.091C166.976 91.0486 166.865 91.0026 166.784 90.9206C166.702 90.8386 166.656 90.7274 166.656 90.6115V85.7582C166.657 85.6496 166.692 85.544 166.757 85.4571C166.822 85.3702 166.913 85.3067 167.016 85.2759C168.306 84.894 169.359 85.0749 170.174 85.8185C170.316 85.9489 170.43 86.1072 170.508 86.2827C170.586 86.4582 170.627 86.6468 170.628 86.8359C170.629 87.025 170.589 87.2103 170.512 87.3793C170.435 87.5482 170.322 87.697 170.181 87.8156C170.061 87.9161 169.984 88.0065 169.949 88.0869C169.914 88.1852 169.901 88.29 169.913 88.3933C169.925 88.4966 169.96 88.5955 170.016 88.6822L171.261 90.5588ZM169.409 86.9188C169.409 86.7029 169.323 86.4959 169.172 86.3432C169.02 86.1906 168.814 86.1049 168.599 86.1049C168.384 86.1049 168.178 86.1906 168.026 86.3432C167.874 86.4959 167.789 86.7029 167.789 86.9188C167.789 87.1346 167.874 87.3417 168.026 87.4943C168.178 87.6469 168.384 87.7327 168.599 87.7327C168.814 87.7327 169.02 87.6469 169.172 87.4943C169.323 87.3417 169.409 87.1346 169.409 86.9188Z" fill="#828282"/>
<path d="M191.516 85.1629L191.261 85.1625C190.987 85.162 190.765 85.3843 190.765 85.659L190.756 90.5425C190.756 90.8172 190.977 91.0403 191.25 91.0407L191.505 91.0412C191.779 91.0417 192.001 90.8194 192.001 90.5447L192.01 85.6612C192.01 85.3865 191.789 85.1634 191.516 85.1629Z" fill="#828282"/>
<path d="M203.368 87.8385C203.413 87.8937 203.667 88.1977 204.132 88.7503C204.165 88.7885 204.209 88.8158 204.257 88.8286C204.306 88.8414 204.357 88.8391 204.404 88.8219C204.451 88.8047 204.492 88.7736 204.521 88.7325C204.551 88.6915 204.567 88.6425 204.567 88.5921V85.6303C204.567 85.5044 204.616 85.3837 204.704 85.2946C204.791 85.2056 204.909 85.1556 205.032 85.1556H205.257C205.381 85.1556 205.499 85.2048 205.586 85.2924C205.674 85.38 205.723 85.4989 205.723 85.6228V90.4988C205.72 90.6274 205.679 90.7524 205.605 90.857C205.53 90.9616 205.426 91.0409 205.305 91.0842C205.184 91.1276 205.054 91.1331 204.93 91.0998C204.806 91.0666 204.695 90.9962 204.612 90.8982C203.867 89.9938 203.175 89.1447 202.535 88.3509C202.495 88.2906 202.242 87.9842 201.777 87.4315C201.745 87.3933 201.701 87.366 201.653 87.3532C201.604 87.3404 201.553 87.3428 201.506 87.36C201.459 87.3771 201.418 87.4083 201.389 87.4493C201.359 87.4904 201.343 87.5394 201.342 87.5898V90.5515C201.342 90.6774 201.294 90.7982 201.206 90.8872C201.119 90.9763 201.001 91.0263 200.877 91.0263H200.652C200.529 91.0263 200.411 90.9771 200.324 90.8894C200.236 90.8018 200.188 90.683 200.188 90.559V85.6831C200.19 85.5544 200.231 85.4295 200.305 85.3249C200.38 85.2203 200.484 85.141 200.605 85.0976C200.726 85.0542 200.856 85.0488 200.98 85.082C201.104 85.1153 201.215 85.1856 201.297 85.2837C202.042 86.188 202.733 87.0396 203.368 87.8385Z" fill="#828282"/>
<path d="M213.929 88.0945C213.924 86.5722 213.922 85.7809 213.922 85.7206C213.923 85.5811 213.977 85.4474 214.072 85.3467C214.166 85.2459 214.295 85.1856 214.432 85.178L217.162 85.0273C217.229 85.0232 217.296 85.033 217.359 85.0561C217.422 85.0791 217.48 85.115 217.529 85.1615C217.578 85.208 217.617 85.2641 217.644 85.3266C217.671 85.389 217.686 85.4564 217.687 85.5247V85.7131C217.688 85.7695 217.678 85.8255 217.657 85.878C217.637 85.9305 217.606 85.9784 217.567 86.019C217.528 86.0596 217.481 86.0921 217.43 86.1146C217.378 86.1371 217.323 86.1492 217.267 86.1502L215.602 86.1652C215.528 86.1662 215.455 86.1816 215.387 86.2106C215.319 86.2395 215.258 86.2814 215.206 86.3339C215.155 86.3864 215.114 86.4484 215.087 86.5165C215.059 86.5845 215.046 86.6572 215.047 86.7305L215.054 87.0168C215.057 87.1107 215.078 87.203 215.119 87.2875C215.159 87.372 215.217 87.4468 215.288 87.5068C215.359 87.5669 215.442 87.6107 215.531 87.6354C215.62 87.66 215.713 87.665 215.804 87.6499C217.069 87.4439 217.649 87.577 217.544 88.0493C217.654 88.5517 217.074 88.7075 215.804 88.5165C215.713 88.5025 215.62 88.5086 215.531 88.5342C215.443 88.5599 215.36 88.6046 215.29 88.6653C215.22 88.726 215.163 88.8013 215.123 88.8861C215.084 88.971 215.063 89.0634 215.062 89.1571V89.4435C215.062 89.5914 215.121 89.7333 215.227 89.8378C215.332 89.9424 215.475 90.0012 215.624 90.0012H217.289C217.401 90.0032 217.508 90.0493 217.587 90.1296C217.665 90.21 217.709 90.3181 217.709 90.4307V90.6192C217.709 90.6867 217.696 90.7536 217.67 90.8159C217.644 90.8782 217.607 90.9345 217.559 90.9816C217.511 91.0287 217.455 91.0656 217.393 91.09C217.332 91.1145 217.266 91.1261 217.199 91.1241L214.462 91.0035C214.325 90.9958 214.196 90.9355 214.102 90.8348C214.007 90.734 213.953 90.6004 213.952 90.4609C213.947 90.4056 213.939 89.6168 213.929 88.0945Z" fill="#828282"/>
<path d="M240.756 88.076C240.761 88.4738 240.682 88.8686 240.525 89.2379C240.368 89.6071 240.135 89.9435 239.841 90.228C239.546 90.5124 239.196 90.7393 238.809 90.8956C238.422 91.0519 238.006 91.1347 237.586 91.1391C237.165 91.1435 236.748 91.0695 236.358 90.9214C235.968 90.7732 235.612 90.5538 235.312 90.2756C235.012 89.9975 234.772 89.666 234.608 89.3001C234.443 88.9343 234.356 88.5412 234.352 88.1434C234.348 87.7455 234.426 87.3507 234.583 86.9815C234.74 86.6123 234.973 86.2758 235.267 85.9914C235.562 85.7069 235.912 85.4801 236.299 85.3238C236.686 85.1674 237.102 85.0847 237.522 85.0803C237.943 85.0758 238.36 85.1498 238.75 85.298C239.141 85.4461 239.496 85.6655 239.796 85.9437C240.096 86.2219 240.336 86.5534 240.501 86.9192C240.665 87.2851 240.752 87.6782 240.756 88.076ZM239.527 88.1097C239.527 87.586 239.32 87.0838 238.951 86.7135C238.583 86.3432 238.083 86.1352 237.562 86.1352C237.04 86.1352 236.541 86.3432 236.172 86.7135C235.804 87.0838 235.597 87.586 235.597 88.1097C235.597 88.6333 235.804 89.1356 236.172 89.5059C236.541 89.8761 237.04 90.0842 237.562 90.0842C238.083 90.0842 238.583 89.8761 238.951 89.5059C239.32 89.1356 239.527 88.6333 239.527 88.1097Z" fill="#828282"/>
<path d="M249.994 88.7952V90.5285C249.994 90.6645 249.941 90.7948 249.847 90.8909C249.753 90.987 249.625 91.041 249.492 91.041H249.274C249.131 91.041 248.994 90.9838 248.893 90.8821C248.791 90.7803 248.734 90.6423 248.734 90.4984V85.6074C248.734 85.4835 248.783 85.3646 248.868 85.277C248.954 85.1894 249.071 85.1401 249.192 85.1401H251.959C252.063 85.1401 252.162 85.1814 252.235 85.2549C252.308 85.3284 252.349 85.4281 252.349 85.532V85.7656C252.349 85.8716 252.307 85.9732 252.233 86.0481C252.158 86.123 252.057 86.1651 251.952 86.1651H250.407C250.288 86.1651 250.173 86.2127 250.089 86.2975C250.004 86.3823 249.957 86.4973 249.957 86.6172V87.1448C249.957 87.2567 250.001 87.364 250.08 87.4432C250.159 87.5223 250.265 87.5668 250.377 87.5668H251.952C252.051 87.5668 252.147 87.6057 252.217 87.675C252.287 87.7442 252.327 87.8381 252.327 87.9361V88.1697C252.327 88.2142 252.318 88.2583 252.301 88.2995C252.284 88.3406 252.259 88.378 252.228 88.4095C252.197 88.441 252.159 88.466 252.119 88.483C252.078 88.5001 252.034 88.5088 251.989 88.5088H250.287C250.209 88.5088 250.135 88.539 250.08 88.5927C250.025 88.6464 249.994 88.7193 249.994 88.7952Z" fill="#828282"/>
<path d="M269.513 85.2082C271.048 84.9017 272.198 85.1981 272.963 86.0974C273.058 86.2072 273.113 86.3455 273.119 86.4903C273.126 86.6352 273.085 86.7781 273.001 86.8963C272.471 87.67 272.478 88.1875 273.023 88.4487C273.202 88.5343 273.345 88.6718 273.437 88.847C273.529 89.0222 273.567 89.2286 273.547 89.4448C273.527 89.661 273.45 89.879 273.324 90.0763C273.197 90.2735 273.026 90.4428 272.828 90.5664C271.878 91.1643 270.773 91.2999 269.513 90.9734C269.391 90.9417 269.283 90.8698 269.206 90.769C269.129 90.6681 269.087 90.5438 269.086 90.4157V85.7282C269.086 85.605 269.128 85.4855 269.206 85.3905C269.284 85.2956 269.393 85.231 269.513 85.2082ZM270.286 87.3334C270.41 87.4738 270.576 87.5758 270.76 87.6243C270.944 87.6728 271.136 87.6654 271.308 87.6031C271.48 87.5408 271.622 87.4269 271.715 87.278C271.808 87.1292 271.846 86.9531 271.823 86.7757C271.763 86.3185 271.381 86.1125 270.676 86.1577C270.456 86.1728 270.316 86.2959 270.256 86.527C270.156 86.9289 270.166 87.1977 270.286 87.3334ZM272.348 89.2816C272.351 89.0618 272.238 88.8497 272.036 88.6921C271.834 88.5345 271.558 88.4443 271.27 88.4413C270.981 88.4382 270.704 88.5227 270.498 88.676C270.293 88.8293 270.176 89.0389 270.173 89.2587C270.171 89.4786 270.284 89.6906 270.486 89.8482C270.688 90.0058 270.964 90.0961 271.252 90.0991C271.541 90.1021 271.818 90.0177 272.024 89.8644C272.229 89.7111 272.346 89.5015 272.348 89.2816Z" fill="#828282"/>
<path d="M281.413 88.0946C281.403 86.5723 281.398 85.7835 281.398 85.7282C281.398 85.5874 281.451 85.4518 281.546 85.3495C281.641 85.2471 281.77 85.1858 281.908 85.1781L284.638 85.0274C284.705 85.0243 284.771 85.0349 284.833 85.0585C284.895 85.082 284.952 85.1181 285 85.1645C285.049 85.2108 285.087 85.2666 285.114 85.3285C285.141 85.3904 285.155 85.4571 285.156 85.5247L285.163 85.7132C285.164 85.7702 285.154 85.8269 285.133 85.8799C285.112 85.9328 285.081 85.9811 285.041 86.0218C285.001 86.0625 284.954 86.0948 284.901 86.1169C284.849 86.1389 284.793 86.1503 284.736 86.1503L283.078 86.1653C283.005 86.1663 282.932 86.1817 282.864 86.2107C282.796 86.2396 282.734 86.2815 282.683 86.334C282.631 86.3865 282.591 86.4485 282.563 86.5166C282.536 86.5846 282.522 86.6573 282.523 86.7305L282.531 87.0169C282.533 87.1107 282.555 87.203 282.595 87.2876C282.636 87.3721 282.693 87.4469 282.764 87.5069C282.835 87.5669 282.918 87.6108 283.007 87.6354C283.097 87.6601 283.19 87.6651 283.281 87.65C284.546 87.444 285.126 87.5771 285.021 88.0494C285.131 88.5518 284.551 88.7076 283.281 88.5166C283.19 88.5026 283.097 88.5086 283.008 88.5343C282.919 88.56 282.837 88.6047 282.767 88.6654C282.696 88.7261 282.639 88.8014 282.6 88.8862C282.561 88.9711 282.54 89.0635 282.538 89.1572V89.4436C282.538 89.5915 282.598 89.7333 282.703 89.8379C282.809 89.9425 282.952 90.0013 283.101 90.0013H284.758C284.872 90.0013 284.981 90.0465 285.061 90.1271C285.141 90.2076 285.186 90.3169 285.186 90.4308V90.6192C285.185 90.6862 285.171 90.7523 285.145 90.8137C285.118 90.875 285.08 90.9305 285.033 90.9768C284.986 91.0231 284.93 91.0593 284.868 91.0833C284.807 91.1073 284.742 91.1186 284.676 91.1166L281.946 91.0036C281.808 90.9978 281.677 90.9383 281.581 90.8374C281.485 90.7364 281.43 90.6017 281.428 90.461C281.423 90.4057 281.418 89.6169 281.413 88.0946Z" fill="#828282"/>
<path d="M305.707 85.1788L305.347 85.1775C305.078 85.1765 304.859 85.3951 304.858 85.6656L304.841 90.534C304.84 90.8045 305.057 91.0246 305.327 91.0256L305.687 91.0268C305.956 91.0278 306.175 90.8092 306.176 90.5387L306.193 85.6703C306.194 85.3998 305.976 85.1797 305.707 85.1788Z" fill="#828282"/>
<path d="M316.059 87.748C316.534 87.0898 316.819 86.6853 316.914 86.5346C316.938 86.4935 316.95 86.4468 316.951 86.3993C316.951 86.3518 316.938 86.3051 316.915 86.2639C316.891 86.2227 316.857 86.1884 316.816 86.1645C316.776 86.1406 316.729 86.1279 316.682 86.1277H314.282C314.186 86.1277 314.095 86.0896 314.027 86.0217C313.96 85.9539 313.922 85.8619 313.922 85.7659V85.5248C313.922 85.4208 313.963 85.3212 314.036 85.2477C314.109 85.1742 314.208 85.1329 314.312 85.1329H318.797C318.84 85.1318 318.883 85.1428 318.92 85.1648C318.957 85.1867 318.988 85.2186 319.008 85.2569C319.028 85.2953 319.037 85.3385 319.035 85.3818C319.032 85.4252 319.017 85.4668 318.992 85.5022C318.107 86.7733 317.424 87.7429 316.944 88.4111C316.469 89.0743 316.184 89.4813 316.089 89.632C316.066 89.6726 316.054 89.7186 316.053 89.7655C316.053 89.8124 316.064 89.8586 316.087 89.8996C316.11 89.9406 316.143 89.9749 316.182 89.9994C316.222 90.0238 316.268 90.0375 316.314 90.039H318.714C318.762 90.039 318.808 90.0483 318.852 90.0665C318.896 90.0847 318.935 90.1113 318.969 90.1449C319.002 90.1785 319.029 90.2184 319.047 90.2623C319.065 90.3062 319.074 90.3532 319.074 90.4007V90.6419C319.074 90.7458 319.033 90.8455 318.96 90.919C318.887 90.9925 318.788 91.0338 318.684 91.0338H314.199C314.155 91.036 314.111 91.0253 314.072 91.0031C314.034 90.9808 314.002 90.9479 313.982 90.9082C313.961 90.8685 313.952 90.8238 313.956 90.7792C313.96 90.7347 313.977 90.6922 314.004 90.6569C314.894 89.3909 315.579 88.4212 316.059 87.748Z" fill="#828282"/>
<path d="M330.547 88.0569C330.652 88.5593 330.072 88.7126 328.807 88.5166C328.714 88.5025 328.619 88.5087 328.529 88.5348C328.438 88.5609 328.355 88.6063 328.284 88.6678C328.212 88.7294 328.155 88.8056 328.116 88.8914C328.077 88.9771 328.057 89.0704 328.057 89.1648V89.4511C328.057 89.599 328.116 89.7409 328.221 89.8455C328.327 89.9501 328.47 90.0088 328.619 90.0088H330.284C330.397 90.0088 330.506 90.0541 330.586 90.1346C330.667 90.2152 330.712 90.3244 330.712 90.4384V90.6268C330.712 90.695 330.698 90.7626 330.672 90.8254C330.645 90.8882 330.607 90.9449 330.559 90.9921C330.51 91.0393 330.453 91.076 330.39 91.1C330.328 91.124 330.261 91.1348 330.194 91.1317L327.457 91.0111C327.319 91.0053 327.188 90.9458 327.092 90.8449C326.995 90.744 326.941 90.6093 326.939 90.4685C326.939 90.4133 326.934 89.6219 326.924 88.0946C326.914 86.5673 326.912 85.776 326.917 85.7207C326.916 85.5799 326.969 85.4443 327.064 85.342C327.159 85.2396 327.289 85.1783 327.427 85.1705L330.164 85.0274C330.23 85.0243 330.296 85.0349 330.359 85.0585C330.421 85.082 330.478 85.1181 330.526 85.1644C330.574 85.2108 330.613 85.2666 330.64 85.3285C330.666 85.3904 330.681 85.4571 330.682 85.5247L330.689 85.7132C330.689 85.8271 330.644 85.9363 330.564 86.0169C330.484 86.0975 330.375 86.1427 330.262 86.1427L328.597 86.1653C328.523 86.1663 328.45 86.1817 328.382 86.2107C328.314 86.2396 328.253 86.2815 328.201 86.334C328.149 86.3865 328.109 86.4485 328.082 86.5166C328.054 86.5846 328.041 86.6573 328.042 86.7305V87.0169C328.044 87.1108 328.066 87.2031 328.106 87.2876C328.147 87.3722 328.205 87.447 328.277 87.507C328.349 87.567 328.432 87.6108 328.522 87.6355C328.613 87.6602 328.707 87.6651 328.799 87.65C330.064 87.444 330.647 87.5796 330.547 88.0569Z" fill="#828282"/>
<path d="M158.013 85.1777H157.683C157.418 85.1777 157.203 85.3937 157.203 85.6601V90.5285C157.203 90.7948 157.418 91.0108 157.683 91.0108H158.013C158.278 91.0108 158.493 90.7948 158.493 90.5285V85.6601C158.493 85.3937 158.278 85.1777 158.013 85.1777Z" fill="#828282"/>
<path d="M180.285 89.6094C180.285 89.7173 180.328 89.8208 180.404 89.8972C180.48 89.9735 180.583 90.0164 180.69 90.0164H182.618C182.675 90.0154 182.731 90.0257 182.784 90.0469C182.836 90.068 182.884 90.0995 182.925 90.1395C182.965 90.1795 182.998 90.2272 183.02 90.2798C183.042 90.3324 183.053 90.3889 183.053 90.4459V90.7398C183.053 90.8298 183.017 90.916 182.954 90.9796C182.891 91.0432 182.805 91.079 182.715 91.079L179.648 91.0865C179.574 91.0875 179.501 91.0738 179.433 91.0462C179.365 91.0187 179.303 90.9777 179.251 90.9258C179.198 90.874 179.157 90.8121 179.128 90.744C179.1 90.6758 179.085 90.6027 179.085 90.5288L179.07 85.668C179.07 85.532 179.124 85.4017 179.22 85.3056C179.315 85.2095 179.445 85.1555 179.58 85.1555L179.858 85.1479C179.913 85.1479 179.967 85.1589 180.017 85.1802C180.068 85.2015 180.114 85.2327 180.152 85.272C180.191 85.3113 180.221 85.3579 180.241 85.409C180.261 85.4602 180.271 85.5149 180.27 85.57L180.285 89.6094Z" fill="#828282"/>
<path d="M294.808 90.0162H296.728C296.842 90.0162 296.951 90.0615 297.031 90.142C297.111 90.2226 297.156 90.3318 297.156 90.4458V90.7397C297.156 90.8296 297.12 90.9159 297.057 90.9795C296.994 91.0431 296.908 91.0788 296.818 91.0788H293.766C293.619 91.0788 293.478 91.0201 293.374 90.9155C293.269 90.8109 293.211 90.669 293.211 90.5211V85.6829C293.211 85.547 293.265 85.4166 293.36 85.3205C293.456 85.2244 293.586 85.1704 293.721 85.1704H293.991C294.1 85.1704 294.205 85.2141 294.283 85.2918C294.36 85.3695 294.403 85.475 294.403 85.5849V89.6093C294.403 89.7172 294.446 89.8207 294.522 89.897C294.598 89.9733 294.701 90.0162 294.808 90.0162Z" fill="#828282"/>
</g>
<defs>
<clipPath id="clip0_616_41966">
<rect width="300" height="52" fill="white" transform="translate(31 44)"/>
</clipPath>
</defs>
</svg>
