<svg width="362" height="140" viewBox="0 0 362 140" fill="none" xmlns="http://www.w3.org/2000/svg">
<rect width="362" height="140" fill="white"/>
<path d="M134.968 114.79C134.657 114.913 134.438 114.868 134.309 114.653C140.221 112.382 145.198 109.439 149.241 105.823C157.313 98.6163 164.502 87.5447 169.602 77.164C173.805 68.6206 179.706 56.9678 187.305 42.2057C187.474 41.8754 187.516 41.4938 187.421 41.1348C187.326 40.7757 187.101 40.4646 186.79 40.2613L186.702 40.1971C186.561 40.0999 186.401 40.0342 186.232 40.0042C186.063 39.9743 185.89 39.9808 185.724 40.0234C185.557 40.066 185.401 40.1436 185.267 40.2512C185.132 40.3587 185.022 40.4936 184.943 40.647L169.899 70.2061C169.812 70.38 169.678 70.5263 169.512 70.6284C169.346 70.7306 169.155 70.7847 168.959 70.7846H154.678C154.618 70.785 154.559 70.7702 154.507 70.7415C154.454 70.7128 154.41 70.6712 154.377 70.6206C154.345 70.57 154.327 70.512 154.323 70.4521C154.319 70.3923 154.331 70.3325 154.357 70.2784L168.863 39.9078C168.879 39.8751 168.886 39.8388 168.884 39.8024C168.882 39.766 168.87 39.7305 168.85 39.6993C168.83 39.6681 168.803 39.6421 168.77 39.6238C168.737 39.6055 168.7 39.5954 168.662 39.5945C162.67 39.5677 158.922 39.5838 157.417 39.6427C156.887 39.6641 156.558 39.8516 156.429 40.2051C156.269 40.655 156.277 41.1746 156.453 41.7638C156.498 41.908 156.587 42.0341 156.709 42.1238C156.83 42.2134 156.977 42.2618 157.128 42.2619C157.696 42.2566 158.127 42.3289 158.421 42.4789C158.468 42.5012 158.511 42.5327 158.546 42.5716C158.581 42.6105 158.608 42.6559 158.625 42.7053C158.642 42.7546 158.649 42.8069 158.646 42.8591C158.643 42.9113 158.629 42.9623 158.606 43.0091L143.546 72.962C143.51 73.0314 143.493 73.1087 143.496 73.1866C143.498 73.2645 143.521 73.3404 143.561 73.4072C143.601 73.474 143.658 73.5294 143.726 73.5682C143.793 73.607 143.87 73.6279 143.947 73.6288H167.554C167.634 73.6293 167.713 73.65 167.784 73.6889C167.854 73.7279 167.913 73.7837 167.956 73.8513C167.999 73.9188 168.023 73.9958 168.027 74.0749C168.031 74.1541 168.015 74.2329 167.979 74.3037C161.907 86.5404 154.429 98.3753 143.666 106.659C141.567 108.277 138.012 110.1 133 112.13L132.349 111.97C132.355 111.739 132.285 111.547 132.14 111.391C126.496 105.365 122.231 98.5842 119.345 91.0478C119.317 90.9708 119.272 90.9009 119.213 90.8428C119.155 90.7847 119.085 90.7397 119.007 90.7108C118.93 90.6819 118.847 90.6698 118.764 90.6753C118.681 90.6807 118.6 90.7036 118.526 90.7424L111.9 94.3259C111.883 94.2616 111.87 94.1973 111.859 94.133C118.414 89.6712 125.581 87.1885 133.361 86.685C133.613 86.6707 133.849 86.5554 134.022 86.3628C134.195 86.1701 134.292 85.9147 134.293 85.6485C134.301 81.5429 120.156 86.4922 118.068 87.2956C112.373 67.2976 116.542 46.8818 129.819 31.0859C148.357 9.03905 180.614 3.6077 205.586 17.9895C214.458 23.0942 221.725 30.3038 227.385 39.6186C227.543 39.8803 227.767 40.0959 228.035 40.2439C228.303 40.3919 228.605 40.4672 228.911 40.4622C237.152 40.3765 246.113 40.3658 255.794 40.4301C257.625 40.4461 259.256 40.7996 260.685 41.4906C260.898 41.5945 261.082 41.7488 261.222 41.9402C261.362 42.1315 261.452 42.354 261.486 42.5884C261.52 42.8228 261.497 43.062 261.417 43.2852C261.338 43.5083 261.205 43.7087 261.031 43.8688C259.564 45.1972 257.692 45.9498 255.416 46.1266C247.119 46.7774 239.384 45.6445 230.734 44.7125C230.658 44.703 230.581 44.7102 230.508 44.7337C230.436 44.7572 230.369 44.7964 230.313 44.8485C230.257 44.9006 230.213 44.9644 230.185 45.0353C230.156 45.1062 230.143 45.1825 230.148 45.2588V45.3231C230.157 45.5067 230.228 45.6818 230.349 45.8202C230.47 45.9586 230.634 46.0524 230.814 46.0864C237.973 47.4844 243.5 48.636 247.392 49.5412C250.102 50.1733 252.271 51.0625 253.898 52.2087C254.048 52.3125 254.166 52.4563 254.238 52.6236C254.31 52.791 254.333 52.9752 254.305 53.1553C254.278 53.3354 254.2 53.5041 254.081 53.6421C253.962 53.7802 253.807 53.8821 253.633 53.9361C251.657 54.5682 249.66 54.8012 247.641 54.6352C242.351 54.2066 237.315 52.7149 232.533 50.1599C232.496 50.1402 232.454 50.1319 232.413 50.1362C232.371 50.1405 232.332 50.1571 232.3 50.1839C232.268 50.2107 232.245 50.2464 232.234 50.2866C232.222 50.3267 232.223 50.3693 232.236 50.409C232.83 52.2516 233.585 54.1611 234.501 56.1376C234.646 56.4536 234.659 57.0268 234.541 57.857C234.488 58.2135 234.493 58.5772 234.557 58.9336C238.308 81.2536 230.638 102.626 213.152 116.75C190.349 135.174 158.18 134.129 136.068 115.208C135.926 115.081 135.755 114.99 135.57 114.943L134.968 114.79ZM260.653 41.9647C259.481 41.1933 258.078 40.8104 256.445 40.8157C221.933 40.9228 200.627 40.9737 192.525 40.9684C192.411 40.9687 192.299 41.0003 192.201 41.0597C192.103 41.1192 192.024 41.2043 191.971 41.3058L180.654 63.8187C180.617 63.8912 180.599 63.9723 180.602 64.0538C180.605 64.1354 180.629 64.2148 180.672 64.2843C180.715 64.3538 180.775 64.4111 180.846 64.4505C180.918 64.49 180.998 64.5104 181.08 64.5096L200.75 64.5016C201.102 64.5016 201.439 64.3636 201.69 64.1172C201.941 63.8707 202.085 63.5356 202.092 63.1839V63.0714C202.105 62.8926 202.081 62.7129 202.022 62.5437C201.962 62.3745 201.868 62.2194 201.746 62.0881C201.624 61.9568 201.476 61.8522 201.312 61.7809C201.147 61.7095 200.97 61.6729 200.79 61.6734L190.983 61.6975C190.918 61.6973 190.854 61.6805 190.797 61.6487C190.74 61.617 190.692 61.5712 190.657 61.5158C190.623 61.4604 190.603 61.3972 190.6 61.332C190.596 61.2668 190.609 61.2018 190.638 61.1431L198.622 44.4232C198.721 44.2209 198.874 44.0504 199.064 43.9311C199.255 43.8118 199.474 43.7485 199.698 43.7483C207.585 43.7912 214.798 43.8019 221.336 43.7805C224.33 43.7698 226.844 43.8742 228.878 44.0938C236.035 44.8651 243.176 45.7007 249.2 45.9739C252.854 46.1346 258.493 46.1587 260.854 43.435C260.946 43.3288 261.014 43.2043 261.054 43.0697C261.094 42.9351 261.105 42.7935 261.086 42.6544C261.067 42.5153 261.019 42.3818 260.944 42.2629C260.869 42.1439 260.77 42.0423 260.653 41.9647ZM219.007 55.9769L221.497 54.5387C221.509 54.532 221.52 54.5229 221.529 54.512C221.538 54.501 221.544 54.4884 221.548 54.4749C221.551 54.4614 221.552 54.4473 221.551 54.4335C221.549 54.4196 221.544 54.4062 221.537 54.3941L220.975 53.4139C220.301 52.241 219.6 51.0983 218.914 50.0512C218.228 49.0041 217.569 48.073 216.975 47.3112C216.382 46.5494 215.865 45.9718 215.454 45.6114C215.043 45.251 214.747 45.1148 214.581 45.2106L214.429 45.299C214.262 45.3921 214.23 45.716 214.334 46.252C214.438 46.788 214.677 47.5256 215.036 48.4227C215.396 49.3197 215.869 50.3585 216.429 51.4797C216.99 52.6009 217.625 53.7824 218.3 54.9565L218.862 55.9368C218.869 55.9491 218.878 55.9599 218.889 55.9686C218.9 55.9773 218.913 55.9837 218.926 55.9875C218.94 55.9912 218.954 55.9922 218.968 55.9904C218.982 55.9886 218.995 55.984 219.007 55.9769ZM224.67 45.3874C227.802 47.2032 231.098 48.9708 234.557 50.6902C239.698 53.2371 247.682 55.4306 253.135 53.7433C253.293 53.6937 253.434 53.5995 253.541 53.4721C253.647 53.3448 253.715 53.1898 253.735 53.0258C253.755 52.8618 253.728 52.6959 253.656 52.548C253.583 52.4002 253.47 52.2767 253.328 52.1926C251.845 51.3088 249.805 50.5536 247.208 49.9269C245.103 49.418 237.617 47.8326 224.75 45.1704C224.723 45.1617 224.694 45.1635 224.669 45.1756C224.644 45.1878 224.625 45.2093 224.615 45.2362C224.605 45.2631 224.605 45.2933 224.615 45.3212C224.625 45.3491 224.645 45.3727 224.67 45.3874ZM218.573 46.0944C220.742 48.778 229.433 58.6042 232.919 58.4034C233.824 58.3552 234.214 57.7499 234.091 56.5875C233.537 51.4053 223.393 47.155 218.822 45.7168C218.775 45.7015 218.724 45.7022 218.677 45.7188C218.63 45.7355 218.59 45.7672 218.562 45.8093C218.534 45.8515 218.52 45.9019 218.522 45.9532C218.524 46.0044 218.542 46.0539 218.573 46.0944ZM196.421 70.5034L194.06 75.4607C193.998 75.5867 193.962 75.7236 193.954 75.8634C193.946 76.0033 193.966 76.1434 194.012 76.2756C194.058 76.4079 194.13 76.5296 194.224 76.6338C194.318 76.738 194.431 76.8227 194.557 76.8828L194.839 77.0194C194.998 77.0957 195.171 77.1398 195.347 77.1492C195.523 77.1585 195.7 77.133 195.866 77.074C196.032 77.0151 196.185 76.9238 196.317 76.8055C196.448 76.6872 196.554 76.5442 196.63 76.3847L200.758 67.7315C200.787 67.6716 200.799 67.6056 200.796 67.5395C200.792 67.4734 200.771 67.4093 200.736 67.3532C200.701 67.2972 200.652 67.2509 200.594 67.2187C200.536 67.1865 200.471 67.1694 200.405 67.1691H178.975C178.833 67.1694 178.693 67.2087 178.573 67.2825C178.452 67.3563 178.355 67.4616 178.293 67.5869L168.052 87.9545C168.02 88.0178 168.006 88.088 168.009 88.1585C168.012 88.229 168.033 88.2975 168.07 88.3577C168.107 88.4179 168.159 88.4677 168.22 88.5026C168.281 88.5374 168.351 88.5562 168.421 88.5571H186.517C186.599 88.558 186.679 88.5801 186.749 88.621C186.82 88.6619 186.879 88.7203 186.919 88.7903C186.96 88.8602 186.981 88.9394 186.981 89.0197C186.981 89.1 186.96 89.1788 186.919 89.248C183.401 95.3623 178.285 102.433 171.297 103.991C168.293 104.661 165.251 104.883 162.172 104.658C162.113 104.653 162.056 104.633 162.006 104.6C161.957 104.567 161.917 104.521 161.89 104.469C161.863 104.416 161.851 104.358 161.854 104.3C161.857 104.241 161.875 104.185 161.907 104.136L165.714 98.1503C165.806 98.0068 165.867 97.8455 165.892 97.6769C165.917 97.5083 165.906 97.3364 165.86 97.1724C165.813 97.0084 165.733 96.856 165.623 96.7255C165.514 96.5949 165.378 96.489 165.224 96.4148L165.168 96.3827C164.848 96.2198 164.478 96.1814 164.13 96.2747C163.782 96.3681 163.479 96.5868 163.281 96.8889L157.136 106.329C157.106 106.376 157.088 106.43 157.084 106.485C157.079 106.54 157.088 106.596 157.109 106.647C157.13 106.698 157.163 106.744 157.206 106.779C157.248 106.815 157.299 106.84 157.353 106.852C165.979 108.619 175.642 107.623 181.939 100.753C185.864 96.4684 189.098 91.6048 191.642 86.1627C191.664 86.1182 191.674 86.0687 191.672 86.019C191.669 85.9693 191.654 85.9212 191.627 85.8792C191.6 85.8371 191.563 85.8027 191.519 85.7792C191.476 85.7557 191.427 85.7439 191.377 85.745H178.325C178.268 85.745 178.212 85.7307 178.162 85.7032C178.112 85.6758 178.07 85.6362 178.039 85.5881C178.009 85.5399 177.991 85.4849 177.988 85.428C177.984 85.3712 177.995 85.3143 178.019 85.2629L185.007 70.64C185.101 70.4407 185.249 70.2722 185.435 70.1541C185.622 70.036 185.838 69.9732 186.06 69.9731H196.092C196.154 69.9737 196.215 69.99 196.269 70.0205C196.324 70.051 196.369 70.0948 196.402 70.1477C196.435 70.2006 196.454 70.2609 196.457 70.3231C196.46 70.3853 196.448 70.4473 196.421 70.5034Z" fill="#0C4FAF"/>
<path d="M134.309 114.653C126.438 117.867 114.679 120.736 106.936 116.132C104.06 114.423 102.106 111.852 101.072 108.419C100.939 108.253 100.877 108.121 100.888 108.025C101.075 107.425 100.997 106.75 100.655 106C100.473 105.357 100.451 104.661 100.59 103.911C101.838 100.087 103.487 97.197 105.538 95.2419C108.183 92.7244 112.042 90.2578 117.112 87.8421C117.391 87.8903 117.709 87.7082 118.068 87.2957C120.157 86.4923 134.301 81.543 134.293 85.6487C134.292 85.9148 134.195 86.1703 134.022 86.3629C133.849 86.5555 133.613 86.6708 133.361 86.6851C125.581 87.1886 118.414 89.6713 111.859 94.1331C111.517 94.2349 111.236 94.4385 111.016 94.7438C110.989 94.7598 110.96 94.7732 110.928 94.7839C107.544 96.6962 105.228 99.5002 103.98 103.196C104.098 103.491 104.034 103.809 103.787 104.152C103.375 109.889 105.948 113.523 111.506 115.055C115.517 115.51 119.568 115.476 123.659 114.951C124.676 115.122 125.586 114.94 126.389 114.404C126.4 114.404 126.414 114.407 126.43 114.412L133 112.131C138.012 110.1 141.567 108.277 143.666 106.659C154.429 98.3754 161.907 86.5405 167.979 74.3039C168.015 74.233 168.031 74.1542 168.027 74.0751C168.023 73.9959 167.999 73.9189 167.956 73.8514C167.913 73.7838 167.854 73.728 167.784 73.6891C167.713 73.6501 167.634 73.6295 167.554 73.629H143.948C143.87 73.628 143.793 73.6071 143.726 73.5683C143.658 73.5295 143.601 73.4741 143.561 73.4073C143.521 73.3406 143.498 73.2646 143.496 73.1867C143.493 73.1088 143.51 73.0315 143.546 72.9621L158.606 43.0093C158.629 42.9624 158.643 42.9114 158.646 42.8592C158.649 42.807 158.642 42.7548 158.625 42.7054C158.608 42.656 158.581 42.6106 158.546 42.5717C158.511 42.5328 158.469 42.5013 158.421 42.479C158.127 42.329 157.696 42.2567 157.128 42.2621C156.977 42.2619 156.83 42.2135 156.709 42.1239C156.588 42.0343 156.498 41.9081 156.453 41.7639C156.277 41.1747 156.269 40.6551 156.429 40.2052C156.558 39.8517 156.887 39.6642 157.417 39.6428C158.922 39.5839 162.67 39.5678 168.662 39.5946C168.7 39.5955 168.737 39.6056 168.77 39.6239C168.803 39.6422 168.83 39.6682 168.85 39.6994C168.87 39.7306 168.882 39.7661 168.884 39.8025C168.886 39.839 168.879 39.8752 168.863 39.9079L154.357 70.2786C154.331 70.3326 154.32 70.3924 154.323 70.4523C154.327 70.5121 154.345 70.5701 154.378 70.6207C154.41 70.6713 154.454 70.7129 154.507 70.7416C154.559 70.7703 154.618 70.7852 154.678 70.7847H168.959C169.155 70.7848 169.347 70.7308 169.513 70.6286C169.679 70.5264 169.812 70.3801 169.899 70.2062L184.943 40.6471C185.022 40.4937 185.132 40.3588 185.267 40.2513C185.401 40.1438 185.557 40.0661 185.724 40.0235C185.89 39.981 186.063 39.9744 186.232 40.0044C186.401 40.0343 186.561 40.1 186.702 40.1972L186.791 40.2615C187.101 40.4647 187.326 40.7758 187.421 41.1349C187.516 41.494 187.474 41.8755 187.305 42.2058C179.706 56.968 173.805 68.6208 169.602 77.1642C164.502 87.5448 157.313 98.6164 149.241 105.823C145.198 109.439 140.221 112.382 134.309 114.653Z" fill="#FFFE1A"/>
<path d="M260.653 41.9647C260.77 42.0423 260.869 42.144 260.944 42.2629C261.019 42.3818 261.067 42.5153 261.086 42.6544C261.105 42.7935 261.094 42.9351 261.054 43.0697C261.014 43.2043 260.946 43.3288 260.854 43.435C258.493 46.1587 252.854 46.1346 249.2 45.9739C243.176 45.7007 236.035 44.8651 228.879 44.0938C226.844 43.8742 224.33 43.7698 221.336 43.7805C214.798 43.8019 207.586 43.7912 199.698 43.7483C199.474 43.7485 199.255 43.8118 199.064 43.9311C198.874 44.0504 198.721 44.2209 198.622 44.4232L190.638 61.1431C190.609 61.2018 190.596 61.2668 190.6 61.332C190.603 61.3972 190.623 61.4605 190.657 61.5159C190.692 61.5712 190.74 61.617 190.797 61.6488C190.854 61.6805 190.918 61.6973 190.983 61.6975L200.79 61.6734C200.97 61.6729 201.147 61.7095 201.312 61.7809C201.476 61.8522 201.624 61.9568 201.746 62.0881C201.869 62.2194 201.962 62.3745 202.022 62.5437C202.081 62.7129 202.105 62.8926 202.092 63.0714V63.1839C202.085 63.5356 201.941 63.8707 201.69 64.1172C201.44 64.3636 201.102 64.5016 200.75 64.5016L181.08 64.5096C180.998 64.5104 180.918 64.49 180.846 64.4506C180.775 64.4111 180.715 64.3538 180.672 64.2843C180.629 64.2148 180.605 64.1354 180.602 64.0538C180.599 63.9723 180.617 63.8912 180.654 63.8187L191.971 41.3058C192.024 41.2043 192.104 41.1192 192.201 41.0598C192.299 41.0003 192.411 40.9687 192.525 40.9684C200.627 40.9737 221.934 40.9229 256.445 40.8157C258.078 40.8104 259.481 41.1934 260.653 41.9647Z" fill="#FFFE1A"/>
<path d="M219.007 55.977C218.994 55.9841 218.981 55.9886 218.967 55.9905C218.953 55.9923 218.939 55.9913 218.926 55.9875C218.912 55.9838 218.9 55.9774 218.889 55.9686C218.878 55.9599 218.869 55.9491 218.862 55.9368L218.3 54.9566C217.625 53.7824 216.989 52.6009 216.429 51.4798C215.869 50.3586 215.395 49.3197 215.036 48.4227C214.676 47.5256 214.438 46.788 214.333 46.252C214.229 45.716 214.261 45.3922 214.428 45.299L214.581 45.2107C214.746 45.1148 215.043 45.251 215.453 45.6114C215.864 45.9719 216.381 46.5495 216.975 47.3113C217.568 48.0731 218.227 49.0041 218.914 50.0512C219.6 51.0983 220.3 52.241 220.974 53.4139L221.537 54.3942C221.544 54.4062 221.548 54.4196 221.55 54.4335C221.552 54.4474 221.551 54.4615 221.547 54.475C221.543 54.4885 221.537 54.5011 221.528 54.512C221.52 54.523 221.509 54.5321 221.496 54.5388L219.007 55.977Z" fill="#FFFE1A"/>
<path d="M224.671 45.3872C224.646 45.3725 224.627 45.3489 224.617 45.3211C224.607 45.2932 224.607 45.2629 224.617 45.236C224.627 45.2092 224.646 45.1876 224.671 45.1755C224.696 45.1633 224.725 45.1615 224.752 45.1703C237.619 47.8324 245.105 49.4179 247.209 49.9267C249.806 50.5534 251.846 51.3087 253.33 52.1925C253.471 52.2765 253.585 52.4 253.657 52.5478C253.729 52.6957 253.757 52.8616 253.737 53.0256C253.716 53.1896 253.649 53.3446 253.542 53.472C253.436 53.5993 253.295 53.6935 253.137 53.7431C247.683 55.4304 239.699 53.237 234.559 50.69C231.1 48.9706 227.804 47.203 224.671 45.3872Z" fill="#FFFE1A"/>
<path d="M218.823 45.7168C223.394 47.155 233.538 51.4053 234.092 56.5876C234.216 57.7499 233.825 58.3552 232.92 58.4034C229.434 58.6042 220.743 48.778 218.575 46.0944C218.543 46.054 218.526 46.0045 218.524 45.9532C218.522 45.9019 218.536 45.8515 218.563 45.8094C218.591 45.7672 218.631 45.7355 218.678 45.7188C218.725 45.7022 218.776 45.7015 218.823 45.7168Z" fill="#FFFE1A"/>
<path d="M196.424 70.5035C196.451 70.4474 196.464 70.3854 196.461 70.3232C196.457 70.261 196.438 70.2007 196.406 70.1478C196.373 70.0949 196.327 70.0512 196.273 70.0206C196.218 69.9901 196.157 69.9738 196.095 69.9733H186.063C185.842 69.9733 185.625 70.0361 185.439 70.1542C185.253 70.2723 185.104 70.4409 185.011 70.6401L178.023 85.263C177.999 85.3145 177.988 85.3713 177.991 85.4281C177.994 85.485 178.012 85.5401 178.043 85.5882C178.073 85.6363 178.115 85.6759 178.165 85.7034C178.215 85.7308 178.271 85.7452 178.328 85.7451H191.38C191.43 85.744 191.479 85.7558 191.523 85.7794C191.567 85.8029 191.604 85.8373 191.63 85.8793C191.657 85.9213 191.673 85.9695 191.675 86.0191C191.678 86.0688 191.667 86.1183 191.645 86.1629C189.102 91.6049 185.868 96.4685 181.943 100.754C175.645 107.623 165.983 108.619 157.356 106.852C157.302 106.84 157.252 106.815 157.209 106.779C157.167 106.744 157.134 106.698 157.112 106.647C157.091 106.596 157.082 106.54 157.087 106.485C157.092 106.43 157.11 106.376 157.14 106.33L163.284 96.889C163.483 96.5869 163.785 96.3682 164.133 96.2749C164.481 96.1815 164.851 96.2199 165.172 96.3828L165.228 96.415C165.381 96.4891 165.517 96.595 165.627 96.7256C165.736 96.8562 165.817 97.0085 165.863 97.1725C165.909 97.3365 165.92 97.5085 165.895 97.677C165.87 97.8456 165.81 98.007 165.718 98.1504L161.911 104.136C161.879 104.185 161.86 104.241 161.857 104.3C161.854 104.358 161.867 104.416 161.893 104.469C161.92 104.522 161.96 104.567 162.01 104.6C162.059 104.633 162.116 104.653 162.176 104.658C165.255 104.883 168.296 104.661 171.3 103.992C178.288 102.433 183.404 95.3624 186.922 89.2481C186.963 89.1789 186.985 89.1002 186.985 89.0198C186.985 88.9395 186.963 88.8604 186.923 88.7904C186.882 88.7204 186.823 88.662 186.753 88.6211C186.682 88.5802 186.602 88.5581 186.521 88.5572H168.425C168.354 88.5563 168.285 88.5376 168.224 88.5027C168.162 88.4679 168.111 88.418 168.074 88.3579C168.037 88.2977 168.016 88.2291 168.013 88.1586C168.009 88.0881 168.024 88.0179 168.055 87.9546L178.296 67.587C178.359 67.4618 178.456 67.3564 178.576 67.2826C178.697 67.2089 178.836 67.1696 178.979 67.1692H200.408C200.475 67.1696 200.54 67.1866 200.597 67.2188C200.655 67.251 200.704 67.2973 200.739 67.3534C200.775 67.4094 200.795 67.4735 200.799 67.5396C200.803 67.6057 200.79 67.6718 200.762 67.7316L196.633 76.3848C196.558 76.5444 196.451 76.6874 196.32 76.8057C196.189 76.924 196.036 77.0152 195.869 77.0742C195.703 77.1331 195.527 77.1587 195.35 77.1493C195.174 77.1399 195.001 77.0958 194.842 77.0196L194.561 76.883C194.434 76.8228 194.321 76.7382 194.228 76.634C194.134 76.5297 194.062 76.408 194.016 76.2758C193.969 76.1435 193.95 76.0034 193.958 75.8636C193.966 75.7237 194.002 75.5868 194.063 75.4608L196.424 70.5035Z" fill="#FFFE1A"/>
<path d="M117.108 87.8423C112.037 90.258 108.179 92.7246 105.534 95.2421C103.483 97.1972 101.834 100.087 100.586 103.911C101.823 95.917 109.959 90.3651 117.108 87.8423Z" fill="#FFFE1A"/>
<path d="M111.859 94.1328C111.87 94.1971 111.883 94.2614 111.899 94.3256C111.621 94.5238 111.326 94.6631 111.016 94.7434C111.235 94.4381 111.516 94.2346 111.859 94.1328Z" fill="#FFFE1A"/>
<path d="M110.932 94.7837C107.933 97.028 105.618 99.8321 103.984 103.196C105.232 99.5 107.548 96.6959 110.932 94.7837Z" fill="#FFFE1A"/>
<path d="M103.785 104.152C103.801 109.567 106.374 113.202 111.504 115.055C105.946 113.523 103.373 109.889 103.785 104.152Z" fill="#FFFE1A"/>
<path d="M100.892 108.025C100.624 107.409 100.547 106.734 100.659 106C101.002 106.75 101.08 107.425 100.892 108.025Z" fill="#FFFE1A"/>
<path d="M134.307 114.654C134.435 114.868 134.655 114.913 134.966 114.79C126.909 118.414 114.379 121.065 106.669 116.373C103.525 114.461 101.659 111.809 101.07 108.419C102.104 111.852 104.058 114.423 106.934 116.132C114.677 120.736 126.436 117.867 134.307 114.654Z" fill="#FFFE1A"/>
<path d="M133 112.13L126.43 114.412L132.349 111.97L133 112.13Z" fill="#FFFE1A"/>
<path d="M126.395 114.405C125.592 114.94 124.681 115.122 123.664 114.951C124.526 114.597 125.436 114.415 126.395 114.405Z" fill="#FFFE1A"/>
</svg>
