<svg width="362" height="140" viewBox="0 0 362 140" fill="none" xmlns="http://www.w3.org/2000/svg">
<rect width="362" height="140" fill="white"/>
<path fill-rule="evenodd" clip-rule="evenodd" d="M95.6711 55.624H87.9503L77.8041 92.666H77.6377L68.1892 55.624H60.0507L50.9356 92.666H50.769L40.5124 55.624H32.2891L46.8117 100.889H54.8657L63.9807 64.9057H64.1473L73.3455 100.889H81.2331L95.6711 55.624Z" fill="#B9BABD"/>
<path fill-rule="evenodd" clip-rule="evenodd" d="M102.75 100.89H110.191V75.332C110.191 67.1919 114.568 61.1438 123.598 61.1438C129.284 61.1438 132.797 64.7382 132.797 70.2576V100.89H140.237V71.122C140.237 61.3938 136.559 54.5948 124.658 54.5948C119.223 54.5948 112.839 56.8807 110.388 62.2855H110.22V38.3994H102.778V100.89H102.75Z" fill="#B9BABD"/>
<path fill-rule="evenodd" clip-rule="evenodd" d="M159.27 38.3994H151.828V47.5144H159.27V38.3994ZM151.828 100.89H159.27V55.6243H151.828V100.89Z" fill="#B9BABD"/>
<path fill-rule="evenodd" clip-rule="evenodd" d="M181.15 38.3994H173.709V55.6516H166.016V62.2037H173.709V90.9948C173.709 99.3001 176.775 100.89 184.467 100.89H190.153V94.3104H186.725C182.07 94.3104 181.123 93.6986 181.123 90.297V62.2037H190.153V55.6516H181.123V38.3994H181.15Z" fill="#B9BABD"/>
<path fill-rule="evenodd" clip-rule="evenodd" d="M203.809 73.9363C204.339 67.024 208.965 61.171 216.769 61.171C224.128 61.171 229.452 66.8587 229.815 73.9363H203.809ZM229.647 86.5349C228.337 92.3876 224.045 95.3714 217.913 95.3714C208.018 95.3714 203.559 88.3757 203.809 80.4869H237.673C238.12 69.5338 233.215 54.5947 217.188 54.5947C204.84 54.5947 195.922 64.5728 195.922 78.145C196.367 91.9698 203.196 101.948 217.634 101.948C227.78 101.948 234.97 96.5129 236.977 86.5349H229.647Z" fill="#B9BABD"/>
<path fill-rule="evenodd" clip-rule="evenodd" d="M206.129 41.6605C205.963 39.3473 204.011 38.2056 201.866 38.2056C198.911 38.2056 197.211 40.2964 197.211 43.1381C197.211 45.8705 199.05 47.7932 201.809 47.7932C204.206 47.7932 205.878 46.4822 206.185 44.0582H203.789C203.621 45.1741 202.952 45.8977 201.809 45.8977C200.249 45.8977 199.72 44.3383 199.72 43.0273C199.72 41.6891 200.249 40.0723 201.866 40.0723C202.897 40.0723 203.537 40.631 203.705 41.6332C203.677 41.6605 206.129 41.6605 206.129 41.6605Z" fill="#E01820"/>
<path fill-rule="evenodd" clip-rule="evenodd" d="M209.805 43.0001C209.805 41.55 210.306 40.0723 212.007 40.0723C213.707 40.0723 214.237 41.5224 214.237 43.0001C214.237 44.4491 213.735 45.8977 212.007 45.8977C210.306 45.9264 209.805 44.4491 209.805 43.0001ZM207.297 43.0001C207.297 45.8977 209.136 47.7932 212.007 47.7932C214.879 47.7932 216.716 45.8977 216.716 43.0001C216.716 40.101 214.879 38.2056 212.007 38.2056C209.136 38.2056 207.297 40.101 207.297 43.0001Z" fill="#6DB840"/>
<path fill-rule="evenodd" clip-rule="evenodd" d="M220.922 34.9731V47.5416H218.414V34.9731H220.922Z" fill="#6AABDC"/>
<path fill-rule="evenodd" clip-rule="evenodd" d="M225.11 43.0001C225.11 41.55 225.612 40.0723 227.312 40.0723C229.011 40.0723 229.541 41.5224 229.541 43.0001C229.541 44.4491 229.04 45.8977 227.312 45.8977C225.612 45.9264 225.11 44.4491 225.11 43.0001ZM222.602 43.0001C222.602 45.8977 224.441 47.7932 227.312 47.7932C230.183 47.7932 232.022 45.8977 232.022 43.0001C232.022 40.101 230.183 38.2056 227.312 38.2056C224.441 38.2056 222.602 40.101 222.602 43.0001Z" fill="#214398"/>
<path fill-rule="evenodd" clip-rule="evenodd" d="M242.162 38.4551H239.655V43.2209C239.655 45.0614 239.069 45.8155 237.703 45.8155C236.532 45.8155 236.086 45.0891 236.086 43.5855V38.4551H233.578V44.0578C233.578 46.3164 234.247 47.7927 236.895 47.7927C237.955 47.7927 239.04 47.2914 239.682 46.2878H239.738V47.57H242.107L242.162 38.4551Z" fill="#E2781F"/>
<path fill-rule="evenodd" clip-rule="evenodd" d="M244.063 47.5418H246.571V43.4465C246.571 41.8559 247.213 40.5188 249.024 40.5188C249.331 40.5188 249.693 40.546 249.915 40.6037V38.2888C249.749 38.2343 249.553 38.2056 249.358 38.2056C248.133 38.2056 246.906 38.9855 246.461 40.1555H246.432V38.4556H244.062L244.063 47.5418Z" fill="#DB027D"/>
<path fill-rule="evenodd" clip-rule="evenodd" d="M252.669 42.0237C252.696 41.3273 253.17 40.0723 254.73 40.0723C255.958 40.0723 256.488 40.7414 256.738 42.0237H252.669ZM259.219 43.6132C259.386 40.8246 257.908 38.2056 254.786 38.2056C252.028 38.2056 250.133 40.2677 250.133 43.0001C250.133 45.8159 251.916 47.7932 254.786 47.7932C256.85 47.7932 258.355 46.8727 259.051 44.7273H256.85C256.682 45.2846 255.874 45.8977 254.87 45.8977C253.477 45.8977 252.696 45.1741 252.641 43.586L259.219 43.6132Z" fill="#6AABDC"/>
<path fill-rule="evenodd" clip-rule="evenodd" d="M267.168 42.9726C267.168 44.4761 266.667 45.8975 265.022 45.8975C263.461 45.8975 262.82 44.3926 262.82 42.9726C262.82 41.4676 263.378 40.0721 265.022 40.0721C266.638 40.0721 267.168 41.4949 267.168 42.9726ZM267.196 47.5416H269.565V34.9731H267.057V39.5436C266.5 38.6507 265.441 38.1767 264.353 38.1767C261.678 38.1767 260.312 40.4353 260.312 42.888C260.312 45.3962 261.649 47.7657 264.382 47.7657C265.552 47.7657 266.556 47.3465 267.142 46.3439H267.169L267.196 47.5416Z" fill="#E01820"/>
<path fill-rule="evenodd" clip-rule="evenodd" d="M283.025 42.9999C283.025 44.5048 282.384 45.8975 280.907 45.8975C279.429 45.8975 278.762 44.5048 278.762 42.9999C278.762 41.4676 279.402 40.0721 280.907 40.0721C282.384 40.0721 283.025 41.4676 283.025 42.9999ZM276.363 47.5416H278.733V46.3716H278.762C279.319 47.3738 280.406 47.793 281.744 47.793C283.555 47.793 285.506 46.3439 285.506 42.9999C285.506 39.6816 283.555 38.2054 281.744 38.2054C280.629 38.2054 279.485 38.6231 278.872 39.5708H278.845V34.9731H276.336L276.363 47.5416Z" fill="#214398"/>
<path fill-rule="evenodd" clip-rule="evenodd" d="M295.404 38.4551H292.812L290.832 44.6982H290.778L288.714 38.4551H286.039L289.244 46.9841C289.523 47.7095 289.244 48.6009 288.38 48.6845C287.879 48.7118 287.405 48.6286 286.904 48.601V50.6645C287.405 50.719 287.934 50.7478 288.436 50.7478C290.164 50.7478 291.028 50.1619 291.558 48.6845L295.404 38.4551Z" fill="#6DB840"/>
<path fill-rule="evenodd" clip-rule="evenodd" d="M309.418 38.4551H306.825L304.846 44.6982H304.817L302.753 38.4551H300.078L303.283 46.9841C303.562 47.7095 303.283 48.6009 302.42 48.6845C301.918 48.7118 301.444 48.6286 300.97 48.601V50.6645C301.471 50.719 302.001 50.7478 302.503 50.7478C304.231 50.7478 305.095 50.1619 305.652 48.6845L309.416 38.4551" fill="#DB027D"/>
<path fill-rule="evenodd" clip-rule="evenodd" d="M312.485 43.0001C312.485 41.55 312.986 40.0723 314.686 40.0723C316.386 40.0723 316.916 41.5224 316.916 43.0001C316.916 44.4491 316.415 45.8977 314.686 45.8977C313.013 45.9264 312.485 44.4491 312.485 43.0001ZM309.977 43.0001C309.977 45.8977 311.816 47.7932 314.686 47.7932C317.558 47.7932 319.397 45.8977 319.397 43.0001C319.397 40.101 317.558 38.2056 314.686 38.2056C311.843 38.2056 309.977 40.101 309.977 43.0001Z" fill="#E2781F"/>
<path fill-rule="evenodd" clip-rule="evenodd" d="M329.573 38.4551H327.065V43.2209C327.065 45.0614 326.479 45.8155 325.141 45.8155C323.971 45.8155 323.524 45.0891 323.524 43.5855V38.4551H321.016V44.0578C321.016 46.3164 321.684 47.7927 324.332 47.7927C325.392 47.7927 326.479 47.2914 327.12 46.2878H327.179V47.57H329.548L329.578 38.4551" fill="#6AABDC"/>
</svg>
