<svg width="362" height="140" viewBox="0 0 362 140" fill="none" xmlns="http://www.w3.org/2000/svg">
<rect width="362" height="140" fill="white"/>
<path d="M242.31 64.2282C242.465 64.1738 242.632 64.1632 242.792 64.1976C242.953 64.232 243.101 64.3101 243.22 64.4232C243.339 64.5364 243.424 64.6801 243.466 64.8384C243.508 64.9968 243.505 65.1636 243.457 65.3204L242.941 67.0037C242.826 67.3795 242.593 67.7083 242.277 67.9419C241.961 68.1755 241.58 68.3015 241.188 68.3015H237.72C237.656 68.301 237.592 68.3141 237.534 68.3399C237.476 68.3656 237.423 68.4034 237.381 68.4508C237.338 68.4982 237.306 68.554 237.287 68.6147C237.267 68.6753 237.261 68.7393 237.268 68.8026C237.475 71.4238 238.386 73.4412 240.002 74.8546C241.171 75.874 241.751 76.6321 241.742 77.1289C241.725 77.7542 241.209 78.4138 240.195 79.1077C240.012 79.2341 239.884 79.4239 239.836 79.6386C239.789 79.8533 239.825 80.0769 239.937 80.2641L241.652 83.2323C241.759 83.4155 241.803 83.6281 241.778 83.8371C241.752 84.0462 241.658 84.2401 241.51 84.3888C239.073 86.8815 238.171 91.443 235.798 94.2313C232.541 98.069 228.221 100.202 222.84 100.63C222.635 100.647 222.441 100.736 222.293 100.881C222.145 101.027 222.051 101.219 222.028 101.427C221.654 105.025 222.17 109.676 216.961 109.393C216.822 109.387 216.687 109.346 216.569 109.273C216.451 109.2 216.354 109.098 216.286 108.977C216.219 108.855 216.184 108.719 216.185 108.581C216.185 108.442 216.222 108.306 216.29 108.186C218.018 105.187 218.762 102.022 218.521 98.69C218.503 98.4473 218.406 98.2176 218.245 98.0364C218.084 97.8551 217.868 97.7326 217.631 97.6878L217.58 97.6749C217.475 97.653 217.368 97.6531 217.263 97.6754C217.158 97.6977 217.06 97.7416 216.972 97.8043C216.885 97.8671 216.812 97.9473 216.756 98.04C216.701 98.1327 216.665 98.2359 216.651 98.3431C216.123 102.712 215.066 107.62 211.094 109.946C210.607 110.23 210.065 110.409 209.504 110.474C208.942 110.538 208.373 110.485 207.832 110.319L206.659 109.972C206.488 109.92 206.336 109.818 206.222 109.68C206.109 109.541 206.04 109.372 206.023 109.195C206.007 109.017 206.044 108.838 206.129 108.681C206.215 108.525 206.345 108.397 206.504 108.314C210.587 106.164 213.316 102.382 214.692 96.9682C214.703 96.9242 214.696 96.8772 214.672 96.8367C214.648 96.7961 214.609 96.7651 214.563 96.7498L213.518 96.4285C213.491 96.4167 213.46 96.4168 213.431 96.4287C213.403 96.4406 213.378 96.4636 213.364 96.4928C212.263 98.6943 211.034 100.789 209.676 102.776C207.407 106.091 204.45 108.07 200.805 108.712C200.385 108.786 199.954 108.774 199.537 108.68C199.121 108.585 198.728 108.408 198.381 108.16L196.77 107.003C196.658 106.923 196.571 106.813 196.519 106.686C196.466 106.56 196.449 106.421 196.471 106.285C196.492 106.15 196.55 106.023 196.64 105.918C196.729 105.814 196.845 105.736 196.976 105.693C204.162 103.354 208.915 99.9835 211.236 95.5805C211.356 95.3406 211.421 95.1693 211.429 95.0665C211.455 94.8695 211.417 94.6939 211.313 94.5397C211.258 94.4515 211.185 94.3754 211.1 94.3173C211.014 94.2592 210.919 94.2206 210.82 94.2045C210.722 94.1884 210.624 94.1952 210.532 94.2243C210.441 94.2534 210.36 94.3042 210.295 94.3726C206.04 98.8442 200.625 103.393 194.745 103.624C191.101 103.761 188.616 102.189 187.293 98.9084C187.253 98.8103 187.238 98.7041 187.249 98.5989C187.259 98.4937 187.295 98.3926 187.353 98.3042C187.412 98.2158 187.49 98.1428 187.583 98.0914C187.676 98.04 187.78 98.0117 187.886 98.009C190.993 97.9062 195.287 98.3559 198.33 97.752C202.232 96.9725 205.855 95.225 209.199 92.5095C209.291 92.4372 209.363 92.3438 209.411 92.2373C209.458 92.1309 209.479 92.0145 209.472 91.8982C209.464 91.7819 209.428 91.6692 209.367 91.5698C209.306 91.4703 209.222 91.3871 209.122 91.3274C208.589 91.0104 208.112 90.9462 207.69 91.1346C200.135 94.5654 184.546 99.1783 179.312 90.1581C178.504 88.7704 178.366 87.1899 178.899 85.4167C178.931 85.3122 178.985 85.2159 179.058 85.1348C179.131 85.0537 179.221 84.9899 179.321 84.9481C179.421 84.9062 179.529 84.8873 179.637 84.8928C179.744 84.8983 179.849 84.928 179.943 84.9798C187.396 89.053 198.562 91.6743 206.994 88.4234C207.424 88.2607 207.587 87.9437 207.484 87.4726C207.424 87.1899 207.278 86.9672 207.046 86.8044C206.857 86.6759 206.586 86.616 206.233 86.6245C196.628 86.9458 185.836 86.2904 178.963 79.6088C178.208 78.8728 177.609 77.9936 177.199 77.0227C176.789 76.0519 176.578 75.0089 176.578 73.9551V70.2931C176.576 69.9774 176.671 69.6686 176.851 69.4086C177.031 69.1486 177.286 68.9498 177.583 68.8391C177.88 68.7284 178.203 68.7111 178.51 68.7896C178.817 68.8681 179.092 69.0386 179.299 69.278C185.831 76.7734 194.754 81.6347 206.066 83.8619C206.384 83.9219 206.672 83.8748 206.93 83.7206C207.031 83.6591 207.113 83.5707 207.167 83.4656C207.221 83.3605 207.245 83.2429 207.235 83.1262C207.226 83.0096 207.184 82.8986 207.114 82.806C207.044 82.7134 206.949 82.643 206.839 82.6027C196.782 78.7608 186.119 72.2719 180.833 64.2282C178.229 60.2621 177.661 55.7691 179.131 50.7493C179.288 50.1887 179.658 49.7098 180.163 49.413C181.357 48.6935 182.376 48.3123 183.218 48.2694C183.464 48.2543 183.708 48.3273 183.906 48.4754C184.104 48.6235 184.244 48.8373 184.301 49.0789C187.396 62.7634 195.712 71.5909 206.93 79.7887C207.145 79.9455 207.403 80.0362 207.67 80.0499C207.938 80.0636 208.205 79.9996 208.438 79.8658L208.748 79.6859C208.795 79.6585 208.835 79.6203 208.865 79.5746C208.894 79.529 208.912 79.4773 208.917 79.4241C208.922 79.3709 208.914 79.3177 208.894 79.2693C208.873 79.2209 208.841 79.1786 208.799 79.1462C195.519 68.5841 184.714 53.6661 188.144 35.8313C188.415 34.4341 189.071 33.1397 190.039 32.0934C191.007 31.0471 192.248 30.2903 193.623 29.9078L194.745 29.5994C195.196 29.4756 195.67 29.4673 196.124 29.5752C196.579 29.683 196.999 29.9036 197.345 30.2164C197.691 30.5292 197.952 30.924 198.104 31.3643C198.256 31.8046 198.293 32.2759 198.214 32.7347C196.099 44.6588 198.072 58.8187 204.802 69.6249C206.676 72.6231 208.305 74.5334 209.689 75.3557C209.879 75.4698 210.099 75.5247 210.32 75.5132C210.541 75.5018 210.752 75.4245 210.927 75.2915C216.806 70.9141 222.561 70.443 228.191 73.878C232.523 76.5164 234.47 80.7824 234.032 86.6759C233.551 93.0834 229.687 96.8697 222.441 98.0347C222.293 98.0564 222.158 98.1294 222.061 98.2404C221.964 98.3514 221.911 98.4928 221.912 98.6386V99.0755C221.911 99.1375 221.924 99.1988 221.95 99.2555C221.976 99.3122 222.014 99.3629 222.061 99.4042C222.109 99.4455 222.165 99.4765 222.226 99.4952C222.287 99.5138 222.351 99.5197 222.415 99.5123C231.466 98.4716 236.791 91.5843 235.631 82.6284C234.926 77.1974 231.763 73.3255 226.141 71.0127C220.941 68.8797 216.028 69.6078 211.404 73.197C211.058 73.4687 210.622 73.5988 210.183 73.5606C209.745 73.5224 209.337 73.3188 209.044 72.9914C205.529 69.0681 203.109 64.4167 201.785 59.0371C201.076 56.1589 199.799 53.4862 202.095 51.0706C202.209 50.9531 202.276 50.798 202.283 50.6346C202.29 50.4712 202.237 50.3109 202.133 50.184C201.446 49.3188 201.106 48.0339 201.115 46.3292C201.115 46.2382 201.136 46.1484 201.175 46.066C201.213 45.9836 201.27 45.9106 201.339 45.852C201.409 45.7934 201.491 45.7505 201.579 45.7264C201.667 45.7023 201.759 45.6976 201.85 45.7124C203.027 45.918 204.901 45.721 207.471 45.1214C207.676 45.0747 207.859 44.9591 207.991 44.7933C208.122 44.6276 208.193 44.4216 208.193 44.2091V42.3459C208.193 42.046 208.313 41.7584 208.526 41.5464C208.738 41.3343 209.027 41.2152 209.328 41.2152H217.515C217.751 41.2152 217.98 41.1406 218.17 41.0019C218.36 40.8633 218.501 40.668 218.573 40.4442L218.895 39.3777C218.964 39.1587 219.11 38.9724 219.308 38.854C219.505 38.7356 219.739 38.6934 219.965 38.7353C223.042 39.352 225.686 40.4014 227.895 41.8833C228.002 41.9556 228.124 42.0026 228.252 42.0207C228.38 42.0389 228.51 42.0277 228.633 41.9881C228.757 41.9485 228.869 41.8814 228.962 41.792C229.055 41.7026 229.127 41.5932 229.171 41.4722L229.519 40.5085C229.567 40.3716 229.652 40.2501 229.763 40.1568C229.875 40.0635 230.01 40.0018 230.153 39.9782C230.297 39.9546 230.444 39.9698 230.58 40.0224C230.716 40.075 230.835 40.163 230.925 40.2772C233.073 42.9327 235.846 45.1513 239.241 46.9331C239.476 47.0587 239.669 47.2461 239.795 47.4728L241.214 49.9141C241.304 50.0706 241.452 50.1859 241.626 50.2354L247.119 51.9186C247.309 51.9761 247.478 52.0849 247.608 52.2326C247.738 52.3803 247.823 52.5609 247.854 52.7538C248.241 55.2295 247.437 57.2939 245.443 58.9472C245.38 58.9981 245.308 59.0351 245.23 59.0558C245.152 59.0764 245.071 59.0801 244.993 59.0667C244.914 59.0532 244.84 59.0229 244.775 58.9778C244.71 58.9328 244.657 58.8741 244.618 58.8058C243.689 57.1868 242.821 56.5315 242.013 56.8399C239.821 57.6537 238.575 59.0414 238.274 61.0031C237.887 63.4573 239.86 65.0891 242.31 64.2282ZM224.516 48.4879L226.799 47.1772C226.865 47.1366 226.917 47.0769 226.949 47.006C226.981 46.9351 226.99 46.8563 226.977 46.78C226.963 46.7036 226.926 46.6332 226.871 46.578C226.816 46.5228 226.746 46.4853 226.67 46.4705C225.208 46.2221 224.164 46.175 223.537 46.3292C222.823 46.5091 222.479 47.0402 222.505 47.9225C222.522 48.7791 222.72 49.4002 223.098 49.7856C223.162 49.8525 223.243 49.9013 223.332 49.9271C223.422 49.9529 223.516 49.9549 223.606 49.9327C223.697 49.9106 223.779 49.8651 223.846 49.801C223.913 49.7368 223.962 49.6562 223.988 49.5672L224.207 48.8605C224.257 48.7034 224.368 48.5701 224.516 48.4879ZM237.249 50.5358C237.138 50.6236 237.049 50.7378 236.987 50.8716C236.926 51.0055 236.894 51.1565 236.892 51.316C236.89 51.4755 236.919 51.6404 236.977 51.8012C237.035 51.9621 237.121 52.1158 237.231 52.2535C237.34 52.3912 237.47 52.5103 237.613 52.6039C237.757 52.6975 237.911 52.7639 238.067 52.7991C238.223 52.8344 238.378 52.8379 238.523 52.8095C238.668 52.781 238.8 52.7212 238.912 52.6333C239.023 52.5455 239.112 52.4313 239.174 52.2975C239.235 52.1636 239.267 52.0126 239.269 51.8531C239.271 51.6936 239.242 51.5287 239.184 51.3679C239.126 51.207 239.04 51.0533 238.93 50.9156C238.821 50.7779 238.691 50.6588 238.548 50.5652C238.404 50.4716 238.25 50.4052 238.094 50.3699C237.938 50.3347 237.783 50.3312 237.638 50.3596C237.493 50.3881 237.361 50.4479 237.249 50.5358Z" fill="#EC2127"/>
<path d="M31 67.2475V65.7368C31.177 64.3524 31.4433 62.986 31.7987 61.6379C32.0744 60.5931 32.5905 59.6487 33.3469 58.8048C34.2411 57.8067 35.1112 57.0095 35.8868 56.1077C36.5369 55.3517 37.3058 54.5049 38.1938 53.5676C39.4585 52.2326 40.7033 51.0483 42.1496 50.0576C42.6569 49.7103 43.1985 49.4899 43.7744 49.3964C43.7825 49.3952 43.7908 49.396 43.7985 49.3986C43.8062 49.4013 43.8132 49.4059 43.8188 49.4118C43.8244 49.4178 43.8284 49.4251 43.8305 49.4329C43.8327 49.4408 43.8329 49.4491 43.8311 49.4571C43.6127 50.4102 43.1352 51.3057 42.687 52.1207C42.6826 52.1288 42.6807 52.1379 42.6815 52.1471C42.6822 52.1563 42.6857 52.165 42.6914 52.1722C42.6971 52.1794 42.7047 52.1849 42.7135 52.1878C42.7222 52.1907 42.7316 52.191 42.7406 52.1887C43.3021 52.0412 43.9423 51.8508 44.486 51.6457C46.2948 50.9643 47.4902 50.5218 48.0724 50.3181C50.182 49.5809 52.2668 49.1007 54.3268 48.8775C55.7123 48.7275 56.998 48.6989 58.184 48.7917C59.0363 48.8587 59.9305 49.0773 60.5046 49.8096C61.4219 50.9793 61.8449 52.3257 62.1713 53.7977C62.4621 55.1055 62.5324 56.5209 62.1566 57.7952C61.7725 59.104 61.0283 60.2778 60.2422 61.3951C59.0331 63.1137 58.0399 64.5299 57.2625 65.6437C56.5726 66.6327 55.3771 68.1867 53.6761 70.3055C53.5837 70.4206 51.7641 72.6574 48.2172 77.0158C47.5382 77.8507 46.6366 78.6761 46.7237 79.8656C46.725 79.8843 46.7306 79.9025 46.7401 79.9186C46.7497 79.9348 46.7629 79.9485 46.7787 79.9586C46.7945 79.9688 46.8125 79.9751 46.8311 79.9772C46.8498 79.9792 46.8688 79.9768 46.8864 79.9702C48.0315 79.5507 49.1104 78.7012 50.0036 77.9448C53.633 74.8732 56.8941 71.585 60.3493 67.9631C62.1364 66.0904 64.2719 63.7226 66.7559 60.8595C68.1931 59.203 70.293 56.8034 73.0554 53.6607C74.0001 52.5862 75.7319 51.1027 77.2632 51.9669C78.2897 52.5454 78.805 53.8835 78.9142 55.0291C78.9666 55.5766 78.8589 56.0693 78.5909 56.5074C76.9787 59.1406 75.016 61.8586 73.4669 64.1927C72.5873 65.5164 71.4216 67.3794 69.9697 69.7814C68.608 72.0335 67.4182 74.2131 66.4001 76.3201C66.1174 76.9053 65.8295 77.5773 65.5363 78.3361C65.2267 79.1396 64.8005 80.4473 65.0367 81.1378C65.0587 81.202 65.0984 81.2588 65.1513 81.3015C65.2043 81.3443 65.2682 81.3713 65.3358 81.3795C65.8763 81.4454 66.3329 81.2068 66.8787 80.9013C67.5861 80.5059 68.4866 79.8154 69.2119 79.2065C70.759 77.9065 72.3641 76.401 74.0273 74.6901C74.6725 74.0268 75.1707 73.4772 75.5219 73.0413C77.5399 70.5367 79.4519 67.8658 81.2579 65.0286C81.945 63.9482 82.5674 62.8678 83.1251 61.7875C83.3276 61.3951 83.7328 60.5749 83.8083 59.9504C83.8524 59.5873 83.7107 59.2138 83.6446 58.856C83.4861 57.9992 83.7789 57.2721 84.1285 56.4121C84.7152 54.9705 86.0534 52.49 87.7715 52.2546C89.2157 52.0569 89.9379 53.5037 90.1457 54.688C90.4752 56.5712 90.0911 58.5914 89.4802 60.4358C88.4964 63.4042 87.2006 66.3063 85.5926 69.1422C83.4095 72.9922 80.8303 76.6019 77.8551 79.9713C76.3172 81.7122 74.6826 83.3348 72.9515 84.8392C70.4346 87.0236 66.5869 89.2646 63.2681 87.3145C62.2857 86.737 61.5353 85.876 60.9192 84.8873C59.8549 83.181 60.0134 81.0991 60.5288 79.1469C61.0336 77.2334 61.6959 75.5438 62.4033 73.6962C62.7699 72.74 63.0729 71.788 63.3122 70.8401C63.3143 70.8318 63.3135 70.8231 63.31 70.8153C63.3065 70.8074 63.3005 70.801 63.2929 70.7969C63.2854 70.7929 63.2767 70.7914 63.2682 70.7928C63.2597 70.7942 63.252 70.7983 63.2461 70.8046C61.8796 72.2839 58.8799 75.3314 56.871 77.6749C55.5807 79.1807 54.7183 80.1523 54.2838 80.5896C51.2243 83.6643 49.4505 85.6385 46.4539 87.3794C44.7757 88.3555 43.0239 88.5888 41.5797 87.0927C40.632 86.1124 39.7682 84.6624 39.406 83.3934C38.6965 80.9097 39.9623 78.7912 41.4328 76.8819C43.7859 73.826 45.9229 70.9929 48.4072 68.1556C49.8231 66.5382 51.4814 65.1572 52.7462 63.3934C53.0267 63.0014 53.2398 62.6293 53.3853 62.2771C53.5134 61.9674 53.6645 61.3104 53.3727 61.0677C52.8962 60.6722 51.9884 60.5687 51.387 60.5969C50.7215 60.629 50.055 60.7228 49.3875 60.8783C47.9769 61.2068 46.4501 61.7086 44.8072 62.3838C43.8129 62.7918 42.1706 63.4997 39.8805 64.5076C38.686 65.0334 37.7757 65.4774 37.1495 65.8394C35.5037 66.7924 34.5633 67.4338 33.1695 67.9098C32.3067 68.2048 31.2141 68.3795 31 67.2475Z" fill="#EC2127"/>
<path d="M293.284 68.3357C293.283 68.3386 293.283 68.3418 293.283 68.3449C293.283 68.3481 293.284 68.3511 293.286 68.3538C293.287 68.3566 293.29 68.3589 293.292 68.3606C293.295 68.3624 293.298 68.3635 293.301 68.3639C293.828 68.4267 294.332 68.4438 294.813 68.4152C295.168 68.3942 296.037 68.3667 297.421 68.3325C297.99 68.3179 298.696 68.4037 299.537 68.5899C299.544 68.5915 299.55 68.5946 299.556 68.599C299.562 68.6034 299.566 68.6089 299.57 68.6153C299.573 68.6216 299.575 68.6286 299.576 68.6358C299.576 68.6429 299.575 68.6501 299.572 68.6568C299.509 68.8249 299.442 68.9707 299.373 69.0941C299.201 69.3989 298.728 70.1487 297.956 71.3435C297.304 72.352 296.671 73.8867 296.329 74.5343C296.221 74.7373 296.085 74.9758 295.921 75.2499C295.897 75.29 295.864 75.3233 295.823 75.3469C295.783 75.3705 295.738 75.3836 295.691 75.3849L290.009 75.5638C289.992 75.5644 289.975 75.5697 289.961 75.5791C289.947 75.5886 289.936 75.6018 289.93 75.6171C288.41 79.0542 287.626 80.8338 287.577 80.9558C287.371 81.4674 287.247 82.4969 288.174 82.3546C289.026 82.2238 289.974 81.4988 290.626 80.937C291.244 80.4049 291.876 79.9097 292.524 79.4514C292.531 79.4471 292.538 79.4441 292.545 79.4426C292.553 79.4411 292.561 79.4412 292.568 79.4429C292.576 79.4446 292.583 79.4478 292.589 79.4523C292.595 79.4568 292.6 79.4626 292.604 79.4692L293.417 80.8711C293.423 80.8822 293.425 80.895 293.424 80.9075C293.422 80.92 293.416 80.9314 293.407 80.9402C292.663 81.6652 291.586 82.8066 290.69 83.5902C289.075 85.0032 287.328 86.1889 285.45 87.1472C284.301 87.7341 282.795 88.2478 281.511 88.0856C279.739 87.8638 279.238 86.3605 279.341 84.7891C279.432 83.3893 279.885 82.3672 280.567 80.6744C281.201 79.0954 281.852 77.4783 282.519 75.8232C282.522 75.8157 282.523 75.8076 282.522 75.7995C282.522 75.7914 282.519 75.7836 282.514 75.7768C282.51 75.7701 282.503 75.7646 282.496 75.7608C282.489 75.7571 282.481 75.7551 282.473 75.7552C276.683 75.7566 273.625 75.7577 273.298 75.7584C272.983 75.7594 272.611 75.7898 272.348 75.8431C271.941 75.9279 271.715 76.27 271.399 76.6487C271.29 76.7784 271.137 76.9399 270.938 77.1331C267.936 80.0499 264.892 83.5337 262.53 85.9504C261.372 87.1346 260.286 88.6579 258.828 89.8213C258.281 90.2565 257.712 90.5438 257.119 90.6833C256.067 90.9302 254.601 90.7011 254.781 89.2417C254.932 88.0082 255.736 86.734 256.506 85.8154C257.862 84.2001 259.425 82.8118 261.197 81.6505C261.852 81.2209 262.429 80.8987 262.93 80.6838C263.223 80.5583 263.461 80.3951 263.644 80.1942C264.98 78.7317 266.205 77.2586 267.318 75.7751C267.324 75.7672 267.328 75.7578 267.329 75.7479C267.33 75.738 267.328 75.7279 267.324 75.7188C267.32 75.7097 267.314 75.7019 267.306 75.6962C267.298 75.6904 267.288 75.687 267.278 75.6862C266.597 75.6255 265.846 75.6049 265.023 75.6245C264.725 75.6321 263.476 75.6876 261.278 75.7908C260.512 75.8271 259.784 75.7974 259.092 75.7019C258.75 75.6552 258.446 75.5561 258.179 75.4048C257.811 75.1962 257.665 74.8667 257.742 74.4161C257.949 73.1764 258.657 72.193 259.525 71.3257C260.7 70.1512 262.039 68.9846 263.544 67.8262C264.35 67.2047 265.193 66.5822 266.093 66.215C266.099 66.2125 266.106 66.2118 266.113 66.2131C266.119 66.2143 266.126 66.2174 266.131 66.2221C266.136 66.2267 266.139 66.2326 266.141 66.2391C266.143 66.2457 266.142 66.2525 266.14 66.259L265.308 68.8682C265.306 68.8754 265.305 68.883 265.306 68.8905C265.307 68.898 265.31 68.9052 265.314 68.9115C265.318 68.9179 265.323 68.9233 265.33 68.9274C265.336 68.9314 265.343 68.9341 265.351 68.9351C266.43 69.09 267.574 69.2096 268.783 69.294C270.312 69.4017 271.838 69.3118 273.19 69.1716C273.866 69.1015 274.186 68.9529 274.67 68.4643C275.125 68.0047 275.593 67.5695 276.074 67.1587C276.962 66.4033 277.873 65.4001 278.693 64.6437C279.454 63.9413 281.055 62.5122 283.495 60.3564C284.139 59.7862 284.971 58.9534 285.649 58.3529C288.797 55.5659 292.072 52.934 295.475 50.4573C296.315 49.8453 297.352 49.2699 298.38 49.2333C299.35 49.1998 300.085 49.928 300.35 50.8141C300.711 52.0162 300.205 53.303 299.673 54.4349C298.837 56.2142 298.09 57.827 297.431 59.2736C296.611 61.0737 296.106 62.168 295.916 62.5565C294.995 64.4407 293.992 66.4107 293.284 68.3357ZM278.859 68.9247L286.426 68.4183C286.442 68.417 286.456 68.4121 286.469 68.4039C286.482 68.3957 286.492 68.3845 286.5 68.3712C291.149 59.9557 293.544 55.63 293.684 55.3943C293.698 55.372 293.704 55.3563 293.702 55.3472C293.701 55.3411 293.698 55.3354 293.694 55.3306C293.689 55.3259 293.684 55.3222 293.678 55.32C293.672 55.3178 293.666 55.3172 293.66 55.3181C293.654 55.319 293.648 55.3215 293.643 55.3252C293.248 55.6189 292.712 56.0618 292.034 56.6539C289.786 58.6187 286.665 61.6631 284.141 63.9469C282.797 65.1633 281.732 66.1352 280.944 66.8626C279.961 67.7721 279.264 68.4556 278.854 68.9132C278.853 68.9143 278.852 68.9157 278.852 68.9172C278.852 68.9186 278.852 68.9201 278.853 68.9214C278.853 68.9226 278.854 68.9236 278.855 68.9242C278.856 68.9248 278.858 68.9249 278.859 68.9247Z" fill="#EC2127"/>
<path d="M311.817 60.0143C312.831 60.0216 313.576 60.7068 313.612 61.7561C313.632 62.3225 313.543 62.8557 313.346 63.3558C312.828 64.674 311.927 65.7756 310.669 66.4347C309.658 66.9641 308.495 66.8877 307.848 65.8562C307.077 64.629 307.391 63.1612 308.205 62.0135C309.012 60.8763 310.396 60.0038 311.817 60.0143Z" fill="#EC2127"/>
<path d="M96.0267 62.0344C96.9735 60.7026 99.0117 59.5675 100.659 60.2329C101.554 60.5949 101.826 61.5647 101.665 62.4362C101.655 62.492 101.586 62.8152 101.457 63.406C101.446 63.4575 101.43 63.5076 101.409 63.5556C100.806 64.9721 99.7398 65.9521 98.2109 66.4954C97.1676 66.8668 96.1044 66.6659 95.5481 65.6438C94.9257 64.4993 95.3046 63.0503 96.0267 62.0344Z" fill="#EC2127"/>
<path d="M127.354 101.373H125.812C125.357 101.1 125.154 100.672 125.202 100.089C125.25 99.5097 125.417 98.9193 125.704 98.3174C126.408 96.8391 127.418 95.4812 128.528 94.2299C129.93 92.6474 131.436 91.1663 133.046 89.7868C133.864 89.0858 134.745 88.3423 135.688 87.5563C136.367 86.9913 136.894 86.3148 137.269 85.5267C138.141 83.6951 138.918 82.1757 139.599 80.9684C139.864 80.499 140.09 79.9941 140.278 79.4535C140.28 79.4484 140.28 79.4428 140.279 79.4375C140.278 79.4322 140.275 79.4273 140.272 79.4233C140.268 79.4194 140.263 79.4167 140.258 79.4153C140.252 79.414 140.247 79.4142 140.242 79.4159C140.176 79.4375 140.111 79.4752 140.046 79.5289C139.769 79.7576 139.453 80.0363 139.1 80.3648C137.392 81.955 135.916 83.269 134.115 84.4962C132.335 85.7098 128.536 87.7143 126.829 85.285C126.501 84.8177 126.265 84.3616 126.123 83.9166C125.75 82.7574 125.501 81.4999 125.376 80.144C125.375 80.132 125.371 80.1204 125.364 80.1107C125.356 80.1009 125.347 80.0932 125.336 80.0885C125.325 80.0838 125.312 80.0822 125.301 80.0838C125.289 80.0855 125.278 80.0904 125.268 80.098C124.935 80.3679 124.633 80.6343 124.363 80.8973C123.272 81.9602 122.106 83.0817 120.865 84.2618C119.764 85.3094 118.52 86.2492 117.134 87.0813C115.641 87.9779 112.814 89.2155 111.71 87.0761C111.454 86.5795 111.239 85.9901 111.064 85.308C110.806 84.2964 110.977 83.2491 111.338 82.2469C111.792 80.9852 112.39 79.7848 113.132 78.6459C113.768 77.6701 114.294 76.8782 114.709 76.27C115.009 75.8285 115.269 75.3758 115.487 74.912C115.491 74.9051 115.492 74.8972 115.491 74.8895C115.49 74.8818 115.486 74.8746 115.481 74.869C115.475 74.8634 115.468 74.8596 115.461 74.8581C115.453 74.8566 115.445 74.8576 115.438 74.8608C115.147 74.98 114.77 75.2133 114.536 75.3912C113.586 76.1159 112.612 77.0201 111.614 78.104C109.819 80.0561 108.344 81.8566 106.84 83.722C106.524 84.114 106.167 84.5307 105.771 84.9722C104.918 85.9211 104.226 86.7183 103.134 87.0248C102.027 87.3345 101.136 86.6723 100.563 85.7778C100.048 84.975 99.7549 84.1237 99.6849 83.224C99.6373 82.62 99.6044 82.038 99.5862 81.4779C99.586 81.4698 99.5834 81.4619 99.5786 81.4552C99.5738 81.4486 99.5671 81.4436 99.5595 81.4407C99.5518 81.4379 99.5434 81.4375 99.5355 81.4394C99.5275 81.4414 99.5204 81.4457 99.5149 81.4518C98.8264 82.2036 98.0472 83.0298 97.1775 83.9302C95.841 85.314 94.3244 86.4431 92.6276 87.3178C91.5706 87.8628 90.2576 88.3075 89.0915 88.2332C86.5631 88.071 85.1703 86.0048 84.7453 83.6885C83.8741 78.9524 86.2199 74.0531 89.6006 70.7712C90.5249 69.8743 91.4814 69.1657 92.4701 68.6454C93.4231 68.1453 94.6942 67.8649 95.7312 68.2007C97.2142 68.682 97.1061 70.2188 96.5393 71.3414C96.0453 72.3213 95.3939 73.2587 94.585 74.1535C93.3724 75.4955 92.0475 76.7467 90.6103 77.9073C90.0099 78.3927 89.1629 78.738 89.0653 79.6126C88.9729 80.4359 89.185 81.322 89.8367 81.8849C90.7016 82.6308 91.9905 82.5879 93.0369 82.362C94.3478 82.0784 95.5055 81.4099 96.7125 80.5071C97.795 79.6966 98.9698 78.7683 100.237 77.7221C100.442 77.5526 100.602 77.328 100.716 77.0484C101.442 75.2594 102.322 73.5447 103.475 72.0518C104.091 71.2546 104.765 70.4982 105.497 69.7826C105.818 69.4708 106.266 69.203 106.721 69.0471C107.956 68.6251 109.196 68.6185 110.441 69.0272C110.547 69.0621 110.695 69.1556 110.885 69.3076C110.921 69.3371 110.95 69.3753 110.968 69.4185C111.604 70.9397 109.749 72.5424 108.864 73.5258C107.471 75.0749 106.639 76.0001 106.369 76.3014C105.893 76.8314 105.476 77.3486 105.119 77.8529C104.772 78.3415 104.416 78.92 104.36 79.5079C104.357 79.5344 104.365 79.5608 104.381 79.5819C104.398 79.603 104.421 79.6173 104.448 79.622C105.169 79.7412 105.789 79.2349 106.236 78.7306C106.676 78.234 107.062 77.7866 107.392 77.3884C108.516 76.0346 109.639 75.0397 111.191 73.6807C113.449 71.7044 115.828 69.8004 118.341 68.1484C119.14 67.6232 119.909 67.187 120.648 66.8396C121.118 66.6189 121.785 66.3615 122.31 66.3814C122.328 66.382 122.347 66.3876 122.362 66.3975C122.378 66.4075 122.391 66.4214 122.4 66.4379C122.902 67.429 123.281 68.4734 123.54 69.5712C123.75 70.4636 123.667 71.3205 123.027 72.034C121.671 73.5454 120.282 75.1816 118.859 76.9427C118.368 77.5495 118.108 77.8735 118.08 77.9146C117.516 78.7285 116.777 80.2664 117.304 81.2289C118.12 82.7197 121.05 80.2633 121.799 79.6492C123.634 78.1462 124.901 77.0982 125.599 76.5054C126.132 76.0534 126.64 75.5126 127.034 74.9455C127.261 74.617 127.521 74.2603 127.812 73.8753C128.025 73.5942 128.424 73.19 129.009 72.6627C130.155 71.628 131.571 70.4626 133.09 69.5378C134.508 68.6736 135.831 67.9601 137.059 67.3973C138.252 66.8504 139.39 66.4519 140.471 66.2015C141.343 65.9999 142.234 65.9961 143.147 66.1899C144.039 66.3793 144.596 67.0824 144.359 67.9789C144.192 68.6087 143.705 69.0241 143.16 69.3474C140.252 71.0736 137.366 72.647 134.43 74.3241C133.236 75.0062 132.15 75.6838 131.17 76.3568C130.146 77.0609 129.188 78.9001 129.238 80.1859C129.267 80.9608 129.67 81.3709 130.446 81.4162C130.77 81.435 131.27 81.367 131.597 81.2687C133.84 80.5949 135.885 79.1554 137.514 77.5275C137.906 77.1362 138.384 76.6107 138.948 75.9509C140.876 73.7002 142.211 72.1536 142.953 71.3111C143.419 70.7803 143.786 70.4068 144.054 70.1906C144.785 69.5974 145.646 69.6612 146.315 70.313C147.039 71.015 147.234 72.1794 147.049 73.1387C146.976 73.5216 146.725 74.1058 146.297 74.8911C145.106 77.0735 143.955 79.2778 142.841 81.5041C142.507 82.1722 142.256 82.7156 142.088 83.134C142.075 83.167 142.071 83.203 142.078 83.2378C142.086 83.2725 142.103 83.3044 142.128 83.3295C142.153 83.3545 142.185 83.3717 142.22 83.3788C142.255 83.3859 142.291 83.3826 142.324 83.3694C142.598 83.2596 142.896 83.0849 143.118 82.8882C143.724 82.3546 144.344 81.8912 144.975 81.3074C146.35 80.0352 148.22 78.3843 149.629 77.0494C151.709 75.0777 154.337 72.51 157.512 69.3463C157.78 69.0799 158.024 68.8183 158.246 68.5617C158.428 68.3514 158.493 68.2122 158.537 67.9162C158.78 66.2688 159.718 65.2128 161.351 64.7483C162.121 64.5286 163.057 64.7054 163.493 65.3865C163.631 65.6027 163.764 66.0679 163.892 66.7821C164.279 68.9477 164.632 70.516 164.785 72.2934C164.94 74.0817 164.633 75.7204 163.864 77.2095C163.447 78.0178 162.946 78.7962 162.361 79.5446C161.288 80.9182 159.831 81.9372 158.352 82.998C158.236 83.081 158.105 83.1958 157.96 83.3422C157.956 83.3468 157.953 83.3524 157.951 83.3586C157.95 83.3647 157.95 83.3712 157.952 83.3773C157.954 83.3834 157.957 83.3889 157.962 83.3932C157.966 83.3975 157.972 83.4005 157.978 83.4019C161.792 84.2597 165.424 80.8073 168.15 78.536C168.493 78.2501 168.868 77.9861 169.273 77.7441C169.278 77.7411 169.284 77.7393 169.29 77.739C169.296 77.7386 169.302 77.7397 169.307 77.742C169.313 77.7444 169.317 77.748 169.321 77.7525C169.325 77.757 169.327 77.7624 169.328 77.7681L169.748 79.7705C169.754 79.7965 169.753 79.8235 169.746 79.8493C169.74 79.8751 169.727 79.899 169.709 79.9191C168.131 81.7144 166.242 83.2271 164.173 84.7211C162.869 85.6634 161.579 86.4613 160.305 87.1148C157.038 88.7918 153.598 88.3137 150.64 86.3186C149.607 85.6219 148.737 84.7337 148.107 83.6655C148.004 83.4918 147.781 83.1013 147.438 82.4938C147.429 82.4778 147.417 82.4639 147.403 82.4527C147.388 82.4416 147.371 82.4336 147.353 82.4291C147.335 82.4246 147.317 82.4237 147.299 82.4266C147.28 82.4294 147.263 82.4359 147.247 82.4456C146.458 82.9342 145.584 83.6791 145.023 84.1363C144.704 84.3957 144.344 84.674 143.942 84.9711C142.374 86.1317 140.969 87.2198 139.728 88.2353C139.313 88.5763 138.935 88.9341 138.615 89.4195C136.922 91.99 135.321 94.4549 133.343 96.701C132.423 97.7465 131.28 98.8136 129.916 99.9024C129.087 100.564 128.233 101.054 127.354 101.373ZM158.327 71.3759C157.929 71.6877 157.466 72.1023 156.939 72.6198C155.654 73.8836 153.79 75.7413 151.348 78.1929C151.246 78.2944 151.045 78.4482 150.919 78.5862C150.912 78.5937 150.907 78.6027 150.904 78.6124C150.901 78.6221 150.901 78.6323 150.903 78.6421C150.905 78.652 150.909 78.6613 150.915 78.6692C150.921 78.6771 150.929 78.6834 150.938 78.6877C151.37 78.9005 151.722 79.0588 151.996 79.1627C152.198 79.2401 152.398 79.3726 152.597 79.5603C153.309 80.234 153.846 81.1118 154.438 81.8336C154.461 81.861 154.491 81.8813 154.524 81.8921C154.558 81.9028 154.594 81.9036 154.628 81.8943C156.196 81.4581 157.491 80.1137 158.247 78.7359C158.891 77.562 159.112 76.3209 158.907 75.0125C158.652 73.3811 158.476 72.1762 158.379 71.3979C158.379 71.3921 158.376 71.3867 158.373 71.382C158.37 71.3774 158.365 71.3737 158.36 71.3715C158.354 71.3692 158.348 71.3685 158.343 71.3693C158.337 71.37 158.331 71.3723 158.327 71.3759Z" fill="#EC2127"/>
<path d="M331 79.6355V80.0351C328.329 83.3882 325.192 87.0885 320.697 87.9579C318.855 88.3147 317.088 87.9286 316.367 86.0403C315.776 84.4898 316.149 82.5272 316.769 80.9851C317.262 79.7568 317.83 78.7023 318.473 77.8214C319.074 76.9956 319.625 76.1967 320.128 75.4246C320.134 75.4152 320.137 75.4044 320.137 75.3932C320.137 75.3821 320.134 75.3713 320.128 75.362C320.121 75.3527 320.113 75.3454 320.103 75.3409C320.092 75.3364 320.081 75.3349 320.07 75.3367C318.48 75.5989 316.951 75.956 315.484 76.408C315.264 76.476 315.024 76.6936 314.876 76.9259C314.658 77.269 314.498 77.5442 314.228 77.8632C310.911 81.8046 309.143 83.912 308.921 84.1854C308.553 84.6422 308.177 85.0303 307.793 85.3498C306.057 86.7956 303.524 88.7426 301.1 88.3377C297.948 87.8104 297.295 84.0807 297.305 81.4935C297.314 79.2205 297.87 77.081 298.973 75.0752C300.036 73.1407 301.376 71.2775 303.014 69.8442C304.049 68.9372 305.304 68.1797 306.669 67.9966C307.665 67.8627 308.733 68.2582 308.925 69.3651C309.143 70.6163 308.233 72.0715 307.506 73.0644C306.135 74.9357 304.565 76.6403 302.796 78.1782C302.441 78.4871 302.079 78.7654 301.712 79.013C301.696 79.0238 301.683 79.038 301.674 79.0545C301.664 79.071 301.659 79.0893 301.657 79.1082C301.584 80.2172 301.688 81.4705 302.6 82.1568C303.804 83.0618 305.902 82.5094 307.045 81.8084C307.78 81.3579 308.546 80.8226 309.342 80.2025C310.532 79.2763 311.538 78.1809 312.36 76.9164C312.363 76.9115 312.365 76.906 312.366 76.9002C312.367 76.8945 312.367 76.8886 312.366 76.8829C312.365 76.8773 312.362 76.872 312.359 76.8673C312.355 76.8626 312.351 76.8587 312.346 76.8558C312.09 76.7009 311.543 76.4488 311.338 76.1527C310.483 74.9276 312.009 72.2797 312.769 71.2189C313.136 70.7063 313.622 70.1434 314.227 69.5303C314.938 68.8106 315.855 67.9705 316.826 67.7518C317.346 67.6353 317.703 67.8094 317.896 68.2739C317.929 68.3513 317.921 68.5992 317.874 69.0177C317.874 69.0233 317.809 69.318 317.681 69.9017C317.676 69.9266 317.676 69.9525 317.683 69.9771C317.689 70.0018 317.702 70.0245 317.719 70.0434C317.736 70.0624 317.758 70.077 317.782 70.086C317.806 70.095 317.832 70.0982 317.858 70.0953C318.744 69.9935 319.805 69.8337 321.041 69.6161C321.68 69.5042 322.432 69.4278 322.997 69.3619C324.06 69.2371 325.077 69.2698 326.051 69.4602C326.479 69.5439 326.856 69.6723 327.183 69.8452C327.694 70.1141 327.883 70.4719 328.002 71.0651C328.291 72.5141 328.325 73.6021 327.284 74.6797C327.162 74.8059 326.495 75.4915 325.281 76.7365C324.706 77.3276 324.149 77.9302 323.729 78.6573C323.366 79.2857 323.087 79.9319 322.889 80.5959C322.597 81.5804 322.764 82.9184 324.11 82.9059C324.548 82.9017 324.926 82.8194 325.243 82.659C326.059 82.2482 326.847 81.7094 327.609 81.0426C328.44 80.3159 329.348 79.495 330.332 78.5799C330.377 78.538 330.484 78.461 330.651 78.3487C330.656 78.3454 330.662 78.3434 330.668 78.3428C330.673 78.3422 330.679 78.343 330.685 78.3452C330.69 78.3473 330.695 78.3508 330.699 78.3552C330.703 78.3597 330.705 78.365 330.706 78.3706L331 79.6355Z" fill="#EC2127"/>
</svg>
