<svg width="362" height="140" viewBox="0 0 362 140" fill="none" xmlns="http://www.w3.org/2000/svg">
<rect width="362" height="140" fill="white"/>
<path d="M32.2188 76.9602L44.3047 76.2067C44.569 78.1637 45.1033 79.6642 45.9088 80.6982C47.2162 82.3552 49.0908 83.1935 51.5262 83.1935C53.3422 83.1935 54.7377 82.7663 55.719 81.9213C56.7004 81.0568 57.1892 80.0752 57.1892 78.9499C57.1892 77.8833 56.7235 76.9275 55.7874 76.086C54.855 75.2511 52.6836 74.4518 49.2766 73.6983C43.6983 72.4491 39.7306 70.7823 37.3538 68.7111C34.9543 66.6333 33.7577 63.9814 33.7577 60.762C33.7577 58.6515 34.374 56.6488 35.5997 54.7733C36.8223 52.8911 38.6676 51.4135 41.1259 50.3339C43.5874 49.2607 46.9586 48.7258 51.2394 48.7258C56.5015 48.7258 60.5083 49.7044 63.2601 51.6484C66.0215 53.6023 67.6647 56.7239 68.1896 60.9871L56.2113 61.6953C55.8915 59.8393 55.2234 58.489 54.2029 57.6474C53.1857 56.806 51.7773 56.3818 49.9842 56.3818C48.5007 56.3818 47.3857 56.698 46.6456 57.3244C45.8896 57.9541 45.5144 58.7075 45.5144 59.6207C45.5144 60.2633 45.8304 60.857 46.4403 61.3821C47.0438 61.9267 48.4648 62.4293 50.7112 62.8956C56.2634 64.096 60.2442 65.3094 62.6536 66.5326C65.0499 67.7623 66.8007 69.279 67.8962 71.0861C68.9916 72.9062 69.5393 74.9415 69.5393 77.1824C69.5393 79.8245 68.8093 82.248 67.3485 84.4856C65.8879 86.7102 63.8534 88.3998 61.2224 89.548C58.6174 90.6962 55.3148 91.2767 51.3274 91.2767C44.3308 91.2767 39.4827 89.9329 36.793 87.2288C34.0999 84.5378 32.5709 81.1125 32.2188 76.9602Z" fill="#A28800"/>
<path d="M85.5882 70.4211L74.6695 69.2697C75.0872 67.3582 75.677 65.8644 76.4562 64.7586C77.2325 63.6692 78.347 62.7199 79.8044 61.9175C80.8575 61.3341 82.2952 60.8836 84.1308 60.5704C85.9598 60.2505 87.9421 60.0942 90.0775 60.0942C93.5041 60.0942 96.2526 60.2801 98.3261 60.6647C100.403 61.0466 102.134 61.8488 103.52 63.0622C104.491 63.9073 105.257 65.0942 105.818 66.6436C106.382 68.1897 106.663 69.6674 106.663 71.0601V84.2346C106.663 85.6307 106.746 86.7299 106.927 87.5291C107.103 88.3252 107.491 89.3361 108.088 90.5724H97.3714C96.9407 89.7994 96.6607 89.222 96.5267 88.8142C96.4029 88.4231 96.2624 87.79 96.1358 86.9289C94.6393 88.3707 93.1558 89.3949 91.6757 90.0113C89.6542 90.8333 87.3037 91.2443 84.6335 91.2443C81.0798 91.2443 78.3835 90.4223 76.5415 88.7751C74.6962 87.1279 73.7734 85.099 73.7734 82.6918C73.7734 80.4216 74.4388 78.5558 75.7687 77.101C77.099 75.6397 79.5442 74.5504 83.1174 73.8458C87.4015 72.985 90.1824 72.3812 91.4572 72.0289C92.7223 71.6868 94.072 71.2328 95.4935 70.672C95.4935 69.2694 95.2061 68.2843 94.623 67.7266C94.0426 67.1626 93.022 66.8852 91.5647 66.8852C89.6933 66.8852 88.2914 67.1783 87.359 67.7821C86.6224 68.2481 86.0381 69.1294 85.5882 70.4211ZM95.4935 76.4292C93.9252 76.9904 92.2854 77.4861 90.5867 77.9199C88.2588 78.5329 86.7917 79.143 86.1723 79.7432C85.5365 80.3562 85.2268 81.0545 85.2268 81.8471C85.2268 82.7412 85.5299 83.478 86.1657 84.0521C86.7849 84.6198 87.7078 84.9037 88.9271 84.9037C90.1987 84.9037 91.3855 84.5967 92.4744 83.9708C93.5666 83.3578 94.349 82.6041 94.8088 81.7201C95.2654 80.8298 95.4936 79.675 95.4936 78.2496L95.4935 76.4292Z" fill="#A28800"/>
<path d="M126.222 60.7627H131.667V69.126H126.222V90.5692H114.772V69.126H110.508V60.7627H114.772V59.4123C114.772 58.1956 114.903 56.8584 115.167 55.4068C115.431 53.9422 115.924 52.7484 116.644 51.8253C117.358 50.8957 118.375 50.1455 119.666 49.5812C120.97 49.007 122.878 48.7231 125.375 48.7231C127.386 48.7231 130.288 48.958 134.106 49.424L132.847 56.3326C131.478 56.1014 130.373 55.9868 129.535 55.9868C128.508 55.9868 127.771 56.1699 127.318 56.512C126.865 56.8578 126.555 57.4061 126.363 58.1462C126.27 58.5669 126.222 59.4384 126.222 60.7627Z" fill="#A28800"/>
<path d="M145.711 70.4211L134.796 69.2697C135.21 67.3582 135.8 65.8644 136.583 64.7586C137.359 63.6692 138.473 62.7199 139.934 61.9175C140.987 61.3341 142.425 60.8836 144.261 60.5704C146.093 60.2505 148.072 60.0942 150.201 60.0942C153.631 60.0942 156.376 60.2801 158.456 60.6647C160.533 61.0466 162.257 61.8488 163.643 63.0622C164.621 63.9073 165.384 65.0942 165.945 66.6436C166.512 68.1897 166.792 69.6674 166.792 71.0601V84.2346C166.792 85.6307 166.875 86.7299 167.059 87.5291C167.232 88.3252 167.623 89.3361 168.22 90.5724H157.5C157.067 89.7994 156.789 89.222 156.662 88.8142C156.528 88.4231 156.398 87.79 156.267 86.9289C154.764 88.3707 153.281 89.3949 151.801 90.0113C149.783 90.8333 147.438 91.2443 144.762 91.2443C141.201 91.2443 138.505 90.4223 136.666 88.7751C134.821 87.1279 133.898 85.099 133.898 82.6918C133.898 80.4216 134.564 78.5558 135.89 77.101C137.221 75.6397 139.666 74.5504 143.246 73.8458C147.53 72.985 150.301 72.3812 151.579 72.0289C152.847 71.6868 154.2 71.2328 155.622 70.672C155.622 69.2694 155.332 68.2843 154.745 67.7266C154.174 67.1626 153.15 66.8852 151.686 66.8852C149.825 66.8852 148.416 67.1783 147.481 67.7821C146.747 68.2481 146.161 69.1294 145.711 70.4211ZM155.622 76.4292C154.05 76.9904 152.417 77.4861 150.708 77.9199C148.394 78.5329 146.92 79.143 146.307 79.7432C145.662 80.3562 145.358 81.0545 145.358 81.8471C145.358 82.7412 145.659 83.478 146.294 84.0521C146.917 84.6198 147.839 84.9037 149.052 84.9037C150.324 84.9037 151.507 84.5967 152.599 83.9708C153.695 83.3578 154.474 82.6041 154.931 81.7201C155.387 80.8298 155.622 79.675 155.622 78.2496L155.622 76.4292Z" fill="#A28800"/>
<path d="M173.758 60.7627H184.448V65.6489C185.479 63.5353 186.541 62.0772 187.63 61.2845C188.726 60.4921 190.079 60.0908 191.686 60.0908C193.372 60.0908 195.214 60.6123 197.209 61.6564L193.675 69.8012C192.328 69.24 191.262 68.9626 190.48 68.9626C188.983 68.9626 187.819 69.5821 187.001 70.8154C185.814 72.5507 185.237 75.806 185.237 80.5747V90.5689H173.758" fill="#A28800"/>
<path d="M199.57 57.1982H210.994V49.4187H199.57V57.1982ZM199.57 90.5731H210.994V60.7601H199.57V90.5731Z" fill="#A28800"/>
<path d="M218.68 90.5732H230.13V49.4221H218.68V90.5732Z" fill="#A28800"/>
<path d="M237.844 57.1982H249.271V49.4187H237.844V57.1982ZM237.844 90.5731H249.271V60.7601H237.844V90.5731Z" fill="#A28800"/>
<path d="M256.555 60.7627H267.196V65.6196C268.784 63.633 270.391 62.2175 272.018 61.3661C273.652 60.5145 275.631 60.0908 277.968 60.0908C281.131 60.0908 283.602 61.0268 285.389 62.909C287.175 64.7943 288.069 67.6941 288.069 71.6214V90.5692H276.596V74.1785C276.596 72.3063 276.254 70.982 275.552 70.2122C274.857 69.4355 273.886 69.0445 272.634 69.0445C271.259 69.0445 270.131 69.5696 269.267 70.6199C268.415 71.667 267.979 73.5425 267.979 76.2531V90.5692H256.555" fill="#A28800"/>
<path d="M294.891 49.4231V90.5776H306.562V82.8274L310.866 78.6262L316.901 90.5776H329.773L318.463 71.2055L329.16 60.7645H315.095L306.562 70.6674V49.4231H294.891Z" fill="#A28800"/>
</svg>
