<svg width="300" height="42" viewBox="0 0 300 42" fill="none" xmlns="http://www.w3.org/2000/svg">
<path d="M41.9329 21C41.9329 26.5695 39.7239 31.911 35.792 35.8492C31.86 39.7875 26.5271 42 20.9664 42C15.4058 42 10.0729 39.7875 6.14093 35.8492C2.20896 31.911 0 26.5695 0 21C0 15.4305 2.20896 10.089 6.14093 6.15076C10.0729 2.21249 15.4058 0 20.9664 0C26.5271 0 31.86 2.21249 35.792 6.15076C39.7239 10.089 41.9329 15.4305 41.9329 21ZM37.9474 20.9442C37.9474 16.4011 36.1456 12.0442 32.9383 8.83174C29.731 5.61932 25.381 3.8146 20.8452 3.8146C16.3094 3.8146 11.9594 5.61932 8.75208 8.83174C5.54479 12.0442 3.74295 16.4011 3.74295 20.9442C3.74295 25.4872 5.54479 29.8442 8.75208 33.0566C11.9594 36.2691 16.3094 38.0738 20.8452 38.0738C25.381 38.0738 29.731 36.2691 32.9383 33.0566C36.1456 29.8442 37.9474 25.4872 37.9474 20.9442Z" fill="white"/>
<path d="M20.8457 5.93359C24.8198 5.93371 28.6313 7.51546 31.4414 10.3301C34.2514 13.1447 35.83 16.962 35.8301 20.9424C35.8301 24.923 34.2516 28.7409 31.4414 31.5557C28.6313 34.3703 24.8198 35.9511 20.8457 35.9512C16.8715 35.9512 13.0592 34.3704 10.249 31.5557C7.43884 28.741 5.86035 24.923 5.86035 20.9424C5.8604 16.962 7.43908 13.1447 10.249 10.3301C13.0592 7.51536 16.8715 5.93359 20.8457 5.93359ZM15.1064 9.19531C15.0925 9.19531 15.0792 9.20109 15.0693 9.21094C15.0595 9.22078 15.0537 9.23413 15.0537 9.24805C15.0427 9.34914 15.034 9.44837 15.0283 9.5459C15.0169 9.74147 15.0158 9.93009 15.0244 10.1123C15.0587 10.8411 15.2458 11.4688 15.5303 12.0381C15.708 12.3938 15.9238 12.727 16.1641 13.0479C16.8368 13.9464 17.702 14.749 18.4609 15.6885C18.5694 15.8227 18.6751 15.9601 18.7783 16.1006C19.2318 16.7167 19.5081 17.4448 19.5859 18.1758C19.6001 18.3087 19.6075 18.4417 19.6084 18.5742C19.6093 18.7065 19.6034 18.8382 19.5908 18.9688C19.5782 19.0994 19.5587 19.2289 19.5322 19.3564C19.519 19.4204 19.5041 19.4839 19.4873 19.5469C19.4539 19.6723 19.4138 19.7956 19.3662 19.916C19.3425 19.9761 19.3164 20.0352 19.2891 20.0938C19.0699 20.5633 18.7359 20.9823 18.2773 21.3076C18.1054 21.4296 17.9153 21.5383 17.708 21.6318C17.513 21.7197 17.3125 21.7972 17.1074 21.8643C16.9021 21.9314 16.6924 21.9885 16.4795 22.0361C16.2665 22.0838 16.0502 22.1219 15.832 22.1514C15.6141 22.1808 15.3944 22.2022 15.1738 22.2148C15.0633 22.2212 14.9525 22.2252 14.8418 22.2275C14.6208 22.2323 14.3996 22.2297 14.1797 22.2197C13.6299 22.1947 13.0873 22.125 12.5713 22.0225C12.1266 21.9338 11.8397 21.8783 11.7119 21.8564C11.7039 21.8553 11.6957 21.8575 11.6885 21.8613C11.6813 21.8651 11.6754 21.8708 11.6719 21.8779C11.6683 21.8852 11.6673 21.8936 11.6689 21.9014C11.6707 21.9089 11.6746 21.9159 11.6807 21.9209C11.8784 22.0905 12.0944 22.2512 12.3281 22.4033C12.5855 22.571 12.8064 22.7591 12.9912 22.9668C13.2221 23.2264 13.397 23.5168 13.5146 23.8389C13.6088 24.0965 13.6659 24.3743 13.6875 24.6719C13.6929 24.7465 13.6964 24.8223 13.6973 24.8994C13.699 25.0533 13.6922 25.2121 13.6758 25.376C13.6742 25.3883 13.676 25.401 13.6816 25.4121C13.6873 25.4231 13.6962 25.4325 13.707 25.4385C13.7179 25.4445 13.7308 25.4474 13.7432 25.4463C13.7556 25.4451 13.7677 25.4396 13.7773 25.4316C16.0344 23.5781 18.6301 22.5911 21.5645 22.4707C21.7038 22.465 21.8437 22.4621 21.9834 22.4619C22.263 22.4616 22.5431 22.4727 22.8223 22.4951C23.6602 22.5624 24.4903 22.7328 25.2783 23.0107C25.8038 23.1961 26.3103 23.4295 26.7881 23.7119C27.1463 23.9237 27.4882 24.163 27.8096 24.4307C28.3209 24.856 28.9648 25.3917 29.6758 25.8594C29.9127 26.0152 30.1568 26.1638 30.4062 26.2979C31.4047 26.8343 32.4856 27.143 33.4951 26.8008C33.5058 26.7969 33.5151 26.7897 33.5215 26.7803C33.5279 26.7706 33.5308 26.7586 33.5303 26.7471C33.5297 26.7356 33.5257 26.7247 33.5186 26.7158C33.5113 26.7069 33.5014 26.7002 33.4902 26.6973C33.2108 26.6286 32.9445 26.5388 32.6914 26.4287C32.6281 26.4012 32.5655 26.3729 32.5039 26.3428L32.3213 26.249C31.7217 25.9222 31.2045 25.4653 30.7695 24.8799C30.2275 24.1523 29.7599 23.4296 29.2373 22.8291C29.0882 22.6578 28.9346 22.4964 28.7734 22.3477C28.6927 22.2731 28.6103 22.2016 28.5254 22.1338C28.2286 21.8967 27.9036 21.7035 27.5352 21.5674C27.272 21.4702 26.9867 21.402 26.6729 21.3691C26.0206 21.3013 25.4179 21.2901 24.8662 21.335C24.6645 21.35 24.4997 21.2543 24.3721 21.0479C24.3587 21.0257 24.3535 20.9989 24.3584 20.9736C24.3633 20.9485 24.378 20.9261 24.3984 20.9111C24.6343 20.7385 24.9214 20.6596 25.2598 20.6748C25.2655 20.6752 25.2715 20.6739 25.2764 20.6709C25.2813 20.6678 25.2859 20.6627 25.2881 20.6572C25.2901 20.652 25.2904 20.6461 25.2891 20.6406C25.2877 20.6351 25.2846 20.6297 25.2803 20.626C25.0215 20.3843 24.7997 20.1567 24.6162 19.9434C24.4642 19.7662 24.2418 19.6655 23.9492 19.6426L23.8193 19.6377C23.5277 19.6366 23.1504 19.6373 22.6885 19.6406C21.4861 19.6503 21.3568 18.9335 21.3994 17.8389C21.4568 16.3815 21.5925 14.9945 20.3672 14.0605C19.3528 13.2858 18.0676 12.9025 17.0811 12.2969C15.9538 11.6076 15.3133 10.5915 15.1592 9.24805C15.1592 9.23426 15.1532 9.22076 15.1436 9.21094C15.1386 9.20594 15.1324 9.20183 15.126 9.19922L15.1064 9.19531Z" fill="white"/>
<path d="M96.4382 25.2889H96.9692C96.9937 25.2889 97.0177 25.2963 97.038 25.3103C100.252 27.5442 104.43 28.639 108.306 27.8495C108.831 27.7428 109.776 27.2767 110.053 26.7728C110.349 26.2333 110.321 25.6933 109.968 25.1527C109.563 24.5323 108.478 24.1465 107.675 23.9906C105.834 23.6328 104.472 23.368 103.588 23.1962C102.255 22.9368 100.963 22.5008 99.7125 21.888C97.8486 20.9743 96.7829 19.5315 96.5152 17.5596C95.7925 12.2448 101.679 10.1077 105.887 9.92057C109.168 9.77394 112.381 10.227 115.525 11.2796C115.556 11.2903 115.584 11.3104 115.603 11.3372C115.623 11.364 115.633 11.3961 115.633 11.429V16.1891C115.633 16.2119 115.625 16.2339 115.61 16.2511C115.595 16.2683 115.575 16.2795 115.553 16.2826C115.219 16.3351 114.984 16.3171 114.848 16.2284C112.329 14.563 109.575 13.7811 106.587 13.8829C105.849 13.9081 105.115 14.0383 104.388 14.2735C103.239 14.6461 102.215 15.6622 103.108 16.9047C103.575 17.5547 105.366 17.924 106.176 18.057C108.202 18.3863 110.054 18.8016 111.73 19.3028C112.43 19.5118 113.201 19.8663 114.042 20.3664C115.377 21.1586 116.179 22.2934 116.448 23.7707C117.337 28.6587 112.909 31.303 108.804 31.8693C104.532 32.4602 100.39 31.9946 96.3792 30.4725C96.3663 30.4678 96.3551 30.4591 96.3472 30.4477C96.3393 30.4362 96.335 30.4225 96.335 30.4085V25.3924C96.335 25.3649 96.3458 25.3386 96.3652 25.3192C96.3846 25.2998 96.4108 25.2889 96.4382 25.2889Z" fill="white"/>
<path d="M299.051 14.6905C299.051 14.7205 299.043 14.75 299.028 14.7758C299.012 14.8015 298.99 14.8224 298.963 14.8362C298.936 14.8499 298.906 14.856 298.877 14.8538C298.847 14.8515 298.818 14.841 298.794 14.8234C298.157 14.3671 297.479 13.9869 296.76 13.6827C294.423 12.6945 292.035 12.3116 289.597 12.5337C287.602 12.7142 285.013 13.8353 285.362 16.322C285.629 18.2277 287.37 18.7858 288.995 19.0697C290.123 19.2667 291.354 19.4708 292.689 19.682C295.89 20.1875 299.987 21.1773 300 25.3218C300.006 27.2411 299.23 28.8015 297.671 30.003C295.993 31.2965 293.841 31.8693 291.58 31.9875C288.278 32.1593 285.093 31.616 282.024 30.3576C281.995 30.3453 281.97 30.3249 281.953 30.299C281.935 30.273 281.926 30.2426 281.926 30.2115V26.8187C281.926 26.7972 281.932 26.7762 281.943 26.7579C281.954 26.7396 281.971 26.7248 281.99 26.7151C282.009 26.7054 282.03 26.7012 282.052 26.703C282.073 26.7048 282.094 26.7125 282.111 26.7252C284.003 28.0821 286.128 28.9553 288.484 29.3449C290.726 29.7142 294.428 29.7125 296.078 27.7363C296.694 26.9993 296.825 26.067 296.653 25.1856C296.404 23.9053 295.405 23.3817 294.269 23.0206C293.536 22.7875 292.644 22.6009 291.595 22.4608C289.944 22.2387 288.489 21.9854 287.229 21.7009C284.561 21.0968 282.278 19.5244 282.062 16.583C281.904 14.4426 282.847 12.7766 284.646 11.6194C285.987 10.7582 287.442 10.2505 289.013 10.0962C292.414 9.76247 295.736 10.2111 298.977 11.4422C298.999 11.451 299.018 11.466 299.031 11.4853C299.044 11.5046 299.051 11.5273 299.051 11.5505V14.6905Z" fill="white"/>
<path d="M56.3655 10.2702H63.3287C63.3413 10.27 63.3538 10.2736 63.3643 10.2807C63.3748 10.2877 63.383 10.2978 63.3877 10.3096L72.0895 31.6494C72.0933 31.6589 72.0947 31.6693 72.0935 31.6795C72.0924 31.6897 72.0887 31.6994 72.0828 31.7079C72.077 31.7163 72.0692 31.7232 72.0601 31.7279C72.0509 31.7326 72.0408 31.7349 72.0305 31.7347H65.8622C65.8495 31.735 65.8371 31.7313 65.8266 31.7243C65.816 31.7172 65.8079 31.7071 65.8032 31.6953L64.0874 27.4244C64.0828 27.4126 64.0746 27.4025 64.0641 27.3955C64.0535 27.3885 64.0411 27.3848 64.0284 27.385H55.5134C55.5007 27.3848 55.4883 27.3885 55.4777 27.3955C55.4672 27.4025 55.459 27.4126 55.4544 27.4244L53.7386 31.6953C53.7339 31.7071 53.7258 31.7172 53.7152 31.7243C53.7047 31.7313 53.6922 31.735 53.6796 31.7347H47.662C47.6518 31.7349 47.6416 31.7326 47.6325 31.7279C47.6234 31.7232 47.6155 31.7163 47.6097 31.7079C47.6039 31.6994 47.6002 31.6897 47.599 31.6795C47.5979 31.6693 47.5992 31.6589 47.603 31.6494L56.3065 10.3096C56.3112 10.2978 56.3193 10.2877 56.3299 10.2807C56.3404 10.2736 56.3529 10.27 56.3655 10.2702ZM56.9227 23.3685C56.9195 23.377 56.9184 23.3861 56.9195 23.3951C56.9207 23.4041 56.9239 23.4127 56.9291 23.4201C56.9343 23.4275 56.9412 23.4336 56.9492 23.4378C56.9572 23.4419 56.9661 23.4441 56.9752 23.444H62.5666C62.5757 23.4441 62.5846 23.4419 62.5926 23.4378C62.6006 23.4336 62.6075 23.4275 62.6127 23.4201C62.6178 23.4127 62.6211 23.4041 62.6222 23.3951C62.6234 23.3861 62.6223 23.377 62.6191 23.3685L59.8233 15.9938C59.8195 15.9829 59.8123 15.9736 59.803 15.967C59.7936 15.9604 59.7824 15.9568 59.7709 15.9568C59.7594 15.9568 59.7482 15.9604 59.7388 15.967C59.7295 15.9736 59.7223 15.9829 59.7185 15.9938L56.9227 23.3685Z" fill="white"/>
<path d="M83.5432 10.2702C90.1912 10.2746 93.6572 10.2779 93.9412 10.2801C93.9543 10.2801 93.9668 10.2853 93.976 10.2945C93.9852 10.3037 93.9904 10.3163 93.9904 10.3293V14.3655C93.9904 14.3912 93.9802 14.4158 93.9621 14.434C93.9439 14.4521 93.9193 14.4623 93.8937 14.4623H86.6389C86.6254 14.4623 86.6125 14.4677 86.6029 14.4773C86.5934 14.4868 86.5881 14.4997 86.5881 14.5132V31.6412C86.5881 31.6656 86.5784 31.6889 86.5612 31.7062C86.544 31.7234 86.5206 31.7331 86.4963 31.7331C86.3335 31.7342 85.3453 31.7342 83.5317 31.7331C81.7171 31.732 80.7284 31.7309 80.5656 31.7298C80.5412 31.7298 80.5179 31.7201 80.5007 31.7029C80.4835 31.6857 80.4738 31.6623 80.4738 31.6379L80.4935 14.51C80.4935 14.5033 80.4921 14.4966 80.4896 14.4905C80.487 14.4843 80.4833 14.4787 80.4786 14.474C80.4739 14.4692 80.4683 14.4655 80.4621 14.4629C80.4559 14.4604 80.4493 14.4591 80.4427 14.4591L73.1878 14.4509C73.1625 14.4504 73.1383 14.44 73.1205 14.4219C73.1027 14.4038 73.0928 14.3794 73.0928 14.354L73.096 10.3178C73.096 10.3112 73.0974 10.3047 73.0999 10.2986C73.1025 10.2925 73.1063 10.287 73.111 10.2824C73.1158 10.2778 73.1214 10.2742 73.1275 10.2719C73.1337 10.2695 73.1403 10.2684 73.1469 10.2686C73.4309 10.2664 76.8964 10.2669 83.5432 10.2702Z" fill="white"/>
<path d="M118.157 31.7314C118.143 31.7314 118.13 31.728 118.118 31.7216C118.106 31.7153 118.096 31.7061 118.089 31.6949C118.082 31.6837 118.077 31.6709 118.076 31.6575C118.074 31.6441 118.076 31.6306 118.081 31.6182L126.767 10.3178C126.772 10.3043 126.781 10.2928 126.794 10.2846C126.806 10.2764 126.821 10.2719 126.836 10.2719H133.751C133.775 10.2719 133.798 10.2789 133.818 10.292C133.838 10.3052 133.853 10.3238 133.863 10.3457L142.55 31.651C142.553 31.6599 142.555 31.6695 142.553 31.6789C142.552 31.6884 142.549 31.6975 142.544 31.7054C142.538 31.7133 142.531 31.7198 142.523 31.7243C142.515 31.7288 142.505 31.7313 142.496 31.7314H136.326C136.298 31.7315 136.272 31.7233 136.249 31.7077C136.227 31.6922 136.209 31.6701 136.2 31.6444L134.633 27.5196C134.617 27.4785 134.589 27.4431 134.553 27.4182C134.517 27.3933 134.475 27.38 134.431 27.3801L125.982 27.3817C125.954 27.3817 125.927 27.3903 125.904 27.4064C125.881 27.4225 125.863 27.4454 125.852 27.472L124.281 31.6067C124.267 31.6433 124.243 31.6749 124.211 31.6972C124.179 31.7195 124.141 31.7315 124.102 31.7314H118.157ZM127.383 23.3735C127.38 23.3814 127.379 23.3899 127.38 23.3983C127.381 23.4067 127.384 23.4146 127.389 23.4216C127.394 23.4285 127.4 23.4342 127.408 23.4381C127.415 23.442 127.424 23.444 127.432 23.444H133.033C133.042 23.444 133.05 23.442 133.058 23.4381C133.065 23.4342 133.072 23.4285 133.076 23.4216C133.081 23.4146 133.084 23.4067 133.085 23.3983C133.087 23.3899 133.086 23.3814 133.083 23.3735L130.282 15.9888C130.278 15.9788 130.272 15.9701 130.263 15.964C130.254 15.9579 130.244 15.9546 130.233 15.9546C130.222 15.9546 130.212 15.9579 130.203 15.964C130.194 15.9701 130.187 15.9788 130.184 15.9888L127.383 23.3735Z" fill="white"/>
<path d="M154.859 10.3539H158.964C158.975 10.3541 158.985 10.3575 158.994 10.3637C159.002 10.3698 159.009 10.3784 159.013 10.3884L167.513 31.5361C167.517 31.5443 167.518 31.5532 167.517 31.562C167.516 31.5708 167.513 31.5792 167.508 31.5865C167.503 31.5938 167.496 31.5997 167.488 31.6038C167.48 31.6079 167.471 31.61 167.463 31.6099H164.242C164.232 31.6097 164.221 31.6063 164.213 31.6002C164.204 31.594 164.197 31.5854 164.193 31.5755L161.845 25.7354C161.841 25.7254 161.834 25.7168 161.826 25.7107C161.817 25.7046 161.806 25.7012 161.796 25.7009H151.87C151.859 25.7012 151.849 25.7046 151.84 25.7107C151.831 25.7168 151.824 25.7254 151.821 25.7354L149.472 31.5755C149.468 31.5854 149.462 31.594 149.453 31.6002C149.444 31.6063 149.434 31.6097 149.423 31.6099H146.36C146.351 31.61 146.343 31.6079 146.335 31.6038C146.327 31.5997 146.32 31.5938 146.315 31.5865C146.31 31.5792 146.307 31.5708 146.306 31.562C146.305 31.5532 146.306 31.5443 146.309 31.5361L154.81 10.3884C154.814 10.3784 154.82 10.3698 154.829 10.3637C154.838 10.3575 154.848 10.3541 154.859 10.3539ZM152.786 23.1666C152.783 23.1745 152.782 23.1831 152.783 23.1914C152.784 23.1998 152.787 23.2078 152.792 23.2147C152.797 23.2216 152.803 23.2273 152.811 23.2312C152.818 23.2351 152.827 23.2372 152.835 23.2372H160.822C160.831 23.2372 160.839 23.2351 160.847 23.2312C160.854 23.2273 160.86 23.2216 160.865 23.2147C160.87 23.2078 160.873 23.1998 160.874 23.1914C160.875 23.1831 160.874 23.1745 160.871 23.1666L156.878 13.054C156.874 13.0439 156.867 13.0353 156.859 13.0291C156.85 13.023 156.839 13.0197 156.829 13.0197C156.818 13.0197 156.807 13.023 156.799 13.0291C156.79 13.0353 156.783 13.0439 156.779 13.054L152.786 23.1666Z" fill="white"/>
<path d="M174.688 10.3588C177.597 10.3588 179.112 10.3632 179.232 10.372C179.259 10.3728 179.285 10.3843 179.304 10.4039C179.323 10.4235 179.334 10.4497 179.334 10.477L179.335 12.4401C179.335 12.4552 179.333 12.4701 179.327 12.4841C179.321 12.498 179.313 12.5107 179.302 12.5214C179.291 12.532 179.279 12.5405 179.265 12.5463C179.251 12.552 179.236 12.555 179.221 12.555L176.386 12.5567C176.371 12.5564 176.357 12.5591 176.343 12.5646C176.33 12.57 176.318 12.5781 176.308 12.5884C176.297 12.5986 176.289 12.6108 176.284 12.6243C176.278 12.6377 176.276 12.6521 176.276 12.6666C176.269 12.8111 176.267 15.5856 176.268 20.9901C176.268 26.3947 176.27 29.1687 176.276 29.312C176.275 29.3266 176.278 29.3412 176.283 29.3549C176.289 29.3685 176.297 29.3809 176.307 29.3913C176.317 29.4018 176.329 29.41 176.343 29.4156C176.357 29.4211 176.371 29.4239 176.386 29.4236L179.221 29.4253C179.236 29.4253 179.251 29.4282 179.265 29.434C179.279 29.4398 179.291 29.4482 179.302 29.4589C179.313 29.4696 179.321 29.4823 179.327 29.4962C179.333 29.5101 179.335 29.5251 179.335 29.5402L179.334 31.5033C179.334 31.5306 179.323 31.5568 179.304 31.5764C179.285 31.596 179.259 31.6075 179.232 31.6083C179.112 31.616 177.597 31.6198 174.688 31.6198C171.78 31.6198 170.265 31.616 170.145 31.6083C170.118 31.6075 170.092 31.596 170.073 31.5764C170.054 31.5568 170.044 31.5306 170.044 31.5033L170.042 29.5402C170.042 29.5251 170.045 29.5101 170.051 29.4962C170.056 29.4823 170.065 29.4696 170.076 29.4589C170.086 29.4482 170.099 29.4398 170.113 29.434C170.127 29.4282 170.142 29.4253 170.157 29.4253L172.992 29.4236C173.006 29.4236 173.021 29.4207 173.034 29.4151C173.047 29.4094 173.059 29.4012 173.069 29.3907C173.08 29.3803 173.087 29.368 173.093 29.3545C173.098 29.341 173.1 29.3265 173.1 29.312C173.107 29.1687 173.11 26.3947 173.11 20.9901C173.11 15.5856 173.107 12.8111 173.1 12.6666C173.1 12.6523 173.098 12.638 173.092 12.6247C173.087 12.6113 173.079 12.5992 173.069 12.589C173.059 12.5787 173.047 12.5706 173.034 12.5651C173.02 12.5595 173.006 12.5567 172.992 12.5567L170.157 12.555C170.142 12.555 170.127 12.552 170.113 12.5463C170.099 12.5405 170.086 12.532 170.076 12.5214C170.065 12.5107 170.056 12.498 170.051 12.4841C170.045 12.4701 170.042 12.4552 170.042 12.4401L170.044 10.477C170.044 10.4497 170.054 10.4235 170.073 10.4039C170.092 10.3843 170.118 10.3728 170.145 10.372C170.264 10.3643 171.779 10.3599 174.688 10.3588Z" fill="white"/>
<path d="M203.991 31.5525C203.995 31.5574 203.998 31.5635 203.999 31.5699C204 31.5764 203.999 31.5831 203.997 31.5891C203.994 31.5951 203.99 31.6003 203.984 31.604C203.979 31.6077 203.973 31.6098 203.966 31.61H200.027C199.992 31.61 199.959 31.603 199.927 31.5895C199.896 31.5759 199.868 31.5561 199.845 31.5312L192.169 23.2635C192.149 23.2428 192.126 23.2262 192.101 23.2149C192.075 23.2036 192.047 23.1978 192.019 23.1978H187.826C187.802 23.1978 187.779 23.2073 187.762 23.2243C187.745 23.2412 187.736 23.2642 187.736 23.2881V31.5115C187.736 31.5376 187.726 31.5627 187.707 31.5811C187.689 31.5996 187.665 31.61 187.639 31.61H184.724C184.697 31.61 184.671 31.5994 184.652 31.5807C184.633 31.5619 184.622 31.5364 184.622 31.5099V10.4081C184.622 10.3942 184.628 10.3808 184.637 10.3709C184.647 10.3611 184.661 10.3556 184.675 10.3556C187.83 10.3523 189.889 10.3528 190.853 10.3572C192.251 10.3638 193.48 10.4415 194.54 10.5903C196.549 10.8726 198.612 11.9313 199.528 13.8041C199.792 14.3414 199.943 14.9936 199.982 15.7607C200.131 18.6178 198.856 20.6783 196.159 21.9422C195.888 22.0691 195.616 22.201 195.343 22.3377C195.335 22.3421 195.327 22.3482 195.322 22.3558C195.316 22.3633 195.313 22.3721 195.311 22.3813C195.31 22.3905 195.31 22.4 195.313 22.4089C195.315 22.4179 195.32 22.4261 195.327 22.4329L203.991 31.5525ZM187.841 20.8063C189.435 20.8413 190.82 20.8255 191.997 20.7587C193.45 20.6783 194.727 20.3664 195.728 19.2864C196.611 18.3311 196.87 16.7931 196.613 15.5506C196.248 13.7779 194.507 13.0048 192.854 12.9014C191.439 12.8138 189.765 12.7892 187.831 12.8275C187.805 12.8279 187.781 12.8383 187.763 12.8564C187.746 12.8746 187.736 12.8989 187.736 12.9243V20.7013C187.736 20.7289 187.747 20.7553 187.766 20.775C187.786 20.7946 187.813 20.8059 187.841 20.8063Z" fill="white"/>
<path d="M206.993 31.5443V10.4195C206.993 10.4021 207 10.3854 207.012 10.3731C207.025 10.3608 207.041 10.3539 207.059 10.3539H210.082C210.1 10.3539 210.116 10.3608 210.129 10.3731C210.141 10.3854 210.148 10.4021 210.148 10.4195V29.0001C210.148 29.0175 210.155 29.0342 210.167 29.0465C210.179 29.0589 210.196 29.0658 210.213 29.0658H221.799C221.817 29.0658 221.834 29.0727 221.846 29.085C221.858 29.0973 221.865 29.114 221.865 29.1314V31.5443C221.865 31.5617 221.858 31.5784 221.846 31.5907C221.834 31.603 221.817 31.6099 221.799 31.6099H207.059C207.041 31.6099 207.025 31.603 207.012 31.5907C207 31.5784 206.993 31.5617 206.993 31.5443Z" fill="white"/>
<path d="M230.144 20.9901C230.141 26.3925 230.142 29.1659 230.149 29.3104C230.148 29.3249 230.151 29.3393 230.156 29.3528C230.161 29.3664 230.169 29.3787 230.179 29.3891C230.19 29.3995 230.202 29.4078 230.215 29.4134C230.228 29.4191 230.243 29.422 230.257 29.422L233.092 29.4253C233.107 29.4253 233.122 29.4282 233.136 29.434C233.15 29.4398 233.163 29.4482 233.173 29.4589C233.184 29.4696 233.192 29.4823 233.198 29.4962C233.204 29.5101 233.207 29.5251 233.207 29.5402L233.204 31.5016C233.204 31.5289 233.193 31.5552 233.174 31.5748C233.155 31.5944 233.129 31.6058 233.102 31.6067C232.982 31.6143 231.468 31.6176 228.559 31.6165C225.651 31.6143 224.137 31.6094 224.018 31.6018C223.991 31.6009 223.965 31.5895 223.946 31.5698C223.927 31.5502 223.917 31.524 223.917 31.4967L223.915 29.5336C223.915 29.5031 223.927 29.4739 223.949 29.4523C223.97 29.4308 223.999 29.4187 224.03 29.4187H226.865C226.879 29.4187 226.893 29.4158 226.907 29.4103C226.92 29.4047 226.932 29.3966 226.942 29.3864C226.952 29.3762 226.96 29.364 226.965 29.3507C226.971 29.3374 226.973 29.3231 226.973 29.3087C226.98 29.1643 226.984 26.3909 226.988 20.9885C226.991 15.585 226.989 12.8116 226.983 12.6683C226.983 12.6538 226.981 12.6393 226.976 12.6258C226.97 12.6123 226.962 12.5999 226.952 12.5895C226.942 12.5791 226.93 12.5708 226.917 12.5652C226.903 12.5596 226.889 12.5566 226.875 12.5567L224.04 12.5534C224.009 12.5534 223.98 12.5413 223.958 12.5197C223.937 12.4982 223.925 12.4689 223.925 12.4385L223.928 10.4754C223.929 10.4483 223.939 10.4225 223.958 10.4033C223.977 10.384 224.003 10.3728 224.03 10.372C224.149 10.3632 225.663 10.3599 228.571 10.3621C231.479 10.3632 232.993 10.3681 233.113 10.3769C233.141 10.3777 233.167 10.3892 233.186 10.4088C233.204 10.4284 233.215 10.4546 233.215 10.4819V12.4434C233.215 12.4585 233.212 12.4734 233.206 12.4874C233.201 12.5013 233.192 12.514 233.181 12.5246C233.171 12.5353 233.158 12.5438 233.144 12.5495C233.13 12.5553 233.115 12.5583 233.1 12.5583H230.267C230.252 12.5581 230.238 12.5608 230.224 12.5664C230.211 12.5719 230.198 12.5801 230.188 12.5906C230.178 12.601 230.17 12.6134 230.165 12.6271C230.159 12.6407 230.157 12.6553 230.157 12.6699C230.152 12.8133 230.147 15.5867 230.144 20.9901Z" fill="white"/>
<path d="M253.45 27.4966V10.4442C253.45 10.4202 253.46 10.3973 253.477 10.3803C253.494 10.3634 253.516 10.3539 253.54 10.3539H256.303C256.329 10.3539 256.354 10.3643 256.372 10.3827C256.39 10.4012 256.4 10.4262 256.4 10.4524V31.5131C256.4 31.5388 256.39 31.5634 256.372 31.5816C256.354 31.5997 256.329 31.6099 256.303 31.6099H252.58C252.552 31.6099 252.524 31.6025 252.499 31.5884C252.474 31.5743 252.454 31.554 252.439 31.5295L241.53 12.88C241.525 12.8718 241.517 12.8654 241.508 12.8619C241.499 12.8584 241.489 12.8579 241.48 12.8605C241.471 12.8631 241.463 12.8687 241.457 12.8763C241.451 12.884 241.448 12.8933 241.448 12.903V31.5147C241.448 31.54 241.438 31.5642 241.42 31.5821C241.401 31.5999 241.377 31.6099 241.351 31.6099H238.554C238.539 31.6099 238.525 31.6041 238.514 31.5936C238.504 31.5831 238.498 31.5689 238.498 31.5541V10.454C238.498 10.4275 238.509 10.402 238.527 10.3832C238.546 10.3644 238.571 10.3539 238.598 10.3539H243.26C243.284 10.3539 243.308 10.3601 243.328 10.3719C243.349 10.3837 243.366 10.4007 243.378 10.4212L253.378 27.5163C253.383 27.5232 253.389 27.5285 253.397 27.5315C253.405 27.5344 253.413 27.5348 253.421 27.5326C253.429 27.5304 253.436 27.5258 253.442 27.5193C253.447 27.5128 253.45 27.5049 253.45 27.4966Z" fill="white"/>
<path d="M277.974 21.2281H265.802C265.786 21.2281 265.771 21.2345 265.76 21.2459C265.748 21.2573 265.742 21.2727 265.742 21.2888V29.005C265.742 29.0212 265.748 29.0366 265.76 29.048C265.771 29.0594 265.786 29.0658 265.802 29.0658H277.972C277.98 29.0658 277.988 29.0673 277.995 29.0704C278.003 29.0735 278.009 29.0779 278.015 29.0836C278.021 29.0892 278.025 29.0959 278.028 29.1033C278.031 29.1106 278.033 29.1185 278.033 29.1265V31.5492C278.033 31.5653 278.026 31.5808 278.015 31.5922C278.004 31.6035 277.988 31.6099 277.972 31.6099H262.65C262.633 31.6099 262.618 31.6035 262.607 31.5922C262.595 31.5808 262.589 31.5653 262.589 31.5492V10.4146C262.589 10.3985 262.595 10.3831 262.607 10.3717C262.618 10.3603 262.633 10.3539 262.65 10.3539H277.972C277.988 10.3539 278.004 10.3603 278.015 10.3717C278.026 10.3831 278.033 10.3985 278.033 10.4146V12.8783C278.033 12.8945 278.026 12.9099 278.015 12.9213C278.004 12.9327 277.988 12.9391 277.972 12.9391H265.804C265.788 12.9391 265.773 12.9455 265.761 12.9569C265.75 12.9683 265.744 12.9837 265.744 12.9998V18.6232C265.744 18.6393 265.75 18.6548 265.761 18.6662C265.773 18.6776 265.788 18.684 265.804 18.684H277.974C277.99 18.684 278.005 18.6904 278.017 18.7017C278.028 18.7131 278.034 18.7286 278.034 18.7447V21.1674C278.034 21.1754 278.033 21.1833 278.03 21.1906C278.027 21.198 278.022 21.2047 278.017 21.2103C278.011 21.216 278.004 21.2204 277.997 21.2235C277.99 21.2265 277.982 21.2281 277.974 21.2281Z" fill="white"/>
</svg>
