<svg width="242" height="38" viewBox="0 0 242 38" fill="none" xmlns="http://www.w3.org/2000/svg">
<path d="M0 36.9606C0.53 36.6896 0.767 36.0466 0.767 35.4966V22.0036C0.767 21.4326 0.53 20.8086 0 20.5216H6.431C9.299 20.5216 12.097 21.6956 12.097 24.9516C12.097 26.6786 10.592 28.0406 8.969 28.3466C11.307 28.3256 13.566 29.7536 13.566 32.3336C13.566 36.0206 9.699 36.9616 6.979 36.9616L0 36.9606ZM5.206 21.9376C4.908 21.9376 4.701 21.9376 4.152 22.0036V27.7576H4.803C6.774 27.7576 8.679 27.1486 8.679 24.8646C8.679 22.5986 7.156 21.9376 5.206 21.9376ZM5.616 29.2386C5.146 29.2386 4.724 29.2386 4.152 29.2816V35.3576C4.865 35.4976 5.636 35.5436 6.347 35.5436C7.997 35.5436 9.675 34.8076 9.675 32.2866C9.675 29.7986 7.691 29.2386 5.616 29.2386ZM19.926 21.9376C19.632 21.9376 19.373 21.9856 19.083 22.0266V27.7116C19.352 27.7306 19.596 27.7586 19.862 27.7586C21.712 27.7586 23.081 26.7376 23.081 24.7256C23.081 22.6696 21.735 21.9376 19.926 21.9376ZM28.215 37.0576C27.585 37.0576 26.89 37.0806 26.288 36.9026C25.169 36.5726 23.624 34.0506 23.01 33.0616C22.055 31.4536 21.225 29.2386 19.084 29.2146V35.4966C19.084 36.0466 19.333 36.7126 19.863 36.9606H14.926C15.445 36.6896 15.692 36.0716 15.692 35.4966V22.0036C15.692 21.4326 15.444 20.8086 14.926 20.5216H20.87C23.456 20.5216 26.692 21.5146 26.692 24.6216C26.692 27.2286 24.535 28.5646 22.13 28.5646C25.552 28.5846 27.562 36.6116 31.34 36.6346C30.327 36.9346 29.271 37.0576 28.215 37.0576ZM31.588 36.9606C31.996 36.7736 32.423 36.2346 32.423 35.4966V22.0036C32.423 21.2546 31.996 20.7246 31.588 20.5216H36.647C36.213 20.7246 35.817 21.2546 35.817 22.0036V35.4966C35.817 36.2346 36.213 36.7736 36.647 36.9606H31.588ZM42.566 36.9606C43.108 36.7126 43.373 36.0716 43.373 35.4966V22.4066H39.74C38.902 22.4066 37.903 22.5096 37.183 22.9366L38.312 20.5206H50.362C51.338 20.5206 52.336 20.4996 53.284 20.2976C52.825 21.5346 51.459 22.4516 50.672 22.4516C49.715 22.4296 48.132 22.3656 46.768 22.3656V35.4956C46.768 36.0706 47.053 36.7116 47.585 36.9596L42.566 36.9606ZM53.886 36.9606C54.29 36.7736 54.714 36.2346 54.714 35.4966V22.0036C54.714 21.2546 54.29 20.7246 53.886 20.5216H58.945C58.515 20.7246 58.103 21.2546 58.103 22.0036V35.4966C58.103 36.2346 58.515 36.7736 58.945 36.9606H53.886ZM68.795 33.2416C68.795 30.1106 61.42 29.4036 61.42 24.4056C61.42 21.3116 64.363 20.2986 66.951 20.2986C68.106 20.2986 69.777 20.4586 70.833 20.9446L71.017 24.0176C70.368 22.6606 68.743 21.6776 67.234 21.6776C66.041 21.6776 64.791 22.2676 64.791 23.6316C64.791 26.8786 72.291 27.6716 72.291 32.4056C72.291 35.8416 69.289 37.2646 66.259 37.2646C64.674 37.2646 62.518 36.9596 61.181 36.0456C61.1 35.4956 61.063 34.9206 61.063 34.3576C61.063 33.6866 61.122 33.0136 61.221 32.3516C62.055 34.2526 63.781 35.7396 65.937 35.7396C67.575 35.7406 68.795 35.0266 68.795 33.2416ZM84.595 36.9606C84.952 36.7996 85.334 36.2346 85.334 35.4966V29.3796C84.454 29.2806 83.225 29.2376 81.846 29.2376C80.446 29.2376 79.207 29.2806 78.305 29.3796V35.4966C78.305 36.2346 78.677 36.7736 79.039 36.9606H74.168C74.529 36.7996 74.914 36.2346 74.914 35.4966V22.0036C74.914 21.2546 74.529 20.7026 74.168 20.5216H79.039C78.677 20.7036 78.305 21.2546 78.305 22.0036V27.5306C79.207 27.6256 80.424 27.6716 81.846 27.6716C83.225 27.6716 84.454 27.6116 85.334 27.5306V22.0036C85.334 21.2546 84.953 20.7026 84.595 20.5216H89.459C89.095 20.7036 88.734 21.2546 88.734 22.0036V35.4966C88.734 36.2346 89.095 36.7736 89.459 36.9606H84.595Z" fill="white"/>
<path d="M107.514 36.9606C107.671 36.7996 107.813 36.6796 107.813 36.3886C107.813 36.2906 107.776 36.1266 107.656 35.8206C107.656 35.8206 106.306 32.1466 106.148 31.7186C105.134 31.5936 104.077 31.5936 103.042 31.5936C102.06 31.5936 101.063 31.6166 100.09 31.7186C99.9523 32.0866 98.5053 35.7406 98.5053 35.7406C98.3103 36.2346 98.2433 36.4036 98.2433 36.5116C98.2433 36.7556 98.4533 36.8746 98.6313 36.9606H95.3223C95.8103 36.7126 96.2333 36.2026 96.4423 35.6946L101.88 21.6586C101.905 21.6006 101.914 21.5356 101.914 21.4566C101.914 21.0696 101.657 20.7026 101.311 20.5206H105.577L111.108 35.6806C111.334 36.2896 111.816 36.7336 112.221 36.9596L107.514 36.9606ZM103.219 23.6506L100.726 30.0506C101.469 30.1326 102.24 30.1516 102.992 30.1516C103.854 30.1516 104.706 30.1516 105.544 30.0506L103.219 23.6506ZM113.063 36.9606C113.471 36.7736 113.893 36.2346 113.893 35.4966V22.0036C113.893 21.2546 113.471 20.7246 113.063 20.5216H118.119C117.689 20.7246 117.288 21.2546 117.288 22.0036V35.4966C117.288 36.2346 117.688 36.7736 118.119 36.9606H113.063ZM125.805 21.9376C125.532 21.9376 125.27 21.9856 124.986 22.0266V27.7116C125.25 27.7306 125.491 27.7586 125.748 27.7586C127.602 27.7586 128.968 26.7376 128.968 24.7256C128.967 22.6696 127.616 21.9376 125.805 21.9376ZM134.507 37.0576C133.877 37.0576 133.197 37.0806 132.581 36.9026C131.46 36.5726 129.919 34.0506 129.304 33.0616C128.353 31.4536 127.115 29.2146 124.986 29.2146V35.4966C124.986 36.0466 125.224 36.7126 125.748 36.9606H120.815C121.345 36.6896 121.592 36.0716 121.592 35.4966V22.0036C121.592 21.4326 121.345 20.8086 120.815 20.5216H126.772C129.351 20.5216 132.582 21.5146 132.582 24.6216C132.582 27.2286 130.225 28.5646 128.441 28.5646C131.988 28.7686 134.127 36.6346 137.646 36.6346C136.626 36.9346 135.57 37.0576 134.507 37.0576ZM155.017 22.1266L150.021 36.9606C149.609 36.9606 149.205 36.8186 148.976 36.6576C148.482 36.1816 147.705 34.1946 147.425 33.4616L145.167 27.7576L141.915 36.9606H140.367L134.776 22.0896C134.536 21.4566 134.126 20.8496 133.516 20.5216H138.375C138.17 20.6806 138.029 20.8616 138.029 21.2076C138.029 21.3736 138.111 21.6026 138.17 21.7796L141.811 31.6176L145.688 20.5216L149.958 31.2186L153.192 21.5356C153.272 21.2726 153.319 21.1756 153.319 21.0096C153.319 20.8086 153.232 20.6806 153.029 20.5216H156.247C155.652 20.8336 155.222 21.5146 155.017 22.1266ZM160.989 23.6506L158.497 30.0506C159.249 30.1326 160.018 30.1516 160.768 30.1516C161.621 30.1516 162.483 30.1516 163.316 30.0506L160.989 23.6506ZM165.279 36.9606C165.449 36.7996 165.578 36.6796 165.578 36.3886C165.578 36.2906 165.528 36.1266 165.429 35.8206C165.429 35.8206 164.088 32.1466 163.925 31.7186C162.902 31.5936 161.847 31.5936 160.812 31.5936C159.839 31.5936 158.841 31.6166 157.863 31.7186C157.722 32.0866 156.285 35.7406 156.285 35.7406C156.078 36.2346 156.021 36.4036 156.021 36.5116C156.021 36.7556 156.222 36.8746 156.398 36.9606H153.088C153.577 36.7126 153.999 36.2026 154.204 35.6946L159.661 21.6586C159.677 21.6006 159.692 21.5356 159.692 21.4566C159.692 21.0696 159.434 20.7026 159.079 20.5206H163.349L168.878 35.6806C169.107 36.2896 169.595 36.7336 169.997 36.9596L165.279 36.9606ZM180.134 22.2476L176.24 29.0756V35.4966C176.24 36.0186 176.454 36.7126 176.974 36.9606H172.129C172.624 36.6896 172.852 36.0016 172.852 35.4966V29.0546L169.467 23.6316C169.164 23.1246 167.752 20.7616 166.031 20.7616C166.499 20.5836 167.922 20.3126 168.877 20.3126C170.47 20.3126 171.259 20.4586 172.234 21.9856L175.366 26.9496C175.629 26.4626 178.109 22.1506 178.109 22.1506C178.408 21.6256 178.613 21.2546 178.613 21.0706C178.613 20.8346 178.511 20.6806 178.271 20.5216H181.761C181.077 20.8496 180.507 21.6016 180.134 22.2476ZM189.249 33.2416C189.249 30.1106 181.873 29.4036 181.873 24.4056C181.873 21.3116 184.808 20.2986 187.397 20.2986C188.556 20.2986 190.217 20.4586 191.278 20.9446L191.462 24.0176C190.806 22.6606 189.188 21.6776 187.678 21.6776C186.483 21.6776 185.241 22.2676 185.241 23.6316C185.241 26.8786 192.741 27.6716 192.741 32.4056C192.741 35.8416 189.76 37.2646 186.708 37.2646C185.124 37.2646 182.963 36.9596 181.624 36.0456C181.537 35.4956 181.495 34.9206 181.495 34.3576C181.495 33.6866 181.559 33.0136 181.661 32.3516C182.494 34.2526 184.226 35.7396 186.382 35.7396C188.027 35.7406 189.249 35.0266 189.249 33.2416Z" fill="white"/>
<path d="M234.626 9.01458C231.862 11.7616 225.874 14.1196 222.928 15.2236C218.903 16.7356 217.117 17.2706 214.865 18.0036C212.316 18.8306 207.217 20.3736 207.217 20.3736C217.78 23.5276 225.224 24.4786 225.224 24.4786C225.224 24.4786 228.692 23.4066 234.186 20.4686C237.161 18.9566 238.625 17.9386 239.672 16.9656C240.058 16.6166 241.055 15.5786 241.303 14.2506C241.319 14.1536 241.367 13.8996 241.367 13.6496C241.367 13.6496 241.367 13.4736 241.351 13.3206C241.345 13.1446 241.314 13.0266 241.314 13.0266C241.314 13.0266 241.255 12.7116 241.177 12.4906C241.096 12.2696 240.756 11.5876 240.205 11.1446C239.837 10.8456 239.201 10.1006 236.897 9.29058C236.114 9.01858 234.846 8.76758 234.846 8.76758L234.626 9.01458Z" fill="#E6EBEF"/>
<path d="M241.366 13.5796C241.366 13.5796 241.35 13.2856 241.278 13.0366C241.222 12.8146 241.123 12.6026 240.974 12.3796C240.794 12.1146 240.551 11.8036 240.192 11.4596C239.921 11.2036 239.624 10.9776 239.266 10.7376C237.825 9.79361 235.965 9.26161 234.319 9.03661C231.768 8.69761 228.842 8.75761 228.565 8.74761C227.624 8.73461 221.544 8.78461 219.981 8.81261C213.04 8.95561 204.543 8.97461 202.317 8.97461C179.338 9.07961 169.336 8.58461 158.204 6.35261C148.734 4.47161 143.48 2.68461 143.48 2.68461C151.833 2.39561 200.571 0.373611 209.462 0.137611C215.283 -0.0263894 219.416 -0.0613894 222.723 0.129611C224.419 0.224611 225.997 0.368611 227.979 0.705611C229.756 1.00961 231.37 1.52561 232.31 1.87461C234.29 2.60761 235.959 3.66761 236.784 4.75361C236.784 4.75361 237.028 5.00361 237.359 5.44761C237.73 5.96361 238.161 6.59861 238.307 6.83561C239.512 8.66161 240.084 9.80861 240.283 10.2086C240.498 10.6286 240.688 11.0646 240.873 11.4916C241.054 11.9156 241.128 12.1726 241.186 12.3516C241.313 12.8006 241.344 13.2096 241.35 13.3016L241.366 13.5796Z" fill="white"/>
</svg>
