<svg width="300" height="57" viewBox="0 0 300 57" fill="none" xmlns="http://www.w3.org/2000/svg">
<path d="M244.827 7.43604C244.907 7.44179 244.953 7.45619 244.965 7.47922C250.056 19.3226 255.159 31.2926 260.273 43.3892C260.298 43.4448 260.308 43.5058 260.303 43.5664C260.298 43.627 260.278 43.6853 260.244 43.7361C260.211 43.7868 260.166 43.8283 260.112 43.8568C260.059 43.8852 259.999 43.8996 259.939 43.8988H256.75C256.593 43.8992 256.439 43.8527 256.308 43.7651C256.177 43.6775 256.074 43.5527 256.013 43.4065L252.353 34.4765C252.294 34.3272 252.195 34.1974 252.068 34.1014C251.941 34.0054 251.791 33.9469 251.633 33.9324C251.576 33.9266 249.27 33.9151 244.716 33.8979C240.167 33.8806 237.862 33.8719 237.799 33.8719C237.642 33.8857 237.492 33.9429 237.365 34.0373C237.238 34.1318 237.139 34.2598 237.079 34.4074L233.342 43.3115C233.279 43.4561 233.176 43.579 233.045 43.665C232.914 43.751 232.761 43.7963 232.605 43.7951L229.416 43.7692C229.354 43.7708 229.294 43.7564 229.239 43.7276C229.185 43.6987 229.139 43.6563 229.105 43.6043C229.072 43.5523 229.052 43.4926 229.048 43.4307C229.044 43.3689 229.055 43.307 229.082 43.251C234.299 31.2004 239.505 19.2765 244.699 7.47922C244.71 7.45043 244.753 7.43604 244.827 7.43604ZM238.982 29.8042C238.964 29.8497 238.957 29.899 238.962 29.9478C238.967 29.9966 238.984 30.0434 239.011 30.0842C239.038 30.125 239.074 30.1586 239.117 30.182C239.16 30.2055 239.207 30.2181 239.256 30.2188L250.142 30.236C250.19 30.2353 250.238 30.2227 250.281 30.1993C250.324 30.1758 250.36 30.1423 250.387 30.1015C250.414 30.0607 250.431 30.0138 250.436 29.9651C250.441 29.9163 250.434 29.867 250.416 29.8215L244.999 16.841C244.975 16.7875 244.937 16.742 244.888 16.7101C244.839 16.6782 244.783 16.6612 244.725 16.6612C244.666 16.6612 244.61 16.6782 244.561 16.7101C244.512 16.742 244.474 16.7875 244.45 16.841L238.982 29.8042Z" fill="white"/>
<path d="M212.163 13.2135C212.189 13.2612 212.197 13.3172 212.184 13.3712C212.172 13.4253 212.14 13.4736 212.095 13.5072L209.403 15.4417C209.376 15.4615 209.345 15.4751 209.312 15.4815C209.279 15.4878 209.245 15.4869 209.212 15.4787C209.179 15.4704 209.149 15.4552 209.123 15.4339C209.096 15.4126 209.075 15.3858 209.06 15.3553C207.775 12.7817 205.752 11.5553 202.992 11.6763C197.429 11.9094 194.875 18.3522 200.198 21.3835C200.529 21.5678 202.855 22.6502 207.175 24.6308C212.946 27.2793 214.838 31.6752 212.849 37.8185C211.58 41.7394 207.569 44.0972 203.42 44.4167C197.718 44.8485 193.889 42.1367 191.935 36.2813C191.878 36.1103 191.888 35.9241 191.963 35.7604C192.038 35.5967 192.172 35.468 192.338 35.4003L194.729 34.4072C194.818 34.371 194.914 34.3549 195.01 34.3599C195.106 34.3649 195.199 34.3909 195.284 34.4361C195.369 34.4814 195.443 34.5447 195.501 34.6217C195.559 34.6988 195.6 34.7876 195.62 34.8822C197.258 42.7672 208.092 42.8794 209.463 35.1499C210.023 32.0063 208.746 29.6831 205.632 28.1803C200.043 25.4858 191.952 23.154 193.735 15.1135C194.815 10.2685 198.903 7.86762 203.592 7.99716C207.352 8.1008 210.209 9.83959 212.163 13.2135Z" fill="white"/>
<path d="M144.427 8.63618C147.719 8.63042 150.993 8.6333 154.25 8.64482C154.375 8.64482 154.495 8.69486 154.583 8.78394C154.672 8.87302 154.721 8.99384 154.721 9.11982V11.8489C154.721 11.9703 154.674 12.0867 154.591 12.1726C154.507 12.2584 154.394 12.3066 154.276 12.3066H146.844C146.78 12.3066 146.717 12.3194 146.657 12.3441C146.598 12.3688 146.544 12.4051 146.499 12.4508C146.453 12.4965 146.417 12.5508 146.393 12.6105C146.368 12.6702 146.356 12.7343 146.356 12.7989V43.2939C146.356 43.4344 146.301 43.5693 146.203 43.6695C146.105 43.7697 145.972 43.8271 145.833 43.8294C145.644 43.8351 145.179 43.838 144.436 43.838C143.687 43.838 143.219 43.8351 143.03 43.8294C142.89 43.8271 142.758 43.7697 142.66 43.6695C142.562 43.5693 142.507 43.4344 142.507 43.2939L142.499 12.7989C142.499 12.7343 142.486 12.6702 142.461 12.6105C142.437 12.5508 142.401 12.4965 142.355 12.4508C142.31 12.4051 142.256 12.3688 142.197 12.3441C142.138 12.3194 142.074 12.3066 142.01 12.3066H134.579C134.46 12.3066 134.347 12.2584 134.263 12.1726C134.18 12.0867 134.133 11.9703 134.133 11.8489V9.11982C134.133 8.99384 134.182 8.87302 134.271 8.78394C134.359 8.69486 134.479 8.64482 134.604 8.64482C137.867 8.63906 141.141 8.63618 144.427 8.63618Z" fill="white"/>
<path d="M172.178 40.8241C177.261 40.8241 180.655 37.1364 180.655 31.9459C180.655 31.4681 180.646 23.7961 180.629 8.93002C180.629 8.89259 180.636 8.85553 180.651 8.82095C180.665 8.78638 180.686 8.75496 180.712 8.72849C180.738 8.70203 180.769 8.68104 180.804 8.66671C180.838 8.65239 180.875 8.64502 180.912 8.64502H184.212C184.285 8.64502 184.354 8.67414 184.406 8.72596C184.457 8.77779 184.486 8.84809 184.486 8.92138C184.532 16.6711 184.518 24.5503 184.443 32.5591C184.375 39.9087 179.198 44.4946 172.178 44.4946C165.166 44.4946 159.989 39.9087 159.921 32.5591C159.846 24.5503 159.832 16.6711 159.878 8.92138C159.878 8.84809 159.907 8.77779 159.958 8.72596C160.009 8.67414 160.079 8.64502 160.152 8.64502H163.452C163.527 8.64502 163.599 8.67505 163.652 8.72849C163.705 8.78194 163.735 8.85443 163.735 8.93002C163.718 23.7961 163.709 31.4681 163.709 31.9459C163.709 37.1364 167.103 40.8241 172.178 40.8241Z" fill="white"/>
<path d="M268.82 8.63623H265.615C265.435 8.63623 265.289 8.78316 265.289 8.96441V43.5099C265.289 43.6911 265.435 43.838 265.615 43.838H268.82C269 43.838 269.146 43.6911 269.146 43.5099V8.96441C269.146 8.78316 269 8.63623 268.82 8.63623Z" fill="white"/>
<path d="M298.069 43.6568C298.08 43.6738 298.086 43.6934 298.087 43.7136C298.087 43.7337 298.083 43.7537 298.073 43.7714C298.063 43.7891 298.049 43.8038 298.032 43.814C298.015 43.8243 297.995 43.8296 297.975 43.8296H293.852C293.786 43.8296 293.72 43.8139 293.66 43.784C293.601 43.754 293.549 43.7105 293.509 43.6568L282.958 28.6986C282.892 28.608 282.799 28.5406 282.693 28.5059C282.587 28.4712 282.473 28.4711 282.367 28.5054C282.26 28.5398 282.168 28.607 282.101 28.6975C282.035 28.788 281.999 28.8972 281.998 29.0096L281.989 43.4668C281.989 43.563 281.952 43.6553 281.886 43.7233C281.82 43.7913 281.731 43.8296 281.638 43.8296H278.483C278.393 43.8296 278.305 43.7941 278.241 43.7309C278.177 43.6677 278.141 43.5821 278.141 43.4927V9.1891C278.141 9.05232 278.193 8.92087 278.288 8.82256C278.382 8.72424 278.511 8.66676 278.646 8.66228C286.052 8.48092 294.521 8.20455 295.712 16.5386C296.146 19.6017 295.663 22.1811 294.263 24.2768C292.932 26.2862 290.712 27.6392 287.603 28.3359C287.571 28.3439 287.541 28.3598 287.516 28.382C287.491 28.4043 287.472 28.4324 287.46 28.4639C287.448 28.4953 287.444 28.5292 287.448 28.5626C287.452 28.596 287.464 28.6278 287.483 28.6555L298.069 43.6568ZM281.972 12.6005L282.041 24.7086C282.041 24.7865 282.071 24.8612 282.126 24.9163C282.181 24.9713 282.255 25.0023 282.332 25.0023L285.589 24.985C287.325 24.9751 288.987 24.3327 290.209 23.1991C291.43 22.0654 292.112 20.5333 292.103 18.9396V18.2659C292.099 17.4763 291.926 16.6953 291.593 15.9676C291.26 15.2399 290.774 14.5797 290.162 14.0247C289.551 13.4697 288.826 13.0308 288.03 12.7331C287.234 12.4353 286.381 12.2846 285.521 12.2896L282.263 12.3068C282.186 12.3068 282.112 12.3378 282.057 12.3928C282.003 12.4479 281.972 12.5226 281.972 12.6005Z" fill="white"/>
<path d="M101.938 3.86182C101.986 3.88556 102.024 3.92561 102.046 3.97412C102.068 4.02249 102.074 4.07687 102.061 4.12842C102.047 4.17992 102.017 4.22544 101.975 4.25732C90.0376 13.7975 78.6969 23.8647 67.9541 34.4585L67.9551 34.4595L52.8008 51.0063C52.7743 51.0367 52.7372 51.0559 52.6973 51.0591C52.6574 51.0623 52.6178 51.0495 52.5869 51.0239H52.5781C52.548 50.9978 52.5282 50.961 52.5234 50.9224C52.5188 50.8839 52.5296 50.8455 52.5527 50.8159C53.7411 49.1868 54.5983 47.8946 55.124 46.939C60.4277 37.312 49.2323 32.1712 41.8584 29.6733L40.4414 29.2085L38.8867 28.7778C31.1062 26.664 23.1895 25.092 15.1377 24.061C10.3093 23.4392 5.48077 22.8632 0.652344 22.3335C0.591008 22.327 0.534332 22.2977 0.493164 22.2515C0.452092 22.2053 0.42944 22.1455 0.429688 22.0835V21.7983C0.429516 21.786 0.433546 21.7737 0.441406 21.7642C0.449265 21.7547 0.460559 21.7486 0.472656 21.7466L39.001 15.9341L62.1172 11.7886L101.785 3.84326C101.837 3.83172 101.891 3.83822 101.938 3.86182Z" fill="white"/>
</svg>
