<svg width="300" height="110" viewBox="0 0 300 110" fill="none" xmlns="http://www.w3.org/2000/svg">
<g clip-path="url(#clip0_280_98575)">
<path d="M171.429 71.6968H187.942C196.592 71.6968 203.866 75.8218 203.866 84.8575V95.8575C203.866 105.482 196.396 109.804 188.139 109.804H171.625L171.429 71.6968ZM187.156 101.357C190.498 101.357 192.857 99.0003 192.857 95.8575V85.6432C192.857 82.3039 190.301 80.3396 186.959 80.3396H182.241V101.357H187.156Z" fill="white"/>
<path d="M229.03 71.6968H241.219L254.194 110H243.185L241.219 103.322H228.047L225.885 110H215.662L229.03 71.6968ZM238.663 95.0718L234.731 81.9111H234.535L230.603 95.0718H238.663Z" fill="white"/>
<path d="M268.349 71.6968H286.435C295.478 71.6968 300 77.3932 300 84.0718C300 90.5539 296.265 97.0361 286.632 97.0361H279.161V110H268.349V71.6968ZM284.469 89.1789C287.615 89.1789 289.384 87.2146 289.384 84.6611C289.384 81.9111 287.615 80.1432 284.469 80.1432H279.161V89.3753H284.469V89.1789Z" fill="white"/>
<mask id="mask0_280_98575" style="mask-type:luminance" maskUnits="userSpaceOnUse" x="17" y="24" width="64" height="42">
<path d="M19.4627 24.9468C16.1206 25.1432 17.4967 26.3218 18.2831 27.1075C18.8729 28.0896 38.9253 58.3396 43.0538 63.2504C45.806 66.5896 54.2595 64.4289 54.2595 64.4289L80.9961 46.3575L41.8742 25.1432C41.8742 25.1432 32.2412 24.9468 25.557 24.9468C22.6081 24.9468 20.249 24.9468 19.4627 24.9468Z" fill="white"/>
</mask>
<g mask="url(#mask0_280_98575)">
<path d="M76.6711 8.83984L91.4155 64.0363L20.4456 83.0898L5.7012 27.697L76.6711 8.83984Z" fill="white"/>
</g>
<g opacity="0.75">
<mask id="mask1_280_98575" style="mask-type:luminance" maskUnits="userSpaceOnUse" x="17" y="24" width="64" height="42">
<path d="M80.9961 24.9468H17.3001V65.4111H80.9961V24.9468Z" fill="white"/>
</mask>
<g mask="url(#mask1_280_98575)">
<mask id="mask2_280_98575" style="mask-type:luminance" maskUnits="userSpaceOnUse" x="17" y="25" width="64" height="41">
<path d="M54.2595 64.6251C54.2595 64.6251 45.806 66.7858 43.0537 63.4465C38.7287 58.3394 18.6763 28.0894 18.0865 27.3037C17.4967 26.3215 16.1206 25.3394 19.2661 25.143C22.6081 24.9465 41.6776 25.143 41.6776 25.143L80.7995 46.5537L54.2595 64.6251Z" fill="white"/>
</mask>
<g mask="url(#mask2_280_98575)">
<path d="M27.7195 0L97.1166 32.2143L69.3971 91.7321L0 59.3214L27.7195 0Z" fill="white"/>
</g>
</g>
</g>
<path d="M53.2766 64.8216L142.529 5.30378C142.529 5.30378 168.676 4.51807 173.591 4.51807C178.506 4.51807 176.54 6.28592 175.754 7.66092C174.967 9.03592 145.085 65.8038 142.136 67.1788C139.384 68.5538 132.307 68.5538 121.887 66.7859C111.271 64.8216 80.0131 59.9109 53.2766 64.8216Z" fill="white"/>
</g>
<defs>
<clipPath id="clip0_280_98575">
<rect width="300" height="110" fill="white"/>
</clipPath>
</defs>
</svg>
