<svg width="300" height="34" viewBox="0 0 300 34" fill="none" xmlns="http://www.w3.org/2000/svg">
<path fill-rule="evenodd" clip-rule="evenodd" d="M0 0V34H33.805V0H0ZM29.9695 16.5919C29.2628 17.3048 27.1444 18.2208 25.9342 18.5256C24.1179 19.0335 23.1074 18.9319 22.5031 19.1351C22.7046 19.2384 24.4218 19.7447 25.2275 21.1721C25.4289 21.5784 25.4289 22.2913 24.8246 22.4945C23.512 23.0059 21.8989 22.0881 21.595 21.8849C22.7046 24.5314 23.5137 25.4458 25.4306 27.7875C26.0349 28.5004 25.9359 29.6196 24.4218 29.5197C22.1003 29.2132 18.77 26.2602 17.9626 24.1251C17.7611 25.3459 17.6604 25.9554 17.1552 26.4651C16.853 26.8715 16.3478 26.7716 16.1463 26.4651C15.7435 25.9537 15.5421 24.1251 15.5421 24.1251C15.5421 24.1251 13.1199 27.586 9.68882 29.2132C8.17473 29.9261 7.97331 28.9067 8.27544 28.6019C8.98213 27.586 9.58811 26.3618 9.99096 25.3459C10.3938 24.4281 10.5952 23.1057 12.0086 21.68C10.5952 22.0864 9.08285 21.9865 8.37616 21.68C7.66947 21.4786 7.66947 20.9672 7.87089 20.5608C8.47687 19.7464 10.0917 19.0335 11.7065 18.6272C8.47687 18.2208 7.77018 17.5079 5.85324 17.1016C4.43986 16.7968 3.63416 16.5936 3.33032 16.1856C3.22961 15.9824 3.1289 15.3711 3.83559 14.9648C4.54228 14.7616 7.66947 14.0487 9.08284 13.8455C9.68882 13.7439 11.1022 13.4375 12.2117 14.7616C11.5051 12.9295 10.4962 11.6054 9.89025 10.5895C9.48569 9.87663 9.89025 9.36868 10.6976 9.57186C11.6058 9.67345 13.2206 10.9976 14.6322 12.4216C14.733 12.6265 15.0351 12.5249 15.0351 12.32C15.9432 9.67345 15.7418 8.55252 15.8425 5.60124C15.8425 4.6852 16.5492 3.76917 17.6587 4.88838C19.2735 6.72045 19.3742 10.283 19.0721 13.3359C19.7788 12.5214 20.6869 11.8086 21.6957 11.3006C24.1162 10.1814 23.8141 11.8086 23.4112 12.6247C23.1074 13.2343 22.7046 14.152 21.4943 14.9648C21.595 15.0681 22.5031 14.4568 23.9148 14.3552C25.3282 14.3552 25.731 14.4568 27.5473 14.5584C28.6568 14.66 29.1621 14.66 29.768 14.66C30.473 14.6583 31.2821 15.3711 29.9695 16.5919Z" fill="white"/>
<path fill-rule="evenodd" clip-rule="evenodd" d="M16.3078 4.09468C15.8179 4.29958 15.4901 4.90396 15.4901 5.59787L15.4543 7.18027C15.4252 8.98134 15.3996 10.0988 14.7425 12.0635C13.621 10.9288 11.8611 9.34294 10.7328 9.21724C10.2446 9.09154 9.79733 9.20174 9.54982 9.53062C9.43545 9.68214 9.37741 9.86466 9.37741 10.0644C9.37741 10.2814 9.4474 10.5207 9.58396 10.7618C9.58737 10.7686 10.1029 11.5865 10.1029 11.5865C10.475 12.1634 10.8932 12.8745 11.2926 13.6545C10.4084 13.2774 9.5464 13.4048 9.09576 13.4823C7.58679 13.701 4.44765 14.4173 3.73584 14.6239C3.10597 14.9786 2.90625 15.4573 2.90625 15.8568C2.90625 16.0427 2.94892 16.2115 3.01379 16.3423C3.43541 16.9174 4.3367 17.1344 5.77568 17.446C5.77739 17.446 7.59533 17.9953 7.59533 17.9953C8.273 18.2398 9.1538 18.4895 10.2668 18.7151C9.29889 19.0646 8.15009 19.5932 7.58679 20.3491C7.46218 20.5936 7.40414 20.8157 7.40414 21.0206C7.40414 21.1584 7.42975 21.2841 7.48096 21.4029C7.56972 21.6061 7.78139 21.8799 8.27641 22.021C8.86703 22.2793 10.0227 22.3293 11.2295 22.1416C10.5569 23.0232 10.1592 23.8583 9.91511 24.5453L9.66589 25.2048C9.20672 26.3602 8.59562 27.5207 7.98452 28.4006C7.86161 28.5194 7.79675 28.7088 7.79675 28.9102C7.79675 29.0876 7.84796 29.2736 7.9555 29.4285C8.11083 29.6524 8.60586 30.1104 9.83147 29.5353C12.4261 28.3041 14.4232 26.0967 15.3143 24.993C15.4201 25.5991 15.5925 26.3378 15.8674 26.6873C16.0176 26.9163 16.3129 27.0799 16.6201 27.0868C16.9342 27.0971 17.2278 26.9473 17.4292 26.6787C17.8184 26.2861 17.9823 25.7472 18.1206 25.0705C19.3411 27.1384 22.161 29.5783 24.3698 29.8693C25.4555 29.9416 25.8549 29.4698 25.9983 29.1806C26.2373 28.6984 26.1161 28.0631 25.6893 27.5603C25.6927 27.5637 25.406 27.2159 25.406 27.2159C23.9499 25.4407 23.1698 24.442 22.3232 22.6409C23.0333 22.9268 24.0301 23.1799 24.9434 22.8252C24.9434 22.8148 25.5954 22.2139 25.5954 22.2139L25.5374 21.0155C25.0287 20.1167 24.2913 19.6345 23.6478 19.3005C23.9397 19.2471 26.0256 18.8666 26.0256 18.8666C27.2068 18.5687 29.4344 17.6303 30.2162 16.8434C30.8376 16.2648 31.0202 15.7827 31.0202 15.416C31.0202 15.2713 30.9912 15.1439 30.9485 15.0354C30.7522 14.5309 30.2145 14.3054 29.7673 14.3054L27.5789 14.2038C27.567 14.2038 25.9778 14.0936 25.9778 14.0936L23.9158 14.0006C23.9021 14.0006 23.2808 14.1538 22.7055 14.295C23.1579 13.7716 23.4839 13.2671 23.6717 12.8831C23.8833 12.4561 24.0301 11.9946 24.0301 11.5934C24.0301 11.3041 23.9533 11.0441 23.7673 10.8513C23.3661 10.4312 22.6389 10.4725 21.5482 10.9787C20.751 11.3799 20.0973 11.9894 19.4588 12.5973C19.5015 12.0067 19.5527 11.4195 19.5527 10.7962C19.5527 8.49061 19.184 6.08861 17.9174 4.65257C17.2039 3.93111 16.6492 3.95349 16.3078 4.09468ZM14.9371 12.8676C15.1982 12.8056 15.3809 12.58 15.3809 12.3183C16.1063 10.2676 16.1234 9.11048 16.1541 7.19404L16.19 5.61165C16.19 5.20701 16.3555 4.84025 16.5758 4.74899C16.7772 4.66462 17.081 4.80754 17.4088 5.13813C18.9826 6.92371 18.9928 10.5637 18.7214 13.3015C18.7061 13.4548 18.7914 13.5994 18.9297 13.6597C19.0696 13.7199 19.2318 13.6838 19.3308 13.5684C20.0221 12.7729 20.8927 12.0979 21.8486 11.6158C22.7021 11.2215 23.1459 11.2215 23.2637 11.3437C23.4037 11.4884 23.3269 12.0032 23.0964 12.4664C22.7567 13.1552 22.3624 13.9541 21.2973 14.6704C21.2102 14.7289 21.1556 14.8236 21.1436 14.927C21.1317 15.0303 21.1692 15.1353 21.2426 15.2111C21.4406 15.4142 21.6728 15.3213 22.0244 15.1835L23.938 14.7048C23.938 14.7066 25.9198 14.7978 25.9198 14.7978L27.526 14.9097C27.5141 14.9097 29.7656 15.0113 29.7656 15.0113C29.9756 15.0113 30.2248 15.1095 30.2965 15.2937C30.3101 15.3299 30.3169 15.3695 30.3169 15.4142C30.3169 15.6519 30.107 15.9842 29.7297 16.3354C29.105 16.9656 27.0754 17.8765 25.8464 18.1865C25.8378 18.1882 23.4071 18.6324 23.4071 18.6324L22.3897 18.8046C22.2344 18.8304 22.2139 18.982 22.1985 19.1386C22.1985 19.1455 22.1985 19.1507 22.1985 19.1576C22.1985 19.3091 22.3778 19.471 22.5195 19.5261C22.9547 19.6965 24.2794 20.2131 24.9229 21.3495C24.9229 21.3495 24.9229 21.353 24.9229 21.3616C24.9229 21.4477 24.957 21.9436 24.957 21.9436L24.7146 22.1622C23.6392 22.5807 22.2361 21.8954 21.7872 21.594C21.6574 21.5079 21.4901 21.5183 21.3707 21.6181C21.2512 21.718 21.2119 21.8833 21.2717 22.0262C22.3436 24.5832 23.1374 25.5509 24.8734 27.6653L25.1584 28.0149C25.3991 28.2973 25.4862 28.6451 25.3769 28.8655C25.2643 29.0945 24.9314 29.2012 24.4415 29.1702C22.2173 28.8758 19.027 25.9607 18.2861 24.0012C18.2298 23.8531 18.0813 23.7601 17.9243 23.7756C17.7672 23.7928 17.6392 23.9117 17.6136 24.0701C17.419 25.2495 17.3302 25.7868 16.9035 26.219C16.8062 26.3429 16.7294 26.386 16.6423 26.3843C16.5604 26.3825 16.4767 26.3378 16.4341 26.2741C16.1831 25.9521 15.9647 24.807 15.8861 24.089C15.8708 23.9427 15.7666 23.8238 15.6267 23.786C15.485 23.7498 15.3365 23.8101 15.2528 23.9237C15.2289 23.9581 12.8409 27.3296 9.53616 28.8965C8.89605 29.1995 8.60586 29.122 8.53417 29.029C8.53929 29.0222 8.55294 28.8138 8.55806 28.8052C9.19818 27.884 9.8383 26.6718 10.3111 25.4786C10.3077 25.4889 10.5757 24.7829 10.5757 24.7829C10.8608 23.9788 11.2158 22.9767 12.252 21.9315C12.3646 21.8196 12.3868 21.6422 12.3049 21.5045C12.2247 21.365 12.0608 21.2996 11.9089 21.3426C10.6184 21.7163 9.16746 21.644 8.51027 21.3581C8.33786 21.3065 8.17399 21.2376 8.12108 21.1171C8.10742 21.0844 8.10059 21.0482 8.10059 21.0086C8.10059 20.9242 8.1279 20.8261 8.17911 20.721C8.64 20.1115 10.0687 19.4055 11.786 18.9716C11.9413 18.932 12.0505 18.7908 12.0505 18.629C12.0505 18.6221 12.0505 18.6152 12.0505 18.6083C12.0403 18.4378 11.9106 18.3001 11.745 18.2794C9.77855 18.0315 8.78851 17.6751 7.82918 17.3324L5.92078 16.759C4.71565 16.499 3.84338 16.2889 3.60953 15.9773C3.60953 15.9704 3.59587 15.9256 3.59587 15.8568C3.59587 15.7138 3.65391 15.4745 4.00555 15.273C4.60811 15.1095 7.74042 14.3966 9.12819 14.1969C9.84 14.0746 11.0042 13.8749 11.9413 14.9907C12.0505 15.1215 12.24 15.1542 12.3868 15.0647C12.5336 14.9769 12.5968 14.7944 12.5336 14.6342C11.9874 13.2189 11.267 12.1014 10.6884 11.2043L10.1865 10.4071C10.0551 10.1763 10.0602 10.0196 10.1063 9.95936C10.1609 9.88705 10.3367 9.84572 10.6081 9.91287C11.349 9.99897 12.7777 11.0528 14.3806 12.6696C14.4318 12.8091 14.681 12.9279 14.9371 12.8676ZM12.1018 22.021C12.0693 22.0297 12.0369 22.0348 12.0062 22.0348C12.0386 22.0245 12.0693 22.0279 12.1018 22.021Z" fill="white"/>
<path fill-rule="evenodd" clip-rule="evenodd" d="M16.8493 20.7656L18.768 19.5448L19.0701 16.6934L16.9501 14.9629L14.125 16.4902L14.2257 19.6447L16.8493 20.7656Z" fill="white" stroke="white" stroke-width="0.1773" stroke-miterlimit="2.6131"/>
<path fill-rule="evenodd" clip-rule="evenodd" d="M18.265 16.2869C19.0724 16.5934 19.8798 16.2869 20.1837 15.574C20.3851 14.8612 19.9822 14.0467 19.1748 13.7419C18.3674 13.4355 17.4593 13.7419 17.2579 14.4548C16.9523 15.1659 17.3569 15.9804 18.265 16.2869ZM15.7421 15.9804C16.4488 15.4724 16.7509 14.5547 16.4488 14.0467C16.1466 13.4355 15.2385 13.4355 14.4311 13.9451C13.7244 14.4531 13.3216 15.3708 13.7244 15.8788C14.0266 16.49 14.9347 16.49 15.7421 15.9804ZM14.4311 18.0156C14.3304 17.0996 13.7244 16.2851 13.1185 16.3885C12.4118 16.3885 11.9082 17.2029 12.0089 18.2205C12.0089 19.1366 12.6149 19.8494 13.3216 19.8494C14.0266 19.7478 14.5318 18.9334 14.4311 18.0156ZM15.5407 19.951C14.6326 19.5446 13.622 19.8494 13.3199 20.459C13.0178 21.2734 13.5213 22.0861 14.4294 22.4942C15.3375 22.9023 16.3464 22.6991 16.6485 21.9862C16.9506 21.2734 16.4488 20.3591 15.5407 19.951ZM21.3922 18.2205C21.4946 17.2029 20.9894 16.2851 20.2827 16.1836C19.5794 15.9804 18.8761 16.7914 18.6713 17.8038C18.6679 16.9257 18.1285 16.1181 17.2562 15.8788C16.2474 15.574 15.0354 16.1836 14.7333 17.3045C14.3304 18.4237 14.9347 19.6445 16.0459 19.951C17.0548 20.3591 18.265 19.6445 18.5689 18.5253C18.6525 18.2911 18.6696 18.0552 18.6696 17.8228C18.5808 18.7509 18.9222 19.5619 19.5196 19.7754C19.0349 19.5446 18.3743 19.5825 17.8622 19.951C17.0548 20.3591 16.7526 21.375 17.1555 21.9862C17.56 22.6991 18.4681 22.8007 19.2755 22.2927C20.0829 21.7848 20.2844 20.867 19.9822 20.1542C19.8866 20.0113 19.7535 19.9011 19.6033 19.815C19.6306 19.8219 19.6494 19.846 19.6784 19.8511C20.4841 19.951 21.1908 19.2381 21.3922 18.2205Z" fill="white"/>
<path fill-rule="evenodd" clip-rule="evenodd" d="M13.4486 16.0994V16.0943C13.4486 16.096 13.4486 16.0977 13.4486 16.0994ZM20.3994 15.8618C20.4301 15.8084 20.4762 15.7706 20.5018 15.7137C20.7749 14.7598 20.2372 13.7663 19.2933 13.4099C18.7522 13.205 18.1445 13.2291 17.6682 13.4684L16.9172 14.3569C16.9035 14.3879 16.9086 14.4223 16.8967 14.4551C16.8864 14.245 16.8472 14.0401 16.7447 13.8662C16.743 13.8782 16.009 13.279 16.009 13.279C15.4969 13.1344 14.8346 13.2721 14.2406 13.6458C13.6824 14.0453 13.3001 14.6324 13.2232 15.1886C13.2232 15.1886 13.4434 16.0874 13.4452 16.0943C13.4486 16.0908 13.5032 16.1304 13.5783 16.1873C13.3393 16.1201 13.0628 16.0426 13.0594 16.0409C13.0594 16.0616 12.1444 16.4886 12.1444 16.4886C11.8184 16.8519 11.6426 17.3771 11.6426 17.9608C11.6426 18.0589 11.6477 18.1554 11.6579 18.2569V18.2604C11.6579 19.2384 12.3066 20.0391 13.1277 20.1579C13.0918 20.2095 13.0321 20.2457 13.0047 20.3025C12.6326 21.296 13.1652 22.3119 14.285 22.8182C14.9012 23.0937 15.5908 23.1316 16.1302 22.918L16.8881 22.2035C16.9701 22.2586 17.8218 22.9112 17.8218 22.9112C18.3391 23.042 18.9177 22.9318 19.4554 22.5926C20.4165 21.9882 20.6076 20.9207 20.3243 20.1269C21.0002 19.8979 21.5482 19.216 21.7308 18.2914C21.7411 18.1846 21.7462 18.0796 21.7462 17.978C21.7496 16.9053 21.1829 16.0237 20.3994 15.8618ZM17.576 14.5945C17.5914 14.5515 17.9857 14.1004 17.9857 14.1004C18.2896 13.9454 18.6873 13.9351 19.0509 14.0728C19.6551 14.3018 20.0051 14.9165 19.8463 15.4761C19.6312 15.972 19.0116 16.1907 18.3869 15.9548C18.3834 15.9531 18.38 15.9514 18.3749 15.9496C17.996 15.8239 17.7143 15.588 17.5829 15.2919C17.4805 15.0663 17.4787 14.8235 17.576 14.5945ZM18.7146 16.7262C18.7112 16.7314 18.7095 16.7383 18.7061 16.7434C18.7026 16.7348 18.6924 16.7296 18.6873 16.7193C18.6958 16.721 18.7044 16.7245 18.7146 16.7262ZM18.5849 19.3193C18.549 19.3245 18.5115 19.3159 18.4756 19.3228C18.4995 19.2883 18.5217 19.2556 18.5439 19.2212C18.5559 19.2539 18.5678 19.2901 18.5849 19.3193ZM16.8284 15.0457C16.842 15.2247 16.8659 15.4073 16.9445 15.5829C16.9445 15.5846 16.9462 15.5846 16.9462 15.5846C16.8284 15.5726 16.7123 15.5484 16.5928 15.5553C16.6935 15.3883 16.7755 15.2196 16.8284 15.0457ZM17.1766 16.1425C17.6358 16.2682 18.0045 16.573 18.2247 16.9983C18.3152 17.1756 18.351 17.3685 18.3783 17.5613C18.363 17.6233 18.3391 17.6818 18.3254 17.7438C18.3135 17.8661 18.3066 17.9901 18.3066 18.1089C18.3066 18.176 18.3271 18.2346 18.3305 18.3C18.3186 18.343 18.3271 18.3913 18.3118 18.4309C18.1701 18.9509 17.8133 19.3865 17.349 19.6172C16.9479 19.8187 16.5194 19.8462 16.1439 19.6947L16.1149 19.6844C15.6625 19.5604 15.2921 19.2573 15.0736 18.8303C14.8483 18.3912 14.8159 17.8678 14.9866 17.396C15.1095 16.9432 15.3962 16.5867 15.7888 16.3491C15.8349 16.325 15.881 16.3078 15.9271 16.2785C16.3282 16.0805 16.7772 16.0202 17.1766 16.1425ZM14.6332 14.2312C15.0378 13.9781 15.5004 13.8679 15.823 13.9592L16.1354 14.2054C16.1849 14.2898 16.2088 14.3965 16.2088 14.517C16.2088 14.8872 15.9715 15.3728 15.5413 15.6879C15.1214 15.9462 14.6656 16.0581 14.3464 15.9669L14.0341 15.7206C13.9948 15.6586 13.918 15.285 13.918 15.285C13.9692 14.9269 14.2543 14.5033 14.6332 14.2312ZM14.6093 19.1041C14.6742 19.2281 14.78 19.3159 14.8637 19.4226C14.7151 19.4106 14.5769 19.4416 14.4352 19.4554C14.5035 19.3469 14.5581 19.2298 14.6093 19.1041ZM14.2747 16.6625C14.4233 16.6918 14.5803 16.6969 14.7442 16.6849C14.6639 16.8209 14.582 16.9552 14.5308 17.1085C14.4591 16.9449 14.3737 16.7951 14.2747 16.6625ZM13.2932 19.4829C12.7845 19.4605 12.3561 18.8992 12.3561 18.2208C12.3493 18.1399 12.3441 18.0589 12.3441 17.9797C12.3441 17.5544 12.4585 17.1911 12.6651 16.9621L13.1174 16.74C13.1754 16.7365 13.4929 16.845 13.4929 16.845C13.79 17.0706 14.0272 17.5579 14.0819 18.0555C14.0887 18.1192 14.0921 18.1812 14.0921 18.2432C14.0921 18.8648 13.7524 19.3968 13.2932 19.4829ZM16.3265 21.847L15.8759 22.2586C15.5072 22.4049 15.019 22.3722 14.5701 22.1707C13.9231 21.8815 13.3871 21.2771 13.6449 20.5832C13.8429 20.1872 14.6605 19.9444 15.3962 20.2715C15.992 20.5384 16.3863 21.0722 16.3863 21.544C16.3863 21.6507 16.3675 21.7523 16.3265 21.847ZM16.813 20.6452C16.743 20.5229 16.6457 20.4127 16.5501 20.3025C16.7004 20.3111 16.8455 20.3008 16.9974 20.2733C16.9206 20.3852 16.8676 20.516 16.813 20.6452ZM19.0884 21.9934C18.7214 22.2241 18.3237 22.3102 17.996 22.2276L17.4566 21.8126C17.3217 21.606 17.2927 21.346 17.3627 21.0774C17.4548 20.7313 17.6989 20.4282 18.0164 20.2664C18.3613 20.0219 18.7504 19.934 19.1038 19.9995L19.6893 20.3507C19.7422 20.4799 19.7729 20.6366 19.7729 20.8019C19.7729 21.2099 19.5869 21.68 19.0884 21.9934ZM19.7251 19.5001C19.3001 19.4381 19.0014 18.8424 19.0014 18.1158C19.0014 18.0279 19.0065 17.9367 19.015 17.8489C19.1226 17.3151 19.4162 16.8123 19.7593 16.6022L20.186 16.523C20.7459 16.6074 21.1249 17.3788 21.0446 18.1863C20.8791 19.006 20.3226 19.5724 19.7251 19.5001Z" fill="white"/>
<path fill-rule="evenodd" clip-rule="evenodd" d="M49.9521 12.0117C43.3938 12.0117 39.0547 15.1679 39.0547 19.8496C39.0547 24.7346 43.3938 27.6876 49.9521 27.6876C53.0809 27.6876 55.1993 27.0763 56.512 26.4668C56.8141 26.2619 56.9148 26.0604 56.7134 25.7539C55.5032 24.4281 54.3919 23.2073 53.6869 22.3945C53.4855 22.1931 53.2841 22.0881 53.1817 22.1931C52.3743 22.5995 51.2647 22.9025 49.853 22.9025C47.9344 22.9025 46.9256 22.0881 46.7242 21.2753C46.7242 21.2753 55.1003 21.2753 58.7328 21.2753C59.3387 21.2753 59.4394 21.2753 59.5402 20.9688C59.6409 20.4609 59.7416 19.8514 59.7416 18.832C59.7399 14.6582 55.5014 12.0117 49.9521 12.0117ZM46.7224 18.4239C46.9239 17.7111 47.832 16.8966 49.6482 16.8966C51.5669 16.8966 52.574 17.5079 52.7771 18.4239H46.7224ZM83.7554 7.02344H75.8845C75.6831 7.02344 75.5807 7.12503 75.5807 7.43152V13.4357C74.4711 12.7228 72.3511 12.2149 70.5348 12.2149C65.1869 12.2149 61.353 15.2695 61.353 19.8496C61.353 24.5331 64.6833 27.4827 70.5348 27.4827C72.2503 27.4827 74.4711 27.1796 75.7821 25.8555V26.6699C75.7821 27.0763 75.8845 27.0763 76.1866 27.0763H83.7554C84.0575 27.0763 84.0575 27.0763 84.0575 26.6699V7.43152C84.0592 7.02344 84.0592 7.02344 83.7554 7.02344ZM72.6549 22.1914C70.738 22.1914 69.5277 21.4785 69.5277 19.9512C69.5277 18.5255 70.738 17.6095 72.6549 17.6095C74.3704 17.6095 75.6831 18.5255 75.6831 19.9512C75.6831 21.3752 74.4728 22.1914 72.6549 22.1914ZM98.3876 12.0117C91.8294 12.0117 87.4903 15.1679 87.4903 19.8496C87.4903 24.7346 91.8294 27.6876 98.2869 27.6876C101.517 27.6876 103.534 27.0763 104.847 26.4668C105.25 26.2619 105.35 26.0604 105.149 25.7539C103.939 24.4281 102.829 23.2073 102.123 22.3945C101.921 22.1931 101.72 22.0881 101.617 22.1931C100.81 22.5995 99.7003 22.9025 98.2869 22.9025C96.37 22.9025 95.3612 22.0881 95.1597 21.2753C95.1597 21.2753 103.534 21.2753 107.167 21.2753C107.773 21.2753 107.873 21.2753 107.974 20.9688C108.075 20.4609 108.175 19.8514 108.175 18.832C108.175 14.6582 103.937 12.0117 98.3876 12.0117ZM95.1597 18.4239C95.3612 17.7111 96.2693 16.8966 98.0855 16.8966C100.004 16.8966 101.011 17.5079 101.114 18.4239H95.1597ZM119.578 7.02344H111.405C111.204 7.02344 111.204 7.02344 111.204 7.43152V26.6682C111.204 27.0746 111.204 27.0746 111.506 27.0746H119.578C119.781 27.0746 119.882 26.973 119.882 26.7715V7.43152C119.88 7.02344 119.78 7.02344 119.578 7.02344ZM151.263 12.623H143.998C143.797 12.623 143.696 12.5214 143.594 12.7245C142.786 13.9453 140.97 16.5936 140.97 16.5936L137.843 12.8261C137.64 12.623 137.539 12.623 137.237 12.623C136.834 12.623 136.733 12.623 136.633 12.8261L133.202 16.5936C133.202 16.5936 131.991 14.455 130.779 12.7245C130.779 12.623 130.779 12.623 130.375 12.623H122.605C122.101 12.623 122.101 12.623 122.403 12.9277C125.935 18.5255 129.366 24.0217 131.385 27.2795C131.587 27.6859 132.193 27.586 132.495 27.2795C134.009 25.4474 137.136 21.68 137.136 21.68C137.136 21.68 139.961 25.1409 141.576 27.2795C141.878 27.6859 142.383 27.6859 142.685 27.2795C145.915 21.9865 148.438 18.0158 151.666 12.8244C151.768 12.623 151.768 12.623 151.263 12.623ZM162.97 12.0117C156.41 12.0117 151.971 15.1679 151.971 19.8496C151.971 24.7346 156.411 27.6876 162.869 27.6876C166.098 27.6876 168.116 27.0763 169.429 26.4668C169.832 26.2619 169.932 26.0604 169.63 25.7539C168.521 24.4281 167.409 23.2073 166.703 22.3945C166.501 22.1931 166.3 22.0881 166.098 22.1931C165.393 22.5995 164.284 22.9025 162.77 22.9025C160.954 22.9025 159.842 22.0881 159.742 21.2753C159.742 21.2753 168.118 21.2753 171.75 21.2753C172.355 21.2753 172.457 21.2753 172.558 20.9688C172.66 20.4609 172.66 19.8514 172.66 18.832C172.655 14.6582 168.519 12.0117 162.97 12.0117ZM159.738 18.4239C159.941 17.7111 160.749 16.8966 162.666 16.8966C164.482 16.8966 165.593 17.5079 165.692 18.4239H159.738ZM184.259 7.02344H175.985C175.681 7.02344 175.681 7.22662 175.681 7.43152V11.1972C175.681 11.4004 175.782 11.6036 175.985 11.6036H184.259C184.46 11.6036 184.563 11.502 184.563 11.2988V7.43152C184.563 7.02344 184.46 7.02344 184.259 7.02344ZM184.259 12.623H175.985C175.681 12.623 175.681 12.623 175.681 12.9277V26.6682C175.681 27.0746 175.782 27.0746 175.985 27.0746H184.259C184.46 27.0746 184.563 26.973 184.563 26.7715V12.926C184.563 12.623 184.46 12.623 184.259 12.623ZM200.202 17.3047C199.699 17.2031 199.395 17.2031 198.992 17.2031C196.57 16.9999 195.965 16.8966 195.965 16.2871C195.965 15.7791 196.57 15.4726 197.882 15.4726C199.296 15.4726 200.001 15.879 200.707 16.5919C200.909 16.795 200.909 16.795 201.213 16.6934L206.156 15.5742C206.46 15.4726 206.46 15.3711 206.259 15.1662C205.449 13.2325 202.624 12.01 197.983 12.01C192.13 12.01 188.294 14.1485 188.294 17.6078C188.294 21.1703 192.736 22.0863 195.158 22.1896C195.46 22.1896 195.865 22.1896 196.066 22.2912C198.084 22.3928 198.688 22.6976 198.688 23.3106C198.688 23.9201 198.084 24.2249 196.67 24.2249C195.056 24.2249 194.148 23.6136 193.441 22.7992C193.338 22.6976 193.338 22.6976 193.137 22.6976L188.194 24.02C187.791 24.02 187.688 24.02 187.992 24.4264C189.305 26.36 192.331 27.6859 196.973 27.6859C202.322 27.6859 207.064 25.2442 207.064 22.0863C207.066 18.9336 204.34 17.7111 200.202 17.3047ZM221.394 17.3047C220.99 17.2031 220.585 17.2031 220.182 17.2031C217.863 16.9999 217.257 16.8966 217.257 16.2871C217.257 15.7791 217.76 15.4726 219.174 15.4726C220.486 15.4726 221.191 15.879 221.898 16.5919C222.099 16.795 222.202 16.795 222.403 16.6934L227.347 15.5742C227.65 15.4726 227.65 15.3711 227.548 15.1662C226.741 13.2325 223.813 12.01 219.174 12.01C213.423 12.01 209.587 14.1485 209.587 17.6078C209.587 21.1703 213.926 22.0863 216.449 22.1896C216.753 22.1896 217.055 22.1896 217.258 22.2912C219.377 22.3928 219.983 22.6976 219.983 23.3106C219.983 23.9201 219.276 24.2249 217.864 24.2249C216.35 24.2249 215.341 23.6136 214.735 22.7992C214.635 22.6976 214.635 22.6976 214.333 22.6976L209.389 24.02C209.085 24.02 208.986 24.02 209.287 24.4264C210.599 26.36 213.628 27.6859 218.166 27.6859C223.615 27.6859 228.359 25.2442 228.359 22.0863C228.355 18.9336 225.53 17.7111 221.394 17.3047ZM262.563 12.623H255.601C255.298 12.623 255.198 12.623 255.198 12.9277V14.1485C254.088 12.7228 251.968 12.1133 249.648 12.1133C243.996 12.1133 240.263 15.2695 240.263 19.8496C240.263 24.9395 244.401 27.4827 249.85 27.4827C252.675 27.4827 254.592 26.5684 255.802 25.4474V26.6682C255.802 26.8731 255.904 27.0746 256.307 27.0746H262.563C262.867 27.0746 262.867 27.0746 262.867 26.6682V12.9277C262.867 12.623 262.867 12.623 262.563 12.623ZM251.565 22.1914C249.648 22.1914 248.336 21.3735 248.336 19.8496C248.336 18.5255 249.648 17.6095 251.565 17.6095C253.381 17.6095 254.592 18.5255 254.592 19.8496C254.592 21.3752 253.482 22.1914 251.565 22.1914ZM275.985 12.623H267.71C267.408 12.623 267.408 12.623 267.408 12.9277V26.6682C267.408 27.0746 267.508 27.0746 267.71 27.0746H275.985C276.187 27.0746 276.289 26.973 276.289 26.7715V12.926C276.287 12.623 276.187 12.623 275.985 12.623ZM275.985 7.02344H267.71C267.408 7.02344 267.408 7.22662 267.408 7.43152V11.1972C267.408 11.4004 267.508 11.6036 267.71 11.6036H275.985C276.187 11.6036 276.289 11.502 276.289 11.2988V7.43152C276.287 7.02344 276.187 7.02344 275.985 7.02344ZM294.653 12.1133C292.736 12.1133 290.515 13.0293 289.607 14.4533V12.926C289.607 12.6212 289.607 12.6212 289.303 12.6212H281.332C281.029 12.6212 281.029 12.6212 281.029 12.926V26.6665C281.029 27.0729 281.13 27.0729 281.332 27.0729H289.506C289.708 27.0729 289.808 26.9713 289.808 26.7698V18.219C290.314 17.7093 291.121 17.2014 292.231 17.2014C293.745 17.2014 294.55 17.8109 294.55 19.1351C295.36 19.1351 295.156 19.1351 295.36 19.0335C295.863 18.7287 299.093 16.2854 300.001 15.5725C299.799 13.4357 297.681 12.1133 294.653 12.1133Z" fill="white"/>
</svg>
