<svg width="300" height="83" viewBox="0 0 300 83" fill="none" xmlns="http://www.w3.org/2000/svg">
<path d="M26.1757 45.6778C26.1663 45.9235 26.2232 46.1632 26.3464 46.3967C26.3522 46.4077 26.3556 46.4198 26.3567 46.4322C26.3577 46.4447 26.3561 46.4572 26.3522 46.4691L26.3206 46.5648C25.8727 45.974 25.1923 45.0533 24.2794 43.8024C23.907 43.2927 23.5829 42.8057 23.3071 42.3414C22.9586 41.754 22.6947 41.1103 22.5154 40.4103C22.1383 38.9417 22.5546 37.3909 23.2447 36.0871C23.6875 35.2506 24.23 34.4624 24.8721 33.7225C25.2783 33.2543 25.803 32.688 26.4463 32.0235C26.8664 31.5891 27.443 31.0763 28.1761 30.485C28.8315 29.9564 29.4628 29.4506 30.0699 28.9674C31.3843 27.9199 32.0578 27.32 33.5837 26.0096C33.9144 25.7256 34.276 25.3989 34.6684 25.0295C35.3637 24.376 35.7189 24.0421 35.7339 24.0277C37.2817 22.545 38.5334 21.2241 39.4891 20.0648C40.3193 19.0586 41.0627 18.0887 41.7192 17.1552C42.202 16.4679 42.5966 15.769 43.0278 15.0061C43.6066 13.9827 44.102 12.9468 44.5137 11.8984C44.577 11.737 44.8192 11.0281 45.2405 9.77178C45.3986 9.29975 45.513 8.87347 45.5834 8.49296C45.6942 7.89557 45.879 7.39053 45.9572 6.76401C46.0405 6.08841 46.2178 5.21977 46.2794 4.54833C46.4037 3.20433 46.4661 2.38285 46.4667 2.08387C46.4683 1.22078 46.4775 0.554055 46.4941 0.0836839C46.4946 0.0709413 46.4978 0.0584485 46.5036 0.0470992C46.5094 0.03575 46.5176 0.0258247 46.5276 0.0180337C46.5376 0.0102426 46.5492 0.00477826 46.5616 0.00203159C46.5739 -0.00071509 46.5867 -0.000676208 46.599 0.00214545C46.6456 0.0126844 46.6839 0.0456881 46.7139 0.101156C47.4248 1.39912 47.9268 2.66629 48.3155 4.10736C48.4088 4.45292 48.5336 5.07861 48.6901 5.98441C48.8011 6.62617 48.8747 7.26046 48.9107 7.88725C48.9912 9.30613 48.9893 10.6171 48.9049 11.8202C48.8927 11.9988 48.8344 12.5935 48.7301 13.6041C48.6757 14.1316 48.6133 14.5889 48.5428 14.9761C48.4379 15.5569 48.3597 16.1917 48.2265 16.7982C48.1066 17.3429 47.9248 18.1256 47.6812 19.1462C47.5741 19.5972 47.4842 19.94 47.4115 20.1746C47.1851 20.9084 47.0344 21.6198 46.7564 22.4053C46.5172 23.0809 46.3729 23.4755 46.3235 23.5892C46.2808 23.6863 46.21 23.7748 46.1112 23.8546C45.3759 24.4487 44.751 25.0087 44.2365 25.5345C43.9968 25.7802 43.5847 26.1158 43.0003 26.5412C42.6116 26.8233 42.2253 27.1511 41.8274 27.4839C41.4903 27.766 41.1407 27.9299 40.7785 28.2261C40.5105 28.4458 40.2361 28.6593 39.9552 28.8668C39.6656 29.0806 39.4042 29.2046 39.0654 29.43C39.0405 29.4466 39.0176 29.4659 38.9971 29.4874C38.7901 29.7099 38.5293 29.8846 38.2146 30.0116C38.0914 30.061 37.8267 30.2504 37.4204 30.5799C37.3006 30.6764 37.1066 30.7438 36.9692 30.8287C36.2034 31.3057 35.7886 31.5664 35.7247 31.6108C35.5455 31.7356 35.329 31.864 35.0754 31.996C34.9805 32.0448 34.7666 32.1785 34.4336 32.397C34.0623 32.6408 33.7984 32.759 33.4372 32.9994C33.4139 33.015 33.2787 33.0904 33.0318 33.2257C32.3908 33.5785 31.8957 33.8744 31.5467 34.1135C31.0855 34.4297 30.5722 34.8798 30.0066 35.4639C29.4084 36.0812 28.958 36.6079 28.6556 37.0439C28.2876 37.5742 27.9438 38.1516 27.6242 38.7762C27.4754 39.0674 27.3689 39.3184 27.3045 39.5292C27.1971 39.8819 27.044 40.2064 26.9299 40.5534C26.7293 41.1616 26.6177 41.4212 26.5303 41.9395C26.4604 42.3533 26.3494 43.052 26.1974 44.0354C26.1912 44.0748 26.1588 44.3954 26.1 44.9972C26.0772 45.2308 26.1025 45.4576 26.1757 45.6778Z" fill="white"/>
<path d="M51.3168 31.2496C51.1109 31.3988 50.8933 31.5528 50.6641 31.7114C50.2418 32.0026 49.744 32.3507 49.1707 32.7556C48.9015 32.9458 48.4595 33.226 47.8446 33.5959C47.654 33.7099 47.4409 33.8988 47.3019 33.9703C46.7713 34.2421 46.3024 34.5062 45.895 34.7624C45.4244 35.0581 45.0065 35.3016 44.6414 35.4929C44.5625 35.5345 44.1394 35.7703 43.3719 36.2002C43.2686 36.2584 43.1715 36.3108 43.0805 36.3574C42.8335 36.4855 42.4995 36.6589 42.0782 36.8774C42.0727 36.8802 41.9742 36.9362 41.7827 37.0455C41.6362 37.1298 41.4287 37.2319 41.16 37.3517C41.0429 37.4038 40.8515 37.5284 40.5857 37.7253L37.941 39.059C37.2395 39.3796 36.5449 39.7243 35.8573 40.0932C35.1206 40.4893 34.493 40.7946 33.8104 41.1507C33.469 41.3288 33.1744 41.5534 32.8522 41.7539C32.6408 41.8854 32.4102 42.0504 32.1604 42.249C31.5705 42.7188 31.035 43.2316 30.5538 43.7874C30.1526 44.2134 29.8804 44.6436 29.564 45.0887C29.3709 45.3605 29.203 45.6181 29.0604 45.8616C28.8406 46.2383 28.6902 46.507 28.6092 46.6679C28.4305 47.0229 28.2476 47.4844 28.0606 48.0524C28.0379 48.3868 27.9643 48.6986 27.84 48.9876L26.3216 46.5647L26.3533 46.469C26.3572 46.4571 26.3587 46.4446 26.3577 46.4322C26.3567 46.4197 26.3532 46.4076 26.3474 46.3966C26.2242 46.1631 26.1674 45.9235 26.1768 45.6778C26.1879 45.2629 26.2015 44.8538 26.2176 44.4505C26.2292 44.1665 26.2586 43.9244 26.3058 43.7242C26.3841 43.3905 26.3932 43.0952 26.4698 42.7607C26.5225 42.5266 26.59 42.1774 26.6721 41.7132C26.752 41.2614 26.961 40.7805 27.0575 40.4435C27.11 40.2588 27.2124 40.1173 27.229 39.9593C27.234 39.9138 27.254 39.848 27.2889 39.7621C27.6197 38.9406 27.933 38.3077 28.2288 37.8634C28.4386 37.548 28.5451 37.3084 28.7607 37.0305C29.1947 36.4731 29.5354 36.0693 29.783 35.8191C29.9977 35.6011 30.2866 35.3213 30.6495 34.9796C30.6645 34.9652 30.6812 34.9524 30.6995 34.9413C30.8155 34.8714 30.9184 34.7813 31.0083 34.6709C31.0253 34.6501 31.0466 34.6331 31.0708 34.621C31.1906 34.5636 31.3596 34.3822 31.4978 34.2482C31.5899 34.1589 31.7251 34.0619 31.9032 33.957C32.5775 33.5577 33.0506 33.2884 33.3225 33.1491C33.5681 33.0235 33.7646 32.8521 34.0251 32.7173C34.1783 32.638 34.4763 32.4616 34.9192 32.1881C35.1864 32.0242 35.4511 31.9127 35.68 31.733C35.9431 31.5258 36.2619 31.3811 36.5882 31.2022C36.6253 31.1823 36.6599 31.1583 36.6915 31.1306C36.9168 30.9315 37.1673 30.7784 37.4432 30.6714C37.4823 30.6565 37.5188 30.636 37.5514 30.6106C37.8222 30.4009 38.1025 30.2112 38.3922 30.0415C38.6347 29.899 38.8877 29.7245 39.1513 29.5182C39.2951 29.4061 39.5637 29.2383 39.9572 29.0148C40.0304 28.9732 40.1284 28.8917 40.251 28.7702C40.6639 28.3608 41.1451 28.0139 41.6604 27.7019C41.8218 27.6037 42.0374 27.4265 42.2031 27.2725C42.4601 27.0329 42.7325 26.8116 43.0206 26.6086C43.5877 26.2081 44.0256 25.8548 44.3342 25.5486C44.7099 25.1758 45.1022 24.7989 45.5113 24.4179C45.7044 24.239 46.0665 24.0343 46.3071 23.7522C46.3247 23.7318 46.3452 23.7142 46.3679 23.6998C47.4609 23.0234 48.4407 22.0932 49.3122 21.1671C50.2607 20.1598 51.1031 19.046 51.8395 17.8257C52.3989 16.8988 52.9176 15.9628 53.3796 14.902C54.3069 12.7726 54.9998 10.5652 55.4582 8.2799C55.5159 7.99146 55.6247 7.34359 55.7845 6.33629C55.8569 5.88034 55.9702 5.55252 56.0792 5.14233C56.0806 5.13726 56.0833 5.13266 56.0871 5.12901C56.0909 5.12536 56.0956 5.12281 56.1007 5.12161C56.1058 5.12042 56.1112 5.12063 56.1162 5.12223C56.1212 5.12383 56.1257 5.12675 56.1292 5.13069C56.1625 5.16729 56.1819 5.20418 56.1874 5.24134C56.2651 5.77107 56.37 6.28859 56.5021 6.7939C56.7435 7.71745 56.9025 8.91557 56.9991 9.55955C57.2277 11.0766 57.301 12.7734 57.2188 14.6499C57.2072 14.9233 57.1689 15.3998 57.104 16.0793C56.9491 17.6943 56.6145 19.2768 56.1874 20.8926C56.0459 21.4289 55.9219 21.8458 55.8153 22.1431C55.5872 22.7813 55.4732 23.2106 55.2434 23.7872C54.8472 24.7856 54.3674 25.8991 53.8041 27.1278C53.5436 27.696 53.2847 28.1154 53.0308 28.6387C52.6406 29.4425 52.1908 30.1979 51.6814 30.9052C51.677 30.9112 51.6719 30.9168 51.6664 30.9218L51.3168 31.2496Z" fill="white"/>
<path d="M51.4481 40.7646C50.7777 41.0192 50.1029 41.2647 49.4236 41.501C49.0889 41.6175 48.7266 41.7467 48.3364 41.8887C47.9413 42.0329 47.5786 42.1597 47.2484 42.2689C46.4431 42.5346 45.7847 42.7534 45.273 42.9254C44.96 43.0308 44.6686 43.1331 44.3989 43.2324C44.1697 43.3167 43.6872 43.4626 42.9513 43.6701C42.5034 43.7965 42.037 43.9399 41.5519 44.1002C40.9531 44.2982 40.485 44.4372 40.1476 44.5171C39.9606 44.5609 39.657 44.6657 39.2369 44.8316C39.0133 44.9198 38.4774 45.082 37.6294 45.3183C37.289 45.4132 37.0018 45.5479 36.7104 45.6345C36.4934 45.6994 36.2678 45.787 36.0336 45.8974C35.3405 46.2247 34.6898 46.5927 34.0815 47.0015C34.0527 47.0209 34.0291 47.0542 34.0108 47.1013C34.003 47.0997 33.9947 47.0988 33.9858 47.0988C33.968 47.0994 33.9508 47.1052 33.9367 47.1155C33.652 47.3218 33.4306 47.5423 33.1109 47.7736C32.6431 48.1139 32.3575 48.2911 31.9571 48.6872C31.1857 49.4504 30.6743 49.9649 30.4229 50.2306C30.3386 50.3188 30.2256 50.4683 30.0841 50.679C29.7967 50.9969 29.5494 51.313 29.3424 51.6275C29.2453 51.7757 29.1215 51.8774 28.9711 51.9329C28.9589 51.9376 28.9457 51.9396 28.9326 51.9387C28.9196 51.9379 28.9068 51.9342 28.8954 51.9279C28.7983 51.8741 28.7339 51.7906 28.7023 51.6775C28.4492 50.7473 28.1617 49.8506 27.8398 48.9875C27.9642 48.6985 28.0377 48.3868 28.0604 48.0523L28.0763 48.1272C28.0774 48.1323 28.08 48.1369 28.0838 48.1404C28.0876 48.144 28.0923 48.1463 28.0974 48.1471C28.1026 48.1479 28.1078 48.1472 28.1125 48.145C28.1172 48.1428 28.1211 48.1392 28.1237 48.1347C28.2036 47.9988 28.2444 47.8593 28.2461 47.7162C28.2461 47.7096 28.2475 47.7031 28.2502 47.6971L28.7572 46.5314C28.7672 46.5087 28.7794 46.4872 28.7938 46.4673C28.8182 46.4457 28.9212 46.2676 29.1027 45.9332C29.2475 45.6675 29.4381 45.3691 29.6746 45.0379C29.7179 44.9774 29.851 44.7986 30.0741 44.5013C30.2445 44.2749 30.4043 44.037 30.5536 43.7874C31.0348 43.2316 31.5703 42.7188 32.1603 42.249C32.41 42.0504 32.6406 41.8854 32.852 41.7539C33.1742 41.5534 33.4689 41.3287 33.8102 41.1507C34.4928 40.7946 35.1204 40.4892 35.8572 40.0932C36.5448 39.7243 37.2393 39.3796 37.9408 39.059C38.3864 38.8931 38.8826 38.6713 39.4292 38.3934C39.8859 38.1615 40.2714 37.9388 40.5855 37.7252C40.8513 37.5283 41.0428 37.4038 41.1599 37.3517C41.4285 37.2318 41.636 37.1298 41.7825 37.0455C41.974 36.9362 42.0725 36.8802 42.0781 36.8774C42.4993 36.6589 42.8334 36.4855 43.0803 36.3574C43.1713 36.3108 43.2685 36.2584 43.3717 36.2001C44.1392 35.7703 44.5624 35.5345 44.6412 35.4929C45.0063 35.3015 45.4242 35.058 45.8948 34.7624C46.3022 34.5061 46.7711 34.2421 47.3017 33.9703C47.4407 33.8988 47.6538 33.7099 47.8444 33.5959C48.4593 33.2259 48.9014 32.9458 49.1705 32.7556C49.7438 32.3506 50.2416 32.0026 50.6639 31.7114C50.8931 31.5527 51.1107 31.3988 51.3166 31.2496C51.4559 31.173 51.5905 31.0979 51.7203 31.0241C52.0808 30.8186 52.4545 30.4617 52.7109 30.2836C53.7498 29.5614 54.5057 28.9124 55.741 27.84C56.2172 27.4267 56.8274 26.8163 57.5716 26.0087C59.5279 23.887 61.0895 21.4894 62.2566 18.8158C62.4131 18.4564 62.5175 18.2023 62.5696 18.0537C62.7494 17.5386 62.9975 16.997 63.159 16.4554C63.2614 16.1092 63.4079 15.6816 63.4986 15.3263C63.6959 14.555 63.9515 13.6772 64.0872 12.8211C64.0944 12.7767 64.1002 12.7515 64.1047 12.7454C64.1165 12.7288 64.133 12.7163 64.152 12.7092C64.1711 12.7022 64.1918 12.701 64.2116 12.7058C64.2314 12.7106 64.2494 12.7212 64.2633 12.7363C64.2771 12.7513 64.2863 12.7701 64.2895 12.7903C64.3194 12.9844 64.3555 13.3267 64.3977 13.817C64.431 14.2003 64.4751 14.9976 64.5301 16.2091C64.6333 18.4983 64.5284 20.7827 64.2154 23.0625C64.0914 23.9677 63.9357 24.6649 63.7317 25.5735C63.6407 25.9807 63.5358 26.3728 63.4171 26.75C63.1745 27.5199 63.0525 27.9085 63.0508 27.9157C62.9503 28.2751 62.8455 28.563 62.7361 28.7793C62.5763 29.0946 62.4256 29.5423 62.2558 29.91C61.4245 31.7044 60.3906 33.3932 59.1541 34.9762C58.8344 35.385 58.4104 35.8693 57.8821 36.4289C57.0341 37.327 56.1243 38.2014 55.1525 39.0523C54.9327 39.2448 54.7466 39.384 54.5939 39.47C54.3259 39.6206 54.077 39.7937 53.7715 39.9051C53.3036 40.0749 52.959 40.2213 52.4379 40.4035C52.1066 40.5192 51.7828 40.7064 51.4481 40.7646Z" fill="white"/>
<path d="M54.8085 49.1932C54.4955 49.2459 54.0087 49.3114 53.3483 49.3896C53.0925 49.4201 52.8125 49.4695 52.5084 49.5377C52.1665 49.6142 51.8882 49.6644 51.6735 49.6883C50.6523 49.8009 50.132 49.8577 50.1126 49.8588C49.9062 49.8738 49.6606 49.916 49.3759 49.9853C48.7416 50.1409 47.994 50.175 47.433 50.1917C47.0378 50.2033 46.6363 50.2341 46.2284 50.284C45.6557 50.3544 45.0843 50.4363 44.5144 50.5295C43.8323 50.5766 43.3986 50.601 43.2133 50.6027C40.8674 50.6193 39.553 50.6362 39.27 50.6534C39.018 50.6684 38.7031 50.7133 38.3251 50.7882C37.7735 50.8969 37.4619 50.9568 37.3903 50.9679C36.7798 51.0622 36.2113 51.2101 35.6846 51.4114C35.0944 51.6377 34.3935 51.8366 33.745 52.1369C32.6955 52.6234 31.6766 53.1731 30.6882 53.786C30.378 53.8881 30.0889 54.0506 29.8208 54.2736C29.8087 54.284 29.7946 54.2919 29.7792 54.2969C29.6438 54.3423 29.5392 54.4061 29.4654 54.4882C29.4637 54.4899 29.4617 54.4913 29.4595 54.4924L29.1382 54.6696C29.1221 54.6779 29.1068 54.6874 29.0924 54.6979L28.7536 54.9384C28.7786 54.6555 28.8022 54.3784 28.8244 54.1072C28.8777 53.4399 28.8044 52.8067 28.7911 52.1544C28.7911 52.1444 28.79 52.1344 28.7877 52.1244L28.7012 51.6776C28.7328 51.7908 28.7972 51.8743 28.8943 51.9281C28.9058 51.9344 28.9185 51.9381 28.9316 51.9389C28.9446 51.9398 28.9578 51.9378 28.9701 51.9331C29.1204 51.8776 29.2442 51.7758 29.3413 51.6277C29.5483 51.3132 29.7956 50.997 30.083 50.6792C30.3061 50.459 30.6943 50.0571 31.2476 49.4736C31.3786 49.3355 31.6694 49.0521 32.12 48.6233C32.3026 48.4497 32.5571 48.2497 32.8834 48.0234C33.2586 47.7632 33.6165 47.4792 33.9573 47.1714C33.9817 47.1498 33.9992 47.1265 34.0097 47.1015C34.1179 47.0707 34.2095 46.9784 34.2869 46.9326C34.9146 46.5593 35.5686 46.2137 36.249 45.8959C36.5029 45.7778 36.7967 45.702 37.049 45.6022C37.2493 45.5234 37.4522 45.456 37.6575 45.4C38.4045 45.1953 39.1529 44.9671 39.9026 44.7153C40.0891 44.6526 40.4634 44.5414 41.0256 44.3816C41.4834 44.2524 41.8572 44.1381 42.1469 44.0388C42.754 43.8319 43.1925 43.6905 43.4622 43.6145C43.7618 43.5302 44.2025 43.3948 44.7841 43.2085C45.0699 43.1169 45.2508 43.0565 45.3269 43.0271C45.5461 42.9417 45.7267 42.8818 45.8688 42.8474C46.2142 42.7633 46.5839 42.5678 46.9193 42.4688C47.4299 42.3174 47.8644 42.1712 48.2229 42.0303C48.3062 41.997 48.4211 41.9854 48.4935 41.9596C48.8082 41.8464 49.6323 41.5372 50.9659 41.0319C51.1479 40.9626 51.333 40.8921 51.5211 40.8206C51.5644 40.805 51.6113 40.7876 51.6618 40.7681C52.3955 40.4852 53.138 40.2121 53.8894 39.9486C54.1525 39.8562 54.3514 39.684 54.6761 39.6133C54.7765 39.5911 54.9342 39.5209 55.1489 39.4028C55.7411 39.0761 56.2103 38.8378 56.5566 38.6881C56.9567 38.515 57.4257 38.2782 57.9634 37.9775C59.2476 37.2598 60.1431 36.7436 60.6498 36.4291C63.2403 34.8233 65.612 32.8972 67.5591 30.5459C68.9809 28.8291 70.0875 27.0089 70.8789 25.0853C70.9705 24.8631 70.9921 24.552 71.1245 24.3514C71.13 24.3428 71.138 24.336 71.1474 24.3319C71.1568 24.3278 71.1673 24.3266 71.1774 24.3285C71.1875 24.3304 71.1968 24.3352 71.2041 24.3424C71.2115 24.3496 71.2165 24.3589 71.2185 24.3689C71.2696 24.6013 71.3001 24.8873 71.3101 25.2267C71.3573 26.893 71.2221 28.546 70.9047 30.1856C70.8287 30.5778 70.761 30.879 70.7016 31.0892C70.5859 31.4977 70.5184 31.9071 70.4052 32.2856C69.9879 33.674 69.4904 34.9318 68.9126 36.0589C68.3657 37.1247 67.7147 38.2587 66.9714 39.2747C65.4336 41.3769 63.6826 43.2534 61.7186 44.9041C61.647 44.964 61.2949 45.2547 60.6622 45.7761C59.8056 46.4817 58.686 47.2596 58.0492 47.7039C57.7689 47.8997 57.1979 48.2583 56.336 48.7797C55.879 49.0559 55.3254 49.0792 54.8085 49.1932Z" fill="white"/>
<path d="M40.5841 37.7253C40.27 37.9389 39.8846 38.1616 39.4279 38.3935C38.8812 38.6714 38.3851 38.8932 37.9395 39.0591L40.5841 37.7253Z" fill="white"/>
<path d="M52.7367 58.4801C52.4853 58.4224 52.2319 58.3639 51.9766 58.3045C51.6742 58.2341 51.4186 58.1911 51.2099 58.1756C50.5262 58.1245 49.9732 58.0932 49.5509 58.0816C49.3228 58.0749 49.0406 58.0261 48.7043 57.9351C48.4529 57.8677 48.2531 57.8794 48.05 57.8195C47.9528 57.7906 47.7872 57.7654 47.553 57.7438C46.6465 57.6597 45.8198 57.6697 44.9433 57.5341C44.2374 57.4254 43.7562 57.3621 43.4998 57.3444C42.9537 57.3072 42.2675 57.275 41.4412 57.2479C40.811 57.2271 40.2066 56.9209 39.6089 56.9375C39.1594 56.95 38.6441 56.9117 38.3161 56.8884C37.5436 56.8335 36.7411 56.8809 36.0144 56.8651C34.8931 56.8402 33.5362 56.8959 32.6571 56.8527C31.9168 56.8166 31.2611 56.8094 30.6901 56.831C30.5669 56.8355 29.8909 56.8435 28.6622 56.8552C28.6341 56.8552 28.6062 56.8501 28.5798 56.8402L28.1777 56.6863C28.3193 56.3551 28.4144 56.1163 28.4633 55.9699C28.5504 55.7114 28.6475 55.3675 28.7546 54.9382L29.0934 54.6977C29.1078 54.6872 29.1231 54.6777 29.1392 54.6694L29.4605 54.4922C29.4628 54.4911 29.4647 54.4897 29.4664 54.488C29.5402 54.4059 29.6448 54.3422 29.7802 54.2967C29.7956 54.2917 29.8097 54.2838 29.8218 54.2734C30.0899 54.0504 30.379 53.8879 30.6892 53.7858C30.9578 53.6849 31.2195 53.5623 31.4742 53.4181C31.9104 53.1718 32.1632 53.032 32.2326 52.9987C32.812 52.7225 33.4349 52.4365 34.1014 52.1409C34.3029 52.051 34.5168 52.0119 34.7208 51.9163C34.9539 51.807 35.233 51.7152 35.5582 51.6409C35.5704 51.6381 35.5824 51.6339 35.594 51.6284L36.2092 51.3422C36.2203 51.3372 36.2323 51.3336 36.245 51.3313C36.8582 51.2431 37.4335 51.1042 37.9707 50.9145C38.0137 50.8996 38.0589 50.8915 38.1047 50.8904C38.5609 50.8787 38.9552 50.8587 39.2876 50.8305C39.5917 50.8038 39.9869 50.7941 40.473 50.8013C41.2472 50.8124 42.1074 50.8094 43.0536 50.7922C43.3383 50.7864 43.5597 50.7106 43.8786 50.6982C44.1055 50.6893 44.3378 50.6566 44.5753 50.6C44.5813 50.5986 44.5865 50.5949 44.5897 50.5896C44.593 50.5843 44.5941 50.5779 44.5928 50.5717C44.5867 50.5423 44.5609 50.5282 44.5154 50.5293C45.0853 50.4361 45.6567 50.3543 46.2294 50.2838C46.6373 50.2339 47.0388 50.2031 47.434 50.1915C47.995 50.1748 48.7426 50.1407 49.3769 49.9851C49.6616 49.9158 49.9072 49.8736 50.1136 49.8587C50.133 49.8575 50.6533 49.8007 51.6745 49.6881C51.8892 49.6642 52.1675 49.614 52.5094 49.5375C52.8135 49.4693 53.0935 49.4199 53.3493 49.3894C54.0098 49.3112 54.4965 49.2457 54.8095 49.193C55.33 49.2058 55.8908 49.0935 56.4918 48.8561C56.5412 48.8367 56.6642 48.8222 56.8606 48.8128C56.9317 48.8089 57.0018 48.7932 57.0679 48.7662C57.2249 48.7019 57.6784 48.5668 58.4281 48.361C58.7483 48.2728 59.1987 48.1289 59.7792 47.9292C60.5642 47.6596 61.3725 47.3842 62.1275 47.0847C63.203 46.6587 64.1851 46.2371 65.0736 45.82C65.3871 45.6725 65.9646 45.3754 66.8059 44.9289C67.5207 44.5495 68.2735 44.0797 69.0643 43.5195C69.8613 42.9548 70.5647 42.412 71.1746 41.8912C72.2928 40.936 73.3112 39.8591 74.2297 38.6604C74.2457 38.6394 74.2597 38.6171 74.2713 38.5939C74.3304 38.4757 74.4777 38.1304 74.6542 38.1429C74.6634 38.1436 74.6723 38.1462 74.6805 38.1505C74.6886 38.1548 74.6958 38.1607 74.7016 38.1679C74.7074 38.175 74.7116 38.1833 74.7141 38.1922C74.7165 38.2011 74.7171 38.2103 74.7158 38.2195C74.5121 39.6234 74.2044 40.9748 73.7926 42.2739C73.6212 42.8147 73.3431 43.4321 73.1225 43.9454C71.9429 46.6903 70.1207 49.0899 67.9089 51.0684C67.1322 51.7632 66.2656 52.477 65.3591 53.0852C63.9831 54.0105 62.5238 54.9323 61.007 55.6795C59.7875 56.2811 59.0558 56.613 57.7963 57.1414C57.3051 57.3477 56.8306 57.536 56.3728 57.7063C55.4843 58.0369 54.9965 58.2205 54.9094 58.2571C54.8844 58.2676 54.8607 58.2805 54.8386 58.2954C54.6083 58.449 54.4099 58.5345 54.2434 58.5517C53.8216 58.596 53.3194 58.5722 52.7367 58.4801Z" fill="white"/>
<path d="M51.4471 40.7646C51.4521 40.7907 51.4768 40.8093 51.5212 40.8204C51.333 40.8919 51.148 40.9624 50.9659 41.0317C49.6323 41.537 48.8082 41.8463 48.4936 41.9594C48.4211 41.9852 48.3063 41.9969 48.223 42.0302C47.8645 42.171 47.43 42.3172 46.9194 42.4686C46.5839 42.5676 46.2143 42.7632 45.8688 42.8472C45.7268 42.8816 45.5461 42.9415 45.3269 43.0269C45.2509 43.0563 45.07 43.1168 44.7842 43.2083C44.2026 43.3947 43.7619 43.53 43.4622 43.6143C43.1925 43.6903 42.7541 43.8318 42.147 44.0387C41.8573 44.138 41.4835 44.2522 41.0256 44.3815C40.4635 44.5412 40.0891 44.6524 39.9027 44.7151C39.1529 44.9669 38.4045 45.1952 37.6576 45.3999C37.4522 45.4559 37.2494 45.5233 37.049 45.602C36.7968 45.7019 36.503 45.7776 36.2491 45.8957C35.5687 46.2136 34.9146 46.5591 34.287 46.9325C34.2096 46.9782 34.118 47.0706 34.0098 47.1013C34.0281 47.0542 34.0517 47.0209 34.0805 47.0015C34.6888 46.5927 35.3395 46.2247 36.0326 45.8974C36.2668 45.787 36.4924 45.6994 36.7094 45.6345C37.0008 45.548 37.288 45.4132 37.6284 45.3183C38.4764 45.082 39.0122 44.9198 39.2359 44.8316C39.656 44.6657 39.9596 44.5609 40.1466 44.5171C40.484 44.4372 40.9521 44.2983 41.5509 44.1002C42.036 43.9399 42.5024 43.7965 42.9503 43.6701C43.6862 43.4626 44.1687 43.3167 44.3979 43.2324C44.6676 43.1331 44.959 43.0308 45.272 42.9254C45.7837 42.7535 46.4421 42.5346 47.2474 42.2689C47.5776 42.1597 47.9403 42.0329 48.3354 41.8887C48.7255 41.7467 49.0879 41.6175 49.4226 41.501C50.1018 41.2647 50.7767 41.0192 51.4471 40.7646Z" fill="white"/>
<path d="M30.5537 43.7874C30.4044 44.037 30.2446 44.2749 30.0742 44.5012C29.8511 44.7985 29.718 44.9774 29.6747 45.0379C29.4383 45.369 29.2476 45.6675 29.1028 45.9331C28.9213 46.2676 28.8184 46.4457 28.7939 46.4673C28.7795 46.4872 28.7673 46.5087 28.7573 46.5314L28.2503 47.697C28.2476 47.7031 28.2462 47.7096 28.2462 47.7162C28.2445 47.8593 28.2037 47.9988 28.1238 48.1347C28.1212 48.1392 28.1173 48.1427 28.1126 48.1449C28.1079 48.1472 28.1027 48.1479 28.0975 48.1471C28.0924 48.1463 28.0877 48.144 28.0839 48.1404C28.0801 48.1369 28.0775 48.1323 28.0764 48.1272L28.0605 48.0523C28.2476 47.4843 28.4304 47.0228 28.6091 46.6678C28.6902 46.507 28.8406 46.2382 29.0603 45.8616C29.2029 45.6181 29.3708 45.3604 29.564 45.0886C29.8803 44.6435 30.1525 44.2134 30.5537 43.7874Z" fill="white"/>
<path d="M34.0106 47.1014C34.0001 47.1263 33.9826 47.1496 33.9582 47.1713C33.6175 47.4791 33.2595 47.7631 32.8843 48.0233C32.558 48.2496 32.3036 48.4495 32.121 48.6231C31.6704 49.0519 31.3796 49.3354 31.2486 49.4735C30.6953 50.057 30.3071 50.4589 30.084 50.6791C30.2255 50.4683 30.3384 50.3188 30.4228 50.2306C30.6742 49.9649 31.1856 49.4505 31.957 48.6872C32.3574 48.2912 32.6429 48.1139 33.1108 47.7736C33.4304 47.5423 33.6519 47.3219 33.9366 47.1155C33.9507 47.1052 33.9678 47.0994 33.9857 47.0989C33.9946 47.0989 34.0029 47.0997 34.0106 47.1014Z" fill="white"/>
<path d="M44.5156 50.5294C44.5611 50.5282 44.5869 50.5424 44.593 50.5718C44.5943 50.578 44.5932 50.5844 44.5899 50.5897C44.5867 50.595 44.5815 50.5987 44.5755 50.6001C44.338 50.6567 44.1058 50.6894 43.8788 50.6983C43.56 50.7107 43.3385 50.7865 43.0538 50.7923C42.1076 50.8095 41.2474 50.8125 40.4732 50.8014C39.9871 50.7942 39.5919 50.8039 39.2878 50.8306C38.9554 50.8588 38.5611 50.8788 38.1049 50.8905C38.0591 50.8916 38.0139 50.8997 37.9709 50.9146C37.4337 51.1043 36.8585 51.2432 36.2452 51.3314C36.2325 51.3336 36.2205 51.3373 36.2094 51.3422L35.5942 51.6285C35.5826 51.634 35.5706 51.6382 35.5585 51.6409C35.2332 51.7153 34.9541 51.8071 34.721 51.9163C34.5171 52.012 34.3031 52.0511 34.1017 52.141C33.4352 52.4366 32.8122 52.7226 32.2328 52.9988C32.1634 53.0321 31.9107 53.1719 31.4745 53.4182C31.2197 53.5624 30.9581 53.685 30.6895 53.7859C31.6778 53.173 32.6968 52.6233 33.7462 52.1368C34.3947 51.8365 35.0956 51.6376 35.6858 51.4113C36.2125 51.21 36.781 51.0621 37.3915 50.9678C37.4631 50.9567 37.7747 50.8968 38.3263 50.7881C38.7043 50.7132 39.0192 50.6683 39.2712 50.6533C39.5542 50.6361 40.8686 50.6192 43.2145 50.6026C43.3998 50.6009 43.8336 50.5765 44.5156 50.5294Z" fill="white"/>
<path d="M17.3815 58.4069C17.4453 58.6937 17.4958 58.8809 17.533 58.9685C17.6923 59.3452 17.8571 59.6658 18.0275 59.9304C18.0743 60.0035 18.1078 60.0847 18.1265 60.17C18.1776 60.4057 18.295 60.6667 18.4787 60.9529C18.5008 60.9872 18.5195 61.0237 18.5344 61.0619C18.6249 61.2915 18.7892 61.6208 19.0272 62.0495C19.2021 62.3632 19.3461 62.7293 19.5658 63.0779C19.8206 63.4831 20.0611 63.999 20.3375 64.4424C21.2449 65.9001 21.9408 66.9726 22.7325 67.9386C22.9484 68.2026 23.2411 68.5756 23.6107 69.0577C23.886 69.4171 24.2303 69.8021 24.6438 70.2125C25.0392 70.6052 25.3239 70.9705 25.6968 71.3749C25.9416 71.6411 26.1938 71.8275 26.3853 72.0555C26.4724 72.1597 26.6286 72.3084 26.8539 72.5014C27.1092 72.7205 27.5368 73.1279 28.1367 73.7237C28.8327 74.4142 29.477 74.9176 30.2528 75.441C30.4027 75.5419 30.5866 75.6809 30.8047 75.8578C30.9945 76.0109 31.1832 76.1451 31.3708 76.2605L32.9833 77.4353L33.3321 77.5984C33.3563 77.6094 33.3783 77.6249 33.397 77.6442C33.8773 78.1492 34.46 78.4238 35.1401 78.8373C35.6754 79.1634 36.2806 79.4122 36.8808 79.7201C37.0667 79.8155 37.3178 79.9303 37.6342 80.0645C39.692 80.9398 41.8422 81.5289 44.0465 82.0373C44.7752 82.2053 45.493 82.3171 46.2001 82.3726C46.2079 82.3731 46.2153 82.3761 46.2213 82.3812C46.2273 82.3863 46.2315 82.3932 46.2332 82.4008C46.235 82.4085 46.2343 82.4165 46.2312 82.4237C46.228 82.4309 46.2227 82.4369 46.2159 82.4408C46.1632 82.4707 46.1038 82.4902 46.0377 82.499C45.7769 82.5356 45.2081 82.6274 44.3312 82.7744C43.1525 82.9716 41.9787 82.9517 40.7941 82.9999H39.7644C39.6967 82.9805 39.6304 82.9805 39.5654 82.9999H36.7359C36.4174 82.986 36.0983 82.9749 35.7786 82.9666C35.4234 82.9572 35.1063 82.9292 34.8271 82.8826C34.2217 82.7811 33.483 82.6771 32.6112 82.5706C32.1639 82.5157 31.7623 82.4494 31.4066 82.3717C30.8222 82.2444 30.3311 82.1854 29.8116 82.0389C29.4931 81.9491 29.0821 81.8476 28.5788 81.7344C28.021 81.6088 27.5299 81.3966 26.9921 81.2577C26.7518 81.1955 26.1796 80.9786 25.2756 80.607C24.6996 80.3696 24.1929 80.1389 23.7556 79.9148C22.9226 79.4871 22.0812 79.0142 21.2316 78.4962C20.683 78.1617 19.9962 77.6633 19.5833 77.3471C18.0916 76.2039 16.7835 74.9875 15.6592 73.6979C14.7385 72.6412 13.8078 71.4597 12.9753 70.2125C12.1579 68.9867 11.4081 67.7095 10.7261 66.381C10.4405 65.8261 9.90193 64.7736 9.57312 63.974C9.31728 63.3511 9.1519 62.9609 9.07698 62.8033C8.95627 62.5496 8.88884 62.146 8.8031 61.9538C8.73262 61.7958 8.63245 61.5009 8.50259 61.0694C8.29198 60.3663 8.01227 59.7548 7.7076 59.0193C7.58273 58.7164 7.44454 58.4285 7.29304 58.1556C6.93092 57.5042 6.6637 56.9509 6.27828 56.3893C5.91367 55.8573 5.70972 55.5619 5.66643 55.5031C4.47547 53.889 2.95431 52.684 1.10294 51.888C0.758308 51.7393 0.407847 51.6143 0.0515585 51.5128C0.0389498 51.5092 0.0275755 51.5022 0.0187024 51.4926C0.00982936 51.483 0.00380606 51.4711 0.00130332 51.4582C-0.00119942 51.4453 -8.32935e-05 51.4321 0.00452745 51.4198C0.00913819 51.4075 0.0170623 51.3968 0.0274174 51.3888C0.0917935 51.3372 0.182253 51.302 0.298796 51.2831C0.660912 51.2249 1.21782 51.0918 1.68316 51.0418C2.94737 50.9048 4.25182 50.8907 5.5965 50.9994C6.3224 51.0585 6.81604 51.1849 7.74589 51.3696C8.08109 51.4368 8.68351 51.6312 9.55314 51.9529C10.3662 52.2535 11.1403 52.6357 11.8757 53.0994C13.4224 54.0746 14.7815 55.2402 15.953 56.5964C16.4591 57.1827 16.9353 57.7862 17.3815 58.4069Z" fill="white"/>
<path d="M45.8038 65.7721C45.69 65.7404 45.5701 65.7008 45.4442 65.6531C44.7738 65.399 44.0909 65.1386 43.3955 64.8718C42.9502 64.7012 42.5164 64.6197 42.1252 64.4624C41.8 64.331 41.5641 64.2508 41.4176 64.222C41.4154 64.2214 41.4134 64.2209 41.4118 64.2203L36.3971 62.5405C35.9498 62.3452 35.4784 62.2071 34.9828 62.1261C34.9557 62.1217 34.9294 62.1147 34.9045 62.1053C34.3174 61.8829 33.7083 61.6993 33.0773 61.5545L29.745 60.6568C29.7533 60.6551 29.7605 60.6537 29.7666 60.6526C29.769 60.6519 29.7711 60.6506 29.7727 60.6489C29.7743 60.6471 29.7754 60.6449 29.7759 60.6427C29.7763 60.6404 29.7761 60.638 29.7752 60.636C29.7743 60.6339 29.7728 60.6322 29.7708 60.631C29.7603 60.6232 29.7486 60.6177 29.7358 60.6143C28.6159 60.2998 27.4935 60.0008 26.3686 59.7174C26.0101 59.6719 25.6574 59.5771 25.3105 59.4329C25.9526 59.11 26.4885 58.7581 26.918 58.377C27.4069 57.9432 27.8268 57.3797 28.1775 56.6863L28.5796 56.8403C28.606 56.8502 28.6339 56.8552 28.662 56.8552C29.8907 56.8436 30.5666 56.8355 30.6898 56.8311C31.2609 56.8095 31.9166 56.8167 32.6569 56.8527C33.536 56.896 34.8929 56.8403 36.0142 56.8652C36.7409 56.881 37.5434 56.8336 38.3159 56.8885C38.6439 56.9118 39.1592 56.9501 39.6087 56.9376C40.2064 56.921 40.8108 57.2272 41.4409 57.248C42.2673 57.2751 42.9535 57.3073 43.4996 57.3445C43.756 57.3622 44.2371 57.4255 44.943 57.5342C45.8196 57.6698 46.6462 57.6598 47.5528 57.7438C47.787 57.7655 47.9526 57.7907 48.0497 57.8196C48.2529 57.8795 48.4526 57.8678 48.704 57.9352C49.0404 58.0262 49.3226 58.075 49.5506 58.0816C49.973 58.0933 50.526 58.1246 51.2097 58.1757C51.4184 58.1912 51.6739 58.2342 51.9764 58.3046C52.2317 58.364 52.485 58.4225 52.7364 58.4802C53.308 58.6177 53.8852 58.6951 54.4679 58.7123C55.201 58.734 55.5887 58.7459 55.6309 58.7481C56.077 58.7703 56.5216 58.7761 56.9644 58.7656C58.404 58.7317 59.4357 58.6804 60.0595 58.6116C60.5972 58.5517 61.256 58.443 62.0357 58.2855C62.8171 58.1274 63.4661 57.9707 63.9828 57.8154C66.5063 57.0583 68.8432 55.8854 70.9937 54.2968C71.4982 53.9235 72.0881 53.47 72.7635 52.9364C72.9125 52.8183 73.0524 52.6435 73.1814 52.567C73.192 52.5607 73.2041 52.5573 73.2164 52.5571C73.2288 52.557 73.2409 52.5601 73.2517 52.5662C73.2624 52.5723 73.2713 52.5811 73.2776 52.5918C73.2838 52.6024 73.2871 52.6145 73.2871 52.6269C73.2879 52.8241 73.1622 52.9855 73.0765 53.1935C72.8123 53.8353 72.5998 54.3178 72.4388 54.6412C71.9832 55.5576 71.4171 56.4686 70.7406 57.3744C69.9787 58.3934 69.1293 59.2845 68.1925 60.0477C67.3492 60.7341 66.3212 61.5237 65.2273 62.1311C64.4593 62.5571 63.8272 62.883 63.331 63.1087C62.145 63.6479 60.8212 64.1446 59.3594 64.5989C58.8888 64.7453 58.4631 64.8626 58.0824 64.9508C57.4306 65.1023 56.9511 65.2487 56.3651 65.371C54.613 65.7349 53.2537 65.9756 52.2869 66.0932C51.1198 66.2358 50.3986 66.3254 50.1234 66.362C49.4349 66.4551 48.7274 66.4585 48.1763 66.4302C48.057 66.4241 47.8513 66.3877 47.5594 66.3212C47.3935 66.2829 47.1956 66.2186 46.9659 66.1282C46.5874 65.9801 46.2 65.8614 45.8038 65.7721Z" fill="white"/>
<path d="M21.6455 59.9945C21.7798 60.0378 21.9019 60.0852 22.0118 60.1368C22.1339 60.195 22.2418 60.2771 22.3356 60.383C22.7751 60.8839 23.2213 61.2001 23.6808 61.7093C24.0782 62.1497 24.5463 62.5765 25.0852 62.9898C25.8777 63.598 26.2398 63.9408 27.0706 64.6463C27.5134 65.0224 27.923 65.2529 28.375 65.6456C28.8079 66.0211 29.1744 66.3076 29.4747 66.5051C29.8265 66.7375 30.0832 66.92 30.2447 67.0526C30.5705 67.3199 30.8172 67.5088 30.9847 67.6192C31.2373 67.7856 31.9568 68.292 33.1433 69.1384C33.3958 69.3182 33.5537 69.4238 33.617 69.4554C33.9411 69.618 34.4852 69.9413 35.2494 70.4256C35.6473 70.6774 36.1573 70.9756 36.7794 71.32C37.1424 71.5208 37.6274 71.7704 38.2346 72.0688C38.729 72.3118 39.2182 72.5553 39.7022 72.7994L41.3088 73.4383C41.3264 73.445 41.3427 73.4542 41.3571 73.4658L41.6501 73.6963C41.6694 73.7112 41.6907 73.7238 41.7134 73.7337C42.6318 74.1242 43.371 74.4071 43.931 74.5824C44.1857 74.6617 44.7715 74.8317 45.6883 75.0924C46.1689 75.2294 46.6123 75.334 47.0186 75.4061C47.9109 75.5647 48.3577 75.644 48.3588 75.644C49.4904 75.8399 50.9208 76.0074 52.6501 76.1466C54.0852 76.2622 55.4604 76.2514 56.9222 76.3421C57.1497 76.356 57.3565 76.3992 57.5424 76.4719C57.5513 76.4753 57.5589 76.4815 57.5641 76.4895C57.5694 76.4976 57.5719 76.507 57.5715 76.5165C57.571 76.5259 57.5675 76.535 57.5616 76.5422C57.5556 76.5495 57.5474 76.5546 57.5382 76.5568C57.3318 76.6117 57.102 76.6674 56.8864 76.7548C55.2076 77.4348 53.4856 77.9637 51.7202 78.3415C51.5687 78.3736 50.9311 78.484 49.8073 78.6726C49.0636 78.7974 48.4215 78.8779 47.881 78.9139C46.079 79.0332 44.5631 79.0639 43.3333 79.0063C42.5175 78.968 41.4006 78.8756 39.9827 78.7292C39.2146 78.6499 37.7537 78.4058 35.5998 77.997C35.0329 77.8897 34.3678 77.6101 33.7119 77.581C33.6854 77.5799 33.6592 77.5746 33.6344 77.5652L33.0975 77.3539C32.9072 77.3095 32.7615 77.2424 32.6605 77.1525C32.3075 76.838 32.0753 76.6394 31.9637 76.5568C31.8194 76.4497 31.6216 76.351 31.3702 76.2606C31.1826 76.1452 30.9939 76.011 30.8041 75.8579C30.586 75.6809 30.402 75.542 30.2522 75.441C29.4763 74.9177 28.832 74.4143 28.1361 73.7237C27.5362 73.128 27.1086 72.7206 26.8533 72.5015C26.628 72.3085 26.4718 72.1598 26.3846 72.0555C26.1932 71.8275 25.9409 71.6412 25.6962 71.3749C25.3233 70.9706 25.0386 70.6053 24.6431 70.2126C24.2297 69.8021 23.8853 69.4172 23.6101 69.0577C23.2405 68.5757 22.9477 68.2027 22.7318 67.9387C21.9402 66.9727 21.2443 65.9002 20.3369 64.4425C20.0605 63.999 19.8199 63.4832 19.5652 63.078C19.3454 62.7294 19.2014 62.3633 19.0266 62.0496C18.7885 61.6208 18.6243 61.2916 18.5338 61.062C18.5189 61.0238 18.5002 60.9873 18.478 60.953C18.2943 60.6668 18.177 60.4058 18.1259 60.17C18.1072 60.0847 18.0736 60.0036 18.0268 59.9304C17.8565 59.6658 17.6916 59.3452 17.5324 58.9686C17.4952 58.881 17.4447 58.6938 17.3809 58.407C17.569 58.6033 17.763 58.7509 17.9627 58.8496C18.2313 58.9827 18.5951 59.1525 19.0541 59.3588C19.5197 59.5679 19.894 59.711 20.1771 59.7881C20.6665 59.9202 21.156 59.9889 21.6455 59.9945Z" fill="white"/>
<path d="M25.3109 59.4329C25.6578 59.5771 26.0105 59.6719 26.369 59.7174C26.3606 59.7457 26.3748 59.7651 26.4114 59.7757C27.5186 60.0885 28.6299 60.3822 29.7454 60.6568L33.0777 61.5545C33.9812 61.904 34.8924 62.1735 35.8114 62.3633C35.8502 62.371 35.8879 62.3833 35.9238 62.3999C36.0798 62.4709 36.2377 62.5177 36.3975 62.5405L41.4122 64.2203C41.4138 64.2209 41.4158 64.2214 41.418 64.222C41.5645 64.2508 41.8004 64.331 42.1256 64.4625C42.5168 64.6197 42.9505 64.7012 43.3959 64.8718C44.0913 65.1386 44.7741 65.399 45.4445 65.6531C45.5705 65.7008 45.6904 65.7404 45.8042 65.7721C46.5201 66.0472 46.9865 66.2222 47.2035 66.2971C47.3317 66.342 47.5382 66.3553 47.6747 66.4119C48.0526 66.5708 48.5138 66.6266 48.9109 66.7572C49.9939 67.1158 51.0852 67.3446 52.264 67.58C52.9258 67.7115 53.6883 67.7673 54.2419 67.843C55.528 68.0177 57.0331 68.0884 58.4166 67.9961C59.1367 67.9486 59.5812 67.9628 60.1772 67.8762C61.0305 67.7539 61.9603 67.6699 62.8702 67.4536C64.105 67.1613 64.8634 66.9699 65.1453 66.8795C65.6598 66.7147 66.1983 66.5325 66.7611 66.3328C66.8366 66.3057 66.9031 66.3004 66.9609 66.317C66.976 66.3214 66.9897 66.3295 67.0007 66.3407C67.0117 66.3519 67.0196 66.3658 67.0236 66.381C67.0277 66.3962 67.0277 66.4121 67.0237 66.4273C67.0197 66.4425 67.0118 66.4564 67.0008 66.4676C66.5213 66.9494 66.066 67.4952 65.4799 67.9986C64.395 68.9315 63.2778 69.6881 62.1285 70.2683C61.2983 70.6877 60.3412 71.0959 59.2574 71.4931C58.4016 71.8076 57.8339 71.9216 56.7775 72.1978C55.4389 72.5481 54.2369 72.7295 52.6061 72.9649C52.0217 73.0492 51.4443 73.1155 50.8738 73.1638C47.9763 73.4078 45.1163 73.4855 42.2937 73.3967C42.2044 73.394 41.9841 73.3954 41.6328 73.4009C41.5939 73.4015 41.5001 73.3773 41.3514 73.3285C40.6732 73.1066 40.2936 72.9868 40.2126 72.9691C40.1873 72.963 40.1633 72.9526 40.1418 72.9383C40.002 72.8446 39.8558 72.7982 39.7031 72.7993C39.2192 72.5553 38.73 72.3118 38.2355 72.0688C37.6284 71.7704 37.1434 71.5208 36.7804 71.32C36.1583 70.9755 35.6483 70.6774 35.2504 70.4256C34.4862 69.9413 33.942 69.618 33.6179 69.4554C33.5547 69.4238 33.3968 69.3182 33.1443 69.1384C31.9578 68.292 31.2382 67.7856 30.9857 67.6192C30.8181 67.5088 30.5715 67.3199 30.2457 67.0525C30.0842 66.92 29.8275 66.7375 29.4757 66.5051C29.1754 66.3076 28.8089 66.0211 28.376 65.6456C27.924 65.2529 27.5144 65.0224 27.0716 64.6463C26.2408 63.9408 25.8787 63.598 25.0862 62.9898C24.5473 62.5765 24.0792 62.1497 23.6818 61.7093C23.2223 61.2001 22.7761 60.8839 22.3366 60.383C22.2428 60.2771 22.1349 60.195 22.0128 60.1368C21.9029 60.0852 21.7808 60.0377 21.6465 59.9945C22.9168 60.0072 24.1383 59.82 25.3109 59.4329Z" fill="white"/>
<path d="M29.744 60.6569C28.6285 60.3823 27.5172 60.0886 26.41 59.7758C26.3734 59.7652 26.3592 59.7458 26.3675 59.7175C27.4925 60.001 28.6149 60.2999 29.7348 60.6145C29.7476 60.6178 29.7592 60.6233 29.7698 60.6311C29.7717 60.6323 29.7732 60.634 29.7741 60.6361C29.775 60.6382 29.7753 60.6405 29.7748 60.6428C29.7744 60.6451 29.7733 60.6472 29.7716 60.649C29.77 60.6508 29.7679 60.6521 29.7656 60.6527C29.7595 60.6538 29.7523 60.6552 29.744 60.6569Z" fill="white"/>
<path d="M36.3979 62.5404C36.2381 62.5176 36.0802 62.4708 35.9243 62.3998C35.8883 62.3832 35.8506 62.3709 35.8119 62.3632C34.8929 62.1735 33.9816 61.9039 33.0781 61.5544C33.7091 61.6992 34.3182 61.8828 34.9054 62.1052C34.9303 62.1147 34.9565 62.1216 34.9836 62.126C35.4792 62.207 35.9506 62.3451 36.3979 62.5404Z" fill="white"/>
<path d="M33.0984 77.3538C33.0285 77.3549 32.9902 77.3821 32.9836 77.4353L31.3711 76.2605C31.6225 76.3509 31.8203 76.4496 31.9646 76.5567C32.0762 76.6393 32.3084 76.8379 32.6614 77.1524C32.7624 77.2423 32.9081 77.3094 33.0984 77.3538Z" fill="white"/>
<path d="M39.7634 82.9999H39.5645C39.6294 82.9805 39.6957 82.9805 39.7634 82.9999Z" fill="white"/>
<path d="M93.3201 46.5794L92.2499 43.6332C92.2455 43.6185 92.245 43.6029 92.2482 43.5879C92.2515 43.5728 92.2584 43.5588 92.2685 43.5472C92.2785 43.5355 92.2913 43.5265 92.3057 43.521C92.3201 43.5155 92.3357 43.5137 92.351 43.5157C93.6038 43.7284 94.3987 43.8039 94.7358 43.7424C94.8838 43.7119 95.0171 43.6321 95.1136 43.5162C95.2101 43.4002 95.264 43.255 95.2667 43.1045L95.3425 36.7254C95.3436 36.6586 95.3314 36.5922 95.3065 36.5301C95.2815 36.468 95.2445 36.4115 95.1974 36.3639C95.1504 36.3162 95.0942 36.2784 95.0323 36.2525C94.9704 36.2267 94.904 36.2134 94.8369 36.2134H86.5787C86.5178 36.2134 86.4576 36.2015 86.4013 36.1783C86.3451 36.1551 86.294 36.1211 86.251 36.0782C86.2079 36.0353 86.1738 35.9844 86.1505 35.9284C86.1272 35.8724 86.1152 35.8124 86.1152 35.7518V33.8968C86.1152 33.8208 86.142 33.7467 86.1911 33.687L90.3117 28.8439C90.3777 28.7687 90.4202 28.6763 90.4341 28.5775C90.448 28.4787 90.4327 28.3779 90.3901 28.2868C90.3475 28.1957 90.2794 28.1184 90.1938 28.0639C90.1082 28.0094 90.0087 27.9801 89.9072 27.9794H84.8428C84.7042 27.9794 84.5713 27.9246 84.4733 27.827C84.3754 27.7294 84.3203 27.597 84.3203 27.459V25.369C84.3203 25.2399 84.3718 25.1161 84.4635 25.0248C84.5551 24.9335 84.6794 24.8822 84.8091 24.8822H91.4072C91.7854 24.8825 92.1509 24.7351 92.4269 24.4709C92.91 24.0065 93.2836 23.2762 93.5476 22.2802C93.5842 22.1448 93.6639 22.0249 93.7749 21.9386C93.8859 21.8523 94.022 21.8042 94.1628 21.8018C96.0391 21.785 96.9099 22.5936 96.775 24.2275C96.7692 24.2971 96.778 24.3671 96.8007 24.4331C96.8235 24.4992 96.8598 24.5597 96.9074 24.611C96.9549 24.6624 97.0127 24.7033 97.0769 24.7311C97.1412 24.759 97.2106 24.7733 97.2807 24.7731H106.339C106.612 24.7731 106.874 24.881 107.066 25.073C107.259 25.265 107.367 25.5255 107.367 25.7971V27.0981C107.367 27.3296 107.275 27.5516 107.111 27.7153C106.946 27.879 106.724 27.971 106.491 27.971H96.0756C95.709 27.9708 95.3471 28.0495 95.0153 28.2017C94.6835 28.3539 94.3897 28.5759 94.1543 28.8523L91.0701 32.4867C91.0087 32.5573 90.9689 32.6441 90.9556 32.7366C90.9423 32.8291 90.956 32.9235 90.9951 33.0085C91.0342 33.0935 91.097 33.1654 91.1761 33.2158C91.2551 33.2661 91.3471 33.2928 91.4409 33.2925H94.6347C94.7515 33.292 94.8669 33.2671 94.9732 33.2195C95.0796 33.1719 95.1746 33.1025 95.2518 33.016C95.3291 32.9296 95.3869 32.828 95.4214 32.7179C95.4559 32.6078 95.4664 32.4918 95.4521 32.3776C95.2948 30.9619 95.2189 30.2372 95.2245 30.2037C95.2942 29.8231 95.495 29.4787 95.7923 29.2298C96.0896 28.9808 96.4647 28.843 96.8531 28.84C97.2414 28.8371 97.6187 28.9691 97.9198 29.2134C98.2209 29.4577 98.4269 29.799 98.5025 30.1785C98.5362 30.3408 98.4969 31.0878 98.3846 32.4195C98.3764 32.528 98.3906 32.637 98.4264 32.7397C98.4621 32.8424 98.5185 32.9365 98.5921 33.0161C98.6657 33.0957 98.7549 33.1591 98.854 33.2024C98.9532 33.2456 99.0602 33.2677 99.1682 33.2673H105.463C105.595 33.2673 105.721 33.3195 105.815 33.4123C105.908 33.5052 105.96 33.6312 105.96 33.7625V35.7266C105.96 35.8512 105.91 35.9708 105.822 36.0589C105.733 36.1471 105.613 36.1966 105.488 36.1966H98.9913C98.846 36.1966 98.7067 36.2541 98.604 36.3564C98.5013 36.4587 98.4435 36.5975 98.4435 36.7422V44.2628C98.4435 44.5116 98.3888 44.7553 98.2834 44.9762C97.5082 46.5542 95.9408 47.1613 93.5813 46.7976C93.5222 46.7876 93.4669 46.7622 93.421 46.7238C93.375 46.6855 93.3402 46.6356 93.3201 46.5794Z" fill="white"/>
<path d="M159.9 27.6284C159.848 27.606 159.792 27.5968 159.736 27.6016C159.68 27.6064 159.626 27.6251 159.579 27.656C159.533 27.6869 159.494 27.7289 159.468 27.7784C159.442 27.8278 159.428 27.8831 159.428 27.9391V31.9859C159.429 32.1483 159.461 32.3092 159.525 32.4592C159.589 32.6091 159.682 32.7451 159.799 32.8591C159.9 32.9654 160.189 33.2313 160.665 33.6567C160.835 33.8054 160.966 33.9997 161.042 34.2152C161.117 34.4307 161.134 34.658 161.09 34.8685C161.046 35.079 160.943 35.2635 160.794 35.3989C160.645 35.5343 160.457 35.6146 160.253 35.6297C159.782 35.6689 159.546 35.9851 159.546 36.5785C159.529 39.3995 159.473 42.1869 159.378 44.9408C159.37 45.1283 159.313 45.311 159.213 45.4713C159.113 45.6316 158.973 45.7641 158.806 45.856C157.802 46.4157 156.8 46.7795 155.802 46.9474C155.692 46.9652 155.581 46.96 155.474 46.9321C155.367 46.9042 155.267 46.8542 155.18 46.7854C155.094 46.7166 155.023 46.6304 154.972 46.5325C154.921 46.4346 154.891 46.3271 154.884 46.217C154.851 45.6741 154.691 45.1787 154.405 44.7309C154.35 44.6456 154.32 44.5472 154.317 44.446C154.314 44.3449 154.338 44.2448 154.387 44.1563C154.436 44.0677 154.508 43.9941 154.596 43.943C154.683 43.8919 154.783 43.8654 154.884 43.8661H156.466C156.551 43.8661 156.636 43.8494 156.714 43.8169C156.793 43.7844 156.864 43.7368 156.925 43.6768C156.985 43.6167 157.032 43.5455 157.065 43.467C157.098 43.3886 157.114 43.3045 157.114 43.2196V36.5701C157.114 36.3719 157.035 36.1818 156.895 36.0417C156.755 35.9015 156.564 35.8228 156.365 35.8228H153.429C153.322 35.8226 153.216 35.8442 153.118 35.8862C153.02 35.9283 152.932 35.9899 152.859 36.0672C152.787 36.1445 152.731 36.2358 152.696 36.3353C152.66 36.4349 152.646 36.5405 152.654 36.6456C152.896 40.0544 152.416 43.4127 151.216 46.7207C151.172 46.8411 151.1 46.9489 151.005 47.0353C150.91 47.1216 150.796 47.1839 150.671 47.2168C150.546 47.2497 150.415 47.2524 150.289 47.2245C150.163 47.1966 150.045 47.139 149.945 47.0566L148.91 46.175C148.724 46.0202 148.598 45.8062 148.552 45.5691C148.506 45.3321 148.543 45.0864 148.657 44.8736C149.678 42.9762 150.22 40.2307 150.281 36.6372C150.284 36.4509 150.227 36.2689 150.117 36.1189C150.008 35.9689 149.853 35.859 149.676 35.806C149.648 35.8004 149.541 35.7753 149.356 35.7305C149.085 35.6656 148.836 35.516 148.646 35.3049C148.457 35.0938 148.338 34.8332 148.308 34.5637C148.278 34.2942 148.339 34.0311 148.482 33.8153C148.624 33.5996 148.84 33.4434 149.095 33.3712C149.65 33.2145 149.962 32.7471 150.029 31.9691C150.259 29.3272 150.433 27.3765 150.551 26.1171C150.565 25.9389 150.636 25.7695 150.754 25.6325C150.872 25.4954 151.03 25.3978 151.207 25.3531C152.918 24.9445 153.883 24.0797 154.102 22.7588C154.146 22.4887 154.287 22.2435 154.498 22.0679C154.71 21.8922 154.978 21.7977 155.255 21.8016H155.516C155.691 21.806 155.858 21.8787 155.981 22.0042C156.103 22.1297 156.172 22.298 156.172 22.4733V24.2281C156.172 24.3519 156.208 24.4727 156.277 24.5747C156.347 24.6766 156.445 24.7548 156.559 24.799C159.179 25.8289 161.877 26.0808 164.654 25.5546C164.748 25.5388 164.833 25.4906 164.894 25.4184C164.956 25.3463 164.99 25.2548 164.991 25.16V23.0526C164.991 22.8478 165.072 22.6513 165.217 22.5064C165.363 22.3616 165.559 22.2802 165.765 22.2802H166.665C166.911 22.2802 167.146 22.3775 167.32 22.5507C167.493 22.7239 167.591 22.9588 167.591 23.2038V24.8158C167.591 25.0095 167.668 25.1953 167.805 25.3323C167.943 25.4693 168.129 25.5462 168.323 25.5462H171.748C172.007 25.5462 172.255 25.6479 172.438 25.829C172.621 26.0101 172.724 26.2557 172.724 26.5117V27.133C172.724 27.2704 172.696 27.4064 172.642 27.5329C172.588 27.6595 172.509 27.7739 172.409 27.8695C172.309 27.965 172.191 28.0398 172.062 28.0892C171.932 28.1387 171.794 28.1618 171.655 28.1573C168.026 28.0454 164.713 28.0034 161.717 28.0314C161.111 28.037 160.506 27.9027 159.9 27.6284ZM154.741 28.1406C155.482 28.8794 156.102 29.1593 156.601 28.9801C156.786 28.9194 156.934 28.7939 157.018 28.6276C157.101 28.4613 157.114 28.2659 157.054 28.0788C156.993 27.8917 156.864 27.7261 156.69 27.6135C156.517 27.501 156.311 27.4495 156.113 27.4689C155.131 27.536 154.365 27.3989 153.816 27.0575C153.699 26.9871 153.566 26.9487 153.43 26.9461C153.294 26.9435 153.159 26.9769 153.041 27.0428C152.923 27.1087 152.825 27.2047 152.757 27.3209C152.689 27.4371 152.653 27.5694 152.654 27.704V32.0279C152.654 32.3612 152.782 32.6822 153.011 32.9256C153.241 33.1689 153.556 33.3163 153.891 33.3376C155.019 33.4048 155.866 33.3544 156.433 33.1865C156.551 33.1495 156.656 33.0794 156.735 32.9847C156.815 32.8899 156.865 32.7747 156.88 32.6529C156.895 32.5311 156.874 32.408 156.82 32.2985C156.766 32.189 156.681 32.0979 156.576 32.0363C156.29 31.8683 155.799 31.7648 155.103 31.7256C154.766 31.7091 154.448 31.5753 154.203 31.3478C153.378 30.5754 153.384 29.5259 154.22 28.1993C154.247 28.1568 154.283 28.1209 154.325 28.0942C154.368 28.0675 154.416 28.0507 154.466 28.0451C154.516 28.0394 154.567 28.0451 154.615 28.0616C154.662 28.0781 154.706 28.1051 154.741 28.1406Z" fill="white"/>
<path d="M188.122 27.818C187.371 27.4338 186.642 27.3175 185.936 27.469C185.811 27.4956 185.697 27.5563 185.607 27.6441C185.516 27.7318 185.454 27.8428 185.427 27.964C185.221 28.9108 185.376 29.7954 185.894 30.6178L183.198 30.7395C183.09 30.745 182.981 30.7289 182.879 30.6923C182.777 30.6556 182.684 30.5991 182.605 30.5262C182.526 30.4533 182.463 30.3655 182.42 30.2682C182.377 30.171 182.355 30.0662 182.355 29.9604V25.7891C182.355 25.5007 182.473 25.2241 182.683 25.0201C182.893 24.8162 183.177 24.7016 183.474 24.7016H190.868C190.996 24.7021 191.121 24.6673 191.23 24.6014C191.339 24.5354 191.428 24.4408 191.485 24.3283C191.764 23.7656 191.908 23.2706 191.919 22.8432C191.926 22.6559 192.007 22.4784 192.146 22.3481C192.284 22.2179 192.469 22.1452 192.662 22.1453H193.914C194.098 22.1453 194.274 22.2171 194.404 22.3449C194.534 22.4728 194.607 22.6462 194.607 22.827V24.0686C194.607 24.2516 194.682 24.427 194.817 24.5564C194.951 24.6858 195.134 24.7584 195.324 24.7584H203.252C203.399 24.7584 203.545 24.7868 203.68 24.8418C203.816 24.8969 203.939 24.9776 204.043 25.0793C204.147 25.1811 204.229 25.3018 204.286 25.4348C204.342 25.5677 204.371 25.7101 204.371 25.854V29.7981C204.371 30.0155 204.283 30.224 204.126 30.3777C203.97 30.5314 203.757 30.6178 203.536 30.6178H202.359C202.123 30.6178 201.895 30.5263 201.728 30.3634C201.561 30.2006 201.466 29.9797 201.466 29.7494V28.451C201.467 28.2018 201.37 27.9616 201.196 27.778C201.021 27.5945 200.781 27.4813 200.523 27.4609C196.863 27.1904 192.879 27.139 188.573 27.3067C188.423 27.3121 188.311 27.3608 188.239 27.4528C188.156 27.5556 188.117 27.6773 188.122 27.818Z" fill="white"/>
<path d="M128.813 24.6294H139.155C139.347 24.6294 139.53 24.7065 139.665 24.8439C139.801 24.9812 139.877 25.1674 139.877 25.3616V26.6241C139.877 26.7937 139.81 26.9564 139.692 27.0764C139.574 27.1963 139.414 27.2637 139.247 27.2637H127.303C127.059 27.2635 126.818 27.3169 126.596 27.4201C126.374 27.5233 126.178 27.6739 126.02 27.8613L125.718 28.2063C125.632 28.3092 125.577 28.4346 125.559 28.5678C125.542 28.7009 125.562 28.8364 125.619 28.9583C125.675 29.0801 125.765 29.1834 125.877 29.2559C125.99 29.3284 126.121 29.3672 126.255 29.3678H137.763C137.941 29.3686 138.113 29.4351 138.246 29.5545C138.379 29.6739 138.464 29.838 138.484 30.0158L138.92 33.9547C138.953 34.2368 139.087 34.4973 139.298 34.6869C139.974 35.3041 140.338 36.011 140.388 36.8078C140.398 36.9428 140.357 37.0767 140.273 37.1828C140.189 37.2889 140.069 37.3593 139.935 37.3801C138.56 37.5933 137.989 38.4686 138.224 40.006C138.245 40.1489 138.296 40.2858 138.374 40.4077C138.453 40.5296 138.556 40.6336 138.677 40.7129C139.605 41.2909 140.011 42.0203 139.893 42.9012C139.876 43.0275 139.826 43.1475 139.75 43.2504C139.674 43.3533 139.573 43.4358 139.457 43.4903L138.207 44.0795C138.099 44.13 138.002 44.2016 137.922 44.2898C137.843 44.3781 137.783 44.4813 137.746 44.5929C136.874 47.1065 134.925 48.2006 131.9 47.8752C131.783 47.8624 131.671 47.8193 131.575 47.7499C131.479 47.6805 131.403 47.5874 131.355 47.4796C130.801 46.2621 130.692 45.2437 131.028 44.4245C131.049 44.372 131.058 44.3153 131.054 44.2588C131.051 44.2023 131.035 44.1475 131.007 44.0987C130.98 44.0499 130.941 44.0084 130.896 43.9773C130.85 43.9463 130.797 43.9265 130.742 43.9196C128.805 43.6586 127.178 43.2715 125.651 44.8622C125.181 45.3559 124.432 45.5692 123.403 45.5018C123.323 45.4967 123.245 45.4733 123.175 45.4334C123.106 45.3935 123.046 45.3382 123.001 45.2717C122.955 45.2052 122.926 45.1292 122.914 45.0495C122.902 44.9698 122.909 44.8884 122.933 44.8117C123.727 42.2812 124.186 40.1491 124.309 38.4153C124.321 38.1836 124.249 37.9553 124.108 37.772C123.966 37.5888 123.763 37.4627 123.537 37.4168C123.31 37.3709 123.074 37.4083 122.873 37.522C122.671 37.6358 122.517 37.8184 122.439 38.0366L119.209 47.3197C119.205 47.3325 119.197 47.344 119.187 47.3531C119.176 47.3622 119.164 47.3687 119.151 47.372C119.138 47.3754 119.124 47.3754 119.111 47.3721C119.098 47.3689 119.085 47.3625 119.075 47.3534L116.425 45.0978C116.364 45.0475 116.324 44.9759 116.314 44.8967C116.303 44.8174 116.321 44.7362 116.366 44.6686C117.96 42.3177 119.072 39.7731 119.704 37.035C119.719 36.9728 119.748 36.9149 119.79 36.866C119.831 36.8171 119.883 36.7784 119.941 36.7531C120 36.7278 120.063 36.7165 120.127 36.7202C120.191 36.7238 120.253 36.7423 120.308 36.7741L121.508 37.4727C121.572 37.5081 121.644 37.5265 121.717 37.5258C121.791 37.5251 121.862 37.5055 121.925 37.4689C121.988 37.4322 122.04 37.3799 122.076 37.317C122.111 37.2542 122.129 37.1831 122.128 37.1108V35.2592C122.128 35.1543 122.169 35.0537 122.241 34.9795C122.314 34.9053 122.412 34.8636 122.514 34.8636H124.032C124.195 34.8634 124.352 34.8047 124.475 34.6981C124.598 34.5916 124.679 34.4442 124.703 34.2829L125.316 30.1084C125.322 30.0521 125.31 29.9952 125.282 29.9462C125.253 29.8972 125.21 29.8589 125.158 29.837C125.106 29.8152 125.048 29.8109 124.993 29.825C124.938 29.839 124.889 29.8705 124.854 29.9148C124.15 30.8687 123.535 31.2502 123.009 31.0595C122.905 31.0209 122.814 30.9537 122.749 30.8659C122.212 30.086 121.851 29.3004 121.667 28.5093C121.649 28.4372 121.649 28.3618 121.666 28.2895C121.683 28.2173 121.718 28.1502 121.766 28.0941C121.815 28.038 121.876 27.9944 121.945 27.9671C122.014 27.9397 122.088 27.9294 122.162 27.937C122.229 27.9482 122.265 27.9538 122.271 27.9538C122.578 27.905 122.856 27.7462 123.051 27.5078C124.264 25.9928 125.111 24.3769 125.592 22.66C125.642 22.4853 125.756 22.3362 125.91 22.2437C126.065 22.1513 126.249 22.1225 126.423 22.1634C127.86 22.5001 128.497 23.1313 128.335 24.0571C128.323 24.1272 128.326 24.1991 128.344 24.2678C128.363 24.3365 128.396 24.4003 128.441 24.4548C128.487 24.5094 128.544 24.5532 128.608 24.5834C128.672 24.6135 128.742 24.6292 128.813 24.6294ZM130.004 34.7458L129.66 31.7917C129.656 31.7529 129.644 31.7153 129.626 31.6811C129.607 31.647 129.582 31.6169 129.551 31.5926C129.521 31.5683 129.486 31.5504 129.448 31.5398C129.411 31.5291 129.372 31.5261 129.333 31.5308L129.124 31.556C128.915 31.5801 128.714 31.6413 128.53 31.736C128.346 31.8307 128.183 31.9571 128.051 32.108C127.92 32.2589 127.822 32.4313 127.762 32.6153C127.703 32.7993 127.684 32.9913 127.706 33.1804L127.782 33.8452C127.803 34.0344 127.866 34.217 127.966 34.3825C128.066 34.548 128.201 34.6931 128.364 34.8096C128.527 34.9261 128.714 35.0116 128.915 35.0613C129.116 35.1111 129.326 35.1239 129.535 35.0993L129.744 35.074C129.783 35.0699 129.82 35.058 129.854 35.0392C129.888 35.0204 129.918 34.995 129.943 34.9644C129.967 34.9339 129.985 34.8989 129.995 34.8613C130.006 34.8238 130.009 34.7845 130.004 34.7458ZM132.143 32.0862L133.343 34.3586C133.458 34.574 133.63 34.7534 133.84 34.877C134.05 35.0006 134.29 35.0637 134.534 35.0593C134.777 35.055 135.015 34.9834 135.221 34.8523C135.426 34.7213 135.592 34.5359 135.699 34.3166C135.822 34.0641 135.864 33.4861 135.825 32.5828C135.818 32.425 135.765 32.2724 135.671 32.1438C135.577 32.0152 135.447 31.9162 135.297 31.859C134.587 31.5953 133.608 31.5336 132.361 31.6738C132.316 31.6778 132.273 31.693 132.235 31.7183C132.197 31.7435 132.166 31.778 132.145 31.8187C132.123 31.8594 132.112 31.9051 132.112 31.9517C132.111 31.9983 132.122 32.0445 132.143 32.0862ZM129.962 40.9234C130.041 40.8945 130.113 40.848 130.172 40.7872C130.23 40.7265 130.274 40.653 130.301 40.5722C130.328 40.4914 130.336 40.4054 130.325 40.3205C130.314 40.2356 130.285 40.154 130.239 40.0817C129.725 39.3018 129.459 38.7295 129.442 38.3648C129.429 38.1026 129.323 37.8538 129.143 37.6637C128.962 37.4737 128.72 37.355 128.459 37.3295C128.199 37.304 127.938 37.3733 127.724 37.5247C127.51 37.6761 127.358 37.8996 127.295 38.1544L126.85 39.9639C126.809 40.1356 126.836 40.3167 126.925 40.469C127.014 40.6213 127.159 40.7329 127.329 40.7803C128.48 41.0945 129.358 41.1422 129.962 40.9234ZM133.737 39.9891C133.591 40.107 133.494 40.2276 133.443 40.351C133.365 40.525 133.39 40.6681 133.519 40.7803C133.636 40.8813 133.837 40.929 134.123 40.9234C134.171 40.921 134.217 40.908 134.26 40.8854C134.302 40.8627 134.339 40.831 134.368 40.7925C134.397 40.7539 134.417 40.7094 134.427 40.6622C134.436 40.615 134.436 40.5663 134.425 40.5194C134.419 40.4969 134.405 40.4296 134.383 40.3174C134.685 40.4352 134.903 40.4408 135.037 40.3342C135.225 40.1873 135.374 39.9957 135.47 39.7759C135.566 39.5561 135.606 39.3147 135.587 39.0727C135.568 38.8306 135.49 38.5952 135.361 38.3868C135.231 38.1784 135.054 38.0033 134.844 37.8767C134.285 37.5456 133.617 37.4979 132.839 37.7336C132.779 37.7516 132.724 37.7817 132.676 37.8219C132.628 37.8621 132.589 37.9116 132.561 37.9675C132.533 38.0234 132.516 38.0844 132.512 38.1469C132.508 38.2094 132.517 38.2721 132.537 38.3311C132.75 38.9652 133.15 39.5178 133.737 39.9891ZM134.215 44.1C134.208 44.052 134.167 44.0097 134.094 43.9758C134.022 43.9418 133.92 43.9167 133.794 43.9019C133.668 43.8871 133.52 43.883 133.359 43.8897C133.198 43.8964 133.028 43.9138 132.857 43.9409C132.686 43.9681 132.519 44.0044 132.364 44.0479C132.209 44.0913 132.07 44.1411 131.954 44.1942C131.839 44.2474 131.749 44.3029 131.691 44.3577C131.633 44.4125 131.607 44.4654 131.614 44.5134C131.622 44.5614 131.663 44.6037 131.735 44.6377C131.808 44.6716 131.91 44.6967 132.036 44.7115C132.162 44.7263 132.31 44.7304 132.47 44.7237C132.631 44.717 132.802 44.6996 132.972 44.6725C133.143 44.6453 133.311 44.609 133.466 44.5655C133.621 44.5221 133.76 44.4723 133.875 44.4192C133.991 44.366 134.08 44.3105 134.139 44.2557C134.197 44.2009 134.223 44.148 134.215 44.1Z" fill="white"/>
<path d="M186.624 30.7353C187.906 30.4311 188.739 29.7453 189.124 28.6777C190.043 28.9762 190.799 29.4755 191.393 30.1757C191.487 30.284 191.558 30.4123 191.599 30.5518C191.641 30.6914 191.653 30.8389 191.635 30.9843C191.617 31.1298 191.569 31.2697 191.495 31.3946C191.42 31.5195 191.321 31.6265 191.204 31.7082L184.322 36.4174C184.101 36.5673 183.832 36.6197 183.573 36.5633C183.315 36.5068 183.089 36.346 182.944 36.116L182.119 34.8075C182.067 34.7243 182.033 34.6307 182.019 34.5328C182.005 34.4349 182.011 34.3349 182.037 34.2396C182.063 34.1444 182.107 34.0559 182.169 33.9801C182.23 33.9043 182.305 33.843 182.391 33.8002C183.783 33.1057 184.809 32.592 185.469 32.2591C186.211 31.8803 186.597 31.3724 186.624 30.7353Z" fill="white"/>
<path d="M121.199 32.057L118.786 29.9305C118.428 29.6155 117.883 29.6498 117.568 30.0071L116.859 30.8111C116.544 31.1684 116.578 31.7134 116.935 32.0285L119.349 34.1549C119.706 34.47 120.251 34.4357 120.567 34.0784L121.276 33.2743C121.591 32.917 121.557 32.372 121.199 32.057Z" fill="white"/>
<path d="M204.368 33.5148L197.301 29.3706C196.822 29.0897 196.206 29.2501 195.925 29.7288L195.442 30.5521C195.161 31.0308 195.321 31.6465 195.8 31.9273L202.867 36.0716C203.346 36.3524 203.962 36.192 204.243 35.7134L204.726 34.89C205.007 34.4113 204.847 33.7956 204.368 33.5148Z" fill="white"/>
<path d="M172.084 41.699L173.576 42.9708C173.655 43.0408 173.711 43.1331 173.738 43.2358C173.765 43.3385 173.761 43.447 173.727 43.5473L172.822 46.1758C172.758 46.3659 172.645 46.5352 172.494 46.6664C172.344 46.7976 172.162 46.8858 171.967 46.9219C170.665 47.1593 169.505 47.1282 168.488 46.8286C168.215 46.7478 167.974 46.5793 167.804 46.3484C167.633 46.1175 167.541 45.8367 167.541 45.5483V33.7374C167.541 33.4833 167.442 33.2396 167.266 33.0599C167.09 32.8802 166.852 32.7793 166.603 32.7793H165.999C165.877 32.7792 165.756 32.8039 165.644 32.852C165.531 32.9 165.429 32.9704 165.344 33.0589C165.259 33.1474 165.192 33.2523 165.148 33.3674C165.103 33.4825 165.082 33.6054 165.086 33.7289C165.22 38.477 164.951 43.1912 162.227 47.5154C162.209 47.5465 162.179 47.5695 162.144 47.5804C162.108 47.5913 162.07 47.5893 162.035 47.5748C161.157 47.23 160.375 46.7297 159.688 46.074C159.667 46.0532 159.654 46.025 159.653 45.9951C159.651 45.9653 159.661 45.9359 159.68 45.9129C161.171 44.1663 162.032 42.3914 162.261 40.5882C162.417 39.3503 162.54 36.1991 162.63 31.1344C162.632 30.938 162.712 30.7503 162.851 30.6122C162.991 30.4741 163.179 30.3967 163.376 30.3967H169.695C169.835 30.3967 169.97 30.453 170.069 30.5532C170.168 30.6534 170.223 30.7892 170.223 30.9309V43.5219C170.223 43.6208 170.262 43.7157 170.331 43.7857C170.4 43.8557 170.494 43.895 170.592 43.895H170.869C171.029 43.895 171.182 43.8298 171.295 43.7137C171.409 43.5976 171.472 43.4402 171.472 43.276V41.9872C171.471 41.9149 171.49 41.8437 171.528 41.7822C171.566 41.7208 171.62 41.6718 171.685 41.6413C171.75 41.6107 171.822 41.5999 171.893 41.6101C171.964 41.6204 172.03 41.6512 172.084 41.699Z" fill="white"/>
<path d="M193.359 36.5854C195.832 36.591 198.348 36.6022 200.909 36.6189C201.075 36.6199 201.238 36.6543 201.39 36.7201C201.542 36.7859 201.68 36.8817 201.794 37.0019C201.908 37.1221 201.997 37.2641 202.056 37.4195C202.114 37.575 202.141 37.7406 202.134 37.9066V38.3498C202.134 38.4826 202.108 38.6142 202.058 38.7369C202.008 38.8597 201.934 38.9712 201.841 39.0652C201.748 39.1591 201.638 39.2336 201.517 39.2845C201.396 39.3353 201.265 39.3615 201.134 39.3615H195.634C195.484 39.3615 195.34 39.4214 195.234 39.528C195.127 39.6347 195.068 39.7793 195.068 39.9301V43.35C195.068 43.523 195.136 43.6889 195.258 43.8112C195.38 43.9335 195.545 44.0022 195.718 44.0022H204.451C204.531 44.0022 204.611 44.0183 204.685 44.0495C204.76 44.0807 204.827 44.1264 204.884 44.1839C204.94 44.2415 204.985 44.3098 205.015 44.3848C205.045 44.4598 205.06 44.5401 205.059 44.621L205.026 46.5191C205.025 46.5742 205.013 46.6285 204.989 46.6785C204.966 46.7284 204.932 46.7727 204.89 46.8084C204.849 46.8441 204.8 46.8703 204.747 46.8853C204.694 46.9003 204.638 46.9037 204.584 46.8953C204.556 46.8898 200.815 46.887 193.359 46.887C185.91 46.887 182.168 46.8898 182.135 46.8953C182.081 46.9024 182.026 46.898 181.975 46.8824C181.923 46.8668 181.875 46.8404 181.834 46.8048C181.793 46.7693 181.76 46.7254 181.737 46.6762C181.714 46.6269 181.702 46.5734 181.701 46.5191L181.668 44.621C181.667 44.5401 181.682 44.4598 181.712 44.3848C181.742 44.3098 181.787 44.2415 181.843 44.1839C181.9 44.1264 181.967 44.0807 182.042 44.0495C182.116 44.0183 182.196 44.0022 182.276 44.0022H191.009C191.182 44.0022 191.347 43.9335 191.469 43.8112C191.591 43.6889 191.659 43.523 191.659 43.35V39.9301C191.659 39.8554 191.645 39.7815 191.616 39.7125C191.588 39.6435 191.546 39.5808 191.493 39.528C191.441 39.4752 191.378 39.4334 191.31 39.4048C191.241 39.3762 191.167 39.3615 191.093 39.3615H185.593C185.462 39.3615 185.332 39.3353 185.21 39.2845C185.089 39.2336 184.979 39.1591 184.886 39.0652C184.793 38.9712 184.719 38.8597 184.669 38.7369C184.619 38.6142 184.593 38.4826 184.593 38.3498V37.9066C184.586 37.7406 184.613 37.575 184.671 37.4195C184.73 37.2641 184.819 37.1221 184.933 37.0019C185.047 36.8817 185.185 36.7859 185.337 36.7201C185.489 36.6543 185.652 36.6199 185.818 36.6189C188.379 36.6022 190.893 36.591 193.359 36.5854Z" fill="white"/>
<path d="M155.004 36.7868L154.273 36.8842C153.86 36.9393 153.57 37.3183 153.625 37.7309L154.02 40.6858C154.075 41.0984 154.454 41.3882 154.867 41.3332L155.598 41.2357C156.01 41.1807 156.3 40.8016 156.245 40.389L155.851 37.4341C155.796 37.0215 155.416 36.7317 155.004 36.7868Z" fill="white"/>
<path d="M101.702 36.9426L99.5738 38.759C99.4824 38.8371 99.4715 38.9745 99.5497 39.0659L105.698 46.2613C105.776 46.3527 105.914 46.3635 106.005 46.2854L108.133 44.469C108.225 44.3909 108.235 44.2535 108.157 44.162L102.009 36.9667C101.931 36.8753 101.793 36.8645 101.702 36.9426Z" fill="white"/>
<path d="M93.0204 38.8604L91.4776 37.3713C91.2246 37.1271 90.8215 37.1342 90.5772 37.387L84.443 43.7359C84.1987 43.9888 84.2058 44.3917 84.4587 44.6358L86.0016 46.125C86.2545 46.3691 86.6576 46.3621 86.9019 46.1092L93.0361 39.7603C93.2804 39.5075 93.2734 39.1046 93.0204 38.8604Z" fill="white"/>
<path d="M288.98 67.8229C288.979 67.7428 288.999 67.6639 289.037 67.5944C289.076 67.5249 289.131 67.4672 289.198 67.4273C289.265 67.3873 289.341 67.3666 289.418 67.3671C289.496 67.3676 289.571 67.3894 289.638 67.4302C290.945 68.2241 294.794 69.2059 295.995 67.5156C296.139 67.3137 296.235 67.08 296.277 66.8316C296.319 66.5832 296.306 66.3263 296.238 66.0794C296.17 65.8326 296.05 65.602 295.885 65.4044C295.721 65.2069 295.517 65.0473 295.288 64.9373C292.87 63.7848 289.753 62.5896 288.98 60.7541C288.05 58.5515 289.161 56.4002 291.258 55.5379C293.709 54.5362 296.203 54.5646 298.742 55.6233C298.807 55.6506 298.864 55.6977 298.903 55.7586C298.943 55.8195 298.964 55.8913 298.964 55.9648V58.0991C298.964 58.1173 298.959 58.1353 298.951 58.1514C298.943 58.1675 298.931 58.1812 298.916 58.1914C298.901 58.2015 298.885 58.2077 298.867 58.2095C298.85 58.2113 298.832 58.2085 298.816 58.2015C297.154 57.4758 293.273 56.3745 292.228 58.4918C292.139 58.6714 292.088 58.8685 292.077 59.0704C292.066 59.2723 292.096 59.4748 292.165 59.6649C292.233 59.8551 292.34 60.0288 292.477 60.1752C292.614 60.3215 292.778 60.4372 292.96 60.5151C295.436 61.5737 299.597 62.675 299.942 65.3044C300.293 67.9851 299.043 69.7836 296.192 70.6999C294.92 71.1097 292.801 71.0471 289.835 70.5121C289.596 70.4698 289.379 70.3403 289.222 70.1466C289.066 69.9529 288.98 69.7073 288.98 69.4535V67.8229Z" fill="white"/>
<path d="M150.366 62.6826V68.7567C150.366 68.9574 150.304 69.154 150.188 69.3206C150.072 69.4872 149.907 69.6159 149.715 69.6899C143.909 71.9062 135.266 70.4065 135.583 62.666C135.875 55.4671 144.326 54.6922 149.515 56.042C149.739 56.0993 149.938 56.2295 150.08 56.412C150.222 56.5945 150.299 56.819 150.299 57.0502V58.0833C150.298 58.1774 150.275 58.27 150.232 58.3537C150.189 58.4373 150.127 58.5096 150.05 58.5648C149.974 58.6199 149.886 58.6564 149.793 58.6712C149.7 58.686 149.604 58.6787 149.515 58.6499C145.861 57.4946 143.044 57.664 141.064 59.1582C138.578 61.0412 138.553 65.1239 141.105 67.057C142.134 67.8402 143.703 68.2457 145.811 68.2735C146.906 68.2846 147.404 67.2764 147.304 65.2489C147.289 64.9807 147.172 64.7284 146.976 64.544C146.781 64.3596 146.522 64.257 146.253 64.2574H144.709C144.501 64.2574 144.302 64.174 144.155 64.0256C144.008 63.8771 143.925 63.6758 143.925 63.4659V63.0076C143.925 62.7711 144.019 62.5444 144.187 62.3772C144.354 62.21 144.581 62.1161 144.818 62.1161L149.798 62.1077C149.949 62.1077 150.093 62.1683 150.2 62.2761C150.306 62.3839 150.366 62.5302 150.366 62.6826Z" fill="white"/>
<path d="M159.821 61.6822C160.876 61.6822 161.896 61.6906 162.883 61.7074C162.943 61.7085 163.003 61.6978 163.059 61.676C163.115 61.6541 163.166 61.6215 163.209 61.5801C163.252 61.5387 163.286 61.4892 163.309 61.4347C163.333 61.3802 163.345 61.3216 163.345 61.2625V55.7388C163.345 55.5829 163.408 55.4334 163.52 55.3232C163.632 55.213 163.785 55.1511 163.943 55.1511H166.33C166.401 55.1511 166.473 55.1652 166.539 55.1927C166.605 55.2201 166.666 55.2603 166.717 55.3109C166.767 55.3616 166.808 55.4218 166.835 55.488C166.863 55.5542 166.877 55.6251 166.877 55.6968C166.854 58.2935 166.843 60.6889 166.843 62.8827C166.843 65.0821 166.854 67.4802 166.877 70.077C166.877 70.2202 166.82 70.3577 166.72 70.4598C166.619 70.5619 166.482 70.6204 166.338 70.6226H163.952C163.873 70.6237 163.794 70.6093 163.72 70.5803C163.647 70.5513 163.58 70.5082 163.523 70.4535C163.467 70.3988 163.422 70.3337 163.391 70.2618C163.36 70.19 163.345 70.1129 163.345 70.035V64.5112C163.345 64.4528 163.333 64.395 163.31 64.341C163.287 64.287 163.254 64.238 163.212 64.1966C163.17 64.1553 163.12 64.1226 163.065 64.1002C163.01 64.0778 162.951 64.0663 162.891 64.0663C161.899 64.0831 160.879 64.0915 159.829 64.0915C158.775 64.0915 157.754 64.0831 156.768 64.0663C156.707 64.0652 156.647 64.0759 156.591 64.0978C156.535 64.1196 156.485 64.1522 156.441 64.1936C156.398 64.2351 156.364 64.2845 156.341 64.339C156.318 64.3936 156.306 64.4521 156.306 64.5112V70.035C156.306 70.1908 156.243 70.3403 156.13 70.4505C156.018 70.5607 155.866 70.6226 155.707 70.6226H153.321C153.249 70.6226 153.178 70.6085 153.111 70.5811C153.045 70.5537 152.985 70.5135 152.934 70.4628C152.883 70.4121 152.843 70.352 152.815 70.2858C152.788 70.2196 152.773 70.1486 152.773 70.077C152.796 67.4802 152.808 65.0849 152.808 62.8911C152.808 60.6916 152.796 58.2935 152.773 55.6968C152.773 55.5535 152.83 55.416 152.931 55.3139C153.032 55.2118 153.169 55.1533 153.312 55.1511H155.698C155.857 55.1511 156.01 55.213 156.122 55.3232C156.234 55.4334 156.297 55.5829 156.297 55.7388L156.306 61.2625C156.306 61.3805 156.353 61.4937 156.438 61.5771C156.524 61.6605 156.639 61.7074 156.759 61.7074C157.751 61.6906 158.772 61.6822 159.821 61.6822Z" fill="white"/>
<path d="M176.693 66.8368C176.063 66.8368 175.277 66.834 174.332 66.8284C174.181 66.8261 174.032 66.8719 173.907 66.9594C173.783 67.0469 173.688 67.1716 173.636 67.3163L172.659 70.0253C172.599 70.1953 172.489 70.3423 172.343 70.4463C172.198 70.5502 172.025 70.6059 171.847 70.6058L170.033 70.589C169.969 70.59 169.905 70.5752 169.848 70.5459C169.791 70.5167 169.741 70.4738 169.704 70.4209C169.666 70.368 169.642 70.3067 169.633 70.2422C169.624 70.1777 169.63 70.1119 169.652 70.0505L174.846 55.6559C174.901 55.5074 175 55.3796 175.129 55.2894C175.257 55.1993 175.41 55.151 175.566 55.1511C176.036 55.1511 176.42 55.1511 176.718 55.1511C177.011 55.1511 177.394 55.1539 177.869 55.1595C178.024 55.1612 178.175 55.2102 178.302 55.3002C178.429 55.3903 178.527 55.5172 178.582 55.6643L183.71 70.0842C183.731 70.1456 183.737 70.2114 183.728 70.2758C183.719 70.3403 183.695 70.4016 183.658 70.4545C183.62 70.5074 183.571 70.5503 183.513 70.5796C183.456 70.6089 183.393 70.6236 183.329 70.6226H181.514C181.339 70.6216 181.168 70.5663 181.025 70.4641C180.881 70.3619 180.772 70.2176 180.711 70.0505L179.733 67.3331C179.682 67.1898 179.589 67.066 179.466 66.9787C179.342 66.8913 179.196 66.8447 179.046 66.8452C178.101 66.8452 177.317 66.8424 176.693 66.8368ZM174.655 64.1025C174.637 64.1618 174.633 64.2246 174.643 64.2859C174.653 64.3471 174.677 64.4051 174.714 64.4551C174.75 64.505 174.797 64.5456 174.852 64.5736C174.907 64.6015 174.967 64.6159 175.028 64.6157L178.259 64.641C178.319 64.6408 178.378 64.6264 178.432 64.5989C178.486 64.5715 178.533 64.5317 178.569 64.4828C178.605 64.4339 178.629 64.3771 178.64 64.317C178.651 64.2568 178.648 64.195 178.632 64.1362L177.058 58.8781C177.031 58.7999 176.982 58.732 176.916 58.6839C176.85 58.6358 176.77 58.6099 176.689 58.6099C176.608 58.6099 176.528 58.6358 176.462 58.6839C176.396 58.732 176.346 58.7999 176.32 58.8781L174.655 64.1025Z" fill="white"/>
<path d="M189.204 55.2924L187.043 55.2848C186.71 55.2837 186.439 55.5526 186.437 55.8856L186.388 70.1044C186.387 70.4373 186.656 70.7082 186.989 70.7094L189.15 70.7169C189.483 70.7181 189.755 70.4491 189.756 70.1161L189.805 55.8974C189.806 55.5644 189.537 55.2935 189.204 55.2924Z" fill="white"/>
<path d="M205.804 55.1511C206.108 55.1511 206.503 55.1539 206.987 55.1595C207.147 55.1617 207.301 55.2118 207.431 55.303C207.561 55.3943 207.66 55.5224 207.715 55.6705L212.948 70.0866C212.97 70.1468 212.976 70.2113 212.967 70.2746C212.957 70.3379 212.933 70.3983 212.895 70.4507C212.857 70.5031 212.806 70.546 212.748 70.5759C212.69 70.6058 212.625 70.6218 212.559 70.6227H210.699C210.519 70.6227 210.342 70.5673 210.194 70.4639C210.046 70.3605 209.933 70.2142 209.871 70.0447L208.881 67.3307C208.831 67.1864 208.736 67.0613 208.61 66.9728C208.484 66.8842 208.334 66.8366 208.18 66.8364C207.21 66.8364 206.404 66.8364 205.761 66.8364C205.119 66.8309 204.313 66.8253 203.343 66.8197C203.189 66.8175 203.037 66.8631 202.91 66.9502C202.782 67.0372 202.686 67.1615 202.633 67.3055L201.627 70.0112C201.563 70.1804 201.448 70.326 201.298 70.4279C201.148 70.5298 200.971 70.5832 200.79 70.5808L198.93 70.5724C198.864 70.5707 198.799 70.5537 198.741 70.5228C198.682 70.4918 198.633 70.4479 198.595 70.3946C198.558 70.3413 198.535 70.2802 198.527 70.2164C198.518 70.1526 198.526 70.088 198.549 70.0279L203.893 55.6537C203.949 55.5059 204.05 55.3786 204.182 55.2888C204.313 55.1991 204.469 55.151 204.628 55.1511C205.108 55.1511 205.499 55.1511 205.804 55.1511ZM203.707 64.2732C203.695 64.3145 203.693 64.3579 203.701 64.4001C203.709 64.4423 203.727 64.482 203.753 64.5161C203.78 64.5503 203.813 64.5779 203.852 64.5968C203.891 64.6157 203.934 64.6254 203.977 64.625L207.596 64.558C207.64 64.5566 207.683 64.5449 207.721 64.5239C207.76 64.503 207.793 64.4734 207.817 64.4375C207.842 64.4016 207.858 64.3604 207.864 64.3173C207.869 64.2742 207.864 64.2304 207.85 64.1894L205.939 58.6609C205.92 58.6052 205.883 58.557 205.834 58.5236C205.784 58.4901 205.726 58.4731 205.666 58.4749C205.607 58.4768 205.55 58.4975 205.503 58.534C205.456 58.5704 205.422 58.6208 205.406 58.6777L203.707 64.2732Z" fill="white"/>
<path d="M219.186 55.1511H216.386C216.21 55.1511 216.066 55.2906 216.066 55.4626V70.3112C216.066 70.4832 216.21 70.6227 216.386 70.6227H219.186C219.363 70.6227 219.506 70.4832 219.506 70.3112V55.4626C219.506 55.2906 219.363 55.1511 219.186 55.1511Z" fill="white"/>
<path d="M235.977 70.0051C236.008 70.0712 236.022 70.144 236.018 70.2167C236.013 70.2895 235.99 70.3598 235.95 70.4214C235.91 70.4829 235.855 70.5336 235.791 70.5688C235.726 70.604 235.653 70.6225 235.579 70.6227H233.545C233.378 70.6223 233.214 70.575 233.073 70.4863C232.932 70.3977 232.819 70.2713 232.748 70.122L230.104 64.5641C230.036 64.417 229.926 64.2924 229.788 64.2051C229.65 64.1178 229.489 64.0715 229.325 64.0717H227.045C226.915 64.0717 226.79 64.1218 226.698 64.211C226.605 64.3002 226.554 64.4212 226.554 64.5474V70.2305C226.554 70.3345 226.512 70.4342 226.437 70.5078C226.362 70.5813 226.261 70.6227 226.155 70.6227H223.723C223.666 70.6227 223.61 70.6119 223.558 70.5909C223.505 70.5699 223.458 70.5392 223.418 70.5005C223.377 70.4617 223.346 70.4157 223.324 70.3651C223.302 70.3145 223.291 70.2602 223.291 70.2054V55.5096C223.291 55.4561 223.303 55.4033 223.327 55.3551C223.351 55.3068 223.385 55.2644 223.428 55.2308C223.471 55.1972 223.522 55.1733 223.576 55.1609C223.63 55.1485 223.686 55.1479 223.74 55.1591C223.881 55.1869 226.336 55.2286 231.104 55.2843C232.607 55.301 233.819 55.81 234.74 56.8114C234.92 57.0105 235.065 57.2358 235.172 57.479C236.24 60.0716 235.652 62.1189 233.409 63.6211C233.31 63.6887 233.239 63.7888 233.208 63.9034C233.177 64.018 233.188 64.1398 233.24 64.247L235.977 70.0051ZM226.342 57.5875L226.359 61.7267C226.359 61.7779 226.369 61.8285 226.389 61.8756C226.409 61.9227 226.439 61.9654 226.476 62.0012C226.513 62.0369 226.557 62.065 226.605 62.0838C226.654 62.1026 226.705 62.1117 226.757 62.1106L230.299 62.0939C230.96 62.0892 231.592 61.872 232.056 61.4902C232.52 61.1084 232.778 60.5931 232.774 60.0577V59.1898C232.772 58.9245 232.705 58.6622 232.578 58.4179C232.451 58.1737 232.266 57.9522 232.033 57.7662C231.8 57.5802 231.524 57.4333 231.221 57.334C230.917 57.2346 230.593 57.1846 230.265 57.187L226.723 57.2037C226.621 57.2058 226.524 57.2472 226.453 57.319C226.382 57.3908 226.342 57.4872 226.342 57.5875Z" fill="white"/>
<path d="M242.522 68.1186H249.086C249.178 68.1186 249.266 68.155 249.331 68.2198C249.397 68.2846 249.433 68.3725 249.433 68.4642V70.277C249.433 70.3687 249.397 70.4566 249.331 70.5214C249.266 70.5862 249.178 70.6227 249.086 70.6227H239.117C239.071 70.6227 239.026 70.6137 238.984 70.5963C238.942 70.579 238.903 70.5535 238.871 70.5214C238.839 70.4893 238.813 70.4512 238.796 70.4093C238.779 70.3673 238.77 70.3224 238.77 70.277V55.4968C238.77 55.4514 238.779 55.4065 238.796 55.3645C238.813 55.3226 238.839 55.2845 238.871 55.2524C238.903 55.2203 238.942 55.1948 238.984 55.1774C239.026 55.1601 239.071 55.1511 239.117 55.1511H241.827C241.919 55.1511 242.008 55.1875 242.073 55.2524C242.138 55.3172 242.174 55.4051 242.174 55.4968V67.7729C242.174 67.8183 242.183 67.8632 242.201 67.9052C242.218 67.9471 242.244 67.9852 242.276 68.0173C242.308 68.0494 242.347 68.0749 242.389 68.0922C242.431 68.1096 242.476 68.1186 242.522 68.1186Z" fill="white"/>
<path d="M254.63 55.1511H251.806C251.636 55.1511 251.498 55.2862 251.498 55.4528V70.3209C251.498 70.4876 251.636 70.6227 251.806 70.6227H254.63C254.8 70.6227 254.938 70.4876 254.938 70.3209V55.4528C254.938 55.2862 254.8 55.1511 254.63 55.1511Z" fill="white"/>
<path d="M261.355 61.2958V70.2278C261.355 70.3165 261.321 70.4016 261.259 70.4644C261.198 70.5271 261.114 70.5623 261.027 70.5623H258.754C258.654 70.5623 258.558 70.5209 258.488 70.4472C258.417 70.3735 258.377 70.2735 258.377 70.1693V55.7259C258.377 55.6433 258.395 55.5616 258.429 55.4866C258.463 55.4115 258.512 55.3448 258.574 55.2908C258.635 55.2369 258.707 55.1971 258.785 55.174C258.863 55.151 258.945 55.1452 259.025 55.1572L260.387 55.3663C260.488 55.3823 260.583 55.4321 260.658 55.5085L268.764 63.7714C268.799 63.8063 268.843 63.8298 268.892 63.8389C268.94 63.848 268.989 63.8424 269.034 63.8226C269.079 63.8029 269.117 63.77 269.144 63.7281C269.17 63.6862 269.184 63.6372 269.183 63.5874V56.0521C269.183 55.8147 269.275 55.5871 269.44 55.4193C269.604 55.2515 269.828 55.1572 270.061 55.1572H271.267C271.497 55.1572 271.719 55.2506 271.882 55.4169C272.045 55.5831 272.136 55.8086 272.136 56.0437V69.6173C272.136 69.8159 272.078 70.0102 271.97 70.1756C271.861 70.3409 271.708 70.4699 271.528 70.546C271.349 70.6222 271.152 70.6421 270.962 70.6034C270.773 70.5646 270.599 70.4688 270.463 70.3282L261.528 61.2206C261.514 61.2046 261.496 61.1934 261.475 61.1886C261.455 61.1839 261.434 61.1858 261.415 61.1942C261.395 61.2026 261.379 61.2169 261.369 61.2352C261.358 61.2535 261.353 61.2747 261.355 61.2958Z" fill="white"/>
<path d="M286.223 62.8827C286.223 63.1964 286.212 63.4289 286.191 63.5802C286.166 63.7197 286.094 63.8457 285.987 63.9363C285.881 64.027 285.747 64.0764 285.608 64.076H279.3C279.189 64.076 279.083 64.1212 279.004 64.2016C278.926 64.2819 278.882 64.391 278.882 64.5046V67.7822C278.882 67.9047 278.93 68.0223 279.016 68.109C279.103 68.1957 279.219 68.2444 279.341 68.2444H285.756C285.884 68.2444 286.007 68.2966 286.098 68.3896C286.189 68.4826 286.24 68.6087 286.24 68.7402V70.026C286.24 70.1842 286.178 70.336 286.069 70.4479C285.96 70.5598 285.812 70.6227 285.657 70.6227H275.871C275.8 70.6227 275.731 70.5934 275.68 70.5414C275.629 70.4894 275.601 70.4189 275.601 70.3453C275.601 69.9868 275.595 67.5048 275.584 62.8995C275.579 58.2942 275.576 55.8122 275.576 55.4537C275.576 55.3801 275.605 55.3096 275.655 55.2576C275.706 55.2055 275.775 55.1763 275.847 55.1763L285.633 55.1511C285.787 55.1511 285.935 55.214 286.045 55.3259C286.154 55.4378 286.215 55.5895 286.215 55.7478L286.223 57.0336C286.223 57.1651 286.172 57.2912 286.082 57.3842C285.991 57.4772 285.868 57.5294 285.739 57.5294L279.325 57.5462C279.203 57.5462 279.086 57.5949 279 57.6816C278.914 57.7683 278.865 57.8859 278.865 58.0084L278.874 61.2859C278.874 61.3429 278.885 61.3994 278.906 61.4519C278.928 61.5045 278.959 61.5521 278.999 61.592C279.039 61.6319 279.086 61.6633 279.138 61.6844C279.189 61.7054 279.245 61.7157 279.3 61.7146L285.608 61.6977C285.745 61.6993 285.877 61.7497 285.982 61.8401C286.087 61.9306 286.158 62.0555 286.182 62.1936C286.21 62.3448 286.223 62.5746 286.223 62.8827Z" fill="white"/>
<path d="M83.9766 55.4477C83.9766 55.3803 84.003 55.3157 84.0501 55.268C84.0972 55.2204 84.161 55.1936 84.2276 55.1936L90.7954 55.1513C91.8826 55.145 92.9601 55.3278 93.9665 55.6892C94.973 56.0506 95.8885 56.5835 96.6608 57.2575C97.4332 57.9315 98.0472 58.7333 98.4677 59.6171C98.8883 60.5009 99.1072 61.4495 99.1119 62.4085V63.2384C99.1215 65.1735 98.2597 67.0339 96.7159 68.4106C95.1721 69.7874 93.0727 70.5678 90.8791 70.5803L84.3112 70.6227C84.2447 70.6227 84.1808 70.5959 84.1338 70.5482C84.0867 70.5006 84.0602 70.436 84.0602 70.3686L83.9766 55.4477ZM87.3483 57.7256L87.2981 67.9044C87.297 67.9384 87.3027 67.9724 87.3148 68.0042C87.3269 68.036 87.3452 68.065 87.3686 68.0895C87.3921 68.114 87.4201 68.1335 87.4511 68.1468C87.4821 68.1601 87.5155 68.1669 87.5491 68.1669L90.0257 68.1754C91.4626 68.183 92.8434 67.6762 93.8647 66.7663C94.8859 65.8565 95.4642 64.618 95.4724 63.3231V62.4085C95.4765 61.7664 95.3401 61.1297 95.071 60.5349C94.802 59.94 94.4055 59.3986 93.9043 58.9417C93.4031 58.4847 92.807 58.1212 92.1501 57.8719C91.4932 57.6225 90.7884 57.4922 90.0759 57.4885L87.5993 57.48C87.5342 57.48 87.4716 57.5056 87.4248 57.5514C87.3779 57.5972 87.3505 57.6597 87.3483 57.7256Z" fill="white"/>
<path d="M116.655 63.7053C116.657 64.6117 116.48 65.5095 116.134 66.3475C115.789 67.1855 115.281 67.9472 114.641 68.5893C114.001 69.2313 113.24 69.741 112.403 70.0893C111.565 70.4377 110.667 70.6178 109.76 70.6193L107.754 70.6228C106.846 70.6244 105.948 70.4475 105.109 70.1021C104.271 69.7567 103.508 69.2496 102.866 68.6098C102.223 67.97 101.713 67.21 101.365 66.3733C101.016 65.5365 100.836 64.6393 100.834 63.7329L100.832 62.4126C100.83 61.5063 101.008 60.6084 101.353 59.7705C101.699 58.9325 102.206 58.1707 102.847 57.5287C103.487 56.8867 104.247 56.3769 105.085 56.0286C105.922 55.6803 106.82 55.5002 107.727 55.4986L109.734 55.4951C110.641 55.4935 111.54 55.6705 112.378 56.0159C113.217 56.3613 113.979 56.8684 114.622 57.5082C115.264 58.148 115.774 58.9079 116.123 59.7447C116.471 60.5815 116.652 61.4787 116.653 62.3851L116.655 63.7053ZM108.754 57.5441C108.146 57.542 107.543 57.681 106.98 57.9532C106.417 58.2255 105.905 58.6256 105.473 59.1308C105.041 59.636 104.698 60.2363 104.463 60.8975C104.228 61.5587 104.105 62.2678 104.103 62.9844C104.1 63.7009 104.218 64.4108 104.448 65.0737C104.679 65.7365 105.018 66.3392 105.446 66.8474C105.875 67.3555 106.384 67.7592 106.945 68.0354C107.506 68.3115 108.108 68.4548 108.716 68.4569C109.325 68.459 109.928 68.32 110.491 68.0477C111.054 67.7755 111.566 67.3754 111.998 66.8702C112.43 66.365 112.773 65.7647 113.008 65.1035C113.243 64.4423 113.365 63.7332 113.368 63.0166C113.37 62.3001 113.253 61.5901 113.023 60.9273C112.792 60.2645 112.453 59.6618 112.025 59.1536C111.596 58.6455 111.087 58.2418 110.526 57.9656C109.965 57.6894 109.363 57.5462 108.754 57.5441Z" fill="white"/>
<path d="M127.098 61.6959C128.571 63.1661 129.404 63.9882 129.597 64.1621C129.637 64.1976 129.686 64.2209 129.739 64.2294C129.792 64.2378 129.847 64.231 129.896 64.2097C129.945 64.1884 129.987 64.1536 130.017 64.1093C130.047 64.0651 130.063 64.0133 130.064 63.9601V55.7365C130.064 55.6382 130.104 55.544 130.174 55.4746C130.244 55.4051 130.339 55.3661 130.438 55.3661H132.792C132.891 55.3661 132.987 55.4051 133.057 55.4746C133.127 55.544 133.166 55.6382 133.166 55.7365V69.3892C133.167 69.6314 133.096 69.8685 132.961 70.0706C132.826 70.2728 132.634 70.431 132.409 70.5254C132.184 70.6198 131.936 70.6463 131.695 70.6014C131.455 70.5564 131.234 70.4422 131.059 70.273C130.039 69.2966 127.951 67.2344 124.795 64.0863C123.322 62.6105 122.486 61.7856 122.288 61.6117C122.248 61.5762 122.199 61.5529 122.146 61.5444C122.093 61.536 122.038 61.5428 121.989 61.5641C121.94 61.5854 121.898 61.6202 121.868 61.6645C121.838 61.7087 121.822 61.7605 121.821 61.8137V70.0373C121.821 70.1356 121.781 70.2298 121.711 70.2992C121.641 70.3687 121.546 70.4077 121.447 70.4077H119.093C118.994 70.4077 118.898 70.3687 118.828 70.2992C118.758 70.2298 118.719 70.1356 118.719 70.0373V56.3846C118.718 56.1424 118.789 55.9053 118.924 55.7032C119.059 55.501 119.251 55.3428 119.476 55.2484C119.701 55.1539 119.949 55.1275 120.19 55.1724C120.43 55.2173 120.651 55.3316 120.826 55.5008C121.846 56.4772 123.937 58.5422 127.098 61.6959Z" fill="white"/>
</svg>
