<svg width="300" height="68" viewBox="0 0 300 68" fill="none" xmlns="http://www.w3.org/2000/svg">
<path d="M196.534 3.48813C196.438 3.48666 196.345 3.46661 196.257 3.42912C196.17 3.39163 196.091 3.33744 196.025 3.26963C195.958 3.20183 195.906 3.12174 195.871 3.03394C195.836 2.94614 195.819 2.85236 195.82 2.75794L195.843 1.38182C195.849 1.01115 195.964 0.657399 196.163 0.398307C196.361 0.139215 196.627 -0.00401766 196.902 8.57993e-05L198.611 0.0337864C198.747 0.0357718 198.881 0.0739725 199.006 0.146203C199.131 0.218434 199.243 0.323278 199.337 0.454739C199.431 0.5862 199.505 0.741699 199.554 0.912341C199.604 1.08298 199.627 1.26542 199.624 1.44922L199.602 2.82534C199.6 2.91976 199.58 3.01296 199.542 3.09963C199.504 3.1863 199.45 3.26473 199.381 3.33045C199.313 3.39617 199.232 3.44789 199.144 3.48266C199.055 3.51742 198.961 3.53455 198.866 3.53306L196.534 3.48813Z" fill="white"/>
<path d="M97.1545 18.1424L95.813 19.3163C95.5801 19.5213 95.3211 19.6933 95.0432 19.8275L63.9617 35.1445C52.4314 31.7688 41.1105 25.8318 31.4595 19.0917C27.8481 16.5641 24.0952 13.3794 20.1612 10.2901C17.7952 8.42907 14.4064 5.31736 9.99507 0.954967C9.97474 0.93519 9.96038 0.910169 9.9536 0.882725C9.94683 0.855281 9.94792 0.826505 9.95675 0.799643C9.96558 0.77278 9.98179 0.748899 10.0036 0.730691C10.0253 0.712484 10.0518 0.700674 10.08 0.696594C10.4838 0.640426 11.063 0.692849 11.8177 0.853864C24.7801 3.65104 38.7105 6.1449 52.5955 8.95893C55.9692 9.64044 63.2126 11.0315 74.326 13.1322C80.994 14.3904 88.6035 16.0605 97.1545 18.1424Z" fill="white"/>
<path d="M293.935 1.07275H291.524C291.127 1.07275 290.805 1.39212 290.805 1.78609V4.04405C290.805 4.43801 291.127 4.75738 291.524 4.75738H293.935C294.332 4.75738 294.654 4.43801 294.654 4.04405V1.78609C294.654 1.39212 294.332 1.07275 293.935 1.07275Z" fill="white"/>
<path d="M196.504 4.86125L193.979 4.87873C193.654 4.88099 193.392 5.14434 193.395 5.46695L193.412 7.97198C193.415 8.29459 193.68 8.55429 194.005 8.55204L196.53 8.53455C196.855 8.5323 197.116 8.26895 197.114 7.94634L197.097 5.4413C197.094 5.11869 196.829 4.85899 196.504 4.86125Z" fill="white"/>
<path d="M201.337 4.82885L199.197 4.84367C198.762 4.84668 198.413 5.19866 198.416 5.62984L198.431 7.74171C198.434 8.17289 198.788 8.51999 199.223 8.51698L201.362 8.50216C201.797 8.49914 202.147 8.14717 202.144 7.71599L202.129 5.60412C202.126 5.17294 201.771 4.82584 201.337 4.82885Z" fill="white"/>
<path d="M190.138 11.4414C190.249 11.3963 190.369 11.3789 190.488 11.3907C190.607 11.4026 190.722 11.4433 190.821 11.5094C190.921 11.5754 191.002 11.6647 191.059 11.7694C191.116 11.8741 191.145 11.991 191.146 12.1098V20.434C191.146 20.5328 191.165 20.6307 191.203 20.722C191.241 20.8133 191.297 20.8963 191.368 20.9662C191.438 21.0361 191.522 21.0915 191.614 21.1293C191.706 21.1672 191.805 21.1866 191.904 21.1866H194.344C194.521 21.1866 194.696 21.152 194.859 21.0849C195.023 21.0177 195.171 20.9192 195.296 20.7951C195.421 20.6709 195.521 20.5236 195.588 20.3614C195.656 20.1992 195.691 20.0254 195.691 19.8498V13.7387C195.691 13.413 195.788 13.0949 195.971 12.8248C196.153 12.5547 196.413 12.3449 196.715 12.2222L198.799 11.374C198.918 11.325 199.048 11.3061 199.177 11.319C199.306 11.3318 199.43 11.3761 199.537 11.4477C199.645 11.5194 199.733 11.6163 199.794 11.7299C199.854 11.8434 199.886 11.9701 199.885 12.0986V20.0745C199.886 20.2639 199.927 20.4511 200.007 20.623C200.087 20.795 200.203 20.9477 200.348 21.0705C200.492 21.1933 200.662 21.2834 200.845 21.3345C201.028 21.3856 201.22 21.3964 201.408 21.3664L202.37 21.2203C202.915 21.1347 203.411 20.8592 203.769 20.4432C204.127 20.0272 204.323 19.4981 204.323 18.9511V13.7612C204.323 13.4538 204.415 13.153 204.589 12.8969C204.762 12.6409 205.008 12.4412 205.297 12.3233L207.459 11.4414C207.573 11.3955 207.697 11.3774 207.82 11.3887C207.942 11.4 208.06 11.4403 208.164 11.5064C208.268 11.5724 208.354 11.6622 208.416 11.7682C208.477 11.8742 208.512 11.9933 208.518 12.1155C208.616 14.5944 208.623 16.828 208.54 18.8163C208.331 23.7367 205.387 25.4161 200.774 25.4442C174.966 25.5902 155.985 25.5471 143.83 25.315C138.271 25.2083 137.507 21.0462 137.541 16.3674C137.579 10.6682 137.573 7.18578 137.524 5.92012C137.517 5.75136 137.556 5.58393 137.637 5.43528C137.718 5.28664 137.837 5.16223 137.984 5.07502C138.13 4.98782 138.297 4.94101 138.468 4.93949C138.64 4.93797 138.808 4.98178 138.956 5.06636L140.524 5.96506C140.888 6.17282 141.19 6.47335 141.397 6.83569C141.605 7.19802 141.712 7.60905 141.707 8.02643C141.651 13.1864 141.653 16.8523 141.713 19.0241C141.751 20.4958 142.547 21.2241 144.102 21.2091C157.928 21.093 172.055 21.0593 186.481 21.108C186.538 21.1087 186.595 21.0981 186.648 21.0767C186.701 21.0553 186.749 21.0235 186.789 20.9833C186.83 20.9431 186.862 20.8951 186.884 20.8423C186.906 20.7895 186.917 20.7328 186.917 20.6755V13.778C186.917 13.4745 187.009 13.1777 187.181 12.9256C187.352 12.6735 187.595 12.4775 187.88 12.3626L190.138 11.4414Z" fill="white"/>
<path d="M246.071 25.5061C245.985 25.5058 245.899 25.4862 245.821 25.4488C245.743 25.4113 245.675 25.357 245.622 25.29C245.568 25.2229 245.531 25.1448 245.513 25.0616C245.495 24.9784 245.496 24.8922 245.516 24.8096L246.23 21.8102C246.272 21.6345 246.372 21.4779 246.515 21.3658C246.658 21.2537 246.834 21.1926 247.016 21.1924H248.998C249.059 21.1922 249.12 21.1782 249.176 21.1515C249.232 21.1248 249.281 21.0861 249.319 21.0381C249.358 20.9901 249.385 20.9341 249.399 20.8743C249.413 20.8145 249.413 20.7524 249.399 20.6925L246.977 10.0206C246.903 9.69531 246.934 9.35516 247.066 9.04856C247.198 8.74197 247.424 8.48457 247.713 8.31304L249.688 7.13351C249.815 7.0587 249.957 7.01448 250.104 7.00447C250.251 6.99446 250.398 7.01895 250.534 7.07592C250.669 7.13289 250.788 7.22074 250.883 7.33228C250.977 7.44381 251.043 7.57587 251.075 7.71766L254.013 20.6644C254.035 20.766 254.082 20.8603 254.151 20.9387C254.22 21.0171 254.307 21.0769 254.406 21.1128C254.505 21.1486 254.611 21.1592 254.716 21.1437C254.82 21.1282 254.919 21.087 255.003 21.0239C255.773 20.4397 256.162 19.7283 256.169 18.8895C256.23 13.0368 256.262 9.39896 256.266 7.97603C256.267 7.59984 256.37 7.23086 256.563 6.90706C256.756 6.58326 257.032 6.31633 257.364 6.13372L259.317 5.05529C259.439 4.98796 259.578 4.95448 259.718 4.9583C259.859 4.96213 259.995 5.00313 260.114 5.07704C260.233 5.15096 260.33 5.25511 260.395 5.37869C260.46 5.50227 260.49 5.64078 260.483 5.77986C260.471 5.95585 260.464 10.1872 260.46 18.4739C260.456 19.1629 260.375 19.9043 260.217 20.6981C260.206 20.7487 260.208 20.8008 260.221 20.8508C260.233 20.9007 260.257 20.9473 260.29 20.987C260.323 21.0268 260.365 21.0588 260.412 21.0807C260.459 21.1026 260.51 21.1139 260.562 21.1138H285.168C285.236 21.1141 285.302 21.0995 285.364 21.071C285.425 21.0425 285.48 21.0009 285.524 20.9489C285.567 20.897 285.599 20.8361 285.617 20.7704C285.635 20.7048 285.638 20.636 285.626 20.5689C285.449 19.5766 285.407 18.0357 285.502 15.9463C285.621 13.2558 286.928 10.5148 289.838 9.74533C295.045 8.35798 300.032 10.2003 299.998 16.3619C299.983 18.7959 299.96 21.6661 299.93 24.9725C299.93 25.114 299.874 25.2498 299.773 25.3498C299.672 25.4499 299.535 25.5061 299.392 25.5061H246.071ZM291.247 21.1475L294.451 21.125C294.632 21.1235 294.812 21.0866 294.979 21.0164C295.146 20.9462 295.297 20.844 295.424 20.7157C295.551 20.5873 295.652 20.4354 295.72 20.2686C295.788 20.1017 295.822 19.9232 295.821 19.7433L295.798 16.4069C295.796 16.0612 295.727 15.7194 295.597 15.401C295.466 15.0826 295.275 14.7938 295.036 14.5512C294.797 14.3086 294.514 14.117 294.202 13.9872C293.891 13.8575 293.558 13.7922 293.223 13.7951L292.362 13.8063C291.686 13.8121 291.04 14.0939 290.565 14.5899C290.091 15.0859 289.827 15.7555 289.832 16.4518L289.855 19.7882C289.856 19.9682 289.893 20.1461 289.964 20.3118C290.035 20.4775 290.138 20.6278 290.267 20.754C290.396 20.8802 290.55 20.9799 290.718 21.0474C290.886 21.115 291.066 21.1489 291.247 21.1475Z" fill="white"/>
<path d="M240.286 16.5866C240.436 16.5863 240.581 16.6426 240.691 16.7439C240.8 16.8452 240.866 16.9839 240.875 17.1315C240.961 18.4084 241.008 20.0728 241.016 22.1248C241.033 27.6124 237.591 28.4999 232.622 28.3426C231.52 28.3089 228.706 28.3145 224.182 28.3595C222.235 28.3763 219.699 27.9382 218.227 26.7194C215.72 24.658 215.838 19.7264 216.761 16.9068C217.729 13.9523 220.503 12.8739 223.305 13.1941C223.367 13.2017 223.428 13.2216 223.483 13.2526C223.538 13.2835 223.587 13.325 223.626 13.3746C223.664 13.4241 223.693 13.4809 223.71 13.5415C223.727 13.602 223.731 13.6653 223.723 13.7277L223.293 16.7888C223.275 16.9266 223.216 17.0559 223.123 17.16C223.03 17.2641 222.908 17.3383 222.772 17.373C221.327 17.7549 220.569 18.6031 220.497 19.9174C220.372 22.1473 220.514 24.1356 223.333 24.1525C226.71 24.1749 230.386 24.1637 234.359 24.1188C234.781 24.1155 235.192 23.9918 235.544 23.7625C235.895 23.5333 236.172 23.2084 236.34 22.8269L236.629 22.1754C236.693 22.0308 236.72 21.8726 236.707 21.7152C236.694 21.5577 236.641 21.4061 236.554 21.2739C236.467 21.1417 236.348 21.0331 236.208 20.9581C236.068 20.8831 235.911 20.8439 235.752 20.8442H229.033C228.913 20.8442 228.798 20.7978 228.713 20.7149C228.627 20.632 228.577 20.5192 228.574 20.4004C228.533 18.6892 228.512 17.5303 228.512 16.9236C228.501 10.644 234.676 5.69563 240.705 8.57144C240.958 8.69169 241.154 8.90544 241.251 9.16748C241.348 9.42953 241.339 9.71934 241.225 9.97564L240.354 11.9528C240.305 12.0617 240.225 12.1542 240.124 12.219C240.024 12.2838 239.907 12.3181 239.788 12.3179H236.522C235.972 12.3181 235.433 12.462 234.957 12.7351C234.481 13.0082 234.085 13.4009 233.81 13.8737L233.091 15.1038C233.004 15.2543 232.958 15.4251 232.958 15.5989C232.958 15.7727 233.004 15.9434 233.092 16.0938C233.18 16.2441 233.306 16.3689 233.458 16.4554C233.61 16.5419 233.782 16.5872 233.957 16.5866H240.286Z" fill="white"/>
<path d="M113.047 30.7299C112.917 30.8074 112.77 30.8499 112.619 30.8534C112.468 30.8568 112.319 30.8209 112.186 30.7494C112.053 30.6779 111.941 30.5731 111.862 30.4455C111.783 30.3179 111.738 30.172 111.734 30.0222C111.651 27.7193 111.69 25.701 111.852 23.9672C112.237 19.8894 114.858 18.7268 118.498 18.3617C118.645 18.3476 118.782 18.2824 118.886 18.1776C118.99 18.0728 119.053 17.9351 119.064 17.7888C119.319 14.3962 120.151 11.7563 123.841 11.0317C125.205 10.7621 128.947 10.7733 130.441 11.4249C132.63 12.3798 133.715 14.3213 133.696 17.2495C133.681 19.6685 133.668 22.5312 133.656 25.8376C133.656 25.9866 133.597 26.1295 133.491 26.2348C133.384 26.3402 133.241 26.3993 133.09 26.3993C130.294 26.4181 127.639 26.4068 125.126 26.3656C122.958 26.3263 120.92 25.5624 119.89 23.7931C119.524 23.164 119.126 22.827 118.696 22.7821C115.237 22.3945 115.594 25.9219 115.622 28.0451C115.628 28.3918 115.541 28.734 115.371 29.0376C115.201 29.3411 114.954 29.5954 114.654 29.775L113.047 30.7299ZM124.164 22.2429L128.658 22.2092C128.78 22.2085 128.901 22.1839 129.013 22.1369C129.125 22.0899 129.227 22.0215 129.313 21.9354C129.399 21.8494 129.466 21.7474 129.512 21.6354C129.558 21.5233 129.582 21.4034 129.581 21.2824L129.553 17.2552C129.549 16.6939 129.348 16.1569 128.993 15.7619C128.639 15.367 128.16 15.1465 127.662 15.1488L125.07 15.1713C124.823 15.1725 124.578 15.2285 124.351 15.3361C124.123 15.4438 123.917 15.601 123.743 15.7987C123.57 15.9964 123.433 16.2307 123.34 16.4884C123.247 16.746 123.2 17.0218 123.202 17.3001L123.23 21.3273C123.231 21.4483 123.255 21.568 123.303 21.6794C123.35 21.7909 123.419 21.892 123.506 21.9771C123.593 22.0621 123.695 22.1293 123.808 22.1749C123.921 22.2205 124.042 22.2436 124.164 22.2429Z" fill="white"/>
<path d="M63.9593 35.1447L95.0408 19.8276C95.3187 19.6935 95.5777 19.5215 95.8106 19.3165L97.1521 18.1426C97.5068 18.1838 97.6936 18.2231 97.7125 18.2605C97.954 18.7211 97.9767 19.2191 97.7804 19.7546C95.2049 26.8262 91.1747 33.645 87.1445 39.1607C81.0482 47.5073 71.482 54.298 61.8819 58.3702C54.7101 61.4089 47.1817 62.6053 39.4043 63.459C24.0985 65.1441 11.0096 66.6569 0.137823 67.9974C0.110173 68.0035 0.0812184 67.9991 0.0566757 67.9851C0.032133 67.9711 0.0137853 67.9484 0.00525498 67.9216C-0.00327535 67.8948 -0.00136877 67.8658 0.0105987 67.8403C0.0225661 67.8148 0.0437245 67.7947 0.069897 67.784C8.35678 63.7736 16.4059 59.2408 24.189 55.4719C34.9835 50.2427 45.4949 44.7494 56.4988 39.5651C57.0498 39.3067 58.2102 38.6421 59.98 37.5711C60.7045 37.133 61.897 36.5283 63.5574 35.7569C63.8933 35.5996 64.0272 35.3956 63.9593 35.1447Z" fill="white"/>
<path d="M227.358 30.3783L224.8 30.396C224.412 30.3987 224.1 30.7127 224.103 31.0973L224.118 33.2542C224.12 33.6388 224.437 33.9484 224.825 33.9458L227.383 33.928C227.771 33.9253 228.083 33.6114 228.08 33.2267L228.065 31.0699C228.062 30.6852 227.746 30.3756 227.358 30.3783Z" fill="white"/>
<path d="M232.387 30.4116L229.886 30.3856C229.532 30.3819 229.243 30.6631 229.239 31.0136L229.216 33.2377C229.212 33.5882 229.496 33.8753 229.849 33.879L232.351 33.905C232.704 33.9087 232.993 33.6275 232.997 33.277L233.02 31.0529C233.024 30.7023 232.741 30.4152 232.387 30.4116Z" fill="white"/>
<path d="M189.36 53.7587C189.355 57.2467 191.053 60.4034 194.449 61.5941C198.106 62.8804 200.517 61.9761 203.607 60.2854C203.81 60.1745 204.033 60.1085 204.263 60.092C204.493 60.0755 204.723 60.1089 204.938 60.1899C205.885 60.5494 206.768 61.2309 207.587 62.2345C207.708 62.3845 207.766 62.575 207.749 62.7664C207.732 62.9578 207.642 63.1354 207.496 63.2623C198.841 70.7608 183.536 66.4751 183.547 53.7531C183.564 41.0366 198.881 36.7847 207.519 44.2944C207.665 44.4222 207.756 44.6014 207.771 44.7941C207.787 44.9868 207.727 45.1782 207.604 45.3278C206.785 46.3276 205.9 47.0073 204.949 47.3667C204.734 47.4469 204.503 47.4794 204.274 47.4619C204.044 47.4444 203.82 47.3775 203.619 47.2656C200.534 45.5694 198.123 44.6594 194.466 45.9345C191.07 47.1252 189.366 50.2706 189.36 53.7587Z" fill="white"/>
<path d="M129.491 55.9492C129.491 56.0893 129.463 56.2281 129.409 56.3576C129.355 56.4871 129.276 56.6047 129.176 56.7038C129.076 56.8029 128.957 56.8815 128.827 56.9352C128.696 56.9888 128.557 57.0164 128.415 57.0164H117.989C117.857 57.0164 117.73 57.0685 117.637 57.1612C117.543 57.2539 117.491 57.3796 117.491 57.5107V65.9977C117.491 66.166 117.423 66.3275 117.303 66.4465C117.183 66.5655 117.021 66.6324 116.851 66.6324H112.311C112.127 66.6324 111.95 66.5599 111.819 66.4307C111.688 66.3014 111.612 66.1258 111.609 65.9415C111.5 58.5049 111.47 51.2049 111.519 44.0416C111.542 40.5367 114.349 40.9748 116.913 40.913C121.396 40.8119 125.383 40.8418 128.874 41.0029C129.424 41.0275 129.948 41.2443 130.354 41.6151C130.76 41.9859 131.021 42.4871 131.093 43.0305L131.234 44.0022C131.264 44.2055 131.25 44.4128 131.191 44.6101C131.133 44.8073 131.033 44.99 130.897 45.1455C130.761 45.3011 130.593 45.426 130.404 45.5117C130.215 45.5974 130.01 45.642 129.802 45.6423H118.198C118.011 45.6423 117.831 45.7163 117.698 45.848C117.565 45.9797 117.491 46.1582 117.491 46.3444V51.9219C117.491 51.9883 117.504 52.0541 117.529 52.1154C117.555 52.1767 117.593 52.2325 117.64 52.2794C117.687 52.3263 117.743 52.3636 117.805 52.389C117.867 52.4144 117.933 52.4275 118 52.4275H127.572C128.081 52.4275 128.569 52.6275 128.929 52.9835C129.289 53.3395 129.491 53.8224 129.491 54.3259V55.9492Z" fill="white"/>
<path d="M267.436 65.8631C267.47 65.9382 267.484 66.0206 267.478 66.1027C267.472 66.1848 267.445 66.264 267.4 66.3332C267.355 66.4024 267.293 66.4594 267.22 66.4989C267.147 66.5384 267.066 66.5593 266.983 66.5596H262.562C262.336 66.5595 262.115 66.4927 261.928 66.3676C261.74 66.2426 261.595 66.065 261.509 65.8575L259.771 61.6505C259.701 61.4825 259.582 61.339 259.429 61.2381C259.275 61.1371 259.095 61.0832 258.911 61.0832H247.675C247.56 61.0833 247.449 61.1163 247.353 61.1782C247.258 61.24 247.183 61.328 247.137 61.4314L245.196 65.8069C245.097 66.0321 244.934 66.2237 244.727 66.3584C244.519 66.4931 244.277 66.5649 244.03 66.5652H239.869C239.779 66.5658 239.689 66.5437 239.609 66.5008C239.53 66.4579 239.462 66.3957 239.412 66.3198C239.363 66.2438 239.333 66.1566 239.326 66.0661C239.319 65.9755 239.334 65.8845 239.371 65.8013L249.701 42.514C249.735 42.4384 249.754 42.357 249.755 42.2744C249.757 42.1919 249.742 42.11 249.711 42.0335C249.681 41.957 249.635 41.8876 249.577 41.8292C249.519 41.7709 249.45 41.7249 249.373 41.6939C249.045 41.5629 248.826 41.4393 248.717 41.3232C248.684 41.2888 248.663 41.2457 248.654 41.1994C248.646 41.1531 248.651 41.1055 248.669 41.0625C248.687 41.0196 248.717 40.983 248.756 40.9575C248.794 40.932 248.84 40.9185 248.886 40.9188C251.535 40.9076 253.298 40.9057 254.173 40.9132C256.007 40.9244 256.636 41.4468 257.292 43.1543C257.39 43.4052 260.771 50.9748 267.436 65.8631ZM249.368 55.7977C249.333 55.8787 249.319 55.9668 249.327 56.0542C249.335 56.1417 249.365 56.2259 249.414 56.2992C249.463 56.3726 249.529 56.4328 249.607 56.4747C249.684 56.5166 249.771 56.5387 249.86 56.5392L256.856 56.5616C256.945 56.5617 257.032 56.5402 257.109 56.499C257.187 56.4579 257.254 56.3983 257.303 56.3256C257.352 56.2529 257.383 56.1692 257.392 56.0821C257.401 55.9949 257.388 55.9069 257.354 55.8258L253.885 47.6028C253.844 47.506 253.775 47.4232 253.688 47.3647C253.6 47.3063 253.497 47.2748 253.391 47.2742C253.285 47.2736 253.182 47.3039 253.094 47.3614C253.005 47.4188 252.936 47.5008 252.894 47.5972L249.368 55.7977Z" fill="white"/>
<path d="M135.383 41.0648C137.745 40.9824 139.325 40.9843 140.121 41.0704C141.528 41.2277 142.228 41.9803 142.221 43.3284C142.191 49.1287 142.212 55.1518 142.283 61.3977C142.285 61.5546 142.348 61.7046 142.459 61.815C142.571 61.9255 142.721 61.9874 142.878 61.9874H153.31C153.826 61.9874 154.321 62.191 154.687 62.5534C155.052 62.9157 155.257 63.4072 155.257 63.9196V65.5316C155.257 65.8162 155.143 66.0891 154.94 66.2902C154.738 66.4914 154.463 66.6045 154.176 66.6045H136.923C136.853 66.6045 136.784 66.5908 136.72 66.5642C136.656 66.5376 136.597 66.4986 136.549 66.4495C136.5 66.4004 136.461 66.3421 136.435 66.2781C136.409 66.2141 136.396 66.1455 136.396 66.0765C136.453 57.4041 136.462 50.1023 136.425 44.1709C136.417 42.8491 136.044 41.8961 135.304 41.3119C135.281 41.2937 135.265 41.269 135.256 41.2413C135.248 41.2136 135.248 41.1841 135.257 41.157C135.265 41.1299 135.282 41.1065 135.305 41.09C135.327 41.0735 135.355 41.0647 135.383 41.0648Z" fill="white"/>
<path d="M151.228 41.2442C151.208 41.2235 151.195 41.1973 151.19 41.169C151.185 41.1408 151.188 41.1116 151.2 41.0852C151.211 41.0588 151.23 41.0364 151.254 41.0207C151.279 41.005 151.307 40.9968 151.336 40.9971H156.827C157.111 40.9971 157.392 41.0706 157.64 41.2103C157.888 41.3501 158.095 41.5515 158.242 41.7947C160.906 46.2507 162.938 49.617 164.338 51.8937C164.466 52.1034 164.638 52.1633 164.853 52.0734C164.936 52.0397 165.019 51.9555 165.102 51.8207C166.785 49.1209 168.744 45.9043 170.978 42.171C171.19 41.8149 171.492 41.5199 171.853 41.315C172.214 41.1101 172.623 41.0025 173.038 41.0027H176.202C176.338 41.002 176.471 41.0378 176.587 41.1063C176.704 41.1747 176.799 41.2734 176.864 41.3918C176.929 41.5102 176.961 41.644 176.956 41.7792C176.951 41.9143 176.91 42.0458 176.836 42.1598C174.916 45.0992 172.051 49.6357 168.244 55.7693C167.412 57.1061 167.236 57.8588 167.321 59.4539C167.449 61.9103 167.448 64.1178 167.315 66.0762C167.307 66.2113 167.246 66.338 167.144 66.43C167.043 66.5219 166.91 66.5722 166.772 66.5704L162.498 66.4918C162.283 66.489 162.076 66.408 161.916 66.2642C161.757 66.1204 161.656 65.9237 161.632 65.7111C161.598 65.3815 161.57 62.8783 161.547 58.2014C161.544 57.4338 161.221 56.5351 160.58 55.5053C157.496 50.57 155.34 47.0913 154.11 45.0693C153.249 43.6538 152.289 42.3788 151.228 41.2442Z" fill="white"/>
<path d="M211.035 40.9803H217.624C217.774 40.9803 217.918 41.0395 218.024 41.1448C218.13 41.2501 218.19 41.393 218.19 41.542V50.6637C218.19 50.7516 218.226 50.8358 218.29 50.898C218.353 50.9601 218.44 50.9951 218.53 50.9951H229.568C229.721 50.9951 229.868 50.9353 229.976 50.8289C230.084 50.7225 230.145 50.5782 230.145 50.4278V41.6824C230.145 41.5828 230.165 41.4843 230.204 41.3928C230.243 41.3012 230.3 41.2186 230.372 41.1498C230.444 41.081 230.53 41.0275 230.623 40.9926C230.716 40.9577 230.815 40.942 230.915 40.9466L233.971 41.0645C234.386 41.0812 234.786 41.2222 235.118 41.4688C235.451 41.7155 235.7 42.0563 235.834 42.4463C235.988 42.8994 236.062 43.7531 236.054 45.0075C235.994 51.6803 235.981 57.9056 236.015 63.6834C236.019 64.496 235.988 65.2243 235.924 65.8684C235.905 66.0547 235.816 66.2272 235.675 66.3527C235.534 66.4782 235.35 66.5478 235.16 66.548H230.796C230.632 66.548 230.475 66.4835 230.36 66.3687C230.244 66.2539 230.179 66.0982 230.179 65.9358V56.5557C230.179 56.3635 230.102 56.1792 229.965 56.0434C229.828 55.9075 229.642 55.8311 229.449 55.8311H218.733C218.58 55.8311 218.433 55.8915 218.325 55.9989C218.217 56.1064 218.156 56.2521 218.156 56.404V65.9358C218.156 66.1071 218.088 66.2714 217.967 66.3925C217.846 66.5137 217.682 66.5817 217.511 66.5817H213.113C212.924 66.5817 212.742 66.5072 212.608 66.3744C212.475 66.2417 212.399 66.0617 212.399 65.874C212.362 58.7369 212.335 51.7814 212.32 45.0075C212.32 43.4404 212.547 42.1205 210.956 41.2836C210.925 41.2656 210.901 41.2382 210.888 41.2055C210.874 41.1728 210.871 41.1365 210.88 41.1022C210.889 41.0679 210.909 41.0375 210.937 41.0155C210.965 40.9935 211 40.9811 211.035 40.9803Z" fill="white"/>
<path d="M285.407 56.657C285.652 56.5334 285.835 56.3705 285.956 56.1683C286.937 54.5544 289.809 49.7389 294.571 41.7219C294.7 41.5077 294.88 41.3285 295.097 41.2001C295.313 41.0718 295.558 40.9982 295.811 40.986C296.924 40.9374 297.862 41.0329 298.624 41.2725C298.99 41.3882 299.31 41.6165 299.537 41.9245C299.764 42.2325 299.886 42.6041 299.886 42.9856V65.6382C299.886 65.8915 299.785 66.1344 299.604 66.3134C299.424 66.4925 299.179 66.5931 298.924 66.5931H295.358C295.232 66.5931 295.107 66.5683 294.991 66.5202C294.875 66.4721 294.77 66.4016 294.681 66.3128C294.593 66.2239 294.523 66.1186 294.476 66.0028C294.429 65.887 294.405 65.7631 294.407 65.6382C294.482 60.0102 294.477 55.6197 294.39 52.4668C294.382 52.1673 294.294 51.9388 294.124 51.7816C294.092 51.7515 294.053 51.7291 294.011 51.716C293.969 51.7029 293.924 51.6994 293.88 51.7059C293.836 51.7124 293.794 51.7286 293.757 51.7533C293.72 51.7781 293.688 51.8108 293.665 51.849L287.009 63.1444C286.847 63.4212 286.598 63.6366 286.301 63.7566C285.924 63.9139 285.354 63.9607 284.592 63.897C284.425 63.883 284.263 63.8299 284.121 63.742C283.978 63.6542 283.858 63.5341 283.771 63.3915L276.973 52.1691C276.93 52.1012 276.866 52.0487 276.791 52.0197C276.716 51.9907 276.633 51.9867 276.555 52.0082C276.478 52.0297 276.409 52.0756 276.36 52.139C276.31 52.2024 276.283 52.28 276.282 52.3601V65.7057C276.282 65.9336 276.19 66.1521 276.027 66.3133C275.863 66.4745 275.642 66.565 275.41 66.565H271.714C271.491 66.5651 271.277 66.4784 271.118 66.3239C270.959 66.1694 270.868 65.9594 270.865 65.7393C270.816 62.1858 270.803 55.0843 270.825 44.4348C270.825 42.5812 270.356 42.2386 269.025 41.2388C268.998 41.2198 268.978 41.1926 268.968 41.1614C268.958 41.1301 268.959 41.0964 268.969 41.0653C268.98 41.0343 269.001 41.0076 269.028 40.9892C269.056 40.9709 269.089 40.9619 269.122 40.9636H275.099C275.263 40.9634 275.425 41.0057 275.567 41.0865C275.71 41.1672 275.83 41.2836 275.914 41.4242L285.09 56.5671C285.122 56.6188 285.172 56.6567 285.231 56.6734C285.289 56.69 285.352 56.6842 285.407 56.657Z" fill="white"/>
</svg>
