<svg width="300" height="112" viewBox="0 0 300 112" fill="none" xmlns="http://www.w3.org/2000/svg">
<path d="M111.502 56.5485C111.381 55.9993 111.271 55.1114 111.173 53.8848C110.712 48.1148 109.035 42.5661 106.144 37.2387C103.906 33.1153 101.046 29.4533 97.564 26.2527C93.5159 22.5317 88.7035 19.7491 83.5782 17.9304C78.6535 16.1819 73.5766 15.3893 68.3474 15.5526C66.1515 15.6214 64.271 15.8394 62.7059 16.2065C54.487 18.137 46.8843 24.6406 45.8268 33.454C45.7478 34.1093 45.7521 34.742 45.7253 35.4992C45.6266 38.3498 44.5028 40.9002 42.44 42.8152C40.2206 44.8741 37.5031 45.8965 34.2874 45.8823C33.4348 45.8785 32.7627 45.8356 32.2711 45.7535C30.2256 45.411 28.2972 44.7887 26.4858 43.8866C25.1397 43.2177 23.9455 42.6076 22.903 42.0566C20.6921 40.8889 18.5066 39.8868 16.0913 39.4835C15.1635 39.3287 14.1812 39.274 13.1444 39.3193C9.4389 39.4806 6.09109 40.763 3.10094 43.1662C2.53036 43.6258 2.05096 44.0876 1.66274 44.5519C1.14809 45.1675 1.51751 46.0097 2.20418 46.2546C3.805 46.8254 4.87425 47.2415 5.41193 47.5029C5.71179 47.6492 5.90685 47.7228 5.99709 47.7237C6.01015 47.7246 6.02253 47.7275 6.03375 47.7322L7.056 48.1865C7.08315 48.1987 7.10873 48.2144 7.13214 48.2332C7.21768 48.3068 7.49827 48.4436 7.97391 48.6437C8.69959 48.9503 9.75051 49.4971 11.1267 50.2841C13.7549 51.7862 16.2196 53.4394 18.5207 55.2435C18.5593 55.2737 18.6002 55.2945 18.6434 55.3058C18.672 55.3132 18.6982 55.3278 18.7195 55.3482C19.0899 55.6908 19.4494 55.9752 19.7982 56.2017C19.88 56.2555 20.0153 56.3711 20.2043 56.5485C20.2306 56.573 20.3589 56.6806 20.5892 56.8712C24.7863 60.3331 28.4716 64.2485 31.645 68.6172C32.8219 70.2383 33.5288 71.2022 33.7657 71.5088C35.3684 73.5837 37.1116 75.5369 38.9954 77.3684C39.3272 77.6902 39.6632 77.9902 40.0035 78.2686C40.0811 78.3309 40.1205 78.4229 40.1995 78.4908C41.1846 79.3428 42.1335 80.1364 43.0463 80.8714C43.3057 81.0795 43.6878 81.3187 44.0305 81.5876C44.6687 82.0905 45.2755 82.5165 45.8508 82.8657C46.0924 83.0129 46.2799 83.1374 46.4134 83.2393C46.6785 83.4441 46.8712 83.5658 46.9915 83.6045C47.0369 83.6194 47.0784 83.644 47.1127 83.6767C47.2481 83.8078 47.39 83.9008 47.5386 83.9555C47.5806 83.9711 47.6163 84.0004 47.6401 84.039C47.6767 84.1003 47.7477 84.1461 47.853 84.1763C47.9714 84.2093 48.0687 84.248 48.1449 84.2923C48.7032 84.6221 49.0303 84.8571 49.5605 85.0991C49.7382 85.1812 49.9755 85.3142 50.2725 85.4982C50.5564 85.6728 51.1284 85.9516 51.9885 86.3347C52.7104 86.6555 53.5268 87.0301 54.4377 87.4585C54.479 87.4783 54.5219 87.4939 54.566 87.5052C55.0482 87.6269 55.5088 87.8119 55.9478 88.06C55.9664 88.0702 55.9869 88.0763 56.0081 88.0777C56.0293 88.0792 56.0505 88.0761 56.0705 88.0685C56.1316 88.0449 56.1917 88.0449 56.251 88.0685C57.0885 88.411 57.9843 88.721 58.9384 88.9984C59.2749 89.0966 60.0486 89.2956 61.2593 89.5957C63.8593 90.2392 66.4415 90.6624 69.0058 90.8653C69.018 90.8662 69.0406 90.8724 69.0735 90.8837C69.1111 90.8978 69.1332 90.9049 69.1398 90.9049C70.1362 90.9672 71.3873 91.0177 72.8932 91.0564C73.8323 91.079 74.7516 90.9856 75.7047 90.9771C76.1155 90.9724 76.7293 90.9266 77.5462 90.8398C78.2597 90.7634 78.873 90.6987 79.3863 90.6459C79.5855 90.6261 80.2741 90.5072 81.4519 90.2892C81.5148 90.2781 81.5789 90.2835 81.638 90.3048C81.6719 90.3161 81.9454 90.1902 82.0624 90.1647C83.072 89.9552 84.1493 89.6198 85.0925 89.3692C85.1385 89.358 85.1824 89.3418 85.2237 89.3211C85.313 89.2768 85.4399 89.2164 85.6044 89.14C85.6636 89.1126 85.7205 89.1027 85.775 89.1102C85.8445 89.1197 85.9 89.098 85.9414 89.0451C85.9534 89.0302 85.9694 89.0186 85.9879 89.0112C87.4834 88.4167 88.8911 87.7534 90.2108 87.0212C92.8175 85.5747 95.2046 83.8885 97.3722 81.9627C101.378 78.403 104.665 74.0225 106.768 69.1027C106.891 68.8168 106.954 68.6503 106.959 68.6031C107.005 68.1091 106.527 67.8742 106.135 68.0667C106.092 68.089 106.055 68.1215 106.027 68.1615C102.531 73.3332 96.9746 76.8051 90.7142 77.2184C85.9898 77.5298 81.6803 76.3394 77.7859 73.6474C75.3184 71.9424 73.3167 69.7491 71.7807 67.0674C70.8285 65.4067 70.1385 63.6772 69.7108 61.8787C69.7071 61.8627 69.7047 61.8466 69.7038 61.8306C69.6944 61.6636 69.6591 61.5131 69.598 61.3791C69.583 61.3462 69.5717 61.3115 69.5642 61.2758C69.0115 58.5621 69.0091 55.8799 69.5571 53.2294C69.7997 52.0537 70.1611 50.8431 70.6414 49.5976C70.648 49.5806 70.7223 49.4193 70.8642 49.1136C70.9404 48.9494 71.0146 48.7895 71.087 48.6338C72.8824 44.7878 75.6328 41.7971 79.3383 39.6618C80.1796 39.1768 81.3908 38.6607 82.9719 38.1134C83.4992 37.9308 84.0125 37.8346 84.5906 37.6888C84.9506 37.5973 85.3647 37.5123 85.8328 37.434C87.6573 37.1293 89.5745 37.0486 91.5842 37.192C91.9151 37.2156 92.237 37.2538 92.55 37.3066C93.1216 37.4048 93.4506 37.4529 93.537 37.451C93.5684 37.4501 93.5992 37.4579 93.6259 37.4737C93.6982 37.5171 94.0493 37.5958 94.6791 37.71C95.2431 37.8119 96.1479 38.0988 97.3934 38.5706C97.4498 38.5923 97.5734 38.6536 97.7642 38.7546C98.1943 38.9838 98.7117 39.1112 99.0501 39.315C99.3646 39.5047 99.6212 39.5755 99.954 39.7807C100.862 40.3402 101.441 40.703 101.691 40.8691C101.81 40.9484 101.926 41.0389 102.041 41.1409C102.3 41.3716 102.643 41.5428 102.939 41.7792C105.73 43.9975 107.887 46.7108 109.411 49.9189C110.339 51.874 110.937 53.9513 111.207 56.1507C111.237 56.397 111.279 56.6306 111.331 56.8514C111.383 57.0674 111.439 57.2967 111.5 57.5392C111.459 58.7366 111.414 59.6566 111.365 60.2992C110.748 68.3639 108.503 75.9266 104.63 82.9874C99.6043 92.1476 92.0735 99.7495 82.9747 104.86C81.9595 105.431 80.8104 105.974 79.7007 106.542C79.336 106.728 78.8923 106.937 78.3696 107.17C72.849 109.626 67.0868 111.136 61.083 111.699C59.4827 111.849 57.7879 112.011 56.1255 111.999C55.5417 111.996 54.8677 111.994 54.1035 111.994C53.5663 111.994 53.0474 111.883 52.5497 111.855C41.7561 111.234 31.4561 107.534 22.7535 101.1C16.0974 96.1781 10.784 90.0868 6.81348 82.826C6.62736 82.4854 6.22786 81.6914 5.61498 80.444C3.76505 76.6763 2.37338 72.7317 1.44983 68.7078C0.758929 65.6978 0.303029 62.5675 0.082129 59.3169C0.0144489 58.3252 -0.0114015 57.418 0.0045785 56.5952C0.0243185 55.528 -0.017981 54.2131 0.0623891 52.9549C0.284229 49.4853 0.761749 46.1781 1.49495 43.0332C2.28173 39.6552 3.43558 36.2645 4.9565 32.861C5.18868 32.3411 5.62296 31.4584 6.25934 30.2129C10.0085 22.8742 15.3595 16.5178 21.8103 11.5641C29.8896 5.35819 39.0438 1.62683 49.2729 0.369988C49.5201 0.339794 50.5207 0.253454 52.2747 0.110975C53.4065 0.0194482 54.3695 -0.0154627 55.1638 0.00623951C56.2213 0.0345467 57.7272 -0.0376356 59.0117 0.0869161C60.5458 0.235529 62.2378 0.328941 63.6859 0.549737C70.6739 1.61692 77.0236 3.75506 82.735 6.96415C92.1707 12.2661 99.4924 19.6458 104.7 29.1032C108.263 35.5723 110.45 42.6421 111.261 50.3124C111.299 50.6691 111.313 50.9229 111.303 51.0738C111.287 51.3116 111.317 51.5513 111.392 51.7929C111.414 51.868 111.426 51.9456 111.427 52.0236C111.427 52.6916 111.424 53.3365 111.417 53.9584C111.416 54.0169 111.45 54.0985 111.517 54.2032C111.543 54.2428 111.556 54.2887 111.555 54.3348L111.502 56.5485Z" fill="white"/>
<path d="M188.808 31.8915C188.789 31.8924 188.773 31.8976 188.76 31.907C187.218 32.9355 185.593 33.6706 183.884 34.1122C183.794 34.1351 183.715 34.1865 183.657 34.2587C183.599 34.3309 183.566 34.42 183.562 34.5127L183.537 35.2558C183.536 35.2922 183.528 35.3283 183.513 35.3619C183.337 35.7667 183.227 36.0979 183.182 36.3555C182.821 38.405 182.475 40.5629 182.144 42.8294C182.117 43.0134 182.154 43.2342 182.047 43.3559C182.013 43.3944 181.994 43.4434 181.992 43.4946C181.981 43.7607 181.947 43.9522 181.889 44.0692C181.885 44.0752 181.884 44.0821 181.885 44.0888C181.887 44.0956 181.89 44.1017 181.895 44.1062C181.9 44.1107 181.907 44.1132 181.914 44.1135C181.92 44.1137 181.927 44.1116 181.932 44.1075C182.165 43.9503 182.085 43.8201 182.154 43.6432C182.164 43.6156 182.183 43.5924 182.208 43.5777C182.233 43.563 182.263 43.5579 182.292 43.5632C182.32 43.5684 182.346 43.5838 182.365 43.6065C182.383 43.6292 182.393 43.6578 182.392 43.6871V44.2235C182.392 44.249 182.387 44.2743 182.377 44.2979C182.366 44.3215 182.352 44.3429 182.333 44.3608C182.044 44.6354 181.914 45.1831 181.729 45.7762C181.624 46.1149 181.47 46.4834 181.267 46.8816C180.802 47.7987 180.081 49.3117 179.397 50.536C179.097 51.0729 178.82 51.6914 178.567 52.3916C178.338 53.02 177.893 53.6795 177.25 53.9201C177.206 53.9369 177.16 53.9442 177.113 53.9414C176.674 53.9121 176.189 53.8918 175.657 53.8805C175.328 53.872 174.765 53.2238 174.522 52.9945C174.455 52.9323 174.374 52.888 174.286 52.8657L173.43 52.6492C173.395 52.6403 173.364 52.6212 173.34 52.5942C173.316 52.5672 173.301 52.5335 173.296 52.4977C173.243 52.0372 173.333 51.5881 173.567 51.1503C173.94 50.453 174.148 49.7543 174.19 49.0541C174.213 48.6861 174.249 48.379 174.299 48.1327C174.332 47.9676 174.349 47.686 174.351 47.2878C174.351 47.2314 174.358 47.1753 174.372 47.1208C174.458 46.7716 174.485 46.3319 174.455 45.8016C174.452 45.7504 174.462 45.6991 174.482 45.6516C174.556 45.4799 174.594 45.2053 174.596 44.8279C174.601 43.9522 174.602 42.9497 174.599 41.8202C174.597 41.0607 174.54 40.3473 174.428 39.6802C174.374 39.3509 174.201 38.664 173.911 37.6194C173.639 36.6344 173.505 35.7243 173.371 34.9119C173.279 34.3514 173.489 34.1094 173.801 33.6904C173.997 33.4271 174.28 33.2554 174.65 33.1752C174.694 33.1661 174.733 33.1402 174.758 33.103L175.039 32.7039C175.05 32.6881 175.065 32.6753 175.082 32.6664C175.1 32.6576 175.118 32.653 175.138 32.6529H175.342C175.44 32.653 175.537 32.6329 175.627 32.5939C175.717 32.555 175.798 32.498 175.865 32.4265L176.421 31.8377C176.44 31.8176 176.465 31.8038 176.492 31.7981C176.519 31.7925 176.548 31.7954 176.573 31.8063C176.599 31.8172 176.62 31.8357 176.635 31.8592C176.65 31.8828 176.657 31.9103 176.656 31.9382C176.653 32.0024 176.631 32.0712 176.589 32.1448C176.44 32.4043 176.324 32.6478 176.24 32.8752C176.231 32.9018 176.23 32.9308 176.237 32.9581C176.245 32.9853 176.262 33.0093 176.284 33.0266C176.446 33.1474 176.957 33.6347 177.817 34.4887C177.976 34.6481 178.169 34.7425 178.395 34.7717C178.469 34.7818 178.544 34.7663 178.608 34.7279C179.043 34.4665 179.306 34.2995 179.396 34.2268C180.745 33.1384 181.786 32.2496 183.264 31.4202C184.709 30.6106 185.883 30.06 187.31 29.1329C188.197 28.5574 188.938 28.1162 189.534 27.8096C189.669 27.74 189.796 27.6555 189.912 27.5577C191.12 26.5471 192.668 25.9569 194.122 24.9081C194.579 24.5778 194.821 24.1212 194.85 23.538C194.851 23.5056 194.862 23.4743 194.881 23.4474L195.029 23.2281C195.036 23.2166 195.04 23.2029 195.039 23.1891C195.038 23.1753 195.032 23.1623 195.022 23.1523C195.012 23.1422 195 23.1357 194.986 23.1338C194.972 23.1319 194.958 23.1347 194.945 23.1417C193.948 23.7569 193.126 24.2316 192.479 24.5656C191.928 24.8515 190.741 25.3912 188.92 26.1848C188.798 26.2383 188.669 26.2773 188.537 26.3008C187.664 26.4537 187.051 26.5853 186.698 26.6957C186.282 26.8269 185.751 27.058 185.106 27.3892C185.08 27.4027 185.05 27.4091 185.02 27.4078C184.99 27.4065 184.961 27.3976 184.935 27.3819C184.91 27.3661 184.889 27.3441 184.874 27.3179C184.859 27.2917 184.851 27.2622 184.851 27.2321V25.6865C184.851 25.6149 184.874 25.5449 184.917 25.487C185.455 24.7689 185.891 24.283 186.226 24.0292C186.486 23.8319 186.98 23.5739 187.706 23.255C188.642 22.8445 189.343 22.5062 189.81 22.2401C192.159 20.9055 193.471 20.0888 195.209 19.2863C195.253 19.2658 195.29 19.2335 195.316 19.193C195.343 19.1525 195.357 19.1054 195.359 19.057C195.395 17.6313 195.535 16.1909 195.777 14.7359C196.037 13.1776 196.268 12.1203 196.996 10.8422C197.022 10.7953 197.034 10.7409 197.027 10.6871C197.021 10.6333 196.997 10.583 196.96 10.5436C196.722 10.286 196.65 9.98124 196.742 9.62928C196.848 9.22732 196.951 8.82112 197.052 8.41066C197.056 8.39319 197.065 8.37728 197.079 8.36537L197.352 8.11343C197.365 8.10227 197.375 8.0876 197.38 8.07097L197.668 7.24582C197.681 7.20899 197.705 7.17645 197.737 7.1524L198.054 6.91887C198.065 6.91194 198.072 6.90184 198.076 6.89014C198.08 6.87845 198.079 6.86584 198.075 6.85431C198.071 6.84277 198.063 6.83298 198.053 6.82647C198.042 6.81996 198.03 6.81712 198.018 6.81838C197.832 6.83065 197.624 6.74855 197.395 6.57211C197.373 6.55533 197.357 6.53277 197.348 6.50704C197.338 6.48132 197.337 6.45349 197.342 6.4268C197.348 6.40011 197.362 6.37566 197.381 6.35628C197.4 6.3369 197.424 6.3234 197.451 6.31734C198.641 6.04937 199.833 5.87056 201.027 5.78092C201.26 5.76299 201.465 5.85924 201.643 6.06965C201.688 6.12269 201.714 6.18927 201.717 6.25895C201.72 6.32862 201.7 6.39745 201.66 6.45463C201.359 6.88349 201.24 7.18496 201.148 7.73837C201.021 8.50549 200.946 9.11126 200.756 9.90104C200.243 12.0411 199.885 14.224 199.683 16.4499C199.663 16.6613 199.66 16.8514 199.673 17.0203C199.674 17.0302 199.677 17.0398 199.682 17.0482C199.688 17.0566 199.695 17.0636 199.704 17.0683C199.712 17.0731 199.722 17.0757 199.732 17.0757C199.742 17.0757 199.752 17.0732 199.761 17.0684C199.938 16.975 200.182 16.9042 200.491 16.8561C200.637 16.8336 200.779 16.7912 200.913 16.7301C202.357 16.0763 203.376 15.6229 203.969 15.37C204.418 15.1784 205.19 14.9397 206.286 14.6538C206.322 14.6445 206.355 14.626 206.382 14.6C206.791 14.2018 207.208 14.0098 207.634 14.024C208.357 14.0495 209.717 14.3594 210.032 15.2001C210.059 15.2692 210.07 15.3429 210.066 15.4166C210.062 15.4902 210.042 15.5621 210.008 15.6276L209.186 17.2383C209.174 17.2617 209.159 17.2832 209.141 17.3019L208.307 18.1865C208.297 18.1964 208.29 18.2086 208.287 18.2219C208.283 18.2352 208.283 18.2492 208.287 18.2625C208.29 18.2759 208.297 18.2881 208.306 18.2981C208.316 18.3081 208.327 18.3155 208.34 18.3196C208.417 18.3441 208.512 18.3781 208.624 18.4215C208.906 18.5305 209.208 19.04 209.349 19.3004C209.366 19.3318 209.375 19.367 209.376 19.4031C209.376 19.4391 209.368 19.4748 209.351 19.5071C209.006 20.1855 208.544 20.7559 207.964 21.2183C206.999 21.9873 205.958 22.7464 204.838 23.4956C203.909 24.1169 202.779 24.9237 202.159 25.8663C202.153 25.8746 202.15 25.884 202.149 25.8938C202.147 25.9037 202.148 25.9137 202.151 25.9231C202.154 25.9325 202.16 25.9411 202.167 25.9482C202.174 25.9553 202.182 25.9607 202.191 25.964C202.923 26.2329 203.679 27.1146 203.277 27.944C203.054 28.4054 202.691 29.0112 202.222 29.1867C201.949 29.2896 201.595 29.3561 201.162 29.3863C201.028 29.3957 200.807 29.4825 200.499 29.6467C200.09 29.8647 199.78 30.2228 199.326 30.6913C199.191 30.83 198.976 31.0182 198.682 31.256C198.352 31.523 197.925 31.942 197.4 32.5128C197.353 32.5646 197.328 32.6331 197.33 32.7039C197.334 32.8285 197.302 32.9577 197.231 33.0917C197.21 33.1336 197.199 33.1797 197.199 33.2262V34.6231C197.199 34.6358 197.202 34.6482 197.208 34.6592C197.214 34.6702 197.223 34.6794 197.234 34.6859C197.245 34.6924 197.257 34.6961 197.27 34.6965C197.282 34.6969 197.295 34.6941 197.306 34.6882L199.462 33.5644C199.489 33.5505 199.52 33.5432 199.552 33.5432H200.003C200.016 33.543 200.028 33.5388 200.039 33.5311C200.049 33.5235 200.057 33.5128 200.061 33.5007C200.065 33.4886 200.065 33.4756 200.061 33.4636C200.057 33.4517 200.049 33.4414 200.038 33.4342L199.779 33.2474C199.766 33.2381 199.754 33.2256 199.745 33.2106C199.403 32.6501 199.154 32.0637 198.999 31.4513C198.993 31.4256 198.996 31.3985 199.008 31.3752C199.019 31.3518 199.039 31.3336 199.063 31.3239C199.199 31.2659 199.354 31.3395 199.464 31.4541C199.873 31.8787 200.349 32.2123 200.893 32.4548C201.06 32.5297 201.203 32.6509 201.304 32.8044C201.767 33.5073 202.098 34.0622 202.299 34.4689C202.399 34.6727 202.571 34.9336 202.815 35.2516C203.274 35.8507 203.778 36.5433 204.325 37.3293C204.718 37.8936 204.846 38.5338 204.71 39.2499C204.543 40.119 203.986 40.7276 203.257 41.5258C201.788 43.1351 200.587 44.3806 198.881 45.428C197.833 46.0715 197.035 46.5433 196.487 46.8433C196.058 47.0769 195.968 48.4639 195.949 49.074C195.931 49.692 195.887 50.9427 195.818 52.8261C195.797 53.4385 195.701 54.6859 195.532 56.5683C195.45 57.4741 195.36 59.1867 195.261 61.706C195.237 62.3071 195.22 62.7477 195.212 63.028C195.201 63.4177 195.169 63.8569 195.117 64.3457C194.905 66.3848 194.729 68.4502 194.59 70.5421C194.498 71.908 194.572 73.2497 194.56 74.6934C194.555 75.4652 194.515 75.9144 194.441 76.0408C194.428 76.0604 194.421 76.0833 194.42 76.107C194.419 76.1307 194.425 76.1543 194.436 76.1753L194.59 76.4541C194.599 76.4698 194.604 76.4871 194.606 76.5049C194.608 76.5228 194.606 76.5408 194.6 76.5579C194.595 76.575 194.586 76.5908 194.574 76.6044C194.563 76.6179 194.548 76.6289 194.532 76.6367C193.603 77.0882 192.719 77.9657 191.986 78.7611C191.965 78.7834 191.938 78.7995 191.908 78.8078C191.838 78.8267 191.779 78.8012 191.731 78.7314C191.718 78.7134 191.7 78.699 191.68 78.6898C191.66 78.6806 191.637 78.6769 191.615 78.679C191.423 78.696 191.002 78.7257 190.945 78.3846C190.941 78.3538 190.93 78.3244 190.913 78.2983L190.473 77.5906C190.451 77.5559 190.439 77.5163 190.437 77.4755C190.434 77.4347 190.442 77.3939 190.46 77.3571L190.672 76.9155C190.676 76.9058 190.678 76.8951 190.677 76.8845C190.676 76.8739 190.672 76.8639 190.665 76.8553C190.659 76.8468 190.65 76.8401 190.641 76.836C190.631 76.8319 190.62 76.8305 190.61 76.832C190.476 76.8546 190.364 76.8325 190.274 76.7655C190.242 76.7415 190.203 76.7286 190.164 76.7287H189.634C189.609 76.7289 189.584 76.7211 189.564 76.7064C189.543 76.6916 189.528 76.6707 189.52 76.6466C189.512 76.6225 189.512 76.5964 189.519 76.572C189.527 76.5476 189.542 76.5262 189.562 76.5107C189.65 76.4437 189.683 76.3494 189.659 76.2276C189.656 76.2056 189.66 76.1827 189.671 76.1625L189.91 75.7181C189.932 75.6772 189.938 75.6297 189.926 75.5851C189.9 75.4926 189.924 75.4393 189.998 75.4251C190.012 75.4228 190.025 75.4152 190.035 75.4038C190.044 75.3924 190.05 75.3779 190.05 75.3628V75.0784C190.05 75.0702 190.048 75.0621 190.045 75.0545C190.042 75.047 190.037 75.0401 190.032 75.0343C190.026 75.0285 190.019 75.024 190.012 75.0208C190.004 75.0177 189.996 75.0161 189.988 75.0161H189.592C189.574 75.0161 189.557 75.0096 189.545 74.9978C189.532 74.986 189.524 74.9698 189.523 74.9524C189.503 74.7415 189.621 74.658 189.645 74.457C189.755 73.554 190.243 72.5774 190.462 71.9051C190.783 70.9115 190.673 70.1954 190.572 68.8182C190.522 68.1417 190.645 67.3165 190.823 66.5664C191.072 65.5134 191.241 64.683 191.332 64.0754C191.379 63.7479 191.41 63.2318 191.422 62.5269C191.424 62.4114 191.41 62.2962 191.382 62.1844C191.282 61.7966 191.254 61.5088 191.301 61.3211C191.701 59.6764 191.947 58.3101 192.039 57.2222C192.132 56.1352 192.158 54.3065 192.12 51.7362C192.12 51.7176 192.124 51.6997 192.131 51.6839L192.218 51.4999C192.24 51.4571 192.251 51.4096 192.251 51.3612V50.0506C192.251 50.0315 192.246 50.0129 192.235 49.9968C192.225 49.9807 192.211 49.9678 192.194 49.9596C192.177 49.9515 192.157 49.9484 192.139 49.9507C192.12 49.953 192.102 49.9606 192.087 49.9727C191.797 50.2077 191.592 50.3558 191.474 50.4171C190.003 51.1828 188.458 52.1057 187.072 52.6378C186.968 52.6781 186.859 52.7006 186.748 52.7044L185.948 52.7312C185.896 52.7331 185.845 52.7466 185.799 52.7709C185.155 53.1002 184.583 53.379 184.083 53.6074C183.397 53.9197 182.887 53.7711 182.551 53.1615C182.52 53.1045 182.502 53.041 182.5 52.9761C182.497 52.9111 182.51 52.8467 182.537 52.7879L183.536 50.6252C183.543 50.6092 183.553 50.594 183.564 50.5799C183.82 50.2676 184.13 49.9769 184.493 49.708C184.64 49.6005 184.837 49.3669 184.964 49.1476C184.972 49.1334 185.101 48.8786 185.353 48.3833C185.365 48.3598 185.381 48.3388 185.4 48.321L186.965 46.8193C187.136 46.6536 187.277 46.4585 187.381 46.2432L187.668 45.6417C187.689 45.5996 187.717 45.5617 187.752 45.5299C188.159 45.1534 188.645 44.7514 189.21 44.324C190.075 43.6673 190.669 42.6525 191.267 41.9306C191.516 41.6306 191.871 41.3305 192.331 41.0305C192.612 40.8493 192.688 40.6285 192.76 40.3327C192.766 40.3097 192.766 40.2853 192.761 40.2619C192.755 40.2384 192.744 40.2165 192.727 40.1982C192.589 40.0435 192.42 39.9255 192.218 39.8444C192.16 39.8205 192.097 39.8119 192.035 39.8194C191.972 39.8268 191.913 39.85 191.862 39.8869C191.541 40.118 190.907 40.5969 189.958 41.3234C189.738 41.4914 189.481 41.6315 189.186 41.7438C188.316 42.0764 188.183 39.9307 188.194 39.4863C188.203 39.1452 188.317 38.94 188.592 38.7149C189.162 38.2493 189.699 37.8332 190.24 37.2982C191.103 36.4442 191.939 35.5228 192.747 34.534C192.755 34.5239 192.759 34.5116 192.76 34.4989C192.76 34.4861 192.757 34.4736 192.75 34.4629C192.743 34.4523 192.733 34.4441 192.721 34.4396C192.709 34.4351 192.696 34.4344 192.684 34.4377C192.481 34.4972 192.268 34.5764 192.046 34.6755C190.734 35.2643 189.331 35.6233 187.838 35.7526C187.394 35.7913 187.042 35.7762 186.783 35.7073C186.753 35.6995 186.727 35.682 186.708 35.6577C186.689 35.6334 186.679 35.6035 186.679 35.5728V34.0825C186.679 34.0501 186.686 34.0182 186.7 33.9891C186.714 33.96 186.734 33.9343 186.759 33.914L187.433 33.355C187.458 33.3343 187.481 33.3105 187.501 33.2842C187.878 32.7756 188.32 32.3279 188.826 31.941C188.831 31.9377 188.834 31.9329 188.836 31.9274C188.838 31.9219 188.838 31.9159 188.836 31.9103C188.833 31.9048 188.83 31.8999 188.825 31.8965C188.82 31.8932 188.814 31.8914 188.808 31.8915ZM202.09 18.8277L201.529 19.1617C201.501 19.1778 201.473 19.1924 201.444 19.2056C200.71 19.5302 199.978 19.784 199.249 19.9671C199.184 19.9837 199.127 20.0214 199.086 20.0741C199.045 20.1269 199.023 20.1918 199.023 20.2586V21.0512C199.023 21.0736 199.029 21.0956 199.041 21.1144C199.054 21.1331 199.071 21.1478 199.092 21.1566C199.112 21.1654 199.135 21.1679 199.157 21.1637C199.179 21.1596 199.199 21.149 199.215 21.1333L199.574 20.7837C199.6 20.7593 199.627 20.7375 199.656 20.7186C200.123 20.4157 200.968 20.001 201.475 19.534C201.701 19.3264 201.92 19.1094 202.134 18.8829C202.14 18.8768 202.144 18.8685 202.145 18.8597C202.145 18.8509 202.142 18.8421 202.137 18.8352C202.131 18.8282 202.124 18.8236 202.115 18.8222C202.106 18.8208 202.097 18.8228 202.09 18.8277ZM201.434 22.6718C201.238 22.7086 201.072 22.8039 200.936 22.9577C200.933 22.9619 200.93 22.9662 200.928 22.9701C200.926 22.974 200.926 22.9771 200.927 22.979C200.929 22.9846 200.932 22.9884 200.934 22.9903C200.935 22.9924 200.936 22.9939 200.939 22.9948C200.942 22.9957 200.946 22.9958 200.95 22.9953C200.955 22.9948 200.959 22.9935 200.965 22.9917C200.97 22.9899 200.975 22.9875 200.98 22.9846L201.451 22.7185C201.456 22.7154 201.46 22.7107 201.461 22.7052C201.463 22.6998 201.463 22.6938 201.461 22.6884C201.459 22.683 201.456 22.6784 201.451 22.6753C201.446 22.6723 201.44 22.6711 201.434 22.6718ZM200.726 23.1237C200.724 23.1206 200.72 23.1189 200.714 23.1188C200.708 23.1186 200.7 23.1199 200.691 23.1227C200.683 23.1255 200.673 23.1296 200.662 23.1349C200.652 23.1402 200.641 23.1465 200.63 23.1536C200.62 23.1606 200.61 23.1681 200.601 23.1758C200.592 23.1835 200.585 23.1911 200.579 23.1982C200.573 23.2054 200.568 23.2119 200.566 23.2174C200.564 23.223 200.564 23.2274 200.566 23.2305C200.568 23.2336 200.572 23.2353 200.578 23.2355C200.584 23.2356 200.592 23.2343 200.601 23.2315C200.61 23.2288 200.619 23.2246 200.63 23.2193C200.64 23.214 200.651 23.2077 200.662 23.2007C200.672 23.1936 200.682 23.1861 200.691 23.1784C200.7 23.1708 200.708 23.1631 200.714 23.156C200.719 23.1489 200.724 23.1423 200.726 23.1368C200.728 23.1312 200.728 23.1268 200.726 23.1237ZM200.208 23.513C200.204 23.5078 200.197 23.5056 200.185 23.5064C200.174 23.5073 200.16 23.5112 200.143 23.518C200.127 23.5248 200.108 23.5343 200.088 23.546C200.069 23.5577 200.048 23.5713 200.028 23.5861C200.009 23.6009 199.99 23.6166 199.973 23.6323C199.957 23.648 199.942 23.6633 199.931 23.6775C199.92 23.6916 199.912 23.7043 199.908 23.7148C199.904 23.7253 199.904 23.7333 199.908 23.7385C199.912 23.7438 199.92 23.746 199.931 23.7451C199.942 23.7443 199.956 23.7404 199.973 23.7336C199.989 23.7268 200.008 23.7173 200.028 23.7056C200.048 23.6939 200.068 23.6803 200.088 23.6654C200.107 23.6506 200.126 23.635 200.143 23.6193C200.16 23.6036 200.174 23.5882 200.185 23.5741C200.196 23.5599 200.204 23.5473 200.208 23.5368C200.212 23.5263 200.212 23.5182 200.208 23.513ZM199.629 23.8664C199.627 23.8659 199.625 23.8659 199.624 23.8664C199.622 23.8669 199.62 23.8679 199.62 23.8692C199.427 24.0976 199.236 24.2448 199.048 24.3108C199.004 24.3263 198.966 24.3574 198.943 24.3986C198.9 24.4731 198.818 24.5505 198.696 24.6307C198.675 24.6449 198.659 24.6662 198.651 24.6908C198.644 24.7154 198.645 24.7417 198.655 24.7651L198.673 24.7991C198.678 24.8083 198.685 24.8163 198.694 24.8224C198.702 24.8286 198.712 24.8327 198.722 24.8345C198.732 24.8362 198.743 24.8356 198.752 24.8327C198.762 24.8298 198.772 24.8246 198.779 24.8175L199.714 23.9584C199.72 23.953 199.724 23.9461 199.726 23.9384C199.729 23.9308 199.729 23.9226 199.727 23.9149C199.725 23.9072 199.721 23.9002 199.715 23.8946C199.709 23.8891 199.702 23.8852 199.694 23.8834L199.629 23.8664ZM198.955 26.891L198.579 27.2364C198.57 27.2448 198.56 27.251 198.549 27.2548C198.404 27.3048 198.262 27.4128 198.125 27.5789C198.078 27.6357 198.014 27.6756 197.942 27.6921C197.87 27.7091 197.801 27.7544 197.734 27.828C197.72 27.8439 197.71 27.8629 197.704 27.8837C197.698 27.9045 197.696 27.9265 197.699 27.9483L197.706 27.9922C197.708 28.0061 197.714 28.0191 197.723 28.0299C197.732 28.0407 197.744 28.0489 197.757 28.0537C197.771 28.0585 197.785 28.0596 197.799 28.057C197.812 28.0544 197.825 28.0481 197.836 28.0389C197.897 27.9851 197.963 27.9445 198.035 27.9171C198.071 27.9031 198.104 27.8814 198.132 27.8535L199.044 26.9448C199.047 26.9418 199.049 26.9376 199.049 26.9331C199.049 26.9287 199.047 26.9243 199.044 26.9207L199.019 26.8938C199.015 26.8894 199.01 26.8858 199.005 26.8833C199 26.8808 198.994 26.8793 198.988 26.879C198.982 26.8788 198.976 26.8797 198.971 26.8818C198.965 26.8838 198.96 26.887 198.955 26.891ZM193.947 29.381C193.943 29.3731 193.936 29.3664 193.929 29.3612C193.921 29.356 193.912 29.3524 193.902 29.3507C193.892 29.3491 193.881 29.3493 193.87 29.3513C193.86 29.3534 193.849 29.3573 193.84 29.3629C193.82 29.374 193.805 29.3911 193.798 29.4103C193.79 29.4294 193.791 29.4492 193.8 29.4652C193.805 29.4731 193.811 29.4798 193.819 29.485C193.827 29.4902 193.836 29.4938 193.846 29.4954C193.856 29.4971 193.867 29.4969 193.877 29.4949C193.888 29.4928 193.898 29.4889 193.908 29.4833C193.928 29.4722 193.943 29.4551 193.95 29.4359C193.957 29.4167 193.956 29.397 193.947 29.381ZM192.014 31.9608C192.207 31.9137 192.378 31.8136 192.527 31.6608C192.562 31.6253 192.603 31.5973 192.65 31.5787C193.277 31.3258 193.812 30.9399 194.254 30.4209C194.287 30.3832 194.352 30.2652 194.449 30.0671C194.515 29.9326 194.467 29.8109 194.604 29.6496C194.611 29.641 194.617 29.6311 194.62 29.6205C194.623 29.6098 194.625 29.5987 194.624 29.5876C194.623 29.5766 194.62 29.5659 194.615 29.5561C194.61 29.5463 194.603 29.5377 194.594 29.5307L194.584 29.5222C194.566 29.507 194.543 29.4996 194.52 29.5014C194.497 29.5033 194.475 29.5143 194.46 29.5321C194.103 29.9501 193.743 30.3086 193.379 30.6078C192.801 31.0819 192.591 31.3126 191.983 31.9028C191.977 31.9079 191.974 31.9147 191.972 31.9222C191.971 31.9296 191.972 31.9373 191.976 31.9439C191.98 31.9506 191.985 31.9559 191.992 31.9589C191.999 31.962 192.007 31.9627 192.014 31.9608ZM183.201 34.3217C182.712 34.4877 181.786 34.8359 180.424 35.3662C179.796 35.6106 179.267 35.6804 178.838 35.5757C178.828 35.5734 178.819 35.5731 178.81 35.5749C178.801 35.5767 178.792 35.5805 178.784 35.586C178.777 35.5916 178.771 35.5987 178.766 35.6069C178.762 35.6152 178.759 35.6243 178.759 35.6337C178.747 35.8026 178.729 35.9507 178.704 36.0781C178.275 38.2082 177.622 40.8097 177.226 43.3276C177.147 43.8315 177.287 44.8109 177.088 45.1109C177.014 45.2204 177.028 45.3228 177.127 45.4181C177.145 45.4355 177.16 45.4566 177.17 45.48C177.18 45.5033 177.185 45.5285 177.185 45.554V46.2305C177.185 46.2473 177.19 46.2637 177.199 46.2777C177.208 46.2917 177.221 46.3026 177.237 46.3091C177.252 46.3156 177.269 46.3174 177.286 46.3142C177.303 46.3111 177.318 46.3031 177.33 46.2914C177.406 46.2159 177.48 46.1163 177.55 45.9927C178.097 45.0175 178.522 43.6644 179.018 42.743C179.799 41.2895 180.467 40.0539 181.27 38.3413C181.654 37.5204 182.047 36.7013 182.447 35.8842C182.669 35.4355 183.037 34.9147 183.258 34.3825C183.261 34.3744 183.263 34.3655 183.261 34.3568C183.26 34.3481 183.256 34.34 183.25 34.3335C183.244 34.327 183.236 34.3225 183.227 34.3204C183.219 34.3183 183.21 34.3187 183.201 34.3217ZM194.229 35.8333L194.133 35.7696C194.127 35.7651 194.119 35.7634 194.111 35.7647C194.104 35.766 194.097 35.7703 194.092 35.7766L194.084 35.7908C193.964 35.9719 193.855 36.1495 193.78 36.2847C193.705 36.4199 193.67 36.5019 193.683 36.5126L193.72 36.5381C193.727 36.5431 193.746 36.5302 193.775 36.5001C193.804 36.4701 193.844 36.4235 193.891 36.363C193.939 36.3025 193.993 36.2293 194.051 36.1476C194.109 36.066 194.169 35.9774 194.229 35.887L194.238 35.8743C194.242 35.8677 194.243 35.8597 194.242 35.852C194.24 35.8443 194.236 35.8376 194.229 35.8333ZM201.527 36.6315C201.388 36.6754 201.128 37.2557 200.874 37.7426C200.839 37.8114 200.785 37.869 200.719 37.9094C200.652 37.9498 200.576 37.9714 200.498 37.9719L199.484 37.9761C199.46 37.9761 199.436 37.979 199.412 37.9846C199.016 38.0771 198.482 38.3031 197.811 38.6626C195.598 39.8472 196.56 42.3637 196.159 44.3042C196.152 44.3382 196.155 44.3734 196.167 44.4059C196.18 44.4383 196.201 44.4666 196.229 44.4874C196.256 44.5082 196.289 44.5206 196.324 44.5233C196.358 44.5259 196.393 44.5187 196.423 44.5023C196.483 44.4703 196.545 44.4203 196.608 44.3523C197.002 43.9277 197.42 43.5573 197.863 43.2413C199.299 42.2179 200.559 41.3843 201.517 40.2931C202.224 39.4891 202.235 38.7305 202.104 37.7313C202.097 37.6703 202.079 37.6106 202.053 37.5543L201.657 36.6896C201.646 36.6657 201.627 36.6466 201.603 36.6359C201.579 36.6252 201.552 36.6236 201.527 36.6315ZM185.562 50.7455C185.913 50.5898 186.205 50.3747 186.625 50.1779C187.15 49.9307 188.156 49.4849 189.641 48.8404C190.419 48.5036 191.234 48.0846 191.812 47.6048C192.255 47.2368 192.171 46.3225 192.235 46.0451C192.281 45.8545 192.314 45.5252 192.334 45.0572C192.354 44.609 192.395 44.1792 192.458 43.7678C192.533 43.2837 192.51 42.6666 192.51 42.3397C192.511 42.3227 192.506 42.3061 192.495 42.2926C192.485 42.2791 192.471 42.2696 192.454 42.2656C192.438 42.2616 192.421 42.2634 192.405 42.2707C192.39 42.278 192.378 42.2904 192.371 42.3057C192.235 42.5704 192.179 42.6935 191.952 42.9143C191.176 43.6673 190.567 44.1839 189.926 44.9623C189.59 45.37 189.224 45.7861 188.826 46.2107C188.762 46.2776 188.694 46.3396 188.622 46.3961C188.143 46.765 187.821 47.0523 187.654 47.258C186.815 48.2941 186.107 49.4457 185.529 50.7129C185.527 50.7173 185.527 50.7222 185.527 50.727C185.528 50.7317 185.53 50.7362 185.534 50.7397C185.537 50.7432 185.542 50.7456 185.547 50.7466C185.552 50.7477 185.557 50.7473 185.562 50.7455Z" fill="white"/>
<path d="M177.491 29.9297L177.443 29.924C177.42 29.9212 177.397 29.9126 177.377 29.8989C177.358 29.8853 177.342 29.8671 177.331 29.8458C177.32 29.8246 177.315 29.801 177.315 29.7771C177.316 29.7532 177.322 29.7298 177.333 29.7089C177.508 29.3904 177.892 28.8526 178.12 28.353C178.912 26.614 179.365 24.7749 179.478 22.8359C179.519 22.1353 179.436 21.0525 178.935 20.5062C178.395 19.9174 177.554 19.147 176.41 18.1949C175.566 17.4929 175.007 16.6055 174.732 15.5326C174.529 14.7429 175.454 13.5341 175.992 13.0458C176.387 12.6878 176.967 12.7826 177.526 12.9694C178.637 13.3431 179.646 13.8993 180.554 14.6381C181.715 15.5845 182.713 16.6465 183.546 17.8241C184.087 18.5884 184.489 19.4376 184.485 20.4199C184.482 21.211 184.058 22.1622 183.797 22.9675C183.75 23.1138 183.67 23.2369 183.558 23.3369C183.541 23.3524 183.519 23.3604 183.496 23.3594C183.473 23.3583 183.451 23.3482 183.436 23.3313L182.97 22.8217C182.932 22.7796 182.879 22.754 182.823 22.7503C182.766 22.7466 182.71 22.7651 182.667 22.8019C182.122 23.2643 181.601 23.7974 181.104 24.4013C179.79 25.9978 178.689 27.7821 177.8 29.7542C177.774 29.8125 177.73 29.861 177.674 29.8926C177.619 29.9241 177.554 29.9371 177.491 29.9297Z" fill="white"/>
<path d="M142.853 21.0272C143.545 20.914 143.939 20.8602 144.034 20.8659C145.179 20.9324 147.028 21.4985 147.658 22.6237C148.001 23.2338 148.236 23.9188 148.211 24.6703C148.2 24.9638 148.26 25.261 148.388 25.562C148.39 25.5664 148.393 25.5702 148.397 25.5732C148.4 25.5761 148.405 25.5781 148.409 25.5789C148.414 25.5798 148.419 25.5795 148.423 25.578C148.428 25.5765 148.432 25.5739 148.435 25.5705C148.759 25.2266 149.047 24.7921 149.456 24.3873C150.58 23.2734 151.976 22.0845 152.363 20.5531C152.365 20.548 152.365 20.5427 152.364 20.5375C152.363 20.5324 152.361 20.5275 152.358 20.5233C152.355 20.5191 152.351 20.5157 152.347 20.5132C152.342 20.5108 152.337 20.5094 152.332 20.5092C149.712 20.4016 147.696 19.4038 145.779 17.6063C144.884 16.7684 144.173 16.0385 143.647 15.4167C143.556 15.3101 143.448 15.0832 143.322 14.7359C143.153 14.2717 143.513 13.8881 143.917 13.8457C147.521 13.4678 151.255 14.1217 154.442 15.9418C155.388 16.4825 156.055 17.2298 156.121 18.3663C156.126 18.4522 156.101 18.537 156.05 18.6055C155.557 19.275 155.176 20.1794 154.688 20.7993C154.042 21.6202 153.323 22.3076 152.532 22.8615C152.194 23.0983 151.856 23.3847 151.519 23.7206C150.486 24.7529 149.549 25.7795 148.71 26.8005C148.703 26.8093 148.697 26.8196 148.694 26.8307C148.691 26.8418 148.691 26.8533 148.692 26.8646C148.694 26.8758 148.698 26.8865 148.704 26.896C148.711 26.9054 148.719 26.9134 148.728 26.9194C148.978 27.0807 149.403 27.3704 150.003 27.7884C150.633 28.2271 152.329 27.5987 153.549 27.8252C153.573 27.8295 153.595 27.84 153.613 27.8557C153.631 27.8714 153.644 27.8916 153.652 27.9143C153.918 28.7202 154.047 29.3203 154.04 29.7147C154.031 30.1176 153.875 30.5408 153.57 30.9843C152.255 32.8997 150.658 34.5142 148.778 35.8276C148.616 35.9409 148.316 36.1951 147.878 36.5905C147.179 37.2199 146.685 37.9795 146.396 38.8692C146.389 38.8922 146.388 38.9166 146.394 38.9399C146.4 38.9632 146.413 38.9843 146.43 39.0009C146.868 39.4113 147.299 39.9053 147.724 40.4827C147.962 40.8064 148.239 41.0239 148.556 41.1352C148.643 41.1659 148.722 41.2169 148.785 41.2838C148.967 41.4773 149.25 41.7165 149.634 42.0014C151.026 43.0365 152.414 44.0848 153.797 45.1464C154.858 45.9602 155.595 46.6113 156.375 47.5652C156.608 47.8502 157.048 48.3319 157.696 49.0103C159.924 51.3414 162.298 49.9671 164.807 49.3698C164.951 49.3349 165.054 49.3226 165.115 49.333C165.158 49.3401 165.198 49.3597 165.23 49.3894C165.262 49.4191 165.284 49.4576 165.294 49.5C165.305 49.5424 165.302 49.5869 165.287 49.6279C165.273 49.669 165.246 49.7047 165.211 49.7307C164.642 50.1582 164.176 50.4908 163.815 50.7285C163.144 51.1701 162.511 51.3824 161.662 51.7136C160.742 52.0745 160.032 52.5643 159.096 53.2267C158.308 53.7843 157.004 54.6095 156.056 54.3462C155.627 54.2264 155.258 54.0796 154.946 53.906C154.906 53.8834 154.868 53.8564 154.834 53.8253C153.996 53.0809 153.286 52.2015 152.705 51.1871C152.679 51.1451 152.646 51.109 152.607 51.081C152.477 50.9894 152.35 50.8257 152.224 50.5898C152.147 50.4455 151.839 50.0194 151.3 49.3118C150.522 48.2913 149.24 47.0458 148.692 46.2489C147.585 44.6382 146.608 42.9417 145.76 41.1593C145.614 40.8522 145.549 40.5252 145.356 40.2393C145.347 40.227 145.336 40.2171 145.323 40.2104C145.309 40.2037 145.295 40.2004 145.28 40.201C145.265 40.2016 145.251 40.2059 145.238 40.2136C145.225 40.2213 145.215 40.2321 145.208 40.245C144.751 41.0612 144.348 41.9264 143.999 42.8407C143.792 43.3842 143.695 43.9589 143.54 44.6085C143.53 44.6478 143.513 44.6857 143.49 44.7203L143.187 45.1733C143.172 45.1957 143.161 45.2206 143.155 45.2469C142.82 46.4895 142.459 47.3968 141.637 48.379C141.621 48.3993 141.599 48.4153 141.575 48.4258C141.551 48.4364 141.524 48.4412 141.498 48.4399C141.425 48.4352 141.349 48.4064 141.269 48.3536C141.259 48.3467 141.248 48.3422 141.236 48.3402C141.223 48.3383 141.211 48.3391 141.199 48.3424C141.187 48.3458 141.176 48.3517 141.167 48.3597C141.158 48.3678 141.15 48.3777 141.145 48.3889C141.054 48.5965 140.958 48.7338 140.858 48.8008C140.849 48.8067 140.842 48.8146 140.837 48.8238C140.833 48.833 140.83 48.8432 140.83 48.8535C140.831 48.8638 140.833 48.8738 140.838 48.8826C140.843 48.8915 140.85 48.8989 140.859 48.9041C141.01 48.9976 141.108 49.099 141.152 49.2084C141.165 49.2402 141.168 49.2746 141.163 49.3082C141.158 49.3418 141.144 49.3733 141.123 49.3995C141.018 49.5297 140.851 49.759 140.759 49.9373C140.192 51.0508 139.74 51.8231 139.403 52.2543C137.793 54.3113 135.808 56.0328 133.445 57.4189C132.667 57.8756 131.818 58.2483 130.897 58.5371C130.758 58.5805 130.616 58.6017 130.47 58.6008C130.418 58.6008 130.367 58.6129 130.321 58.6362C130.145 58.7249 129.894 58.7508 129.566 58.714C129.543 58.7113 129.52 58.7001 129.504 58.6824C129.488 58.6648 129.478 58.6418 129.478 58.6178C129.474 58.4875 129.519 58.3701 129.614 58.2653C129.622 58.2569 129.627 58.2465 129.63 58.2354C129.632 58.2242 129.632 58.2126 129.629 58.2017C129.625 58.1907 129.619 58.1808 129.611 58.1729C129.603 58.1649 129.593 58.1592 129.582 58.1563C129.513 58.1375 129.449 58.1705 129.389 58.2554C129.374 58.276 129.355 58.293 129.333 58.3051C129.311 58.3171 129.287 58.3238 129.262 58.3248C128.969 58.3314 128.665 58.4163 128.35 58.5795C128.319 58.5953 128.285 58.6036 128.249 58.6036H127.939C127.911 58.6035 127.884 58.5963 127.859 58.5826C127.834 58.5689 127.814 58.5492 127.799 58.5253C127.784 58.5015 127.775 58.4742 127.774 58.446C127.772 58.4179 127.778 58.3898 127.79 58.3644L127.974 57.9794C127.981 57.9654 127.992 57.9536 128.005 57.9453C128.018 57.9371 128.034 57.9327 128.049 57.9327C128.086 57.9337 128.116 57.9346 128.139 57.9356C128.186 57.9384 128.288 57.8988 128.448 57.8167C128.723 57.6742 129.043 57.5142 129.408 57.3369C131.089 56.5174 132.694 54.9718 133.671 53.6414C135.213 51.5391 136.25 50.2096 136.78 49.6529C136.884 49.5425 137.076 49.1363 137.355 48.4342C137.536 47.9785 138.159 47.5709 138.383 47.1448C138.587 46.7589 138.746 46.3768 138.861 45.9984C138.863 45.9917 138.863 45.9845 138.861 45.9778C138.859 45.9711 138.855 45.9652 138.849 45.9608C138.844 45.9564 138.837 45.9538 138.83 45.9531C138.823 45.9525 138.816 45.954 138.81 45.9574C136.888 46.9849 134.793 47.5831 132.525 47.752C132.494 47.7546 132.464 47.7484 132.437 47.7341C132.41 47.7198 132.387 47.6981 132.372 47.6714C131.805 46.69 131.492 45.6365 131.432 44.5109C131.424 44.3731 131.477 44.2306 131.591 44.0834C131.617 44.0491 131.651 44.0218 131.691 44.0042C132.804 43.5173 133.685 42.4713 134.397 41.4961C136.501 38.6173 137.914 37.1057 141.516 32.9148C141.869 32.5029 142.272 32.1307 142.537 31.866C142.85 31.5532 142.96 31.3367 143.011 30.8555C143.091 30.0949 143.211 28.9971 143.373 27.5619C143.404 27.2916 143.432 26.7481 143.404 26.3334C143.335 25.3483 143.284 24.2245 143.253 22.962C143.248 22.7478 143.175 22.4445 143.036 22.0519C142.918 21.7151 142.916 21.3994 142.803 21.1164C142.8 21.1073 142.798 21.0975 142.799 21.0877C142.799 21.0779 142.802 21.0684 142.807 21.0598C142.811 21.0513 142.818 21.0439 142.826 21.0382C142.834 21.0326 142.843 21.0288 142.853 21.0272ZM147.963 27.7672L147.956 28.0092C147.955 28.044 147.95 28.0782 147.942 28.1111C147.738 28.932 147.515 29.751 147.273 30.5681C147.254 30.6304 147.257 30.6847 147.28 30.7309C147.295 30.7586 147.319 30.78 147.348 30.7912C147.377 30.8024 147.409 30.8026 147.438 30.7918C148.222 30.4917 148.688 29.9477 148.837 29.1599C148.843 29.1241 148.838 29.0874 148.823 29.0551L148.173 27.7204C148.162 27.698 148.144 27.6799 148.122 27.669C148.1 27.6581 148.075 27.6552 148.05 27.6606C148.026 27.6659 148.004 27.6794 147.988 27.6987C147.973 27.7181 147.963 27.7422 147.963 27.7672ZM135.996 42.2887C136.845 41.6009 137.615 40.7191 138.291 40.0355C139.675 38.6385 140.777 37.2911 142.042 36.03C142.09 35.9823 142.129 35.9262 142.158 35.8644C142.639 34.8411 142.689 33.8716 142.627 32.7818C142.627 32.7758 142.625 32.77 142.622 32.7648C142.619 32.7597 142.615 32.7552 142.61 32.7518C142.605 32.7484 142.6 32.7461 142.594 32.7452C142.588 32.7443 142.582 32.7447 142.576 32.7464C142.54 32.7577 142.516 32.7728 142.505 32.7917C141.904 33.8008 141.131 35.0096 140.419 35.9479C138.914 37.9294 137.704 39.5755 136.79 40.8861C136.416 41.4221 136.142 41.8825 135.969 42.2675C135.966 42.2711 135.965 42.2756 135.966 42.2801C135.966 42.2846 135.968 42.2888 135.972 42.2916C135.976 42.2944 135.98 42.2957 135.985 42.2951C135.989 42.2946 135.993 42.2923 135.996 42.2887ZM145.87 39.165C145.864 39.1694 145.86 39.1753 145.857 39.1824C145.855 39.1894 145.853 39.1975 145.854 39.206C145.855 39.2146 145.857 39.2235 145.86 39.2322C145.864 39.241 145.869 39.2494 145.875 39.2571C145.881 39.2647 145.889 39.2714 145.896 39.2767C145.904 39.2821 145.913 39.286 145.921 39.2882C145.929 39.2905 145.937 39.291 145.945 39.2898C145.952 39.2886 145.959 39.2857 145.964 39.2812C145.969 39.2767 145.974 39.2708 145.976 39.2638C145.979 39.2567 145.98 39.2487 145.98 39.2401C145.979 39.2316 145.977 39.2227 145.973 39.2139C145.97 39.2052 145.964 39.1967 145.958 39.1891C145.952 39.1814 145.945 39.1748 145.937 39.1694C145.929 39.1641 145.921 39.1602 145.913 39.1579C145.904 39.1557 145.896 39.1552 145.889 39.1564C145.882 39.1576 145.875 39.1605 145.87 39.165Z" fill="white"/>
<path d="M295.445 22.3449C295.45 22.3394 295.452 22.3327 295.452 22.3258C295.452 22.3189 295.451 22.3121 295.447 22.3062C295.443 22.3004 295.438 22.2958 295.432 22.2931C295.425 22.2904 295.418 22.2897 295.412 22.2911C295.151 22.3421 294.695 22.4577 294.042 22.6379C291.797 23.2559 289.159 24.0811 286.128 25.1133C285.367 25.3728 284.529 25.6432 283.614 25.9244C281.296 26.6363 278.692 27.3992 276.568 27.6737C275.343 27.8323 274.02 27.9455 272.929 27.6256C272.907 27.6192 272.887 27.607 272.87 27.5904C272.854 27.5737 272.843 27.5532 272.837 27.5308C272.789 27.3374 272.844 27.217 273.005 27.1699C273.376 27.0623 273.885 26.983 274.338 26.8387C276.182 26.2537 277.977 25.5691 279.722 24.785C279.768 24.7642 279.808 24.7336 279.841 24.693C279.852 24.6793 279.859 24.6627 279.861 24.6451C279.864 24.6275 279.861 24.6097 279.853 24.5937C279.846 24.5776 279.834 24.5641 279.819 24.5546C279.804 24.5451 279.787 24.5401 279.769 24.5401H278.597C278.588 24.5401 278.579 24.5375 278.571 24.5327C278.563 24.5279 278.556 24.521 278.552 24.5128C278.547 24.5045 278.545 24.4952 278.545 24.4859C278.546 24.4765 278.549 24.4673 278.554 24.4595L278.741 24.175C278.762 24.143 278.786 24.1131 278.813 24.0858C279.997 22.8955 280.629 22.3506 281.233 21.0909C281.549 20.4304 281.583 19.7916 281.334 19.1745C281.04 18.4442 280.549 17.8247 279.861 17.3161C279.517 17.0614 279.239 16.9316 279.027 16.9269C279.005 16.9266 278.984 16.9177 278.968 16.9021C278.953 16.8866 278.943 16.8656 278.943 16.8434C278.93 16.5226 278.93 16.3442 278.943 16.3084C279.112 15.8744 279.387 15.5918 279.769 15.4606C279.907 15.4125 280.039 15.3667 280.164 15.3233C280.23 15.3008 280.299 15.2889 280.368 15.2879C281.795 15.2653 283.002 15.2653 284.291 15.738C286.001 16.3645 286.904 17.6044 287.001 19.4576C287.014 19.7104 287.01 20.3021 286.988 21.2324C286.987 21.2633 286.981 21.2936 286.968 21.3216L286.847 21.6033C286.836 21.6293 286.832 21.658 286.837 21.686C286.842 21.7139 286.854 21.74 286.873 21.7611C286.892 21.7823 286.916 21.7975 286.943 21.8052C286.97 21.8128 286.999 21.8125 287.026 21.8042C289.738 20.9663 292.377 20.2813 295.137 20.1171C296.093 20.0605 297.099 20.0695 298.157 20.144C299.003 20.2035 299.698 21.0569 299.971 21.7844C299.987 21.8247 299.996 21.8673 299.997 21.9104C300.003 22.3293 299.997 22.5836 299.977 22.6733C299.891 23.0724 299.693 23.3791 299.385 23.5933C299.1 23.7895 298.551 24.0089 297.737 24.2514C295.811 24.826 294.186 25.2591 292.859 25.5507C292.772 25.5696 292.718 25.5781 292.699 25.5762C292.663 25.5729 292.63 25.5592 292.602 25.5368C292.574 25.5144 292.554 25.4843 292.543 25.4503C292.533 25.4163 292.532 25.3799 292.542 25.3456C292.552 25.3114 292.572 25.2808 292.599 25.2577C293.614 24.3844 294.666 23.4305 295.445 22.3449Z" fill="white"/>
<path d="M230.82 19.4178L234.001 16.0493C234.054 15.9933 234.124 15.9564 234.2 15.9445C234.733 15.8634 235.258 15.861 235.775 15.9374C235.855 15.9493 235.928 15.9906 235.979 16.0535C236.265 16.4017 236.581 16.7579 236.928 17.1221C237.143 17.3471 237.21 17.4802 237.196 17.8128C237.168 18.4412 237.102 18.9366 236.997 19.2989C236.649 20.4991 233.609 21.0596 232.538 21.1644C232.123 21.204 231.603 21.204 231.284 20.8983C230.934 20.5643 230.652 20.1113 230.721 19.623C230.732 19.5466 230.767 19.475 230.82 19.4178Z" fill="white"/>
<path d="M243.78 35.2968L243.548 35.4582C243.505 35.4868 243.455 35.502 243.404 35.502H241.954C241.904 35.502 241.854 35.4898 241.809 35.4664C241.765 35.443 241.726 35.4091 241.698 35.3676L240.286 33.3153C240.161 33.1337 240.094 32.9186 240.093 32.6982C240.092 32.1047 240.148 31.3423 240.261 30.411C240.324 29.8892 240.468 29.3566 240.692 28.8131C240.718 28.7508 241.537 26.573 243.15 22.2798C243.154 22.2688 243.156 22.257 243.154 22.2453C243.153 22.2337 243.148 22.2226 243.141 22.2131C243.134 22.2035 243.125 22.1958 243.114 22.1907C243.103 22.1855 243.091 22.183 243.08 22.1835C242.795 22.1962 242.415 22.2288 242.177 22.134C242.053 22.0849 241.871 22.0528 241.63 22.0377C241.61 22.0358 241.591 22.0306 241.574 22.0222L240.997 21.7447C240.965 21.7291 240.938 21.7039 240.921 21.6726C240.802 21.4659 240.736 21.2838 240.721 21.1262C240.714 21.056 240.734 20.9864 240.776 20.9309C240.85 20.8309 240.875 20.7144 240.852 20.5813C240.85 20.5709 240.851 20.5602 240.854 20.55C240.856 20.5398 240.861 20.5304 240.868 20.5223C240.875 20.5143 240.884 20.5078 240.893 20.5033C240.903 20.4988 240.913 20.4965 240.924 20.4964H241.372C241.385 20.4964 241.398 20.4935 241.41 20.4879L241.991 20.1907C242.028 20.1715 242.061 20.1446 242.087 20.1116C242.113 20.0787 242.132 20.0405 242.142 19.9996C242.168 19.8986 242.211 19.8298 242.272 19.793C242.309 19.7708 242.34 19.7396 242.362 19.7023C242.384 19.665 242.397 19.6227 242.398 19.5792C242.412 19.2886 242.511 19.0622 242.697 18.8999C243.807 17.9365 245.004 16.9755 246.289 16.0168C246.35 15.9716 246.422 15.9442 246.498 15.9374C246.574 15.9307 246.65 15.9449 246.719 15.9786C247.879 16.5504 248.989 17.4534 249.206 18.8263C249.309 19.4688 248.98 19.9189 248.491 20.4695C247.06 22.083 245.71 23.7112 244.439 25.3539C243.257 26.8797 242.351 28.3394 241.722 29.733C241.578 30.0487 241.52 30.3869 241.434 30.6799C241.426 30.7059 241.426 30.7336 241.433 30.7597C241.441 30.7858 241.456 30.8092 241.476 30.8271C241.497 30.845 241.522 30.8566 241.549 30.8607C241.576 30.8647 241.604 30.8609 241.629 30.8498C242.927 30.2619 244.136 29.5179 245.257 28.6177C245.808 28.1733 246.51 27.5406 247.362 26.7197C247.378 26.7039 247.399 26.6929 247.421 26.6879C247.443 26.6829 247.466 26.6841 247.487 26.6914C248.845 27.1311 249.711 28.0393 250.083 29.416C250.088 29.4329 250.09 29.4505 250.09 29.4684V30.7592C250.09 30.8309 250.074 30.902 250.042 30.9672L244.285 42.9964C244.281 43.0038 244.28 43.012 244.28 43.0202C244.281 43.0284 244.283 43.0364 244.288 43.0433C244.292 43.0503 244.298 43.056 244.305 43.0599C244.312 43.0639 244.321 43.0658 244.329 43.0657H246.599C246.646 43.0657 246.692 43.079 246.731 43.1039C247.668 43.6861 248.425 44.3966 249.004 45.2355C249.298 45.6601 249.45 46.1206 249.461 46.6169C249.462 46.641 249.468 46.6646 249.481 46.6855C249.493 46.7063 249.51 46.7236 249.531 46.7358C249.552 46.748 249.575 46.7547 249.599 46.7552C249.623 46.7557 249.647 46.75 249.668 46.7386C249.78 46.6791 249.877 46.5862 249.958 46.4598C251.392 44.2065 253.064 41.6636 254.974 38.831C256.188 37.0292 256.789 35.1539 257.731 32.861C257.782 32.7364 257.853 32.593 257.944 32.4307C257.956 32.4084 257.974 32.3897 257.996 32.3768C258.018 32.3639 258.043 32.3571 258.068 32.3571H258.867C258.894 32.3571 258.921 32.3626 258.946 32.3732C258.971 32.3838 258.994 32.3993 259.012 32.4189C259.031 32.4384 259.046 32.4616 259.056 32.487C259.065 32.5123 259.07 32.5394 259.069 32.5666C259.057 32.9016 259.023 33.2743 258.967 33.6847C258.819 34.7934 258.54 36.256 258.131 38.0723C257.335 41.6037 256.438 44.8491 254.939 48.0322C254.561 48.8362 254.056 49.6604 253.425 50.5049C252.603 51.6032 251.572 52.3656 250.333 52.7921C250.313 52.7996 250.293 52.8048 250.272 52.8077L249.309 52.9605C249.269 52.9671 249.227 52.9605 249.191 52.9416C249.155 52.9228 249.125 52.8927 249.107 52.8558L245.502 45.4478C245.471 45.3839 245.427 45.3277 245.372 45.2829C245.317 45.2382 245.253 45.2061 245.185 45.1888L243.562 44.7797C243.542 44.7744 243.52 44.7756 243.501 44.7832C243.481 44.7909 243.465 44.8045 243.453 44.8222C242.661 46.0404 241.769 47.184 240.778 48.253C240.054 49.0353 239.265 49.7208 238.411 50.3095C238.37 50.3378 238.32 50.3504 238.271 50.345C238.221 50.3395 238.176 50.3164 238.142 50.2798L237.317 49.374C237.304 49.3601 237.295 49.3438 237.289 49.326C237.283 49.3083 237.28 49.2895 237.282 49.2707C237.375 48.1139 237.457 47.4071 237.528 47.1505C237.661 46.6768 238.011 45.8469 238.577 44.6608C240.107 41.4518 241.873 38.3625 243.878 35.3931C243.887 35.3796 243.892 35.3632 243.89 35.3466C243.889 35.3301 243.882 35.3146 243.87 35.303C243.858 35.2914 243.843 35.2843 243.826 35.2832C243.81 35.2821 243.794 35.2869 243.78 35.2968Z" fill="white"/>
<path d="M225.089 43.7551C225.093 43.7371 225.093 43.7182 225.088 43.7004C225.082 43.6827 225.072 43.6667 225.059 43.6541C225.045 43.6415 225.029 43.6328 225.011 43.6289C224.993 43.625 224.974 43.626 224.956 43.6319L223.497 44.1188C223.404 44.15 223.321 44.206 223.257 44.2808C223.193 44.3556 223.151 44.4464 223.135 44.5434C222.972 45.5125 222.924 46.5136 222.991 47.5468C223.05 48.4649 223.075 50.7238 223.065 54.3236C223.065 54.3766 223.053 54.4289 223.03 54.4764C222.917 54.7066 222.768 54.8444 222.583 54.8897C222.224 54.9775 221.757 54.9893 221.182 54.9251C221.078 54.9131 220.98 54.8702 220.9 54.8019C220.119 54.1296 219.765 53.1403 219.387 52.0094C219.242 51.5792 219.237 51.1536 219.373 50.7328C219.604 50.0053 219.882 49.2764 219.986 48.5885C220.14 47.5685 220.215 47.0109 220.21 46.9156C220.196 46.5702 220.241 46.2357 220.346 45.9121C220.349 45.9 220.35 45.8872 220.348 45.8747C220.346 45.8623 220.342 45.8505 220.334 45.8403C220.327 45.8301 220.317 45.8218 220.306 45.8161C220.295 45.8103 220.283 45.8073 220.271 45.8073H218.357C218.34 45.8072 218.322 45.8031 218.306 45.7953C218.291 45.7874 218.277 45.7761 218.266 45.7622C218.255 45.7482 218.248 45.732 218.244 45.7148C218.241 45.6976 218.242 45.6799 218.246 45.663L218.335 45.3233C218.339 45.3091 218.341 45.2945 218.343 45.2794L218.538 43.179C218.54 43.1575 218.548 43.1373 218.562 43.121C218.576 43.1048 218.595 43.0934 218.615 43.0884C219.349 42.9143 219.806 42.1472 220.174 41.4749C220.636 40.6304 221.043 39.7067 221.393 38.7036C222.15 36.5438 222.776 34.5411 223.273 32.6954C223.561 31.6217 224.032 29.7369 224.684 27.0411C224.685 27.0364 224.757 26.809 224.901 26.3589C224.93 26.2718 224.981 26.194 225.051 26.1338C225.531 25.7215 226.055 25.3983 226.621 25.1643C226.632 25.1598 226.644 25.1587 226.656 25.1612C226.667 25.1637 226.678 25.1698 226.686 25.1785L228.869 27.5733C228.889 27.595 228.917 27.6083 228.946 27.6104C228.976 27.6125 229.005 27.6033 229.028 27.5846C230.282 26.5457 231.666 25.6196 233.178 24.8062C234.368 24.1665 236.125 23.5069 237.56 23.6258C237.604 23.6296 237.647 23.6405 237.689 23.6584C238.481 24.015 238.769 24.7086 238.787 25.6116C238.812 26.808 238.734 27.9214 238.551 28.9518C238.512 29.1726 238.3 29.5972 238.117 29.8223C237.216 30.9277 236.252 32.1194 235.709 33.464C235.444 34.1193 235.43 34.7152 235.496 35.5078C235.582 36.5542 235.613 37.1944 235.588 37.4284C235.438 38.8282 233.831 40.2096 232.8 41.0447C232.764 41.0736 232.734 41.1098 232.713 41.151C232.691 41.1921 232.678 41.2373 232.675 41.2838C232.631 41.8783 232.969 42.7119 233.322 43.9447C233.338 44.0018 233.334 44.0627 233.311 44.1173C233.288 44.1719 233.247 44.2169 233.195 44.2448C231.933 44.9157 231.623 46.2673 231.49 47.5879C231.423 48.2512 231.428 49.2028 231.503 50.4426C231.51 50.5634 231.55 51.1376 231.623 52.1651C231.692 53.1465 231.74 53.7201 231.765 53.8862C231.868 54.5599 231.43 55.0921 230.709 54.9265C230.447 54.8656 230.268 54.6661 230.066 54.4722C227.858 52.3505 226.134 50.5913 224.766 48.0323C224.366 47.284 224.28 46.5405 224.506 45.8017C224.768 44.9487 224.962 44.2665 225.089 43.7551ZM233.164 29.3651C233.045 29.3387 232.919 29.3401 232.786 29.3693C231.908 29.5618 231.155 29.7152 230.527 29.8293C230.482 29.8379 230.44 29.8614 230.409 29.8959C230.378 29.9305 230.36 29.9743 230.357 30.0204C230.299 30.9093 230.341 31.7816 230.481 32.6374C230.53 32.9412 230.622 33.2281 230.754 33.498C230.794 33.5793 230.854 33.6493 230.928 33.7016C231.001 33.754 231.086 33.7871 231.176 33.798C231.298 33.8122 231.468 33.8046 231.686 33.7754C231.814 33.7574 231.88 33.6942 231.885 33.5857C231.889 33.5064 231.911 33.4069 231.953 33.2871C232.368 32.0727 232.78 30.779 233.188 29.4061C233.189 29.4019 233.189 29.3974 233.189 29.3929C233.188 29.3885 233.187 29.3842 233.185 29.3804C233.182 29.3765 233.179 29.3732 233.176 29.3706C233.172 29.3679 233.168 29.3661 233.164 29.3651ZM225.664 38.8806C225.638 38.7286 225.632 38.6244 225.647 38.5678C225.663 38.5102 225.764 37.5633 225.95 35.7271C226.057 34.6826 226.121 34.1136 226.145 34.0202C226.147 34.0101 226.148 33.9995 226.146 33.9892C226.144 33.9789 226.14 33.9691 226.135 33.9603C226.129 33.9516 226.122 33.9441 226.113 33.9383C226.104 33.9325 226.094 33.9286 226.084 33.9268C225.897 33.8909 225.773 33.9575 225.711 34.1264C225.025 35.9862 224.359 37.744 223.713 39.4C223.705 39.4214 223.703 39.4447 223.707 39.4671C223.712 39.4896 223.723 39.5102 223.738 39.5268C223.754 39.5433 223.774 39.5551 223.796 39.5607C223.819 39.5663 223.842 39.5656 223.863 39.5585L225.608 38.9754C225.627 38.9693 225.643 38.9563 225.653 38.9389C225.664 38.9214 225.668 38.9007 225.664 38.8806Z" fill="white"/>
<path d="M272.116 24.7934C272.618 25.1812 272.506 26.2158 272.477 26.823C272.376 28.9612 271.986 30.9134 271.308 32.6798C271.179 33.0157 270.927 33.4002 270.551 33.8333C269.949 34.5268 269.188 34.7547 268.266 34.5169C267.979 34.4419 267.733 34.2636 267.592 33.9692C267.171 33.0813 266.918 32.1844 266.834 31.2786C266.804 30.9658 266.889 30.6714 267.13 30.4265C267.531 30.0227 268.025 29.4254 268.612 28.6347C269.461 27.4911 270.383 26.3319 271.363 25.2732C271.49 25.1354 271.698 24.9736 271.987 24.7877C272.007 24.7753 272.029 24.7691 272.052 24.7701C272.075 24.7711 272.097 24.7793 272.116 24.7934Z" fill="white"/>
<path d="M283.538 37.1849C283.515 37.1715 283.495 37.1521 283.481 37.1287C283.467 37.1053 283.459 37.0786 283.459 37.0513C283.458 37.024 283.465 36.9971 283.478 36.9731C283.491 36.9491 283.51 36.9289 283.533 36.9145C285.472 35.719 287.133 34.2051 288.517 32.3726C288.605 32.2566 288.683 32.083 288.751 31.8518C288.766 31.8025 288.763 31.7497 288.745 31.7018C288.726 31.6539 288.692 31.6136 288.648 31.5871C288.498 31.4956 288.324 31.4489 288.126 31.447C284.011 31.3989 280.78 33.3436 277.911 36.1304C277.35 36.6739 277.04 36.9726 276.655 37.5897C275.914 38.7771 275.439 39.8613 274.031 39.6802C272.855 39.5273 272.374 38.3016 272.085 37.2655C272.072 37.2188 272.067 37.1698 272.072 37.1212C272.216 35.6832 273.007 35.7808 274.377 35.4893C274.486 35.4666 274.707 35.3793 275.042 35.2274C275.902 34.8377 276.861 34.3872 277.921 33.8758C280.184 32.7831 282.712 31.7216 284.803 30.9092C285.466 30.653 286.464 30.4704 287.316 30.4449C288.493 30.411 289.292 30.419 289.714 30.469C290.999 30.6233 292.241 30.7393 293.291 31.1116C293.608 31.2234 293.621 31.447 293.675 31.7839C293.816 32.6741 293.593 33.7342 292.748 34.1843C291.865 34.6542 290.973 35.0538 290.072 35.3831C287.914 36.171 285.796 36.7692 283.717 37.1778C283.622 37.1967 283.563 37.199 283.538 37.1849Z" fill="white"/>
<path d="M278.921 46.7571C278.925 46.7501 278.927 46.742 278.927 46.7339C278.926 46.7258 278.923 46.718 278.918 46.7117C278.913 46.7053 278.906 46.7007 278.898 46.6985C278.891 46.6962 278.882 46.6964 278.875 46.699C277.958 46.9863 277.128 47.1958 276.056 47.1378C274.629 47.0599 273.462 46.2999 272.729 45.0728C272.621 44.8954 272.561 44.7567 272.548 44.6567C272.545 44.6348 272.547 44.6126 272.554 44.5914C272.56 44.5702 272.57 44.5505 272.585 44.5335C272.779 44.308 273 44.1382 273.246 44.024C273.279 44.009 273.313 43.9999 273.349 43.9971C273.805 43.9697 274.264 43.8542 274.725 43.6503C275.551 43.2852 276.155 43.0115 276.536 42.8294C277.826 42.2109 278.837 41.8585 280.351 41.1975C281.315 40.7767 282.095 40.5021 282.692 40.3738C283.429 40.2153 284.255 40.152 285.17 40.1841C286.083 40.2171 286.57 40.6753 286.63 41.5584C286.633 41.6099 286.628 41.6617 286.614 41.7113C286.517 42.0585 286.354 42.4039 286.124 42.7473C285.354 43.891 284.513 45.0063 283.602 46.0933C282.163 47.8106 281.295 48.8254 280.997 49.1377C280.758 49.3887 280.638 49.5151 280.637 49.517C280.632 49.5227 280.629 49.5297 280.628 49.5372C280.627 49.5446 280.628 49.5521 280.632 49.559C280.635 49.5658 280.64 49.5716 280.646 49.5757C280.652 49.5798 280.659 49.582 280.667 49.5821C281.202 49.5887 281.855 49.5647 282.627 49.5099C283.679 49.4363 284.913 49.4198 286.331 49.4604C287.834 49.5029 288.561 50.7569 288.46 52.1538C288.411 52.8205 288.308 53.7772 287.779 54.1764C286.982 54.7774 286.004 55.3573 284.846 55.9159C284.028 56.3107 283.078 56.4169 282.266 56.7382C280.925 57.2675 279.829 57.7256 278.978 58.1125C278.577 58.2946 278.234 58.3715 277.948 58.3432C277.928 58.341 277.909 58.3311 277.895 58.3153C277.881 58.2995 277.874 58.2791 277.875 58.2583C277.881 58.1394 277.954 58.0304 278.094 57.9313C279.856 56.6811 281.501 55.3893 283.027 54.0561C283.32 53.7999 283.679 53.4107 283.841 53.0724C283.85 53.0531 283.855 53.032 283.855 53.0106C283.855 52.9892 283.85 52.9682 283.84 52.9489C283.831 52.9297 283.817 52.9129 283.801 52.8997C283.784 52.8865 283.764 52.8774 283.743 52.8728C283.561 52.8323 283.391 52.8426 283.234 52.904C281.244 53.6796 279.197 54.1537 277.092 54.3264C276.426 54.3816 275.216 54.3646 274.866 53.7079C274.522 53.0611 274.622 52.1468 274.915 51.4914C275.004 51.2914 275.227 51.0116 275.584 50.6521C276.788 49.4387 277.716 48.4088 278.367 47.5624C278.612 47.2444 278.797 46.976 278.921 46.7571Z" fill="white"/>
<path d="M253.682 81.8211C253.692 81.8047 253.707 81.7919 253.725 81.7845C253.743 81.7772 253.763 81.7756 253.782 81.7801C254.963 82.0646 255.519 83.4559 255.713 84.5896C255.774 84.9425 255.769 85.227 255.701 85.443C253.776 91.5366 252.36 96.0262 251.454 98.9116C251.388 99.123 251.368 99.3329 251.393 99.5414C251.402 99.6156 251.437 99.684 251.493 99.7339C251.548 99.7839 251.62 99.8121 251.695 99.8132L252.593 99.8245C252.688 99.8255 252.78 99.8573 252.855 99.9151C253.113 100.113 252.867 100.761 252.71 100.995C252.682 101.035 252.647 101.07 252.607 101.097C251.856 101.606 250.695 102.262 249.762 102.132C249.367 102.076 249.125 101.845 249.036 101.439C248.93 100.963 248.882 100.547 248.892 100.191C248.954 97.6378 250.027 95.2755 250.506 92.8043C250.601 92.3184 250.782 91.6437 251.048 90.7804C251.595 89.0083 251.975 86.8839 252.345 85.4105C252.679 84.0815 253.017 82.8685 253.682 81.8211Z" fill="white"/>
<path d="M216.969 98.9173C216.248 98.4351 215.94 97.7317 216.042 96.807C216.045 96.7844 216.053 96.7629 216.066 96.7443C216.079 96.7258 216.097 96.7108 216.117 96.7008L216.517 96.4956C216.531 96.489 216.546 96.4838 216.561 96.48C217.248 96.3102 217.928 96.246 218.6 96.2875C218.625 96.2893 218.651 96.2837 218.674 96.2714C218.696 96.2592 218.715 96.2407 218.728 96.2182C222.225 90.2128 224.236 86.6985 227.324 82.0703C227.337 82.0507 227.356 82.0365 227.378 82.03C227.401 82.0235 227.425 82.0252 227.446 82.0349C228.155 82.342 228.602 82.7298 229.436 83.4559C229.471 83.4865 229.497 83.5266 229.512 83.5719C229.541 83.6663 229.551 83.8196 229.542 84.0319C229.505 84.7849 229.365 85.7091 229.353 86.4904C229.347 86.8999 229.317 87.3193 229.262 87.7487C229.251 87.8364 229.146 89.2876 228.946 92.1023C228.887 92.9218 228.904 93.9324 228.903 94.4971C228.903 94.624 228.953 94.7457 229.042 94.8354C229.132 94.9251 229.253 94.9755 229.379 94.9755H229.815C229.887 94.9755 229.958 94.9909 230.023 95.0206C230.088 95.0504 230.146 95.0939 230.193 95.1482C230.689 95.7219 230.995 96.3475 231.111 97.0249C231.12 97.0757 231.109 97.1279 231.082 97.1717C231.055 97.2155 231.013 97.2479 230.964 97.2627C230.612 97.3689 230.273 97.2967 229.862 97.2273C229.401 97.1509 229.152 97.2939 228.941 97.6208C228.917 97.6587 228.904 97.7024 228.904 97.7468V100.994C228.904 101.013 228.908 101.033 228.914 101.052C229.14 101.633 229.341 102.209 228.763 102.62C228.723 102.648 228.678 102.668 228.631 102.679C228.521 102.705 228.284 102.682 227.921 102.61C225.364 102.102 222.976 101.243 220.759 100.031C220.618 99.9538 220.261 99.8453 219.69 99.7056C219.672 99.7011 219.654 99.7025 219.637 99.7096C219.62 99.7167 219.605 99.7292 219.595 99.7453C218.863 100.958 218.325 101.75 217.982 102.123C217.283 102.883 216.375 102.057 215.95 101.454C215.934 101.431 215.925 101.404 215.922 101.376C215.92 101.348 215.925 101.32 215.938 101.295C216.272 100.596 216.771 99.8755 217.012 99.0362C217.018 99.0144 217.017 98.9912 217.01 98.9699C217.002 98.9485 216.987 98.9301 216.969 98.9173ZM221.982 95.7596C222.425 95.8021 223.055 95.6025 224.113 95.3548C224.877 95.1765 225.643 95.1241 226.447 95.0137C226.715 94.976 226.84 94.8321 226.822 94.582C226.785 94.1263 226.693 93.5913 226.707 93.0662C226.76 91.2404 226.86 89.7811 226.822 87.8846C226.821 87.8597 226.813 87.8355 226.799 87.8154C226.784 87.7953 226.763 87.7802 226.74 87.7723C226.716 87.7644 226.691 87.764 226.667 87.7712C226.643 87.7783 226.623 87.7927 226.607 87.8124C226.228 88.2978 225.826 88.8767 225.452 89.5165C225.421 89.5712 224.569 91.0682 222.899 94.0074C222.607 94.5212 222.217 95.0817 221.936 95.6775C221.932 95.6859 221.93 95.6951 221.931 95.7043C221.931 95.7136 221.934 95.7226 221.938 95.7306C221.943 95.7386 221.949 95.7454 221.957 95.7505C221.965 95.7555 221.973 95.7587 221.982 95.7596ZM220.601 99.2074C220.594 99.2113 220.589 99.2169 220.586 99.2236C220.583 99.2302 220.582 99.2377 220.582 99.245C220.583 99.2524 220.586 99.2594 220.59 99.2653C220.595 99.2711 220.601 99.2756 220.608 99.2782C222.064 99.7792 223.477 100.306 224.829 100.474C225.719 100.586 226.422 100.625 226.939 100.593C226.983 100.59 227.027 100.577 227.065 100.555C227.104 100.532 227.136 100.501 227.161 100.463C227.185 100.426 227.2 100.383 227.205 100.338C227.21 100.294 227.204 100.249 227.188 100.207L227.111 100C227.095 99.957 227.087 99.9115 227.087 99.8656V98.2521C227.087 98.1853 227.061 98.1211 227.015 98.0728C226.968 98.0245 226.905 97.996 226.839 97.9931C226.67 97.9855 226.515 97.9949 226.372 98.0214C225.029 98.2724 223.204 98.6314 220.9 99.0984C220.785 99.122 220.685 99.1584 220.601 99.2074Z" fill="white"/>
<path d="M145.109 87.5051C144.868 85.9921 145.085 85.024 146.439 84.1918C146.949 83.8785 147.447 83.7266 147.933 83.736C148.245 83.7426 148.456 83.8039 148.566 83.92C148.967 84.3446 148.878 84.9221 148.696 85.4712C148.4 86.361 147.801 87.1291 146.898 87.7754C146.28 88.218 145.71 88.1812 145.189 87.665C145.146 87.6218 145.118 87.5658 145.109 87.5051Z" fill="white"/>
<path d="M181.533 83.7488H181.014C180.972 83.7488 180.938 83.783 180.938 83.8252V83.8309C180.938 83.8731 180.972 83.9073 181.014 83.9073H181.533C181.575 83.9073 181.609 83.8731 181.609 83.8309V83.8252C181.609 83.783 181.575 83.7488 181.533 83.7488Z" fill="white"/>
<path d="M184.852 87.7742C184.802 87.7401 184.768 87.6877 184.757 87.6285C184.642 87.034 184.548 85.5833 185.026 85.0341C185.731 84.2231 186.73 83.6159 187.845 83.7688C188.295 83.831 188.392 84.3109 188.37 84.6987C188.325 85.4526 188.062 86.1197 187.579 86.7C187.196 87.1557 186.628 87.678 186.173 87.9313C185.778 88.1493 185.338 88.0969 184.852 87.7742Z" fill="white"/>
<path d="M236.124 87.6595C236.004 87.0651 235.901 85.6115 236.376 85.0581C237.077 84.2414 238.074 83.6272 239.192 83.773C239.643 83.8324 239.744 84.3122 239.724 84.7C239.684 85.4558 239.424 86.1258 238.944 86.7098C238.565 87.1698 237.999 87.6963 237.544 87.9525C237.15 88.1743 236.709 88.1247 236.22 87.8039C236.17 87.7704 236.136 87.7185 236.124 87.6595Z" fill="white"/>
<path d="M258.024 87.4245C258.016 86.5413 258.088 85.8586 258.241 85.3765C258.69 83.9668 262.66 82.4269 261.631 85.5548C261.345 86.4224 260.72 87.1174 259.949 87.6977C259.609 87.9538 259.252 88.1534 258.848 88.0614C258.528 87.9878 258.286 87.859 258.121 87.675C258.06 87.6066 258.025 87.5175 258.024 87.4245Z" fill="white"/>
<path d="M134.908 88.2355C134.901 88.221 134.89 88.2088 134.876 88.2003C134.862 88.1918 134.847 88.1873 134.831 88.1874C133.53 88.2138 132.4 88.2067 131.441 88.1662C131.009 88.1478 129.42 88.002 129.185 87.6481C129.028 87.4132 128.944 87.1103 129.021 86.8046C129.113 86.4394 129.176 86.1096 129.353 85.7431C129.534 85.3685 129.713 85.0108 129.89 84.6702C129.907 84.6366 129.93 84.6068 129.959 84.5825C130.134 84.4315 130.33 84.3749 130.548 84.4126C130.585 84.4191 130.619 84.4369 130.644 84.4636L131.174 85.0071C131.196 85.0291 131.222 85.0465 131.25 85.0584C131.278 85.0703 131.309 85.0764 131.339 85.0764C134.608 85.0821 136.616 85.0543 137.363 84.9929C138.124 84.9288 138.735 84.8877 139.195 84.8698C139.942 84.8386 140.61 84.7254 141.18 84.6462C142.099 84.5188 143.131 84.1947 143.808 84.0616C143.948 84.0342 144.035 84.022 144.069 84.0248C144.092 84.0269 144.114 84.034 144.134 84.0456C144.154 84.0571 144.171 84.0729 144.184 84.0918C144.197 84.1106 144.206 84.1321 144.21 84.1548C144.214 84.1774 144.213 84.2007 144.207 84.223C143.985 85.0835 143.591 85.9299 143.026 86.7621C142.87 86.9914 142.588 87.208 142.366 87.341C141.143 88.0704 139.788 88.3983 138.302 88.3247C137.971 88.3077 137.762 88.4572 137.676 88.7733C137.449 89.599 137.081 91.0115 136.571 93.0109C135.947 95.451 135.346 97.733 134.767 99.857C134.734 99.9802 134.734 100.109 134.769 100.231L135.059 101.27C135.071 101.313 135.071 101.36 135.058 101.404C134.962 101.726 134.76 101.955 134.451 102.09C133.981 102.299 133.486 102.352 132.967 102.25C132.79 102.215 132.615 102.182 132.443 102.15C131.93 102.056 131.561 101.787 131.335 101.343C131.317 101.306 131.307 101.265 131.307 101.223V100.081C131.307 99.8582 131.339 99.637 131.401 99.4239C132.176 96.7956 132.957 94.4136 134.017 91.045C134.291 90.1741 134.621 89.3593 135.007 88.6007C135.02 88.5761 135.026 88.5488 135.026 88.521C135.027 88.4932 135.02 88.4657 135.008 88.4407L134.908 88.2355Z" fill="white"/>
<path d="M182.032 84.0768C181.957 84.0227 181.867 84.0195 181.831 84.0697C181.795 84.1199 181.827 84.2045 181.903 84.2586C181.978 84.3128 182.068 84.316 182.104 84.2658C182.14 84.2156 182.108 84.131 182.032 84.0768Z" fill="white"/>
<path d="M179.583 84.5443C179.589 84.5389 179.596 84.5353 179.604 84.5341C179.612 84.5329 179.62 84.5341 179.627 84.5376C179.634 84.541 179.64 84.5465 179.643 84.5533C179.647 84.56 179.648 84.5678 179.647 84.5754C179.63 84.7217 179.557 84.799 179.428 84.8075C179.418 84.8083 179.408 84.8059 179.399 84.8005C179.39 84.7951 179.383 84.7871 179.379 84.7775C179.375 84.768 179.374 84.7575 179.376 84.7473C179.378 84.7372 179.384 84.7281 179.391 84.7212L179.583 84.5443Z" fill="white"/>
<path d="M181.057 86.6461C181.051 86.6517 181.044 86.6562 181.036 86.6591C181.028 86.662 181.02 86.6634 181.011 86.6631C181.003 86.6629 180.995 86.661 180.988 86.6576C180.98 86.6541 180.974 86.6493 180.968 86.6432L180.937 86.6093C180.932 86.6034 180.928 86.5964 180.925 86.589C180.923 86.5815 180.921 86.5735 180.922 86.5656C180.923 86.5577 180.925 86.55 180.928 86.5429C180.932 86.5358 180.937 86.5295 180.943 86.5243C181.35 86.1809 181.644 85.7737 181.827 85.3029C181.835 85.2821 181.837 85.2576 181.831 85.2293C181.824 85.1897 181.825 85.1646 181.834 85.1543C181.949 85.009 181.989 84.8415 181.954 84.6518C181.95 84.632 181.953 84.6114 181.964 84.5939C181.974 84.5764 181.991 84.5633 182.01 84.557L182.065 84.5372C182.072 84.5348 182.08 84.5341 182.088 84.5351C182.095 84.5361 182.102 84.5389 182.109 84.5431C182.115 84.5473 182.12 84.5529 182.124 84.5595C182.128 84.566 182.131 84.5734 182.131 84.581C182.144 84.733 182.142 84.8806 182.123 85.0241C182.112 85.1061 182.075 85.2114 182.013 85.3397C181.986 85.3972 181.901 85.5911 181.759 85.9214C181.74 85.9626 181.714 86 181.682 86.0318L181.057 86.6461Z" fill="white"/>
<path d="M180.425 85.9766C180.8 85.7641 181.021 85.4468 180.92 85.2679C180.819 85.089 180.434 85.1162 180.06 85.3287C179.686 85.5411 179.465 85.8584 179.565 86.0374C179.666 86.2163 180.051 86.1891 180.425 85.9766Z" fill="white"/>
<path d="M179.083 85.46C179.09 85.4543 179.099 85.4514 179.108 85.452C179.117 85.4525 179.125 85.4564 179.131 85.4628L179.167 85.5025C179.169 85.5044 179.17 85.5067 179.171 85.5093C179.172 85.5119 179.172 85.5146 179.172 85.5173C179.172 85.52 179.171 85.5226 179.169 85.525C179.168 85.5273 179.166 85.5293 179.164 85.5308C179.057 85.611 179.001 85.6785 178.997 85.7332C178.985 85.8747 178.957 85.9799 178.913 86.0488C178.891 86.0818 178.882 86.2102 178.886 86.4338C178.886 86.4436 178.885 86.4533 178.881 86.4624C178.877 86.4715 178.872 86.4798 178.866 86.4867C178.859 86.4937 178.851 86.4993 178.842 86.5031C178.833 86.5069 178.824 86.5088 178.814 86.5088H178.77C178.761 86.5088 178.753 86.5053 178.746 86.4989C178.739 86.4926 178.736 86.484 178.735 86.4748C178.722 86.2937 178.724 86.1738 178.741 86.1153C178.807 85.8851 178.853 85.7318 178.879 85.6553C178.886 85.6346 178.954 85.5695 179.083 85.46Z" fill="white"/>
<path d="M180.816 86.7682C180.865 86.7254 180.878 86.6603 180.845 86.6226C180.812 86.585 180.746 86.5891 180.697 86.6318C180.649 86.6746 180.636 86.7397 180.669 86.7774C180.702 86.815 180.768 86.8109 180.816 86.7682Z" fill="white"/>
<path d="M180.336 86.9278C180.371 86.8598 180.415 86.7961 180.47 86.7367C180.482 86.7211 180.499 86.7109 180.518 86.7082C180.538 86.7055 180.557 86.7107 180.573 86.7225C180.588 86.7343 180.599 86.7519 180.601 86.7713C180.604 86.7906 180.599 86.8103 180.587 86.8258C180.543 86.8994 180.459 86.9334 180.336 86.9278Z" fill="white"/>
<path d="M180.334 86.9278L180.307 87.0028C180.297 87.0303 180.281 87.0551 180.26 87.0751C180.238 87.0951 180.212 87.1096 180.184 87.1175C180.069 87.1477 179.972 87.2062 179.891 87.293C179.882 87.3025 179.871 87.3096 179.858 87.3135C179.845 87.3175 179.832 87.3182 179.819 87.3156C179.79 87.31 179.767 87.2774 179.751 87.218C179.75 87.2121 179.75 87.206 179.751 87.2C179.752 87.1941 179.755 87.1885 179.759 87.1838C179.763 87.1791 179.768 87.1754 179.774 87.173C179.78 87.1705 179.786 87.1695 179.792 87.1698C179.901 87.1802 180.01 87.1085 180.118 86.9547C180.146 86.9151 180.18 86.892 180.219 86.8854C180.261 86.8788 180.299 86.8929 180.334 86.9278Z" fill="white"/>
<path d="M240.088 94.2395C240.139 94.2122 240.177 94.1608 240.203 94.0853C240.36 93.6135 240.68 93.3375 241.163 93.2573C241.207 93.2498 241.25 93.2369 241.291 93.2191C241.76 93.0134 242.038 92.9063 242.126 92.8978C242.88 92.8256 243.314 93.1285 243.694 93.7583C243.891 94.0853 243.874 94.4702 243.99 94.7859C243.993 94.7937 243.998 94.8006 244.004 94.8057C244.011 94.8108 244.019 94.8139 244.027 94.8147C244.035 94.8154 244.044 94.8138 244.051 94.8099C244.059 94.8061 244.065 94.8002 244.069 94.7929C244.497 94.0588 245.031 93.4068 245.671 92.8369C246.595 92.0132 247.661 91.774 248.868 92.1193C249.056 92.1731 249.211 92.2557 249.335 92.367C249.358 92.3882 249.374 92.4159 249.382 92.4462C249.389 92.4766 249.386 92.5082 249.375 92.5369C249.239 92.8784 249.087 93.2021 248.918 93.5078C248.589 94.1032 248.125 94.9425 247.528 96.0257C247.507 96.0634 247.477 96.0956 247.442 96.1197C247.406 96.1438 247.366 96.1591 247.323 96.1644C247.138 96.1871 246.947 96.1743 246.749 96.1262C246.448 96.0526 245.703 95.6379 245.19 95.7214C244.753 95.7936 244.313 96.4093 244.193 96.7645C243.69 98.2582 243.198 99.6849 242.717 101.045C242.681 101.146 242.578 101.4 242.406 101.806C242.388 101.849 242.354 101.883 242.312 101.901C242.232 101.935 242.139 101.979 242.034 102.034C241.642 102.239 241.288 102.2 240.922 101.915C240.904 101.901 240.889 101.884 240.879 101.864C240.868 101.844 240.863 101.821 240.862 101.799C240.851 100.925 240.86 100.381 240.889 100.167C241.174 98.1205 241.366 96.7527 241.465 96.0639C241.488 95.9045 241.457 95.6223 241.372 95.2176C241.231 94.5552 240.812 94.257 240.112 94.323C240.102 94.3245 240.091 94.3222 240.082 94.3164C240.074 94.3107 240.067 94.3019 240.064 94.2918C240.061 94.2816 240.062 94.2707 240.067 94.2611C240.071 94.2515 240.079 94.2439 240.088 94.2395Z" fill="white"/>
<path d="M178.88 98.0567C178.882 98.0662 178.885 98.0752 178.891 98.0831C178.897 98.0909 178.904 98.0975 178.912 98.1022C178.92 98.107 178.93 98.1098 178.939 98.1105C178.949 98.1112 178.959 98.1097 178.967 98.1062C179.326 97.9656 179.819 97.7618 180.447 97.4948C180.557 97.4476 180.72 97.4485 180.933 97.4976C180.956 97.5028 180.977 97.5168 180.99 97.5366C181.003 97.5564 181.008 97.5805 181.004 97.6037C180.909 98.0878 180.449 98.3992 180.019 98.6525C179.224 99.1186 178.751 99.3989 178.601 99.4932C178.398 99.6197 178.231 99.807 178.099 100.055C177.969 100.3 177.816 100.625 177.639 101.03C176.321 104.057 175.662 105.571 175.661 105.572C175.178 106.684 174.615 107.708 173.973 108.644C173.857 108.812 173.72 108.914 173.564 108.948C173.078 109.053 172.761 108.863 172.613 108.379C172.522 108.084 172.49 107.825 172.517 107.602C172.668 106.319 173 104.999 173.514 103.643C174.009 102.334 174.681 101.495 175.615 100.314C175.768 100.12 175.928 99.682 176.097 99.0007C176.555 97.1409 177.041 94.5579 177.603 92.1914C177.614 92.1462 177.638 92.1053 177.673 92.0739C177.772 91.9871 177.906 91.956 178.076 91.9805C178.858 92.0923 179.235 92.875 179.489 93.5233C179.68 94.0101 179.679 94.598 179.486 95.2868C179.123 96.5889 178.935 97.2725 178.924 97.3377C178.867 97.6783 178.853 97.918 178.88 98.0567ZM174.91 102.826C174.479 103.135 174.21 103.576 174.102 104.148C174.071 104.308 174.062 104.635 174.072 105.129C174.073 105.177 174.085 105.223 174.107 105.265C174.172 105.386 174.195 105.537 174.175 105.718C174.173 105.733 174.177 105.749 174.186 105.762C174.195 105.775 174.209 105.785 174.224 105.789L174.269 105.8C174.275 105.802 174.28 105.802 174.286 105.801C174.291 105.8 174.296 105.798 174.301 105.795C174.306 105.793 174.309 105.789 174.313 105.784C174.316 105.78 174.318 105.774 174.319 105.769L174.472 104.869C174.48 104.828 174.496 104.789 174.52 104.756C174.628 104.613 174.58 104.465 174.625 104.287C174.761 103.745 174.884 103.277 174.993 102.884C174.996 102.874 174.995 102.862 174.992 102.852C174.988 102.841 174.981 102.832 174.972 102.826C174.963 102.819 174.952 102.816 174.94 102.816C174.929 102.816 174.919 102.82 174.91 102.826Z" fill="white"/>
<path d="M146.407 98.8437C146.334 100.238 145.584 101.121 144.343 101.621C143.335 102.027 142.521 102.296 141.565 101.696C140.868 101.258 140.574 101.046 140.35 100.221C140.267 99.9132 140.269 99.4778 140.354 98.9145C140.579 97.4293 140.986 96.0135 141.574 94.667C141.83 94.081 142.256 93.5144 142.853 92.9671C143.442 92.425 143.965 92.2538 144.749 92.4052C144.81 92.4168 144.864 92.4491 144.903 92.4967C144.942 92.5442 144.964 92.604 144.964 92.6657C144.963 93.012 144.89 93.3252 144.746 93.6055C143.984 95.0888 143.755 96.497 143.308 98.3639C143.301 98.3947 143.299 98.4265 143.304 98.4573C143.452 99.4905 144.5 99.7679 145.375 99.3957C145.777 99.224 146.097 99.0287 146.337 98.8097C146.343 98.8041 146.351 98.8005 146.359 98.7993C146.368 98.7981 146.376 98.7994 146.384 98.803C146.391 98.8067 146.397 98.8125 146.402 98.8197C146.406 98.827 146.408 98.8353 146.407 98.8437Z" fill="white"/>
<path d="M163.175 97.0291C163.179 97.039 163.186 97.0477 163.194 97.0545C163.202 97.0613 163.212 97.066 163.222 97.0681C163.233 97.0702 163.244 97.0697 163.254 97.0666C163.264 97.0635 163.273 97.0579 163.281 97.0503C164.049 96.2662 164.92 95.3274 165.894 94.2338C166.685 93.3435 167.845 92.1914 169.145 92.5254C169.166 92.5311 169.186 92.5419 169.202 92.557C169.219 92.572 169.231 92.5908 169.238 92.6118C169.724 93.9526 170.236 95.459 170.774 97.131C171.008 97.8585 171.328 98.6214 171.778 99.1408C171.893 99.2739 172.171 99.4102 172.611 99.5499C172.641 99.56 172.674 99.5605 172.704 99.5513L173.549 99.3036C173.565 99.2987 173.582 99.2976 173.599 99.3005C173.616 99.3033 173.632 99.31 173.647 99.3201C173.661 99.3302 173.672 99.3433 173.681 99.3586C173.689 99.3739 173.694 99.3909 173.695 99.4083C173.78 100.952 172.25 101.823 170.916 102.075C169.778 102.29 168.841 101.809 168.203 100.858C167.616 99.9782 167.271 99.1116 167.168 98.2576C167.051 97.2858 166.983 96.705 166.964 96.5153C166.918 96.0492 166.714 95.6737 166.352 95.3887C166.338 95.3772 166.32 95.3707 166.301 95.3699C166.283 95.3692 166.265 95.3742 166.249 95.3845C166.095 95.4892 165.963 95.6109 165.853 95.7496C165.086 96.7163 164.536 97.4735 163.949 98.4869C163.538 99.1993 162.927 100.285 162.119 101.745C162.098 101.782 162.07 101.814 162.035 101.839C162 101.863 161.961 101.88 161.919 101.887C161.439 101.969 160.76 101.94 160.395 101.56C159.95 101.094 160.144 100.337 160.265 99.7452C160.673 97.7627 160.921 96.4714 161.009 95.8713C161.073 95.4283 161.177 94.7022 160.956 94.2847C160.943 94.2597 160.923 94.2388 160.899 94.2241C160.875 94.2094 160.847 94.2015 160.819 94.2012L159.515 94.1998C159.503 94.1999 159.492 94.197 159.482 94.1915C159.471 94.186 159.463 94.178 159.457 94.1683C159.45 94.1586 159.446 94.1475 159.446 94.1359C159.445 94.1243 159.447 94.1127 159.451 94.1021C159.746 93.419 160.224 92.9165 160.888 92.5948C161.365 92.3645 161.776 92.3221 162.123 92.4674C162.545 92.6438 162.835 92.9481 162.992 93.3803C163.365 94.4069 163.422 95.4972 163.162 96.6512C163.129 96.8003 163.133 96.9262 163.175 97.0291Z" fill="white"/>
<path d="M187.466 98.7276C187.518 99.9745 186.856 100.879 185.814 101.468C185.713 101.524 185.316 101.699 184.622 101.993C184.247 102.151 183.996 102.211 183.601 102.083C182.918 101.863 182.421 101.622 182.11 101.36C181.258 100.65 181.405 99.0758 181.58 98.119C181.836 96.7206 182.011 95.7709 182.503 94.599C182.797 93.8989 183.336 93.2233 184.119 92.5722C184.179 92.5217 184.249 92.4828 184.325 92.4576C184.746 92.3151 185.163 92.3014 185.577 92.4165C185.617 92.4277 185.655 92.4476 185.687 92.4747C185.719 92.5018 185.745 92.5355 185.762 92.5735C185.78 92.6116 185.79 92.653 185.79 92.6951C185.79 92.7371 185.782 92.7787 185.764 92.8171C184.978 94.5764 184.729 96.221 184.385 98.3143C184.377 98.3601 184.378 98.4073 184.388 98.453C184.499 98.9503 184.791 99.2664 185.264 99.4013C185.344 99.424 185.626 99.4216 186.11 99.3943C186.161 99.3905 186.212 99.379 186.259 99.3603C186.726 99.1716 187.098 98.9484 187.376 98.6908C187.383 98.6838 187.393 98.679 187.403 98.6771C187.413 98.6752 187.423 98.6763 187.433 98.6802C187.442 98.684 187.451 98.6906 187.457 98.699C187.462 98.7074 187.466 98.7173 187.466 98.7276Z" fill="white"/>
<path d="M238.901 98.6837C238.828 100.102 238.022 101.163 236.71 101.677C236.263 101.851 235.565 102.296 235.021 102.112C233.705 101.666 232.836 101.178 232.821 99.7041C232.811 98.7738 232.936 97.7632 233.196 96.6724C233.396 95.8393 233.575 95.2307 233.733 94.8466C234.072 94.0243 235.081 92.4306 236.078 92.3514C236.397 92.3259 236.671 92.3513 236.901 92.4278C236.977 92.453 237.04 92.5074 237.076 92.579C237.112 92.6507 237.118 92.7337 237.093 92.8099C236.886 93.4468 236.548 94.1559 236.387 94.8551C236.11 96.0535 235.915 97.1763 235.802 98.2237C235.656 99.5768 237.174 99.6022 237.996 99.2272C238.299 99.0885 238.544 98.8068 238.822 98.637C238.83 98.6321 238.839 98.6296 238.849 98.6295C238.858 98.6295 238.867 98.632 238.875 98.6368C238.883 98.6415 238.89 98.6484 238.894 98.6567C238.899 98.6649 238.901 98.6743 238.901 98.6837Z" fill="white"/>
<path d="M260.788 98.6923C260.796 98.6853 260.805 98.6805 260.815 98.6786C260.825 98.6767 260.836 98.6778 260.845 98.6817C260.855 98.6855 260.863 98.6921 260.869 98.7005C260.875 98.7089 260.878 98.7188 260.879 98.7291C260.933 99.9775 260.271 100.885 259.229 101.475C259.127 101.532 258.73 101.708 258.036 102.003C257.661 102.161 257.41 102.221 257.014 102.095C256.329 101.874 255.831 101.633 255.519 101.372C254.666 100.661 254.81 99.0858 254.985 98.1276C255.24 96.7264 255.413 95.7753 255.904 94.6019C256.198 93.9009 256.737 93.2238 257.52 92.5709C257.58 92.5199 257.65 92.4805 257.726 92.4548C258.147 92.3123 258.565 92.2982 258.979 92.4124C259.02 92.4234 259.057 92.443 259.089 92.47C259.121 92.497 259.147 92.5306 259.165 92.5687C259.183 92.6067 259.193 92.6482 259.193 92.6904C259.194 92.7325 259.185 92.7743 259.168 92.8129C258.381 94.5765 258.136 96.2225 257.793 98.3201C257.785 98.3658 257.786 98.413 257.796 98.4588C257.908 98.956 258.201 99.2721 258.675 99.4071C258.755 99.4297 259.037 99.4269 259.522 99.3986C259.573 99.3948 259.624 99.3834 259.672 99.3646C260.138 99.175 260.51 98.9509 260.788 98.6923Z" fill="white"/>
<path d="M280.14 99.0163C281.024 99.8726 282.66 99.5796 283.764 99.2541C285.066 98.871 285.839 98.646 286.083 98.579C286.223 98.5403 286.34 98.5276 286.432 98.5408C286.444 98.5424 286.457 98.5467 286.468 98.5535C286.479 98.5602 286.488 98.5692 286.496 98.5799C286.503 98.5906 286.508 98.6027 286.51 98.6155C286.513 98.6283 286.512 98.6414 286.509 98.654C286.096 100.398 285.008 100.967 283.481 101.571C281.813 102.232 279.778 102.416 278.135 101.548C278.087 101.523 278.044 101.488 278.008 101.445C277.423 100.744 277.477 100.006 277.494 99.0192C277.502 98.4964 277.536 98.1077 277.594 97.8529C277.757 97.1235 278.127 96.4083 278.702 95.7072C280.457 93.5658 282.79 92.5679 285.518 92.3641C286.626 92.282 286.963 93.471 287.203 94.3867C287.214 94.432 287.212 94.4796 287.197 94.524C286.789 95.6912 286.082 96.5588 285.074 97.1268C284.868 97.2429 284.224 97.5434 283.141 98.0284C282.725 98.2143 282.31 98.3492 281.894 98.4332C281.058 98.603 280.542 98.637 280.149 98.9102C280.14 98.9158 280.133 98.9233 280.128 98.932C280.123 98.9407 280.12 98.9505 280.119 98.9607C280.119 98.9709 280.12 98.9811 280.124 98.9908C280.127 99.0004 280.133 99.0091 280.14 99.0163ZM280.201 97.2273C280.506 97.2066 280.784 97.1584 281.033 97.083C282.41 96.6678 283.68 96.0195 284.843 95.1382C285.009 95.0118 285.143 94.8622 285.246 94.6896C285.258 94.6685 285.263 94.6436 285.258 94.6196C285.254 94.5956 285.241 94.5741 285.222 94.5594C284.979 94.3697 284.742 94.282 284.42 94.3287C282.807 94.5622 280.725 95.4808 280.139 97.1452C280.135 97.1547 280.134 97.1649 280.136 97.1749C280.137 97.1849 280.141 97.1945 280.147 97.2026C280.154 97.2107 280.162 97.2173 280.171 97.2216C280.18 97.2259 280.191 97.2279 280.201 97.2273Z" fill="white"/>
<path d="M154.588 101.884C154.462 101.24 154.744 100.521 154.976 99.8146C154.982 99.7952 154.983 99.7744 154.979 99.7544C154.975 99.7344 154.966 99.7158 154.952 99.7006C154.938 99.6853 154.921 99.674 154.902 99.6677C154.882 99.6613 154.862 99.6603 154.842 99.6645C154.666 99.7023 154.495 99.7929 154.33 99.9363C153.311 100.818 152.137 101.478 150.808 101.918C149.921 102.211 149.033 102.209 148.143 101.911C147.307 101.63 147.113 100.467 147.223 99.7127C147.47 98.01 147.993 96.4927 149.241 95.1793C150.637 93.7101 152.322 92.8085 154.295 92.4745C155.078 92.3415 155.747 92.3551 156.302 92.5156C157.213 92.7788 158.33 93.3351 158.535 94.3484C158.545 94.397 158.538 94.4479 158.515 94.4928C157.693 96.1134 157.488 97.9378 157.167 99.7396C157.093 100.151 156.924 100.588 156.659 101.052C156.226 101.809 155.524 101.972 154.689 101.969C154.666 101.969 154.643 101.96 154.624 101.945C154.606 101.929 154.593 101.908 154.588 101.884ZM156.283 95.4086C156.283 95.3787 156.275 95.3495 156.257 95.3252C156.24 95.3009 156.215 95.283 156.187 95.2741C154.647 94.7688 153.112 95.4567 151.874 96.4106C150.937 97.1339 150.173 97.7297 149.659 98.3001C149.646 98.3147 149.636 98.3319 149.63 98.3505C149.624 98.3691 149.622 98.3887 149.625 98.408C149.627 98.4272 149.633 98.4458 149.643 98.4623C149.653 98.4789 149.667 98.4931 149.683 98.5039C149.989 98.7153 150.275 98.7851 150.54 98.7134C151.033 98.5804 151.871 98.3464 153.054 98.0114C153.466 97.8944 153.816 97.7599 154.101 97.608C154.971 97.1409 155.839 96.6583 156.225 95.6831C156.263 95.5907 156.282 95.4991 156.283 95.4086Z" fill="white"/>
<path d="M193.299 97.0248C193.303 97.0347 193.31 97.0435 193.318 97.0503C193.326 97.0571 193.336 97.0617 193.347 97.0638C193.357 97.0659 193.368 97.0654 193.378 97.0623C193.388 97.0592 193.398 97.0536 193.405 97.0461C194.173 96.261 195.044 95.3207 196.018 94.2253C196.809 93.3336 197.971 92.1786 199.272 92.5127C199.293 92.5183 199.313 92.5291 199.329 92.5442C199.345 92.5592 199.358 92.578 199.365 92.599C199.852 93.9408 200.365 95.4481 200.905 97.1211C201.14 97.85 201.46 98.6129 201.912 99.1323C202.027 99.2653 202.306 99.4017 202.746 99.5413C202.777 99.5515 202.809 99.552 202.839 99.5428L203.684 99.2951C203.701 99.2902 203.718 99.2891 203.735 99.2919C203.752 99.2948 203.768 99.3015 203.782 99.3116C203.796 99.3217 203.808 99.3348 203.816 99.3501C203.825 99.3654 203.83 99.3824 203.831 99.3998C203.917 100.945 202.385 101.817 201.052 102.071C199.912 102.287 198.973 101.806 198.334 100.853C197.746 99.974 197.4 99.1068 197.297 98.252C197.178 97.2791 197.11 96.6979 197.091 96.5082C197.045 96.0412 196.84 95.6651 196.478 95.3802C196.463 95.3687 196.445 95.3622 196.427 95.3614C196.409 95.3606 196.39 95.3657 196.375 95.3759C196.22 95.4816 196.088 95.6038 195.978 95.7425C195.211 96.7106 194.661 97.4693 194.075 98.4841C193.663 99.1974 193.053 100.285 192.245 101.746C192.224 101.784 192.195 101.816 192.161 101.84C192.126 101.865 192.086 101.881 192.044 101.888C191.565 101.972 190.884 101.943 190.519 101.562C190.073 101.097 190.266 100.338 190.388 99.7466C190.795 97.7613 191.042 96.4681 191.129 95.8671C191.193 95.4241 191.297 94.6966 191.076 94.279C191.063 94.2539 191.043 94.2328 191.018 94.218C190.994 94.2033 190.966 94.1955 190.938 94.1955H189.632C189.62 94.1956 189.609 94.1927 189.599 94.1872C189.589 94.1818 189.58 94.1738 189.574 94.1641C189.567 94.1543 189.564 94.1432 189.563 94.1316C189.562 94.1201 189.564 94.1085 189.569 94.0979C189.863 93.4138 190.342 92.9104 191.007 92.5877C191.483 92.3565 191.895 92.3136 192.243 92.4589C192.665 92.6353 192.955 92.9401 193.113 93.3732C193.487 94.3998 193.545 95.4911 193.285 96.6469C193.251 96.796 193.256 96.922 193.299 97.0248Z" fill="white"/>
<path d="M263.999 94.3131C263.997 94.2818 263.984 94.2523 263.961 94.2307C263.938 94.209 263.908 94.197 263.876 94.1971H262.497C262.485 94.1971 262.472 94.1941 262.461 94.1882C262.45 94.1824 262.441 94.1739 262.434 94.1635C262.427 94.1531 262.423 94.1411 262.422 94.1287C262.421 94.1163 262.423 94.1038 262.428 94.0923C262.719 93.3894 263.186 92.8912 263.828 92.5977C264.298 92.3835 264.728 92.3444 265.117 92.4802C266.252 92.8765 266.214 94.3244 266.219 95.3095C266.223 95.9606 266.18 96.506 266.09 96.9457C266.087 96.9571 266.087 96.9689 266.09 96.9803C266.092 96.9918 266.097 97.0025 266.104 97.0119C266.111 97.0213 266.12 97.0291 266.13 97.0347C266.14 97.0404 266.151 97.0438 266.163 97.0448C266.271 97.0542 266.363 97.0165 266.438 96.9315C267.751 95.4511 268.64 94.458 269.106 93.9522C269.869 93.1242 270.815 92.2708 272.023 92.5057C272.07 92.5148 272.113 92.5403 272.144 92.5779C272.214 92.659 272.281 92.7911 272.345 92.9742C273.14 95.235 273.696 96.849 274.013 97.8161C274.261 98.5705 274.723 99.3178 275.535 99.5372C275.577 99.5483 275.621 99.5483 275.662 99.5372L276.569 99.2938C276.582 99.2902 276.596 99.2892 276.61 99.291C276.624 99.2929 276.637 99.2974 276.649 99.3044C276.661 99.3113 276.671 99.3206 276.679 99.3317C276.688 99.3427 276.694 99.3554 276.697 99.3688C276.719 99.4499 276.726 99.5165 276.718 99.5684C276.587 100.421 276.169 101.058 275.466 101.479C274.757 101.905 274.019 102.122 273.254 102.132C271.597 102.151 270.483 100.095 270.215 98.7333C270.086 98.0718 269.985 97.3005 269.912 96.4192C269.885 96.0757 269.761 95.7804 269.541 95.5332C269.513 95.5012 269.478 95.4755 269.44 95.4576C269.401 95.4397 269.359 95.4301 269.316 95.4293C269.273 95.4285 269.231 95.4366 269.191 95.453C269.152 95.4694 269.116 95.4938 269.086 95.5247C268.321 96.3248 267.642 97.2358 267.05 98.2577C266.427 99.3353 265.748 100.521 265.013 101.815C265.001 101.836 264.984 101.853 264.964 101.867C264.944 101.88 264.922 101.888 264.898 101.891C263.431 102.062 262.868 101.55 263.175 100.059C263.628 97.8713 264.092 96.2026 263.999 94.3131Z" fill="white"/>
<path d="M289.307 96.1771C289.511 96.2828 289.753 96.3168 290.034 96.279C290.743 96.1856 291.635 95.9393 292.364 95.8615C292.766 95.819 293.312 95.7001 293.769 95.7355C294.395 95.7855 294.948 96.0016 295.43 96.3837C295.468 96.4145 295.498 96.4532 295.518 96.497C295.614 96.7131 295.646 96.9126 295.614 97.0957C295.393 98.3516 294.851 99.3664 293.986 100.14C293.105 100.928 292.015 101.343 290.643 101.759C289.792 102.018 288.92 102.098 288.026 102.001C287.278 101.921 287.002 100.797 287.043 100.242C287.072 99.857 287.304 99.6679 287.74 99.6745C289.237 99.6971 293.343 99.9957 293.735 97.9477C293.749 97.8758 293.736 97.8013 293.698 97.7382C293.661 97.6751 293.602 97.6278 293.532 97.6052C293.438 97.5741 293.34 97.5646 293.239 97.5769C291.839 97.7364 290.494 97.6543 289.204 97.3306C288.83 97.2372 288.558 97.1155 288.388 96.9655C287.866 96.5055 288.378 95.5982 288.759 95.2062C290.465 93.4568 293.959 91.4781 296.318 93.0831C296.391 93.1325 296.447 93.2026 296.48 93.2845C296.513 93.3664 296.521 93.4564 296.503 93.5431C296.389 94.0913 296.098 94.5763 295.628 94.9981C295.588 95.0344 295.536 95.0545 295.482 95.0548C295.428 95.0551 295.376 95.0354 295.335 94.9995C293.952 93.7696 292.013 94.1149 290.502 94.9075C289.963 95.1892 289.54 95.4015 289.227 95.8402C289.208 95.867 289.195 95.8975 289.189 95.9297C289.182 95.9619 289.183 95.9951 289.191 96.0271C289.198 96.059 289.213 96.0889 289.233 96.1148C289.253 96.1407 289.278 96.1619 289.307 96.1771Z" fill="white"/>
</svg>
