<svg width="300" height="82" viewBox="0 0 300 82" fill="none" xmlns="http://www.w3.org/2000/svg">
<path d="M243.247 0.0988117V0.0915996C243.282 0.0457928 243.333 0.0146405 243.39 0.00401464C243.447 -0.00661122 243.506 0.00402497 243.556 0.0339165C255.166 7.35985 265.187 13.8494 273.619 19.5024C280.011 23.7903 286.087 28.0878 291.847 32.3949C294.719 34.5437 297.264 36.8102 299.481 39.1945C299.756 39.4909 299.931 39.8655 299.984 40.2662C300.037 40.6668 299.964 41.0735 299.775 41.4297C299.512 41.9249 299.024 42.5234 298.31 43.2252C296.477 45.047 294.253 46.9602 291.638 48.9648C276.556 60.5161 260.591 70.9786 243.785 81.9603C243.736 81.9933 243.676 82.0064 243.619 81.997C243.561 81.9876 243.51 81.9564 243.477 81.9098L243.469 81.8954C243.435 81.847 243.42 81.7867 243.428 81.7266C243.436 81.6665 243.466 81.6109 243.513 81.5709C253.615 73.0144 263.437 63.6527 272.98 53.4858C276.133 50.1185 280.255 45.4677 281.591 41.2279C283.516 35.1061 248.906 5.18947 243.276 0.394445C243.235 0.358897 243.209 0.308831 243.204 0.254111C243.199 0.199392 243.214 0.143987 243.247 0.0988117Z" fill="white"/>
<path d="M230.647 5.51397V5.50675C230.678 5.46614 230.724 5.43855 230.774 5.42924C230.824 5.41993 230.876 5.42955 230.92 5.45628C241.085 11.8737 249.856 17.558 257.234 22.5093C262.832 26.2636 268.151 30.0275 273.193 33.801C275.711 35.6806 277.94 37.6635 279.879 39.7497C280.12 40.0105 280.275 40.3398 280.322 40.6914C280.368 41.0431 280.304 41.3995 280.137 41.711C279.908 42.1436 279.479 42.6676 278.852 43.2829C277.248 44.8788 275.302 46.5541 273.013 48.3086C259.806 58.4179 245.822 67.5753 231.107 77.1869C231.065 77.214 231.015 77.2245 230.966 77.2165C230.917 77.2086 230.872 77.1826 230.841 77.1437L230.834 77.1293C230.804 77.0864 230.79 77.0337 230.797 76.9816C230.804 76.9295 230.83 76.8818 230.87 76.848C239.718 69.3587 248.319 61.1627 256.674 52.26C259.432 49.3109 263.045 45.2442 264.215 41.5307C265.903 36.1733 235.603 9.97009 230.676 5.77355C230.639 5.74328 230.616 5.69961 230.611 5.6514C230.605 5.60319 230.618 5.55405 230.647 5.51397Z" fill="white"/>
<path d="M214.498 7.13633V7.12912C214.527 7.09089 214.57 7.06474 214.617 7.05547C214.665 7.0462 214.714 7.05442 214.756 7.07864C224.452 13.1932 232.818 18.6107 239.857 23.3312C245.195 26.9077 250.27 30.4937 255.082 34.0894C257.481 35.8824 259.607 37.774 261.46 39.7641C261.689 40.0129 261.836 40.3266 261.88 40.6613C261.924 40.9961 261.862 41.3353 261.704 41.6317C261.484 42.0451 261.077 42.545 260.483 43.1314C258.951 44.6505 257.093 46.2464 254.91 47.9193C242.32 57.5742 228.998 66.3134 214.964 75.4852C214.924 75.5136 214.875 75.5249 214.826 75.5168C214.778 75.5087 214.735 75.4818 214.706 75.442V75.4276C214.678 75.3864 214.666 75.3365 214.673 75.2873C214.68 75.2381 214.704 75.193 214.742 75.1608C223.173 68.0127 231.37 60.194 239.332 51.7048C241.968 48.8927 245.408 45.0062 246.522 41.4658C248.123 36.3535 219.223 11.3834 214.519 7.38149C214.486 7.3517 214.466 7.31016 214.462 7.2649C214.458 7.21963 214.47 7.17383 214.498 7.13633Z" fill="white"/>
<path d="M50.9021 42.4248C50.887 42.4303 50.8731 42.4389 50.8615 42.4501C50.8499 42.4612 50.8407 42.4747 50.8346 42.4897C50.8285 42.5046 50.8256 42.5207 50.8261 42.5369C50.8266 42.553 50.8305 42.5689 50.8375 42.5834L58.6729 58.0285C58.6973 58.0761 58.7338 58.1164 58.7788 58.1452C58.8237 58.174 58.8755 58.1904 58.9288 58.1926C58.9821 58.1948 59.035 58.1827 59.0821 58.1577C59.1293 58.1327 59.169 58.0956 59.1972 58.0501L80.8793 22.0189C80.9737 21.8606 81.1073 21.7296 81.2671 21.6386C81.427 21.5476 81.6076 21.4998 81.7914 21.4998H82.9405C83.0986 21.4999 83.2517 21.5546 83.3736 21.6546C83.4954 21.7545 83.5784 21.8935 83.6084 22.0478L90.9555 58.3457C90.9586 58.3635 90.9579 58.3818 90.9532 58.3993C90.9485 58.4168 90.94 58.433 90.9283 58.4468C90.9166 58.4605 90.9021 58.4716 90.8857 58.479C90.8693 58.4865 90.8514 58.4902 90.8334 58.4899H84.384C84.3326 58.4907 84.2826 58.4729 84.2431 58.4398C84.2036 58.4068 84.1772 58.3606 84.1686 58.3097L83.1703 51.4236C83.1582 51.339 83.1165 51.2618 83.0532 51.2061C82.9898 51.1504 82.9089 51.1201 82.8256 51.1207H70.4009C70.3022 51.1209 70.2052 51.1469 70.1195 51.1962C70.0339 51.2456 69.9625 51.3165 69.9125 51.402L65.9266 58.0285C65.8411 58.1716 65.7207 58.29 65.5772 58.3722C65.4337 58.4543 65.272 58.4974 65.1079 58.4972H51.9722C51.8475 58.4975 51.7252 58.4618 51.6195 58.394C51.5139 58.3263 51.4295 58.2295 51.3761 58.115L44.7688 43.8381C44.702 43.6958 44.5964 43.5755 44.4641 43.4913C44.3319 43.407 44.1785 43.3622 44.0219 43.3622H40.6176C40.5737 43.3617 40.531 43.3773 40.4968 43.4063C40.4627 43.4353 40.4393 43.4758 40.4309 43.5208L37.7449 58.3097C37.7349 58.3621 37.7066 58.4095 37.6646 58.4436C37.6227 58.4778 37.5699 58.4967 37.5151 58.4972H31.195C31.1753 58.4976 31.1558 58.4936 31.1379 58.4854C31.12 58.4771 31.1042 58.4649 31.0917 58.4496C31.0792 58.4343 31.0704 58.4163 31.0659 58.3971C31.0614 58.3778 31.0614 58.3578 31.0657 58.3385L37.5869 22.4227C37.6075 22.3051 37.6669 22.1978 37.7554 22.1181C37.8439 22.0384 37.9566 21.9907 38.0753 21.9829C40.5602 21.829 43.634 21.7161 47.2968 21.644C52.8053 21.543 60.1667 23.6918 59.8938 30.7365C59.6688 36.6395 56.6715 40.5356 50.9021 42.4248ZM43.2031 28.1551L41.5369 37.3414C41.5257 37.4042 41.5276 37.4687 41.5425 37.5308C41.5574 37.5928 41.5849 37.6511 41.6234 37.7019C41.6619 37.7528 41.7105 37.795 41.766 37.826C41.8216 37.8571 41.883 37.8762 41.9463 37.8822C45.9107 38.2138 52.5611 37.9326 53.2937 32.9718C54.1411 27.2322 47.9934 27.1024 43.8423 27.5566C43.6863 27.573 43.5398 27.6402 43.4245 27.748C43.3093 27.8559 43.2316 27.9988 43.2031 28.1551ZM80.4915 33.4477C80.4842 33.3991 80.4622 33.354 80.4285 33.3184C80.3947 33.2829 80.3508 33.2588 80.3028 33.2493C80.2548 33.2398 80.2051 33.2455 80.1604 33.2655C80.1158 33.2855 80.0784 33.3189 80.0534 33.3611L72.8643 45.8715C72.8445 45.9072 72.8343 45.9475 72.8345 45.9884C72.8348 46.0293 72.8456 46.0694 72.8658 46.105C72.886 46.1405 72.915 46.1702 72.9499 46.1911C72.9849 46.2121 73.0247 46.2237 73.0654 46.2248H82.0787C82.1124 46.2241 82.1457 46.2163 82.1762 46.2017C82.2067 46.1871 82.2337 46.1661 82.2555 46.1401C82.2773 46.1142 82.2933 46.0839 82.3024 46.0512C82.3115 46.0185 82.3136 45.9843 82.3085 45.9508L80.4915 33.4477Z" fill="white"/>
<path d="M129.231 50.8901C129.243 50.8529 129.263 50.8191 129.291 50.7912C129.318 50.7634 129.352 50.7424 129.389 50.7298C129.426 50.7172 129.465 50.7134 129.504 50.7187C129.542 50.724 129.579 50.7383 129.611 50.7603C132.307 52.7408 135.441 53.4547 139.012 52.9019C141.562 52.5125 143.882 50.4142 142.919 47.6959C142.57 46.7008 141.849 45.7778 140.758 44.927C137.679 42.5139 135.419 40.6295 133.978 39.2739C129.453 35.0125 130.064 27.3044 135.005 23.7568C139.529 20.5048 146.051 21.1033 150.992 22.4949C151.077 22.5188 151.156 22.5597 151.225 22.6151C151.294 22.6706 151.351 22.7395 151.392 22.8176C151.434 22.8958 151.459 22.9816 151.467 23.0699C151.475 23.1582 151.465 23.2471 151.437 23.3314L149.598 28.9628C149.585 29.0051 149.562 29.0434 149.53 29.0746C149.498 29.1058 149.46 29.1291 149.417 29.1424C149.374 29.1558 149.329 29.1589 149.284 29.1515C149.24 29.1441 149.197 29.1264 149.16 29.0998C146.977 27.4846 144.554 26.8766 141.892 27.2755C139.077 27.6938 137.325 29.3306 137.727 32.222C137.863 33.217 139.379 34.9764 140.197 35.6686C144.277 39.1297 148.952 42.1726 149.721 46.8378C150.942 54.2142 145.203 58.4829 138.459 59.0597C134.6 59.3914 130.966 58.7472 127.557 57.1273C127.469 57.0852 127.398 57.0114 127.36 56.9198C127.322 56.8281 127.318 56.725 127.349 56.6297L129.231 50.8901Z" fill="white"/>
<path d="M149.34 58.0501L171.036 21.9829C171.152 21.7923 171.334 21.6511 171.546 21.5863C172.528 21.2931 173.22 21.3796 173.622 21.8459C173.688 21.9214 173.732 22.0135 173.751 22.1127L180.99 57.9203C181.006 57.9901 181.005 58.0623 180.988 58.1318C180.972 58.2012 180.94 58.266 180.895 58.3214C180.85 58.3768 180.794 58.4213 180.729 58.4518C180.665 58.4822 180.595 58.4977 180.524 58.4972H174.836C174.69 58.4969 174.549 58.4442 174.439 58.3487C174.33 58.2533 174.259 58.1216 174.24 57.978L173.299 51.5029C173.28 51.3904 173.223 51.2882 173.138 51.2142C173.052 51.1403 172.944 51.0996 172.832 51.0991H160.479C160.398 51.099 160.319 51.1195 160.248 51.1587C160.178 51.1978 160.119 51.2543 160.077 51.3227L156.062 57.9997C155.97 58.1517 155.84 58.2773 155.685 58.3644C155.531 58.4516 155.356 58.4973 155.179 58.4972H149.584C149.533 58.4978 149.483 58.4843 149.439 58.4582C149.394 58.4322 149.358 58.3944 149.333 58.3488C149.308 58.3033 149.296 58.2516 149.297 58.1991C149.298 58.1466 149.313 58.0951 149.34 58.0501ZM170.627 33.4405C170.62 33.3882 170.597 33.3393 170.561 33.3008C170.526 33.2623 170.479 33.236 170.427 33.2257C170.376 33.2153 170.322 33.2214 170.274 33.2432C170.226 33.2649 170.187 33.3011 170.16 33.3467L162.964 45.8499C162.941 45.8887 162.928 45.933 162.928 45.9783C162.928 46.0236 162.94 46.0681 162.963 46.1072C162.985 46.1462 163.018 46.1785 163.058 46.2004C163.097 46.2224 163.142 46.2333 163.187 46.232H172.2C172.236 46.2314 172.271 46.2231 172.303 46.2078C172.335 46.1924 172.364 46.1704 172.387 46.1431C172.41 46.1159 172.427 46.084 172.437 46.0496C172.447 46.0151 172.449 45.979 172.444 45.9436L170.627 33.4405Z" fill="white"/>
<path d="M217.933 42.3527C217.915 42.3573 217.898 42.3663 217.883 42.3791C217.869 42.3919 217.858 42.4082 217.85 42.4267C217.843 42.4453 217.839 42.4657 217.84 42.4866C217.841 42.5074 217.845 42.5282 217.854 42.5474L225.876 58.3674C225.883 58.3796 225.885 58.3932 225.885 58.4069C225.884 58.4206 225.88 58.4339 225.873 58.4455C225.866 58.4571 225.856 58.4666 225.844 58.4732C225.832 58.4797 225.818 58.483 225.805 58.4827H218.759C218.706 58.4829 218.653 58.4672 218.609 58.4377C218.564 58.4083 218.529 58.3662 218.508 58.3169L211.793 43.8237C211.728 43.6836 211.624 43.565 211.493 43.482C211.362 43.3989 211.209 43.3548 211.053 43.355H207.8C207.715 43.355 207.633 43.3845 207.567 43.4384C207.502 43.4923 207.457 43.5673 207.44 43.6506L204.776 58.3241C204.767 58.3729 204.743 58.4171 204.706 58.4488C204.669 58.4805 204.623 58.4977 204.575 58.4972H198.233C198.213 58.4976 198.192 58.4934 198.173 58.4848C198.155 58.4762 198.138 58.4634 198.125 58.4475C198.112 58.4315 198.103 58.4128 198.098 58.3926C198.093 58.3725 198.092 58.3516 198.097 58.3313L204.618 22.4083C204.639 22.2953 204.697 22.1926 204.783 22.1167C204.869 22.0409 204.978 21.9963 205.092 21.9901C212.152 21.5503 228.562 19.6539 226.788 32.2507C226.061 37.4279 223.109 40.7952 217.933 42.3527ZM210.22 28.1551L208.561 37.363C208.55 37.4259 208.552 37.4903 208.566 37.5524C208.581 37.6145 208.609 37.6728 208.647 37.7236C208.686 37.7744 208.734 37.8167 208.79 37.8477C208.846 37.8787 208.907 37.8978 208.97 37.9038C212.949 38.2283 219.614 37.9399 220.339 32.9646C221.179 27.2105 215.017 27.088 210.859 27.5494C210.702 27.5673 210.556 27.6359 210.441 27.7451C210.325 27.8542 210.248 27.998 210.22 28.1551Z" fill="white"/>
<path d="M29.1573 27.7803H18.3342C18.2522 27.7806 18.173 27.8095 18.1101 27.8622C18.0471 27.9148 18.0045 27.9879 17.9894 28.0687L12.5096 58.2161C12.4946 58.2969 12.4519 58.37 12.389 58.4226C12.3261 58.4753 12.2468 58.5042 12.1649 58.5045H6.32604C6.27446 58.5043 6.22354 58.4928 6.17689 58.4706C6.13025 58.4485 6.08902 58.4164 6.05613 58.3765C6.02324 58.3365 5.99949 58.2899 5.98656 58.2397C5.97363 58.1896 5.97184 58.1372 5.98131 58.0863L11.4036 28.2057C11.4131 28.1548 11.4113 28.1024 11.3984 28.0523C11.3855 28.0021 11.3617 27.9555 11.3288 27.9156C11.2959 27.8757 11.2547 27.8435 11.2081 27.8214C11.1614 27.7992 11.1105 27.7877 11.0589 27.7875H0.350718C0.299129 27.7873 0.248209 27.7758 0.201565 27.7536C0.154921 27.7315 0.113693 27.6994 0.0808009 27.6595C0.0479092 27.6196 0.0241582 27.5729 0.0112297 27.5227C-0.00169882 27.4726 -0.00348856 27.4202 0.00598734 27.3693L0.932451 22.2931C0.947496 22.2122 0.990159 22.1392 1.05309 22.0865C1.11602 22.0339 1.19527 22.0049 1.27718 22.0046H30.0765C30.1281 22.0048 30.179 22.0164 30.2257 22.0385C30.2723 22.0606 30.3136 22.0928 30.3465 22.1327C30.3793 22.1726 30.4031 22.2193 30.416 22.2694C30.429 22.3196 30.4307 22.3719 30.4213 22.4229L29.502 27.4919C29.4869 27.5727 29.4443 27.6458 29.3813 27.6984C29.3184 27.7511 29.2392 27.78 29.1573 27.7803Z" fill="white"/>
<path d="M93.9727 58.216L100.515 22.1993C100.526 22.1439 100.555 22.094 100.598 22.0583C100.642 22.0227 100.696 22.0036 100.752 22.0046H103.474C103.516 22.0037 103.557 22.0139 103.594 22.0341C103.631 22.0544 103.661 22.084 103.683 22.1199L116.28 44.0328C116.304 44.0749 116.34 44.1086 116.383 44.1294C116.427 44.1502 116.476 44.1571 116.524 44.1493C116.571 44.1415 116.615 44.1192 116.65 44.0855C116.685 44.0518 116.708 44.0083 116.718 43.9607L120.668 22.1776C120.678 22.1223 120.707 22.0723 120.751 22.0367C120.794 22.0011 120.849 21.982 120.905 21.9829H126.744C126.779 21.9824 126.814 21.9896 126.846 22.0042C126.877 22.0187 126.906 22.0402 126.929 22.0672C126.951 22.0941 126.968 22.1257 126.977 22.1598C126.986 22.1938 126.987 22.2295 126.981 22.2642L120.337 58.8361C120.327 58.8915 120.298 58.9414 120.254 58.9771C120.211 59.0127 120.156 59.0317 120.1 59.0308H117.96C117.918 59.031 117.876 59.0197 117.839 58.9981C117.803 58.9766 117.773 58.9455 117.752 58.9082L104.724 36.2454C104.7 36.2034 104.664 36.1697 104.62 36.1489C104.577 36.1281 104.528 36.1211 104.48 36.129C104.432 36.1368 104.388 36.1591 104.354 36.1928C104.319 36.2265 104.295 36.27 104.286 36.3175L100.293 58.3025C100.283 58.3579 100.253 58.4078 100.21 58.4435C100.166 58.4791 100.112 58.4982 100.056 58.4972H94.2097C94.1746 58.4978 94.1398 58.4906 94.1078 58.476C94.0759 58.4614 94.0475 58.4399 94.0248 58.413C94.0022 58.3861 93.9857 58.3545 93.9767 58.3204C93.9677 58.2863 93.9663 58.2507 93.9727 58.216Z" fill="white"/>
<path d="M190.686 58.4971H184.754C184.714 58.4978 184.674 58.4894 184.637 58.4726C184.6 58.4558 184.567 58.431 184.541 58.3999C184.515 58.3688 184.496 58.3323 184.486 58.293C184.475 58.2537 184.474 58.2126 184.481 58.1726L191.01 22.228C191.021 22.1643 191.055 22.107 191.105 22.0661C191.155 22.0252 191.218 22.0033 191.282 22.0044H197.222C197.262 22.0037 197.303 22.0121 197.339 22.0289C197.376 22.0457 197.409 22.0705 197.435 22.1016C197.461 22.1327 197.48 22.1692 197.49 22.2085C197.501 22.2478 197.502 22.2889 197.495 22.3289L190.959 58.2736C190.947 58.3372 190.914 58.3945 190.864 58.4354C190.814 58.4764 190.751 58.4982 190.686 58.4971Z" fill="white"/>
</svg>
