<svg width="300" height="123" viewBox="0 0 300 123" fill="none" xmlns="http://www.w3.org/2000/svg">
<path d="M33.8358 28.0713C30.6028 28.0713 27.9336 30.7124 27.9336 33.9949C27.9336 37.2774 30.5652 39.9185 33.8358 39.9185C37.1065 39.9185 39.7381 37.2774 39.7381 33.9949C39.7381 30.7124 37.1065 28.0713 33.8358 28.0713Z" fill="white"/>
<path d="M42.7441 1.2824C42.2554 1.2824 41.7667 1.24467 41.278 1.20694C40.4509 1.16921 39.511 1.09375 38.496 1.09375C22.9697 1.13148 13.4208 10.8281 12.6313 27.2029C12.5937 27.4671 12.5938 27.7312 12.5938 27.9953V65.3858C12.5938 68.6683 15.2253 71.3094 18.496 71.3094C21.7667 71.3094 24.3983 68.6683 24.3983 65.3858V29.4668C24.3983 14.6766 32.481 12.9787 38.5336 12.9787C39.1727 12.9787 39.887 13.0164 40.6013 13.0542C41.2028 13.0919 41.8043 13.1296 42.4058 13.1296C45.6765 13.2051 48.3832 10.6395 48.4584 7.39467C48.5712 4.11216 46.0148 1.39559 42.7441 1.2824Z" fill="white"/>
<path d="M60.1523 1.43359C56.8816 1.43359 54.25 4.0747 54.25 7.35721V65.4238C54.25 68.7063 56.8816 71.3474 60.1523 71.3474C63.4229 71.3474 66.0545 68.7063 66.0545 65.4238V7.35721C66.0545 4.0747 63.4229 1.43359 60.1523 1.43359Z" fill="white"/>
<path d="M122.255 15.5072C119.322 14.0735 115.788 15.2808 114.36 18.186L98.9464 49.5397L83.4576 18.186C82.0291 15.2431 78.4576 14.0357 75.5629 15.5072C72.6306 16.9409 71.4652 20.5253 72.8937 23.4305L92.3674 62.9339L84.0967 79.7238C82.6682 82.6667 83.8712 86.2133 86.7659 87.6471C87.593 88.0621 88.4952 88.2508 89.3599 88.2508C91.5404 88.2508 93.6456 87.0434 94.6607 84.9305L124.924 23.3928C126.352 20.4876 125.149 16.9409 122.255 15.5072Z" fill="white"/>
<path d="M287.407 54.3314V54.4823C287.407 65.009 279.663 71.5363 267.257 71.5363C259.851 71.5363 252.482 69.1593 246.542 64.8958C245.189 63.9148 244.324 62.217 244.324 60.4437C244.324 57.3875 246.73 55.0106 249.851 55.0106C251.091 55.0106 252.181 55.3501 253.234 56.1047C257.82 59.5004 262.52 61.1606 267.52 61.1606C272.632 61.1606 275.715 59.1231 275.715 55.7274V55.5765C275.715 52.1431 273.272 50.5961 264.399 48.2946C254.061 45.6535 246.166 42.7106 246.166 31.467V31.3161C246.166 21.544 254.061 14.7148 265.377 14.7148C271.881 14.7148 277.745 16.375 282.858 19.6198C284.099 20.3744 285.452 21.9967 285.452 24.2983C285.452 27.3544 283.046 29.7314 279.926 29.7314C278.873 29.7314 277.933 29.4673 276.918 28.9013C272.632 26.3734 268.798 25.1283 265.151 25.1283C260.715 25.1283 257.82 27.128 257.82 30.1842V30.3351C257.82 34.1836 260.414 35.3909 269.926 37.8434C280.414 40.5599 287.407 44.4461 287.407 54.3314Z" fill="white"/>
<path d="M152.745 14.8281C137.97 14.8659 126.805 27.1281 126.805 43.2766V65.4996C126.805 68.7821 129.436 71.4232 132.707 71.4232C135.978 71.4232 138.609 68.7821 138.609 65.4996V43.2766C138.609 33.5045 144.436 26.6754 152.745 26.6754C161.09 26.7131 166.917 33.5422 166.917 43.2766V65.4996C166.917 68.7821 169.549 71.4232 172.82 71.4232C176.09 71.4232 178.722 68.7821 178.722 65.4996V43.2766C178.722 27.1281 167.557 14.9036 152.745 14.8281Z" fill="white"/>
<path d="M211.58 14.8281C196.204 14.8659 184.587 26.8263 184.324 42.7106C184.324 42.7861 184.324 42.8616 184.324 42.9748V43.3143C184.324 43.3898 184.324 43.4652 184.324 43.5784C184.587 59.5005 196.242 71.4609 211.617 71.4609C213.986 71.4609 216.054 71.2723 217.031 71.0836C220.226 70.48 222.369 67.3484 221.73 64.1413C221.129 60.9343 218.046 58.8214 214.851 59.4251C214.625 59.4628 213.347 59.6137 211.58 59.6137C202.52 59.6137 196.166 52.86 196.091 43.1634C196.166 33.5045 202.52 26.7508 211.542 26.7131C220.678 26.7508 227.031 33.58 227.031 43.3143V65.5373C227.031 68.8198 229.663 71.4609 232.933 71.4609C236.204 71.4609 238.835 68.8198 238.835 65.5373V43.3143C238.873 27.1281 227.144 14.9036 211.58 14.8281Z" fill="white"/>
<path d="M228.948 99.0418C228.948 98.0231 228.12 97.1553 227.068 97.1553C226.015 97.1553 225.188 97.9853 225.188 99.0418V115.945H218.008C216.241 115.945 210.865 115.945 210.865 107.757V99.0795C210.865 98.0608 210.038 97.193 208.985 97.193C207.97 97.193 207.105 98.0231 207.105 99.0795V107.757C207.105 115.341 211.09 119.718 217.97 119.718H227.068C228.083 119.718 228.91 118.888 228.91 117.831V117.718C228.91 117.643 228.91 117.567 228.91 117.492L228.948 99.0418Z" fill="white"/>
<path d="M235.826 111.756V90.3253C235.826 89.3066 234.999 88.4766 233.946 88.4766C232.931 88.4766 232.066 89.3066 232.066 90.3253V111.756C232.066 112.812 232.893 113.643 233.946 113.643C234.999 113.643 235.826 112.775 235.826 111.756Z" fill="white"/>
<path d="M218.722 92.0237C219.211 92.0237 219.699 91.8351 220.038 91.4955C220.376 91.1559 220.564 90.6654 220.564 90.1749C220.564 89.6845 220.376 89.194 220 88.8544C219.662 88.5148 219.173 88.3262 218.684 88.3262C218.196 88.3262 217.707 88.5148 217.369 88.8921C217.03 89.2317 216.805 89.7222 216.805 90.2127C216.805 90.7032 216.993 91.1937 217.369 91.5332C217.745 91.7973 218.233 92.0237 218.722 92.0237Z" fill="white"/>
<path d="M195.263 97.1547C194.248 97.1547 193.383 97.9848 193.383 99.0412V109.832H186.654C184.887 109.832 179.511 109.832 179.511 101.645V90.2879C179.511 89.2314 178.684 88.4014 177.669 88.4014C176.654 88.4014 175.789 89.2314 175.789 90.2879V101.645C175.789 109.228 179.774 113.605 186.654 113.605H194.774C194.849 113.605 194.887 113.605 194.962 113.605H195H195.037C195.112 113.605 195.15 113.605 195.225 113.605C196.24 113.605 197.105 112.775 197.105 111.719V99.0412C197.142 97.9848 196.315 97.1547 195.263 97.1547Z" fill="white"/>
<path d="M195.149 92.024C195.638 92.024 196.127 91.8353 196.465 91.458C196.803 91.1185 197.029 90.628 197.029 90.1375C197.029 89.647 196.841 89.1565 196.465 88.8169C196.089 88.4774 195.638 88.251 195.149 88.251C194.661 88.251 194.172 88.4396 193.833 88.8169C193.495 89.1942 193.27 89.647 193.27 90.1375C193.27 90.628 193.458 91.1185 193.833 91.458C194.172 91.8353 194.661 92.024 195.149 92.024Z" fill="white"/>
<path d="M170.075 97.1172C169.06 97.1172 168.196 97.9472 168.196 99.0037V105.342C168.196 105.531 168.158 109.832 164.812 109.832H159.098L159.323 109.304C159.85 108.059 160.151 106.663 160.151 105.342V99.0037C160.151 97.985 159.323 97.1172 158.271 97.1172C157.218 97.1172 156.391 97.9472 156.391 99.0037V105.342C156.391 105.531 156.354 109.832 153.008 109.832H148.496V98.966C148.496 97.9472 147.669 97.1172 146.617 97.1172C145.602 97.1172 144.737 97.9472 144.737 98.966V115.869H137.707C135.94 115.869 130.564 115.869 130.564 107.682V99.0037C130.564 97.985 129.737 97.1549 128.684 97.1549C127.669 97.1549 126.805 97.985 126.805 99.0037V107.682C126.805 115.265 130.79 119.642 137.669 119.642H146.316C146.354 119.642 146.391 119.642 146.429 119.642C146.466 119.642 146.504 119.642 146.542 119.642C147.557 119.642 148.421 118.812 148.421 117.756V113.605H165.038C165.113 113.605 165.188 113.605 165.263 113.605C170.113 113.266 171.88 108.512 171.88 105.38V99.0414C171.955 97.9473 171.09 97.1172 170.075 97.1172Z" fill="white"/>
<path d="M252.856 116.774C252.368 116.774 251.879 116.963 251.54 117.34C251.165 117.68 250.977 118.17 250.977 118.661C250.977 119.151 251.165 119.642 251.54 119.981C251.879 120.321 252.368 120.547 252.856 120.547C253.345 120.547 253.834 120.359 254.172 119.981C254.51 119.642 254.698 119.151 254.698 118.661C254.698 118.17 254.51 117.68 254.134 117.34C253.834 116.963 253.345 116.774 252.856 116.774Z" fill="white"/>
<path d="M247.368 116.774C246.879 116.774 246.391 116.963 246.052 117.34C245.714 117.68 245.488 118.17 245.488 118.661C245.488 119.151 245.714 119.642 246.052 119.981C246.391 120.321 246.879 120.547 247.368 120.547C247.857 120.547 248.345 120.359 248.684 119.981C249.022 119.642 249.248 119.151 249.248 118.661C249.248 118.17 249.06 117.68 248.684 117.34C248.345 116.963 247.857 116.774 247.368 116.774Z" fill="white"/>
<path d="M277.219 93.9097C272.933 93.7588 268.986 95.0416 266.166 97.5318L266.016 97.6827C265.753 97.9091 265.489 98.1355 265.226 98.3996L264.625 98.9655V90.3253C264.625 89.3066 263.798 88.4766 262.745 88.4766C261.73 88.4766 260.865 89.3066 260.865 90.3253V105.531C260.865 105.568 260.865 105.606 260.865 105.644C260.865 105.719 260.865 105.719 260.865 105.757C260.865 106.247 261.053 106.738 261.429 107.115C261.768 107.455 262.256 107.681 262.745 107.681C263.234 107.681 263.722 107.493 264.061 107.115C264.249 106.927 264.399 106.625 264.512 106.323L264.625 105.908C264.813 105.229 264.963 104.927 265.226 104.474C265.602 103.795 266.091 103.078 266.768 102.21C267.219 101.644 267.858 101.078 268.459 100.55L268.61 100.399C270.715 98.5505 273.722 97.5695 277.031 97.7204C282.482 97.9091 283.572 100.135 283.572 103.644V109.87H252.595L252.82 109.341C253.347 108.096 253.647 106.7 253.647 105.38V98.9655C253.647 97.9468 252.82 97.079 251.768 97.079C250.753 97.079 249.888 97.9091 249.888 98.9655V105.38C249.888 105.568 249.85 109.87 246.504 109.87H242.67V98.9655C242.67 97.9468 241.843 97.079 240.79 97.079C239.775 97.079 238.91 97.9091 238.91 98.9655V111.945C238.91 115.454 236.016 117.717 234.662 118.246C233.685 118.623 233.196 119.717 233.572 120.66C233.948 121.604 235.038 122.132 235.978 121.754C238.497 120.811 241.58 117.944 242.407 113.944L242.482 113.643H285.377C286.392 113.643 287.256 112.812 287.256 111.756V103.682C287.407 97.4563 283.986 94.1738 277.219 93.9097Z" fill="white"/>
</svg>
