<svg width="300" height="62" viewBox="0 0 300 62" fill="none" xmlns="http://www.w3.org/2000/svg">
<path d="M59.0716 0.000744134C59.0751 -0.000145583 59.0787 -0.000238398 59.0823 0.000470717C59.0859 0.00117983 59.0894 0.00267624 59.0925 0.00487235C59.0956 0.00706846 59.0984 0.00991909 59.1006 0.0132559C59.1027 0.0165926 59.1043 0.0203479 59.1052 0.0242991L59.1254 0.108424C59.1261 0.112366 59.1251 0.116561 59.1227 0.12026C59.1202 0.123959 59.1164 0.126921 59.1119 0.128615C53.2105 2.44598 47.4826 5.29054 41.9283 8.66228C37.6887 11.2365 33.0191 14.7597 30.3349 18.865C28.6328 21.4695 28.5678 24.1021 30.14 26.7627C30.1554 26.7894 30.1803 26.8094 30.2101 26.8187C30.2399 26.8281 30.2724 26.8261 30.3013 26.8131C33.0202 25.586 36.1019 24.4083 39.5465 23.2799C45.6204 21.29 52.1422 19.5447 59.1119 18.0439C59.1243 18.041 59.1374 18.0432 59.1487 18.05C59.1599 18.0569 59.1684 18.0679 59.1724 18.0809H59.1758C59.1794 18.094 59.1783 18.1078 59.1727 18.1196C59.1671 18.1315 59.1574 18.1405 59.1455 18.1449C54.2519 20.1078 49.4905 22.3848 44.8611 24.9758C41.3404 26.9455 38.0314 29.2101 34.934 31.7698C34.9107 31.7894 34.8919 31.8138 34.8791 31.8414C34.8662 31.8691 34.8596 31.8992 34.8596 31.9296C34.8596 31.9601 34.8662 31.9902 34.8791 32.0178C34.8919 32.0454 34.9107 32.0699 34.934 32.0895C36.9496 33.7854 39.0795 35.2941 41.3236 36.6154C46.1008 39.4263 51.1366 41.8345 56.4311 43.8401C56.4502 43.8461 56.4661 43.8596 56.4755 43.8778C56.4849 43.896 56.4871 43.9175 56.4815 43.9377L56.4781 43.9444C56.4703 43.9753 56.4506 44.002 56.4231 44.0189C56.3956 44.0358 56.3624 44.0416 56.3303 44.0353C54.1422 43.6135 51.8062 43.1458 49.3225 42.632C42.841 41.2928 36.6115 39.3433 30.6339 36.7837C30.5849 36.763 30.5305 36.7602 30.4801 36.7756C30.4296 36.791 30.3866 36.8236 30.3584 36.8678C29.0953 38.8128 28.5141 41.1514 29.4346 43.3185C30.9833 46.9527 34.2486 49.8735 37.6484 52.2492C43.4199 56.2805 49.8667 59.3999 56.3303 61.853C56.3495 61.8579 56.3659 61.8702 56.376 61.8872C56.386 61.9043 56.389 61.9246 56.3841 61.9438C56.3792 61.963 56.3668 61.9795 56.3498 61.9896C56.3328 61.9997 56.3125 62.0026 56.2933 61.9977C50.5218 61.1071 44.8981 59.8093 39.4222 58.1044C33.5969 56.2872 28.0068 53.9048 22.9643 50.7215C19.6485 48.6319 16.0001 45.5832 15.4727 41.5586C15.4619 41.4795 15.4275 41.4055 15.3741 41.3466C15.3207 41.2877 15.2508 41.2466 15.1737 41.2288C10.578 40.1902 6.46601 38.3686 2.8378 35.7641C2.43691 35.4769 1.7863 34.7972 0.885965 33.7249C-1.14314 31.3088 0.681039 28.6504 2.67319 27.1261C6.21405 24.4139 11.0651 22.6237 15.2577 21.8195C15.317 21.8075 15.3718 21.7791 15.4157 21.7374C15.4597 21.6958 15.4911 21.6426 15.5063 21.5839C15.9923 19.7175 16.728 18.2312 17.7134 17.1253C19.5544 15.0569 21.7952 13.2645 24.4357 11.748C28.1602 9.61009 32.3147 7.74251 36.8993 6.14525C43.7615 3.75161 51.1523 1.70344 59.0716 0.000744134ZM15.3518 39.903C15.3646 39.9114 15.3793 39.9164 15.3945 39.9176C15.4098 39.9188 15.4252 39.9161 15.4395 39.9098C15.4537 39.9035 15.4663 39.8938 15.4762 39.8814C15.4861 39.8691 15.4929 39.8546 15.4962 39.8391C16.2017 36.2722 18.5264 33.9873 21.3416 31.8438C21.3638 31.8265 21.3819 31.8045 21.3944 31.7793C21.4069 31.7541 21.4136 31.7266 21.4139 31.6987C21.4143 31.6707 21.4082 31.6432 21.3963 31.6183C21.3843 31.5933 21.3668 31.5714 21.345 31.5544C20.167 30.6257 19.1961 29.78 18.4324 29.0172C16.8422 27.4289 15.8467 25.5647 15.4458 23.4246C15.4429 23.41 15.4366 23.3964 15.4275 23.3848C15.4183 23.3731 15.4066 23.3638 15.3931 23.3576C15.3797 23.3514 15.365 23.3484 15.3502 23.3489C15.3355 23.3495 15.321 23.3535 15.3081 23.3606C13.2275 24.4195 11.5701 25.8092 10.3361 27.5299C6.74484 32.5303 11.3506 37.3624 15.3518 39.903Z" fill="white"/>
<path d="M152.132 35.5046C152.162 35.5117 152.19 35.5262 152.213 35.5468C152.236 35.5674 152.253 35.5934 152.264 35.6227C152.274 35.6519 152.278 35.6834 152.274 35.7145C152.269 35.7455 152.258 35.7751 152.24 35.8007C151.742 36.5029 151.561 37.2668 151.695 38.0923C152.129 40.7439 156.486 40.6699 158.421 40.2762C159.95 39.9633 161.693 39.0076 162.16 37.4193C163.245 33.7212 156.997 32.8025 154.279 32.1463C151.843 31.5608 149.213 29.912 148.813 27.2738C148.744 26.8251 148.794 26.4505 148.964 26.1499C149.018 26.0548 149.035 25.9421 149.011 25.8336C148.803 24.8914 149.653 23.2694 150.251 22.519C151.53 20.9083 153.146 19.7553 155.099 19.0598C158.159 17.9662 161.135 17.6061 164.226 18.5685C167.203 19.4973 169.453 22.0883 169.39 25.312C169.39 25.3486 169.375 25.3837 169.348 25.4096C169.322 25.4354 169.286 25.45 169.249 25.45H164.586C164.516 25.4497 164.449 25.4243 164.397 25.3784C164.345 25.3326 164.312 25.2694 164.303 25.201C164.169 24.1466 163.801 23.3468 163.198 22.8017C161.216 21.0082 156.896 21.6475 155.176 23.5487C153.194 25.736 154.991 27.3714 157.195 27.8324C161.122 28.6602 165.879 30.1913 167.481 33.913C168.126 35.4104 167.649 37.527 166.793 39.0278C164.102 43.7354 157.954 44.8728 152.969 44.1594C149.394 43.6513 145.064 41.5616 145.867 37.2006C146.055 36.1754 146.455 35.241 147.066 34.3975C147.103 34.3469 147.154 34.3086 147.212 34.2875C147.27 34.2665 147.333 34.2638 147.392 34.2798L152.132 35.5046Z" fill="white"/>
<path d="M116.02 44.1566C111.7 43.6653 106.825 40.8387 108.068 35.7004C108.71 33.0521 109.194 30.7807 109.439 29.5289C109.905 27.1488 110.463 25.418 111.115 24.3367C112.374 22.2549 113.917 20.7564 115.745 19.8411C118.906 18.2595 123.182 17.5596 126.626 18.5557C129.528 19.3969 131.584 21.7322 132.082 24.6968C132.241 25.6547 132.07 27.1757 131.571 29.2597C131.537 29.4033 131.034 31.7712 130.062 36.3633C128.796 42.3429 121.23 44.7455 116.02 44.1566ZM114.535 30.0808C114.345 31.0006 114.022 32.5451 113.568 34.7144C113.326 35.8742 113.245 36.6874 113.326 37.1541C113.736 39.5129 116.282 40.5561 118.452 40.5224C121.536 40.4753 124.395 38.6818 125.131 35.5759C125.236 35.1339 125.45 34.13 125.772 32.5642C125.963 31.6444 126.285 30.101 126.74 27.9339C126.982 26.7741 127.062 25.9609 126.982 25.4943C126.572 23.1354 124.026 22.0923 121.855 22.1259C118.771 22.173 115.912 23.9666 115.177 27.0725C115.071 27.5144 114.858 28.5172 114.535 30.0808Z" fill="white"/>
<path d="M79.0008 43.3988C78.9696 43.3991 78.939 43.3911 78.9119 43.3756C78.8849 43.36 78.8625 43.3376 78.8471 43.3104C78.8317 43.2833 78.8238 43.2526 78.8242 43.2214C78.8247 43.1902 78.8334 43.1596 78.8496 43.133C81.6604 38.4534 85.825 31.4418 91.3434 22.0983C92.3692 20.3642 93.667 19.1943 95.237 18.5886C97.1855 17.8416 99.4934 18.38 100.229 20.4831C100.332 20.777 100.471 21.4556 100.646 22.5189C102.628 34.7182 103.732 41.5559 103.958 43.032C103.965 43.076 103.963 43.121 103.951 43.1639C103.939 43.2069 103.918 43.2467 103.89 43.2807C103.861 43.3146 103.825 43.3419 103.785 43.3606C103.744 43.3792 103.7 43.3888 103.656 43.3887L98.8921 43.3853C98.8246 43.385 98.7595 43.3602 98.7094 43.3155C98.6592 43.2708 98.6274 43.2095 98.62 43.1431L98.059 38.4926C98.0516 38.4361 98.0241 38.3842 97.9815 38.3464C97.9389 38.3087 97.884 38.2877 97.8271 38.2874L87.6077 38.2806C87.5168 38.2806 87.4273 38.3049 87.3483 38.351C87.2693 38.3971 87.2035 38.4633 87.1575 38.5431L84.5271 43.1027C84.4751 43.1937 84.4001 43.2693 84.3099 43.3219C84.2196 43.3744 84.1172 43.4021 84.0131 43.4022L79.0008 43.3988ZM96.1441 22.8958C96.1418 22.8729 96.1322 22.8513 96.1167 22.8342C96.1013 22.8171 96.0807 22.8055 96.0582 22.801C96.0356 22.7965 96.0122 22.7993 95.9914 22.8091C95.9706 22.8189 95.9534 22.8351 95.9425 22.8554L89.1295 34.6767C89.1202 34.6929 89.1152 34.7112 89.1151 34.7299C89.115 34.7486 89.1198 34.7671 89.1289 34.7834C89.1381 34.7997 89.1513 34.8133 89.1673 34.8229C89.1833 34.8325 89.2016 34.8378 89.2202 34.8382H97.461C97.4763 34.8383 97.4915 34.8352 97.5055 34.8289C97.5195 34.8227 97.532 34.8136 97.5422 34.8021C97.5523 34.7906 97.5599 34.7771 97.5645 34.7624C97.569 34.7478 97.5704 34.7323 97.5685 34.7171L96.1441 22.8958Z" fill="white"/>
<path d="M200.861 43.5947L202.722 34.6337C202.744 34.5254 202.725 34.4138 202.669 34.3208C201.621 32.5732 200.822 30.6585 200.273 28.5767C199.075 24.0182 198.187 20.7261 197.609 18.7004C197.605 18.6863 197.604 18.6714 197.607 18.6569C197.61 18.6424 197.615 18.6287 197.624 18.617C197.633 18.6052 197.645 18.5956 197.658 18.5891C197.671 18.5825 197.685 18.5792 197.7 18.5793H202.887C202.949 18.5794 203.009 18.6009 203.058 18.64C203.106 18.6792 203.139 18.7338 203.152 18.7946L205.618 30.0977C205.628 30.1456 205.651 30.1899 205.685 30.2258C205.718 30.2616 205.76 30.2877 205.807 30.3012C205.854 30.3147 205.904 30.3151 205.951 30.3024C205.998 30.2897 206.041 30.2643 206.075 30.2289C207.032 29.2284 207.976 28.0439 208.907 26.6755C210.289 24.6408 211.967 22.0093 213.94 18.7812C213.975 18.7245 214.023 18.6775 214.081 18.6446C214.138 18.6116 214.203 18.5938 214.269 18.5927C215.821 18.568 217.5 18.568 219.305 18.5927C219.381 18.595 219.431 18.6331 219.456 18.7071C219.463 18.7296 219.455 18.7587 219.432 18.7946C216.496 23.3127 213.841 27.187 211.467 30.4174C210.311 31.9899 209.056 33.3505 207.701 34.4991C207.586 34.597 207.508 34.7312 207.479 34.8794L205.857 43.6351C205.847 43.691 205.817 43.7414 205.774 43.7777C205.73 43.814 205.675 43.8338 205.618 43.8337H201.056C201.027 43.8338 200.998 43.8273 200.971 43.8147C200.944 43.8021 200.921 43.7836 200.902 43.7607C200.883 43.7378 200.87 43.711 200.863 43.6823C200.856 43.6536 200.855 43.6237 200.861 43.5947Z" fill="white"/>
<path d="M226.273 18.7981L226.743 39.1968C226.745 39.2686 226.771 39.3379 226.818 39.3929C226.864 39.4479 226.928 39.4853 226.998 39.4987C227.069 39.5122 227.141 39.5009 227.204 39.4667C227.266 39.4325 227.315 39.3776 227.341 39.3112L235.911 18.8082C235.942 18.7354 235.993 18.6733 236.058 18.6296C236.123 18.586 236.2 18.5626 236.277 18.5625H240.151C240.211 18.5625 240.27 18.5863 240.312 18.6286C240.355 18.6708 240.379 18.7282 240.379 18.788V39.2304C240.38 39.2994 240.404 39.3663 240.448 39.42C240.491 39.4737 240.552 39.5109 240.619 39.5254C240.686 39.54 240.756 39.531 240.817 39.5C240.878 39.469 240.926 39.4178 240.954 39.3549L250.263 18.8082C250.296 18.7349 250.349 18.6727 250.416 18.6291C250.482 18.5855 250.56 18.5624 250.639 18.5625H255.319C255.34 18.5621 255.36 18.567 255.378 18.5769C255.397 18.5867 255.412 18.6011 255.423 18.6187C255.435 18.6363 255.441 18.6565 255.442 18.6773C255.443 18.6981 255.439 18.7188 255.43 18.7375C254.455 20.8328 251.304 27.5606 245.976 38.9208C245.21 40.5495 244.734 41.4894 244.548 41.7407C243.047 43.7597 240.238 44.7154 238.001 43.5343C236.533 42.7569 236.311 41.6196 236.318 39.9C236.342 35.133 236.368 31.0747 236.395 27.7254C236.396 27.7015 236.389 27.6779 236.374 27.659C236.359 27.6401 236.338 27.6271 236.315 27.6222C236.291 27.6173 236.267 27.621 236.246 27.6325C236.225 27.644 236.209 27.6627 236.2 27.6851C234.133 32.4432 232.327 36.5833 230.781 40.1053C229.723 42.5113 227.654 44.4495 224.875 44.1198C222.638 43.8506 221.882 42.1479 221.785 40.1087C221.601 36.2389 221.272 29.1085 220.797 18.7173C220.796 18.6995 220.799 18.6817 220.805 18.665C220.811 18.6483 220.82 18.633 220.832 18.6201C220.844 18.6072 220.858 18.5969 220.874 18.5899C220.89 18.5829 220.907 18.5793 220.925 18.5794H226.051C226.109 18.5793 226.165 18.6023 226.207 18.6432C226.248 18.6841 226.272 18.7398 226.273 18.7981Z" fill="white"/>
<path d="M249.423 43.6985C249.392 43.6989 249.361 43.6908 249.334 43.6753C249.307 43.6598 249.284 43.6373 249.269 43.6102C249.254 43.583 249.246 43.5523 249.246 43.5211C249.247 43.4899 249.255 43.4594 249.271 43.4327C252.078 38.7553 256.237 31.746 261.748 22.4047C262.772 20.6729 264.069 19.5041 265.639 18.8984C267.584 18.148 269.892 18.6864 270.628 20.7862C270.731 21.08 270.869 21.7587 271.044 22.822C273.031 35.0123 274.137 41.8455 274.363 43.3216C274.37 43.3653 274.367 43.41 274.355 43.4525C274.343 43.495 274.322 43.5345 274.293 43.568C274.265 43.6016 274.229 43.6285 274.189 43.647C274.149 43.6655 274.105 43.675 274.061 43.675H269.301C269.233 43.6746 269.168 43.6498 269.118 43.6051C269.068 43.5605 269.036 43.4991 269.028 43.4327L268.467 38.7856C268.46 38.7291 268.433 38.6772 268.39 38.6394C268.347 38.6017 268.292 38.5807 268.236 38.5803H258.023C257.932 38.5804 257.842 38.6046 257.763 38.6507C257.684 38.6968 257.619 38.763 257.573 38.8428L254.946 43.399C254.894 43.49 254.819 43.5656 254.728 43.6182C254.638 43.6708 254.536 43.6985 254.432 43.6985H249.423ZM266.586 23.5051C266.581 23.4618 266.562 23.4212 266.533 23.389C266.503 23.3569 266.465 23.3348 266.422 23.3259C266.379 23.3169 266.335 23.3216 266.295 23.3393C266.255 23.357 266.222 23.3867 266.2 23.4243L259.635 34.8149C259.617 34.8464 259.608 34.8822 259.607 34.9186C259.607 34.9551 259.617 34.9909 259.635 35.0225C259.653 35.0542 259.679 35.0805 259.71 35.099C259.741 35.1175 259.777 35.1274 259.813 35.1278H267.752C267.781 35.128 267.81 35.122 267.837 35.11C267.864 35.0981 267.888 35.0806 267.908 35.0587C267.928 35.0367 267.943 35.0108 267.952 34.9827C267.961 34.9546 267.963 34.925 267.96 34.8957L266.586 23.5051Z" fill="white"/>
<path d="M281.603 43.813C281.573 43.8131 281.544 43.8066 281.518 43.794C281.491 43.7814 281.467 43.7629 281.449 43.74C281.43 43.7171 281.417 43.6904 281.41 43.6616C281.403 43.6329 281.402 43.603 281.408 43.5741L283.273 34.6265C283.294 34.5185 283.275 34.4068 283.219 34.3136C282.175 32.5682 281.38 30.6558 280.834 28.5762C279.64 24.0222 278.755 20.7335 278.18 18.71C278.175 18.6959 278.175 18.681 278.177 18.6665C278.18 18.652 278.186 18.6383 278.195 18.6266C278.203 18.6148 278.215 18.6052 278.228 18.5987C278.241 18.5921 278.256 18.5888 278.27 18.5889L283.451 18.5922C283.513 18.5924 283.573 18.6138 283.621 18.653C283.67 18.6922 283.703 18.7467 283.716 18.8076L286.168 30.0972C286.179 30.1451 286.201 30.1894 286.235 30.2253C286.268 30.2612 286.31 30.2872 286.357 30.3007C286.404 30.3142 286.454 30.3146 286.501 30.3019C286.549 30.2892 286.591 30.2638 286.625 30.2284C287.582 29.2301 288.526 28.0479 289.457 26.6817C290.839 24.6515 292.517 22.0245 294.49 18.8009C294.525 18.7442 294.573 18.6972 294.631 18.6643C294.688 18.6313 294.753 18.6135 294.819 18.6124C296.369 18.59 298.045 18.5911 299.848 18.6158C299.924 18.618 299.975 18.6562 299.999 18.7302C300.006 18.7526 299.998 18.7818 299.976 18.8177C297.04 23.329 294.385 27.1966 292.011 30.4202C290.855 31.9906 289.601 33.3489 288.248 34.4953C288.133 34.5931 288.054 34.7273 288.026 34.8755L286.397 43.6178C286.387 43.6736 286.357 43.7241 286.314 43.7604C286.27 43.7967 286.215 43.8165 286.158 43.8163L281.603 43.813Z" fill="white"/>
<path d="M178.826 28.8216C178.824 28.8247 178.824 28.8284 178.825 28.8319C178.826 28.8354 178.828 28.8383 178.831 28.8401C178.834 28.8419 178.838 28.8424 178.842 28.8414C178.845 28.8405 178.848 28.8382 178.85 28.8351C182.666 25.4768 186.132 22.1982 189.247 18.9992C189.337 18.9066 189.444 18.8329 189.562 18.7826C189.68 18.7323 189.807 18.7064 189.936 18.7064H195.58C195.6 18.7058 195.62 18.7114 195.637 18.7224C195.654 18.7334 195.668 18.7494 195.676 18.7683C195.684 18.7873 195.687 18.8084 195.683 18.8291C195.68 18.8498 195.671 18.8691 195.657 18.8848C194.992 19.5892 194.438 20.1522 193.994 20.574C190.406 23.9883 186.794 27.2199 183.157 30.2686C183.13 30.2911 183.113 30.3233 183.11 30.3585C183.107 30.3936 183.118 30.4289 183.14 30.457C186.387 34.5534 189.145 38.9458 191.414 43.6344C191.424 43.6538 191.428 43.6753 191.427 43.697C191.426 43.7186 191.419 43.7397 191.407 43.7581C191.395 43.7766 191.379 43.792 191.36 43.8027C191.34 43.8134 191.319 43.8192 191.296 43.8195H185.639C185.601 43.8194 185.564 43.8087 185.531 43.7884C185.499 43.7681 185.474 43.7392 185.458 43.7051C183.516 39.5224 181.195 35.5954 178.336 32.1092C178.318 32.0877 178.295 32.0717 178.268 32.0629C178.242 32.0542 178.213 32.0531 178.186 32.0597C178.159 32.0664 178.135 32.0806 178.115 32.1007C178.096 32.1207 178.083 32.1459 178.077 32.1732L175.699 43.6243C175.687 43.6805 175.657 43.7309 175.613 43.7671C175.57 43.8033 175.516 43.8229 175.46 43.8228H170.659C170.637 43.8228 170.614 43.8177 170.594 43.808C170.573 43.7983 170.555 43.7842 170.541 43.7667C170.527 43.7492 170.517 43.7289 170.512 43.7071C170.507 43.6854 170.507 43.6628 170.512 43.6411L175.635 18.9487C175.65 18.8772 175.69 18.8131 175.746 18.7671C175.803 18.7212 175.874 18.6962 175.947 18.6963H180.802C180.817 18.696 180.832 18.6991 180.845 18.7054C180.859 18.7117 180.871 18.721 180.881 18.7326C180.891 18.7442 180.898 18.7579 180.901 18.7726C180.905 18.7873 180.905 18.8026 180.902 18.8175L178.826 28.8216Z" fill="white"/>
<path d="M74.1502 37.8735H77.9228C77.9571 37.8734 77.9903 37.8861 78.0158 37.9091C78.0412 37.9321 78.0572 37.9638 78.0606 37.9981C78.3999 40.9895 77.0191 43.4998 73.7403 43.7421C73.3797 43.769 71.345 43.787 67.6362 43.796C64.606 43.8061 61.7236 43.5335 61.344 40.3367C61.2745 39.7579 61.4335 38.6497 61.821 37.0121C63.0662 31.738 64.429 25.7461 65.9094 19.0362C65.9247 18.9675 65.9627 18.9061 66.017 18.862C66.0714 18.818 66.1389 18.794 66.2084 18.7939H71.2073C71.2372 18.7941 71.2668 18.8011 71.2936 18.8143C71.3205 18.8275 71.344 18.8467 71.3625 18.8703C71.3809 18.8939 71.3937 18.9214 71.4 18.9508C71.4063 18.9801 71.4059 19.0105 71.3988 19.0396C69.8669 25.5767 68.429 31.8625 67.0852 37.8971C66.877 38.8292 66.6586 40.1348 68.0964 40.1786C70.2129 40.2481 71.765 40.2549 72.7526 40.1988C73.7974 40.1416 73.9184 38.9369 73.9352 38.0822C73.9369 38.0262 73.9603 37.9732 74.0005 37.9342C74.0406 37.8953 74.0943 37.8735 74.1502 37.8735Z" fill="white"/>
</svg>
