<svg width="300" height="46" viewBox="0 0 300 46" fill="none" xmlns="http://www.w3.org/2000/svg">
<path d="M278.852 0C278.859 0 278.867 0.00172204 278.876 0.00516654C278.88 0.00713575 278.886 0.0114296 278.891 0.0177071C278.896 0.0239846 278.902 0.0320732 278.907 0.0413337L293.509 24.5851C293.515 24.5951 293.518 24.607 293.516 24.6188C293.515 24.6305 293.51 24.6415 293.501 24.6497C293.493 24.658 293.482 24.6631 293.47 24.6642C293.458 24.6653 293.446 24.6623 293.436 24.6557C292.895 24.3021 292.442 24.0087 292.08 23.7757C289.852 22.3462 287.486 21.3031 284.983 20.6463C284.89 20.6221 284.811 20.562 284.763 20.4793C282.574 16.8201 280.634 13.569 278.943 10.7262C278.922 10.6906 278.891 10.6728 278.852 10.6728C278.813 10.6728 278.783 10.6906 278.761 10.7262C277.07 13.569 275.13 16.8201 272.942 20.4793C272.893 20.562 272.814 20.6221 272.721 20.6463C270.218 21.3031 267.852 22.3462 265.625 23.7757C265.262 24.0087 264.81 24.3021 264.268 24.6557C264.258 24.6623 264.246 24.6653 264.234 24.6642C264.223 24.6631 264.212 24.658 264.203 24.6497C264.195 24.6415 264.189 24.6305 264.188 24.6188C264.186 24.607 264.189 24.5951 264.196 24.5851L278.797 0.0413337C278.803 0.0314402 278.809 0.0229472 278.815 0.0166296C278.82 0.0103121 278.826 0.00637127 278.83 0.00516654C278.838 0.00172204 278.845 0 278.852 0Z" fill="white"/>
<path d="M132.945 16.811C132.989 16.811 133.038 16.8639 133.092 16.9695C138.735 28.225 143.501 37.6945 147.389 45.378C147.393 45.3872 147.395 45.3973 147.395 45.4074C147.394 45.4176 147.391 45.4274 147.386 45.436C147.381 45.4446 147.374 45.4517 147.365 45.4566C147.357 45.4615 147.347 45.4641 147.337 45.4641H142.54C142.496 45.4642 142.452 45.4516 142.414 45.4278C142.375 45.4041 142.345 45.3701 142.325 45.3298L139.86 40.411C139.831 40.3524 139.785 40.3038 139.728 40.2713C139.671 40.2388 139.605 40.2239 139.539 40.2285C139.49 40.2319 137.293 40.2342 132.949 40.2354C128.605 40.2354 126.408 40.2336 126.358 40.2302C126.293 40.2256 126.227 40.2405 126.17 40.273C126.113 40.3055 126.067 40.3541 126.038 40.4128L123.574 45.3315C123.555 45.3718 123.524 45.4058 123.486 45.4296C123.448 45.4533 123.404 45.4659 123.359 45.4658L118.563 45.4676C118.553 45.4675 118.543 45.4649 118.534 45.46C118.526 45.4551 118.519 45.448 118.513 45.4394C118.508 45.4308 118.505 45.421 118.505 45.4109C118.504 45.4007 118.507 45.3906 118.511 45.3815C122.396 37.6968 127.159 28.2261 132.801 16.9695C132.854 16.8639 132.902 16.811 132.945 16.811ZM128.478 35.5595C128.472 35.5707 128.47 35.5831 128.47 35.5956C128.471 35.6081 128.474 35.6202 128.481 35.6309C128.488 35.6415 128.497 35.6504 128.508 35.6566C128.518 35.6627 128.531 35.6661 128.543 35.6662H137.351C137.364 35.6661 137.376 35.6627 137.387 35.6566C137.398 35.6504 137.407 35.6415 137.413 35.6309C137.42 35.6202 137.424 35.6081 137.424 35.5956C137.425 35.5831 137.422 35.5707 137.417 35.5595L133.013 26.8431C133.006 26.8313 132.997 26.8213 132.985 26.8144C132.974 26.8074 132.961 26.8037 132.947 26.8037C132.934 26.8037 132.921 26.8074 132.909 26.8144C132.897 26.8213 132.888 26.8313 132.882 26.8431L128.478 35.5595Z" fill="white"/>
<path d="M14.4234 40.2234C10.0847 40.2245 7.89076 40.2234 7.8414 40.2199C7.77575 40.2151 7.7102 40.2299 7.65315 40.2624C7.5961 40.295 7.55014 40.3437 7.52117 40.4025L5.0609 45.3161C5.04134 45.3561 5.011 45.3899 4.97328 45.4137C4.93556 45.4374 4.89197 45.4501 4.84741 45.4504L0.0577063 45.4521C0.0478172 45.4521 0.0381282 45.4495 0.0295411 45.4446C0.0209541 45.4397 0.013748 45.4326 0.00859322 45.424C0.00343846 45.4154 0.000502633 45.4056 5.90168e-05 45.3954C-0.000384599 45.3853 0.00167838 45.3752 0.00605596 45.366C3.88442 37.6917 8.64026 28.2336 14.2736 16.9919C14.3264 16.8863 14.374 16.8335 14.4165 16.8335C14.4612 16.8335 14.51 16.8863 14.5628 16.9919C20.1996 28.2302 24.9595 37.6859 28.8424 45.3591C28.8468 45.3683 28.8489 45.3784 28.8484 45.3886C28.848 45.3987 28.845 45.4085 28.8399 45.4171C28.8347 45.4257 28.8275 45.4328 28.8189 45.4377C28.8103 45.4426 28.8006 45.4452 28.7908 45.4453H24.0011C23.9562 45.4453 23.9122 45.4327 23.8742 45.409C23.8361 45.3852 23.8055 45.3512 23.7858 45.3109L21.3239 40.3991C21.295 40.3406 21.2493 40.292 21.1926 40.2595C21.1359 40.227 21.0707 40.212 21.0053 40.2165C20.9548 40.2211 18.7608 40.2234 14.4234 40.2234ZM9.9935 35.4872C9.98433 35.5051 9.97992 35.5251 9.98072 35.5452C9.98151 35.5653 9.98747 35.5849 9.99803 35.602C10.0086 35.6192 10.0234 35.6333 10.041 35.643C10.0586 35.6528 10.0784 35.6578 10.0985 35.6577L18.7413 35.6732C18.7615 35.6733 18.7813 35.6683 18.7989 35.6585C18.8165 35.6488 18.8313 35.6347 18.8418 35.6175C18.8524 35.6004 18.8583 35.5808 18.8591 35.5607C18.8599 35.5406 18.8555 35.5206 18.8464 35.5027L14.5404 26.9018C14.5308 26.8822 14.5158 26.8656 14.4973 26.8541C14.4787 26.8425 14.4573 26.8364 14.4354 26.8364C14.4136 26.8364 14.3921 26.8425 14.3736 26.8541C14.355 26.8656 14.3401 26.8822 14.3304 26.9018L9.9935 35.4872Z" fill="white"/>
<path d="M218.197 31.4571C218.197 33.3637 217.822 35.2516 217.093 37.0131C216.363 38.7745 215.294 40.3751 213.946 41.7232C212.599 43.0714 210.999 44.1408 209.238 44.8705C207.477 45.6001 205.59 45.9756 203.684 45.9756C199.834 45.9756 196.143 44.446 193.421 41.7232C190.699 39.0005 189.17 35.3076 189.17 31.4571C189.17 27.6065 190.699 23.9136 193.421 21.1909C196.143 18.4681 199.834 16.9385 203.684 16.9385C205.59 16.9385 207.477 17.314 209.238 18.0436C210.999 18.7733 212.599 19.8427 213.946 21.1909C215.294 22.539 216.363 24.1396 217.093 25.901C217.822 27.6625 218.197 29.5504 218.197 31.4571ZM213.341 31.4467C213.341 28.8852 212.323 26.4285 210.513 24.6172C208.702 22.8059 206.246 21.7883 203.685 21.7883C201.125 21.7883 198.669 22.8059 196.858 24.6172C195.047 26.4285 194.03 28.8852 194.03 31.4467C194.03 34.0083 195.047 36.4649 196.858 38.2762C198.669 40.0875 201.125 41.1051 203.685 41.1051C206.246 41.1051 208.702 40.0875 210.513 38.2762C212.323 36.4649 213.341 34.0083 213.341 31.4467Z" fill="white"/>
<path d="M162.839 41.4217C162.825 41.4092 162.816 41.3917 162.814 41.373C162.813 41.3543 162.818 41.3359 162.83 41.3218L165.797 37.7929C165.802 37.7873 165.807 37.7828 165.814 37.7795C165.82 37.7763 165.828 37.7743 165.835 37.7738C165.842 37.7734 165.85 37.7743 165.857 37.7767C165.864 37.7791 165.87 37.7828 165.876 37.7877C168.145 39.863 171.098 41.4096 174.24 41.4079C174.96 41.4067 175.371 41.4021 175.473 41.3941C177.146 41.2667 179.145 40.4245 179.503 38.5696C179.885 36.5942 178.806 35.5023 177.055 34.7858C176.163 34.4207 175.418 34.1681 174.82 34.028C172.176 33.4046 169.659 32.8397 167.401 31.5532C165.563 30.5049 164.457 28.9732 164.084 26.9582C163.953 26.2521 164.018 25.4736 163.993 24.7744C163.981 24.438 163.997 24.1463 164.039 23.8995C164.381 21.9499 165.279 20.3838 166.732 19.2012C168.939 17.4049 171.645 16.9209 174.593 17.0553C177.957 17.208 180.995 18.363 183.707 20.5204C183.719 20.5296 183.727 20.5429 183.729 20.5576C183.731 20.5724 183.728 20.5874 183.72 20.5996L181.158 24.2284C181.143 24.2487 181.125 24.266 181.104 24.279C181.083 24.2921 181.06 24.3007 181.035 24.3044C181.011 24.3081 180.986 24.3068 180.962 24.3006C180.938 24.2943 180.916 24.2832 180.896 24.268C178.906 22.7335 176.55 21.6399 174.002 21.4659C172.019 21.3316 169.252 22.0257 168.965 24.4351C168.798 25.8232 169.374 26.8669 170.692 27.5662C171.423 27.9542 172.282 28.2872 173.269 28.5651C174.237 28.8372 175.418 29.1449 176.812 29.4882C177.124 29.5651 177.827 29.7993 178.919 30.1909C181.967 31.2828 184.301 33.2668 184.527 36.6906C184.711 39.4824 183.883 41.9435 181.678 43.714C180.707 44.4924 179.641 45.0332 178.482 45.3363C177.279 45.6509 176.449 45.8278 175.993 45.8668C175.422 45.9139 175 45.9546 174.727 45.9891C174.65 45.9994 174.573 46.0023 174.495 45.9977C173.011 45.9219 171.538 45.6934 170.077 45.3122C167.345 44.5975 164.936 43.2507 162.839 41.4217Z" fill="white"/>
<path d="M38.188 17.4102H33.5842C33.4948 17.4102 33.4224 17.4826 33.4224 17.572V45.2865C33.4224 45.3759 33.4948 45.4484 33.5842 45.4484H38.188C38.2773 45.4484 38.3498 45.3759 38.3498 45.2865V17.572C38.3498 17.4826 38.2773 17.4102 38.188 17.4102Z" fill="white"/>
<path d="M67.1224 45.3419C67.1299 45.3527 67.1344 45.3653 67.1352 45.3784C67.1361 45.3916 67.1334 45.4047 67.1274 45.4164C67.1213 45.4281 67.1122 45.4379 67.1011 45.4448C67.0899 45.4517 67.077 45.4554 67.0639 45.4556H61.5218C61.4611 45.4556 61.4012 45.4411 61.347 45.4133C61.2928 45.3854 61.2459 45.345 61.2102 45.2954L54.4629 35.8282C54.4363 35.7914 54.4015 35.7614 54.3614 35.7407C54.3213 35.7201 54.277 35.7093 54.2322 35.7094H50.2982C50.2713 35.7094 50.2454 35.7202 50.2264 35.7396C50.2073 35.759 50.1966 35.7853 50.1966 35.8127V45.2833C50.1966 45.3053 50.1923 45.327 50.1839 45.3473C50.1755 45.3675 50.1632 45.386 50.1477 45.4015C50.1322 45.417 50.1138 45.4293 50.0935 45.4377C50.0733 45.4461 50.0515 45.4504 50.0296 45.4504H45.4052C45.3732 45.4504 45.3426 45.4379 45.32 45.4156C45.2974 45.3933 45.2847 45.3631 45.2847 45.3316V17.5224C45.2847 17.4959 45.2952 17.4705 45.3139 17.4517C45.3326 17.433 45.358 17.4225 45.3845 17.4225C48.487 17.3995 51.9791 17.3915 55.8609 17.3984C56.2087 17.3984 56.7952 17.4351 57.6205 17.5086C62.2966 17.9288 66.1634 20.8308 66.2495 25.8443C66.2644 26.6802 66.2656 27.1676 66.253 27.3065C65.8845 31.2504 63.4225 33.7701 59.764 34.8448C59.7523 34.8484 59.7416 34.8547 59.7327 34.8632C59.7239 34.8717 59.7172 34.882 59.7132 34.8935C59.7091 34.9049 59.7079 34.917 59.7095 34.9289C59.7112 34.9408 59.7157 34.9521 59.7226 34.9619L67.1224 45.3419ZM50.1897 22.0846L50.2069 31.2642C50.2074 31.2941 50.2196 31.3225 50.2408 31.3435C50.2621 31.3644 50.2907 31.3762 50.3206 31.3762L56.0968 31.3676C56.7718 31.3663 57.4399 31.2486 58.063 31.0212C58.6862 30.7939 59.2521 30.4613 59.7285 30.0424C60.205 29.6236 60.5825 29.1267 60.8397 28.5801C61.0969 28.0335 61.2286 27.448 61.2274 26.857V26.4505C61.2249 25.2571 60.6812 24.1137 59.7158 23.2717C58.7504 22.4297 57.4424 21.9581 56.0796 21.9606L50.3034 21.9692C50.2883 21.9692 50.2734 21.9722 50.2595 21.9781C50.2456 21.9839 50.233 21.9924 50.2224 22.0031C50.2118 22.0139 50.2035 22.0266 50.1979 22.0406C50.1923 22.0546 50.1895 22.0696 50.1897 22.0846Z" fill="white"/>
<path d="M88.9754 17.5757V40.74C88.9754 40.7834 88.9926 40.825 89.0233 40.8557C89.054 40.8864 89.0956 40.9036 89.139 40.9036H103.023C103.066 40.9036 103.108 40.9209 103.138 40.9515C103.169 40.9822 103.186 41.0238 103.186 41.0672V45.2902C103.186 45.3336 103.169 45.3752 103.138 45.4059C103.108 45.4366 103.066 45.4538 103.023 45.4538H84.1289C84.0855 45.4538 84.0439 45.4366 84.0132 45.4059C83.9826 45.3752 83.9653 45.3336 83.9653 45.2902V17.5757C83.9653 17.5323 83.9826 17.4907 84.0132 17.46C84.0439 17.4293 84.0855 17.4121 84.1289 17.4121H88.8119C88.8333 17.4121 88.8546 17.4163 88.8744 17.4246C88.8943 17.4328 88.9123 17.4448 88.9275 17.46C88.9427 17.4752 88.9547 17.4933 88.963 17.5131C88.9712 17.533 88.9754 17.5542 88.9754 17.5757Z" fill="white"/>
<path d="M113.836 17.4087H109.098C109.038 17.4087 108.99 17.4573 108.99 17.5172V45.3384C108.99 45.3984 109.038 45.4469 109.098 45.4469H113.836C113.896 45.4469 113.945 45.3984 113.945 45.3384V17.5172C113.945 17.4573 113.896 17.4087 113.836 17.4087Z" fill="white"/>
<path d="M156.802 17.4102H152.044C151.976 17.4102 151.921 17.4649 151.921 17.5324V45.333C151.921 45.4005 151.976 45.4553 152.044 45.4553H156.802C156.87 45.4553 156.925 45.4005 156.925 45.333V17.5324C156.925 17.4649 156.87 17.4102 156.802 17.4102Z" fill="white"/>
<path d="M243.768 17.4914C243.768 17.4704 243.776 17.4503 243.791 17.4354C243.806 17.4205 243.826 17.4122 243.847 17.4122H248.509C248.524 17.4122 248.54 17.4152 248.554 17.4211C248.568 17.427 248.581 17.4356 248.592 17.4465C248.603 17.4574 248.611 17.4703 248.617 17.4845C248.623 17.4987 248.626 17.5139 248.626 17.5293V45.2972C248.626 45.3415 248.609 45.384 248.577 45.4153C248.546 45.4466 248.503 45.4642 248.459 45.4642H244.732C244.643 45.4642 244.556 45.4441 244.477 45.4053C244.397 45.3665 244.328 45.3101 244.274 45.2403L229.252 25.8409C229.242 25.8286 229.229 25.8196 229.214 25.8151C229.198 25.8107 229.182 25.8111 229.167 25.8161C229.152 25.8212 229.139 25.8307 229.13 25.8435C229.12 25.8562 229.115 25.8715 229.114 25.8874V45.3006C229.114 45.3403 229.099 45.3785 229.071 45.4066C229.042 45.4347 229.004 45.4504 228.965 45.4504H224.351C224.308 45.4504 224.267 45.4336 224.237 45.4035C224.207 45.3735 224.19 45.3327 224.19 45.2903V17.5482C224.19 17.5094 224.206 17.4722 224.233 17.4447C224.261 17.4173 224.298 17.4019 224.337 17.4019H228.665C228.716 17.4018 228.766 17.4134 228.812 17.4358C228.858 17.4582 228.898 17.4907 228.93 17.531L243.635 36.5223C243.64 36.528 243.645 36.5327 243.652 36.536C243.658 36.5394 243.665 36.5414 243.672 36.5419C243.679 36.5424 243.687 36.5414 243.693 36.5389C243.7 36.5364 243.706 36.5325 243.711 36.5275C243.753 36.4827 243.774 36.4345 243.774 36.3828C243.771 27.9782 243.769 21.6811 243.768 17.4914Z" fill="white"/>
<path d="M257.698 35.6334C257.691 35.6374 257.684 35.6389 257.676 35.6378C257.669 35.6367 257.662 35.6331 257.656 35.6273C257.651 35.6216 257.648 35.6142 257.647 35.6063C257.646 35.5984 257.647 35.5904 257.651 35.5835C262.41 27.7645 270.507 21.9708 280.025 22.4909C284.954 22.7596 289.645 24.7505 293.457 27.9074C296.04 30.0465 298.216 32.5644 299.986 35.4612C299.995 35.4756 300 35.4921 300 35.509C300 35.5259 299.996 35.5426 299.988 35.5574C299.98 35.5722 299.968 35.5845 299.953 35.593C299.938 35.6015 299.922 35.606 299.905 35.6059H294.091C294.004 35.6059 293.917 35.5875 293.838 35.5519C293.758 35.5163 293.687 35.4642 293.629 35.3992C291.708 33.2326 289.747 31.2624 287.385 29.6744C283.94 27.3609 280.297 26.2254 276.456 26.2678C274.46 26.2908 272.367 26.6708 270.177 27.408C265.618 28.9442 261.313 31.9306 257.892 35.4802C257.826 35.549 257.761 35.6001 257.698 35.6334Z" fill="white"/>
</svg>
