<svg width="300" height="77" viewBox="0 0 300 77" fill="none" xmlns="http://www.w3.org/2000/svg">
<path d="M240.399 2.1792L240.049 3.62038H263.86C266.294 3.66221 267.997 5.43131 267.205 8.29181L262.912 23.7473C261.29 28.375 257.021 28.1205 257.021 28.1205C252.641 27.7369 253.877 23.6479 253.877 23.6479L255.823 16.5414C256.436 14.1341 254.735 13.005 253.228 12.9632H237.454L237.054 14.3547H243.793C246.291 14.4024 246.836 16.267 246.389 17.9328C246.389 17.9328 245.534 20.8888 244.542 24.5921C243.587 28.1583 240.221 28.2199 239.75 28.2199H233.211L232.961 29.1145H297.355C297.45 28.7667 297.542 28.3605 297.555 28.3193C297.577 28.2497 297.556 28.2697 297.505 28.2697C297.447 28.2697 295.808 28.1207 295.808 28.1207C289.238 27.6535 289.368 21.7099 289.368 21.7099C289.498 14.4442 285.285 2.84513 268.852 2.1792H240.399ZM274.493 48.6947C273.181 49.6698 271.761 50.586 270.25 51.428C271.76 50.5874 273.182 49.6684 274.493 48.6947Z" fill="white"/>
<path d="M167.411 62.208C163.625 62.208 162.901 65.7046 162.825 65.9431C162.761 66.2095 160.409 74.8208 160.409 74.8208H162.605C162.605 74.8208 164.837 66.5415 164.935 66.2791C165.057 65.8775 165.662 63.999 167.771 63.999H169.59L170.087 62.208H167.411ZM215.752 64.0531L216.24 62.2839H209.347C205.795 62.2839 204.681 64.5342 204.297 65.9038C204.042 66.8778 204.223 67.7346 204.609 68.2435C205.116 68.9034 205.903 69.2294 207.26 69.2294H210.663C212.731 69.2294 212.394 70.774 212.22 71.263C211.717 72.8453 210.032 72.9785 208.269 72.9785H202.351L201.875 74.7338H210.206C212.338 74.7338 214.093 73.4278 214.618 71.1497C214.86 70.0822 214.646 69.1519 214.119 68.5297C213.642 67.9612 212.855 67.5139 211.392 67.5139H208.476C208.189 67.5139 207.219 67.5378 206.883 67.0229C206.669 66.6771 206.669 66.3312 206.815 65.8104C207.254 64.2598 208.716 64.0531 209.351 64.0531H215.752ZM194.089 67.3591C194.644 65.9537 196.136 63.9857 198.707 63.9857H203.116L203.589 62.2086H198.426C194.702 62.2086 192.174 65.3633 191.323 68.508C190.772 70.5178 190.952 72.3028 191.799 73.4081C192.478 74.2887 193.54 74.734 194.965 74.734H200.171L200.652 72.9807H196.175C195.087 72.9807 194.281 72.766 193.821 72.2174C193.278 71.5952 193.242 70.4661 193.544 69.3251L193.58 69.2296H201.393L201.856 67.5141H194.053L194.089 67.3591ZM186.952 62.208H180.383L176.969 74.7334H179.149L182.084 63.9871H186.138C187.028 63.9871 187.609 64.162 187.945 64.6411C188.334 65.1898 188.176 65.9312 187.909 66.9311L185.77 74.7334H187.987L190.263 66.3427C190.634 64.993 190.488 63.9533 189.967 63.2596C189.434 62.5718 188.408 62.208 186.952 62.208ZM174.838 74.7338L178.263 62.2084H176.084L172.664 74.7338H174.838ZM170.535 74.7338L174.89 58.7694H172.709L168.35 74.7338H170.535ZM158.279 74.7338L161.695 62.2084H159.521L156.108 74.7338H158.279ZM152.233 72.9809H147.301C146.385 72.9809 145.794 72.808 145.49 72.4183C145.244 72.0705 145.145 71.6172 145.332 70.9871C145.7 69.5857 146.726 68.9337 148.355 68.9337H153.357L152.233 72.9809ZM156.137 63.1252C155.486 62.2644 154.31 62.2088 153.968 62.2088H145.861L145.382 63.9859H152.784C153.387 63.9859 153.866 64.1608 154.136 64.5008C154.345 64.7572 154.345 65.2045 154.246 65.6438C154.17 66.0235 153.84 67.1704 153.84 67.1704H148.194C145.542 67.1704 143.695 68.5003 143.064 71.0288C142.783 72.1778 143.056 73.0843 143.539 73.7184C144.048 74.3823 145.035 74.7342 146.397 74.7342H153.968L156.386 65.8505C156.704 64.6797 156.622 63.7653 156.137 63.1252ZM83.5901 20.5796L73.8721 55.999H81.3578L91.0738 20.5796H83.5901ZM211.487 50.1925H202.394C201.522 50.1925 200.304 50.113 199.782 49.455C199.459 49.0475 199.401 48.4312 199.631 47.6202C200.268 45.2567 202.171 44.9525 203.944 44.9525H212.937L211.487 50.1925ZM221.433 30.7713C220.119 29.1253 217.777 28.1354 215.161 28.1354H198.97L197.382 33.9399H211.539C213.005 33.9399 214.031 34.2917 214.574 34.9755C215.115 35.6435 215.209 36.6871 214.826 38.0448L214.542 39.1421H202.686C197.324 39.1421 193.137 42.3425 191.718 47.5168C190.999 50.113 191.248 52.2857 192.456 53.7865C193.597 55.2356 195.575 55.999 198.171 55.999H217.393L222.303 38.1044C223.138 35.0392 222.856 32.5762 221.433 30.7713ZM186.38 28.135L178.745 55.9986H186.24L193.876 28.135H186.38ZM176.825 41.3346C175.659 39.8974 173.689 39.1421 171.121 39.1421H163.397C162.483 39.1421 161.219 39.0527 160.682 38.3688C160.362 37.9891 160.305 37.4007 160.524 36.6155C161.161 34.2599 163.11 33.9399 164.935 33.9399H179.817L181.412 28.1354H163.585C158.23 28.1354 154.019 31.3457 152.603 36.5062C151.892 39.0844 152.18 41.2333 153.346 42.748C154.492 44.1872 156.479 44.9525 159.085 44.9525H166.79C167.702 44.9525 168.968 45.018 169.504 45.7039C169.823 46.0975 169.881 46.7177 169.653 47.5148C169.004 49.8784 167.075 50.1925 165.254 50.1925H148.853L147.27 55.999H166.6C171.949 55.999 176.158 52.7866 177.568 47.6202C178.281 45.038 178.021 42.8653 176.825 41.3346ZM143.261 28.135L137.296 49.8859H129.927C128.736 49.8859 127.892 49.5977 127.417 49.0073C126.726 48.1267 126.963 46.7948 127.161 46.0812L132.079 28.135H124.579L119.474 46.771C118.681 49.6454 118.919 51.9135 120.187 53.4939C121.816 55.5612 124.773 55.9986 126.969 55.9986H135.609L134.848 58.7458C134.391 60.4235 132.414 62.2185 129.671 62.2185H115.93L114.32 68.0111H130.326C134.808 68.0111 140.855 64.1726 142.372 58.6464L150.744 28.135H143.261ZM106.878 50.1925H97.775C96.9044 50.1925 95.6884 50.113 95.1613 49.455C94.8498 49.0475 94.7959 48.4312 95.0055 47.6202C95.6645 45.2567 97.5434 44.9525 99.3244 44.9525H108.314L106.878 50.1925ZM116.808 30.7713C115.504 29.1253 113.16 28.1354 110.552 28.1354H94.3486L92.7612 33.9399H106.914C108.39 33.9399 109.41 34.2917 109.957 34.9755C110.506 35.6435 110.582 36.6871 110.217 38.0448L109.903 39.1421H98.0765C92.7153 39.1421 88.5042 42.3425 87.1045 47.5168C86.3797 50.113 86.6393 52.2857 87.8513 53.7865C88.9874 55.2356 90.9582 55.999 93.5619 55.999H112.784L117.688 38.1044C118.529 35.0392 118.233 32.5762 116.808 30.7713ZM63.6298 50.1925H54.5288C53.6582 50.1925 52.4362 50.113 51.9151 49.455C51.5936 49.0475 51.5477 48.4312 51.7693 47.6202C52.4162 45.2567 54.3131 44.9525 56.0822 44.9525H65.0754L63.6298 50.1925ZM73.5715 30.7891C72.2576 29.1253 69.9215 28.1354 67.3118 28.1354H51.1144L49.527 33.9399H63.6837C65.1553 33.9399 66.1637 34.2917 66.7048 34.9755C67.2599 35.6435 67.3337 36.6871 66.9763 38.0448L66.6728 39.1421H54.8183C49.4731 39.1421 45.266 42.3425 43.8623 47.5168C43.1495 50.113 43.3911 52.2857 44.5991 53.7865C45.7413 55.2356 47.724 55.999 50.3038 55.999H69.5361L74.448 38.1044C75.2867 35.0392 74.9911 32.5762 73.5715 30.7891ZM42.5357 30.5743C41.6552 29.4611 39.932 28.1352 36.7433 28.1352H10.0711L2.42969 55.9988H9.91538L15.8796 34.2279H22.5626L16.5964 55.9988H24.1L30.0602 34.2279H32.9295C34.1116 34.2279 34.9562 34.5261 35.4274 35.1324C36.1163 36.011 35.9006 37.3011 35.7109 38.0048L30.7771 55.9988H38.2628L43.566 36.659C44.193 34.4009 43.8216 32.1884 42.5357 30.5743Z" fill="white"/>
<path d="M232.964 29.1143L232.715 29.9094H238.954C239.669 29.9094 243.066 30.0584 242.049 33.6366C241.007 37.3439 240.202 40.2462 240.202 40.2462C239.715 41.9001 238.206 43.7527 235.66 43.8243H228.871L228.472 45.2158L244.296 45.2654C245.813 45.2116 248.151 44.0627 248.888 41.6376L250.835 34.531C250.835 34.531 251.897 30.4381 256.476 30.0584C256.476 30.0584 260.886 29.8079 259.92 34.4317L255.677 49.8871C254.886 52.7576 252.227 54.5327 249.787 54.5586H225.926L225.477 55.9997H253.98C270.792 55.3278 281.405 43.7029 285.328 36.4195C285.328 36.4195 288.459 30.5355 295.312 30.0584L297.009 29.959C297.009 29.959 297.139 29.9251 297.159 29.81C297.206 29.6688 297.275 29.4214 297.358 29.1143H232.964Z" fill="white"/>
</svg>
