<svg width="300" height="193" viewBox="0 0 300 193" fill="none" xmlns="http://www.w3.org/2000/svg">
<path d="M275.434 0L273.414 7.88068L273.133 8.59893L260.688 55.108L258.103 64.7859L251.579 89.203L251.375 89.948L248.041 102.626C248.001 102.688 247.952 102.741 247.894 102.783C247.847 102.819 247.784 102.84 247.704 102.846C247.108 102.884 246.514 102.905 245.921 102.91L240.585 102.9L235.897 102.92L226.631 102.977C226.526 102.87 226.27 102.845 225.862 102.903L220.385 102.907L215.831 102.903L180.31 102.669L175.575 102.646L150.112 102.886C149.896 102.82 149.993 102.711 150.403 102.559C151.31 102.365 152.22 102.168 153.131 101.968C153.99 101.778 156.243 101.047 159.893 99.773C167.76 97.0269 175.347 91.9992 180.888 85.5149C183.079 82.9537 185.968 79.4638 189.555 75.0452L190.585 73.8225L193.474 70.288L195.561 67.7592L198.082 64.7525L205.749 55.4587L205.997 55.138L209.916 50.3909L211.266 48.784L213.681 45.8543L235.275 19.7468C235.438 19.6288 235.51 19.5252 235.492 19.4361L239.568 14.4819C239.755 14.3527 239.947 14.1222 240.143 13.7904L243.638 9.62786C245.073 7.83948 246.541 6.08339 248.041 4.3596C248.755 3.54001 249.598 3.04671 250.573 2.87967L257.962 1.95764C258.154 1.9955 258.322 1.98103 258.467 1.91421L274.681 0H275.434ZM214.547 85.9993C214.563 86.0016 214.58 86.0007 214.595 85.9966C214.611 85.9925 214.626 85.9852 214.639 85.9753C214.652 85.9653 214.663 85.9529 214.672 85.9387C214.68 85.9244 214.685 85.9087 214.687 85.8924C215.021 82.7009 215.194 79.6286 215.205 76.6754C215.212 74.3403 215.122 67.8226 212.032 67.689C207.224 67.4752 213.737 84.0684 214.416 85.8724C214.447 85.9525 214.491 85.9948 214.547 85.9993ZM217.386 86.0394C217.4 86.046 217.417 86.0497 217.433 86.0501C217.449 86.0505 217.465 86.0477 217.481 86.0418C217.496 86.0359 217.51 86.027 217.522 86.0157C217.533 86.0044 217.543 85.9909 217.549 85.9759C218.764 82.996 219.791 80.0863 220.629 77.2467C221.288 75.0018 223.027 68.6979 220.091 67.7057C215.52 66.159 217.145 83.9548 217.295 85.8824C217.302 85.967 217.332 86.0193 217.386 86.0394ZM220.03 86.938C220.056 86.959 220.089 86.969 220.123 86.9659C220.156 86.9627 220.186 86.9468 220.208 86.9213C222.225 84.3891 224.041 81.8691 225.655 79.3614C226.929 77.377 230.393 71.7813 227.835 69.9907C223.859 67.2046 220.388 84.8568 219.987 86.761C219.969 86.8434 219.984 86.9024 220.03 86.938ZM211.888 86.8746C211.905 86.8721 211.92 86.8665 211.935 86.8579C211.949 86.8493 211.961 86.838 211.971 86.8246C211.98 86.8112 211.987 86.796 211.991 86.7799C211.994 86.7638 211.995 86.7472 211.992 86.7309C211.408 83.5595 210.701 80.5473 209.872 77.6944C209.213 75.4394 207.274 69.1756 204.258 69.9239C199.56 71.0831 210.554 85.241 211.725 86.791C211.776 86.8579 211.83 86.8857 211.888 86.8746ZM222.405 88.3946C222.414 88.4083 222.425 88.4201 222.439 88.4293C222.453 88.4384 222.468 88.4448 222.484 88.4479C222.501 88.451 222.517 88.4508 222.533 88.4474C222.55 88.444 222.565 88.4374 222.578 88.428C225.218 86.5661 227.66 84.6608 229.905 82.7121C231.677 81.1687 236.555 76.779 234.609 74.3537C231.583 70.5787 223.331 86.5004 222.415 88.2108C222.374 88.2866 222.371 88.3478 222.405 88.3946ZM209.474 88.291C209.489 88.2839 209.502 88.2739 209.513 88.2616C209.524 88.2493 209.532 88.235 209.538 88.2194C209.543 88.2039 209.545 88.1874 209.544 88.171C209.543 88.1546 209.538 88.1386 209.531 88.124C208.084 85.2644 206.565 82.5918 204.973 80.1063C203.713 78.1453 200.105 72.7201 197.44 74.2768C193.287 76.6988 207.745 87.1084 209.294 88.2543C209.363 88.3055 209.423 88.3177 209.474 88.291ZM224.18 90.5326C224.191 90.5645 224.214 90.5908 224.244 90.6058C224.274 90.6209 224.309 90.6234 224.341 90.6128C227.408 89.5638 230.298 88.4168 233.011 87.1719C235.154 86.1864 241.093 83.3334 239.906 80.4471C238.057 75.9572 225.608 88.9692 224.244 90.3556C224.183 90.4179 224.162 90.4769 224.18 90.5326ZM207.732 90.5092C207.756 90.4874 207.771 90.457 207.773 90.4244C207.775 90.3919 207.764 90.3599 207.742 90.3355C205.537 87.9748 203.316 85.8167 201.078 83.8613C199.306 82.3145 194.287 78.0852 192.147 80.3402C188.816 83.8512 205.729 89.8511 207.551 90.5259C207.632 90.5549 207.692 90.5493 207.732 90.5092ZM225.307 93.0782C225.309 93.1113 225.323 93.1424 225.348 93.1649C225.372 93.1873 225.404 93.1994 225.437 93.1985C228.681 93.0493 231.781 92.7564 234.736 92.3199C237.074 91.9691 243.581 90.8867 243.246 87.7832C242.728 82.9492 227.119 91.9725 225.417 92.9279C225.342 92.9702 225.305 93.0203 225.307 93.0782ZM206.622 93.0248C206.639 92.9963 206.645 92.9622 206.638 92.9297C206.63 92.8972 206.61 92.8689 206.582 92.8511C203.791 91.2097 201.04 89.7665 198.329 88.5215C196.189 87.5394 190.16 84.8969 188.743 87.6763C186.539 91.9958 204.509 92.9613 206.451 93.0916C206.536 93.096 206.593 93.0738 206.622 93.0248ZM220.759 95.5871C220.759 94.2253 220.218 92.9193 219.254 91.9563C218.29 90.9934 216.983 90.4524 215.62 90.4524C214.257 90.4524 212.95 90.9934 211.986 91.9563C211.022 92.9193 210.481 94.2253 210.481 95.5871C210.481 96.9489 211.022 98.2549 211.986 99.2178C212.95 100.181 214.257 100.722 215.62 100.722C216.983 100.722 218.29 100.181 219.254 99.2178C220.218 98.2549 220.759 96.9489 220.759 95.5871ZM206.074 95.7775C206.078 95.7617 206.079 95.7451 206.078 95.7288C206.076 95.7125 206.07 95.6967 206.062 95.6824C206.054 95.6681 206.043 95.6556 206.03 95.6455C206.017 95.6354 206.002 95.6281 205.987 95.6238C202.87 94.8332 199.85 94.2196 196.925 93.7831C194.608 93.4424 188.131 92.5938 187.552 95.6338C186.653 100.361 204.041 96.302 205.93 95.8911C206.012 95.871 206.06 95.8332 206.074 95.7775ZM225.852 95.7708C225.847 95.7866 225.846 95.8031 225.848 95.8195C225.85 95.8358 225.855 95.8516 225.863 95.8659C225.871 95.8802 225.882 95.8928 225.895 95.9028C225.908 95.9129 225.923 95.9202 225.939 95.9245C229.071 96.6951 232.107 97.2886 235.047 97.7051C237.371 98.0291 243.875 98.8342 244.433 95.7808C245.303 91.0304 227.888 95.2296 225.996 95.6606C225.913 95.6784 225.865 95.7151 225.852 95.7708Z" fill="white"/>
<path d="M214.552 85.9993C214.497 85.9948 214.453 85.9525 214.422 85.8724C213.743 84.0684 207.23 67.4752 212.038 67.689C215.128 67.8226 215.218 74.3403 215.211 76.6754C215.2 79.6286 215.027 82.7009 214.693 85.8924C214.691 85.9087 214.686 85.9244 214.677 85.9387C214.669 85.9529 214.658 85.9653 214.645 85.9753C214.632 85.9852 214.617 85.9925 214.601 85.9966C214.585 86.0007 214.569 86.0016 214.552 85.9993Z" fill="white"/>
<path d="M217.391 86.0394C217.337 86.0193 217.307 85.967 217.301 85.8824C217.15 83.9548 215.525 66.1589 220.096 67.7057C223.032 68.6979 221.293 75.0017 220.634 77.2467C219.796 80.0863 218.77 82.996 217.555 85.9759C217.548 85.9909 217.539 86.0044 217.527 86.0157C217.515 86.027 217.501 86.0358 217.486 86.0417C217.471 86.0476 217.455 86.0505 217.438 86.0501C217.422 86.0497 217.406 86.046 217.391 86.0394Z" fill="white"/>
<path d="M220.035 86.938C219.988 86.9024 219.974 86.8434 219.992 86.761C220.393 84.8568 223.864 67.2046 227.84 69.9907C230.398 71.7813 226.933 77.377 225.659 79.3614C224.046 81.8691 222.23 84.3891 220.212 86.9213C220.191 86.9468 220.16 86.9627 220.127 86.9659C220.094 86.969 220.061 86.959 220.035 86.938Z" fill="white"/>
<path d="M211.894 86.8746C211.836 86.8857 211.781 86.8579 211.73 86.791C210.559 85.241 199.565 71.0831 204.263 69.9239C207.279 69.1756 209.219 75.4394 209.877 77.6944C210.707 80.5473 211.413 83.5595 211.997 86.7309C212 86.7472 212 86.7638 211.996 86.7799C211.992 86.796 211.985 86.8112 211.976 86.8246C211.966 86.838 211.954 86.8493 211.94 86.8579C211.926 86.8665 211.91 86.8721 211.894 86.8746Z" fill="white"/>
<path d="M222.406 88.3946C222.372 88.3478 222.376 88.2866 222.416 88.2109C223.332 86.5004 231.584 70.5787 234.61 74.3537C236.557 76.779 231.678 81.1687 229.906 82.7121C227.661 84.6608 225.219 86.5661 222.579 88.428C222.566 88.4374 222.551 88.444 222.535 88.4474C222.518 88.4509 222.502 88.451 222.485 88.4479C222.469 88.4448 222.454 88.4385 222.44 88.4293C222.426 88.4202 222.415 88.4084 222.406 88.3946Z" fill="white"/>
<path d="M209.476 88.291C209.425 88.3177 209.365 88.3055 209.296 88.2542C207.747 87.1084 193.289 76.6988 197.442 74.2768C200.107 72.72 203.715 78.1453 204.975 80.1063C206.567 82.5918 208.086 85.2643 209.533 88.124C209.54 88.1386 209.545 88.1546 209.546 88.171C209.547 88.1874 209.545 88.2038 209.54 88.2194C209.534 88.2349 209.526 88.2493 209.515 88.2616C209.504 88.2739 209.491 88.2839 209.476 88.291Z" fill="white"/>
<path d="M224.186 90.5326C224.168 90.477 224.189 90.4179 224.249 90.3556C225.614 88.9692 238.062 75.9572 239.912 80.4471C241.099 83.3335 235.16 86.1864 233.017 87.1719C230.304 88.4169 227.414 89.5638 224.346 90.6128C224.314 90.6234 224.28 90.6209 224.249 90.6059C224.219 90.5908 224.196 90.5645 224.186 90.5326Z" fill="white"/>
<path d="M207.737 90.5092C207.697 90.5493 207.637 90.5549 207.557 90.5259C205.734 89.8511 188.821 83.8512 192.152 80.3402C194.292 78.0852 199.311 82.3145 201.083 83.8612C203.321 85.8167 205.543 87.9747 207.747 90.3355C207.769 90.3599 207.78 90.3919 207.778 90.4244C207.776 90.4569 207.761 90.4874 207.737 90.5092Z" fill="white"/>
<path d="M225.313 93.0782C225.31 93.0203 225.347 92.9702 225.423 92.9279C227.125 91.9724 242.734 82.9492 243.252 87.7832C243.586 90.8867 237.079 91.9691 234.742 92.3199C231.786 92.7564 228.686 93.0493 225.443 93.1985C225.41 93.1994 225.378 93.1873 225.353 93.1649C225.329 93.1424 225.314 93.1113 225.313 93.0782Z" fill="white"/>
<path d="M206.629 93.0248C206.6 93.0738 206.543 93.0961 206.458 93.0916C204.515 92.9613 186.546 91.9959 188.749 87.6764C190.167 84.8969 196.196 87.5394 198.336 88.5216C201.047 89.7665 203.798 91.2097 206.589 92.8511C206.617 92.869 206.637 92.8972 206.644 92.9297C206.652 92.9622 206.646 92.9964 206.629 93.0248Z" fill="white"/>
<path d="M215.624 100.722C218.462 100.722 220.763 98.4229 220.763 95.5871C220.763 92.7513 218.462 90.4525 215.624 90.4525C212.785 90.4525 210.484 92.7513 210.484 95.5871C210.484 98.4229 212.785 100.722 215.624 100.722Z" fill="white"/>
<path d="M111.697 105.232L111.677 107.052L111.653 128.88L111.71 130.18C111.694 132.391 111.748 134.503 111.871 136.514C111.929 137.46 112.449 137.974 113.432 138.054C114.44 138.134 115.442 138.206 116.438 138.271C116.489 138.275 116.537 138.297 116.572 138.333C116.607 138.368 116.627 138.415 116.629 138.465L116.702 140.493C116.725 140.615 116.689 140.716 116.595 140.797C110.572 140.511 104.547 140.518 98.5188 140.817C98.5063 140.817 98.4937 140.815 98.482 140.81C98.4702 140.806 98.4595 140.799 98.4505 140.79C98.4414 140.782 98.4342 140.771 98.4293 140.76C98.4244 140.748 98.4219 140.736 98.4219 140.723V138.401C98.4219 138.37 98.4341 138.34 98.4559 138.317C98.4778 138.295 98.5076 138.282 98.5389 138.281C99.6156 138.261 100.72 138.193 101.853 138.077C102.622 137.999 103.057 137.636 103.16 136.988C103.264 136.35 103.417 135.194 103.438 134.172C103.609 125.21 103.635 115.675 103.514 105.566C103.488 103.392 103.373 101.4 103.17 99.5892C103.152 99.4402 103.1 99.2974 103.016 99.1725C102.932 99.0477 102.82 98.9443 102.689 98.8709C101.782 98.3698 99.3615 98.2162 98.8499 98.2796C98.8131 98.2819 98.7762 98.2766 98.7416 98.264C98.7069 98.2514 98.6753 98.2318 98.6486 98.2064C98.6219 98.181 98.6008 98.1503 98.5865 98.1164C98.5722 98.0824 98.5651 98.0459 98.5657 98.009L98.5924 96.1951C98.5944 96.1075 98.6282 96.0238 98.6874 95.9597C98.7465 95.8957 98.827 95.8558 98.9134 95.8476C102.968 95.4801 106.938 94.6583 110.824 93.3822C111.423 93.1851 112.115 93.272 112.078 94.0403C111.864 98.6126 111.737 102.343 111.697 105.232Z" fill="white"/>
<path d="M206.078 95.7775C206.065 95.8332 206.017 95.871 205.935 95.8911C204.045 96.302 186.658 100.361 187.557 95.6338C188.136 92.5938 194.613 93.4423 196.93 93.7831C199.854 94.2196 202.875 94.8332 205.991 95.6238C206.007 95.628 206.022 95.6354 206.035 95.6455C206.048 95.6555 206.059 95.6681 206.067 95.6824C206.075 95.6967 206.08 95.7125 206.082 95.7288C206.084 95.7451 206.083 95.7617 206.078 95.7775Z" fill="white"/>
<path d="M225.856 95.7708C225.87 95.7151 225.918 95.6784 226 95.6606C227.893 95.2296 245.307 91.0304 244.438 95.7808C243.879 98.8342 237.376 98.0291 235.052 97.7051C232.112 97.2886 229.075 96.6951 225.943 95.9245C225.927 95.9202 225.913 95.9129 225.9 95.9028C225.887 95.8927 225.876 95.8802 225.868 95.8659C225.859 95.8516 225.854 95.8358 225.852 95.8195C225.85 95.8031 225.852 95.7866 225.856 95.7708Z" fill="white"/>
<path d="M61.3417 95.6639C61.5535 96.4679 61.6081 97.352 61.5056 98.3164C61.5013 98.3636 61.4786 98.4079 61.442 98.44C61.3774 98.5001 61.2994 98.5324 61.208 98.5369C59.8905 98.4322 58.611 98.5758 57.3693 98.9678C57.1589 99.0348 56.966 99.1471 56.8042 99.2966C56.6424 99.4461 56.5157 99.6293 56.433 99.8331C56.1655 100.497 56.0273 101.183 56.0184 101.891C55.8378 115.733 55.7988 125.394 55.9014 130.875C55.9526 133.636 56.0987 135.535 56.3394 136.571C56.5178 137.343 57.0305 137.765 57.8776 137.837C58.9587 137.928 60.1302 137.987 61.3919 138.014C61.5457 138.6 61.5836 139.273 61.5056 140.035C61.5345 140.224 61.5201 140.416 61.4621 140.609C61.4476 140.656 61.4183 140.697 61.3785 140.726C61.3387 140.755 61.2906 140.771 61.2414 140.77L56.4297 140.7L55.2493 140.683L49.2105 140.646L46.1843 140.726L41.3593 140.773C41.304 140.774 41.2502 140.756 41.2074 140.722C41.1646 140.688 41.1354 140.64 41.1252 140.586C41.1074 140.501 41.1063 140.398 41.1219 140.275C41.1174 139.61 41.1297 138.929 41.1586 138.234C41.1609 138.163 41.1798 138.113 41.2155 138.084C41.2534 138.051 41.3046 138.029 41.3693 138.02L45.4788 137.696C45.5909 137.688 45.6955 137.639 45.7731 137.559C46.2055 137.118 46.4429 136.669 46.4853 136.21C46.6525 134.368 46.7338 132.199 46.7294 129.702C46.716 119.526 46.7283 111.322 46.7662 105.088C46.7651 105.065 46.7565 105.042 46.7416 105.024C46.7267 105.007 46.7063 104.994 46.6836 104.989C46.6609 104.983 46.637 104.986 46.6157 104.995C46.5944 105.005 46.5768 105.021 46.5655 105.041C44.2717 109.636 41.94 114.356 39.5703 119.202C36.0661 126.367 32.7312 133.511 29.5657 140.633C29.4231 141.076 29.1823 141.305 28.8435 141.321C28.119 141.352 27.5896 141.356 27.2552 141.331C27.0991 141.318 26.9977 141.251 26.9509 141.131C24.637 135.984 22.2573 130.864 19.8119 125.77C16.6197 119.12 13.2369 112.179 9.66354 104.948C9.65449 104.931 9.63998 104.917 9.6223 104.909C9.60461 104.901 9.58478 104.899 9.56595 104.904C9.54711 104.908 9.53036 104.919 9.51836 104.934C9.50635 104.95 9.49978 104.968 9.49969 104.988C9.53982 109.736 9.55765 112.378 9.55319 112.915C9.48186 120.383 9.56099 127.475 9.7906 134.192C9.85748 136.183 9.72372 137.553 11.8972 137.767C13.1166 137.887 14.152 137.968 15.0036 138.01C15.0527 138.013 15.099 138.034 15.1331 138.069C15.1673 138.105 15.1867 138.152 15.1875 138.201L15.241 140.566C15.2164 140.686 15.154 140.756 15.0537 140.777C10.0291 140.518 5.01122 140.517 0 140.773V138.097L1.58495 137.917C2.89237 137.853 5.16615 137.894 5.2999 136.116C5.60976 132.007 5.7736 127.202 5.79143 121.701C5.81595 113.525 5.73347 106.894 5.54399 101.807C5.52839 101.389 5.42808 100.741 5.24305 99.8631C5.19971 99.662 5.09585 99.4788 4.94531 99.338C4.79477 99.1971 4.6047 99.1053 4.40042 99.0747L0.993104 98.5803L0 98.4901V95.7574C2.31836 95.8265 4.63671 95.8922 6.95507 95.9545C9.93438 96.0347 12.6261 95.9111 15.582 95.7741C15.6536 95.7702 15.7246 95.7883 15.7856 95.8259C15.8466 95.8636 15.8945 95.9189 15.9231 95.9846C20.5776 106.628 25.9344 117.298 31.0303 127.818C31.0421 127.843 31.0607 127.864 31.0838 127.879C31.107 127.894 31.1338 127.902 31.1614 127.902C31.1889 127.902 31.2159 127.895 31.2395 127.881C31.263 127.866 31.282 127.846 31.2945 127.821C32.4915 125.57 33.9115 122.729 35.5545 119.299C40.8153 108.324 43.9139 101.786 44.8502 99.6861C45.2737 98.7395 45.7719 97.5146 46.3448 96.0113C46.3704 95.947 46.4154 95.8922 46.4735 95.8545C46.5316 95.8168 46.6 95.798 46.6692 95.8008C51.6247 96.0258 56.5155 95.9801 61.3417 95.6639Z" fill="white"/>
<path d="M217.681 140.683L215.742 140.65L206.47 140.797C206.448 140.797 206.428 140.788 206.413 140.773C206.398 140.758 206.39 140.738 206.39 140.716V138.348C206.389 138.321 206.4 138.295 206.418 138.276C206.436 138.256 206.46 138.245 206.486 138.244C207.507 138.189 208.59 138.073 209.733 137.897C210.288 137.81 210.691 137.58 210.94 137.205C210.998 137.122 211.034 137.028 211.047 136.931C211.275 135.47 211.393 134.397 211.402 133.711C211.499 126.549 211.602 120.315 211.221 114.499C211.179 113.857 210.861 113.485 210.268 113.383C209.029 113.167 207.768 113.077 206.486 113.112C206.473 113.113 206.46 113.11 206.447 113.106C206.435 113.101 206.423 113.094 206.413 113.084C206.404 113.075 206.396 113.064 206.391 113.051C206.386 113.039 206.383 113.026 206.383 113.012V110.523C206.383 110.496 206.393 110.469 206.412 110.449C206.43 110.428 206.456 110.416 206.483 110.413C210.84 109.989 214.853 109.274 218.892 107.55C219.264 107.39 219.565 107.487 219.795 107.841C219.855 107.93 219.885 108.036 219.878 108.145C219.613 113.196 219.516 118.56 219.587 124.237C219.634 128.065 219.407 132.321 219.735 136.407C219.808 137.306 220.233 137.633 221.136 137.77C222.335 137.955 223.431 138.064 224.423 138.097C224.457 138.098 224.489 138.112 224.513 138.137C224.536 138.161 224.55 138.194 224.55 138.228V140.646C224.55 140.664 224.546 140.682 224.539 140.698C224.532 140.715 224.522 140.729 224.509 140.742C224.496 140.754 224.481 140.764 224.465 140.771C224.448 140.777 224.43 140.78 224.413 140.78L217.681 140.683Z" fill="white"/>
<path d="M299.999 140.67L296.117 140.66L290.743 140.636L288.647 140.736L287.376 140.753C287.283 140.754 287.191 140.735 287.105 140.698C287.02 140.662 286.943 140.607 286.88 140.539C286.816 140.471 286.768 140.39 286.738 140.302C286.708 140.214 286.696 140.121 286.704 140.028C287.139 134.841 287.292 129.311 287.165 123.438C287.088 119.82 286.831 116.202 282.404 115.581C280.23 115.274 278.381 115.826 276.856 117.238C275.589 118.411 275.656 119.349 275.633 121.307C275.557 127.412 275.621 132.416 275.827 136.32C275.856 136.852 276.082 137.294 276.505 137.646C276.663 137.775 276.853 137.857 277.054 137.883L280.498 138.328C280.538 138.333 280.574 138.352 280.601 138.381C280.627 138.411 280.642 138.449 280.642 138.488V140.696C280.642 140.719 280.632 140.741 280.616 140.758C280.6 140.774 280.578 140.783 280.555 140.783L270.777 140.67L268.514 140.713L263.103 140.77C263.058 140.77 263.015 140.752 262.983 140.721C262.95 140.69 262.931 140.648 262.93 140.603L262.859 138.338L263.665 138.261C265.066 138.187 267.196 138.418 267.31 136.45C267.571 131.894 267.655 127.864 267.564 124.36C267.46 120.305 267.544 118.581 267.223 116.099C267.21 115.998 267.176 115.901 267.123 115.815C266.944 115.523 266.597 115.358 266.079 115.32C264.274 115.187 263.285 115.113 263.114 115.1C263.053 115.094 262.997 115.066 262.956 115.022C262.915 114.977 262.893 114.919 262.893 114.859V112.862C262.893 112.798 262.915 112.736 262.956 112.687C262.997 112.637 263.054 112.604 263.117 112.591C268.026 111.669 270.878 111.325 274.426 109.708C274.68 109.592 275.021 109.645 275.449 109.865C275.497 109.889 275.537 109.926 275.566 109.971C275.594 110.017 275.609 110.069 275.609 110.122V114.98C275.609 115 275.615 115.019 275.625 115.036C275.636 115.053 275.651 115.066 275.669 115.075C275.687 115.083 275.707 115.086 275.726 115.083C275.746 115.081 275.765 115.073 275.78 115.06C276.408 114.512 277.349 113.733 278.602 112.721C280.285 111.363 281.256 110.616 281.514 110.48C283.571 109.411 286.654 109.608 288.797 110.019C292.422 110.717 295.257 114.044 295.428 117.669C295.519 119.609 295.535 122.117 295.475 125.192C295.428 127.602 295.445 130.471 295.525 133.798C295.558 135.257 295.692 136.485 295.926 137.483C295.966 137.653 296.059 137.807 296.192 137.921C296.325 138.035 296.491 138.104 296.665 138.117L299.818 138.358C299.861 138.36 299.902 138.379 299.931 138.411C299.961 138.443 299.978 138.484 299.979 138.528L299.999 140.67Z" fill="white"/>
<path d="M96.6351 140.402C96.6975 140.607 96.6574 140.744 96.5147 140.813L90.2017 140.67L87.1053 140.73L84.972 140.777C84.9089 140.778 84.8463 140.766 84.7882 140.741C84.7301 140.717 84.6777 140.681 84.6346 140.635C84.5914 140.589 84.5584 140.535 84.5376 140.476C84.5168 140.417 84.5087 140.354 84.5139 140.292L84.8048 136.477C84.8068 136.453 84.802 136.428 84.7909 136.407C84.7798 136.385 84.7628 136.367 84.7419 136.355C84.721 136.342 84.6971 136.336 84.6727 136.336C84.6484 136.336 84.6246 136.344 84.6042 136.357C82.4686 137.684 80.0421 139.012 77.3248 140.339C75.8267 141.072 74.6129 141.484 73.6834 141.575C69.9016 141.952 66.2568 140.783 65.1734 136.845C64.1904 133.26 64.7555 128.8 67.9187 126.629C69.6474 125.436 72.4662 124.778 75.0343 124.25C77.8297 123.676 80.9951 123.137 84.5306 122.633C84.6044 122.623 84.6723 122.587 84.7224 122.532C84.7725 122.476 84.8017 122.404 84.8048 122.329C84.8628 120.844 84.6075 119.424 84.0391 118.07C82.628 114.719 78.5151 114.211 75.4422 115.133C74.6096 115.381 74.2652 115.621 73.9074 116.466C73.6065 117.177 73.3133 117.888 73.028 118.601C72.9923 118.906 72.8664 119.014 72.6501 118.925L70.8211 118.551C70.7594 118.539 70.7043 118.505 70.6662 118.455C70.628 118.405 70.6093 118.343 70.6138 118.28L70.898 114.565C70.9043 114.485 70.9286 114.407 70.9691 114.337C71.0096 114.267 71.0653 114.207 71.1321 114.161C72.7482 113.061 74.3934 112.061 76.0675 111.161C77.4585 110.413 78.4382 109.979 79.9229 109.825C83.6646 109.444 88.8708 110.056 91.1981 113.513C92.5122 115.467 92.8098 117.405 92.7797 119.764C92.7128 124.978 92.3785 130.714 92.7129 136.133C92.763 136.948 92.8165 137.934 94.0403 138.101C94.8741 138.216 95.6554 138.3 96.3843 138.351C96.4376 138.354 96.4877 138.378 96.5248 138.416C96.5619 138.454 96.5834 138.505 96.5849 138.558L96.6351 140.402ZM84.5841 125.319C82.56 125.602 80.3108 125.954 77.8364 126.375C77.2679 126.471 76.5323 126.734 75.6295 127.167C73.8539 128.012 72.8675 129.361 72.8073 131.362C72.7438 133.547 73.5597 135.622 75.8368 135.976C78.4048 136.373 80.8558 135.709 83.7615 134.463C84.1516 134.296 84.4191 134.094 84.564 133.858C84.6166 133.77 84.6455 133.671 84.6476 133.571L84.8148 125.523C84.8156 125.494 84.81 125.465 84.7984 125.438C84.7868 125.412 84.7694 125.388 84.7474 125.369C84.7255 125.349 84.6995 125.335 84.6713 125.326C84.6431 125.318 84.6134 125.315 84.5841 125.319Z" fill="white"/>
<path d="M150.98 138.288C151.205 138.285 151.403 138.32 151.575 138.391C151.625 138.412 151.669 138.444 151.704 138.485C151.74 138.525 151.765 138.573 151.779 138.625C151.839 138.843 151.856 139.076 151.829 139.323C151.891 139.784 151.862 140.212 151.742 140.606C151.727 140.652 151.699 140.692 151.659 140.721C151.62 140.749 151.573 140.764 151.525 140.763L147.897 140.693L146.445 140.67L140.035 140.773C139.861 140.682 139.763 140.533 139.741 140.326L139.989 136.494C139.99 136.465 139.983 136.437 139.97 136.411C139.956 136.386 139.936 136.365 139.911 136.351C139.886 136.336 139.858 136.329 139.829 136.329C139.8 136.33 139.772 136.338 139.748 136.353C137.492 137.779 135.001 139.142 132.274 140.442C130.556 141.26 129.152 141.679 128.065 141.699C125.082 141.752 121.972 140.787 120.742 137.87C118.986 133.704 119.762 127.741 124.56 125.857C126.27 125.184 127.944 124.689 129.583 124.37C133.223 123.662 136.654 123.061 139.875 122.566C139.897 122.563 139.917 122.552 139.932 122.536C139.947 122.519 139.956 122.498 139.958 122.476C140.196 119.236 138.995 115.855 135.521 114.993C133.913 114.592 130.001 114.392 129.168 116.273C128.727 117.268 128.387 118.109 128.148 118.795C128.124 118.862 128.076 118.918 128.013 118.951C127.949 118.984 127.876 118.991 127.807 118.972L126.062 118.471C126.012 118.456 125.969 118.426 125.939 118.385C125.909 118.344 125.893 118.294 125.894 118.244L125.998 114.819C126.054 114.456 126.22 114.196 126.496 114.038C127.263 113.51 128.435 112.783 130.011 111.856C131.619 110.911 133.257 109.979 135.003 109.832C140.413 109.377 146.88 110.664 147.793 117.171C147.92 118.087 147.973 119.09 147.953 120.181C147.829 127.079 147.764 130.586 147.759 130.704C147.688 132.357 147.774 134.515 148.017 137.179C148.035 137.386 148.124 137.581 148.268 137.731C148.412 137.881 148.603 137.977 148.809 138.004L150.98 138.288ZM139.764 125.309C137.74 125.594 135.491 125.947 133.017 126.368C132.45 126.464 131.716 126.728 130.813 127.16C129.038 128.005 128.051 129.355 127.991 131.356C127.927 133.537 128.743 135.612 131.02 135.966C133.589 136.363 136.039 135.699 138.942 134.453C139.332 134.286 139.6 134.084 139.744 133.848C139.797 133.76 139.826 133.661 139.828 133.561L139.995 125.513C139.996 125.484 139.99 125.455 139.979 125.428C139.967 125.402 139.95 125.378 139.928 125.359C139.906 125.339 139.88 125.325 139.852 125.316C139.824 125.308 139.794 125.305 139.764 125.309Z" fill="white"/>
<path d="M259.662 140.68L259.301 140.793C255.478 140.599 251.67 140.601 247.876 140.797C247.713 140.736 247.607 140.653 247.558 140.546L247.842 136.434C247.843 136.412 247.838 136.39 247.827 136.371C247.817 136.352 247.801 136.336 247.782 136.325C247.763 136.314 247.742 136.308 247.72 136.309C247.698 136.309 247.677 136.315 247.658 136.327C244.943 138.022 242.123 139.536 239.198 140.87C236.65 142.033 232.979 141.989 230.709 140.409C228.321 138.745 227.689 136.006 227.773 133.126C227.889 129.238 229.744 126.688 233.34 125.476C237.493 124.076 241.93 123.462 247.618 122.583C247.668 122.575 247.714 122.552 247.75 122.517C247.785 122.482 247.81 122.436 247.819 122.386C247.888 122.003 247.866 121.623 247.752 121.247C247.772 120.904 247.752 120.653 247.692 120.495C247.247 115.387 242.776 113.827 238.386 115.143C237.794 115.32 237.222 115.604 236.982 116.293C236.841 116.702 236.51 117.524 235.988 118.758C235.951 118.846 235.883 118.917 235.798 118.958C235.712 118.999 235.615 119.008 235.524 118.982L233.832 118.494C233.773 118.477 233.722 118.441 233.687 118.39C233.653 118.34 233.636 118.278 233.641 118.217L233.919 114.569C233.925 114.49 233.949 114.413 233.988 114.345C234.027 114.276 234.081 114.218 234.146 114.175C236.034 112.878 237.978 111.725 239.978 110.714C242.215 109.585 244.615 109.558 247.15 109.875C250.975 110.35 254.443 112.224 255.392 116.002C255.733 117.358 255.876 118.891 255.82 120.599C255.718 123.772 255.635 127.141 255.573 130.704C255.542 132.45 255.555 133.982 255.613 135.298C255.644 136.015 255.776 136.753 256.008 137.513C256.059 137.679 256.159 137.827 256.295 137.936C256.431 138.045 256.596 138.11 256.77 138.124L259.418 138.324C259.479 138.329 259.536 138.356 259.578 138.4C259.619 138.444 259.642 138.502 259.642 138.562L259.662 140.68ZM247.611 125.323C245.587 125.603 243.338 125.952 240.864 126.368C240.295 126.464 239.56 126.727 238.657 127.157C236.881 128.002 235.895 129.348 235.831 131.349C235.764 133.534 236.577 135.608 238.854 135.963C241.419 136.363 243.87 135.702 246.775 134.459C247.166 134.292 247.434 134.092 247.581 133.858C247.634 133.77 247.663 133.671 247.665 133.571L247.839 125.526C247.84 125.498 247.834 125.469 247.823 125.443C247.811 125.416 247.794 125.393 247.772 125.373C247.751 125.354 247.725 125.339 247.698 125.331C247.67 125.322 247.64 125.319 247.611 125.323Z" fill="white"/>
<path d="M189.716 129.996L189.947 130.43C189.959 130.452 189.977 130.469 189.998 130.481C190.02 130.492 190.044 130.497 190.069 130.495C190.093 130.493 190.116 130.484 190.135 130.469C190.155 130.454 190.169 130.433 190.177 130.41C192.021 125.052 193.08 121.982 193.354 121.2C193.98 119.407 194.577 117.144 195.143 114.412C195.168 114.293 195.166 114.17 195.14 114.051C195.113 113.932 195.062 113.821 194.989 113.724C194.916 113.626 194.823 113.546 194.716 113.487C194.61 113.428 194.492 113.393 194.371 113.383L190.565 113.069C190.507 113.029 190.472 112.973 190.458 112.902L190.485 110.727C190.485 110.698 190.497 110.67 190.518 110.649C190.54 110.628 190.569 110.617 190.599 110.617H203.793C203.87 110.617 203.943 110.647 203.997 110.701C204.051 110.755 204.081 110.828 204.081 110.904V112.762C204.081 112.838 204.052 112.912 203.999 112.968C203.946 113.024 203.874 113.058 203.797 113.062C201.917 113.176 200.797 112.882 199.895 114.933C199.48 115.871 198.872 117.432 198.072 119.617C195.332 127.104 192.916 134.204 190.823 140.917C190.808 140.962 190.78 141.001 190.742 141.028C190.704 141.056 190.659 141.071 190.612 141.07H185.821C185.727 141.071 185.635 141.044 185.557 140.993C185.479 140.941 185.417 140.869 185.379 140.783L176.628 121.043C176.618 121.02 176.602 121.001 176.581 120.987C176.56 120.973 176.535 120.965 176.51 120.964C176.485 120.964 176.46 120.97 176.439 120.983C176.417 120.995 176.399 121.014 176.388 121.036C173.133 127.406 170.127 134.013 167.37 140.857L167.179 141.074L162.076 141.02C162.028 141.019 161.982 141.003 161.945 140.974C161.907 140.945 161.881 140.905 161.869 140.86C159.629 132.493 157.214 124.11 154.626 115.711C154.479 115.233 154.189 114.59 153.757 113.784C153.707 113.688 153.629 113.609 153.533 113.557C152.5 113.005 150.928 113.066 149.758 113.072L149.778 110.49C155.841 110.706 161.883 110.71 167.905 110.503C167.918 110.503 167.931 110.505 167.944 110.51C167.957 110.515 167.968 110.522 167.978 110.531C167.987 110.541 167.995 110.552 168 110.564C168.006 110.577 168.008 110.59 168.008 110.603V112.922C168.008 112.94 168.001 112.957 167.989 112.97C167.976 112.983 167.959 112.991 167.941 112.992L164.196 113.243C164.008 113.255 163.83 113.328 163.687 113.451C163.545 113.574 163.447 113.74 163.407 113.924C163.311 114.354 163.366 114.926 163.571 115.641C163.754 116.278 165.088 121.19 167.574 130.377C167.579 130.397 167.588 130.415 167.602 130.431C167.616 130.446 167.633 130.458 167.652 130.466C167.672 130.473 167.692 130.476 167.713 130.474C167.734 130.472 167.753 130.465 167.771 130.454C167.838 130.409 167.913 130.324 167.998 130.197C168.68 129.577 169.251 128.664 169.71 127.457C170.452 125.503 171.773 123.278 172.629 121.27C173.22 119.876 174.873 116.255 177.588 110.406C177.617 110.343 177.664 110.29 177.722 110.253C177.781 110.216 177.849 110.196 177.919 110.196H180.216C180.312 110.196 180.406 110.224 180.485 110.278C180.564 110.332 180.626 110.408 180.661 110.497C180.735 110.677 181.221 111.78 182.119 113.807C185.868 122.248 187.976 127.041 188.442 128.185C188.83 129.136 189.255 129.74 189.716 129.996Z" fill="white"/>
<path d="M77.6435 160.44L77.5933 165.27C77.3994 171.455 77.376 177.641 77.5231 183.828L77.5699 185.325C77.4652 187.483 77.5354 189.126 77.7806 190.255C77.8764 190.694 78.2844 190.934 79.0044 190.974C79.7579 191.018 80.4556 191.053 81.0976 191.077C81.1532 191.079 81.206 191.103 81.2447 191.143C81.2834 191.184 81.305 191.238 81.3049 191.294V192.19C81.305 192.217 81.2995 192.244 81.2888 192.269C81.2781 192.294 81.2624 192.316 81.2427 192.335C81.223 192.354 81.1996 192.368 81.1741 192.378C81.1486 192.387 81.1215 192.392 81.0943 192.39L79.3956 192.3L75.3898 192.303L70.1701 192.427C69.7399 192.458 69.6574 191.999 69.9227 191.051C70.7408 191.091 71.5099 191.088 72.2299 191.044C72.8139 191.008 73.155 190.703 73.2531 190.129C73.4225 189.122 73.4983 188.112 73.4805 187.099L73.5474 185.475L73.5607 170.261L73.544 165.25L73.34 161.853C73.3302 161.683 73.2574 161.524 73.1356 161.404C73.0139 161.285 72.852 161.215 72.6813 161.208L70.0932 161.105C69.848 161.076 69.7154 160.959 69.6953 160.754L69.7154 159.922C69.7162 159.871 69.7347 159.823 69.7677 159.784C69.8006 159.746 69.846 159.72 69.8959 159.712L73.5708 159.084L74.507 158.863L77.2422 157.988C77.3 157.97 77.3613 157.965 77.421 157.976C77.4807 157.986 77.537 158.011 77.5852 158.047C77.6334 158.084 77.672 158.132 77.6979 158.187C77.7237 158.241 77.7361 158.301 77.7338 158.362L77.6435 160.44Z" fill="white"/>
<path d="M34.9325 190.723L34.9693 191.101L34.9359 192.23C34.9355 192.252 34.9304 192.275 34.921 192.295C34.9115 192.316 34.8979 192.335 34.8809 192.35C34.8639 192.365 34.844 192.376 34.8223 192.383C34.8007 192.39 34.7779 192.392 34.7553 192.39C30.6993 192.056 28.1446 192.226 22.8915 192.407C22.8274 192.409 22.7634 192.398 22.7034 192.375C22.6435 192.352 22.5888 192.317 22.5426 192.272C22.4964 192.227 22.4597 192.173 22.4346 192.114C22.4096 192.054 22.3966 191.99 22.3967 191.926V191.248C22.3966 191.131 22.4413 191.02 22.5217 190.936C22.6021 190.852 22.7118 190.802 22.828 190.797L25.8575 190.656C26.0287 190.649 26.1911 190.578 26.3129 190.458C26.4347 190.337 26.5072 190.176 26.5162 190.005C26.5407 189.542 26.4638 189.083 26.2855 188.629C25.5231 186.68 24.6047 184.374 23.5302 181.71C23.4948 181.622 23.4338 181.547 23.3551 181.494C23.2765 181.441 23.1837 181.412 23.0888 181.413L19.9557 181.406L15.1741 181.403L10.1584 181.426C10.1069 181.426 10.0566 181.441 10.0137 181.47C9.9709 181.498 9.93747 181.539 9.91766 181.586C9.0037 183.753 8.10087 185.896 7.2092 188.014C6.94838 188.635 6.82912 189.22 6.85141 189.768C6.86062 189.979 6.94675 190.179 7.09345 190.33C7.24016 190.482 7.43722 190.574 7.64723 190.59L10.3925 190.8C10.5027 190.808 10.6057 190.858 10.6807 190.938C10.7558 191.019 10.7973 191.125 10.7971 191.234V192.083C10.7969 192.141 10.7776 192.198 10.7419 192.245C10.7063 192.291 10.6563 192.325 10.5998 192.34C10.3256 192.418 10.0247 192.425 9.69697 192.36C9.24668 192.249 8.91564 192.245 8.70387 192.35C5.72121 192.13 2.81992 192.155 0 192.427V190.867C0.655382 190.789 1.33194 190.719 2.02968 190.656C3.23344 190.553 3.78851 189.166 4.23992 188.231C5.40801 185.792 6.54044 183.332 7.6372 180.851L12.3486 170.255L14.1342 166.116L16.9898 159.377C17.0239 159.297 17.0823 159.229 17.1567 159.183C17.2311 159.138 17.3177 159.117 17.4044 159.124L18.1835 159.184C18.3124 159.194 18.4361 159.239 18.541 159.314C18.646 159.39 18.7282 159.492 18.7787 159.611C23.2438 170.141 26.9598 178.854 29.9269 185.749C30.5265 187.139 31.1462 188.438 31.786 189.647C32.0112 190.073 32.3656 190.408 32.8493 190.653C33.1859 190.822 33.8803 190.846 34.9325 190.723ZM11.1749 178.56L10.9308 179.184C10.9232 179.205 10.9207 179.227 10.9235 179.248C10.9262 179.27 10.9342 179.29 10.9467 179.308C10.9593 179.326 10.9759 179.34 10.9953 179.35C11.0147 179.36 11.0361 179.365 11.0579 179.365L14.9099 179.385L20.1563 179.375L22.1693 179.338C22.1896 179.337 22.2095 179.332 22.2273 179.322C22.245 179.312 22.2601 179.298 22.2712 179.281C22.2824 179.264 22.2893 179.244 22.2913 179.224C22.2933 179.204 22.2905 179.183 22.283 179.164L18.986 171.13L16.7323 165.648C16.728 165.639 16.7211 165.631 16.7126 165.625C16.704 165.62 16.694 165.617 16.6838 165.617C16.6736 165.617 16.6637 165.62 16.6551 165.625C16.6465 165.631 16.6396 165.639 16.6353 165.648L11.1749 178.56Z" fill="white"/>
<path d="M43.4336 159.818C44.3743 160.184 45.0052 160.818 45.3262 161.723C45.4287 162.901 45.1568 163.784 44.5103 164.372C43.3534 165.427 41.4708 165.14 40.5814 163.821C40.0062 162.968 39.994 162.063 40.5446 161.108C41.1264 160.097 42.0894 159.667 43.4336 159.818Z" fill="white"/>
<path d="M86.5982 163.303C86.3931 162.347 86.5369 161.5 87.0296 160.761C88.1152 159.754 89.1963 159.54 90.273 160.119C92.8009 161.475 91.7577 165.04 88.9456 165.077C87.9402 165.088 87.1578 164.497 86.5982 163.303Z" fill="white"/>
<path d="M163.219 175.453L163.192 176.308C163.19 176.382 163.159 176.453 163.106 176.505C163.053 176.556 162.982 176.585 162.908 176.585H162.115C162.079 176.585 162.043 176.578 162.009 176.564C161.976 176.549 161.946 176.528 161.921 176.501C161.896 176.474 161.877 176.443 161.865 176.409C161.853 176.374 161.848 176.338 161.851 176.301C161.864 176.114 161.824 175.89 161.731 175.63C161.782 174.017 161.119 172.87 159.741 172.189C158.598 171.472 157.258 171.208 155.722 171.397C154.567 171.424 153.56 171.909 152.699 172.854C152.024 173.593 151.729 174.478 151.816 175.51C151.816 177.501 153.421 178.353 155.143 178.753C158.59 179.504 161.026 180.173 162.453 180.761C164.165 181.469 165.048 183.303 165.078 185.191C165.138 189.09 162.075 191.872 158.43 192.818C158.263 192.76 158.002 192.794 157.648 192.921C154.792 193.165 152.004 192.821 148.884 192.18C148.318 192.091 148.089 191.898 148.198 191.602C148.546 189.613 148.677 187.573 148.59 185.482C149.06 185.392 149.555 185.391 150.074 185.478C150.052 186.454 150.146 187.382 150.355 188.264C151.158 191.665 154.351 191.822 157.267 191.505C159.402 191.271 160.809 190.191 161.487 188.264L161.547 187.83C162.098 184.894 160.099 183.968 157.437 183.36C155.955 183.022 154.479 182.66 153.01 182.275C149.305 181.306 147.853 178.839 148.653 174.875L149.977 172.5C151.103 171.578 152.276 170.897 153.495 170.459C153.774 170.401 153.984 170.325 154.127 170.231C157.123 169.721 160.162 170.068 163.245 171.27C163.304 171.293 163.353 171.334 163.387 171.387C163.42 171.44 163.436 171.502 163.433 171.564L163.219 175.453Z" fill="white"/>
<path d="M45.1401 170.492L45.1033 173.752C44.9628 178.784 44.9751 183.838 45.1401 188.916C45.1579 189.455 45.2393 189.923 45.3841 190.319C45.4521 190.503 45.5737 190.663 45.7334 190.778C45.8931 190.893 46.0836 190.958 46.2803 190.964L48.0926 191.024L48.6343 191.097C48.6887 191.105 48.7386 191.131 48.7749 191.172C48.8111 191.213 48.8313 191.266 48.8316 191.321V192.176C48.8318 192.241 48.8077 192.303 48.7642 192.35C48.7207 192.397 48.6611 192.426 48.5975 192.43L48.417 192.444C47.8262 192.357 47.2366 192.308 46.6481 192.297C43.554 192.232 40.4666 192.274 37.3858 192.424C37.3301 192.441 37.2788 192.44 37.232 192.42C37.174 192.396 37.1439 192.356 37.1417 192.3C37.1328 191.948 37.1317 191.615 37.1384 191.301C37.1392 191.242 37.163 191.185 37.2047 191.143C37.2465 191.1 37.303 191.076 37.3624 191.074L37.884 191.054C38.2942 191.065 38.7155 191.068 39.148 191.064C40.8199 191.051 40.7597 189.868 40.8065 188.411C40.9469 184.117 40.9748 179.72 40.8901 175.219C40.8767 174.561 40.8065 173.639 39.9237 173.479L37.446 173.368C37.3594 173.364 37.2778 173.327 37.218 173.265C37.1582 173.203 37.1249 173.12 37.125 173.034V172.399C37.1248 172.308 37.1577 172.22 37.2177 172.15C37.2777 172.08 37.361 172.034 37.4527 172.019C39.9405 171.621 42.3881 171.13 44.6753 170.078C44.8804 170.082 45.0353 170.22 45.1401 170.492Z" fill="white"/>
<path d="M135.316 170.034C137.86 169.82 140.058 170.415 141.91 171.818C144.438 173.732 145.307 177.25 144.876 180.27C144.862 180.367 144.817 180.456 144.747 180.524C144.676 180.592 144.585 180.634 144.488 180.644L140.288 181.092L133.32 181.169L129.692 181.189C129.646 181.189 129.601 181.207 129.568 181.239C129.535 181.272 129.516 181.316 129.515 181.362C129.488 183.334 129.842 185.532 130.999 187.175C131.967 188.676 133.36 189.673 135.179 190.165C137.15 190.74 139.136 190.618 141.138 189.801L143.716 188.512C143.776 188.481 143.844 188.469 143.911 188.476C143.978 188.484 144.041 188.511 144.094 188.553C144.146 188.596 144.184 188.653 144.204 188.718C144.225 188.782 144.226 188.851 144.207 188.916L143.926 189.931C142.894 190.996 141.626 191.761 140.121 192.226C138.804 192.672 137.457 192.918 136.082 192.965C128.495 193.108 124.536 187.84 125.034 180.577C125.161 178.727 125.657 176.935 126.522 175.202C127.501 173.686 128.833 172.48 130.518 171.584L132.554 170.616L135.316 170.034ZM139.389 173.502C139.15 173.065 138.876 172.814 138.566 172.747C137.474 171.811 136.2 171.425 134.744 171.588C130.622 172.042 129.428 175.603 129.445 179.191C129.444 179.233 129.46 179.274 129.489 179.305C129.518 179.335 129.557 179.353 129.598 179.355C133.341 179.573 136.928 179.628 140.359 179.518C140.439 179.516 140.516 179.483 140.573 179.426C140.631 179.369 140.664 179.292 140.666 179.211C140.743 177.29 140.576 175.085 139.389 173.502Z" fill="white"/>
<path d="M67.5884 170.502L67.555 172.693L67.2909 176.001C67.2868 176.058 67.2648 176.114 67.2277 176.159C67.1907 176.205 67.1404 176.238 67.0835 176.255C66.8406 176.324 66.5809 176.298 66.3044 176.178C66.1681 176.119 66.0549 176.016 65.9834 175.884C64.6961 173.502 61.8338 173.699 60.2087 175.583C58.9481 177.05 58.8946 179.355 58.9214 181.232C58.9593 183.767 59.0116 186.088 59.0785 188.198C59.1153 189.31 59.0217 190.389 60.0282 190.696C60.1953 190.748 60.7404 190.82 61.6633 190.914C62.5572 191.005 63.0966 191.049 63.2817 191.047C63.3738 191.047 63.4627 191.082 63.5311 191.143C63.5996 191.205 63.6429 191.29 63.6528 191.381L63.7163 191.996C63.7206 192.037 63.7161 192.078 63.7032 192.118C63.6903 192.157 63.6693 192.193 63.6416 192.224C63.6138 192.254 63.5799 192.278 63.5421 192.295C63.5043 192.312 63.4634 192.32 63.4221 192.32H51.0802C51.0465 192.32 51.0142 192.307 50.9903 192.283C50.9665 192.259 50.9531 192.227 50.9531 192.193V191.187C50.9531 191.159 50.9643 191.131 50.9843 191.111C51.0042 191.09 51.0314 191.078 51.0601 191.077L53.7853 191C53.9901 190.995 54.1888 190.928 54.3553 190.808C54.5218 190.687 54.6483 190.519 54.7182 190.326C54.8029 190.087 54.8598 189.762 54.8888 189.35C55.1407 185.749 55.1797 180.838 55.0058 174.618C54.9891 173.936 54.745 173.488 53.9324 173.435C52.8914 173.366 52.0978 173.344 51.5517 173.368C51.5174 173.37 51.4833 173.364 51.4513 173.352C51.4193 173.34 51.3901 173.322 51.3654 173.298C51.3407 173.275 51.3211 173.247 51.3077 173.216C51.2943 173.185 51.2875 173.151 51.2875 173.118V172.303C51.2878 172.226 51.3159 172.153 51.3665 172.096C51.417 172.039 51.4865 172.003 51.5617 171.995C53.9714 171.717 56.3177 171.116 58.6004 170.191C58.6462 170.173 58.696 170.165 58.7453 170.171C58.7946 170.176 58.8418 170.193 58.8828 170.221C58.9239 170.248 58.9574 170.286 58.9804 170.33C59.0035 170.374 59.0154 170.422 59.015 170.472V175.079C59.0143 175.096 59.0192 175.114 59.0292 175.129C59.0392 175.144 59.0537 175.155 59.0705 175.161C59.0873 175.167 59.1056 175.167 59.1227 175.162C59.1398 175.157 59.1548 175.146 59.1655 175.132C60.2789 173.706 61.3456 171.918 62.7333 171C64.1533 170.055 65.7717 169.889 67.5884 170.502Z" fill="white"/>
<path d="M104.838 170.512L104.523 174.234C104.521 174.257 104.526 174.281 104.538 174.302C104.55 174.323 104.567 174.34 104.588 174.351C104.61 174.361 104.633 174.365 104.656 174.361C104.679 174.358 104.701 174.347 104.717 174.33L106.419 172.767L107.944 171.464C108.635 170.847 109.46 170.465 110.418 170.318C111.934 170.006 113.382 170.043 114.762 170.429L115.799 170.786C117.76 171.626 118.993 173.024 119.497 174.982C119.611 175.723 119.671 176.266 119.677 176.609C119.749 180.308 119.783 184.021 119.781 187.747C119.781 188.702 119.885 189.544 120.092 190.272C120.145 190.459 120.254 190.626 120.405 190.749C120.556 190.872 120.741 190.946 120.935 190.96L123.322 191.141C123.368 191.144 123.41 191.165 123.441 191.199C123.472 191.233 123.489 191.278 123.489 191.325V192.213C123.489 192.235 123.485 192.257 123.476 192.277C123.468 192.297 123.455 192.315 123.439 192.33C123.423 192.345 123.404 192.357 123.383 192.364C123.363 192.372 123.341 192.375 123.319 192.373C120.887 192.224 118.434 192.239 115.959 192.417L115.464 192.407C115.687 187.795 115.763 183.179 115.692 178.56C115.668 176.966 115.367 175.259 113.973 174.244C112.321 173.043 110.436 172.778 108.319 173.448C107.385 173.691 106.496 174.235 105.654 175.079C104.965 175.983 104.6 177.171 104.56 178.643C104.458 182.392 104.527 186.138 104.767 189.881C104.808 190.498 105.127 190.843 105.727 190.917C106.452 191.008 107.076 191.034 107.6 190.994C108.3 190.922 108.518 191.417 108.255 192.477C104.659 192.176 101.058 192.171 97.4513 192.46C97.3443 192.411 97.2217 192.392 97.0834 192.404C97.0582 192.405 97.0329 192.402 97.009 192.393C96.9851 192.385 96.9633 192.371 96.9448 192.354C96.9262 192.336 96.9115 192.315 96.9014 192.291C96.8913 192.268 96.8861 192.242 96.8862 192.216V191.291C96.8864 191.24 96.9049 191.191 96.9381 191.153C96.9713 191.115 97.017 191.09 97.0667 191.084L97.8358 190.99H99.3773C99.5878 190.99 99.7927 190.923 99.9615 190.797C100.13 190.671 100.254 190.494 100.314 190.292C100.421 189.931 100.485 189.522 100.507 189.063C100.715 184.502 100.716 179.721 100.511 174.721C100.511 174.679 100.48 174.388 100.417 173.849C100.412 173.798 100.392 173.748 100.36 173.708C100.327 173.667 100.283 173.636 100.233 173.619L99.7083 173.448L97.1771 173.362C97.0981 173.359 97.0233 173.326 96.9684 173.27C96.9135 173.214 96.8828 173.139 96.8828 173.061V172.323C96.8825 172.243 96.9121 172.166 96.9658 172.107C97.0196 172.048 97.0937 172.01 97.1737 172.002C99.579 171.746 101.965 171.122 104.333 170.131C104.433 170.089 104.601 170.216 104.838 170.512Z" fill="white"/>
<path d="M91.3621 175.356L91.3722 180.454C91.3476 183.405 91.4056 186.288 91.546 189.103C91.5706 189.615 91.6151 189.996 91.6798 190.245C91.7277 190.434 91.8339 190.603 91.9833 190.729C92.1327 190.854 92.3178 190.929 92.5124 190.944L94.95 191.131C95.0054 191.135 95.0572 191.16 95.0959 191.199C95.1346 191.238 95.1576 191.29 95.1607 191.344L95.2008 192.216C95.1629 192.268 95.135 192.327 95.1172 192.393C91.3967 192.233 87.606 192.236 83.745 192.403C83.6959 192.406 83.6469 192.397 83.6012 192.379C83.5556 192.361 83.5144 192.333 83.4802 192.298C83.4461 192.262 83.4199 192.22 83.4033 192.174C83.3867 192.128 83.38 192.078 83.3839 192.029L83.4374 191.311C83.4433 191.238 83.4774 191.171 83.5323 191.123C83.5873 191.075 83.6587 191.05 83.7316 191.054C84.7704 191.101 85.6064 191.065 86.2395 190.947C86.7979 190.843 87.0119 190.182 87.0553 189.651C87.1802 188.223 87.2393 186.792 87.2326 185.358L87.2627 180.474C87.3384 178.151 87.2905 176.12 87.1189 174.38C87.0587 173.786 86.5872 173.502 85.9686 173.448C85.1795 173.379 84.4327 173.347 83.7283 173.352C83.6872 173.352 83.6464 173.344 83.6082 173.329C83.5701 173.313 83.5354 173.291 83.5062 173.262C83.477 173.233 83.4538 173.198 83.4379 173.161C83.4221 173.123 83.414 173.082 83.414 173.041V172.323C83.4143 172.243 83.4437 172.167 83.4967 172.108C83.5497 172.049 83.6226 172.011 83.7015 172.002C86.1469 171.71 88.5299 171.107 90.8505 170.191C90.9229 170.163 91.0011 170.153 91.0782 170.163C91.1553 170.172 91.2289 170.2 91.2924 170.245C91.3559 170.29 91.4074 170.349 91.4423 170.419C91.4773 170.488 91.4945 170.565 91.4925 170.642L91.3621 175.356Z" fill="white"/>
</svg>
