<svg width="300" height="94" viewBox="0 0 300 94" fill="none" xmlns="http://www.w3.org/2000/svg">
<g clip-path="url(#clip0_650_74412)">
<path d="M24.8672 55.1111C22.3325 55.1111 20.0463 53.6228 19.0523 51.2912L1.45871 10.2145C0.0671267 6.98985 1.55808 3.31877 4.78858 1.92971C8.01904 0.540631 11.6968 2.02889 13.0884 5.25355L24.8672 32.7868L36.6459 5.25355C38.0375 2.02891 41.7153 0.540631 44.9457 1.92971C48.1762 3.31877 49.6672 6.98985 48.2756 10.2145L30.682 51.2912C29.688 53.6228 27.4018 55.1111 24.8672 55.1111Z" fill="white"/>
<path d="M261.285 48.3642C260.043 47.4713 259.148 45.8837 259.148 44.1474C259.148 41.2204 261.484 38.988 264.417 38.988C265.858 38.988 266.902 39.4842 267.597 40.0299C271.474 42.8576 275.698 44.5939 280.619 44.5939C285.191 44.5939 287.974 42.7584 287.974 39.7818V39.6329C287.974 36.8052 286.235 35.3169 277.686 33.1837C267.399 30.5544 260.788 27.7266 260.788 17.6063V17.4574C260.788 8.23001 268.243 2.12802 278.631 2.12802C284.843 2.12802 290.211 3.71554 294.783 6.64251C296.025 7.38664 297.268 8.87494 297.268 11.1074C297.268 14.0343 294.932 16.2667 292 16.2667C290.906 16.2667 290.012 15.9691 289.167 15.473C285.439 13.2902 281.96 12.0499 278.482 12.0499C274.158 12.0499 271.921 14.0343 271.921 16.4652V16.6141C271.921 19.9379 274.108 21.0293 282.905 23.3114C293.242 25.9903 299.057 29.711 299.057 38.5911V38.74C299.057 48.8604 291.354 54.5159 280.32 54.5159C273.76 54.4662 266.951 52.4322 261.285 48.3642Z" fill="white"/>
<path d="M229.132 55.0119C214.371 55.0119 202.344 43.0064 202.344 28.2724C202.344 13.5383 214.371 1.53279 229.132 1.53279C243.892 1.53279 255.92 13.5383 255.92 28.2724C255.92 43.0064 243.942 55.0119 229.132 55.0119ZM229.132 12.943C220.683 12.943 213.775 19.8387 213.775 28.2724C213.775 36.706 220.683 43.6017 229.132 43.6017C237.581 43.6017 244.489 36.706 244.489 28.2724C244.489 19.8387 237.63 12.943 229.132 12.943Z" fill="white"/>
<path d="M189.522 6.14654L199.959 47.2233C200.804 50.5967 198.766 54.0197 195.387 54.8631C194.89 55.012 194.343 55.0615 193.846 55.0615C191.013 55.0615 188.429 53.1764 187.733 50.2991L181.918 27.2802L171.68 51.192C170.686 53.5236 168.4 55.0119 165.865 55.0119C163.331 55.0119 161.045 53.5236 160.051 51.192L149.266 26.288L142.059 50.5967C141.264 53.3253 138.729 55.1111 135.996 55.1111C135.4 55.1111 134.803 55.012 134.207 54.8631C130.877 53.8709 128.939 50.3486 129.933 47.0248L142.109 6.09693C142.109 6.09693 143.451 1.384 148.073 1.384C152.446 1.384 153.937 5.05511 153.937 5.05511L165.816 32.7372L177.594 5.20394C177.594 5.20394 179.185 1.384 183.459 1.384C187.733 1.43369 189.274 5.20395 189.522 6.14654Z" fill="white"/>
<path d="M60.0546 55.1111C57.52 55.1111 55.2338 53.6228 54.2398 51.2912L36.6462 10.2145C35.2546 6.98985 36.7456 3.31877 39.9761 1.92971C43.2065 0.540631 46.8843 2.02889 48.2759 5.25355L60.0546 32.7868L71.8334 5.25355C73.225 2.02891 76.9028 0.540631 80.1332 1.92971C83.3637 3.31877 84.8547 6.98985 83.4631 10.2145L65.8695 51.2912C64.8755 53.6228 62.5893 55.1111 60.0546 55.1111Z" fill="white"/>
<path d="M120.242 55.6072C117.757 55.6072 115.421 54.1686 114.427 51.7377L102.648 23.6091L90.9189 51.7377C89.577 54.9623 85.8992 56.4506 82.6688 55.1111C79.4383 53.7717 77.9473 50.1006 79.2892 46.876L96.8829 4.80705C97.8768 2.4754 100.163 0.9375 102.698 0.9375C105.232 0.9375 107.568 2.4754 108.513 4.80705L126.106 46.876C127.448 50.1006 125.907 53.7717 122.727 55.1111C121.882 55.4584 121.037 55.6072 120.242 55.6072Z" fill="white"/>
<path d="M57.1753 89.7387L63.4871 72.3753C64.1332 70.5398 65.1769 69.4484 66.9164 69.4484C68.7056 69.4484 69.7493 70.5398 70.3954 72.3753L76.5581 89.7387C76.6575 90.0363 76.7073 90.334 76.7073 90.6813C76.7073 92.1199 75.5642 93.0129 74.272 93.0129C73.1786 93.0129 72.284 92.368 71.9361 91.227L70.9918 88.3992H62.692L61.7477 91.227C61.3501 92.368 60.5052 93.0129 59.4118 93.0129C58.1694 93.0129 56.9766 92.0703 56.9766 90.6813C56.9766 90.334 57.0759 89.9867 57.1753 89.7387ZM69.6002 84.1328L66.9165 75.9968H66.8171L64.1333 84.1328H69.6002Z" fill="white"/>
<path d="M79.4844 72.0776C79.4844 70.4901 80.5281 69.3987 82.0191 69.3987C83.4603 69.3987 84.504 70.4405 84.504 72.0776V90.3835C84.504 91.971 83.4603 93.0624 82.0191 93.0624C80.5281 93.0624 79.4844 92.0207 79.4844 90.3835V72.0776Z" fill="white"/>
<path d="M100.907 91.475L97.0305 83.9839H93.6013C93.4521 83.9839 93.4025 84.0336 93.4025 84.1823V90.3836C93.4025 91.971 92.3588 93.0625 90.9175 93.0625C89.4265 93.0625 88.3828 92.0207 88.3828 90.3836V71.8296C88.3828 70.4901 89.178 69.5971 90.5696 69.5971H97.9748C102.746 69.5971 105.927 72.5737 105.927 76.7905C105.927 79.6182 104.485 81.9003 102.1 83.0909L105.479 89.2425C105.728 89.689 105.827 90.1851 105.827 90.6316C105.827 91.9214 104.933 93.0128 103.442 93.0128C102.299 93.0128 101.454 92.5664 100.907 91.475ZM100.808 76.8402C100.808 75.0542 99.5652 73.9628 97.6766 73.9628H93.5516C93.4024 73.9628 93.3528 74.0125 93.3528 74.1612V79.5191C93.3528 79.6679 93.4026 79.7175 93.5516 79.7175H97.6766C99.5652 79.7175 100.808 78.5765 100.808 76.8402Z" fill="white"/>
</g>
<defs>
<clipPath id="clip0_650_74412">
<rect width="300" height="94" fill="white"/>
</clipPath>
</defs>
</svg>
