<svg width="300" height="104" viewBox="0 0 300 104" fill="none" xmlns="http://www.w3.org/2000/svg">
<path d="M82.956 0.991904C82.9146 0.970138 82.8808 0.936077 82.8592 0.894325C82.8376 0.852573 82.8292 0.805142 82.8352 0.758444C82.8412 0.711746 82.8613 0.668033 82.8927 0.633212C82.9242 0.598391 82.9655 0.574143 83.011 0.563743C86.4873 -0.292578 90.9153 -0.498729 93.5028 2.33189C96.5465 5.66202 94.4702 8.80187 91.4501 10.8475C91.4199 10.868 91.3955 10.8959 91.3792 10.9286C91.3628 10.9613 91.3551 10.9977 91.3566 11.0343C91.3582 11.0709 91.3691 11.1065 91.3882 11.1377C91.4073 11.1688 91.434 11.1945 91.4658 11.2123C99.2154 15.6313 104.362 22.0907 106.905 30.5905C107.959 34.1003 108.255 38.1943 107.793 42.8723C106.527 55.7251 96.7746 65.9058 84.9851 70.5204C84.9581 70.5311 84.9285 70.5341 84.8998 70.5289C84.8711 70.5237 84.8447 70.5106 84.8238 70.4912C84.8028 70.4718 84.7883 70.447 84.7821 70.4198C84.7758 70.3925 84.778 70.3641 84.7885 70.338C87.8453 61.1247 87.8768 51.8584 84.8829 42.5393C84.8678 42.4885 84.865 42.4347 84.8747 42.3826C84.8844 42.3304 84.9063 42.2813 84.9386 42.2394C84.9709 42.1975 85.0127 42.164 85.0605 42.1417C85.1082 42.1194 85.1606 42.1089 85.2132 42.1112C88.8048 42.2803 91.5392 41.0857 93.4163 38.5273C96.8297 33.881 95.2646 28.0294 90.3333 25.2068C90.2818 25.1784 90.2376 25.1384 90.2042 25.0899C90.1708 25.0414 90.149 24.9857 90.1406 24.9273C90.1322 24.8688 90.1374 24.8092 90.1558 24.7531C90.1743 24.697 90.2054 24.646 90.2467 24.6042L91.9456 22.8994C91.9668 22.8781 91.9811 22.8508 91.9867 22.8211C91.9923 22.7914 91.989 22.7607 91.977 22.7329L91.8905 22.5506C91.8737 22.5115 91.8491 22.4763 91.8182 22.4472C91.7872 22.4181 91.7507 22.3958 91.7108 22.3817C91.6709 22.3675 91.6286 22.3619 91.5864 22.365C91.5443 22.3681 91.5032 22.38 91.4658 22.3999C86.5581 25.072 82.3897 27.0304 77.0258 24.2315C76.7741 24.0969 76.5669 23.8962 76.4281 23.6527C72.999 17.7298 76.5382 13.472 81.0369 9.97534C83.4279 8.10413 87.3918 3.25957 82.956 0.991904ZM83.3649 19.3632C83.3649 18.9089 83.186 18.4733 82.8674 18.1521C82.5488 17.831 82.1167 17.6505 81.6661 17.6505C81.2156 17.6505 80.7835 17.831 80.4649 18.1521C80.1463 18.4733 79.9673 18.9089 79.9673 19.3632C79.9673 19.8174 80.1463 20.253 80.4649 20.5742C80.7835 20.8954 81.2156 21.0758 81.6661 21.0758C82.1167 21.0758 82.5488 20.8954 82.8674 20.5742C83.186 20.253 83.3649 19.8174 83.3649 19.3632Z" fill="white"/>
<path d="M94.4442 10.5063C94.4056 10.504 94.3691 10.4881 94.341 10.4614C94.3129 10.4347 94.295 10.3989 94.2903 10.3603C94.2856 10.3217 94.2945 10.2826 94.3154 10.2499C94.3364 10.2172 94.368 10.1929 94.4048 10.1813C96.9059 9.44122 98.6624 8.10124 99.6743 6.1613C99.7567 6.00226 99.7879 5.82133 99.7636 5.6436C99.7394 5.46587 99.6609 5.30015 99.539 5.16943C99.4171 5.03871 99.2579 4.94947 99.0834 4.91409C98.909 4.8787 98.7279 4.89893 98.5654 4.97197L98.2193 5.13054C98.0893 5.18862 97.9468 5.21253 97.8052 5.20005C97.6635 5.18757 97.5273 5.13911 97.4092 5.05919C96.4812 4.43016 96.1954 3.63991 96.552 2.68844C97.3778 0.460424 100.571 0.34942 102.285 1.2771C103.544 1.94841 104.283 3.05846 104.503 4.60724C104.794 6.66082 103.481 8.08009 101.727 9.02363C99.614 10.1548 97.1864 10.6491 94.4442 10.5063Z" fill="white"/>
<path d="M0.00393246 1.78526C-0.00131082 1.60554 -0.00131082 1.42582 0.00393246 1.24609C6.71532 5.03611 13.1462 7.05798 19.2966 7.3117C29.0858 7.70814 34.5414 7.9328 35.6634 7.98566C43.1875 8.32924 48.3312 8.9847 51.0944 9.95202C58.2724 12.4681 63.8093 17.4977 67.7051 25.0407C67.7155 25.0512 67.7214 25.0655 67.7214 25.0804C67.7214 25.0952 67.7155 25.1095 67.7051 25.12C67.6947 25.1305 67.6805 25.1364 67.6658 25.1364C67.651 25.1364 67.6369 25.1305 67.6264 25.12C62.9075 22.2894 56.3953 21.9167 50.7405 21.9326C41.6539 21.9643 33.8598 21.9299 27.3581 21.8295C15.4349 21.6392 4.58131 12.4734 0.00393246 1.78526Z" fill="white"/>
<path d="M94.8751 11.9096C96.7732 12.2056 98.8364 11.9308 101.065 11.085C101.486 10.9263 101.949 10.9234 102.37 11.0771C103.471 11.4735 104.47 12.2453 105.367 13.3923C105.404 13.438 105.429 13.4931 105.438 13.5518C105.446 13.6104 105.439 13.6704 105.416 13.7251C105.393 13.7798 105.356 13.8272 105.309 13.8622C105.261 13.8972 105.205 13.9184 105.147 13.9236C101.836 14.2724 97.793 14.1059 94.765 12.2268C94.7307 12.2056 94.7042 12.1727 94.6904 12.1339C94.6765 12.0952 94.6761 12.0531 94.6893 12.0151C94.7025 11.9771 94.7284 11.9456 94.7624 11.9263C94.7964 11.907 94.8364 11.9011 94.8751 11.9096Z" fill="white"/>
<path d="M103.707 16.913C103.682 16.8889 103.665 16.8574 103.659 16.8231C103.653 16.7888 103.657 16.7534 103.672 16.7219C103.687 16.6903 103.711 16.6643 103.741 16.6473C103.772 16.6304 103.806 16.6235 103.841 16.6276C110.222 17.061 116.259 16.0303 121.954 13.5353C121.998 13.5164 122.046 13.5092 122.094 13.5143C122.141 13.5193 122.187 13.5365 122.226 13.5643C122.266 13.592 122.297 13.6294 122.318 13.6729C122.34 13.7164 122.349 13.7645 122.347 13.8128C121.906 21.0123 115.89 24.6358 109.338 24.9767C109.25 24.9811 109.162 24.9593 109.087 24.9141C109.011 24.8689 108.951 24.8024 108.914 24.723C107.535 21.858 105.799 19.2547 103.707 16.913Z" fill="white"/>
<path d="M112.23 37.2191C111.994 34.0211 111.344 30.8839 110.28 27.8075C110.266 27.7647 110.262 27.7192 110.269 27.6748C110.275 27.6303 110.292 27.5882 110.317 27.5519C110.342 27.5155 110.376 27.486 110.414 27.4656C110.453 27.4453 110.496 27.4348 110.539 27.4349C114.493 27.4031 117.917 26.0473 120.811 23.3673C120.828 23.3508 120.849 23.3395 120.872 23.3347C120.895 23.3298 120.919 23.3317 120.942 23.3399C120.964 23.3482 120.983 23.3626 120.998 23.3815C121.012 23.4003 121.021 23.4229 121.023 23.4466C121.526 29.5122 119.23 36.0219 112.702 37.5759C112.648 37.5885 112.592 37.589 112.538 37.5773C112.483 37.5656 112.432 37.5421 112.387 37.5082C112.342 37.4743 112.305 37.431 112.278 37.3811C112.251 37.3312 112.235 37.276 112.23 37.2191Z" fill="white"/>
<path d="M79.5232 39.4469C76.3772 37.7818 72.0882 36.944 66.6562 36.9334C66.5408 36.9334 57.0374 36.9202 38.1459 36.8938C30.3518 36.8779 23.2026 31.6132 18.578 24.8736C18.5571 24.8408 18.5463 24.8026 18.5469 24.7636C18.5475 24.7247 18.5594 24.6868 18.5812 24.6546C18.603 24.6225 18.6338 24.5976 18.6695 24.5829C18.7053 24.5683 18.7446 24.5646 18.7825 24.5723C23.6168 25.6242 26.7942 26.166 28.3147 26.1977C37.5796 26.3669 46.0003 26.4409 53.5768 26.4197C64.4147 26.3959 74.3717 28.8777 79.822 39.1377C79.8439 39.1812 79.8518 39.2309 79.8445 39.2795C79.8373 39.3281 79.8154 39.3729 79.782 39.4075C79.7486 39.4421 79.7054 39.4646 79.6588 39.4717C79.6122 39.4788 79.5647 39.4701 79.5232 39.4469Z" fill="white"/>
<path d="M80.0148 26.6418C80.0496 26.6487 80.0812 26.6667 80.1051 26.6931C80.129 26.7195 80.1437 26.753 80.1473 26.7886C80.1508 26.8241 80.1429 26.8599 80.1247 26.8906C80.1065 26.9213 80.079 26.9452 80.0463 26.9589L75.5003 29.0284C75.4441 29.0536 75.3819 29.062 75.3211 29.0527C75.2602 29.0434 75.2033 29.0168 75.157 28.976C75.1107 28.9351 75.0769 28.8818 75.0597 28.8222C75.0425 28.7626 75.0426 28.6994 75.0599 28.6398L76.0745 25.1511C76.0881 25.1054 76.1131 25.0639 76.1472 25.0308C76.1814 24.9976 76.2234 24.9739 76.2693 24.962C76.3152 24.95 76.3633 24.9502 76.4091 24.9625C76.4549 24.9748 76.4968 24.9988 76.5306 25.0322C77.2595 25.7511 78.4208 26.2876 80.0148 26.6418Z" fill="white"/>
<path d="M119.334 37.3775C119.408 37.7581 118.797 39.6743 117.502 43.126C116.201 46.583 113.934 49.0251 110.698 50.4523C110.638 50.4791 110.572 50.4872 110.507 50.4757C110.442 50.4641 110.383 50.4334 110.335 50.3875C110.288 50.3415 110.256 50.2824 110.242 50.2177C110.228 50.153 110.234 50.0856 110.258 50.0241C111.422 47.1591 112.104 44.0642 112.303 40.7394C112.309 40.6101 112.359 40.4864 112.444 40.3874C112.53 40.2885 112.646 40.2199 112.775 40.1923C115.307 39.6637 117.329 38.6726 118.839 37.2189C118.877 37.1827 118.925 37.1575 118.977 37.1459C119.028 37.1343 119.082 37.1367 119.132 37.1528C119.183 37.1689 119.228 37.1982 119.263 37.2377C119.299 37.2772 119.323 37.3254 119.334 37.3775Z" fill="white"/>
<path d="M81.8026 44.7834C81.7995 44.7371 81.8147 44.6915 81.845 44.6566C81.8752 44.6216 81.918 44.6002 81.9639 44.5971C82.0097 44.5939 82.055 44.6093 82.0897 44.6397C82.1243 44.6702 82.1456 44.7133 82.1487 44.7596C87.6227 73.9538 64.7436 97.455 36.1704 96.0437C24.5067 95.4728 12.5993 89.0742 5.95342 79.3137C0.636744 71.5038 -0.849724 61.1803 4.23101 52.8312C8.95782 45.053 16.343 41.1995 24.9865 44.2363C27.6029 45.156 28.9295 46.9612 28.9662 49.6517C28.9671 49.7089 28.9494 49.7649 28.9158 49.811C28.8822 49.8571 28.8345 49.8908 28.7801 49.907C28.7257 49.9232 28.6675 49.9209 28.6144 49.9006C28.5614 49.8803 28.5164 49.843 28.4864 49.7944C25.4584 44.8389 19.9136 48.9064 18.8047 52.6013C16.5344 60.1602 18.1257 66.646 23.5787 72.0588C30.5155 78.9569 41.9354 80.9074 51.5306 79.4327C69.612 76.6417 80.5049 62.7899 81.8026 44.7834Z" fill="white"/>
<path d="M78.2694 45.5206C78.0649 46.2447 77.7214 47.5002 77.2391 49.2868C73.7234 62.2743 60.6992 72.0348 47.2502 69.9257C40.1403 68.8157 35.6416 63.543 35.2876 56.2484C34.5483 41.0328 62.9643 42.6186 56.751 54.9401C56.6934 55.0547 56.5943 55.1425 56.4742 55.1853C56.3541 55.2281 56.2223 55.2226 56.1061 55.17C54.9316 54.6362 54.1713 54.8978 53.8252 55.955C53.141 58.0324 56.4836 59.5071 58.0015 59.7292C67.0855 61.085 74.4628 54.3375 77.4278 46.369C77.5117 46.147 77.7319 45.8324 78.0885 45.4254C78.102 45.4031 78.1234 45.3868 78.1484 45.3798C78.1734 45.3728 78.2001 45.3756 78.2231 45.3877C78.2461 45.3998 78.2636 45.4203 78.2722 45.4449C78.2808 45.4696 78.2798 45.4966 78.2694 45.5206Z" fill="white"/>
<path d="M284.338 58.6907C282.985 60.7126 279.792 61.7909 278.368 58.9682C278.331 58.8944 278.312 58.8126 278.313 58.7298C278.313 58.647 278.334 58.5655 278.372 58.4924C278.411 58.4193 278.466 58.3566 278.534 58.3097C278.602 58.2628 278.68 58.233 278.761 58.2229L279.115 58.1753C279.299 58.1498 279.486 58.1807 279.653 58.264C279.82 58.3474 279.959 58.4795 280.051 58.6431L280.413 59.2695C280.481 59.3853 280.585 59.4752 280.708 59.5254C280.832 59.5756 280.969 59.5832 281.097 59.547C281.863 59.325 282.379 58.9894 282.647 58.5401C282.688 58.4686 282.745 58.4078 282.814 58.3624C282.882 58.317 282.959 58.2883 283.04 58.2784L284.007 58.1436C284.073 58.1348 284.139 58.1455 284.199 58.1744C284.259 58.2033 284.309 58.2493 284.344 58.3068C284.378 58.3643 284.396 58.4311 284.395 58.4991C284.394 58.5671 284.374 58.6336 284.338 58.6907Z" fill="white"/>
<path d="M107.359 58.9365H109.719C109.785 58.9364 109.849 58.9618 109.897 59.0075C109.945 59.0532 109.974 59.1157 109.978 59.1823L110.505 68.6336C110.507 68.6692 110.502 68.705 110.49 68.7386C110.478 68.7722 110.459 68.8029 110.435 68.8289C110.411 68.8549 110.381 68.8756 110.349 68.8898C110.316 68.9039 110.281 68.9112 110.246 68.9111H108.515C108.446 68.9111 108.38 68.8835 108.332 68.8345C108.283 68.7854 108.256 68.7188 108.256 68.6494V66.913C108.256 66.8436 108.228 66.7771 108.18 66.728C108.131 66.6789 108.065 66.6514 107.996 66.6514H104.756C104.712 66.6509 104.669 66.6616 104.631 66.6824C104.592 66.7031 104.559 66.7334 104.536 66.7703L103.222 68.7604C103.201 68.7941 103.172 68.8224 103.138 68.843C103.104 68.8636 103.065 68.8761 103.026 68.8794L101.107 68.9904C101.058 68.9939 101.01 68.9838 100.967 68.9611C100.924 68.9384 100.889 68.9041 100.864 68.8621C100.839 68.82 100.827 68.7719 100.828 68.7231C100.829 68.6743 100.844 68.6268 100.871 68.586L107.139 59.0555C107.163 59.0186 107.195 58.9883 107.234 58.9675C107.272 58.9467 107.315 58.9361 107.359 58.9365ZM105.881 65.0973H107.815C107.918 65.0973 108.016 65.0572 108.088 64.9858C108.16 64.9144 108.201 64.8176 108.201 64.7167V61.5531C108.201 61.5017 108.186 61.4515 108.156 61.4099C108.126 61.3683 108.083 61.3376 108.034 61.3225C107.986 61.3073 107.933 61.3084 107.885 61.3257C107.837 61.343 107.796 61.3755 107.768 61.4183L105.645 64.6533C105.616 64.6963 105.6 64.7463 105.597 64.798C105.595 64.8497 105.606 64.901 105.63 64.9466C105.655 64.9922 105.691 65.0303 105.735 65.0569C105.779 65.0834 105.829 65.0974 105.881 65.0973Z" fill="white"/>
<path d="M231.071 68.9345L229.356 69.0297C229.317 69.0311 229.278 69.0233 229.243 69.007C229.207 68.9907 229.176 68.9664 229.153 68.9361C229.129 68.9058 229.113 68.8704 229.106 68.8329C229.099 68.7954 229.101 68.7568 229.112 68.7205L231.873 59.3089C231.905 59.2008 231.97 59.1061 232.058 59.039C232.146 58.9718 232.252 58.9358 232.36 58.9362C235.239 58.9283 239.085 58.405 238.479 61.9968C238.065 64.4653 236.22 65.6414 232.942 65.5251C232.761 65.5179 232.582 65.5724 232.434 65.6801C232.286 65.7878 232.177 65.9425 232.124 66.1198L231.369 68.6967C231.352 68.7614 231.313 68.819 231.26 68.8616C231.206 68.9042 231.14 68.9296 231.071 68.9345ZM233.304 63.868C234.552 63.8521 235.349 63.5905 235.695 63.083C236.293 62.2108 236.351 61.5395 235.868 61.0691C235.684 60.8887 235.46 60.7508 235.218 60.6682C234.976 60.5856 234.722 60.5609 234.482 60.5965C234.241 60.6321 234.021 60.7267 233.841 60.8717C233.661 61.0167 233.528 61.2073 233.454 61.4259C233.448 61.447 233.273 62.0998 232.927 63.3843C232.912 63.4419 232.911 63.5022 232.923 63.5603C232.936 63.6185 232.961 63.673 232.997 63.7197C233.034 63.7664 233.081 63.8041 233.134 63.8298C233.187 63.8555 233.245 63.8686 233.304 63.868Z" fill="white"/>
<path d="M263.014 60.8077C263.017 60.7969 263.017 60.7857 263.015 60.7749C263.013 60.7641 263.009 60.754 263.002 60.7456C262.996 60.7371 262.988 60.7304 262.98 60.7261C262.971 60.7217 262.961 60.7198 262.951 60.7205H261.079C261.008 60.72 260.939 60.7418 260.881 60.7831C260.823 60.8244 260.78 60.8829 260.757 60.9505C259.834 63.4137 258.827 65.5492 257.737 67.357C256.95 68.6626 255.734 69.2335 254.087 69.0697C254.033 69.0648 253.98 69.0479 253.933 69.0201C253.886 68.9922 253.845 68.9542 253.814 68.9087C253.784 68.8632 253.763 68.8113 253.755 68.7569C253.746 68.7025 253.75 68.6468 253.765 68.5939L254.079 67.5314C254.108 67.4291 254.17 67.339 254.255 67.2747C254.34 67.2104 254.444 67.1753 254.551 67.1746H255.275C255.433 67.1745 255.588 67.1298 255.721 67.0456C255.855 66.9615 255.962 66.8413 256.03 66.6989L259.64 59.0634C259.659 59.0252 259.688 58.993 259.724 58.9706C259.76 58.9482 259.802 58.9364 259.844 58.9365H265.617C265.641 58.9372 265.664 58.9431 265.685 58.9537C265.707 58.9642 265.725 58.9792 265.74 58.9976C265.754 59.0159 265.764 59.037 265.769 59.0594C265.773 59.0818 265.773 59.1048 265.767 59.1268L262.951 68.7366C262.931 68.8075 262.887 68.8698 262.828 68.9141C262.768 68.9584 262.696 68.9824 262.621 68.9824H260.843C260.818 68.9823 260.792 68.9761 260.769 68.9644C260.747 68.9527 260.727 68.9358 260.712 68.915C260.696 68.8943 260.686 68.8702 260.682 68.8447C260.677 68.8193 260.679 68.7931 260.686 68.7684L263.014 60.8077Z" fill="white"/>
<path d="M173.023 62.6627C173.286 62.5253 173.645 62.3033 174.101 61.9967C174.553 61.6884 175.096 61.5538 175.619 61.62C176.142 61.6863 176.606 61.9486 176.917 62.3535C177.147 62.6495 177.171 63.1702 176.987 63.9155C176.594 65.4907 176.146 67.0686 175.642 68.6491C175.616 68.7343 175.562 68.8086 175.488 68.8614C175.414 68.9141 175.325 68.9425 175.234 68.9424H173.629C173.598 68.9424 173.566 68.935 173.538 68.9208C173.51 68.9067 173.485 68.8861 173.466 68.8608C173.447 68.8354 173.434 68.806 173.428 68.7748C173.423 68.7436 173.424 68.7114 173.432 68.6808L174.762 64.1534C174.8 64.0209 174.798 63.8795 174.757 63.7477C174.716 63.6159 174.636 63.4998 174.53 63.4143C174.423 63.3288 174.293 63.278 174.158 63.2684C174.023 63.2588 173.888 63.2909 173.771 63.3605L173.252 63.6618C172.62 64.0334 172.153 64.6317 171.946 65.3348L171.026 68.4826C170.99 68.6085 170.914 68.7193 170.809 68.798C170.704 68.8767 170.575 68.919 170.444 68.9186H169.06C169.015 68.9179 168.971 68.9069 168.932 68.8864C168.892 68.8659 168.858 68.8365 168.831 68.8005C168.804 68.7645 168.786 68.7229 168.778 68.6787C168.77 68.6346 168.772 68.5892 168.784 68.546L170.664 62.1315C170.694 62.0293 170.754 61.9391 170.838 61.8737C170.921 61.8082 171.023 61.7708 171.128 61.7668L172.182 61.7271C172.259 61.7254 172.336 61.7404 172.407 61.771C172.478 61.8016 172.541 61.8471 172.593 61.9044C172.644 61.9617 172.683 62.0293 172.706 62.1028C172.728 62.1762 172.735 62.2536 172.725 62.3297C172.719 62.335 172.711 62.3614 172.701 62.409C172.69 62.4505 172.691 62.4942 172.704 62.5349C172.718 62.5756 172.743 62.6116 172.777 62.6384C172.811 62.6652 172.852 62.6818 172.896 62.6861C172.94 62.6904 172.984 62.6823 173.023 62.6627Z" fill="white"/>
<path d="M182.413 68.2525C180.73 70.0365 177.922 68.9344 178.488 66.2703C179.322 62.327 181.915 60.8707 186.267 61.9015C186.331 61.917 186.392 61.9456 186.445 61.9856C186.498 62.0256 186.542 62.076 186.576 62.1339C186.609 62.1918 186.63 62.2559 186.638 62.3222C186.645 62.3886 186.64 62.4559 186.621 62.5199L184.835 68.6252C184.812 68.6997 184.769 68.7664 184.712 68.818C184.656 68.8696 184.587 68.9044 184.513 68.9185C183.417 69.1141 182.84 68.9344 182.782 68.3794C182.779 68.3376 182.764 68.2976 182.739 68.2645C182.713 68.2314 182.679 68.2065 182.639 68.193C182.6 68.1795 182.557 68.1779 182.517 68.1885C182.477 68.1991 182.441 68.2213 182.413 68.2525ZM183.648 63.1067C182.017 63.0696 181.021 64.1189 180.659 66.2544C180.63 66.4233 180.637 66.5972 180.679 66.7619C180.72 66.9267 180.796 67.0775 180.898 67.2021C181.001 67.3267 181.129 67.4215 181.27 67.4787C181.412 67.5358 181.564 67.5537 181.713 67.531C181.896 67.5045 182.109 67.3724 182.35 67.1345C183.189 66.3099 183.745 65.1179 184.017 63.5586C184.026 63.5038 184.024 63.4478 184.009 63.3942C183.995 63.3406 183.969 63.2907 183.934 63.2479C183.899 63.205 183.856 63.1703 183.806 63.1459C183.757 63.1216 183.703 63.1082 183.648 63.1067Z" fill="white"/>
<path d="M118.778 65.5412C119.433 65.7103 119.716 66.0883 119.627 66.675C119.249 69.1726 115.757 69.4105 113.783 68.8158C113.548 68.7426 113.341 68.6009 113.187 68.4088C113.032 68.2167 112.939 67.9829 112.918 67.7375C112.567 63.6726 114.357 61.6296 118.29 61.6084C118.568 61.6065 118.845 61.6599 119.099 61.7647C119.354 61.8694 119.58 62.0229 119.761 62.2138C119.942 62.4047 120.073 62.6282 120.145 62.8678C120.217 63.1075 120.228 63.3572 120.178 63.5986C120.062 64.143 119.58 64.632 118.73 65.0654C118.683 65.0878 118.644 65.1243 118.619 65.1699C118.593 65.2155 118.582 65.268 118.587 65.3201C118.593 65.3722 118.614 65.4215 118.648 65.461C118.682 65.5006 118.727 65.5286 118.778 65.5412ZM118.113 63.3112C118.077 63.2227 118.008 63.1489 117.91 63.094C117.813 63.0391 117.689 63.0041 117.545 62.9911C117.401 62.9781 117.24 62.9873 117.072 63.0181C116.904 63.049 116.732 63.1009 116.565 63.1709C116.398 63.2409 116.24 63.3277 116.1 63.4262C115.959 63.5248 115.84 63.6332 115.748 63.7452C115.655 63.8573 115.593 63.9708 115.562 64.0793C115.532 64.1878 115.536 64.2892 115.572 64.3776C115.609 64.4661 115.678 64.5398 115.775 64.5948C115.873 64.6497 115.997 64.6847 116.141 64.6977C116.285 64.7107 116.445 64.7015 116.613 64.6707C116.782 64.6398 116.954 64.5879 117.121 64.5179C117.288 64.4478 117.446 64.3611 117.586 64.2625C117.726 64.164 117.846 64.0556 117.938 63.9436C118.03 63.8315 118.093 63.718 118.123 63.6095C118.153 63.501 118.15 63.3996 118.113 63.3112ZM117.475 66.5881C117.468 66.3717 117.375 66.1671 117.218 66.0194C117.061 65.8716 116.852 65.7929 116.638 65.8005L115.569 65.838C115.462 65.8418 115.358 65.8666 115.261 65.9111C115.164 65.9556 115.077 66.0188 115.004 66.0973C114.932 66.1757 114.875 66.2678 114.838 66.3683C114.801 66.4687 114.784 66.5756 114.787 66.6828L114.794 66.8888C114.802 67.1052 114.894 67.3098 115.052 67.4575C115.209 67.6052 115.418 67.684 115.632 67.6764L116.701 67.6388C116.808 67.6351 116.912 67.6103 117.009 67.5658C117.106 67.5213 117.193 67.458 117.266 67.3796C117.338 67.3012 117.395 67.2091 117.432 67.1086C117.469 67.0082 117.486 66.9013 117.483 66.7941L117.475 66.5881Z" fill="white"/>
<path d="M125.753 68.3168C125.765 68.2753 125.764 68.2316 125.75 68.1908C125.737 68.1501 125.711 68.1141 125.677 68.0873C125.643 68.0605 125.602 68.0439 125.558 68.0396C125.514 68.0353 125.47 68.0435 125.431 68.0631C125.169 68.2058 124.809 68.4331 124.353 68.745C123.904 69.0546 123.363 69.1924 122.841 69.1306C122.318 69.0688 121.853 68.8121 121.538 68.412C121.302 68.1213 121.273 67.6006 121.451 66.85C121.829 65.2695 122.261 63.6864 122.749 62.1006C122.775 62.0167 122.828 61.9432 122.9 61.8906C122.972 61.838 123.059 61.8088 123.15 61.8072L124.762 61.7834C124.794 61.7835 124.825 61.7909 124.853 61.805C124.881 61.8192 124.906 61.8398 124.925 61.8651C124.944 61.8904 124.957 61.9199 124.963 61.9511C124.969 61.9823 124.967 62.0145 124.959 62.0451L123.677 66.5883C123.639 66.7214 123.642 66.863 123.684 66.9948C123.727 67.1266 123.807 67.2424 123.915 67.3271C124.023 67.4118 124.153 67.4616 124.289 67.4698C124.424 67.478 124.559 67.4444 124.676 67.3733L125.187 67.0641C125.814 66.6869 126.275 66.0861 126.477 65.3832L127.365 62.2195C127.4 62.0921 127.476 61.9796 127.581 61.8994C127.686 61.8192 127.815 61.7756 127.947 61.7755L129.332 61.7676C129.375 61.7686 129.418 61.7796 129.457 61.7996C129.496 61.8196 129.53 61.8482 129.556 61.8832C129.583 61.9183 129.601 61.9588 129.61 62.0019C129.619 62.0451 129.618 62.0896 129.607 62.1323L127.79 68.5706C127.763 68.6721 127.704 68.7626 127.622 68.8293C127.54 68.8961 127.44 68.9359 127.334 68.9432L126.28 68.9908C126.203 68.9935 126.126 68.9796 126.055 68.95C125.983 68.9204 125.919 68.8758 125.867 68.8192C125.815 68.7627 125.775 68.6957 125.752 68.6226C125.728 68.5496 125.72 68.4723 125.73 68.3961C125.735 68.3909 125.743 68.3644 125.753 68.3168Z" fill="white"/>
<path d="M134.988 68.3717C134.985 68.3299 134.969 68.29 134.944 68.2569C134.918 68.2237 134.884 68.1989 134.844 68.1853C134.805 68.1718 134.763 68.1703 134.722 68.1809C134.682 68.1914 134.646 68.2137 134.618 68.2449C132.951 70.0447 130.135 68.9664 130.678 66.3023C131.48 62.3537 134.06 60.8763 138.417 61.87C138.481 61.8848 138.542 61.9125 138.595 61.9516C138.649 61.9906 138.693 62.0402 138.727 62.0973C138.761 62.1543 138.783 62.2177 138.792 62.2836C138.801 62.3495 138.796 62.4165 138.779 62.4806L137.04 68.6017C137.017 68.6752 136.976 68.7412 136.921 68.7927C136.866 68.8443 136.798 68.8796 136.726 68.895C135.63 69.1012 135.051 68.9268 134.988 68.3717ZM135.955 63.1228C134.319 63.0805 133.315 64.1324 132.943 66.2785C132.913 66.4493 132.918 66.6255 132.959 66.7925C133 66.9595 133.075 67.1126 133.178 67.2389C133.282 67.3653 133.409 67.4613 133.552 67.519C133.694 67.5768 133.847 67.5946 133.997 67.5709C134.18 67.5445 134.393 67.4123 134.634 67.1745C135.483 66.3446 136.047 65.1473 136.325 63.5827C136.335 63.5273 136.333 63.4704 136.32 63.4158C136.306 63.3613 136.281 63.3103 136.245 63.2666C136.21 63.2229 136.166 63.1873 136.116 63.1625C136.066 63.1377 136.011 63.1241 135.955 63.1228Z" fill="white"/>
<path d="M146.148 61.7676H147.831C147.882 61.7671 147.932 61.7818 147.975 61.8101C148.018 61.8383 148.052 61.8787 148.072 61.9262C148.092 61.9736 148.098 62.0261 148.089 62.0769C148.079 62.1277 148.055 62.1746 148.02 62.2116L145.062 65.1929C145.025 65.2303 144.999 65.2784 144.989 65.3309C144.98 65.3833 144.986 65.4375 145.007 65.4862L146.392 68.5547C146.41 68.5947 146.418 68.6387 146.416 68.6827C146.413 68.7267 146.399 68.7693 146.375 68.8065C146.352 68.8437 146.319 68.8743 146.281 68.8954C146.243 68.9165 146.199 68.9275 146.156 68.9274H144.386C144.337 68.9276 144.288 68.9135 144.246 68.8868C144.204 68.8601 144.171 68.8219 144.15 68.7767L142.939 66.0492C142.918 65.9997 142.882 65.9581 142.836 65.9299C142.791 65.9018 142.737 65.8886 142.684 65.892C142.631 65.8955 142.58 65.9155 142.538 65.9493C142.496 65.9831 142.466 66.0291 142.451 66.0809L141.673 68.745C141.657 68.8001 141.624 68.8486 141.579 68.883C141.533 68.9174 141.478 68.9358 141.421 68.9353H139.762C139.721 68.9356 139.681 68.9265 139.645 68.9086C139.609 68.8907 139.578 68.8646 139.553 68.8322C139.529 68.7999 139.512 68.7623 139.505 68.7224C139.497 68.6825 139.499 68.6414 139.51 68.6023L141.452 61.9658C141.468 61.9107 141.501 61.8622 141.546 61.8278C141.592 61.7935 141.647 61.7751 141.704 61.7755H143.372C143.411 61.7764 143.45 61.7865 143.485 61.8049C143.52 61.8233 143.551 61.8496 143.574 61.8817C143.598 61.9139 143.614 61.951 143.621 61.9904C143.628 62.0297 143.626 62.0701 143.615 62.1085L143.041 64.0908C143.024 64.1468 143.026 64.207 143.046 64.2618C143.067 64.3167 143.106 64.3629 143.155 64.3931C143.205 64.4232 143.264 64.4357 143.322 64.4283C143.379 64.4209 143.433 64.3942 143.474 64.3524L145.959 61.8469C145.984 61.8215 146.013 61.8013 146.045 61.7877C146.078 61.7741 146.113 61.7672 146.148 61.7676Z" fill="white"/>
<path d="M155.131 62.4309C155.751 63.0758 156.027 64.0052 155.898 65.0148C155.77 66.0243 155.248 67.0313 154.446 67.8143C153.645 68.5972 152.63 69.0919 151.625 69.1895C150.62 69.2872 149.707 68.9798 149.087 68.335C148.468 67.6901 148.191 66.7607 148.32 65.7511C148.448 64.7416 148.971 63.7346 149.772 62.9516C150.573 62.1687 151.588 61.674 152.593 61.5764C153.598 61.4787 154.511 61.7861 155.131 62.4309ZM153.034 63.3344C152.697 63.1806 152.277 63.2515 151.864 63.5314C151.452 63.8113 151.081 64.2774 150.833 64.827C150.711 65.0991 150.623 65.3836 150.573 65.6642C150.524 65.9447 150.514 66.2159 150.545 66.4622C150.577 66.7085 150.648 66.925 150.755 67.0995C150.862 67.274 151.002 67.403 151.169 67.4791C151.505 67.6329 151.926 67.562 152.338 67.2821C152.751 67.0021 153.122 66.5361 153.369 65.9865C153.491 65.7144 153.58 65.4299 153.629 65.1493C153.679 64.8687 153.688 64.5976 153.657 64.3513C153.626 64.105 153.555 63.8885 153.448 63.714C153.341 63.5395 153.2 63.4105 153.034 63.3344Z" fill="white"/>
<path d="M162.281 66.8331L164.428 62.2899C164.525 62.0855 164.686 61.9193 164.887 61.8174C165.088 61.7155 165.316 61.6837 165.537 61.7269C166.271 61.8749 167.039 61.8644 167.841 61.6952C167.883 61.6868 167.927 61.6895 167.968 61.7029C168.009 61.7163 168.045 61.7401 168.075 61.7719C168.104 61.8037 168.124 61.8425 168.134 61.8845C168.145 61.9266 168.144 61.9706 168.132 62.0124L166.205 68.6013C166.178 68.6955 166.121 68.7781 166.043 68.8368C165.965 68.8954 165.87 68.9269 165.773 68.9264H164.357C164.327 68.926 164.296 68.9189 164.269 68.9053C164.242 68.8918 164.218 68.8724 164.2 68.8485C164.181 68.8247 164.169 68.7971 164.164 68.7679C164.158 68.7388 164.16 68.7089 164.168 68.6806L165.427 64.391C165.438 64.3523 165.435 64.3108 165.418 64.2742C165.402 64.2375 165.372 64.2083 165.336 64.1918C165.299 64.1753 165.258 64.1728 165.22 64.1846C165.182 64.1965 165.149 64.2219 165.128 64.2562L162.501 68.6171C162.446 68.7111 162.367 68.789 162.272 68.8432C162.177 68.8974 162.069 68.9261 161.958 68.9264H160.841C160.691 68.9264 160.547 68.8654 160.441 68.7568C160.335 68.6483 160.275 68.5011 160.275 68.3476C160.275 66.249 160.199 64.8509 160.047 64.1532C160.041 64.1335 160.029 64.1163 160.013 64.1041C159.997 64.0918 159.977 64.0852 159.957 64.0852C159.936 64.0852 159.917 64.0918 159.9 64.1041C159.884 64.1163 159.872 64.1335 159.866 64.1532L158.553 68.6568C158.528 68.7355 158.478 68.8041 158.412 68.8526C158.345 68.9011 158.265 68.927 158.183 68.9264H157.137C157.099 68.9268 157.061 68.9181 157.027 68.901C156.992 68.8839 156.962 68.8589 156.939 68.8281C156.916 68.7972 156.901 68.7613 156.894 68.7232C156.888 68.6852 156.89 68.6461 156.901 68.6092L158.797 62.1313C158.825 62.0311 158.886 61.943 158.97 61.8801C159.053 61.8172 159.155 61.7829 159.261 61.7824H161.211C161.317 61.7824 161.42 61.825 161.495 61.9009C161.57 61.9767 161.612 62.0795 161.612 62.1868V66.6746C161.613 66.7541 161.641 66.8311 161.69 66.8931C161.74 66.9552 161.808 66.9988 161.885 67.0171C161.962 67.0353 162.043 67.0271 162.114 66.9938C162.186 66.9604 162.245 66.9039 162.281 66.8331Z" fill="white"/>
<path d="M190.24 66.1985L189.509 68.7199C189.494 68.7729 189.461 68.8194 189.417 68.8523C189.373 68.8852 189.32 68.9028 189.265 68.9023H187.59C187.551 68.9026 187.512 68.8937 187.477 68.8762C187.441 68.8587 187.411 68.8332 187.387 68.8016C187.363 68.77 187.347 68.7332 187.34 68.6943C187.333 68.6553 187.335 68.6152 187.346 68.5772L189.281 61.9724C189.296 61.9194 189.328 61.8729 189.372 61.84C189.416 61.8071 189.47 61.7895 189.525 61.79H191.208C191.247 61.7897 191.286 61.7986 191.321 61.8161C191.356 61.8336 191.387 61.8591 191.411 61.8907C191.435 61.9223 191.451 61.9591 191.458 61.9981C191.465 62.037 191.463 62.0771 191.452 62.1151L190.862 64.1449C190.851 64.1829 190.849 64.223 190.856 64.262C190.863 64.301 190.879 64.3377 190.902 64.3693C190.926 64.4009 190.957 64.4265 190.992 64.444C191.027 64.4615 191.066 64.4704 191.106 64.47H193.127C193.182 64.4705 193.235 64.453 193.279 64.4201C193.323 64.3872 193.355 64.3407 193.371 64.2877L194.039 61.9962C194.055 61.9432 194.087 61.8967 194.131 61.8638C194.175 61.8309 194.228 61.8133 194.283 61.8138H195.966C196.005 61.8135 196.044 61.8224 196.079 61.8399C196.115 61.8574 196.145 61.8829 196.169 61.9145C196.193 61.9461 196.209 61.9829 196.216 62.0218C196.223 62.0608 196.221 62.1009 196.21 62.1389L194.283 68.7278C194.268 68.7808 194.235 68.8273 194.191 68.8603C194.147 68.8932 194.094 68.9107 194.039 68.9102H192.364C192.325 68.9106 192.286 68.9016 192.251 68.8842C192.215 68.8667 192.185 68.8411 192.161 68.8095C192.137 68.7779 192.121 68.7412 192.114 68.7022C192.107 68.6632 192.109 68.6231 192.12 68.5851L192.773 66.3412C192.784 66.3032 192.786 66.2631 192.779 66.2242C192.772 66.1852 192.756 66.1484 192.732 66.1168C192.708 66.0852 192.678 66.0597 192.642 66.0422C192.607 66.0247 192.568 66.0158 192.529 66.0162H190.484C190.429 66.0157 190.376 66.0332 190.332 66.0661C190.288 66.099 190.256 66.1455 190.24 66.1985Z" fill="white"/>
<path d="M201.62 68.3234C201.627 68.282 201.623 68.2395 201.607 68.2005C201.592 68.1615 201.566 68.1274 201.533 68.1021C201.5 68.0768 201.46 68.0611 201.419 68.0568C201.377 68.0525 201.336 68.0597 201.298 68.0777C201.036 68.2151 200.677 68.4397 200.22 68.7516C199.77 69.0602 199.229 69.1965 198.706 69.1333C198.184 69.07 197.719 68.8118 197.405 68.4107C197.169 68.1199 197.14 67.5993 197.318 66.8487C197.701 65.2682 198.139 63.6877 198.632 62.1072C198.657 62.0205 198.711 61.9445 198.784 61.8902C198.858 61.8359 198.948 61.8064 199.041 61.8059L200.645 61.798C200.677 61.798 200.708 61.8054 200.736 61.8196C200.764 61.8337 200.789 61.8543 200.808 61.8796C200.827 61.905 200.84 61.9344 200.846 61.9656C200.852 61.9968 200.85 62.029 200.842 62.0596L199.544 66.5949C199.506 66.728 199.509 66.8697 199.551 67.0015C199.594 67.1332 199.674 67.249 199.782 67.3338C199.89 67.4185 200.02 67.4682 200.156 67.4765C200.291 67.4847 200.426 67.451 200.543 67.3799L201.062 67.0786C201.689 66.7014 202.15 66.1007 202.352 65.3977L203.256 62.2341C203.292 62.1094 203.367 61.9996 203.47 61.921C203.574 61.8425 203.7 61.7993 203.83 61.798L205.215 61.79C205.259 61.7899 205.303 61.8 205.343 61.8195C205.382 61.839 205.417 61.8674 205.445 61.9026C205.472 61.9378 205.491 61.9788 205.5 62.0225C205.509 62.0662 205.508 62.1114 205.498 62.1548L203.657 68.593C203.628 68.6931 203.569 68.7818 203.487 68.8471C203.406 68.9123 203.306 68.951 203.201 68.9578L202.147 69.0053C202.069 69.0082 201.992 68.9941 201.92 68.964C201.848 68.934 201.783 68.8886 201.731 68.8312C201.678 68.7738 201.639 68.7057 201.616 68.6317C201.593 68.5577 201.586 68.4795 201.597 68.4027C201.602 68.3975 201.61 68.371 201.62 68.3234Z" fill="white"/>
<path d="M208.247 65.3035C207.681 65.1661 207.427 64.7379 207.484 64.019C207.529 63.4962 207.753 63.005 208.119 62.6291C208.485 62.2532 208.969 62.0158 209.49 61.9575C210.077 61.8941 211.632 61.8253 214.154 61.7513C214.214 61.7487 214.274 61.7607 214.329 61.7863C214.384 61.8119 214.432 61.8504 214.469 61.8986C214.506 61.9467 214.531 62.0032 214.542 62.0631C214.553 62.123 214.549 62.1847 214.531 62.2429L212.667 68.6019C212.64 68.6936 212.585 68.774 212.51 68.8312C212.435 68.8884 212.344 68.9192 212.251 68.9191H210.709C210.675 68.9196 210.641 68.9118 210.61 68.8961C210.579 68.8805 210.552 68.8574 210.531 68.8289C210.511 68.8004 210.497 68.7671 210.491 68.7319C210.485 68.6966 210.487 68.6602 210.497 68.6257L211.016 66.8417C211.045 66.7507 211.045 66.6533 211.017 66.5621C210.99 66.471 210.935 66.3903 210.86 66.3305C210.786 66.2707 210.695 66.2346 210.599 66.2267C210.503 66.2189 210.407 66.2398 210.324 66.2867C209.5 66.7518 208.869 67.4601 208.428 68.4116C208.355 68.5659 208.241 68.6963 208.097 68.7875C207.954 68.8787 207.788 68.9271 207.618 68.927H205.951C205.889 68.9261 205.829 68.9071 205.778 68.8721C205.727 68.8372 205.688 68.788 205.664 68.7306C205.641 68.6732 205.635 68.6101 205.646 68.5492C205.658 68.4883 205.687 68.4322 205.731 68.3878L208.365 65.7317C208.398 65.6999 208.421 65.66 208.432 65.6162C208.444 65.5724 208.444 65.5262 208.432 65.4825C208.42 65.4387 208.396 65.3991 208.364 65.3676C208.331 65.3361 208.291 65.314 208.247 65.3035ZM211.978 63.5909C211.93 63.477 211.852 63.3768 211.75 63.2962C211.648 63.2156 211.524 63.1561 211.383 63.1212C211.243 63.0862 211.09 63.0765 210.933 63.0925C210.776 63.1085 210.618 63.15 210.468 63.2145C210.318 63.2791 210.178 63.3655 210.058 63.4687C209.938 63.572 209.839 63.6901 209.767 63.8163C209.695 63.9425 209.651 64.0744 209.638 64.2044C209.625 64.3344 209.644 64.46 209.692 64.574C209.74 64.6879 209.817 64.7881 209.919 64.8687C210.021 64.9493 210.146 65.0087 210.286 65.0437C210.427 65.0786 210.58 65.0884 210.737 65.0724C210.894 65.0563 211.052 65.0149 211.202 64.9503C211.352 64.8858 211.491 64.7994 211.612 64.6962C211.732 64.5929 211.831 64.4748 211.903 64.3486C211.975 64.2223 212.019 64.0905 212.031 63.9605C212.044 63.8305 212.026 63.7049 211.978 63.5909Z" fill="white"/>
<path d="M252.227 67.2223C252.271 67.1992 252.321 67.1879 252.371 67.1897C252.421 67.1915 252.47 67.2063 252.512 67.2326C252.555 67.2589 252.59 67.2958 252.615 67.3399C252.639 67.3839 252.652 67.4335 252.652 67.484V67.928C252.652 68.1263 252.587 68.3191 252.468 68.4767C252.348 68.6343 252.181 68.748 251.991 68.8002C250.727 69.1385 249.92 69.2442 249.569 69.1173C247.497 68.3667 246.976 66.8682 248.003 64.6217C249.115 62.1954 251.018 61.2492 253.713 61.7831C253.82 61.8051 253.916 61.8637 253.985 61.949C254.054 62.0343 254.091 62.141 254.091 62.2509V63.0834C254.091 63.1498 254.076 63.2154 254.047 63.2748C254.018 63.3342 253.975 63.3857 253.922 63.4251C253.869 63.4646 253.807 63.4908 253.742 63.5017C253.678 63.5126 253.611 63.5079 253.548 63.4878C251.488 62.8641 250.229 63.6993 249.773 65.9934C249.711 66.3058 249.754 66.6265 249.894 66.8932C250.033 67.1599 250.259 67.3535 250.528 67.4364C251.084 67.6108 251.65 67.5395 252.227 67.2223Z" fill="white"/>
<path d="M270.658 68.4113C270.654 68.3695 270.639 68.3295 270.614 68.2964C270.588 68.2633 270.554 68.2384 270.514 68.2249C270.475 68.2114 270.432 68.2098 270.392 68.2204C270.352 68.231 270.316 68.2533 270.288 68.2844C268.597 70.0605 265.789 68.9584 266.355 66.2943C267.2 62.3457 269.798 60.8921 274.15 61.9334C274.214 61.9489 274.275 61.9776 274.328 62.0175C274.381 62.0575 274.425 62.108 274.459 62.1658C274.492 62.2237 274.513 62.2878 274.52 62.3542C274.528 62.4205 274.522 62.4878 274.503 62.5518L272.71 68.6571C272.687 68.7317 272.644 68.7983 272.587 68.8499C272.531 68.9016 272.462 68.9363 272.388 68.9505C271.287 69.146 270.71 68.9663 270.658 68.4113ZM271.523 63.1148C269.897 63.0778 268.904 64.1244 268.542 66.2546C268.513 66.4245 268.519 66.5996 268.561 66.7654C268.603 66.9311 268.678 67.0827 268.781 67.2076C268.884 67.3324 269.012 67.4269 269.154 67.4832C269.295 67.5395 269.447 67.5559 269.596 67.5312C269.774 67.5048 269.984 67.3726 270.225 67.1347C271.064 66.3101 271.617 65.1208 271.884 63.5667C271.893 63.5126 271.891 63.4572 271.877 63.4041C271.863 63.3511 271.838 63.3016 271.804 63.2589C271.77 63.2162 271.727 63.1813 271.679 63.1564C271.63 63.1316 271.577 63.1174 271.523 63.1148Z" fill="white"/>
<path d="M242.127 67.2295L244.927 62.1391C244.963 62.0719 245.017 62.0157 245.084 61.9766C245.15 61.9375 245.226 61.9169 245.305 61.9171H247.31C247.326 61.9181 247.341 61.9228 247.354 61.9309C247.367 61.939 247.378 61.9501 247.385 61.963C247.392 61.976 247.396 61.9903 247.395 62.0046C247.394 62.0188 247.389 62.0324 247.381 62.044C244.272 66.6375 242.274 69.587 241.388 70.8926C240.68 71.9392 239.33 72.4097 237.338 72.304C237.309 72.3028 237.28 72.295 237.255 72.2811C237.23 72.2673 237.208 72.2477 237.191 72.224C237.174 72.2002 237.163 72.1729 237.159 72.1442C237.154 72.1154 237.156 72.086 237.165 72.0582L237.511 70.8847C237.529 70.8147 237.574 70.7549 237.636 70.7178C237.697 70.6808 237.771 70.6695 237.841 70.6865C238.937 70.9243 239.789 70.3561 240.397 68.9818C240.489 68.7747 240.522 68.5439 240.491 68.3157L239.689 62.2818C239.684 62.2349 239.688 62.1873 239.702 62.1422C239.716 62.0971 239.74 62.0555 239.771 62.0203C239.802 61.985 239.84 61.9569 239.883 61.9377C239.926 61.9186 239.973 61.9089 240.019 61.9092H241.742C241.821 61.9092 241.897 61.9409 241.953 61.9974C242.009 62.0539 242.041 62.1306 242.041 62.2105V67.2136C242.043 67.223 242.047 67.2317 242.054 67.2384C242.061 67.2451 242.069 67.2496 242.079 67.2514C242.088 67.2531 242.098 67.2519 242.106 67.248C242.115 67.2441 242.122 67.2376 242.127 67.2295Z" fill="white"/>
<path d="M279.981 68.356C279.993 68.3134 279.993 68.268 279.979 68.2258C279.965 68.1835 279.94 68.1463 279.905 68.119C279.87 68.0917 279.828 68.0755 279.784 68.0725C279.74 68.0695 279.696 68.0799 279.658 68.1023C279.396 68.245 279.04 68.4697 278.589 68.7762C278.141 69.0814 277.605 69.2158 277.087 69.1526C276.569 69.0894 276.108 68.8331 275.797 68.4353C275.566 68.1393 275.54 67.6213 275.718 66.8812C276.101 65.3166 276.536 63.7467 277.024 62.1715C277.051 62.0863 277.105 62.012 277.178 61.9592C277.252 61.9065 277.341 61.8781 277.433 61.8781L279.021 61.8702C279.054 61.8702 279.086 61.8777 279.115 61.892C279.144 61.9064 279.169 61.9272 279.188 61.9528C279.207 61.9783 279.22 62.0079 279.225 62.039C279.231 62.0702 279.228 62.102 279.218 62.1318L277.928 66.6354C277.89 66.7658 277.892 66.9046 277.933 67.034C277.973 67.1635 278.052 67.2777 278.157 67.3621C278.263 67.4464 278.391 67.497 278.525 67.5074C278.66 67.5178 278.794 67.4875 278.911 67.4204L279.43 67.1112C280.053 66.7381 280.511 66.143 280.712 65.4461L281.609 62.3142C281.645 62.1882 281.721 62.0775 281.826 61.9988C281.931 61.9201 282.059 61.8777 282.191 61.8781L283.559 61.8702C283.605 61.8693 283.649 61.8792 283.69 61.8992C283.73 61.9192 283.765 61.9486 283.792 61.9851C283.819 62.0215 283.837 62.0639 283.844 62.1088C283.852 62.1536 283.849 62.1996 283.835 62.2428L282.002 68.6177C281.973 68.7186 281.913 68.8079 281.832 68.8733C281.75 68.9386 281.65 68.9767 281.546 68.9824L280.5 69.03C280.424 69.0328 280.348 69.019 280.278 68.9894C280.207 68.9599 280.144 68.9153 280.093 68.8588C280.041 68.8023 280.002 68.7351 279.979 68.662C279.956 68.5889 279.948 68.5116 279.957 68.4353C279.963 68.43 279.97 68.4036 279.981 68.356ZM280.673 67.3808C280.667 67.4147 280.673 67.4498 280.692 67.4789C280.711 67.5079 280.74 67.5287 280.773 67.5368C280.806 67.5449 280.841 67.5399 280.871 67.5226C280.901 67.5054 280.923 67.4773 280.933 67.4442C280.969 67.3702 280.985 67.2909 280.98 67.2063C280.978 67.1903 280.973 67.1747 280.964 67.1614C280.955 67.1481 280.942 67.1375 280.928 67.1309C280.915 67.1243 280.899 67.122 280.885 67.1241C280.87 67.1262 280.857 67.1327 280.846 67.1429C280.731 67.2433 280.673 67.3226 280.673 67.3808Z" fill="white"/>
<path d="M289.985 66.4845C290.002 66.434 290.008 66.3799 290 66.3269C289.993 66.2739 289.973 66.2235 289.942 66.1799C289.911 66.1363 289.87 66.1009 289.823 66.0766C289.776 66.0523 289.723 66.0399 289.67 66.0404L287.885 66.0642C287.761 66.0649 287.642 66.1057 287.545 66.1804C287.448 66.255 287.379 66.3591 287.35 66.4765L286.768 68.5935C286.74 68.6926 286.682 68.7804 286.603 68.8444C286.524 68.9084 286.428 68.9455 286.327 68.9503L284.778 68.9741C284.741 68.9746 284.704 68.9662 284.67 68.9495C284.637 68.9328 284.608 68.9084 284.586 68.8782C284.563 68.848 284.549 68.813 284.542 68.7759C284.536 68.7388 284.539 68.7008 284.55 68.6649L286.398 62.2266C286.428 62.1245 286.489 62.0343 286.572 61.9688C286.655 61.9034 286.757 61.866 286.862 61.8619L288.38 61.8302C288.424 61.8292 288.468 61.8389 288.507 61.8585C288.547 61.8781 288.581 61.9069 288.608 61.9427C288.634 61.9784 288.651 62.02 288.658 62.0639C288.665 62.1078 288.661 62.1527 288.648 62.1949L288.026 64.0661C288.01 64.1164 288.007 64.1697 288.015 64.2218C288.024 64.2739 288.045 64.3235 288.076 64.3665C288.107 64.4095 288.148 64.4449 288.195 64.4698C288.243 64.4947 288.295 64.5086 288.349 64.5102L290.095 64.534C290.222 64.5362 290.346 64.4952 290.448 64.4176C290.549 64.3399 290.621 64.23 290.653 64.1058L291.086 62.2821C291.113 62.168 291.178 62.066 291.27 61.9916C291.363 61.9172 291.477 61.8745 291.597 61.8698L293.123 61.8223C293.166 61.822 293.209 61.8317 293.247 61.8506C293.286 61.8695 293.32 61.897 293.346 61.931C293.372 61.965 293.39 62.0044 293.397 62.0461C293.405 62.0878 293.402 62.1307 293.39 62.1711L291.526 68.5063C291.492 68.63 291.419 68.7394 291.319 68.818C291.218 68.8966 291.095 68.9402 290.968 68.9424L289.544 68.9662C289.498 68.9662 289.452 68.9551 289.411 68.9337C289.37 68.9123 289.334 68.8814 289.307 68.8434C289.28 68.8054 289.263 68.7614 289.256 68.7152C289.25 68.669 289.254 68.6219 289.269 68.5777L289.985 66.4845ZM287.059 65.4458C287.195 65.3665 287.245 65.2211 287.208 65.0097C287.207 64.9882 287.202 64.9674 287.193 64.9484C287.184 64.9294 287.171 64.9125 287.155 64.8988C287.14 64.8851 287.121 64.8748 287.101 64.8686C287.082 64.8623 287.06 64.8601 287.039 64.8622C287.018 64.8643 286.997 64.8706 286.978 64.8807C286.959 64.8908 286.942 64.9046 286.927 64.9213C286.913 64.9379 286.902 64.9571 286.895 64.9777C286.888 64.9983 286.885 65.0199 286.886 65.0414V65.3427C286.886 65.363 286.892 65.3829 286.902 65.4005C286.912 65.418 286.926 65.4327 286.944 65.443C286.961 65.4533 286.981 65.459 287.001 65.4595C287.021 65.46 287.041 65.4553 287.059 65.4458Z" fill="white"/>
<path d="M222.973 64.6611C222.967 64.5343 222.967 64.4655 222.973 64.455C223.497 63.5246 223.919 62.848 224.239 62.4252C224.351 62.2797 224.497 62.1655 224.663 62.0933C224.83 62.0211 225.011 61.9934 225.191 62.0129L225.254 62.0208C225.318 62.0271 225.38 62.0502 225.432 62.088C225.485 62.1259 225.527 62.1771 225.555 62.2368C225.583 62.2965 225.595 62.3627 225.59 62.429C225.586 62.4953 225.564 62.5595 225.529 62.6155C225.251 63.0172 224.913 63.4797 224.514 64.003C224.341 64.225 224.257 64.4232 224.263 64.5977C224.273 64.7721 224.37 64.9651 224.554 65.1765C224.994 65.6681 225.366 66.1042 225.67 66.4848C225.709 66.5377 225.735 66.5996 225.744 66.6648C225.753 66.73 225.746 66.7962 225.723 66.8573C225.7 66.9184 225.662 66.9723 225.613 67.0139C225.564 67.0555 225.505 67.0836 225.442 67.0953L225.379 67.1111C225.203 67.143 225.02 67.1285 224.85 67.0688C224.679 67.0092 224.526 66.9064 224.404 66.7702C224.053 66.3738 223.581 65.7315 222.988 64.8435C222.983 64.8329 222.978 64.7721 222.973 64.6611Z" fill="white"/>
<path d="M226.735 64.5577C226.741 64.7374 226.832 64.933 227.011 65.1445C227.446 65.6572 227.813 66.1091 228.112 66.5003C228.152 66.5536 228.178 66.6165 228.187 66.6828C228.196 66.7492 228.188 66.8167 228.163 66.8789C228.139 66.9412 228.098 66.9959 228.047 67.038C227.995 67.08 227.933 67.1078 227.868 67.1187L227.805 67.1267C227.624 67.1558 227.439 67.1376 227.267 67.0737C227.095 67.0099 226.942 66.9026 226.822 66.7619C226.476 66.3496 226.014 65.6863 225.438 64.7718C225.432 64.7612 225.427 64.7004 225.422 64.5894C225.422 64.4626 225.425 64.3939 225.43 64.3833C225.986 63.453 226.431 62.7764 226.767 62.3535C226.883 62.2111 227.032 62.1007 227.202 62.0327C227.371 61.9647 227.554 61.9414 227.734 61.965L227.797 61.9729C227.863 61.9823 227.925 62.0085 227.977 62.0491C228.03 62.0896 228.071 62.1432 228.097 62.2045C228.123 62.2659 228.133 62.333 228.126 62.3993C228.119 62.4657 228.095 62.5291 228.057 62.5834C227.768 62.9851 227.414 63.445 226.995 63.963C226.822 64.1851 226.735 64.3833 226.735 64.5577Z" fill="white"/>
<path d="M297.573 64.574C297.568 64.685 297.562 64.7458 297.557 64.7564C296.986 65.6655 296.53 66.3236 296.189 66.7307C296.07 66.8706 295.918 66.9776 295.747 67.0415C295.577 67.1053 295.393 67.1239 295.213 67.0954L295.151 67.0875C295.085 67.0765 295.023 67.0487 294.972 67.0067C294.92 66.9647 294.88 66.9099 294.855 66.8477C294.831 66.7854 294.823 66.7179 294.832 66.6515C294.841 66.5852 294.867 66.5223 294.907 66.469C295.2 66.0831 295.562 65.6365 295.992 65.129C296.176 64.9176 296.267 64.722 296.267 64.5423C296.273 64.3679 296.186 64.1723 296.008 63.9555C295.594 63.4375 295.242 62.9803 294.954 62.5838C294.917 62.5296 294.895 62.467 294.889 62.4017C294.883 62.3364 294.893 62.2706 294.919 62.2104C294.945 62.1503 294.985 62.0977 295.037 62.0577C295.088 62.0176 295.149 61.9913 295.213 61.9812L295.276 61.9733C295.455 61.9504 295.637 61.9741 295.805 62.042C295.973 62.11 296.121 62.2201 296.236 62.3618C296.571 62.7794 297.015 63.4481 297.565 64.3678C297.57 64.3784 297.573 64.4471 297.573 64.574Z" fill="white"/>
<path d="M299.997 64.5814C299.997 64.7083 299.991 64.777 299.981 64.7876C299.404 65.6809 298.945 66.3311 298.605 66.7381C298.485 66.8758 298.332 66.9802 298.161 67.0413C297.991 67.1024 297.807 67.1181 297.629 67.087L297.566 67.079C297.502 67.0684 297.441 67.0408 297.39 66.9992C297.339 66.9576 297.3 66.9033 297.276 66.8416C297.252 66.78 297.244 66.7132 297.254 66.6478C297.264 66.5823 297.29 66.5206 297.331 66.4685C297.629 66.0827 297.994 65.6413 298.424 65.1444C298.607 64.933 298.702 64.74 298.707 64.5656C298.707 64.3912 298.62 64.1929 298.447 63.9709C298.038 63.4529 297.695 62.9957 297.417 62.5992C297.38 62.5457 297.357 62.4835 297.351 62.4186C297.345 62.3536 297.355 62.2882 297.381 62.2285C297.407 62.1688 297.448 62.1168 297.5 62.0776C297.552 62.0384 297.612 62.0132 297.677 62.0046L297.74 61.9966C297.918 61.9753 298.099 62.0005 298.265 62.0699C298.432 62.1393 298.579 62.2505 298.691 62.3931C299.021 62.8107 299.454 63.4793 299.989 64.3991C299.999 64.4097 300.002 64.4704 299.997 64.5814Z" fill="white"/>
<path d="M286.883 65.3426V65.0413C286.882 65.0199 286.885 64.9982 286.892 64.9776C286.899 64.957 286.91 64.9378 286.925 64.9212C286.939 64.9045 286.956 64.8907 286.975 64.8806C286.994 64.8705 287.015 64.8642 287.036 64.8621C287.058 64.86 287.079 64.8622 287.099 64.8685C287.119 64.8748 287.137 64.885 287.153 64.8987C287.168 64.9124 287.181 64.9293 287.19 64.9483C287.199 64.9673 287.204 64.9881 287.205 65.0096C287.242 65.221 287.192 65.3664 287.056 65.4457C287.038 65.4552 287.018 65.4599 286.998 65.4594C286.978 65.4589 286.958 65.4532 286.941 65.4429C286.924 65.4326 286.909 65.4179 286.899 65.4004C286.889 65.3828 286.883 65.3629 286.883 65.3426Z" fill="white"/>
<path d="M280.674 67.3805C280.674 67.3223 280.732 67.243 280.847 67.1426C280.858 67.1324 280.872 67.1259 280.886 67.1238C280.901 67.1217 280.916 67.1241 280.93 67.1307C280.944 67.1372 280.956 67.1478 280.965 67.1611C280.974 67.1744 280.979 67.19 280.981 67.206C280.986 67.2906 280.97 67.3699 280.934 67.4439C280.924 67.477 280.902 67.5051 280.872 67.5224C280.843 67.5396 280.807 67.5447 280.774 67.5365C280.741 67.5284 280.712 67.5077 280.693 67.4786C280.675 67.4496 280.668 67.4144 280.674 67.3805Z" fill="white"/>
<path d="M220.235 75.4039C223.071 74.6166 224.949 72.4417 224.431 70.5462C223.913 68.6506 221.195 67.7521 218.36 68.5394C215.525 69.3266 213.646 71.5015 214.164 73.3971C214.682 75.2927 217.4 76.1911 220.235 75.4039Z" fill="white"/>
<path d="M180.586 101.594L188.616 74.1677C188.636 74.0968 188.68 74.0346 188.739 73.9903C188.799 73.9459 188.871 73.922 188.946 73.9219H197.747C197.789 73.9213 197.831 73.9307 197.869 73.9494C197.907 73.9682 197.94 73.9957 197.965 74.0297C197.99 74.0637 198.007 74.1033 198.014 74.1452C198.022 74.1871 198.019 74.2301 198.007 74.2708L190.747 99.0644C190.726 99.1346 190.722 99.2088 190.735 99.281C190.747 99.3531 190.777 99.4213 190.82 99.4799C190.864 99.5386 190.921 99.5861 190.986 99.6186C191.051 99.6511 191.123 99.6677 191.195 99.667H196.512C196.73 99.6673 196.942 99.5964 197.116 99.4648C197.291 99.3333 197.418 99.1483 197.48 98.9376L198.368 95.8849C198.399 95.784 198.452 95.6917 198.524 95.6152C198.596 95.5386 198.685 95.48 198.784 95.4439C198.882 95.4077 198.987 95.3951 199.091 95.407C199.195 95.4189 199.295 95.4549 199.383 95.5123C201.548 96.9553 202.427 99.0327 202.018 101.744C202.003 101.845 201.952 101.937 201.876 102.004C201.8 102.071 201.702 102.108 201.601 102.109H180.971C180.909 102.109 180.848 102.095 180.792 102.067C180.737 102.039 180.688 101.998 180.651 101.948C180.614 101.898 180.588 101.84 180.577 101.779C180.566 101.717 180.569 101.654 180.586 101.594Z" fill="white"/>
<path d="M111.507 101.935C111.518 101.953 111.524 101.974 111.525 101.996C111.525 102.017 111.52 102.038 111.509 102.057C111.499 102.076 111.484 102.091 111.465 102.102C111.447 102.113 111.426 102.118 111.404 102.118H103.925C103.845 102.117 103.767 102.097 103.698 102.058C103.63 102.019 103.572 101.963 103.532 101.896L98.5137 93.1183C98.4151 92.9491 98.2746 92.8089 98.1063 92.7115C97.938 92.6142 97.7477 92.563 97.5542 92.5632H93.7948C93.6814 92.5637 93.5713 92.6009 93.4806 92.6695C93.3899 92.738 93.3236 92.8343 93.2914 92.9438L90.7196 101.737C90.6874 101.849 90.6202 101.947 90.528 102.017C90.4359 102.087 90.3238 102.125 90.2084 102.125H81.5019C81.4734 102.125 81.4453 102.119 81.4198 102.106C81.3943 102.093 81.3722 102.075 81.3553 102.052C81.3385 102.03 81.3273 102.004 81.3227 101.977C81.3181 101.95 81.3202 101.922 81.3289 101.896L89.2017 75.0087C89.242 74.8668 89.3265 74.7417 89.4425 74.6518C89.5586 74.5619 89.7002 74.5119 89.8466 74.5092C96.3692 74.414 101.117 74.4087 104.09 74.4933C108.038 74.6096 111.278 75.5531 113.811 77.3239C118.9 80.884 118.64 87.4491 113.229 90.5731C111.326 91.6673 109.131 92.3016 106.646 92.476C106.59 92.4792 106.535 92.4969 106.487 92.5274C106.44 92.5579 106.401 92.6003 106.374 92.6504C106.347 92.7005 106.333 92.7567 106.334 92.8136C106.335 92.8705 106.35 92.9263 106.379 92.9756L111.507 101.935ZM94.4869 90.7396C96.5082 90.6841 101.314 91.2153 103.634 90.0894C106.937 88.4799 109.477 84.5551 108.408 80.8523C107.26 76.9037 101.613 76.4279 98.2149 77.0702C98.0688 77.0964 97.9335 77.1633 97.8248 77.2631C97.7161 77.3628 97.6386 77.4912 97.6014 77.6331L94.133 90.2877C94.1184 90.3409 94.1165 90.3968 94.1275 90.451C94.1385 90.5052 94.1621 90.5562 94.1964 90.6C94.2307 90.6438 94.2748 90.6792 94.3252 90.7034C94.3756 90.7277 94.431 90.74 94.4869 90.7396Z" fill="white"/>
<path d="M27.7547 99.0249C36.5896 101.599 45.1938 101.652 53.5673 99.1835C65.6374 95.6314 74.7842 88.4478 81.008 77.6328C81.0137 77.6192 81.022 77.607 81.0324 77.5966C81.0427 77.5863 81.055 77.5782 81.0686 77.5726C81.0821 77.5671 81.0965 77.5643 81.1111 77.5645C81.1257 77.5646 81.1401 77.5676 81.1535 77.5733C81.167 77.579 81.1791 77.5874 81.1894 77.5978C81.1996 77.6083 81.2077 77.6207 81.2131 77.6343C81.2186 77.6479 81.2214 77.6625 81.2213 77.6772C81.2212 77.6919 81.2182 77.7064 81.2125 77.72C78.9894 85.6013 74.5719 91.9312 67.9601 96.7097C56.3908 105.083 40.2992 106.613 27.6053 99.3659C27.5596 99.3478 27.5236 99.3125 27.5053 99.2678C27.487 99.2231 27.4879 99.1725 27.5077 99.1273C27.5275 99.0821 27.5647 99.0459 27.611 99.0267C27.6573 99.0075 27.709 99.0069 27.7547 99.0249Z" fill="white"/>
<path d="M157.217 96.4564C159.23 101.158 165.42 101.166 168.778 98.2325C169.106 97.9477 169.322 97.5594 169.38 97.1496C169.439 96.7398 169.336 96.3405 169.093 96.0362C168.484 95.275 167.533 94.6962 166.238 94.2997C161.904 92.9835 154.731 91.0885 158.027 85.1418C159.075 83.2495 160.457 81.8699 162.172 81.003C167.693 78.2173 173.342 78.0957 179.12 80.6382C179.207 80.6779 179.284 80.7358 179.346 80.808C179.408 80.8802 179.453 80.9649 179.48 81.0563C179.506 81.1476 179.512 81.2433 179.497 81.3368C179.483 81.4303 179.448 81.5193 179.396 81.5976C178.242 83.3473 176.992 84.489 175.644 85.0229C175.587 85.0454 175.527 85.0558 175.466 85.0534C175.405 85.051 175.345 85.0358 175.291 85.0088C175.237 84.9819 175.189 84.9438 175.151 84.897C175.113 84.8502 175.085 84.7959 175.07 84.7375C174.457 82.5808 172.86 81.4417 170.28 81.3201C168.228 81.225 164.46 81.9782 164.389 84.4441C164.287 88.3451 178.082 86.7593 176.69 94.157C175.99 97.8757 172.718 100.381 169.203 101.491C164.098 103.109 158.797 103.101 153.795 100.984C153.74 100.96 153.69 100.925 153.648 100.881C153.606 100.837 153.574 100.785 153.552 100.728C153.531 100.671 153.521 100.61 153.524 100.549C153.526 100.488 153.541 100.428 153.567 100.373C154.322 98.7981 155.421 97.4634 156.863 96.3692C156.891 96.3476 156.924 96.3326 156.959 96.3253C156.994 96.318 157.03 96.3186 157.064 96.327C157.098 96.3354 157.129 96.3514 157.156 96.3738C157.182 96.3962 157.203 96.4244 157.217 96.4564Z" fill="white"/>
<path d="M238.296 82.0246C238.28 82.0771 238.28 82.1332 238.296 82.1857C238.312 82.2382 238.343 82.2847 238.385 82.3195C238.427 82.3543 238.478 82.3758 238.533 82.3811C238.587 82.3865 238.641 82.3755 238.689 82.3497C243.424 79.7886 246.971 78.076 252.461 79.194C256.236 79.9631 258.186 82.199 257.258 86.108C256.823 87.9369 255.323 93.1726 252.76 101.815C252.735 101.904 252.682 101.983 252.608 102.039C252.534 102.094 252.444 102.125 252.351 102.124L244.061 102.132C244.019 102.132 243.979 102.122 243.942 102.102C243.905 102.083 243.873 102.055 243.848 102.02C243.824 101.985 243.808 101.945 243.801 101.903C243.794 101.86 243.797 101.817 243.809 101.775C244.868 98.3079 246.145 93.9444 247.639 88.6849C248.363 86.1159 248.041 82.8888 244.651 82.7937C240.503 82.6827 237.785 84.8579 236.495 89.3192C234.529 96.1116 233.315 100.243 232.853 101.712C232.815 101.831 232.742 101.935 232.643 102.009C232.544 102.083 232.425 102.123 232.303 102.124L224.281 102.132C224.226 102.132 224.173 102.119 224.124 102.094C224.076 102.07 224.034 102.034 224.001 101.99C223.968 101.947 223.946 101.896 223.936 101.842C223.926 101.788 223.928 101.733 223.943 101.68L230.321 79.8283C230.357 79.7005 230.433 79.5881 230.538 79.508C230.643 79.4278 230.771 79.3844 230.903 79.3843L238.634 79.3763C238.684 79.3766 238.734 79.3887 238.779 79.4117C238.824 79.4347 238.862 79.4679 238.892 79.5088C238.922 79.5496 238.942 79.5969 238.95 79.6469C238.959 79.6968 238.956 79.7481 238.941 79.7966L238.296 82.0246Z" fill="white"/>
<path d="M286.338 97.5423C286.385 97.5328 286.435 97.5369 286.48 97.5541C286.525 97.5713 286.565 97.601 286.594 97.6398C286.624 97.6786 286.642 97.7249 286.647 97.7735C286.651 97.8222 286.642 97.8711 286.621 97.9149C285.855 99.4743 284.752 100.51 283.31 101.023C277.652 103.053 272.168 103.174 266.856 101.388C262.806 100.024 260.848 96.3291 261.681 92.0237C263.891 80.6458 276.231 77.1888 286.055 79.5833C287.73 79.9956 290.026 81.4862 290.632 83.3099C292.48 88.868 285.968 90.105 281.776 90.4618C279.034 90.6996 275.715 90.8265 271.819 90.8423C271.725 90.8419 271.634 90.8708 271.557 90.9248C271.481 90.9789 271.424 91.0554 271.394 91.1436C270.204 94.7381 270.87 97.2383 273.392 98.6444C275.72 99.9368 280.219 99.6989 282.759 98.7792C284.82 98.0286 286.013 97.6163 286.338 97.5423ZM272.676 88.8839C276.491 89.0663 281.202 89.4786 283.561 86.2912C284.505 85.0146 283.923 83.183 282.508 82.7152C277.859 81.1929 274.053 83.7936 272.315 88.3289C272.292 88.3895 272.285 88.4545 272.292 88.5188C272.299 88.583 272.321 88.6446 272.356 88.6986C272.392 88.7526 272.439 88.7975 272.494 88.8297C272.55 88.8619 272.612 88.8805 272.676 88.8839Z" fill="white"/>
<path d="M138.77 99.1677C134.028 101.721 130.481 103.433 124.983 102.308C121.208 101.538 119.257 99.2946 120.193 95.3856C120.628 93.5567 122.133 88.3183 124.708 79.6706C124.733 79.5812 124.787 79.5027 124.861 79.447C124.935 79.3912 125.024 79.3611 125.117 79.3613H133.414C133.456 79.3616 133.497 79.3719 133.533 79.3914C133.57 79.4109 133.602 79.4391 133.627 79.4737C133.651 79.5083 133.667 79.5484 133.674 79.5909C133.681 79.6333 133.678 79.6769 133.666 79.7181C132.601 83.1857 131.32 87.5519 129.82 92.8167C129.096 95.3856 129.411 98.6206 132.809 98.7158C136.956 98.8321 139.677 96.6569 140.972 92.1903C142.949 85.3979 144.168 81.2643 144.63 79.7895C144.668 79.6693 144.743 79.5646 144.843 79.4904C144.944 79.4163 145.064 79.3766 145.188 79.3772H153.21C153.265 79.3773 153.32 79.3904 153.369 79.4154C153.418 79.4405 153.461 79.4768 153.494 79.5215C153.527 79.5662 153.549 79.618 153.558 79.6728C153.568 79.7275 153.564 79.7838 153.548 79.8371L147.146 101.697C147.11 101.825 147.034 101.937 146.929 102.017C146.824 102.097 146.696 102.141 146.564 102.141H138.825C138.775 102.141 138.725 102.129 138.681 102.106C138.636 102.083 138.597 102.049 138.567 102.009C138.537 101.968 138.517 101.921 138.509 101.871C138.501 101.821 138.504 101.769 138.519 101.721L139.163 99.4928C139.179 99.4403 139.179 99.3842 139.163 99.3317C139.147 99.2792 139.117 99.2327 139.075 99.1979C139.032 99.1631 138.981 99.1416 138.927 99.1363C138.873 99.1309 138.818 99.1418 138.77 99.1677Z" fill="white"/>
<path d="M215.387 102.125H206.924C206.888 102.125 206.852 102.117 206.819 102.1C206.786 102.084 206.758 102.061 206.736 102.031C206.714 102.002 206.699 101.968 206.692 101.932C206.685 101.896 206.686 101.859 206.696 101.824L213.224 79.5514C213.237 79.5024 213.266 79.4591 213.306 79.4277C213.345 79.3963 213.394 79.3785 213.444 79.377H221.907C221.943 79.3768 221.979 79.3852 222.012 79.4015C222.044 79.4177 222.073 79.4413 222.095 79.4705C222.117 79.4997 222.132 79.5336 222.139 79.5697C222.146 79.6057 222.145 79.6429 222.135 79.6783L215.607 101.951C215.594 101.999 215.565 102.043 215.525 102.074C215.486 102.106 215.437 102.123 215.387 102.125Z" fill="white"/>
</svg>
