<svg width="300" height="101" viewBox="0 0 300 101" fill="none" xmlns="http://www.w3.org/2000/svg">
<path d="M72.506 84.702C72.9755 85.3438 73.3929 85.7612 73.7581 85.9543C74.6398 86.7787 74.8746 87.3109 74.4624 87.5509C68.5461 91.0104 61.0803 90.306 56.7917 84.4594C56.0405 83.4315 55.0805 82.2314 53.9118 80.8591C49.8737 76.0926 44.3565 77.5093 39.6532 80.1234C35.8264 82.2523 25.872 89.2885 27.7972 94.0628C29.0415 97.1309 34.7621 98.0857 37.6498 97.8509C39.7941 97.6735 40.9419 97.5874 41.0932 97.5926C41.1308 97.594 41.1671 97.6066 41.1974 97.6288C41.2277 97.651 41.2507 97.6818 41.2634 97.7172C41.276 97.7526 41.2777 97.791 41.2683 97.8274C41.2589 97.8638 41.2388 97.8965 41.2106 97.9214C40.4645 98.5788 38.9515 99.2206 36.6716 99.8467C31.2249 101.344 25.6946 101.383 20.0809 99.9641C18.9957 99.6928 18.1923 99.2049 17.6706 98.5005C14.2898 93.9349 11.663 89.2128 9.78999 84.3342C9.77444 84.2916 9.77196 84.2454 9.78289 84.2014C9.79382 84.1575 9.81765 84.1178 9.85131 84.0875C9.88498 84.0572 9.92694 84.0377 9.9718 84.0314C10.0167 84.0252 10.0624 84.0325 10.103 84.0524C13.8803 86.056 17.3419 86.9692 20.4879 86.7918C20.5605 86.7886 20.6329 86.7999 20.7011 86.8251C20.7693 86.8502 20.8318 86.8887 20.8849 86.9382C20.9381 86.9878 20.9809 87.0474 21.0108 87.1136C21.0407 87.1798 21.0571 87.2513 21.0591 87.324C21.0696 88.0179 20.84 88.7797 20.3705 89.6094C20.3361 89.668 20.3232 89.7362 20.3338 89.8028C20.3444 89.8694 20.3779 89.9304 20.4289 89.9759C20.4798 90.0214 20.5451 90.0486 20.6142 90.0531C20.6832 90.0576 20.7518 90.0392 20.8087 90.0007C22.2643 88.9441 24.2129 87.0813 25.3242 85.6882C28.2302 82.0462 31.3188 79.0564 34.5899 76.7188C34.6281 76.69 34.6581 76.6517 34.6769 76.6078C34.6957 76.5639 34.7027 76.5157 34.6972 76.4683C34.6916 76.4208 34.6737 76.3756 34.6453 76.3371C34.6169 76.2987 34.5789 76.2684 34.5352 76.2492C26.7094 72.8132 19.6427 66.6458 14.2194 60.0948C0.242514 43.1813 -3.13823 21.0238 2.79373 0.181297C2.81013 0.128749 2.8429 0.0828174 2.88724 0.0502038C2.93159 0.0175902 2.98519 0 3.04024 0C3.09528 0 3.14889 0.0175902 3.19323 0.0502038C3.23758 0.0828174 3.27034 0.128749 3.28675 0.181297C11.4569 28.8036 29.7849 58.5921 57.9265 71.287C58.342 71.474 58.7814 71.6056 59.2334 71.6784L62.8567 72.2654C62.9333 72.2773 63.0056 72.3084 63.067 72.3556C63.1285 72.4029 63.177 72.4648 63.2082 72.5358C63.2394 72.6067 63.2522 72.6844 63.2455 72.7616C63.2388 72.8388 63.2127 72.9131 63.1698 72.9776C58.3178 80.3269 64.0541 88.9128 72.506 84.702Z" fill="white"/>
<path d="M210.553 9.21289H222.824C222.873 9.21292 222.922 9.22396 222.966 9.24521C223.01 9.26645 223.049 9.29736 223.08 9.33565C223.111 9.37394 223.133 9.41865 223.144 9.46648C223.155 9.51432 223.155 9.56406 223.145 9.61205L215.069 46.9768C215.053 47.05 215.012 47.1155 214.954 47.1624C214.895 47.2094 214.823 47.235 214.748 47.2351H202.477C202.428 47.2351 202.379 47.224 202.335 47.2028C202.291 47.1815 202.252 47.1506 202.221 47.1123C202.19 47.074 202.168 47.0293 202.157 46.9815C202.146 46.9337 202.146 46.8839 202.156 46.8359L210.232 9.47117C210.248 9.398 210.289 9.33251 210.347 9.28553C210.406 9.23856 210.478 9.21293 210.553 9.21289Z" fill="white"/>
<path d="M54.4438 38.2657C54.4339 38.1252 54.371 37.9937 54.2678 37.8978C54.1647 37.8019 54.029 37.7488 53.8881 37.7491L43.7303 37.7413C43.5844 37.7398 43.4413 37.7814 43.3188 37.8607C43.1964 37.94 43.0999 38.0537 43.0416 38.1874L39.3713 46.515C39.2751 46.7322 39.1184 46.9171 38.92 47.0475C38.7215 47.178 38.4897 47.2485 38.2522 47.2507L33.9245 47.282C33.8465 47.2823 33.7696 47.263 33.7009 47.2261C33.6322 47.1892 33.5741 47.1358 33.5319 47.0709C33.4897 47.006 33.4648 46.9317 33.4595 46.8551C33.4543 46.7784 33.4689 46.7018 33.5019 46.6324L50.6874 9.60422C50.741 9.48984 50.8268 9.39305 50.9349 9.32515C51.043 9.25724 51.1688 9.22102 51.2978 9.22071H64.7347C64.8288 9.22001 64.9198 9.2539 64.9905 9.31596C65.0612 9.37801 65.1067 9.46389 65.1182 9.55726L69.1485 46.789C69.1551 46.8493 69.1489 46.9104 69.1302 46.9681C69.1116 47.0259 69.0809 47.0791 69.0403 47.1242C68.9996 47.1693 68.9499 47.2053 68.8944 47.2298C68.8388 47.2543 68.7787 47.2668 68.718 47.2664L55.7663 47.2507C55.6045 47.2494 55.449 47.1876 55.3303 47.0776C55.2116 46.9676 55.1383 46.8172 55.1246 46.6559L54.4438 38.2657ZM52.2839 17.6423L45.3893 33.0609C45.372 33.0984 45.3645 33.1397 45.3676 33.1809C45.3707 33.2221 45.3842 33.2618 45.407 33.2963C45.4297 33.3307 45.4608 33.3589 45.4975 33.3779C45.5341 33.397 45.575 33.4064 45.6163 33.4053L53.6299 33.3896C53.67 33.3897 53.7097 33.3816 53.7464 33.3656C53.7832 33.3496 53.8162 33.3261 53.8434 33.2967C53.8706 33.2672 53.8914 33.2325 53.9045 33.1946C53.9176 33.1567 53.9227 33.1165 53.9195 33.0766L52.636 17.7049C52.6307 17.6655 52.613 17.6287 52.5854 17.6C52.5579 17.5713 52.5219 17.5521 52.4828 17.5451C52.4436 17.5382 52.4032 17.5438 52.3675 17.5613C52.3317 17.5787 52.3025 17.6071 52.2839 17.6423Z" fill="white"/>
<path d="M80.5429 9.21289H92.7668C92.8208 9.21277 92.8741 9.2248 92.9228 9.24809C92.9716 9.27137 93.0144 9.30531 93.0482 9.3474C93.082 9.38949 93.106 9.43865 93.1182 9.49123C93.1305 9.54382 93.1307 9.59849 93.119 9.65119L86.1697 41.8033C86.1579 41.856 86.1582 41.9107 86.1705 41.9633C86.1827 42.0159 86.2066 42.065 86.2404 42.1071C86.2743 42.1492 86.3171 42.1832 86.3658 42.2064C86.4145 42.2297 86.4678 42.2418 86.5218 42.2416H97.8849C97.9389 42.2415 97.9922 42.2535 98.0409 42.2768C98.0896 42.3001 98.1325 42.3341 98.1663 42.3761C98.2001 42.4182 98.224 42.4674 98.2363 42.52C98.2485 42.5726 98.2488 42.6272 98.2371 42.6799L97.3136 46.969C97.2958 47.049 97.2512 47.1206 97.1871 47.1718C97.1231 47.2231 97.0435 47.2509 96.9615 47.2507H72.4823C72.4284 47.2509 72.375 47.2388 72.3263 47.2155C72.2776 47.1923 72.2348 47.1583 72.201 47.1162C72.1671 47.0741 72.1432 47.025 72.131 46.9724C72.1187 46.9198 72.1185 46.8651 72.1302 46.8124L80.1908 9.49465C80.2086 9.41459 80.2532 9.34302 80.3173 9.29178C80.3813 9.24055 80.4609 9.21271 80.5429 9.21289Z" fill="white"/>
<path d="M127.584 29.7893H117.943C117.857 29.7892 117.773 29.8187 117.706 29.8729C117.639 29.927 117.593 30.0025 117.575 30.0867L114.953 42.226C114.942 42.2801 114.942 42.3361 114.955 42.39C114.968 42.4439 114.992 42.4944 115.026 42.5378C115.061 42.5811 115.104 42.6164 115.154 42.641C115.204 42.6655 115.258 42.6788 115.313 42.6799H126.676C126.732 42.681 126.786 42.6943 126.836 42.7189C126.885 42.7435 126.929 42.7787 126.963 42.8221C126.998 42.8655 127.022 42.9159 127.035 42.9698C127.047 43.0237 127.048 43.0797 127.036 43.1339L126.215 46.9455C126.197 47.0297 126.15 47.1052 126.083 47.1594C126.016 47.2135 125.933 47.243 125.847 47.2429H101.383C101.328 47.2418 101.274 47.2285 101.224 47.2039C101.174 47.1794 101.131 47.1441 101.096 47.1007C101.062 47.0574 101.038 47.0069 101.025 46.953C101.012 46.8991 101.012 46.8431 101.023 46.789L109.076 9.51812C109.094 9.43389 109.14 9.35839 109.207 9.30424C109.274 9.2501 109.358 9.22061 109.444 9.2207H133.829C133.885 9.22064 133.94 9.23311 133.991 9.25718C134.042 9.28126 134.086 9.31634 134.121 9.35986C134.157 9.40338 134.182 9.45423 134.195 9.5087C134.208 9.56317 134.209 9.61987 134.197 9.67465L133.391 13.4002C133.373 13.4844 133.327 13.5599 133.26 13.614C133.193 13.6682 133.109 13.6977 133.023 13.6976H121.41C121.323 13.6975 121.24 13.727 121.173 13.7811C121.106 13.8353 121.06 13.9108 121.042 13.995L118.694 24.8507C118.682 24.9054 118.683 24.9621 118.696 25.0166C118.709 25.0711 118.734 25.1219 118.77 25.1655C118.805 25.209 118.849 25.2441 118.9 25.2681C118.951 25.2922 119.006 25.3047 119.062 25.3046H128.398C128.453 25.3057 128.508 25.319 128.557 25.3436C128.607 25.3682 128.651 25.4034 128.685 25.4468C128.719 25.4901 128.744 25.5406 128.756 25.5945C128.769 25.6484 128.77 25.7044 128.758 25.7586L127.952 29.4919C127.934 29.5761 127.888 29.6516 127.821 29.7058C127.754 29.7599 127.67 29.7894 127.584 29.7893Z" fill="white"/>
<path d="M151.859 9.22172C151.926 9.2214 151.992 9.23605 152.052 9.2646C152.113 9.29316 152.166 9.33488 152.208 9.38671C152.25 9.43853 152.28 9.49913 152.295 9.56404C152.311 9.62895 152.312 9.69652 152.298 9.76177C150.326 18.6373 148.447 27.3328 146.663 35.8482C145.86 39.6781 147.328 41.8226 151.069 42.2818C156.876 43.0018 159.036 39.1589 160.061 34.2437C162.523 22.4515 164.235 14.1891 165.195 9.45652C165.211 9.38362 165.25 9.31833 165.307 9.27139C165.364 9.22445 165.435 9.19865 165.508 9.19824H170.453C170.485 9.19884 170.516 9.20622 170.544 9.21986C170.573 9.2335 170.597 9.25305 170.617 9.27707C170.636 9.30108 170.65 9.32896 170.657 9.35866C170.664 9.38836 170.664 9.41913 170.657 9.4487C168.299 20.6879 166.501 29.1146 165.265 34.729C162.737 46.1795 153.182 48.6449 142.93 47.5335C133.75 46.5317 132.209 41.3347 133.774 33.1793C135.037 26.584 136.701 18.6816 138.767 9.47218C138.784 9.40045 138.826 9.33674 138.884 9.2913C138.942 9.24587 139.014 9.22136 139.088 9.22172H151.859Z" fill="white"/>
<path d="M174.594 9.2207H205.858C205.92 9.22052 205.981 9.23419 206.037 9.26071C206.092 9.28722 206.142 9.32591 206.181 9.37394C206.22 9.42197 206.248 9.47812 206.262 9.53828C206.277 9.59844 206.277 9.66108 206.265 9.72162L205.474 13.3689C205.454 13.4621 205.403 13.5456 205.329 13.6055C205.255 13.6653 205.162 13.6979 205.067 13.6976H196.099C196.004 13.6973 195.911 13.7298 195.837 13.7897C195.763 13.8496 195.712 13.9331 195.692 14.0263L188.586 46.922C188.566 47.0152 188.515 47.0988 188.441 47.1586C188.367 47.2185 188.274 47.251 188.179 47.2507H176.112C176.05 47.2509 175.989 47.2372 175.933 47.2107C175.877 47.1842 175.828 47.1455 175.789 47.0975C175.75 47.0495 175.722 46.9933 175.707 46.9332C175.693 46.873 175.692 46.8104 175.705 46.7498L182.732 14.1985C182.745 14.138 182.744 14.0753 182.73 14.0152C182.715 13.955 182.688 13.8989 182.649 13.8508C182.61 13.8028 182.56 13.7641 182.504 13.7376C182.448 13.7111 182.387 13.6974 182.325 13.6976H173.811C173.749 13.6978 173.688 13.6841 173.632 13.6576C173.576 13.6311 173.527 13.5924 173.488 13.5444C173.449 13.4963 173.421 13.4402 173.407 13.38C173.392 13.3199 173.391 13.2572 173.404 13.1967L174.187 9.54943C174.206 9.45623 174.258 9.37268 174.332 9.31282C174.406 9.25295 174.498 9.22043 174.594 9.2207Z" fill="white"/>
<path d="M229.656 37.9683L225.461 47.0159C225.429 47.086 225.377 47.1452 225.311 47.1868C225.246 47.2284 225.171 47.2506 225.093 47.2507H220.273C220.204 47.2506 220.137 47.2332 220.077 47.2002C220.017 47.1672 219.967 47.1197 219.93 47.062C219.893 47.0042 219.872 46.9382 219.868 46.87C219.863 46.8018 219.876 46.7335 219.905 46.6716L237.176 9.45551C237.209 9.38549 237.261 9.32622 237.326 9.28464C237.391 9.24306 237.467 9.22089 237.544 9.22071H251.122C251.222 9.22004 251.319 9.25642 251.394 9.32286C251.469 9.3893 251.517 9.48113 251.529 9.58074L255.567 46.789C255.574 46.8462 255.568 46.9042 255.551 46.9592C255.533 47.0141 255.504 47.0647 255.466 47.1076C255.427 47.1505 255.38 47.1848 255.328 47.2081C255.275 47.2314 255.218 47.2433 255.16 47.2429H241.958C241.855 47.2432 241.756 47.2047 241.681 47.135C241.605 47.0653 241.559 46.9697 241.551 46.8672L240.862 38.1091C240.854 38.0067 240.808 37.9111 240.733 37.8414C240.657 37.7717 240.558 37.7331 240.455 37.7334H230.024C229.946 37.7336 229.871 37.7558 229.806 37.7974C229.74 37.839 229.689 37.8982 229.656 37.9683ZM240.056 33.4209C240.093 33.4211 240.13 33.4135 240.164 33.3987C240.198 33.3839 240.228 33.3621 240.253 33.3349C240.278 33.3076 240.297 33.2754 240.309 33.2404C240.321 33.2054 240.326 33.1682 240.322 33.1313L239.149 18.104C239.144 18.045 239.12 17.9892 239.08 17.9456C239.04 17.9019 238.986 17.8728 238.928 17.8629C238.869 17.8531 238.809 17.8629 238.757 17.891C238.705 17.9191 238.664 17.9638 238.64 18.0179L231.667 33.0452C231.649 33.0858 231.641 33.1303 231.644 33.1746C231.648 33.219 231.662 33.2618 231.686 33.2992C231.71 33.3366 231.743 33.3673 231.782 33.3885C231.821 33.4098 231.865 33.4209 231.91 33.4209H240.056Z" fill="white"/>
<path d="M294.805 9.20514H299.743C299.782 9.20543 299.82 9.21428 299.854 9.23105C299.889 9.24782 299.919 9.27208 299.943 9.30207C299.967 9.33206 299.984 9.36702 299.993 9.40441C300.002 9.44181 300.002 9.48068 299.994 9.51821L291.894 47.0395C291.882 47.0981 291.849 47.1505 291.802 47.1877C291.755 47.2248 291.696 47.2444 291.636 47.243H278.011C277.954 47.243 277.898 47.2237 277.852 47.1882C277.807 47.1528 277.775 47.1032 277.761 47.0473L271.477 20.773C271.465 20.7134 271.433 20.6596 271.386 20.6212C271.339 20.5829 271.28 20.5624 271.219 20.5633C271.158 20.5642 271.1 20.5866 271.054 20.6264C271.008 20.6661 270.978 20.7209 270.968 20.7809L265.294 47.063C265.282 47.1216 265.249 47.174 265.202 47.2111C265.155 47.2483 265.096 47.2678 265.036 47.2665H260.168C260.13 47.2662 260.092 47.2573 260.058 47.2406C260.023 47.2238 259.993 47.1995 259.969 47.1695C259.945 47.1396 259.928 47.1046 259.919 47.0672C259.91 47.0298 259.91 46.9909 259.918 46.9534L268.018 9.43212C268.03 9.37348 268.063 9.3211 268.11 9.28396C268.157 9.24683 268.216 9.22726 268.276 9.22862H282.151C282.21 9.22907 282.266 9.24946 282.312 9.28644C282.357 9.32343 282.389 9.3748 282.402 9.43212L288.302 35.9882C288.313 36.048 288.344 36.1022 288.39 36.1412C288.437 36.1803 288.496 36.2017 288.556 36.2017C288.617 36.2017 288.676 36.1803 288.723 36.1412C288.769 36.1022 288.8 36.048 288.811 35.9882L294.547 9.40864C294.56 9.35 294.593 9.29761 294.64 9.26048C294.687 9.22335 294.745 9.20378 294.805 9.20514Z" fill="white"/>
<path d="M137.045 52.5423C137.092 52.5055 137.149 52.484 137.209 52.4809C137.268 52.4777 137.327 52.493 137.378 52.5247C137.428 52.5564 137.468 52.6029 137.491 52.6579C137.514 52.7129 137.52 52.7736 137.507 52.8319C134.199 66.8261 125.638 75.7851 111.823 79.7088C103.553 82.0569 94.9344 82.7743 85.9661 81.8612C85.9292 81.8562 85.894 81.8431 85.8628 81.8228C85.8317 81.8025 85.8055 81.7755 85.7861 81.7438L81.6697 74.6137C81.6494 74.5785 81.6385 74.5387 81.6382 74.4981C81.6378 74.4576 81.648 74.4176 81.6677 74.3821C81.6874 74.3466 81.716 74.3169 81.7506 74.2957C81.7853 74.2746 81.8248 74.2628 81.8654 74.2615C99.4891 73.7971 115.558 68.3862 130.072 58.0288C131.71 56.8601 134.035 55.0312 137.045 52.5423Z" fill="white"/>
<path d="M209.16 78.7071H205.043C204.987 78.7079 204.933 78.6886 204.89 78.6527C204.847 78.6168 204.818 78.5667 204.809 78.5114L202.093 61.7466C202.088 61.7133 202.089 61.6792 202.098 61.6466C202.107 61.614 202.122 61.5836 202.144 61.5576C202.165 61.5316 202.192 61.5106 202.223 61.4959C202.253 61.4812 202.286 61.4733 202.32 61.4727H206.562C206.62 61.4724 206.676 61.4939 206.72 61.5329C206.763 61.572 206.791 61.6259 206.796 61.684L207.97 72.5475C207.976 72.5981 207.999 72.6455 208.034 72.6822C208.07 72.7189 208.116 72.7431 208.167 72.7511C208.217 72.7591 208.269 72.7504 208.314 72.7263C208.359 72.7023 208.395 72.6642 208.416 72.6179L213.519 61.637C213.538 61.5972 213.568 61.5636 213.605 61.5401C213.643 61.5165 213.686 61.504 213.73 61.504H217.494C217.553 61.5037 217.609 61.5252 217.653 61.5642C217.696 61.6033 217.723 61.6572 217.729 61.7153L218.887 72.4927C218.893 72.5434 218.916 72.5907 218.951 72.6274C218.987 72.6642 219.033 72.6883 219.084 72.6963C219.134 72.7043 219.186 72.6956 219.231 72.6715C219.276 72.6475 219.312 72.6094 219.333 72.5631L224.412 61.6214C224.431 61.5816 224.461 61.5479 224.499 61.5244C224.536 61.5009 224.579 61.4884 224.624 61.4883H228.529C228.568 61.4884 228.607 61.4985 228.642 61.5177C228.677 61.5369 228.706 61.5646 228.727 61.5983C228.748 61.6319 228.761 61.6703 228.763 61.7099C228.765 61.7495 228.757 61.7891 228.74 61.8249L220.452 78.5662C220.433 78.606 220.403 78.6396 220.366 78.6632C220.329 78.6867 220.285 78.6992 220.241 78.6993H216C215.941 78.6996 215.885 78.6781 215.841 78.639C215.798 78.5999 215.771 78.5461 215.765 78.4879L214.654 68.2115C214.647 68.1608 214.625 68.1135 214.589 68.0767C214.554 68.04 214.508 68.0158 214.457 68.0078C214.407 67.9999 214.355 68.0086 214.31 68.0326C214.265 68.0566 214.229 68.0947 214.207 68.141L209.371 78.574C209.352 78.6138 209.322 78.6474 209.285 78.671C209.247 78.6945 209.204 78.707 209.16 78.7071Z" fill="white"/>
<path d="M286.393 63.852L285.157 65.9887C285.094 66.0961 285.011 66.19 284.913 66.2651C284.814 66.3402 284.701 66.395 284.581 66.4263C284.461 66.4576 284.336 66.4647 284.213 66.4474C284.09 66.4301 283.972 66.3886 283.865 66.3253C282.149 65.3078 280.406 64.8617 278.638 64.9869C278.452 64.9997 278.271 65.051 278.108 65.1366C277.945 65.2223 277.804 65.3399 277.699 65.48C277.593 65.6201 277.524 65.7788 277.498 65.9433C277.472 66.1078 277.49 66.2735 277.55 66.427C277.779 67.001 278.257 67.4106 278.982 67.6558C281.604 68.5246 285.055 69.2759 285.579 72.0779C286.072 74.7625 284.507 77.4549 281.846 78.3315C278.158 79.5472 274.61 79.0228 271.203 76.7583C271.013 76.6298 270.879 76.4349 270.827 76.2128C270.774 75.9907 270.808 75.7578 270.921 75.5608L272.119 73.4867C272.176 73.3882 272.254 73.3031 272.347 73.2372C272.44 73.1712 272.546 73.126 272.658 73.1045C272.77 73.083 272.885 73.0857 272.996 73.1125C273.107 73.1393 273.211 73.1895 273.3 73.2598C274.764 74.3946 279.201 76.367 280.633 74.5981C280.759 74.4428 280.84 74.2573 280.869 74.0564C280.898 73.8554 280.875 73.6443 280.802 73.4396C280.728 73.235 280.606 73.0423 280.445 72.8767C280.284 72.711 280.089 72.5769 279.874 72.4849C276.587 71.0918 271.391 70.6221 272.995 65.3626C274.6 60.1109 282.081 60.6979 286.01 62.5998C286.12 62.6529 286.218 62.7283 286.297 62.8213C286.377 62.9143 286.436 63.0228 286.472 63.1403C286.508 63.2577 286.52 63.3815 286.506 63.5039C286.493 63.6263 286.454 63.7448 286.393 63.852Z" fill="white"/>
<path d="M152.306 61.5195H156.539C156.649 61.5202 156.754 61.5577 156.839 61.6259C156.925 61.694 156.984 61.7889 157.009 61.8952L160.891 78.0887C160.907 78.1602 160.907 78.2346 160.891 78.3062C160.875 78.3778 160.842 78.4448 160.796 78.502C160.75 78.5593 160.692 78.6054 160.626 78.6368C160.559 78.6683 160.487 78.6842 160.413 78.6835H156.759C156.65 78.6828 156.544 78.6454 156.459 78.5772C156.373 78.509 156.314 78.4141 156.289 78.3078L155.733 76.0303C155.709 75.924 155.649 75.8291 155.564 75.7609C155.479 75.6927 155.373 75.6553 155.264 75.6546H148.565C148.479 75.6542 148.395 75.6764 148.321 75.719C148.247 75.7616 148.185 75.8231 148.142 75.8972L146.679 78.4252C146.636 78.4994 146.575 78.5609 146.5 78.6035C146.426 78.6461 146.342 78.6683 146.256 78.6679H142.962C142.877 78.6669 142.794 78.6438 142.721 78.6008C142.648 78.5579 142.588 78.4965 142.546 78.4229C142.504 78.3493 142.482 78.266 142.482 78.1813C142.482 78.0965 142.505 78.0134 142.547 77.94L151.883 61.7622C151.926 61.688 151.988 61.6266 152.062 61.5839C152.136 61.5413 152.22 61.5191 152.306 61.5195ZM153.323 66.6147L150.42 71.6395C150.386 71.7 150.368 71.7683 150.368 71.8376C150.369 71.907 150.387 71.9751 150.422 72.0352C150.457 72.0952 150.507 72.1452 150.567 72.1801C150.627 72.215 150.695 72.2337 150.764 72.2343H154.434C154.499 72.2347 154.563 72.2205 154.621 72.1927C154.68 72.165 154.731 72.1244 154.772 72.074C154.813 72.0236 154.841 71.9647 154.856 71.9017C154.871 71.8386 154.871 71.7731 154.857 71.7099L153.738 66.6773C153.727 66.6337 153.704 66.5943 153.67 66.564C153.637 66.5338 153.596 66.5141 153.551 66.5073C153.507 66.5006 153.462 66.5073 153.421 66.5264C153.38 66.5455 153.346 66.5762 153.323 66.6147Z" fill="white"/>
<path d="M170.328 61.4883H173.615C173.703 61.4886 173.789 61.5085 173.868 61.5465C173.947 61.5845 174.016 61.6397 174.071 61.708C174.126 61.7763 174.165 61.8559 174.185 61.9412C174.205 62.0264 174.205 62.115 174.187 62.2005L170.72 78.261C170.691 78.3928 170.618 78.5106 170.512 78.5947C170.407 78.6788 170.276 78.724 170.141 78.7227H166.854C166.766 78.7224 166.68 78.7025 166.601 78.6645C166.522 78.6265 166.453 78.5713 166.398 78.5031C166.343 78.4348 166.305 78.3551 166.285 78.2699C166.265 78.1847 166.264 78.096 166.283 78.0105L169.749 61.9501C169.778 61.8183 169.851 61.7004 169.957 61.6163C170.062 61.5322 170.194 61.487 170.328 61.4883Z" fill="white"/>
<path d="M193.36 78.2054C193.382 78.2602 193.39 78.3195 193.383 78.3781C193.377 78.4367 193.356 78.4928 193.323 78.5415C193.29 78.5901 193.245 78.6299 193.193 78.6573C193.141 78.6847 193.082 78.6988 193.023 78.6985H189.377C189.098 78.6978 188.828 78.6041 188.609 78.4324C188.39 78.2607 188.236 78.0209 188.171 77.7515L187.381 74.4486C187.348 74.3086 187.267 74.1839 187.152 74.0944C187.037 74.005 186.895 73.9561 186.747 73.9555H184.274C184.152 73.9561 184.033 73.9983 183.938 74.0751C183.843 74.1519 183.776 74.2587 183.75 74.3782L182.936 78.1506C182.9 78.3149 182.809 78.462 182.678 78.5674C182.547 78.6728 182.384 78.7301 182.216 78.7298H178.921C178.834 78.7292 178.747 78.7093 178.668 78.6713C178.589 78.6334 178.519 78.5784 178.464 78.5103C178.409 78.4422 178.369 78.3627 178.348 78.2776C178.327 78.1924 178.325 78.1036 178.342 78.0176L181.825 61.9102C181.847 61.8092 181.902 61.7183 181.981 61.6518C182.061 61.5853 182.16 61.5468 182.263 61.5424C186.906 61.438 189.948 61.4745 191.388 61.6519C193.72 61.9493 195.52 63.6008 195.567 66.0818C195.629 69.1134 194.424 71.3675 191.951 72.8441C191.811 72.9278 191.704 73.0575 191.65 73.2106C191.596 73.3637 191.597 73.5304 191.654 73.6816L193.36 78.2054ZM185.511 70.3944C186.732 70.3004 188.805 70.5274 189.901 69.7917C190.997 69.0456 191.414 67.9446 191.153 66.4888C191.085 66.1026 190.883 65.7527 190.582 65.5007C190.282 65.2488 189.902 65.1109 189.51 65.1113H186.45C186.188 65.1111 185.935 65.2012 185.731 65.3664C185.528 65.5316 185.386 65.762 185.331 66.0192L184.603 69.3534C184.575 69.4837 184.577 69.6188 184.611 69.748C184.644 69.8771 184.707 69.9969 184.795 70.0978C184.883 70.1988 184.994 70.2781 185.118 70.3295C185.242 70.381 185.377 70.4032 185.511 70.3944Z" fill="white"/>
<path d="M232.497 78.6602L229.546 78.7071C229.464 78.7088 229.383 78.6885 229.311 78.6483C229.239 78.6081 229.18 78.5494 229.138 78.4784C229.097 78.4074 229.075 78.3266 229.075 78.2443C229.075 78.1621 229.098 78.0814 229.139 78.0106L238.569 62.0128C238.658 61.8625 238.785 61.7376 238.937 61.6499C239.089 61.5621 239.261 61.5146 239.438 61.5118L242.772 61.4492C242.999 61.4482 243.219 61.5235 243.396 61.6628C243.574 61.8021 243.699 61.9972 243.75 62.2163L247.741 78.0106C247.761 78.0908 247.763 78.1745 247.746 78.2554C247.729 78.3364 247.694 78.4124 247.644 78.4779C247.594 78.5435 247.529 78.5967 247.455 78.6337C247.381 78.6707 247.3 78.6904 247.217 78.6915L243.711 78.7228C243.521 78.7242 243.337 78.659 243.19 78.5387C243.044 78.4184 242.946 78.2507 242.913 78.0654L242.568 76.1556C242.541 76.0145 242.467 75.8873 242.358 75.7959C242.25 75.7045 242.114 75.6546 241.974 75.6547H235.517C235.369 75.6549 235.224 75.694 235.095 75.7681C234.966 75.8422 234.858 75.9488 234.782 76.0774L233.686 77.9558C233.564 78.1656 233.391 78.3406 233.183 78.464C232.974 78.5873 232.738 78.6549 232.497 78.6602ZM240.025 66.6462L237.223 71.6709C237.188 71.7314 237.17 71.8001 237.171 71.87C237.171 71.9398 237.191 72.0083 237.227 72.0682C237.263 72.1281 237.314 72.1773 237.375 72.2106C237.437 72.244 237.506 72.2603 237.576 72.2579L241.215 72.2031C241.279 72.2015 241.342 72.1854 241.399 72.1562C241.456 72.127 241.506 72.0853 241.545 72.0343C241.584 71.9833 241.611 71.9241 241.625 71.8613C241.638 71.7984 241.637 71.7334 241.622 71.6709L240.44 66.701C240.431 66.6567 240.409 66.6165 240.376 66.5859C240.344 66.5552 240.302 66.5356 240.257 66.5296C240.211 66.5237 240.165 66.5316 240.124 66.5525C240.082 66.5733 240.048 66.606 240.025 66.6462Z" fill="white"/>
<path d="M265.545 61.457H268.19C268.263 61.457 268.334 61.4768 268.397 61.5145C268.459 61.5521 268.51 61.6061 268.544 61.6706C268.578 61.7352 268.593 61.8077 268.589 61.8804C268.584 61.9531 268.56 62.0232 268.519 62.0832L261.476 72.2736C261.171 72.7179 260.955 73.2205 260.842 73.7528L259.926 77.9636C259.88 78.1825 259.759 78.3788 259.586 78.5198C259.412 78.6608 259.195 78.7379 258.971 78.7384H256.248C256.14 78.7389 256.033 78.7148 255.936 78.668C255.838 78.6211 255.753 78.5527 255.685 78.4678C255.618 78.3829 255.57 78.2836 255.545 78.1774C255.521 78.0711 255.52 77.9606 255.544 77.854C256.165 75.052 256.305 73.1997 255.966 72.297C254.818 69.2446 253.556 65.84 252.179 62.0832C252.152 62.0135 252.143 61.9386 252.153 61.8646C252.162 61.7906 252.189 61.7199 252.232 61.6584C252.275 61.5969 252.333 61.5465 252.4 61.5114C252.467 61.4764 252.541 61.4577 252.617 61.457H255.778C255.974 61.4574 256.165 61.5176 256.326 61.6294C256.487 61.7413 256.61 61.8996 256.678 62.0832L258.964 68.1254C258.994 68.203 259.044 68.2711 259.11 68.3224C259.175 68.3736 259.254 68.4062 259.336 68.4166C259.419 68.4271 259.503 68.415 259.579 68.3816C259.655 68.3482 259.721 68.2949 259.77 68.2271L263.816 62.3649C264.008 62.0851 264.266 61.8563 264.568 61.6982C264.869 61.54 265.204 61.4573 265.545 61.457Z" fill="white"/>
<path d="M69.3208 72.5782L72.052 77.3056C72.094 77.3775 72.1211 77.4574 72.1319 77.5407C72.1426 77.624 72.1367 77.709 72.1146 77.7908C72.0364 78.0882 71.9372 78.3256 71.8173 78.503C71.6487 78.7445 71.426 78.9429 71.1663 79.0829C70.9065 79.223 70.6166 79.3009 70.3188 79.3107C70.021 79.3205 69.7233 79.262 69.4486 79.1396C69.1738 79.0172 68.9293 78.8343 68.7339 78.6048C67.5548 77.2116 65.8801 76.3037 63.7097 75.8811C63.682 75.8785 63.655 75.8705 63.6304 75.8575C63.6057 75.8445 63.5838 75.8268 63.566 75.8054C63.5482 75.7839 63.5348 75.7592 63.5266 75.7326C63.5183 75.7059 63.5154 75.678 63.518 75.6502C63.5206 75.6225 63.5286 75.5955 63.5416 75.5708C63.5546 75.5462 63.5723 75.5243 63.5937 75.5065C63.6152 75.4887 63.6399 75.4753 63.6665 75.467C63.6931 75.4588 63.7211 75.4559 63.7489 75.4584C65.5801 75.4532 67.2105 75.9541 68.64 76.9612C68.7252 77.021 68.8256 77.0553 68.9296 77.0601C69.0336 77.0649 69.1368 77.04 69.2271 76.9883C69.3174 76.9365 69.3911 76.8601 69.4396 76.768C69.4881 76.6759 69.5093 76.5718 69.5008 76.4681L69.2034 72.6095C69.2032 72.5956 69.2077 72.5819 69.2161 72.5708C69.2245 72.5596 69.2364 72.5516 69.2499 72.548C69.2634 72.5444 69.2777 72.5454 69.2906 72.5509C69.3034 72.5564 69.3141 72.566 69.3208 72.5782Z" fill="white"/>
<path d="M82.3585 79.7005C81.1481 82.4659 79.7604 84.8009 78.1952 86.7054L73.758 85.9541C73.3928 85.761 72.9754 85.3436 72.5059 84.7018C75.4484 82.2024 76.7292 78.9544 76.3483 74.9575C76.3419 74.8864 76.3547 74.8149 76.3853 74.7504C76.4159 74.6859 76.4632 74.6308 76.5224 74.5909C76.5815 74.5509 76.6503 74.5275 76.7215 74.5232C76.7928 74.5189 76.8639 74.5337 76.9274 74.5662C79.4995 75.9124 81.3099 77.6238 82.3585 79.7005Z" fill="white"/>
<path d="M82.3586 79.7002C83.1047 81.349 83.3682 82.8491 83.149 84.2006C83.1086 84.4446 82.9879 84.6723 82.8047 84.8502C81.5943 86.019 80.0579 86.6373 78.1953 86.7051C79.7605 84.8006 81.1482 82.4656 82.3586 79.7002Z" fill="white"/>
</svg>
