<svg width="300" height="106" viewBox="0 0 300 106" fill="none" xmlns="http://www.w3.org/2000/svg">
<path d="M239.553 41.2923C239.423 41.344 239.26 41.3095 239.061 41.1888C212.332 24.3359 181.724 16.3816 149.693 14.5838C117.555 12.773 87.0066 17.6491 58.0492 29.212C37.01 37.6191 15.544 52.4931 4.16451 72.282C2.79379 74.6618 1.82395 77.2615 0.673063 79.2145C0.631524 79.2842 0.567798 79.3379 0.4921 79.3671C0.416402 79.3962 0.333116 79.399 0.255594 79.3752C0.178072 79.3513 0.110804 79.3021 0.0645737 79.2355C0.0183431 79.1688 -0.00417158 79.0886 0.000637224 79.0076C2.71621 39.4427 43.786 15.4762 77.7823 6.60354C121.529 -4.83004 170.719 -1.90697 211.259 19.227C221.932 24.7886 231.419 31.8807 239.721 40.5033C239.777 40.5588 239.818 40.6273 239.84 40.703C239.863 40.7787 239.866 40.8591 239.849 40.9372C239.832 41.0152 239.797 41.0884 239.745 41.1504C239.693 41.2123 239.627 41.2611 239.553 41.2923Z" fill="white"/>
<path d="M156.775 67.5225C156.758 67.6035 156.767 67.6879 156.801 67.7634C156.836 67.8388 156.893 67.9014 156.965 67.9418C157.037 67.9823 157.121 67.9986 157.203 67.9883C157.285 67.978 157.362 67.9417 157.422 67.8846C161.905 63.7458 166.534 61.9782 171.31 62.5817C172.245 62.6957 173.118 63.0662 173.817 63.6451C174.516 64.2241 175.007 64.9847 175.228 65.8282C175.789 67.9321 175.81 70.2645 175.293 72.8254C174.095 78.7578 173.224 83.3924 172.681 86.7294C172.635 87.0025 172.678 87.2832 172.804 87.53C172.93 87.7768 173.131 87.9767 173.379 88.1004L175.383 89.1092C175.662 89.2469 175.885 89.4749 176.017 89.756C176.148 90.037 176.181 90.3545 176.109 90.6564C176.037 90.9584 175.864 91.2269 175.62 91.4181C175.375 91.6093 175.073 91.7118 174.763 91.7089H160.9C160.724 91.7089 160.552 91.6534 160.409 91.5502C160.266 91.447 160.159 91.3015 160.103 91.1341C160.047 90.9667 160.045 90.786 160.098 90.6175C160.151 90.4491 160.255 90.3015 160.396 90.1956L163.538 87.8287C163.951 87.5196 164.32 87.1633 164.638 86.7682C164.844 86.5181 165.185 85.3454 165.659 83.2501C166.857 77.9041 167.5 73.7135 167.586 70.6784C167.646 68.8762 166.784 67.8157 165 67.4966C157.112 66.061 153.788 81.5429 153.18 86.9104C153.151 87.1849 153.205 87.4619 153.337 87.7045C153.469 87.9472 153.671 88.1439 153.917 88.2685L155.495 89.0575C155.776 89.2014 156 89.4354 156.132 89.722C156.264 90.0087 156.296 90.3313 156.223 90.6383C156.15 90.9453 155.977 91.219 155.73 91.4154C155.483 91.6119 155.177 91.7198 154.861 91.7218H141.503C141.208 91.7305 140.919 91.6299 140.693 91.4394C140.467 91.2488 140.319 90.9815 140.278 90.6887C140.236 90.3959 140.304 90.098 140.468 89.8519C140.632 89.6059 140.881 89.429 141.167 89.3549C142.822 88.8807 144.15 88.0831 145.15 86.9622C145.395 86.6919 145.561 86.356 145.629 85.9921L151.655 54.8731C151.729 54.4882 151.682 54.0897 151.52 53.7327C151.358 53.3758 151.088 53.0782 150.749 52.8813C150.723 52.8641 150.172 52.7132 149.094 52.4286C148.75 52.3382 148.455 52.115 148.272 51.806C148.088 51.4971 148.031 51.1266 148.111 50.7731C148.249 50.1436 148.611 49.8203 149.198 49.803C152.999 49.6996 156.37 49.5918 159.31 49.4797C159.426 49.4758 159.541 49.498 159.648 49.5447C159.754 49.5914 159.849 49.6614 159.924 49.7496C160 49.8377 160.055 49.9417 160.085 50.054C160.115 50.1662 160.12 50.2838 160.099 50.398L156.775 67.5225Z" fill="white"/>
<path d="M103.697 57.4548C105.555 55.6978 105.891 53.0364 104.449 51.5105C103.006 49.9847 100.331 50.1721 98.473 51.9291C96.6153 53.6862 96.2789 56.3476 97.7215 57.8734C99.1642 59.3993 101.84 59.2119 103.697 57.4548Z" fill="white"/>
<path d="M223.317 86.199L221.533 91.2561C221.474 91.4186 221.367 91.5592 221.226 91.6587C221.085 91.7582 220.917 91.8118 220.744 91.8123H207.877C207.734 91.8119 207.594 91.775 207.469 91.7052C207.344 91.6353 207.239 91.5348 207.164 91.413C207.089 91.2913 207.046 91.1524 207.04 91.0095C207.033 90.8667 207.064 90.7245 207.127 90.5965L225.8 53.5538C225.87 53.4142 225.977 53.2968 226.109 53.2145C226.242 53.1323 226.394 53.0885 226.55 53.0881H240.723C240.919 53.0878 241.109 53.1561 241.26 53.2813C241.412 53.4065 241.514 53.5807 241.55 53.7736L248.805 90.8422C248.828 90.9638 248.823 91.0889 248.792 91.2086C248.761 91.3283 248.704 91.4397 248.625 91.5348C248.546 91.6299 248.447 91.7064 248.335 91.7589C248.223 91.8113 248.101 91.8384 247.977 91.8381H235.188C234.965 91.8381 234.752 91.7496 234.594 91.5919C234.436 91.4342 234.348 91.2204 234.348 90.9974V86.4835C234.348 86.3731 234.326 86.2638 234.284 86.1618C234.241 86.0598 234.18 85.9671 234.102 85.889C234.023 85.811 233.931 85.749 233.829 85.7068C233.727 85.6645 233.618 85.6428 233.507 85.6428H224.106C223.933 85.6432 223.765 85.6968 223.624 85.7964C223.483 85.8959 223.376 86.0364 223.317 86.199ZM231.567 63.4999L226.757 77.1064C226.719 77.2147 226.708 77.3307 226.726 77.4443C226.744 77.5579 226.79 77.6654 226.86 77.7575C226.931 77.8496 227.023 77.9233 227.129 77.9722C227.235 78.0211 227.352 78.0435 227.468 78.0377L232.718 77.6755C232.912 77.6622 233.092 77.5733 233.22 77.4281C233.348 77.2829 233.414 77.0929 233.404 76.8995L232.486 63.6163C232.481 63.5079 232.438 63.4054 232.365 63.3265C232.292 63.2475 232.193 63.1968 232.085 63.1831C231.976 63.1694 231.866 63.1934 231.771 63.2512C231.677 63.309 231.605 63.3969 231.567 63.4999Z" fill="white"/>
<path d="M195.557 66.9145L192.079 84.828C191.993 85.272 192.006 85.7295 192.118 86.1676C192.23 86.6058 192.437 87.0139 192.725 87.3625C193.013 87.7111 193.375 87.9917 193.784 88.1841C194.193 88.3765 194.64 88.4759 195.092 88.4753H198.48C198.676 88.4767 198.867 88.541 199.024 88.6588C199.181 88.7766 199.296 88.9416 199.353 89.1297C199.409 89.3179 199.404 89.5191 199.338 89.704C199.271 89.8888 199.147 90.0475 198.984 90.1567C195.501 92.4504 191.734 92.8944 187.682 91.4889C183.518 90.0533 184.398 84.9832 185.083 81.297C185.712 77.9169 186.661 73.1486 187.928 66.9921C187.948 66.8883 187.944 66.7812 187.917 66.6793C187.89 66.5773 187.84 66.4831 187.771 66.4042C187.702 66.3253 187.616 66.2638 187.52 66.2244C187.424 66.185 187.32 66.1689 187.217 66.1773L184.501 66.3583C184.3 66.373 184.099 66.337 183.916 66.2537C183.733 66.1705 183.573 66.0425 183.452 65.8816C183.331 65.7207 183.253 65.5321 183.224 65.3329C183.194 65.1337 183.216 64.9304 183.286 64.7416L183.428 64.3536C183.551 64.0118 183.772 63.7133 184.064 63.495C184.355 63.2767 184.705 63.148 185.07 63.1249L187.786 62.9309C188.054 62.9113 188.309 62.8057 188.51 62.6304C188.711 62.4552 188.847 62.2199 188.898 61.9608L189.531 58.6368C189.631 58.1294 189.857 57.6555 190.19 57.2596C190.522 56.8637 190.95 56.5587 191.432 56.3734L196.514 54.3945C196.664 54.3352 196.827 54.3176 196.985 54.3432C197.144 54.3689 197.293 54.4371 197.416 54.5404C197.539 54.6438 197.632 54.7786 197.685 54.9305C197.738 55.0824 197.749 55.2457 197.717 55.4033L196.424 62.0643C196.401 62.1893 196.406 62.3177 196.438 62.4406C196.471 62.5634 196.53 62.6776 196.611 62.7751C196.693 62.8726 196.795 62.951 196.91 63.0047C197.025 63.0584 197.15 63.0862 197.277 63.0861H204.027C204.148 63.0858 204.267 63.1121 204.375 63.1633C204.484 63.2144 204.581 63.289 204.657 63.3817C204.734 63.4745 204.789 63.583 204.819 63.6996C204.848 63.8162 204.852 63.938 204.829 64.0561L204.739 64.5217C204.668 64.8966 204.474 65.2372 204.189 65.4901C203.903 65.7429 203.542 65.8937 203.161 65.9186L196.152 66.3971C196.009 66.4035 195.873 66.4581 195.765 66.552C195.656 66.646 195.583 66.7737 195.557 66.9145Z" fill="white"/>
<path d="M262.819 91.9416H252.862C252.735 91.9414 252.609 91.9135 252.494 91.8599C252.378 91.8063 252.275 91.7282 252.193 91.631C252.111 91.5338 252.05 91.4199 252.016 91.2971C251.982 91.1743 251.975 91.0456 251.996 90.9198L256.923 60.1242C256.956 59.9186 257.062 59.7316 257.221 59.5966C257.379 59.4616 257.581 59.3873 257.789 59.387H267.746C267.874 59.3872 267.999 59.415 268.115 59.4687C268.231 59.5223 268.333 59.6004 268.416 59.6976C268.498 59.7948 268.558 59.9087 268.592 60.0315C268.626 60.1543 268.633 60.283 268.613 60.4087L263.686 91.2044C263.652 91.41 263.547 91.597 263.388 91.732C263.229 91.867 263.028 91.9413 262.819 91.9416Z" fill="white"/>
<path d="M282.249 82.6162C282.077 82.668 281.965 82.8232 281.913 83.0818C281.456 85.3237 281.133 87.8803 280.943 90.7516C280.92 91.144 280.748 91.5126 280.461 91.7819C280.175 92.0512 279.797 92.2009 279.404 92.2002H270.391C270.234 92.2003 270.079 92.1663 269.937 92.1007C269.794 92.0351 269.668 91.9394 269.566 91.8201C269.464 91.7009 269.389 91.561 269.346 91.4101C269.303 91.2591 269.293 91.1007 269.318 90.9456L274.167 60.6803C274.207 60.4416 274.33 60.2248 274.515 60.0684C274.699 59.9121 274.934 59.8264 275.176 59.8267C280.926 59.8698 285.167 59.9 287.9 59.9172C292.504 59.956 298.568 61.1718 299.642 66.41C300.918 72.6528 298.792 76.9598 293.267 79.331C293.175 79.3699 293.093 79.4274 293.026 79.4998C292.958 79.5721 292.907 79.6576 292.875 79.7506C292.843 79.8436 292.832 79.942 292.841 80.0391C292.851 80.1363 292.881 80.23 292.93 80.314L298.892 90.6223C298.982 90.7793 299.03 90.9574 299.03 91.1388C299.03 91.3201 298.983 91.4983 298.893 91.6554C298.802 91.8126 298.672 91.9433 298.515 92.0344C298.359 92.1255 298.181 92.1737 297.999 92.1744H286.904C286.564 92.1739 286.233 92.0693 285.955 91.8749C285.677 91.6805 285.467 91.4057 285.353 91.0879C285.094 90.3378 284.327 87.6561 283.051 83.043C282.939 82.6291 282.671 82.4869 282.249 82.6162ZM284.422 68.2984L283.439 73.4849C283.411 73.6335 283.412 73.7862 283.443 73.9343C283.474 74.0823 283.534 74.2228 283.619 74.3478C283.704 74.4727 283.813 74.5796 283.94 74.6623C284.067 74.7451 284.208 74.802 284.357 74.83L284.745 74.8947C285.262 74.9937 285.791 75.0019 286.303 74.919C286.814 74.8361 287.297 74.6636 287.725 74.4113C288.152 74.1591 288.516 73.8321 288.794 73.449C289.073 73.0659 289.261 72.6342 289.348 72.1785L289.439 71.6612C289.525 71.2053 289.509 70.7346 289.391 70.2759C289.272 69.8172 289.054 69.3796 288.749 68.988C288.444 68.5964 288.058 68.2586 287.613 67.9938C287.168 67.729 286.672 67.5424 286.154 67.4447L285.766 67.3801C285.618 67.352 285.465 67.3534 285.317 67.3844C285.169 67.4153 285.029 67.4752 284.904 67.5604C284.779 67.6457 284.672 67.7548 284.589 67.8814C284.506 68.008 284.449 68.1497 284.422 68.2984Z" fill="white"/>
<path d="M77.0917 66.9403C77.048 67.0534 77.0444 67.178 77.0814 67.2935C77.1184 67.4089 77.1939 67.5081 77.2952 67.5747C77.3965 67.6412 77.5175 67.671 77.6381 67.6591C77.7587 67.6473 77.8717 67.5944 77.958 67.5094C80.5572 64.7933 83.2728 62.1936 86.8548 62.3747C87.1071 62.386 87.351 62.473 87.5557 62.6249C87.7605 62.7768 87.917 62.9867 88.0057 63.2283C88.7298 65.2891 88.9884 66.7851 88.7815 67.7164C88.6723 68.2094 88.4499 68.6698 88.1299 69.0647C87.81 69.4597 87.4004 69.7796 86.9302 70.0018C86.4601 70.224 85.9408 70.343 85.4093 70.3504C84.8778 70.3577 84.347 70.2533 83.8547 70.0445C79.9753 68.3803 77.3848 69.7513 76.083 74.1575C74.9537 77.9428 74.1692 82.017 73.7295 86.38C73.6792 86.8464 73.8066 87.315 74.0867 87.6933C74.3668 88.0716 74.7792 88.3322 75.2425 88.4236L77.7123 88.9021C77.9329 88.9432 78.1298 89.0658 78.264 89.2455C78.3982 89.4253 78.4598 89.649 78.4365 89.8722C78.3244 90.9586 77.6649 91.5191 76.458 91.5536C69.2337 91.7864 64.3931 91.864 61.9362 91.7864C61.4707 91.7691 61.1258 91.6958 60.9017 91.5665C60.7449 91.4825 60.6138 91.3576 60.5224 91.205C60.4311 91.0524 60.3828 90.8778 60.3828 90.6999C60.3828 90.522 60.4311 90.3475 60.5224 90.1949C60.6138 90.0423 60.7449 89.9173 60.9017 89.8334L64.1216 88.1261C64.6307 87.855 65.0726 87.4739 65.4149 87.0107C65.7573 86.5474 65.9914 86.0137 66.1001 85.4488L69.4751 68.0009C69.5109 67.8192 69.5104 67.6322 69.4739 67.4506C69.4373 67.269 69.3653 67.0964 69.2621 66.9426C69.1588 66.7889 69.0262 66.657 68.872 66.5545C68.7177 66.452 68.5448 66.381 68.363 66.3454L67.1346 66.1126C66.7494 66.0417 66.4048 65.829 66.1688 65.5164C65.9328 65.2038 65.8226 64.814 65.86 64.4241C65.8973 64.0341 66.0795 63.6724 66.3706 63.4103C66.6616 63.1482 67.0404 63.0048 67.432 63.0084H76.8201C77.0562 63.0076 77.2837 63.0953 77.4566 63.2538C77.6295 63.4123 77.7348 63.6297 77.7511 63.8621C77.8201 64.6726 77.6003 65.6987 77.0917 66.9403Z" fill="white"/>
<path d="M129.028 85.9013C129.044 85.8333 129.036 85.763 129.005 85.7013C128.974 85.6396 128.923 85.59 128.86 85.5604C128.796 85.5308 128.723 85.5228 128.653 85.5377C128.583 85.5525 128.52 85.5895 128.472 85.6426C125.718 88.9795 122.627 91.5534 118.425 92.1872C112.722 93.0667 108.313 88.9019 108.261 83.4438C108.106 67.4963 123.753 58.352 138.287 64.237C138.761 64.4286 139.168 64.7558 139.456 65.1771C139.743 65.5984 139.899 66.0949 139.904 66.6039C139.921 68.2077 139.68 70.1952 139.18 72.5664C137.878 78.8437 137.011 83.1334 136.58 85.4357C135.468 91.3508 134.106 95.468 132.494 97.7875C127.701 104.703 120.365 107.251 110.485 105.431C108.64 105.087 106.929 104.397 105.351 103.362C105.134 103.22 104.977 103.001 104.91 102.749C104.844 102.496 104.872 102.226 104.989 101.991L107.019 97.9815C107.092 97.8361 107.2 97.7115 107.334 97.6194C107.468 97.5274 107.623 97.4709 107.785 97.4554C107.946 97.4399 108.109 97.4658 108.258 97.5307C108.407 97.5956 108.537 97.6973 108.636 97.8263C112.567 102.909 119.55 103.103 124.115 98.9257C127.128 96.1708 128.253 89.9108 129.028 85.9013ZM128.91 65.4432C128.154 65.0954 127.277 65.0309 126.328 65.2535C125.38 65.4761 124.379 65.9813 123.382 66.7404C122.385 67.4994 121.413 68.4974 120.52 69.6773C119.627 70.8573 118.83 72.1961 118.177 73.6173C116.857 76.4875 116.198 79.5192 116.344 82.0454C116.49 84.5716 117.43 86.3854 118.957 87.0878C119.713 87.4356 120.59 87.5001 121.539 87.2775C122.487 87.0549 123.488 86.5497 124.485 85.7907C125.482 85.0316 126.454 84.0336 127.347 82.8537C128.241 81.6737 129.037 80.3349 129.69 78.9137C131.01 76.0435 131.669 73.0118 131.523 70.4856C131.377 67.9594 130.437 66.1456 128.91 65.4432Z" fill="white"/>
<path d="M47.3866 80.9995C47.4044 81.1195 47.46 81.2307 47.5455 81.3169C47.6309 81.4031 47.7416 81.4597 47.8615 81.4784C47.9813 81.4972 48.104 81.4772 48.2117 81.4213C48.3194 81.3654 48.4063 81.2765 48.4599 81.1676L55.3135 67.5741C55.3581 67.4875 55.3851 67.393 55.393 67.296C55.4008 67.199 55.3894 67.1013 55.3594 67.0088C55.3293 66.9162 55.2812 66.8304 55.2179 66.7565C55.1545 66.6826 55.0771 66.622 54.9902 66.5782L52.8307 65.4917C52.5701 65.359 52.3615 65.1426 52.2385 64.8772C52.1155 64.6118 52.085 64.3128 52.1521 64.0281C52.2192 63.7433 52.3799 63.4893 52.6084 63.3068C52.837 63.1243 53.1202 63.0237 53.4126 63.0213H62.7102C63.0061 63.0197 63.2936 63.1197 63.5248 63.3045C63.7559 63.4894 63.9166 63.7479 63.9802 64.0369C64.0437 64.326 64.0062 64.6281 63.874 64.8929C63.7417 65.1576 63.5226 65.369 63.2533 65.4917C61.3481 66.3799 60.0765 67.3801 59.4386 68.4924C57.3265 72.157 53.3954 79.3051 47.6453 89.9368C47.1453 90.8594 46.2315 91.5277 44.9038 91.9416C44.6894 92.0057 44.4641 92.0245 44.2422 91.9969C44.0204 91.9694 43.807 91.8959 43.6158 91.7814C43.4245 91.6669 43.2597 91.5138 43.1319 91.332C43.0041 91.1502 42.9161 90.9437 42.8736 90.7258L39.3434 72.683C39.3351 72.6303 39.3107 72.5815 39.2735 72.5433C39.2364 72.505 39.1884 72.4792 39.136 72.4693C39.0837 72.4594 39.0295 72.4659 38.981 72.4879C38.9325 72.51 38.8919 72.5465 38.8649 72.5924C32.2958 83.3017 28.6104 89.2556 27.8087 90.4542C27.4102 91.0574 26.8449 91.5188 26.2029 91.7648C25.5609 92.0109 24.879 92.0276 24.2655 91.8122C23.5758 91.5794 23.1491 90.95 22.9853 89.9239C21.5974 81.284 20.3128 74.0152 19.1318 68.1173C19.0976 67.9476 19.0174 67.7871 18.899 67.6517L17.2438 65.7116C17.0408 65.4747 16.91 65.1844 16.8671 64.8754C16.8241 64.5663 16.8708 64.2514 17.0015 63.9681C17.1323 63.6848 17.3416 63.4449 17.6046 63.2771C17.8676 63.1093 18.1733 63.0205 18.4852 63.0213C23.7741 63.0343 30.9768 62.6463 31.9726 63.487C32.0903 63.5853 32.1791 63.7127 32.2308 63.8573C32.2826 64.0019 32.2955 64.1591 32.2684 64.314C32.2412 64.469 32.175 64.6168 32.0758 64.7436C31.9766 64.8703 31.8476 64.972 31.701 65.039C29.9768 65.8237 28.6837 66.5394 27.8216 67.1861C27.5501 67.3955 27.3422 67.6769 27.2211 67.9989C27.1001 68.321 27.0707 68.6709 27.1363 69.0097L29.3604 80.4304C29.3729 80.4853 29.4009 80.5358 29.441 80.5756C29.4812 80.6154 29.5315 80.6425 29.5857 80.6536C29.6398 80.6648 29.6953 80.6593 29.745 80.638C29.7947 80.6166 29.8364 80.5804 29.8648 80.5339C32.132 76.9641 35.4812 71.4974 39.9124 64.1337C41.296 61.8444 44.3995 62.6075 44.6581 65.3624C44.6581 65.371 44.7487 65.8884 44.9297 66.9145C45.9125 72.4674 46.7315 77.1624 47.3866 80.9995Z" fill="white"/>
<path d="M102.632 63.0215C102.713 63.0216 102.793 63.0401 102.867 63.0756C102.941 63.1111 103.006 63.1627 103.058 63.2269C103.109 63.2911 103.147 63.3662 103.167 63.4469C103.187 63.5276 103.19 63.612 103.175 63.694L98.8814 85.8886C98.8305 86.1357 98.8349 86.3877 98.8944 86.6259C99.1875 87.8589 100.084 88.7039 101.584 89.1609C101.864 89.2447 102.106 89.4258 102.264 89.6716C102.423 89.9174 102.489 90.2119 102.45 90.5019C102.411 90.7919 102.27 91.0585 102.052 91.2537C101.834 91.4489 101.553 91.5599 101.261 91.5666C94.7779 91.7218 89.9287 91.7951 86.7131 91.7865C86.101 91.7865 85.7777 91.4847 85.7433 90.8811C85.726 90.5448 85.9157 90.1913 86.3122 89.8205C86.6571 89.4929 87.7993 88.8677 89.739 87.9451C90.1006 87.772 90.4163 87.5181 90.6611 87.2037C90.9058 86.8893 91.0727 86.5231 91.1485 86.1344L94.6788 68.4278C94.727 68.1838 94.717 67.9314 94.6496 67.6911C94.5822 67.4508 94.4594 67.2291 94.2908 67.0439C93.8943 66.6214 93.1313 66.2248 92.002 65.854C91.6687 65.7511 91.3836 65.5313 91.1994 65.235C91.0151 64.9387 90.944 64.5858 90.999 64.2412C91.0541 63.8967 91.2316 63.5836 91.4991 63.3595C91.7665 63.1354 92.1058 63.0153 92.4546 63.0215H102.632Z" fill="white"/>
</svg>
