<svg width="362" height="140" viewBox="0 0 362 140" fill="none" xmlns="http://www.w3.org/2000/svg">
<rect width="362" height="140" fill="black"/>
<g clip-path="url(#clip0_299_117366)">
<path d="M98.845 82.713L105.152 72.027L107.16 81.785L98.845 82.713ZM103.837 63.745L81 98.811L88.721 98.388L95.092 88.724L108.467 87.39L110.927 96.749L118.331 96.45L109.694 62.813L103.837 63.745Z" fill="white"/>
<path d="M125.898 96.2607L132.943 95.7627L139.5 58.8267L132.578 59.9147L125.898 96.2607Z" fill="white"/>
<path d="M174.851 61.2519C172.333 54.1629 163.787 55.8899 163.787 55.8899L149.79 57.7749L143.113 95.3739L150.184 94.9719L155.647 63.0709L161.227 62.3739C161.227 62.3739 162.609 62.1929 164.143 62.4679C166.522 62.8459 169.246 64.2959 167.739 69.0379C166.303 75.4039 154.579 75.7899 154.579 75.7899L165.864 93.8259L174.574 93.2829L165.456 79.4629C165.456 79.4629 177.383 75.1699 174.851 61.2519Z" fill="white"/>
<path d="M215.824 81.4209C211.179 84.4449 202.711 84.2369 202.711 84.2369L206.357 56.8069C206.357 56.8069 211.802 55.9329 212.846 55.8109C213.896 55.6809 216.232 55.6679 217.558 55.9569C222.475 56.2449 223.436 62.1549 223.436 62.1549C223.436 62.1549 226.227 74.0239 215.824 81.4209ZM218.913 48.2699C218.913 48.2699 215.679 48.1269 211.831 48.7089C207.999 49.2839 199.88 50.4379 199.88 50.4379L193.931 92.0389L206.335 91.2049C206.335 91.2049 219.392 91.2409 226.316 81.0939C227.53 79.6249 235.457 66.3379 228.569 53.7979C228.569 53.7979 224.605 48.1029 218.913 48.2699Z" fill="white"/>
<path d="M272.175 68.8788C270.766 74.4108 263.92 83.5458 254.47 81.3618C252.933 81.2418 241.328 75.7898 248.873 59.3388C248.873 59.3388 254.055 48.7518 264.26 49.6538C268.233 49.9478 276.453 55.0088 272.175 68.8788ZM266.368 41.2298C248.6 40.2008 240.836 59.1718 240.157 61.6708C234.068 80.1738 246.768 88.9558 253.472 89.6188C270.938 91.1788 278.761 73.6178 280.018 67.8648C284.798 46.8928 270.81 41.4608 266.368 41.2298Z" fill="white"/>
</g>
<defs>
<clipPath id="clip0_299_117366">
<rect width="200" height="60" fill="white" transform="translate(81 40)"/>
</clipPath>
</defs>
</svg>
