<svg width="362" height="140" viewBox="0 0 362 140" fill="none" xmlns="http://www.w3.org/2000/svg">
<rect width="362" height="140" fill="#0097DB"/>
<g clip-path="url(#clip0_297_111550)">
<path fill-rule="evenodd" clip-rule="evenodd" d="M64.6549 55.1232C67.6096 55.3341 75.8662 55.3504 80.3018 55.1232C79.9666 48.9075 80.2279 41.3425 80.3018 36.0528C74.9074 42.4235 69.4976 48.1851 64.6549 55.1232ZM91.9255 12.0913C93.1763 12.7936 92.2063 17.1121 91.5786 23.7934C90.888 31.1511 90.2253 42.8179 90.4017 55.7844C97.1277 56.6808 98.1626 63.99 90.2333 64.4899C88.7227 72.3871 91.691 89.903 88.3943 91.7027C83.3779 92.299 80.4803 88.8395 80.3288 86.1983C79.946 79.5345 80.2564 68.6317 80.3124 65.0494C73.9222 65.6726 63.8223 66.4899 55.4305 66.0064C53.2393 70.1999 39.8982 92.5906 34.9129 90.1915C31.603 85.2012 42.5286 75.0277 45.0033 66.8453C43.3549 66.1408 41.8047 67.6241 40.4631 64.9977C39.1136 57.9837 46.1047 56.6376 52.3423 56.3164C60.7225 44.1973 75.2675 23.9616 86.3658 12.7936C87.3557 11.7976 89.7169 10.8506 91.9255 12.0913Z" fill="white"/>
<path fill-rule="evenodd" clip-rule="evenodd" d="M148.58 50.0117C151.178 53.8635 148.027 54.8284 143.959 55.8682C141.044 56.6138 137.567 57.7275 135.821 58.4472C129.245 61.1569 123.19 66.5337 118.666 72.0517C114.057 77.6726 108.73 87.7754 103.602 86.6001C101.458 86.1087 101.036 83.0752 101.785 80.9276C103.479 76.0755 105.038 72.386 106.713 67.9595C110.4 58.2147 110.973 55.5329 111.877 50.3096C112.362 47.5165 114.179 45.0937 116.466 44.6729C120.417 43.9447 121.51 51.429 121.242 56.3982C121.237 56.4831 124.37 55.8682 129.362 53.6473C133.636 51.7459 137.101 49.9146 140.848 49.235C144.175 48.6307 147.627 48.5991 148.58 50.0117Z" fill="white"/>
<path fill-rule="evenodd" clip-rule="evenodd" d="M203.43 88.6798C202.73 89.1348 201.393 88.9761 200.663 88.7621C198.371 88.0898 195.856 85.167 195.856 79.7186C195.856 74.732 196.101 68.6608 195.861 63.9901C195.386 63.8704 194.857 63.9168 194.287 64.0998C193.302 64.4146 181.751 75.562 180.725 76.5865C176.939 80.3671 167.697 88.4209 163.885 88.4209C162.119 88.4209 160.323 88.2643 158.505 87.3284C153.226 84.6097 151.948 78.3466 152.159 72.2379C152.282 68.6339 154.215 64.0507 155.647 60.8227C158.906 53.4718 163.082 49.3178 166.576 50.8306C169.099 51.9226 169.811 55.5045 167.896 59.2192C166.676 61.5857 162.541 66.9524 161.925 72.7183C161.507 76.6186 164.01 77.2034 164.685 77.2134C167.418 77.2524 174.602 71.158 180.365 65.3294C185.796 59.8367 195.572 49.7259 198.918 50.0476C204.522 50.5859 205.54 53.6047 205.211 57.4865C205.168 57.9896 204.043 63.8303 204.076 70.5912C204.116 79.0384 204.631 85.0906 204.456 86.8496C204.362 87.8003 203.849 88.4056 203.43 88.6798Z" fill="white"/>
<path fill-rule="evenodd" clip-rule="evenodd" d="M283.109 77.6439C284.82 80.5619 296.961 69.8601 300.934 69.0792C302.784 68.7153 305.745 71.4757 308.047 73.7878C310.506 76.2534 314.204 78.9558 317.735 80.8219C319.571 81.7926 321.412 82.2946 322.522 82.3557C324.419 82.4591 325.596 84.0826 325.932 85.6497C326.485 88.2229 325.481 89.017 325.258 89.173C322.458 91.1345 315.675 88.1127 310.709 85.1583C305.124 81.8342 304.24 78.9874 299.477 78.8872C293.886 78.7707 291.826 82.0905 287.453 85.0196C284.011 87.3254 280.372 89.3998 276.271 89.3998C270.212 89.3998 270.172 86.1833 270.131 85.8675C270.035 85.1424 269.432 80.2192 275.709 71.3191C280.683 64.2687 288.577 58.0478 290.507 56.6526C300.26 49.5991 305.941 49.7488 308.373 50.8893C314.902 53.9518 314.138 64.6426 307.547 65.7214C304.128 66.2809 303.792 61.9708 300.3 61.975C296.651 61.9792 291.562 66.0536 289.201 68.0209C286.171 70.545 281.764 75.3486 283.109 77.6439Z" fill="white"/>
<path fill-rule="evenodd" clip-rule="evenodd" d="M244.547 76.8047C241.311 79.0125 236.49 81.6104 233.11 82.627C228.348 84.0597 225.731 83.3236 225.834 82.0106C226.048 79.2682 227.625 76.4151 230.925 72.9977C235.414 68.3502 242.454 63.6273 244.791 62.4631C246.339 61.6906 248.326 61.6974 251.163 61.698C254.158 61.6985 256.635 62.4225 256.909 63.9901C257.522 67.4723 249.396 73.495 244.547 76.8047ZM263.603 54.6935C259.062 49.7043 251.997 52.5353 250.433 53.1591C246.371 54.7778 241.899 57.3262 238.318 59.1717C233.235 61.7908 230.229 62.6877 230.364 61.9147C232.662 48.6481 240.618 38.955 247.828 28.2163C250.403 24.3819 255.644 19.7639 254.387 17.1301C252.749 13.6932 249.815 13.9094 247.544 15.7333C238.341 23.1222 231.332 38.0075 224.619 51.8978C218.662 64.2258 208.195 85.5097 211.616 89.6758C215.073 93.8857 223.22 92.0976 228.852 91.1491C241.789 88.9708 253.954 81.1195 259.433 74.5717C262.203 71.2614 268.816 60.4235 263.603 54.6935Z" fill="white"/>
<path fill-rule="evenodd" clip-rule="evenodd" d="M52.3982 106.416L48.0286 93.8214L43.4864 106.416L31 111.161L43.4864 115.905L48.0286 128.5L52.3982 115.905L65.0562 111.161L52.3982 106.416Z" fill="#E52613"/>
<path fill-rule="evenodd" clip-rule="evenodd" d="M239.484 108.6L241.707 103.898H67.3638V108.6H239.484Z" fill="#FFD000"/>
<path fill-rule="evenodd" clip-rule="evenodd" d="M67.3638 111.511V116.325H235.832L238.107 111.511H67.3638Z" fill="#FFD000"/>
<path d="M319.388 112.62L322.768 112.411C322.797 112.954 322.912 113.369 323.113 113.654C323.44 114.114 323.942 114.345 324.618 114.345C325.123 114.345 325.519 114.228 325.809 113.995C326.104 113.757 326.264 113.483 326.289 113.172C326.313 112.877 326.204 112.613 325.962 112.38C325.721 112.147 325.135 111.926 324.205 111.719C322.683 111.372 321.615 110.911 321 110.337C320.381 109.762 320.107 109.029 320.179 108.138C320.226 107.553 320.439 107.001 320.819 106.484C321.205 105.961 321.75 105.551 322.455 105.256C323.166 104.956 324.118 104.806 325.309 104.806C326.771 104.806 327.862 105.078 328.583 105.621C329.31 106.16 329.698 107.02 329.749 108.2L326.401 108.395C326.354 107.882 326.196 107.509 325.929 107.276C325.667 107.043 325.286 106.926 324.787 106.926C324.376 106.926 324.059 107.014 323.837 107.19C323.615 107.361 323.494 107.571 323.474 107.82C323.459 108.001 323.532 108.164 323.692 108.309C323.846 108.459 324.231 108.599 324.844 108.729C326.363 109.06 327.441 109.397 328.079 109.738C328.723 110.075 329.176 110.495 329.437 110.997C329.704 111.499 329.812 112.061 329.762 112.683C329.703 113.413 329.446 114.086 328.99 114.702C328.535 115.319 327.93 115.787 327.176 116.108C326.422 116.424 325.491 116.582 324.383 116.582C322.437 116.582 321.12 116.209 320.431 115.464C319.742 114.718 319.394 113.77 319.388 112.62Z" fill="#E52613"/>
<path d="M309.062 105H318.535L318.339 107.431H312.408L312.262 109.241H317.764L317.577 111.564H312.075L311.894 113.809H317.997L317.789 116.388H308.143L309.062 105Z" fill="#E52613"/>
<path d="M295.78 105H299.081L302.88 111.3L303.388 105H306.72L305.802 116.388H302.47L298.69 110.135L298.186 116.388H294.862L295.78 105Z" fill="#E52613"/>
<path d="M289.67 105H293.213L292.295 116.388H288.752L289.67 105Z" fill="#E52613"/>
<path d="M278.87 105H282.405L281.713 113.584H287.23L287.004 116.388H277.952L278.87 105Z" fill="#E52613"/>
<path d="M265.559 116.388L266.478 105H272.369C273.462 105 274.289 105.093 274.852 105.28C275.414 105.466 275.852 105.813 276.165 106.321C276.478 106.823 276.605 107.437 276.547 108.162C276.496 108.793 276.317 109.34 276.009 109.801C275.702 110.256 275.3 110.627 274.803 110.912C274.487 111.093 274.061 111.243 273.526 111.362C273.936 111.502 274.232 111.642 274.413 111.782C274.536 111.875 274.707 112.074 274.927 112.38C275.152 112.685 275.3 112.921 275.369 113.087L276.812 116.388H272.817L271.209 112.908C271.006 112.457 270.816 112.165 270.64 112.03C270.399 111.854 270.117 111.766 269.795 111.766H269.483L269.11 116.388H265.559ZM269.656 109.614H271.147C271.308 109.614 271.624 109.562 272.096 109.459C272.333 109.412 272.533 109.293 272.694 109.102C272.86 108.91 272.954 108.69 272.974 108.441C273.003 108.074 272.909 107.791 272.691 107.595C272.472 107.398 272.041 107.299 271.396 107.299H269.843L269.656 109.614Z" fill="#E52613"/>
<path d="M260.344 105H263.887L262.968 116.388H259.426L260.344 105Z" fill="#E52613"/>
<path d="M254.037 114.508H250.01L249.304 116.388H245.691L250.909 105H254.764L258.146 116.388H254.447L254.037 114.508ZM253.494 112.046L252.56 107.952L250.973 112.046H253.494Z" fill="#E52613"/>
</g>
<defs>
<clipPath id="clip0_297_111550">
<rect width="300" height="117" fill="white" transform="translate(31 11.5)"/>
</clipPath>
</defs>
</svg>
