<svg width="362" height="140" viewBox="0 0 362 140" fill="none" xmlns="http://www.w3.org/2000/svg">
<rect width="362" height="140" fill="#4C2B82"/>
<path d="M100.275 81.8971C102.557 81.8971 104.406 80.0465 104.406 77.7635C104.406 75.4806 102.557 73.6299 100.275 73.6299C97.9933 73.6299 96.1436 75.4806 96.1436 77.7635C96.1436 80.0465 97.9933 81.8971 100.275 81.8971Z" fill="#169ACF"/>
<path d="M156.336 78.4463L156.324 78.792L156.321 84.4109L156.324 85.2136L156.362 86.2888C156.362 86.3125 156.355 86.3359 156.341 86.3554C156.328 86.375 156.308 86.3896 156.286 86.3971C156.263 86.4047 156.239 86.4048 156.217 86.3974C156.195 86.39 156.176 86.3756 156.163 86.3561C154.257 83.6961 151.792 80.8983 148.386 80.248C145.154 79.6298 141.909 80.6669 140.238 83.5906C139.172 85.4568 139.257 88.0582 140.091 89.9361C140.952 91.8755 142.542 93.5424 144.357 94.9252C149.036 98.4875 153.689 101.616 157.364 105.738C162.622 111.635 163.132 119.78 157.352 125.554C151.238 131.665 141.403 131.36 135.354 125.355C135.217 125.218 135.14 125.032 135.14 124.839V116.384C135.14 116.367 135.146 116.351 135.156 116.338C135.167 116.324 135.181 116.315 135.198 116.311C135.214 116.307 135.232 116.308 135.247 116.315C135.263 116.322 135.275 116.334 135.283 116.349C136.806 119.244 139.011 122.129 141.772 123.688C145.581 125.838 150.925 124.819 153.759 121.467C156.766 117.919 156.268 113.387 153.42 109.913C149.288 104.877 143.306 101.382 138.44 96.8645C135.099 93.765 133.415 89.3414 134.156 84.8357C135.857 74.4591 149.142 71.3889 156.336 78.4463Z" fill="white"/>
<path d="M65.9093 75.9502C66.085 75.9502 66.2588 75.9639 66.4305 75.9912C66.4791 75.9985 66.5251 76.0178 66.5644 76.0475C66.6038 76.0771 66.6353 76.1162 66.656 76.1611L91.1636 128.542C91.1701 128.555 91.173 128.57 91.1722 128.585C91.1713 128.6 91.1667 128.614 91.1588 128.627C91.151 128.639 91.14 128.65 91.127 128.657C91.114 128.664 91.0994 128.668 91.0846 128.668H85.6033C85.5526 128.668 85.5028 128.654 85.4598 128.627C85.4168 128.6 85.3823 128.561 85.3603 128.516L77.276 111.465C77.2603 111.431 77.2358 111.401 77.2049 111.379C77.1741 111.357 77.138 111.343 77.1003 111.339C77.0925 111.339 73.3456 111.335 65.8596 111.325C58.3755 111.313 54.6296 111.308 54.6218 111.31C54.5838 111.313 54.5473 111.326 54.516 111.348C54.4846 111.369 54.4595 111.399 54.4432 111.433L46.312 128.463C46.2896 128.508 46.2549 128.546 46.2119 128.572C46.1689 128.599 46.1194 128.613 46.069 128.612L40.5877 128.598C40.5729 128.598 40.5583 128.594 40.5453 128.587C40.5323 128.579 40.5213 128.569 40.5134 128.556C40.5056 128.544 40.501 128.529 40.5001 128.515C40.4993 128.5 40.5022 128.485 40.5087 128.472L65.1627 76.1582C65.1834 76.1133 65.2149 76.0742 65.2543 76.0445C65.2936 76.0149 65.3396 75.9955 65.3882 75.9883C65.558 75.9629 65.7317 75.9502 65.9093 75.9502ZM56.9818 106.075C56.9749 106.09 56.972 106.107 56.9732 106.123C56.9745 106.14 56.9798 106.156 56.9889 106.17C56.9979 106.184 57.0103 106.196 57.0249 106.204C57.0395 106.211 57.0559 106.216 57.0725 106.216H74.7637C74.7804 106.216 74.7967 106.211 74.8114 106.204C74.826 106.196 74.8384 106.184 74.8474 106.17C74.8564 106.156 74.8618 106.14 74.863 106.123C74.8643 106.107 74.8613 106.09 74.8545 106.075L66.0089 87.3492C66.001 87.3317 65.9883 87.3168 65.9722 87.3064C65.9561 87.296 65.9373 87.2905 65.9181 87.2905C65.899 87.2905 65.8802 87.296 65.8641 87.3064C65.848 87.3168 65.8352 87.3317 65.8274 87.3492L56.9818 106.075Z" fill="#169ACF"/>
<path d="M193.501 75.9502H194.47C194.489 75.9502 194.507 75.9558 194.522 75.9663C194.537 75.9767 194.549 75.9916 194.555 76.0088L209.339 113.707C209.346 113.724 209.358 113.738 209.374 113.748C209.39 113.757 209.408 113.762 209.427 113.761C209.445 113.76 209.463 113.754 209.478 113.742C209.492 113.731 209.503 113.715 209.509 113.698L220.342 76.0176C220.348 75.9993 220.359 75.9832 220.374 75.9716C220.39 75.96 220.408 75.9535 220.427 75.9531H225.639C225.653 75.953 225.667 75.9562 225.68 75.9625C225.693 75.9688 225.704 75.978 225.713 75.9895C225.721 76.0009 225.727 76.0141 225.729 76.0282C225.732 76.0422 225.731 76.0567 225.727 76.0703L210.633 128.571C210.627 128.59 210.616 128.606 210.601 128.617C210.586 128.629 210.567 128.635 210.548 128.636H209.684C209.666 128.636 209.648 128.63 209.633 128.62C209.617 128.609 209.606 128.594 209.599 128.577L194.075 88.9985C194.068 88.9813 194.057 88.9664 194.042 88.9559C194.026 88.9454 194.008 88.9398 193.99 88.9398C193.972 88.9398 193.954 88.9454 193.938 88.9559C193.923 88.9664 193.912 88.9813 193.905 88.9985L178.079 128.58C178.072 128.597 178.06 128.611 178.045 128.621C178.03 128.631 178.012 128.636 177.994 128.636H177.122C177.102 128.635 177.083 128.628 177.068 128.616C177.053 128.604 177.042 128.587 177.037 128.568L162.148 76.0674C162.144 76.0539 162.144 76.0398 162.146 76.0261C162.149 76.0125 162.155 75.9996 162.163 75.9886C162.172 75.9775 162.183 75.9686 162.195 75.9624C162.208 75.9563 162.222 75.9531 162.235 75.9531H167.471C167.49 75.9537 167.509 75.9606 167.524 75.9728C167.54 75.9849 167.551 76.0016 167.556 76.0205L178.211 113.589C178.216 113.608 178.226 113.625 178.241 113.637C178.256 113.649 178.275 113.656 178.294 113.657C178.313 113.658 178.332 113.653 178.348 113.642C178.364 113.632 178.377 113.616 178.384 113.598L193.416 76.0059C193.423 75.9892 193.435 75.975 193.45 75.965C193.465 75.9551 193.483 75.95 193.501 75.9502Z" fill="white"/>
<path d="M262.257 128.475V76.1142C262.257 76.0723 262.274 76.0321 262.303 76.0024C262.333 75.9727 262.373 75.9561 262.415 75.9561H288.527C288.569 75.9561 288.609 75.9727 288.639 76.0024C288.669 76.0321 288.685 76.0723 288.685 76.1142V80.9451C288.685 80.9871 288.669 81.0273 288.639 81.057C288.609 81.0867 288.569 81.1033 288.527 81.1033H267.694C267.652 81.1033 267.612 81.12 267.582 81.1497C267.553 81.1793 267.536 81.2196 267.536 81.2615V97.465C267.536 97.507 267.553 97.5472 267.582 97.5769C267.612 97.6065 267.652 97.6232 267.694 97.6232H288.527C288.569 97.6232 288.609 97.6399 288.639 97.6695C288.669 97.6992 288.685 97.7394 288.685 97.7814V102.615C288.685 102.657 288.669 102.697 288.639 102.727C288.609 102.757 288.569 102.773 288.527 102.773H267.694C267.652 102.773 267.612 102.79 267.582 102.82C267.553 102.849 267.536 102.89 267.536 102.932V128.475C267.536 128.517 267.519 128.557 267.49 128.586C267.46 128.616 267.42 128.633 267.378 128.633H262.415C262.373 128.633 262.333 128.616 262.303 128.586C262.274 128.557 262.257 128.517 262.257 128.475Z" fill="white"/>
<path d="M321.5 75.9648V81.0945L309.976 81.0916C309.915 81.0916 309.857 81.1157 309.814 81.1585C309.771 81.2014 309.747 81.2595 309.747 81.3201V128.477C309.747 128.497 309.743 128.517 309.735 128.536C309.728 128.554 309.716 128.571 309.702 128.585C309.687 128.599 309.67 128.611 309.651 128.618C309.633 128.626 309.612 128.63 309.592 128.63H304.547C304.525 128.63 304.504 128.626 304.484 128.618C304.464 128.609 304.446 128.598 304.431 128.583C304.416 128.568 304.404 128.55 304.395 128.53C304.387 128.511 304.383 128.49 304.383 128.469V81.3084C304.383 81.2556 304.362 81.2049 304.325 81.1675C304.287 81.1302 304.237 81.1092 304.184 81.1092H292.808C292.76 81.1092 292.714 81.09 292.68 81.056C292.646 81.0219 292.627 80.9757 292.627 80.9275V76.1553C292.627 76.1063 292.647 76.0594 292.682 76.0248C292.717 75.9901 292.765 75.9707 292.814 75.9707L321.5 75.9648Z" fill="white"/>
<path d="M128.209 94.1338C128.112 94.1084 127.823 94.0068 127.342 93.8291C124.324 92.7217 120.945 94.9511 119.358 97.4354C117.736 99.9783 116.983 102.823 116.761 105.881C116.567 108.534 116.466 111.194 116.456 113.862C116.44 118.279 116.437 123.148 116.444 128.468C116.444 128.513 116.427 128.555 116.395 128.587C116.364 128.618 116.322 128.635 116.277 128.635H111.49C111.466 128.635 111.441 128.63 111.418 128.621C111.396 128.611 111.375 128.597 111.358 128.58C111.34 128.562 111.326 128.541 111.317 128.518C111.308 128.495 111.303 128.47 111.303 128.445V89.8683C111.303 89.8429 111.308 89.8178 111.317 89.7943C111.327 89.7709 111.341 89.7496 111.359 89.7316C111.377 89.7137 111.399 89.6994 111.422 89.6897C111.445 89.68 111.471 89.675 111.496 89.675H116.254C116.279 89.675 116.304 89.6798 116.327 89.6892C116.35 89.6987 116.371 89.7125 116.389 89.7299C116.406 89.7473 116.42 89.768 116.43 89.7907C116.439 89.8135 116.444 89.8378 116.444 89.8625V95.1386C116.444 95.1561 116.449 95.1732 116.459 95.1874C116.469 95.2016 116.484 95.212 116.501 95.217C116.517 95.222 116.535 95.2213 116.552 95.2151C116.568 95.2089 116.582 95.1975 116.591 95.1826C118.105 92.8711 120.418 90.2961 123.144 89.5197C124.776 89.0549 126.467 88.7746 128.218 88.6789C128.243 88.6777 128.267 88.6815 128.29 88.6899C128.313 88.6984 128.334 88.7113 128.352 88.7281C128.37 88.7448 128.384 88.7649 128.394 88.7871C128.403 88.8094 128.408 88.8334 128.408 88.8576V93.9815C128.408 94.0057 128.403 94.0296 128.392 94.0513C128.381 94.073 128.365 94.0919 128.346 94.1067C128.327 94.1214 128.305 94.1315 128.281 94.1362C128.257 94.1409 128.233 94.1401 128.209 94.1338Z" fill="#169ACF"/>
<path d="M102.718 89.6758H97.8398C97.7961 89.6758 97.7607 89.7112 97.7607 89.7549V128.566C97.7607 128.61 97.7961 128.645 97.8398 128.645H102.718C102.762 128.645 102.797 128.61 102.797 128.566V89.7549C102.797 89.7112 102.762 89.6758 102.718 89.6758Z" fill="#169ACF"/>
<path d="M254.795 47.9533C254.909 54.0205 253.635 60.619 249.85 65.4817C249.841 65.4938 249.834 65.5082 249.832 65.5235C249.83 65.5387 249.832 65.5543 249.838 65.5685C249.844 65.5827 249.854 65.595 249.866 65.6042C249.879 65.6134 249.893 65.6191 249.908 65.6208C254.165 66.1021 258.563 68.0076 262.306 70.0912C262.32 70.0995 262.332 70.1115 262.341 70.1259C262.349 70.1403 262.353 70.1566 262.353 70.1733C262.353 70.19 262.349 70.2063 262.341 70.2207C262.332 70.2351 262.32 70.2471 262.306 70.2554C259.585 71.7687 256.763 72.9825 253.84 73.8968C252.55 74.3011 251.327 74.5635 250.172 74.6841C250.157 74.6858 250.142 74.6917 250.129 74.701C250.117 74.7104 250.107 74.7229 250.101 74.7373C250.094 74.7517 250.092 74.7674 250.094 74.783C250.096 74.7986 250.102 74.8134 250.111 74.8259C253.726 79.8806 254.951 86.1981 254.773 92.1763C253.283 89.7116 251.661 87.4722 249.908 85.4582C243.614 78.1085 235.295 72.9649 225.854 71.0037C225.399 70.9091 224.711 70.9712 223.791 71.1901C218.307 71.93 212.835 72.8045 207.376 73.8133C205.527 74.1546 203.674 74.5811 201.817 75.093C201.804 75.096 201.789 75.0942 201.777 75.088C201.765 75.0818 201.755 75.0715 201.749 75.0588C201.743 75.0462 201.742 75.0319 201.745 75.0184C201.748 75.0049 201.756 74.9929 201.767 74.9845C205.91 72.1804 210.486 70.5131 215.495 69.9827C215.506 69.9809 215.504 69.98 215.489 69.98C210.499 69.4088 205.94 67.7443 201.812 64.9865C201.797 64.9773 201.786 64.963 201.781 64.9463C201.776 64.9297 201.777 64.9117 201.784 64.8958C201.791 64.8799 201.804 64.8671 201.82 64.8598C201.835 64.8524 201.853 64.851 201.87 64.8558C203.754 65.3732 205.674 65.8118 207.629 66.1716C213.147 67.1842 218.664 68.0521 224.18 68.7754C224.985 69.0035 225.747 69.0369 226.465 68.8756C236.381 66.6417 245.069 60.8583 251.299 52.8382C252.521 51.3249 253.616 49.7216 254.584 48.0284C254.612 47.9802 254.642 47.9514 254.673 47.9421C254.712 47.9292 254.753 47.9329 254.795 47.9533Z" fill="#169ACF"/>
<path d="M247.369 10.0059C247.399 10.0138 247.427 10.0297 247.448 10.0518C247.47 10.0737 247.485 10.1011 247.492 10.1309C248.333 13.5005 249.091 16.9056 249.769 20.3457C251.671 30.0023 253.342 38.8097 254.778 46.7676C254.817 46.9809 254.824 47.1884 254.798 47.3887L254.795 47.9531C254.752 47.9328 254.712 47.9294 254.673 47.9424C254.641 47.9517 254.612 47.9802 254.584 48.0283C253.616 49.7215 252.521 51.3246 251.299 52.8379C245.068 60.8579 236.38 66.6412 226.465 68.875C225.747 69.0363 224.985 69.0035 224.18 68.7754C225.916 68.2413 227.099 67.8578 227.729 67.626C234.598 65.0917 239.465 60.0674 240.542 52.5537H240.543C240.806 50.8145 240.891 49.0576 240.801 47.2832C241.384 47.3194 241.967 47.3517 242.55 47.3799C241.967 47.3517 241.384 47.3184 240.801 47.2822C240.645 44.7158 240.245 42.1855 239.599 39.6914C239.584 39.6395 239.331 38.6496 238.843 36.7227C236.319 26.7943 240.325 17.1798 247.2 10.0527C247.221 10.0304 247.249 10.0142 247.278 10.0059C247.308 9.99753 247.339 9.99794 247.369 10.0059Z" fill="url(#paint0_linear_299_121498)"/>
<path d="M249.908 85.458C251.661 87.472 253.283 89.7111 254.773 92.1758C254.85 92.596 254.821 93.0982 254.688 93.6816L254.623 93.9365C253.12 102.369 251.537 110.794 249.875 119.21C249.223 122.509 248.431 126.051 247.498 129.834C247.49 129.866 247.475 129.895 247.452 129.918C247.429 129.941 247.401 129.959 247.369 129.968C247.338 129.976 247.305 129.977 247.273 129.969C247.242 129.96 247.212 129.943 247.189 129.92C240.956 123.614 237.181 115.018 238.277 106.074C238.37 105.325 238.695 103.898 239.252 101.793C239.915 99.293 240.399 96.7623 240.706 94.2012C240.954 91.5363 240.839 88.8938 240.357 86.2734L249.908 85.458ZM223.791 71.1904C224.711 70.9716 225.399 70.9093 225.854 71.0039C235.295 72.9651 243.614 78.1085 249.908 85.458L240.356 86.2734C238.463 77.6804 231.968 73.057 223.791 71.1904Z" fill="url(#paint1_linear_299_121498)"/>
<defs>
<linearGradient id="paint0_linear_299_121498" x1="239.497" y1="39.4129" x2="239.497" y2="68.9757" gradientUnits="userSpaceOnUse">
<stop stop-color="#0173AE"/>
<stop offset="1" stop-color="#1A326D"/>
</linearGradient>
<linearGradient id="paint1_linear_299_121498" x1="239.303" y1="70.8479" x2="239.303" y2="108.403" gradientUnits="userSpaceOnUse">
<stop stop-color="#1A326D"/>
<stop offset="1" stop-color="#0173AE"/>
</linearGradient>
</defs>
</svg>
