<svg width="362" height="140" viewBox="0 0 362 140" fill="none" xmlns="http://www.w3.org/2000/svg">
<rect width="362" height="140" fill="#005D63"/>
<path d="M81.4514 83.1963C81.1169 81.9714 77.5822 82.4917 74.6619 82.2245C72.0198 81.9921 68.6181 81.4992 64.5261 80.0767C60.7059 78.7316 57.0113 77.1901 53.7907 75.4363C53.7907 75.4363 52.473 74.7391 52.3335 74.6623C52.0756 74.5 51.8667 74.3804 51.5884 74.2188C51.4416 74.12 51.1903 73.971 51.0237 73.9016C50.793 73.796 50.6469 73.6758 50.4452 73.5563C50.2495 73.43 49.9705 73.2965 49.7827 73.1763C49.4759 72.9859 49.2948 72.8523 49.0157 72.6406C48.8485 72.5144 48.7579 72.4717 48.5278 72.3454C48.3883 72.2539 48.1443 72.1123 48.0121 72.0282C47.7542 71.8592 47.5936 71.7116 47.3357 71.5426C47.1684 71.4158 47.0567 71.3456 46.8689 71.2254C46.6732 71.1199 46.4921 70.9649 46.3254 70.8454C46.2342 70.7746 46.1159 70.6978 46.0253 70.6056C45.8368 70.4233 45.6491 70.2543 45.4468 70.1061C45.2722 69.9651 45.0983 69.7888 44.9099 69.6619C44.8054 69.5711 44.6031 69.4021 44.492 69.3173C44.2057 69.1129 44.0246 68.9513 43.7317 68.7469C43.5505 68.606 43.3905 68.4157 43.2094 68.2681C42.9932 68.1138 42.8047 67.9368 42.5812 67.7966C42.449 67.6837 42.289 67.5641 42.1845 67.4446C42.0378 67.2823 41.9194 67.1701 41.7587 67.0078C41.6477 66.8883 41.452 66.7473 41.3336 66.6278C41.1458 66.4021 40.8946 66.1696 40.6645 65.98C40.5184 65.839 40.4761 65.7756 40.4205 65.7055C40.3789 65.6414 40.3161 65.5712 40.2182 65.4657L40.0093 65.2547C39.9538 65.2052 39.8976 65.1558 39.7442 65.0009C39.6959 64.9521 39.6047 64.8252 39.5214 64.7123C39.4519 64.6208 39.3818 64.522 39.3468 64.4726C39.1934 64.311 39.0962 64.2195 39.0056 64.1066C38.9356 64.0291 38.8595 63.945 38.7617 63.8601C38.7061 63.7974 38.6572 63.7266 38.6222 63.6558C38.5805 63.5857 38.5316 63.5149 38.4827 63.4588C38.3921 63.3532 38.3293 63.396 38.3088 63.4093C38.2598 63.4588 38.2387 63.5436 38.3015 63.6705C38.3709 63.8107 38.4827 63.9663 38.5527 64.0572C38.5593 64.0785 38.5805 64.0999 38.5871 64.1066C38.6083 64.156 38.636 64.1981 38.6572 64.2475C38.6989 64.311 38.7405 64.3811 38.7756 64.4519C38.8939 64.5995 39.0195 64.7123 39.1174 64.8319L39.2357 64.9521C39.3051 65.0363 39.3752 65.1211 39.4308 65.2052C39.4936 65.3034 39.5564 65.4023 39.6397 65.4938C39.682 65.5225 39.7098 65.5645 39.7514 65.614C39.7792 65.6627 39.8215 65.7121 39.8632 65.7682L40.0582 65.9659C40.1627 66.0781 40.281 66.1837 40.3789 66.2758C40.4556 66.346 40.5462 66.4375 40.6367 66.529C40.8457 66.7821 41.083 67.0432 41.2715 67.2897C41.3825 67.4306 41.5776 67.5354 41.7105 67.6343C41.8705 67.7471 41.9683 67.9161 42.0801 68.057C42.17 68.1626 42.3584 68.3242 42.4351 68.4444C42.6513 68.7189 42.8047 68.8805 43.0903 69.0782C43.2576 69.2118 43.3905 69.3173 43.53 69.501C43.6061 69.5991 43.85 69.8456 43.9479 69.9511C44.178 70.2543 44.2824 70.5422 44.2474 70.5422C44.0874 70.5849 43.6966 70.233 43.4672 70.092C43.2715 69.9651 43.2437 69.9157 43.0698 69.7755C43.0209 69.7327 42.7419 69.5284 42.6447 69.4088C42.5674 69.3313 42.3584 69.1129 42.289 69.0221C41.9683 68.606 41.85 68.578 41.4731 68.2193C41.1941 67.9448 40.8668 67.7051 40.5951 67.4513C40.5184 67.3812 40.4344 67.2897 40.3577 67.2048C40.281 67.1133 40.1693 67.0285 40.0933 66.9517C39.9604 66.7894 39.8004 66.4862 39.6536 66.3673C39.4936 66.2471 39.3818 66.1489 39.2285 66.0147C39.1656 65.9866 39.1174 65.9158 39.0684 65.8671C38.9845 65.8177 38.8939 65.7475 38.8384 65.6627C38.6572 65.4443 38.4827 65.2052 38.3015 64.9728C38.2248 64.8533 38.0926 64.7611 38.0159 64.6489C37.8347 64.4025 37.6879 64.142 37.5068 63.8955C37.2555 63.5643 36.9005 63.3252 36.6426 62.9939C36.4053 62.656 36.2453 62.2546 36.0152 61.9026C35.9173 61.741 35.7573 61.6208 35.6456 61.4872C35.5762 61.3957 35.5477 61.2969 35.4856 61.1987C35.3599 61.0157 35.2204 60.818 35.0809 60.6283C34.9209 60.3959 34.8092 60.1141 34.6419 59.8609C34.6141 59.8189 34.5513 59.6633 34.4674 59.5223C34.3563 59.3888 34.2651 59.2485 34.154 59.0655C34.0495 58.8885 33.9867 58.769 33.91 58.6354C33.8194 58.5085 33.7705 58.389 33.7077 58.2975C33.6588 58.2126 33.5404 58.051 33.4988 57.9802C33.3381 57.7552 33.303 57.6356 33.143 57.4099C33.0459 57.2903 32.9407 57.1781 32.864 57.2135C32.7946 57.2623 32.8151 57.3397 32.8363 57.4032C32.8925 57.5935 32.8925 57.5655 32.9758 57.7057C33.1014 57.9315 33.143 58.0437 33.2826 58.248C33.3381 58.3536 33.4498 58.586 33.5404 58.7202C33.631 58.8471 33.7077 58.9874 33.7705 59.0996C33.826 59.2198 33.9239 59.509 34.0284 59.6279C34.0978 59.7127 34.189 59.903 34.2446 60.0292C34.3841 60.2904 34.5441 60.5014 34.6836 60.7058C34.7742 60.8748 34.8647 61.0578 34.9487 61.2194C35.1299 61.5012 35.3461 61.7477 35.5272 62.0295L35.8479 62.6206C35.9524 62.7829 36.1057 62.9171 36.2029 63.0861C36.3358 63.2758 36.4053 63.4942 36.5309 63.6838C36.6215 63.8461 36.761 63.9804 36.8588 64.142C37.04 64.4025 37.2 64.6489 37.3745 64.8953C37.479 65.0363 37.6046 65.1418 37.7018 65.2827C37.8347 65.4724 37.9458 65.6834 38.0926 65.8457C38.2598 66.008 38.3015 66.1069 38.441 66.2545C38.6499 66.5009 39.124 67.2048 39.0539 67.2048C38.7617 67.2402 38.2109 66.6064 37.9597 66.3814C37.7858 66.1984 37.5835 66.0641 37.4578 65.8951C37.2767 65.6347 37.1372 65.3528 36.956 65.1137C36.8866 65.0222 36.7676 64.9521 36.712 64.8599C36.5798 64.6983 36.4615 64.522 36.3147 64.3677C36.2519 64.311 36.1824 64.2682 36.1335 64.1981C35.9034 63.8955 35.7157 63.5857 35.4856 63.2758C35.4016 63.1562 35.276 63.0433 35.1927 62.9171C35.1226 62.8256 35.0809 62.7268 35.0115 62.6139C34.9348 62.473 34.8092 62.3394 34.7252 62.1985C34.6558 62.0996 34.6141 61.9874 34.5441 61.9026C34.4323 61.7129 34.2651 61.5573 34.1467 61.3677C34.0561 61.2194 34.0356 61.0297 33.9378 60.8674C33.6865 60.4941 33.4075 60.1 33.1708 59.7127C33.1153 59.6138 33.0802 59.509 33.0247 59.3961C32.8363 59.0862 32.6485 58.755 32.4462 58.4384C32.3761 58.3255 32.3483 58.1919 32.2644 58.0857C32.181 57.9315 32.0415 57.8326 31.9582 57.6917C31.8815 57.5795 31.8465 57.4733 31.791 57.3538C31.7209 57.1915 31.6237 57.0232 31.5397 56.8822C31.4908 56.7767 31.463 56.6779 31.4002 56.5864C31.1774 56.2197 30.9751 55.8257 30.7866 55.4103C30.6756 55.1919 30.5288 55.0022 30.4309 54.7838C30.3199 54.5514 30.2081 54.2909 30.1036 54.0652C30.0408 53.9102 29.978 53.7486 29.9436 53.5937C29.8253 53.3332 29.6435 53.1215 29.5324 52.861C29.455 52.6994 29.4134 52.5304 29.344 52.3821C29.295 52.298 29.2183 52.2205 29.1489 52.2633C29.0934 52.298 29.0861 52.3681 29.1278 52.509C29.1972 52.7835 29.3367 53.0727 29.4068 53.227C29.5463 53.5229 29.6018 53.8401 29.7413 54.136C29.8114 54.2976 29.9225 54.4599 29.9919 54.6289L30.3761 55.4737C30.4455 55.6213 30.5083 55.7836 30.5982 55.9245C30.6339 56.016 30.7099 56.1075 30.745 56.185C30.829 56.3894 30.8567 56.579 30.9334 56.7694C31.0379 56.9597 31.184 57.1213 31.2541 57.3117C31.7136 58.2627 32.1672 59.1984 32.7179 60.0506C32.864 60.2904 32.9407 60.5856 33.0941 60.8253C33.2614 61.0785 33.471 61.2548 33.631 61.5086C33.7493 61.7129 33.7917 61.9874 33.8961 62.1985C34.0839 62.5224 34.3074 62.8036 34.5024 63.0928C34.5513 63.1843 34.5652 63.2758 34.6208 63.3532C34.6902 63.4728 34.7953 63.5997 34.8647 63.7192C34.9626 63.8815 35.0115 64.0572 35.1226 64.1981C35.2409 64.3597 35.4016 64.494 35.5061 64.6489C35.6595 64.8533 35.7573 65.0857 35.9034 65.2754C36.0079 65.4163 36.1613 65.5145 36.2658 65.656C36.4337 65.8738 37.0122 66.6278 37.1795 66.8529C37.4235 67.1701 37.8764 67.6556 38.0926 68.0777C38.1554 68.2193 38.3782 68.5145 38.3293 68.578C38.2109 68.6695 37.6463 68.043 37.5484 67.9448C37.3183 67.7118 37.1094 67.4019 36.9071 67.1414C36.8515 67.0786 36.3008 66.5503 36.2519 66.4862C36.2029 66.4161 36.1547 66.3386 36.1057 66.2545C35.9451 66.0361 35.8545 65.7682 35.6945 65.5432C35.6244 65.4657 35.5272 65.3956 35.4578 65.3034C35.3388 65.1351 35.2482 64.9448 35.1299 64.7691C34.9348 64.508 34.6836 64.2829 34.4951 64.0011C34.2723 63.7192 34.1255 63.3746 33.9166 63.0714C33.8055 62.9305 33.6799 62.8109 33.5821 62.656C33.5265 62.5859 33.5126 62.5157 33.471 62.4449C33.387 62.3321 33.2826 62.1911 33.2336 62.0576C33.1708 61.9374 33.1292 61.8318 33.0597 61.7196C32.8429 61.3677 32.6134 60.9943 32.3972 60.635C32.2994 60.4874 32.2366 60.3044 32.1394 60.1421C31.9787 59.889 31.7486 59.6633 31.5886 59.3888C31.3797 59.0789 31.2819 58.7062 31.0868 58.389C30.9546 58.1846 30.7939 57.9949 30.6756 57.7906C30.5288 57.5655 30.4594 57.3043 30.341 57.0719C30.222 56.8682 30.062 56.6705 29.9641 56.4668C29.8597 56.2337 29.7903 56.016 29.6858 55.7836C29.623 55.6641 29.5324 55.5372 29.4835 55.4103C29.4134 55.256 29.3929 55.0937 29.3228 54.9388C29.135 54.5086 28.8349 54.1006 28.6398 53.6785C28.4864 53.3686 28.3608 53.0447 28.2497 52.7208C28.1935 52.5444 28.1585 52.3681 28.0752 52.2065C27.9006 51.8191 27.6851 51.3964 27.5033 50.995C27.4338 50.7906 27.3572 50.5729 27.2877 50.3759C27.2805 50.3124 27.2666 50.249 27.2388 50.1929C27.1548 50.0099 27.0576 49.8336 26.9876 49.6499C26.9109 49.4322 26.8414 49.2211 26.7714 48.9954C26.4996 48.3055 26.2418 47.5234 25.9839 46.7988C25.9561 46.6645 25.9422 46.5096 25.8933 46.3687C25.7677 45.996 25.6282 45.6153 25.496 45.2426C25.4193 45.0523 25.2381 45.1224 25.287 45.3128C25.3353 45.5659 25.3776 45.6367 25.4054 45.8337C25.4265 45.9466 25.447 46.0381 25.4682 46.1369C25.496 46.2631 25.566 46.3974 25.6004 46.5096C25.6698 46.7353 25.6771 46.9464 25.7538 47.1721C25.8583 47.4606 25.9627 47.7632 26.0672 48.0664C26.0956 48.2066 26.1234 48.3616 26.1512 48.5239C26.2067 48.6641 26.2556 48.8197 26.3046 48.9466C26.4507 49.3266 26.6041 49.6786 26.7297 50.0586C26.7786 50.2703 26.8414 50.4814 26.897 50.7071C26.9598 50.826 27.0504 50.9462 27.0854 51.0658C27.1409 51.1573 27.1482 51.2628 27.1899 51.375C27.2877 51.6081 27.3783 51.8619 27.4755 52.101C27.5661 52.298 27.6851 52.5024 27.7611 52.7208C27.7962 52.8123 27.7962 52.9038 27.8312 53.0026C28.054 53.6431 28.3119 54.3116 28.577 54.91C28.6471 55.065 28.6676 55.2132 28.7304 55.3749C28.7866 55.5018 28.8699 55.6213 28.9188 55.7556C28.9466 55.833 28.9744 55.9172 29.0094 56.0087C29.0934 56.1776 29.2256 56.3259 29.3155 56.4949C29.5529 56.9878 29.7552 57.4593 30.0408 57.8821C30.3199 58.2627 30.4309 58.797 30.6339 59.2692C30.7377 59.4803 30.8567 59.6706 30.9823 59.8609C31.0445 59.9591 31.0868 60.086 31.1351 60.1849C31.2607 60.424 31.3308 60.635 31.5053 60.8467C31.6237 61.0297 31.6091 61.0785 31.7136 61.3182C31.742 61.3884 31.867 61.8532 31.8392 61.8532C31.7976 61.8813 31.5741 61.741 31.5053 61.6488C31.3936 61.5366 31.2329 61.3884 31.1212 61.1352C31.0657 60.9943 30.9546 60.7826 30.8984 60.6637C30.7589 60.3538 30.5083 60.1 30.341 59.8189C30.2293 59.6633 30.1803 59.4662 30.0898 59.2906C29.9436 58.966 29.7691 58.6354 29.6157 58.2975C29.5529 58.1639 29.455 58.037 29.3717 57.9028C29.295 57.7839 29.2534 57.6356 29.1628 57.5014C28.9955 57.2202 28.7866 56.9103 28.6471 56.6004C28.5426 56.368 28.4864 56.1356 28.382 55.9172C28.3542 55.8471 28.2914 55.7763 28.2497 55.7061C28.1796 55.5933 28.1519 55.4737 28.0825 55.3401C28.0058 55.1638 27.894 55.0022 27.8034 54.8192C27.6428 54.4666 27.5456 54.1073 27.3849 53.77C27.3082 53.5937 27.176 53.4527 27.1066 53.2978C27.0014 53.0514 26.9809 52.7415 26.8487 52.481C26.5624 51.7978 26.214 51.0938 25.9422 50.3618C25.9072 50.2416 25.8933 50.1014 25.8583 49.9812C25.7472 49.6579 25.6004 49.3687 25.4748 49.0655C25.4265 48.9253 25.4193 48.805 25.3776 48.6641C25.3009 48.4464 25.1964 48.2207 25.1198 48.017C25.0986 47.9462 25.0913 47.862 25.0636 47.7912C24.9802 47.6015 24.924 47.3618 24.8335 47.1581C24.7845 47.0519 24.7012 46.939 24.6662 46.8268C24.5829 46.6158 24.604 46.3687 24.5412 46.1576C24.4368 45.8624 24.3178 45.5452 24.206 45.2633C24.1577 45.095 24.1439 44.9327 24.0738 44.7638C24.0044 44.5667 23.9343 44.3483 23.8649 44.1654C23.7882 43.9536 23.7948 43.7566 23.7253 43.5382C23.6903 43.3766 23.6209 43.2003 23.5581 43.0667C23.4609 42.7708 23.4186 42.4676 23.3214 42.2072C23.3141 42.1724 23.2929 42.1157 23.2724 42.0669C23.244 41.9888 23.1885 41.9186 23.1191 41.94C23.0424 41.9681 23.0424 42.0803 23.0424 42.1511C23.0629 42.3481 23.1395 42.5384 23.2024 42.7147C23.2586 42.8837 23.3002 43.0734 23.3419 43.243C23.3696 43.3619 23.363 43.4748 23.3908 43.595C23.4324 43.764 23.4886 43.9189 23.5369 44.0879C23.5792 44.2355 23.5581 44.4111 23.5931 44.5313C23.6976 44.8833 23.8087 45.2847 23.9277 45.6153C23.9766 45.7916 23.9905 45.996 24.0394 46.1369C24.1088 46.3266 24.1644 46.5096 24.2272 46.6785C24.2834 46.8408 24.2973 46.9677 24.3528 47.108C24.4229 47.2703 24.5062 47.4179 24.5551 47.5942C24.6107 47.8059 24.6107 48.0236 24.6801 48.2207C24.813 48.5659 24.9591 48.8758 25.0708 49.2064C25.1125 49.3193 25.1198 49.4462 25.1614 49.5664C25.2659 49.8402 25.3353 50.1434 25.4265 50.4246C25.5799 50.812 25.7677 51.2067 25.8933 51.6007C26.0467 51.9881 26.0672 52.4529 26.2206 52.8123C26.3046 52.9952 26.4718 53.1081 26.5485 53.2771C26.6114 53.396 26.5902 53.5162 26.6318 53.6571C26.6742 53.8054 26.7436 53.9456 26.7925 54.0865C26.8276 54.2201 26.8626 54.3397 26.897 54.4599C26.9598 54.6075 27.0715 54.7484 27.1205 54.8893C27.2249 55.1211 27.2877 55.3749 27.4133 55.5726C27.5033 55.7275 27.6362 55.8751 27.7267 56.0581C27.8173 56.2484 27.8451 56.4595 27.9218 56.6565C28.054 56.9524 28.2213 57.2269 28.3192 57.5441C28.4236 57.8113 28.4587 58.1145 28.5982 58.3536C28.7165 58.6074 28.8904 58.8251 29.0299 59.0655C29.1073 59.2485 29.1833 59.4175 29.2673 59.6138C29.3367 59.7407 29.4623 59.8816 29.5529 60.0292C29.6435 60.2056 29.7552 60.4026 29.8319 60.5856C29.9013 60.7339 29.9225 60.8674 29.9919 60.9943C30.1175 61.1773 30.2081 61.3396 30.3265 61.5293C30.4309 61.6916 30.5499 61.91 30.6266 62.0996C30.6894 62.2619 30.745 62.4095 30.829 62.5431C30.9261 62.67 31.0445 62.7969 31.1212 62.9238C31.2052 63.0647 31.3096 63.5296 31.2607 63.5436C31.1774 63.5783 30.8984 63.3178 30.8151 63.2263C30.6055 62.9445 30.4871 62.5925 30.2987 62.3114C30.0832 62.0015 29.9503 61.8318 29.7903 61.4799C29.6924 61.2762 29.5324 60.9168 29.4068 60.7265C29.295 60.5582 29.1489 60.4026 29.065 60.2122C28.9955 60.0646 28.9539 59.8676 28.8904 59.7127C28.7866 59.4876 28.577 59.34 28.4725 59.1216C28.3403 58.8605 28.2914 58.586 28.1585 58.3329C28.1029 58.2273 28.0124 58.0938 27.9634 57.9669C27.894 57.8113 27.8524 57.6637 27.7823 57.5087C27.6362 57.1915 27.4133 56.931 27.2805 56.6078C27.1205 56.2838 27.0365 55.9452 26.8692 55.6073C26.7925 55.4457 26.653 55.2834 26.5697 55.1004C26.4507 54.868 26.4024 54.6289 26.2841 54.3898C26.2206 54.2488 26.1234 54.1073 26.0533 53.967C25.9627 53.77 25.9277 53.5376 25.8378 53.3258C25.6143 52.8403 25.4054 52.3548 25.1892 51.8686C25.1125 51.6789 25.0913 51.4952 25.0014 51.2982C24.9313 51.1359 24.8407 50.9883 24.764 50.812C24.5829 50.3892 24.5128 49.8897 24.325 49.4676C24.2272 49.2485 24.1154 49.0448 24.0255 48.8197C23.8999 48.4464 23.8371 48.0731 23.7115 47.7004C23.5091 47.13 23.3419 46.5243 23.1395 45.9753C23.084 45.7916 23.0701 45.6367 23.0146 45.461C22.9518 45.2914 22.8962 45.1224 22.8328 44.9608C22.7911 44.8339 22.7633 44.6295 22.7217 44.4606C22.5749 43.975 22.4288 43.4961 22.2681 43.0106C22.2404 42.8904 22.2265 42.6934 22.1848 42.5317C22.1709 42.4543 22.1147 42.3481 22.1009 42.278C22.0592 42.1724 22.0592 42.0803 22.0314 41.9614C21.8992 41.6087 21.8086 41.1933 21.6896 40.8414C21.6691 40.7358 21.6618 40.5736 21.6202 40.44C21.4602 39.9471 21.3828 39.3273 21.195 38.8631C21.1534 38.7783 21.0972 38.6862 21.0066 38.7075C20.916 38.7289 20.9372 38.8277 20.9438 38.9052C20.9716 39.1443 21.0555 39.3347 21.0972 39.5317C21.1111 39.6091 21.1111 39.7287 21.1111 39.8269C21.1322 39.919 21.1461 40.0319 21.1739 40.1094C21.2645 40.4119 21.3623 40.7639 21.4529 41.0664C21.4807 41.2074 21.4602 41.4264 21.4946 41.5874C21.6202 42.0596 21.7108 42.6299 21.8919 43.0667C22.0592 43.4467 22.087 43.9189 22.1848 44.341C22.2265 44.5167 22.2404 44.7003 22.2542 44.8907C22.2893 45.059 22.3871 45.1932 22.4427 45.3408C22.4843 45.4537 22.4843 45.5452 22.5194 45.6507C22.6033 45.9539 22.6728 46.2631 22.7911 46.5663C22.8612 46.7774 22.9723 46.9818 23.0424 47.1928C23.084 47.2776 23.0629 47.3618 23.0906 47.4606C23.1395 47.6717 23.1819 47.8827 23.2513 48.0938C23.3908 48.5032 23.5303 48.96 23.6764 49.3687C23.7604 49.6078 23.7809 49.8336 23.8649 50.0586C24.1855 50.9462 24.5267 51.8479 24.8407 52.7348C24.9035 52.9251 24.9518 53.1215 25.0014 53.3118C25.0708 53.5162 25.1892 53.6992 25.2798 53.8682C25.3915 54.1073 25.4054 54.347 25.496 54.5935C25.6004 54.868 25.7399 55.0937 25.8378 55.3962C25.886 55.5372 25.9422 55.6921 26.0051 55.833C26.0533 55.9452 26.1512 56.0441 26.2067 56.1356C26.2768 56.3186 26.2907 56.551 26.3813 56.72C26.4646 56.903 26.6114 57.0372 26.7092 57.2135C26.8137 57.3611 26.8203 57.5515 26.897 57.7338C27.0292 58.0016 27.176 58.248 27.2943 58.5439C27.3499 58.6641 27.3783 58.7763 27.4272 58.8885C27.4755 59.0154 27.5872 59.1497 27.6428 59.2832C27.6428 59.2832 27.6567 59.2832 27.6567 59.2906C27.6639 59.3186 27.6639 59.34 27.6778 59.3674C27.6851 59.4308 27.7056 59.501 27.7267 59.5511C27.7545 59.6279 27.8451 59.7621 27.8729 59.8109C27.894 59.8396 27.9568 59.9104 28.0058 59.9731C28.0335 60.0019 28.054 60.0292 28.0752 60.0646C28.1935 60.241 28.2008 60.5155 28.298 60.7125C28.3892 60.9168 28.5565 61.0785 28.661 61.2762C28.7304 61.4378 28.7654 61.8318 28.6815 61.8392C28.2841 61.8392 28.2497 61.2762 28.1241 60.987C28.0058 60.7479 27.8524 60.5582 27.7267 60.3325C27.7056 60.2904 27.6639 60.2056 27.6362 60.1141C27.6077 60.0433 27.5734 59.9591 27.5456 59.889C27.4967 59.7835 27.4967 59.7902 27.4689 59.72C27.4272 59.6492 27.3155 59.509 27.2805 59.4308V59.4175C27.1205 59.1777 27.0153 58.8251 26.897 58.6561C26.8414 58.5579 26.7575 58.4664 26.7019 58.3683C26.6041 58.2126 26.5485 58.023 26.4718 57.8326C26.3951 57.6844 26.2768 57.5227 26.2067 57.3611C26.1161 57.1634 26.1022 56.9103 26.0117 56.7059C25.9627 56.6004 25.8722 56.4875 25.8239 56.3894C25.7194 56.1496 25.6493 55.9032 25.531 55.6781C25.4748 55.5652 25.3981 55.4664 25.3353 55.3542C25.252 55.1638 25.1964 54.9601 25.0986 54.7698C24.8897 54.3964 24.6662 53.981 24.4923 53.5796C24.3944 53.3332 24.3528 53.0934 24.2483 52.861C24.1644 52.664 24.046 52.4603 23.9554 52.2766C23.8999 52.1497 23.8787 52.0235 23.8298 51.8899C23.7465 51.6575 23.6486 51.4251 23.5581 51.1994C23.5091 51.0584 23.4675 50.7071 23.4324 50.5662C23.363 50.4039 23.2791 50.2203 23.2096 50.0586C23.1045 49.8122 23.0629 49.5524 22.9518 49.2986C22.8751 49.1156 22.7845 48.9039 22.7078 48.7142C22.645 48.5452 22.6377 48.397 22.5683 48.2353C22.5194 48.1225 22.4427 47.9816 22.4076 47.862C22.3455 47.7211 22.3171 47.4813 22.2681 47.291C22.1987 47.0799 22.1081 46.8762 22.0453 46.6645C21.9964 46.5096 21.9964 46.1436 21.9475 46.0521C21.7319 45.4049 21.5296 44.7003 21.3207 44.0451C21.2433 43.7566 21.195 43.4467 21.1045 43.1515C21.0767 43.0313 21.0767 42.8837 21.0417 42.7635C20.9855 42.5812 20.9021 42.3761 20.8532 42.2005C20.8182 42.0596 20.7977 41.926 20.7699 41.7991C20.7349 41.6655 20.6648 41.5179 20.6165 41.3837C20.4909 40.9963 20.4281 40.5736 20.3164 40.2009C20.2674 40.0319 20.2674 39.8269 20.233 39.6793C20.0797 39.2078 20.038 38.6654 19.9124 38.1519C19.8846 38.0103 19.8496 37.87 19.8218 37.7291C19.5844 36.8068 19.4734 35.7642 19.2082 34.8699C19.1593 34.701 19.2155 34.4899 19.1871 34.3003C19.1243 34.0959 19.0687 33.9055 19.0059 33.7225C18.9781 33.6237 18.9781 33.5529 18.957 33.4621C18.9087 33.2998 18.8386 33.1802 18.7692 33.2016C18.6714 33.2437 18.6852 33.3352 18.6852 33.4621C18.6991 33.6731 18.7203 33.8354 18.7692 34.0044C18.7904 34.1587 18.7758 34.2642 18.8109 34.3984C18.8942 34.6803 18.9292 35.0883 18.9643 35.3488C18.9848 35.4617 18.9781 35.6026 18.9986 35.7362C19.0271 35.8631 19.1243 36.0534 19.1593 36.187C19.1871 36.384 19.1871 36.6378 19.2082 36.8348C19.2433 37.0111 19.2915 37.1801 19.3477 37.3491C19.3828 37.4893 19.3477 37.6303 19.3967 37.7645C19.431 37.9054 19.515 38.0316 19.5355 38.1726C19.5633 38.3556 19.5355 38.5953 19.5706 38.7362C19.7729 39.5597 19.8284 40.5108 20.073 41.3062C20.1002 41.4264 20.1002 41.5386 20.1279 41.6441C20.3309 42.3274 20.477 43.0734 20.6859 43.7566C20.7071 43.8555 20.7071 43.9677 20.7349 44.0879C20.8043 44.327 20.8532 44.5874 20.9021 44.8339C20.9372 44.9394 20.9372 45.0383 20.9577 45.1438C21.0278 45.4049 21.125 45.644 21.2023 45.8971C21.2367 46.0174 21.2433 46.1229 21.2645 46.2498C21.2856 46.3479 21.3346 46.4535 21.3623 46.5376C21.404 46.6859 21.3901 46.8268 21.4317 46.9464C21.4602 47.0312 21.5296 47.108 21.5501 47.2001C21.5785 47.3404 21.599 47.4813 21.6413 47.6296C21.6896 47.8059 21.7808 47.9749 21.8569 48.1438C21.9131 48.2848 21.9131 48.425 21.9613 48.5659C22.0665 48.8197 22.1709 49.0942 22.2542 49.348C22.3382 49.5591 22.3455 49.7701 22.4288 49.9885C22.4777 50.1221 22.5333 50.2703 22.5822 50.4113C22.6172 50.5235 22.6377 50.6223 22.6728 50.7419C22.7144 50.8474 22.8262 51.0164 22.8962 51.1432C22.9445 51.2982 22.924 51.4952 22.9723 51.6575C23.0212 51.8265 23.1118 51.9534 23.1746 52.101C23.2235 52.2633 23.2235 52.4109 23.2586 52.5725C23.3002 52.6994 23.3835 52.8123 23.4324 52.9251C23.4814 53.0514 23.5303 53.1923 23.5792 53.3118C23.607 53.404 23.6903 53.4948 23.7253 53.587C23.7882 53.7346 23.851 53.8962 23.9065 54.0585C24.0044 54.2695 24.0182 54.5587 24.0877 54.8119C24.1088 54.882 24.0949 55.065 24.046 55.079C23.9482 55.0937 23.8298 54.9314 23.7604 54.8332C23.6486 54.6709 23.5303 54.4666 23.4397 54.2629C23.4113 54.1854 23.3908 54.1153 23.3696 54.0371C23.3141 53.8682 23.2513 53.6785 23.1746 53.4948C23.1329 53.396 23.0629 53.2771 23.0212 53.1642C22.9657 53.0026 22.9934 52.8049 22.9306 52.664C22.8824 52.5444 22.7845 52.4529 22.7217 52.3334C22.6866 52.2205 22.6728 52.101 22.6238 52.0021C22.5683 51.8686 22.4982 51.749 22.4149 51.6288C22.366 51.5092 22.366 51.3897 22.3243 51.2354C22.2754 51.0731 22.2265 50.9035 22.157 50.7559C22.087 50.5943 21.9898 50.446 21.9197 50.2703C21.8919 50.1929 21.8708 50.1014 21.843 50.0099C21.8013 49.8897 21.7385 49.7487 21.6896 49.6499C21.6691 49.5524 21.6479 49.4602 21.6136 49.3687C21.5501 49.2345 21.4807 49.0942 21.4317 48.9466C21.3901 48.8264 21.3828 48.7069 21.3346 48.5873C21.2645 48.3829 21.2023 48.1505 21.1322 47.9462C21.0833 47.7845 21.0767 47.6296 21.0278 47.4746C20.965 47.291 20.8883 47.108 20.8255 46.9257C20.7699 46.7774 20.756 46.6084 20.7137 46.4675C20.6443 46.2631 20.5464 46.0875 20.477 45.8758C20.4347 45.7075 20.4347 45.5452 20.4069 45.3902C20.2886 45.0029 20.163 44.5808 20.038 44.1861C19.9124 43.7426 19.8912 43.2357 19.759 42.7915C19.675 42.4823 19.5706 42.1791 19.4734 41.8699C19.431 41.7009 19.431 41.5453 19.3967 41.3837C19.3054 41.0457 19.1871 40.5736 19.0687 40.2149C19.0059 40.0179 19.0198 39.8202 18.9643 39.6091C18.9087 39.4048 18.8942 39.1583 18.8386 38.9333C18.7904 38.7923 18.7481 38.7075 18.7203 38.5245C18.6786 38.3556 18.6852 38.1445 18.6575 38.0103C18.6297 37.87 18.3996 37.0953 18.3785 36.9544C18.358 36.8208 18.358 36.5456 18.3441 36.4688C18.3302 36.398 18.2112 36.0534 18.2046 35.9826C18.1834 35.8911 18.1834 35.7923 18.1418 35.6093C18.114 35.4336 18.0161 35.0603 17.995 34.9474C17.9745 34.8426 17.9745 34.6095 17.9533 34.5113C17.9328 34.3844 17.8628 34.138 17.8138 33.955C17.751 33.7366 17.8072 33.4968 17.7371 33.2864C17.6955 33.1241 17.6327 32.9825 17.5771 32.8283C17.5494 32.7014 17.5077 32.5324 17.5077 32.4483C17.4865 32.3421 17.4865 32.0889 17.4793 31.9968C17.4793 31.8705 17.4237 31.6662 17.4099 31.4765C17.396 31.2367 17.3398 30.9622 17.2981 30.814C17.277 30.7231 17.2842 30.6103 17.2703 30.5328C17.2003 30.2937 17.1381 30.0606 17.0052 30.082C16.9219 30.0887 16.8869 30.1595 16.9285 30.3284C16.9774 30.5114 16.9913 30.659 17.0403 30.8561C17.0819 30.9556 17.0819 31.2013 17.0892 31.2862C17.0892 31.4264 17.0965 31.4478 17.117 31.5747C17.117 31.6241 17.1381 31.7577 17.1447 31.8138C17.1659 31.8986 17.2003 32.0188 17.2003 32.0889V32.3775C17.2003 32.4483 17.2003 32.469 17.2148 32.5818C17.2492 32.694 17.2565 32.7014 17.2703 32.8002C17.277 32.8844 17.2703 32.9618 17.2703 33.0253C17.2703 33.1094 17.2842 33.1802 17.3047 33.2717C17.3543 33.434 17.4654 33.6658 17.4237 33.8989C17.3748 34.1587 17.4442 34.3984 17.5077 34.6095C17.5355 34.7577 17.5077 34.9127 17.5355 35.0389L17.675 35.6307C17.7166 35.8063 17.6955 35.9472 17.7371 36.0955C17.7933 36.3139 17.9467 36.6097 17.9533 36.6946C17.9745 36.7994 17.9606 37.0606 17.995 37.2289C18.0228 37.3912 18.0651 37.5815 18.0723 37.6937C18.0862 37.7852 18.0723 37.8413 18.0862 37.9121C18.0928 37.9896 18.2046 38.3629 18.2185 38.4617C18.2396 38.5673 18.2323 38.616 18.2535 38.7149C18.274 38.813 18.358 39.2144 18.3719 39.3487C18.3923 39.4756 18.3785 39.5597 18.3996 39.6793C18.4485 39.891 18.5319 40.0526 18.5669 40.243C18.6019 40.3906 18.5874 40.4754 18.6086 40.5949C18.6509 40.7712 18.7064 40.9329 18.7408 41.1018C18.7692 41.2354 18.7692 41.3697 18.7904 41.4959C18.8459 41.7851 18.8876 42.0803 18.9643 42.3695C19.0198 42.5384 19.1177 42.7 19.1666 42.8623C19.2082 43.0106 19.2155 43.1649 19.2572 43.3132C19.2915 43.4467 19.3828 43.5663 19.4172 43.7139C19.4449 43.8134 19.431 43.9396 19.4522 44.0665C19.4939 44.2001 19.5567 44.327 19.5706 44.4819C19.6056 44.5808 19.5844 44.6789 19.6056 44.7918C19.6406 44.9114 19.7028 45.0169 19.7312 45.1298C19.759 45.2847 19.759 45.447 19.8006 45.5806C19.8423 45.7562 19.9124 45.9252 19.9679 46.0875C20.0235 46.2351 20.003 46.3974 20.0307 46.5597C20.1279 46.911 20.2469 47.2983 20.3653 47.6222C20.4208 47.7912 20.4069 47.9816 20.4559 48.1712C20.5048 48.2914 20.5676 48.3829 20.6165 48.4951C20.6582 48.608 20.6304 48.7349 20.6582 48.8551C20.7137 49.0802 20.7488 49.3614 20.8255 49.5664C20.8955 49.7982 21.0344 50.0025 21.125 50.2203C21.2023 50.46 21.2162 50.7071 21.2856 50.9462C21.3623 51.1573 21.4602 51.3683 21.5435 51.544C21.6136 51.7276 21.5924 51.9534 21.6618 52.129C21.718 52.3334 21.8569 52.481 21.9408 52.6854C22.0387 52.9104 22.087 53.1429 22.157 53.3753C22.1782 53.4741 22.1987 53.5656 22.2199 53.6785C22.3104 53.967 22.4638 54.2201 22.5683 54.502C22.6033 54.6429 22.6172 54.7484 22.6516 54.868C22.7217 55.079 22.8123 55.2834 22.9028 55.4951C22.9862 55.6641 23.0906 55.833 23.1746 56.016C23.2513 56.1776 23.2586 56.3466 23.3419 56.5163C23.3908 56.6779 23.4675 56.8609 23.5369 57.0232C23.5792 57.1287 23.5792 57.2202 23.6275 57.3324C23.8159 57.7839 24.0672 58.234 24.2761 58.6848C24.3944 58.9239 24.4434 59.1917 24.5551 59.4382C24.6457 59.6419 24.7502 59.8189 24.8407 60.0292C24.8897 60.1635 24.9102 60.2904 24.973 60.4166C25.0774 60.6557 25.2381 60.9028 25.3492 61.1566C25.3776 61.2054 25.4609 61.4658 25.4193 61.572C25.4193 61.5787 25.4054 61.6001 25.3981 61.6001C25.3287 61.6208 25.1687 61.5012 25.0913 61.4171C24.7984 61.1286 24.7502 60.5856 24.5617 60.2122C24.5062 60.1141 24.4368 59.9945 24.3733 59.8817C24.3455 59.8042 24.3316 59.7341 24.2973 59.6633C24.1644 59.4175 24.0182 59.2131 23.9065 58.9453C23.8298 58.769 23.8087 58.5579 23.7392 58.389C23.3974 57.6703 23.0212 56.9811 22.7144 56.2698C22.5683 55.9452 22.5333 55.5652 22.4149 55.2132C22.3382 55.0089 22.206 54.8332 22.1286 54.6429C22.0592 54.4879 22.0453 54.319 21.9686 54.1714C21.8708 53.9597 21.7385 53.7767 21.6691 53.5442C21.6202 53.404 21.599 53.2557 21.5435 53.1215C21.4807 52.9525 21.3689 52.8256 21.3061 52.6854C21.2162 52.4529 21.195 52.2279 21.1111 51.9667C21.0767 51.8405 21.0278 51.6856 20.9716 51.5587C20.9372 51.4458 20.9233 51.3262 20.8883 51.2067C20.7977 50.9315 20.6377 50.6924 20.5259 50.4246C20.4559 50.2349 20.477 50.0025 20.4069 49.8189C20.3375 49.6713 20.2192 49.5524 20.1491 49.3968C20.0935 49.2345 20.1491 49.0375 20.1002 48.8478C20.0519 48.6641 19.9818 48.4951 19.9197 48.3268C19.8912 48.2066 19.8846 48.1018 19.8423 48.0029C19.759 47.7705 19.6823 47.5521 19.6056 47.3404C19.5706 47.2215 19.5706 47.122 19.5216 47.0098C19.4661 46.8903 19.3616 46.77 19.3127 46.6158C19.2572 46.404 19.2433 46.179 19.1943 45.9539C19.1038 45.6861 19.0059 45.4537 18.9292 45.1792C18.8942 45.095 18.8942 45.0102 18.8803 44.9187C18.8109 44.6723 18.7758 44.3978 18.7203 44.1654C18.6852 44.0451 18.6991 43.9396 18.6714 43.8274C18.6019 43.6017 18.518 43.3619 18.4485 43.1515C18.4135 43.0033 18.3996 42.8623 18.3719 42.7288C18.274 42.3628 18.1623 41.94 18.0512 41.5947C18.03 41.4892 18.0439 41.4044 18.0023 41.2995C17.9328 41.0244 17.8138 40.6864 17.751 40.4119C17.7232 40.243 17.7232 40.0807 17.6816 39.9331C17.6465 39.7354 17.5771 39.5597 17.5355 39.3694C17.5282 39.2779 17.5355 39.2078 17.5355 39.1443C17.5143 39.0174 17.5077 38.8838 17.4865 38.7783C17.3682 38.2714 17.1659 37.673 17.068 37.1728C17.0191 36.9898 17.0191 36.8068 16.9986 36.6378C16.9774 36.5036 16.9708 36.3633 16.9285 36.2364C16.8869 36.1022 16.8313 35.9753 16.8102 35.835C16.7897 35.624 16.7824 35.4129 16.7474 35.2086C16.7474 35.1872 16.7474 35.1798 16.7401 35.1591C16.7123 34.9127 16.5801 34.3844 16.5523 34.18C16.5107 33.9336 16.4822 33.6945 16.4545 33.4407C16.4545 33.2864 16.4201 33.1241 16.4062 32.9552C16.3639 32.7014 16.3011 32.469 16.2806 32.2085C16.2667 32.0255 16.2733 31.8705 16.2528 31.7296C16.2455 31.6241 16.2316 31.4692 16.1133 31.4692C15.9949 31.4692 16.0154 31.6034 16.0004 31.7156C15.9949 31.9761 16.0432 32.328 16.0644 32.4903C16.106 32.7929 16.071 33.0954 16.106 33.4053C16.1272 33.5816 16.1827 33.7573 16.2039 33.9129C16.2455 34.2081 16.2733 34.5113 16.3011 34.7858V34.7998C16.315 34.9407 16.3222 35.0603 16.35 35.1872C16.35 35.2012 16.35 35.2086 16.3639 35.2219V35.2433V35.2647C16.385 35.3208 16.3923 35.3842 16.4128 35.4336C16.4406 35.5392 16.434 35.6307 16.4617 35.7502C16.5523 36.0955 16.5318 36.4688 16.6217 36.7994C16.7474 37.2923 16.8174 37.8206 16.9708 38.3208C17.0052 38.4544 16.9708 38.602 17.0052 38.7569C17.0614 38.9052 17.0965 39.0602 17.1308 39.2078C17.1659 39.3981 17.1381 39.5878 17.1864 39.7708C17.2287 39.9471 17.2842 40.1234 17.3259 40.2924C17.3887 40.4821 17.3887 40.6938 17.4442 40.9122C17.5077 41.1372 17.5771 41.3763 17.6115 41.5874C17.6677 41.8485 17.6816 42.137 17.7371 42.3902C17.7722 42.6232 17.9044 42.8837 17.9533 43.1302C17.9533 43.2003 17.9533 43.2851 17.9606 43.3766C17.995 43.5449 18.0439 43.7286 18.0862 43.8835C18.1001 43.9677 18.0928 44.0244 18.1206 44.1153C18.2046 44.4398 18.3018 44.8339 18.3923 45.1438C18.4201 45.2353 18.4274 45.3341 18.4485 45.4256C18.518 45.644 18.5808 45.813 18.6086 45.9252C18.6297 46.0381 18.6509 46.165 18.6714 46.2845C18.7203 46.4535 18.7758 46.5944 18.797 46.756C18.8248 46.8762 18.8459 46.9818 18.8803 47.1013C18.9153 47.2422 18.9781 47.3691 19.0337 47.5094C19.1243 47.7912 19.1454 48.1018 19.236 48.3829C19.2915 48.5452 19.3755 48.7069 19.431 48.8758C19.4734 49.0448 19.4939 49.2345 19.5428 49.4175C19.6268 49.6926 19.7312 50.0099 19.8284 50.2844C19.954 50.615 20.0235 50.9883 20.1279 51.2842C20.1775 51.4177 20.1702 51.5373 20.2119 51.6789C20.3097 51.9808 20.4069 52.3334 20.5048 52.6426C20.5603 52.8123 20.5603 52.9739 20.6304 53.1362C20.7349 53.396 20.8883 53.6291 20.9855 53.8895C21.0628 54.1286 21.0833 54.347 21.1739 54.5728C21.2856 54.8613 21.4106 55.1431 21.5296 55.4523C21.599 55.6641 21.6341 55.8751 21.7108 56.0795C21.7808 56.2337 21.878 56.4174 21.9613 56.579C22.0175 56.7273 22.0804 56.8822 22.1147 57.0298C22.157 57.1427 22.2754 57.3397 22.366 57.4947C22.4566 57.7057 22.4777 57.9241 22.5471 58.1425C22.6728 58.4871 22.8328 58.8398 22.9723 59.1497C23.0351 59.2692 23.0424 59.3821 23.0906 59.5223C23.1746 59.7407 23.3214 59.9104 23.4113 60.1141C23.5025 60.3111 23.5303 60.5228 23.607 60.7125C23.7392 60.9943 23.8371 61.1566 23.8298 61.5573C23.8298 61.5861 23.8159 61.6208 23.7809 61.6281C23.7115 61.6562 23.6275 61.5366 23.5792 61.5012C23.363 61.2762 23.3419 61.0858 23.2024 60.7826C22.9934 60.3325 22.7356 59.9237 22.526 59.4876C22.4361 59.2692 22.3871 59.0154 22.2754 58.7904C22.2199 58.6494 22.1286 58.4945 22.0665 58.3536C21.9613 58.1565 21.9131 57.9448 21.8086 57.7618C21.6691 57.4807 21.5435 57.1708 21.4251 56.8822C21.3689 56.7554 21.3689 56.6498 21.3207 56.551C21.2645 56.4248 21.195 56.3186 21.1322 56.199C21.0628 56.016 21.0139 55.7836 20.9372 55.5933C20.7765 55.2413 20.5954 54.8613 20.4492 54.4879C20.3375 54.136 20.2674 53.8187 20.1418 53.4461C20.0935 53.3118 20.0235 53.1428 19.9818 53.0026C19.9335 52.861 19.9335 52.7555 19.8912 52.6293C19.7729 52.312 19.6268 51.9667 19.4939 51.6709C19.4244 51.5166 19.4033 51.3683 19.3477 51.2067C19.2777 51.0164 19.1943 50.7906 19.1243 50.5943C19.0337 50.3545 19.0271 50.0586 18.9292 49.7768C18.7269 49.2211 18.4624 48.6154 18.2879 48.0029C18.2601 47.862 18.274 47.7211 18.2323 47.5802C18.1345 47.2776 18.03 46.939 17.9467 46.6158C17.835 46.2631 17.8555 45.8831 17.7371 45.5238C17.5976 45.0737 17.4442 44.6088 17.2981 44.1654C17.2565 44.0171 17.277 43.8835 17.2353 43.7426C17.1381 43.3833 17.0191 42.9819 16.9007 42.658C16.8379 42.503 16.8379 42.3274 16.7824 42.1791C16.7123 41.9888 16.5318 42.0596 16.5384 42.2713C16.5523 42.4543 16.6217 42.6934 16.6429 42.7849C16.6641 42.9258 16.6641 43.0527 16.6918 43.1863C16.7401 43.426 16.8174 43.6371 16.8869 43.8481C16.9569 44.0879 16.9569 44.2849 17.0264 44.5313C17.068 44.6369 17.117 44.7778 17.1381 44.8907C17.2148 45.1224 17.2148 45.3762 17.2981 45.5806C17.3543 45.7562 17.4099 45.9539 17.4581 46.1369C17.4932 46.2631 17.4865 46.3687 17.5282 46.4748C17.5771 46.6859 17.6465 46.911 17.7166 47.108C17.751 47.2422 17.7371 47.3477 17.7649 47.4606C17.8138 47.6296 17.8555 47.8059 17.9044 47.9535C17.9467 48.1151 17.9467 48.3268 17.9811 48.4885C18.0862 48.7843 18.1907 49.0942 18.2879 49.3687C18.3923 49.6713 18.3996 50.0025 18.518 50.3124C18.7203 50.8754 18.8942 51.5166 19.1038 52.0723C19.1593 52.2205 19.1381 52.3681 19.1871 52.5237C19.2433 52.7628 19.2915 53.0026 19.3755 53.235C19.4244 53.3472 19.4939 53.4668 19.5428 53.5796C19.6056 53.7132 19.6129 53.8475 19.6823 53.9951C19.7312 54.1073 19.8006 54.2275 19.8423 54.3397C19.9124 54.5233 19.8912 54.7417 19.9613 54.9034C20.0096 55.0443 20.0797 55.1852 20.1279 55.3261C20.1914 55.4804 20.1914 55.6427 20.2469 55.7836C20.3097 55.9172 20.4003 56.0441 20.4492 56.1569C20.5048 56.2838 20.5187 56.4107 20.5676 56.537C20.6165 56.6705 20.6859 56.8121 20.7488 56.939C20.8043 57.0719 20.8182 57.2269 20.8744 57.3825C20.9233 57.5014 21.0139 57.6356 21.0628 57.7618C21.1111 57.9028 21.1111 58.065 21.1739 58.2126C21.2506 58.4384 21.3828 58.614 21.4807 58.8398C21.5435 58.9807 21.5501 59.1563 21.6202 59.3113C21.7035 59.501 21.8086 59.6846 21.8919 59.8536C21.9964 60.0934 22.1009 60.3465 22.1848 60.5649C22.366 60.9736 22.4361 61.4171 22.6033 61.8185C22.7567 62.0996 22.924 62.3955 23.0629 62.67C23.1329 62.8323 23.1541 63.0013 23.2301 63.1629C23.3214 63.3459 23.4536 63.4875 23.5303 63.6705C23.5997 63.8461 23.6486 64.0151 23.7187 64.1907C23.8159 64.4098 23.9693 64.6208 24.0672 64.8252C24.1227 64.9521 24.1577 65.0857 24.206 65.1912C24.3178 65.4443 24.5062 65.6347 24.604 65.8885C24.6662 66.0361 24.7224 66.1984 24.7707 66.36C24.9035 66.6064 25.0774 66.8322 25.2103 67.0786C25.3009 67.2823 25.3565 67.4727 25.4609 67.6556C25.6355 67.9235 25.7472 68.1065 25.9138 68.3883C26.0256 68.5573 26.1723 68.8318 26.2556 69.0074C26.3396 69.2118 26.4923 69.3594 26.5836 69.5497C26.6603 69.7327 26.7786 69.9297 26.8765 70.1134C27.0014 70.3171 27.1066 70.458 27.2249 70.6337C27.4338 70.9436 27.5522 71.2748 27.7545 71.5921C27.894 71.8024 28.0401 72.0215 28.2008 72.2252C28.5982 72.7749 29.1628 73.7753 29.4134 74.1126C29.6157 74.3731 29.783 74.7037 29.9641 74.9722C30.1109 75.1966 30.2987 75.4156 30.4455 75.606C30.5777 75.789 30.6756 75.9646 30.7939 76.1476L30.9056 76.2812C36.0224 82.8443 41.2854 87.2028 45.7397 90.0553H45.7258C48.0888 91.5407 49.3569 91.9701 49.3569 91.9701C49.6498 92.1037 49.4343 92.3147 49.2948 92.4136L22.8824 109.476C22.805 109.524 22.5961 109.673 22.6728 109.848C22.7428 109.975 23.0146 109.898 23.084 109.876C44.2752 102.363 59.6533 96.1877 69.0571 91.6809C78.5866 87.1047 81.786 84.4913 81.4514 83.1963ZM25.0497 57.9522C25.0014 57.8533 24.9518 57.7411 24.9102 57.6423C24.8619 57.5227 24.8619 57.4032 24.813 57.3043C24.6457 56.917 24.4645 56.5089 24.2834 56.1356C24.2133 55.988 24.1227 55.6921 24.1855 55.5018C24.1921 55.4737 24.2549 55.4951 24.2761 55.5018C24.3316 55.5652 24.3733 55.5933 24.4229 55.6574C24.4645 55.7061 24.4711 55.7622 24.5062 55.8257C24.5829 55.9526 24.694 56.0862 24.764 56.2197C24.9035 56.5296 24.9313 56.8609 25.0708 57.1634C25.1614 57.3538 25.3075 57.5227 25.4054 57.7198C25.447 57.8259 25.4748 57.9315 25.5171 58.051C25.5376 58.1425 25.531 58.248 25.5376 58.3182C25.5376 58.417 25.531 58.4871 25.4887 58.4871C25.2381 58.4731 25.1614 58.1425 25.0497 57.9522ZM26.1651 66.1349C26.1512 66.1696 26.1373 66.1984 26.0818 66.1984C25.8027 66.1837 25.7194 65.7682 25.6004 65.5645C25.4887 65.4163 25.4054 65.2266 25.3075 65.071C25.2308 64.9521 25.1336 64.8319 25.0708 64.7123C24.9941 64.5434 24.973 64.3677 24.8685 64.2261C24.8196 64.1487 24.729 64.0785 24.6801 64.0011C24.534 63.7974 24.3944 63.5783 24.2834 63.3178C24.2622 63.2123 24.2483 63.1282 24.2133 63.022C24.1644 62.8677 24.0949 62.6914 24.0394 62.5224C24.0182 62.4309 23.9971 62.2686 24.0182 62.2125C24.0255 62.1845 24.0394 62.1631 24.0599 62.1704C24.2622 62.2125 24.485 62.7408 24.5829 62.9238C24.7012 63.1348 24.8824 63.2971 24.9941 63.5149C25.0708 63.7192 25.0986 63.9583 25.2103 64.1487C25.287 64.2896 25.4193 64.4098 25.5098 64.5507C25.6282 64.719 25.7055 64.9655 25.8027 65.1558C25.8933 65.3816 26.0467 65.5572 26.1373 65.7756C26.1723 65.8738 26.1928 66.0361 26.1651 66.1349ZM32.0977 64.9234C31.9721 64.902 31.902 64.8252 31.8187 64.7611C31.6025 64.5995 31.4214 64.3323 31.4141 63.9583C31.4141 63.9096 31.4214 63.8955 31.4491 63.8955C31.7136 63.8955 31.986 64.2969 32.0905 64.494C32.1116 64.5641 32.181 64.7123 32.1672 64.8112C32.1672 64.8813 32.1394 64.9094 32.0977 64.9234ZM33.875 64.9942C33.7004 65.0503 33.2826 64.5641 33.1642 64.3677C32.9341 64.0365 32.7179 63.6705 32.4739 63.3459C32.2577 63.036 32.0204 62.8323 31.9582 62.3254C31.9582 62.2619 31.9166 62.0996 31.9582 62.0996C32.1949 62.121 32.425 62.5431 32.5368 62.7121C32.6273 62.8323 32.7245 62.9445 32.8151 63.0647C32.913 63.2477 32.9758 63.4661 33.0941 63.6351C33.2409 63.8461 33.4214 64.0291 33.5821 64.2408C33.666 64.353 33.7778 64.4519 33.826 64.5995C33.8611 64.6843 33.9378 64.9655 33.875 64.9942ZM40.1071 68.4791C39.8632 68.5072 39.5637 68.1345 39.4447 67.9515C39.403 67.9021 39.2635 67.6062 39.3051 67.5642C39.3541 67.5147 39.6397 67.6136 39.7237 67.677C39.9114 67.832 40.0721 68.043 40.1693 68.4157C40.1693 68.4651 40.1283 68.4791 40.1071 68.4791Z" fill="white"/>
<path d="M182.721 103.926L165.503 67.7251L148.375 103.926C145.824 108.876 142.986 108.989 142.986 108.989L142.743 109.256H154.454L154.175 108.989C154.175 108.989 150.905 108.334 152.983 103.926L156.05 97.5388H170.723L173.693 103.926C175.771 108.334 172.501 108.989 172.501 108.989L172.243 109.256H188.374L188.095 108.989C188.095 108.989 185.125 108.967 182.721 103.926ZM157.66 94.1734L163.704 81.3436L169.211 94.1734H157.66ZM127.881 105.524C119.453 105.524 113.646 99.9404 113.646 89.7655C113.646 79.5831 119.292 72.9498 128.188 72.9498C137.41 72.9498 140.735 80.1956 140.735 80.1956L140.965 80.3859V71.8165C140.965 71.8165 135.437 69.0916 127.553 69.0916C113.346 69.0916 104.423 77.9495 104.423 89.8149C104.423 99.3701 111.785 109.918 126.988 109.918C132.711 109.918 139.389 107.63 139.389 107.63L142.463 97.0178L142.122 97.2503C142.122 97.2503 137.144 105.524 127.881 105.524ZM333.71 69.7254L333.989 69.9858C333.989 69.9858 337.44 70.9709 334.832 75.0697C333.564 77.0693 329.709 82.6393 326.196 88.033C322.661 82.6393 318.87 77.0339 317.586 75.0416C314.994 70.9295 318.465 69.9858 318.465 69.9858L318.73 69.7254H302.592L302.85 69.9858C302.85 69.9858 305.185 70.3872 308.246 75.0416C309.535 77.0132 316.081 86.2518 319.608 91.6522V103.947C319.608 108.615 316.994 109.017 316.994 109.017L316.722 109.277H330.734L330.455 109.017C330.455 109.017 327.848 108.615 327.848 103.947C327.848 101.975 327.827 97.0392 327.827 91.6522C331.354 86.2518 337.907 77.0486 339.21 75.0697C342.243 70.4153 345.721 69.9858 345.721 69.9858L346 69.7254H333.71ZM306.071 103.926L288.852 67.7251L271.725 103.926C269.174 108.876 266.35 108.989 266.35 108.989L266.078 109.256H277.776L277.531 108.989C277.531 108.989 274.262 108.334 276.326 103.926L279.407 97.5388H294.081L297.043 103.926C299.142 108.334 295.858 108.989 295.858 108.989L295.594 109.256H311.724L311.445 108.989C311.445 108.989 308.475 108.967 306.071 103.926ZM281.01 94.1734L287.054 81.3436L292.568 94.1734H281.01ZM188.326 69.7254C183.717 69.7254 183.063 69.2746 183.063 69.2746L183.041 77.1541L183.32 76.943C183.32 76.943 185.425 73.5422 190.026 73.5422H196.607V103.947C196.607 108.615 194 109.017 194 109.017L193.713 109.277H207.732L207.46 109.017C207.46 109.017 204.846 108.615 204.846 103.947L204.888 73.5422H211.301C215.923 73.5422 218.14 76.943 218.14 76.943L218.405 77.1541L218.418 69.2746C218.418 69.2746 217.763 69.7254 213.149 69.7254H188.326ZM261.833 103.947C261.833 99.2853 261.826 79.6399 261.826 74.9782C261.826 70.3098 264.441 69.9785 264.441 69.9785L264.705 69.718H250.7L250.952 69.9785C250.952 69.9785 253.572 70.3098 253.572 74.9782C253.572 79.6399 253.594 86.3566 253.594 86.3566H234.334V74.9782C234.334 70.3098 236.968 69.9858 236.968 69.9858L237.212 69.7254H223.214L223.493 69.9858C223.493 69.9858 226.107 70.3098 226.107 74.9782V103.947C226.107 108.615 223.493 109.017 223.493 109.017L223.214 109.277H237.212L236.968 109.017C236.968 109.017 234.334 108.615 234.334 103.947V90.2303H253.594V103.947C253.594 108.615 250.994 109.017 250.994 109.017L250.722 109.277H264.726L264.461 109.017C264.461 109.017 261.833 108.615 261.833 103.947Z" fill="white"/>
</svg>
