<svg width="362" height="140" viewBox="0 0 362 140" fill="none" xmlns="http://www.w3.org/2000/svg">
<rect width="362" height="140" fill="#D3241B"/>
<path d="M63.4168 40C63.5064 40 63.5613 40.0549 63.5817 40.1646C64.3713 44.4206 65.3788 47.8758 66.604 50.5302C67.3489 52.144 68.6759 54.7516 70.585 58.3531C72.8014 62.5299 72.0931 68.6699 67.2757 70.7796C65.794 71.43 64.5708 71.9808 63.6061 72.432C63.5084 72.4767 63.4453 72.4991 63.4168 72.4991C63.3883 72.4991 63.3252 72.4767 63.2275 72.432C62.2628 71.9808 61.0396 71.43 59.558 70.7796C54.7405 68.6699 54.0322 62.5299 56.2486 58.3531C58.1577 54.7516 59.4847 52.144 60.2296 50.5302C61.4548 47.8758 62.4623 44.4206 63.252 40.1646C63.2723 40.0549 63.3273 40 63.4168 40ZM65.8408 67.5724C65.8408 66.9304 65.5854 66.3147 65.1308 65.8607C64.6762 65.4068 64.0597 65.1517 63.4168 65.1517C62.7739 65.1517 62.1574 65.4068 61.7028 65.8607C61.2482 66.3147 60.9928 66.9304 60.9928 67.5724C60.9928 68.2144 61.2482 68.8301 61.7028 69.2841C62.1574 69.738 62.7739 69.9931 63.4168 69.9931C64.0597 69.9931 64.6762 69.738 65.1308 69.2841C65.5854 68.8301 65.8408 68.2144 65.8408 67.5724Z" fill="#FFE105"/>
<path d="M170.144 53.3289C170.144 53.2238 170.186 53.123 170.26 53.0487C170.335 52.9743 170.436 52.9326 170.541 52.9326H173.026C173.131 52.9326 173.232 52.9743 173.307 53.0487C173.381 53.123 173.423 53.2238 173.423 53.3289V58.5849C173.423 58.7102 173.383 58.8321 173.309 58.9329C173.236 59.0338 173.132 59.1083 173.014 59.1458C169.827 60.1336 166.823 60.1295 164.002 59.1336C160.186 57.7861 157.682 54.3228 159.013 50.2863C160.778 44.945 167.842 43.7865 172.342 45.5974C172.422 45.6299 172.494 45.6781 172.554 45.7391C172.614 45.8001 172.662 45.8727 172.693 45.9525C172.724 46.0323 172.739 46.1176 172.737 46.2033C172.734 46.289 172.714 46.3733 172.678 46.4511L172.434 46.9876C172.345 47.1763 172.189 47.3247 171.996 47.4028C171.804 47.4809 171.589 47.4829 171.396 47.4084C168.007 46.1157 163.483 47.1035 162.457 50.9997C161.272 55.463 165.595 58.4873 169.656 57.5788C169.794 57.5465 169.918 57.4686 170.007 57.3579C170.096 57.2471 170.144 57.11 170.144 56.9691V53.3289Z" fill="#FFE105"/>
<path d="M232.662 53.3228C232.662 53.2188 232.703 53.1189 232.776 53.0447C232.85 52.9706 232.949 52.9281 233.053 52.9265L235.532 52.9143C235.636 52.9143 235.736 52.9552 235.811 53.0282C235.885 53.1012 235.927 53.2005 235.929 53.3045L235.953 58.5422C235.954 58.667 235.916 58.7888 235.843 58.8897C235.771 58.9906 235.668 59.0654 235.55 59.1031C232.379 60.1031 229.386 60.1133 226.569 59.1336C222.765 57.8105 220.249 54.3777 221.556 50.3473C223.29 45.0182 230.318 43.8292 234.812 45.6096C234.89 45.6412 234.962 45.6886 235.022 45.7488C235.082 45.809 235.129 45.8809 235.16 45.9601C235.191 46.0393 235.206 46.1241 235.204 46.2095C235.202 46.295 235.183 46.3792 235.147 46.4572L234.909 46.9937C234.822 47.1811 234.668 47.3286 234.476 47.4067C234.285 47.4847 234.071 47.4875 233.877 47.4144C230.495 46.1462 225.995 47.1523 224.993 51.0424C223.833 55.4935 228.156 58.4873 232.198 57.5605C232.336 57.5287 232.459 57.4509 232.547 57.3401C232.634 57.2293 232.682 57.092 232.681 56.9508L232.662 53.3228Z" fill="#FFE105"/>
<path d="M330.221 46.4267L329.751 47.0243C329.631 47.1796 329.462 47.2897 329.273 47.3362C329.083 47.3828 328.883 47.3631 328.707 47.2804C327.717 46.8231 325.116 46.3962 324.658 47.6706C324.317 48.6096 324.958 49.4388 325.758 50.0059C327.964 51.5546 329.285 52.5627 329.72 53.0302C332.071 55.5362 330.99 58.1093 328.059 59.2434C325.8 60.1174 323.472 60.0524 321.074 59.0483C320.956 58.999 320.851 58.923 320.767 58.8261C320.683 58.7293 320.622 58.6143 320.59 58.49C320.557 58.3656 320.554 58.2353 320.58 58.109C320.605 57.9828 320.66 57.864 320.739 57.7618L321.123 57.2679C321.242 57.1147 321.413 57.0102 321.604 56.9743C321.794 56.9383 321.99 56.9734 322.155 57.0728C323.529 57.8898 327.455 58.5971 327.467 55.8716C327.479 52.8473 321.068 52.0546 321.05 48.6218C321.026 44.1707 327.034 44.439 329.983 45.5792C330.063 45.6098 330.134 45.6587 330.192 45.7219C330.25 45.7851 330.292 45.8609 330.315 45.9433C330.338 46.0256 330.342 46.1122 330.325 46.1961C330.309 46.2801 330.273 46.359 330.221 46.4267Z" fill="#FFE105"/>
<path d="M141.907 51.5128C142.109 53.4949 141.429 55.4844 140.018 57.0436C138.606 58.6027 136.579 59.6039 134.381 59.8268C132.184 60.0497 129.996 59.4761 128.3 58.2322C126.604 56.9882 125.537 55.1759 125.336 53.1938C125.134 51.2117 125.814 49.2222 127.225 47.663C128.636 46.1038 130.664 45.1027 132.861 44.8798C135.059 44.6569 137.246 45.2305 138.943 46.4744C140.639 47.7184 141.705 49.5307 141.907 51.5128ZM133.938 46.8163C132.717 46.7374 131.507 47.247 130.576 48.233C129.644 49.2191 129.068 50.6007 128.972 52.0741C128.925 52.8036 128.997 53.5337 129.185 54.2227C129.373 54.9116 129.673 55.5459 130.067 56.0894C130.461 56.6329 130.943 57.0749 131.483 57.3902C132.024 57.7055 132.614 57.8879 133.219 57.9269C134.44 58.0058 135.65 57.4962 136.581 56.5101C137.513 55.5241 138.089 54.1424 138.185 52.6691C138.232 51.9395 138.16 51.2095 137.972 50.5205C137.784 49.8316 137.484 49.1972 137.09 48.6537C136.696 48.1103 136.214 47.6683 135.674 47.353C135.133 47.0377 134.543 46.8553 133.938 46.8163Z" fill="#FFE105"/>
<path d="M204.354 51.7448C204.425 52.7415 204.283 53.7438 203.935 54.6943C203.586 55.6449 203.039 56.5251 202.324 57.2847C201.609 58.0443 200.74 58.6685 199.767 59.1215C198.794 59.5746 197.735 59.8477 196.653 59.9252C194.466 60.0817 192.311 59.4322 190.662 58.1195C189.014 56.8067 188.006 54.9384 187.862 52.9254C187.79 51.9286 187.933 50.9264 188.281 49.9758C188.629 49.0253 189.177 48.1451 189.892 47.3855C190.607 46.6259 191.476 46.0017 192.449 45.5486C193.422 45.0956 194.48 44.8225 195.563 44.745C197.75 44.5884 199.905 45.238 201.553 46.5507C203.202 47.8634 204.209 49.7318 204.354 51.7448ZM196.552 46.8555C195.329 46.7508 194.106 47.2335 193.153 48.1974C192.199 49.1612 191.592 50.5273 191.466 51.9951C191.404 52.7219 191.461 53.4518 191.635 54.1431C191.809 54.8345 192.097 55.4736 192.481 56.0242C192.865 56.5748 193.338 57.026 193.874 57.352C194.409 57.678 194.997 57.8725 195.602 57.9244C196.825 58.0291 198.048 57.5464 199.002 56.5825C199.956 55.6187 200.563 54.2526 200.689 52.7848C200.751 52.058 200.693 51.3281 200.519 50.6368C200.345 49.9454 200.058 49.3063 199.674 48.7557C199.29 48.2051 198.816 47.7539 198.281 47.4279C197.745 47.1019 197.158 46.9074 196.552 46.8555Z" fill="#FFE105"/>
<path d="M117.014 50.5973C118.891 50.5973 119.939 50.5871 120.159 50.5668C120.232 50.5622 120.301 50.5296 120.352 50.4753C120.403 50.4211 120.432 50.3492 120.433 50.2741V45.384C120.433 45.2789 120.475 45.1781 120.55 45.1038C120.624 45.0294 120.725 44.9877 120.83 44.9877H123.321C123.412 44.9877 123.499 45.0243 123.563 45.0895C123.627 45.1546 123.663 45.243 123.663 45.3352V59.1824C123.663 59.2891 123.621 59.3915 123.545 59.467C123.47 59.5424 123.367 59.5848 123.26 59.5848H120.867C120.752 59.5848 120.642 59.5392 120.56 59.458C120.479 59.3768 120.433 59.2667 120.433 59.1519V52.9631C120.434 52.862 120.396 52.7648 120.328 52.6911C120.26 52.6174 120.166 52.5729 120.067 52.5667C118.96 52.4976 117.942 52.4631 117.014 52.4631C116.09 52.4631 115.075 52.4976 113.967 52.5667C113.868 52.5729 113.775 52.6174 113.707 52.6911C113.639 52.7648 113.601 52.862 113.601 52.9631V59.1519C113.601 59.2667 113.555 59.3768 113.474 59.458C113.393 59.5392 113.283 59.5848 113.168 59.5848H110.774C110.667 59.5848 110.565 59.5424 110.489 59.467C110.414 59.3915 110.371 59.2891 110.371 59.1824V45.3352C110.371 45.2896 110.38 45.2444 110.397 45.2022C110.414 45.1601 110.439 45.1217 110.471 45.0895C110.503 45.0572 110.541 45.0316 110.582 45.0141C110.624 44.9967 110.668 44.9877 110.713 44.9877H113.204C113.309 44.9877 113.41 45.0294 113.485 45.1038C113.559 45.1781 113.601 45.2789 113.601 45.384V50.2741C113.602 50.3492 113.631 50.4211 113.682 50.4753C113.733 50.5295 113.802 50.5622 113.876 50.5668C114.096 50.5871 115.142 50.5973 117.014 50.5973Z" fill="#FFE105"/>
<path d="M149.325 53.1825C148.361 52.0321 147.404 50.9508 146.456 49.9387C146.429 49.9111 146.395 49.892 146.358 49.8837C146.32 49.8754 146.281 49.8782 146.245 49.8919C146.21 49.9055 146.179 49.9294 146.156 49.9605C146.134 49.9915 146.121 50.0285 146.12 50.0667V59.1091C146.12 59.2417 146.067 59.3689 145.973 59.4627C145.879 59.5564 145.752 59.6091 145.619 59.6091H143.965C143.838 59.6091 143.717 59.5597 143.628 59.4716C143.538 59.3836 143.488 59.2641 143.488 59.1396V45.4266C143.488 45.3364 143.52 45.2491 143.578 45.1799C143.636 45.1108 143.717 45.0643 143.806 45.0485C144.994 44.8534 145.941 45.1705 146.645 45.9997C148.208 47.8371 149.747 49.6541 151.261 51.4508C152.226 52.6012 153.182 53.6825 154.131 54.6946C154.157 54.7221 154.191 54.7412 154.229 54.7496C154.266 54.7579 154.305 54.755 154.341 54.7414C154.377 54.7277 154.408 54.7039 154.43 54.6728C154.452 54.6417 154.465 54.6048 154.466 54.5666V45.5241C154.466 45.3915 154.519 45.2644 154.613 45.1706C154.707 45.0768 154.834 45.0242 154.967 45.0242H156.622C156.748 45.0242 156.869 45.0736 156.959 45.1617C157.048 45.2497 157.098 45.3691 157.098 45.4937V59.2067C157.098 59.2969 157.066 59.3842 157.008 59.4533C156.95 59.5225 156.87 59.569 156.781 59.5847C155.592 59.7798 154.646 59.4628 153.941 58.6335C152.378 56.7962 150.84 54.9792 149.325 53.1825Z" fill="#FFE105"/>
<path d="M185.627 45.0121H187.635C187.71 45.0117 187.784 45.0336 187.847 45.0752C187.909 45.1167 187.958 45.1759 187.987 45.2452C188.016 45.3145 188.023 45.3908 188.008 45.4644C187.994 45.538 187.957 45.6055 187.904 45.6584L182.342 51.2131C182.269 51.2853 182.227 51.3828 182.225 51.4851C182.223 51.5873 182.26 51.6865 182.329 51.7619L188.74 58.8227C188.817 58.9063 188.867 59.0104 188.885 59.1223C188.903 59.2341 188.888 59.349 188.842 59.4529C188.795 59.5568 188.719 59.6453 188.623 59.7077C188.527 59.77 188.415 59.8036 188.301 59.8043H186.945C186.413 59.8045 185.887 59.6858 185.405 59.4569C184.924 59.2281 184.499 58.8948 184.161 58.4812L179.356 52.5972C179.334 52.569 179.303 52.5486 179.269 52.5387C179.234 52.5288 179.197 52.53 179.164 52.5421C179.13 52.5543 179.101 52.5767 179.08 52.6063C179.06 52.6359 179.05 52.6711 179.051 52.707V59.1031C179.051 59.2309 179 59.3534 178.909 59.4438C178.819 59.5341 178.696 59.5848 178.568 59.5848H176.224C176.076 59.5848 175.935 59.5264 175.831 59.4223C175.727 59.3183 175.668 59.1771 175.668 59.03V45.4816C175.668 45.3538 175.719 45.2313 175.811 45.141C175.903 45.0506 176.027 44.9999 176.156 44.9999H178.489C178.562 44.9999 178.634 45.0141 178.701 45.0417C178.769 45.0692 178.83 45.1096 178.882 45.1606C178.933 45.2116 178.974 45.2721 179.002 45.3386C179.03 45.4052 179.044 45.4766 179.044 45.5486V50.5729C179.044 50.6047 179.051 50.6362 179.064 50.6653C179.077 50.6944 179.095 50.7204 179.119 50.7417C179.143 50.763 179.171 50.7791 179.201 50.7889C179.231 50.7987 179.263 50.8019 179.295 50.7985C179.433 50.7863 179.566 50.7111 179.692 50.5729C182.154 47.947 183.717 46.2763 184.381 45.5608C184.539 45.3879 184.731 45.2497 184.946 45.1553C185.16 45.0608 185.392 45.012 185.627 45.0121Z" fill="#FFE105"/>
<path d="M211.855 53.1948C210.887 52.0445 209.926 50.9612 208.974 49.9449C208.947 49.9174 208.913 49.8983 208.875 49.89C208.838 49.8817 208.799 49.8845 208.763 49.8982C208.727 49.9118 208.696 49.9356 208.674 49.9667C208.652 49.9978 208.639 50.0348 208.638 50.073V59.1398C208.638 59.2724 208.585 59.3996 208.491 59.4933C208.397 59.5871 208.27 59.6398 208.137 59.6398H206.476C206.35 59.6398 206.229 59.5903 206.139 59.5023C206.05 59.4142 206 59.2948 206 59.1703V45.4207C206 45.3304 206.032 45.2431 206.09 45.174C206.148 45.1049 206.229 45.0584 206.317 45.0426C207.51 44.8434 208.459 45.1605 209.163 45.9938C210.73 47.8352 212.273 49.6583 213.791 51.4632C214.76 52.6136 215.718 53.6989 216.667 54.7192C216.693 54.7493 216.729 54.7704 216.768 54.7799C216.807 54.7893 216.847 54.7865 216.885 54.7718C216.922 54.7572 216.954 54.7314 216.976 54.6979C216.998 54.6645 217.01 54.6251 217.009 54.585V45.5182C217.009 45.3856 217.061 45.2584 217.155 45.1647C217.249 45.0709 217.377 45.0182 217.509 45.0182H219.17C219.296 45.0182 219.418 45.0677 219.507 45.1557C219.596 45.2438 219.646 45.3632 219.646 45.4877V59.2374C219.648 59.3286 219.617 59.4174 219.558 59.4878C219.5 59.5582 219.419 59.6056 219.329 59.6215C218.136 59.8166 217.188 59.4975 216.484 58.6642C214.916 56.8228 213.374 54.9997 211.855 53.1948Z" fill="#FFE105"/>
<path d="M254.705 59.3654L253.21 55.8045C253.183 55.7392 253.137 55.6835 253.078 55.6444C253.02 55.6053 252.95 55.5846 252.88 55.585H247.635C247.567 55.5847 247.5 55.6042 247.443 55.641C247.385 55.6777 247.34 55.7303 247.311 55.7923L245.669 59.3776C245.641 59.4396 245.595 59.4921 245.538 59.5289C245.48 59.5657 245.414 59.5851 245.345 59.5849H243.465C243.405 59.5851 243.347 59.5704 243.295 59.5421C243.243 59.5139 243.198 59.473 243.166 59.4232C243.134 59.3734 243.115 59.3163 243.11 59.2572C243.106 59.1981 243.117 59.1388 243.141 59.0849L249.516 45.2316C249.544 45.1696 249.589 45.1171 249.647 45.0803C249.704 45.0435 249.771 45.0241 249.839 45.0243H251.897C251.967 45.0239 252.037 45.0446 252.095 45.0837C252.154 45.1228 252.2 45.1786 252.227 45.2438L258.045 59.0971C258.067 59.1505 258.076 59.2084 258.07 59.2658C258.064 59.3233 258.045 59.3785 258.013 59.4266C257.981 59.4747 257.938 59.5142 257.887 59.5418C257.836 59.5694 257.78 59.5842 257.722 59.5849H255.035C254.965 59.5853 254.895 59.5646 254.837 59.5255C254.778 59.4864 254.732 59.4306 254.705 59.3654ZM248.246 53.4082C248.23 53.4484 248.224 53.4918 248.229 53.5347C248.233 53.5776 248.248 53.6187 248.272 53.6547C248.296 53.6906 248.329 53.7202 248.366 53.7409C248.404 53.7617 248.447 53.7731 248.49 53.7741L252.135 53.8228C252.179 53.8228 252.222 53.8122 252.26 53.7918C252.299 53.7715 252.332 53.742 252.357 53.7059C252.381 53.6699 252.397 53.6284 252.402 53.585C252.407 53.5416 252.401 53.4977 252.385 53.457L250.621 48.8657C250.602 48.8151 250.568 48.7714 250.524 48.7403C250.479 48.7093 250.427 48.6923 250.372 48.6917C250.318 48.691 250.265 48.7067 250.22 48.7366C250.175 48.7666 250.14 48.8094 250.12 48.8596L248.246 53.4082Z" fill="#FFE105"/>
<path d="M261.78 44.9916L259.301 44.9959C259.085 44.9963 258.91 45.1713 258.911 45.3868L258.935 59.1913C258.935 59.4068 259.111 59.5812 259.326 59.5808L261.805 59.5765C262.021 59.5761 262.196 59.4011 262.195 59.1856L262.171 45.3811C262.171 45.1656 261.996 44.9912 261.78 44.9916Z" fill="#FFE105"/>
<path d="M276.828 58.8409C276.871 58.907 276.895 58.9833 276.898 59.0618C276.901 59.1404 276.883 59.2183 276.846 59.2875C276.808 59.3566 276.753 59.4145 276.685 59.455C276.618 59.4955 276.541 59.5171 276.462 59.5177H274.13C273.919 59.5175 273.713 59.4655 273.529 59.3666C273.344 59.2676 273.188 59.1247 273.073 58.9506L269.758 53.9325C269.651 53.7722 269.495 53.6505 269.313 53.5852C269.131 53.5199 268.933 53.5145 268.748 53.5697C268.563 53.6249 268.401 53.7379 268.285 53.8921C268.168 54.0463 268.105 54.2335 268.103 54.4264V58.9689C268.103 59.1177 268.044 59.2604 267.939 59.3656C267.833 59.4708 267.691 59.5299 267.542 59.5299H265.453C265.298 59.5299 265.149 59.4689 265.039 59.3602C264.929 59.2516 264.867 59.1043 264.867 58.9506V45.4693C264.867 45.3608 264.91 45.2565 264.986 45.1781C265.062 45.0997 265.166 45.0533 265.276 45.0486C268.309 44.9145 270.833 45.0222 272.847 45.3718C276.084 45.9327 276.896 49.4753 274.789 51.7923C274.59 52.0118 274.166 52.3086 273.519 52.6825C273.448 52.7228 273.386 52.7775 273.337 52.8431C273.287 52.9087 273.252 52.9838 273.233 53.0638C273.214 53.1439 273.212 53.2271 273.227 53.3083C273.241 53.3896 273.272 53.4671 273.318 53.5362L276.828 58.8409ZM268.085 47.201V51.4935C268.085 51.6035 268.129 51.709 268.207 51.7867C268.284 51.8645 268.39 51.9082 268.5 51.9082H269.788C270.473 51.9082 271.13 51.6506 271.615 51.192C272.099 50.7335 272.371 50.1116 272.371 49.4631V49.2314C272.371 48.5829 272.099 47.961 271.615 47.5025C271.13 47.044 270.473 46.7864 269.788 46.7864H268.5C268.39 46.7864 268.284 46.83 268.207 46.9078C268.129 46.9855 268.085 47.091 268.085 47.201Z" fill="#FFE105"/>
<path d="M277.809 59.1641V45.4084C277.809 45.2984 277.852 45.193 277.93 45.1152C278.008 45.0375 278.114 44.9938 278.224 44.9938H280.593C280.703 44.9938 280.809 45.0375 280.886 45.1152C280.964 45.193 281.008 45.2984 281.008 45.4084V57.2495C281.008 57.3595 281.052 57.465 281.13 57.5427C281.208 57.6205 281.313 57.6642 281.423 57.6642H287.065C287.175 57.6642 287.281 57.7078 287.359 57.7856C287.436 57.8634 287.48 57.9688 287.48 58.0788V59.1641C287.48 59.2741 287.436 59.3795 287.359 59.4573C287.281 59.5351 287.175 59.5787 287.065 59.5787H278.224C278.114 59.5787 278.008 59.5351 277.93 59.4573C277.852 59.3795 277.809 59.2741 277.809 59.1641Z" fill="#FFE105"/>
<path d="M291.09 44.9978L288.697 45.0019C288.461 45.0024 288.27 45.1938 288.27 45.4295L288.294 59.1608C288.295 59.3965 288.486 59.5873 288.722 59.5869L291.116 59.5827C291.352 59.5823 291.543 59.3909 291.543 59.1551L291.519 45.4238C291.518 45.1881 291.326 44.9974 291.09 44.9978Z" fill="#FFE105"/>
<path d="M299.981 53.1643C299.016 52.018 298.062 50.9408 297.118 49.9327C297.091 49.9052 297.057 49.886 297.019 49.8777C296.982 49.8694 296.943 49.8723 296.907 49.8859C296.872 49.8995 296.841 49.9234 296.818 49.9545C296.796 49.9855 296.783 50.0225 296.782 50.0607L296.788 59.0727C296.788 59.2053 296.735 59.3324 296.641 59.4262C296.547 59.52 296.42 59.5726 296.287 59.5726H294.639C294.512 59.5726 294.391 59.5232 294.302 59.4351C294.213 59.3471 294.162 59.2277 294.162 59.1031L294.156 45.4389C294.156 45.3487 294.187 45.2614 294.244 45.1923C294.301 45.1231 294.38 45.0766 294.468 45.0609C295.652 44.8657 296.597 45.1808 297.301 46.0059C298.86 47.8352 300.394 49.6461 301.904 51.4387C302.865 52.585 303.82 53.6622 304.768 54.6703C304.795 54.6979 304.829 54.717 304.866 54.7253C304.904 54.7336 304.943 54.7308 304.978 54.7171C305.014 54.7035 305.045 54.6796 305.067 54.6485C305.09 54.6175 305.102 54.5805 305.104 54.5423L305.098 45.5243C305.099 45.3927 305.153 45.2671 305.247 45.1746C305.34 45.0822 305.467 45.0304 305.598 45.0304L307.247 45.0243C307.373 45.0243 307.494 45.0737 307.584 45.1618C307.673 45.2498 307.723 45.3692 307.723 45.4938L307.729 59.1641C307.729 59.2552 307.697 59.3433 307.639 59.4125C307.581 59.4817 307.501 59.5277 307.412 59.5422C306.227 59.7373 305.285 59.4222 304.585 58.5971C303.026 56.7678 301.491 54.9569 299.981 53.1643Z" fill="#FFE105"/>
<path d="M314.037 57.6825H319.014C319.072 57.6825 319.13 57.694 319.184 57.7163C319.238 57.7387 319.287 57.7715 319.329 57.8128C319.37 57.8542 319.403 57.9032 319.425 57.9572C319.448 58.0112 319.459 58.0691 319.459 58.1276V59.1458C319.459 59.2043 319.448 59.2622 319.425 59.3162C319.403 59.3702 319.37 59.4192 319.329 59.4606C319.287 59.5019 319.238 59.5347 319.184 59.5571C319.13 59.5794 319.072 59.5909 319.014 59.5909H310.844C310.726 59.5909 310.613 59.544 310.529 59.4606C310.445 59.3771 310.398 59.2639 310.398 59.1458V45.4511C310.398 45.333 310.445 45.2198 310.529 45.1364C310.613 45.0529 310.726 45.006 310.844 45.006H318.769C318.888 45.006 319.001 45.0529 319.085 45.1364C319.168 45.2198 319.215 45.333 319.215 45.4511V46.512C319.215 46.6301 319.168 46.7433 319.085 46.8268C319.001 46.9102 318.888 46.9571 318.769 46.9571H314.037C313.979 46.9571 313.921 46.9687 313.867 46.991C313.813 47.0134 313.764 47.0462 313.722 47.0875C313.681 47.1288 313.648 47.1779 313.626 47.2319C313.603 47.2859 313.592 47.3438 313.592 47.4023V50.5546C313.592 50.6131 313.603 50.6709 313.626 50.7249C313.648 50.7789 313.681 50.828 313.722 50.8693C313.764 50.9107 313.813 50.9435 313.867 50.9658C313.921 50.9882 313.979 50.9997 314.037 50.9997H318.629C318.747 50.9997 318.861 51.0466 318.944 51.1301C319.028 51.2136 319.075 51.3268 319.075 51.4448V52.4997C319.075 52.6177 319.028 52.7309 318.944 52.8144C318.861 52.8979 318.747 52.9448 318.629 52.9448H314.037C313.979 52.9448 313.921 52.9563 313.867 52.9787C313.813 53.001 313.764 53.0338 313.722 53.0752C313.681 53.1165 313.648 53.1656 313.626 53.2196C313.603 53.2736 313.592 53.3314 313.592 53.3899V57.2373C313.592 57.2958 313.603 57.3537 313.626 57.4077C313.648 57.4617 313.681 57.5108 313.722 57.5521C313.764 57.5934 313.813 57.6262 313.867 57.6486C313.921 57.6709 313.979 57.6825 314.037 57.6825Z" fill="#FFE105"/>
<path d="M63.4107 80.6087C63.427 80.6087 63.4412 80.6006 63.4534 80.5843C65.6698 77.8039 67.8191 77.4685 72.1542 75.4808C74.3604 74.4645 76.0313 72.9808 77.167 71.0297C78.1867 69.2858 78.6263 66.5969 79.2247 65.0116C81.9539 57.7983 89.7266 57.4874 95.7103 60.6031C95.7453 60.6205 95.774 60.6483 95.7926 60.6827C95.8111 60.717 95.8186 60.7563 95.8139 60.795C95.8092 60.8338 95.7926 60.8701 95.7664 60.8991C95.7402 60.9281 95.7057 60.9482 95.6675 60.9568C91.2042 62.1092 91.0699 66.103 89.9708 69.548C87.2355 78.1027 79.7375 78.9746 71.8794 78.7246C68.6596 78.6189 65.9039 79.6636 63.6122 81.8586C63.5593 81.9115 63.4921 81.9379 63.4107 81.9379C63.3293 81.9379 63.2621 81.9115 63.2092 81.8586C60.9134 79.6636 58.1556 78.6189 54.9359 78.7246C47.0777 78.9807 39.5798 78.1087 36.8444 69.5541C35.7454 66.1091 35.6111 62.1153 31.1477 60.9629C31.1096 60.9543 31.075 60.9342 31.0488 60.9052C31.0226 60.8762 31.006 60.8399 31.0014 60.8011C30.9967 60.7624 31.0041 60.7231 31.0227 60.6888C31.0412 60.6544 31.07 60.6266 31.105 60.6092C37.0825 57.4935 44.8552 57.8044 47.5906 65.0176C48.189 66.603 48.6286 69.2919 49.6482 71.0358C50.7839 72.9829 52.4549 74.4645 54.6611 75.4808C58.9962 77.4685 61.1454 77.8039 63.3618 80.5843C63.3781 80.6006 63.3944 80.6087 63.4107 80.6087Z" fill="#FFE105"/>
<path d="M63.2629 77.1453C62.3877 76.2917 60.3851 75.2917 57.2548 74.1454C55.8505 73.6332 54.4319 72.7471 52.9991 71.4869C49.1158 68.0846 49.7447 62.2982 53.7989 59.3226C53.815 59.3109 53.8343 59.3053 53.8537 59.3069C53.8731 59.3085 53.8914 59.3171 53.9056 59.3313C53.9199 59.3455 53.9292 59.3645 53.932 59.3851C53.9348 59.4057 53.9309 59.4267 53.9211 59.4446C50.8967 63.9729 51.5215 67.8143 55.7955 70.9687C56.6707 71.6109 58.6958 72.4747 61.8708 73.5601C61.9235 73.5762 61.9769 73.6009 62.0295 73.6332L63.2324 74.3466C63.2968 74.3848 63.3704 74.4045 63.4448 74.4035C63.5192 74.4024 63.5916 74.3806 63.6537 74.3405L64.7833 73.6149C64.8238 73.5907 64.8669 73.5722 64.9115 73.5601C68.0336 72.5398 70.0932 71.6556 71.0905 70.9077C75.3809 67.6883 75.9182 63.7859 72.7024 59.2007C72.6952 59.1879 72.6923 59.1731 72.6943 59.1586C72.6962 59.144 72.7029 59.1305 72.7133 59.1201C72.7237 59.1097 72.7373 59.103 72.7519 59.1011C72.7664 59.0991 72.7812 59.102 72.794 59.1092C75.3218 60.9567 76.9887 64.3042 76.2682 67.4688C75.157 72.365 69.6312 74.1454 65.5831 75.7795C64.7934 76.1006 64.1849 76.5437 63.7575 77.1087C63.7292 77.1462 63.6933 77.1772 63.6521 77.1996C63.6109 77.2221 63.5653 77.2355 63.5185 77.239C63.4717 77.2424 63.4247 77.2359 63.3806 77.2197C63.3365 77.2036 63.2964 77.1782 63.2629 77.1453Z" fill="#FFE105"/>
<path d="M158.889 75.4991L158.168 73.7735C158.149 73.7295 158.142 73.6815 158.147 73.634C158.152 73.5865 158.169 73.541 158.197 73.5019C158.224 73.4628 158.261 73.4314 158.304 73.4106C158.347 73.3899 158.395 73.3805 158.443 73.3833C164.158 73.619 169.806 73.2186 175.386 72.1821C175.612 72.1386 175.847 72.1635 176.06 72.2536C176.272 72.3436 176.455 72.4948 176.583 72.6882L177.212 73.6393C177.275 73.7338 177.313 73.8429 177.321 73.9562C177.33 74.0695 177.309 74.1833 177.261 74.2866C177.212 74.3899 177.138 74.4794 177.045 74.5465C176.952 74.6136 176.844 74.656 176.73 74.6698L169.916 75.5052C169.704 75.5302 169.509 75.6306 169.366 75.7876C169.224 75.9446 169.143 76.1476 169.14 76.3588V76.3954C169.148 76.6181 169.242 76.829 169.403 76.9837C169.563 77.1384 169.778 77.2248 170.001 77.2246L178.72 77.2124C178.807 77.2124 178.894 77.2297 178.974 77.2631C179.054 77.2966 179.127 77.3457 179.189 77.4074C179.25 77.4692 179.298 77.5426 179.331 77.6232C179.364 77.7038 179.38 77.7901 179.38 77.877V78.816C179.38 79.0004 179.306 79.1772 179.176 79.3076C179.045 79.4379 178.868 79.5111 178.684 79.5111H173.091C173.047 79.5103 173.004 79.5217 172.967 79.5441C172.929 79.5665 172.899 79.599 172.879 79.6378C172.859 79.6766 172.851 79.7203 172.855 79.7636C172.859 79.807 172.875 79.8484 172.901 79.8831C173.958 81.3282 177.835 82.3769 179.013 82.4623C179.087 82.4677 179.158 82.4903 179.221 82.5284C179.285 82.5664 179.338 82.6189 179.378 82.6815C179.418 82.7442 179.442 82.8154 179.45 82.8895C179.458 82.9636 179.448 83.0386 179.422 83.1086C179.101 83.9663 178.781 84.5395 178.464 84.8281C178.379 84.9058 178.273 84.9565 178.159 84.9739C178.045 84.9913 177.928 84.9745 177.823 84.9256C177.306 84.6858 176.941 84.5659 176.73 84.5659C176.637 84.5659 176.549 84.6025 176.484 84.6677C176.418 84.7329 176.382 84.8213 176.382 84.9134V93.9985C176.382 94.1037 176.34 94.2045 176.265 94.2788C176.191 94.3531 176.09 94.3949 175.985 94.3949H174.049C173.958 94.3949 173.871 94.3595 173.805 94.2959C173.739 94.2324 173.7 94.1456 173.695 94.0534C173.671 93.5778 173.209 93.3319 172.309 93.3156C169.211 93.2628 166.419 93.2912 163.932 93.401C162.534 93.4681 161.777 94.4619 160.439 94.401C160.247 94.3931 160.066 94.3113 159.932 94.1726C159.799 94.0339 159.725 93.8492 159.725 93.6571V84.8829C159.725 84.8323 159.712 84.7824 159.688 84.7378C159.664 84.6931 159.629 84.655 159.587 84.6268C159.545 84.5985 159.497 84.581 159.446 84.5757C159.396 84.5704 159.345 84.5775 159.298 84.5964L158.339 84.9988C158.202 85.0566 158.05 85.0651 157.908 85.0228C157.766 84.9804 157.644 84.8899 157.564 84.7671L156.611 83.3281C156.577 83.2765 156.556 83.2175 156.549 83.156C156.542 83.0946 156.55 83.0324 156.573 82.9747C156.595 82.9169 156.63 82.8652 156.676 82.8238C156.722 82.7825 156.777 82.7526 156.837 82.7367C159.055 82.131 161.158 81.1839 163.144 79.8953C163.184 79.8714 163.214 79.8352 163.23 79.7923C163.247 79.7495 163.248 79.7024 163.235 79.6584C163.222 79.6145 163.194 79.5762 163.157 79.5496C163.119 79.5229 163.074 79.5094 163.028 79.5111H157.1C156.989 79.5111 156.884 79.4668 156.806 79.3879C156.728 79.309 156.684 79.202 156.684 79.0904V77.5905C156.684 77.4934 156.722 77.4004 156.79 77.3318C156.857 77.2632 156.949 77.2246 157.045 77.2246H165.916C166.067 77.2246 166.211 77.1642 166.318 77.0567C166.424 76.9493 166.484 76.8035 166.484 76.6515V76.2124C166.484 76.0701 166.428 75.9337 166.329 75.833C166.229 75.7324 166.094 75.6759 165.953 75.6759H159.157C159.101 75.6757 159.045 75.659 158.998 75.6276C158.95 75.5962 158.912 75.5516 158.889 75.4991ZM173.072 83.4622C173.113 83.4623 173.152 83.4497 173.185 83.4264C173.218 83.403 173.243 83.3699 173.257 83.3317C173.27 83.2936 173.271 83.2522 173.26 83.2133C173.249 83.1744 173.226 83.14 173.194 83.1147L169.494 80.2428C169.466 80.2216 169.431 80.2087 169.396 80.2055C169.36 80.2023 169.324 80.2089 169.292 80.2246C169.26 80.2403 169.233 80.2646 169.214 80.2946C169.194 80.3247 169.184 80.3595 169.183 80.3953V83.0537C169.183 83.1621 169.226 83.266 169.303 83.3426C169.379 83.4192 169.484 83.4622 169.592 83.4622H173.072ZM162.802 83.4683L166.075 83.4196C166.126 83.4188 166.175 83.4081 166.222 83.388C166.268 83.368 166.31 83.339 166.345 83.3028C166.38 83.2665 166.408 83.2237 166.427 83.1768C166.445 83.1299 166.454 83.0798 166.454 83.0293L166.417 80.5355C166.416 80.5021 166.406 80.4695 166.387 80.4415C166.369 80.4135 166.343 80.391 166.313 80.3766C166.283 80.3621 166.249 80.3562 166.216 80.3595C166.183 80.3628 166.151 80.3752 166.124 80.3953L162.686 83.1391C162.655 83.1624 162.632 83.1951 162.621 83.2324C162.61 83.2696 162.61 83.3095 162.623 83.3462C162.636 83.383 162.661 83.4146 162.693 83.4366C162.725 83.4585 162.763 83.4697 162.802 83.4683ZM173.619 86.1808C173.618 86.1159 173.604 86.0519 173.579 85.9922C173.553 85.9326 173.516 85.8786 173.47 85.8333C173.423 85.788 173.368 85.7523 173.308 85.7282C173.248 85.7041 173.183 85.6921 173.118 85.6929L162.959 85.8169C162.894 85.8177 162.83 85.8312 162.77 85.8568C162.71 85.8823 162.656 85.9194 162.611 85.9658C162.566 86.0122 162.53 86.0671 162.506 86.1274C162.482 86.1876 162.47 86.252 162.47 86.3168L162.476 86.768C162.477 86.8328 162.49 86.8969 162.516 86.9565C162.541 87.0161 162.578 87.0701 162.625 87.1154C162.671 87.1607 162.726 87.1964 162.787 87.2205C162.847 87.2446 162.911 87.2566 162.976 87.2558L173.136 87.1318C173.201 87.131 173.265 87.1175 173.324 87.0919C173.384 87.0664 173.438 87.0293 173.484 86.9829C173.529 86.9365 173.565 86.8816 173.589 86.8214C173.613 86.7612 173.625 86.6968 173.624 86.6319L173.619 86.1808ZM173.585 89.9072C173.585 89.7794 173.534 89.6569 173.444 89.5666C173.353 89.4763 173.231 89.4255 173.103 89.4255H162.918C162.79 89.4255 162.668 89.4763 162.577 89.5666C162.487 89.6569 162.436 89.7794 162.436 89.9072V90.5291C162.436 90.6569 162.487 90.7794 162.577 90.8697C162.668 90.9601 162.79 91.0108 162.918 91.0108H173.103C173.231 91.0108 173.353 90.9601 173.444 90.8697C173.534 90.7794 173.585 90.6569 173.585 90.5291V89.9072Z" fill="#FFE105"/>
<path d="M199.524 81.4196C197.586 80.9277 196.111 81.4724 195.097 83.0537C195.056 83.1181 195.002 83.1733 194.939 83.2157C194.875 83.2582 194.803 83.2869 194.728 83.3001C194.653 83.3133 194.576 83.3107 194.501 83.2924C194.427 83.2741 194.358 83.2406 194.297 83.1939L191.647 81.1391C191.59 81.0952 191.542 81.0404 191.506 80.9777C191.47 80.915 191.447 80.8458 191.438 80.7739C191.429 80.702 191.434 80.6288 191.453 80.5586C191.472 80.4884 191.505 80.4225 191.549 80.3647L192.368 79.3099C192.428 79.2332 192.513 79.1789 192.608 79.1557C192.703 79.1325 192.803 79.1417 192.893 79.1818L196.098 80.6574C196.147 80.6798 196.202 80.6895 196.255 80.6857C196.309 80.6819 196.362 80.6647 196.407 80.6356C196.453 80.6065 196.49 80.5664 196.516 80.5191C196.542 80.4718 196.556 80.4187 196.556 80.3647V79.6452C196.556 79.4997 196.614 79.3601 196.717 79.2572C196.82 79.1543 196.96 79.0965 197.106 79.0965H199.334C199.606 79.0965 199.867 78.9885 200.06 78.7964C200.252 78.6043 200.36 78.3438 200.36 78.0721V77.8038C200.36 77.6278 200.293 77.4586 200.173 77.3314C200.052 77.2042 199.887 77.1287 199.713 77.1209L197.051 76.9989C197.014 76.9989 196.975 77.001 196.935 77.005C194.914 77.3343 194.23 76.4136 192.716 75.2795C192.618 75.2066 192.535 75.1148 192.473 75.0095C192.411 74.9041 192.37 74.7873 192.354 74.6659C192.337 74.5445 192.345 74.4208 192.377 74.3021C192.409 74.1834 192.464 74.0721 192.539 73.9746L192.972 73.4259C193.06 73.3121 193.17 73.2173 193.296 73.1471C193.422 73.077 193.56 73.0329 193.703 73.0175C193.846 73.0021 193.991 73.0158 194.129 73.0577C194.267 73.0995 194.394 73.1688 194.505 73.2612C195.897 74.436 197.608 74.9888 199.64 74.9197C199.818 74.915 199.987 74.8409 200.111 74.7134C200.236 74.5858 200.305 74.4148 200.305 74.2368V72.871C200.305 72.8118 200.317 72.7531 200.34 72.6983C200.362 72.6436 200.396 72.5939 200.438 72.552C200.479 72.5101 200.529 72.4768 200.584 72.4541C200.639 72.4315 200.698 72.4198 200.757 72.4198H202.424C202.544 72.4198 202.659 72.4673 202.743 72.552C202.828 72.6366 202.876 72.7513 202.876 72.871V74.1393C202.876 74.3204 202.948 74.4941 203.076 74.6222C203.204 74.7502 203.378 74.8222 203.56 74.8222H206.252C206.406 74.8222 206.554 74.7611 206.662 74.6525C206.771 74.5439 206.832 74.3966 206.832 74.2429V72.8771C206.832 72.7574 206.88 72.6427 206.965 72.5581C207.049 72.4734 207.164 72.4259 207.284 72.4259H208.792C208.922 72.4259 209.046 72.4779 209.138 72.5706C209.229 72.6632 209.281 72.7888 209.281 72.9198V74.1332C209.281 74.3369 209.362 74.5323 209.506 74.6764C209.65 74.8205 209.846 74.9014 210.05 74.9014H212.376C212.653 74.9014 212.919 75.0113 213.115 75.2068C213.31 75.4024 213.42 75.6676 213.42 75.9441V76.3709C213.42 76.51 213.365 76.6434 213.267 76.7417C213.168 76.84 213.035 76.8953 212.895 76.8953H210.197C209.943 76.8976 209.699 76.9929 209.512 77.1631C209.324 77.3334 209.206 77.5666 209.18 77.8183C209.153 78.07 209.22 78.3227 209.369 78.528C209.517 78.7334 209.735 78.8771 209.983 78.9318C210.732 79.0904 211.697 79.1371 212.877 79.0721C212.984 79.0654 213.091 79.0806 213.191 79.1169C213.292 79.1531 213.384 79.2095 213.461 79.2827C213.539 79.3558 213.601 79.4441 213.644 79.5421C213.686 79.6402 213.708 79.7458 213.707 79.8525V80.4318C213.707 80.6452 213.623 80.85 213.473 81.0009C213.323 81.1518 213.12 81.2366 212.908 81.2366H210.117C210.062 81.2365 210.008 81.2536 209.965 81.2854C209.671 81.509 209.737 81.822 210.16 82.2244C211.108 83.1228 212.093 83.7772 213.115 84.1878C213.252 84.243 213.376 84.3253 213.479 84.4295C213.583 84.5337 213.665 84.6577 213.719 84.794C213.773 84.9303 213.799 85.076 213.795 85.2223C213.791 85.3686 213.757 85.5124 213.695 85.645L213.317 86.4743C213.263 86.591 213.183 86.6941 213.084 86.7758C212.985 86.8576 212.868 86.9159 212.743 86.9463C212.618 86.9768 212.488 86.9787 212.362 86.9519C212.236 86.925 212.118 86.8702 212.016 86.7914L209.922 85.1634C209.876 85.1276 209.822 85.1054 209.765 85.0993C209.707 85.0933 209.649 85.1036 209.597 85.1292C209.546 85.1547 209.502 85.1944 209.472 85.2436C209.442 85.2928 209.426 85.3496 209.427 85.4072V88.8462C209.427 88.9246 209.412 89.0023 209.382 89.0748C209.352 89.1473 209.308 89.2132 209.252 89.2687C209.196 89.3242 209.13 89.3682 209.058 89.3982C208.985 89.4283 208.907 89.4437 208.829 89.4437H202.277C202.104 89.4437 201.938 89.5131 201.815 89.6366C201.693 89.7601 201.624 89.9276 201.624 90.1022V90.3827C201.624 90.5955 201.705 90.8002 201.85 90.9545C201.996 91.1088 202.194 91.201 202.406 91.212C205.3 91.3908 207.691 91.3908 209.58 91.212C210.15 91.1591 210.412 90.4173 210.368 88.9864C210.363 88.8442 210.395 88.7032 210.46 88.5767C210.526 88.4502 210.622 88.3425 210.74 88.2637C210.858 88.1849 210.994 88.1377 211.135 88.1265C211.276 88.1153 211.417 88.1406 211.546 88.1999L212.7 88.7303C212.884 88.8151 213.039 88.9532 213.145 89.1269C213.25 89.3007 213.302 89.5023 213.292 89.7059C213.162 92.2749 212.134 93.6387 210.209 93.7973C206.891 94.0655 203.883 94.0595 201.184 93.779C197.747 93.4192 198.736 89.6632 199.029 86.7121C199.038 86.629 199.022 86.5451 198.985 86.4704C198.947 86.3957 198.889 86.3332 198.817 86.2903C198.746 86.2474 198.663 86.2258 198.579 86.2282C198.496 86.2305 198.415 86.2567 198.345 86.3036L197.02 87.1755C196.885 87.2671 196.777 87.3937 196.709 87.5413L194.083 93.2424C194.026 93.3652 193.941 93.4734 193.836 93.5591C193.731 93.6447 193.608 93.7057 193.476 93.7373C193.344 93.7689 193.206 93.7705 193.074 93.7418C192.941 93.7131 192.817 93.655 192.71 93.5717L191.94 92.9741C191.753 92.8278 191.62 92.623 191.563 92.3928C191.507 92.1626 191.53 91.9205 191.629 91.7059L194.144 86.2487C194.192 86.1459 194.268 86.058 194.362 85.9946C194.457 85.9312 194.567 85.8947 194.682 85.8889C195.064 85.8768 195.323 85.6959 195.457 85.3463C195.563 85.0719 195.77 84.8475 196.037 84.7182C197.617 83.9662 198.832 83.0171 199.682 81.8708C199.711 81.833 199.73 81.7888 199.737 81.7419C199.745 81.6951 199.74 81.6472 199.725 81.6025C199.709 81.5578 199.682 81.5177 199.647 81.4858C199.612 81.4538 199.57 81.4311 199.524 81.4196ZM206.791 77.8079C206.791 77.7119 206.773 77.6166 206.737 77.5276C206.7 77.4387 206.647 77.3577 206.579 77.2894C206.511 77.2211 206.431 77.1668 206.342 77.1296C206.253 77.0923 206.158 77.0729 206.062 77.0724L203.62 77.0597C203.524 77.0592 203.428 77.0776 203.339 77.1139C203.25 77.1502 203.169 77.2037 203.101 77.2713C203.032 77.3389 202.978 77.4192 202.94 77.5078C202.903 77.5964 202.884 77.6914 202.883 77.7875L202.88 78.3118C202.88 78.4079 202.898 78.5032 202.935 78.5921C202.971 78.6811 203.025 78.762 203.092 78.8303C203.16 78.8986 203.241 78.953 203.329 78.9902C203.418 79.0274 203.513 79.0469 203.609 79.0474L206.052 79.0601C206.148 79.0606 206.243 79.0422 206.332 79.0059C206.421 78.9696 206.502 78.9161 206.571 78.8485C206.639 78.7809 206.694 78.7006 206.731 78.612C206.768 78.5234 206.788 78.4283 206.788 78.3323L206.791 77.8079ZM202.479 83.1207H207.168C207.186 83.1207 207.203 83.1137 207.216 83.1011C207.228 83.0885 207.235 83.0714 207.235 83.0537V83.0232C207.235 82.5413 206.998 82.0791 206.575 81.7383C206.153 81.3976 205.58 81.2061 204.982 81.2061H204.665C204.067 81.2061 203.494 81.3976 203.072 81.7383C202.649 82.0791 202.412 82.5413 202.412 83.0232V83.0537C202.412 83.0714 202.419 83.0885 202.431 83.1011C202.444 83.1137 202.461 83.1207 202.479 83.1207ZM206.615 85.9941C206.617 85.8179 206.549 85.6481 206.425 85.5222C206.302 85.3963 206.133 85.3245 205.957 85.3226L202.33 85.2847C202.243 85.2838 202.156 85.3001 202.075 85.3326C201.994 85.3652 201.92 85.4133 201.857 85.4744C201.795 85.5355 201.745 85.6082 201.711 85.6885C201.677 85.7688 201.659 85.855 201.658 85.9423L201.652 86.5033C201.65 86.6795 201.718 86.8493 201.842 86.9752C201.965 87.1011 202.134 87.1729 202.31 87.1748L205.937 87.2127C206.024 87.2136 206.111 87.1973 206.192 87.1648C206.273 87.1322 206.347 87.084 206.41 87.023C206.472 86.9619 206.522 86.8892 206.556 86.8089C206.59 86.7286 206.608 86.6424 206.609 86.5551L206.615 85.9941ZM196.172 86.4438C196.041 86.2487 195.911 86.141 195.781 86.1206C195.75 86.1155 195.718 86.1201 195.69 86.1336C195.662 86.1472 195.638 86.1692 195.623 86.1965C195.607 86.2238 195.601 86.2552 195.604 86.2863C195.607 86.3175 195.62 86.3469 195.64 86.3706C195.824 86.5901 195.929 86.704 195.958 86.7121C195.994 86.7248 196.034 86.7259 196.072 86.7152C196.109 86.7045 196.142 86.6827 196.166 86.6528C196.19 86.6229 196.203 86.5865 196.204 86.5489C196.205 86.5114 196.194 86.4745 196.172 86.4438Z" fill="#FFE105"/>
<path d="M271.152 74.2247C271.433 74.0336 271.356 73.6556 270.92 73.0906C270.876 73.0337 270.848 72.9654 270.84 72.8934C270.832 72.8214 270.845 72.7487 270.877 72.6837C270.909 72.6187 270.959 72.564 271.02 72.526C271.082 72.4879 271.153 72.468 271.226 72.4686H273.412C273.622 72.4685 273.825 72.5371 273.992 72.6638C274.399 72.9686 274.68 73.3365 274.834 73.7674C274.886 73.9153 274.983 74.0434 275.111 74.1341C275.239 74.2247 275.392 74.2734 275.549 74.2735H283.272C283.449 74.2735 283.618 74.3435 283.743 74.4681C283.868 74.5928 283.938 74.7618 283.938 74.9381V78.8953C283.938 79.078 283.865 79.2533 283.734 79.3825C283.604 79.5117 283.427 79.5843 283.242 79.5843H281.3C281.187 79.5843 281.078 79.54 280.998 79.4611C280.918 79.3822 280.873 79.2752 280.873 79.1636V77.1941C280.873 77.0599 280.819 76.9312 280.724 76.8363C280.629 76.7414 280.5 76.688 280.366 76.688H265.627C265.52 76.688 265.417 76.7304 265.342 76.8059C265.266 76.8814 265.224 76.9837 265.224 77.0905V79.1941C265.224 79.3008 265.181 79.4032 265.104 79.4786C265.027 79.5541 264.923 79.5965 264.815 79.5965H262.702C262.594 79.5965 262.49 79.5535 262.413 79.4768C262.336 79.4002 262.293 79.2963 262.293 79.188V74.6576C262.293 74.5541 262.334 74.4549 262.407 74.3817C262.481 74.3085 262.58 74.2674 262.684 74.2674H271.018C271.066 74.2673 271.113 74.2524 271.152 74.2247Z" fill="#FFE105"/>
<path d="M236.895 77.1515C237.072 81.4319 237.621 87.4622 236.968 92.2792C236.904 92.7583 236.668 93.1981 236.303 93.5166C235.938 93.8351 235.469 94.0108 234.984 94.0108H233.018C232.909 94.0108 232.802 93.9784 232.711 93.9177C232.619 93.857 232.548 93.7706 232.505 93.6694L231.931 92.3035C231.905 92.2405 231.895 92.1719 231.901 92.104C231.908 92.0361 231.931 91.9709 231.97 91.9142C232.008 91.8575 232.059 91.811 232.119 91.779C232.18 91.7469 232.247 91.7302 232.315 91.7304H233.909C234.066 91.7304 234.217 91.6681 234.328 91.5572C234.439 91.4462 234.501 91.2958 234.501 91.139V84.6696C234.501 84.5984 234.487 84.5278 234.46 84.4619C234.433 84.3961 234.394 84.3363 234.344 84.2859C234.294 84.2355 234.235 84.1955 234.17 84.1683C234.104 84.141 234.035 84.127 233.964 84.127H231.345C231.201 84.1265 231.061 84.1809 230.955 84.2792C230.849 84.3775 230.783 84.5125 230.771 84.6574C230.514 87.9927 230.355 91.0292 229.153 93.8035C229.116 93.8892 229.049 93.9583 228.965 93.9977C228.88 94.0371 228.784 94.0439 228.695 94.0169C227.938 93.7934 227.345 93.4133 226.918 92.8767C226.853 92.7927 226.81 92.6937 226.794 92.5891C226.778 92.4845 226.789 92.3778 226.826 92.2792C227.685 89.9865 228.137 87.5313 228.182 84.9135C228.184 84.7875 228.155 84.6628 228.097 84.5502C228.04 84.4376 227.956 84.3405 227.852 84.2672C227.706 84.1615 227.549 84.0944 227.382 84.066C227.171 84.0281 226.982 83.9184 226.847 83.755C226.712 83.5916 226.639 83.3844 226.641 83.1679C226.642 82.9513 226.718 82.7384 226.855 82.5646C226.992 82.3908 227.182 82.2665 227.394 82.2124C227.59 82.1595 227.759 82.0803 227.901 81.9746C227.937 81.9482 227.967 81.9142 227.988 81.8751C228.009 81.8361 228.021 81.793 228.023 81.749L228.31 75.3223C228.313 75.2414 228.332 75.1619 228.367 75.0886C228.401 75.0153 228.45 74.9497 228.511 74.8956C228.571 74.8416 228.642 74.8002 228.718 74.774C228.795 74.7478 228.876 74.7373 228.957 74.7431C230.203 74.8366 231.009 74.363 231.375 73.3224C231.413 73.2128 231.476 73.1137 231.56 73.0332C231.644 72.9526 231.746 72.8929 231.858 72.859C232.293 72.7248 232.792 72.676 233.353 72.7126C233.417 72.7159 233.478 72.7372 233.53 72.7739C233.582 72.8106 233.622 72.8612 233.647 72.9199L234.3 74.4687C234.32 74.5184 234.353 74.5617 234.395 74.5939C234.437 74.6261 234.486 74.6461 234.538 74.6516C235.417 74.7735 236.156 74.4687 237.047 75.2126C237.122 75.2795 237.22 75.3164 237.322 75.3162H240.735C240.814 75.3166 240.891 75.2974 240.96 75.2603C241.029 75.2232 241.088 75.1694 241.132 75.1036C241.175 75.0379 241.202 74.9622 241.209 74.8834C241.217 74.8045 241.205 74.7249 241.175 74.6516L240.54 73.1455C240.519 73.0954 240.51 73.0407 240.515 72.9865C240.521 72.9323 240.539 72.8802 240.569 72.8349C240.6 72.7895 240.641 72.7524 240.689 72.7268C240.737 72.7013 240.791 72.688 240.845 72.6882H242.83C242.989 72.6885 243.144 72.7361 243.277 72.825C243.41 72.914 243.513 73.0404 243.575 73.1882L244.264 74.8162C244.32 74.9532 244.416 75.0705 244.539 75.153C244.662 75.2356 244.806 75.2796 244.954 75.2796H248.227C248.404 75.2796 248.573 75.3497 248.698 75.4743C248.823 75.5989 248.893 75.768 248.893 75.9443V77.0296C248.893 77.2091 248.821 77.3812 248.694 77.5082C248.567 77.6351 248.395 77.7064 248.215 77.7064C243.884 77.7064 240.591 77.7064 238.336 77.7064C237.798 77.7064 237.436 77.495 237.249 77.0723C237.233 77.0309 237.203 76.9965 237.165 76.9754C237.126 76.9544 237.08 76.9481 237.037 76.9578C236.994 76.9674 236.956 76.9924 236.93 77.028C236.903 77.0636 236.891 77.1075 236.895 77.1515ZM234.489 79.9258V77.6332C234.489 77.4076 234.403 77.1905 234.247 77.027C234.091 76.8635 233.878 76.7662 233.653 76.7552C232.419 76.6942 231.589 76.7633 231.161 76.9625C231.049 77.0136 230.954 77.0944 230.886 77.1957C230.818 77.297 230.78 77.4148 230.777 77.5357L230.655 81.4624C230.649 81.6162 230.703 81.7665 230.805 81.8829C230.907 81.9994 231.049 82.0735 231.204 82.0904C232.478 82.2205 233.502 82.1677 234.275 81.9319C234.376 81.9019 234.463 81.8366 234.52 81.7481C234.577 81.6596 234.6 81.5536 234.585 81.4495C234.57 81.3454 234.519 81.25 234.439 81.1808C234.36 81.1115 234.259 81.073 234.153 81.0722C233.758 81.064 233.266 81.1555 232.676 81.3465C232.567 81.3808 232.449 81.373 232.346 81.3245C232.242 81.276 232.159 81.1904 232.114 81.0843L231.119 78.7186C231.083 78.6347 231.065 78.5445 231.064 78.4533C231.064 78.3621 231.082 78.2716 231.117 78.1871C231.153 78.1026 231.204 78.0258 231.27 77.961C231.335 77.8963 231.412 77.845 231.497 77.8101L232.108 77.554C232.214 77.5089 232.329 77.4852 232.445 77.4844C232.56 77.4836 232.675 77.5057 232.783 77.5493C232.89 77.5929 232.987 77.6573 233.07 77.7386C233.152 77.82 233.217 77.9168 233.262 78.0235L234.092 80.0051C234.112 80.0479 234.145 80.083 234.187 80.1044C234.228 80.1259 234.276 80.1326 234.322 80.1234C234.368 80.1142 234.41 80.0897 234.44 80.0538C234.471 80.0179 234.488 79.9728 234.489 79.9258Z" fill="#FFE105"/>
<path d="M262.179 82.4622C262.135 82.396 262.108 82.3199 262.1 82.2408C262.092 82.1616 262.104 82.082 262.134 82.0089C262.164 81.9358 262.212 81.8716 262.273 81.822C262.334 81.7723 262.407 81.7388 262.484 81.7245C264.975 81.2428 268.248 80.0843 269.286 77.9441C269.397 77.7157 269.594 77.5399 269.832 77.4544C270.071 77.3689 270.333 77.3805 270.562 77.4868L271.698 78.005C271.802 78.0541 271.894 78.125 271.967 78.2129C272.041 78.3008 272.095 78.4036 272.124 78.514C272.154 78.6244 272.159 78.7397 272.139 78.8519C272.119 78.9641 272.075 79.0705 272.009 79.1636C270.178 81.7448 267.436 83.3606 263.785 84.011C263.63 84.0383 263.471 84.02 263.327 83.9582C263.183 83.8965 263.059 83.794 262.973 83.6634L262.179 82.4622Z" fill="#FFE105"/>
<path d="M283.774 80.8586C283.937 80.8586 284.094 80.9229 284.21 81.0372C284.325 81.1516 284.39 81.3067 284.39 81.4684V82.5171C284.391 82.6675 284.334 82.8125 284.231 82.9233C284.128 83.0341 283.986 83.1024 283.835 83.1147C280.061 83.4073 272.856 84.4256 274.365 77.9746C274.402 77.82 274.489 77.6824 274.613 77.584C274.737 77.4855 274.891 77.4319 275.048 77.4319H276.679C276.849 77.4319 277.012 77.4993 277.132 77.6194C277.252 77.7395 277.32 77.9023 277.32 78.0721V79.6269C277.32 79.9536 277.45 80.2669 277.681 80.4979C277.912 80.7289 278.226 80.8586 278.553 80.8586H283.774Z" fill="#FFE105"/>
<path d="M247.33 86.4864C247.323 86.4208 247.334 86.3547 247.362 86.2949C247.39 86.235 247.433 86.1835 247.488 86.1457C247.542 86.1079 247.606 86.085 247.673 86.0795C247.74 86.0741 247.807 86.0861 247.867 86.1144L249.266 86.7547C249.373 86.8033 249.463 86.8817 249.526 86.9802C249.589 87.0788 249.621 87.1932 249.62 87.3095C249.577 90.2119 251.067 94.4557 246.152 94.2545C242.311 94.0898 243.19 89.0839 243.557 86.1815C243.626 85.6328 243.656 84.4112 243.648 82.517C243.648 82.3644 243.605 82.215 243.523 82.0864C243.44 81.9578 243.323 81.8555 243.184 81.7914L242.702 81.5719C242.612 81.5298 242.512 81.5112 242.413 81.5177C242.313 81.5243 242.217 81.5557 242.133 81.6092C242.049 81.6627 241.98 81.7365 241.932 81.8238C241.884 81.9111 241.859 82.009 241.859 82.1085C241.829 86.1693 241.725 89.7302 239.96 93.4069C239.909 93.5162 239.833 93.6125 239.739 93.6886C239.644 93.7647 239.534 93.8187 239.416 93.8468C239.298 93.8748 239.174 93.8762 239.055 93.8507C238.936 93.8253 238.824 93.7736 238.727 93.6996L237.842 93.0106C237.653 92.863 237.524 92.6533 237.477 92.4194C237.43 92.1856 237.468 91.9432 237.585 91.7362C239.338 88.651 239.209 83.8767 239.148 80.1329C239.147 80.0182 239.168 79.9043 239.211 79.7978C239.254 79.6914 239.317 79.5945 239.398 79.5128C239.479 79.4311 239.575 79.3662 239.681 79.3219C239.787 79.2777 239.9 79.2549 240.015 79.2549H245.724C245.873 79.2549 246.016 79.314 246.121 79.4192C246.227 79.5244 246.286 79.6671 246.286 79.8158V91.1082C246.28 91.2286 246.32 91.3468 246.397 91.4394C246.475 91.5319 246.584 91.5922 246.703 91.6083C246.823 91.6244 246.944 91.5951 247.043 91.5262C247.142 91.4573 247.212 91.3539 247.238 91.2363C247.672 89.6204 247.477 88.2059 247.33 86.4864Z" fill="#FFE105"/>
<path d="M63.4124 83.9866C63.4654 83.9866 63.5122 83.9805 63.5529 83.9683C63.5895 83.9561 63.6241 83.9297 63.6567 83.889C66.1356 81.0598 69.1682 79.7773 72.7543 80.0415C79.9103 80.5781 81.8763 86.9133 83.8607 92.8583C84.9313 96.0736 87.1273 97.8073 90.4489 98.0593C90.4985 98.0616 90.5457 98.0809 90.5826 98.1142C90.6194 98.1474 90.6435 98.1924 90.6507 98.2415C90.658 98.2905 90.6479 98.3406 90.6222 98.383C90.5965 98.4254 90.5568 98.4576 90.5099 98.474C82.1816 101.815 73.2489 99.6873 69.042 91.7424C67.5827 88.9864 67.3873 84.7365 63.4124 84.7365C59.4376 84.7365 59.2422 88.9864 57.7829 91.7424C53.576 99.6873 44.6494 101.821 36.315 98.4801C36.2681 98.4637 36.2284 98.4315 36.2027 98.3891C36.177 98.3467 36.1669 98.2966 36.1741 98.2476C36.1814 98.1985 36.2055 98.1535 36.2423 98.1203C36.2792 98.087 36.3264 98.0677 36.376 98.0654C39.6976 97.8134 41.8936 96.0797 42.9642 92.8644C44.9486 86.9194 46.9146 80.5842 54.0706 80.0415C57.6567 79.7773 60.6893 81.0598 63.1682 83.889C63.2008 83.9297 63.2354 83.9561 63.272 83.9683C63.3127 83.9805 63.3595 83.9866 63.4124 83.9866ZM61.8494 84.0597C61.8769 84.074 61.9086 84.0779 61.9388 84.0706C61.9689 84.0632 61.9954 84.0453 62.0133 84.02C62.0312 83.9947 62.0393 83.9637 62.0361 83.9329C62.0329 83.9021 62.0186 83.8735 61.9959 83.8524C59.5577 81.7224 56.8019 80.9785 53.7287 81.6208C51.9295 81.9988 50.9404 82.9541 50.7613 84.4865C50.3766 87.6145 54.7544 88.9864 56.1954 86.2853C56.5699 85.5739 56.4437 84.8626 55.8168 84.1512C55.7868 84.1164 55.7468 84.0917 55.7023 84.0802C55.6578 84.0687 55.6108 84.0711 55.5676 84.087C55.5245 84.1029 55.4872 84.1316 55.4609 84.1692C55.4345 84.2068 55.4202 84.2516 55.42 84.2975C55.3915 85.2203 54.962 85.5983 54.1317 85.4316C54.0013 85.4058 53.8772 85.3553 53.7668 85.2832C53.6564 85.2111 53.5619 85.1187 53.4889 85.0118C53.416 84.9048 53.3661 84.7853 53.3423 84.6605C53.3184 84.5357 53.3211 84.4081 53.3501 84.2853C54.0523 81.3159 60.1397 83.1451 61.8494 84.0597ZM64.9267 84.0902C66.6363 83.1634 72.7421 81.2976 73.4626 84.2792C73.4917 84.4029 73.4944 84.5313 73.4706 84.6569C73.4468 84.7825 73.3969 84.9027 73.324 85.0102C73.251 85.1178 73.1565 85.2106 73.046 85.283C72.9356 85.3554 72.8114 85.4059 72.681 85.4316C71.8506 85.6024 71.4171 85.2243 71.3805 84.2975C71.3791 84.2521 71.3639 84.2082 71.3371 84.1715C71.3102 84.1348 71.2729 84.1071 71.23 84.092C71.1872 84.0768 71.1407 84.0749 71.0967 84.0866C71.0527 84.0982 71.0133 84.1229 70.9836 84.1573C70.3568 84.8727 70.2346 85.5861 70.6173 86.2975C72.0765 89.0047 76.4605 87.6023 76.0636 84.4683C75.8723 82.9276 74.873 81.9724 73.0657 81.6025C69.9802 80.9724 67.2184 81.7326 64.7801 83.8829C64.7574 83.904 64.7432 83.9326 64.74 83.9634C64.7368 83.9942 64.7449 84.0252 64.7628 84.0505C64.7806 84.0758 64.8071 84.0937 64.8373 84.101C64.8674 84.1084 64.8992 84.1045 64.9267 84.0902Z" fill="#FFE105"/>
<path d="M273.119 84.9134C276.013 84.9093 278.821 84.9439 281.545 85.0171C281.674 85.0202 281.796 85.0737 281.886 85.166C281.977 85.2582 282.027 85.382 282.027 85.5109V86.9134C282.027 87.0411 281.975 87.1636 281.884 87.254C281.792 87.3443 281.668 87.3951 281.538 87.3951H275.195C275.07 87.3951 274.95 87.4445 274.862 87.5326C274.774 87.6206 274.724 87.74 274.724 87.8645V90.7974C274.724 90.9268 274.777 91.0508 274.869 91.1423C274.962 91.2338 275.088 91.2852 275.219 91.2852H284.219C284.307 91.2847 284.392 91.3147 284.461 91.3701C284.53 91.4256 284.578 91.5032 284.597 91.59C284.805 92.5738 284.783 93.2201 284.53 93.529C284.447 93.6307 284.329 93.6962 284.201 93.7119C284.152 93.7201 280.462 93.7282 273.131 93.7363C265.8 93.7485 262.108 93.7506 262.055 93.7424C261.927 93.7267 261.808 93.6612 261.725 93.5595C261.473 93.2506 261.448 92.6043 261.652 91.6205C261.671 91.5337 261.72 91.4561 261.788 91.4006C261.857 91.3451 261.943 91.3152 262.03 91.3157L271.03 91.2913C271.162 91.2913 271.287 91.2399 271.38 91.1484C271.473 91.0569 271.525 90.9329 271.525 90.8035L271.513 87.8706C271.513 87.7461 271.463 87.6267 271.375 87.5387C271.287 87.4506 271.167 87.4011 271.043 87.4011L264.699 87.4194C264.635 87.4194 264.571 87.407 264.512 87.3828C264.453 87.3586 264.399 87.3231 264.353 87.2784C264.308 87.2336 264.272 87.1805 264.247 87.1221C264.223 87.0636 264.21 87.001 264.21 86.9377L264.204 85.5353C264.204 85.4064 264.255 85.2826 264.345 85.1904C264.435 85.0981 264.557 85.0446 264.686 85.0415C267.41 84.9602 270.22 84.9175 273.119 84.9134Z" fill="#FFE105"/>
<path d="M232.443 85.409L231.589 85.6633C231.214 85.7749 231.001 86.1688 231.113 86.5432L231.89 89.1493C232.002 89.5236 232.397 89.7366 232.772 89.625L233.626 89.3707C234.001 89.2591 234.214 88.8652 234.102 88.4908L233.324 85.8847C233.213 85.5104 232.818 85.2974 232.443 85.409Z" fill="#FFE105"/>
</svg>
