<svg width="362" height="140" viewBox="0 0 362 140" fill="none" xmlns="http://www.w3.org/2000/svg">
<rect width="362" height="140" fill="#1997D4"/>
<path d="M76.6458 70C76.6458 67.032 76.0668 64.093 74.9419 61.3509C73.8171 58.6089 72.1683 56.1173 70.0898 54.0186C68.0113 51.9199 65.5438 50.2551 62.8281 49.1193C60.1124 47.9835 57.2018 47.3989 54.2623 47.3989C48.3259 47.3989 42.6326 49.7801 38.4349 54.0186C34.2372 58.2571 31.8789 64.0058 31.8789 70C31.8789 75.9942 34.2372 81.7428 38.4349 85.9814C42.6326 90.2199 48.3259 92.6011 54.2623 92.6011C57.2018 92.6011 60.1124 92.0165 62.8281 90.8807C65.5438 89.7448 68.0113 88.0801 70.0898 85.9814C72.1683 83.8827 73.8171 81.3911 74.9419 78.649C76.0668 75.907 76.6458 72.968 76.6458 70Z" stroke="#86B677" stroke-width="2"/>
<path d="M75.8187 69.9999C75.8187 67.1431 75.2614 64.3143 74.1787 61.6749C73.096 59.0356 71.509 56.6374 69.5084 54.6173C67.5077 52.5972 65.1326 50.9948 62.5187 49.9016C59.9048 48.8083 57.1032 48.2456 54.2739 48.2456C51.4445 48.2456 48.6429 48.8083 46.029 49.9016C43.4151 50.9948 41.04 52.5972 39.0393 54.6173C34.9989 58.697 32.729 64.2303 32.729 69.9999C32.729 75.7695 34.9989 81.3028 39.0393 85.3826C43.0798 89.4623 48.5598 91.7543 54.2739 91.7543C59.9879 91.7543 65.4679 89.4623 69.5084 85.3826C73.5488 81.3028 75.8187 75.7695 75.8187 69.9999Z" stroke="#E07A1E" stroke-opacity="0.996" stroke-width="2"/>
<path d="M74.9799 69.9944C74.9799 64.4463 72.7972 59.1254 68.9118 55.2023C65.0265 51.2792 59.7569 49.0752 54.2622 49.0752C48.7675 49.0752 43.4979 51.2792 39.6125 55.2023C35.7272 59.1254 33.5444 64.4463 33.5444 69.9944C33.5444 75.5425 35.7272 80.8634 39.6125 84.7865C43.4979 88.7096 48.7675 90.9136 54.2622 90.9136C59.7569 90.9136 65.0265 88.7096 68.9118 84.7865C72.7972 80.8634 74.9799 75.5425 74.9799 69.9944Z" stroke="#735B7C" stroke-opacity="0.996" stroke-width="2"/>
<path d="M58.7714 74.164C58.7898 74.0783 58.835 74.0007 58.9002 73.9427C58.9653 73.8847 59.0472 73.8492 59.1337 73.8414C59.2203 73.8337 59.307 73.854 59.3813 73.8995C59.4556 73.945 59.5136 74.0133 59.5468 74.0944C60.305 75.9889 61.088 78.3262 61.896 81.1061C62.4416 82.9736 63.5617 85.5834 65.5777 86.2272C65.7064 86.2682 65.8426 86.2828 65.9756 86.2699C66.1085 86.257 66.2345 86.2169 66.3437 86.1528C66.4529 86.0887 66.5422 86.0023 66.6046 85.9005C66.6671 85.7986 66.7009 85.6841 66.7035 85.566C66.7073 85.4384 66.5312 85.2528 66.1751 85.0093C65.9645 84.8623 65.5835 84.6787 65.0321 84.4583C64.8304 84.379 64.6576 84.2371 64.5381 84.0523C63.891 83.0548 63.3951 82.0167 63.0505 80.9379C61.3446 75.5617 60.2992 70.7074 55.865 67.1175C52.9529 64.7628 50.799 62.8548 50.1787 60.1928C49.8973 58.9806 48.6738 58.2499 48.8576 57.1596C48.866 57.1105 48.8636 57.0602 48.8508 57.0122C48.8379 56.9641 48.8148 56.9195 48.7831 56.8814C48.7513 56.8433 48.7118 56.8126 48.6671 56.7916C48.6225 56.7705 48.5738 56.7595 48.5245 56.7594H47.8582C47.7461 56.7594 47.6356 56.7229 47.5423 56.655C46.4204 55.7967 45.2506 55.787 44.0329 56.626C43.8737 56.7346 43.7432 56.8806 43.6524 57.0516C43.5617 57.2226 43.5134 57.4134 43.5117 57.6078C43.51 57.8022 43.5549 57.9943 43.6427 58.1677C43.7305 58.3411 43.8584 58.4907 44.0156 58.6037C44.9691 59.2841 45.6852 59.6766 46.1638 59.781C46.1966 59.7873 46.2273 59.8016 46.2535 59.8225C46.2797 59.8435 46.3006 59.8706 46.3146 59.9016C46.3285 59.9327 46.3352 59.9668 46.3339 60.0013C46.3327 60.0357 46.3236 60.0695 46.3074 60.1C46.1696 60.3435 46.1657 60.5794 46.2959 60.8075C46.3488 60.8998 46.3736 61.0046 46.368 61.111C46.3624 61.2174 46.3265 61.3217 46.264 61.4131C46.2015 61.5046 46.1146 61.5799 46.0122 61.6315C45.9098 61.683 45.7956 61.7089 45.6813 61.7064C43.0507 61.6369 41.3218 57.5713 38.4614 57.8961C38.342 57.909 38.2314 57.9663 38.1509 58.0573C38.0703 58.1482 38.0255 58.2664 38.0249 58.3891V58.9516C38.0248 59.0119 38.0388 59.0713 38.0657 59.1251C38.0927 59.1788 38.1318 59.2254 38.18 59.261C38.2281 59.2966 38.2839 59.3203 38.3428 59.33C38.4017 59.3397 38.462 59.3353 38.5189 59.317C38.7524 59.2436 38.9611 59.2126 39.1449 59.2242C39.3509 59.2392 39.5487 59.3159 39.7136 59.4446C40.8738 60.3455 42.1106 61.5769 43.424 63.139C44.5326 64.4613 46.1351 64.7802 47.2551 63.6609C47.2792 63.6371 47.3097 63.6209 47.3428 63.6144C47.3759 63.6079 47.4102 63.6113 47.4414 63.6243C47.4726 63.6372 47.4993 63.6592 47.5183 63.6873C47.5372 63.7155 47.5476 63.7487 47.5481 63.7827C47.5481 63.8175 47.3757 63.9664 47.0311 64.2293C46.9514 64.2889 46.889 64.3688 46.8506 64.4607C46.8122 64.5526 46.7991 64.653 46.8129 64.7512C47.0139 66.1721 48.0535 67.4249 49.5354 67.912C52.0971 68.7588 54.3027 70.2377 54.5784 73.0041C54.8484 75.7763 55.618 77.6322 57.6054 79.2503C57.7183 79.3442 57.8085 79.4625 57.8692 79.5962C57.9299 79.7298 57.9595 79.8753 57.9558 80.0216C57.9098 81.6571 58.0974 83.2095 58.5186 84.6787C58.5712 84.8671 58.6832 85.0331 58.8376 85.1514C58.9921 85.2696 59.1806 85.3338 59.3745 85.334H59.7363C59.83 85.3347 59.922 85.3102 60.0032 85.2632C60.0844 85.2161 60.152 85.1481 60.1991 85.0658C60.2462 84.9836 60.2712 84.8901 60.2716 84.7947C60.2721 84.6993 60.2479 84.6053 60.2016 84.5221C59.3285 82.9601 59.0854 81.2685 59.4721 79.4474C59.5985 78.8597 59.2098 78.2044 58.3061 77.4814C58.0714 77.2919 57.9191 77.0175 57.8815 76.7164C57.844 76.4154 57.9242 76.1114 58.1051 75.8691C58.3884 75.4863 58.6105 74.918 58.7714 74.164Z" stroke="#86B677" stroke-width="2"/>
<path d="M62.7631 64.49L65.9623 63.1329C66.0333 63.102 66.0925 63.0483 66.1307 62.9802C66.1689 62.912 66.1839 62.8333 66.1734 62.7563C66.1629 62.6794 66.1274 62.6086 66.0726 62.555C66.0178 62.5013 65.9467 62.468 65.8704 62.4601L64.8825 62.3383C64.6082 62.3117 64.332 62.3618 64.0841 62.4833L60.4541 64.258C60.4311 64.2681 60.4052 64.2689 60.3817 64.2603C60.3582 64.2516 60.3389 64.2342 60.3277 64.2116L60.2358 64.026C60.2329 64.0181 60.2324 64.0097 60.2345 64.0022C60.2366 63.9947 60.2412 63.9888 60.2473 63.9854L62.9066 62.6921C62.9576 62.6676 63.0005 62.6288 63.0301 62.5803C63.0597 62.5318 63.0748 62.4757 63.0736 62.4187C63.0724 62.3617 63.0549 62.3063 63.0233 62.2591C62.9916 62.212 62.9471 62.175 62.8952 62.1528C62.3782 61.9169 61.8804 61.9246 61.4018 62.176C61.3289 62.2157 61.2443 62.2281 61.1625 62.2112C61.0808 62.1942 61.007 62.149 60.9538 62.0832C60.8197 61.913 60.4809 61.7758 59.9371 61.6714C59.6767 61.6173 59.4661 61.6308 59.3053 61.712C59.0449 61.8357 58.8401 61.8241 58.6907 61.6772C58.5031 61.4916 58.2121 61.3679 57.8177 61.306C55.6389 60.9658 53.305 60.4593 50.816 59.7865C50.7701 59.7748 50.7219 59.7757 50.6765 59.7892C50.6311 59.8026 50.5901 59.8282 50.5578 59.8632C50.5255 59.8982 50.5031 59.9413 50.4929 59.988C50.4828 60.0347 50.4853 60.0833 50.5001 60.1287C51.2162 62.2398 52.5143 64.028 54.3944 65.4933C54.7029 65.7325 55.0696 65.8846 55.457 65.9341C60.7259 66.5798 65.656 65.7098 70.2472 63.3243C70.2827 63.3077 70.3118 63.2798 70.33 63.2449C70.3483 63.21 70.3546 63.1699 70.3481 63.131C70.3416 63.0921 70.3225 63.0564 70.2939 63.0295C70.2653 63.0026 70.2287 62.9859 70.1897 62.9821L68.6217 62.8023C68.4553 62.7833 68.2885 62.8011 68.1335 62.8545L62.8952 64.722C62.879 64.7267 62.8619 64.7258 62.8471 64.7194C62.8323 64.713 62.8208 64.7015 62.8147 64.6872L62.7458 64.5422C62.7417 64.5329 62.7412 64.5224 62.7443 64.5127C62.7475 64.503 62.7542 64.4949 62.7631 64.49Z" stroke="#86B677" stroke-width="2"/>
<path d="M77.5474 70C77.5474 76.2326 75.0954 82.2099 70.7307 86.617C66.3661 91.0241 60.4463 93.5 54.2737 93.5C48.1011 93.5 42.1814 91.0241 37.8167 86.617C33.452 82.2099 31 76.2326 31 70C31 66.9139 31.602 63.8581 32.7716 61.0069C33.9412 58.1558 35.6555 55.5652 37.8167 53.383C42.1814 48.9759 48.1011 46.5 54.2737 46.5C57.3301 46.5 60.3565 47.1078 63.1802 48.2888C66.0039 49.4698 68.5696 51.2008 70.7307 53.383C72.8919 55.5652 74.6062 58.1558 75.7758 61.0069C76.9454 63.8581 77.5474 66.9139 77.5474 70ZM76.6457 70C76.6457 67.032 76.0667 64.093 74.9418 61.351C73.817 58.6089 72.1682 56.1173 70.0897 54.0186C68.0112 51.9199 65.5437 50.2552 62.828 49.1193C60.1123 47.9835 57.2017 47.3989 54.2622 47.3989C48.3258 47.3989 42.6325 49.7801 38.4348 54.0186C34.237 58.2572 31.8788 64.0058 31.8788 70C31.8788 75.9942 34.237 81.7429 38.4348 85.9814C42.6325 90.2199 48.3258 92.6011 54.2622 92.6011C57.2017 92.6011 60.1123 92.0165 62.828 90.8807C65.5437 89.7449 68.0112 88.0801 70.0897 85.9814C72.1682 83.8827 73.817 81.3911 74.9418 78.6491C76.0667 75.907 76.6457 72.968 76.6457 70Z" fill="#1997D4"/>
<path d="M76.6458 70C76.6458 72.968 76.0668 75.907 74.9419 78.649C73.8171 81.3911 72.1683 83.8827 70.0898 85.9814C68.0113 88.0801 65.5438 89.7448 62.8281 90.8806C60.1124 92.0165 57.2018 92.6011 54.2623 92.6011C48.3259 92.6011 42.6326 90.2199 38.4349 85.9814C34.2372 81.7428 31.8789 75.9942 31.8789 70C31.8789 67.032 32.4579 64.093 33.5827 61.3509C34.7076 58.6089 36.3564 56.1173 38.4349 54.0186C42.6326 49.7801 48.3259 47.3989 54.2623 47.3989C57.2018 47.3989 60.1124 47.9835 62.8281 49.1193C65.5438 50.2551 68.0113 51.9199 70.0898 54.0186C72.1683 56.1173 73.8171 58.6089 74.9419 61.3509C76.0668 64.093 76.6458 67.032 76.6458 70ZM75.8187 70C75.8187 67.1432 75.2614 64.3143 74.1787 61.675C73.0959 59.0356 71.509 56.6374 69.5083 54.6174C67.5077 52.5973 65.1326 50.9949 62.5187 49.9016C59.9047 48.8084 57.1031 48.2457 54.2738 48.2457C51.4445 48.2457 48.6429 48.8084 46.029 49.9016C43.415 50.9949 41.0399 52.5973 39.0393 54.6174C34.9989 58.6971 32.729 64.2304 32.729 70C32.729 75.7696 34.9989 81.3029 39.0393 85.3826C43.0798 89.4623 48.5598 91.7543 54.2738 91.7543C59.9879 91.7543 65.4679 89.4623 69.5083 85.3826C73.5488 81.3029 75.8187 75.7696 75.8187 70Z" fill="#F3D519"/>
<path d="M75.8187 69.9999C75.8187 75.7695 73.5488 81.3028 69.5084 85.3826C65.4679 89.4623 59.9879 91.7542 54.2739 91.7542C48.5598 91.7542 43.0798 89.4623 39.0393 85.3826C34.9989 81.3028 32.729 75.7695 32.729 69.9999C32.729 64.2303 34.9989 58.697 39.0393 54.6173C43.0798 50.5376 48.5598 48.2456 54.2739 48.2456C57.1032 48.2456 59.9048 48.8083 62.5187 49.9016C65.1326 50.9948 67.5077 52.5972 69.5084 54.6173C71.509 56.6374 73.096 59.0356 74.1787 61.6749C75.2614 64.3143 75.8187 67.1431 75.8187 69.9999ZM74.9801 69.9941C74.9801 64.446 72.7974 59.1251 68.912 55.202C65.0267 51.2789 59.7571 49.0749 54.2624 49.0749C48.7677 49.0749 43.498 51.2789 39.6127 55.202C35.7274 59.1251 33.5446 64.446 33.5446 69.9941C33.5446 75.5422 35.7274 80.8631 39.6127 84.7862C43.498 88.7093 48.7677 90.9133 54.2624 90.9133C59.7571 90.9133 65.0267 88.7093 68.912 84.7862C72.7974 80.8631 74.9801 75.5422 74.9801 69.9941Z" fill="#CD1F23" fill-opacity="0.992"/>
<path d="M74.9799 69.9944C74.9799 75.5425 72.7972 80.8634 68.9118 84.7865C65.0265 88.7096 59.7569 90.9136 54.2622 90.9136C48.7675 90.9136 43.4979 88.7096 39.6125 84.7865C35.7272 80.8634 33.5444 75.5425 33.5444 69.9944C33.5444 64.4463 35.7272 59.1254 39.6125 55.2023C43.4979 51.2792 48.7675 49.0752 54.2622 49.0752C59.7569 49.0752 65.0265 51.2792 68.9118 55.2023C72.7972 59.1254 74.9799 64.4463 74.9799 69.9944ZM58.771 74.1643C58.7895 74.0786 58.8346 74.001 58.8998 73.943C58.965 73.885 59.0468 73.8495 59.1334 73.8417C59.22 73.8339 59.3067 73.8543 59.381 73.8998C59.4553 73.9453 59.5133 74.0136 59.5464 74.0947C60.3046 75.9892 61.0877 78.3265 61.8956 81.1064C62.4413 82.9739 63.5613 85.5837 65.5774 86.2275C65.7061 86.2685 65.8423 86.2831 65.9752 86.2702C66.1082 86.2573 66.2342 86.2172 66.3434 86.1531C66.4525 86.089 66.5419 86.0026 66.6043 85.9008C66.6668 85.7989 66.7006 85.6844 66.7032 85.5663C66.707 85.4387 66.5309 85.2531 66.1747 85.0096C65.9641 84.8626 65.5831 84.679 65.0317 84.4586C64.83 84.3793 64.6573 84.2374 64.5378 84.0526C63.8906 83.0551 63.3948 82.017 63.0501 80.9382C61.3442 75.562 60.2989 70.7077 55.8647 67.1178C52.9526 64.7631 50.7987 62.8551 50.1784 60.193C49.8969 58.9809 48.6735 58.2502 48.8573 57.1598C48.8657 57.1108 48.8633 57.0605 48.8504 57.0125C48.8376 56.9644 48.8144 56.9198 48.7827 56.8817C48.751 56.8436 48.7114 56.8129 48.6668 56.7918C48.6221 56.7708 48.5735 56.7598 48.5242 56.7597H47.8579C47.7458 56.7597 47.6352 56.7232 47.542 56.6553C46.42 55.7969 45.2502 55.7873 44.0325 56.6263C43.8734 56.7349 43.7429 56.8809 43.6521 57.0519C43.5613 57.2229 43.513 57.4137 43.5113 57.6081C43.5096 57.8024 43.5546 57.9946 43.6424 58.168C43.7301 58.3414 43.8581 58.491 44.0153 58.6039C44.9688 59.2844 45.6848 59.6769 46.1635 59.7813C46.1962 59.7876 46.2269 59.8019 46.2531 59.8228C46.2793 59.8438 46.3003 59.8709 46.3142 59.9019C46.3282 59.933 46.3348 59.9671 46.3336 60.0016C46.3324 60.036 46.3233 60.0698 46.3071 60.1002C46.1692 60.3438 46.1654 60.5797 46.2956 60.8078C46.3484 60.9001 46.3733 61.0049 46.3677 61.1113C46.3621 61.2177 46.3262 61.3219 46.2637 61.4134C46.2011 61.5049 46.1142 61.5802 46.0118 61.6318C45.9095 61.6833 45.7953 61.7092 45.681 61.7067C43.0504 61.6371 41.3215 57.5716 38.4611 57.8964C38.3416 57.9092 38.2311 57.9666 38.1505 58.0576C38.07 58.1485 38.0252 58.2667 38.0246 58.3894V58.9519C38.0245 59.0122 38.0385 59.0716 38.0654 59.1254C38.0924 59.1791 38.1315 59.2257 38.1796 59.2613C38.2278 59.2969 38.2836 59.3205 38.3424 59.3303C38.4013 59.34 38.4617 59.3356 38.5185 59.3173C38.7521 59.2438 38.9608 59.2129 39.1446 59.2245C39.3506 59.2395 39.5484 59.3162 39.7132 59.4449C40.8735 60.3458 42.1103 61.5772 43.4237 63.1392C44.5322 64.4615 46.1348 64.7805 47.2548 63.6612C47.2789 63.6374 47.3094 63.6212 47.3425 63.6147C47.3756 63.6082 47.4098 63.6116 47.441 63.6246C47.4722 63.6375 47.499 63.6594 47.5179 63.6876C47.5369 63.7158 47.5472 63.7489 47.5477 63.783C47.5477 63.8178 47.3754 63.9667 47.0308 64.2296C46.951 64.2892 46.8887 64.3691 46.8502 64.461C46.8118 64.5529 46.7988 64.6532 46.8125 64.7515C47.0136 66.1724 48.0532 67.4251 49.5351 67.9123C52.0968 68.7591 54.3024 70.238 54.5781 73.0044C54.848 75.7766 55.6177 77.6325 57.605 79.2505C57.7179 79.3445 57.8081 79.4628 57.8688 79.5965C57.9295 79.7301 57.9591 79.8756 57.9554 80.0219C57.9095 81.6574 58.0971 83.2097 58.5183 84.679C58.5708 84.8674 58.6828 85.0334 58.8373 85.1516C58.9918 85.2699 59.1803 85.3341 59.3741 85.3343H59.736C59.8296 85.335 59.9217 85.3105 60.0029 85.2635C60.0841 85.2164 60.1516 85.1484 60.1987 85.0661C60.2458 84.9839 60.2709 84.8904 60.2713 84.795C60.2717 84.6996 60.2476 84.6056 60.2012 84.5224C59.3282 82.9604 59.085 81.2688 59.4718 79.4477C59.5981 78.86 59.2095 78.2047 58.3058 77.4817C58.071 77.2922 57.9187 77.0178 57.8812 76.7167C57.8437 76.4157 57.9239 76.1117 58.1048 75.8694C58.3881 75.4866 58.6102 74.9182 58.771 74.1643ZM62.7629 64.4905L65.9622 63.1334C66.0332 63.1026 66.0924 63.0489 66.1306 62.9807C66.1688 62.9126 66.1838 62.8338 66.1733 62.7569C66.1628 62.6799 66.1273 62.6091 66.0725 62.5555C66.0177 62.5019 65.9466 62.4685 65.8703 62.4607L64.8824 62.3389C64.6081 62.3122 64.3319 62.3624 64.084 62.4839L60.454 64.2586C60.431 64.2686 60.4051 64.2695 60.3816 64.2608C60.3581 64.2522 60.3388 64.2348 60.3276 64.2122L60.2357 64.0266C60.2327 64.0187 60.2323 64.0102 60.2344 64.0028C60.2365 63.9953 60.2411 63.9893 60.2472 63.986L62.9065 62.6927C62.9575 62.6682 63.0004 62.6293 63.03 62.5808C63.0596 62.5323 63.0747 62.4762 63.0735 62.4192C63.0723 62.3623 63.0548 62.3069 63.0232 62.2597C62.9915 62.2125 62.947 62.1756 62.8951 62.1533C62.3781 61.9175 61.8803 61.9252 61.4017 62.1765C61.3288 62.2162 61.2442 62.2287 61.1624 62.2117C61.0807 62.1948 61.0068 62.1495 60.9537 62.0837C60.8196 61.9136 60.4808 61.7763 59.937 61.6719C59.6766 61.6178 59.466 61.6313 59.3052 61.7125C59.0448 61.8363 58.84 61.8247 58.6906 61.6777C58.503 61.4922 58.212 61.3684 57.8176 61.3066C55.6388 60.9663 53.3049 60.4598 50.8159 59.7871C50.77 59.7753 50.7218 59.7762 50.6764 59.7897C50.631 59.8032 50.59 59.8288 50.5577 59.8637C50.5254 59.8987 50.503 59.9418 50.4928 59.9885C50.4827 60.0352 50.4852 60.0838 50.5 60.1292C51.2161 62.2403 52.5142 64.0285 54.3943 65.4939C54.7028 65.7331 55.0695 65.8852 55.4569 65.9346C60.7258 66.5803 65.6559 65.7104 70.2471 63.3248C70.2826 63.3083 70.3117 63.2804 70.3299 63.2454C70.3482 63.2105 70.3545 63.1705 70.348 63.1316C70.3414 63.0926 70.3224 63.0569 70.2938 63.03C70.2652 63.0031 70.2286 62.9865 70.1896 62.9827L68.6216 62.8029C68.4552 62.7838 68.2884 62.8017 68.1334 62.8551L62.8951 64.7225C62.8789 64.7273 62.8618 64.7263 62.847 64.7199C62.8322 64.7135 62.8207 64.7021 62.8146 64.6877L62.7457 64.5427C62.7416 64.5334 62.741 64.5229 62.7442 64.5132C62.7474 64.5036 62.7541 64.4955 62.7629 64.4905Z" fill="#1997D4"/>
<path d="M186.673 67.9874C186.673 71.7069 186.681 73.6614 186.696 73.8508C186.715 74.0435 186.763 74.2315 186.84 74.4076C188.109 77.2494 190.436 77.174 193.325 76.9246C193.523 76.9054 193.715 76.8545 193.893 76.7738C195.295 76.1204 196.218 75.0514 196.662 73.5667C196.719 73.3754 196.814 73.1979 196.941 73.045C197.068 72.892 197.225 72.767 197.401 72.6774C197.578 72.5878 197.77 72.5356 197.967 72.5239C198.164 72.5123 198.361 72.5415 198.546 72.6097L204.565 74.8194C204.678 74.8612 204.779 74.931 204.858 75.0224C205.36 75.6101 205.448 76.3273 205.122 77.174C202.515 83.9538 196.007 85.7806 189.327 85.1021C182.664 84.4293 177.943 80.4566 177.501 73.4971C177.459 72.8011 177.438 70.9646 177.438 67.9874C177.438 65.0103 177.46 63.1738 177.506 62.4778C177.949 55.5183 182.67 51.5456 189.333 50.8786C196.013 50.2001 202.521 52.0327 205.128 58.8125C205.454 59.6592 205.366 60.3764 204.864 60.9641C204.785 61.0555 204.684 61.1253 204.571 61.1671L198.546 63.3768C198.36 63.4449 198.163 63.4738 197.966 63.4618C197.769 63.4498 197.576 63.3971 197.4 63.307C197.223 63.2168 197.067 63.0911 196.94 62.9375C196.813 62.7839 196.718 62.6058 196.662 62.414C196.222 60.9293 195.301 59.8603 193.899 59.2068C193.72 59.1262 193.528 59.0753 193.33 59.0561C190.441 58.8067 188.115 58.7313 186.846 61.5731C186.769 61.7492 186.721 61.9372 186.702 62.1298C186.687 62.3154 186.677 64.268 186.673 67.9874Z" fill="white"/>
<path d="M235.94 72.8842C235.935 76.1405 234.648 79.2611 232.364 81.5596C230.08 83.8581 226.985 85.1462 223.76 85.1406L219.647 85.1333C216.422 85.1276 213.332 83.8286 211.055 81.5221C208.779 79.2155 207.503 76.0904 207.509 72.8341L207.526 63.0908C207.531 59.8345 208.818 56.7139 211.102 54.4154C213.386 52.1169 216.481 50.8288 219.706 50.8345L223.819 50.8417C227.044 50.8474 230.134 52.1464 232.411 54.453C234.687 56.7595 235.963 59.8847 235.957 63.1409L235.94 72.8842ZM226.765 63.2081C226.763 62.6514 226.653 62.1005 226.44 61.5869C226.227 61.0732 225.916 60.607 225.525 60.2147C225.134 59.8224 224.67 59.5117 224.16 59.3004C223.65 59.0892 223.103 58.9815 222.552 58.9834L220.76 58.9897C220.208 58.9917 219.663 59.1032 219.154 59.3181C218.646 59.5329 218.184 59.8468 217.795 60.2419C217.407 60.6369 217.099 61.1054 216.89 61.6205C216.681 62.1356 216.574 62.6873 216.576 63.244L216.609 72.7901C216.611 73.3469 216.721 73.8978 216.934 74.4114C217.147 74.925 217.458 75.3913 217.849 75.7836C218.24 76.1759 218.704 76.4865 219.214 76.6978C219.724 76.9091 220.271 77.0168 220.822 77.0148L222.614 77.0085C223.166 77.0066 223.711 76.895 224.22 76.6801C224.729 76.4653 225.19 76.1514 225.579 75.7563C225.967 75.3613 226.275 74.8928 226.484 74.3777C226.693 73.8626 226.8 73.311 226.798 72.7542L226.765 63.2081Z" fill="white"/>
<path d="M290.262 73.0099C288.083 72.9828 286.796 72.9867 286.402 73.0215C285.012 73.1375 284.304 72.573 284.277 71.328C284.235 69.4219 284.254 67.8772 284.334 66.6941C284.358 66.37 284.501 66.0667 284.737 65.8451C284.972 65.6235 285.282 65.5 285.604 65.4994H298.435C298.492 65.4994 298.548 65.5072 298.602 65.5226C299.383 65.7469 299.774 66.2843 299.774 67.1349C299.774 70.4793 299.779 72.3449 299.791 72.7315C299.952 77.8758 297.459 82.1965 292.732 83.9248C287.222 85.9391 282.044 85.7265 277.201 83.2868C274.484 81.9181 271.997 78.5311 271.641 74.9644C271.56 74.1466 271.273 73.2825 271.262 72.2559C271.233 69.5823 270.911 64.8093 271.669 60.7089C272.399 56.8 274.564 53.8306 278.166 52.1893C278.973 51.822 279.988 51.4818 281.21 51.1686C283.41 50.606 286.959 50.7162 288.671 50.9018C289.942 51.041 291.413 51.4876 293.082 52.2415C295.609 53.3821 297.511 55.3327 298.786 58.0933C299.111 58.8047 299.257 59.4891 299.222 60.1464C299.21 60.3819 299.129 60.6084 298.99 60.7972C298.851 60.9861 298.66 61.1289 298.441 61.2077L292.324 63.3825C292.037 63.4834 291.724 63.4761 291.443 63.3619C291.162 63.2478 290.932 63.0345 290.796 62.762C289.228 59.5954 288.544 58.8763 284.69 59.0038C282.066 59.0908 280.578 60.6045 280.555 63.2608C280.52 66.5975 280.522 69.764 280.561 72.7605C280.587 75.1151 281.753 76.5283 284.059 77C284.801 77.1508 285.881 77.1237 287.298 76.9188C289.496 76.5979 290.618 75.4341 290.664 73.4275C290.665 73.3732 290.656 73.3191 290.637 73.2685C290.617 73.2179 290.588 73.1718 290.55 73.1329C290.513 73.0939 290.468 73.063 290.418 73.0419C290.369 73.0207 290.316 73.0099 290.262 73.0099Z" fill="white"/>
<path d="M331 72.9582C331.017 76.1668 329.77 79.2506 327.535 81.5312C325.3 83.8119 322.259 85.1026 319.081 85.1194L314.785 85.1421C313.212 85.1504 311.652 84.8457 310.195 84.2455C308.738 83.6452 307.413 82.761 306.295 81.6435C305.176 80.526 304.287 79.197 303.677 77.7325C303.067 76.2679 302.749 74.6963 302.741 73.1076L302.689 63.0048C302.672 59.7963 303.918 56.7125 306.154 54.4318C308.389 52.1512 311.43 50.8605 314.607 50.8437L318.904 50.821C320.477 50.8126 322.037 51.1173 323.493 51.7176C324.95 52.3179 326.276 53.202 327.394 54.3195C328.512 55.437 329.402 56.766 330.012 58.2306C330.621 59.6952 330.939 61.2667 330.948 62.8554L331 72.9582ZM321.893 63.0925C321.893 62.0035 321.465 60.959 320.702 60.189C319.939 59.419 318.905 58.9863 317.826 58.9863H315.874C314.795 58.9863 313.761 59.419 312.998 60.189C312.235 60.959 311.807 62.0035 311.807 63.0925V72.9054C311.807 73.9944 312.235 75.0388 312.998 75.8089C313.761 76.5789 314.795 77.0115 315.874 77.0115H317.826C318.905 77.0115 319.939 76.5789 320.702 75.8089C321.465 75.0388 321.893 73.9944 321.893 72.9054V63.0925Z" fill="white"/>
<path d="M102.165 79.558C101.487 80.9615 101.522 84.2151 98.8279 84.5283C98.288 84.594 96.1762 84.6037 92.4925 84.5573C92.3214 84.5557 92.1531 84.5127 92.0018 84.4318C91.8506 84.3509 91.7208 84.2345 91.6234 84.0924C91.526 83.9503 91.4639 83.7867 91.4422 83.6152C91.4205 83.4438 91.4399 83.2696 91.4988 83.1074L102.492 52.5898C102.612 52.2568 102.83 51.969 103.118 51.7656C103.406 51.5622 103.749 51.4531 104.101 51.4531H110.585C110.956 51.4534 111.317 51.5687 111.62 51.7835C111.923 51.9983 112.154 52.3021 112.28 52.6536C118.498 69.9287 122.109 79.9292 123.113 82.655C123.641 84.1107 122.756 84.5921 121.424 84.5863C117.752 84.5785 115.822 84.565 115.634 84.5457C114.328 84.4258 113.507 83.7125 113.17 82.4056C112.936 81.497 112.657 80.5478 112.331 79.558C112.3 79.4617 112.239 79.3778 112.158 79.3184C112.076 79.2591 111.978 79.2272 111.878 79.2274H102.682C102.574 79.2277 102.468 79.2589 102.376 79.3174C102.285 79.3759 102.212 79.4593 102.165 79.558ZM107.265 71.8735C108.648 71.8658 109.463 71.8542 109.712 71.8387C109.754 71.8364 109.795 71.8249 109.832 71.8051C109.868 71.7852 109.901 71.7575 109.926 71.7238C109.951 71.6901 109.969 71.6513 109.977 71.61C109.986 71.5688 109.986 71.5261 109.977 71.485C109.869 70.9746 109.237 68.9447 108.081 65.3954C107.893 64.8231 107.65 63.033 107.352 60.0249C107.348 60.0103 107.342 59.9966 107.334 59.9843C107.292 59.9263 107.237 59.8974 107.168 59.8974C107.103 59.8974 107.049 59.9263 107.007 59.9843C106.999 59.9966 106.993 60.0103 106.99 60.0249C106.737 63.0407 106.523 64.8347 106.346 65.407C105.244 68.9757 104.642 71.0152 104.543 71.5256C104.534 71.5672 104.533 71.6103 104.543 71.652C104.552 71.6936 104.57 71.7327 104.596 71.7665C104.621 71.8003 104.654 71.8279 104.692 71.8474C104.729 71.8669 104.771 71.8778 104.813 71.8793C105.062 71.8871 105.879 71.8851 107.265 71.8735Z" fill="white"/>
<path d="M133.319 51.4355H126.955C126.21 51.4355 125.605 52.0457 125.605 52.7985V83.2C125.605 83.9527 126.21 84.5629 126.955 84.5629H133.319C134.065 84.5629 134.669 83.9527 134.669 83.2V52.7985C134.669 52.0457 134.065 51.4355 133.319 51.4355Z" fill="white"/>
<path d="M161.269 72.1229C161.249 72.1343 161.232 72.1495 161.218 72.1677C161.204 72.1858 161.194 72.2065 161.188 72.2286C161.182 72.2507 161.181 72.2737 161.184 72.2964C161.187 72.319 161.194 72.3409 161.205 72.3607C162.634 74.8855 164.386 78.1912 166.461 82.278C167.259 83.8555 166.455 84.5689 164.847 84.5863C161.573 84.6269 158.293 85.0734 156.57 83.2988C156.456 83.1797 156.361 83.0406 156.289 82.887C155.469 81.1471 154.338 78.7248 152.894 75.6201C152.163 74.0465 150.823 73.3582 148.874 73.5554C148.786 73.5654 148.706 73.6077 148.647 73.6741C148.589 73.7405 148.557 73.8263 148.558 73.915C148.581 78.0289 148.579 81.0369 148.552 82.9392C148.535 84.0933 147.621 84.6385 146.478 84.5863C145.739 84.5553 144.064 84.5611 141.453 84.6037C140.07 84.6307 139.375 83.9309 139.368 82.5042C139.341 76.5616 139.345 66.7022 139.379 52.9262C139.379 52.5355 139.533 52.1608 139.806 51.8846C140.08 51.6083 140.451 51.4531 140.838 51.4531L155.881 51.4589C156.487 51.4589 157.088 51.5468 157.667 51.7199C158.142 51.863 158.609 52.0118 159.069 52.1665C162.347 53.2684 164.451 55.3389 165.381 58.3779C166.886 63.3017 165.967 69.3681 161.269 72.1229ZM148.558 59.9031L148.581 65.494C148.581 65.5601 148.607 65.6235 148.653 65.6703C148.699 65.7171 148.762 65.7434 148.828 65.7434L153.836 65.726C154.55 65.7229 155.233 65.4257 155.736 64.8994C156.239 64.3732 156.52 63.6609 156.519 62.9189V62.4318C156.518 62.0634 156.447 61.6989 156.311 61.359C156.174 61.019 155.975 60.7104 155.723 60.4507C155.472 60.1911 155.174 59.9855 154.846 59.8458C154.518 59.706 154.167 59.6349 153.813 59.6364L148.805 59.6538C148.739 59.6538 148.676 59.68 148.63 59.7268C148.584 59.7736 148.558 59.837 148.558 59.9031Z" fill="white"/>
<path d="M247.028 63.1567C246.879 64.2413 247.649 65.0242 247.609 65.9231C247.593 66.2595 247.75 67.1449 248.08 68.5794C248.148 68.8649 248.191 69.1561 248.206 69.4493C248.432 73.9459 248.487 78.4542 248.373 82.974C248.346 83.987 247.85 84.5109 246.885 84.5457C245.786 84.5882 244.143 84.6037 241.957 84.5921C240.578 84.5805 239.82 84.0933 239.82 82.655C239.801 68.415 239.805 58.4842 239.832 52.8624C239.833 52.4881 239.981 52.1297 240.244 51.8655C240.507 51.6014 240.862 51.4531 241.233 51.4531H247.706C247.977 51.4532 248.242 51.5206 248.48 51.6491C248.717 51.7776 248.919 51.9633 249.068 52.1897C250.66 54.641 253.308 58.8225 257.011 64.7342C258.298 66.7834 259.462 69.4184 260.503 72.6391C260.517 72.6857 260.548 72.7252 260.59 72.749C260.631 72.7729 260.681 72.7792 260.727 72.7667L260.877 72.7261C260.881 72.7256 260.884 72.7243 260.887 72.722C260.89 72.7198 260.893 72.7169 260.895 72.7134C260.896 72.7099 260.897 72.7061 260.897 72.7022C260.897 72.6984 260.896 72.6946 260.894 72.6913L259.073 65.7144C259.058 65.6566 259.05 65.5981 259.05 65.5404V52.671C259.05 52.3496 259.176 52.0413 259.4 51.8139C259.624 51.5866 259.928 51.4589 260.245 51.4589H266.345C266.52 51.4588 266.691 51.5179 266.833 51.6271C267.3 51.9944 267.534 52.5744 267.534 53.367C267.541 64.9314 267.539 74.8275 267.528 83.0552C267.522 84.0933 266.603 84.5921 265.575 84.5863C263.955 84.5785 262.142 84.5766 260.136 84.5805C259.825 84.5804 259.518 84.5025 259.244 84.3538C258.969 84.205 258.735 83.9901 258.562 83.7279C257.968 82.8348 255.69 79.3028 251.727 73.1321C249.579 69.7915 248.2 66.6191 247.402 63.1393C247.392 63.0952 247.368 63.0558 247.332 63.0283C247.297 63.0007 247.253 62.9868 247.208 62.9888C247.163 62.9909 247.121 63.0089 247.088 63.0397C247.055 63.0704 247.034 63.1119 247.028 63.1567Z" fill="white"/>
<path d="M58.7709 74.164C58.6101 74.918 58.388 75.4863 58.1046 75.8691C57.9237 76.1114 57.8435 76.4154 57.881 76.7164C57.9186 77.0175 58.0709 77.2919 58.3056 77.4814C59.2093 78.2044 59.598 78.8597 59.4716 79.4474C59.0849 81.2685 59.328 82.9601 60.2011 84.5221C60.2474 84.6053 60.2716 84.6993 60.2712 84.7947C60.2707 84.8901 60.2457 84.9836 60.1986 85.0658C60.1515 85.1481 60.0839 85.2161 60.0027 85.2632C59.9215 85.3102 59.8295 85.3347 59.7358 85.334H59.374C59.1801 85.3338 58.9916 85.2696 58.8372 85.1514C58.6827 85.0331 58.5707 84.8671 58.5182 84.6787C58.0969 83.2095 57.9093 81.6571 57.9553 80.0216C57.959 79.8753 57.9294 79.7298 57.8687 79.5962C57.808 79.4625 57.7178 79.3442 57.6049 79.2503C55.6176 77.6322 54.8479 75.7763 54.5779 73.0041C54.3022 70.2377 52.0966 68.7588 49.5349 67.912C48.053 67.4249 47.0134 66.1721 46.8124 64.7512C46.7986 64.653 46.8117 64.5526 46.8501 64.4607C46.8885 64.3688 46.9509 64.2889 47.0306 64.2293C47.3753 63.9664 47.5476 63.8175 47.5476 63.7827C47.5471 63.7487 47.5367 63.7155 47.5178 63.6873C47.4988 63.6592 47.4721 63.6372 47.4409 63.6243C47.4097 63.6113 47.3754 63.6079 47.3423 63.6144C47.3092 63.6209 47.2787 63.6371 47.2546 63.6609C46.1346 64.7802 44.5321 64.4613 43.4236 63.139C42.1101 61.5769 40.8733 60.3455 39.7131 59.4446C39.5482 59.3159 39.3504 59.2392 39.1444 59.2242C38.9606 59.2126 38.752 59.2436 38.5184 59.317C38.4615 59.3353 38.4012 59.3397 38.3423 59.33C38.2834 59.3203 38.2276 59.2966 38.1795 59.261C38.1313 59.2254 38.0922 59.1788 38.0653 59.1251C38.0383 59.0713 38.0243 59.0119 38.0244 58.9516V58.3891C38.025 58.2664 38.0699 58.1482 38.1504 58.0573C38.2309 57.9663 38.3415 57.909 38.4609 57.8961C41.3213 57.5713 43.0502 61.6369 45.6808 61.7064C45.7951 61.7089 45.9093 61.683 46.0117 61.6315C46.1141 61.5799 46.201 61.5046 46.2635 61.4131C46.326 61.3217 46.3619 61.2174 46.3675 61.111C46.3732 61.0046 46.3483 60.8998 46.2954 60.8075C46.1652 60.5794 46.1691 60.3435 46.3069 60.1C46.3231 60.0695 46.3322 60.0357 46.3334 60.0013C46.3347 59.9668 46.3281 59.9327 46.3141 59.9016C46.3001 59.8706 46.2792 59.8435 46.253 59.8225C46.2268 59.8016 46.1961 59.7873 46.1633 59.781C45.6847 59.6766 44.9686 59.2841 44.0152 58.6037C43.8579 58.4907 43.73 58.3411 43.6422 58.1677C43.5545 57.9943 43.5095 57.8022 43.5112 57.6078C43.5129 57.4134 43.5612 57.2226 43.6519 57.0516C43.7427 56.8806 43.8732 56.7346 44.0324 56.626C45.2501 55.787 46.4199 55.7967 47.5418 56.655C47.6351 56.7229 47.7456 56.7594 47.8577 56.7594H48.524C48.5733 56.7595 48.622 56.7705 48.6666 56.7916C48.7113 56.8126 48.7509 56.8433 48.7826 56.8814C48.8143 56.9195 48.8374 56.9641 48.8503 57.0122C48.8632 57.0602 48.8655 57.1105 48.8571 57.1596C48.6733 58.2499 49.8968 58.9806 50.1782 60.1928C50.7985 62.8548 52.9524 64.7628 55.8645 67.1175C60.2987 70.7074 61.3441 75.5617 63.05 80.9379C63.3946 82.0167 63.8905 83.0548 64.5376 84.0523C64.6572 84.2371 64.8299 84.379 65.0316 84.4583C65.583 84.6787 65.964 84.8623 66.1746 85.0093C66.5307 85.2528 66.7068 85.4384 66.703 85.566C66.7004 85.6841 66.6666 85.7986 66.6042 85.9005C66.5417 86.0023 66.4524 86.0887 66.3432 86.1528C66.234 86.2169 66.108 86.257 65.9751 86.2699C65.8421 86.2828 65.7059 86.2682 65.5772 86.2272C63.5612 85.5834 62.4411 82.9736 61.8955 81.1061C61.0875 78.3262 60.3045 75.9889 59.5463 74.0944C59.5131 74.0133 59.4552 73.945 59.3809 73.8995C59.3066 73.854 59.2198 73.8337 59.1332 73.8414C59.0467 73.8492 58.9649 73.8847 58.8997 73.9427C58.8345 74.0007 58.7894 74.0783 58.7709 74.164Z" fill="#F3D519"/>
<path d="M62.7631 64.49C62.7542 64.4949 62.7475 64.503 62.7443 64.5127C62.7412 64.5224 62.7417 64.5329 62.7458 64.5422L62.8147 64.6872C62.8208 64.7015 62.8323 64.713 62.8471 64.7194C62.8619 64.7258 62.879 64.7267 62.8952 64.722L68.1335 62.8545C68.2885 62.8011 68.4553 62.7833 68.6217 62.8023L70.1897 62.9821C70.2287 62.9859 70.2653 63.0026 70.2939 63.0295C70.3225 63.0564 70.3416 63.0921 70.3481 63.131C70.3546 63.1699 70.3483 63.21 70.33 63.2449C70.3118 63.2798 70.2827 63.3077 70.2472 63.3243C65.656 65.7098 60.7259 66.5798 55.457 65.9341C55.0696 65.8846 54.7029 65.7325 54.3944 65.4933C52.5143 64.028 51.2162 62.2398 50.5001 60.1287C50.4853 60.0833 50.4828 60.0347 50.4929 59.988C50.5031 59.9413 50.5255 59.8982 50.5578 59.8632C50.5901 59.8282 50.6311 59.8026 50.6765 59.7892C50.7219 59.7757 50.7701 59.7748 50.816 59.7865C53.305 60.4593 55.6389 60.9658 57.8177 61.306C58.2121 61.3679 58.5031 61.4916 58.6907 61.6772C58.8401 61.8241 59.0449 61.8357 59.3053 61.712C59.4661 61.6308 59.6767 61.6173 59.9371 61.6714C60.4809 61.7758 60.8197 61.913 60.9538 62.0832C61.007 62.149 61.0808 62.1942 61.1625 62.2112C61.2443 62.2281 61.3289 62.2157 61.4018 62.176C61.8804 61.9246 62.3782 61.9169 62.8952 62.1528C62.9471 62.175 62.9916 62.212 63.0233 62.2591C63.0549 62.3063 63.0724 62.3617 63.0736 62.4187C63.0748 62.4757 63.0597 62.5318 63.0301 62.5803C63.0005 62.6288 62.9576 62.6676 62.9066 62.6921L60.2473 63.9854C60.2412 63.9888 60.2366 63.9947 60.2345 64.0022C60.2324 64.0097 60.2329 64.0181 60.2358 64.026L60.3277 64.2116C60.3389 64.2342 60.3582 64.2516 60.3817 64.2603C60.4052 64.2689 60.4311 64.2681 60.4541 64.258L64.0841 62.4833C64.332 62.3618 64.6082 62.3117 64.8825 62.3383L65.8704 62.4601C65.9467 62.468 66.0178 62.5013 66.0726 62.555C66.1274 62.6086 66.1629 62.6794 66.1734 62.7563C66.1839 62.8333 66.1689 62.912 66.1307 62.9802C66.0925 63.0483 66.0333 63.102 65.9623 63.1329L62.7631 64.49Z" fill="#F3D519"/>
</svg>
