<svg width="362" height="140" viewBox="0 0 362 140" fill="none" xmlns="http://www.w3.org/2000/svg">
<rect width="362" height="140" fill="#D22027"/>
<path d="M184.263 48C197.348 48.0117 207.334 56.5687 207.322 70.0194C207.311 83.4701 197.309 92.0116 184.224 92C171.143 91.9883 161.156 83.4313 161.168 69.9806C161.18 56.526 171.181 47.9884 184.263 48ZM184.078 56.4647C180.565 56.5015 177.211 57.9633 174.753 60.5285C172.295 63.0937 170.935 66.552 170.973 70.1429C170.991 71.9208 171.352 73.6778 172.035 75.3135C172.718 76.9492 173.71 78.4315 174.953 79.6758C176.196 80.9202 177.667 81.9021 179.281 82.5657C180.896 83.2292 182.622 83.5613 184.361 83.5431C187.875 83.5062 191.229 82.0444 193.687 79.4793C196.145 76.9141 197.505 73.4557 197.467 69.8649C197.448 68.0869 197.087 66.3299 196.404 64.6943C195.722 63.0586 194.73 61.5763 193.487 60.3319C192.244 59.0876 190.773 58.1056 189.159 57.4421C187.544 56.7785 185.818 56.4464 184.078 56.4647Z" fill="white"/>
<path d="M54.2021 49.397C56.6864 49.3944 58.9369 49.4021 60.9538 49.4203C61.0355 49.4214 61.1149 49.4468 61.1819 49.4931C61.2488 49.5395 61.3002 49.6046 61.3295 49.6803L77.4206 90.4282C77.4295 90.4493 77.4329 90.4722 77.4305 90.495C77.4282 90.5177 77.4202 90.5397 77.4072 90.5588C77.3942 90.578 77.3766 90.5938 77.356 90.6048C77.3353 90.6159 77.3123 90.6218 77.2889 90.6222H67.2523C67.2034 90.6225 67.1556 90.6073 67.1153 90.5788C67.0751 90.5503 67.0445 90.5099 67.0277 90.4631L64.5679 83.893C64.5456 83.8356 64.5069 83.7862 64.4565 83.751C64.4062 83.7157 64.3465 83.6963 64.2851 83.6951C63.89 83.6847 60.5329 83.6808 54.2137 83.6834C47.8945 83.6834 44.5374 83.6886 44.1422 83.6989C44.0808 83.7002 44.0212 83.7196 43.9708 83.7548C43.9205 83.7901 43.8817 83.8395 43.8595 83.8969L41.4036 90.4709C41.3868 90.5177 41.3562 90.5581 41.3159 90.5866C41.2757 90.6151 41.2278 90.6302 41.1789 90.63L31.1423 90.6339C31.1189 90.6335 31.0959 90.6275 31.0753 90.6165C31.0547 90.6054 31.0371 90.5896 31.0241 90.5705C31.0111 90.5513 31.0031 90.5294 31.0007 90.5066C30.9984 90.4838 31.0018 90.4609 31.0106 90.4398L47.0785 49.6841C47.1078 49.6085 47.1592 49.5433 47.2261 49.497C47.2931 49.4507 47.3725 49.4253 47.4542 49.4241C49.4711 49.406 51.7204 49.397 54.2021 49.397ZM61.3722 76.1936C61.4023 76.1936 61.432 76.1864 61.4587 76.1724C61.4854 76.1584 61.5083 76.1381 61.5255 76.1133C61.5426 76.0885 61.5535 76.0599 61.5571 76.0299C61.5608 76 61.5571 75.9695 61.5465 75.9413L55.1434 58.8272C55.13 58.7918 55.1061 58.7613 55.075 58.7398C55.0438 58.7183 55.0069 58.7068 54.969 58.7069H53.4235C53.3856 58.7068 53.3487 58.7183 53.3176 58.7398C53.2864 58.7613 53.2625 58.7918 53.2492 58.8272L46.8499 75.9413C46.8392 75.9695 46.8356 76 46.8392 76.0299C46.8429 76.0599 46.8538 76.0885 46.8709 76.1133C46.8881 76.1381 46.911 76.1584 46.9377 76.1724C46.9644 76.1864 46.9941 76.1936 47.0242 76.1936H61.3722Z" fill="white"/>
<path d="M114.596 69.9691C114.596 71.2989 114.585 72.41 114.565 73.3026C114.563 73.3568 114.54 73.4082 114.501 73.4458C114.462 73.4834 114.41 73.5045 114.356 73.5044H90.3972C90.3366 73.5044 90.2785 73.5285 90.2356 73.5715C90.1927 73.6144 90.1687 73.6727 90.1687 73.7334V82.2284C90.1687 82.2615 90.1751 82.2943 90.1875 82.3249C90.2 82.3555 90.2182 82.3833 90.2413 82.4067C90.2643 82.4301 90.2916 82.4487 90.3217 82.4614C90.3518 82.4741 90.384 82.4806 90.4166 82.4806H115.328C115.356 82.4806 115.384 82.4861 115.409 82.4969C115.435 82.5076 115.459 82.5233 115.479 82.5431C115.498 82.5629 115.514 82.5865 115.525 82.6124C115.535 82.6383 115.541 82.666 115.541 82.694V90.2188C115.541 90.3166 115.502 90.4104 115.433 90.4795C115.364 90.5487 115.271 90.5875 115.173 90.5875H80.3839C80.3315 90.5875 80.2812 90.5666 80.2442 90.5295C80.2071 90.4924 80.1863 90.4421 80.1863 90.3896C80.1786 89.8592 80.1721 83.0588 80.1669 69.9885C80.1592 56.9155 80.1592 50.1138 80.1669 49.5835C80.1669 49.531 80.1878 49.4806 80.2248 49.4435C80.2619 49.4064 80.3121 49.3855 80.3645 49.3855L115.154 49.3545C115.251 49.3545 115.345 49.3933 115.414 49.4625C115.483 49.5316 115.522 49.6254 115.522 49.7232L115.529 57.2479C115.529 57.3046 115.507 57.3588 115.467 57.3989C115.427 57.4389 115.373 57.4614 115.316 57.4614L90.4049 57.4847C90.3724 57.4847 90.3402 57.4912 90.3101 57.5039C90.28 57.5165 90.2527 57.5351 90.2296 57.5585C90.2066 57.582 90.1884 57.6098 90.1759 57.6404C90.1634 57.671 90.157 57.7038 90.157 57.7369L90.1648 66.2319C90.1648 66.2926 90.1889 66.3509 90.2317 66.3938C90.2746 66.4367 90.3327 66.4609 90.3933 66.4609L114.352 66.4376C114.406 66.4375 114.458 66.4585 114.497 66.4962C114.536 66.5338 114.559 66.5851 114.561 66.6394C114.584 67.5319 114.596 68.6418 114.596 69.9691Z" fill="white"/>
<path d="M159.658 90.6219H150.249C150.197 90.6219 150.146 90.6079 150.1 90.5813C150.055 90.5548 150.016 90.5166 149.99 90.4706L143.199 78.6847C143.146 78.5938 143.07 78.5183 142.979 78.4659C142.888 78.4134 142.785 78.3859 142.68 78.3859H129.866C129.815 78.3859 129.765 78.4063 129.729 78.4427C129.693 78.4791 129.672 78.5285 129.672 78.5799V90.3503C129.672 90.4213 129.644 90.4894 129.594 90.5396C129.544 90.5898 129.476 90.618 129.405 90.618H119.795C119.73 90.618 119.667 90.592 119.621 90.5455C119.574 90.499 119.548 90.4359 119.547 90.3697L119.523 49.8585C119.523 49.7779 119.544 49.6985 119.583 49.6279C119.623 49.5573 119.679 49.4977 119.748 49.4549C119.795 49.4264 120.515 49.4109 121.91 49.4083C132.65 49.3902 140.007 49.4031 143.982 49.4471C145.939 49.4678 148.129 49.9309 150.551 50.8364C156.447 53.0407 159.077 58.3923 158.895 64.5006C158.743 69.7784 156.448 73.7031 152.012 76.2748C151.954 76.3085 151.912 76.364 151.894 76.4293C151.877 76.4946 151.886 76.5645 151.919 76.624L159.821 90.3347C159.838 90.3636 159.847 90.3964 159.847 90.4299C159.848 90.4635 159.839 90.4965 159.823 90.5256C159.806 90.5548 159.782 90.579 159.753 90.5959C159.724 90.6129 159.692 90.6218 159.658 90.6219ZM129.676 57.9072V70.5507C129.676 70.6083 129.699 70.6636 129.74 70.7043C129.78 70.7451 129.836 70.768 129.893 70.768H142.335C143.204 70.768 144.064 70.6093 144.867 70.3009C145.67 69.9926 146.399 69.5407 147.014 68.9709C147.628 68.4012 148.115 67.7248 148.448 66.9805C148.78 66.2361 148.951 65.4382 148.951 64.6325V63.8253C148.951 62.1981 148.254 60.6375 147.014 59.4869C145.773 58.3363 144.09 57.6898 142.335 57.6898H129.893C129.865 57.6898 129.836 57.6955 129.81 57.7064C129.784 57.7173 129.76 57.7333 129.74 57.7535C129.72 57.7737 129.704 57.7976 129.693 57.824C129.682 57.8504 129.676 57.8786 129.676 57.9072Z" fill="white"/>
<path d="M223.352 49.6032C223.352 49.5772 223.357 49.5515 223.367 49.5275C223.377 49.5034 223.391 49.4816 223.41 49.4632C223.428 49.4449 223.45 49.4303 223.474 49.4203C223.498 49.4104 223.524 49.4053 223.55 49.4053L245.877 49.4441C250.972 49.4526 255.854 51.4281 259.451 54.9359C263.047 58.4438 265.063 63.1968 265.055 68.1493L265.048 71.9524C265.044 74.4049 264.543 76.8325 263.574 79.0966C262.605 81.3608 261.187 83.4172 259.4 85.1484C257.613 86.8796 255.493 88.2516 253.161 89.1863C250.829 90.1209 248.33 90.5998 245.807 90.5956L223.48 90.5568C223.427 90.5568 223.377 90.5359 223.34 90.4988C223.303 90.4617 223.282 90.4113 223.282 90.3589L223.352 49.6032ZM233.392 57.9274L233.354 82.0346C233.354 82.0968 233.378 82.1564 233.421 82.2007C233.465 82.245 233.524 82.2704 233.586 82.2714L243.871 82.2908C245.331 82.2934 246.777 82.0156 248.127 81.4733C249.476 80.931 250.703 80.1347 251.738 79.13C252.772 78.1253 253.593 76.9319 254.154 75.6178C254.715 74.3037 255.005 72.8947 255.007 71.4712L255.015 68.5684C255.02 65.6939 253.854 62.935 251.772 60.8986C249.691 58.8623 246.865 57.7154 243.917 57.7101L233.633 57.6907C233.601 57.6902 233.57 57.6959 233.541 57.7076C233.512 57.7192 233.485 57.7366 233.463 57.7586C233.441 57.7807 233.423 57.8069 233.411 57.8359C233.399 57.8649 233.392 57.896 233.392 57.9274Z" fill="white"/>
<path d="M278.47 49.4277H269.188C268.994 49.4277 268.836 49.5858 268.836 49.7809V90.2649C268.836 90.4599 268.994 90.618 269.188 90.618H278.47C278.664 90.618 278.822 90.4599 278.822 90.2649V49.7809C278.822 49.5858 278.664 49.4277 278.47 49.4277Z" fill="white"/>
<path d="M292.96 49.7304V81.9833C292.96 82.0667 292.994 82.1466 293.052 82.2056C293.111 82.2645 293.191 82.2976 293.274 82.2976H316.834C316.917 82.2976 316.997 82.3308 317.055 82.3897C317.114 82.4487 317.147 82.5286 317.147 82.612V90.3036C317.147 90.387 317.114 90.4669 317.055 90.5259C316.997 90.5849 316.917 90.618 316.834 90.618H283.241C283.158 90.618 283.078 90.5849 283.02 90.5259C282.961 90.4669 282.928 90.387 282.928 90.3036V49.7304C282.928 49.647 282.961 49.567 283.02 49.5081C283.078 49.4491 283.158 49.416 283.241 49.416H292.647C292.688 49.416 292.729 49.4241 292.767 49.4399C292.805 49.4557 292.839 49.4789 292.869 49.5081C292.898 49.5373 292.921 49.5719 292.937 49.6101C292.952 49.6482 292.96 49.6891 292.96 49.7304Z" fill="white"/>
<path d="M330.674 49.4238H321.292C321.112 49.4238 320.967 49.5698 320.967 49.7498V90.2959C320.967 90.476 321.112 90.6219 321.292 90.6219H330.674C330.854 90.6219 331 90.476 331 90.2959V49.7498C331 49.5698 330.854 49.4238 330.674 49.4238Z" fill="white"/>
</svg>
