<svg width="362" height="140" viewBox="0 0 362 140" fill="none" xmlns="http://www.w3.org/2000/svg">
<rect width="362" height="140" fill="#FC7323"/>
<g clip-path="url(#clip0_335_137315)">
<path d="M207.516 9.19458C203.664 9.19458 199.909 9.54482 196.271 10.2258C224.52 15.5183 245.901 38.1671 245.901 67.9569C245.901 89.1659 228.703 108.507 207.516 108.507C203.606 108.507 199.831 107.904 196.271 106.814C180.551 102.008 169.131 87.3952 169.131 70.0973C169.131 52.7994 180.551 38.1866 196.271 33.3805C192.711 32.2909 188.936 31.6877 185.026 31.6877C163.82 31.6877 146.641 51.0287 146.641 72.2376C146.641 102.047 168.022 124.676 196.271 129.969C199.909 130.65 203.664 131 207.516 131C233.586 131 255.823 114.597 264.501 91.5592V48.6354C255.823 25.5975 233.586 9.19458 207.516 9.19458Z" fill="#C1BFBC"/>
<path d="M196.272 10.2258C192.634 9.54482 188.86 9.19458 185.027 9.19458C155.825 9.19458 131.409 29.7809 125.514 57.2357C125.3 58.1502 124.482 58.8118 123.529 58.8118H93.8988C92.7899 58.8118 91.8755 59.7263 91.8755 60.8549V79.2619C91.8755 80.3904 92.7899 81.3049 93.8988 81.3049H119.93C121.058 81.3049 121.953 82.2195 121.953 83.3286V92.4737C121.953 93.4466 121.603 94.4 120.981 95.1199C113.938 103.312 103.51 108.487 91.8755 108.487C70.6693 108.487 53.4903 91.3062 53.4903 70.0973C53.4903 48.8884 70.6693 31.7072 91.8755 31.7072C97.8288 31.7072 103.471 33.0498 108.51 35.482C109.463 35.949 110.611 35.6182 111.156 34.7037L120.591 18.8067C121.195 17.7949 120.825 16.4912 119.794 15.9659C111.428 11.6463 101.934 9.19458 91.8755 9.19458C58.2568 9.19458 31 36.4549 31 70.0973C31 103.74 58.2568 131 91.8755 131C109.735 131 125.805 123.295 136.934 111.036C137.751 110.141 139.152 110.141 139.949 111.036C151.097 123.295 167.148 131 185.027 131C188.86 131 192.634 130.65 196.272 129.969C168.023 124.676 146.642 102.027 146.642 72.2376C146.642 51.0287 163.821 31.6877 185.027 31.6877C188.938 31.6877 192.712 32.2909 196.272 33.3805C211.973 38.1866 223.412 52.7994 223.412 70.0973C223.412 87.3952 211.973 102.008 196.272 106.814C199.833 107.904 203.607 108.507 207.518 108.507C228.704 108.507 245.903 89.1659 245.903 67.9569C245.903 38.1477 224.521 15.5183 196.272 10.2258ZM328.918 106.775H288.996C287.887 106.775 286.973 105.861 286.973 104.732V12.9694C286.973 11.8408 286.058 10.9458 284.949 10.9458H266.525C265.416 10.9458 264.502 11.8408 264.502 12.9694V125.202C264.502 127.439 266.311 129.249 268.549 129.249H328.918C330.047 129.249 330.961 128.334 330.961 127.225V108.799C330.961 107.67 330.047 106.775 328.918 106.775Z" fill="white"/>
</g>
<defs>
<clipPath id="clip0_335_137315">
<rect width="300" height="122" fill="white" transform="translate(31 9)"/>
</clipPath>
</defs>
</svg>
