<svg width="362" height="140" viewBox="0 0 362 140" fill="none" xmlns="http://www.w3.org/2000/svg">
<rect width="362" height="140" fill="#FFDE00"/>
<path d="M115.268 93.3984C115.268 93.4117 115.266 93.4249 115.261 93.4373C115.256 93.4496 115.248 93.4608 115.239 93.4702C115.229 93.4797 115.218 93.4872 115.206 93.4923C115.193 93.4974 115.18 93.5 115.167 93.5H31.1019C31.0749 93.5 31.049 93.4893 31.0299 93.4702C31.0107 93.4512 31 93.4253 31 93.3984V46.6016C31 46.5747 31.0107 46.5488 31.0299 46.5298C31.049 46.5107 31.0749 46.5 31.1019 46.5H115.167C115.18 46.5 115.193 46.5026 115.206 46.5077C115.218 46.5128 115.229 46.5203 115.239 46.5298C115.248 46.5392 115.256 46.5504 115.261 46.5627C115.266 46.5751 115.268 46.5883 115.268 46.6016V93.3984ZM71.5284 48.2869C71.5359 48.274 71.5398 48.2593 71.5397 48.2444C71.5397 48.2295 71.5357 48.2149 71.5281 48.202C71.5205 48.1892 71.5096 48.1786 71.4966 48.1713C71.4835 48.164 71.4688 48.1603 71.4538 48.1605H58.0653C57.9473 48.1605 57.8312 48.1917 57.7286 48.2508C57.6261 48.31 57.5408 48.3951 57.4812 48.4976L32.5114 91.6189C32.4886 91.6585 32.4767 91.7034 32.4766 91.7491C32.4766 91.7947 32.4885 91.8395 32.5112 91.8789C32.5339 91.9183 32.5665 91.951 32.6058 91.9737C32.6451 91.9963 32.6897 92.0082 32.7351 92.008H45.788C45.9163 92.008 46.0423 91.9743 46.1531 91.9103C46.264 91.8464 46.3559 91.7544 46.4194 91.6437L55.5721 75.8366C55.6364 75.7265 55.7286 75.6352 55.8394 75.5717C55.9501 75.5082 56.0757 75.4748 56.2035 75.4747H69.9499C69.9595 75.475 69.9689 75.4776 69.9772 75.4823C69.9855 75.4871 69.9923 75.4938 69.9971 75.5019C70.0019 75.5099 70.0044 75.519 70.0044 75.5281C70.0044 75.5373 70.0019 75.5462 69.9972 75.554L60.6009 91.7825C60.5878 91.8051 60.5809 91.8307 60.5809 91.8569C60.5809 91.883 60.5878 91.9086 60.6009 91.9312C60.614 91.9538 60.6328 91.9726 60.6555 91.9856C60.6782 91.9987 60.7039 92.0055 60.7301 92.0055H74.2827C74.3138 92.0055 74.3442 91.9974 74.3708 91.9822C74.3974 91.967 74.4193 91.9451 74.4343 91.9188L83.8182 75.7151C83.8613 75.6412 83.923 75.5798 83.9972 75.5372C84.0713 75.4946 84.1553 75.4722 84.2408 75.4723H100.329C100.349 75.4723 100.369 75.4804 100.383 75.4948C100.398 75.5092 100.406 75.5287 100.406 75.5491V91.9634C100.406 91.9752 100.411 91.9866 100.419 91.9949C100.427 92.0033 100.439 92.008 100.451 92.008H113.596C113.628 92.008 113.66 91.9947 113.683 91.971C113.707 91.9473 113.72 91.9151 113.72 91.8816V48.3117C113.72 48.2931 113.716 48.2748 113.709 48.2576C113.702 48.2405 113.692 48.2249 113.679 48.2118C113.666 48.1987 113.651 48.1883 113.634 48.1812C113.617 48.1741 113.599 48.1704 113.581 48.1704H100.587C100.539 48.1704 100.493 48.1892 100.459 48.2227C100.425 48.2562 100.406 48.3015 100.406 48.3489V64.4707C100.406 64.4865 100.4 64.5016 100.388 64.5128C100.377 64.5239 100.362 64.5302 100.346 64.5302H90.5671C90.54 64.5306 90.5133 64.5236 90.4897 64.5102C90.4662 64.4967 90.4466 64.4772 90.433 64.4536C90.4194 64.4299 90.4122 64.403 90.4122 64.3756C90.4121 64.3481 90.4193 64.3211 90.4329 64.2972L99.6552 48.3712C99.6674 48.3502 99.6738 48.3263 99.6738 48.3021C99.6739 48.2778 99.6676 48.254 99.6555 48.2329C99.6434 48.2119 99.626 48.1943 99.605 48.182C99.584 48.1698 99.5602 48.1632 99.5359 48.163H86.0977C86.0251 48.1629 85.9538 48.1818 85.891 48.218C85.8282 48.2541 85.776 48.3061 85.7397 48.3687L76.4876 64.3443C76.455 64.4015 76.408 64.4491 76.3512 64.4822C76.2945 64.5153 76.23 64.5327 76.1644 64.5327H62.3061C62.2875 64.5327 62.2694 64.5277 62.2533 64.5184C62.2373 64.509 62.224 64.4955 62.2147 64.4793C62.2055 64.463 62.2005 64.4446 62.2004 64.4257C62.2003 64.4068 62.205 64.3882 62.2141 64.3716L71.5284 48.2869Z" fill="#002D62"/>
<path d="M71.5283 48.2868L62.2141 64.3715C62.205 64.3881 62.2002 64.4067 62.2003 64.4256C62.2005 64.4445 62.2054 64.4629 62.2147 64.4792C62.2239 64.4954 62.2372 64.5089 62.2533 64.5183C62.2693 64.5276 62.2875 64.5326 62.306 64.5326H76.1643C76.2299 64.5326 76.2944 64.5152 76.3511 64.4821C76.4079 64.449 76.455 64.4014 76.4875 64.3442L85.7396 48.3686C85.7759 48.306 85.8281 48.254 85.8909 48.2179C85.9538 48.1817 86.025 48.1628 86.0976 48.1629H99.5358C99.5601 48.1631 99.584 48.1697 99.605 48.1819C99.6259 48.1942 99.6433 48.2118 99.6554 48.2328C99.6675 48.2539 99.6738 48.2777 99.6738 48.302C99.6737 48.3262 99.6673 48.3501 99.6551 48.3711L90.4328 64.2971C90.4192 64.321 90.4121 64.348 90.4121 64.3755C90.4121 64.4029 90.4193 64.4298 90.4329 64.4535C90.4465 64.4771 90.4661 64.4966 90.4896 64.5101C90.5132 64.5235 90.5399 64.5304 90.567 64.5301H100.346C100.362 64.5301 100.377 64.5238 100.388 64.5127C100.4 64.5015 100.406 64.4864 100.406 64.4706V48.3488C100.406 48.3014 100.425 48.2561 100.459 48.2226C100.493 48.1891 100.539 48.1703 100.587 48.1703H113.581C113.599 48.1703 113.617 48.174 113.634 48.1811C113.651 48.1882 113.666 48.1986 113.679 48.2117C113.692 48.2248 113.702 48.2404 113.709 48.2575C113.716 48.2747 113.72 48.293 113.72 48.3116V91.8815C113.72 91.915 113.707 91.9472 113.683 91.9709C113.66 91.9946 113.628 92.0079 113.595 92.0079H100.451C100.439 92.0079 100.427 92.0032 100.419 91.9948C100.411 91.9865 100.406 91.9751 100.406 91.9633V75.549C100.406 75.5286 100.398 75.5091 100.383 75.4947C100.369 75.4802 100.349 75.4722 100.329 75.4722H84.2407C84.1553 75.4721 84.0713 75.4944 83.9971 75.5371C83.9229 75.5797 83.8612 75.6411 83.8181 75.715L74.4342 91.9187C74.4193 91.945 74.3973 91.9669 74.3707 91.9821C74.3441 91.9973 74.3137 92.0054 74.2826 92.0054H60.73C60.7038 92.0054 60.6781 91.9986 60.6554 91.9855C60.6327 91.9725 60.6139 91.9537 60.6008 91.9311C60.5877 91.9085 60.5808 91.8829 60.5808 91.8568C60.5808 91.8306 60.5877 91.805 60.6008 91.7824L69.9971 75.5539C70.0019 75.5461 70.0044 75.5372 70.0044 75.528C70.0043 75.5189 70.0018 75.5098 69.997 75.5018C69.9923 75.4937 69.9854 75.487 69.9771 75.4822C69.9688 75.4775 69.9594 75.4748 69.9498 75.4746H56.2034C56.0756 75.4746 55.9501 75.5081 55.8393 75.5716C55.7285 75.6351 55.6363 75.7264 55.572 75.8365L46.4193 91.6436C46.3558 91.7543 46.2639 91.8463 46.153 91.9102C46.0422 91.9742 45.9162 92.0079 45.7879 92.0079H32.735C32.6896 92.0081 32.645 91.9962 32.6057 91.9736C32.5664 91.9509 32.5338 91.9182 32.5111 91.8788C32.4885 91.8394 32.4765 91.7946 32.4766 91.7489C32.4766 91.7033 32.4886 91.6584 32.5113 91.6188L57.4811 48.4975C57.5407 48.395 57.626 48.3099 57.7286 48.2507C57.8311 48.1916 57.9472 48.1604 58.0653 48.1604H71.4538C71.4687 48.1602 71.4835 48.1639 71.4965 48.1712C71.5095 48.1785 71.5204 48.1891 71.528 48.2019C71.5356 48.2148 71.5396 48.2294 71.5397 48.2443C71.5397 48.2592 71.5358 48.2739 71.5283 48.2868Z" fill="#FFDE00"/>
<path d="M215.144 59.3777C216.919 59.3802 218.604 59.6726 220.158 60.3244C224.016 61.9403 226.158 64.8814 226.583 69.1475C226.587 69.1756 226.588 69.4771 226.586 70.0521C226.586 70.6271 226.584 70.9278 226.581 70.9542C226.143 75.2203 223.993 78.1556 220.13 79.7599C218.574 80.4068 216.891 80.6942 215.114 80.6918C213.339 80.6918 211.656 80.3993 210.103 79.7475C206.243 78.1316 204.1 75.1906 203.674 70.9245C203.673 70.8964 203.672 70.5948 203.672 70.0199C203.674 69.4449 203.675 69.1433 203.677 69.1153C204.114 64.8508 206.265 61.9164 210.127 60.3121C211.684 59.6652 213.369 59.3752 215.144 59.3777ZM211.308 70.29C211.398 72.5205 212.949 74.0472 215.199 74.1389C215.228 74.1406 215.259 74.1406 215.29 74.1389C215.32 74.1373 215.35 74.1348 215.38 74.1315C217.615 73.8589 219.037 72.2132 218.947 69.9827C218.855 67.7521 217.306 66.2255 215.057 66.1338C215.025 66.1321 214.995 66.1321 214.965 66.1338C214.935 66.1338 214.904 66.1362 214.873 66.1412C212.638 66.4138 211.219 68.0595 211.308 70.29Z" fill="#002D62"/>
<path d="M132.967 66.5748C134.124 66.5748 134.838 66.5739 135.11 66.5723C135.125 66.5723 135.141 66.5692 135.155 66.5632C135.169 66.5573 135.182 66.5485 135.193 66.5374C135.204 66.5264 135.212 66.5133 135.218 66.4989C135.224 66.4844 135.227 66.4689 135.227 66.4533V59.836C135.227 59.7835 135.248 59.733 135.286 59.6958C135.324 59.6587 135.375 59.6378 135.428 59.6378H142.376C142.424 59.6378 142.47 59.6568 142.504 59.6908C142.538 59.7247 142.558 59.7707 142.558 59.8187V80.1513C142.558 80.2078 142.535 80.2621 142.495 80.302C142.455 80.342 142.4 80.3645 142.344 80.3645H135.443C135.385 80.3645 135.33 80.3412 135.289 80.2999C135.247 80.2585 135.224 80.2024 135.224 80.1439V73.2912C135.224 73.2609 135.212 73.2319 135.19 73.2106C135.168 73.1892 135.139 73.1772 135.108 73.1772C134.493 73.1772 133.779 73.1763 132.965 73.1747C132.151 73.1747 131.436 73.1747 130.82 73.1747C130.804 73.175 130.789 73.1783 130.775 73.1843C130.761 73.1903 130.748 73.199 130.738 73.2098C130.727 73.2206 130.719 73.2334 130.713 73.2473C130.708 73.2613 130.705 73.2762 130.705 73.2912L130.7 80.1439C130.7 80.202 130.676 80.2574 130.635 80.2983C130.594 80.3391 130.539 80.362 130.482 80.362L123.581 80.3595C123.524 80.3595 123.47 80.337 123.43 80.2971C123.39 80.2571 123.367 80.2029 123.367 80.1464L123.38 59.8137C123.38 59.7658 123.399 59.7197 123.433 59.6858C123.467 59.6519 123.513 59.6328 123.561 59.6328L130.509 59.6353C130.536 59.6353 130.562 59.6405 130.587 59.6506C130.611 59.6607 130.633 59.6756 130.652 59.6942C130.671 59.7129 130.686 59.7351 130.696 59.7594C130.706 59.7837 130.711 59.8098 130.71 59.836L130.705 66.4533C130.706 66.4844 130.718 66.5141 130.74 66.5359C130.762 66.5576 130.792 66.5698 130.822 66.5698C131.094 66.5731 131.809 66.5748 132.967 66.5748Z" fill="#002D62"/>
<path d="M154.111 59.6354C156.592 59.6272 157.947 59.6354 158.178 59.6602C158.215 59.6637 158.251 59.6779 158.281 59.7012C158.311 59.7244 158.334 59.7558 158.347 59.7916L165.605 80.1044C165.615 80.1309 165.618 80.1593 165.614 80.1873C165.61 80.2152 165.599 80.2418 165.583 80.2649C165.566 80.288 165.544 80.3068 165.519 80.3199C165.493 80.3329 165.465 80.3397 165.436 80.3398H157.832C157.777 80.3399 157.723 80.3214 157.679 80.2874C157.635 80.2533 157.603 80.2055 157.589 80.1515L157.005 77.916C156.994 77.8754 156.97 77.8394 156.938 77.8135C156.905 77.7876 156.865 77.7731 156.823 77.7722C156.619 77.7672 155.735 77.7672 154.171 77.7722C152.605 77.7772 151.72 77.7829 151.516 77.7896C151.474 77.7904 151.434 77.8049 151.401 77.8309C151.369 77.8568 151.345 77.8927 151.334 77.9333L150.765 80.1738C150.751 80.2274 150.72 80.2749 150.676 80.3089C150.633 80.3429 150.579 80.3616 150.524 80.3621L142.92 80.4117C142.891 80.412 142.863 80.4055 142.837 80.3926C142.811 80.3797 142.789 80.3609 142.772 80.3378C142.755 80.3147 142.744 80.2879 142.74 80.2597C142.736 80.2316 142.739 80.203 142.749 80.1762L149.878 59.8188C149.89 59.7829 149.912 59.7513 149.942 59.7276C149.971 59.7039 150.007 59.6891 150.044 59.685C150.275 59.6602 151.63 59.6437 154.111 59.6354ZM155.6 72.632C155.539 72.333 155.261 71.2152 154.767 69.2788C154.658 68.8509 154.57 68.4163 154.504 67.9752C154.385 67.1689 154.309 66.7195 154.278 66.6269C154.272 66.6115 154.263 66.598 154.25 66.588C154.237 66.5781 154.221 66.5722 154.205 66.5711C154.189 66.5701 154.173 66.5739 154.159 66.582C154.144 66.5902 154.133 66.6024 154.126 66.617C153.982 66.8847 153.908 67.0797 153.905 67.2019C153.895 67.4316 153.875 67.6051 153.845 67.7224C153.699 68.2974 153.337 69.938 152.759 72.6444C152.755 72.6596 152.756 72.6754 152.759 72.6905C152.763 72.7057 152.77 72.7198 152.779 72.732C152.789 72.7441 152.802 72.7539 152.816 72.7606C152.83 72.7673 152.845 72.7708 152.861 72.7708H155.486C155.503 72.7708 155.52 72.7669 155.535 72.7596C155.551 72.7522 155.565 72.7416 155.576 72.7283C155.587 72.715 155.594 72.6995 155.599 72.6829C155.603 72.6662 155.603 72.6489 155.6 72.632Z" fill="#002D62"/>
<path d="M173.472 73.8242C173.468 73.8161 173.461 73.8096 173.453 73.8057C173.444 73.8018 173.435 73.8008 173.426 73.8028C173.417 73.8047 173.409 73.8096 173.403 73.8166C173.397 73.8236 173.393 73.8324 173.393 73.8416V80.0722C173.393 80.1103 173.385 80.148 173.371 80.1832C173.356 80.2184 173.335 80.2503 173.308 80.2773C173.281 80.3042 173.248 80.3255 173.213 80.3401C173.178 80.3547 173.14 80.3622 173.102 80.3622H166.012C165.996 80.3622 165.981 80.359 165.966 80.3529C165.951 80.3468 165.938 80.3379 165.926 80.3266C165.915 80.3153 165.906 80.302 165.9 80.2872C165.894 80.2725 165.891 80.2567 165.891 80.2408V59.7768C165.891 59.7393 165.906 59.7034 165.932 59.6769C165.959 59.6504 165.995 59.6355 166.032 59.6355H175.57C175.672 59.6355 175.773 59.6506 175.869 59.6801C176.124 59.7611 176.414 59.7825 176.739 59.7445C176.823 59.7347 176.907 59.738 176.99 59.7545C177.515 59.8536 178.03 59.9643 178.536 60.0866C179.746 60.3807 180.785 60.9276 181.653 61.7273C182.548 62.555 183.148 63.5546 183.453 64.7261C183.821 66.1454 183.802 67.5985 183.396 69.0856C183.106 70.1529 182.466 70.9435 181.477 71.4574C180.888 71.763 180.51 71.958 180.343 72.0423C180.291 72.0682 180.232 72.0785 180.174 72.072C180.018 72.0555 179.886 72.1282 179.776 72.2901C179.766 72.3044 179.76 72.3206 179.756 72.3377C179.753 72.3547 179.753 72.3724 179.757 72.3895C179.761 72.4066 179.768 72.4229 179.778 72.4373C179.788 72.4518 179.801 72.4641 179.816 72.4735C180.267 72.7527 180.622 73.0898 180.882 73.4847C182.472 75.9102 183.933 78.0804 185.267 79.9954C185.277 80.0095 185.291 80.0201 185.307 80.0256C185.323 80.0311 185.34 80.0313 185.356 80.026C185.373 80.0208 185.387 80.0104 185.398 79.9964C185.408 79.9824 185.414 79.9656 185.414 79.9483V59.9255C185.414 59.8486 185.445 59.7748 185.5 59.7204C185.555 59.666 185.63 59.6355 185.707 59.6355H195.116C195.141 59.6355 195.164 59.6415 195.183 59.6528C195.319 59.7289 195.63 59.7652 196.115 59.7619C196.835 59.7553 197.693 59.9222 198.691 60.2625C200.205 60.7797 201.256 61.6719 201.843 62.9392C202.305 63.9338 202.399 65.2507 202.124 66.8897C202.112 66.9558 202.06 67.0682 201.967 67.2268C201.858 67.4151 201.816 67.5316 201.843 67.5762C201.852 67.5928 201.857 67.6111 201.859 67.6299C201.86 67.6487 201.857 67.6675 201.851 67.685C201.844 67.7025 201.834 67.7183 201.82 67.7312C201.807 67.7441 201.791 67.7538 201.773 67.7596C201.672 67.796 201.587 67.8992 201.517 68.0694C201.216 68.7956 200.379 69.3309 199.65 69.5465C199.637 69.5502 199.624 69.5579 199.616 69.5688C199.607 69.5796 199.601 69.593 199.6 69.6072C199.599 69.6214 199.602 69.6358 199.61 69.6484C199.617 69.661 199.627 69.6713 199.64 69.6779L201.112 70.3793C201.179 70.4119 201.237 70.4595 201.281 70.5181C201.457 70.7494 201.627 70.9022 201.793 70.9766C201.869 71.0107 201.936 71.0655 201.984 71.1352C202.612 72.0241 202.969 72.6462 203.053 73.0014C203.622 75.3988 203.074 77.2964 201.41 78.6942C200.885 79.1354 200.242 79.4807 199.481 79.7302C198.537 80.0408 197.825 80.2077 197.346 80.2308C196.981 80.2474 196.714 80.2746 196.545 80.3126C196.502 80.3223 196.459 80.3318 196.42 80.3402C196.382 80.3486 196.349 80.3556 196.325 80.3606C196.301 80.3656 196.287 80.3683 196.284 80.3686C196.281 80.3689 196.288 80.3667 196.307 80.3622C188.674 80.3655 182.197 80.3663 176.875 80.3647C176.835 80.3645 176.796 80.3531 176.761 80.3316C176.727 80.3102 176.699 80.2796 176.681 80.2432L173.472 73.8242ZM195.265 66.8228C195.239 66.7914 195.225 66.765 195.223 66.7435C195.222 66.7418 195.222 66.7398 195.222 66.7377C195.222 66.7356 195.222 66.7333 195.223 66.7311C195.54 65.8405 195.338 65.2085 194.619 64.8351C194.556 64.8037 194.444 64.7814 194.283 64.7682C194.081 64.75 193.969 64.7426 193.945 64.7459C193.85 64.7589 193.754 64.7505 193.664 64.7211C193.35 64.6137 192.988 64.5956 192.581 64.6666C192.535 64.6742 192.494 64.6976 192.465 64.7325C192.435 64.7675 192.419 64.8117 192.419 64.8574V67.425C192.419 67.4619 192.433 67.4974 192.459 67.5241C192.484 67.5509 192.519 67.5669 192.556 67.5688C193.592 67.6184 194.577 67.6407 195.265 66.8773C195.272 66.87 195.276 66.8602 195.276 66.8501C195.276 66.8399 195.272 66.8302 195.265 66.8228ZM173.522 68.7435C174.387 68.8427 175.144 68.7014 175.792 68.3197C175.857 68.2807 175.911 68.2271 175.948 68.1636C176.169 67.7902 176.28 67.4911 176.281 67.2664C176.285 66.779 176.211 66.4097 176.06 66.1586C175.553 65.306 174.494 65.3457 173.524 65.3853C173.488 65.3866 173.454 65.4018 173.429 65.4277C173.404 65.4536 173.39 65.4882 173.39 65.5241V68.5948C173.39 68.6315 173.403 68.6669 173.428 68.6943C173.452 68.7217 173.486 68.7393 173.522 68.7435ZM192.417 72.1414L192.426 75.2245C192.427 75.2589 192.441 75.2917 192.466 75.3158C192.491 75.3399 192.524 75.3534 192.558 75.3534L194.027 75.3484C194.61 75.3464 195.168 75.1899 195.58 74.9134C195.991 74.6369 196.221 74.2629 196.22 73.8738V73.4624C196.219 73.2697 196.162 73.0791 196.051 72.9014C195.94 72.7238 195.777 72.5626 195.573 72.4271C195.368 72.2915 195.126 72.1842 194.859 72.1114C194.592 72.0386 194.306 72.0016 194.017 72.0026L192.548 72.0076C192.531 72.0076 192.513 72.011 192.497 72.0178C192.481 72.0246 192.467 72.0345 192.454 72.0469C192.442 72.0594 192.432 72.0742 192.426 72.0904C192.419 72.1066 192.416 72.1239 192.417 72.1414Z" fill="#002D62"/>
<path d="M237.444 74.1241C238.082 74.1241 238.488 74.196 238.94 73.6036C239.397 73.0088 239.469 72.3843 239.469 71.5714C239.468 66.7154 239.466 62.7847 239.464 59.7792C239.464 59.7411 239.48 59.7046 239.507 59.6776C239.534 59.6506 239.57 59.6355 239.609 59.6355H246.954C246.994 59.6355 247.033 59.6514 247.061 59.6798C247.09 59.7081 247.106 59.7466 247.106 59.7867C247.106 61.9049 247.105 65.8455 247.103 71.6086C247.103 71.6829 247.054 72.2612 246.954 73.3434C246.888 74.0754 246.787 74.647 246.651 75.0585C246.406 75.802 246.079 76.5017 245.672 77.1576C245.178 77.9491 244.524 78.5943 243.71 79.0933C242.698 79.7129 241.605 80.1548 240.431 80.4192C240.057 80.5035 239.793 80.5291 239.641 80.496C239.581 80.4818 239.519 80.4843 239.462 80.5035C238.977 80.6546 238.408 80.6571 237.444 80.6571C236.482 80.6571 235.91 80.6546 235.428 80.5035C235.37 80.4839 235.307 80.4813 235.246 80.496C235.094 80.5291 234.83 80.5035 234.456 80.4192C233.282 80.1548 232.189 79.7129 231.177 79.0933C230.363 78.5943 229.709 77.9491 229.216 77.1576C228.808 76.5017 228.481 75.802 228.236 75.0585C228.1 74.647 227.999 74.0754 227.933 73.3434C227.833 72.2612 227.784 71.6829 227.784 71.6086C227.782 65.8455 227.781 61.9049 227.781 59.7867C227.781 59.7466 227.797 59.7081 227.826 59.6798C227.854 59.6514 227.893 59.6355 227.933 59.6355H235.278C235.297 59.6355 235.316 59.6392 235.334 59.6464C235.351 59.6537 235.367 59.6643 235.38 59.6776C235.394 59.6909 235.404 59.7068 235.412 59.7242C235.419 59.7417 235.423 59.7604 235.423 59.7792C235.421 62.7847 235.419 66.7154 235.418 71.5714C235.418 72.3843 235.49 73.0088 235.947 73.6036C236.402 74.196 236.805 74.1241 237.444 74.1241Z" fill="#002D62"/>
<path d="M262.909 72.3917C263.08 72.6098 263.29 72.7717 263.54 72.8775C263.596 72.9018 263.642 72.9405 263.675 72.989L268.51 80.1416C268.524 80.1628 268.532 80.1875 268.534 80.2131C268.535 80.2387 268.53 80.2642 268.518 80.2869C268.506 80.3096 268.488 80.3285 268.466 80.3418C268.444 80.3551 268.418 80.3621 268.393 80.3622H260.063C260.008 80.3623 259.955 80.3472 259.909 80.3188C259.863 80.2903 259.826 80.2495 259.802 80.2011L256.618 73.8317C256.609 73.8158 256.595 73.8032 256.579 73.7959C256.562 73.7886 256.544 73.7869 256.526 73.7912C256.509 73.7954 256.493 73.8053 256.482 73.8194C256.47 73.8334 256.464 73.8508 256.463 73.8688V80.216C256.463 80.2554 256.448 80.2932 256.42 80.3211C256.392 80.349 256.354 80.3647 256.314 80.3647H249.359C249.277 80.3647 249.199 80.3323 249.141 80.2747C249.083 80.217 249.051 80.1389 249.051 80.0573V59.9379C249.051 59.8577 249.083 59.7808 249.14 59.7241C249.196 59.6674 249.274 59.6355 249.354 59.6355H258.735C258.793 59.6355 258.85 59.6491 258.902 59.6752C259.045 59.7462 259.186 59.7751 259.327 59.7619C259.995 59.6958 260.552 59.7652 260.998 59.9701C261.08 60.007 261.171 60.0166 261.259 59.9973C261.433 59.9577 261.621 60.0048 261.823 60.1386C261.967 60.2361 262.088 60.27 262.186 60.2402C262.27 60.2154 262.356 60.2402 262.444 60.3146C262.506 60.3674 262.587 60.4129 262.688 60.4509C264.315 61.0721 265.516 62.1791 266.29 63.7719C266.316 63.8263 266.337 63.8836 266.352 63.9429L266.745 65.5043C266.748 65.5175 266.75 65.5308 266.75 65.544L266.74 66.3246C266.74 66.359 266.746 66.3935 266.76 66.4263C266.895 66.7468 266.905 67.0426 266.787 67.3135C266.749 67.3999 266.733 67.4934 266.74 67.5861C266.791 68.2536 266.649 68.9749 266.315 69.7498C266.285 69.8184 266.243 69.8799 266.19 69.9307C266.015 70.0992 265.835 70.3454 265.651 70.6692C265.613 70.733 265.562 70.7879 265.502 70.8303L264.241 71.7102C264.227 71.72 264.212 71.7275 264.197 71.7325L262.964 72.1959C262.945 72.203 262.929 72.2143 262.915 72.2289C262.902 72.2435 262.892 72.261 262.887 72.2801C262.882 72.2991 262.881 72.3191 262.885 72.3385C262.889 72.3579 262.897 72.3761 262.909 72.3917ZM256.468 65.482L256.458 68.6494C256.458 68.6757 256.469 68.7009 256.488 68.7195C256.506 68.7381 256.532 68.7485 256.558 68.7485L257.801 68.7535C258.005 68.7542 258.208 68.7179 258.397 68.6468C258.586 68.5757 258.758 68.4711 258.903 68.339C259.048 68.2069 259.163 68.0499 259.242 67.8769C259.32 67.7039 259.361 67.5184 259.362 67.3309V66.8203C259.363 66.4418 259.2 66.0782 258.909 65.8096C258.619 65.541 258.223 65.3892 257.811 65.3878L256.568 65.3829C256.541 65.3829 256.516 65.3933 256.498 65.4119C256.479 65.4305 256.468 65.4557 256.468 65.482Z" fill="#002D62"/>
<path d="M276.491 80.2629L277.744 76.7535C277.744 76.7502 277.744 76.7469 277.744 76.7436C277.732 76.5866 277.786 76.4354 277.905 76.29C278.094 76.0645 277.9 75.8712 278.112 75.6159C278.203 75.5085 278.249 75.3491 278.251 75.1376C278.253 74.9765 278.465 74.7038 278.532 74.4882C278.901 73.2953 279.291 72.1949 279.7 71.187C279.723 71.1331 279.734 71.0756 279.732 71.0185C279.727 70.6988 280.041 70.5352 279.986 70.2477C279.964 70.1453 280.006 70.0296 280.11 69.9008C280.201 69.7851 280.244 69.6356 280.24 69.4522C280.235 69.301 280.426 69.0507 280.496 68.845C280.622 68.4749 280.908 67.6107 281.356 66.2526C281.443 65.9833 281.547 65.7602 281.666 65.5834C281.713 65.5149 281.731 65.4309 281.719 65.348C281.697 65.2191 281.743 65.0786 281.858 64.9266C282.067 64.654 281.878 64.4359 282.124 64.1559C282.205 64.0617 282.238 63.9444 282.223 63.8039C282.203 63.623 282.457 63.2587 282.536 63.0109C282.942 61.732 283.3 60.6837 283.608 59.8658C283.621 59.8308 283.644 59.8007 283.674 59.7794C283.705 59.7582 283.74 59.7468 283.777 59.7468H291.836C291.874 59.7468 291.911 59.7565 291.945 59.7751C291.978 59.7938 292.007 59.8207 292.027 59.8534C292.213 60.1359 292.32 60.3904 292.35 60.6167C292.388 60.8794 292.631 61.1471 292.604 61.3008C292.562 61.5486 292.765 61.7964 292.872 61.9997C292.882 62.0178 292.891 62.0369 292.9 62.0567L299.375 80.3149C299.379 80.3256 299.38 80.3369 299.378 80.348C299.376 80.3591 299.372 80.3697 299.365 80.3788C299.359 80.388 299.35 80.3955 299.34 80.4008C299.33 80.406 299.319 80.4089 299.308 80.4091H291.393C291.378 80.4093 291.364 80.4061 291.35 80.3996C291.337 80.3931 291.325 80.3835 291.316 80.3717C291.307 80.3598 291.301 80.3461 291.299 80.3314C291.296 80.3168 291.297 80.3018 291.301 80.2876C291.334 80.1687 291.331 80.072 291.291 79.9977C291.25 79.922 291.219 79.8445 291.199 79.7672L290.759 78.0075C290.751 77.9723 290.731 77.941 290.703 77.9185C290.674 77.896 290.639 77.8837 290.603 77.8836H285.211C285.171 77.8837 285.132 77.8973 285.101 77.922C285.07 77.9468 285.048 77.9814 285.04 78.0199L284.54 80.248C284.53 80.2935 284.505 80.3343 284.469 80.3636C284.433 80.3929 284.388 80.409 284.341 80.4091H276.593C276.575 80.4089 276.558 80.4046 276.543 80.3965C276.527 80.3883 276.514 80.3766 276.504 80.3623C276.494 80.3479 276.488 80.3314 276.485 80.3141C276.483 80.2968 276.485 80.2793 276.491 80.2629ZM287.898 72.8847C288.722 72.8831 289.169 72.8789 289.241 72.8723C289.263 72.8701 289.285 72.8621 289.303 72.8491C289.322 72.8361 289.337 72.8185 289.347 72.798C289.356 72.7776 289.361 72.755 289.359 72.7324C289.357 72.7098 289.35 72.688 289.338 72.6691C289.121 72.3568 289.186 72.0916 289.104 71.7571C288.665 69.9693 288.297 68.2915 288 66.7235C287.984 66.6359 287.945 66.5921 287.886 66.5921C287.828 66.5921 287.791 66.6359 287.774 66.7235C287.482 68.2931 287.12 69.9726 286.688 71.762C286.606 72.0966 286.673 72.3618 286.456 72.6741C286.444 72.6929 286.437 72.7147 286.435 72.7373C286.433 72.7599 286.438 72.7825 286.447 72.803C286.457 72.8234 286.472 72.841 286.491 72.854C286.509 72.8671 286.531 72.8751 286.553 72.8773C286.626 72.8839 287.075 72.8864 287.898 72.8847Z" fill="#002D62"/>
<path d="M308.674 59.7495H301.287C301.243 59.7495 301.207 59.785 301.207 59.8288V80.33C301.207 80.3738 301.243 80.4093 301.287 80.4093H308.674C308.718 80.4093 308.754 80.3738 308.754 80.33V59.8288C308.754 59.785 308.718 59.7495 308.674 59.7495Z" fill="#002D62"/>
<path d="M311.668 59.742C314.427 59.7535 317.634 59.7544 321.288 59.7445C322.061 59.7445 322.916 59.913 323.483 60.0096C325.283 60.312 326.792 61.1588 328.01 62.55C328.112 62.6656 328.323 63.0374 328.641 63.6652C328.861 64.0981 329.011 64.4972 329.088 64.8623C329.262 65.6636 329.33 66.5922 329.292 67.648C329.223 69.6291 328.329 71.0236 326.613 71.8315C326.26 71.9976 325.892 72.0744 325.496 72.2677C325.467 72.282 325.442 72.3042 325.424 72.3318C325.406 72.3593 325.396 72.3913 325.396 72.4241C325.395 72.4568 325.403 72.4892 325.42 72.5176C325.436 72.5459 325.46 72.5693 325.489 72.5849C325.958 72.8344 326.309 73.1839 326.543 73.6333C326.614 73.7704 326.71 73.91 326.829 74.0521C326.85 74.0769 328.236 76.1439 330.985 80.253C330.995 80.2684 331.001 80.2861 331.001 80.3043C331.002 80.3225 330.998 80.3406 330.99 80.3565C330.982 80.3725 330.969 80.3858 330.954 80.3951C330.938 80.4044 330.921 80.4092 330.903 80.4092H322.451C322.409 80.4093 322.367 80.3975 322.331 80.3752C322.295 80.3528 322.266 80.3208 322.248 80.2828L319.071 73.9282C319.065 73.9139 319.054 73.9022 319.04 73.8951C319.027 73.8881 319.011 73.8862 318.996 73.8898C318.981 73.8934 318.967 73.9022 318.958 73.9147C318.949 73.9273 318.945 73.9426 318.946 73.958V80.32C318.946 80.3436 318.937 80.3663 318.92 80.3831C318.903 80.3998 318.881 80.4092 318.857 80.4092H311.7C311.663 80.4092 311.627 80.3943 311.6 80.3678C311.574 80.3413 311.559 80.3054 311.559 80.2679V59.851C311.559 59.8365 311.561 59.8221 311.567 59.8087C311.572 59.7953 311.581 59.7832 311.591 59.773C311.601 59.7629 311.613 59.7549 311.626 59.7495C311.64 59.7442 311.654 59.7416 311.668 59.742ZM318.944 65.6207L318.954 68.6939C318.954 68.7206 318.959 68.747 318.969 68.7717C318.98 68.7963 318.995 68.8187 319.014 68.8376C319.032 68.8565 319.055 68.8714 319.08 68.8816C319.104 68.8918 319.131 68.8971 319.158 68.8971L320.005 68.8946C320.253 68.8938 320.499 68.8527 320.727 68.7737C320.956 68.6946 321.164 68.5792 321.339 68.434C321.513 68.2887 321.652 68.1165 321.746 67.9272C321.84 67.738 321.888 67.5353 321.887 67.3308V66.964C321.885 66.5514 321.685 66.1565 321.33 65.866C320.976 65.5756 320.495 65.4133 319.995 65.415L319.148 65.4175C319.121 65.4175 319.094 65.4227 319.07 65.4329C319.045 65.4431 319.023 65.4581 319.004 65.477C318.985 65.4959 318.97 65.5183 318.959 65.5429C318.949 65.5676 318.944 65.594 318.944 65.6207Z" fill="#002D62"/>
</svg>
