<svg width="362" height="140" viewBox="0 0 362 140" fill="none" xmlns="http://www.w3.org/2000/svg">
<rect width="362" height="140" fill="#003D79"/>
<g clip-path="url(#clip0_1539_146857)">
<path d="M86.7099 88.1013L59.9199 75.2571V47L86.7099 88.1013ZM88.8399 93L59.9199 80.8429V93H88.8399Z" fill="#98002E"/>
<path d="M33.1309 88.1013L59.9209 47V75.2571L33.1309 88.1013Z" fill="#E31837"/>
<path d="M31 92.9999H59.92V80.8428L31 92.9999Z" fill="#E31837"/>
<path d="M91.1791 84.5767C92.2291 84.5767 93.0991 85.413 93.0991 86.4585C93.0991 87.5039 92.2591 88.3702 91.2091 88.3702C90.1591 88.3702 89.2891 87.5338 89.2891 86.4883C89.2891 85.413 90.1291 84.5767 91.1791 84.5767ZM91.1791 88.0715C92.0791 88.0715 92.7991 87.3546 92.7991 86.4585C92.7991 85.5624 92.0791 84.8455 91.1791 84.8455C90.2791 84.8455 89.5591 85.5624 89.5591 86.4585C89.5591 87.3546 90.2791 88.0715 91.1791 88.0715ZM90.7591 87.5637H90.4891V85.3832H91.3291C91.8391 85.3832 92.0191 85.5922 92.0191 85.9806C92.0491 86.3091 91.7791 86.578 91.4791 86.6078L92.1391 87.5637H91.8391L91.1791 86.6078H90.7891L90.7591 87.5637ZM90.7591 86.339H91.1191C91.4191 86.339 91.7491 86.3091 91.7491 85.9507C91.7491 85.6819 91.4791 85.5922 91.2691 85.5922H90.7891V86.339H90.7591Z" fill="#98002E"/>
<path d="M111.43 88.1013H124.42C137.8 88.1013 145.75 81.2013 145.75 69.7611C145.75 58.3208 137.8 51.4507 124.42 51.4507H111.43V88.1013ZM119.65 57.813H124.42C133.09 57.813 137.44 62.0844 137.44 69.7611C137.44 77.4377 133.09 81.7091 124.42 81.7091H119.65V57.813Z" fill="white"/>
<path d="M173.709 72.2104H189.339V65.8481H173.709V57.813H191.379V51.4507H165.459V88.1013H191.949V81.739H173.709V72.2104Z" fill="white"/>
<path d="M238.809 81.739H222.939V51.4507H214.689V88.1013H238.809V81.739Z" fill="white"/>
<path d="M283.21 51.4507H250.18V57.813H262.54V88.1013H270.82V57.813H283.21V51.4507Z" fill="white"/>
<path d="M331 88.1013H322.39L318.79 78.9311H303.82L300.22 88.1013H292.18L307.57 51.3013H315.88L331 88.1013ZM316.45 72.7779L311.32 59.7545L306.16 72.7779H316.45Z" fill="white"/>
</g>
<defs>
<clipPath id="clip0_1539_146857">
<rect width="300" height="46" fill="white" transform="translate(31 47)"/>
</clipPath>
</defs>
</svg>
