<svg width="362" height="140" viewBox="0 0 362 140" fill="none" xmlns="http://www.w3.org/2000/svg">
<rect width="362" height="140" fill="#041E42"/>
<path d="M73.8242 125.041L79.5471 111.047H82.7738L88.517 125.041H85.3512L84.2147 122.109H78.1062L76.9901 125.041H73.8242ZM83.2609 119.48L81.1706 114.121L79.06 119.48H83.2609Z" fill="#3E5266"/>
<path d="M105.156 125.041V111.047H108.16V125.041H105.156Z" fill="#3E5266"/>
<path d="M134.685 125.041L131.844 120.511H129.328V125.041H126.324V111.047H132.088C133.901 111.047 135.287 111.472 136.248 112.321C137.209 113.157 137.689 114.323 137.689 115.819V115.84C137.689 116.918 137.439 117.822 136.938 118.55C136.437 119.264 135.7 119.79 134.726 120.127L138.034 125.041H134.685ZM129.328 113.737V117.943H132.088C132.899 117.943 133.535 117.788 133.995 117.478C134.455 117.154 134.685 116.608 134.685 115.84V115.819C134.685 115.078 134.455 114.545 133.995 114.222C133.535 113.898 132.899 113.737 132.088 113.737H129.328Z" fill="#3E5266"/>
<path d="M158.265 111.047V122.169H165.429V125.041H155.262V111.047H158.265Z" fill="#3E5266"/>
<path d="M182.559 125.041V111.047H185.562V125.041H182.559Z" fill="#3E5266"/>
<path d="M213.18 111.047H216.102V125.041H213.443L206.645 116.163V125.041H203.723V111.047H206.381L213.18 119.945V111.047Z" fill="#3E5266"/>
<path d="M243.844 111.047V113.838H237.269V116.669H243.073V119.46H237.269V122.25H243.844V125.041H234.266V111.047H243.844Z" fill="#3E5266"/>
<path d="M270.247 114.93C269.773 114.418 269.259 114.047 268.704 113.818C268.149 113.575 267.487 113.454 266.715 113.454H266.695C265.883 113.454 265.241 113.575 264.767 113.818C264.307 114.061 264.077 114.398 264.077 114.829C264.077 115.139 264.199 115.409 264.442 115.638C264.7 115.867 265.214 116.063 265.985 116.224L268.704 116.831C269.394 116.979 269.962 117.202 270.409 117.498C270.869 117.795 271.227 118.139 271.484 118.53C271.755 118.907 271.938 119.325 272.032 119.784C272.141 120.229 272.195 120.687 272.195 121.159C272.195 121.806 272.053 122.386 271.769 122.898C271.498 123.41 271.119 123.848 270.632 124.213C270.145 124.563 269.563 124.833 268.887 125.021C268.21 125.197 267.466 125.284 266.654 125.284H266.634C265.132 125.284 263.861 125.035 262.819 124.536C261.791 124.024 261.006 123.262 260.465 122.251L262.92 120.471C263.38 121.294 263.922 121.86 264.544 122.17C265.166 122.48 265.883 122.635 266.695 122.635H266.715C267.514 122.635 268.116 122.5 268.522 122.231C268.941 121.948 269.151 121.563 269.151 121.078C269.151 120.283 268.576 119.743 267.426 119.46L264.3 118.692C263.137 118.409 262.305 117.93 261.804 117.256C261.304 116.582 261.053 115.813 261.053 114.95C261.053 114.263 261.189 113.663 261.459 113.151C261.743 112.638 262.136 112.207 262.636 111.856C263.15 111.506 263.759 111.243 264.463 111.068C265.18 110.892 265.964 110.805 266.817 110.805H266.837C267.947 110.805 268.934 110.966 269.8 111.29C270.679 111.614 271.41 112.092 271.992 112.726L270.247 114.93Z" fill="#3E5266"/>
<path d="M177.765 14.2276C161.495 14.2276 145.845 25.3559 145.845 43.0361C145.845 53.8199 155.464 57.9788 164.692 60.5842C182.328 65.5636 181.229 68.6095 181.229 70.2831C181.229 77.5334 173.943 78.7077 169.105 78.7077C161.172 78.7077 157.51 76.4739 153.021 74.1871C152.998 74.2241 152.976 74.2635 152.955 74.3039C160.927 79.6987 168.592 85.3567 188.534 86.47C188.56 86.4577 188.585 86.4454 188.611 86.4337C195.807 81.3824 200.469 75.3857 200.362 67.1609C200.202 54.8683 189.037 49.1751 177.135 46.0492C166.583 43.278 163.429 41.7722 163.429 37.3893C163.429 31.7919 169.304 29.3382 174.977 29.3691C182.846 29.4119 188.119 33.024 193.407 36.9825L204.663 24.1383C197.798 17.4645 189.463 14.2276 177.765 14.2276ZM78.219 15.7111L77.7524 18.6171C83.6652 20.1783 85.5942 22.0028 84.5646 27.4019L72.3867 91.2658H89.1608L93.5271 68.3669H105.106C128.044 68.3669 142.141 55.1855 142.141 36.6338C142.141 25.6293 136.065 15.7111 116.479 15.7111H78.219ZM228.903 15.7111L228.305 18.3168C230.511 18.3658 234.641 20.858 234.641 23.3246C234.641 25.0518 233.881 26.6858 232.716 28.3229L196.54 86.6648C201.65 86.6463 207.435 86.3759 214.026 85.8051L214.126 85.6366L220.749 74.4693H251.03C257.027 71.423 262.403 68.0668 267.302 64.4728L255.6 15.7112L228.903 15.7111ZM100.664 30.9383H113.038C121.067 30.9383 124.983 34.0442 124.877 39.7142C124.682 50.2104 116.272 53.8371 109.363 53.8371H96.2978L100.664 30.9383ZM243.914 35.4134L249.254 59.6922H229.514L243.914 35.4134ZM270.655 79.3221C266.033 83.2945 261.066 86.6647 255.822 89.5525L256.199 91.2658H273.717L270.655 79.3221Z" fill="url(#paint0_linear_1516_100075)"/>
<path d="M140.098 65.9258C147.62 77.4689 162.158 90.8007 195.913 90.8007C223.154 90.8007 262.469 83.3257 289.054 48.9551C282.449 67.2694 246.74 100.797 200.228 100.797C158.059 100.797 142.204 80.8922 140.098 65.9258Z" fill="url(#paint1_linear_1516_100075)"/>
<defs>
<linearGradient id="paint0_linear_1516_100075" x1="89.1608" y1="91.2657" x2="89.1608" y2="14.4743" gradientUnits="userSpaceOnUse">
<stop stop-color="#12538F"/>
<stop offset="1" stop-color="#17A2D6"/>
</linearGradient>
<linearGradient id="paint1_linear_1516_100075" x1="141.389" y1="70.2008" x2="287.05" y2="70.2008" gradientUnits="userSpaceOnUse">
<stop stop-color="#BC1E23"/>
<stop offset="1" stop-color="#D81D23"/>
</linearGradient>
</defs>
</svg>
