<svg width="362" height="140" viewBox="0 0 362 140" fill="none" xmlns="http://www.w3.org/2000/svg">
<rect width="362" height="140" fill="#07A9EB"/>
<path d="M49.9195 66.8349C49.871 65.5004 49.8935 64.1624 49.9073 62.8279C57.5278 62.8507 65.1482 62.8332 72.7687 62.8367C72.7704 64.1659 72.7704 65.4935 72.7687 66.821C65.1517 66.8297 57.5347 66.8035 49.9195 66.8349ZM60.2491 50H62.1521C62.1677 50.6515 62.1659 51.3013 62.1625 51.9528C62.7985 51.9511 63.4363 51.9546 64.0723 51.9493C64.0775 52.5886 64.0775 53.2279 64.0585 53.8672C63.4276 53.8672 62.795 53.8707 62.1642 53.8672C62.1642 54.4961 62.1625 55.1266 62.1677 55.7572C61.5403 55.7974 60.9129 55.7886 60.2855 55.7834C60.282 55.1441 60.282 54.5031 60.2786 53.862C59.6408 53.8707 59.0047 53.8672 58.3687 53.869C58.3583 53.2314 58.36 52.5921 58.3583 51.9546C58.9995 51.9528 59.6408 51.9511 60.2803 51.9546C60.2664 51.3031 60.3236 50.648 60.2491 50ZM76.0699 58.6632C76.0699 59.1019 75.9842 59.5363 75.8176 59.9416C75.651 60.3469 75.4069 60.7152 75.0991 61.0254C74.7913 61.3356 74.4259 61.5817 74.0238 61.7496C73.6216 61.9174 73.1906 62.0038 72.7554 62.0038C71.8763 62.0038 71.0332 61.6519 70.4116 61.0254C69.79 60.3989 69.4408 59.5492 69.4408 58.6632C69.4408 57.7772 69.79 56.9275 70.4116 56.3011C71.0332 55.6746 71.8763 55.3226 72.7554 55.3226C73.6344 55.3226 74.4775 55.6746 75.0991 56.3011C75.7207 56.9275 76.0699 57.7772 76.0699 58.6632ZM68.4529 58.6632C68.4529 59.1019 68.3672 59.5363 68.2006 59.9416C68.034 60.3469 67.7899 60.7152 67.4821 61.0254C67.1743 61.3356 66.8089 61.5817 66.4068 61.7496C66.0047 61.9174 65.5736 62.0038 65.1384 62.0038C64.2593 62.0038 63.4162 61.6519 62.7946 61.0254C62.173 60.3989 61.8238 59.5492 61.8238 58.6632C61.8238 57.7772 62.173 56.9275 62.7946 56.3011C63.4162 55.6746 64.2593 55.3226 65.1384 55.3226C66.0174 55.3226 66.8605 55.6746 67.4821 56.3011C68.1037 56.9275 68.4529 57.7772 68.4529 58.6632ZM60.8359 58.6633C60.8359 59.5493 60.4867 60.399 59.8651 61.0255C59.2435 61.6519 58.4005 62.0039 57.5214 62.0039C56.6423 62.0039 55.7992 61.6519 55.1776 61.0255C54.556 60.399 54.2068 59.5493 54.2068 58.6633C54.2068 57.7773 54.556 56.9276 55.1776 56.3011C55.7992 55.6746 56.6423 55.3227 57.5214 55.3227C58.4005 55.3227 59.2435 55.6746 59.8651 56.3011C60.4867 56.9276 60.8359 57.7773 60.8359 58.6633ZM53.219 58.6633C53.219 59.5493 52.8697 60.399 52.2481 61.0255C51.6265 61.6519 50.7835 62.0039 49.9044 62.0039C49.0253 62.0039 48.1823 61.6519 47.5607 61.0255C46.9391 60.399 46.5898 59.5493 46.5898 58.6633C46.5898 57.7773 46.9391 56.9276 47.5607 56.3011C48.1823 55.6746 49.0253 55.3227 49.9044 55.3227C50.7835 55.3227 51.6265 55.6746 52.2481 56.3011C52.8697 56.9276 53.219 57.7773 53.219 58.6633Z" fill="white"/>
<path d="M66.8111 70.2183C69.9792 70.2079 73.1473 70.2393 76.3154 70.2026C77.3154 72.9432 78.1906 75.731 79.1352 78.4926C79.2132 78.3686 79.3241 78.2638 79.3639 78.1188C80.2669 75.483 81.1906 72.8541 82.1022 70.2201C85.2877 70.2166 88.4731 70.2148 91.6586 70.2218V85.5336C89.7088 85.5581 87.7574 85.5424 85.8076 85.5424C85.8042 82.0175 85.825 78.4908 85.7972 74.9642C85.5251 75.1179 85.4974 75.4655 85.3813 75.7258C84.2496 79.0009 83.0884 82.2655 81.9567 85.5406C80.123 85.5406 78.2877 85.5651 76.4558 85.5284C75.3068 82.1799 74.1179 78.8472 72.9584 75.5039C72.9168 75.317 72.8128 75.1808 72.6499 75.0935C72.6447 78.5764 72.6516 82.0611 72.6482 85.5459C70.7019 85.5459 68.7556 85.5459 66.8094 85.5441C66.8128 80.4367 66.8076 75.3275 66.8111 70.2183ZM31 70.2183C32.9237 70.2183 34.8475 70.2166 36.773 70.2201C36.7764 72.0751 36.7695 73.9319 36.7747 75.7886C38.6828 73.9476 40.5477 72.0629 42.4558 70.2218C44.3951 70.2166 46.3345 70.2166 48.2738 70.2218C46.0381 72.5118 43.7418 74.7424 41.5234 77.048C44.3189 79.7799 47.0191 82.6131 49.8388 85.3153C49.8631 80.2847 49.8423 75.2524 49.8492 70.2201C51.8163 70.2166 53.7834 70.2166 55.7504 70.2201C55.7504 74.0367 55.747 77.8533 55.7504 81.6699C58.8925 81.6611 62.0329 81.6803 65.1733 81.6594C65.2166 82.9537 65.1802 84.2498 65.1941 85.5441C57.5581 85.5441 49.9203 85.5511 42.2842 85.5406C40.4783 83.6978 38.6482 81.8795 36.8336 80.0454C36.8076 81.8812 36.8371 83.7153 36.818 85.5511C34.8787 85.5371 32.9393 85.5528 31 85.5424V70.2183Z" fill="white"/>
<path d="M165.797 85.6332H163.793C163.737 85.6332 163.684 85.6107 163.644 85.5707C163.604 85.5308 163.582 85.4765 163.582 85.42V68.1036C163.582 68.0514 163.601 68.0011 163.635 67.9621C163.669 67.923 163.717 67.898 163.768 67.8917L165.771 67.6435C165.801 67.6398 165.831 67.6426 165.86 67.6516C165.888 67.6606 165.915 67.6756 165.937 67.6956C165.96 67.7157 165.978 67.7402 165.99 67.7678C166.002 67.7953 166.008 67.8251 166.008 67.8553V85.42C166.008 85.4765 165.986 85.5308 165.946 85.5707C165.907 85.6107 165.853 85.6332 165.797 85.6332Z" fill="white"/>
<path d="M282.479 85.4585H280.563C280.519 85.4585 280.476 85.4395 280.444 85.4057C280.412 85.3719 280.395 85.326 280.395 85.2781V68.0734C280.395 68.0293 280.41 67.9867 280.437 67.9537C280.465 67.9207 280.502 67.8996 280.543 67.8944L282.459 67.6432C282.482 67.6402 282.506 67.6425 282.529 67.6502C282.552 67.6578 282.573 67.6705 282.591 67.6874C282.609 67.7043 282.623 67.7251 282.633 67.7483C282.642 67.7715 282.648 67.7968 282.648 67.8222V85.2781C282.648 85.326 282.63 85.3719 282.598 85.4057C282.566 85.4395 282.523 85.4585 282.479 85.4585Z" fill="white"/>
<path d="M240.008 85.6305H237.891C237.87 85.6305 237.85 85.6263 237.831 85.6183C237.811 85.6102 237.794 85.5984 237.779 85.5835C237.765 85.5685 237.753 85.5508 237.745 85.5314C237.737 85.5119 237.733 85.491 237.733 85.4699C237.737 81.5232 237.735 78.8184 237.725 77.3556C237.723 77.0452 237.655 76.6782 237.522 76.2544C237.092 74.8928 235.888 74.3072 234.568 74.2667C233.545 74.2352 232.446 74.2793 231.271 74.3989C231.228 74.4033 231.188 74.4235 231.159 74.4557C231.13 74.4879 231.114 74.5297 231.114 74.573V85.4848C231.114 85.5241 231.099 85.5619 231.072 85.5897C231.044 85.6176 231.008 85.6332 230.969 85.6332H228.935C228.885 85.6332 228.837 85.6129 228.801 85.5767C228.766 85.5405 228.746 85.4914 228.746 85.4402V68.0835C228.746 68.0373 228.763 67.9928 228.793 67.9582C228.823 67.9237 228.864 67.9015 228.91 67.8959L230.939 67.6435C230.967 67.6399 230.995 67.6424 231.022 67.6509C231.049 67.6594 231.074 67.6737 231.096 67.6929C231.117 67.712 231.134 67.7356 231.146 67.762C231.157 67.7884 231.163 67.817 231.163 67.846V72.4139C231.163 72.4385 231.168 72.4629 231.178 72.4853C231.188 72.5078 231.203 72.5278 231.221 72.544C231.239 72.5602 231.261 72.5723 231.284 72.5794C231.307 72.5865 231.332 72.5885 231.356 72.5853C232.52 72.4251 233.634 72.3415 234.699 72.3343C235.83 72.3262 236.817 72.498 237.66 72.8498C239.595 73.6567 240.174 75.689 240.179 77.6916C240.186 80.2025 240.186 82.7912 240.179 85.4578C240.179 85.5037 240.161 85.5476 240.129 85.58C240.096 85.6123 240.053 85.6305 240.008 85.6305Z" fill="white"/>
<path d="M268.428 67.8166H266.366C266.265 67.8166 266.184 67.8988 266.184 68.0001V70.0784C266.184 70.1798 266.265 70.262 266.366 70.262H268.428C268.528 70.262 268.61 70.1798 268.61 70.0784V68.0001C268.61 67.8988 268.528 67.8166 268.428 67.8166Z" fill="white"/>
<path d="M288.64 67.8118L286.611 67.8082C286.517 67.808 286.441 67.8844 286.441 67.9787L286.438 70.0234C286.437 70.1177 286.513 70.1943 286.607 70.1945L288.635 70.1981C288.729 70.1982 288.805 70.1219 288.805 70.0275L288.809 67.9829C288.809 67.8885 288.733 67.8119 288.64 67.8118Z" fill="white"/>
<path d="M213.527 73.8478C213.527 73.867 213.523 73.886 213.516 73.9038C213.509 73.9215 213.498 73.9376 213.485 73.9512C213.471 73.9648 213.455 73.9755 213.438 73.9829C213.42 73.9902 213.401 73.994 213.382 73.994H210.821C210.762 73.994 210.706 74.0173 210.665 74.0588C210.624 74.1003 210.601 74.1566 210.601 74.2153C210.599 78.7757 210.599 81.2771 210.602 81.7197C210.603 81.9834 210.615 82.2404 210.639 82.4908C210.731 83.4536 211.443 83.6467 212.273 83.6762C212.296 83.6771 212.87 83.6794 213.995 83.6829C214.023 83.6829 214.051 83.689 214.076 83.701C214.102 83.7129 214.124 83.7304 214.142 83.7521C214.16 83.7738 214.173 83.7993 214.181 83.8268C214.188 83.8542 214.189 83.8829 214.184 83.9109L213.938 85.3176C213.933 85.3456 213.919 85.3713 213.899 85.3909C213.879 85.4105 213.852 85.4229 213.824 85.4263C212.618 85.5805 211.467 85.7387 210.341 85.5403C208.708 85.2519 208.252 83.9444 208.246 82.4572C208.24 80.882 208.238 78.1011 208.242 74.1147C208.242 74.0938 208.238 74.073 208.23 74.0536C208.222 74.0343 208.21 74.0167 208.195 74.0019C208.181 73.987 208.163 73.9753 208.144 73.9673C208.125 73.9592 208.104 73.9551 208.083 73.9551H206.425C206.37 73.9551 206.316 73.9328 206.277 73.8931C206.237 73.8533 206.215 73.7994 206.215 73.7432V72.6047C206.215 72.5546 206.234 72.5065 206.269 72.471C206.304 72.4355 206.352 72.4156 206.401 72.4156H208.081C208.112 72.4156 208.142 72.4032 208.163 72.3811C208.185 72.3589 208.198 72.3289 208.198 72.2976V69.1355C208.198 69.087 208.215 69.0402 208.247 69.0039C208.279 68.9675 208.323 68.9442 208.371 68.9383L210.377 68.6916C210.405 68.688 210.433 68.6904 210.46 68.6987C210.487 68.707 210.512 68.7211 210.533 68.7398C210.555 68.7586 210.572 68.7817 210.583 68.8076C210.595 68.8336 210.601 68.8616 210.601 68.8901V72.2855C210.601 72.3353 210.62 72.3831 210.655 72.4183C210.69 72.4535 210.738 72.4733 210.787 72.4733H213.357C213.402 72.4733 213.445 72.4914 213.477 72.5236C213.509 72.5558 213.527 72.5994 213.527 72.6449V73.8478Z" fill="white"/>
<path d="M177.219 69.9221C177.323 69.9158 179.201 69.9127 182.853 69.9127C184.974 69.9127 187.303 70.3277 188.778 71.9918C189.789 73.1341 190.24 74.5684 190.38 76.0973C190.588 78.3697 190.351 80.9923 189.023 82.9146C187.681 84.8586 185.369 85.5764 182.986 85.6183C181.932 85.6372 180.031 85.6381 177.282 85.621C177.234 85.6206 177.188 85.6014 177.154 85.5675C177.121 85.5335 177.102 85.4876 177.102 85.4398L177.126 70.0208C177.126 69.9955 177.135 69.9712 177.153 69.9529C177.17 69.9345 177.194 69.9235 177.219 69.9221ZM179.671 71.762C179.635 71.7763 179.605 71.8009 179.583 71.8328C179.562 71.8646 179.551 71.9021 179.551 71.9404V83.5743C179.551 83.598 179.555 83.6215 179.564 83.6434C179.573 83.6653 179.587 83.6852 179.603 83.7019C179.62 83.7186 179.64 83.7318 179.662 83.7408C179.683 83.7498 179.707 83.7543 179.73 83.7541C181.021 83.7496 181.851 83.7519 182.221 83.7609C183.314 83.7879 184.137 83.7131 184.689 83.5365C187.178 82.7402 187.949 80.3677 187.991 77.9182C188.042 74.8779 187.132 71.9012 183.581 71.7782C181.892 71.7196 180.606 71.7129 179.722 71.7579C179.692 71.7597 179.675 71.7611 179.671 71.762Z" fill="white"/>
<path d="M115.555 79.8518C115.547 79.8548 115.54 79.8596 115.534 79.8658C115.528 79.8721 115.524 79.8795 115.521 79.8876C115.519 79.8958 115.518 79.9044 115.519 79.9129C115.52 79.9215 115.523 79.9296 115.527 79.9369L119.024 85.3993C119.036 85.4175 119.042 85.4385 119.043 85.4601C119.044 85.4817 119.039 85.503 119.028 85.522C119.018 85.5409 119.003 85.5567 118.984 85.5677C118.966 85.5787 118.945 85.5845 118.923 85.5845H116.451C116.405 85.5845 116.359 85.5729 116.318 85.5507C116.277 85.5286 116.243 85.4965 116.217 85.4575L112.979 80.3965C112.953 80.3567 112.918 80.3239 112.877 80.3013C112.835 80.2786 112.789 80.2667 112.742 80.2668H109.844C109.801 80.2668 109.761 80.2837 109.731 80.3139C109.701 80.344 109.684 80.3849 109.684 80.4276V85.4521C109.684 85.5001 109.665 85.5462 109.631 85.5801C109.598 85.6141 109.552 85.6332 109.505 85.6332H107.423C107.379 85.6332 107.337 85.6155 107.306 85.5841C107.275 85.5527 107.258 85.51 107.258 85.4656V70.1016C107.258 70.0531 107.277 70.0065 107.311 69.9721C107.345 69.9377 107.391 69.9181 107.439 69.9178C110.089 69.9079 112.109 69.9124 113.499 69.9313C114.804 69.9484 115.95 70.2967 116.939 70.9762C118.591 72.1103 118.867 74.83 118.378 76.6062C117.95 78.1594 117.014 79.2921 115.555 79.8518ZM109.674 71.867L109.696 78.2662C109.696 78.2876 109.7 78.3088 109.708 78.3286C109.716 78.3483 109.728 78.3663 109.744 78.3813C109.759 78.3964 109.777 78.4083 109.796 78.4164C109.816 78.4245 109.837 78.4286 109.859 78.4284L113.121 78.4162C113.913 78.4132 114.671 78.107 115.229 77.5648C115.787 77.0226 116.099 76.2889 116.096 75.5248L116.094 74.5651C116.092 74.1865 116.014 73.8118 115.863 73.4625C115.711 73.1132 115.49 72.7962 115.212 72.5294C114.934 72.2626 114.604 72.0514 114.241 71.9079C113.878 71.7643 113.489 71.6911 113.097 71.6926L109.834 71.7048C109.792 71.7051 109.751 71.7224 109.721 71.7528C109.691 71.7832 109.674 71.8242 109.674 71.867Z" fill="white"/>
<path d="M253.602 80.327L252.187 85.4555C252.173 85.5067 252.143 85.5519 252.101 85.584C252.059 85.6161 252.008 85.6333 251.955 85.6332H250.131C250.094 85.6332 250.058 85.6246 250.025 85.6082C249.992 85.5918 249.963 85.5679 249.94 85.5384C249.918 85.5089 249.903 85.4746 249.895 85.4382C249.888 85.4017 249.889 85.364 249.899 85.3281L253.923 70.093C253.936 70.0415 253.966 69.996 254.008 69.9634C254.05 69.9308 254.101 69.913 254.153 69.9127H259.888C259.941 69.9127 259.992 69.9303 260.034 69.963C260.076 69.9956 260.106 70.0413 260.12 70.093L264.094 85.3199C264.103 85.3559 264.105 85.3935 264.097 85.43C264.09 85.4665 264.075 85.5008 264.052 85.5303C264.03 85.5598 264.001 85.5836 263.968 85.6001C263.935 85.6165 263.899 85.625 263.862 85.625H261.798C261.745 85.625 261.693 85.6074 261.651 85.5747C261.609 85.5421 261.579 85.4964 261.566 85.4447L260.231 80.3297C260.217 80.278 260.187 80.2323 260.145 80.1997C260.103 80.1671 260.052 80.1494 259.999 80.1494H253.834C253.782 80.1492 253.73 80.1665 253.688 80.1986C253.647 80.2307 253.616 80.2758 253.602 80.327ZM259.434 78.3228C259.456 78.3229 259.477 78.318 259.496 78.3085C259.515 78.299 259.532 78.2851 259.545 78.2679C259.559 78.2507 259.568 78.2307 259.572 78.2094C259.576 78.1881 259.575 78.1661 259.57 78.1452L257.914 71.8043C257.907 71.7745 257.889 71.7481 257.865 71.7292C257.841 71.7103 257.811 71.7 257.78 71.6999H255.876C255.845 71.6998 255.815 71.7099 255.79 71.7288C255.766 71.7477 255.748 71.7742 255.74 71.8043L254.066 78.1452C254.061 78.166 254.06 78.1879 254.064 78.2091C254.068 78.2302 254.077 78.2502 254.09 78.2673C254.103 78.2845 254.12 78.2984 254.139 78.308C254.158 78.3177 254.179 78.3227 254.2 78.3228H259.434Z" fill="white"/>
<path d="M127.318 72.1836C131.431 72.1592 133.921 74.8201 133.945 78.955C133.969 83.0899 131.513 85.782 127.4 85.8077C123.288 85.8321 120.799 83.1712 120.774 79.0363C120.749 74.9 123.206 72.2093 127.318 72.1836ZM123.188 78.9333C123.175 81.6985 124.274 83.8527 127.333 83.8676C130.392 83.8838 131.513 81.7419 131.527 78.9767C131.541 76.2101 130.442 74.0573 127.383 74.0411C124.323 74.0261 123.202 76.1668 123.188 78.9333Z" fill="white"/>
<path d="M317.466 83.564C317.491 83.5617 317.516 83.5652 317.539 83.5742C317.562 83.5833 317.583 83.5975 317.6 83.616C317.616 83.6344 317.629 83.6565 317.636 83.6805C317.643 83.7045 317.644 83.7298 317.639 83.7544L317.393 85.1549C317.385 85.2004 317.363 85.2422 317.33 85.2743C317.298 85.3063 317.255 85.3269 317.21 85.3332C315.844 85.5268 314.464 85.6267 313.069 85.633C311.191 85.6425 309.225 85.2184 307.993 83.7895C306.525 82.0851 306.36 79.1922 306.732 76.9355C306.904 75.8982 307.298 74.9857 307.914 74.1979C309.411 72.2882 312.163 71.9317 314.447 72.3274C318.337 72.9999 319.082 76.5978 319.039 79.9161C319.039 79.9365 319.031 79.9561 319.016 79.9706C319.002 79.985 318.982 79.9931 318.961 79.9931H309.191C309.178 79.9931 309.165 79.9957 309.153 80.0008C309.141 80.0058 309.131 80.0132 309.121 80.0225C309.112 80.0318 309.105 80.0428 309.1 80.0549C309.095 80.067 309.093 80.08 309.093 80.0931C309.128 83.1372 311.221 83.7639 313.808 83.7598C314.875 83.758 316.094 83.6927 317.466 83.564ZM309.156 78.1658H316.454C316.486 78.1658 316.517 78.1529 316.54 78.1298C316.563 78.1068 316.576 78.0755 316.576 78.0429V77.5716C316.576 77.1175 316.487 76.668 316.314 76.2485C316.141 75.829 315.888 75.4479 315.568 75.1268C315.249 74.8058 314.869 74.5511 314.452 74.3773C314.034 74.2036 313.587 74.1141 313.135 74.1141H312.475C312.023 74.1141 311.576 74.2036 311.158 74.3773C310.741 74.5511 310.361 74.8058 310.042 75.1268C309.722 75.4479 309.469 75.829 309.296 76.2485C309.123 76.668 309.034 77.1175 309.034 77.5716V78.0429C309.034 78.0755 309.047 78.1068 309.07 78.1298C309.093 78.1529 309.124 78.1658 309.156 78.1658Z" fill="white"/>
<path d="M225.835 83.5819C225.853 83.5817 225.871 83.5852 225.888 83.5921C225.905 83.599 225.92 83.6093 225.933 83.6222C225.946 83.6351 225.957 83.6505 225.964 83.6675C225.971 83.6844 225.974 83.7026 225.974 83.721V85.3354C225.974 85.3756 225.96 85.4145 225.935 85.4452C225.909 85.4759 225.874 85.4964 225.835 85.5031C225.594 85.545 224.861 85.625 223.637 85.7431C219.568 86.1345 215.965 84.8118 215.473 80.1227C215.3 78.481 215.417 76.827 216.126 75.4267C217.417 72.8769 220.135 72.0738 222.901 72.1951C223.812 72.2342 224.749 72.3138 225.71 72.4338C225.736 72.4369 225.76 72.4452 225.782 72.4582C225.804 72.4713 225.823 72.4887 225.838 72.5095C225.853 72.5303 225.864 72.554 225.87 72.5792C225.876 72.6044 225.877 72.6305 225.872 72.656L225.629 74.0604C225.62 74.1087 225.594 74.152 225.556 74.182C225.518 74.212 225.47 74.2265 225.422 74.2227C224.452 74.1518 223.467 74.1168 222.467 74.1177C221.847 74.1186 221.271 74.1968 220.738 74.3522C218.446 75.0163 217.803 76.9511 217.878 79.1518C217.962 81.6512 219.136 83.4101 221.805 83.6269C222.506 83.6842 223.297 83.6919 224.177 83.6501C225.122 83.6056 225.675 83.5828 225.835 83.5819Z" fill="white"/>
<path d="M303.728 85.4558H301.629C301.581 85.4558 301.535 85.4365 301.501 85.4022C301.467 85.3679 301.448 85.3213 301.448 85.2727C301.441 81.5622 301.443 79.1118 301.452 77.9216C301.461 76.8903 301.385 76.1705 301.224 75.7621C300.659 74.3282 299.176 74.0966 297.79 74.1061C297.019 74.1115 296.108 74.1653 295.056 74.2676C295.031 74.2703 295.007 74.2825 294.989 74.302C294.972 74.3214 294.963 74.3466 294.963 74.3727V85.2821C294.963 85.3289 294.944 85.3738 294.912 85.4069C294.88 85.4399 294.836 85.4585 294.79 85.4585H292.715C292.664 85.4585 292.615 85.438 292.58 85.4013C292.544 85.3647 292.523 85.3151 292.523 85.2633V72.9819C292.524 72.9198 292.545 72.8598 292.585 72.8124C292.624 72.7651 292.679 72.7336 292.739 72.7234C294.277 72.4676 295.722 72.2984 297.073 72.2158C299.14 72.0892 302.023 72.2427 303.188 74.3619C303.692 75.2787 303.791 76.2939 303.789 77.4895C303.786 79.0135 303.785 81.6488 303.787 85.3952C303.787 85.4032 303.786 85.4111 303.783 85.4184C303.78 85.4258 303.775 85.4324 303.77 85.4381C303.764 85.4437 303.758 85.4482 303.751 85.4512C303.743 85.4543 303.736 85.4558 303.728 85.4558Z" fill="white"/>
<path d="M157.74 77.344C157.748 77.345 157.756 77.3442 157.764 77.3418C157.771 77.3395 157.778 77.3355 157.785 77.3302C157.791 77.3249 157.796 77.3184 157.799 77.3111C157.803 77.3038 157.805 77.2958 157.805 77.2877C157.833 76.6855 157.719 76.1249 157.465 75.606C156.924 74.5014 155.578 74.2839 154.415 74.2705C153.279 74.2589 152.066 74.3058 150.777 74.4114C150.717 74.4167 150.657 74.3992 150.61 74.3624C150.562 74.3256 150.53 74.2722 150.52 74.2128L150.276 72.8344C150.273 72.8154 150.273 72.796 150.278 72.7772C150.282 72.7585 150.29 72.7408 150.302 72.7253C150.313 72.7098 150.328 72.6967 150.344 72.6868C150.361 72.677 150.379 72.6706 150.398 72.668C151.795 72.4774 153.112 72.3745 154.349 72.3593C156.349 72.3338 158.987 72.7055 159.885 74.861C160.143 75.4793 160.273 76.0963 160.276 76.7119C160.293 79.0499 160.294 81.8367 160.282 85.0722C160.281 85.1357 160.258 85.1968 160.216 85.2442C160.174 85.2916 160.116 85.3221 160.053 85.3299C158.733 85.4865 157.357 85.6247 155.926 85.7446C153.578 85.9432 150.314 85.8171 149.249 83.2093C148.728 81.9342 148.665 80.2391 149.391 78.9976C150.377 77.3159 152.813 77.0045 154.55 77.0676C155.565 77.1042 156.628 77.1964 157.74 77.344ZM157.761 83.6133C157.794 83.6129 157.825 83.5997 157.848 83.5766C157.871 83.5535 157.884 83.5223 157.884 83.4898V79.1586C157.884 79.0972 157.86 79.0382 157.817 78.9944C157.774 78.9507 157.715 78.9258 157.654 78.9251C156.147 78.9045 154.862 78.9108 153.799 78.9439C152.608 78.9801 151.457 79.4472 151.386 80.8229C151.293 82.6174 152.242 83.5837 154.016 83.6079C155.074 83.6213 156.322 83.6231 157.761 83.6133Z" fill="white"/>
<path d="M272.421 85.6332C272.375 85.6332 272.33 85.6142 272.297 85.5803C272.265 85.5464 272.246 85.5005 272.246 85.4526V73.1437C272.246 73.0808 272.268 73.0201 272.309 72.9728C272.349 72.9255 272.405 72.8948 272.466 72.8863C274.052 72.6626 275.935 72.3837 277.671 72.3581C277.687 72.3579 277.702 72.361 277.717 72.367C277.732 72.3731 277.745 72.3821 277.756 72.3935C277.768 72.4049 277.777 72.4185 277.783 72.4335C277.789 72.4484 277.792 72.4645 277.792 72.4807V74.0855C277.792 74.1267 277.777 74.1663 277.749 74.1961C277.721 74.226 277.682 74.2438 277.642 74.2459L274.83 74.3968C274.777 74.3992 274.727 74.4226 274.69 74.462C274.653 74.5014 274.633 74.5538 274.633 74.6083V85.4621C274.633 85.5074 274.615 85.551 274.584 85.5831C274.553 85.6152 274.511 85.6332 274.467 85.6332H272.421Z" fill="white"/>
<path d="M330.161 74.2327C330.152 74.2953 330.119 74.3519 330.069 74.3905C330.02 74.4292 329.957 74.4467 329.894 74.4394C328.41 74.2674 327.009 74.2044 325.691 74.2503C324.935 74.2773 323.966 74.4799 323.759 75.3646C323.498 76.4775 324.599 77.0164 325.499 77.3055C326.626 77.6692 327.461 77.9452 328.003 78.1334C329.562 78.675 330.89 79.6434 330.991 81.4466C331.082 83.1038 330.357 84.518 328.839 85.1892C328.186 85.4783 327.576 85.653 327.01 85.7133C325.258 85.8997 323.445 85.8105 321.572 85.4459C321.532 85.4383 321.496 85.417 321.47 85.3857C321.444 85.3544 321.43 85.315 321.43 85.2743V83.8453C321.43 83.8172 321.436 83.7893 321.447 83.7635C321.458 83.7377 321.475 83.7144 321.495 83.6952C321.516 83.6759 321.54 83.6611 321.567 83.6516C321.593 83.6421 321.621 83.6382 321.65 83.64C322.801 83.7202 323.946 83.7733 325.084 83.7994C326.31 83.8264 328.446 83.7832 328.561 82.1124C328.644 80.9171 327.724 80.3404 326.738 79.9649C326.48 79.8667 325.614 79.5719 324.14 79.0802C323.489 78.8628 322.606 78.3981 322.127 77.9079C321.445 77.2082 321.181 76.3172 321.336 75.2349C321.745 72.3769 325.788 72.2013 327.93 72.4283C328.689 72.5075 329.411 72.5962 330.096 72.6943C330.316 72.7258 330.403 72.8582 330.357 73.0914C330.266 73.5605 330.201 73.941 330.161 74.2327Z" fill="white"/>
<path d="M268.406 72.3581H266.388C266.275 72.3581 266.184 72.4492 266.184 72.5615V85.2551C266.184 85.3674 266.275 85.4585 266.388 85.4585H268.406C268.518 85.4585 268.61 85.3674 268.61 85.2551V72.5615C268.61 72.4492 268.518 72.3581 268.406 72.3581Z" fill="white"/>
<path d="M288.707 72.3581H286.641C286.542 72.3581 286.461 72.4384 286.461 72.5375V85.2791C286.461 85.3782 286.542 85.4585 286.641 85.4585H288.707C288.807 85.4585 288.887 85.3782 288.887 85.2791V72.5375C288.887 72.4384 288.807 72.3581 288.707 72.3581Z" fill="white"/>
<path d="M195.005 72.3581C195.035 72.3581 195.065 72.3703 195.086 72.3919C195.108 72.4136 195.12 72.443 195.12 72.4737C195.123 74.4612 195.124 77.2648 195.122 80.8844C195.122 81.0259 195.146 81.234 195.194 81.5087C195.569 83.6889 197.479 83.8481 199.268 83.7597C200.221 83.7125 200.882 83.6645 201.253 83.6155C201.288 83.6109 201.32 83.5934 201.343 83.5664C201.367 83.5394 201.38 83.5046 201.38 83.4686V72.5172C201.38 72.475 201.396 72.4345 201.425 72.4047C201.454 72.3748 201.493 72.3581 201.534 72.3581H203.654C203.69 72.3581 203.725 72.3728 203.751 72.3991C203.777 72.4254 203.791 72.461 203.791 72.4982V84.996C203.791 85.0439 203.775 85.0903 203.745 85.1273C203.715 85.1643 203.673 85.1895 203.627 85.1986C202.195 85.4761 200.845 85.6656 199.579 85.7672C198 85.8936 195.925 85.7549 194.637 84.928C192.954 83.8467 192.7 81.9875 192.7 80.0684C192.699 78.0401 192.699 75.5407 192.702 72.5702C192.702 72.514 192.724 72.46 192.763 72.4202C192.802 72.3804 192.854 72.3581 192.91 72.3581H195.005Z" fill="white"/>
<path d="M137.485 72.5327C137.512 72.5327 137.539 72.5414 137.561 72.5576C137.583 72.5738 137.599 72.5966 137.608 72.6228L141.083 83.6326C141.095 83.6685 141.117 83.6998 141.148 83.722C141.178 83.7442 141.214 83.7562 141.252 83.7562H141.824C141.854 83.7561 141.882 83.7467 141.905 83.7292C141.928 83.7117 141.945 83.6872 141.953 83.6595L145.038 72.6577C145.045 72.6351 145.059 72.6153 145.078 72.6013C145.097 72.5872 145.12 72.5797 145.143 72.5798H147.355C147.372 72.5798 147.388 72.5836 147.403 72.591C147.418 72.5983 147.431 72.6089 147.441 72.6221C147.451 72.6352 147.458 72.6504 147.461 72.6666C147.464 72.6828 147.463 72.6995 147.459 72.7154C146.949 74.52 145.967 77.9401 144.514 82.9757C143.82 85.3843 142.582 88.0455 140.843 89.8482C140.797 89.8962 140.741 89.9343 140.68 89.9604C140.619 89.9865 140.553 90 140.486 90H138.245C138.22 89.9998 138.195 89.992 138.174 89.9778C138.154 89.9636 138.138 89.9435 138.128 89.9201C138.119 89.8968 138.117 89.8712 138.122 89.8466C138.128 89.8221 138.14 89.7997 138.159 89.7824C139.157 88.8385 139.986 87.7835 140.647 86.6175C140.799 86.3497 140.889 86.0896 140.916 85.837C140.918 85.8159 140.916 85.7945 140.909 85.7743C140.903 85.7541 140.892 85.7354 140.878 85.7196C140.863 85.7038 140.846 85.6911 140.827 85.6824C140.807 85.6737 140.786 85.6692 140.765 85.6691H139.416C139.372 85.669 139.33 85.6554 139.295 85.63C139.259 85.6047 139.233 85.569 139.22 85.5281L134.992 72.7504C134.984 72.7254 134.982 72.6988 134.986 72.6729C134.991 72.647 135.001 72.6225 135.016 72.6012C135.032 72.58 135.052 72.5628 135.076 72.5509C135.099 72.539 135.125 72.5328 135.152 72.5327H137.485Z" fill="white"/>
</svg>
