<svg width="362" height="140" viewBox="0 0 362 140" fill="none" xmlns="http://www.w3.org/2000/svg">
<rect width="362" height="140" fill="#253168"/>
<path d="M57.5525 69.9971C61.5039 64.4455 66.09 65.55 71.4959 66.1736C70.0614 64.6415 69.3554 62.7085 69.3554 60.633C69.3554 55.8518 73.3223 51.9748 78.2181 51.9748C88.4417 51.9748 87.1789 63.5458 82.7442 63.5458C81.7485 63.5458 80.9489 62.8466 80.7328 62.0182C80.5547 61.3345 80.7259 60.5306 80.4901 59.8826C80.1582 58.9785 79.2405 58.3148 78.2137 58.3148C77.5521 58.3148 76.9574 58.5755 76.5208 58.9962C75.1443 60.3234 76.0041 62.9802 76.9018 64.3386C78.1513 66.2225 80.3453 67.4385 82.8622 67.414L83.2721 67.4013C90.2816 66.613 92.3442 60.6472 90.5645 55.2335C89.7916 52.8819 87.0943 49.4213 84.0561 47.9716C89.6513 44.7337 91.3686 37.2668 91.1704 32.8352L31 69.9979L91.1704 107.165C91.3686 102.731 89.6513 95.2645 84.0561 92.0288C87.0943 90.5768 89.7916 87.1161 90.5645 84.7645C92.3442 79.3509 90.2816 73.3851 83.2721 72.5945L82.8622 72.5819C80.3453 72.5567 78.1513 73.7733 76.9018 75.6573C76.0041 77.0157 75.1444 79.6724 76.5208 80.9996C76.9574 81.4207 77.5521 81.681 78.2137 81.681C79.2405 81.681 80.1582 81.0197 80.4901 80.1134C80.7262 79.4653 80.5547 78.6636 80.7328 77.9777C80.9489 77.1493 81.7485 76.4501 82.7442 76.4501C87.1789 76.4501 88.4417 88.021 78.2181 88.021C73.3223 88.021 69.3554 84.1441 69.3554 79.3628C69.3554 77.2873 70.0614 75.3544 71.4959 73.8223C66.09 74.4478 61.5039 75.5533 57.5525 69.9971Z" fill="white"/>
<path d="M131.286 88.7509V69.7731C131.286 69.537 131.28 69.3054 131.274 69.0783V69.0657L131.261 68.8233V68.8107V68.7917L131.257 68.7476V68.7286C130.831 62.0746 126.281 59.7898 120.61 59.7898C116.16 59.7898 112.618 61.2261 110.823 62.9831V66.5217C113.244 65.2168 116.712 63.9742 119.427 63.9742C122.802 63.9742 125.163 64.9896 125.169 68.7286L125.172 68.7602V69.0833L125.184 70.9184C116.382 71.7757 109.016 73.3724 109.016 80.9929C109.016 86.5735 112.931 90.4372 120.823 90.4372C123.529 90.4372 129.061 89.9423 131.286 88.7509ZM125.184 85.9723C123.442 86.6871 120.344 86.7562 118.687 86.262C117.727 85.9748 116.938 85.5338 116.359 84.879C115.598 84.0173 115.188 82.8058 115.188 81.2069C115.188 75.9492 119.467 74.7823 125.184 74.7823V85.9723Z" fill="white"/>
<path d="M245.911 89.8533V85.2146C245.385 85.3705 244.967 85.4771 244.387 85.4771C242.18 85.4771 241.287 84.0053 241.287 81.7984V63.9675H245.911V59.9055H241.287V52.7305L234.874 56.7344L234.877 59.9055H231.478V63.9675H234.877V82.7581C234.877 86.6975 237.084 90.4321 242.652 90.4321C244.178 90.4321 245.332 90.1159 245.911 89.8533Z" fill="white"/>
<path d="M227.916 81.4212C227.916 77.9628 226.578 74.9943 220.726 72.6873C218.107 71.6451 216.267 70.4359 216.267 68.0196C216.267 65.9308 217.773 64.1181 220.559 64.1181C222.678 64.1181 225.097 65.4966 226.195 66.6612V63.047C222.419 57.3439 209.692 59.0452 209.692 68.3491C209.692 71.4245 210.861 74.4999 216.548 76.6422C219.613 77.7958 221.348 78.947 221.348 81.4723C221.348 86.8904 212.674 86.2358 209.663 83.9932L209.695 88.7276C211.468 89.6273 213.708 90.4312 217.219 90.4312C223.794 90.4312 227.916 86.2558 227.916 81.4212Z" fill="white"/>
<path d="M301.784 89.6281L301.78 68.7129C301.78 64.003 298.913 59.783 290.197 59.783C285.27 59.783 281.535 60.5936 278.775 61.8941L278.778 89.6281H285.382L285.379 64.7602C286.625 64.2747 287.761 63.9495 289.926 63.9495C294.095 63.9495 295.178 66.4392 295.178 68.8197L295.18 89.6281H301.784Z" fill="white"/>
<path d="M166.178 59.8261C158.79 59.5723 154.896 60.4408 151.867 61.9015V89.6288H158.465V64.8767C159.977 64.0104 163.637 63.5138 166.176 64.5446L166.178 59.8261Z" fill="white"/>
<path d="M144.788 59.9233H138.371V89.6281H144.788V59.9233Z" fill="white"/>
<path d="M204.382 88.7509V69.7732C204.382 69.5371 204.376 69.3054 204.37 69.0783V69.0657L204.357 68.8233V68.8107V68.7918L204.353 68.7476V68.7286C203.927 62.0746 199.377 59.7898 193.706 59.7898C189.256 59.7898 185.714 61.2262 183.917 62.9832V66.5217C186.34 65.2168 189.808 63.9742 192.523 63.9742C195.898 63.9742 198.259 64.9896 198.265 68.7286V68.7602V69.0834L198.278 70.9184C189.475 71.7757 182.109 73.3724 182.109 80.993C182.109 86.5736 186.025 90.4372 193.914 90.4372C196.623 90.4372 202.157 89.9423 204.382 88.7509ZM198.278 85.9723C196.534 86.6871 193.438 86.7562 191.781 86.262C190.821 85.9748 190.03 85.5339 189.453 84.8791C188.689 84.0174 188.281 82.8058 188.281 81.2069C188.281 75.9492 192.558 74.7823 198.278 74.7823V85.9723Z" fill="white"/>
<path d="M271.688 88.7509V69.7732C271.688 69.5371 271.684 69.3054 271.675 69.0783L271.673 69.0657L271.661 68.8233V68.8107V68.7918L271.658 68.7476L271.656 68.7286C271.233 62.0746 266.68 59.7898 261.009 59.7898C256.561 59.7898 253.02 61.2262 251.222 62.9832V66.5217C253.646 65.2168 257.111 63.9742 259.829 63.9742C263.203 63.9742 265.564 64.9896 265.571 68.7286V68.7602V69.0834L265.584 70.9184C256.781 71.7757 249.415 73.3724 249.415 80.993C249.415 86.5736 253.333 90.4372 261.222 90.4372C263.931 90.4372 269.465 89.9423 271.688 88.7509ZM265.584 85.9723C263.842 86.6871 260.746 86.7562 259.086 86.262C258.129 85.9748 257.338 85.5339 256.759 84.8791C255.997 84.0174 255.587 82.8058 255.587 81.2069C255.587 75.9492 259.866 74.7823 265.584 74.7823V85.9723Z" fill="white"/>
<path d="M329.329 88.7509V69.7732C329.329 69.5371 329.322 69.3054 329.316 69.0783L329.314 69.0657L329.301 68.8233V68.8107V68.7918L329.297 68.7476V68.7286C328.871 62.0746 324.321 59.7898 318.65 59.7898C314.2 59.7898 310.658 61.2262 308.863 62.9832V66.5217C311.286 65.2168 314.752 63.9742 317.467 63.9742C320.842 63.9742 323.203 64.9896 323.212 68.7286V68.7602V69.0834L323.224 70.9184C314.422 71.7757 307.056 73.3724 307.056 80.993C307.056 86.5736 310.971 90.4372 318.863 90.4372C321.569 90.4372 327.104 89.9423 329.329 88.7509ZM323.224 85.9723C321.482 86.6871 318.386 86.7562 316.727 86.262C315.769 85.9748 314.978 85.5339 314.399 84.8791C313.638 84.0174 313.228 82.8058 313.228 81.2069C313.228 75.9492 317.504 74.7823 323.224 74.7823V85.9723Z" fill="white"/>
<path d="M144.998 52.7754C144.998 50.9872 143.52 49.5664 141.577 49.5664C139.691 49.5664 138.158 50.9872 138.158 52.7754C138.158 54.5102 139.691 55.9287 141.577 55.9287C143.52 55.9287 144.998 54.5102 144.998 52.7754Z" fill="white"/>
</svg>
