<svg width="362" height="140" viewBox="0 0 362 140" fill="none" xmlns="http://www.w3.org/2000/svg">
<rect width="362" height="140" fill="#1D1D1B"/>
<g clip-path="url(#clip0_350_217636)">
<path d="M84.9239 42.5H31V69.6467H84.9239V42.5Z" fill="#00AADB"/>
<path d="M84.9239 69.647H31V96.7937H84.9239V69.647Z" fill="#3FA74D"/>
<path d="M161.377 53.0061C161.386 52.3691 161.901 51.8576 162.535 51.8576H185.783C186.423 51.8576 186.94 51.336 186.94 50.6923V43.6654C186.94 43.0251 186.427 42.5047 185.791 42.5H151.904C151.264 42.5 150.746 43.0218 150.746 43.6654V95.6172C150.746 96.2603 151.264 96.7828 151.904 96.7828H185.791C186.431 96.7828 186.949 96.2603 186.949 95.6172V88.6153C186.949 87.9722 186.431 87.4518 185.791 87.4518H162.543C161.903 87.4518 161.386 86.9293 161.386 86.2862V73.9747C161.386 73.3316 161.903 72.8112 162.543 72.8112H183.755C184.395 72.8112 184.912 72.2887 184.912 71.6456V64.6183C184.912 63.9753 184.395 63.4525 183.755 63.4525H162.34C161.785 63.3571 161.377 62.8721 161.377 62.3041V53.0061Z" fill="white"/>
<path d="M260.013 53.0061C260.013 52.3822 260.52 51.8758 261.132 51.8576H284.393C285.027 51.8576 285.534 51.336 285.534 50.6923V43.6654C285.534 43.0218 285.027 42.5 284.393 42.5H250.506C249.851 42.5 249.344 43.0218 249.344 43.6654V95.6172C249.344 96.2603 249.851 96.7828 250.506 96.7828H284.393C285.027 96.7828 285.534 96.2603 285.534 95.6172V88.6153C285.534 87.9722 285.027 87.4518 284.393 87.4518H261.132C260.499 87.4328 260.013 86.9103 260.013 86.2778V73.9747C260.013 73.3316 260.541 72.8112 261.175 72.8112H282.386C283.02 72.8112 283.548 72.2887 283.548 71.6456V64.6183C283.548 63.9753 283.02 63.4525 282.386 63.4525H260.942C260.393 63.3404 260.013 62.8695 260.013 62.3212V53.0061Z" fill="white"/>
<path d="M142.649 87.4435H121.041C120.734 87.4435 120.439 87.3187 120.223 87.1008C120.006 86.8829 119.883 86.5868 119.883 86.2779V43.6656C119.883 43.3549 119.76 43.0572 119.541 42.8384C119.321 42.6196 119.025 42.4978 118.717 42.5H110.435C110.129 42.5 109.833 42.6228 109.617 42.8414C109.4 43.06 109.277 43.3564 109.277 43.6655V95.6172C109.277 95.9261 109.4 96.2222 109.617 96.4422C109.833 96.6601 110.129 96.7828 110.435 96.7828H142.683C143.323 96.7828 143.841 96.2603 143.841 95.6172V88.6153C143.843 88.3001 143.718 87.9955 143.492 87.7734C143.268 87.5534 142.964 87.4329 142.649 87.4435Z" fill="white"/>
<path d="M329.606 87.4433H307.993C307.36 87.4433 306.831 86.9208 306.831 86.2777V43.6654C306.831 43.3517 306.705 43.0513 306.493 42.832C306.261 42.6127 305.965 42.4929 305.648 42.4998H297.324C296.691 42.4998 296.184 43.0216 296.184 43.6652V95.617C296.184 96.2601 296.691 96.7826 297.324 96.7826H329.585C330.219 96.7826 330.747 96.2601 330.747 95.617V88.6151C330.747 87.9762 330.24 87.4517 329.606 87.4433Z" fill="white"/>
<path d="M242.33 42.5H233.444C232.992 42.5019 232.584 42.7675 232.396 43.1806L232.346 43.3082L219.23 78.7916V78.8593L218.968 79.5828C218.843 79.9128 218.529 80.1307 218.178 80.1307C217.827 80.1307 217.513 79.9128 217.388 79.5828L217.109 78.8424V78.7747L203.951 43.3505L203.884 43.1636C203.691 42.76 203.288 42.5022 202.844 42.5001H193.954C193.572 42.5016 193.215 42.6927 193.001 43.0107C192.786 43.3288 192.741 43.7329 192.881 44.0909L211.988 95.7719L212.14 96.1801C212.349 96.5271 212.725 96.7407 213.129 96.7407H223.117C223.633 96.7386 224.083 96.3917 224.216 95.8903L243.386 44.1501L243.429 44.0314C243.471 43.9139 243.492 43.7904 243.492 43.6656C243.492 43.355 243.386 43.0573 243.154 42.8385C242.943 42.6196 242.647 42.4977 242.33 42.5Z" fill="white"/>
</g>
<defs>
<clipPath id="clip0_350_217636">
<rect width="300" height="55" fill="white" transform="translate(31 42.5)"/>
</clipPath>
</defs>
</svg>
