<svg width="362" height="140" viewBox="0 0 362 140" fill="none" xmlns="http://www.w3.org/2000/svg">
<rect width="362" height="140" fill="#2A0088"/>
<path fill-rule="evenodd" clip-rule="evenodd" d="M270.988 87.4728L280.001 52.5363H289.965C289.965 52.5363 292.492 52.2921 293.792 53.3252C295.091 54.3582 295.46 55.9547 295.46 55.9547L300.874 72.8618L307.939 52.5366H317.581C317.581 52.5366 319.979 52.5366 321.222 53.5133C322.465 54.49 322.838 55.9552 322.838 55.9552L330.742 87.4735H321.38L314.318 60.6085L306.906 81.088H296.982C296.982 81.088 295.786 81.2055 294.643 80.4306C293.499 79.6558 293.463 78.9467 293.463 78.9467L287.422 60.6096L280.489 87.4746L270.988 87.4728Z" fill="white"/>
<path fill-rule="evenodd" clip-rule="evenodd" d="M178.152 52.5317V59.5003L194.874 60.6273V87.4687H204.531V60.6273L221.253 59.5003V52.5317H178.152Z" fill="white"/>
<path fill-rule="evenodd" clip-rule="evenodd" d="M150.361 52.5318L132.945 87.4683H143.651L146.693 81.0445H166.111L169.084 87.4683H179.73L163.207 54.8229C163.207 54.8229 162.667 53.6205 161.731 53.0831C160.795 52.5457 159.809 52.5312 159.809 52.5312H150.361L150.361 52.5318ZM156.274 60.0761L162.674 73.9448H149.774L156.274 60.0761H156.274Z" fill="white"/>
<path fill-rule="evenodd" clip-rule="evenodd" d="M96.168 52.5318V87.4683H125.569L129.577 79.4292H106.243V52.5314L96.168 52.5318Z" fill="white"/>
<path fill-rule="evenodd" clip-rule="evenodd" d="M237.213 52.5318L219.797 87.4683H230.502L233.545 81.0445H252.963L255.935 87.4683H266.581L250.059 54.8229C250.059 54.8229 249.519 53.6205 248.583 53.0831C247.646 52.5457 246.661 52.5312 246.661 52.5312H237.212L237.213 52.5318ZM243.126 60.0761L249.526 73.9448H236.626L243.125 60.0761H243.126Z" fill="white"/>
<path fill-rule="evenodd" clip-rule="evenodd" d="M36.3155 63.7587L44.0442 61.5444C44.0442 61.5444 43.9615 61.0267 43.6843 60.7725C43.4072 60.5184 42.9087 60.3613 42.9087 60.3613L32.1666 56.4475C32.1666 56.4475 31.8255 56.3325 31.5764 56.4709C31.3272 56.6093 31.3361 56.9689 31.3361 56.9689V61.9794C31.3361 61.9794 31.3093 62.4591 32.002 63.5344C32.6948 64.6097 34.3357 64.3358 34.3357 64.3358L36.3155 63.7587Z" fill="#ED1651"/>
<path fill-rule="evenodd" clip-rule="evenodd" d="M67.0837 51.6696L74.2731 47.6296C74.2731 47.6296 74.3814 46.9315 74.1043 46.6774C73.8271 46.4232 73.4972 46.345 73.4972 46.345L42.4477 35.2313C42.4477 35.2313 42.1067 35.1163 41.8575 35.2548C41.6084 35.3932 41.6172 35.7528 41.6172 35.7528V40.0729C41.6172 40.0729 41.6129 41.0739 42.3057 42.1491C42.9984 43.2244 44.1225 43.5027 44.1225 43.5027L67.0837 51.6696Z" fill="#ED1651"/>
<path fill-rule="evenodd" clip-rule="evenodd" d="M67.0834 64.2445L74.2728 60.5088C74.2728 60.5088 74.426 59.5627 74.1489 59.3086C73.8717 59.0545 73.4968 58.9199 73.4968 58.9199L32.1665 43.8623C32.1665 43.8623 31.8254 43.7473 31.5763 43.8857C31.3271 44.0241 31.336 44.3837 31.336 44.3837V48.7038C31.336 48.7038 31.3317 49.7048 32.0244 50.78C32.7172 51.8553 33.8413 52.1337 33.8413 52.1337L67.0834 64.2445Z" fill="#ED1651"/>
<path fill-rule="evenodd" clip-rule="evenodd" d="M73.4968 46.3446C73.4968 46.3446 73.9165 46.4084 74.2724 46.7559C74.6284 47.1033 74.6323 47.5278 74.6323 47.5278V53.2477C74.6323 53.2477 74.6152 54.0291 74.2956 54.7319C73.9761 55.4347 73.508 55.6009 73.508 55.6009L72.5343 55.9557L41.505 67.2605C41.505 67.2605 41.3558 67.3067 41.1617 67.3067C40.9676 67.3067 40.8184 67.2605 40.8184 67.2605L32.1731 64.1107C32.1731 64.1107 31.9586 64.0606 31.6543 63.5825C31.3116 63.046 31.3363 61.981 31.3363 61.981C31.3363 61.981 31.3901 62.527 31.6978 62.7863C32.0055 63.0456 32.8255 62.7612 32.8255 62.7612L72.5345 48.2941C72.5345 48.2941 74.1113 47.6489 74.1113 46.9934C74.1113 46.5408 73.497 46.3464 73.497 46.3464L73.4968 46.3446Z" fill="white"/>
<path fill-rule="evenodd" clip-rule="evenodd" d="M73.4957 58.9195C73.4957 58.9195 73.9154 58.9833 74.2713 59.3308C74.6272 59.6782 74.6312 60.1027 74.6312 60.1027V65.8226C74.6312 65.8226 74.6141 66.604 74.2945 67.3068C73.9749 68.0096 73.5069 68.1758 73.5069 68.1758L72.5331 68.5306L41.5039 79.8354V72.1719L72.5331 60.8671C72.5331 60.8671 74.1099 60.222 74.1099 59.5665C74.1099 59.1139 73.4957 58.9195 73.4957 58.9195Z" fill="white"/>
<path fill-rule="evenodd" clip-rule="evenodd" d="M58.0926 79.0519C58.3896 79.3498 58.3896 80.0053 58.3896 80.0053V84.2825C58.3896 84.2825 58.3725 85.064 58.0529 85.7668C57.7334 86.4696 57.2653 86.6358 57.2653 86.6358L56.2915 86.9906L41.5039 92.3784V84.7149L56.2915 79.3271C56.2915 79.3271 57.7957 78.754 58.0926 79.0519Z" fill="white"/>
<path fill-rule="evenodd" clip-rule="evenodd" d="M48.5533 95.0461C48.8503 95.344 48.8503 95.9995 48.8503 95.9995V100.277C48.8503 100.277 48.8332 101.058 48.5136 101.761C48.194 102.464 47.726 102.63 47.726 102.63L46.7522 102.985L41.5039 104.992V97.3281L46.7522 95.3213C46.7522 95.3213 48.2564 94.7482 48.5533 95.0461Z" fill="white"/>
</svg>
