<svg width="362" height="140" viewBox="0 0 362 140" fill="none" xmlns="http://www.w3.org/2000/svg">
<rect width="362" height="140" fill="#F08120"/>
<path d="M330.94 21.0015C330.951 21.0017 330.961 21.0045 330.97 21.0096C330.978 21.0148 330.986 21.0221 330.991 21.0309C330.997 21.0397 331 21.0497 331 21.0599C331 21.0702 330.998 21.0804 330.993 21.0896L327.492 27.945C327.477 27.9747 327.454 27.9996 327.425 28.017C327.397 28.0345 327.364 28.0437 327.331 28.0437C317.041 28.066 310.475 28.0685 307.632 28.0513C305.414 28.0381 303.847 28.1155 302.932 28.2835C298.431 29.1124 294.665 31.5944 292.05 35.3652C291.748 35.8004 284.396 46.3801 269.994 67.1043C269.333 68.0556 268.758 68.7757 268.269 69.2645C266.111 71.4156 263.627 72.8972 260.585 73.471C258.526 73.8606 256.641 74.107 254.928 74.2103C252.602 74.3499 249.805 74.2846 247.641 74.312C246.223 74.3292 243.39 74.3322 239.141 74.3211C239.131 74.3212 239.121 74.3185 239.112 74.3133C239.103 74.3081 239.096 74.3005 239.091 74.2914C239.086 74.2823 239.084 74.272 239.085 74.2617C239.085 74.2515 239.089 74.2415 239.094 74.233L248.598 60.0591C248.61 60.0413 248.626 60.0268 248.645 60.0167C248.663 60.0066 248.684 60.0014 248.706 60.0014C251.511 60.0303 254.323 60.091 256.951 59.839C258.586 59.6831 260.201 59.4433 261.796 59.1194C262.229 59.0324 262.661 58.8836 263.093 58.6731C264.412 58.0305 265.69 57.1091 266.925 55.9088C267.491 55.3603 268.194 54.4763 269.033 53.2568C270.014 51.8308 276.038 43.1917 287.105 27.3393C288.074 25.9518 289.146 24.8482 290.32 24.0285C292.358 22.6066 294.592 21.6735 297.023 21.2292C297.848 21.0774 299.285 21.0015 301.334 21.0015C317.25 20.9995 327.119 20.9995 330.94 21.0015Z" fill="white"/>
<path d="M226.402 93.3783C226.392 93.3782 226.382 93.3755 226.374 93.3705C226.366 93.3655 226.359 93.3584 226.354 93.35C226.35 93.3415 226.348 93.332 226.348 93.3225C226.349 93.3131 226.352 93.304 226.358 93.2963L236.128 78.7216C236.164 78.6688 236.212 78.6255 236.269 78.5955C236.325 78.5656 236.388 78.55 236.453 78.5501C243.279 78.5582 247.087 78.5561 247.877 78.544C251.219 78.4939 254.807 78.6381 258.216 78.207C260.298 77.9439 261.859 77.6564 262.9 77.3447C265.312 76.6252 267.397 75.2043 269.17 73.4221C269.588 73.0011 270.144 72.2922 270.838 71.2954C286.083 49.3516 293.752 38.314 293.844 38.1824C296.444 34.4435 300.3 31.8734 304.714 31.1038C305.602 30.95 307.169 30.873 309.414 30.873C319.179 30.8771 324.682 30.8776 325.921 30.8746C325.926 30.8745 325.931 30.8758 325.936 30.8783C325.94 30.8809 325.944 30.8845 325.947 30.8889C325.95 30.8933 325.951 30.8984 325.952 30.9036C325.952 30.9088 325.951 30.9139 325.948 30.9186L322.633 37.4097C322.619 37.4372 322.598 37.4602 322.572 37.4762C322.545 37.4923 322.515 37.5008 322.485 37.5008C312.588 37.5008 307.567 37.4988 307.423 37.4947C305.404 37.4492 303.829 37.8181 302.431 39.0796C302.074 39.4024 301.625 40.002 301.086 40.8784C298.815 44.5693 291.406 56.5866 278.858 76.9303C277.749 78.7287 276.829 80.0954 276.097 81.0305C275.063 82.3492 273.961 83.5743 272.792 84.7057C269.887 87.5191 266.477 89.6333 262.564 91.0481C257.582 92.85 252.412 93.3874 247.118 93.3828C235.068 93.3707 228.163 93.3692 226.402 93.3783Z" fill="white"/>
<path d="M213.595 112.393L223.44 97.7101C223.456 97.6857 223.478 97.6658 223.504 97.6521C223.529 97.6383 223.558 97.6311 223.587 97.6311C226.259 97.616 234.798 97.6033 249.203 97.5932C253.172 97.5902 256.998 97.1064 260.683 96.1419C265.048 95.0004 268.921 93.0092 272.304 90.1685C273.692 89.0036 275.154 87.4846 276.69 85.6113C277.561 84.5467 278.683 82.8768 280.056 80.6018C280.432 79.9784 288.027 67.699 302.84 43.7636C303.432 42.8062 303.897 42.1787 304.235 41.8812C304.932 41.2679 305.743 40.8201 306.669 40.5377C307.223 40.3697 308.121 40.2918 309.364 40.304C310.594 40.3151 314.484 40.3176 321.033 40.3116C321.048 40.3117 321.063 40.3157 321.076 40.3231C321.089 40.3305 321.1 40.341 321.107 40.3537C321.115 40.3664 321.119 40.3808 321.119 40.3955C321.12 40.4102 321.116 40.4247 321.109 40.4376C320.953 40.7245 320.744 41.0083 320.6 41.2801C319.645 43.0936 318.649 45.0377 317.611 47.1124C317.596 47.141 317.574 47.1651 317.547 47.1818C317.52 47.1984 317.488 47.207 317.456 47.2065C316.487 47.1974 315.372 47.1933 314.109 47.1943C312.122 47.1943 310.501 47.3704 308.997 48.5682C307.86 49.4729 307.318 50.5386 306.452 52.1082C303.054 58.2765 297.821 67.7197 290.752 80.4379C286.852 87.4573 283.819 92.8104 281.655 96.4972C280.647 98.2156 279.299 100.025 277.612 101.924C276.009 103.729 274.34 105.243 272.604 106.468C268.704 109.217 264.182 110.897 259.485 111.722C256.908 112.174 254.217 112.401 251.411 112.403C227.791 112.42 215.188 112.421 213.602 112.405C213.601 112.405 213.599 112.404 213.598 112.403C213.597 112.402 213.595 112.401 213.595 112.4C213.594 112.399 213.593 112.398 213.594 112.396C213.594 112.395 213.594 112.394 213.595 112.393Z" fill="white"/>
<path d="M77.8981 111.286H64.9716C64.9325 111.286 64.8943 111.273 64.8627 111.25C64.8311 111.226 64.8076 111.193 64.7956 111.155L63.1897 105.94C63.1843 105.923 63.1731 105.909 63.1581 105.901C63.1432 105.892 63.1257 105.89 63.1093 105.894C63.0881 105.898 63.0593 105.917 63.0229 105.952C62.1352 106.773 61.33 107.46 60.6071 108.012C57.8304 110.129 54.5093 111.64 51.0335 112.153C47.8348 112.626 44.7689 112.476 41.836 111.702C36.7012 110.346 32.5536 106.427 31.3859 101.144C30.6686 97.8909 30.928 94.2855 32.3595 91.2692C33.7142 88.4133 35.8818 86.2718 38.8622 84.8449C39.8995 84.3479 41.1086 83.887 42.4896 83.4619C44.1194 82.961 45.6662 82.5617 47.1301 82.2642C51.9616 81.2851 57.1768 80.4441 61.9689 78.6421C62.0132 78.6256 62.0513 78.5959 62.0784 78.5572C62.1055 78.5184 62.1202 78.4724 62.1206 78.4251C62.1494 75.767 62.0614 72.7749 59.5547 71.3161C59.0643 71.0307 58.4896 70.8096 57.8304 70.6527C55.5719 70.1174 53.2213 70.0192 50.7788 70.3582C47.2378 70.8485 45.6151 73.1696 44.4535 76.312C44.4399 76.3486 44.4138 76.3793 44.3798 76.3987C44.3457 76.4181 44.3058 76.425 44.267 76.4182L32.5203 74.299C32.5026 74.2957 32.4858 74.2887 32.471 74.2786C32.4561 74.2684 32.4435 74.2553 32.434 74.2401C32.4245 74.2248 32.4182 74.2077 32.4155 74.1899C32.4129 74.1721 32.414 74.154 32.4187 74.1366C33.9397 68.5442 37.2563 63.7957 42.7838 61.7115C47.3439 59.9915 52.5318 59.8701 57.3831 60.0902C60.6556 60.2375 64.227 60.7096 67.2038 62.0895C70.12 63.442 72.9589 65.7009 73.9871 68.9252C74.255 69.7621 74.4546 70.5783 74.5861 71.3738C74.946 73.5395 75.1249 75.8813 75.1229 78.3993C75.1209 80.4152 75.081 85.9925 75.0031 95.1311C74.9809 97.6723 75.0804 100.063 75.3019 102.304C75.4929 104.237 75.917 106.102 76.5742 107.901C76.9897 109.038 77.4532 110.131 77.9648 111.178C77.9705 111.19 77.9732 111.202 77.9726 111.215C77.9721 111.228 77.9683 111.24 77.9616 111.251C77.9549 111.262 77.9455 111.271 77.9344 111.277C77.9233 111.283 77.9108 111.286 77.8981 111.286ZM62.1448 87.38C62.148 87.3622 62.1464 87.3439 62.1404 87.3268C62.1344 87.3098 62.1241 87.2945 62.1104 87.2825C62.0968 87.2705 62.0802 87.2621 62.0624 87.2582C62.0445 87.2543 62.0259 87.2549 62.0083 87.26C58.5401 88.3318 54.2864 89.147 51.2671 89.8954C50.3107 90.1332 49.3133 90.4474 48.275 90.8381C47.259 91.2206 46.4027 91.7899 45.7061 92.5459C43.6012 94.829 43.9015 98.152 45.788 100.455C47.7367 102.829 50.6908 103.456 53.6934 102.853C56.9493 102.202 60.3129 99.9964 61.4791 96.7068C61.8749 95.591 61.9886 94.2703 62.0463 93.0514C62.118 91.5809 62.1408 89.8073 62.1145 87.7306C62.1135 87.6264 62.1236 87.5095 62.1448 87.38Z" fill="white"/>
<path d="M125.531 97.6139C122.985 105.071 117.447 110.382 109.647 111.859C104.933 112.752 100.279 112.606 95.6865 111.422C92.2936 110.547 89.3405 108.932 86.8272 106.579C82.8979 102.901 80.6141 97.4378 79.8725 91.9638C79.2619 87.4532 79.4024 82.9912 80.2941 78.5777C82.2367 68.9549 89.4279 61.3632 99.3806 60.1958C101.495 59.9479 103.67 59.9504 105.908 60.2034C112.328 60.929 117.862 63.9362 121.549 69.2858C123.832 72.6027 125.123 76.7788 125.731 80.8988C126.166 83.8468 126.344 86.8677 126.266 89.9615C126.266 89.981 126.258 89.9995 126.244 90.0131C126.229 90.0267 126.21 90.0344 126.191 90.0344H93.1873C93.1731 90.0343 93.159 90.0372 93.146 90.0428C93.1329 90.0484 93.121 90.0566 93.1111 90.067C93.1012 90.0773 93.0935 90.0895 93.0883 90.103C93.0832 90.1164 93.0807 90.1308 93.0811 90.1452C93.1226 91.5701 93.301 92.9146 93.6165 94.1786C94.7796 98.8344 98.4465 102.238 103.276 102.482C106.56 102.649 109.355 101.467 111 98.6082C111.583 97.5962 112.023 96.5488 112.319 95.4659C112.33 95.4288 112.353 95.3967 112.386 95.376C112.418 95.3553 112.457 95.3473 112.495 95.3536L125.482 97.5319C125.491 97.5334 125.5 97.5368 125.507 97.542C125.515 97.5471 125.521 97.5538 125.526 97.5616C125.53 97.5694 125.533 97.5782 125.534 97.5872C125.535 97.5962 125.534 97.6053 125.531 97.6139ZM93.386 81.9022L112.997 81.9356C113.007 81.9356 113.017 81.9316 113.024 81.9245C113.031 81.9174 113.035 81.9077 113.035 81.8977L113.037 80.8624C113.042 78.031 112.04 75.3139 110.251 73.3086C108.463 71.3033 106.035 70.1741 103.501 70.1693H102.925C101.67 70.167 100.427 70.4408 99.2662 70.9753C98.1058 71.5097 97.051 72.2942 96.1618 73.2841C95.2727 74.274 94.5667 75.4497 94.0841 76.7443C93.6016 78.0388 93.352 79.4268 93.3496 80.829L93.348 81.8643C93.348 81.8743 93.352 81.884 93.3591 81.8911C93.3663 81.8982 93.3759 81.9022 93.386 81.9022Z" fill="white"/>
<path d="M143.98 68.0521C143.98 68.0663 143.984 68.0801 143.992 68.0916C144.001 68.103 144.013 68.1114 144.026 68.1154C144.04 68.1194 144.054 68.1188 144.067 68.1137C144.08 68.1085 144.091 68.0992 144.099 68.087C145.004 66.6257 145.971 65.2822 147 64.0567C147.714 63.205 148.739 62.1713 149.717 61.5807C151.172 60.7023 152.669 60.1993 154.208 60.0718C157.699 59.7849 160.947 60.6942 163.99 62.4263C164.025 62.4463 164.052 62.4779 164.066 62.5156C164.08 62.5533 164.081 62.5947 164.068 62.6327L160.043 73.9907C160.039 74.0009 160.033 74.0101 160.025 74.0176C160.017 74.025 160.008 74.0306 159.997 74.0338C159.987 74.0371 159.976 74.0379 159.965 74.0362C159.954 74.0345 159.944 74.0303 159.935 74.0241C159.835 73.9512 159.475 73.7397 158.856 73.3896C156.682 72.163 154.293 71.5664 151.842 72.1296C149.783 72.6032 148.264 73.8014 147.283 75.7243C146.513 77.2373 145.987 78.8236 145.706 80.4833C145.235 83.2735 145.125 86.0287 145.007 89.335C144.954 90.8065 144.928 92.4192 144.928 94.173C144.926 98.9862 144.926 104.662 144.927 111.199C144.927 111.222 144.918 111.243 144.902 111.259C144.886 111.275 144.864 111.284 144.842 111.284H131.755C131.733 111.284 131.712 111.276 131.697 111.26C131.681 111.245 131.673 111.224 131.673 111.202V61.265C131.673 61.2336 131.685 61.2035 131.707 61.1813C131.729 61.1591 131.76 61.1466 131.791 61.1466H143.889C143.914 61.1466 143.937 61.1563 143.954 61.1737C143.971 61.1911 143.98 61.2146 143.98 61.2392V68.0521Z" fill="white"/>
<path d="M161.966 84.1608C162.186 79.218 163.968 74.1022 166.826 70.0157C170.863 64.2426 177.461 60.8847 184.448 60.1773C189.342 59.6824 194.513 60.241 198.983 62.2555C205.993 65.416 211.217 71.8434 212.888 79.4169C214.039 84.6298 213.84 90.5669 212.08 95.6083C209.176 103.917 201.995 110.324 193.236 111.921C187.26 113.01 181.483 112.331 175.905 109.885C170.526 107.525 166.676 103.722 164.356 98.4743C162.424 94.1069 161.749 89.0382 161.966 84.1608ZM175.514 86.2071C175.511 91.4974 176.835 96.683 181.494 99.7905C183.351 101.029 185.514 101.603 187.737 101.605C189.959 101.606 192.123 101.034 193.982 99.7965C198.644 96.6937 199.974 91.5111 199.975 86.2192C199.978 80.9288 198.656 75.7447 193.997 72.6373C192.138 71.3971 189.975 70.8233 187.752 70.8233C185.531 70.8218 183.367 71.3925 181.507 72.6297C176.846 75.7341 175.517 80.9167 175.514 86.2071Z" fill="white"/>
<path d="M102.564 116.818H104.279C104.294 116.818 104.308 116.821 104.321 116.828C104.335 116.834 104.346 116.843 104.356 116.854C104.365 116.866 104.372 116.879 104.375 116.893C104.379 116.908 104.379 116.922 104.376 116.937L103.963 118.921C103.959 118.943 103.947 118.963 103.929 118.978C103.911 118.992 103.889 119 103.866 119H102.151C102.137 119 102.122 118.997 102.109 118.99C102.096 118.984 102.084 118.975 102.075 118.964C102.065 118.952 102.059 118.939 102.055 118.925C102.052 118.911 102.051 118.896 102.054 118.881L102.467 116.897C102.471 116.875 102.483 116.855 102.501 116.84C102.519 116.826 102.541 116.818 102.564 116.818Z" fill="white"/>
</svg>
