<svg width="362" height="140" viewBox="0 0 362 140" fill="none" xmlns="http://www.w3.org/2000/svg">
<rect width="362" height="140" fill="#B4975A"/>
<path d="M284.609 56.734C286.434 55.019 289.854 53.6401 296.119 53.3564C308.501 52.776 310.418 52.1215 314.927 49.7694C318.94 47.6791 323.222 43.5902 324.665 39.3966C322.386 40.8018 319.672 41.8272 316.857 42.5822C310.266 44.3364 302.959 44.6375 298.764 44.6375C297.836 44.6375 297.065 44.6244 296.481 44.607C291.418 44.4543 289.166 44.1008 283.838 44.1008C283.014 44.1008 282.112 44.1095 281.115 44.1313C276.244 44.2186 272.889 47.2733 271.521 48.805C271.395 48.9446 271.295 49.0624 271.203 49.1715C272.933 51.1832 274.88 52.9244 276.165 54.155C277.133 55.0976 279.707 57.0831 282.779 59.6621C283.005 58.8984 283.511 57.7639 284.609 56.734Z" fill="white"/>
<path d="M281.085 43.0142C282.087 42.9968 282.998 42.9837 283.83 42.9837C289.223 42.9837 291.506 43.3415 296.508 43.4899C297.079 43.5073 297.841 43.5204 298.756 43.5204C302.899 43.5204 310.136 43.215 316.562 41.5C323.119 39.9639 327.802 36.5733 329.44 32C324.13 37.3326 310.327 37.5988 302.389 37.0096C294.151 36.4031 279.578 33.7499 276.977 33.5361C275.456 33.4444 273.6 33.3833 271.858 34.1863C270.111 34.9979 268.533 36.6998 267.745 39.1305C267.523 39.833 267.422 40.5225 267.422 41.212C267.392 43.6644 268.747 46.1125 270.476 48.2944C271.792 46.7584 275.452 43.1408 281.085 43.0142Z" fill="white"/>
<path d="M282.387 94.123C282.387 92.2335 281.92 90.4793 281.258 89.2007C278.204 83.2615 271.848 77.2962 266.271 71.0778C260.651 64.7372 249.611 55.1499 249.533 45.6979C249.533 44.4586 249.881 43.3415 250.386 42.1851C248.369 44.4717 241.39 53.5964 245.533 66.4696C247.019 71.0865 251.994 77.2002 257.244 84.8456C262.298 92.2117 263.448 101.738 263.173 106.892C278.897 106.176 282.334 99.6651 282.387 94.123Z" fill="white"/>
<path d="M315.438 50.7512C310.842 53.1731 308.507 53.9106 296.169 54.4648C286.052 54.9623 284.31 59.3654 283.922 60.6352C285.203 61.7349 286.54 62.9175 287.869 64.1655C290.217 66.3867 292.596 68.6515 294.578 70.9905C294.561 64.9074 299.214 64.135 300.308 63.4673C301.741 62.5989 304.717 62.1102 311.108 58.4271C317.948 54.4866 319.455 49.0799 319.756 47.5264C318.436 48.8311 316.972 49.9439 315.438 50.7512Z" fill="white"/>
<path d="M286.779 65.3352C281.804 60.6528 276.842 56.7472 275.191 55.1457C272.498 52.4707 266.098 47.365 266.037 41.2164C266.037 40.3917 266.159 39.5494 266.429 38.7116C267.322 35.8882 269.888 34.2343 271.906 33.3223C267.784 32.7986 255.315 33.7543 251.782 41.1859C251.128 42.5386 250.841 43.9132 250.836 45.3271C250.754 53.6969 261.288 63.5242 267.052 69.891C272.572 76.0614 279.26 81.8783 282.505 88.1535C283.277 89.6546 283.965 91.7493 283.891 93.9181C283.712 99.1634 281.882 101.062 280.959 101.69C300.921 90.955 297.144 80.5823 297.144 80.5823C296.316 75.7734 291.746 69.987 286.779 65.3352Z" fill="white"/>
<path d="M223.389 69.5462L230.878 47.605H226.373L218.875 69.5462H223.389Z" fill="white"/>
<path d="M156.672 69.5287L164.162 47.605H159.657L152.172 69.5287H156.672Z" fill="white"/>
<path d="M123.927 69.5287L131.412 47.605H126.902L119.422 69.5287H123.927Z" fill="white"/>
<path d="M219.015 47.6049L213.238 64.7023H209.675L210.293 62.8608C211.008 60.7575 210.049 59.0512 208.154 59.0512H195.611C194.836 59.0512 194.03 59.3305 193.298 59.8192L197.419 47.6049H192.914L187.137 64.7023H184.183L186.179 58.8156H181.665L179.683 64.7023H168.625L169.998 60.6222H164.831L161.672 69.9738L157.403 69.9694C157.037 71.379 157.176 72.5572 157.808 73.5128C158.439 74.4598 159.685 74.8133 160.992 74.8133C162.243 74.8133 163.463 74.5209 164.648 73.5696C165.837 72.6139 166.377 71.3746 166.852 69.9738L167 69.5243L216.118 69.5374L223.52 47.6006H219.015V47.6049ZM205.074 64.9991H191.529C191.847 64.0434 192.296 63.2754 193.145 63.2754H204.102C204.961 63.2797 205.392 64.0434 205.074 64.9991Z" fill="white"/>
<path d="M139.376 65.2042C136.914 65.8238 135.302 68.4028 134.849 69.9694C134.483 71.3789 134.618 72.5572 135.254 73.5128C135.886 74.4598 138.038 75.3587 139.332 75.3587C140.595 75.3587 143.715 75.3587 146.338 73.5696C147.588 72.7143 148.773 71.3746 149.244 69.9738L149.396 69.5243L151.03 64.698L152.407 60.6178H147.231L144.22 69.5287H137.925L139.376 65.2042Z" fill="white"/>
<path d="M124.153 47.605H119.648L113.806 64.7024H103.158L103.345 64.1482C103.633 63.2929 104.487 62.6034 105.254 62.6034H110.613L112.264 57.7552C111.358 57.7552 111.305 58.2963 110.355 58.2963H102.4C101.446 58.2963 100.165 59.156 99.8078 60.2033L98.2873 64.7024H92.7412C92.7412 62.4463 91.2686 60.836 88.8811 60.836C86.4849 60.836 83.8753 62.4463 82.2851 64.7024H75.9373L81.771 47.605H77.2705L69.7812 69.5287H80.8648C81.1262 71.4226 82.5378 72.723 84.6813 72.723C86.8335 72.723 89.16 71.4226 90.7589 69.5287H116.673L124.153 47.605ZM88.3322 66.6792C87.9967 67.6043 87.0252 68.3549 86.1538 68.3549C85.2825 68.3549 84.8381 67.6043 85.1736 66.6792C85.496 65.7453 86.4675 64.9904 87.3432 64.9904C88.2146 64.9904 88.6546 65.7453 88.3322 66.6792Z" fill="white"/>
<path d="M66.1659 60.5087L64.6541 64.7416L57.0647 64.7503L59.9097 56.4722C59.4827 56.5725 58.1539 58.3006 56.2631 58.3006H48.299C47.3579 58.3006 46.0727 59.1603 45.7154 60.2076L45.5717 60.6309L44.7787 62.9699L43.646 66.3387L42.5655 69.5287H36.2701L37.7339 65.2041C35.2593 65.8238 33.6517 68.4028 33.1986 69.9694C32.837 71.3789 32.9677 72.5571 33.6037 73.5128C34.2398 74.4598 36.3877 75.3587 37.6816 75.3587C38.9407 75.3587 42.0601 75.3587 44.6829 73.5695C45.9333 72.7142 47.1227 71.3746 47.5932 69.9738L47.7413 69.5287L49.3707 64.7023L49.9066 63.1095H53.1132L50.9479 69.5287L66.0309 69.3803C66.3489 69.3803 66.68 69.2712 67.0198 69.0399C67.3466 68.8086 67.5775 68.5206 67.6995 68.1628L70.2787 60.5087H66.1659Z" fill="white"/>
<path d="M67.0216 56.4591C66.856 57.7639 67.662 58.8156 68.8296 58.8156C70.0016 58.8156 71.0864 57.7639 71.2519 56.4591C71.4306 55.1631 70.6246 54.1071 69.4482 54.1071C68.2763 54.1071 67.1915 55.1587 67.0216 56.4591Z" fill="white"/>
<path d="M38.3808 78.3262C38.2239 79.4913 38.9471 80.4295 39.9884 80.4295C41.0296 80.4295 41.9881 79.4913 42.1493 78.3262C42.3018 77.1698 41.5829 76.2272 40.5417 76.2272C39.5004 76.2315 38.5332 77.1698 38.3808 78.3262Z" fill="white"/>
<path d="M33.4433 78.3262C33.2864 79.4913 34.0096 80.4295 35.0509 80.4295C36.0878 80.4295 37.0593 79.4913 37.2162 78.3262C37.3643 77.1698 36.6498 76.2272 35.6042 76.2272C34.5673 76.2315 33.5957 77.1698 33.4433 78.3262Z" fill="white"/>
<path d="M177.442 73.6219C177.29 74.7783 178.004 75.7166 179.05 75.7166C180.091 75.7166 181.063 74.7783 181.211 73.6219C181.363 72.4655 180.649 71.5229 179.603 71.5229C178.562 71.5273 177.595 72.4655 177.442 73.6219Z" fill="white"/>
<path d="M172.505 73.6219C172.352 74.7783 173.075 75.7166 174.112 75.7166C175.154 75.7166 176.116 74.7783 176.282 73.6219C176.426 72.4655 175.711 71.5229 174.67 71.5229C173.62 71.5273 172.657 72.4655 172.505 73.6219Z" fill="white"/>
<path d="M140.741 59.8236C140.571 61.1197 141.377 62.1757 142.554 62.1757C143.721 62.1757 144.806 61.1197 144.976 59.8236C145.15 58.5232 144.344 57.4716 143.177 57.4716C142 57.4716 140.911 58.5232 140.741 59.8236Z" fill="white"/>
<path d="M102.814 51.864C101.638 51.864 100.553 52.9157 100.383 54.2161C100.357 54.4037 100.357 54.5783 100.366 54.7529V54.7572C100.366 55.1456 97.9606 55.2809 97.9606 55.2809L97.3594 57.1922C97.3594 57.1922 100.344 56.8824 102.374 56.5595C102.461 56.5507 102.548 56.542 102.631 56.5202H102.64C103.624 56.2889 104.47 55.3463 104.609 54.2161C104.783 52.9157 103.977 51.864 102.814 51.864ZM103.145 54.2423C103.093 54.6918 102.718 55.0496 102.313 55.0496C101.917 55.0496 101.638 54.6918 101.699 54.2423C101.755 53.8015 102.13 53.4393 102.531 53.4393C102.927 53.4437 103.206 53.8015 103.145 54.2423Z" fill="white"/>
<path d="M32.828 99.3117L34.5924 93.6911C36.5051 87.5687 41.8159 86.3992 48.7736 86.3992C55.7357 86.3992 60.3146 87.5687 58.3976 93.6911L56.6331 99.3117C54.7162 105.434 49.414 106.599 42.4476 106.599C35.4856 106.599 30.9154 105.434 32.828 99.3117ZM49.7539 98.7269L51.1611 94.2496C52.0847 91.3084 50.9084 91.0161 47.3402 91.0161C43.7677 91.0161 42.513 91.3084 41.4848 94.2496L40.0776 98.7269C39.2585 101.694 40.3259 101.987 43.8984 101.987C47.4622 101.987 48.8259 101.694 49.7539 98.7269Z" fill="white"/>
<path d="M64.4912 106.447H57.625L63.8551 86.5607H74.7295L75.7229 99.0499H75.9668L84.5409 86.5607H95.6897L89.4596 106.447H82.6021L88.0655 91.195H87.8258L76.5288 106.447H70.5906L68.7782 91.195H68.5822L64.4912 106.447Z" fill="white"/>
<path d="M100.964 103.017L98.6242 106.442H91.4922L105.438 86.5563H115.859L117.454 106.442H110.453L110.191 103.017H100.964ZM109.542 90.5317H109.477L103.656 99.1502H110.039L109.542 90.5317Z" fill="white"/>
<path d="M126.112 106.447H119.25L125.476 86.5607H137.073L139.661 101.834H139.936L144.31 86.5607H151.172L144.946 106.447H133.248L130.76 91.1688H130.486L126.112 106.447Z" fill="white"/>
<path d="M167.402 103.017L165.058 106.442H157.922L171.872 86.5563H182.298L183.892 106.442H176.895L176.625 103.017H167.402ZM175.976 90.5317H175.906L170.086 99.1502H176.468L175.976 90.5317Z" fill="white"/>
<path d="M192.463 106.447H185.602L191.832 86.5607H198.689L192.463 106.447Z" fill="white"/>
<path d="M202.77 86.5563H216.01C221.918 86.6348 224.523 87.6123 222.972 92.574C221.935 95.8904 221.325 97.8236 216.184 98.7007L216.115 98.9146C218.903 98.9931 220.349 100.184 219.639 102.441L218.389 106.446H211.527L212.403 103.658C212.934 102.174 212.425 101.166 210.368 101.166H205.053L203.393 106.446H196.531L202.77 86.5563ZM211.815 96.5537C214.764 96.5537 214.934 95.7028 215.631 93.4511C216.184 91.675 215.762 91.1732 213.501 91.1732H208.185L206.499 96.5537H211.815Z" fill="white"/>
</svg>
