<svg width="362" height="140" viewBox="0 0 362 140" fill="none" xmlns="http://www.w3.org/2000/svg">
<rect width="362" height="140" fill="white"/>
<path d="M70.1661 42.5H66.1601C66.0544 42.5 65.9688 42.5604 65.9688 42.6349V61.088C65.9688 61.1624 66.0544 61.2228 66.1601 61.2228H70.1661C70.2718 61.2228 70.3575 61.1624 70.3575 61.088V42.6349C70.3575 42.5604 70.2718 42.5 70.1661 42.5Z" fill="#CBA243"/>
<path d="M51.7551 47.061C49.9668 47.3197 47.956 47.5399 46.3864 48.0409C43.9577 48.819 41.9157 49.8741 40.2601 51.2063C36.215 54.4635 33.8345 58.3529 33.1187 62.8744C32.9209 64.1167 32.8636 65.693 32.9469 67.6033C33.1708 72.7285 35.5434 77.2014 40.0649 81.0219C41.8298 82.5138 44.7152 84.1296 47.6397 84.6773C49.0454 84.9379 49.9109 85.0893 50.2363 85.1315C50.7621 85.1975 51.2592 85.1746 51.7278 85.0627C51.7122 84.9929 51.7304 84.9874 51.7825 85.0462C51.8128 85.0782 51.8265 85.1171 51.8215 85.1563L51.5911 86.9124C45.91 86.7693 40.7365 84.3498 37.4762 81.1733C30.7604 74.6278 29.546 66.1059 32.5525 58.3932C34.9734 52.1862 41.576 45.8444 51.4779 45.4067C51.535 45.4046 51.5914 45.4171 51.6365 45.4419C51.6817 45.4666 51.7127 45.502 51.7239 45.5416C51.8645 46.0352 51.8749 46.5417 51.7551 47.061Z" fill="#CBA243"/>
<path d="M51.7593 47.061L51.7984 51.0714C48.6747 51.1687 45.9858 51.9596 43.7316 53.4441C41.6075 54.8424 40.0248 56.3839 38.9836 58.0684C35.0127 64.4846 35.9107 74.7599 44.7467 79.486C46.7224 80.5411 48.991 81.1237 51.5524 81.2338C51.618 81.2367 51.6796 81.257 51.7246 81.2908C51.7696 81.3246 51.7946 81.3692 51.7945 81.4155L51.7632 84.6277L51.732 85.0626C51.2634 85.1746 50.7663 85.1975 50.2404 85.1315C49.9151 85.0892 49.0495 84.9379 47.6439 84.6773C44.7194 84.1295 41.8339 82.5138 40.0691 81.0219C35.5476 77.2014 33.1749 72.7285 32.9511 67.6032C32.8678 65.693 32.9251 64.1167 33.1229 62.8744C33.8387 58.3528 36.2192 54.4635 40.2643 51.2063C41.9198 49.8741 43.9619 48.8189 46.3905 48.0409C47.9602 47.5399 49.971 47.3197 51.7593 47.061Z" fill="#FDFDFD"/>
<path d="M63.8372 63.9699H60.4675C60.4614 63.9699 60.4553 63.969 60.4496 63.9674C60.4439 63.9657 60.4388 63.9633 60.4344 63.9602C60.4301 63.9572 60.4266 63.9535 60.4242 63.9495C60.4219 63.9455 60.4207 63.9412 60.4207 63.9369V60.6256C60.4207 60.6192 60.4181 60.6129 60.4132 60.6075C60.4083 60.6022 60.4013 60.5979 60.3931 60.5953C60.3848 60.5927 60.3756 60.5918 60.3667 60.5928C60.3577 60.5937 60.3493 60.5965 60.3426 60.6008L57.7422 62.434C57.7354 62.4382 57.727 62.441 57.7181 62.442C57.7091 62.443 57.7 62.4421 57.6917 62.4395C57.6834 62.4369 57.6764 62.4326 57.6715 62.4272C57.6666 62.4219 57.664 62.4156 57.6641 62.4092V59.1557C57.664 59.151 57.6653 59.1463 57.668 59.1419L63.7122 49.8851C63.7147 49.8811 63.7184 49.8775 63.7229 49.8745C63.7274 49.8715 63.7327 49.8692 63.7386 49.8676C63.7444 49.8661 63.7506 49.8654 63.7568 49.8656C63.763 49.8657 63.7691 49.8668 63.7747 49.8686L63.8567 49.8961C63.8649 49.8988 63.8718 49.903 63.8767 49.9084C63.8815 49.9138 63.8841 49.92 63.884 49.9264V63.9369C63.884 63.9456 63.8791 63.954 63.8703 63.9602C63.8615 63.9664 63.8496 63.9699 63.8372 63.9699Z" fill="#CBA243"/>
<path d="M72.4726 49.9319C72.4824 49.9265 72.4938 49.9228 72.506 49.921C72.5181 49.9192 72.5307 49.9194 72.5427 49.9215C72.5547 49.9236 72.5659 49.9277 72.5754 49.9333C72.5849 49.9389 72.5925 49.9459 72.5976 49.9539L78.4271 58.8391C78.5632 59.0505 78.6337 59.2804 78.634 59.5135L78.6301 62.3624C78.6291 62.3755 78.6229 62.3881 78.6121 62.3987C78.6013 62.4094 78.5865 62.4177 78.5693 62.4226C78.552 62.4275 78.5332 62.4289 78.5149 62.4265C78.4966 62.4241 78.4797 62.4181 78.4661 62.4092L76.139 60.6943C76.119 60.6793 76.0931 60.6689 76.0645 60.6645C76.036 60.6601 76.0062 60.6618 75.9792 60.6696C75.9521 60.6773 75.929 60.6907 75.9129 60.7079C75.8969 60.7251 75.8886 60.7453 75.8891 60.7659L75.8774 63.8873C75.8774 63.907 75.8659 63.9259 75.8454 63.9398C75.8249 63.9538 75.7971 63.9616 75.7681 63.9616L72.5195 63.9699C72.4946 63.9699 72.4708 63.9629 72.4532 63.9505C72.4357 63.9381 72.4258 63.9213 72.4258 63.9038L72.4219 49.9869C72.4218 49.9769 72.4237 49.9674 72.4272 49.96C72.4307 49.9525 72.4357 49.9475 72.4414 49.9456C72.4492 49.9438 72.4596 49.9392 72.4726 49.9319Z" fill="#CBA243"/>
<path d="M51.7942 51.0714L51.7981 54.6828C48.5261 54.8204 46.1678 55.8856 44.0671 57.7298C42.6745 58.9538 41.6034 60.5576 40.8537 62.5413C39.7604 65.437 40.0845 69.0813 41.9391 72.0018C42.6472 73.1175 43.255 73.9442 43.7626 74.4818C45.5743 76.3958 48.1474 77.4353 51.4819 77.6005C51.7682 77.6133 51.9049 77.7216 51.8918 77.9253L51.9231 80.9531C51.9245 81.0028 51.9513 81.0506 51.9986 81.0875C52.046 81.1244 52.1107 81.148 52.1808 81.154C52.8133 81.2054 53.5148 81.1678 54.2853 81.0411C58.9708 80.2787 62.4615 77.8014 64.527 74.7763C66.3803 72.066 67.3057 69.1694 67.3031 66.0866L71.2701 66.2737C71.2415 68.1363 71.0645 69.708 70.7391 70.9888C70.1092 73.4753 68.7868 75.9287 66.7721 78.3492C65.2884 80.1291 63.4623 81.6173 61.294 82.8138C60.245 83.3918 58.8875 83.9221 57.2216 84.4048C56.8207 84.5222 56.1543 84.6525 55.2224 84.7956C54.543 84.8984 53.8689 85.0186 53.1999 85.1562C52.5986 85.2791 52.1183 85.103 51.7591 84.6277L51.7903 81.4155C51.7905 81.3692 51.7655 81.3245 51.7205 81.2908C51.6755 81.257 51.6139 81.2366 51.5482 81.2338C48.9869 81.1237 46.7183 80.5411 44.7426 79.486C35.9066 74.7598 35.0086 64.4846 38.9795 58.0684C40.0207 56.3838 41.6034 54.8424 43.7274 53.4441C45.9817 51.9596 48.6706 51.1687 51.7942 51.0714Z" fill="#075AA3"/>
<path d="M51.7971 54.6828L51.8401 58.0271C51.8411 58.0794 51.8153 58.1303 51.7673 58.1707C51.7194 58.211 51.6525 58.2382 51.5785 58.2474C48.3143 58.6547 46.1629 60.0448 45.1243 62.4175C43.9568 65.0792 43.9685 68.4841 45.7841 71.0605C46.9399 72.701 48.939 73.5047 51.4223 73.6368C51.5372 73.6431 51.6445 73.6792 51.7227 73.7379C51.8009 73.7966 51.8442 73.8735 51.844 73.9534V75.2443C51.8441 75.2834 51.862 75.3204 51.8948 75.3489C51.9572 75.4021 52.0249 75.4361 52.0978 75.4508C51.9182 76.0563 51.8245 76.7243 51.8167 77.4546C51.8141 77.5739 51.8909 77.6372 52.047 77.6446C51.9221 77.6556 51.87 77.7491 51.8909 77.9253C51.9039 77.7216 51.7672 77.6134 51.4809 77.6005C48.1464 77.4354 45.5733 76.3958 43.7616 74.4819C43.254 73.9442 42.6462 73.1175 41.9382 72.0018C40.0835 69.0814 39.7594 65.437 40.8527 62.5413C41.6024 60.5577 42.6735 58.9538 44.0661 57.7299C46.1668 55.8857 48.5251 54.8204 51.7971 54.6828Z" fill="#D81311"/>
<path d="M96.8744 66.4637C102.216 65.3929 109.166 65.5719 114.051 67.6693C117.725 69.2465 119.704 72.5716 119.369 75.6572C118.724 81.5366 113.387 86.2242 105.414 87.8207C100.072 88.8914 93.1222 88.7125 88.2376 86.6151C84.5634 85.0379 82.5838 81.7128 82.9196 78.6272C83.5638 72.7478 88.9014 68.0602 96.8744 66.4637ZM94.8324 75.2746C93.9577 76.6977 93.2744 78.5749 93.5517 80.1879C93.9695 82.6679 97.3 83.7277 100.572 83.3781C103.883 83.0258 106.085 81.2146 107.409 79.0538C108.284 77.6308 108.967 75.7535 108.69 74.1405C108.272 71.6605 104.941 70.6008 101.669 70.9503C98.3582 71.3027 96.156 73.1138 94.8324 75.2746Z" fill="#075AA3"/>
<path d="M63.8425 66.0618C63.741 67.3518 63.4208 68.7272 62.882 70.1878C61.5427 73.835 57.8295 77.4408 52.0429 77.6445C51.8868 77.6371 51.81 77.5738 51.8126 77.4546C51.8204 76.7242 51.9141 76.0563 52.0937 75.4507C54.754 75.3406 56.8273 74.5736 58.3136 73.1496C59.9431 71.5898 60.9245 69.8768 61.2577 68.0106C61.3618 67.4252 61.4568 66.8426 61.5427 66.2627C61.5492 66.2237 61.5751 66.1876 61.6159 66.1609C61.6567 66.1341 61.7096 66.1185 61.7653 66.1168L63.8425 66.0618Z" fill="#CBA243"/>
<path d="M67.3064 66.0865C67.309 69.1694 66.3836 72.066 64.5302 74.7763C62.4647 77.8014 58.974 80.2787 54.2886 81.0411C53.5181 81.1677 52.8166 81.2054 52.184 81.154C52.1139 81.148 52.0492 81.1244 52.0019 81.0875C51.9545 81.0506 51.9277 81.0028 51.9263 80.953L51.8951 77.9252C51.8743 77.7491 51.9263 77.6555 52.0513 77.6445C57.8378 77.4408 61.551 73.835 62.8903 70.1878C63.4291 68.7272 63.7493 67.3518 63.8508 66.0618L67.3064 66.0865Z" fill="#FDFDFD"/>
<path d="M51.5938 86.9124L51.8241 85.1563C51.8291 85.1171 51.8154 85.0782 51.7851 85.0462C51.733 84.9874 51.7148 84.9929 51.7304 85.0627L51.7616 84.6278C52.1209 85.1031 52.6011 85.2792 53.2024 85.1563C53.8714 85.0186 54.5456 84.8984 55.225 84.7957C56.1569 84.6525 56.8232 84.5223 57.2241 84.4048C58.8901 83.9222 60.2475 83.3919 61.2966 82.8138C63.4649 81.6174 65.2909 80.1292 66.7746 78.3492C68.7894 75.9288 70.1117 73.4754 70.7417 70.9889C71.067 69.7081 71.2441 68.1364 71.2727 66.2738L74.6033 66.1417C74.6246 66.1405 74.6461 66.1425 74.6663 66.1473C74.6866 66.1521 74.7053 66.1598 74.7213 66.1698C74.7374 66.1798 74.7504 66.1919 74.7596 66.2056C74.7688 66.2192 74.7741 66.2339 74.7751 66.249C75.2085 73.4634 71.7061 81.3467 63.6666 85.9655C60.4258 87.8281 56.6228 88.774 52.2575 88.8034C52.2059 88.8038 52.1547 88.7969 52.1069 88.7832C52.0591 88.7696 52.0156 88.7493 51.9789 88.7237C51.9422 88.6982 51.9131 88.6677 51.8933 88.6341C51.8734 88.6005 51.8632 88.5645 51.8632 88.5281V87.061C51.8633 87.0405 51.8567 87.0202 51.8438 87.0016C51.831 86.983 51.8122 86.9666 51.789 86.9537C51.7187 86.9151 51.6536 86.9014 51.5938 86.9124Z" fill="#D81311"/>
<path d="M155.421 87.8868C155.432 87.9064 155.436 87.9276 155.432 87.9485C155.429 87.9695 155.418 87.9895 155.401 88.0069C155.384 88.0242 155.362 88.0384 155.335 88.0482C155.309 88.0579 155.279 88.063 155.249 88.0629H144.883C144.761 88.0628 144.641 88.0372 144.54 87.9891C144.438 87.9411 144.359 87.8729 144.313 87.7932C142.824 85.2095 141.326 82.9276 139.819 80.9476C138.837 79.6594 137.508 79.0795 135.832 79.208C135.772 79.2127 135.716 79.2303 135.671 79.2585C135.626 79.2866 135.595 79.3238 135.582 79.3649L132.806 87.8235C132.783 87.8946 132.727 87.9581 132.646 88.0036C132.565 88.0491 132.464 88.0739 132.361 88.0739H122.533C122.495 88.0737 122.458 88.0676 122.424 88.0559C122.39 88.0443 122.36 88.0274 122.337 88.0066C122.313 87.9857 122.296 87.9614 122.288 87.9355C122.279 87.9095 122.279 87.8825 122.287 87.8565L129.335 66.3618C129.348 66.3221 129.38 66.2867 129.425 66.2616C129.47 66.2366 129.525 66.2234 129.581 66.2242C134.584 66.2664 140.326 66.2719 146.808 66.2407C149.525 66.227 153.016 66.3618 155.023 67.4216C158.986 69.5135 159.041 73.5047 156.136 76.1334C154.394 77.7051 151.134 78.6217 148.37 78.8364C148.329 78.84 148.29 78.8518 148.259 78.8706C148.228 78.8893 148.205 78.9141 148.193 78.9419C148.182 78.9696 148.182 78.9992 148.194 79.0269C148.206 79.0546 148.229 79.0793 148.26 79.0979C149.052 79.5603 149.762 80.1439 150.392 80.8485C152.381 83.0707 154.057 85.4168 155.421 87.8868ZM137.234 75.1012C139.644 75.1599 142.112 75.0911 144.637 74.8947C146.54 74.7461 147.703 74.0653 148.128 72.8524C148.733 71.1265 146.402 70.7329 144.59 70.6806C143.041 70.6384 141.076 70.6219 138.694 70.631C138.613 70.632 138.535 70.6519 138.473 70.6873C138.41 70.7228 138.367 70.7719 138.351 70.8265L137.054 74.936C137.048 74.9551 137.048 74.975 137.054 74.9942C137.06 75.0134 137.072 75.0315 137.089 75.0472C137.106 75.0629 137.128 75.0759 137.153 75.0852C137.178 75.0946 137.206 75.1 137.234 75.1012Z" fill="#075AA3"/>
<path d="M190.798 78.8391H174.387C174.33 78.8394 174.276 78.8532 174.232 78.8782C174.188 78.9032 174.157 78.9379 174.145 78.9768L172.856 82.8909C172.848 82.9168 172.848 82.9437 172.857 82.9695C172.865 82.9953 172.882 83.0195 172.906 83.0401C172.929 83.0608 172.959 83.0774 172.993 83.0887C173.027 83.1001 173.065 83.1058 173.102 83.1056H191.344C191.382 83.1058 191.418 83.1118 191.452 83.1234C191.485 83.1349 191.515 83.1515 191.538 83.1721C191.561 83.1927 191.578 83.2167 191.586 83.2424C191.594 83.268 191.594 83.2946 191.586 83.3203L190.075 87.9281C190.063 87.9669 190.032 88.0017 189.988 88.0267C189.944 88.0516 189.89 88.0654 189.833 88.0657H160.826C160.789 88.0655 160.752 88.0594 160.719 88.0479C160.685 88.0364 160.656 88.0197 160.632 87.9991C160.609 87.9786 160.593 87.9546 160.584 87.9289C160.576 87.9033 160.576 87.8767 160.584 87.851L167.616 66.4004C167.629 66.3615 167.659 66.3268 167.703 66.3018C167.747 66.2768 167.802 66.263 167.858 66.2628H195.538C195.575 66.2629 195.612 66.269 195.645 66.2805C195.679 66.292 195.708 66.3087 195.732 66.3293C195.755 66.3499 195.771 66.3739 195.78 66.3995C195.788 66.4252 195.788 66.4518 195.78 66.4775L194.351 70.8265C194.338 70.8653 194.308 70.9001 194.264 70.9251C194.22 70.9501 194.165 70.9638 194.109 70.9641H177.093C177.036 70.9644 176.981 70.9781 176.938 71.0031C176.894 71.0281 176.863 71.0629 176.851 71.1017L175.835 74.1984C175.827 74.224 175.827 74.2506 175.836 74.2763C175.844 74.3019 175.86 74.3259 175.884 74.3465C175.907 74.3671 175.936 74.3838 175.97 74.3953C176.003 74.4068 176.04 74.4129 176.077 74.413H192.137C192.174 74.4132 192.211 74.4193 192.245 74.4308C192.278 74.4423 192.308 74.459 192.331 74.4796C192.354 74.5002 192.37 74.5242 192.379 74.5498C192.387 74.5755 192.387 74.6021 192.379 74.6277L191.04 78.7015C191.027 78.7404 190.997 78.7751 190.953 78.8001C190.909 78.8251 190.854 78.8389 190.798 78.8391Z" fill="#075AA3"/>
<path d="M212.949 78.3987C212.9 78.3271 212.265 77.3922 211.044 75.5939C211.028 75.5712 211.002 75.5525 210.97 75.5405C210.938 75.5285 210.902 75.5236 210.866 75.5266C210.83 75.5296 210.797 75.5403 210.77 75.5573C210.743 75.5742 210.724 75.5966 210.716 75.6214L206.722 87.8069C206.699 87.8781 206.642 87.9417 206.56 87.9872C206.478 88.0327 206.377 88.0575 206.273 88.0574H197.023C196.982 88.0573 196.941 88.0506 196.904 88.0381C196.867 88.0255 196.834 88.0073 196.809 87.9848C196.783 87.9623 196.765 87.9361 196.757 87.9082C196.748 87.8802 196.748 87.8513 196.757 87.8234L203.739 66.527C203.763 66.451 203.824 66.3832 203.91 66.3347C203.997 66.2862 204.104 66.2599 204.215 66.26L213.391 66.2545C213.522 66.2545 213.652 66.2751 213.773 66.315C213.914 66.3646 214.139 66.6343 214.449 67.1243C215.404 68.6419 217.363 71.5687 220.325 75.9049C220.375 75.9765 221.01 76.9114 222.231 78.7097C222.247 78.7325 222.273 78.7511 222.304 78.7631C222.336 78.7752 222.372 78.78 222.408 78.777C222.444 78.774 222.478 78.7633 222.505 78.7463C222.531 78.7294 222.55 78.707 222.559 78.6822L226.553 66.4967C226.576 66.4255 226.633 66.3619 226.714 66.3164C226.796 66.2709 226.897 66.2461 227.002 66.2462H236.252C236.293 66.2464 236.334 66.253 236.371 66.2655C236.408 66.2781 236.44 66.2963 236.466 66.3188C236.491 66.3413 236.509 66.3675 236.518 66.3955C236.527 66.4234 236.527 66.4524 236.517 66.4802L229.536 87.7766C229.511 87.8526 229.451 87.9204 229.364 87.9689C229.277 88.0174 229.17 88.0437 229.06 88.0436L219.884 88.0491C219.753 88.0492 219.622 88.0285 219.501 87.9886C219.361 87.939 219.136 87.6693 218.826 87.1793C217.87 85.6618 215.912 82.7349 212.949 78.3987Z" fill="#075AA3"/>
<path d="M260.023 87.8675L259.609 84.6745C259.603 84.6263 259.572 84.5815 259.521 84.5488C259.47 84.5162 259.404 84.4982 259.335 84.4984H248.754C248.704 84.4985 248.655 84.5083 248.612 84.5268C248.57 84.5452 248.535 84.5716 248.512 84.6029L246.079 87.9583C246.057 87.9897 246.022 88.0161 245.979 88.0345C245.937 88.0529 245.887 88.0628 245.837 88.0629H235.315C235.266 88.0632 235.218 88.0542 235.175 88.0369C235.133 88.0196 235.098 87.9946 235.074 87.9645C235.05 87.9344 235.038 87.9003 235.039 87.8658C235.04 87.8313 235.054 87.7977 235.08 87.7684L253.709 66.3398C253.733 66.3122 253.767 66.2894 253.808 66.2735C253.848 66.2576 253.893 66.2492 253.939 66.249H264.607C264.671 66.2489 264.733 66.2649 264.783 66.2942C264.832 66.3234 264.865 66.3639 264.876 66.4086L270.132 87.8179C270.138 87.8456 270.137 87.874 270.126 87.9012C270.116 87.9283 270.097 87.9535 270.071 87.975C270.046 87.9965 270.014 88.0138 269.978 88.0257C269.941 88.0375 269.902 88.0436 269.862 88.0436H260.296C260.227 88.0438 260.161 88.0258 260.111 87.9932C260.06 87.9605 260.029 87.9157 260.023 87.8675ZM257.883 72.1945C257.88 72.1745 257.868 72.1557 257.848 72.1409C257.829 72.1262 257.803 72.1162 257.775 72.1125C257.747 72.1088 257.718 72.1115 257.693 72.1203C257.667 72.1292 257.646 72.1436 257.633 72.1614L252.167 79.6979C252.157 79.7123 252.152 79.7282 252.153 79.7442C252.154 79.7602 252.161 79.7757 252.174 79.7892C252.186 79.8028 252.203 79.8139 252.223 79.8215C252.243 79.8291 252.265 79.833 252.288 79.8328H258.73C258.749 79.8328 258.767 79.8302 258.784 79.825C258.801 79.8197 258.816 79.8121 258.828 79.8025C258.841 79.7929 258.851 79.7816 258.856 79.7693C258.862 79.757 258.865 79.7439 258.863 79.7309L257.883 72.1945Z" fill="#075AA3"/>
<path d="M283.296 66.2407H293.058C293.098 66.2409 293.137 66.2473 293.172 66.2595C293.208 66.2717 293.24 66.2895 293.264 66.3114C293.289 66.3333 293.307 66.3589 293.315 66.3862C293.324 66.4135 293.324 66.4419 293.316 66.4692L286.494 87.9033C286.481 87.9445 286.448 87.9814 286.402 88.0079C286.355 88.0344 286.297 88.049 286.237 88.0492H276.475C276.435 88.049 276.396 88.0426 276.361 88.0304C276.325 88.0181 276.293 88.0004 276.269 87.9785C276.244 87.9566 276.226 87.931 276.218 87.9037C276.209 87.8764 276.209 87.848 276.217 87.8207L283.039 66.3866C283.052 66.3453 283.085 66.3084 283.131 66.282C283.178 66.2555 283.236 66.2409 283.296 66.2407Z" fill="#075AA3"/>
<path d="M328.227 87.862C328.237 87.8815 328.24 87.9024 328.236 87.9229C328.233 87.9435 328.222 87.9631 328.205 87.9801C328.188 87.9971 328.166 88.011 328.14 88.0206C328.114 88.0302 328.085 88.0353 328.055 88.0354L317.72 88.0271C317.598 88.0269 317.479 88.0011 317.378 87.953C317.278 87.905 317.199 87.8369 317.154 87.7574C315.675 85.1792 314.186 82.9028 312.687 80.9283C311.711 79.6419 310.387 79.0621 308.716 79.1887C308.655 79.1934 308.599 79.2111 308.554 79.2393C308.509 79.2675 308.478 79.3047 308.466 79.3456L305.682 87.7766C305.658 87.8473 305.601 87.9101 305.521 87.9551C305.44 88.0001 305.34 88.0245 305.237 88.0244L295.44 88.0161C295.402 88.0164 295.365 88.0106 295.33 87.9992C295.296 87.9877 295.266 87.9708 295.242 87.9498C295.218 87.9288 295.202 87.9043 295.193 87.8781C295.185 87.8519 295.186 87.8248 295.194 87.7987L302.266 66.3756C302.28 66.3363 302.312 66.3016 302.356 66.2771C302.401 66.2526 302.456 66.2397 302.512 66.2407C307.499 66.2866 313.223 66.2976 319.684 66.2737C322.394 66.2627 325.873 66.4004 327.872 67.4573C331.819 69.5493 331.862 73.5267 328.961 76.1444C327.224 77.7106 323.971 78.6189 321.214 78.8309C321.174 78.8344 321.135 78.8463 321.104 78.8651C321.073 78.8838 321.05 78.9086 321.038 78.9363C321.027 78.9641 321.027 78.9937 321.039 79.0214C321.05 79.0491 321.074 79.0738 321.105 79.0924C321.894 79.5548 322.602 80.1374 323.229 80.8402C325.207 83.0569 326.873 85.3975 328.227 87.862ZM310.083 75.0902C312.49 75.1525 314.957 75.0874 317.482 74.8947C319.384 74.7498 320.551 74.0708 320.98 72.8578C321.589 71.1347 319.262 70.7356 317.45 70.6806C315.902 70.6365 313.936 70.6173 311.555 70.6228C311.474 70.6237 311.396 70.6436 311.333 70.6791C311.271 70.7145 311.228 70.7636 311.211 70.8182L309.903 74.925C309.897 74.9441 309.897 74.964 309.902 74.9832C309.908 75.0024 309.92 75.0205 309.938 75.0362C309.955 75.0519 309.976 75.0649 310.001 75.0742C310.027 75.0835 310.054 75.089 310.083 75.0902Z" fill="#075AA3"/>
<path d="M214.831 94.2C214.979 94.4643 215.028 94.7529 214.977 95.0492C214.926 95.3455 214.775 95.6437 214.533 95.9268C214.291 96.21 213.963 96.4724 213.567 96.6993C213.171 96.9262 212.715 97.113 212.225 97.249C211.735 97.3851 211.221 97.4677 210.711 97.4923C210.202 97.5168 209.708 97.4827 209.257 97.392C208.806 97.3013 208.407 97.1557 208.083 96.9636C207.759 96.7714 207.517 96.5365 207.369 96.2721C207.221 96.0078 207.172 95.7192 207.223 95.4229C207.274 95.1266 207.424 94.8284 207.666 94.5453C207.908 94.2621 208.237 93.9997 208.633 93.7728C209.029 93.5459 209.485 93.3591 209.975 93.2231C210.465 93.087 210.979 93.0044 211.489 92.9798C211.998 92.9553 212.492 92.9894 212.943 93.0801C213.394 93.1708 213.793 93.3164 214.116 93.5085C214.44 93.7007 214.683 93.9356 214.831 94.2ZM212.228 94.1324C211.926 93.9853 211.521 93.9622 211.102 94.0683C210.682 94.1743 210.283 94.4008 209.991 94.6979C209.699 94.995 209.539 95.3383 209.546 95.6524C209.553 95.9665 209.726 96.2256 210.027 96.3727C210.328 96.5199 210.733 96.5429 211.153 96.4369C211.572 96.3308 211.972 96.1043 212.264 95.8073C212.555 95.5102 212.716 95.1668 212.709 94.8527C212.702 94.5386 212.529 94.2795 212.228 94.1324Z" fill="#075AA3"/>
<path d="M245.925 95.1893C245.933 95.2829 246.005 95.3489 246.14 95.3875C246.195 95.4035 246.24 95.434 246.265 95.4728C247.081 96.7857 245.336 97.372 243.707 97.3693C242.195 97.3656 240.787 97.3876 239.483 97.4353C239.439 97.4375 239.394 97.432 239.354 97.4194C239.313 97.4068 239.277 97.3875 239.249 97.3629C239.222 97.3384 239.202 97.3095 239.193 97.2785C239.184 97.2475 239.186 97.2154 239.198 97.1849L240.76 93.2735C240.785 93.2117 240.837 93.157 240.908 93.117C240.979 93.077 241.067 93.0538 241.158 93.0505C242.48 93.0102 243.884 93.0285 245.371 93.1056C246.081 93.1423 246.536 93.3625 246.734 93.7662C246.96 94.2259 246.464 94.6883 245.999 95.0434C245.974 95.0625 245.954 95.0853 245.941 95.1104C245.928 95.1355 245.923 95.1624 245.925 95.1893ZM244.567 94.2713C244.559 94.2214 244.525 94.1742 244.467 94.1323C244.41 94.0904 244.33 94.0548 244.233 94.0273C244.135 93.9998 244.022 93.9811 243.899 93.9722C243.776 93.9633 243.647 93.9644 243.517 93.9754C243.256 93.9977 243.013 94.0591 242.84 94.1461C242.668 94.233 242.581 94.3385 242.598 94.4392C242.607 94.4891 242.64 94.5363 242.698 94.5782C242.755 94.6201 242.835 94.6557 242.932 94.6832C243.03 94.7107 243.143 94.7294 243.266 94.7383C243.389 94.7472 243.518 94.7461 243.648 94.7351C243.909 94.7128 244.152 94.6514 244.325 94.5644C244.497 94.4775 244.584 94.372 244.567 94.2713ZM244.209 95.9487C244.201 95.8919 244.163 95.8378 244.096 95.7894C244.03 95.7411 243.936 95.6995 243.821 95.667C243.706 95.6345 243.572 95.6117 243.426 95.6C243.28 95.5883 243.125 95.5879 242.971 95.5988C242.659 95.6208 242.366 95.6874 242.156 95.7841C241.947 95.8808 241.839 95.9996 241.855 96.1144C241.863 96.1712 241.901 96.2253 241.968 96.2737C242.034 96.322 242.128 96.3636 242.243 96.3961C242.358 96.4286 242.492 96.4514 242.638 96.4631C242.784 96.4748 242.939 96.4752 243.093 96.4643C243.405 96.4423 243.698 96.3757 243.908 96.279C244.117 96.1823 244.225 96.0635 244.209 95.9487Z" fill="#075AA3"/>
<path d="M270.761 95.1617L270.308 96.5435C270.271 96.6585 270.195 96.7656 270.088 96.856C269.981 96.9464 269.845 97.0176 269.692 97.0638C267.981 97.5757 264.334 97.884 263.569 96.2738C263.275 95.6517 263.379 95.0544 263.882 94.4819C265.162 93.023 267.595 92.7257 269.75 93.2487C270.292 93.379 270.704 93.6167 270.988 93.9616C271.02 94.0005 271.038 94.0444 271.04 94.0893C271.042 94.1343 271.029 94.1789 271 94.2193C270.972 94.2596 270.93 94.2944 270.878 94.3205C270.826 94.3466 270.766 94.3633 270.703 94.369C269.805 94.4479 268.931 94.3452 268.083 94.0607C267.651 93.9158 267.151 94.0029 266.583 94.3222C265.79 94.7681 265.525 95.3498 265.791 96.0673C265.807 96.1132 265.837 96.1561 265.878 96.1931C265.92 96.2302 265.973 96.2605 266.033 96.282C266.694 96.5243 267.35 96.5509 268.001 96.3619C268.075 96.3391 268.137 96.3005 268.179 96.2515C268.22 96.2025 268.239 96.1455 268.232 96.0887C268.225 96.0318 268.193 95.9779 268.14 95.9346C268.088 95.8912 268.017 95.8606 267.938 95.8471L267.626 95.7976C267.48 95.7713 267.352 95.7085 267.266 95.6208C267.18 95.5332 267.143 95.4266 267.16 95.3208C267.177 95.215 267.248 95.1172 267.359 95.0455C267.471 94.9737 267.616 94.9329 267.767 94.9305H270.504C270.544 94.9306 270.583 94.937 270.62 94.9494C270.656 94.9618 270.687 94.9798 270.712 95.0021C270.737 95.0243 270.754 95.0503 270.763 95.0779C270.771 95.1056 270.771 95.1342 270.761 95.1617Z" fill="#075AA3"/>
<path d="M328.572 94.2919C327.611 94.4571 326.722 94.3213 325.905 93.8845C325.788 93.8218 325.643 93.7911 325.496 93.7982C325.348 93.8053 325.21 93.8496 325.105 93.9231L324.987 94.0056C324.955 94.0285 324.931 94.0563 324.917 94.0869C324.903 94.1175 324.899 94.15 324.906 94.1819C324.913 94.2137 324.93 94.2439 324.956 94.2702C324.983 94.2965 325.017 94.3181 325.058 94.3332C325.508 94.4983 326.148 94.6754 326.979 94.8644C328.259 95.1562 328.857 95.8416 328.064 96.6288C327.17 97.5206 325.14 97.5206 323.668 97.4381C322.452 97.3665 321.855 96.9224 321.876 96.1058C321.877 96.0558 321.902 96.0074 321.947 95.9684C321.992 95.9295 322.055 95.9022 322.125 95.8911C322.969 95.7608 323.626 95.8544 324.097 96.1719C324.695 96.5738 325.105 96.6398 325.776 96.4389C325.87 96.4109 325.95 96.3626 326.002 96.3009C326.055 96.2392 326.079 96.1673 326.07 96.0955C326.062 96.0237 326.021 95.9556 325.954 95.9011C325.887 95.8466 325.798 95.8084 325.698 95.792C324.601 95.6131 321.872 95.1342 322.887 93.8432C323.8 92.6789 327.967 92.723 328.818 93.9176C328.843 93.953 328.856 93.992 328.857 94.0316C328.858 94.0712 328.846 94.1104 328.822 94.1464C328.799 94.1823 328.764 94.2141 328.721 94.2393C328.677 94.2644 328.626 94.2824 328.572 94.2919Z" fill="#075AA3"/>
<path d="M222.288 97.1876C222.302 97.2086 222.309 97.2319 222.307 97.2552C222.306 97.2786 222.296 97.3013 222.278 97.3211C222.26 97.3409 222.236 97.3573 222.207 97.3686C222.178 97.3799 222.145 97.3858 222.112 97.3858L220.347 97.3775C220.25 97.3775 220.155 97.3581 220.073 97.3216C219.99 97.2851 219.924 97.2329 219.883 97.1711L218.973 95.8223C218.933 95.7656 218.869 95.7187 218.791 95.6876C218.712 95.6565 218.623 95.6428 218.533 95.6481C218.443 95.6535 218.358 95.6776 218.288 95.7175C218.218 95.7574 218.167 95.8112 218.141 95.8719L217.637 97.0968C217.603 97.1833 217.53 97.2595 217.428 97.3137C217.327 97.3679 217.203 97.3971 217.075 97.3968L215.662 97.3913C215.606 97.3916 215.55 97.3826 215.5 97.365C215.449 97.3475 215.405 97.3218 215.371 97.2901C215.337 97.2583 215.314 97.2214 215.303 97.1821C215.293 97.1428 215.295 97.1023 215.31 97.0637L216.884 93.2047C216.899 93.1666 216.931 93.1329 216.975 93.1086C217.02 93.0843 217.074 93.0707 217.13 93.0698C218.731 93.0349 220.175 93.0496 221.464 93.1138C224.01 93.2432 223.498 95.1039 221.519 95.5251C221.48 95.5333 221.445 95.5474 221.415 95.5662C221.385 95.585 221.361 95.6082 221.346 95.6341C221.33 95.6599 221.322 95.688 221.323 95.7162C221.324 95.7444 221.333 95.7722 221.351 95.7976L222.288 97.1876ZM220.91 94.2913C220.899 94.1967 220.835 94.1091 220.732 94.0477C220.63 93.9864 220.497 93.9562 220.362 93.964L219.07 94.0389C218.936 94.0467 218.812 94.0917 218.725 94.1641C218.638 94.2365 218.595 94.3303 218.606 94.4248L218.613 94.4852C218.624 94.5798 218.688 94.6674 218.791 94.7288C218.893 94.7902 219.026 94.8203 219.161 94.8125L220.453 94.7376C220.587 94.7298 220.711 94.6848 220.798 94.6124C220.885 94.5401 220.928 94.4463 220.917 94.3517L220.91 94.2913Z" fill="#075AA3"/>
<path d="M229.365 97.3803H223.457C223.424 97.3803 223.391 97.3749 223.361 97.3645C223.332 97.3541 223.306 97.339 223.286 97.3203C223.266 97.3016 223.252 97.2799 223.246 97.2569C223.24 97.2339 223.241 97.2102 223.25 97.1876L224.847 93.1827C224.86 93.1509 224.887 93.123 224.925 93.1031C224.962 93.0832 225.007 93.0725 225.054 93.0726H230.638C230.671 93.0725 230.704 93.0779 230.734 93.0883C230.763 93.0988 230.789 93.1139 230.809 93.1326C230.829 93.1512 230.843 93.173 230.849 93.196C230.855 93.219 230.854 93.2427 230.845 93.2652L230.583 93.9176C230.57 93.9493 230.543 93.9773 230.506 93.9971C230.468 94.017 230.423 94.0278 230.376 94.0277H227.018C226.971 94.0277 226.926 94.0384 226.889 94.0583C226.851 94.0781 226.824 94.1061 226.811 94.1378L226.671 94.4929C226.662 94.5154 226.66 94.5391 226.666 94.5622C226.672 94.5852 226.686 94.6069 226.706 94.6256C226.726 94.6442 226.752 94.6594 226.782 94.6698C226.812 94.6802 226.844 94.6856 226.878 94.6856H229.849C229.882 94.6855 229.915 94.6909 229.945 94.7013C229.975 94.7118 230.001 94.7269 230.021 94.7456C230.041 94.7642 230.054 94.7859 230.06 94.809C230.067 94.832 230.065 94.8557 230.056 94.8782L229.802 95.5086C229.789 95.5403 229.762 95.5682 229.725 95.5881C229.688 95.608 229.642 95.6187 229.595 95.6187H226.374C226.327 95.6186 226.282 95.6294 226.244 95.6492C226.207 95.6691 226.18 95.697 226.167 95.7288L225.98 96.2022C225.971 96.2247 225.969 96.2485 225.975 96.2715C225.981 96.2945 225.995 96.3162 226.015 96.3349C226.035 96.3536 226.061 96.3687 226.091 96.3791C226.121 96.3895 226.153 96.3949 226.187 96.3949H229.638C229.671 96.3949 229.704 96.4003 229.734 96.4107C229.764 96.4211 229.79 96.4362 229.81 96.4549C229.83 96.4736 229.843 96.4953 229.85 96.5183C229.856 96.5413 229.854 96.565 229.845 96.5876L229.572 97.2702C229.559 97.3019 229.532 97.3299 229.495 97.3498C229.457 97.3696 229.412 97.3804 229.365 97.3803Z" fill="#075AA3"/>
<path d="M232.484 97.3748L230.907 97.3913C230.871 97.3914 230.835 97.3855 230.803 97.3743C230.77 97.363 230.742 97.3466 230.72 97.3263C230.698 97.3061 230.683 97.2825 230.676 97.2575C230.669 97.2325 230.671 97.2067 230.68 97.1821L232.238 93.2872C232.263 93.2236 232.317 93.1676 232.392 93.1282C232.466 93.0888 232.556 93.0683 232.648 93.0698L234.284 93.0863C234.362 93.0879 234.437 93.1045 234.502 93.1341C234.567 93.1637 234.618 93.2053 234.651 93.2542L235.987 95.2305C236.004 95.2565 236.032 95.2781 236.067 95.2923C236.102 95.3066 236.142 95.3128 236.183 95.3101C236.223 95.3073 236.261 95.2958 236.292 95.2771C236.322 95.2585 236.344 95.2335 236.354 95.2058L237.041 93.3423C237.067 93.2709 237.125 93.2075 237.207 93.1617C237.288 93.1159 237.389 93.0904 237.494 93.089L239.06 93.0753C239.096 93.0748 239.132 93.0803 239.165 93.0914C239.198 93.1025 239.227 93.1188 239.249 93.1391C239.272 93.1594 239.287 93.1832 239.294 93.2084C239.301 93.2336 239.3 93.2597 239.29 93.2845L237.732 97.1848C237.708 97.2454 237.657 97.2986 237.585 97.336C237.514 97.3734 237.427 97.3929 237.338 97.3913L235.717 97.383C235.633 97.3827 235.55 97.3654 235.478 97.3333C235.406 97.3012 235.348 97.2555 235.311 97.2014L233.984 95.2333C233.966 95.2083 233.938 95.1877 233.903 95.1742C233.869 95.1606 233.829 95.1548 233.79 95.1575C233.751 95.1602 233.713 95.1712 233.683 95.1892C233.653 95.2072 233.631 95.2312 233.62 95.2581L232.925 97.1298C232.901 97.1992 232.844 97.2608 232.764 97.3052C232.684 97.3495 232.586 97.3739 232.484 97.3748Z" fill="#075AA3"/>
<path d="M255.115 93.0781C255.154 93.0779 255.192 93.0843 255.226 93.0966C255.261 93.109 255.29 93.127 255.313 93.1491C255.335 93.1711 255.35 93.1967 255.356 93.2236C255.361 93.2505 255.358 93.278 255.345 93.3038C254.952 94.1204 254.653 94.8333 254.447 95.4425C254.037 96.6509 253.147 97.2647 251.457 97.4051C249.903 97.5344 247.798 97.5455 247.384 96.2875C247.126 95.5113 247.821 94.4213 248.181 93.4304C248.215 93.333 248.295 93.2466 248.407 93.1847C248.518 93.1229 248.656 93.0893 248.798 93.0891H250.156C250.207 93.0889 250.258 93.097 250.304 93.1126C250.35 93.1282 250.39 93.151 250.422 93.1793C250.454 93.2076 250.476 93.2406 250.488 93.276C250.499 93.3114 250.499 93.3481 250.488 93.3836L249.719 95.726C249.689 95.8185 249.691 95.9148 249.725 96.0066C249.759 96.0985 249.824 96.1831 249.915 96.2534C250.005 96.3237 250.119 96.3775 250.245 96.4103C250.371 96.4431 250.507 96.4538 250.641 96.4417L250.879 96.4197C251.202 96.3897 251.504 96.2909 251.746 96.1364C251.987 95.982 252.156 95.7793 252.23 95.5554L252.952 93.3588C252.978 93.279 253.041 93.2077 253.132 93.1567C253.223 93.1056 253.336 93.0779 253.452 93.0781H255.115Z" fill="#075AA3"/>
<path d="M262.26 97.1821C262.275 97.2031 262.282 97.2264 262.28 97.2498C262.278 97.2731 262.268 97.2958 262.25 97.3156C262.233 97.3354 262.208 97.3518 262.179 97.3631C262.15 97.3744 262.118 97.3803 262.084 97.3803H260.316C260.219 97.3803 260.123 97.3609 260.041 97.3243C259.959 97.2878 259.893 97.2357 259.851 97.1739L258.93 95.8279C258.89 95.7702 258.826 95.7225 258.747 95.691C258.668 95.6595 258.577 95.6456 258.486 95.6513C258.396 95.6569 258.31 95.6819 258.24 95.7227C258.17 95.7636 258.119 95.8185 258.094 95.8802L257.602 97.1078C257.569 97.1948 257.495 97.2716 257.394 97.3264C257.292 97.3811 257.168 97.4107 257.04 97.4106H255.622C255.566 97.4103 255.511 97.4009 255.46 97.3831C255.41 97.3653 255.366 97.3396 255.332 97.3079C255.298 97.2762 255.275 97.2395 255.264 97.2005C255.254 97.1615 255.256 97.1213 255.271 97.083L256.817 93.2129C256.832 93.1753 256.864 93.1419 256.907 93.1177C256.951 93.0934 257.004 93.0796 257.059 93.0781C258.663 93.0359 260.11 93.045 261.401 93.1056C263.951 93.224 263.455 95.0902 261.475 95.5196C261.437 95.5279 261.402 95.5419 261.372 95.5607C261.342 95.5795 261.318 95.6027 261.302 95.6286C261.286 95.6545 261.279 95.6825 261.279 95.7107C261.28 95.7389 261.29 95.7667 261.307 95.7921L262.26 97.1821ZM260.852 94.3028C260.842 94.2067 260.778 94.1175 260.674 94.0548C260.57 93.9921 260.435 93.961 260.299 93.9684L259.084 94.0342C258.948 94.0416 258.822 94.0869 258.733 94.1601C258.644 94.2332 258.6 94.3283 258.61 94.4244L258.615 94.4738C258.626 94.5699 258.69 94.6591 258.794 94.7218C258.898 94.7845 259.033 94.8156 259.169 94.8082L260.383 94.7423C260.52 94.7349 260.646 94.6897 260.735 94.6165C260.824 94.5433 260.868 94.4482 260.858 94.3522L260.852 94.3028Z" fill="#075AA3"/>
<path d="M276.086 97.3941L274.707 97.4381C274.655 97.4402 274.603 97.432 274.558 97.4142C274.512 97.3964 274.474 97.3699 274.449 97.3377C274.423 97.3054 274.412 97.2688 274.414 97.2321C274.417 97.1953 274.435 97.1599 274.465 97.1298L278.179 93.3726C278.294 93.2572 278.466 93.1751 278.663 93.1414C279.316 93.0276 279.977 93.0138 280.646 93.1001C280.73 93.1114 280.807 93.1403 280.867 93.1831C280.927 93.2258 280.967 93.2804 280.982 93.3396L281.943 97.2619C281.947 97.2764 281.946 97.2914 281.94 97.3057C281.935 97.32 281.925 97.3333 281.911 97.3446C281.897 97.356 281.88 97.3651 281.86 97.3712C281.841 97.3774 281.82 97.3805 281.798 97.3803H280.041C279.959 97.3805 279.88 97.3604 279.818 97.3235C279.756 97.2867 279.714 97.2356 279.701 97.1794L279.639 96.9261C279.624 96.8664 279.583 96.8115 279.521 96.7698C279.459 96.7282 279.38 96.7019 279.295 96.6949C278.137 96.5922 277.387 96.7041 277.046 97.0307C276.934 97.1381 276.79 97.2265 276.624 97.2893C276.457 97.3522 276.274 97.388 276.086 97.3941ZM279.092 95.7563C279.183 95.7563 279.271 95.7305 279.335 95.6846C279.4 95.6386 279.436 95.5763 279.436 95.5113V94.6746C279.436 94.642 279.422 94.6102 279.394 94.5841C279.367 94.5579 279.328 94.5389 279.284 94.5298C279.239 94.5207 279.192 94.5222 279.149 94.5339C279.106 94.5456 279.069 94.567 279.045 94.5947L278.28 95.4755C278.256 95.5035 278.242 95.5354 278.242 95.5682C278.241 95.6009 278.252 95.6333 278.275 95.6618C278.297 95.6904 278.33 95.7143 278.371 95.7309C278.411 95.7475 278.456 95.7562 278.503 95.7563H279.092Z" fill="#075AA3"/>
<path d="M284.986 97.3968H283.217C283.174 97.397 283.132 97.3903 283.093 97.377C283.055 97.3637 283.021 97.3443 282.995 97.3203C282.969 97.2962 282.951 97.2683 282.943 97.2386C282.934 97.2089 282.936 97.1782 282.948 97.1491L284.521 93.2074C284.537 93.166 284.573 93.1295 284.621 93.1036C284.67 93.0778 284.73 93.0639 284.791 93.0643H286.559C286.602 93.064 286.645 93.0708 286.683 93.0841C286.722 93.0974 286.756 93.1168 286.782 93.1408C286.808 93.1648 286.826 93.1928 286.834 93.2225C286.842 93.2522 286.84 93.2828 286.829 93.312L285.255 97.2536C285.239 97.2951 285.204 97.3316 285.155 97.3574C285.106 97.3833 285.047 97.3971 284.986 97.3968Z" fill="#075AA3"/>
<path d="M293.862 97.1959C293.876 97.2174 293.882 97.2412 293.879 97.2648C293.877 97.2884 293.867 97.3112 293.849 97.331C293.831 97.3508 293.806 97.367 293.777 97.378C293.748 97.389 293.715 97.3945 293.682 97.394L291.909 97.3968C291.812 97.3973 291.716 97.3781 291.633 97.3416C291.55 97.3051 291.484 97.2526 291.441 97.1904L290.512 95.8389C290.472 95.7812 290.408 95.7335 290.329 95.702C290.25 95.6705 290.159 95.6566 290.068 95.6623C289.978 95.6679 289.892 95.6929 289.822 95.7337C289.752 95.7746 289.701 95.8295 289.676 95.8912L289.184 97.1243C289.151 97.212 289.077 97.2896 288.975 97.3448C288.872 97.4 288.747 97.4299 288.618 97.4298H287.197C287.14 97.43 287.084 97.4209 287.033 97.4033C286.982 97.3857 286.938 97.36 286.904 97.3283C286.869 97.2965 286.846 97.2596 286.835 97.2204C286.824 97.1812 286.826 97.1408 286.841 97.1023L288.388 93.2157C288.402 93.1778 288.433 93.1441 288.476 93.1193C288.52 93.0946 288.573 93.0801 288.63 93.078C290.241 93.0358 291.695 93.0441 292.991 93.1028C295.552 93.2212 295.057 95.0957 293.069 95.5278C293.031 95.536 292.996 95.5499 292.967 95.5686C292.937 95.5873 292.913 95.6104 292.898 95.6362C292.882 95.6621 292.874 95.6901 292.874 95.7184C292.875 95.7467 292.884 95.7746 292.901 95.8003L293.862 97.1959ZM292.424 94.2567C292.418 94.2113 292.399 94.1674 292.368 94.1272C292.337 94.0871 292.296 94.0516 292.246 94.0227C292.196 93.9939 292.138 93.9722 292.077 93.9591C292.015 93.9459 291.95 93.9415 291.886 93.946L290.603 94.0362C290.474 94.0453 290.354 94.0905 290.272 94.1616C290.189 94.2328 290.15 94.3242 290.163 94.4158L290.177 94.5144C290.183 94.5597 290.202 94.6037 290.233 94.6438C290.263 94.6839 290.305 94.7195 290.355 94.7483C290.405 94.7772 290.462 94.7988 290.524 94.8119C290.586 94.8251 290.651 94.8296 290.715 94.825L291.997 94.7348C292.127 94.7257 292.246 94.6805 292.329 94.6094C292.412 94.5382 292.451 94.4468 292.438 94.3553L292.424 94.2567Z" fill="#075AA3"/>
<path d="M300.514 97.3803H294.938C294.905 97.3804 294.873 97.375 294.844 97.3648C294.814 97.3545 294.789 97.3396 294.769 97.3211C294.749 97.3027 294.736 97.2813 294.73 97.2586C294.724 97.2359 294.726 97.2126 294.735 97.1904L296.328 93.2074C296.341 93.1764 296.367 93.1492 296.404 93.1298C296.441 93.1105 296.485 93.1 296.531 93.1001H298.409C298.442 93.1 298.474 93.1054 298.503 93.1156C298.533 93.1259 298.558 93.1408 298.578 93.1593C298.598 93.1777 298.611 93.1991 298.617 93.2218C298.623 93.2445 298.621 93.2679 298.612 93.29L297.452 96.1774C297.443 96.1996 297.442 96.223 297.448 96.2457C297.454 96.2684 297.467 96.2898 297.487 96.3082C297.506 96.3266 297.532 96.3416 297.561 96.3518C297.59 96.3621 297.623 96.3674 297.655 96.3674H300.799C300.831 96.3673 300.864 96.3726 300.893 96.3829C300.922 96.3932 300.948 96.4081 300.968 96.4265C300.987 96.445 301.001 96.4664 301.006 96.4891C301.012 96.5118 301.011 96.5351 301.002 96.5573L300.717 97.273C300.704 97.304 300.677 97.3312 300.641 97.3506C300.604 97.37 300.559 97.3804 300.514 97.3803Z" fill="#075AA3"/>
<path d="M303.458 93.0615H305.485C305.509 93.0613 305.533 93.0651 305.555 93.0726C305.577 93.0801 305.596 93.0911 305.611 93.1047C305.626 93.1184 305.636 93.1343 305.64 93.1512C305.645 93.168 305.644 93.1854 305.637 93.2019L303.997 97.3032C303.988 97.326 303.969 97.3461 303.942 97.3605C303.915 97.3748 303.882 97.3828 303.849 97.383H301.822C301.798 97.3833 301.774 97.3795 301.752 97.372C301.73 97.3645 301.711 97.3535 301.696 97.3398C301.681 97.3262 301.671 97.3103 301.667 97.2934C301.662 97.2765 301.663 97.2592 301.67 97.2427L303.31 93.1414C303.319 93.1186 303.339 93.0985 303.365 93.0841C303.392 93.0697 303.425 93.0618 303.458 93.0615Z" fill="#075AA3"/>
<path d="M312.415 97.3775H310.49C310.452 97.3775 310.416 97.37 310.384 97.3559C310.352 97.3418 310.326 97.3216 310.31 97.2977L308.924 95.2691C308.906 95.2435 308.878 95.2223 308.843 95.2083C308.807 95.1944 308.767 95.1884 308.727 95.1911C308.686 95.1938 308.648 95.205 308.617 95.2234C308.586 95.2418 308.564 95.2663 308.553 95.2939L307.757 97.2812C307.745 97.3105 307.72 97.3363 307.685 97.3547C307.651 97.3731 307.609 97.383 307.565 97.383H305.785C305.754 97.383 305.724 97.378 305.696 97.3683C305.669 97.3586 305.645 97.3445 305.626 97.3272C305.608 97.3098 305.595 97.2897 305.589 97.2683C305.584 97.247 305.585 97.225 305.594 97.2041L307.198 93.1909C307.21 93.1616 307.235 93.1358 307.27 93.1174C307.304 93.099 307.346 93.0891 307.39 93.0891H309.315C309.352 93.0891 309.389 93.0966 309.421 93.1107C309.453 93.1248 309.478 93.145 309.494 93.1689L310.88 95.1975C310.898 95.2231 310.927 95.2443 310.962 95.2583C310.997 95.2722 311.038 95.2782 311.078 95.2755C311.118 95.2728 311.156 95.2616 311.187 95.2432C311.218 95.2248 311.241 95.2003 311.251 95.1727L312.048 93.1827C312.06 93.1533 312.085 93.1275 312.119 93.1092C312.154 93.0908 312.196 93.0808 312.239 93.0808H314.02C314.05 93.0808 314.081 93.0859 314.108 93.0956C314.136 93.1053 314.16 93.1193 314.178 93.1367C314.197 93.154 314.21 93.1742 314.215 93.1955C314.221 93.2169 314.219 93.2388 314.211 93.2597L312.606 97.2757C312.594 97.305 312.569 97.3308 312.535 97.3492C312.5 97.3676 312.458 97.3775 312.415 97.3775Z" fill="#075AA3"/>
<path d="M320.274 96.3894C320.329 96.3887 320.383 96.3963 320.434 96.4117C320.484 96.4271 320.529 96.4499 320.565 96.4787C320.602 96.5074 320.629 96.5413 320.646 96.5781C320.662 96.615 320.667 96.6539 320.661 96.6922L320.583 97.0858C320.568 97.163 320.515 97.234 320.432 97.2856C320.348 97.3372 320.241 97.3659 320.13 97.3665L314.32 97.4051C314.283 97.4055 314.247 97.3999 314.214 97.3888C314.181 97.3777 314.152 97.3615 314.129 97.3412C314.107 97.321 314.091 97.2974 314.083 97.2722C314.076 97.247 314.076 97.2209 314.085 97.1959L315.675 93.2157C315.695 93.1662 315.738 93.1227 315.797 93.0919C315.857 93.0611 315.929 93.0446 316.003 93.0451L321.422 93.0808C321.475 93.0814 321.527 93.0907 321.574 93.1082C321.621 93.1256 321.661 93.1506 321.691 93.1811C321.722 93.2116 321.741 93.2466 321.748 93.2833C321.755 93.3199 321.749 93.3572 321.731 93.3919L321.563 93.7359C321.519 93.8253 321.436 93.9026 321.326 93.957C321.216 94.0114 321.084 94.04 320.95 94.0387L318.088 94.0112C317.972 94.0099 317.86 94.036 317.768 94.0854C317.676 94.1348 317.61 94.2046 317.58 94.2837L317.533 94.4131C317.521 94.4471 317.52 94.4825 317.531 94.5168C317.542 94.551 317.563 94.583 317.594 94.6104C317.625 94.6379 317.665 94.6599 317.709 94.6748C317.754 94.6897 317.804 94.6972 317.853 94.6966L320.665 94.6718C320.714 94.6714 320.763 94.6795 320.807 94.6954C320.851 94.7112 320.888 94.7344 320.917 94.7628C320.945 94.7912 320.963 94.8241 320.97 94.8586C320.976 94.8931 320.971 94.9282 320.954 94.9608L320.743 95.3682C320.701 95.4495 320.624 95.5195 320.522 95.5684C320.421 95.6173 320.3 95.6426 320.177 95.6407L317.533 95.5994C317.378 95.5968 317.227 95.6322 317.106 95.6995C316.984 95.7668 316.899 95.8618 316.865 95.9683L316.83 96.0729C316.815 96.1139 316.814 96.1567 316.826 96.1982C316.838 96.2396 316.863 96.2785 316.9 96.3118C316.937 96.3451 316.984 96.3719 317.037 96.3901C317.091 96.4084 317.15 96.4175 317.209 96.4169L320.274 96.3894Z" fill="#075AA3"/>
</svg>
