<svg width="362" height="140" viewBox="0 0 362 140" fill="none" xmlns="http://www.w3.org/2000/svg">
<rect width="362" height="140" fill="#1A488D"/>
<path d="M180.65 111.641C161.884 111.879 143.045 111.19 124.487 108.644C119.672 107.984 114.896 107.174 110.159 106.214C102.03 104.569 93.9472 102.389 86.207 99.4879C70.5062 93.6051 54.216 83.6664 47.807 67.2508C46.357 63.5367 45.4929 59.7164 45.2148 55.7899C45.1 54.1742 45.059 52.5242 45.0918 50.8399C45.0957 50.6445 45.0683 50.4395 45.0097 50.2246C45.0036 50.2027 44.9893 50.184 44.9698 50.1726C44.9503 50.1612 44.9272 50.158 44.9054 50.1637C42.4984 50.7625 41.1683 52.6645 40.5695 54.9578C40.4242 55.5133 40.2699 56.143 40.1066 56.8469C40.1018 56.8666 40.0913 56.8844 40.0764 56.8982C40.0616 56.9119 40.043 56.921 40.023 56.9243C40.003 56.9275 39.9824 56.9248 39.964 56.9165C39.9455 56.9081 39.9299 56.8945 39.9191 56.8774C38.7926 55.0461 38.6801 53.116 39.5816 51.0871C40.2039 49.6891 41.1191 48.5875 42.1351 47.425C42.1389 47.4206 42.1414 47.4152 42.1423 47.4095C42.1433 47.4037 42.1428 47.3979 42.1407 47.3925C42.1386 47.3872 42.1352 47.3826 42.1307 47.3792C42.1262 47.3759 42.1208 47.3739 42.1152 47.3735C38.8855 47.0524 36.223 48.5371 34.5472 51.25C34.3113 51.6313 34.082 52.0281 33.8593 52.4406C33.8572 52.4448 33.8537 52.4482 33.8494 52.4501C33.8452 52.4521 33.8403 52.4526 33.8358 52.4515C33.8312 52.4504 33.8271 52.4479 33.8241 52.4442C33.8212 52.4405 33.8196 52.436 33.8195 52.4313C33.6941 47.5938 35.2304 42.8723 40.191 41.1801C41.6488 40.6832 43.3164 40.5156 44.8609 40.6586C44.8644 40.6588 44.8678 40.658 44.8708 40.6562C44.8738 40.6544 44.8762 40.6518 44.8777 40.6487C44.8792 40.6455 44.8798 40.642 44.8793 40.6386C44.8788 40.6351 44.8773 40.6319 44.875 40.6293C44.0258 39.6887 43.089 38.9274 42.0648 38.3453C41.1312 37.8149 40.1715 37.7524 39.1855 38.1578C37.7734 38.7391 36.2734 39.7047 35.207 40.1922C34.9851 40.293 34.775 40.3426 34.5765 40.341C34.5255 40.3406 34.4764 40.3212 34.4389 40.2865C34.4014 40.2518 34.3782 40.2044 34.3738 40.1535C33.9625 35.5539 37.3176 32.3652 41.4613 31.2672C41.8394 31.1672 42.2531 31.1406 42.7023 31.1875C44.5343 31.3805 45.9961 32.1363 47.0875 33.4551C48.1961 34.7934 48.7386 36.25 49.2742 37.8953C49.277 37.9045 49.2828 37.9124 49.2907 37.9178C49.2985 37.9232 49.308 37.9258 49.3175 37.9251C49.3271 37.9244 49.3361 37.9205 49.3431 37.914C49.3501 37.9076 49.3548 37.8989 49.3562 37.8895C50.1742 32.9254 53.9031 28.9856 58.8226 27.9168C60.9297 27.4586 63.3789 28.3586 64.4793 30.2067C64.6636 30.516 64.8636 30.9965 65.0793 31.6481C65.3324 32.4145 65.6687 33.2195 65.555 33.6801C65.5365 33.7551 65.4965 33.8232 65.4399 33.876C65.3833 33.9289 65.3126 33.9642 65.2363 33.9777C64.891 34.0395 64.5242 34.0578 64.1359 34.0328C63.7375 34.0078 62.9273 33.9817 61.7054 33.9543C61.1008 33.9402 60.5629 33.9715 60.0918 34.0481C57.2101 34.5133 55.5156 37.4043 54.9332 40.0258C54.932 40.0299 54.9321 40.0342 54.9336 40.0382C54.935 40.0422 54.9377 40.0456 54.9412 40.048C54.9448 40.0503 54.949 40.0515 54.9532 40.0513C54.9574 40.0511 54.9615 40.0496 54.9648 40.0469C55.9664 39.311 57.0515 38.7289 58.2203 38.3008C61.1406 37.232 64.232 36.7797 67.2976 36.7481C70.4804 36.7141 73.2086 38.2176 74.0687 41.4367C74.3008 42.3055 74.3965 43.1406 74.3558 43.9422C74.3543 43.9811 74.3476 44.0197 74.3359 44.057C73.5414 46.7352 72.7051 49.284 71.8269 51.7035C71.6113 52.2973 71.4054 52.7469 71.2093 53.0524C71.1836 53.0914 71.1644 53.1152 71.1519 53.1238C71.1401 53.1316 71.1264 53.1361 71.1122 53.1369C71.098 53.1376 71.0839 53.1346 71.0712 53.128C71.0585 53.1215 71.0476 53.1117 71.0398 53.0997C71.032 53.0876 71.0274 53.0737 71.0265 53.0594C70.9812 52.075 70.8168 51.1164 70.5332 50.1836C69.1058 45.4891 64.6082 43.4805 60.0051 43.4594C59.5636 43.4578 59.1074 43.5008 58.6363 43.5883C57.2269 43.85 55.6824 44.3344 54.0027 45.0414C53.4402 45.2774 52.8797 45.5567 52.3211 45.8793C52.1851 45.9582 52.0804 46.05 52.007 46.1547C52.0023 46.1616 51.9994 46.1696 51.9987 46.178C51.9981 46.1863 51.9996 46.1947 52.0031 46.2023C52.0067 46.2098 52.0122 46.2164 52.019 46.2212C52.0258 46.226 52.0338 46.2289 52.0422 46.2297C52.2789 46.2492 52.5609 46.2902 52.8883 46.3527C56.6465 47.0688 57.8664 51.6133 57.5875 54.8102C57.5656 55.0586 57.514 55.2652 57.4328 55.4301C57.423 55.4498 57.4075 55.4661 57.3885 55.477C57.3694 55.4879 57.3475 55.493 57.3256 55.4914C57.3036 55.4899 57.2826 55.482 57.2652 55.4686C57.2478 55.4551 57.2347 55.4369 57.2277 55.416C56.8879 54.4141 56.1648 53.5598 55.4265 52.7524C54.3187 51.5406 53.109 50.4555 51.7972 49.4969C51.1902 49.0539 49.3258 47.7906 48.5804 48.3356C48.3937 48.4723 48.291 48.659 48.2722 48.8957C47.9004 53.6363 48.4218 58.191 49.8367 62.5598C53.9008 75.1188 64.9937 83.8985 76.2531 89.8445C79.5883 91.6055 82.9984 93.1961 86.4836 94.6164C94.1722 97.7488 102.129 100.238 110.225 102.275C121.353 105.075 132.688 107.109 144.119 108.603C156.32 110.196 168.495 111.203 180.646 111.621C180.649 111.621 180.652 111.623 180.654 111.625C180.657 111.627 180.658 111.63 180.658 111.633V111.634C180.657 111.636 180.657 111.638 180.655 111.639C180.653 111.641 180.652 111.641 180.65 111.641Z" fill="white"/>
<path d="M244.084 34.4085C248.364 33.0128 252.979 32.6296 257.511 32.8968C261.359 33.1242 265.204 33.9456 268.698 35.5909C273.906 38.0413 277.894 42.2191 280.299 47.4257C281.943 50.9843 282.915 54.7304 283.213 58.664C283.255 59.207 283.261 59.6824 283.231 60.0902C283.21 60.3722 283.148 60.8445 283.047 61.507C282.167 67.2351 279.922 72.9199 276.29 77.3308C272.616 81.7925 267.791 84.6468 261.816 85.8937C258.166 86.6554 254.322 86.7046 250.486 86.3578C246.612 86.0074 242.741 85.0945 239.256 83.3671C235.559 81.5359 232.611 78.9359 230.41 75.5671C227.676 71.3847 226.302 66.2179 226.096 61.1788C226.05 60.0538 226.066 59.1367 226.143 58.4273C226.807 52.3406 229.026 46.2714 233.031 41.6589C235.977 38.2683 239.661 35.8515 244.084 34.4085ZM244.459 78.7933C247.307 81.1628 250.874 82.0839 254.594 82.1355C258.68 82.1917 262.061 80.7452 264.739 77.796C266.785 75.5413 268.226 72.6902 269.192 69.8343C270.171 66.9367 270.816 63.8702 271.129 60.6351C271.186 60.0507 271.191 59.3351 271.144 58.4882C270.954 55.0296 270.295 51.7019 269.167 48.505C268.199 45.7652 266.724 43.1308 264.679 41.107C261.692 38.1503 257.666 36.9609 253.507 37.3253C249.351 37.6898 245.879 39.6738 243.421 42.9527C241.091 46.0605 239.681 49.8632 238.901 53.6601C238.437 55.921 238.182 57.9398 238.135 59.7163C238.089 61.4898 238.208 63.5757 238.493 65.9742C239.048 70.6335 240.726 75.6878 244.459 78.7933Z" fill="white"/>
<path d="M83.2626 73.1932C83.4227 73.6323 83.5723 74.021 83.7114 74.3592C85.604 78.9752 89.872 81.7338 94.7739 82.1311C94.8143 82.1342 94.855 82.1319 94.8946 82.1241C96.7852 81.7756 98.5509 81.146 100.191 80.235C101.967 79.2495 103.429 77.7249 103.326 75.5452C103.136 71.5221 100.064 67.9069 96.7462 65.8889C96.3282 65.635 95.6763 65.3276 94.7903 64.9667C87.6524 62.0581 79.9274 56.8702 80.4899 48.0413C80.9833 40.301 86.729 34.8963 94.072 33.3143C95.9907 32.901 98.0802 32.7846 100.34 32.9651C103.7 33.2335 107.677 34.4112 109.851 37.1909C109.866 37.2093 109.875 37.231 109.879 37.254C109.884 37.2771 109.882 37.3009 109.875 37.3233C109.172 39.4085 108.443 41.3608 107.688 43.1803C107.57 43.4647 107.416 43.7456 107.226 44.0229C107.221 44.0304 107.214 44.0365 107.206 44.0405C107.198 44.0445 107.189 44.0462 107.18 44.0457C107.171 44.0451 107.162 44.0421 107.155 44.0371C107.147 44.0321 107.141 44.0252 107.137 44.017C106.334 42.4913 105.245 41.1764 103.87 40.0725C102.386 38.8811 100.904 37.9596 99.4239 37.3081C99.3648 37.2824 99.3026 37.2639 99.2388 37.253C95.3083 36.6131 90.7063 37.5975 89.6141 42.0764C89.3673 43.0897 89.279 44.0897 89.3493 45.0764C89.4794 46.8835 90.6302 48.4034 92.0423 49.5776C93.1431 50.4932 94.6024 51.4401 96.4204 52.4182C99.9184 54.3002 102.992 55.8049 105.969 57.9858C109.49 60.5651 111.895 64.0256 112.093 68.5045C112.263 72.3213 111.34 76.219 109.011 79.2999C105.737 83.6346 100.286 85.6081 95.0704 86.1975C92.4841 86.4893 90.0372 86.2292 87.479 85.676C85.1813 85.1792 82.8563 84.5206 80.504 83.7002C80.4925 83.6962 80.4829 83.688 80.4772 83.6773C80.4716 83.6666 80.4702 83.6543 80.4735 83.6428L83.2063 73.1967C83.2077 73.1905 83.211 73.1849 83.2159 73.1807C83.2207 73.1766 83.2268 73.1741 83.2331 73.1737C83.2395 73.1733 83.2458 73.175 83.2511 73.1785C83.2564 73.1821 83.2605 73.1872 83.2626 73.1932Z" fill="white"/>
<path d="M132.698 34.001H138.756C138.763 34.0009 138.771 34.0031 138.777 34.0073C138.783 34.0115 138.788 34.0174 138.791 34.0244L159.403 85.3209C159.405 85.3265 159.406 85.3326 159.406 85.3387C159.405 85.3447 159.403 85.3505 159.4 85.3556C159.396 85.3607 159.392 85.3649 159.386 85.3678C159.381 85.3707 159.375 85.3723 159.369 85.3725H146.584C146.576 85.3724 146.569 85.3698 146.562 85.3652C146.556 85.3606 146.551 85.3541 146.549 85.3467L141.565 70.2436C141.562 70.2361 141.558 70.2297 141.551 70.225C141.545 70.2204 141.538 70.2179 141.53 70.2178H124.369C124.361 70.2178 124.354 70.2202 124.347 70.2246C124.341 70.229 124.336 70.2352 124.334 70.2424L118.798 85.349C118.795 85.3562 118.79 85.3625 118.784 85.3669C118.778 85.3713 118.77 85.3736 118.763 85.3736H112.17C112.163 85.3735 112.158 85.3719 112.152 85.369C112.147 85.366 112.142 85.3619 112.139 85.3568C112.136 85.3517 112.134 85.3459 112.133 85.3399C112.132 85.3338 112.133 85.3277 112.136 85.3221L132.663 34.0244C132.666 34.0174 132.671 34.0115 132.677 34.0073C132.684 34.0031 132.691 34.0009 132.698 34.001ZM133.263 48.2252C133.261 48.2174 133.256 48.2107 133.249 48.2058C133.242 48.201 133.234 48.1984 133.226 48.1982C133.218 48.1981 133.21 48.2005 133.203 48.2051C133.196 48.2097 133.191 48.2163 133.188 48.224L126.029 65.7178C126.027 65.7239 126.026 65.7305 126.026 65.7371C126.027 65.7437 126.029 65.75 126.033 65.7554C126.037 65.7609 126.042 65.7654 126.048 65.7684C126.054 65.7714 126.06 65.773 126.067 65.7729H139.835C139.842 65.7729 139.848 65.7714 139.854 65.7684C139.859 65.7654 139.864 65.7611 139.868 65.7558C139.872 65.7505 139.874 65.7443 139.875 65.7379C139.876 65.7315 139.875 65.725 139.873 65.7189L133.263 48.2252Z" fill="white"/>
<path d="M193.76 70.185C193.761 70.1881 193.764 70.1908 193.767 70.1927C193.77 70.1945 193.774 70.1955 193.777 70.1955C193.781 70.1955 193.784 70.1945 193.788 70.1927C193.791 70.1908 193.793 70.1881 193.795 70.185L210.968 34.0619C210.976 34.0438 210.989 34.0284 211.006 34.0176C211.023 34.0068 211.043 34.001 211.064 34.001H217.637C217.644 34.0009 217.651 34.0037 217.657 34.0086C217.663 34.0136 217.666 34.0205 217.667 34.0279L224.326 85.3432C224.326 85.347 224.326 85.3509 224.325 85.3546C224.324 85.3583 224.322 85.3617 224.32 85.3646C224.317 85.3675 224.314 85.3698 224.311 85.3714C224.307 85.3729 224.304 85.3737 224.3 85.3736H211.58C211.572 85.3737 211.565 85.3706 211.559 85.3652C211.553 85.3598 211.549 85.3523 211.549 85.3443L208.782 51.4654C208.782 51.4604 208.78 51.4556 208.777 51.4518C208.774 51.4479 208.769 51.4454 208.764 51.4445C208.76 51.4437 208.754 51.4446 208.75 51.4472C208.746 51.4497 208.743 51.4537 208.741 51.4584L192.141 85.3104C192.132 85.3293 192.118 85.3453 192.1 85.3565C192.082 85.3677 192.061 85.3737 192.039 85.3736H189.397C189.378 85.3736 189.359 85.3683 189.343 85.3584C189.327 85.3484 189.315 85.3342 189.307 85.3174L172.698 51.4443C172.696 51.4405 172.693 51.4374 172.69 51.4354C172.686 51.4333 172.682 51.4326 172.678 51.4333C172.674 51.434 172.671 51.4361 172.668 51.4391C172.665 51.4422 172.664 51.4461 172.664 51.4502L169.897 85.3104C169.896 85.3276 169.888 85.3437 169.875 85.3554C169.863 85.3672 169.846 85.3737 169.829 85.3736H162.74C162.731 85.3736 162.723 85.3716 162.715 85.3679C162.707 85.3642 162.7 85.3588 162.694 85.3522C162.689 85.3455 162.684 85.3377 162.682 85.3292C162.68 85.3208 162.679 85.312 162.68 85.3033L170.439 34.0631C170.442 34.0459 170.451 34.0301 170.464 34.0187C170.477 34.0073 170.494 34.001 170.512 34.001H176.491C176.512 34.001 176.532 34.0068 176.549 34.0178C176.567 34.0288 176.581 34.0445 176.589 34.0631L193.76 70.185Z" fill="white"/>
<path d="M280.451 85.3734C280.448 85.3734 280.444 85.3726 280.441 85.371C280.438 85.3695 280.435 85.3672 280.433 85.3644C280.431 85.3616 280.43 85.3584 280.43 85.355C280.429 85.3517 280.43 85.3484 280.431 85.3453L300.953 34.0641C300.96 34.0458 300.973 34.03 300.989 34.019C301.006 34.0079 301.025 34.002 301.045 34.002H307.013C307.035 34.002 307.056 34.0086 307.074 34.0209C307.092 34.0332 307.107 34.0507 307.115 34.0711L327.716 85.3441C327.718 85.3474 327.718 85.3509 327.718 85.3544C327.718 85.3579 327.716 85.3613 327.715 85.3642C327.713 85.3671 327.71 85.3695 327.707 85.3711C327.704 85.3727 327.7 85.3735 327.697 85.3734L314.928 85.3746C314.908 85.3746 314.889 85.3685 314.874 85.3572C314.858 85.3458 314.846 85.3298 314.84 85.3113L309.876 70.2598C309.872 70.2478 309.864 70.2374 309.854 70.2301C309.843 70.2228 309.831 70.2188 309.818 70.2187H292.69C292.678 70.2187 292.666 70.2225 292.656 70.2296C292.645 70.2367 292.637 70.2468 292.633 70.2586L287.104 85.3453C287.101 85.3535 287.095 85.3606 287.088 85.3656C287.081 85.3706 287.072 85.3734 287.063 85.3734H280.451ZM301.57 48.225C301.567 48.2172 301.562 48.2105 301.555 48.2056C301.549 48.2008 301.541 48.1982 301.533 48.198C301.524 48.1979 301.516 48.2003 301.509 48.2049C301.503 48.2095 301.498 48.2161 301.495 48.2238L294.336 65.7176C294.333 65.7237 294.332 65.7303 294.333 65.7369C294.333 65.7435 294.336 65.7498 294.34 65.7552C294.343 65.7607 294.348 65.7652 294.354 65.7682C294.36 65.7712 294.367 65.7728 294.373 65.7727H308.141C308.148 65.7727 308.154 65.7712 308.16 65.7682C308.166 65.7652 308.171 65.7609 308.174 65.7556C308.178 65.7503 308.18 65.7441 308.181 65.7377C308.182 65.7313 308.181 65.7248 308.179 65.7187L301.57 48.225Z" fill="white"/>
<path d="M317.182 106.873C317.843 108.734 319.419 109.944 321.387 110.083C321.426 110.085 321.464 110.083 321.502 110.075C322.703 109.812 324.661 109.128 324.499 107.558C324.325 105.863 322.918 104.423 321.369 103.804C319.498 103.057 317.467 101.803 316.601 99.9898C315.639 97.9765 316.24 95.4207 317.892 93.8843C319.699 92.2062 322.27 91.7175 324.656 92.3117C325.497 92.5211 326.224 92.9347 326.838 93.5527C326.872 93.5869 326.896 93.6303 326.905 93.6776C326.915 93.7249 326.91 93.774 326.892 93.8187L325.982 96.0945C325.977 96.1057 325.97 96.1154 325.96 96.1226C325.951 96.1297 325.939 96.134 325.927 96.135C325.915 96.136 325.903 96.1336 325.892 96.1281C325.881 96.1226 325.872 96.1142 325.866 96.1039C325.207 95.0461 324.302 94.2511 323.151 93.7191C323.114 93.7028 323.075 93.6906 323.036 93.6828C321.769 93.4425 320.138 93.7273 319.623 95.0457C319.134 96.3011 319.37 97.3332 320.331 98.1418C321.611 99.2199 323.886 100.032 325.697 101.437C327.285 102.669 327.941 104.3 327.663 106.328C327.462 107.8 326.852 108.977 325.834 109.858C324.341 111.152 321.864 111.829 319.906 111.564C318.517 111.378 317.283 111.083 316.206 110.681C316.189 110.674 316.174 110.662 316.166 110.646C316.157 110.629 316.155 110.611 316.159 110.593L317.132 106.875C317.133 106.869 317.136 106.864 317.14 106.861C317.145 106.857 317.15 106.855 317.156 106.855C317.161 106.855 317.167 106.857 317.172 106.86C317.176 106.863 317.18 106.868 317.182 106.873Z" fill="#D92936"/>
<path d="M255.429 102.777V111.035C255.429 111.049 255.423 111.062 255.414 111.071C255.404 111.08 255.391 111.086 255.378 111.086H251.588C251.575 111.086 251.563 111.081 251.553 111.072C251.544 111.063 251.539 111.05 251.539 111.038V92.7284C251.539 92.7134 251.542 92.6986 251.548 92.6849C251.553 92.6711 251.562 92.6585 251.572 92.648C251.583 92.6374 251.595 92.629 251.609 92.6233C251.623 92.6176 251.638 92.6147 251.653 92.6147C255.564 92.6201 257.977 92.6178 258.89 92.6076C259.867 92.5967 260.57 92.6604 260.998 92.7987C263.073 93.4678 263.82 95.2807 263.764 97.3303C263.69 100.016 261.917 101.748 259.365 102.123C259.36 102.124 259.355 102.126 259.351 102.129C259.347 102.132 259.344 102.136 259.342 102.141C259.34 102.145 259.339 102.15 259.34 102.155C259.34 102.16 259.342 102.165 259.345 102.169L265.393 111.028C265.396 111.033 265.398 111.039 265.399 111.045C265.399 111.051 265.398 111.057 265.395 111.062C265.392 111.068 265.388 111.072 265.383 111.075C265.378 111.078 265.372 111.08 265.366 111.08H260.466C260.455 111.08 260.443 111.077 260.433 111.071C260.423 111.065 260.415 111.057 260.409 111.047L255.474 102.764C255.471 102.76 255.467 102.756 255.462 102.754C255.457 102.752 255.452 102.752 255.446 102.753C255.441 102.755 255.437 102.758 255.433 102.762C255.43 102.767 255.428 102.772 255.429 102.777ZM255.43 93.8311V101.489C255.43 101.508 255.437 101.526 255.449 101.539C255.462 101.552 255.479 101.56 255.498 101.561C256.305 101.591 257.068 101.503 257.788 101.297C258.979 100.956 259.57 100.007 259.755 98.8326C260.034 97.0537 260.049 94.6256 257.945 93.9026C257.2 93.6471 256.171 93.7866 255.522 93.7432C255.51 93.7424 255.499 93.7441 255.487 93.7481C255.476 93.7522 255.466 93.7585 255.457 93.7668C255.448 93.775 255.442 93.785 255.437 93.796C255.432 93.8071 255.43 93.819 255.43 93.8311Z" fill="#D92936"/>
<path d="M277.121 92.6172H279.841C279.849 92.6173 279.857 92.62 279.863 92.6248C279.87 92.6296 279.875 92.6364 279.877 92.6441L284.274 105.968C284.277 105.976 284.282 105.983 284.289 105.988C284.295 105.992 284.304 105.995 284.312 105.994C284.32 105.994 284.328 105.991 284.335 105.986C284.341 105.981 284.346 105.974 284.348 105.966L288.193 92.6453C288.195 92.6372 288.2 92.63 288.207 92.6249C288.214 92.6198 288.222 92.6171 288.23 92.6172H290.924C290.931 92.6171 290.937 92.6184 290.942 92.6212C290.948 92.6239 290.952 92.6278 290.956 92.6328C290.96 92.6377 290.962 92.6434 290.963 92.6495C290.964 92.6555 290.964 92.6617 290.962 92.6676L284.875 111.059C284.873 111.067 284.868 111.073 284.861 111.078C284.855 111.083 284.847 111.086 284.839 111.086H282.12C282.112 111.086 282.104 111.084 282.097 111.079C282.091 111.075 282.085 111.068 282.083 111.06L277.685 98.3254C277.682 98.3179 277.677 98.3115 277.67 98.307C277.664 98.3024 277.656 98.3 277.648 98.3C277.64 98.3 277.633 98.3024 277.626 98.307C277.62 98.3115 277.615 98.3179 277.612 98.3254L273.213 111.06C273.21 111.068 273.205 111.075 273.198 111.079C273.191 111.084 273.183 111.086 273.175 111.086H270.462C270.454 111.086 270.446 111.084 270.439 111.079C270.432 111.074 270.427 111.067 270.425 111.059L264.892 92.6676C264.891 92.6618 264.89 92.6557 264.891 92.6498C264.892 92.6438 264.894 92.6381 264.898 92.6332C264.901 92.6283 264.906 92.6243 264.911 92.6216C264.917 92.6188 264.923 92.6173 264.929 92.6172H269.292C269.3 92.6171 269.308 92.6198 269.315 92.6249C269.322 92.63 269.327 92.6372 269.329 92.6453L273.166 105.959C273.168 105.967 273.173 105.975 273.18 105.98C273.186 105.985 273.195 105.988 273.203 105.988C273.212 105.988 273.22 105.985 273.227 105.98C273.234 105.975 273.239 105.967 273.241 105.959L277.083 92.6453C277.086 92.6372 277.091 92.63 277.097 92.6249C277.104 92.6198 277.112 92.6171 277.121 92.6172Z" fill="#D92936"/>
<path d="M310.974 102.698V111.044C310.974 111.053 310.971 111.063 310.964 111.069C310.957 111.076 310.948 111.08 310.938 111.08H307.117C307.107 111.08 307.098 111.076 307.091 111.069C307.084 111.063 307.08 111.053 307.08 111.044V103.232C307.08 103.226 307.079 103.22 307.076 103.214L300.989 92.6711C300.986 92.6656 300.984 92.6594 300.984 92.6531C300.984 92.6467 300.986 92.6406 300.989 92.6351C300.993 92.6297 300.997 92.6252 301.003 92.622C301.008 92.6189 301.014 92.6172 301.021 92.6172H306.528C306.535 92.6171 306.542 92.6189 306.548 92.6225C306.553 92.626 306.558 92.6311 306.561 92.6371L310.369 100.403C310.372 100.41 310.376 100.415 310.382 100.419C310.388 100.423 310.395 100.425 310.402 100.425C310.409 100.424 310.416 100.422 310.422 100.418C310.428 100.414 310.433 100.409 310.435 100.402L313.737 92.6395C313.739 92.6328 313.744 92.6271 313.75 92.6231C313.756 92.6192 313.763 92.6171 313.771 92.6172H316.467C316.473 92.6172 316.48 92.6189 316.485 92.622C316.49 92.6252 316.495 92.6297 316.498 92.6351C316.501 92.6406 316.503 92.6467 316.503 92.6531C316.503 92.6594 316.502 92.6656 316.499 92.6711L310.979 102.68C310.976 102.685 310.974 102.692 310.974 102.698Z" fill="#D92936"/>
<path d="M237.85 111.053L236.074 105.669C236.071 105.661 236.066 105.654 236.059 105.649C236.052 105.644 236.044 105.641 236.035 105.642H229.912C229.904 105.642 229.896 105.644 229.889 105.649C229.883 105.653 229.877 105.66 229.875 105.667L227.9 111.054C227.897 111.062 227.892 111.069 227.885 111.073C227.878 111.078 227.871 111.08 227.862 111.08H225.555C225.548 111.08 225.542 111.079 225.536 111.075C225.531 111.072 225.526 111.068 225.522 111.062C225.519 111.057 225.516 111.051 225.516 111.044C225.515 111.038 225.516 111.031 225.519 111.025L232.865 92.6643C232.868 92.6569 232.873 92.6506 232.88 92.6462C232.887 92.6418 232.895 92.6395 232.903 92.6397H235.04C235.048 92.6395 235.056 92.6418 235.063 92.6462C235.069 92.6506 235.075 92.6569 235.078 92.6643L242.455 111.025C242.457 111.031 242.458 111.038 242.457 111.044C242.457 111.051 242.455 111.057 242.451 111.062C242.447 111.068 242.443 111.072 242.437 111.075C242.431 111.079 242.425 111.08 242.418 111.08H237.889C237.88 111.08 237.872 111.078 237.865 111.073C237.858 111.068 237.853 111.061 237.85 111.053ZM233.105 97.7936C233.103 97.7869 233.098 97.7812 233.092 97.7772C233.087 97.7732 233.08 97.771 233.073 97.771C233.065 97.771 233.059 97.7732 233.053 97.7772C233.047 97.7812 233.042 97.7869 233.04 97.7936L230.504 103.989C230.502 103.995 230.501 104 230.502 104.006C230.502 104.012 230.504 104.017 230.507 104.022C230.511 104.027 230.515 104.031 230.52 104.033C230.525 104.036 230.531 104.037 230.537 104.037H235.414C235.42 104.037 235.425 104.036 235.43 104.033C235.436 104.031 235.44 104.027 235.443 104.022C235.446 104.017 235.448 104.012 235.449 104.006C235.45 104 235.449 103.995 235.447 103.989L233.105 97.7936Z" fill="#D92936"/>
<path d="M248.163 92.6328H243.817C243.789 92.6328 243.766 92.6559 243.766 92.6844V111.01C243.766 111.039 243.789 111.062 243.817 111.062H248.163C248.191 111.062 248.214 111.039 248.214 111.01V92.6844C248.214 92.6559 248.191 92.6328 248.163 92.6328Z" fill="#D92936"/>
<path d="M304.108 111.03C304.11 111.035 304.111 111.041 304.11 111.047C304.109 111.053 304.107 111.059 304.104 111.063C304.101 111.068 304.096 111.072 304.091 111.075C304.086 111.078 304.08 111.079 304.074 111.079H299.564C299.548 111.079 299.533 111.074 299.521 111.065C299.508 111.056 299.499 111.043 299.494 111.029L297.727 105.676C297.724 105.665 297.717 105.656 297.708 105.649C297.699 105.643 297.689 105.639 297.678 105.639L291.591 105.64C291.575 105.64 291.559 105.645 291.546 105.655C291.533 105.664 291.523 105.677 291.517 105.692L289.566 111.016C289.559 111.035 289.547 111.051 289.53 111.063C289.514 111.074 289.495 111.08 289.475 111.08L287.197 111.079C287.191 111.079 287.186 111.078 287.182 111.075C287.177 111.073 287.173 111.069 287.17 111.065C287.167 111.06 287.165 111.055 287.164 111.05C287.164 111.045 287.164 111.04 287.166 111.035L294.508 92.6854C294.514 92.6719 294.523 92.6603 294.535 92.6522C294.547 92.6441 294.561 92.6397 294.576 92.6396H296.683C296.693 92.6396 296.704 92.6428 296.712 92.6486C296.721 92.6545 296.727 92.6628 296.731 92.6725L304.108 111.03ZM294.758 97.7936C294.755 97.7869 294.751 97.7812 294.745 97.7772C294.739 97.7732 294.732 97.771 294.725 97.771C294.718 97.771 294.711 97.7732 294.705 97.7772C294.699 97.7812 294.695 97.7869 294.692 97.7936L292.156 103.989C292.154 103.995 292.153 104 292.154 104.006C292.154 104.012 292.157 104.017 292.16 104.022C292.163 104.027 292.167 104.031 292.172 104.033C292.178 104.036 292.183 104.037 292.189 104.037H297.066C297.072 104.037 297.078 104.036 297.083 104.033C297.088 104.031 297.092 104.027 297.095 104.022C297.099 104.017 297.101 104.012 297.101 104.006C297.102 104 297.101 103.995 297.099 103.989L294.758 97.7936Z" fill="#D92936"/>
</svg>
