<svg width="362" height="140" viewBox="0 0 362 140" fill="none" xmlns="http://www.w3.org/2000/svg">
<rect width="362" height="140" fill="#7D4697"/>
<g clip-path="url(#clip0_650_74359)">
<path d="M55.8672 78.1111C53.3325 78.1111 51.0463 76.6228 50.0523 74.2912L32.4587 33.2145C31.0671 29.9898 32.5581 26.3188 35.7886 24.9297C39.019 23.5406 42.6968 25.0289 44.0884 28.2535L55.8672 55.7868L67.6459 28.2535C69.0375 25.0289 72.7153 23.5406 75.9457 24.9297C79.1762 26.3188 80.6672 29.9898 79.2756 33.2145L61.682 74.2912C60.688 76.6228 58.4018 78.1111 55.8672 78.1111Z" fill="white"/>
<path d="M292.285 71.3642C291.043 70.4713 290.148 68.8837 290.148 67.1474C290.148 64.2204 292.484 61.988 295.417 61.988C296.858 61.988 297.902 62.4842 298.597 63.0299C302.474 65.8576 306.698 67.5939 311.619 67.5939C316.191 67.5939 318.974 65.7584 318.974 62.7818V62.6329C318.974 59.8052 317.235 58.3169 308.686 56.1837C298.399 53.5544 291.788 50.7266 291.788 40.6063V40.4574C291.788 31.23 299.243 25.128 309.631 25.128C315.843 25.128 321.211 26.7155 325.783 29.6425C327.025 30.3866 328.268 31.8749 328.268 34.1074C328.268 37.0343 325.932 39.2667 323 39.2667C321.906 39.2667 321.012 38.9691 320.167 38.473C316.439 36.2902 312.96 35.0499 309.482 35.0499C305.158 35.0499 302.921 37.0343 302.921 39.4652V39.6141C302.921 42.9379 305.108 44.0293 313.905 46.3114C324.242 48.9903 330.057 52.711 330.057 61.5911V61.74C330.057 71.8604 322.354 77.5159 311.32 77.5159C304.76 77.4662 297.951 75.4322 292.285 71.3642Z" fill="white"/>
<path d="M260.132 78.0119C245.371 78.0119 233.344 66.0064 233.344 51.2724C233.344 36.5383 245.371 24.5328 260.132 24.5328C274.892 24.5328 286.92 36.5383 286.92 51.2724C286.92 66.0064 274.942 78.0119 260.132 78.0119ZM260.132 35.943C251.683 35.943 244.775 42.8387 244.775 51.2724C244.775 59.706 251.683 66.6017 260.132 66.6017C268.581 66.6017 275.489 59.706 275.489 51.2724C275.489 42.8387 268.63 35.943 260.132 35.943Z" fill="white"/>
<path d="M220.522 29.1465L230.959 70.2233C231.804 73.5967 229.766 77.0197 226.387 77.8631C225.89 78.012 225.343 78.0615 224.846 78.0615C222.013 78.0615 219.429 76.1764 218.733 73.2991L212.918 50.2802L202.68 74.192C201.686 76.5236 199.4 78.0119 196.865 78.0119C194.331 78.0119 192.045 76.5236 191.051 74.192L180.266 49.288L173.059 73.5967C172.264 76.3253 169.729 78.1111 166.996 78.1111C166.4 78.1111 165.803 78.012 165.207 77.8631C161.877 76.8709 159.939 73.3486 160.933 70.0248L173.109 29.0969C173.109 29.0969 174.451 24.384 179.073 24.384C183.446 24.384 184.937 28.0551 184.937 28.0551L196.816 55.7372L208.594 28.2039C208.594 28.2039 210.185 24.384 214.459 24.384C218.733 24.4337 220.274 28.204 220.522 29.1465Z" fill="white"/>
<path d="M91.0546 78.1111C88.52 78.1111 86.2338 76.6228 85.2398 74.2912L67.6462 33.2145C66.2546 29.9898 67.7456 26.3188 70.9761 24.9297C74.2065 23.5406 77.8843 25.0289 79.2759 28.2535L91.0546 55.7868L102.833 28.2535C104.225 25.0289 107.903 23.5406 111.133 24.9297C114.364 26.3188 115.855 29.9898 114.463 33.2145L96.8695 74.2912C95.8755 76.6228 93.5893 78.1111 91.0546 78.1111Z" fill="#6FB92C"/>
<path d="M151.242 78.6072C148.757 78.6072 146.421 77.1686 145.427 74.7377L133.648 46.6091L121.919 74.7377C120.577 77.9623 116.899 79.4506 113.669 78.1111C110.438 76.7717 108.947 73.1006 110.289 69.876L127.883 27.807C128.877 25.4754 131.163 23.9375 133.698 23.9375C136.232 23.9375 138.568 25.4754 139.513 27.807L157.106 69.876C158.448 73.1006 156.907 76.7717 153.727 78.1111C152.882 78.4584 152.037 78.6072 151.242 78.6072Z" fill="#6FB92C"/>
<path d="M88.1753 112.739L94.4871 95.3753C95.1332 93.5398 96.1769 92.4484 97.9164 92.4484C99.7056 92.4484 100.749 93.5398 101.395 95.3753L107.558 112.739C107.657 113.036 107.707 113.334 107.707 113.681C107.707 115.12 106.564 116.013 105.272 116.013C104.179 116.013 103.284 115.368 102.936 114.227L101.992 111.399H93.692L92.7477 114.227C92.3501 115.368 91.5052 116.013 90.4118 116.013C89.1694 116.013 87.9766 115.07 87.9766 113.681C87.9766 113.334 88.0759 112.987 88.1753 112.739ZM100.6 107.133L97.9165 98.9968H97.8171L95.1333 107.133H100.6Z" fill="#6FB92C"/>
<path d="M110.484 95.0776C110.484 93.4901 111.528 92.3987 113.019 92.3987C114.46 92.3987 115.504 93.4405 115.504 95.0776V113.384C115.504 114.971 114.46 116.062 113.019 116.062C111.528 116.062 110.484 115.021 110.484 113.384V95.0776Z" fill="#6FB92C"/>
<path d="M131.907 114.475L128.031 106.984H124.601C124.452 106.984 124.402 107.034 124.402 107.182V113.384C124.402 114.971 123.359 116.062 121.917 116.062C120.427 116.062 119.383 115.021 119.383 113.384V94.8296C119.383 93.4901 120.178 92.5971 121.57 92.5971H128.975C133.746 92.5971 136.927 95.5737 136.927 99.7905C136.927 102.618 135.485 104.9 133.1 106.091L136.479 112.243C136.728 112.689 136.827 113.185 136.827 113.632C136.827 114.921 135.933 116.013 134.442 116.013C133.299 116.013 132.454 115.566 131.907 114.475ZM131.808 99.8402C131.808 98.0542 130.565 96.9628 128.677 96.9628H124.552C124.402 96.9628 124.353 97.0125 124.353 97.1612V102.519C124.353 102.668 124.403 102.718 124.552 102.718H128.677C130.565 102.718 131.808 101.576 131.808 99.8402Z" fill="#6FB92C"/>
</g>
<defs>
<clipPath id="clip0_650_74359">
<rect width="300" height="94" fill="white" transform="translate(31 23)"/>
</clipPath>
</defs>
</svg>
