<svg width="362" height="140" viewBox="0 0 362 140" fill="none" xmlns="http://www.w3.org/2000/svg">
<rect width="362" height="140" fill="#E2000A"/>
<path d="M113.956 19.4038C113.915 19.3822 113.881 19.3484 113.859 19.307C113.838 19.2656 113.829 19.2186 113.835 19.1722C113.841 19.1259 113.861 19.0826 113.893 19.048C113.924 19.0135 113.965 18.9894 114.011 18.9791C117.487 18.1297 121.915 17.9252 124.503 20.733C127.547 24.0363 125.47 27.1508 122.45 29.1799C122.42 29.2002 122.396 29.2279 122.379 29.2604C122.363 29.2928 122.355 29.3289 122.357 29.3652C122.358 29.4015 122.369 29.4368 122.388 29.4677C122.407 29.4986 122.434 29.5241 122.466 29.5417C130.215 33.9251 135.362 40.3323 137.905 48.7635C138.959 52.2451 139.255 56.306 138.793 60.9463C137.527 73.6953 127.775 83.7939 115.985 88.3712C115.958 88.3819 115.928 88.3848 115.9 88.3797C115.871 88.3745 115.845 88.3615 115.824 88.3423C115.803 88.3231 115.788 88.2984 115.782 88.2714C115.776 88.2444 115.778 88.2162 115.788 88.1903C118.845 79.0513 118.877 69.8598 115.883 60.616C115.868 60.5655 115.865 60.5122 115.875 60.4605C115.884 60.4087 115.906 60.36 115.939 60.3185C115.971 60.2769 116.013 60.2437 116.06 60.2216C116.108 60.1994 116.161 60.189 116.213 60.1912C119.805 60.359 122.539 59.1741 124.416 56.6363C127.83 52.0275 126.265 46.2232 121.333 43.4233C121.282 43.3952 121.238 43.3555 121.204 43.3074C121.171 43.2593 121.149 43.204 121.141 43.146C121.132 43.088 121.137 43.0289 121.156 42.9732C121.174 42.9176 121.205 42.867 121.247 42.8255L122.946 41.1346C122.967 41.1134 122.981 41.0863 122.987 41.0568C122.992 41.0274 122.989 40.9969 122.977 40.9694L122.891 40.7885C122.874 40.7497 122.849 40.7148 122.818 40.686C122.787 40.6571 122.751 40.635 122.711 40.621C122.671 40.607 122.629 40.6013 122.586 40.6044C122.544 40.6075 122.503 40.6193 122.466 40.6391C117.558 43.2896 113.39 45.2322 108.026 42.4559C107.774 42.3223 107.567 42.1233 107.428 41.8817C103.999 36.0067 107.538 31.7832 112.037 28.3148C114.428 26.4586 118.392 21.6532 113.956 19.4038ZM114.365 37.6268C114.365 37.1763 114.186 36.7442 113.867 36.4256C113.549 36.107 113.117 35.928 112.666 35.928C112.216 35.928 111.783 36.107 111.465 36.4256C111.146 36.7442 110.967 37.1763 110.967 37.6268C110.967 38.0774 111.146 38.5095 111.465 38.8281C111.783 39.1467 112.216 39.3256 112.666 39.3256C113.117 39.3256 113.549 39.1467 113.867 38.8281C114.186 38.5095 114.365 38.0774 114.365 37.6268Z" fill="#C8B437"/>
<path d="M125.444 28.8415C125.406 28.8391 125.369 28.8234 125.341 28.7969C125.313 28.7704 125.295 28.735 125.29 28.6966C125.286 28.6583 125.295 28.6196 125.315 28.5871C125.336 28.5547 125.368 28.5306 125.405 28.519C127.906 27.785 129.662 26.4558 130.674 24.5315C130.757 24.3738 130.788 24.1943 130.764 24.018C130.739 23.8417 130.661 23.6773 130.539 23.5477C130.417 23.418 130.258 23.3295 130.083 23.2944C129.909 23.2593 129.728 23.2793 129.565 23.3518L129.219 23.5091C129.089 23.5667 128.947 23.5904 128.805 23.578C128.663 23.5657 128.527 23.5176 128.409 23.4383C127.481 22.8143 127.195 22.0305 127.552 21.0867C128.378 18.8767 131.571 18.7665 133.285 19.6867C134.544 20.3526 135.283 21.4537 135.503 22.99C135.794 25.027 134.481 26.4348 132.727 27.3708C130.614 28.4928 128.186 28.9831 125.444 28.8415Z" fill="#C8B437"/>
<path d="M31.0039 20.1901C30.9987 20.0118 30.9987 19.8335 31.0039 19.6553C37.7153 23.4147 44.1462 25.4203 50.2966 25.6719C60.0858 26.0652 65.5414 26.288 66.6634 26.3404C74.1875 26.6813 79.3312 27.3314 82.0944 28.2909C89.2724 30.7867 94.8093 35.7757 98.7051 43.2579C98.7155 43.2683 98.7214 43.2824 98.7214 43.2972C98.7214 43.3119 98.7155 43.3261 98.7051 43.3365C98.6947 43.3469 98.6805 43.3528 98.6658 43.3528C98.651 43.3528 98.6369 43.3469 98.6264 43.3365C93.9075 40.5287 87.3953 40.1591 81.7405 40.1748C72.6539 40.2063 64.8598 40.1722 58.3581 40.0726C46.4349 39.8838 35.5813 30.792 31.0039 20.1901Z" fill="#C8B437"/>
<path d="M125.875 30.234C127.773 30.5277 129.836 30.255 132.065 29.4161C132.486 29.2586 132.949 29.2558 133.37 29.4082C134.471 29.8015 135.47 30.567 136.367 31.7048C136.404 31.7501 136.429 31.8048 136.438 31.8629C136.446 31.9211 136.439 31.9806 136.416 32.0348C136.393 32.0891 136.356 32.1361 136.309 32.1708C136.261 32.2055 136.205 32.2266 136.147 32.2317C132.836 32.5778 128.793 32.4126 125.765 30.5486C125.731 30.5276 125.704 30.495 125.69 30.4565C125.676 30.4181 125.676 30.3763 125.689 30.3386C125.703 30.3009 125.728 30.2697 125.762 30.2506C125.796 30.2315 125.836 30.2256 125.875 30.234Z" fill="#C8B437"/>
<path d="M134.707 35.1961C134.682 35.1722 134.665 35.141 134.659 35.107C134.653 35.0729 134.657 35.0378 134.672 35.0065C134.687 34.9752 134.711 34.9494 134.741 34.9326C134.772 34.9158 134.806 34.909 134.841 34.913C141.222 35.343 147.259 34.3205 152.954 31.8457C152.998 31.827 153.046 31.8198 153.094 31.8248C153.141 31.8298 153.187 31.8469 153.226 31.8744C153.266 31.9019 153.297 31.939 153.318 31.9821C153.34 32.0253 153.349 32.073 153.347 32.121C152.906 39.2623 146.89 42.8566 140.338 43.1948C140.25 43.1991 140.162 43.1774 140.087 43.1326C140.011 43.0878 139.951 43.0219 139.914 42.9431C138.535 40.1012 136.799 37.5189 134.707 35.1961Z" fill="#C8B437"/>
<path d="M143.23 55.3385C142.994 52.1663 142.344 49.0544 141.28 46.0028C141.266 45.9604 141.262 45.9152 141.269 45.8712C141.275 45.8271 141.292 45.7853 141.317 45.7493C141.342 45.7132 141.376 45.6839 141.414 45.6637C141.453 45.6436 141.496 45.6331 141.539 45.6332C145.493 45.6017 148.917 44.2568 151.811 41.5985C151.828 41.5821 151.849 41.5709 151.872 41.5661C151.895 41.5613 151.919 41.5631 151.942 41.5713C151.964 41.5795 151.983 41.5938 151.998 41.6125C152.012 41.6312 152.021 41.6536 152.023 41.6771C152.526 47.6938 150.23 54.1509 143.702 55.6924C143.648 55.7049 143.592 55.7054 143.538 55.6938C143.483 55.6822 143.432 55.6588 143.387 55.6252C143.342 55.5916 143.305 55.5486 143.278 55.4992C143.251 55.4497 143.235 55.3949 143.23 55.3385Z" fill="#C8B437"/>
<path d="M110.523 57.5485C107.377 55.8969 103.088 55.0658 97.6562 55.0553C97.5408 55.0553 88.0374 55.0422 69.1459 55.016C61.3518 55.0003 54.2026 49.778 49.578 43.0928C49.5571 43.0603 49.5463 43.0224 49.5469 42.9837C49.5475 42.9451 49.5594 42.9075 49.5812 42.8756C49.603 42.8438 49.6338 42.819 49.6695 42.8045C49.7053 42.7899 49.7446 42.7863 49.7825 42.7939C54.6168 43.8374 57.7942 44.3748 59.3147 44.4062C68.5796 44.574 77.0003 44.6474 84.5768 44.6265C95.4147 44.6029 105.372 47.0646 110.822 57.2418C110.844 57.285 110.852 57.3343 110.845 57.3825C110.837 57.4306 110.815 57.4751 110.782 57.5095C110.749 57.5438 110.705 57.5661 110.659 57.5731C110.612 57.5801 110.565 57.5715 110.523 57.5485Z" fill="#C8B437"/>
<path d="M111.015 44.8469C111.05 44.8537 111.081 44.8716 111.105 44.8978C111.129 44.924 111.144 44.9572 111.147 44.9925C111.151 45.0278 111.143 45.0633 111.125 45.0937C111.106 45.1241 111.079 45.1479 111.046 45.1615L106.5 47.2142C106.444 47.2392 106.382 47.2476 106.321 47.2384C106.26 47.2292 106.203 47.2028 106.157 47.1622C106.111 47.1217 106.077 47.0688 106.06 47.0097C106.043 46.9507 106.043 46.8879 106.06 46.8288L107.074 43.3683C107.088 43.3229 107.113 43.2818 107.147 43.2489C107.181 43.216 107.223 43.1925 107.269 43.1806C107.315 43.1688 107.363 43.169 107.409 43.1812C107.455 43.1934 107.497 43.2172 107.531 43.2503C108.259 43.9634 109.421 44.4956 111.015 44.8469Z" fill="#C8B437"/>
<path d="M150.334 55.4957C150.408 55.8732 149.797 57.7739 148.502 61.1978C147.201 64.6269 144.934 67.0493 141.698 68.4649C141.638 68.4915 141.572 68.4996 141.507 68.4882C141.442 68.4767 141.383 68.4463 141.335 68.4007C141.288 68.3551 141.256 68.2965 141.242 68.2323C141.228 68.1681 141.234 68.1012 141.258 68.0402C142.422 65.1984 143.104 62.1285 143.303 58.8304C143.309 58.7022 143.359 58.5795 143.444 58.4813C143.53 58.3832 143.646 58.3151 143.775 58.2878C146.307 57.7634 148.329 56.7803 149.839 55.3384C149.877 55.3025 149.925 55.2775 149.977 55.266C150.028 55.2545 150.082 55.2568 150.132 55.2728C150.183 55.2888 150.228 55.3178 150.263 55.357C150.299 55.3962 150.323 55.444 150.334 55.4957Z" fill="#C8B437"/>
<path d="M112.803 62.8419C112.799 62.796 112.815 62.7507 112.845 62.7161C112.875 62.6814 112.918 62.6602 112.964 62.6571C113.01 62.6539 113.055 62.6692 113.09 62.6994C113.124 62.7296 113.146 62.7724 113.149 62.8183C118.623 91.7769 95.7436 115.088 67.1704 113.689C55.5067 113.122 43.5993 106.775 36.9534 97.0936C31.6367 89.3466 30.1503 79.1065 35.231 70.8248C39.9578 63.1093 47.343 59.2869 55.9865 62.2992C58.6029 63.2115 59.9295 65.0021 59.9662 67.6709C59.9671 67.7277 59.9494 67.7832 59.9158 67.8289C59.8822 67.8746 59.8345 67.9081 59.7801 67.9241C59.7257 67.9402 59.6675 67.938 59.6144 67.9178C59.5614 67.8976 59.5164 67.8607 59.4864 67.8125C56.4584 62.8969 50.9136 66.9316 49.8047 70.5967C47.5344 78.0946 49.1257 84.5281 54.5787 89.8972C61.5155 96.7396 72.9354 98.6744 82.5306 97.2115C100.612 94.4431 111.505 80.7031 112.803 62.8419Z" fill="#C8B437"/>
<path d="M109.269 63.5732C109.065 64.2915 108.721 65.5368 108.239 67.3091C104.723 80.1918 91.6992 89.8735 78.2502 87.7814C71.1403 86.6803 66.6416 81.4502 66.2876 74.2144C65.5483 59.1217 93.9643 60.6947 87.751 72.9167C87.6934 73.0304 87.5943 73.1175 87.4742 73.1599C87.3541 73.2024 87.2223 73.197 87.1061 73.1448C85.9316 72.6152 85.1713 72.8748 84.8252 73.9234C84.141 75.984 87.4836 77.4469 89.0015 77.6671C98.0855 79.012 105.463 72.319 108.428 64.4148C108.512 64.1945 108.732 63.8826 109.088 63.4788C109.102 63.4567 109.123 63.4405 109.148 63.4336C109.173 63.4266 109.2 63.4294 109.223 63.4414C109.246 63.4534 109.264 63.4737 109.272 63.4982C109.281 63.5227 109.28 63.5495 109.269 63.5732Z" fill="#C8B437"/>
<path d="M315.338 76.6365C313.985 78.642 310.792 79.7117 309.368 76.9117C309.331 76.8385 309.312 76.7574 309.313 76.6752C309.313 76.5931 309.334 76.5123 309.372 76.4398C309.411 76.3672 309.466 76.3051 309.534 76.2585C309.602 76.212 309.68 76.1825 309.761 76.1724L310.115 76.1253C310.299 76.0999 310.486 76.1305 310.653 76.2132C310.82 76.2959 310.959 76.4269 311.051 76.5893L311.413 77.2106C311.481 77.3254 311.585 77.4147 311.708 77.4644C311.832 77.5142 311.969 77.5217 312.097 77.4859C312.863 77.2657 313.379 76.9327 313.647 76.487C313.688 76.4161 313.745 76.3558 313.814 76.3108C313.882 76.2658 313.959 76.2373 314.04 76.2275L315.007 76.0938C315.073 76.0851 315.139 76.0957 315.199 76.1243C315.259 76.153 315.309 76.1986 315.344 76.2556C315.378 76.3127 315.396 76.3789 315.395 76.4464C315.394 76.5139 315.374 76.5798 315.338 76.6365Z" fill="white"/>
<path d="M138.359 76.8809H140.719C140.785 76.8808 140.849 76.9059 140.897 76.9512C140.945 76.9966 140.974 77.0586 140.978 77.1247L141.505 86.4997C141.507 86.535 141.502 86.5705 141.49 86.6038C141.478 86.6371 141.459 86.6676 141.435 86.6934C141.411 86.7192 141.381 86.7398 141.349 86.7538C141.316 86.7678 141.281 86.775 141.246 86.7749H139.515C139.446 86.7749 139.38 86.7476 139.332 86.6989C139.283 86.6502 139.256 86.5842 139.256 86.5154V84.793C139.256 84.7241 139.228 84.6581 139.18 84.6094C139.131 84.5608 139.065 84.5334 138.996 84.5334H135.756C135.712 84.533 135.669 84.5436 135.631 84.5642C135.592 84.5848 135.559 84.6148 135.536 84.6514L134.222 86.6255C134.201 86.6589 134.172 86.6869 134.138 86.7074C134.104 86.7278 134.065 86.7402 134.026 86.7435L132.107 86.8536C132.058 86.8571 132.01 86.847 131.967 86.8246C131.924 86.8021 131.889 86.768 131.864 86.7263C131.839 86.6846 131.827 86.6368 131.828 86.5885C131.829 86.5401 131.844 86.493 131.871 86.4525L138.139 76.9988C138.163 76.9622 138.195 76.9322 138.234 76.9116C138.272 76.891 138.315 76.8804 138.359 76.8809ZM136.881 82.9919H138.815C138.918 82.9919 139.016 82.9521 139.088 82.8813C139.16 82.8105 139.201 82.7145 139.201 82.6144V79.4763C139.201 79.4253 139.186 79.3755 139.156 79.3343C139.126 79.293 139.083 79.2626 139.034 79.2476C138.986 79.2325 138.933 79.2336 138.885 79.2508C138.837 79.2679 138.796 79.3001 138.768 79.3426L136.645 82.5515C136.616 82.5941 136.6 82.6438 136.597 82.695C136.595 82.7463 136.606 82.7972 136.63 82.8425C136.655 82.8877 136.691 82.9255 136.735 82.9518C136.779 82.9782 136.829 82.992 136.881 82.9919Z" fill="white"/>
<path d="M262.071 86.7979L260.356 86.8923C260.317 86.8937 260.278 86.886 260.243 86.8698C260.207 86.8537 260.176 86.8296 260.153 86.7995C260.129 86.7695 260.113 86.7343 260.106 86.6971C260.099 86.6599 260.101 86.6216 260.112 86.5856L262.873 77.2499C262.905 77.1428 262.97 77.0488 263.058 76.9822C263.146 76.9156 263.252 76.8798 263.36 76.8803C266.239 76.8724 270.085 76.3533 269.479 79.9161C269.065 82.3647 267.22 83.5314 263.942 83.416C263.761 83.4089 263.582 83.463 263.434 83.5698C263.286 83.6766 263.177 83.83 263.124 84.0059L262.369 86.562C262.352 86.6262 262.313 86.6833 262.26 86.7256C262.206 86.7678 262.14 86.7931 262.071 86.7979ZM264.304 81.7723C265.552 81.7565 266.349 81.497 266.695 80.9936C267.293 80.1285 267.351 79.4626 266.868 78.9959C266.684 78.817 266.46 78.6802 266.218 78.5983C265.976 78.5163 265.722 78.4919 265.482 78.5272C265.241 78.5625 265.021 78.6564 264.841 78.8002C264.661 78.944 264.528 79.133 264.454 79.3499C264.448 79.3708 264.273 80.0184 263.927 81.2925C263.912 81.3497 263.911 81.4094 263.923 81.4671C263.936 81.5248 263.961 81.5789 263.997 81.6252C264.034 81.6716 264.081 81.7089 264.134 81.7344C264.187 81.7599 264.245 81.7729 264.304 81.7723Z" fill="white"/>
<path d="M294.014 78.737C294.017 78.7262 294.017 78.7151 294.015 78.7044C294.013 78.6937 294.009 78.6837 294.002 78.6753C293.996 78.6669 293.988 78.6603 293.98 78.656C293.971 78.6516 293.961 78.6498 293.951 78.6505H292.079C292.008 78.6499 291.939 78.6716 291.881 78.7125C291.823 78.7535 291.78 78.8115 291.757 78.8785C290.834 81.3219 289.827 83.4402 288.737 85.2334C287.95 86.5285 286.734 87.0948 285.087 86.9322C285.033 86.9274 284.98 86.9106 284.933 86.883C284.886 86.8554 284.845 86.8177 284.814 86.7725C284.784 86.7274 284.763 86.676 284.755 86.622C284.746 86.568 284.75 86.5128 284.765 86.4603L285.079 85.4064C285.108 85.3049 285.17 85.2156 285.255 85.1518C285.34 85.0879 285.444 85.0531 285.551 85.0525H286.275C286.433 85.0524 286.588 85.008 286.721 84.9245C286.855 84.8411 286.962 84.7219 287.03 84.5806L290.64 77.0067C290.659 76.9688 290.688 76.9369 290.724 76.9147C290.76 76.8925 290.802 76.8807 290.844 76.8809H296.617C296.641 76.8816 296.664 76.8874 296.685 76.8979C296.707 76.9084 296.725 76.9232 296.74 76.9414C296.754 76.9596 296.764 76.9805 296.769 77.0027C296.773 77.025 296.773 77.0478 296.767 77.0696L293.951 86.6019C293.931 86.6722 293.887 86.7339 293.828 86.7779C293.768 86.8219 293.696 86.8457 293.621 86.8457H291.843C291.818 86.8455 291.792 86.8394 291.769 86.8278C291.747 86.8162 291.727 86.7995 291.712 86.7789C291.696 86.7582 291.686 86.7344 291.682 86.7091C291.677 86.6839 291.679 86.6579 291.686 86.6334L294.014 78.737Z" fill="white"/>
<path d="M204.023 80.577C204.286 80.4407 204.645 80.2205 205.101 79.9164C205.553 79.6106 206.096 79.477 206.619 79.5428C207.142 79.6085 207.606 79.8686 207.917 80.2703C208.147 80.5639 208.171 81.0804 207.987 81.8197C207.594 83.3822 207.146 84.9473 206.642 86.5151C206.616 86.5996 206.562 86.6733 206.488 86.7256C206.414 86.778 206.325 86.8061 206.234 86.8061H204.629C204.598 86.806 204.566 86.7987 204.538 86.7846C204.51 86.7706 204.485 86.7502 204.466 86.7251C204.447 86.6999 204.434 86.6707 204.428 86.6398C204.423 86.6088 204.424 86.5769 204.432 86.5465L205.762 82.0557C205.8 81.9242 205.798 81.784 205.757 81.6533C205.716 81.5225 205.636 81.4073 205.53 81.3225C205.423 81.2377 205.293 81.1873 205.158 81.1778C205.023 81.1683 204.888 81.2001 204.771 81.2692L204.252 81.568C203.62 81.9367 203.153 82.5301 202.946 83.2275L202.026 86.3499C201.99 86.4749 201.914 86.5847 201.809 86.6628C201.704 86.7408 201.575 86.7828 201.444 86.7825H200.06C200.015 86.7817 199.971 86.7708 199.932 86.7505C199.892 86.7301 199.858 86.701 199.831 86.6653C199.804 86.6296 199.786 86.5883 199.778 86.5445C199.77 86.5007 199.772 86.4557 199.784 86.4128L201.664 80.0501C201.694 79.9487 201.754 79.8593 201.838 79.7943C201.921 79.7294 202.023 79.6923 202.128 79.6883L203.182 79.649C203.259 79.6473 203.336 79.6621 203.407 79.6925C203.478 79.7229 203.541 79.768 203.593 79.8248C203.644 79.8816 203.683 79.9488 203.706 80.0216C203.728 80.0944 203.735 80.1712 203.725 80.2467C203.719 80.252 203.711 80.2782 203.701 80.3254C203.69 80.3665 203.691 80.4099 203.704 80.4503C203.718 80.4906 203.743 80.5263 203.777 80.5529C203.811 80.5795 203.852 80.5959 203.896 80.6002C203.94 80.6045 203.984 80.5965 204.023 80.577Z" fill="white"/>
<path d="M213.413 86.1215C211.73 87.8911 208.922 86.7979 209.488 84.1553C210.322 80.2438 212.915 78.7993 217.267 79.8217C217.331 79.8371 217.392 79.8655 217.445 79.9052C217.498 79.9448 217.542 79.9949 217.576 80.0523C217.609 80.1097 217.63 80.1733 217.638 80.2391C217.645 80.3049 217.64 80.3717 217.621 80.4352L215.835 86.4912C215.812 86.5652 215.769 86.6312 215.712 86.6825C215.656 86.7337 215.587 86.7681 215.513 86.7822C214.417 86.9762 213.84 86.7979 213.782 86.2474C213.779 86.2059 213.764 86.1663 213.739 86.1334C213.713 86.1005 213.679 86.0759 213.639 86.0625C213.6 86.0491 213.557 86.0475 213.517 86.058C213.477 86.0685 213.441 86.0906 213.413 86.1215ZM214.648 81.0172C213.017 80.9805 212.021 82.0213 211.659 84.1396C211.63 84.307 211.637 84.4796 211.679 84.643C211.72 84.8064 211.796 84.956 211.898 85.0796C212.001 85.2032 212.129 85.2972 212.27 85.3539C212.412 85.4106 212.564 85.4284 212.713 85.4058C212.896 85.3796 213.109 85.2485 213.35 85.0126C214.189 84.1946 214.745 83.0123 215.017 81.4655C215.026 81.4112 215.024 81.3556 215.009 81.3024C214.995 81.2492 214.969 81.1997 214.934 81.1573C214.899 81.1148 214.856 81.0803 214.806 81.0561C214.757 81.032 214.703 81.0187 214.648 81.0172Z" fill="white"/>
<path d="M149.778 83.4323C150.433 83.6001 150.716 83.975 150.627 84.557C150.249 87.0344 146.757 87.2704 144.783 86.6805C144.548 86.6079 144.341 86.4674 144.187 86.2768C144.032 86.0862 143.939 85.8544 143.918 85.6109C143.567 81.5788 145.357 79.5523 149.29 79.5313C149.568 79.5294 149.845 79.5824 150.099 79.6863C150.354 79.7902 150.58 79.9424 150.761 80.1318C150.942 80.3211 151.073 80.5428 151.145 80.7805C151.217 81.0182 151.228 81.2659 151.178 81.5054C151.062 82.0454 150.58 82.5304 149.73 82.9604C149.683 82.9826 149.644 83.0188 149.619 83.064C149.593 83.1092 149.582 83.1613 149.587 83.213C149.593 83.2647 149.614 83.3135 149.648 83.3528C149.682 83.3921 149.727 83.4198 149.778 83.4323ZM149.113 81.2203C149.077 81.1326 149.008 81.0594 148.91 81.0049C148.813 80.9504 148.689 80.9157 148.545 80.9028C148.401 80.8899 148.24 80.899 148.072 80.9296C147.904 80.9602 147.732 81.0117 147.565 81.0812C147.398 81.1506 147.24 81.2367 147.1 81.3344C146.959 81.4322 146.84 81.5397 146.748 81.6508C146.655 81.762 146.593 81.8746 146.562 81.9822C146.532 82.0898 146.536 82.1904 146.572 82.2781C146.609 82.3658 146.678 82.439 146.775 82.4935C146.873 82.548 146.997 82.5827 147.141 82.5956C147.285 82.6085 147.445 82.5994 147.613 82.5688C147.782 82.5382 147.954 82.4867 148.121 82.4172C148.288 82.3478 148.446 82.2617 148.586 82.164C148.726 82.0662 148.846 81.9587 148.938 81.8476C149.03 81.7364 149.093 81.6238 149.123 81.5162C149.153 81.4086 149.15 81.308 149.113 81.2203ZM148.475 84.4708C148.468 84.2561 148.375 84.0531 148.218 83.9066C148.061 83.7601 147.852 83.682 147.638 83.6895L146.569 83.7268C146.462 83.7305 146.358 83.7551 146.261 83.7992C146.164 83.8433 146.077 83.9061 146.004 83.9839C145.932 84.0617 145.875 84.153 145.838 84.2527C145.801 84.3524 145.784 84.4584 145.787 84.5647L145.794 84.769C145.802 84.9837 145.894 85.1867 146.052 85.3332C146.209 85.4797 146.418 85.5578 146.632 85.5503L147.701 85.513C147.808 85.5093 147.912 85.4847 148.009 85.4406C148.106 85.3965 148.193 85.3337 148.266 85.2559C148.338 85.1781 148.395 85.0867 148.432 84.9871C148.469 84.8874 148.486 84.7814 148.483 84.6751L148.475 84.4708Z" fill="white"/>
<path d="M156.753 86.1849C156.765 86.1437 156.764 86.1003 156.75 86.0599C156.737 86.0195 156.711 85.9838 156.677 85.9572C156.643 85.9306 156.602 85.9142 156.558 85.9099C156.514 85.9056 156.47 85.9137 156.431 85.9332C156.169 86.0748 155.809 86.3002 155.353 86.6096C154.904 86.9167 154.363 87.0534 153.841 86.9921C153.318 86.9308 152.853 86.6761 152.538 86.2793C152.302 85.9909 152.273 85.4744 152.451 84.7299C152.829 83.1621 153.261 81.5918 153.749 80.0188C153.775 79.9356 153.828 79.8627 153.9 79.8105C153.972 79.7583 154.059 79.7294 154.15 79.7278L155.762 79.7042C155.794 79.7043 155.825 79.7116 155.853 79.7256C155.881 79.7397 155.906 79.7601 155.925 79.7852C155.944 79.8103 155.957 79.8395 155.963 79.8705C155.969 79.9015 155.967 79.9334 155.959 79.9637L154.677 84.4703C154.639 84.6023 154.642 84.7428 154.684 84.8735C154.727 85.0042 154.807 85.1191 154.915 85.2031C155.023 85.2872 155.153 85.3365 155.289 85.3447C155.424 85.3529 155.559 85.3195 155.676 85.249L156.187 84.9422C156.814 84.5681 157.275 83.9722 157.477 83.2749L158.365 80.1368C158.4 80.0104 158.476 79.8988 158.581 79.8192C158.686 79.7396 158.815 79.6965 158.947 79.6963L160.332 79.6885C160.375 79.6895 160.418 79.7004 160.457 79.7202C160.496 79.7401 160.53 79.7684 160.556 79.8032C160.583 79.8379 160.601 79.8782 160.61 79.921C160.619 79.9637 160.618 80.0079 160.607 80.0503L158.79 86.4366C158.763 86.5373 158.704 86.627 158.622 86.6932C158.54 86.7595 158.44 86.7989 158.334 86.8062L157.28 86.8534C157.203 86.8561 157.126 86.8423 157.055 86.8129C156.983 86.7835 156.919 86.7393 156.867 86.6832C156.815 86.6272 156.775 86.5606 156.752 86.4882C156.728 86.4157 156.72 86.3391 156.73 86.2635C156.735 86.2583 156.743 86.2321 156.753 86.1849Z" fill="white"/>
<path d="M165.988 86.2397C165.985 86.1982 165.969 86.1586 165.944 86.1257C165.918 86.0929 165.884 86.0682 165.844 86.0548C165.805 86.0414 165.763 86.0399 165.722 86.0504C165.682 86.0609 165.646 86.0829 165.618 86.1139C163.951 87.8992 161.135 86.8296 161.678 84.187C162.48 80.2702 165.06 78.8047 169.417 79.7905C169.481 79.8051 169.542 79.8326 169.595 79.8714C169.649 79.9101 169.693 79.9593 169.727 80.0159C169.761 80.0725 169.783 80.1354 169.792 80.2007C169.801 80.2661 169.796 80.3325 169.779 80.3961L168.04 86.4678C168.017 86.5407 167.976 86.6061 167.921 86.6573C167.866 86.7084 167.798 86.7434 167.726 86.7588C166.63 86.9633 166.051 86.7902 165.988 86.2397ZM166.955 81.0331C165.319 80.9912 164.315 82.0346 163.943 84.1634C163.913 84.3327 163.918 84.5075 163.959 84.6732C164 84.8389 164.075 84.9907 164.178 85.116C164.282 85.2414 164.409 85.3366 164.552 85.3939C164.694 85.4512 164.847 85.4688 164.997 85.4453C165.18 85.4191 165.393 85.288 165.634 85.0521C166.483 84.2289 167.047 83.0413 167.325 81.4893C167.335 81.4344 167.333 81.3779 167.32 81.3238C167.306 81.2697 167.281 81.2192 167.245 81.1758C167.21 81.1324 167.166 81.0972 167.116 81.0725C167.066 81.0479 167.011 81.0344 166.955 81.0331Z" fill="white"/>
<path d="M177.148 79.6885H178.831C178.882 79.688 178.932 79.7026 178.975 79.7306C179.018 79.7586 179.052 79.7987 179.072 79.8458C179.092 79.8929 179.098 79.9449 179.089 79.9953C179.079 80.0457 179.055 80.0922 179.02 80.1289L176.062 83.0861C176.025 83.1232 175.999 83.171 175.989 83.223C175.98 83.275 175.986 83.3288 176.007 83.3771L177.392 86.4209C177.41 86.4605 177.418 86.5042 177.416 86.5478C177.413 86.5915 177.399 86.6337 177.375 86.6706C177.352 86.7075 177.319 86.7378 177.281 86.7588C177.243 86.7797 177.199 86.7907 177.156 86.7905H175.386C175.337 86.7907 175.288 86.7767 175.246 86.7502C175.204 86.7238 175.171 86.6859 175.15 86.6411L173.939 83.9355C173.918 83.8865 173.882 83.8452 173.836 83.8173C173.791 83.7893 173.737 83.7762 173.684 83.7797C173.631 83.7831 173.58 83.803 173.538 83.8365C173.496 83.87 173.466 83.9156 173.451 83.967L172.673 86.6096C172.657 86.6643 172.624 86.7124 172.579 86.7465C172.533 86.7806 172.478 86.7988 172.421 86.7984H170.762C170.721 86.7987 170.681 86.7896 170.645 86.7718C170.609 86.7541 170.578 86.7282 170.553 86.6961C170.529 86.6641 170.512 86.6268 170.505 86.5872C170.497 86.5476 170.499 86.5068 170.51 86.468L172.452 79.8851C172.468 79.8304 172.501 79.7824 172.546 79.7483C172.592 79.7142 172.647 79.6959 172.704 79.6964H174.372C174.411 79.6973 174.45 79.7072 174.485 79.7255C174.52 79.7437 174.551 79.7698 174.574 79.8017C174.598 79.8336 174.614 79.8705 174.621 79.9095C174.628 79.9484 174.626 79.9886 174.615 80.0267L174.041 81.9929C174.024 82.0485 174.026 82.1082 174.046 82.1626C174.067 82.217 174.106 82.2628 174.155 82.2928C174.205 82.3227 174.264 82.335 174.322 82.3277C174.379 82.3204 174.433 82.2939 174.474 82.2525L176.959 79.7671C176.984 79.7419 177.013 79.722 177.045 79.7084C177.078 79.6949 177.113 79.6881 177.148 79.6885Z" fill="white"/>
<path d="M186.131 80.3468C186.751 80.9864 187.027 81.9083 186.898 82.9097C186.77 83.9112 186.248 84.91 185.446 85.6866C184.645 86.4632 183.63 86.9539 182.625 87.0508C181.62 87.1477 180.707 86.8427 180.087 86.2031C179.468 85.5635 179.191 84.6416 179.32 83.6401C179.448 82.6387 179.971 81.6398 180.772 80.8632C181.573 80.0866 182.588 79.5959 183.593 79.4991C184.598 79.4022 185.511 79.7071 186.131 80.3468ZM184.034 81.2429C183.697 81.0904 183.277 81.1607 182.864 81.4383C182.452 81.716 182.081 82.1783 181.833 82.7235C181.711 82.9934 181.623 83.2756 181.573 83.5539C181.524 83.8322 181.514 84.1012 181.545 84.3455C181.577 84.5897 181.648 84.8046 181.755 84.9776C181.862 85.1507 182.002 85.2787 182.169 85.3542C182.505 85.5067 182.926 85.4364 183.338 85.1587C183.751 84.8811 184.122 84.4188 184.369 83.8736C184.491 83.6037 184.58 83.3215 184.629 83.0432C184.679 82.7649 184.688 82.4959 184.657 82.2516C184.626 82.0073 184.555 81.7925 184.448 81.6194C184.341 81.4464 184.2 81.3184 184.034 81.2429Z" fill="white"/>
<path d="M193.281 84.7135L195.428 80.2069C195.525 80.0042 195.686 79.8393 195.887 79.7383C196.088 79.6372 196.316 79.6056 196.537 79.6485C197.271 79.7953 198.039 79.7848 198.841 79.617C198.883 79.6087 198.927 79.6114 198.968 79.6247C199.009 79.638 199.045 79.6615 199.075 79.6931C199.104 79.7246 199.124 79.7631 199.134 79.8049C199.145 79.8466 199.144 79.8903 199.132 79.9316L197.205 86.4674C197.178 86.5608 197.121 86.6428 197.043 86.701C196.965 86.7591 196.87 86.7903 196.773 86.7898H195.357C195.327 86.7895 195.296 86.7824 195.269 86.769C195.242 86.7556 195.218 86.7363 195.2 86.7126C195.181 86.689 195.169 86.6616 195.164 86.6327C195.158 86.6038 195.16 86.5741 195.168 86.546L196.427 82.2911C196.438 82.2527 196.435 82.2116 196.418 82.1752C196.402 82.1389 196.372 82.1098 196.336 82.0935C196.299 82.0771 196.258 82.0746 196.22 82.0864C196.182 82.0981 196.149 82.1234 196.128 82.1574L193.501 86.4831C193.446 86.5763 193.367 86.6536 193.272 86.7074C193.177 86.7612 193.069 86.7896 192.958 86.7898H191.841C191.691 86.7898 191.547 86.7293 191.441 86.6217C191.335 86.514 191.275 86.368 191.275 86.2157C191.275 84.1341 191.199 82.7473 191.047 82.0552C191.041 82.0357 191.029 82.0186 191.013 82.0065C190.997 81.9943 190.977 81.9877 190.957 81.9877C190.936 81.9877 190.917 81.9943 190.9 82.0065C190.884 82.0186 190.872 82.0357 190.866 82.0552L189.553 86.5224C189.528 86.6006 189.478 86.6686 189.412 86.7167C189.345 86.7648 189.265 86.7904 189.183 86.7898H188.137C188.099 86.7903 188.061 86.7816 188.027 86.7647C187.992 86.7478 187.962 86.723 187.939 86.6923C187.916 86.6617 187.901 86.6261 187.894 86.5884C187.888 86.5506 187.89 86.5119 187.901 86.4752L189.797 80.0496C189.825 79.9502 189.886 79.8628 189.97 79.8004C190.053 79.7381 190.155 79.7041 190.261 79.7036H192.211C192.317 79.7036 192.42 79.7458 192.495 79.821C192.57 79.8963 192.612 79.9983 192.612 80.1047V84.5562C192.613 84.6352 192.641 84.7115 192.69 84.773C192.74 84.8346 192.808 84.8779 192.885 84.8959C192.962 84.914 193.043 84.9059 193.114 84.8728C193.186 84.8398 193.245 84.7837 193.281 84.7135Z" fill="white"/>
<path d="M221.24 84.0848L220.509 86.5859C220.494 86.6384 220.461 86.6846 220.417 86.7172C220.373 86.7499 220.32 86.7673 220.265 86.7668H218.59C218.551 86.7671 218.512 86.7583 218.477 86.7409C218.441 86.7236 218.411 86.6982 218.387 86.6669C218.363 86.6355 218.347 86.5991 218.34 86.5604C218.333 86.5218 218.335 86.482 218.346 86.4443L220.281 79.8928C220.296 79.8402 220.328 79.7941 220.372 79.7615C220.416 79.7288 220.47 79.7114 220.525 79.7119H222.208C222.247 79.7116 222.286 79.7204 222.321 79.7378C222.356 79.7551 222.387 79.7805 222.411 79.8118C222.435 79.8431 222.451 79.8796 222.458 79.9183C222.465 79.9569 222.463 79.9967 222.452 80.0344L221.862 82.0478C221.851 82.0855 221.849 82.1253 221.856 82.1639C221.863 82.2026 221.879 82.239 221.902 82.2704C221.926 82.3017 221.957 82.3271 221.992 82.3444C222.027 82.3618 222.066 82.3706 222.106 82.3703H224.127C224.182 82.3708 224.235 82.3534 224.279 82.3207C224.323 82.2881 224.355 82.242 224.371 82.1894L225.039 79.9164C225.055 79.8638 225.087 79.8177 225.131 79.7851C225.175 79.7524 225.228 79.735 225.283 79.7355H226.966C227.005 79.7352 227.044 79.744 227.079 79.7614C227.115 79.7787 227.145 79.8041 227.169 79.8354C227.193 79.8667 227.209 79.9032 227.216 79.9418C227.223 79.9805 227.221 80.0203 227.21 80.058L225.283 86.5937C225.268 86.6463 225.235 86.6924 225.191 86.7251C225.147 86.7577 225.094 86.7751 225.039 86.7746H223.364C223.325 86.775 223.286 86.7661 223.251 86.7488C223.215 86.7314 223.185 86.7061 223.161 86.6747C223.137 86.6434 223.121 86.6069 223.114 86.5683C223.107 86.5296 223.109 86.4899 223.12 86.4522L223.773 84.2264C223.784 84.1887 223.786 84.1489 223.779 84.1103C223.772 84.0716 223.756 84.0351 223.732 84.0038C223.708 83.9725 223.678 83.9471 223.642 83.9298C223.607 83.9124 223.568 83.9036 223.529 83.9039H221.484C221.429 83.9034 221.376 83.9208 221.332 83.9535C221.288 83.9861 221.256 84.0322 221.24 84.0848Z" fill="white"/>
<path d="M232.62 86.1926C232.627 86.1515 232.623 86.1093 232.607 86.0706C232.592 86.0319 232.566 85.9982 232.533 85.9731C232.5 85.9479 232.46 85.9324 232.419 85.9281C232.377 85.9238 232.336 85.931 232.298 85.9488C232.036 86.0851 231.677 86.308 231.22 86.6173C230.77 86.9234 230.229 87.0586 229.706 86.9959C229.184 86.9332 228.719 86.677 228.405 86.2791C228.169 85.9907 228.14 85.4743 228.318 84.7297C228.701 83.162 229.139 81.5943 229.632 80.0265C229.657 79.9406 229.711 79.8651 229.784 79.8113C229.858 79.7574 229.948 79.7281 230.041 79.7276L231.645 79.7198C231.677 79.7198 231.708 79.7272 231.736 79.7412C231.764 79.7553 231.789 79.7757 231.808 79.8008C231.827 79.8259 231.84 79.8551 231.846 79.8861C231.852 79.917 231.85 79.949 231.842 79.9793L230.544 84.478C230.506 84.61 230.509 84.7505 230.551 84.8813C230.594 85.012 230.674 85.1269 230.782 85.2109C230.89 85.295 231.02 85.3443 231.156 85.3524C231.291 85.3606 231.426 85.3272 231.543 85.2567L232.062 84.9578C232.689 84.5837 233.15 83.9878 233.352 83.2905L234.256 80.1523C234.292 80.0287 234.367 79.9198 234.47 79.8418C234.574 79.7639 234.7 79.7211 234.83 79.7198L236.215 79.7119C236.259 79.7118 236.303 79.7218 236.343 79.7411C236.382 79.7605 236.417 79.7887 236.445 79.8236C236.472 79.8585 236.491 79.8991 236.5 79.9425C236.509 79.9858 236.508 80.0307 236.498 80.0737L234.657 86.46C234.628 86.5593 234.569 86.6473 234.487 86.712C234.406 86.7767 234.306 86.8151 234.201 86.8218L233.147 86.869C233.069 86.8718 232.992 86.8579 232.92 86.828C232.848 86.7982 232.783 86.7532 232.731 86.6963C232.678 86.6393 232.639 86.5717 232.616 86.4983C232.593 86.4249 232.586 86.3474 232.597 86.2713C232.602 86.266 232.61 86.2398 232.62 86.1926Z" fill="white"/>
<path d="M239.247 83.1967C238.681 83.0604 238.427 82.6357 238.484 81.9226C238.529 81.404 238.753 80.9167 239.119 80.5439C239.485 80.171 239.969 79.9356 240.49 79.8777C241.077 79.8148 242.632 79.7466 245.154 79.6732C245.214 79.6706 245.274 79.6825 245.329 79.7079C245.384 79.7333 245.432 79.7715 245.469 79.8193C245.506 79.867 245.531 79.923 245.542 79.9824C245.553 80.0419 245.549 80.1031 245.531 80.1608L243.667 86.4685C243.64 86.5595 243.585 86.6392 243.51 86.6959C243.435 86.7526 243.344 86.7832 243.251 86.7831H241.709C241.675 86.7837 241.641 86.7759 241.61 86.7603C241.579 86.7448 241.552 86.722 241.531 86.6937C241.511 86.6654 241.497 86.6324 241.491 86.5974C241.485 86.5624 241.487 86.5263 241.497 86.4921L242.016 84.7225C242.045 84.6322 242.045 84.5356 242.017 84.4452C241.99 84.3548 241.935 84.2747 241.86 84.2154C241.786 84.1561 241.695 84.1202 241.599 84.1125C241.503 84.1047 241.407 84.1255 241.324 84.1719C240.5 84.6334 239.869 85.336 239.428 86.2797C239.355 86.4328 239.241 86.5621 239.097 86.6526C238.954 86.7431 238.788 86.7911 238.618 86.791H236.951C236.889 86.7901 236.829 86.7712 236.778 86.7366C236.727 86.7019 236.688 86.6531 236.664 86.5962C236.641 86.5392 236.635 86.4767 236.646 86.4162C236.658 86.3558 236.687 86.3001 236.731 86.2561L239.365 83.6214C239.398 83.5899 239.421 83.5504 239.432 83.5069C239.444 83.4634 239.444 83.4176 239.432 83.3742C239.42 83.3308 239.396 83.2915 239.364 83.2603C239.331 83.229 239.291 83.2071 239.247 83.1967ZM242.978 81.498C242.93 81.3849 242.852 81.2856 242.75 81.2056C242.648 81.1257 242.524 81.0667 242.383 81.032C242.243 80.9973 242.09 80.9877 241.933 81.0036C241.776 81.0195 241.618 81.0606 241.468 81.1246C241.318 81.1886 241.178 81.2743 241.058 81.3767C240.938 81.4791 240.839 81.5963 240.767 81.7215C240.695 81.8467 240.651 81.9775 240.638 82.1065C240.625 82.2354 240.644 82.36 240.692 82.473C240.74 82.5861 240.817 82.6854 240.919 82.7654C241.021 82.8453 241.146 82.9043 241.286 82.939C241.427 82.9737 241.58 82.9833 241.737 82.9674C241.894 82.9515 242.052 82.9104 242.202 82.8464C242.352 82.7824 242.491 82.6967 242.612 82.5943C242.732 82.4919 242.831 82.3747 242.903 82.2495C242.975 82.1243 243.019 81.9935 243.031 81.8645C243.044 81.7356 243.026 81.611 242.978 81.498Z" fill="white"/>
<path d="M283.227 85.1001C283.271 85.0771 283.321 85.066 283.371 85.0678C283.421 85.0696 283.47 85.0842 283.512 85.1103C283.555 85.1364 283.59 85.173 283.615 85.2167C283.639 85.2604 283.652 85.3096 283.652 85.3597V85.8001C283.652 85.9968 283.587 86.1881 283.468 86.3444C283.348 86.5007 283.181 86.6135 282.991 86.6652C281.727 87.0008 280.92 87.1057 280.569 86.9798C278.497 86.2353 277.976 84.7488 279.003 82.5204C280.115 80.1138 282.018 79.1752 284.713 79.7048C284.82 79.7266 284.916 79.7848 284.985 79.8693C285.054 79.9539 285.091 80.0598 285.091 80.1688V80.9946C285.091 81.0605 285.076 81.1255 285.047 81.1844C285.018 81.2433 284.975 81.2944 284.922 81.3336C284.869 81.3727 284.807 81.3987 284.742 81.4095C284.678 81.4204 284.611 81.4156 284.548 81.3957C282.488 80.777 281.229 81.6055 280.773 83.8811C280.711 84.191 280.754 84.5091 280.894 84.7736C281.033 85.0382 281.259 85.2302 281.528 85.3125C282.084 85.4855 282.65 85.4147 283.227 85.1001Z" fill="white"/>
<path d="M301.658 86.2792C301.654 86.2378 301.639 86.1982 301.614 86.1653C301.588 86.1324 301.554 86.1078 301.514 86.0944C301.475 86.081 301.432 86.0794 301.392 86.0899C301.352 86.1004 301.316 86.1225 301.288 86.1534C299.597 87.9151 296.789 86.8219 297.355 84.1793C298.2 80.2626 300.798 78.8207 305.15 79.8536C305.214 79.869 305.275 79.8974 305.328 79.9371C305.381 79.9767 305.425 80.0268 305.459 80.0842C305.492 80.1416 305.513 80.2052 305.52 80.271C305.528 80.3368 305.522 80.4035 305.503 80.4671L303.71 86.5231C303.687 86.597 303.644 86.6631 303.587 86.7143C303.531 86.7656 303.462 86.8 303.388 86.8141C302.287 87.0081 301.71 86.8298 301.658 86.2792ZM302.523 81.0255C300.897 80.9888 299.904 82.0269 299.542 84.14C299.513 84.3085 299.519 84.4822 299.561 84.6466C299.603 84.811 299.678 84.9614 299.781 85.0852C299.884 85.2091 300.012 85.3028 300.154 85.3586C300.295 85.4145 300.447 85.4308 300.596 85.4062C300.774 85.38 300.984 85.2489 301.225 85.013C302.064 84.195 302.617 83.0153 302.884 81.4738C302.893 81.4201 302.891 81.3651 302.877 81.3125C302.863 81.2599 302.838 81.2107 302.804 81.1684C302.77 81.126 302.727 81.0914 302.679 81.0668C302.63 81.0421 302.577 81.0281 302.523 81.0255Z" fill="white"/>
<path d="M273.127 85.1074L275.927 80.0582C275.963 79.9915 276.017 79.9358 276.084 79.897C276.15 79.8582 276.226 79.8378 276.305 79.838H278.31C278.326 79.8389 278.341 79.8436 278.354 79.8516C278.367 79.8596 278.378 79.8706 278.385 79.8835C278.392 79.8963 278.396 79.9106 278.395 79.9247C278.394 79.9388 278.389 79.9523 278.381 79.9638C275.272 84.5202 273.274 87.4459 272.388 88.741C271.68 89.7792 270.33 90.2459 268.338 90.141C268.309 90.1398 268.28 90.1321 268.255 90.1183C268.23 90.1046 268.208 90.0852 268.191 90.0616C268.174 90.0381 268.163 90.011 268.159 89.9825C268.154 89.954 268.156 89.9248 268.165 89.8972L268.511 88.7332C268.529 88.6638 268.574 88.6044 268.636 88.5676C268.697 88.5309 268.771 88.5197 268.841 88.5365C269.937 88.7725 270.789 88.2088 271.397 86.8456C271.489 86.6402 271.522 86.4113 271.491 86.1849L270.689 80.1997C270.684 80.1532 270.688 80.106 270.702 80.0612C270.716 80.0165 270.74 79.9753 270.771 79.9403C270.802 79.9053 270.84 79.8774 270.883 79.8584C270.926 79.8394 270.973 79.8298 271.019 79.8301H272.742C272.821 79.8301 272.897 79.8616 272.953 79.9176C273.009 79.9737 273.041 80.0497 273.041 80.129V85.0917C273.043 85.101 273.047 85.1096 273.054 85.1163C273.061 85.123 273.069 85.1274 273.079 85.1291C273.088 85.1308 273.098 85.1297 273.106 85.1258C273.115 85.1219 273.122 85.1155 273.127 85.1074Z" fill="white"/>
<path d="M310.981 86.2246C310.993 86.1823 310.993 86.1373 310.979 86.0954C310.965 86.0535 310.94 86.0166 310.905 85.9895C310.87 85.9624 310.828 85.9463 310.784 85.9434C310.74 85.9404 310.696 85.9507 310.658 85.9729C310.396 86.1145 310.04 86.3373 309.589 86.6414C309.141 86.9441 308.605 87.0775 308.087 87.0147C307.569 86.952 307.108 86.6978 306.797 86.3032C306.566 86.0096 306.54 85.4958 306.718 84.7617C307.101 83.2097 307.536 81.6524 308.024 80.0899C308.051 80.0055 308.105 79.9317 308.178 79.8794C308.252 79.8271 308.341 79.7989 308.433 79.7989L310.021 79.7911C310.054 79.7911 310.086 79.7985 310.115 79.8127C310.144 79.827 310.169 79.8476 310.188 79.873C310.207 79.8984 310.22 79.9277 310.225 79.9586C310.231 79.9895 310.228 80.021 310.218 80.0506L308.928 84.5179C308.89 84.6472 308.892 84.7849 308.933 84.9133C308.973 85.0417 309.052 85.155 309.157 85.2386C309.263 85.3223 309.391 85.3725 309.525 85.3828C309.66 85.3931 309.794 85.3631 309.911 85.2965L310.43 84.9898C311.053 84.6197 311.511 84.0294 311.712 83.3381L312.609 80.2315C312.645 80.1066 312.721 79.9967 312.826 79.9187C312.931 79.8406 313.059 79.7986 313.191 79.7989L314.559 79.7911C314.605 79.7902 314.649 79.8 314.69 79.8199C314.73 79.8397 314.765 79.8689 314.792 79.905C314.819 79.9412 314.837 79.9833 314.844 80.0277C314.852 80.0722 314.849 80.1178 314.835 80.1607L313.002 86.4841C312.973 86.5842 312.913 86.6728 312.832 86.7377C312.75 86.8025 312.65 86.8403 312.546 86.8459L311.5 86.8931C311.424 86.8959 311.348 86.8822 311.278 86.8529C311.207 86.8236 311.144 86.7794 311.093 86.7233C311.041 86.6672 311.002 86.6006 310.979 86.5281C310.956 86.4556 310.948 86.3789 310.957 86.3032C310.963 86.298 310.97 86.2718 310.981 86.2246ZM311.673 85.2572C311.667 85.2909 311.673 85.3257 311.692 85.3545C311.711 85.3833 311.74 85.4039 311.773 85.412C311.806 85.42 311.841 85.415 311.871 85.3979C311.901 85.3808 311.923 85.353 311.933 85.3201C311.969 85.2467 311.985 85.1681 311.98 85.0842C311.978 85.0682 311.973 85.0528 311.964 85.0396C311.955 85.0264 311.942 85.0159 311.928 85.0094C311.915 85.0028 311.899 85.0005 311.885 85.0026C311.87 85.0047 311.857 85.0111 311.846 85.0212C311.731 85.1209 311.673 85.1995 311.673 85.2572Z" fill="white"/>
<path d="M320.985 84.3677C321.002 84.3177 321.008 84.2641 321 84.2115C320.993 84.1589 320.973 84.1088 320.942 84.0656C320.911 84.0224 320.87 83.9873 320.823 83.9632C320.776 83.9391 320.723 83.9268 320.67 83.9273L318.885 83.9509C318.761 83.9516 318.642 83.9921 318.545 84.0661C318.448 84.1401 318.379 84.2434 318.35 84.3599L317.768 86.4598C317.74 86.5581 317.682 86.6451 317.603 86.7086C317.524 86.7721 317.428 86.8089 317.327 86.8137L315.778 86.8373C315.741 86.8378 315.704 86.8294 315.67 86.8129C315.637 86.7963 315.608 86.7721 315.586 86.7422C315.563 86.7122 315.549 86.6775 315.542 86.6407C315.536 86.6039 315.539 86.5662 315.55 86.5306L317.398 80.1443C317.428 80.0429 317.489 79.9535 317.572 79.8885C317.655 79.8236 317.757 79.7865 317.862 79.7825L319.38 79.751C319.424 79.7501 319.468 79.7597 319.507 79.7791C319.547 79.7985 319.581 79.8272 319.608 79.8626C319.634 79.8981 319.651 79.9393 319.658 79.9829C319.665 80.0264 319.661 80.071 319.648 80.1128L319.026 81.9689C319.01 82.0188 319.007 82.0717 319.015 82.1234C319.024 82.1751 319.045 82.2242 319.076 82.2669C319.107 82.3095 319.148 82.3446 319.195 82.3693C319.243 82.3941 319.295 82.4078 319.349 82.4094L321.095 82.433C321.222 82.4352 321.346 82.3946 321.448 82.3175C321.549 82.2405 321.621 82.1315 321.653 82.0083L322.086 80.1993C322.113 80.0862 322.178 79.985 322.27 79.9112C322.363 79.8374 322.477 79.7949 322.597 79.7904L324.123 79.7432C324.166 79.7429 324.209 79.7525 324.247 79.7713C324.286 79.79 324.32 79.8173 324.346 79.851C324.372 79.8847 324.39 79.9238 324.397 79.9652C324.405 80.0066 324.402 80.0491 324.39 80.0892L322.526 86.3733C322.492 86.496 322.419 86.6044 322.319 86.6824C322.218 86.7604 322.095 86.8037 321.968 86.8059L320.544 86.8295C320.498 86.8295 320.452 86.8184 320.411 86.7972C320.37 86.776 320.334 86.7453 320.307 86.7076C320.28 86.6699 320.263 86.6263 320.256 86.5805C320.25 86.5347 320.254 86.4879 320.269 86.4441L320.985 84.3677ZM318.059 83.3374C318.195 83.2588 318.245 83.1146 318.208 82.9049C318.207 82.8836 318.202 82.8629 318.193 82.8441C318.184 82.8252 318.171 82.8085 318.155 82.7949C318.14 82.7813 318.121 82.7711 318.101 82.7649C318.082 82.7586 318.06 82.7565 318.039 82.7586C318.018 82.7606 317.997 82.7669 317.978 82.7769C317.959 82.787 317.942 82.8006 317.927 82.8171C317.913 82.8336 317.902 82.8527 317.895 82.8731C317.888 82.8936 317.885 82.915 317.886 82.9363V83.2352C317.886 83.2553 317.892 83.2751 317.902 83.2925C317.912 83.3099 317.926 83.3244 317.944 83.3347C317.961 83.3449 317.981 83.3506 318.001 83.351C318.021 83.3515 318.041 83.3468 318.059 83.3374Z" fill="white"/>
<path d="M253.973 82.5586C253.967 82.4328 253.967 82.3646 253.973 82.3542C254.497 81.4313 254.919 80.7602 255.239 80.3407C255.351 80.1965 255.497 80.0832 255.663 80.0116C255.83 79.94 256.011 79.9125 256.191 79.9318L256.254 79.9396C256.318 79.9458 256.38 79.9688 256.432 80.0063C256.485 80.0439 256.527 80.0947 256.555 80.1539C256.583 80.2131 256.595 80.2788 256.59 80.3445C256.586 80.4103 256.564 80.474 256.529 80.5295C256.251 80.928 255.913 81.3868 255.514 81.9059C255.341 82.1261 255.257 82.3227 255.263 82.4957C255.273 82.6688 255.37 82.8601 255.554 83.0699C255.994 83.5575 256.366 83.9901 256.67 84.3676C256.709 84.4201 256.735 84.4815 256.744 84.5462C256.753 84.6108 256.746 84.6765 256.723 84.7371C256.7 84.7977 256.662 84.8512 256.613 84.8925C256.564 84.9337 256.505 84.9615 256.442 84.9732L256.379 84.9889C256.203 85.0205 256.02 85.0061 255.85 84.9469C255.679 84.8877 255.526 84.7858 255.404 84.6507C255.053 84.2575 254.581 83.6204 253.988 82.7395C253.983 82.729 253.978 82.6688 253.973 82.5586Z" fill="white"/>
<path d="M257.735 82.4566C257.741 82.6349 257.832 82.8289 258.011 83.0386C258.446 83.5472 258.813 83.9955 259.112 84.3835C259.152 84.4364 259.178 84.4988 259.187 84.5646C259.196 84.6304 259.188 84.6974 259.163 84.7591C259.139 84.8209 259.098 84.8752 259.047 84.9169C258.995 84.9586 258.933 84.9862 258.868 84.997L258.805 85.0049C258.624 85.0338 258.439 85.0157 258.267 84.9524C258.095 84.889 257.942 84.7826 257.822 84.6431C257.476 84.2341 257.014 83.5761 256.438 82.669C256.432 82.6585 256.427 82.5982 256.422 82.4881C256.422 82.3623 256.425 82.2941 256.43 82.2836C256.986 81.3608 257.431 80.6897 257.767 80.2702C257.883 80.1289 258.032 80.0194 258.202 79.952C258.371 79.8846 258.554 79.8615 258.734 79.8848L258.797 79.8927C258.863 79.902 258.925 79.928 258.977 79.9682C259.03 80.0085 259.071 80.0616 259.097 80.1224C259.123 80.1833 259.133 80.2499 259.126 80.3157C259.119 80.3815 259.095 80.4444 259.057 80.4983C258.768 80.8968 258.414 81.3529 257.995 81.8668C257.822 82.087 257.735 82.2836 257.735 82.4566Z" fill="white"/>
<path d="M328.573 82.4729C328.568 82.583 328.562 82.6433 328.557 82.6538C327.986 83.5556 327.53 84.2084 327.189 84.6121C327.07 84.7509 326.918 84.8571 326.747 84.9204C326.577 84.9838 326.393 85.0022 326.213 84.9739L326.151 84.966C326.085 84.9552 326.023 84.9276 325.972 84.8859C325.92 84.8442 325.88 84.7899 325.855 84.7282C325.831 84.6664 325.823 84.5994 325.832 84.5336C325.841 84.4678 325.867 84.4055 325.907 84.3526C326.2 83.9698 326.562 83.5268 326.992 83.0234C327.176 82.8137 327.267 82.6197 327.267 82.4414C327.273 82.2684 327.186 82.0744 327.008 81.8594C326.594 81.3456 326.242 80.892 325.954 80.4988C325.917 80.445 325.895 80.3828 325.889 80.3181C325.883 80.2533 325.893 80.1881 325.919 80.1284C325.945 80.0687 325.985 80.0166 326.037 79.9768C326.088 79.9371 326.149 79.911 326.213 79.901L326.276 79.8932C326.455 79.8705 326.637 79.8939 326.805 79.9613C326.973 80.0288 327.121 80.1379 327.236 80.2786C327.571 80.6928 328.015 81.356 328.565 82.2684C328.57 82.2789 328.573 82.347 328.573 82.4729Z" fill="white"/>
<path d="M330.997 82.4805C330.997 82.6063 330.991 82.6744 330.981 82.6849C330.404 83.571 329.945 84.216 329.605 84.6197C329.485 84.7563 329.332 84.8599 329.161 84.9205C328.991 84.9811 328.807 84.9967 328.629 84.9658L328.566 84.9579C328.502 84.9473 328.441 84.92 328.39 84.8787C328.339 84.8374 328.3 84.7835 328.276 84.7224C328.252 84.6613 328.244 84.595 328.254 84.5301C328.264 84.4652 328.29 84.4039 328.331 84.3523C328.629 83.9695 328.994 83.5317 329.424 83.0389C329.607 82.8291 329.702 82.6377 329.707 82.4647C329.707 82.2917 329.62 82.0951 329.447 81.8749C329.038 81.361 328.695 80.9075 328.417 80.5142C328.38 80.4611 328.357 80.3994 328.351 80.335C328.345 80.2706 328.355 80.2057 328.381 80.1465C328.407 80.0872 328.448 80.0357 328.5 79.9968C328.552 79.9579 328.612 79.933 328.677 79.9244L328.74 79.9165C328.918 79.8953 329.099 79.9203 329.265 79.9891C329.432 80.058 329.579 80.1683 329.691 80.3097C330.021 80.724 330.454 81.3872 330.989 82.2996C330.999 82.31 331.002 82.3703 330.997 82.4805Z" fill="white"/>
<path d="M317.883 83.2352V82.9363C317.882 82.9151 317.885 82.8936 317.892 82.8731C317.899 82.8527 317.91 82.8337 317.925 82.8172C317.939 82.8006 317.956 82.787 317.975 82.7769C317.994 82.7669 318.015 82.7606 318.036 82.7586C318.058 82.7565 318.079 82.7587 318.099 82.7649C318.119 82.7711 318.137 82.7813 318.153 82.7949C318.168 82.8085 318.181 82.8252 318.19 82.8441C318.199 82.8629 318.204 82.8836 318.205 82.9049C318.242 83.1146 318.192 83.2588 318.056 83.3374C318.038 83.3469 318.018 83.3515 317.998 83.3511C317.978 83.3506 317.958 83.3449 317.941 83.3347C317.924 83.3244 317.909 83.3099 317.899 83.2925C317.889 83.2751 317.883 83.2554 317.883 83.2352Z" fill="white"/>
<path d="M311.674 85.2563C311.674 85.1987 311.732 85.12 311.847 85.0204C311.858 85.0103 311.872 85.0038 311.886 85.0017C311.901 84.9996 311.916 85.002 311.93 85.0085C311.944 85.0151 311.956 85.0255 311.965 85.0387C311.974 85.052 311.979 85.0674 311.981 85.0833C311.986 85.1672 311.97 85.2458 311.934 85.3193C311.924 85.3521 311.902 85.38 311.872 85.3971C311.843 85.4142 311.807 85.4192 311.774 85.4111C311.741 85.403 311.712 85.3825 311.693 85.3537C311.675 85.3249 311.668 85.29 311.674 85.2563Z" fill="white"/>
<path d="M251.235 93.2155C254.071 92.4345 255.949 90.2772 255.431 88.3969C254.913 86.5167 252.195 85.6254 249.36 86.4063C246.525 87.1873 244.646 89.3446 245.164 91.2249C245.682 93.1051 248.4 93.9964 251.235 93.2155Z" fill="white"/>
<path d="M211.586 119.195L219.616 91.9899C219.636 91.9196 219.68 91.8579 219.739 91.8139C219.799 91.77 219.871 91.7462 219.946 91.7461H228.747C228.789 91.7455 228.831 91.7549 228.869 91.7734C228.907 91.792 228.94 91.8193 228.965 91.8531C228.99 91.8868 229.007 91.9261 229.014 91.9676C229.022 92.0092 229.019 92.0519 229.007 92.0922L221.747 116.686C221.726 116.755 221.722 116.829 221.735 116.901C221.747 116.972 221.777 117.04 221.82 117.098C221.864 117.156 221.921 117.203 221.986 117.235C222.051 117.268 222.123 117.284 222.195 117.283H227.512C227.73 117.284 227.942 117.213 228.116 117.083C228.291 116.952 228.418 116.769 228.48 116.56L229.368 113.532C229.399 113.432 229.452 113.34 229.524 113.264C229.596 113.188 229.685 113.13 229.784 113.094C229.882 113.059 229.987 113.046 230.091 113.058C230.195 113.07 230.295 113.105 230.383 113.162C232.548 114.594 233.427 116.654 233.018 119.344C233.003 119.444 232.952 119.536 232.876 119.602C232.8 119.668 232.702 119.705 232.601 119.706H211.971C211.909 119.706 211.848 119.691 211.792 119.664C211.737 119.636 211.688 119.596 211.651 119.546C211.614 119.497 211.588 119.439 211.577 119.378C211.566 119.317 211.569 119.254 211.586 119.195Z" fill="white"/>
<path d="M142.507 119.533C142.518 119.551 142.524 119.571 142.525 119.593C142.525 119.614 142.52 119.635 142.509 119.654C142.499 119.672 142.484 119.688 142.465 119.698C142.447 119.709 142.426 119.714 142.404 119.713H134.925C134.845 119.713 134.767 119.693 134.698 119.654C134.63 119.616 134.572 119.56 134.532 119.493L129.514 110.787C129.415 110.619 129.275 110.48 129.106 110.383C128.938 110.287 128.748 110.236 128.554 110.236H124.795C124.681 110.237 124.571 110.274 124.481 110.342C124.39 110.41 124.324 110.505 124.291 110.614L121.72 119.336C121.687 119.447 121.62 119.544 121.528 119.614C121.436 119.683 121.324 119.721 121.208 119.721H112.502C112.473 119.721 112.445 119.714 112.42 119.702C112.394 119.689 112.372 119.671 112.355 119.649C112.338 119.627 112.327 119.601 112.323 119.574C112.318 119.547 112.32 119.519 112.329 119.493L120.202 92.8234C120.242 92.6827 120.326 92.5586 120.443 92.4694C120.559 92.3802 120.7 92.3306 120.847 92.3279C127.369 92.2335 132.117 92.2283 135.09 92.3121C139.038 92.4275 142.278 93.3634 144.811 95.1199C149.9 98.6513 149.64 105.163 144.229 108.262C142.326 109.348 140.131 109.977 137.646 110.15C137.59 110.153 137.535 110.17 137.487 110.201C137.44 110.231 137.401 110.273 137.374 110.323C137.347 110.372 137.333 110.428 137.334 110.485C137.335 110.541 137.35 110.596 137.379 110.645L142.507 119.533ZM125.487 108.427C127.508 108.372 132.314 108.899 134.634 107.782C137.937 106.186 140.477 102.293 139.408 98.6198C138.26 94.7031 132.613 94.2312 129.215 94.8682C129.069 94.8942 128.933 94.9606 128.825 95.0596C128.716 95.1585 128.639 95.2859 128.601 95.4267L125.133 107.979C125.118 108.032 125.116 108.087 125.128 108.141C125.139 108.195 125.162 108.245 125.196 108.289C125.231 108.332 125.275 108.367 125.325 108.391C125.376 108.415 125.431 108.428 125.487 108.427Z" fill="white"/>
<path d="M58.7547 116.646C67.5896 119.199 76.1938 119.252 84.5673 116.803C96.6374 113.28 105.784 106.154 112.008 95.4262C112.014 95.4127 112.022 95.4006 112.032 95.3903C112.043 95.3801 112.055 95.372 112.069 95.3665C112.082 95.361 112.097 95.3583 112.111 95.3584C112.126 95.3585 112.14 95.3615 112.154 95.3672C112.167 95.3728 112.179 95.3811 112.189 95.3915C112.2 95.4019 112.208 95.4142 112.213 95.4277C112.219 95.4412 112.221 95.4557 112.221 95.4703C112.221 95.4848 112.218 95.4992 112.213 95.5127C109.989 103.33 105.572 109.609 98.9601 114.349C87.3908 122.654 71.2992 124.172 58.6053 116.984C58.5596 116.966 58.5236 116.931 58.5053 116.887C58.487 116.842 58.4879 116.792 58.5077 116.747C58.5275 116.702 58.5647 116.667 58.611 116.647C58.6573 116.628 58.709 116.628 58.7547 116.646Z" fill="#C8B437"/>
<path d="M188.217 114.098C190.23 118.762 196.42 118.77 199.778 115.86C200.106 115.577 200.322 115.192 200.38 114.786C200.439 114.379 200.336 113.983 200.093 113.681C199.484 112.926 198.533 112.352 197.238 111.959C192.904 110.653 185.731 108.774 189.027 102.875C190.075 100.998 191.457 99.6294 193.172 98.7695C198.693 96.0063 204.342 95.8857 210.12 98.4077C210.207 98.4471 210.284 98.5046 210.346 98.5762C210.408 98.6478 210.453 98.7318 210.48 98.8224C210.506 98.913 210.512 99.0079 210.497 99.1007C210.483 99.1934 210.448 99.2817 210.396 99.3594C209.242 101.095 207.992 102.227 206.644 102.757C206.587 102.779 206.527 102.79 206.466 102.787C206.405 102.785 206.345 102.77 206.291 102.743C206.237 102.716 206.189 102.679 206.151 102.632C206.113 102.586 206.085 102.532 206.07 102.474C205.457 100.335 203.86 99.2047 201.28 99.0841C199.228 98.9897 195.46 99.7369 195.389 102.183C195.287 106.052 209.082 104.479 207.69 111.817C206.99 115.506 203.718 117.991 200.203 119.092C195.098 120.697 189.797 120.689 184.795 118.589C184.74 118.565 184.69 118.531 184.648 118.487C184.606 118.443 184.574 118.392 184.552 118.335C184.531 118.278 184.521 118.218 184.524 118.158C184.526 118.097 184.541 118.038 184.567 117.983C185.322 116.421 186.421 115.097 187.863 114.012C187.891 113.99 187.924 113.975 187.959 113.968C187.994 113.961 188.03 113.962 188.064 113.97C188.098 113.978 188.129 113.994 188.156 114.016C188.182 114.039 188.203 114.067 188.217 114.098Z" fill="white"/>
<path d="M269.296 99.7831C269.28 99.8352 269.28 99.8908 269.296 99.9429C269.312 99.995 269.343 100.041 269.385 100.076C269.427 100.11 269.478 100.131 269.533 100.137C269.587 100.142 269.641 100.131 269.689 100.106C274.424 97.5652 277.971 95.8664 283.461 96.9753C287.236 97.7382 289.186 99.9561 288.258 103.834C287.823 105.648 286.323 110.841 283.76 119.414C283.735 119.502 283.682 119.58 283.608 119.636C283.534 119.691 283.444 119.721 283.351 119.721L275.061 119.729C275.019 119.728 274.979 119.718 274.942 119.699C274.905 119.679 274.873 119.651 274.848 119.617C274.824 119.583 274.808 119.543 274.801 119.501C274.794 119.459 274.797 119.416 274.809 119.375C275.868 115.935 277.145 111.607 278.639 106.39C279.363 103.841 279.041 100.64 275.651 100.546C271.503 100.436 268.785 102.594 267.495 107.019C265.529 113.756 264.315 117.854 263.853 119.312C263.815 119.43 263.742 119.533 263.643 119.606C263.544 119.679 263.425 119.72 263.303 119.721L255.281 119.729C255.226 119.728 255.173 119.715 255.124 119.691C255.076 119.666 255.034 119.631 255.001 119.588C254.968 119.544 254.946 119.494 254.936 119.441C254.926 119.388 254.928 119.333 254.943 119.28L261.321 97.6045C261.357 97.4778 261.433 97.3663 261.538 97.2868C261.643 97.2073 261.771 97.1642 261.903 97.1641L269.634 97.1562C269.684 97.1565 269.734 97.1685 269.779 97.1913C269.824 97.2141 269.862 97.2471 269.892 97.2876C269.922 97.3281 269.942 97.375 269.95 97.4246C269.959 97.4741 269.956 97.525 269.941 97.5731L269.296 99.7831Z" fill="white"/>
<path d="M317.338 115.175C317.385 115.165 317.435 115.169 317.48 115.186C317.525 115.204 317.565 115.233 317.594 115.272C317.624 115.31 317.642 115.356 317.647 115.404C317.651 115.452 317.642 115.501 317.621 115.544C316.855 117.091 315.752 118.119 314.31 118.627C308.652 120.641 303.168 120.761 297.856 118.989C293.806 117.636 291.848 113.971 292.681 109.701C294.891 98.4146 307.231 94.9855 317.055 97.3607C318.73 97.7697 321.026 99.2483 321.632 101.057C323.48 106.571 316.968 107.797 312.776 108.151C310.034 108.387 306.715 108.513 302.819 108.529C302.725 108.528 302.634 108.557 302.557 108.611C302.481 108.664 302.424 108.74 302.394 108.828C301.204 112.393 301.87 114.873 304.392 116.268C306.72 117.55 311.219 117.314 313.759 116.402C315.82 115.657 317.013 115.248 317.338 115.175ZM303.676 106.586C307.491 106.767 312.202 107.176 314.561 104.014C315.505 102.748 314.923 100.931 313.508 100.467C308.859 98.9573 305.053 101.537 303.315 106.036C303.292 106.096 303.285 106.16 303.292 106.224C303.299 106.288 303.321 106.349 303.356 106.402C303.392 106.456 303.439 106.501 303.494 106.533C303.55 106.564 303.612 106.583 303.676 106.586Z" fill="white"/>
<path d="M169.77 116.787C165.028 119.32 161.481 121.018 155.983 119.902C152.208 119.139 150.257 116.913 151.193 113.036C151.628 111.221 153.133 106.025 155.708 97.4474C155.733 97.3588 155.787 97.2809 155.861 97.2256C155.935 97.1702 156.024 97.1404 156.117 97.1406H164.414C164.456 97.1409 164.497 97.1511 164.533 97.1704C164.57 97.1898 164.602 97.2177 164.627 97.2521C164.651 97.2864 164.667 97.3262 164.674 97.3683C164.681 97.4104 164.678 97.4536 164.666 97.4945C163.601 100.934 162.32 105.265 160.82 110.487C160.096 113.036 160.411 116.244 163.809 116.339C167.956 116.454 170.677 114.297 171.972 109.866C173.949 103.128 175.168 99.0282 175.63 97.5653C175.668 97.4461 175.743 97.3422 175.843 97.2687C175.944 97.1952 176.064 97.1558 176.188 97.1564H184.21C184.265 97.1565 184.32 97.1694 184.369 97.1943C184.418 97.2192 184.461 97.2552 184.494 97.2995C184.527 97.3438 184.549 97.3952 184.558 97.4495C184.568 97.5039 184.564 97.5597 184.548 97.6125L178.146 119.296C178.11 119.423 178.034 119.534 177.929 119.614C177.824 119.693 177.696 119.736 177.564 119.737H169.825C169.775 119.736 169.725 119.724 169.681 119.701C169.636 119.679 169.597 119.646 169.567 119.605C169.537 119.565 169.517 119.518 169.509 119.468C169.501 119.419 169.504 119.368 169.519 119.32L170.163 117.11C170.179 117.058 170.179 117.002 170.163 116.95C170.147 116.898 170.117 116.852 170.075 116.817C170.032 116.783 169.981 116.761 169.927 116.756C169.873 116.751 169.818 116.762 169.77 116.787Z" fill="white"/>
<path d="M246.387 119.721H237.924C237.888 119.721 237.852 119.712 237.819 119.696C237.786 119.68 237.758 119.657 237.736 119.628C237.714 119.599 237.699 119.565 237.692 119.53C237.685 119.494 237.686 119.457 237.696 119.422L244.224 97.3293C244.237 97.2807 244.266 97.2377 244.306 97.2066C244.345 97.1754 244.394 97.1578 244.444 97.1563H252.907C252.943 97.1561 252.979 97.1645 253.012 97.1806C253.044 97.1967 253.073 97.2201 253.095 97.2491C253.117 97.278 253.132 97.3117 253.139 97.3474C253.146 97.3832 253.145 97.42 253.135 97.4551L246.607 119.548C246.594 119.596 246.565 119.639 246.525 119.67C246.486 119.702 246.437 119.719 246.387 119.721Z" fill="white"/>
</svg>
