<svg width="362" height="140" viewBox="0 0 362 140" fill="none" xmlns="http://www.w3.org/2000/svg">
<rect width="362" height="140" fill="#432129"/>
<path d="M31 68.178H39.6915L47.8141 101.185H47.9431L55.9995 68.178H64.6414L52.8742 114.364H42.8268L31 68.178Z" fill="white"/>
<path d="M68.7812 83.0151C68.7812 71.6334 74.7972 67.5371 83.3564 67.5371C91.9289 67.5371 97.9415 71.6332 97.9415 83.0151V99.5253C97.9415 110.91 91.9289 115 83.3564 115C74.7972 115 68.7812 110.91 68.7812 99.5253V83.0151ZM77.6149 100.673C77.6149 105.795 79.8441 107.191 83.3564 107.191C86.8787 107.191 89.1143 105.795 89.1143 100.673V81.8569C89.1143 76.7483 86.8787 75.3422 83.3564 75.3422C79.8441 75.3422 77.6149 76.7483 77.6149 81.8569V100.673Z" fill="white"/>
<path d="M105.109 114.364V68.178H113.933V106.562H128.125V114.364H105.109Z" fill="white"/>
<path d="M132.734 83.0151C132.734 71.6334 138.74 67.5371 147.306 67.5371C155.879 67.5371 161.881 71.6332 161.881 83.0151V99.5253C161.881 110.91 155.879 115 147.306 115C138.74 115 132.734 110.91 132.734 99.5253V83.0151ZM141.552 100.673C141.552 105.795 143.787 107.191 147.306 107.191C150.822 107.191 153.061 105.795 153.061 100.673V81.8569C153.061 76.7483 150.822 75.3422 147.306 75.3422C143.787 75.3422 141.552 76.7483 141.552 81.8569V100.673Z" fill="white"/>
<path d="M195.772 68.178V75.9732H185.483V114.364H176.659V75.9732H166.367V68.178H195.772Z" fill="white"/>
<path d="M201.016 114.364V68.178H225.189V75.9732H209.839V86.604H221.544V94.4058H209.839V106.562H225.824V114.364H201.016Z" fill="white"/>
<path d="M263.611 114.364H254.913L246.784 81.3531H246.668L238.605 114.364H229.977L241.744 68.178H251.775L263.611 114.364Z" fill="white"/>
<path d="M309.44 78.9116L298.665 89.6879L287.883 78.9116L298.665 68.1222L309.44 78.9116Z" fill="#ED164A"/>
<path d="M309.44 35.7829L298.665 46.5659L287.883 35.7829L298.665 25L309.44 35.7829Z" fill="#ED164A"/>
<path d="M331.002 57.3443L320.227 68.1239L309.445 57.3443L320.227 46.5647L331.002 57.3443Z" fill="#ED164A"/>
<path d="M287.885 57.3443L277.11 68.1239L266.328 57.3443L277.11 46.5647L287.885 57.3443Z" fill="#ED164A"/>
<path d="M279.501 70.5212V65.7303L277.109 68.1225L279.501 70.5212ZM281.898 72.9168L284.296 75.3123V60.9396L281.898 63.3383V72.9168ZM286.69 58.5472V77.7142L287.884 78.912L289.078 77.7142V58.5472L287.884 57.3428L286.69 58.5472ZM296.262 65.7303V70.5212L298.666 68.1225L296.262 65.7303ZM291.476 75.3122L293.874 72.9166V63.3381L291.476 60.9394V75.3122Z" fill="#ED164A"/>
<path d="M301.062 48.9537V44.1694L298.664 46.5681L301.062 48.9537ZM303.456 51.3525L305.854 53.7481V39.372L303.456 41.774V51.3525ZM308.245 36.983V56.1468L309.446 57.3446L310.64 56.1468V36.983L309.446 35.7819L308.245 36.983ZM317.823 44.1694V48.9537L320.221 46.5681L317.823 44.1694ZM313.034 53.7479L315.435 51.3524V41.7739L313.034 39.3718V53.7479Z" fill="#ED164A"/>
<path d="M301.062 70.5212V65.7303L298.664 68.1225L301.062 70.5212ZM303.456 72.9168L305.854 75.3123V60.9396L303.456 63.3383V72.9168ZM308.245 58.5472V77.7142L309.446 78.912L310.64 77.7142V58.5472L309.446 57.3428L308.245 58.5472ZM317.823 65.7303V70.5212L320.221 68.1225L317.823 65.7303ZM313.034 75.3122L315.435 72.9166V63.3381L313.034 60.9394V75.3122Z" fill="#ED164A"/>
<path d="M279.501 48.9537V44.1694L277.109 46.5681L279.501 48.9537ZM281.898 51.3525L284.296 53.7481V39.372L281.898 41.774V51.3525ZM286.69 36.983V56.1468L287.884 57.3446L289.078 56.1468V36.983L287.884 35.7819L286.69 36.983ZM296.262 44.1694V48.9537L298.666 46.5681L296.262 44.1694ZM291.476 53.7479L293.874 51.3524V41.7739L291.476 39.3718V53.7479Z" fill="#ED164A"/>
</svg>
