<svg width="181" height="181" viewBox="0 0 181 181" fill="none" xmlns="http://www.w3.org/2000/svg">
<g clip-path="url(#clip0_1519_104263)">
<rect width="181" height="181" fill="#A90B4D"/>
<path d="M65.2288 32.7363L-2 148.263H113.766L181 32.7363H65.2288Z" fill="#A90B4D"/>
<path d="M71.7936 113.578C74.9431 104.947 74.3241 97.2614 74.437 92.4386C74.5531 87.6141 74.827 82.7117 77.4333 76.5941C78.5074 74.0751 79.8028 71.7229 81.3814 69.6452L77.0959 65.3262C76.8297 65.5477 76.5589 65.766 76.3051 65.9984C70.2707 71.531 68.0529 76.3914 66.7343 84.6739C65.408 92.9455 67.2389 99.2221 67.9384 106.597C68.6364 113.97 67.0036 117.536 64.9034 118.788C64.4763 118.715 64.5908 117.498 64.1219 117.185C63.6576 116.871 63.2273 116.756 63.2273 117.342C63.2273 117.933 63.1515 118.95 61.8252 118.993C60.5019 119.027 59.1415 118.44 59.1044 118.049C59.8039 117.536 61.203 115.339 59.6105 114.246C59.2576 114.012 59.4155 114.438 59.1833 114.868C58.9496 115.302 58.7546 115.729 57.6264 115.068C56.495 114.396 56.8463 113.496 56.0663 113.109C55.7955 112.87 55.9518 112.596 56.2985 112.32C56.6529 112.05 57.3122 110.986 57.1574 109.341C57.0026 107.695 56.7287 106.637 55.9518 106.789C55.3265 107.024 55.941 107.667 55.1749 108.205C54.3623 108.774 54.2788 109.146 53.3471 108.83C53.2651 108.168 53.7355 108.049 53.7355 107.461C53.7355 106.87 53.6582 106.051 53.1505 106.204C52.6413 106.363 52.8348 106.789 52.6831 107.069C52.5237 107.344 51.982 108.149 50.3477 108.676C48.9177 109.135 47.5434 108.517 46.2619 110.595C45.8301 111.343 46.0669 112.204 45.6366 112.284C45.2126 112.365 42.4067 112.365 41.9021 112.246C41.3945 112.126 40.4613 111.738 40.2663 111.772C40.0728 111.81 39.7571 111.969 39.8763 112.204C39.9923 112.438 40.9256 113.616 41.201 113.887C41.4734 114.167 42.6791 114.989 44.3923 115.187C46.1056 115.382 47.8591 115.658 48.7908 117.933C49.2953 119.184 49.2566 120.518 48.3234 122.441C47.3886 124.363 46.7293 127.189 48.5555 129.853C52.6831 129.973 57.0027 128.598 59.8828 127.306C62.7615 126.013 68.8825 121.541 71.7936 113.578ZM97.9119 86.307C97.0932 89.8774 96.3441 93.1264 96.0408 94.2464C95.3784 96.6765 93.1591 108.047 84.9828 118.754C76.8127 129.462 60.7356 138.169 53.8501 138.638C53.8501 138.638 55.325 141.154 55.7552 141.229C57.3524 141.268 62.7367 139.345 64.1606 138.683C70.7768 135.623 78.17 130.914 81.9896 127.425C85.7999 123.934 94.8708 115.775 100.826 102.987C102.064 100.33 103.341 96.7966 104.565 93.0126L97.9119 86.307ZM69.9612 128.401C76.6966 123.385 80.6664 118.132 84.52 109.729C87.7809 102.626 89.9693 91.8474 90.59 86.516C90.7896 84.8049 91.2152 82.5853 91.825 80.1708L85.2768 73.5713C85.0509 74.1484 84.8218 74.7083 84.599 75.3385C81.8317 83.1406 81.6383 91.6134 81.1338 96.519C80.6261 101.42 78.8448 114.692 71.5599 122.755C66.2546 128.631 58.4791 132.014 50.6572 134.012C50.6572 134.012 52.0981 136.286 52.2947 136.327C52.4881 136.366 52.4881 136.439 54.0451 136.054C55.6005 135.657 63.2273 133.425 69.9612 128.401Z" fill="url(#paint0_linear_1519_104263)"/>
<path d="M152.549 44.9364C150.37 38.9733 141.768 37.6787 136.243 38.1513C130.715 38.6192 122.229 40.7406 115.925 46.7785C108.337 47.8766 101.995 51.7995 96.3131 57.3711C95.301 58.3897 94.1325 58.4271 93.0058 58.5472C91.9209 58.6595 83.1395 60.33 77.0974 65.3261L81.3829 69.6451C83.6378 66.6784 86.4855 64.2857 90.2417 62.9037C91.4845 62.5138 91.5618 62.7462 91.0573 63.2937C90.5945 63.8021 87.8598 67.0013 85.2768 73.5712L91.8265 80.1706C93.1203 75.0483 95.2514 69.0399 97.8716 65.0968C97.8716 65.0968 100.223 61.1708 100.791 60.9446C101.179 60.7855 105.418 61.255 105.458 61.7682C105.418 62.038 105.071 62.7041 104.68 63.5682C104.294 64.4292 101.49 71.258 100.476 75.2963C99.93 77.4784 98.8761 82.1141 97.915 86.3053L104.57 93.0109C107.317 84.5178 109.799 74.7504 110.986 70.7074C112.194 66.7439 112.387 65.8798 112.7 65.7628C113.011 65.6474 113.364 65.6474 114.723 68.1181C116.086 70.5919 116.708 74.3557 116.162 77.2959C115.62 80.2377 115.072 85.3008 107.21 92.8284C106.24 93.691 106.902 94.5941 107.057 94.7485C107.21 94.906 108.458 95.3787 110.442 94.3991C112.43 93.4149 115.814 91.3747 117.722 88.0819C119.626 84.7861 121.963 81.6119 121.574 73.4495C121.542 69.7029 117.004 63.381 114.333 62.233C113.698 61.9631 114.411 60.7824 114.411 60.7824C116.826 55.2123 120.214 49.9527 121.689 49.3678C123.168 48.7751 129.162 50.7373 131.112 53.325C133.058 55.9127 135.167 59.076 131.81 65.8392C129.083 71.3313 125.897 71.6464 126.749 73.3325C127.297 74.1545 130.06 73.5665 132.083 72.4341C134.109 71.2923 137.882 67.9169 138.467 61.2924C139.052 54.6633 133.989 49.3678 126.596 47.3276C124.648 46.8596 124.027 46.9345 125.309 46.0688C126.596 45.2094 133.058 39.6752 142.241 41.7934C146.872 42.9695 147.884 48.226 146.287 51.8744C145.397 54.0363 144.187 55.2888 143.255 55.7177C142.32 56.1498 142.243 56.4259 142.554 56.9344C142.862 57.4444 145.044 58.0715 147.418 56.7784C149.788 55.49 154.73 50.9026 152.549 44.9364ZM107.3 58.4162C105.774 58.4162 104.042 58.0964 103.199 57.6191C104.672 55.2373 110.98 50.951 111.873 51.107C111.873 51.5811 108.037 56.2964 107.3 58.4162Z" fill="url(#paint1_linear_1519_104263)"/>
</g>
<defs>
<linearGradient id="paint0_linear_1519_104263" x1="93.7385" y1="82.0994" x2="44.9972" y2="130.461" gradientUnits="userSpaceOnUse">
<stop stop-color="white"/>
<stop offset="0.0849" stop-color="#FFECA2"/>
<stop offset="0.1621" stop-color="#FFDC55"/>
<stop offset="0.2166" stop-color="#FFD225"/>
<stop offset="0.2437" stop-color="#FFCE12"/>
</linearGradient>
<linearGradient id="paint1_linear_1519_104263" x1="93.0409" y1="81.3979" x2="141.771" y2="33.0472" gradientUnits="userSpaceOnUse">
<stop stop-color="white"/>
<stop offset="0.0849" stop-color="#FFECA2"/>
<stop offset="0.1621" stop-color="#FFDC55"/>
<stop offset="0.2166" stop-color="#FFD225"/>
<stop offset="0.2437" stop-color="#FFCE12"/>
</linearGradient>
<clipPath id="clip0_1519_104263">
<rect width="181" height="181" fill="white"/>
</clipPath>
</defs>
</svg>
