<svg width="181" height="181" viewBox="0 0 181 181" fill="none" xmlns="http://www.w3.org/2000/svg">
<rect width="181" height="181" fill="#000F9F"/>
<path fill-rule="evenodd" clip-rule="evenodd" d="M122.841 94.2666C122.934 94.5689 122.914 94.9963 122.914 95.3611V97.2375C122.955 100.125 122.987 103.148 122.987 106.108V112.832C122.997 113.29 123.018 113.749 123.039 114.197C123.049 115.73 122.997 117.22 122.82 118.669C122.205 123.381 119.973 127.509 116.428 130.678C115.167 131.772 113.874 132.71 112.466 133.513C112.018 133.722 111.58 133.961 111.131 134.191C111.09 134.222 111.048 134.222 110.986 134.222H110.808C110.078 133.763 109.359 133.284 108.629 132.836C107.107 131.949 105.303 131.262 103.51 131.022C102.623 130.876 101.612 130.74 100.663 130.876C94.9389 131.637 89.1313 136.067 86.5142 141.185C85.7113 142.749 85.0753 144.302 84.7521 146.105C84.5122 147.367 84.5122 148.982 84.6478 150.327C85.1378 155.278 86.9104 159.333 90.3303 162.753C92.1446 164.587 94.0318 166.036 96.065 167.422C96.7948 167.871 97.556 168.361 98.3067 168.809C98.3797 168.882 98.4423 168.882 98.4423 168.976H98.4944V169.049C95.4811 168.944 92.0507 167.193 89.7673 165.577C88.0886 164.441 86.4933 163.315 84.9814 161.783C84.1577 160.939 83.48 159.99 82.8336 159.052C82.1037 157.968 81.3321 156.884 80.7899 155.727C79.2051 152.433 78.298 148.263 78.5691 144.073C78.7463 141.56 79.2885 139.257 80.0601 137.089C80.5084 135.859 81.1861 134.743 81.8535 133.669C85.2213 128.124 91.1436 124.632 96.2735 121.14C99.5892 118.899 102.894 116.647 106.21 114.395C109.38 112.248 112.56 110.132 115.292 107.245C117.773 104.586 119.567 101.47 121.026 98.2903C121.673 96.956 122.361 95.6634 122.861 94.277" fill="#EA0029"/>
<path fill-rule="evenodd" clip-rule="evenodd" d="M123.259 78.0469C123.405 78.443 123.342 78.9642 123.342 79.4333V82.4145C123.342 84.3117 123.415 86.3236 123.165 88.0956C122.665 92.161 120.673 95.6114 118.65 98.9366C117.973 100.062 117.17 101.105 116.45 102.189C115.804 103.138 115.085 104.128 114.25 104.993C112.895 106.379 111.446 107.662 109.934 108.787C107.536 110.58 105.242 112.311 102.719 113.843C100.154 115.407 97.7138 117.158 95.2427 118.836C89.9668 122.391 84.5241 126.477 80.8435 131.929C79.8008 133.471 79.0709 135.181 78.4245 136.922C77.3818 139.622 76.8084 142.832 77.0169 146.116C77.2046 149.128 78.1117 151.839 79.1961 154.393C79.8842 156.029 80.6975 157.666 81.761 159.125C82.9601 160.887 84.5971 162.534 86.2653 163.972C87.9753 165.442 89.6957 166.797 91.5308 167.996C91.7706 168.163 92.4796 168.726 92.7403 168.726V168.809C89.4037 168.496 86.2966 166.568 83.8151 164.493C77.6738 159.406 73.5865 152.454 73.2007 144.271C73.0652 141.425 73.232 138.642 74.1391 136.244C77.8823 126.487 87.0056 118.982 95.2531 112.78C98.1517 110.58 101.019 108.381 103.907 106.202C105.753 104.774 107.64 103.367 109.496 101.96C110.038 101.407 110.622 100.844 111.164 100.302C114.136 97.3209 116.763 94.1624 118.869 90.66C119.485 89.6801 120.1 88.6794 120.632 87.6474C121.549 85.7502 122.248 83.6863 122.654 81.5598C122.842 80.3819 123.186 79.2352 123.249 78.0469" fill="#85754E"/>
<path fill-rule="evenodd" clip-rule="evenodd" d="M122.351 12.6257C122.925 12.6257 123.446 12.6152 123.749 13.0739C124.124 13.6159 123.968 15.117 123.968 15.878C123.968 19.172 123.874 22.4451 123.874 25.7912C123.874 26.7502 123.832 27.6884 123.832 28.637C123.832 36.872 123.749 44.9714 123.749 53.2377V60.3677C123.79 62.9633 123.926 65.6215 123.874 68.2483C123.78 75.3784 121.549 81.4764 118.462 87.1054C117.305 89.2111 116.314 91.3792 114.667 93.266C113.468 94.6107 112.279 95.9554 110.965 97.1854C108.401 99.6038 105.69 101.73 102.947 103.857C100.122 106.202 97.2857 108.568 94.4497 110.924C92.4582 112.425 90.4354 113.937 88.5378 115.636C87.3387 116.689 86.1396 117.846 84.951 118.951C83.6789 120.118 82.5737 121.432 81.3538 122.651C77.8296 126.3 74.6912 130.428 73.2002 135.129C72.6684 136.745 72.293 138.34 72.0637 140.132C71.8551 141.665 71.9907 143.385 72.0949 144.917C72.5954 152.829 76.2447 159.823 82.4069 164.608C84.3462 166.109 86.3377 167.433 88.5273 168.423C88.9757 168.611 89.7785 169.101 90.2477 169.101V169.153C82.8761 168.246 76.2343 165.64 70.5518 161.366C69.4778 160.564 68.5082 159.594 67.5281 158.656C60.4692 151.661 57.0493 141.644 58.0711 130.834C58.5507 125.82 59.7081 121.14 61.6891 116.845C65.0361 109.6 70.4788 103.784 76.5992 98.2383C77.9339 97.1125 79.2685 96.0179 80.6239 94.8922C82.9074 93.0575 85.1387 91.1603 87.3908 89.2215C88.4335 88.3042 89.497 87.3868 90.5397 86.4904C93.6155 83.5925 96.7957 80.8093 99.6004 77.6091C102.989 73.7522 106.273 69.8536 109.099 65.684C110.767 63.1927 112.311 60.5971 113.864 58.064C115.042 56.0835 116.043 53.9778 116.961 51.8513C120.276 44.2835 122.404 35.5064 122.685 26.4584C122.768 23.6126 122.56 20.8919 122.205 18.3068C122.018 17.3999 121.851 16.5138 121.695 15.5757C121.559 14.9606 121.382 14.2727 121.465 13.5951C121.538 13.0635 121.945 12.8237 122.351 12.6152" fill="white"/>
</svg>
