<svg width="181" height="181" viewBox="0 0 181 181" fill="none" xmlns="http://www.w3.org/2000/svg">
<rect width="181" height="181" fill="#56595F"/>
<path d="M68.2182 76.6114C67.9064 76.8777 67.3908 77.2352 66.6714 77.6838C63.607 79.5947 60.1837 81.9866 56.4015 84.8594C56.3911 84.8672 56.3829 84.8776 56.3778 84.8895C56.3728 84.9015 56.371 84.9145 56.3727 84.9274C56.3745 84.9402 56.3797 84.9524 56.3877 84.9626C56.3958 84.9728 56.4064 84.9806 56.4186 84.9853C57.721 85.505 58.8553 86.0126 59.8216 86.5081C61.3806 87.3102 62.7934 88.3407 64.0601 89.5996C66.2752 91.8027 67.567 94.4495 67.9357 97.5402C67.9363 97.5552 67.9422 97.5695 67.9525 97.5804C67.9627 97.5914 67.9766 97.5984 67.9915 97.6002C68.0065 97.6019 68.0216 97.5983 68.0341 97.59C68.0467 97.5817 68.0558 97.5692 68.0599 97.5548L80.4564 63.2721C80.4714 63.231 80.4991 63.1954 80.5357 63.1703C80.5723 63.1452 80.616 63.1317 80.661 63.1317H82.9386C82.978 63.1318 83.0164 63.1439 83.0486 63.1664C83.0809 63.1889 83.1054 63.2207 83.1188 63.2575L94.3875 95.1024C94.3979 95.1323 94.4194 95.1573 94.4477 95.1725C94.4761 95.1877 94.5093 95.192 94.5409 95.1847L114.601 90.6503C114.631 90.643 114.663 90.6451 114.693 90.6563C114.722 90.6675 114.748 90.6873 114.766 90.7132L116.983 93.7346C116.991 93.7449 116.996 93.7568 116.998 93.7694C117 93.782 116.999 93.795 116.995 93.8072C116.992 93.8194 116.985 93.8306 116.976 93.8398C116.967 93.8491 116.956 93.8561 116.944 93.8604C116.761 93.9234 115.412 94.2438 112.898 94.8215C109.085 95.6963 103.365 96.9294 95.7394 98.5207C95.7229 98.5242 95.7073 98.5312 95.6937 98.5412C95.68 98.5512 95.6687 98.5639 95.6604 98.5785C95.6521 98.5932 95.6471 98.6094 95.6456 98.6262C95.6441 98.6429 95.6462 98.6598 95.6517 98.6757C100.155 111.382 102.558 118.183 102.86 119.079C103.355 120.546 103.841 121.537 104.316 122.052C105.909 123.771 107.666 123.551 109.863 123.604C109.898 123.605 109.932 123.62 109.956 123.645C109.981 123.671 109.995 123.704 109.994 123.739V126.596C109.994 126.641 109.976 126.684 109.944 126.716C109.911 126.748 109.867 126.766 109.822 126.766H87.6375C87.6123 126.766 87.5881 126.756 87.5703 126.739C87.5525 126.721 87.5425 126.698 87.5425 126.674V123.737C87.5425 123.716 87.5468 123.695 87.5551 123.675C87.5635 123.656 87.5757 123.638 87.5911 123.623C87.6065 123.608 87.6248 123.597 87.6449 123.589C87.665 123.581 87.6865 123.577 87.7081 123.577C89.449 123.624 91.0104 123.565 92.3924 123.401C94.765 123.117 95.7784 121.699 94.9891 119.452C92.2641 111.679 90.0076 105.259 88.2197 100.191C88.2086 100.159 88.1867 100.133 88.1578 100.115C88.1288 100.098 88.0947 100.091 88.0613 100.097L69.3461 103.336C69.3096 103.343 69.2757 103.358 69.2475 103.382C69.2193 103.405 69.1979 103.435 69.1853 103.469C67.1959 108.952 65.8464 112.72 65.1368 114.775C64.4669 116.709 63.9261 119.563 65.3219 121.241C66.3076 122.426 67.4452 123.131 68.7346 123.357C69.9932 123.58 71.3768 123.647 72.8855 123.56C72.9182 123.559 72.9509 123.564 72.9815 123.575C73.0122 123.586 73.0403 123.603 73.064 123.625C73.0877 123.648 73.1065 123.674 73.1194 123.704C73.1323 123.734 73.1389 123.765 73.1388 123.798V126.618C73.1388 126.657 73.1232 126.695 73.0953 126.722C73.0674 126.75 73.0296 126.766 72.9902 126.766H52.8353C52.8049 126.766 52.7758 126.754 52.7544 126.732C52.7329 126.711 52.7208 126.682 52.7208 126.652V123.735C52.7208 123.699 52.7347 123.665 52.7596 123.64C52.7846 123.614 52.8186 123.599 52.8548 123.597C54.8206 123.476 56.0045 123.335 57.5488 122.282C58.2033 121.833 58.8285 121.137 59.4245 120.193C60.1098 119.107 60.675 117.947 61.1199 116.714C61.8994 114.559 62.5393 112.836 63.0394 111.545C63.0435 111.535 63.0441 111.525 63.0412 111.514C63.0382 111.504 63.0319 111.495 63.0231 111.489C63.0142 111.483 63.0035 111.48 62.9924 111.48C62.9812 111.48 62.9704 111.483 62.9615 111.49C60.0855 113.738 56.8278 115.286 53.1885 116.135C51.1618 116.608 48.9873 116.846 46.6651 116.85C33.4315 116.866 23.9232 116.866 18.1403 116.852C18.1218 116.852 18.1034 116.848 18.0862 116.841C18.0691 116.834 18.0535 116.824 18.0404 116.811C18.0273 116.798 18.0169 116.782 18.0098 116.765C18.0027 116.748 17.999 116.73 17.999 116.712V113.799C17.999 113.76 18.0143 113.723 18.0417 113.696C18.069 113.668 18.1062 113.652 18.1452 113.651C20.2579 113.639 21.5855 113.638 22.1279 113.649C23.7624 113.681 25.4579 113.576 26.3445 112.148C26.5443 111.829 26.6442 111.325 26.6442 110.637C26.6458 85.6099 26.645 68.8483 26.6417 60.3524C26.6417 59.6439 26.4517 58.9822 26.0717 58.3673C25.1923 56.9486 23.5262 56.9801 22.0597 56.9753C19.7196 56.9704 18.4091 56.9623 18.1281 56.951C18.0934 56.9498 18.0606 56.9352 18.0365 56.9104C18.0124 56.8855 17.999 56.8524 17.999 56.8179V53.9104C17.999 53.8731 18.0139 53.8374 18.0404 53.8111C18.0669 53.7847 18.1028 53.7699 18.1403 53.7699C32.3256 53.7619 42.4428 53.7651 48.492 53.7796C51.498 53.7869 55.2566 54.6052 57.9337 56.1594C59.9848 57.3505 61.6501 58.9564 62.9298 60.977C65.1977 64.5576 65.5874 69.3583 64.3621 73.3383C63.7093 75.4574 62.5149 77.3336 60.7789 78.9669C58.5703 81.0425 55.7324 82.629 52.2653 83.7265C52.2629 83.7261 52.2608 83.7267 52.2593 83.7281C52.2578 83.7294 52.2572 83.7314 52.2575 83.7337C52.2579 83.7359 52.2591 83.7382 52.261 83.74C52.2629 83.7419 52.2654 83.7431 52.2677 83.7434L55.1909 84.5859C55.2144 84.5927 55.2393 84.594 55.2638 84.5898C55.2883 84.5856 55.3116 84.576 55.3321 84.5617C59.4749 81.7308 63.7702 79.0807 68.2182 76.6114ZM34.8971 82.7193C41.1737 82.7387 44.8308 82.7347 45.8685 82.7072C48.8826 82.6314 51.3267 81.5605 53.2007 79.4947C54.6111 77.938 55.4807 75.5147 55.7706 73.5271C56.1831 70.7075 56.1969 67.8791 55.812 65.0418C55.5027 62.754 54.1434 60.1249 52.0388 58.7909C51.2122 58.2664 50.5472 57.9291 50.0437 57.779C48.9979 57.4675 47.7499 57.2399 46.2997 57.0963C43.3165 56.8009 40.4551 56.7945 37.7155 57.0769C37.2478 57.1253 36.6412 57.298 35.8958 57.595C35.8187 57.6254 35.749 57.6707 35.6912 57.7282C35.0676 58.3479 34.755 59.142 34.7534 60.1103C34.7501 69.3147 34.7493 76.8026 34.7509 82.5741C34.7509 82.6126 34.7663 82.6496 34.7937 82.6768C34.8212 82.704 34.8583 82.7193 34.8971 82.7193ZM70.6249 99.6174C76.0018 98.7798 81.4104 97.8074 86.8507 96.7002C86.8698 96.6961 86.8879 96.688 86.9036 96.6765C86.9194 96.665 86.9326 96.6503 86.9422 96.6334C86.9519 96.6165 86.9578 96.5977 86.9597 96.5784C86.9615 96.559 86.9593 96.5395 86.953 96.521L79.4186 75.2339C79.4168 75.2303 79.414 75.2273 79.4106 75.2252C79.4071 75.2232 79.4032 75.222 79.3992 75.222C79.3951 75.222 79.3912 75.2232 79.3878 75.2252C79.3843 75.2273 79.3815 75.2303 79.3797 75.2339L70.5835 99.5666C70.5814 99.5727 70.5809 99.5793 70.5821 99.5858C70.5833 99.5922 70.586 99.5982 70.5902 99.6033C70.5943 99.6084 70.5996 99.6123 70.6057 99.6148C70.6118 99.6172 70.6184 99.6181 70.6249 99.6174ZM58.2869 104.713C58.1018 104.728 56.2018 104.855 52.5868 105.096C49.3211 105.312 46.2088 105.226 43.2499 104.837C41.6008 104.621 39.2136 103.815 39.3816 101.743C39.4775 100.544 39.8493 99.3672 40.4973 98.2133C40.8213 97.6322 41.5107 96.5961 42.0441 95.9449C44.7943 92.587 48.1973 89.7207 51.6953 87.1642C51.7178 87.1479 51.7356 87.126 51.7468 87.1007C51.7581 87.0755 51.7625 87.0477 51.7595 87.0202C51.7566 86.9927 51.7464 86.9665 51.7299 86.9442C51.7135 86.9218 51.6915 86.9042 51.6661 86.893C49.9024 86.1353 47.9293 85.9537 45.9343 85.9561C42.2593 85.961 38.5794 85.9594 34.8947 85.9513C34.8764 85.9513 34.8584 85.9549 34.8415 85.9618C34.8247 85.9687 34.8094 85.9789 34.7965 85.9917C34.7836 86.0045 34.7734 86.0197 34.7664 86.0365C34.7594 86.0532 34.7558 86.0712 34.7558 86.0893C34.7428 93.1826 34.7444 101.243 34.7607 110.272C34.7656 112.449 35.8723 113.564 38.0809 113.615C39.4255 113.646 41.902 113.655 45.5105 113.642C48.6504 113.63 51.2495 113.298 53.9364 111.703C55.242 110.928 56.3268 109.752 57.1908 108.175C57.6779 107.286 58.0799 106.176 58.3965 104.844C58.4004 104.828 58.4004 104.811 58.3966 104.795C58.3928 104.778 58.3852 104.763 58.3745 104.75C58.3638 104.738 58.3503 104.728 58.3351 104.721C58.3199 104.715 58.3034 104.712 58.2869 104.713ZM58.835 101.058C58.9909 97.8453 58.6548 94.9716 57.1493 91.9794C56.4267 90.5446 55.307 89.2413 53.7902 88.0696C53.5628 87.8937 53.3436 87.7589 53.1325 87.6653C53.0879 87.6458 53.0388 87.639 52.9909 87.6459C52.9431 87.6527 52.8984 87.6729 52.8621 87.704C50.453 89.7546 48.1315 91.9503 46.3241 94.4754C46.0512 94.8562 45.8458 95.1863 45.7078 95.4655C45.0428 96.8091 44.2365 98.3585 45.0866 99.8522C46.5068 102.346 56.1189 101.457 58.7449 101.152C58.7686 101.149 58.7907 101.139 58.8071 101.121C58.8236 101.104 58.8335 101.082 58.835 101.058Z" fill="white"/>
<path d="M157.631 75.2294C157.649 75.2252 157.666 75.2167 157.681 75.2046C157.696 75.1926 157.708 75.1773 157.716 75.1599C157.725 75.1424 157.73 75.1232 157.73 75.1037C157.73 75.0842 157.727 75.0648 157.719 75.047L156.168 71.4975C156.151 71.4603 156.15 71.4178 156.164 71.3794C156.179 71.3409 156.207 71.3096 156.244 71.2923L157.341 70.7805C157.381 70.7622 157.426 70.7607 157.467 70.7764C157.507 70.7921 157.54 70.8236 157.557 70.8641L159.275 74.8013C159.291 74.8367 159.317 74.866 159.349 74.8851C159.382 74.9042 159.419 74.9121 159.456 74.9077C160.772 74.7405 162.176 74.4592 163.399 74.6822C164.774 74.933 163.424 76.6027 162.926 77.0308C161.935 77.8838 161.316 78.4015 161.071 78.5839C161.041 78.606 161.019 78.638 161.009 78.6746C160.999 78.7111 161.002 78.7498 161.017 78.7841L162.889 83.0709C162.894 83.0811 162.897 83.0921 162.897 83.1033C162.898 83.1144 162.896 83.1256 162.892 83.136C162.889 83.1464 162.883 83.1559 162.876 83.1638C162.869 83.1718 162.86 83.1781 162.85 83.1824L161.598 83.7676C161.591 83.771 161.583 83.7728 161.575 83.773C161.566 83.7731 161.558 83.7716 161.551 83.7686C161.543 83.7655 161.537 83.7609 161.531 83.7551C161.525 83.7493 161.52 83.7424 161.517 83.7347L159.74 79.6683C159.731 79.646 159.717 79.6262 159.699 79.6106C159.681 79.595 159.66 79.5839 159.637 79.5783C159.614 79.5726 159.589 79.5725 159.566 79.578C159.543 79.5836 159.521 79.5945 159.503 79.61C159.385 79.7114 159.326 79.7629 159.324 79.7646C155.276 82.2644 151.393 84.2676 147.676 85.7742C145.046 86.84 141.805 87.9447 137.953 89.0882C132.218 90.7907 126.579 92.2594 121.034 93.4941C120.688 93.5701 120.189 93.6588 119.537 93.7601C119.448 93.7732 119.358 93.7629 119.275 93.7301C119.192 93.6973 119.118 93.643 119.062 93.5726L111.041 83.5827C111.011 83.5455 110.996 83.4977 111 83.4493C111.003 83.401 111.025 83.3561 111.06 83.3243C112.219 82.2821 113.296 81.5034 114.293 80.9883C114.383 80.9416 114.482 80.9162 114.583 80.914C114.684 80.9118 114.784 80.9329 114.876 80.9756C115.458 81.2408 116.111 81.5997 116.836 82.0524C118.924 83.3513 121.037 84.6257 123.174 85.8756C123.588 86.1163 123.916 86.1923 124.404 86.3772C124.483 86.4066 124.569 86.4057 124.646 86.3747C125.043 86.21 125.487 86.1239 125.896 85.9364C127.41 85.2371 128.754 84.6172 129.927 84.0767C131.035 83.5666 134.805 81.7669 141.236 78.6777C143.599 77.5443 145.698 76.5663 147.534 75.7438C147.788 75.6306 148.124 75.5293 148.544 75.4397C148.665 75.4146 148.79 75.4146 148.912 75.4397C149.872 75.6306 150.863 75.9853 151.884 76.5038C151.917 76.5202 151.956 76.5247 151.994 76.5165L157.631 75.2294Z" fill="white"/>
</svg>
