<svg width="181" height="181" viewBox="0 0 181 181" fill="none" xmlns="http://www.w3.org/2000/svg">
<rect width="181" height="181" fill="#E40414"/>
<path d="M27.7572 95.5986L26.0711 100.136C26.0667 100.148 26.0649 100.161 26.0658 100.174L26.0724 100.306C26.0733 100.341 26.0615 100.374 26.0392 100.399C25.8851 100.575 25.9662 100.722 25.9103 100.906C25.6792 101.678 25.5131 102.138 25.5011 102.511C25.5003 102.539 25.4958 102.566 25.4878 102.593C24.8953 104.712 24.541 106.599 24.4249 108.253C24.3815 108.873 24.5055 109.598 24.797 110.429C24.8048 110.45 24.8075 110.473 24.8049 110.496C24.7943 110.584 24.8142 110.672 24.8647 110.76C25.5591 111.979 26.5787 112.656 27.9232 112.791C29.1323 112.913 30.4769 112.497 31.7311 112.003C34.3547 110.97 36.8862 109.726 39.3256 108.272C42.3668 106.458 45.1583 104.505 48.2101 102.3C49.7806 101.165 51.1597 100.229 52.4485 99.339C53.0517 98.9223 53.3426 98.5767 53.5486 97.951C53.902 96.8713 54.2873 95.9402 54.4162 95.4713C54.4622 95.3007 54.4892 95.1788 54.4972 95.1056C54.4989 95.0902 54.4973 95.0747 54.4925 95.06C54.4877 95.0454 54.4799 95.0319 54.4694 95.0205C54.459 95.0091 54.4462 95 54.432 94.9939C54.4178 94.9878 54.4024 94.9847 54.3869 94.985C53.7638 94.9997 53.1407 95.2744 52.5521 95.5249C52.5172 95.5398 52.4789 95.5458 52.4405 95.5423C52.4121 95.5405 52.3918 95.5423 52.3794 95.5477C51.7895 95.7968 51.3634 95.9625 51.1012 96.0447C50.5335 96.2215 50.1039 96.3756 49.8125 96.5069C49.7248 96.5462 49.1193 96.7677 47.9962 97.1714C47.9904 97.1734 47.984 97.174 47.9775 97.1731C47.9711 97.1721 47.9647 97.1697 47.959 97.166C47.936 97.1508 47.9147 97.1468 47.8952 97.1539C47.6579 97.2424 47.1747 97.4049 46.4457 97.6416C46.2756 97.6978 46.1016 97.6751 45.9103 97.734C43.997 98.3342 40.0869 98.858 39.768 95.8424C39.57 93.9883 40.9465 92.7906 42.3827 91.9292C43.4217 91.3076 44.4718 90.7588 45.5329 90.2827C49.5401 88.4849 55.0127 86.4003 57.569 85.3728C58.6195 84.9513 59.7869 84.4395 61.0713 83.8375C62.2228 83.2972 63.2126 82.8649 64.0408 82.5407C66.3561 81.636 68.7902 80.6594 71.3429 79.6108C71.3818 79.5943 71.4148 79.5657 71.4373 79.5291C71.5126 79.4086 71.6242 79.33 71.7721 79.2933C71.7829 79.291 71.7926 79.2852 71.8 79.277C71.8074 79.2688 71.8121 79.2584 71.8135 79.2474C71.8148 79.2363 71.8126 79.2252 71.8074 79.2154C71.8021 79.2056 71.794 79.1978 71.784 79.1929C71.7796 79.1911 71.7659 79.1897 71.7429 79.1888C71.7377 79.188 71.7321 79.1889 71.7269 79.1915L62.5381 82.9507C62.5309 82.9537 62.5233 82.9553 62.5155 82.9554C62.5077 82.9554 62.5 82.9539 62.4929 82.9509C62.4857 82.9479 62.4792 82.9435 62.4737 82.9379C62.4683 82.9324 62.4639 82.9258 62.461 82.9185L62.4398 82.8636C62.4352 82.8518 62.4329 82.8392 62.4331 82.8265C62.4333 82.8139 62.4359 82.8014 62.4409 82.7898C62.4458 82.7782 62.4529 82.7678 62.4619 82.7591C62.4708 82.7504 62.4814 82.7435 62.4929 82.739L72.75 78.6208C72.7688 78.6134 72.784 78.5988 72.7924 78.5801C72.8008 78.5614 72.8018 78.54 72.7951 78.5203L72.7792 78.4775C72.774 78.4632 72.7661 78.4501 72.7558 78.4389C72.7456 78.4277 72.7333 78.4187 72.7196 78.4123C72.7059 78.406 72.691 78.4024 72.676 78.4019C72.6609 78.4013 72.6458 78.4038 72.6317 78.4091L69.8137 79.4541C69.7925 79.4618 69.7695 79.4622 69.7482 79.4551C69.727 79.4481 69.7089 79.434 69.6968 79.4152L69.6928 79.4086C69.6875 79.3973 69.6846 79.385 69.6842 79.3725C69.6838 79.36 69.6859 79.3476 69.6903 79.3358C69.6948 79.3241 69.7015 79.3134 69.7102 79.3042C69.7188 79.2951 69.7291 79.2877 69.7406 79.2826C71.234 78.6262 72.7252 78.1269 74.2141 77.7849C75.1105 77.5794 75.9772 77.5098 76.8142 77.5759C77.7004 77.6455 78.6504 77.9684 79.4542 78.1211C79.9817 78.2203 80.8108 78.0957 81.2878 78.1921C81.3134 78.1975 81.5349 78.2162 81.9521 78.2484C82.1779 78.2654 82.3954 78.3038 82.6044 78.3636C83.4641 78.6101 84.5775 79.1446 84.9641 79.9819C84.9842 80.0253 84.9955 80.0727 84.9973 80.1213C85.0372 81.185 84.6368 82.0374 83.7962 82.6787C83.705 82.7484 83.4486 82.9444 83.0269 83.2668C82.9618 83.3166 82.8892 83.3563 82.8117 83.3847C82.6939 83.4276 82.5699 83.5093 82.4397 83.6299C82.4008 83.6664 82.3581 83.6987 82.3121 83.7263C81.2776 84.3524 79.9764 85.0218 78.4086 85.7345C77.5237 86.1364 77.0561 86.3481 77.0056 86.3695C76.4272 86.6142 75.9861 86.8121 75.6823 86.963C75.4218 87.0934 74.9962 87.2774 74.4054 87.5149C73.9874 87.6829 73.5684 87.882 73.1485 88.1124C73.1112 88.1326 73.0694 88.1423 73.0276 88.1406C72.9559 88.1379 72.8988 88.1464 72.8563 88.166C72.4178 88.3634 71.9687 88.5755 71.509 88.8024C71.4187 88.8466 71.3017 88.8412 71.222 88.8774C70.4514 89.2204 69.858 89.4709 69.4417 89.629C68.4239 90.0148 67.7742 90.3604 66.6741 90.8414C66.6708 90.843 66.6668 90.8433 66.663 90.8422C66.6593 90.8411 66.6561 90.8387 66.6541 90.8355C66.6522 90.8323 66.6517 90.8286 66.6527 90.8252C66.6537 90.8218 66.6561 90.8189 66.6595 90.8173C66.9297 90.619 67.3043 90.3604 67.7835 90.0416C68.0758 89.8469 68.4793 89.6419 68.9939 89.4267C70.2269 88.9095 70.8899 88.6135 70.9829 88.5385C70.9962 88.528 71.0059 88.5135 71.0106 88.4972C71.0154 88.4808 71.015 88.4633 71.0094 88.4473C71.0038 88.4312 70.9934 88.4172 70.9796 88.4074C70.9658 88.3976 70.9493 88.3923 70.9324 88.3924C70.7676 88.3907 70.6432 88.3991 70.559 88.4179C69.0267 88.7635 67.6427 89.3342 66.4071 90.13C66.3938 90.1389 66.3765 90.1443 66.3553 90.1461C66.3429 90.1479 66.3278 90.155 66.3101 90.1675C65.6856 90.6051 65.3601 90.8356 65.3335 90.8588C65.1387 91.0294 64.8371 91.204 64.4287 91.3826C64.419 91.3866 64.4081 91.3871 64.3981 91.3841C64.388 91.381 64.3792 91.3746 64.3732 91.3659C64.3671 91.3572 64.3642 91.3467 64.3649 91.3361C64.3656 91.3255 64.3698 91.3154 64.3769 91.3076L64.7237 90.9593C64.7292 90.9535 64.7323 90.9458 64.7323 90.9378C64.7323 90.9298 64.7292 90.9221 64.7237 90.9164L64.6945 90.8869C64.6889 90.881 64.6814 90.8773 64.6733 90.8765C64.6652 90.8758 64.6572 90.8781 64.6506 90.8829C64.2799 91.1589 63.8083 91.5152 63.2994 91.6532C63.2498 91.6675 63.0775 91.7541 62.7826 91.9131C62.7403 91.9358 62.7063 91.9714 62.6856 92.0149C62.5722 92.2489 62.4787 92.5343 62.4052 92.871C62.298 93.3676 62.2254 93.6605 62.1873 93.7498C61.984 94.2294 61.9389 94.6702 61.7675 95.1752C61.5274 95.8879 61.3295 96.4636 61.1736 96.9021C61.1603 96.9414 61.1523 97.007 61.1497 97.099C61.1488 97.1407 61.1412 97.1823 61.1271 97.2223C60.8304 98.1056 60.6514 98.6267 60.5903 98.7857C60.4389 99.1769 60.3024 99.6069 60.1811 100.076C60.0872 100.436 59.9384 100.863 59.7347 101.358C59.7161 101.403 59.7165 101.452 59.736 101.505C59.748 101.541 59.7476 101.579 59.7347 101.615L58.7648 104.223C58.7595 104.239 58.7564 104.257 58.7555 104.274C58.7541 104.604 58.5137 105.156 58.2612 105.824C58.241 105.878 58.2298 105.935 58.228 105.993C58.2245 106.095 58.2174 106.159 58.2067 106.185C58.0544 106.57 57.8108 107.217 57.476 108.127C57.461 108.168 57.4512 108.21 57.4468 108.253C57.4317 108.386 57.4158 108.475 57.3989 108.52C56.9897 109.608 56.7453 110.26 56.6655 110.473C56.6469 110.522 56.6354 110.59 56.631 110.677C56.631 110.682 56.6296 110.687 56.627 110.693L55.1987 114.76C55.1975 114.763 55.197 114.767 55.1972 114.77C55.1974 114.773 55.1984 114.777 55.2001 114.78C55.2017 114.783 55.204 114.785 55.2068 114.787C55.2095 114.789 55.2127 114.79 55.216 114.791L55.2572 114.799C55.2575 114.799 55.2579 114.799 55.2581 114.799C55.2584 114.799 55.2585 114.8 55.2585 114.8L54.4255 116.968C54.424 116.971 54.4238 116.975 54.425 116.979C54.4263 116.983 54.4288 116.986 54.4321 116.988L54.4693 117.008C54.4728 117.01 54.4754 117.013 54.4766 117.017C54.4778 117.021 54.4776 117.025 54.4759 117.029C54.398 117.206 54.1611 117.839 53.7651 118.928C53.712 119.075 53.7107 119.226 53.6549 119.381C53.2642 120.441 52.9719 121.222 52.778 121.725C52.7576 121.776 52.7447 121.86 52.7394 121.977C52.7368 122.016 52.7292 122.055 52.7168 122.092C52.5326 122.628 52.3847 123.039 52.2731 123.325C52.2492 123.385 52.2469 123.44 52.2664 123.489C52.2741 123.507 52.2746 123.528 52.2678 123.546L51.3204 126.04C51.3161 126.051 51.3142 126.062 51.3151 126.074C51.316 126.139 51.3063 126.202 51.2859 126.262C51.1433 126.68 50.9821 127.085 50.8023 127.476C50.7899 127.503 50.7828 127.534 50.781 127.57C50.7784 127.61 50.7726 127.641 50.7637 127.661C50.4856 128.322 50.1402 128.909 49.7274 129.423C49.686 129.474 49.6367 129.519 49.5813 129.555C48.4626 130.286 47.0542 130.152 46.3952 128.891C46.3777 128.859 46.3682 128.824 46.3673 128.788L46.3248 127.751C46.3239 127.726 46.3208 127.701 46.3155 127.677C46.1056 126.729 45.6246 125.674 45.5409 124.696C45.3695 122.718 45.9262 120.637 46.56 118.748C48.1587 113.986 49.6477 109.567 51.0268 105.492C51.0279 105.488 51.0277 105.484 51.0262 105.48C51.0247 105.476 51.022 105.473 51.0186 105.471C51.0151 105.469 51.0111 105.468 51.007 105.468C51.003 105.469 50.9992 105.471 50.9963 105.473C50.1016 106.492 49.6539 107.002 49.653 107.002C49.6523 107.003 49.652 107.004 49.6521 107.005C49.6522 107.006 49.6528 107.007 49.6537 107.008C49.6546 107.009 49.6557 107.009 49.6568 107.009C49.6579 107.009 49.659 107.008 49.6597 107.007C49.9803 106.674 49.9497 106.709 49.568 107.113C49.506 107.178 49.3288 107.389 49.0365 107.744C47.0604 110.141 45.0582 112.307 43.0298 114.242C42.3442 114.896 41.183 115.885 39.5461 117.209C39.5286 117.223 39.5083 117.234 39.4863 117.24C39.4376 117.255 39.4057 117.269 39.3907 117.281C39.1843 117.463 38.946 117.646 38.6759 117.828C37.2037 118.82 36.0319 119.56 35.1603 120.048C34.6776 120.317 34.0646 120.645 33.3215 121.032C33.32 121.033 33.3181 121.033 33.3162 121.033C33.3143 121.032 33.3124 121.031 33.3108 121.03L33.2816 121.002C33.2788 120.999 33.2754 120.997 33.2718 120.996C33.2682 120.995 33.2647 120.996 33.2617 120.998C32.9959 121.131 32.5336 121.336 31.8746 121.615C31.7895 121.652 31.6903 121.671 31.577 121.673C31.5427 121.674 31.5085 121.68 31.476 121.693C30.6602 122.023 30.1048 122.221 29.8099 122.286C29.328 122.392 28.7146 122.528 27.9697 122.696C27.487 122.804 26.8262 122.894 25.9874 122.964C24.4125 123.096 22.8868 122.97 21.4103 122.584C21.3855 122.577 21.3615 122.569 21.3385 122.558C21.1658 122.481 20.9971 122.438 20.8323 122.431C20.8059 122.43 20.7794 122.425 20.7539 122.415C19.8956 122.075 19.226 121.757 18.745 121.462C17.5927 120.755 16.6817 119.972 16.012 119.113C15.3947 118.32 14.8486 117.433 14.3738 116.451C14.3207 116.339 14.2844 116.232 14.2649 116.13C14.2587 116.1 14.2494 116.071 14.237 116.042C13.9482 115.38 13.6967 114.67 13.4823 113.912C13.4788 113.901 13.4805 113.883 13.4876 113.857C13.4946 113.826 13.4946 113.795 13.4876 113.765C13.1643 112.376 13.0018 110.951 13 109.491C12.9974 107.256 13.1794 105.039 13.5461 102.841C14.6741 96.0755 17.0005 89.4816 19.8677 83.295C22.6277 77.3396 25.8227 71.709 29.4525 66.4029C31.1478 63.9236 32.9552 61.5475 34.8746 59.2745C36.9247 56.847 39.0705 54.6124 41.5111 52.8106C42.1923 52.3077 42.8943 51.925 43.617 51.6625C45.2924 51.0516 47.1857 50.8185 48.9422 51.1534C49.1255 51.1891 49.3328 51.2253 49.564 51.2619C49.8846 51.3128 50.2775 51.4977 50.7425 51.8165C51.3404 52.2274 51.8585 52.7364 52.297 53.3438C52.3191 53.3749 52.3378 53.4082 52.3528 53.4429C52.4609 53.7108 52.5627 53.9305 52.6584 54.102C53.0078 54.725 53.1128 55.3774 52.9998 56.0486C52.992 56.0979 52.9724 56.1452 52.9427 56.1866C52.8377 56.3326 52.588 56.3781 52.5694 56.5684C52.5375 56.914 52.4631 57.4767 52.1482 57.6602C51.7775 57.8746 51.1995 57.4954 50.9684 57.415C50.739 57.3347 50.4825 57.3289 50.1991 57.3976C50.1589 57.4073 50.1212 57.4261 50.0888 57.4526C49.7363 57.7348 49.4657 57.9688 49.277 58.1545C48.5649 58.8548 47.8177 59.6559 47.0356 60.5579C46.8337 60.791 46.6251 61.1541 46.3872 61.4314C46.3119 61.5189 46.222 61.6332 46.1175 61.7744C44.7969 63.5561 43.9377 64.7261 43.54 65.2843C43.4177 65.4576 43.2415 65.7126 43.0112 66.0493C42.7968 66.3654 42.609 66.62 42.4478 66.8129C42.4329 66.8298 42.4208 66.8488 42.412 66.8692C42.2937 67.1304 42.0984 67.3488 41.9629 67.5752C41.8389 67.7824 41.7043 67.9864 41.559 68.1874C41.0523 68.8876 40.3716 69.9473 39.5169 71.3665C39.3132 71.7058 39.1453 71.9707 39.0133 72.1609C38.7317 72.5655 38.5656 72.9821 38.2945 73.3813C38.1094 73.6511 37.9535 73.9257 37.8269 74.2052C37.6648 74.5616 37.4203 74.8804 37.2024 75.3065C36.6709 76.3487 36.2493 77.144 35.9375 77.6924C35.9101 77.7415 35.8981 77.7902 35.9017 77.8384C35.9034 77.8603 35.8988 77.8822 35.8884 77.9014L34.2608 80.9063C34.2591 80.9097 34.2584 80.9136 34.2587 80.9174C34.259 80.9212 34.2602 80.9249 34.2624 80.928C34.2646 80.9312 34.2676 80.9337 34.271 80.9353C34.2745 80.9369 34.2783 80.9375 34.2821 80.9371L34.3113 80.9331C34.3119 80.9331 34.3126 80.9332 34.3132 80.9335C34.3138 80.9338 34.3143 80.9342 34.3147 80.9347C34.3151 80.9352 34.3154 80.9359 34.3155 80.9365C34.3156 80.9372 34.3155 80.9378 34.3153 80.9385L33.457 82.5206C33.4551 82.5232 33.4541 82.5264 33.4544 82.5296C33.4546 82.5328 33.456 82.5359 33.4582 82.5381C33.4605 82.5404 33.4635 82.5418 33.4667 82.542C33.4699 82.5423 33.473 82.5413 33.4756 82.5394C33.4827 82.534 33.4942 82.5354 33.5101 82.5434C33.5112 82.5439 33.5121 82.5447 33.5128 82.5456C33.5135 82.5466 33.514 82.5476 33.5143 82.5488C33.5145 82.55 33.5145 82.5511 33.5143 82.5523C33.514 82.5534 33.5135 82.5545 33.5128 82.5555C33.0305 83.3794 32.7196 84.2756 32.2413 85.0861C32.1545 85.2335 32.0252 85.5175 31.8533 85.9381C31.7727 86.1355 31.6368 86.416 31.4454 86.7795C31.356 86.9492 31.2444 87.2059 31.1106 87.5498C31.0349 87.744 30.7173 88.2424 30.72 88.4809C30.7209 88.5046 30.7158 88.528 30.7054 88.5492L29.0287 92.2025C29.0234 92.214 29.0198 92.2262 29.018 92.2387C28.9356 92.7049 28.6606 93.1336 28.541 93.4993C28.4312 93.8378 28.3072 94.1598 28.169 94.4652C28.076 94.6706 27.9197 95.0484 27.7 95.5986C27.6991 95.601 27.6988 95.6037 27.6993 95.6062C27.6999 95.6088 27.7011 95.6112 27.703 95.613C27.7048 95.6149 27.7071 95.6161 27.7097 95.6167C27.7122 95.6172 27.7149 95.617 27.7173 95.616C27.7359 95.6088 27.7478 95.6021 27.7532 95.5959C27.7536 95.5956 27.7541 95.5955 27.7546 95.5955C27.7551 95.5955 27.7556 95.5957 27.756 95.596C27.7564 95.5962 27.7567 95.5966 27.7569 95.5971C27.7571 95.5976 27.7572 95.5981 27.7572 95.5986Z" fill="#FFEA00"/>
<path d="M144.507 97.8206C144.528 97.8215 144.536 97.8134 144.533 97.7964C144.532 97.7956 144.532 97.7949 144.531 97.7943C144.531 97.7938 144.53 97.7933 144.529 97.7931C144.529 97.7928 144.528 97.7927 144.527 97.7928C144.526 97.793 144.525 97.7933 144.525 97.7937C144.226 97.9453 143.679 98.1943 142.884 98.5405C142.833 98.563 142.761 98.5948 142.667 98.6361C141.918 98.9608 141.527 99.1272 141.494 99.1353C141.434 99.1478 141.39 99.1528 141.362 99.1501C141.353 99.1492 141.344 99.1506 141.336 99.1541L137.318 100.836C137.282 100.851 137.245 100.861 137.207 100.864C136.98 100.885 136.767 101.008 136.615 101.059C135.464 101.452 134.334 101.864 133.224 102.293C133.072 102.353 132.851 102.369 132.661 102.433C131.925 102.682 131.284 102.907 130.738 103.109C130.693 103.126 130.647 103.138 130.599 103.145C130.351 103.186 130.209 103.195 129.956 103.284C129.483 103.448 129.132 103.556 128.902 103.608C128.438 103.712 128.081 103.803 127.829 103.88C127.294 104.042 126.7 104.211 126.046 104.386C125.83 104.444 125.522 104.441 125.267 104.516C124.512 104.739 123.563 104.955 122.42 105.165C122.182 105.208 121.946 105.252 121.712 105.298C117.69 106.082 113.658 106.314 109.614 105.995C108.405 105.899 107.325 105.751 106.376 105.55C105.927 105.455 105.628 105.397 105.48 105.377C104.46 105.244 103.325 104.733 102.636 104.511C102.339 104.415 101.939 104.251 101.436 104.018C99.2054 102.987 97.481 101.573 96.2633 99.7771C96.1525 99.613 96.0336 99.4089 95.9066 99.1649C95.7539 98.8715 95.6242 98.7101 95.4648 98.3239C95.145 97.5506 94.9194 96.9518 94.7879 96.5275C94.5816 95.8583 94.4637 95.2326 94.4339 94.6504C94.3997 93.9938 94.4087 93.277 94.4609 92.5001C94.462 92.4849 94.4584 92.4697 94.4506 92.4565C94.4428 92.4434 94.4312 92.4329 94.4173 92.4265C94.4033 92.42 94.3878 92.418 94.3727 92.4206C94.3576 92.4232 94.3436 92.4303 94.3326 92.4409L93.8246 92.9267C93.8085 92.9418 93.7898 92.9541 93.7692 92.963C93.5503 93.0559 93.4301 93.2765 93.2855 93.4111C91.6552 94.9209 90.7545 95.7475 90.5834 95.891C90.0988 96.2992 89.5449 96.7782 88.9216 97.3281C88.7757 97.4564 88.6244 97.5739 88.4676 97.6807C88.3069 97.791 88.1245 97.9794 87.8799 98.1759C86.0434 99.6524 84.1433 100.996 82.1798 102.207C82.1266 102.24 81.8317 102.43 81.2948 102.778C81.0589 102.931 80.8206 103.071 80.5801 103.198C79.8289 103.591 78.9809 104.061 78.0361 104.608C78.0136 104.62 77.9649 104.631 77.8902 104.639C77.8491 104.643 77.8088 104.655 77.7713 104.674C77.6686 104.727 77.384 104.873 76.9174 105.112C76.4081 105.372 75.8203 105.55 75.2813 105.803C75.057 105.909 74.8025 106.006 74.5179 106.096C73.7271 106.346 73.2285 106.504 73.0223 106.57C72.394 106.767 71.7509 106.856 71.07 106.963C70.2756 107.088 69.56 106.898 68.9232 106.391C67.9153 105.59 67.3397 104.476 67.029 103.235C66.9704 103.003 67.0006 102.754 67.1195 102.488C67.2609 102.172 67.3825 101.847 67.4843 101.513C67.4906 101.492 67.5035 101.473 67.5211 101.459C67.5387 101.445 67.5603 101.436 67.5829 101.435L68.0734 101.403C68.0824 101.402 68.0918 101.4 68.1017 101.399C68.5467 101.301 69.1479 101.077 69.9054 100.727C73.6785 98.9832 77.1223 96.9841 80.237 94.7298C83.3552 92.4746 86.4077 89.9884 89.3945 87.2712C90.8545 85.9426 92.1542 84.6692 93.2936 83.451C94.6744 81.9736 95.9998 80.4033 96.9469 78.6473C97.6886 77.2707 98.0575 75.6345 97.7643 74.1382C97.6112 73.3559 97.309 72.6782 96.8577 72.105C96.4812 71.625 96.025 71.1962 95.4891 70.8186C95.4747 70.8078 95.4098 70.7666 95.2946 70.6948C95.0153 70.5217 94.6447 70.3355 94.1826 70.1364C93.8395 69.9884 93.4418 69.8749 92.9896 69.7959C90.9401 69.4367 88.5473 69.6358 86.6126 69.8834C84.3951 70.1678 82.7526 70.3633 81.6853 70.4701C80.8161 70.5571 79.9794 70.5795 79.175 70.5374C79.1401 70.5357 79.1064 70.524 79.078 70.5037C79.0496 70.4834 79.0277 70.4553 79.015 70.4228C79.0022 70.3904 78.9992 70.3549 79.0063 70.3208C79.0134 70.2867 79.0302 70.2554 79.0548 70.2306C79.4344 69.843 79.7992 69.6937 80.3424 69.4434C80.6216 69.3151 80.8089 69.2366 80.9044 69.2079C81.1755 69.129 82.0037 68.8289 83.389 68.3077C83.4034 68.3023 83.4255 68.3041 83.4552 68.3131C83.4814 68.321 83.5099 68.32 83.5363 68.3104C85.9844 67.4376 88.1988 66.8751 90.1794 66.623C91.9772 66.3952 93.7156 66.401 95.3945 66.6405C95.4324 66.6459 95.8116 66.7082 96.5321 66.8275C96.9906 66.9038 97.3635 66.9958 97.6508 67.1034C98.5074 67.4254 99.2023 67.7358 99.7355 68.0346C99.9517 68.1548 100.339 68.4342 100.896 68.8729C100.928 68.8978 100.957 68.9268 100.98 68.959C101.2 69.259 101.572 69.4918 101.746 69.7596C101.746 69.7605 101.829 69.8843 101.994 70.131C102.213 70.4557 102.492 70.8935 102.831 71.4443C102.875 71.516 102.884 71.5847 102.858 71.6502C102.853 71.6633 102.85 71.6774 102.851 71.6915C102.852 71.7056 102.855 71.7195 102.862 71.7322C103.012 72.0381 103.188 72.4508 103.389 72.9702C103.437 73.098 103.401 73.2407 103.444 73.3644C103.591 73.7825 103.712 74.1539 103.806 74.4786C103.809 74.4882 103.814 74.497 103.821 74.5044C103.828 74.5117 103.836 74.5174 103.846 74.5211C103.855 74.5247 103.865 74.5262 103.875 74.5253C103.885 74.5245 103.895 74.5214 103.904 74.5163C104.405 74.2189 104.709 74.0574 104.961 73.8058C104.993 73.7746 105.029 73.7483 105.068 73.7278C105.357 73.5726 105.616 73.4102 105.845 73.2407C106.004 73.1222 106.255 72.9491 106.598 72.7213C107.535 72.0996 108.267 71.6174 108.793 71.2747C109.972 70.506 111.404 69.6596 113.088 68.7356C113.399 68.5661 113.737 68.4302 114.088 68.2095C114.412 68.0049 115.016 67.7004 115.898 67.2958C116.078 67.2133 116.237 67.133 116.374 67.055C116.599 66.9244 116.826 66.9123 117.029 66.7832C117.282 66.623 117.972 66.3445 118.425 66.1884C118.972 65.9987 119.549 65.6919 120.107 65.5021C120.618 65.3299 120.883 65.2397 120.904 65.2317C122.096 64.7903 123.298 64.449 124.513 64.2077C125.631 63.9857 126.588 63.9574 127.677 64.0489C127.686 64.0498 127.694 64.0538 127.7 64.0602C127.707 64.0665 127.71 64.0748 127.711 64.0835C127.712 64.0922 127.71 64.1008 127.705 64.1078C127.7 64.1148 127.692 64.1196 127.684 64.1216C126.478 64.4481 125.351 64.8836 124.303 65.4281C124.277 65.4421 124.247 65.4478 124.217 65.4443C124.19 65.4416 124.174 65.4425 124.169 65.447C124.169 65.4481 124.167 65.449 124.166 65.4495C124.165 65.45 124.164 65.4501 124.163 65.4497C124.154 65.4461 123.304 65.9157 121.615 66.8585C121.117 67.1357 120.386 67.686 119.747 68.0601C119.503 68.2028 119.168 68.4364 118.741 68.7612C117.92 69.3864 117.497 69.7228 117.47 69.7704C117.45 69.8035 117.421 69.8295 117.386 69.8444C117.285 69.8892 117.189 69.9579 117.097 70.0502C116.892 70.2557 116.693 70.4154 116.498 70.5293C116.494 70.532 116.489 70.5351 116.485 70.5387L115.543 71.3474C115.538 71.3519 115.533 71.3573 115.528 71.3635C115.452 71.4739 115.281 71.6434 115.017 71.8722C114.879 71.9924 114.707 72.1548 114.503 72.3593C113.532 73.3335 112.901 73.9794 112.61 74.2969C110.588 76.501 108.831 78.8774 107.339 81.4259C107.311 81.4735 107.292 81.512 107.281 81.5416C107.27 81.5726 107.259 81.6007 107.25 81.6226C107.24 81.6445 107.234 81.6593 107.23 81.6654C106.712 82.506 106.263 83.3389 105.884 84.1642C105.676 84.6163 105.437 85.1348 105.165 85.7197C105.153 85.7474 105.144 85.7763 105.138 85.8058C105.098 86.0211 105.001 86.3127 104.849 86.6805C104.269 88.0799 104.07 89.6071 104.252 91.2622C104.256 91.2882 104.253 91.3165 104.244 91.347C104.235 91.3807 104.234 91.416 104.24 91.4506C104.335 91.9601 104.507 92.458 104.753 92.9442C104.768 92.9726 104.788 92.9987 104.813 93.0209C104.832 93.037 104.851 93.0563 104.871 93.0788C104.974 93.1936 105.039 93.3008 105.065 93.4003C105.1 93.5295 105.139 93.6264 105.183 93.691C105.469 94.1162 105.954 94.6042 106.635 95.155C106.91 95.3775 107.234 95.5735 107.608 95.743C108.095 95.9637 108.474 96.2005 108.994 96.3499C110.88 96.8935 112.822 97.1725 114.819 97.1869C117.195 97.2039 119.62 97.0276 122.093 96.658C128.031 95.7726 133.854 94.2292 139.615 92.3764C148.037 89.6677 156.038 86.6764 163.783 82.7661C165.117 82.0924 165.963 81.6825 166.32 81.5362C166.574 81.4322 166.784 81.3546 166.951 81.3035C166.989 81.2918 167.027 81.2851 167.066 81.2833C167.718 81.2577 168.153 81.917 167.949 82.5239C167.779 83.0312 167.52 83.4712 167.12 83.9193C166.775 84.3068 166.421 84.7334 165.962 85.1357C165.136 85.8614 164.332 86.5226 163.549 87.1191C163.534 87.1308 163.51 87.138 163.479 87.1406C163.459 87.1424 163.441 87.1504 163.426 87.1635C163.253 87.3205 162.939 87.5699 162.484 87.9117C162.479 87.916 162.465 87.9242 162.444 87.9352C162.423 87.9462 162.397 87.9596 162.368 87.9736C162.334 87.9897 162.301 88.0094 162.269 88.0328C160.895 89.0052 159.504 89.9063 158.096 90.7361C157.992 90.7971 157.933 90.8321 157.919 90.841C156.619 91.6627 155.395 92.3674 154.245 92.955C153.725 93.2214 153.162 93.5461 152.558 93.9292C152.517 93.9552 152.443 93.9803 152.335 94.0045C152.292 94.0143 152.251 94.0302 152.213 94.0516C151.519 94.4499 150.734 94.8599 149.859 95.2815C149.806 95.3066 149.689 95.3519 149.506 95.4174C149.464 95.4326 149.423 95.4524 149.384 95.4766C149.04 95.6892 148.727 95.857 148.445 95.9799C148.07 96.1422 147.748 96.2925 147.479 96.4306C146.792 96.7859 146.47 96.9917 145.882 97.2097C145.57 97.3263 145.144 97.5336 144.606 97.8314C144.594 97.8376 144.581 97.8413 144.568 97.8422C144.546 97.8431 144.525 97.8408 144.506 97.8354C144.504 97.8349 144.502 97.8336 144.501 97.8318C144.499 97.83 144.499 97.828 144.499 97.826C144.499 97.824 144.5 97.8224 144.502 97.8214C144.503 97.8203 144.505 97.8201 144.507 97.8206Z" fill="#FFEA00"/>
</svg>
