<svg width="181" height="181" viewBox="0 0 181 181" fill="none" xmlns="http://www.w3.org/2000/svg">
<rect width="181" height="181" fill="#1E1649"/>
<path d="M151.09 59.2776C146.984 65.8091 130.339 66.6015 122.53 66.1813C79.347 56.5762 63.4391 66.5414 60.883 72.7247C52.6714 96.7373 117.599 101.42 151.09 100.759C60.6908 116.578 31.7776 98.7478 29.227 86.7478C28.896 85.1905 29.2006 83.57 29.7519 82.0761C40.1566 53.8849 114.363 55.0275 151.09 59.2776Z" fill="url(#paint0_linear_315_54725)"/>
<path d="M29.7523 82.0759C40.1571 53.8851 114.362 55.0275 151.09 59.2776C147.112 65.6047 131.368 66.5459 123.288 66.2165L122.531 66.1815C79.3474 56.5765 63.4387 66.5413 60.8827 72.7245C52.6713 96.7369 117.599 101.42 151.09 100.76C60.6909 116.578 31.7773 98.7474 29.2267 86.7474C28.9372 85.3849 29.1349 83.9743 29.558 82.6422L29.7523 82.0759ZM149.706 59.8608C131.386 57.8265 104.433 56.6056 80.6316 59.2416C68.4435 60.5914 57.1237 62.9486 48.2228 66.7002C39.3092 70.4573 32.943 75.5603 30.4445 82.33C29.9182 83.7559 29.6578 85.2259 29.9487 86.5949C30.5354 89.3554 32.6703 92.5767 37.0536 95.6203C41.4319 98.6603 48.0101 101.49 57.3684 103.466C74.8082 107.149 101.8 107.848 141.922 101.537C126.089 101.391 106.352 100.121 90.1954 96.7138C80.4745 94.6636 71.962 91.8236 66.3813 87.9308C63.5844 85.9799 61.4785 83.7329 60.3518 81.1433C59.2172 78.5353 59.1052 75.6455 60.1851 72.4874L60.1926 72.4652L60.2011 72.444C61.6148 69.0244 66.5229 64.8982 76.3178 62.8132C86.1397 60.7225 101.005 60.6474 122.624 65.449C126.492 65.6532 132.518 65.5578 138.075 64.6117C140.867 64.1364 143.513 63.4503 145.698 62.4967C147.382 61.7619 148.748 60.8855 149.706 59.8608Z" fill="url(#paint1_radial_315_54725)"/>
<path d="M102.274 95.7915L108.223 102.839C108.258 102.88 108.301 102.913 108.349 102.937C108.398 102.961 108.451 102.974 108.504 102.976C108.558 102.978 108.612 102.969 108.661 102.949C108.711 102.929 108.756 102.899 108.793 102.861L111.453 100.127C112.681 99.0618 113.835 97.9293 114.913 96.7297C117.7 93.6268 119.562 91.5892 120.499 90.6168C120.587 90.5256 120.648 90.4144 120.677 90.2943C120.872 89.5149 120.911 88.9493 120.795 88.5975C120.485 87.6397 120.306 87.0839 120.259 86.93C120.249 86.8965 120.247 86.8612 120.254 86.8269C120.261 86.7926 120.276 86.7604 120.298 86.7328C120.32 86.7052 120.348 86.6831 120.381 86.6684C120.413 86.6536 120.449 86.6465 120.485 86.6478L130.4 87.007C130.449 87.0093 130.497 87.0018 130.541 86.985C130.99 86.8286 131.445 86.8225 131.906 86.9666C131.94 86.9769 131.97 86.9957 131.993 87.0213C132.017 87.0469 132.033 87.0783 132.041 87.1124C132.048 87.1465 132.046 87.1821 132.036 87.2157C132.025 87.2493 132.006 87.2797 131.98 87.3038C131.388 87.8462 130.987 88.1895 130.778 88.3336C130.058 88.8223 129.406 89.3561 128.824 89.9351C128.452 90.3065 127.801 90.8391 126.871 91.533C125.859 92.2904 124.796 93.1907 123.681 94.234C122.796 95.0622 121.59 96.0261 120.063 97.1255C118.844 98.0026 117.819 99.0239 116.988 100.189L111.849 104.459C111.83 104.474 111.814 104.494 111.803 104.517C111.792 104.539 111.786 104.564 111.786 104.589C111.786 104.614 111.791 104.639 111.801 104.662C111.811 104.685 111.826 104.706 111.845 104.723L120 112.03C120.015 112.397 120.2 112.696 120.555 112.928C121.223 113.363 121.714 113.813 122.028 114.277C122.089 114.372 122.164 114.457 122.249 114.53C122.997 115.197 124.103 116.344 125.298 117.157C126.179 117.758 126.879 118.319 127.4 118.84C127.604 119.039 127.831 119.215 128.077 119.364C128.987 119.911 129.951 120.654 130.97 121.592C131.082 121.696 131.216 121.774 131.362 121.823C132.106 122.072 132.45 122.695 133.124 122.955C133.58 123.134 133.865 123.273 133.978 123.373C134.029 123.42 134.065 123.481 134.081 123.548C134.097 123.615 134.092 123.686 134.066 123.75C134.041 123.814 133.997 123.87 133.94 123.909C133.883 123.948 133.815 123.97 133.745 123.97L122.841 124C122.768 124 122.697 123.976 122.639 123.933C122.581 123.889 122.539 123.827 122.52 123.758L122.035 122.09C122.023 122.047 122.001 122.006 121.972 121.969C121.086 120.86 120.427 120.098 119.993 119.682C119.188 118.915 118.605 118.243 118.242 117.667C117.983 117.253 117.406 117.044 117.28 116.553C117.244 116.421 117.171 116.303 117.07 116.212C116.224 115.462 115.714 114.982 115.542 114.772C114.382 113.364 113.249 112.043 112.141 110.806C111.52 110.112 110.93 109.704 110.373 109.582L108.66 107.647C108.645 107.631 108.628 107.618 108.608 107.609C108.588 107.6 108.567 107.595 108.545 107.595C108.523 107.595 108.502 107.6 108.482 107.609C108.462 107.618 108.445 107.631 108.43 107.647L107.753 108.442C107.472 108.533 107.185 108.722 106.891 109.011C106.371 109.524 104.977 110.869 102.71 113.045C101.4 114.306 100.257 115.475 99.2804 116.553C97.8917 118.087 96.7953 119.304 95.9912 120.203C95.0403 121.266 95.1402 122.233 95.0366 123.457C95.0255 123.592 94.9634 123.717 94.8627 123.809C94.762 123.901 94.6299 123.952 94.4927 123.952H83.4115C83.3346 123.952 83.2602 123.925 83.2019 123.875C83.1436 123.825 83.1052 123.757 83.0935 123.681C83.0819 123.606 83.0979 123.529 83.1386 123.465C83.1792 123.4 83.2419 123.352 83.3153 123.329C84.149 123.072 84.9112 122.75 85.6018 122.361C86.8844 121.641 87.9846 121.013 88.9021 120.478C89.5582 120.094 90.5313 119.42 91.8214 118.455C92.5515 117.912 93.5233 117.258 94.7369 116.49C94.855 116.417 94.9641 116.333 95.0625 116.238C96.0911 115.255 97.1554 114.316 98.2555 113.419C98.554 113.173 99.0769 112.517 99.8243 111.451L105.5 106.163C105.552 106.115 105.593 106.056 105.621 105.991C105.649 105.926 105.663 105.856 105.662 105.786C105.661 105.715 105.645 105.646 105.615 105.582C105.585 105.518 105.542 105.461 105.489 105.415L95.2401 96.4585C94.9984 95.7769 94.5494 95.2711 93.8933 94.9413C93.8589 94.9243 93.8266 94.9033 93.7971 94.879L88.4396 90.3236C88.3875 90.2799 88.347 90.2242 88.3217 90.1614C88.2963 90.0986 88.2869 90.0306 88.2942 89.9634C88.3015 89.8961 88.3253 89.8317 88.3636 89.7756C88.4018 89.7196 88.4533 89.6737 88.5136 89.642L89.6199 89.0556C89.6347 89.0458 89.6483 89.036 89.6606 89.0263L92.1618 87.2305C92.2035 87.1989 92.2408 87.1619 92.2728 87.1206L92.9868 86.23C93.045 86.1573 93.1191 86.0987 93.2036 86.0588C93.288 86.0188 93.3805 85.9986 93.4739 85.9997C93.5672 86.0007 93.6589 86.0231 93.7419 86.0649C93.8249 86.1068 93.897 86.167 93.9525 86.241C94.769 87.3209 95.4054 88.0759 95.8617 88.5059C96.2366 88.8577 96.5523 89.2547 96.8089 89.6969C96.9667 89.973 97.2701 90.3725 97.719 90.8953C99.162 92.5763 100.68 94.2083 102.274 95.7915Z" fill="url(#paint2_radial_315_54725)"/>
<path d="M93.4738 85.9997C93.5671 86.0007 93.6592 86.0232 93.7422 86.0651C93.8252 86.1069 93.8976 86.1673 93.9531 86.2413C94.7695 87.321 95.4059 88.0758 95.8622 88.5058C96.2371 88.8576 96.5527 89.2549 96.8092 89.6971C96.9671 89.9732 97.2702 90.3731 97.719 90.8958C99.1619 92.5767 100.681 94.2088 102.274 95.792L108.223 102.839C108.258 102.88 108.301 102.913 108.35 102.937C108.398 102.96 108.451 102.974 108.504 102.976C108.531 102.977 108.558 102.975 108.584 102.97L108.662 102.949C108.711 102.93 108.756 102.899 108.793 102.861L111.453 100.127C112.528 99.1946 113.545 98.2114 114.505 97.1764L114.913 96.73C117.003 94.403 118.573 92.6746 119.623 91.5458L120.5 90.6172C120.565 90.5489 120.616 90.4691 120.65 90.383L120.677 90.2943C120.848 89.6122 120.899 89.0936 120.832 88.739L120.796 88.5976L120.259 86.9304C120.249 86.8969 120.247 86.8612 120.253 86.8269C120.26 86.7927 120.276 86.7606 120.298 86.733C120.32 86.7055 120.349 86.6834 120.381 86.6687C120.414 86.654 120.449 86.6463 120.485 86.6476L130.4 87.0074C130.425 87.0086 130.449 87.0069 130.473 87.0032L130.541 86.9852C130.99 86.829 131.445 86.8223 131.906 86.9662L131.846 87.153L131.847 87.152L131.906 86.9662C131.939 86.9765 131.97 86.9956 131.993 87.0211C132.017 87.0467 132.032 87.0788 132.04 87.1129C132.047 87.1468 132.046 87.1819 132.036 87.2153C132.025 87.2488 132.006 87.2798 131.98 87.3039L131.236 87.9676C131.035 88.1394 130.882 88.2617 130.778 88.3338L130.25 88.7084C129.736 89.0918 129.26 89.5013 128.824 89.9356C128.451 90.3069 127.801 90.8396 126.871 91.5332C125.86 92.2905 124.796 93.1912 123.682 94.2345L123.334 94.551C122.489 95.3054 121.399 96.1637 120.063 97.1257L119.615 97.4613C118.591 98.2603 117.716 99.1693 116.988 100.189L111.849 104.458L111.803 104.516C111.793 104.539 111.787 104.563 111.786 104.588C111.786 104.613 111.791 104.639 111.801 104.662C111.811 104.685 111.826 104.705 111.845 104.722L120 112.03C120.015 112.397 120.2 112.696 120.555 112.928C121.223 113.363 121.714 113.813 122.027 114.277C122.088 114.372 122.164 114.456 122.25 114.529C122.997 115.196 124.103 116.344 125.298 117.158C126.178 117.759 126.879 118.319 127.399 118.84C127.603 119.039 127.831 119.215 128.077 119.363C128.987 119.91 129.952 120.653 130.97 121.592C131.082 121.695 131.216 121.774 131.362 121.823C132.106 122.072 132.45 122.695 133.123 122.955C133.58 123.133 133.864 123.273 133.978 123.373C134.029 123.42 134.065 123.481 134.081 123.548C134.097 123.615 134.091 123.685 134.066 123.75C134.041 123.814 133.997 123.87 133.939 123.909L133.847 123.954C133.814 123.965 133.779 123.97 133.744 123.97L122.841 124L122.787 123.995C122.751 123.99 122.717 123.978 122.686 123.962L122.64 123.932C122.582 123.888 122.539 123.828 122.519 123.758L122.035 122.09C122.028 122.068 122.021 122.047 122.01 122.026L121.972 121.969C121.086 120.86 120.427 120.097 119.992 119.682C119.188 118.915 118.605 118.243 118.242 117.666C117.983 117.252 117.406 117.043 117.28 116.552C117.244 116.421 117.171 116.302 117.069 116.211C116.435 115.649 115.99 115.239 115.734 114.98L115.542 114.772C114.672 113.717 113.818 112.709 112.977 111.75L112.141 110.806C111.597 110.199 111.078 109.811 110.584 109.641L110.373 109.582L108.66 107.647C108.646 107.631 108.628 107.618 108.609 107.609C108.589 107.6 108.566 107.595 108.545 107.595C108.523 107.596 108.501 107.6 108.482 107.609C108.462 107.618 108.445 107.631 108.431 107.647L107.753 108.443L107.648 108.481C107.4 108.582 107.148 108.758 106.891 109.01C106.371 109.524 104.977 110.869 102.71 113.046L101.76 113.974C100.84 114.885 100.013 115.744 99.2807 116.552C97.8921 118.086 96.7952 119.304 95.9911 120.203L95.8249 120.401C95.0524 121.388 95.1337 122.31 95.0366 123.457C95.0254 123.592 94.9636 123.717 94.8629 123.809C94.7874 123.877 94.6942 123.923 94.5945 123.942L94.4933 123.952H83.4119L83.3544 123.947C83.3172 123.94 83.2815 123.927 83.249 123.908L83.2021 123.875C83.1438 123.825 83.105 123.756 83.0934 123.681C83.0819 123.606 83.0987 123.529 83.1392 123.465C83.1799 123.4 83.2427 123.351 83.3161 123.329C84.0456 123.104 84.7202 122.829 85.3401 122.503L85.6022 122.361C86.2433 122.001 86.8389 121.664 87.3887 121.35L88.9025 120.477C89.5586 120.094 90.5316 119.419 91.8215 118.455C92.5516 117.912 93.5237 117.257 94.7372 116.49C94.8552 116.417 94.9649 116.333 95.0632 116.238C95.8346 115.501 96.6261 114.788 97.4378 114.1L98.2559 113.419C98.4798 113.234 98.8299 112.818 99.3063 112.173L99.824 111.451L105.5 106.162C105.526 106.138 105.55 106.112 105.57 106.083L105.621 105.99C105.635 105.958 105.646 105.925 105.652 105.89L105.662 105.786C105.661 105.751 105.657 105.715 105.649 105.681L105.615 105.582C105.6 105.55 105.582 105.519 105.561 105.491L105.489 105.415L95.24 96.4588C94.9983 95.7772 94.5496 95.2713 93.8935 94.9415L93.7976 94.8792L88.4402 90.3239C88.3881 90.2802 88.3473 90.2242 88.3219 90.1614C88.2966 90.0986 88.2869 90.0302 88.2942 89.963C88.3016 89.8959 88.3253 89.8311 88.3635 89.7752C88.3826 89.7471 88.4054 89.7217 88.4306 89.6992L88.5137 89.6422L89.6205 89.0555C89.6352 89.0458 89.6488 89.0357 89.661 89.026L92.1624 87.23C92.2039 87.1985 92.2413 87.1615 92.2732 87.1203L92.9869 86.2297C93.016 86.1934 93.0497 86.1613 93.086 86.1326L93.2042 86.0588C93.2885 86.019 93.3807 85.9987 93.4738 85.9997ZM93.4695 86.3658C93.433 86.3655 93.3964 86.3732 93.363 86.389C93.3462 86.397 93.3306 86.4071 93.3161 86.4186L93.2767 86.4576L92.5661 87.3419L92.5672 87.3429C92.5155 87.4099 92.4547 87.47 92.3871 87.5213L92.3797 87.5276L89.8911 89.312C89.8696 89.329 89.8476 89.3456 89.8251 89.3605L89.8102 89.37L89.7953 89.3784L88.6884 89.9651H88.6873C88.6804 89.9688 88.6747 89.9745 88.6703 89.9809C88.666 89.9872 88.6637 89.9945 88.6628 90.0021C88.662 90.0098 88.6631 90.018 88.666 90.0253L88.6788 90.0443L88.6809 90.0453L94.0362 94.5985C94.0432 94.6041 94.0505 94.6092 94.0586 94.6133L94.0607 94.6143C94.769 94.9704 95.2673 95.5171 95.549 96.2394L105.732 105.139L105.798 105.202C105.861 105.269 105.912 105.345 105.951 105.428C106.002 105.539 106.03 105.659 106.032 105.781C106.033 105.902 106.01 106.022 105.962 106.134C105.914 106.246 105.843 106.347 105.754 106.431L105.752 106.429L100.105 111.691C99.7387 112.212 99.4252 112.64 99.1625 112.97C98.8992 113.3 98.6731 113.551 98.4924 113.701L98.4913 113.702C97.3988 114.592 96.3415 115.526 95.3199 116.501L95.3189 116.5C95.2025 116.612 95.0739 116.712 94.9354 116.798L94.9364 116.799C93.7269 117.564 92.7638 118.213 92.0441 118.748L92.0431 118.747C90.7518 119.713 89.7652 120.398 89.09 120.793C88.1702 121.329 87.0681 121.958 85.7844 122.68C85.1505 123.036 84.461 123.338 83.7166 123.585H94.4922C94.5373 123.585 94.5802 123.568 94.6126 123.539C94.6449 123.509 94.6645 123.469 94.668 123.427L94.7255 122.558C94.787 121.695 94.9249 120.841 95.7141 119.959C96.5189 119.059 97.616 117.842 99.0048 116.307C99.9884 115.222 101.139 114.047 102.453 112.782C104.72 110.605 106.112 109.262 106.63 108.751V108.75C106.918 108.468 107.219 108.254 107.534 108.131L108.147 107.411L108.15 107.408C108.199 107.352 108.26 107.307 108.328 107.276L108.434 107.241C108.47 107.233 108.507 107.228 108.545 107.228C108.582 107.228 108.62 107.233 108.656 107.241L108.762 107.276L108.858 107.332C108.887 107.353 108.914 107.378 108.938 107.406L110.578 109.26C111.203 109.435 111.816 109.89 112.418 110.563C113.529 111.803 114.666 113.129 115.828 114.54L116.004 114.729C116.163 114.89 116.408 115.121 116.744 115.426L117.316 115.939L117.317 115.94C117.472 116.078 117.582 116.257 117.637 116.456L117.639 116.462L117.675 116.555C117.724 116.647 117.813 116.739 117.954 116.861C118.116 117 118.39 117.205 118.557 117.473H118.556C118.896 118.013 119.455 118.661 120.249 119.418V119.419C120.703 119.853 121.376 120.632 122.262 121.74L122.338 121.859C122.36 121.9 122.377 121.943 122.39 121.988L122.868 123.631L133.669 123.604C133.634 123.583 133.584 123.555 133.515 123.522C133.386 123.458 133.211 123.383 132.988 123.296V123.295C132.584 123.138 132.281 122.874 132.03 122.665C131.768 122.446 131.543 122.27 131.244 122.17V122.169C131.048 122.104 130.868 121.999 130.717 121.86V121.859C129.712 120.933 128.768 120.207 127.885 119.676H127.884C127.614 119.513 127.364 119.32 127.14 119.1L127.136 119.097C126.638 118.598 125.957 118.053 125.088 117.459C123.866 116.628 122.718 115.441 122.002 114.801V114.8C121.893 114.707 121.798 114.6 121.72 114.481L121.608 114.327C121.368 114.018 121.03 113.705 120.584 113.392L120.351 113.234C119.962 112.98 119.711 112.635 119.646 112.208L111.597 104.994C111.539 104.943 111.494 104.879 111.463 104.809C111.431 104.738 111.416 104.662 111.417 104.584L111.431 104.468C111.439 104.43 111.453 104.393 111.47 104.358L111.532 104.259C111.556 104.228 111.584 104.199 111.615 104.174L116.716 99.9368C117.566 98.7543 118.61 97.7185 119.845 96.8292C121.365 95.7346 122.557 94.7808 123.427 93.9675L124.26 93.2056C125.084 92.4708 125.88 91.815 126.648 91.2398C127.577 90.5473 128.209 90.0283 128.562 89.6771L129.024 89.2381C129.341 88.952 129.676 88.6783 130.028 88.4161L130.569 88.0309C130.728 87.9208 131.03 87.6626 131.49 87.2469C131.211 87.2073 130.937 87.2351 130.664 87.3303L130.663 87.3292C130.573 87.3617 130.48 87.3765 130.387 87.3725H130.383L130.382 87.3735V87.3725L120.676 87.0211C120.761 87.2864 120.916 87.7734 121.146 88.4836C121.297 88.9421 121.232 89.5976 121.036 90.3819L121.035 90.3809C120.991 90.5641 120.899 90.7328 120.768 90.8694H120.767C119.835 91.8364 117.977 93.87 115.189 96.9738C114.102 98.183 112.94 99.3242 111.702 100.398L109.059 103.113L109.06 103.114C108.987 103.19 108.898 103.25 108.799 103.289C108.701 103.328 108.596 103.346 108.49 103.342C108.385 103.338 108.28 103.312 108.186 103.266C108.115 103.231 108.05 103.186 107.994 103.132L107.94 103.074L101.999 96.0378C100.404 94.4519 98.8832 92.8171 97.4378 91.1332C96.988 90.6094 96.6652 90.1879 96.4886 89.8797L96.2989 89.5789C96.0995 89.2864 95.8692 89.0172 95.6076 88.7717H95.6065C95.1262 88.3191 94.4749 87.5426 93.657 86.4608L93.6559 86.4597C93.6345 86.4311 93.6061 86.4074 93.5739 86.3911C93.5419 86.3751 93.5059 86.3662 93.4695 86.3658Z" fill="url(#paint3_radial_315_54725)"/>
<path d="M111.058 99.7956L109.154 101.87C109.117 101.911 109.07 101.944 109.018 101.966C108.965 101.988 108.908 102 108.85 102C108.792 101.999 108.735 101.987 108.682 101.964C108.63 101.941 108.583 101.908 108.545 101.867L106.123 99.1981C106.105 99.1799 106.094 99.157 106.091 99.1327C106.088 99.1083 106.093 99.0836 106.105 99.0621C106.118 99.0405 106.137 99.023 106.16 99.0121C106.184 99.0012 106.21 98.9973 106.236 99.001L110.978 99.5954C111.001 99.5985 111.023 99.6074 111.041 99.6211C111.059 99.6348 111.073 99.6528 111.082 99.6733C111.09 99.6938 111.092 99.7159 111.088 99.7374C111.084 99.7589 111.074 99.779 111.058 99.7956Z" fill="#265BAB"/>
<defs>
<linearGradient id="paint0_linear_315_54725" x1="151.09" y1="81.9996" x2="29.0376" y2="81.9996" gradientUnits="userSpaceOnUse">
<stop stop-color="#3E4794"/>
<stop offset="0.480769" stop-color="#1F83C9"/>
<stop offset="1" stop-color="#3A469F"/>
</linearGradient>
<radialGradient id="paint1_radial_315_54725" cx="0" cy="0" r="1" gradientTransform="matrix(18.2346 44.7835 -109.319 44 67.8866 62.1622)" gradientUnits="userSpaceOnUse">
<stop stop-color="#D5D5D5"/>
<stop offset="1" stop-color="#BD465A"/>
</radialGradient>
<radialGradient id="paint2_radial_315_54725" cx="0" cy="0" r="1" gradientUnits="userSpaceOnUse" gradientTransform="translate(108.59 105) rotate(180) scale(25.5 108.477)">
<stop stop-color="#1F83C9"/>
<stop offset="0.316349" stop-color="#374EA4"/>
<stop offset="1" stop-color="#3A469F"/>
</radialGradient>
<radialGradient id="paint3_radial_315_54725" cx="0" cy="0" r="1" gradientTransform="matrix(7.61931 34.0352 -45.6787 33.4397 99.3231 89.9233)" gradientUnits="userSpaceOnUse">
<stop stop-color="#D5D5D5"/>
<stop offset="1" stop-color="#BD465A"/>
</radialGradient>
</defs>
</svg>
