<svg width="181" height="181" viewBox="0 0 181 181" fill="none" xmlns="http://www.w3.org/2000/svg">
<rect width="181" height="181" fill="#E40444"/>
<g clip-path="url(#clip0_322_89596)">
<path d="M84.0103 96.1523C83.0272 107.53 82.2497 117.778 83.7715 126.917C85.1461 135.606 73.3439 128.962 71.8805 120.306C68.8425 101.445 73.3995 74.6721 76.7763 56.6011C79.1256 43.8766 92.8327 57.5391 90.5223 64.5569C88.4978 70.7108 84.4268 90.9694 84.0103 96.1523Z" fill="white"/>
<path d="M104.877 118.663C105.06 127.068 94.4713 118.118 94.4657 109.672C94.4268 100.369 95.6931 86.6712 98.7395 75.5388C102.102 63.1056 112.305 77.6191 111.119 83.8191C110.153 88.8716 104.641 107.489 104.877 118.663Z" fill="white"/>
<path d="M114.165 51.0656C109.674 50.5979 103.998 53.0232 104.168 58.1115C104.312 62.6452 106.167 66.1899 110.708 67.1329C114.345 67.8996 117.928 64.907 118.93 61.3597C120.133 57.1225 118.658 51.5333 114.165 51.0656Z" fill="white"/>
<path d="M36.0329 127.423C21.8899 126.682 22.3758 111.645 26.6079 102.674C32.2063 90.806 44.9081 81.6645 58.2042 77.9894C62.2614 76.8675 65.0384 78.7817 65.1467 82.5896C65.1828 83.8674 64.3386 88.6848 57.7183 91.2123C52.3532 93.2569 46.8187 95.6796 42.1673 99.0633C38.2517 101.905 31.2205 107.292 32.5312 112.662C33.3643 116.038 37.3492 115.826 40.2539 115.527C43.0975 115.235 45.844 114.446 48.5848 113.738C52.202 112.818 55.6974 111.533 59.0068 109.904C61.4144 108.696 63.1584 110.053 63.2306 112.838C63.4472 120.978 43.839 127.812 36.0329 127.423Z" fill="white"/>
<path d="M127.89 113.449C113.747 112.721 114.233 97.6836 118.465 88.7132C124.064 76.8448 136.766 67.7033 150.062 64.0283C154.119 62.9064 156.896 64.8231 157.004 68.6284C157.04 69.9063 156.196 74.7211 149.576 77.2486C144.211 79.2931 138.676 81.7159 134.025 85.0996C130.12 87.9312 123.097 93.3185 124.4 98.6879C125.219 102.064 129.218 101.852 132.122 101.553C134.966 101.261 137.712 100.472 140.453 99.7639C144.071 98.8443 147.566 97.5586 150.875 95.9304C153.283 94.7216 155.041 96.0786 155.099 98.8643C155.305 107.017 135.696 113.853 127.89 113.449Z" fill="white"/>
</g>
<defs>
<clipPath id="clip0_322_89596">
<rect width="133" height="80" fill="white" transform="translate(24 51)"/>
</clipPath>
</defs>
</svg>
