<svg width="181" height="181" viewBox="0 0 181 181" fill="none" xmlns="http://www.w3.org/2000/svg">
<rect width="181" height="181" fill="#262262"/>
<path d="M93.1373 101.622C65.8116 112.817 50.4268 125.35 39 153.022C43.8777 143.734 47.6987 133.086 94.8192 115.311C123.625 103.707 137.248 76.2681 141.343 61.5306C133.517 76.812 121.254 91.0522 93.1373 101.622ZM107.747 70.026C134.528 59.2384 147.192 33.7262 151 20.0222C143.725 34.2339 132.321 47.4717 106.181 57.301C80.7753 67.7079 66.4704 79.3632 55.8444 105.088C60.3837 96.4551 63.936 86.5532 107.747 70.026Z" fill="white"/>
<path d="M148 39.0222C143.879 53.8417 130.169 81.4363 101.18 93.1005C53.7569 110.977 49.9108 121.684 45 131.022C56.4993 103.199 71.9849 90.5954 99.4865 79.337C127.783 68.7081 140.126 54.3906 148 39.0222Z" fill="#EC2030"/>
</svg>
