<svg width="181" height="181" viewBox="0 0 181 181" fill="none" xmlns="http://www.w3.org/2000/svg">
<rect width="181" height="181" fill="#FF6600"/>
<path d="M131.476 94.3333H85.381C83.2857 94.3333 82.3333 95.2857 82.3333 97C82.3333 101.19 84.619 105.19 89.1905 109C93.7619 112.81 98.7143 114.714 104.048 114.714C107.095 114.714 110.714 114.143 114.524 113C118.333 111.857 121.571 110.333 124.048 108.619C126.333 107.095 128.048 106.333 129.381 106.333C131.095 106.333 132.81 107.286 134.333 109.381C136.048 111.476 136.81 113.571 136.81 115.857C136.81 120.619 133.952 125 128.048 129.381C117.762 137.19 105.762 141 92.2381 141C78.5238 141 67.0952 137 57.7619 129C53.1905 125 49.5714 120.429 46.7143 114.905C42.9048 107.476 41 99.8572 41 91.6667C41 80.8095 44.2381 70.9048 50.9048 62.1429C56.619 54.5238 63.8571 49 72.8095 45.1905C79.4762 42.3334 86.7143 41 94.3333 41C106.714 41 117.19 44.4286 125.952 51.4762C130.333 54.9048 133.762 59.0952 136.429 64.0476C139.476 69.5714 141 74.9048 141 80.0476C141 84.2381 140.048 87.6667 138.333 90.5238C136.429 93 134.143 94.3333 131.476 94.3333ZM88.0476 76.0476H97.9524C102.143 76.0476 104.238 74.1429 104.238 70.3334C104.238 66.9048 103.286 63.8572 101.19 61.7619C99.0952 59.4762 96.619 58.5238 93.1905 58.5238C89.5714 58.5238 86.7143 60.0476 84.619 62.9048C82.7143 65.5714 81.7619 68.2381 81.7619 71.0952C81.7619 73 82.1429 74.3333 83.0952 75.2857C84.0476 75.6667 85.5714 76.0476 88.0476 76.0476Z" fill="white"/>
</svg>
