<svg width="181" height="181" viewBox="0 0 181 181" fill="none" xmlns="http://www.w3.org/2000/svg">
<rect width="181" height="181" fill="#253D84"/>
<path d="M52.8568 126.981H52.8157C51.9433 126.776 52.3204 125.333 52.5841 124.81C52.7139 124.553 52.98 124.226 53.3825 123.829C56.4589 120.795 59.6191 118.16 63.1481 115.536C63.5813 115.214 63.9335 114.922 64.2045 114.659C64.2933 114.572 64.3543 114.488 64.3877 114.405C64.3948 114.388 64.3972 114.369 64.3945 114.35C64.3919 114.332 64.3843 114.314 64.3726 114.299C64.3609 114.285 64.3454 114.273 64.3279 114.267C64.3103 114.26 64.2913 114.258 64.2727 114.261C64.0531 114.296 63.8206 114.376 63.5753 114.502C62.9329 114.83 62.3568 115.159 61.8469 115.487C58.4551 117.669 55.0542 120.271 51.9458 122.89C51.5356 123.235 51.2237 123.453 51.0101 123.544C50.3447 123.827 49.3524 123.946 48.6648 123.61C48.2155 123.391 48.4726 122.9 48.7741 122.68C49.9496 121.825 51.2229 120.907 52.5767 120.051C52.9978 119.785 53.465 119.474 53.9781 119.118C60.0438 114.907 65.7703 110.817 72.2073 106.242C72.2143 106.237 72.2191 106.229 72.2206 106.221C72.2221 106.212 72.2203 106.204 72.2155 106.196C68.6826 101.035 66.7916 95.3122 66.5424 89.0267C66.4231 86.0062 66.7749 82.893 67.598 79.6869C67.6008 79.6763 67.6007 79.6652 67.5978 79.6546C67.5949 79.644 67.5893 79.6344 67.5816 79.6267C66.9458 78.9948 66.5298 78.5936 66.3338 78.423C66.0786 78.2006 65.7733 78.098 65.4179 78.115C64.6988 78.1503 64.0211 78.2026 63.3847 78.2719C61.6558 78.4601 59.7662 78.7067 57.7158 79.0116C53.2388 79.6779 48.9819 80.3681 44.7095 81.0186C39.6257 81.7925 34.7966 82.53 30.2221 83.2312C30.0041 83.2642 29.6887 83.2755 29.2757 83.265C28.6711 83.2502 28.2459 82.9923 28 82.4914V82.2611C28.0953 82.0454 28.2703 81.8824 28.5249 81.7724C29.1172 81.5156 29.652 81.3488 30.2196 81.1738C39.2459 78.3966 48.3938 75.6796 57.4907 73.2367C62.4403 71.9075 67.3729 70.6801 72.2886 69.5546C72.3219 69.5472 72.3515 69.5275 72.3716 69.4993C75.457 65.1897 79.3721 61.7578 84.029 59.4065C89.6783 56.5533 96.0808 55.4537 102.357 56.2545C111.816 57.4598 120.289 62.9516 125.323 71.072C127.692 74.8933 129.197 79.1107 129.837 83.724C129.838 83.7305 129.842 83.7364 129.847 83.7404C129.852 83.7444 129.859 83.7462 129.865 83.7455C131.962 83.4978 134.071 83.2389 136.192 82.9686C137.163 82.8448 137.993 83.0215 138.562 83.8619C140.401 86.5803 141.99 88.9979 143.329 91.1146C143.733 91.7525 144.362 92.7889 145.216 94.2238C145.837 95.2668 146.432 96.321 147.003 97.3866C150.153 103.268 152.902 109.279 154.439 115.7C154.578 116.283 154.605 116.956 154.006 117.274C153.335 117.63 152.797 116.801 152.395 116.381C150.147 114.027 147.789 111.556 145.32 108.968C142.785 106.31 139.109 102.798 137.302 101.015C137.233 100.947 136.985 100.684 136.559 100.226C135.674 99.2763 134.557 98.9205 133.294 98.724C131.541 98.4505 129.952 98.2174 128.528 98.0248C128.519 98.0234 128.509 98.0253 128.501 98.0303C128.493 98.0353 128.487 98.043 128.484 98.052C125.205 107.867 117.439 115.506 107.614 118.508C95.8113 122.114 83.2371 118.608 74.8672 109.531C74.8614 109.524 74.8535 109.52 74.845 109.519C74.8364 109.518 74.8277 109.52 74.8204 109.524C69.6903 112.604 64.7861 115.991 60.103 119.803C58.6325 121 57.2711 122.287 56.0186 123.664C54.8625 124.934 54.003 125.915 53.44 126.605C53.2779 126.803 53.0835 126.929 52.8568 126.981ZM78.2278 68.3261C78.2252 68.3289 78.2235 68.3323 78.223 68.3361C78.2224 68.3398 78.2231 68.3436 78.2248 68.347C78.2265 68.3503 78.2292 68.3531 78.2326 68.3548C78.2359 68.3566 78.2397 68.3572 78.2434 68.3567C80.5657 67.9695 82.8708 67.612 85.1109 67.6475C85.6161 67.6558 86.3653 67.7408 86.3809 68.3666C86.3875 68.6341 86.3456 68.9346 86.2552 69.2681C85.9159 70.5222 85.6711 71.4121 85.4838 72.5036C85.3639 73.1993 85.2993 73.7309 85.29 74.0986C85.2251 76.6034 86.6939 78.352 88.741 79.5375C91.8587 81.3422 94.7585 82.8239 97.4403 83.9824C98.2659 84.3383 99.1243 84.6702 100.007 84.7593C100.272 84.7863 100.651 84.7621 101.142 84.6867C103.38 84.3457 105.057 84.027 106.996 83.8768C108.279 83.7772 109.56 83.8102 110.84 83.9758C111.722 84.0906 112.601 84.3589 113.358 84.8493C113.804 85.1383 114.142 85.3752 114.542 85.4165C114.869 85.4501 115.259 85.4542 115.712 85.4289C117.419 85.3331 119.1 85.1652 120.754 84.9253C122.289 84.7018 124.066 84.4495 126.083 84.1682C126.088 84.1674 126.093 84.1646 126.096 84.1606C126.099 84.1566 126.1 84.1516 126.1 84.1467C125.481 79.8157 124.008 75.8926 121.682 72.3773C118.385 67.3957 113.617 63.6178 108.032 61.525C104.485 60.1966 100.579 59.5956 96.8612 59.8177C90.4844 60.198 84.8571 62.4752 79.9792 66.6494C79.3001 67.2311 78.7163 67.79 78.2278 68.3261ZM70.7812 82.6896C69.4053 90.1727 70.9858 97.7292 75.2861 104.003C75.2894 104.008 75.2935 104.012 75.2983 104.015C75.3031 104.018 75.3085 104.02 75.3141 104.021C75.3198 104.022 75.3256 104.022 75.3312 104.021C75.3369 104.02 75.3422 104.018 75.3469 104.014C75.767 103.724 76.1128 103.468 76.3844 103.246C77.5564 102.288 78.2944 101.681 78.5983 101.425C79.124 100.982 79.5685 100.562 79.9315 100.165C81.7963 98.128 81.6501 95.2434 80.2618 92.9821C80.0427 92.6255 79.7303 92.1725 79.3245 91.6232C78.5852 90.6226 77.7642 89.6586 76.8617 88.7312C74.9625 86.7795 72.9482 84.7615 70.819 82.6772C70.8159 82.6744 70.8122 82.6725 70.8081 82.6716C70.8041 82.6707 70.7999 82.6709 70.796 82.6722C70.7921 82.6735 70.7887 82.6757 70.7861 82.6788C70.7835 82.6819 70.7818 82.6856 70.7812 82.6896ZM113.028 85.8582C113.067 86.1856 113.017 86.4696 112.878 86.7102C112.493 87.3772 112.115 87.965 112.806 88.6164C112.992 88.7931 113.008 88.9937 112.772 89.1266C112.18 89.4613 111.18 90.0296 109.772 90.8315C109.068 91.2333 108.547 91.4793 108.211 91.5695C107.137 91.8585 106.098 91.7192 105.095 91.1518C104.612 90.8794 104.268 90.6653 104.061 90.5095C102.517 89.3496 101.906 87.8049 102.478 85.8821C102.538 85.684 102.519 85.5411 102.286 85.5453C101.693 85.556 100.155 85.7756 99.894 86.4022C98.9288 88.7147 97.5183 90.7225 95.9001 92.6428C94.4877 94.3182 93.0364 95.9966 91.5463 97.678C90.5633 98.7859 89.8825 99.6013 89.5041 100.124C89.394 100.277 89.1512 100.59 88.7755 101.064C88.5857 101.302 88.6843 101.654 89.0006 101.655C92.54 101.669 95.9233 100.95 99.1506 99.4992C101.49 98.448 103.665 97.1254 105.676 95.5315C106.384 94.9707 107.021 94.297 107.586 93.5105C107.797 93.2166 108.073 92.7014 108.349 92.3992C108.708 92.0063 109.124 91.6804 109.596 91.4218C110.173 91.1053 110.976 90.6405 112.007 90.0274C112.788 89.5617 113.651 89.3074 114.594 89.2645C116.75 89.166 118.649 89.1057 120.292 89.0837C121.106 89.0727 121.954 89.0837 122.836 89.1167C123.198 89.1299 123.393 89.7632 123.706 90.0414C123.716 90.0508 123.729 90.0574 123.743 90.0607C123.756 90.0639 123.771 90.0637 123.784 90.06C123.798 90.0564 123.811 90.0493 123.821 90.0396C123.831 90.0299 123.839 90.0177 123.844 90.0042C123.899 89.8413 123.932 89.6798 123.942 89.5196C124.01 88.4307 124.135 87.4111 122.674 87.563C121.939 87.64 120.926 87.741 119.636 87.866C117.657 88.0575 115.669 88.1128 113.924 87.0288C113.59 86.8216 113.402 86.2371 113.281 86.0646C113.191 85.9352 113.122 85.8562 113.075 85.8276C113.07 85.8247 113.065 85.8232 113.059 85.8233C113.053 85.8234 113.047 85.8252 113.043 85.8284C113.038 85.8315 113.034 85.836 113.031 85.8413C113.029 85.8465 113.028 85.8524 113.028 85.8582ZM109.127 86.8852C109.789 87.3299 110.508 87.4551 111.285 87.2608C111.521 87.2019 111.682 87.1403 111.767 87.0759C111.79 87.0585 111.809 87.0365 111.823 87.0115C111.889 86.8954 111.882 86.7787 111.802 86.6615C111.723 86.5451 111.558 86.5467 111.418 86.564C111.14 86.5971 110.378 86.6948 109.133 86.8571C109.13 86.8577 109.127 86.8591 109.125 86.8612C109.123 86.8633 109.121 86.866 109.121 86.869C109.12 86.872 109.12 86.8751 109.121 86.878C109.122 86.8809 109.124 86.8834 109.127 86.8852ZM78.2188 107.587C81.3831 110.813 85.0531 113.151 89.2289 114.601C96.6689 117.184 104.927 116.44 111.75 112.685C117.768 109.373 122.292 104.031 124.68 97.5418C124.682 97.5382 124.682 97.5343 124.682 97.5305C124.681 97.5266 124.68 97.5229 124.678 97.5195C124.676 97.5162 124.673 97.5133 124.67 97.5112C124.667 97.509 124.663 97.5077 124.659 97.5071C121.619 97.107 118.694 96.7597 115.883 96.4652C113.749 96.2423 111.826 96.0557 109.84 96.1639C108.773 96.2217 107.732 96.4377 106.719 96.812C106.304 96.965 105.72 97.2677 104.967 97.7201C104.76 97.844 103.702 98.4664 101.795 99.5876C101.177 99.9508 100.612 100.245 100.102 100.469C97.9348 101.425 95.73 102.204 93.4225 102.669C92.8606 102.783 92.3554 102.846 91.9069 102.858C91.7136 102.863 91.1457 102.873 90.2032 102.887C88.5761 102.912 87.0071 103.229 85.4962 103.839C84.8965 104.081 84.2363 104.381 83.5156 104.737C81.7527 105.608 79.9893 106.542 78.2254 107.54C78.2213 107.542 78.2179 107.545 78.2153 107.549C78.2127 107.553 78.211 107.557 78.2104 107.562C78.2097 107.567 78.2102 107.571 78.2116 107.576C78.2131 107.58 78.2155 107.584 78.2188 107.587Z" fill="white"/>
</svg>
