<svg width="181" height="181" viewBox="0 0 181 181" fill="none" xmlns="http://www.w3.org/2000/svg">
<rect width="181" height="181" fill="#702B91"/>
<path d="M159.998 108.955L147.161 92.9397L135.414 102.75L148.252 118.766L159.998 108.955Z" fill="#21B9DA"/>
<path d="M131.685 105.733C131.685 105.733 115.998 120.294 99.8882 120.294C80.8603 120.294 75.4638 106.765 74.5329 104.05C69.0564 88.1259 83.5158 69.3838 93.1325 64.3076C97.0558 62.2315 102.601 60.1497 106.798 62.3798C106.941 62.454 108.603 63.4407 105.987 68.1519C104.308 71.1691 95.7423 82.6618 81.1402 84.9946C76.2918 95.3409 78.656 102.294 80.6205 105.63C91.111 104.866 101.036 100.862 110.179 93.6983L110.39 93.5272C118.442 86.8369 131.325 73.3022 127.145 57.8169C124.81 49.176 117.62 43.0446 107.906 41.4134C95.571 39.3487 77.1941 44.6416 62.8546 65.8533C54.1687 77.4088 40.4575 117.391 78.8845 136.555C113.434 151.635 144.323 121.834 144.323 121.834L131.685 105.733Z" fill="white"/>
<path d="M52 76.1829C46.8051 72.3226 39.4748 65.2054 36.4154 62L23 77.55C30.1894 86.8272 43.2837 95.461 47.87 98C47.8024 89.9866 49.6223 82.3179 52 76.1829Z" fill="white"/>
</svg>
