<svg width="181" height="181" viewBox="0 0 181 181" fill="none" xmlns="http://www.w3.org/2000/svg">
<rect width="181" height="181" fill="#187DB3"/>
<path d="M62.8193 70.7602C61.4393 70.454 60.5074 70.1745 60.0235 69.9215C52.277 65.888 44.7747 61.271 37.5166 56.0705C37.3633 55.96 37.2456 55.8076 37.1778 55.6321C37.1101 55.4566 37.0953 55.2656 37.1352 55.0825C37.1752 54.8994 37.2682 54.7323 37.4028 54.6015C37.5374 54.4708 37.7078 54.3822 37.8929 54.3466C38.6367 54.1957 39.4185 54.2046 40.2384 54.3732C45.4669 55.4604 49.9876 56.2192 53.8004 56.6496C56.4885 56.9557 57.8058 57.8743 58.6458 60.1439C60.2363 64.4703 61.679 67.9447 62.9738 70.5672C62.9846 70.5912 62.9887 70.6179 62.9855 70.6441C62.9823 70.6703 62.972 70.6949 62.9558 70.7151C62.9396 70.7353 62.9182 70.7503 62.894 70.7583C62.8699 70.7662 62.8439 70.7669 62.8193 70.7602Z" fill="#C9CBC9"/>
<path d="M59.4618 91.4735C62.2844 91.8595 65.1518 91.5866 68.064 90.6548C72.7012 89.1727 76.9463 86.8964 80.7993 83.8258C84.9481 80.52 89.9527 76.3822 95.8129 71.4124C102.538 65.7105 109.713 60.9204 117.339 57.0422C117.368 57.0193 117.405 57.0088 117.443 57.0132C117.48 57.0175 117.514 57.0364 117.537 57.0655C117.56 57.0946 117.571 57.1317 117.566 57.1685C117.562 57.2053 117.543 57.2389 117.513 57.2618C100.143 76.5109 91.2228 86.3728 90.7524 86.8476C87.9432 89.6763 83.8841 93.184 79.919 94.4753C74.1931 96.339 67.607 95.5935 62.1298 93.4902C60.9649 93.042 60.0308 92.4541 59.3274 91.7264C59.3068 91.7031 59.2938 91.6742 59.2901 91.6434C59.2865 91.6127 59.2923 91.5816 59.3068 91.5542C59.3214 91.5268 59.344 91.5044 59.3717 91.49C59.3993 91.4756 59.4308 91.4698 59.4618 91.4735Z" fill="#C9CBC9"/>
<path d="M48.6826 65.2153C48.7436 65.2226 48.8012 65.2485 48.8467 65.2896C50.5133 66.7361 52.6884 68.2365 55.3721 69.7896C58.8621 71.8128 61.6242 72.9311 63.6582 73.144C66.1784 73.4036 67.5761 71.7193 69.3906 70.4214L78.3965 82.9614C73.7997 86.4935 68.6333 88.8116 62.8984 89.9165C59.5608 90.5598 56.8414 89.5174 54.7402 86.7886C53.1207 84.6854 51.5481 81.3642 50.876 78.7085C49.9351 74.9856 49.0947 70.6013 48.3555 65.5562C48.345 65.4961 48.3542 65.4343 48.3809 65.3794C48.4076 65.3245 48.4509 65.2788 48.5049 65.2495C48.5589 65.2202 48.6214 65.2081 48.6826 65.2153ZM144.311 46.0005C144.493 46.0049 144.675 46.0384 144.849 46.1001C145.314 46.2642 145.632 46.6324 145.803 47.2046C145.891 47.4995 145.854 47.8194 145.699 48.0942C145.545 48.3689 145.285 48.5779 144.977 48.6763C144.367 48.8715 143.623 49.0267 142.745 49.1421C137.781 49.7811 134.71 50.1978 133.531 50.3931C121.072 52.4697 109.595 57.6239 99.1025 65.855C95.7826 68.4597 90.9007 72.6044 84.458 78.2886C82.5361 79.9835 80.5155 81.5406 78.3965 82.9604L69.3906 70.4214C74.8745 65.6602 80.3208 60.8582 85.7285 56.0171C88.2216 53.7876 90.8157 52.1373 93.6045 51.2388C94.9038 50.8172 97.1443 50.4862 100.325 50.2466C102.901 50.0513 106.88 49.67 112.261 49.1021C120.917 48.188 127.415 47.5906 131.757 47.311C133.553 47.1957 135.633 46.9854 137.994 46.6792C141.515 46.2179 143.62 45.9917 144.311 46.0005Z" fill="url(#paint0_linear_350_217854)"/>
<path d="M69.8578 98.3963C75.8838 99.1329 81.1572 97.5244 85.6778 93.5708C85.724 93.5312 85.7798 93.5043 85.8397 93.4927C85.8997 93.4812 85.9616 93.4853 86.0194 93.5049C86.0772 93.5244 86.1288 93.5586 86.1691 93.604C86.2094 93.6494 86.2369 93.7045 86.2491 93.7638C86.5403 95.2503 86.8517 96.3796 87.1832 97.1517C88.3324 99.8274 90.5636 103.009 92.0152 105.458C97.4364 114.626 101.44 121.322 104.025 125.546C104.038 125.566 104.045 125.59 104.043 125.614C104.042 125.637 104.032 125.66 104.015 125.678C103.999 125.696 103.977 125.707 103.953 125.711C103.929 125.715 103.905 125.711 103.884 125.699C103.606 125.575 103.449 125.499 103.413 125.473C88.9865 114.038 77.7633 105.103 69.7435 98.6692C69.7167 98.6486 69.6975 98.6199 69.6888 98.5874C69.6801 98.555 69.6824 98.5206 69.6954 98.4895C69.7084 98.4585 69.7313 98.4326 69.7607 98.4157C69.79 98.3989 69.8241 98.3921 69.8578 98.3963Z" fill="#143B62"/>
<path d="M95.2928 106.796L95.2995 106.789C95.3279 106.773 95.3616 106.767 95.3948 106.773C95.4279 106.779 95.4584 106.797 95.4809 106.823L117.396 132.808C117.516 132.949 117.602 133.115 117.648 133.294C117.693 133.473 117.698 133.66 117.661 133.84C117.625 134.021 117.547 134.192 117.435 134.339C117.323 134.486 117.179 134.606 117.013 134.691L116.993 134.698C116.599 134.932 116.139 135.035 115.683 134.99C115.226 134.946 114.797 134.757 114.46 134.452L108.122 128.714C107.841 128.458 107.601 128.162 107.41 127.836L95.2457 107.002C95.2273 106.969 95.222 106.93 95.2306 106.892C95.2392 106.854 95.2612 106.82 95.2928 106.796Z" fill="#143B62"/>
<defs>
<linearGradient id="paint0_linear_350_217854" x1="145.85" y1="68.0507" x2="48.3516" y2="68.0507" gradientUnits="userSpaceOnUse">
<stop stop-color="#187DB3"/>
<stop offset="1" stop-color="#143B62"/>
</linearGradient>
</defs>
</svg>
