<svg width="181" height="181" viewBox="0 0 181 181" fill="none" xmlns="http://www.w3.org/2000/svg">
<rect width="181" height="181" fill="#1F4E9C"/>
<path d="M110.003 57.8703L95.7912 67.0077C95.0661 67.4803 94.2938 67.8709 93.4882 68.1726L80.6851 73.1346C80.372 72.3076 79.9629 71.531 79.4579 70.8049C72.3821 60.669 86.6548 52.0308 94.3518 49.2018C107.322 44.4213 117.337 40.2005 127.655 32.349C127.733 32.2946 127.827 32.269 127.922 32.2767C128.017 32.2844 128.106 32.3249 128.174 32.3912C128.243 32.4575 128.286 32.5454 128.296 32.6399C128.306 32.7343 128.283 32.8294 128.231 32.9087L110.003 57.8703Z" fill="white"/>
<path d="M110.004 57.8711L98.746 75.4955L82.0036 97.4616C81.7125 97.8422 81.4873 98.2665 81.3369 98.7172C79.0238 105.676 80.1298 112.176 84.6551 118.218C74.9278 117.602 66.953 114.138 60.7308 107.824C61.0642 107.078 60.7763 106.085 59.8672 104.844L61.6854 97.9608L62.6702 96.9926C62.7005 98.2331 63.5086 98.8635 65.0945 98.8837C69.6248 98.9442 71.5793 95.389 69.5339 91.1531L68.352 86.766C68.9126 81.8644 68.4278 79.4893 73.1248 76.5544C73.8015 76.5242 73.9227 76.6099 73.4884 76.8116C76.3975 77.9714 79.3015 78.3396 82.2005 77.916C82.3006 77.9033 82.3971 77.8704 82.4844 77.8192C82.5716 77.768 82.6478 77.6995 82.7085 77.6178C82.7692 77.536 82.8131 77.4427 82.8378 77.3432C82.8624 77.2438 82.8673 77.1402 82.852 77.0385C82.5793 75.2937 81.7914 74.0684 80.4884 73.3624C80.0743 73.4935 80.1399 73.4178 80.6854 73.1355L93.4884 68.1734C94.294 67.8717 95.0663 67.4811 95.7914 67.0085L110.004 57.8711Z" fill="#6AAB42"/>
<path d="M73.1246 76.5529C68.4276 79.4877 68.9125 81.8629 68.3519 86.7644C63.8519 78.3834 59.2458 70.3201 56.6246 60.8044C56.594 60.6988 56.592 60.587 56.6189 60.4804C56.6458 60.3738 56.7006 60.2763 56.7777 60.1978C56.8548 60.1193 56.9514 60.0626 57.0576 60.0336C57.1638 60.0047 57.2758 60.0044 57.3822 60.0329C57.7155 60.1236 58.0539 60.4212 58.3973 60.9254C58.6801 61.3188 58.9933 61.5659 59.3367 61.6667C61.1246 62.1811 62.5892 62.6248 63.7306 62.998C65.1723 63.475 66.3837 64.4794 67.1246 65.8118L73.1246 76.5529Z" fill="white"/>
<path d="M80.4883 73.3613C81.7913 74.0673 82.5792 75.2927 82.8519 77.0375C82.8672 77.1391 82.8623 77.2427 82.8377 77.3422C82.813 77.4417 82.769 77.535 82.7084 77.6167C82.6477 77.6985 82.5715 77.767 82.4842 77.8182C82.397 77.8694 82.3005 77.9023 82.2004 77.9149C79.3014 78.3385 76.3974 77.9704 73.4883 76.8106L80.4883 73.3613Z" fill="#F0CB3C"/>
<path d="M98.7458 75.4941C96.7761 85.9023 101.609 91.2729 111.049 92.9823C113.625 93.4564 116.508 92.8664 119.7 91.2123C124.044 88.9633 127.377 86.8907 129.7 84.9947C129.753 84.9546 129.817 84.9313 129.884 84.9277C129.95 84.9242 130.016 84.9405 130.073 84.9747C130.13 85.0088 130.175 85.0592 130.204 85.1194C130.232 85.1796 130.241 85.2468 130.231 85.3123C130.109 85.8771 128.978 88.1564 126.837 92.1503C123.216 98.8975 130.003 99.5782 133.185 103.27C133.236 103.332 133.267 103.409 133.273 103.489C133.279 103.57 133.26 103.65 133.219 103.72C133.177 103.789 133.116 103.844 133.042 103.877C132.968 103.91 132.886 103.92 132.806 103.905C124.231 102.12 114.933 101.071 104.912 100.758C96.9428 100.516 89.9731 98.8823 83.6549 97.4754C83.5232 97.4454 83.3854 97.4551 83.2593 97.5034C83.1331 97.5517 83.0241 97.6363 82.9461 97.7465C82.8682 97.8568 82.8248 97.9876 82.8215 98.1225C82.8183 98.2574 82.8552 98.3902 82.9276 98.5041C88.564 107.778 101.428 114.056 111.246 117.308C111.419 117.358 111.568 117.468 111.668 117.618C111.767 117.768 111.809 117.949 111.788 118.127C111.766 118.306 111.681 118.47 111.548 118.592C111.416 118.714 111.244 118.784 111.064 118.791L96.1246 119.895C96.2458 120.127 96.1044 120.047 95.7004 119.653C96.0943 117.868 97.059 116.214 98.5943 114.691C98.6909 114.595 98.7589 114.473 98.7908 114.34C98.8226 114.207 98.817 114.068 98.7747 113.938C98.7324 113.809 98.655 113.693 98.5509 113.604C98.4469 113.515 98.3203 113.457 98.1852 113.436C97.5388 113.345 96.8418 113.501 96.0943 113.905C93.3165 115.428 90.7206 117.157 88.3064 119.094C86.761 118.963 85.5438 118.67 84.6549 118.216C80.1297 112.175 79.0236 105.675 81.3367 98.7159C81.4871 98.2652 81.7124 97.8409 82.0034 97.4603L98.7458 75.4941Z" fill="white"/>
<path d="M61.6852 97.9606L59.8671 104.844L45.8368 89.3829C45.7795 89.3152 45.7426 89.2328 45.7304 89.1451C45.7181 89.0575 45.7309 88.9681 45.7674 88.8874C45.8038 88.8067 45.8624 88.7379 45.9363 88.6891C46.0103 88.6402 46.0966 88.6133 46.1852 88.6113H53.261C53.7586 88.6117 54.2484 88.7283 54.6907 88.9517C55.133 89.1752 55.5153 89.4991 55.8064 89.8972L61.6852 97.9606Z" fill="#F0CB3C"/>
<path d="M69.5338 91.1523C71.5793 95.3882 69.6247 98.9434 65.0944 98.8829C63.5086 98.8627 62.7005 98.2323 62.6702 96.9918C64.5187 94.6823 66.8065 92.7358 69.5338 91.1523Z" fill="white"/>
<path d="M60.7308 107.824C66.953 114.138 74.9277 117.602 84.655 118.217C85.5439 118.671 86.7611 118.964 88.3065 119.095C90.7106 119.962 93.1752 120.149 95.7005 119.654C96.1045 120.048 96.2459 120.128 96.1247 119.897C96.1853 127.672 103.7 127.975 109.14 129.337C109.323 129.385 109.485 129.496 109.598 129.65C109.71 129.805 109.765 129.992 109.755 130.181C109.744 130.369 109.667 130.547 109.538 130.683C109.41 130.819 109.236 130.904 109.049 130.925C99.1904 132.196 90.4883 130.274 82.9429 125.161C82.8322 125.086 82.7028 125.043 82.569 125.036C82.4352 125.03 82.3022 125.06 82.1847 125.124C82.0671 125.188 81.9696 125.284 81.9029 125.4C81.8362 125.516 81.8028 125.648 81.8065 125.781C82.0944 134.707 87.1853 140.607 93.6399 148.232C93.6697 148.265 93.6947 148.303 93.7133 148.342C93.7318 148.381 93.7436 148.421 93.7478 148.459C93.7521 148.497 93.7487 148.533 93.738 148.564C93.7272 148.595 93.7093 148.621 93.6853 148.64C93.655 148.67 93.6197 148.691 93.5793 148.701C93.5378 148.719 93.4944 148.727 93.4542 148.724C93.414 148.722 93.3785 148.708 93.352 148.685C83.9277 141.01 73.6197 132.861 62.4277 124.238C61.2459 123.331 59.8368 121.344 58.2005 118.278C56.049 114.254 56.8924 110.769 60.7308 107.824Z" fill="#F0CB3C"/>
<path d="M95.7003 119.655C93.1751 120.149 90.7104 119.962 88.3064 119.095C90.7205 117.159 93.3165 115.429 96.0943 113.906C96.8417 113.503 97.5387 113.346 98.1852 113.437C98.3203 113.459 98.4469 113.517 98.5509 113.606C98.6549 113.694 98.7324 113.81 98.7747 113.94C98.817 114.07 98.8226 114.209 98.7907 114.342C98.7589 114.475 98.6909 114.596 98.5943 114.693C97.0589 116.216 96.0943 117.87 95.7003 119.655Z" fill="#6AAB42"/>
</svg>
