<svg width="181" height="181" viewBox="0 0 181 181" fill="none" xmlns="http://www.w3.org/2000/svg">
<rect width="181" height="181" fill="#006E44"/>
<g clip-path="url(#clip0_340_154034)">
<path d="M38.9301 87.1225V65L34.0003 66.014C31.0492 66.5656 28.9328 69.176 29.0016 72.179V94.3219L33.9274 93.3078C36.8793 92.7563 38.997 90.1466 38.9301 87.1429M99.461 70.3125C98.1032 72.1036 95.9824 73.1513 93.7356 73.1406H76.3379V94.3219H66.4056V73.1243H42.1802V65H103.232L99.461 70.3125ZM136.941 91.4938L118.526 66.2523L98.0114 94.3216H86.0521L105.404 67.8482C106.775 66.0711 108.89 65.0275 111.133 65.0201H129.545L151 94.3219H142.667C140.423 94.3175 138.309 93.2732 136.941 91.4938ZM139.986 107.524L137.81 106.583C137.156 106.292 136.506 105.775 136.506 104.967C136.506 103.731 137.446 103.299 138.524 103.299C139.974 103.299 141.351 104.167 142.437 105.185V102.499C141.385 101.603 140.047 101.114 138.666 101.121C136.13 101.121 134.027 102.426 134.027 105.185C134.027 107.068 135.189 108.086 136.784 108.821L139.175 109.912C139.982 110.272 140.697 110.72 140.697 111.649C140.697 113.031 139.465 113.463 138.234 113.463C136.566 113.463 135.335 112.813 133.885 111.581V114.263C135.109 115.21 136.614 115.721 138.161 115.713C140.842 115.713 143.164 114.045 143.164 111.435C143.164 109.33 141.714 108.244 139.974 107.516M119.964 101.351H117.085L122.305 109.112V115.495H124.914V109.112L130.207 101.351H127.235L123.682 106.72L119.964 101.351ZM103.725 115.491L105.178 112.372H111.194L112.571 115.491H115.325L108.162 100.757L100.983 115.483L103.725 115.491ZM108.166 105.989L110.265 110.34H106.131L108.166 105.989ZM90.2594 100.911L86.4883 110.049L83.0121 101.347H80.2543L86.2016 116L90.1867 106.571L94.0304 116L100.046 101.347H97.3654L93.8851 110.049L90.2594 100.911ZM73.007 105.698C73.007 107.314 71.8483 107.876 70.3947 107.876H68.9452V103.444H70.3947C71.9169 103.444 73.007 104.167 73.007 105.69M75.7604 105.69C75.7604 102.789 73.2976 101.339 70.6125 101.339H66.4053V115.479H68.9409V109.973H70.2491L74.3068 115.483H77.2786L72.93 109.536C74.6246 109.029 75.778 107.46 75.7564 105.69M59.2269 101.339H56.5459V115.479H59.2269V101.339ZM39.5114 115.479L40.9609 112.36H46.9768L48.3536 115.479H51.18L43.9123 100.754L36.7377 115.479H39.5114ZM43.9327 105.977L46.0242 110.332H41.9016L43.9327 105.977Z" fill="white"/>
<path d="M108.088 86.1772L102.145 94.3216H114.108L122.11 83.3693H113.813C111.571 83.3777 109.458 84.4212 108.087 86.1973" fill="#C2251B"/>
</g>
<defs>
<clipPath id="clip0_340_154034">
<rect width="122" height="51" fill="white" transform="translate(29 65)"/>
</clipPath>
</defs>
</svg>
