<svg width="181" height="181" viewBox="0 0 181 181" fill="none" xmlns="http://www.w3.org/2000/svg">
<rect width="181" height="181" fill="#0F4575"/>
<path d="M153.851 123.699C153.701 113.138 144.101 102.303 135.679 97.4338C125.227 91.4061 114.37 86.9351 103.107 84.0209C87.2289 79.9236 76.9147 78.1676 65.5729 70.6579C59.3318 66.5232 52.5392 58.864 52.1883 51.2297C52.1843 51.1831 52.1959 51.1364 52.2214 51.0971C52.247 51.0577 52.2849 51.0278 52.3293 51.0122C52.3737 50.9965 52.4221 50.9959 52.4669 51.0105C52.5116 51.0251 52.5503 51.054 52.5768 51.0927C58.7929 59.8478 69.4955 64.9166 78.97 67.8806C95.2496 72.9494 107.87 76.4116 119.976 81.2686C135.729 87.5952 152.41 99.3891 154.791 116.762C155.175 119.552 155.029 121.889 154.353 123.774C154.331 123.831 154.29 123.88 154.236 123.912C154.182 123.943 154.12 123.956 154.059 123.947C153.999 123.938 153.945 123.908 153.907 123.863C153.869 123.817 153.849 123.759 153.851 123.699Z" fill="url(#paint0_linear_575_4753)"/>
<path d="M152.516 128.978C151.948 126.728 151.61 125.421 151.501 125.055C148.494 114.706 137.59 111.593 127.878 110.584C103.941 108.118 91.7342 107.346 74.5523 103.386C67.0453 101.655 60.1149 99.911 53.7359 95.5895C40.4265 86.5853 31.6162 71.0553 27.0043 55.8241C26.9954 55.7835 27.0004 55.7412 27.0184 55.7038C27.0365 55.6663 27.0666 55.6359 27.1039 55.6174C27.1413 55.5988 27.1838 55.5931 27.2248 55.6013C27.2657 55.6094 27.3028 55.6308 27.3301 55.6622C38.1456 71.2296 57.4079 81.2799 75.2541 86.5106C77.1757 87.0752 83.2289 88.4285 93.4135 90.5706C105.486 93.1029 117.171 96.5235 128.467 100.833C140.185 105.304 153.745 115.229 152.98 128.941C152.973 128.995 152.947 129.044 152.908 129.081C152.869 129.118 152.818 129.141 152.763 129.145C152.709 129.15 152.655 129.135 152.61 129.105C152.565 129.075 152.532 129.03 152.516 128.978Z" fill="url(#paint1_linear_575_4753)"/>
<path d="M75.2443 111.333C81.0927 113.591 87.0999 115.044 93.2659 115.692C101.688 116.572 112.996 117.435 127.191 118.282C135.475 118.768 148.972 121.234 150.84 130.3C150.856 130.365 150.85 130.433 150.823 130.494C150.796 130.554 150.749 130.605 150.69 130.636C150.631 130.667 150.563 130.678 150.497 130.667C150.431 130.656 150.371 130.623 150.326 130.574C148.17 128.391 146.169 127.033 144.323 126.502C135.425 123.949 127.63 125.207 114.396 125.717C99.2731 126.29 86.1349 121.632 74.9811 111.744C74.9402 111.704 74.9143 111.651 74.9079 111.595C74.9014 111.538 74.9146 111.481 74.9454 111.433C74.9762 111.385 75.0227 111.348 75.0771 111.33C75.1315 111.312 75.1905 111.313 75.2443 111.333Z" fill="url(#paint2_linear_575_4753)"/>
<defs>
<linearGradient id="paint0_linear_575_4753" x1="52.1875" y1="87.4748" x2="155" y2="87.4748" gradientUnits="userSpaceOnUse">
<stop stop-color="#222369"/>
<stop offset="0.692308" stop-color="#006CA8"/>
<stop offset="1" stop-color="#21286B"/>
</linearGradient>
<linearGradient id="paint1_linear_575_4753" x1="33.5208" y1="68.5028" x2="154.151" y2="129.513" gradientUnits="userSpaceOnUse">
<stop stop-color="#A01217"/>
<stop offset="0.926558" stop-color="#F7AB90"/>
<stop offset="1" stop-color="#9F1217"/>
</linearGradient>
<linearGradient id="paint2_linear_575_4753" x1="74.9063" y1="120.994" x2="150.849" y2="120.994" gradientUnits="userSpaceOnUse">
<stop stop-color="#222369"/>
<stop offset="0.692308" stop-color="#006CA8"/>
<stop offset="1" stop-color="#21286B"/>
</linearGradient>
</defs>
</svg>
