<svg width="181" height="181" viewBox="0 0 181 181" fill="none" xmlns="http://www.w3.org/2000/svg">
<rect width="181" height="181" fill="white"/>
<path d="M104.685 105.239C99.173 84.7159 81.9317 82.8271 74 84.4481L74.6393 86.351C83.7311 86.351 90.6251 85.7872 94.8118 105.239C98.3917 121.872 106.248 122.436 120.383 123L166.694 122.436C167.887 118.207 165.416 116.608 162.29 116.657C163.782 116.633 160.6 116.601 135.938 116.657C111.277 116.713 107.96 117.432 104.685 105.239Z" fill="#F9FB14"/>
<path d="M52.8852 59H15L16.8411 62.1276C28.7378 62.1276 32.2254 59.9952 38.5809 84.9451C45.733 113.023 63.814 115.463 72.1464 114.942L163 114.444C162.15 107.279 156.178 105.583 153.299 105.63H110.173C99.4096 105.63 86.8756 108.331 79.2986 93.7593C66.9462 70.0037 70.022 61.0614 52.8852 59Z" fill="#2EC42D"/>
</svg>
