<svg width="181" height="181" viewBox="0 0 181 181" fill="none" xmlns="http://www.w3.org/2000/svg">
<g clip-path="url(#clip0_362_242262)">
<rect width="181" height="181" fill="white"/>
<mask id="mask0_362_242262" style="mask-type:luminance" maskUnits="userSpaceOnUse" x="-147" y="-53" width="384" height="311">
<path d="M173.225 -52.4307L-146.129 43.4062L-83.2673 257.922L236.086 162.085L173.225 -52.4307Z" fill="white"/>
</mask>
<g mask="url(#mask0_362_242262)">
<mask id="mask1_362_242262" style="mask-type:luminance" maskUnits="userSpaceOnUse" x="-32" y="-152" width="226" height="182">
<path d="M156.696 -151.878L-31.1289 -95.5127L5.36734 29.0308L193.192 -27.3347L156.696 -151.878Z" fill="white"/>
</mask>
<g mask="url(#mask1_362_242262)">
<path d="M2.63672 0.792486L5.13652 -9.62402L12.783 -2.23326L2.63672 0.792486Z" fill="#D7D8DC"/>
<path d="M-2.41565 2.3298L-5.0625 -6.59863L2.63298 0.79213L-2.41565 2.3298Z" fill="#D7D8DC"/>
<path d="M5.13278 -9.62402L2.63298 0.792486L-5.0625 -6.59828L5.13278 -9.62402Z" fill="#D7D8DC"/>
</g>
<mask id="mask2_362_242262" style="mask-type:luminance" maskUnits="userSpaceOnUse" x="-32" y="-152" width="226" height="182">
<path d="M156.696 -151.878L-31.1289 -95.5127L5.36734 29.0308L193.192 -27.3347L156.696 -151.878Z" fill="white"/>
</mask>
<g mask="url(#mask2_362_242262)">
<path d="M-2.41797 2.33064L0.179868 11.2095L2.63066 0.792969L-2.41797 2.33064Z" fill="white"/>
<path d="M33.1228 -8.33496L30.623 2.08155L22.9766 -5.30921L33.1228 -8.33496Z" fill="#D7D8DC"/>
<path d="M22.9726 -5.30957L20.4728 5.10694L12.7773 -2.23422L22.9726 -5.30957Z" fill="#AEADB3"/>
<path d="M12.783 -2.23535L10.3322 8.18116L2.63672 0.7904L12.783 -2.23535Z" fill="#C3C3C9"/>
<path d="M0.175781 11.2095L2.62657 0.792969L10.322 8.18373L0.175781 11.2095Z" fill="#F7F7F8"/>
<path d="M10.332 8.18116L12.7828 -2.23535L20.4783 5.10581L10.332 8.18116Z" fill="#D7D8DC"/>
<path d="M20.4766 5.10694L22.9764 -5.30957L30.6228 2.08119L20.4766 5.10694Z" fill="#C3C3C9"/>
<path d="M30.6172 2.08155L33.117 -8.33496L40.7634 -0.944199L30.6172 2.08155Z" fill="#F7F7F8"/>
</g>
<mask id="mask3_362_242262" style="mask-type:luminance" maskUnits="userSpaceOnUse" x="-32" y="-152" width="226" height="182">
<path d="M156.696 -151.878L-31.1289 -95.5127L5.36734 29.0308L193.192 -27.3347L156.696 -151.878Z" fill="white"/>
</mask>
<g mask="url(#mask3_362_242262)">
<path d="M7.87109 18.5991L10.3219 8.18262L18.0174 15.5238L7.87109 18.5991Z" fill="#D7D8DC"/>
<path d="M18.0156 15.523L20.4664 5.10645L28.1619 12.4972L18.0156 15.523Z" fill="#D7D8DC"/>
<path d="M28.1602 12.4985L30.6109 2.08203L38.3064 9.47279L28.1602 12.4985Z" fill="#C3C3C9"/>
<path d="M38.3164 9.47217L40.7672 -0.944336L48.4627 6.39682L38.3164 9.47217Z" fill="#F7F7F8"/>
<path d="M48.457 6.39503L50.9568 -4.02148L58.6033 3.36928L48.457 6.39503Z" fill="#D7D8DC"/>
<path d="M58.6016 3.36963L61.1014 -7.04688L68.7478 0.294286L58.6016 3.36963Z" fill="#C3C3C9"/>
<path d="M68.7461 0.294439L71.2459 -10.1221L78.9414 -2.73131L68.7461 0.294439Z" fill="#C3C3C9"/>
<path d="M2.77361 20.1355L0.175781 11.207L7.87125 18.5978L2.77361 20.1355Z" fill="#F7F7F8"/>
<path d="M10.322 8.18262L7.87125 18.5991L0.175781 11.2084L10.322 8.18262Z" fill="#C3C3C9"/>
<path d="M71.2478 -10.1221L68.748 0.294439L61.1016 -7.04672L71.2478 -10.1221Z" fill="#F7F7F8"/>
<path d="M61.1072 -7.04688L58.6074 3.36963L50.9609 -4.02113L61.1072 -7.04688Z" fill="#EDEEF0"/>
<path d="M50.957 -4.02148L48.4572 6.39503L40.7617 -0.946131L50.957 -4.02148Z" fill="#EDEEF0"/>
<path d="M40.7634 -0.944336L38.3127 9.47217L30.6172 2.08141L40.7634 -0.944336Z" fill="#D7D8DC"/>
<path d="M30.6111 2.08203L28.1603 12.4985L20.4648 5.10778L30.6111 2.08203Z" fill="#AEADB3"/>
<path d="M20.4666 5.10645L18.0158 15.523L10.3203 8.18179L20.4666 5.10645Z" fill="#C3C3C9"/>
</g>
<mask id="mask4_362_242262" style="mask-type:luminance" maskUnits="userSpaceOnUse" x="-32" y="-152" width="226" height="182">
<path d="M156.696 -151.878L-31.1289 -95.5127L5.36734 29.0308L193.192 -27.3347L156.696 -151.878Z" fill="white"/>
</mask>
<g mask="url(#mask4_362_242262)">
<path d="M5.375 29.0181L7.8748 18.6016L15.5213 25.9923L5.375 29.0181Z" fill="#EDEEF0"/>
<path d="M15.5273 25.9905L18.0271 15.5244L25.7226 22.9152L15.5273 25.9905Z" fill="#D7D8DC"/>
<path d="M25.7266 22.9155L28.1774 12.499L35.8728 19.8898L25.7266 22.9155Z" fill="#F7F7F8"/>
<path d="M35.8672 19.8901L38.318 9.47363L46.0134 16.8148L35.8672 19.8901Z" fill="#F7F7F8"/>
<path d="M46.0117 16.8159L48.4625 6.39941L56.158 13.7902L46.0117 16.8159Z" fill="#D7D8DC"/>
<path d="M56.1562 13.7896L58.607 3.37305L66.3025 10.7142L56.1562 13.7896Z" fill="#C3C3C9"/>
<path d="M66.3086 10.7153L68.7594 0.298828L76.4549 7.68959L66.3086 10.7153Z" fill="white"/>
<path d="M76.4531 7.68897L78.9529 -2.72754L86.5994 4.66322L76.4531 7.68897Z" fill="#EDEEF0"/>
<path d="M86.5977 4.66163L89.0975 -5.75488L96.7439 1.58628L86.5977 4.66163Z" fill="#D7D8DC"/>
<path d="M2.78125 20.1392L5.37909 29.0181L7.87889 18.6016L2.78125 20.1392Z" fill="#D7D8DC"/>
<path d="M96.7422 1.58643L99.242 -8.83008L106.937 -1.43932L96.7422 1.58643Z" fill="#C3C3C9"/>
<path d="M99.24 -8.83008L96.7402 1.58643L89.0938 -5.75473L99.24 -8.83008Z" fill="#F7F7F8"/>
<path d="M89.0994 -5.75488L86.5996 4.66163L78.9531 -2.72914L89.0994 -5.75488Z" fill="#F7F7F8"/>
<path d="M78.9531 -2.72754L76.4533 7.68897L68.7578 0.298212L78.9531 -2.72754Z" fill="#F7F7F8"/>
<path d="M68.7595 0.298828L66.3088 10.7153L58.6133 3.37418L68.7595 0.298828Z" fill="#D7D8DC"/>
<path d="M58.6033 3.37305L56.1525 13.7896L48.457 6.39879L58.6033 3.37305Z" fill="#EDEEF0"/>
<path d="M48.4627 6.39941L46.0119 16.8159L38.3164 9.47477L48.4627 6.39941Z" fill="#EDEEF0"/>
<path d="M38.3181 9.47363L35.8673 19.8901L28.1719 12.4994L38.3181 9.47363Z" fill="#D7D8DC"/>
<path d="M28.1736 12.499L25.7228 22.9155L18.0273 15.5248L28.1736 12.499Z" fill="#AEADB3"/>
<path d="M18.0174 15.5244L15.5176 25.9905L7.87109 18.5998L18.0174 15.5244Z" fill="#D7D8DC"/>
</g>
</g>
<mask id="mask5_362_242262" style="mask-type:luminance" maskUnits="userSpaceOnUse" x="-147" y="-53" width="384" height="311">
<path d="M173.225 -52.4307L-146.129 43.4062L-83.2673 257.922L236.086 162.085L173.225 -52.4307Z" fill="white"/>
</mask>
<g mask="url(#mask5_362_242262)">
<mask id="mask6_362_242262" style="mask-type:luminance" maskUnits="userSpaceOnUse" x="5" y="-28" width="225" height="182">
<path d="M193.207 -27.3382L5.38281 29.0273L41.8791 153.571L229.704 97.2053L193.207 -27.3382Z" fill="white"/>
</mask>
<g mask="url(#mask6_362_242262)">
<path d="M13.0703 36.4077L15.5211 25.9912L23.2166 33.3324L13.0703 36.4077Z" fill="#EDEEF0"/>
<path d="M23.2148 33.3335L25.7146 22.917L33.3611 30.3078L23.2148 33.3335Z" fill="#D7D8DC"/>
<path d="M33.3594 30.3071L35.8592 19.8906L43.5056 27.2318L33.3594 30.3071Z" fill="#D7D8DC"/>
<path d="M43.5117 27.2329L46.0115 16.8164L53.707 24.2072L43.5117 27.2329Z" fill="#F7F7F8"/>
<path d="M53.707 24.2046L56.1578 13.7881L63.8533 21.1788L53.707 24.2046Z" fill="#D7D8DC"/>
<path d="M63.8516 21.179L66.3024 10.7129L73.9978 18.1036L63.8516 21.179Z" fill="#C3C3C9"/>
<path d="M73.9961 18.104L76.4469 7.6875L84.1424 15.0783L73.9961 18.104Z" fill="white"/>
<path d="M84.1367 15.0786L86.5875 4.66211L94.283 12.0033L84.1367 15.0786Z" fill="#C3C3C9"/>
<path d="M94.293 12.0034L96.7438 1.58691L104.439 8.97768L94.293 12.0034Z" fill="#D7D8DC"/>
<path d="M7.97283 37.8954L5.375 29.0166L13.0705 36.4074L7.97283 37.8954Z" fill="#F7F7F8"/>
<path d="M104.438 8.97803L106.937 -1.43848L114.584 5.90268L104.438 8.97803Z" fill="#F7F7F8"/>
<path d="M114.582 5.90284L117.082 -4.51367L124.728 2.87709L114.582 5.90284Z" fill="#C3C3C9"/>
<path d="M124.727 2.87452L127.226 -7.54199L134.922 -0.15123L124.727 2.87452Z" fill="#F7F7F8"/>
<path d="M15.5213 25.9912L13.0705 36.4077L5.375 29.017L15.5213 25.9912Z" fill="#D7D8DC"/>
<path d="M127.224 -7.54199L124.725 2.87452L117.078 -4.51624L127.224 -7.54199Z" fill="#F7F7F8"/>
<path d="M117.084 -4.51367L114.584 5.90284L106.938 -1.43832L117.084 -4.51367Z" fill="#D7D8DC"/>
<path d="M106.937 -1.43848L104.438 8.97803L96.7422 1.58727L106.937 -1.43848Z" fill="white"/>
<path d="M96.7439 1.58691L94.2931 12.0034L86.5977 4.66226L96.7439 1.58691Z" fill="#F7F7F8"/>
<path d="M86.5877 4.66211L84.1369 15.0786L76.4414 7.68786L86.5877 4.66211Z" fill="#F7F7F8"/>
<path d="M76.4431 7.6875L73.9923 18.104L66.2969 10.7133L76.4431 7.6875Z" fill="#F7F7F8"/>
<path d="M66.3025 10.7129L63.8517 21.179L56.1562 13.7882L66.3025 10.7129Z" fill="#EDEEF0"/>
<path d="M56.158 13.7881L53.7072 24.2046L46.0117 16.8138L56.158 13.7881Z" fill="#EDEEF0"/>
<path d="M46.0017 16.8164L43.5019 27.2329L35.8555 19.8918L46.0017 16.8164Z" fill="#D7D8DC"/>
<path d="M35.8572 19.8906L33.3574 30.3071L25.7109 22.9164L35.8572 19.8906Z" fill="#F7F7F8"/>
<path d="M25.7148 22.917L23.215 33.3335L15.5195 25.9923L25.7148 22.917Z" fill="#D7D8DC"/>
</g>
<mask id="mask7_362_242262" style="mask-type:luminance" maskUnits="userSpaceOnUse" x="5" y="-28" width="225" height="182">
<path d="M193.207 -27.3382L5.38281 29.0273L41.8791 153.571L229.704 97.2053L193.207 -27.3382Z" fill="white"/>
</mask>
<g mask="url(#mask7_362_242262)">
<path d="M10.6211 46.8247L13.0719 36.4082L20.7674 43.7494L10.6211 46.8247Z" fill="#EDEEF0"/>
<path d="M20.7656 43.7476L23.2164 33.3311L30.9119 40.7218L20.7656 43.7476Z" fill="#D7D8DC"/>
<path d="M30.918 40.7222L33.3688 30.3057L41.0642 37.6468L30.918 40.7222Z" fill="#F7F7F8"/>
<path d="M41.0625 37.647L43.5133 27.2305L51.2088 34.6212L41.0625 37.647Z" fill="#F7F7F8"/>
<path d="M51.207 34.6206L53.7068 24.2041L61.3533 31.5949L51.207 34.6206Z" fill="#D7D8DC"/>
<path d="M61.3516 31.5962L63.8514 21.1797L71.4978 28.5208L61.3516 31.5962Z" fill="#C3C3C9"/>
<path d="M71.5078 28.521L74.0076 18.1045L81.7031 25.4953L71.5078 28.521Z" fill="white"/>
<path d="M81.7031 25.4956L84.1539 15.0791L91.8494 22.4203L81.7031 25.4956Z" fill="#EDEEF0"/>
<path d="M91.8477 22.4185L94.2984 12.002L101.994 19.3927L91.8477 22.4185Z" fill="#D7D8DC"/>
<path d="M7.97656 37.8963L10.6234 46.8247L13.0742 36.4082L7.97656 37.8963Z" fill="#D7D8DC"/>
<path d="M101.988 19.3921L104.439 8.97559L112.135 16.3663L101.988 19.3921Z" fill="#C3C3C9"/>
<path d="M112.133 16.3675L114.584 5.90137L122.279 13.2921L112.133 16.3675Z" fill="#C3C3C9"/>
<path d="M122.277 13.2925L124.728 2.87598L132.424 10.2667L122.277 13.2925Z" fill="#F7F7F8"/>
<path d="M132.43 10.2671L134.929 -0.149414L142.576 7.19174L132.43 10.2671Z" fill="#F7F7F8"/>
<path d="M142.574 7.1919L145.074 -3.22461L152.72 4.16615L142.574 7.1919Z" fill="#D7D8DC"/>
<path d="M152.719 4.16651L155.219 -6.25L162.914 1.09116L152.719 4.16651Z" fill="#EDEEF0"/>
<path d="M162.914 1.08936L165.365 -9.32715L173.06 -1.93639L162.914 1.08936Z" fill="#D7D8DC"/>
<path d="M165.365 -9.32715L162.914 1.08936L155.219 -6.2518L165.365 -9.32715Z" fill="#C3C3C9"/>
<path d="M155.22 -6.25L152.721 4.16651L145.074 -3.22425L155.22 -6.25Z" fill="#F7F7F8"/>
<path d="M145.08 -3.22461L142.58 7.1919L134.934 -0.149256L145.08 -3.22461Z" fill="#C3C3C9"/>
<path d="M134.93 -0.149414L132.43 10.2671L124.734 2.87633L134.93 -0.149414Z" fill="#D7D8DC"/>
<path d="M124.736 2.87598L122.285 13.2925L114.59 5.90172L124.736 2.87598Z" fill="#D7D8DC"/>
<path d="M114.584 5.90137L112.133 16.3675L104.438 8.97672L114.584 5.90137Z" fill="#D7D8DC"/>
<path d="M104.439 8.97559L101.988 19.3921L94.293 12.0013L104.439 8.97559Z" fill="#F7F7F8"/>
<path d="M94.2947 12.002L91.8439 22.4185L84.1484 15.0773L94.2947 12.002Z" fill="#F7F7F8"/>
<path d="M84.1502 15.0791L81.6994 25.4956L74.0039 18.1048L84.1502 15.0791Z" fill="#F7F7F8"/>
<path d="M73.9978 18.1045L71.498 28.521L63.8516 21.1798L73.9978 18.1045Z" fill="#D7D8DC"/>
<path d="M63.8533 21.1797L61.3535 31.5962L53.707 24.2054L63.8533 21.1797Z" fill="#EDEEF0"/>
<path d="M53.707 24.2041L51.2072 34.6206L43.5117 27.2298L53.707 24.2041Z" fill="#C3C3C9"/>
<path d="M43.5134 27.2305L41.0627 37.647L33.3672 30.3058L43.5134 27.2305Z" fill="#D7D8DC"/>
<path d="M33.3689 30.3057L30.9181 40.7222L23.2227 33.3314L33.3689 30.3057Z" fill="#AEADB3"/>
<path d="M23.2166 33.3311L20.7658 43.7476L13.0703 36.4064L23.2166 33.3311Z" fill="white"/>
</g>
<mask id="mask8_362_242262" style="mask-type:luminance" maskUnits="userSpaceOnUse" x="5" y="-28" width="225" height="182">
<path d="M193.207 -27.3382L5.38281 29.0273L41.8791 153.571L229.704 97.2053L193.207 -27.3382Z" fill="white"/>
</mask>
<g mask="url(#mask8_362_242262)">
<path d="M18.2656 54.1646L20.7654 43.748L28.4609 51.1388L18.2656 54.1646Z" fill="#D7D8DC"/>
<path d="M28.4648 51.1382L30.9156 40.7217L38.6111 48.1124L28.4648 51.1382Z" fill="#D7D8DC"/>
<path d="M38.6055 48.1136L41.0563 37.6475L48.7517 45.0382L38.6055 48.1136Z" fill="#C3C3C9"/>
<path d="M48.7578 45.0386L51.2086 34.6221L58.9041 42.0128L48.7578 45.0386Z" fill="#F7F7F8"/>
<path d="M58.9023 42.0103L61.3531 31.5938L69.0486 38.9349L58.9023 42.0103Z" fill="#D7D8DC"/>
<path d="M69.0469 38.936L71.4977 28.5195L79.1931 35.9103L69.0469 38.936Z" fill="#C3C3C9"/>
<path d="M79.1914 35.9097L81.6912 25.4932L89.3377 32.8343L79.1914 35.9097Z" fill="#D7D8DC"/>
<path d="M89.3477 32.8355L91.8475 22.4189L99.4939 29.8097L89.3477 32.8355Z" fill="white"/>
<path d="M99.4922 29.8101L101.992 19.3936L109.687 26.7843L99.4922 29.8101Z" fill="#D7D8DC"/>
<path d="M13.2189 55.7011L10.6211 46.8223L18.2676 54.1634L13.2189 55.7011Z" fill="#F7F7F8"/>
<path d="M109.688 26.7847L112.138 16.3682L119.834 23.7093L109.688 26.7847Z" fill="#F7F7F8"/>
<path d="M119.832 23.7095L122.283 13.293L129.978 20.6837L119.832 23.7095Z" fill="#C3C3C9"/>
<path d="M129.973 20.6812L132.423 10.2646L140.119 17.6058L129.973 20.6812Z" fill="#F7F7F8"/>
<path d="M140.117 17.6069L142.568 7.19043L150.263 14.5812L140.117 17.6069Z" fill="#F7F7F8"/>
<path d="M150.27 14.5815L152.72 4.16504L160.416 11.5558L150.27 14.5815Z" fill="#D7D8DC"/>
<path d="M160.414 11.556L162.914 1.08984L170.56 8.48061L160.414 11.556Z" fill="#EDEEF0"/>
<path d="M170.559 8.48096L173.058 -1.93555L180.705 5.45521L170.559 8.48096Z" fill="#D7D8DC"/>
<path d="M180.703 5.45557L183.203 -4.96094L190.898 2.38022L180.703 5.45557Z" fill="#F7F7F8"/>
<path d="M20.7674 43.748L18.2676 54.1646L10.6211 46.8234L20.7674 43.748Z" fill="#C3C3C9"/>
<path d="M183.205 -4.96094L180.705 5.45557L173.059 -1.93519L183.205 -4.96094Z" fill="#C3C3C9"/>
<path d="M173.06 -1.93555L170.561 8.48096L162.914 1.0902L173.06 -1.93555Z" fill="#F7F7F8"/>
<path d="M162.914 1.08984L160.414 11.556L152.719 4.16519L162.914 1.08984Z" fill="#D7D8DC"/>
<path d="M152.72 4.16504L150.27 14.5815L142.574 7.19079L152.72 4.16504Z" fill="#C3C3C9"/>
<path d="M142.576 7.19043L140.125 17.6069L132.43 10.2658L142.576 7.19043Z" fill="#D7D8DC"/>
<path d="M132.424 10.2646L129.973 20.6812L122.277 13.2904L132.424 10.2646Z" fill="#C3C3C9"/>
<path d="M122.279 13.293L119.828 23.7095L112.133 16.3683L122.279 13.293Z" fill="#D7D8DC"/>
<path d="M112.135 16.3682L109.684 26.7847L101.988 19.3939L112.135 16.3682Z" fill="white"/>
<path d="M101.994 19.3936L99.4941 29.8101L91.8477 22.4193L101.994 19.3936Z" fill="#F7F7F8"/>
<path d="M91.8377 22.4189L89.3379 32.8355L81.6914 25.4943L91.8377 22.4189Z" fill="#F7F7F8"/>
<path d="M81.6914 25.4932L79.1916 35.9097L71.4961 28.5189L81.6914 25.4932Z" fill="#F7F7F8"/>
<path d="M71.4978 28.5195L69.047 38.936L61.3516 31.5949L71.4978 28.5195Z" fill="#EDEEF0"/>
<path d="M61.3533 31.5938L58.9025 42.0103L51.207 34.6195L61.3533 31.5938Z" fill="#EDEEF0"/>
<path d="M51.2088 34.6221L48.758 45.0386L41.0625 37.6478L51.2088 34.6221Z" fill="#D7D8DC"/>
<path d="M41.0564 37.6475L38.6056 48.1136L30.9102 40.7228L41.0564 37.6475Z" fill="white"/>
<path d="M30.9119 40.7217L28.4611 51.1382L20.7656 43.7474L30.9119 40.7217Z" fill="#F7F7F8"/>
</g>
<mask id="mask9_362_242262" style="mask-type:luminance" maskUnits="userSpaceOnUse" x="5" y="-28" width="225" height="182">
<path d="M193.207 -27.3382L5.38281 29.0273L41.8791 153.571L229.704 97.2053L193.207 -27.3382Z" fill="white"/>
</mask>
<g mask="url(#mask9_362_242262)">
<path d="M190.898 2.37891L188.399 12.7954L180.703 5.45426L190.898 2.37891Z" fill="#D7D8DC"/>
<path d="M180.705 5.4541L178.254 15.8706L170.559 8.47985L180.705 5.4541Z" fill="#C3C3C9"/>
<path d="M170.553 8.47852L168.102 18.895L160.406 11.5539L170.553 8.47852Z" fill="#F7F7F8"/>
<path d="M160.408 11.5557L157.957 21.9722L150.262 14.5814L160.408 11.5557Z" fill="white"/>
<path d="M150.263 14.582L147.813 24.9985L140.117 17.6078L150.263 14.582Z" fill="#C3C3C9"/>
<path d="M140.119 17.6074L137.668 28.0239L129.973 20.6828L140.119 17.6074Z" fill="white"/>
<path d="M129.978 20.6826L127.478 31.0991L119.832 23.7084L129.978 20.6826Z" fill="#D7D8DC"/>
<path d="M119.822 23.707L117.322 34.1235L109.676 26.7824L119.822 23.707Z" fill="#D7D8DC"/>
<path d="M13.2148 55.7027L15.8127 64.5815L18.2635 54.165L13.2148 55.7027Z" fill="#D7D8DC"/>
<path d="M109.676 26.7822L107.176 37.1987L99.4805 29.808L109.676 26.7822Z" fill="#C3C3C9"/>
<path d="M99.4822 29.8076L97.0314 40.2241L89.3359 32.8334L99.4822 29.8076Z" fill="#F7F7F8"/>
<path d="M89.3377 32.8359L86.8869 43.302L79.1914 35.9113L89.3377 32.8359Z" fill="#F7F7F8"/>
<path d="M79.1931 35.9111L76.7423 46.3276L69.0469 38.9369L79.1931 35.9111Z" fill="#F7F7F8"/>
<path d="M69.0408 38.9365L66.59 49.353L58.8945 42.0119L69.0408 38.9365Z" fill="#D7D8DC"/>
<path d="M58.8963 42.0107L56.4455 52.4273L48.75 45.0365L58.8963 42.0107Z" fill="#AEADB3"/>
<path d="M48.7517 45.0371L46.2519 55.4536L38.6055 48.1125L48.7517 45.0371Z" fill="#D7D8DC"/>
<path d="M38.6111 48.1113L36.1113 58.5278L28.4648 51.1371L38.6111 48.1113Z" fill="#F7F7F8"/>
<path d="M28.4609 51.1377L25.9611 61.5542L18.2656 54.1634L28.4609 51.1377Z" fill="#C3C3C9"/>
<path d="M15.8086 64.5815L18.2594 54.165L25.9549 61.5558L15.8086 64.5815Z" fill="#F7F7F8"/>
<path d="M25.9648 61.5542L28.4646 51.1377L36.1111 58.5285L25.9648 61.5542Z" fill="#D7D8DC"/>
<path d="M36.1094 58.5278L38.6092 48.1113L46.2556 55.4525L36.1094 58.5278Z" fill="#C3C3C9"/>
<path d="M46.25 55.4536L48.7498 45.0371L56.4453 52.4279L46.25 55.4536Z" fill="#F7F7F8"/>
<path d="M56.4492 52.4273L58.9 42.0107L66.5955 49.3519L56.4492 52.4273Z" fill="#F7F7F8"/>
<path d="M66.5898 49.353L69.0406 38.9365L76.7361 46.3273L66.5898 49.353Z" fill="#D7D8DC"/>
<path d="M76.7422 46.3276L79.193 35.9111L86.8884 43.3019L76.7422 46.3276Z" fill="white"/>
<path d="M86.8867 43.302L89.3375 32.8359L97.033 40.2267L86.8867 43.302Z" fill="#D7D8DC"/>
<path d="M97.0312 40.2241L99.482 29.8076L107.178 37.1984L97.0312 40.2241Z" fill="#D7D8DC"/>
<path d="M107.176 37.1987L109.676 26.7822L117.322 34.1234L107.176 37.1987Z" fill="#F7F7F8"/>
<path d="M117.332 34.1235L119.832 23.707L127.478 31.0978L117.332 34.1235Z" fill="#F7F7F8"/>
<path d="M127.473 31.0991L129.972 20.6826L137.668 28.0238L127.473 31.0991Z" fill="#F7F7F8"/>
<path d="M137.672 28.0239L140.123 17.6074L147.818 24.9982L137.672 28.0239Z" fill="#D7D8DC"/>
<path d="M147.812 24.9985L150.263 14.582L157.959 21.9728L147.812 24.9985Z" fill="#EDEEF0"/>
<path d="M157.957 21.9722L160.408 11.5557L168.103 18.8968L157.957 21.9722Z" fill="#EDEEF0"/>
<path d="M168.102 18.895L170.552 8.47852L178.248 15.8693L168.102 18.895Z" fill="#D7D8DC"/>
<path d="M178.254 15.8706L180.705 5.4541L188.4 12.7953L178.254 15.8706Z" fill="#F7F7F8"/>
</g>
<mask id="mask10_362_242262" style="mask-type:luminance" maskUnits="userSpaceOnUse" x="5" y="-28" width="225" height="182">
<path d="M193.207 -27.3382L5.38281 29.0273L41.8791 153.571L229.704 97.2053L193.207 -27.3382Z" fill="white"/>
</mask>
<g mask="url(#mask10_362_242262)">
<path d="M23.5156 71.9712L25.9664 61.5547L33.6619 68.9454L23.5156 71.9712Z" fill="#D7D8DC"/>
<path d="M33.6602 68.9448L36.1109 58.5283L43.8064 65.8695L33.6602 68.9448Z" fill="#D7D8DC"/>
<path d="M43.8047 65.8706L46.2555 55.4541L53.9509 62.8449L43.8047 65.8706Z" fill="#C3C3C9"/>
<path d="M53.957 62.8452L56.4568 52.4287L64.1033 59.7699L53.957 62.8452Z" fill="#F7F7F8"/>
<path d="M64.1016 59.7671L66.6014 49.3506L74.2478 56.7413L64.1016 59.7671Z" fill="#D7D8DC"/>
<path d="M74.2461 56.7417L76.7459 46.3252L84.4414 53.716L74.2461 56.7417Z" fill="white"/>
<path d="M84.4414 53.7163L86.8922 43.2998L94.5877 50.641L84.4414 53.7163Z" fill="#D7D8DC"/>
<path d="M94.582 50.6411L97.0328 40.2246L104.728 47.6154L94.582 50.6411Z" fill="#C3C3C9"/>
<path d="M104.742 47.6167L107.193 37.2002L114.888 44.5414L104.742 47.6167Z" fill="#D7D8DC"/>
<path d="M18.4181 73.5075L15.8203 64.5791L23.5158 71.9699L18.4181 73.5075Z" fill="#F7F7F8"/>
<path d="M114.883 44.5415L117.334 34.125L125.029 41.5158L114.883 44.5415Z" fill="#F7F7F8"/>
<path d="M125.027 41.5161L127.478 31.0996L135.174 38.4904L125.027 41.5161Z" fill="#C3C3C9"/>
<path d="M135.172 38.4886L137.672 28.0225L145.318 35.4132L135.172 38.4886Z" fill="#D7D8DC"/>
<path d="M145.312 35.4126L147.812 24.9961L155.459 32.3869L145.312 35.4126Z" fill="#F7F7F8"/>
<path d="M155.469 32.3882L157.969 21.9717L165.664 29.3128L155.469 32.3882Z" fill="#D7D8DC"/>
<path d="M165.664 29.312L168.115 18.8955L175.81 26.2863L165.664 29.312Z" fill="#EDEEF0"/>
<path d="M175.809 26.2876L178.259 15.8711L185.955 23.2123L175.809 26.2876Z" fill="#D7D8DC"/>
<path d="M25.9666 61.5547L23.5158 71.9712L15.8203 64.5804L25.9666 61.5547Z" fill="#C3C3C9"/>
<path d="M188.4 12.7959L185.949 23.2124L178.254 15.8712L188.4 12.7959Z" fill="#C3C3C9"/>
<path d="M178.256 15.8711L175.805 26.2876L168.109 18.8968L178.256 15.8711Z" fill="#F7F7F8"/>
<path d="M168.115 18.8955L165.664 29.312L157.969 21.9709L168.115 18.8955Z" fill="#D7D8DC"/>
<path d="M157.959 21.9717L155.459 32.3882L147.812 24.9974L157.959 21.9717Z" fill="#C3C3C9"/>
<path d="M147.818 24.9961L145.318 35.4126L137.672 28.0218L147.818 24.9961Z" fill="white"/>
<path d="M137.668 28.0225L135.168 38.4886L127.473 31.0978L137.668 28.0225Z" fill="#F7F7F8"/>
<path d="M127.478 31.0996L125.028 41.5161L117.332 34.1254L127.478 31.0996Z" fill="#D7D8DC"/>
<path d="M117.334 34.125L114.883 44.5415L107.188 37.2004L117.334 34.125Z" fill="white"/>
<path d="M107.189 37.2002L104.738 47.6167L97.043 40.2259L107.189 37.2002Z" fill="#F7F7F8"/>
<path d="M97.033 40.2246L94.5822 50.6411L86.8867 43.3L97.033 40.2246Z" fill="#F7F7F8"/>
<path d="M86.8884 43.2998L84.4377 53.7163L76.7422 46.3256L86.8884 43.2998Z" fill="#F7F7F8"/>
<path d="M76.7478 46.3252L74.248 56.7417L66.6016 49.3509L76.7478 46.3252Z" fill="#EDEEF0"/>
<path d="M66.6033 49.3506L64.1035 59.7671L56.457 52.4259L66.6033 49.3506Z" fill="#EDEEF0"/>
<path d="M56.457 52.4287L53.9572 62.8452L46.2617 55.4545L56.457 52.4287Z" fill="#D7D8DC"/>
<path d="M46.2556 55.4541L43.8048 65.8706L36.1094 58.5295L46.2556 55.4541Z" fill="#D7D8DC"/>
<path d="M36.1111 58.5283L33.6603 68.9448L25.9648 61.5541L36.1111 58.5283Z" fill="white"/>
</g>
<mask id="mask11_362_242262" style="mask-type:luminance" maskUnits="userSpaceOnUse" x="5" y="-28" width="225" height="182">
<path d="M193.207 -27.3382L5.38281 29.0273L41.8791 153.571L229.704 97.2053L193.207 -27.3382Z" fill="white"/>
</mask>
<g mask="url(#mask11_362_242262)">
<path d="M21.0078 82.3901L23.5076 71.9736L31.1541 79.3644L21.0078 82.3901Z" fill="#EDEEF0"/>
<path d="M31.1602 79.3628L33.66 68.9463L41.3554 76.2874L31.1602 79.3628Z" fill="#D7D8DC"/>
<path d="M41.3594 76.2876L43.8102 65.8711L51.5056 73.2619L41.3594 76.2876Z" fill="#F7F7F8"/>
<path d="M51.5 73.2622L53.9508 62.8457L61.6463 70.2365L51.5 73.2622Z" fill="#C3C3C9"/>
<path d="M61.6445 70.2366L64.0953 59.7705L71.7908 67.1613L61.6445 70.2366Z" fill="#D7D8DC"/>
<path d="M71.7891 67.1616L74.2399 56.7451L81.9353 64.1359L71.7891 67.1616Z" fill="#D7D8DC"/>
<path d="M81.9414 64.1362L84.4412 53.7197L92.0877 61.0609L81.9414 64.1362Z" fill="white"/>
<path d="M92.0859 61.062L94.5857 50.6455L102.232 58.0363L92.0859 61.062Z" fill="#C3C3C9"/>
<path d="M102.23 58.0337L104.73 47.6172L112.426 54.9583L102.23 58.0337Z" fill="#D7D8DC"/>
<path d="M18.4102 73.5113L21.008 82.3901L23.5078 71.9736L18.4102 73.5113Z" fill="#D7D8DC"/>
<path d="M112.426 54.9585L114.877 44.542L122.572 51.9328L112.426 54.9585Z" fill="#C3C3C9"/>
<path d="M122.566 51.9331L125.017 41.5166L132.713 48.9074L122.566 51.9331Z" fill="#C3C3C9"/>
<path d="M132.711 48.9077L135.162 38.4912L142.857 45.8324L132.711 48.9077Z" fill="#F7F7F8"/>
<path d="M142.867 45.8335L145.318 35.417L153.013 42.8078L142.867 45.8335Z" fill="#F7F7F8"/>
<path d="M153.012 42.8071L155.463 32.3906L163.158 39.7318L153.012 42.8071Z" fill="#D7D8DC"/>
<path d="M163.156 39.7319L165.656 29.3154L173.303 36.7062L163.156 39.7319Z" fill="#EDEEF0"/>
<path d="M173.297 36.7046L175.797 26.2881L183.443 33.6788L173.297 36.7046Z" fill="#D7D8DC"/>
<path d="M185.943 23.2129L183.443 33.679L175.797 26.2882L185.943 23.2129Z" fill="#C3C3C9"/>
<path d="M175.803 26.2881L173.303 36.7046L165.656 29.3138L175.803 26.2881Z" fill="#F7F7F8"/>
<path d="M165.652 29.3154L163.153 39.7319L155.457 32.3908L165.652 29.3154Z" fill="#F7F7F8"/>
<path d="M155.459 32.3906L153.008 42.8071L145.312 35.4164L155.459 32.3906Z" fill="#C3C3C9"/>
<path d="M145.318 35.417L142.867 45.8335L135.172 38.4923L145.318 35.417Z" fill="white"/>
<path d="M135.174 38.4912L132.723 48.9077L125.027 41.517L135.174 38.4912Z" fill="#D7D8DC"/>
<path d="M125.017 41.5166L122.567 51.9331L114.871 44.5423L125.017 41.5166Z" fill="#D7D8DC"/>
<path d="M114.873 44.542L112.422 54.9585L104.727 47.6173L114.873 44.542Z" fill="#F7F7F8"/>
<path d="M104.728 47.6172L102.228 58.0337L94.582 50.6429L104.728 47.6172Z" fill="#F7F7F8"/>
<path d="M94.5877 50.6455L92.0879 61.062L84.4414 53.7209L94.5877 50.6455Z" fill="#F7F7F8"/>
<path d="M84.4414 53.7197L81.9416 64.1362L74.2461 56.7455L84.4414 53.7197Z" fill="#D7D8DC"/>
<path d="M74.2361 56.7451L71.7853 67.1616L64.0898 59.7709L74.2361 56.7451Z" fill="#EDEEF0"/>
<path d="M64.0955 59.7705L61.6447 70.2366L53.9492 62.8459L64.0955 59.7705Z" fill="#EDEEF0"/>
<path d="M53.9509 62.8457L51.5002 73.2622L43.8047 65.8715L53.9509 62.8457Z" fill="#D7D8DC"/>
<path d="M43.8064 65.8711L41.3556 76.2876L33.6602 68.9464L43.8064 65.8711Z" fill="#F7F7F8"/>
<path d="M33.6502 68.9463L31.1504 79.3628L23.5039 71.972L33.6502 68.9463Z" fill="white"/>
</g>
<mask id="mask12_362_242262" style="mask-type:luminance" maskUnits="userSpaceOnUse" x="5" y="-28" width="225" height="182">
<path d="M193.207 -27.3382L5.38281 29.0273L41.8791 153.571L229.704 97.2053L193.207 -27.3382Z" fill="white"/>
</mask>
<g mask="url(#mask12_362_242262)">
<path d="M28.7031 89.7798L31.1539 79.3633L38.8494 86.7044L28.7031 89.7798Z" fill="#D7D8DC"/>
<path d="M38.8477 86.7046L41.3475 76.2881L48.9939 83.6788L38.8477 86.7046Z" fill="#D7D8DC"/>
<path d="M48.9922 83.6792L51.492 73.2627L59.1875 80.6535L48.9922 83.6792Z" fill="#C3C3C9"/>
<path d="M59.1836 80.6538L61.6344 70.2373L69.3299 77.5785L59.1836 80.6538Z" fill="#F7F7F8"/>
<path d="M69.3398 77.5757L71.7906 67.1592L79.4861 74.5499L69.3398 77.5757Z" fill="#D7D8DC"/>
<path d="M79.4844 74.5513L81.9352 64.1348L89.6306 71.4759L79.4844 74.5513Z" fill="#D7D8DC"/>
<path d="M89.6289 71.4761L92.0797 61.0596L99.7752 68.4503L89.6289 71.4761Z" fill="#D7D8DC"/>
<path d="M99.7695 68.4507L102.22 58.0342L109.916 65.4249L99.7695 68.4507Z" fill="white"/>
<path d="M109.926 65.4251L112.426 54.959L120.072 62.3497L109.926 65.4251Z" fill="#D7D8DC"/>
<path d="M23.6547 91.3171L21.0078 82.3887L28.7033 89.7794L23.6547 91.3171Z" fill="#F7F7F8"/>
<path d="M120.07 62.3501L122.57 51.9336L130.217 59.3244L120.07 62.3501Z" fill="#F7F7F8"/>
<path d="M130.215 59.3247L132.715 48.9082L140.41 56.2494L130.215 59.3247Z" fill="#C3C3C9"/>
<path d="M140.41 56.2476L142.861 45.8311L150.556 53.2218L140.41 56.2476Z" fill="#F7F7F8"/>
<path d="M150.551 53.2212L153.002 42.8047L160.697 50.1458L150.551 53.2212Z" fill="#F7F7F8"/>
<path d="M160.695 50.147L163.146 39.7305L170.842 47.1212L160.695 50.147Z" fill="#D7D8DC"/>
<path d="M170.852 47.1216L173.302 36.7051L180.998 44.0958L170.852 47.1216Z" fill="#C3C3C9"/>
<path d="M180.992 44.0962L183.443 33.6797L191.138 41.0208L180.992 44.0962Z" fill="#D7D8DC"/>
<path d="M31.1541 79.3633L28.7033 89.7798L21.0078 82.389L31.1541 79.3633Z" fill="#C3C3C9"/>
<path d="M183.443 33.6797L180.992 44.0962L173.297 36.7054L183.443 33.6797Z" fill="#F7F7F8"/>
<path d="M173.303 36.7051L170.852 47.1216L163.156 39.7308L173.303 36.7051Z" fill="white"/>
<path d="M163.146 39.7305L160.695 50.147L153 42.8058L163.146 39.7305Z" fill="#C3C3C9"/>
<path d="M153.002 42.8047L150.551 53.2212L142.855 45.8304L153.002 42.8047Z" fill="#D7D8DC"/>
<path d="M142.857 45.8311L140.406 56.2476L132.711 48.9064L142.857 45.8311Z" fill="#F7F7F8"/>
<path d="M132.713 48.9082L130.213 59.3247L122.566 51.934L132.713 48.9082Z" fill="#D7D8DC"/>
<path d="M122.572 51.9336L120.072 62.3501L112.426 54.9593L122.572 51.9336Z" fill="white"/>
<path d="M112.426 54.959L109.926 65.4251L102.23 58.0343L112.426 54.959Z" fill="#F7F7F8"/>
<path d="M102.22 58.0342L99.7697 68.4507L92.0742 61.0599L102.22 58.0342Z" fill="#F7F7F8"/>
<path d="M92.076 61.0596L89.6252 71.4761L81.9297 64.1349L92.076 61.0596Z" fill="#F7F7F8"/>
<path d="M81.9353 64.1348L79.4845 74.5513L71.7891 67.1605L81.9353 64.1348Z" fill="#EDEEF0"/>
<path d="M71.7908 67.1592L69.34 77.5757L61.6445 70.2345L71.7908 67.1592Z" fill="#EDEEF0"/>
<path d="M61.6345 70.2373L59.1838 80.6538L51.4883 73.2631L61.6345 70.2373Z" fill="#D7D8DC"/>
<path d="M51.49 73.2627L48.9902 83.6792L41.3438 76.2884L51.49 73.2627Z" fill="#F7F7F8"/>
<path d="M41.3455 76.2881L38.8457 86.7046L31.1992 79.3634L41.3455 76.2881Z" fill="#F7F7F8"/>
</g>
<mask id="mask13_362_242262" style="mask-type:luminance" maskUnits="userSpaceOnUse" x="5" y="-28" width="225" height="182">
<path d="M193.207 -27.3382L5.38281 29.0273L41.8791 153.571L229.704 97.2053L193.207 -27.3382Z" fill="white"/>
</mask>
<g mask="url(#mask13_362_242262)">
<path d="M180.998 44.0938L178.547 54.5103L170.852 47.1195L180.998 44.0938Z" fill="#F7F7F8"/>
<path d="M170.853 47.1221L168.403 57.5386L160.707 50.1478L170.853 47.1221Z" fill="#D7D8DC"/>
<path d="M160.713 50.1475L158.213 60.6136L150.566 53.2228L160.713 50.1475Z" fill="#C3C3C9"/>
<path d="M150.568 53.2227L148.068 63.6392L140.422 56.2484L150.568 53.2227Z" fill="white"/>
<path d="M140.418 56.248L137.918 66.6646L130.223 59.3234L140.418 56.248Z" fill="#D7D8DC"/>
<path d="M130.224 59.3223L127.774 69.7388L120.078 62.348L130.224 59.3223Z" fill="#D7D8DC"/>
<path d="M23.6602 91.318L26.258 100.197L28.7088 89.7803L23.6602 91.318Z" fill="#D7D8DC"/>
<path d="M120.072 62.3486L117.621 72.7651L109.926 65.424L120.072 62.3486Z" fill="#C3C3C9"/>
<path d="M109.928 65.4229L107.477 75.8394L99.7812 68.4486L109.928 65.4229Z" fill="#D7D8DC"/>
<path d="M99.783 68.4512L97.3322 78.8677L89.6367 71.4769L99.783 68.4512Z" fill="#F7F7F8"/>
<path d="M89.6424 71.4766L87.1916 81.8931L79.4961 74.5519L89.6424 71.4766Z" fill="#F7F7F8"/>
<path d="M79.4861 74.5518L76.9863 84.9683L69.3398 77.5775L79.4861 74.5518Z" fill="#D7D8DC"/>
<path d="M69.3455 77.5771L66.8457 87.9937L59.1992 80.6525L69.3455 77.5771Z" fill="#EDEEF0"/>
<path d="M59.1953 80.6523L56.6955 91.0689L49 83.6781L59.1953 80.6523Z" fill="#D7D8DC"/>
<path d="M49.0017 83.6768L46.5509 94.0933L38.8555 86.7025L49.0017 83.6768Z" fill="#AEADB3"/>
<path d="M38.8572 86.7031L36.4064 97.1692L28.7109 89.7785L38.8572 86.7031Z" fill="#C3C3C9"/>
<path d="M26.2539 100.197L28.7047 89.7803L36.4002 97.171L26.2539 100.197Z" fill="#F7F7F8"/>
<path d="M36.4062 97.1692L38.857 86.7031L46.5525 94.0939L36.4062 97.1692Z" fill="#D7D8DC"/>
<path d="M46.5508 94.0933L49.0016 83.6768L56.697 91.0675L46.5508 94.0933Z" fill="#C3C3C9"/>
<path d="M56.6953 91.0689L59.1951 80.6523L66.8416 87.9935L56.6953 91.0689Z" fill="#F7F7F8"/>
<path d="M66.8398 87.9937L69.3396 77.5771L76.9861 84.9679L66.8398 87.9937Z" fill="#F7F7F8"/>
<path d="M76.9961 84.9683L79.4959 74.5518L87.1914 81.8929L76.9961 84.9683Z" fill="#C3C3C9"/>
<path d="M87.1914 81.8931L89.6422 71.4766L97.3377 78.8673L87.1914 81.8931Z" fill="white"/>
<path d="M97.3359 78.8677L99.7867 68.4512L107.482 75.8419L97.3359 78.8677Z" fill="#D7D8DC"/>
<path d="M107.477 75.8394L109.927 65.4229L117.623 72.764L107.477 75.8394Z" fill="#D7D8DC"/>
<path d="M117.621 72.7651L120.072 62.3486L127.767 69.7394L117.621 72.7651Z" fill="#F7F7F8"/>
<path d="M127.773 69.7388L130.224 59.3223L137.92 66.6634L127.773 69.7388Z" fill="#F7F7F8"/>
<path d="M137.918 66.6646L140.418 56.248L148.064 63.6388L137.918 66.6646Z" fill="#F7F7F8"/>
<path d="M148.062 63.6392L150.562 53.2227L158.209 60.6134L148.062 63.6392Z" fill="#D7D8DC"/>
<path d="M158.207 60.6136L160.707 50.1475L168.402 57.5382L158.207 60.6136Z" fill="#EDEEF0"/>
<path d="M168.406 57.5386L170.857 47.1221L178.553 54.5128L168.406 57.5386Z" fill="#EDEEF0"/>
<path d="M178.547 54.5103L180.998 44.0938L188.693 51.4349L178.547 54.5103Z" fill="#D7D8DC"/>
</g>
<mask id="mask14_362_242262" style="mask-type:luminance" maskUnits="userSpaceOnUse" x="5" y="-28" width="225" height="182">
<path d="M193.207 -27.3382L5.38281 29.0273L41.8791 153.571L229.704 97.2053L193.207 -27.3382Z" fill="white"/>
</mask>
<g mask="url(#mask14_362_242262)">
<path d="M33.8984 107.586L36.3982 97.1699L44.0937 104.511L33.8984 107.586Z" fill="#D7D8DC"/>
<path d="M44.0938 104.511L46.5445 94.0947L54.24 101.485L44.0938 104.511Z" fill="#D7D8DC"/>
<path d="M54.2383 101.486L56.6891 91.0693L64.3845 98.4105L54.2383 101.486Z" fill="#C3C3C9"/>
<path d="M64.3906 98.4107L66.8414 87.9941L74.5369 95.3849L64.3906 98.4107Z" fill="#C3C3C9"/>
<path d="M74.5352 95.3823L76.9859 84.9658L84.6814 92.3566L74.5352 95.3823Z" fill="#D7D8DC"/>
<path d="M84.6797 92.3567L87.1795 81.8906L94.826 89.2814L84.6797 92.3567Z" fill="white"/>
<path d="M94.8242 89.2827L97.324 78.8662L104.97 86.257L94.8242 89.2827Z" fill="#D7D8DC"/>
<path d="M104.98 86.2564L107.48 75.8398L115.176 83.181L104.98 86.2564Z" fill="#C3C3C9"/>
<path d="M115.176 83.1821L117.627 72.7656L125.322 80.1564L115.176 83.1821Z" fill="#D7D8DC"/>
<path d="M28.8517 109.073L26.2539 100.194L33.9004 107.585L28.8517 109.073Z" fill="#F7F7F8"/>
<path d="M125.32 80.1567L127.771 69.7402L135.467 77.0814L125.32 80.1567Z" fill="#F7F7F8"/>
<path d="M135.461 77.0815L137.912 66.665L145.607 74.0558L135.461 77.0815Z" fill="#C3C3C9"/>
<path d="M145.605 74.0542L148.056 63.6377L155.752 71.0285L145.605 74.0542Z" fill="#D7D8DC"/>
<path d="M155.75 71.0278L158.201 60.6113L165.896 67.9525L155.75 71.0278Z" fill="#F7F7F8"/>
<path d="M165.902 67.9536L168.402 57.5371L176.049 64.9279L165.902 67.9536Z" fill="#D7D8DC"/>
<path d="M176.047 64.9282L178.547 54.5117L186.193 61.8529L176.047 64.9282Z" fill="#EDEEF0"/>
<path d="M36.4002 97.1699L33.9004 107.586L26.2539 100.196L36.4002 97.1699Z" fill="#C3C3C9"/>
<path d="M188.693 51.4365L186.193 61.853L178.547 54.5119L188.693 51.4365Z" fill="#F7F7F8"/>
<path d="M178.553 54.5117L176.053 64.9282L168.406 57.5375L178.553 54.5117Z" fill="#D7D8DC"/>
<path d="M168.402 57.5371L165.903 67.9536L158.207 60.6125L168.402 57.5371Z" fill="#C3C3C9"/>
<path d="M158.209 60.6113L155.758 71.0278L148.062 63.6371L158.209 60.6113Z" fill="#EDEEF0"/>
<path d="M148.056 63.6377L145.606 74.0542L137.91 66.6634L148.056 63.6377Z" fill="white"/>
<path d="M137.912 66.665L135.461 77.0815L127.766 69.7404L137.912 66.665Z" fill="#D7D8DC"/>
<path d="M127.767 69.7402L125.317 80.1567L117.621 72.766L127.767 69.7402Z" fill="white"/>
<path d="M117.623 72.7656L115.172 83.1821L107.477 75.841L117.623 72.7656Z" fill="#F7F7F8"/>
<path d="M107.47 75.8398L104.971 86.2564L97.3242 78.8656L107.47 75.8398Z" fill="#EDEEF0"/>
<path d="M97.3259 78.8662L94.8261 89.2827L87.1797 81.892L97.3259 78.8662Z" fill="#F7F7F8"/>
<path d="M87.1797 81.8906L84.6798 92.3567L76.9844 84.966L87.1797 81.8906Z" fill="#EDEEF0"/>
<path d="M76.9861 84.9658L74.5353 95.3823L66.8398 87.9916L76.9861 84.9658Z" fill="#EDEEF0"/>
<path d="M66.8416 87.9941L64.3908 98.4107L56.6953 91.0695L66.8416 87.9941Z" fill="#D7D8DC"/>
<path d="M56.6892 91.0693L54.2384 101.486L46.543 94.0951L56.6892 91.0693Z" fill="#D7D8DC"/>
<path d="M46.5447 94.0947L44.0939 104.511L36.3984 97.1701L46.5447 94.0947Z" fill="white"/>
</g>
<mask id="mask15_362_242262" style="mask-type:luminance" maskUnits="userSpaceOnUse" x="5" y="-28" width="225" height="182">
<path d="M193.207 -27.3382L5.38281 29.0273L41.8791 153.571L229.704 97.2053L193.207 -27.3382Z" fill="white"/>
</mask>
<g mask="url(#mask15_362_242262)">
<path d="M31.4414 118.003L33.8922 107.587L41.5877 114.928L31.4414 118.003Z" fill="#EDEEF0"/>
<path d="M41.5977 114.925L44.0975 104.509L51.7439 111.9L41.5977 114.925Z" fill="#D7D8DC"/>
<path d="M51.7383 111.9L54.2381 101.483L61.8845 108.825L51.7383 111.9Z" fill="#F7F7F8"/>
<path d="M61.8828 108.825L64.3826 98.4082L72.0781 105.799L61.8828 108.825Z" fill="#F7F7F8"/>
<path d="M72.0781 105.8L74.5289 95.3838L82.2244 102.775L72.0781 105.8Z" fill="#D7D8DC"/>
<path d="M82.2227 102.774L84.6734 92.3574L92.3689 99.6986L82.2227 102.774Z" fill="#D7D8DC"/>
<path d="M92.375 99.6997L94.8258 89.2832L102.521 96.674L92.375 99.6997Z" fill="white"/>
<path d="M102.52 96.6743L104.97 86.2578L112.666 93.599L102.52 96.6743Z" fill="#C3C3C9"/>
<path d="M112.664 93.5962L115.164 83.1797L122.81 90.5704L112.664 93.5962Z" fill="#D7D8DC"/>
<path d="M28.8477 109.075L31.4455 118.003L33.8963 107.587L28.8477 109.075Z" fill="#D7D8DC"/>
<path d="M122.809 90.5718L125.308 80.1553L132.955 87.546L122.809 90.5718Z" fill="#C3C3C9"/>
<path d="M132.965 87.5462L135.465 77.0801L143.16 84.4708L132.965 87.5462Z" fill="#C3C3C9"/>
<path d="M143.148 84.4712L145.599 74.0547L153.295 81.4454L143.148 84.4712Z" fill="#F7F7F8"/>
<path d="M153.301 81.4448L155.752 71.0283L163.447 78.3695L153.301 81.4448Z" fill="#F7F7F8"/>
<path d="M163.445 78.3706L165.896 67.9541L173.592 75.3449L163.445 78.3706Z" fill="#D7D8DC"/>
<path d="M173.59 75.3452L176.041 64.9287L183.736 72.3195L173.59 75.3452Z" fill="#EDEEF0"/>
<path d="M186.185 61.8516L183.735 72.3177L176.039 64.9269L186.185 61.8516Z" fill="#F7F7F8"/>
<path d="M176.041 64.9287L173.59 75.3452L165.895 67.9545L176.041 64.9287Z" fill="#F7F7F8"/>
<path d="M165.896 67.9541L163.445 78.3706L155.75 71.0295L165.896 67.9541Z" fill="#C3C3C9"/>
<path d="M155.752 71.0283L153.301 81.4448L145.605 74.0541L155.752 71.0283Z" fill="#D7D8DC"/>
<path d="M145.607 74.0547L143.156 84.4712L135.461 77.0804L145.607 74.0547Z" fill="#D7D8DC"/>
<path d="M135.455 77.0801L132.955 87.5462L125.309 80.1554L135.455 77.0801Z" fill="#D7D8DC"/>
<path d="M125.31 80.1553L122.811 90.5718L115.164 83.181L125.31 80.1553Z" fill="#F7F7F8"/>
<path d="M115.164 83.1797L112.664 93.5962L104.969 86.255L115.164 83.1797Z" fill="#F7F7F8"/>
<path d="M104.97 86.2578L102.52 96.6743L94.8242 89.2836L104.97 86.2578Z" fill="#F7F7F8"/>
<path d="M94.826 89.2832L92.3752 99.6997L84.6797 92.3586L94.826 89.2832Z" fill="#D7D8DC"/>
<path d="M84.6736 92.3574L82.2228 102.774L74.5273 95.3832L84.6736 92.3574Z" fill="#EDEEF0"/>
<path d="M74.5291 95.3838L72.0783 105.8L64.3828 98.4095L74.5291 95.3838Z" fill="#EDEEF0"/>
<path d="M64.3845 98.4082L61.8847 108.825L54.2383 101.484L64.3845 98.4082Z" fill="#D7D8DC"/>
<path d="M54.24 101.483L51.7402 111.9L44.0938 104.509L54.24 101.483Z" fill="#F7F7F8"/>
<path d="M44.0937 104.509L41.5939 114.925L33.8984 107.584L44.0937 104.509Z" fill="#F7F7F8"/>
</g>
<mask id="mask16_362_242262" style="mask-type:luminance" maskUnits="userSpaceOnUse" x="5" y="-28" width="225" height="182">
<path d="M193.207 -27.3382L5.38281 29.0273L41.8791 153.571L229.704 97.2053L193.207 -27.3382Z" fill="white"/>
</mask>
<g mask="url(#mask16_362_242262)">
<path d="M39.1484 125.342L41.5992 114.926L49.2947 122.317L39.1484 125.342Z" fill="#D7D8DC"/>
<path d="M49.293 122.318L51.7438 111.901L59.4392 119.292L49.293 122.318Z" fill="#D7D8DC"/>
<path d="M59.4375 119.292L61.9373 108.826L69.5838 116.217L59.4375 119.292Z" fill="#C3C3C9"/>
<path d="M69.5898 116.217L72.0896 105.801L79.7361 113.192L69.5898 116.217Z" fill="#F7F7F8"/>
<path d="M79.7344 113.189L82.2342 102.772L89.9297 110.114L79.7344 113.189Z" fill="#D7D8DC"/>
<path d="M89.9297 110.114L92.3805 99.6973L100.076 107.088L89.9297 110.114Z" fill="#C3C3C9"/>
<path d="M100.074 107.089L102.525 96.6729L110.22 104.014L100.074 107.089Z" fill="#D7D8DC"/>
<path d="M110.215 104.014L112.666 93.5977L120.361 100.988L110.215 104.014Z" fill="#C3C3C9"/>
<path d="M120.371 100.989L122.822 90.5723L130.517 97.963L120.371 100.989Z" fill="#D7D8DC"/>
<path d="M34.051 126.88L31.4531 118.001L39.1486 125.342L34.051 126.88Z" fill="#D7D8DC"/>
<path d="M130.516 97.9624L132.966 87.5459L140.662 94.8871L130.516 97.9624Z" fill="#F7F7F8"/>
<path d="M140.66 94.8882L143.16 84.4717L150.806 91.8624L140.66 94.8882Z" fill="#C3C3C9"/>
<path d="M150.805 91.8599L153.304 81.4434L160.951 88.7845L150.805 91.8599Z" fill="white"/>
<path d="M160.945 88.7847L163.445 78.3682L171.141 85.7589L160.945 88.7847Z" fill="#F7F7F8"/>
<path d="M171.145 85.7593L173.595 75.3428L181.291 82.7335L171.145 85.7593Z" fill="#D7D8DC"/>
<path d="M41.5994 114.926L39.1486 125.342L31.4531 118.001L41.5994 114.926Z" fill="#D7D8DC"/>
<path d="M183.744 72.3174L181.293 82.7339L173.598 75.3431L183.744 72.3174Z" fill="#D7D8DC"/>
<path d="M173.592 75.3428L171.141 85.7593L163.445 78.3685L173.592 75.3428Z" fill="#C3C3C9"/>
<path d="M163.447 78.3682L160.947 88.7847L153.301 81.4435L163.447 78.3682Z" fill="#D7D8DC"/>
<path d="M153.306 81.4434L150.807 91.8599L143.16 84.4691L153.306 81.4434Z" fill="#F7F7F8"/>
<path d="M143.16 84.4717L140.66 94.8882L132.965 87.547L143.16 84.4717Z" fill="#D7D8DC"/>
<path d="M132.967 87.5459L130.516 97.9624L122.82 90.5716L132.967 87.5459Z" fill="white"/>
<path d="M122.822 90.5723L120.371 100.989L112.676 93.598L122.822 90.5723Z" fill="#F7F7F8"/>
<path d="M112.666 93.5977L110.215 104.014L102.52 96.673L112.666 93.5977Z" fill="#F7F7F8"/>
<path d="M102.521 96.6729L100.07 107.089L92.375 99.6986L102.521 96.6729Z" fill="#F7F7F8"/>
<path d="M92.3767 99.6973L89.9259 110.114L82.2305 102.773L92.3767 99.6973Z" fill="#EDEEF0"/>
<path d="M82.2361 102.772L79.7363 113.189L72.0898 105.798L82.2361 102.772Z" fill="#EDEEF0"/>
<path d="M72.0838 105.801L69.584 116.217L61.9375 108.827L72.0838 105.801Z" fill="#D7D8DC"/>
<path d="M61.9336 108.826L59.4338 119.292L51.7383 111.902L61.9336 108.826Z" fill="#D7D8DC"/>
<path d="M51.7439 111.901L49.2931 122.318L41.5977 114.927L51.7439 111.901Z" fill="white"/>
</g>
<mask id="mask17_362_242262" style="mask-type:luminance" maskUnits="userSpaceOnUse" x="5" y="-28" width="225" height="182">
<path d="M193.207 -27.3382L5.38281 29.0273L41.8791 153.571L229.704 97.2053L193.207 -27.3382Z" fill="white"/>
</mask>
<g mask="url(#mask17_362_242262)">
<path d="M181.291 82.7373L178.791 93.1538L171.145 85.7631L181.291 82.7373Z" fill="#D7D8DC"/>
<path d="M171.141 85.7627L168.641 96.1792L160.945 88.7884L171.141 85.7627Z" fill="#C3C3C9"/>
<path d="M160.951 88.7881L158.5 99.2542L150.805 91.8634L160.951 88.7881Z" fill="white"/>
<path d="M150.806 91.8633L148.356 102.28L140.66 94.889L150.806 91.8633Z" fill="#D7D8DC"/>
<path d="M140.65 94.8887L138.199 105.305L130.504 97.964L140.65 94.8887Z" fill="#D7D8DC"/>
<path d="M34.043 126.884L36.6408 135.763L39.1406 125.347L34.043 126.884Z" fill="white"/>
<path d="M130.506 97.9639L128.055 108.38L120.359 100.99L130.506 97.9639Z" fill="#C3C3C9"/>
<path d="M120.361 100.988L117.91 111.405L110.215 104.014L120.361 100.988Z" fill="#D7D8DC"/>
<path d="M110.22 104.017L107.721 114.483L100.074 107.092L110.22 104.017Z" fill="#F7F7F8"/>
<path d="M100.064 107.092L97.5644 117.508L89.918 110.118L100.064 107.092Z" fill="#F7F7F8"/>
<path d="M89.9179 110.117L87.4181 120.534L79.7227 113.193L89.9179 110.117Z" fill="#D7D8DC"/>
<path d="M79.7244 113.192L77.2736 123.609L69.5781 116.218L79.7244 113.192Z" fill="#C3C3C9"/>
<path d="M69.5838 116.218L67.133 126.634L59.4375 119.293L69.5838 116.218Z" fill="#D7D8DC"/>
<path d="M59.4392 119.292L56.9884 129.709L49.293 122.318L59.4392 119.292Z" fill="#AEADB3"/>
<path d="M49.283 122.318L46.8322 132.735L39.1367 125.344L49.283 122.318Z" fill="#C3C3C9"/>
<path d="M36.6406 135.763L39.1404 125.347L46.8359 132.737L36.6406 135.763Z" fill="#F7F7F8"/>
<path d="M46.832 132.735L49.2828 122.318L56.9783 129.709L46.832 132.735Z" fill="#D7D8DC"/>
<path d="M56.9883 129.709L59.4391 119.292L67.1345 126.633L56.9883 129.709Z" fill="#C3C3C9"/>
<path d="M67.1328 126.634L69.5836 116.218L77.2791 123.609L67.1328 126.634Z" fill="#F7F7F8"/>
<path d="M77.2773 123.609L79.7281 113.192L87.4236 120.534L77.2773 123.609Z" fill="#F7F7F8"/>
<path d="M87.418 120.534L89.9178 110.117L97.5642 117.508L87.418 120.534Z" fill="#EDEEF0"/>
<path d="M97.5742 117.508L100.074 107.092L107.72 114.483L97.5742 117.508Z" fill="white"/>
<path d="M107.719 114.483L110.219 104.017L117.914 111.407L107.719 114.483Z" fill="#D7D8DC"/>
<path d="M117.914 111.405L120.365 100.988L128.06 108.379L117.914 111.405Z" fill="#D7D8DC"/>
<path d="M128.055 108.38L130.505 97.9639L138.201 105.305L128.055 108.38Z" fill="#F7F7F8"/>
<path d="M138.199 105.305L140.65 94.8887L148.345 102.279L138.199 105.305Z" fill="#F7F7F8"/>
<path d="M148.344 102.28L150.795 91.8633L158.49 99.254L148.344 102.28Z" fill="#F7F7F8"/>
<path d="M158.5 99.2542L160.951 88.7881L168.646 96.1788L158.5 99.2542Z" fill="#D7D8DC"/>
<path d="M168.645 96.1792L171.144 85.7627L178.791 93.1535L168.645 96.1792Z" fill="#EDEEF0"/>
<path d="M178.785 93.1538L181.285 82.7373L188.931 90.0785L178.785 93.1538Z" fill="#EDEEF0"/>
</g>
<mask id="mask18_362_242262" style="mask-type:luminance" maskUnits="userSpaceOnUse" x="5" y="-28" width="225" height="182">
<path d="M193.207 -27.3382L5.38281 29.0273L41.8791 153.571L229.704 97.2053L193.207 -27.3382Z" fill="white"/>
</mask>
<g mask="url(#mask18_362_242262)">
<path d="M44.3438 143.152L46.8436 132.735L54.49 140.126L44.3438 143.152Z" fill="#D7D8DC"/>
<path d="M54.4883 140.126L56.9881 129.71L64.6345 137.051L54.4883 140.126Z" fill="#D7D8DC"/>
<path d="M64.6328 137.051L67.1326 126.635L74.8281 134.026L64.6328 137.051Z" fill="#C3C3C9"/>
<path d="M74.8281 134.026L77.2789 123.609L84.9744 130.951L74.8281 134.026Z" fill="#F7F7F8"/>
<path d="M84.9844 130.949L87.4352 120.532L95.1306 127.923L84.9844 130.949Z" fill="#D7D8DC"/>
<path d="M95.125 127.922L97.5758 117.506L105.271 124.897L95.125 127.922Z" fill="#C3C3C9"/>
<path d="M105.27 124.898L107.72 114.481L115.416 121.823L105.27 124.898Z" fill="#C3C3C9"/>
<path d="M115.414 121.823L117.914 111.406L125.56 118.797L115.414 121.823Z" fill="#C3C3C9"/>
<path d="M125.566 118.797L128.066 108.381L135.713 115.722L125.566 118.797Z" fill="#D7D8DC"/>
<path d="M39.2953 144.689L36.6484 135.761L44.3439 143.152L39.2953 144.689Z" fill="#F7F7F8"/>
<path d="M135.711 115.722L138.211 105.306L145.906 112.696L135.711 115.722Z" fill="#F7F7F8"/>
<path d="M145.91 112.697L148.361 102.28L156.056 109.671L145.91 112.697Z" fill="#C3C3C9"/>
<path d="M156.055 109.669L158.505 99.2529L166.201 106.594L156.055 109.669Z" fill="#F7F7F8"/>
<path d="M166.195 106.594L168.646 96.1777L176.342 103.568L166.195 106.594Z" fill="#F7F7F8"/>
<path d="M176.34 103.569L178.791 93.1523L186.486 100.494L176.34 103.569Z" fill="#D7D8DC"/>
<path d="M46.8437 132.735L44.3439 143.152L36.6484 135.761L46.8437 132.735Z" fill="#C3C3C9"/>
<path d="M188.943 90.0771L186.492 100.494L178.797 93.1525L188.943 90.0771Z" fill="#D7D8DC"/>
<path d="M178.791 93.1523L176.34 103.569L168.645 96.1781L178.791 93.1523Z" fill="#C3C3C9"/>
<path d="M168.646 96.1777L166.195 106.594L158.5 99.2531L168.646 96.1777Z" fill="#D7D8DC"/>
<path d="M158.502 99.2529L156.051 109.669L148.355 102.279L158.502 99.2529Z" fill="#C3C3C9"/>
<path d="M148.357 102.28L145.906 112.697L138.211 105.306L148.357 102.28Z" fill="#D7D8DC"/>
<path d="M138.217 105.306L135.717 115.722L128.07 108.381L138.217 105.306Z" fill="white"/>
<path d="M128.06 108.381L125.561 118.797L117.914 111.407L128.06 108.381Z" fill="#F7F7F8"/>
<path d="M117.914 111.406L115.414 121.823L107.719 114.482L117.914 111.406Z" fill="#F7F7F8"/>
<path d="M107.72 114.481L105.27 124.898L97.5742 117.507L107.72 114.481Z" fill="#F7F7F8"/>
<path d="M97.5759 117.506L95.1252 127.922L87.4297 120.532L97.5759 117.506Z" fill="#EDEEF0"/>
<path d="M87.4314 120.532L84.9806 130.949L77.2852 123.608L87.4314 120.532Z" fill="#EDEEF0"/>
<path d="M77.2791 123.609L74.8283 134.026L67.1328 126.635L77.2791 123.609Z" fill="#D7D8DC"/>
<path d="M67.1345 126.635L64.6347 137.051L56.9883 129.71L67.1345 126.635Z" fill="#AEADB3"/>
<path d="M56.9939 129.71L54.4941 140.126L46.8477 132.736L56.9939 129.71Z" fill="#C3C3C9"/>
</g>
<mask id="mask19_362_242262" style="mask-type:luminance" maskUnits="userSpaceOnUse" x="5" y="-28" width="225" height="182">
<path d="M193.207 -27.3382L5.38281 29.0273L41.8791 153.571L229.704 97.2053L193.207 -27.3382Z" fill="white"/>
</mask>
<g mask="url(#mask19_362_242262)">
<path d="M41.8867 153.569L44.3375 143.152L52.033 150.543L41.8867 153.569Z" fill="#EDEEF0"/>
<path d="M52.0391 150.541L54.4899 140.124L62.1853 147.465L52.0391 150.541Z" fill="#D7D8DC"/>
<path d="M62.1836 147.466L64.6344 137.05L72.3299 144.441L62.1836 147.466Z" fill="#F7F7F8"/>
<path d="M72.3281 144.44L74.8279 134.023L82.4744 141.414L72.3281 144.44Z" fill="#F7F7F8"/>
<path d="M82.4727 141.415L84.9725 130.949L92.6679 138.34L82.4727 141.415Z" fill="#D7D8DC"/>
<path d="M92.6719 138.34L95.1227 127.924L102.818 135.315L92.6719 138.34Z" fill="#C3C3C9"/>
<path d="M102.824 135.315L105.275 124.898L112.97 132.24L102.824 135.315Z" fill="white"/>
<path d="M112.965 132.24L115.416 121.823L123.111 129.214L112.965 132.24Z" fill="#EDEEF0"/>
<path d="M123.109 129.211L125.56 118.795L133.256 126.186L123.109 129.211Z" fill="#D7D8DC"/>
<path d="M39.293 144.69L41.8908 153.569L44.3416 143.152L39.293 144.69Z" fill="#D7D8DC"/>
<path d="M133.254 126.187L135.705 115.721L143.4 123.111L133.254 126.187Z" fill="#C3C3C9"/>
<path d="M143.406 123.112L145.906 112.695L153.553 120.086L143.406 123.112Z" fill="#C3C3C9"/>
<path d="M153.551 120.086L156.051 109.67L163.697 117.011L153.551 120.086Z" fill="#F7F7F8"/>
<path d="M163.695 117.011L166.195 106.595L173.891 113.985L163.695 117.011Z" fill="#F7F7F8"/>
<path d="M173.895 113.986L176.345 103.569L184.041 110.91L173.895 113.986Z" fill="#D7D8DC"/>
<path d="M186.486 100.494L184.035 110.911L176.34 103.569L186.486 100.494Z" fill="#F7F7F8"/>
<path d="M176.342 103.569L173.891 113.986L166.195 106.595L176.342 103.569Z" fill="#C3C3C9"/>
<path d="M166.201 106.595L163.701 117.011L156.055 109.67L166.201 106.595Z" fill="#D7D8DC"/>
<path d="M156.056 109.67L153.557 120.086L145.91 112.696L156.056 109.67Z" fill="#D7D8DC"/>
<path d="M145.906 112.695L143.406 123.112L135.711 115.721L145.906 112.695Z" fill="#D7D8DC"/>
<path d="M135.705 115.721L133.254 126.187L125.559 118.796L135.705 115.721Z" fill="#F7F7F8"/>
<path d="M125.56 118.795L123.11 129.211L115.414 121.821L125.56 118.795Z" fill="#F7F7F8"/>
<path d="M115.416 121.823L112.965 132.24L105.27 124.899L115.416 121.823Z" fill="#F7F7F8"/>
<path d="M105.271 124.898L102.82 135.315L95.125 127.924L105.271 124.898Z" fill="#D7D8DC"/>
<path d="M95.1189 127.924L92.6681 138.34L84.9727 130.95L95.1189 127.924Z" fill="#EDEEF0"/>
<path d="M84.9744 130.949L82.4746 141.415L74.8281 134.025L84.9744 130.949Z" fill="#EDEEF0"/>
<path d="M74.8281 134.023L72.3283 144.44L64.6328 137.049L74.8281 134.023Z" fill="#D7D8DC"/>
<path d="M64.6345 137.05L62.1838 147.466L54.4883 140.125L64.6345 137.05Z" fill="#AEADB3"/>
<path d="M54.49 140.124L52.0392 150.541L44.3438 143.15L54.49 140.124Z" fill="#D7D8DC"/>
</g>
</g>
<mask id="mask20_362_242262" style="mask-type:luminance" maskUnits="userSpaceOnUse" x="-147" y="-53" width="384" height="311">
<path d="M173.225 -52.4307L-146.129 43.4062L-83.2673 257.922L236.086 162.085L173.225 -52.4307Z" fill="white"/>
</mask>
<g mask="url(#mask20_362_242262)">
<mask id="mask21_362_242262" style="mask-type:luminance" maskUnits="userSpaceOnUse" x="41" y="97" width="226" height="182">
<path d="M229.719 97.2018L41.8945 153.567L78.3908 278.111L266.215 221.745L229.719 97.2018Z" fill="white"/>
</mask>
<g mask="url(#mask21_362_242262)">
<path d="M49.582 160.958L52.0328 150.541L59.7283 157.932L49.582 160.958Z" fill="#EDEEF0"/>
<path d="M59.7266 157.933L62.1774 147.467L69.8728 154.858L59.7266 157.933Z" fill="#D7D8DC"/>
<path d="M69.8711 154.858L72.3219 144.441L80.0174 151.832L69.8711 154.858Z" fill="#D7D8DC"/>
<path d="M80.0234 151.833L82.4742 141.416L90.1697 148.757L80.0234 151.833Z" fill="#F7F7F8"/>
<path d="M90.168 148.755L92.6678 138.339L100.314 145.73L90.168 148.755Z" fill="#D7D8DC"/>
<path d="M100.312 145.729L102.812 135.312L110.459 142.654L100.312 145.729Z" fill="#C3C3C9"/>
<path d="M110.457 142.655L112.957 132.238L120.652 139.629L110.457 142.655Z" fill="white"/>
<path d="M120.652 139.629L123.103 129.213L130.799 136.604L120.652 139.629Z" fill="#C3C3C9"/>
<path d="M130.809 136.604L133.259 126.188L140.955 133.529L130.809 136.604Z" fill="#D7D8DC"/>
<path d="M44.4846 162.496L41.8867 153.567L49.5822 160.958L44.4846 162.496Z" fill="#F7F7F8"/>
<path d="M140.949 133.529L143.4 123.112L151.095 130.503L140.949 133.529Z" fill="#F7F7F8"/>
<path d="M151.094 130.502L153.545 120.086L161.24 127.427L151.094 130.502Z" fill="#C3C3C9"/>
<path d="M161.238 127.425L163.689 117.009L171.385 124.4L161.238 127.425Z" fill="#F7F7F8"/>
<path d="M171.383 124.401L173.883 113.984L181.529 121.375L171.383 124.401Z" fill="#F7F7F8"/>
<path d="M52.033 150.541L49.5822 160.958L41.8867 153.567L52.033 150.541Z" fill="#D7D8DC"/>
<path d="M184.025 110.908L181.525 121.374L173.879 113.984L184.025 110.908Z" fill="#C3C3C9"/>
<path d="M173.891 113.984L171.391 124.401L163.695 117.01L173.891 113.984Z" fill="#D7D8DC"/>
<path d="M163.689 117.009L161.238 127.425L153.543 120.084L163.689 117.009Z" fill="#F7F7F8"/>
<path d="M153.545 120.086L151.094 130.502L143.398 123.112L153.545 120.086Z" fill="#D7D8DC"/>
<path d="M143.4 123.112L140.949 133.529L133.254 126.188L143.4 123.112Z" fill="white"/>
<path d="M133.256 126.188L130.805 136.604L123.109 129.213L133.256 126.188Z" fill="#F7F7F8"/>
<path d="M123.103 129.213L120.653 139.629L112.957 132.239L123.103 129.213Z" fill="#F7F7F8"/>
<path d="M112.959 132.238L110.459 142.655L102.812 135.314L112.959 132.238Z" fill="#F7F7F8"/>
<path d="M102.818 135.312L100.318 145.729L92.6719 138.338L102.818 135.312Z" fill="#EDEEF0"/>
<path d="M92.6679 138.339L90.1681 148.755L82.4727 141.414L92.6679 138.339Z" fill="#EDEEF0"/>
<path d="M82.4744 141.416L80.0236 151.833L72.3281 144.442L82.4744 141.416Z" fill="#D7D8DC"/>
<path d="M72.322 144.441L69.8713 154.858L62.1758 147.467L72.322 144.441Z" fill="#F7F7F8"/>
<path d="M62.1775 147.467L59.7267 157.933L52.0312 150.542L62.1775 147.467Z" fill="#D7D8DC"/>
</g>
<mask id="mask22_362_242262" style="mask-type:luminance" maskUnits="userSpaceOnUse" x="41" y="97" width="226" height="182">
<path d="M229.719 97.2018L41.8945 153.567L78.3908 278.111L266.215 221.745L229.719 97.2018Z" fill="white"/>
</mask>
<g mask="url(#mask22_362_242262)">
<path d="M47.0859 171.375L49.5857 160.959L57.2322 168.35L47.0859 171.375Z" fill="#EDEEF0"/>
<path d="M57.2383 168.347L59.7381 157.931L67.3845 165.272L57.2383 168.347Z" fill="#D7D8DC"/>
<path d="M67.3828 165.273L69.8826 154.856L77.5781 162.247L67.3828 165.273Z" fill="#F7F7F8"/>
<path d="M77.5781 162.247L80.0289 151.83L87.7244 159.171L77.5781 162.247Z" fill="#F7F7F8"/>
<path d="M87.7188 159.172L90.1695 148.756L97.865 156.147L87.7188 159.172Z" fill="#D7D8DC"/>
<path d="M97.8633 156.147L100.314 145.73L108.01 153.121L97.8633 156.147Z" fill="#C3C3C9"/>
<path d="M108.02 153.12L110.47 142.654L118.166 150.045L108.02 153.12Z" fill="white"/>
<path d="M118.164 150.046L120.664 139.63L128.31 147.021L118.164 150.046Z" fill="#EDEEF0"/>
<path d="M128.309 147.018L130.808 136.602L138.455 143.943L128.309 147.018Z" fill="#D7D8DC"/>
<path d="M44.4922 162.497L47.09 171.375L49.5898 160.959L44.4922 162.497Z" fill="#D7D8DC"/>
<path d="M138.453 143.943L140.953 133.526L148.648 140.917L138.453 143.943Z" fill="#C3C3C9"/>
<path d="M148.648 140.917L151.099 130.501L158.795 137.842L148.648 140.917Z" fill="#C3C3C9"/>
<path d="M158.793 137.842L161.244 127.426L168.939 134.817L158.793 137.842Z" fill="#F7F7F8"/>
<path d="M168.945 134.818L171.396 124.401L179.092 131.792L168.945 134.818Z" fill="#F7F7F8"/>
<path d="M179.086 131.792L181.537 121.375L189.232 128.716L179.086 131.792Z" fill="#D7D8DC"/>
<path d="M181.537 121.375L179.086 131.792L171.391 124.401L181.537 121.375Z" fill="#C3C3C9"/>
<path d="M171.392 124.401L168.942 134.818L161.246 127.427L171.392 124.401Z" fill="#D7D8DC"/>
<path d="M161.248 127.426L158.797 137.842L151.102 130.501L161.248 127.426Z" fill="#D7D8DC"/>
<path d="M151.095 130.501L148.645 140.917L140.949 133.527L151.095 130.501Z" fill="#D7D8DC"/>
<path d="M140.955 133.526L138.455 143.943L130.809 136.602L140.955 133.526Z" fill="#F7F7F8"/>
<path d="M130.81 136.602L128.311 147.018L120.664 139.627L130.81 136.602Z" fill="#F7F7F8"/>
<path d="M120.664 139.63L118.164 150.046L110.469 142.656L120.664 139.63Z" fill="#F7F7F8"/>
<path d="M110.47 142.654L108.02 153.12L100.324 145.73L110.47 142.654Z" fill="#D7D8DC"/>
<path d="M100.314 145.73L97.8634 156.147L90.168 148.756L100.314 145.73Z" fill="#EDEEF0"/>
<path d="M90.1697 148.756L87.7189 159.172L80.0234 151.831L90.1697 148.756Z" fill="#C3C3C9"/>
<path d="M80.0252 151.83L77.5744 162.247L69.8789 154.856L80.0252 151.83Z" fill="#D7D8DC"/>
<path d="M69.8806 154.856L67.3808 165.273L59.7344 157.932L69.8806 154.856Z" fill="#AEADB3"/>
<path d="M59.7283 157.931L57.2285 168.347L49.582 160.956L59.7283 157.931Z" fill="white"/>
</g>
<mask id="mask23_362_242262" style="mask-type:luminance" maskUnits="userSpaceOnUse" x="41" y="97" width="226" height="182">
<path d="M229.719 97.2018L41.8945 153.567L78.3908 278.111L266.215 221.745L229.719 97.2018Z" fill="white"/>
</mask>
<g mask="url(#mask23_362_242262)">
<path d="M54.7812 178.764L57.232 168.348L64.9275 175.689L54.7812 178.764Z" fill="#D7D8DC"/>
<path d="M64.9258 175.689L67.3766 165.272L75.072 172.663L64.9258 175.689Z" fill="#D7D8DC"/>
<path d="M75.0703 172.665L77.5701 162.248L85.2166 169.589L75.0703 172.665Z" fill="#C3C3C9"/>
<path d="M85.2227 169.588L87.7225 159.172L95.4179 166.563L85.2227 169.588Z" fill="#F7F7F8"/>
<path d="M95.418 166.561L97.8688 156.145L105.564 163.535L95.418 166.561Z" fill="#D7D8DC"/>
<path d="M105.562 163.536L108.013 153.119L115.709 160.46L105.562 163.536Z" fill="#C3C3C9"/>
<path d="M115.703 160.46L118.154 150.044L125.849 157.435L115.703 160.46Z" fill="#D7D8DC"/>
<path d="M125.848 157.435L128.298 147.019L135.994 154.36L125.848 157.435Z" fill="white"/>
<path d="M136.004 154.36L138.455 143.943L146.15 151.334L136.004 154.36Z" fill="#D7D8DC"/>
<path d="M49.6838 180.252L47.0859 171.373L54.7814 178.764L49.6838 180.252Z" fill="#F7F7F8"/>
<path d="M146.148 151.335L148.648 140.919L156.295 148.31L146.148 151.335Z" fill="#F7F7F8"/>
<path d="M156.293 148.31L158.793 137.844L166.439 145.235L156.293 148.31Z" fill="#C3C3C9"/>
<path d="M166.438 145.232L168.937 134.815L176.633 142.206L166.438 145.232Z" fill="#F7F7F8"/>
<path d="M176.633 142.207L179.084 131.79L186.779 139.131L176.633 142.207Z" fill="#F7F7F8"/>
<path d="M57.2322 168.348L54.7814 178.764L47.0859 171.373L57.2322 168.348Z" fill="#C3C3C9"/>
<path d="M189.224 128.715L186.774 139.131L179.078 131.79L189.224 128.715Z" fill="#C3C3C9"/>
<path d="M179.08 131.79L176.629 142.207L168.934 134.816L179.08 131.79Z" fill="#D7D8DC"/>
<path d="M168.939 134.815L166.439 145.232L158.793 137.841L168.939 134.815Z" fill="#C3C3C9"/>
<path d="M158.795 137.844L156.295 148.31L148.648 140.919L158.795 137.844Z" fill="#D7D8DC"/>
<path d="M148.648 140.919L146.149 151.335L138.453 143.945L148.648 140.919Z" fill="white"/>
<path d="M138.455 143.943L136.004 154.36L128.309 147.019L138.455 143.943Z" fill="#F7F7F8"/>
<path d="M128.299 147.019L125.848 157.435L118.152 150.044L128.299 147.019Z" fill="#F7F7F8"/>
<path d="M118.154 150.044L115.703 160.46L108.008 153.119L118.154 150.044Z" fill="#F7F7F8"/>
<path d="M108.01 153.119L105.559 163.536L97.8633 156.145L108.01 153.119Z" fill="#EDEEF0"/>
<path d="M97.865 156.145L95.4142 166.561L87.7188 159.17L97.865 156.145Z" fill="#EDEEF0"/>
<path d="M87.7127 159.172L85.2129 169.588L77.5664 162.247L87.7127 159.172Z" fill="#D7D8DC"/>
<path d="M77.5664 162.248L75.0666 172.665L67.3711 165.274L77.5664 162.248Z" fill="white"/>
<path d="M67.3767 165.272L64.9259 175.689L57.2305 168.348L67.3767 165.272Z" fill="#F7F7F8"/>
</g>
<mask id="mask24_362_242262" style="mask-type:luminance" maskUnits="userSpaceOnUse" x="41" y="97" width="226" height="182">
<path d="M229.719 97.2018L41.8945 153.567L78.3908 278.111L266.215 221.745L229.719 97.2018Z" fill="white"/>
</mask>
<g mask="url(#mask24_362_242262)">
<path d="M186.787 139.135L184.287 149.551L176.641 142.21L186.787 139.135Z" fill="#C3C3C9"/>
<path d="M176.641 142.21L174.141 152.626L166.445 145.236L176.641 142.21Z" fill="white"/>
<path d="M166.447 145.235L163.996 155.652L156.301 148.311L166.447 145.235Z" fill="#D7D8DC"/>
<path d="M156.295 148.311L153.844 158.727L146.148 151.336L156.295 148.311Z" fill="#D7D8DC"/>
<path d="M49.6875 180.256L52.3344 189.184L54.7851 178.768L49.6875 180.256Z" fill="#D7D8DC"/>
<path d="M146.15 151.336L143.699 161.752L136.004 154.362L146.15 151.336Z" fill="#C3C3C9"/>
<path d="M136.006 154.361L133.555 164.778L125.859 157.437L136.006 154.361Z" fill="#F7F7F8"/>
<path d="M125.865 157.438L123.414 167.855L115.719 160.464L125.865 157.438Z" fill="#F7F7F8"/>
<path d="M115.709 160.465L113.209 170.881L105.562 163.54L115.709 160.465Z" fill="#F7F7F8"/>
<path d="M105.564 163.539L103.064 173.956L95.418 166.565L105.564 163.539Z" fill="#D7D8DC"/>
<path d="M95.4179 166.564L92.9181 176.981L85.2227 169.59L95.4179 166.564Z" fill="#AEADB3"/>
<path d="M85.2244 169.59L82.7736 180.056L75.0781 172.665L85.2244 169.59Z" fill="#D7D8DC"/>
<path d="M75.0799 172.665L72.6291 183.082L64.9336 175.691L75.0799 172.665Z" fill="#F7F7F8"/>
<path d="M64.9275 175.689L62.4767 186.106L54.7812 178.765L64.9275 175.689Z" fill="#C3C3C9"/>
<path d="M52.3359 189.184L54.7867 178.768L62.4822 186.109L52.3359 189.184Z" fill="#F7F7F8"/>
<path d="M62.4766 186.106L64.9274 175.689L72.6228 183.08L62.4766 186.106Z" fill="#D7D8DC"/>
<path d="M72.6289 183.082L75.0797 172.665L82.7752 180.056L72.6289 183.082Z" fill="#C3C3C9"/>
<path d="M82.7734 180.056L85.2242 169.59L92.9197 176.981L82.7734 180.056Z" fill="#F7F7F8"/>
<path d="M92.918 176.981L95.3688 166.564L103.064 173.955L92.918 176.981Z" fill="#F7F7F8"/>
<path d="M103.062 173.956L105.562 163.539L113.209 170.88L103.062 173.956Z" fill="#D7D8DC"/>
<path d="M113.215 170.881L115.715 160.465L123.41 167.856L113.215 170.881Z" fill="white"/>
<path d="M123.414 167.855L125.865 157.438L133.56 164.78L123.414 167.855Z" fill="#D7D8DC"/>
<path d="M133.559 164.778L136.009 154.361L143.705 161.752L133.559 164.778Z" fill="#D7D8DC"/>
<path d="M143.703 161.752L146.154 151.336L153.849 158.727L143.703 161.752Z" fill="#F7F7F8"/>
<path d="M153.844 158.727L156.295 148.311L163.99 155.652L153.844 158.727Z" fill="#F7F7F8"/>
<path d="M163.988 155.652L166.439 145.235L174.135 152.626L163.988 155.652Z" fill="#F7F7F8"/>
<path d="M174.141 152.626L176.64 142.21L184.287 149.551L174.141 152.626Z" fill="#D7D8DC"/>
</g>
<mask id="mask25_362_242262" style="mask-type:luminance" maskUnits="userSpaceOnUse" x="41" y="97" width="226" height="182">
<path d="M229.719 97.2018L41.8945 153.567L78.3908 278.111L266.215 221.745L229.719 97.2018Z" fill="white"/>
</mask>
<g mask="url(#mask25_362_242262)">
<path d="M80.3164 190.473L82.7672 180.057L90.4627 187.398L80.3164 190.473Z" fill="#C3C3C9"/>
<path d="M90.4727 187.398L92.9234 176.981L100.619 184.372L90.4727 187.398Z" fill="#F7F7F8"/>
<path d="M100.613 184.371L103.064 173.954L110.76 181.295L100.613 184.371Z" fill="#D7D8DC"/>
<path d="M110.758 181.295L113.209 170.879L120.904 178.27L110.758 181.295Z" fill="white"/>
<path d="M120.902 178.27L123.402 167.854L131.049 175.244L120.902 178.27Z" fill="#D7D8DC"/>
<path d="M131.055 175.244L133.554 164.778L141.201 172.169L131.055 175.244Z" fill="#C3C3C9"/>
<path d="M141.199 172.168L143.699 161.752L151.394 169.143L141.199 172.168Z" fill="#D7D8DC"/>
<path d="M151.398 169.144L153.849 158.728L161.545 166.069L151.398 169.144Z" fill="#F7F7F8"/>
<path d="M161.543 166.069L163.994 155.652L171.689 163.043L161.543 166.069Z" fill="#C3C3C9"/>
<path d="M171.684 163.041L174.134 152.624L181.83 159.965L171.684 163.041Z" fill="#D7D8DC"/>
<path d="M184.287 149.55L181.836 159.966L174.141 152.625L184.287 149.55Z" fill="white"/>
<path d="M174.135 152.624L171.684 163.041L163.988 155.65L174.135 152.624Z" fill="#F7F7F8"/>
<path d="M163.99 155.652L161.539 166.069L153.844 158.728L163.99 155.652Z" fill="#D7D8DC"/>
<path d="M153.849 158.728L151.399 169.144L143.703 161.753L153.849 158.728Z" fill="white"/>
<path d="M143.705 161.752L141.205 172.168L133.559 164.778L143.705 161.752Z" fill="#F7F7F8"/>
<path d="M133.549 164.778L131.049 175.244L123.402 167.854L133.549 164.778Z" fill="#F7F7F8"/>
<path d="M123.402 167.854L120.903 178.27L113.207 170.879L123.402 167.854Z" fill="#F7F7F8"/>
<path d="M113.209 170.879L110.758 181.295L103.062 173.954L113.209 170.879Z" fill="#EDEEF0"/>
<path d="M103.064 173.954L100.613 184.371L92.918 176.98L103.064 173.954Z" fill="#EDEEF0"/>
<path d="M92.9197 176.981L90.4689 187.398L82.7734 180.057L92.9197 176.981Z" fill="#D7D8DC"/>
<path d="M82.7674 180.057L80.3166 190.473L72.6211 183.082L82.7674 180.057Z" fill="#D7D8DC"/>
</g>
<mask id="mask26_362_242262" style="mask-type:luminance" maskUnits="userSpaceOnUse" x="41" y="97" width="226" height="182">
<path d="M229.719 97.2018L41.8945 153.567L78.3908 278.111L266.215 221.745L229.719 97.2018Z" fill="white"/>
</mask>
<g mask="url(#mask26_362_242262)">
<path d="M118.453 188.686L120.904 178.27L128.599 185.66L118.453 188.686Z" fill="white"/>
<path d="M128.598 185.662L131.048 175.245L138.744 182.586L128.598 185.662Z" fill="#C3C3C9"/>
<path d="M138.742 182.584L141.193 172.168L148.888 179.559L138.742 182.584Z" fill="#D7D8DC"/>
<path d="M148.887 179.558L151.387 169.142L159.033 176.483L148.887 179.558Z" fill="#C3C3C9"/>
<path d="M159.039 176.484L161.539 166.067L169.185 173.458L159.039 176.484Z" fill="#C3C3C9"/>
<path d="M169.184 173.458L171.683 163.041L179.379 170.432L169.184 173.458Z" fill="#F7F7F8"/>
<path d="M179.383 170.433L181.834 159.967L189.529 167.358L179.383 170.433Z" fill="#F7F7F8"/>
<path d="M181.83 159.967L179.379 170.433L171.684 163.042L181.83 159.967Z" fill="white"/>
<path d="M171.689 163.041L169.189 173.458L161.543 166.067L171.689 163.041Z" fill="#D7D8DC"/>
<path d="M161.533 166.067L159.033 176.484L151.387 169.143L161.533 166.067Z" fill="#D7D8DC"/>
<path d="M151.387 169.142L148.887 179.558L141.191 172.167L151.387 169.142Z" fill="#F7F7F8"/>
<path d="M141.193 172.168L138.742 182.584L131.047 175.243L141.193 172.168Z" fill="#F7F7F8"/>
<path d="M131.049 175.245L128.598 185.662L120.902 178.271L131.049 175.245Z" fill="#F7F7F8"/>
<path d="M120.904 178.27L118.453 188.686L110.758 181.295L120.904 178.27Z" fill="#D7D8DC"/>
</g>
<mask id="mask27_362_242262" style="mask-type:luminance" maskUnits="userSpaceOnUse" x="41" y="97" width="226" height="182">
<path d="M229.719 97.2018L41.8945 153.567L78.3908 278.111L266.215 221.745L229.719 97.2018Z" fill="white"/>
</mask>
<g mask="url(#mask27_362_242262)">
<path d="M146.449 189.975L148.9 179.559L156.595 186.9L146.449 189.975Z" fill="#D7D8DC"/>
<path d="M156.59 186.901L159.041 176.484L166.736 183.875L156.59 186.901Z" fill="#F7F7F8"/>
<path d="M166.734 183.875L169.185 173.459L176.881 180.85L166.734 183.875Z" fill="#C3C3C9"/>
<path d="M176.879 180.847L179.379 170.431L187.025 177.772L176.879 180.847Z" fill="#F7F7F8"/>
<path d="M189.529 167.355L187.029 177.772L179.383 170.431L189.529 167.355Z" fill="#D7D8DC"/>
<path d="M179.379 170.431L176.879 180.847L169.184 173.456L179.379 170.431Z" fill="#F7F7F8"/>
<path d="M169.185 173.459L166.735 183.875L159.039 176.485L169.185 173.459Z" fill="#D7D8DC"/>
<path d="M159.041 176.484L156.59 186.901L148.895 179.56L159.041 176.484Z" fill="white"/>
<path d="M148.896 179.559L146.445 189.975L138.75 182.584L148.896 179.559Z" fill="#F7F7F8"/>
</g>
<mask id="mask28_362_242262" style="mask-type:luminance" maskUnits="userSpaceOnUse" x="41" y="97" width="226" height="182">
<path d="M229.719 97.2018L41.8945 153.567L78.3908 278.111L266.215 221.745L229.719 97.2018Z" fill="white"/>
</mask>
<g mask="url(#mask28_362_242262)">
<path d="M187.025 177.772L184.574 188.189L176.879 180.848L187.025 177.772Z" fill="white"/>
<path d="M176.881 180.848L174.43 191.264L166.734 183.873L176.881 180.848Z" fill="#D7D8DC"/>
<path d="M174.422 191.264L176.873 180.848L184.568 188.189L174.422 191.264Z" fill="#F7F7F8"/>
</g>
<mask id="mask29_362_242262" style="mask-type:luminance" maskUnits="userSpaceOnUse" x="41" y="97" width="226" height="182">
<path d="M229.719 97.2018L41.8945 153.567L78.3908 278.111L266.215 221.745L229.719 97.2018Z" fill="white"/>
</mask>
<g mask="url(#mask29_362_242262)">
</g>
<mask id="mask30_362_242262" style="mask-type:luminance" maskUnits="userSpaceOnUse" x="41" y="97" width="226" height="182">
<path d="M229.719 97.2018L41.8945 153.567L78.3908 278.111L266.215 221.745L229.719 97.2018Z" fill="white"/>
</mask>
<g mask="url(#mask30_362_242262)">
</g>
</g>
<mask id="mask31_362_242262" style="mask-type:luminance" maskUnits="userSpaceOnUse" x="-147" y="-53" width="384" height="311">
<path d="M173.225 -52.4307L-146.129 43.4062L-83.2673 257.922L236.086 162.085L173.225 -52.4307Z" fill="white"/>
</mask>
<g mask="url(#mask31_362_242262)">
<mask id="mask32_362_242262" style="mask-type:luminance" maskUnits="userSpaceOnUse" x="-219" y="-96" width="225" height="182">
<path d="M-31.0777 -95.5394L-218.902 -39.1738L-182.406 85.3697L5.41855 29.0041L-31.0777 -95.5394Z" fill="white"/>
</mask>
<g mask="url(#mask32_362_242262)">
<path d="M0.179671 11.2109L-2.41817 2.33203L-4.91797 12.7485L0.179671 11.2109Z" fill="#D7D8DC"/>
</g>
<mask id="mask33_362_242262" style="mask-type:luminance" maskUnits="userSpaceOnUse" x="-219" y="-96" width="225" height="182">
<path d="M-31.0777 -95.5394L-218.902 -39.1738L-182.406 85.3697L5.41855 29.0041L-31.0777 -95.5394Z" fill="white"/>
</mask>
<g mask="url(#mask33_362_242262)">
<path d="M0.179671 11.21L2.7775 20.1384L-4.91797 12.7476L0.179671 11.21Z" fill="#D7D8DC"/>
<path d="M-7.37109 23.1655L-4.92031 12.749L2.77517 20.1398L-7.37109 23.1655Z" fill="#C3C3C9"/>
</g>
<mask id="mask34_362_242262" style="mask-type:luminance" maskUnits="userSpaceOnUse" x="-219" y="-96" width="225" height="182">
<path d="M-31.0777 -95.5394L-218.902 -39.1738L-182.406 85.3697L5.41855 29.0041L-31.0777 -95.5394Z" fill="white"/>
</mask>
<g mask="url(#mask34_362_242262)">
<path d="M5.37284 29.0165L2.77501 20.1377L0.324219 30.5542L5.37284 29.0165Z" fill="white"/>
<path d="M-9.82031 33.5806L-7.36952 23.1641L0.325948 30.5548L-9.82031 33.5806Z" fill="#C3C3C9"/>
<path d="M2.77517 20.1377L0.324378 30.5542L-7.37109 23.1634L2.77517 20.1377Z" fill="#C3C3C9"/>
</g>
</g>
<mask id="mask35_362_242262" style="mask-type:luminance" maskUnits="userSpaceOnUse" x="-147" y="-53" width="384" height="311">
<path d="M173.225 -52.4307L-146.129 43.4062L-83.2673 257.922L236.086 162.085L173.225 -52.4307Z" fill="white"/>
</mask>
<g mask="url(#mask35_362_242262)">
<mask id="mask36_362_242262" style="mask-type:luminance" maskUnits="userSpaceOnUse" x="-183" y="29" width="225" height="181">
<path d="M5.37933 29.0143L-182.445 85.3799L-145.949 209.923L41.8756 153.558L5.37933 29.0143Z" fill="white"/>
</mask>
<g mask="url(#mask36_362_242262)">
<path d="M5.36112 29.0166L7.95896 37.8954L0.3125 30.5543L5.36112 29.0166Z" fill="#D7D8DC"/>
<path d="M-2.1875 40.9712L0.312303 30.5547L7.95876 37.8958L-2.1875 40.9712Z" fill="white"/>
<path d="M0.314229 30.5547L-2.18557 40.9712L-9.83203 33.5804L0.314229 30.5547Z" fill="#D7D8DC"/>
</g>
<mask id="mask37_362_242262" style="mask-type:luminance" maskUnits="userSpaceOnUse" x="-183" y="29" width="225" height="181">
<path d="M5.37933 29.0143L-182.445 85.3799L-145.949 209.923L41.8756 153.558L5.37933 29.0143Z" fill="white"/>
</mask>
<g mask="url(#mask37_362_242262)">
<path d="M10.6172 46.823L7.97032 37.8945L5.51953 48.311L10.6172 46.823Z" fill="white"/>
<path d="M-4.625 51.3862L-2.17421 40.9697L5.52126 48.3109L-4.625 51.3862Z" fill="#C3C3C9"/>
<path d="M7.97048 37.8945L5.51969 48.311L-2.17578 40.9699L7.97048 37.8945Z" fill="#C3C3C9"/>
</g>
<mask id="mask38_362_242262" style="mask-type:luminance" maskUnits="userSpaceOnUse" x="-183" y="29" width="225" height="181">
<path d="M5.37933 29.0143L-182.445 85.3799L-145.949 209.923L41.8756 153.558L5.37933 29.0143Z" fill="white"/>
</mask>
<g mask="url(#mask38_362_242262)">
<path d="M10.6172 46.8223L13.215 55.7011L5.51953 48.3103L10.6172 46.8223Z" fill="#F7F7F8"/>
<path d="M-7.08203 61.8032L-4.63124 51.3867L3.06423 58.7279L-7.08203 61.8032Z" fill="#F7F7F8"/>
<path d="M3.0625 58.729L5.51329 48.3125L13.2088 55.7033L3.0625 58.729Z" fill="#C3C3C9"/>
<path d="M5.50954 48.3125L3.05875 58.729L-4.63672 51.3879L5.50954 48.3125Z" fill="#D7D8DC"/>
</g>
<mask id="mask39_362_242262" style="mask-type:luminance" maskUnits="userSpaceOnUse" x="-183" y="29" width="225" height="181">
<path d="M5.37933 29.0143L-182.445 85.3799L-145.949 209.923L41.8756 153.558L5.37933 29.0143Z" fill="white"/>
</mask>
<g mask="url(#mask39_362_242262)">
<path d="M13.2088 55.7012L10.709 66.1177L3.0625 58.7269L13.2088 55.7012Z" fill="#EDEEF0"/>
<path d="M3.06423 58.7266L0.564426 69.1927L-7.08203 61.8019L3.06423 58.7266Z" fill="#D7D8DC"/>
<path d="M15.8047 64.58L13.2068 55.7012L10.707 66.1177L15.8047 64.58Z" fill="#D7D8DC"/>
<path d="M-9.58203 72.2183L-7.08223 61.8018L0.564229 69.1925L-9.58203 72.2183Z" fill="#F7F7F8"/>
<path d="M0.5625 69.1927L3.0623 58.7266L10.7088 66.1173L0.5625 69.1927Z" fill="#C3C3C9"/>
</g>
<mask id="mask40_362_242262" style="mask-type:luminance" maskUnits="userSpaceOnUse" x="-183" y="29" width="225" height="181">
<path d="M5.37933 29.0143L-182.445 85.3799L-145.949 209.923L41.8756 153.558L5.37933 29.0143Z" fill="white"/>
</mask>
<g mask="url(#mask40_362_242262)">
<path d="M15.8125 64.583L18.4103 73.5114L10.7148 66.1207L15.8125 64.583Z" fill="#D7D8DC"/>
<path d="M-1.88281 79.6128L0.567975 69.1963L8.26345 76.5374L-1.88281 79.6128Z" fill="#AEADB3"/>
<path d="M8.25781 76.5376L10.7086 66.1211L18.4041 73.5119L8.25781 76.5376Z" fill="#C3C3C9"/>
<path d="M10.7088 66.1211L8.25798 76.5376L0.5625 69.1964L10.7088 66.1211Z" fill="#D7D8DC"/>
<path d="M0.564229 69.1963L-1.88656 79.6128L-9.58203 72.222L0.564229 69.1963Z" fill="#C3C3C9"/>
</g>
<mask id="mask41_362_242262" style="mask-type:luminance" maskUnits="userSpaceOnUse" x="-183" y="29" width="225" height="181">
<path d="M5.37933 29.0143L-182.445 85.3799L-145.949 209.923L41.8756 153.558L5.37933 29.0143Z" fill="white"/>
</mask>
<g mask="url(#mask41_362_242262)">
<path d="M21.0057 82.3886L18.4078 73.5098L15.957 83.9263L21.0057 82.3886Z" fill="white"/>
<path d="M-4.34375 90.0269L-1.89296 79.6104L5.80251 86.9515L-4.34375 90.0269Z" fill="#AEADB3"/>
<path d="M5.8125 86.9526L8.26329 76.5361L15.9588 83.9269L5.8125 86.9526Z" fill="white"/>
<path d="M18.4041 73.5098L15.9533 83.9263L8.25781 76.5355L18.4041 73.5098Z" fill="#C3C3C9"/>
<path d="M8.26345 76.5361L5.81266 86.9526L-1.88281 79.6115L8.26345 76.5361Z" fill="#D7D8DC"/>
</g>
<mask id="mask42_362_242262" style="mask-type:luminance" maskUnits="userSpaceOnUse" x="-183" y="29" width="225" height="181">
<path d="M5.37933 29.0143L-182.445 85.3799L-145.949 209.923L41.8756 153.558L5.37933 29.0143Z" fill="white"/>
</mask>
<g mask="url(#mask42_362_242262)">
<path d="M21.0057 82.3887L23.6525 91.3171L15.957 83.9263L21.0057 82.3887Z" fill="#D7D8DC"/>
<path d="M-6.83203 100.444L-4.33223 90.0273L3.31423 97.3685L-6.83203 100.444Z" fill="#D7D8DC"/>
<path d="M3.3125 97.3687L5.81231 86.9521L13.4588 94.3429L3.3125 97.3687Z" fill="#F7F7F8"/>
<path d="M13.4531 94.3442L15.9529 83.9277L23.6484 91.3185L13.4531 94.3442Z" fill="#C3C3C9"/>
<path d="M15.9588 83.9277L13.459 94.3442L5.8125 86.9535L15.9588 83.9277Z" fill="#D7D8DC"/>
<path d="M5.81423 86.9521L3.31443 97.3687L-4.33203 90.0275L5.81423 86.9521Z" fill="#C3C3C9"/>
</g>
<mask id="mask43_362_242262" style="mask-type:luminance" maskUnits="userSpaceOnUse" x="-183" y="29" width="225" height="181">
<path d="M5.37933 29.0143L-182.445 85.3799L-145.949 209.923L41.8756 153.558L5.37933 29.0143Z" fill="white"/>
</mask>
<g mask="url(#mask43_362_242262)">
<path d="M23.6484 91.3164L21.1486 101.733L13.4531 94.3422L23.6484 91.3164Z" fill="#EDEEF0"/>
<path d="M13.4588 94.3418L11.008 104.758L3.3125 97.3675L13.4588 94.3418Z" fill="#D7D8DC"/>
<path d="M3.31423 97.3672L0.863441 107.833L-6.83203 100.443L3.31423 97.3672Z" fill="#C3C3C9"/>
<path d="M26.25 100.195L23.6521 91.3164L21.1523 101.733L26.25 100.195Z" fill="#D7D8DC"/>
<path d="M-9.28906 110.858L-6.83827 100.441L0.857198 107.832L-9.28906 110.858Z" fill="#D7D8DC"/>
<path d="M0.867188 107.833L3.31798 97.3672L11.0135 104.758L0.867188 107.833Z" fill="#F7F7F8"/>
<path d="M11.0078 104.758L13.4586 94.3418L21.1541 101.733L11.0078 104.758Z" fill="#C3C3C9"/>
</g>
<mask id="mask44_362_242262" style="mask-type:luminance" maskUnits="userSpaceOnUse" x="-183" y="29" width="225" height="181">
<path d="M5.37933 29.0143L-182.445 85.3799L-145.949 209.923L41.8756 153.558L5.37933 29.0143Z" fill="white"/>
</mask>
<g mask="url(#mask44_362_242262)">
<path d="M26.25 100.194L28.8478 109.073L21.1523 101.732L26.25 100.194Z" fill="#D7D8DC"/>
<path d="M-1.59375 118.25L0.857038 107.834L8.55251 115.175L-1.59375 118.25Z" fill="#D7D8DC"/>
<path d="M8.55078 115.175L11.0016 104.759L18.697 112.15L8.55078 115.175Z" fill="#D7D8DC"/>
<path d="M18.6953 112.151L21.1461 101.734L28.8416 109.076L18.6953 112.151Z" fill="#C3C3C9"/>
<path d="M21.1424 101.734L18.6916 112.151L10.9961 104.76L21.1424 101.734Z" fill="#D7D8DC"/>
<path d="M10.9978 104.759L8.54704 115.175L0.851562 107.834L10.9978 104.759Z" fill="#C3C3C9"/>
<path d="M0.857198 107.834L-1.59359 118.25L-9.28906 110.86L0.857198 107.834Z" fill="#F7F7F8"/>
</g>
<mask id="mask45_362_242262" style="mask-type:luminance" maskUnits="userSpaceOnUse" x="-183" y="29" width="225" height="181">
<path d="M5.37933 29.0143L-182.445 85.3799L-145.949 209.923L41.8756 153.558L5.37933 29.0143Z" fill="white"/>
</mask>
<g mask="url(#mask45_362_242262)">
<path d="M31.451 118.002L28.8531 109.073L26.4023 119.49L31.451 118.002Z" fill="white"/>
<path d="M-4.09375 128.665L-1.59395 118.248L6.05251 125.589L-4.09375 128.665Z" fill="#D7D8DC"/>
<path d="M6.05859 125.59L8.5584 115.174L16.2049 122.565L6.05859 125.59Z" fill="#AEADB3"/>
<path d="M16.2031 122.565L18.7029 112.148L26.3984 119.49L16.2031 122.565Z" fill="#C3C3C9"/>
<path d="M28.8494 109.073L26.3986 119.49L18.7031 112.149L28.8494 109.073Z" fill="white"/>
<path d="M18.7088 112.148L16.209 122.565L8.5625 115.174L18.7088 112.148Z" fill="#D7D8DC"/>
<path d="M8.55251 115.174L6.05271 125.59L-1.59375 118.249L8.55251 115.174Z" fill="#C3C3C9"/>
</g>
<mask id="mask46_362_242262" style="mask-type:luminance" maskUnits="userSpaceOnUse" x="-183" y="29" width="225" height="181">
<path d="M5.37933 29.0143L-182.445 85.3799L-145.949 209.923L41.8756 153.558L5.37933 29.0143Z" fill="white"/>
</mask>
<g mask="url(#mask46_362_242262)">
<path d="M31.4392 118.004L34.0371 126.883L26.3906 119.492L31.4392 118.004Z" fill="#F7F7F8"/>
<path d="M-6.53906 139.084L-4.08827 128.668L3.6072 136.009L-6.53906 139.084Z" fill="#EDEEF0"/>
<path d="M3.60547 136.01L6.05626 125.594L13.7517 132.985L3.60547 136.01Z" fill="#D7D8DC"/>
<path d="M13.7461 132.984L16.1969 122.567L23.8924 129.958L13.7461 132.984Z" fill="#D7D8DC"/>
<path d="M23.8906 129.959L26.3904 119.493L34.0369 126.884L23.8906 129.959Z" fill="#C3C3C9"/>
<path d="M26.3906 119.493L23.8908 129.959L16.1953 122.569L26.3906 119.493Z" fill="#D7D8DC"/>
<path d="M16.197 122.567L13.7463 132.984L6.05078 125.593L16.197 122.567Z" fill="#F7F7F8"/>
<path d="M6.05251 125.594L3.60173 136.01L-4.09375 128.669L6.05251 125.594Z" fill="#F7F7F8"/>
</g>
<mask id="mask47_362_242262" style="mask-type:luminance" maskUnits="userSpaceOnUse" x="-183" y="29" width="225" height="181">
<path d="M5.37933 29.0143L-182.445 85.3799L-145.949 209.923L41.8756 153.558L5.37933 29.0143Z" fill="white"/>
</mask>
<g mask="url(#mask47_362_242262)">
<path d="M34.0447 126.883L31.5939 137.299L23.8984 129.958L34.0447 126.883Z" fill="#EDEEF0"/>
<path d="M23.9041 129.957L21.4533 140.374L13.7578 132.983L23.9041 129.957Z" fill="#D7D8DC"/>
<path d="M13.7517 132.982L11.3009 143.399L3.60547 136.008L13.7517 132.982Z" fill="#C3C3C9"/>
<path d="M3.6072 136.008L1.15641 146.424L-6.53906 139.083L3.6072 136.008Z" fill="#C3C3C9"/>
<path d="M36.6463 135.762L34.0484 126.883L31.5977 137.299L36.6463 135.762Z" fill="#D7D8DC"/>
<path d="M-9.03906 149.501L-6.53926 139.085L1.15622 146.426L-9.03906 149.501Z" fill="#EDEEF0"/>
<path d="M1.15625 146.424L3.60704 136.008L11.3025 143.399L1.15625 146.424Z" fill="#D7D8DC"/>
<path d="M11.3008 143.399L13.7516 132.982L21.447 140.373L11.3008 143.399Z" fill="#F7F7F8"/>
<path d="M21.4531 140.374L23.9039 129.957L31.5994 137.298L21.4531 140.374Z" fill="#C3C3C9"/>
</g>
<mask id="mask48_362_242262" style="mask-type:luminance" maskUnits="userSpaceOnUse" x="-183" y="29" width="225" height="181">
<path d="M5.37933 29.0143L-182.445 85.3799L-145.949 209.923L41.8756 153.558L5.37933 29.0143Z" fill="white"/>
</mask>
<g mask="url(#mask48_362_242262)">
<path d="M36.6463 135.761L39.2931 144.689L31.5977 137.298L36.6463 135.761Z" fill="#D7D8DC"/>
<path d="M-1.34375 156.891L1.15606 146.425L8.80251 153.816L-1.34375 156.891Z" fill="#EDEEF0"/>
<path d="M8.80078 153.817L11.3006 143.4L18.947 150.791L8.80078 153.817Z" fill="#D7D8DC"/>
<path d="M18.9453 150.791L21.4451 140.374L29.1406 147.715L18.9453 150.791Z" fill="#AEADB3"/>
<path d="M29.1406 147.716L31.5914 137.3L39.2869 144.691L29.1406 147.716Z" fill="#C3C3C9"/>
<path d="M31.5916 137.3L29.1408 147.716L21.4453 140.375L31.5916 137.3Z" fill="#D7D8DC"/>
<path d="M21.447 140.374L18.9472 150.791L11.3008 143.4L21.447 140.374Z" fill="#C3C3C9"/>
<path d="M11.3025 143.4L8.80271 153.817L1.15625 146.426L11.3025 143.4Z" fill="#F7F7F8"/>
<path d="M1.15622 146.425L-1.34359 156.891L-9.03906 149.5L1.15622 146.425Z" fill="#D7D8DC"/>
</g>
<mask id="mask49_362_242262" style="mask-type:luminance" maskUnits="userSpaceOnUse" x="-183" y="29" width="225" height="181">
<path d="M5.37933 29.0143L-182.445 85.3799L-145.949 209.923L41.8756 153.558L5.37933 29.0143Z" fill="white"/>
</mask>
<g mask="url(#mask49_362_242262)">
<path d="M41.8828 153.567L39.285 144.688L36.7852 155.105L41.8828 153.567Z" fill="white"/>
<path d="M-3.80078 167.308L-1.34999 156.892L6.34548 164.233L-3.80078 167.308Z" fill="#AEADB3"/>
<path d="M6.33984 164.231L8.79063 153.814L16.4861 161.205L6.33984 164.231Z" fill="#D7D8DC"/>
<path d="M16.4961 161.206L18.9469 150.789L26.6424 158.13L16.4961 161.206Z" fill="#F7F7F8"/>
<path d="M26.6406 158.13L29.1404 147.714L36.7869 155.105L26.6406 158.13Z" fill="#C3C3C9"/>
<path d="M39.2869 144.688L36.7871 155.105L29.1406 147.714L39.2869 144.688Z" fill="#C3C3C9"/>
<path d="M29.1406 147.714L26.6408 158.13L18.9453 150.789L29.1406 147.714Z" fill="#D7D8DC"/>
<path d="M18.947 150.789L16.4963 161.206L8.80078 153.815L18.947 150.789Z" fill="#C3C3C9"/>
<path d="M8.7908 153.814L6.34001 164.231L-1.35547 156.89L8.7908 153.814Z" fill="#F7F7F8"/>
</g>
</g>
<mask id="mask50_362_242262" style="mask-type:luminance" maskUnits="userSpaceOnUse" x="-147" y="-53" width="384" height="311">
<path d="M173.225 -52.4307L-146.129 43.4062L-83.2673 257.922L236.086 162.085L173.225 -52.4307Z" fill="white"/>
</mask>
<g mask="url(#mask50_362_242262)">
<mask id="mask51_362_242262" style="mask-type:luminance" maskUnits="userSpaceOnUse" x="-146" y="153" width="225" height="182">
<path d="M41.895 153.554L-145.93 209.92L-109.433 334.463L78.3912 278.098L41.895 153.554Z" fill="white"/>
</mask>
<g mask="url(#mask51_362_242262)">
<path d="M41.8906 153.567L44.4884 162.496L36.793 155.105L41.8906 153.567Z" fill="#D7D8DC"/>
<path d="M-6.29297 177.723L-3.79317 167.307L3.90231 174.648L-6.29297 177.723Z" fill="#D7D8DC"/>
<path d="M3.90625 174.648L6.35704 164.231L14.0525 171.622L3.90625 174.648Z" fill="#EDEEF0"/>
<path d="M14.0508 171.623L16.5016 161.206L24.197 168.547L14.0508 171.623Z" fill="#D7D8DC"/>
<path d="M24.1953 168.547L26.6461 158.131L34.3416 165.522L24.1953 168.547Z" fill="#F7F7F8"/>
<path d="M34.3359 165.522L36.7867 155.105L44.4822 162.496L34.3359 165.522Z" fill="white"/>
<path d="M36.7869 155.105L34.3361 165.522L26.6406 158.131L36.7869 155.105Z" fill="#D7D8DC"/>
<path d="M26.6424 158.131L24.1916 168.547L16.4961 161.206L26.6424 158.131Z" fill="#C3C3C9"/>
<path d="M16.5017 161.206L14.0509 171.623L6.35547 164.232L16.5017 161.206Z" fill="#F7F7F8"/>
<path d="M6.3572 164.231L3.90641 174.648L-3.78906 167.307L6.3572 164.231Z" fill="#D7D8DC"/>
</g>
<mask id="mask52_362_242262" style="mask-type:luminance" maskUnits="userSpaceOnUse" x="-146" y="153" width="225" height="182">
<path d="M41.895 153.554L-145.93 209.92L-109.433 334.463L78.3912 278.098L41.895 153.554Z" fill="white"/>
</mask>
<g mask="url(#mask52_362_242262)">
<path d="M47.0838 171.374L44.4859 162.495L42.0352 172.912L47.0838 171.374Z" fill="white"/>
<path d="M-8.75 188.14L-6.29921 177.724L1.39626 185.065L-8.75 188.14Z" fill="#D7D8DC"/>
<path d="M1.39453 185.065L3.89433 174.648L11.5408 182.039L1.39453 185.065Z" fill="#EDEEF0"/>
<path d="M11.5391 182.038L14.0389 171.621L21.6853 179.012L11.5391 182.038Z" fill="#D7D8DC"/>
<path d="M21.6914 179.012L24.1912 168.546L31.8867 175.937L21.6914 179.012Z" fill="#AEADB3"/>
<path d="M31.8906 175.937L34.3414 165.521L42.0369 172.911L31.8906 175.937Z" fill="#C3C3C9"/>
<path d="M44.4822 162.495L42.0314 172.912L34.3359 165.521L44.4822 162.495Z" fill="#C3C3C9"/>
<path d="M34.3416 165.521L31.8908 175.937L24.1953 168.546L34.3416 165.521Z" fill="#D7D8DC"/>
<path d="M24.1853 168.546L21.6855 179.012L14.0391 171.621L24.1853 168.546Z" fill="#C3C3C9"/>
<path d="M14.0408 171.621L11.541 182.038L3.89453 174.647L14.0408 171.621Z" fill="#C3C3C9"/>
<path d="M3.8945 174.648L1.39469 185.065L-6.30078 177.724L3.8945 174.648Z" fill="#F7F7F8"/>
</g>
<mask id="mask53_362_242262" style="mask-type:luminance" maskUnits="userSpaceOnUse" x="-146" y="153" width="225" height="182">
<path d="M41.895 153.554L-145.93 209.92L-109.433 334.463L78.3912 278.098L41.895 153.554Z" fill="white"/>
</mask>
<g mask="url(#mask53_362_242262)">
<path d="M47.0838 171.376L49.6816 180.255L42.0352 172.914L47.0838 171.376Z" fill="#F7F7F8"/>
<path d="M19.2461 189.432L21.6969 179.016L29.3924 186.357L19.2461 189.432Z" fill="#D7D8DC"/>
<path d="M29.3867 186.357L31.8865 175.94L39.533 183.331L29.3867 186.357Z" fill="#F7F7F8"/>
<path d="M39.5312 183.332L42.0311 172.915L49.6775 180.256L39.5312 183.332Z" fill="#C3C3C9"/>
<path d="M42.0369 172.915L39.5371 183.332L31.8906 175.941L42.0369 172.915Z" fill="#D7D8DC"/>
<path d="M31.8867 175.94L29.3869 186.357L21.6914 179.016L31.8867 175.94Z" fill="#C3C3C9"/>
<path d="M21.6931 179.016L19.2423 189.432L11.5469 182.041L21.6931 179.016Z" fill="#F7F7F8"/>
</g>
<mask id="mask54_362_242262" style="mask-type:luminance" maskUnits="userSpaceOnUse" x="-146" y="153" width="225" height="182">
<path d="M41.895 153.554L-145.93 209.92L-109.433 334.463L78.3912 278.098L41.895 153.554Z" fill="white"/>
</mask>
<g mask="url(#mask54_362_242262)">
<path d="M49.6775 180.254L47.2267 190.67L39.5312 183.329L49.6775 180.254Z" fill="#EDEEF0"/>
<path d="M52.3281 189.182L49.6813 180.254L47.2305 190.67L52.3281 189.182Z" fill="#D7D8DC"/>
</g>
</g>
<path d="M91.3796 127.28L67.9444 142.082L86.4502 96.0404L40.7109 114.931L55.661 92.0332L40.7917 68.3992L86.4502 87.0447L67.9444 41.0034L91.2988 55.9689L113.845 40.8398L95.3394 87.1265L140.917 68.3174L126.129 91.0519L140.755 114.849L95.2586 96.0404L113.845 142.327L91.3796 127.28Z" fill="#BC242C"/>
<path d="M110.781 44.6872L92.7598 89.829L137.206 71.5106L124.438 91.1374L137.206 111.827L92.679 93.4272L110.781 138.487L91.4668 125.566L71.0216 138.487L89.1233 93.4272L44.5154 111.827L57.4453 92.1187L44.5154 71.5923L89.1233 89.829L71.0216 44.769L91.386 57.8535L110.781 44.6872ZM116.922 37L109.165 42.2338L91.3052 54.2553L72.557 42.2338L64.9607 37.3271L68.3548 45.7503L83.8706 84.4316L45.6468 68.8119L37.2424 65.3772L42.0911 73.0643L54.0512 91.9552L42.1719 110.11L37 118.043L45.6468 114.444L83.9514 98.661L68.4356 137.261L65.0415 145.602L72.6378 140.859L91.5476 128.919L109.326 140.777L117.084 145.929L113.609 137.179L98.0934 98.4975L136.317 114.281L144.56 117.715L139.873 110.028L127.832 91.1374L139.55 73.1461L144.641 65.2954L135.994 68.8936L97.8509 84.5951L113.367 45.9139L116.922 37Z" fill="white"/>
</g>
<defs>
<clipPath id="clip0_362_242262">
<rect width="181" height="181" fill="white"/>
</clipPath>
</defs>
</svg>
