<svg width="181" height="181" viewBox="0 0 181 181" fill="none" xmlns="http://www.w3.org/2000/svg">
<g clip-path="url(#clip0_263_21896)">
<rect width="181" height="181" fill="white"/>
<mask id="mask0_263_21896" style="mask-type:luminance" maskUnits="userSpaceOnUse" x="67" y="22" width="96" height="94">
<path d="M67.6111 63.0482L124.903 22.1821L162.275 74.5294L104.983 115.396L67.6111 63.0482Z" fill="white"/>
</mask>
<g mask="url(#mask0_263_21896)">
<path d="M112.131 56.9509C104.564 59.5076 94.5909 63.71 84.3127 67.5931C90.0108 70.2179 95.6243 72.6829 100.089 74.6855C114.569 68.7881 125.684 65.4849 125.684 65.4849C125.684 65.4849 123.875 70.1404 116.063 81.8648C119.831 83.534 124.504 85.4967 127.52 86.4429C138.538 71.3518 145.573 57.5613 140.856 52.8471C140.041 52.0301 139.006 51.1357 135.934 51.1357C132.171 51.1357 125.345 52.4786 112.131 56.9509Z" fill="url(#paint0_linear_263_21896)"/>
</g>
<mask id="mask1_263_21896" style="mask-type:luminance" maskUnits="userSpaceOnUse" x="83" y="80" width="50" height="50">
<path d="M83.3452 99.0053L113.261 80.2221L132.326 110.561L102.41 129.344L83.3452 99.0053Z" fill="white"/>
</mask>
<g mask="url(#mask1_263_21896)">
<path d="M95.3401 115.125C99.1991 118.093 102.079 116.529 105.109 114.282C105.13 114.27 104.806 114.573 104.225 115.095C108.244 111.707 113.228 106.488 120.333 97.7661C116.582 95.5146 112.838 93.289 109.782 91.4742L95.3401 115.125Z" fill="url(#paint1_linear_263_21896)"/>
</g>
<mask id="mask2_263_21896" style="mask-type:luminance" maskUnits="userSpaceOnUse" x="-14" y="0" width="195" height="195">
<path d="M80.2696 194.118L-14 94.8225L85.9662 4.57764e-05L180.236 99.2957L80.2696 194.118Z" fill="white"/>
</mask>
<g mask="url(#mask2_263_21896)">
<path d="M43.4678 54.3498C43.1907 54.3686 42.9582 54.3851 42.7139 54.3686C42.4086 54.3522 41.8426 54.8147 41.8426 54.8147C28.6967 62.5175 67.7986 124.913 85.1558 136.461C87.5656 138.062 91.9601 139.795 95.819 138.539C96.2677 138.388 97.2494 137.654 97.294 137.6C97.3669 137.524 108.824 124.26 108.822 124.243C108.681 123.185 107.607 123.819 107.476 123.908C103.009 127.143 99.0908 125.335 87.0371 113.129C74.2012 100.151 61.7575 77.4325 61.7575 77.4325L119.584 103.384C123.422 105.1 125.575 104.126 126.691 103.405C126.994 103.208 137.469 90.6431 137.469 90.6431C137.54 89.7744 136.567 90.251 136.567 90.251C133.192 92.3569 130.62 90.791 125.174 88.6029C121.488 87.1379 82.7272 70.0631 68.9143 63.5364C51.2094 55.1669 46.331 54.324 44.1749 54.324C43.9001 54.324 43.6722 54.3357 43.4678 54.3498Z" fill="url(#paint2_linear_263_21896)"/>
</g>
</g>
<defs>
<linearGradient id="paint0_linear_263_21896" x1="53.8517" y1="114.155" x2="129.529" y2="60.1277" gradientUnits="userSpaceOnUse">
<stop stop-color="#1D294D"/>
<stop offset="0.00551409" stop-color="#1D294D"/>
<stop offset="0.500051" stop-color="#1F5DA2"/>
<stop offset="0.557634" stop-color="#1F5DA2"/>
<stop offset="1" stop-color="#4EBDE6"/>
</linearGradient>
<linearGradient id="paint1_linear_263_21896" x1="75.5511" y1="123.033" x2="151.569" y2="75.2616" gradientUnits="userSpaceOnUse">
<stop stop-color="#1D294D"/>
<stop offset="0.770054" stop-color="#2763A5"/>
<stop offset="1" stop-color="#2763A5"/>
</linearGradient>
<linearGradient id="paint2_linear_263_21896" x1="116.444" y1="119.437" x2="48.7638" y2="48.0855" gradientUnits="userSpaceOnUse">
<stop stop-color="#1D294D"/>
<stop offset="0.18516" stop-color="#1F5DA2"/>
<stop offset="0.295092" stop-color="#1F5DA2"/>
<stop offset="0.700188" stop-color="#4EBDE6"/>
<stop offset="0.903858" stop-color="#4EBDE6"/>
<stop offset="1" stop-color="#4EBDE6"/>
</linearGradient>
<clipPath id="clip0_263_21896">
<rect width="181" height="181" fill="white"/>
</clipPath>
</defs>
</svg>
