<svg width="181" height="181" viewBox="0 0 181 181" fill="none" xmlns="http://www.w3.org/2000/svg">
<rect width="181" height="181" fill="#240852"/>
<path d="M104.079 112.178C96.1123 103.971 89.0436 100.598 83.153 99.0802H83.3213C94.878 97.3937 104.415 86.4881 104.415 74.6268C104.415 61.6974 93.5877 50.1171 80.6845 50.1171H51.6243C52.3536 48.6556 55.6635 44.833 58.3003 42.6968C63.4615 38.5931 69.5204 35.951 75.8598 34.5457C87.8654 31.7911 100.769 33.7024 110.923 40.8417C118.889 46.3508 124.78 55.1203 126.295 64.7892C127.08 69.455 126.912 75.47 127.08 80.2482C127.136 85.3076 127.192 90.929 127.192 95.9321C127.192 102.903 127.585 109.817 127.36 116.788C127.248 119.036 127.136 121.285 126.687 123.477L127.024 123.646C127.697 121.454 128.034 119.205 128.314 116.956C129.043 109.986 129.156 102.959 129.324 95.9321C129.324 89.1864 129.941 67.5437 129.661 64.3957C128.763 49.3301 120.348 34.883 106.771 27.7437C99.9271 24.0335 91.9608 22.5157 84.2189 23.1341C68.3423 24.4832 57.1221 36.1759 50.8949 50.0609L50.6705 50.5107H64.8641C77.8234 51.2414 94.8219 55.064 94.8219 74.5706C94.8219 94.0771 77.599 98.1245 64.6958 98.8553H56.0001V99.305H64.808C67.4447 99.4175 79.1698 100.823 93.5877 116.732C104.696 129.043 120.011 135.226 136 129.043C119.899 133.54 115.579 124.04 104.079 112.178ZM96.2806 148.156C93.3072 148.549 90.3339 148.662 87.3605 148.605C73.728 148.493 60.0394 141.354 53.0268 129.436C50.1095 124.545 48.4826 118.98 48.0899 113.302C47.9777 110.773 47.8655 108.187 47.8094 105.657C47.6411 99.6985 47.7533 91.3225 47.6411 85.2514C47.6411 79.3488 47.3045 70.6917 47.3606 64.9016C47.4728 62.5968 47.585 60.2358 48.0338 57.9872H47.7533C47.0801 60.2358 46.5752 62.4844 46.2947 64.7892C45.3971 70.6355 45.5654 79.2926 45.4532 85.2514C45.4532 91.2663 44.9483 112.459 45.0044 116.001C45.341 128.705 51.1194 141.41 60.9931 149.561C71.1474 158.049 85.7897 161.422 98.4685 157.15C107.95 153.721 115.411 146.244 120.236 137.643L119.899 137.475C113.896 144.108 104.808 147.144 96.2806 148.156Z" fill="white"/>
</svg>
