<svg width="181" height="181" viewBox="0 0 181 181" fill="none" xmlns="http://www.w3.org/2000/svg">
<rect width="181" height="181" fill="#24346B"/>
<path d="M20.0407 98.7152C20.189 98.6209 20.3171 98.5602 20.425 98.5333C57.3245 88.8853 80.6365 82.9978 111.525 74.0534C116.8 72.5249 124.255 72.8848 129.659 73.7178C135.352 74.5912 141.08 75.8528 146.843 77.5026C146.866 77.5094 146.886 77.523 146.901 77.5415C146.915 77.56 146.924 77.5825 146.926 77.6062C146.928 77.6298 146.922 77.6535 146.91 77.6739C146.898 77.6944 146.881 77.7108 146.859 77.7209C137.545 81.9397 127.769 85.5116 117.532 88.4364C108.022 91.1537 98.2611 93.4586 88.48 94.5827C71.6321 96.5196 54.3109 98.2987 38.2033 98.8365C32.2367 99.0387 26.881 98.9659 20.0852 98.8689C20.0667 98.8684 20.0487 98.862 20.0339 98.8507C20.0191 98.8393 20.0083 98.8237 20.0032 98.8062C19.9982 98.7887 19.9991 98.7704 20.0059 98.7539C20.0126 98.7375 20.0249 98.7239 20.0407 98.7152Z" fill="#FAC20F"/>
<path d="M34.7388 108.637C36.1222 108.447 37.9344 108.274 39.6536 107.93C50.4378 105.795 60.2958 102.463 72.864 98.5204C72.9877 98.4801 73.1165 98.453 73.2483 98.4396C83.6766 97.2427 93.5992 95.7115 103.016 93.846C111.325 92.2016 118.928 90.2378 125.827 87.9545C129.796 86.639 133.523 85.0634 137.007 83.2276C137.235 83.1084 137.49 83.0512 137.748 83.0618C145.632 83.4176 153.698 85.2736 161.367 87.4814C161.382 87.485 161.395 87.4931 161.405 87.5047C161.415 87.5162 161.421 87.5306 161.423 87.5458C161.424 87.561 161.42 87.5762 161.413 87.5893C161.405 87.6025 161.393 87.6128 161.379 87.6189C160.667 87.9747 160.287 88.1634 160.238 88.185C146.221 94.3528 131.075 99.2645 114.8 102.92C107.939 104.459 100.104 105.729 91.2935 106.729C72.7062 108.836 54.4951 109.79 36.199 108.88C36.0076 108.869 35.5208 108.814 34.7388 108.714C34.7307 108.712 34.7236 108.707 34.7186 108.7C34.7136 108.693 34.7109 108.684 34.7109 108.676C34.7109 108.667 34.7136 108.659 34.7186 108.652C34.7236 108.645 34.7307 108.64 34.7388 108.637Z" fill="white"/>
</svg>
