<svg width="181" height="181" viewBox="0 0 181 181" fill="none" xmlns="http://www.w3.org/2000/svg">
<rect width="181" height="181" fill="#D0A175"/>
<path fill-rule="evenodd" clip-rule="evenodd" d="M56.9916 102.73V101.713H82.3759L83.4002 89.1249H89.4093L92.727 101.713H106.989C107.91 101.688 108.829 101.826 109.701 102.122C110.263 102.326 110.762 102.671 111.148 103.122C111.588 103.666 111.82 104.343 111.804 105.038C111.822 105.729 111.604 106.407 111.186 106.962C110.81 107.427 110.31 107.78 109.742 107.983C108.828 108.277 107.867 108.409 106.906 108.371H90.7944L79.8379 120.118H73.5385L80.0826 108.379H51.6295C48.6066 108.164 45.5736 108.628 42.76 109.738C39.9465 110.847 37.426 112.573 35.3895 114.783C31.6243 119.612 28.7816 125.075 27 130.905L115.81 130.982C118.592 131.103 121.366 130.603 123.925 129.52C126.484 128.436 128.761 126.797 130.586 124.725C134.351 119.946 137.037 114.43 138.465 108.546L142.011 96.8118C142.683 94.5572 142.641 92.1543 141.891 89.9236C141.142 87.6928 139.719 85.7401 137.814 84.3257C133.673 81.151 128.615 79.3545 123.37 79.1957H79.8793C78.7756 79.2467 77.6713 79.1085 76.6156 78.7872C76.0599 78.5922 75.5732 78.2433 75.2139 77.7824C74.832 77.2555 74.6354 76.6202 74.654 75.973C74.64 75.3264 74.8298 74.6915 75.1973 74.1555C75.5449 73.6793 76.0161 73.304 76.5617 73.069C77.6172 72.6626 78.7469 72.4762 79.8793 72.5217H129.532C132.545 72.7385 135.568 72.2746 138.371 71.1654C141.174 70.0562 143.683 68.331 145.706 66.1214C149.442 61.2885 152.253 55.8255 154 50.0001H81.9861C74.4451 49.9822 67.0843 52.2694 60.9191 56.5462C54.7539 60.823 50.0881 66.8786 47.5653 73.8777L45.9065 78.5136C43.8063 83.633 43.6429 89.3251 45.4462 94.5532C46.2785 96.6534 47.7337 98.4581 49.6223 99.7322C51.8242 101.106 54.3947 101.796 56.9999 101.713C56.9999 101.713 56.9999 101.713 56.9999 101.783C56.9999 101.852 56.9916 102.134 56.9916 102.73Z" fill="white"/>
</svg>
