<svg width="181" height="181" viewBox="0 0 181 181" fill="none" xmlns="http://www.w3.org/2000/svg">
<rect width="181" height="181" fill="#042C64"/>
<path d="M104.33 48.4299C104.231 48.4274 104.136 48.3919 104.059 48.3294C103.981 48.2669 103.927 48.1809 103.905 48.0854C103.883 47.99 103.894 47.8906 103.936 47.8036C103.978 47.7165 104.049 47.6468 104.138 47.6058C119.349 40.1471 135.181 36.2785 151.633 36C151.685 35.9999 151.735 36.0157 151.777 36.0451C151.819 36.0746 151.85 36.1162 151.868 36.1645C151.885 36.2127 151.887 36.2651 151.873 36.3144C151.86 36.3638 151.831 36.4078 151.792 36.4403L137.871 48.0799C137.594 48.3059 137.247 48.4295 136.889 48.4299H104.33Z" fill="white"/>
<path d="M133.807 54.1186L125.554 65.4647C125.522 65.5097 125.48 65.5465 125.431 65.572C125.382 65.5975 125.327 65.6111 125.272 65.6115H81.5361C81.4626 65.6107 81.3913 65.5868 81.3321 65.5432C81.273 65.4997 81.2291 65.4386 81.2066 65.3686C81.1841 65.2987 81.1842 65.2234 81.2069 65.1536C81.2296 65.0837 81.2736 65.0227 81.3329 64.9793L96.54 53.6332C96.599 53.5899 96.6701 53.5662 96.7433 53.5654H133.525C133.589 53.5659 133.652 53.584 133.706 53.6176C133.761 53.6513 133.805 53.6993 133.834 53.7563C133.863 53.8134 133.876 53.8774 133.871 53.9412C133.867 54.0051 133.844 54.0665 133.807 54.1186Z" fill="white"/>
<path d="M121.693 71.371L118.092 79.4657C118.035 79.5913 117.943 79.6977 117.827 79.7718C117.71 79.846 117.575 79.8848 117.437 79.8834H70.4158C70.2847 79.8834 70.1561 79.8472 70.0442 79.7787C69.9324 79.7102 69.8417 79.6121 69.7821 79.4953C69.7225 79.3785 69.6964 79.2475 69.7066 79.1167C69.7169 78.986 69.763 78.8606 69.8401 78.7545L75.722 70.6598C75.7879 70.5689 75.8745 70.4949 75.9746 70.4438C76.0747 70.3928 76.1854 70.3662 76.2977 70.3662H121.039C121.158 70.3651 121.276 70.394 121.381 70.4505C121.487 70.5069 121.576 70.589 121.641 70.6891C121.707 70.7893 121.746 70.9042 121.755 71.0234C121.764 71.1426 121.743 71.2622 121.693 71.371Z" fill="white"/>
<path d="M115.01 86.8714L112.617 95.3047C112.585 95.4181 112.517 95.5179 112.423 95.5892C112.329 95.6605 112.215 95.6994 112.097 95.6999H61.655C61.5639 95.7006 61.474 95.6782 61.3938 95.635C61.3135 95.5917 61.2455 95.5289 61.1959 95.4524C61.1464 95.3758 61.117 95.288 61.1104 95.1971C61.1038 95.1062 61.1203 95.015 61.1583 94.9322L64.9178 86.4988C64.9613 86.4038 65.0313 86.3235 65.1194 86.2674C65.2076 86.2113 65.31 86.1819 65.4145 86.1827H114.479C114.564 86.1813 114.647 86.1996 114.723 86.2363C114.8 86.2729 114.866 86.3269 114.918 86.3938C114.969 86.4607 115.004 86.5387 115.02 86.6216C115.036 86.7045 115.033 86.7901 115.01 86.8714Z" fill="white"/>
<path d="M57.7488 108.56L58.4036 104.913C58.4407 104.71 58.5481 104.526 58.707 104.394C58.8659 104.262 59.0663 104.19 59.2729 104.19H110.381C110.509 104.192 110.636 104.221 110.752 104.276C110.868 104.331 110.97 104.411 111.052 104.51C111.134 104.609 111.193 104.725 111.225 104.849C111.257 104.973 111.262 105.103 111.239 105.229L110.584 108.876C110.547 109.079 110.44 109.263 110.281 109.395C110.122 109.527 109.922 109.599 109.715 109.598H58.6068C58.4785 109.597 58.352 109.568 58.2361 109.513C58.1203 109.457 58.0179 109.377 57.9362 109.278C57.8544 109.18 57.7953 109.064 57.763 108.94C57.7306 108.816 57.7258 108.686 57.7488 108.56Z" fill="white"/>
<path d="M110.167 119.284H58.144C57.7387 119.284 57.4102 119.613 57.4102 120.018V122.795C57.4102 123.201 57.7387 123.529 58.144 123.529H110.167C110.572 123.529 110.901 123.201 110.901 122.795V120.018C110.901 119.613 110.572 119.284 110.167 119.284Z" fill="white"/>
<path d="M107.287 132.571C107.394 132.571 107.583 132.591 107.857 132.631L153.482 132.741C153.537 132.742 153.59 132.762 153.633 132.796C153.676 132.83 153.706 132.877 153.717 132.93C153.728 132.982 153.721 133.036 153.697 133.084C153.672 133.132 153.631 133.171 153.581 133.193C152.282 133.759 150.402 134.51 147.944 135.445C142.171 137.646 136.855 140.878 132.178 144.709C132.046 144.819 131.89 144.902 131.722 144.95C131.554 144.999 131.376 145.013 131.2 144.991L91.6467 140.455C91.5173 140.473 91.4039 140.479 91.3059 140.468C70.05 138.038 48.8029 135.624 27.5647 133.228C27.4827 133.22 27.407 133.182 27.3538 133.123C27.3005 133.064 27.274 132.987 27.2795 132.909V132.896C27.2818 132.858 27.2919 132.82 27.3108 132.785C27.3297 132.751 27.3566 132.72 27.3889 132.695C27.4213 132.671 27.4589 132.652 27.4993 132.642C27.5397 132.631 27.5826 132.629 27.6243 132.634C28.0045 132.684 48.0505 132.673 87.762 132.604C87.8361 132.597 87.9103 132.59 87.9846 132.583L93.2795 132.596C97.7233 132.588 102.393 132.581 107.287 132.571Z" fill="white"/>
</svg>
