<svg width="181" height="181" viewBox="0 0 181 181" fill="none" xmlns="http://www.w3.org/2000/svg">
<rect width="181" height="181" fill="#A71511"/>
<path d="M94.8486 21C117.416 22.8077 135.15 32.5819 148.052 50.3225C165.482 74.2988 165.251 107.898 147.744 131.951C126.177 161.608 84.9926 170.153 53.5954 150.128C13.4279 124.51 9.60687 67.336 46.4663 36.9443C58.0177 27.4154 71.5522 22.1006 87.0698 21H94.8486ZM156.54 90.9787C156.54 73.5853 149.635 56.9042 137.345 44.6052C125.054 32.3062 108.384 25.3967 91.002 25.3967C73.6201 25.3967 56.9502 32.3062 44.6593 44.6052C32.3685 56.9042 25.4636 73.5853 25.4636 90.9787C25.4636 108.372 32.3685 125.053 44.6593 137.352C56.9502 149.651 73.6201 156.561 91.002 156.561C108.384 156.561 125.054 149.651 137.345 137.352C149.635 125.053 156.54 108.372 156.54 90.9787Z" fill="white"/>
<path d="M116.79 101.43C126.157 95.9814 122.133 82.8593 114.778 77.8149C104.324 70.6394 89.2885 73.4065 82.7984 84.4318C80.9261 87.6114 79.5932 91.0087 78.7998 94.6237C74.3389 114.921 84.3396 137.187 105.351 142.712C109.798 143.881 114.367 144.339 119.059 144.087C119.12 144.078 119.183 144.092 119.234 144.127C119.285 144.161 119.322 144.213 119.337 144.273C119.352 144.334 119.344 144.397 119.315 144.452C119.286 144.506 119.237 144.548 119.179 144.569C95.2307 155.225 68.1398 146.167 56.0671 122.724C52.5623 115.924 50.6244 108.433 50.2534 100.252C49.7996 90.3183 51.1867 70.098 39.1139 65.7068C39.0827 65.6966 39.0555 65.6774 39.0354 65.6516C39.0154 65.6258 39.0033 65.5943 39.0006 65.5609C38.9979 65.5276 39.0047 65.4936 39.0202 65.4631C39.0357 65.4327 39.0593 65.4069 39.0882 65.3888C54.3889 55.9017 66.2818 67.7262 69.1759 82.2577C69.1878 82.3083 69.2141 82.3546 69.2513 82.391C69.2886 82.4273 69.3352 82.452 69.3853 82.4621C69.4355 82.4722 69.487 82.4671 69.5335 82.4476C69.58 82.4281 69.6194 82.3949 69.6468 82.3522C76.3082 72.3237 73.0974 60.2757 63.2251 53.9424C63.1952 53.9249 63.1692 53.9014 63.1488 53.8732C63.1285 53.8451 63.1142 53.813 63.107 53.779C63.0997 53.745 63.0996 53.7099 63.1067 53.6759C63.1138 53.6418 63.1279 53.6097 63.1481 53.5814C68.4652 45.8474 79.1594 45.9934 84.6135 53.5385C84.6333 53.5662 84.6614 53.5875 84.6935 53.5993C84.7257 53.6111 84.7605 53.6129 84.7928 53.6043C84.8251 53.5957 84.8533 53.5772 84.8734 53.5515C84.8935 53.5258 84.9044 53.4942 84.9047 53.4611C85.3956 46.2598 88.6749 40.8403 94.7426 37.2024C95.0139 37.0359 95.3376 36.9691 95.6588 37.0133C102.902 38.0388 107.988 41.8142 110.917 48.3394C110.948 48.4085 110.993 48.47 111.05 48.5197C111.107 48.5694 111.174 48.6061 111.246 48.6273C111.319 48.6485 111.395 48.6538 111.47 48.6427C111.544 48.6315 111.616 48.6043 111.679 48.5629C112.061 48.3108 112.546 48.0473 113.134 47.7723C126.885 41.3358 139.258 55.5579 132.211 68.5254C132.149 68.6399 132.13 68.7728 132.156 68.9002C132.183 69.0277 132.254 69.1415 132.356 69.2215C140.217 75.0908 139.018 86.881 133.932 93.9276C129.263 100.396 123.106 103.738 115.463 103.956C110.788 104.094 107.124 102.607 105.017 98.4993C104.993 98.449 104.987 98.3917 105 98.3373C105.013 98.2829 105.044 98.2348 105.089 98.2012C105.133 98.1676 105.188 98.1507 105.244 98.1534C105.3 98.156 105.353 98.1781 105.394 98.2157C106.37 99.1839 107.495 99.6537 108.768 99.625C108.932 99.625 109.097 99.5959 109.256 99.5391L112.535 98.3446C112.631 98.3104 112.732 98.2901 112.835 98.2845C115.209 98.1871 116.354 99.1295 116.268 101.112C116.266 101.174 116.281 101.236 116.311 101.29C116.34 101.345 116.384 101.391 116.437 101.423C116.49 101.456 116.551 101.473 116.613 101.474C116.675 101.476 116.736 101.46 116.79 101.43Z" fill="white"/>
</svg>
