<svg width="181" height="181" viewBox="0 0 181 181" fill="none" xmlns="http://www.w3.org/2000/svg">
<rect width="181" height="181" fill="#012C61"/>
<path d="M77.5258 57H80.3149C80.3669 56.9996 80.4177 57.0153 80.4605 57.045C80.5032 57.0746 80.5356 57.1168 80.5534 57.1656L88.0133 77.7961C88.0353 77.8569 88.0332 77.9237 88.0073 77.9829C87.9814 78.0421 87.9337 78.0891 87.8741 78.1141L86.7545 78.6044C86.7241 78.6175 86.6913 78.6245 86.6582 78.6249C86.625 78.6254 86.5921 78.6193 86.5613 78.6069C86.5306 78.5946 86.5025 78.5764 86.4788 78.5532C86.4551 78.53 86.4362 78.5024 86.4232 78.4719L77.2939 57.3511C77.2774 57.3128 77.2707 57.271 77.2744 57.2294C77.2781 57.1878 77.2921 57.1478 77.3151 57.113C77.3381 57.0782 77.3694 57.0496 77.4062 57.0299C77.4429 57.0102 77.484 56.9999 77.5258 57Z" fill="#F4AD0E"/>
<path d="M94.8521 76.9082L94.1698 76.7824C94.1289 76.7749 94.091 76.756 94.0605 76.7279C94.03 76.6997 94.0082 76.6635 93.9975 76.6234L88.9823 57.3046C88.9741 57.2693 88.9747 57.2325 88.9842 57.1975C88.9937 57.1625 89.0117 57.1305 89.0367 57.1042C89.0617 57.0779 89.0928 57.0582 89.1272 57.047C89.1617 57.0357 89.1984 57.0332 89.2341 57.0396L91.4866 57.4636C91.5292 57.472 91.5683 57.4929 91.5989 57.5235C91.6296 57.5542 91.6505 57.5933 91.6589 57.6359L95.1039 76.6565C95.1097 76.6908 95.1071 76.7261 95.0965 76.7592C95.0859 76.7924 95.0675 76.8226 95.0429 76.8472C95.0182 76.8718 94.9881 76.8902 94.9549 76.9008C94.9217 76.9114 94.8865 76.914 94.8521 76.9082Z" fill="#F4AD0E"/>
<path d="M98.9698 76.3188L100.513 59.8224C100.516 59.7917 100.526 59.762 100.543 59.7359C100.559 59.7097 100.581 59.6877 100.608 59.6716C100.634 59.6556 100.664 59.6459 100.695 59.6433C100.725 59.6407 100.756 59.6453 100.785 59.6568L102.706 60.3855C102.749 60.4032 102.785 60.4354 102.807 60.4765C102.829 60.5177 102.835 60.5652 102.826 60.6108L99.8443 76.5574C99.8387 76.5863 99.8267 76.6137 99.8092 76.6375C99.7917 76.6613 99.7691 76.6808 99.7431 76.6948C99.7171 76.7087 99.6883 76.7167 99.6588 76.7182C99.6293 76.7196 99.5999 76.7145 99.5727 76.7031L99.0956 76.5242C99.0551 76.5085 99.0208 76.4799 98.998 76.4428C98.9753 76.4057 98.9654 76.3621 98.9698 76.3188Z" fill="#F4AD0E"/>
<path d="M79.7943 83.2942L79.0589 84.182C79.0356 84.2101 79.0062 84.2325 78.9729 84.2475C78.9396 84.2624 78.9033 84.2695 78.8668 84.2683C78.8303 84.267 78.7946 84.2573 78.7624 84.2401C78.7303 84.2228 78.7025 84.1984 78.6812 84.1687L61.9993 61.299C61.9784 61.2704 61.9641 61.2376 61.9574 61.2029C61.9507 61.1681 61.9519 61.1323 61.9608 61.0981C61.9696 61.0638 61.986 61.032 62.0087 61.0049C62.0314 60.9777 62.0599 60.956 62.092 60.9412L64.7553 59.7951C64.8071 59.7739 64.8646 59.7716 64.9179 59.7886C64.9712 59.8055 65.0168 59.8407 65.0468 59.8878L79.8141 83.016C79.8404 83.0586 79.8527 83.1084 79.8491 83.1583C79.8455 83.2083 79.8264 83.2558 79.7943 83.2942Z" fill="#F4AD0E"/>
<path d="M105.996 77.7635C105.978 77.8094 105.95 77.8509 105.914 77.8849C105.879 77.9189 105.836 77.9448 105.789 77.9605C105.743 77.9763 105.693 77.9817 105.644 77.9763C105.595 77.9708 105.548 77.9547 105.506 77.9291L105.38 77.8562C105.326 77.8237 105.284 77.7741 105.261 77.7154C105.239 77.6566 105.236 77.592 105.254 77.5316L109.202 63.9104C109.209 63.8906 109.22 63.8726 109.235 63.8577C109.25 63.8428 109.268 63.8314 109.288 63.8244C109.307 63.8174 109.328 63.815 109.349 63.8172C109.37 63.8195 109.39 63.8265 109.408 63.8376L110.872 64.7651C110.925 64.7968 110.964 64.8463 110.984 64.9046C111.003 64.9628 111.001 65.0261 110.978 65.0831L105.996 77.7635Z" fill="#F4AD0E"/>
<path d="M47.2211 70.1976L49.6061 68.0511C49.6474 68.0142 49.7012 67.9944 49.7565 67.9957C49.8118 67.9969 49.8646 68.0191 49.9043 68.0577L73.0523 89.8409C73.0928 89.8788 73.1174 89.9307 73.1211 89.9861C73.1248 90.0414 73.1073 90.0961 73.0722 90.1391L72.3037 91.0666C72.2664 91.11 72.2137 91.1371 72.1567 91.142C72.0997 91.147 72.0431 91.1294 71.9989 91.0931L47.2277 70.5288C47.2035 70.5088 47.1839 70.4838 47.1702 70.4554C47.1565 70.4271 47.1491 70.3962 47.1485 70.3647C47.1479 70.3333 47.154 70.3021 47.1665 70.2732C47.1791 70.2444 47.1977 70.2186 47.2211 70.1976Z" fill="#F4AD0E"/>
<path d="M117 70.2325L116.618 69.9685C116.471 69.8664 116.269 69.9032 116.167 70.0506L109.733 79.3428C109.63 79.4902 109.667 79.6924 109.815 79.7945L110.196 80.0585C110.343 80.1605 110.546 80.1238 110.648 79.9764L117.082 70.6842C117.184 70.5368 117.147 70.3346 117 70.2325Z" fill="#F4AD0E"/>
<path d="M113.562 82.9436L120.234 75.8548C120.271 75.8133 120.317 75.7804 120.368 75.7581C120.419 75.7357 120.475 75.7245 120.531 75.7251C120.587 75.7257 120.643 75.7382 120.694 75.7617C120.746 75.7852 120.792 75.8191 120.83 75.8614L121.128 76.1926C121.177 76.2469 121.216 76.3104 121.24 76.3795C121.265 76.4485 121.276 76.5218 121.272 76.5951C121.268 76.6684 121.25 76.7402 121.219 76.8064C121.187 76.8726 121.143 76.932 121.088 76.981L113.986 83.3676C113.928 83.4216 113.851 83.4516 113.771 83.4516C113.691 83.4516 113.614 83.4216 113.556 83.3676L113.542 83.3543C113.496 83.2946 113.473 83.2205 113.477 83.1453C113.481 83.0701 113.511 82.9986 113.562 82.9436Z" fill="#F4AD0E"/>
<path d="M83.2168 103.674L79.7386 104.568C80.2377 99.595 81.852 95.0657 84.5816 90.9802C85.3678 89.8009 86.1164 88.604 86.8275 87.3894C86.8454 87.362 86.8523 87.3294 86.847 87.2978C86.8417 87.2661 86.8245 87.2375 86.7986 87.2172C86.7727 87.197 86.7398 87.1865 86.7061 87.1877C86.6725 87.1889 86.6402 87.2017 86.6155 87.2238C82.8833 90.8543 80.2687 94.8316 78.7714 99.1556C78.1818 100.858 77.9896 102.501 77.6981 104.244L77.6584 104.687C77.651 104.783 77.614 104.873 77.5525 104.948C77.491 105.022 77.4078 105.077 77.3139 105.105L72.5703 106.562C72.6189 103.254 73.1953 100.445 74.2995 98.1353C78.6058 89.1296 85.4163 83.2664 94.7312 80.5457C102.858 78.1739 109.514 80.3845 114.699 87.1774C114.724 87.2097 114.736 87.2506 114.733 87.2922C114.729 87.3338 114.71 87.3731 114.679 87.4027L114.659 87.4159C114.63 87.4436 114.592 87.4597 114.553 87.461C114.514 87.4622 114.476 87.4485 114.447 87.4225C109.32 82.8314 105.53 80.4198 98.9977 81.3208C91.3789 82.3676 85.5753 89.9136 83.6806 96.9428C83.1307 98.97 83.2566 101.428 83.2168 103.674Z" fill="#F4AD0E"/>
<path d="M46.1874 86.8394C47.1767 87.8597 48.2809 88.4891 49.4999 88.7276L67.2816 99.6391C67.3754 99.6965 67.4439 99.7876 67.4734 99.8945C67.5029 100.001 67.4911 100.116 67.4406 100.215L67.1027 100.878C67.0775 100.927 67.043 100.97 67.001 101.005C66.9591 101.041 66.9106 101.068 66.8583 101.084C66.806 101.101 66.7509 101.107 66.6962 101.102C66.6415 101.098 66.5883 101.082 66.5396 101.057L32.8246 83.6594C32.814 83.6533 32.8049 83.6451 32.7977 83.6353C32.7906 83.6255 32.7856 83.6143 32.7831 83.6024C32.7806 83.5905 32.7806 83.5782 32.7832 83.5663C32.7858 83.5545 32.7909 83.5433 32.7981 83.5335L35.6336 80.115C35.6683 80.075 35.7162 80.049 35.7686 80.0416C35.821 80.0343 35.8742 80.0463 35.9185 80.0752L46.1874 86.8394Z" fill="#F4AD0E"/>
<path d="M122.388 81.2849L115.902 86.0847C115.757 86.1914 115.727 86.3947 115.834 86.5388L115.92 86.656C116.027 86.8001 116.23 86.8305 116.374 86.7238L122.861 81.924C123.005 81.8173 123.036 81.614 122.929 81.4699L122.842 81.3528C122.736 81.2086 122.532 81.1783 122.388 81.2849Z" fill="#F4AD0E"/>
<path d="M49.4922 88.728C48.2732 88.4895 47.169 87.8601 46.1797 86.8398L49.4922 88.728Z" fill="#FD5F0C"/>
<path d="M162.83 108.995C162.842 109.008 162.849 109.026 162.849 109.044C162.849 109.063 162.842 109.08 162.829 109.094C162.817 109.107 162.799 109.115 162.781 109.117C162.763 109.118 162.745 109.112 162.73 109.101C152.32 103.271 141.245 99.6312 129.505 98.1825C122.266 97.2859 115.775 96.9745 110.033 97.2483C106.641 97.4118 102.494 97.7342 97.5913 98.2156C97.2964 98.2464 97.0073 98.3109 96.73 98.4077C95.9041 98.6993 94.992 98.7876 93.9938 98.6728C93.967 98.6691 93.9422 98.6564 93.9235 98.6368C93.9048 98.6172 93.8934 98.5918 93.8911 98.5648C93.8887 98.5378 93.8957 98.5108 93.9108 98.4883C93.9258 98.4657 93.9481 98.449 93.974 98.4409L111.359 92.5246C111.816 92.3661 112.294 92.2638 112.783 92.2198C113.75 92.1315 114.375 91.9636 114.658 91.7163C114.729 91.6552 114.815 91.6128 114.906 91.5932C114.997 91.5735 115.092 91.5771 115.181 91.6036C115.495 91.6876 116.078 91.597 116.93 91.332C119.139 90.643 122.522 90.2234 127.08 90.0732C134.346 89.8347 141.271 91.6787 147.857 95.6053C153.744 99.1122 158.735 103.575 162.83 108.995Z" fill="#FD5F0C"/>
<path d="M84.7482 111.486L80.5412 113.135C79.6269 112.963 78.7767 113.133 77.9905 113.645L73.5715 114.871C67.0655 116.77 60.67 118.064 54.3849 118.753C50.4694 119.184 45.6661 119.277 41.6578 118.336C32.6939 116.223 23.8227 111.187 18.5159 103.608C18.4939 103.576 18.4829 103.538 18.4845 103.499C18.4862 103.46 18.5005 103.423 18.5251 103.394C18.5497 103.365 18.5832 103.345 18.62 103.338C18.6568 103.332 18.6949 103.338 18.728 103.356C27.8575 107.868 38.4446 110.803 48.6806 110.691C52.8942 110.646 56.7722 110.289 60.3144 109.617C64.0422 108.911 68.1278 107.892 72.5711 106.563L77.3147 105.105C77.4086 105.078 77.4919 105.023 77.5534 104.949C77.6149 104.874 77.6518 104.783 77.6593 104.688L77.699 104.244C77.6372 104.589 77.6504 104.838 77.7388 104.993C77.8403 105.161 78.07 105.181 78.4278 105.052C78.8783 104.893 79.3156 104.732 79.7396 104.569L83.2178 103.674C92.1221 101.837 101.119 101.11 110.209 101.495C117.174 101.791 120.968 101.963 121.591 102.011C122.183 102.056 122.75 102.199 123.294 102.442C123.312 102.453 123.327 102.469 123.336 102.488C123.344 102.507 123.347 102.529 123.342 102.549C123.338 102.57 123.327 102.589 123.311 102.603C123.295 102.617 123.275 102.626 123.254 102.628C118.833 102.809 115.586 103.072 113.515 103.416C111.466 103.752 108.08 104.584 103.358 105.914C97.2235 107.636 91.0201 109.494 84.7482 111.486Z" fill="#ABD9B2"/>
<path d="M84.7382 111.486C86.4828 116.976 90.1641 120.302 95.7822 121.463C97.1779 121.75 98.8076 121.856 100.671 121.781C100.709 121.781 100.745 121.793 100.775 121.815C100.805 121.838 100.827 121.869 100.838 121.905C100.848 121.941 100.847 121.98 100.834 122.015C100.82 122.05 100.796 122.079 100.764 122.099C95.5172 125.193 88.6006 124.716 84.4334 120.549C82.5386 118.654 81.2379 116.183 80.5312 113.135L84.7382 111.486Z" fill="#F4AD0E"/>
<path d="M77.9971 113.646C79.1145 117.753 81.2765 121.101 84.483 123.689C84.5257 123.718 84.556 123.762 84.568 123.812C84.58 123.862 84.5728 123.914 84.5478 123.959C84.5229 124.004 84.4819 124.038 84.4331 124.054C84.3843 124.071 84.3312 124.068 84.2843 124.047C79.4413 122.245 75.7048 119.893 73.5781 114.871L77.9971 113.646Z" fill="#F4AD0E"/>
</svg>
