<svg width="181" height="181" viewBox="0 0 181 181" fill="none" xmlns="http://www.w3.org/2000/svg">
<rect width="181" height="181" fill="#69AB4A"/>
<path d="M135.253 68.1285C135.135 68.166 135.056 68.2175 135.017 68.2832C135.013 68.2897 135.011 68.2971 135.011 68.3046C135.011 68.3121 135.013 68.3196 135.016 68.3263C135.02 68.333 135.025 68.3386 135.031 68.3428C135.038 68.3469 135.045 68.3494 135.052 68.3499C135.141 68.357 135.225 68.3117 135.303 68.214C135.3 68.232 135.307 68.2453 135.323 68.2539C135.335 68.2601 135.351 68.2605 135.371 68.255C137.03 67.7987 138.727 67.2186 140.463 66.5146C141.062 66.2709 141.616 66.0103 142.125 65.7329C142.132 65.7293 142.14 65.7277 142.148 65.7284C142.156 65.7291 142.164 65.732 142.17 65.7369C142.176 65.7418 142.181 65.7483 142.183 65.7557C142.186 65.7632 142.186 65.7711 142.184 65.7787C140.289 72.7386 137.183 79.0953 132.864 84.8489C132.151 85.7982 131.072 87.0397 129.627 88.5734C127.192 91.1557 124.73 93.4101 122.24 95.3369C121 96.2963 119.758 97.0233 118.513 97.5179C118.479 97.5319 118.455 97.5464 118.442 97.5612C118.439 97.5651 118.438 97.5698 118.437 97.5747C118.436 97.5795 118.437 97.5845 118.439 97.589C118.441 97.5934 118.445 97.5972 118.449 97.6C118.453 97.6028 118.458 97.6043 118.462 97.6046L123.488 97.6937C123.495 97.6941 123.502 97.6966 123.507 97.7008C123.512 97.7051 123.517 97.711 123.519 97.7176C123.521 97.7243 123.521 97.7314 123.518 97.738C123.516 97.7446 123.512 97.7504 123.507 97.7546C123.241 97.9374 122.923 98.1152 122.551 98.2879C121.369 98.8387 120.154 99.3673 118.905 99.8735C116.628 100.796 114.27 101.494 111.831 101.967C109.42 102.435 106.952 102.77 104.427 102.972C104.416 102.974 104.406 102.979 104.398 102.987C104.391 102.996 104.386 103.006 104.386 103.018C104.386 103.029 104.39 103.04 104.397 103.048C104.404 103.057 104.414 103.063 104.425 103.065L112.133 104.034C112.138 104.035 112.142 104.037 112.145 104.04C112.149 104.044 112.151 104.048 112.151 104.053C112.151 104.058 112.15 104.063 112.148 104.067C112.145 104.071 112.141 104.074 112.136 104.075C109.574 104.871 106.981 105.404 104.361 105.338C103.007 105.306 101.36 105.007 99.8996 104.902C99.092 104.845 98.3951 104.833 97.8089 104.864C95.8595 104.968 93.9344 105.227 92.0337 105.641C89.4549 106.202 86.6748 106.951 83.6934 107.889C82.8552 108.152 81.9048 108.315 80.8422 108.377C80.402 108.404 79.8581 108.323 79.4626 108.27C79.4505 108.268 79.4393 108.262 79.4309 108.253C79.4226 108.244 79.4175 108.233 79.4167 108.221C79.4159 108.209 79.4193 108.197 79.4264 108.187C79.4334 108.177 79.4437 108.17 79.4555 108.166C81.7369 107.55 84.0379 106.748 86.3585 105.762C94.7706 102.183 102.325 96.667 108.901 90.2048C113.19 85.9916 117.029 81.4854 120.776 76.6264C120.851 76.5295 120.922 76.4338 120.988 76.3393L122.467 74.4102C122.472 74.4037 122.475 74.3958 122.474 74.3878C122.474 74.3798 122.47 74.3724 122.465 74.3668L122.443 74.3446C122.437 74.3389 122.43 74.3346 122.422 74.3318C122.415 74.329 122.407 74.3278 122.399 74.3284C122.391 74.3289 122.383 74.3312 122.376 74.335C122.369 74.3388 122.363 74.3441 122.358 74.3504L120.867 76.2432C120.858 76.2455 120.848 76.2475 120.838 76.249C120.818 76.2528 120.8 76.2631 120.787 76.2783C115.108 83.0206 108.46 89 101.232 94.2305C96.6635 97.5366 91.9689 100.281 86.9188 102.634C84.5927 103.716 82.6802 104.548 81.1813 105.127C77.2365 106.652 73.1506 107.714 68.7785 108.28C66.6667 108.553 64.6427 108.74 62.7066 108.843C59.7802 108.997 57.1052 109.038 54.6818 108.966C54.0328 108.947 53.0683 108.918 51.7883 108.879C51.1158 108.859 50.6319 108.838 50.3369 108.818C49.3983 108.753 48.9148 108.72 48.8866 108.717C48.6056 108.698 48.3804 108.629 48.2109 108.509C48.0472 108.391 47.9601 108.19 48.0178 107.977C48.0877 107.723 48.2976 107.594 48.6476 107.59C49.2998 107.58 50.2391 107.601 51.4658 107.653C53.0985 107.722 54.4876 107.734 56.0944 107.741C58.6265 107.754 61.1716 107.5 63.5389 106.748C64.6584 106.393 65.9144 105.776 66.3006 104.625C66.6572 103.557 66.0557 102.362 65.3624 101.533C63.7508 99.604 61.4518 98.2398 59.0233 97.4769C58.0109 97.1581 57.006 97.0542 56.0085 97.1651C55.5996 97.2112 55.2151 97.3378 54.8549 97.5448C54.8433 97.5514 54.8304 97.5554 54.8172 97.5566C54.8039 97.5578 54.7906 97.5561 54.7781 97.5518C54.7656 97.5475 54.7542 97.5405 54.7447 97.5314C54.7352 97.5224 54.7278 97.5113 54.723 97.4991C54.6265 97.2522 54.5641 97.019 54.5358 96.7995C54.3875 95.6252 55.7224 94.8306 56.6477 94.5528C57.693 94.2379 58.6921 93.9793 59.6448 93.777C60.1628 93.6668 60.6007 93.6387 61.1127 93.559C61.1351 93.5557 61.1565 93.5479 61.1757 93.5363C61.1949 93.5246 61.2115 93.5092 61.2246 93.491C61.3015 93.3816 61.3329 93.2414 61.3187 93.0703C61.3172 93.0487 61.308 93.0282 61.2927 93.0126C61.2774 92.997 61.2571 92.9871 61.2352 92.9847C60.8334 92.941 60.5618 92.9484 60.4206 93.007C59.6071 93.3445 58.9879 93.573 58.2275 93.6844C58.2136 93.6863 58.1994 93.6841 58.1868 93.6781C58.1741 93.672 58.1636 93.6623 58.1565 93.6502C58.1494 93.6381 58.1461 93.6242 58.147 93.6103C58.1479 93.5963 58.153 93.5829 58.1616 93.5719C58.7925 92.7667 59.6236 92.387 60.6207 92.0647C61.6048 91.7459 62.5642 91.5241 63.4989 91.399C64.1738 91.3084 64.8758 91.2756 65.6049 91.3006C68.6632 91.4061 71.6132 92.7163 74.2865 94.1274C75.5665 94.8017 76.4945 95.2454 77.0706 95.4587C83.8099 97.9515 91.265 96.3694 97.2038 92.5628C98.0255 92.0362 98.9908 91.3311 100.1 90.4474C102.158 88.8074 103.84 87.4608 105.144 86.4076C107.9 84.1825 110.669 81.7623 113.45 79.1473C121.297 71.7674 128.058 63.2425 133.713 54.0238C138.967 45.4567 143.374 36.3693 147.1 27.0346C147.104 27.0239 147.111 27.0148 147.12 27.0086C147.13 27.0024 147.141 26.9994 147.152 27.0001C147.164 27.0007 147.175 27.005 147.183 27.0123C147.192 27.0196 147.198 27.0294 147.201 27.0404C147.527 28.3601 147.75 29.6934 147.871 31.0404C148.163 34.3125 147.959 37.5538 147.257 40.7642C146.711 43.2687 145.531 45.5118 143.89 47.5452C143.408 48.1421 142.976 48.6687 142.593 49.125C142.482 49.2578 142.403 49.3902 142.357 49.5223C142.352 49.5359 142.351 49.5505 142.354 49.5646C142.357 49.5786 142.365 49.5915 142.375 49.6016C142.385 49.6118 142.398 49.6189 142.412 49.6221C142.426 49.6252 142.441 49.6244 142.455 49.6196C143.271 49.3359 144.021 48.9152 144.704 48.3574C145.435 47.7604 146.155 47.078 146.865 46.3099C146.871 46.3039 146.878 46.2998 146.887 46.2983C146.895 46.2968 146.903 46.298 146.91 46.3018C146.918 46.3055 146.924 46.3115 146.927 46.3189C146.931 46.3263 146.932 46.3347 146.93 46.3427C146.681 47.6538 146.431 49.1359 146.18 50.7892C145.688 54.0226 145.13 57.4284 143.76 60.3349C142.844 62.2768 141.33 63.8285 139.636 65.1306C138.233 66.2088 136.772 67.2081 135.253 68.1285Z" fill="white"/>
<path d="M137.897 81.8104C139.403 86.0526 140.369 90.4305 140.796 94.9441C140.917 96.2189 141 97.4394 141 98.491C141.001 100.315 140.994 101.456 140.98 101.915C140.823 106.899 139.963 111.806 138.401 116.634C135.944 124.222 132.027 130.93 126.649 136.757C126.313 137.12 125.435 138.009 124.014 139.422C123.292 140.141 122.274 140.978 121.686 141.479C118.895 143.853 115.894 145.899 112.681 147.617C111.823 148.076 110.819 148.577 109.669 149.121C104.962 151.346 99.8361 152.813 94.7613 153.495C93.4882 153.667 92.0893 153.803 90.5645 153.904C89.2081 153.993 87.8041 154.02 86.3526 153.985C79.4131 153.817 72.7537 152.353 66.3747 149.591C65.3901 149.164 64.105 148.533 62.5194 147.696C59.2227 145.957 56.1224 143.855 53.2186 141.391C52.3431 140.648 51.5722 139.961 50.9057 139.33C48.5187 137.071 46.2747 134.497 44.1738 131.607C42.9679 129.948 41.7494 127.998 40.5185 125.758C40.3766 125.499 40.2472 125.251 40.1303 125.015C39.5398 123.822 39.0463 122.897 38.5845 121.815C37.4541 119.169 36.5514 116.608 35.8763 114.131C34.5394 109.224 33.9169 104.105 34.0089 98.7743C34.012 98.5674 34.0346 98.1747 34.0767 97.5963C34.1165 97.0652 34.0779 96.5293 34.1609 96.0241C34.2427 95.5154 34.2392 94.8863 34.3164 94.1863C34.9073 88.8252 36.2251 83.7222 38.2699 78.8773C38.3175 78.7647 38.618 78.09 39.1715 76.853C39.555 75.996 39.9081 75.4177 40.3209 74.5855C40.3864 74.4541 40.5474 74.1543 40.8038 73.6861C42.3778 70.8139 44.2643 68.0523 46.4634 65.4013C46.4649 65.3997 46.944 64.8414 47.9005 63.7264C48.505 63.0217 49.099 62.5389 49.6463 61.8461C49.7944 61.658 49.9686 61.488 50.169 61.3362C50.763 60.8864 51.3371 60.1959 51.9557 59.6542C54.2067 57.6806 56.5547 55.8759 59.0488 54.28C66.384 49.587 74.74 46.8273 83.4223 46.1309C84.6867 46.0294 85.7773 45.9869 86.6941 46.0035C87.267 46.0137 87.9947 46.0133 88.8772 46.0023C89.525 45.9944 90.2504 46.0188 91.0533 46.0755C96.8181 46.4823 102.379 47.7815 107.736 49.973C108.571 50.3153 109.56 50.7886 110.436 51.1793C110.969 51.4177 111.452 51.6624 111.887 51.9135C112.505 52.2723 113.025 52.506 113.799 52.951C117.784 55.2456 121.429 57.995 124.735 61.1992C124.747 61.211 124.755 61.227 124.757 61.2442C124.759 61.2615 124.755 61.279 124.745 61.2937C123.325 63.46 121.781 65.5276 120.113 67.4964C120.108 67.5029 120.101 67.5083 120.094 67.5121C120.086 67.5158 120.078 67.518 120.069 67.5183C120.061 67.5186 120.052 67.5172 120.044 67.514C120.036 67.5108 120.029 67.506 120.023 67.4999C117.123 64.5671 113.902 62.0613 110.362 59.9823C109.919 59.7226 109.544 59.5176 109.239 59.3673C108.679 59.0923 108.269 58.8185 107.721 58.5612C106.559 58.0158 105.891 57.705 105.714 57.6287C101.466 55.7818 97.0668 54.6117 92.5173 54.1183C92.1883 54.0829 91.4337 54.0227 90.2535 53.9377C89.0643 53.8516 87.8798 53.8799 86.7408 53.8752C86.7097 53.8752 86.268 53.8905 85.416 53.9212C80.002 54.1172 74.6079 55.3719 69.6044 57.5107C65.1445 59.4173 60.9973 62.0636 57.1627 65.4497C56.8213 65.751 56.5278 66.0324 56.2822 66.2936C55.8577 66.7433 55.4672 67.0207 55.1234 67.4338C54.6943 67.9508 53.9471 68.633 53.3484 69.3129C51.242 71.7019 49.4113 74.2633 47.856 76.997C47.5941 77.4573 47.4176 77.7827 47.3263 77.9731C46.9229 78.8135 46.5347 79.3824 46.2178 80.1933C46.0576 80.6041 45.715 81.2214 45.4484 81.8588C42.9975 87.7361 41.7931 93.9176 41.8352 100.403C41.8352 100.458 41.85 100.9 41.8796 101.73C42.0118 105.45 42.5543 109.101 43.5623 112.667C45.4924 119.496 48.8258 125.577 53.5624 130.912C54.0005 131.405 54.3996 131.831 54.7598 132.189C55.3935 132.817 56.0752 133.558 56.8026 134.181C56.9335 134.293 57.2138 134.541 57.6433 134.925C58.6029 135.782 59.8389 136.754 61.3512 137.839C62.5931 138.73 63.9288 139.572 65.3585 140.366C72.2381 144.19 79.6804 146.099 87.6857 146.096C87.886 146.096 88.6328 146.07 89.9261 146.02C93.6703 145.874 97.4203 145.176 100.975 144.097C103.212 143.417 105.415 142.51 107.548 141.491C107.731 141.402 107.92 141.269 108.096 141.182C110.965 139.758 113.669 138.004 116.208 135.92C116.666 135.543 117.259 135.04 117.986 134.412C118.371 134.08 119.458 132.994 121.248 131.154C121.442 130.953 121.869 130.438 122.067 130.21C123.823 128.219 125.408 125.932 126.913 123.407C127.592 122.267 128.159 121.206 128.614 120.226C129.805 117.661 130.696 115.368 131.288 113.347C132.037 110.786 132.576 108.151 132.904 105.44C132.962 104.958 132.985 104.588 132.973 104.329C132.97 104.268 132.996 104.184 133.05 104.075C133.07 104.035 133.08 103.99 133.079 103.945C133.073 103.488 133.08 103.084 133.1 102.733C133.104 102.66 133.128 102.595 133.174 102.538C133.187 102.522 133.195 102.5 133.195 102.478V97.6141C133.195 97.5565 133.182 97.4997 133.157 97.4476L133.123 97.3756C133.105 97.3361 133.097 97.2923 133.1 97.2481C133.1 97.2379 133.083 96.7795 133.05 95.873C133.046 95.7763 133.039 95.6806 133.029 95.5862C132.946 94.8096 132.86 94.1281 132.771 93.5419C132.622 92.5598 132.461 91.5711 132.288 90.5757C132.259 90.4041 132.287 90.264 132.374 90.1555C133.029 89.3363 133.733 88.4144 134.488 87.3899C135.811 85.595 136.938 83.7348 137.868 81.8092C137.87 81.8065 137.872 81.8042 137.874 81.8026C137.877 81.801 137.88 81.8002 137.883 81.8004C137.886 81.8005 137.889 81.8015 137.891 81.8033C137.894 81.8051 137.896 81.8076 137.897 81.8104Z" fill="white"/>
</svg>
