<svg width="212" height="164" viewBox="0 0 212 164" fill="none" xmlns="http://www.w3.org/2000/svg">
<path d="M136.294 18.6747L1.15356 162.911H136.727L211.154 0.5H178.228C170.918 0.5 163.674 1.89495 156.886 4.61003C149.076 7.73439 142.046 12.5356 136.294 18.6747Z" fill="white" stroke="#C2C2C2" stroke-opacity="0.4"/>
<mask id="mask0_268_58807" style="mask-type:alpha" maskUnits="userSpaceOnUse" x="1" y="0" width="211" height="163">
<path d="M136.294 18.6747L1.15356 162.911H136.727L211.154 0.5H178.228C170.918 0.5 163.674 1.89495 156.886 4.61003C149.076 7.73439 142.046 12.5356 136.294 18.6747Z" fill="#2B3386"/>
</mask>
<g mask="url(#mask0_268_58807)">
<path d="M123.22 85.5669C118.761 86.365 114.407 87.7818 110.377 89.8471C103.713 93.2316 97.997 98.4087 93.9654 104.668C91.708 108.151 89.9584 111.952 88.7153 115.904C87.6882 119.161 87.0095 122.524 86.6322 125.914C86.6183 126.072 86.6247 126.229 86.6322 126.386C91.2944 121.197 97.4797 117.528 104.041 115.214C109.938 113.142 116.175 112.069 122.42 111.87C122.47 111.815 122.522 111.761 122.576 111.705C123.598 108.578 124.035 105.292 124.225 102.019C124.394 98.9743 124.318 95.921 124.102 92.8803C123.902 90.434 123.679 87.9792 123.22 85.5669Z" fill="#752650"/>
<path d="M77.7139 131.024C86.9657 131.352 96.2634 133.01 104.773 136.722C109.062 138.593 113.125 140.986 116.78 143.9C120.018 146.477 122.92 149.446 125.416 152.738C130.076 158.869 133.238 166.061 134.905 173.548C136.914 182.585 136.846 192.049 134.89 201.089C134.626 201.119 134.361 201.142 134.099 201.166C130.585 208.723 125.843 215.786 119.736 221.523C116.463 224.591 112.806 227.265 108.84 229.384C105.173 231.35 101.249 232.845 97.1954 233.803C87.2692 236.185 76.6632 235.287 67.1453 231.694C59.7618 228.925 52.9844 224.581 47.3912 219.053C41.3502 213.107 36.7072 205.756 34.0201 197.739C31.5084 190.328 30.6833 182.389 31.4036 174.612C31.747 181.429 32.4486 183.767 33.4489 183.583C33.2548 180.663 33.2863 177.726 33.5328 174.812C33.7334 178.986 34.0767 181.436 34.5477 182.629C35.7606 180.953 37.2616 177.343 38.9881 173.857C39.1965 173.435 39.4156 173.019 39.6133 172.593C40.1232 172.871 40.6159 173.179 41.1407 173.432C38.1664 179.512 35.8607 185.955 34.5477 182.629C34.1496 183.18 33.7826 183.522 33.4489 183.583C33.7631 188.312 34.6686 193.001 36.2102 197.49C38.9539 205.577 43.7497 212.959 50.013 218.799C56.3042 224.69 64.0553 229.043 72.4029 231.299C77.2938 232.625 82.3889 233.227 87.4562 233.025C92.8634 232.814 98.2365 231.68 103.251 229.656C110.853 226.616 117.545 221.543 122.823 215.348C126.533 211.034 129.57 206.181 132.082 201.094C130.431 200.93 128.793 200.621 127.201 200.161C125.867 203.544 124.159 206.796 121.94 209.693C119.668 212.685 116.889 215.305 113.724 217.351C110.61 219.375 107.122 220.824 103.492 221.633C98.6105 222.723 93.4695 222.635 88.6266 221.386C84.6121 220.355 80.8007 218.528 77.514 216.013C74.6517 213.842 72.1955 211.151 70.2738 208.126C68.367 205.132 66.9882 201.818 66.1256 198.383C65.0942 194.297 64.7853 190.052 65.0151 185.853C65.6072 185.749 66.2143 185.748 66.8075 185.854C66.6034 190.475 67.0213 195.155 68.3659 199.595C69.408 203.052 71.0251 206.351 73.2248 209.228C75.3828 212.065 78.1008 214.477 81.1822 216.287C85.0567 218.581 89.4817 219.923 93.9729 220.276C99.0124 220.677 104.15 219.85 108.792 217.859C112.671 216.211 116.189 213.73 119.027 210.63C121.926 207.476 124.072 203.676 125.426 199.632C122.716 198.691 120.119 197.435 117.706 195.888C118.802 194.458 119.855 192.988 120.732 191.412C123.23 187.017 124.743 182.081 125.184 177.055C125.908 169.102 123.853 161.05 119.981 154.098C114.739 154.549 109.404 154.095 104.354 152.606C99.3331 151.143 94.6313 148.67 90.5003 145.491C85.3678 141.529 81.0315 136.569 77.7139 131.024Z" fill="#752650"/>
<path d="M122.64 112.076C122.69 112.021 122.743 111.967 122.797 111.91C122.8 111.944 122.809 112.012 122.812 112.046C127.929 111.919 133.065 112.282 138.092 113.253C142.86 114.163 147.54 115.587 151.947 117.617C155.759 119.383 159.379 121.61 162.508 124.411C164.639 126.313 166.524 128.491 168.039 130.907C164.983 129.355 161.961 127.736 158.917 126.161C155.763 123.719 152.388 121.54 148.778 119.813C144.123 117.56 139.121 116.012 134.001 115.228C122.774 113.507 111.068 115.415 100.87 120.324C96.3128 122.535 92.0209 125.35 88.3992 128.885C95.5202 129.94 102.526 131.973 108.951 135.218C116.271 138.885 122.774 144.16 127.77 150.61C132.517 156.708 135.922 163.79 137.919 171.221C140.378 180.354 140.772 190.013 139.162 199.324C137.78 207.256 134.923 214.988 130.404 221.703C127.706 225.705 124.411 229.333 120.554 232.27C120.275 232.456 119.925 232.414 119.608 232.46C118.479 232.571 117.336 232.659 116.212 232.469C119.779 230.019 122.863 226.921 125.445 223.475C130.292 216.986 133.449 209.36 135.171 201.498C137.136 192.437 137.205 182.952 135.186 173.894C133.512 166.391 130.333 159.182 125.651 153.037C123.142 149.737 120.227 146.762 116.972 144.179C113.3 141.258 109.216 138.859 104.907 136.984C96.3558 133.264 87.0126 131.602 77.7157 131.273C76.6996 130.566 75.6975 129.834 74.7856 128.997C77.778 128.118 80.9507 128.169 84.0257 128.497C84.3554 128.525 84.6873 128.601 85.0213 128.561C85.5852 127.928 86.0933 127.244 86.6775 126.625C91.3625 121.424 97.5781 117.747 104.172 115.428C110.097 113.35 116.364 112.275 122.64 112.076Z" fill="#EFCC78"/>
<path d="M54.2534 113.204C55.8468 112.195 57.8031 111.907 59.676 111.91C61.7992 111.935 63.932 112.279 65.9165 113.019C65.6435 114.997 65.4615 116.985 65.3196 118.975C63.684 118.926 62.1436 118.294 60.7224 117.558C58.6383 116.464 56.7708 115.041 54.8719 113.681C54.6629 113.525 54.43 113.396 54.2534 113.204ZM68.5444 113.462C70.5429 112.843 72.6379 112.537 74.7329 112.451C79.7969 112.253 84.9162 113.425 89.3304 115.833C88.2894 119.037 87.6016 122.345 87.2192 125.681C87.2051 125.835 87.2116 125.99 87.2192 126.144C86.6299 126.752 86.1175 127.423 85.5488 128.045C85.212 128.084 84.8772 128.01 84.5447 127.982C85.16 127.007 85.577 125.869 85.4503 124.713C85.3138 123.242 84.3735 121.945 83.1831 121.063C81.9525 120.141 80.4609 119.58 78.9347 119.313C78.2035 119.179 77.4572 119.164 76.7227 119.06C76.5754 118.511 76.1551 118.072 75.6644 117.78C74.5899 117.137 73.2131 117.038 72.027 117.438C70.5039 116.492 69.0524 115.193 68.5444 113.462Z" fill="#DDA137"/>
<path d="M65.9578 112.759C66.8261 112.815 67.6817 113.001 68.5236 113.222C69.0196 115.03 70.4369 116.388 71.9239 117.376C72.6018 118.574 73.2248 119.862 73.4003 121.254C74.3004 121.115 75.2502 120.932 75.981 120.336C76.3543 120.041 76.5733 119.558 76.5087 119.071C77.2258 119.179 77.9545 119.195 78.6684 119.335C80.1586 119.614 81.615 120.2 82.8165 121.163C83.9788 122.085 84.8969 123.44 85.0301 124.977C85.1539 126.185 84.7467 127.374 84.1459 128.393C81.1179 128.057 77.9937 128.004 75.0471 128.905C73.6076 128.409 72.2433 127.652 71.1285 126.58C69.6468 125.193 68.5828 123.426 67.4987 121.712C66.8821 120.734 66.2306 119.756 65.375 118.982C65.5136 116.902 65.6912 114.825 65.9578 112.759Z" fill="#3B6A54"/>
<path d="M100.898 121.003C111.058 116.114 122.719 114.214 133.904 115.928C139.005 116.708 143.988 118.25 148.625 120.493C152.221 122.214 155.583 124.383 158.726 126.815L158.863 126.983C154.369 125.48 149.714 124.402 144.989 123.948C142.02 123.687 138.994 123.682 136.071 124.317C135.743 124.4 135.405 124.45 135.096 124.587C143.277 127.331 151.033 131.52 157.434 137.298C163.48 142.713 168.244 149.525 171.185 157.056C174.988 166.705 175.818 177.42 173.861 187.574C172.125 196.652 168.181 205.33 162.346 212.551C157.154 219.006 150.423 224.247 142.827 227.652C136.272 230.616 129.119 232.203 121.931 232.54C121.429 232.544 120.925 232.622 120.426 232.551L120.508 232.483C124.35 229.558 127.633 225.945 130.321 221.96C134.822 215.273 137.668 207.573 139.045 199.674C140.649 190.401 140.257 180.783 137.807 171.688C135.817 164.288 132.425 157.235 127.696 151.163C122.719 144.739 116.241 139.486 108.949 135.835C102.548 132.603 95.5684 130.579 88.4744 129.528C92.0824 126.008 96.3581 123.204 100.898 121.003Z" fill="#AC151C"/>
<path d="M72.2192 118.063C73.2971 117.719 74.5483 117.804 75.5247 118.358C75.9707 118.61 76.3526 118.987 76.4865 119.46C76.5465 119.861 76.3428 120.259 75.9953 120.502C75.3151 120.993 74.4311 121.144 73.5934 121.258C73.43 120.111 72.8502 119.05 72.2192 118.063Z" fill="white"/>
</g>
</svg>
