<svg width="212" height="164" viewBox="0 0 212 164" fill="none" xmlns="http://www.w3.org/2000/svg">
<path d="M136.294 18.6747L1.15356 162.911H136.727L211.154 0.5H178.228C170.918 0.5 163.674 1.89495 156.886 4.61003C149.076 7.73439 142.046 12.5356 136.294 18.6747Z" fill="white" stroke="#C2C2C2" stroke-opacity="0.4"/>
<path d="M90.1536 80.5325V87.3359L112.61 74.1719L90.1536 80.5325Z" fill="#F7C03D"/>
<path d="M141.261 80.5325V87.3359L117.256 74.1719L141.261 80.5325Z" fill="#F7C03D"/>
<path d="M114.933 74.9463L90.1536 100.5L111.89 91.0191L114.933 74.9463Z" fill="#2E3C87"/>
<path d="M115.229 74.9463L141.557 100.5L118.462 91.0191L115.229 74.9463Z" fill="#2E3C87"/>
<path d="M136.652 116.6C136.699 117.33 136.916 117.977 137.303 118.541C137.691 119.105 138.226 119.553 138.908 119.884C139.606 120.199 140.427 120.357 141.373 120.357C142.272 120.357 143.078 120.258 143.791 120.058C144.52 119.859 145.148 119.611 145.675 119.312C146.218 119.013 146.636 118.706 146.931 118.391L149.675 123.069C149.287 123.517 148.737 123.957 148.024 124.388C147.326 124.803 146.404 125.143 145.257 125.409C144.109 125.674 142.66 125.807 140.908 125.807C138.799 125.807 136.923 125.384 135.28 124.538C133.637 123.692 132.342 122.447 131.397 120.805C130.451 119.163 129.978 117.155 129.978 114.783C129.978 112.792 130.381 111.001 131.187 109.408C132.009 107.799 133.195 106.53 134.745 105.601C136.296 104.655 138.164 104.183 140.35 104.183C142.427 104.183 144.226 104.589 145.745 105.402C147.28 106.215 148.458 107.426 149.28 109.035C150.117 110.628 150.535 112.618 150.535 115.007C150.535 115.14 150.528 115.405 150.512 115.803C150.512 116.201 150.497 116.467 150.466 116.6H136.652ZM143.884 112.643C143.869 112.112 143.737 111.59 143.489 111.075C143.241 110.545 142.869 110.113 142.373 109.781C141.877 109.433 141.241 109.259 140.466 109.259C139.691 109.259 139.032 109.425 138.489 109.757C137.962 110.072 137.559 110.487 137.28 111.001C137.001 111.515 136.846 112.062 136.815 112.643H143.884Z" fill="black"/>
<path d="M120.847 114.236L128.963 125.21H121.126L116.615 118.914L112.104 125.21H104.802L112.894 114.833L105.615 104.78H113.522L117.057 110.031L120.754 104.78H127.917L120.847 114.236Z" fill="black"/>
<path d="M95.0134 125.209V121.9C94.8739 122.232 94.5173 122.713 93.9437 123.343C93.3856 123.974 92.6414 124.546 91.7112 125.06C90.781 125.558 89.6958 125.807 88.4555 125.807C86.5951 125.807 84.9673 125.326 83.572 124.363C82.1767 123.385 81.0915 122.082 80.3163 120.457C79.5411 118.814 79.1536 116.998 79.1536 115.007C79.1536 113.016 79.5411 111.208 80.3163 109.582C81.0915 107.94 82.1767 106.63 83.572 105.651C84.9673 104.672 86.5951 104.183 88.4555 104.183C89.6493 104.183 90.6958 104.39 91.5949 104.805C92.4941 105.203 93.2228 105.684 93.7809 106.248C94.339 106.795 94.7266 107.301 94.9436 107.766V104.78H101.967V125.209H95.0134ZM86.0835 115.007C86.0835 115.936 86.2851 116.774 86.6882 117.52C87.0912 118.25 87.6261 118.823 88.2927 119.237C88.9749 119.652 89.7268 119.859 90.5485 119.859C91.4012 119.859 92.1531 119.652 92.8042 119.237C93.4553 118.823 93.9669 118.25 94.339 117.52C94.7266 116.774 94.9204 115.936 94.9204 115.007C94.9204 114.078 94.7266 113.249 94.339 112.519C93.9669 111.772 93.4553 111.192 92.8042 110.777C92.1531 110.346 91.4012 110.13 90.5485 110.13C89.7268 110.13 88.9749 110.346 88.2927 110.777C87.6261 111.192 87.0912 111.772 86.6882 112.519C86.2851 113.249 86.0835 114.078 86.0835 115.007Z" fill="black"/>
</svg>
