<svg width="212" height="164" viewBox="0 0 212 164" fill="none" xmlns="http://www.w3.org/2000/svg">
<path d="M136.294 18.6747L1.15332 162.911H136.726L211.153 0.5H178.228C170.917 0.5 163.674 1.89495 156.886 4.61003C149.075 7.73439 142.046 12.5356 136.294 18.6747Z" fill="white"/>
<path d="M1.15332 162.911L136.294 18.6746C142.046 12.5356 149.075 7.73439 156.886 4.61003C163.674 1.89496 170.917 0.5 178.228 0.5H211.153M1.15332 162.911H136.726L211.153 0.5M1.15332 162.911L136.294 18.6747C142.046 12.5356 149.075 7.73439 156.886 4.61003C163.674 1.89495 170.917 0.5 178.228 0.5H211.153" stroke="#C2C2C2" stroke-opacity="0.4"/>
<mask id="mask0_902_34542" style="mask-type:alpha" maskUnits="userSpaceOnUse" x="1" y="0" width="211" height="163">
<path d="M136.294 18.6747L1.15332 162.911H136.726L211.153 0.5H178.228C170.917 0.5 163.674 1.89495 156.886 4.61003C149.075 7.73439 142.046 12.5356 136.294 18.6747Z" fill="#040404"/>
</mask>
<g mask="url(#mask0_902_34542)">
</g>
<g clip-path="url(#clip0_902_34542)">
<path d="M154.625 20.7237L157.006 24.3518C157.012 24.362 157.015 24.3743 157.014 24.3864C157.012 24.3986 157.007 24.4099 156.998 24.4184L152.831 28.5849C152.826 28.5903 152.819 28.5945 152.812 28.597C152.804 28.5996 152.797 28.6005 152.789 28.5996C152.781 28.5988 152.774 28.5963 152.767 28.5922C152.76 28.5881 152.755 28.5826 152.751 28.5761L150.37 24.9481C150.363 24.9378 150.36 24.9255 150.362 24.9134C150.363 24.9012 150.369 24.8899 150.377 24.8814L154.544 20.715C154.549 20.7095 154.556 20.7053 154.563 20.7028C154.571 20.7002 154.579 20.6993 154.586 20.7002C154.594 20.701 154.602 20.7036 154.608 20.7076C154.615 20.7117 154.62 20.7172 154.625 20.7237Z" fill="#F9C623"/>
<path d="M53.1172 124.012L58.5254 118.604C58.5343 118.594 58.5461 118.589 58.5588 118.588C58.5714 118.587 58.584 118.591 58.5942 118.598L77.4335 132.154C77.4396 132.158 77.4446 132.164 77.4483 132.171C77.4519 132.177 77.4541 132.185 77.4546 132.192C77.4551 132.2 77.454 132.207 77.4513 132.214C77.4486 132.222 77.4444 132.228 77.4389 132.233L73.1327 136.54C73.1236 136.549 73.1114 136.554 73.0985 136.555C73.0856 136.556 73.0729 136.552 73.0628 136.544L69.2185 133.569C69.2083 133.561 69.1956 133.557 69.1827 133.558C69.1698 133.559 69.1576 133.564 69.1486 133.573L62.8601 139.862C62.8533 139.869 62.8486 139.877 62.8462 139.886C62.8439 139.896 62.8442 139.905 62.847 139.914L64.4207 145.212C64.4235 145.221 64.4237 145.231 64.4214 145.24C64.4191 145.249 64.4143 145.258 64.4076 145.265L59.7595 149.913C59.7529 149.919 59.7448 149.924 59.7359 149.926C59.7271 149.928 59.7178 149.928 59.7089 149.926C59.7001 149.923 59.6921 149.919 59.6856 149.912C59.6791 149.906 59.6745 149.898 59.6721 149.889L53.104 124.062C53.1017 124.053 53.1017 124.044 53.104 124.035C53.1063 124.026 53.1108 124.018 53.1172 124.012ZM58.6685 125.256C58.66 125.249 58.6495 125.245 58.6386 125.244C58.6276 125.244 58.6169 125.247 58.6078 125.253C58.5988 125.259 58.5919 125.268 58.5883 125.278C58.5846 125.289 58.5844 125.3 58.5876 125.31L61.4643 135C61.4668 135.008 61.4714 135.016 61.4778 135.022C61.4842 135.028 61.492 135.033 61.5007 135.035C61.5093 135.037 61.5183 135.037 61.5269 135.035C61.5354 135.032 61.5432 135.028 61.5495 135.022L65.6461 130.925C65.6513 130.92 65.6553 130.914 65.6579 130.907C65.6605 130.9 65.6616 130.893 65.6612 130.886C65.6608 130.879 65.6588 130.871 65.6555 130.865C65.6521 130.859 65.6474 130.853 65.6417 130.849L58.6685 125.256Z" fill="#3E474B"/>
<path d="M106.789 70.3376L111.127 65.9997C111.133 65.9945 111.139 65.9906 111.146 65.9882C111.153 65.9857 111.16 65.9849 111.168 65.9858C111.175 65.9866 111.182 65.9891 111.188 65.993C111.194 65.9969 111.2 66.0022 111.204 66.0084L121.481 81.674C121.485 81.6802 121.49 81.6855 121.496 81.6894C121.502 81.6933 121.509 81.6958 121.517 81.6966C121.524 81.6974 121.532 81.6966 121.539 81.6942C121.546 81.6918 121.552 81.6879 121.557 81.6827L128.28 74.9595C128.286 74.9544 128.292 74.9504 128.299 74.948C128.306 74.9456 128.313 74.9448 128.321 74.9456C128.328 74.9465 128.335 74.9489 128.341 74.9528C128.348 74.9568 128.353 74.962 128.357 74.9683L130.849 78.7689C130.855 78.7783 130.858 78.7895 130.856 78.8006C130.855 78.8117 130.85 78.8221 130.842 78.83L119.696 89.9763C119.691 89.9815 119.685 89.9855 119.678 89.9879C119.671 89.9903 119.663 89.9911 119.656 89.9903C119.648 89.9894 119.641 89.9869 119.635 89.983C119.629 89.9791 119.624 89.9738 119.62 89.9676L106.783 70.3988C106.777 70.3894 106.774 70.3782 106.775 70.3671C106.777 70.356 106.781 70.3456 106.789 70.3376Z" fill="#F9C623"/>
<path d="M86.8073 116.191C86.8094 116.185 86.8131 116.18 86.8179 116.176C86.8228 116.172 86.8288 116.17 86.8351 116.169C86.8414 116.169 86.8478 116.17 86.8537 116.172C86.8596 116.175 86.8647 116.179 86.8684 116.185L89.1991 119.542C89.2126 119.561 89.2204 119.584 89.2218 119.608C89.2231 119.631 89.2179 119.655 89.2067 119.676C88.5674 120.901 87.7167 122.165 86.6544 123.469C84.9386 125.576 82.5338 127.314 79.8406 127.524C76.4451 127.79 73.7399 125.77 72.1061 122.826C70.5531 120.026 70.3216 116.649 71.8582 113.736C72.9547 111.661 74.4931 110.065 76.4735 108.948C79.561 107.206 82.7893 108.211 85.1057 110.744C85.619 111.305 86.1931 112.064 86.828 113.021C86.8416 113.042 86.8475 113.067 86.8449 113.091C86.8424 113.116 86.8314 113.139 86.8138 113.157L78.3553 121.616C78.3465 121.625 78.3395 121.635 78.3349 121.647C78.3302 121.658 78.3279 121.67 78.3281 121.683C78.3283 121.695 78.331 121.708 78.3361 121.719C78.3411 121.73 78.3484 121.74 78.3575 121.749C80.1005 123.385 81.9178 122.575 83.4217 121.184C84.9288 119.791 86.0574 118.126 86.8073 116.191ZM76.1197 119.009C76.1231 119.016 76.1281 119.022 76.1343 119.026C76.1405 119.031 76.1477 119.034 76.1553 119.035C76.1629 119.036 76.1707 119.036 76.178 119.033C76.1853 119.031 76.1919 119.026 76.1972 119.021L81.2614 113.957C81.2727 113.945 81.279 113.93 81.2788 113.914C81.2786 113.898 81.2719 113.882 81.2603 113.87C80.3408 112.953 79.1045 112.315 77.8616 112.863C77.1343 113.184 76.5303 113.775 76.0498 114.636C75.2889 115.998 75.3122 117.456 76.1197 119.009Z" fill="#3E474B"/>
<path d="M89.2103 101.053C89.2177 101.067 89.2306 101.078 89.2462 101.083C89.2618 101.089 89.2787 101.087 89.2933 101.08C89.308 101.073 89.3191 101.06 89.3242 101.044C89.3293 101.028 89.328 101.012 89.3207 100.997C88.6108 99.0311 88.6359 96.6207 89.9497 94.9246C90.4732 94.2482 91.2472 93.6345 92.2716 93.0833C92.2972 93.0694 92.3272 93.066 92.3553 93.0737C92.3834 93.0814 92.4074 93.0998 92.4223 93.1248L95.0762 97.62C95.0819 97.6293 95.0851 97.6399 95.0856 97.6507C95.0861 97.6616 95.0839 97.6725 95.0792 97.6824C95.0744 97.6923 95.0673 97.701 95.0584 97.7076C95.0495 97.7143 95.0391 97.7187 95.0281 97.7205C94.4719 97.805 93.8639 98.1144 93.2043 98.6488C90.8649 100.547 91.3062 103.142 92.7565 105.381C93.6149 106.708 95.1122 109.014 97.2484 112.299C97.2624 112.321 97.2685 112.346 97.266 112.372C97.2634 112.397 97.2522 112.42 97.2342 112.438L93.142 116.53C93.137 116.535 93.1309 116.539 93.1243 116.541C93.1177 116.544 93.1106 116.544 93.1036 116.544C93.0967 116.543 93.0899 116.541 93.0839 116.537C93.0779 116.533 93.0728 116.528 93.0688 116.523C89.7153 111.379 87.3486 107.754 85.9689 105.646C85.3027 104.629 84.4519 103.442 83.4166 102.085C83.4023 102.066 83.3954 102.042 83.397 102.019C83.3986 101.995 83.4087 101.973 83.4253 101.956L87.1943 98.1868C87.2041 98.1769 87.216 98.1693 87.2292 98.1646C87.2424 98.1599 87.2565 98.1582 87.2705 98.1597C87.2845 98.1612 87.2981 98.1657 87.3102 98.1731C87.3223 98.1804 87.3327 98.1903 87.3406 98.2021L89.2103 101.053Z" fill="#3E474B"/>
<path d="M109.691 100.471C106.413 103.318 102.712 103.846 99.2957 101.035C98.019 99.9831 96.7969 98.3242 96.205 96.71C95.1314 93.7798 95.613 90.7928 97.249 88.1237C98.6666 85.8083 100.969 83.5869 103.647 82.7089C106.018 81.9324 108.505 82.3965 110.418 83.9976C112.191 85.4807 113.409 87.2467 114.073 89.2955C115.458 93.5614 112.782 97.7879 109.691 100.471ZM104.356 97.0606C106.752 98.2663 109.051 96.0438 109.118 93.7088C109.163 92.111 108.259 90.582 107.156 89.3457C106.217 88.2951 104.828 87.2281 103.326 87.8069C101.648 88.4557 100.772 90.2031 100.967 91.9548C101.201 94.0812 102.449 96.1017 104.356 97.0606Z" fill="#3E474B"/>
<path d="M138.48 71.6813C135.202 74.5274 131.501 75.0549 128.086 72.2427C126.809 71.1909 125.587 69.532 124.995 67.9178C123.921 64.9876 124.405 62.0006 126.041 59.3315C127.459 57.0162 129.761 54.7948 132.44 53.9178C134.81 53.1424 137.297 53.6065 139.21 55.2076C140.983 56.6907 142.201 58.4567 142.865 60.5055C144.249 64.7725 141.572 68.9979 138.48 71.6813ZM133.146 68.2695C135.543 69.4752 137.842 67.2527 137.909 64.9177C137.954 63.3199 137.05 61.791 135.947 60.5547C135.007 59.504 133.619 58.437 132.117 59.0159C130.439 59.6646 129.563 61.412 129.758 63.1638C129.992 65.2901 131.24 67.3106 133.146 68.2695Z" fill="#F9C623"/>
<path d="M151.737 33.6445C151.742 33.6394 151.748 33.6356 151.755 33.6333C151.761 33.631 151.769 33.6304 151.776 33.6315C151.783 33.6325 151.79 33.6352 151.796 33.6394C151.802 33.6436 151.807 33.6491 151.811 33.6555C152.686 35.1965 153.281 36.2722 154.114 37.5904C156.084 40.7095 158.153 43.9823 160.32 47.4087C162.456 50.7855 163.961 54.2782 161.486 57.9608C159.364 61.1178 156.597 63.5675 153.185 65.3098C153.171 65.3169 153.155 65.3185 153.14 65.3143C153.125 65.31 153.113 65.3002 153.105 65.2869L150.772 61.3355C150.766 61.3253 150.763 61.3139 150.762 61.302C150.761 61.2902 150.763 61.2783 150.767 61.2671C150.771 61.256 150.778 61.246 150.787 61.2378C150.796 61.2296 150.807 61.2234 150.818 61.2198C153.018 60.5798 154.756 59.3631 156.305 57.4301C157.465 55.9834 157.739 54.4172 157.128 52.7317C156.762 51.7204 156.269 50.7768 155.65 49.9009C155.642 49.8905 155.632 49.8828 155.62 49.8792C155.608 49.8756 155.594 49.8762 155.583 49.8811C155.571 49.886 155.561 49.8947 155.555 49.9058C155.549 49.917 155.547 49.9299 155.549 49.9424C156.056 52.7667 154.966 55.0864 152.732 56.7988C150.881 58.2186 148.632 58.5506 146.451 57.6343C144.014 56.611 141.875 54.3361 140.899 51.976C140.254 50.4135 140.023 48.8459 140.205 47.2732C140.534 44.437 142.449 41.6477 145.044 40.4179C146.506 39.7248 147.979 39.6807 149.462 40.2858C149.471 40.289 149.48 40.2895 149.489 40.2872C149.498 40.2848 149.507 40.2798 149.513 40.2727C149.519 40.2655 149.523 40.2567 149.524 40.2474C149.525 40.238 149.523 40.2285 149.518 40.2203L147.938 37.5434C147.928 37.5251 147.923 37.504 147.925 37.4835C147.928 37.4629 147.937 37.444 147.951 37.4299L151.737 33.6445ZM146.313 49.2314C147.067 50.8369 148.534 52.486 150.416 52.0721C151.23 51.893 151.923 51.4077 152.495 50.6163C153.46 49.2751 153.334 47.6752 152.655 46.2292C151.903 44.6248 150.435 42.9757 148.552 43.3885C147.738 43.5676 147.046 44.0529 146.476 44.8443C145.508 46.1855 145.635 47.7865 146.313 49.2314Z" fill="#F9C623"/>
<path d="M178.435 24.5965C178.439 24.5861 178.446 24.577 178.455 24.5702C178.464 24.5634 178.474 24.5592 178.485 24.5581C178.496 24.557 178.507 24.5589 178.518 24.5638C178.528 24.5686 178.536 24.5762 178.542 24.5856L180.957 28.2672C180.966 28.2816 180.971 28.298 180.972 28.3151C180.973 28.3321 180.97 28.349 180.962 28.3644C180.126 30.0528 178.678 31.667 177.225 32.9338C176.377 33.6743 175.429 34.2094 174.381 34.5393C169.181 36.1807 164.493 31.9247 163.794 26.9489C163.277 23.2608 164.951 19.6306 167.705 17.1624C168.825 16.1591 170.2 15.2955 171.831 14.5718C171.854 14.5614 171.881 14.5602 171.905 14.5685C171.929 14.5768 171.949 14.594 171.961 14.6166L173.882 18.2785C173.888 18.2894 173.891 18.3014 173.891 18.3136C173.892 18.3259 173.89 18.3381 173.886 18.3494C173.882 18.3608 173.875 18.3711 173.866 18.3796C173.858 18.388 173.847 18.3945 173.836 18.3986C172.246 19 171.008 19.8366 170.123 20.9084C168.172 23.2739 168.729 26.12 170.888 28.1306C172.476 29.6094 174.707 29.2817 176.197 27.8696C177.167 26.9508 177.913 25.8597 178.435 24.5965Z" fill="#F9C623"/>
<path d="M154.371 31.0094L158.544 26.8364C158.55 26.8312 158.556 26.8272 158.563 26.8248C158.57 26.8224 158.577 26.8216 158.585 26.8225C158.592 26.8233 158.599 26.8258 158.605 26.8297C158.612 26.8336 158.617 26.8389 158.621 26.8451L168.188 41.4294C168.194 41.4389 168.197 41.4501 168.195 41.4612C168.194 41.4723 168.189 41.4826 168.181 41.4906L164.008 45.6636C164.003 45.6688 163.997 45.6728 163.99 45.6752C163.983 45.6776 163.975 45.6784 163.968 45.6775C163.961 45.6767 163.954 45.6742 163.947 45.6703C163.941 45.6664 163.936 45.6611 163.932 45.6549L154.365 31.0706C154.359 31.0611 154.356 31.0499 154.358 31.0388C154.359 31.0277 154.364 31.0174 154.371 31.0094Z" fill="#F9C623"/>
</g>
<defs>
<clipPath id="clip0_902_34542">
<rect width="175.456" height="32.1258" fill="white" transform="translate(42.1533 132.566) rotate(-45)"/>
</clipPath>
</defs>
</svg>
