<svg width="212" height="164" viewBox="0 0 212 164" fill="none" xmlns="http://www.w3.org/2000/svg">
<path d="M136.295 18.6747L1.1543 162.911H136.727L211.154 0.5H178.229C170.918 0.5 163.675 1.89495 156.887 4.61003C149.076 7.73439 142.047 12.5356 136.295 18.6747Z" fill="white"/>
<path d="M1.1543 162.911L136.295 18.6746C142.047 12.5356 149.076 7.73439 156.887 4.61003C163.675 1.89496 170.918 0.5 178.229 0.5H211.154M1.1543 162.911H136.727L211.154 0.5M1.1543 162.911L136.295 18.6747C142.047 12.5356 149.076 7.73439 156.887 4.61003C163.675 1.89495 170.918 0.5 178.229 0.5H211.154" stroke="#C2C2C2" stroke-opacity="0.4"/>
<mask id="mask0_326_107669" style="mask-type:alpha" maskUnits="userSpaceOnUse" x="1" y="0" width="211" height="163">
<path d="M136.295 18.6747L1.1543 162.911H136.727L211.154 0.5H178.229C170.918 0.5 163.675 1.89495 156.887 4.61003C149.076 7.73439 142.047 12.5356 136.295 18.6747Z" fill="#1C325C"/>
</mask>
<g mask="url(#mask0_326_107669)">
<path d="M132.139 81.5C133.305 81.7658 134.473 81.9965 135.642 82.1919C138.694 82.708 141.573 83.8104 144.28 85.4992C148.364 88.0442 152.096 92.8467 150.94 98.0949C149.409 105.067 143.476 108.21 136.875 109.389C130.713 110.487 124.438 110.468 118.05 109.33C103.545 106.754 89.041 106.777 74.5393 109.401C71.8166 109.893 69.1995 110.534 66.688 111.324C66.1873 111.484 65.7374 111.535 65.3384 111.476C65.2819 111.468 65.2287 111.445 65.1843 111.409C65.1399 111.374 65.106 111.327 65.0862 111.273C65.0663 111.22 65.0613 111.162 65.0716 111.106C65.0819 111.05 65.1072 110.997 65.1447 110.955C69.2093 106.467 73.7178 102.446 78.6704 98.8924C90.7466 90.2255 104.759 84.1974 119.453 82.3385C121.526 82.0766 123.599 81.7971 125.673 81.5H132.139Z" fill="#0BA327"/>
<path d="M85.0781 140.848H81.0577C79.385 140.571 77.724 140.279 76.0746 139.971C72.0795 139.227 68.5551 137.533 65.5014 134.892C63.1441 132.854 61.695 130.33 61.1543 127.322V124.967C62.4905 117.456 68.5065 114.03 75.5669 112.914C81.8105 111.924 88.1765 111.987 94.6651 113.101C109.552 115.657 124.105 115.535 138.323 112.733C140.14 112.374 142.33 111.817 144.893 111.061C145.469 110.89 145.891 110.822 146.16 110.857C146.25 110.869 146.336 110.906 146.407 110.964C146.478 111.022 146.531 111.098 146.561 111.185C146.591 111.271 146.597 111.365 146.578 111.454C146.558 111.544 146.515 111.626 146.451 111.692C138.745 119.918 129.792 126.555 119.593 131.601C112.501 135.108 105.396 137.592 98.2771 139.053C94.3967 139.854 89.4719 140.316 85.0781 140.848Z" fill="#EF1D0C"/>
</g>
</svg>
