<svg width="212" height="164" viewBox="0 0 212 164" fill="none" xmlns="http://www.w3.org/2000/svg">
<path d="M136.295 18.6747L1.1543 162.911H136.727L211.154 0.5H178.229C170.918 0.5 163.675 1.89495 156.887 4.61003C149.076 7.73439 142.047 12.5356 136.295 18.6747Z" fill="white"/>
<path d="M1.1543 162.911L136.295 18.6746C142.047 12.5356 149.076 7.73439 156.887 4.61003C163.675 1.89496 170.918 0.5 178.229 0.5H211.154M1.1543 162.911H136.727L211.154 0.5M1.1543 162.911L136.295 18.6747C142.047 12.5356 149.076 7.73439 156.887 4.61003C163.675 1.89495 170.918 0.5 178.229 0.5H211.154" stroke="#C2C2C2" stroke-opacity="0.4"/>
<mask id="mask0_315_57307" style="mask-type:alpha" maskUnits="userSpaceOnUse" x="1" y="0" width="211" height="163">
<path d="M136.295 18.6747L1.1543 162.911H136.727L211.154 0.5H178.229C170.918 0.5 163.675 1.89495 156.887 4.61003C149.076 7.73439 142.047 12.5356 136.295 18.6747Z" fill="#1C325C"/>
</mask>
<g mask="url(#mask0_315_57307)">
<path d="M95.6153 109.786C94.8261 112.517 94.7203 114.734 95.2979 116.439C95.7828 119.669 96.9136 122.66 98.6903 125.413C105.759 136.375 118.007 143.637 130.393 146.896C130.454 146.915 130.508 146.956 130.543 147.012C130.578 147.067 130.593 147.133 130.585 147.198C130.577 147.263 130.547 147.324 130.5 147.369C130.453 147.414 130.391 147.441 130.326 147.445C123.026 147.449 116.666 147.467 111.248 147.498C105.213 147.529 100.839 147.161 98.1282 146.394C87.3491 143.342 79.3409 133.98 73.839 124.262C69.2232 116.115 65.3326 107.33 62.1672 97.9075C62.1553 97.8757 62.1516 97.8415 62.1563 97.8078C62.161 97.7741 62.174 97.742 62.1943 97.7143C62.2145 97.6865 62.2413 97.664 62.2723 97.6487C62.3034 97.6334 62.3376 97.6257 62.3722 97.6264C66.7103 97.6933 70.9756 97.6799 75.1682 97.5863C77.1851 97.5394 78.4746 95.7258 80.0617 93.4905C88.0942 82.2294 95.4235 72.028 102.05 62.8862C105.111 58.6566 107.968 57.5858 113.034 57.5657C133.525 57.4854 150.802 57.4787 164.866 57.5456C165.082 57.5456 165.176 57.646 165.15 57.8468C165.115 58.0966 165 58.2483 164.806 58.3019C149.577 62.6185 135.028 68.7152 122.199 77.402C115.119 82.1937 109.194 87.4629 104.424 93.2094C100.28 98.2109 97.3434 103.737 95.6153 109.786Z" fill="#E3000F"/>
<path d="M94.525 116.073C93.9402 114.39 94.0473 112.2 94.8463 109.504C98.6361 104.504 104.267 100.847 111.739 98.5338C119.091 96.2649 124.863 94.7362 129.054 93.9475C143.606 91.2072 158.236 89.7247 172.944 89.5C172.987 89.4995 173.029 89.5122 173.065 89.5363C173.1 89.5605 173.127 89.5949 173.142 89.6349C173.157 89.6748 173.158 89.7182 173.147 89.7592C173.135 89.8002 173.111 89.8366 173.078 89.8635L169.094 93.0356C168.875 93.2088 168.612 93.3227 168.331 93.366C158.528 94.7714 149.079 96.8553 139.982 99.6176C133.281 101.649 127.063 104.378 121.328 107.806C119.779 108.731 118.219 110.174 116.647 112.134C114.148 115.245 114.529 117.934 117.792 120.203C119.917 121.675 122.115 122.875 124.387 123.805C130.463 126.29 136.87 128.36 143.611 130.017C144.119 130.141 144.57 130.424 144.896 130.823L145.485 131.543C145.56 131.635 145.605 131.746 145.615 131.863C145.625 131.981 145.599 132.098 145.54 132.2C145.482 132.303 145.394 132.385 145.287 132.438C145.181 132.49 145.061 132.51 144.943 132.495C133.279 130.975 121.816 129.501 110.615 126.488C107.628 125.686 104.441 124.426 101.053 122.708C98.1071 121.214 95.931 119.003 94.525 116.073Z" fill="#0B3393"/>
</g>
</svg>
