<svg width="212" height="164" viewBox="0 0 212 164" fill="none" xmlns="http://www.w3.org/2000/svg">
<path d="M136.297 18.6747L1.15625 162.911H136.729L211.156 0.5H178.231C170.92 0.5 163.677 1.89495 156.889 4.61003C149.078 7.73439 142.049 12.5356 136.297 18.6747Z" fill="#048C54"/>
<path d="M1.15625 162.911L136.297 18.6746C142.049 12.5356 149.078 7.73439 156.889 4.61003C163.677 1.89496 170.92 0.5 178.231 0.5H211.156M1.15625 162.911H136.729L211.156 0.5M1.15625 162.911L136.297 18.6747C142.049 12.5356 149.078 7.73439 156.889 4.61003C163.677 1.89495 170.92 0.5 178.231 0.5H211.156" stroke="#C2C2C2" stroke-opacity="0.4"/>
<mask id="mask0_613_30531" style="mask-type:alpha" maskUnits="userSpaceOnUse" x="1" y="0" width="211" height="163">
<path d="M136.297 18.6747L1.15625 162.911H136.729L211.156 0.5H178.231C170.92 0.5 163.677 1.89495 156.889 4.61003C149.078 7.73439 142.049 12.5356 136.297 18.6747Z" fill="#212061"/>
</mask>
<g mask="url(#mask0_613_30531)">
<path d="M212.869 11.4054C156.088 87.5854 33.2111 164.093 -21.1299 192.824L62.052 211.61L270.887 74.7784L337.935 -32.0261C319.905 -49.2906 269.649 -64.7747 212.869 11.4054Z" fill="#3CBA35"/>
<path d="M197.529 93.7799C173.324 115.934 106.908 151.42 76.7262 166.395C82.8386 183.595 95.4336 218.295 96.9148 219.485C98.396 220.675 163.429 226.137 195.76 228.719L271.663 73.6352C257.037 71.1194 221.734 71.6262 197.529 93.7799Z" fill="#9FCC0F"/>
<path d="M117.925 58.5001C127.025 58.5001 134.406 65.7313 134.413 74.6556V74.6697C134.392 76.6028 134.046 78.5217 133.377 80.3418L124.428 77.0754C125.881 73.5762 124.162 69.5903 120.594 68.1652C117.025 66.7401 112.961 68.4262 111.508 71.9254C111.148 72.8002 110.968 73.7385 110.997 74.6768C110.997 75.9185 111.342 77.1319 112.011 78.1831C112.026 78.2254 112.04 78.2607 112.062 78.2959C112.731 79.2836 113.551 80.1584 114.486 80.9062C114.817 81.2096 115.385 81.5059 116.097 82.0068C121.572 85.7811 128.694 87.3896 135.859 87.8058C136.212 87.8693 136.507 87.8976 136.715 87.9187H137.06L137.449 87.9752C137.586 87.9752 137.701 87.9752 137.83 88.0316C137.96 88.088 138.082 88.0316 138.197 88.0951C138.334 88.1163 138.463 88.1445 138.593 88.1798L138.952 88.2503C139.075 88.2926 139.226 88.3208 139.348 88.3561C139.47 88.3914 139.586 88.4196 139.708 88.4619C139.844 88.4972 139.981 88.5395 140.111 88.5889L140.449 88.6877L140.859 88.8429C140.909 88.8641 140.96 88.8782 141.01 88.8923C141.046 88.9064 141.082 88.9205 141.118 88.9346C141.226 88.9769 141.341 89.0122 141.449 89.0546L141.888 89.2309C141.981 89.2803 142.082 89.3156 142.183 89.3509C142.341 89.4214 142.499 89.499 142.65 89.5837L142.916 89.6965L143.614 90.0775C143.895 90.2327 144.168 90.4091 144.434 90.5854C144.506 90.6419 144.585 90.6913 144.664 90.7407C144.859 90.8606 145.046 91.0017 145.226 91.1216C145.312 91.1781 145.391 91.2415 145.47 91.305C145.657 91.4391 145.83 91.5872 146.017 91.7283L146.218 91.8906C146.441 92.0881 146.672 92.2998 146.916 92.5114C153.571 98.5997 153.937 108.829 147.729 115.362C142.398 120.964 133.794 122.128 127.111 118.149C125.428 117.196 123.932 115.962 122.673 114.501L130.025 108.519C130.55 109.126 131.176 109.648 131.874 110.05C135.312 111.743 139.506 110.381 141.233 107.009C142.816 103.912 141.794 100.145 138.845 98.2329C137.751 97.6121 136.507 97.3087 135.248 97.344C135.204 97.3369 135.161 97.3369 135.118 97.344C133.924 97.4216 132.751 97.6756 131.629 98.0918C131.01 98.3175 130.399 98.5715 129.809 98.8608C122.622 102.282 118.759 106.868 114.81 112.745C114.572 113.027 114.4 113.253 114.277 113.429L114.061 113.718C113.99 113.824 113.91 113.916 113.831 114.022C113.745 114.12 113.666 114.226 113.594 114.332L113.349 114.607C113.256 114.706 113.169 114.805 113.069 114.903C112.968 115.002 112.91 115.087 112.824 115.172L112.529 115.468C112.45 115.553 112.357 115.63 112.27 115.722L111.954 116.011C111.86 116.082 111.781 116.166 111.673 116.237C111.637 116.286 111.587 116.329 111.536 116.364C111.428 116.463 111.313 116.54 111.205 116.639C111.098 116.738 111.026 116.794 110.932 116.865L110.551 117.147L110.292 117.33C110.148 117.429 109.99 117.528 109.853 117.634L109.623 117.775C109.393 117.916 109.162 118.064 108.925 118.191C108.688 118.318 108.357 118.501 108.076 118.635L107.81 118.762L107.191 119.038L106.904 119.158C106.702 119.242 106.479 119.327 106.256 119.397L106.019 119.489C105.724 119.588 105.436 119.673 105.141 119.757C96.3788 122.191 87.2641 117.203 84.7822 108.611C82.7247 101.485 85.8613 93.9012 92.4006 90.1974C94.0552 89.245 95.8752 88.5889 97.76 88.2574L99.3283 97.5062C95.5371 98.1623 93.0048 101.711 93.6739 105.429C94.3429 109.147 97.9615 111.63 101.753 110.974C102.587 110.826 103.393 110.537 104.119 110.106C105.213 109.485 106.105 108.582 106.709 107.496C106.745 107.461 106.774 107.425 106.803 107.383C107.306 106.297 107.652 105.147 107.817 103.961C107.882 103.524 107.939 102.953 108.033 102.106C108.58 96.963 107.695 89.8941 103.299 82.416C102.616 81.0614 102.105 79.6222 101.767 78.1478C101.738 78.0349 101.717 77.922 101.702 77.8091C101.659 77.668 101.638 77.5199 101.609 77.3859C101.58 77.2518 101.609 77.1672 101.558 77.0543C101.508 76.9414 101.515 76.7368 101.494 76.5887C101.472 76.4828 101.465 76.377 101.458 76.2641C101.458 76.1019 101.458 75.9185 101.415 75.735C101.371 75.5516 101.415 75.5587 101.415 75.474V74.6768C101.415 74.4087 101.415 74.0419 101.451 73.7244V73.4422C101.451 73.2235 101.494 72.9977 101.522 72.7579V72.4616C101.522 72.2288 101.594 72.0101 101.63 71.7773C101.63 71.6856 101.666 71.6079 101.681 71.5162C101.745 71.227 101.803 70.9377 101.889 70.6344C103.789 63.4737 110.385 58.4789 117.925 58.5001Z" fill="#FAFA40"/>
</g>
</svg>
