<svg width="212" height="164" viewBox="0 0 212 164" fill="none" xmlns="http://www.w3.org/2000/svg">
<path d="M136.297 18.6747L1.15625 162.911H136.729L211.156 0.5H178.231C170.92 0.5 163.677 1.89495 156.889 4.61003C149.078 7.73439 142.049 12.5356 136.297 18.6747Z" fill="#DC043C"/>
<path d="M1.15625 162.911L136.297 18.6746C142.049 12.5356 149.078 7.73439 156.889 4.61003C163.677 1.89496 170.92 0.5 178.231 0.5H211.156M1.15625 162.911H136.729L211.156 0.5M1.15625 162.911L136.297 18.6747C142.049 12.5356 149.078 7.73439 156.889 4.61003C163.677 1.89495 170.92 0.5 178.231 0.5H211.156" stroke="#C2C2C2" stroke-opacity="0.4"/>
<mask id="mask0_602_19299" style="mask-type:alpha" maskUnits="userSpaceOnUse" x="1" y="0" width="211" height="163">
<path d="M136.297 18.6747L1.15625 162.911H136.729L211.156 0.5H178.231C170.92 0.5 163.677 1.89495 156.889 4.61003C149.078 7.73439 142.049 12.5356 136.297 18.6747Z" fill="#100D5C"/>
</mask>
<g mask="url(#mask0_602_19299)">
<path d="M142.049 89.1394C138.388 89.3353 134.742 89.942 131.11 90.9592C126.793 92.1739 121.289 94.5342 118.616 98.1351C116.374 101.158 105.137 116.393 84.9055 143.84C84.8881 143.864 84.8773 143.892 84.8743 143.922C84.8712 143.951 84.876 143.981 84.8881 144.007C84.9002 144.034 84.9193 144.057 84.9434 144.074C84.9675 144.091 84.9957 144.101 85.0252 144.103L86.346 144.25C86.4162 144.258 86.4876 144.247 86.553 144.219C86.6183 144.191 86.6753 144.147 86.7183 144.09C97.6302 129.554 108.227 115.245 118.51 101.161C120.442 98.5126 122.534 96.5529 124.786 95.282C129.067 92.867 133.671 91.3469 138.596 90.7215C138.617 90.7178 138.638 90.7209 138.656 90.7302C138.674 90.7395 138.689 90.7545 138.698 90.7729C138.706 90.7912 138.708 90.8119 138.704 90.8315C138.699 90.8512 138.688 90.8688 138.672 90.8814C136.869 92.4319 135.157 94.0111 133.535 95.6192C132.291 96.8555 130.822 98.6437 129.129 100.984C121.024 112.165 110.161 127.128 96.5398 145.871C96.5254 145.892 96.5165 145.916 96.5138 145.941C96.5111 145.966 96.5148 145.991 96.5244 146.014C96.5341 146.037 96.5494 146.057 96.5691 146.073C96.5888 146.089 96.6123 146.1 96.6374 146.105C101.867 147.039 107.611 147.939 113.869 148.807C117.971 149.374 121.677 149.75 124.99 149.935C127.706 150.086 132.196 149.905 133.947 147.454C133.971 147.42 134.006 147.396 134.045 147.384C134.084 147.373 134.126 147.374 134.164 147.389L136.611 148.297C136.625 148.302 136.638 148.31 136.648 148.321C136.658 148.332 136.666 148.345 136.671 148.359C136.676 148.373 136.677 148.388 136.675 148.402C136.673 148.417 136.668 148.431 136.659 148.444C135.214 150.631 132.249 151.474 129.772 151.478C120.854 151.504 84.2082 151.507 19.8333 151.487C19.6619 151.487 18.7902 151.467 17.2183 151.426C17.2018 151.426 17.1861 151.419 17.1744 151.407C17.1628 151.395 17.1563 151.379 17.1562 151.361C17.1563 151.343 17.1633 151.325 17.1757 151.312C17.1882 151.3 17.2051 151.292 17.2227 151.292C19.8731 151.236 23.2327 150.739 25.1341 149.377C26.4371 148.444 27.4742 147.805 28.2454 147.462C30.1246 146.628 32.2122 148.288 33.8742 148.889C35.0266 149.307 36.3665 149.517 37.8941 149.52C42.1135 149.526 46.2753 149.19 50.3794 148.513C54.5323 147.825 57.976 146.243 60.6752 143.325C62.2501 141.622 63.72 139.847 65.0851 138C72.4602 128.017 79.1246 118.524 85.0784 109.521C86.0121 108.106 88.268 104.939 91.8462 100.02C95.9016 94.4391 101.53 91.4434 108.817 89.9434C113.066 89.0673 117.236 88.599 121.329 88.5385C127.383 88.4463 133.662 88.5198 140.165 88.759C141.093 88.7935 141.727 88.844 142.067 88.9103C142.094 88.9171 142.118 88.9331 142.134 88.9553C142.15 88.9776 142.158 89.0047 142.156 89.032C142.154 89.0593 142.142 89.085 142.122 89.1047C142.103 89.1243 142.077 89.1366 142.049 89.1394ZM28.2277 149.719H30.7629C30.7746 149.719 30.7859 149.714 30.7942 149.706C30.8025 149.698 30.8072 149.687 30.8072 149.676V149.667C30.8072 149.449 30.676 149.24 30.4424 149.086C30.2089 148.932 29.892 148.846 29.5617 148.846H29.4288C29.2652 148.846 29.1033 148.867 28.9522 148.908C28.8011 148.949 28.6638 149.01 28.5482 149.086C28.4325 149.162 28.3408 149.253 28.2782 149.353C28.2156 149.452 28.1833 149.559 28.1833 149.667V149.676C28.1833 149.687 28.188 149.698 28.1963 149.706C28.2046 149.714 28.2159 149.719 28.2277 149.719Z" fill="white"/>
</g>
</svg>
