<svg width="212" height="164" viewBox="0 0 212 164" fill="none" xmlns="http://www.w3.org/2000/svg">
<path d="M136.295 18.6747L1.1543 162.911H136.727L211.154 0.5H178.229C170.918 0.5 163.675 1.89495 156.887 4.61003C149.076 7.73439 142.047 12.5356 136.295 18.6747Z" fill="white"/>
<path d="M1.1543 162.911L136.295 18.6746C142.047 12.5356 149.076 7.73439 156.887 4.61003C163.675 1.89496 170.918 0.5 178.229 0.5H211.154M1.1543 162.911H136.727L211.154 0.5M1.1543 162.911L136.295 18.6747C142.047 12.5356 149.076 7.73439 156.887 4.61003C163.675 1.89495 170.918 0.5 178.229 0.5H211.154" stroke="#C2C2C2" stroke-opacity="0.4"/>
<path d="M159.154 73.9124C156.597 77.9618 146.228 78.4531 141.363 78.1926C114.462 72.2375 104.552 78.4159 102.96 82.2495C97.8445 97.1374 138.291 100.04 159.154 99.6311C102.84 109.439 84.8286 98.3839 83.2397 90.9439C83.0335 89.9783 83.2233 88.9736 83.5667 88.0474C90.0483 70.5689 136.275 71.2773 159.154 73.9124Z" fill="url(#paint0_linear_315_54706)"/>
<path d="M83.5669 88.0473C90.0486 70.569 136.275 71.2773 159.154 73.9123C156.676 77.8352 146.868 78.4187 141.835 78.2144L141.363 78.1928C114.462 72.2377 104.552 78.4158 102.96 82.2494C97.8444 97.1371 138.291 100.041 159.154 99.6312C102.84 109.439 84.8285 98.3836 83.2396 90.9436C83.0592 90.0989 83.1824 89.2243 83.4459 88.3984L83.5669 88.0473ZM158.292 74.2739C146.88 73.0127 130.089 72.2557 115.262 73.89C107.67 74.7269 100.618 76.1884 95.0732 78.5144C89.5205 80.8437 85.5547 84.0076 83.9982 88.2048C83.6703 89.0889 83.5081 90.0003 83.6893 90.8491C84.0548 92.5606 85.3848 94.5578 88.1154 96.4448C90.8428 98.3296 94.9407 100.084 100.77 101.309C111.635 103.593 128.449 104.026 153.443 100.113C143.58 100.023 131.285 99.2353 121.22 97.1228C115.164 95.8517 109.862 94.0908 106.385 91.6773C104.643 90.4678 103.331 89.0746 102.629 87.4691C101.922 85.8521 101.852 84.0605 102.525 82.1024L102.53 82.0886L102.535 82.0755C103.416 79.9554 106.473 77.3971 112.575 76.1044C118.694 74.8082 127.954 74.7616 141.422 77.7386C143.831 77.8652 147.585 77.8061 151.047 77.2195C152.786 76.9248 154.434 76.4994 155.796 75.9082C156.845 75.4526 157.695 74.9092 158.292 74.2739Z" fill="url(#paint1_radial_315_54706)"/>
<path d="M128.815 96.6844L132.431 101.135C132.452 101.161 132.479 101.182 132.508 101.197C132.537 101.212 132.57 101.221 132.602 101.222C132.635 101.223 132.667 101.217 132.698 101.205C132.728 101.192 132.755 101.173 132.778 101.149L134.395 99.4226C135.141 98.7498 135.842 98.0345 136.498 97.2769C138.192 95.3172 139.324 94.0303 139.893 93.4161C139.947 93.3585 139.984 93.2882 140.001 93.2124C140.12 92.7202 140.144 92.363 140.073 92.1408C139.884 91.5359 139.776 91.1848 139.747 91.0876C139.741 91.0665 139.74 91.0442 139.744 91.0225C139.748 91.0008 139.758 90.9805 139.771 90.9631C139.784 90.9456 139.802 90.9317 139.821 90.9224C139.841 90.913 139.863 90.9086 139.884 90.9094L145.912 91.1362C145.941 91.1377 145.97 91.133 145.997 91.1223C146.27 91.0236 146.547 91.0197 146.827 91.1107C146.847 91.1172 146.866 91.1291 146.88 91.1453C146.894 91.1614 146.904 91.1813 146.909 91.2028C146.913 91.2243 146.912 91.2468 146.906 91.2681C146.899 91.2893 146.888 91.3084 146.872 91.3237C146.512 91.6663 146.269 91.8831 146.141 91.9741C145.703 92.2827 145.307 92.6199 144.954 92.9856C144.727 93.2201 144.331 93.5565 143.766 93.9948C143.151 94.4731 142.505 95.0417 141.828 95.7006C141.289 96.2237 140.556 96.8325 139.628 97.5269C138.887 98.0808 138.264 98.7259 137.759 99.4619L134.635 102.158C134.624 102.168 134.614 102.181 134.607 102.195C134.601 102.209 134.597 102.225 134.597 102.24C134.597 102.256 134.6 102.272 134.606 102.287C134.612 102.301 134.622 102.314 134.633 102.325L139.59 106.94C139.599 107.172 139.711 107.361 139.927 107.508C140.334 107.782 140.632 108.066 140.822 108.359C140.86 108.419 140.905 108.473 140.957 108.519C141.412 108.94 142.084 109.665 142.81 110.179C143.346 110.558 143.771 110.912 144.088 111.241C144.212 111.367 144.35 111.478 144.499 111.572C145.053 111.918 145.639 112.387 146.258 112.979C146.326 113.045 146.407 113.095 146.496 113.125C146.948 113.283 147.158 113.676 147.567 113.84C147.844 113.953 148.017 114.041 148.086 114.104C148.118 114.134 148.139 114.172 148.149 114.215C148.158 114.257 148.155 114.302 148.14 114.342C148.125 114.383 148.098 114.418 148.063 114.443C148.028 114.468 147.987 114.481 147.945 114.481L141.317 114.5C141.273 114.5 141.229 114.485 141.194 114.458C141.159 114.43 141.133 114.391 141.121 114.347L140.827 113.294C140.819 113.267 140.806 113.241 140.789 113.218C140.25 112.517 139.849 112.036 139.585 111.773C139.097 111.289 138.742 110.865 138.522 110.5C138.364 110.239 138.013 110.107 137.937 109.797C137.915 109.714 137.87 109.639 137.809 109.581C137.294 109.108 136.985 108.804 136.88 108.672C136.175 107.783 135.486 106.948 134.813 106.167C134.435 105.729 134.077 105.471 133.738 105.394L132.697 104.172C132.688 104.162 132.677 104.154 132.665 104.148C132.653 104.142 132.64 104.139 132.627 104.139C132.614 104.139 132.601 104.142 132.589 104.148C132.577 104.154 132.566 104.162 132.557 104.172L132.146 104.674C131.975 104.732 131.8 104.851 131.622 105.033C131.305 105.357 130.458 106.207 129.08 107.582C128.284 108.378 127.589 109.116 126.996 109.797C126.152 110.766 125.485 111.534 124.996 112.102C124.418 112.773 124.479 113.384 124.416 114.157C124.409 114.242 124.372 114.322 124.31 114.38C124.249 114.437 124.169 114.47 124.085 114.47H117.35C117.303 114.47 117.258 114.453 117.222 114.421C117.187 114.39 117.164 114.347 117.157 114.299C117.149 114.251 117.159 114.203 117.184 114.162C117.209 114.121 117.247 114.091 117.291 114.076C117.798 113.914 118.261 113.711 118.681 113.465C119.461 113.01 120.13 112.614 120.687 112.276C121.086 112.033 121.678 111.607 122.462 110.998C122.905 110.655 123.496 110.242 124.234 109.757C124.306 109.711 124.372 109.658 124.432 109.598C125.057 108.977 125.704 108.384 126.373 107.818C126.554 107.662 126.872 107.248 127.326 106.575L130.776 103.235C130.808 103.204 130.833 103.167 130.85 103.126C130.867 103.085 130.875 103.041 130.875 102.996C130.874 102.952 130.864 102.908 130.846 102.868C130.828 102.828 130.802 102.792 130.769 102.763L124.54 97.1056C124.393 96.6751 124.12 96.3557 123.721 96.1474C123.7 96.1366 123.681 96.1234 123.663 96.108L120.406 93.2309C120.374 93.2033 120.35 93.1681 120.334 93.1285C120.319 93.0888 120.313 93.0459 120.318 93.0034C120.322 92.9609 120.337 92.9202 120.36 92.8848C120.383 92.8495 120.414 92.8205 120.451 92.8004L121.124 92.4301C121.133 92.4239 121.141 92.4177 121.148 92.4116L122.669 91.2774C122.694 91.2574 122.717 91.2341 122.736 91.208L123.17 90.6455C123.205 90.5996 123.251 90.5626 123.302 90.5374C123.353 90.5121 123.409 90.4994 123.466 90.5C123.523 90.5007 123.579 90.5148 123.629 90.5412C123.68 90.5677 123.723 90.6057 123.757 90.6524C124.253 91.3345 124.64 91.8113 124.918 92.0829C125.145 92.3051 125.337 92.5558 125.493 92.8351C125.589 93.0095 125.774 93.2618 126.047 93.592C126.924 94.6537 127.846 95.6844 128.815 96.6844Z" fill="url(#paint2_radial_315_54706)"/>
<path d="M123.466 90.5C123.523 90.5007 123.579 90.5149 123.629 90.5413C123.68 90.5678 123.724 90.6059 123.757 90.6526C124.254 91.3346 124.641 91.8113 124.918 92.0828C125.146 92.305 125.338 92.556 125.494 92.8352C125.59 93.0096 125.774 93.2622 126.047 93.5923C126.924 94.6539 127.847 95.6847 128.815 96.6846L132.431 101.135C132.452 101.161 132.479 101.182 132.508 101.197C132.538 101.212 132.57 101.22 132.602 101.222C132.618 101.222 132.635 101.221 132.651 101.218L132.698 101.205C132.728 101.193 132.755 101.173 132.778 101.149L134.395 99.4224C135.048 98.8337 135.666 98.2127 136.25 97.559L136.498 97.2771C137.768 95.8074 138.722 94.7157 139.361 94.0029L139.894 93.4164C139.933 93.3732 139.964 93.3228 139.985 93.2684L140.002 93.2124C140.105 92.7816 140.137 92.4541 140.096 92.2301L140.074 92.1408L139.747 91.0878C139.741 91.0667 139.74 91.0442 139.744 91.0225C139.748 91.0009 139.758 90.9806 139.771 90.9632C139.785 90.9458 139.802 90.9319 139.822 90.9225C139.841 90.9133 139.863 90.9084 139.884 90.9092L145.912 91.1365C145.927 91.1372 145.941 91.1362 145.956 91.1338L145.997 91.1225C146.27 91.0238 146.546 91.0195 146.827 91.1105L146.79 91.2284L146.791 91.2278L146.827 91.1105C146.847 91.1169 146.865 91.129 146.88 91.1451C146.894 91.1613 146.904 91.1816 146.908 91.2031C146.913 91.2245 146.912 91.2467 146.906 91.2678C146.899 91.289 146.888 91.3085 146.872 91.3237L146.419 91.7429C146.297 91.8514 146.205 91.9287 146.141 91.9742L145.82 92.2108C145.508 92.4529 145.219 92.7116 144.953 92.9859C144.727 93.2204 144.331 93.5568 143.766 93.9949C143.152 94.4732 142.505 95.0421 141.828 95.701L141.617 95.9009C141.103 96.3773 140.44 96.9194 139.628 97.527L139.356 97.7389C138.734 98.2436 138.201 98.8177 137.759 99.4617L134.635 102.158L134.608 102.195C134.601 102.209 134.598 102.224 134.597 102.24C134.597 102.256 134.6 102.272 134.606 102.287C134.613 102.301 134.622 102.314 134.633 102.325L139.59 106.941C139.599 107.172 139.711 107.361 139.927 107.508C140.333 107.782 140.632 108.066 140.822 108.359C140.859 108.419 140.905 108.473 140.957 108.519C141.412 108.94 142.084 109.665 142.81 110.179C143.345 110.558 143.771 110.912 144.088 111.241C144.212 111.367 144.35 111.478 144.499 111.572C145.053 111.917 145.639 112.387 146.258 112.979C146.326 113.045 146.408 113.095 146.496 113.125C146.948 113.283 147.158 113.676 147.567 113.84C147.844 113.953 148.017 114.041 148.086 114.104C148.117 114.134 148.139 114.172 148.149 114.215C148.158 114.257 148.155 114.301 148.14 114.342C148.125 114.383 148.098 114.418 148.063 114.443L148.007 114.471C147.987 114.478 147.965 114.481 147.944 114.481L141.317 114.5L141.284 114.497C141.262 114.494 141.242 114.486 141.222 114.476L141.194 114.457C141.159 114.43 141.133 114.391 141.121 114.347L140.827 113.294C140.823 113.28 140.818 113.267 140.812 113.254L140.788 113.218C140.25 112.517 139.849 112.035 139.585 111.773C139.097 111.288 138.742 110.864 138.521 110.5C138.364 110.239 138.013 110.106 137.937 109.796C137.915 109.713 137.87 109.638 137.808 109.581C137.423 109.226 137.152 108.967 136.997 108.803L136.88 108.672C136.351 108.005 135.832 107.369 135.321 106.763L134.813 106.167C134.482 105.784 134.167 105.539 133.866 105.432L133.738 105.394L132.697 104.172C132.688 104.162 132.678 104.154 132.666 104.148C132.654 104.142 132.64 104.139 132.627 104.139C132.614 104.14 132.601 104.143 132.589 104.148C132.577 104.154 132.566 104.162 132.558 104.172L132.146 104.675L132.082 104.699C131.931 104.762 131.778 104.874 131.622 105.033C131.305 105.357 130.458 106.207 129.08 107.582L128.503 108.168C127.944 108.743 127.441 109.286 126.996 109.796C126.152 110.765 125.485 111.534 124.996 112.102L124.895 112.227C124.426 112.85 124.475 113.433 124.416 114.157C124.409 114.242 124.372 114.322 124.31 114.379C124.265 114.423 124.208 114.451 124.147 114.463L124.086 114.47H117.35L117.315 114.467C117.293 114.462 117.271 114.454 117.251 114.442L117.223 114.421C117.187 114.39 117.164 114.346 117.156 114.299C117.149 114.251 117.16 114.203 117.184 114.162C117.209 114.121 117.247 114.091 117.292 114.076C117.735 113.934 118.145 113.761 118.522 113.555L118.681 113.465C119.071 113.237 119.433 113.025 119.767 112.827L120.687 112.275C121.086 112.033 121.678 111.607 122.462 110.998C122.906 110.655 123.496 110.241 124.234 109.757C124.306 109.711 124.372 109.658 124.432 109.598C124.901 109.132 125.382 108.682 125.876 108.247L126.373 107.818C126.509 107.701 126.722 107.438 127.011 107.03L127.326 106.575L130.776 103.234C130.792 103.219 130.807 103.203 130.819 103.184L130.85 103.126C130.858 103.105 130.865 103.084 130.869 103.062L130.875 102.997C130.874 102.974 130.872 102.952 130.867 102.931L130.846 102.868C130.837 102.848 130.826 102.828 130.813 102.811L130.77 102.763L124.54 97.1058C124.393 96.6753 124.12 96.3558 123.721 96.1475L123.663 96.1081L120.406 93.2311C120.375 93.2035 120.35 93.1681 120.335 93.1285C120.319 93.0888 120.313 93.0456 120.318 93.0032C120.322 92.9608 120.337 92.9199 120.36 92.8846C120.371 92.8668 120.385 92.8508 120.401 92.8366L120.451 92.8006L121.124 92.43C121.133 92.4239 121.141 92.4175 121.149 92.4114L122.669 91.2771C122.694 91.2572 122.717 91.2338 122.736 91.2078L123.17 90.6453C123.188 90.6224 123.208 90.6021 123.23 90.584L123.302 90.5373C123.353 90.5122 123.409 90.4994 123.466 90.5ZM123.463 90.7313C123.441 90.7311 123.419 90.736 123.399 90.7459C123.389 90.751 123.379 90.7574 123.37 90.7646L123.346 90.7893L122.914 91.3477L122.915 91.3484C122.884 91.3907 122.847 91.4287 122.806 91.461L122.801 91.465L121.288 92.592C121.275 92.6027 121.262 92.6133 121.248 92.6226L121.239 92.6286L121.23 92.634L120.557 93.0045H120.557C120.552 93.0068 120.549 93.0104 120.546 93.0145C120.544 93.0185 120.542 93.0231 120.542 93.0278C120.541 93.0327 120.542 93.0379 120.544 93.0425L120.552 93.0545L120.553 93.0552L123.808 95.9309C123.812 95.9344 123.817 95.9376 123.822 95.9402L123.823 95.9409C124.253 96.1657 124.556 96.511 124.727 96.9672L130.917 102.588L130.957 102.628C130.995 102.67 131.027 102.718 131.05 102.771C131.081 102.84 131.098 102.916 131.099 102.993C131.1 103.07 131.086 103.146 131.057 103.216C131.028 103.287 130.985 103.351 130.93 103.404L130.93 103.403L127.497 106.726C127.274 107.055 127.084 107.326 126.924 107.534C126.764 107.742 126.626 107.901 126.517 107.996L126.516 107.996C125.852 108.559 125.209 109.148 124.588 109.764L124.588 109.764C124.517 109.834 124.439 109.897 124.355 109.952L124.355 109.952C123.62 110.435 123.035 110.845 122.597 111.183L122.596 111.182C121.812 111.793 121.212 112.225 120.801 112.475C120.242 112.813 119.572 113.211 118.792 113.666C118.407 113.891 117.988 114.082 117.535 114.238H124.085C124.113 114.238 124.139 114.227 124.158 114.209C124.178 114.19 124.19 114.165 124.192 114.138L124.227 113.59C124.264 113.045 124.348 112.505 124.828 111.948C125.317 111.38 125.984 110.611 126.828 109.642C127.426 108.956 128.125 108.214 128.924 107.415C130.302 106.04 131.148 105.192 131.463 104.869V104.869C131.638 104.69 131.821 104.556 132.012 104.478L132.385 104.023L132.387 104.021C132.417 103.985 132.454 103.957 132.495 103.938L132.559 103.916C132.582 103.911 132.604 103.908 132.627 103.908C132.65 103.908 132.673 103.911 132.695 103.916L132.759 103.938L132.817 103.973C132.835 103.987 132.851 104.002 132.866 104.02L133.863 105.19C134.243 105.301 134.615 105.589 134.981 106.014C135.657 106.797 136.348 107.634 137.054 108.525L137.161 108.645C137.258 108.746 137.407 108.893 137.611 109.085L137.959 109.409L137.959 109.41C138.053 109.497 138.12 109.61 138.154 109.736L138.155 109.74L138.177 109.798C138.207 109.856 138.26 109.915 138.347 109.992C138.444 110.079 138.611 110.209 138.713 110.378H138.712C138.919 110.719 139.259 111.128 139.741 111.606V111.607C140.017 111.881 140.426 112.373 140.965 113.073L141.011 113.148C141.024 113.174 141.035 113.201 141.043 113.23L141.333 114.267L147.898 114.25C147.877 114.237 147.847 114.219 147.805 114.198C147.726 114.158 147.62 114.111 147.485 114.055V114.055C147.239 113.956 147.055 113.789 146.902 113.657C146.743 113.519 146.606 113.408 146.425 113.344V113.344C146.305 113.303 146.196 113.237 146.104 113.148V113.148C145.493 112.563 144.92 112.105 144.383 111.77H144.382C144.218 111.666 144.066 111.544 143.93 111.406L143.928 111.404C143.624 111.089 143.211 110.744 142.682 110.369C141.94 109.844 141.242 109.094 140.807 108.691V108.69C140.741 108.631 140.683 108.563 140.636 108.488L140.568 108.391C140.422 108.196 140.216 107.998 139.945 107.8L139.803 107.701C139.567 107.54 139.414 107.322 139.375 107.052L134.482 102.497C134.447 102.464 134.419 102.424 134.4 102.379C134.381 102.335 134.372 102.286 134.373 102.237L134.381 102.164C134.386 102.14 134.395 102.117 134.405 102.095L134.443 102.032C134.457 102.013 134.474 101.995 134.493 101.979L137.593 99.3024C138.11 98.5556 138.745 97.9014 139.496 97.3397C140.42 96.6484 141.144 96.046 141.673 95.5323L142.179 95.0512C142.68 94.5871 143.164 94.1728 143.631 93.8096C144.195 93.3722 144.58 93.0445 144.794 92.8226L145.075 92.5453C145.268 92.3647 145.471 92.1918 145.685 92.0262L146.014 91.7829C146.111 91.7134 146.295 91.5503 146.574 91.2878C146.404 91.2627 146.238 91.2803 146.072 91.3404L146.071 91.3397C146.017 91.3603 145.96 91.3696 145.903 91.3671H145.901L145.901 91.3677V91.3671L140.001 91.1451C140.052 91.3127 140.146 91.6203 140.287 92.0688C140.378 92.3584 140.339 92.7724 140.22 93.2678L140.219 93.2671C140.192 93.3828 140.136 93.4893 140.057 93.5757H140.056C139.49 94.1863 138.36 95.4708 136.666 97.431C136.005 98.1947 135.298 98.9155 134.546 99.5936L132.94 101.308L132.94 101.309C132.896 101.357 132.841 101.395 132.782 101.42C132.722 101.444 132.658 101.456 132.594 101.453C132.53 101.45 132.466 101.434 132.409 101.405C132.366 101.383 132.326 101.355 132.292 101.32L132.259 101.284L128.648 96.8399C127.679 95.8383 126.754 94.8058 125.876 93.7423C125.602 93.4115 125.406 93.1452 125.299 92.9505L125.183 92.7606C125.062 92.5758 124.922 92.4058 124.763 92.2508H124.762C124.471 91.9649 124.075 91.4745 123.577 90.7913L123.577 90.7906C123.564 90.7725 123.547 90.7575 123.527 90.7473C123.507 90.7371 123.486 90.7315 123.463 90.7313Z" fill="url(#paint3_radial_315_54706)"/>
<path d="M134.135 99.0306L132.993 100.413C132.971 100.441 132.943 100.463 132.911 100.478C132.88 100.493 132.845 100.5 132.811 100.5C132.776 100.5 132.741 100.492 132.71 100.476C132.678 100.461 132.65 100.439 132.628 100.411L131.174 98.6323C131.163 98.6202 131.157 98.6049 131.155 98.5887C131.153 98.5724 131.156 98.556 131.163 98.5416C131.171 98.5272 131.183 98.5156 131.197 98.5083C131.211 98.501 131.227 98.4984 131.242 98.5009L134.087 98.8972C134.101 98.8993 134.114 98.9052 134.125 98.9143C134.136 98.9235 134.144 98.9355 134.149 98.9491C134.154 98.9627 134.156 98.9775 134.153 98.9919C134.151 99.0062 134.145 99.0196 134.135 99.0306Z" fill="#265BAB"/>
<path d="M79.0841 129.31C78.9346 129.358 78.7167 129.25 78.4304 128.988C78.3988 128.959 78.3587 128.941 78.3159 128.936C78.2731 128.931 78.2299 128.94 78.1924 128.961C77.3405 129.428 76.4556 129.516 75.4703 129.498C73.3028 129.457 71.5125 127.974 71.2083 125.867C70.7872 122.93 72.8735 120.574 75.8666 120.501C76.718 120.481 77.4924 120.698 78.1896 121.152C78.2199 121.172 78.2565 121.181 78.2926 121.176C78.3288 121.172 78.3621 121.155 78.3864 121.128C78.5268 120.976 78.6827 120.856 78.8543 120.769C78.8783 120.758 78.9049 120.752 78.9317 120.753C78.9585 120.754 78.9845 120.762 79.0073 120.776C79.0301 120.789 79.0488 120.809 79.0618 120.831C79.0748 120.854 79.0815 120.88 79.0814 120.906V122.788C79.0811 122.833 79.0658 122.876 79.0378 122.912C79.0098 122.948 78.9708 122.973 78.9267 122.985C78.8826 122.996 78.8359 122.993 78.794 122.976C78.752 122.959 78.7171 122.928 78.6947 122.889C78.6644 122.836 78.5933 122.69 78.4814 122.452C78.0116 121.45 77.1988 120.918 76.0428 120.855C73.7212 120.727 73.1033 122.556 73.0386 124.446C73.0074 125.377 73.0175 126.174 73.0689 126.835C73.0909 127.12 73.1891 127.463 73.3634 127.863C73.8726 129.031 75.3905 129.337 76.5602 129.07C77.7905 128.791 78.308 128.086 78.8378 127.056C78.8626 127.008 78.9162 126.977 78.9988 126.964C79.018 126.961 79.0376 126.962 79.0564 126.967C79.0751 126.972 79.0925 126.981 79.1073 126.993C79.1221 127.005 79.134 127.02 79.1421 127.038C79.1503 127.055 79.1544 127.074 79.1543 127.092V129.215C79.1542 129.236 79.1474 129.257 79.1347 129.274C79.1221 129.291 79.1044 129.303 79.0841 129.31Z" fill="#1E1649"/>
<path d="M89.2515 121.004C88.8021 120.998 88.4336 121.29 88.4285 121.655C88.4234 122.021 88.7836 122.323 89.233 122.329C89.6825 122.335 90.051 122.044 90.0561 121.678C90.0612 121.312 89.701 121.011 89.2515 121.004Z" fill="#1E1649"/>
<path d="M84.5614 126.505L84.545 125.39C84.5431 125.286 84.5062 125.184 84.4388 125.098C84.3713 125.011 84.2762 124.943 84.1647 124.902C83.595 124.688 82.4078 124.674 81.7964 125.073C81.7861 125.079 81.7777 125.088 81.7717 125.097C81.7657 125.107 81.7622 125.117 81.7615 125.128C81.7608 125.139 81.7629 125.15 81.7676 125.16C81.7723 125.17 81.7796 125.18 81.7889 125.187C82.0186 125.378 82.2289 125.494 82.2438 125.712C82.287 126.352 81.0104 126.467 80.8091 125.842C80.6391 125.314 81.2625 124.921 81.7844 124.757C82.5222 124.523 83.3534 124.449 84.278 124.534C85.152 124.614 85.8454 124.8 85.9081 125.646C85.9329 125.986 85.9394 126.951 85.9275 128.541C85.9265 128.669 85.9523 128.784 86.005 128.886C86.0257 128.926 86.0631 128.957 86.1098 128.974C86.1565 128.992 86.2091 128.993 86.2571 128.979C86.5832 128.883 86.8352 128.733 87.0132 128.528C87.0234 128.516 87.038 128.507 87.0548 128.503C87.0716 128.499 87.0896 128.5 87.1058 128.506C87.122 128.512 87.1356 128.522 87.1442 128.536C87.1528 128.549 87.1561 128.564 87.1534 128.579C87.0669 129.039 86.7512 129.324 86.2064 129.432C85.6024 129.552 84.7269 129.524 84.6524 128.854C84.651 128.842 84.6458 128.83 84.6374 128.821C84.6291 128.811 84.6178 128.803 84.6048 128.798C84.5917 128.793 84.5774 128.791 84.5632 128.793C84.549 128.794 84.5355 128.799 84.5241 128.806C83.6054 129.408 82.5624 129.618 81.3952 129.437C80.2558 129.26 79.7114 128.295 80.5884 127.529C81.4951 126.737 83.2057 126.608 84.448 126.603C84.463 126.603 84.4779 126.6 84.4918 126.596C84.5056 126.591 84.5182 126.583 84.5287 126.574C84.5393 126.565 84.5476 126.554 84.5532 126.542C84.5588 126.531 84.5616 126.518 84.5614 126.505ZM84.46 126.881C83.6561 126.872 82.5958 126.961 81.9351 127.38C81.1357 127.885 81.5309 128.835 82.463 128.97C83.1133 129.064 84.4674 128.885 84.5316 128.144C84.5554 127.875 84.5629 127.481 84.5539 126.961C84.5535 126.94 84.5435 126.919 84.526 126.904C84.5084 126.889 84.4848 126.881 84.46 126.881Z" fill="#1E1649"/>
<path d="M105.153 126.904C105.176 127.567 104.882 128.212 104.335 128.699C103.789 129.185 103.036 129.473 102.24 129.498C101.846 129.511 101.454 129.459 101.086 129.345C100.718 129.231 100.381 129.057 100.095 128.834C99.8082 128.611 99.5778 128.343 99.4167 128.045C99.2556 127.746 99.1668 127.424 99.1555 127.096C99.1327 126.433 99.4268 125.788 99.9731 125.301C100.519 124.815 101.273 124.527 102.068 124.502C102.462 124.489 102.854 124.541 103.223 124.655C103.591 124.769 103.928 124.943 104.214 125.166C104.5 125.389 104.731 125.657 104.892 125.955C105.053 126.254 105.142 126.576 105.153 126.904ZM103.661 126.085C103.665 125.752 103.532 125.431 103.291 125.192C103.05 124.954 102.72 124.818 102.375 124.814L101.971 124.809C101.8 124.807 101.63 124.837 101.472 124.899C101.313 124.96 101.168 125.051 101.046 125.166C100.923 125.281 100.826 125.418 100.758 125.57C100.691 125.722 100.655 125.885 100.653 126.049L100.629 127.941C100.625 128.274 100.758 128.595 100.999 128.833C101.24 129.072 101.57 129.208 101.915 129.212L102.319 129.217C102.49 129.219 102.66 129.188 102.819 129.127C102.977 129.066 103.122 128.975 103.244 128.86C103.367 128.744 103.465 128.607 103.532 128.455C103.599 128.304 103.635 128.141 103.637 127.976L103.661 126.085Z" fill="#1E1649"/>
<path d="M109.997 124.842C110.075 124.793 110.144 124.723 110.204 124.634C110.222 124.607 110.248 124.587 110.279 124.576C110.311 124.564 110.345 124.563 110.378 124.571C110.41 124.579 110.439 124.597 110.459 124.621C110.48 124.646 110.491 124.676 110.491 124.706V125.824C110.491 125.863 110.477 125.9 110.451 125.93C110.426 125.96 110.39 125.982 110.349 125.992C110.308 126.001 110.265 125.999 110.226 125.984C110.188 125.968 110.156 125.942 110.135 125.909C110.09 125.834 110.03 125.724 109.954 125.576C109.544 124.764 108.478 124.648 107.611 124.848C107.222 124.939 106.972 125.149 106.863 125.478C106.708 125.942 107.634 126.176 108.016 126.239C108.967 126.393 109.569 126.494 109.822 126.543C110.938 126.758 111.556 127.814 110.862 128.711C110.447 129.244 109.729 129.44 108.983 129.491C108.246 129.542 107.577 129.378 106.978 128.997C106.949 128.979 106.914 128.972 106.88 128.976C106.846 128.98 106.815 128.995 106.792 129.019L106.503 129.326C106.476 129.354 106.441 129.374 106.402 129.383C106.363 129.392 106.321 129.39 106.284 129.378C106.246 129.365 106.213 129.342 106.19 129.311C106.167 129.281 106.154 129.245 106.154 129.208V127.923C106.155 127.876 106.173 127.83 106.205 127.793C106.238 127.757 106.283 127.731 106.333 127.721C106.384 127.711 106.437 127.717 106.483 127.738C106.529 127.759 106.566 127.793 106.587 127.836C107.133 128.91 108.077 129.339 109.419 129.121C109.852 129.051 110.162 128.863 110.347 128.555C110.551 128.218 110.459 127.963 110.072 127.789C108.665 127.153 106.171 127.573 106.166 125.983C106.161 124.373 108.813 124.213 109.846 124.843C109.868 124.857 109.894 124.865 109.922 124.864C109.949 124.864 109.975 124.856 109.997 124.842Z" fill="#1E1649"/>
<path d="M89.9968 124.556V129.144C89.9968 129.159 90.0041 129.173 90.0171 129.184C90.0301 129.194 90.0478 129.2 90.0662 129.2H91.0732C91.0911 129.2 91.1082 129.205 91.1212 129.215C91.1341 129.225 91.1418 129.239 91.1426 129.253L91.1542 129.442C91.1547 129.449 91.1532 129.457 91.1499 129.464C91.1466 129.471 91.1416 129.477 91.1351 129.483C91.1286 129.488 91.1208 129.493 91.1121 129.496C91.1035 129.498 91.0942 129.5 91.0848 129.5H87.2354C87.2175 129.5 87.2004 129.495 87.1874 129.485C87.1745 129.475 87.1668 129.461 87.166 129.447L87.1544 129.262C87.1539 129.255 87.1554 129.247 87.1587 129.24C87.162 129.233 87.167 129.227 87.1735 129.221C87.18 129.216 87.1878 129.211 87.1965 129.208C87.2051 129.205 87.2144 129.204 87.2238 129.204H88.4143C88.4328 129.204 88.4504 129.198 88.4635 129.188C88.4765 129.177 88.4838 129.163 88.4838 129.148V124.922C88.4838 124.907 88.4765 124.893 88.4635 124.882C88.4504 124.872 88.4328 124.866 88.4143 124.866H87.2949C87.2771 124.866 87.2599 124.861 87.247 124.851C87.234 124.841 87.2263 124.828 87.2255 124.813L87.2156 124.667C87.2151 124.659 87.2165 124.652 87.2196 124.645C87.2226 124.638 87.2274 124.632 87.2335 124.627C87.2397 124.621 87.2471 124.617 87.2554 124.614C87.2636 124.611 87.2726 124.609 87.2817 124.608L89.924 124.5C89.9334 124.5 89.9428 124.501 89.9516 124.504C89.9604 124.506 89.9685 124.51 89.9753 124.515C89.9821 124.521 89.9875 124.527 89.9912 124.534C89.9949 124.541 89.9968 124.548 89.9968 124.556Z" fill="#1E1649"/>
<path d="M98.1485 127.962C97.9177 128.523 97.5282 128.928 96.9801 129.175C95.2408 129.96 92.2326 129.337 92.1558 127.143C92.1344 126.527 92.3345 126.003 92.7561 125.572C93.7625 124.544 95.3762 124.289 96.7707 124.664C97.3738 124.826 98.2448 125.373 97.9628 126.043C97.6222 126.857 95.8746 126.277 96.6591 125.518C96.7056 125.473 96.7963 125.379 96.9313 125.234C96.9421 125.223 96.9502 125.21 96.9552 125.195C96.9602 125.181 96.9619 125.165 96.9602 125.15C96.9585 125.135 96.9534 125.12 96.9453 125.107C96.9372 125.094 96.9263 125.082 96.9131 125.073C96.7121 124.932 96.4953 124.847 96.2626 124.816C95.2506 124.686 94.0766 124.776 93.8086 125.92C93.5797 126.901 93.6183 127.734 93.9245 128.42C94.1311 128.882 94.5387 129.141 95.1473 129.197C96.2417 129.296 97.3305 128.915 97.7451 127.947C97.7579 127.917 97.7801 127.892 97.8087 127.874C97.8373 127.856 97.871 127.847 97.9056 127.847H98.062C98.0768 127.847 98.0915 127.85 98.1047 127.856C98.1179 127.863 98.1293 127.872 98.1378 127.883C98.1463 127.895 98.1517 127.908 98.1536 127.921C98.1554 127.935 98.1537 127.949 98.1485 127.962Z" fill="#1E1649"/>
<path d="M58.2413 138.853L59.6632 138.834C59.6937 138.834 59.7229 138.821 59.7444 138.798C59.7659 138.775 59.7779 138.744 59.7779 138.712V127.228C59.7779 127.194 59.7652 127.162 59.7424 127.138C59.7196 127.114 59.6888 127.101 59.6566 127.101H58.4959C58.4803 127.101 58.4649 127.098 58.4505 127.092C58.4361 127.085 58.423 127.076 58.412 127.064C58.4009 127.053 58.3922 127.039 58.3862 127.023C58.3803 127.008 58.3772 126.992 58.3772 126.975V126.616C58.3772 126.585 58.3889 126.556 58.4097 126.534C58.4304 126.512 58.4586 126.5 58.488 126.5H69.5356C69.5542 126.5 69.572 126.508 69.5851 126.521C69.5982 126.535 69.6055 126.554 69.6055 126.573L69.6464 129.838C69.6466 129.851 69.6444 129.864 69.6398 129.875C69.6352 129.887 69.6285 129.898 69.6199 129.907C69.6113 129.916 69.601 129.923 69.5897 129.928C69.5785 129.933 69.5663 129.935 69.5541 129.935H69.0766C69.0425 129.935 69.0091 129.925 68.9803 129.907C68.9514 129.888 68.9281 129.862 68.9131 129.83C68.367 128.678 67.8764 127.505 66.5719 127.227C65.5524 127.009 64.3759 127.125 63.2613 127.105C63.2519 127.105 63.2425 127.107 63.2337 127.11C63.2249 127.114 63.2169 127.119 63.2101 127.126C63.2033 127.133 63.198 127.141 63.1943 127.15C63.1907 127.159 63.1888 127.169 63.1888 127.178V132.385C63.1887 132.399 63.1939 132.413 63.2032 132.424C63.2125 132.434 63.2253 132.441 63.2389 132.442C64.8916 132.55 65.7819 131.919 66.0325 130.195C66.0366 130.166 66.0505 130.139 66.0718 130.12C66.0931 130.101 66.1203 130.09 66.1485 130.09L66.6616 130.083C66.6733 130.083 66.685 130.085 66.6958 130.09C66.7067 130.094 66.7166 130.101 66.725 130.109C66.7333 130.118 66.7399 130.128 66.7445 130.139C66.749 130.15 66.7513 130.162 66.7513 130.174V135.512C66.7513 135.54 66.7405 135.567 66.7212 135.587C66.7019 135.607 66.6757 135.619 66.6484 135.619H66.1604C66.129 135.619 66.0986 135.606 66.0752 135.584C66.0518 135.562 66.0371 135.531 66.0338 135.498C65.919 134.286 65.4798 133.355 64.2308 133.17C63.9775 133.133 63.6513 133.111 63.2521 133.105C63.244 133.105 63.236 133.106 63.2285 133.109C63.221 133.113 63.2141 133.117 63.2083 133.123C63.2026 133.129 63.198 133.136 63.1948 133.144C63.1917 133.152 63.1901 133.16 63.1901 133.169V138.781C63.1901 138.792 63.1921 138.802 63.1959 138.812C63.1997 138.821 63.2053 138.83 63.2123 138.837C63.2193 138.844 63.2276 138.85 63.2367 138.854C63.2458 138.857 63.2555 138.859 63.2653 138.859C65.4561 138.81 67.7801 139.276 68.9329 136.729C69.2055 136.128 69.3835 135.652 69.4671 135.301C69.4735 135.274 69.4868 135.25 69.5057 135.231C69.5245 135.211 69.5481 135.198 69.5739 135.192C69.7366 135.151 69.9028 135.142 70.0725 135.165C70.0957 135.169 70.117 135.181 70.1321 135.2C70.1472 135.218 70.1551 135.242 70.1542 135.266L70.0091 139.41C70.0081 139.434 69.9984 139.457 69.9819 139.474C69.9654 139.491 69.9435 139.5 69.9208 139.5H58.2704C58.2396 139.5 58.2101 139.487 58.1883 139.464C58.1665 139.441 58.1543 139.41 58.1543 139.377V138.947C58.1543 138.923 58.1634 138.899 58.1797 138.881C58.196 138.864 58.2181 138.854 58.2413 138.853Z" fill="#1E1649"/>
<path d="M87.4913 132.825C87.4912 132.835 87.4942 132.844 87.5 132.852C87.5058 132.859 87.5141 132.865 87.5235 132.868C87.5329 132.871 87.5429 132.87 87.5521 132.867C87.5612 132.863 87.569 132.857 87.5742 132.849C88.2205 131.87 89.2185 131.46 90.4189 131.503C92.916 131.592 94.4572 133.809 94.1042 136.156C93.8081 138.12 92.1896 139.516 90.1609 139.498C89.0502 139.489 88.1861 139.048 87.5687 138.176C87.5639 138.169 87.5568 138.164 87.5485 138.161C87.5402 138.158 87.5312 138.158 87.5228 138.16C87.5143 138.163 87.507 138.168 87.5018 138.175C87.4967 138.182 87.4939 138.191 87.4941 138.199V142.804C87.4941 142.832 87.5054 142.859 87.5255 142.879C87.5456 142.899 87.5729 142.91 87.6013 142.91H88.9456C88.969 142.91 88.9915 142.919 89.008 142.935C89.0246 142.952 89.0339 142.974 89.0339 142.997V143.421C89.0339 143.442 89.0254 143.462 89.0104 143.477C88.9954 143.492 88.975 143.5 88.9538 143.5H83.5196C83.4967 143.5 83.4741 143.496 83.453 143.487C83.432 143.478 83.4128 143.466 83.3967 143.45C83.3805 143.434 83.3677 143.415 83.359 143.394C83.3503 143.374 83.3458 143.352 83.3458 143.329V143.061C83.3458 143.024 83.3606 142.989 83.3871 142.963C83.4136 142.936 83.4495 142.922 83.487 142.922H84.4334C84.4651 142.922 84.4955 142.909 84.5179 142.887C84.5403 142.865 84.5529 142.836 84.5529 142.804V132.398C84.5529 132.376 84.5442 132.355 84.5286 132.34C84.5131 132.325 84.492 132.316 84.4701 132.316H83.2942C83.2758 132.316 83.2576 132.313 83.2406 132.306C83.2237 132.299 83.2083 132.289 83.1953 132.276C83.1823 132.264 83.172 132.249 83.1649 132.232C83.1579 132.216 83.1543 132.198 83.1543 132.18V131.858C83.1543 131.824 83.1678 131.79 83.192 131.765C83.2163 131.74 83.2495 131.725 83.2847 131.723L87.4085 131.516C87.4192 131.516 87.4299 131.517 87.4399 131.521C87.4499 131.525 87.4591 131.53 87.4668 131.538C87.4746 131.545 87.4808 131.554 87.485 131.563C87.4892 131.573 87.4913 131.583 87.4913 131.594V132.825ZM90.8765 138.136L90.8955 132.886C90.8959 132.78 90.8749 132.674 90.8337 132.575C90.7926 132.477 90.732 132.387 90.6556 132.311C90.5792 132.236 90.4884 132.176 90.3884 132.135C90.2883 132.094 90.1811 132.072 90.0726 132.072H89.8133C89.203 132.07 88.6168 132.326 88.1837 132.784C87.7505 133.243 87.5059 133.865 87.5035 134.515L87.4954 136.486C87.4942 136.808 87.5527 137.127 87.6673 137.425C87.7819 137.723 87.9506 137.994 88.1635 138.222C88.3765 138.451 88.6297 138.632 88.9085 138.756C89.1874 138.88 89.4865 138.945 89.7888 138.946H90.0482C90.1566 138.946 90.264 138.925 90.3643 138.885C90.4646 138.844 90.5559 138.785 90.6328 138.71C90.7097 138.635 90.7708 138.545 90.8126 138.447C90.8544 138.349 90.8761 138.243 90.8765 138.136Z" fill="#1E1649"/>
<path d="M99.9548 133.467C99.9551 133.478 99.9587 133.488 99.965 133.496C99.9714 133.504 99.9801 133.51 99.9898 133.512C99.9994 133.514 100.009 133.512 100.018 133.507C100.027 133.503 100.034 133.495 100.038 133.485C100.33 132.717 100.793 132.146 101.425 131.772C102.335 131.234 103.62 131.49 104.046 132.583C104.4 133.492 103.853 134.482 102.933 134.573C101.886 134.676 101.061 133.676 101.644 132.62C101.656 132.598 101.663 132.572 101.663 132.546C101.663 132.52 101.656 132.494 101.644 132.472C101.631 132.449 101.613 132.431 101.592 132.418C101.571 132.406 101.546 132.4 101.522 132.401C101.365 132.409 101.219 132.487 101.082 132.635C100.382 133.396 100.029 134.36 100.024 135.527C100.02 136.56 100.02 137.657 100.024 138.817C100.024 138.841 100.033 138.864 100.049 138.882C100.065 138.899 100.087 138.909 100.11 138.909H101.371C101.395 138.909 101.418 138.919 101.435 138.936C101.451 138.954 101.461 138.978 101.461 139.004V139.387C101.461 139.417 101.45 139.446 101.43 139.467C101.41 139.488 101.384 139.5 101.356 139.5H96.277C96.2499 139.5 96.2239 139.488 96.2047 139.467C96.1855 139.446 96.1748 139.418 96.1748 139.389V139.006C96.1748 138.98 96.1843 138.956 96.2013 138.937C96.2184 138.919 96.2414 138.909 96.2655 138.909H97.1693C97.1785 138.909 97.1877 138.907 97.1962 138.903C97.2047 138.899 97.2125 138.894 97.219 138.887C97.2256 138.88 97.2307 138.871 97.2343 138.862C97.2378 138.853 97.2396 138.843 97.2396 138.833V132.423C97.2396 132.402 97.2315 132.381 97.2171 132.366C97.2028 132.351 97.1833 132.342 97.1629 132.342H96.2489C96.2238 132.342 96.1997 132.332 96.182 132.312C96.1643 132.293 96.1543 132.268 96.1543 132.241V131.814C96.1543 131.791 96.1627 131.769 96.1777 131.752C96.1927 131.736 96.2131 131.726 96.2348 131.725L99.8385 131.525C99.8535 131.525 99.8685 131.527 99.8826 131.533C99.8967 131.539 99.9096 131.547 99.9205 131.558C99.9313 131.57 99.94 131.583 99.9459 131.598C99.9518 131.613 99.9548 131.629 99.9548 131.645V133.467Z" fill="#1E1649"/>
<path d="M114.153 136.931C113.237 139.28 111.188 139.686 108.896 139.435C107.343 139.265 105.771 138.334 105.339 136.784C104.903 135.22 105.239 133.905 106.348 132.842C107.816 131.433 110.509 131.079 112.321 132.041C113.423 132.625 114.009 133.635 114.08 135.071C114.081 135.088 114.078 135.105 114.073 135.12C114.067 135.136 114.058 135.15 114.046 135.162C114.034 135.175 114.02 135.184 114.005 135.191C113.989 135.197 113.973 135.201 113.956 135.201H108.551C108.539 135.201 108.529 135.205 108.52 135.213C108.512 135.221 108.508 135.231 108.507 135.242C108.49 136.202 108.497 136.955 108.526 137.504C108.566 138.263 108.842 138.727 109.356 138.893C109.81 139.042 110.391 139.054 111.099 138.93C112.277 138.723 113.133 138.004 113.667 136.772C113.671 136.762 113.68 136.753 113.69 136.749C113.701 136.744 113.714 136.744 113.725 136.748L114.142 136.906C114.144 136.907 114.147 136.908 114.148 136.91C114.15 136.912 114.152 136.914 114.153 136.916C114.154 136.918 114.154 136.921 114.154 136.924C114.154 136.926 114.154 136.929 114.153 136.931ZM108.569 134.611L111.257 134.606C111.274 134.606 111.289 134.599 111.301 134.588C111.313 134.576 111.319 134.56 111.319 134.544L111.317 133.108C111.316 132.962 111.287 132.817 111.23 132.682C111.173 132.547 111.09 132.425 110.985 132.322C110.88 132.219 110.756 132.137 110.62 132.081C110.483 132.026 110.337 131.997 110.189 131.998H109.627C109.479 131.998 109.333 132.027 109.197 132.083C109.06 132.14 108.936 132.222 108.832 132.326C108.728 132.429 108.645 132.552 108.589 132.687C108.533 132.822 108.504 132.967 108.505 133.113L108.507 134.549C108.507 134.566 108.514 134.581 108.526 134.593C108.537 134.605 108.553 134.611 108.569 134.611Z" fill="#1E1649"/>
<path d="M122.225 133.746H121.857C121.828 133.746 121.799 133.738 121.775 133.722C121.751 133.707 121.732 133.686 121.72 133.66C121.314 132.79 120.715 132.125 119.682 132.006C118.936 131.919 117.804 132.034 117.383 132.689C116.957 133.35 118.029 133.625 118.519 133.714C119.34 133.861 120.808 133.937 121.896 134.378C123.138 134.881 123.325 136.344 123.035 137.471C122.443 139.774 119.16 139.909 117.425 138.905C117.399 138.891 117.37 138.884 117.341 138.886C117.311 138.889 117.284 138.899 117.261 138.917C117.156 139.004 116.999 139.105 116.79 139.222C116.637 139.307 116.464 139.319 116.272 139.258C116.251 139.252 116.234 139.239 116.221 139.223C116.209 139.206 116.202 139.186 116.202 139.166V136.561C116.202 136.536 116.212 136.512 116.231 136.494C116.249 136.477 116.275 136.467 116.301 136.467H116.672C116.702 136.466 116.731 136.475 116.754 136.492C116.778 136.509 116.796 136.533 116.805 136.56C117.393 138.356 118.645 139.282 120.704 138.872C121.259 138.761 121.644 138.484 121.858 138.04C122.264 137.195 121.309 136.857 120.659 136.771C120.092 136.697 119.387 136.597 118.544 136.473C117.189 136.274 116.145 135.644 116.154 134.208C116.174 131.529 119.072 131.03 121.15 131.877C121.206 131.899 121.267 131.907 121.327 131.897C121.387 131.888 121.443 131.863 121.488 131.824C121.714 131.634 121.94 131.557 122.165 131.594C122.191 131.599 122.215 131.611 122.232 131.63C122.249 131.649 122.258 131.674 122.259 131.699L122.285 133.687C122.285 133.695 122.284 133.702 122.281 133.709C122.278 133.716 122.274 133.723 122.268 133.728C122.263 133.734 122.256 133.738 122.248 133.741C122.241 133.744 122.233 133.746 122.225 133.746Z" fill="#1E1649"/>
<path d="M130.224 133.745H129.856C129.827 133.745 129.798 133.737 129.774 133.722C129.75 133.707 129.73 133.685 129.719 133.66C129.312 132.789 128.713 132.125 127.68 132.006C126.936 131.919 125.803 132.034 125.382 132.69C124.957 133.351 126.028 133.626 126.518 133.715C127.339 133.86 128.808 133.937 129.895 134.377C131.138 134.88 131.325 136.342 131.036 137.47C130.445 139.773 127.162 139.91 125.426 138.906C125.401 138.892 125.372 138.885 125.342 138.887C125.313 138.89 125.285 138.9 125.263 138.918C125.158 139.005 125.001 139.107 124.791 139.223C124.639 139.308 124.467 139.32 124.274 139.259C124.254 139.253 124.236 139.24 124.224 139.224C124.211 139.207 124.205 139.187 124.205 139.167L124.203 136.563C124.203 136.537 124.214 136.513 124.232 136.495C124.251 136.478 124.276 136.468 124.302 136.468H124.674C124.703 136.468 124.732 136.477 124.756 136.493C124.78 136.51 124.798 136.534 124.806 136.561C125.394 138.356 126.647 139.284 128.705 138.872C129.261 138.761 129.645 138.484 129.858 138.039C130.265 137.194 129.31 136.857 128.659 136.771C128.093 136.696 127.388 136.597 126.545 136.474C125.189 136.275 124.146 135.646 124.154 134.21C124.174 131.53 127.07 131.03 129.149 131.877C129.205 131.899 129.266 131.906 129.326 131.897C129.386 131.887 129.442 131.862 129.487 131.823C129.713 131.632 129.939 131.555 130.163 131.593C130.189 131.597 130.212 131.61 130.229 131.629C130.247 131.648 130.256 131.672 130.256 131.697L130.284 133.686C130.285 133.694 130.283 133.702 130.28 133.709C130.277 133.716 130.273 133.723 130.267 133.728C130.262 133.734 130.255 133.738 130.248 133.741C130.24 133.744 130.232 133.745 130.224 133.745Z" fill="#1E1649"/>
<path d="M78.7291 138.884C78.7367 138.883 78.7441 138.881 78.7506 138.877C78.757 138.873 78.7621 138.867 78.7653 138.86C78.7684 138.852 78.7696 138.845 78.7685 138.837C78.7674 138.83 78.7642 138.823 78.7592 138.817L76.9193 136.575C76.9107 136.564 76.9001 136.556 76.8881 136.55C76.8762 136.544 76.8632 136.541 76.8499 136.54C76.8367 136.54 76.8234 136.542 76.8111 136.547C76.7987 136.552 76.7875 136.56 76.7782 136.569L74.9341 138.477C74.9153 138.496 74.901 138.519 74.8921 138.545C74.8832 138.571 74.8801 138.598 74.8828 138.626C74.8856 138.653 74.8942 138.679 74.9081 138.702C74.9219 138.726 74.9406 138.745 74.9629 138.76C75.1958 138.918 75.5451 138.881 75.9233 138.881C75.9538 138.881 75.9831 138.893 76.0046 138.916C76.0262 138.938 76.0383 138.968 76.0383 139V139.387C76.0383 139.417 76.0268 139.446 76.0062 139.467C75.9857 139.488 75.9578 139.5 75.9287 139.5H72.3105C72.2691 139.5 72.2293 139.483 72.2 139.453C72.1708 139.422 72.1543 139.381 72.1543 139.338V139.02C72.1543 138.999 72.1582 138.979 72.1659 138.961C72.1735 138.942 72.1847 138.926 72.1988 138.912C72.2129 138.898 72.2296 138.887 72.2478 138.88C72.2661 138.873 72.2855 138.87 72.305 138.871C72.7991 138.894 73.2522 138.847 73.6641 138.729C73.8732 138.669 74.1477 138.456 74.4875 138.093C75.0199 137.522 75.657 136.867 76.3987 136.127C76.4131 136.113 76.4217 136.094 76.4227 136.074C76.4237 136.054 76.4171 136.034 76.4041 136.018L73.3038 132.238C73.2728 132.201 73.2344 132.171 73.1911 132.15C73.1479 132.13 73.1007 132.119 73.053 132.119H72.3023C72.263 132.119 72.2254 132.103 72.1976 132.074C72.1699 132.046 72.1543 132.007 72.1543 131.966V131.649C72.1543 131.609 72.1695 131.571 72.1964 131.544C72.2234 131.516 72.26 131.5 72.2982 131.5H77.6755C77.697 131.5 77.7175 131.509 77.7327 131.524C77.7478 131.54 77.7564 131.561 77.7564 131.584V132.034C77.7564 132.056 77.7478 132.078 77.7327 132.093C77.7175 132.109 77.697 132.118 77.6755 132.118H76.7754C76.7697 132.118 76.764 132.119 76.7592 132.122C76.7543 132.126 76.7504 132.13 76.748 132.136C76.7455 132.141 76.7446 132.147 76.7454 132.154C76.7461 132.16 76.7484 132.165 76.7521 132.17L78.2729 134.024C78.2821 134.035 78.2935 134.044 78.3064 134.051C78.3192 134.057 78.3332 134.061 78.3474 134.062C78.3617 134.062 78.3759 134.06 78.3893 134.055C78.4026 134.049 78.4147 134.041 78.4249 134.031L80.058 132.342C80.0735 132.326 80.0842 132.305 80.0886 132.283C80.0931 132.261 80.0912 132.238 80.0832 132.217C80.0752 132.196 80.0615 132.178 80.0436 132.165C80.0257 132.152 80.0045 132.144 79.9827 132.143L78.973 132.105C78.9493 132.104 78.927 132.094 78.9107 132.076C78.8944 132.058 78.8852 132.035 78.8853 132.01V131.596C78.8853 131.571 78.8949 131.547 78.9122 131.529C78.9294 131.511 78.9527 131.501 78.9771 131.501H82.372C82.3815 131.501 82.3905 131.505 82.3972 131.513C82.4039 131.52 82.4076 131.53 82.4076 131.54V132.109C82.4077 132.114 82.4067 132.119 82.4048 132.123C82.4029 132.128 82.4001 132.132 82.3966 132.135C82.3931 132.138 82.389 132.141 82.3845 132.142C82.38 132.144 82.3753 132.144 82.3706 132.143C81.6555 132.056 81.1011 132.183 80.7074 132.523C80.5384 132.671 79.8991 133.328 78.7894 134.496C78.7741 134.512 78.7652 134.533 78.7645 134.555C78.7637 134.577 78.7711 134.599 78.7853 134.616L82.1336 138.698C82.1826 138.757 82.2434 138.805 82.3117 138.838C82.3801 138.871 82.4544 138.888 82.5296 138.888H83.0488C83.0768 138.888 83.1036 138.899 83.1234 138.92C83.1432 138.94 83.1543 138.968 83.1543 138.997V139.378C83.1543 139.409 83.1425 139.439 83.1214 139.46C83.1003 139.482 83.0717 139.494 83.042 139.494H77.8016C77.7598 139.494 77.7197 139.477 77.6902 139.447C77.6606 139.417 77.644 139.376 77.644 139.333V139.021C77.644 138.985 77.658 138.95 77.6829 138.924C77.7079 138.898 77.7417 138.884 77.7769 138.884H78.7291Z" fill="#1E1649"/>
<path d="M126.816 143.94C127.052 144.972 128.322 145.135 129.147 144.713C129.369 144.599 129.549 144.27 129.502 144.027C129.44 143.701 129.204 143.491 128.794 143.396C128.173 143.25 127.68 143.115 127.316 142.991C125.992 142.538 126.041 140.957 127.398 140.6C128.52 140.306 129.889 140.64 130.012 141.855C130.013 141.868 130.012 141.881 130.007 141.893C130.003 141.905 129.996 141.917 129.987 141.926C129.977 141.936 129.966 141.944 129.953 141.95C129.94 141.955 129.926 141.959 129.912 141.959L129.46 141.982C129.433 141.983 129.406 141.975 129.385 141.96C129.363 141.944 129.349 141.922 129.344 141.897C129.105 140.655 126.839 140.921 127.012 141.865C127.213 142.955 130.019 142.242 130.15 143.926C130.213 144.742 129.612 145.348 128.749 145.463C127.484 145.63 126.35 145.243 126.156 143.995C126.153 143.976 126.154 143.958 126.16 143.94C126.165 143.922 126.175 143.905 126.188 143.891C126.201 143.876 126.217 143.865 126.235 143.856C126.253 143.848 126.273 143.843 126.294 143.842L126.654 143.826C126.691 143.824 126.728 143.835 126.758 143.856C126.788 143.876 126.808 143.907 126.816 143.94Z" fill="#1E1649"/>
<path d="M93.1223 140.5C93.1243 140.5 93.1842 140.5 93.3021 140.5C93.3413 140.5 93.3795 140.513 93.4119 140.537C93.4442 140.561 93.4691 140.595 93.4834 140.635L95.1471 145.309C95.1535 145.328 95.1557 145.347 95.1535 145.367C95.1513 145.386 95.1448 145.405 95.1345 145.421C95.1242 145.437 95.1105 145.45 95.0945 145.459C95.0785 145.468 95.0608 145.472 95.0428 145.472L94.7451 145.467C94.6942 145.466 94.6446 145.449 94.6027 145.417C94.5607 145.385 94.5282 145.34 94.5094 145.288L94.0833 144.09C94.0716 144.057 94.051 144.028 94.0241 144.008C93.9972 143.987 93.9652 143.976 93.9322 143.975C93.8405 143.973 93.5781 143.974 93.1449 143.977C92.7128 143.98 92.4504 143.983 92.3577 143.987C92.3249 143.988 92.2933 144.001 92.267 144.022C92.2406 144.043 92.2207 144.072 92.2096 144.105L91.7986 145.309C91.7804 145.362 91.7484 145.407 91.7066 145.44C91.6649 145.472 91.6154 145.49 91.5644 145.492L91.2667 145.5C91.2488 145.5 91.2311 145.496 91.2151 145.487C91.1991 145.478 91.1853 145.466 91.1748 145.45C91.1644 145.434 91.1577 145.416 91.1553 145.396C91.1529 145.377 91.1548 145.357 91.161 145.339L92.7642 140.64C92.7781 140.6 92.8027 140.566 92.8348 140.541C92.8668 140.517 92.9049 140.504 92.944 140.503C93.0618 140.501 93.1213 140.5 93.1223 140.5ZM93.1253 143.444C93.2351 143.444 93.4431 143.445 93.7494 143.446C93.762 143.446 93.7746 143.443 93.7858 143.436C93.7971 143.43 93.8068 143.421 93.8142 143.41C93.8216 143.399 93.8264 143.386 93.8283 143.373C93.8301 143.359 93.829 143.346 93.8249 143.333L93.1752 141.192C93.1733 141.185 93.1696 141.178 93.1643 141.172C93.1591 141.167 93.1524 141.162 93.1449 141.159C93.1389 141.156 93.1324 141.154 93.1253 141.154C93.1172 141.154 93.1102 141.156 93.1042 141.159C93.0967 141.162 93.09 141.167 93.0848 141.172C93.0795 141.178 93.0758 141.185 93.0739 141.192L92.4242 143.333C92.4201 143.346 92.4189 143.359 92.4209 143.373C92.4228 143.387 92.4278 143.399 92.4353 143.411C92.4429 143.422 92.4528 143.431 92.4643 143.437C92.4758 143.443 92.4884 143.446 92.5012 143.446C92.8065 143.445 93.0145 143.444 93.1253 143.444Z" fill="#1E1649"/>
<path d="M104.044 143.18C104.038 143.181 104.032 143.185 104.027 143.191C104.022 143.197 104.019 143.205 104.017 143.213C104.016 143.222 104.016 143.231 104.018 143.239C104.02 143.248 104.023 143.255 104.028 143.261C104.523 143.795 104.788 144.515 105.142 145.325C105.15 145.343 105.154 145.363 105.154 145.383C105.154 145.403 105.151 145.424 105.143 145.441C105.136 145.459 105.125 145.474 105.113 145.484C105.1 145.495 105.085 145.5 105.07 145.5H104.776C104.73 145.5 104.684 145.483 104.644 145.452C104.604 145.42 104.57 145.375 104.547 145.32C104.324 144.799 104.114 144.332 103.917 143.919C103.562 143.18 103.264 143.277 102.693 143.276C102.674 143.276 102.655 143.286 102.642 143.305C102.628 143.324 102.62 143.35 102.62 143.376V145.37C102.62 145.399 102.611 145.428 102.596 145.449C102.581 145.47 102.56 145.482 102.538 145.482H102.249C102.224 145.482 102.2 145.468 102.182 145.444C102.164 145.419 102.154 145.386 102.154 145.351V140.581C102.154 140.562 102.16 140.544 102.169 140.53C102.178 140.516 102.191 140.509 102.205 140.508C102.78 140.494 103.325 140.498 103.84 140.521C104.23 140.538 104.548 140.627 104.758 141.078C104.995 141.584 104.963 142.394 104.644 142.82C104.514 142.993 104.314 143.113 104.044 143.18ZM102.61 141.15L102.615 142.622C102.616 142.645 102.622 142.667 102.634 142.683C102.646 142.699 102.662 142.708 102.679 142.708L103.786 142.703C103.958 142.702 104.123 142.621 104.244 142.477C104.366 142.333 104.433 142.138 104.433 141.936V141.817C104.433 141.716 104.415 141.617 104.383 141.525C104.35 141.432 104.302 141.348 104.241 141.277C104.18 141.207 104.109 141.151 104.03 141.113C103.951 141.075 103.866 141.056 103.781 141.056L102.674 141.061C102.666 141.061 102.657 141.063 102.649 141.068C102.642 141.072 102.635 141.079 102.629 141.087C102.623 141.096 102.618 141.105 102.615 141.116C102.612 141.127 102.61 141.138 102.61 141.15Z" fill="#1E1649"/>
<path d="M110.655 140.515C110.762 140.516 110.853 140.526 110.928 140.544C110.947 140.549 110.965 140.56 110.979 140.576C110.992 140.592 111.002 140.613 111.007 140.635L111.839 144.632C111.839 144.639 111.841 144.645 111.845 144.649C111.848 144.654 111.854 144.657 111.859 144.657C111.864 144.657 111.87 144.654 111.873 144.649C111.877 144.645 111.879 144.639 111.879 144.632L112.611 140.666C112.619 140.624 112.639 140.586 112.667 140.559C112.695 140.531 112.73 140.516 112.767 140.516H113.067C113.08 140.517 113.094 140.52 113.106 140.527C113.117 140.534 113.128 140.544 113.136 140.557C113.144 140.57 113.15 140.584 113.153 140.6C113.155 140.615 113.155 140.631 113.152 140.647L112.135 145.37C112.129 145.396 112.117 145.42 112.101 145.439C112.084 145.458 112.063 145.471 112.04 145.477C111.898 145.507 111.773 145.508 111.667 145.478C111.64 145.47 111.615 145.454 111.595 145.43C111.575 145.407 111.561 145.377 111.554 145.345C111.337 144.316 111.048 142.952 110.688 141.252C110.682 141.229 110.671 141.218 110.654 141.218C110.635 141.218 110.624 141.229 110.62 141.252C110.251 142.95 109.956 144.312 109.734 145.338C109.727 145.371 109.713 145.4 109.692 145.424C109.672 145.447 109.647 145.464 109.62 145.472C109.514 145.5 109.389 145.498 109.247 145.467C109.224 145.461 109.204 145.448 109.187 145.429C109.17 145.41 109.159 145.386 109.153 145.36L108.157 140.63C108.154 140.615 108.153 140.598 108.156 140.583C108.159 140.567 108.165 140.552 108.173 140.54C108.181 140.527 108.192 140.517 108.204 140.51C108.216 140.503 108.229 140.5 108.243 140.5L108.543 140.503C108.579 140.504 108.614 140.519 108.642 140.546C108.67 140.573 108.689 140.611 108.697 140.653L109.411 144.624C109.411 144.63 109.414 144.637 109.417 144.641C109.421 144.646 109.426 144.648 109.432 144.648C109.437 144.648 109.442 144.646 109.446 144.641C109.45 144.637 109.452 144.63 109.452 144.624L110.301 140.633C110.306 140.61 110.316 140.589 110.33 140.573C110.345 140.557 110.362 140.546 110.382 140.541C110.456 140.524 110.547 140.515 110.655 140.515Z" fill="#1E1649"/>
<path d="M116.648 143.977C116.324 143.979 116.127 143.983 116.058 143.987C116.034 143.988 116.01 144 115.99 144.021C115.97 144.042 115.955 144.07 115.946 144.104L115.637 145.308C115.624 145.36 115.6 145.405 115.569 145.438C115.537 145.47 115.5 145.488 115.462 145.49L115.239 145.5C115.225 145.5 115.212 145.496 115.2 145.487C115.188 145.478 115.177 145.465 115.169 145.449C115.162 145.433 115.157 145.415 115.155 145.395C115.153 145.376 115.155 145.356 115.16 145.338L116.364 140.639C116.374 140.6 116.393 140.565 116.417 140.54C116.441 140.516 116.469 140.502 116.499 140.502C116.588 140.501 116.632 140.5 116.632 140.5C116.634 140.5 116.679 140.5 116.767 140.5C116.796 140.5 116.825 140.512 116.85 140.536C116.874 140.56 116.893 140.595 116.904 140.635L118.149 145.311C118.154 145.329 118.155 145.349 118.154 145.369C118.152 145.388 118.147 145.406 118.139 145.422C118.132 145.438 118.121 145.451 118.11 145.46C118.098 145.469 118.084 145.474 118.071 145.474L117.848 145.469C117.809 145.468 117.772 145.45 117.741 145.418C117.709 145.385 117.685 145.34 117.671 145.288L117.352 144.09C117.343 144.057 117.328 144.029 117.308 144.008C117.288 143.988 117.264 143.977 117.239 143.976C117.169 143.973 116.973 143.974 116.648 143.977ZM116.63 143.424C116.711 143.424 116.864 143.425 117.089 143.426C117.099 143.426 117.108 143.422 117.116 143.416C117.124 143.41 117.131 143.401 117.137 143.391C117.142 143.38 117.146 143.368 117.147 143.355C117.149 143.342 117.148 143.328 117.145 143.316L116.671 141.215C116.669 141.208 116.667 141.202 116.663 141.196C116.659 141.19 116.655 141.186 116.649 141.183C116.645 141.179 116.639 141.178 116.633 141.178C116.628 141.178 116.623 141.179 116.619 141.183C116.613 141.186 116.609 141.19 116.605 141.196C116.601 141.202 116.598 141.208 116.597 141.215L116.116 143.313C116.113 143.325 116.112 143.339 116.113 143.352C116.115 143.365 116.118 143.378 116.124 143.389C116.129 143.399 116.136 143.408 116.145 143.415C116.153 143.421 116.162 143.424 116.172 143.424C116.396 143.424 116.549 143.424 116.63 143.424Z" fill="#1E1649"/>
<path d="M122.141 142.779C122.169 142.779 122.189 142.768 122.201 142.746C122.469 142.275 122.869 141.591 123.401 140.695C123.432 140.643 123.475 140.6 123.527 140.57C123.578 140.54 123.636 140.525 123.694 140.525H124.063C124.079 140.525 124.095 140.529 124.11 140.538C124.124 140.547 124.135 140.559 124.143 140.575C124.151 140.59 124.155 140.607 124.154 140.625C124.154 140.642 124.148 140.659 124.139 140.673L122.557 143.197C122.476 143.326 122.433 143.477 122.432 143.631L122.421 145.375C122.42 145.406 122.409 145.436 122.389 145.46C122.369 145.483 122.341 145.497 122.311 145.5C122.307 145.5 122.245 145.499 122.126 145.498C122.005 145.498 121.943 145.498 121.938 145.497C121.909 145.493 121.882 145.478 121.863 145.455C121.843 145.432 121.832 145.402 121.832 145.371L121.842 143.627C121.842 143.473 121.801 143.322 121.721 143.192L120.168 140.647C120.16 140.632 120.155 140.616 120.154 140.598C120.154 140.581 120.158 140.564 120.166 140.549C120.174 140.534 120.186 140.521 120.2 140.513C120.214 140.504 120.23 140.5 120.246 140.5L120.615 140.505C120.673 140.506 120.731 140.522 120.782 140.552C120.833 140.582 120.876 140.626 120.907 140.678C121.428 141.581 121.82 142.27 122.082 142.746C122.093 142.768 122.113 142.779 122.141 142.779Z" fill="#1E1649"/>
<defs>
<linearGradient id="paint0_linear_315_54706" x1="159.154" y1="88" x2="83.1217" y2="88" gradientUnits="userSpaceOnUse">
<stop stop-color="#3E4794"/>
<stop offset="0.480769" stop-color="#1F83C9"/>
<stop offset="1" stop-color="#3A469F"/>
</linearGradient>
<radialGradient id="paint1_radial_315_54706" cx="0" cy="0" r="1" gradientTransform="matrix(11.3593 27.7658 -68.1003 27.28 107.323 75.7008)" gradientUnits="userSpaceOnUse">
<stop stop-color="#D5D5D5"/>
<stop offset="1" stop-color="#BD465A"/>
</radialGradient>
<radialGradient id="paint2_radial_315_54706" cx="0" cy="0" r="1" gradientUnits="userSpaceOnUse" gradientTransform="translate(132.654 102.5) rotate(180) scale(15.5 68.512)">
<stop stop-color="#1F83C9"/>
<stop offset="0.316349" stop-color="#374EA4"/>
<stop offset="1" stop-color="#3A469F"/>
</radialGradient>
<radialGradient id="paint3_radial_315_54706" cx="0" cy="0" r="1" gradientTransform="matrix(4.63135 21.4959 -27.7655 21.1198 127.022 92.9781)" gradientUnits="userSpaceOnUse">
<stop stop-color="#D5D5D5"/>
<stop offset="1" stop-color="#BD465A"/>
</radialGradient>
</defs>
</svg>
