<svg width="212" height="164" viewBox="0 0 212 164" fill="none" xmlns="http://www.w3.org/2000/svg">
<path d="M136.295 18.6747L1.1543 162.911H136.727L211.154 0.5H178.229C170.918 0.5 163.675 1.89495 156.887 4.61003C149.076 7.73439 142.047 12.5356 136.295 18.6747Z" fill="white"/>
<path d="M1.1543 162.911L136.295 18.6746C142.047 12.5356 149.076 7.73439 156.887 4.61003C163.675 1.89496 170.918 0.5 178.229 0.5H211.154M1.1543 162.911H136.727L211.154 0.5M1.1543 162.911L136.295 18.6747C142.047 12.5356 149.076 7.73439 156.887 4.61003C163.675 1.89495 170.918 0.5 178.229 0.5H211.154" stroke="#C2C2C2" stroke-opacity="0.4"/>
<mask id="mask0_1511_95968" style="mask-type:alpha" maskUnits="userSpaceOnUse" x="1" y="0" width="211" height="163">
<path d="M136.295 18.6747L1.1543 162.911H136.727L211.154 0.5H178.229C170.918 0.5 163.675 1.89495 156.887 4.61003C149.076 7.73439 142.047 12.5356 136.295 18.6747Z" fill="#1C325C"/>
</mask>
<g mask="url(#mask0_1511_95968)">
<path d="M148.898 137.228C94.1596 139.171 51.5946 159.361 37.1543 169.212L83.3092 192.695H160.234C179.263 173.396 203.636 135.284 148.898 137.228Z" fill="#0977B3"/>
<path d="M220.155 -3.66681L107.602 32.7712L101.934 12.5279L174 -14.1934L220.155 -3.66681Z" fill="#133B62"/>
<path d="M167.928 19.4096L208.819 10.0977L213.678 14.5512L167.928 19.4096Z" fill="#0977B3"/>
<path d="M154.162 35.605L205.548 23.459L211.653 29.2679L154.162 35.605Z" fill="#133B62"/>
</g>
</svg>
