<svg width="212" height="164" viewBox="0 0 212 164" fill="none" xmlns="http://www.w3.org/2000/svg">
<path d="M136.297 18.6747L1.15625 162.911H136.729L211.156 0.5H178.231C170.92 0.5 163.677 1.89495 156.889 4.61003C149.078 7.73439 142.049 12.5356 136.297 18.6747Z" fill="white"/>
<path d="M1.15625 162.911L136.297 18.6746C142.049 12.5356 149.078 7.73439 156.889 4.61003C163.677 1.89496 170.92 0.5 178.231 0.5H211.156M1.15625 162.911H136.729L211.156 0.5M1.15625 162.911L136.297 18.6747C142.049 12.5356 149.078 7.73439 156.889 4.61003C163.677 1.89495 170.92 0.5 178.231 0.5H211.156" stroke="#C2C2C2" stroke-opacity="0.4"/>
<mask id="mask0_473_150153" style="mask-type:alpha" maskUnits="userSpaceOnUse" x="1" y="0" width="211" height="163">
<path d="M136.297 18.6747L1.15625 162.911H136.729L211.156 0.5H178.231C170.92 0.5 163.677 1.89495 156.889 4.61003C149.078 7.73439 142.049 12.5356 136.297 18.6747Z" fill="#100D5C"/>
</mask>
<g mask="url(#mask0_473_150153)">
<path fill-rule="evenodd" clip-rule="evenodd" d="M78.0762 17.5H78.9746C112.898 17.5 140.769 44.9315 141.153 78.6485C141.501 113.354 114.492 141.984 80.9533 142.5H79.8371C43.7688 142.5 16.3751 115.89 16.1581 80.5814C15.897 45.7017 43.1242 18.0159 78.0762 17.5ZM78.2859 109.466C93.099 109.466 106.194 96.597 106.839 81.3953C107.143 74.383 104.317 67.1019 99.0344 61.4194C93.6645 55.6496 86.4464 52.2489 79.2357 52.0309H78.547C63.5169 52.0309 50.3782 64.6458 49.8632 79.5859C49.603 87.1214 52.5233 94.7004 57.8932 100.383C63.1693 106.022 70.4306 109.335 77.7719 109.466H78.2859Z" fill="#05052D"/>
</g>
</svg>
