<svg width="212" height="164" viewBox="0 0 212 164" fill="none" xmlns="http://www.w3.org/2000/svg">
<path d="M136.295 18.6747L1.1543 162.911H136.727L211.154 0.5H178.229C170.918 0.5 163.675 1.89495 156.887 4.61003C149.076 7.73439 142.047 12.5356 136.295 18.6747Z" fill="#473729"/>
<path d="M1.1543 162.911L136.295 18.6746C142.047 12.5356 149.076 7.73439 156.887 4.61003C163.675 1.89496 170.918 0.5 178.229 0.5H211.154M1.1543 162.911H136.727L211.154 0.5M1.1543 162.911L136.295 18.6747C142.047 12.5356 149.076 7.73439 156.887 4.61003C163.675 1.89495 170.918 0.5 178.229 0.5H211.154" stroke="#C2C2C2" stroke-opacity="0.4"/>
<mask id="mask0_332_127192" style="mask-type:alpha" maskUnits="userSpaceOnUse" x="1" y="0" width="211" height="163">
<path d="M136.295 18.6747L1.1543 162.911H136.727L211.154 0.5H178.229C170.918 0.5 163.675 1.89495 156.887 4.61003C149.076 7.73439 142.047 12.5356 136.295 18.6747Z" fill="#1C325C"/>
</mask>
<g mask="url(#mask0_332_127192)">
<path d="M111.905 76.4879L107.171 70.2702C107.164 70.2604 107.158 70.2484 107.156 70.2355C107.153 70.2226 107.154 70.2092 107.157 70.1965C107.161 70.1839 107.167 70.1725 107.175 70.1635C107.184 70.1544 107.194 70.148 107.205 70.1449C108.076 69.9044 109.005 69.7503 109.993 69.6825C111.341 69.5896 112.696 69.5288 114.057 69.5C114.073 69.4998 114.088 69.504 114.102 69.5121C114.116 69.5202 114.128 69.532 114.137 69.5465C114.146 69.561 114.151 69.5778 114.153 69.5954C114.156 69.613 114.154 69.6309 114.149 69.6476L111.955 76.4781C111.953 76.4837 111.95 76.4885 111.946 76.4923C111.942 76.496 111.938 76.4985 111.933 76.4995C111.928 76.5005 111.922 76.5 111.918 76.4979C111.913 76.4959 111.909 76.4924 111.905 76.4879Z" fill="white"/>
<path d="M113.056 81.8251C113.059 81.8287 113.063 81.8315 113.068 81.8332C113.072 81.8349 113.077 81.8354 113.082 81.8348C113.087 81.8342 113.091 81.8323 113.095 81.8295C113.099 81.8267 113.103 81.823 113.105 81.8187C113.221 81.5825 113.363 81.2559 113.529 80.8387C113.795 80.1742 114.303 78.8326 115.054 76.8141C115.327 76.0814 115.681 75.2588 116.115 74.346C116.975 72.5451 117.305 71.7332 117.951 70.5373C117.958 70.5242 117.969 70.5136 117.983 70.5071C117.997 70.5006 118.012 70.4985 118.027 70.5011L120.061 70.8372C120.077 70.8401 120.093 70.8464 120.107 70.8559C120.121 70.8654 120.132 70.8777 120.14 70.892C120.149 70.9063 120.153 70.9221 120.154 70.9384C120.155 70.9546 120.152 70.9709 120.146 70.9859C119.621 72.2305 119.224 73.1532 118.957 73.7539C117.934 76.0513 117.205 78.1405 116.286 80.6396C116.057 81.2593 115.76 81.851 115.395 82.4147C115.389 82.4238 115.38 82.4313 115.371 82.4364C115.361 82.4416 115.35 82.4444 115.34 82.4444L110.745 82.5C110.71 82.5 110.677 82.487 110.652 82.4638L100.19 72.6601C100.175 72.6461 100.165 72.6286 100.159 72.6093C100.153 72.59 100.153 72.5696 100.158 72.5501C100.163 72.5307 100.173 72.5128 100.188 72.4983C100.202 72.4838 100.22 72.4732 100.24 72.4675L102.732 71.7681C102.743 71.7646 102.756 71.7646 102.767 71.7681C102.779 71.7716 102.789 71.7783 102.797 71.7875C103.219 72.3098 104.046 73.1432 105.276 74.2878C108.197 77.0045 109.982 78.6637 110.633 79.2653C111.505 80.072 112.469 81.1516 113.056 81.8251Z" fill="white"/>
<path d="M118.156 82.7809C118.156 82.7808 118.155 82.7806 118.155 82.7803C118.155 82.78 118.155 82.7796 118.154 82.7792C118.154 82.7789 118.154 82.7784 118.154 82.778C118.154 82.7776 118.155 82.7772 118.155 82.7769C118.608 82.1199 120.015 79.9938 122.376 76.3985C123.235 75.09 124.101 73.9336 124.863 72.7906C125.189 72.2997 125.434 71.8958 125.598 71.579C125.608 71.5594 125.623 71.5423 125.642 71.529C125.661 71.5156 125.682 71.5065 125.705 71.5023C125.81 71.4843 126.154 71.5723 126.739 71.7661C127.611 72.0569 128.412 72.4653 129.141 72.9912C129.148 72.9963 129.153 73.0038 129.154 73.0121C129.155 73.0203 129.153 73.0288 129.148 73.0356C128.542 73.8016 128.154 74.4424 127.551 75.1384C127.097 75.6621 126.345 76.4416 125.772 77.2062C125.661 77.3552 125.503 77.5553 125.298 77.8066C124.332 78.9895 123.272 80.338 122.119 81.852C121.718 82.3771 121.339 82.8671 121.052 83.4554C121.044 83.472 121.029 83.4853 121.011 83.493C120.993 83.5006 120.973 83.5021 120.954 83.4971L118.156 82.7809Z" fill="white"/>
<path d="M106.089 83.0342L104.251 83.4959C104.234 83.5005 104.216 83.5012 104.198 83.498C104.181 83.4947 104.165 83.4876 104.15 83.4771C103.572 83.07 103.227 82.8186 103.116 82.7228C99.5864 79.6502 96.6051 77.0514 94.1722 74.9263C94.1664 74.9211 94.1617 74.9147 94.1586 74.9075C94.1555 74.9004 94.1541 74.8926 94.1543 74.8849C94.1546 74.8772 94.1566 74.8697 94.1601 74.8629C94.1637 74.8561 94.1687 74.8503 94.1749 74.8458L96.0263 73.5063C96.0328 73.5018 96.0406 73.4996 96.0482 73.5001C96.0558 73.5006 96.0627 73.5037 96.0678 73.509C96.7411 74.1872 97.5219 74.9478 98.4101 75.7907C100.232 77.522 102.133 79.04 103.971 80.8022C104.832 81.6272 105.551 82.3224 106.129 82.8879C106.14 82.8988 106.147 82.9124 106.151 82.9273C106.155 82.9422 106.155 82.9579 106.151 82.9728C106.147 82.9877 106.139 83.0012 106.128 83.012C106.117 83.0228 106.104 83.0304 106.089 83.0342Z" fill="white"/>
<path d="M125.161 85.4252C126.186 83.7116 126.983 82.4496 127.553 81.6391C128.815 79.8445 130.297 77.8335 132 75.606C132.037 75.5579 132.071 75.5241 132.103 75.5045C132.108 75.5014 132.114 75.4998 132.121 75.5C132.127 75.5002 132.133 75.5021 132.138 75.5055C132.143 75.5089 132.147 75.5137 132.15 75.5194C132.153 75.5251 132.155 75.5315 132.154 75.5379C132.038 77.1472 131.898 79.3498 131.736 82.1454C131.708 82.6344 131.484 82.9679 131.065 83.146C130.057 83.5744 128.238 84.3364 125.606 85.4318C125.513 85.471 125.378 85.4937 125.204 85.5C125.195 85.5003 125.186 85.4982 125.179 85.4939C125.171 85.4896 125.165 85.4833 125.161 85.4757C125.157 85.468 125.154 85.4593 125.154 85.4504C125.154 85.4415 125.157 85.4328 125.161 85.4252Z" fill="white"/>
<path d="M141.144 82.6257C141.15 82.6341 141.154 82.6438 141.154 82.6537C141.155 82.6637 141.153 82.6736 141.148 82.6826C141.143 82.6916 141.135 82.6994 141.126 82.7052C141.117 82.711 141.106 82.7147 141.095 82.7159L134.2 83.4996C134.195 83.5004 134.189 83.5 134.183 83.4985C134.177 83.4969 134.172 83.4943 134.168 83.4906C134.163 83.487 134.16 83.4826 134.157 83.4776C134.155 83.4726 134.154 83.4673 134.154 83.4619C134.382 80.5156 134.46 78.8769 134.855 76.5514C134.857 76.5404 134.862 76.53 134.87 76.5215C134.878 76.5129 134.888 76.5065 134.9 76.503C134.912 76.4995 134.925 76.499 134.938 76.5016C134.95 76.5042 134.961 76.5098 134.97 76.5177C135.571 77.0402 136.233 77.5303 136.838 78.1269C137.429 78.7086 138.456 79.7261 139.918 81.1795C140.396 81.6544 140.805 82.1364 141.144 82.6257Z" fill="white"/>
<path d="M101.138 85.414C101.146 85.4205 101.151 85.4295 101.153 85.4398C101.155 85.45 101.155 85.4609 101.151 85.4706C101.148 85.4804 101.141 85.4885 101.133 85.4937C101.126 85.499 101.116 85.501 101.107 85.4995L92.3763 83.7437C92.3576 83.7403 92.3402 83.7301 92.3266 83.7145C92.313 83.6989 92.3038 83.6787 92.3004 83.6566C91.9196 81.1724 91.5672 79.0974 91.2431 77.4316C91.1839 77.1285 91.1543 76.8358 91.1543 76.5537C91.1541 76.5437 91.1564 76.5338 91.1608 76.5253C91.1653 76.5167 91.1718 76.5098 91.1795 76.5054C91.1872 76.501 91.1958 76.4992 91.2043 76.5003C91.2129 76.5014 91.221 76.5054 91.2276 76.5117L101.138 85.414Z" fill="white"/>
<path d="M81.1604 86.4263C81.9738 85.0043 82.9675 83.5768 84.1415 82.1438C85.0748 81.0055 86.4761 79.7132 87.271 78.9443C87.4774 78.7459 87.6492 78.6083 87.7862 78.5315C87.8188 78.5133 87.8548 78.5027 87.8917 78.5005C87.9286 78.4982 87.9654 78.5043 87.9998 78.5184C88.0341 78.5325 88.065 78.5542 88.0905 78.582C88.116 78.6098 88.1353 78.6431 88.1472 78.6796C88.2509 78.9947 88.3284 79.3313 88.3798 79.6892C88.6652 81.6916 88.923 83.3843 89.1533 84.7675C89.1547 84.7747 89.1546 84.7822 89.1532 84.7895C89.1517 84.7967 89.1488 84.8037 89.1447 84.8098C89.1405 84.8159 89.1353 84.8212 89.1291 84.8252C89.123 84.8292 89.1162 84.832 89.109 84.8333C86.7145 85.3079 84.2666 85.805 81.7655 86.3246C81.5143 86.3769 81.3745 86.4712 81.2075 86.4996C81.1988 86.5008 81.19 86.4994 81.182 86.4956C81.174 86.4919 81.1672 86.4858 81.1623 86.4782C81.1574 86.4706 81.1547 86.4617 81.1543 86.4525C81.154 86.4434 81.1561 86.4343 81.1604 86.4263Z" fill="white"/>
<path d="M142.12 85.5006C142.126 85.4994 142.133 85.5 142.138 85.5025C142.144 85.505 142.149 85.5092 142.151 85.5143C142.154 85.5194 142.155 85.5253 142.154 85.5308C142.152 85.5364 142.149 85.5414 142.144 85.545C141.254 86.2432 140.453 86.7509 139.704 87.529C137.766 89.5413 135.953 91.5248 134.265 93.4796C134.257 93.4886 134.245 93.495 134.233 93.4981C134.22 93.5011 134.207 93.5006 134.195 93.4965C134.183 93.4924 134.172 93.4851 134.165 93.4755C134.158 93.4658 134.154 93.4544 134.154 93.4428L134.549 86.9324C134.551 86.9068 134.56 86.8821 134.578 86.8613C134.595 86.8405 134.618 86.8246 134.646 86.8156C134.888 86.7369 135.106 86.684 135.297 86.657C136.983 86.4175 139.257 86.032 142.12 85.5006Z" fill="white"/>
<path d="M131.983 91.4751C131.983 91.48 131.981 91.4848 131.977 91.4889C131.974 91.493 131.969 91.4962 131.963 91.4981C131.957 91.5 131.95 91.5005 131.944 91.4995C131.938 91.4986 131.932 91.4962 131.927 91.4928C130.165 90.2213 128.247 88.9363 126.175 87.6378C126.167 87.6333 126.162 87.6275 126.158 87.6208C126.155 87.6142 126.154 87.607 126.155 87.5999C126.156 87.5927 126.159 87.586 126.165 87.5802C126.17 87.5744 126.178 87.5699 126.186 87.5669C126.367 87.502 126.525 87.4603 126.66 87.4417C127.954 87.2663 129.291 87.0577 130.672 86.8157C131.191 86.7246 131.656 86.5602 132.074 86.5007C132.084 86.4994 132.094 86.4999 132.104 86.5019C132.114 86.504 132.123 86.5077 132.13 86.5128C132.138 86.5179 132.144 86.5242 132.148 86.5313C132.152 86.5384 132.154 86.5461 132.154 86.5539L131.983 91.4751Z" fill="white"/>
<path d="M92.0615 93.4729C91.9262 92.6288 91.7737 91.3027 91.604 89.4946C91.516 88.5596 91.3103 87.4313 91.156 86.6057C91.1536 86.5931 91.1537 86.5801 91.1564 86.5676C91.1591 86.5551 91.1643 86.5434 91.1715 86.5334C91.1787 86.5234 91.1879 86.5152 91.1983 86.5096C91.2088 86.504 91.2202 86.501 91.2318 86.5008C91.6099 86.4958 91.9839 86.5143 92.3539 86.5562C95.6186 86.9338 97.3421 87.1376 97.5244 87.1676C97.7004 87.1966 97.9003 87.2545 98.124 87.3414C98.1322 87.3447 98.1393 87.3505 98.1446 87.3581C98.15 87.3656 98.1532 87.3747 98.1541 87.3843C98.1549 87.3938 98.1533 87.4035 98.1494 87.412C98.1456 87.4206 98.1396 87.4278 98.1322 87.4328C96.7164 88.4248 95.4129 89.6025 94.2218 90.9661C93.6199 91.6563 92.9165 92.4974 92.1116 93.4894C92.1081 93.4939 92.1036 93.4972 92.0985 93.4988C92.0933 93.5004 92.0879 93.5004 92.0826 93.4987C92.0774 93.497 92.0727 93.4936 92.0689 93.4891C92.0652 93.4845 92.0626 93.4789 92.0615 93.4729Z" fill="white"/>
<path d="M136.712 99.4453L136.157 96.7028C136.153 96.6821 136.154 96.6608 136.159 96.6404C136.164 96.62 136.174 96.6011 136.188 96.5852C136.204 96.5669 136.881 95.8309 138.217 94.3773C139.256 93.2466 140.329 92.2322 141.278 91.2348C141.53 90.9699 141.704 90.7634 141.798 90.6152C142.365 89.7277 143.406 88.5878 143.817 88.1329C144.046 87.8802 144.276 87.6771 144.506 87.5237C144.538 87.5028 144.576 87.4953 144.613 87.5029C144.65 87.5105 144.683 87.5325 144.704 87.5643L146.14 89.7616C146.152 89.7799 146.156 89.802 146.153 89.8237C146.15 89.8454 146.139 89.8652 146.123 89.8793C145.701 90.227 145.284 90.5664 144.87 90.8976C144.544 91.1577 144.284 91.5577 143.985 91.878C142.379 93.6017 140.172 96.0013 137.364 99.0767C137.314 99.1325 137.13 99.2697 136.815 99.4884C136.806 99.4947 136.795 99.4985 136.784 99.4997C136.773 99.5008 136.762 99.4991 136.752 99.4949C136.742 99.4906 136.733 99.4838 136.726 99.4752C136.719 99.4665 136.714 99.4563 136.712 99.4453Z" fill="white"/>
<path d="M79.1651 90.7377C79.1619 90.7358 79.1593 90.7332 79.1574 90.7301C79.1555 90.7269 79.1544 90.7234 79.1543 90.7198C79.1542 90.7162 79.155 90.7127 79.1567 90.7096C79.1583 90.7066 79.1608 90.7041 79.1638 90.7024C79.5718 90.4682 79.9628 90.3068 80.3368 90.218C82.4559 89.7174 84.9499 89.1459 87.8187 88.5035C87.8541 88.4956 87.8911 88.5012 87.9228 88.5192C87.9545 88.5372 87.9787 88.5665 87.9908 88.6014C88.8621 91.1085 89.5821 93.6813 90.1507 96.3199C90.156 96.3437 90.1554 96.3686 90.149 96.3921C90.1426 96.4157 90.1305 96.4372 90.114 96.4548C90.0974 96.4724 90.0769 96.4855 90.0541 96.493C90.0314 96.5004 90.0072 96.502 89.9837 96.4975C89.8163 96.4661 89.6828 96.4231 89.5834 96.3682C88.0958 95.5412 84.6231 93.6644 79.1651 90.7377Z" fill="white"/>
<path d="M112.095 90.5C112.115 90.5 112.134 90.5037 112.146 90.5149C112.35 90.7141 112.505 90.9609 112.61 91.2552C112.955 92.23 113.136 93.3085 113.153 94.4907C113.171 95.6738 113.022 96.7556 112.706 97.7361C112.61 98.0321 112.463 98.2817 112.264 98.4851C112.253 98.4963 112.234 98.5 112.214 98.5C112.195 98.5 112.176 98.4975 112.163 98.4864C111.959 98.2863 111.805 98.0391 111.7 97.7448C111.355 96.7709 111.174 95.6924 111.156 94.5093C111.139 93.3262 111.288 92.2448 111.604 91.2652C111.7 90.9692 111.847 90.7195 112.046 90.5161C112.057 90.5037 112.076 90.5012 112.095 90.5Z" fill="white"/>
<path d="M149.067 112.428C149.066 112.441 149.061 112.453 149.054 112.463C149.047 112.474 149.039 112.483 149.028 112.489C149.018 112.495 149.006 112.499 148.994 112.5C148.982 112.501 148.97 112.498 148.959 112.494C147.524 111.857 146.25 111.316 145.139 110.872C143.416 110.183 140.775 109.121 137.217 107.686C137.197 107.679 137.181 107.665 137.17 107.646C137.159 107.627 137.154 107.605 137.156 107.582C137.198 107.033 137.241 106.505 137.284 105.999C137.357 105.149 137.156 104.133 137.154 103.227C137.154 103.184 137.163 103.141 137.18 103.101C137.197 103.062 137.222 103.027 137.252 102.998L147.543 93.5141C147.549 93.508 147.557 93.5037 147.566 93.5016C147.574 93.4994 147.583 93.4995 147.592 93.5017C147.601 93.504 147.608 93.5084 147.615 93.5146C147.622 93.5208 147.627 93.5286 147.63 93.5374C147.902 94.2409 148.144 94.9299 148.355 95.6042C148.467 95.961 148.531 96.3315 148.546 96.7157C148.547 96.7368 148.543 96.758 148.534 96.777C148.525 96.796 148.511 96.8122 148.494 96.8238C147.884 97.2326 147.424 97.5629 147.112 97.8148C145.652 98.991 143.198 100.995 139.75 103.826C139.198 104.281 138.938 104.648 138.626 105.21C138.613 105.233 138.605 105.259 138.603 105.286C138.6 105.313 138.603 105.34 138.611 105.365C138.619 105.39 138.632 105.413 138.65 105.432C138.667 105.451 138.688 105.466 138.711 105.476C141.671 106.719 145.295 108.016 148.371 109.273C148.59 109.362 148.807 109.473 149.021 109.605C149.04 109.617 149.055 109.633 149.067 109.652C149.078 109.671 149.085 109.692 149.088 109.715C149.183 110.745 149.176 111.649 149.067 112.428Z" fill="white"/>
<path d="M117.154 94.5342C117.035 95.7414 116.765 96.8922 116.345 97.9866C116.124 98.5655 115.767 99.1236 115.376 99.4751C115.362 99.4873 115.346 99.4953 115.329 99.4985C115.313 99.5016 115.295 99.4999 115.279 99.4934C115.263 99.4868 115.249 99.4757 115.237 99.4609C115.225 99.4461 115.216 99.428 115.211 99.4082C115.14 99.1285 115.134 98.833 115.201 98.5059C115.433 97.3701 115.555 96.5407 116.154 95.7345C116.582 95.1581 116.816 94.7556 117.115 94.505C117.119 94.5018 117.123 94.5001 117.128 94.5C117.133 94.4999 117.138 94.5015 117.142 94.5045C117.146 94.5075 117.149 94.5119 117.151 94.5172C117.154 94.5224 117.155 94.5283 117.154 94.5342Z" fill="white"/>
<path d="M106.154 94.5367C106.154 94.5296 106.155 94.5225 106.159 94.5164C106.163 94.5103 106.169 94.5055 106.177 94.5027C106.184 94.4999 106.192 94.4993 106.199 94.5008C106.207 94.5024 106.214 94.5062 106.219 94.5115C107.151 95.4648 107.913 96.494 108.505 97.5993C108.981 98.491 109.196 99.4484 109.148 100.472C109.148 100.477 109.145 100.483 109.142 100.488C109.138 100.492 109.133 100.496 109.127 100.498C109.121 100.5 109.115 100.501 109.109 100.499C109.103 100.498 109.097 100.495 109.093 100.491C107.674 99.1648 106.813 97.3754 106.322 95.4951C106.24 95.1789 106.184 94.8594 106.154 94.5367Z" fill="white"/>
<path d="M88.1512 100.363C87.9871 101.053 87.8876 101.747 87.8528 102.442C87.8524 102.452 87.85 102.461 87.8458 102.47C87.8416 102.478 87.8356 102.485 87.8285 102.491C87.8213 102.496 87.8132 102.499 87.8048 102.5C87.7963 102.501 87.7879 102.499 87.7801 102.495C84.7556 101.01 81.3791 99.3215 77.6506 97.4307C77.1787 97.1908 76.6111 97.0171 76.2196 96.8714C76.1996 96.8639 76.1823 96.8489 76.1705 96.8286C76.1588 96.8084 76.1531 96.7841 76.1545 96.7595C76.1987 95.9491 76.3994 95.2073 76.7565 94.5342C76.7649 94.5188 76.778 94.5076 76.7933 94.5027C76.8086 94.4978 76.825 94.4996 76.8394 94.5077C80.5382 96.6192 84.2913 98.5306 88.0989 100.242C88.1189 100.251 88.1354 100.268 88.145 100.29C88.1547 100.313 88.1569 100.338 88.1512 100.363Z" fill="white"/>
<path d="M108.153 102.44C108.155 102.449 108.155 102.459 108.152 102.468C108.148 102.476 108.143 102.484 108.136 102.49C108.129 102.495 108.12 102.499 108.111 102.5C108.102 102.501 108.093 102.499 108.085 102.495C107.918 102.408 107.37 102.1 106.439 101.57C105.488 101.03 104.505 100.211 103.972 99.2097C103.656 98.6177 103.387 98.0863 103.163 97.6153C103.156 97.6014 103.153 97.5856 103.155 97.5701C103.157 97.5546 103.163 97.54 103.173 97.528C103.183 97.5161 103.196 97.5075 103.211 97.5031C103.225 97.4988 103.241 97.499 103.256 97.5037C104.224 97.7987 105.067 98.2385 105.784 98.823C106.899 99.7318 107.847 100.995 108.153 102.44Z" fill="white"/>
<path d="M121.138 97.5187C121.154 97.5364 121.158 97.5541 121.15 97.5718C120.801 98.2693 120.572 98.8564 120.102 99.4253C119.395 100.281 118.27 101.309 117.195 101.5C117.185 101.501 117.176 101.497 117.167 101.487C117.157 101.477 117.153 101.466 117.155 101.456C117.375 100.355 118.408 99.2254 119.259 98.5251C119.824 98.0582 120.401 97.8416 121.087 97.5033C121.104 97.4959 121.121 97.501 121.138 97.5187Z" fill="white"/>
<path d="M149.889 99.5106C149.896 99.5049 149.904 99.5013 149.913 99.5003C149.922 99.4993 149.931 99.5009 149.939 99.5049C149.947 99.5089 149.954 99.5152 149.959 99.5231C149.964 99.531 149.967 99.5402 149.968 99.5498C150.003 100.043 149.967 100.66 150.007 101.109C150.171 102.974 150.198 104.754 150.089 106.449C150.088 106.457 150.086 106.466 150.082 106.473C150.079 106.48 150.073 106.486 150.067 106.491C150.061 106.495 150.053 106.498 150.046 106.5C150.038 106.501 150.03 106.5 150.023 106.497L144.173 104.334C144.168 104.332 144.164 104.329 144.161 104.325C144.158 104.321 144.155 104.316 144.155 104.311C144.154 104.305 144.154 104.3 144.156 104.295C144.158 104.29 144.161 104.285 144.165 104.282L149.889 99.5106Z" fill="white"/>
<path d="M75.6386 100.502C75.8165 100.559 76.3123 100.802 77.126 101.231C78.3352 101.868 79.8109 102.657 81.553 103.6C82.2642 103.984 82.947 104.144 83.7002 104.528C83.8681 104.614 85.3113 105.355 88.0297 106.75C88.0676 106.769 88.0993 106.799 88.1213 106.835C88.1433 106.872 88.1547 106.913 88.1543 106.956L88.1069 111.031C88.106 111.064 88.0924 111.096 88.0689 111.119C87.7863 111.388 87.1586 112.043 86.186 113.085C85.7344 113.568 85.0778 114.204 84.2163 114.993C82.5519 116.519 80.7809 118.199 78.9033 120.036C78.6866 120.248 78.5759 120.355 78.5714 120.359C78.1415 120.809 77.6398 121.185 77.0664 121.487C77.0521 121.495 77.0363 121.499 77.0202 121.5C77.004 121.501 76.9878 121.498 76.9728 121.492C76.9577 121.486 76.9442 121.477 76.9333 121.465C76.9223 121.454 76.9141 121.44 76.9092 121.424C76.6229 120.525 76.4197 119.561 76.2996 118.53C76.2975 118.51 76.3008 118.49 76.3091 118.472C76.3174 118.454 76.3305 118.438 76.347 118.426C77.638 117.507 78.7895 116.417 79.6795 115.568C81.0342 114.273 81.8456 113.508 82.1138 113.272C83.0499 112.445 84.0619 111.357 85.0237 110.395C85.5926 109.826 86.2415 109.341 86.8294 108.899C86.8357 108.894 86.8406 108.888 86.8438 108.881C86.8469 108.874 86.8482 108.866 86.8476 108.858C86.8469 108.85 86.8442 108.843 86.8399 108.837C86.8355 108.83 86.8296 108.825 86.8227 108.822L75.2335 103.112C75.206 103.098 75.1837 103.076 75.1698 103.049C75.1559 103.022 75.1512 102.992 75.1563 102.962L75.583 100.536C75.5841 100.529 75.5865 100.524 75.59 100.519C75.5935 100.513 75.5981 100.509 75.6034 100.506C75.6086 100.503 75.6145 100.501 75.6206 100.5C75.6267 100.5 75.6328 100.5 75.6386 100.502Z" fill="white"/>
<path d="M124.127 101.5C124.132 101.5 124.137 101.5 124.141 101.502C124.145 101.504 124.148 101.506 124.151 101.509C124.153 101.512 124.154 101.516 124.154 101.519C124.154 101.523 124.153 101.527 124.15 101.53C123.485 102.317 122.637 102.966 121.606 103.475C120.98 103.784 120.775 103.925 120.135 104.093C119.42 104.279 118.814 104.414 118.316 104.498C118.292 104.502 118.266 104.501 118.243 104.494C118.22 104.488 118.199 104.476 118.184 104.461C118.168 104.446 118.158 104.428 118.155 104.408C118.152 104.389 118.156 104.369 118.166 104.351L118.636 103.536C118.646 103.52 118.66 103.506 118.677 103.495C119.34 103.075 119.727 102.843 119.836 102.8C120.352 102.594 120.874 102.379 121.404 102.154C122.313 101.767 123.172 101.558 124.127 101.5Z" fill="white"/>
<path d="M107.122 104.371C107.135 104.38 107.145 104.392 107.15 104.406C107.155 104.42 107.156 104.436 107.151 104.45C107.147 104.464 107.138 104.477 107.125 104.486C107.113 104.495 107.097 104.5 107.082 104.5C105.354 104.463 103.566 104.073 102.095 103.159C101.405 102.73 100.958 102.442 100.753 102.294C100.691 102.249 100.496 102.027 100.168 101.628C100.161 101.62 100.157 101.611 100.155 101.601C100.153 101.591 100.154 101.581 100.158 101.571C100.161 101.561 100.167 101.553 100.175 101.546C100.182 101.539 100.192 101.534 100.202 101.532C100.351 101.497 100.476 101.491 100.578 101.513C102.329 101.894 103.896 102.047 105.117 103.024C105.43 103.275 106.098 103.724 107.122 104.371Z" fill="white"/>
<path d="M112.624 102.529C112.629 102.52 112.635 102.513 112.642 102.508C112.649 102.503 112.657 102.5 112.665 102.5C112.673 102.5 112.682 102.502 112.689 102.507C112.696 102.511 112.702 102.518 112.707 102.526L115.124 106.933C115.145 106.972 115.156 107.017 115.154 107.063C115.153 107.109 115.139 107.154 115.115 107.19C114.241 108.517 113.576 110.186 112.68 111.483C112.676 111.489 112.672 111.493 112.666 111.496C112.661 111.499 112.655 111.5 112.649 111.5C112.643 111.5 112.638 111.498 112.633 111.494C112.628 111.491 112.623 111.486 112.62 111.48C112.33 110.985 112.008 110.443 111.655 109.854C111.025 108.806 110.683 108.042 110.166 106.963C110.157 106.943 110.153 106.921 110.155 106.898C110.156 106.875 110.164 106.853 110.176 106.835C111.079 105.475 111.895 104.04 112.624 102.529Z" fill="white"/>
<path d="M129.115 106.795C128.061 107.133 127.122 107.333 126.298 107.393C124.452 107.526 122.872 107.535 121.559 107.42C120.927 107.365 119.563 107.206 119.178 106.719C119.167 106.705 119.159 106.688 119.156 106.67C119.153 106.653 119.154 106.634 119.16 106.617C119.166 106.6 119.176 106.585 119.189 106.572C119.203 106.559 119.219 106.549 119.238 106.543C119.697 106.394 120.447 106.155 121.487 105.826C122.114 105.628 122.691 105.521 123.218 105.507C125.059 105.454 126.837 105.715 128.553 106.288C128.797 106.37 128.994 106.512 129.144 106.713C129.149 106.72 129.153 106.728 129.154 106.736C129.155 106.744 129.154 106.753 129.151 106.761C129.148 106.768 129.144 106.776 129.137 106.782C129.131 106.788 129.123 106.792 129.115 106.795Z" fill="white"/>
<path d="M106.12 107.391C105.424 107.613 104.518 107.882 103.402 108.196C102.984 108.312 102.497 108.394 101.941 108.44C100.363 108.573 98.6679 108.484 96.8569 108.174C96.5784 108.126 96.3542 108.07 96.1842 108.004C96.1763 108.001 96.1694 107.996 96.1642 107.99C96.159 107.983 96.1557 107.976 96.1546 107.968C96.1536 107.96 96.1549 107.952 96.1583 107.944C96.1617 107.937 96.1672 107.931 96.1742 107.926C96.3374 107.816 96.4646 107.748 96.5559 107.723C96.9035 107.626 97.3101 107.492 97.7758 107.321C98.7091 106.979 99.7952 106.655 100.818 106.533C101.486 106.452 102.216 106.545 102.857 106.552C103.817 106.562 104.707 106.745 105.582 106.985C105.709 107.02 105.894 107.128 106.135 107.309C106.143 107.314 106.148 107.321 106.151 107.329C106.154 107.337 106.155 107.345 106.153 107.354C106.152 107.362 106.148 107.37 106.142 107.377C106.136 107.383 106.128 107.388 106.12 107.391Z" fill="white"/>
<path d="M74.1763 106.523C74.1766 106.519 74.1776 106.515 74.1795 106.512C74.1814 106.509 74.184 106.506 74.1872 106.504C74.1903 106.502 74.194 106.501 74.1978 106.5C74.2017 106.5 74.2056 106.5 74.2094 106.501C75.715 106.936 77.0618 107.403 78.2496 107.902C79.2982 108.339 80.2117 108.559 81.1267 108.75C81.1331 108.751 81.139 108.754 81.1437 108.759C81.1484 108.763 81.1517 108.769 81.1533 108.775C81.1548 108.782 81.1546 108.788 81.1526 108.795C81.1506 108.801 81.1469 108.806 81.1419 108.811C79.1319 110.427 77.3011 111.854 75.6494 113.091C75.4013 113.278 75.1455 113.413 74.8819 113.497C74.8731 113.5 74.8638 113.501 74.8547 113.499C74.8456 113.498 74.8368 113.495 74.829 113.491C74.8212 113.486 74.8145 113.479 74.8093 113.472C74.8042 113.464 74.8007 113.456 74.7992 113.447C74.4372 111.49 74.2241 109.519 74.1598 107.533C74.1488 107.182 74.1543 106.845 74.1763 106.523Z" fill="white"/>
<path d="M125.147 111.426C125.151 111.431 125.153 111.436 125.154 111.442C125.155 111.447 125.154 111.453 125.152 111.458C125.15 111.464 125.146 111.468 125.141 111.472C125.137 111.475 125.131 111.478 125.125 111.478C123.119 111.626 121.178 111.01 119.516 109.996C119.357 109.9 119.239 109.774 119.161 109.62C119.157 109.611 119.154 109.602 119.154 109.592C119.154 109.583 119.157 109.573 119.161 109.565C119.166 109.556 119.172 109.549 119.18 109.544C119.189 109.539 119.198 109.535 119.207 109.534C119.529 109.497 120.027 109.49 120.701 109.514C121.188 109.532 121.562 109.596 121.822 109.706C122.839 110.139 123.74 110.553 124.525 110.947C124.772 111.071 124.98 111.23 125.147 111.426Z" fill="white"/>
<path d="M100.176 112.455C100.171 112.455 100.167 112.452 100.163 112.449C100.16 112.445 100.157 112.44 100.156 112.434C100.154 112.429 100.154 112.423 100.155 112.417C100.156 112.412 100.159 112.407 100.162 112.403C100.767 111.71 101.586 110.955 102.392 110.57C102.885 110.334 103.368 110.004 103.915 109.819C104.494 109.624 105.079 109.517 105.67 109.5C105.827 109.496 105.969 109.525 106.096 109.589C106.111 109.597 106.125 109.609 106.135 109.625C106.145 109.641 106.151 109.66 106.154 109.68C106.156 109.7 106.153 109.72 106.147 109.739C106.141 109.757 106.13 109.773 106.117 109.785C106.094 109.806 105.64 110.191 104.756 110.938C104.167 111.434 103.694 111.768 103.334 111.942C102.344 112.419 101.291 112.59 100.176 112.455Z" fill="white"/>
<path d="M136.234 110.505C136.787 110.737 137.564 111.108 138.566 111.62C141.643 113.19 143.613 114.182 144.476 114.596C145.678 115.172 146.737 115.878 147.744 116.491C147.753 116.496 147.762 116.501 147.771 116.505L149.114 117.119C149.123 117.123 149.13 117.129 149.137 117.136C149.143 117.143 149.148 117.151 149.151 117.16C149.154 117.169 149.155 117.178 149.154 117.187C149.153 117.197 149.15 117.206 149.145 117.214L147.874 119.416C147.863 119.435 147.848 119.451 147.831 119.465C147.813 119.478 147.793 119.488 147.772 119.494C147.751 119.5 147.728 119.501 147.706 119.499C147.684 119.496 147.663 119.49 147.643 119.479L136.355 113.378C136.294 113.345 136.243 113.297 136.208 113.239C136.173 113.181 136.154 113.115 136.154 113.048V110.555C136.154 110.546 136.157 110.537 136.161 110.529C136.165 110.521 136.172 110.514 136.18 110.509C136.188 110.504 136.197 110.501 136.206 110.5C136.216 110.499 136.225 110.501 136.234 110.505Z" fill="white"/>
<path d="M107.072 111.503C107.084 111.499 107.097 111.499 107.108 111.503C107.12 111.507 107.131 111.514 107.139 111.525C107.147 111.536 107.152 111.549 107.154 111.563C107.155 111.577 107.153 111.592 107.148 111.604C106.851 112.298 106.652 112.755 106.551 112.975C105.806 114.607 104.687 115.78 103.195 116.497C103.19 116.5 103.184 116.501 103.178 116.499C103.172 116.498 103.166 116.495 103.162 116.49C103.158 116.485 103.155 116.478 103.155 116.472C103.154 116.465 103.155 116.458 103.158 116.452C103.78 115.103 104.321 113.863 105.331 112.793C105.916 112.175 106.419 111.727 107.072 111.503Z" fill="white"/>
<path d="M120.522 114.12C121.191 114.787 121.732 115.544 122.146 116.392C122.153 116.406 122.156 116.423 122.153 116.439C122.151 116.454 122.143 116.469 122.131 116.48C122.12 116.491 122.105 116.498 122.089 116.5C122.074 116.501 122.058 116.498 122.044 116.49C121.598 116.227 120.93 115.828 120.042 115.291C119.935 115.226 119.814 115.126 119.68 114.991C119.545 114.857 119.445 114.736 119.379 114.628C118.836 113.734 118.432 113.063 118.166 112.614C118.157 112.6 118.153 112.584 118.155 112.568C118.156 112.552 118.162 112.537 118.173 112.525C118.183 112.513 118.198 112.504 118.213 112.501C118.229 112.498 118.245 112.5 118.259 112.507C119.1 112.914 119.854 113.451 120.522 114.12Z" fill="white"/>
<path d="M117.998 119.485C116.384 117.936 115.073 115.683 115.158 113.536C115.159 113.529 115.161 113.522 115.166 113.516C115.17 113.51 115.176 113.506 115.184 113.503C115.191 113.5 115.199 113.499 115.207 113.501C115.214 113.502 115.221 113.505 115.227 113.51C116.074 114.204 116.589 114.909 117.443 115.938C117.983 116.588 118.091 117.652 118.147 118.609C118.166 118.946 118.146 119.231 118.086 119.464C118.085 119.472 118.08 119.48 118.074 119.486C118.068 119.492 118.059 119.496 118.05 119.498C118.041 119.501 118.032 119.501 118.022 119.498C118.013 119.496 118.005 119.492 117.998 119.485Z" fill="white"/>
<path d="M107.184 119.441C107.159 119.375 107.15 119.268 107.156 119.121C107.234 116.874 108.171 115.004 109.966 113.512C109.972 113.506 109.98 113.503 109.989 113.501C109.998 113.499 110.007 113.5 110.015 113.502C110.024 113.505 110.032 113.509 110.038 113.515C110.044 113.521 110.049 113.529 110.051 113.537C110.311 114.493 110.039 115.412 109.689 116.428C109.515 116.929 109.264 117.383 108.841 117.819C108.46 118.209 107.962 118.759 107.345 119.468C107.334 119.48 107.321 119.489 107.305 119.494C107.289 119.5 107.272 119.501 107.255 119.499C107.239 119.496 107.223 119.489 107.211 119.479C107.198 119.469 107.189 119.456 107.184 119.441Z" fill="white"/>
<path d="M89.4035 113.543L90.1506 116.152C90.1548 116.167 90.1554 116.183 90.1524 116.199C90.1493 116.214 90.1426 116.229 90.1329 116.242C89.7166 116.76 89.2649 117.282 88.7777 117.807C86.4337 120.333 84.1128 122.729 81.8151 124.993C81.3733 125.426 80.9193 126.033 80.4735 126.455C80.4556 126.472 80.4341 126.485 80.4107 126.492C80.3872 126.5 80.3624 126.502 80.3381 126.498C80.3138 126.494 80.2907 126.485 80.2705 126.471C80.2502 126.457 80.2334 126.438 80.2213 126.416L79.196 124.603C79.161 124.541 79.1474 124.468 79.1576 124.397C79.1677 124.326 79.2009 124.261 79.2519 124.211C80.4999 122.992 82.0109 121.457 83.7851 119.605C84.2396 119.13 84.6999 118.647 85.1662 118.157C86.7204 116.519 87.7593 115.398 88.2828 114.793C88.371 114.69 88.71 114.267 89.2999 113.522C89.3068 113.514 89.3158 113.507 89.326 113.504C89.3362 113.5 89.3472 113.499 89.3578 113.501C89.3684 113.503 89.3783 113.508 89.3863 113.516C89.3944 113.523 89.4003 113.533 89.4035 113.543Z" fill="white"/>
<path d="M112.138 113.542C112.14 113.532 112.145 113.522 112.152 113.515C112.158 113.508 112.166 113.503 112.175 113.501C112.183 113.499 112.192 113.5 112.201 113.504C112.209 113.507 112.216 113.513 112.222 113.522C113.002 114.668 113.205 116.65 113.144 118.101C113.067 119.927 112.782 121.706 112.29 123.44C112.285 123.457 112.276 123.471 112.265 123.482C112.253 123.492 112.24 123.498 112.225 123.5C112.211 123.501 112.197 123.497 112.184 123.489C112.171 123.48 112.161 123.468 112.154 123.452C111.861 122.751 111.651 122.015 111.523 121.244C111.311 119.973 111.19 119 111.158 118.328C111.125 117.623 111.313 116.54 111.55 115.785C111.641 115.497 111.837 114.749 112.138 113.542Z" fill="white"/>
<path d="M145.125 123.42C145.136 123.429 145.145 123.44 145.15 123.453C145.155 123.466 145.156 123.48 145.152 123.494C145.149 123.507 145.141 123.519 145.131 123.528C145.12 123.537 145.107 123.543 145.093 123.545C142.035 123.961 138.976 124.28 135.915 124.5C135.903 124.501 135.892 124.499 135.881 124.495C135.87 124.492 135.86 124.486 135.851 124.479C135.842 124.471 135.835 124.462 135.83 124.452C135.825 124.442 135.822 124.431 135.821 124.42C135.721 122.597 135.503 120.233 135.167 117.33C135.141 117.095 135.155 116.83 135.21 116.536C135.212 116.529 135.215 116.522 135.22 116.516C135.225 116.511 135.231 116.506 135.238 116.503C135.245 116.5 135.253 116.499 135.26 116.5C135.268 116.501 135.275 116.504 135.281 116.508L145.125 123.42Z" fill="white"/>
<path d="M91.1541 119.545L90.0969 127.503C90.0927 127.535 90.0788 127.564 90.057 127.588C90.0351 127.611 90.0063 127.628 89.9744 127.636L82.2419 129.498C82.2282 129.501 82.2138 129.5 82.2006 129.496C82.1874 129.491 82.176 129.483 82.1677 129.472C82.1595 129.461 82.1548 129.448 82.1543 129.434C82.1539 129.42 82.1576 129.407 82.165 129.396C82.2894 129.207 82.4395 129.015 82.6152 128.819C84.9956 126.153 87.8172 123.052 91.08 119.513C91.0861 119.507 91.094 119.503 91.1028 119.501C91.1115 119.499 91.1207 119.5 91.1288 119.504C91.137 119.507 91.1439 119.513 91.1484 119.52C91.1529 119.528 91.1549 119.536 91.1541 119.545Z" fill="white"/>
<path d="M132.828 120.512C132.834 120.506 132.841 120.502 132.85 120.501C132.858 120.499 132.866 120.5 132.874 120.504C132.881 120.507 132.888 120.513 132.892 120.52C132.897 120.527 132.899 120.536 132.9 120.544L133.154 125.791C133.157 125.848 133.139 125.903 133.105 125.947C133.07 125.99 133.021 126.017 132.967 126.023C130.488 126.287 128.629 126.446 127.391 126.5C127.327 126.503 127.266 126.49 127.209 126.461C127.194 126.454 127.181 126.442 127.171 126.427C127.162 126.412 127.156 126.395 127.155 126.378C127.153 126.36 127.156 126.342 127.163 126.326C127.17 126.31 127.181 126.296 127.195 126.286C128.271 125.485 129.066 124.943 129.962 124.016C130.914 123.032 131.63 122.022 132.416 120.961C132.523 120.816 132.66 120.666 132.828 120.512Z" fill="white"/>
<path d="M92.2161 121.516C92.3433 121.7 92.4118 121.881 92.5642 122.059C93.9252 123.66 94.9832 124.901 95.7382 125.783C96.2206 126.348 96.6694 126.747 97.1364 127.221C97.1444 127.228 97.15 127.238 97.1526 127.249C97.1552 127.26 97.1548 127.272 97.1513 127.283C97.1478 127.294 97.1413 127.304 97.1328 127.311C97.1242 127.318 97.1138 127.323 97.1029 127.325C95.6254 127.518 94.1149 127.552 92.5712 127.424C92.5356 127.421 92.5022 127.405 92.4772 127.378C92.4523 127.351 92.4375 127.315 92.4356 127.278L92.1546 121.54C92.1536 121.532 92.1552 121.524 92.1592 121.517C92.1632 121.51 92.1692 121.505 92.1764 121.502C92.1835 121.499 92.1914 121.499 92.1986 121.502C92.2058 121.504 92.212 121.509 92.2161 121.516Z" fill="white"/>
<path d="M135.468 136.463C135.438 136.411 135.421 136.353 135.42 136.293L135.154 128.489C135.154 128.473 135.16 128.457 135.171 128.445C135.182 128.432 135.197 128.425 135.213 128.423L144.078 127.5C144.091 127.499 144.103 127.501 144.114 127.506C144.125 127.511 144.135 127.519 144.142 127.529C144.149 127.538 144.153 127.55 144.154 127.561C144.155 127.573 144.153 127.585 144.147 127.595C144.043 127.803 143.697 128.356 143.109 129.256C142.806 129.72 142.416 130.225 141.94 130.77C140.654 132.244 140.219 132.824 139.308 133.566C138.98 133.833 137.762 134.791 135.656 136.439C135.564 136.511 135.501 136.519 135.468 136.463Z" fill="white"/>
<path d="M124.215 129.5H131.932C131.957 129.5 131.981 129.509 132.001 129.525C132.02 129.541 132.034 129.563 132.04 129.588C132.112 129.904 132.168 130.217 132.207 130.528C132.42 132.247 132.652 134.315 132.902 136.732C132.959 137.276 133.153 137.827 133.154 138.356C133.154 138.375 133.151 138.394 133.144 138.412C133.137 138.429 133.126 138.445 133.114 138.459C133.101 138.472 133.085 138.483 133.069 138.49C133.052 138.497 133.034 138.5 133.016 138.5C132.917 138.498 132.82 138.484 132.724 138.459C132.685 138.448 132.618 138.394 132.524 138.297C129.002 134.681 126.789 132.418 125.888 131.505C125.138 130.748 124.565 130.114 124.168 129.606C124.161 129.596 124.156 129.585 124.155 129.573C124.153 129.561 124.155 129.548 124.16 129.537C124.165 129.526 124.173 129.517 124.182 129.51C124.192 129.504 124.203 129.5 124.215 129.5Z" fill="white"/>
<path d="M93.2267 139.486C93.212 139.494 93.1955 139.499 93.1785 139.5C93.1615 139.501 93.1444 139.498 93.1287 139.492C93.1129 139.487 93.0989 139.477 93.0877 139.465C93.0765 139.454 93.0685 139.439 93.0642 139.424C92.9221 138.906 92.8265 138.378 92.7773 137.84C92.6179 136.073 92.4212 133.879 92.1871 131.257C92.1771 131.149 92.1662 130.92 92.1544 130.571C92.1533 130.539 92.1648 130.508 92.1865 130.484C92.2082 130.46 92.2386 130.445 92.2718 130.44L100.015 129.501C100.038 129.498 100.062 129.502 100.083 129.511C100.104 129.521 100.122 129.535 100.135 129.554C100.148 129.573 100.154 129.594 100.154 129.616C100.154 129.638 100.148 129.66 100.135 129.679C99.3873 130.774 97.4907 133.574 94.4453 138.079C94.0518 138.661 93.7226 139.208 93.2267 139.486Z" fill="white"/>
<path d="M105.139 130.542C104.645 131.316 104.17 132.127 103.715 132.975C102.116 135.952 100.996 138.058 100.356 139.295C99.9926 140.002 99.7314 140.779 99.2999 141.436C99.2095 141.575 99.03 141.911 98.7616 142.445C98.7557 142.456 98.7476 142.467 98.7376 142.475C98.7276 142.484 98.716 142.491 98.7033 142.495C98.6907 142.499 98.6774 142.501 98.6641 142.5C98.6508 142.499 98.6378 142.496 98.6259 142.49L97.5478 141.963C97.5239 141.951 97.502 141.936 97.4829 141.919C97.1731 141.649 96.7449 141.375 96.1984 141.097C96.188 141.092 96.1789 141.085 96.1717 141.076C96.1645 141.067 96.1593 141.057 96.1566 141.046C96.1538 141.035 96.1536 141.024 96.1558 141.013C96.158 141.002 96.1627 140.991 96.1695 140.982C96.743 140.218 97.7393 138.821 99.1585 136.793C99.4875 136.322 99.768 135.86 99.9999 135.405C100.286 134.842 100.543 134.366 100.773 133.977C101.619 132.549 102.496 131.07 103.403 129.54C103.408 129.531 103.415 129.523 103.424 129.517C103.432 129.51 103.442 129.506 103.452 129.503C103.463 129.5 103.473 129.499 103.484 129.501C103.495 129.502 103.505 129.505 103.514 129.511L105.103 130.404C105.115 130.411 105.125 130.42 105.134 130.431C105.142 130.441 105.148 130.453 105.151 130.466C105.155 130.479 105.155 130.492 105.153 130.505C105.151 130.518 105.146 130.531 105.139 130.542Z" fill="white"/>
<path d="M129.128 140.515C129.005 140.618 128.918 140.68 128.866 140.7C128.319 140.914 127.765 141.175 127.205 141.481C127.187 141.491 127.168 141.497 127.148 141.499C127.128 141.501 127.108 141.499 127.089 141.494C127.069 141.488 127.051 141.478 127.036 141.466C127.02 141.453 127.007 141.437 126.998 141.419C126.62 140.72 126.137 140.052 125.551 139.412C125.498 139.355 125.325 139.159 125.032 138.824C122.425 135.846 120.136 133.246 118.163 131.024C118.159 131.019 118.156 131.014 118.155 131.008C118.154 131.003 118.154 130.997 118.156 130.991C118.157 130.986 118.16 130.981 118.164 130.977C118.168 130.973 118.173 130.97 118.179 130.968L120.008 130.503C120.024 130.499 120.041 130.499 120.056 130.504C120.072 130.508 120.086 130.517 120.097 130.529C122.674 133.266 125.457 136.286 128.449 139.586C128.684 139.846 128.914 140.123 129.139 140.416C129.151 140.43 129.156 140.449 129.154 140.468C129.152 140.486 129.143 140.504 129.128 140.515Z" fill="white"/>
<path d="M90.0222 138.471C90.019 138.478 90.014 138.484 90.0077 138.489C90.0014 138.494 89.9939 138.497 89.9859 138.499C89.9779 138.501 89.9695 138.5 89.9616 138.498C89.9536 138.496 89.9463 138.493 89.9402 138.488C88.6997 137.487 87.3685 136.357 85.9467 135.097C84.932 134.198 84.0044 133.251 83.1638 132.256C83.1592 132.25 83.1562 132.243 83.1549 132.236C83.1537 132.229 83.1543 132.222 83.1567 132.216C83.1591 132.209 83.1633 132.203 83.1688 132.198C83.1743 132.194 83.1809 132.191 83.1881 132.189C83.6651 132.088 84.1446 132.012 84.6267 131.962C86.7796 131.737 88.4895 131.583 89.7564 131.5C89.8063 131.497 89.8555 131.512 89.8933 131.543C89.9312 131.573 89.9546 131.616 89.9584 131.662C90.1002 133.232 90.165 135.271 90.1529 137.781C90.1518 138.053 90.1083 138.283 90.0222 138.471Z" fill="white"/>
<path d="M123.143 143.133C123.148 143.138 123.151 143.144 123.153 143.151C123.155 143.158 123.155 143.165 123.153 143.172C123.152 143.178 123.148 143.184 123.144 143.19C123.139 143.195 123.134 143.199 123.127 143.201C122.191 143.552 121.246 143.815 120.293 143.99C120.273 143.994 120.253 143.991 120.235 143.983C120.217 143.975 120.201 143.962 120.19 143.945C119.938 143.563 119.771 143.32 119.689 143.216C118.216 141.353 116.778 139.493 115.373 137.637C115.184 137.386 114.956 137.117 114.692 136.83C113.314 135.338 112.041 133.988 110.872 132.778C110.866 132.772 110.859 132.767 110.851 132.763C110.843 132.76 110.834 132.758 110.825 132.758C110.816 132.758 110.808 132.76 110.799 132.764C110.791 132.768 110.784 132.773 110.778 132.779C110.389 133.204 110.077 133.652 109.842 134.124C107.531 138.758 105.826 142.2 104.727 144.45C104.718 144.469 104.703 144.484 104.684 144.492C104.665 144.501 104.644 144.502 104.624 144.497C103.779 144.244 103.022 144.091 102.186 143.652C102.173 143.645 102.164 143.635 102.158 143.622C102.153 143.609 102.153 143.595 102.157 143.583C102.441 142.704 102.872 141.933 103.451 141.27C103.497 141.217 103.537 141.158 103.569 141.094L108.345 131.636C108.367 131.593 108.4 131.558 108.441 131.533C108.482 131.509 108.529 131.498 108.576 131.5L112.348 131.666C112.375 131.667 112.401 131.677 112.422 131.694C113.637 132.717 114.536 133.571 115.118 134.254C116.301 135.638 117.061 136.515 117.398 136.884C119.84 139.558 121.755 141.641 123.143 143.133Z" fill="white"/>
<path d="M110.948 137.526C111.783 138.522 112.671 139.465 113.612 140.354C115.086 141.746 116.096 142.99 117.129 144.457C117.141 144.474 117.149 144.493 117.152 144.514C117.156 144.534 117.155 144.555 117.149 144.575C117.143 144.595 117.133 144.613 117.119 144.629C117.105 144.644 117.088 144.657 117.069 144.665C116.945 144.719 116.835 144.755 116.738 144.774C115.669 144.988 114.998 145.126 114.723 145.186C113.223 145.516 111.861 145.509 110.246 145.495C109.45 145.486 108.801 145.37 108.069 145.3C107.76 145.27 107.488 145.154 107.194 145.083C107.186 145.081 107.179 145.078 107.173 145.073C107.167 145.068 107.162 145.062 107.159 145.055C107.156 145.048 107.154 145.04 107.154 145.033C107.154 145.025 107.156 145.017 107.16 145.011C108.198 142.856 109.125 140.899 109.94 139.139C110.222 138.533 110.52 137.997 110.834 137.531C110.84 137.522 110.849 137.515 110.858 137.509C110.868 137.504 110.879 137.501 110.89 137.5C110.901 137.5 110.912 137.502 110.922 137.506C110.932 137.51 110.941 137.517 110.948 137.526Z" fill="white"/>
<path d="M211.384 -0.321818V0.848182L188.284 51.2182C187.031 49.9248 185.221 49.3349 182.854 49.4482C173.061 49.9082 162.708 50.2182 151.794 50.3782C145.674 50.4649 135.904 50.4115 122.484 50.2182C112.878 50.0782 103.101 50.0182 93.1543 50.0382C105.094 37.2182 116.751 24.8349 128.124 12.8882C131.091 9.77485 135.704 6.81151 141.964 3.99818C148.411 1.10485 156.218 -0.375152 165.384 -0.441818C180.718 -0.548485 196.051 -0.508484 211.384 -0.321818ZM181.25 5.04948C181.245 4.78697 181.136 4.53722 180.947 4.35516C180.758 4.1731 180.504 4.07365 180.242 4.07868L180.182 4.07988C179.919 4.08493 179.669 4.19404 179.487 4.38323C179.305 4.57241 179.206 4.82617 179.211 5.08868L179.398 14.8469C179.403 15.1094 179.512 15.3591 179.702 15.5412C179.891 15.7233 180.144 15.8227 180.407 15.8177L180.467 15.8165C180.73 15.8114 180.979 15.7023 181.161 15.5131C181.343 15.324 181.443 15.0702 181.438 14.8077L181.25 5.04948ZM203.394 14.8782C203.442 14.967 203.513 15.0411 203.6 15.0921C203.687 15.1432 203.786 15.1692 203.886 15.1671C203.986 15.165 204.083 15.135 204.166 15.0804C204.248 15.0258 204.314 14.9488 204.354 14.8582L208.954 4.80818C209.006 4.6921 209.027 4.56428 209.013 4.43774C209 4.31121 208.953 4.19047 208.878 4.08783C208.803 3.98519 208.702 3.90432 208.585 3.85344C208.469 3.80256 208.341 3.78349 208.214 3.79818L198.894 4.86818C198.826 4.87616 198.76 4.90082 198.704 4.94009C198.647 4.97937 198.6 5.03211 198.568 5.09386C198.536 5.15562 198.518 5.22458 198.518 5.29494C198.517 5.36531 198.533 5.43501 198.564 5.49818L203.394 14.8782ZM160.484 4.50818C156.784 3.78152 153.174 4.03152 149.654 5.25818C149.516 5.30605 149.402 5.40608 149.337 5.53689C149.271 5.6677 149.26 5.81891 149.304 5.95818C150.578 9.69152 152.448 12.9748 154.914 15.8082C154.974 15.8769 155.05 15.9297 155.135 15.9619C155.22 15.9942 155.311 16.0048 155.402 15.993C155.492 15.9811 155.578 15.947 155.651 15.8938C155.725 15.8406 155.785 15.77 155.824 15.6882L160.914 5.36818C160.954 5.28449 160.974 5.19282 160.973 5.10014C160.973 5.00745 160.951 4.91619 160.909 4.83329C160.868 4.75039 160.808 4.67803 160.734 4.6217C160.661 4.56536 160.575 4.52654 160.484 4.50818ZM175.867 4.22958C175.51 4.23714 175.181 4.9322 174.953 6.16185C174.726 7.3915 174.618 9.05503 174.655 10.7865C174.673 11.6438 174.725 12.4921 174.81 13.2828C174.894 14.0734 175.009 14.7911 175.147 15.3947C175.285 15.9983 175.444 16.4761 175.614 16.8007C175.785 17.1254 175.964 17.2905 176.141 17.2868C176.499 17.2792 176.828 16.5842 177.055 15.3545C177.283 14.1249 177.39 12.4613 177.354 10.7299C177.336 9.87252 177.283 9.02429 177.199 8.23361C177.114 7.44294 177 6.7253 176.862 6.12169C176.724 5.51808 176.565 5.04031 176.394 4.71566C176.224 4.39101 176.045 4.22584 175.867 4.22958ZM184.454 22.2882H189.964C190.02 22.2882 190.073 22.3103 190.113 22.3497C190.152 22.3891 190.174 22.4425 190.174 22.4982V29.8482C190.174 29.8827 190.161 29.9157 190.136 29.9401C190.112 29.9645 190.079 29.9782 190.044 29.9782H184.474C184.403 29.9792 184.334 30.0032 184.277 30.0467C184.221 30.0903 184.18 30.1509 184.161 30.2196C184.142 30.2882 184.145 30.3613 184.171 30.4277C184.197 30.4942 184.244 30.5505 184.304 30.5882L189.464 33.5682C189.659 33.6806 189.821 33.8425 189.933 34.0373C190.046 34.2322 190.105 34.4532 190.104 34.6782V44.5382C190.1 44.6196 190.126 44.6998 190.176 44.764C190.227 44.8282 190.298 44.8722 190.378 44.888C190.458 44.9037 190.541 44.8902 190.612 44.8498C190.683 44.8095 190.737 44.745 190.764 44.6682L195.204 33.8982C195.271 33.7452 195.351 33.6012 195.444 33.4682L197.134 31.0082C197.197 30.9177 197.233 30.8119 197.239 30.7022C197.245 30.5926 197.221 30.4833 197.17 30.3864C197.118 30.2894 197.041 30.2085 196.947 30.1524C196.852 30.0963 196.744 30.0671 196.634 30.0682H195.264C195.108 30.0682 194.958 30.005 194.847 29.8924C194.736 29.7799 194.674 29.6273 194.674 29.4682V22.7982C194.674 22.6629 194.727 22.5332 194.821 22.4376C194.915 22.3419 195.042 22.2882 195.174 22.2882H198.474C198.539 22.289 198.602 22.2698 198.654 22.2332C198.707 22.1966 198.747 22.1446 198.769 22.0841C198.791 22.0237 198.794 21.958 198.777 21.896C198.76 21.834 198.724 21.7789 198.674 21.7382L195.194 18.8982C195.035 18.7701 194.907 18.6085 194.819 18.4251C194.731 18.2416 194.685 18.0411 194.684 17.8382V5.64818C194.684 5.27953 194.537 4.92598 194.274 4.6653C194.012 4.40463 193.656 4.25818 193.284 4.25818H192.554C191.926 4.25818 191.323 4.50682 190.878 4.94941C190.434 5.392 190.184 5.99227 190.184 6.61818V16.7882C190.184 17.2229 190.07 17.6495 189.854 18.0252C189.639 18.4008 189.328 18.7122 188.954 18.9282L184.284 21.6282C184.214 21.6648 184.159 21.724 184.127 21.7961C184.095 21.8683 184.088 21.9491 184.108 22.0256C184.127 22.102 184.172 22.1696 184.235 22.2172C184.298 22.2649 184.375 22.2899 184.454 22.2882ZM185.468 5.34518C185.462 5.09065 185.355 4.84902 185.17 4.67343C184.986 4.49784 184.739 4.40268 184.485 4.40888L184.405 4.41088C184.279 4.41396 184.155 4.44183 184.039 4.4929C183.924 4.54398 183.82 4.61726 183.733 4.70856C183.646 4.79986 183.578 4.90739 183.533 5.02501C183.487 5.14263 183.465 5.26804 183.468 5.39408L183.701 14.8912C183.707 15.1457 183.814 15.3873 183.998 15.5629C184.183 15.7385 184.429 15.8337 184.684 15.8275L184.764 15.8255C184.89 15.8224 185.014 15.7945 185.129 15.7435C185.245 15.6924 185.349 15.6191 185.436 15.5278C185.523 15.4365 185.591 15.329 185.636 15.2114C185.681 15.0937 185.703 14.9683 185.7 14.8423L185.468 5.34518ZM136.124 22.4182C136.078 22.4487 136.044 22.493 136.026 22.5447C136.008 22.5963 136.007 22.6527 136.024 22.7059C136.04 22.7591 136.073 22.8063 136.118 22.8408C136.163 22.8753 136.218 22.8954 136.274 22.8982C137.288 22.9715 138.238 22.9215 139.124 22.7482C139.264 22.7218 139.408 22.7265 139.546 22.7619C139.684 22.7974 139.812 22.8628 139.922 22.9535C140.032 23.0442 140.12 23.1579 140.181 23.2866C140.242 23.4153 140.274 23.5558 140.274 23.6982L140.284 29.8382C140.284 30.0503 140.199 30.2538 140.047 30.4039C139.895 30.5539 139.689 30.6382 139.474 30.6382H136.454C136.388 30.6359 136.322 30.6548 136.266 30.6921C136.211 30.7294 136.168 30.7831 136.146 30.845C136.123 30.9069 136.122 30.9739 136.141 31.0357C136.161 31.0976 136.2 31.1511 136.254 31.1882L139.754 33.9882C139.917 34.1231 140.048 34.2917 140.138 34.4818C140.228 34.672 140.274 34.879 140.274 35.0882L140.284 44.8482C140.286 45.3022 140.407 45.7474 140.635 46.139C140.864 46.5306 141.191 46.8545 141.584 47.0782L142.864 47.8182C143.063 47.9342 143.289 47.9958 143.52 47.9966C143.75 47.9974 143.976 47.9375 144.176 47.8229C144.376 47.7083 144.542 47.5431 144.657 47.3439C144.773 47.1447 144.834 46.9185 144.834 46.6882L144.824 35.7482C144.824 35.3713 144.924 35.0008 145.114 34.6742C145.303 34.3476 145.576 34.0765 145.904 33.8882L150.574 31.1782C150.632 31.1429 150.678 31.0894 150.703 31.0262C150.729 30.9629 150.734 30.8933 150.717 30.8283C150.7 30.7633 150.662 30.7064 150.609 30.6666C150.556 30.6268 150.491 30.6063 150.424 30.6082H145.774C145.512 30.6082 145.26 30.5039 145.074 30.3182C144.889 30.1326 144.784 29.8807 144.784 29.6182L144.774 23.8382C144.773 23.7139 144.796 23.5906 144.843 23.4754C144.89 23.3602 144.959 23.2554 145.046 23.167C145.133 23.0787 145.238 23.0085 145.352 22.9607C145.467 22.9128 145.59 22.8882 145.714 22.8882H150.414C150.503 22.8853 150.588 22.8541 150.657 22.799C150.726 22.744 150.775 22.6681 150.798 22.5827C150.82 22.4973 150.814 22.407 150.781 22.3251C150.748 22.2432 150.69 22.1741 150.614 22.1282L145.654 19.2682C145.396 19.1191 145.182 18.9038 145.033 18.6441C144.884 18.3844 144.805 18.0892 144.804 17.7882L144.784 7.51818C144.783 6.87748 144.557 6.25752 144.146 5.76607C143.735 5.27462 143.165 4.94276 142.534 4.82818L142.084 4.73818C141.862 4.69879 141.633 4.70824 141.415 4.76586C141.196 4.82348 140.993 4.92789 140.82 5.07176C140.647 5.21563 140.507 5.39547 140.411 5.59869C140.315 5.80192 140.265 6.02359 140.264 6.24818L140.274 18.0482C140.276 18.3532 140.209 18.6549 140.079 18.9316C139.95 19.2083 139.76 19.453 139.524 19.6482L136.124 22.4182ZM173.884 22.3782L170.484 19.6082C170.25 19.4141 170.061 19.171 169.931 18.8961C169.802 18.6213 169.734 18.3215 169.734 18.0182V6.22818C169.734 6.00259 169.683 5.7799 169.587 5.57584C169.491 5.37179 169.351 5.19136 169.178 5.04732C169.004 4.90327 168.801 4.79913 168.583 4.74226C168.364 4.68539 168.136 4.67716 167.914 4.71818L167.464 4.80818C166.833 4.923 166.261 5.25524 165.85 5.74689C165.439 6.23854 165.214 6.85837 165.214 7.49818V17.7582C165.215 18.0586 165.136 18.3535 164.987 18.6133C164.838 18.8732 164.623 19.0887 164.364 19.2382L159.414 22.0982C159.339 22.1441 159.28 22.2132 159.247 22.2951C159.214 22.377 159.209 22.4673 159.231 22.5527C159.253 22.6381 159.303 22.714 159.372 22.769C159.441 22.8241 159.526 22.8553 159.614 22.8582H164.304C164.554 22.8582 164.793 22.9572 164.969 23.1335C165.145 23.3098 165.244 23.5489 165.244 23.7982V29.5782C165.244 29.7082 165.219 29.8369 165.169 29.957C165.119 30.0772 165.046 30.1863 164.954 30.2782C164.862 30.3701 164.753 30.4431 164.633 30.4928C164.513 30.5426 164.384 30.5682 164.254 30.5682H159.614C159.548 30.5663 159.483 30.5868 159.43 30.6266C159.377 30.6664 159.339 30.7232 159.322 30.7883C159.305 30.8533 159.309 30.9229 159.335 30.9862C159.361 31.0494 159.406 31.1029 159.464 31.1382L164.134 33.8382C164.463 34.0265 164.735 34.2976 164.925 34.6242C165.115 34.9508 165.214 35.3213 165.214 35.6982V46.6182C165.215 46.8485 165.276 47.0747 165.391 47.2739C165.507 47.4731 165.673 47.6383 165.872 47.7529C166.072 47.8675 166.299 47.9274 166.529 47.9266C166.759 47.9257 166.985 47.8642 167.184 47.7482L168.464 47.0082C168.857 46.7829 169.182 46.458 169.409 46.0665C169.635 45.6749 169.755 45.2305 169.754 44.7782V35.0282C169.754 34.819 169.801 34.612 169.891 34.4218C169.981 34.2317 170.112 34.0631 170.274 33.9282L173.764 31.1282C173.814 31.0897 173.849 31.0368 173.866 30.9769C173.883 30.9169 173.88 30.8528 173.858 30.7935C173.836 30.7341 173.796 30.6825 173.744 30.6457C173.691 30.6089 173.628 30.5888 173.564 30.5882H170.554C170.339 30.5882 170.133 30.5039 169.982 30.3539C169.83 30.2038 169.744 30.0004 169.744 29.7882V23.6582C169.745 23.5158 169.777 23.3753 169.837 23.2466C169.898 23.1179 169.987 23.0042 170.097 22.9135C170.206 22.8228 170.335 22.7574 170.473 22.7219C170.61 22.6865 170.754 22.6818 170.894 22.7082C171.774 22.8815 172.721 22.9282 173.734 22.8482C173.788 22.843 173.839 22.8221 173.882 22.7882C173.924 22.7544 173.955 22.7091 173.972 22.6583C173.988 22.6076 173.988 22.5537 173.973 22.5037C173.957 22.4537 173.926 22.41 173.884 22.3782ZM123.774 31.4282H120.664C120.592 31.4282 120.521 31.414 120.454 31.3863C120.387 31.3587 120.326 31.3182 120.275 31.2671C120.224 31.216 120.184 31.1554 120.156 31.0887C120.129 31.0219 120.114 30.9504 120.114 30.8782V23.1482C120.115 23.0818 120.096 23.0167 120.059 22.9615C120.022 22.9063 119.969 22.8635 119.908 22.8386C119.846 22.8138 119.779 22.8081 119.714 22.8223C119.649 22.8365 119.59 22.8699 119.544 22.9182L116.134 26.5182C115.723 26.9615 115.495 27.5436 115.494 28.1482V30.8182C115.494 30.9452 115.449 31.0683 115.367 31.1667C115.285 31.2652 115.171 31.3328 115.044 31.3582C113.951 31.5582 112.864 31.5815 111.784 31.4282C111.601 31.3987 111.413 31.4348 111.254 31.5301C111.094 31.6254 110.974 31.7738 110.913 31.9492C110.852 32.1247 110.855 32.316 110.921 32.4895C110.987 32.6631 111.112 32.8077 111.274 32.8982L114.784 34.9282C114.991 35.0466 115.163 35.2181 115.283 35.4254C115.402 35.6326 115.465 35.8682 115.464 36.1082V47.3682C115.465 47.5752 115.515 47.7791 115.611 47.9627C115.707 48.1462 115.845 48.304 116.015 48.4226C116.185 48.5413 116.38 48.6174 116.586 48.6445C116.791 48.6715 117 48.6488 117.194 48.5782L118.694 48.0382C119.095 47.8924 119.442 47.6262 119.687 47.2756C119.932 46.925 120.064 46.5069 120.064 46.0782V35.9282C120.064 35.6816 120.119 35.4386 120.225 35.2171C120.33 34.9956 120.484 34.8011 120.674 34.6482L123.974 31.9982C124.026 31.9568 124.064 31.9003 124.082 31.8365C124.1 31.7727 124.098 31.7048 124.076 31.6422C124.055 31.5796 124.014 31.5254 123.96 31.487C123.905 31.4487 123.841 31.4281 123.774 31.4282ZM156.126 36.2528C156.124 36.1228 156.097 35.9945 156.045 35.8751C155.993 35.7558 155.919 35.6479 155.825 35.5574C155.732 35.4669 155.622 35.3957 155.501 35.3479C155.38 35.3 155.251 35.2764 155.121 35.2785L155.061 35.2794C154.798 35.2835 154.548 35.3918 154.365 35.5803C154.183 35.7689 154.082 36.0223 154.086 36.2848L154.242 46.2036C154.244 46.3336 154.272 46.4619 154.324 46.5812C154.375 46.7005 154.45 46.8085 154.543 46.899C154.637 46.9895 154.747 47.0607 154.868 47.1085C154.989 47.1564 155.118 47.1799 155.248 47.1779L155.308 47.177C155.57 47.1729 155.82 47.0646 156.003 46.8761C156.186 46.6875 156.286 46.4341 156.282 46.1716L156.126 36.2528ZM174.334 46.9282C178.034 47.6615 181.648 47.4215 185.174 46.2082C185.312 46.1603 185.426 46.0603 185.492 45.9295C185.557 45.7987 185.569 45.6475 185.524 45.5082C184.264 41.7682 182.404 38.4782 179.944 35.6382C179.885 35.5691 179.81 35.5157 179.726 35.4827C179.641 35.4497 179.55 35.4381 179.46 35.449C179.37 35.4599 179.284 35.4929 179.209 35.5451C179.135 35.5973 179.075 35.6671 179.034 35.7482L173.904 46.0582C173.863 46.1423 173.841 46.235 173.841 46.3289C173.841 46.4228 173.862 46.5155 173.904 46.5997C173.945 46.6839 174.006 46.7573 174.081 46.8143C174.155 46.8713 174.242 46.9103 174.334 46.9282ZM125.794 47.2782C129.468 48.0315 133.064 47.8149 136.584 46.6282C136.724 46.5798 136.839 46.479 136.905 46.3478C136.971 46.2166 136.981 46.0658 136.934 45.9282C135.708 42.2015 133.878 38.9182 131.444 36.0782C131.385 36.0113 131.311 35.9598 131.227 35.9281C131.144 35.8964 131.054 35.8855 130.965 35.8964C130.877 35.9072 130.792 35.9394 130.719 35.9903C130.645 36.0411 130.586 36.109 130.544 36.1882L125.374 46.4082C125.332 46.4926 125.31 46.5856 125.309 46.6799C125.308 46.7741 125.329 46.8671 125.369 46.9514C125.41 47.0358 125.47 47.1092 125.543 47.1659C125.617 47.2226 125.703 47.261 125.794 47.2782ZM150.763 35.5388C150.601 35.541 150.444 35.7131 150.299 36.0453C150.154 36.3776 150.025 36.8633 149.92 37.475C149.814 38.0866 149.734 38.8121 149.683 39.61C149.632 40.4079 149.612 41.2627 149.624 42.1254C149.649 43.8677 149.802 45.5368 150.049 46.7656C150.297 47.9944 150.62 48.6821 150.946 48.6776C151.108 48.6754 151.265 48.5032 151.41 48.171C151.554 47.8388 151.683 47.353 151.789 46.7414C151.895 46.1298 151.975 45.4043 152.026 44.6064C152.076 43.8084 152.096 42.9537 152.084 42.091C152.06 40.3487 151.907 38.6796 151.659 37.4508C151.411 36.222 151.089 35.5342 150.763 35.5388ZM160.388 37.0368C160.386 36.9147 160.361 36.794 160.313 36.6818C160.265 36.5695 160.195 36.4678 160.107 36.3825C160.02 36.2972 159.917 36.23 159.803 36.1846C159.69 36.1393 159.569 36.1167 159.446 36.1182L159.386 36.119C159.264 36.1205 159.144 36.146 159.031 36.1941C158.919 36.2422 158.818 36.312 158.732 36.3994C158.647 36.4868 158.58 36.5901 158.534 36.7035C158.489 36.8169 158.466 36.9382 158.468 37.0603L158.581 46.2996C158.582 46.4217 158.608 46.5423 158.656 46.6546C158.704 46.7669 158.774 46.8685 158.861 46.9538C158.949 47.0391 159.052 47.1064 159.165 47.1517C159.279 47.1971 159.4 47.2197 159.522 47.2182L159.582 47.2174C159.704 47.2159 159.825 47.1904 159.937 47.1423C160.049 47.0941 160.151 47.0244 160.236 46.937C160.322 46.8496 160.389 46.7462 160.434 46.6328C160.48 46.5194 160.502 46.3982 160.501 46.2761L160.388 37.0368ZM106.731 36.6184C106.571 36.6195 106.413 36.7817 106.267 37.0958C106.121 37.4099 105.99 37.8697 105.881 38.449C105.772 39.0283 105.687 39.7157 105.631 40.472C105.574 41.2282 105.549 42.0386 105.554 42.8567C105.56 43.6748 105.597 44.4847 105.664 45.2401C105.73 45.9955 105.825 46.6817 105.942 47.2594C106.06 47.8371 106.197 48.295 106.348 48.6071C106.498 48.9191 106.658 49.0791 106.818 49.078C106.978 49.0769 107.136 48.9146 107.281 48.6005C107.427 48.2864 107.558 47.8266 107.668 47.2473C107.777 46.6681 107.862 45.9807 107.918 45.2244C107.974 44.4681 108 43.6578 107.994 42.8397C107.989 42.0216 107.951 41.2117 107.885 40.4562C107.818 39.7008 107.724 39.0147 107.606 38.437C107.489 37.8593 107.351 37.4013 107.201 37.0893C107.051 36.7772 106.891 36.6172 106.731 36.6184ZM111.467 38.07C111.462 37.8154 111.357 37.5732 111.173 37.3967C110.99 37.2201 110.744 37.1237 110.489 37.1286L110.429 37.1298C110.175 37.1347 109.932 37.2405 109.756 37.4239C109.579 37.6074 109.483 37.8534 109.488 38.108L109.661 47.1464C109.666 47.4009 109.772 47.6431 109.955 47.8197C110.139 47.9962 110.385 48.0927 110.639 48.0878L110.699 48.0866C110.954 48.0817 111.196 47.9759 111.373 47.7924C111.549 47.609 111.646 47.3629 111.641 47.1084L111.467 38.07Z" fill="black"/>
<path d="M180.239 4.07848L180.179 4.07963C179.633 4.09012 179.198 4.54179 179.208 5.08845L179.396 14.8467C179.406 15.3933 179.858 15.828 180.405 15.8175L180.465 15.8163C181.011 15.8058 181.446 15.3541 181.435 14.8075L181.248 5.04929C181.238 4.50263 180.786 4.06798 180.239 4.07848Z" fill="white"/>
<path d="M203.394 14.8788L198.564 5.49876C198.533 5.43559 198.517 5.36589 198.518 5.29552C198.518 5.22516 198.535 5.15619 198.568 5.09444C198.6 5.03268 198.647 4.97995 198.703 4.94067C198.76 4.9014 198.826 4.87673 198.894 4.86876L208.214 3.79876C208.341 3.78407 208.469 3.80314 208.585 3.85402C208.702 3.9049 208.803 3.98577 208.878 4.08841C208.953 4.19105 209 4.31178 209.013 4.43832C209.027 4.56486 209.006 4.69267 208.954 4.80876L204.354 14.8588C204.314 14.9494 204.248 15.0263 204.166 15.0809C204.083 15.1355 203.986 15.1656 203.886 15.1677C203.786 15.1697 203.687 15.1438 203.6 15.0927C203.513 15.0416 203.442 14.9675 203.394 14.8788Z" fill="white"/>
<path d="M160.482 4.50803C160.573 4.52639 160.658 4.56521 160.732 4.62155C160.806 4.67788 160.865 4.75024 160.907 4.83315C160.948 4.91605 160.97 5.00731 160.971 5.09999C160.972 5.19267 160.952 5.28434 160.912 5.36803L155.822 15.688C155.782 15.7698 155.723 15.8405 155.649 15.8937C155.575 15.9468 155.49 15.9809 155.399 15.9928C155.309 16.0047 155.217 15.994 155.132 15.9618C155.047 15.9296 154.972 15.8767 154.912 15.808C152.445 12.9747 150.575 9.69137 149.302 5.95803C149.257 5.81876 149.269 5.66755 149.335 5.53674C149.4 5.40593 149.514 5.3059 149.652 5.25803C153.172 4.03137 156.782 3.78137 160.482 4.50803Z" fill="white"/>
<path d="M177.354 10.7303C177.278 7.12469 176.613 4.21441 175.867 4.23002C175.122 4.24564 174.579 7.18123 174.654 10.7869C174.73 14.3925 175.395 17.3028 176.141 17.2872C176.886 17.2715 177.429 14.3359 177.354 10.7303Z" fill="white"/>
<path d="M184.283 21.6288L188.953 18.9288C189.327 18.7128 189.638 18.4014 189.854 18.0258C190.069 17.6501 190.183 17.2235 190.183 16.7888V6.61879C190.183 5.99288 190.433 5.3926 190.878 4.95002C191.322 4.50743 191.925 4.25879 192.553 4.25879H193.283C193.655 4.25879 194.011 4.40523 194.273 4.66591C194.536 4.92658 194.683 5.28014 194.683 5.64879V17.8388C194.684 18.0417 194.73 18.2423 194.818 18.4257C194.906 18.6091 195.034 18.7707 195.193 18.8988L198.673 21.7388C198.723 21.7795 198.759 21.8346 198.776 21.8966C198.793 21.9586 198.79 22.0243 198.769 22.0848C198.747 22.1452 198.706 22.1973 198.653 22.2338C198.601 22.2704 198.538 22.2896 198.473 22.2888H195.173C195.041 22.2888 194.914 22.3425 194.82 22.4382C194.726 22.5338 194.673 22.6635 194.673 22.7988V29.4688C194.673 29.6279 194.736 29.7805 194.846 29.8931C194.957 30.0056 195.107 30.0688 195.263 30.0688H196.633C196.743 30.0678 196.851 30.0969 196.946 30.153C197.04 30.2091 197.117 30.29 197.169 30.387C197.22 30.4839 197.244 30.5932 197.238 30.7028C197.232 30.8125 197.196 30.9183 197.133 31.0088L195.443 33.4688C195.35 33.6018 195.27 33.7458 195.203 33.8988L190.763 44.6688C190.736 44.7456 190.682 44.8101 190.611 44.8505C190.54 44.8908 190.457 44.9043 190.377 44.8886C190.297 44.8728 190.226 44.8288 190.175 44.7646C190.125 44.7004 190.099 44.6202 190.103 44.5388V34.6788C190.104 34.4538 190.045 34.2328 189.932 34.0379C189.82 33.8431 189.658 33.6813 189.463 33.5688L184.303 30.5888C184.243 30.5511 184.196 30.4948 184.17 30.4283C184.145 30.3619 184.141 30.2888 184.16 30.2202C184.179 30.1515 184.22 30.0909 184.277 30.0473C184.333 30.0038 184.402 29.9798 184.473 29.9788H190.043C190.078 29.9788 190.111 29.9651 190.135 29.9407C190.16 29.9163 190.173 29.8833 190.173 29.8488V22.4988C190.173 22.4431 190.151 22.3897 190.112 22.3503C190.072 22.3109 190.019 22.2888 189.963 22.2888H184.453C184.374 22.2905 184.297 22.2655 184.234 22.2178C184.171 22.1702 184.126 22.1026 184.107 22.0262C184.087 21.9497 184.094 21.8689 184.126 21.7967C184.158 21.7246 184.213 21.6654 184.283 21.6288Z" fill="white"/>
<path d="M184.487 4.40916L184.407 4.41112C183.877 4.42407 183.458 4.86425 183.471 5.39428L183.703 14.8914C183.716 15.4215 184.156 15.8407 184.686 15.8277L184.766 15.8258C185.296 15.8128 185.715 15.3726 185.702 14.8426L185.47 5.34542C185.457 4.81538 185.017 4.39621 184.487 4.40916Z" fill="white"/>
<path d="M136.122 22.4187L139.522 19.6487C139.758 19.4536 139.948 19.2088 140.078 18.9321C140.207 18.6554 140.274 18.3537 140.272 18.0487L140.262 6.24871C140.263 6.02412 140.313 5.80245 140.409 5.59923C140.505 5.39601 140.645 5.21616 140.818 5.07229C140.991 4.92842 141.195 4.82402 141.413 4.7664C141.631 4.70877 141.86 4.69933 142.082 4.73872L142.532 4.82872C143.163 4.94329 143.733 5.27515 144.144 5.7666C144.555 6.25805 144.781 6.87801 144.782 7.51871L144.802 17.7887C144.803 18.0898 144.882 18.3849 145.031 18.6446C145.18 18.9044 145.394 19.1196 145.652 19.2687L150.612 22.1287C150.688 22.1746 150.746 22.2437 150.779 22.3256C150.812 22.4075 150.818 22.4979 150.796 22.5833C150.773 22.6687 150.724 22.7445 150.655 22.7996C150.586 22.8546 150.501 22.8859 150.412 22.8887H145.712C145.588 22.8887 145.465 22.9133 145.35 22.9612C145.236 23.0091 145.132 23.0792 145.044 23.1676C144.957 23.2559 144.888 23.3607 144.841 23.4759C144.794 23.5911 144.771 23.7144 144.772 23.8387L144.782 29.6187C144.782 29.8813 144.887 30.1331 145.072 30.3188C145.258 30.5044 145.51 30.6087 145.772 30.6087H150.422C150.489 30.6068 150.554 30.6274 150.607 30.6672C150.66 30.707 150.698 30.7638 150.715 30.8288C150.732 30.8939 150.727 30.9634 150.701 31.0267C150.676 31.09 150.63 31.1434 150.572 31.1787L145.902 33.8887C145.574 34.077 145.301 34.3481 145.112 34.6747C144.922 35.0013 144.822 35.3718 144.822 35.7487L144.832 46.6887C144.832 46.919 144.771 47.1452 144.656 47.3444C144.54 47.5436 144.374 47.7089 144.174 47.8235C143.974 47.9381 143.748 47.998 143.518 47.9971C143.287 47.9963 143.061 47.9347 142.862 47.8187L141.582 47.0787C141.189 46.8551 140.862 46.5311 140.633 46.1395C140.405 45.748 140.284 45.3027 140.282 44.8487L140.272 35.0887C140.272 34.8795 140.226 34.6725 140.136 34.4824C140.046 34.2922 139.915 34.1237 139.752 33.9887L136.252 31.1887C136.199 31.1516 136.159 31.0981 136.139 31.0363C136.12 30.9744 136.121 30.9075 136.144 30.8455C136.166 30.7836 136.209 30.73 136.264 30.6927C136.32 30.6554 136.386 30.6365 136.452 30.6387H139.472C139.687 30.6387 139.893 30.5544 140.045 30.4044C140.197 30.2544 140.282 30.0509 140.282 29.8387L140.272 23.6987C140.272 23.5563 140.24 23.4158 140.179 23.2871C140.118 23.1584 140.03 23.0447 139.92 22.954C139.81 22.8634 139.682 22.798 139.544 22.7625C139.406 22.727 139.262 22.7223 139.122 22.7487C138.236 22.922 137.286 22.972 136.272 22.8987C136.216 22.8959 136.161 22.8758 136.116 22.8413C136.071 22.8068 136.038 22.7596 136.022 22.7064C136.005 22.6533 136.006 22.5968 136.024 22.5452C136.042 22.4935 136.076 22.4493 136.122 22.4187Z" fill="white"/>
<path d="M173.738 22.8481C172.724 22.9281 171.778 22.8814 170.898 22.7081C170.758 22.6816 170.614 22.6863 170.476 22.7218C170.338 22.7573 170.209 22.8227 170.1 22.9134C169.99 23.004 169.902 23.1178 169.841 23.2465C169.78 23.3752 169.748 23.5157 169.748 23.6581V29.7881C169.748 30.0002 169.833 30.2037 169.985 30.3537C170.137 30.5038 170.343 30.5881 170.558 30.5881H173.568C173.631 30.5887 173.694 30.6088 173.747 30.6456C173.799 30.6824 173.84 30.734 173.862 30.7933C173.884 30.8527 173.886 30.9168 173.869 30.9767C173.853 31.0367 173.817 31.0896 173.768 31.1281L170.278 33.9281C170.115 34.063 169.984 34.2316 169.894 34.4217C169.804 34.6118 169.757 34.8189 169.758 35.028V44.778C169.758 45.2304 169.639 45.6748 169.412 46.0664C169.186 46.4579 168.86 46.7828 168.468 47.0081L167.188 47.7481C166.989 47.8641 166.763 47.9256 166.532 47.9264C166.302 47.9273 166.075 47.8674 165.876 47.7528C165.676 47.6382 165.51 47.473 165.394 47.2737C165.279 47.0745 165.218 46.8484 165.218 46.6181V35.6981C165.218 35.3212 165.118 34.9507 164.928 34.6241C164.739 34.2975 164.466 34.0263 164.138 33.8381L159.468 31.1381C159.41 31.1028 159.364 31.0493 159.338 30.986C159.313 30.9228 159.308 30.8532 159.325 30.7882C159.342 30.7231 159.38 30.6663 159.433 30.6265C159.486 30.5867 159.551 30.5661 159.618 30.5681H164.258C164.388 30.5681 164.516 30.5424 164.636 30.4927C164.756 30.4429 164.866 30.37 164.958 30.2781C165.049 30.1862 165.122 30.077 165.172 29.9569C165.222 29.8368 165.248 29.7081 165.248 29.5781V23.7981C165.248 23.5487 165.148 23.3097 164.972 23.1334C164.796 22.9571 164.557 22.8581 164.308 22.8581H159.618C159.529 22.8552 159.444 22.8239 159.375 22.7689C159.306 22.7139 159.257 22.638 159.234 22.5526C159.212 22.4672 159.217 22.3768 159.25 22.2949C159.283 22.213 159.342 22.144 159.418 22.0981L164.368 19.2381C164.626 19.0886 164.841 18.873 164.99 18.6132C165.14 18.3534 165.218 18.0584 165.218 17.7581V7.49805C165.217 6.85824 165.442 6.23841 165.853 5.74676C166.264 5.25511 166.836 4.92287 167.468 4.80805L167.918 4.71805C168.139 4.67703 168.367 4.68526 168.586 4.74213C168.804 4.79901 169.007 4.90314 169.181 5.04719C169.354 5.19123 169.494 5.37166 169.59 5.57571C169.687 5.77977 169.737 6.00246 169.738 6.22805V18.0181C169.738 18.3214 169.805 18.6211 169.934 18.896C170.064 19.1708 170.253 19.414 170.488 19.6081L173.888 22.3781C173.929 22.4099 173.96 22.4536 173.976 22.5036C173.991 22.5536 173.991 22.6075 173.975 22.6582C173.959 22.709 173.927 22.7542 173.885 22.7881C173.843 22.822 173.791 22.8429 173.738 22.8481Z" fill="white"/>
<path d="M123.774 31.428C123.841 31.4279 123.906 31.4485 123.96 31.4868C124.014 31.5252 124.055 31.5794 124.077 31.642C124.099 31.7046 124.101 31.7725 124.082 31.8363C124.064 31.9001 124.026 31.9566 123.974 31.998L120.674 34.648C120.484 34.8009 120.33 34.9953 120.225 35.2169C120.119 35.4384 120.064 35.6814 120.064 35.928V46.078C120.064 46.5067 119.932 46.9248 119.687 47.2754C119.442 47.626 119.096 47.8922 118.694 48.038L117.194 48.578C117 48.6486 116.791 48.6713 116.586 48.6443C116.38 48.6172 116.185 48.5411 116.015 48.4224C115.845 48.3038 115.707 48.146 115.611 47.9625C115.515 47.7789 115.465 47.575 115.464 47.368V36.108C115.465 35.868 115.402 35.6324 115.283 35.4252C115.163 35.2179 114.991 35.0464 114.784 34.928L111.274 32.898C111.112 32.8075 110.987 32.6629 110.921 32.4893C110.855 32.3158 110.852 32.1245 110.913 31.949C110.974 31.7736 111.094 31.6252 111.254 31.5299C111.413 31.4346 111.601 31.3985 111.784 31.428C112.864 31.5813 113.951 31.558 115.044 31.358C115.171 31.3326 115.285 31.265 115.367 31.1665C115.449 31.0681 115.494 30.945 115.494 30.818V28.148C115.495 27.5434 115.723 26.9613 116.134 26.518L119.544 22.918C119.59 22.8697 119.649 22.8363 119.714 22.8221C119.779 22.8079 119.846 22.8136 119.908 22.8384C119.969 22.8633 120.022 22.9061 120.059 22.9613C120.096 23.0165 120.115 23.0816 120.114 23.148V30.878C120.114 30.9502 120.129 31.0217 120.156 31.0885C120.184 31.1552 120.224 31.2158 120.276 31.2669C120.327 31.318 120.387 31.3585 120.454 31.3861C120.521 31.4138 120.592 31.428 120.664 31.428H123.774Z" fill="white"/>
<path d="M155.122 35.2784L155.062 35.2794C154.515 35.288 154.079 35.7381 154.088 36.2848L154.244 46.2036C154.252 46.7503 154.702 47.1865 155.249 47.1779L155.309 47.177C155.856 47.1684 156.292 46.7182 156.283 46.1715L156.128 36.2528C156.119 35.7061 155.669 35.2698 155.122 35.2784Z" fill="white"/>
<path d="M174.335 46.9285C174.243 46.9105 174.156 46.8716 174.082 46.8146C174.007 46.7576 173.947 46.6841 173.905 46.5999C173.863 46.5157 173.842 46.4231 173.842 46.3291C173.842 46.2352 173.864 46.1426 173.905 46.0585L179.035 35.7485C179.076 35.6674 179.136 35.5976 179.211 35.5454C179.285 35.4932 179.371 35.4602 179.461 35.4493C179.551 35.4384 179.642 35.45 179.727 35.483C179.811 35.516 179.887 35.5694 179.945 35.6385C182.405 38.4785 184.265 41.7685 185.525 45.5085C185.57 45.6477 185.558 45.7989 185.493 45.9297C185.428 46.0605 185.314 46.1606 185.175 46.2085C181.649 47.4218 178.035 47.6618 174.335 46.9285Z" fill="white"/>
<path d="M125.792 47.2785C125.701 47.2613 125.615 47.2229 125.541 47.1662C125.468 47.1095 125.408 47.0361 125.367 46.9517C125.327 46.8674 125.306 46.7744 125.307 46.6801C125.308 46.5859 125.33 46.4929 125.372 46.4085L130.542 36.1885C130.584 36.1093 130.643 36.0414 130.717 35.9905C130.79 35.9397 130.875 35.9075 130.963 35.8966C131.052 35.8858 131.142 35.8967 131.225 35.9284C131.309 35.9601 131.383 36.0116 131.442 36.0785C133.876 38.9185 135.706 42.2018 136.932 45.9285C136.979 46.0661 136.969 46.2169 136.903 46.3481C136.837 46.4793 136.722 46.5801 136.582 46.6285C133.062 47.8151 129.466 48.0318 125.792 47.2785Z" fill="white"/>
<path d="M152.085 42.0916C152.034 38.4634 151.442 35.5299 150.763 35.5394C150.084 35.5489 149.574 38.4978 149.625 42.126C149.676 45.7541 150.267 48.6876 150.947 48.6781C151.626 48.6687 152.135 45.7198 152.085 42.0916Z" fill="white"/>
<path d="M159.445 36.1188L159.385 36.1195C158.871 36.1258 158.46 36.5472 158.466 37.0608L158.579 46.3001C158.586 46.8137 159.007 47.2249 159.521 47.2187L159.581 47.2179C160.094 47.2117 160.505 46.7902 160.499 46.2766L160.386 37.0373C160.38 36.5237 159.959 36.1125 159.445 36.1188Z" fill="white"/>
<path d="M107.994 42.84C107.97 39.3994 107.404 36.614 106.731 36.6187C106.057 36.6234 105.53 39.4164 105.554 42.8571C105.578 46.2977 106.144 49.0831 106.818 49.0784C107.491 49.0737 108.018 46.2807 107.994 42.84Z" fill="white"/>
<path d="M110.491 37.1289L110.431 37.13C109.9 37.1402 109.479 37.5782 109.489 38.1083L109.663 47.1466C109.673 47.6767 110.111 48.0982 110.641 48.088L110.701 48.0868C111.231 48.0767 111.652 47.6387 111.642 47.1086L111.469 38.0702C111.459 37.5402 111.021 37.1187 110.491 37.1289Z" fill="white"/>
<path d="M1.31622 193.944L2.37948 193.944L48.1543 172.951C46.979 171.812 46.4428 170.168 46.5458 168.017C46.9638 159.117 47.2455 149.708 47.3909 139.79C47.4697 134.229 47.4212 125.35 47.2455 113.154C47.1183 104.424 47.0638 95.5392 47.0819 86.5C35.4315 97.3507 24.1779 107.944 13.3211 118.28C10.4918 120.976 7.79879 125.168 5.24211 130.857C2.61273 136.716 1.26775 143.81 1.20717 152.141C1.11023 166.075 1.14658 180.01 1.31622 193.944ZM6.1975 166.559C5.95894 166.555 5.73197 166.455 5.56652 166.284C5.40107 166.112 5.31069 165.881 5.31527 165.642L5.31636 165.588C5.32094 165.349 5.4201 165.122 5.59203 164.957C5.76396 164.791 5.99456 164.701 6.23313 164.706L15.1011 164.876C15.3397 164.881 15.5666 164.98 15.7321 165.152C15.8975 165.324 15.9879 165.554 15.9833 165.793L15.9822 165.847C15.9777 166.086 15.8785 166.313 15.7066 166.478C15.5346 166.644 15.304 166.734 15.0655 166.73L6.1975 166.559ZM15.1295 186.683C15.2102 186.726 15.2776 186.791 15.324 186.87C15.3704 186.949 15.394 187.039 15.3921 187.13C15.3902 187.221 15.3629 187.309 15.3133 187.384C15.2637 187.459 15.1937 187.519 15.1114 187.555L5.97822 191.736C5.87272 191.783 5.75656 191.802 5.64157 191.789C5.52658 191.777 5.41686 191.735 5.32358 191.667C5.23031 191.598 5.15681 191.506 5.11057 191.4C5.06433 191.294 5.04701 191.178 5.06036 191.063L6.03274 182.593C6.03999 182.531 6.0624 182.472 6.09809 182.42C6.13379 182.369 6.18171 182.326 6.23783 182.297C6.29395 182.267 6.35663 182.252 6.42057 182.251C6.48452 182.251 6.54786 182.265 6.60527 182.294L15.1295 186.683ZM5.70559 147.688C5.04521 144.325 5.27241 141.044 6.38717 137.846C6.43067 137.72 6.52157 137.616 6.64045 137.557C6.75932 137.498 6.89674 137.487 7.02331 137.528C10.4161 138.685 13.3999 140.384 15.9747 142.626C16.0371 142.68 16.0851 142.749 16.1144 142.826C16.1437 142.903 16.1534 142.987 16.1426 143.069C16.1318 143.15 16.1009 143.228 16.0525 143.296C16.0042 143.363 15.94 143.417 15.8657 143.453L6.48713 148.078C6.41107 148.115 6.32776 148.133 6.24354 148.132C6.15931 148.131 6.07638 148.111 6.00104 148.074C5.9257 148.036 5.85994 147.982 5.80875 147.915C5.75755 147.848 5.72227 147.77 5.70559 147.688ZM5.4524 161.667C5.45927 161.342 6.09092 161.043 7.20839 160.836C8.32586 160.63 9.83763 160.532 11.4111 160.565C12.1903 160.581 12.9611 160.629 13.6797 160.706C14.3982 160.783 15.0504 160.887 15.5989 161.012C16.1475 161.138 16.5816 161.282 16.8767 161.437C17.1717 161.592 17.3218 161.755 17.3184 161.916C17.3115 162.241 16.6799 162.54 15.5624 162.747C14.4449 162.954 12.9332 163.051 11.3597 163.018C10.5805 163.002 9.80969 162.954 9.09115 162.877C8.37261 162.801 7.72044 162.697 7.1719 162.571C6.62335 162.446 6.18917 162.301 5.89414 162.146C5.59911 161.991 5.44901 161.828 5.4524 161.667ZM21.8635 169.471L21.8635 174.478C21.8635 174.529 21.8836 174.577 21.9194 174.613C21.9552 174.649 22.0038 174.669 22.0544 174.669L28.7339 174.669C28.7652 174.669 28.7952 174.657 28.8174 174.634C28.8395 174.612 28.852 174.582 28.852 174.551L28.852 169.489C28.8529 169.424 28.8748 169.361 28.9143 169.31C28.9538 169.259 29.0089 169.222 29.0713 169.204C29.1338 169.187 29.2001 169.19 29.2605 169.214C29.3209 169.237 29.3721 169.28 29.4063 169.335L32.1145 174.024C32.2167 174.201 32.3637 174.348 32.5408 174.45C32.7179 174.552 32.9188 174.606 33.1232 174.605L42.0837 174.605C42.1577 174.602 42.2306 174.625 42.2889 174.671C42.3473 174.716 42.3872 174.782 42.4016 174.854C42.4159 174.927 42.4036 175.002 42.3669 175.067C42.3303 175.131 42.2717 175.18 42.2018 175.205L32.4144 179.24C32.2754 179.301 32.1445 179.374 32.0236 179.458L29.788 180.994C29.7058 181.051 29.6096 181.083 29.51 181.089C29.4103 181.095 29.3111 181.073 29.223 181.026C29.1348 180.979 29.0613 180.909 29.0103 180.823C28.9593 180.738 28.9328 180.639 28.9338 180.54L28.9338 179.295C28.9338 179.152 28.8763 179.016 28.7741 178.916C28.6718 178.815 28.5331 178.758 28.3885 178.758L22.327 178.758C22.2041 178.758 22.0862 178.806 21.9993 178.892C21.9124 178.977 21.8635 179.092 21.8635 179.213L21.8635 182.212C21.8643 182.27 21.8468 182.327 21.8136 182.375C21.7804 182.424 21.733 182.46 21.6781 182.48C21.6232 182.5 21.5635 182.502 21.5071 182.487C21.4508 182.471 21.4007 182.439 21.3637 182.394L18.7828 179.231C18.6664 179.087 18.5195 178.97 18.3528 178.89C18.1862 178.81 18.0039 178.768 17.8195 178.768L6.74158 178.768C6.40656 178.768 6.08527 178.634 5.84837 178.395C5.61148 178.156 5.47839 177.833 5.47839 177.495L5.47839 176.832C5.47839 176.261 5.70435 175.713 6.10656 175.309C6.50877 174.905 7.05428 174.678 7.62309 174.678L16.8653 174.678C17.2604 174.678 17.6481 174.575 17.9894 174.378C18.3308 174.182 18.6138 173.9 18.8101 173.56L21.2638 169.316C21.297 169.253 21.3508 169.202 21.4164 169.173C21.4819 169.144 21.5554 169.138 21.6249 169.156C21.6944 169.174 21.7557 169.215 21.7991 169.272C21.8424 169.329 21.8651 169.399 21.8635 169.471ZM6.46623 170.392C6.23492 170.386 6.01533 170.289 5.85576 170.121C5.69619 169.954 5.60971 169.73 5.61534 169.499L5.61716 169.426C5.61996 169.311 5.64529 169.198 5.6917 169.094C5.73812 168.989 5.80471 168.894 5.88768 168.815C5.97065 168.736 6.06837 168.674 6.17526 168.633C6.28216 168.592 6.39613 168.572 6.51067 168.575L15.1414 168.786C15.3727 168.792 15.5923 168.889 15.7518 169.056C15.9114 169.224 15.9979 169.448 15.9922 169.679L15.9904 169.752C15.9876 169.867 15.9623 169.979 15.9159 170.084C15.8695 170.189 15.8029 170.284 15.7199 170.363C15.6369 170.442 15.5392 170.503 15.4323 170.545C15.3254 170.586 15.2115 170.606 15.0969 170.603L6.46623 170.392ZM21.9817 125.55C22.0095 125.508 22.0497 125.477 22.0966 125.46C22.1436 125.444 22.1948 125.443 22.2432 125.458C22.2915 125.473 22.3344 125.504 22.3657 125.545C22.3971 125.585 22.4154 125.635 22.4179 125.686C22.4845 126.607 22.4391 127.47 22.2816 128.276C22.2576 128.403 22.2618 128.534 22.2941 128.66C22.3263 128.785 22.3858 128.901 22.4682 129.001C22.5506 129.101 22.6539 129.181 22.7709 129.237C22.8878 129.292 23.0155 129.321 23.1449 129.321L28.7248 129.33C28.9176 129.33 29.1025 129.253 29.2388 129.115C29.3752 128.977 29.4518 128.79 29.4518 128.594L29.4518 125.85C29.4497 125.789 29.4669 125.729 29.5008 125.679C29.5347 125.628 29.5834 125.59 29.6397 125.569C29.696 125.549 29.7568 125.547 29.8131 125.565C29.8693 125.583 29.9179 125.619 29.9516 125.668L32.4962 128.849C32.6188 128.997 32.772 129.116 32.9448 129.197C33.1176 129.279 33.3057 129.321 33.4958 129.321L42.3654 129.33C42.778 129.332 43.1826 129.442 43.5385 129.649C43.8943 129.857 44.1887 130.154 44.392 130.512L45.0645 131.675C45.1699 131.856 45.2258 132.061 45.2266 132.271C45.2274 132.48 45.1729 132.686 45.0688 132.867C44.9646 133.049 44.8145 133.2 44.6334 133.305C44.4524 133.41 44.2469 133.465 44.0376 133.465L34.0956 133.456C33.7531 133.456 33.4164 133.547 33.1196 133.719C32.8228 133.892 32.5764 134.139 32.4053 134.438L29.9425 138.682C29.9104 138.734 29.8619 138.776 29.8044 138.799C29.7469 138.822 29.6836 138.827 29.6246 138.811C29.5655 138.795 29.5138 138.761 29.4776 138.713C29.4415 138.665 29.4228 138.606 29.4245 138.545L29.4245 134.32C29.4245 134.081 29.3297 133.852 29.161 133.683C28.9923 133.515 28.7634 133.42 28.5248 133.42L23.2721 133.411C23.1592 133.41 23.0471 133.431 22.9424 133.473C22.8377 133.516 22.7425 133.578 22.6622 133.658C22.5819 133.737 22.5182 133.832 22.4747 133.936C22.4312 134.04 22.4088 134.152 22.4088 134.265L22.4088 138.536C22.4062 138.616 22.3778 138.694 22.3278 138.756C22.2778 138.819 22.2088 138.864 22.1312 138.885C22.0536 138.905 21.9715 138.9 21.8971 138.87C21.8226 138.84 21.7599 138.787 21.7181 138.718L19.1191 134.21C18.9835 133.976 18.788 133.781 18.5519 133.646C18.3159 133.51 18.0476 133.439 17.7741 133.438L8.44099 133.42C7.85874 133.419 7.29533 133.213 6.84872 132.84C6.4021 132.466 6.10052 131.948 5.99639 131.375L5.9146 130.966C5.87881 130.764 5.88739 130.556 5.93976 130.358C5.99213 130.159 6.08701 129.975 6.21775 129.817C6.34849 129.66 6.51193 129.533 6.69661 129.446C6.88129 129.358 7.08275 129.313 7.28685 129.312L18.0104 129.321C18.2875 129.323 18.5617 129.262 18.8132 129.144C19.0646 129.026 19.287 128.854 19.4644 128.64L21.9817 125.55ZM21.9453 159.865L19.428 156.775C19.2517 156.562 19.0307 156.391 18.7809 156.273C18.5312 156.155 18.2587 156.094 17.9831 156.094L7.26867 156.094C7.06367 156.093 6.86128 156.048 6.67585 155.96C6.49041 155.873 6.32644 155.746 6.19554 155.588C6.06463 155.43 5.97 155.245 5.91831 155.047C5.86662 154.849 5.85915 154.641 5.89643 154.44L5.97822 154.031C6.08256 153.457 6.38449 152.937 6.83129 152.564C7.27809 152.19 7.84137 151.986 8.42281 151.986L17.7468 151.986C18.0198 151.986 18.2878 151.915 18.524 151.78C18.7601 151.644 18.9559 151.449 19.0918 151.214L21.6909 146.715C21.7326 146.647 21.7954 146.593 21.8698 146.563C21.9442 146.533 22.0263 146.528 22.104 146.549C22.1816 146.569 22.2505 146.614 22.3005 146.677C22.3505 146.739 22.379 146.817 22.3815 146.897L22.3815 151.159C22.3815 151.386 22.4715 151.603 22.6317 151.763C22.7919 151.923 23.0092 152.013 23.2358 152.013L28.4885 152.013C28.6066 152.013 28.7236 151.99 28.8328 151.945C28.9419 151.9 29.0411 151.833 29.1247 151.75C29.2082 151.666 29.2745 151.567 29.3197 151.458C29.3649 151.349 29.3882 151.232 29.3882 151.114L29.3882 146.897C29.3864 146.836 29.4051 146.777 29.4413 146.729C29.4774 146.681 29.5291 146.647 29.5882 146.631C29.6473 146.616 29.7105 146.62 29.768 146.643C29.8255 146.667 29.8741 146.708 29.9062 146.761L32.3598 151.005C32.5309 151.303 32.7774 151.551 33.0742 151.723C33.371 151.895 33.7077 151.986 34.0502 151.986L43.9739 151.986C44.1832 151.986 44.3888 152.042 44.5698 152.147C44.7509 152.252 44.901 152.403 45.0052 152.584C45.1093 152.766 45.1637 152.972 45.163 153.181C45.1622 153.39 45.1063 153.596 45.0009 153.776L44.3284 154.94C44.1236 155.296 43.8284 155.592 43.4726 155.798C43.1168 156.004 42.7129 156.112 42.3018 156.112L33.4413 156.112C33.2512 156.112 33.0631 156.154 32.8903 156.236C32.7175 156.317 32.5643 156.437 32.4416 156.584L29.8971 159.756C29.8621 159.801 29.8141 159.833 29.7596 159.849C29.7051 159.864 29.6468 159.861 29.5929 159.842C29.539 159.822 29.4921 159.785 29.4586 159.737C29.4252 159.689 29.4069 159.632 29.4063 159.574L29.4063 156.839C29.4063 156.644 29.3297 156.456 29.1934 156.318C29.0571 156.18 28.8721 156.103 28.6793 156.103L23.1086 156.103C22.9792 156.103 22.8515 156.132 22.7345 156.187C22.6176 156.243 22.5142 156.323 22.4318 156.423C22.3494 156.523 22.29 156.639 22.2577 156.765C22.2255 156.89 22.2212 157.021 22.2452 157.148C22.4027 157.948 22.4452 158.808 22.3725 159.729C22.3677 159.778 22.3487 159.824 22.318 159.863C22.2872 159.901 22.2461 159.93 22.1999 159.945C22.1538 159.959 22.1048 159.96 22.0594 159.945C22.014 159.931 21.9742 159.903 21.9453 159.865ZM30.1697 114.327L30.1697 111.5C30.1697 111.435 30.1568 111.37 30.1317 111.309C30.1065 111.248 30.0697 111.193 30.0233 111.147C29.9769 111.1 29.9218 111.064 29.8612 111.039C29.8005 111.013 29.7355 111 29.6699 111L22.6451 111C22.5848 111.001 22.5256 110.984 22.4755 110.95C22.4253 110.917 22.3863 110.869 22.3638 110.813C22.3412 110.757 22.336 110.695 22.3489 110.636C22.3618 110.578 22.3922 110.524 22.4361 110.482L25.7076 107.384C26.1105 107.01 26.6395 106.802 27.1889 106.802L29.6154 106.802C29.7308 106.802 29.8427 106.761 29.9321 106.686C30.0216 106.612 30.083 106.508 30.1061 106.393C30.2879 105.399 30.3091 104.412 30.1697 103.43C30.1429 103.264 30.1757 103.093 30.2623 102.948C30.3489 102.803 30.4838 102.694 30.6432 102.638C30.8027 102.583 30.9765 102.586 31.1342 102.646C31.2919 102.706 31.4234 102.82 31.5056 102.967L33.3504 106.157C33.458 106.345 33.6139 106.501 33.8022 106.61C33.9906 106.718 34.2047 106.775 34.4228 106.775L44.6555 106.775C44.8437 106.775 45.029 106.821 45.1958 106.908C45.3626 106.995 45.5059 107.121 45.6138 107.275C45.7216 107.429 45.7908 107.607 45.8154 107.794C45.84 107.98 45.8193 108.17 45.7551 108.347L45.2644 109.71C45.132 110.075 44.89 110.39 44.5714 110.612C44.2527 110.835 43.8728 110.955 43.4832 110.955L34.2592 110.955C34.0351 110.955 33.8143 111.005 33.613 111.101C33.4116 111.197 33.235 111.336 33.096 111.509L30.6877 114.508C30.6501 114.555 30.5987 114.59 30.5408 114.606C30.4828 114.623 30.4211 114.621 30.3642 114.601C30.3073 114.581 30.2581 114.544 30.2232 114.495C30.1884 114.446 30.1697 114.387 30.1697 114.327ZM34.5542 143.727C34.436 143.725 34.3194 143.7 34.211 143.653C34.1026 143.606 34.0044 143.538 33.9222 143.454C33.84 143.369 33.7753 143.269 33.7318 143.159C33.6883 143.049 33.6669 142.932 33.6688 142.813L33.6696 142.759C33.6733 142.52 33.7717 142.293 33.943 142.127C34.1144 141.961 34.3447 141.87 34.5832 141.873L43.5972 142.015C43.7153 142.017 43.8319 142.042 43.9404 142.089C44.0488 142.136 44.1469 142.204 44.2291 142.289C44.3113 142.373 44.3761 142.474 44.4195 142.583C44.463 142.693 44.4845 142.811 44.4826 142.929L44.4818 142.983C44.478 143.222 44.3796 143.449 44.2083 143.615C44.037 143.781 43.8067 143.872 43.5681 143.869L34.5542 143.727ZM44.2557 160.274C44.9221 163.637 44.704 166.92 43.6013 170.125C43.5578 170.251 43.4669 170.354 43.3481 170.414C43.2292 170.473 43.0918 170.484 42.9652 170.443C39.5664 169.298 36.5765 167.608 33.9956 165.372C33.9329 165.319 33.8843 165.251 33.8543 165.174C33.8244 165.097 33.8138 165.014 33.8237 164.932C33.8336 164.85 33.8636 164.772 33.9111 164.704C33.9585 164.637 34.0219 164.582 34.0956 164.545L43.465 159.883C43.5415 159.845 43.6257 159.826 43.711 159.825C43.7964 159.825 43.8806 159.845 43.9571 159.883C44.0336 159.921 44.1004 159.976 44.1522 160.044C44.204 160.111 44.2394 160.19 44.2557 160.274ZM44.5737 116.162C45.2583 119.501 45.0614 122.769 43.983 125.968C43.9391 126.095 43.8474 126.2 43.7282 126.259C43.609 126.319 43.4719 126.329 43.3469 126.286C39.9602 125.171 36.9764 123.508 34.3955 121.297C34.3347 121.243 34.2879 121.175 34.2591 121.1C34.2303 121.024 34.2204 120.942 34.2303 120.862C34.2401 120.781 34.2694 120.704 34.3156 120.638C34.3618 120.571 34.4235 120.516 34.4955 120.479L43.7831 115.781C43.8598 115.742 43.9443 115.722 44.03 115.721C44.1157 115.72 44.2001 115.739 44.2768 115.776C44.3534 115.813 44.4202 115.867 44.4717 115.934C44.5232 116.001 44.5581 116.079 44.5737 116.162ZM33.9053 138.853C33.9073 138.706 34.0638 138.563 34.3657 138.431C34.6676 138.3 35.109 138.183 35.6649 138.087C36.2207 137.991 36.88 137.918 37.6051 137.872C38.3302 137.826 39.107 137.807 39.891 137.818C41.4744 137.841 42.9912 137.979 44.1079 138.205C45.2246 138.43 45.8496 138.723 45.8455 139.019C45.8435 139.166 45.687 139.309 45.3851 139.441C45.0832 139.572 44.6417 139.689 44.0859 139.785C43.5301 139.881 42.8708 139.955 42.1457 140.001C41.4205 140.047 40.6438 140.065 39.8598 140.054C38.2764 140.032 36.7596 139.893 35.6429 139.667C34.5262 139.442 33.9012 139.149 33.9053 138.853ZM35.2666 147.6C35.1557 147.599 35.046 147.575 34.944 147.532C34.842 147.488 34.7496 147.424 34.6721 147.345C34.5946 147.266 34.5334 147.172 34.4922 147.069C34.451 146.966 34.4305 146.855 34.4318 146.744L34.4326 146.69C34.4339 146.579 34.4571 146.469 34.5009 146.367C34.5446 146.265 34.608 146.173 34.6874 146.095C34.7668 146.018 34.8608 145.957 34.9638 145.916C35.0669 145.874 35.177 145.854 35.288 145.855L43.6844 145.958C43.7954 145.959 43.905 145.982 44.007 146.026C44.1091 146.07 44.2015 146.133 44.279 146.213C44.3565 146.292 44.4176 146.386 44.4588 146.489C44.5001 146.592 44.5206 146.702 44.5192 146.813L44.5185 146.868C44.5171 146.979 44.4939 147.088 44.4502 147.19C44.4065 147.292 44.3431 147.385 44.2637 147.462C44.1842 147.54 44.0903 147.601 43.9873 147.642C43.8842 147.683 43.774 147.704 43.6631 147.702L35.2666 147.6ZM34.8864 98.8379C34.8874 98.6923 35.0349 98.5492 35.3203 98.4167C35.6057 98.2841 36.0236 98.1648 36.5501 98.0656C37.0765 97.9663 37.7012 97.889 38.3884 97.838C39.0757 97.7871 39.8121 97.7636 40.5556 97.7688C41.2991 97.774 42.0351 97.8078 42.7216 97.8683C43.4081 97.9288 44.0317 98.0148 44.5567 98.1214C45.0817 98.2281 45.4978 98.3532 45.7814 98.4897C46.065 98.6262 46.2104 98.7714 46.2093 98.917C46.2083 99.0626 46.0609 99.2057 45.7755 99.3383C45.49 99.4708 45.0721 99.5901 44.5457 99.6894C44.0193 99.7887 43.3946 99.866 42.7073 99.9169C42.02 99.9678 41.2836 99.9914 40.5402 99.9862C39.7967 99.981 39.0607 99.9472 38.3741 99.8866C37.6876 99.8261 37.0641 99.7401 36.5391 99.6335C36.0141 99.5269 35.5979 99.4017 35.3144 99.2652C35.0308 99.1287 34.8854 98.9835 34.8864 98.8379ZM36.2056 103.142C35.9743 103.138 35.7542 103.042 35.5937 102.875C35.4333 102.708 35.3456 102.485 35.3501 102.253L35.3512 102.199C35.3556 101.968 35.4518 101.747 35.6185 101.587C35.7852 101.427 36.0088 101.339 36.2401 101.343L44.454 101.501C44.6853 101.506 44.9054 101.602 45.0658 101.768C45.2263 101.935 45.3139 102.159 45.3095 102.39L45.3084 102.445C45.304 102.676 45.2078 102.896 45.0411 103.056C44.8744 103.217 44.6508 103.305 44.4194 103.3L36.2056 103.142Z" fill="black"/>
<path d="M5.70639 147.686C5.72308 147.769 5.75836 147.847 5.80955 147.913C5.86074 147.98 5.92651 148.035 6.00184 148.072C6.07718 148.11 6.16012 148.13 6.24434 148.131C6.32857 148.132 6.41188 148.113 6.48794 148.077L15.8665 143.451C15.9408 143.415 16.005 143.361 16.0533 143.294C16.1017 143.227 16.1326 143.149 16.1434 143.067C16.1542 142.985 16.1445 142.902 16.1152 142.825C16.0859 142.747 16.0379 142.679 15.9755 142.624C13.4007 140.383 10.4169 138.683 7.02411 137.526C6.89754 137.486 6.76013 137.496 6.64125 137.556C6.52238 137.615 6.43147 137.719 6.38797 137.844C5.27321 141.043 5.04602 144.324 5.70639 147.686Z" fill="white"/>
<path d="M11.3613 163.017C8.08465 162.949 5.43987 162.344 5.45406 161.666C5.46825 160.989 8.13604 160.496 11.4127 160.564C14.6894 160.633 17.3342 161.238 17.32 161.915C17.3058 162.592 14.638 163.086 11.3613 163.017Z" fill="white"/>
<path d="M21.9833 125.549L19.466 128.638C19.2886 128.853 19.0662 129.025 18.8148 129.143C18.5633 129.261 18.2891 129.321 18.012 129.32L7.28847 129.311C7.08437 129.312 6.88292 129.357 6.69823 129.444C6.51355 129.532 6.35011 129.658 6.21937 129.816C6.08863 129.974 5.99375 130.158 5.94138 130.357C5.88901 130.555 5.88043 130.763 5.91623 130.965L5.99801 131.374C6.10214 131.947 6.40372 132.465 6.85034 132.839C7.29695 133.212 7.86036 133.417 8.44261 133.419L17.7757 133.437C18.0493 133.437 18.3175 133.509 18.5535 133.644C18.7896 133.78 18.9851 133.975 19.1207 134.209L21.7198 138.717C21.7615 138.785 21.8242 138.839 21.8987 138.869C21.9731 138.899 22.0552 138.904 22.1328 138.883C22.2105 138.863 22.2794 138.818 22.3294 138.755C22.3794 138.692 22.4078 138.615 22.4104 138.535L22.4104 134.264C22.4104 134.151 22.4328 134.039 22.4763 133.935C22.5198 133.83 22.5835 133.736 22.6638 133.656C22.7441 133.577 22.8394 133.514 22.9441 133.472C23.0488 133.429 23.1608 133.408 23.2738 133.409L28.5265 133.419C28.7651 133.419 28.9939 133.513 29.1626 133.682C29.3314 133.851 29.4261 134.08 29.4261 134.318L29.4261 138.544C29.4244 138.605 29.4431 138.664 29.4793 138.712C29.5154 138.76 29.5671 138.794 29.6262 138.81C29.6853 138.825 29.7485 138.821 29.806 138.798C29.8635 138.774 29.9121 138.733 29.9441 138.68L32.4069 134.436C32.578 134.138 32.8244 133.89 33.1212 133.718C33.418 133.546 33.7547 133.455 34.0972 133.455L44.0392 133.464C44.2485 133.464 44.454 133.408 44.6351 133.303C44.8161 133.198 44.9663 133.047 45.0704 132.866C45.1745 132.684 45.229 132.479 45.2282 132.269C45.2275 132.06 45.1715 131.855 45.0661 131.674L44.3936 130.511C44.1904 130.153 43.8959 129.856 43.5401 129.648C43.1843 129.441 42.7796 129.331 42.367 129.329L33.4974 129.32C33.3073 129.32 33.1192 129.278 32.9464 129.196C32.7736 129.114 32.6204 128.995 32.4978 128.847L29.9532 125.667C29.9195 125.618 29.8709 125.582 29.8147 125.564C29.7585 125.546 29.6977 125.548 29.6414 125.568C29.5851 125.589 29.5363 125.627 29.5024 125.678C29.4685 125.728 29.4513 125.788 29.4534 125.849L29.4534 128.593C29.4534 128.788 29.3768 128.975 29.2405 129.114C29.1041 129.252 28.9192 129.329 28.7264 129.329L23.1465 129.32C23.0171 129.32 22.8894 129.291 22.7725 129.235C22.6555 129.18 22.5522 129.1 22.4698 129C22.3874 128.9 22.328 128.784 22.2957 128.658C22.2635 128.533 22.2592 128.402 22.2832 128.275C22.4407 127.469 22.4862 126.606 22.4195 125.685C22.417 125.634 22.3987 125.584 22.3673 125.543C22.336 125.502 22.2931 125.472 22.2448 125.457C22.1965 125.442 22.1452 125.443 22.0982 125.459C22.0513 125.476 22.0111 125.507 21.9833 125.549Z" fill="white"/>
<path d="M22.3744 159.732C22.4471 158.811 22.4046 157.95 22.2471 157.151C22.2231 157.023 22.2274 156.893 22.2596 156.767C22.2919 156.642 22.3513 156.525 22.4337 156.426C22.5161 156.326 22.6195 156.245 22.7364 156.19C22.8534 156.135 22.9811 156.106 23.1105 156.106L28.6812 156.106C28.874 156.106 29.059 156.183 29.1953 156.321C29.3316 156.459 29.4082 156.646 29.4082 156.842L29.4082 159.577C29.4088 159.635 29.4271 159.692 29.4605 159.74C29.494 159.788 29.5409 159.824 29.5948 159.844C29.6487 159.864 29.707 159.867 29.7615 159.851C29.816 159.836 29.864 159.804 29.899 159.759L32.4435 156.587C32.5662 156.439 32.7194 156.32 32.8922 156.239C33.065 156.157 33.2531 156.115 33.4432 156.115L42.3037 156.115C42.7148 156.115 43.1187 156.007 43.4745 155.801C43.8303 155.595 44.1255 155.299 44.3303 154.942L45.0028 153.779C45.1082 153.598 45.1641 153.393 45.1649 153.184C45.1656 152.974 45.1112 152.768 45.0071 152.587C44.9029 152.405 44.7528 152.254 44.5717 152.149C44.3907 152.044 44.1851 151.989 43.9758 151.989L34.0521 151.989C33.7096 151.989 33.3729 151.898 33.0761 151.726C32.7793 151.553 32.5328 151.306 32.3617 151.007L29.9081 146.763C29.876 146.711 29.8274 146.669 29.7699 146.646C29.7124 146.623 29.6492 146.618 29.5901 146.634C29.531 146.649 29.4793 146.684 29.4432 146.732C29.407 146.78 29.3883 146.839 29.3901 146.9L29.3901 151.116C29.3901 151.235 29.3668 151.352 29.3216 151.461C29.2764 151.57 29.2101 151.669 29.1266 151.753C29.043 151.836 28.9438 151.902 28.8347 151.948C28.7255 151.993 28.6085 152.016 28.4904 152.016L23.2377 152.016C23.0111 152.016 22.7938 151.926 22.6336 151.766C22.4734 151.606 22.3834 151.388 22.3834 151.162L22.3834 146.9C22.3809 146.819 22.3524 146.742 22.3024 146.679C22.2524 146.617 22.1835 146.572 22.1059 146.551C22.0282 146.531 21.9461 146.536 21.8717 146.566C21.7973 146.596 21.7345 146.649 21.6928 146.718L19.0937 151.216C18.9578 151.452 18.762 151.647 18.5259 151.782C18.2897 151.918 18.0217 151.989 17.7487 151.989L8.42471 151.989C7.84327 151.988 7.27998 152.193 6.83319 152.566C6.38639 152.94 6.08446 153.459 5.98012 154.034L5.89833 154.442C5.86105 154.644 5.86852 154.851 5.92021 155.05C5.9719 155.248 6.06653 155.433 6.19744 155.591C6.32834 155.748 6.49231 155.875 6.67775 155.963C6.86318 156.05 7.06556 156.096 7.27057 156.096L17.985 156.096C18.2606 156.096 18.5331 156.158 18.7828 156.275C19.0326 156.393 19.2536 156.565 19.4299 156.778L21.9472 159.868C21.9761 159.906 22.0159 159.934 22.0613 159.948C22.1067 159.962 22.1557 159.962 22.2018 159.947C22.248 159.933 22.2891 159.904 22.3199 159.866C22.3506 159.827 22.3696 159.78 22.3744 159.732Z" fill="white"/>
<path d="M30.1695 114.327C30.1695 114.387 30.1882 114.446 30.223 114.495C30.2579 114.544 30.3072 114.581 30.364 114.601C30.4209 114.621 30.4826 114.623 30.5406 114.606C30.5985 114.59 30.6499 114.555 30.6875 114.508L33.0958 111.509C33.2348 111.336 33.4114 111.197 33.6128 111.101C33.8141 111.005 34.0349 110.955 34.259 110.955L43.483 110.955C43.8727 110.955 44.2526 110.835 44.5712 110.612C44.8898 110.39 45.1318 110.075 45.2642 109.71L45.755 108.347C45.8191 108.17 45.8398 107.98 45.8152 107.794C45.7906 107.607 45.7214 107.429 45.6136 107.275C45.5058 107.121 45.3624 106.995 45.1956 106.908C45.0288 106.821 44.8435 106.775 44.6553 106.775L34.4226 106.775C34.2045 106.775 33.9904 106.718 33.8021 106.61C33.6137 106.501 33.4578 106.345 33.3502 106.157L31.5054 102.967C31.4232 102.82 31.2917 102.706 31.134 102.646C30.9763 102.586 30.8025 102.583 30.643 102.638C30.4836 102.694 30.3487 102.803 30.2621 102.948C30.1756 103.093 30.1428 103.264 30.1695 103.43C30.3089 104.412 30.2877 105.399 30.1059 106.393C30.0828 106.508 30.0214 106.612 29.9319 106.686C29.8425 106.761 29.7306 106.802 29.6152 106.802L27.1888 106.802C26.6394 106.802 26.1103 107.01 25.7075 107.384L22.4359 110.482C22.392 110.524 22.3616 110.578 22.3487 110.636C22.3358 110.695 22.341 110.757 22.3636 110.813C22.3862 110.869 22.4251 110.917 22.4753 110.95C22.5255 110.984 22.5846 111.001 22.6449 111L29.6697 111C29.7353 111 29.8003 111.013 29.861 111.039C29.9216 111.064 29.9767 111.1 30.0231 111.147C30.0695 111.193 30.1064 111.248 30.1315 111.309C30.1566 111.37 30.1695 111.435 30.1695 111.5L30.1695 114.327Z" fill="white"/>
<path d="M33.6686 142.815L33.6695 142.761C33.6773 142.264 34.0863 141.868 34.5832 141.875L43.5971 142.017C44.0939 142.025 44.4903 142.434 44.4825 142.931L44.4817 142.985C44.4738 143.482 44.0648 143.879 43.5679 143.871L34.554 143.729C34.0572 143.721 33.6608 143.312 33.6686 142.815Z" fill="white"/>
<path d="M44.2578 160.276C44.2415 160.192 44.2061 160.113 44.1543 160.045C44.1025 159.977 44.0358 159.922 43.9593 159.885C43.8828 159.847 43.7985 159.827 43.7132 159.827C43.6278 159.827 43.5436 159.847 43.4672 159.885L34.0977 164.547C34.024 164.584 33.9607 164.639 33.9132 164.706C33.8658 164.774 33.8358 164.852 33.8259 164.934C33.816 165.016 33.8265 165.099 33.8565 165.175C33.8865 165.252 33.935 165.32 33.9978 165.374C36.5787 167.61 39.5686 169.3 42.9674 170.445C43.0939 170.485 43.2313 170.475 43.3502 170.415C43.4691 170.356 43.56 170.252 43.6035 170.127C44.7061 166.922 44.9242 163.638 44.2578 160.276Z" fill="white"/>
<path d="M44.5757 116.16C44.5601 116.077 44.5252 115.999 44.4736 115.932C44.4221 115.865 44.3554 115.811 44.2787 115.774C44.2021 115.737 44.1176 115.718 44.0319 115.719C43.9463 115.72 43.8618 115.74 43.7851 115.778L34.4974 120.477C34.4255 120.514 34.3637 120.569 34.3175 120.635C34.2713 120.702 34.242 120.779 34.2322 120.859C34.2224 120.94 34.2323 121.022 34.2611 121.097C34.2898 121.173 34.3367 121.241 34.3975 121.295C36.9784 123.506 39.9622 125.169 43.3488 126.284C43.4739 126.326 43.611 126.317 43.7302 126.257C43.8494 126.198 43.941 126.093 43.985 125.966C45.0634 122.767 45.2603 119.498 44.5757 116.16Z" fill="white"/>
<path d="M39.8601 140.055C36.5629 140.009 33.897 139.472 33.9056 138.854C33.9142 138.237 36.5941 137.774 39.8913 137.82C43.1884 137.866 45.8543 138.404 45.8457 139.021C45.8371 139.638 43.1572 140.101 39.8601 140.055Z" fill="white"/>
<path d="M34.4324 146.743L34.433 146.689C34.4387 146.222 34.8217 145.848 35.2885 145.854L43.6849 145.957C44.1516 145.962 44.5253 146.345 44.5196 146.812L44.519 146.867C44.5133 147.333 44.1303 147.707 43.6636 147.701L35.2671 147.599C34.8004 147.593 34.4267 147.21 34.4324 146.743Z" fill="white"/>
<path d="M40.5418 99.9864C37.415 99.9646 34.8837 99.4505 34.888 98.8382C34.8923 98.2259 37.4305 97.7472 40.5572 97.7691C43.684 97.7909 46.2153 98.305 46.211 98.9173C46.2067 99.5296 43.6685 100.008 40.5418 99.9864Z" fill="white"/>
<path d="M35.3494 102.255L35.3504 102.2C35.3597 101.719 35.7577 101.336 36.2394 101.345L44.4532 101.503C44.935 101.512 45.318 101.91 45.3087 102.392L45.3077 102.446C45.2984 102.928 44.9004 103.311 44.4187 103.302L36.2049 103.144C35.7232 103.135 35.3401 102.737 35.3494 102.255Z" fill="white"/>
</g>
</svg>
