<svg width="212" height="164" viewBox="0 0 212 164" fill="none" xmlns="http://www.w3.org/2000/svg">
<path d="M136.295 18.6747L1.1543 162.911H136.727L211.154 0.5H178.229C170.918 0.5 163.675 1.89495 156.887 4.61003C149.076 7.73439 142.047 12.5356 136.295 18.6747Z" fill="#FFC426"/>
<path d="M1.1543 162.911L136.295 18.6746C142.047 12.5356 149.076 7.73439 156.887 4.61003C163.675 1.89496 170.918 0.5 178.229 0.5H211.154M1.1543 162.911H136.727L211.154 0.5M1.1543 162.911L136.295 18.6747C142.047 12.5356 149.076 7.73439 156.887 4.61003C163.675 1.89495 170.918 0.5 178.229 0.5H211.154" stroke="#C2C2C2" stroke-opacity="0.4"/>
<mask id="mask0_327_123175" style="mask-type:alpha" maskUnits="userSpaceOnUse" x="1" y="0" width="211" height="163">
<path d="M136.295 18.6747L1.1543 162.911H136.727L211.154 0.5H178.229C170.918 0.5 163.675 1.89495 156.887 4.61003C149.076 7.73439 142.047 12.5356 136.295 18.6747Z" fill="#1C325C"/>
</mask>
<g mask="url(#mask0_327_123175)">
<path d="M72.1543 53.5V162.5H112.073C114.492 160.391 117.119 158.644 119.954 157.258C121.195 156.653 122.236 155.912 123.331 155.175C124.442 154.403 127.034 152.716 131.106 150.113C133.325 148.695 134.664 146.615 135.122 143.873C135.42 139.565 133.795 136.455 130.249 134.543C129.115 133.932 127.846 133.661 126.553 133.341C124.928 136.807 122.351 139.232 118.821 140.618C117.823 141.012 116.495 141.469 114.839 141.989C113.361 142.454 112.848 142.875 111.724 141.683C108.73 138.518 107.517 134.722 108.086 130.294C108.363 128.156 109.092 125.715 110.27 122.969C110.629 122.133 110.929 120.696 111.171 118.658L110.416 118.885C109.645 123.459 107.31 127.586 106.521 131.961C105.247 139.058 110.861 144.212 116.064 147.875C116.127 147.919 116.174 147.982 116.2 148.055C116.226 148.127 116.229 148.206 116.209 148.28C116.189 148.354 116.147 148.42 116.088 148.47C116.029 148.52 115.957 148.55 115.88 148.558C106.782 149.391 97.7766 145.511 91.9051 138.418C86.2759 131.622 84.5706 122.427 86.4696 113.75C86.1015 112.375 86.2904 110.889 87.0364 109.293C87.103 109.148 87.1281 108.985 87.1091 108.824L87.08 108.586C86.4567 103.742 86.5843 99.1557 87.4627 94.828C89.2746 85.89 95.5723 78.26 103.44 73.7546C114.185 67.6022 126.959 65.7661 139.24 67.0112C154.562 68.5646 168.533 73.5592 181.154 81.995V53.5H72.1543Z" fill="#FFC426"/>
<path d="M87.08 108.586C87.1155 108.325 87.1107 108.068 87.0655 107.816C87.0494 107.713 87.0511 107.609 87.0703 107.506C88.6819 99.5772 91.9083 92.7595 96.7495 87.0527C101.371 81.6076 107.391 77.8208 114.81 75.6925C119.644 74.3022 125.162 74.2101 129.74 75.6198C137.467 77.9985 142.471 84.243 142.665 92.4155C150.523 92.5189 158.376 92.5269 166.224 92.4398C170.148 92.3945 175.125 92.6626 181.154 93.2439V81.9951C168.533 73.5593 154.562 68.5647 139.24 67.0113C126.959 65.7662 114.185 67.6023 103.44 73.7547C95.5723 78.2601 89.2746 85.8901 87.4627 94.8281C86.5843 99.1558 86.4567 103.742 87.08 108.586Z" fill="#626A6D"/>
<path d="M87.0789 108.587L87.108 108.824C87.127 108.986 87.1019 109.148 87.0353 109.294C86.2893 110.889 86.1003 112.375 86.4685 113.751C86.7979 112.481 87.1661 111.27 87.573 110.117C87.8056 109.462 88.4515 109.257 89.5108 109.502C90.3441 103.379 92.2722 97.8351 95.2951 92.8711C100.046 85.0684 106.972 79.9623 116.073 77.553C120.549 76.3677 124.92 76.4727 129.187 77.8679C133.731 79.3503 136.838 82.1988 138.508 86.4135C140.3 90.9382 139.525 96.1702 137.064 100.215C135.355 103.022 132.885 105.226 129.652 106.828C126.448 108.414 123.196 109.069 119.895 108.795C117.793 108.617 115.685 108.448 113.573 108.286C112.391 108.196 110.612 108.299 108.235 108.596C106.164 108.855 104.495 109.534 103.225 110.636C105.483 110.209 107.408 110.765 109 112.302C111.597 111.873 114.534 111.886 117.812 112.341C125.324 113.391 131.779 111.215 137.175 105.815C140.802 102.185 142.632 97.7188 142.664 92.4158C142.47 84.2432 137.466 77.9987 129.739 75.6201C125.161 74.2103 119.643 74.3024 114.809 75.6927C107.39 77.8211 101.37 81.6078 96.7484 87.053C91.9072 92.7597 88.6808 99.5775 87.0692 107.506C87.0499 107.609 87.0483 107.714 87.0644 107.816C87.1096 108.068 87.1144 108.325 87.0789 108.587Z" fill="#C1C2C8"/>
<path d="M89.5117 109.502C89.7346 109.961 89.9413 110.494 90.1318 111.101C91.3962 115.117 95.64 115.548 98.9439 113.852C99.3702 113.633 100.082 113.103 101.08 112.263C101.771 111.685 102.487 111.143 103.226 110.636C104.496 109.534 106.165 108.855 108.236 108.596C110.613 108.299 112.392 108.196 113.574 108.286C115.686 108.448 117.794 108.617 119.896 108.795C123.197 109.069 126.449 108.414 129.653 106.828C132.886 105.226 135.356 103.022 137.065 100.215C139.526 96.1702 140.301 90.9382 138.508 86.4135C136.839 82.1988 133.732 79.3503 129.188 77.8679C124.921 76.4727 120.55 76.3677 116.074 77.553C106.973 79.9623 100.047 85.0683 95.296 92.8711C92.2731 97.835 90.345 103.379 89.5117 109.502ZM131.614 89.1382C132.377 92.3189 131.65 95.7199 129.592 98.5928C127.534 101.466 124.313 103.575 120.639 104.457C116.965 105.339 113.138 104.922 110 103.296C106.861 101.671 104.669 98.971 103.906 95.7902C103.142 92.6094 103.869 89.2085 105.928 86.3356C107.986 83.4627 111.206 81.3531 114.88 80.471C118.555 79.5889 122.382 80.0065 125.52 81.6319C128.658 83.2573 130.85 85.9574 131.614 89.1382ZM91.7111 107.695C91.7111 107.182 91.9148 106.691 92.2773 106.328C92.6398 105.966 93.1314 105.762 93.644 105.762C94.1567 105.762 94.6483 105.966 95.0108 106.328C95.3733 106.691 95.577 107.182 95.577 107.695C95.577 108.208 95.3733 108.699 95.0108 109.062C94.6483 109.424 94.1567 109.628 93.644 109.628C93.1314 109.628 92.6398 109.424 92.2773 109.062C91.9148 108.699 91.7111 108.208 91.7111 107.695Z" fill="#E2E3E5"/>
<path d="M131.612 89.1374C130.848 85.9566 128.657 83.2565 125.518 81.6311C122.38 80.0057 118.553 79.5881 114.879 80.4703C111.205 81.3524 107.984 83.4619 105.926 86.3348C103.868 89.2077 103.141 92.6086 103.904 95.7894C104.668 98.9702 106.86 101.67 109.998 103.296C113.136 104.921 116.963 105.339 120.638 104.457C124.312 103.574 127.532 101.465 129.59 98.592C131.648 95.7191 132.376 92.3182 131.612 89.1374ZM110.952 88.2051C110.952 86.7584 111.527 85.371 112.55 84.348C113.572 83.325 114.96 82.7503 116.407 82.7503C117.123 82.7503 117.832 82.8914 118.494 83.1655C119.156 83.4397 119.757 83.8415 120.264 84.348C120.77 84.8545 121.172 85.4559 121.446 86.1177C121.72 86.7795 121.862 87.4888 121.862 88.2051C121.862 88.9215 121.72 89.6308 121.446 90.2926C121.172 90.9544 120.77 91.5558 120.264 92.0623C119.757 92.5688 119.156 92.9706 118.494 93.2448C117.832 93.5189 117.123 93.66 116.407 93.66C114.96 93.66 113.572 93.0853 112.55 92.0623C111.527 91.0393 110.952 89.6519 110.952 88.2051Z" fill="white"/>
<path d="M110.954 88.2048C110.954 89.6516 111.528 91.039 112.551 92.062C113.574 93.085 114.962 93.6597 116.408 93.6597C117.125 93.6597 117.834 93.5186 118.496 93.2445C119.158 92.9703 119.759 92.5685 120.266 92.062C120.772 91.5555 121.174 90.9541 121.448 90.2923C121.722 89.6305 121.863 88.9212 121.863 88.2048C121.863 87.4885 121.722 86.7792 121.448 86.1174C121.174 85.4556 120.772 84.8542 120.266 84.3477C119.759 83.8412 119.158 83.4394 118.496 83.1652C117.834 82.8911 117.125 82.75 116.408 82.75C114.962 82.75 113.574 83.3247 112.551 84.3477C111.528 85.3707 110.954 86.7581 110.954 88.2048ZM113.56 88.2C113.56 87.4368 113.863 86.7049 114.403 86.1652C114.942 85.6256 115.674 85.3224 116.438 85.3224C117.201 85.3224 117.933 85.6256 118.472 86.1652C119.012 86.7049 119.315 87.4368 119.315 88.2C119.315 88.9632 119.012 89.6951 118.472 90.2348C117.933 90.7744 117.201 91.0776 116.438 91.0776C115.674 91.0776 114.942 90.7744 114.403 90.2348C113.863 89.6951 113.56 88.9632 113.56 88.2Z" fill="#FFC426"/>
<path d="M116.437 91.0794C114.848 91.0794 113.559 89.7911 113.559 88.2018C113.559 86.6126 114.848 85.3242 116.437 85.3242C118.026 85.3242 119.314 86.6126 119.314 88.2018C119.314 89.7911 118.026 91.0794 116.437 91.0794Z" fill="black"/>
<path d="M142.665 92.416C142.633 97.7191 140.803 102.186 137.176 105.816C131.78 111.216 125.325 113.391 117.813 112.341C114.535 111.886 111.598 111.873 109.001 112.302C110.474 114.395 110.425 116.464 110.416 118.886L111.171 118.658C111.388 117.367 111.344 116.038 111.041 114.671C111.028 114.613 111.028 114.552 111.04 114.494C111.053 114.435 111.077 114.38 111.113 114.331C111.148 114.283 111.193 114.242 111.245 114.213C111.297 114.183 111.354 114.164 111.414 114.158C118.474 113.46 123.505 116.133 126.509 122.175C126.984 123.125 127.202 124.351 127.497 125.431C135.994 124.346 142.234 124.104 151.279 123.919C161.273 123.721 171.194 123.135 181.154 122.766V93.2444C175.125 92.6631 170.148 92.395 166.224 92.4402C158.376 92.5274 150.523 92.5194 142.665 92.416Z" fill="#6F787C"/>
<path d="M93.6471 109.628C92.5796 109.628 91.7142 108.762 91.7142 107.695C91.7142 106.627 92.5796 105.762 93.6471 105.762C94.7147 105.762 95.5801 106.627 95.5801 107.695C95.5801 108.762 94.7147 109.628 93.6471 109.628Z" fill="black"/>
<path d="M89.5128 109.502C88.4534 109.256 87.8075 109.461 87.575 110.117C87.1681 111.27 86.7999 112.481 86.4705 113.75C84.5714 122.427 86.2767 131.621 91.9059 138.418C97.7774 145.51 106.783 149.391 115.881 148.558C115.958 148.55 116.03 148.52 116.089 148.47C116.147 148.42 116.19 148.354 116.21 148.28C116.23 148.206 116.227 148.127 116.201 148.055C116.175 147.982 116.128 147.919 116.065 147.875C110.862 144.212 105.248 139.058 106.522 131.961C107.311 127.586 109.646 123.459 110.417 118.885C110.426 116.463 110.475 114.395 109.002 112.302C107.41 110.764 105.485 110.209 103.227 110.635C102.488 111.142 101.772 111.685 101.081 112.263C100.083 113.103 99.3712 113.632 98.9449 113.852C95.641 115.548 91.3973 115.116 90.1329 111.1C89.9423 110.493 89.7356 109.96 89.5128 109.502Z" fill="black"/>
<path d="M111.17 118.658C110.928 120.696 110.628 122.133 110.269 122.969C109.09 125.714 108.362 128.156 108.084 130.294C107.516 134.722 108.729 138.518 111.722 141.683C112.846 142.875 113.36 142.454 114.837 141.988C116.494 141.468 117.822 141.011 118.819 140.617C122.349 139.232 124.927 136.807 126.551 133.341C127.572 130.806 127.887 128.169 127.496 125.43C127.2 124.35 126.982 123.124 126.508 122.175C123.504 116.132 118.472 113.46 111.412 114.157C111.353 114.163 111.295 114.182 111.243 114.212C111.191 114.242 111.146 114.282 111.111 114.331C111.076 114.379 111.051 114.434 111.039 114.493C111.027 114.552 111.027 114.612 111.039 114.671C111.343 116.037 111.387 117.366 111.17 118.658Z" fill="black"/>
<path d="M127.497 125.43C127.888 128.169 127.573 130.806 126.553 133.341C127.846 133.661 129.115 133.932 130.249 134.542C133.795 136.454 135.42 139.565 135.122 143.873C143.687 143.095 152.268 142.885 160.866 143.243C167.629 143.524 174.391 143.82 181.154 144.13V122.766C171.194 123.134 161.273 123.72 151.279 123.919C142.234 124.103 135.994 124.345 127.497 125.43Z" fill="#798286"/>
<path d="M135.122 143.874C134.664 146.616 133.325 148.695 131.106 150.113C127.034 152.716 124.442 154.404 123.331 155.176C127.462 154.349 131.581 153.743 135.689 153.359C138.357 153.107 140.989 153.198 143.586 153.63C146.143 154.008 147.808 154.305 148.58 154.522C152.185 155.523 155.448 156.816 158.371 158.402C160.192 159.387 162.211 160.753 164.426 162.5H181.154V144.13C174.391 143.82 167.629 143.525 160.866 143.244C152.268 142.885 143.687 143.095 135.122 143.874Z" fill="#82888F"/>
<path d="M123.331 155.174C122.236 155.911 121.194 156.652 119.954 157.258C117.119 158.643 114.491 160.39 112.072 162.499H160.807L161.389 162.373C160.851 161.24 158.966 160.334 157.755 159.626C157.507 159.481 157.124 159.144 156.607 158.614C156.506 158.51 156.376 158.439 156.234 158.411C156.021 158.365 155.903 158.336 155.881 158.323C153.694 157.161 151.916 156.371 150.547 155.954C149.216 155.547 148.049 155.147 147.044 154.753C145.659 154.21 144.464 153.973 143.459 154.041C143.414 154.044 143.354 154.026 143.28 153.988C143.222 153.958 143.172 153.931 143.13 153.905C143.114 153.893 143.101 153.877 143.094 153.858C143.087 153.839 143.085 153.818 143.089 153.798C143.093 153.779 143.103 153.76 143.117 153.746C143.131 153.731 143.149 153.721 143.169 153.716L143.585 153.629C140.989 153.196 138.357 153.106 135.689 153.358C131.581 153.742 127.461 154.348 123.331 155.174Z" fill="#6F787C"/>
<path d="M143.587 153.63L143.17 153.717C143.151 153.722 143.133 153.732 143.119 153.747C143.105 153.761 143.095 153.779 143.091 153.799C143.087 153.819 143.089 153.84 143.096 153.859C143.103 153.877 143.115 153.894 143.132 153.906C143.174 153.932 143.224 153.959 143.282 153.988C143.356 154.027 143.416 154.045 143.461 154.042C144.465 153.974 145.66 154.211 147.046 154.754C148.05 155.148 149.218 155.548 150.548 155.955C151.918 156.372 153.696 157.161 155.882 158.324C155.905 158.337 156.023 158.366 156.236 158.411C156.378 158.44 156.508 158.511 156.609 158.615C157.126 159.144 157.508 159.482 157.757 159.627C158.968 160.335 160.853 161.241 161.39 162.374C161.377 162.416 161.366 162.458 161.356 162.5H164.428C162.212 160.753 160.194 159.387 158.372 158.402C155.449 156.816 152.186 155.522 148.582 154.521C147.81 154.305 146.145 154.008 143.587 153.63Z" fill="#626A6D"/>
<path d="M160.807 162.5H161.355C161.364 162.458 161.376 162.416 161.389 162.374L160.807 162.5Z" fill="#FFC426"/>
</g>
</svg>
