<svg width="212" height="164" viewBox="0 0 212 164" fill="none" xmlns="http://www.w3.org/2000/svg">
<path d="M136.297 18.6747L1.15625 162.911H136.729L211.156 0.5H178.231C170.92 0.5 163.677 1.89495 156.889 4.61003C149.078 7.73439 142.049 12.5356 136.297 18.6747Z" fill="white"/>
<path d="M1.15625 162.911L136.297 18.6746C142.049 12.5356 149.078 7.73439 156.889 4.61003C163.677 1.89496 170.92 0.5 178.231 0.5H211.156M1.15625 162.911H136.729L211.156 0.5M1.15625 162.911L136.297 18.6747C142.049 12.5356 149.078 7.73439 156.889 4.61003C163.677 1.89495 170.92 0.5 178.231 0.5H211.156" stroke="#C2C2C2" stroke-opacity="0.4"/>
<mask id="mask0_470_149232" style="mask-type:alpha" maskUnits="userSpaceOnUse" x="1" y="0" width="211" height="163">
<path d="M136.297 18.6747L1.15625 162.911H136.729L211.156 0.5H178.231C170.92 0.5 163.677 1.89495 156.889 4.61003C149.078 7.73439 142.049 12.5356 136.297 18.6747Z" fill="#100D5C"/>
</mask>
<g mask="url(#mask0_470_149232)">
<path d="M175.727 81.3703C175.937 81.3281 175.895 81.0122 175.685 81.0122H126.994C129.824 88.8051 131.605 96.5349 132.611 102.727C132.674 103.064 134.477 114.058 136.258 120.019V120.04C139.822 103.443 158.938 85.688 175.727 81.3703ZM104.377 156.077C104.252 156.267 104.126 156.435 104 156.625C109.408 160.458 115.822 162.796 123.326 162.796H175.727C175.832 162.796 175.853 162.627 175.727 162.627C153.74 160.353 141.792 139.164 136.217 120.04C122.592 131.498 110.98 146.199 104.377 156.077Z" fill="#0B2A41"/>
<path d="M132.586 102.727C129.274 82.1916 117.389 44.6382 87.2899 44.6382H37.194C37.0892 44.6382 37.0263 44.7014 37.0053 44.7646C36.9844 44.8488 37.0263 44.9541 37.1101 44.9541C58.1966 47.6922 69.8507 70.5865 74.986 89.5212C77.0821 97.2509 83.8733 102.011 92.593 102.011H107.328C111.562 102.011 115.147 102.58 118.249 103.254C132.376 106.35 136.212 119.998 136.212 119.998C134.472 114.079 132.649 103.064 132.586 102.727Z" fill="#34C0CC"/>
<path d="M83.539 146.156C81.0027 145.23 79.7032 145.946 77.4185 146.093C74.3163 146.304 72.9539 143.966 72.8071 142.407C72.6394 140.617 71.5495 137.689 71.5495 137.689C79.9757 140.364 83.539 146.156 83.539 146.156ZM68.4892 149.295C69.2648 148.768 70.9835 147.926 72.9958 148.284C73.7084 148.41 75.3224 148.473 77.0412 147.968C79.4516 147.252 84.2936 147.947 84.587 147.989C81.0866 148.284 77.5442 149.105 74.0648 151.253C67.7556 155.171 64.4019 152.98 64.4019 152.98C65.0098 152.18 66.1836 150.853 68.4892 149.295ZM86.746 152.665C87.3538 154.476 87.9407 159.468 88.3599 163.174C88.8001 166.86 87.4376 169.683 85.1948 172.631C84.5451 173.495 83.8534 174.295 83.1198 174.969C81.0656 176.907 79.8499 178.929 79.8499 178.929C79.6193 169.493 83.8534 164.354 84.9643 161.047C86.0962 157.825 86.704 152.959 86.746 152.665ZM70.1242 157.446C72.0106 157.235 75.029 156.034 77.4604 153.486C81.1914 149.547 85.5721 148.873 85.5721 148.873C80.6883 151.506 76.2237 158.141 76.2237 158.141C68.8665 168.735 62.9766 165.133 62.9766 165.133C62.9766 165.07 62.9975 165.007 62.9975 164.923C63.9198 160.394 65.6805 157.951 70.1242 157.446ZM72.7442 168.461C74.6936 166.692 76.4124 164.649 77.9425 162.479C80.6464 158.625 82.6377 154.939 83.4971 152.98C84.7128 150.2 86.0542 150.221 86.0542 150.221C85.2158 151.548 84.9852 153.044 84.9852 153.044C83.6438 161.216 81.5477 162.732 79.1791 166.397C77.6071 168.84 76.7477 170.799 76.3495 171.81C75.9722 172.8 75.553 173.769 75.0918 174.737C71.5285 181.877 68.7198 181.182 68.7198 181.182C67.8604 174.042 70.8787 170.125 72.7442 168.461Z" fill="#DE5D31"/>
<path d="M61.6949 198.896C61.7159 198.37 62.0093 197.864 62.4705 197.633C63.2041 197.275 64.1892 197.717 64.4407 198.475C65.2163 198.286 65.4469 197.275 65.4888 196.474C65.7193 193.441 65.9499 190.366 65.6565 187.333C64.839 178.466 59.7456 170.442 58.8652 161.575C58.3831 156.709 59.2216 151.697 61.2547 147.252C59.6198 149.443 57.9639 151.633 56.329 153.845C57.2513 154.055 57.7124 155.319 57.1674 156.098C56.6224 156.878 55.281 156.836 54.7779 156.035C46.1212 169.157 35.6618 181.078 23.7771 191.356C14.8688 199.065 4.74486 206.078 -6.90926 208.69C-7.49616 208.817 -9.75991 208.964 -9.84375 209.512C-7.39135 209.87 -4.64552 209.575 -2.1512 209.575C0.531757 209.575 3.21473 209.596 5.89769 209.596L21.9954 209.659C29.0173 209.68 36.081 209.701 42.9771 208.437C49.8731 207.153 56.6853 204.478 61.8626 199.718C61.7368 199.465 61.674 199.191 61.6949 198.896ZM64.0215 192.03V192.093C64.0635 192.662 63.6652 193.146 63.1412 193.167H62.9735C62.5124 193.104 62.0932 192.704 62.0303 192.22L62.0093 192.135C61.9255 191.588 62.3237 191.124 62.8897 191.082C63.4766 191.019 63.9796 191.461 64.0215 192.03ZM63.6862 185.543V185.606C63.7072 186.027 63.3508 186.386 62.8897 186.407H62.8058C62.3866 186.364 62.0722 186.027 62.0513 185.606V185.543C62.0303 185.08 62.3866 184.743 62.8478 184.743C63.2879 184.764 63.6652 185.122 63.6862 185.543ZM56.1194 157.783C56.6853 157.804 57.1465 158.289 57.1255 158.879V158.942C57.1045 159.51 56.6644 159.932 56.1404 159.89C56.0775 159.89 56.0355 159.869 55.9727 159.869C55.5115 159.742 55.1552 159.3 55.1133 158.815V158.731C55.0923 158.184 55.5325 157.762 56.1194 157.783ZM55.281 163.449C54.5893 163.302 54.0862 162.649 54.1491 161.933V161.848C54.212 161.069 54.9036 160.543 55.6792 160.669C56.4547 160.774 57.0207 161.469 56.9578 162.185V162.27C56.8949 163.007 56.2032 163.533 55.4277 163.47C55.3857 163.47 55.3438 163.47 55.281 163.449ZM55.826 165.239C56.2452 164.923 56.853 164.987 57.1674 165.408L57.2093 165.471C57.5237 165.892 57.4399 166.503 57.0207 166.819C56.8321 166.966 56.6015 167.03 56.3709 167.009C56.0984 166.987 55.8469 166.861 55.6792 166.629L55.6583 166.587C55.3229 166.166 55.4067 165.555 55.826 165.239ZM55.8679 170.568L55.826 170.505C55.3858 169.915 55.5744 169.136 56.2452 168.757C56.9369 168.357 57.8382 168.504 58.2364 169.115L58.2783 169.199C58.6556 169.831 58.425 170.673 57.7753 171.052C57.5237 171.179 57.2722 171.242 56.9997 171.221C56.5595 171.179 56.1194 170.947 55.8679 170.568ZM56.5596 173.664L56.5386 173.601C56.2661 173.032 56.5386 172.337 57.1255 172.084C57.6914 171.832 58.3831 172.084 58.6975 172.611L58.7395 172.674C59.0539 173.201 58.8023 173.833 58.2154 174.106C58.0268 174.191 57.8172 174.233 57.6285 174.254C57.1674 174.275 56.7482 174.043 56.5596 173.664ZM59.3473 177.75C58.8442 177.687 58.3622 177.329 58.1525 176.781L58.1106 176.697C57.7962 175.981 58.1316 175.202 58.8443 174.949C59.5779 174.696 60.3744 175.096 60.6469 175.834L60.6678 175.918C60.9194 176.655 60.5421 177.455 59.8713 177.687C59.7036 177.75 59.5359 177.771 59.3473 177.75ZM59.8085 179.583L59.7875 179.519C59.6408 178.993 59.9552 178.445 60.5001 178.298C61.0242 178.15 61.5901 178.487 61.7578 179.035L61.7788 179.098C61.9674 179.646 61.674 180.214 61.108 180.341C60.9823 180.362 60.8565 180.383 60.7517 180.362C60.3325 180.299 59.9342 180.004 59.8085 179.583ZM60.6259 183.226V183.163C60.5211 182.51 60.9613 181.857 61.6111 181.689C62.2608 181.499 62.9106 181.92 63.0364 182.594L63.0574 182.7C63.1831 183.395 62.743 184.048 62.0513 184.195C61.9255 184.216 61.8207 184.216 61.7159 184.216C61.1709 184.153 60.7098 183.753 60.6259 183.226ZM61.2338 188.85V188.787C61.129 188.049 61.632 187.333 62.3657 187.186C63.0783 187.038 63.7491 187.544 63.8748 188.344L63.8958 188.429C64.0216 189.208 63.5185 189.945 62.7849 190.05C62.6801 190.05 62.5962 190.071 62.4914 190.05C61.8626 190.008 61.3386 189.524 61.2547 188.871L61.2338 188.85ZM61.4434 195.337C61.4224 194.558 62.0303 193.947 62.8058 193.968C63.5814 193.989 64.2312 194.621 64.2521 195.358V195.442C64.2731 196.179 63.6652 196.79 62.8897 196.811H62.743C62.0303 196.748 61.4643 196.158 61.4434 195.442V195.337Z" fill="#DE5D31"/>
<path d="M74.7394 132.425C69.3106 135.837 64.9298 140.955 62.3936 146.873C60.549 151.17 59.6896 155.846 59.8364 160.521C59.9831 165.345 61.4084 169.536 63.2111 173.959C66.1875 181.225 67.3193 189.229 66.5019 197.022C67.487 196.769 67.8433 195.589 68.011 194.6C68.7027 190.198 68.4931 185.648 67.3403 181.352C65.894 175.854 62.9805 170.8 61.9743 165.218C60.8844 159.237 62.0792 153.002 64.5316 147.442C67.0049 141.86 70.694 136.953 74.7394 132.425ZM90.921 173.517C90.921 173.517 90.921 173.495 90.942 173.495C91.466 172.463 91.7175 171.326 91.9271 170.189C93.1848 163.175 92.4721 155.698 89.1603 149.401C87.4206 146.094 84.9891 143.166 83.4171 139.775C81.887 136.511 81.1743 132.909 80.4826 129.371C79.9376 129.244 79.3717 129.645 79.1411 130.15C78.9106 130.655 78.9315 131.245 78.9944 131.814C79.4346 136.047 81.4678 139.944 83.6477 143.566C85.8485 147.21 88.28 150.749 89.7053 154.771C92.5769 162.88 90.7114 171.305 86.6031 178.571C88.1332 177.308 89.9987 175.328 90.921 173.517Z" fill="#DE5D31"/>
<path d="M132.309 118.145C129.06 117.092 125.518 116.839 122.081 117.155C117.176 117.597 112.418 119.093 107.723 120.567C100.156 122.947 92.568 125.348 85.0012 127.728C85.106 128.402 84.6658 129.097 84.037 129.308C83.4082 129.518 82.6326 129.202 82.3182 128.613C82.0038 128.739 81.6894 128.844 81.375 128.971C82.0667 132.256 82.5278 135.774 83.9532 138.828C85.2947 141.734 87.3278 144.262 88.9627 147.021C93.3435 154.413 94.6221 163.596 92.4632 171.916C93.616 170.484 94.7898 169.073 95.9426 167.64C95.1252 167.282 94.8527 166.04 95.4605 165.387C96.0684 164.713 97.3051 164.86 97.7453 165.661C108.917 149.064 120.949 132.762 136.355 120.04C135.076 119.219 133.714 118.608 132.309 118.145ZM83.5759 132.172L83.534 132.088C83.2615 131.498 83.534 130.761 84.1628 130.445C84.2676 130.382 84.3724 130.34 84.4772 130.319C85.0012 130.192 85.5462 130.424 85.7767 130.929L85.7977 130.993C86.1121 131.603 85.8606 132.383 85.2317 132.699C84.6239 133.015 83.8693 132.762 83.5759 132.172ZM84.2466 134.763L84.2257 134.699C84.0999 134.257 84.3514 133.815 84.7706 133.71C84.7916 133.71 84.8335 133.689 84.8545 133.689C85.2527 133.646 85.6719 133.899 85.7767 134.278L85.7977 134.32C85.9235 134.742 85.6719 135.163 85.2527 135.289C84.8335 135.437 84.3724 135.205 84.2466 134.763ZM85.4413 138.743L85.3785 138.68C84.7916 138.196 84.7287 137.395 85.2737 136.89C85.4833 136.7 85.7348 136.553 86.0073 136.49C86.4685 136.384 86.9715 136.469 87.3278 136.764L87.3907 136.827C87.9566 137.332 87.9357 138.196 87.3907 138.743C86.8667 139.249 86.0073 139.249 85.4413 138.743ZM86.9296 141.397L86.9086 141.334C86.678 140.829 86.9086 140.26 87.4326 140.07C87.4955 140.049 87.5374 140.028 87.6003 140.028C88.0824 139.944 88.5855 140.218 88.7741 140.702L88.795 140.786C88.9837 141.334 88.7112 141.924 88.2082 142.071C87.7261 142.219 87.1601 141.924 86.9296 141.397ZM88.1453 144.093L88.1243 144.009C87.9357 143.272 88.3968 142.535 89.1304 142.366C89.1514 142.366 89.1724 142.366 89.1933 142.345C89.885 142.219 90.6396 142.682 90.8911 143.44L90.9121 143.524C91.1846 144.304 90.7654 145.062 89.9689 145.209C89.1724 145.336 88.3339 144.83 88.1453 144.093ZM92.1697 147.379C91.8553 147.8 91.2475 147.884 90.8283 147.568L90.7654 147.526C90.3462 147.189 90.2833 146.599 90.5977 146.178C90.7444 145.989 90.954 145.862 91.1846 145.82C91.4361 145.778 91.7296 145.841 91.9601 146.01L92.002 146.052C92.4212 146.368 92.4841 146.958 92.1697 147.379ZM92.5261 150.096L92.4841 150.012C92.1907 149.295 92.5051 148.516 93.2387 148.284C93.4274 148.221 93.616 148.2 93.8047 148.221C94.3496 148.263 94.8318 148.621 95.0204 149.19L95.0413 149.274C95.2719 150.033 94.9156 150.812 94.2239 151.044C93.5741 151.233 92.7985 150.812 92.5261 150.096ZM93.8047 152.834L93.7837 152.771C93.637 152.244 93.9724 151.696 94.4964 151.549C94.6012 151.528 94.7269 151.507 94.8317 151.528C95.2509 151.57 95.6283 151.865 95.754 152.286L95.775 152.349C95.9636 152.897 95.6492 153.466 95.0832 153.592C94.5383 153.697 93.9514 153.36 93.8047 152.834ZM94.7688 155.867L94.7898 155.783C94.9156 155.024 95.5863 154.477 96.299 154.561C96.4038 154.582 96.4876 154.603 96.5715 154.624C97.1374 154.835 97.5147 155.467 97.4309 156.141V156.246C97.3261 157.025 96.6553 157.552 95.9007 157.425C95.1462 157.32 94.6431 156.625 94.7688 155.867ZM97.5985 163.281V163.323C97.5356 163.744 97.1164 164.039 96.6763 163.976C96.2361 163.912 95.9217 163.491 95.9846 163.049V162.986C96.0474 162.543 96.4667 162.249 96.9069 162.354C96.9278 162.354 96.9697 162.375 96.9907 162.375C97.4099 162.501 97.6614 162.88 97.5985 163.281ZM97.2213 161.448C96.3409 161.617 95.5234 161.111 95.4186 160.29L95.3976 160.184C95.3138 159.363 95.9007 158.605 96.7392 158.521C96.9907 158.5 97.2422 158.521 97.4728 158.605C97.9968 158.794 98.395 159.216 98.4998 159.721L98.5208 159.805C98.6885 160.543 98.1016 161.28 97.2213 161.448Z" fill="#DE5D31"/>
</g>
</svg>
