<svg width="212" height="164" viewBox="0 0 212 164" fill="none" xmlns="http://www.w3.org/2000/svg">
<path d="M136.293 18.6747L1.15234 162.911H136.725L211.152 0.5H178.227C170.916 0.5 163.673 1.89495 156.885 4.61003C149.074 7.73439 142.045 12.5356 136.293 18.6747Z" fill="#04A494"/>
<path d="M1.15234 162.911L136.293 18.6746C142.045 12.5356 149.074 7.73439 156.885 4.61003C163.673 1.89496 170.916 0.5 178.227 0.5H211.152M1.15234 162.911H136.725L211.152 0.5M1.15234 162.911L136.293 18.6747C142.045 12.5356 149.074 7.73439 156.885 4.61003C163.673 1.89495 170.916 0.5 178.227 0.5H211.152" stroke="#C2C2C2" stroke-opacity="0.4"/>
<mask id="mask0_358_236527" style="mask-type:alpha" maskUnits="userSpaceOnUse" x="1" y="0" width="211" height="163">
<path d="M136.293 18.6747L1.15234 162.911H136.725L211.152 0.5H178.227C170.916 0.5 163.673 1.89495 156.885 4.61003C149.074 7.73439 142.045 12.5356 136.293 18.6747Z" fill="#040404"/>
</mask>
<g mask="url(#mask0_358_236527)">
<path d="M158.848 44.3811C193.503 37.1474 204.793 11.8106 211.058 0.536133L284.152 129.148C244.612 160.466 149.492 215.001 85.3362 182.597C5.14145 142.093 69.7404 95.0587 89.1019 78.6219C119.598 52.7325 120.839 52.3149 158.848 44.3811Z" fill="white"/>
<path fill-rule="evenodd" clip-rule="evenodd" d="M112.029 133.276C106.104 131.744 105.77 124.23 113.423 119.2C121.034 114.149 131.383 114.211 135.264 122.034C130.381 120.231 127.419 119.275 124.798 124.292C122.169 129.318 117.909 134.804 112.029 133.276ZM95.8548 132.024C99.5854 128.968 100.812 128.768 105.502 121.68C110.189 114.595 120.133 104.109 126.283 100.448C132.442 96.7914 138.289 95.5641 145.007 94.2325L154.884 92.2329C153.39 101.947 145.942 106.902 135.589 108.1C125.286 109.331 117.307 111.561 112.221 117.455L103.47 127.503C101.376 129.932 98.7842 131.427 95.8548 132.024ZM87.0216 93.6626L88.9161 85.6143C89.4794 83.9153 90.8815 82.8174 93.0097 82.8842L99.5277 83.047C101.89 83.1138 103.283 85.8105 102.724 88.4738L102.253 91.5963C101.794 94.9275 99.7655 97.3195 96.3688 98.8223C82.4649 103.615 72.8882 109.968 74.3528 120.684C75.8133 131.425 92.0791 132.69 101.226 119.849L122.441 90.0643C130.357 78.956 142.329 73.9008 156.333 72.2727L175.152 70.5361C172.031 80.8554 165.375 88.0062 155.135 89.9056C137.342 93.1659 124.281 96.7601 117.125 104.942L110.302 112.832L100.024 125.672C95.4091 131.425 88.7116 133.525 81.2047 132.155C74.5865 130.661 70.7266 126.303 71.1898 117.094C71.653 107.873 78.2127 97.691 87.0216 93.6626Z" fill="#04A494"/>
</g>
</svg>
