<svg width="212" height="164" viewBox="0 0 212 164" fill="none" xmlns="http://www.w3.org/2000/svg">
<path d="M136.293 18.6747L1.15234 162.911H136.725L211.152 0.5H178.227C170.916 0.5 163.673 1.89495 156.885 4.61003C149.074 7.73439 142.045 12.5356 136.293 18.6747Z" fill="white"/>
<path d="M1.15234 162.911L136.293 18.6746C142.045 12.5356 149.074 7.73439 156.885 4.61003C163.673 1.89496 170.916 0.5 178.227 0.5H211.152M1.15234 162.911H136.725L211.152 0.5M1.15234 162.911L136.293 18.6747C142.045 12.5356 149.074 7.73439 156.885 4.61003C163.673 1.89495 170.916 0.5 178.227 0.5H211.152" stroke="#C2C2C2" stroke-opacity="0.4"/>
<mask id="mask0_345_168522" style="mask-type:alpha" maskUnits="userSpaceOnUse" x="1" y="0" width="211" height="163">
<path d="M136.293 18.6747L1.15234 162.911H136.725L211.152 0.5H178.227C170.916 0.5 163.673 1.89495 156.885 4.61003C149.074 7.73439 142.045 12.5356 136.293 18.6747Z" fill="#1C325C"/>
</mask>
<g mask="url(#mask0_345_168522)">
<path d="M73.0614 90.3243L75.8464 90.6832C76.291 90.7258 76.7108 90.637 77.1058 90.4167C77.2125 90.3564 77.3344 90.328 77.457 90.335L80.0965 90.4664C80.1481 90.4688 80.1975 90.4809 80.242 90.502C80.443 90.5943 80.6323 90.6512 80.8096 90.6725C83.0494 90.9401 85.1946 91.2516 87.2452 91.6068C92.8293 92.5732 98.4371 94.2039 104.068 96.4989C110.841 99.2593 117.461 103.515 122.272 109.246C125.816 113.467 128.09 119.272 127.59 124.821C126.522 136.623 118.873 144.602 108.858 150.017C104.135 152.57 99.1691 154.479 93.961 155.743C93.9591 155.743 93.9573 155.744 93.956 155.746C93.9547 155.747 93.9539 155.749 93.9539 155.751L93.9362 155.914C93.9356 155.92 93.9365 155.926 93.9386 155.932C93.9407 155.938 93.9441 155.943 93.9485 155.948C93.9529 155.952 93.9582 155.956 93.964 155.958C93.9699 155.96 93.9761 155.961 93.9823 155.96C101.508 155.344 108.407 153.537 114.68 150.539C116.69 149.58 118.771 148.263 120.924 146.588C127.604 141.394 131.496 133.884 132.173 125.379C132.386 122.707 132.34 119.945 132.035 117.094C131.216 109.473 128.218 102.975 122.729 97.6961C119.619 94.7072 116.502 92.3825 113.378 90.7222C109.865 88.8571 107.116 87.4964 104.374 86.8285C104.149 89.1922 104.489 91.4126 105.395 93.4898C105.403 93.5105 105.404 93.5332 105.398 93.5546C105.393 93.576 105.38 93.5949 105.362 93.6085C105.345 93.6221 105.323 93.6296 105.301 93.63C105.279 93.6304 105.257 93.6236 105.239 93.6106C101.261 90.4581 96.7164 88.5231 91.6053 87.8055C88.708 87.4005 85.9609 87.333 83.364 87.603C81.9236 87.7546 80.501 87.9405 79.0961 88.1607C79.0746 88.1639 79.0527 88.1588 79.0344 88.1464C79.0161 88.1339 79.0027 88.115 78.9968 88.0932L78.9755 88.008C78.9755 88.0061 78.9758 88.0043 78.9765 88.003C78.9772 88.0016 78.9781 88.0009 78.979 88.0009L102.422 79.9789C102.706 76.2439 103.734 72.838 105.505 69.7614C105.526 69.7281 105.535 69.6886 105.53 69.6496C105.525 69.6106 105.507 69.5744 105.479 69.5473C105.45 69.5201 105.414 69.5036 105.374 69.5005C105.335 69.4975 105.296 69.508 105.264 69.5305C94.9284 76.1314 84.6412 82.6979 74.4025 89.2301C73.8183 89.6019 73.3713 89.9667 73.0614 90.3243Z" fill="#F7B608"/>
<path d="M102.423 79.979L78.98 88.001C78.9791 88.001 78.9782 88.0017 78.9775 88.003C78.9768 88.0044 78.9765 88.0062 78.9765 88.0081L78.9977 88.0933C79.0037 88.1151 79.0171 88.134 79.0354 88.1465C79.0537 88.1589 79.0756 88.164 79.0971 88.1608C80.502 87.9406 81.9246 87.7546 83.365 87.6031C85.9619 87.3331 88.709 87.4006 91.6063 87.8056C96.7174 88.5232 101.262 90.4582 105.24 93.6106C105.258 93.6236 105.28 93.6304 105.302 93.6301C105.324 93.6297 105.346 93.6222 105.363 93.6086C105.381 93.595 105.394 93.5761 105.399 93.5547C105.405 93.5333 105.404 93.5106 105.396 93.4899C104.49 91.4127 104.15 89.1923 104.375 86.8286C105.131 83.4298 106.917 80.654 109.732 78.5011C110.268 78.089 110.781 77.6354 111.268 77.1404C111.281 77.1301 111.289 77.1153 111.292 77.099C111.295 77.0827 111.291 77.066 111.283 77.052C111.274 77.038 111.26 77.0277 111.245 77.023C111.229 77.0183 111.212 77.0197 111.197 77.0267L102.423 79.979Z" fill="#16365D"/>
<path d="M73.0621 90.3245C72.8634 90.3837 72.7416 90.4559 72.6967 90.5412C72.6305 90.662 72.7097 90.7413 72.9344 90.7792C81.5199 92.2394 90.492 94.7049 98.4176 98.691C108.018 103.519 115.794 111.331 121.375 120.583C121.386 120.602 121.404 120.617 121.426 120.623C121.447 120.63 121.469 120.628 121.488 120.618L121.492 120.615C121.51 120.606 121.525 120.591 121.533 120.572C121.54 120.553 121.541 120.532 121.535 120.512C116.174 106.532 105.58 97.0888 91.237 93.0884C86.5753 91.7882 81.4454 90.9864 75.8471 90.6833L73.0621 90.3245Z" fill="#16365D"/>
<path d="M94.4583 160.202H99.0242C101.699 159.901 103.401 159.699 104.129 159.595C108.424 158.983 112.461 157.752 116.238 155.9C126.413 150.912 132.731 142.911 135.193 131.898C136.045 128.089 136.3 123.856 135.96 119.197C135.958 119.173 135.947 119.15 135.929 119.134C135.911 119.117 135.888 119.108 135.864 119.108H135.86C135.849 119.108 135.837 119.112 135.829 119.12C135.82 119.128 135.815 119.139 135.814 119.151C135.178 126.214 133.399 132.419 130.478 137.767C126.439 145.154 120.554 150.654 112.825 154.266C109.379 155.876 105.833 157.035 102.189 157.744C95.3866 159.063 88.4509 159.251 81.3814 158.308C81.3633 158.306 81.3449 158.311 81.3299 158.323C81.3148 158.334 81.3041 158.35 81.2998 158.369V158.372C81.2958 158.395 81.3009 158.418 81.3141 158.437C81.3273 158.457 81.3476 158.47 81.3708 158.475C85.6824 159.409 90.045 159.984 94.4583 160.202Z" fill="#16365D"/>
</g>
</svg>
