<svg width="212" height="164" viewBox="0 0 212 164" fill="none" xmlns="http://www.w3.org/2000/svg">
<path d="M136.295 18.6747L1.1543 162.911H136.727L211.154 0.5H178.229C170.918 0.5 163.675 1.89495 156.887 4.61003C149.076 7.73439 142.047 12.5356 136.295 18.6747Z" fill="white"/>
<path d="M1.1543 162.911L136.295 18.6746C142.047 12.5356 149.076 7.73439 156.887 4.61003C163.675 1.89496 170.918 0.5 178.229 0.5H211.154M1.1543 162.911H136.727L211.154 0.5M1.1543 162.911L136.295 18.6747C142.047 12.5356 149.076 7.73439 156.887 4.61003C163.675 1.89495 170.918 0.5 178.229 0.5H211.154" stroke="#C2C2C2" stroke-opacity="0.4"/>
<mask id="mask0_315_56815" style="mask-type:alpha" maskUnits="userSpaceOnUse" x="1" y="0" width="211" height="163">
<path d="M136.295 18.6747L1.1543 162.911H136.727L211.154 0.5H178.229C170.918 0.5 163.675 1.89495 156.887 4.61003C149.076 7.73439 142.047 12.5356 136.295 18.6747Z" fill="#1C325C"/>
</mask>
<g mask="url(#mask0_315_56815)">
<path d="M205.547 -0.699829C157.097 91.1014 53.6211 157.256 -0.712453 162.095L-6.5957 165.206L2.40221 107.139L138.063 -8.9948C179.823 -38.374 253.998 -92.501 205.547 -0.699829Z" fill="#C41C3C"/>
<path d="M191.152 36.8311C105.267 143.205 29.8864 159.552 -15.5957 164.963L-2.78222 194.319L147.517 210.206L229.246 171.87C246.908 95.5439 256.878 -44.5755 191.152 36.8311Z" fill="#045C94"/>
</g>
</svg>
