<svg width="212" height="164" viewBox="0 0 212 164" fill="none" xmlns="http://www.w3.org/2000/svg">
<path d="M136.293 18.6747L1.15234 162.911H136.725L211.152 0.5H178.227C170.916 0.5 163.673 1.89495 156.885 4.61003C149.074 7.73439 142.045 12.5356 136.293 18.6747Z" fill="white"/>
<path d="M1.15234 162.911L136.293 18.6746C142.045 12.5356 149.074 7.73439 156.885 4.61003C163.673 1.89496 170.916 0.5 178.227 0.5H211.152M1.15234 162.911H136.725L211.152 0.5M1.15234 162.911L136.293 18.6747C142.045 12.5356 149.074 7.73439 156.885 4.61003C163.673 1.89495 170.916 0.5 178.227 0.5H211.152" stroke="#C2C2C2" stroke-opacity="0.4"/>
<mask id="mask0_788_219275" style="mask-type:alpha" maskUnits="userSpaceOnUse" x="1" y="0" width="211" height="163">
<path d="M136.293 18.6747L1.15234 162.911H136.725L211.152 0.5H178.227C170.916 0.5 163.673 1.89495 156.885 4.61003C149.074 7.73439 142.045 12.5356 136.293 18.6747Z" fill="#1C325C"/>
</mask>
<g mask="url(#mask0_788_219275)">
<path d="M74.1703 149.131H7.50674L-58.8477 181.506V228.269L250.566 240.5L289.152 67.1139L204.406 -18.5L100.687 135.043C94.7369 143.852 84.8006 149.131 74.1703 149.131Z" fill="#242021"/>
<path d="M86.8883 154.131H-1.68392L-67.8477 186.506V233.269L240.677 245.5L279.152 72.1139L209.152 -15L114.118 138.94C108.289 148.382 97.9845 154.131 86.8883 154.131Z" fill="#FFC425"/>
</g>
</svg>
