<svg width="212" height="164" viewBox="0 0 212 164" fill="none" xmlns="http://www.w3.org/2000/svg">
<path d="M136.294 18.6747L1.15332 162.911H136.726L211.153 0.5H178.228C170.917 0.5 163.674 1.89495 156.886 4.61003C149.075 7.73439 142.046 12.5356 136.294 18.6747Z" fill="#DB0819"/>
<path d="M1.15332 162.911L136.294 18.6746C142.046 12.5356 149.075 7.73439 156.886 4.61003C163.674 1.89496 170.917 0.5 178.228 0.5H211.153M1.15332 162.911H136.726L211.153 0.5M1.15332 162.911L136.294 18.6747C142.046 12.5356 149.075 7.73439 156.886 4.61003C163.674 1.89495 170.917 0.5 178.228 0.5H211.153" stroke="#C2C2C2" stroke-opacity="0.4"/>
<mask id="mask0_303_507" style="mask-type:alpha" maskUnits="userSpaceOnUse" x="1" y="0" width="211" height="163">
<path d="M136.294 18.6747L1.15332 162.911H136.726L211.153 0.5H178.228C170.917 0.5 163.674 1.89495 156.886 4.61003C149.075 7.73439 142.046 12.5356 136.294 18.6747Z" fill="#1C325C"/>
</mask>
<g mask="url(#mask0_303_507)">
<path d="M292.787 250.363C173.831 119.745 70.319 244.239 -105.769 144.495C95.7028 209.221 257.064 68.1449 295.985 37.3857C219.36 124.183 286.277 245.364 292.787 250.363Z" fill="#10453B"/>
</g>
<path d="M113.209 56.5C114.307 61.7225 115.32 67.023 116.333 72.2455C117.6 78.3255 118.951 83.548 120.217 87.9131C126.296 107.712 135.077 119.872 146.56 124.471H140.228C135.753 124.471 132.376 123.691 129.927 122.132C127.478 120.651 124.861 118.313 122.159 115.273C117.684 110.284 115.404 107.712 115.32 107.634C109.41 101.788 101.557 97.5007 91.8475 94.8505L88.9767 97.8905C85.515 101.632 81.7155 105.218 77.4938 108.725C72.85 112.545 69.3882 114.493 67.0241 114.493C65.3354 114.493 64.4066 114.026 64.2378 113.09L64.1533 112.779L64.2378 111.921C64.3222 110.674 64.7444 109.894 65.5887 109.583C72.3434 105.997 76.3117 103.815 77.5782 103.035C80.7867 101.086 84.5862 98.1243 89.0612 94.071C86.5282 93.5254 84.164 93.2136 81.9688 93.2136C79.2669 93.2136 76.565 93.6813 74.032 94.6946C73.5254 94.9284 72.7655 95.2402 71.6679 95.7079C74.5386 93.2915 78.2537 91.9664 82.982 91.8105H83.573H84.0796C86.106 91.8105 88.3013 92.0443 90.4965 92.512C97.6734 84.6393 103.499 76.5327 108.059 68.1143C110.338 63.7492 112.027 60.0077 113.209 56.5ZM114.307 101.086C113.378 99.2935 112.365 96.4094 111.352 92.4341C109.832 86.51 108.565 80.0403 107.637 72.947C104.344 79.1829 99.5309 85.8085 93.1984 92.9018C102.571 94.9284 109.663 97.7346 114.307 101.086Z" fill="white"/>
<path d="M113.471 56.8113L113.051 56.8891C114.143 62.104 115.151 67.3968 116.16 72.6117C117.42 78.6828 118.764 83.8977 120.024 88.2565C126.074 108.026 134.811 120.324 146.49 124.994L146.658 124.605V124.216H140.356C135.988 124.216 132.627 123.438 130.274 121.959C127.922 120.48 125.317 118.223 122.629 115.187C120.445 112.697 118.764 110.829 117.588 109.505C117 108.883 116.58 108.416 116.328 108.026C116.16 107.871 116.076 107.715 115.992 107.637L115.824 107.482C109.858 101.566 101.961 97.2853 92.2149 94.6389C92.0469 94.5611 91.8788 94.6389 91.7948 94.7946L88.9383 97.8301C85.4936 101.566 81.7128 105.147 77.512 108.571C75.2435 110.439 73.2271 111.918 71.5468 112.852C69.8665 113.786 68.4382 114.253 67.346 114.253C66.5058 114.253 65.9177 114.098 65.5816 113.942C65.2455 113.786 65.0775 113.553 64.9935 113.164V113.086L64.9095 112.852L64.9935 112.074C64.9935 111.529 65.1615 111.062 65.3296 110.751C65.4976 110.439 65.7496 110.206 66.0857 110.05C72.807 106.47 76.7558 104.29 78.1001 103.434C81.2927 101.488 85.1575 98.4528 89.6104 94.4833C89.6944 94.4054 89.7784 94.2498 89.6944 94.0941C89.6944 93.9384 89.5264 93.8606 89.3583 93.7827C86.8378 93.2379 84.4854 92.9266 82.2169 92.9266C79.4444 92.9266 76.7558 93.4714 74.1513 94.4833C73.6472 94.7168 72.8911 95.0281 71.7988 95.4951L71.9669 95.8843L72.2189 96.1956C74.9915 93.8606 78.6042 92.5374 83.2251 92.3817H83.9813H84.4854C86.5018 92.3817 88.6022 92.6152 90.7866 93.0822C90.9547 93.0822 91.1227 93.0822 91.2067 92.9266C98.3481 85.0653 104.229 76.8926 108.766 68.4865C111.035 64.3613 112.799 60.5474 113.975 57.1226V56.967V56.8892H113.471L113.051 56.967L113.471 56.8113H113.051V56.8891L113.471 56.8113L113.051 56.7335C111.875 60.1582 110.194 63.8943 107.926 68.0195C103.389 76.4257 97.592 84.5205 90.4506 92.3039L90.7866 92.5374L90.8706 92.1482C88.6022 91.6812 86.5018 91.4477 84.4014 91.4477H83.9813H83.4772C78.6882 91.6812 74.8234 93.0044 71.8829 95.4951C71.7148 95.6508 71.7148 95.8843 71.7988 96.04C71.8829 96.1956 72.1349 96.2735 72.3029 96.1956C73.3111 95.7286 74.1513 95.4173 74.6554 95.1838C77.1759 94.1719 79.6964 93.7049 82.385 93.7049C84.5694 93.7049 86.8378 93.9384 89.3583 94.5611L89.4424 94.1719L89.1063 93.8606C84.6534 97.8302 80.8727 100.788 77.68 102.734C76.4198 103.512 72.471 105.691 65.7496 109.272L66.0017 109.583L65.8337 109.194C65.3296 109.428 64.9095 109.739 64.6574 110.206C64.4054 110.673 64.2373 111.218 64.2373 111.84L64.1533 112.697V112.852L64.2373 113.164C64.3214 113.786 64.6574 114.253 65.2455 114.565C65.8337 114.876 66.5058 114.954 67.43 114.954C68.7742 114.954 70.2865 114.409 72.0509 113.475C73.8153 112.463 75.8316 111.062 78.1841 109.116C82.385 105.614 86.2497 102.033 89.6944 98.2972L92.551 95.2616L92.2149 95.0281L92.1309 95.4173C101.709 98.0637 109.438 102.267 115.32 108.104C115.32 108.104 115.488 108.338 115.824 108.649C116.748 109.661 118.848 111.996 122.125 115.732C124.813 118.846 127.418 121.103 129.938 122.659C132.459 124.294 135.988 125.072 140.441 125.072H146.742C146.91 125.072 147.162 124.917 147.162 124.761C147.162 124.605 147.078 124.372 146.91 124.294C135.652 119.78 126.914 107.793 120.949 88.1008C119.604 83.7421 118.344 78.5272 117.084 72.5339C116.076 67.319 115.067 62.0263 113.975 56.8113C113.975 56.5778 113.723 56.5 113.471 56.5C113.219 56.5 113.051 56.6556 113.051 56.8891L113.471 56.8892V56.8113ZM114.563 101.333L114.983 101.177C114.059 99.4647 113.135 96.5848 112.127 92.6931C110.615 86.8555 109.354 80.3174 108.43 73.2344C108.43 73.0787 108.262 72.9231 108.094 72.9231C107.926 72.9231 107.758 73.0009 107.674 73.1566C104.397 79.3055 99.6084 85.9214 93.3911 93.0044C93.3071 93.0822 93.3071 93.2379 93.3071 93.3936C93.3911 93.5492 93.4752 93.6271 93.6432 93.6271C102.969 95.6508 109.858 98.375 114.479 101.8C114.647 101.878 114.815 101.878 114.899 101.878C115.067 101.8 115.151 101.644 115.151 101.488V101.411L115.067 101.255L114.563 101.333L114.143 101.333V101.41L114.563 101.333L114.815 101.099C110.11 97.5966 103.053 94.7946 93.6432 92.7709L93.5592 93.16L93.8953 93.3935C100.197 86.3106 104.985 79.6168 108.262 73.39L107.842 73.2344L107.422 73.3122C108.346 80.3951 109.606 86.9332 111.203 92.8487C112.211 96.8182 113.135 99.6981 114.143 101.566L114.563 101.333Z" fill="white"/>
</svg>
