<svg width="212" height="164" viewBox="0 0 212 164" fill="none" xmlns="http://www.w3.org/2000/svg">
<path d="M136.293 18.6747L1.15234 162.911H136.725L211.152 0.5H178.227C170.916 0.5 163.673 1.89495 156.885 4.61003C149.074 7.73439 142.045 12.5356 136.293 18.6747Z" fill="url(#paint0_linear_362_321198)"/>
<path d="M1.15234 162.911L136.293 18.6746C142.045 12.5356 149.074 7.73439 156.885 4.61003C163.673 1.89496 170.916 0.5 178.227 0.5H211.152M1.15234 162.911H136.725L211.152 0.5M1.15234 162.911L136.293 18.6747C142.045 12.5356 149.074 7.73439 156.885 4.61003C163.673 1.89495 170.916 0.5 178.227 0.5H211.152" stroke="#C2C2C2" stroke-opacity="0.4"/>
<mask id="mask0_362_321198" style="mask-type:alpha" maskUnits="userSpaceOnUse" x="1" y="0" width="211" height="163">
<path d="M136.293 18.6747L1.15234 162.911H136.725L211.152 0.5H178.227C170.916 0.5 163.673 1.89495 156.885 4.61003C149.074 7.73439 142.045 12.5356 136.293 18.6747Z" fill="#040404"/>
</mask>
<g mask="url(#mask0_362_321198)">
<path d="M125.107 154.74C125.115 154.749 125.126 154.755 125.138 154.757C125.15 154.76 125.162 154.758 125.173 154.753C125.184 154.748 125.193 154.74 125.199 154.729C125.205 154.719 125.207 154.706 125.206 154.694C124.643 149.584 124.34 144.528 124.297 139.527C124.289 138.764 124.396 136.991 124.618 134.208C125.385 124.535 129.243 115.379 136.884 109.295C136.897 109.285 136.906 109.27 136.909 109.254C136.913 109.238 136.91 109.221 136.903 109.206C136.895 109.192 136.883 109.18 136.868 109.173C136.853 109.167 136.836 109.165 136.82 109.17C133.062 110.268 129.598 111.01 125.874 110.888C121.818 110.759 120.023 108.143 121.731 104.242C122.181 103.215 122.976 101.948 124.114 100.44C126.76 96.9338 128.032 95.238 130.056 93.1772C130.145 93.0871 130.212 92.9783 130.252 92.8589C130.292 92.7395 130.305 92.6125 130.289 92.4875C130.274 92.3624 130.23 92.2426 130.161 92.1368C130.092 92.0311 130 91.9422 129.892 91.8768C129.528 91.6588 129.103 91.5434 128.616 91.5308C121.922 91.3407 115.693 91.0175 108.975 89.3901C104.935 88.4116 101.301 87.3761 98.0756 86.2836C92.8741 84.527 87.8291 82.1658 82.9408 79.2C82.014 78.6347 80.8123 77.892 79.3356 76.9718C79.3199 76.963 79.302 76.959 79.284 76.9603C79.2661 76.9616 79.2489 76.9681 79.2346 76.9791C79.2204 76.99 79.2096 77.0049 79.2038 77.0219C79.198 77.0389 79.1974 77.0572 79.2019 77.0745C79.9963 79.8451 80.5793 82.2659 80.951 84.3369C83.6192 99.1429 80.5971 112.631 71.8847 124.801C65.4229 133.827 56.4634 141.348 47.0152 147.063C35.0209 154.318 21.9917 159.69 7.92747 163.181C7.1713 163.369 6.45843 163.484 5.78882 163.527C5.70275 163.533 5.61643 163.52 5.53582 163.489C5.45521 163.458 5.38222 163.41 5.32193 163.349C5.26165 163.287 5.21549 163.213 5.18665 163.131C5.1578 163.05 5.14694 162.963 5.15485 162.877C5.15485 162.872 5.25543 162.722 5.45657 162.428C6.85051 160.413 9.45125 159.299 12.2621 158.432C21.5321 155.585 30.3311 151.716 38.6591 146.824C46.6562 142.128 53.9085 136.322 59.7707 129.265C67.6761 119.74 71.7357 108.443 71.3271 95.9718C70.9452 84.4205 67.0078 72.7665 61.3403 62.7513C61.2725 62.6311 61.2362 62.4959 61.2348 62.3583C61.2335 62.2207 61.2672 62.0851 61.3327 61.9642C61.5466 61.5713 61.8954 61.2279 62.3792 60.9338C64.6731 59.5447 67.116 58.7374 69.7078 58.5118C70.4984 58.4433 70.9338 58.6715 71.5448 59.2456C76.8533 64.2393 82.0089 68.4319 87.0119 71.8236C90.2402 74.0137 94.0808 76.0162 98.5338 77.8312C103.369 79.8033 110.19 81.854 118.996 83.9832C120.025 84.2317 122.074 84.4687 125.145 84.6943C128.042 84.9072 131.447 84.9858 135.361 84.93C138.184 84.8895 140.6 85.5789 142.609 86.9985C146.497 89.7551 143.365 93.2646 140.509 95.1125C136.662 97.6043 133.2 100.109 130.125 102.626C129.243 103.348 127.669 104.641 127.616 105.725C127.61 105.835 127.63 105.945 127.674 106.046C127.718 106.147 127.785 106.237 127.87 106.308C127.955 106.379 128.055 106.429 128.162 106.456C128.27 106.482 128.382 106.483 128.49 106.459C132.564 105.554 136.457 104.945 140.169 104.633C142.089 104.471 143.84 104.564 145.424 104.911C147.559 105.382 150.022 106.839 148.849 109.382C148.414 110.333 147.081 111.747 146.566 112.242C145.267 113.486 143.393 115.292 140.944 117.66C135.575 122.854 133.925 128.557 133.814 136.135C133.585 151.694 136.38 167.318 141.108 182.128C141.488 183.319 141.52 184.275 141.204 184.995C140.272 187.12 135.502 188.291 133.589 188.485C130.526 188.793 130.346 184.249 129.777 182.23C122.338 155.919 96.7045 139.535 69.5207 144.234C67.8976 144.516 66.4082 142.409 68.417 141.459C70.9121 140.277 73.5409 139.55 76.3033 139.276C81.0847 138.801 84.8273 138.922 89.3682 139.189C102.536 139.953 116.319 144.478 125.107 154.74Z" fill="white"/>
</g>
<defs>
<linearGradient id="paint0_linear_362_321198" x1="182.652" y1="81.5" x2="86.1523" y2="30" gradientUnits="userSpaceOnUse">
<stop stop-color="#0190D4"/>
<stop offset="1" stop-color="#023CB2"/>
</linearGradient>
</defs>
</svg>
