<svg width="212" height="164" viewBox="0 0 212 164" fill="none" xmlns="http://www.w3.org/2000/svg">
<path d="M136.293 18.6747L1.15234 162.911H136.725L211.152 0.5H178.227C170.916 0.5 163.673 1.89495 156.885 4.61003C149.074 7.73439 142.045 12.5356 136.293 18.6747Z" fill="white"/>
<path d="M1.15234 162.911L136.293 18.6746C142.045 12.5356 149.074 7.73439 156.885 4.61003C163.673 1.89496 170.916 0.5 178.227 0.5H211.152M1.15234 162.911H136.725L211.152 0.5M1.15234 162.911L136.293 18.6747C142.045 12.5356 149.074 7.73439 156.885 4.61003C163.673 1.89495 170.916 0.5 178.227 0.5H211.152" stroke="#C2C2C2" stroke-opacity="0.4"/>
<mask id="mask0_788_221138" style="mask-type:alpha" maskUnits="userSpaceOnUse" x="1" y="0" width="211" height="163">
<path d="M136.293 18.6747L1.15234 162.911H136.725L211.152 0.5H178.227C170.916 0.5 163.673 1.89495 156.885 4.61003C149.074 7.73439 142.045 12.5356 136.293 18.6747Z" fill="#040404"/>
</mask>
<g mask="url(#mask0_788_221138)">
<path d="M95.9517 109.277C95.7967 109.528 95.7131 109.761 95.7008 109.973C96.5779 116.734 99.3071 122.375 103.888 126.894C108.878 131.817 114.873 134.601 121.876 135.247C122.121 135.269 122.352 135.378 122.527 135.554L124.531 137.563C124.548 137.58 124.559 137.602 124.563 137.625C124.567 137.648 124.564 137.671 124.555 137.693C124.546 137.715 124.531 137.733 124.511 137.746C124.492 137.759 124.469 137.766 124.446 137.766C116.603 137.717 109.748 135.177 103.882 130.146C95.9793 123.366 91.9651 112.749 93.4612 102.264C95.3245 89.2084 105.054 78.9625 117.865 76.1771C121.885 75.3039 125.928 75.2753 129.993 76.0912C139.753 78.0484 147.778 84.2573 152.12 93.2454C157.658 104.7 155.443 118.648 146.808 127.854C142.501 132.448 137.257 135.486 131.079 136.968C130.945 137 130.804 136.997 130.672 136.958C130.54 136.92 130.42 136.849 130.323 136.751C127.237 133.617 123.924 130.292 120.383 126.775C118.018 124.428 115.698 121.302 116.399 117.878C116.983 115.029 118.914 112.479 120.878 110.507C123.267 108.108 129.648 101.724 140.022 91.3558C141.163 90.2146 142.791 88.371 142.883 86.785C143.002 84.7236 141.659 83.88 139.967 82.7511C131.419 77.0668 120.634 76.4133 111.51 80.9258C100.973 86.1408 94.6024 97.2947 95.6549 109.077C95.6713 109.257 95.7702 109.324 95.9517 109.277ZM148.43 91.414C148.419 91.3965 148.402 91.3834 148.383 91.3769C148.363 91.3705 148.342 91.3711 148.322 91.3788C148.303 91.3864 148.287 91.4006 148.277 91.4188C148.267 91.437 148.264 91.4581 148.268 91.4785C149.55 97.3591 144.667 102.838 140.854 106.654C135.48 112.037 131.713 115.786 129.555 117.903C128.093 119.337 126.898 120.668 125.969 121.897C123.959 124.563 123.072 127.361 125.761 130.057C127.805 132.104 129.253 133.573 130.106 134.465C130.166 134.527 130.241 134.572 130.323 134.596C130.406 134.621 130.493 134.623 130.577 134.603C149.721 130.008 158.805 108.35 148.43 91.414Z" fill="#252A76"/>
<path d="M95.7031 109.973C95.7154 109.76 95.799 109.528 95.954 109.276C99.9397 110.571 103.508 112.605 106.66 115.378C107.941 116.507 109.571 118.079 111.552 120.096C117.145 125.793 122.798 131.476 128.511 137.143C128.543 137.174 128.565 137.214 128.573 137.258C128.582 137.302 128.578 137.347 128.561 137.388C128.544 137.429 128.515 137.465 128.477 137.489C128.44 137.514 128.397 137.527 128.352 137.526H127.251C127.011 137.526 126.782 137.432 126.611 137.265C124.239 134.918 121.845 132.533 119.43 130.112C116.56 127.234 114.799 125.528 114.146 124.992C110.304 121.82 105.668 119.927 101.504 117.35C99.5093 116.117 98.1141 114.696 97.3186 113.086C96.5129 111.452 95.9744 110.414 95.7031 109.973Z" fill="#A62431"/>
<path d="M110.705 62.3968C51.5693 121.257 113.209 153.689 153.892 164.349L160.651 172.249L-58.6602 170.744C-52.6516 164.85 -33.0488 153.213 -2.70567 153.815C35.2232 154.567 38.603 130.866 108.077 61.2679C163.656 5.58933 214.389 11.8344 223.652 24.5V29C214.64 17.3377 168.913 4.46101 110.705 62.3968Z" fill="#A32631"/>
<path d="M99.6523 66C30.1523 140 29.1523 155.5 -10.8476 151C-29.4233 141.415 -48.0011 117.452 -44.4107 109.984C-39.9226 100.648 15.8044 31.563 41.6108 16.9991C67.4172 2.43526 112.672 -22.5847 130.998 -24.4518C145.659 -25.9456 200.439 -37.273 225.996 -42.75C234.473 -11.8795 272.652 -13.5 261.152 28.5C258.933 36.6061 190.754 -31 99.6523 66Z" fill="#222878"/>
</g>
</svg>
