<svg width="212" height="164" viewBox="0 0 212 164" fill="none" xmlns="http://www.w3.org/2000/svg">
<path d="M136.293 18.6747L1.15234 162.911H136.725L211.152 0.5H178.227C170.916 0.5 163.673 1.89495 156.885 4.61003C149.074 7.73439 142.045 12.5356 136.293 18.6747Z" fill="url(#paint0_linear_350_217206)"/>
<path d="M1.15234 162.911L136.293 18.6746C142.045 12.5356 149.074 7.73439 156.885 4.61003C163.673 1.89496 170.916 0.5 178.227 0.5H211.152M1.15234 162.911H136.725L211.152 0.5M1.15234 162.911L136.293 18.6747C142.045 12.5356 149.074 7.73439 156.885 4.61003C163.673 1.89495 170.916 0.5 178.227 0.5H211.152" stroke="#C2C2C2" stroke-opacity="0.4"/>
<defs>
<linearGradient id="paint0_linear_350_217206" x1="158.152" y1="95" x2="21.1523" y2="162.5" gradientUnits="userSpaceOnUse">
<stop stop-color="#55BCEB"/>
<stop offset="1" stop-color="#A357B7"/>
</linearGradient>
</defs>
</svg>
