<svg width="212" height="164" viewBox="0 0 212 164" fill="none" xmlns="http://www.w3.org/2000/svg">
<path d="M136.297 18.6747L1.15625 162.911H136.729L211.156 0.5H178.231C170.92 0.5 163.677 1.89495 156.889 4.61003C149.078 7.73439 142.049 12.5356 136.297 18.6747Z" fill="#1C6D20"/>
<path d="M1.15625 162.911L136.297 18.6746C142.049 12.5356 149.078 7.73439 156.889 4.61003C163.677 1.89496 170.92 0.5 178.231 0.5H211.156M1.15625 162.911H136.729L211.156 0.5M1.15625 162.911L136.297 18.6747C142.049 12.5356 149.078 7.73439 156.889 4.61003C163.677 1.89495 170.92 0.5 178.231 0.5H211.156" stroke="#C2C2C2" stroke-opacity="0.4"/>
<mask id="mask0_661_84352" style="mask-type:alpha" maskUnits="userSpaceOnUse" x="1" y="0" width="211" height="163">
<path d="M136.297 18.6747L1.15625 162.911H136.729L211.156 0.5H178.231C170.92 0.5 163.677 1.89495 156.889 4.61003C149.078 7.73439 142.049 12.5356 136.297 18.6747Z" fill="#100D5C"/>
</mask>
<g mask="url(#mask0_661_84352)">
<rect x="-0.96875" y="62.6997" width="113.237" height="196" transform="rotate(-54.1374 -0.96875 62.6997)" fill="white"/>
<path d="M131.968 90.6663L117.042 112.089C117.039 112.094 117.034 112.098 117.028 112.099C117.023 112.101 117.017 112.101 117.012 112.1C117.006 112.098 117.002 112.094 116.998 112.09C116.995 112.085 116.993 112.08 116.994 112.074C117.141 104.295 117.289 96.7429 117.437 89.4172C117.446 88.9515 117.46 88.6126 117.479 88.4006C117.577 87.2987 117.699 85.7598 116.752 84.9731C115.869 84.2381 114.244 84.587 113.221 84.7114C112.747 84.7696 112.378 84.7705 111.951 84.7605C111.942 84.7604 111.934 84.7577 111.926 84.7528C111.919 84.7479 111.913 84.741 111.91 84.733C111.906 84.7249 111.905 84.716 111.907 84.7073C111.908 84.6987 111.912 84.6906 111.918 84.6842C113.065 83.4269 114.419 82.4706 115.982 81.8153C117.223 81.2948 118.727 81.0377 120 81.491C121.039 81.8607 121.706 82.6538 122.125 83.6649C122.235 83.929 122.313 84.3051 122.359 84.7932C122.469 85.9269 122.787 89.0154 123.314 94.0585C123.315 94.0652 123.318 94.0715 123.322 94.0766C123.327 94.0818 123.332 94.0854 123.339 94.0869C123.346 94.0885 123.353 94.0881 123.359 94.0856C123.365 94.0831 123.37 94.0787 123.374 94.073L130.228 83.8466C130.239 83.8575 130.249 83.8554 130.259 83.8402C130.911 82.7404 131.708 81.4398 132.65 79.9385C133.532 78.5352 134.511 77.2373 135.589 76.0449C137.643 73.7719 140.09 72.0268 142.931 70.8095C144.9 69.9658 147.01 69.3614 149.261 68.9962C149.934 68.8866 150.434 68.7745 150.762 68.6601C152.654 67.9987 153.767 66.706 154.632 64.9627C155.232 63.7536 156.036 61.5415 157.096 60.0462C157.099 60.0414 157.104 60.0376 157.11 60.0355C157.115 60.0334 157.121 60.0329 157.127 60.0341C157.133 60.0354 157.138 60.0383 157.142 60.0426C157.146 60.0468 157.149 60.0522 157.151 60.058C157.155 60.0816 157.153 60.127 157.144 60.1943C156.858 62.4278 156.468 64.4431 155.975 66.24C155.234 68.9417 153.834 71.7979 151.238 73.0824C149.163 74.1099 146.166 74.7576 143.774 75.9213C140.692 77.4193 138.638 79.8912 137.268 82.9727C137.23 83.0587 137.162 83.1725 137.064 83.3142C135.355 85.7804 133.656 88.2311 131.968 90.6663Z" fill="#F3AB01"/>
<path d="M130.229 83.8466L123.375 94.073C123.371 94.0786 123.366 94.083 123.36 94.0855C123.354 94.088 123.347 94.0885 123.34 94.0869C123.334 94.0853 123.328 94.0817 123.323 94.0766C123.319 94.0715 123.316 94.0652 123.315 94.0584C122.788 89.0153 122.47 85.9269 122.36 84.7932C122.314 84.305 122.236 83.9289 122.126 83.6649C121.707 82.6538 121.04 81.8607 120.001 81.491C118.728 81.0377 117.224 81.2947 115.983 81.8153C114.42 82.4706 113.066 83.4269 111.919 84.6842C111.913 84.6906 111.909 84.6986 111.908 84.7073C111.906 84.716 111.907 84.7249 111.911 84.7329C111.914 84.741 111.92 84.7479 111.927 84.7528C111.935 84.7577 111.943 84.7604 111.952 84.7605C112.379 84.7705 112.748 84.7696 113.222 84.7114C114.245 84.587 115.87 84.2381 116.753 84.9731C117.7 85.7598 117.578 87.2987 117.48 88.4006C117.461 88.6126 117.447 88.9514 117.438 89.4172C117.29 96.7429 117.142 104.295 116.995 112.074C116.994 112.08 116.996 112.085 116.999 112.09C117.003 112.094 117.007 112.098 117.013 112.1C117.018 112.101 117.024 112.101 117.03 112.099C117.035 112.098 117.04 112.094 117.043 112.089L131.969 90.6663C132.098 91.7813 132.143 92.8684 132.103 93.9276C132.1 93.9973 132.088 94.0642 132.068 94.1284L118.585 115.113C118.535 115.136 118.499 115.183 118.45 115.205C113.456 117.608 107.769 118.205 102.451 116.878C91.2917 114.093 83.6348 103.7 84.184 92.1997C84.4206 87.2269 86.0134 82.7386 88.9624 78.7347C93.0745 73.1523 99.544 69.544 106.539 69.0861C116.801 68.4157 126.227 74.3488 130.229 83.8466ZM107.27 77.4693C107.27 76.3716 106.834 75.3188 106.059 74.5426C105.283 73.7665 104.231 73.3304 103.134 73.3304C102.037 73.3304 100.985 73.7665 100.21 74.5426C99.4342 75.3188 98.9985 76.3716 98.9985 77.4693C98.9985 78.567 99.4342 79.6197 100.21 80.3959C100.985 81.1721 102.037 81.6082 103.134 81.6082C104.231 81.6082 105.283 81.1721 106.059 80.3959C106.834 79.6197 107.27 78.567 107.27 77.4693ZM94.8546 77.76C94.0153 77.76 93.2105 78.1279 92.617 78.7828C92.0236 79.4377 91.6902 80.3259 91.6902 81.252C91.6902 82.1782 92.0236 83.0664 92.617 83.7213C93.2105 84.3762 94.0153 84.7441 94.8546 84.7441C95.6938 84.7441 96.4987 84.3762 97.0922 83.7213C97.6856 83.0664 98.019 82.1782 98.019 81.252C98.019 80.3259 97.6856 79.4377 97.0922 78.7828C96.4987 78.1279 95.6938 77.76 94.8546 77.76ZM102.778 83.6231C102.724 83.5934 102.663 83.5793 102.602 83.5822C101.903 83.6113 101.208 83.6897 100.517 83.8175C97.1712 84.4362 94.5269 86.3121 92.8902 89.3445C91.8472 91.2768 91.2917 93.4216 90.9976 95.5983C90.9558 95.9089 90.9543 96.2233 90.993 96.5412C91.1262 97.6423 91.3241 98.6364 91.5867 99.5237C92.1767 101.521 93.2606 103.149 95.5009 103.353C96.2773 103.424 97.0041 103.447 97.6813 103.422C99.3461 103.361 100.861 102.849 102.227 101.886C103.297 101.132 104.442 99.8643 104.611 98.5489C104.679 98.0171 104.644 97.4079 104.505 96.7211C104.294 95.68 104.065 94.5284 103.816 93.2663C103.577 92.0544 103.476 90.8519 103.515 89.6588C103.532 89.0913 103.572 88.671 103.635 88.3979C103.684 88.1841 103.827 87.6312 104.063 86.7391C104.436 85.3292 104.008 84.2905 102.778 83.6231ZM89.8554 85.3246C89.5533 85.3241 89.2539 85.3883 88.9745 85.5136C88.6951 85.6389 88.4411 85.8228 88.227 86.0548C88.0129 86.2869 87.8429 86.5625 87.7268 86.8659C87.6106 87.1694 87.5505 87.4947 87.5499 87.8234C87.5494 88.152 87.6083 88.4776 87.7234 88.7815C87.8385 89.0853 88.0076 89.3615 88.2208 89.5943C88.4341 89.8271 88.6875 90.0119 88.9664 90.1381C89.2454 90.2644 89.5445 90.3296 89.8467 90.3302C90.1489 90.3307 90.4482 90.2665 90.7277 90.1412C91.0071 90.0159 91.2611 89.832 91.4751 89.6C91.6892 89.3679 91.8592 89.0923 91.9754 88.7889C92.0916 88.4854 92.1517 88.1601 92.1522 87.8314C92.1528 87.5027 92.0938 87.1772 91.9787 86.8733C91.8636 86.5695 91.6946 86.2933 91.4813 86.0605C91.268 85.8277 91.0147 85.6429 90.7357 85.5167C90.4568 85.3904 90.1576 85.3251 89.8554 85.3246ZM88.5857 91.3176C88.344 91.3176 88.1048 91.3704 87.8815 91.4728C87.6583 91.5752 87.4555 91.7252 87.2846 91.9145C87.1137 92.1037 86.9782 92.3283 86.8857 92.5755C86.7933 92.8227 86.7457 93.0877 86.7457 93.3553C86.7457 93.8957 86.9395 94.414 87.2846 94.7961C87.6297 95.1783 88.0977 95.3929 88.5857 95.3929C89.0737 95.3929 89.5417 95.1783 89.8868 94.7961C90.2318 94.414 90.4257 93.8957 90.4257 93.3553C90.4257 93.0877 90.3781 92.8227 90.2856 92.5755C90.1932 92.3283 90.0576 92.1037 89.8868 91.9145C89.7159 91.7252 89.5131 91.5752 89.2898 91.4728C89.0666 91.3704 88.8273 91.3176 88.5857 91.3176ZM88.6491 96.3223C88.4679 96.3217 88.2883 96.3602 88.1206 96.4357C87.953 96.5111 87.8005 96.6221 87.6719 96.7622C87.5432 96.9023 87.441 97.0687 87.371 97.2521C87.3011 97.4355 87.2647 97.6322 87.264 97.8309C87.2626 98.2323 87.4066 98.6178 87.6644 98.9025C87.9222 99.1873 88.2725 99.3479 88.6385 99.3492C88.8197 99.3499 88.9992 99.3113 89.1669 99.2359C89.3346 99.1604 89.4871 99.0494 89.6157 98.9094C89.7443 98.7693 89.8465 98.6028 89.9165 98.4194C89.9865 98.236 90.0228 98.0393 90.0235 97.8406C90.0249 97.4392 89.8809 97.0537 89.6232 96.769C89.3654 96.4843 89.015 96.3236 88.6491 96.3223ZM106.788 98.1901C106.811 98.2524 106.809 98.3163 106.782 98.3817C106.32 99.507 105.752 100.597 105.079 101.651C104.444 102.645 103.558 103.685 102.48 104.214C102.425 104.241 102.277 104.294 102.035 104.374C101.309 104.615 100.689 105.49 100.474 106.145C100.371 106.455 100.278 106.971 100.194 107.692C99.9698 109.616 100.563 111.094 102.245 112.101C102.715 112.383 103.036 112.605 103.46 112.63C104.76 112.708 106.183 112.016 107.274 111.342C108.704 110.459 109.952 109.37 111.02 108.077C111.463 107.54 111.82 106.935 112.09 106.261C112.183 106.031 112.253 105.667 112.302 105.171C112.532 102.862 112.024 100.806 110.777 99.0022C110.493 98.5916 110.295 98.3303 110.182 98.2182C109.297 97.3416 107.678 97.0036 106.803 98.0947C106.793 98.108 106.785 98.1238 106.783 98.1405C106.78 98.1573 106.782 98.1744 106.788 98.1901Z" fill="#1C6D20"/>
<path d="M118.579 115.113L132.061 94.1283L132.09 94.1228C132.098 94.1214 132.105 94.1184 132.111 94.114C132.117 94.1096 132.122 94.104 132.126 94.0974C132.275 93.8382 132.457 93.5411 132.672 93.2062C133.9 91.2958 135.322 89.1527 136.45 87.2514C137.918 84.7804 139.429 82.2022 141.159 80.0138C141.541 79.5317 141.975 79.075 142.461 78.6438C142.63 78.4942 142.911 78.3059 143.304 78.0788C143.492 77.9697 143.785 77.7996 144.183 77.5682C144.798 77.2103 145.744 76.8287 146.601 76.5716C147.165 76.4021 148.141 76.0923 149.527 75.6423C149.729 75.5769 149.913 75.5048 150.078 75.4261C152.579 74.2318 154.72 72.5875 156.502 70.4932C156.504 70.49 156.508 70.4878 156.512 70.4869C156.516 70.4859 156.52 70.4863 156.524 70.4879C156.528 70.4895 156.531 70.4924 156.533 70.4959C156.535 70.4995 156.536 70.5037 156.535 70.5078C156.372 72.0848 156.1 73.8318 155.393 75.2008C154.503 76.9259 152.903 78.1941 151.192 79.1507C150.399 79.5941 149.829 79.8511 149.201 80.2917C148.871 80.5237 148.018 81.1006 146.641 82.0223C146.225 82.3009 145.863 82.5744 145.554 82.8427C144.377 83.8644 143.281 84.963 142.265 86.1385C138.519 90.4709 135.467 95.4383 132.533 100.358C129.554 105.349 124.997 113.56 120.685 119.706C120.509 119.957 120.375 120.134 120.285 120.238C119.085 121.616 117.687 123.214 116.092 125.031C116.017 125.117 115.922 125.181 115.814 125.219C115.373 125.373 114.769 125.492 114.412 125.571C113.463 125.781 112.544 125.875 111.653 125.852C110.596 125.826 109.658 125.481 108.838 124.817C108.693 124.7 108.274 124.33 107.579 123.708C107.578 123.706 107.576 123.705 107.574 123.704L107.29 123.513C107.283 123.509 107.278 123.502 107.275 123.495C107.273 123.488 107.273 123.479 107.275 123.472C107.278 123.464 107.283 123.458 107.29 123.454C107.297 123.45 107.305 123.448 107.313 123.449C108.007 123.511 108.588 123.554 109.057 123.579C110.801 123.675 112.986 123.648 114.153 122.112C114.366 121.833 114.495 121.463 114.706 121.134C115.747 119.512 116.951 117.64 118.317 115.52C118.383 115.419 118.505 115.263 118.612 115.172C118.62 115.165 118.625 115.156 118.626 115.146C118.627 115.136 118.624 115.127 118.618 115.119C118.606 115.104 118.593 115.102 118.579 115.113Z" fill="#F3AB01"/>
<path d="M103.136 81.6081C105.42 81.6081 107.271 79.7551 107.271 77.4692C107.271 75.1834 105.42 73.3303 103.136 73.3303C100.852 73.3303 99 75.1834 99 77.4692C99 79.7551 100.852 81.6081 103.136 81.6081Z" fill="white"/>
<path d="M98.0163 81.2518C98.0163 79.3232 96.5996 77.7598 94.8519 77.7598C93.1043 77.7598 91.6875 79.3232 91.6875 81.2518C91.6875 83.1804 93.1043 84.7439 94.8519 84.7439C96.5996 84.7439 98.0163 83.1804 98.0163 81.2518Z" fill="white"/>
<path d="M102.782 83.6231C104.012 84.2905 104.44 85.3291 104.066 86.739C103.83 87.6311 103.688 88.1841 103.639 88.3979C103.576 88.671 103.536 89.0913 103.518 89.6588C103.48 90.8519 103.581 92.0544 103.82 93.2662C104.068 94.5284 104.298 95.68 104.509 96.721C104.648 97.4078 104.683 98.0171 104.615 98.5488C104.446 99.8643 103.3 101.132 102.231 101.886C100.865 102.849 99.3498 103.361 97.685 103.422C97.0078 103.447 96.281 103.424 95.5046 103.353C93.2643 103.149 92.1804 101.521 91.5904 99.5236C91.3277 98.6364 91.1298 97.6422 90.9967 96.5412C90.958 96.2232 90.9595 95.9089 91.0012 95.5982C91.2954 93.4216 91.8509 91.2767 92.8939 89.3445C94.5306 86.3121 97.1749 84.4361 100.521 83.8175C101.212 83.6897 101.907 83.6112 102.606 83.5822C102.667 83.5792 102.728 83.5934 102.782 83.6231Z" fill="white"/>
<path d="M92.1535 87.8314C92.1559 86.4492 91.1276 85.3269 89.8567 85.3247C88.5859 85.3224 87.5537 86.4412 87.5512 87.8234C87.5488 89.2056 88.5771 90.328 89.848 90.3302C91.1189 90.3324 92.1511 89.2137 92.1535 87.8314Z" fill="white"/>
<path d="M90.4222 93.3552C90.4222 92.2298 89.5984 91.3175 88.5822 91.3175C87.566 91.3175 86.7422 92.2298 86.7422 93.3552C86.7422 94.4805 87.566 95.3928 88.5822 95.3928C89.5984 95.3928 90.4222 94.4805 90.4222 93.3552Z" fill="white"/>
<path d="M90.0304 97.8404C90.0334 97.0046 89.418 96.3248 88.656 96.3221C87.8939 96.3195 87.2738 96.9949 87.2709 97.8308C87.268 98.6666 87.8834 99.3464 88.6454 99.3491C89.4074 99.3517 90.0275 98.6763 90.0304 97.8404Z" fill="white"/>
<path d="M106.811 98.0948C107.686 97.0037 109.305 97.3417 110.19 98.2183C110.302 98.3304 110.5 98.5917 110.784 99.0023C112.031 100.806 112.54 102.862 112.31 105.171C112.261 105.667 112.19 106.031 112.098 106.261C111.828 106.935 111.471 107.54 111.028 108.077C109.96 109.37 108.711 110.459 107.281 111.342C106.191 112.016 104.768 112.708 103.468 112.63C103.044 112.605 102.722 112.383 102.252 112.101C100.571 111.094 99.9775 109.616 100.202 107.692C100.286 106.971 100.379 106.456 100.481 106.145C100.696 105.49 101.316 104.615 102.043 104.374C102.285 104.294 102.433 104.241 102.487 104.214C103.566 103.685 104.452 102.645 105.087 101.651C105.76 100.597 106.327 99.5071 106.789 98.3819C106.816 98.3164 106.819 98.2525 106.796 98.1902C106.789 98.1745 106.788 98.1574 106.79 98.1406C106.793 98.1239 106.8 98.1081 106.811 98.0948Z" fill="white"/>
</g>
</svg>
