<svg width="212" height="164" viewBox="0 0 212 164" fill="none" xmlns="http://www.w3.org/2000/svg">
<path d="M136.294 18.6747L1.15332 162.911H136.726L211.153 0.5H178.228C170.917 0.5 163.674 1.89495 156.886 4.61003C149.075 7.73439 142.046 12.5356 136.294 18.6747Z" fill="#0A193E"/>
<path d="M1.15332 162.911L136.294 18.6746C142.046 12.5356 149.075 7.73439 156.886 4.61003C163.674 1.89496 170.917 0.5 178.228 0.5H211.153M1.15332 162.911H136.726L211.153 0.5M1.15332 162.911L136.294 18.6747C142.046 12.5356 149.075 7.73439 156.886 4.61003C163.674 1.89495 170.917 0.5 178.228 0.5H211.153" stroke="#C2C2C2" stroke-opacity="0.4"/>
<mask id="mask0_299_119297" style="mask-type:alpha" maskUnits="userSpaceOnUse" x="1" y="0" width="211" height="163">
<path d="M136.294 18.6747L1.15332 162.911H136.726L211.153 0.5H178.228C170.917 0.5 163.674 1.89495 156.886 4.61003C149.075 7.73439 142.046 12.5356 136.294 18.6747Z" fill="#1C325C"/>
</mask>
<g mask="url(#mask0_299_119297)">
<path d="M85.1533 112.491L96.812 101.372L96.0983 90.1353L104.01 94.6187L115.487 83.5L108.767 97.3087L112.575 99.3387C112.575 99.3387 135.71 89.7767 148.557 92.4057C161.404 95.0347 174.369 115.002 176.153 120.5C176.153 120.5 163.178 97.384 148.439 96.351C133.094 95.275 121.614 99.2813 104.663 105.795L97.7649 119.546L97.1689 108.187L85.1533 112.491Z" fill="white"/>
<path d="M111.153 95.9499C111.153 95.9499 133.058 86.9305 145.576 88.5943C158.093 90.2581 169.269 99.8028 176.153 112.5C176.153 112.5 163.368 85.7922 145.397 84.5662C132.701 83.6976 113.389 91.6591 113.389 91.6591L111.153 95.9499Z" fill="white"/>
<path d="M116.153 86.873C116.153 86.873 136.41 79.093 145.59 80.424C155.601 81.8708 165.136 86.6306 176.153 105.5C176.153 105.5 162.709 76.1416 143.813 76.5033C131.197 76.7456 118.108 82.4133 118.108 82.4133L116.153 86.873Z" fill="white"/>
<path d="M150.153 49.509L138.495 60.6277L139.208 71.8647L131.3 67.3814L119.82 78.5L126.54 64.6914L122.736 62.6613C122.736 62.6613 99.5966 72.2233 86.7495 69.5943C73.9025 66.9653 60.9376 46.9984 59.1533 41.5C59.1533 41.5 72.1324 64.616 86.8709 65.649C102.216 66.725 113.693 62.7187 130.644 56.2053L137.545 42.4541L138.138 53.813L150.153 49.509Z" fill="white"/>
<path d="M124.153 66.0504C124.153 66.0504 102.248 75.0699 89.731 73.4061C77.2138 71.7423 66.0378 62.1974 59.1533 49.5C59.1533 49.5 71.9387 76.2083 89.9099 77.4342C102.609 78.2994 121.918 70.3412 121.918 70.3412L124.153 66.0504Z" fill="white"/>
<path d="M119.153 75.1271C119.153 75.1271 98.8963 82.9034 89.7166 81.576C79.7054 80.1292 70.1703 75.3694 59.1533 56.5C59.1533 56.5 72.6012 85.8548 91.4935 85.4967C104.11 85.2544 117.199 79.5867 117.199 79.5867L119.153 75.1271Z" fill="white"/>
</g>
</svg>
