<svg width="212" height="164" viewBox="0 0 212 164" fill="none" xmlns="http://www.w3.org/2000/svg">
<path d="M136.297 18.6747L1.15625 162.911H136.729L211.156 0.5H178.231C170.92 0.5 163.677 1.89495 156.889 4.61003C149.078 7.73439 142.049 12.5356 136.297 18.6747Z" fill="white"/>
<path d="M1.15625 162.911L136.297 18.6746C142.049 12.5356 149.078 7.73439 156.889 4.61003C163.677 1.89496 170.92 0.5 178.231 0.5H211.156M1.15625 162.911H136.729L211.156 0.5M1.15625 162.911L136.297 18.6747C142.049 12.5356 149.078 7.73439 156.889 4.61003C163.677 1.89495 170.92 0.5 178.231 0.5H211.156" stroke="#C2C2C2" stroke-opacity="0.4"/>
<mask id="mask0_524_8199" style="mask-type:alpha" maskUnits="userSpaceOnUse" x="1" y="0" width="211" height="163">
<path d="M136.297 18.6747L1.15625 162.911H136.729L211.156 0.5H178.231C170.92 0.5 163.677 1.89495 156.889 4.61003C149.078 7.73439 142.049 12.5356 136.297 18.6747Z" fill="#100D5C"/>
</mask>
<g mask="url(#mask0_524_8199)">
<path d="M138.488 61.6222L131.787 65.5111C131.654 65.5072 131.515 65.5471 131.368 65.6309C127.176 68.0499 123.281 70.4879 119.683 72.9448C118.877 73.4957 118.309 74.2182 117.978 75.1123C117.939 75.2168 117.936 75.331 117.967 75.4374C117.999 75.5439 118.064 75.6368 118.153 75.7021C118.48 75.9436 118.871 76.0664 119.326 76.0704C125.445 76.1262 133.985 76.4186 144.945 76.9476C146.738 77.0354 148.551 77.1412 150.387 77.2649C149.694 78.7179 148.647 79.9444 147.247 80.9443C144.679 82.7985 141.83 84.0219 138.699 84.6147C135.684 85.1835 131.983 85.1925 129.44 85.1237C128.725 85.1037 128.246 85.2115 128.003 85.447C127.42 86.0158 127.536 86.6565 128 87.2942C129.265 89.0366 130.687 90.5684 132.265 91.8897C132.311 91.9276 132.383 91.9336 132.482 91.9077C132.456 91.9755 132.481 92.0414 132.556 92.1053C134.835 94.0453 137.277 95.7587 139.881 97.2457C145.237 100.188 150.984 102.42 157.121 103.943C162.539 105.286 167.73 106.179 172.694 106.622C172.758 106.628 172.818 106.658 172.862 106.706C172.905 106.753 172.929 106.815 172.929 106.88V113.795C172.929 113.867 172.902 113.935 172.853 113.986C172.804 114.037 172.738 114.068 172.668 114.071C159.675 114.58 146.903 115.143 134.365 116.34C131.799 116.584 129.411 116.917 127.201 117.34C126.727 117.43 126.216 117.63 125.665 117.939C125.644 117.951 125.627 117.967 125.613 117.987C125.6 118.006 125.591 118.029 125.587 118.052C125.583 118.076 125.585 118.1 125.592 118.123C125.599 118.146 125.61 118.167 125.626 118.184C125.864 118.444 126.21 118.624 126.663 118.723C128.588 119.142 130.623 119.464 132.767 119.687C138.642 120.298 145.744 120.82 154.073 121.253C162.299 121.684 168.227 121.96 171.857 122.079C171.88 122.08 171.902 122.086 171.923 122.096C171.944 122.106 171.963 122.12 171.977 122.138C171.992 122.156 172.003 122.177 172.01 122.199C172.016 122.221 172.017 122.245 172.014 122.268C171.656 124.751 171.13 127.355 170.437 130.079C170.426 130.122 170.402 130.16 170.368 130.188C170.334 130.217 170.291 130.233 170.247 130.235C156.372 130.836 143.493 131.369 130.836 132.749C128.888 132.963 127.298 133.232 126.066 133.558C125.636 133.671 125.273 133.813 124.976 133.983C124.936 134.006 124.903 134.039 124.88 134.079C124.856 134.119 124.844 134.165 124.845 134.211C124.845 134.258 124.858 134.303 124.881 134.343C124.905 134.383 124.939 134.416 124.979 134.438C125.262 134.602 125.619 134.735 126.048 134.839C127.44 135.178 129.285 135.476 131.582 135.731C134.95 136.106 138.541 136.424 142.355 136.683C150.726 137.254 159.207 137.711 167.799 138.054C167.826 138.056 167.852 138.063 167.875 138.076C167.899 138.09 167.918 138.108 167.933 138.131C167.948 138.153 167.957 138.179 167.96 138.206C167.963 138.233 167.96 138.26 167.951 138.285C166.929 141.037 165.784 143.724 164.517 146.344C164.497 146.385 164.467 146.42 164.429 146.444C164.392 146.469 164.348 146.483 164.303 146.485C156.162 146.862 148.695 147.319 141.901 147.856C137.731 148.186 134.273 148.582 131.528 149.045C130.267 149.258 129.435 149.499 129.033 149.766C128.994 149.793 128.961 149.83 128.94 149.873C128.919 149.916 128.91 149.964 128.913 150.012C128.916 150.06 128.932 150.107 128.959 150.147C128.986 150.187 129.023 150.219 129.066 150.239C129.626 150.501 129.991 150.647 130.159 150.679C133.03 151.216 135.903 151.612 138.776 151.868C145.675 152.481 152.901 152.956 160.453 153.293C160.478 153.295 160.502 153.303 160.523 153.316C160.544 153.33 160.561 153.349 160.573 153.371C160.585 153.393 160.59 153.418 160.59 153.443C160.589 153.468 160.582 153.493 160.569 153.515C158.563 156.786 156.342 159.871 153.904 162.771C153.875 162.806 153.839 162.835 153.799 162.856C153.758 162.876 153.714 162.888 153.669 162.891C149.875 163.183 146.324 163.511 143.015 163.876C140.918 164.108 138.857 164.432 136.833 164.849C136.273 164.963 135.773 165.141 135.333 165.382C135.281 165.411 135.237 165.454 135.206 165.507C135.175 165.559 135.159 165.618 135.159 165.679C135.158 165.74 135.174 165.799 135.204 165.852C135.234 165.904 135.278 165.948 135.33 165.978C136.177 166.454 137.297 166.666 138.693 166.894C141.832 167.411 145.179 167.804 148.736 168.073C148.763 168.075 148.799 168.095 148.843 168.133C148.852 168.141 148.859 168.151 148.864 168.162C148.869 168.173 148.872 168.185 148.872 168.197C148.873 168.209 148.87 168.221 148.866 168.232C148.861 168.244 148.854 168.254 148.845 168.262C143.984 172.998 138.612 177.069 132.729 180.474C132.692 180.495 132.65 180.504 132.608 180.499C132.566 180.494 132.526 180.476 132.494 180.447L126.114 174.525L123.066 171.349C119.822 167.852 116.823 164.139 114.069 160.209C114.017 160.135 113.954 160.087 113.879 160.065L110.008 154.529L103.423 145.081L98.7717 138.147C97.4618 135.968 94.943 133.064 92.1063 133.932C87.8587 135.231 83.8072 136.375 79.9785 136.513C79.527 136.531 79.1547 136.456 78.8616 136.288C78.812 136.259 78.7699 136.219 78.739 136.17C78.7081 136.122 78.6892 136.066 78.6839 136.009C78.6787 135.952 78.6872 135.894 78.7089 135.841C78.7305 135.788 78.7645 135.741 78.8081 135.704C79.1289 135.433 79.4824 135.217 79.8686 135.058C84.5993 133.112 88.7687 130.377 92.3766 126.855C96.4994 122.828 99.3599 117.993 100.334 112.326C101.439 105.892 100.658 99.1348 98.9291 92.6651C98.926 92.6511 98.9183 92.6386 98.9073 92.6297C98.8962 92.6207 98.8824 92.6159 98.8682 92.6159C98.8541 92.6159 98.8403 92.6207 98.8292 92.6297C98.8182 92.6386 98.8104 92.6511 98.8074 92.6651C97.6935 96.9343 96.0212 100.614 92.8608 103.682C92.8421 103.699 92.8185 103.71 92.7934 103.713C92.7684 103.716 92.743 103.711 92.7208 103.699C92.6986 103.687 92.6807 103.668 92.6696 103.645C92.6585 103.623 92.6547 103.597 92.6588 103.572C93.8915 96.9582 92.8726 89.8689 88.83 84.4201C88.82 84.4062 88.8063 84.3956 88.7904 84.3896C88.7744 84.3836 88.757 84.3824 88.7401 84.3861C88.7233 84.3899 88.7077 84.3985 88.6952 84.4109C88.6827 84.4233 88.6739 84.4389 88.6696 84.456L86.6647 93.71C86.6538 93.7586 86.6314 93.8037 86.5992 93.8413C86.5671 93.8789 86.5263 93.9078 86.4805 93.9255C84.4251 94.7039 82.5943 95.9423 80.9884 97.6408C79.4933 99.2216 78.4477 101.1 77.8517 103.275C77.845 103.299 77.8431 103.325 77.8462 103.35C77.8493 103.374 77.8574 103.399 77.8698 103.42C77.8823 103.442 77.8989 103.461 77.9187 103.476C77.9386 103.491 77.9612 103.502 77.9854 103.509C79.9012 103.997 81.7131 103.167 83.2785 102.009C83.2934 101.999 83.311 101.993 83.3291 101.993C83.3471 101.993 83.3647 101.999 83.3795 102.009C83.3943 102.02 83.4056 102.034 83.412 102.051C83.4184 102.068 83.4194 102.087 83.4151 102.105C81.4052 109.673 78.7844 117.01 75.5527 124.115C73.2754 129.119 70.7675 133.594 68.0288 137.539C66.8665 139.09 65.6951 140.413 64.5149 141.506C62.2456 143.61 59.5525 145.139 56.4357 146.093L54.6356 146.099C54.5643 146.031 54.4683 145.994 54.3475 145.988C53.9416 145.83 53.694 145.713 53.6049 145.635C50.6267 143.046 47.888 140.242 45.389 137.222C45.5454 137.148 45.8979 137.074 46.4464 137.001C46.8445 136.947 47.4425 136.647 48.2405 136.102C49.2287 135.428 50.1564 134.574 51.0237 133.54C51.7326 132.697 52.0426 131.753 51.9534 130.708C51.9492 130.655 51.9306 130.605 51.8998 130.563C51.8689 130.52 51.827 130.487 51.7787 130.467C51.7304 130.447 51.6775 130.441 51.6261 130.45C51.5746 130.459 51.5265 130.481 51.4871 130.516C50.3881 131.47 49.2395 132.352 48.0415 133.163C45.7217 134.734 43.488 135.42 41.5305 133.019C41.0998 132.492 41.0583 132.055 41.3167 131.444C41.4335 131.171 41.5444 130.961 41.6494 130.815L47.6791 121.307L52.3099 115.116L59.8277 105.757L65.7179 99.1886C66.2763 98.5999 66.8615 97.9821 67.4734 97.3355C69.5982 95.0961 71.7457 92.8797 73.916 90.6862C73.9616 90.6403 73.9863 90.5954 73.9903 90.5515C73.9942 90.5016 73.9843 90.4497 73.9606 90.3958C74.0675 90.4577 74.1606 90.4497 74.2398 90.3718C76.8002 87.891 79.4101 85.4201 82.0696 82.9591L90.7518 75.3309L101.941 66.3853L109.697 60.5983C109.411 60.6342 109.429 60.6202 109.75 60.5564C109.844 60.5367 109.933 60.4979 110.011 60.4426L125.989 49.2607L130.1 46.4016C130.254 46.3896 130.417 46.3267 130.587 46.213C143.801 37.4131 157.346 29.3588 171.221 22.0498C182.868 15.9155 195.396 10.1913 208.023 5.85627C208.693 5.62674 209.428 5.50798 210.23 5.5C210.324 5.50001 210.415 5.52591 210.495 5.57485C211.424 6.13469 211.885 7.44 211.13 8.33515C211.077 8.39669 211.015 8.45015 210.946 8.49382C210.554 8.73033 210.07 9.0387 209.752 9.17641C202.97 12.1543 196.206 15.4385 189.462 19.0291C174.429 27.0376 159.236 36.2196 144.969 45.4226C143.601 46.3048 142.154 47.1201 140.63 47.8686C137.792 49.2597 134.668 50.9302 131.258 52.8802C122.545 57.8619 113.883 63.3686 105.271 69.4001C105.1 69.5198 104.981 69.701 104.938 69.9065C104.895 70.112 104.933 70.3262 105.042 70.5048L105.063 70.5378C105.114 70.6229 105.182 70.6966 105.263 70.7547C105.344 70.8127 105.435 70.8538 105.532 70.8756C105.629 70.8973 105.729 70.8993 105.827 70.8814C105.925 70.8635 106.019 70.8261 106.102 70.7713C132.03 53.6466 160.786 41.3241 190.406 31.5792C200.436 28.28 209.479 25.5227 217.534 23.3073C217.996 23.1815 218.579 23.1775 219.284 23.2953C219.383 23.3127 219.473 23.3659 219.536 23.445C220.043 24.0836 220.239 24.7962 220.124 25.5826C220.109 25.683 220.06 25.7742 219.985 25.84C219.474 26.2851 219.055 26.5675 218.728 26.6873C200.47 33.3994 182.523 40.5666 164.906 48.5242C155.942 52.5719 147.136 56.9378 138.488 61.6222Z" fill="#5C0632"/>
</g>
</svg>
