<svg width="210" height="163" viewBox="0 0 210 163" fill="none" xmlns="http://www.w3.org/2000/svg">
<path d="M135.14 18.1747L0 162.411H135.573L210 0H177.075C169.764 0 162.521 1.39495 155.733 4.11003C147.922 7.23439 140.892 12.0356 135.14 18.1747Z" fill="white"/>
<mask id="mask0_592_16833" style="mask-type:alpha" maskUnits="userSpaceOnUse" x="0" y="0" width="210" height="163">
<path d="M135.14 18.1747L0 162.411H135.573L210 0H177.075C169.764 0 162.521 1.39495 155.733 4.11003C147.922 7.23439 140.892 12.0356 135.14 18.1747Z" fill="#2C2C2C"/>
</mask>
<g mask="url(#mask0_592_16833)">
<path d="M213.714 -14H184.904C184.864 -13.9995 184.825 -13.9899 184.788 -13.9716C184.752 -13.9534 184.719 -13.927 184.693 -13.8943L46.07 162.489C46.0339 162.534 46.0105 162.589 46.0028 162.648C45.9951 162.707 46.0033 162.768 46.0266 162.822C46.0498 162.876 46.0869 162.921 46.1336 162.953C46.1802 162.985 46.2343 163.001 46.2893 163H104.095C104.141 163 104.187 162.989 104.228 162.966C104.269 162.942 104.304 162.909 104.33 162.868L213.949 -13.5154C213.979 -13.5618 213.996 -13.6162 213.999 -13.6727C214.003 -13.7291 213.992 -13.7854 213.967 -13.8355C213.943 -13.8855 213.906 -13.9273 213.862 -13.9563C213.817 -13.9853 213.766 -14.0004 213.714 -14Z" fill="#F21723"/>
<path d="M-501 162.251C-501 162.449 -500.928 162.64 -500.799 162.781C-500.67 162.921 -500.496 163 -500.313 163H43.223C43.5193 163 43.8121 162.93 44.0812 162.794C44.3503 162.659 44.5893 162.461 44.7818 162.215L181.922 -13.3298C181.962 -13.3825 181.988 -13.4467 181.997 -13.5148C182.005 -13.5829 181.997 -13.652 181.971 -13.714C181.946 -13.7761 181.905 -13.8284 181.853 -13.865C181.801 -13.9016 181.741 -13.9208 181.679 -13.9204C179.779 -13.9498 173.837 -13.9763 163.855 -13.9998C151.877 -14.0174 141.62 -12.9419 132.348 -6.9734C130.038 -5.48642 125.677 -1.23122 119.264 5.79224C76.9157 52.1294 34.4761 98.5459 -8.0551 145.042C-15.0252 152.659 -24.4909 158.169 -34.3605 159.694C-36.0188 159.947 -40.9213 160.073 -49.0679 160.073C-192.378 160.05 -342.546 160.05 -499.57 160.073C-499.95 160.073 -500.313 160.237 -500.581 160.528C-500.849 160.819 -501 161.213 -501 161.625V162.251Z" fill="#1F3E94"/>
<path d="M213.996 -11.7421C214.005 -11.79 213.999 -11.84 213.979 -11.8837C213.959 -11.9274 213.926 -11.962 213.885 -11.9818C213.845 -12.0016 213.799 -12.0054 213.756 -11.9924C213.714 -11.9795 213.676 -11.9506 213.65 -11.9107L108.057 162.011C108.024 162.065 108.004 162.128 108.001 162.193C107.997 162.258 108.009 162.324 108.037 162.382C108.064 162.44 108.104 162.489 108.155 162.523C108.205 162.558 108.263 162.577 108.322 162.579C118.384 162.768 127.198 162.765 134.766 162.57C134.943 162.57 135.261 162.685 135.722 162.916C136.096 163.105 136.383 162.975 136.581 162.525C146.383 139.985 154.732 121.27 162.11 104.818C177.925 69.5289 194.292 32.7048 211.21 -5.65451C212.246 -8.00611 213.602 -10.1004 213.996 -11.7421Z" fill="#FFB51A"/>
</g>
</svg>
