<svg width="212" height="164" viewBox="0 0 212 164" fill="none" xmlns="http://www.w3.org/2000/svg">
<path d="M136.297 18.6747L1.15625 162.911H136.729L211.156 0.5H178.231C170.92 0.5 163.677 1.89495 156.889 4.61003C149.078 7.73439 142.049 12.5356 136.297 18.6747Z" fill="#212061"/>
<path d="M1.15625 162.911L136.297 18.6746C142.049 12.5356 149.078 7.73439 156.889 4.61003C163.677 1.89496 170.92 0.5 178.231 0.5H211.156M1.15625 162.911H136.729L211.156 0.5M1.15625 162.911L136.297 18.6747C142.049 12.5356 149.078 7.73439 156.889 4.61003C163.677 1.89495 170.92 0.5 178.231 0.5H211.156" stroke="#C2C2C2" stroke-opacity="0.4"/>
<mask id="mask0_569_18899" style="mask-type:alpha" maskUnits="userSpaceOnUse" x="1" y="0" width="211" height="163">
<path d="M136.297 18.6747L1.15625 162.911H136.729L211.156 0.5H178.231C170.92 0.5 163.677 1.89495 156.889 4.61003C149.078 7.73439 142.049 12.5356 136.297 18.6747Z" fill="#212061"/>
</mask>
<g mask="url(#mask0_569_18899)">
<path d="M60.4282 95.4564C66.8203 98.1909 72.6575 101.857 77.9399 106.453C81.8289 109.828 84.1224 114.091 82.2584 119.356C80.5402 124.215 77.2419 126.901 74.3808 130.483C69.0498 137.156 72.4709 143.722 78.1931 148.497C85.1681 154.313 92.8309 158.887 101.182 162.218H170.914V9.4707L147.527 9.48601C147.276 9.48621 147.039 9.58253 146.867 9.75385L60.4282 95.4564ZM162.461 45.5225L153.119 55.5782C153.043 55.6604 152.989 55.7603 152.962 55.8686C152.936 55.9769 152.937 56.0902 152.965 56.198L155.328 65.3277C155.335 65.3526 155.336 65.3793 155.329 65.4045C155.322 65.4297 155.308 65.4524 155.289 65.4701C155.27 65.4877 155.246 65.4995 155.22 65.5041C155.194 65.5087 155.168 65.5059 155.144 65.4961L146.913 62.6569C146.855 62.6364 146.792 62.6342 146.731 62.6506C146.671 62.6669 146.617 62.7011 146.576 62.7487L139.043 70.8529C139.012 70.891 138.968 70.9166 138.919 70.9253C138.871 70.9339 138.821 70.9249 138.778 70.9C138.736 70.8751 138.703 70.8359 138.687 70.7894C138.671 70.7429 138.672 70.6921 138.69 70.6463L142.073 60.8968C142.104 60.8069 142.117 60.7117 142.112 60.6167C142.106 60.5217 142.081 60.4288 142.039 60.3433C141.997 60.2579 141.938 60.1817 141.866 60.1191C141.794 60.0564 141.711 60.0086 141.62 59.9785L135.484 57.8587C135.416 57.8366 135.356 57.7943 135.312 57.7374C135.269 57.6805 135.244 57.6117 135.24 57.5402C135.237 57.4687 135.256 57.3979 135.294 57.3372C135.332 57.2765 135.387 57.2289 135.453 57.2005L144.129 53.29C144.262 53.2295 144.381 53.1426 144.478 53.0347C144.576 52.9267 144.65 52.8 144.696 52.6625L148.7 41.1299C148.713 41.0905 148.739 41.0565 148.773 41.033C148.808 41.0094 148.849 40.9976 148.89 40.9994C148.932 41.0011 148.972 41.0163 149.004 41.0426C149.036 41.0689 149.059 41.1049 149.068 41.1452L151.308 49.8157C151.321 49.8624 151.343 49.906 151.374 49.9433C151.405 49.9806 151.444 50.0108 151.487 50.0318C151.531 50.0529 151.579 50.0643 151.627 50.0653C151.676 50.0663 151.724 50.0569 151.768 50.0376L162.292 45.293C162.323 45.2791 162.357 45.2761 162.39 45.2846C162.422 45.293 162.451 45.3123 162.47 45.3393C162.49 45.3662 162.5 45.3992 162.498 45.4325C162.497 45.4659 162.484 45.4977 162.461 45.5225ZM99.1182 67.2256L100.453 72.3682C100.467 72.4231 100.493 72.4743 100.529 72.5182C100.565 72.5621 100.61 72.5976 100.661 72.6224C100.712 72.6472 100.768 72.6605 100.825 72.6615C100.881 72.6626 100.938 72.6513 100.99 72.6284L104.994 70.8223C105.038 70.8045 105.087 70.8012 105.133 70.813C105.179 70.8248 105.22 70.8511 105.25 70.8879C105.28 70.9247 105.297 70.9702 105.3 71.0176C105.302 71.065 105.289 71.1119 105.262 71.1514L101.757 76.2557C101.682 76.3644 101.629 76.4876 101.603 76.6178C101.577 76.7479 101.577 76.8825 101.603 77.0134L102.869 83.1661C102.877 83.1999 102.874 83.235 102.861 83.2668C102.847 83.2985 102.824 83.3254 102.794 83.3437C102.764 83.3621 102.729 83.371 102.693 83.3694C102.657 83.3677 102.622 83.3555 102.593 83.3345L99.3713 80.8474C99.3321 80.8162 99.2871 80.793 99.239 80.7792C99.1909 80.7654 99.1408 80.7612 99.0914 80.7669C99.0421 80.7726 98.9946 80.7881 98.9518 80.8124C98.909 80.8367 98.8717 80.8694 98.842 80.9086L95.3673 85.3931C95.3528 85.4126 95.3321 85.4267 95.3085 85.4329C95.285 85.4392 95.26 85.4372 95.2377 85.4274C95.2154 85.4176 95.1971 85.4006 95.1858 85.379C95.1745 85.3575 95.1709 85.3327 95.1756 85.3089L96.4028 79.0566C96.4256 78.9493 96.4176 78.8378 96.3796 78.7349C96.3416 78.632 96.2752 78.5419 96.1881 78.475L93.5571 76.4394C93.5227 76.4131 93.4957 76.3783 93.4786 76.3385C93.4615 76.2988 93.455 76.2553 93.4596 76.2123C93.4642 76.1692 93.4799 76.1281 93.505 76.0929C93.5301 76.0576 93.5639 76.0294 93.6031 76.0109L97.1239 74.4344C97.2281 74.387 97.3195 74.315 97.3903 74.2244C97.4611 74.1339 97.5091 74.0274 97.5304 73.914L98.842 67.2332C98.841 67.1967 98.8546 67.1613 98.8798 67.1347C98.905 67.1082 98.9397 67.0927 98.9763 67.0916C99.0129 67.0906 99.0484 67.1042 99.075 67.1293C99.1016 67.1544 99.1172 67.189 99.1182 67.2256ZM112.626 99.497L114.551 92.6478C114.581 92.5348 114.577 92.4159 114.541 92.3057C114.504 92.1955 114.435 92.0989 114.344 92.0279L110.202 88.8291C110.162 88.7974 110.131 88.7552 110.114 88.7073C110.096 88.6593 110.093 88.6074 110.103 88.5574C110.113 88.5074 110.137 88.4612 110.172 88.4241C110.208 88.3869 110.252 88.3602 110.302 88.347L115.802 86.9236C115.939 86.8888 116.064 86.8186 116.164 86.7203C116.263 86.622 116.334 86.4993 116.369 86.365C117.382 82.5386 117.967 80.3423 118.126 79.776C118.138 79.7289 118.166 79.6873 118.205 79.6576C118.244 79.6279 118.292 79.6118 118.34 79.6118C118.389 79.6118 118.437 79.6279 118.476 79.6576C118.515 79.6873 118.542 79.7289 118.555 79.776L120.028 85.4543C120.038 85.4962 120.056 85.5358 120.082 85.5706C120.107 85.6054 120.139 85.6348 120.175 85.6569C120.212 85.679 120.252 85.6935 120.294 85.6994C120.336 85.7054 120.378 85.7027 120.419 85.6915L126.77 84.0538C126.81 84.0453 126.851 84.0495 126.888 84.0657C126.925 84.0819 126.956 84.1094 126.976 84.1442C126.997 84.179 127.006 84.2193 127.002 84.2594C126.998 84.2996 126.981 84.3374 126.954 84.3676L121.393 90.3597C121.285 90.4743 121.208 90.6138 121.169 90.7651C121.13 90.9164 121.131 91.0745 121.171 91.2244L122.912 97.9511C122.923 97.9997 122.919 98.0505 122.901 98.0967C122.882 98.143 122.85 98.1824 122.808 98.2099C122.766 98.2373 122.717 98.2514 122.667 98.2503C122.617 98.2492 122.569 98.2329 122.529 98.2037L118.095 94.7753C117.994 94.6984 117.867 94.6622 117.74 94.6735C117.613 94.6848 117.493 94.7429 117.405 94.8365L112.925 99.6653C112.898 99.6945 112.862 99.7137 112.823 99.7199C112.784 99.7261 112.743 99.7188 112.709 99.6993C112.674 99.6798 112.647 99.6493 112.632 99.6125C112.617 99.5758 112.615 99.5351 112.626 99.497ZM144.198 96.0609L146.2 103.79C146.23 103.9 146.298 103.995 146.392 104.06C146.486 104.124 146.6 104.153 146.714 104.142L155.596 103.277C155.634 103.273 155.671 103.281 155.704 103.301C155.736 103.32 155.761 103.35 155.774 103.385C155.787 103.421 155.788 103.459 155.777 103.495C155.765 103.531 155.742 103.562 155.711 103.584L147.749 109.713C147.638 109.8 147.554 109.916 147.507 110.048C147.461 110.18 147.454 110.322 147.488 110.456L149.636 118.736C149.652 118.789 149.65 118.846 149.631 118.898C149.612 118.95 149.577 118.995 149.53 119.025C149.484 119.056 149.429 119.071 149.374 119.069C149.318 119.066 149.265 119.046 149.222 119.011L142.687 113.961C142.586 113.881 142.461 113.838 142.332 113.838C142.202 113.838 142.076 113.881 141.973 113.961L135.53 118.92C135.508 118.939 135.48 118.95 135.451 118.951C135.422 118.953 135.393 118.945 135.369 118.928C135.346 118.911 135.328 118.887 135.32 118.859C135.311 118.831 135.312 118.801 135.323 118.774L138.077 110.823C138.097 110.768 138.099 110.707 138.082 110.651C138.066 110.595 138.032 110.545 137.985 110.509L132.224 106.063C132.187 106.034 132.16 105.994 132.146 105.949C132.132 105.905 132.131 105.857 132.144 105.812C132.158 105.767 132.184 105.726 132.22 105.696C132.256 105.666 132.3 105.647 132.347 105.642L140.324 104.869C140.457 104.856 140.582 104.806 140.686 104.724C140.789 104.643 140.866 104.533 140.907 104.41L143.807 96.0456C143.822 96.0056 143.85 95.9714 143.886 95.9478C143.922 95.9243 143.965 95.9125 144.008 95.9142C144.051 95.9159 144.092 95.9309 144.126 95.9572C144.16 95.9835 144.185 96.0198 144.198 96.0609ZM95.1602 118.583L96.1727 113.425C96.1944 113.324 96.1933 113.22 96.1694 113.118C96.1456 113.016 96.0996 112.92 96.0346 112.836L93.7105 109.836C93.6874 109.804 93.6729 109.768 93.6686 109.729C93.6642 109.69 93.6701 109.651 93.6856 109.616C93.7011 109.58 93.7258 109.549 93.7571 109.526C93.7884 109.503 93.8252 109.488 93.8639 109.484L96.9858 109.178C97.1028 109.166 97.2131 109.117 97.3002 109.037C97.3873 108.957 97.4466 108.851 97.469 108.734L98.5659 103.178C98.5649 103.15 98.5752 103.122 98.5947 103.101C98.6141 103.08 98.641 103.068 98.6695 103.067C98.6979 103.066 98.7257 103.076 98.7465 103.096C98.7674 103.115 98.7797 103.142 98.7807 103.17L100.131 108.389C100.163 108.509 100.236 108.613 100.338 108.683C100.439 108.754 100.561 108.785 100.683 108.772L104.219 108.428C104.274 108.423 104.33 108.434 104.379 108.461C104.427 108.488 104.467 108.529 104.491 108.579C104.516 108.628 104.526 108.684 104.518 108.739C104.51 108.794 104.486 108.846 104.449 108.887L101.297 112.285C101.188 112.402 101.111 112.545 101.072 112.7C101.033 112.855 101.034 113.018 101.074 113.172L102.486 118.629C102.498 118.674 102.495 118.721 102.478 118.765C102.461 118.808 102.43 118.844 102.39 118.869C102.35 118.893 102.304 118.903 102.257 118.899C102.211 118.894 102.167 118.875 102.133 118.843L98.7423 115.713C98.7037 115.677 98.6583 115.649 98.6088 115.631C98.5592 115.612 98.5065 115.604 98.4537 115.606C98.4009 115.608 98.349 115.621 98.3011 115.643C98.2532 115.665 98.2103 115.697 98.1747 115.736L95.4133 118.705C95.3923 118.729 95.3639 118.746 95.3326 118.752C95.3012 118.759 95.2686 118.755 95.2398 118.741C95.211 118.727 95.1876 118.704 95.1732 118.675C95.1589 118.647 95.1543 118.614 95.1602 118.583Z" fill="#212061"/>
<path d="M162.317 45.2928L151.793 50.0374C151.749 50.0567 151.701 50.0661 151.652 50.0651C151.604 50.0641 151.556 50.0527 151.512 50.0317C151.469 50.0106 151.43 49.9804 151.399 49.9431C151.368 49.9058 151.346 49.8623 151.333 49.8155L149.093 41.145C149.083 41.1047 149.061 41.0687 149.029 41.0424C148.996 41.0161 148.957 41.0009 148.915 40.9992C148.873 40.9975 148.832 41.0093 148.798 41.0328C148.764 41.0563 148.738 41.0904 148.725 41.1297L144.721 52.6623C144.675 52.7999 144.601 52.9265 144.503 53.0345C144.406 53.1425 144.287 53.2294 144.154 53.2898L135.478 57.2004C135.412 57.2287 135.357 57.2764 135.319 57.337C135.281 57.3977 135.262 57.4685 135.265 57.54C135.269 57.6115 135.294 57.6803 135.337 57.7372C135.381 57.7941 135.441 57.8364 135.509 57.8585L141.645 59.9783C141.736 60.0085 141.819 60.0563 141.891 60.1189C141.963 60.1815 142.022 60.2577 142.064 60.3432C142.106 60.4286 142.131 60.5215 142.136 60.6165C142.142 60.7115 142.129 60.8067 142.098 60.8966L138.715 70.6462C138.697 70.692 138.696 70.7427 138.712 70.7892C138.728 70.8357 138.761 70.8749 138.803 70.8998C138.846 70.9248 138.896 70.9337 138.944 70.9251C138.993 70.9164 139.037 70.8908 139.068 70.8528L146.6 62.7486C146.642 62.701 146.696 62.6668 146.756 62.6504C146.816 62.634 146.88 62.6362 146.938 62.6567L155.168 65.4959C155.193 65.5058 155.219 65.5086 155.245 65.504C155.271 65.4994 155.295 65.4876 155.314 65.4699C155.333 65.4523 155.347 65.4295 155.354 65.4043C155.361 65.3791 155.36 65.3525 155.352 65.3275L152.99 56.1979C152.961 56.09 152.961 55.9767 152.987 55.8684C153.014 55.7601 153.068 55.6602 153.143 55.578L162.486 45.5224C162.508 45.4975 162.522 45.4657 162.523 45.4324C162.525 45.399 162.515 45.3661 162.495 45.3391C162.475 45.3122 162.447 45.2928 162.415 45.2844C162.382 45.276 162.348 45.2789 162.317 45.2928Z" fill="white"/>
<path d="M99.1387 67.2248C99.1377 67.1883 99.1221 67.1536 99.0955 67.1285C99.0689 67.1034 99.0334 67.0899 98.9968 67.0909C98.9602 67.0919 98.9254 67.1074 98.9003 67.1339C98.8751 67.1605 98.8615 67.1959 98.8625 67.2324L97.5509 73.9132C97.5296 74.0266 97.4815 74.1331 97.4108 74.2237C97.34 74.3142 97.2486 74.3862 97.1444 74.4336L93.6236 76.0101C93.5844 76.0286 93.5506 76.0568 93.5255 76.0921C93.5004 76.1273 93.4847 76.1685 93.4801 76.2115C93.4755 76.2545 93.482 76.298 93.4991 76.3378C93.5162 76.3775 93.5432 76.4123 93.5776 76.4386L96.2086 78.4743C96.2957 78.5411 96.3621 78.6312 96.4001 78.7341C96.4381 78.837 96.4461 78.9486 96.4233 79.0559L95.196 85.3081C95.1914 85.332 95.195 85.3567 95.2063 85.3783C95.2176 85.3998 95.2359 85.4169 95.2582 85.4267C95.2805 85.4365 95.3055 85.4384 95.329 85.4321C95.3526 85.4259 95.3733 85.4118 95.3878 85.3923L98.8625 80.9078C98.8921 80.8687 98.9295 80.836 98.9723 80.8116C99.0151 80.7873 99.0626 80.7718 99.1119 80.7661C99.1613 80.7604 99.2114 80.7646 99.2595 80.7784C99.3076 80.7922 99.3526 80.8154 99.3918 80.8466L102.613 83.3337C102.642 83.3548 102.677 83.3669 102.713 83.3686C102.749 83.3702 102.784 83.3613 102.815 83.3429C102.845 83.3246 102.868 83.2977 102.881 83.266C102.895 83.2342 102.898 83.1991 102.89 83.1653L101.624 77.0126C101.597 76.8817 101.597 76.7472 101.623 76.617C101.65 76.4868 101.702 76.3637 101.777 76.255L105.283 71.1506C105.309 71.1112 105.322 71.0643 105.32 71.0168C105.318 70.9694 105.3 70.924 105.27 70.8871C105.24 70.8503 105.199 70.8241 105.153 70.8123C105.107 70.8005 105.058 70.8037 105.014 70.8216L101.01 72.6276C100.958 72.6505 100.902 72.6618 100.845 72.6608C100.788 72.6597 100.732 72.6464 100.681 72.6216C100.63 72.5969 100.585 72.5613 100.549 72.5174C100.513 72.4735 100.487 72.4223 100.473 72.3674L99.1387 67.2248Z" fill="white"/>
<path d="M112.938 99.6648L117.418 94.836C117.506 94.7424 117.626 94.6843 117.753 94.673C117.881 94.6617 118.007 94.6979 118.108 94.7748L122.542 98.2032C122.582 98.2324 122.63 98.2487 122.68 98.2498C122.73 98.2509 122.779 98.2368 122.821 98.2094C122.863 98.1819 122.895 98.1425 122.914 98.0962C122.932 98.05 122.936 97.9992 122.925 97.9506L121.184 91.2239C121.144 91.074 121.143 90.9159 121.182 90.7646C121.221 90.6133 121.298 90.4737 121.406 90.3592L126.968 84.3671C126.994 84.3369 127.011 84.299 127.015 84.2589C127.019 84.2188 127.01 84.1785 126.989 84.1437C126.969 84.1089 126.938 84.0814 126.901 84.0652C126.864 84.049 126.823 84.0448 126.783 84.0533L120.432 85.691C120.392 85.7022 120.349 85.7049 120.307 85.6989C120.265 85.693 120.225 85.6785 120.188 85.6564C120.152 85.6343 120.12 85.6049 120.095 85.5701C120.069 85.5353 120.051 85.4957 120.041 85.4538L118.568 79.7755C118.556 79.7284 118.528 79.6868 118.489 79.6571C118.45 79.6274 118.402 79.6113 118.354 79.6113C118.305 79.6113 118.257 79.6274 118.218 79.6571C118.179 79.6868 118.151 79.7284 118.139 79.7755C117.98 80.3418 117.395 82.5381 116.382 86.3644C116.347 86.4988 116.276 86.6215 116.177 86.7198C116.077 86.8181 115.952 86.8883 115.815 86.9231L110.315 88.3465C110.265 88.3597 110.221 88.3864 110.186 88.4236C110.15 88.4607 110.126 88.5069 110.116 88.5569C110.106 88.6069 110.109 88.6588 110.127 88.7068C110.144 88.7547 110.175 88.7969 110.215 88.8286L114.357 92.0274C114.448 92.0984 114.517 92.195 114.554 92.3052C114.59 92.4154 114.594 92.5343 114.564 92.6473L112.639 99.4965C112.628 99.5346 112.63 99.5753 112.645 99.612C112.66 99.6488 112.687 99.6793 112.722 99.6988C112.756 99.7183 112.797 99.7256 112.836 99.7194C112.875 99.7132 112.911 99.694 112.938 99.6648Z" fill="white"/>
<path d="M57.1588 98.4626C61.485 100.769 64.7859 103.422 67.0615 106.421C71.7174 112.566 69.4163 118.559 63.0421 121.78C59.3066 123.671 55.6324 125.545 54.6122 130.122C53.9474 133.111 54.6608 135.846 56.7523 138.325C58.9819 140.968 61.0912 143.009 63.0805 144.448C71.7328 150.692 81.2672 156.547 91.1391 160.625C92.4022 161.146 93.6295 161.763 94.821 162.477L101.188 162.217C92.8369 158.886 85.1741 154.312 78.199 148.496C72.4768 143.721 69.0558 137.155 74.3868 130.481C77.2479 126.9 80.5462 124.214 82.2644 119.354C84.1283 114.089 81.8348 109.827 77.9459 106.452C72.6635 101.855 66.8262 98.1896 60.4341 95.4551L57.1588 98.4626Z" fill="#F9B617"/>
<path d="M144.194 96.0604C144.182 96.0193 144.157 95.983 144.123 95.9567C144.089 95.9305 144.047 95.9154 144.004 95.9137C143.961 95.912 143.919 95.9238 143.883 95.9474C143.847 95.9709 143.819 96.0051 143.803 96.0451L140.904 104.41C140.863 104.533 140.786 104.642 140.682 104.724C140.579 104.805 140.453 104.855 140.321 104.869L132.344 105.642C132.297 105.647 132.253 105.666 132.217 105.696C132.181 105.726 132.154 105.766 132.141 105.811C132.128 105.856 132.129 105.904 132.143 105.949C132.157 105.994 132.184 106.033 132.221 106.062L137.981 110.509C138.028 110.544 138.062 110.594 138.079 110.65C138.096 110.707 138.094 110.767 138.073 110.822L135.32 118.774C135.309 118.801 135.308 118.831 135.316 118.858C135.325 118.886 135.342 118.911 135.366 118.927C135.39 118.944 135.419 118.952 135.448 118.951C135.477 118.949 135.505 118.938 135.527 118.919L141.97 113.96C142.073 113.881 142.199 113.838 142.328 113.838C142.458 113.838 142.583 113.881 142.683 113.96L149.219 119.011C149.262 119.046 149.315 119.066 149.371 119.068C149.426 119.071 149.481 119.056 149.527 119.025C149.573 118.994 149.609 118.95 149.628 118.897C149.647 118.845 149.648 118.789 149.633 118.735L147.485 110.455C147.451 110.321 147.458 110.179 147.504 110.048C147.55 109.916 147.634 109.799 147.746 109.713L155.708 103.583C155.739 103.562 155.762 103.531 155.773 103.495C155.785 103.459 155.784 103.42 155.771 103.385C155.757 103.35 155.733 103.32 155.7 103.3C155.668 103.281 155.63 103.273 155.593 103.277L146.71 104.142C146.597 104.153 146.483 104.124 146.389 104.059C146.295 103.995 146.227 103.899 146.196 103.79L144.194 96.0604Z" fill="white"/>
<path d="M94.8359 162.477C93.6445 161.763 92.4172 161.146 91.1541 160.625C81.2822 156.546 71.7477 150.692 63.0954 144.447C61.1062 143.009 58.9968 140.968 56.7672 138.325C54.6758 135.846 53.9624 133.111 54.6272 130.122C55.6473 125.545 59.3215 123.67 63.0571 121.78C69.4312 118.558 71.7324 112.566 67.0764 106.421C64.8008 103.421 61.4999 100.768 57.1738 98.4624L-6.72148 161.842C-6.77667 161.895 -6.81466 161.963 -6.83054 162.038C-6.84642 162.113 -6.83947 162.191 -6.81058 162.262C-6.78168 162.333 -6.73217 162.393 -6.66843 162.436C-6.60471 162.478 -6.52966 162.501 -6.45301 162.5L94.8359 162.477Z" fill="#006535"/>
<path d="M95.4084 118.705L98.1698 115.736C98.2053 115.696 98.2483 115.665 98.2962 115.643C98.3441 115.62 98.396 115.608 98.4488 115.606C98.5016 115.603 98.5543 115.612 98.6039 115.63C98.6534 115.649 98.6988 115.677 98.7374 115.713L102.128 118.842C102.162 118.874 102.206 118.894 102.252 118.898C102.299 118.903 102.345 118.892 102.385 118.868C102.425 118.844 102.456 118.807 102.473 118.764C102.49 118.721 102.493 118.673 102.481 118.628L101.069 113.172C101.029 113.017 101.028 112.855 101.067 112.7C101.106 112.545 101.183 112.402 101.292 112.284L104.444 108.886C104.482 108.845 104.506 108.794 104.513 108.739C104.521 108.684 104.511 108.628 104.486 108.578C104.462 108.529 104.422 108.488 104.374 108.461C104.325 108.434 104.27 108.422 104.214 108.427L100.678 108.772C100.556 108.784 100.434 108.753 100.333 108.683C100.231 108.613 100.158 108.509 100.126 108.389L98.7758 103.17C98.7747 103.141 98.7625 103.115 98.7416 103.095C98.7207 103.076 98.693 103.065 98.6645 103.066C98.6361 103.067 98.6091 103.08 98.5897 103.101C98.5703 103.121 98.56 103.149 98.561 103.177L97.4641 108.733C97.4416 108.85 97.3824 108.956 97.2953 109.036C97.2082 109.116 97.0979 109.166 96.9809 109.177L93.859 109.483C93.8203 109.488 93.7834 109.502 93.7522 109.525C93.7209 109.549 93.6962 109.58 93.6807 109.615C93.6652 109.651 93.6593 109.69 93.6636 109.729C93.668 109.767 93.6825 109.804 93.7056 109.835L96.0297 112.835C96.0946 112.919 96.1406 113.016 96.1645 113.117C96.1883 113.219 96.1895 113.324 96.1678 113.424L95.1553 118.582C95.1493 118.614 95.1539 118.646 95.1683 118.675C95.1827 118.703 95.2061 118.726 95.2349 118.74C95.2637 118.754 95.2963 118.758 95.3277 118.752C95.359 118.745 95.3874 118.729 95.4084 118.705Z" fill="white"/>
</g>
</svg>
