<svg width="212" height="164" viewBox="0 0 212 164" fill="none" xmlns="http://www.w3.org/2000/svg">
<path d="M136.294 18.6747L1.15369 162.911H136.727L211.154 0.5H178.228C170.918 0.5 163.674 1.89495 156.887 4.61003C149.076 7.73439 142.046 12.5356 136.294 18.6747Z" fill="#006472"/>
<path d="M1.15369 162.911L136.294 18.6746C142.046 12.5356 149.076 7.73439 156.887 4.61003C163.674 1.89496 170.918 0.5 178.228 0.5H211.154M1.15369 162.911H136.727L211.154 0.5M1.15369 162.911L136.294 18.6747C142.046 12.5356 149.076 7.73439 156.887 4.61003C163.674 1.89495 170.918 0.5 178.228 0.5H211.154" stroke="#C2C2C2" stroke-opacity="0.4"/>
<path d="M143.751 100.906C142.531 104.836 138.465 108.527 133.585 109.294C134.375 110.516 134.733 112.026 134.542 113.703C134.016 118.256 129.663 121.923 124.999 121.971C121.841 121.995 117.56 120.629 114.546 115.86C111.843 111.618 111.461 104.884 111.652 102.847C108.351 106.226 106.294 109.509 105.314 111.786C103.113 116.938 102.276 123.217 102.324 126.165C102.324 126.165 101.917 126.548 101.534 126.62C100.315 126.404 99.2622 125.949 98.4729 125.254C97.5162 124.391 97.3009 123.577 97.3009 123.577C98.7599 116.267 101.08 111.714 104.548 106.514C109.212 99.4923 116.412 95.1547 124.951 92.5426C131.122 90.6494 137.532 90.242 141.933 93.9804C144.301 95.9455 144.444 98.7733 143.751 100.906ZM107.395 97.0239C105.936 99.4683 101.941 103.398 98.7839 105.435C92.2063 109.653 87.4704 109.941 85.1025 108.431C84.8155 108.263 84.5763 108.048 84.361 107.832C82.5193 105.891 82.8302 102.44 84.9829 99.6121C86.0353 98.2222 87.3986 97.2396 88.7142 96.7843C87.6857 96.305 86.992 95.2985 86.8485 93.8846C86.5615 91.0568 88.6903 87.3423 91.6322 85.8325C94.2154 84.5145 99.7884 83.1964 103.878 89.3074C105.481 91.6798 106.916 95.0588 107.395 97.0239ZM134.422 71.334C134.064 67.8112 130.308 66.5171 126.171 68.2905C124.209 69.1292 122.487 70.5432 121.267 72.1488C121.459 70.5432 121.004 69.1292 119.856 68.2905C117.584 66.6369 113.446 67.8591 110.624 70.9266C109.643 72.005 106.438 75.8872 106.27 81.5908C106.199 84.3467 107.418 90.4577 111.437 94.6754C122.152 90.6254 127.917 84.4186 130.117 81.8544C132.652 78.8828 133.729 76.2707 134.183 74.3535C134.518 72.8437 134.47 71.7653 134.422 71.334Z" fill="#82C341"/>
<path d="M134.255 74.042C133.729 76.1748 129.232 81.6867 123.013 86.3837C116.555 91.2485 112.872 93.6929 111.461 94.6515C122.152 90.6254 127.917 84.4185 130.117 81.8543C132.653 78.8827 133.729 76.2704 134.183 74.3532C134.207 74.2574 134.231 74.1618 134.255 74.042ZM107.395 96.9997C104.572 99.6837 100.41 103.686 93.2584 106.849C89.7185 108.359 86.2504 108.934 85.1023 108.383C87.4702 109.917 92.2064 109.629 98.784 105.411C101.941 103.374 105.936 99.4441 107.395 96.9997ZM112.322 98.5097C112.314 98.5097 112.306 98.515 112.299 98.5195C112.284 98.5262 112.274 98.5335 112.274 98.5335C104.596 104.045 101.989 113.967 101.558 126.596C101.941 126.524 102.347 126.14 102.347 126.14C102.3 123.193 103.137 116.938 105.337 111.762C106.318 109.485 108.375 106.202 111.676 102.823C111.915 100.571 112.178 99.2526 112.345 98.5097C112.33 98.5097 112.322 98.5139 112.311 98.5171C112.315 98.5144 112.318 98.5134 112.322 98.5097ZM144.085 99.2525C143.75 101.529 142.22 104.285 139.78 105.795C137.627 107.137 135.14 108.023 132.317 107.784C132.772 108.215 133.131 108.575 133.585 109.27C138.465 108.527 142.531 104.836 143.751 100.906C143.918 100.379 144.037 99.8276 144.085 99.2525Z" fill="#3CB14A"/>
</svg>
