<svg width="212" height="164" viewBox="0 0 212 164" fill="none" xmlns="http://www.w3.org/2000/svg">
<path d="M136.297 18.6747L1.15625 162.911H136.729L211.156 0.5H178.231C170.92 0.5 163.677 1.89495 156.889 4.61003C149.078 7.73439 142.049 12.5356 136.297 18.6747Z" fill="#009A42"/>
<path d="M1.15625 162.911L136.297 18.6746C142.049 12.5356 149.078 7.73439 156.889 4.61003C163.677 1.89496 170.92 0.5 178.231 0.5H211.156M1.15625 162.911H136.729L211.156 0.5M1.15625 162.911L136.297 18.6747C142.049 12.5356 149.078 7.73439 156.889 4.61003C163.677 1.89495 170.92 0.5 178.231 0.5H211.156" stroke="#C2C2C2" stroke-opacity="0.4"/>
<mask id="mask0_644_65805" style="mask-type:alpha" maskUnits="userSpaceOnUse" x="1" y="0" width="211" height="163">
<path d="M136.297 18.6747L1.15625 162.911H136.729L211.156 0.5H178.231C170.92 0.5 163.677 1.89495 156.889 4.61003C149.078 7.73439 142.049 12.5356 136.297 18.6747Z" fill="#100D5C"/>
</mask>
<g mask="url(#mask0_644_65805)">
<path d="M116.407 134.45C116.075 133.918 115.998 129.535 115.567 127.731C115.361 126.875 114.548 122.491 113.127 114.581C112.696 112.212 112.033 110.264 112.199 107.497C112.208 107.347 112.177 107.197 112.109 107.063C112.042 106.929 111.94 106.815 111.814 106.733C111.689 106.651 111.544 106.604 111.394 106.596C111.244 106.588 111.095 106.62 110.962 106.689L98.6704 112.987C98.5816 113.035 98.4798 113.054 98.3797 113.04C98.2795 113.027 98.1864 112.981 98.1137 112.911C98.0411 112.841 97.9927 112.749 97.9756 112.649C97.9586 112.549 97.9737 112.446 98.0189 112.356L104.016 99.5711C104.035 99.5309 104.045 99.4869 104.045 99.4423C104.045 99.3976 104.036 99.3535 104.017 99.3131C103.997 99.2728 103.97 99.2372 103.935 99.2091C103.901 99.181 103.86 99.1609 103.817 99.1505L84.2805 93.7931C84.2442 93.78 84.2127 93.7559 84.1905 93.7242C84.1682 93.6925 84.1562 93.6547 84.1562 93.616C84.1562 93.5772 84.1682 93.5394 84.1905 93.5077C84.2127 93.476 84.2442 93.452 84.2805 93.4389L103.176 88.5685C103.339 88.5257 103.49 88.4469 103.619 88.3378C103.747 88.2287 103.85 88.0922 103.918 87.9382C103.987 87.7842 104.021 87.6168 104.017 87.4481C104.012 87.2794 103.971 87.1138 103.894 86.9635L97.8311 75.0864C97.7958 75.0163 97.7833 74.9369 97.7953 74.8593C97.8073 74.7817 97.8431 74.7098 97.8979 74.6537C97.9527 74.5976 98.0237 74.56 98.1008 74.5463C98.1779 74.5326 98.2574 74.5434 98.3281 74.5772L111.172 80.632C111.27 80.6784 111.378 80.7007 111.487 80.697C111.595 80.6933 111.702 80.6637 111.797 80.6107C111.892 80.5577 111.973 80.4828 112.033 80.3922C112.093 80.3015 112.131 80.1978 112.144 80.0896L112.42 77.4995C112.427 77.4552 112.434 77.4109 112.442 77.3666L116.65 52.583C116.653 52.5639 116.661 52.5462 116.675 52.532C116.688 52.5177 116.705 52.5077 116.723 52.503C116.742 52.4983 116.762 52.4992 116.78 52.5055C116.798 52.5119 116.814 52.5234 116.826 52.5388C117.415 53.2619 117.754 53.9003 117.842 54.4537C118.932 61.7371 120.415 70.4706 122.293 80.6541C122.304 80.7179 122.331 80.7781 122.37 80.8298C122.409 80.8816 122.46 80.9236 122.519 80.9525C122.578 80.9814 122.643 80.9965 122.709 80.9966C122.775 80.9967 122.84 80.9818 122.9 80.953L134.971 74.7654C135.083 74.7077 135.211 74.6866 135.336 74.705C135.461 74.7234 135.577 74.7805 135.668 74.8682C135.759 74.9559 135.821 75.0699 135.845 75.1943C135.868 75.3187 135.852 75.4474 135.799 75.5624L130.034 87.849C130.018 87.8846 130.01 87.9233 130.009 87.9622C130.009 88.0012 130.017 88.0395 130.033 88.0744C130.049 88.1093 130.072 88.14 130.101 88.1642C130.13 88.1883 130.164 88.2055 130.2 88.2143L149.88 93.6049C149.916 93.618 149.948 93.642 149.97 93.6737C149.992 93.7054 150.004 93.7433 150.004 93.782C150.004 93.8208 149.992 93.8586 149.97 93.8903C149.948 93.922 149.916 93.946 149.88 93.9591L130.366 98.9955C130.275 99.0199 130.191 99.0642 130.12 99.1253C130.048 99.1864 129.992 99.2628 129.953 99.3487C129.915 99.4347 129.897 99.5281 129.899 99.6221C129.902 99.7161 129.925 99.8084 129.968 99.8921L135.921 111.57C135.981 111.693 136.002 111.832 135.981 111.968C135.959 112.103 135.896 112.229 135.801 112.328C135.705 112.426 135.581 112.492 135.447 112.517C135.312 112.542 135.173 112.524 135.048 112.467L122.867 106.733C122.798 106.699 122.721 106.682 122.644 106.683C122.567 106.684 122.491 106.703 122.423 106.738C122.354 106.774 122.295 106.825 122.249 106.887C122.204 106.95 122.173 107.022 122.16 107.098C121.122 113.503 119.996 119.957 118.781 126.458C118.284 129.148 118.284 132.225 117.091 134.428C117.058 134.488 117.01 134.54 116.951 134.576C116.892 134.612 116.824 134.632 116.755 134.635C116.686 134.637 116.618 134.621 116.556 134.589C116.495 134.556 116.444 134.508 116.407 134.45Z" fill="white"/>
<path d="M216.076 -8.39756L137.207 165.755C137.013 166.173 136.766 166.531 136.483 166.801L136.039 167.225L135.639 167.146C133.811 166.291 131.893 165.914 129.885 166.014L128.498 165.741L208.459 -9.89679L216.076 -8.39756Z" fill="#EB5400"/>
</g>
</svg>
