<svg width="210" height="163" viewBox="0 0 210 163" fill="none" xmlns="http://www.w3.org/2000/svg">
<path d="M135.14 18.1747L0 162.411H135.573L210 0H177.075C169.764 0 162.521 1.39495 155.733 4.11003C147.922 7.23439 140.892 12.0356 135.14 18.1747Z" fill="white"/>
<path d="M177.074 0.5H209.222L135.252 161.911H1.1543L135.505 18.5166C141.029 12.621 147.742 7.96986 155.195 4.86914L155.919 4.57422C162.647 1.8829 169.828 0.500037 177.074 0.5Z" stroke="#C2C2C2" stroke-opacity="0.4"/>
<mask id="mask0_788_215839" style="mask-type:alpha" maskUnits="userSpaceOnUse" x="0" y="0" width="210" height="163">
<path d="M135.14 18.1747L0 162.411H135.573L210 0H177.075C169.764 0 162.521 1.39495 155.733 4.11003C147.922 7.23439 140.892 12.0356 135.14 18.1747Z" fill="#1C325C"/>
</mask>
<g mask="url(#mask0_788_215839)">
<path d="M107.326 101.439C107.33 101.454 107.329 101.47 107.323 101.484C107.316 101.499 107.304 101.51 107.29 101.517C94.5543 107.19 82.0688 113.517 69.8336 120.497C69.7526 120.543 69.6625 120.571 69.5697 120.578C69.4768 120.586 69.3834 120.574 69.2959 120.542C69.2084 120.51 69.1289 120.459 69.0631 120.393C68.9972 120.327 68.9465 120.248 68.9145 120.16C68.8206 119.895 68.8983 119.352 69.0277 119.084C72.1216 112.662 76.3223 101.526 80.7042 92.4307C81.9102 89.928 83.0548 88.0311 84.1378 86.7399C87.4669 82.7692 91.879 80.5123 97.3742 79.9691C98.112 79.8958 99.3774 79.7719 101.17 79.5973C103.267 79.3936 105.381 77.3598 106.717 75.646C108.801 72.9753 112.407 71.5849 115.507 71.5493C121.999 71.476 128.074 73.0529 133.734 76.2798C135.358 77.2045 137.843 78.679 141.187 80.7031C143.679 82.2142 146.413 83.4957 149.391 84.5476C149.798 84.692 150.064 84.8613 150.187 85.0553C150.224 85.1147 150.247 85.1819 150.253 85.2516C150.26 85.3214 150.251 85.3918 150.226 85.4575C150.201 85.5231 150.161 85.5823 150.109 85.6303C150.057 85.6783 149.995 85.7139 149.928 85.7343C140.959 88.4094 132.216 91.4003 123.698 94.707C123.643 94.7284 123.584 94.7382 123.524 94.736C123.464 94.7338 123.406 94.7195 123.352 94.6941L102.316 85.0941C102.23 85.0546 102.132 85.0488 102.041 85.0779L89.8499 88.8319C89.8334 88.8373 89.8188 88.8471 89.8077 88.8602C89.7965 88.8734 89.7891 88.8894 89.7865 88.9064C89.7838 88.9235 89.7859 88.9409 89.7925 88.9569C89.7991 88.9728 89.81 88.9866 89.824 88.9968L107.29 101.355C107.302 101.362 107.311 101.372 107.317 101.382C107.324 101.392 107.327 101.403 107.326 101.413C107.324 101.424 107.324 101.432 107.326 101.439Z" fill="#DF2428"/>
<path d="M109.876 135.4C109.874 135.416 109.876 135.432 109.883 135.447C109.889 135.461 109.9 135.473 109.912 135.482C109.925 135.491 109.94 135.496 109.956 135.496C109.971 135.497 109.986 135.493 109.999 135.484L121.122 129.069C121.22 129.013 121.294 128.923 121.329 128.817L128.698 106.992C128.717 106.937 128.746 106.888 128.783 106.846C128.821 106.803 128.867 106.769 128.918 106.746C136.813 102.997 144.662 98.99 152.465 94.724C153.941 93.9189 154.106 95.9851 153.954 96.7579C153.443 99.3424 152.833 103.245 152.125 108.466C151.472 113.326 150.197 118.593 147.588 123C144.575 128.096 139.617 131.653 134.038 133.787C129.376 135.574 124.83 136.986 120.4 138.023C114.907 139.307 109.332 139.265 103.675 137.896C97.8414 136.482 92.2232 135.092 86.8208 133.725C82.426 132.611 78.4497 131.447 74.892 130.233C74.303 130.031 73.948 129.783 73.8272 129.49C73.7863 129.39 73.7668 129.282 73.7698 129.174C73.7729 129.066 73.7984 128.959 73.8449 128.861C73.8914 128.762 73.9578 128.675 74.0399 128.602C74.1221 128.53 74.2182 128.476 74.3224 128.442C87.3365 124.234 100.118 119.447 112.666 114.079C112.684 114.072 112.704 114.069 112.724 114.071C112.744 114.074 112.763 114.081 112.779 114.093C112.794 114.105 112.807 114.121 112.814 114.139C112.822 114.157 112.824 114.176 112.821 114.196L109.876 135.4Z" fill="#1E398E"/>
</g>
</svg>
