<svg width="212" height="164" viewBox="0 0 212 164" fill="none" xmlns="http://www.w3.org/2000/svg">
<path d="M136.294 18.6747L1.15369 162.911H136.727L211.154 0.5H178.228C170.918 0.5 163.674 1.89495 156.887 4.61003C149.076 7.73439 142.046 12.5356 136.294 18.6747Z" fill="white"/>
<path d="M1.15369 162.911L136.294 18.6746C142.046 12.5356 149.076 7.73439 156.887 4.61003C163.674 1.89496 170.918 0.5 178.228 0.5H211.154M1.15369 162.911H136.727L211.154 0.5M1.15369 162.911L136.294 18.6747C142.046 12.5356 149.076 7.73439 156.887 4.61003C163.674 1.89495 170.918 0.5 178.228 0.5H211.154" stroke="#C2C2C2" stroke-opacity="0.4"/>
<path d="M106.838 103.115C106.423 102.706 106.248 102.329 106.435 101.84C106.625 101.349 106.275 100.976 106.962 100.311C107.652 99.6491 108.951 98.7812 109.381 98.3875C109.816 97.9923 110.767 97.3243 110.767 97.3243C110.767 97.3243 110.816 97.3327 111.007 96.8441C111.194 96.355 111.324 96.2208 111.671 96.021C112.018 95.821 114.284 94.7579 114.284 94.7579C114.284 94.7579 113.438 93.6648 113.989 92.2988C113.989 92.2988 115.843 93.0429 116.203 95.0964C116.305 95.6914 116.045 96.8993 114.656 97.3854C114.656 97.3854 115.891 98.0758 116.77 96.9246C116.77 96.9246 120.074 98.2414 119.593 102.76C119.113 107.275 117.926 109.889 115.704 110.699C115.704 110.699 119.077 109.259 121.222 110.682C121.222 110.682 117.997 110.371 116.109 112.233C115.451 112.883 114.811 112.525 113.841 112.721C112.87 112.915 109.483 115.608 110.641 117.906C110.641 117.906 109.146 116.526 110.384 113.729C110.644 113.147 111.362 112.02 111.557 110.903C111.75 109.788 112.977 107.861 113.835 106.81C114.695 105.76 115.051 104.62 114.693 103.407C114.693 103.407 118.051 102.956 117.039 99.5323C117.039 99.5323 116.775 101.381 115.521 101.957C114.248 102.542 113.122 101.978 113.122 101.978C113.122 101.978 112.58 102.861 112.07 103.083C111.563 103.308 111.139 103.363 110.726 103.656C110.308 103.95 109.523 104.221 108.738 104.161C108.173 104.115 107.951 103.884 108.243 103.413C108.243 103.413 107.547 103.816 106.838 103.115Z" fill="#231F20"/>
<path d="M117.124 94.8926C117.124 94.8926 116.929 93.3402 115.819 92.8332C115.819 92.8332 115.998 91.8191 116.263 91.5C116.263 91.5 117.811 92.453 118.004 94.3185C118.004 94.3185 120.246 95.1879 120.947 95.9395C121.648 96.691 124.121 97.1294 124.121 97.1294C124.121 97.1294 123.877 97.9227 123.485 98.063C123.485 98.063 124.85 99.1933 125.089 99.6004L124.421 99.8494C124.421 99.8494 126.416 100.935 127.02 102.244C127.02 102.244 126.416 102.713 125.52 102.501C125.52 102.501 126.482 103.511 126.566 103.943C126.566 103.943 125.97 104.359 124.998 103.981C124.998 103.981 126.334 105.262 126.905 105.572C126.905 105.572 125.754 105.893 125.118 105.674C125.118 105.674 127.219 107.041 127.629 108.262C127.629 108.262 126.787 108.322 125.387 107.708C125.387 107.708 124.887 108.771 126.381 110.343C126.381 110.343 125.313 110.468 124.724 109.998L124.13 109.524C124.13 109.524 121.938 109.553 122.083 106.653C122.231 103.748 122.077 96.609 117.124 94.8926Z" fill="#231F20"/>
<path d="M123.979 110.386C123.723 110.186 123.759 111.341 122.799 111.484C121.835 111.627 118.784 111.819 116.491 113.033C114.197 114.249 112.825 116.727 112.913 118.308C122.753 120.054 129.022 116.928 129.022 116.928C127.436 116.491 126.798 114.18 126.798 114.18C126.798 114.18 125.684 115.187 125.034 114.445C124.384 113.701 124.252 112.744 125.313 112.559C127.246 112.222 131.017 110.758 130.983 104.569C130.98 103.992 131.313 103.267 132.532 102.854C133.748 102.442 138.398 100.862 139.424 100.052L139.475 97.9658C139.475 97.9658 136.744 100.203 133.127 101.235C129.514 102.267 127.073 103.719 127.989 105.92L127.481 106.144C127.481 106.144 128.487 107.213 128.699 108.084C128.911 108.959 128.736 108.771 128.736 108.771C128.736 108.771 127.721 109.533 126.511 109.005C126.511 109.005 127.019 110.558 127.514 110.698C127.514 110.698 125.997 111.946 123.979 110.386Z" fill="#EF2E31"/>
<path d="M139.881 100.704C139.031 101.392 136.124 102.549 132.396 103.615L132.291 104.226C132.291 104.226 137.551 103.014 139.612 102.228" fill="#0FAB4B"/>
<path d="M132.277 104.903C134.058 104.539 138.581 103.668 139.52 103.051C139.52 103.051 139.392 104.384 137.744 104.879C136.094 105.37 131.946 105.892 131.946 105.892" fill="#0FAB4B"/>
<path d="M131.934 106.568C131.934 106.568 137.68 106.12 139.478 105.081C139.478 105.081 138.466 106.993 137.085 107.166C135.699 107.339 131.586 107.655 131.586 107.655" fill="#0FAB4B"/>
<path d="M131.511 108.375C134.401 108.52 137.858 108.086 138.861 107.115C138.861 107.115 137.876 109.452 135.667 109.58C133.462 109.714 131.199 109.26 131.199 109.26" fill="#0FAB4B"/>
<path d="M130.977 109.953C132.235 110.177 135.811 110.864 137.349 110.087C137.349 110.087 137.074 111.66 134.832 111.683C132.589 111.704 130.385 110.633 130.385 110.633" fill="#0FAB4B"/>
<path d="M130.018 111.249C130.789 111.594 133.083 113.047 135.635 112.452C135.635 112.452 134.402 114.43 133.101 114.148C131.795 113.863 128.938 112.05 128.938 112.05" fill="#0FAB4B"/>
<path d="M128.449 112.486C129.224 113.095 130.986 114.347 132.717 114.863C132.717 114.863 132.599 116.413 130.922 115.591C129.246 114.772 127.887 113.016 127.887 113.016" fill="#0FAB4B"/>
<path d="M127.493 113.468C128.036 114.245 129.236 115.711 130.302 116.161C130.302 116.161 128.58 116.484 128 115.336C127.422 114.188 127.215 113.578 127.215 113.578" fill="#0FAB4B"/>
<path d="M136.014 99.0273C134.522 99.8102 131.354 100.66 131.354 100.66C131.354 100.66 132.785 99.3434 133.6 97.97C134.411 96.5995 134.819 96.0433 135.192 96.0045C135.561 95.9665 135.818 95.6972 135.858 96.6457C135.9 97.5941 136.014 99.0273 136.014 99.0273Z" fill="#FCD006"/>
<path d="M105.194 103.115C105.611 102.706 105.786 102.329 105.596 101.84C105.408 101.349 105.756 100.976 105.07 100.311C104.382 99.6491 103.082 98.7812 102.648 98.3875C102.215 97.9923 101.267 97.3243 101.267 97.3243C101.267 97.3243 101.219 97.3327 101.027 96.8441C100.837 96.355 100.708 96.2208 100.36 96.021C100.015 95.821 97.747 94.7579 97.747 94.7579C97.747 94.7579 98.599 93.6648 98.046 92.2988C98.046 92.2988 96.1895 93.0429 95.8308 95.0964C95.7247 95.6914 95.9922 96.8993 97.3749 97.3854C97.3749 97.3854 96.1462 98.0758 95.2628 96.9246C95.2628 96.9246 91.9594 98.2414 92.4407 102.76C92.916 107.275 94.1073 109.889 96.3285 110.699C96.3285 110.699 92.9534 109.259 90.8099 110.682C90.8099 110.682 94.0356 110.371 95.9235 112.233C96.5797 112.883 97.2224 112.525 98.1955 112.721C99.1656 112.915 102.551 115.608 101.393 117.906C101.393 117.906 102.889 116.526 101.648 113.729C101.388 113.147 100.671 112.02 100.475 110.903C100.281 109.788 99.0564 107.861 98.197 106.81C97.3375 105.76 96.9772 104.62 97.3405 103.407C97.3405 103.407 93.9818 102.956 94.9967 99.5323C94.9967 99.5323 95.2568 101.381 96.5139 101.957C97.7859 102.542 98.9085 101.978 98.9085 101.978C98.9085 101.978 99.454 102.861 99.9623 103.083C100.469 103.308 100.895 103.363 101.309 103.656C101.723 103.95 102.512 104.221 103.294 104.161C103.859 104.115 104.085 103.884 103.792 103.413C103.792 103.413 104.487 103.816 105.194 103.115Z" fill="#231F20"/>
<path d="M94.9089 94.8926C94.9089 94.8926 95.1077 93.3402 96.2138 92.8332C96.2138 92.8332 96.0329 91.8191 95.7698 91.5C95.7698 91.5 94.2228 92.453 94.0285 94.3185C94.0285 94.3185 91.7863 95.1879 91.0883 95.9395C90.3872 96.691 87.9149 97.1294 87.9149 97.1294C87.9149 97.1294 88.1556 97.9227 88.5472 98.063C88.5472 98.063 87.184 99.1933 86.9419 99.6004L87.6115 99.8494C87.6115 99.8494 85.6145 100.935 85.0121 102.244C85.0121 102.244 85.6145 102.713 86.5159 102.501C86.5159 102.501 85.5458 103.511 85.4665 103.943C85.4665 103.943 86.06 104.359 87.0345 103.981C87.0345 103.981 85.6997 105.262 85.1287 105.572C85.1287 105.572 86.2782 105.893 86.915 105.674C86.915 105.674 84.8148 107.041 84.4053 108.262C84.4053 108.262 85.2453 108.322 86.6474 107.708C86.6474 107.708 87.1466 108.771 85.6534 110.343C85.6534 110.343 86.7162 110.468 87.3096 109.998L87.903 109.524C87.903 109.524 90.0928 109.553 89.9478 106.653C89.8043 103.748 89.9553 96.609 94.9089 94.8926Z" fill="#231F20"/>
<path d="M88.0563 110.386C88.3134 110.186 88.2745 111.341 89.2356 111.484C90.1968 111.627 93.249 111.819 95.542 113.033C97.8364 114.249 99.2086 116.727 99.1234 118.308C89.2835 120.054 83.0085 116.928 83.0085 116.928C84.5989 116.491 85.2357 114.18 85.2357 114.18C85.2357 114.18 86.3448 115.187 86.9965 114.445C87.6497 113.701 87.7798 112.744 86.717 112.559C84.7843 112.222 81.0175 110.758 81.0519 104.569C81.0564 103.992 80.7201 103.267 79.5018 102.854C78.2836 102.442 73.6394 100.862 72.6111 100.052L72.5573 97.9658C72.5573 97.9658 75.2911 100.203 78.9039 101.235C82.5197 102.267 84.9592 103.719 84.0459 105.92L84.5556 106.144C84.5556 106.144 83.5436 107.213 83.3314 108.084C83.1221 108.959 83.2955 108.771 83.2955 108.771C83.2955 108.771 84.3164 109.533 85.5242 109.005C85.5242 109.005 85.013 110.558 84.5212 110.698C84.5212 110.698 86.0414 111.946 88.0563 110.386Z" fill="#EF2E31"/>
<path d="M72.1537 100.704C73.0027 101.392 75.91 102.549 79.6349 103.615L79.741 104.226C79.741 104.226 74.481 103.014 72.4198 102.228" fill="#0FAB4B"/>
<path d="M79.7562 104.903C77.9775 104.539 73.4529 103.668 72.5127 103.051C72.5127 103.051 72.6427 104.384 74.2885 104.879C75.9357 105.37 80.0866 105.892 80.0866 105.892" fill="#0FAB4B"/>
<path d="M80.1007 106.568C80.1007 106.568 74.3519 106.12 72.5552 105.081C72.5552 105.081 73.5656 106.993 74.9498 107.166C76.3324 107.339 80.4459 107.655 80.4459 107.655" fill="#0FAB4B"/>
<path d="M80.5214 108.375C77.6335 108.52 74.1747 108.086 73.1732 107.115C73.1732 107.115 74.1538 109.452 76.363 109.58C78.5707 109.714 80.8338 109.26 80.8338 109.26" fill="#0FAB4B"/>
<path d="M81.0603 109.953C79.7957 110.177 76.2248 110.864 74.6852 110.087C74.6852 110.087 74.9587 111.66 77.2008 111.683C79.4415 111.704 81.6462 110.633 81.6462 110.633" fill="#0FAB4B"/>
<path d="M82.0155 111.249C81.2412 111.594 78.9482 113.047 76.3982 112.452C76.3982 112.452 77.6314 114.43 78.9333 114.148C80.2322 113.863 83.0917 112.05 83.0917 112.05" fill="#0FAB4B"/>
<path d="M83.5854 112.486C82.8036 113.095 81.0518 114.347 79.3179 114.863C79.3179 114.863 79.436 116.413 81.1101 115.591C82.7902 114.772 84.1429 113.016 84.1429 113.016" fill="#0FAB4B"/>
<path d="M84.5371 113.468C83.996 114.245 82.7957 115.711 81.7329 116.161C81.7329 116.161 83.4519 116.484 84.0333 115.336C84.6118 114.188 84.8166 113.578 84.8166 113.578" fill="#0FAB4B"/>
<path d="M76.0194 99.0273C77.5112 99.8102 80.6755 100.66 80.6755 100.66C80.6755 100.66 79.251 99.3434 78.4379 97.97C77.6218 96.5995 77.2122 96.0433 76.8445 96.0045C76.4723 95.9665 76.2182 95.6972 76.1779 96.6457C76.1345 97.5941 76.0194 99.0273 76.0194 99.0273Z" fill="#FCD006"/>
</svg>
