<svg width="212" height="164" viewBox="0 0 212 164" fill="none" xmlns="http://www.w3.org/2000/svg">
<path d="M136.297 18.6747L1.15625 162.911H136.729L211.156 0.5H178.231C170.92 0.5 163.677 1.89495 156.889 4.61003C149.078 7.73439 142.049 12.5356 136.297 18.6747Z" fill="#69AB4A"/>
<path d="M1.15625 162.911L136.297 18.6746C142.049 12.5356 149.078 7.73439 156.889 4.61003C163.677 1.89496 170.92 0.5 178.231 0.5H211.156M1.15625 162.911H136.729L211.156 0.5M1.15625 162.911L136.297 18.6747C142.049 12.5356 149.078 7.73439 156.889 4.61003C163.677 1.89495 170.92 0.5 178.231 0.5H211.156" stroke="#C2C2C2" stroke-opacity="0.4"/>
<mask id="mask0_365_358306" style="mask-type:alpha" maskUnits="userSpaceOnUse" x="1" y="0" width="211" height="163">
<path d="M136.297 18.6747L1.15625 162.911H136.729L211.156 0.5H178.231C170.92 0.5 163.677 1.89495 156.889 4.61003C149.078 7.73439 142.049 12.5356 136.297 18.6747Z" fill="#100D5C"/>
</mask>
<g mask="url(#mask0_365_358306)">
<path d="M148.233 83.0893C148.151 83.1154 148.096 83.1512 148.068 83.1968C148.066 83.2014 148.064 83.2065 148.064 83.2117C148.064 83.217 148.065 83.2222 148.068 83.2268C148.07 83.2315 148.074 83.2354 148.078 83.2383C148.083 83.2411 148.088 83.2429 148.093 83.2433C148.155 83.2481 148.214 83.2166 148.268 83.1488C148.266 83.1613 148.271 83.1705 148.282 83.1765C148.291 83.1808 148.302 83.1811 148.316 83.1773C149.477 82.8601 150.665 82.4568 151.88 81.9675C152.3 81.7981 152.688 81.6169 153.044 81.4241C153.049 81.4216 153.054 81.4205 153.06 81.4209C153.066 81.4214 153.071 81.4235 153.075 81.4269C153.08 81.4303 153.083 81.4348 153.085 81.44C153.086 81.4451 153.086 81.4507 153.085 81.4559C151.759 86.2939 149.584 90.7126 146.561 94.7121C146.062 95.3719 145.306 96.2349 144.295 97.301C142.591 99.096 140.867 100.663 139.124 102.002C138.256 102.669 137.387 103.175 136.515 103.519C136.491 103.528 136.475 103.538 136.466 103.549C136.464 103.551 136.463 103.555 136.462 103.558C136.462 103.561 136.462 103.565 136.464 103.568C136.465 103.571 136.467 103.574 136.47 103.576C136.473 103.578 136.477 103.579 136.48 103.579L139.998 103.641C140.003 103.641 140.007 103.643 140.011 103.646C140.015 103.649 140.018 103.653 140.019 103.657C140.021 103.662 140.021 103.667 140.019 103.672C140.018 103.676 140.015 103.68 140.011 103.683C139.825 103.81 139.602 103.934 139.342 104.054C138.515 104.437 137.664 104.804 136.79 105.156C135.196 105.797 133.545 106.282 131.838 106.611C130.15 106.936 128.422 107.169 126.655 107.31C126.647 107.311 126.64 107.315 126.635 107.32C126.63 107.326 126.627 107.334 126.626 107.341C126.626 107.349 126.629 107.357 126.634 107.363C126.639 107.369 126.646 107.373 126.653 107.374L132.049 108.048C132.053 108.048 132.056 108.05 132.058 108.052C132.06 108.055 132.062 108.058 132.062 108.061C132.062 108.065 132.061 108.068 132.06 108.071C132.058 108.073 132.055 108.076 132.052 108.077C130.258 108.63 128.443 109 126.609 108.955C125.661 108.932 124.509 108.724 123.486 108.652C122.921 108.612 122.433 108.603 122.022 108.625C120.658 108.697 119.31 108.877 117.98 109.165C116.175 109.555 114.229 110.076 112.142 110.727C111.555 110.91 110.89 111.024 110.146 111.067C109.838 111.086 109.457 111.03 109.18 110.992C109.172 110.991 109.164 110.987 109.158 110.981C109.152 110.975 109.149 110.967 109.148 110.958C109.147 110.95 109.15 110.942 109.155 110.935C109.16 110.928 109.167 110.923 109.175 110.921C110.772 110.492 112.383 109.935 114.007 109.249C119.896 106.762 125.183 102.927 129.787 98.4351C132.789 95.5063 135.476 92.374 138.099 88.9964C138.152 88.929 138.201 88.8625 138.248 88.7968L139.283 87.4559C139.287 87.4514 139.288 87.4458 139.288 87.4403C139.288 87.4348 139.286 87.4296 139.282 87.4257L139.266 87.4102C139.262 87.4063 139.257 87.4033 139.252 87.4014C139.247 87.3994 139.241 87.3986 139.235 87.399C139.23 87.3994 139.224 87.4009 139.219 87.4036C139.214 87.4062 139.21 87.4099 139.207 87.4143L138.163 88.73C138.157 88.7316 138.15 88.733 138.143 88.7341C138.129 88.7367 138.116 88.7439 138.107 88.7544C134.132 93.4412 129.478 97.5976 124.419 101.233C121.221 103.532 117.934 105.44 114.399 107.075C112.771 107.827 111.432 108.405 110.383 108.808C107.622 109.868 104.762 110.606 101.701 111C100.223 111.189 98.8061 111.319 97.4509 111.391C95.4024 111.498 93.5299 111.526 91.8335 111.476C91.3792 111.463 90.7041 111.443 89.8081 111.416C89.3373 111.402 88.9986 111.388 88.792 111.373C88.135 111.328 87.7966 111.305 87.7769 111.303C87.5802 111.29 87.4225 111.242 87.3039 111.158C87.1893 111.077 87.1283 110.937 87.1687 110.789C87.2176 110.613 87.3646 110.523 87.6096 110.52C88.0661 110.513 88.7237 110.527 89.5823 110.564C90.7252 110.612 91.6976 110.62 92.8224 110.625C94.5948 110.634 96.3764 110.457 98.0335 109.935C98.8171 109.688 99.6964 109.259 99.9666 108.459C100.216 107.716 99.7952 106.886 99.3099 106.31C98.1818 104.969 96.5725 104.02 94.8725 103.49C94.1639 103.268 93.4604 103.196 92.7622 103.273C92.476 103.305 92.2068 103.393 91.9547 103.537C91.9465 103.542 91.9375 103.545 91.9283 103.545C91.919 103.546 91.9097 103.545 91.9009 103.542C91.8922 103.539 91.8842 103.534 91.8775 103.528C91.8709 103.522 91.8657 103.514 91.8624 103.505C91.7948 103.334 91.7511 103.172 91.7313 103.019C91.6275 102.203 92.562 101.651 93.2096 101.457C93.9414 101.239 94.6407 101.059 95.3076 100.918C95.6702 100.842 95.9767 100.822 96.3352 100.767C96.3508 100.764 96.3658 100.759 96.3792 100.751C96.3927 100.743 96.4043 100.732 96.4134 100.719C96.4673 100.643 96.4893 100.546 96.4794 100.427C96.4783 100.412 96.4718 100.398 96.4611 100.387C96.4505 100.376 96.4362 100.369 96.4209 100.367C96.1396 100.337 95.9495 100.342 95.8506 100.383C95.2812 100.618 94.8478 100.776 94.3155 100.854C94.3058 100.855 94.2958 100.854 94.287 100.849C94.2781 100.845 94.2708 100.838 94.2658 100.83C94.2609 100.822 94.2585 100.812 94.2592 100.802C94.2598 100.793 94.2633 100.783 94.2693 100.776C94.711 100.216 95.2928 99.9519 95.9907 99.7279C96.6796 99.5063 97.3512 99.3521 98.0055 99.2652C98.4779 99.2022 98.9693 99.1794 99.4796 99.1968C101.62 99.2701 103.685 100.181 105.557 101.162C106.453 101.63 107.102 101.939 107.506 102.087C112.223 103.82 117.442 102.72 121.599 100.074C122.174 99.7081 122.85 99.2179 123.626 98.6037C125.067 97.4637 126.244 96.5277 127.157 95.7956C129.086 94.2488 131.024 92.5665 132.971 90.7487C138.464 85.6188 143.197 79.693 147.155 73.2848C150.833 67.3297 153.918 61.0128 156.526 54.524C156.529 54.5166 156.534 54.5103 156.541 54.506C156.547 54.5017 156.555 54.4996 156.563 54.5001C156.571 54.5005 156.579 54.5035 156.585 54.5085C156.591 54.5136 156.595 54.5204 156.597 54.5281C156.825 55.4454 156.981 56.3722 157.066 57.3085C157.271 59.5831 157.128 61.8361 156.636 64.0678C156.254 65.8087 155.428 67.368 154.279 68.7814C153.942 69.1963 153.639 69.5624 153.372 69.8796C153.294 69.9719 153.238 70.064 153.206 70.1557C153.203 70.1652 153.202 70.1754 153.204 70.1851C153.206 70.1949 153.211 70.2038 153.219 70.2109C153.226 70.218 153.235 70.2229 153.245 70.2251C153.255 70.2273 153.265 70.2267 153.274 70.2234C153.846 70.0262 154.371 69.7337 154.849 69.346C155.361 68.931 155.865 68.4566 156.362 67.9228C156.366 67.9185 156.371 67.9157 156.377 67.9147C156.382 67.9136 156.388 67.9145 156.394 67.9171C156.399 67.9197 156.403 67.9239 156.405 67.929C156.408 67.9341 156.409 67.94 156.407 67.9456C156.233 68.8569 156.058 69.8872 155.882 71.0364C155.538 73.284 155.147 75.6514 154.188 77.6718C153.547 79.0217 152.487 80.1003 151.302 81.0054C150.319 81.7549 149.297 82.4495 148.233 83.0893Z" fill="white"/>
<path d="M149.981 93.3683C151.037 96.3143 151.714 99.3545 152.014 102.489C152.098 103.374 152.156 104.222 152.156 104.952C152.157 106.219 152.152 107.011 152.142 107.33C152.032 110.791 151.429 114.198 150.334 117.551C148.612 122.821 145.867 127.479 142.097 131.525C141.861 131.778 141.246 132.395 140.25 133.376C139.744 133.875 139.031 134.457 138.619 134.805C136.662 136.454 134.558 137.874 132.307 139.067C131.705 139.386 131.001 139.734 130.195 140.112C126.896 141.657 123.303 142.676 119.746 143.149C118.854 143.269 117.873 143.363 116.804 143.433C115.854 143.495 114.869 143.514 113.852 143.49C108.988 143.373 104.32 142.356 99.8488 140.438C99.1587 140.142 98.2579 139.703 97.1465 139.122C94.8357 137.915 92.6626 136.455 90.6272 134.744C90.0136 134.228 89.4732 133.751 89.006 133.312C87.3329 131.744 85.76 129.956 84.2874 127.949C83.4421 126.797 82.5881 125.443 81.7253 123.888C81.6259 123.707 81.5352 123.535 81.4532 123.371C81.0393 122.543 80.6934 121.901 80.3697 121.149C79.5774 119.312 78.9446 117.533 78.4714 115.813C77.5343 112.405 77.098 108.851 77.1625 105.149C77.1647 105.005 77.1805 104.732 77.21 104.331C77.2379 103.962 77.2108 103.59 77.269 103.239C77.3264 102.886 77.3239 102.449 77.378 101.963C77.7922 98.2397 78.7159 94.696 80.1492 91.3314C80.1825 91.2533 80.3932 90.7847 80.7811 89.9257C81.0499 89.3306 81.2975 88.9289 81.5868 88.3511C81.6327 88.2598 81.7455 88.0516 81.9253 87.7265C83.0285 85.7319 84.3508 83.8141 85.8923 81.9731C85.8934 81.972 86.2291 81.5843 86.8996 80.81C87.3233 80.3206 87.7397 79.9854 88.1233 79.5042C88.2271 79.3736 88.3492 79.2556 88.4896 79.1501C88.906 78.8378 89.3084 78.3583 89.742 77.9821C91.3198 76.6115 92.9656 75.3582 94.7139 74.25C99.8553 70.991 105.712 69.0745 111.798 68.5909C112.684 68.5204 113.449 68.4909 114.091 68.5024C114.493 68.5095 115.003 68.5092 115.622 68.5016C116.076 68.4961 116.584 68.5131 117.147 68.5524C121.188 68.8349 125.085 69.7371 128.84 71.259C129.426 71.4967 130.119 71.8254 130.733 72.0967C131.106 72.2623 131.445 72.4322 131.75 72.6066C132.183 72.8558 132.548 73.018 133.09 73.3271C135.883 74.9205 138.438 76.8299 140.755 79.055C140.764 79.0632 140.77 79.0743 140.771 79.0863C140.772 79.0983 140.769 79.1104 140.763 79.1206C139.767 80.625 138.685 82.0608 137.516 83.428C137.512 83.4326 137.508 83.4363 137.502 83.4389C137.497 83.4416 137.491 83.443 137.485 83.4433C137.479 83.4435 137.473 83.4425 137.468 83.4403C137.462 83.4381 137.457 83.4347 137.453 83.4305C135.42 81.3939 133.163 79.6537 130.681 78.2099C130.37 78.0296 130.108 77.8872 129.894 77.7829C129.501 77.5919 129.214 77.4017 128.83 77.223C128.016 76.8443 127.547 76.6285 127.423 76.5755C124.445 75.2929 121.362 74.4804 118.173 74.1377C117.942 74.1131 117.414 74.0713 116.586 74.0123C115.753 73.9525 114.922 73.9722 114.124 73.9689C114.102 73.9689 113.793 73.9795 113.195 74.0009C109.401 74.1369 105.62 75.0082 102.113 76.4935C98.9865 77.8176 96.0796 79.6553 93.3918 82.0067C93.1525 82.216 92.9467 82.4114 92.7746 82.5928C92.4771 82.9051 92.2034 83.0977 91.9624 83.3846C91.6616 83.7436 91.1378 84.2174 90.7182 84.6895C89.2418 86.3486 87.9585 88.1273 86.8684 90.0257C86.6848 90.3453 86.5611 90.5713 86.4971 90.7035C86.2144 91.2872 85.9423 91.6822 85.7201 92.2454C85.6079 92.5306 85.3677 92.9593 85.1808 93.402C83.4629 97.4834 82.6187 101.776 82.6482 106.28C82.6482 106.318 82.6586 106.625 82.6793 107.201C82.772 109.785 83.1523 112.32 83.8588 114.797C85.2117 119.539 87.5482 123.762 90.8682 127.466C91.1753 127.809 91.455 128.105 91.7075 128.353C92.1517 128.789 92.6296 129.304 93.1394 129.737C93.2312 129.815 93.4276 129.987 93.7287 130.253C94.4013 130.849 95.2676 131.524 96.3277 132.277C97.1981 132.896 98.1344 133.481 99.1365 134.032C103.959 136.687 109.175 138.014 114.786 138.011C114.927 138.011 115.45 137.993 116.357 137.958C118.981 137.857 121.61 137.372 124.101 136.623C125.669 136.151 127.213 135.521 128.708 134.813C128.837 134.752 128.969 134.659 129.093 134.598C131.104 133.61 132.999 132.392 134.779 130.944C135.1 130.683 135.515 130.334 136.025 129.898C136.295 129.667 137.057 128.913 138.311 127.634C138.447 127.495 138.746 127.138 138.886 126.979C140.116 125.597 141.227 124.008 142.282 122.255C142.758 121.463 143.156 120.727 143.475 120.046C144.309 118.264 144.934 116.672 145.348 115.269C145.874 113.49 146.252 111.66 146.481 109.778C146.522 109.443 146.538 109.186 146.53 109.006C146.528 108.964 146.546 108.905 146.584 108.83C146.598 108.802 146.605 108.771 146.604 108.74C146.6 108.422 146.605 108.142 146.619 107.898C146.622 107.847 146.639 107.802 146.67 107.763C146.68 107.751 146.685 107.736 146.685 107.721V104.343C146.685 104.303 146.676 104.264 146.659 104.228L146.635 104.178C146.622 104.15 146.617 104.12 146.619 104.089C146.619 104.082 146.607 103.764 146.584 103.134C146.581 103.067 146.576 103 146.569 102.935C146.511 102.396 146.451 101.922 146.389 101.515C146.284 100.833 146.171 100.147 146.05 99.4553C146.029 99.3362 146.049 99.2389 146.11 99.1635C146.569 98.5946 147.063 97.9545 147.592 97.243C148.519 95.9965 149.309 94.7047 149.961 93.3675C149.962 93.3656 149.964 93.364 149.965 93.3629C149.967 93.3618 149.969 93.3613 149.971 93.3614C149.973 93.3614 149.976 93.3622 149.977 93.3634C149.979 93.3646 149.98 93.3664 149.981 93.3683Z" fill="white"/>
</g>
</svg>
